<?xml version="1.0" encoding="utf-8" ?>
<svg baseProfile="full" height="756" version="1.1" width="1024" xmlns="http://www.w3.org/2000/svg" xmlns:ev="http://www.w3.org/2001/xml-events" xmlns:xlink="http://www.w3.org/1999/xlink"><defs /><path d="M348.67,745.06L348.67,746.9L354.18,746.9L359.68,743.23L365.19,741.39L368.86,737.72L374.37,732.22L379.87,728.54L385.38,723.04L390.88,719.37L396.39,717.53L400.06,713.86L403.73,710.19L407.4,704.69L412.9,701.02L416.57,695.51L420.24,691.84L423.91,688.17L427.58,684.5L431.25,680.83L434.92,679L438.59,675.33L442.27,671.66L445.94,667.99L449.61,664.32L455.11,662.48L458.78,658.81L462.45,655.14L467.96,649.63L471.63,644.13L477.13,640.46L480.8,634.95L486.31,631.28L489.98,629.45L493.65,625.78L499.15,622.11L502.82,618.44L508.33,614.77L513.84,611.1L519.34,607.43L524.85,603.76L530.35,598.25L535.86,592.75L541.36,589.08L546.87,585.41L550.54,581.73L556.04,578.06L561.55,574.39L565.22,568.89L570.72,565.22L574.39,561.55L579.9,557.88L585.41,554.21L589.08,548.7L594.58,546.87L600.09,541.36L605.59,537.69L611.1,532.19L614.77,528.52L618.44,524.85L622.11,521.18L625.78,517.51L631.28,513.84L634.95,512L638.62,510.16L642.29,508.33L645.96,506.49L649.63,502.82L653.3,500.99L656.97,499.15L660.65,495.48L664.32,493.65L666.15,491.81L669.82,489.98L673.49,488.14L677.16,486.31L679,482.64L682.67,480.8L686.34,477.13L691.84,473.46L695.51,471.63L701.02,467.96L704.69,464.29L708.36,460.62L713.86,456.95" fill="none" stroke="#000000" style="-webkit-tap-highlight-color: rgba(0, 0, 0, 0); stroke-linecap: round; stroke-linejoin: round; stroke-width: 5;" /><path d="M710.19,462.45L710.19,460.62L712.03,458.78L713.86,456.95L717.53,455.11L721.2,451.44L724.87,447.77L728.54,444.1L734.05,440.43L737.72,436.76L741.39,434.92L746.9,431.25L750.57,425.75L754.24,423.91L757.91,420.24L761.58,416.57L765.25,414.74L768.92,411.07L772.59,407.4L776.26,403.73L779.93,400.06L783.6,396.39L785.43,392.72L789.1,390.88L790.94,389.05L792.77,385.38L796.44,381.71L800.11,378.04L801.95,374.37L803.78,372.53L807.46,370.7L809.29,367.03L812.96,361.52L814.8,359.68L818.47,356.01L820.3,354.18L822.14,352.34L825.81,348.67L829.48,345L831.31,341.33L834.98,339.5L836.82,335.83L840.49,332.16L844.16,328.49L847.83,324.82L851.5,321.15L857,315.64L860.67,311.97L864.34,308.3L868.01,304.63L871.68,302.8L875.35,299.13L877.19,297.29L880.86,293.62L884.53,291.78L886.37,288.11L890.04,286.28L893.71,282.61L897.38,278.94L902.88,277.1L906.55,273.43L910.22,271.6L915.73,267.93L919.4,266.09L924.9,262.42L930.41,258.75L935.91,255.08L939.58,251.41L946.92,247.74L952.43,244.07L957.94,238.57L961.61,234.9L967.11,231.23L970.78,229.39L976.29,225.72L979.96,222.05L981.79,218.38L985.46,216.54L989.13,212.87L992.8,209.2L996.47,205.53L1001.98,201.86L1007.48,198.19L1012.99,190.85L1018.49,185.35L1020.33,183.51" fill="none" stroke="#000000" style="-webkit-tap-highlight-color: rgba(0, 0, 0, 0); stroke-linecap: round; stroke-linejoin: round; stroke-width: 5;" /><path d="M493.65,746.9L491.81,748.73L489.98,748.73L493.65,748.73L495.48,748.73L500.99,746.9L504.66,743.23L512,737.72L519.34,732.22L524.85,726.71L532.19,723.04L539.53,717.53L546.87,713.86L554.21,708.36L561.55,702.85L567.05,697.35L572.56,691.84L576.23,688.17L581.73,684.5L585.41,682.67L589.08,677.16L592.75,673.49L596.42,669.82L600.09,667.99L603.76,664.32L605.59,660.65L609.26,658.81L612.93,656.97L614.77,655.14L618.44,653.3L620.27,651.47L622.11,649.63L625.78,647.8L625.78,645.96L627.61,644.13L629.45,642.29L631.28,638.62L633.12,636.79L634.95,634.95L634.95,633.12L636.79,631.28L638.62,629.45L638.62,625.78L640.46,623.94L642.29,622.11L642.29,620.27L642.29,616.6L644.13,614.77L644.13,611.1L645.96,609.26L647.8,607.43L649.63,603.76L649.63,601.92L651.47,598.25L653.3,594.58L656.97,590.91L658.81,587.24L660.65,583.57L662.48,581.73L664.32,578.06L667.99,574.39L669.82,572.56L671.66,570.72" fill="none" stroke="#000000" style="-webkit-tap-highlight-color: rgba(0, 0, 0, 0); stroke-linecap: round; stroke-linejoin: round; stroke-width: 5;" /><path d="M680.83,567.05L680.83,565.22L679,565.22L677.16,565.22L679,565.22L680.83,561.55L684.5,559.71L688.17,559.71L691.84,557.88L695.51,557.88L699.18,557.88L704.69,554.21L708.36,552.37L712.03,548.7L713.86,548.7L715.7,546.87L717.53,546.87L717.53,543.2L719.37,541.36L719.37,539.53L721.2,535.86L721.2,534.02L723.04,532.19L723.04,530.35L724.87,528.52L724.87,526.68L726.71,524.85L726.71,523.01L728.54,519.34L730.38,517.51L732.22,515.67L734.05,513.84L735.89,510.16L735.89,508.33L737.72,506.49L739.56,504.66L739.56,500.99L743.23,499.15L745.06,495.48L746.9,493.65L748.73,491.81L750.57,489.98L752.4,486.31L756.07,480.8L757.91,480.8L757.91,478.97L759.74,477.13L763.41,475.3L765.25,473.46L768.92,469.79L770.75,469.79L772.59,467.96L776.26,466.12L778.09,462.45L779.93,462.45L781.76,460.62L781.76,458.78L783.6,456.95L785.43,456.95L787.27,453.28L789.1,451.44L792.77,449.61L794.61,449.61L796.44,447.77L798.28,445.94L800.11,444.1L801.95,442.27L803.78,440.43L807.46,440.43L809.29,438.59L811.13,436.76L814.8,434.92L816.63,433.09L818.47,431.25L820.3,427.58L823.97,425.75L825.81,422.08L825.81,420.24L827.64,418.41L827.64,416.57L829.48,412.9L829.48,411.07L831.31,407.4L833.15,405.56L834.98,403.73L836.82,401.89L838.65,400.06L840.49,398.22L842.32,396.39L844.16,394.55L844.16,392.72L847.83,390.88L853.33,385.38L858.84,381.71L862.51,376.2L868.01,372.53L869.85,370.7L871.68,368.86L873.52,368.86L875.35,367.03L877.19,365.19L879.03,363.35L882.7,363.35L886.37,363.35L890.04,361.52L893.71,361.52L899.21,359.68L902.88,357.85L906.55,357.85L908.39,356.01L912.06,354.18" fill="none" stroke="#000000" style="-webkit-tap-highlight-color: rgba(0, 0, 0, 0); stroke-linecap: round; stroke-linejoin: round; stroke-width: 5;" /><path d="M910.22,352.34L904.72,356.01L902.88,356.01L906.55,354.18L908.39,352.34L910.22,350.51L912.06,346.84L915.73,343.17L917.56,339.5L923.07,333.99L924.9,330.32L926.74,328.49L928.57,326.65L930.41,324.82L932.24,322.98L934.08,321.15L934.08,319.31L935.91,317.48L937.75,315.64L939.58,313.81L941.42,311.97L943.25,311.97L945.09,310.14L946.92,306.47L948.76,304.63L952.43,302.8L954.27,300.96L956.1,299.13L959.77,297.29L965.28,293.62L968.95,288.11L970.78,284.44L974.45,280.77L974.45,277.1L976.29,275.27L976.29,273.43L978.12,271.6L979.96,269.76L981.79,267.93L983.63,266.09L985.46,264.26L985.46,262.42L987.3,262.42L987.3,260.59L990.97,258.75L992.8,255.08L996.47,253.25L998.31,249.58L1000.14,245.91L1001.98,244.07L1005.65,240.4L1011.15,236.73L1014.82,233.06L1020.33,229.39L1022.16,227.56L1024,227.56" fill="none" stroke="#000000" style="-webkit-tap-highlight-color: rgba(0, 0, 0, 0); stroke-linecap: round; stroke-linejoin: round; stroke-width: 5;" /><path d="M952.43,319.31" fill="none" stroke="#000000" style="-webkit-tap-highlight-color: rgba(0, 0, 0, 0); stroke-linecap: round; stroke-linejoin: round; stroke-width: 5;" /><path d="M948.76,321.15L945.09,321.15L945.09,319.31L945.09,315.64L945.09,313.81L946.92,315.64L950.59,315.64L954.27,317.48L959.77,317.48L963.44,317.48L967.11,317.48L972.62,319.31L976.29,319.31L979.96,319.31L985.46,319.31L989.13,319.31L992.8,319.31L994.64,319.31L998.31,319.31L1001.98,321.15L1007.48,321.15L1014.82,321.15L1020.33,321.15L1022.16,322.98" fill="none" stroke="#000000" style="-webkit-tap-highlight-color: rgba(0, 0, 0, 0); stroke-linecap: round; stroke-linejoin: round; stroke-width: 5;" /><path d="M934.08,330.32L934.08,328.49L934.08,330.32L932.24,333.99L932.24,335.83L932.24,339.5L930.41,343.17L928.57,346.84L928.57,350.51L926.74,352.34L926.74,354.18L926.74,356.01L926.74,357.85L926.74,359.68L928.57,359.68L932.24,359.68L935.91,361.52L941.42,361.52L946.92,361.52L959.77,363.35L967.11,365.19L972.62,365.19L976.29,367.03L981.79,367.03L985.46,368.86L990.97,368.86L996.47,370.7L1003.81,370.7L1012.99,368.86L1022.16,367.03" fill="none" stroke="#000000" style="-webkit-tap-highlight-color: rgba(0, 0, 0, 0); stroke-linecap: round; stroke-linejoin: round; stroke-width: 5;" /><path d="M866.18,385.38L864.34,385.38L860.67,385.38L860.67,383.54L864.34,383.54L868.01,381.71L873.52,381.71L879.03,379.87L888.2,378.04L893.71,378.04L897.38,378.04L902.88,378.04L906.55,378.04L912.06,378.04L915.73,378.04L917.56,379.87L921.23,381.71L924.9,381.71L928.57,383.54L932.24,383.54L934.08,385.38L935.91,385.38L937.75,387.21L939.58,387.21L941.42,389.05L943.25,389.05L945.09,389.05L946.92,390.88L948.76,390.88L948.76,392.72L948.76,394.55L950.59,398.22L950.59,400.06L950.59,403.73L950.59,405.56L950.59,409.23L950.59,412.9L950.59,416.57L948.76,418.41L948.76,420.24L946.92,422.08L945.09,423.91L943.25,427.58L941.42,429.42L939.58,431.25L939.58,433.09L937.75,433.09L935.91,434.92L934.08,434.92L930.41,436.76L926.74,438.59L924.9,438.59L921.23,440.43L917.56,440.43L913.89,440.43L910.22,442.27L908.39,442.27L904.72,442.27L901.05,442.27L897.38,444.1L891.87,444.1L888.2,444.1L882.7,442.27L877.19,440.43L873.52,436.76L866.18,433.09L858.84,429.42L851.5,425.75L838.65,423.91L831.31,423.91L829.48,422.08" fill="none" stroke="#000000" style="-webkit-tap-highlight-color: rgba(0, 0, 0, 0); stroke-linecap: round; stroke-linejoin: round; stroke-width: 5;" /><path d="M961.61,398.22L959.77,398.22L965.28,403.73L968.95,407.4L972.62,411.07L979.96,412.9L985.46,414.74L990.97,416.57L996.47,416.57L1001.98,418.41L1005.65,418.41L1009.32,418.41L1014.82,418.41L1018.49,418.41" fill="none" stroke="#000000" style="-webkit-tap-highlight-color: rgba(0, 0, 0, 0); stroke-linecap: round; stroke-linejoin: round; stroke-width: 5;" /><path d="M952.43,394.55L954.27,392.72L959.77,390.88L965.28,389.05L972.62,389.05L979.96,390.88L987.3,390.88L992.8,390.88L998.31,390.88L1003.81,392.72L1007.48,394.55L1009.32,396.39L1012.99,396.39L1018.49,396.39" fill="none" stroke="#000000" style="-webkit-tap-highlight-color: rgba(0, 0, 0, 0); stroke-linecap: round; stroke-linejoin: round; stroke-width: 5;" /><path d="M943.25,442.27L941.42,440.43L941.42,442.27L943.25,444.1L946.92,445.94L950.59,447.77L956.1,449.61L963.44,449.61L972.62,449.61L979.96,449.61L987.3,449.61L994.64,449.61L1001.98,449.61L1007.48,449.61L1011.15,449.61L1014.82,449.61" fill="none" stroke="#000000" style="-webkit-tap-highlight-color: rgba(0, 0, 0, 0); stroke-linecap: round; stroke-linejoin: round; stroke-width: 5;" /><path d="M989.13,462.45L987.3,460.62L987.3,462.45L989.13,464.29L990.97,469.79L990.97,475.3L990.97,484.47L990.97,493.65L990.97,500.99L990.97,506.49L989.13,512L985.46,515.67L985.46,517.51" fill="none" stroke="#000000" style="-webkit-tap-highlight-color: rgba(0, 0, 0, 0); stroke-linecap: round; stroke-linejoin: round; stroke-width: 5;" /><path d="M888.2,453.28L888.2,451.44L886.37,455.11L884.53,460.62L882.7,467.96L880.86,473.46L880.86,478.97L882.7,482.64L882.7,486.31L884.53,488.14L886.37,491.81L888.2,493.65L891.87,493.65L895.54,495.48L899.21,497.32L904.72,499.15L912.06,500.99L917.56,502.82L926.74,504.66L934.08,508.33L941.42,510.16L948.76,510.16L959.77,512L967.11,512L972.62,512L979.96,512L985.46,512" fill="none" stroke="#000000" style="-webkit-tap-highlight-color: rgba(0, 0, 0, 0); stroke-linecap: round; stroke-linejoin: round; stroke-width: 5;" /><path d="M827.64,431.25L825.81,429.42L825.81,436.76L825.81,440.43L825.81,445.94L827.64,449.61L829.48,453.28L831.31,455.11L833.15,458.78L834.98,460.62L836.82,462.45L842.32,466.12L845.99,467.96L851.5,471.63L858.84,473.46L866.18,473.46L875.35,473.46L880.86,471.63" fill="none" stroke="#000000" style="-webkit-tap-highlight-color: rgba(0, 0, 0, 0); stroke-linecap: round; stroke-linejoin: round; stroke-width: 5;" /><path d="M715.7,563.38L715.7,561.55L715.7,559.71L713.86,559.71L712.03,561.55L710.19,563.38L710.19,565.22L708.36,567.05L706.52,570.72L706.52,574.39L704.69,578.06L704.69,581.73L702.85,585.41L702.85,590.91L702.85,594.58L702.85,600.09L702.85,603.76L701.02,607.43L701.02,611.1L701.02,612.93L701.02,614.77L701.02,616.6L701.02,618.44L699.18,620.27L699.18,622.11L697.35,623.94L695.51,627.61L693.68,629.45L691.84,629.45L688.17,629.45L684.5,631.28L679,631.28L673.49,633.12L667.99,634.95L669.82,631.28" fill="none" stroke="#000000" style="-webkit-tap-highlight-color: rgba(0, 0, 0, 0); stroke-linecap: round; stroke-linejoin: round; stroke-width: 5;" /><path d="M673.49,570.72L673.49,568.89L673.49,570.72L673.49,572.56L671.66,578.06L669.82,583.57L669.82,589.08L667.99,594.58L667.99,600.09L666.15,607.43L666.15,614.77L666.15,623.94L666.15,629.45L666.15,633.12L667.99,634.95" fill="none" stroke="#000000" style="-webkit-tap-highlight-color: rgba(0, 0, 0, 0); stroke-linecap: round; stroke-linejoin: round; stroke-width: 5;" /><path d="M717.53,596.42L715.7,594.58L719.37,596.42L723.04,596.42L726.71,596.42L730.38,598.25L734.05,600.09L739.56,600.09L745.06,601.92L750.57,601.92L754.24,603.76L759.74,605.59L767.08,605.59L772.59,607.43L776.26,607.43L781.76,609.26L785.43,611.1L789.1,612.93L792.77,612.93L796.44,614.77L800.11,614.77L803.78,616.6L807.46,616.6L812.96,618.44L816.63,618.44L820.3,620.27L822.14,622.11L825.81,622.11L829.48,623.94L831.31,625.78L834.98,627.61L838.65,629.45L842.32,629.45L849.66,631.28L855.17,631.28L860.67,631.28L866.18,633.12L868.01,633.12" fill="none" stroke="#000000" style="-webkit-tap-highlight-color: rgba(0, 0, 0, 0); stroke-linecap: round; stroke-linejoin: round; stroke-width: 5;" /><path d="M706.52,563.38L706.52,561.55L708.36,561.55L712.03,559.71L715.7,559.71L719.37,557.88L723.04,557.88L724.87,557.88L728.54,556.04L734.05,556.04L737.72,554.21L743.23,554.21L746.9,556.04L750.57,556.04L756.07,557.88L761.58,559.71L767.08,561.55L772.59,563.38L778.09,567.05L783.6,570.72L789.1,572.56L794.61,574.39L798.28,578.06L801.95,579.9L805.62,581.73L811.13,585.41L814.8,587.24L818.47,589.08L822.14,590.91L825.81,590.91L827.64,592.75L831.31,594.58L833.15,596.42L836.82,596.42L840.49,598.25L842.32,598.25L845.99,598.25L847.83,600.09L851.5,601.92L853.33,601.92L855.17,603.76L857,603.76L857,605.59L858.84,607.43L858.84,609.26L860.67,612.93L860.67,618.44L860.67,622.11L860.67,627.61L860.67,629.45" fill="none" stroke="#000000" style="-webkit-tap-highlight-color: rgba(0, 0, 0, 0); stroke-linecap: round; stroke-linejoin: round; stroke-width: 5;" /><path d="M704.69,627.61L704.69,625.78L706.52,625.78L712.03,625.78L717.53,623.94L724.87,623.94L730.38,623.94L737.72,625.78L745.06,629.45L752.4,631.28L759.74,633.12L767.08,636.79L772.59,638.62L779.93,640.46L787.27,640.46L794.61,642.29L800.11,644.13L803.78,645.96L807.46,645.96L811.13,647.8L816.63,647.8L822.14,647.8L825.81,647.8L827.64,647.8L831.31,649.63L833.15,649.63L836.82,649.63L838.65,649.63L840.49,649.63L842.32,649.63L844.16,651.47L845.99,651.47L847.83,653.3L849.66,653.3L853.33,653.3L855.17,651.47L858.84,649.63L862.51,645.96L862.51,642.29" fill="none" stroke="#000000" style="-webkit-tap-highlight-color: rgba(0, 0, 0, 0); stroke-linecap: round; stroke-linejoin: round; stroke-width: 5;" /><path d="M934.08,148.65L932.24,148.65L930.41,148.65L926.74,150.48L924.9,152.32L921.23,154.15L917.56,157.82L913.89,161.49L910.22,165.16L908.39,168.83L906.55,172.5L904.72,174.34L904.72,178.01L901.05,181.68L899.21,185.35L897.38,187.18L895.54,190.85L895.54,192.69L893.71,196.36L890.04,198.19L886.37,200.03L884.53,203.7L880.86,205.53L879.03,207.37L877.19,209.2L873.52,211.04L869.85,212.87L866.18,214.71L862.51,216.54L858.84,218.38L857,220.22L853.33,220.22L851.5,222.05L847.83,222.05L845.99,223.89L842.32,223.89L838.65,223.89L834.98,225.72L831.31,225.72L829.48,227.56L825.81,227.56L823.97,227.56L822.14,227.56L820.3,227.56L818.47,227.56L816.63,227.56L814.8,229.39L812.96,229.39L812.96,231.23L812.96,233.06L811.13,234.9L809.29,238.57L807.46,242.24L805.62,245.91L803.78,249.58L803.78,251.41L803.78,255.08L801.95,258.75L801.95,262.42L800.11,264.26L800.11,267.93L798.28,269.76L796.44,273.43L794.61,275.27L792.77,278.94L790.94,282.61L787.27,284.44L785.43,288.11L781.76,291.78L779.93,295.46L776.26,299.13L772.59,302.8L768.92,306.47L765.25,308.3L761.58,311.97L757.91,313.81L756.07,315.64L752.4,319.31L748.73,321.15L745.06,322.98L741.39,326.65L737.72,328.49L734.05,328.49L730.38,330.32L726.71,330.32L723.04,332.16L721.2,333.99L717.53,335.83L713.86,337.66L710.19,339.5L708.36,341.33L704.69,343.17L702.85,343.17L699.18,345L697.35,346.84L693.68,348.67L690.01,350.51L686.34,354.18L684.5,356.01L680.83,359.68L677.16,363.35L673.49,365.19L669.82,368.86L666.15,370.7L662.48,374.37L658.81,376.2L653.3,378.04L649.63,379.87L647.8,381.71L644.13,383.54L642.29,383.54L638.62,385.38L634.95,387.21L631.28,389.05L625.78,392.72L623.94,392.72L620.27,394.55L616.6,394.55L612.93,396.39L611.1,396.39L607.43,396.39L603.76,398.22L600.09,398.22L596.42,400.06L594.58,400.06L592.75,401.89L589.08,403.73L587.24,405.56L583.57,409.23L581.73,411.07L583.57,411.07L589.08,409.23" fill="none" stroke="#000000" style="-webkit-tap-highlight-color: rgba(0, 0, 0, 0); stroke-linecap: round; stroke-linejoin: round; stroke-width: 5;" /><path d="M581.73,409.23L579.9,409.23L579.9,411.07L576.23,412.9L574.39,416.57L572.56,420.24L570.72,423.91L568.89,427.58L565.22,433.09L561.55,438.59L559.71,442.27L557.88,444.1L556.04,445.94L552.37,447.77L550.54,451.44L546.87,453.28L543.2,456.95L539.53,460.62L535.86,462.45L532.19,464.29L526.68,467.96L521.18,471.63L513.84,477.13L508.33,480.8L500.99,484.47L493.65,486.31L488.14,489.98L480.8,495.48L473.46,500.99L466.12,504.66L460.62,510.16L453.28,513.84L447.77,515.67L442.27,519.34L436.76,524.85L431.25,526.68L425.75,530.35L422.08,534.02L418.41,537.69L412.9,541.36L405.56,546.87L401.89,550.54L396.39,554.21L392.72,559.71L389.05,563.38L385.38,567.05L379.87,570.72L376.2,574.39L372.53,578.06L367.03,581.73L361.52,587.24L357.85,590.91L352.34,592.75L348.67,596.42L345,598.25L341.33,601.92L337.66,603.76L333.99,605.59L330.32,609.26L326.65,611.1L322.98,614.77L319.31,616.6L315.64,618.44L310.14,622.11L306.47,623.94L302.8,625.78L300.96,627.61L297.29,629.45L293.62,631.28L289.95,633.12L286.28,634.95L282.61,638.62L280.77,640.46L277.1,642.29L271.6,645.96L267.93,647.8L262.42,651.47L260.59,653.3L262.42,653.3L266.09,649.63" fill="none" stroke="#000000" style="-webkit-tap-highlight-color: rgba(0, 0, 0, 0); stroke-linecap: round; stroke-linejoin: round; stroke-width: 5;" /><path d="M264.26,651.47L264.26,649.63L262.42,649.63L260.59,649.63L258.75,653.3L256.92,655.14L253.25,656.97L247.74,660.65L244.07,664.32L238.57,667.99L233.06,671.66L227.56,675.33L222.05,679L216.54,684.5L209.2,688.17L203.7,691.84L196.36,695.51L190.85,697.35L185.35,701.02L181.68,702.85L179.84,704.69L176.17,704.69L172.5,706.52L168.83,708.36L163.33,710.19L157.82,713.86L155.99,713.86" fill="none" stroke="#000000" style="-webkit-tap-highlight-color: rgba(0, 0, 0, 0); stroke-linecap: round; stroke-linejoin: round; stroke-width: 5;" /><path d="M152.32,535.86L152.32,537.69L154.15,541.36L154.15,545.03L154.15,552.37L154.15,557.88L154.15,565.22L154.15,574.39L154.15,581.73L154.15,590.91L154.15,598.25L155.99,605.59L155.99,612.93L157.82,620.27L157.82,625.78L159.66,633.12L159.66,640.46L161.49,647.8L163.33,655.14L163.33,664.32L163.33,671.66L163.33,679L163.33,686.34L165.16,691.84L165.16,699.18L165.16,704.69L165.16,712.03L165.16,717.53L163.33,721.2" fill="none" stroke="#000000" style="-webkit-tap-highlight-color: rgba(0, 0, 0, 0); stroke-linecap: round; stroke-linejoin: round; stroke-width: 5;" /><path d="M7.34,611.1L9.18,611.1L11.01,609.26L14.68,605.59L22.02,600.09L29.36,596.42L36.7,592.75L44.04,589.08L53.22,583.57L62.39,578.06L73.41,572.56L82.58,568.89L91.76,565.22L99.1,561.55L106.44,557.88L111.94,556.04L119.28,552.37L124.79,550.54L132.13,548.7L139.47,546.87L144.97,545.03L152.32,541.36L157.82,539.53L159.66,537.69" fill="none" stroke="#000000" style="-webkit-tap-highlight-color: rgba(0, 0, 0, 0); stroke-linecap: round; stroke-linejoin: round; stroke-width: 5;" /><path d="M1.84,493.65L3.67,493.65L5.51,493.65L7.34,491.81L9.18,491.81L11.01,491.81L14.68,489.98L20.19,488.14L23.86,484.47L25.69,484.47L27.53,482.64L29.36,482.64L31.2,482.64L33.03,482.64L34.87,482.64L36.7,482.64L38.54,482.64L44.04,484.47L45.88,484.47L47.71,484.47L53.22,486.31L58.72,488.14L64.23,491.81L69.73,493.65L75.24,497.32L80.75,499.15L88.09,500.99L93.59,502.82L100.93,504.66L106.44,506.49L111.94,508.33L117.45,510.16L122.95,513.84L126.62,515.67L132.13,517.51L135.8,521.18L141.3,524.85L144.97,526.68L150.48,528.52L155.99,532.19L159.66,535.86L161.49,537.69" fill="none" stroke="#000000" style="-webkit-tap-highlight-color: rgba(0, 0, 0, 0); stroke-linecap: round; stroke-linejoin: round; stroke-width: 5;" /><path d="M278.94,647.8L277.1,645.96L277.1,644.13L278.94,644.13L286.28,644.13L293.62,644.13L299.13,645.96L304.63,649.63L310.14,651.47L315.64,653.3L319.31,655.14L324.82,656.97L328.49,656.97L332.16,658.81L337.66,662.48L341.33,664.32L346.84,666.15L350.51,667.99L354.18,669.82L357.85,671.66L361.52,671.66L363.35,673.49L365.19,673.49L367.03,673.49L363.35,673.49L361.52,675.33L357.85,677.16L354.18,679L350.51,680.83L346.84,684.5L341.33,686.34L335.83,690.01L330.32,691.84L324.82,695.51L319.31,697.35L315.64,699.18L310.14,701.02L306.47,702.85L300.96,706.52L295.46,708.36L288.11,712.03L275.27,719.37L267.93,724.87L260.59,728.54L251.41,735.89L240.4,743.23L229.39,748.73L225.72,752.4L227.56,752.4" fill="none" stroke="#000000" style="-webkit-tap-highlight-color: rgba(0, 0, 0, 0); stroke-linecap: round; stroke-linejoin: round; stroke-width: 5;" /><path d="M365.19,679L365.19,677.16L365.19,675.33L365.19,677.16L365.19,680.83L365.19,686.34L365.19,691.84L365.19,697.35L367.03,702.85L370.7,708.36L372.53,713.86L374.37,719.37L378.04,723.04L378.04,728.54L378.04,732.22L378.04,735.89" fill="none" stroke="#000000" style="-webkit-tap-highlight-color: rgba(0, 0, 0, 0); stroke-linecap: round; stroke-linejoin: round; stroke-width: 5;" /><path d="M605.59,524.85L605.59,523.01L607.43,523.01L611.1,523.01L612.93,519.34L616.6,513.84L620.27,508.33L622.11,502.82L625.78,497.32L627.61,493.65L631.28,488.14L633.12,482.64L634.95,477.13L636.79,471.63L636.79,467.96L638.62,464.29L638.62,462.45L638.62,458.78L640.46,455.11L642.29,451.44L644.13,449.61L645.96,447.77L647.8,445.94L649.63,444.1L651.47,440.43L655.14,436.76L656.97,434.92L660.65,433.09L662.48,431.25L666.15,429.42L667.99,427.58L671.66,425.75L675.33,425.75L679,423.91L682.67,422.08L686.34,420.24L690.01,416.57L693.68,412.9L697.35,411.07L699.18,407.4L702.85,403.73L706.52,401.89L708.36,398.22L712.03,396.39L713.86,394.55L715.7,392.72L719.37,390.88L721.2,389.05L724.87,387.21L728.54,385.38L730.38,385.38L734.05,383.54L735.89,383.54L739.56,381.71L743.23,379.87L745.06,379.87L748.73,378.04L750.57,376.2L752.4,376.2L756.07,374.37L757.91,372.53L761.58,370.7L763.41,370.7L767.08,368.86L768.92,367.03L772.59,365.19L774.42,361.52L776.26,359.68L778.09,359.68L779.93,357.85L781.76,356.01L785.43,354.18L787.27,352.34L790.94,350.51L792.77,350.51L794.61,348.67L798.28,348.67L801.95,346.84L805.62,343.17L811.13,339.5L816.63,335.83L818.47,333.99" fill="none" stroke="#000000" style="-webkit-tap-highlight-color: rgba(0, 0, 0, 0); stroke-linecap: round; stroke-linejoin: round; stroke-width: 5;" /><path d="M858.84,244.07L860.67,242.24L871.68,238.57L882.7,234.9L886.37,231.23L890.04,229.39L893.71,227.56L897.38,225.72L901.05,223.89L906.55,220.22L908.39,218.38L912.06,216.54L913.89,214.71L915.73,212.87L919.4,212.87L921.23,209.2L923.07,207.37L926.74,203.7L928.57,200.03L930.41,198.19L932.24,196.36L935.91,194.52L937.75,192.69L941.42,189.02L943.25,187.18L945.09,185.35L948.76,183.51L950.59,181.68L952.43,179.84L956.1,178.01L959.77,176.17L963.44,174.34L965.28,172.5L968.95,172.5L970.78,170.67L974.45,168.83L978.12,167L981.79,167L983.63,165.16L987.3,163.33L989.13,161.49L992.8,159.66L996.47,157.82L998.31,155.99L1001.98,154.15L1005.65,152.32L1007.48,152.32" fill="none" stroke="#000000" style="-webkit-tap-highlight-color: rgba(0, 0, 0, 0); stroke-linecap: round; stroke-linejoin: round; stroke-width: 5;" /><path d="M932.24,148.65L930.41,148.65L934.08,148.65L941.42,144.97L946.92,143.14L952.43,141.3L956.1,141.3L961.61,141.3L967.11,139.47L974.45,139.47L978.12,137.63L983.63,137.63L987.3,139.47L989.13,139.47L992.8,141.3L996.47,141.3L998.31,143.14" fill="none" stroke="#000000" style="-webkit-tap-highlight-color: rgba(0, 0, 0, 0); stroke-linecap: round; stroke-linejoin: round; stroke-width: 5;" /><path d="M860.67,244.07L858.84,244.07L858.84,245.91L858.84,256.92L855.17,277.1L853.33,288.11L851.5,297.29L847.83,304.63L844.16,310.14L842.32,310.14" fill="none" stroke="#000000" style="-webkit-tap-highlight-color: rgba(0, 0, 0, 0); stroke-linecap: round; stroke-linejoin: round; stroke-width: 5;" /><path d="M343.17,152.32L343.17,150.48L346.84,148.65L352.34,144.97L357.85,143.14L363.35,141.3L367.03,139.47L372.53,139.47L376.2,135.8L381.71,133.96L385.38,132.13L389.05,130.29L392.72,130.29L396.39,130.29L400.06,128.46L405.56,128.46L409.23,126.62L414.74,124.79L418.41,124.79L422.08,122.95L425.75,122.95L431.25,121.12L434.92,119.28L440.43,117.45L445.94,117.45L449.61,115.61L453.28,115.61L456.95,115.61L462.45,113.78L467.96,111.94L473.46,110.11L477.13,110.11L480.8,110.11L484.47,110.11L489.98,110.11L499.15,108.27L502.82,108.27L506.49,108.27L510.16,108.27L515.67,108.27L519.34,106.44L523.01,106.44L526.68,106.44L530.35,106.44L534.02,104.6L539.53,104.6L543.2,102.77L546.87,102.77L548.7,102.77L552.37,100.93L556.04,100.93L559.71,100.93L563.38,99.1L567.05,99.1L570.72,99.1L572.56,99.1L576.23,97.26L578.06,97.26L579.9,97.26L583.57,95.43L585.41,95.43L587.24,95.43L589.08,95.43L590.91,95.43L592.75,95.43L594.58,95.43L596.42,95.43L598.25,95.43L600.09,95.43L601.92,95.43L603.76,97.26" fill="none" stroke="#000000" style="-webkit-tap-highlight-color: rgba(0, 0, 0, 0); stroke-linecap: round; stroke-linejoin: round; stroke-width: 5;" /><path d="M603.76,100.93L603.76,99.1L601.92,97.26L603.76,97.26L605.59,97.26L609.26,97.26L611.1,97.26L614.77,97.26L618.44,97.26L623.94,97.26L627.61,97.26L633.12,97.26L634.95,97.26L638.62,99.1L642.29,99.1L645.96,100.93L651.47,100.93L656.97,100.93L660.65,102.77L664.32,102.77L667.99,102.77L669.82,104.6L673.49,104.6L679,104.6L682.67,104.6L684.5,104.6L688.17,106.44L691.84,106.44L697.35,106.44L701.02,106.44L704.69,106.44L706.52,108.27L710.19,108.27L712.03,110.11L715.7,110.11L717.53,110.11L721.2,110.11L724.87,111.94L726.71,111.94L730.38,111.94L734.05,113.78L737.72,113.78L741.39,113.78L743.23,113.78L746.9,115.61L748.73,115.61L752.4,115.61L754.24,115.61L757.91,115.61L759.74,115.61L761.58,117.45L765.25,117.45L767.08,117.45L770.75,117.45L772.59,117.45L776.26,117.45L779.93,119.28L781.76,119.28L783.6,119.28L785.43,119.28L787.27,119.28L789.1,119.28L790.94,121.12L792.77,121.12L794.61,121.12L796.44,121.12L798.28,122.95L800.11,122.95L801.95,122.95L803.78,122.95L807.46,122.95L809.29,122.95L811.13,124.79L812.96,124.79L814.8,124.79L816.63,124.79L820.3,124.79L822.14,124.79L823.97,124.79L825.81,124.79L829.48,126.62L831.31,126.62L836.82,130.29" fill="none" stroke="#000000" style="-webkit-tap-highlight-color: rgba(0, 0, 0, 0); stroke-linecap: round; stroke-linejoin: round; stroke-width: 5;" /><path d="M460.62,154.15L458.78,154.15L456.95,152.32L462.45,152.32L473.46,146.81L477.13,143.14L482.64,141.3L488.14,141.3L491.81,139.47L497.32,137.63L502.82,135.8L508.33,133.96L512,132.13L515.67,132.13L517.51,132.13L521.18,132.13L524.85,132.13L528.52,130.29L530.35,130.29L534.02,130.29L539.53,130.29L545.03,128.46L548.7,126.62L552.37,126.62L556.04,126.62L559.71,126.62L561.55,124.79L565.22,124.79L568.89,122.95L572.56,121.12L576.23,121.12L578.06,119.28L581.73,119.28L585.41,117.45L587.24,115.61L590.91,115.61L592.75,115.61L592.75,113.78L594.58,113.78L596.42,113.78L598.25,111.94L598.25,113.78L600.09,117.45L600.09,122.95L601.92,124.79L601.92,126.62L601.92,128.46L601.92,130.29L601.92,133.96L601.92,137.63L603.76,139.47L603.76,143.14L603.76,144.97L603.76,146.81L603.76,150.48L603.76,152.32L603.76,155.99L603.76,157.82L605.59,161.49L605.59,165.16L605.59,167L605.59,168.83L605.59,172.5L605.59,176.17L605.59,179.84L605.59,181.68L605.59,185.35L603.76,189.02L603.76,192.69L603.76,196.36L601.92,200.03L600.09,201.86L596.42,205.53L592.75,209.2" fill="none" stroke="#000000" style="-webkit-tap-highlight-color: rgba(0, 0, 0, 0); stroke-linecap: round; stroke-linejoin: round; stroke-width: 5;" /><path d="M600.09,117.45L596.42,117.45L600.09,110.11L598.25,110.11L600.09,110.11L601.92,110.11L603.76,111.94L609.26,111.94L614.77,111.94L618.44,110.11L623.94,110.11L627.61,110.11L631.28,111.94L634.95,111.94L640.46,111.94L645.96,111.94L647.8,111.94L651.47,111.94L655.14,113.78L658.81,113.78L662.48,113.78L666.15,115.61L669.82,115.61L673.49,115.61L677.16,117.45L679,117.45L682.67,119.28L686.34,119.28L690.01,119.28L691.84,119.28L695.51,121.12L699.18,122.95L702.85,122.95L704.69,124.79L708.36,124.79L712.03,124.79L715.7,126.62L717.53,126.62L721.2,128.46L724.87,130.29L726.71,130.29L730.38,132.13L732.22,132.13L734.05,133.96L735.89,133.96L739.56,133.96L743.23,133.96L745.06,133.96L746.9,135.8L750.57,135.8L752.4,135.8L754.24,137.63L757.91,137.63L759.74,137.63L761.58,137.63L763.41,137.63L765.25,137.63L767.08,139.47L770.75,139.47L774.42,139.47L776.26,139.47L778.09,139.47L779.93,139.47L781.76,139.47L783.6,141.3L787.27,141.3L790.94,141.3L794.61,141.3L798.28,141.3L800.11,143.14L801.95,143.14L803.78,143.14L807.46,144.97L809.29,144.97L811.13,144.97" fill="none" stroke="#000000" style="-webkit-tap-highlight-color: rgba(0, 0, 0, 0); stroke-linecap: round; stroke-linejoin: round; stroke-width: 5;" /><path d="M801.95,148.65L801.95,146.81L801.95,144.97L803.78,146.81L805.62,150.48L807.46,155.99L807.46,159.66L809.29,165.16L809.29,167L809.29,170.67" fill="none" stroke="#000000" style="-webkit-tap-highlight-color: rgba(0, 0, 0, 0); stroke-linecap: round; stroke-linejoin: round; stroke-width: 5;" /><path d="M618.44,157.82L616.6,157.82L616.6,155.99L620.27,155.99L622.11,155.99L623.94,155.99L627.61,157.82L631.28,157.82L634.95,157.82L640.46,157.82L644.13,159.66L647.8,159.66L649.63,159.66L653.3,161.49L658.81,161.49L662.48,161.49L666.15,163.33L671.66,163.33L675.33,163.33L677.16,163.33L680.83,165.16L684.5,165.16L690.01,165.16L693.68,165.16L697.35,167L701.02,167L704.69,167L708.36,167L713.86,167L717.53,167L721.2,167L724.87,167L728.54,168.83L732.22,168.83L735.89,168.83L739.56,168.83L743.23,170.67L746.9,170.67L748.73,170.67L752.4,170.67L754.24,172.5L757.91,172.5L759.74,172.5L763.41,174.34L767.08,174.34L768.92,174.34L772.59,176.17L776.26,176.17L779.93,176.17L781.76,178.01L785.43,178.01L789.1,178.01L792.77,178.01L796.44,178.01L800.11,178.01L801.95,178.01L805.62,178.01L809.29,178.01L811.13,179.84L812.96,179.84L814.8,179.84L816.63,179.84L818.47,181.68L822.14,181.68L823.97,181.68L825.81,183.51L827.64,183.51L831.31,185.35L833.15,185.35L836.82,185.35L838.65,185.35L842.32,185.35L844.16,185.35L845.99,185.35L849.66,185.35L853.33,185.35L855.17,185.35L857,185.35L858.84,185.35L860.67,185.35L862.51,185.35L866.18,187.18L868.01,187.18L869.85,187.18L873.52,187.18L875.35,187.18L879.03,189.02L882.7,189.02L884.53,190.85L888.2,192.69" fill="none" stroke="#000000" style="-webkit-tap-highlight-color: rgba(0, 0, 0, 0); stroke-linecap: round; stroke-linejoin: round; stroke-width: 5;" /><path d="M647.8,192.69L644.13,192.69L644.13,194.52L644.13,200.03L644.13,203.7L645.96,207.37L647.8,211.04L649.63,214.71L649.63,216.54L649.63,220.22L649.63,223.89L647.8,227.56L647.8,229.39L645.96,233.06L645.96,234.9L644.13,238.57L644.13,242.24L642.29,245.91L640.46,247.74L640.46,251.41L640.46,255.08L638.62,258.75L638.62,262.42L638.62,266.09L638.62,269.76L638.62,273.43L638.62,277.1L638.62,284.44L638.62,291.78L638.62,299.13L638.62,304.63L638.62,311.97L636.79,315.64L636.79,319.31" fill="none" stroke="#000000" style="-webkit-tap-highlight-color: rgba(0, 0, 0, 0); stroke-linecap: round; stroke-linejoin: round; stroke-width: 5;" /><path d="M645.96,201.86L644.13,198.19L642.29,196.36L642.29,198.19L644.13,198.19L645.96,198.19L649.63,200.03L653.3,200.03L658.81,201.86L664.32,201.86L671.66,201.86L675.33,201.86L680.83,203.7L686.34,203.7L691.84,203.7L695.51,203.7L701.02,205.53L704.69,205.53L708.36,205.53L713.86,207.37L717.53,207.37L719.37,207.37L723.04,207.37L726.71,207.37L730.38,209.2L734.05,211.04L737.72,211.04L743.23,212.87L746.9,212.87L750.57,214.71L752.4,214.71L756.07,216.54L759.74,216.54L763.41,216.54L767.08,218.38L770.75,218.38L772.59,218.38L774.42,218.38L776.26,220.22L779.93,220.22L781.76,222.05L785.43,222.05L787.27,222.05L790.94,223.89L792.77,223.89L796.44,225.72L800.11,225.72L801.95,225.72L807.46,225.72L811.13,225.72L812.96,225.72" fill="none" stroke="#000000" style="-webkit-tap-highlight-color: rgba(0, 0, 0, 0); stroke-linecap: round; stroke-linejoin: round; stroke-width: 5;" /><path d="M644.13,190.85L640.46,190.85L642.29,190.85L645.96,190.85L647.8,190.85L651.47,190.85L655.14,190.85L658.81,190.85L664.32,190.85L669.82,189.02L675.33,189.02L677.16,189.02L680.83,190.85L684.5,190.85L688.17,190.85L693.68,190.85L699.18,190.85L702.85,192.69L706.52,192.69L710.19,194.52L713.86,194.52L719.37,194.52L723.04,194.52L726.71,196.36L728.54,196.36L730.38,198.19L734.05,198.19L737.72,198.19L741.39,198.19L745.06,198.19L746.9,200.03L750.57,200.03L754.24,200.03L757.91,200.03L763.41,201.86L767.08,201.86L772.59,201.86L776.26,201.86L779.93,201.86L783.6,201.86L787.27,203.7L790.94,203.7L794.61,203.7L798.28,203.7L800.11,203.7L803.78,203.7L807.46,205.53L811.13,205.53L814.8,205.53L816.63,205.53L820.3,205.53L825.81,205.53L829.48,207.37L831.31,207.37L834.98,207.37L836.82,209.2L840.49,209.2L842.32,211.04L845.99,211.04L849.66,211.04L853.33,211.04L855.17,212.87L858.84,212.87L864.34,212.87L868.01,212.87L869.85,214.71" fill="none" stroke="#000000" style="-webkit-tap-highlight-color: rgba(0, 0, 0, 0); stroke-linecap: round; stroke-linejoin: round; stroke-width: 5;" /><path d="M563.38,174.34L563.38,176.17L565.22,183.51L565.22,190.85L565.22,196.36L565.22,200.03L565.22,205.53L565.22,209.2L565.22,214.71L563.38,220.22L563.38,223.89L561.55,227.56L559.71,231.23L559.71,234.9L557.88,238.57L557.88,244.07L557.88,249.58L557.88,255.08L559.71,260.59L563.38,266.09L565.22,271.6L568.89,275.27L570.72,277.1L570.72,278.94" fill="none" stroke="#000000" style="-webkit-tap-highlight-color: rgba(0, 0, 0, 0); stroke-linecap: round; stroke-linejoin: round; stroke-width: 5;" /><path d="M464.29,155.99L464.29,154.15L467.96,154.15L475.3,154.15L478.97,154.15L482.64,154.15L486.31,154.15L489.98,155.99L493.65,155.99L495.48,157.82L500.99,157.82L504.66,157.82L510.16,159.66L513.84,161.49L519.34,163.33L523.01,165.16L528.52,167L534.02,168.83L539.53,170.67L545.03,172.5L552.37,172.5L557.88,172.5L561.55,174.34" fill="none" stroke="#000000" style="-webkit-tap-highlight-color: rgba(0, 0, 0, 0); stroke-linecap: round; stroke-linejoin: round; stroke-width: 5;" /><path d="M343.17,150.48L346.84,150.48L356.01,150.48L359.68,150.48L363.35,150.48L367.03,150.48L372.53,152.32L374.37,152.32L378.04,152.32L383.54,152.32L387.21,154.15L392.72,154.15L396.39,155.99L400.06,155.99L405.56,157.82L409.23,157.82L414.74,159.66L418.41,159.66L422.08,161.49L425.75,161.49L429.42,163.33L433.09,163.33L434.92,165.16L436.76,165.16L440.43,167L442.27,167L445.94,167L447.77,168.83L451.44,168.83L453.28,170.67L455.11,170.67L458.78,172.5L460.62,172.5L464.29,174.34L467.96,174.34L471.63,174.34L473.46,176.17L477.13,176.17L480.8,176.17L484.47,178.01L488.14,178.01L489.98,178.01L493.65,179.84L495.48,179.84L499.15,181.68L500.99,181.68L504.66,181.68L510.16,181.68L513.84,181.68L517.51,183.51L521.18,183.51L524.85,183.51L528.52,183.51L532.19,183.51L535.86,183.51L539.53,183.51L543.2,183.51L548.7,183.51L552.37,181.68L556.04,181.68" fill="none" stroke="#000000" style="-webkit-tap-highlight-color: rgba(0, 0, 0, 0); stroke-linecap: round; stroke-linejoin: round; stroke-width: 5;" /><path d="M523.01,187.18L521.18,187.18L521.18,189.02L521.18,190.85L521.18,196.36L521.18,200.03L521.18,203.7L521.18,209.2L521.18,214.71L521.18,218.38L521.18,223.89L523.01,227.56L523.01,231.23L524.85,234.9L526.68,238.57L526.68,242.24L528.52,245.91L530.35,249.58L532.19,253.25L532.19,258.75L534.02,264.26L534.02,269.76L534.02,275.27L532.19,278.94L530.35,280.77" fill="none" stroke="#000000" style="-webkit-tap-highlight-color: rgba(0, 0, 0, 0); stroke-linecap: round; stroke-linejoin: round; stroke-width: 5;" /><path d="M337.66,152.32L337.66,154.15L337.66,157.82L333.99,167L332.16,170.67L332.16,176.17L332.16,183.51L332.16,189.02L332.16,196.36L332.16,203.7L332.16,212.87L332.16,218.38L332.16,223.89L332.16,229.39L332.16,234.9L330.32,240.4L328.49,244.07" fill="none" stroke="#000000" style="-webkit-tap-highlight-color: rgba(0, 0, 0, 0); stroke-linecap: round; stroke-linejoin: round; stroke-width: 5;" /><path d="M387.21,178.01L387.21,176.17L387.21,179.84L387.21,185.35L387.21,189.02L387.21,192.69L387.21,198.19L387.21,203.7L387.21,209.2L387.21,216.54L389.05,222.05L389.05,225.72L389.05,231.23L390.88,236.73L390.88,242.24L390.88,247.74L390.88,253.25L389.05,258.75L387.21,264.26L381.71,271.6L379.87,275.27" fill="none" stroke="#000000" style="-webkit-tap-highlight-color: rgba(0, 0, 0, 0); stroke-linecap: round; stroke-linejoin: round; stroke-width: 5;" /><path d="M409.23,223.89L405.56,222.05L403.73,222.05L405.56,222.05L409.23,220.22L414.74,220.22L418.41,222.05L423.91,223.89L429.42,225.72L436.76,227.56L442.27,227.56L447.77,227.56L453.28,229.39L458.78,231.23L462.45,233.06L467.96,233.06L473.46,233.06L478.97,234.9L482.64,234.9L488.14,234.9L491.81,236.73L495.48,236.73L499.15,238.57L504.66,238.57L508.33,238.57L512,238.57L515.67,238.57L519.34,238.57L521.18,240.4L524.85,240.4L526.68,242.24L530.35,242.24L532.19,242.24L534.02,242.24" fill="none" stroke="#000000" style="-webkit-tap-highlight-color: rgba(0, 0, 0, 0); stroke-linecap: round; stroke-linejoin: round; stroke-width: 5;" /><path d="M396.39,255.08L396.39,253.25L398.22,255.08L401.89,255.08L407.4,255.08L412.9,255.08L416.57,256.92L422.08,258.75L427.58,260.59L433.09,260.59L436.76,262.42L442.27,262.42L445.94,262.42L449.61,264.26L453.28,266.09L456.95,266.09L462.45,267.93L467.96,269.76L471.63,271.6L477.13,271.6L480.8,273.43L484.47,273.43L488.14,275.27L491.81,277.1L495.48,278.94L502.82,280.77L506.49,282.61L510.16,282.61L512,282.61L515.67,284.44L517.51,284.44L521.18,284.44L523.01,286.28L524.85,286.28L528.52,288.11L530.35,289.95L534.02,289.95L537.69,289.95L539.53,291.78L543.2,291.78L546.87,291.78L550.54,293.62L552.37,293.62L556.04,293.62L559.71,293.62L563.38,293.62L565.22,295.46L568.89,295.46L570.72,295.46L574.39,295.46L576.23,297.29L579.9,299.13L583.57,299.13L587.24,299.13L589.08,300.96L592.75,300.96L594.58,302.8L598.25,304.63L601.92,304.63L605.59,306.47L607.43,306.47L611.1,306.47L614.77,308.3L616.6,308.3L618.44,308.3L620.27,310.14L622.11,310.14L625.78,310.14L627.61,310.14L631.28,311.97L633.12,311.97L634.95,311.97L636.79,311.97L640.46,311.97L642.29,311.97" fill="none" stroke="#000000" style="-webkit-tap-highlight-color: rgba(0, 0, 0, 0); stroke-linecap: round; stroke-linejoin: round; stroke-width: 5;" /><path d="M398.22,280.77L396.39,282.61L394.55,282.61L396.39,282.61L398.22,284.44L403.73,286.28L405.56,288.11L409.23,289.95L412.9,289.95L420.24,291.78L425.75,293.62L431.25,293.62L436.76,293.62L440.43,295.46L445.94,295.46L449.61,295.46L455.11,295.46L460.62,297.29L467.96,299.13L473.46,299.13L478.97,299.13L484.47,300.96L489.98,300.96L493.65,302.8L497.32,304.63L500.99,304.63L506.49,306.47L512,306.47L517.51,308.3L521.18,308.3L524.85,310.14L530.35,310.14L534.02,311.97L535.86,311.97L539.53,313.81L543.2,313.81L545.03,315.64L548.7,317.48L552.37,317.48L554.21,317.48L557.88,319.31L561.55,321.15L565.22,321.15L568.89,321.15L572.56,322.98L576.23,322.98L579.9,324.82L585.41,324.82L589.08,324.82L592.75,326.65L594.58,326.65L598.25,328.49L601.92,328.49L605.59,328.49L607.43,328.49L611.1,328.49L612.93,328.49L616.6,330.32L620.27,330.32L622.11,330.32L625.78,330.32L627.61,330.32L629.45,330.32L631.28,330.32L634.95,330.32L636.79,332.16L640.46,332.16L642.29,332.16L644.13,333.99L645.96,333.99L647.8,335.83L649.63,335.83L653.3,337.66L655.14,337.66L656.97,337.66L658.81,339.5L660.65,339.5L662.48,339.5L664.32,341.33L667.99,341.33L669.82,341.33L671.66,341.33L673.49,341.33L675.33,343.17L679,343.17L680.83,343.17L682.67,343.17" fill="none" stroke="#000000" style="-webkit-tap-highlight-color: rgba(0, 0, 0, 0); stroke-linecap: round; stroke-linejoin: round; stroke-width: 5;" /><path d="M634.95,313.81L631.28,313.81L633.12,311.97L636.79,311.97L644.13,313.81L651.47,315.64L658.81,317.48L666.15,317.48L673.49,317.48L677.16,319.31L682.67,319.31L686.34,319.31L691.84,319.31L697.35,319.31L702.85,319.31L706.52,319.31L710.19,319.31L712.03,319.31L713.86,321.15L713.86,322.98" fill="none" stroke="#000000" style="-webkit-tap-highlight-color: rgba(0, 0, 0, 0); stroke-linecap: round; stroke-linejoin: round; stroke-width: 5;" /><path d="M130.29,387.21L128.46,387.21L126.62,385.38L126.62,383.54L126.62,381.71L130.29,381.71L133.96,379.87L137.63,378.04L141.3,378.04L144.97,376.2L152.32,372.53L159.66,368.86L168.83,365.19L174.34,363.35L179.84,361.52L183.51,359.68L190.85,357.85L196.36,356.01L203.7,354.18L209.2,352.34L212.87,350.51L218.38,350.51L223.89,348.67L229.39,345L234.9,345L238.57,343.17L244.07,341.33L247.74,339.5L251.41,339.5L255.08,337.66L260.59,333.99L264.26,332.16L267.93,330.32L271.6,328.49L275.27,326.65L278.94,324.82L282.61,322.98L286.28,321.15L289.95,319.31L293.62,317.48L297.29,315.64L302.8,313.81L306.47,311.97L310.14,310.14L313.81,308.3L317.48,304.63L322.98,302.8L326.65,300.96L330.32,299.13L333.99,297.29L337.66,295.46L341.33,295.46L345,293.62L348.67,291.78L352.34,289.95L356.01,288.11L359.68,288.11L361.52,288.11L363.35,286.28L365.19,286.28L367.03,286.28L370.7,284.44L372.53,282.61L376.2,280.77L378.04,280.77L379.87,278.94L383.54,278.94L387.21,277.1L390.88,277.1L392.72,275.27" fill="none" stroke="#000000" style="-webkit-tap-highlight-color: rgba(0, 0, 0, 0); stroke-linecap: round; stroke-linejoin: round; stroke-width: 5;" /><path d="M398.22,291.78L396.39,291.78L392.72,293.62L387.21,295.46L381.71,297.29L378.04,299.13L372.53,302.8L367.03,304.63L365.19,306.47L359.68,310.14L356.01,311.97L352.34,313.81L346.84,317.48L345,317.48L343.17,319.31L341.33,321.15L339.5,321.15L339.5,322.98L335.83,324.82L333.99,326.65L332.16,328.49L330.32,330.32L328.49,332.16L326.65,332.16L326.65,333.99L324.82,337.66L322.98,339.5L321.15,341.33L319.31,345L315.64,346.84L313.81,350.51L311.97,352.34L310.14,354.18L306.47,357.85L302.8,359.68L300.96,365.19L299.13,365.19L297.29,367.03L293.62,370.7L291.78,374.37L288.11,376.2L286.28,379.87L282.61,381.71L280.77,383.54L277.1,385.38L275.27,387.21L271.6,389.05L269.76,390.88L266.09,394.55L264.26,396.39L262.42,398.22L260.59,400.06L256.92,403.73L255.08,405.56L251.41,409.23L249.58,412.9L245.91,416.57L242.24,422.08L238.57,427.58L236.73,433.09L234.9,434.92L234.9,436.76L231.23,438.59" fill="none" stroke="#000000" style="-webkit-tap-highlight-color: rgba(0, 0, 0, 0); stroke-linecap: round; stroke-linejoin: round; stroke-width: 5;" /><path d="M89.92,343.17L88.09,343.17L88.09,341.33L89.92,341.33L95.43,343.17L99.1,345L100.93,345L104.6,346.84L106.44,350.51L108.27,352.34L110.11,356.01L110.11,357.85L111.94,361.52L113.78,365.19L115.61,368.86L115.61,370.7L117.45,374.37L119.28,378.04L119.28,379.87L121.12,383.54L122.95,385.38L122.95,387.21L124.79,389.05L126.62,390.88L128.46,394.55L130.29,398.22L132.13,400.06L132.13,401.89L133.96,401.89L135.8,405.56L137.63,407.4L139.47,409.23L143.14,411.07L146.81,412.9L150.48,414.74L152.32,416.57L155.99,418.41L159.66,420.24L163.33,422.08L167,423.91L170.67,425.75L174.34,427.58L179.84,429.42L183.51,429.42L189.02,431.25L192.69,431.25L196.36,431.25L200.03,433.09L201.86,433.09L203.7,433.09" fill="none" stroke="#000000" style="-webkit-tap-highlight-color: rgba(0, 0, 0, 0); stroke-linecap: round; stroke-linejoin: round; stroke-width: 5;" /><path d="M201.86,434.92L200.03,434.92L201.86,433.09L203.7,433.09L205.53,433.09L209.2,434.92L212.87,434.92L220.22,434.92L227.56,434.92L233.06,434.92L236.73,436.76L240.4,438.59L244.07,440.43L249.58,442.27L255.08,442.27L260.59,444.1L266.09,444.1L267.93,445.94L271.6,447.77L273.43,449.61L277.1,451.44L280.77,453.28L282.61,453.28L286.28,455.11L288.11,455.11L291.78,456.95L295.46,458.78L299.13,458.78L300.96,458.78L302.8,460.62L306.47,462.45L308.3,462.45L310.14,464.29L313.81,466.12L315.64,467.96L319.31,467.96L321.15,469.79L324.82,471.63L326.65,471.63L330.32,473.46L333.99,475.3L337.66,475.3L341.33,477.13L345,477.13L348.67,478.97L352.34,478.97L356.01,480.8L359.68,480.8L363.35,482.64L365.19,484.47L368.86,484.47L370.7,484.47L374.37,484.47L376.2,484.47" fill="none" stroke="#000000" style="-webkit-tap-highlight-color: rgba(0, 0, 0, 0); stroke-linecap: round; stroke-linejoin: round; stroke-width: 5;" /><path d="M370.7,488.14L372.53,486.31L379.87,488.14L390.88,489.98L398.22,491.81L407.4,491.81L412.9,493.65L414.74,495.48L420.24,497.32L434.92,500.99L442.27,500.99L447.77,500.99" fill="none" stroke="#000000" style="-webkit-tap-highlight-color: rgba(0, 0, 0, 0); stroke-linecap: round; stroke-linejoin: round; stroke-width: 5;" /><path d="M1.84,368.86L3.67,370.7L11.01,370.7L18.35,372.53L20.19,374.37L23.86,374.37L27.53,376.2L31.2,378.04L33.03,378.04L34.87,379.87L36.7,381.71L36.7,383.54L38.54,385.38L40.37,389.05L40.37,392.72L42.21,396.39L44.04,401.89L45.88,409.23L45.88,414.74L47.71,422.08L49.55,427.58L53.22,431.25L55.05,436.76L58.72,440.43L60.56,444.1L62.39,447.77L64.23,449.61L66.06,453.28L67.9,456.95L69.73,460.62L73.41,462.45L77.08,466.12L78.91,467.96L82.58,469.79L84.42,471.63L88.09,473.46L89.92,475.3L93.59,477.13L95.43,478.97L99.1,480.8L104.6,480.8L108.27,482.64L111.94,482.64L115.61,484.47L119.28,484.47L122.95,484.47L124.79,484.47L128.46,486.31L132.13,486.31L135.8,486.31L139.47,486.31L144.97,486.31L148.65,486.31L152.32,488.14L154.15,488.14L157.82,489.98L161.49,489.98L165.16,491.81L168.83,491.81L172.5,493.65L176.17,495.48L179.84,497.32L183.51,499.15L187.18,499.15L192.69,500.99L198.19,502.82L201.86,504.66L205.53,506.49L209.2,508.33L212.87,508.33L218.38,510.16L222.05,512L225.72,513.84L229.39,513.84L233.06,515.67L236.73,515.67L240.4,517.51L244.07,517.51L245.91,519.34L249.58,521.18L251.41,521.18L255.08,523.01L258.75,523.01L262.42,523.01L266.09,524.85L267.93,524.85L269.76,524.85" fill="none" stroke="#000000" style="-webkit-tap-highlight-color: rgba(0, 0, 0, 0); stroke-linecap: round; stroke-linejoin: round; stroke-width: 5;" /><path d="M271.6,526.68L271.6,524.85L275.27,524.85L278.94,524.85L284.44,526.68L288.11,530.35L291.78,532.19L297.29,535.86L300.96,537.69L306.47,539.53L311.97,543.2L315.64,545.03L319.31,546.87L322.98,550.54L326.65,552.37L332.16,556.04L339.5,557.88L345,559.71L352.34,563.38L357.85,567.05L363.35,568.89L368.86,570.72L372.53,570.72L376.2,570.72" fill="none" stroke="#000000" style="-webkit-tap-highlight-color: rgba(0, 0, 0, 0); stroke-linecap: round; stroke-linejoin: round; stroke-width: 5;" /><path d="M34.87,381.71L31.2,381.71L29.36,381.71L31.2,379.87L33.03,379.87L36.7,378.04L42.21,376.2L51.38,374.37L64.23,368.86L77.08,365.19L86.25,363.35L95.43,359.68L100.93,359.68L102.77,359.68L104.6,359.68" fill="none" stroke="#000000" style="-webkit-tap-highlight-color: rgba(0, 0, 0, 0); stroke-linecap: round; stroke-linejoin: round; stroke-width: 5;" /><path d="M9.18,359.68L7.34,357.85L9.18,357.85L16.52,357.85L25.69,354.18L33.03,350.51L42.21,346.84L51.38,341.33L58.72,337.66L64.23,335.83L67.9,332.16L71.57,330.32L75.24,330.32L80.75,328.49L82.58,328.49L86.25,328.49L88.09,326.65L89.92,326.65L91.76,326.65L95.43,324.82L97.26,324.82L99.1,324.82L102.77,324.82L104.6,322.98L110.11,322.98L115.61,321.15L121.12,321.15L124.79,319.31L130.29,319.31L133.96,317.48L139.47,315.64L144.97,313.81L148.65,311.97L154.15,310.14L157.82,306.47L165.16,304.63L168.83,302.8L176.17,299.13L181.68,297.29L187.18,295.46L190.85,293.62L194.52,291.78L198.19,289.95L203.7,288.11L207.37,286.28L211.04,286.28L214.71,284.44L218.38,282.61L220.22,282.61L223.89,280.77L227.56,278.94L231.23,278.94L234.9,277.1L236.73,277.1L240.4,275.27L244.07,273.43L247.74,273.43L251.41,271.6L253.25,271.6L255.08,269.76L258.75,269.76L260.59,267.93L262.42,267.93L266.09,266.09L269.76,264.26L271.6,262.42L275.27,260.59L278.94,260.59L280.77,258.75L286.28,256.92L289.95,255.08L293.62,253.25L295.46,253.25L299.13,251.41L302.8,251.41L306.47,249.58L310.14,249.58L313.81,249.58L315.64,249.58L317.48,249.58" fill="none" stroke="#000000" style="-webkit-tap-highlight-color: rgba(0, 0, 0, 0); stroke-linecap: round; stroke-linejoin: round; stroke-width: 5;" /><path d="M11.01,288.11L9.18,286.28L14.68,286.28L22.02,286.28L29.36,284.44L40.37,278.94L51.38,275.27L58.72,271.6L64.23,271.6L67.9,271.6L69.73,269.76L71.57,269.76L73.41,267.93L73.41,266.09L75.24,264.26L77.08,260.59L78.91,256.92L82.58,253.25L84.42,249.58L88.09,247.74L89.92,245.91L91.76,244.07L95.43,242.24L99.1,240.4L102.77,238.57L106.44,238.57L110.11,236.73L113.78,236.73L119.28,234.9L126.62,233.06L133.96,233.06L139.47,231.23L144.97,231.23L152.32,229.39L161.49,225.72L168.83,223.89L178.01,220.22L185.35,216.54L194.52,214.71L201.86,211.04L211.04,211.04L214.71,209.2L220.22,207.37L223.89,205.53L231.23,205.53L236.73,203.7L242.24,201.86L247.74,200.03L253.25,198.19L258.75,196.36L262.42,194.52L266.09,194.52L269.76,194.52L273.43,194.52L277.1,192.69L280.77,190.85L282.61,190.85L284.44,190.85L286.28,189.02L288.11,189.02L289.95,189.02L291.78,189.02L295.46,189.02L297.29,189.02L299.13,189.02L300.96,187.18L302.8,187.18L304.63,187.18L306.47,187.18L308.3,189.02L310.14,190.85L310.14,192.69L311.97,194.52L311.97,196.36L311.97,200.03L311.97,201.86L311.97,205.53L311.97,211.04L311.97,216.54L311.97,223.89L311.97,231.23L310.14,236.73L310.14,242.24L310.14,249.58L310.14,251.41" fill="none" stroke="#000000" style="-webkit-tap-highlight-color: rgba(0, 0, 0, 0); stroke-linecap: round; stroke-linejoin: round; stroke-width: 5;" /><path d="M18.35,218.38L16.52,218.38L16.52,216.54L18.35,216.54L20.19,216.54L23.86,214.71L27.53,212.87L33.03,212.87L38.54,211.04L42.21,211.04L45.88,211.04L49.55,211.04L53.22,211.04L55.05,211.04L56.89,211.04L58.72,209.2L60.56,209.2L60.56,211.04L64.23,211.04L66.06,211.04L67.9,211.04L71.57,211.04L73.41,211.04L75.24,211.04L77.08,211.04L78.91,211.04L84.42,211.04L88.09,211.04L93.59,211.04L99.1,209.2L102.77,209.2L110.11,209.2L111.94,207.37L119.28,207.37L124.79,203.7L126.62,203.7L133.96,201.86L137.63,201.86L143.14,200.03L148.65,198.19L155.99,196.36L159.66,196.36L163.33,196.36L170.67,194.52L176.17,192.69L179.84,192.69L181.68,190.85L185.35,190.85L189.02,189.02L192.69,187.18L198.19,185.35L203.7,185.35L207.37,183.51L209.2,183.51L212.87,181.68L220.22,179.84L223.89,179.84L227.56,179.84L231.23,178.01L234.9,178.01L238.57,178.01L242.24,178.01L245.91,178.01L249.58,178.01L253.25,178.01L255.08,176.17L256.92,176.17L258.75,176.17L260.59,176.17L262.42,174.34L262.42,172.5L264.26,172.5L266.09,172.5L267.93,172.5L271.6,174.34L277.1,178.01L280.77,179.84L284.44,181.68L288.11,185.35L291.78,187.18L295.46,189.02L302.8,190.85L304.63,192.69" fill="none" stroke="#000000" style="-webkit-tap-highlight-color: rgba(0, 0, 0, 0); stroke-linecap: round; stroke-linejoin: round; stroke-width: 5;" /><path d="M11.01,106.44L9.18,106.44L11.01,108.27L12.85,106.44L16.52,106.44L20.19,106.44L25.69,106.44L31.2,106.44L38.54,106.44L45.88,104.6L53.22,104.6L60.56,102.77L67.9,102.77L75.24,100.93L82.58,99.1L91.76,97.26L100.93,95.43L106.44,93.59L111.94,91.76L115.61,91.76L121.12,91.76L128.46,89.92L135.8,88.09L143.14,86.25L150.48,84.42L155.99,84.42L161.49,84.42L165.16,84.42L174.34,82.58L181.68,80.75L187.18,78.91L192.69,77.08L196.36,77.08L201.86,75.24L209.2,73.41L214.71,73.41L220.22,71.57L225.72,69.73L231.23,69.73L234.9,67.9L240.4,67.9L245.91,66.06L253.25,66.06L258.75,66.06L264.26,64.23L269.76,64.23L275.27,64.23L282.61,62.39L288.11,62.39L295.46,60.56L300.96,60.56L306.47,60.56L311.97,58.72L315.64,58.72L322.98,58.72L326.65,56.89L328.49,56.89L332.16,56.89L337.66,56.89L343.17,56.89L348.67,56.89L354.18,56.89L357.85,56.89L363.35,58.72L370.7,58.72L374.37,58.72L378.04,58.72L381.71,58.72L387.21,58.72L394.55,58.72L398.22,58.72L401.89,58.72L405.56,58.72L409.23,58.72L411.07,60.56" fill="none" stroke="#000000" style="-webkit-tap-highlight-color: rgba(0, 0, 0, 0); stroke-linecap: round; stroke-linejoin: round; stroke-width: 5;" /><path d="M425.75,73.41L422.08,73.41L420.24,71.57L418.41,71.57L418.41,69.73" fill="none" stroke="#000000" style="-webkit-tap-highlight-color: rgba(0, 0, 0, 0); stroke-linecap: round; stroke-linejoin: round; stroke-width: 5;" /><path d="M412.9,67.9L411.07,67.9L409.23,69.73L407.4,69.73L409.23,69.73L412.9,67.9L418.41,67.9L423.91,66.06L433.09,64.23L440.43,62.39L449.61,60.56L458.78,60.56L467.96,58.72L477.13,56.89L486.31,55.05L493.65,55.05L500.99,53.22L508.33,51.38L517.51,51.38L526.68,49.55L534.02,47.71L541.36,45.88L548.7,44.04L556.04,44.04L563.38,42.21L570.72,40.37L578.06,40.37L585.41,38.54L590.91,36.7L596.42,36.7L603.76,34.87L611.1,33.03L616.6,33.03L623.94,31.2L627.61,31.2L633.12,31.2L640.46,29.36L645.96,29.36L651.47,27.53L655.14,27.53L660.65,27.53L664.32,27.53L669.82,27.53L673.49,27.53L679,25.69L684.5,25.69L690.01,25.69L695.51,25.69L701.02,23.86L704.69,23.86L708.36,22.02L712.03,22.02L717.53,22.02L723.04,22.02L728.54,20.19L734.05,20.19L739.56,18.35L745.06,18.35L748.73,18.35L752.4,16.52L759.74,14.68L767.08,12.85L776.26,11.01L783.6,9.18L789.1,9.18L794.61,9.18L800.11,9.18" fill="none" stroke="#000000" style="-webkit-tap-highlight-color: rgba(0, 0, 0, 0); stroke-linecap: round; stroke-linejoin: round; stroke-width: 5;" /><path d="M902.88,12.85L901.05,12.85L901.05,18.35L899.21,25.69L897.38,34.87L895.54,45.88L895.54,53.22L895.54,60.56L897.38,64.23L899.21,64.23" fill="none" stroke="#000000" style="-webkit-tap-highlight-color: rgba(0, 0, 0, 0); stroke-linecap: round; stroke-linejoin: round; stroke-width: 5;" /><path d="M968.95,16.52L967.11,16.52L965.28,14.68L965.28,16.52L963.44,23.86L961.61,36.7L957.94,51.38L957.94,64.23L959.77,67.9" fill="none" stroke="#000000" style="-webkit-tap-highlight-color: rgba(0, 0, 0, 0); stroke-linecap: round; stroke-linejoin: round; stroke-width: 5;" /></svg>