<?xml version="1.0" encoding="utf-8" ?>
<svg baseProfile="full" height="733" version="1.1" width="1024" xmlns="http://www.w3.org/2000/svg" xmlns:ev="http://www.w3.org/2001/xml-events" xmlns:xlink="http://www.w3.org/1999/xlink"><defs /><path d="M309.74,144.79L308.99,144.79L308.24,144.79L306.01,145.54L304.51,146.29L303.02,148.52L301.53,150.76L299.29,153L297.05,155.24L295.56,157.48L294.06,158.23L292.57,159.72L291.08,161.96L289.59,163.45L288.84,165.69L287.35,167.18L285.85,170.17L284.36,172.41L283.62,175.39L282.87,178.38L282.87,182.86L282.12,185.84L282.12,188.08L282.12,191.07L282.87,192.56L282.87,194.8L283.62,197.04L283.62,198.53L283.62,200.77L284.36,202.26L284.36,205.99L285.11,208.23L285.11,211.22L285.85,213.46L286.6,216.44L286.6,220.92L286.6,223.91L286.6,226.89L286.6,229.13L287.35,233.61L287.35,235.85L287.35,238.83L287.35,241.07L288.09,244.8L288.09,253.76L288.09,254.51L288.09,256.75L288.84,258.99L289.59,261.97L289.59,262.72L289.59,264.21L289.59,267.94L289.59,270.93L289.59,273.17L289.59,275.41L288.84,277.64L288.84,281.38L289.59,284.36L289.59,286.6L289.59,287.35L289.59,288.84L290.33,289.59L290.33,291.83L290.33,295.56L290.33,300.03L290.33,304.51L289.59,307.5L289.59,309.74L289.59,313.47L288.84,314.96L288.09,317.95L288.09,321.68L288.09,323.17L286.6,330.64L285.85,331.38L285.11,332.87L284.36,333.62L283.62,333.62L281.38,335.86L280.63,337.35L279.14,338.85L276.9,341.83L275.41,342.58L273.91,344.07L273.17,345.56L271.67,346.31L270.93,347.8L270.18,350.04L269.43,351.53L267.94,353.77L266.45,355.27L264.96,356.76L263.46,358.25L262.72,359L260.48,359.74L258.99,361.98L258.99,362.73L257.49,364.22L256.75,365.71L255.25,367.21L251.52,371.69L250.03,373.18L248.54,375.42L247.04,376.16L245.55,378.4L244.06,379.9L242.57,382.13L240.33,385.12L239.58,388.1L238.83,390.34L238.09,391.84L238.09,393.33L238.09,395.57L238.09,396.31L237.34,397.06L234.36,402.29L233.61,404.52L232.12,406.76L230.62,409L229.88,412.73L229.13,414.23L228.38,415.72L227.64,417.96L227.64,420.94L226.89,423.93L226.89,426.17L226.15,429.15L225.4,432.14L224.65,437.36L224.65,439.6L224.65,441.84L224.65,444.08L223.91,447.81L223.16,449.31L222.41,451.55L222.41,454.53L221.67,457.52L220.92,460.5L220.92,465.73L220.17,467.97L220.17,469.46L219.43,473.19L219.43,479.16L218.68,482.15L218.68,485.13L218.68,488.12L217.94,489.61L217.94,491.85L217.94,494.83L217.94,496.33L217.94,499.31L217.19,500.8L217.19,503.04L217.19,505.28L217.19,507.52L216.44,510.51L216.44,511.25L216.44,512L214.95,517.97L213.46,519.46L212.71,520.21L211.22,520.96L209.73,521.7L208.23,520.96L206.74,521.7L205.25,522.45L203.01,523.2L202.26,523.94L201.52,524.69L200.77,525.43L200.02,525.43L199.28,526.18L199.28,526.93L199.28,527.67" fill="none" stroke="#000000" style="-webkit-tap-highlight-color: rgba(0, 0, 0, 0); stroke-linecap: round; stroke-linejoin: round; stroke-width: 5;" /><path d="M203.76,527.67L203.01,527.67L202.26,527.67L201.52,528.42L200.77,528.42L200.02,529.17L197.78,529.91L195.55,531.41L191.81,532.9L185.84,535.14L179.13,538.12L177.63,538.87L173.9,541.11L169.42,543.35L167.18,544.84L164.94,544.84L160.47,546.33L155.99,548.57L151.51,550.06L147.03,550.81L135.09,554.54L131.36,555.29L125.39,557.53L121.66,556.78L118.67,557.53L115.69,559.77L113.45,561.26L111.21,562.75L108.97,564.24L106.73,565.74L104.49,566.48L100.76,569.47L99.27,570.96L97.77,572.45L95.53,573.95L93.29,575.44L91.06,576.93L88.82,579.17L85.83,581.41L81.35,586.64L79.11,589.62L76.87,591.11L74.64,593.35L73.14,595.59L71.65,597.83L69.41,600.82L67.92,602.31L64.93,604.55L62.69,606.04L59.71,607.53L55.98,609.03L52.99,609.77L49.26,610.52L44.78,612.01L41.8,614.25L40.3,615L37.32,617.24L29.85,623.21L26.87,625.45L23.14,629.18L20.15,632.91" fill="none" stroke="#000000" style="-webkit-tap-highlight-color: rgba(0, 0, 0, 0); stroke-linecap: round; stroke-linejoin: round; stroke-width: 5;" /><path d="M307.5,153.75L306.75,152.26L306.75,151.51L306.01,150.02L307.5,147.78L309.74,145.54L314.22,143.3L317.95,141.06L326.9,138.08L336.61,135.09L342.58,133.6L347.8,132.85L353.03,132.1L357.5,131.36L362.73,131.36L367.21,131.36L373.18,129.87L380.64,128.37L383.63,127.63L387.36,126.88L390.34,126.13L394.08,126.13L397.81,125.39L402.29,125.39L406.02,124.64L412.73,125.39L418.71,127.63L420.94,127.63L424.68,127.63L427.66,127.63L429.9,128.37L432.14,129.12L435.13,129.87L437.36,129.87L439.6,130.61L443.34,131.36L445.57,132.1L447.07,132.85L448.56,133.6L450.05,133.6L452.29,134.34L453.78,135.09L456.02,136.58L458.26,137.33L459.76,138.82L459.76,140.31L460.5,141.81L460.5,143.3L461.25,144.79L461.25,146.29L461.25,147.03L461.99,148.52L462.74,151.51" fill="none" stroke="#000000" style="-webkit-tap-highlight-color: rgba(0, 0, 0, 0); stroke-linecap: round; stroke-linejoin: round; stroke-width: 5;" /><path d="M461.25,151.51L461.25,150.02L461.25,147.78L461.25,147.03L461.99,145.54L462.74,144.79L463.49,143.3L464.23,141.81L465.73,138.82L466.47,137.33L467.97,136.58L469.46,135.84L470.95,135.09L473.19,135.09L475.43,135.09L477.67,134.34L480.65,134.34L485.88,134.34L488.86,134.34L491.1,134.34L493.34,134.34L495.58,135.09L497.82,135.09L500.06,135.84L502.3,136.58L506.78,137.33L513.49,138.82L515.73,138.08L517.22,138.08L519.46,138.08L520.21,138.08L521.7,138.08" fill="none" stroke="#000000" style="-webkit-tap-highlight-color: rgba(0, 0, 0, 0); stroke-linecap: round; stroke-linejoin: round; stroke-width: 5;" /><path d="M524.69,144.05L526.18,143.3L527.67,142.55L529.17,141.81L531.41,140.31L534.39,139.57L536.63,138.82L541.11,137.33L541.85,137.33L543.35,135.84L544.09,135.84L544.84,135.84L545.59,135.09L547.83,134.34L549.32,134.34L551.56,133.6L552.3,133.6L553.8,134.34L554.54,134.34L556.03,134.34L557.53,135.09L559.02,135.84L563.5,140.31L564.24,141.81L565.74,144.05L567.23,145.54L568.72,147.78L570.22,150.76L572.45,153.75L573.2,154.5L574.69,155.99L576.19,157.48L578.43,160.47L579.92,161.96L580.66,163.45L581.41,164.94L582.9,165.69L583.65,166.44L584.4,167.18L585.14,167.93L585.89,170.17L585.89,171.66L585.89,173.9L585.89,174.65L585.89,176.14L586.64,177.63L586.64,179.87L585.89,181.36L585.89,185.1L585.89,188.08L585.89,190.32L585.89,191.81L585.14,193.31L585.14,194.8L585.14,198.53L585.14,201.52L584.4,205.25L584.4,210.47L584.4,213.46L584.4,216.44L584.4,218.68L584.4,220.92L584.4,223.91L583.65,229.13L583.65,232.12L583.65,233.61L583.65,236.59L583.65,241.82L583.65,243.31L582.9,246.3L583.65,250.03L583.65,252.27L583.65,256L583.65,258.99L583.65,261.22L583.65,264.21L584.4,268.69L585.14,272.42L585.14,275.41L586.64,281.38L586.64,283.62L586.64,284.36L587.38,286.6L587.38,288.84L587.38,290.33L587.38,291.83L587.38,294.81L587.38,297.05L587.38,300.03L587.38,304.51L586.64,307.5L586.64,310.48L586.64,314.22L586.64,320.19L586.64,322.43" fill="none" stroke="#000000" style="-webkit-tap-highlight-color: rgba(0, 0, 0, 0); stroke-linecap: round; stroke-linejoin: round; stroke-width: 5;" /><path d="M591.11,191.07L590.37,190.32L590.37,189.57L591.11,188.08L592.61,186.59L594.85,185.1L603.06,181.36L603.8,181.36L605.29,181.36L608.28,180.62L613.5,180.62L614.25,181.36L617.24,181.36L620.97,181.36L624.7,180.62L632.16,179.13L635.9,178.38L639.63,177.63L643.36,178.38L645.6,178.38L647.84,177.63L649.33,177.63L649.33,176.89L650.08,176.89L650.82,174.65L651.57,173.15L652.31,171.66L653.06,170.17L655.3,168.68L656.05,168.68L657.54,167.93L659.03,167.18L660.52,167.18L662.76,166.44L664.26,165.69L666.5,165.69L667.99,164.94L668.73,164.94L670.23,164.94L670.97,164.94L673.21,164.94L674.71,164.94L679.18,164.2L682.17,164.2L685.15,164.2L688.89,163.45L691.13,163.45L694.11,162.71L696.35,162.71L700.83,162.71L701.57,161.96L706.8,161.96L709.04,161.96L711.28,162.71L714.26,163.45L716.5,164.2L719.49,164.94L723.22,165.69L726.95,166.44L729.94,167.18L735.16,167.93L741.88,169.42L746.36,169.42L750.83,169.42L754.57,169.42L759.04,169.42L762.78,170.17L769.49,170.17L776.21,169.42L779.2,169.42L782.18,169.42L785.17,170.17L788.15,170.17L791.14,169.42L794.12,169.42L797.11,169.42L800.09,169.42L807.56,170.17L815.02,170.92L819.5,170.17L823.23,170.92L826.96,170.92L831.44,170.17L835.92,170.17L840.4,170.17L850.1,170.92L854.58,170.92L859.06,171.66L863.53,171.66L868.01,172.41L872.49,173.15L877.71,173.9L882.19,175.39L886.67,176.14L896.37,176.14L901.6,176.89L906.82,176.14L911.3,175.39L915.03,174.65L919.51,173.9L923.24,173.15L926.97,172.41L930.71,171.66L937.42,170.17L941.15,170.17L945.63,170.17L953.84,170.17L958.32,170.17L962.8,169.42L967.28,169.42L971.01,169.42L975.49,168.68L982.95,168.68L987.43,167.93L991.16,167.93L994.89,167.18L997.88,167.18L1000.86,167.18L1005.34,167.18L1006.83,166.44L1009.82,165.69L1014.3,163.45L1017.28,162.71L1024,159.72" fill="none" stroke="#000000" style="-webkit-tap-highlight-color: rgba(0, 0, 0, 0); stroke-linecap: round; stroke-linejoin: round; stroke-width: 5;" /><path d="M576.93,311.23L577.68,311.23L578.43,311.23L582.16,311.23L583.65,311.98L584.4,313.47L584.4,314.96L585.14,317.2L585.14,319.44L585.89,321.68L587.38,325.41L588.13,326.16L588.87,329.14L592.61,334.37L594.1,336.61L595.59,339.59L597.83,343.32L602.31,353.77L603.8,356.01L607.53,360.49L609.77,362.73L612.01,364.97L614.25,366.46L616.49,367.95L617.98,370.19L621.71,373.18L623.95,375.42L626.19,376.91L629.92,379.9L632.91,382.13L634.4,384.37L636.64,385.87L638.13,387.36L639.63,388.1L641.87,389.6L643.36,390.34L644.85,391.84L646.34,393.33L647.84,395.57L649.33,397.06L651.57,400.05L653.81,401.54L655.3,403.03L657.54,406.02L659.03,408.26L661.27,409.75L662.76,410.5L666.5,414.23L667.99,415.72L669.48,417.21L670.23,419.45L671.72,420.94L673.96,423.18L674.71,424.68L676.94,425.42L679.93,427.66L681.42,429.9L682.92,432.14L684.41,434.38L686.65,435.13L688.89,436.62L691.13,438.86L692.62,440.35L693.36,442.59L694.86,444.83L696.35,447.81L697.1,450.05L697.84,451.55L699.34,453.78L700.83,456.02L702.32,459.01L705.31,464.23L708.29,467.97L709.78,470.2L712.77,474.68L717.99,481.4" fill="none" stroke="#000000" style="-webkit-tap-highlight-color: rgba(0, 0, 0, 0); stroke-linecap: round; stroke-linejoin: round; stroke-width: 5;" /><path d="M281.38,351.53L282.12,350.79L282.12,349.29L282.87,349.29L282.87,348.55L284.36,347.8L286.6,347.06L289.59,346.31L297.8,344.07L303.02,343.32L308.99,342.58L316.45,341.83L331.38,340.34L338.85,340.34L345.56,340.34L352.28,341.08L358.25,342.58L363.48,344.82L369.45,346.31L374.67,347.8L379.9,349.29L392.58,350.04L407.51,350.04L414.23,350.04L420.2,350.04L425.42,350.04L432.14,350.04L434.38,350.04L440.35,350.04L444.83,348.55L447.81,348.55L450.8,347.8L453.04,347.06L454.53,347.06L457.52,346.31L461.25,345.56L462.74,344.82L464.98,344.82L471.7,343.32L474.68,342.58L477.67,342.58L480.65,341.83L483.64,341.08L486.62,341.08L488.86,340.34L492.59,338.85L495.58,338.1L499.31,335.86L506.03,331.38L509.76,329.89L512.75,329.14L515.73,328.4L519.46,327.65L525.43,327.65L528.42,326.9L535.14,326.9" fill="none" stroke="#000000" style="-webkit-tap-highlight-color: rgba(0, 0, 0, 0); stroke-linecap: round; stroke-linejoin: round; stroke-width: 5;" /><path d="M611.27,326.9L613.5,326.9L615.74,326.9L620.22,326.9L630.67,329.89L635.9,332.87L640.37,335.86L645.6,338.85L650.08,342.58L654.55,344.82L658.29,347.8L662.02,350.79L666.5,355.27" fill="none" stroke="#000000" style="-webkit-tap-highlight-color: rgba(0, 0, 0, 0); stroke-linecap: round; stroke-linejoin: round; stroke-width: 5;" /><path d="M674.71,363.48L674.71,361.98L675.45,361.24L676.2,361.24L677.69,361.24L679.93,362.73L682.17,364.97L690.38,369.45L697.1,371.69L705.31,374.67" fill="none" stroke="#000000" style="-webkit-tap-highlight-color: rgba(0, 0, 0, 0); stroke-linecap: round; stroke-linejoin: round; stroke-width: 5;" /><path d="M181.36,662.02L181.36,661.27L181.36,659.03L181.36,657.54L184.35,653.06L188.83,650.08L194.05,645.6L200.02,641.87L205.25,638.13L217.94,630.67L228.38,623.95L238.09,617.98L253.01,613.5L263.46,609.77L274.66,605.29L287.35,599.32L298.54,593.35L315.71,585.89L326.16,581.41L335.11,578.43L342.58,573.95L354.52,567.23L360.49,564.24L363.48,562.01L366.46,561.26L369.45,561.26L372.43,562.01L377.66,562.01L382.13,562.01L386.61,562.75L391.84,563.5L405.27,563.5L412.73,562.75L419.45,562.01L426.17,561.26L432.89,560.51L439.6,560.51L446.32,560.51L451.55,560.51L456.77,559.77L467.97,559.77L473.19,559.02L479.16,558.27L485.13,558.27L491.1,557.53L497.82,557.53L505.28,556.78L511.25,556.03L517.97,555.29L526.93,553.8L539.62,551.56L546.33,550.81L552.3,550.06L558.27,549.32L564.24,548.57L570.22,548.57L576.19,548.57L582.16,548.57L591.11,548.57L604.55,547.83L613.5,546.33L622.46,544.84L632.16,542.6L641.87,541.11L653.06,540.36L674.71,537.38L684.41,535.14L691.13,532.9L696.35,530.66L699.34,528.42L701.57,526.93L702.32,523.94L703.81,521.7L705.31,519.46L706.05,517.22L707.55,514.99L711.28,511.25L713.52,509.01L715.76,507.52L718.74,505.28L722.47,503.04L725.46,501.55L729.19,500.06L732.17,500.06L738.89,499.31L742.62,499.31L747.85,499.31L753.07,498.57L758.3,498.57L763.52,498.57L768.75,498.57L776.96,498.57L779.94,498.57L790.39,497.07L797.85,496.33L803.83,497.07L809.05,496.33L815.02,496.33L821.74,496.33L827.71,496.33L834.43,497.07L842.64,499.31L859.8,503.79L868.01,506.78L876.22,508.27L884.43,509.01L892.64,509.01L901.6,506.78L911.3,504.54L920.26,503.04L928.47,502.3L938.92,503.04L948.62,505.28L954.59,506.78L961.31,508.27L968.02,509.76L974.74,511.25L981.46,512.75L988.17,514.99L995.64,517.22L1003.1,519.46L1010.57,521.7" fill="none" stroke="#000000" style="-webkit-tap-highlight-color: rgba(0, 0, 0, 0); stroke-linecap: round; stroke-linejoin: round; stroke-width: 5;" /><path d="M429.9,146.29L431.39,147.03L432.14,148.52L435.13,153L436.62,155.24L438.86,158.23L440.35,161.21L441.84,164.2L442.59,167.93L444.08,171.66L444.83,174.65L446.32,178.38L447.81,182.11L450.8,189.57L453.04,194.05L454.53,198.53L456.77,203.76L461.25,211.97L463.49,215.7L467.22,223.16L469.46,231.37L470.95,235.85L471.7,240.33L472.44,244.06L472.44,247.79L473.19,253.01L473.19,254.51L473.94,258.24L473.94,261.22L473.94,267.94L473.94,270.93L473.94,273.17L473.94,274.66L473.94,276.9L473.94,279.14L474.68,280.63L475.43,282.12L476.17,283.62L476.92,285.85L477.67,286.6L479.91,288.84L480.65,290.33L482.15,291.83L483.64,293.32L484.38,294.06L488.12,294.81L488.86,294.81L491.1,293.32L494.83,291.83L497.82,289.59L500.8,288.09L503.04,285.11L504.54,282.87L506.03,281.38L506.78,279.14L509.01,274.66L509.76,272.42L509.01,270.18L507.52,266.45L506.03,262.72L505.28,258.99L504.54,253.01L503.04,247.04L503.04,241.82L505.28,232.12L506.78,226.89L508.27,221.67L509.01,216.44L509.76,211.22L509.01,206.74L508.27,200.77L507.52,195.55L506.78,191.07L504.54,179.87L505.28,168.68L506.03,162.71L506.78,154.5L506.78,151.51L508.27,145.54" fill="none" stroke="#000000" style="-webkit-tap-highlight-color: rgba(0, 0, 0, 0); stroke-linecap: round; stroke-linejoin: round; stroke-width: 5;" /></svg>