<?xml version="1.0" encoding="utf-8" ?>
<svg baseProfile="full" height="682" version="1.1" width="1024" xmlns="http://www.w3.org/2000/svg" xmlns:ev="http://www.w3.org/2001/xml-events" xmlns:xlink="http://www.w3.org/1999/xlink"><defs /><path d="M3.32,17.43" fill="none" stroke="#000000" style="-webkit-tap-highlight-color: rgba(0, 0, 0, 0); stroke-linecap: round; stroke-linejoin: round; stroke-width: 5;" /><path d="M0,18L1.66,15.77L7,18L10,18L16,17L18,17L20,17L23,17L27,16L32,17L33,18L37,19L37,19L41,18L47,19L49,20L50,20L51,20L55,20L56,20L59,21L60,21L63,21L66,22L66,22L68,23L70,23L76,24L73,23L78,25L76,24L83,26L81,25L87,26L86,26L90,27L92,27L95,28L98,28L103,29L106,30L116,30L111,30L126,31L121,31L133,32L131,32L139,33L143,34L146,34L151,36L156,36L154,36L164,37L161,37L167,38L174,39L167,38L173,39L178,39L183,39L179,39L186,40L189,40L194,41L191,41L197,41L201,42L206,42L204,42L209,43L226,44L216,44L224,44L219,44L231,45L236,45L240,46L239,46L244,47L250,48L252,49L247,48L257,50L256,50L261,50L262,50L267,51L271,52L266,51L274,52L277,53L284,53L280,53L289,54L304,55L292,54L297,55L300,55L309,56L317,57L320,57L312,56L324,58L330,59L326,58L333,59L337,60L340,61L345,61L342,61L347,61L350,60L352,60L354,59L357,60L362,61L359,60L365,61L368,62L375,63L370,62L373,63L376,63L380,64L385,66L380,64L390,66L388,66L393,66L398,66L400,66L408,66L403,66L412,67L416,68L420,69L425,69L427,69L428,69L432,69L440,69L436,69L443,69L446,70L444,69L450,70L451,70L454,70L454,70L460,70L463,70L465,70L468,70L475,71L473,71L479,72L480,72L483,72L486,72L490,72L493,72L496,73L498,73L501,73L500,73L502,73L506,73L510,74L506,73L511,74L517,75L514,74L519,75L520,75L532,76L529,75L524,75L526,75L539,77L536,77L535,77L538,77L545,78L548,79L550,80L545,78L551,81L551,81L553,82L555,83L557,84L555,83L559,86L558,85L564,88L561,87L563,87L566,88L566,88L568,89L568,89L571,90L571,90L571,90L575,91L575,91L578,92L579,92L582,93L578,92L583,93L584,93L589,94L586,93L589,94L591,94L589,94L592,94L594,94L595,94L595,94L599,94L601,94L602,94L604,94L606,94L607,107L620,96L609,107L611,109L612,109L614,109L625,98L625,98L625,98L627,99L627,99L627,99L627,99L627,99L633,100L633,100L633,100L638,101L638,101L638,101L639,101L640,101L643,101L646,102L646,102L652,103L647,102L652,103L652,103L654,103L656,103L657,103L659,103L665,104L661,103L665,104L665,104L665,104L670,103L674,103L675,103L681,104L683,105L685,106L687,107L687,107L690,108L692,108L690,108L694,108L700,109L702,110L702,110L718,112L719,113L702,110L704,110L704,110L722,114L719,113L724,114L709,109L727,115L710,109L725,114L728,115L729,116L732,116L717,111L730,116L733,116L735,115L736,115L738,114L742,113L744,113L745,113L746,113L748,112L750,111L748,112L750,111L752,111L754,110L757,109L757,109L760,107L760,107L760,107L762,107L763,107L765,107L767,106L768,106L770,105L772,105L773,105L775,106L777,107L780,107L782,107L778,107L782,107L785,108L787,108L788,108L790,108L792,108L793,109L792,108L795,109L797,110L796,109L798,110L800,110L803,111L803,111L809,112L805,111L809,112L810,112L812,113L813,113L816,114L817,114L818,114L819,114" fill="none" stroke="#000000" style="-webkit-tap-highlight-color: rgba(0, 0, 0, 0); stroke-linecap: round; stroke-linejoin: round; stroke-width: 5;" /><path d="M823,115L826,117L826,117L825,116L829,118L829,118L830,118L830,118L833,118L835,118L839,119L836,118L842,120L842,120L845,121L844,121L846,121L848,121L846,121L851,122L853,122L855,123L851,122L856,123L858,124L860,124L861,124L860,124L863,124L865,124L866,124L868,124L870,124L875,125L873,125L871,124L876,125L878,125L881,126L881,126L884,127L886,127L885,127L890,128L890,128L891,128L895,129L896,129L898,129L901,130L900,130L905,132L903,131L909,133L906,132L907,132L911,134L912,134L914,135L918,135L916,135L923,134L922,134L928,134L923,134L931,137L933,138" fill="none" stroke="#000000" style="-webkit-tap-highlight-color: rgba(0, 0, 0, 0); stroke-linecap: round; stroke-linejoin: round; stroke-width: 5;" /><path d="M8.3,138.58" fill="none" stroke="#000000" style="-webkit-tap-highlight-color: rgba(0, 0, 0, 0); stroke-linecap: round; stroke-linejoin: round; stroke-width: 5;" /><path d="M938,138L941,138L953,140L948,140L943,139L951,140L961,141L960,141L964,141L956,140L966,141L971,142L973,142L970,142L973,142L984,143L981,142L983,143L988,144L991,145L996,146L990,145L998,147L1001,148L1002,148L1000,148L1007,149L1007,149L1015,149L1011,149L1016,149L1017,149L1021,150L1017,149L1016,149" fill="none" stroke="#000000" style="-webkit-tap-highlight-color: rgba(0, 0, 0, 0); stroke-linecap: round; stroke-linejoin: round; stroke-width: 5;" /><path d="M15,136L15,136L15,136L15,136L15,136L18,138L15,136L22,140L22,140L26,140L25,140L26,140L26,140L27,139L28,138L27,139L50,154L53,155L56,155L41,150L40,149L60,155L65,157L45,152L63,157L68,158L71,160L46,154L75,160L78,162L88,167L85,165L81,163L93,168L90,167L100,168L96,168L116,175L103,168L116,175L116,175L116,175L117,175L123,175L124,176L123,175L124,176L124,176L124,176L124,176L138,178L136,178L138,180L139,180L141,180L141,182L144,182L143,182L146,182L149,185L148,183L151,185L153,187L156,190L158,192L154,188L159,193L161,193L163,195L164,195L166,195L168,195L169,193L171,193L173,193L173,195L173,197L173,198L173,200L171,200L171,202L174,202L173,202L176,202L178,202L179,202L181,202L183,202L184,202L186,202L188,202L189,203L191,205L191,207L191,208L193,208L193,210L193,212L194,213L194,215L196,217L196,215L197,218L199,220L201,220L202,222L204,223L209,227L207,225L206,223L211,227L212,228L216,230L214,228L217,230L221,233L219,232L224,236L222,235L229,241L226,238L229,243L227,240L234,248L232,245L232,246L231,243L236,250L239,251L237,250L241,253L254,259L254,259L254,259L254,259L260,266L257,263L257,264L259,265L261,268L265,271L264,270L265,271L269,275L271,275L272,275L274,275L276,276L279,278L279,278L276,276L284,279L280,278L284,279L280,278L285,279L289,293L285,279L287,291L290,296L294,301L294,300L292,298L295,303L299,305L302,306L297,303L305,308L304,306L309,308L310,310L326,305L326,305L326,305L314,310L331,310L331,310L333,311L331,310L338,315L339,316L339,316L339,316L339,316L342,329L344,329L340,328L345,331L350,333L347,331L349,333L358,336L352,334L355,334L360,338L363,338L370,341L373,341L367,339L375,343L381,354L382,354L382,354L387,355L390,356L393,358L390,356L398,360L398,360L398,360L398,360L410,364L412,366L413,368L415,369L417,373L418,376L422,383L420,379L423,386L425,389L430,393L428,391L430,394L436,396L438,397L433,396L441,399L445,401L450,402L446,401L451,404L456,407L453,406L458,407L461,409L466,412L463,411L470,414L473,416L475,417L476,417L480,419L481,421L483,422L486,424L490,426L493,427L498,427L501,431" fill="none" stroke="#000000" style="-webkit-tap-highlight-color: rgba(0, 0, 0, 0); stroke-linecap: round; stroke-linejoin: round; stroke-width: 5;" /><path d="M506,432L513,437L510,434L514,439L518,442L519,446L523,449L524,452L528,454L529,457L533,459L541,464L538,461L544,466L549,469L554,471L558,474L563,475L566,477L576,484L569,480L573,482L579,487L586,492L584,489L589,495L592,497L596,500L599,502L602,504L606,505L609,507L612,509L614,510L617,512L619,514L622,514L624,515L627,519L629,519L631,520L634,522L637,524L641,525L644,529L647,530L651,532L654,535L656,539L662,550L679,565L662,550L662,550L682,568L685,572L668,550L666,552L689,575L697,582L694,578L705,588L702,585L709,590" fill="none" stroke="#000000" style="-webkit-tap-highlight-color: rgba(0, 0, 0, 0); stroke-linecap: round; stroke-linejoin: round; stroke-width: 5;" /><path d="M670,553" fill="none" stroke="#000000" style="-webkit-tap-highlight-color: rgba(0, 0, 0, 0); stroke-linecap: round; stroke-linejoin: round; stroke-width: 5;" /><path d="M712,592" fill="none" stroke="#000000" style="-webkit-tap-highlight-color: rgba(0, 0, 0, 0); stroke-linecap: round; stroke-linejoin: round; stroke-width: 5;" /><path d="M671,553" fill="none" stroke="#000000" style="-webkit-tap-highlight-color: rgba(0, 0, 0, 0); stroke-linecap: round; stroke-linejoin: round; stroke-width: 5;" /><path d="M715,593L720,597L719,595" fill="none" stroke="#000000" style="-webkit-tap-highlight-color: rgba(0, 0, 0, 0); stroke-linecap: round; stroke-linejoin: round; stroke-width: 5;" /><path d="M671,553" fill="none" stroke="#000000" style="-webkit-tap-highlight-color: rgba(0, 0, 0, 0); stroke-linecap: round; stroke-linejoin: round; stroke-width: 5;" /><path d="M724,598L727,600L725,598L729,600L730,602L732,603L737,605L734,603L739,607L740,608L748,612L745,610L744,608L750,613L753,617L758,620L755,618L762,622L763,623L767,625L770,627L775,631L777,633L772,628L778,635L782,636L785,640L787,640L783,638L788,641L790,643L795,646L793,645L798,648L800,650L805,651L803,651L808,651L810,653L813,653L817,655L818,655L822,656L825,658L823,656L827,658L830,660L835,660L831,660L836,661L840,661L846,663L843,661L850,663L853,663L860,666L858,665L855,665L861,666L868,671L863,668L865,670L870,673L868,673L873,675L875,676L876,678L878,678L880,680L883,680L888,680L885,680L890,680L891,681L895,681L896,681" fill="none" stroke="#000000" style="-webkit-tap-highlight-color: rgba(0, 0, 0, 0); stroke-linecap: round; stroke-linejoin: round; stroke-width: 5;" /><path d="M21.58,495.4L27,495L31,497L25,494L28,495L30,496L33,500L32,499L33,502L33,504L37,508L39,509L39,509L45,514L45,514L45,514L47,515L47,515L52,518L53,519L52,518L54,520L57,523L61,525L58,524L55,521L61,525L63,526L63,527L65,527L67,528L73,534L73,534L69,529L75,535L76,536L78,538L77,537L79,539L80,540L82,541L80,540L84,543L86,544L89,546L85,544L92,547L96,550L92,547L95,550L93,548L101,553L102,553L98,552L99,552L105,555L105,555L109,557L108,557L110,558L114,563L111,559L113,562L115,565L117,567L117,567L122,572L124,573L126,574L130,577L126,574L132,578L136,580L141,582L139,581L143,582L145,583L148,585L153,590L149,587L154,591L162,593L158,592L166,596L168,600L169,601L174,604L171,602L176,606L178,608L181,609L181,609L185,610L190,615L187,611L190,615L190,615L192,616L195,620L194,619L195,620L199,621L196,620L199,621L203,624L206,627L203,624L206,627L207,627L211,630L208,628L210,629L214,631L216,632L218,633L216,632L219,635L220,636L221,638L222,639L227,641L229,641L232,642L231,642L231,642L237,645L235,643L238,646L234,642L238,646L241,649L239,647L242,650L246,653L244,651L248,654L251,656" fill="none" stroke="#000000" style="-webkit-tap-highlight-color: rgba(0, 0, 0, 0); stroke-linecap: round; stroke-linejoin: round; stroke-width: 5;" /><path d="M261,663L257,661L255,659L253,658L263,664L266,666L264,665L267,666L271,670L272,670L270,668L271,670L274,672L272,671L273,671L275,673L276,675L277,676L278,676L278,678L278,678L278,680L278,680L278,680" fill="none" stroke="#000000" style="-webkit-tap-highlight-color: rgba(0, 0, 0, 0); stroke-linecap: round; stroke-linejoin: round; stroke-width: 5;" /><path d="M159.33,130.28L155,134L161,135L167,140L167,140L165,138L167,140L179,145L167,140L167,140L179,147L181,149L184,154L186,155L183,152L188,157L189,158L191,162L189,160L193,163L194,165L196,167L197,167L197,168L199,170L202,172L201,172L202,173L204,175L207,178L206,177L209,178L211,180L214,182L212,180L216,183L219,185L217,185L221,187L222,188L224,188L226,190L224,190L229,192L232,193L227,192L236,197L237,198L239,198L242,202L246,203L252,208L249,207L259,215L256,212L266,218L269,220L262,217L271,222L279,227L274,223L277,225L282,228L287,232L285,230L289,233L290,235L299,240L294,236L295,238L300,241L302,243L305,245L307,246L304,245L309,246L310,248L312,248L315,250L317,253L329,261L329,261L329,261L329,261L329,262L330,262L332,266L335,265L337,266L337,266L337,266L337,266L337,266L349,275L337,266L350,276L354,278L358,281L355,280L360,283L367,288L363,286L370,291L373,293L375,296L378,298L380,300L382,301L383,305L392,310L387,306L388,308L393,311L397,315L398,316L395,313L402,316L405,319L418,315L403,318L407,321L419,317L419,317L419,317L420,318L420,318L422,331L420,318L423,333L425,336L430,341L428,338L433,343L435,346L438,348L441,351L443,353L446,356L448,358L450,359L451,361" fill="none" stroke="#000000" style="-webkit-tap-highlight-color: rgba(0, 0, 0, 0); stroke-linecap: round; stroke-linejoin: round; stroke-width: 5;" /><path d="M453,361L453,363L456,364L458,366L461,368L463,371L468,374L466,373L471,374L473,376L475,378L478,378L480,379L483,379L486,381L488,383L491,383L495,384L501,388L498,386L503,388L506,389L510,391L514,394L513,393L516,396L518,397L519,399L521,401L523,402L526,404L529,407L528,406L533,409L534,411L538,411L543,414L539,412L546,416L544,416L549,417L551,417L553,419L554,419L558,421L559,421L561,422L564,422" fill="none" stroke="#000000" style="-webkit-tap-highlight-color: rgba(0, 0, 0, 0); stroke-linecap: round; stroke-linejoin: round; stroke-width: 5;" /><path d="M1002.42,405.78" fill="none" stroke="#000000" style="-webkit-tap-highlight-color: rgba(0, 0, 0, 0); stroke-linecap: round; stroke-linejoin: round; stroke-width: 5;" /><path d="M568,424L556,433L569,426L571,427L573,427L574,429L574,431L576,432L578,432L579,434L581,436L581,434L583,436L583,437L586,437L584,437L586,439L588,439L591,441L589,441L591,442L592,442L592,444L591,444" fill="none" stroke="#000000" style="-webkit-tap-highlight-color: rgba(0, 0, 0, 0); stroke-linecap: round; stroke-linejoin: round; stroke-width: 5;" /><path d="M1015,407L1004,406L1015,407L1015,407L976,412L1004,406L973,412L969,411L1001,406L964,411L1015,407" fill="none" stroke="#000000" style="-webkit-tap-highlight-color: rgba(0, 0, 0, 0); stroke-linecap: round; stroke-linejoin: round; stroke-width: 5;" /><path d="M959,409L954,407L949,407L997,407L946,407L943,407L938,409L934,411L931,412L924,414L928,414" fill="none" stroke="#000000" style="-webkit-tap-highlight-color: rgba(0, 0, 0, 0); stroke-linecap: round; stroke-linejoin: round; stroke-width: 5;" /><path d="M994,409L991,409L987,411" fill="none" stroke="#000000" style="-webkit-tap-highlight-color: rgba(0, 0, 0, 0); stroke-linecap: round; stroke-linejoin: round; stroke-width: 5;" /><path d="M921,416L918,416L916,417L913,417L900,416" fill="none" stroke="#000000" style="-webkit-tap-highlight-color: rgba(0, 0, 0, 0); stroke-linecap: round; stroke-linejoin: round; stroke-width: 5;" /><path d="M984,411" fill="none" stroke="#000000" style="-webkit-tap-highlight-color: rgba(0, 0, 0, 0); stroke-linecap: round; stroke-linejoin: round; stroke-width: 5;" /><path d="M900,416" fill="none" stroke="#000000" style="-webkit-tap-highlight-color: rgba(0, 0, 0, 0); stroke-linecap: round; stroke-linejoin: round; stroke-width: 5;" /><path d="M981,411" fill="none" stroke="#000000" style="-webkit-tap-highlight-color: rgba(0, 0, 0, 0); stroke-linecap: round; stroke-linejoin: round; stroke-width: 5;" /><path d="M900,416" fill="none" stroke="#000000" style="-webkit-tap-highlight-color: rgba(0, 0, 0, 0); stroke-linecap: round; stroke-linejoin: round; stroke-width: 5;" /><path d="M978,412" fill="none" stroke="#000000" style="-webkit-tap-highlight-color: rgba(0, 0, 0, 0); stroke-linecap: round; stroke-linejoin: round; stroke-width: 5;" /><path d="M900,416L898,417L900,416L897,417L900,416L890,417L893,417L883,416L886,416L875,415L872,416L872,416L880,416L855,417L872,416L855,417L855,417L855,417L851,417L850,417L845,418L841,417L838,416L833,417L835,417L833,417L833,417L833,417L814,419L814,419L814,419L812,419L808,419L805,419L802,419L795,419L798,419L787,418L790,418L783,419L780,420L778,420L775,420L773,419L775,420L754,425L754,425L773,419L754,425L754,425L754,425L753,425L750,424L748,424L748,424L742,424L742,424L739,424L730,424L740,424L735,423L730,424L729,424" fill="none" stroke="#000000" style="-webkit-tap-highlight-color: rgba(0, 0, 0, 0); stroke-linecap: round; stroke-linejoin: round; stroke-width: 5;" /><path d="M723,426L723,426L723,426L710,434L723,426L723,426L704,434L702,436L699,436L707,434L695,437L694,437L689,437L692,437L684,439L680,439L685,439L679,439L675,439L674,439L669,439L670,439L667,439L661,439L666,439L662,439L659,439L657,439L656,439L654,439L652,439L651,439L647,441L649,441L646,441L644,441L639,441L641,441L637,441L636,441L634,441L632,442L634,442L631,442L627,444L626,444L629,444L624,446L622,446L619,447L621,447L617,449L616,449L614,449L612,451L611,451L609,451L606,451L607,451L604,451L602,451L599,451L601,451L597,451L596,451L591,451L592,451L594,451L589,451L584,449L588,451L586,449L584,447" fill="none" stroke="#000000" style="-webkit-tap-highlight-color: rgba(0, 0, 0, 0); stroke-linecap: round; stroke-linejoin: round; stroke-width: 5;" /><path d="M1017.36,497.06" fill="none" stroke="#000000" style="-webkit-tap-highlight-color: rgba(0, 0, 0, 0); stroke-linecap: round; stroke-linejoin: round; stroke-width: 5;" /><path d="M583,447L583,446L583,447L584,449" fill="none" stroke="#000000" style="-webkit-tap-highlight-color: rgba(0, 0, 0, 0); stroke-linecap: round; stroke-linejoin: round; stroke-width: 5;" /><path d="M1018,494L1018,492L1018,492L1018,492L1017,489L1017,489L1016,497L1016,497L1002,492L1004,492L1001,492L999,492L997,480L996,480L994,480L992,480L991,480L989,480L987,480L987,480L987,480L981,478L981,478L981,478L975,475L975,475L973,474L971,473L959,482L971,473L956,482L953,482L948,482L939,482L944,482L936,482" fill="none" stroke="#000000" style="-webkit-tap-highlight-color: rgba(0, 0, 0, 0); stroke-linecap: round; stroke-linejoin: round; stroke-width: 5;" /><path d="M876,474" fill="none" stroke="#000000" style="-webkit-tap-highlight-color: rgba(0, 0, 0, 0); stroke-linecap: round; stroke-linejoin: round; stroke-width: 5;" /><path d="M933,482L933,480L928,480" fill="none" stroke="#000000" style="-webkit-tap-highlight-color: rgba(0, 0, 0, 0); stroke-linecap: round; stroke-linejoin: round; stroke-width: 5;" /><path d="M875,474L871,474" fill="none" stroke="#000000" style="-webkit-tap-highlight-color: rgba(0, 0, 0, 0); stroke-linecap: round; stroke-linejoin: round; stroke-width: 5;" /><path d="M924,480" fill="none" stroke="#000000" style="-webkit-tap-highlight-color: rgba(0, 0, 0, 0); stroke-linecap: round; stroke-linejoin: round; stroke-width: 5;" /><path d="M868,474L865,474L860,474L861,474L856,474" fill="none" stroke="#000000" style="-webkit-tap-highlight-color: rgba(0, 0, 0, 0); stroke-linecap: round; stroke-linejoin: round; stroke-width: 5;" /><path d="M921,480L916,480L918,480" fill="none" stroke="#000000" style="-webkit-tap-highlight-color: rgba(0, 0, 0, 0); stroke-linecap: round; stroke-linejoin: round; stroke-width: 5;" /><path d="M855,474L853,474L851,474" fill="none" stroke="#000000" style="-webkit-tap-highlight-color: rgba(0, 0, 0, 0); stroke-linecap: round; stroke-linejoin: round; stroke-width: 5;" /><path d="M913,480" fill="none" stroke="#000000" style="-webkit-tap-highlight-color: rgba(0, 0, 0, 0); stroke-linecap: round; stroke-linejoin: round; stroke-width: 5;" /><path d="M837,470L837,470" fill="none" stroke="#000000" style="-webkit-tap-highlight-color: rgba(0, 0, 0, 0); stroke-linecap: round; stroke-linejoin: round; stroke-width: 5;" /><path d="M909,480L911,480" fill="none" stroke="#000000" style="-webkit-tap-highlight-color: rgba(0, 0, 0, 0); stroke-linecap: round; stroke-linejoin: round; stroke-width: 5;" /><path d="M837,470L837,470" fill="none" stroke="#000000" style="-webkit-tap-highlight-color: rgba(0, 0, 0, 0); stroke-linecap: round; stroke-linejoin: round; stroke-width: 5;" /><path d="M906,480" fill="none" stroke="#000000" style="-webkit-tap-highlight-color: rgba(0, 0, 0, 0); stroke-linecap: round; stroke-linejoin: round; stroke-width: 5;" /><path d="M837,470" fill="none" stroke="#000000" style="-webkit-tap-highlight-color: rgba(0, 0, 0, 0); stroke-linecap: round; stroke-linejoin: round; stroke-width: 5;" /><path d="M905,480" fill="none" stroke="#000000" style="-webkit-tap-highlight-color: rgba(0, 0, 0, 0); stroke-linecap: round; stroke-linejoin: round; stroke-width: 5;" /><path d="M837,470L837,470L836,470" fill="none" stroke="#000000" style="-webkit-tap-highlight-color: rgba(0, 0, 0, 0); stroke-linecap: round; stroke-linejoin: round; stroke-width: 5;" /><path d="M901,480L896,479" fill="none" stroke="#000000" style="-webkit-tap-highlight-color: rgba(0, 0, 0, 0); stroke-linecap: round; stroke-linejoin: round; stroke-width: 5;" /><path d="M835,470" fill="none" stroke="#000000" style="-webkit-tap-highlight-color: rgba(0, 0, 0, 0); stroke-linecap: round; stroke-linejoin: round; stroke-width: 5;" /><path d="M900,479L895,477" fill="none" stroke="#000000" style="-webkit-tap-highlight-color: rgba(0, 0, 0, 0); stroke-linecap: round; stroke-linejoin: round; stroke-width: 5;" /><path d="M827,477L827,477L827,477L827,477L827,477" fill="none" stroke="#000000" style="-webkit-tap-highlight-color: rgba(0, 0, 0, 0); stroke-linecap: round; stroke-linejoin: round; stroke-width: 5;" /><path d="M893,477L888,475" fill="none" stroke="#000000" style="-webkit-tap-highlight-color: rgba(0, 0, 0, 0); stroke-linecap: round; stroke-linejoin: round; stroke-width: 5;" /><path d="M824,477L818,477" fill="none" stroke="#000000" style="-webkit-tap-highlight-color: rgba(0, 0, 0, 0); stroke-linecap: round; stroke-linejoin: round; stroke-width: 5;" /><path d="M891,477L886,475" fill="none" stroke="#000000" style="-webkit-tap-highlight-color: rgba(0, 0, 0, 0); stroke-linecap: round; stroke-linejoin: round; stroke-width: 5;" /><path d="M822,478L815,477L817,477L811,476L810,476" fill="none" stroke="#000000" style="-webkit-tap-highlight-color: rgba(0, 0, 0, 0); stroke-linecap: round; stroke-linejoin: round; stroke-width: 5;" /><path d="M881,475" fill="none" stroke="#000000" style="-webkit-tap-highlight-color: rgba(0, 0, 0, 0); stroke-linecap: round; stroke-linejoin: round; stroke-width: 5;" /><path d="M808,476" fill="none" stroke="#000000" style="-webkit-tap-highlight-color: rgba(0, 0, 0, 0); stroke-linecap: round; stroke-linejoin: round; stroke-width: 5;" /><path d="M880,474L885,475" fill="none" stroke="#000000" style="-webkit-tap-highlight-color: rgba(0, 0, 0, 0); stroke-linecap: round; stroke-linejoin: round; stroke-width: 5;" /><path d="M805,476L805,476L805,476L805,476L792,477L787,477L790,477L805,476L778,477L783,477L777,477L782,477L775,477L770,477L768,477L772,477L763,477L767,477L763,479L762,479L758,480L760,479L755,480L757,480L753,482L752,482L750,482L748,482L744,482L747,482L740,482L742,482L739,482L737,484L735,484L734,484L732,485L730,485L729,485L727,487L725,487L724,489L724,490L722,492L722,494L722,497L722,495L722,500L724,502L725,504L730,507L729,505L734,509L737,510L744,514L740,512L745,515L748,515L753,520L750,517L752,519L755,520L758,524L760,525L757,522L762,527L763,529L768,530L765,529L770,532L773,534L778,537L775,535L780,539L782,539L783,539L785,539" fill="none" stroke="#000000" style="-webkit-tap-highlight-color: rgba(0, 0, 0, 0); stroke-linecap: round; stroke-linejoin: round; stroke-width: 5;" /><path d="M785,540L797,541L798,544L797,541L797,541L798,544L800,545L806,551L802,544L806,551L809,552L809,552L810,553L810,553L810,553L810,553L822,553L825,555L827,557L836,563L830,560L833,562L838,565L841,565L846,568L843,567L848,570L853,572L851,570L856,572L858,573L861,573L865,575L868,577L871,578L873,580L880,583L876,582L883,585L886,587L895,592L890,588L893,590L898,593L900,595L901,597L905,597L906,598L909,600L913,602L914,603L918,605L923,607L929,610L926,608L933,612L936,613L939,615L943,617L946,620L958,619L958,619L958,619L961,621L964,622L966,622L966,622L966,622L978,631L981,635L984,636L987,638L989,640L996,645L992,643L999,645L1001,646L1002,646L1004,648L1006,648L1007,648L1006,648" fill="none" stroke="#000000" style="-webkit-tap-highlight-color: rgba(0, 0, 0, 0); stroke-linecap: round; stroke-linejoin: round; stroke-width: 5;" /><path d="M560.96,98.75L561,87L563,102L564,105L568,109L571,112L574,114L583,117L579,115L586,119L588,120L594,122L597,122L591,120L601,124L602,125L604,127L607,129L611,130L609,129L612,132L614,134L616,135L616,134L617,137L619,139L621,139L622,140L626,142L624,140L636,145L632,144L627,142L629,144L641,149L647,154L642,150L651,157" fill="none" stroke="#000000" style="-webkit-tap-highlight-color: rgba(0, 0, 0, 0); stroke-linecap: round; stroke-linejoin: round; stroke-width: 5;" /><path d="M656,158L659,160L662,163L666,165L667,167L679,175L675,172L672,170L682,177L685,178L689,182L687,180L690,182L692,182" fill="none" stroke="#000000" style="-webkit-tap-highlight-color: rgba(0, 0, 0, 0); stroke-linecap: round; stroke-linejoin: round; stroke-width: 5;" /><path d="M677.13,121.98L674,122L670,122L669,120L666,119L664,119L662,117L661,117L661,119L666,124L670,125L675,129L680,132L685,134L690,137L694,139L697,140L700,142L704,144L707,147L709,149L712,150L714,152L715,152L717,152L719,154L722,154L724,155L725,155L727,157L729,158L730,158L732,160" fill="none" stroke="#000000" style="-webkit-tap-highlight-color: rgba(0, 0, 0, 0); stroke-linecap: round; stroke-linejoin: round; stroke-width: 5;" /><path d="M670.5,173.43L675,172L674,172L679,170L675,170L679,172L677,170L680,175L680,177L680,180L680,183L680,193L680,188L682,197L682,202L682,210L682,205L684,213L684,222L684,218L684,225L685,230L685,227L687,232L687,235L689,236L689,240L689,243L689,241L689,245L689,246L689,250L689,248L689,251L689,253L689,255L689,256L687,258L687,260L687,265L687,263L687,266L687,270L687,273" fill="none" stroke="#000000" style="-webkit-tap-highlight-color: rgba(0, 0, 0, 0); stroke-linecap: round; stroke-linejoin: round; stroke-width: 5;" /><path d="M687,271L687,278L687,276L687,280L689,285L689,283L687,281L689,286L689,288L690,290L692,290L692,288" fill="none" stroke="#000000" style="-webkit-tap-highlight-color: rgba(0, 0, 0, 0); stroke-linecap: round; stroke-linejoin: round; stroke-width: 5;" /><path d="M725.26,161.82L725,165L724,165L724,167L725,167L730,167L737,167L734,167L740,167L744,168L747,170L750,173L752,177L755,180L757,185L758,190L758,195L758,200L758,205L758,215L758,210L758,220L758,225L758,233L758,236L758,228L758,241L758,245L760,250L760,248L760,253L762,255L762,258L762,261L763,265L763,268L765,271L765,273L765,276L767,278L767,283L767,281L768,285L768,286L770,288L770,290L770,291L770,293L770,296L770,298" fill="none" stroke="#000000" style="-webkit-tap-highlight-color: rgba(0, 0, 0, 0); stroke-linecap: round; stroke-linejoin: round; stroke-width: 5;" /><path d="M770,300L772,301L772,313L772,313L772,313L772,313L772,313L772,313L772,313L772,313" fill="none" stroke="#000000" style="-webkit-tap-highlight-color: rgba(0, 0, 0, 0); stroke-linecap: round; stroke-linejoin: round; stroke-width: 5;" /><path d="M678.79,301.23L679,305L680,306L685,310L682,308L687,311L690,311L692,313L694,313L695,313L697,313L699,313L700,313L702,315L702,313L704,315L705,315L707,315L710,315L712,315L714,315L717,315L715,315L719,315L720,315L722,316L724,316L727,316L729,316L730,316L734,316L737,316L732,316L740,318L744,321L745,323L750,324L748,323L753,326L755,328L758,329L770,320L770,320L778,323L772,321L778,323L780,324L790,327L787,326L780,324L793,328L800,332L800,332L798,331L795,344L807,334L798,348L797,346L800,349L802,351L807,353L805,353L810,354L813,356L812,356L817,358L818,358L820,358L822,359L823,359L827,359L828,359L831,361L833,361L835,361L840,361L836,361L841,363L843,363L846,364L845,363L848,364L850,364L853,366L851,366L855,368L856,368L861,369L858,368L860,369L863,371L865,371L866,373L868,373L870,374L871,374L876,376L875,374L878,376L880,378L881,378L883,379L885,381L886,381L888,383L890,383L891,384L893,384L896,386L898,386L895,384" fill="none" stroke="#000000" style="-webkit-tap-highlight-color: rgba(0, 0, 0, 0); stroke-linecap: round; stroke-linejoin: round; stroke-width: 5;" /><path d="M898,388L900,388L903,389L901,389L908,394L909,394L911,396L913,397L903,391L914,397L905,391L916,399L918,399L919,401L906,393L921,401L923,402L965.91,404.12L926,402L924,402L926,404L928,404L933,406L929,404L931,404L934,406L963,404L934,407L961,404L964,404L958,402L959,402L954,401L956,402L953,401L951,399L951,397L949,396L944,389L948,394L944,391L946,393L943,389L939,386L943,388L941,388L936,384L938,386L934,384L933,383L931,383L926,381L928,383L923,381L918,379L921,379L913,378L914,378L908,374L909,376L903,373L906,374L901,373L900,371L898,369L896,369L895,366L896,368L893,366L891,364L890,364L888,363L886,363L883,363L881,361L880,361L876,361L875,359L873,359L870,358L866,358L865,358L861,356L860,356L858,354L856,354L855,353L850,351L853,353L851,351L848,349L833,339L846,349L845,349L833,339L833,339L833,339L833,339L833,339L833,339L833,339L831,339L830,339L829,339L825,338L829,339L823,338L820,337L823,338L822,338L818,336L817,336L813,335L812,335L815,336L812,335L809,334L806,332L806,332L803,332L805,332L798,330L797,329L795,328L793,327L793,327L789,326L788,326L785,324L785,324L783,324L780,323L775,321L777,322L778,323L770,320L772,321L770,320L770,320" fill="none" stroke="#000000" style="-webkit-tap-highlight-color: rgba(0, 0, 0, 0); stroke-linecap: round; stroke-linejoin: round; stroke-width: 5;" /><path d="M770,319L770,319L770,320L770,318L758,318L755,316L757,318L753,316L752,315L750,315L748,313L747,313L744,311L742,311L740,310L737,308L734,306L730,305L729,303L725,301L724,301L722,300L719,300L715,300L717,300L712,300L710,300L709,300L714,300L704,300L702,300L705,300L700,300L699,300L697,300L694,300L695,300L692,300L689,300L687,298L690,300L685,298L682,300L684,300L680,301L680,303L679,305L679,306L682,306" fill="none" stroke="#000000" style="-webkit-tap-highlight-color: rgba(0, 0, 0, 0); stroke-linecap: round; stroke-linejoin: round; stroke-width: 5;" /><path d="M818.2,241.48L815,241L818,243L822,243L823,243L825,245L830,246L828,245L833,246L836,248L840,250L845,251L841,250L846,253L850,253L856,255L851,253L853,253L858,255L860,256L861,258L865,260L863,258L866,261L868,263L870,263L871,265L873,266L876,266L878,268L881,268L883,270L886,270L893,273L890,271L896,273L898,275L901,276L903,278L908,281L911,283L906,280L909,281L914,285L918,288L916,286L913,285L919,290L923,293L921,291L924,293L926,295L928,296L929,296L931,298L933,298L936,300L934,298L938,301L943,305L939,301L941,303L944,305L949,308L946,306L951,310L953,311L956,313L961,315L958,315L964,315L966,316L968,316L971,318L973,318L976,319L974,319L979,321L978,319L983,323L981,321L981,323L984,324L987,328L991,329L986,326L989,328L992,331L996,333L997,333L994,331L999,333L1002,334L1001,334L1004,334" fill="none" stroke="#000000" style="-webkit-tap-highlight-color: rgba(0, 0, 0, 0); stroke-linecap: round; stroke-linejoin: round; stroke-width: 5;" /><path d="M1006,334L1007,336L1011,336L1009,336L1016,339L1012,338L1014,338L1017,339L1021,341L1019,341L1022,341L1022,343L1022,343L1024,343" fill="none" stroke="#000000" style="-webkit-tap-highlight-color: rgba(0, 0, 0, 0); stroke-linecap: round; stroke-linejoin: round; stroke-width: 5;" /><path d="M846.42,239.82L843,240L841,240L841,238L843,241L845,241L846,243L850,243L851,243L853,243L856,245L858,245L861,245L863,246L865,246L868,246L870,246L871,248L875,250L876,250L880,253L878,251L881,255L883,255L886,258L885,256L888,258L890,260L891,260L893,261L895,261L898,263L896,261L900,265L901,265L903,266L905,268L906,268L908,270L909,271L911,273L913,275L916,275L918,276L921,278L919,276L923,278L924,280L928,281L926,280L929,281L931,283L933,283L934,285L936,285L938,285L939,286L938,286L941,286L943,288L944,288L946,290L948,290L951,291L949,291L954,293L956,295L959,296L958,295L961,298L963,298L964,300L966,301L968,303L971,305L973,305L976,306L974,306L978,308L979,310L984,311L983,311L981,310" fill="none" stroke="#000000" style="-webkit-tap-highlight-color: rgba(0, 0, 0, 0); stroke-linecap: round; stroke-linejoin: round; stroke-width: 5;" /><path d="M984,313L986,313L989,315L987,315L991,316L989,316L992,318L994,318L996,319L997,319L1001,321L999,321L1004,323L1002,321L1006,323L1007,323L1009,324L1011,324L1012,324L1014,324L1017,326L1016,326L1019,328L1021,328L1022,329L1024,329" fill="none" stroke="#000000" style="-webkit-tap-highlight-color: rgba(0, 0, 0, 0); stroke-linecap: round; stroke-linejoin: round; stroke-width: 5;" /><path d="M773.39,107.05L773,105L775,106L783,108L777,107L778,120L782,124L785,125L788,127L793,129L797,130L803,132L802,130L807,134L810,134L812,135L815,139L817,140L818,142L820,144L823,145L828,147L825,147L835,150L831,149L840,154L838,152L843,155L845,155L846,157L848,158L850,160L850,162L853,165L851,163L855,167L856,168L860,172L858,170L866,173L863,172L865,173L868,175L871,177L878,178L875,177L870,175L880,178L883,178L886,180L888,180L891,182L898,185L895,183L893,183L901,188L906,192L900,187L903,190L913,197L908,193L911,195L914,198L916,200L918,200L923,203L921,202L924,205L931,212L926,207L929,208L934,213L939,217L941,218L936,215L943,218L944,220L948,222L946,222L949,222L949,223" fill="none" stroke="#000000" style="-webkit-tap-highlight-color: rgba(0, 0, 0, 0); stroke-linecap: round; stroke-linejoin: round; stroke-width: 5;" /><path d="M951,223L954,225L953,225L956,227L958,228L959,228L963,230L964,232L971,235L968,233L966,232L973,236L974,238L978,240L976,238L979,241L981,243L983,243L983,245L984,245L986,246L987,248L987,246L989,248L991,250L992,250L994,251L996,251L996,253L997,255" fill="none" stroke="#000000" style="-webkit-tap-highlight-color: rgba(0, 0, 0, 0); stroke-linecap: round; stroke-linejoin: round; stroke-width: 5;" /><path d="M879.61,178.41" fill="none" stroke="#000000" style="-webkit-tap-highlight-color: rgba(0, 0, 0, 0); stroke-linecap: round; stroke-linejoin: round; stroke-width: 5;" /><path d="M999,255L1001,256L1002,256L1006,258L1004,258L1009,260L1007,260L1011,261L1012,261L1014,261L1016,263L1017,263L1021,265L1019,263L1022,265" fill="none" stroke="#000000" style="-webkit-tap-highlight-color: rgba(0, 0, 0, 0); stroke-linecap: round; stroke-linejoin: round; stroke-width: 5;" /><path d="M878,177" fill="none" stroke="#000000" style="-webkit-tap-highlight-color: rgba(0, 0, 0, 0); stroke-linecap: round; stroke-linejoin: round; stroke-width: 5;" /><path d="M1022,266L1024,268" fill="none" stroke="#000000" style="-webkit-tap-highlight-color: rgba(0, 0, 0, 0); stroke-linecap: round; stroke-linejoin: round; stroke-width: 5;" /><path d="M878,178L880,180L880,183L880,182L880,185L880,190L880,195L880,188L880,192L880,200L880,197L880,202L880,205L880,215L880,210L880,207L880,212L880,218L880,220L880,223L880,217L880,225L880,227L881,227L881,228L881,230L881,235L881,233L881,232L881,236" fill="none" stroke="#000000" style="-webkit-tap-highlight-color: rgba(0, 0, 0, 0); stroke-linecap: round; stroke-linejoin: round; stroke-width: 5;" /><path d="M883,238L883,240L883,241L885,243L885,245L885,243L883,243L883,245L883,248L885,248L883,246L886,248L888,248" fill="none" stroke="#000000" style="-webkit-tap-highlight-color: rgba(0, 0, 0, 0); stroke-linecap: round; stroke-linejoin: round; stroke-width: 5;" /><path d="M836.46,254.76L843,248L840,251L848,246L851,243L853,243L855,243L850,243L848,243L846,241L846,240L845,238L845,236L838,233L843,235L836,233L831,235L833,233L841,233L840,233L830,236L828,238L828,241L827,243L822,248L820,250L825,245L823,246L817,253L818,251L815,255L815,258L813,261L813,260L815,263L817,266L818,270L822,276L820,273L823,278L827,281L828,283L825,281L828,285L830,286L833,288L831,288L833,290L836,291L835,290L836,293L838,293L836,296L838,296L838,295L836,298L836,300L836,303L836,301L836,305" fill="none" stroke="#000000" style="-webkit-tap-highlight-color: rgba(0, 0, 0, 0); stroke-linecap: round; stroke-linejoin: round; stroke-width: 5;" /><path d="M836,310L836,308L836,306L836,311L836,313L836,315L836,316L836,318L835,323L836,319L835,321L835,324L835,326L828,338L833,339L833,339L833,339L833,339L833,339L833,339L833,339L833,339" fill="none" stroke="#000000" style="-webkit-tap-highlight-color: rgba(0, 0, 0, 0); stroke-linecap: round; stroke-linejoin: round; stroke-width: 5;" /><path d="M872.97,281.31" fill="none" stroke="#000000" style="-webkit-tap-highlight-color: rgba(0, 0, 0, 0); stroke-linecap: round; stroke-linejoin: round; stroke-width: 5;" /><path d="M833,339L833,339L833,339L833,339" fill="none" stroke="#000000" style="-webkit-tap-highlight-color: rgba(0, 0, 0, 0); stroke-linecap: round; stroke-linejoin: round; stroke-width: 5;" /><path d="M873,283L871,283L870,286L870,288L870,290L870,291L868,296L868,295L868,300L866,303L865,308L866,305L865,311L863,313L863,316L863,321L863,318L863,323L861,326L861,328L861,329L861,331L861,333L861,336L861,334L861,338L861,339L860,341L860,343L860,344L860,348L860,346L860,349L860,353L860,351" fill="none" stroke="#000000" style="-webkit-tap-highlight-color: rgba(0, 0, 0, 0); stroke-linecap: round; stroke-linejoin: round; stroke-width: 5;" /><path d="M860,356L860,354L860,358L861,358L861,356" fill="none" stroke="#000000" style="-webkit-tap-highlight-color: rgba(0, 0, 0, 0); stroke-linecap: round; stroke-linejoin: round; stroke-width: 5;" /><path d="M569.26,112.03L566,110L564,110L563,114L561,115L561,119L558,125L559,122L556,129L556,132L554,135L554,139L553,142L551,145L551,150L549,154L548,158L546,162L544,170L546,167L544,175L543,178L543,182L544,185L544,188L546,190L548,195L546,192L549,197L549,198L551,202L553,203L553,207L554,210L554,213L554,212L556,215L556,218L558,222L558,220L558,223L559,225L559,227L559,230L559,232L559,233L559,235L559,240L559,238L559,243" fill="none" stroke="#000000" style="-webkit-tap-highlight-color: rgba(0, 0, 0, 0); stroke-linecap: round; stroke-linejoin: round; stroke-width: 5;" /><path d="M559,245L556,278L558,248L558,251L558,256L556,260L556,280L556,265L556,281L556,283L556,286L556,285L556,268L556,288L556,273L556,271L556,290L556,276L558,290L558,291L558,293L558,295L559,296L559,298L559,300L559,303L558,306L559,301L559,305L556,305L556,306L565.94,294.59L564,290L561,293L563,291L559,293L559,295L558,295L559,296L563,298L566,298L571,301L568,300L574,303L578,305L581,310L579,308L584,315L583,311L584,316L586,318L588,323L586,321L588,324L588,326L589,328L589,331L589,329L591,333L594,334L592,334L596,336L594,336L597,338L599,338L599,339L601,341L602,343L602,344L604,344L604,346L606,348L606,349L607,349L607,351L609,353L612,356L609,354L614,358L616,359L619,359L621,361L624,363L626,364L627,366L629,368L629,369L631,371L631,373L632,374L632,373L634,374L634,376L637,379L636,378L639,379L641,381L644,384L642,383L642,384L646,386L649,389L651,389L647,388L652,391L654,393L657,396L652,393L656,394L657,397L664,407L666,409L661,402L659,399L669,409L667,409L670,411L672,411L674,412L675,412L677,412" fill="none" stroke="#000000" style="-webkit-tap-highlight-color: rgba(0, 0, 0, 0); stroke-linecap: round; stroke-linejoin: round; stroke-width: 5;" /><path d="M679,412L679,414L662,406L661,404L680,414L682,414L684,416L682,416L685,416L685,417L687,417L689,417L689,419L690,421L692,422L694,424L694,426L695,427L699,431L697,429L700,431L702,429" fill="none" stroke="#000000" style="-webkit-tap-highlight-color: rgba(0, 0, 0, 0); stroke-linecap: round; stroke-linejoin: round; stroke-width: 5;" /><path d="M351.84,264.71L355,263L352,265L352,266L354,266L355,268L358,268L363,270L368,271L380,273L375,273L385,273L390,275L393,275L398,275L402,276L405,276L407,276L410,276L415,276L412,276L417,276L418,276L422,278L423,278L427,278L428,278L433,278L436,278L443,278L440,278L445,278L448,278L461,276L461,276L461,276L462,277L470,276L465,277L468,277L471,275L471,275L496,285L496,285L496,285L496,285L500,285L500,285L500,285L500,285L500,285L500,285L513,283L516,283L519,283" fill="none" stroke="#000000" style="-webkit-tap-highlight-color: rgba(0, 0, 0, 0); stroke-linecap: round; stroke-linejoin: round; stroke-width: 5;" /><path d="M521,285L524,285L526,286L529,286L533,288L534,288L538,288L541,288L544,290L548,291L554,291L551,291L558,291L556,291L559,291L561,291" fill="none" stroke="#000000" style="-webkit-tap-highlight-color: rgba(0, 0, 0, 0); stroke-linecap: round; stroke-linejoin: round; stroke-width: 5;" /><path d="M403.29,304.54L400,305L397,305L398,305L395,305L398,305L403,305L422,306L420,310L427,306L428,305L429,302L446,310L443,308L455,311L450,310L460,313L465,315L468,315L476,315L473,315L471,315L481,316L490,316L486,316L478,316L493,316L500,316L503,316L496,316L508,316L511,316L516,318L513,316L523,319L519,318L526,321" fill="none" stroke="#000000" style="-webkit-tap-highlight-color: rgba(0, 0, 0, 0); stroke-linecap: round; stroke-linejoin: round; stroke-width: 5;" /><path d="M531,321L534,323L541,323L538,323L543,324L548,324L546,324L549,324L551,324L558,323L554,324L556,323L561,323" fill="none" stroke="#000000" style="-webkit-tap-highlight-color: rgba(0, 0, 0, 0); stroke-linecap: round; stroke-linejoin: round; stroke-width: 5;" /><path d="M413.25,326.12" fill="none" stroke="#000000" style="-webkit-tap-highlight-color: rgba(0, 0, 0, 0); stroke-linecap: round; stroke-linejoin: round; stroke-width: 5;" /><path d="M563,323L566,323L568,323L569,323L571,323L573,323" fill="none" stroke="#000000" style="-webkit-tap-highlight-color: rgba(0, 0, 0, 0); stroke-linecap: round; stroke-linejoin: round; stroke-width: 5;" /><path d="M420,318L420,318L420,318L420,318L422,318L422,318L423,317L422,318L438,329L441,329L450,331L453,331L446,331L456,331L466,331L465,331L460,331L470,331L473,331L485,334L476,333L481,334L490,334L496,336L493,336L498,336L500,336L508,336L501,336L505,336L511,336L519,338L514,338L523,338L526,338L531,338L528,338" fill="none" stroke="#000000" style="-webkit-tap-highlight-color: rgba(0, 0, 0, 0); stroke-linecap: round; stroke-linejoin: round; stroke-width: 5;" /><path d="M534,336L533,338L538,336L539,336L541,336L546,336L544,336L554,336L556,336L558,336L561,336L563,336L548,336L566,336L568,336L549,336L571,336L573,336L578,336L574,336L579,336L551,336" fill="none" stroke="#000000" style="-webkit-tap-highlight-color: rgba(0, 0, 0, 0); stroke-linecap: round; stroke-linejoin: round; stroke-width: 5;" /><path d="M454.74,351.01" fill="none" stroke="#000000" style="-webkit-tap-highlight-color: rgba(0, 0, 0, 0); stroke-linecap: round; stroke-linejoin: round; stroke-width: 5;" /><path d="M553,336L581,336L586,338L584,338L588,338L591,338L592,336L594,336L597,334L596,336L599,334L599,336" fill="none" stroke="#000000" style="-webkit-tap-highlight-color: rgba(0, 0, 0, 0); stroke-linecap: round; stroke-linejoin: round; stroke-width: 5;" /><path d="M456,351L458,351L460,351L463,353L470,353L478,353L486,353L493,353L511,353L500,351L506,351L516,353L526,353L523,353L519,353L529,354L534,354L539,354L531,354L538,354L546,356L549,356L553,358L543,356" fill="none" stroke="#000000" style="-webkit-tap-highlight-color: rgba(0, 0, 0, 0); stroke-linecap: round; stroke-linejoin: round; stroke-width: 5;" /><path d="M556,358L563,359L558,358L561,359L574,359L566,359L569,359L571,359L578,359L583,359L579,359L584,359L586,359L592,359L588,359L589,359L597,359L599,359L596,359L594,359L601,359L606,361L609,361L604,361L611,361L619,363L614,361L616,361" fill="none" stroke="#000000" style="-webkit-tap-highlight-color: rgba(0, 0, 0, 0); stroke-linecap: round; stroke-linejoin: round; stroke-width: 5;" /><path d="M499.55,379.23" fill="none" stroke="#000000" style="-webkit-tap-highlight-color: rgba(0, 0, 0, 0); stroke-linecap: round; stroke-linejoin: round; stroke-width: 5;" /><path d="M621,363L621,364" fill="none" stroke="#000000" style="-webkit-tap-highlight-color: rgba(0, 0, 0, 0); stroke-linecap: round; stroke-linejoin: round; stroke-width: 5;" /><path d="M498,381L496,381L495,381L496,381L500,381L503,381L510,381L518,381L534,381L526,381L543,381L561,379L568,379L553,379L573,379L576,379L584,379L581,379L589,379L596,379L599,379L592,379L602,379" fill="none" stroke="#000000" style="-webkit-tap-highlight-color: rgba(0, 0, 0, 0); stroke-linecap: round; stroke-linejoin: round; stroke-width: 5;" /><path d="M609,379L606,379L612,378L617,378L621,378L624,378L627,378L629,378L632,378L634,378L637,378L639,378L636,378" fill="none" stroke="#000000" style="-webkit-tap-highlight-color: rgba(0, 0, 0, 0); stroke-linecap: round; stroke-linejoin: round; stroke-width: 5;" /><path d="M537.72,404.12" fill="none" stroke="#000000" style="-webkit-tap-highlight-color: rgba(0, 0, 0, 0); stroke-linecap: round; stroke-linejoin: round; stroke-width: 5;" /><path d="M639,376" fill="none" stroke="#000000" style="-webkit-tap-highlight-color: rgba(0, 0, 0, 0); stroke-linecap: round; stroke-linejoin: round; stroke-width: 5;" /><path d="M534,404L533,404L531,404L541,404L536,404L549,404L561,404L573,404L581,404L588,404L592,404L597,404L602,406L607,406L611,406L614,406L616,406L619,404L622,404L626,404L629,404L632,402L636,402L641,404L637,402L642,404L649,404L646,404L651,404L654,404" fill="none" stroke="#000000" style="-webkit-tap-highlight-color: rgba(0, 0, 0, 0); stroke-linecap: round; stroke-linejoin: round; stroke-width: 5;" /><path d="M656,404L659,402L661,402L662,402L664,402L666,402L667,401L669,401L672,401L670,401" fill="none" stroke="#000000" style="-webkit-tap-highlight-color: rgba(0, 0, 0, 0); stroke-linecap: round; stroke-linejoin: round; stroke-width: 5;" /><path d="M101.24,365.95L101,369L100,373L98,396L98,389L98,401L98,383L100,378L98,406L103,419L101,416L103,422L100,411L103,426L103,431L101,434L103,429L101,439L101,441L101,436L101,444L101,447L101,449L103,452L103,454L103,456L105,461L103,457L105,462" fill="none" stroke="#000000" style="-webkit-tap-highlight-color: rgba(0, 0, 0, 0); stroke-linecap: round; stroke-linejoin: round; stroke-width: 5;" /><path d="M105,467L105,464L105,471L105,472L105,475L105,480L105,477L105,484L103,492L103,489L103,497" fill="none" stroke="#000000" style="-webkit-tap-highlight-color: rgba(0, 0, 0, 0); stroke-linecap: round; stroke-linejoin: round; stroke-width: 5;" /><path d="M21.58,429.02" fill="none" stroke="#000000" style="-webkit-tap-highlight-color: rgba(0, 0, 0, 0); stroke-linecap: round; stroke-linejoin: round; stroke-width: 5;" /><path d="M103,500L103,512L103,517L103,505L103,522L103,529L103,534L103,532L103,535L96,550L94,548L99,552L99,552" fill="none" stroke="#000000" style="-webkit-tap-highlight-color: rgba(0, 0, 0, 0); stroke-linecap: round; stroke-linejoin: round; stroke-width: 5;" /><path d="M93,547" fill="none" stroke="#000000" style="-webkit-tap-highlight-color: rgba(0, 0, 0, 0); stroke-linecap: round; stroke-linejoin: round; stroke-width: 5;" /><path d="M18,429" fill="none" stroke="#000000" style="-webkit-tap-highlight-color: rgba(0, 0, 0, 0); stroke-linecap: round; stroke-linejoin: round; stroke-width: 5;" /><path d="M96,550" fill="none" stroke="#000000" style="-webkit-tap-highlight-color: rgba(0, 0, 0, 0); stroke-linecap: round; stroke-linejoin: round; stroke-width: 5;" /><path d="M17,429L28,431L23,431L37,431L20,431L55,427L60,426L61,426L46,429L66,426L80,426L76,426L71,426L93,429L85,427L90,429L88,427L98,431L95,431L96,431L101,431" fill="none" stroke="#000000" style="-webkit-tap-highlight-color: rgba(0, 0, 0, 0); stroke-linecap: round; stroke-linejoin: round; stroke-width: 5;" /><path d="M220.73,586.68L217,587L216,587L214,587L212,587L234,602L216,590L241,605L219,592L251,612L247,608L222,595L229,598L256,615L269,620L259,617L264,618L277,623L272,622L282,627L285,628L289,631L294,633L297,636L302,638L305,640L309,643L317,646L314,645L322,650L320,648L324,650L327,650L329,651L332,651L335,653L340,655L344,656" fill="none" stroke="#000000" style="-webkit-tap-highlight-color: rgba(0, 0, 0, 0); stroke-linecap: round; stroke-linejoin: round; stroke-width: 5;" /></svg>