<?xml version="1.0" encoding="utf-8" ?>
<svg baseProfile="full" height="736" version="1.1" width="1024" xmlns="http://www.w3.org/2000/svg" xmlns:ev="http://www.w3.org/2001/xml-events" xmlns:xlink="http://www.w3.org/1999/xlink"><defs /><path d="M522.86,11.76L521.05,11.76L521.05,9.95L521.05,8.14L519.24,8.14L517.43,9.95L517.43,11.76L517.43,13.57L515.62,13.57L515.62,15.38L515.62,17.19L515.62,19L515.62,20.81L515.62,22.61L515.62,24.42L515.62,26.23L515.62,28.04L515.62,29.85L515.62,31.66L515.62,33.47L515.62,35.28L515.62,37.09L515.62,38.9L515.62,40.71L515.62,42.52L515.62,44.33L515.62,46.13L515.62,47.94L515.62,49.75L515.62,51.56L515.62,53.37L515.62,55.18L515.62,56.99L515.62,58.8L517.43,58.8L519.24,60.61L521.05,62.42L522.86,62.42L524.66,64.23L526.47,64.23L528.28,64.23L530.09,64.23L533.71,64.23L535.52,64.23L537.33,64.23L539.14,64.23L540.95,64.23L540.95,66.04L540.95,67.84L540.95,69.65L539.14,69.65L539.14,71.46L539.14,73.27L537.33,75.08L537.33,76.89L537.33,78.7L537.33,80.51L535.52,82.32L535.52,84.13L535.52,85.94L535.52,87.75L535.52,89.55L535.52,91.36L535.52,93.17L535.52,96.79L535.52,98.6L535.52,100.41L535.52,102.22L537.33,104.03L537.33,105.84L537.33,107.65L537.33,109.46L537.33,111.27L539.14,113.07L539.14,116.69L540.95,118.5L540.95,120.31L540.95,122.12L542.76,123.93L542.76,125.74L542.76,127.55L542.76,129.36L544.57,129.36L544.57,131.17L544.57,132.98L546.37,132.98L546.37,134.78L546.37,136.59L544.57,138.4L544.57,140.21L539.14,147.45L537.33,149.26L535.52,152.88L533.71,154.69L533.71,158.3L533.71,160.11L531.9,163.73L531.9,167.35L531.9,169.16L531.9,172.78L531.9,174.59L531.9,178.2L530.09,180.01L530.09,183.63L528.28,185.44L528.28,189.06L526.47,190.87L526.47,194.49L524.66,196.3L524.66,198.11L524.66,201.72L524.66,203.53L524.66,205.34L524.66,207.15L524.66,208.96L524.66,210.77L524.66,212.58L524.66,214.39L524.66,216.2L524.66,218.01L524.66,219.82L524.66,221.63L524.66,223.43L522.86,225.24L522.86,227.05L522.86,228.86L522.86,230.67L522.86,232.48L524.66,234.29L524.66,236.1L524.66,239.72L524.66,241.53L526.47,243.34L526.47,245.14L526.47,248.76L526.47,250.57L526.47,252.38L526.47,254.19L528.28,257.81L528.28,259.62L528.28,261.43L528.28,265.05L528.28,266.86L528.28,270.47L528.28,274.09L528.28,275.9L528.28,279.52L528.28,283.14L526.47,292.18L526.47,295.8L526.47,299.42L526.47,303.04L526.47,306.66L526.47,310.28L526.47,312.08L526.47,315.7L526.47,319.32L524.66,321.13L524.66,324.75L524.66,328.37L524.66,331.99L522.86,335.6L522.86,339.22L521.05,342.84L521.05,346.46L521.05,350.08L521.05,351.89L521.05,353.7L521.05,355.51L521.05,357.31L521.05,359.12L521.05,360.93L521.05,362.74L521.05,364.55L521.05,366.36L521.05,369.98L521.05,371.79L521.05,373.6L521.05,377.22L521.05,379.02L521.05,380.83L521.05,382.64L519.24,384.45L519.24,386.26L519.24,388.07L519.24,391.69L519.24,397.12L517.43,400.73L517.43,406.16L517.43,409.78L515.62,415.21L515.62,418.83L513.81,422.45L513.81,427.87L513.81,431.49L513.81,435.11L513.81,436.92L513.81,438.73L513.81,440.54L513.81,442.35L513.81,444.16L513.81,445.96L512,447.77L512,449.58L512,451.39L510.19,458.63L508.38,460.44L508.38,464.06L506.57,467.67L506.57,473.1L504.76,474.91L504.76,478.53L504.76,480.34L504.76,482.15L504.76,483.96L506.57,485.77L506.57,487.58L506.57,489.39L506.57,491.19L506.57,493L506.57,494.81L506.57,496.62L506.57,494.81" fill="none" stroke="#000000" style="-webkit-tap-highlight-color: rgba(0, 0, 0, 0); stroke-linecap: round; stroke-linejoin: round; stroke-width: 5;" /><path d="M528.28,13.57L528.28,15.38L526.47,15.38L526.47,17.19L524.66,17.19L524.66,15.38L524.66,13.57L526.47,11.76L528.28,8.14L531.9,6.33L539.14,4.52L544.57,4.52L551.8,4.52L557.23,4.52L562.66,4.52L568.08,4.52L573.51,4.52L578.94,4.52L582.56,6.33L586.18,6.33L591.6,8.14L595.22,9.95L598.84,11.76L604.27,13.57L609.7,13.57L615.12,15.38L622.36,15.38L629.6,17.19L635.02,19L640.45,19L645.88,20.81L651.31,20.81L656.73,22.61L662.16,22.61L667.59,24.42L673.02,24.42L678.45,24.42L683.87,26.23L687.49,26.23L692.92,28.04L698.35,28.04L703.77,29.85L707.39,29.85L712.82,29.85L716.44,31.66L721.87,31.66L727.29,33.47L732.72,33.47L736.34,35.28L739.96,35.28L743.58,37.09L747.19,37.09L750.81,38.9L754.43,38.9L756.24,38.9L758.05,38.9L761.67,38.9L765.29,38.9L767.1,40.71L770.71,40.71L772.52,40.71L772.52,42.52L774.33,42.52L774.33,44.33L774.33,46.13L774.33,47.94L776.14,49.75L776.14,51.56L776.14,53.37L776.14,56.99L776.14,58.8L776.14,62.42L776.14,64.23L776.14,67.84L776.14,69.65L774.33,71.46L774.33,73.27L774.33,76.89L774.33,78.7L774.33,82.32L774.33,84.13L774.33,87.75L772.52,89.55L772.52,93.17L772.52,96.79L772.52,98.6L772.52,102.22L772.52,104.03L772.52,107.65L774.33,111.27L774.33,114.88L774.33,120.31L774.33,123.93L774.33,125.74L774.33,129.36L774.33,132.98L774.33,136.59L774.33,138.4L774.33,140.21L774.33,143.83L776.14,145.64L776.14,149.26L776.14,151.07L776.14,152.88L776.14,154.69L776.14,158.3L776.14,161.92L776.14,167.35L776.14,170.97L776.14,176.4L774.33,181.82L774.33,185.44L774.33,189.06L776.14,192.68L776.14,198.11L777.95,203.53L777.95,208.96L777.95,214.39L777.95,218.01L777.95,223.43L777.95,228.86L777.95,232.48L777.95,237.91L777.95,241.53L777.95,245.14L777.95,248.76L777.95,250.57L777.95,254.19L777.95,256L777.95,259.62L777.95,263.24L776.14,266.86L776.14,270.47L774.33,274.09L774.33,277.71L774.33,279.52L774.33,281.33L774.33,283.14L776.14,284.95L776.14,286.76L776.14,288.57L776.14,290.37L776.14,293.99L776.14,295.8L776.14,299.42L776.14,303.04L776.14,308.47L774.33,312.08L774.33,315.7L774.33,319.32L774.33,324.75L774.33,330.18L774.33,335.6L774.33,339.22L774.33,344.65L774.33,348.27L774.33,355.51L772.52,360.93L770.71,368.17L770.71,373.6L768.9,380.83L768.9,384.45L768.9,389.88L768.9,393.5L770.71,398.93L770.71,402.54L772.52,407.97L772.52,413.4L772.52,417.02L774.33,420.64L774.33,424.25L774.33,427.87L774.33,429.68L774.33,433.3L774.33,435.11L774.33,436.92L774.33,440.54L774.33,442.35L774.33,444.16L774.33,445.96L774.33,447.77L774.33,449.58L774.33,451.39L774.33,455.01L774.33,458.63L774.33,460.44L774.33,462.25L774.33,465.87L774.33,467.67L774.33,471.29L774.33,474.91L772.52,478.53L772.52,482.15L770.71,483.96L770.71,487.58L770.71,491.19L770.71,494.81L770.71,496.62L770.71,500.24L770.71,502.05L770.71,503.86L770.71,500.24" fill="none" stroke="#000000" style="-webkit-tap-highlight-color: rgba(0, 0, 0, 0); stroke-linecap: round; stroke-linejoin: round; stroke-width: 5;" /><path d="M609.7,73.27L611.51,73.27L611.51,75.08L611.51,76.89L611.51,78.7L611.51,80.51L611.51,82.32L611.51,84.13L609.7,85.94L609.7,87.75L609.7,89.55L607.89,93.17L607.89,96.79L606.08,100.41L604.27,104.03L604.27,111.27L602.46,116.69L602.46,122.12L602.46,127.55L602.46,132.98L602.46,136.59L600.65,142.02L600.65,147.45L598.84,151.07L597.03,154.69L597.03,158.3L597.03,160.11L597.03,163.73L595.22,165.54L595.22,169.16L593.41,172.78L593.41,174.59L593.41,176.4L591.6,180.01L591.6,181.82L591.6,183.63L591.6,187.25L591.6,189.06L591.6,190.87L591.6,192.68L591.6,196.3L591.6,198.11L591.6,203.53L591.6,207.15L591.6,210.77L591.6,214.39L591.6,218.01L591.6,223.43L591.6,227.05L589.8,232.48L589.8,236.1L589.8,239.72L589.8,245.14L589.8,248.76L589.8,254.19L589.8,257.81L589.8,261.43L589.8,265.05L589.8,268.66L589.8,272.28L589.8,275.9L587.99,279.52L587.99,283.14L587.99,286.76L587.99,292.18L587.99,295.8L587.99,299.42L587.99,303.04L587.99,306.66L587.99,310.28L587.99,313.89L587.99,315.7L589.8,319.32L589.8,321.13L589.8,324.75L589.8,328.37L589.8,333.8L589.8,337.41L589.8,341.03L587.99,342.84L587.99,344.65L587.99,348.27L586.18,351.89L586.18,355.51L586.18,357.31L587.99,360.93L587.99,364.55L587.99,368.17L589.8,371.79L589.8,373.6L589.8,377.22L591.6,380.83L591.6,382.64L591.6,386.26L591.6,389.88L591.6,393.5L591.6,397.12L591.6,400.73L591.6,404.35L591.6,406.16L591.6,409.78L591.6,411.59L591.6,415.21L591.6,418.83L591.6,422.45L591.6,426.06L591.6,429.68L591.6,431.49L591.6,435.11L591.6,438.73L591.6,442.35L591.6,445.96L589.8,449.58L589.8,453.2L587.99,456.82L587.99,458.63L587.99,462.25L587.99,465.87L586.18,469.48L586.18,473.1L586.18,474.91L586.18,478.53L586.18,480.34L586.18,483.96L586.18,487.58L586.18,493L586.18,496.62L586.18,500.24L586.18,502.05L586.18,503.86L586.18,505.67L587.99,509.29L587.99,511.1L587.99,512.9L587.99,514.71L587.99,512.9" fill="none" stroke="#000000" style="-webkit-tap-highlight-color: rgba(0, 0, 0, 0); stroke-linecap: round; stroke-linejoin: round; stroke-width: 5;" /><path d="M625.98,73.27L624.17,71.46L622.36,71.46L620.55,69.65L616.93,69.65L613.31,69.65L611.51,69.65L609.7,69.65L607.89,69.65L606.08,69.65L606.08,71.46L604.27,71.46L604.27,73.27L606.08,73.27L609.7,75.08L613.31,75.08L615.12,76.89L618.74,78.7L622.36,78.7L627.79,80.51L633.22,80.51L636.83,80.51L642.26,80.51L644.07,82.32L645.88,82.32L647.69,84.13L649.5,84.13L651.31,85.94L654.93,85.94L656.73,85.94L660.35,87.75L663.97,87.75L665.78,89.55L671.21,89.55L674.83,89.55L680.25,91.36L685.68,91.36L691.11,91.36L694.73,91.36L700.16,91.36L703.77,91.36L707.39,91.36L711.01,89.55L714.63,89.55L718.25,89.55L720.06,87.75L723.67,87.75L725.48,89.55L729.1,89.55L730.91,91.36L732.72,91.36L732.72,93.17L734.53,93.17L736.34,94.98L738.15,94.98L738.15,96.79L738.15,98.6L738.15,104.03L736.34,109.46L734.53,116.69L732.72,122.12L732.72,127.55L732.72,132.98L732.72,136.59L734.53,140.21L734.53,142.02L736.34,145.64L738.15,149.26L738.15,154.69L738.15,161.92L738.15,169.16L736.34,174.59L736.34,180.01L734.53,185.44L734.53,190.87L734.53,196.3L732.72,199.92L732.72,205.34L732.72,208.96L734.53,212.58L734.53,216.2L734.53,218.01L736.34,219.82L736.34,221.63L738.15,223.43L738.15,227.05L738.15,230.67L738.15,234.29L738.15,236.1L738.15,237.91L738.15,241.53L738.15,245.14L738.15,250.57L738.15,254.19L738.15,257.81L738.15,263.24L739.96,266.86L739.96,272.28L739.96,279.52L741.77,284.95L741.77,288.57L743.58,293.99L743.58,299.42L743.58,303.04L743.58,308.47L743.58,313.89L743.58,317.51L743.58,321.13L741.77,324.75L741.77,328.37L741.77,331.99L741.77,333.8L741.77,337.41L739.96,341.03L739.96,344.65L739.96,350.08L739.96,353.7L739.96,357.31L739.96,359.12L741.77,362.74L741.77,366.36L741.77,369.98L741.77,375.41L741.77,380.83L741.77,384.45L741.77,389.88L743.58,395.31L743.58,400.73L743.58,404.35L743.58,409.78L743.58,411.59L743.58,415.21L743.58,417.02L743.58,420.64L743.58,422.45L743.58,426.06L743.58,429.68L743.58,433.3L743.58,436.92L743.58,438.73L743.58,440.54L743.58,442.35L743.58,444.16L743.58,447.77L743.58,451.39L743.58,455.01L743.58,460.44L743.58,465.87L743.58,469.48L741.77,471.29L739.96,471.29L738.15,473.1L736.34,473.1L736.34,474.91L739.96,476.72L741.77,476.72" fill="none" stroke="#000000" style="-webkit-tap-highlight-color: rgba(0, 0, 0, 0); stroke-linecap: round; stroke-linejoin: round; stroke-width: 5;" /><path d="M758.05,447.77L758.05,449.58L756.24,449.58L754.43,449.58L752.62,449.58L750.81,449.58L750.81,451.39L749,451.39L749,453.2L747.19,456.82L747.19,460.44L747.19,464.06L747.19,467.67L747.19,473.1L747.19,476.72L745.39,482.15L745.39,485.77L743.58,491.19L743.58,494.81L743.58,498.43L743.58,502.05L743.58,503.86L743.58,505.67L745.39,505.67L745.39,507.48L745.39,505.67L745.39,503.86" fill="none" stroke="#000000" style="-webkit-tap-highlight-color: rgba(0, 0, 0, 0); stroke-linecap: round; stroke-linejoin: round; stroke-width: 5;" /><path d="M582.56,507.48L580.75,505.67L578.94,503.86L580.75,503.86L580.75,505.67L582.56,505.67L586.18,507.48L587.99,507.48L593.41,509.29L598.84,509.29L606.08,511.1L611.51,511.1L618.74,511.1L624.17,511.1L629.6,509.29L633.22,509.29L636.83,507.48L640.45,507.48L644.07,507.48L645.88,507.48L649.5,507.48L653.12,505.67L658.54,505.67L662.16,505.67L667.59,505.67L671.21,505.67L674.83,503.86L680.25,503.86L683.87,503.86L687.49,503.86L691.11,503.86L694.73,503.86L696.54,503.86L700.16,503.86L705.58,505.67L709.2,505.67L712.82,505.67L716.44,505.67L720.06,505.67L723.67,505.67L727.29,505.67L730.91,505.67L734.53,505.67L736.34,505.67L738.15,505.67L739.96,505.67L738.15,505.67L739.96,505.67L741.77,503.86" fill="none" stroke="#000000" style="-webkit-tap-highlight-color: rgba(0, 0, 0, 0); stroke-linecap: round; stroke-linejoin: round; stroke-width: 5;" /><path d="M595.22,556.33L595.22,554.52L593.41,552.71L593.41,550.9L595.22,550.9L598.84,552.71L602.46,554.52L607.89,554.52L613.31,556.33L620.55,556.33L625.98,556.33L631.41,556.33L636.83,556.33L642.26,556.33L645.88,556.33L651.31,556.33L654.93,556.33L660.35,556.33L663.97,556.33L669.4,558.13L674.83,558.13L680.25,558.13L683.87,558.13L687.49,558.13L691.11,556.33L692.92,556.33L696.54,556.33L700.16,554.52L705.58,554.52L709.2,552.71L714.63,552.71L720.06,552.71L727.29,554.52L732.72,554.52L739.96,554.52L745.39,554.52L749,554.52L752.62,552.71L756.24,552.71L759.86,552.71L761.67,552.71L763.48,552.71L765.29,552.71L768.9,552.71L770.71,552.71L772.52,552.71L776.14,552.71L777.95,552.71L781.57,552.71L785.19,552.71L788.81,550.9L792.42,550.9L797.85,550.9L801.47,550.9L805.09,550.9L808.71,550.9L812.33,550.9L815.94,550.9L819.56,550.9L823.18,550.9L824.99,552.71L826.8,552.71L826.8,550.9L826.8,549.09" fill="none" stroke="#000000" style="-webkit-tap-highlight-color: rgba(0, 0, 0, 0); stroke-linecap: round; stroke-linejoin: round; stroke-width: 5;" /><path d="M616.93,594.32L615.12,594.32L613.31,596.13L611.51,596.13L611.51,597.94L613.31,599.75L613.31,601.55L613.31,603.36L615.12,603.36L616.93,603.36L620.55,599.75L622.36,597.94L627.79,594.32L631.41,592.51L635.02,588.89L638.64,585.27L642.26,583.46L645.88,581.65L649.5,579.84L651.31,578.04L653.12,576.23L654.93,576.23L656.73,576.23L656.73,574.42L654.93,574.42L653.12,574.42L649.5,574.42L644.07,574.42L638.64,572.61L631.41,572.61L627.79,572.61L624.17,572.61L620.55,570.8L618.74,570.8L616.93,570.8L615.12,570.8L613.31,570.8L611.51,570.8L609.7,570.8L609.7,572.61L607.89,574.42L606.08,576.23L606.08,578.04L606.08,579.84L607.89,581.65L609.7,583.46L611.51,585.27L613.31,587.08L613.31,588.89L613.31,590.7L613.31,592.51L615.12,592.51L615.12,594.32L615.12,596.13L613.31,596.13L613.31,597.94L613.31,599.75L615.12,601.55L615.12,603.36L615.12,605.17L616.93,608.79L616.93,610.6L616.93,612.41L616.93,614.22L616.93,616.03L616.93,617.84L616.93,619.65L616.93,621.46L616.93,623.27L616.93,621.46" fill="none" stroke="#000000" style="-webkit-tap-highlight-color: rgba(0, 0, 0, 0); stroke-linecap: round; stroke-linejoin: round; stroke-width: 5;" /><path d="M584.37,545.47L584.37,547.28L586.18,549.09L586.18,552.71L587.99,554.52L589.8,558.13L591.6,561.75L593.41,563.56L595.22,565.37L598.84,567.18L600.65,567.18L602.46,567.18" fill="none" stroke="#000000" style="-webkit-tap-highlight-color: rgba(0, 0, 0, 0); stroke-linecap: round; stroke-linejoin: round; stroke-width: 5;" /><path d="M528.28,617.84L528.28,619.65L526.47,619.65L526.47,621.46L524.66,623.27L530.09,623.27L537.33,621.46L544.57,619.65L551.8,617.84L555.42,616.03L560.85,616.03L564.47,616.03L568.08,616.03L571.7,616.03L575.32,616.03L578.94,616.03L580.75,616.03L584.37,616.03L587.99,616.03L591.6,617.84L595.22,619.65L597.03,619.65L600.65,621.46L602.46,623.27L604.27,623.27L606.08,625.07L609.7,626.88L613.31,626.88L615.12,626.88L618.74,628.69L622.36,628.69L625.98,626.88L629.6,626.88L633.22,625.07L636.83,623.27L638.64,623.27L642.26,623.27L645.88,621.46L649.5,621.46L653.12,621.46L656.73,621.46L658.54,621.46L662.16,621.46L665.78,621.46L669.4,619.65L673.02,619.65L676.64,619.65L680.25,619.65L683.87,619.65L687.49,619.65L692.92,619.65L698.35,619.65L701.96,619.65L707.39,617.84L712.82,617.84L718.25,616.03L725.48,616.03L730.91,616.03L738.15,616.03L741.77,616.03L747.19,617.84L750.81,617.84L754.43,616.03L759.86,616.03L768.9,614.22L772.52,614.22L776.14,614.22L779.76,614.22L783.38,614.22L787,614.22L790.61,614.22L794.23,614.22L797.85,612.41L801.47,612.41L805.09,612.41L808.71,612.41L812.33,612.41L817.75,612.41L821.37,612.41L824.99,614.22L828.61,616.03L830.42,616.03L834.04,616.03L835.84,616.03L837.65,616.03L839.46,616.03L841.27,614.22L843.08,614.22L844.89,614.22L846.7,614.22L846.7,612.41L844.89,612.41L843.08,612.41L839.46,610.6L837.65,608.79L835.84,608.79L834.04,606.98L832.23,605.17L832.23,601.55L832.23,597.94L832.23,594.32L832.23,592.51L832.23,588.89L832.23,585.27L832.23,581.65L832.23,578.04L832.23,574.42L832.23,572.61L832.23,568.99L832.23,567.18L830.42,563.56L828.61,558.13L828.61,554.52L826.8,550.9L826.8,549.09L828.61,547.28L830.42,547.28L830.42,549.09L828.61,552.71L828.61,558.13" fill="none" stroke="#000000" style="-webkit-tap-highlight-color: rgba(0, 0, 0, 0); stroke-linecap: round; stroke-linejoin: round; stroke-width: 5;" /><path d="M834.04,616.03L832.23,614.22L830.42,612.41L828.61,610.6L828.61,608.79L830.42,608.79L832.23,608.79L835.84,610.6L839.46,610.6L844.89,610.6L850.32,610.6L855.75,610.6L861.17,612.41L866.6,614.22L868.41,616.03L870.22,619.65L872.03,623.27L872.03,626.88L872.03,628.69L872.03,632.31L872.03,635.93L872.03,637.74L870.22,641.36L870.22,643.17L868.41,646.78L868.41,648.59L868.41,650.4L868.41,652.21L868.41,654.02L868.41,655.83L870.22,657.64L872.03,659.45L872.03,663.07L873.84,664.88L873.84,668.49L873.84,672.11L872.03,673.92L872.03,677.54L870.22,679.35L868.41,681.16L864.79,682.97L861.17,682.97L857.55,682.97L855.75,682.97L852.13,682.97L850.32,682.97L846.7,682.97L841.27,682.97L835.84,684.78L830.42,684.78L824.99,684.78L821.37,684.78L815.94,684.78L810.52,684.78L806.9,684.78L799.66,684.78L794.23,686.59L788.81,686.59L781.57,688.4L776.14,688.4L770.71,690.2L765.29,690.2L761.67,690.2L759.86,692.01L758.05,692.01L754.43,692.01L750.81,693.82L747.19,693.82L745.39,693.82L743.58,693.82L741.77,693.82L739.96,693.82L738.15,693.82L736.34,693.82L734.53,693.82L732.72,693.82L730.91,693.82L729.1,693.82L727.29,695.63L725.48,695.63L723.67,695.63L720.06,697.44L716.44,697.44L712.82,699.25L709.2,699.25L703.77,701.06L698.35,701.06L692.92,702.87L685.68,702.87L680.25,704.68L674.83,704.68L667.59,706.49L660.35,706.49L654.93,706.49L647.69,708.3L642.26,708.3L636.83,708.3L633.22,708.3L629.6,708.3L625.98,708.3L624.17,708.3L620.55,708.3L618.74,708.3L615.12,708.3L611.51,710.11L607.89,710.11L602.46,710.11L598.84,711.92L593.41,711.92L589.8,713.72L586.18,713.72L582.56,715.53L580.75,715.53L580.75,713.72L580.75,711.92L582.56,710.11L584.37,708.3L586.18,706.49L587.99,706.49L589.8,704.68L589.8,701.06L589.8,699.25L591.6,697.44L591.6,693.82L591.6,690.2L591.6,684.78L591.6,681.16L591.6,675.73L591.6,670.3L591.6,666.69L589.8,661.26L589.8,657.64L589.8,654.02L589.8,652.21L591.6,650.4L589.8,648.59L587.99,648.59L586.18,648.59L584.37,650.4L582.56,650.4L580.75,650.4L577.13,650.4L573.51,650.4L568.08,650.4L562.66,650.4L557.23,648.59L553.61,646.78L549.99,644.98L548.18,643.17L546.37,643.17L542.76,641.36L539.14,639.55L537.33,637.74L533.71,635.93L531.9,634.12L530.09,634.12L528.28,632.31L526.47,630.5L524.66,630.5L524.66,628.69L522.86,628.69L521.05,628.69L519.24,628.69L519.24,630.5L517.43,630.5L517.43,632.31L517.43,634.12L515.62,635.93L515.62,637.74L515.62,641.36L513.81,644.98L513.81,648.59L513.81,652.21L512,655.83L512,659.45L510.19,663.07L510.19,666.69L508.38,670.3L508.38,672.11L506.57,675.73L506.57,677.54L508.38,677.54L510.19,677.54L513.81,677.54L515.62,679.35L521.05,679.35L526.47,679.35L531.9,679.35L537.33,681.16L540.95,684.78L544.57,686.59L548.18,692.01L551.8,695.63L553.61,699.25L557.23,701.06L559.04,702.87L560.85,702.87L562.66,702.87L569.89,702.87L575.32,702.87L578.94,704.68L584.37,706.49L587.99,706.49L589.8,708.3L587.99,706.49L586.18,708.3L584.37,708.3" fill="none" stroke="#000000" style="-webkit-tap-highlight-color: rgba(0, 0, 0, 0); stroke-linecap: round; stroke-linejoin: round; stroke-width: 5;" /><path d="M66.94,565.37L65.13,563.56L63.32,563.56L61.51,563.56L57.89,563.56L59.7,565.37L63.32,567.18L66.94,568.99L70.56,570.8L74.18,570.8L77.8,572.61L83.22,572.61L86.84,572.61L90.46,574.42L92.27,574.42L95.89,576.23L97.7,578.04L99.51,578.04L101.31,578.04L104.93,578.04L106.74,579.84L108.55,579.84L108.55,581.65L110.36,581.65L112.17,581.65L113.98,581.65L115.79,579.84L119.41,579.84L124.83,578.04L130.26,578.04L137.5,578.04L144.73,578.04L151.97,578.04L157.4,578.04L162.83,578.04L168.25,578.04L173.68,578.04L179.11,576.23L184.54,576.23L191.77,576.23L199.01,576.23L204.44,576.23L209.87,574.42L215.29,574.42L222.53,574.42L227.96,574.42L233.39,574.42L238.81,574.42L244.24,576.23L249.67,576.23L256.9,576.23L262.33,576.23L267.76,576.23L273.19,576.23L280.42,576.23L285.85,576.23L291.28,576.23L294.9,576.23L298.52,578.04L303.94,578.04L309.37,578.04L312.99,578.04L318.42,576.23L323.84,576.23L329.27,576.23L332.89,576.23L336.51,576.23L340.13,576.23L341.94,576.23L343.75,576.23L345.55,576.23L347.36,576.23L349.17,576.23L349.17,578.04L350.98,579.84L350.98,581.65L352.79,583.46L352.79,585.27L354.6,588.89L356.41,592.51L356.41,597.94L356.41,601.55L356.41,606.98L354.6,610.6L354.6,614.22L352.79,617.84L350.98,621.46L350.98,625.07L350.98,628.69L350.98,632.31L350.98,634.12L352.79,637.74L352.79,641.36L352.79,643.17L354.6,646.78L354.6,650.4L354.6,654.02L356.41,657.64L356.41,661.26L356.41,663.07L358.22,664.88L358.22,668.49L360.03,672.11L360.03,675.73L361.84,679.35L361.84,681.16L361.84,684.78L361.84,688.4L361.84,692.01L361.84,695.63L361.84,697.44L361.84,701.06L361.84,702.87L360.03,704.68L360.03,706.49L360.03,708.3L360.03,710.11L360.03,711.92L360.03,713.72L360.03,715.53L360.03,717.34L361.84,719.15L361.84,720.96L361.84,722.77L361.84,724.58L361.84,726.39L361.84,728.2L361.84,730.01L360.03,731.82L361.84,730.01L363.65,730.01" fill="none" stroke="#000000" style="-webkit-tap-highlight-color: rgba(0, 0, 0, 0); stroke-linecap: round; stroke-linejoin: round; stroke-width: 5;" /><path d="M106.74,583.46L104.93,583.46L103.12,583.46L103.12,587.08L103.12,590.7L103.12,594.32L103.12,599.75L103.12,606.98L103.12,614.22L103.12,619.65L103.12,626.88L104.93,632.31L106.74,639.55L108.55,644.98L108.55,650.4L108.55,655.83L108.55,659.45L108.55,663.07L110.36,666.69L112.17,670.3L113.98,673.92L113.98,677.54L113.98,681.16L113.98,684.78L113.98,688.4L113.98,690.2L113.98,692.01L112.17,695.63L112.17,699.25L110.36,702.87L108.55,706.49L108.55,711.92L106.74,715.53L104.93,719.15L104.93,722.77L104.93,724.58L104.93,726.39L104.93,728.2L106.74,730.01L108.55,730.01L110.36,731.82L112.17,731.82L115.79,731.82L117.6,731.82L123.02,730.01L126.64,728.2L133.88,728.2L141.12,726.39L148.35,726.39L155.59,726.39L161.02,726.39L166.45,726.39L171.87,728.2L177.3,728.2L182.73,728.2L189.96,730.01L197.2,730.01L204.44,730.01L209.87,730.01L215.29,730.01L222.53,730.01L231.58,730.01L238.81,730.01L244.24,730.01L251.48,730.01L258.71,730.01L265.95,731.82L271.38,731.82L278.61,733.63L282.23,735.43" fill="none" stroke="#000000" style="-webkit-tap-highlight-color: rgba(0, 0, 0, 0); stroke-linecap: round; stroke-linejoin: round; stroke-width: 5;" /><path d="M350.98,735.43L354.6,735.43L358.22,733.63L361.84,733.63L363.65,731.82L365.46,730.01L363.65,728.2L361.84,726.39" fill="none" stroke="#000000" style="-webkit-tap-highlight-color: rgba(0, 0, 0, 0); stroke-linecap: round; stroke-linejoin: round; stroke-width: 5;" /><path d="M75.99,583.46L74.18,583.46L72.37,581.65L70.56,579.84L68.75,581.65L66.94,581.65L65.13,583.46L65.13,587.08L65.13,588.89L65.13,592.51L65.13,597.94L66.94,603.36L68.75,608.79L70.56,614.22L72.37,621.46L72.37,626.88L72.37,632.31L72.37,637.74L72.37,643.17L72.37,648.59L72.37,654.02L72.37,661.26L70.56,668.49L68.75,673.92L66.94,677.54L66.94,681.16L66.94,684.78L66.94,688.4L68.75,690.2L68.75,693.82L70.56,695.63L70.56,697.44L70.56,695.63L70.56,693.82L70.56,692.01L70.56,690.2L68.75,690.2L66.94,690.2L63.32,688.4L57.89,688.4L47.04,688.4L37.99,688.4L28.95,688.4L21.71,688.4L18.09,690.2L14.47,690.2L12.66,690.2L10.86,688.4L9.05,688.4L7.24,688.4L5.43,688.4L5.43,690.2L7.24,692.01L9.05,692.01" fill="none" stroke="#000000" style="-webkit-tap-highlight-color: rgba(0, 0, 0, 0); stroke-linecap: round; stroke-linejoin: round; stroke-width: 5;" /><path d="M369.07,679.35L367.27,677.54L365.46,675.73L365.46,673.92L367.27,673.92L370.88,673.92L378.12,675.73L388.98,675.73L401.64,675.73L412.49,673.92L421.54,672.11L430.59,672.11L437.82,672.11L443.25,673.92L450.49,673.92L455.92,673.92L463.15,673.92L468.58,675.73L474.01,675.73L479.43,677.54L484.86,679.35L490.29,681.16L493.91,681.16L499.34,681.16L502.95,681.16L504.76,681.16L508.38,681.16L510.19,679.35L512,679.35L512,681.16L510.19,682.97L508.38,684.78" fill="none" stroke="#000000" style="-webkit-tap-highlight-color: rgba(0, 0, 0, 0); stroke-linecap: round; stroke-linejoin: round; stroke-width: 5;" /><path d="M882.88,666.69L881.07,668.49L881.07,670.3L882.88,672.11L884.69,672.11L886.5,673.92L891.93,675.73L895.55,675.73L900.98,675.73L908.21,675.73L913.64,677.54L919.07,677.54L924.49,677.54L931.73,677.54L937.16,679.35L942.59,681.16L946.2,682.97L949.82,684.78L953.44,686.59L957.06,688.4L960.68,690.2L964.3,692.01L967.92,693.82L971.53,695.63L975.15,695.63L978.77,695.63L982.39,693.82L986.01,693.82L989.63,693.82L991.43,692.01L993.24,692.01L995.05,692.01L993.24,692.01L993.24,693.82" fill="none" stroke="#000000" style="-webkit-tap-highlight-color: rgba(0, 0, 0, 0); stroke-linecap: round; stroke-linejoin: round; stroke-width: 5;" /><path d="M379.93,107.65L378.12,107.65L374.5,107.65L372.69,107.65L372.69,109.46L374.5,109.46L376.31,109.46L378.12,109.46L381.74,109.46L385.36,109.46L390.78,109.46L394.4,109.46L398.02,111.27L401.64,113.07L403.45,114.88L407.07,114.88L408.88,116.69L410.69,116.69L412.49,116.69L412.49,118.5L412.49,120.31L412.49,122.12L410.69,125.74L408.88,131.17L407.07,132.98L405.26,138.4L405.26,142.02L403.45,147.45L403.45,152.88L403.45,156.49L405.26,161.92L405.26,169.16L405.26,174.59L405.26,181.82L405.26,185.44L405.26,190.87L405.26,196.3L405.26,199.92L405.26,203.53L405.26,207.15L405.26,208.96L405.26,212.58L405.26,216.2L405.26,219.82L405.26,221.63L405.26,225.24L405.26,227.05L405.26,230.67L405.26,234.29L405.26,236.1L405.26,237.91L405.26,239.72L405.26,241.53L405.26,243.34L403.45,243.34L401.64,243.34L398.02,243.34L392.59,241.53L385.36,239.72L376.31,239.72L369.07,239.72L361.84,239.72L356.41,239.72L352.79,237.91L350.98,236.1L350.98,234.29L349.17,234.29L347.36,234.29L345.55,234.29L343.75,236.1L341.94,236.1L341.94,234.29L341.94,232.48L341.94,227.05L341.94,219.82L343.75,212.58L345.55,203.53L349.17,194.49L350.98,187.25L352.79,180.01L354.6,174.59L356.41,169.16L360.03,163.73L363.65,156.49L367.27,147.45L369.07,140.21L372.69,134.78L376.31,127.55L379.93,122.12L383.55,116.69L385.36,109.46L387.17,102.22L387.17,98.6L387.17,96.79L387.17,100.41L387.17,104.03L387.17,111.27" fill="none" stroke="#000000" style="-webkit-tap-highlight-color: rgba(0, 0, 0, 0); stroke-linecap: round; stroke-linejoin: round; stroke-width: 5;" /><path d="M90.46,359.12L92.27,357.31L94.08,357.31L95.89,357.31L97.7,357.31L95.89,359.12L95.89,360.93L94.08,362.74L95.89,362.74L99.51,362.74L103.12,360.93L108.55,359.12L112.17,359.12L117.6,359.12L119.41,359.12L123.02,360.93L124.83,364.55L126.64,368.17L128.45,369.98L130.26,373.6L132.07,375.41L133.88,377.22L135.69,379.02L137.5,380.83L139.31,380.83L142.93,380.83L144.73,379.02L148.35,377.22L150.16,375.41L153.78,375.41L157.4,373.6L161.02,371.79L164.64,371.79L170.06,371.79L175.49,369.98L180.92,369.98L186.35,369.98L191.77,369.98L195.39,369.98L200.82,368.17L206.25,368.17L211.67,368.17L217.1,368.17L222.53,368.17L226.15,368.17L229.77,368.17L235.19,368.17L240.62,368.17L246.05,368.17L251.48,368.17L258.71,369.98L264.14,371.79L269.57,371.79L273.19,371.79L278.61,371.79L282.23,371.79L285.85,371.79L291.28,371.79L296.71,371.79L302.13,369.98L307.56,369.98L309.37,369.98L311.18,369.98L309.37,369.98" fill="none" stroke="#000000" style="-webkit-tap-highlight-color: rgba(0, 0, 0, 0); stroke-linecap: round; stroke-linejoin: round; stroke-width: 5;" /><path d="M101.31,478.53L99.51,478.53L97.7,478.53L95.89,480.34L94.08,480.34L92.27,480.34L90.46,478.53L90.46,476.72L90.46,474.91L92.27,471.29L97.7,467.67L104.93,462.25L112.17,460.44L119.41,456.82L126.64,456.82L132.07,456.82L135.69,458.63L137.5,462.25L141.12,465.87L146.54,471.29L151.97,474.91L157.4,476.72L162.83,478.53L170.06,478.53L179.11,480.34L188.16,480.34L197.2,478.53L208.06,478.53L217.1,476.72L224.34,476.72L231.58,476.72L238.81,476.72L244.24,476.72L249.67,476.72L256.9,476.72L262.33,476.72L269.57,476.72L275,476.72L282.23,474.91L287.66,474.91L291.28,473.1L296.71,473.1L300.33,471.29L305.75,471.29L309.37,471.29L312.99,471.29L314.8,473.1L312.99,473.1" fill="none" stroke="#000000" style="-webkit-tap-highlight-color: rgba(0, 0, 0, 0); stroke-linecap: round; stroke-linejoin: round; stroke-width: 5;" /><path d="M132.07,371.79L128.45,371.79L124.83,371.79L123.02,371.79L121.22,371.79L119.41,373.6L119.41,375.41L119.41,377.22L119.41,380.83L119.41,388.07L119.41,397.12L119.41,407.97L121.22,418.83L121.22,429.68L121.22,440.54L123.02,449.58L123.02,458.63L123.02,467.67L123.02,476.72L124.83,485.77L124.83,493L123.02,500.24L123.02,507.48L123.02,511.1L123.02,516.52L123.02,520.14L124.83,521.95L124.83,525.57L126.64,531L126.64,536.42L128.45,545.47L130.26,558.13L130.26,565.37L132.07,568.99L132.07,570.8L132.07,568.99L133.88,563.56" fill="none" stroke="#000000" style="-webkit-tap-highlight-color: rgba(0, 0, 0, 0); stroke-linecap: round; stroke-linejoin: round; stroke-width: 5;" /><path d="M85.03,362.74L85.03,357.31L85.03,353.7L85.03,355.51L83.22,360.93L83.22,368.17L83.22,375.41L85.03,386.26L86.84,397.12L90.46,407.97L92.27,420.64L94.08,433.3L95.89,445.96L95.89,456.82L95.89,467.67L95.89,478.53L94.08,487.58L90.46,494.81L88.65,503.86L86.84,509.29L85.03,516.52L83.22,523.76L81.41,529.19L79.6,532.81L79.6,538.23L79.6,541.85L79.6,545.47L79.6,549.09L79.6,550.9L79.6,552.71L79.6,550.9L77.8,547.28L77.8,545.47" fill="none" stroke="#000000" style="-webkit-tap-highlight-color: rgba(0, 0, 0, 0); stroke-linecap: round; stroke-linejoin: round; stroke-width: 5;" /><path d="M320.23,369.98L320.23,368.17L318.42,366.36L316.61,366.36L314.8,366.36L312.99,366.36L311.18,366.36L309.37,366.36L307.56,368.17L307.56,369.98L305.75,371.79L305.75,375.41L305.75,379.02L305.75,382.64L305.75,389.88L305.75,397.12L305.75,404.35L305.75,411.59L303.94,418.83L303.94,426.06L303.94,431.49L302.13,436.92L302.13,444.16L302.13,449.58L302.13,455.01L302.13,460.44L302.13,465.87L302.13,471.29L303.94,476.72L305.75,480.34L307.56,485.77L307.56,493L309.37,498.43L309.37,505.67L309.37,511.1L307.56,516.52L307.56,520.14L307.56,523.76L309.37,525.57L309.37,527.38L311.18,531L312.99,532.81L314.8,534.61L316.61,536.42L316.61,538.23L318.42,541.85L320.23,545.47L320.23,547.28L320.23,550.9L320.23,554.52L320.23,556.33L320.23,559.94L318.42,561.75L316.61,559.94L316.61,558.13L314.8,556.33" fill="none" stroke="#000000" style="-webkit-tap-highlight-color: rgba(0, 0, 0, 0); stroke-linecap: round; stroke-linejoin: round; stroke-width: 5;" /></svg>