<?xml version="1.0" encoding="utf-8" ?>
<svg baseProfile="full" height="736" version="1.1" width="1024" xmlns="http://www.w3.org/2000/svg" xmlns:ev="http://www.w3.org/2001/xml-events" xmlns:xlink="http://www.w3.org/1999/xlink"><defs /><path d="M607.43,77.17L603,76L602,78L602,80L603,82L602,84L602,85L604,84L604,86L606,89L606,90L606,92L606,94L606,95L606,97L606,99L606,100L606,102L606,104L606,105L606,109L606,107L606,110L606,112L605,115L605,115L605,117L605,119L605,120L605,122L605,124L605,125L605,127L605,129L601,129L605,132L605,134L605,135L604,138L604,139L604,140L603,143L603,144L603,145L603,147L603,149L603,150L603,151L604,154L604,155L603,157L603,158L603,160L603,162L602,164L602,167L602,164L602,168L602,170L602,172L602,173L602,175L602,177L601,178L601,180L601,182L601,183L600,185L600,187L601,188L601,189L600,192L600,193L600,195L600,197L600,198L601,200L600,202L600,203L600,205L600,207L600,208L600,210L600,212L600,212L599,215L599,217L599,218L599,220L599,222L599,223L599,227L599,225L599,228L599,230L599,232L599,233L599,233L598,236L598,238L598,240L599,243L599,243L599,244L598,248L599,244L597,250L597,250L597,250L595,255L595,255L594,257L595,263L595,263L595,263L595,266L595,268L595,270L595,271L595,273L595,274L595,277L595,278L595,280L595,281L595,283L596,285L596,286L596,288L596,290L596,293L596,291L596,295L596,296L596,300L596,298L596,300L596,300L595,305L595,306L595,308L595,310L595,311L595,312L595,312L594,316L594,318L594,318L594,319L594,323L594,328L594,329L594,324L594,331L594,333L594,334L594,334L593,337L593,342L593,342L593,348L593,341L593,351L593,353L593,354L593,349L593,358L593,358L593,355L592,363L592,366L592,366L592,366L591,371L591,374L591,373L591,376L591,378L591,379L591,381L591,381L591,381L590,391L590,386L590,389L590,388L590,394L590,397L590,393L590,396L590,399L590,399L589,404L590,399L589,406L589,407L589,409L589,411L589,412L589,414L589,415L589,415L588,419L588,421L588,424L588,422L588,427L588,426L588,429L588,431L588,432L588,434L588,436L588,436L587,441L588,436L587,442L587,444L587,448L587,446L588,470L587,447L588,471L588,471L587,448L586,452L586,474L586,477L586,475L586,479L586,480L588,484L588,484L588,484L586,453L586,460L585,456L585,457L590,485L590,485L583,492L583,490L583,494L586,461L583,495L586,466L586,464L586,462L587,501L583,497L587,501L587,502L586,467L586,503L586,503L585,507L584,512L586,508L585,512L585,510L584,514L585,516L584,515L583,518L581,519L583,519L578,519L579,519L574,518L575,517L576,519L574,519L571,517L569,512L568,513L575,515L566,511L566,511L569,512L568,511L565,511L565,511L561,513L560,513L560,513L558,506L554,505L551,506L548,507L549,507L549,507L547,507L543,506L544,506L541,506L539,507L536,506L539,504L534,504L538,504L529,505L533,503L531,503" fill="none" stroke="#000000" style="-webkit-tap-highlight-color: rgba(0, 0, 0, 0); stroke-linecap: round; stroke-linejoin: round; stroke-width: 5;" /><path d="M527,503L526,505L524,505L521,506L524,505L518,503L519,504L514,501L516,503L512,500L512,500L511,502L508,500L511,502" fill="none" stroke="#000000" style="-webkit-tap-highlight-color: rgba(0, 0, 0, 0); stroke-linecap: round; stroke-linejoin: round; stroke-width: 5;" /><path d="M539.38,57.26L539,58L539,58L542,59L546,66L546,67L546,71L538,79L545,75L538,80L538,84L538,82L538,84L538,84L538,84L538,84L538,104L538,104L538,104L538,104L538,104L538,104L538,105L538,105L537,109L537,110L537,111L537,111L536,115L536,117L536,122L536,120L536,119L536,127L536,125L541,133L541,133L541,133L541,133L541,133L541,133L541,133L540,138L540,142L540,137L539,147L540,143L539,149L539,155L539,158L539,158L534,170L534,167L534,173L534,180L534,177L534,182L533,188L533,190L533,185L533,192L533,193L533,198L533,199L538,198L532,203L532,205L532,203L531,207L531,208L531,210L531,212L531,212L530,217L530,220L530,218L530,221L527,225L527,227L527,228L527,228L529,234L529,234L529,235L529,234L529,236L529,238L529,240L529,241L529,243L529,244L529,244L534,251L534,251L534,253L534,251L534,253L534,253L527,263L527,265L527,260L534,253L527,265L527,265L526,271L526,270L526,280L526,273L526,280L526,275L525,285L526,280L525,286L526,276L525,286L526,278L524,290L524,291L524,294L524,293L524,296L524,296L523,300L523,301L523,303L523,305L523,305L522,311L522,310L522,313L522,314L521,318L521,319L521,321L521,323L527,328L521,326L521,327L520,331L520,338L520,334L520,336L520,340L519,343L519,344L519,346L519,348L519,349L519,351L519,353L519,353L519,354L518,359L518,358L518,356L518,361L517,366L518,363L518,364L517,368L517,369L517,371L517,373L517,373L516,376L516,378L516,379L516,381L516,383L516,384L516,385L515,388L515,389L515,391L515,394L515,393L515,395L515,395L514,396L512,401L512,402L512,403L511,406L514,408L510,411L513,409L510,412L511,414L510,416L508,418L510,419L510,417L509,423L509,426L510,421L509,424L509,427L510,431L510,432L509,428L507,436L507,434L507,439L507,437L508,441L508,441L510,446L510,444L508,448L508,449L508,452L508,451L505,455L505,457L505,456L507,459L507,461L507,462L507,464L507,461L506,469L506,467L506,466L506,470L505,475L506,470L505,475L505,475L503,479L503,482L504,478L503,479L500,495L501,482L501,482L504,484L500,495L500,495L500,495L500,495L500,496L498,498L498,501L498,501L496,507L496,505L496,505L496,505" fill="none" stroke="#000000" style="-webkit-tap-highlight-color: rgba(0, 0, 0, 0); stroke-linecap: round; stroke-linejoin: round; stroke-width: 5;" /><path d="M495,506L496,509L496,509L496,512L496,513L496,513L498,514L498,512L499,510L501,507L501,507L501,509L501,507L499,510L501,509" fill="none" stroke="#000000" style="-webkit-tap-highlight-color: rgba(0, 0, 0, 0); stroke-linecap: round; stroke-linejoin: round; stroke-width: 5;" /><path d="M546.02,72.19L546,69L546,72L546,69L546,71L546,71L546,69L537,58L537,58L532,57L532,57L525,57L525,57L523,58L523,58L519,60L523,58L521,58L519,59L519,59L519,58L518,54L518,54L518,52L518,51L518,49L521,46L522,39L522,39L522,39L522,34L522,34L522,32L522,31" fill="none" stroke="#000000" style="-webkit-tap-highlight-color: rgba(0, 0, 0, 0); stroke-linecap: round; stroke-linejoin: round; stroke-width: 5;" /><path d="M522,29L522,27L522,25" fill="none" stroke="#000000" style="-webkit-tap-highlight-color: rgba(0, 0, 0, 0); stroke-linecap: round; stroke-linejoin: round; stroke-width: 5;" /><path d="M633.98,15.77L637,13L648,18L650,19L639,13L640,13L653,20L657,22L654,20L648,18L659,22L662,22L664,22L667,21L670,21L672,22L674,23L677,23L679,24L685,24L682,24L687,23L699,24L687,23L699,24L702,26L705,21L705,21L705,21L725,18L731,23L731,23L734,26L733,25L735,27L734,26L736,28L736,28L736,28L737,28L739,28L743,31L744,32L744,32L743,31L747,34L748,34L747,34L751,35L751,35L755,35L754,35L757,35L758,36L760,35L762,36L763,36L761,36L767,37L767,37L765,36" fill="none" stroke="#000000" style="-webkit-tap-highlight-color: rgba(0, 0, 0, 0); stroke-linecap: round; stroke-linejoin: round; stroke-width: 5;" /><path d="M768,37L773,38L770,37L772,38L775,38L775,38L775,38L783,40L783,40L786,41L787,42L783,40" fill="none" stroke="#000000" style="-webkit-tap-highlight-color: rgba(0, 0, 0, 0); stroke-linecap: round; stroke-linejoin: round; stroke-width: 5;" /><path d="M565.94,5.81L570,1L573,1L578,3L580,3L599,9L599,9L604,8L613,8L613,8L622,10L617,11L625,13" fill="none" stroke="#000000" style="-webkit-tap-highlight-color: rgba(0, 0, 0, 0); stroke-linecap: round; stroke-linejoin: round; stroke-width: 5;" /><path d="M631,10L632,10L631,10L631,10" fill="none" stroke="#000000" style="-webkit-tap-highlight-color: rgba(0, 0, 0, 0); stroke-linecap: round; stroke-linejoin: round; stroke-width: 5;" /><path d="M614.07,68.88L608,65L608,64L608,64L606,65L607,70L609,71L611,72L611,72L612,72L612,72L615,73L617,73L620,74L628,75L622,74L631,74L634,75L637,75L642,75L642,75L647,77L646,76L649,78L651,78L652,78L654,78L651,78L656,78L662,78L657,78L659,78L666,79L672,80L669,79L679,82L675,80L680,82L684,83L681,82L685,83L689,84L690,84L694,84L695,84L697,84L703,86L701,85L704,86L705,86L712,87L711,87L711,87L714,87L715,87L718,88L719,88L720,88L722,88L724,88L725,89L730,88L727,89L729,88L732,89L739,90L735,89L739,90L737,90L742,91L744,91L745,91L744,91L748,92L744,91L745,91L745,91L741,113L741,113L748,92L741,113L741,113L741,113L741,114L741,113L741,115L741,117L741,120L741,119" fill="none" stroke="#000000" style="-webkit-tap-highlight-color: rgba(0, 0, 0, 0); stroke-linecap: round; stroke-linejoin: round; stroke-width: 5;" /><path d="M741,122L741,124L741,125L741,127L741,130L741,129L741,134L741,132L741,135L741,137L740.2,128.62L741,139L741,140L741,141L741,141L741,140L741,140L741,137L741,134L741,127L741,129L741,130L741,139L741,132L741,135L740,144L739,150L740,145L740,146L739,154L739,162L739,158L739,155L739,165L738,172L738,168L738,169L738,173L738,175L738,175L738,175L738,181L738,182L738,183L738,187L738,185L738,188L738,190L738,192L737,196L737,197L737,196L737,198L737,201L737,205L737,203L737,202L737,207L737,208L736,214L736,214L737,210L736,215L736,217L736,220L736,218L736,222L736,226L736,228L736,232L736,223L736,232L736,238L736,235L736,235L735,241L736,244L735,242L736,244L737,250L737,250L737,250L738,255L738,256L738,261L738,256L737,264L737,264L736,268L736,268L736,268L736,268L736,268L736,275L736,274L736,276L737,281L736,276L737,280L737,283L735,289L735,289L735,289L735,289L735,289L735,289L735,289L737,298L737,298L737,300L737,298L737,301L737,303L737,306L736,310L736,310L737,315L737,318L738,321L737,326L737,328L737,329L737,329L738,333L738,334L733,337L738,341L733,337L733,337L738,342L738,342L738,347L738,349L738,346L729,356L732,357L732,357L732,357L732,357L733,359L732,360L732,360L732,360L738,369L738,369L738,368L738,374L738,377L738,379L738,378L738,383L738,386" fill="none" stroke="#000000" style="-webkit-tap-highlight-color: rgba(0, 0, 0, 0); stroke-linecap: round; stroke-linejoin: round; stroke-width: 5;" /><path d="M738,383L738,388L738,388L738,388L739,393L739,394L739,393L739,397L739,396L739,401L739,399L739,402L739,404L738,409L739,406L738,409L738,411L738,412L733,415L733,417L733,416L733,417L735,422L735,422L736,423L736,423L739,427L739,429L739,431L739,432L738,436L732,437L732,437L739,444L732,437L739,447L739,444L739,449L739,451L739,452L739,454L739,457L739,457L739,458L739,461L739,461L740,464L739,467L739,468L739,468L739,475L740,479L739,475L739,475L741,489L740,482L740,485L740,480L740,484L740,485L740,485" fill="none" stroke="#000000" style="-webkit-tap-highlight-color: rgba(0, 0, 0, 0); stroke-linecap: round; stroke-linejoin: round; stroke-width: 5;" /><path d="M773.39,53.94L775,38L783,40L775,38L775,38L783,40L783,40L786,54L786,54L786,54L786,55L786,62L786,55L786,62L786,64L784,72L784,72L786,64L784,72L784,76L784,72L784,74L784,77L784,77L784,81L784,82L784,84L784,85L783,89L783,90L783,92L783,94L782,97L782,99L782,101L782,100L780,105L783,103L780,107L780,109L781,111L781,112L781,114L781,115L780,117L781,119L781,120L781,122L781,124L781,125L781,127L781,129L782,131L782,131L781,133L782,134L782,134L782,134L782,134L784,135L784,135L770,150L780,163L780,163L770,150L780,163L780,163L780,163L780,163L780,165L780,168L780,167L780,170L780,170L780,170L781,171L780,170L781,171L773,171L773,171L768,180L773,189L773,189L773,189L774,190L773,189L774,192L774,190L774,192L774,192L780,198L774,192L779,201L770,203L770,203L770,205L770,207L770,207L769,210L769,212L769,213L768,217L769,215L769,213L768,218L768,218L772,222L772,222L772,222L772,225L774,232L773,227L773,230L774,233L772,235L773,238L772,235L772,239L773,241L772,245L773,243L771,251L771,248L772,245L771,250L771,253L771,254L772,257L772,257L773,261L771,260L773,262L770,264L770,268L771,265L770,269L770,272L770,272L772,275L772,276L772,278L772,279L772,281L772,283L773,285L773,285L774,288L773,290L773,290L772,292L774,295L774,296L774,298L774,300L775,301L775,303L774,306L775,304L774,308L774,310L774,311L774,315L774,313L774,316L776,318L776,318L776,322L776,322L774,324L775,328L774,326L775,329L775,336L775,331L775,334L775,332L775,338L776,344L776,344L775,339L772,346L773,349L773,351L773,348L773,353L772,358L773,354L772,356L772,359L772,361L772,363L772,364L772,366L770,366L771,370L770,373L770,371L770,373L770,378L772,377L771,375L772,381L771,380L773,383L773,384L772,388L772,386L772,389L772,391L771,397L771,393L771,394L771,397L771,401L771,399L770,405L771,402L770,405L768,411L770,407L770,407L771,413L771,414L771,416L770,417L770,419L770,421L771,424L770,421L771,426L771,431L770,428L769,427L771,432L768,437L771,435L771,434L771,440L771,441L771,442L771,442L772,444L772,446L773,449L772,447L771,451L771,452L772,454L773,456L772,457L772,459L772,461L772,464L772,462" fill="none" stroke="#000000" style="-webkit-tap-highlight-color: rgba(0, 0, 0, 0); stroke-linecap: round; stroke-linejoin: round; stroke-width: 5;" /><path d="M772,466L772,466L772,469L771,471L771,474L771,474L771,472L770,477L774,479L773,482L774,480L772,484L772,485L772,486L768,489L772,489L768,490L770,494L770,494L769,493L768,495L768,497L768,498L769,500L769,502L768,505L768,505L745.18,500.38" fill="none" stroke="#000000" style="-webkit-tap-highlight-color: rgba(0, 0, 0, 0); stroke-linecap: round; stroke-linejoin: round; stroke-width: 5;" /><path d="M747,504L762,506L744,503L765,505L743.52,495.4L768,505L754,506L770,505L748,504" fill="none" stroke="#000000" style="-webkit-tap-highlight-color: rgba(0, 0, 0, 0); stroke-linecap: round; stroke-linejoin: round; stroke-width: 5;" /><path d="M757,504L773,508L768,506L748,495L757,495L752,494L762,495L763,494L766,499L763,501L765,496" fill="none" stroke="#000000" style="-webkit-tap-highlight-color: rgba(0, 0, 0, 0); stroke-linecap: round; stroke-linejoin: round; stroke-width: 5;" /><path d="M590.83,507.02L588,508L585,507L585,507L582,506L581,507L582,505L582,504L587,502L589,501L592,503L597,504L601,503L603,503L607,503L611,504L614,504L617,504L621,504L622,504L627,504L626,504L632,504L629,504L634,504L637,504L639,504L641,504L641,504L644,503L646,503L649,503L654,503L651,503L656,503L658,503L661,502L662,502L666,502L667,502L670,502L672,502L675,502L679,502L680,502L684,502L685,502L687,502L689,502L690,502L692,502L695,502L697,502L699,501L700,501L703,500L702,501L705,501L707,501L709,501L710,501L715,501L714,501L717,501L719,501" fill="none" stroke="#000000" style="-webkit-tap-highlight-color: rgba(0, 0, 0, 0); stroke-linecap: round; stroke-linejoin: round; stroke-width: 5;" /><path d="M720,501L722,501L724,501L725,501L725,501L729,502L734,502L730,502L732,502L735,502L740,501L739,501L738,501L742,498L747,496L744,499L747,496L744,499L748,495" fill="none" stroke="#000000" style="-webkit-tap-highlight-color: rgba(0, 0, 0, 0); stroke-linecap: round; stroke-linejoin: round; stroke-width: 5;" /><path d="M584.19,525.28L582,524L579,523L579,523L582,524L584,525L584,525L589,525L594,524L601,524L606,524L610,524L614,521L618,522L617,522L622,521L626,522L631,521L633,521L629,521L633,521L644,524L640,522L644,524L640,522L646,525L653,522L653,522L646,525L656,522L659,522L666,522L659,522L633.98,523.62L640,522L640,522L647,518L647,516L640,518L649,517L652,518L641,521L654,518L642,518L656,519L656,519L659,519L662,521L662,521L666,522L669,522L669,522L667,521L672,522L674,520L673,522L677,519L679,520L680,519L684,520L682,520L684,520L688,520L688,520L692,520L694,520L699,519L694,520L706,519L700,519L707,519L708,519L714,522L717,519L717,519L722,517L727,514L736,515L737,514L739,515L740,515L742,515L743,515L745,515L747,515L747,515L752,515L753,515L755,514L756,513L757,512L761,511L761,511L761,511L761,511L761,511L773,508L773,508L773,508L773,508L773,508L773,508L773,508L785,504" fill="none" stroke="#000000" style="-webkit-tap-highlight-color: rgba(0, 0, 0, 0); stroke-linecap: round; stroke-linejoin: round; stroke-width: 5;" /><path d="M785,504L787,505L787,505L788,505L788,505L787,505" fill="none" stroke="#000000" style="-webkit-tap-highlight-color: rgba(0, 0, 0, 0); stroke-linecap: round; stroke-linejoin: round; stroke-width: 5;" /><path d="M378.4,115.35L377,112L379,114L379,119L378,120L378,121L377,123L377,123L375,126L374,129L374,130L374,132L374,134L374,135L373,139L373,137L373,140L372,144L373,140L372,145L372,147L371,150L372,148L371,152L371,154L370,157L370,158L371,154L370,158L369,162L368,165L368,168L367,172L367,174L364,180L365,176L364,182L364,183L364,185L364,188L363,190L362,192L362,193L361,199L361,199L362,195L361,202L360,206L358,210L358,210L354,213L353,213L354,217L353,213L354,218L349,222L350,223L349,222L350,225L350,225L353,227L350,225L356,230L356,230L358,231L361,231L358,231L362,231L362,231L362,231L362,231L366,231L367,231L368,231L368,231L368,231L368,231L375,247L379,247L379,247L383,236L395,232L395,232L395,232L395,232L395,232L397,236L397,236L397,236L398,235L401,238L398,237L401,238L403,236L403,236L410,238L410,238L410,238L412,238L413,236L414,235L414,235L414,233L414,232L413,225L411,228L412,231L413,225L413,222L413,220L413,222L414,217L414,217L414,215L415,211L415,211L414,199L415,210L415,209L415,209L414,198L414,205L414,195L414,193L414,191L414,203L417,185L418,183L417,185L414,203L417,176L416,168L416,172L417,174L416,166L416,166L422,151L415,160L422,151L422,151L423,150L422,151L423,149L424,147L424,145L424,144L423,141L423,138L422,138L424,134L425,131L424,135L420,125L422,123L423,122L422,117L422,117L420,116L421,116L421,116L419,116L419,116L419,116L419,116L419,116L420,116L420,116L419,116L420,116L419,116L410,116L410,116L415,117L410,116L406,114L402,113L404,113L398,111L398,111L393,112L393,112" fill="none" stroke="#000000" style="-webkit-tap-highlight-color: rgba(0, 0, 0, 0); stroke-linecap: round; stroke-linejoin: round; stroke-width: 5;" /><path d="M391,113L387,112L387,112L385,111L383,112L378,113L382,112L380,114L378,113L378,113L379,114" fill="none" stroke="#000000" style="-webkit-tap-highlight-color: rgba(0, 0, 0, 0); stroke-linecap: round; stroke-linejoin: round; stroke-width: 5;" /><path d="M102.9,351.01L95,347L97,358L104,358L104,358L104,362L106,363L109,366L111,366L113,370L114,370L119,368L118,366L121,366L124,365L128,364L133,364L135,364L135,364L149,369L143,368L144,368L149,369L149,369L149,369L149,369L161,368L174,358L172,357L172,357L174,358L181,356L193,369L174,358L193,369L195,369L193,369L202,370L197,370L206,367L211,368L216,365L221,366L226,366L233,366L234,366L234,366L240,371L240,371L248,369L249,369L252,369L253,369L270,369L253,369L270,369L270,369L274,368L276,368L274,368L277,368L277,368L277,368L281,371L281,371L287,373L293,372L293,372L298,369L295,371L297,368L300,369L302,369L302,369L304,369L302,365L302,365L302,365L302,360L302,360L293,352L292,351L302,360L300,354" fill="none" stroke="#000000" style="-webkit-tap-highlight-color: rgba(0, 0, 0, 0); stroke-linecap: round; stroke-linejoin: round; stroke-width: 5;" /><path d="M290,350L289,349L299,354L297,353L287,347L285,348L294,352L295,353L285,346L283,344L282,342L283,344L281,341L279,338L277,339L277,339L276,339L271,335L273,338L272,338L271,335L263,333L263,333L261,333L259,333L256,334L248,331L254,332L247,331L245,332L242,333L199.16,337.74L193,338L196,337L193,338L191,338L190,338L186,335L190,338L184,335L177,338L177,338L175,339L174,339L172,341L170,341L168,342L167,342L163,342L163,342L159,339L155,341L155,341L153,342L151,342L154,342L148,341L148,341L148,341L145,345L136,342L135,344L134,344L129,344L122,343L120,352L119,352L119,352L114,354L114,354L114,354L110,356L106,357L105,357L105,357L95,347L95,347L95,347L96,358L97,358L95,358L87,352L95,358" fill="none" stroke="#000000" style="-webkit-tap-highlight-color: rgba(0, 0, 0, 0); stroke-linecap: round; stroke-linejoin: round; stroke-width: 5;" /><path d="M87,352L87,352L86,353L84,356L84,356L80,357L81,358L83,358L83,360" fill="none" stroke="#000000" style="-webkit-tap-highlight-color: rgba(0, 0, 0, 0); stroke-linecap: round; stroke-linejoin: round; stroke-width: 5;" /><path d="M195.84,339.4L194,336L199,338L197,337L200,338L202,338L209,338L206,338L214,338L210,337L215,339L218,340L221,339L220,339L222,339L225,338L226,338L227,337L228,337L233,335L234,335L233,335L236,336L237,336L239,336L241,336L241,336L245,336L246,336L247,336L249,336L250,335L255,334L250,335L256,334" fill="none" stroke="#000000" style="-webkit-tap-highlight-color: rgba(0, 0, 0, 0); stroke-linecap: round; stroke-linejoin: round; stroke-width: 5;" /><path d="M255,334L250,335" fill="none" stroke="#000000" style="-webkit-tap-highlight-color: rgba(0, 0, 0, 0); stroke-linecap: round; stroke-linejoin: round; stroke-width: 5;" /><path d="M119.49,364.29L119,368L119,369L119,370L120,374L119,376L121,379L121,383L121,383L121,388L121,386L121,389L121,391L121,394L122,396L121,393L122,397L122,404L122,404L123,406L123,407L122,398L122,398L124,409L124,410L125,414L125,416L125,412L125,417L126,421L126,419L128,422L127,425L127,426L127,427L128,429L128,431L128,431L128,436L128,434L126,438L126,441L125,444L126,449L125,445L124,451L124,452L125,455L125,461L125,461L125,455L124,464L123,466L119,469L120,467L119,469L119,474L119,474L119,477L119,475L122,480L122,482L122,480L123,484L122,486L121,490L122,487L121,492L121,489L121,497L121,495L121,498L118,502L119,503L120,505L120,508L120,507L120,511L117,512L115,513L114,515L114,517L114,517L116,520L114,519L113,520L113,525L113,527L113,525" fill="none" stroke="#000000" style="-webkit-tap-highlight-color: rgba(0, 0, 0, 0); stroke-linecap: round; stroke-linejoin: round; stroke-width: 5;" /><path d="M112,530L112,529L114,532L114,533L115,534L115,534L114,535L112,539L112,540L112,541L121,545L121,545L122,549L122,550L122,550L122,550L114,561L122,550L114,561L114,561L114,564L114,562L114,563L113,567L113,567L113,567L113,567L113,567L113,567L113,567L113,567" fill="none" stroke="#000000" style="-webkit-tap-highlight-color: rgba(0, 0, 0, 0); stroke-linecap: round; stroke-linejoin: round; stroke-width: 5;" /><path d="M116.18,384.21L111,378L113,381L110,374L108,373L108,369L109,368L108,366L108,365L106,363L104,362L102,361L104,358L101,361L97,358L97,358L97,358L95,361L95,366L95,366L98,368L98,373L97,378L98,381L102,384L97,387L97,387L94,395L94,397L94,396L96,400L96,402L97,407L97,407L96,403L96,408L96,411L96,412L96,412L96,414L99,418L96,416L99,419L100,421L100,422L97,431L97,428L97,428L98,434L98,442L99,439L97,437L98,444L98,446L98,446L98,449L98,451L104,456L100,451L100,451L104,459L104,460L97,469L104,460L97,469L103,477L98,472L103,477L103,477L103,478L104,480L106,485L106,484L105,490L98,495L97,485L105,490L98,495L98,497L98,500L98,500L95,505L98,502L95,505L95,505L97,508L93,511L93,511L93,511L90,512L90,512L96,516L84,540L83,541L83,541L83,541L82,545L83,544L83,544L83,546L90,528L96,516L85,549L90,528L85,549L85,549L85,549L90,529L86,537L86,537L85,549L86,557L86,557L86,557L80,561L81,561L80,561L86,557L81,561L81,561" fill="none" stroke="#000000" style="-webkit-tap-highlight-color: rgba(0, 0, 0, 0); stroke-linecap: round; stroke-linejoin: round; stroke-width: 5;" /><path d="M293.76,367.61L293,372L289,373L287,373L287,373L290,378L292,380L293,380L295,388L294,389L297,396L300,396L298,398L300,402L299,406L299,406L300,409L300,410L300,410L298,421L296,420L298,421L300,422L300,422L299,424L300,426L300,426L302,428L302,431L302,431L302,431L297,440L297,440L297,443L297,443L296,449L297,451L298,454L300,456L298,462L298,463L301,468L299,467L301,470L301,470L304,472L305,478L305,479L304,480L304,482L303,483L303,486L304,489L303,486L306,492L306,492L306,492L312,496L313,498L312,496L313,498L313,504L314,501L312,506L313,504L312,507L314,509L314,510L313,512L315,513L315,518L315,515L317,521L315,519L319,527L317,521L317,524L317,524L319,529L319,530L320,529L320,532L319,534L322,537L321,539L322,537L322,537L324,542L324,542L324,544L325,544L324,548L324,547L323,551L323,550L324,554L324,555L324,558L329,555L325,564L324,558L327,565L324,563" fill="none" stroke="#000000" style="-webkit-tap-highlight-color: rgba(0, 0, 0, 0); stroke-linecap: round; stroke-linejoin: round; stroke-width: 5;" /><path d="M325,566L325,565L324,568L324,569L324,569L324,569L324,569L324,569L324,582L324,569L324,569" fill="none" stroke="#000000" style="-webkit-tap-highlight-color: rgba(0, 0, 0, 0); stroke-linecap: round; stroke-linejoin: round; stroke-width: 5;" /><path d="M119.49,563.45L114,563L114,563L113,567L114,564L113,567L114,564L114,564L114,564L132,570L132,570L135,568L132,570L135,568L138,568L141,567L143,567L143,567L143,567L148,572L149,572L153,570L153,570L153,570L153,570L159,573L161,573L162,573L168,571L168,571L168,571L168,571L169,571L171,571L173,571L174,571L174,571L174,571L174,571L187,565L187,565L189,563L189,563L188,564L192,563L196,558L196,558L192,563L196,558L196,558L196,558L196,558L202,553L216,562L216,562L216,562L216,562L219,562L216,562L216,563L229,567L220,563L220,563L221,561L229,567L231,566L231,566L231,566L242,563L235,568L242,563L242,563L242,563L244,562L246,563L247,563L249,564L248,563L250,563L250,563L254,562L254,562L259,567L259,567L261,567L261,567L266,567L265,567L269,568L271,568L272,568L274,567L276,568L277,568L277,568L283,568L281,567L284,568L285,568L289,570L288,570L290,570L292,570L293,570L295,570L297,570L299,570L299,570L299,570L305,568L305,568" fill="none" stroke="#000000" style="-webkit-tap-highlight-color: rgba(0, 0, 0, 0); stroke-linecap: round; stroke-linejoin: round; stroke-width: 5;" /><path d="M305,568L305,568L305,568L305,568L318,566L318,566L320,567L320,567L324,569L324,569L324,569L324,569L324,569L326,568L326,568L326,568L324,569L325,582L324,569" fill="none" stroke="#000000" style="-webkit-tap-highlight-color: rgba(0, 0, 0, 0); stroke-linecap: round; stroke-linejoin: round; stroke-width: 5;" /><path d="M86.3,555.15L86,558L94,562L89,560L98,562L104,563L106,564L109,565L109,565" fill="none" stroke="#000000" style="-webkit-tap-highlight-color: rgba(0, 0, 0, 0); stroke-linecap: round; stroke-linejoin: round; stroke-width: 5;" /><path d="M111,564L114,564L113,564L63.07,566.77L80,561L66,567L81,563L84,567L84,567L87,568L91,569L96,572L95,571L96,572L96,572L96,572L98,572L101,572L100,572L103,572L105,572L105,572L105,572L105,572L105,572L105,572L113,567L113,567L113,567L113,567L132,574L132,574L132,574L132,574L132,574L133,575L133,575L134,575L134,575L134,575L134,575L142,573" fill="none" stroke="#000000" style="-webkit-tap-highlight-color: rgba(0, 0, 0, 0); stroke-linecap: round; stroke-linejoin: round; stroke-width: 5;" /><path d="M144,573L144,573L143,573L144,573L154,574L154,574L154,574L155,574" fill="none" stroke="#000000" style="-webkit-tap-highlight-color: rgba(0, 0, 0, 0); stroke-linecap: round; stroke-linejoin: round; stroke-width: 5;" /><path d="M338.57,575.07L337,579L334,579L324,569L334,579L324,569L324,569L320,567L317,584L317,584L317,584L299,570L305,568L305,568L299,570L299,570L297,570L299,570L295,570L293,570L288,571L292,570L287,571L281,578L280,578L281,578L279,578L276,579L268,584L273,582L269,582L268,584L254,583L268,584L256,583L252,583L251,582L249,582L249,580L247,580L244,567L215,580L215,580L215,580L244,567L212,580L244,567L212,580L212,580L212,580L244,567L212,580L212,580L193,574" fill="none" stroke="#000000" style="-webkit-tap-highlight-color: rgba(0, 0, 0, 0); stroke-linecap: round; stroke-linejoin: round; stroke-width: 5;" /><path d="M244,567L244,567L244,567" fill="none" stroke="#000000" style="-webkit-tap-highlight-color: rgba(0, 0, 0, 0); stroke-linecap: round; stroke-linejoin: round; stroke-width: 5;" /><path d="M193,574L193,574L235,570L193,574L193,574L235,570L193,574L234,570L189,574L232,570L191,574L231,570L188,574L229,569L186,574L184,574L183,574L179,574L181,574L177,574L176,574L175,574L175,574L171,573L168,573L169,573L166,573L164,574L155,574L161,573L159,573L154,574L144,573L149,572L148,572L143,573L142,573L134,575L133,575L142,573L132,574" fill="none" stroke="#000000" style="-webkit-tap-highlight-color: rgba(0, 0, 0, 0); stroke-linecap: round; stroke-linejoin: round; stroke-width: 5;" /><path d="M132,574L132,574L113,567L113,567L105,572L113,567L113,567L105,572L105,572L105,572L105,572L103,572L105,572L101,572L101,572L100,572L96,572L100,572L98,572L91,569L96,572L95,571L91,569L88,568L91,569L87,568L87,568L91,569L95,571" fill="none" stroke="#000000" style="-webkit-tap-highlight-color: rgba(0, 0, 0, 0); stroke-linecap: round; stroke-linejoin: round; stroke-width: 5;" /><path d="M323.63,571.75L320,567L320,567L320,567L318,566L320,567L326,568L331,567L334,567L339,569L337,568L342,570L344,571L346,572L347,574L348,575L350,576L351,577L353,577L354,578L355,580L355,581L356,582L357,585L357,585L358,587L358,591L358,591L358,591L361,595L361,595L362,598L362,600L362,602L362,603L362,605L362,608L362,610L358,614L359,616L358,614L360,618L359,621L358,626L359,624L359,625L359,629L358,632L358,632L360,636L360,638L360,640L360,641L360,644L360,643L359,650L359,646L359,649L360,653L360,655L360,656L359,660L362,661L362,663L361,666L361,668L362,664L361,671L362,676L361,673L362,679L361,685L361,681L362,690L361,686L362,692L362,690L362,696L362,695L361,697L362,705L362,700L362,701L362,706L362,708L362,708L362,708L362,708L362,708L362,724L362,708L362,724L358,725L358,725" fill="none" stroke="#000000" style="-webkit-tap-highlight-color: rgba(0, 0, 0, 0); stroke-linecap: round; stroke-linejoin: round; stroke-width: 5;" /><path d="M357,725L357,725L357,725L357,725L353,727L357,725L357,725" fill="none" stroke="#000000" style="-webkit-tap-highlight-color: rgba(0, 0, 0, 0); stroke-linecap: round; stroke-linejoin: round; stroke-width: 5;" /><path d="M94.6,573.41L96,572L96,572L100,592L99,599L99,599L100,592L102,605L102,605L100,593L102,609L102,609L99,598L103,611L104,615L99,597L104,615L102,625L102,625L102,625L102,625L102,625L102,625L102,625L101,644L101,644L101,644L101,644L101,644L101,644L101,645L101,645L101,647L101,647L101,647L101,647L101,647L96,660L95,663L95,666L93,670L93,673L93,675L93,676L93,680L93,685L93,681L93,683L93,686L93,688L92,700L92,700L92,700L92,700L93,701L93,701L93,703L93,701L93,703L93,703" fill="none" stroke="#000000" style="-webkit-tap-highlight-color: rgba(0, 0, 0, 0); stroke-linecap: round; stroke-linejoin: round; stroke-width: 5;" /><path d="M92,706L92,706L91,708L92,706L91,708L91,708L91,708L91,708L100,723L100,724L100,721L100,726L100,724L100,723L121.15,717.8L118,719L115,719L116,719L113,719L110,721L111,721L108,721L106,721L110,721L113,721L119,721L126,721L141,726L141,726L147,725L152,726L167,721L168,721L172,723L174,722L174,722L177,731L192,715L191,728L193,728L194,728L196,728L199,728L197,728L201,728L206,728L202,728L204,728L209,728L220,732L220,732L220,732L220,732L221,731L221,731L221,731L222,731L224,731L227,728L229,729L232,731L234,730L237,729L241,728L249,727L251,727L254,727L255,727L260,726L260,726L260,726L260,726L272,723L274,723L275,723L277,723L277,723L277,723L277,723L277,723L277,723L285,719L285,719L301,731L301,731L301,731L301,731L302,731L304,731L308,733L307,733L310,732L313,734L314,734L315,734L316,734L316,734L321,731L324,734L324,734L327,732L325,732L331,733L331,733" fill="none" stroke="#000000" style="-webkit-tap-highlight-color: rgba(0, 0, 0, 0); stroke-linecap: round; stroke-linejoin: round; stroke-width: 5;" /><path d="M332,734L334,730L339,728L334,730L339,728L342,727L348,726L343,727L349,726L352,727L353,727L358,725L362,727L357,725L358,725" fill="none" stroke="#000000" style="-webkit-tap-highlight-color: rgba(0, 0, 0, 0); stroke-linecap: round; stroke-linejoin: round; stroke-width: 5;" /><path d="M74.68,568.43L81,563L65,565L80,561L63,567L68,565L61,570L61,568L66,565L60,572L60,573L60,577L60,575L61,578L63,585L65,587L61,582L65,590L66,592L68,597L68,595L70,600L71,605L71,602L73,608L63,621L63,621L63,621L63,621L75,622L75,625L75,623L63,621L75,627L63,622L63,622L63,622L62,623L61,624L71,638L60,625L70,641L70,645L70,640L70,643L70,646L70,648L68,648L68,650L68,651L68,655L68,653L68,656L68,658" fill="none" stroke="#000000" style="-webkit-tap-highlight-color: rgba(0, 0, 0, 0); stroke-linecap: round; stroke-linejoin: round; stroke-width: 5;" /><path d="M70,660L70,663L70,661L70,665L70,668L70,666L70,670L70,671L68,673L68,675L68,676L68,678L70,680L70,681L71,683L61,694L62,695L62,695L62,695L62,695L62,695L62,695L62,696L62,696L62,696L62,696L62,696L62,696L63.07,686.26L61,694L62,695L76,698L90,701L90,705L92,706L92,706L92,706" fill="none" stroke="#000000" style="-webkit-tap-highlight-color: rgba(0, 0, 0, 0); stroke-linecap: round; stroke-linejoin: round; stroke-width: 5;" /><path d="M93,703" fill="none" stroke="#000000" style="-webkit-tap-highlight-color: rgba(0, 0, 0, 0); stroke-linecap: round; stroke-linejoin: round; stroke-width: 5;" /><path d="M11.62,643.11L18,641L25,641L17,641L8,640L39,632L39,632L41,632L41,632" fill="none" stroke="#000000" style="-webkit-tap-highlight-color: rgba(0, 0, 0, 0); stroke-linecap: round; stroke-linejoin: round; stroke-width: 5;" /><path d="M41,632L41,632L41,632L41,632" fill="none" stroke="#000000" style="-webkit-tap-highlight-color: rgba(0, 0, 0, 0); stroke-linecap: round; stroke-linejoin: round; stroke-width: 5;" /><path d="M589.17,553.49L592,552L596,555L594,551L597,555L599,555L601,554L601,554L604,555L607,555L606,555L609,555L609,555L611,555L612,555L614,555L616,555L617,554L621,554L619,554L622,554L627,554L624,554L626,554L630,553L630,553L633,553L634,553L635,553L637,552L640,553L639,553L642,554L643,555L643,555L643,555L656,554L656,554L656,554L656,554L659,553L659,553L663,554L665,553L666,553L667,553L669,553L670,553L673,552L674,552L675,552L677,552L679,552L680,552L682,553L684,552L684,552L687,551L688,551L690,550L692,550L692,550L695,549L697,549L700,551L702,554L700,551L706,550L706,550L709,552L707,550L712,551L709,552L713,552L715,552L717,551L720,551L720,551L722,551L725,553L725,553L727,553L729,551L730,551L732,551L735,550L733,551L737,550L742,550L739,550L744,549L745,549L747,549L750,550L748,550L752,550L753,550L755,550L757,550L758,550L762,551L759,550L764,550L765,549L767,549L773,550L770,550L772,550L777,551L775,551L778,551L780,551L781,551L785,551L787,551L787,551L791,551L795,552L791,551L801,545L801,545L802,546L801,545L805,548L805,548L807,551L820,549L808,549L810,549L811,549L820,549L820,549L822,550L822,550L827,550L824,550L813,548L828,550L813,548L828,552L828,552L828,552L828,552L828,552L822,561L822,561L822,561L822,561L822,561L822,561L822,561L819,563L818,564L812,566L815,565L812,566L812,566L812,566L812,567L799,567L812,567L799,567L799,567L799,567L799,567L796,567L795,567L792,567L792,567L788,567L788,567L782,567L786,568L782,567L780,566L778,566L777,566L775,566L772,567L772,567L772,567L770,569L767,564L763,566L762,567L763,566L761,568L760,569L759,570L754,566L753,567L752,568L750,569L747,568L747,568L745,567L743,567L740,566L744,567L738,568L735,567L731,568L737,568L730,567L724,570L724,570L729,567L727,569L722,570L721,572L720,569L720,573L715,572L711,570L715,572L716,571L710,569L707,569L709,569L705,570L703,570L703,570L704,570L703,570L694,573L694,573L696,574L692,573L685,571L687,571L690,573L689,571L683,572L683,572L684,572L683,572L678,568L678,568L678,568L678,568L664,578L664,578L664,578L664,578L664,578L663,578L663,578L663,578L660,579L660,579L660,579L660,579L660,579L657,582L658,581L660,579L646,572L642,573L644,573L656,583L641,573L648,584L637,575L634,575L636,575L632,575L631,575L629,575L627,575L626,577L626,575L624,577L622,577L609,586L610,587L610,587L611,588L609,586L609,586L609,586L609,586L609,586L609,586L609,586L609,586L609,586L609,586L609,586L609,586L609,586L597,585L596,585L594,585L600,572L600,572L600,572L600,572L600,572L598,569L598,569L597,567L597,567L584,557L597,567L593,561" fill="none" stroke="#000000" style="-webkit-tap-highlight-color: rgba(0, 0, 0, 0); stroke-linecap: round; stroke-linejoin: round; stroke-width: 5;" /><path d="M584,557L593,561L584,557L584,557L584,557L584,557L584,557L584,557L584,557L615.73,586.68L611,588L610,587L611,588L614,592L614,596L614,596L617,603L615,612L615,612L615,612L612,615L612,615L612,615L612,615L612,616L612,616L608,622L608,622" fill="none" stroke="#000000" style="-webkit-tap-highlight-color: rgba(0, 0, 0, 0); stroke-linecap: round; stroke-linejoin: round; stroke-width: 5;" /><path d="M509.51,621.54L515,619L516,619L521,619L524,619L531,619L528,619L538,618L534,618L539,618L541,618L543,618L546,616L548,617L549,617L551,617L553,617L555,618L554,617L558,619L561,619L559,619L561,619L567,618L563,619L564,619L568,618L571,618L573,618L570,612L573,618L576,618L577,618L579,619L579,619L583,621L584,621L588,621L588,621L586,621L590,621L592,622L594,622L595,622L595,622L599,623L602,622L602,622L604,622L604,622L608,622L608,622L613,620L613,620L613,622L615,622L617,619L615,622L622,620L622,620L626,623L624,623L627,623L629,622L629,622L630,624L632,625L636,626L637,626L641,626L639,626L644,625L647,624L649,622L651,622L649,622L651,622L656,623L654,623L657,623L659,622L660,622L662,622L666,621L669,621L667,621L672,620L669,621L674,620L675,620L679,622L679,622L680,623L685,622L681,623L685,622L687,622L689,622L690,622L692,621L694,620L696,621L697,621L697,621L700,619L703,621L704,621L704,621L705,620L709,619L718,622L723,621L719,621L724,621L725,621L710,619L725,621L729,619L715,621L715,621L732,619L730,619L734,619L737,619L735,619L737,619L741,619L747,621L742,619L746,623L748,621L750,621L752,622L753,622L715,621L755,620L757,620L760,620L758,620L717,622L762,621L763,621L763,621L763,617L767,614L771,616L772,617L771,616L775,616L773,618L777,617L778,616L782,616L785,616L783,616L780,616L787,616L787,616L792,617L790,617L793,615L795,615L797,615L797,615L802,614L800,616L805,615L807,616L807,616L811,615L812,615L813,615L818,617L818,617L814,616L817,617L826,616L826,616L826,616L826,616L827,616L828,616L832,612L832,612L835,613L835,613L838,615L833,613L839,615L839,615L845,615L844,615L850,612L850,612L850,612L846,615L854,619L850,612L852,618L854,619L863,619L854,619L863,619L863,619L864,619L864,619L864,619L865,620L868,620L869,621L869,621L869,621L869,621L868,622L867,623L866,623L866,623L866,623L864,622L862,621L849,623L849,623L849,623L849,623L848,623L847,623L849,623L847,623L847,623L847,623L847,623L847,623L837,619L824,637L836,619L835,619L824,637L824,637L824,637L823,636L818,635L822,635L822,635L816,635L811,634L813,636L810,635L807,635L807,633L807,635L805,633L803,633L801,633L802,633L801,633L801,633L792,638L801,633L792,638L787,625L787,625L787,625L785,625L785,638L783,625L785,638L778,641L778,641L778,641L778,641L763,636L763,636L763,636L763,636L763,636L763,636L763,636L762,636L761,636L761,636L761,636L761,636L761,636L756,648L757,647L756,648L757,647L755,649L733,639L733,639L733,639L733,639L733,639L732,640L728,639L727,639L724,640L722,640L720,639L719,639L718,641L714,642L714,642L715,642L710,643L707,642L705,642L707,642L704,642L704,642" fill="none" stroke="#000000" style="-webkit-tap-highlight-color: rgba(0, 0, 0, 0); stroke-linecap: round; stroke-linejoin: round; stroke-width: 5;" /><path d="M704,642L688,642L688,642L688,642L685,642L687,642L685,642L685,642L679,646L684,644L677,646L675,646L674,646L672,646L671,646L671,646L671,646L671,646L671,646L665,649L651,651L665,649L663,650L665,649L651,651L651,651L663,650L649,651L651,651L649,651L649,651L649,651L649,651L649,651L649,651L634,646L637,645L632,646L645,656L631,646L630,657L630,657L630,657L624,658L624,658L623,658L623,658L623,658L621,659L621,659L621,659L618,661L618,661L618,661L597,660L597,660L597,660L594,657L594,657L597.47,658.05L598,662L597,660L598,662L614,663L614,663L614,663L598,662L598,662L587,658L592,660L573,653L582,660L572,654L568,651L562,646L565,648L561,643" fill="none" stroke="#000000" style="-webkit-tap-highlight-color: rgba(0, 0, 0, 0); stroke-linecap: round; stroke-linejoin: round; stroke-width: 5;" /><path d="M559,642L528,631L556,640L555,641L528,631L549,641L539,640L539,640L543,638L539,640L528,631" fill="none" stroke="#000000" style="-webkit-tap-highlight-color: rgba(0, 0, 0, 0); stroke-linecap: round; stroke-linejoin: round; stroke-width: 5;" /><path d="M597.47,666.35L593,668L598,675L597,681L597,689L598,699L597,701L597,701L597,701L597,701" fill="none" stroke="#000000" style="-webkit-tap-highlight-color: rgba(0, 0, 0, 0); stroke-linecap: round; stroke-linejoin: round; stroke-width: 5;" /><path d="M600,694L600,694" fill="none" stroke="#000000" style="-webkit-tap-highlight-color: rgba(0, 0, 0, 0); stroke-linecap: round; stroke-linejoin: round; stroke-width: 5;" /><path d="M534.41,641.45L539,640L539,640L528,631L528,631L528,631L528,631L528,631L526,645L529,653L539,669L538,675L539,670L538,675" fill="none" stroke="#000000" style="-webkit-tap-highlight-color: rgba(0, 0, 0, 0); stroke-linecap: round; stroke-linejoin: round; stroke-width: 5;" /><path d="M535,688L538,675L538,675L538,675L532.75,682.94L535,688L535,688L536,688L544,687L552,687L568,694L572,693L578,692L582,696" fill="none" stroke="#000000" style="-webkit-tap-highlight-color: rgba(0, 0, 0, 0); stroke-linecap: round; stroke-linejoin: round; stroke-width: 5;" /><path d="M584,697L585,698L585,698L597,700L597,700L597,692L597.47,704.52L602,702L605,703L602,702L614,703L621,704L627,702L632,701L639,704L642,701L649,701L646,701L652,700L657,699L660,700L661,701L668,698L668,698L670,699L672,701L674,701L679,700L677,700L684,700L688,700L690,699L697,701L697,701L703,699L705,698L712,696L710,696L716,696L719,694L723,695L725,695L728,695L731,696L737,693L739,693L742,692L737,693L744,693L750,689L744,693L747,690L752,689L758,689L758,689L752,689" fill="none" stroke="#000000" style="-webkit-tap-highlight-color: rgba(0, 0, 0, 0); stroke-linecap: round; stroke-linejoin: round; stroke-width: 5;" /><path d="M762,689L762,689L768,685L768,685L770,684L775,684L781,685L775,684L781,685L781,685L788,687L788,687L790,687L792,687L793,687L798,687L798,687L802,687L803,687L803,687L809,684L809,684L809,684L824,682L809,684L824,682L809,684L809,684L826,681L826,681L826,681L826,681L836,675L838,675L838,675L838,675L838,675L824,682L838,675L824,682L824,682L838,675L850,683L824,682L850,681" fill="none" stroke="#000000" style="-webkit-tap-highlight-color: rgba(0, 0, 0, 0); stroke-linecap: round; stroke-linejoin: round; stroke-width: 5;" /><path d="M881.27,631.49" fill="none" stroke="#000000" style="-webkit-tap-highlight-color: rgba(0, 0, 0, 0); stroke-linecap: round; stroke-linejoin: round; stroke-width: 5;" /><path d="M824,682L838,675L838,675" fill="none" stroke="#000000" style="-webkit-tap-highlight-color: rgba(0, 0, 0, 0); stroke-linecap: round; stroke-linejoin: round; stroke-width: 5;" /><path d="M879,631L878,625L878,625L878,625L878,625L876,625L876,625L875,627L875,628L875,628L877,629L879,633L879,635L879,641L879,641L879,638L880,646L880,653L879,657L880,653L879,658L877,666L879,660L877,666L878,664L877,667L877,666L866,668L877,667L866,670L865,670L865,673L865,671L865,686L865,686L868,685L865,686L865,686L865,686L865,686L865,686L853,683L853,681" fill="none" stroke="#000000" style="-webkit-tap-highlight-color: rgba(0, 0, 0, 0); stroke-linecap: round; stroke-linejoin: round; stroke-width: 5;" /><path d="M853,680L865,686L865,686L865,686L853,680L850,683L838,675L838,675L838,675L838,675L836,675L836,675L836,675L836,675L838,675" fill="none" stroke="#000000" style="-webkit-tap-highlight-color: rgba(0, 0, 0, 0); stroke-linecap: round; stroke-linejoin: round; stroke-width: 5;" /><path d="M803.27,515.32L804,509L799,510L800,508L798,509L795,508L799,510L804,509L807,509L814,513L818,516L820,516L823,517L825,518L828,520L829,520L831,523L836,525L843,524L843,524L845,524L849,529L848,527L855,533L855,533L859,534L860,535L863,541L863,541L869,546L869,546L875,552L875,548L878,555L880,557L879,556" fill="none" stroke="#000000" style="-webkit-tap-highlight-color: rgba(0, 0, 0, 0); stroke-linecap: round; stroke-linejoin: round; stroke-width: 5;" /><path d="M883,557L884,561L886,562L888,565L888,564L891,567L891,567L892,570L891,567L894,568L895,569L896,572L898,572L902,573L900,575L904,576L908,577L905,576L908,591L906,589L908,577L907,590L906,589" fill="none" stroke="#000000" style="-webkit-tap-highlight-color: rgba(0, 0, 0, 0); stroke-linecap: round; stroke-linejoin: round; stroke-width: 5;" /><path d="M896.21,674.65L897,676L897,676L898,676L899,676L899,676L899,676L913,680L915,685L916,686L921,687L924,689L930,691L933,693L946,695L945,695L937,693L938,693L947,696L939,693L949,697L941,694L952,699L950,698L953,700L942,692L954,700L956,704L958,705L960,705L965,707L965,706L965,707L966,707L967,707L968,706L971,706L973,706L974,706L977,707L977,707L979,707L981,707L983,707L983,707L983,707L983,707L983,707L991,720L995,710L993,709L995,710" fill="none" stroke="#000000" style="-webkit-tap-highlight-color: rgba(0, 0, 0, 0); stroke-linecap: round; stroke-linejoin: round; stroke-width: 5;" /><path d="M996,719L997,719L1004,715L997,719L1004,715L1004,715L1004,715L1008,719L1008,720L1012,721L1015,728L1016,728L1016,728L1016,728L1017,726L1014,721" fill="none" stroke="#000000" style="-webkit-tap-highlight-color: rgba(0, 0, 0, 0); stroke-linecap: round; stroke-linejoin: round; stroke-width: 5;" /><path d="M867.99,669.67L877,667L877,667L877,667L875,684" fill="none" stroke="#000000" style="-webkit-tap-highlight-color: rgba(0, 0, 0, 0); stroke-linecap: round; stroke-linejoin: round; stroke-width: 5;" /><path d="M894,674L894,674L897,676L897,676L898,676L898,676" fill="none" stroke="#000000" style="-webkit-tap-highlight-color: rgba(0, 0, 0, 0); stroke-linecap: round; stroke-linejoin: round; stroke-width: 5;" /><path d="M370.1,682.94L362,682L362,682L361,685L364,690L366,693L395,681L385,683L403,680L410,680L415,680L420,680L428,680L425,680L440,673L440,673L440,673L445,675L442,675L446,675L448,677L450,677L450,677L450,677L466,680L450,677L466,680L466,680L466,680L471,679L472,681L470,679L472,681L489,685L484,685L485,685L489,685L496,687L496,687L496,687L496,687L496,687L508,680L511,681L510,680L513,681L514,681L518,683L516,681" fill="none" stroke="#000000" style="-webkit-tap-highlight-color: rgba(0, 0, 0, 0); stroke-linecap: round; stroke-linejoin: round; stroke-width: 5;" /><path d="M519,683L521,683L521,685L523,685L524,685L535,688L535,688L535,688L535,688L535,688L535,688L536,688" fill="none" stroke="#000000" style="-webkit-tap-highlight-color: rgba(0, 0, 0, 0); stroke-linecap: round; stroke-linejoin: round; stroke-width: 5;" /><path d="M368.44,206.63" fill="none" stroke="#000000" style="-webkit-tap-highlight-color: rgba(0, 0, 0, 0); stroke-linecap: round; stroke-linejoin: round; stroke-width: 5;" /><path d="M381,211L373,207L384,211L361,206L361,206L396,215L396,215L361,206" fill="none" stroke="#000000" style="-webkit-tap-highlight-color: rgba(0, 0, 0, 0); stroke-linecap: round; stroke-linejoin: round; stroke-width: 5;" /><path d="M778.37,39L783,39L783,37L785,35" fill="none" stroke="#000000" style="-webkit-tap-highlight-color: rgba(0, 0, 0, 0); stroke-linecap: round; stroke-linejoin: round; stroke-width: 5;" /></svg>