<?xml version="1.0" encoding="utf-8" ?>
<svg baseProfile="full" height="1424" version="1.1" width="1024" xmlns="http://www.w3.org/2000/svg" xmlns:ev="http://www.w3.org/2001/xml-events" xmlns:xlink="http://www.w3.org/1999/xlink"><defs /><path d="M323.3,256.63L323,262L323,264L334,264L334,267L334,267L334,273L323,274L323,279L323,282L323,287L323,292L323,297L321,302L321,304L321,309L321,314L321,317L321,322L321,325L321,330L321,335L321,340L321,342L321,345L321,347L321,352L321,355L321,357L323,362L323,365L334,367L334,372L334,375L334,377L334,382L334,384L334,387L334,399L334,392L334,390L334,399L334,405L335,408L335,410L337,412L339,413L333,428L333,433L333,440L333,445L333,450L333,455L333,463L331,468L331,476L331,483L331,491L331,496L328,513L328,521L328,506L328,531L326,541L326,561L326,551L326,569L326,576L326,584L326,589L326,596L328,604L328,616L328,611L331,624L331,632L331,647L331,639L333,654L337,669L337,669L337,679L337,687L337,694L337,702L337,704L337,704L336,720L336,725L336,737L336,730L336,742L336,747L336,760L336,752L336,772L336,765L336,787L336,780" fill="none" stroke="#000000" style="-webkit-tap-highlight-color: rgba(0, 0, 0, 0); stroke-linecap: round; stroke-linejoin: round; stroke-width: 7;" /><path d="M336,793L336,800L336,813L336,808L338,820L338,825L341,840L338,833L341,863L341,848L341,855L341,868L341,873L341,878L341,883L341,886L338,901L343,888L338,901L338,901" fill="none" stroke="#000000" style="-webkit-tap-highlight-color: rgba(0, 0, 0, 0); stroke-linecap: round; stroke-linejoin: round; stroke-width: 7;" /><path d="M693.15,231.47L688,235L688,235L693,234L695,233L696,233L698,233L701,233L703,233L703,233L705,237L705,239L704,244L704,254L704,249L704,259L704,263L705,269L705,277L705,282L705,287L705,292L707,299L707,306L707,304L703,314L703,314L711,335L711,330L711,340L705,354L705,354L705,357L705,362L705,367L705,377L705,372L705,385L705,390L705,403L705,398L705,410L718,415L707,428L707,428L721,438L721,433L721,448L721,443L721,455L721,460L721,468L721,476L721,481L721,488L721,493L723,501L723,508L723,513L723,521L723,528L723,536L723,551L723,559L723,566L721,576L721,584L721,591L721,601L721,611L718,621L718,634L716,644L716,657L709,673L709,673L713,692L713,704L713,715L711,727L711,737L711,750L713,762L713,775L716,795L716,808L713,785" fill="none" stroke="#000000" style="-webkit-tap-highlight-color: rgba(0, 0, 0, 0); stroke-linecap: round; stroke-linejoin: round; stroke-width: 7;" /><path d="M718,818L718,828L721,845L721,838L721,853L723,858L723,863L723,868L723,871L726,878L726,873L726,881L726,883L726,888L726,891L726,893L726,901L726,903L726,896L726,901" fill="none" stroke="#000000" style="-webkit-tap-highlight-color: rgba(0, 0, 0, 0); stroke-linecap: round; stroke-linejoin: round; stroke-width: 7;" /><path d="M363.56,342.17L362,337L369,347L372,356L370,352L374,367L376,372L378,380L379,387L382,396L384,399L383,402L382,410L382,412L382,412L394,430L391,425L394,435L396,438L396,443L396,448L396,453L396,458L396,463L396,476L396,470L396,481L396,483L396,486L396,488L396,493L396,498L396,508L396,516L396,503L394,521L394,528L394,536L394,541L391,548L391,556L389,564L389,571L386,579L386,584L386,594L386,589L386,596L386,601L386,614L386,609L386,604L386,624L389,632L386,619L389,629L389,637L389,642L389,649L389,644L391,652L391,657L391,667L391,662L394,674L394,669L394,684L394,679L396,694L396,707L396,702L394,689" fill="none" stroke="#000000" style="-webkit-tap-highlight-color: rgba(0, 0, 0, 0); stroke-linecap: round; stroke-linejoin: round; stroke-width: 7;" /><path d="M396,725L396,712L396,720L396,730L396,747L396,735L396,750L396,742L396,757L396,755L396,762L396,765L396,770L396,780L396,775L396,785L396,790L396,800L396,803L396,795L396,810L396,808L396,813L399,815L399,818L399,820L401,820" fill="none" stroke="#000000" style="-webkit-tap-highlight-color: rgba(0, 0, 0, 0); stroke-linecap: round; stroke-linejoin: round; stroke-width: 7;" /><path d="M434,332.11L434,327L434,330L434,332L441,345L441,345L441,345L440,347L440,349L439,355L438,360L435,371L436,368L435,371L437,387L437,398L437,392L434,405L434,410L431,423L434,415L431,425L431,428L431,433L431,438L431,443L431,450L431,445L431,455L431,458L431,463L431,470L431,468L431,476L431,483L431,481L431,493L431,488L431,506L431,503L431,511L431,498L431,516L431,526L431,521L431,531L431,533L431,538L434,543L434,548L434,554L434,561L434,566L437,571L437,576L437,584L437,589L437,594L439,606L439,601L442,614L442,619L442,626L442,632L444,642L444,637L444,652L444,647L444,657L444,662L444,667L444,674L444,679L444,687" fill="none" stroke="#000000" style="-webkit-tap-highlight-color: rgba(0, 0, 0, 0); stroke-linecap: round; stroke-linejoin: round; stroke-width: 7;" /><path d="M444,692L444,699L444,710L444,707L444,720L444,712L444,725L444,730L444,737L444,742L444,747L444,752L444,760L444,765L444,775L444,770L444,782L444,787L444,780L444,793L444,798L444,808L444,805L444,800L444,813L444,815L436,826L436,826L436,826L436,826L436,826L436,826L436,826" fill="none" stroke="#000000" style="-webkit-tap-highlight-color: rgba(0, 0, 0, 0); stroke-linecap: round; stroke-linejoin: round; stroke-width: 7;" /><path d="M630.25,327.08L637,329L637,329L638,335L638,337L638,340L639,342L639,345L639,352L644,357L646,360L646,368L647,385L648,388L638,408L643,397L640,415L643,419L642,429L642,430L644,433L635,448L647,443L635,453L635,458L635,463L635,468L635,473L635,476L633,490L633,490L633,490L638,494L634,491L636,495L636,495L640,508L643,511L643,516L645,521L645,526L645,531L648,536L648,541L648,546L650,551L650,556L653,561L653,566L655,571L655,576L658,581L658,586L660,594L660,599L660,604L649,622L660,609L650,627L649,622L650,627L650,627L660,639L658,647L660,642L658,652L655,669L655,662L655,664L658,657L655,674L653,679L653,689L653,684" fill="none" stroke="#000000" style="-webkit-tap-highlight-color: rgba(0, 0, 0, 0); stroke-linecap: round; stroke-linejoin: round; stroke-width: 7;" /><path d="M650,710L643,721L653,697L650,702L643,721L643,721L643,721L650,737L650,745L650,747L650,750L650,755L650,760L650,767L650,775L650,770L650,780L650,785L650,803L650,803L650,803" fill="none" stroke="#000000" style="-webkit-tap-highlight-color: rgba(0, 0, 0, 0); stroke-linecap: round; stroke-linejoin: round; stroke-width: 7;" /><path d="M690.63,339.66" fill="none" stroke="#000000" style="-webkit-tap-highlight-color: rgba(0, 0, 0, 0); stroke-linecap: round; stroke-linejoin: round; stroke-width: 7;" /><path d="M650,803L650,803L653,819L653,819L653,819L655,819L655,819" fill="none" stroke="#000000" style="-webkit-tap-highlight-color: rgba(0, 0, 0, 0); stroke-linecap: round; stroke-linejoin: round; stroke-width: 7;" /><path d="M691,342L691,345L691,347L688,355L688,362L684,375L686,376L686,376L686,395L688,410L688,410L691,412L693,413L691,435L691,430L691,440L691,445L693,453L691,448L693,460L693,458L693,470L693,465L696,473L696,481L696,478L696,486L696,488L698,496L698,491L698,498L701,506L701,511L701,503L703,516" fill="none" stroke="#000000" style="-webkit-tap-highlight-color: rgba(0, 0, 0, 0); stroke-linecap: round; stroke-linejoin: round; stroke-width: 7;" /><path d="M703,518L706,528L706,533L703,523L706,538L706,541L706,546L708,548L708,556L708,554L708,559L708,564L711,566L711,569L711,576L711,574L711,591L711,581L711,596L711,586L711,604L708,609L708,616L706,621L706,626L703,642L703,637L703,632L701,647L701,652L701,657L707,673L707,673L707,673L707,673L698,687L698,692L698,697L698,707L698,702" fill="none" stroke="#000000" style="-webkit-tap-highlight-color: rgba(0, 0, 0, 0); stroke-linecap: round; stroke-linejoin: round; stroke-width: 7;" /><path d="M325.82,269.21" fill="none" stroke="#000000" style="-webkit-tap-highlight-color: rgba(0, 0, 0, 0); stroke-linecap: round; stroke-linejoin: round; stroke-width: 7;" /><path d="M698,712L698,722L698,727L698,717L698,732L698,737L698,750L698,745L698,755L698,760L698,767L698,765L698,772L698,777L698,787L698,785L698,780L698,793L698,800L698,795L696,803L696,808L693,820L696,813L696,815L693,823L693,828L693,833L693,830L693,835L693,838L693,840" fill="none" stroke="#000000" style="-webkit-tap-highlight-color: rgba(0, 0, 0, 0); stroke-linecap: round; stroke-linejoin: round; stroke-width: 7;" /><path d="M323,269L321,269L334,273L323,272L334,273L334,274L346,264L335,272L363,265L353,264L371,264L378,264L389,262L384,263" fill="none" stroke="#000000" style="-webkit-tap-highlight-color: rgba(0, 0, 0, 0); stroke-linecap: round; stroke-linejoin: round; stroke-width: 7;" /><path d="M399,262L394,263L401,261L399,262L413,260L409,259L419,260L424,261L431,261L437,261L442,261L447,260L453,258L462,257L464,258L472,261L476,261L487,262L494,261L497,260L502,259L513,255L515,254L521,250L527,248L533,247L537,249L540,249L542,249L545,249L546,249L553,252L550,251L558,254L566,253L568,251L570,248L571,247L579,246L580,246L582,246L587,247L587,247L589,248L589,248L582,246" fill="none" stroke="#000000" style="-webkit-tap-highlight-color: rgba(0, 0, 0, 0); stroke-linecap: round; stroke-linejoin: round; stroke-width: 7;" /><path d="M189.96,163.54L187,164L185,164L180,164L177,164L164,163L164,163L164,163L164,163L164,163L164,163L184,148L184,148L186,148L184,148L195,151L199,151L204,153L222,157L225,156L233,154L238,154L249,151L256,145L252,147L259,144L264,143L267,141L278,136L283,136L293,135L301,135L306,134L320,133L313,134L326,133L331,133L350,133L341,134L333,133L356,132L364,132L371,131L379,131L386,131L392,129L397,129L404,129L409,129L410,129L416,129L421,129L427,128L427,128L427,128L433,129L433,129L436,131L452,131L452,131L457,131L462,131L467,131L472,131L481,126L485,126L494,130L512,129L520,129L504,129L527,128L535,128L547,127L540,128L552,127L557,127L563,126L564,126L577,124L581,122L585,123L589,125L600,126L605,123L610,121L624,118L615,119L628,118L633,118L638,118L645,116L650,116L659,118L665,115L671,115L678,114L682,114L696,112L691,112L709,118L710,120L713,121L713,121L713,121" fill="none" stroke="#000000" style="-webkit-tap-highlight-color: rgba(0, 0, 0, 0); stroke-linecap: round; stroke-linejoin: round; stroke-width: 7;" /><path d="M720,110L736,121L720,110L738,121L746,121L743,121L749,108L750,108L750,108L753,107L759,106L761,106L764,106L774,105L766,106L767,106L776,105L785,113L785,113L785,113L785,113L796,121L794,121L799,121L810,124L801,121L807,122L804,121L813,127L814,128L816,128L816,128L817,128L817,128L824,127L824,127L838,136L838,136L839,138L838,136" fill="none" stroke="#000000" style="-webkit-tap-highlight-color: rgba(0, 0, 0, 0); stroke-linecap: round; stroke-linejoin: round; stroke-width: 7;" /><path d="M230.21,176.12" fill="none" stroke="#000000" style="-webkit-tap-highlight-color: rgba(0, 0, 0, 0); stroke-linecap: round; stroke-linejoin: round; stroke-width: 7;" /><path d="M839,138L841,143L841,141" fill="none" stroke="#000000" style="-webkit-tap-highlight-color: rgba(0, 0, 0, 0); stroke-linecap: round; stroke-linejoin: round; stroke-width: 7;" /><path d="M230,174L228,174L228,176L228,179L228,181L228,189L228,186L228,196L228,201L228,204L230,209L230,214L233,216L233,219L235,226L235,224L238,231L238,234L240,244L240,239L245,254L243,249L245,264L245,259L245,269L245,274L248,277L248,282L248,284L248,289L250,292L250,294L250,299L250,304L253,307L253,312L253,317L253,325L253,330L253,337L253,350L253,342L253,362L253,357L250,375L253,370L250,382L250,387L250,395L250,403L248,410L248,415L248,418L248,423L248,425L245,440L245,433L243,448L243,458L243,465L243,476L240,486L240,493L240,503L240,511L240,516L240,523L240,536L240,531L240,543L240,548L240,554L240,561L240,566L243,586L243,579L243,574L243,594L243,606L243,599L243,614L243,619L243,621L240,632L240,639L240,649" fill="none" stroke="#000000" style="-webkit-tap-highlight-color: rgba(0, 0, 0, 0); stroke-linecap: round; stroke-linejoin: round; stroke-width: 7;" /><path d="M238,667L240,657L238,677L238,684L235,694L235,702L235,712L233,720L233,735L233,727L233,740L233,747L233,762L233,755L233,770L233,777L233,790L233,782L233,798L233,813L233,813L233,813L233,825L233,828L233,840L233,835L233,830L233,848L233,853L233,858L233,871L233,865L233,876L233,881L233,886L233,891L233,896L233,901L233,906L235,911L235,918L235,916L235,921L235,923L238,923" fill="none" stroke="#000000" style="-webkit-tap-highlight-color: rgba(0, 0, 0, 0); stroke-linecap: round; stroke-linejoin: round; stroke-width: 7;" /><path d="M8.81,588.74L14,589L29,587L16,591L29,587L33,592L34,593L36,595L36,595L44,599L49,600L53,602L52,602L53,602L53,602L67,609L53,602L72,609L74,609L77,611L79,611L87,614L82,611L89,614L94,616L102,619L99,616L109,619L104,619L109,621L114,624L112,621L117,626L125,629L130,634L122,626L127,632" fill="none" stroke="#000000" style="-webkit-tap-highlight-color: rgba(0, 0, 0, 0); stroke-linecap: round; stroke-linejoin: round; stroke-width: 7;" /><path d="M132,634L137,637L140,637L135,634L142,639L145,642L145,639" fill="none" stroke="#000000" style="-webkit-tap-highlight-color: rgba(0, 0, 0, 0); stroke-linecap: round; stroke-linejoin: round; stroke-width: 7;" /><path d="M187.44,168.57L187,164L189,150L184,148L184,148L184,148L184,148L172,151L167,151L162,151L163,163L150,156L147,161L142,166L142,171L140,179L140,186L142,204L145,214L140,194L145,221L147,231L155,243L155,243L155,243L152,269L157,277L150,262L155,274L162,287L160,282L165,297L162,292L167,302L170,309L170,314L167,304L170,320L172,327L172,322L172,330L172,332L175,335L175,337L175,340L175,342L175,345L175,347L177,350L177,352L177,355L177,357L177,362L177,367L177,370L177,377L177,382L180,395L180,387L180,400L180,408L180,415L180,403L180,420L180,433L180,440L180,428L180,445L182,450L182,455L182,460L182,465L182,468L182,478L182,473L182,481L180,486L180,491L180,496L180,498L180,503L180,508L180,513L180,523L180,518L180,528L177,536L177,541L177,548L175,556L175,561L172,569L172,574L172,579L172,589L172,584L170,594L170,596L170,601L170,606L170,609L167,619L170,614L167,624L167,629L165,639L165,634L165,647L165,642L165,649L165,657L165,662L165,652L165,667L165,672L165,682L165,677L165,689L165,710L165,694L165,702L165,730L165,717L165,737L165,722L165,742L165,750L165,757L165,762L165,770L165,793L165,785L165,777L165,798L165,810L165,815L165,805L165,818L165,833L165,823L165,828L165,835" fill="none" stroke="#000000" style="-webkit-tap-highlight-color: rgba(0, 0, 0, 0); stroke-linecap: round; stroke-linejoin: round; stroke-width: 7;" /><path d="M165,840L165,845L165,853L165,848L165,860L165,858L165,871L165,865L165,876L165,886L165,881L165,891L165,901L167,911L165,896L167,906L167,916L167,921L170,931L167,926L170,936L170,941L170,946L170,951L170,954L167,959L167,964L167,969L165,971L162,984L165,979L160,994L162,989L160,1001L160,1004L160,999L160,1009L160,1014L160,1019L160,1029L160,1024L160,1037L160,1042L160,1049L160,1054L160,1062L160,1067L160,1069L160,1072L160,1074L157,1074L157,1072L160,1069L162,1069" fill="none" stroke="#000000" style="-webkit-tap-highlight-color: rgba(0, 0, 0, 0); stroke-linecap: round; stroke-linejoin: round; stroke-width: 7;" /><path d="M823.98,143.41L821,143L821,146L824,146L826,151L829,153L844,156L846,161L849,169L850,178L851,185L854,196L855,201L855,201L855,201L855,201" fill="none" stroke="#000000" style="-webkit-tap-highlight-color: rgba(0, 0, 0, 0); stroke-linecap: round; stroke-linejoin: round; stroke-width: 7;" /><path d="M857,201L857,201L854.17,198.76L861,198L867,195L874,193L884,191L894,190L902,188L906,189L910,187" fill="none" stroke="#000000" style="-webkit-tap-highlight-color: rgba(0, 0, 0, 0); stroke-linecap: round; stroke-linejoin: round; stroke-width: 7;" /><path d="M917,191L918,193L918,193L918,193L917.07,188.7L918,193L917,199L921,211L922,219L923,229L923,230L923,230L931,244L933,249" fill="none" stroke="#000000" style="-webkit-tap-highlight-color: rgba(0, 0, 0, 0); stroke-linecap: round; stroke-linejoin: round; stroke-width: 7;" /><path d="M933,254L933,257L932.17,251.6L933,257L933,262L933,264L933,269L934,274L935,280L937,280L945,291L947,299L948,304L948,309L947,314L946,319L947,324L949,330L949,335L949,339L949,343L950,355L950,349L952,361L952,364L953,366L955,366L961,378L957,384L956,390L956,387L956,394L960,401L958,404L957,408L955,412L952,418L953,423L953,426L953,428L958,438L956,442L958,438L957,448L955,461L955,448L956,455L954,464L954,473L954,464L954,464L953,476L953,476L953,476L953,476L955,491L955,493L957,498L957,503L960,508L962,518L962,513" fill="none" stroke="#000000" style="-webkit-tap-highlight-color: rgba(0, 0, 0, 0); stroke-linecap: round; stroke-linejoin: round; stroke-width: 7;" /><path d="M965,523L965,521L967,526L967,537L972,537L970,537L972,537L977,538L974,537L982,539L984,540L990,551L988,543L982,539L998,561L990,552L993,553L998,561L1000,563L998,564L1003,563L999,564L1003,563L1003,563" fill="none" stroke="#000000" style="-webkit-tap-highlight-color: rgba(0, 0, 0, 0); stroke-linecap: round; stroke-linejoin: round; stroke-width: 7;" /><path d="M801.34,196.25L796,189L799,191L794,191L794,194L791,199L789,204L789,211L789,219L789,229L791,239L791,249L791,259L791,269L791,289L791,279L794,297L794,307L796,322L796,314L796,327L796,335L796,342L796,347L796,355L796,362L796,370L799,377L799,385L799,390L804,410L801,398L801,405L804,418L804,423L806,433L804,428L806,435L806,443L806,440L809,448L809,450L809,455L811,460L811,463L811,468L811,478L811,473L811,483L811,491L811,496L811,503L811,508L811,516L811,521L811,528L811,533L811,541L811,554L811,556L811,548L811,571L814,579L811,564L814,584L814,599L814,604L814,591L814,609L814,611L814,616L814,621L814,626L814,637L814,632L814,642L814,644L814,649L811,662L811,654L811,667L811,672L809,679L809,677L809,684L809,689L809,694L806,699L806,704L806,710L806,725L806,717L806,715L806,730L806,735L806,745L806,740L806,752L806,750L806,755L806,760L806,765L806,762L806,767L806,770" fill="none" stroke="#000000" style="-webkit-tap-highlight-color: rgba(0, 0, 0, 0); stroke-linecap: round; stroke-linejoin: round; stroke-width: 7;" /><path d="M806,775L806,772L806,780L806,782L806,785L806,787L806,790L806,793L806,795L806,798L806,803L806,800L804,810L804,805L804,815L804,813L801,820L801,823L801,825L801,828L801,835L801,833L801,840" fill="none" stroke="#000000" style="-webkit-tap-highlight-color: rgba(0, 0, 0, 0); stroke-linecap: round; stroke-linejoin: round; stroke-width: 7;" /><path d="M849.14,601.32" fill="none" stroke="#000000" style="-webkit-tap-highlight-color: rgba(0, 0, 0, 0); stroke-linecap: round; stroke-linejoin: round; stroke-width: 7;" /><path d="M801,838L801,845L801,843L801,848L801,853L801,850L799,855L799,858L799,865L796,868L796,873L796,876L796,878L796,881L796,883L796,886L796,891L796,893L796,896L796,901L796,903L796,908L796,911L796,913L794,918L796,916L794,921L794,923L794,926L794,931L794,928L794,933L794,938L794,943L794,946L794,941L794,943" fill="none" stroke="#000000" style="-webkit-tap-highlight-color: rgba(0, 0, 0, 0); stroke-linecap: round; stroke-linejoin: round; stroke-width: 7;" /><path d="M847,601L842,601L844,601L842,604L842,606L842,614L844,621L849,647L847,634L854,672L852,659L857,694L854,684L857,717L857,707" fill="none" stroke="#000000" style="-webkit-tap-highlight-color: rgba(0, 0, 0, 0); stroke-linecap: round; stroke-linejoin: round; stroke-width: 7;" /><path d="M857,737L857,727L859,755L859,747L859,770L859,785L859,762L859,777L859,793L857,808L859,800L857,813L857,825L857,820L857,838L857,833L854,853L854,843L854,848L854,860L854,865L852,876L854,871L852,881L852,886L852,903L852,893L852,898L849,908L849,921L849,916L849,926L849,928L847,936L847,941L849,931L847,946L847,951L847,961L847,956L847,966L847,979L847,971L847,984L847,989L849,1001L849,994L849,1006L849,1011L849,1016L849,1024L849,1019L849,1027L849,1029L849,1032L849,1029L849,1027L849,1019L849,1021" fill="none" stroke="#000000" style="-webkit-tap-highlight-color: rgba(0, 0, 0, 0); stroke-linecap: round; stroke-linejoin: round; stroke-width: 7;" /><path d="M783.72,946L779,943L781,946L789,949L786,949L799,954L794,951L804,956L811,959L821,966L816,964L826,974L824,971L829,984L826,979L832,986L834,991L834,996L837,1001L839,1004L839,1009L839,1014L842,1019L844,1024L847,1029L852,1037L849,1034L854,1042L857,1044L859,1047L862,1049L864,1049L869,1052L872,1054L874,1057L879,1064L877,1059L882,1072L882,1069L884,1077L884,1082L887,1084L887,1089L889,1092L892,1094L897,1099L899,1102L902,1105L894,1097L904,1107L915,1117L907,1112L910,1115" fill="none" stroke="#000000" style="-webkit-tap-highlight-color: rgba(0, 0, 0, 0); stroke-linecap: round; stroke-linejoin: round; stroke-width: 7;" /><path d="M917,1122L922,1130L920,1125L922,1127L925,1130L927,1132L927,1137L930,1140L932,1140L932,1142L935,1145L935,1147L940,1152L937,1150L942,1155L945,1160L947,1165L950,1167L945,1162L950,1172L955,1177L952,1175L957,1180L960,1180L962,1183L970,1185L967,1185L972,1188L975,1188L980,1190L977,1190L977,1190" fill="none" stroke="#000000" style="-webkit-tap-highlight-color: rgba(0, 0, 0, 0); stroke-linecap: round; stroke-linejoin: round; stroke-width: 7;" /><path d="M1.26,1220.25L4,1220L4,1218L4,1223L4,1225L6,1228L11,1230L16,1230L21,1233L29,1233L49,1235L39,1235L57,1235L67,1235L77,1235L84,1235L92,1235L97,1235L104,1233L109,1233L117,1233L122,1230L127,1230L135,1230L140,1228L155,1228L150,1228L145,1228L160,1228L170,1228L165,1228L175,1225L180,1225L185,1225L192,1225L187,1225L195,1225L198,1225L205,1225L200,1225L208,1225L213,1225L215,1225L220,1225L225,1225L230,1225L235,1225L243,1225L248,1225L255,1225L270,1225L263,1225L278,1225L283,1225L291,1225L296,1225L301,1225L306,1225L318,1225L313,1225L333,1223L326,1225L341,1223L348,1223L356,1223L364,1223L371,1223L381,1223L391,1223L401,1223L411,1223L421,1223L431,1223L444,1223L454,1223L467,1223L477,1223L497,1225L487,1223L504,1225L515,1225L522,1225L532,1225L540,1225L547,1225L565,1225L557,1225L572,1225L580,1225L598,1228L590,1228L608,1228L615,1228L633,1228L625,1228L643,1228L653,1228L665,1228L660,1228L676,1228L698,1228" fill="none" stroke="#000000" style="-webkit-tap-highlight-color: rgba(0, 0, 0, 0); stroke-linecap: round; stroke-linejoin: round; stroke-width: 7;" /><path d="M686,1228L708,1228L718,1228L736,1225L746,1225L728,1228L754,1225L761,1225L779,1223L771,1223L786,1220L794,1220L799,1220L806,1218L814,1218L821,1218L826,1218L834,1218L839,1215L847,1215L852,1215L859,1215L864,1213L872,1213L879,1213L887,1213L892,1213L899,1213L911,1222L913,1222L913,1222L925,1213L930,1213L932,1215L935,1215L940,1215L937,1215L940,1213L942,1213L945,1208L942,1210" fill="none" stroke="#000000" style="-webkit-tap-highlight-color: rgba(0, 0, 0, 0); stroke-linecap: round; stroke-linejoin: round; stroke-width: 7;" /><path d="M174.86,1031.55L172,1032L170,1032L167,1032L167,1034L170,1037L175,1037L180,1039L190,1039L200,1039L213,1042L223,1042L230,1042L238,1042L245,1042L253,1042L260,1042L275,1042L268,1042L281,1042L286,1042L288,1042L293,1042L298,1042L303,1042L308,1042L313,1042L318,1042L323,1042L331,1039L328,1039L336,1039L338,1039L343,1039L346,1039L348,1039L353,1039L356,1039L364,1039L361,1039L369,1039L371,1039L376,1039L374,1039L379,1039L384,1039L394,1039L389,1039L399,1039L406,1039L416,1039L414,1039L419,1039L424,1039L426,1039L431,1039L439,1039L444,1039L452,1039L459,1039L467,1039L474,1039L482,1039L489,1039L497,1039L504,1039L512,1039L517,1039L522,1039L534,1046L534,1046L534,1046L536,1046L536,1046L536,1046L552,1039L536,1046L557,1039L565,1042L570,1042L577,1042L582,1044L590,1044L595,1044L600,1047L605,1047L613,1047L623,1047L618,1047L628,1047L635,1047L640,1047" fill="none" stroke="#000000" style="-webkit-tap-highlight-color: rgba(0, 0, 0, 0); stroke-linecap: round; stroke-linejoin: round; stroke-width: 7;" /><path d="M645,1047L655,1047L650,1047L667,1042L667,1042L673,1042L668,1042L673,1042L673,1042L686,1047L691,1047L696,1047L703,1047L711,1047L718,1047L736,1044L728,1044L746,1044L754,1044L764,1044L771,1044L779,1044L794,1044L786,1044L799,1044L806,1044" fill="none" stroke="#000000" style="-webkit-tap-highlight-color: rgba(0, 0, 0, 0); stroke-linecap: round; stroke-linejoin: round; stroke-width: 7;" /><path d="M189.96,1006.39" fill="none" stroke="#000000" style="-webkit-tap-highlight-color: rgba(0, 0, 0, 0); stroke-linecap: round; stroke-linejoin: round; stroke-width: 7;" /><path d="M811,1044L814,1044L816,1044L821,1044L826,1044L832,1044L837,1044L839,1044L844,1044L849,1042L852,1042L852,1039L844,1037" fill="none" stroke="#000000" style="-webkit-tap-highlight-color: rgba(0, 0, 0, 0); stroke-linecap: round; stroke-linejoin: round; stroke-width: 7;" /><path d="M187,1006L185,1006L182,1006L187,1006L192,1006L205,1006L213,1006L218,1006L245,1006L233,1006L258,1006L265,1004L275,1004L283,1004L291,1004L296,1004L303,1004L308,1004L316,1004L326,1004L333,1004L341,1001L346,1001L351,1001L356,1001L361,1001L366,1001L371,1001L376,1001L381,1001L389,1001L394,999L401,999L406,999L414,999L421,999L426,999L431,999L439,999L444,999L449,999L457,999L462,1001L477,1001L469,1001L484,1001L489,1004L497,1004L502,1004L513,996L517,997L522,997L530,997L535,997L542,997L546,997L546,997L560,1004L565,1004L570,1004L575,1004L580,1004L594,995L594,995L594,995L595,995L595,995L613,1004L608,1004L618,1004L623,1004L628,1004L633,1004L640,1001" fill="none" stroke="#000000" style="-webkit-tap-highlight-color: rgba(0, 0, 0, 0); stroke-linecap: round; stroke-linejoin: round; stroke-width: 7;" /><path d="M645,1001L660,1001L655,1001L650,1001L689,1003L668,1001L673,1004L689,1003L693,1003L691,1003L693,1003L708,1006L713,1006L718,1006L723,1006L728,1006L731,1006L736,1006L741,1006L743,1006L749,1006L761,1004L751,1006L756,1006" fill="none" stroke="#000000" style="-webkit-tap-highlight-color: rgba(0, 0, 0, 0); stroke-linecap: round; stroke-linejoin: round; stroke-width: 7;" /><path d="M235.24,968.65" fill="none" stroke="#000000" style="-webkit-tap-highlight-color: rgba(0, 0, 0, 0); stroke-linecap: round; stroke-linejoin: round; stroke-width: 7;" /><path d="M764,1004L769,1004L774,1004L779,1004L784,1004L789,1004L799,1004L794,1004L806,1004L814,1004L821,1004L826,1004L832,1004L842,1004L837,1004L844,1004L847,1004" fill="none" stroke="#000000" style="-webkit-tap-highlight-color: rgba(0, 0, 0, 0); stroke-linecap: round; stroke-linejoin: round; stroke-width: 7;" /><path d="M235,966L235,964" fill="none" stroke="#000000" style="-webkit-tap-highlight-color: rgba(0, 0, 0, 0); stroke-linecap: round; stroke-linejoin: round; stroke-width: 7;" /><path d="M844,1001L847,1001" fill="none" stroke="#000000" style="-webkit-tap-highlight-color: rgba(0, 0, 0, 0); stroke-linecap: round; stroke-linejoin: round; stroke-width: 7;" /><path d="M233,961L233,959L233,964L235,959L240,961L245,961L250,964L255,966L263,966L260,966L273,969L268,969L288,969L278,969L283,969L296,969L323,966L316,966L308,966L303,966L348,966L341,966L328,966L336,966L361,966L353,966L369,966L376,966L384,966L394,966L409,966L401,966L416,969L421,969L429,969L434,969L454,969L442,969L447,969L462,969L469,969L484,969L477,969L492,969L499,969L507,969L515,969L522,969L530,971L542,971L537,971L550,971L557,971" fill="none" stroke="#000000" style="-webkit-tap-highlight-color: rgba(0, 0, 0, 0); stroke-linecap: round; stroke-linejoin: round; stroke-width: 7;" /><path d="M565,974L570,974L577,974L595,978L595,978L595,978L595,978L613,974L618,974L623,974L628,974L633,974L638,974" fill="none" stroke="#000000" style="-webkit-tap-highlight-color: rgba(0, 0, 0, 0); stroke-linecap: round; stroke-linejoin: round; stroke-width: 7;" /><path d="M285.56,928.39" fill="none" stroke="#000000" style="-webkit-tap-highlight-color: rgba(0, 0, 0, 0); stroke-linecap: round; stroke-linejoin: round; stroke-width: 7;" /><path d="M643,974L648,974L653,974L658,974L663,971L668,971L673,971L678,971L683,971L691,969L696,969L703,969L708,969L716,969L721,966L728,966L738,964L733,966L743,964L749,964L761,961L766,961L754,961L771,961L784,961L779,961L774,961L789,961L796,959L794,961L801,959L804,959L814,959L811,959L809,959L816,959L821,959L819,959" fill="none" stroke="#000000" style="-webkit-tap-highlight-color: rgba(0, 0, 0, 0); stroke-linecap: round; stroke-linejoin: round; stroke-width: 7;" /><path d="M281,928L275,928L273,928L270,931L268,931L265,931L263,931L263,933L260,933L263,933L265,933L268,933L273,933L283,933L293,933L318,931L306,933L328,931L338,931L348,931L356,931L366,931L376,931L386,931L399,933L409,933L419,933" fill="none" stroke="#000000" style="-webkit-tap-highlight-color: rgba(0, 0, 0, 0); stroke-linecap: round; stroke-linejoin: round; stroke-width: 7;" /><path d="M431,933L442,933L449,933L459,933L469,933L477,933L494,933L484,933L504,933L527,933L537,933L517,933L547,933L555,933L572,933L565,933L580,933L587,933L601,943L603,943L601,943L615,933L623,933L635,933L630,933L643,933L658,933L665,933L650,933L673,933L683,931L696,931L678,931L688,931L718,931L706,931L701,931L711,931L736,931L723,931L728,931L741,931L749,931L766,931L754,931L761,931L771,931L779,931L776,931L781,931" fill="none" stroke="#000000" style="-webkit-tap-highlight-color: rgba(0, 0, 0, 0); stroke-linecap: round; stroke-linejoin: round; stroke-width: 7;" /><path d="M308.21,903.23" fill="none" stroke="#000000" style="-webkit-tap-highlight-color: rgba(0, 0, 0, 0); stroke-linecap: round; stroke-linejoin: round; stroke-width: 7;" /><path d="M779,931L784,931L781,931" fill="none" stroke="#000000" style="-webkit-tap-highlight-color: rgba(0, 0, 0, 0); stroke-linecap: round; stroke-linejoin: round; stroke-width: 7;" /><path d="M312,904L312,904L316,904L321,904L334,902L338,901L338,901L361,901L374,900L364,901L374,900L375,901L394,893L399,893L404,893L411,893L421,893L414,893L426,893L431,893L437,893L442,893L449,893L444,893L454,893L459,896L469,896L464,896L474,896L479,896L492,896L484,896L497,896L502,898L507,898L512,898L517,898L522,898L527,898L532,901L537,901L545,901L550,901L562,901L555,901L567,901L572,901L580,901L585,901" fill="none" stroke="#000000" style="-webkit-tap-highlight-color: rgba(0, 0, 0, 0); stroke-linecap: round; stroke-linejoin: round; stroke-width: 7;" /><path d="M590,901L595,901L600,901L605,901L610,901L615,901L618,903L623,903L628,903L642,903L642,903L644,903L644,903L658,906L663,906L676,906L668,906L681,906L693,906L698,906L686,906L703,906" fill="none" stroke="#000000" style="-webkit-tap-highlight-color: rgba(0, 0, 0, 0); stroke-linecap: round; stroke-linejoin: round; stroke-width: 7;" /><path d="M378.65,875.56" fill="none" stroke="#000000" style="-webkit-tap-highlight-color: rgba(0, 0, 0, 0); stroke-linecap: round; stroke-linejoin: round; stroke-width: 7;" /><path d="M708,906L718,906L723,906L713,906L733,906L743,903L728,906L738,903L756,903L761,901L759,903L751,903L761,898L746,893L756,896L733,891" fill="none" stroke="#000000" style="-webkit-tap-highlight-color: rgba(0, 0, 0, 0); stroke-linecap: round; stroke-linejoin: round; stroke-width: 7;" /><path d="M379,873L381,873L389,876L384,876L394,878L411,878L404,878L431,878L421,878L447,878L439,878L457,878L467,878L477,878L484,876L502,876L494,876L509,873L522,873L517,873L530,871L542,871L545,868L537,871L552,868L569,868L577,867L569,868L572,867" fill="none" stroke="#000000" style="-webkit-tap-highlight-color: rgba(0, 0, 0, 0); stroke-linecap: round; stroke-linejoin: round; stroke-width: 7;" /><path d="M582,868L582,868L582,868L595,865" fill="none" stroke="#000000" style="-webkit-tap-highlight-color: rgba(0, 0, 0, 0); stroke-linecap: round; stroke-linejoin: round; stroke-width: 7;" /><path d="M466.71,847.88" fill="none" stroke="#000000" style="-webkit-tap-highlight-color: rgba(0, 0, 0, 0); stroke-linecap: round; stroke-linejoin: round; stroke-width: 7;" /><path d="M613,865L608,865L603,865L598,865L633,867L628,867L626,867L626,867L638,867L635,867L640,867L645,867L658,867L648,867L655,867L653,867L668,867L665,867L671,867L660,867" fill="none" stroke="#000000" style="-webkit-tap-highlight-color: rgba(0, 0, 0, 0); stroke-linecap: round; stroke-linejoin: round; stroke-width: 7;" /><path d="M668,867L660,867L663,867" fill="none" stroke="#000000" style="-webkit-tap-highlight-color: rgba(0, 0, 0, 0); stroke-linecap: round; stroke-linejoin: round; stroke-width: 7;" /><path d="M462,845L457,843L454,843L454,840L452,840L451.62,815.17L469,843L459,840L477,843L454,840L482,843L515,840L520,840L499,843L555,838L540,840L582,838L570,838" fill="none" stroke="#000000" style="-webkit-tap-highlight-color: rgba(0, 0, 0, 0); stroke-linecap: round; stroke-linejoin: round; stroke-width: 7;" /><path d="M603,838L610,835L593,838L615,835L618,835L608,835L600,838L615,835" fill="none" stroke="#000000" style="-webkit-tap-highlight-color: rgba(0, 0, 0, 0); stroke-linecap: round; stroke-linejoin: round; stroke-width: 7;" /><path d="M454,818L464,818L477,820L459,818L489,820L532,820L504,820L520,820L547,818" fill="none" stroke="#000000" style="-webkit-tap-highlight-color: rgba(0, 0, 0, 0); stroke-linecap: round; stroke-linejoin: round; stroke-width: 7;" /><path d="M461.68,790.01" fill="none" stroke="#000000" style="-webkit-tap-highlight-color: rgba(0, 0, 0, 0); stroke-linecap: round; stroke-linejoin: round; stroke-width: 7;" /><path d="M562,818L575,820L585,820L595,820L608,818L595,820L610,818L613,815" fill="none" stroke="#000000" style="-webkit-tap-highlight-color: rgba(0, 0, 0, 0); stroke-linecap: round; stroke-linejoin: round; stroke-width: 7;" /><path d="M462,793" fill="none" stroke="#000000" style="-webkit-tap-highlight-color: rgba(0, 0, 0, 0); stroke-linecap: round; stroke-linejoin: round; stroke-width: 7;" /><path d="M599,806" fill="none" stroke="#000000" style="-webkit-tap-highlight-color: rgba(0, 0, 0, 0); stroke-linecap: round; stroke-linejoin: round; stroke-width: 7;" /><path d="M467,793L474,793" fill="none" stroke="#000000" style="-webkit-tap-highlight-color: rgba(0, 0, 0, 0); stroke-linecap: round; stroke-linejoin: round; stroke-width: 7;" /><path d="M499,795L484,795L515,790L572,804L545,804L560,804L524,790L595,788L582,804L603,788L610,788L628,788L623,788L618,788L623,788" fill="none" stroke="#000000" style="-webkit-tap-highlight-color: rgba(0, 0, 0, 0); stroke-linecap: round; stroke-linejoin: round; stroke-width: 7;" /><path d="M491.87,767.37L497,765L499,765L504,765L512,765L522,765L535,765L550,762L567,762L590,759" fill="none" stroke="#000000" style="-webkit-tap-highlight-color: rgba(0, 0, 0, 0); stroke-linecap: round; stroke-linejoin: round; stroke-width: 7;" /><path d="M603,759L593,759L605,759L607,759L607,759" fill="none" stroke="#000000" style="-webkit-tap-highlight-color: rgba(0, 0, 0, 0); stroke-linecap: round; stroke-linejoin: round; stroke-width: 7;" /><path d="M542.19,709.5L540,707L542,707L537,704L535,704L537,707L535,707L566,711L547,707L578,711L598,704" fill="none" stroke="#000000" style="-webkit-tap-highlight-color: rgba(0, 0, 0, 0); stroke-linecap: round; stroke-linejoin: round; stroke-width: 7;" /><path d="M613,704L620,704L615,704L613,704" fill="none" stroke="#000000" style="-webkit-tap-highlight-color: rgba(0, 0, 0, 0); stroke-linecap: round; stroke-linejoin: round; stroke-width: 7;" /><path d="M501.94,666.73L509,664L515,664L522,664L530,664L550,667L535,664L565,669" fill="none" stroke="#000000" style="-webkit-tap-highlight-color: rgba(0, 0, 0, 0); stroke-linecap: round; stroke-linejoin: round; stroke-width: 7;" /><path d="M582,669L598,669L608,669L615,669L618,669L620,669L618,669" fill="none" stroke="#000000" style="-webkit-tap-highlight-color: rgba(0, 0, 0, 0); stroke-linecap: round; stroke-linejoin: round; stroke-width: 7;" /><path d="M489.36,621.44L492,619L497,619L502,621L512,624L525,624L537,626L542,626L570,626L577,628L586,628" fill="none" stroke="#000000" style="-webkit-tap-highlight-color: rgba(0, 0, 0, 0); stroke-linecap: round; stroke-linejoin: round; stroke-width: 7;" /><path d="M608,632L615,632L620,632L623,632L620,632" fill="none" stroke="#000000" style="-webkit-tap-highlight-color: rgba(0, 0, 0, 0); stroke-linecap: round; stroke-linejoin: round; stroke-width: 7;" /><path d="M519.55,558.55L515,556L517,559L517,556L517,556L525,556L532,559L547,559L570,559L593,559L613,559L645,561L630,559" fill="none" stroke="#000000" style="-webkit-tap-highlight-color: rgba(0, 0, 0, 0); stroke-linecap: round; stroke-linejoin: round; stroke-width: 7;" /><path d="M653,561L658,564L658,566L653,566" fill="none" stroke="#000000" style="-webkit-tap-highlight-color: rgba(0, 0, 0, 0); stroke-linecap: round; stroke-linejoin: round; stroke-width: 7;" /><path d="M441.55,422.68L442,420L442,418L442,415L444,415L449,418L461,411L466,423L472,428L472,430L492,440L487,435L494,443L497,445L505,458L505,458L509,459L510,460L512,465L512,465L522,474L522,474L524,476L538,474L538,475L542,477L544,478L546,479L553,484L551,481L560,491L556,486L564,491L566,491L578,491L578,491L582,490L585,492L593,495L595,494L597,495L597,495L603,496" fill="none" stroke="#000000" style="-webkit-tap-highlight-color: rgba(0, 0, 0, 0); stroke-linecap: round; stroke-linejoin: round; stroke-width: 7;" /><path d="M605,496L610,495L613,495L615,495L619,493L623,490L628,490L630,490L634,492L635,493L638,493L640,493L644,493L643,493L648,494" fill="none" stroke="#000000" style="-webkit-tap-highlight-color: rgba(0, 0, 0, 0); stroke-linecap: round; stroke-linejoin: round; stroke-width: 7;" /><path d="M647.86,314.5L647,314L652,314L662,314L679,312L693,311L703,314" fill="none" stroke="#000000" style="-webkit-tap-highlight-color: rgba(0, 0, 0, 0); stroke-linecap: round; stroke-linejoin: round; stroke-width: 7;" /><path d="M703,314L703,314L703,314L703,314" fill="none" stroke="#000000" style="-webkit-tap-highlight-color: rgba(0, 0, 0, 0); stroke-linecap: round; stroke-linejoin: round; stroke-width: 7;" /><path d="M371.11,322.04L369,323L373,323L399,324L385,324" fill="none" stroke="#000000" style="-webkit-tap-highlight-color: rgba(0, 0, 0, 0); stroke-linecap: round; stroke-linejoin: round; stroke-width: 7;" /><path d="M406,324L424,330L429,330" fill="none" stroke="#000000" style="-webkit-tap-highlight-color: rgba(0, 0, 0, 0); stroke-linecap: round; stroke-linejoin: round; stroke-width: 7;" /><path d="M116.99,357.27L117,352L112,352L114,352L107,352L102,355L97,357L89,360L84,362L79,365L74,367L72,370L67,372L69,370L64,372L59,375L49,375L54,375L42,375" fill="none" stroke="#000000" style="-webkit-tap-highlight-color: rgba(0, 0, 0, 0); stroke-linecap: round; stroke-linejoin: round; stroke-width: 7;" /><path d="M36,377L31,377L19,387L19,387L19,387L6,390L17,388L1,392L1.26,412.62" fill="none" stroke="#000000" style="-webkit-tap-highlight-color: rgba(0, 0, 0, 0); stroke-linecap: round; stroke-linejoin: round; stroke-width: 7;" /><path d="M157.25,251.6L160,244L162,244L162,244L162,244L160,244L157,243L155,243L142,249L135,252L125,254L117,259L107,264L109,262L104,267L99,269L94,274L97,272L92,277L89,279L89,284L89,282" fill="none" stroke="#000000" style="-webkit-tap-highlight-color: rgba(0, 0, 0, 0); stroke-linecap: round; stroke-linejoin: round; stroke-width: 7;" /><path d="M89,289L92,292L92,302L92,297L92,307L89,312L89,320L89,325L89,330L89,337L92,345L92,350L92,340L92,352L92,355L92,357L92,360L94,360" fill="none" stroke="#000000" style="-webkit-tap-highlight-color: rgba(0, 0, 0, 0); stroke-linecap: round; stroke-linejoin: round; stroke-width: 7;" /><path d="M179.89,1049.16L185,1047L190,1044L192,1042L192,1047L187,1049L182,1054L175,1062L165,1069L155,1079L145,1087L137,1097L132,1102L127,1107L122,1112L117,1115L109,1120L102,1122L94,1127L89,1130L82,1130L77,1132L74,1135L69,1137L64,1140L59,1145L54,1147L47,1152" fill="none" stroke="#000000" style="-webkit-tap-highlight-color: rgba(0, 0, 0, 0); stroke-linecap: round; stroke-linejoin: round; stroke-width: 7;" /><path d="M36,1162L42,1157L29,1167L31,1165L24,1172L26,1170L29,1170L39,1165L44,1165" fill="none" stroke="#000000" style="-webkit-tap-highlight-color: rgba(0, 0, 0, 0); stroke-linecap: round; stroke-linejoin: round; stroke-width: 7;" /><path d="M220.15,1061.74L220,1059L223,1062L228,1064L235,1067L245,1067L258,1069L283,1069L270,1069L298,1069L311,1069L321,1069L343,1069L333,1069L353,1069L364,1069L381,1069L371,1069L389,1069L404,1069L396,1069L419,1069L411,1069L426,1069L434,1069L442,1069L449,1069L459,1069L467,1069L474,1069L484,1067L492,1067L502,1067L520,1067L512,1067L536,1054L536,1054L536,1054L552,1064L565,1062L557,1064L572,1062L582,1062L590,1062L598,1062L613,1062L605,1062L620,1062L630,1062L638,1062L645,1062L658,1062L648,1062L665,1062L676,1062L686,1062L696,1062L716,1062L723,1062L706,1062L731,1062" fill="none" stroke="#000000" style="-webkit-tap-highlight-color: rgba(0, 0, 0, 0); stroke-linecap: round; stroke-linejoin: round; stroke-width: 7;" /><path d="M738,1062L759,1064L751,1062L746,1062L779,1067L771,1064L786,1067L766,1064L804,1072L791,1067L796,1069L801,1069L806,1072L809,1072L814,1072L811,1072L816,1074L816,1072L859.2,1107.03L854,1105L869,1110L862,1107L882,1115L899,1122L912,1127L917,1127" fill="none" stroke="#000000" style="-webkit-tap-highlight-color: rgba(0, 0, 0, 0); stroke-linecap: round; stroke-linejoin: round; stroke-width: 7;" /><path d="M930,1135L927,1132L940,1140L935,1137L942,1145L942,1142L942,1147" fill="none" stroke="#000000" style="-webkit-tap-highlight-color: rgba(0, 0, 0, 0); stroke-linecap: round; stroke-linejoin: round; stroke-width: 7;" /><path d="M21.39,1290.69L21,1288L21,1286L21,1283L24,1283L26,1283L31,1283L42,1283L59,1283L77,1286L92,1286L109,1286L125,1286L140,1286L152,1286L165,1286L177,1286L187,1286L198,1286L205,1286L220,1283L213,1286L228,1283L240,1283L253,1283L278,1283L268,1283L288,1283L306,1281L296,1283L316,1281L326,1281L348,1281L338,1281L371,1281L359,1281L381,1281L401,1278L411,1278L391,1278L431,1276L442,1276L452,1273L421,1278L472,1271L462,1273L494,1271L482,1271L540,1271L515,1271L504,1271L527,1271L567,1271L552,1271L582,1268L593,1268L595,1268L638,1268L625,1268L610,1268L653,1268L668,1268L693,1268L681,1268L701,1268L706,1268L716,1271L723,1271L726,1271L746,1271L736,1271L756,1271L764,1271L779,1271L771,1271L786,1271L794,1271L801,1273L806,1273L814,1273L821,1273" fill="none" stroke="#000000" style="-webkit-tap-highlight-color: rgba(0, 0, 0, 0); stroke-linecap: round; stroke-linejoin: round; stroke-width: 7;" /><path d="M829,1273L839,1276L847,1276L854,1276L869,1276L862,1276L877,1276L887,1276L894,1276L902,1276L910,1276L927,1276L920,1276L915,1276L935,1276L955,1273L942,1276L950,1273L962,1273L970,1273L972,1273L967,1273L975,1273L977,1273L980,1273L980,1276L982,1276L980,1278L982,1278" fill="none" stroke="#000000" style="-webkit-tap-highlight-color: rgba(0, 0, 0, 0); stroke-linecap: round; stroke-linejoin: round; stroke-width: 7;" /><path d="M901.98,553.51L903,544L903,544L902,543L903,544L903,544L904,544L907,559L910,561L910,569L912,574L915,579L915,584L917,586L920,586L920,584L920,581L920,579L917,574L920,549L917,569L923,550L913,542L903,535L907,535L899,523L898,512L898,521L899,523L898,521L897,523L884,513L882,516L897,523L879,518L877,521L874,523L872,528L867,531L864,536L859,541L862,538L854,541L847,538L849,541L852,541L842,533L839,528L837,516L839,521L837,508L837,486L834,501L834,493L837,481L837,470L837,476L839,465L839,463L839,450L839,453L839,458L839,455L839,448L839,445L842,445L842,443L844,443L844,440L849,438L847,440L849,435L852,435L857,430L854,433L859,428L862,425L864,425L864,423L864,420L859,418L862,420L857,415L854,413L852,408L854,410L849,400L849,405L849,398L847,392L847,390L847,385L847,382L847,380L849,377L849,372L849,370L859,357L859,357L859,357L859,357L859,357L860,356L859,357L852,345L852,342" fill="none" stroke="#000000" style="-webkit-tap-highlight-color: rgba(0, 0, 0, 0); stroke-linecap: round; stroke-linejoin: round; stroke-width: 7;" /><path d="M849,340L847,335L849,337L844,330L844,327L842,322L842,317L842,314L839,307L842,312L839,304L837,302L837,297L837,294L837,289L839,284L839,279L839,274L839,267L839,269L837,262L837,257L837,249L837,254L834,247L834,244L826,239L832,242L824,237L824,234L821,231L821,226L826,224L832,216L837,211L839,209L842,206L837,209L834,211L832,216L829,216" fill="none" stroke="#000000" style="-webkit-tap-highlight-color: rgba(0, 0, 0, 0); stroke-linecap: round; stroke-linejoin: round; stroke-width: 7;" /><path d="M954.81,455.39L954,453L954,453L955,461L955,461" fill="none" stroke="#000000" style="-webkit-tap-highlight-color: rgba(0, 0, 0, 0); stroke-linecap: round; stroke-linejoin: round; stroke-width: 7;" /></svg>