<?xml version="1.0" encoding="utf-8" ?>
<svg baseProfile="full" height="1424" version="1.1" width="1024" xmlns="http://www.w3.org/2000/svg" xmlns:ev="http://www.w3.org/2001/xml-events" xmlns:xlink="http://www.w3.org/1999/xlink"><defs /><path d="M166.03,146.74L167.1,148.89L167.1,151.03L167.1,153.17L167.1,155.31L166.03,157.46L164.95,160.67L162.81,166.03L162.81,171.38L163.88,176.74L163.88,182.09L162.81,186.38L162.81,190.66L161.74,193.87L160.67,205.66L160.67,208.87L160.67,212.08L160.67,215.3L160.67,218.51L160.67,220.65L159.6,224.94L159.6,226.01L160.67,228.15L160.67,230.29L160.67,233.51L160.67,236.72L161.74,238.86L161.74,242.08L161.74,243.15L161.74,245.29L162.81,246.36L162.81,247.43" fill="none" stroke="#000000" style="-webkit-tap-highlight-color: rgba(0, 0, 0, 0); stroke-linecap: round; stroke-linejoin: round; stroke-width: 7;" /><path d="M111.4,245.29L113.54,245.29L116.75,244.22L123.18,243.15L129.61,242.08L137.1,241L148.89,238.86L155.31,237.79L160.67,236.72L166.03,237.79L170.31,238.86L174.59,238.86L179.95,238.86L181.02,238.86" fill="none" stroke="#000000" style="-webkit-tap-highlight-color: rgba(0, 0, 0, 0); stroke-linecap: round; stroke-linejoin: round; stroke-width: 7;" /><path d="M97.47,260.28L98.54,261.36L99.62,262.43L99.62,265.64L100.69,271L99.62,274.21L99.62,276.35L100.69,277.42L100.69,276.35" fill="none" stroke="#000000" style="-webkit-tap-highlight-color: rgba(0, 0, 0, 0); stroke-linecap: round; stroke-linejoin: round; stroke-width: 7;" /><path d="M89.97,276.35L91.05,276.35L95.33,276.35L98.54,276.35L100.69,275.28L102.83,275.28L106.04,273.14" fill="none" stroke="#000000" style="-webkit-tap-highlight-color: rgba(0, 0, 0, 0); stroke-linecap: round; stroke-linejoin: round; stroke-width: 7;" /><path d="M81.41,281.71L83.55,280.64L85.69,279.56L87.83,277.42L93.19,274.21L94.26,274.21L95.33,274.21" fill="none" stroke="#000000" style="-webkit-tap-highlight-color: rgba(0, 0, 0, 0); stroke-linecap: round; stroke-linejoin: round; stroke-width: 7;" /><path d="M82.48,282.78L83.55,283.85L83.55,284.92L83.55,285.99L84.62,288.13L84.62,292.42L84.62,295.63L83.55,300.99L82.48,303.13L82.48,307.41L82.48,310.63L82.48,312.77L82.48,314.91L82.48,317.05L82.48,319.2L82.48,321.34L82.48,322.41L83.55,324.55" fill="none" stroke="#000000" style="-webkit-tap-highlight-color: rgba(0, 0, 0, 0); stroke-linecap: round; stroke-linejoin: round; stroke-width: 7;" /><path d="M88.9,330.98L91.05,330.98L94.26,329.91L96.4,329.91L97.47,329.91L98.54,329.91L99.62,329.91L100.69,328.84L101.76,330.98L101.76,333.12L100.69,335.26L100.69,337.41L100.69,340.62L99.62,344.9L99.62,348.12L98.54,349.19L98.54,351.33L97.47,353.47L97.47,355.62L97.47,356.69L97.47,357.76" fill="none" stroke="#000000" style="-webkit-tap-highlight-color: rgba(0, 0, 0, 0); stroke-linecap: round; stroke-linejoin: round; stroke-width: 7;" /><path d="M11.78,393.1L15,392.03L17.14,392.03L20.35,388.82L25.71,386.68L31.06,383.46L38.56,380.25L52.49,374.9L61.05,371.68L70.69,366.33L79.26,362.04L86.76,358.83L95.33,356.69L98.54,355.62" fill="none" stroke="#000000" style="-webkit-tap-highlight-color: rgba(0, 0, 0, 0); stroke-linecap: round; stroke-linejoin: round; stroke-width: 7;" /><path d="M108.18,249.57L106.04,248.5L104.97,248.5L102.83,249.57L101.76,250.64L99.62,253.86L97.47,260.28L97.47,263.5L96.4,266.71L96.4,269.92" fill="none" stroke="#000000" style="-webkit-tap-highlight-color: rgba(0, 0, 0, 0); stroke-linecap: round; stroke-linejoin: round; stroke-width: 7;" /><path d="M174.59,141.39L176.74,142.46L178.88,144.6L181.02,146.74L185.31,147.82L188.52,147.82L190.66,148.89L192.8,149.96L193.87,149.96L198.16,151.03L200.3,152.1L202.44,153.17L203.51,154.24L204.59,156.38L205.66,157.46L205.66,158.53L206.73,159.6L207.8,160.67L209.94,161.74L211.01,161.74L212.08,162.81L213.15,163.88L216.37,166.03L219.58,164.95L221.72,164.95L222.79,163.88L223.87,163.88L226.01,162.81L228.15,161.74L230.29,161.74L232.44,160.67L234.58,158.53" fill="none" stroke="#000000" style="-webkit-tap-highlight-color: rgba(0, 0, 0, 0); stroke-linecap: round; stroke-linejoin: round; stroke-width: 7;" /><path d="M243.15,162.81L246.36,160.67L250.64,157.46L254.93,154.24L260.28,151.03L267.78,146.74L274.21,144.6L279.56,141.39L284.92,138.18L290.28,134.96L293.49,136.03L296.7,137.1L298.85,137.1" fill="none" stroke="#000000" style="-webkit-tap-highlight-color: rgba(0, 0, 0, 0); stroke-linecap: round; stroke-linejoin: round; stroke-width: 7;" /><path d="M294.56,133.89L295.63,134.96L299.92,134.96L304.2,134.96L311.7,133.89L319.2,130.68L332.05,126.39L340.62,124.25L349.19,123.18L356.69,123.18L367.4,123.18L374.9,123.18L380.25,122.11L385.61,122.11L389.89,123.18L394.18,123.18L400.6,123.18L405.96,123.18L411.31,123.18L417.74,124.25L420.95,125.32L425.24,125.32L428.45,127.46L432.74,128.54L438.09,130.68L442.38,131.75L445.59,132.82L450.95,130.68L456.3,129.61L459.51,130.68L463.8,131.75L467.01,131.75L470.23,131.75L476.65,131.75L478.79,131.75L490.58,131.75L495.93,131.75" fill="none" stroke="#000000" style="-webkit-tap-highlight-color: rgba(0, 0, 0, 0); stroke-linecap: round; stroke-linejoin: round; stroke-width: 7;" /><path d="M479.87,127.46L482.01,127.46L484.15,127.46L486.29,128.54L489.51,130.68L490.58,130.68L493.79,131.75L502.36,132.82L505.57,132.82L512,131.75L519.5,128.54L525.92,126.39L532.35,124.25L540.92,123.18L544.13,122.11L555.92,121.04L562.34,118.9L573.05,117.82L582.69,115.68L588.05,115.68L594.48,115.68L599.83,114.61L605.19,113.54L610.54,113.54L615.9,112.47L621.26,112.47L625.54,111.4L633.04,110.33L642.68,110.33L648.03,110.33L652.32,110.33L655.53,110.33L659.82,110.33L665.17,110.33L669.46,110.33L673.74,111.4L681.24,112.47L684.45,112.47L688.74,112.47L694.09,112.47L699.45,111.4L703.73,110.33L714.44,109.26L718.73,109.26L726.23,108.18L730.51,108.18L734.79,109.26L739.08,109.26L743.36,109.26L746.58,110.33L750.86,111.4L754.08,112.47L760.5,113.54L763.72,113.54L768,113.54L771.21,114.61L775.5,115.68L779.78,115.68L783,115.68L787.28,115.68L789.42,115.68L792.64,114.61L793.71,114.61L796.92,113.54L799.06,113.54L800.13,112.47L801.21,112.47L803.35,112.47L805.49,112.47L807.63,112.47L809.77,112.47L811.92,112.47L812.99,113.54L815.13,113.54L816.2,114.61L817.27,115.68L819.41,116.75L821.56,117.82L823.7,118.9L824.77,119.97L825.84,119.97L825.84,121.04" fill="none" stroke="#000000" style="-webkit-tap-highlight-color: rgba(0, 0, 0, 0); stroke-linecap: round; stroke-linejoin: round; stroke-width: 7;" /><path d="M815.13,116.75L816.2,115.68L817.27,115.68L818.34,115.68L819.41,116.75L820.49,116.75L823.7,117.82L825.84,118.9L829.05,118.9L831.2,119.97L833.34,119.97L835.48,119.97L836.55,121.04L838.69,122.11L839.77,123.18L839.77,125.32L839.77,127.46L839.77,131.75L839.77,134.96L840.84,137.1L840.84,142.46L840.84,145.67L840.84,147.82L840.84,149.96L841.91,152.1L841.91,155.31L841.91,158.53L841.91,160.67L841.91,161.74L841.91,162.81L841.91,163.88L841.91,166.03L842.98,167.1L842.98,168.17L844.05,169.24L845.12,171.38L845.12,172.45L846.19,173.52L847.26,174.59L847.26,175.67L848.33,177.81L849.41,179.95L850.48,182.09L851.55,184.23L852.62,186.38L853.69,188.52L854.76,189.59L856.9,191.73L859.05,193.87L861.19,194.95L863.33,196.02L864.4,197.09L865.47,197.09L867.62,197.09L868.69,197.09L869.76,196.02L870.83,196.02L872.97,194.95L874.04,194.95L876.18,193.87L878.33,192.8L879.4,192.8L882.61,192.8L884.75,192.8L886.9,190.66L887.97,190.66L889.04,189.59L890.11,189.59L893.32,188.52L894.39,187.45L896.54,186.38L897.61,186.38L901.89,186.38L902.96,186.38L905.1,186.38L906.18,187.45L907.25,188.52L908.32,188.52L909.39,188.52L910.46,189.59L910.46,190.66L911.53,190.66L912.6,191.73L915.82,191.73L916.89,192.8L917.96,192.8L917.96,193.87L919.03,194.95L920.1,197.09L921.17,197.09L921.17,199.23L921.17,201.37L922.24,202.44L922.24,203.51L922.24,204.59L922.24,206.73L922.24,207.8L923.31,209.94L923.31,212.08L924.38,213.15L924.38,214.23L925.46,215.3L925.46,216.37L924.38,217.44L924.38,219.58L924.38,220.65L924.38,222.79L925.46,224.94L926.53,227.08L927.6,229.22L928.67,229.22L929.74,230.29L930.81,231.36L931.88,232.44L932.95,233.51L932.95,234.58L934.03,235.65L935.1,236.72L936.17,237.79L936.17,238.86L936.17,241L936.17,242.08L936.17,244.22L937.24,245.29L937.24,246.36L937.24,250.64L937.24,251.72L938.31,253.86L938.31,254.93L939.38,256L939.38,258.14L939.38,259.21L939.38,260.28L939.38,262.43L939.38,264.57L939.38,266.71L939.38,268.85L939.38,272.07L939.38,275.28L938.31,280.64L938.31,282.78L939.38,284.92L939.38,287.06L940.45,287.06L940.45,288.13L941.52,289.21L941.52,290.28L942.59,291.35L943.67,292.42L944.74,293.49L945.81,293.49L946.88,294.56L947.95,295.63L949.02,297.77L949.02,298.85L949.02,299.92L949.02,300.99L949.02,303.13L949.02,305.27L949.02,306.34L950.09,308.49L951.16,309.56L951.16,311.7L951.16,313.84L951.16,314.91L951.16,318.13L951.16,319.2L952.23,321.34L952.23,322.41L953.31,324.55L953.31,325.62L954.38,327.77L955.45,328.84L957.59,330.98L958.66,333.12L958.66,334.19L958.66,335.26L959.73,341.69L959.73,345.97L959.73,348.12L959.73,351.33L959.73,353.47L959.73,356.69L959.73,357.76L959.73,359.9L959.73,362.04L958.66,364.18L958.66,365.26L958.66,368.47L958.66,370.61L958.66,373.82L958.66,375.97L959.73,377.04L959.73,379.18L959.73,381.32L959.73,382.39L960.8,384.54L961.87,386.68L962.95,388.82L964.02,388.82L964.02,389.89L965.09,392.03L965.09,393.1L965.09,395.25L965.09,396.32L965.09,397.39L965.09,399.53L965.09,401.67L965.09,403.82L965.09,405.96L965.09,408.1L965.09,411.31L965.09,412.38L965.09,416.67L965.09,418.81L966.16,418.81L966.16,419.88L966.16,422.03L965.09,424.17L965.09,426.31L964.02,429.52L964.02,431.67L964.02,432.74L964.02,435.95L964.02,438.09L962.95,440.23L961.87,441.31L961.87,442.38L961.87,444.52L960.8,445.59L959.73,447.73L959.73,448.8L958.66,450.95L958.66,454.16L958.66,455.23L958.66,458.44L958.66,459.51L957.59,461.66L958.66,463.8L958.66,464.87L958.66,465.94L959.73,465.94L961.87,465.94" fill="none" stroke="#000000" style="-webkit-tap-highlight-color: rgba(0, 0, 0, 0); stroke-linecap: round; stroke-linejoin: round; stroke-width: 7;" /><path d="M976.87,459.51L976.87,458.44L976.87,457.37L977.94,456.3L979.01,457.37L979.01,458.44L980.08,459.51L982.23,461.66L984.37,463.8L989.72,467.01L991.87,468.08L997.22,470.23L999.36,471.3L1004.72,472.37L1007.93,473.44L1011.15,474.51L1015.43,475.58L1017.57,475.58L1020.79,476.65L1022.93,477.72" fill="none" stroke="#000000" style="-webkit-tap-highlight-color: rgba(0, 0, 0, 0); stroke-linecap: round; stroke-linejoin: round; stroke-width: 7;" /><path d="M338.48,264.57L339.55,265.64L340.62,265.64L344.9,265.64L349.19,264.57L354.54,264.57L360.97,264.57L368.47,263.5L375.97,263.5L384.54,262.43L392.03,262.43L401.67,262.43L418.81,261.36L427.38,261.36L435.95,260.28L445.59,260.28L455.23,260.28L463.8,260.28L473.44,259.21L483.08,258.14L492.72,257.07L502.36,256L519.5,253.86L527,253.86L534.49,252.79L541.99,252.79L548.42,252.79L554.85,252.79L560.2,252.79L565.56,252.79L570.91,252.79L583.77,252.79L590.19,253.86L597.69,253.86L605.19,253.86L616.97,253.86L621.26,253.86L652.32,251.72L658.74,251.72" fill="none" stroke="#000000" style="-webkit-tap-highlight-color: rgba(0, 0, 0, 0); stroke-linecap: round; stroke-linejoin: round; stroke-width: 7;" /><path d="M654.46,256L655.53,256L656.6,254.93L658.74,254.93L660.89,253.86L664.1,252.79L667.31,251.72L675.88,249.57L679.1,248.5L683.38,247.43L687.67,246.36L689.81,245.29L693.02,244.22L695.16,242.08L698.38,241L702.66,239.93L704.8,238.86L706.95,237.79L708.02,236.72L712.3,234.58L713.37,234.58L713.37,233.51" fill="none" stroke="#000000" style="-webkit-tap-highlight-color: rgba(0, 0, 0, 0); stroke-linecap: round; stroke-linejoin: round; stroke-width: 7;" /><path d="M704.8,239.93L704.8,241L705.87,242.08L705.87,244.22L705.87,247.43L705.87,250.64L705.87,253.86L705.87,259.21L705.87,265.64L705.87,273.14L705.87,285.99L705.87,295.63L706.95,299.92L708.02,304.2L709.09,308.49L710.16,313.84L710.16,320.27L711.23,330.98L711.23,336.33L710.16,341.69L710.16,345.97L709.09,351.33L709.09,356.69L709.09,362.04L710.16,368.47L711.23,372.75L712.3,385.61L712.3,389.89L712.3,394.18L712.3,397.39L712.3,402.74L712.3,408.1L711.23,412.38L710.16,417.74L710.16,423.1L710.16,425.24L710.16,433.81L710.16,438.09L709.09,440.23L709.09,442.38L709.09,445.59L709.09,450.95L709.09,456.3L709.09,463.8L709.09,470.23L709.09,478.79" fill="none" stroke="#000000" style="-webkit-tap-highlight-color: rgba(0, 0, 0, 0); stroke-linecap: round; stroke-linejoin: round; stroke-width: 7;" /><path d="M714.44,480.94L714.44,482.01L714.44,483.08L714.44,485.22L714.44,489.51L715.51,494.86L716.59,499.15L717.66,504.5L719.8,517.36L720.87,523.78L721.94,530.21L723.01,538.78L723.01,554.85L723.01,562.34L723.01,566.63L723.01,571.98L723.01,577.34L723.01,582.69L723.01,589.12L723.01,595.55L723.01,601.97" fill="none" stroke="#000000" style="-webkit-tap-highlight-color: rgba(0, 0, 0, 0); stroke-linecap: round; stroke-linejoin: round; stroke-width: 7;" /><path d="M719.8,593.41L720.87,594.48L720.87,595.55L723.01,601.97L724.08,605.19L725.15,614.83L726.23,623.4L727.3,633.04L729.44,643.75L729.44,653.39L730.51,656.6L730.51,660.89L730.51,670.53L729.44,685.52L729.44,691.95L729.44,700.52L729.44,709.09L729.44,714.44L729.44,720.87L729.44,727.3L728.37,738.01L727.3,741.22L727.3,745.51L727.3,750.86L726.23,756.22L726.23,760.5L725.15,765.86L725.15,766.93L724.08,769.07L724.08,779.78L724.08,785.14L724.08,788.35L724.08,791.56L725.15,796.92L725.15,799.06L724.08,803.35L724.08,807.63L724.08,809.77L724.08,816.2L724.08,822.63L724.08,827.98L724.08,830.13L724.08,833.34L724.08,835.48L724.08,837.62L724.08,839.77L724.08,841.91L724.08,842.98L725.15,847.26L726.23,849.41" fill="none" stroke="#000000" style="-webkit-tap-highlight-color: rgba(0, 0, 0, 0); stroke-linecap: round; stroke-linejoin: round; stroke-width: 7;" /><path d="M725.15,833.34L725.15,838.69L724.08,840.84L724.08,844.05L725.15,847.26L725.15,848.33L725.15,851.55L725.15,855.83L724.08,861.19L724.08,865.47L723.01,868.69L723.01,871.9L723.01,876.18L723.01,878.33L723.01,881.54L724.08,883.68L724.08,884.75L724.08,887.97L724.08,889.04L725.15,891.18L725.15,893.32L726.23,895.46" fill="none" stroke="#000000" style="-webkit-tap-highlight-color: rgba(0, 0, 0, 0); stroke-linecap: round; stroke-linejoin: round; stroke-width: 7;" /><path d="M333.12,275.28L333.12,274.21L333.12,272.07L334.19,272.07L335.26,274.21L335.26,276.35L334.19,280.64L334.19,287.06L333.12,292.42L333.12,302.06L333.12,309.56L333.12,317.05L333.12,320.27L332.05,327.77L333.12,342.76L333.12,350.26L333.12,357.76L333.12,364.18L333.12,370.61L333.12,375.97L333.12,384.54L333.12,390.96L333.12,395.25L333.12,402.74L334.19,418.81L334.19,426.31L334.19,431.67L335.26,438.09L336.33,444.52L337.41,455.23L337.41,461.66L338.48,470.23L339.55,478.79L340.62,489.51L340.62,501.29L340.62,508.79L340.62,520.57L340.62,525.92L340.62,531.28L340.62,534.49L339.55,541.99L339.55,548.42L339.55,553.77L339.55,559.13L339.55,563.41L339.55,567.7L339.55,574.13L339.55,579.48L339.55,584.84L339.55,588.05L339.55,590.19L340.62,595.55L340.62,606.26L341.69,613.76L341.69,619.11L341.69,626.61L341.69,633.04L341.69,639.46L340.62,646.96L340.62,654.46L341.69,658.74L341.69,663.03L341.69,667.31L341.69,671.6L341.69,674.81L341.69,676.95L341.69,685.52L341.69,691.95L342.76,698.38L342.76,704.8L342.76,710.16L343.83,716.59L343.83,718.73L344.9,729.44L344.9,736.94L344.9,743.36L345.97,750.86L347.05,751.93L347.05,757.29L347.05,760.5L347.05,764.79L347.05,770.14L347.05,778.71L347.05,786.21L347.05,792.64L347.05,797.99L348.12,804.42L348.12,809.77L348.12,817.27L349.19,825.84L349.19,832.27L349.19,836.55L349.19,844.05L349.19,847.26L349.19,851.55L348.12,855.83L349.19,863.33L349.19,866.54L349.19,869.76L350.26,879.4L350.26,880.47L350.26,882.61L350.26,884.75L350.26,885.82L350.26,890.11L350.26,891.18L351.33,892.25L351.33,894.39L352.4,893.32" fill="none" stroke="#000000" style="-webkit-tap-highlight-color: rgba(0, 0, 0, 0); stroke-linecap: round; stroke-linejoin: round; stroke-width: 7;" /><path d="M242.08,212.08L242.08,211.01L242.08,203.51L242.08,198.16L242.08,196.02" fill="none" stroke="#000000" style="-webkit-tap-highlight-color: rgba(0, 0, 0, 0); stroke-linecap: round; stroke-linejoin: round; stroke-width: 7;" /><path d="M242.08,181.02L241,177.81L241,172.45L241,170.31L241,169.24L241,168.17L241,167.1L239.93,171.38L241,177.81L242.08,182.09L242.08,201.37L242.08,212.08L242.08,223.87L242.08,235.65L242.08,246.36L243.15,254.93L243.15,265.64L243.15,278.49L244.22,302.06L244.22,314.91L245.29,325.62L245.29,333.12L245.29,342.76L246.36,351.33L247.43,367.4L247.43,380.25L247.43,386.68L248.5,395.25L248.5,410.24L248.5,420.95L248.5,429.52L248.5,435.95L248.5,440.23L248.5,453.09L248.5,468.08L249.57,477.72L249.57,487.36L250.64,494.86L251.72,513.07L251.72,518.43L252.79,522.71L252.79,530.21L252.79,537.71L252.79,547.35L252.79,550.56L251.72,556.99L250.64,564.49L250.64,569.84L250.64,574.13L250.64,578.41L251.72,584.84L251.72,594.48L252.79,600.9L252.79,607.33L252.79,612.69L252.79,621.26L252.79,626.61L252.79,634.11L252.79,639.46L252.79,645.89L252.79,655.53L252.79,665.17L252.79,667.31L252.79,671.6L253.86,678.03L253.86,687.67L253.86,694.09L254.93,701.59L254.93,706.95L256,713.37L256,718.73L256,726.23L256,733.72L256,741.22L254.93,748.72L256,755.15L256,760.5L256,768L256,775.5L256,787.28L254.93,793.71L254.93,799.06L253.86,807.63L253.86,814.06L253.86,822.63L253.86,829.05L253.86,835.48L252.79,839.77L252.79,847.26L252.79,852.62L252.79,857.97L252.79,861.19L252.79,863.33L253.86,863.33" fill="none" stroke="#000000" style="-webkit-tap-highlight-color: rgba(0, 0, 0, 0); stroke-linecap: round; stroke-linejoin: round; stroke-width: 7;" /><path d="M802.28,220.65L803.35,223.87L803.35,232.44L804.42,242.08L805.49,249.57L805.49,265.64L804.42,283.85L804.42,293.49L804.42,300.99L803.35,309.56L803.35,328.84L802.28,338.48L802.28,347.05L801.21,360.97L801.21,370.61L801.21,383.46L800.13,389.89L800.13,396.32L800.13,407.03L801.21,417.74L801.21,434.88L801.21,438.09L801.21,454.16L801.21,465.94L801.21,479.87L801.21,487.36L802.28,495.93L802.28,504.5L802.28,512L803.35,518.43L803.35,527L803.35,534.49L803.35,541.99L803.35,551.63L804.42,562.34L804.42,568.77L805.49,575.2L805.49,584.84L806.56,599.83L806.56,608.4L807.63,615.9L807.63,624.47L807.63,635.18L807.63,650.18L807.63,659.82L806.56,669.46L806.56,674.81" fill="none" stroke="#000000" style="-webkit-tap-highlight-color: rgba(0, 0, 0, 0); stroke-linecap: round; stroke-linejoin: round; stroke-width: 7;" /><path d="M810.85,661.96L809.77,663.03L809.77,664.1L808.7,665.17L808.7,666.24L808.7,667.31L808.7,670.53L807.63,675.88L807.63,682.31L807.63,689.81L807.63,695.16L808.7,702.66L808.7,706.95L808.7,710.16L808.7,713.37L808.7,716.59L808.7,720.87L808.7,725.15L809.77,727.3L809.77,731.58L809.77,741.22L810.85,743.36L810.85,746.58L810.85,747.65L809.77,750.86L809.77,754.08L809.77,756.22L809.77,758.36L809.77,759.43L808.7,759.43L809.77,757.29" fill="none" stroke="#000000" style="-webkit-tap-highlight-color: rgba(0, 0, 0, 0); stroke-linecap: round; stroke-linejoin: round; stroke-width: 7;" /><path d="M806.56,768L807.63,768L810.85,766.93L815.13,765.86L820.49,766.93L822.63,768L825.84,769.07L826.91,770.14L827.98,770.14L825.84,770.14" fill="none" stroke="#000000" style="-webkit-tap-highlight-color: rgba(0, 0, 0, 0); stroke-linecap: round; stroke-linejoin: round; stroke-width: 7;" /><path d="M802.28,772.28L801.21,774.43L800.13,779.78L799.06,784.07L799.06,789.42L797.99,794.78L797.99,800.13L796.92,809.77L795.85,811.92L794.78,820.49L793.71,827.98L792.64,839.77L792.64,845.12L791.56,850.48L791.56,854.76L791.56,854.76L790.49,854.76L790.49,853.69L790.49,849.41" fill="none" stroke="#000000" style="-webkit-tap-highlight-color: rgba(0, 0, 0, 0); stroke-linecap: round; stroke-linejoin: round; stroke-width: 7;" /><path d="M794.78,831.2L795.85,834.41L795.85,837.62L796.92,844.05L796.92,848.33L797.99,859.05L797.99,864.4L799.06,878.33L799.06,885.82L799.06,890.11L799.06,895.46L799.06,899.75L799.06,906.18L799.06,913.67L797.99,916.89L797.99,919.03L796.92,920.1L796.92,921.17L797.99,920.1L799.06,921.17" fill="none" stroke="#000000" style="-webkit-tap-highlight-color: rgba(0, 0, 0, 0); stroke-linecap: round; stroke-linejoin: round; stroke-width: 7;" /><path d="M800.13,911.53L802.28,914.74L805.49,922.24L806.56,927.6L808.7,936.17L809.77,941.52L810.85,945.81L812.99,956.52L814.06,961.87L815.13,965.09L817.27,969.37L818.34,971.51L819.41,974.73L820.49,975.8L821.56,979.01L822.63,981.15L823.7,984.37L823.7,990.79L824.77,992.94L824.77,997.22L825.84,1000.44L825.84,1003.65L825.84,1010.08L825.84,1013.29L825.84,1016.5L825.84,1019.72L825.84,1021.86L825.84,1029.36L825.84,1031.5L825.84,1035.78L824.77,1037.92L825.84,1042.21L825.84,1045.42L824.77,1048.64L824.77,1051.85L824.77,1053.99L824.77,1058.28L824.77,1061.49L825.84,1064.7L826.91,1066.85L826.91,1067.92" fill="none" stroke="#000000" style="-webkit-tap-highlight-color: rgba(0, 0, 0, 0); stroke-linecap: round; stroke-linejoin: round; stroke-width: 7;" /><path d="M252.79,901.89L253.86,899.75L257.07,898.68L262.43,897.61L268.85,895.46L276.35,896.54L282.78,896.54L290.28,897.61L297.77,897.61L306.34,897.61L322.41,898.68L328.84,899.75L332.05,900.82L336.33,900.82L339.55,899.75L344.9,897.61L350.26,894.39" fill="none" stroke="#000000" style="-webkit-tap-highlight-color: rgba(0, 0, 0, 0); stroke-linecap: round; stroke-linejoin: round; stroke-width: 7;" /><path d="M241,905.1L243.15,902.96L244.22,905.1L243.15,908.32L243.15,909.39L242.08,911.53L237.79,916.89L236.72,922.24L235.65,927.6L235.65,934.03L235.65,937.24L235.65,939.38L235.65,941.52L234.58,941.52L232.44,940.45L230.29,940.45L228.15,939.38L226.01,939.38L223.87,937.24L221.72,938.31L218.51,939.38L217.44,941.52L215.3,942.59L214.23,945.81L213.15,950.09L212.08,952.23L211.01,955.45L211.01,959.73L211.01,962.95L211.01,968.3L209.94,972.59L209.94,974.73L209.94,977.94L209.94,981.15L209.94,987.58L209.94,991.87L209.94,992.94L209.94,995.08L208.87,999.36L207.8,1005.79L205.66,1007.93L204.59,1009L203.51,1011.15L203.51,1014.36L202.44,1016.5L203.51,1018.64L202.44,1021.86L201.37,1024L200.3,1025.07L199.23,1026.14L197.09,1028.28L196.02,1028.28L194.95,1030.43L193.87,1030.43L193.87,1032.57L192.8,1035.78L192.8,1037.92L192.8,1041.14L192.8,1043.28L192.8,1044.35L191.73,1051.85L191.73,1053.99L191.73,1056.13L192.8,1059.35L192.8,1066.85L192.8,1074.34L193.87,1075.41L194.95,1079.7" fill="none" stroke="#000000" style="-webkit-tap-highlight-color: rgba(0, 0, 0, 0); stroke-linecap: round; stroke-linejoin: round; stroke-width: 7;" /><path d="M169.24,293.49L168.17,294.56L167.1,296.7L167.1,299.92" fill="none" stroke="#000000" style="-webkit-tap-highlight-color: rgba(0, 0, 0, 0); stroke-linecap: round; stroke-linejoin: round; stroke-width: 7;" /><path d="M173.52,298.85L173.52,297.77L172.45,297.77L172.45,296.7L172.45,297.77L172.45,303.13L172.45,314.91L172.45,326.69L172.45,336.33L172.45,352.4L172.45,359.9L173.52,372.75L173.52,380.25L174.59,386.68L175.67,392.03L175.67,394.18L176.74,410.24L176.74,419.88L177.81,427.38L176.74,437.02L176.74,443.45L176.74,452.02L176.74,462.73L176.74,472.37L176.74,484.15L175.67,490.58L173.52,498.08L173.52,504.5L173.52,517.36L173.52,520.57L173.52,527L173.52,532.35L173.52,539.85L173.52,551.63L174.59,558.06L174.59,564.49L174.59,566.63L174.59,569.84L173.52,577.34L172.45,590.19L172.45,599.83L171.38,607.33L170.31,611.62L170.31,618.04L169.24,625.54L168.17,636.25L168.17,640.54L168.17,643.75L170.31,640.54" fill="none" stroke="#000000" style="-webkit-tap-highlight-color: rgba(0, 0, 0, 0); stroke-linecap: round; stroke-linejoin: round; stroke-width: 7;" /><path d="M182.09,290.28L181.02,290.28L182.09,289.21L182.09,288.13L184.23,287.06L187.45,287.06L190.66,285.99L196.02,284.92L198.16,285.99L200.3,287.06L201.37,288.13L204.59,291.35L204.59,292.42L206.73,293.49L208.87,294.56L209.94,296.7L211.01,299.92L211.01,300.99L212.08,303.13L214.23,306.34L215.3,308.49L216.37,313.84L216.37,317.05L216.37,322.41L216.37,326.69L217.44,332.05L217.44,335.26L217.44,338.48L217.44,342.76L217.44,345.97L217.44,351.33L217.44,362.04L217.44,372.75L217.44,378.11L217.44,386.68L218.51,390.96L218.51,401.67L219.58,411.31L219.58,423.1L219.58,429.52L220.65,444.52L220.65,455.23L221.72,465.94L221.72,474.51L221.72,483.08L221.72,495.93L222.79,505.57L222.79,514.14L222.79,520.57L223.87,531.28L222.79,538.78L222.79,547.35L222.79,553.77L223.87,560.2L224.94,565.56L226.01,573.05L226.01,577.34L226.01,581.62L226.01,584.84L227.08,594.48L227.08,600.9L227.08,606.26L227.08,611.62L227.08,616.97L227.08,623.4L226.01,627.68L226.01,633.04L227.08,639.46L227.08,646.96L226.01,651.25L224.94,663.03L224.94,667.31L224.94,672.67L224.94,676.95L223.87,681.24L223.87,689.81L223.87,694.09L224.94,698.38L224.94,702.66L224.94,704.8L224.94,708.02L224.94,712.3L224.94,716.59L224.94,719.8L224.94,726.23L224.94,730.51L224.94,734.79L224.94,738.01L224.94,741.22L224.94,745.51L226.01,747.65L226.01,748.72L227.08,750.86L227.08,754.08L227.08,755.15L228.15,757.29L228.15,759.43L228.15,760.5L229.22,762.64L229.22,766.93L230.29,768L230.29,769.07L231.36,771.21L232.44,772.28L233.51,774.43L233.51,776.57L235.65,779.78L236.72,784.07L236.72,785.14L237.79,787.28L237.79,788.35L238.86,791.56L238.86,792.64L239.93,794.78L241,795.85L242.08,796.92L242.08,799.06L243.15,801.21L244.22,802.28L245.29,802.28L246.36,803.35" fill="none" stroke="#000000" style="-webkit-tap-highlight-color: rgba(0, 0, 0, 0); stroke-linecap: round; stroke-linejoin: round; stroke-width: 7;" /><path d="M3.21,578.41L4.28,578.41L6.43,579.48L9.64,579.48L15,578.41L19.28,577.34L24.64,578.41L31.06,580.55L35.35,582.69L48.2,591.26L55.7,596.62L61.05,600.9L67.48,605.19L72.84,608.4L81.41,610.54L89.97,613.76L97.47,614.83L104.97,616.97L111.4,618.04L123.18,621.26L129.61,622.33L134.96,624.47L140.32,625.54L144.6,627.68L147.82,628.75L152.1,630.9L156.38,633.04L162.81,635.18L167.1,637.32L169.24,637.32L174.59,636.25" fill="none" stroke="#000000" style="-webkit-tap-highlight-color: rgba(0, 0, 0, 0); stroke-linecap: round; stroke-linejoin: round; stroke-width: 7;" /><path d="M156.38,1073.27L155.31,1075.41L153.17,1077.56L151.03,1079.7L147.82,1083.98L134.96,1095.77L125.32,1102.19L117.82,1108.62L109.26,1115.05L99.62,1119.33L93.19,1123.62L80.33,1135.4L70.69,1141.82L61.05,1147.18L54.63,1153.61L39.63,1167.53L33.21,1175.03L25.71,1183.6L18.21,1187.88L13.92,1191.1L11.78,1195.38L10.71,1195.38" fill="none" stroke="#000000" style="-webkit-tap-highlight-color: rgba(0, 0, 0, 0); stroke-linecap: round; stroke-linejoin: round; stroke-width: 7;" /><path d="M26.78,1227.51L25.71,1227.51L22.49,1227.51L20.35,1227.51L21.42,1227.51L22.49,1226.44L27.85,1225.37L34.28,1224.3L41.77,1224.3L49.27,1224.3L54.63,1224.3L61.05,1224.3L72.84,1224.3L81.41,1225.37L84.62,1225.37L93.19,1226.44L111.4,1229.66L119.97,1229.66L129.61,1229.66L139.25,1229.66L148.89,1229.66L158.53,1229.66L167.1,1229.66L177.81,1229.66L189.59,1229.66L205.66,1227.51L216.37,1226.44L227.08,1226.44L253.86,1226.44L262.43,1227.51L266.71,1228.59L274.21,1229.66L278.49,1229.66L294.56,1230.73L304.2,1231.8L314.91,1231.8L325.62,1232.87L336.33,1233.94L353.47,1235.01L359.9,1236.08L377.04,1238.23L395.25,1239.3L412.38,1241.44L428.45,1243.58L444.52,1243.58L460.59,1243.58L484.15,1240.37L499.15,1239.3L513.07,1238.23L525.92,1237.15L545.21,1236.08L554.85,1236.08L564.49,1236.08L576.27,1236.08L589.12,1236.08L600.9,1236.08L611.62,1236.08L623.4,1236.08L636.25,1236.08L661.96,1233.94L674.81,1232.87L688.74,1232.87L702.66,1232.87L717.66,1231.8L731.58,1230.73L745.51,1230.73L759.43,1229.66L772.28,1228.59L793.71,1226.44L815.13,1224.3L829.05,1222.16L842.98,1220.02L856.9,1217.87L869.76,1216.8L882.61,1214.66L894.39,1212.52L905.1,1211.45L915.82,1211.45L932.95,1210.38L941.52,1210.38L949.02,1210.38L953.31,1211.45" fill="none" stroke="#000000" style="-webkit-tap-highlight-color: rgba(0, 0, 0, 0); stroke-linecap: round; stroke-linejoin: round; stroke-width: 7;" /><path d="M834.41,1073.27L833.34,1075.41L832.27,1079.7L832.27,1080.77L834.41,1081.84L835.48,1080.77L839.77,1082.91L842.98,1085.05L845.12,1085.05L849.41,1086.13L853.69,1086.13L857.97,1087.2L863.33,1092.55L864.4,1093.62L865.47,1094.69L867.62,1095.77L868.69,1096.84L869.76,1096.84L871.9,1097.91L876.18,1098.98L878.33,1098.98L881.54,1100.05L883.68,1101.12L885.82,1103.26L887.97,1106.48L891.18,1109.69L893.32,1110.76L894.39,1111.83L897.61,1113.97L899.75,1116.12L902.96,1118.26L906.18,1123.62L910.46,1130.04L913.67,1133.26L915.82,1136.47L919.03,1140.75L922.24,1143.97L927.6,1148.25L931.88,1153.61L936.17,1157.89L939.38,1164.32L944.74,1172.89L947.95,1177.17L952.23,1181.46L955.45,1184.67L958.66,1186.81L961.87,1190.03L967.23,1192.17L969.37,1195.38L971.51,1197.52L974.73,1201.81L976.87,1205.02L979.01,1208.23L981.15,1211.45L982.23,1213.59L983.3,1216.8L983.3,1217.87L982.23,1218.95L980.08,1220.02L977.94,1222.16L973.66,1225.37" fill="none" stroke="#000000" style="-webkit-tap-highlight-color: rgba(0, 0, 0, 0); stroke-linecap: round; stroke-linejoin: round; stroke-width: 7;" /><path d="M16.07,1275.72L17.14,1275.72L21.42,1275.72L25.71,1275.72L31.06,1275.72L37.49,1275.72L46.06,1275.72L59.98,1275.72L69.62,1275.72L83.55,1277.86L97.47,1280L102.83,1280L113.54,1280L125.32,1277.86L137.1,1277.86L155.31,1276.79L167.1,1276.79L176.74,1276.79L188.52,1276.79L207.8,1276.79L220.65,1276.79L232.44,1277.86L244.22,1278.93L254.93,1280L271,1281.07L287.06,1281.07L299.92,1282.14L312.77,1283.21L329.91,1285.36L341.69,1286.43L353.47,1285.36L366.33,1285.36L378.11,1285.36L395.25,1284.28L405.96,1284.28L415.6,1286.43L419.88,1286.43L442.38,1285.36L455.23,1284.28L464.87,1283.21L474.51,1283.21L483.08,1283.21L492.72,1283.21L501.29,1283.21L510.93,1282.14L525.92,1283.21L539.85,1283.21L551.63,1283.21L564.49,1283.21L578.41,1283.21L593.41,1283.21L614.83,1283.21L628.75,1284.28L643.75,1285.36L657.67,1285.36L680.17,1285.36L695.16,1284.28L708.02,1283.21L720.87,1282.14L732.65,1281.07L748.72,1277.86L758.36,1275.72L768,1273.57L777.64,1272.5L793.71,1272.5L804.42,1271.43L816.2,1270.36L826.91,1270.36L837.62,1270.36L878.33,1272.5L902.96,1272.5L915.82,1272.5L927.6,1272.5L938.31,1272.5L947.95,1273.57L956.52,1272.5L964.02,1272.5L972.59,1271.43L979.01,1271.43L986.51,1271.43L1001.51,1273.57L1007.93,1273.57L1014.36,1274.64" fill="none" stroke="#000000" style="-webkit-tap-highlight-color: rgba(0, 0, 0, 0); stroke-linecap: round; stroke-linejoin: round; stroke-width: 7;" /><path d="M980.08,1213.59L983.3,1212.52L985.44,1212.52L987.58,1213.59L988.65,1215.73L990.79,1217.87L991.87,1220.02L994.01,1223.23L996.15,1226.44L999.36,1229.66L1002.58,1233.94L1004.72,1238.23L1006.86,1243.58L1007.93,1250.01L1010.08,1255.36L1011.15,1259.65L1014.36,1266.08L1014.36,1268.22" fill="none" stroke="#000000" style="-webkit-tap-highlight-color: rgba(0, 0, 0, 0); stroke-linecap: round; stroke-linejoin: round; stroke-width: 7;" /><path d="M837.62,389.89L836.55,392.03L837.62,394.18L837.62,397.39L838.69,407.03L838.69,409.17L838.69,411.31L837.62,415.6L837.62,420.95L837.62,430.59L837.62,437.02L837.62,442.38L837.62,448.8L837.62,455.23L837.62,462.73L836.55,473.44L836.55,479.87L836.55,485.22L836.55,489.51L837.62,495.93L837.62,500.22L837.62,504.5L837.62,508.79L837.62,515.21L837.62,520.57L837.62,529.14L836.55,535.56L835.48,540.92L835.48,548.42L834.41,556.99L834.41,563.41L834.41,568.77L834.41,575.2L834.41,581.62L834.41,585.91L834.41,593.41L834.41,598.76L834.41,606.26L834.41,609.47L835.48,613.76L836.55,618.04L836.55,621.26L836.55,626.61L836.55,629.82L837.62,633.04L837.62,636.25L837.62,638.39L839.77,643.75L839.77,649.1L840.84,655.53L840.84,660.89L840.84,666.24L841.91,674.81L842.98,678.03L842.98,684.45L842.98,691.95L844.05,698.38" fill="none" stroke="#000000" style="-webkit-tap-highlight-color: rgba(0, 0, 0, 0); stroke-linecap: round; stroke-linejoin: round; stroke-width: 7;" /><path d="M871.9,375.97L870.83,375.97L869.76,375.97L872.97,375.97L880.47,368.47L885.82,365.26L891.18,360.97L904.03,355.62L910.46,355.62L914.74,356.69L917.96,356.69L926.53,358.83L931.88,359.9L936.17,360.97L939.38,362.04L942.59,363.11L946.88,364.18" fill="none" stroke="#000000" style="-webkit-tap-highlight-color: rgba(0, 0, 0, 0); stroke-linecap: round; stroke-linejoin: round; stroke-width: 7;" /><path d="M857.97,577.34L853.69,578.41L851.55,579.48L850.48,581.62L852.62,582.69L855.83,582.69L865.47,577.34L869.76,573.05L874.04,567.7L878.33,561.27L884.75,553.77L889.04,548.42L893.32,544.13L895.46,541.99L895.46,538.78L899.75,537.71" fill="none" stroke="#000000" style="-webkit-tap-highlight-color: rgba(0, 0, 0, 0); stroke-linecap: round; stroke-linejoin: round; stroke-width: 7;" /><path d="M916.89,540.92L917.96,539.85L920.1,537.71L923.31,535.56L929.74,532.35L936.17,532.35L942.59,532.35L952.23,532.35L966.16,532.35L974.73,532.35L980.08,532.35L983.3,531.28L984.37,531.28L985.44,529.14L985.44,527L984.37,523.78L983.3,520.57" fill="none" stroke="#000000" style="-webkit-tap-highlight-color: rgba(0, 0, 0, 0); stroke-linecap: round; stroke-linejoin: round; stroke-width: 7;" /><path d="M987.58,507.72L987.58,505.57L988.65,504.5L991.87,502.36L997.22,501.29L1004.72,498.08L1010.08,495.93L1014.36,494.86L1018.64,494.86L1022.93,495.93" fill="none" stroke="#000000" style="-webkit-tap-highlight-color: rgba(0, 0, 0, 0); stroke-linecap: round; stroke-linejoin: round; stroke-width: 7;" /><path d="M365.26,325.62L360.97,332.05L360.97,338.48L360.97,345.97L362.04,349.19L364.18,351.33L366.33,354.54L369.54,359.9L372.75,363.11L375.97,368.47L377.04,372.75L378.11,377.04L379.18,382.39L379.18,387.75L379.18,396.32L379.18,400.6L379.18,404.89L379.18,405.96L379.18,410.24L380.25,415.6L381.32,417.74L381.32,423.1L381.32,426.31L381.32,432.74L381.32,437.02L381.32,440.23L380.25,444.52L380.25,446.66L379.18,449.87" fill="none" stroke="#000000" style="-webkit-tap-highlight-color: rgba(0, 0, 0, 0); stroke-linecap: round; stroke-linejoin: round; stroke-width: 7;" /><path d="M379.18,319.2L381.32,318.13L386.68,318.13L392.03,319.2L396.32,320.27L401.67,321.34L410.24,322.41L416.67,322.41L422.03,321.34L426.31,321.34L429.52,322.41L431.67,322.41L433.81,322.41L435.95,322.41L437.02,322.41L439.16,323.48L441.31,326.69L442.38,329.91L444.52,332.05L445.59,335.26L446.66,335.26L447.73,336.33L447.73,340.62L448.8,344.9L449.87,345.97L450.95,348.12L450.95,351.33L450.95,354.54L450.95,357.76L450.95,362.04L450.95,364.18L449.87,367.4L448.8,371.68L447.73,380.25L446.66,383.46L446.66,384.54L444.52,394.18L444.52,401.67L443.45,408.1L442.38,413.46L441.31,415.6" fill="none" stroke="#000000" style="-webkit-tap-highlight-color: rgba(0, 0, 0, 0); stroke-linecap: round; stroke-linejoin: round; stroke-width: 7;" /><path d="M379.18,446.66L378.11,446.66L375.97,447.73L372.75,449.87L368.47,452.02L363.11,453.09L356.69,453.09L351.33,453.09L344.9,454.16L340.62,454.16" fill="none" stroke="#000000" style="-webkit-tap-highlight-color: rgba(0, 0, 0, 0); stroke-linecap: round; stroke-linejoin: round; stroke-width: 7;" /><path d="M449.87,405.96L448.8,405.96L450.95,408.1L455.23,410.24L457.37,411.31L462.73,412.38L470.23,414.53L477.72,419.88L480.94,423.1L484.15,426.31L487.36,428.45L489.51,431.67L491.65,434.88L495.93,442.38L498.08,445.59L500.22,448.8L502.36,450.95L503.43,453.09L504.5,455.23L507.72,459.51L508.79,462.73L509.86,463.8L512,464.87L515.21,467.01L517.36,468.08L520.57,469.15L522.71,471.3L527,472.37L533.42,473.44L534.49,473.44L535.56,474.51L539.85,476.65L541.99,478.79L543.06,479.87L546.28,480.94L548.42,483.08L550.56,484.15L554.85,486.29L556.99,487.36L560.2,489.51L566.63,490.58L571.98,490.58L575.2,489.51L580.55,489.51L585.91,488.44L594.48,487.36L599.83,487.36L605.19,487.36L610.54,488.44L616.97,489.51L618.04,490.58L626.61,490.58" fill="none" stroke="#000000" style="-webkit-tap-highlight-color: rgba(0, 0, 0, 0); stroke-linecap: round; stroke-linejoin: round; stroke-width: 7;" /><path d="M649.1,319.2L648.03,320.27L645.89,321.34L644.82,322.41L643.75,324.55L643.75,326.69L641.61,330.98L640.54,335.26L640.54,337.41L640.54,342.76L640.54,352.4L640.54,356.69L641.61,358.83L642.68,360.97L643.75,363.11L644.82,365.26L646.96,368.47L648.03,370.61L649.1,371.68L650.18,373.82L652.32,377.04L653.39,383.46L653.39,389.89L652.32,394.18L652.32,398.46L652.32,402.74L651.25,408.1L650.18,412.38L649.1,415.6L649.1,419.88L649.1,423.1L648.03,428.45L648.03,431.67L646.96,435.95L646.96,439.16L645.89,442.38L645.89,444.52L644.82,447.73L644.82,450.95L644.82,453.09L644.82,456.3L644.82,459.51L645.89,462.73L645.89,467.01L646.96,474.51L646.96,477.72L646.96,480.94L648.03,485.22L648.03,488.44L649.1,492.72L649.1,495.93L649.1,498.08L649.1,501.29L649.1,503.43L652.32,498.08" fill="none" stroke="#000000" style="-webkit-tap-highlight-color: rgba(0, 0, 0, 0); stroke-linecap: round; stroke-linejoin: round; stroke-width: 7;" /><path d="M658.74,314.91L659.82,313.84L661.96,313.84L665.17,312.77L668.38,312.77L672.67,311.7L675.88,311.7L679.1,311.7L682.31,312.77L685.52,312.77L687.67,312.77L691.95,313.84L697.31,315.98L701.59,315.98L705.87,315.98L709.09,315.98L713.37,315.98L714.44,317.05" fill="none" stroke="#000000" style="-webkit-tap-highlight-color: rgba(0, 0, 0, 0); stroke-linecap: round; stroke-linejoin: round; stroke-width: 7;" /><path d="M1016.5,1281.07L1017.57,1282.14L1018.64,1284.28L1020.79,1286.43L1022.93,1288.57" fill="none" stroke="#000000" style="-webkit-tap-highlight-color: rgba(0, 0, 0, 0); stroke-linecap: round; stroke-linejoin: round; stroke-width: 7;" /><path d="M186.38,724.08L186.38,725.15L186.38,728.37L187.45,734.79L187.45,743.36L188.52,754.08L189.59,765.86L190.66,780.85L191.73,790.49L191.73,801.21L192.8,806.56L192.8,824.77L192.8,834.41L192.8,840.84L192.8,846.19L191.73,850.48L191.73,856.9L191.73,863.33L191.73,868.69L191.73,870.83L191.73,877.26L191.73,880.47L191.73,884.75L191.73,886.9L192.8,889.04" fill="none" stroke="#000000" style="-webkit-tap-highlight-color: rgba(0, 0, 0, 0); stroke-linecap: round; stroke-linejoin: round; stroke-width: 7;" /><path d="M155.31,911.53L157.46,911.53L167.1,908.32L177.81,906.18L189.59,904.03L198.16,902.96L207.8,901.89L211.01,900.82L209.94,900.82L206.73,899.75" fill="none" stroke="#000000" style="-webkit-tap-highlight-color: rgba(0, 0, 0, 0); stroke-linecap: round; stroke-linejoin: round; stroke-width: 7;" /><path d="M152.1,908.32L151.03,906.18L151.03,907.25L152.1,912.6L152.1,916.89L153.17,926.53L153.17,942.59L153.17,954.38L152.1,964.02L152.1,971.51L152.1,980.08L152.1,997.22L152.1,1006.86L153.17,1016.5L153.17,1024L153.17,1035.78L153.17,1043.28L153.17,1050.78L153.17,1057.21L152.1,1065.77L152.1,1070.06L152.1,1075.41L151.03,1079.7L151.03,1082.91L151.03,1086.13" fill="none" stroke="#000000" style="-webkit-tap-highlight-color: rgba(0, 0, 0, 0); stroke-linecap: round; stroke-linejoin: round; stroke-width: 7;" /><path d="M516.28,548.42L512,547.35L510.93,546.28L515.21,547.35L522.71,547.35L533.42,546.28L547.35,546.28L580.55,545.21L598.76,546.28L613.76,548.42L625.54,548.42L634.11,549.49L639.46,549.49L643.75,548.42" fill="none" stroke="#000000" style="-webkit-tap-highlight-color: rgba(0, 0, 0, 0); stroke-linecap: round; stroke-linejoin: round; stroke-width: 7;" /><path d="M464.87,568.77L469.15,567.7L477.72,566.63L493.79,564.49L515.21,561.27L537.71,559.13L560.2,556.99L581.62,556.99L616.97,554.85L628.75,553.77L635.18,552.7L637.32,552.7" fill="none" stroke="#000000" style="-webkit-tap-highlight-color: rgba(0, 0, 0, 0); stroke-linecap: round; stroke-linejoin: round; stroke-width: 7;" /><path d="M467.01,590.19L465.94,591.26L462.73,592.33L464.87,591.26L488.44,586.98L508.79,582.69L533.42,579.48L558.06,576.27L581.62,574.13L603.05,573.05L619.11,569.84L630.9,568.77L641.61,568.77L640.54,568.77" fill="none" stroke="#000000" style="-webkit-tap-highlight-color: rgba(0, 0, 0, 0); stroke-linecap: round; stroke-linejoin: round; stroke-width: 7;" /><path d="M465.94,603.05L464.87,603.05L459.51,606.26L458.44,607.33L459.51,607.33L467.01,605.19L484.15,601.97L505.57,597.69L551.63,592.33L573.05,590.19L592.33,589.12L609.47,588.05L623.4,586.98L631.97,586.98L636.25,585.91" fill="none" stroke="#000000" style="-webkit-tap-highlight-color: rgba(0, 0, 0, 0); stroke-linecap: round; stroke-linejoin: round; stroke-width: 7;" /><path d="M469.15,626.61L467.01,626.61L462.73,627.68L461.66,627.68L464.87,627.68L474.51,626.61L492.72,622.33L516.28,618.04L543.06,613.76L568.77,611.62L611.62,610.54L625.54,609.47L638.39,609.47L631.97,610.54" fill="none" stroke="#000000" style="-webkit-tap-highlight-color: rgba(0, 0, 0, 0); stroke-linecap: round; stroke-linejoin: round; stroke-width: 7;" /><path d="M446.66,658.74L448.8,658.74L455.23,657.67L477.72,651.25L498.08,646.96L522.71,642.68L564.49,638.39L588.05,637.32L619.11,635.18L628.75,634.11L634.11,635.18L635.18,634.11L635.18,635.18L631.97,635.18" fill="none" stroke="#000000" style="-webkit-tap-highlight-color: rgba(0, 0, 0, 0); stroke-linecap: round; stroke-linejoin: round; stroke-width: 7;" /><path d="M474.51,671.6L471.3,672.67L467.01,674.81L464.87,675.88L468.08,674.81L478.79,672.67L494.86,669.46L515.21,666.24L537.71,661.96L560.2,658.74L582.69,656.6L601.97,655.53L618.04,654.46L637.32,653.39L641.61,653.39L648.03,653.39" fill="none" stroke="#000000" style="-webkit-tap-highlight-color: rgba(0, 0, 0, 0); stroke-linecap: round; stroke-linejoin: round; stroke-width: 7;" /><path d="M554.85,688.74L558.06,687.67L570.91,685.52L589.12,683.38L605.19,681.24L622.33,680.17L642.68,679.1L648.03,678.03L656.6,676.95L657.67,676.95" fill="none" stroke="#000000" style="-webkit-tap-highlight-color: rgba(0, 0, 0, 0); stroke-linecap: round; stroke-linejoin: round; stroke-width: 7;" /><path d="M516.28,712.3L518.43,712.3L530.21,711.23L543.06,709.09L556.99,708.02L573.05,705.87L591.26,704.8L619.11,703.73L627.68,703.73L634.11,703.73" fill="none" stroke="#000000" style="-webkit-tap-highlight-color: rgba(0, 0, 0, 0); stroke-linecap: round; stroke-linejoin: round; stroke-width: 7;" /><path d="M537.71,745.51L536.64,743.36L539.85,742.29L549.49,742.29L564.49,739.08L595.55,735.87L615.9,733.72L635.18,732.65L650.18,731.58L656.6,730.51L667.31,730.51L670.53,730.51L671.6,730.51L670.53,730.51" fill="none" stroke="#000000" style="-webkit-tap-highlight-color: rgba(0, 0, 0, 0); stroke-linecap: round; stroke-linejoin: round; stroke-width: 7;" /><path d="M521.64,777.64L532.35,776.57L546.28,773.36L574.13,768L582.69,765.86L616.97,763.72L630.9,762.64L643.75,761.57L651.25,760.5L653.39,760.5" fill="none" stroke="#000000" style="-webkit-tap-highlight-color: rgba(0, 0, 0, 0); stroke-linecap: round; stroke-linejoin: round; stroke-width: 7;" /><path d="M532.35,794.78L535.56,795.85L541.99,794.78L561.27,791.56L576.27,789.42L592.33,787.28L609.47,785.14L624.47,783L637.32,783L645.89,783" fill="none" stroke="#000000" style="-webkit-tap-highlight-color: rgba(0, 0, 0, 0); stroke-linecap: round; stroke-linejoin: round; stroke-width: 7;" /><path d="M454.16,806.56L453.09,805.49L452.02,805.49L454.16,806.56L463.8,806.56L479.87,804.42L500.22,803.35L531.28,802.28L550.56,802.28L570.91,802.28L590.19,801.21L611.62,797.99L623.4,795.85L636.25,795.85L644.82,795.85L651.25,796.92L652.32,796.92L652.32,797.99" fill="none" stroke="#000000" style="-webkit-tap-highlight-color: rgba(0, 0, 0, 0); stroke-linecap: round; stroke-linejoin: round; stroke-width: 7;" /><path d="M445.59,834.41L447.73,834.41L452.02,833.34L461.66,832.27L474.51,831.2L490.58,829.05L508.79,829.05L529.14,827.98L569.84,824.77L589.12,823.7L608.4,821.56L624.47,819.41L638.39,817.27L648.03,817.27L654.46,818.34L656.6,819.41" fill="none" stroke="#000000" style="-webkit-tap-highlight-color: rgba(0, 0, 0, 0); stroke-linecap: round; stroke-linejoin: round; stroke-width: 7;" /><path d="M456.3,852.62L454.16,852.62L450.95,852.62L456.3,853.69L467.01,852.62L480.94,851.55L494.86,851.55L510.93,851.55L532.35,851.55L551.63,851.55L569.84,851.55L586.98,850.48L601.97,848.33L620.18,847.26L622.33,846.19" fill="none" stroke="#000000" style="-webkit-tap-highlight-color: rgba(0, 0, 0, 0); stroke-linecap: round; stroke-linejoin: round; stroke-width: 7;" /><path d="M472.37,870.83L471.3,870.83L477.72,869.76L488.44,868.69L502.36,867.62L518.43,866.54L534.49,867.62L566.63,865.47L586.98,863.33L600.9,863.33L610.54,863.33L614.83,863.33" fill="none" stroke="#000000" style="-webkit-tap-highlight-color: rgba(0, 0, 0, 0); stroke-linecap: round; stroke-linejoin: round; stroke-width: 7;" /><path d="M352.4,879.4L356.69,881.54L360.97,881.54L366.33,881.54L372.75,880.47L380.25,879.4L387.75,879.4L396.32,878.33L404.89,877.26L414.53,876.18L428.45,872.97L439.16,870.83L446.66,870.83L454.16,869.76L461.66,869.76L468.08,869.76L475.58,868.69L482.01,869.76L489.51,869.76L505.57,869.76L514.14,869.76L522.71,868.69L530.21,867.62L536.64,867.62" fill="none" stroke="#000000" style="-webkit-tap-highlight-color: rgba(0, 0, 0, 0); stroke-linecap: round; stroke-linejoin: round; stroke-width: 7;" /><path d="M369.54,898.68L368.47,897.61L366.33,895.46L360.97,894.39L358.83,895.46L357.76,895.46L358.83,896.54L362.04,898.68L367.4,898.68L375.97,898.68L383.46,897.61L392.03,896.54L401.67,895.46L411.31,895.46L420.95,894.39L429.52,893.32L435.95,892.25L447.73,893.32L454.16,893.32L460.59,893.32L467.01,894.39L474.51,894.39L480.94,893.32L488.44,893.32L497,894.39L506.64,894.39L523.78,893.32L532.35,892.25L540.92,892.25L550.56,892.25L559.13,891.18L566.63,890.11L577.34,890.11L585.91,890.11L598.76,890.11L605.19,890.11L613.76,889.04L622.33,889.04L631.97,887.97L641.61,887.97L652.32,887.97L659.82,887.97L667.31,887.97L676.95,889.04L683.38,890.11L688.74,891.18L693.02,891.18L696.23,891.18L698.38,891.18" fill="none" stroke="#000000" style="-webkit-tap-highlight-color: rgba(0, 0, 0, 0); stroke-linecap: round; stroke-linejoin: round; stroke-width: 7;" /><path d="M238.86,926.53L239.93,926.53L242.08,926.53L246.36,926.53L254.93,927.6L261.36,928.67L269.92,929.74L279.56,929.74L294.56,927.6L305.27,926.53L314.91,925.46L326.69,925.46L337.41,925.46L357.76,924.38L370.61,923.31L381.32,922.24L393.1,921.17L410.24,919.03L419.88,917.96L428.45,917.96L437.02,919.03L445.59,919.03L457.37,917.96L464.87,917.96L470.23,917.96L473.44,917.96L485.22,920.1L491.65,921.17L499.15,922.24L506.64,922.24L515.21,923.31L529.14,923.31L533.42,923.31L549.49,922.24L560.2,922.24L565.56,921.17L582.69,921.17L593.41,921.17L601.97,921.17L609.47,921.17L619.11,921.17L625.54,922.24L630.9,922.24L638.39,923.31L642.68,922.24L646.96,922.24L651.25,922.24L655.53,922.24L659.82,923.31L667.31,923.31L669.46,923.31L674.81,924.38L688.74,925.46L695.16,925.46L702.66,924.38L709.09,925.46L716.59,925.46L723.01,924.38L733.72,924.38L738.01,923.31L747.65,922.24L750.86,922.24L761.57,922.24L768,922.24L775.5,922.24L781.92,923.31L788.35,923.31L796.92,924.38L797.99,924.38L799.06,924.38" fill="none" stroke="#000000" style="-webkit-tap-highlight-color: rgba(0, 0, 0, 0); stroke-linecap: round; stroke-linejoin: round; stroke-width: 7;" /><path d="M221.72,967.23L222.79,967.23L231.36,967.23L236.72,967.23L243.15,967.23L250.64,967.23L259.21,967.23L268.85,966.16L285.99,965.09L291.35,964.02L303.13,962.95L326.69,959.73L336.33,959.73L345.97,959.73L354.54,959.73L363.11,959.73L370.61,959.73L377.04,959.73L382.39,959.73L389.89,960.8L393.1,960.8L398.46,961.87L403.82,962.95L408.1,962.95L416.67,964.02L420.95,965.09L426.31,965.09L431.67,967.23L442.38,967.23L450.95,967.23L458.44,967.23L467.01,967.23L476.65,967.23L492.72,968.3L502.36,967.23L510.93,967.23L520.57,967.23L533.42,967.23L541.99,966.16L558.06,967.23L567.7,966.16L577.34,965.09L585.91,965.09L598.76,964.02L605.19,964.02L615.9,964.02L634.11,964.02L642.68,964.02L649.1,962.95L660.89,961.87L669.46,960.8L678.03,959.73L684.45,959.73L694.09,958.66L701.59,959.73L709.09,959.73L716.59,959.73L724.08,960.8L732.65,961.87L744.44,961.87L754.08,961.87L766.93,960.8L775.5,959.73L781.92,959.73L788.35,959.73L792.64,959.73" fill="none" stroke="#000000" style="-webkit-tap-highlight-color: rgba(0, 0, 0, 0); stroke-linecap: round; stroke-linejoin: round; stroke-width: 7;" /><path d="M209.94,1004.72L211.01,1003.65L213.15,1003.65L216.37,1002.58L221.72,1002.58L229.22,1002.58L242.08,1001.51L250.64,1001.51L262.43,1001.51L274.21,1001.51L291.35,1000.44L304.2,998.29L317.05,997.22L333.12,997.22L338.48,997.22L349.19,997.22L360.97,997.22L371.68,997.22L382.39,997.22L402.74,997.22L411.31,997.22L419.88,996.15L429.52,996.15L435.95,996.15L450.95,996.15L460.59,997.22L470.23,997.22L485.22,997.22L495.93,997.22L507.72,998.29L517.36,999.36L529.14,999.36L540.92,999.36L555.92,1000.44L565.56,1000.44L575.2,1001.51L586.98,1001.51L594.48,1001.51L600.9,1001.51L606.26,1001.51L611.62,1001.51L621.26,1002.58L628.75,1002.58L635.18,1002.58L645.89,1003.65L654.46,1003.65L663.03,1002.58L672.67,1001.51L681.24,1001.51L689.81,1000.44L700.52,1000.44L709.09,1000.44L718.73,999.36L728.37,999.36L743.36,998.29L753,997.22L762.64,997.22L771.21,997.22L777.64,997.22L783,997.22L790.49,997.22L792.64,997.22L796.92,997.22L799.06,997.22" fill="none" stroke="#000000" style="-webkit-tap-highlight-color: rgba(0, 0, 0, 0); stroke-linecap: round; stroke-linejoin: round; stroke-width: 7;" /></svg>