<?xml version="1.0" encoding="utf-8" ?>
<svg baseProfile="full" height="1362" version="1.1" width="1024" xmlns="http://www.w3.org/2000/svg" xmlns:ev="http://www.w3.org/2001/xml-events" xmlns:xlink="http://www.w3.org/1999/xlink"><defs /><path d="M587.78,192.51L587.78,195.58L587.78,197.63L587.78,199.68L587.78,202.75L587.78,204.8L587.78,208.9L587.78,210.94L587.78,211.97L588.8,214.02L588.8,216.06L588.8,218.11L587.78,224.26L587.78,227.33L588.8,230.4L589.82,231.42L590.85,233.47L591.87,234.5L592.9,237.57L593.92,239.62L593.92,241.66L596.99,243.71L601.09,246.78L601.09,247.81L602.11,248.83L603.14,250.88L604.16,252.93L605.18,253.95L606.21,256L607.23,257.02L608.26,259.07L609.28,260.1L611.33,262.14L611.33,264.19L612.35,267.26L613.38,269.31L614.4,273.41L616.45,277.5L617.47,279.55L618.5,282.62L620.54,284.67L621.57,286.72L621.57,289.79L621.57,292.86L622.59,295.94L622.59,299.01L622.59,303.1L623.62,304.13L623.62,307.2L624.64,312.32L624.64,316.42L624.64,318.46L625.66,321.54L626.69,324.61L626.69,327.68L626.69,333.82L626.69,337.92L626.69,343.04L627.71,349.18L627.71,353.28L627.71,358.4L627.71,362.5L628.74,366.59L628.74,370.69L628.74,376.83L629.76,380.93L629.76,384L629.76,389.12L630.78,393.22L630.78,397.31L630.78,400.38L630.78,404.48L631.81,407.55L631.81,412.67L632.83,414.72L632.83,417.79L632.83,422.91L633.86,424.96L634.88,429.06L634.88,433.15L636.93,447.49L636.93,449.54L637.95,451.58L637.95,454.66L637.95,457.73L637.95,461.82L638.98,463.87L638.98,464.9L640,468.99L641.02,472.06L642.05,475.14L643.07,485.38L643.07,489.47L643.07,491.52L643.07,493.57L643.07,495.62L643.07,497.66L643.07,500.74L643.07,503.81L643.07,506.88L643.07,509.95L644.1,515.07L644.1,518.14L644.1,520.19L644.1,522.24L644.1,526.34L644.1,531.46L643.07,535.55L642.05,539.65L642.05,542.72L641.02,547.84L640,549.89L638.98,551.94L637.95,555.01L636.93,557.06L635.9,561.15L633.86,563.2L632.83,566.27L631.81,569.34L628.74,573.44L627.71,576.51L625.66,578.56L624.64,581.63L623.62,583.68L621.57,586.75L619.52,590.85L618.5,592.9L617.47,594.94L615.42,599.04L614.4,602.11L610.3,606.21L608.26,608.26L607.23,609.28L605.18,611.33L604.16,612.35L602.11,614.4L601.09,618.5L600.06,619.52L599.04,620.54L599.04,621.57L598.02,623.62L598.02,624.64L598.02,625.66L599.04,628.74L599.04,630.78L600.06,631.81L600.06,633.86L601.09,634.88L601.09,635.9L601.09,636.93L601.09,638.98L602.11,640L602.11,641.02L602.11,642.05L602.11,644.1L603.14,645.12" fill="none" stroke="#000000" style="-webkit-tap-highlight-color: rgba(0, 0, 0, 0); stroke-linecap: round; stroke-linejoin: round; stroke-width: 6;" /><path d="M363.52,156.67L363.52,159.74L364.54,159.74L367.62,160.77L372.74,159.74L375.81,157.7L379.9,156.67L384,156.67L388.1,155.65L394.24,153.6L399.36,150.53L403.46,148.48L406.53,148.48L409.6,147.46L413.7,147.46L415.74,146.43L418.82,146.43L421.89,145.41L425.98,144.38L428.03,144.38L430.08,146.43L433.15,146.43L439.3,147.46L440.32,148.48L441.34,148.48L443.39,150.53L447.49,152.58L450.56,152.58L453.63,152.58L457.73,152.58L460.8,152.58L463.87,151.55L468.99,152.58L472.06,151.55L475.14,151.55L479.23,152.58L482.3,152.58L486.4,152.58L489.47,153.6L493.57,153.6L498.69,156.67L501.76,156.67L505.86,157.7L508.93,157.7L514.05,158.72L517.12,159.74L520.19,160.77L523.26,161.79L526.34,161.79L531.46,163.84L534.53,163.84L536.58,163.84L540.67,163.84L543.74,164.86L545.79,164.86L547.84,164.86L549.89,165.89L551.94,166.91L555.01,165.89L557.06,167.94L559.1,168.96L560.13,168.96L563.2,171.01L566.27,172.03L567.3,173.06L569.34,174.08L571.39,175.1L573.44,177.15L576.51,178.18L578.56,179.2L579.58,179.2L583.68,181.25L585.73,183.3L587.78,184.32L589.82,185.34L591.87,187.39L592.9,188.42" fill="none" stroke="#000000" style="-webkit-tap-highlight-color: rgba(0, 0, 0, 0); stroke-linecap: round; stroke-linejoin: round; stroke-width: 6;" /><path d="M352.26,177.15L351.23,174.08L350.21,174.08L349.18,175.1L348.16,176.13L347.14,179.2L346.11,185.34L346.11,191.49L346.11,197.63L346.11,205.82L346.11,211.97L345.09,216.06L345.09,219.14L345.09,225.28L345.09,230.4L345.09,233.47L345.09,236.54L345.09,240.64L344.06,251.9L344.06,253.95L345.09,254.98L345.09,259.07L346.11,259.07" fill="none" stroke="#000000" style="-webkit-tap-highlight-color: rgba(0, 0, 0, 0); stroke-linecap: round; stroke-linejoin: round; stroke-width: 6;" /><path d="M417.79,163.84L416.77,164.86L414.72,171.01L413.7,177.15L412.67,184.32L411.65,192.51L410.62,200.7L409.6,214.02L409.6,222.21L409.6,231.42L409.6,238.59L409.6,249.86L410.62,257.02L411.65,264.19L412.67,270.34L412.67,278.53L413.7,285.7L413.7,294.91L413.7,301.06L413.7,305.15L413.7,312.32L413.7,316.42L413.7,328.7L412.67,330.75L412.67,334.85L412.67,336.9L412.67,339.97L412.67,343.04L412.67,348.16L412.67,350.21L412.67,353.28L413.7,355.33L413.7,358.4L413.7,360.45L414.72,362.5L414.72,365.57L415.74,368.64L416.77,371.71L417.79,376.83L418.82,379.9L418.82,382.98L419.84,387.07L419.84,392.19L419.84,397.31L420.86,400.38L421.89,403.46L421.89,406.53L422.91,408.58L422.91,411.65L422.91,413.7L422.91,415.74L422.91,417.79L423.94,420.86L423.94,422.91L424.96,424.96L425.98,428.03L425.98,431.1L427.01,434.18L427.01,437.25L427.01,439.3L427.01,443.39L428.03,447.49L428.03,450.56L428.03,452.61L428.03,455.68L428.03,459.78L429.06,462.85L429.06,464.9L429.06,466.94L429.06,470.02L429.06,474.11L430.08,478.21L430.08,481.28L430.08,484.35L430.08,489.47L430.08,492.54L431.1,497.66L430.08,501.76L431.1,505.86L431.1,512L431.1,515.07L430.08,522.24L429.06,525.31L429.06,527.36L429.06,528.38L429.06,532.48L429.06,533.5L428.03,536.58L428.03,538.62L428.03,541.7L428.03,547.84L428.03,550.91L427.01,551.94L428.03,552.96L428.03,553.98L428.03,555.01L427.01,558.08L427.01,559.1L427.01,561.15L427.01,562.18L427.01,566.27L427.01,567.3L427.01,570.37L427.01,572.42L427.01,574.46L425.98,576.51L425.98,581.63L425.98,585.73L424.96,589.82L424.96,590.85L424.96,593.92L424.96,598.02L424.96,604.16L424.96,605.18" fill="none" stroke="#000000" style="-webkit-tap-highlight-color: rgba(0, 0, 0, 0); stroke-linecap: round; stroke-linejoin: round; stroke-width: 6;" /><path d="M345.09,252.93L346.11,256L345.09,258.05L344.06,262.14L344.06,267.26L344.06,273.41L345.09,282.62L345.09,289.79L346.11,294.91L346.11,301.06L346.11,310.27L346.11,315.39L346.11,320.51L346.11,323.58L346.11,328.7L345.09,332.8L345.09,335.87L344.06,338.94L343.04,343.04L342.02,346.11L340.99,349.18L339.97,354.3L339.97,359.42L338.94,362.5L337.92,367.62L337.92,370.69L336.9,372.74L336.9,375.81L334.85,380.93L332.8,384L331.78,384L330.75,384L326.66,384L325.63,384L323.58,384" fill="none" stroke="#000000" style="-webkit-tap-highlight-color: rgba(0, 0, 0, 0); stroke-linecap: round; stroke-linejoin: round; stroke-width: 6;" /><path d="M254.98,192.51L254.98,191.49L256,191.49L258.05,193.54L260.1,196.61L263.17,200.7L265.22,203.78L270.34,210.94L271.36,212.99L272.38,214.02L273.41,218.11L275.46,224.26L276.48,230.4L278.53,235.52L280.58,242.69L280.58,248.83L281.6,254.98L282.62,261.12L283.65,270.34L283.65,276.48L283.65,282.62L284.67,286.72L284.67,290.82L284.67,299.01L285.7,304.13L285.7,308.22L285.7,313.34L285.7,319.49L286.72,323.58L286.72,327.68L286.72,330.75L287.74,335.87L287.74,343.04L287.74,346.11L288.77,350.21L288.77,354.3L288.77,356.35L289.79,361.47L289.79,364.54L289.79,367.62L289.79,369.66L289.79,371.71L290.82,375.81L290.82,376.83L291.84,380.93L292.86,384L294.91,387.07L295.94,389.12L296.96,390.14L299.01,391.17L301.06,392.19L304.13,393.22L307.2,392.19L310.27,392.19L312.32,392.19L320.51,390.14L322.56,389.12" fill="none" stroke="#000000" style="-webkit-tap-highlight-color: rgba(0, 0, 0, 0); stroke-linecap: round; stroke-linejoin: round; stroke-width: 6;" /><path d="M283.65,296.96L283.65,297.98L282.62,297.98L283.65,299.01L286.72,297.98L291.84,295.94L303.1,288.77L313.34,282.62L324.61,276.48L335.87,269.31L347.14,263.17L357.38,260.1L358.4,259.07" fill="none" stroke="#000000" style="-webkit-tap-highlight-color: rgba(0, 0, 0, 0); stroke-linecap: round; stroke-linejoin: round; stroke-width: 6;" /><path d="M1.02,227.33L3.07,226.3L4.1,225.28L7.17,224.26L10.24,222.21L15.36,219.14L20.48,218.11L25.6,216.06L30.72,214.02L36.86,211.97L45.06,207.87L50.18,204.8L56.32,202.75L62.46,199.68L70.66,196.61L74.75,193.54L82.94,188.42L87.04,186.37L93.18,182.27L97.28,179.2L101.38,177.15L105.47,175.1L110.59,173.06L113.66,171.01L116.74,168.96L119.81,168.96L121.86,167.94L124.93,166.91L125.95,166.91L126.98,165.89L128,165.89L131.07,164.86L132.1,164.86L135.17,163.84L136.19,163.84L138.24,163.84L142.34,162.82L144.38,161.79L147.46,161.79L150.53,161.79L152.58,160.77L155.65,160.77L157.7,161.79L158.72,161.79L160.77,161.79L162.82,162.82L163.84,163.84L165.89,163.84L167.94,163.84L168.96,163.84L171.01,164.86L173.06,164.86L177.15,166.91L178.18,167.94L180.22,168.96L182.27,169.98L185.34,169.98L186.37,169.98L188.42,169.98L189.44,171.01L191.49,171.01L193.54,171.01L195.58,171.01L197.63,171.01L199.68,169.98L201.73,169.98L204.8,171.01L206.85,171.01L208.9,171.01L211.97,171.01L214.02,172.03L218.11,172.03L219.14,172.03L223.23,174.08L225.28,175.1L227.33,175.1L232.45,175.1L235.52,176.13L238.59,177.15L240.64,178.18L244.74,180.22L248.83,182.27L249.86,182.27L256,184.32L260.1,187.39" fill="none" stroke="#000000" style="-webkit-tap-highlight-color: rgba(0, 0, 0, 0); stroke-linecap: round; stroke-linejoin: round; stroke-width: 6;" /><path d="M162.82,172.03L162.82,173.06L161.79,174.08L162.82,175.1L162.82,176.13L163.84,178.18L164.86,184.32L166.91,187.39L167.94,191.49L169.98,195.58L172.03,199.68L174.08,202.75L175.1,206.85L177.15,209.92L178.18,214.02L180.22,220.16L181.25,223.23L183.3,226.3L184.32,230.4L186.37,234.5L188.42,239.62L188.42,243.71L189.44,247.81L190.46,251.9L192.51,257.02L193.54,261.12L194.56,265.22L196.61,271.36L196.61,274.43L196.61,279.55L196.61,284.67L197.63,290.82L197.63,296.96L197.63,306.18L197.63,313.34L197.63,319.49L198.66,325.63L199.68,333.82L200.7,339.97L200.7,346.11L200.7,352.26L200.7,358.4L200.7,363.52L199.68,370.69L199.68,372.74L198.66,380.93L198.66,382.98L197.63,392.19L197.63,397.31L197.63,407.55L197.63,412.67L197.63,420.86L197.63,425.98L196.61,432.13L196.61,439.3L197.63,446.46L197.63,451.58L197.63,456.7L197.63,461.82L197.63,470.02L197.63,477.18L197.63,487.42L197.63,489.47L198.66,494.59L198.66,498.69L198.66,502.78L198.66,507.9L198.66,513.02L198.66,521.22L198.66,526.34L198.66,530.43L198.66,535.55L198.66,542.72L199.68,548.86L199.68,551.94L199.68,558.08L199.68,562.18L200.7,566.27L200.7,572.42L199.68,577.54L199.68,582.66L200.7,588.8L200.7,594.94L201.73,601.09L202.75,606.21L202.75,611.33L202.75,616.45L202.75,620.54L202.75,621.57" fill="none" stroke="#000000" style="-webkit-tap-highlight-color: rgba(0, 0, 0, 0); stroke-linecap: round; stroke-linejoin: round; stroke-width: 6;" /><path d="M660.48,366.59L659.46,365.57L659.46,363.52L658.43,364.54L658.43,365.57L657.41,368.64L656.38,370.69L654.34,372.74L654.34,375.81L654.34,378.88L654.34,381.95L654.34,387.07L653.31,395.26L653.31,401.41L652.29,406.53L652.29,412.67L652.29,418.82L652.29,427.01L652.29,432.13L652.29,437.25L652.29,443.39L652.29,451.58L653.31,456.7L653.31,460.8L654.34,464.9L656.38,471.04L656.38,474.11L657.41,477.18L657.41,481.28L658.43,485.38L660.48,491.52L661.5,494.59L663.55,498.69L663.55,502.78L665.6,508.93L666.62,513.02L667.65,516.1L669.7,518.14L670.72,521.22L671.74,524.29L673.79,531.46L675.84,539.65L675.84,541.7L677.89,546.82L677.89,550.91L677.89,555.01L678.91,559.1L678.91,565.25L678.91,570.37L678.91,573.44L678.91,577.54L678.91,581.63L679.94,585.73L679.94,588.8L679.94,591.87L679.94,594.94L679.94,598.02L679.94,601.09L679.94,604.16L679.94,607.23L679.94,610.3L680.96,612.35L680.96,615.42L680.96,618.5L680.96,621.57L680.96,622.59L680.96,626.69L679.94,631.81L679.94,634.88L679.94,635.9L679.94,642.05L678.91,646.14L677.89,651.26L677.89,652.29L677.89,656.38L678.91,657.41L678.91,659.46L679.94,660.48L679.94,661.5" fill="none" stroke="#000000" style="-webkit-tap-highlight-color: rgba(0, 0, 0, 0); stroke-linecap: round; stroke-linejoin: round; stroke-width: 6;" /><path d="M629.76,352.26L630.78,351.23L631.81,352.26L633.86,352.26L636.93,354.3L641.02,354.3L644.1,354.3L649.22,354.3L650.24,354.3L652.29,355.33L653.31,356.35L654.34,358.4" fill="none" stroke="#000000" style="-webkit-tap-highlight-color: rgba(0, 0, 0, 0); stroke-linecap: round; stroke-linejoin: round; stroke-width: 6;" /><path d="M662.53,363.52L662.53,362.5L662.53,361.47L663.55,359.42L663.55,357.38L665.6,353.28L667.65,350.21L670.72,347.14L675.84,340.99L677.89,340.99L678.91,340.99L681.98,338.94L685.06,337.92L689.15,337.92L693.25,338.94L696.32,338.94L699.39,339.97L704.51,340.99L707.58,340.99L711.68,342.02L715.78,344.06L719.87,345.09L721.92,346.11L724.99,347.14L728.06,349.18L729.09,349.18L730.11,349.18L733.18,349.18L736.26,350.21L739.33,351.23L742.4,354.3L746.5,357.38L751.62,358.4" fill="none" stroke="#000000" style="-webkit-tap-highlight-color: rgba(0, 0, 0, 0); stroke-linecap: round; stroke-linejoin: round; stroke-width: 6;" /><path d="M732.16,347.14L736.26,348.16L740.35,348.16L743.42,348.16L747.52,348.16L754.69,347.14L758.78,346.11L760.83,346.11L764.93,345.09L769.02,343.04L771.07,342.02L772.1,342.02L774.14,342.02L776.19,340.99L779.26,340.99L782.34,339.97L785.41,339.97L786.43,339.97L788.48,338.94L791.55,337.92L792.58,337.92L794.62,336.9L795.65,336.9L796.67,336.9L800.77,338.94L801.79,338.94L803.84,338.94L805.89,338.94L807.94,339.97L808.96,339.97L811.01,340.99L813.06,340.99L815.1,340.99L818.18,340.99L821.25,340.99L823.3,342.02L825.34,342.02L828.42,343.04L832.51,343.04L833.54,344.06L836.61,344.06L838.66,344.06L841.73,346.11L843.78,347.14L846.85,347.14L848.9,348.16L851.97,349.18L854.02,349.18L855.04,349.18L857.09,350.21L858.11,351.23L862.21,353.28L864.26,354.3L867.33,355.33L870.4,355.33L874.5,355.33L877.57,356.35L882.69,356.35L883.71,356.35L886.78,355.33L888.83,356.35L889.86,356.35L891.9,356.35L893.95,356.35L896,356.35L898.05,356.35L899.07,356.35L901.12,357.38L903.17,357.38L905.22,357.38L907.26,357.38L908.29,358.4L911.36,358.4L914.43,358.4L915.46,359.42L917.5,359.42L919.55,359.42L921.6,359.42L925.7,359.42L926.72,360.45L930.82,361.47L932.86,361.47L934.91,362.5L935.94,362.5L937.98,363.52L940.03,364.54L942.08,365.57L945.15,366.59L947.2,368.64L949.25,369.66L951.3,371.71L953.34,372.74L954.37,373.76L956.42,374.78L958.46,376.83L959.49,377.86L961.54,378.88L961.54,379.9L963.58,380.93L964.61,381.95L966.66,385.02L967.68,386.05L969.73,388.1L970.75,391.17L972.8,393.22L974.85,396.29L976.9,398.34L977.92,400.38L979.97,402.43L980.99,405.5L982.02,407.55L983.04,409.6L984.06,411.65L985.09,413.7L986.11,416.77L987.14,417.79L988.16,423.94L989.18,428.03L989.18,431.1L989.18,435.2L990.21,438.27L991.23,439.3L991.23,440.32L993.28,445.44L994.3,447.49L994.3,451.58L995.33,453.63L995.33,455.68L996.35,458.75L996.35,461.82L997.38,465.92L998.4,468.99L998.4,471.04L999.42,473.09L999.42,478.21L999.42,481.28L1000.45,484.35L1000.45,487.42L999.42,490.5L999.42,494.59L999.42,496.64L999.42,499.71L999.42,504.83L998.4,508.93L998.4,510.98L997.38,515.07L997.38,518.14L997.38,526.34L997.38,527.36L997.38,528.38L997.38,533.5L997.38,536.58L996.35,537.6L997.38,540.67L997.38,541.7L997.38,544.77L997.38,548.86L996.35,550.91L996.35,555.01L996.35,559.1L996.35,562.18L996.35,564.22L996.35,566.27L996.35,567.3L996.35,571.39L995.33,573.44L995.33,575.49L995.33,577.54L995.33,581.63L995.33,583.68L994.3,585.73L994.3,588.8L993.28,592.9L993.28,595.97L994.3,598.02L994.3,600.06" fill="none" stroke="#000000" style="-webkit-tap-highlight-color: rgba(0, 0, 0, 0); stroke-linecap: round; stroke-linejoin: round; stroke-width: 6;" /><path d="M1000.45,577.54L1003.52,577.54L1011.71,578.56L1020.93,579.58" fill="none" stroke="#000000" style="-webkit-tap-highlight-color: rgba(0, 0, 0, 0); stroke-linecap: round; stroke-linejoin: round; stroke-width: 6;" /><path d="M448.51,684.03L447.49,685.06L446.46,685.06L445.44,687.1L445.44,688.13L444.42,694.27L444.42,696.32L444.42,702.46L444.42,705.54L446.46,709.63L447.49,711.68L448.51,713.73L448.51,715.78L447.49,718.85L445.44,721.92L444.42,724.99L443.39,728.06L437.25,735.23L435.2,736.26L432.13,738.3L430.08,739.33L427.01,741.38L422.91,743.42L420.86,746.5L418.82,748.54L416.77,752.64L413.7,756.74L411.65,761.86L411.65,763.9L411.65,768" fill="none" stroke="#000000" style="-webkit-tap-highlight-color: rgba(0, 0, 0, 0); stroke-linecap: round; stroke-linejoin: round; stroke-width: 6;" /><path d="M458.75,687.1L459.78,685.06L463.87,685.06L465.92,685.06L468.99,685.06L473.09,684.03L478.21,684.03L484.35,683.01L489.47,683.01L494.59,684.03L500.74,685.06L513.02,685.06L522.24,685.06L525.31,685.06" fill="none" stroke="#000000" style="-webkit-tap-highlight-color: rgba(0, 0, 0, 0); stroke-linecap: round; stroke-linejoin: round; stroke-width: 6;" /><path d="M519.17,692.22L521.22,692.22L524.29,692.22L530.43,691.2L534.53,690.18L539.65,691.2L544.77,692.22L553.98,694.27L560.13,695.3L566.27,698.37L570.37,700.42L576.51,704.51L586.75,711.68L592.9,715.78L600.06,718.85L607.23,720.9L616.45,723.97L623.62,726.02L627.71,726.02L635.9,729.09L641.02,730.11L655.36,733.18L658.43,736.26L660.48,737.28L666.62,742.4L673.79,742.4" fill="none" stroke="#000000" style="-webkit-tap-highlight-color: rgba(0, 0, 0, 0); stroke-linecap: round; stroke-linejoin: round; stroke-width: 6;" /><path d="M579.58,698.37L582.66,697.34L584.7,696.32L587.78,696.32L596.99,698.37L600.06,698.37L605.18,699.39L609.28,699.39L612.35,699.39L622.59,699.39L647.17,699.39L653.31,700.42L659.46,701.44L666.62,702.46L672.77,702.46L681.98,703.49L688.13,703.49L694.27,704.51L699.39,705.54L707.58,705.54L712.7,705.54L718.85,705.54L723.97,705.54L728.06,704.51L734.21,703.49L736.26,704.51L738.3,704.51" fill="none" stroke="#000000" style="-webkit-tap-highlight-color: rgba(0, 0, 0, 0); stroke-linecap: round; stroke-linejoin: round; stroke-width: 6;" /><path d="M773.12,706.56L777.22,706.56L781.31,706.56L785.41,705.54L789.5,705.54L797.7,706.56L802.82,707.58L807.94,708.61L813.06,709.63L819.2,709.63L826.37,710.66L831.49,711.68L837.63,711.68L843.78,713.73L847.87,714.75L851.97,715.78L855.04,715.78L857.09,715.78L859.14,716.8L863.23,717.82L866.3,718.85L869.38,719.87L872.45,720.9L878.59,722.94L883.71,723.97L888.83,723.97L893.95,723.97L899.07,726.02" fill="none" stroke="#000000" style="-webkit-tap-highlight-color: rgba(0, 0, 0, 0); stroke-linecap: round; stroke-linejoin: round; stroke-width: 6;" /><path d="M845.82,680.96L849.92,679.94L851.97,679.94L852.99,678.91L850.94,681.98L843.78,686.08L836.61,690.18L828.42,694.27L820.22,697.34L809.98,701.44L805.89,702.46L803.84,703.49" fill="none" stroke="#000000" style="-webkit-tap-highlight-color: rgba(0, 0, 0, 0); stroke-linecap: round; stroke-linejoin: round; stroke-width: 6;" /><path d="M859.14,681.98L860.16,681.98L861.18,680.96L865.28,679.94L869.38,678.91L875.52,677.89L879.62,678.91L884.74,678.91L889.86,679.94L893.95,679.94L900.1,681.98L905.22,681.98L910.34,683.01L913.41,683.01L919.55,684.03L923.65,685.06L924.67,685.06L930.82,687.1L934.91,688.13L939.01,688.13L945.15,690.18L949.25,692.22L952.32,693.25L957.44,695.3L960.51,695.3L963.58,695.3L966.66,696.32L969.73,697.34L972.8,697.34L978.94,699.39L980.99,699.39L988.16,698.37L997.38,695.3L1006.59,692.22" fill="none" stroke="#000000" style="-webkit-tap-highlight-color: rgba(0, 0, 0, 0); stroke-linecap: round; stroke-linejoin: round; stroke-width: 6;" /><path d="M22.53,683.01L21.5,684.03L20.48,684.03L20.48,685.06L22.53,685.06L23.55,685.06L26.62,686.08L30.72,686.08L37.89,687.1L45.06,688.13L51.2,689.15L63.49,690.18L70.66,690.18L83.97,694.27L90.11,697.34L92.16,698.37L95.23,699.39L103.42,700.42L108.54,701.44L113.66,702.46L121.86,705.54L125.95,708.61L131.07,710.66L137.22,712.7L143.36,713.73L150.53,713.73L161.79,712.7L169.98,713.73L178.18,713.73L185.34,713.73L196.61,713.73L203.78,713.73L209.92,713.73L215.04,714.75L220.16,715.78L228.35,717.82L232.45,717.82L236.54,718.85L242.69,718.85L244.74,718.85L250.88,719.87L254.98,720.9L262.14,722.94L265.22,722.94L273.41,723.97L279.55,726.02L284.67,727.04L289.79,730.11L295.94,733.18L300.03,735.23L302.08,736.26L307.2,738.3L310.27,740.35L314.37,743.42L318.46,743.42L322.56,744.45L326.66,746.5L331.78,750.59L335.87,752.64L339.97,755.71L344.06,756.74L349.18,757.76L354.3,758.78L362.5,761.86L367.62,763.9L372.74,765.95L375.81,766.98L384,770.05L388.1,771.07L392.19,772.1L396.29,774.14L402.43,775.17" fill="none" stroke="#000000" style="-webkit-tap-highlight-color: rgba(0, 0, 0, 0); stroke-linecap: round; stroke-linejoin: round; stroke-width: 6;" /><path d="M406.53,766.98L407.55,766.98L410.62,766.98L413.7,766.98L422.91,765.95L434.18,763.9L438.27,762.88L448.51,759.81" fill="none" stroke="#000000" style="-webkit-tap-highlight-color: rgba(0, 0, 0, 0); stroke-linecap: round; stroke-linejoin: round; stroke-width: 6;" /><path d="M460.8,766.98L461.82,765.95L463.87,765.95L465.92,765.95L467.97,766.98L471.04,769.02L473.09,770.05L476.16,774.14L478.21,776.19L479.23,778.24L479.23,782.34L480.26,783.36L480.26,786.43L481.28,787.46L482.3,789.5L485.38,790.53L487.42,791.55L489.47,791.55L493.57,791.55L496.64,791.55L501.76,790.53L504.83,790.53L507.9,790.53L512,789.5L518.14,788.48L522.24,787.46L526.34,785.41L530.43,783.36L537.6,780.29L539.65,780.29L543.74,779.26L544.77,778.24L548.86,777.22L552.96,775.17L555.01,775.17L558.08,774.14L560.13,773.12L564.22,772.1L566.27,772.1L567.3,772.1L570.37,773.12L575.49,774.14L579.58,775.17L581.63,776.19L585.73,776.19L588.8,777.22L591.87,777.22L594.94,777.22L596.99,778.24L598.02,778.24L601.09,778.24L605.18,777.22L607.23,777.22L610.3,776.19L612.35,776.19L614.4,776.19L615.42,776.19L618.5,776.19L620.54,776.19L622.59,776.19L624.64,776.19L627.71,776.19L629.76,777.22" fill="none" stroke="#000000" style="-webkit-tap-highlight-color: rgba(0, 0, 0, 0); stroke-linecap: round; stroke-linejoin: round; stroke-width: 6;" /><path d="M611.33,786.43L610.3,785.41L610.3,784.38L611.33,783.36L612.35,780.29L616.45,778.24L621.57,776.19L630.78,773.12L636.93,771.07L642.05,770.05L647.17,769.02L652.29,768L657.41,765.95L666.62,763.9L671.74,761.86L675.84,760.83L678.91,759.81L684.03,758.78L687.1,757.76L690.18,757.76L693.25,756.74L695.3,756.74L698.37,756.74L700.42,757.76L703.49,756.74L706.56,756.74L711.68,757.76L714.75,756.74L717.82,757.76L720.9,756.74L723.97,756.74L728.06,756.74L731.14,757.76L734.21,757.76L737.28,757.76L741.38,760.83L746.5,759.81L750.59,760.83L751.62,761.86L756.74,763.9L758.78,764.93L761.86,766.98L766.98,768" fill="none" stroke="#000000" style="-webkit-tap-highlight-color: rgba(0, 0, 0, 0); stroke-linecap: round; stroke-linejoin: round; stroke-width: 6;" /><path d="M763.9,772.1L765.95,772.1L769.02,772.1L773.12,771.07L777.22,771.07L787.46,769.02L793.6,766.98L796.67,766.98L801.79,764.93L806.91,763.9L812.03,762.88L815.1,761.86L822.27,762.88L826.37,761.86L829.44,760.83L833.54,759.81L840.7,758.78L845.82,757.76L850.94,757.76L856.06,757.76L858.11,756.74L868.35,754.69L872.45,753.66L876.54,752.64L880.64,751.62L886.78,750.59L890.88,749.57L892.93,749.57L898.05,748.54L901.12,747.52L904.19,747.52L907.26,748.54L910.34,748.54L914.43,748.54L917.5,749.57L919.55,750.59L921.6,751.62L923.65,751.62L927.74,753.66L928.77,753.66L932.86,754.69L933.89,753.66L936.96,753.66L939.01,752.64L943.1,750.59L944.13,749.57L950.27,747.52L954.37,745.47L958.46,744.45L964.61,740.35L970.75,737.28L976.9,734.21L986.11,730.11L993.28,727.04L1000.45,723.97L1008.64,722.94L1018.88,720.9" fill="none" stroke="#000000" style="-webkit-tap-highlight-color: rgba(0, 0, 0, 0); stroke-linecap: round; stroke-linejoin: round; stroke-width: 6;" /><path d="M765.95,753.66L766.98,752.64L769.02,751.62L776.19,747.52L782.34,745.47L788.48,742.4L796.67,739.33L805.89,736.26L819.2,732.16L827.39,730.11L836.61,730.11L844.8,729.09L856.06,728.06L863.23,728.06L870.4,728.06L877.57,729.09L884.74,730.11L893.95,731.14L900.1,732.16L907.26,733.18L913.41,734.21L930.82,737.28L937.98,739.33L942.08,740.35L946.18,741.38L954.37,741.38L972.8,740.35L984.06,738.3" fill="none" stroke="#000000" style="-webkit-tap-highlight-color: rgba(0, 0, 0, 0); stroke-linecap: round; stroke-linejoin: round; stroke-width: 6;" /><path d="M18.43,611.33L21.5,612.35L24.58,613.38L28.67,617.47L31.74,619.52L36.86,620.54L46.08,621.57L54.27,622.59L61.44,623.62L69.63,626.69L76.8,627.71L83.97,629.76L94.21,630.78L101.38,631.81L108.54,633.86L115.71,633.86L124.93,635.9L131.07,637.95L136.19,637.95L142.34,640L148.48,641.02L155.65,642.05L164.86,643.07L171.01,643.07L176.13,643.07L185.34,642.05L192.51,642.05L199.68,641.02" fill="none" stroke="#000000" style="-webkit-tap-highlight-color: rgba(0, 0, 0, 0); stroke-linecap: round; stroke-linejoin: round; stroke-width: 6;" /><path d="M183.3,643.07L185.34,643.07L190.46,642.05L197.63,642.05L210.94,642.05L222.21,641.02L237.57,640L254.98,634.88L264.19,631.81L294.91,621.57L300.03,620.54" fill="none" stroke="#000000" style="-webkit-tap-highlight-color: rgba(0, 0, 0, 0); stroke-linecap: round; stroke-linejoin: round; stroke-width: 6;" /><path d="M304.13,622.59L306.18,621.57L311.3,620.54L318.46,618.5L329.73,615.42L337.92,614.4L388.1,616.45L405.5,620.54L416.77,624.64L422.91,626.69L432.13,628.74L436.22,629.76L439.3,630.78" fill="none" stroke="#000000" style="-webkit-tap-highlight-color: rgba(0, 0, 0, 0); stroke-linecap: round; stroke-linejoin: round; stroke-width: 6;" /><path d="M617.47,656.38L616.45,657.41L614.4,656.38L613.38,655.36L612.35,654.34L613.38,655.36L617.47,657.41L623.62,660.48L629.76,663.55L635.9,667.65L645.12,673.79L648.19,675.84L657.41,681.98L663.55,685.06L670.72,688.13L680.96,691.2L684.03,692.22L692.22,694.27" fill="none" stroke="#000000" style="-webkit-tap-highlight-color: rgba(0, 0, 0, 0); stroke-linecap: round; stroke-linejoin: round; stroke-width: 6;" /><path d="M471.04,642.05L473.09,642.05L476.16,642.05L481.28,643.07L489.47,645.12L500.74,648.19L512,653.31L531.46,659.46L546.82,663.55L555.01,664.58L576.51,667.65" fill="none" stroke="#000000" style="-webkit-tap-highlight-color: rgba(0, 0, 0, 0); stroke-linecap: round; stroke-linejoin: round; stroke-width: 6;" /><path d="M449.54,293.89L450.56,294.91L451.58,297.98L451.58,302.08L451.58,308.22L451.58,319.49L452.61,324.61L453.63,325.63L453.63,326.66L455.68,330.75" fill="none" stroke="#000000" style="-webkit-tap-highlight-color: rgba(0, 0, 0, 0); stroke-linecap: round; stroke-linejoin: round; stroke-width: 6;" /><path d="M453.63,346.11L454.66,345.09L455.68,343.04L456.7,342.02L459.78,339.97L463.87,338.94L472.06,338.94L479.23,337.92L483.33,337.92L486.4,338.94" fill="none" stroke="#000000" style="-webkit-tap-highlight-color: rgba(0, 0, 0, 0); stroke-linecap: round; stroke-linejoin: round; stroke-width: 6;" /><path d="M455.68,289.79L456.7,289.79L457.73,290.82L460.8,292.86L466.94,293.89L471.04,293.89L474.11,291.84L476.16,290.82L477.18,290.82L478.21,291.84L479.23,292.86L480.26,295.94L480.26,303.1L479.23,310.27L479.23,318.46L480.26,330.75L481.28,336.9L482.3,344.06L484.35,348.16L484.35,350.21" fill="none" stroke="#000000" style="-webkit-tap-highlight-color: rgba(0, 0, 0, 0); stroke-linecap: round; stroke-linejoin: round; stroke-width: 6;" /><path d="M60.42,348.16L60.42,347.14L60.42,345.09L61.44,348.16L62.46,354.3L63.49,359.42L64.51,365.57L64.51,369.66L64.51,374.78L65.54,378.88L67.58,380.93L69.63,382.98L71.68,384L74.75,384" fill="none" stroke="#000000" style="-webkit-tap-highlight-color: rgba(0, 0, 0, 0); stroke-linecap: round; stroke-linejoin: round; stroke-width: 6;" /><path d="M63.49,352.26L62.46,350.21L62.46,348.16L63.49,347.14L65.54,346.11L67.58,345.09L69.63,346.11L71.68,348.16L72.7,350.21L72.7,353.28L72.7,357.38L74.75,365.57L75.78,370.69L75.78,374.78L76.8,378.88L76.8,379.9" fill="none" stroke="#000000" style="-webkit-tap-highlight-color: rgba(0, 0, 0, 0); stroke-linecap: round; stroke-linejoin: round; stroke-width: 6;" /><path d="M869.38,373.76L870.4,374.78L870.4,378.88L868.35,384L868.35,390.14L867.33,396.29L866.3,400.38L871.42,406.53L873.47,407.55L876.54,407.55L878.59,407.55L881.66,406.53L882.69,405.5" fill="none" stroke="#000000" style="-webkit-tap-highlight-color: rgba(0, 0, 0, 0); stroke-linecap: round; stroke-linejoin: round; stroke-width: 6;" /><path d="M867.33,376.83L869.38,375.81L872.45,375.81L876.54,374.78L878.59,375.81L878.59,376.83L879.62,377.86L880.64,379.9L881.66,385.02L882.69,392.19L882.69,401.41L884.74,409.6L885.76,412.67L886.78,417.79L887.81,419.84" fill="none" stroke="#000000" style="-webkit-tap-highlight-color: rgba(0, 0, 0, 0); stroke-linecap: round; stroke-linejoin: round; stroke-width: 6;" /></svg>