<?xml version="1.0" encoding="utf-8" ?>
<svg baseProfile="full" height="1362" version="1.1" width="1024" xmlns="http://www.w3.org/2000/svg" xmlns:ev="http://www.w3.org/2001/xml-events" xmlns:xlink="http://www.w3.org/1999/xlink"><defs /><path d="M747.57,343.74L747.57,341.33L745.16,338.93L742.76,338.93L740.36,338.93L737.95,338.93L737.95,341.33L737.95,346.14L737.95,348.54L737.95,353.35L737.95,360.56L737.95,365.37L737.95,367.77L740.36,372.58L740.36,374.99L740.36,377.39L740.36,379.79L740.36,382.2L740.36,387L740.36,389.41L740.36,391.81L740.36,394.22L740.36,399.02L742.76,401.43L742.76,403.83L742.76,406.23L742.76,408.64L742.76,411.04L742.76,413.45L745.16,418.25L745.16,420.66L745.16,423.06L745.16,425.46L745.16,427.87L745.16,430.27L745.16,435.08L745.16,437.48L745.16,439.89L745.16,444.69L745.16,449.5L745.16,451.91L745.16,456.71L745.16,463.92L745.16,468.73L747.57,473.54L747.57,478.35L747.57,480.75L747.57,487.96L747.57,490.37L747.57,495.17L747.57,499.98L747.57,502.38L747.57,507.19L747.57,512L747.57,514.4L747.57,516.81L747.57,521.62L747.57,524.02L747.57,526.42L747.57,531.23L747.57,533.63L747.57,538.44L747.57,543.25L747.57,545.65L747.57,550.46L747.57,555.27L749.97,560.08L749.97,562.48L749.97,564.88L749.97,569.69L752.38,572.09L752.38,574.5L754.78,576.9L754.78,579.31L754.78,581.71L754.78,584.11L754.78,586.52L752.38,586.52L752.38,584.11L752.38,581.71" fill="none" stroke="#000000" style="-webkit-tap-highlight-color: rgba(0, 0, 0, 0); stroke-linecap: round; stroke-linejoin: round; stroke-width: 6;" /><path d="M742.76,341.33L745.16,341.33L749.97,341.33L754.78,341.33L761.99,341.33L771.61,338.93L783.62,336.53L795.64,336.53L805.26,336.53L812.47,336.53L819.68,336.53L826.89,338.93L834.1,338.93L841.31,343.74L846.12,346.14L850.93,348.54L855.74,350.95L860.54,350.95L862.95,353.35L867.76,353.35L872.56,353.35L877.37,355.76L882.18,355.76L886.99,358.16L889.39,360.56L894.2,360.56L894.2,362.97L896.6,365.37L899,365.37L901.41,370.18L906.22,372.58L911.02,374.99L915.83,379.79L920.64,382.2L923.04,384.6L925.45,387L927.85,387L930.25,387L932.66,389.41L935.06,389.41L937.46,389.41L939.87,389.41L944.68,391.81L947.08,394.22L951.89,394.22L956.69,394.22L961.5,396.62L966.31,396.62L971.12,396.62L975.92,396.62L980.73,399.02L985.54,399.02L990.35,401.43L995.15,401.43L997.56,403.83L999.96,406.23L1004.77,408.64L1004.77,411.04L1007.17,413.45L1007.17,415.85L1007.17,418.25L1007.17,423.06L1007.17,427.87L1009.58,430.27L1009.58,435.08L1009.58,437.48L1009.58,442.29L1009.58,444.69L1009.58,449.5L1009.58,451.91L1007.17,456.71L1007.17,459.12L1004.77,461.52L1004.77,466.33L1002.37,468.73L999.96,473.54L999.96,475.94L997.56,480.75L997.56,485.56L997.56,490.37L995.15,492.77L995.15,497.58L997.56,502.38L997.56,507.19L997.56,512L997.56,519.21L999.96,521.62L999.96,526.42L999.96,528.83L999.96,531.23L1002.37,533.63L1002.37,536.04L1002.37,538.44L1004.77,543.25L1004.77,545.65L1004.77,548.06L1004.77,550.46L1004.77,555.27L1004.77,557.67L1004.77,560.08L1004.77,562.48L1004.77,564.88L1007.17,567.29L1007.17,572.09L1007.17,574.5L1007.17,576.9L1007.17,579.31L1007.17,581.71L1007.17,584.11L1007.17,586.52L1004.77,586.52L1004.77,588.92L1002.37,588.92L999.96,588.92L997.56,591.32L995.15,591.32L995.15,593.73L995.15,596.13L995.15,598.54L992.75,603.34L992.75,605.75L992.75,610.55L992.75,615.36L992.75,617.77L992.75,622.57L992.75,624.98L992.75,627.38L992.75,632.19L992.75,634.59L990.35,639.4L990.35,641.8L987.94,644.21L987.94,646.61L987.94,649.01L987.94,651.42L987.94,653.82L987.94,656.23L987.94,658.63L987.94,661.03L987.94,663.44L987.94,665.84L987.94,668.24L985.54,668.24L983.14,668.24L980.73,668.24L978.33,668.24L973.52,665.84L966.31,663.44L959.1,661.03L954.29,661.03L949.48,658.63L942.27,658.63L939.87,658.63L932.66,658.63L927.85,658.63L925.45,658.63L920.64,658.63L915.83,658.63L911.02,658.63L906.22,658.63L899,658.63L891.79,656.23L886.99,656.23L879.77,656.23L874.97,656.23L867.76,656.23L862.95,656.23L855.74,656.23L850.93,656.23L843.72,656.23L841.31,656.23L836.51,656.23L831.7,656.23L826.89,656.23L822.08,658.63L812.47,661.03L807.66,661.03L802.85,661.03L800.45,661.03L795.64,663.44L793.24,663.44L793.24,665.84L790.84,665.84L786.03,665.84L783.62,668.24L781.22,668.24L776.41,668.24L771.61,668.24L766.8,670.65L764.39,670.65L761.99,673.05L759.59,673.05L759.59,675.46L757.18,675.46L757.18,677.86L754.78,677.86L754.78,680.26L754.78,682.67L752.38,685.07L752.38,687.47L752.38,685.07L752.38,682.67L752.38,680.26" fill="none" stroke="#000000" style="-webkit-tap-highlight-color: rgba(0, 0, 0, 0); stroke-linecap: round; stroke-linejoin: round; stroke-width: 6;" /><path d="M651.42,358.16L649.01,358.16L646.61,358.16L644.21,358.16L641.8,355.76L639.4,355.76L637,355.76L637,358.16L634.59,360.56L634.59,362.97L634.59,367.77L639.4,374.99L641.8,384.6L646.61,391.81L649.01,399.02L651.42,403.83L653.82,408.64L656.23,413.45L656.23,415.85L656.23,420.66L656.23,425.46L656.23,430.27L656.23,437.48L653.82,442.29L653.82,447.1L651.42,451.91L651.42,459.12L651.42,463.92L651.42,473.54L651.42,475.94L651.42,480.75L653.82,483.15L656.23,487.96L656.23,490.37L658.63,495.17L661.03,497.58L661.03,499.98L663.44,504.79L665.84,507.19L665.84,509.6L668.24,512L668.24,514.4L668.24,516.81L670.65,519.21L670.65,521.62L670.65,524.02L673.05,526.42L673.05,528.83L675.46,531.23L675.46,533.63L675.46,536.04L675.46,538.44L675.46,540.85L675.46,543.25L677.86,545.65L677.86,548.06L677.86,550.46L677.86,552.86L677.86,555.27L677.86,557.67L677.86,560.08L677.86,562.48L677.86,564.88" fill="none" stroke="#000000" style="-webkit-tap-highlight-color: rgba(0, 0, 0, 0); stroke-linecap: round; stroke-linejoin: round; stroke-width: 6;" /><path d="M682.67,591.32L682.67,588.92L682.67,586.52L682.67,584.11L680.26,584.11L680.26,586.52L680.26,588.92L680.26,591.32L680.26,593.73L680.26,596.13L680.26,598.54L682.67,600.94L682.67,603.34L685.07,608.15L687.47,612.96L689.88,617.77L689.88,624.98L692.28,629.78L692.28,634.59L692.28,637L689.88,641.8L689.88,644.21L689.88,649.01L687.47,653.82L687.47,658.63L687.47,661.03L685.07,665.84L685.07,668.24L685.07,670.65L685.07,673.05L685.07,675.46L687.47,675.46L687.47,677.86L689.88,677.86L689.88,675.46" fill="none" stroke="#000000" style="-webkit-tap-highlight-color: rgba(0, 0, 0, 0); stroke-linecap: round; stroke-linejoin: round; stroke-width: 6;" /><path d="M646.61,355.76L644.21,355.76L646.61,355.76L651.42,353.35L656.23,350.95L665.84,348.54L675.46,346.14L682.67,343.74L685.07,341.33L687.47,341.33L692.28,341.33L694.69,341.33L699.49,343.74L701.9,343.74L706.7,343.74L711.51,343.74L716.32,346.14L721.13,346.14L723.53,348.54L728.34,348.54L730.74,348.54L733.15,348.54L735.55,348.54L737.95,348.54L740.36,348.54L742.76,348.54L745.16,348.54L747.57,348.54L749.97,348.54L752.38,348.54" fill="none" stroke="#000000" style="-webkit-tap-highlight-color: rgba(0, 0, 0, 0); stroke-linecap: round; stroke-linejoin: round; stroke-width: 6;" /><path d="M1009.58,588.92L1009.58,586.52L1009.58,584.11L1009.58,581.71L1009.58,579.31L1009.58,576.9L1009.58,574.5L1009.58,569.69L1007.17,567.29L1007.17,564.88L1011.98,564.88" fill="none" stroke="#000000" style="-webkit-tap-highlight-color: rgba(0, 0, 0, 0); stroke-linecap: round; stroke-linejoin: round; stroke-width: 6;" /><path d="M1004.77,711.51L1004.77,713.92L1004.77,716.32L1004.77,718.72L1004.77,721.13L1002.37,723.53L999.96,721.13L999.96,718.72L997.56,718.72L997.56,716.32L997.56,711.51L997.56,709.11L999.96,706.7L999.96,701.9L1002.37,699.49L1002.37,697.09L1004.77,694.69L1004.77,692.28L1004.77,689.88L1004.77,687.47L1002.37,685.07L1002.37,682.67L999.96,682.67L997.56,682.67L995.15,682.67L992.75,682.67L992.75,680.26L990.35,677.86L987.94,675.46L985.54,673.05L983.14,673.05L978.33,673.05L973.52,673.05L966.31,673.05L956.69,673.05L951.89,673.05L944.68,673.05L939.87,673.05L935.06,670.65L930.25,670.65L925.45,670.65L920.64,670.65L915.83,668.24L911.02,668.24L903.81,668.24L899,668.24L894.2,668.24L891.79,668.24L886.99,670.65L884.58,670.65L882.18,673.05L877.37,673.05L874.97,675.46L872.56,675.46L867.76,677.86L865.35,677.86L860.54,677.86L855.74,680.26L853.33,680.26L848.53,682.67L846.12,682.67L841.31,682.67L836.51,682.67L834.1,682.67L829.3,685.07L824.49,685.07L819.68,685.07L814.87,685.07L812.47,687.47L807.66,689.88L805.26,692.28L805.26,694.69L807.66,697.09L810.07,697.09L814.87,699.49L819.68,699.49L826.89,699.49L834.1,701.9L841.31,701.9L848.53,701.9L853.33,704.3L858.14,704.3L862.95,706.7L867.76,709.11L870.16,709.11L874.97,711.51L877.37,711.51L882.18,713.92L886.99,713.92L891.79,716.32L894.2,716.32L899,718.72L901.41,718.72L903.81,721.13L906.22,723.53L906.22,725.93L906.22,728.34L903.81,730.74L903.81,733.15L903.81,735.55L903.81,737.95L901.41,740.36L901.41,742.76L899,745.16L896.6,747.57L894.2,747.57L896.6,747.57" fill="none" stroke="#000000" style="-webkit-tap-highlight-color: rgba(0, 0, 0, 0); stroke-linecap: round; stroke-linejoin: round; stroke-width: 6;" /><path d="M891.79,721.13L894.2,716.32L894.2,713.92L894.2,711.51L891.79,711.51L889.39,713.92L886.99,716.32L882.18,718.72L877.37,721.13L872.56,723.53L867.76,723.53L865.35,725.93L860.54,728.34L858.14,728.34L855.74,730.74L853.33,730.74L850.93,730.74L850.93,733.15L848.53,733.15L846.12,735.55L843.72,737.95L841.31,740.36L838.91,740.36L836.51,742.76L834.1,742.76L829.3,745.16L824.49,745.16L822.08,745.16L819.68,745.16L817.28,745.16L814.87,745.16L812.47,745.16L810.07,745.16L807.66,745.16L802.85,745.16L798.05,745.16L793.24,745.16L788.43,745.16L783.62,747.57L778.82,749.97L771.61,749.97L766.8,749.97L759.59,752.38L752.38,754.78L747.57,757.18L742.76,759.59L737.95,761.99L735.55,761.99L730.74,764.39L725.93,764.39L721.13,766.8L716.32,766.8L711.51,769.2L704.3,771.61L697.09,774.01L692.28,776.41L682.67,778.82L675.46,781.22L670.65,781.22L663.44,783.62L658.63,783.62L653.82,786.03L651.42,786.03L649.01,786.03L646.61,786.03L644.21,783.62L641.8,783.62L639.4,783.62L637,783.62L634.59,783.62L632.19,783.62L629.78,783.62L624.98,783.62L622.57,783.62L620.17,783.62L620.17,781.22L622.57,781.22L629.78,776.41L637,774.01L646.61,769.2L656.23,766.8L663.44,764.39L670.65,761.99L675.46,759.59L680.26,759.59L685.07,757.18L689.88,757.18L697.09,757.18L701.9,754.78L704.3,754.78L709.11,752.38L713.92,749.97L721.13,747.57L725.93,747.57L733.15,745.16L740.36,745.16L747.57,742.76L754.78,740.36L759.59,740.36L764.39,737.95L769.2,737.95L774.01,737.95L778.82,737.95L781.22,737.95L783.62,737.95L786.03,737.95L788.43,737.95L790.84,737.95L793.24,735.55L795.64,735.55L795.64,733.15L798.05,733.15L800.45,730.74L802.85,728.34L805.26,725.93L805.26,723.53L807.66,723.53L810.07,721.13L812.47,721.13L814.87,718.72L819.68,718.72L824.49,718.72L826.89,718.72L829.3,718.72L831.7,718.72L834.1,716.32L836.51,716.32L838.91,716.32L841.31,716.32L841.31,713.92L843.72,713.92L838.91,716.32L834.1,716.32" fill="none" stroke="#000000" style="-webkit-tap-highlight-color: rgba(0, 0, 0, 0); stroke-linecap: round; stroke-linejoin: round; stroke-width: 6;" /><path d="M646.61,673.05L646.61,670.65L646.61,668.24L646.61,665.84L649.01,665.84L653.82,665.84L656.23,668.24L658.63,668.24L663.44,670.65L670.65,670.65L677.86,670.65L687.47,670.65L697.09,670.65L704.3,670.65L711.51,670.65L718.72,670.65L723.53,670.65L728.34,673.05L733.15,675.46L742.76,680.26L747.57,680.26L754.78,682.67L759.59,685.07L764.39,685.07L769.2,685.07L771.61,685.07L776.41,685.07L778.82,687.47L783.62,687.47L786.03,687.47L790.84,689.88L793.24,692.28L798.05,694.69L800.45,697.09L802.85,699.49L807.66,701.9L810.07,701.9L814.87,704.3L817.28,704.3L822.08,704.3L824.49,704.3L826.89,704.3L829.3,704.3L826.89,704.3L824.49,706.7" fill="none" stroke="#000000" style="-webkit-tap-highlight-color: rgba(0, 0, 0, 0); stroke-linecap: round; stroke-linejoin: round; stroke-width: 6;" /><path d="M413.45,146.63L413.45,144.23L413.45,141.82L413.45,139.42L411.04,139.42L411.04,141.82L411.04,144.23L411.04,146.63L413.45,151.44L413.45,153.84L415.85,158.65L415.85,165.86L415.85,170.67L415.85,175.47L415.85,180.28L418.25,185.09L418.25,189.9L418.25,194.7L418.25,199.51L418.25,204.32L418.25,206.72L415.85,211.53L415.85,216.34L415.85,218.74L415.85,223.55L415.85,225.95L415.85,230.76L415.85,235.57L415.85,240.38L415.85,242.78L415.85,247.59L415.85,249.99L415.85,254.8L415.85,257.2L415.85,262.01L415.85,264.41L415.85,266.82L415.85,271.62L415.85,274.03L415.85,276.43L415.85,278.84L415.85,281.24L415.85,286.05L415.85,288.45L415.85,290.85L415.85,293.26L415.85,295.66L415.85,298.07L415.85,300.47L415.85,302.87L413.45,305.28L413.45,307.68L413.45,312.49L413.45,314.89L413.45,319.7L413.45,322.1L413.45,324.51L413.45,326.91L413.45,334.12L413.45,336.53L413.45,338.93L415.85,343.74L415.85,346.14L418.25,350.95L418.25,355.76L418.25,358.16L418.25,362.97L420.66,367.77L420.66,370.18L423.06,374.99L423.06,377.39L425.46,382.2L425.46,384.6L427.87,387L427.87,391.81L427.87,394.22L430.27,396.62L430.27,401.43L432.68,403.83L432.68,406.23L432.68,408.64L435.08,413.45L435.08,415.85L435.08,420.66L435.08,423.06L435.08,427.87L435.08,432.68L435.08,435.08L435.08,439.89L435.08,444.69L435.08,449.5L435.08,454.31L435.08,459.12L435.08,463.92L435.08,468.73L435.08,473.54L437.48,478.35L437.48,480.75L439.89,483.15L442.29,485.56L442.29,490.37L444.69,492.77L444.69,497.58L447.1,499.98L447.1,504.79L447.1,509.6L447.1,512L447.1,516.81L447.1,521.62L447.1,526.42L447.1,533.63L447.1,538.44L447.1,543.25L447.1,548.06L447.1,555.27L447.1,560.08L447.1,567.29L447.1,574.5L444.69,579.31L444.69,581.71L444.69,586.52L444.69,588.92L444.69,593.73L442.29,598.54L442.29,600.94L442.29,605.75L442.29,608.15L439.89,612.96L439.89,615.36L439.89,617.77L437.48,620.17L437.48,622.57L437.48,624.98L435.08,627.38L435.08,629.78L435.08,634.59L437.48,637L439.89,639.4L442.29,641.8L444.69,644.21L449.5,646.61L454.31,649.01L459.12,651.42L463.92,653.82L468.73,653.82L473.54,653.82L478.35,653.82L480.75,653.82L485.56,651.42L490.37,651.42L495.17,649.01L499.98,649.01L504.79,649.01L509.6,646.61L514.4,646.61L521.62,646.61L526.42,646.61L531.23,649.01L536.04,649.01L540.85,649.01L545.65,651.42L552.86,653.82L560.08,653.82L567.29,656.23L574.5,658.63L579.31,658.63L581.71,658.63L586.52,661.03L591.32,661.03L593.73,661.03L596.13,663.44L598.54,663.44L600.94,663.44L600.94,661.03L600.94,653.82L600.94,651.42L600.94,646.61L603.34,644.21L603.34,639.4L603.34,637L603.34,634.59L605.75,632.19L605.75,629.78L608.15,627.38L610.55,624.98L612.96,622.57L615.36,620.17L615.36,617.77L617.77,615.36L620.17,612.96L620.17,610.55L622.57,608.15L624.98,605.75L627.38,605.75L629.78,603.34L632.19,598.54L634.59,596.13L637,591.32L639.4,588.92L639.4,584.11L641.8,579.31L641.8,574.5L641.8,569.69L644.21,564.88L644.21,562.48L644.21,560.08L644.21,555.27L644.21,552.86L644.21,550.46L641.8,548.06L641.8,545.65L641.8,540.85L641.8,538.44L639.4,536.04L639.4,531.23L639.4,528.83L639.4,526.42L639.4,521.62L639.4,519.21L637,514.4L637,512L637,507.19L637,502.38L637,497.58L634.59,492.77L634.59,490.37L634.59,485.56L634.59,483.15L634.59,478.35L634.59,473.54L632.19,466.33L632.19,463.92L629.78,454.31L629.78,449.5L629.78,444.69L629.78,437.48L629.78,432.68L629.78,427.87L629.78,423.06L629.78,418.25L629.78,411.04L632.19,403.83L632.19,399.02L632.19,394.22L632.19,389.41L632.19,384.6L634.59,379.79L634.59,374.99L634.59,370.18L634.59,365.37L634.59,360.56L634.59,355.76L632.19,350.95L629.78,346.14L629.78,341.33L629.78,338.93L629.78,336.53L629.78,334.12L627.38,331.72L627.38,326.91L624.98,322.1L624.98,314.89L624.98,310.08L624.98,305.28L624.98,302.87L627.38,300.47L627.38,295.66L627.38,293.26L627.38,290.85L627.38,288.45L627.38,286.05L627.38,283.64L627.38,281.24L627.38,276.43L624.98,274.03L622.57,269.22L622.57,266.82L620.17,262.01L620.17,259.61L617.77,257.2L617.77,254.8L615.36,252.39L610.55,247.59L608.15,242.78L603.34,237.97L600.94,233.16L598.54,228.36L596.13,225.95L593.73,221.15L591.32,218.74L586.52,216.34L581.71,211.53L576.9,209.13L572.09,204.32L567.29,201.92L562.48,199.51L557.67,194.7L555.27,192.3L552.86,189.9L550.46,187.49L550.46,185.09L550.46,182.69L550.46,180.28L548.06,177.88L548.06,175.47L545.65,173.07L543.25,170.67L540.85,170.67L538.44,168.26L533.63,168.26L531.23,165.86L528.83,163.46L524.02,163.46L521.62,161.05L519.21,158.65L514.4,158.65L512,158.65L507.19,156.24L504.79,156.24L502.38,156.24L499.98,153.84L497.58,153.84L492.77,153.84L490.37,151.44L487.96,151.44L483.15,151.44L480.75,151.44L475.94,149.03L473.54,149.03L468.73,149.03L466.33,149.03L461.52,149.03L459.12,149.03L454.31,151.44L449.5,151.44L447.1,153.84L442.29,153.84L437.48,153.84L432.68,156.24L430.27,156.24L425.46,156.24L420.66,158.65L418.25,158.65L415.85,158.65L411.04,161.05L406.23,165.86L401.43,170.67L399.02,173.07L396.62,175.47L394.22,177.88L394.22,175.47L396.62,175.47L399.02,175.47L408.64,175.47L415.85,177.88" fill="none" stroke="#000000" style="-webkit-tap-highlight-color: rgba(0, 0, 0, 0); stroke-linecap: round; stroke-linejoin: round; stroke-width: 6;" /><path d="M471.14,302.87L471.14,300.47L473.54,300.47L473.54,298.07L471.14,295.66L471.14,293.26L468.73,293.26L466.33,293.26L461.52,293.26L459.12,295.66L456.71,300.47L456.71,305.28L456.71,310.08L456.71,314.89L459.12,322.1L459.12,326.91L461.52,329.31L461.52,334.12L463.92,338.93L463.92,341.33L463.92,346.14L463.92,348.54L463.92,350.95L466.33,350.95L466.33,353.35L468.73,353.35L471.14,353.35L475.94,353.35L478.35,353.35L480.75,350.95L485.56,346.14L487.96,341.33L490.37,338.93L490.37,331.72L487.96,324.51L485.56,317.3L478.35,310.08L473.54,305.28L471.14,302.87L466.33,300.47L466.33,298.07L463.92,298.07L461.52,298.07" fill="none" stroke="#000000" style="-webkit-tap-highlight-color: rgba(0, 0, 0, 0); stroke-linecap: round; stroke-linejoin: round; stroke-width: 6;" /><path d="M158.65,168.26L156.24,168.26L156.24,165.86L153.84,165.86L153.84,163.46L153.84,161.05L156.24,158.65L158.65,156.24L163.46,153.84L165.86,151.44L168.26,151.44L168.26,153.84L168.26,163.46L168.26,170.67L168.26,182.69L165.86,192.3L165.86,204.32L168.26,211.53L170.67,221.15L175.47,228.36L177.88,233.16L180.28,237.97L182.69,245.18L185.09,249.99L187.49,257.2L187.49,266.82L187.49,274.03L189.9,281.24L189.9,290.85L192.3,298.07L194.7,302.87L194.7,310.08L194.7,317.3L194.7,324.51L194.7,331.72L197.11,338.93L199.51,346.14L201.92,353.35L201.92,358.16L201.92,365.37L201.92,370.18L201.92,377.39L201.92,384.6L201.92,391.81L201.92,399.02L199.51,406.23L199.51,411.04L199.51,415.85L199.51,423.06L199.51,427.87L199.51,432.68L199.51,437.48L199.51,439.89L201.92,444.69L204.32,451.91L206.72,456.71L209.13,463.92L211.53,471.14L211.53,478.35L211.53,485.56L213.93,490.37L213.93,497.58L213.93,502.38L216.34,509.6L216.34,516.81L216.34,524.02L216.34,531.23L216.34,538.44L216.34,543.25L216.34,548.06L216.34,550.46L216.34,555.27L216.34,560.08L216.34,564.88L218.74,569.69L218.74,574.5L218.74,579.31L221.15,581.71L221.15,586.52L221.15,588.92L221.15,591.32L221.15,598.54L221.15,603.34L218.74,608.15L218.74,612.96L218.74,617.77L218.74,622.57L218.74,624.98L218.74,627.38L218.74,632.19L218.74,634.59L221.15,637L221.15,634.59L221.15,637L221.15,639.4L218.74,639.4" fill="none" stroke="#000000" style="-webkit-tap-highlight-color: rgba(0, 0, 0, 0); stroke-linecap: round; stroke-linejoin: round; stroke-width: 6;" /><path d="M427.87,168.26L425.46,168.26L420.66,168.26L418.25,168.26L418.25,165.86L413.45,165.86L413.45,163.46L411.04,163.46L408.64,163.46L406.23,163.46L406.23,161.05L406.23,158.65L406.23,153.84L408.64,149.03L411.04,144.23L411.04,141.82L411.04,137.01L411.04,134.61L411.04,129.8L411.04,127.4L411.04,125L408.64,125L406.23,125L403.83,125L399.02,127.4L396.62,132.21L391.81,134.61L387,139.42L382.2,144.23L379.79,146.63L374.99,151.44L372.58,153.84L370.18,158.65L365.37,161.05L362.97,163.46L362.97,165.86L358.16,168.26L355.76,170.67L353.35,173.07L353.35,175.47L350.95,175.47L350.95,177.88L348.54,177.88L346.14,180.28L343.74,180.28L343.74,182.69L343.74,185.09L346.14,187.49L348.54,189.9L350.95,192.3L353.35,197.11L355.76,201.92L355.76,206.72L358.16,213.93L358.16,221.15L358.16,228.36L358.16,235.57L358.16,240.38L358.16,245.18L358.16,252.39L358.16,259.61L358.16,266.82L358.16,274.03L358.16,278.84L358.16,286.05L358.16,288.45L358.16,293.26L360.56,298.07L360.56,302.87L360.56,307.68L360.56,312.49L360.56,317.3L360.56,322.1L360.56,326.91L360.56,331.72L360.56,334.12L358.16,338.93L358.16,343.74L358.16,348.54L358.16,353.35L358.16,358.16L358.16,365.37L358.16,367.77L358.16,372.58L358.16,377.39L358.16,379.79L358.16,382.2L358.16,387L355.76,389.41L355.76,391.81L350.95,394.22L348.54,396.62L346.14,396.62L343.74,399.02L341.33,399.02L338.93,401.43L336.53,401.43L334.12,401.43L329.31,401.43L326.91,401.43L322.1,396.62L317.3,394.22L312.49,389.41L310.08,384.6L307.68,382.2L307.68,379.79L305.28,377.39L302.87,372.58L298.07,370.18L295.66,367.77L293.26,362.97L290.85,358.16L290.85,353.35L288.45,348.54L286.05,341.33L286.05,334.12L286.05,326.91L286.05,319.7L286.05,314.89L286.05,310.08L286.05,305.28L286.05,302.87L286.05,295.66L286.05,290.85L283.64,283.64L281.24,278.84L278.84,274.03L276.43,269.22L276.43,264.41L274.03,259.61L274.03,252.39L274.03,247.59L274.03,242.78L274.03,237.97L274.03,235.57L274.03,230.76L274.03,225.95L274.03,221.15L274.03,218.74L274.03,213.93L271.62,209.13L271.62,204.32L269.22,201.92L266.82,199.51L262.01,197.11L259.61,194.7L257.2,192.3L252.39,189.9L249.99,187.49L245.18,185.09L240.38,185.09L237.97,182.69L233.16,180.28L230.76,177.88L225.95,175.47L223.55,173.07L221.15,170.67L218.74,168.26L216.34,168.26L213.93,168.26L211.53,168.26L209.13,165.86L206.72,165.86L201.92,163.46L199.51,163.46L194.7,163.46L192.3,163.46L187.49,163.46L185.09,163.46L182.69,163.46L180.28,163.46L177.88,163.46L175.47,163.46L173.07,161.05L170.67,161.05L168.26,161.05L165.86,158.65L163.46,158.65L161.05,156.24L158.65,156.24L156.24,156.24L153.84,153.84L151.44,153.84L149.03,153.84L144.23,153.84L139.42,153.84L132.21,156.24L127.4,161.05L122.59,163.46L120.19,165.86L117.78,168.26L115.38,170.67L112.98,170.67L110.57,173.07L108.17,173.07L105.77,175.47L100.96,177.88L96.15,180.28L93.75,182.69L88.94,185.09L84.13,187.49L81.73,189.9L79.32,192.3L74.52,192.3L72.11,194.7L67.31,197.11L64.9,199.51L60.09,199.51L57.69,201.92L55.29,201.92L52.88,204.32L50.48,204.32L48.08,204.32L45.67,206.72L43.27,206.72L40.86,206.72L38.46,209.13L33.65,211.53L31.25,213.93L28.85,213.93L24.04,218.74L21.63,221.15L19.23,223.55L16.83,225.95L14.42,228.36L9.62,230.76L7.21,233.16L4.81,235.57L2.4,237.97L0,240.38" fill="none" stroke="#000000" style="-webkit-tap-highlight-color: rgba(0, 0, 0, 0); stroke-linecap: round; stroke-linejoin: round; stroke-width: 6;" /><path d="M4.81,259.61" fill="none" stroke="#000000" style="-webkit-tap-highlight-color: rgba(0, 0, 0, 0); stroke-linecap: round; stroke-linejoin: round; stroke-width: 6;" /><path d="M288.45,298.07L286.05,298.07L286.05,300.47L286.05,298.07L290.85,295.66L295.66,293.26L302.87,288.45L310.08,281.24L317.3,276.43L322.1,274.03L326.91,271.62L331.72,269.22L336.53,266.82L338.93,266.82L341.33,264.41L343.74,264.41L343.74,266.82L338.93,269.22L334.12,274.03L324.51,278.84L317.3,283.64L312.49,288.45L307.68,288.45L307.68,290.85L307.68,288.45L310.08,286.05L312.49,283.64L319.7,278.84L324.51,274.03L338.93,264.41L346.14,262.01L350.95,259.61L355.76,259.61L358.16,259.61L358.16,262.01L355.76,264.41L353.35,266.82L353.35,269.22L353.35,274.03" fill="none" stroke="#000000" style="-webkit-tap-highlight-color: rgba(0, 0, 0, 0); stroke-linecap: round; stroke-linejoin: round; stroke-width: 6;" /><path d="M115.38,639.4L117.78,641.8" fill="none" stroke="#000000" style="-webkit-tap-highlight-color: rgba(0, 0, 0, 0); stroke-linecap: round; stroke-linejoin: round; stroke-width: 6;" /><path d="M60.09,598.54L55.29,596.13L50.48,593.73L48.08,591.32L43.27,588.92L38.46,588.92L33.65,586.52L28.85,586.52L21.63,586.52L19.23,586.52L16.83,584.11L14.42,581.71L12.02,579.31L14.42,579.31L19.23,584.11L21.63,588.92L24.04,593.73L26.44,598.54L28.85,603.34L33.65,610.55L48.08,620.17L55.29,624.98L60.09,624.98L67.31,624.98L72.11,624.98L79.32,622.57L86.54,620.17L93.75,617.77L103.36,617.77L112.98,617.77L122.59,617.77L134.61,620.17L144.23,622.57L149.03,622.57L153.84,624.98L158.65,627.38L161.05,627.38L165.86,627.38L170.67,627.38L173.07,627.38L177.88,627.38L182.69,627.38L185.09,624.98L187.49,624.98L189.9,622.57L192.3,622.57L194.7,622.57L197.11,622.57L199.51,622.57L201.92,622.57L204.32,622.57L206.72,622.57L209.13,622.57L211.53,620.17L213.93,620.17L216.34,617.77L218.74,617.77L221.15,617.77" fill="none" stroke="#000000" style="-webkit-tap-highlight-color: rgba(0, 0, 0, 0); stroke-linecap: round; stroke-linejoin: round; stroke-width: 6;" /><path d="M221.15,665.84L218.74,665.84L216.34,665.84L216.34,663.44L218.74,661.03L221.15,658.63L228.36,656.23L233.16,651.42L240.38,649.01L247.59,644.21L254.8,644.21L259.61,641.8L266.82,641.8L271.62,639.4L278.84,639.4L283.64,637L288.45,637L293.26,637L298.07,637L300.47,637L305.28,637L312.49,637L317.3,637L324.51,634.59L329.31,634.59L336.53,634.59L341.33,637L346.14,637L353.35,639.4L358.16,641.8L362.97,641.8L367.77,641.8L372.58,641.8L379.79,639.4L384.6,637L389.41,634.59L396.62,634.59L401.43,632.19L408.64,632.19L411.04,632.19L415.85,632.19L420.66,632.19L423.06,632.19L427.87,632.19L430.27,632.19L435.08,632.19L437.48,632.19L439.89,632.19L442.29,632.19L444.69,634.59" fill="none" stroke="#000000" style="-webkit-tap-highlight-color: rgba(0, 0, 0, 0); stroke-linecap: round; stroke-linejoin: round; stroke-width: 6;" /><path d="M14.42,694.69L7.21,692.28L2.4,687.47L0,685.07L0,682.67L0,680.26L2.4,677.86L4.81,677.86L9.62,677.86L16.83,677.86L24.04,677.86L33.65,677.86L43.27,675.46L55.29,675.46L62.5,677.86L72.11,677.86L79.32,680.26L86.54,680.26L93.75,682.67L100.96,682.67L108.17,682.67L112.98,685.07L117.78,685.07L122.59,687.47L127.4,689.88L132.21,692.28L134.61,694.69L139.42,694.69L141.82,699.49L146.63,701.9L149.03,704.3L151.44,706.7L156.24,709.11L158.65,709.11L165.86,711.51L170.67,711.51L173.07,713.92L177.88,713.92L180.28,713.92L182.69,711.51L185.09,711.51L187.49,709.11L189.9,706.7L192.3,704.3L192.3,699.49L194.7,697.09L197.11,692.28L197.11,687.47L199.51,682.67L201.92,677.86L204.32,675.46L206.72,670.65L209.13,668.24L211.53,665.84L216.34,663.44L221.15,663.44L228.36,665.84L230.76,670.65" fill="none" stroke="#000000" style="-webkit-tap-highlight-color: rgba(0, 0, 0, 0); stroke-linecap: round; stroke-linejoin: round; stroke-width: 6;" /><path d="M471.14,682.67L466.33,682.67L463.92,680.26L461.52,680.26L459.12,682.67L456.71,682.67L459.12,682.67L463.92,680.26L468.73,677.86L473.54,677.86L480.75,675.46L487.96,675.46L495.17,675.46L504.79,677.86L512,680.26L521.62,682.67L528.83,687.47L536.04,692.28L543.25,694.69L550.46,697.09L555.27,699.49L562.48,701.9L567.29,704.3L569.69,704.3L576.9,706.7L579.31,706.7L584.11,709.11L588.92,711.51L593.73,711.51L596.13,713.92L600.94,713.92L605.75,713.92L610.55,716.32L612.96,716.32L615.36,718.72L620.17,718.72L622.57,718.72L624.98,721.13L627.38,723.53L629.78,725.93L629.78,730.74L629.78,735.55L629.78,740.36L629.78,745.16L627.38,749.97L624.98,752.38L620.17,757.18L617.77,761.99L612.96,766.8L610.55,771.61L610.55,774.01L608.15,776.41L605.75,776.41L603.34,776.41L598.54,774.01L591.32,771.61L581.71,771.61L574.5,769.2L564.88,766.8L557.67,766.8L550.46,766.8L543.25,769.2L533.63,771.61L524.02,774.01L514.4,778.82L507.19,781.22L497.58,786.03L490.37,788.43L485.56,793.24L480.75,795.64L475.94,798.05L471.14,798.05L466.33,798.05L461.52,795.64L459.12,790.84L459.12,786.03L459.12,778.82L461.52,771.61L463.92,764.39L466.33,759.59L468.73,752.38L468.73,747.57L468.73,740.36L466.33,735.55L461.52,733.15L459.12,728.34L459.12,723.53L456.71,718.72L456.71,713.92L456.71,709.11L454.31,704.3L454.31,699.49L454.31,694.69L454.31,689.88L454.31,685.07L454.31,680.26L456.71,677.86L456.71,675.46L454.31,675.46L454.31,677.86L454.31,680.26L451.91,682.67L451.91,685.07" fill="none" stroke="#000000" style="-webkit-tap-highlight-color: rgba(0, 0, 0, 0); stroke-linecap: round; stroke-linejoin: round; stroke-width: 6;" /><path d="M461.52,776.41L463.92,774.01L463.92,769.2L463.92,766.8L463.92,764.39L459.12,761.99L451.91,761.99L447.1,759.59L437.48,759.59L427.87,761.99L418.25,764.39L408.64,769.2L401.43,771.61L394.22,776.41L389.41,781.22L387,783.62L384.6,783.62L382.2,783.62L377.39,783.62L372.58,783.62L365.37,781.22L360.56,781.22L350.95,778.82L343.74,776.41L336.53,774.01L326.91,771.61L317.3,766.8L307.68,761.99L298.07,757.18L288.45,754.78L278.84,749.97L271.62,747.57L264.41,742.76L259.61,740.36L254.8,737.95L247.59,735.55L242.78,733.15L237.97,730.74L233.16,728.34L225.95,725.93L216.34,723.53L206.72,723.53L197.11,723.53L185.09,723.53L177.88,721.13L170.67,721.13L163.46,718.72L158.65,716.32L151.44,713.92L144.23,713.92L134.61,711.51L127.4,711.51L120.19,711.51L112.98,709.11L105.77,709.11L98.55,709.11L91.34,709.11L86.54,709.11L79.32,709.11L84.13,709.11L93.75,709.11L96.15,709.11" fill="none" stroke="#000000" style="-webkit-tap-highlight-color: rgba(0, 0, 0, 0); stroke-linecap: round; stroke-linejoin: round; stroke-width: 6;" /><path d="M199.51,634.59L204.32,629.78L206.72,624.98L209.13,624.98L211.53,627.38L211.53,632.19L213.93,634.59L216.34,637L216.34,641.8L216.34,644.21L213.93,646.61L211.53,651.42L206.72,653.82L204.32,656.23L199.51,661.03L194.7,663.44L189.9,665.84L185.09,668.24L180.28,670.65L175.47,673.05L173.07,677.86L168.26,680.26L165.86,682.67L163.46,685.07L158.65,689.88L156.24,694.69L153.84,699.49L153.84,704.3L151.44,709.11L151.44,713.92L151.44,716.32L153.84,718.72L156.24,718.72L156.24,716.32L158.65,716.32L158.65,713.92L161.05,713.92" fill="none" stroke="#000000" style="-webkit-tap-highlight-color: rgba(0, 0, 0, 0); stroke-linecap: round; stroke-linejoin: round; stroke-width: 6;" /></svg>