<?xml version="1.0" encoding="utf-8" ?>
<svg baseProfile="full" height="1407" version="1.1" width="1024" xmlns="http://www.w3.org/2000/svg" xmlns:ev="http://www.w3.org/2001/xml-events" xmlns:xlink="http://www.w3.org/1999/xlink"><defs /><path d="M34.8,415.07L34,423L38,410L34,423L34,423L34,423L34,423L38,410L38,410L38,410L38,410L40,410L43,410L45,411L45,411L60,412L60,412L60,412L62,412L62,412L66,414L70,418L69,416L72,420L78,427L75,422L75,422L76,430L82,435L80,432L79,430L84,437L87,441L87,442L87,441L92,445L93,445L92,445L94,446L96,449L104,450L99,448L104,455L104,455L105,454L110,460L112,460L114,460L117,462L117,462L114,460L117,462L127,466L138,457L138,455L138,457L138,455L138,455L138,452L138,455L138,452L138,450L138,447L138,445L138,442L138,441L136,437L136,435L135,430L135,432L135,425L135,427L135,420L135,423L135,416L135,418L135,416L134,414L133,412L132,411L127,407L129,408L130,409L127,407L125,404L122,401L124,403L121,400L120,399L120,399L120,398L120,399L120,394L121,384L120,394L120,395L120,380L121,384L120,380L120,378L121,375L120,377L121,375L123,372L124,372L124,372L131,373L135,368L135,368L137,368L139,368L140,368L140,368L148,370L149,370L154,370L152,370L156,370L159,369L162,371L164,371L164,368L172,365L167,369L172,365L172,363L173,360L173,355L173,358L174,354L174,353L174,349L174,348L174,345L174,344L174,344L174,344L176,344L176,344L187,336L186,332L186,331L186,328L186,326L186,323L186,323L186,323L187,318L187,316L186,312L186,306L186,303L186,308L186,298L186,291L186,293L186,288L186,286L186,283L186,281L186,278L186,278L187,275L187,275L188,273L188,273L188,273L190,272L193,271L194,271L196,271L199,272L201,273L203,273L206,274L211,274L209,274L219,279L219,279L219,279L221,279L222,279L229,279L230,280L231,281L237,278L237,278L237,277L238,276L239,269L239,273L239,268L240,266L240,263L240,261L241,258L241,256L242,254L244,249L245,244L245,242L244,249L246,240L249,231L247,239L249,234L249,231L251,230L255,228L258,228L256,228L258,228L269,229L270,228L259,229L272,226L272,227L274,226L278,225L283,225L283,225L285,225L283,225L285,224L285,219L285,221L286,216L287,214L287,211L293,209L291,208L291,208L302,209L298,209L296,209L303,209L306,209L306,209L310,210L318,210L321,209L318,210L326,209L327,209L332,210L331,210L337,211L342,212L342,212L342,212L350,212L348,212L352,212L358,214L359,214L363,214L364,214L368,216L378,215L373,215L384,214L390,213L398,213L404,214L405,215L407,219L431,218L431,218L434,217L435,217L440,218L437,217L450,218L450,218L460,206L455,206L462,206L467,206L470,206L472,206L480,206L477,206L485,206L483,218L493,218L495,218L495,218L502,220L515,219L507,220L515,219L517,219L522,220L524,220L537,220L529,221L537,220L539,220L544,221L552,218L555,218L552,218L562,220L562,220L571,218L574,218L576,218L582,218L582,218L582,218L594,218L594,218L595,218L601,220L606,220L604,220L614,220L609,220L622,219L622,219L624,219L629,220L631,220L637,220L641,220L644,220L646,220L649,221L651,220L651,220L654,220L654,220L660,226L656,220L664,226L660,227L669,227L670,228L672,234L674,233L679,236L675,235L683,238L681,239L688,240L686,239L692,239L693,239L696,239L699,240L701,241L704,244L704,244L701,241L701,241L704,244L703,242L704,244L704,242L711,241L712,239L711,241L713,239L717,240L718,236L716,236L721,233L726,234L723,234L729,234L731,233L731,236L731,236L736,239L736,241L737,242L740,244L738,243L740,244L744,261L744,251L744,256L744,263L744,265L744,265L745,271L745,273L745,276L745,278L745,281L745,286L745,291L745,288L745,296L745,293L745,300L745,298L745,300L745,300L746,300L748,300L751,300L753,300L756,300L758,300L762,300L763,300L766,300L770,300L768,300L773,300L775,300L780,300L778,300L784,301L786,304L787,306L789,311L789,313L789,316L789,323L789,326L789,321L789,331L789,336L789,333L789,338L789,341L789,343L788,344L789,348L789,350L789,355L789,358L789,358L790,366L791,368L791,370L792,373L792,373L795,381L795,381L795,381L796,387L797,388L797,390L797,395L797,393L797,398L800,401L805,402L803,401L809,401L809,401L810,401L814,399L815,398L817,397L819,396L820,394L820,394L820,394L826,385L826,385L828,383L827,384L831,380L830,381L834,379L834,379L833,379L834,379L849,382L848,383L834,379L851,380L855,380L851,380L851,380L857,380L860,380L865,381L862,380L868,382L870,383L871,384L875,386L879,385L880,385L881,385L881,385L893,376L892,378L894,370L894,370L894,370L894,370L895,367L894,370L896,365L896,365L897,358L896,363L898,355L898,355L907,345L899,351L907,345L907,345L910,343L910,343L912,341L911,341L913,338L914,338L917,337L919,335L921,333L919,325L919,325L920,324L923,322L924,321L927,319L925,320L927,316L927,319L928,315L932,313L932,313L932,313L932,313L942,296L942,296L942,296L942,296L942,293L942,292L942,293" fill="none" stroke="#000000" style="-webkit-tap-highlight-color: rgba(0, 0, 0, 0); stroke-linecap: round; stroke-linejoin: round; stroke-width: 7;" /><path d="M944,286L943,288L946,278L945,283L946,277L952,267L948,274L949,273L954,267L957,266L959,263L962,263L964,262L969,262L972,259L975,258L982,254L977,255L979,255L979,255L984,248L983,251L987,248L984,248L989,241L992,241L997,241L994,241L994,241L993,247" fill="none" stroke="#000000" style="-webkit-tap-highlight-color: rgba(0, 0, 0, 0); stroke-linecap: round; stroke-linejoin: round; stroke-width: 7;" /><path d="M350.45,782.91L350,780L350,778L350,775L350,773L350,770L350,768L350,766L348,763L348,761L348,758L348,756L359,744L359,744L359,744L359,744L361,736L360,741L361,728L361,735L361,726L360,720L360,720L360,718L358,711L358,711L354,703L355,704L354,701L353,699L353,699L355,691L353,686L354,681L354,683L353,686L353,679L354,674L353,670L353,676L353,666L349,664L354,656L354,659L354,654L350,648L350,646L350,641L350,639L354,627L354,632L354,627L348,614L348,609L348,604L348,601L348,597L348,589L348,594L348,584L357,569L356,568L356,568L356,566L351,549L351,549L351,549L351,549L348,534L348,529L351,549L348,527L352,515L351,514L352,515L351,514L351,508L351,500L351,507L351,505L351,492L351,490L351,487L351,497L351,482L351,479L351,472L351,475L351,467L351,460L351,465L352,454L351,450L352,435L352,445L352,442L352,435L351,425L351,423L352,431L351,422L351,413L351,415L351,410L351,408L351,398L351,403L351,405L351,395L351,393L351,390L351,385L351,383L352,376L352,376L352,375L352,375L351,370L350,365L351,369L350,363L350,360L350,358L349,348L350,353L349,345L349,341L349,338L349,333L349,328L349,318L349,323L348,315L348,313L348,311L348,308L349,306L349,306L349,306L350,306L350,306L355,305L355,305L358,293L360,293L363,293L368,293L370,293L365,306L380,298L378,296L385,301L388,301L393,301L395,313L395,313L395,313L410,315L413,315L418,315L420,315L428,314L428,314L435,306L435,306L437,306L442,308L445,308L445,308L445,308L456,315L462,313L462,313L468,311L472,309L472,309" fill="none" stroke="#000000" style="-webkit-tap-highlight-color: rgba(0, 0, 0, 0); stroke-linecap: round; stroke-linejoin: round; stroke-width: 7;" /><path d="M475,307L475,307L480,314L480,314L484,317L488,319L486,318L500,323L488,319L500,323L507,325L518,324L510,325L518,324L524,320L525,316L526,316L530,318L531,319L534,321L557,321L534,321L557,321L557,321L557,321L557,321L559,321L565,319L565,319L567,319L577,323L567,319L582,323L579,323L582,323L594,325L602,323L604,323L605,323L611,324L609,324L611,324L614,324L616,323L616,323L616,323L618,323L623.84,330.56L618,331L618,328L618,328L618,326L618,331L618,333L618,338L618,343L618,348L618,355L618,360L618,365L618,368L619,378L619,373L620,385L620,383L620,390L620,393L620,399L620,398L620,405L620,408L620,413L620,415L620,418L620,423L620,425L620,430L620,434L619,440L619,445L619,447L619,452L619,455L619,460L619,457L619,461L620,465L620,470L620,472L620,475L619,480L619,482L619,485L619,490L619,492L619,495L614,501L614,502L614,502L606,515L606,515L606,515L606,515L605,516L616,532L609,546L609,546L615,550L616,552L615,556L616,562L617,564L613,565L614,570L614,571L613,574L614,576L614,581L614,579L614,583L614,583L610,589L610,589L620,594L620,597L619,602L617,605L616,606L616,606L616,609L616,609L620,614L619,619L616,623L616,626L616,624L616,630L618,634L618,636L619,637L620,649L616,651L619,651L619,654L619,659L620,661L620,664L620,666L619,669L619,671L620,679L622,676L620,686L620,683" fill="none" stroke="#000000" style="-webkit-tap-highlight-color: rgba(0, 0, 0, 0); stroke-linecap: round; stroke-linejoin: round; stroke-width: 7;" /><path d="M620,691L620,693L620,696L620,698L620,701L620,706L620,703L620,708L620,713L620,721L620,718L620,716L620,723L620,728L620,731L620,726L618,741L620,736L620,746L620,751L620,756L620,761L620,763L620,766L620,770L620,773L620,778L620,775L622,783L621,784L625,785L625,785L624,804L624,804L624,804L624,804" fill="none" stroke="#000000" style="-webkit-tap-highlight-color: rgba(0, 0, 0, 0); stroke-linecap: round; stroke-linejoin: round; stroke-width: 7;" /><path d="M372.82,420.04" fill="none" stroke="#000000" style="-webkit-tap-highlight-color: rgba(0, 0, 0, 0); stroke-linecap: round; stroke-linejoin: round; stroke-width: 7;" /><path d="M624,809L626,809L624,809L626,809L626,828L626,828L626,828L626,828L626,828" fill="none" stroke="#000000" style="-webkit-tap-highlight-color: rgba(0, 0, 0, 0); stroke-linecap: round; stroke-linejoin: round; stroke-width: 7;" /><path d="M377,417L377,417" fill="none" stroke="#000000" style="-webkit-tap-highlight-color: rgba(0, 0, 0, 0); stroke-linecap: round; stroke-linejoin: round; stroke-width: 7;" /><path d="M626,828" fill="none" stroke="#000000" style="-webkit-tap-highlight-color: rgba(0, 0, 0, 0); stroke-linecap: round; stroke-linejoin: round; stroke-width: 7;" /><path d="M376,422L376,425L376,426L379,432L379,433L380,447L382,442L380,449L382,453L383,467L384,462L381,460L384,470L384,472L381,480L383,474L381,482L381,485L380,486L381,485L377,507L378,508L379,518L378,510L379,522L386,528L383,529L382,534L382,536L378,544L382,536L378,542L378,547L378,552L378,549L378,553L377,560L378,561L378,562L378,564L378,567L378,572L378,582L378,577L378,587L377,592L378,599L378,604L378,611L377,621L378,619L377,621L380,639L380,649L380,651L380,644L380,654L380,661L380,666L380,656L380,664L380,671L383,676L383,674L380,669L383,683L383,679L378,699L383,686L378,699L378,699L379,710L378,699" fill="none" stroke="#000000" style="-webkit-tap-highlight-color: rgba(0, 0, 0, 0); stroke-linecap: round; stroke-linejoin: round; stroke-width: 7;" /><path d="M381,727L379,710L378,711L381,727L384,736L381,727L382,734L380,731L385,740L383,748L385,743L383,739L385,749L385,751L385,754L385,756L385,757L384,761L383,763L383,763L385,770L388,770L384,761L385,770" fill="none" stroke="#000000" style="-webkit-tap-highlight-color: rgba(0, 0, 0, 0); stroke-linecap: round; stroke-linejoin: round; stroke-width: 7;" /><path d="M417.55,420.04L422,418L422,415L422,413L422,410L422,418L422,413L419,428L416,433L415,447L415,440L414,455L414,462L415,466L419,476L418,480L418,480L424,492L424,493L424,500L422,505L422,511L422,514L422,517L422,522L422,524L422,524L423,529L423,531L424,539L424,537L424,542L424,547L424,551L424,549L413,559L413,564L413,572L413,567L413,574L415,577L415,579L415,584L415,587L415,592L415,594L426,596L427,601L427,603L427,603L427,603L418,616L418,621L418,619L418,624L418,629L415,634L415,631L415,636L415,639L415,644L415,646L415,649L415,651L415,659L415,656L415,664L418,666L418,671L418,676L418,679L418,681L418,686L418,688" fill="none" stroke="#000000" style="-webkit-tap-highlight-color: rgba(0, 0, 0, 0); stroke-linecap: round; stroke-linejoin: round; stroke-width: 7;" /><path d="M418,691L418,693L427,706L427,706L427,706L427,706L427,706L427,708L427,708L418,722L417,722L417,722L416,723L417,724L417,724L420,737L420,737L405,741L405,741L410,749L410,749L413,749L413,749L413,752" fill="none" stroke="#000000" style="-webkit-tap-highlight-color: rgba(0, 0, 0, 0); stroke-linecap: round; stroke-linejoin: round; stroke-width: 7;" /><path d="M559.22,422.52L557,420L556,420L556,418L555,416L555,415L556,420L557,425L558,429L560,437L560,441L561,450L561,455L563,461L563,462L561,470L561,466L561,475L561,477L561,482L561,485L561,490L561,492L561,495L561,497L559,502L560,512L560,505L560,507L560,514L560,519L560,517L560,522L560,522L559,529L559,532L559,529L559,534L559,539L559,550L559,541L559,557L556,562L553,569L555,572L554,579L554,579L554,586L553,585L556,588L559,597L559,594L559,599L559,601L559,606L559,604L559,611L559,614L558,618L558,620L559,626L559,629L558,637L558,639L558,641L558,644L558,649L558,651L558,652L558,652L552,664L558,652L552,671L552,669L552,679L552,674L549,686L552,681L549,688L549,691" fill="none" stroke="#000000" style="-webkit-tap-highlight-color: rgba(0, 0, 0, 0); stroke-linecap: round; stroke-linejoin: round; stroke-width: 7;" /><path d="M549,696L549,698L547,710L547,710L547,710L547,710L553,715L552,711L552,725L552,718L554,728L557,736L555,746L556,738L554,747L554,752L551,756L551,758L558,768L551,758" fill="none" stroke="#000000" style="-webkit-tap-highlight-color: rgba(0, 0, 0, 0); stroke-linecap: round; stroke-linejoin: round; stroke-width: 7;" /><path d="M589.05,405.13" fill="none" stroke="#000000" style="-webkit-tap-highlight-color: rgba(0, 0, 0, 0); stroke-linecap: round; stroke-linejoin: round; stroke-width: 7;" /><path d="M558,768L558,768L557,769L557,769L559,781L559,781L559,781L559,784L559,784L559,784L559,781" fill="none" stroke="#000000" style="-webkit-tap-highlight-color: rgba(0, 0, 0, 0); stroke-linecap: round; stroke-linejoin: round; stroke-width: 7;" /><path d="M592,409L591,411L592,410L592,417L591,412L596,420L599,418L596,424L598,425L599,431L599,434L597,445L597,440L596,450L597,447L595,465L595,457L596,472L596,472L596,477L596,480L597,483L597,485L597,490L597,495L597,487L597,497L599,500L601,505L599,517L601,507L599,519L599,527L599,532L599,522L599,534L598,539L596,546L598,542L599,551L597,557L597,564L597,562L598,569L598,574L599,579L598,584L599,589L599,594L599,597L599,598L601,606L601,606L600,617L599,619L599,624L599,631L599,629L599,636L599,634L599,639L599,644L599,646L599,649" fill="none" stroke="#000000" style="-webkit-tap-highlight-color: rgba(0, 0, 0, 0); stroke-linecap: round; stroke-linejoin: round; stroke-width: 7;" /><path d="M598,657L599,654L598,659L598,664L598,666L598,671L598,674L598,676L598,681L598,686L597,690L597,690L597,696L597,693" fill="none" stroke="#000000" style="-webkit-tap-highlight-color: rgba(0, 0, 0, 0); stroke-linecap: round; stroke-linejoin: round; stroke-width: 7;" /><path d="M536.85,469.75" fill="none" stroke="#000000" style="-webkit-tap-highlight-color: rgba(0, 0, 0, 0); stroke-linecap: round; stroke-linejoin: round; stroke-width: 7;" /><path d="M597,701L597,703L597,708L597,711L597,716L597,713L598,718L597,728L597,728L597,728L597,731L599,737L599,738L599,741L599,743L600,746L603,753L601,748L603,756L603,759L604,763L603,758L603,758" fill="none" stroke="#000000" style="-webkit-tap-highlight-color: rgba(0, 0, 0, 0); stroke-linecap: round; stroke-linejoin: round; stroke-width: 7;" /><path d="M542,476L542,477L542,476" fill="none" stroke="#000000" style="-webkit-tap-highlight-color: rgba(0, 0, 0, 0); stroke-linecap: round; stroke-linejoin: round; stroke-width: 7;" /><path d="M603,753" fill="none" stroke="#000000" style="-webkit-tap-highlight-color: rgba(0, 0, 0, 0); stroke-linecap: round; stroke-linejoin: round; stroke-width: 7;" /><path d="M542,478L544,485L544,482L542,478L546,491L544,487L550,506L549,497L550,510L547,527L546,518L547,529L556,562L547,547L547,542L553,564L552,565L553,571L552,565L551,568L549,579L551,584L549,583L553,586L553,586L559,597L559,599L559,604L547,611L547,609L547,621L547,616L547,624L547,629L547,631L547,634L558,641L547,639L558,646L558,644L558,649L558,652L558,652L558,652" fill="none" stroke="#000000" style="-webkit-tap-highlight-color: rgba(0, 0, 0, 0); stroke-linecap: round; stroke-linejoin: round; stroke-width: 7;" /><path d="M549,664L549,666L549,669L549,674L549,679L549,676L549,681L549,683L549,693L549,686L549,691L549,696L547,710L547,710L550,711L547,710L548,715L549,714L549,720" fill="none" stroke="#000000" style="-webkit-tap-highlight-color: rgba(0, 0, 0, 0); stroke-linecap: round; stroke-linejoin: round; stroke-width: 7;" /><path d="M429.98,467.26" fill="none" stroke="#000000" style="-webkit-tap-highlight-color: rgba(0, 0, 0, 0); stroke-linecap: round; stroke-linejoin: round; stroke-width: 7;" /><path d="M549,718L549,725L549,725L552,725L552,728L552,728L552,725" fill="none" stroke="#000000" style="-webkit-tap-highlight-color: rgba(0, 0, 0, 0); stroke-linecap: round; stroke-linejoin: round; stroke-width: 7;" /><path d="M430,470L425,471L424,475L424,475L424,480L428,485L426,490L425,495L423,506L424,502L422,517L423,511L422,522L423,527L424,534L424,539L424,549L424,544L424,551L424,551L418,569L426,580L426,582L426,587L426,589L426,594L426,596L427,601L427,603L427,603L427,603L418,616L418,619L418,621L418,624L418,626L418,631L418,636L415,641L415,646L415,656L415,651L415,661L415,664L415,669L418,674L429,686L418,679L429,686L429,686L429,686L427,706L427,706L427,706L427,708L428,709" fill="none" stroke="#000000" style="-webkit-tap-highlight-color: rgba(0, 0, 0, 0); stroke-linecap: round; stroke-linejoin: round; stroke-width: 7;" /><path d="M424,722L426,728L424,724L425,737L425,737L422,752L425,737L422,752L421,755L425,761L425,760L425,761L423,768L425,768L427,761" fill="none" stroke="#000000" style="-webkit-tap-highlight-color: rgba(0, 0, 0, 0); stroke-linecap: round; stroke-linejoin: round; stroke-width: 7;" /><path d="M19.88,1066.25L32,1061L32,1064L32,1059L32,1056L50,1046L45,1051L55,1041L60,1036L67,1029L75,1024L80,1017L85,1009L94,999L89,1004L97,997L104,992L127,972L114,982L122,977L109,987L139,962L134,967L129,969L147,954L154,947L152,949L162,939L159,942L167,937L171,932L169,935L174,930" fill="none" stroke="#000000" style="-webkit-tap-highlight-color: rgba(0, 0, 0, 0); stroke-linecap: round; stroke-linejoin: round; stroke-width: 7;" /><path d="M186,925L194,925L181,927L199,922L204,920L206,917L209,915L216,912L224,905L229,900L236,895L241,892L246,887L251,885L256,885L254,885L256,887L256,890" fill="none" stroke="#000000" style="-webkit-tap-highlight-color: rgba(0, 0, 0, 0); stroke-linecap: round; stroke-linejoin: round; stroke-width: 7;" /><path d="M753.09,899.73L751,897L751,895L751,892L748,889L747,888L744,886L745,888L736,890L737,903L744,906L746,910L750,918L758,920L779,926L793,930L768,922L803,935L840,961L808,948L823,944L840,961L844,962L858,969L853,966L863,973L886,988L878,983L876,982L897,992L903,991L906,991L905,991L906,991L916,1003L914,1002L920,1006L927,1008L927,1008L927,1008L927,1008L934,1015L941,1018L941,1018" fill="none" stroke="#000000" style="-webkit-tap-highlight-color: rgba(0, 0, 0, 0); stroke-linecap: round; stroke-linejoin: round; stroke-width: 7;" /><path d="M943,1020L947,1024L952,1026L969,1019L979,1024L974,1022L982,1026L997,1032L997,1032L997,1032L982,1019L982,1022" fill="none" stroke="#000000" style="-webkit-tap-highlight-color: rgba(0, 0, 0, 0); stroke-linecap: round; stroke-linejoin: round; stroke-width: 7;" /><path d="M760.54,561.71L758,563L754,569L752,568L750,574L749,575L744,579L746,578L741,580L741,580L750,567L744,579L751,564L759,562L763,558L769,552L777,547L781,544L790,542L791,540L793,539L795,539L807,533L804,538L816,533L820,531L828,525L825,528L842,522L834,521L842,522L848,517L850,516L857,511L863,510L870,505L877,497L875,502L882,495L886,490L890,487L896,485L906,479L900,483L909,477L916,472L925,472L926,468L931,464L935,459L943,454L940,456L949,450L954,446L959,445L964,441L967,439L970,438" fill="none" stroke="#000000" style="-webkit-tap-highlight-color: rgba(0, 0, 0, 0); stroke-linecap: round; stroke-linejoin: round; stroke-width: 7;" /><path d="M973,435L976,433L982,429L978,432L984,428L985,427L986,426L997,430L991,423L997,427L997,425L997,425L997,423L997,423L997,425" fill="none" stroke="#000000" style="-webkit-tap-highlight-color: rgba(0, 0, 0, 0); stroke-linecap: round; stroke-linejoin: round; stroke-width: 7;" /><path d="M690.95,295.77L685,298L684,296L684,296L684,298L685,302L685,301L686,308L686,318L686,323L686,313L686,331L686,332L700,348L700,344L700,355L700,361L700,365L700,370L700,378L700,388L700,383L700,393L701,401L700,415L701,401L700,410L701,420L700,430L700,437L700,425L700,442L700,455L700,462L700,450L700,470L700,477L700,482L700,490L700,495L700,500L700,505L700,514L700,510L700,519L700,527L700,534L700,539L700,547L700,562L703,554L702,572L703,569L700,587L700,592L700,579L700,584L700,609L700,601L700,597L700,604L700,619L700,611L700,621L700,614L700,624L701,628L701,631L701,629" fill="none" stroke="#000000" style="-webkit-tap-highlight-color: rgba(0, 0, 0, 0); stroke-linecap: round; stroke-linejoin: round; stroke-width: 7;" /><path d="M701,633L701,633L701,642L701,645L700,651L700,656L700,661L700,666L700,669L700,679L700,671L700,674L700,683L703,688L703,692L703,697L701,697L701,705L701,705L701,710L701,714L700,718L698,720L693,732L696,721L694,733L694,736L695,747L694,741L695,748L695,749L698,756L695,748L698,756L703,756" fill="none" stroke="#000000" style="-webkit-tap-highlight-color: rgba(0, 0, 0, 0); stroke-linecap: round; stroke-linejoin: round; stroke-width: 7;" /><path d="M745.63,338.02L743,331L743,331L743,331L743,331L743,331L743,331L746,343L746,345L746,348L746,350L746,353L746,355L743,358L743,370L743,365L743,363L743,375L743,378L746,380L746,383L746,388L748,390L751,398L748,393L751,400L753,403L753,408L753,405L756,410L756,413L756,418L758,420L758,425L758,427L761,437L761,440L758,432L761,445L763,460L763,450L763,455L766,465L766,470L768,475L768,480L770,487L770,490L770,495L770,497L770,500L770,502L770,505L770,507L770,510L770,512L770,514L770,517L772,530L772,530L771,531L769,533L769,537L768,544L769,554L769,549" fill="none" stroke="#000000" style="-webkit-tap-highlight-color: rgba(0, 0, 0, 0); stroke-linecap: round; stroke-linejoin: round; stroke-width: 7;" /><path d="M766,558L766,559L764,562L763,564L764,565L763,570L761,570L762,575L761,577L761,578L761,578" fill="none" stroke="#000000" style="-webkit-tap-highlight-color: rgba(0, 0, 0, 0); stroke-linecap: round; stroke-linejoin: round; stroke-width: 7;" /><path d="M273.4,241.09L268,233L268,233L272,227L271,228L273,226L272,227L271,228L268,233L268,233L273,251L273,258L273,266L273,273L283,291L280,294L278,296L278,299L283,301L276,323L277,324L276,323L277,328L278,332L277,338L276,343L283,351L283,352L285,360L285,368L286,365L285,373L286,374L281,390L286,374L281,398L281,410L281,415L281,403L281,423L281,427L281,432L281,440L281,442L281,455L281,450L281,447L281,457L281,462L283,472L281,467L281,470L283,477L283,480L283,475L283,485L281,487L281,490L273,505L273,505L273,510L273,505L273,514L273,519L273,532L273,539L273,524L273,547L273,557L273,562L274,570L274,571L274,577L274,583L274,582L274,589L274,594L274,601L274,597L273,609L274,606L273,614L274,618L273,621L274,626" fill="none" stroke="#000000" style="-webkit-tap-highlight-color: rgba(0, 0, 0, 0); stroke-linecap: round; stroke-linejoin: round; stroke-width: 7;" /><path d="M274,636L274,631L274,640L273,644L274,649L274,651L273,656L273,661L273,664L273,674L273,669L274,679L274,690L273,684L274,690L274,690L274,690L265,694L265,694L273,708L273,718L273,713L273,731L273,723L273,741L273,736L273,746L273,751L273,753L273,758L263,771L263,771L276,768L276,766L276,770L276,768L276,763L278,756" fill="none" stroke="#000000" style="-webkit-tap-highlight-color: rgba(0, 0, 0, 0); stroke-linecap: round; stroke-linejoin: round; stroke-width: 7;" /><path d="M253.51,479.69L254,477L254,472L254,470L256,470L258,470L258,472L258,475L258,477L258,480L258,485L258,490L258,500L258,510L258,519L258,529L256,537L256,544L256,552L256,557L256,564L256,569L256,582L256,577L256,589" fill="none" stroke="#000000" style="-webkit-tap-highlight-color: rgba(0, 0, 0, 0); stroke-linecap: round; stroke-linejoin: round; stroke-width: 7;" /><path d="M256,594L256,599L256,604L256,609L256,614L256,611L256,619L256,624L256,629L254,639L254,634L245,656L245,656L245,659L245,666L246,672" fill="none" stroke="#000000" style="-webkit-tap-highlight-color: rgba(0, 0, 0, 0); stroke-linecap: round; stroke-linejoin: round; stroke-width: 7;" /><path d="M295.77,479.69" fill="none" stroke="#000000" style="-webkit-tap-highlight-color: rgba(0, 0, 0, 0); stroke-linecap: round; stroke-linejoin: round; stroke-width: 7;" /><path d="M254,691L254,694L253,681L252,684L254,691L255,695L252,684" fill="none" stroke="#000000" style="-webkit-tap-highlight-color: rgba(0, 0, 0, 0); stroke-linecap: round; stroke-linejoin: round; stroke-width: 7;" /><path d="M296,477L293,475L293,472L291,472L288,485L288,492L288,502L288,512L291,524L291,537L293,547L293,557L293,567L293,577L291,584L291,589L288,592L288,597L286,604L288,599L286,606L286,616L286,634L286,624L286,641" fill="none" stroke="#000000" style="-webkit-tap-highlight-color: rgba(0, 0, 0, 0); stroke-linecap: round; stroke-linejoin: round; stroke-width: 7;" /><path d="M29.83,1145.79L31,1148L31,1148L31,1143L31,1141L31,1138L31,1138L31,1138L31,1141L32,1144L47,1143L50,1143L60,1143L70,1143L85,1149L87,1148L94,1144L98,1144L107,1146L114,1146L122,1146L134,1146L127,1146L138,1146L144,1146L149,1145L152,1145L158,1144L162,1145L167,1144L171,1148" fill="none" stroke="#000000" style="-webkit-tap-highlight-color: rgba(0, 0, 0, 0); stroke-linecap: round; stroke-linejoin: round; stroke-width: 7;" /><path d="M174,1148L176,1148L180,1148L184,1148L186,1150L191,1151L191,1151L191,1151" fill="none" stroke="#000000" style="-webkit-tap-highlight-color: rgba(0, 0, 0, 0); stroke-linecap: round; stroke-linejoin: round; stroke-width: 7;" /><path d="M44.74,1155.73L54,1163L52,1163L54,1163L62,1151L74,1160L78,1157L81,1154L83,1151L85,1150L93,1151L96,1151L98,1149L114,1146L109,1146L122,1146L127,1146L132,1146" fill="none" stroke="#000000" style="-webkit-tap-highlight-color: rgba(0, 0, 0, 0); stroke-linecap: round; stroke-linejoin: round; stroke-width: 7;" /><path d="M139,1147L144,1146L148,1146L160,1155L162,1152L176,1154L169,1153L186,1150L191,1152L193,1153L199,1153L196,1152L200,1152L200,1152L208,1155L209,1155L209,1155L208,1156" fill="none" stroke="#000000" style="-webkit-tap-highlight-color: rgba(0, 0, 0, 0); stroke-linecap: round; stroke-linejoin: round; stroke-width: 7;" /><path d="M111.84,1130.87L109,1131L104,1133L107,1133L102,1133L98,1144L107,1146L112,1146L117,1146L124,1146L129,1146L134,1146L137,1146L138,1146L142,1146L144,1146L149,1145L154,1145L159,1144L167,1144L171,1147L179,1146L192,1146L184,1146L196,1145L199,1146L200,1144L221,1144L215,1141L224,1144L229,1146L236,1148L241,1148L242,1148L246,1149L252,1147L255,1145L261,1148L266,1148L277,1149L273,1147L288,1148L288,1148L290,1149L296,1150L301,1150L306,1150L308,1150L313,1150L319,1149L316,1150L323,1148L321,1148L326,1148L326,1148L329,1147L333,1146L336,1146L338,1146" fill="none" stroke="#000000" style="-webkit-tap-highlight-color: rgba(0, 0, 0, 0); stroke-linecap: round; stroke-linejoin: round; stroke-width: 7;" /><path d="M341,1146L343,1146L343,1146L341,1146L341,1146L338,1146L341,1146L343,1146" fill="none" stroke="#000000" style="-webkit-tap-highlight-color: rgba(0, 0, 0, 0); stroke-linecap: round; stroke-linejoin: round; stroke-width: 7;" /><path d="M32.31,1088.62L31,1091L32,1086L32,1084L32,1081L32,1081L47,1079L75,1082L55,1076L78,1078L83,1074L88,1070L95,1089L95,1089L102,1090L104,1090L107,1090L109,1090L114,1090L119,1091L127,1093L122,1091L142,1092L139,1092L147,1091L151,1091L154,1092L156,1092L161,1095L167,1091L172,1094L171,1094L180,1094L184,1093L189,1093L186,1094L189,1093L189,1093L209,1091L212,1092L189,1091L216,1089L236,1078L217,1088L241,1080L253,1084L256,1085L258,1085L268,1085L277,1084L277,1084L291,1081L298,1081L311,1081L316,1079L303,1081L326,1079L343,1079L360,1079L350,1079L370,1079L378,1079L385,1079L397,1089L398,1089L401,1090L418,1093L420,1093L401,1090L425,1094L427,1094L428,1094L435,1095L440,1095L442,1095L448,1095L452,1095L458,1094L459,1094L486,1093L470,1095L481,1093L494,1094L511,1093L517,1094L505,1093L524,1093L532,1093L534,1093L544,1091L549,1090L559,1091L563,1089L554,1090L567,1088L577,1092L582,1092L589,1091L594,1090L599,1091L606,1091L611,1091L619,1091L624,1091L631,1091L644,1091L639,1091L648,1091L664,1098L649,1093L649,1093L672,1098" fill="none" stroke="#000000" style="-webkit-tap-highlight-color: rgba(0, 0, 0, 0); stroke-linecap: round; stroke-linejoin: round; stroke-width: 7;" /><path d="M690,1098L683,1099L703,1098L713,1098L759,1096L746,1097L723,1098L736,1097L782,1096L790,1096L763,1097L773,1096L798,1096L805,1096L815,1095L823,1095L848,1094L830,1095L857,1093L841,1094L875,1093L867,1093L882,1093L893,1092L900,1093L922,1091L908,1092L915,1091L949,1089L935,1090L927,1090L942,1089L959,1089L964,1089L970,1089L954,1088L973,1087L978,1086L983,1086L975,1086L989,1086L992,1087L988,1086L984,1086L995,1087L997,1087L999,1087L999,1087L999,1087L994,1088L997,1087L992,1089" fill="none" stroke="#000000" style="-webkit-tap-highlight-color: rgba(0, 0, 0, 0); stroke-linecap: round; stroke-linejoin: round; stroke-width: 7;" /><path d="M37.28,1155.73L47,1163L42,1163L52,1163L54,1163L73,1161L77,1158L81,1154L85,1150L94,1152L98,1149L105,1147L112,1146L117,1146L114,1146L119,1146L124,1146L129,1146L132,1146L137,1146L138,1146L144,1146L152,1145L158,1144L161,1143L164,1144L169,1143L174,1142L182,1136L179,1138L198,1143L207,1133L208,1135L210,1136L214,1139L220,1142L225,1144L227,1145L231,1146L231,1146L254,1145L256,1144L256,1144L258,1144L261,1144L271,1147L261,1144L274,1147L288,1148L288,1148L308,1150L319,1149L298,1150L331,1146L345,1146L338,1146L323,1148L358,1145L363,1144L353,1146L370,1142L393,1144L390,1144L375,1142L383,1143L420,1149L408,1146L416,1149L402,1146L435,1156L444,1155L428,1155L426,1152L462,1154L452,1155L470,1154L480,1150L487,1161L500,1150L491,1161L505,1150L512,1151L523,1158L524,1157L520,1160L527,1156L547,1152L534,1152L542,1152L550,1151L569,1150L573,1151L557,1150L582,1146L589,1146L594,1145L605,1145L606,1145L614,1145L619,1144L634,1153L634,1153L637,1152L663,1151L658,1149L656,1148" fill="none" stroke="#000000" style="-webkit-tap-highlight-color: rgba(0, 0, 0, 0); stroke-linecap: round; stroke-linejoin: round; stroke-width: 7;" /><path d="M671,1152L698,1154L679,1152L688,1153L708,1153L719,1159L728,1158L737,1154L743,1157L751,1154L758,1152L766,1152L769,1151L786,1149L778,1148L790,1150L798,1149L809,1148L803,1149L813,1148L817,1148L825,1150L832,1148L838,1149L848,1147L848,1147L855,1147L859,1147L867,1147L874,1147L880,1148L885,1148L893,1147L897,1144L902,1144L905,1145L915,1146L912,1146L922,1145L926,1143L932,1142L927,1143L937,1141L934,1142L942,1140L945,1140L949,1139L951,1139L962,1137L956,1138L968,1138L969,1138L972,1138L974,1138L976,1138L976,1138L980,1137L980,1137L982,1136L998,1144L998,1143L984,1135" fill="none" stroke="#000000" style="-webkit-tap-highlight-color: rgba(0, 0, 0, 0); stroke-linecap: round; stroke-linejoin: round; stroke-width: 7;" /><path d="M253.51,889.79L246,890L251,890L244,890L246,890L256,890L261,890L268,890L273,890L281,890L288,890L293,890L303,887L311,887L318,887L326,890L338,890L338,890L338,890L340,889L345,892L358,891L353,892L361,892L373,891L369,892L378,884L378,884L383,883L393,884L393,884L388,884L400,884L405,883L416,884L410,883L423,884L435,883L427,883L440,883L447,883L462,882L470,890L455,882L480,882L487,891L500,891L495,891L507,891L512,882L519,882L524,882L529,882L537,881L547,881L542,881L550,881L557,881L562,881L568,881L573,882L579,882L577,882L584,882L595,881L589,881L599,881L604,889L616,889L621,888L611,889L626,888L636,888L641,888L631,888L646,888L649,889L661,888L659,888L654,888L664,887L668,888L672,888L675,888L681,888L682,888" fill="none" stroke="#000000" style="-webkit-tap-highlight-color: rgba(0, 0, 0, 0); stroke-linecap: round; stroke-linejoin: round; stroke-width: 7;" /><path d="M688,889L691,889L698,889L693,889L703,889L701,889L708,889L706,889L710,889L713,889L719,889L723,888L716,889L718,889L733,892L727,893L728,892L730,891L735,891L736,890L736,890L745,888" fill="none" stroke="#000000" style="-webkit-tap-highlight-color: rgba(0, 0, 0, 0); stroke-linecap: round; stroke-linejoin: round; stroke-width: 7;" /><path d="M280.85,872.39" fill="none" stroke="#000000" style="-webkit-tap-highlight-color: rgba(0, 0, 0, 0); stroke-linecap: round; stroke-linejoin: round; stroke-width: 7;" /><path d="M748,889L749,890L751,892L751,892L751,891L751,891L766,890" fill="none" stroke="#000000" style="-webkit-tap-highlight-color: rgba(0, 0, 0, 0); stroke-linecap: round; stroke-linejoin: round; stroke-width: 7;" /><path d="M281,870L283,857L281,857L286,857L286,857L288,857L291,857L296,857L293,857L298,857L300,857L306,857L311,857L346,864L338,862L342,864L315,855L375,863L363,862L368,862L355,862L386,864L388,864L380,863L390,864L395,863L393,863L403,863L400,863L409,864L411,864L418,864L423,864L427,864L430,864L437,863L440,864L447,865L450,864L465,863L457,863L472,863L480,863L487,861L495,861L507,861L500,861L512,861L517,861L522,861L519,861L524,861L527,861L542,861L532,861L537,861L544,861L552,861L549,861L554,861L559,860L562,861L572,860L567,861L579,860L574,860L589,859L584,859L592,859L606,860L597,860L601,860L611,860L624,860L619,860L616,860" fill="none" stroke="#000000" style="-webkit-tap-highlight-color: rgba(0, 0, 0, 0); stroke-linecap: round; stroke-linejoin: round; stroke-width: 7;" /><path d="M634,860L640,860L629,860L643,860L654,860L664,860L649,860L659,860L672,860L671,860L682,880L666,860L683,880L693,860L697,860L696,860L713,878L713,878L703,859L713,878L713,878L721,861L714,878L714,878L721,861L728,879L726,879L730,879" fill="none" stroke="#000000" style="-webkit-tap-highlight-color: rgba(0, 0, 0, 0); stroke-linecap: round; stroke-linejoin: round; stroke-width: 7;" /><path d="M280.85,837.59L278,834L281,834L278,833L278,832L277,832L277,832L286,834L298,834L314,833L333,833L348,834L360,834L368,835L378,835L385,835L398,836L405,836L410,836L393,836L425,836L420,836L414,836L427,837L435,837L442,836L432,837L437,837L452,836L450,836L445,836L457,836L462,836L475,836L470,836L465,836L492,836L485,835L495,836L480,836L500,835L510,834L514,834L522,834L531,835L542,837L539,837L534,836L549,834L552,834L554,834L557,853L562,853L572,853L564,853L569,853L577,853L582,853L592,839L587,853L592,839L601,853L604,834L612,834L616,835L618,835L631,853L626,834L636,853" fill="none" stroke="#000000" style="-webkit-tap-highlight-color: rgba(0, 0, 0, 0); stroke-linecap: round; stroke-linejoin: round; stroke-width: 7;" /><path d="M641,853L649,853L651,853L656,853L664,835L664,835L666,836L668,837L669,838L671,838L674,838L678,835L680,835L688,833L683,834L691,833L693,833L699,833L696,833L704,833L704,833L712,835L711,835L716,835L717,834L717,834L725,831" fill="none" stroke="#000000" style="-webkit-tap-highlight-color: rgba(0, 0, 0, 0); stroke-linecap: round; stroke-linejoin: round; stroke-width: 7;" /><path d="M288.31,805.28L291,808L297,807L303,807L311,807L321,807L326,807L316,807L328,807L331,807L336,807L338,807L333,807L343,807L360,805L352,807L348,807L365,805L388,805L378,805L370,805L383,805L403,804L410,804L395,804L415,804L420,804L425,805L430,806L437,805L440,806L452,806L445,806L450,806L457,806L467,806L462,806L470,806L475,805L480,806L485,806L482,806L487,805L492,805L497,805L502,806L510,810L514,810L507,810L519,810L522,810L524,810L527,810L532,810L534,810L539,810L542,810L547,810L552,810L561,810L564,810L554,810L567,810L572,809L579,809L574,809L582,809L597,810L589,809L592,809L584,809L601,810L606,810L609,809L599,810L609,809L619,809L616,809L621,809" fill="none" stroke="#000000" style="-webkit-tap-highlight-color: rgba(0, 0, 0, 0); stroke-linecap: round; stroke-linejoin: round; stroke-width: 7;" /><path d="M624,809L636,811L626,809L631,809L644,809L636,811L639,810L651,810L659,809L667,812L654,810L661,809L668,812L679,812L674,811L676,811L681,812L688,811L691,811L681,812L692,811L702,815L696,810L702,815L713,810L711,810L702,815L717,811L723,812L718,811L721,812L728,810L733,811L730,810L738,811L736,811L738,811L740,811" fill="none" stroke="#000000" style="-webkit-tap-highlight-color: rgba(0, 0, 0, 0); stroke-linecap: round; stroke-linejoin: round; stroke-width: 7;" /><path d="M427.5,740.66L422,752L430,737L437,738L450,737L465,737L482,737L500,737L514,737" fill="none" stroke="#000000" style="-webkit-tap-highlight-color: rgba(0, 0, 0, 0); stroke-linecap: round; stroke-linejoin: round; stroke-width: 7;" /><path d="M524,737L529,737L532,737L529,737L524,737L522,737" fill="none" stroke="#000000" style="-webkit-tap-highlight-color: rgba(0, 0, 0, 0); stroke-linecap: round; stroke-linejoin: round; stroke-width: 7;" /><path d="M417.55,700.89L427,706L427,706L427,706L440,698L462,698L450,698L492,686L477,698L507,686" fill="none" stroke="#000000" style="-webkit-tap-highlight-color: rgba(0, 0, 0, 0); stroke-linecap: round; stroke-linejoin: round; stroke-width: 7;" /><path d="M519,700L519,700L525,696L522,699L519,700" fill="none" stroke="#000000" style="-webkit-tap-highlight-color: rgba(0, 0, 0, 0); stroke-linecap: round; stroke-linejoin: round; stroke-width: 7;" /><path d="M434.95,656.16L430,656L432,656L432,656L440,659L463,667L472,667L492,665" fill="none" stroke="#000000" style="-webkit-tap-highlight-color: rgba(0, 0, 0, 0); stroke-linecap: round; stroke-linejoin: round; stroke-width: 7;" /><path d="M500,664L519,661L524,659L519,659" fill="none" stroke="#000000" style="-webkit-tap-highlight-color: rgba(0, 0, 0, 0); stroke-linecap: round; stroke-linejoin: round; stroke-width: 7;" /><path d="M410.1,608.93L410,606L413,606L415,606L427,603L427,603L429,603L467,616L455,614L480,616" fill="none" stroke="#000000" style="-webkit-tap-highlight-color: rgba(0, 0, 0, 0); stroke-linecap: round; stroke-linejoin: round; stroke-width: 7;" /><path d="M490,616L502,614L497,614L507,614L510,614" fill="none" stroke="#000000" style="-webkit-tap-highlight-color: rgba(0, 0, 0, 0); stroke-linecap: round; stroke-linejoin: round; stroke-width: 7;" /><path d="M425.01,628.82L420,629L432,629L445,629L462,629L482,629L497,629L505,629L507,629" fill="none" stroke="#000000" style="-webkit-tap-highlight-color: rgba(0, 0, 0, 0); stroke-linecap: round; stroke-linejoin: round; stroke-width: 7;" /><path d="M514,629L517,629L514,629L510,631" fill="none" stroke="#000000" style="-webkit-tap-highlight-color: rgba(0, 0, 0, 0); stroke-linecap: round; stroke-linejoin: round; stroke-width: 7;" /><path d="M434.95,646.21L440,646L445,646L455,646L470,646L485,646" fill="none" stroke="#000000" style="-webkit-tap-highlight-color: rgba(0, 0, 0, 0); stroke-linecap: round; stroke-linejoin: round; stroke-width: 7;" /><path d="M497,646L507,646L512,646L514,649L517,649" fill="none" stroke="#000000" style="-webkit-tap-highlight-color: rgba(0, 0, 0, 0); stroke-linecap: round; stroke-linejoin: round; stroke-width: 7;" /><path d="M422.52,589.05L426,584L426,584L427,584L430,587L462,592L447,592L475,592L487,592" fill="none" stroke="#000000" style="-webkit-tap-highlight-color: rgba(0, 0, 0, 0); stroke-linecap: round; stroke-linejoin: round; stroke-width: 7;" /><path d="M497,578L507,578L507,578L519,589L519,592" fill="none" stroke="#000000" style="-webkit-tap-highlight-color: rgba(0, 0, 0, 0); stroke-linecap: round; stroke-linejoin: round; stroke-width: 7;" /><path d="M427.5,569.17L425,564L424,551L424,551L431,549L424,551L446,562L458,559L464,559L484,574L473,557L503,574" fill="none" stroke="#000000" style="-webkit-tap-highlight-color: rgba(0, 0, 0, 0); stroke-linecap: round; stroke-linejoin: round; stroke-width: 7;" /><path d="M514,573L521,572L519,572L521,572L527,572L521,572" fill="none" stroke="#000000" style="-webkit-tap-highlight-color: rgba(0, 0, 0, 0); stroke-linecap: round; stroke-linejoin: round; stroke-width: 7;" /><path d="M372.82,397.67L379,398L378,399L386,397L393,397L400,397L405,398L413,397" fill="none" stroke="#000000" style="-webkit-tap-highlight-color: rgba(0, 0, 0, 0); stroke-linecap: round; stroke-linejoin: round; stroke-width: 7;" /><path d="M416,398L416,398" fill="none" stroke="#000000" style="-webkit-tap-highlight-color: rgba(0, 0, 0, 0); stroke-linecap: round; stroke-linejoin: round; stroke-width: 7;" /><path d="M556.74,397.67L552,398L554,397L562,397L554,397L577,399L569,399" fill="none" stroke="#000000" style="-webkit-tap-highlight-color: rgba(0, 0, 0, 0); stroke-linecap: round; stroke-linejoin: round; stroke-width: 7;" /><path d="M589,399L584,399" fill="none" stroke="#000000" style="-webkit-tap-highlight-color: rgba(0, 0, 0, 0); stroke-linecap: round; stroke-linejoin: round; stroke-width: 7;" /><path d="M733.2,601.48L743,597L743,597L743,594L732,587L730,588L726,596L725,601L725,607L725,614L725,621L725,629L725,636L725,644L725,653L725,656L725,659L724,669L724,674L725,687L725,687L725,688L736,701L725,688L736,708L736,706L736,711L725,724" fill="none" stroke="#000000" style="-webkit-tap-highlight-color: rgba(0, 0, 0, 0); stroke-linecap: round; stroke-linejoin: round; stroke-width: 7;" /><path d="M725,724L725,724L724,733L725,739L725,741L724,746L724,751L724,756L724,764L724,761L731,782L724,764L731,785L731,782L731,794L731,794L731,787L733,795" fill="none" stroke="#000000" style="-webkit-tap-highlight-color: rgba(0, 0, 0, 0); stroke-linecap: round; stroke-linejoin: round; stroke-width: 7;" /><path d="M738.17,591.53" fill="none" stroke="#000000" style="-webkit-tap-highlight-color: rgba(0, 0, 0, 0); stroke-linecap: round; stroke-linejoin: round; stroke-width: 7;" /><path d="M731,787" fill="none" stroke="#000000" style="-webkit-tap-highlight-color: rgba(0, 0, 0, 0); stroke-linecap: round; stroke-linejoin: round; stroke-width: 7;" /><path d="M732,587L733,586L730,588L728,589L730,588L733,586L738,583L746,583L753,576L761,570L770,562L766,564L777,558L773,563L790,552L783,555L807,541L801,548L794,548L811,537L813,536L827,536L816,534L822,539L833,531L829,534L837,529L841,526L846,524L847,521L856,517L850,519L867,507L857,514L865,509L862,511L879,498L876,501L869,506L872,504L879,498L884,494L884,494L889,488" fill="none" stroke="#000000" style="-webkit-tap-highlight-color: rgba(0, 0, 0, 0); stroke-linecap: round; stroke-linejoin: round; stroke-width: 7;" /><path d="M892,486L896,485L900,483L898,484L909,477L904,480L906,479L902,481L910,476L912,475L914,473L916,472L918,470L926,469L927,470L929,467L931,464L935,459L940,456L943,454L945,453L952,450L957,444L954,446L959,445L963,442L964,441L971,437L969,438L982,429L974,434L986,426L979,431L989,424L991,423L992,422L997,423L997,418L997,420L997,418L1009,415L1012,415L1009,418" fill="none" stroke="#000000" style="-webkit-tap-highlight-color: rgba(0, 0, 0, 0); stroke-linecap: round; stroke-linejoin: round; stroke-width: 7;" /><path d="M521.94,519.46L519,517L524,519L527,519L527,522L527,524L527,527L526,539L524,539L522,539L519,539L515,540L513,541L509,544L504,547L504,547L492,550L497,550L487,551L485,551L484,551L480,552L475,551L473,551L467,553L462,553L460,553L459,554L459,554L458,556L447,547L447,549" fill="none" stroke="#000000" style="-webkit-tap-highlight-color: rgba(0, 0, 0, 0); stroke-linecap: round; stroke-linejoin: round; stroke-width: 7;" /><path d="M445,544L432,547L432,547L432,547L432,547L424,534L430,546L424,532L423,529L423,527L423,529L422,524L423,529L423,531" fill="none" stroke="#000000" style="-webkit-tap-highlight-color: rgba(0, 0, 0, 0); stroke-linecap: round; stroke-linejoin: round; stroke-width: 7;" /><path d="M333.05,509.51L333,507L333,505L336,505L351,507L351,505L351,507L363,507L361,508L363,507L370,508" fill="none" stroke="#000000" style="-webkit-tap-highlight-color: rgba(0, 0, 0, 0); stroke-linecap: round; stroke-linejoin: round; stroke-width: 7;" /></svg>