<?xml version="1.0" encoding="utf-8" ?>
<svg baseProfile="full" height="717" version="1.1" width="1024" xmlns="http://www.w3.org/2000/svg" xmlns:ev="http://www.w3.org/2001/xml-events" xmlns:xlink="http://www.w3.org/1999/xlink"><defs /><path d="M0,350.98" fill="none" stroke="#000000" style="-webkit-tap-highlight-color: rgba(0, 0, 0, 0); stroke-linecap: round; stroke-linejoin: round; stroke-width: 5;" /><path d="M0,349.17L4,349L5,349L7,349L9,349L11,348L12,348L14,347L16,347L16,347L22,347L20,346L22,347L24,347L25,347L29,347L32,348L34,348L33,348L36,348L38,348L40,348L42,348L43,348L45,348L49,348L47,348L51,348L52,348L55,347L56,347L58,346L58,346L60,346L62,346L65,346L63,346L67,346L69,347L71,348L71,348L74,349L75,349L78,350L78,350L80,350L81,350L83,351L85,351L87,351L89,352L90,352L92,352L93,352L96,353L98,353L100,353L101,353L103,352L105,352L105,352L107,352L109,352L110,352L114,351L116,351L114,351L119,350L119,350L123,349L121,350L125,349L128,348L130,348L132,348L136,347L137,347L141,347L139,347L143,347L145,347L147,347L147,347L148,347L150,347L152,347L154,347L156,347L156,347L161,347L160,347L163,347L165,347L166,347L168,347L170,347L175,347L174,347L177,347L183,347L179,347L181,347L188,347L186,347L185,347L172,347L189,347L195,352L195,352L195,352L195,352L189,347L195,352L190,345L190,345L190,344L191,341L191,340L191,335L191,339L191,335L195,329L191,335L195,329L194,329L191,320L191,321L191,321L191,319L190,313L191,319L190,311L190,309L190,308L190,308L190,301L190,301L190,300L190,299L188,293L189,297L188,291L188,289L188,284L188,288L188,284L188,277L188,277L188,277L188,275L188,273L188,273L188,273L188,267L188,267L188,267L188,266L188,264L189,261L189,261L189,258L189,257L189,255L189,255L189,249L189,249L190,246L192,245L190,246L192,245L195,245L195,245L197,245L199,245L200,245L203,244L206,244L204,244L208,245L208,245L210,245L215,246L212,245L215,246L217,247L219,247L223,248L224,248L223,248L226,248L230,249L230,249L232,249L235,250L236,251L237,252L241,255L237,252L241,255L241,255L241,255L245,256L247,255L248,255L251,255L250,255L254,255L254,255L254,255L254,255L253,249L253,249L253,248L254,246L253,244L253,244L252,242L252,241L253,239L253,237L258,237L257,233L259,233L262,232L264,232L266,231L268,231L270,231L271,231L272,231L275,230L277,230L279,230L280,230L282,230L284,230L286,229L288,229L293,229L291,229L295,229L297,229L299,229L300,229L302,229L302,229L305,228L308,228L309,228L312,229L314,230L318,231L316,231L319,231L322,231L326,231L324,231L329,231L331,231L334,232L335,232L337,232L338,233L340,233L340,233L342,234L343,234L346,235L346,235L347,237L353,237L353,237L355,237L356,237L358,238L361,239" fill="none" stroke="#000000" style="-webkit-tap-highlight-color: rgba(0, 0, 0, 0); stroke-linecap: round; stroke-linejoin: round; stroke-width: 5;" /><path d="M362,240L364,241L365,241L360.03,242.43L366,247L364,244L364,244L366,247L367,249L367,249L368,251L368,253L368,255L368,257L368,257L369,258L371,258L373,258L375,258L376,258L380,258L381,258L384,257L385,257L387,257L389,257L391,257L392,258L394,257L396,257L395,261L395,261L400,258L401,258L401,258L405,258L407,258L409,258L411,258L414,259L414,259L416,259L420,259L423,258L426,258L430,259L432,259L431,259L435,260L436,260L438,261L440,261L443,261L441,261L447,261L445,261L449,262L450,262L451,262L455,262L456,262L456,262L460,260L461,260L465,260L463,260L467,260L469,260L472,261L470,260L472,261L474,262L476,262L478,262L479,262L478,262L479,262L484,273L481,262L484,273L484,273L488,273L488,273L490,272L492,272L494,272L496,273L498,273L499,272L501,272L507,272L505,272L508,272L512,272L514,272L517,272L519,272L521,272L524,272L526,271L527,271L533,272L532,271L534,272L536,272L537,272L539,272L541,272L543,272L545,272L548,271L545,272L550,271L554,271L552,271L555,271L557,271L559,271L561,271L564,271L564,271L572,270L570,270L575,270L577,270L583,270L584,270L581,270L586,270L588,270L592,270L593,270L590,270L597,271L602,273L602,273L597,271L602,273" fill="none" stroke="#000000" style="-webkit-tap-highlight-color: rgba(0, 0, 0, 0); stroke-linecap: round; stroke-linejoin: round; stroke-width: 5;" /><path d="M606,273L604,273L609,273L610,273L612,273L615,274L616,275L617,276L616.93,276.81L621,277L624,279L625,279L627,282L627,282L627,284L627,282L627,286L627,288L627,289L630,297L630,297L632,300L633,301L633,301L633,301" fill="none" stroke="#000000" style="-webkit-tap-highlight-color: rgba(0, 0, 0, 0); stroke-linecap: round; stroke-linejoin: round; stroke-width: 5;" /><path d="M634,303L629.6,293.09L631,299L630,297L631,300L632,301L633,303L633,308L633,309L632,311L632,318L632,313L632,318L632,320L632,324L632,322L632,326L632,327L631,332L631,329L631,331L631,337L637,346L631,340L631,338L635,346L639,346L639,346L642,347L644,347L646,347L649,348L653,348L651,348L655,349L653,348L655,349L659,350L657,349L660,350L662,350L665,351L666,351L668,352L669,352L671,353L673,353L675,354L678,355L680,355L682,355L684,355L686,355L687,355L689,355L692,354L694,353L695,353L697,352L699,351L700,351L701,350L704,348L705,348L707,347L709,346L711,345L710,346L713,343L716,342L718,342L718,342L724,341L722,341L727,340L724,341L731,340L729,340L736,340L735,340L733,340L737,340L740,339L745,337L740,339L744,337L747,337L751,337L753,337L751,345" fill="none" stroke="#000000" style="-webkit-tap-highlight-color: rgba(0, 0, 0, 0); stroke-linecap: round; stroke-linejoin: round; stroke-width: 5;" /><path d="M754,337L759,338L760,338L756,337L763,338L762,338L769,338L767,338L773,338L771,338L774,338L776,338L774,338L772.52,347.36L776,338L784,338L785,338L789,338L793,339L793,339L793,339L801,339L801,339L803,339L807,340L811,342L812,343L814,343L816,343L818,344L818,344L820,345L822,349L818,353L818,353L821,355L821,355L822,355L827,358L826,357L827,358L832,362L827,358L834,361L835,361L838,362L839,362L843,361L842,361L845,361L847,361L847,361L849,362L852,362L850,362L852,362L852,362L854,362L855,362L858,361L859,361L861,361L863,361L865,361L868,362L870,362L868,362L872,362L874,362L876,362L876,362L877,361L879,360L879,360L883,359L886,359L890,358L886,359L892,358L894,358L901,357L901,357L896,358L906,356L907,356L912,354L912,354L912,354L912,354L913,353L913,353L914,352L915,350L919,347L921,346L926,344L927,344L927,344L929,343L933,341L937,340L937,340L937,340L943,338L944,338L951,342L951,344L951,342L952,342L953,342L954,342L959,343L960,343L963,344L963,344L970,336L972,336L974,336L979,335L981,335L989,347" fill="none" stroke="#000000" style="-webkit-tap-highlight-color: rgba(0, 0, 0, 0); stroke-linecap: round; stroke-linejoin: round; stroke-width: 5;" /><path d="M989,347L991,347L989,347L993,347L995,347L996,347L996,347L996,347L1010,345L1010,345L1010,345L1010,345L1011,345L1015,345L1017,346L1013,345L1020,347L1021,347L1021,347" fill="none" stroke="#000000" style="-webkit-tap-highlight-color: rgba(0, 0, 0, 0); stroke-linecap: round; stroke-linejoin: round; stroke-width: 5;" /><path d="M522.86,294.9L526,291L528,291L530,290L532,288L530,288L534,288L536,288L536,291L536,293L536,295L537,297L537,299L537,300L537,302L537,304L536,305L536,305L536,305L534,305L531,306L529,307L528,307L527,307L527,307L526,306L525,305L525,302L525,300L525,299L525,297" fill="none" stroke="#000000" style="-webkit-tap-highlight-color: rgba(0, 0, 0, 0); stroke-linecap: round; stroke-linejoin: round; stroke-width: 5;" /><path d="M524,295" fill="none" stroke="#000000" style="-webkit-tap-highlight-color: rgba(0, 0, 0, 0); stroke-linecap: round; stroke-linejoin: round; stroke-width: 5;" /><path d="M437.82,285.85L449,293L449,293L449,293L449,293L448,298L448,298L448,298L448,298L438,311L438,313L438,317L438,318L438,320L438,322L430,334L433,335L433,335L433,335L434,336L438,339L435,337L438,339L439,340L438,339L443,342L443,342L443,342L443,344L443,346L443,349L443,351L444,356L444,355L444,358L445,364L444,360L445,365L445,367L445,371L445,373L445,369L445,375L445,376L446,382L445,376L446,384L447,389L447,387L447,393L447,394L445,398L444,402L444,400L444,405L444,412L444,407L444,411L444,414L444,418L444,416L444,420L444,422L445,427L444,423L445,427L445,429L444,433L445,431L444,433L444,433L444,433" fill="none" stroke="#000000" style="-webkit-tap-highlight-color: rgba(0, 0, 0, 0); stroke-linecap: round; stroke-linejoin: round; stroke-width: 5;" /><path d="M444,433L436,451L436,451L436,451L436,451L449,450L440,461L440,461L440,461L440,461L440,461L440,461L440,461L440,461L440,461L440,461L440,461" fill="none" stroke="#000000" style="-webkit-tap-highlight-color: rgba(0, 0, 0, 0); stroke-linecap: round; stroke-linejoin: round; stroke-width: 5;" /><path d="M428.78,341.94L433,336L433,336L429,334L428,334L425,332L422,331L424,332L418,331L420,331L416,331L414,330L412,331L407,331L411,331L407,331L403,332L403,332L402,333L400,334L398,335L398,335L396,337L396,337L394,339L393,340L391,341L390,342L388,348L388,345L389,353L388,349L387,357L389,355L386,360L387,357L386,365L386,369L387,363L386,373L387,375L387,375L390,381L390,384L390,387L390,389L390,393L390,394L390,396L391,397L390,396L392,398L396,409L396,407L396,405L396,411L396,412L396,418L396,416L396,414L396,420L396,420L396,420L396,420L396,420L396,420L391,432L396,420L391,434L391,440L391,438L391,436" fill="none" stroke="#000000" style="-webkit-tap-highlight-color: rgba(0, 0, 0, 0); stroke-linecap: round; stroke-linejoin: round; stroke-width: 5;" /><path d="M391,443L391,447L391,441L391,445L393,452L393,449L393,450L393,454L393,461L393,456L393,460L393,458L385,472L385,472L385,472L385,472L385,472L385,472L385,472L385,472L385,472L385,472L385,472L385,472L385,472" fill="none" stroke="#000000" style="-webkit-tap-highlight-color: rgba(0, 0, 0, 0); stroke-linecap: round; stroke-linejoin: round; stroke-width: 5;" /><path d="M253.29,244.24L252,253L253,249L253,257L254,255L254,260L254,260L254,260L254,260L255,277L257,280L259,289L257,286L259,291L259,295L261,297L261,299L261,302L261,304L261,308L261,311L261,313L261,315L261,320L261,318L261,322L259,324L259,327L259,333L259,329L259,335L259,337L259,342L259,340L257,347L259,344L257,349L257,351L257,355L258,370L257,356L257,358L258,370L258,370L258,370L258,370L258,370L258,370L251,384L251,387L251,391L251,398L251,394L251,400" fill="none" stroke="#000000" style="-webkit-tap-highlight-color: rgba(0, 0, 0, 0); stroke-linecap: round; stroke-linejoin: round; stroke-width: 5;" /><path d="M250,403L253,421L250,405L250,409L253,421L253,421L253,421L250,422L250,422L250,422L250,422L250,422L250,422L257,427L257,427L251,436L251,422L251,436L257,427" fill="none" stroke="#000000" style="-webkit-tap-highlight-color: rgba(0, 0, 0, 0); stroke-linecap: round; stroke-linejoin: round; stroke-width: 5;" /><path d="M273.19,289.47L271,286L270,288L270,289L270,291L270,295L270,299L270,302L270,306L270,309L270,311L270,313L271,313L273,309L275,308L273,308L277,308L279,308L280,308L282,308L284,306L284,304L284,302L282,300L280,297L280,295L280,293L280,291L279,289L277,289L275,289" fill="none" stroke="#000000" style="-webkit-tap-highlight-color: rgba(0, 0, 0, 0); stroke-linecap: round; stroke-linejoin: round; stroke-width: 5;" /><path d="M270,289L271,289L268,291L270,291L271,291" fill="none" stroke="#000000" style="-webkit-tap-highlight-color: rgba(0, 0, 0, 0); stroke-linecap: round; stroke-linejoin: round; stroke-width: 5;" /><path d="M173.68,358.22L174,347L172,347L170,347L168,347L165,347L166,347L161,360L159,362L157,364L156,365L154,367L152,369L150,376L152,373L150,378L150,382L150,385L152,389L152,391L152,394L152,396L150,398L150,400L148,400L147,402L145,403L145,405L143,405L141,407L139,409L137,411L137,412L132,414L134,412L130,416L127,416L125,418L123,418L121,418L119,418L118,418L118,420L116,420L114,422L114,423L112,425L110,427L109,431L107,434L103,440L105,438L101,441L100,441" fill="none" stroke="#000000" style="-webkit-tap-highlight-color: rgba(0, 0, 0, 0); stroke-linecap: round; stroke-linejoin: round; stroke-width: 5;" /><path d="M98,443L100,443L98,441" fill="none" stroke="#000000" style="-webkit-tap-highlight-color: rgba(0, 0, 0, 0); stroke-linecap: round; stroke-linejoin: round; stroke-width: 5;" /><path d="M117.6,349.17L114,351L110,352L109,352L107,352L107,352L105,367L103,371L101,375L98,376L85,382L85,382L85,382L85,382L81,381L81,381L81,381L81,381L69,391L67,391L63,393L62,393L60,394L58,396L56,398L54,400L52,402L49,403L47,403L45,405L42,407L40,407L38,409L36,409L34,411L31,412" fill="none" stroke="#000000" style="-webkit-tap-highlight-color: rgba(0, 0, 0, 0); stroke-linecap: round; stroke-linejoin: round; stroke-width: 5;" /><path d="M29,414L27,416L25,418L24,420L22,422L18,425L20,423L16,429L13,436L14,431L14,434L13,438L11,438L11,436L13,436" fill="none" stroke="#000000" style="-webkit-tap-highlight-color: rgba(0, 0, 0, 0); stroke-linecap: round; stroke-linejoin: round; stroke-width: 5;" /><path d="M197.2,327.46L194,329L194,329L190,333L191,339L191,341L195,352L190,345L194,355L194,355L194,367L194,355L199,384L194,371L199,384L199,384L199,384L199,384L199,384L199,400L199,400L199,400L199,400L199,400L199,400L197,400L201,401L197,400L195,400L195,400L194,400L190,419L190,419L190,419L190,419L190,419L188,420L186,423L188,421L186,424L183,426L178,430L182,427L179,429L176,431L173,432L173,432L164,437L163,439" fill="none" stroke="#000000" style="-webkit-tap-highlight-color: rgba(0, 0, 0, 0); stroke-linecap: round; stroke-linejoin: round; stroke-width: 5;" /><path d="M163,439L163,439L161,440L161,440L161,440L161,440L163,454L163,452L163,456L163,454" fill="none" stroke="#000000" style="-webkit-tap-highlight-color: rgba(0, 0, 0, 0); stroke-linecap: round; stroke-linejoin: round; stroke-width: 5;" /><path d="M14.47,455.92L13,452L14,452L14,450L16,450L18,450L20,452L22,454L25,454L34,456L29,454L40,456L45,458L49,458L54,458L60,458L67,460L72,460L80,460L87,460L102,462L104,462L102,462L104,462L124,451L139,452L124,451L127,450L145,452L147,452L152,452L159,440L161,440L163,439L179,449L185,449L190,449L195,449L201,449L199,449L204,449L215,450L206,449L219,452L223,454L224,456L230,458L228,458L233,460L237,460L242,460L246,461L251,461L255,461L261,460L264,460L270,460L277,461L273,460L280,463L284,463L288,465L291,465L295,465" fill="none" stroke="#000000" style="-webkit-tap-highlight-color: rgba(0, 0, 0, 0); stroke-linecap: round; stroke-linejoin: round; stroke-width: 5;" /><path d="M299,465L302,465L304,465L308,465L309,465L315,467L311,467L317,467L318,467L320,467L324,467L326,467L327,467L331,467L333,467L335,467L337,467L338,469L340,469L342,469L344,469L346,469L347,469L349,469L349,469L351,469L347,469L344,467L340,465L342,465" fill="none" stroke="#000000" style="-webkit-tap-highlight-color: rgba(0, 0, 0, 0); stroke-linecap: round; stroke-linejoin: round; stroke-width: 5;" /><path d="M358.22,399.83L358,396L360,394L360,393L360,391L360,389L360,387L353,391L356,387L349,394L346,398L344,402L342,403L340,407L340,411L338,414L338,412L337,416L337,418L335,420L333,420L333,422L331,422L329,423L324,423L326,423L322,423L310,417L310,417L310,417L310,417" fill="none" stroke="#000000" style="-webkit-tap-highlight-color: rgba(0, 0, 0, 0); stroke-linecap: round; stroke-linejoin: round; stroke-width: 5;" /><path d="M310,417L305,419L310,417L303,420L301,421L299,421L300,421L292,429L292,429L289,429L286,429L282,431L280,431L273,432L273,432L266,425L261,427L259,427L261,427" fill="none" stroke="#000000" style="-webkit-tap-highlight-color: rgba(0, 0, 0, 0); stroke-linecap: round; stroke-linejoin: round; stroke-width: 5;" /><path d="M445.06,445.06L434,446L435,448L435,448L435,448L436,451L435,454L436,460L438,461L436,466L435,470L435,470L435,470L435,470L446,496L436,483L446,496L446,496L446,496L446,496L446,496L446,496L446,496L446,496L446,496L446,496L450,497L446,496L450,497L446,496L450,497L457,497L450,497L457,497L458,497L459,497L459,497L459,497L459,497L459,497L459,497L472,507L476,507L478,507L481,507L483,507L487,507L485,507L488,507L490,507L494,505L492,507L496,505L498,505" fill="none" stroke="#000000" style="-webkit-tap-highlight-color: rgba(0, 0, 0, 0); stroke-linecap: round; stroke-linejoin: round; stroke-width: 5;" /><path d="M501,503L505,503L499,503L503,503L507,503L512,503L514,503L508,503L523,503L536,501L519,503L528,501L541,499L546,499L550,499L552,499L552,498" fill="none" stroke="#000000" style="-webkit-tap-highlight-color: rgba(0, 0, 0, 0); stroke-linecap: round; stroke-linejoin: round; stroke-width: 5;" /><path d="M629.6,332.89L630,336L631,338L631,340L631,342L632,346L632,346L628,358L626,364L626,369L625,382L625,382L625,382L625,382L625,382L625,382L630,396L625,382L630,403L630,400L630,407L630,411L630,414L628,418L628,420L626,423L624,425L624,429L622,431L622,434L622,438L622,436L622,440L621,441" fill="none" stroke="#000000" style="-webkit-tap-highlight-color: rgba(0, 0, 0, 0); stroke-linecap: round; stroke-linejoin: round; stroke-width: 5;" /><path d="M621,443L619,445L619,447L619,449L615,452L617,450L624.17,439.63L615,454L617,454L619,456L619,454L619,452L619,450L621,440L619,438L617,438L613,438L615,438L610,438L606,438L593,425L593,425L593,425L589,425L587,424L590,425L587,424L565,425L565,425L565,425L565,425L552,425L545,438L550,438L541,440L536,440L530,440L526,440L521,441L516,441L510,441L503,441L498,441L492,441L479,440L487,441L481,441L478,440L476,440L474,440L472,440L470,440L467,440" fill="none" stroke="#000000" style="-webkit-tap-highlight-color: rgba(0, 0, 0, 0); stroke-linecap: round; stroke-linejoin: round; stroke-width: 5;" /><path d="M461,441L465,440L458,441L444,433L444,433L444,433L444,433L444,433L444,433L444,433" fill="none" stroke="#000000" style="-webkit-tap-highlight-color: rgba(0, 0, 0, 0); stroke-linecap: round; stroke-linejoin: round; stroke-width: 5;" /><path d="M350.98,423.35L347,423L351,427L353,429L356,429L358,431L362,432L364,434L365,434L369,436L373,436L375,436" fill="none" stroke="#000000" style="-webkit-tap-highlight-color: rgba(0, 0, 0, 0); stroke-linecap: round; stroke-linejoin: round; stroke-width: 5;" /><path d="M376,436" fill="none" stroke="#000000" style="-webkit-tap-highlight-color: rgba(0, 0, 0, 0); stroke-linecap: round; stroke-linejoin: round; stroke-width: 5;" /><path d="M531.9,497.53L536,498" fill="none" stroke="#000000" style="-webkit-tap-highlight-color: rgba(0, 0, 0, 0); stroke-linecap: round; stroke-linejoin: round; stroke-width: 5;" /><path d="M537,496L541,496L545,494L546,494" fill="none" stroke="#000000" style="-webkit-tap-highlight-color: rgba(0, 0, 0, 0); stroke-linecap: round; stroke-linejoin: round; stroke-width: 5;" /><path d="M738.15,372.69L740,369L742,369L744,369L745,369L745,369L745,369L745,369L744,369L737,369L740,369L727,385L733,382L722,389L716,393L711,398L706,411L706,407L707,403L707,412L709,416L713,423L711,420L715,427L716,431L718,434L720,438L724,441L727,443L731,447L736,449L742,450L749,454L745,452L753,456L756,458" fill="none" stroke="#000000" style="-webkit-tap-highlight-color: rgba(0, 0, 0, 0); stroke-linecap: round; stroke-linejoin: round; stroke-width: 5;" /></svg>