<?xml version="1.0" encoding="utf-8" ?>
<svg baseProfile="full" height="717" version="1.1" width="1024" xmlns="http://www.w3.org/2000/svg" xmlns:ev="http://www.w3.org/2001/xml-events" xmlns:xlink="http://www.w3.org/1999/xlink"><defs /><path d="M190.85,248.66L189.02,241.32L190.85,241.32L190.85,246.82L189.02,250.49L189.02,257.84L187.18,265.18L187.18,274.35L187.18,281.69L187.18,287.2L187.18,292.7L187.18,298.21L187.18,303.71L187.18,309.22L187.18,312.89L189.02,316.56L189.02,322.06L189.02,325.73L189.02,329.41L189.02,334.91L189.02,340.42L189.02,344.09L189.02,349.59L190.85,353.26L190.85,358.77L190.85,364.27L190.85,369.78L192.69,375.28L192.69,380.79L192.69,388.13L194.52,395.47L194.52,404.65L194.52,413.82L194.52,415.66L194.52,419.33L194.52,423L194.52,421.16" fill="none" stroke="#000000" style="-webkit-tap-highlight-color: rgba(0, 0, 0, 0); stroke-linecap: round; stroke-linejoin: round; stroke-width: 5;" /><path d="M181.68,243.15L179.84,243.15L179.84,244.99L183.51,244.99L187.18,243.15L192.69,243.15L196.36,243.15L200.03,243.15L205.53,243.15L209.2,243.15L212.87,244.99L216.54,246.82L220.22,248.66L223.89,250.49L227.56,250.49L231.23,250.49L233.06,252.33L234.9,254.16L236.73,254.16L238.57,256L240.4,256L240.4,257.84L242.24,257.84L244.07,259.67L244.07,261.51L244.07,263.34L244.07,265.18L244.07,268.85L244.07,272.52L244.07,279.86L244.07,283.53L244.07,290.87L244.07,294.54L244.07,301.88L244.07,307.38L244.07,311.05L244.07,312.89L244.07,318.39L244.07,323.9L244.07,331.24L244.07,336.75L244.07,342.25L244.07,347.76L244.07,353.26L245.91,360.6L245.91,366.11L245.91,373.45L247.74,380.79L247.74,386.29L249.58,393.63L249.58,402.81L249.58,408.32L251.41,413.82L251.41,419.33L251.41,423" fill="none" stroke="#000000" style="-webkit-tap-highlight-color: rgba(0, 0, 0, 0); stroke-linecap: round; stroke-linejoin: round; stroke-width: 5;" /><path d="M256.92,235.81L255.08,233.98L255.08,235.81L253.25,241.32L253.25,246.82L251.41,252.33L247.74,263.34L247.74,268.85L247.74,270.68" fill="none" stroke="#000000" style="-webkit-tap-highlight-color: rgba(0, 0, 0, 0); stroke-linecap: round; stroke-linejoin: round; stroke-width: 5;" /><path d="M258.75,237.65L256.92,237.65L260.59,233.98L262.42,232.14L266.09,232.14L271.6,230.31L277.1,228.47L280.77,226.64L286.28,226.64L289.95,226.64L293.62,226.64L299.13,226.64L302.8,226.64L308.3,226.64L311.97,226.64L313.81,226.64L317.48,226.64L321.15,226.64L322.98,228.47L326.65,228.47L328.49,230.31L332.16,230.31L333.99,230.31L335.83,232.14L339.5,232.14L341.33,232.14L343.17,233.98L345,233.98L346.84,235.81L348.67,235.81L350.51,237.65L352.34,237.65L354.18,239.48L356.01,239.48L357.85,241.32L359.68,241.32L359.68,243.15L361.52,244.99L363.35,246.82L365.19,246.82L365.19,248.66L367.03,250.49L367.03,252.33L368.86,254.16L370.7,256L370.7,257.84L370.7,259.67L370.7,261.51L370.7,267.01L370.7,272.52L370.7,276.19L370.7,281.69L370.7,285.36L370.7,290.87L370.7,294.54L370.7,300.04L370.7,305.55L370.7,309.22L370.7,314.72L370.7,318.39L370.7,323.9L370.7,329.41L370.7,333.08L370.7,338.58L370.7,342.25L370.7,345.92L370.7,351.43L370.7,355.1L370.7,358.77L370.7,362.44L370.7,366.11L370.7,371.61L370.7,373.45L370.7,377.12L370.7,380.79L370.7,384.46L370.7,388.13L370.7,391.8L370.7,393.63L370.7,397.3L370.7,399.14L370.7,402.81L370.7,406.48L370.7,410.15L370.7,415.66L370.7,419.33L370.7,424.83L368.86,430.34L368.86,435.84L367.03,439.51L367.03,441.35" fill="none" stroke="#000000" style="-webkit-tap-highlight-color: rgba(0, 0, 0, 0); stroke-linecap: round; stroke-linejoin: round; stroke-width: 5;" /><path d="M269.76,285.36L269.76,287.2L269.76,289.03L269.76,292.7L269.76,296.37L269.76,301.88L269.76,305.55L269.76,307.38L269.76,309.22L271.6,309.22L273.43,309.22L275.27,309.22L277.1,309.22L278.94,307.38L278.94,305.55L278.94,303.71L278.94,301.88L278.94,300.04L278.94,296.37L278.94,294.54L278.94,292.7L277.1,292.7L275.27,292.7L271.6,290.87L269.76,290.87" fill="none" stroke="#000000" style="-webkit-tap-highlight-color: rgba(0, 0, 0, 0); stroke-linecap: round; stroke-linejoin: round; stroke-width: 5;" /><path d="M381.71,257.84L379.87,259.67L374.37,259.67L374.37,257.84L378.04,256L379.87,256L381.71,256L383.54,256L389.05,256L394.55,256L398.22,256L401.89,256L407.4,256L411.07,256L416.57,256L420.24,256L422.08,256L425.75,257.84L429.42,257.84L433.09,257.84L434.92,257.84L438.59,257.84L440.43,259.67L442.27,259.67L444.1,259.67L445.94,259.67L447.77,261.51L449.61,261.51L451.44,261.51L453.28,261.51L455.11,261.51L456.95,263.34L458.78,263.34L460.62,263.34L462.45,263.34L464.29,263.34L466.12,265.18L467.96,265.18L469.79,265.18L471.63,267.01L473.46,268.85L475.3,270.68L478.97,272.52" fill="none" stroke="#000000" style="-webkit-tap-highlight-color: rgba(0, 0, 0, 0); stroke-linecap: round; stroke-linejoin: round; stroke-width: 5;" /><path d="M449.61,279.86L447.77,279.86L447.77,281.69L445.94,283.53L445.94,287.2L445.94,292.7L445.94,296.37L445.94,300.04L445.94,303.71L445.94,309.22L445.94,312.89L445.94,318.39L445.94,322.06L447.77,325.73L447.77,329.41L447.77,333.08L447.77,336.75L447.77,340.42L447.77,344.09L447.77,347.76L447.77,351.43L447.77,355.1L447.77,358.77L447.77,364.27L447.77,367.94L447.77,373.45L447.77,377.12L445.94,380.79L445.94,386.29L445.94,389.96L447.77,395.47L447.77,399.14L449.61,404.65L449.61,410.15L451.44,417.49L451.44,423L451.44,428.5L451.44,432.17L451.44,435.84L451.44,439.51" fill="none" stroke="#000000" style="-webkit-tap-highlight-color: rgba(0, 0, 0, 0); stroke-linecap: round; stroke-linejoin: round; stroke-width: 5;" /><path d="M445.94,281.69L447.77,281.69L455.11,279.86L466.12,279.86L471.63,278.02L475.3,278.02L478.97,276.19L482.64,276.19L486.31,276.19L489.98,276.19L491.81,276.19L495.48,274.35L499.15,274.35L502.82,274.35L506.49,274.35L508.33,274.35L512,274.35L515.67,272.52L521.18,272.52L524.85,272.52L528.52,272.52L532.19,272.52L535.86,272.52L539.53,272.52L543.2,272.52L546.87,272.52L548.7,272.52L552.37,274.35L556.04,274.35L559.71,274.35L563.38,272.52L567.05,272.52L568.89,272.52L572.56,272.52L574.39,272.52L578.06,272.52L581.73,272.52L583.57,272.52L587.24,272.52L589.08,272.52L590.91,272.52L592.75,272.52L594.58,272.52L596.42,272.52L598.25,272.52L600.09,272.52L601.92,274.35L603.76,274.35L605.59,274.35L607.43,274.35L609.26,274.35L611.1,274.35L612.93,274.35L614.77,276.19L616.6,276.19L618.44,276.19L620.27,278.02L622.11,279.86L623.94,279.86L625.78,281.69L627.61,281.69L627.61,283.53L629.45,285.36L631.28,289.03L633.12,290.87L633.12,292.7L633.12,294.54L634.95,296.37L634.95,298.21L634.95,301.88L634.95,303.71L634.95,309.22L634.95,312.89L634.95,318.39L634.95,322.06L634.95,325.73L633.12,329.41L633.12,334.91L631.28,338.58L631.28,342.25L631.28,347.76L631.28,351.43L629.45,355.1L629.45,360.6L629.45,364.27L629.45,367.94L629.45,371.61L629.45,377.12L627.61,382.62L627.61,386.29L627.61,391.8L627.61,397.3L627.61,402.81L625.78,410.15L625.78,417.49L623.94,423L623.94,424.83" fill="none" stroke="#000000" style="-webkit-tap-highlight-color: rgba(0, 0, 0, 0); stroke-linecap: round; stroke-linejoin: round; stroke-width: 5;" /><path d="M524.85,290.87L523.01,290.87L523.01,292.7L524.85,298.21L524.85,301.88L524.85,305.55L524.85,309.22L524.85,305.55L524.85,300.04" fill="none" stroke="#000000" style="-webkit-tap-highlight-color: rgba(0, 0, 0, 0); stroke-linecap: round; stroke-linejoin: round; stroke-width: 5;" /><path d="M521.18,287.2L523.01,287.2L524.85,287.2L528.52,287.2L530.35,287.2L534.02,287.2L535.86,289.03L537.69,290.87L537.69,292.7L537.69,294.54L537.69,298.21L537.69,300.04L537.69,301.88L537.69,303.71L534.02,305.55L530.35,307.38L528.52,307.38L526.68,305.55" fill="none" stroke="#000000" style="-webkit-tap-highlight-color: rgba(0, 0, 0, 0); stroke-linecap: round; stroke-linejoin: round; stroke-width: 5;" /><path d="M447.77,345.92L445.94,344.09L445.94,342.25L444.1,342.25L442.27,340.42L442.27,338.58L440.43,336.75L438.59,336.75L438.59,334.91L436.76,334.91L436.76,333.08L434.92,333.08L433.09,331.24L431.25,331.24L429.42,331.24L427.58,331.24L425.75,331.24L423.91,331.24L422.08,329.41L420.24,329.41L418.41,329.41L416.57,329.41L414.74,329.41L412.9,329.41L411.07,331.24L409.23,331.24L407.4,333.08L405.56,333.08L403.73,334.91L401.89,334.91L401.89,336.75L400.06,336.75L400.06,338.58L398.22,338.58L398.22,340.42L396.39,340.42L394.55,342.25L392.72,344.09L390.88,344.09L390.88,345.92L389.05,347.76L389.05,349.59L387.21,351.43L387.21,355.1L387.21,356.93L387.21,360.6L387.21,362.44L387.21,366.11L387.21,367.94L387.21,369.78L387.21,373.45L387.21,375.28L389.05,377.12L389.05,378.95L389.05,380.79L389.05,382.62L390.88,384.46L390.88,388.13L390.88,389.96L390.88,391.8L390.88,395.47L390.88,397.3L390.88,400.97L390.88,402.81L392.72,404.65L392.72,408.32L392.72,411.99L392.72,413.82L392.72,415.66L392.72,419.33L392.72,421.16L392.72,424.83L392.72,428.5L392.72,432.17L392.72,434.01L392.72,437.68L392.72,441.35L392.72,445.02L392.72,448.69L392.72,452.36L392.72,457.86L392.72,465.2L392.72,470.71L392.72,474.38L392.72,476.22L394.55,476.22" fill="none" stroke="#000000" style="-webkit-tap-highlight-color: rgba(0, 0, 0, 0); stroke-linecap: round; stroke-linejoin: round; stroke-width: 5;" /><path d="M368.86,428.5L367.03,428.5L367.03,430.34L367.03,432.17L367.03,437.68L367.03,445.02L367.03,452.36L367.03,457.86L367.03,461.53L368.86,463.37" fill="none" stroke="#000000" style="-webkit-tap-highlight-color: rgba(0, 0, 0, 0); stroke-linecap: round; stroke-linejoin: round; stroke-width: 5;" /><path d="M1.84,349.59L0,349.59" fill="none" stroke="#000000" style="-webkit-tap-highlight-color: rgba(0, 0, 0, 0); stroke-linecap: round; stroke-linejoin: round; stroke-width: 5;" /><path d="M0,349.59L1.84,349.59L5.51,349.59L11.01,349.59L18.35,349.59L23.86,347.76L29.36,347.76L33.03,347.76L38.54,347.76L44.04,347.76L47.71,347.76L51.38,347.76L55.05,349.59L58.72,349.59L64.23,353.26L67.9,353.26L71.57,355.1L75.24,355.1L78.91,355.1L82.58,355.1L88.09,355.1L93.59,353.26L99.1,353.26L102.77,351.43L106.44,351.43L111.94,351.43L115.61,351.43L119.28,351.43L124.79,349.59L128.46,349.59L132.13,347.76L135.8,347.76L139.47,347.76L144.97,347.76L150.48,347.76L155.99,347.76L159.66,345.92L163.33,345.92L168.83,345.92L172.5,345.92L176.17,347.76L181.68,347.76L187.18,347.76L190.85,347.76L192.69,347.76L196.36,347.76L200.03,349.59" fill="none" stroke="#000000" style="-webkit-tap-highlight-color: rgba(0, 0, 0, 0); stroke-linecap: round; stroke-linejoin: round; stroke-width: 5;" /><path d="M196.36,423L194.52,421.16L196.36,419.33L194.52,421.16L192.69,423L190.85,426.67L189.02,428.5L185.35,430.34L183.51,432.17L179.84,434.01L176.17,437.68L172.5,439.51L168.83,441.35L165.16,443.18L161.49,445.02L159.66,446.85L155.99,448.69L155.99,450.52L155.99,452.36" fill="none" stroke="#000000" style="-webkit-tap-highlight-color: rgba(0, 0, 0, 0); stroke-linecap: round; stroke-linejoin: round; stroke-width: 5;" /><path d="M11.01,448.69L12.85,450.52L16.52,450.52L22.02,452.36L27.53,452.36L34.87,452.36L40.37,452.36L47.71,454.19L53.22,454.19L60.56,454.19L67.9,452.36L73.41,450.52L78.91,450.52L84.42,450.52L88.09,450.52L93.59,450.52L97.26,452.36L102.77,452.36L108.27,452.36L111.94,452.36L117.45,452.36L121.12,452.36L126.62,452.36L132.13,452.36L135.8,452.36L139.47,452.36L143.14,452.36L146.81,450.52L152.32,450.52L155.99,448.69L159.66,448.69L163.33,448.69L168.83,446.85L170.67,446.85" fill="none" stroke="#000000" style="-webkit-tap-highlight-color: rgba(0, 0, 0, 0); stroke-linecap: round; stroke-linejoin: round; stroke-width: 5;" /><path d="M178.01,450.52L176.17,450.52L174.34,450.52L176.17,450.52L178.01,450.52L179.84,450.52L183.51,452.36L187.18,454.19L194.52,456.03L200.03,457.86L205.53,457.86L212.87,459.7L220.22,459.7L227.56,459.7L234.9,459.7L242.24,459.7L247.74,459.7L255.08,459.7L262.42,459.7L267.93,459.7L275.27,459.7L280.77,459.7L288.11,457.86L293.62,457.86L300.96,456.03L306.47,456.03L311.97,456.03L315.64,456.03L321.15,456.03L326.65,456.03L332.16,456.03L337.66,456.03L343.17,456.03L346.84,456.03L352.34,456.03L356.01,456.03" fill="none" stroke="#000000" style="-webkit-tap-highlight-color: rgba(0, 0, 0, 0); stroke-linecap: round; stroke-linejoin: round; stroke-width: 5;" /><path d="M359.68,468.87L357.85,463.37L354.18,461.53L354.18,459.7L356.01,459.7L357.85,461.53L359.68,461.53L363.35,463.37L365.19,463.37L367.03,465.2L370.7,467.04L372.53,467.04L374.37,468.87L378.04,470.71L379.87,472.54L383.54,472.54L387.21,474.38L389.05,476.22L392.72,478.05L394.55,478.05L398.22,479.89L400.06,481.72L403.73,483.56L405.56,483.56L407.4,485.39L411.07,487.23L412.9,489.06L416.57,490.9L418.41,492.73L420.24,494.57L423.91,496.4L425.75,496.4L425.75,498.24L425.75,500.07L423.91,501.91L422.08,503.74L420.24,505.58L418.41,505.58L414.74,507.41L412.9,509.25L409.23,511.08L405.56,512.92L401.89,514.75L398.22,514.75L396.39,516.59L392.72,518.42L389.05,520.26L385.38,522.09L381.71,523.93L378.04,523.93L374.37,525.76L370.7,527.6L367.03,529.43L361.52,533.1L357.85,534.94L354.18,536.77L348.67,540.44L345,542.28L339.5,544.11L335.83,544.11L332.16,545.95L328.49,547.78L322.98,547.78L317.48,549.62L311.97,551.46L304.63,551.46L297.29,553.29L289.95,555.13L284.44,555.13L278.94,556.96L273.43,556.96L266.09,556.96L258.75,556.96L253.25,558.8L247.74,558.8L242.24,558.8L236.73,558.8L231.23,558.8L225.72,558.8L222.05,558.8L216.54,558.8L212.87,558.8L207.37,558.8L203.7,558.8L198.19,558.8L192.69,558.8L187.18,558.8L181.68,556.96L176.17,556.96L170.67,555.13L167,553.29L161.49,551.46L155.99,551.46L152.32,551.46L146.81,551.46L143.14,551.46L137.63,551.46L132.13,551.46L126.62,553.29L121.12,553.29L115.61,553.29L113.78,553.29L110.11,553.29L106.44,553.29L104.6,553.29L100.93,553.29L97.26,553.29L95.43,553.29L93.59,553.29L89.92,553.29L86.25,553.29L82.58,553.29L78.91,553.29L77.08,555.13L75.24,555.13L73.41,555.13L71.57,555.13L67.9,555.13L66.06,556.96L62.39,556.96L60.56,558.8L56.89,558.8L53.22,560.63L49.55,560.63L45.88,560.63L42.21,562.47L38.54,562.47L34.87,564.3L31.2,564.3L27.53,564.3L23.86,564.3L20.19,564.3L16.52,562.47L14.68,562.47L14.68,560.63L20.19,560.63" fill="none" stroke="#000000" style="-webkit-tap-highlight-color: rgba(0, 0, 0, 0); stroke-linecap: round; stroke-linejoin: round; stroke-width: 5;" /><path d="M469.79,500.07L471.63,500.07L475.3,500.07L478.97,500.07L484.47,501.91L491.81,501.91L499.15,501.91L506.49,501.91L512,503.74L515.67,505.58L519.34,505.58L526.68,505.58L532.19,505.58L537.69,505.58L539.53,505.58L541.36,505.58L543.2,505.58L545.03,507.41L548.7,507.41L550.54,509.25L552.37,511.08L556.04,511.08L557.88,512.92L563.38,514.75L567.05,516.59L572.56,516.59L576.23,518.42L579.9,518.42L585.41,520.26L590.91,522.09L596.42,522.09L601.92,523.93L605.59,525.76L611.1,527.6L616.6,527.6L620.27,529.43L625.78,531.27L633.12,533.1L638.62,534.94L644.13,536.77L649.63,538.61L656.97,540.44L664.32,540.44L669.82,542.28L677.16,544.11L682.67,544.11L688.17,545.95L693.68,545.95L697.35,547.78L702.85,547.78L708.36,549.62L712.03,549.62L717.53,549.62L723.04,551.46L728.54,551.46L735.89,553.29L741.39,553.29L748.73,555.13L756.07,555.13L765.25,555.13L772.59,555.13L779.93,556.96L789.1,556.96L796.44,556.96L805.62,558.8L814.8,558.8L823.97,558.8L829.48,558.8L836.82,558.8L845.99,558.8L855.17,558.8L862.51,558.8L869.85,556.96L875.35,556.96L882.7,556.96L888.2,556.96L891.87,556.96L895.54,556.96L899.21,558.8L902.88,558.8L906.55,558.8L908.39,560.63L912.06,560.63L913.89,560.63L917.56,560.63L921.23,560.63L924.9,562.47L928.57,562.47L934.08,562.47L941.42,562.47L946.92,562.47L954.27,562.47L961.61,564.3L967.11,564.3L974.45,564.3L981.79,566.14L990.97,566.14L1000.14,564.3L1011.15,560.63L1020.33,560.63" fill="none" stroke="#000000" style="-webkit-tap-highlight-color: rgba(0, 0, 0, 0); stroke-linecap: round; stroke-linejoin: round; stroke-width: 5;" /><path d="M633.12,349.59L627.61,347.76L629.45,347.76L633.12,345.92L636.79,345.92L640.46,345.92L642.29,347.76L644.13,349.59L647.8,349.59L653.3,351.43L656.97,351.43L660.65,351.43L662.48,351.43L666.15,351.43L667.99,351.43L671.66,351.43L675.33,351.43L679,351.43L682.67,351.43L684.5,351.43L686.34,351.43L690.01,351.43L693.68,351.43L695.51,349.59L699.18,347.76L702.85,345.92L706.52,344.09L710.19,342.25L713.86,340.42L717.53,338.58L723.04,336.75L724.87,336.75L730.38,336.75L734.05,334.91L735.89,334.91L739.56,334.91L743.23,334.91L745.06,334.91L748.73,334.91L752.4,334.91L756.07,334.91L757.91,334.91L761.58,334.91L767.08,334.91L770.75,334.91L774.42,334.91L778.09,334.91L781.76,334.91L785.43,334.91L789.1,334.91L790.94,336.75L794.61,336.75L796.44,338.58L800.11,338.58L803.78,338.58L805.62,340.42L807.46,340.42L809.29,342.25L811.13,342.25L812.96,344.09L814.8,345.92L814.8,347.76L816.63,349.59L818.47,351.43L820.3,353.26L822.14,355.1L823.97,355.1L825.81,356.93L827.64,356.93L829.48,356.93L831.31,356.93L834.98,356.93L838.65,356.93L842.32,356.93L845.99,356.93L849.66,355.1L853.33,355.1L857,355.1L860.67,355.1L864.34,355.1L869.85,355.1L873.52,353.26L877.19,353.26L879.03,353.26L882.7,353.26L884.53,353.26L888.2,353.26L891.87,353.26L895.54,353.26L899.21,353.26L901.05,353.26L902.88,353.26L906.55,353.26L910.22,353.26L912.06,353.26L915.73,351.43L917.56,351.43L921.23,351.43L923.07,351.43L926.74,351.43L930.41,349.59L932.24,347.76L935.91,347.76L939.58,345.92L941.42,344.09L945.09,344.09L950.59,342.25L954.27,340.42L959.77,338.58L963.44,338.58L967.11,336.75L968.95,336.75L972.62,334.91L974.45,334.91L978.12,334.91L979.96,334.91L983.63,334.91L987.3,334.91L989.13,334.91L992.8,334.91L996.47,334.91L1000.14,334.91L1001.98,336.75L1005.65,336.75L1011.15,336.75L1016.66,336.75L1020.33,336.75L1022.16,336.75L1024,336.75L1024,338.58" fill="none" stroke="#000000" style="-webkit-tap-highlight-color: rgba(0, 0, 0, 0); stroke-linecap: round; stroke-linejoin: round; stroke-width: 5;" /><path d="M464.29,430.34L462.45,430.34L464.29,430.34L467.96,432.17L478.97,430.34L484.47,430.34L489.98,432.17L493.65,432.17L499.15,434.01L506.49,434.01L513.84,432.17L519.34,430.34L524.85,430.34L528.52,430.34L539.53,428.5L545.03,426.67L548.7,426.67L552.37,426.67L556.04,426.67L559.71,426.67L565.22,424.83L568.89,423L574.39,423L578.06,421.16L583.57,421.16L587.24,421.16L592.75,421.16L596.42,421.16L601.92,421.16L605.59,421.16L612.93,419.33L620.27,417.49L622.11,417.49" fill="none" stroke="#000000" style="-webkit-tap-highlight-color: rgba(0, 0, 0, 0); stroke-linecap: round; stroke-linejoin: round; stroke-width: 5;" /><path d="M458.78,434.01L456.95,434.01L455.11,435.84L455.11,437.68L453.28,441.35L453.28,445.02L451.44,446.85L449.61,450.52L447.77,454.19L445.94,457.86L444.1,461.53L444.1,463.37L442.27,465.2L442.27,467.04L442.27,468.87L442.27,472.54L442.27,474.38L444.1,476.22L444.1,479.89L444.1,481.72L445.94,485.39L447.77,487.23L447.77,489.06L449.61,489.06" fill="none" stroke="#000000" style="-webkit-tap-highlight-color: rgba(0, 0, 0, 0); stroke-linecap: round; stroke-linejoin: round; stroke-width: 5;" /><path d="M396.39,400.97L394.55,400.97L394.55,402.81L394.55,404.65L396.39,404.65L400.06,404.65L403.73,404.65L407.4,404.65L412.9,404.65L420.24,404.65L425.75,402.81L431.25,402.81L436.76,402.81L440.43,402.81L445.94,402.81L447.77,402.81" fill="none" stroke="#000000" style="-webkit-tap-highlight-color: rgba(0, 0, 0, 0); stroke-linecap: round; stroke-linejoin: round; stroke-width: 5;" /><path d="M812.96,353.26L811.13,351.43L809.29,351.43L801.95,353.26L796.44,355.1L789.1,356.93L783.6,360.6L779.93,362.44L774.42,364.27L770.75,366.11L767.08,367.94L765.25,369.78L761.58,371.61L759.74,373.45L757.91,375.28L754.24,377.12L752.4,380.79L750.57,382.62L748.73,384.46L745.06,386.29L741.39,386.29L737.72,388.13L732.22,389.96L728.54,391.8L724.87,393.63L721.2,393.63L719.37,395.47L717.53,397.3L717.53,399.14L715.7,399.14L715.7,400.97L715.7,402.81L715.7,404.65L715.7,408.32L717.53,410.15L719.37,413.82L721.2,415.66L723.04,419.33L724.87,421.16L728.54,424.83L732.22,426.67L734.05,430.34L735.89,434.01L739.56,437.68L741.39,441.35L745.06,443.18L746.9,445.02L750.57,446.85L754.24,448.69L756.07,450.52L757.91,454.19L761.58,456.03L765.25,459.7L768.92,461.53L772.59,463.37L776.26,465.2L779.93,465.2L783.6,467.04L787.27,467.04L792.77,467.04L796.44,467.04L800.11,467.04L803.78,468.87L807.46,468.87L812.96,468.87L818.47,468.87L822.14,468.87L827.64,468.87L829.48,468.87L833.15,468.87L836.82,470.71L842.32,470.71L845.99,470.71L851.5,472.54L855.17,472.54L860.67,472.54L866.18,472.54L871.68,470.71L877.19,470.71L882.7,470.71L890.04,470.71L895.54,472.54L901.05,474.38L908.39,474.38L915.73,476.22L921.23,476.22L926.74,476.22L932.24,478.05L937.75,478.05L943.25,478.05L948.76,478.05L954.27,478.05L961.61,479.89L970.78,479.89L979.96,479.89L985.46,479.89L992.8,479.89L1001.98,478.05L1003.81,478.05" fill="none" stroke="#000000" style="-webkit-tap-highlight-color: rgba(0, 0, 0, 0); stroke-linecap: round; stroke-linejoin: round; stroke-width: 5;" /><path d="M249.58,424.83L249.58,423L251.41,421.16L253.25,421.16L255.08,421.16L256.92,421.16L260.59,423L264.26,423L267.93,423L271.6,424.83L275.27,424.83L277.1,424.83L280.77,424.83L284.44,426.67L288.11,426.67L291.78,426.67L295.46,426.67L297.29,426.67L300.96,426.67L302.8,424.83L304.63,424.83L308.3,424.83L310.14,423L311.97,423L315.64,423L317.48,421.16L319.31,421.16L321.15,419.33L322.98,419.33L324.82,417.49L328.49,415.66L330.32,413.82L332.16,413.82L335.83,411.99L337.66,410.15L339.5,406.48L341.33,404.65L343.17,402.81L345,399.14L348.67,397.3L352.34,393.63L356.01,391.8L359.68,389.96L363.35,386.29L367.03,384.46L370.7,382.62" fill="none" stroke="#000000" style="-webkit-tap-highlight-color: rgba(0, 0, 0, 0); stroke-linecap: round; stroke-linejoin: round; stroke-width: 5;" /></svg>