<?xml version="1.0" encoding="utf-8" ?>
<svg baseProfile="full" height="717" version="1.1" width="1024" xmlns="http://www.w3.org/2000/svg" xmlns:ev="http://www.w3.org/2001/xml-events" xmlns:xlink="http://www.w3.org/1999/xlink"><defs /><path d="M192.56,252.27L192.56,251.52L193.31,250.78L193.31,250.03L193.31,249.28L193.31,248.54L192.56,248.54L191.81,248.54L191.07,248.54L190.32,248.54L190.32,250.03L190.32,253.01L190.32,253.76L191.07,258.24L191.07,261.97L191.07,265.7L191.07,267.94L190.32,270.93L190.32,273.17L190.32,275.41L190.32,279.14L190.32,282.12L191.07,291.83L191.07,293.32L191.07,295.56L191.07,297.8L191.81,300.03L191.81,303.02L192.56,307.5L192.56,309.74L193.31,313.47L193.31,315.71L193.31,320.19L194.05,323.17L194.05,325.41L194.8,327.65L194.8,329.14L194.05,332.13L194.05,333.62L193.31,335.11L193.31,337.35L192.56,340.34L191.81,342.58L192.56,344.07L192.56,344.82" fill="none" stroke="#000000" style="-webkit-tap-highlight-color: rgba(0, 0, 0, 0); stroke-linecap: round; stroke-linejoin: round; stroke-width: 5;" /><path d="M2.24,356.76L0.75,356.01L0.75,355.27L1.49,355.27L2.99,356.01L7.46,355.27L10.45,354.52L13.43,353.77L16.42,352.28L20.9,350.79L26.87,350.04L30.6,349.29L34.33,349.29L38.06,349.29L44.03,348.55L47.02,347.06L50.01,347.8L53.74,347.8L56.72,348.55L62.69,349.29L65.68,349.29L68.66,349.29L71.65,349.29L75.38,350.79L78.37,351.53L81.35,351.53L85.08,352.28L88.82,352.28L93.29,353.03L96.28,353.03L100.01,353.77L103,353.77L108.97,353.03L111.95,353.03L114.94,353.03L118.67,353.03L123.15,353.03L129.12,353.03L132.85,352.28L137.33,351.53L141.81,351.53L145.54,351.53L150.76,351.53L155.24,351.53L159.72,350.79L164.2,350.79L168.68,350.04L173.9,350.79L177.63,350.79L182.11,350.04L188.83,349.29L192.56,349.29L196.29,349.29L199.28,350.04L201.52,349.29L204.5,350.04L205.25,350.04" fill="none" stroke="#000000" style="-webkit-tap-highlight-color: rgba(0, 0, 0, 0); stroke-linecap: round; stroke-linejoin: round; stroke-width: 5;" /><path d="M112.7,359.74L111.21,359.74L109.71,360.49L105.98,362.73L103.74,364.97L100.01,367.21L97.77,369.45L94.04,371.69L91.06,373.92L85.83,377.66L82.85,379.9L80.61,382.13L76.87,383.63L73.89,386.61L71.65,388.85L69.41,391.09L66.43,394.08L64.19,396.31L58.96,399.3L55.98,400.79L51.5,401.54L48.51,403.03L41.8,406.02L37.32,409L32.84,411.24L29.11,414.23L23.88,416.47L16.42,419.45L11.94,422.44L8.21,423.93L6.72,423.93L4.48,424.68" fill="none" stroke="#000000" style="-webkit-tap-highlight-color: rgba(0, 0, 0, 0); stroke-linecap: round; stroke-linejoin: round; stroke-width: 5;" /><path d="M162.71,359L161.96,359L158.97,360.49L155.99,361.98L153,364.22L150.76,366.46L149.27,368.7L147.78,370.94L146.29,375.42L145.54,377.66L145.54,380.64L145.54,382.88L145.54,386.61L146.29,388.1L147.03,390.34L147.03,391.84L147.78,393.33L147.78,396.31L147.78,399.3L147.78,400.79L147.78,402.29L147.78,405.27L146.29,406.76L144.79,408.26L143.3,409.75L140.31,411.24L137.33,412.73L133.6,413.48L130.61,414.23L127.63,414.97L123.15,416.47L119.42,417.96L115.69,419.45L112.7,421.69L108.22,423.18L103.74,426.17L98.52,429.15L94.04,432.89L90.31,435.13L83.59,438.86L79.86,441.1L75.38,443.34L65.68,450.05L65.68,450.8" fill="none" stroke="#000000" style="-webkit-tap-highlight-color: rgba(0, 0, 0, 0); stroke-linecap: round; stroke-linejoin: round; stroke-width: 5;" /><path d="M194.05,250.03L192.56,250.03L192.56,249.28L193.31,249.28L195.55,250.03L197.78,250.78L200.77,251.52L204.5,253.01L208.23,253.76L212.71,253.76L215.7,254.51L223.16,255.25L224.65,255.25L225.4,256L226.89,256L228.38,256.75L229.88,256.75L232.12,257.49L234.36,258.24L237.34,259.73L238.83,260.48L239.58,259.73L240.33,259.73L241.07,259.73L241.82,259.73L241.82,260.48L241.82,259.73L242.57,259.73L242.57,258.99L244.06,258.99" fill="none" stroke="#000000" style="-webkit-tap-highlight-color: rgba(0, 0, 0, 0); stroke-linecap: round; stroke-linejoin: round; stroke-width: 5;" /><path d="M244.8,261.22L244.06,259.73L244.06,258.24L244.8,257.49L245.55,256L246.3,254.51L247.79,253.76L249.28,251.52L250.03,249.28L251.52,247.04L251.52,244.8L251.52,242.57L251.52,241.82L250.78,241.07L250.78,239.58L250.78,238.83L250.03,238.09L250.78,238.09L251.52,238.83L252.27,238.83L253.01,238.09L253.01,237.34L253.76,237.34L253.76,236.59L256,235.1L257.49,234.36L258.99,234.36L261.97,233.61L264.21,232.86L267.94,232.86L271.67,232.86L275.41,232.86L279.88,232.86L286.6,232.12L291.08,232.12L295.56,232.12L299.29,232.12L303.77,232.12L310.48,232.86L314.22,232.86L318.69,232.86L322.43,232.86L326.9,233.61L329.89,232.86L332.13,232.86L335.11,233.61L338.1,234.36L342.58,235.1L345.56,235.1L347.8,235.85L350.04,236.59L353.77,237.34L356.76,238.09L358.25,238.09L360.49,238.83L361.98,239.58L363.48,240.33L364.97,241.82L366.46,242.57L367.95,243.31L368.7,244.06L369.45,244.8L370.19,245.55L370.94,247.04L371.69,248.54L371.69,250.03L371.69,250.78L371.69,252.27L371.69,254.51L371.69,256L371.69,258.24L372.43,259.73L373.18,260.48L373.92,261.97L373.92,262.72L375.42,263.46L377.66,264.21L378.4,263.46L381.39,262.72L383.63,261.97L385.87,261.97L387.36,261.22L390.34,261.22L392.58,260.48L394.82,260.48L396.31,261.22L398.55,260.48L402.29,259.73L403.78,259.73L406.02,259.73L407.51,259.73L409.75,260.48L412.73,260.48L414.97,260.48L416.47,261.97L418.71,261.97L420.2,262.72L423.93,263.46L426.17,263.46L427.66,264.21L430.65,264.21L432.89,264.21L435.13,264.21L436.62,264.96L438.86,263.46L441.1,263.46L444.83,263.46L447.07,264.21L449.31,264.21L452.29,263.46L454.53,264.21L456.77,264.21L459.01,264.21L460.5,264.21L462.74,264.21L466.47,264.21L469.46,264.21L472.44,264.21L475.43,264.96L478.41,264.96L480.65,265.7L482.15,265.7L482.89,266.45L484.38,266.45L485.13,267.2L485.88,267.94L487.37,268.69L488.12,269.43L488.12,270.18L488.12,271.67L488.12,272.42L488.12,273.17L487.37,274.66L487.37,275.41L486.62,276.9L486.62,278.39L486.62,279.14L486.62,279.88L488.86,279.88L493.34,279.14L497.82,278.39L501.55,278.39L506.03,276.9L509.76,276.15L515.73,274.66L518.72,273.91L522.45,273.91L525.43,273.17L529.91,272.42L533.64,272.42L535.88,272.42L539.62,271.67L542.6,272.42L547.08,271.67L550.81,271.67L553.8,271.67L556.78,271.67L561.26,271.67L564.24,270.93L567.23,270.93L570.22,270.93L572.45,270.93L575.44,271.67L579.17,270.93L582.16,270.93L585.14,270.93L591.11,272.42L595.59,273.17L600.07,273.91L603.06,274.66L606.04,274.66L607.53,275.41L609.77,276.15L610.52,276.9L612.01,276.9L612.76,276.15L613.5,276.9L616.49,278.39L617.24,278.39L617.98,278.39L618.73,279.14L620.22,279.88L621.71,279.88L623.21,280.63L624.7,281.38L625.45,281.38L626.19,282.12L626.94,282.12L627.69,282.12L628.43,282.87L629.18,284.36L629.92,284.36L629.92,285.11L630.67,285.85L630.67,287.35L630.67,289.59L630.67,293.32L629.92,294.06L629.92,296.3L630.67,299.29L630.67,302.27L630.67,304.51L630.67,306.75L630.67,308.99L630.67,311.23L631.42,312.72L631.42,314.96L631.42,317.2L631.42,320.19L631.42,322.43L632.16,323.17L632.16,325.41L632.91,326.9L632.91,329.14L632.91,331.38L633.66,332.87L633.66,334.37L633.66,335.86L633.66,338.1L633.66,338.85L633.66,340.34L633.66,341.83L632.91,343.32L632.91,344.07L632.91,345.56L632.16,346.31L632.16,347.8L632.16,348.55L632.91,349.29L633.66,349.29L633.66,350.04L635.15,350.79L636.64,350.79L638.13,350.79L643.36,351.53L644.1,351.53L645.6,351.53L646.34,351.53L649.33,352.28L651.57,353.03L652.31,353.77L656.05,354.52L659.78,355.27L663.51,356.76L669.48,359L672.47,359" fill="none" stroke="#000000" style="-webkit-tap-highlight-color: rgba(0, 0, 0, 0); stroke-linecap: round; stroke-linejoin: round; stroke-width: 5;" /><path d="M670.23,359.74L671.72,359.74L675.45,360.49L678.44,359.74L681.42,359L684.41,359L688.14,358.25L691.87,357.5L700.08,355.27L703.07,354.52L704.56,354.52L705.31,353.77L706.8,353.77L708.29,353.03L709.78,352.28L711.28,351.53L713.52,350.79L715.01,350.04L715.01,349.29L716.5,348.55L717.99,347.8L720.23,347.06L721.73,347.06L722.47,346.31L723.22,345.56L725.46,344.82L727.7,344.07L729.94,343.32L732.92,342.58L735.91,341.83L738.89,341.08L741.88,341.08L744.12,340.34L747.1,340.34L751.58,340.34L753.82,339.59L757.55,340.34L759.79,339.59L763.52,339.59L765.01,339.59L768,339.59L770.24,340.34L773.22,340.34L776.96,340.34L779.94,340.34L783.67,340.34L786.66,340.34L791.14,340.34L794.12,341.08L797.11,341.08L800.09,341.83L802.33,341.83L804.57,342.58L806.81,343.32L807.56,343.32L809.8,344.82L812.03,345.56L813.53,346.31L815.02,347.8L816.51,348.55L818.01,350.04L820.24,352.28L820.99,353.77L821.74,353.77L822.48,355.27L823.98,357.5L825.47,359L826.22,359L828.45,361.24L829.2,361.24L830.69,361.24L831.44,361.98L832.19,362.73L832.93,362.73L833.68,364.22L834.43,364.22L835.17,364.97L835.92,365.71L836.66,365.71L838.16,365.71L838.9,365.71L841.14,364.97L843.38,364.22L847.86,363.48L850.1,362.73L853.08,362.73L855.32,361.98L858.31,361.24L859.8,361.24L862.04,360.49L864.28,360.49L865.77,360.49L869.5,360.49L871,360.49L873.24,360.49L875.48,361.24L878.46,361.24L880.7,360.49L882.94,360.49L884.43,360.49L886.67,360.49L888.91,360.49L891.15,360.49L893.39,360.49L894.88,360.49L897.12,360.49L897.87,360.49L899.36,360.49L900.85,359.74L902.34,359L903.84,359L904.58,358.25L906.08,357.5L907.57,356.76L909.81,355.27L911.3,353.77L912.79,353.03L914.29,352.28L915.78,351.53L918.02,350.04L918.76,349.29L920.26,348.55L923.99,345.56L925.48,344.82L927.72,344.07L930.71,342.58L932.2,341.83L935.93,340.34L939.66,339.59L943.39,339.59L947.87,338.85L953.1,338.1L956.08,337.35L959.81,337.35L962.8,337.35L966.53,337.35L971.01,338.1L974.74,338.1L978.47,338.1L982.2,338.1L986.68,338.1L989.67,338.1L992.65,338.1L995.64,337.35L998.62,338.1L1004.59,338.1L1007.58,338.85L1011.31,338.85L1015.04,339.59L1020.27,339.59L1024,340.34" fill="none" stroke="#000000" style="-webkit-tap-highlight-color: rgba(0, 0, 0, 0); stroke-linecap: round; stroke-linejoin: round; stroke-width: 5;" /><path d="M640.37,347.8L638.13,347.06L637.39,347.06" fill="none" stroke="#000000" style="-webkit-tap-highlight-color: rgba(0, 0, 0, 0); stroke-linecap: round; stroke-linejoin: round; stroke-width: 5;" /><path d="M632.16,344.82" fill="none" stroke="#000000" style="-webkit-tap-highlight-color: rgba(0, 0, 0, 0); stroke-linecap: round; stroke-linejoin: round; stroke-width: 5;" /><path d="M629.18,345.56L628.43,345.56L628.43,346.31L627.69,347.8L627.69,349.29L628.43,352.28L628.43,356.76L629.18,359L629.18,361.98L629.18,364.97L629.18,369.45L629.92,371.69L629.92,373.92L630.67,376.16L630.67,379.15L630.67,382.13L630.67,385.12L630.67,387.36L630.67,389.6L630.67,392.58L630.67,394.08L630.67,397.81L630.67,400.05L630.67,402.29L629.92,406.02L629.92,407.51L629.92,408.26L629.92,409L629.92,409.75L630.67,410.5" fill="none" stroke="#000000" style="-webkit-tap-highlight-color: rgba(0, 0, 0, 0); stroke-linecap: round; stroke-linejoin: round; stroke-width: 5;" /><path d="M701.57,362.73L703.81,364.22L706.8,365.71L709.78,366.46L712.77,367.21L717.99,367.95L724.71,369.45L729.94,370.19L734.41,371.69L739.64,372.43L744.86,373.18L751.58,373.92L754.57,373.92L756.8,373.92" fill="none" stroke="#000000" style="-webkit-tap-highlight-color: rgba(0, 0, 0, 0); stroke-linecap: round; stroke-linejoin: round; stroke-width: 5;" /><path d="M820.99,359.74L820.24,359.74L818.75,360.49L816.51,359.74L812.03,360.49L809.8,361.24L807.56,361.24L803.08,361.24L794.87,363.48L789.64,364.22L785.17,365.71L779.94,367.21L775.46,368.7L768.75,370.94L763.52,372.43L759.04,373.92L755.31,375.42L750.09,378.4L747.1,379.9L744.86,381.39L741.88,383.63L739.64,385.12L738.15,386.61L735.91,389.6L734.41,391.09L732.92,391.84L730.68,392.58L729.19,394.08L726.95,394.82L726.2,395.57L725.46,396.31L724.71,397.81L722.47,398.55L721.73,399.3L720.23,400.05L718.74,400.79L717.99,402.29L717.25,403.78L716.5,405.27L715.01,406.76L715.01,408.26L714.26,410.5L713.52,411.99L713.52,412.73L714.26,414.97L715.76,417.21L717.99,419.45L720.23,422.44L722.47,423.93L725.46,426.92L729.94,431.39L732.92,435.13L737.4,437.36L741.13,440.35L749.34,444.83L756.06,448.56L763.52,453.04L773.97,457.52L779.94,460.5L787.41,464.23L797.85,468.71" fill="none" stroke="#000000" style="-webkit-tap-highlight-color: rgba(0, 0, 0, 0); stroke-linecap: round; stroke-linejoin: round; stroke-width: 5;" /><path d="M800.09,469.46L799.35,468.71L799.35,467.97L800.09,467.97L802.33,468.71L806.06,470.2L809.8,472.44L818.01,474.68L823.98,476.92L829.95,478.41L836.66,480.65L841.89,482.89L850.1,486.62L855.32,487.37L859.8,488.86L863.53,489.61L870.25,491.85L873.24,492.59L876.97,494.09L880.7,495.58L884.43,497.82L900.1,500.8L906.08,501.55L913.54,503.04" fill="none" stroke="#000000" style="-webkit-tap-highlight-color: rgba(0, 0, 0, 0); stroke-linecap: round; stroke-linejoin: round; stroke-width: 5;" /><path d="M901.6,511.25L905.33,511.25L909.81,511.25L916.52,512L932.2,512.75L940.41,514.24L952.35,517.22L959.81,518.72L965.78,520.96L972.5,523.2L979.97,526.93L983.7,529.91L987.43,532.15L990.41,534.39L994.15,536.63L999.37,541.11L1003.85,544.09L1007.58,547.08L1011.31,549.32L1017.28,553.05L1021.76,556.03" fill="none" stroke="#000000" style="-webkit-tap-highlight-color: rgba(0, 0, 0, 0); stroke-linecap: round; stroke-linejoin: round; stroke-width: 5;" /><path d="M621.71,402.29L623.21,402.29L623.95,402.29L624.7,403.03L625.45,403.78L625.45,404.52L625.45,406.02L624.7,407.51L623.95,409L623.21,409.75L621.71,411.24L620.22,411.99L618.73,413.48L616.49,414.97L614.25,416.47L612.01,417.96L610.52,418.71L608.28,419.45L605.29,420.94L601.56,423.18L597.83,423.93L594.85,424.68L591.86,425.42L588.87,427.66L585.89,429.15L583.65,429.9L580.66,430.65L577.68,431.39L575.44,432.14L571.71,432.89L569.47,433.63L565.74,433.63L559.77,433.63L555.29,433.63L550.06,435.13L543.35,435.87L541.85,435.87" fill="none" stroke="#000000" style="-webkit-tap-highlight-color: rgba(0, 0, 0, 0); stroke-linecap: round; stroke-linejoin: round; stroke-width: 5;" /><path d="M409,335.11L407.51,334.37L406.02,334.37L404.52,334.37L400.79,334.37L399.3,335.11L397.81,335.11L395.57,336.61L393.33,338.1L391.84,339.59L390.34,341.83L388.85,344.07L388.1,347.06L386.61,350.79L386.61,353.03L385.87,355.27L385.87,357.5L385.12,359.74L385.12,362.73L385.12,364.97L384.37,367.21L384.37,369.45L384.37,372.43L384.37,374.67L384.37,376.91L385.12,379.9L385.12,383.63L384.37,386.61L384.37,389.6L384.37,392.58L384.37,395.57L384.37,400.05L384.37,402.29L384.37,405.27L384.37,407.51L384.37,411.99L385.12,418.71L384.37,420.2L384.37,421.69L384.37,424.68L384.37,429.15L385.12,432.89L385.12,435.87L385.87,438.86L386.61,442.59L387.36,445.57L387.36,448.56L388.1,452.29L388.85,454.53L388.85,456.77L389.6,457.52" fill="none" stroke="#000000" style="-webkit-tap-highlight-color: rgba(0, 0, 0, 0); stroke-linecap: round; stroke-linejoin: round; stroke-width: 5;" /><path d="M409.75,334.37L410.5,334.37L412.73,334.37L414.23,334.37L416.47,333.62L417.96,333.62L421.69,334.37L423.18,335.11L425.42,336.61L428.41,338.1L430.65,338.85L432.89,339.59L434.38,340.34L435.87,341.83L437.36,342.58L438.86,344.82L440.35,345.56L440.35,347.06L441.1,347.8L441.84,349.29L442.59,351.53L442.59,353.77L443.34,355.27L444.08,358.25L444.08,359.74L444.83,361.24L444.83,363.48L444.83,367.21L445.57,368.7L446.32,370.94L446.32,372.43L447.07,373.92L447.07,375.42L447.81,377.66L447.81,379.15L447.81,381.39L448.56,383.63L448.56,385.12L448.56,388.1L448.56,390.34L448.56,391.84L448.56,394.08L448.56,397.81L448.56,400.79L448.56,404.52L447.81,408.26L447.81,411.24L447.81,413.48L447.07,416.47L447.07,418.71L447.07,421.69L447.07,426.17L447.07,429.15L447.07,432.14L446.32,435.87L446.32,437.36L446.32,438.11L446.32,438.86L446.32,439.6L446.32,440.35" fill="none" stroke="#000000" style="-webkit-tap-highlight-color: rgba(0, 0, 0, 0); stroke-linecap: round; stroke-linejoin: round; stroke-width: 5;" /><path d="M443.34,437.36L442.59,437.36L441.84,437.36L441.1,437.36L439.6,438.86L438.86,440.35L437.36,442.59L435.87,445.57L435.13,448.56L435.13,452.29L435.13,457.52L435.13,460.5L435.13,463.49L435.13,466.47L435.13,469.46L435.87,474.68L435.87,478.41L435.87,482.15L435.87,485.88L435.87,489.61L435.87,491.85L435.87,494.83L436.62,497.07L437.36,497.07" fill="none" stroke="#000000" style="-webkit-tap-highlight-color: rgba(0, 0, 0, 0); stroke-linecap: round; stroke-linejoin: round; stroke-width: 5;" /><path d="M448.56,432.89L450.05,432.89L451.55,432.89L457.52,432.14L461.99,431.39L467.97,430.65L473.94,430.65L486.62,431.39L489.61,431.39L497.07,432.14L503.79,432.89L509.76,433.63L518.72,434.38L523.94,435.13L529.91,435.13L535.14,435.13L541.85,436.62L545.59,438.11L550.06,438.11L551.56,437.36" fill="none" stroke="#000000" style="-webkit-tap-highlight-color: rgba(0, 0, 0, 0); stroke-linecap: round; stroke-linejoin: round; stroke-width: 5;" /><path d="M515.73,288.09L516.48,288.09L517.22,287.35L517.97,287.35L518.72,288.09L519.46,288.84L520.21,291.83L520.21,293.32L520.21,295.56L520.21,298.54L520.96,300.03L520.96,303.02L520.96,303.77L520.96,304.51L521.7,304.51L523.2,304.51L527.67,303.02L531.41,302.27L535.14,303.02L539.62,303.02L542.6,303.02L543.35,303.77" fill="none" stroke="#000000" style="-webkit-tap-highlight-color: rgba(0, 0, 0, 0); stroke-linecap: round; stroke-linejoin: round; stroke-width: 5;" /><path d="M517.97,291.83L517.97,291.08L518.72,290.33L520.21,290.33L523.2,290.33L527.67,290.33L530.66,290.33L532.9,291.08L534.39,291.08L535.14,291.08L536.63,292.57L536.63,293.32L536.63,294.06L536.63,296.3L535.88,298.54L535.14,300.78L535.14,303.02L535.14,304.51L535.88,306.75" fill="none" stroke="#000000" style="-webkit-tap-highlight-color: rgba(0, 0, 0, 0); stroke-linecap: round; stroke-linejoin: round; stroke-width: 5;" /><path d="M367.21,264.96L366.46,266.45L365.71,268.69L365.71,270.93L364.97,276.9L364.97,279.88L364.97,284.36L364.97,288.09L364.22,294.06L364.22,298.54L364.97,302.27L364.97,306.75L365.71,310.48L364.97,316.45L364.97,320.19L364.97,324.66L364.97,328.4L364.97,333.62L364.97,338.1L365.71,341.08L366.46,344.82L366.46,348.55L367.21,352.28L368.7,358.25L369.45,360.49L370.19,363.48L370.94,366.46L371.69,371.69L371.69,374.67L371.69,378.4L371.69,382.13L371.69,386.61L371.69,391.84L370.94,395.57L369.45,402.29L369.45,403.78L368.7,407.51L368.7,409.75L367.95,411.99L367.95,414.23L367.95,416.47L367.95,419.45L367.95,421.69L367.95,422.44L367.95,423.93L367.95,424.68L367.95,425.42L367.95,427.66L367.95,429.15L367.95,429.9L367.95,431.39L367.95,432.89L367.95,433.63L367.95,434.38L367.95,435.13L367.95,435.87L368.7,437.36L368.7,438.86L368.7,440.35L368.7,441.1L368.7,442.59L369.45,443.34L370.19,444.83L370.94,447.07L371.69,448.56L371.69,450.05L372.43,452.29L373.18,455.28L373.18,457.52L373.92,459.76L373.92,463.49L373.92,466.47L373.92,470.2L373.18,473.19L373.18,476.17L372.43,479.16L372.43,479.91" fill="none" stroke="#000000" style="-webkit-tap-highlight-color: rgba(0, 0, 0, 0); stroke-linecap: round; stroke-linejoin: round; stroke-width: 5;" /><path d="M247.04,250.03L247.04,252.27L247.04,253.76L246.3,256L245.55,258.24L245.55,260.48L246.3,263.46L247.04,267.94L247.79,272.42L249.28,276.15L249.28,279.14L249.28,284.36L250.03,288.09L250.03,292.57L250.03,295.56L250.03,299.29L250.78,303.77L250.03,310.48L249.28,314.22L249.28,317.95L248.54,323.17L248.54,326.9L248.54,330.64L248.54,334.37L248.54,338.85L248.54,342.58L247.79,347.06L247.79,350.04L247.79,353.03L248.54,356.76L247.79,359L247.79,362.73L247.04,364.97L247.04,368.7L247.04,371.69L246.3,373.92L246.3,375.42L246.3,377.66L246.3,379.15L247.04,380.64L247.04,381.39L247.04,382.88L247.04,384.37L247.04,385.12L247.04,386.61L247.04,388.1L247.04,390.34L247.04,391.84L247.79,394.08L247.79,395.57L247.79,398.55L247.79,402.29L247.04,405.27L246.3,407.51L246.3,410.5L245.55,414.97L244.8,417.96L245.55,420.2L245.55,422.44L245.55,423.93L246.3,426.17L246.3,426.92L246.3,427.66L247.04,428.41L247.04,429.15L247.79,429.9L249.28,430.65L251.52,431.39L255.25,432.89L256,433.63L258.24,434.38" fill="none" stroke="#000000" style="-webkit-tap-highlight-color: rgba(0, 0, 0, 0); stroke-linecap: round; stroke-linejoin: round; stroke-width: 5;" /><path d="M194.8,342.58L194.8,343.32L196.29,347.06L196.29,350.04L196.29,353.77L196.29,358.25L196.29,364.97L196.29,369.45L196.29,373.92L196.29,377.66L195.55,381.39L195.55,387.36L195.55,390.34L196.29,392.58L196.29,394.82L197.04,397.81L197.04,399.3L197.04,401.54L197.04,403.03L197.04,404.52L197.78,406.02L197.78,406.76L198.53,407.51L198.53,408.26L198.53,409.75L198.53,410.5L198.53,411.24L197.78,414.23L197.04,414.97L197.04,416.47L195.55,417.96L194.05,420.2L193.31,421.69L191.07,423.18L188.83,423.93L187.34,426.17L185.1,427.66L182.86,429.9L179.87,431.39L178.38,432.89L176.14,433.63L173.9,434.38L170.92,435.87L169.42,437.36L167.93,438.86L166.44,439.6L165.69,440.35L163.45,441.84L161.96,442.59L160.47,444.08L159.72,444.83L159.72,445.57L158.97,447.81" fill="none" stroke="#000000" style="-webkit-tap-highlight-color: rgba(0, 0, 0, 0); stroke-linecap: round; stroke-linejoin: round; stroke-width: 5;" /><path d="M11.94,444.08L9.7,444.83L8.96,444.83L8.96,445.57L10.45,447.07L11.2,447.07L12.69,447.81L14.93,447.81L17.17,447.81L20.9,447.07L25.38,446.32L33.59,445.57L40.3,444.83L55.98,441.84L60.45,441.1L64.93,440.35L79.86,438.11L89.56,438.11L99.27,438.86L108.97,440.35L122.4,442.59L129.12,443.34L135.09,444.83L140.31,445.57L144.79,446.32L150.02,447.07L158.23,447.81L164.2,447.81L169.42,447.07L176.14,446.32L180.62,446.32L185.84,446.32L191.07,446.32L197.04,447.81L203.01,447.81L211.22,449.31L217.19,449.31L222.41,450.05L231.37,450.8L236.59,452.29L242.57,453.78L248.54,454.53L254.51,455.28L259.73,456.02L266.45,456.77L272.42,457.52L278.39,458.26L283.62,458.26L291.83,459.76L297.05,460.5L301.53,461.25L306.01,461.99L310.48,463.49L316.45,464.98L320.93,466.47L323.92,467.22L327.65,469.46L332.13,471.7L335.11,472.44L338.1,473.94L341.08,474.68L344.07,476.17L350.79,479.16L352.28,479.91L356.01,481.4L361.24,483.64L364.97,484.38L367.95,485.88L371.69,487.37L374.67,488.86L378.4,489.61L382.88,492.59L385.87,494.83L388.1,497.82L392.58,501.55L396.31,504.54L399.3,506.03L402.29,508.27L404.52,511.25L406.76,514.99L409.75,519.46L411.99,522.45L413.48,524.69L415.72,526.18" fill="none" stroke="#000000" style="-webkit-tap-highlight-color: rgba(0, 0, 0, 0); stroke-linecap: round; stroke-linejoin: round; stroke-width: 5;" /><path d="M464.23,506.03L463.49,505.28L461.99,504.54L461.25,503.79L461.25,503.04L461.25,501.55L462.74,500.06L464.98,499.31L468.71,498.57L473.19,497.82L482.15,498.57L490.36,500.06L498.57,501.55L507.52,503.79L514.99,506.03L524.69,509.01L530.66,510.51L535.88,511.25L541.85,512.75L552.3,514.99L560.51,516.48L568.72,518.72L576.19,519.46L583.65,522.45L594.85,525.43L600.82,528.42L606.79,529.91L612.01,530.66L618.73,532.9L623.21,535.14L628.43,537.38L633.66,539.62L638.88,541.11L645.6,542.6L654.55,544.09L660.52,545.59L665.75,548.57L674.71,551.56L680.68,553.05L687.39,555.29L692.62,556.78L698.59,559.02L703.81,561.26L712.77,563.5L718.74,564.24L731.43,565.74L734.41,565.74L740.38,565.74L746.36,565.74L753.07,565.74L759.79,565.74L770.24,564.24L776.96,564.24L782.93,563.5L788.9,564.24L797.11,564.24L803.08,563.5L809.05,563.5L815.02,563.5L820.24,562.75L825.47,562.75L833.68,562.75L838.9,562.01L844.87,562.01L853.08,561.26L856.82,561.26L861.29,560.51L866.52,560.51L871.74,560.51L876.97,560.51L885.18,560.51L889.66,559.77L894.13,559.77L900.85,559.77L905.33,559.77L909.81,559.77L915.03,559.77L919.51,559.77L923.99,559.77L930.71,559.77L935.18,560.51L939.66,560.51L947.13,561.26L952.35,560.51L956.83,560.51L961.31,560.51L966.53,560.51L971.01,560.51L979.22,561.26L985.19,560.51L991.16,559.77L997.13,559.77L1006.83,558.27L1012.8,558.27L1018.78,557.53" fill="none" stroke="#000000" style="-webkit-tap-highlight-color: rgba(0, 0, 0, 0); stroke-linecap: round; stroke-linejoin: round; stroke-width: 5;" /><path d="M390.34,404.52L391.09,403.78L391.84,403.78L393.33,405.27L394.82,405.27L395.57,406.02L395.57,407.51L395.57,409L395.57,409.75L395.57,411.24L395.57,414.23L394.82,417.21L394.82,420.2L394.82,422.44L394.08,423.93L394.82,427.66L394.82,430.65L394.82,432.89L394.82,435.87L394.82,438.86L394.82,441.1L394.82,443.34L394.82,445.57L394.82,447.81L394.82,450.8L394.82,456.02L394.82,456.77L394.82,459.76L394.82,461.99L395.57,464.98L395.57,465.73L396.31,467.97L397.06,468.71" fill="none" stroke="#000000" style="-webkit-tap-highlight-color: rgba(0, 0, 0, 0); stroke-linecap: round; stroke-linejoin: round; stroke-width: 5;" /><path d="M388.1,459.01L388.85,459.01L389.6,459.01L389.6,458.26L390.34,459.01L390.34,459.76L390.34,461.99L389.6,464.23L388.1,466.47L385.12,468.71L382.88,469.46L380.64,470.95L375.42,473.94L373.92,474.68L371.69,476.92L370.94,478.41L370.19,479.91L369.45,482.15L368.7,485.13L368.7,487.37L368.7,489.61L368.7,492.59L369.45,494.83" fill="none" stroke="#000000" style="-webkit-tap-highlight-color: rgba(0, 0, 0, 0); stroke-linecap: round; stroke-linejoin: round; stroke-width: 5;" /><path d="M416.47,465.73L415.72,463.49L415.72,462.74L416.47,461.99L417.21,461.99L417.96,463.49L417.96,464.23L417.96,467.22L417.96,469.46L418.71,471.7L418.71,473.94L420.2,476.17L420.94,478.41L423.18,480.65L425.42,483.64L428.41,485.13L432.14,488.12L439.6,491.85L444.08,494.83L447.81,497.07L452.29,499.31L456.02,500.8L458.26,502.3L461.25,503.79L464.98,506.03L467.22,507.52" fill="none" stroke="#000000" style="-webkit-tap-highlight-color: rgba(0, 0, 0, 0); stroke-linecap: round; stroke-linejoin: round; stroke-width: 5;" /><path d="M402.29,514.24L402.29,513.49L402.29,514.24L400.05,514.99L398.55,517.97L395.57,519.46L388.85,524.69L383.63,527.67L379.15,529.91L374.67,532.9L367.21,536.63L361.98,538.87L356.76,541.11L352.28,543.35L344.07,546.33L338.1,547.83L332.87,549.32L327.65,550.06L322.43,550.81L314.22,551.56L308.24,551.56L301.53,550.81L295.56,550.06L288.84,549.32L276.9,547.83L267.94,547.08L257.49,545.59L247.04,544.09L232.12,541.85L222.41,541.11L213.46,540.36L204.5,540.36L195.55,540.36L182.11,539.62L173.15,539.62L164.2,539.62L155.24,539.62L141.06,540.36L132.85,541.11L124.64,541.11L116.43,541.85L108.22,541.85L97.77,542.6L91.8,542.6L85.08,543.35L79.86,543.35L72.4,543.35L67.92,544.09L63.44,544.09L59.71,544.84L55.98,545.59L50.75,545.59L47.02,546.33L44.03,546.33L40.3,547.08L36.57,547.83L33.59,548.57L31.35,549.32L29.11,550.81L26.87,552.3L23.88,554.54L21.64,556.78L19.41,559.77L16.42,563.5L13.43,566.48L9.7,572.45L7.46,577.68L7.46,579.17" fill="none" stroke="#000000" style="-webkit-tap-highlight-color: rgba(0, 0, 0, 0); stroke-linecap: round; stroke-linejoin: round; stroke-width: 5;" /></svg>