<?xml version="1.0" encoding="utf-8" ?>
<svg baseProfile="full" height="1385" version="1.1" width="1024" xmlns="http://www.w3.org/2000/svg" xmlns:ev="http://www.w3.org/2001/xml-events" xmlns:xlink="http://www.w3.org/1999/xlink"><defs /><path d="M226.87,257.86L224.39,257.86L221.91,260.34L224.39,262.82L226.87,265.3L231.83,270.26L236.78,272.74L239.26,275.22L244.22,277.69L246.7,280.17L249.18,285.13L251.66,290.09L254.14,292.57L256.62,297.53L259.1,302.49L261.58,304.97L264.06,309.93L264.06,317.37L266.54,322.32L269.02,324.8L269.02,329.76L269.02,334.72L269.02,339.68L269.02,347.12L269.02,352.08L269.02,359.52L269.02,364.47L269.02,371.91L269.02,376.87L269.02,381.83L269.02,389.27L269.02,394.23L266.54,401.67L264.06,414.06L264.06,421.5L264.06,428.94L264.06,436.38L264.06,443.82L264.06,451.25L261.58,458.69L261.58,466.13L261.58,473.57L261.58,481.01L259.1,490.92L259.1,498.36L259.1,508.28L256.62,515.72L256.62,523.16L256.62,530.6L256.62,540.51L256.62,547.95L256.62,557.87L256.62,567.79L256.62,577.7L256.62,585.14L256.62,592.58L256.62,600.02L256.62,607.46L256.62,614.9L256.62,619.85L256.62,627.29L256.62,632.25L256.62,639.69L256.62,644.65L256.62,649.61L256.62,654.57L256.62,659.53L256.62,666.96L256.62,671.92L256.62,676.88L254.14,684.32L254.14,689.28L254.14,696.72L251.66,704.15L251.66,711.59L251.66,716.55L251.66,723.99L251.66,733.91L251.66,743.83L251.66,753.74L249.18,763.66L246.7,771.1L246.7,776.06L246.7,778.54L249.18,778.54" fill="none" stroke="#000000" style="-webkit-tap-highlight-color: rgba(0, 0, 0, 0); stroke-linecap: round; stroke-linejoin: round; stroke-width: 6;" /><path d="M417.78,265.3L415.3,265.3L415.3,267.78L417.78,270.26L420.26,272.74L420.26,277.69L420.26,282.65L417.78,287.61L415.3,295.05L412.82,300.01L410.34,304.97L407.86,309.93L405.38,314.89L402.91,319.85L397.95,322.32L395.47,327.28L390.51,329.76L388.03,332.24L388.03,334.72L385.55,337.2L385.55,339.68L383.07,342.16L380.59,347.12L378.11,354.56L378.11,359.52L378.11,364.47L375.63,369.43L375.63,374.39L375.63,379.35L373.15,386.79L373.15,391.75L373.15,401.67L373.15,409.1L373.15,416.54L373.15,423.98L373.15,431.42L373.15,438.86L373.15,446.3L373.15,456.21L373.15,463.65L373.15,471.09L373.15,478.53L373.15,485.97L373.15,493.4L373.15,503.32L373.15,510.76L373.15,520.68L373.15,530.6L373.15,538.03L373.15,547.95L373.15,557.87L373.15,567.79L373.15,577.7L373.15,585.14L373.15,592.58L373.15,600.02L373.15,609.94L373.15,619.85L373.15,629.77L373.15,637.21L373.15,644.65L373.15,654.57L373.15,662L373.15,669.44L373.15,676.88L373.15,684.32L373.15,691.76L373.15,699.2L373.15,704.15L373.15,709.11L373.15,714.07L373.15,719.03L373.15,726.47L373.15,733.91L373.15,741.35L373.15,748.78L373.15,756.22L373.15,766.14L373.15,771.1L373.15,773.58L373.15,776.06L373.15,783.5L375.63,795.89L378.11,800.85" fill="none" stroke="#000000" style="-webkit-tap-highlight-color: rgba(0, 0, 0, 0); stroke-linecap: round; stroke-linejoin: round; stroke-width: 6;" /><path d="M757.46,267.78L757.46,265.3L757.46,272.74L757.46,275.22L754.98,280.17L754.98,285.13L754.98,292.57L754.98,297.53L754.98,300.01L757.46,304.97L762.42,307.45L764.9,312.41L769.86,314.89L772.34,319.85L774.82,322.32L774.82,324.8L777.3,324.8L777.3,329.76L779.78,332.24L779.78,337.2L779.78,342.16L779.78,347.12L779.78,354.56L782.26,359.52L782.26,366.95L782.26,374.39L782.26,379.35L782.26,386.79L782.26,394.23L782.26,401.67L782.26,406.62L782.26,414.06L782.26,421.5L779.78,428.94L779.78,436.38L779.78,443.82L779.78,451.25L779.78,458.69L779.78,466.13L777.3,473.57L777.3,483.49L777.3,493.4L777.3,500.84L777.3,510.76L777.3,520.68L777.3,530.6L777.3,540.51L777.3,550.43L777.3,562.83L777.3,572.75L777.3,582.66L777.3,590.1L777.3,597.54L777.3,607.46L777.3,617.38L774.82,624.81L774.82,632.25L774.82,639.69L774.82,647.13L774.82,654.57L777.3,664.48L777.3,676.88L777.3,684.32L777.3,694.24L777.3,701.68L779.78,711.59L779.78,721.51L779.78,731.43L782.26,743.83L782.26,751.26L782.26,758.7L782.26,766.14L784.74,776.06L784.74,783.5L784.74,788.46L784.74,793.41L784.74,795.89L784.74,800.85L784.74,805.81L782.26,813.25L782.26,820.69L782.26,825.65L782.26,833.08L782.26,840.52L782.26,850.44L782.26,857.88L782.26,862.84L782.26,867.8L782.26,872.76L782.26,880.19L779.78,887.63L779.78,892.59L779.78,895.07L779.78,897.55L779.78,902.51L779.78,912.43L779.78,922.34L777.3,932.26L777.3,937.22L777.3,942.18L777.3,944.66L779.78,944.66L779.78,947.14L777.3,947.14" fill="none" stroke="#000000" style="-webkit-tap-highlight-color: rgba(0, 0, 0, 0); stroke-linecap: round; stroke-linejoin: round; stroke-width: 6;" /><path d="M933.5,225.63L933.5,223.15L933.5,220.67L935.98,220.67L935.98,223.15L935.98,225.63L933.5,228.11L933.5,235.54L933.5,242.98L931.02,250.42L931.02,257.86L928.54,262.82L926.06,267.78L923.58,270.26L918.62,277.69L916.15,285.13L913.67,290.09L911.19,295.05L908.71,300.01L908.71,307.45L906.23,312.41L903.75,317.37L903.75,322.32L901.27,327.28L898.79,332.24L896.31,339.68L896.31,344.64L896.31,352.08L893.83,357.04L893.83,364.47L893.83,369.43L893.83,376.87L893.83,379.35L893.83,384.31L893.83,391.75L893.83,396.71L893.83,406.62L893.83,416.54L893.83,423.98L896.31,433.9L896.31,441.34L896.31,451.25L896.31,463.65L896.31,473.57L896.31,483.49L896.31,495.88L896.31,505.8L896.31,518.2L896.31,525.64L896.31,538.03L896.31,547.95L896.31,557.87L896.31,570.27L896.31,580.18L896.31,587.62L896.31,595.06L896.31,602.5L896.31,612.42L896.31,622.33L896.31,632.25L896.31,639.69L896.31,647.13L896.31,657.05L898.79,662L898.79,669.44L898.79,676.88L898.79,684.32L898.79,689.28L898.79,696.72L898.79,704.15L898.79,709.11L901.27,714.07L901.27,721.51L901.27,728.95L901.27,738.87L901.27,743.83L901.27,748.78L901.27,756.22L901.27,766.14L901.27,773.58L901.27,781.02L901.27,790.93L901.27,798.37L901.27,805.81L901.27,813.25L898.79,820.69L898.79,828.13L898.79,835.56L898.79,840.52L898.79,845.48L898.79,852.92L898.79,862.84L898.79,867.8L898.79,872.76L898.79,875.23L898.79,880.19L898.79,887.63L901.27,897.55L901.27,902.51L901.27,907.47L901.27,912.43L901.27,917.38L901.27,924.82L901.27,929.78L901.27,932.26L901.27,934.74L901.27,942.18L901.27,949.62L898.79,959.54L898.79,966.97L898.79,971.93L898.79,974.41L901.27,966.97" fill="none" stroke="#000000" style="-webkit-tap-highlight-color: rgba(0, 0, 0, 0); stroke-linecap: round; stroke-linejoin: round; stroke-width: 6;" /><path d="M221.91,255.38L221.91,252.9L219.43,252.9L219.43,245.46L216.95,235.54L214.47,230.59L214.47,225.63L216.95,220.67L216.95,218.19L216.95,215.71L219.43,215.71L221.91,215.71L224.39,215.71L226.87,215.71L231.83,215.71L234.31,215.71L239.26,218.19L244.22,218.19L249.18,218.19L256.62,218.19L261.58,218.19L266.54,220.67L271.5,223.15L276.46,223.15L281.41,223.15L283.89,223.15L288.85,223.15L291.33,223.15L296.29,223.15L301.25,220.67L303.73,218.19L306.21,218.19L308.69,218.19L311.17,215.71L313.65,215.71L313.65,213.23L316.13,208.27L316.13,203.31L318.61,200.83L318.61,195.87L318.61,188.44L321.08,181L321.08,173.56L321.08,166.12L321.08,163.64L321.08,161.16L321.08,156.2L321.08,153.72L321.08,148.77L321.08,143.81L323.56,138.85L326.04,133.89L328.52,128.93L331,126.45L333.48,123.97L335.96,123.97L338.44,123.97L340.92,123.97L343.4,121.49L348.36,121.49L350.84,121.49L355.8,121.49L358.28,123.97L360.76,123.97L365.71,123.97L370.67,123.97L375.63,121.49L380.59,121.49L383.07,121.49L388.03,121.49L392.99,121.49L400.43,121.49L405.38,121.49L407.86,121.49L412.82,121.49L415.3,121.49L420.26,121.49L425.22,121.49L430.18,121.49L435.14,121.49L440.1,121.49L445.06,121.49L450.01,121.49L452.49,121.49L457.45,121.49L462.41,121.49L464.89,119.01L469.85,119.01L472.33,119.01L474.81,119.01L479.77,119.01L482.25,119.01L487.21,119.01L492.16,119.01L494.64,121.49L502.08,121.49L507.04,121.49L514.48,119.01L519.44,119.01L521.92,119.01L526.88,119.01L531.84,119.01L539.27,119.01L544.23,119.01L546.71,119.01L551.67,119.01L556.63,119.01L561.59,116.53L566.55,116.53L571.51,116.53L576.46,114.05L581.42,114.05L586.38,114.05L591.34,111.57L596.3,111.57L601.26,111.57L606.22,111.57L613.66,109.09L618.62,109.09L623.57,109.09L628.53,106.62L631.01,106.62L635.97,106.62L640.93,106.62L645.89,106.62L650.85,106.62L655.81,106.62L660.77,106.62L665.72,106.62L670.68,106.62L678.12,106.62L683.08,106.62L685.56,106.62L688.04,106.62L693,106.62L697.96,106.62L702.92,106.62L707.87,109.09L712.83,109.09L717.79,109.09L720.27,109.09L725.23,111.57L730.19,111.57L735.15,111.57L740.11,111.57L742.59,114.05L747.54,114.05L750.02,114.05L752.5,114.05L754.98,114.05L757.46,114.05L762.42,116.53L764.9,116.53L767.38,116.53L769.86,116.53L772.34,119.01L774.82,119.01L779.78,119.01L782.26,119.01L784.74,121.49L787.22,121.49L792.17,123.97L794.65,123.97L797.13,123.97L799.61,123.97L802.09,123.97L804.57,126.45L807.05,126.45L809.53,126.45L812.01,126.45L816.97,128.93L819.45,128.93L821.93,128.93L824.41,131.41L824.41,133.89" fill="none" stroke="#000000" style="-webkit-tap-highlight-color: rgba(0, 0, 0, 0); stroke-linecap: round; stroke-linejoin: round; stroke-width: 6;" /><path d="M819.45,128.93L814.49,128.93L816.97,128.93L821.93,128.93L824.41,131.41L831.85,131.41L839.28,131.41L846.72,131.41L851.68,131.41L854.16,131.41L856.64,131.41L859.12,131.41L861.6,131.41L864.08,131.41L864.08,133.89L864.08,138.85L864.08,143.81L864.08,148.77L864.08,153.72L866.56,158.68L866.56,163.64L866.56,171.08L869.04,176.04L869.04,181L869.04,183.48L869.04,188.44L869.04,193.39L869.04,198.35L869.04,203.31L869.04,205.79L869.04,208.27L871.52,210.75L871.52,213.23L874,213.23L878.95,215.71L883.91,215.71L888.87,215.71L891.35,215.71L898.79,215.71L903.75,215.71L908.71,213.23L916.15,213.23L921.1,215.71L926.06,215.71L931.02,215.71L931.02,218.19" fill="none" stroke="#000000" style="-webkit-tap-highlight-color: rgba(0, 0, 0, 0); stroke-linecap: round; stroke-linejoin: round; stroke-width: 6;" /><path d="M415.3,270.26L417.78,270.26L422.74,270.26L427.7,267.78L432.66,267.78L440.1,267.78L445.06,267.78L452.49,267.78L457.45,265.3L462.41,265.3L464.89,265.3L469.85,265.3L474.81,265.3L477.29,265.3L482.25,265.3L484.73,265.3L489.69,262.82L494.64,262.82L499.6,262.82L504.56,260.34L509.52,260.34L516.96,260.34L521.92,260.34L526.88,260.34L531.84,260.34L534.31,260.34L539.27,260.34L541.75,260.34L546.71,260.34L551.67,260.34L554.15,260.34L559.11,260.34L564.07,260.34L569.03,260.34L573.99,260.34L576.46,260.34L581.42,260.34L586.38,260.34L598.78,260.34L603.74,260.34L608.7,260.34L613.66,260.34L618.62,260.34L626.05,260.34L631.01,260.34L635.97,260.34L638.45,260.34L643.41,260.34L648.37,260.34L653.33,260.34L655.81,260.34L660.77,260.34L665.72,260.34L668.2,260.34L673.16,260.34L675.64,260.34L680.6,260.34L685.56,260.34L688.04,257.86L693,257.86L695.48,257.86L700.44,257.86L705.39,257.86L710.35,257.86L715.31,257.86L717.79,257.86L722.75,257.86L725.23,257.86L730.19,257.86L732.67,257.86L737.63,260.34L740.11,260.34L742.59,260.34L745.07,260.34L747.54,260.34L750.02,262.82L752.5,262.82L754.98,262.82L757.46,262.82L759.94,265.3L762.42,265.3L764.9,265.3L767.38,265.3L767.38,267.78" fill="none" stroke="#000000" style="-webkit-tap-highlight-color: rgba(0, 0, 0, 0); stroke-linecap: round; stroke-linejoin: round; stroke-width: 6;" /><path d="M380.59,228.11L383.07,228.11L388.03,228.11L390.51,225.63L400.43,225.63L402.91,225.63L407.86,223.15L410.34,223.15L412.82,223.15L417.78,223.15L420.26,223.15L422.74,225.63L427.7,225.63L432.66,225.63L437.62,225.63L440.1,225.63L447.54,228.11L450.01,228.11L454.97,228.11L459.93,228.11L464.89,228.11L467.37,230.59L469.85,230.59L474.81,230.59L479.77,230.59L484.73,230.59L489.69,230.59L494.64,230.59L499.6,230.59L502.08,230.59L507.04,230.59L512,230.59L516.96,230.59L521.92,230.59L524.4,228.11L529.36,228.11L531.84,228.11L536.79,228.11L541.75,228.11L544.23,228.11L549.19,228.11L551.67,228.11L554.15,228.11L559.11,228.11L564.07,228.11L569.03,228.11L573.99,225.63L578.94,225.63L583.9,225.63L588.86,225.63L593.82,225.63L598.78,225.63L603.74,225.63L608.7,225.63L616.14,225.63L618.62,225.63L623.57,225.63L628.53,225.63L631.01,228.11L635.97,228.11L640.93,228.11L645.89,228.11L650.85,228.11L655.81,228.11L660.77,228.11L665.72,228.11L673.16,228.11L675.64,228.11L680.6,228.11L685.56,228.11L690.52,228.11L695.48,228.11L702.92,228.11L705.39,225.63L710.35,225.63L717.79,228.11L722.75,228.11L727.71,228.11L732.67,228.11L740.11,228.11L745.07,228.11L747.54,228.11L752.5,228.11L754.98,228.11L757.46,228.11L762.42,228.11L764.9,228.11L769.86,228.11L774.82,228.11L779.78,228.11L782.26,228.11L789.69,228.11L792.17,228.11" fill="none" stroke="#000000" style="-webkit-tap-highlight-color: rgba(0, 0, 0, 0); stroke-linecap: round; stroke-linejoin: round; stroke-width: 6;" /><path d="M772.34,240.5L774.82,240.5L777.3,240.5L777.3,242.98L777.3,247.94L777.3,252.9L774.82,257.86L774.82,265.3L774.82,270.26L777.3,275.22L779.78,277.69L779.78,280.17L779.78,285.13L779.78,290.09L779.78,297.53L779.78,302.49L782.26,309.93L782.26,314.89L782.26,324.8L782.26,334.72L782.26,344.64L782.26,354.56L787.22,362" fill="none" stroke="#000000" style="-webkit-tap-highlight-color: rgba(0, 0, 0, 0); stroke-linecap: round; stroke-linejoin: round; stroke-width: 6;" /><path d="M789.69,364.47L787.22,364.47L789.69,364.47L802.09,359.52L819.45,352.08L831.85,352.08L841.76,349.6L849.2,349.6L856.64,349.6L864.08,352.08L869.04,357.04L876.47,362L881.43,364.47L883.91,364.47L888.87,366.95" fill="none" stroke="#000000" style="-webkit-tap-highlight-color: rgba(0, 0, 0, 0); stroke-linecap: round; stroke-linejoin: round; stroke-width: 6;" /><path d="M306.21,218.19L306.21,220.67L306.21,223.15" fill="none" stroke="#000000" style="-webkit-tap-highlight-color: rgba(0, 0, 0, 0); stroke-linecap: round; stroke-linejoin: round; stroke-width: 6;" /><path d="M311.17,223.15L308.69,223.15L308.69,225.63L313.65,228.11L321.08,230.59L331,233.07L340.92,235.54L350.84,235.54L358.28,235.54L365.71,235.54L370.67,235.54L373.15,235.54L373.15,233.07L373.15,230.59L375.63,233.07L380.59,235.54L383.07,238.02L385.55,240.5L388.03,242.98L392.99,245.46L395.47,247.94L400.43,250.42L402.91,250.42L407.86,252.9L410.34,255.38L415.3,257.86L422.74,262.82L425.22,265.3" fill="none" stroke="#000000" style="-webkit-tap-highlight-color: rgba(0, 0, 0, 0); stroke-linecap: round; stroke-linejoin: round; stroke-width: 6;" /><path d="M269.02,357.04L269.02,354.56L271.5,352.08L281.41,352.08L288.85,352.08L301.25,352.08L313.65,352.08L326.04,349.6L335.96,352.08L345.88,357.04L350.84,359.52L355.8,362L360.76,362L368.19,362L370.67,362" fill="none" stroke="#000000" style="-webkit-tap-highlight-color: rgba(0, 0, 0, 0); stroke-linecap: round; stroke-linejoin: round; stroke-width: 6;" /><path d="M787.22,218.19L787.22,220.67L779.78,230.59L764.9,252.9L752.5,267.78L752.5,270.26" fill="none" stroke="#000000" style="-webkit-tap-highlight-color: rgba(0, 0, 0, 0); stroke-linecap: round; stroke-linejoin: round; stroke-width: 6;" /><path d="M797.13,136.37L797.13,128.93L797.13,126.45L799.61,123.97L802.09,126.45L802.09,133.89L799.61,148.77L799.61,168.6L797.13,190.92L799.61,208.27L802.09,220.67L804.57,228.11" fill="none" stroke="#000000" style="-webkit-tap-highlight-color: rgba(0, 0, 0, 0); stroke-linecap: round; stroke-linejoin: round; stroke-width: 6;" /><path d="M298.77,795.89L298.77,798.37L298.77,803.33L296.29,808.29L296.29,815.73L296.29,823.17L296.29,830.61L293.81,838.04L291.33,847.96L286.37,855.4L283.89,865.32L281.41,877.71L278.93,885.15L278.93,892.59L276.46,900.03L276.46,904.99L276.46,909.95L276.46,912.43L276.46,919.86L273.98,929.78L271.5,939.7L271.5,947.14L271.5,952.1L271.5,959.54L271.5,969.45L273.98,979.37L273.98,986.81L276.46,994.25L276.46,999.21L276.46,1006.64L276.46,1011.6L276.46,1019.04L276.46,1028.96L276.46,1036.4L276.46,1043.84L276.46,1051.27L278.93,1061.19L278.93,1071.11L278.93,1083.51L276.46,1098.38L276.46,1110.78L276.46,1123.18L276.46,1130.62L276.46,1133.09" fill="none" stroke="#000000" style="-webkit-tap-highlight-color: rgba(0, 0, 0, 0); stroke-linecap: round; stroke-linejoin: round; stroke-width: 6;" /><path d="M137.61,808.29L135.13,810.77L135.13,813.25L135.13,818.21L135.13,823.17L135.13,833.08L135.13,843L135.13,852.92L135.13,862.84L135.13,875.23L137.61,882.67L140.09,890.11L142.57,897.55L142.57,902.51L142.57,909.95L142.57,917.38L142.57,927.3L142.57,932.26L142.57,939.7L142.57,944.66L142.57,949.62L142.57,957.06L142.57,966.97L142.57,974.41L145.05,981.85L145.05,986.81L145.05,994.25L145.05,1004.16L145.05,1014.08L145.05,1021.52L145.05,1031.44L145.05,1041.36L145.05,1053.75L145.05,1066.15L145.05,1076.07L145.05,1083.51L145.05,1090.94L145.05,1100.86L142.57,1108.3L142.57,1115.74L140.09,1123.18L140.09,1130.62L140.09,1140.53L140.09,1147.97L140.09,1155.41L140.09,1162.85L140.09,1170.29L140.09,1182.68L142.57,1192.6L142.57,1205L142.57,1217.39L145.05,1229.79L145.05,1239.71L147.53,1249.63L150,1254.59L152.48,1257.07L152.48,1254.59" fill="none" stroke="#000000" style="-webkit-tap-highlight-color: rgba(0, 0, 0, 0); stroke-linecap: round; stroke-linejoin: round; stroke-width: 6;" /><path d="M147.53,937.22L152.48,934.74L164.88,932.26L184.72,927.3L192.15,924.82L199.59,924.82L207.03,924.82L214.47,924.82L224.39,924.82L231.83,924.82L241.74,927.3L249.18,929.78L256.62,932.26L261.58,934.74L264.06,934.74L266.54,937.22L269.02,937.22" fill="none" stroke="#000000" style="-webkit-tap-highlight-color: rgba(0, 0, 0, 0); stroke-linecap: round; stroke-linejoin: round; stroke-width: 6;" /><path d="M135.13,800.85L132.65,798.37L132.65,795.89L135.13,795.89L137.61,795.89L142.57,793.41L150,788.46L157.44,785.98L164.88,783.5L172.32,783.5L179.76,783.5L184.72,783.5L194.63,783.5L209.51,783.5L216.95,783.5L224.39,785.98L234.31,788.46L244.22,790.93L254.14,790.93L264.06,793.41L273.98,795.89L281.41,798.37L291.33,803.33L296.29,803.33L301.25,805.81" fill="none" stroke="#000000" style="-webkit-tap-highlight-color: rgba(0, 0, 0, 0); stroke-linecap: round; stroke-linejoin: round; stroke-width: 6;" /><path d="M338.44,957.06L338.44,954.58L335.96,952.1L335.96,949.62L335.96,952.1L333.48,957.06L331,962.01L328.52,971.93L328.52,981.85L328.52,994.25L328.52,1006.64L328.52,1019.04L328.52,1033.92L328.52,1043.84L328.52,1051.27L331,1053.75L333.48,1053.75" fill="none" stroke="#000000" style="-webkit-tap-highlight-color: rgba(0, 0, 0, 0); stroke-linecap: round; stroke-linejoin: round; stroke-width: 6;" /><path d="M350.84,952.1L348.36,952.1L343.4,949.62L343.4,944.66L348.36,944.66L360.76,944.66L370.67,944.66L380.59,944.66L392.99,944.66L400.43,947.14L407.86,947.14L412.82,949.62L417.78,949.62L422.74,949.62L425.22,949.62L427.7,952.1L432.66,952.1L437.62,954.58L440.1,954.58L442.58,957.06L447.54,957.06L450.01,957.06L452.49,959.54L454.97,959.54L457.45,959.54L457.45,962.01L457.45,964.49L457.45,969.45L454.97,976.89L454.97,984.33L454.97,994.25L454.97,1004.16L454.97,1016.56L454.97,1028.96L454.97,1041.36L452.49,1053.75L452.49,1063.67L452.49,1068.63L452.49,1071.11" fill="none" stroke="#000000" style="-webkit-tap-highlight-color: rgba(0, 0, 0, 0); stroke-linecap: round; stroke-linejoin: round; stroke-width: 6;" /><path d="M494.64,984.33L497.12,981.85L497.12,979.37L497.12,976.89L497.12,974.41L494.64,979.37L494.64,986.81L492.16,999.21L492.16,1016.56L492.16,1031.44L492.16,1043.84L492.16,1051.27L492.16,1056.23L492.16,1058.71L492.16,1061.19" fill="none" stroke="#000000" style="-webkit-tap-highlight-color: rgba(0, 0, 0, 0); stroke-linecap: round; stroke-linejoin: round; stroke-width: 6;" /><path d="M509.52,979.37L507.04,979.37L504.56,979.37L502.08,979.37L504.56,976.89L507.04,974.41L509.52,974.41L514.48,974.41L521.92,974.41L531.84,974.41L541.75,974.41L549.19,974.41L556.63,976.89L561.59,976.89L566.55,979.37L571.51,979.37L576.46,979.37L581.42,979.37L586.38,981.85L588.86,981.85L598.78,981.85L601.26,981.85L603.74,981.85L606.22,984.33L608.7,984.33L611.18,986.81L613.66,986.81L613.66,989.29L613.66,994.25L613.66,996.73L611.18,1004.16L611.18,1011.6L608.7,1019.04L608.7,1028.96L606.22,1038.88L606.22,1048.79L606.22,1056.23L606.22,1063.67L603.74,1068.63L603.74,1073.59L603.74,1081.03L603.74,1088.46L603.74,1093.42L601.26,1098.38L601.26,1103.34L601.26,1110.78L601.26,1115.74L601.26,1120.7L601.26,1128.14L601.26,1135.57L601.26,1140.53L601.26,1147.97L601.26,1155.41L601.26,1162.85L601.26,1165.33" fill="none" stroke="#000000" style="-webkit-tap-highlight-color: rgba(0, 0, 0, 0); stroke-linecap: round; stroke-linejoin: round; stroke-width: 6;" /><path d="M291.33,1061.19L288.85,1058.71L288.85,1056.23L286.37,1056.23L288.85,1056.23L291.33,1053.75L296.29,1053.75L301.25,1053.75L308.69,1053.75L316.13,1053.75L323.56,1053.75L328.52,1053.75L333.48,1053.75L338.44,1053.75L343.4,1053.75L348.36,1053.75L355.8,1053.75L363.23,1053.75L368.19,1053.75L375.63,1053.75L380.59,1053.75L388.03,1053.75L397.95,1051.27L402.91,1051.27L407.86,1051.27L410.34,1051.27L412.82,1051.27L412.82,1053.75L415.3,1056.23L415.3,1058.71L417.78,1061.19L417.78,1066.15L417.78,1068.63L417.78,1071.11L420.26,1076.07L420.26,1081.03L420.26,1085.99L420.26,1090.94L420.26,1095.9L420.26,1103.34L420.26,1110.78L420.26,1118.22L420.26,1128.14L420.26,1138.05L420.26,1147.97L420.26,1157.89L417.78,1165.33L415.3,1172.77L415.3,1177.72L415.3,1175.24" fill="none" stroke="#000000" style="-webkit-tap-highlight-color: rgba(0, 0, 0, 0); stroke-linecap: round; stroke-linejoin: round; stroke-width: 6;" /><path d="M435.14,1061.19L432.66,1058.71L427.7,1058.71L422.74,1058.71L420.26,1056.23L420.26,1053.75L417.78,1053.75L415.3,1053.75L415.3,1056.23L417.78,1056.23L420.26,1056.23L425.22,1056.23L430.18,1058.71L437.62,1058.71L445.06,1058.71L454.97,1061.19L462.41,1061.19L472.33,1061.19L479.77,1061.19L484.73,1063.67L489.69,1063.67L497.12,1063.67L502.08,1063.67L509.52,1063.67L519.44,1066.15L521.92,1066.15L526.88,1066.15L531.84,1066.15L534.31,1066.15L536.79,1066.15L541.75,1066.15L544.23,1066.15L549.19,1066.15L551.67,1066.15L556.63,1066.15L559.11,1066.15L561.59,1068.63L561.59,1071.11L561.59,1073.59L561.59,1078.55L561.59,1083.51L559.11,1090.94L559.11,1098.38L556.63,1105.82L556.63,1115.74L554.15,1123.18L554.15,1130.62L554.15,1138.05L554.15,1145.49L554.15,1155.41L554.15,1162.85L554.15,1170.29L554.15,1177.72L554.15,1185.16L554.15,1190.12L554.15,1197.56L554.15,1205L556.63,1209.96L556.63,1217.39L556.63,1222.35L556.63,1227.31L556.63,1234.75L556.63,1244.67L556.63,1252.11L554.15,1259.54L551.67,1269.46L551.67,1274.42L551.67,1276.9" fill="none" stroke="#000000" style="-webkit-tap-highlight-color: rgba(0, 0, 0, 0); stroke-linecap: round; stroke-linejoin: round; stroke-width: 6;" /><path d="M179.76,1257.07L177.28,1254.59L174.8,1254.59L177.28,1254.59L182.24,1254.59L187.2,1254.59L192.15,1257.07L199.59,1259.54L204.55,1259.54L214.47,1259.54L221.91,1259.54L231.83,1259.54L239.26,1259.54L244.22,1259.54L249.18,1262.02L256.62,1262.02L261.58,1262.02L269.02,1262.02L273.98,1264.5L281.41,1264.5L288.85,1266.98L296.29,1266.98L303.73,1266.98L311.17,1266.98L316.13,1269.46L323.56,1269.46L331,1269.46L338.44,1269.46L345.88,1269.46L353.32,1269.46L358.28,1269.46L363.23,1269.46L368.19,1269.46L373.15,1269.46L378.11,1269.46L383.07,1269.46L388.03,1269.46L392.99,1269.46L400.43,1269.46L405.38,1269.46L410.34,1269.46L415.3,1269.46L420.26,1269.46L425.22,1269.46L430.18,1269.46L435.14,1271.94L440.1,1271.94L447.54,1271.94L454.97,1271.94L462.41,1269.46L467.37,1269.46L472.33,1269.46L477.29,1271.94L482.25,1271.94L487.21,1271.94L492.16,1271.94L497.12,1274.42L504.56,1274.42L509.52,1274.42L516.96,1274.42L524.4,1274.42L531.84,1274.42L539.27,1274.42L549.19,1274.42" fill="none" stroke="#000000" style="-webkit-tap-highlight-color: rgba(0, 0, 0, 0); stroke-linecap: round; stroke-linejoin: round; stroke-width: 6;" /><path d="M283.89,1147.97L283.89,1145.49L281.41,1143.01L281.41,1138.05L283.89,1138.05L283.89,1140.53L283.89,1145.49L283.89,1150.45L281.41,1155.41L281.41,1162.85L281.41,1167.81L281.41,1175.24L281.41,1182.68L278.93,1187.64L278.93,1192.6L278.93,1200.04L278.93,1207.48L278.93,1217.39L276.46,1224.83L276.46,1232.27L276.46,1239.71L276.46,1247.15L273.98,1257.07L273.98,1264.5L273.98,1266.98" fill="none" stroke="#000000" style="-webkit-tap-highlight-color: rgba(0, 0, 0, 0); stroke-linecap: round; stroke-linejoin: round; stroke-width: 6;" /><path d="M286.37,1160.37L288.85,1157.89L301.25,1157.89L313.65,1162.85L321.08,1162.85L331,1162.85L338.44,1162.85L353.32,1162.85L358.28,1165.33L363.23,1165.33L368.19,1165.33L373.15,1167.81L380.59,1167.81L385.55,1170.29L390.51,1172.77L395.47,1172.77L402.91,1172.77L405.38,1172.77L410.34,1175.24L415.3,1175.24L417.78,1175.24L422.74,1175.24L425.22,1175.24L430.18,1175.24L432.66,1175.24L435.14,1175.24L440.1,1175.24L442.58,1175.24L445.06,1175.24L447.54,1175.24L452.49,1175.24L459.93,1177.72" fill="none" stroke="#000000" style="-webkit-tap-highlight-color: rgba(0, 0, 0, 0); stroke-linecap: round; stroke-linejoin: round; stroke-width: 6;" /><path d="M177.28,1128.14L172.32,1128.14L174.8,1125.66L177.28,1125.66L182.24,1125.66L187.2,1125.66L194.63,1125.66L202.07,1128.14L211.99,1128.14L221.91,1128.14L229.35,1128.14L236.78,1130.62L244.22,1133.09L249.18,1135.57L256.62,1138.05L264.06,1140.53L271.5,1140.53L276.46,1140.53L278.93,1140.53" fill="none" stroke="#000000" style="-webkit-tap-highlight-color: rgba(0, 0, 0, 0); stroke-linecap: round; stroke-linejoin: round; stroke-width: 6;" /><path d="M174.8,1138.05L174.8,1135.57L174.8,1140.53L174.8,1143.01L172.32,1150.45L169.84,1157.89L169.84,1165.33L167.36,1172.77L167.36,1182.68L167.36,1190.12L167.36,1200.04L164.88,1209.96L164.88,1219.87L162.4,1232.27L162.4,1244.67L162.4,1254.59L162.4,1262.02L162.4,1264.5L164.88,1264.5" fill="none" stroke="#000000" style="-webkit-tap-highlight-color: rgba(0, 0, 0, 0); stroke-linecap: round; stroke-linejoin: round; stroke-width: 6;" /><path d="M635.97,932.26L633.49,929.78L633.49,927.3L631.01,927.3L631.01,924.82L631.01,929.78L631.01,934.74L628.53,939.7L628.53,949.62L628.53,957.06L628.53,964.49L628.53,974.41L628.53,981.85L628.53,989.29L628.53,999.21L628.53,1006.64L628.53,1014.08L628.53,1021.52L628.53,1028.96L628.53,1038.88L628.53,1046.31L628.53,1053.75L628.53,1061.19L628.53,1068.63L628.53,1076.07L628.53,1085.99L631.01,1093.42L631.01,1100.86L631.01,1113.26L631.01,1125.66L633.49,1135.57L633.49,1145.49L633.49,1155.41L633.49,1160.37L633.49,1167.81L633.49,1170.29L635.97,1172.77" fill="none" stroke="#000000" style="-webkit-tap-highlight-color: rgba(0, 0, 0, 0); stroke-linecap: round; stroke-linejoin: round; stroke-width: 6;" /><path d="M623.57,934.74L623.57,932.26L628.53,929.78L635.97,929.78L645.89,929.78L655.81,929.78L665.72,929.78L673.16,929.78L680.6,927.3L688.04,927.3L695.48,927.3L700.44,927.3L707.87,927.3L712.83,927.3L717.79,929.78L722.75,929.78L727.71,929.78L730.19,932.26L732.67,932.26L735.15,934.74L737.63,934.74L740.11,937.22L740.11,939.7L740.11,942.18L742.59,942.18L742.59,944.66L742.59,949.62L742.59,957.06L742.59,964.49L742.59,971.93L742.59,976.89L742.59,986.81L742.59,994.25L740.11,1004.16L740.11,1011.6L740.11,1019.04L740.11,1026.48L740.11,1033.92L742.59,1041.36L742.59,1048.79L742.59,1056.23L742.59,1063.67L742.59,1071.11L742.59,1076.07L745.07,1083.51L745.07,1085.99L745.07,1090.94" fill="none" stroke="#000000" style="-webkit-tap-highlight-color: rgba(0, 0, 0, 0); stroke-linecap: round; stroke-linejoin: round; stroke-width: 6;" /><path d="M638.45,1048.79L638.45,1046.31L640.93,1043.84L645.89,1038.88L655.81,1033.92L665.72,1031.44L680.6,1026.48L695.48,1024L710.35,1021.52L720.27,1021.52L730.19,1024L735.15,1024L737.63,1026.48L742.59,1026.48L745.07,1028.96" fill="none" stroke="#000000" style="-webkit-tap-highlight-color: rgba(0, 0, 0, 0); stroke-linecap: round; stroke-linejoin: round; stroke-width: 6;" /><path d="M655.81,1090.94L653.33,1090.94L650.85,1088.46L650.85,1085.99L650.85,1083.51L655.81,1081.03L660.77,1081.03L668.2,1081.03L675.64,1081.03L680.6,1081.03L688.04,1081.03L695.48,1081.03L700.44,1081.03L707.87,1083.51L715.31,1083.51L722.75,1083.51L727.71,1085.99L732.67,1085.99L737.63,1088.46L745.07,1088.46L750.02,1088.46L752.5,1088.46L754.98,1088.46L757.46,1090.94L759.94,1090.94L762.42,1090.94L764.9,1090.94L767.38,1093.42L769.86,1093.42L769.86,1095.9L769.86,1098.38L769.86,1103.34L772.34,1110.78L772.34,1118.22L772.34,1128.14L772.34,1135.57L774.82,1140.53L777.3,1147.97L779.78,1155.41L779.78,1162.85L779.78,1170.29L779.78,1177.72L779.78,1185.16L779.78,1192.6L779.78,1205L779.78,1212.44L779.78,1217.39L779.78,1224.83L779.78,1229.79L779.78,1237.23L779.78,1247.15L779.78,1254.59L779.78,1262.02L779.78,1264.5L779.78,1266.98L782.26,1271.94L782.26,1276.9" fill="none" stroke="#000000" style="-webkit-tap-highlight-color: rgba(0, 0, 0, 0); stroke-linecap: round; stroke-linejoin: round; stroke-width: 6;" /><path d="M658.29,1083.51L655.81,1081.03L653.33,1078.55L653.33,1081.03L650.85,1085.99L650.85,1090.94L648.37,1100.86L645.89,1113.26L645.89,1123.18L645.89,1135.57L645.89,1145.49L645.89,1155.41L645.89,1162.85L645.89,1172.77L643.41,1182.68L640.93,1192.6L640.93,1200.04L640.93,1209.96L640.93,1224.83L638.45,1229.79L638.45,1237.23L638.45,1244.67L638.45,1249.63L638.45,1254.59L638.45,1259.54L638.45,1264.5L638.45,1269.46L638.45,1274.42L638.45,1276.9L638.45,1279.38L638.45,1281.86L640.93,1281.86L645.89,1281.86L650.85,1281.86L658.29,1281.86L663.24,1281.86L670.68,1281.86L675.64,1284.34L683.08,1286.82L688.04,1286.82L695.48,1286.82L700.44,1286.82L705.39,1286.82L712.83,1286.82L717.79,1286.82L722.75,1286.82L730.19,1286.82L735.15,1286.82L742.59,1286.82L750.02,1286.82L754.98,1286.82L759.94,1286.82L764.9,1284.34L774.82,1281.86L779.78,1281.86" fill="none" stroke="#000000" style="-webkit-tap-highlight-color: rgba(0, 0, 0, 0); stroke-linecap: round; stroke-linejoin: round; stroke-width: 6;" /><path d="M794.65,1162.85L792.17,1162.85L789.69,1160.37L787.22,1157.89L787.22,1155.41L789.69,1155.41L792.17,1155.41L794.65,1157.89L799.61,1162.85L807.05,1165.33L814.49,1165.33L819.45,1167.81L824.41,1170.29L829.37,1172.77L834.32,1172.77L841.76,1172.77L846.72,1172.77L854.16,1172.77L859.12,1172.77L866.56,1172.77L871.52,1172.77L878.95,1172.77L886.39,1170.29L891.35,1170.29L896.31,1170.29L898.79,1167.81L903.75,1167.81L908.71,1165.33L913.67,1165.33L918.62,1162.85L923.58,1162.85L926.06,1162.85L926.06,1160.37L928.54,1160.37L928.54,1162.85L928.54,1167.81L931.02,1172.77L931.02,1180.2L931.02,1187.64L933.5,1197.56L935.98,1207.48L938.46,1214.92L938.46,1222.35L938.46,1232.27L938.46,1237.23L938.46,1244.67L938.46,1252.11L940.94,1259.54L940.94,1266.98L940.94,1274.42L940.94,1279.38L940.94,1286.82L940.94,1291.78L940.94,1294.26L940.94,1296.74" fill="none" stroke="#000000" style="-webkit-tap-highlight-color: rgba(0, 0, 0, 0); stroke-linecap: round; stroke-linejoin: round; stroke-width: 6;" /><path d="M787.22,1286.82L787.22,1284.34L787.22,1281.86L784.74,1281.86L787.22,1281.86L792.17,1281.86L799.61,1281.86L807.05,1284.34L814.49,1286.82L824.41,1289.3L834.32,1291.78L844.24,1294.26L851.68,1294.26L859.12,1296.74L866.56,1296.74L874,1299.22L883.91,1299.22L893.83,1299.22L903.75,1296.74L911.19,1294.26L918.62,1294.26L926.06,1294.26" fill="none" stroke="#000000" style="-webkit-tap-highlight-color: rgba(0, 0, 0, 0); stroke-linecap: round; stroke-linejoin: round; stroke-width: 6;" /><path d="M784.74,1160.37L784.74,1157.89L784.74,1155.41L789.69,1150.45L792.17,1145.49L799.61,1143.01L807.05,1140.53L816.97,1138.05L829.37,1138.05L841.76,1135.57L851.68,1135.57L861.6,1138.05L869.04,1140.53L878.95,1140.53L886.39,1143.01L898.79,1143.01L906.23,1145.49L913.67,1145.49L918.62,1147.97L918.62,1150.45L921.1,1152.93" fill="none" stroke="#000000" style="-webkit-tap-highlight-color: rgba(0, 0, 0, 0); stroke-linecap: round; stroke-linejoin: round; stroke-width: 6;" /><path d="M782.26,984.33L779.78,984.33L782.26,981.85L789.69,981.85L794.65,981.85L804.57,981.85L814.49,979.37L824.41,976.89L831.85,976.89L839.28,976.89L844.24,976.89L851.68,976.89L861.6,976.89L869.04,974.41L876.47,974.41L881.43,976.89L886.39,976.89L893.83,979.37L901.27,979.37L908.71,979.37L918.62,979.37L926.06,981.85L931.02,981.85L935.98,984.33L938.46,984.33" fill="none" stroke="#000000" style="-webkit-tap-highlight-color: rgba(0, 0, 0, 0); stroke-linecap: round; stroke-linejoin: round; stroke-width: 6;" /><path d="M787.22,1110.78L787.22,1100.86L789.69,1100.86L802.09,1100.86L809.53,1100.86L816.97,1100.86L834.32,1100.86L841.76,1103.34L851.68,1105.82L861.6,1105.82L874,1105.82L883.91,1103.34L891.35,1100.86L901.27,1098.38L908.71,1095.9" fill="none" stroke="#000000" style="-webkit-tap-highlight-color: rgba(0, 0, 0, 0); stroke-linecap: round; stroke-linejoin: round; stroke-width: 6;" /><path d="M21.08,1041.36L18.6,1038.88L16.12,1036.4L18.6,1036.4L23.55,1038.88L40.91,1041.36L60.75,1041.36L68.18,1043.84L75.62,1043.84L88.02,1043.84L97.94,1041.36L105.38,1038.88L112.81,1036.4L117.77,1036.4" fill="none" stroke="#000000" style="-webkit-tap-highlight-color: rgba(0, 0, 0, 0); stroke-linecap: round; stroke-linejoin: round; stroke-width: 6;" /><path d="M35.95,1182.68L33.47,1182.68L30.99,1182.68L30.99,1180.2L28.51,1180.2L33.47,1180.2L40.91,1182.68L50.83,1182.68L60.75,1180.2L70.66,1177.72L75.62,1177.72L80.58,1177.72L80.58,1175.24L83.06,1175.24L83.06,1177.72L83.06,1182.68L83.06,1187.64L80.58,1195.08L78.1,1202.52L75.62,1207.48L75.62,1214.92L73.14,1222.35L73.14,1227.31L70.66,1232.27L68.18,1237.23L63.23,1242.19L60.75,1247.15L55.79,1252.11L53.31,1254.59L53.31,1257.07" fill="none" stroke="#000000" style="-webkit-tap-highlight-color: rgba(0, 0, 0, 0); stroke-linecap: round; stroke-linejoin: round; stroke-width: 6;" /><path d="M68.18,1262.02L65.7,1259.54L63.23,1259.54L63.23,1257.07L70.66,1259.54L83.06,1259.54L100.42,1257.07L112.81,1252.11L125.21,1249.63L137.61,1244.67L152.48,1242.19" fill="none" stroke="#000000" style="-webkit-tap-highlight-color: rgba(0, 0, 0, 0); stroke-linecap: round; stroke-linejoin: round; stroke-width: 6;" /><path d="M21.08,902.51L26.03,902.51L33.47,904.99L43.39,904.99L50.83,904.99L58.27,904.99L63.23,907.47L70.66,907.47L78.1,907.47L85.54,909.95L95.46,909.95L102.9,912.43L110.33,914.91L117.77,917.38L125.21,917.38L130.17,917.38L137.61,917.38L145.05,919.86L147.53,919.86" fill="none" stroke="#000000" style="-webkit-tap-highlight-color: rgba(0, 0, 0, 0); stroke-linecap: round; stroke-linejoin: round; stroke-width: 6;" /><path d="M30.99,790.93L33.47,790.93L40.91,793.41L53.31,790.93L60.75,788.46L68.18,783.5L75.62,778.54L83.06,773.58L88.02,768.62L92.98,766.14L97.94,761.18L102.9,758.7L107.85,756.22L115.29,753.74L122.73,748.78L127.69,746.31L132.65,746.31L137.61,743.83L142.57,743.83L145.05,743.83L150,741.35L152.48,741.35L154.96,741.35L157.44,741.35L159.92,741.35L162.4,741.35L164.88,741.35L169.84,743.83L172.32,743.83L174.8,743.83L177.28,746.31L182.24,746.31L184.72,748.78L189.68,751.26L197.11,756.22L204.55,758.7L211.99,758.7L221.91,761.18L229.35,761.18L239.26,761.18L249.18,763.66L254.14,766.14" fill="none" stroke="#000000" style="-webkit-tap-highlight-color: rgba(0, 0, 0, 0); stroke-linecap: round; stroke-linejoin: round; stroke-width: 6;" /><path d="M375.63,781.02L378.11,778.54L383.07,778.54L385.55,776.06L388.03,776.06L392.99,776.06L400.43,773.58L407.86,773.58L415.3,771.1L420.26,768.62L425.22,768.62L430.18,768.62L435.14,768.62L440.1,768.62L447.54,768.62L452.49,768.62L457.45,768.62L464.89,768.62L469.85,768.62L474.81,771.1L477.29,771.1L482.25,773.58L487.21,773.58L492.16,773.58L497.12,773.58L502.08,776.06L507.04,776.06L514.48,776.06L519.44,776.06L524.4,776.06L529.36,776.06L534.31,773.58L539.27,773.58L546.71,773.58L551.67,773.58L556.63,771.1L561.59,771.1L566.55,768.62L569.03,768.62L573.99,766.14L578.94,766.14L583.9,766.14L588.86,766.14L593.82,766.14L598.78,766.14L601.26,766.14L603.74,763.66L606.22,763.66L608.7,763.66L613.66,763.66L616.14,763.66L618.62,763.66L623.57,763.66L626.05,766.14L631.01,766.14L635.97,766.14L640.93,766.14L643.41,766.14L650.85,766.14L658.29,766.14L663.24,766.14L670.68,766.14L675.64,768.62L680.6,771.1L685.56,771.1L690.52,773.58L693,773.58L697.96,773.58L702.92,773.58L707.87,776.06L712.83,776.06L720.27,776.06L725.23,776.06L730.19,776.06L735.15,776.06L740.11,776.06L747.54,778.54L752.5,778.54L757.46,778.54L762.42,778.54L764.9,776.06L764.9,778.54" fill="none" stroke="#000000" style="-webkit-tap-highlight-color: rgba(0, 0, 0, 0); stroke-linecap: round; stroke-linejoin: round; stroke-width: 6;" /><path d="M911.19,776.06L911.19,773.58L913.67,773.58L916.15,771.1L926.06,768.62L935.98,766.14L945.9,763.66L955.82,761.18L963.25,758.7L973.17,753.74L980.61,751.26L990.53,751.26" fill="none" stroke="#000000" style="-webkit-tap-highlight-color: rgba(0, 0, 0, 0); stroke-linecap: round; stroke-linejoin: round; stroke-width: 6;" /><path d="M326.04,820.69L323.56,818.21L323.56,815.73L321.08,815.73L318.61,815.73L323.56,813.25L333.48,810.77L343.4,805.81L350.84,800.85L355.8,798.37L363.23,795.89L370.67,793.41L375.63,790.93L378.11,788.46L380.59,788.46L380.59,790.93L383.07,793.41L383.07,795.89L385.55,798.37L390.51,800.85L395.47,803.33L405.38,805.81L415.3,805.81L425.22,808.29L432.66,810.77L442.58,810.77L450.01,813.25L454.97,815.73L459.93,815.73L464.89,818.21L469.85,818.21L472.33,820.69L474.81,820.69L474.81,818.21L472.33,820.69L472.33,823.17L469.85,828.13L469.85,833.08L467.37,838.04L464.89,843L464.89,847.96L462.41,850.44L457.45,855.4L454.97,860.36L450.01,865.32L450.01,870.28L447.54,877.71L447.54,882.67L447.54,890.11L445.06,895.07L445.06,900.03L445.06,907.47L447.54,912.43L447.54,917.38L447.54,924.82L447.54,929.78L447.54,937.22L447.54,944.66L447.54,949.62L445.06,954.58L445.06,957.06" fill="none" stroke="#000000" style="-webkit-tap-highlight-color: rgba(0, 0, 0, 0); stroke-linecap: round; stroke-linejoin: round; stroke-width: 6;" /><path d="M311.17,843L313.65,845.48L316.13,850.44L318.61,857.88L323.56,865.32L328.52,872.76L331,880.19L335.96,887.63L338.44,897.55L340.92,904.99L343.4,914.91L343.4,927.3L343.4,937.22L340.92,949.62L340.92,957.06L340.92,962.01L343.4,962.01" fill="none" stroke="#000000" style="-webkit-tap-highlight-color: rgba(0, 0, 0, 0); stroke-linecap: round; stroke-linejoin: round; stroke-width: 6;" /><path d="M469.85,857.88L472.33,857.88L474.81,857.88L474.81,855.4L479.77,855.4L484.73,855.4L492.16,855.4L499.6,855.4L512,855.4L521.92,855.4L534.31,855.4L541.75,852.92L551.67,852.92L561.59,852.92L571.51,855.4L581.42,855.4L591.34,855.4L598.78,857.88L608.7,860.36L618.62,862.84L626.05,862.84L633.49,862.84L640.93,865.32L643.41,865.32L643.41,870.28" fill="none" stroke="#000000" style="-webkit-tap-highlight-color: rgba(0, 0, 0, 0); stroke-linecap: round; stroke-linejoin: round; stroke-width: 6;" /><path d="M673.16,870.28L670.68,867.8L673.16,865.32L683.08,865.32L693,865.32L707.87,862.84L717.79,862.84L725.23,862.84L732.67,865.32L735.15,867.8L737.63,867.8L740.11,867.8L742.59,867.8L745.07,867.8L747.54,867.8" fill="none" stroke="#000000" style="-webkit-tap-highlight-color: rgba(0, 0, 0, 0); stroke-linecap: round; stroke-linejoin: round; stroke-width: 6;" /><path d="M635.97,914.91L635.97,912.43L638.45,912.43L640.93,914.91L648.37,917.38L658.29,917.38L670.68,917.38L680.6,917.38L690.52,917.38L697.96,917.38L707.87,917.38L715.31,917.38L722.75,917.38L730.19,917.38L737.63,917.38L745.07,917.38L750.02,917.38L757.46,917.38L762.42,917.38L767.38,917.38L769.86,917.38L772.34,917.38L774.82,917.38" fill="none" stroke="#000000" style="-webkit-tap-highlight-color: rgba(0, 0, 0, 0); stroke-linecap: round; stroke-linejoin: round; stroke-width: 6;" /><path d="M566.55,840.52L564.07,840.52L564.07,843L566.55,845.48L569.03,845.48L573.99,845.48L578.94,845.48L586.38,845.48L593.82,845.48L606.22,843L616.14,843L626.05,843L635.97,843L643.41,843L650.85,843L660.77,843L670.68,843L680.6,843L688.04,843L695.48,843L702.92,843L710.35,843L720.27,843L725.23,843L730.19,843L737.63,843L742.59,843L750.02,845.48L757.46,845.48L762.42,845.48L764.9,845.48L767.38,845.48L772.34,845.48L777.3,847.96" fill="none" stroke="#000000" style="-webkit-tap-highlight-color: rgba(0, 0, 0, 0); stroke-linecap: round; stroke-linejoin: round; stroke-width: 6;" /></svg>