<?xml version="1.0" encoding="utf-8" ?>
<svg baseProfile="full" height="1385" version="1.1" width="1024" xmlns="http://www.w3.org/2000/svg" xmlns:ev="http://www.w3.org/2001/xml-events" xmlns:xlink="http://www.w3.org/1999/xlink"><defs /><path d="M228.94,216.46L226.86,216.46L224.78,216.46L222.7,217.5L221.66,218.54L219.58,219.58L217.5,220.62L216.46,220.62L215.41,222.7L215.41,224.78L215.41,227.9L215.41,231.02L215.41,233.11L215.41,235.19L215.41,236.23L216.46,238.31L217.5,239.35L218.54,242.47L218.54,245.59L218.54,246.63L218.54,247.67L219.58,249.76L219.58,250.8L218.54,252.88L218.54,253.92L218.54,257.04L219.58,258.08L219.58,259.12L221.66,260.16L223.74,261.2L224.78,261.2L226.86,262.24L229.98,263.28L232.07,264.33L235.19,268.49L235.19,270.57L236.23,271.61L237.27,273.69L238.31,274.73L239.35,276.81L239.35,278.89L240.39,282.02L241.43,283.06L242.47,284.1L243.51,285.14L245.59,286.18L245.59,287.22L246.63,288.26L247.67,289.3L248.72,290.34L250.8,291.38L251.84,293.46L253.92,297.63L254.96,299.71L256,299.71L256,303.87L257.04,305.95L258.08,308.03L260.16,310.11L260.16,311.15L261.2,313.24L261.2,318.44L262.24,320.52L263.28,322.6L264.33,324.68L264.33,326.76L264.33,328.85L265.37,330.93L265.37,333.01L265.37,334.05L266.41,338.21L266.41,341.33L266.41,342.37L266.41,345.5L266.41,348.62L266.41,350.7L266.41,352.78L266.41,356.94L266.41,357.98L266.41,363.19L266.41,366.31L266.41,368.39L266.41,371.51L266.41,376.72L266.41,377.76L266.41,379.84L266.41,386.08L266.41,387.12L265.37,389.2L265.37,392.33L265.37,394.41L265.37,395.45L265.37,398.57L265.37,410.02L265.37,413.14L265.37,416.26L265.37,420.42L265.37,423.54L265.37,426.67L265.37,429.79L265.37,432.91L265.37,437.07L265.37,440.2L265.37,448.52L265.37,451.64L265.37,455.8L265.37,458.93L265.37,462.05L266.41,466.21L265.37,469.33L265.37,473.5L266.41,478.7L266.41,484.94L266.41,488.07L266.41,489.11L266.41,491.19L266.41,494.31L267.45,497.43L267.45,501.59L267.45,504.72L266.41,508.88L266.41,515.12L266.41,518.24L266.41,522.41L265.37,526.57L265.37,529.69L265.37,530.73L265.37,533.85L264.33,538.02L264.33,542.18L264.33,551.54L264.33,555.71L264.33,558.83L263.28,561.95L263.28,566.11L262.24,569.24L262.24,572.36L261.2,575.48L260.16,579.64L260.16,583.8L259.12,601.5L258.08,603.58L258.08,608.78L258.08,617.11L258.08,623.35L258.08,627.51L258.08,634.8L257.04,638.96L257.04,643.12L257.04,648.33L257.04,652.49L257.04,657.69L257.04,659.77L256,664.98L256,670.18L256,676.42L256,686.83L256,690.99L256,695.15L254.96,699.32L254.96,702.44L253.92,706.6L253.92,710.76L253.92,713.89L253.92,717.01L253.92,725.33L253.92,729.5L253.92,732.62L253.92,736.78L253.92,737.82L253.92,741.98L254.96,746.15L254.96,749.27L254.96,750.31L254.96,755.51L254.96,757.59L254.96,760.72L254.96,762.8L253.92,765.92L253.92,769.04L253.92,772.16L252.88,775.28L252.88,776.33L252.88,777.37L252.88,778.41L252.88,781.53L252.88,782.57L252.88,784.65L252.88,785.69" fill="none" stroke="#000000" style="-webkit-tap-highlight-color: rgba(0, 0, 0, 0); stroke-linecap: round; stroke-linejoin: round; stroke-width: 6;" /><path d="M235.19,222.7L235.19,220.62L237.27,216.46L240.39,215.41L244.55,214.37L248.72,213.33L253.92,212.29L260.16,211.25L266.41,211.25L272.65,211.25L278.89,211.25L284.1,212.29L292.42,213.33L297.63,213.33L301.79,213.33L305.95,212.29L309.07,212.29L311.15,213.33L314.28,213.33L317.4,213.33L318.44,212.29L322.6,211.25L323.64,211.25L327.8,208.13" fill="none" stroke="#000000" style="-webkit-tap-highlight-color: rgba(0, 0, 0, 0); stroke-linecap: round; stroke-linejoin: round; stroke-width: 6;" /><path d="M323.64,143.61L322.6,144.65L322.6,146.73L321.56,156.1L321.56,164.42L321.56,171.71L321.56,180.03L321.56,187.32L322.6,193.56L322.6,200.85L323.64,209.17L323.64,217.5L323.64,223.74L324.68,227.9L325.72,227.9" fill="none" stroke="#000000" style="-webkit-tap-highlight-color: rgba(0, 0, 0, 0); stroke-linecap: round; stroke-linejoin: round; stroke-width: 6;" /><path d="M325.72,139.45L324.68,139.45L323.64,138.41L322.6,137.37L322.6,138.41L323.64,135.28L326.76,133.2L330.93,131.12L334.05,130.08L343.41,123.84L347.58,122.8L352.78,120.72L357.98,119.67L363.19,117.59L368.39,116.55L372.55,114.47L376.72,114.47L380.88,115.51L386.08,116.55L389.2,116.55L392.33,117.59L395.45,117.59L398.57,117.59L401.69,117.59L404.81,118.63L408.98,119.67L412.1,119.67L420.42,120.72L423.54,120.72L427.71,120.72L431.87,119.67L436.03,118.63L439.15,118.63L443.32,117.59L447.48,117.59L451.64,117.59L461.01,117.59L465.17,117.59L469.33,117.59L473.5,117.59L478.7,117.59L482.86,118.63L488.07,118.63L493.27,117.59L498.47,117.59L509.92,115.51L510.96,115.51L520.33,115.51L525.53,115.51L531.77,114.47L536.98,114.47L542.18,113.43L546.34,113.43L551.54,113.43L561.95,112.39L567.15,111.35L572.36,111.35L578.6,110.31L583.8,110.31L589.01,110.31L604.62,109.27L616.07,108.23L621.27,108.23L626.47,108.23L631.67,108.23L636.88,107.19L642.08,107.19L647.28,108.23L653.53,108.23L658.73,107.19L670.18,107.19L675.38,107.19L681.63,107.19L686.83,107.19L692.03,107.19L697.24,106.15L702.44,106.15L708.68,106.15L713.89,106.15L723.25,106.15L728.46,106.15L733.66,106.15L739.9,106.15L745.11,106.15L752.39,107.19L758.63,107.19L763.84,107.19L769.04,107.19L774.24,107.19L778.41,108.23L781.53,108.23L785.69,109.27L789.85,109.27L792.98,109.27L797.14,109.27L800.26,110.31L804.42,110.31L810.67,111.35L813.79,111.35L815.87,111.35L818.99,112.39L822.11,111.35L825.24,111.35L827.32,111.35L830.44,111.35L833.56,111.35L835.64,112.39L840.85,112.39L843.97,113.43L847.09,113.43L849.17,114.47L851.25,115.51L853.33,115.51L856.46,116.55L857.5,117.59L858.54,117.59L861.66,119.67L862.7,120.72L863.74,121.76L864.78,122.8L864.78,123.84L864.78,125.92L865.82,125.92L866.86,126.96L867.9,126.96" fill="none" stroke="#000000" style="-webkit-tap-highlight-color: rgba(0, 0, 0, 0); stroke-linecap: round; stroke-linejoin: round; stroke-width: 6;" /><path d="M867.9,137.37L867.9,140.49L867.9,141.53L868.94,146.73L868.94,149.85L868.94,152.98L868.94,155.06L868.94,159.22L868.94,161.3L867.9,164.42L867.9,166.5L866.86,169.63L865.82,174.83L865.82,176.91L865.82,180.03L865.82,183.15L865.82,186.28L865.82,189.4L865.82,191.48L864.78,193.56L864.78,199.8L864.78,200.85L864.78,201.89L864.78,203.97L864.78,206.05L865.82,206.05L866.86,208.13L866.86,209.17L867.9,210.21L868.94,211.25L868.94,212.29L871.02,213.33L871.02,214.37L872.07,215.41L873.11,216.46L874.15,216.46L876.23,216.46L878.31,216.46L880.39,216.46L882.47,214.37L885.59,213.33L887.67,212.29L888.72,212.29L890.8,212.29L892.88,211.25L896,210.21L898.08,210.21L900.16,211.25L902.24,210.21L904.33,211.25L905.37,210.21L907.45,210.21L909.53,210.21L911.61,210.21L914.73,210.21L917.85,210.21L917.85,211.25L920.98,211.25L923.06,213.33L924.1,213.33L926.18,214.37L926.18,215.41L928.26,218.54L928.26,219.58L928.26,220.62L928.26,221.66L928.26,223.74L928.26,226.86L928.26,227.9L928.26,229.98L929.3,232.07L928.26,234.15L928.26,235.19L928.26,236.23L928.26,238.31L927.22,240.39L926.18,245.59L925.14,247.67L925.14,249.76L925.14,253.92L924.1,256L924.1,258.08L923.06,260.16L922.02,263.28L920.98,264.33L919.93,266.41L918.89,268.49L916.81,273.69L915.77,275.77L914.73,278.89L913.69,282.02L912.65,285.14L909.53,291.38L909.53,293.46L908.49,294.5L907.45,299.71L906.41,300.75L905.37,302.83L904.33,304.91L904.33,305.95L904.33,306.99L903.28,310.11L903.28,312.2L902.24,313.24L902.24,316.36L902.24,318.44L902.24,320.52L902.24,323.64L902.24,325.72L902.24,327.8L901.2,329.89L901.2,331.97L902.24,334.05L902.24,335.09L901.2,337.17L901.2,338.21L901.2,341.33L901.2,342.37L900.16,344.46L900.16,346.54L900.16,347.58L900.16,349.66L900.16,352.78L900.16,355.9L899.12,357.98L899.12,360.07L899.12,361.11L899.12,363.19L898.08,366.31L897.04,373.59L897.04,374.63L896,375.67L894.96,377.76L894.96,380.88L894.96,381.92L893.92,382.96L893.92,386.08L891.84,389.2L891.84,393.37L891.84,395.45L891.84,396.49L891.84,398.57L891.84,400.65L891.84,403.77L891.84,407.93L891.84,410.02L891.84,412.1L891.84,414.18L891.84,415.22L891.84,417.3L890.8,420.42L890.8,422.5L889.76,423.54L890.8,427.71L890.8,429.79L890.8,431.87L890.8,432.91L890.8,436.03L890.8,438.11L891.84,440.2L891.84,442.28L891.84,444.36L891.84,448.52L891.84,450.6L891.84,452.68L891.84,454.76L891.84,456.85L891.84,459.97L891.84,463.09L891.84,466.21L891.84,469.33L891.84,473.5L891.84,479.74L891.84,482.86L892.88,487.02L892.88,489.11L892.88,493.27L893.92,495.35L893.92,498.47L894.96,502.63L894.96,505.76L896,510.96L896,515.12L897.04,519.28L897.04,523.45L897.04,527.61L898.08,529.69L898.08,541.14L898.08,545.3L899.12,549.46L899.12,553.63L899.12,558.83L899.12,564.03L899.12,568.2L899.12,571.32L899.12,575.48L900.16,580.68L901.2,589.01L901.2,593.17L901.2,598.37L902.24,602.54L902.24,606.7L902.24,610.86L902.24,615.02L902.24,619.19L902.24,623.35L902.24,632.72L902.24,637.92L902.24,643.12L902.24,649.37L902.24,655.61L903.28,662.89L903.28,669.14L903.28,675.38L903.28,681.63L903.28,694.11L903.28,701.4L903.28,707.64L903.28,713.89L903.28,719.09L903.28,725.33L903.28,731.58L903.28,737.82L903.28,743.02L903.28,752.39L902.24,757.59L902.24,761.76L902.24,766.96L902.24,771.12L901.2,776.33L901.2,780.49L901.2,784.65L901.2,788.81L901.2,798.18L901.2,801.3L901.2,805.46L901.2,809.63L901.2,812.75L901.2,816.91L900.16,821.07L900.16,824.2L901.2,828.36L900.16,836.68L900.16,839.8L900.16,843.97L900.16,849.17L900.16,856.46L900.16,858.54L900.16,860.62L900.16,862.7L900.16,867.9L900.16,869.98L900.16,871.02L900.16,874.15L900.16,876.23L900.16,879.35L900.16,880.39L900.16,883.51L900.16,884.55L901.2,888.72L901.2,891.84L900.16,893.92L901.2,897.04L901.2,899.12L901.2,901.2L901.2,904.33L901.2,906.41L901.2,907.45L901.2,909.53L901.2,911.61L901.2,913.69L901.2,916.81L901.2,918.89L901.2,920.98L901.2,923.06L901.2,925.14L901.2,927.22L901.2,929.3L901.2,930.34L901.2,932.42L900.16,935.54L900.16,937.63L900.16,939.71L900.16,942.83L900.16,944.91L900.16,950.11L900.16,951.15L900.16,956.36L900.16,959.48L900.16,961.56L900.16,964.68" fill="none" stroke="#000000" style="-webkit-tap-highlight-color: rgba(0, 0, 0, 0); stroke-linecap: round; stroke-linejoin: round; stroke-width: 6;" /><path d="M418.34,264.33L416.26,264.33L415.22,264.33L414.18,263.28L411.06,264.33L413.14,265.37L416.26,265.37L420.42,264.33L425.63,264.33L431.87,264.33L438.11,264.33L444.36,263.28L458.93,262.24L465.17,262.24L471.41,262.24L478.7,262.24L483.9,263.28L489.11,263.28L494.31,264.33L499.51,264.33L510.96,265.37L517.2,265.37L523.45,266.41L529.69,266.41L534.89,266.41L540.1,266.41L545.3,266.41L550.5,266.41L554.67,266.41L562.99,266.41L567.15,266.41L580.68,268.49L585.89,268.49L590.05,267.45L594.21,267.45L599.41,267.45L609.82,266.41L615.02,266.41L620.23,265.37L625.43,265.37L630.63,264.33L635.84,264.33L641.04,264.33L646.24,264.33L651.45,265.37L660.81,266.41L666.02,266.41L671.22,266.41L677.46,266.41L682.67,266.41L687.87,266.41L693.07,267.45L702.44,266.41L705.56,265.37L718.05,265.37L724.29,265.37L730.54,265.37L736.78,265.37L744.07,264.33L751.35,264.33L758.63,264.33L763.84,264.33L770.08,264.33L774.24,264.33L775.28,265.37L777.37,265.37L778.41,265.37L779.45,265.37L780.49,265.37" fill="none" stroke="#000000" style="-webkit-tap-highlight-color: rgba(0, 0, 0, 0); stroke-linecap: round; stroke-linejoin: round; stroke-width: 6;" /><path d="M388.16,239.35L391.28,238.31L396.49,235.19L402.73,234.15L408.98,232.07L414.18,231.02L418.34,229.98L420.42,229.98L423.54,229.98L426.67,229.98L433.95,229.98L438.11,231.02L443.32,231.02L450.6,232.07L457.89,231.02L467.25,231.02L477.66,229.98L487.02,228.94L497.43,228.94L516.16,227.9L526.57,226.86L536.98,224.78L546.34,222.7L553.63,222.7L560.91,221.66L567.15,221.66L573.4,221.66L579.64,221.66L587.97,221.66L597.33,221.66L602.54,221.66L608.78,221.66L613.98,222.7L619.19,223.74L625.43,223.74L629.59,224.78L634.8,224.78L644.16,225.82L649.37,226.86L654.57,226.86L658.73,226.86L662.89,226.86L667.06,226.86L671.22,226.86L684.75,226.86L688.91,227.9L693.07,227.9L698.28,227.9L702.44,226.86L706.6,226.86L714.93,225.82L720.13,225.82L725.33,225.82L730.54,225.82L734.7,225.82L741.98,226.86L746.15,226.86L750.31,225.82L754.47,225.82L758.63,225.82L759.67,225.82L762.8,226.86" fill="none" stroke="#000000" style="-webkit-tap-highlight-color: rgba(0, 0, 0, 0); stroke-linecap: round; stroke-linejoin: round; stroke-width: 6;" /><path d="M787.77,221.66L785.69,221.66L783.61,222.7L781.53,226.86L777.37,233.11L775.28,237.27L773.2,240.39L773.2,243.51L772.16,246.63L772.16,249.76L772.16,252.88L771.12,254.96L771.12,258.08L771.12,260.16L771.12,261.2L771.12,263.28L772.16,265.37L772.16,266.41L772.16,268.49L771.12,270.57L770.08,272.65L770.08,273.69L769.04,273.69L768,274.73L766.96,274.73L764.88,274.73L762.8,274.73L760.72,274.73L759.67,276.81L756.55,278.89L755.51,279.93L753.43,280.98L752.39,282.02L751.35,283.06L749.27,285.14L749.27,286.18L748.23,288.26L748.23,290.34L747.19,292.42L747.19,293.46L747.19,295.54L747.19,297.63L748.23,299.71L748.23,300.75L749.27,302.83L751.35,304.91L751.35,305.95L752.39,308.03L753.43,310.11L754.47,311.15L755.51,313.24L756.55,315.32L757.59,316.36L761.76,321.56L763.84,324.68L764.88,326.76L765.92,327.8L766.96,327.8L769.04,329.89L772.16,333.01L773.2,334.05L774.24,335.09L776.33,337.17L776.33,339.25L776.33,340.29L777.37,342.37L778.41,345.5L779.45,348.62L779.45,350.7L780.49,352.78L780.49,354.86L780.49,356.94L781.53,357.98L781.53,359.02L781.53,360.07L780.49,362.15L780.49,364.23L780.49,369.43L780.49,372.55L780.49,374.63L780.49,376.72L780.49,378.8L780.49,379.84L780.49,381.92L780.49,385.04L780.49,388.16L780.49,392.33L780.49,395.45L781.53,397.53L781.53,399.61L781.53,402.73L782.57,404.81L782.57,406.89L782.57,410.02L783.61,414.18L782.57,420.42L783.61,423.54L783.61,426.67L783.61,429.79L783.61,432.91L783.61,436.03L783.61,439.15L783.61,442.28L782.57,447.48L781.53,450.6L781.53,452.68L781.53,454.76L781.53,456.85L780.49,459.97L781.53,469.33L781.53,472.46L781.53,476.62L781.53,480.78L781.53,484.94L782.57,489.11L782.57,492.23L782.57,497.43L782.57,503.67L782.57,505.76L782.57,508.88L782.57,512L782.57,517.2L782.57,520.33L781.53,523.45L781.53,526.57L781.53,529.69L781.53,530.73L780.49,531.77L781.53,533.85L780.49,536.98L780.49,540.1L780.49,543.22L780.49,545.3L780.49,547.38L780.49,550.5L780.49,552.59L780.49,554.67L780.49,557.79L780.49,560.91L780.49,568.2L780.49,570.28L781.53,573.4L781.53,576.52L781.53,579.64L780.49,582.76L780.49,586.93L780.49,590.05L780.49,594.21L780.49,600.46L780.49,603.58L780.49,607.74L780.49,610.86L779.45,613.98L780.49,617.11L780.49,618.15L780.49,621.27L780.49,624.39L780.49,631.67L780.49,634.8L780.49,637.92L780.49,641.04L781.53,643.12L781.53,646.24L781.53,649.37L781.53,652.49L781.53,654.57L781.53,660.81L781.53,663.93L781.53,671.22L781.53,674.34L781.53,677.46L781.53,680.59L781.53,684.75L781.53,689.95L781.53,692.03L781.53,695.15L781.53,699.32L781.53,701.4L781.53,704.52L781.53,706.6L781.53,709.72L781.53,712.85L781.53,719.09L781.53,722.21L781.53,726.37L781.53,729.5L780.49,732.62L780.49,734.7L781.53,737.82L781.53,740.94L781.53,744.07L781.53,751.35L782.57,754.47L782.57,757.59L782.57,761.76L782.57,764.88L782.57,768L781.53,772.16L781.53,776.33L781.53,779.45L781.53,782.57L781.53,789.85L782.57,792.98L782.57,796.1L781.53,800.26L781.53,802.34L782.57,806.5L782.57,810.67L782.57,814.83L782.57,821.07L782.57,824.2L782.57,828.36L782.57,831.48L783.61,834.6L783.61,836.68L783.61,840.85L783.61,843.97L783.61,846.05L783.61,850.21L783.61,855.41L783.61,857.5L783.61,860.62L782.57,862.7L782.57,865.82L782.57,868.94L782.57,872.07L782.57,875.19L782.57,878.31L782.57,880.39L783.61,880.39L783.61,883.51L783.61,884.55L783.61,886.63L783.61,890.8L783.61,892.88L783.61,893.92L783.61,897.04L782.57,900.16L782.57,902.24" fill="none" stroke="#000000" style="-webkit-tap-highlight-color: rgba(0, 0, 0, 0); stroke-linecap: round; stroke-linejoin: round; stroke-width: 6;" /><path d="M405.85,264.33L406.89,263.28L408.98,264.33L411.06,266.41L412.1,270.57L413.14,273.69L413.14,275.77L414.18,276.81L415.22,277.85L416.26,278.89L418.34,278.89L419.38,278.89L420.42,278.89L421.46,279.93L421.46,280.98L422.5,283.06L422.5,286.18L422.5,289.3L421.46,294.5L420.42,296.59L420.42,297.63L418.34,299.71L417.3,301.79L415.22,304.91L414.18,305.95L412.1,309.07L411.06,311.15L408.98,313.24L406.89,316.36L404.81,318.44L402.73,320.52L400.65,322.6L399.61,324.68L399.61,325.72L398.57,326.76L396.49,328.85L395.45,330.93L393.37,333.01L391.28,334.05L390.24,336.13L386.08,339.25L385.04,340.29L384,341.33L382.96,342.37L380.88,344.46L379.84,346.54L378.8,348.62L377.76,349.66L376.72,351.74L376.72,353.82L375.67,355.9L374.63,357.98L373.59,360.07L373.59,362.15L372.55,364.23L371.51,367.35L370.47,369.43L370.47,370.47L370.47,372.55L369.43,375.67L369.43,376.72L369.43,378.8L368.39,379.84L368.39,382.96L368.39,384L368.39,385.04L368.39,386.08L368.39,387.12L368.39,389.2L368.39,391.28L368.39,393.37L368.39,394.41L368.39,396.49L368.39,397.53L369.43,399.61L369.43,401.69L368.39,403.77L368.39,405.85L368.39,410.02L368.39,412.1L368.39,414.18L368.39,417.3L368.39,422.5L368.39,424.59L368.39,425.63L367.35,426.67L367.35,431.87L367.35,433.95L367.35,436.03L367.35,439.15L367.35,442.28L367.35,445.4L367.35,447.48L367.35,449.56L367.35,452.68L368.39,462.05L368.39,464.13L368.39,467.25L368.39,468.29L368.39,472.46L368.39,475.58L368.39,478.7L368.39,482.86L367.35,490.15L367.35,495.35L366.31,499.51L366.31,502.63L366.31,505.76L366.31,509.92L366.31,513.04L366.31,515.12L366.31,521.37L366.31,524.49L366.31,526.57L366.31,529.69L366.31,531.77L366.31,533.85L366.31,535.93L367.35,536.98L367.35,540.1L367.35,546.34L367.35,548.42L367.35,550.5L367.35,553.63L367.35,556.75L367.35,559.87L367.35,562.99L367.35,565.07L367.35,568.2L367.35,573.4L367.35,575.48L368.39,576.52L368.39,579.64L368.39,582.76L368.39,584.85L368.39,586.93L369.43,590.05L369.43,593.17L369.43,598.37L369.43,600.46L369.43,602.54L369.43,605.66L368.39,606.7L368.39,608.78L368.39,611.9L368.39,615.02L368.39,617.11L368.39,621.27L368.39,624.39L368.39,627.51L368.39,630.63L368.39,632.72L368.39,635.84L368.39,644.16L368.39,647.28L368.39,650.41L368.39,654.57L368.39,657.69L369.43,659.77L369.43,662.89L369.43,663.93L370.47,667.06L370.47,668.1L370.47,674.34L371.51,678.5L371.51,680.59L371.51,682.67L371.51,684.75L371.51,686.83L371.51,688.91L371.51,692.03L371.51,696.2L371.51,699.32L371.51,701.4L371.51,704.52L371.51,706.6L371.51,708.68L370.47,712.85L370.47,714.93L370.47,719.09L370.47,723.25L370.47,726.37L371.51,729.5L371.51,732.62L371.51,735.74L371.51,737.82L371.51,738.86L371.51,741.98L371.51,745.11L371.51,750.31L371.51,752.39L372.55,754.47L372.55,758.63L372.55,760.72L372.55,762.8L372.55,764.88L372.55,765.92L372.55,772.16L372.55,774.24L372.55,775.28L372.55,777.37L372.55,780.49L372.55,781.53L371.51,784.65L371.51,786.73L371.51,788.81L371.51,790.89L371.51,792.98L371.51,794.02L371.51,795.06L371.51,797.14L371.51,800.26L371.51,801.3L371.51,803.38L371.51,800.26L371.51,795.06" fill="none" stroke="#000000" style="-webkit-tap-highlight-color: rgba(0, 0, 0, 0); stroke-linecap: round; stroke-linejoin: round; stroke-width: 6;" /><path d="M28.1,786.73L31.22,784.65L36.42,782.57L42.67,780.49L61.4,778.41L71.8,776.33L82.21,772.16L92.62,769.04L103.02,764.88L111.35,759.67L119.67,754.47L126.96,750.31L132.16,746.15L140.49,739.9L144.65,737.82L148.81,735.74L151.93,734.7L156.1,734.7L159.22,733.66L162.34,733.66L164.42,733.66L166.5,733.66L176.91,735.74L180.03,736.78L184.2,737.82L188.36,739.9L193.56,741.98L198.76,745.11L205.01,747.19L211.25,749.27L220.62,751.35L240.39,751.35" fill="none" stroke="#000000" style="-webkit-tap-highlight-color: rgba(0, 0, 0, 0); stroke-linecap: round; stroke-linejoin: round; stroke-width: 6;" /><path d="M380.88,781.53L381.92,779.45L385.04,778.41L391.28,778.41L395.45,777.37L402.73,776.33L412.1,773.2L428.75,770.08L434.99,768L440.2,765.92L443.32,763.84L447.48,761.76L452.68,761.76L462.05,762.8L474.54,766.96L481.82,769.04L489.11,771.12L496.39,773.2L501.59,775.28L506.8,776.33L510.96,777.37L515.12,778.41L518.24,779.45L521.37,779.45L530.73,781.53L533.85,781.53L538.02,782.57L542.18,783.61L545.3,783.61L549.46,783.61L553.63,783.61L556.75,782.57L561.95,780.49L567.15,778.41L570.28,777.37L573.4,776.33L577.56,775.28L581.72,774.24L584.85,774.24L587.97,774.24L591.09,774.24L594.21,774.24L598.37,774.24L604.62,773.2L606.7,773.2L609.82,774.24L612.94,774.24L615.02,774.24L618.15,774.24L622.31,774.24L626.47,774.24L634.8,774.24L638.96,774.24L643.12,774.24L646.24,775.28L650.41,775.28L654.57,775.28L657.69,775.28L659.77,775.28L662.89,774.24L668.1,773.2L670.18,773.2L672.26,774.24L674.34,774.24L676.42,774.24L679.54,774.24L683.71,775.28" fill="none" stroke="#000000" style="-webkit-tap-highlight-color: rgba(0, 0, 0, 0); stroke-linecap: round; stroke-linejoin: round; stroke-width: 6;" /><path d="M697.24,770.08L699.32,770.08L701.4,769.04L705.56,769.04L710.76,770.08L717.01,772.16L724.29,774.24L731.58,775.28L739.9,775.28L752.39,773.2L758.63,772.16L762.8,771.12L766.96,770.08L770.08,768L774.24,768L778.41,765.92L782.57,763.84L785.69,762.8" fill="none" stroke="#000000" style="-webkit-tap-highlight-color: rgba(0, 0, 0, 0); stroke-linecap: round; stroke-linejoin: round; stroke-width: 6;" /><path d="M919.93,759.67L918.89,759.67L920.98,758.63L923.06,758.63L927.22,758.63L934.5,759.67L941.79,760.72L958.44,763.84L966.76,764.88L974.05,765.92L980.29,768L987.58,769.04L993.82,769.04L1001.11,770.08L1008.39,769.04L1015.67,766.96" fill="none" stroke="#000000" style="-webkit-tap-highlight-color: rgba(0, 0, 0, 0); stroke-linecap: round; stroke-linejoin: round; stroke-width: 6;" /><path d="M636.88,936.59L636.88,935.54L635.84,935.54L634.8,937.63L633.76,938.67L632.72,940.75L631.67,946.99L630.63,949.07L630.63,951.15L630.63,954.28L630.63,957.4L629.59,964.68L628.55,969.89L627.51,975.09L626.47,985.5L626.47,990.7L625.43,995.9L625.43,1001.11L625.43,1005.27L625.43,1010.47L626.47,1014.63L626.47,1019.84L626.47,1024L626.47,1029.2L626.47,1039.61L625.43,1043.77L625.43,1047.93L625.43,1051.06L625.43,1054.18L625.43,1057.3L625.43,1059.38L625.43,1063.54L625.43,1068.75L626.47,1071.87" fill="none" stroke="#000000" style="-webkit-tap-highlight-color: rgba(0, 0, 0, 0); stroke-linecap: round; stroke-linejoin: round; stroke-width: 6;" /><path d="M636.88,940.75L638.96,940.75L648.33,939.71L654.57,938.67L662.89,936.59L670.18,935.54L676.42,934.5L682.67,934.5L687.87,935.54L693.07,935.54L701.4,934.5L704.52,934.5L707.64,934.5L710.76,935.54L713.89,936.59L717.01,937.63L720.13,937.63L723.25,937.63L725.33,937.63L726.37,936.59L728.46,936.59L729.5,935.54L730.54,934.5L732.62,933.46L733.66,932.42" fill="none" stroke="#000000" style="-webkit-tap-highlight-color: rgba(0, 0, 0, 0); stroke-linecap: round; stroke-linejoin: round; stroke-width: 6;" /><path d="M737.82,932.42L738.86,935.54L738.86,939.71L739.9,945.95L739.9,949.07L739.9,951.15L739.9,955.32L739.9,958.44L739.9,962.6L739.9,965.72L739.9,967.8L739.9,969.89L739.9,976.13L739.9,978.21L739.9,981.33L739.9,984.46L739.9,986.54L739.9,988.62L740.94,989.66L740.94,991.74L740.94,995.9L740.94,997.98L740.94,1000.07L740.94,1002.15L741.98,1004.23L741.98,1006.31L743.02,1008.39L741.98,1011.51L741.98,1014.63L741.98,1018.8L741.98,1021.92" fill="none" stroke="#000000" style="-webkit-tap-highlight-color: rgba(0, 0, 0, 0); stroke-linecap: round; stroke-linejoin: round; stroke-width: 6;" /><path d="M747.19,1034.41L747.19,1035.45L747.19,1036.49L748.23,1038.57L748.23,1043.77L748.23,1047.93L748.23,1054.18L749.27,1060.42L749.27,1065.63L750.31,1069.79L751.35,1071.87L751.35,1073.95L752.39,1073.95L752.39,1072.91" fill="none" stroke="#000000" style="-webkit-tap-highlight-color: rgba(0, 0, 0, 0); stroke-linecap: round; stroke-linejoin: round; stroke-width: 6;" /><path d="M671.22,1085.4L670.18,1085.4L668.1,1086.44L667.06,1087.48L666.02,1088.52L666.02,1089.56L663.93,1091.64L661.85,1092.68L659.77,1095.8L655.61,1098.93L654.57,1102.05L653.53,1105.17L651.45,1110.37L650.41,1114.54L650.41,1118.7L650.41,1122.86L650.41,1125.98L650.41,1131.19L650.41,1136.39L650.41,1139.51L650.41,1143.67L649.37,1147.84L648.33,1157.2L648.33,1164.49L647.28,1170.73L647.28,1175.93L646.24,1181.14L645.2,1186.34L645.2,1191.54L644.16,1197.79L643.12,1201.95L642.08,1212.36L641.04,1216.52L641.04,1221.72L640,1225.89L640,1230.05L640,1233.17L640,1237.33L640,1240.46L640,1243.58L640,1246.7L638.96,1255.02L638.96,1258.15L640,1260.23L640,1261.27L640,1262.31" fill="none" stroke="#000000" style="-webkit-tap-highlight-color: rgba(0, 0, 0, 0); stroke-linecap: round; stroke-linejoin: round; stroke-width: 6;" /><path d="M652.49,1081.24L653.53,1081.24L655.61,1082.28L658.73,1084.36L660.81,1086.44L664.98,1088.52L669.14,1089.56L678.5,1092.68L682.67,1093.72L686.83,1096.85L690.99,1097.89L695.15,1097.89L700.36,1096.85L705.56,1096.85L710.76,1095.8L718.05,1094.76L723.25,1094.76L728.46,1094.76L733.66,1093.72L737.82,1092.68L744.07,1092.68L747.19,1092.68L751.35,1092.68L756.55,1092.68L761.76,1092.68L769.04,1091.64L770.08,1090.6L771.12,1089.56" fill="none" stroke="#000000" style="-webkit-tap-highlight-color: rgba(0, 0, 0, 0); stroke-linecap: round; stroke-linejoin: round; stroke-width: 6;" /><path d="M683.71,1079.15L682.67,1079.15L677.46,1079.15L674.34,1080.2L675.38,1081.24L679.54,1080.2L686.83,1080.2L694.11,1078.11L702.44,1077.07L712.85,1076.03L722.21,1074.99L731.58,1074.99L739.9,1074.99L746.15,1076.03L768,1080.2L772.16,1080.2L775.28,1080.2L776.33,1080.2L777.37,1081.24L778.41,1082.28L778.41,1084.36L778.41,1086.44L778.41,1087.48L778.41,1088.52L777.37,1091.64L777.37,1096.85L777.37,1108.29L777.37,1117.66L777.37,1123.9L777.37,1131.19L777.37,1140.55L777.37,1147.84L777.37,1155.12L777.37,1161.37L777.37,1168.65L778.41,1171.77L779.45,1175.93L779.45,1181.14L780.49,1185.3L781.53,1188.42L781.53,1192.59L781.53,1197.79L781.53,1201.95L780.49,1206.11L780.49,1213.4L779.45,1218.6L779.45,1223.8L779.45,1225.89L780.49,1226.93L780.49,1232.13L779.45,1236.29L779.45,1243.58L778.41,1248.78L778.41,1250.86L777.37,1253.98L777.37,1255.02L777.37,1258.15L776.33,1261.27L776.33,1265.43L775.28,1265.43L775.28,1264.39" fill="none" stroke="#000000" style="-webkit-tap-highlight-color: rgba(0, 0, 0, 0); stroke-linecap: round; stroke-linejoin: round; stroke-width: 6;" /><path d="M779.45,971.97L781.53,971.97L783.61,974.05L789.85,977.17L792.98,977.17L801.3,978.21L813.79,979.25L821.07,979.25L830.44,980.29L839.8,979.25L852.29,978.21L863.74,978.21L874.15,978.21L881.43,978.21L892.88,979.25L898.08,980.29L903.28,980.29L907.45,979.25L910.57,979.25L913.69,980.29" fill="none" stroke="#000000" style="-webkit-tap-highlight-color: rgba(0, 0, 0, 0); stroke-linecap: round; stroke-linejoin: round; stroke-width: 6;" /><path d="M928.26,986.54L929.3,987.58L930.34,987.58L933.46,988.62L936.59,989.66L940.75,990.7L942.83,992.78L945.95,993.82L948.03,995.9L951.15,997.98L952.2,997.98L954.28,999.02L955.32,1000.07L956.36,1000.07L957.4,1000.07L958.44,1003.19L957.4,1004.23L957.4,1006.31L955.32,1008.39L954.28,1010.47L951.15,1012.55L950.11,1016.72L946.99,1019.84L945.95,1021.92L943.87,1027.12L942.83,1027.12L942.83,1028.16L942.83,1029.2L941.79,1030.24L941.79,1031.28L937.63,1033.37L936.59,1035.45L935.54,1037.53L933.46,1042.73L932.42,1045.85L931.38,1050.02L930.34,1052.1L927.22,1060.42L926.18,1064.59L923.06,1073.95L920.98,1078.11L919.93,1082.28L917.85,1086.44L917.85,1089.56L916.81,1089.56L916.81,1090.6L916.81,1091.64L916.81,1093.72L916.81,1094.76L915.77,1098.93L914.73,1111.41L913.69,1118.7L912.65,1123.9L912.65,1127.02L911.61,1129.11L911.61,1133.27L911.61,1134.31L911.61,1135.35L911.61,1133.27" fill="none" stroke="#000000" style="-webkit-tap-highlight-color: rgba(0, 0, 0, 0); stroke-linecap: round; stroke-linejoin: round; stroke-width: 6;" /><path d="M917.85,1133.27L917.85,1137.43L916.81,1139.51L915.77,1143.67L914.73,1148.88L913.69,1150.96L913.69,1152L913.69,1154.08L913.69,1157.2L914.73,1157.2L917.85,1156.16L919.93,1157.2L922.02,1157.2L924.1,1157.2L928.26,1160.33L929.3,1159.28L929.3,1160.33L930.34,1160.33L932.42,1162.41L932.42,1167.61L932.42,1168.65L930.34,1169.69L929.3,1170.73L929.3,1171.77L930.34,1173.85L930.34,1175.93L930.34,1178.02" fill="none" stroke="#000000" style="-webkit-tap-highlight-color: rgba(0, 0, 0, 0); stroke-linecap: round; stroke-linejoin: round; stroke-width: 6;" /><path d="M797.14,1158.24L799.22,1153.04L802.34,1154.08L805.46,1156.16L810.67,1160.33L813.79,1163.45L816.91,1166.57L821.07,1168.65L827.32,1169.69L835.64,1167.61L843.97,1168.65L850.21,1168.65L857.5,1168.65L866.86,1169.69L873.11,1169.69L878.31,1167.61L884.55,1166.57L889.76,1164.49L898.08,1162.41L903.28,1161.37L907.45,1160.33L911.61,1158.24L913.69,1157.2L915.77,1155.12L917.85,1153.04" fill="none" stroke="#000000" style="-webkit-tap-highlight-color: rgba(0, 0, 0, 0); stroke-linecap: round; stroke-linejoin: round; stroke-width: 6;" /><path d="M815.87,1152" fill="none" stroke="#000000" style="-webkit-tap-highlight-color: rgba(0, 0, 0, 0); stroke-linecap: round; stroke-linejoin: round; stroke-width: 6;" /><path d="M804.42,1148.88L806.5,1148.88L810.67,1148.88L813.79,1148.88L815.87,1147.84L818.99,1147.84L827.32,1146.8L838.76,1142.63L847.09,1142.63L854.37,1141.59L861.66,1142.63L867.9,1143.67L881.43,1145.76L885.59,1144.72L886.63,1144.72L889.76,1144.72L892.88,1145.76L897.04,1147.84L899.12,1148.88L902.24,1149.92L903.28,1149.92L906.41,1149.92" fill="none" stroke="#000000" style="-webkit-tap-highlight-color: rgba(0, 0, 0, 0); stroke-linecap: round; stroke-linejoin: round; stroke-width: 6;" /><path d="M936.59,1166.57L936.59,1168.65L935.54,1171.77L935.54,1173.85L936.59,1178.02L936.59,1182.18L936.59,1188.42L936.59,1194.67L936.59,1199.87L936.59,1206.11L937.63,1211.32L938.67,1216.52L939.71,1221.72L939.71,1227.97L939.71,1235.25L938.67,1239.41L938.67,1242.54L937.63,1245.66L936.59,1249.82L936.59,1253.98L935.54,1257.11L935.54,1261.27L935.54,1265.43L935.54,1266.47L936.59,1270.63L936.59,1271.67L936.59,1273.76L936.59,1274.8L936.59,1275.84L935.54,1276.88" fill="none" stroke="#000000" style="-webkit-tap-highlight-color: rgba(0, 0, 0, 0); stroke-linecap: round; stroke-linejoin: round; stroke-width: 6;" /><path d="M161.3,922.02L161.3,920.98L160.26,919.93L159.22,919.93L158.18,920.98L160.26,924.1L163.38,926.18L168.59,927.22L173.79,928.26L178.99,929.3L186.28,930.34L194.6,930.34L202.93,930.34L218.54,929.3L226.86,930.34L234.15,929.3L241.43,929.3L247.67,928.26L253.92,927.22L258.08,927.22L261.2,926.18L264.33,926.18L266.41,927.22L268.49,929.3L269.53,930.34L270.57,930.34L271.61,931.38L271.61,932.42L271.61,933.46L272.65,933.46L272.65,935.54L272.65,939.71L272.65,941.79L272.65,944.91L272.65,949.07L272.65,952.2L272.65,956.36L271.61,960.52L270.57,971.97L269.53,978.21L269.53,983.41L268.49,988.62L268.49,993.82L267.45,997.98L267.45,1001.11L267.45,1005.27L266.41,1013.59L266.41,1018.8L265.37,1024L265.37,1027.12L265.37,1031.28L265.37,1034.41L265.37,1039.61L265.37,1044.81L266.41,1050.02L266.41,1057.3L266.41,1059.38L267.45,1062.5L268.49,1063.54L268.49,1066.67L268.49,1070.83L268.49,1074.99L269.53,1084.36L269.53,1086.44L270.57,1084.36L270.57,1086.44L271.61,1089.56L271.61,1091.64L271.61,1094.76L272.65,1097.89L272.65,1101.01L273.69,1105.17L273.69,1109.33L273.69,1112.46L273.69,1115.58L274.73,1118.7L274.73,1120.78L275.77,1122.86L275.77,1123.9" fill="none" stroke="#000000" style="-webkit-tap-highlight-color: rgba(0, 0, 0, 0); stroke-linecap: round; stroke-linejoin: round; stroke-width: 6;" /><path d="M156.1,923.06L155.06,925.14L155.06,927.22L155.06,930.34L154.02,942.83L152.98,949.07L151.93,955.32L150.89,960.52L149.85,965.72L148.81,971.97L148.81,979.25L147.77,986.54L147.77,992.78L147.77,999.02L146.73,1010.47L146.73,1015.67L146.73,1021.92L146.73,1029.2L146.73,1036.49L145.69,1042.73L145.69,1047.93L145.69,1054.18L145.69,1066.67L145.69,1071.87L144.65,1076.03L145.69,1080.2L145.69,1084.36L145.69,1088.52L145.69,1092.68L145.69,1097.89L144.65,1102.05L143.61,1106.21L142.57,1110.37L142.57,1114.54L142.57,1117.66L142.57,1121.82L142.57,1123.9L141.53,1127.02L141.53,1130.15L140.49,1133.27L140.49,1135.35L140.49,1139.51L140.49,1141.59L139.45,1145.76L139.45,1149.92L138.41,1152L138.41,1154.08L138.41,1156.16L138.41,1158.24L137.37,1162.41L137.37,1164.49L138.41,1166.57L138.41,1168.65L137.37,1171.77L137.37,1174.89L137.37,1178.02L137.37,1181.14L138.41,1186.34L138.41,1189.46L138.41,1192.59L138.41,1195.71L138.41,1198.83L138.41,1202.99L138.41,1206.11L138.41,1208.2L138.41,1213.4L139.45,1217.56L139.45,1220.68L139.45,1222.76L139.45,1225.89" fill="none" stroke="#000000" style="-webkit-tap-highlight-color: rgba(0, 0, 0, 0); stroke-linecap: round; stroke-linejoin: round; stroke-width: 6;" /><path d="M24.98,1037.53L23.93,1036.49L26.02,1037.53L29.14,1037.53L34.34,1037.53L40.59,1038.57L52.03,1041.69L59.32,1043.77L66.6,1044.81L74.93,1045.85L83.25,1045.85L92.62,1043.77L101.98,1040.65L110.31,1036.49L117.59,1033.37L122.8,1031.28" fill="none" stroke="#000000" style="-webkit-tap-highlight-color: rgba(0, 0, 0, 0); stroke-linecap: round; stroke-linejoin: round; stroke-width: 6;" /><path d="M154.02,802.34L152.98,802.34L150.89,805.46L148.81,809.63L146.73,815.87L145.69,823.15L143.61,829.4L141.53,834.6L141.53,840.85L142.57,846.05L143.61,847.09L144.65,850.21L145.69,852.29L145.69,855.41L145.69,858.54L144.65,862.7L144.65,867.9L142.57,876.23L141.53,880.39L141.53,883.51L142.57,885.59L143.61,887.67L143.61,890.8L144.65,894.96L143.61,899.12L143.61,901.2L143.61,906.41L142.57,911.61L143.61,914.73L144.65,917.85L145.69,922.02L147.77,926.18L150.89,930.34L152.98,935.54L156.1,938.67L159.22,943.87L160.26,943.87L161.3,944.91" fill="none" stroke="#000000" style="-webkit-tap-highlight-color: rgba(0, 0, 0, 0); stroke-linecap: round; stroke-linejoin: round; stroke-width: 6;" /><path d="M172.75,772.16L172.75,771.12L173.79,769.04L176.91,768L182.11,765.92L188.36,763.84L200.85,759.67L207.09,758.63L212.29,758.63L216.46,759.67L220.62,761.76L226.86,762.8L231.02,763.84L236.23,763.84L245.59,765.92L248.72,765.92L251.84,765.92L253.92,766.96L256,768L258.08,768L261.2,768L262.24,768L264.33,769.04L266.41,771.12L269.53,775.28L271.61,777.37L273.69,778.41L275.77,779.45L276.81,779.45L278.89,780.49L279.93,781.53L282.02,782.57L284.1,783.61L286.18,784.65L287.22,784.65" fill="none" stroke="#000000" style="-webkit-tap-highlight-color: rgba(0, 0, 0, 0); stroke-linecap: round; stroke-linejoin: round; stroke-width: 6;" /><path d="M295.54,797.14L296.59,798.18L296.59,799.22L297.63,799.22L299.71,801.3L300.75,802.34L302.83,804.42L302.83,806.5L303.87,810.67L303.87,814.83L301.79,823.15L300.75,826.28L298.67,831.48L296.59,835.64L295.54,839.8L293.46,842.93L292.42,845.01L290.34,847.09L288.26,850.21L284.1,860.62L282.02,864.78L280.98,867.9L280.98,871.02L280.98,873.11L279.93,875.19L279.93,878.31L278.89,881.43L276.81,884.55L275.77,887.67L274.73,890.8L273.69,892.88L273.69,896L272.65,900.16L272.65,904.33L272.65,907.45L272.65,910.57L272.65,912.65L272.65,915.77L274.73,920.98" fill="none" stroke="#000000" style="-webkit-tap-highlight-color: rgba(0, 0, 0, 0); stroke-linecap: round; stroke-linejoin: round; stroke-width: 6;" /><path d="M374.63,871.02L373.59,872.07L371.51,875.19L369.43,878.31L366.31,882.47L364.23,886.63L362.15,889.76L360.07,892.88L356.94,897.04L354.86,900.16L352.78,903.28L349.66,906.41L344.46,910.57L343.41,911.61L342.37,913.69L341.33,915.77L341.33,916.81L341.33,917.85L341.33,918.89L343.41,920.98L345.5,925.14L345.5,932.42L344.46,934.5L344.46,935.54L344.46,936.59L344.46,937.63L344.46,938.67L345.5,940.75L345.5,941.79L344.46,942.83L343.41,943.87L343.41,944.91L342.37,945.95L341.33,948.03L340.29,948.03L339.25,950.11L338.21,951.15L338.21,952.2L337.17,953.24L335.09,955.32L333.01,959.48L333.01,960.52L333.01,962.6L334.05,963.64L334.05,965.72L334.05,967.8L334.05,969.89L334.05,971.97L334.05,974.05L334.05,980.29L334.05,983.41L333.01,988.62L333.01,993.82L334.05,1004.23L334.05,1009.43L334.05,1014.63L334.05,1019.84L334.05,1024L334.05,1027.12L335.09,1031.28L335.09,1035.45L335.09,1039.61L335.09,1046.89L335.09,1050.02L334.05,1053.14L334.05,1055.22L334.05,1058.34L334.05,1059.38L334.05,1060.42L334.05,1061.46L336.13,1058.34" fill="none" stroke="#000000" style="-webkit-tap-highlight-color: rgba(0, 0, 0, 0); stroke-linecap: round; stroke-linejoin: round; stroke-width: 6;" /><path d="M340.29,950.11L339.25,950.11L340.29,951.15L343.41,953.24L346.54,955.32L350.7,956.36L363.19,957.4L369.43,959.48L374.63,961.56L380.88,961.56L388.16,961.56L395.45,960.52L400.65,959.48L405.85,959.48L410.02,959.48L418.34,959.48L420.42,958.44L422.5,957.4L423.54,957.4L424.59,956.36L425.63,956.36L427.71,955.32L429.79,954.28L433.95,952.2L434.99,951.15L436.03,951.15L438.11,951.15L439.15,950.11L442.28,949.07L443.32,948.03L445.4,946.99" fill="none" stroke="#000000" style="-webkit-tap-highlight-color: rgba(0, 0, 0, 0); stroke-linecap: round; stroke-linejoin: round; stroke-width: 6;" /><path d="M446.44,954.28L447.48,956.36L447.48,959.48L447.48,961.56L447.48,967.8L447.48,974.05L446.44,980.29L446.44,987.58L447.48,993.82L447.48,999.02L446.44,1006.31L446.44,1015.67L446.44,1024L446.44,1029.2L446.44,1034.41L446.44,1039.61L446.44,1043.77L446.44,1047.93L446.44,1051.06L447.48,1053.14L447.48,1056.26" fill="none" stroke="#000000" style="-webkit-tap-highlight-color: rgba(0, 0, 0, 0); stroke-linecap: round; stroke-linejoin: round; stroke-width: 6;" /><path d="M452.68,874.15L452.68,875.19L452.68,876.23L454.76,878.31L456.85,879.35L458.93,882.47L459.97,886.63L459.97,890.8L457.89,896L455.8,902.24L453.72,907.45L451.64,911.61L449.56,916.81L447.48,922.02L445.4,930.34L444.36,932.42L444.36,934.5L444.36,936.59L444.36,940.75L445.4,944.91L444.36,949.07L444.36,953.24L444.36,956.36L444.36,959.48L444.36,967.8L446.44,973.01" fill="none" stroke="#000000" style="-webkit-tap-highlight-color: rgba(0, 0, 0, 0); stroke-linecap: round; stroke-linejoin: round; stroke-width: 6;" /><path d="M498.47,984.46L497.43,986.54L496.39,991.74L494.31,995.9L493.27,1002.15L493.27,1015.67L494.31,1021.92L495.35,1029.2L496.39,1035.45L496.39,1041.69L496.39,1046.89L497.43,1053.14L497.43,1058.34L498.47,1063.54L499.51,1068.75L501.59,1068.75" fill="none" stroke="#000000" style="-webkit-tap-highlight-color: rgba(0, 0, 0, 0); stroke-linecap: round; stroke-linejoin: round; stroke-width: 6;" /><path d="M502.63,979.25L501.59,979.25L502.63,982.37L504.72,984.46L507.84,986.54L510.96,987.58L516.16,986.54L521.37,987.58L526.57,987.58L531.77,988.62L536.98,989.66L542.18,989.66L551.54,989.66L555.71,989.66L560.91,989.66L564.03,989.66L567.15,990.7L569.24,990.7L571.32,991.74L573.4,991.74L576.52,990.7L581.72,987.58L583.8,986.54L585.89,985.5L589.01,984.46L591.09,983.41L593.17,982.37L594.21,982.37L595.25,981.33L596.29,980.29L597.33,979.25L598.37,978.21" fill="none" stroke="#000000" style="-webkit-tap-highlight-color: rgba(0, 0, 0, 0); stroke-linecap: round; stroke-linejoin: round; stroke-width: 6;" /><path d="M601.5,985.5L601.5,987.58L602.54,994.86L602.54,997.98L603.58,1002.15L603.58,1006.31L603.58,1011.51L603.58,1016.72L603.58,1021.92L603.58,1027.12L603.58,1031.28L604.62,1036.49L604.62,1045.85L604.62,1051.06L604.62,1056.26L604.62,1061.46L603.58,1073.95L603.58,1077.07L603.58,1080.2L603.58,1086.44L603.58,1089.56L603.58,1092.68L603.58,1095.8L603.58,1098.93L603.58,1102.05L602.54,1106.21L602.54,1107.25L603.58,1108.29" fill="none" stroke="#000000" style="-webkit-tap-highlight-color: rgba(0, 0, 0, 0); stroke-linecap: round; stroke-linejoin: round; stroke-width: 6;" /><path d="M492.23,962.6L490.15,958.44L489.11,954.28L490.15,948.03L491.19,940.75L492.23,932.42L493.27,925.14L493.27,917.85L492.23,912.65L490.15,908.49L489.11,905.37L489.11,902.24L490.15,901.2L492.23,899.12L495.35,896L499.51,893.92L503.67,890.8L507.84,888.72L519.28,885.59L525.53,884.55L531.77,882.47L536.98,880.39L542.18,879.35L545.3,879.35L549.46,879.35L551.54,879.35L552.59,879.35L553.63,880.39L556.75,880.39L558.83,880.39L560.91,880.39L562.99,880.39L569.24,880.39L572.36,879.35L574.44,878.31L579.64,878.31L581.72,879.35L582.76,879.35L583.8,880.39L585.89,880.39L586.93,881.43L589.01,882.47L591.09,883.51L593.17,885.59L594.21,886.63L596.29,887.67L598.37,889.76L599.41,891.84L601.5,893.92L602.54,894.96L604.62,896L605.66,897.04L606.7,899.12L608.78,901.2L609.82,906.41L610.86,908.49L610.86,910.57L610.86,912.65L611.9,914.73L611.9,915.77L612.94,918.89L611.9,923.06L609.82,933.46L607.74,939.71L605.66,944.91L603.58,950.11L603.58,954.28L603.58,958.44L603.58,962.6L599.41,977.17L596.29,982.37L593.17,987.58L590.05,990.7L589.01,992.78L586.93,994.86L585.89,994.86" fill="none" stroke="#000000" style="-webkit-tap-highlight-color: rgba(0, 0, 0, 0); stroke-linecap: round; stroke-linejoin: round; stroke-width: 6;" /><path d="M485.98,861.66L482.86,860.62L479.74,859.58L477.66,860.62L478.7,863.74L479.74,868.94L481.82,874.15L483.9,878.31L485.98,881.43L488.07,882.47" fill="none" stroke="#000000" style="-webkit-tap-highlight-color: rgba(0, 0, 0, 0); stroke-linecap: round; stroke-linejoin: round; stroke-width: 6;" /><path d="M494.31,849.17L497.43,849.17L500.55,848.13L505.76,848.13L512,847.09L518.24,847.09L525.53,847.09L534.89,846.05L544.26,846.05L553.63,846.05L571.32,845.01L578.6,845.01L585.89,846.05L591.09,846.05L596.29,846.05L603.58,847.09L606.7,847.09L608.78,848.13L610.86,849.17L610.86,850.21L611.9,852.29L611.9,854.37L611.9,855.41L613.98,860.62L615.02,863.74L616.07,865.82L617.11,866.86L618.15,869.98L618.15,872.07L620.23,874.15L622.31,876.23L624.39,879.35" fill="none" stroke="#000000" style="-webkit-tap-highlight-color: rgba(0, 0, 0, 0); stroke-linecap: round; stroke-linejoin: round; stroke-width: 6;" /><path d="M692.03,863.74L690.99,866.86L688.91,873.11L686.83,883.51L686.83,893.92L686.83,901.2L687.87,906.41L687.87,910.57L688.91,911.61L688.91,910.57" fill="none" stroke="#000000" style="-webkit-tap-highlight-color: rgba(0, 0, 0, 0); stroke-linecap: round; stroke-linejoin: round; stroke-width: 6;" /><path d="M684.75,865.82L692.03,862.7L699.32,861.66L707.64,861.66L714.93,860.62L722.21,860.62L727.41,859.58L731.58,859.58L735.74,858.54L738.86,858.54L740.94,859.58L741.98,861.66L743.02,863.74L743.02,865.82L743.02,867.9L741.98,869.98L741.98,873.11L741.98,876.23L741.98,881.43L741.98,890.8L740.94,897.04L740.94,903.28L740.94,907.45L740.94,910.57L741.98,913.69L741.98,914.73" fill="none" stroke="#000000" style="-webkit-tap-highlight-color: rgba(0, 0, 0, 0); stroke-linecap: round; stroke-linejoin: round; stroke-width: 6;" /><path d="M751.35,866.86L752.39,866.86L754.47,867.9L758.63,869.98L762.8,873.11L766.96,876.23L771.12,878.31L776.33,880.39L780.49,881.43" fill="none" stroke="#000000" style="-webkit-tap-highlight-color: rgba(0, 0, 0, 0); stroke-linecap: round; stroke-linejoin: round; stroke-width: 6;" /><path d="M290.34,1061.46L290.34,1060.42L292.42,1058.34L298.67,1056.26L314.28,1051.06L323.64,1050.02L333.01,1051.06L342.37,1052.1L351.74,1053.14L362.15,1054.18L373.59,1056.26L382.96,1057.3L411.06,1060.42L421.46,1062.5L430.83,1063.54L440.2,1064.59L449.56,1065.63L465.17,1065.63L474.54,1065.63L479.74,1065.63L488.07,1065.63L504.72,1065.63L512,1065.63L518.24,1066.67L523.45,1066.67L527.61,1066.67L530.73,1066.67L533.85,1066.67L535.93,1067.71L536.98,1067.71L538.02,1067.71" fill="none" stroke="#000000" style="-webkit-tap-highlight-color: rgba(0, 0, 0, 0); stroke-linecap: round; stroke-linejoin: round; stroke-width: 6;" /><path d="M535.93,1062.5L534.89,1063.54L534.89,1064.59L534.89,1065.63L535.93,1067.71L538.02,1068.75L541.14,1070.83L542.18,1071.87L545.3,1073.95L546.34,1078.11L547.38,1084.36L548.42,1086.44L548.42,1089.56L548.42,1092.68L549.46,1096.85L549.46,1099.97L549.46,1103.09L549.46,1105.17L548.42,1109.33L548.42,1111.41L548.42,1117.66L548.42,1122.86L547.38,1125.98L547.38,1128.07L547.38,1131.19L547.38,1134.31L547.38,1137.43L548.42,1141.59L548.42,1144.72L549.46,1146.8L549.46,1148.88L549.46,1149.92L550.5,1153.04L550.5,1154.08L551.54,1156.16L551.54,1157.2L553.63,1160.33L555.71,1164.49L555.71,1165.53L556.75,1167.61L556.75,1170.73L556.75,1171.77L557.79,1173.85L558.83,1176.98L558.83,1180.1L559.87,1182.18L558.83,1184.26L558.83,1185.3L558.83,1187.38L559.87,1189.46L559.87,1190.5L558.83,1193.63L558.83,1196.75L558.83,1199.87L558.83,1204.03L558.83,1207.15L558.83,1209.24L557.79,1213.4L557.79,1213.4L557.79,1218.6L557.79,1222.76L558.83,1225.89L557.79,1225.89L557.79,1226.93L556.75,1233.17L556.75,1238.37L556.75,1242.54L556.75,1246.7L556.75,1249.82L556.75,1253.98L555.71,1257.11L554.67,1261.27L553.63,1265.43L551.54,1268.55L550.5,1270.63L548.42,1273.76L545.3,1275.84" fill="none" stroke="#000000" style="-webkit-tap-highlight-color: rgba(0, 0, 0, 0); stroke-linecap: round; stroke-linejoin: round; stroke-width: 6;" /><path d="M286.18,1065.63L287.22,1066.67L287.22,1070.83L285.14,1091.64L285.14,1098.93L284.1,1106.21L284.1,1113.5L284.1,1119.74L283.06,1124.94L283.06,1130.15L283.06,1135.35L282.02,1139.51L282.02,1141.59L282.02,1146.8L282.02,1148.88L282.02,1152L280.98,1155.12L280.98,1157.2L279.93,1160.33L278.89,1162.41L278.89,1163.45L277.85,1164.49L276.81,1165.53L276.81,1166.57L275.77,1167.61L275.77,1169.69L276.81,1171.77L276.81,1173.85L276.81,1174.89L276.81,1178.02L276.81,1185.3L276.81,1189.46L276.81,1194.67L276.81,1198.83L276.81,1202.99L275.77,1206.11L274.73,1209.24L274.73,1212.36L274.73,1215.48L273.69,1221.72L272.65,1227.97L272.65,1230.05L271.61,1232.13L271.61,1235.25L271.61,1237.33L272.65,1241.5L272.65,1243.58L271.61,1246.7L271.61,1250.86L271.61,1252.94L271.61,1253.98L272.65,1258.15L272.65,1260.23" fill="none" stroke="#000000" style="-webkit-tap-highlight-color: rgba(0, 0, 0, 0); stroke-linecap: round; stroke-linejoin: round; stroke-width: 6;" /><path d="M171.71,1136.39L172.75,1135.35L174.83,1132.23L178.99,1131.19L185.24,1130.15L191.48,1131.19L198.76,1133.27L215.41,1136.39L225.82,1136.39L236.23,1137.43L245.59,1138.47L252.88,1139.51L260.16,1141.59L266.41,1143.67L271.61,1143.67L276.81,1144.72L286.18,1146.8L289.3,1148.88L292.42,1148.88L294.5,1148.88L295.54,1148.88" fill="none" stroke="#000000" style="-webkit-tap-highlight-color: rgba(0, 0, 0, 0); stroke-linecap: round; stroke-linejoin: round; stroke-width: 6;" /><path d="M169.63,1134.31L168.59,1135.35L166.5,1138.47L166.5,1143.67L165.46,1152L164.42,1158.24L164.42,1165.53L162.34,1173.85L161.3,1183.22L160.26,1199.87L160.26,1206.11L159.22,1212.36L158.18,1218.6L157.14,1223.8L156.1,1230.05L156.1,1235.25L155.06,1240.46L154.02,1244.62L151.93,1253.98L151.93,1258.15L151.93,1262.31L151.93,1265.43L151.93,1268.55L151.93,1269.59L152.98,1268.55" fill="none" stroke="#000000" style="-webkit-tap-highlight-color: rgba(0, 0, 0, 0); stroke-linecap: round; stroke-linejoin: round; stroke-width: 6;" /><path d="M292.42,1167.61L293.46,1168.65L294.5,1169.69L296.59,1169.69L298.67,1169.69L309.07,1171.77L314.28,1171.77L320.52,1171.77L326.76,1172.81L331.97,1172.81L338.21,1175.93L344.46,1176.98L349.66,1175.93L355.9,1175.93L363.19,1175.93L372.55,1175.93L382.96,1175.93L388.16,1175.93L392.33,1175.93L397.53,1174.89L402.73,1174.89L408.98,1174.89L415.22,1174.89L425.63,1173.85L436.03,1173.85L440.2,1171.77L444.36,1168.65L451.64,1169.69L456.85,1169.69L461.01,1170.73L467.25,1173.85L475.58,1174.89L479.74,1174.89L483.9,1174.89L489.11,1175.93L495.35,1176.98L500.55,1176.98L504.72,1179.06L506.8,1180.1L519.28,1181.14L524.49,1179.06L530.73,1176.98L539.06,1173.85L549.46,1172.81L556.75,1171.77L559.87,1170.73L566.11,1169.69" fill="none" stroke="#000000" style="-webkit-tap-highlight-color: rgba(0, 0, 0, 0); stroke-linecap: round; stroke-linejoin: round; stroke-width: 6;" /><path d="M32.26,1261.27L31.22,1261.27L39.54,1261.27L45.79,1261.27L57.24,1261.27L63.48,1262.31L70.76,1263.35L71.8,1263.35L70.76,1262.31L69.72,1261.27L68.68,1261.27L67.64,1259.19L66.6,1259.19L65.56,1257.11L65.56,1256.07L66.6,1253.98L67.64,1251.9L67.64,1250.86L68.68,1247.74L69.72,1243.58L70.76,1239.41L73.89,1224.85L73.89,1218.6L74.93,1212.36L73.89,1197.79L73.89,1194.67L74.93,1191.54L74.93,1190.5L75.97,1187.38L75.97,1185.3" fill="none" stroke="#000000" style="-webkit-tap-highlight-color: rgba(0, 0, 0, 0); stroke-linecap: round; stroke-linejoin: round; stroke-width: 6;" /><path d="M83.25,1226.93L82.21,1229.01L83.25,1230.05L84.29,1231.09L86.37,1232.13L90.54,1235.25L95.74,1236.29L101.98,1236.29L108.23,1235.25L113.43,1234.21L118.63,1233.17L130.08,1230.05L135.28,1227.97" fill="none" stroke="#000000" style="-webkit-tap-highlight-color: rgba(0, 0, 0, 0); stroke-linecap: round; stroke-linejoin: round; stroke-width: 6;" /><path d="M174.83,1253.98L169.63,1255.02L167.54,1257.11L166.5,1261.27L168.59,1262.31L172.75,1262.31L177.95,1264.39L187.32,1265.43L192.52,1266.47L198.76,1267.51L202.93,1268.55L208.13,1268.55L213.33,1268.55L218.54,1268.55L226.86,1268.55L229.98,1268.55L235.19,1268.55L246.63,1268.55L251.84,1268.55L257.04,1268.55L262.24,1266.47L267.45,1266.47L272.65,1266.47L276.81,1266.47L283.06,1266.47L289.3,1262.31L294.5,1264.39L300.75,1265.43L306.99,1265.43L313.24,1264.39L331.97,1265.43L335.09,1266.47L344.46,1267.51L349.66,1265.43L352.78,1264.39L359.02,1265.43L365.27,1268.55L370.47,1270.63L375.67,1267.51L384,1267.51L390.24,1267.51L395.45,1268.55L398.57,1268.55L410.02,1269.59L416.26,1271.67L428.75,1275.84L436.03,1275.84L440.2,1274.8L449.56,1275.84L456.85,1276.88L464.13,1276.88L475.58,1272.72L482.86,1272.72L490.15,1273.76L497.43,1274.8L503.67,1274.8L512,1273.76L517.2,1273.76L519.28,1273.76L530.73,1271.67L535.93,1272.72L540.1,1272.72L545.3,1272.72L548.42,1272.72L553.63,1270.63L560.91,1269.59L566.11,1269.59L568.2,1269.59L572.36,1268.55L575.48,1269.59L576.52,1269.59L579.64,1268.55L580.68,1268.55" fill="none" stroke="#000000" style="-webkit-tap-highlight-color: rgba(0, 0, 0, 0); stroke-linecap: round; stroke-linejoin: round; stroke-width: 6;" /><path d="M652.49,1272.72L649.37,1274.8L649.37,1276.88L651.45,1277.92L654.57,1278.96L658.73,1280L664.98,1281.04L671.22,1283.12L677.46,1284.16L683.71,1286.24L689.95,1287.28L697.24,1287.28L704.52,1287.28L719.09,1287.28L726.37,1287.28L733.66,1286.24L740.94,1285.2L747.19,1284.16L753.43,1282.08L759.67,1281.04L777.37,1276.88L781.53,1275.84L785.69,1274.8L790.89,1273.76L794.02,1272.72L797.14,1272.72L800.26,1271.67L804.42,1271.67L806.5,1271.67L809.63,1271.67L815.87,1271.67L817.95,1271.67L820.03,1271.67L823.15,1271.67L825.24,1271.67L828.36,1271.67L830.44,1271.67L833.56,1271.67L837.72,1272.72L843.97,1272.72L848.13,1273.76L852.29,1273.76L856.46,1274.8L859.58,1275.84L863.74,1276.88L866.86,1276.88L872.07,1277.92L876.23,1277.92L884.55,1276.88L888.72,1276.88L892.88,1277.92L897.04,1277.92L901.2,1277.92L905.37,1277.92L909.53,1277.92L912.65,1277.92L915.77,1277.92L926.18,1277.92L932.42,1276.88L939.71,1275.84" fill="none" stroke="#000000" style="-webkit-tap-highlight-color: rgba(0, 0, 0, 0); stroke-linecap: round; stroke-linejoin: round; stroke-width: 6;" /><path d="M572.36,1158.24L572.36,1159.28L571.32,1159.28L570.28,1159.28L577.56,1155.12L583.8,1152L591.09,1149.92L596.29,1148.88L601.5,1148.88L606.7,1149.92L612.94,1152L620.23,1156.16L635.84,1161.37L643.12,1162.41L655.61,1161.37" fill="none" stroke="#000000" style="-webkit-tap-highlight-color: rgba(0, 0, 0, 0); stroke-linecap: round; stroke-linejoin: round; stroke-width: 6;" /></svg>