<?xml version="1.0" encoding="utf-8" ?>
<svg baseProfile="full" height="1514" version="1.1" width="1024" xmlns="http://www.w3.org/2000/svg" xmlns:ev="http://www.w3.org/2001/xml-events" xmlns:xlink="http://www.w3.org/1999/xlink"><defs /><path d="M4.01,866.26L4.01,863.58L4.01,860.91L9.36,860.91L14.7,860.91L22.73,858.23L30.75,855.56L41.44,852.89L52.14,847.54L62.83,842.19L70.85,839.52L78.87,834.17L84.22,831.5L86.89,831.5L92.24,831.5L97.59,831.5L100.26,828.83L105.61,828.83L108.28,826.15L113.63,826.15L118.98,823.48L124.32,823.48L129.67,823.48L137.69,820.8L143.04,820.8L145.71,820.8L151.06,818.13L153.73,818.13L159.08,815.46L167.1,815.46L172.45,815.46L177.8,815.46L183.14,812.78L188.49,810.11L193.84,810.11L199.19,807.44L207.21,804.76L212.55,804.76L220.57,802.09L228.6,802.09L233.94,799.42L241.96,796.74L247.31,796.74L255.33,794.07L260.68,791.39L268.7,788.72L276.72,788.72L284.74,786.05L292.76,783.37L298.11,780.7L306.13,778.03L314.15,778.03L324.85,775.35L332.87,775.35L340.89,772.68L351.58,770.01L359.6,767.33L370.3,764.66L378.32,764.66L383.67,761.98L389.01,761.98L391.69,761.98L394.36,761.98L397.03,761.98L397.03,764.66L399.71,767.33L399.71,770.01L402.38,772.68L405.05,775.35L407.73,780.7L410.4,783.37L413.08,788.72L418.42,794.07L421.1,799.42L423.77,804.76L426.44,807.44L429.12,812.78L431.79,818.13L431.79,823.48L434.46,826.15L434.46,831.5L437.14,834.17L439.81,836.85L439.81,842.19L439.81,844.87L442.49,850.21L442.49,855.56L442.49,858.23L442.49,863.58L442.49,868.93L445.16,871.6L445.16,874.28L445.16,879.62L445.16,884.97L447.83,890.32L447.83,895.67L447.83,903.69L450.51,909.03L450.51,922.4L453.18,925.08L453.18,933.1L455.85,941.12L455.85,946.46L455.85,954.49L455.85,959.83L458.53,965.18L458.53,967.85L458.53,962.51L455.85,959.83" fill="none" stroke="#000000" style="-webkit-tap-highlight-color: rgba(0, 0, 0, 0); stroke-linecap: round; stroke-linejoin: round; stroke-width: 7;" /><path d="M397.03,778.03L399.71,778.03L399.71,775.35L397.03,772.68L397.03,770.01L394.36,767.33L391.69,764.66L389.01,761.98L383.67,759.31L378.32,753.96L370.3,748.62L362.28,743.27L354.26,740.6L343.56,737.92L335.54,735.25L327.52,732.57L316.83,729.9L311.48,729.9L306.13,729.9L300.78,727.23L298.11,727.23L298.11,724.55L295.44,721.88L292.76,719.21L290.09,716.53L284.74,711.19L282.07,708.51L279.39,703.16L274.05,700.49L271.37,695.14L266.03,692.47L260.68,689.8L255.33,687.12L247.31,684.45L241.96,681.78L239.29,679.1L233.94,673.75L228.6,671.08L223.25,668.41L220.57,665.73L215.23,665.73L212.55,663.06L207.21,663.06L204.53,660.39L199.19,657.71L196.51,657.71L193.84,655.04L188.49,655.04L185.82,655.04L180.47,655.04L175.12,652.37L167.1,652.37L161.75,652.37L156.41,652.37L148.39,649.69L140.37,649.69L135.02,647.02L127,647.02L116.3,644.34L108.28,644.34L97.59,641.67L86.89,641.67L76.2,641.67L68.18,641.67L60.16,641.67L54.81,641.67L46.79,641.67L38.77,641.67L33.42,641.67L28.07,644.34L22.73,647.02L17.38,649.69L9.36,652.37L4.01,657.71L1.34,660.39" fill="none" stroke="#000000" style="-webkit-tap-highlight-color: rgba(0, 0, 0, 0); stroke-linecap: round; stroke-linejoin: round; stroke-width: 7;" /><path d="M12.03,794.07L6.68,794.07L4.01,794.07L1.34,794.07" fill="none" stroke="#000000" style="-webkit-tap-highlight-color: rgba(0, 0, 0, 0); stroke-linecap: round; stroke-linejoin: round; stroke-width: 7;" /><path d="M4.01,794.07L14.7,791.39L28.07,788.72L44.11,788.72L60.16,786.05L76.2,786.05L89.57,786.05L102.93,786.05L116.3,786.05L129.67,783.37L143.04,783.37L153.73,783.37L164.43,780.7L172.45,778.03L185.82,775.35L196.51,772.68L209.88,770.01L223.25,764.66L233.94,759.31L241.96,756.64L247.31,753.96L255.33,751.29L263.35,748.62L271.37,748.62L276.72,748.62L282.07,748.62L287.42,748.62L290.09,748.62L295.44,745.94L300.78,745.94L303.46,743.27" fill="none" stroke="#000000" style="-webkit-tap-highlight-color: rgba(0, 0, 0, 0); stroke-linecap: round; stroke-linejoin: round; stroke-width: 7;" /><path d="M402.38,716.53L402.38,719.21L399.71,719.21L397.03,719.21L394.36,716.53L391.69,716.53L389.01,713.86L383.67,711.19L380.99,708.51L375.64,703.16L372.97,695.14L372.97,687.12L372.97,676.43L372.97,665.73L375.64,655.04L375.64,641.67L375.64,628.3L378.32,614.93L378.32,601.57L380.99,588.2L380.99,577.5L380.99,564.14L380.99,548.09L380.99,532.05L380.99,518.68L378.32,505.32L378.32,494.62L375.64,483.93L375.64,475.91L375.64,467.89L375.64,459.86L375.64,451.84L375.64,443.82L375.64,438.48L375.64,430.45L375.64,425.11L375.64,414.41L375.64,406.39L375.64,395.7L378.32,387.68L378.32,379.66L380.99,374.31L380.99,368.96L383.67,363.61L389.01,344.9L389.01,334.2L391.69,326.18L391.69,315.49L391.69,307.47L389.01,302.12L386.34,294.1L383.67,288.75L380.99,280.73L378.32,272.71L375.64,264.69L370.3,259.34L367.62,253.99L364.95,248.65L359.6,240.63L356.93,235.28L354.26,229.93L348.91,224.58L343.56,219.24L338.21,213.89L332.87,208.54L327.52,203.2L322.17,200.52L314.15,200.52L306.13,197.85L300.78,197.85L292.76,197.85L284.74,195.17L279.39,195.17L274.05,192.5L266.03,189.83L260.68,187.15L255.33,181.81L249.98,179.13L241.96,176.46L236.62,173.79L231.27,171.11L223.25,168.44L215.23,165.77L207.21,165.77L199.19,163.09L191.16,160.42L180.47,160.42L172.45,157.74L161.75,157.74L153.73,155.07L148.39,155.07L140.37,152.4L135.02,147.05L129.67,144.38L124.32,141.7L118.98,139.03L113.63,136.36L108.28,133.68L102.93,131.01L94.91,128.33L89.57,125.66L81.55,125.66L73.52,122.99L68.18,122.99L62.83,122.99L57.48,122.99L49.46,122.99L44.11,125.66L38.77,125.66L30.75,128.33L25.4,128.33L20.05,131.01L12.03,136.36L6.68,139.03L1.34,141.7" fill="none" stroke="#000000" style="-webkit-tap-highlight-color: rgba(0, 0, 0, 0); stroke-linecap: round; stroke-linejoin: round; stroke-width: 7;" /><path d="M1.34,144.38" fill="none" stroke="#000000" style="-webkit-tap-highlight-color: rgba(0, 0, 0, 0); stroke-linecap: round; stroke-linejoin: round; stroke-width: 7;" /><path d="M105.61,435.8L105.61,433.13L102.93,433.13L100.26,433.13L94.91,435.8L92.24,441.15L89.57,446.5L86.89,451.84L86.89,459.86L86.89,465.21L86.89,473.23L89.57,478.58L92.24,481.25L97.59,483.93L105.61,486.6L110.96,486.6L118.98,483.93L124.32,481.25L129.67,478.58L129.67,473.23L132.34,462.54L132.34,454.52L129.67,443.82L124.32,435.8L116.3,430.45L102.93,430.45L92.24,438.48L84.22,449.17L78.87,457.19L78.87,462.54L81.55,465.21L89.57,465.21" fill="none" stroke="#000000" style="-webkit-tap-highlight-color: rgba(0, 0, 0, 0); stroke-linecap: round; stroke-linejoin: round; stroke-width: 7;" /><path d="M356.93,203.2L354.26,200.52L348.91,197.85L346.23,197.85L343.56,197.85L340.89,200.52L340.89,203.2L338.21,205.87L340.89,205.87L343.56,205.87L351.58,205.87L359.6,205.87L367.62,205.87L378.32,205.87L389.01,208.54L399.71,213.89L407.73,221.91L418.42,229.93L426.44,237.95L434.46,243.3L439.81,251.32L447.83,256.67L453.18,262.02L461.2,267.36L466.55,275.38L469.22,280.73L471.9,288.75L474.57,294.1L474.57,299.45L474.57,304.79L474.57,312.81L474.57,318.16L474.57,326.18L474.57,334.2L477.24,342.22L477.24,347.57L479.92,350.25L482.59,350.25L485.26,352.92L490.61,352.92L495.96,355.59L503.98,358.27L514.67,358.27L522.69,358.27L533.39,355.59L544.08,352.92L554.78,352.92L565.47,350.25L576.17,350.25L586.86,347.57L600.23,344.9L613.6,344.9L626.97,344.9L640.33,344.9L653.7,344.9L664.4,347.57L675.09,347.57L685.79,347.57L693.81,347.57L701.83,347.57L707.17,344.9L712.52,344.9L715.2,344.9L720.54,344.9L725.89,344.9L728.56,347.57L733.91,347.57L739.26,347.57L741.93,350.25L747.28,350.25L749.95,352.92L752.63,352.92L757.97,355.59L760.65,358.27L765.99,363.61L768.67,366.29L771.34,371.63L776.69,374.31L782.04,379.66L787.38,385L792.73,390.35L798.08,393.02L803.43,395.7L808.77,401.04L811.45,403.72L816.79,406.39L822.14,409.07L824.81,411.74L830.16,414.41L835.51,417.09L840.86,419.76L843.53,419.76L848.88,422.43L854.22,425.11L859.57,427.78L862.25,430.45L867.59,433.13L872.94,435.8L878.29,435.8L880.96,438.48L886.31,438.48L891.66,438.48L897,441.15L902.35,441.15L910.37,443.82L918.39,443.82L926.41,443.82L934.43,446.5L939.78,446.5L950.48,446.5L958.5,449.17L966.52,449.17L971.86,449.17L974.54,449.17L977.21,446.5L982.56,446.5L985.23,446.5L998.6,446.5L1003.95,443.82L1011.97,443.82L1014.64,441.15L1017.32,441.15L1011.97,438.48" fill="none" stroke="#000000" style="-webkit-tap-highlight-color: rgba(0, 0, 0, 0); stroke-linecap: round; stroke-linejoin: round; stroke-width: 7;" /><path d="M573.49,649.69L573.49,652.37L570.82,652.37L570.82,655.04L570.82,657.71L570.82,660.39L573.49,663.06L576.17,663.06L576.17,660.39L576.17,655.04L576.17,649.69L576.17,641.67L576.17,630.98L578.84,622.96L578.84,614.93L578.84,609.59L578.84,606.91L581.51,604.24L584.19,604.24L589.54,601.57L594.88,598.89L608.25,593.55L613.6,590.87L618.95,588.2L626.97,585.52L632.31,585.52L640.33,585.52L648.36,588.2L653.7,588.2L661.72,588.2L667.07,590.87L675.09,593.55L680.44,596.22L685.79,598.89L691.13,601.57L696.48,604.24L701.83,606.91L707.17,606.91L712.52,609.59L717.87,609.59L720.54,609.59L725.89,609.59L731.24,612.26L733.91,612.26L733.91,614.93L736.58,617.61L739.26,622.96L739.26,625.63L739.26,630.98L741.93,633.65L741.93,639L741.93,644.34L741.93,647.02L744.61,652.37L744.61,657.71L744.61,665.73L744.61,671.08L744.61,676.43L741.93,684.45L739.26,692.47L736.58,700.49L736.58,708.51L736.58,713.86L736.58,721.88L736.58,727.23L736.58,735.25L736.58,743.27L736.58,751.29L736.58,756.64L736.58,764.66L733.91,770.01L733.91,778.03L733.91,786.05L733.91,791.39L733.91,799.42L733.91,807.44L736.58,812.78L736.58,818.13L739.26,823.48L739.26,828.83L739.26,842.19L739.26,847.54L739.26,855.56L739.26,863.58L736.58,868.93L733.91,874.28L728.56,879.62L725.89,884.97L723.22,890.32L717.87,895.67L712.52,901.01L707.17,906.36L701.83,911.71L699.15,914.38L696.48,917.05L691.13,919.73L685.79,922.4L680.44,925.08L675.09,925.08L667.07,925.08L659.05,925.08L653.7,925.08L648.36,925.08L643.01,925.08L634.99,925.08L626.97,927.75L618.95,927.75L613.6,930.42L608.25,935.77L602.9,938.44L600.23,938.44L597.56,938.44L594.88,935.77L594.88,933.1L592.21,930.42L592.21,927.75L589.54,925.08L589.54,922.4L586.86,919.73L586.86,917.05L584.19,911.71L581.51,909.03L578.84,903.69L573.49,901.01L570.82,895.67L568.15,892.99L565.47,887.64L562.8,884.97L560.13,882.3L557.45,876.95L557.45,874.28L557.45,868.93L557.45,860.91L557.45,855.56L557.45,850.21L557.45,844.87L557.45,842.19L557.45,836.85L557.45,831.5L560.13,820.8L560.13,815.46L562.8,807.44L565.47,799.42L565.47,794.07L568.15,788.72L568.15,780.7L570.82,775.35L570.82,770.01L570.82,764.66L570.82,759.31L570.82,751.29L570.82,745.94L573.49,737.92L573.49,729.9L573.49,721.88L576.17,713.86L576.17,705.84L578.84,697.82L581.51,689.8L581.51,681.78L581.51,676.43L581.51,668.41L581.51,663.06L578.84,655.04L573.49,644.34L570.82,636.32L568.15,625.63L568.15,620.28L565.47,612.26L565.47,606.91L565.47,601.57L568.15,596.22L568.15,588.2L570.82,582.85L570.82,577.5L573.49,574.83L573.49,572.16L573.49,569.48L576.17,564.14" fill="none" stroke="#000000" style="-webkit-tap-highlight-color: rgba(0, 0, 0, 0); stroke-linecap: round; stroke-linejoin: round; stroke-width: 7;" /><path d="M458.53,700.49L458.53,703.16L458.53,705.84L458.53,708.51L458.53,711.19L458.53,713.86L458.53,716.53L461.2,719.21L463.87,724.55L466.55,727.23L474.57,729.9L479.92,732.57L485.26,735.25L490.61,740.6L493.28,743.27L495.96,748.62L495.96,751.29L498.63,756.64L498.63,761.98L501.31,767.33L501.31,775.35L501.31,780.7L498.63,786.05L498.63,788.72L498.63,794.07L498.63,796.74L498.63,802.09L498.63,807.44L498.63,812.78L498.63,818.13L498.63,823.48L498.63,826.15L495.96,831.5L495.96,839.52L495.96,844.87L495.96,852.89L495.96,860.91L495.96,868.93L495.96,874.28L495.96,879.62L495.96,887.64L498.63,892.99L498.63,898.34L498.63,906.36L498.63,911.71L498.63,917.05L498.63,925.08L498.63,930.42L498.63,938.44L498.63,943.79L498.63,951.81L498.63,957.16L501.31,965.18L501.31,970.53L501.31,975.87L501.31,981.22L503.98,986.57L503.98,991.92L503.98,994.59L503.98,997.26L503.98,999.94L506.65,1005.28L506.65,1007.96L506.65,1013.31L506.65,1018.65L506.65,1024L503.98,1024L503.98,1026.67L503.98,1021.33L503.98,1018.65" fill="none" stroke="#000000" style="-webkit-tap-highlight-color: rgba(0, 0, 0, 0); stroke-linecap: round; stroke-linejoin: round; stroke-width: 7;" /><path d="M415.75,778.03L413.08,778.03L413.08,780.7L413.08,783.37L415.75,783.37L418.42,783.37L423.77,786.05L429.12,788.72L434.46,794.07L439.81,799.42L445.16,804.76L445.16,810.11L445.16,812.78L439.81,807.44L437.14,799.42L434.46,788.72L431.79,778.03L431.79,764.66L431.79,753.96L431.79,743.27L431.79,735.25L431.79,727.23L434.46,719.21L437.14,711.19L442.49,700.49L445.16,692.47L450.51,684.45L453.18,676.43L455.85,665.73L461.2,655.04L463.87,641.67L466.55,630.98L466.55,620.28L469.22,606.91L469.22,593.55L471.9,582.85L474.57,569.48L477.24,556.11L482.59,545.42L485.26,534.73L487.94,524.03L490.61,516.01L490.61,507.99L490.61,497.3L493.28,486.6L493.28,475.91L493.28,465.21L495.96,454.52L498.63,446.5L498.63,438.48L498.63,427.78L498.63,419.76L498.63,406.39L495.96,395.7L495.96,387.68L495.96,376.98L498.63,368.96L498.63,363.61L495.96,358.27L493.28,350.25L490.61,339.55L487.94,331.53L487.94,323.51L485.26,318.16L485.26,315.49L487.94,315.49L490.61,318.16L493.28,318.16" fill="none" stroke="#000000" style="-webkit-tap-highlight-color: rgba(0, 0, 0, 0); stroke-linecap: round; stroke-linejoin: round; stroke-width: 7;" /><path d="M838.18,716.53L832.84,716.53L830.16,716.53L824.81,716.53L819.47,716.53L814.12,719.21L808.77,719.21L803.43,719.21L800.75,719.21L798.08,719.21L795.4,719.21L798.08,716.53L806.1,708.51L814.12,705.84L822.14,700.49L832.84,695.14L840.86,692.47L851.55,689.8L862.25,689.8L870.27,689.8L883.63,689.8L894.33,689.8L905.02,689.8L913.04,689.8L921.07,684.45L929.09,679.1L934.43,673.75L942.45,665.73L947.8,660.39L955.82,652.37L961.17,644.34L969.19,639L974.54,633.65L977.21,630.98L982.56,625.63L987.91,622.96L993.25,617.61L998.6,614.93L1001.27,609.59L1006.62,606.91L1006.62,604.24L1009.3,604.24L1009.3,606.91L1006.62,612.26L1006.62,614.93" fill="none" stroke="#000000" style="-webkit-tap-highlight-color: rgba(0, 0, 0, 0); stroke-linecap: round; stroke-linejoin: round; stroke-width: 7;" /><path d="M757.97,874.28L757.97,871.6L757.97,866.26L757.97,858.23L757.97,855.56L757.97,850.21L755.3,847.54L755.3,844.87L752.63,847.54L752.63,852.89L752.63,858.23L752.63,866.26L749.95,874.28L749.95,884.97L747.28,895.67L744.61,903.69L741.93,909.03L739.26,914.38L736.58,919.73L733.91,922.4L728.56,927.75L725.89,933.1L723.22,938.44L723.22,943.79L720.54,949.14L717.87,954.49L715.2,959.83L709.85,962.51L704.5,965.18L699.15,965.18L693.81,965.18L688.46,967.85L683.11,967.85L677.77,967.85L669.74,967.85L664.4,970.53L659.05,970.53L651.03,970.53L643.01,970.53L634.99,970.53L626.97,973.2L621.62,975.87L613.6,978.55L608.25,981.22L600.23,981.22L594.88,983.9L586.86,986.57L581.51,989.24L576.17,991.92L568.15,994.59L562.8,997.26L554.78,999.94L549.43,1002.61L541.41,1002.61L536.06,1005.28L528.04,1005.28L522.69,1005.28L517.35,1005.28L512,1007.96L506.65,1007.96L501.31,1010.63L493.28,1013.31L487.94,1015.98L479.92,1021.33L474.57,1024L466.55,1026.67L458.53,1032.02L450.51,1034.69L442.49,1040.04L434.46,1042.72L426.44,1045.39L418.42,1048.06L410.4,1050.74L402.38,1053.41L394.36,1053.41L386.34,1053.41L375.64,1056.08L367.62,1058.76L359.6,1061.43L348.91,1064.1L340.89,1066.78L330.19,1069.45L319.5,1074.8L308.8,1080.15L300.78,1082.82L290.09,1088.17L279.39,1093.51L271.37,1101.54L260.68,1106.88L252.66,1109.56L241.96,1114.9L233.94,1120.25L225.92,1122.92L217.9,1128.27L209.88,1130.95L199.19,1136.29L191.16,1136.29L183.14,1138.97L172.45,1141.64L164.43,1144.31L156.41,1146.99L148.39,1149.66L137.69,1152.33L127,1157.68L116.3,1160.36L105.61,1163.03L94.91,1165.7L86.89,1171.05L76.2,1176.4L68.18,1181.74L60.16,1187.09L52.14,1192.44L44.11,1200.46L38.77,1208.48L33.42,1213.83L33.42,1219.17L33.42,1213.83" fill="none" stroke="#000000" style="-webkit-tap-highlight-color: rgba(0, 0, 0, 0); stroke-linecap: round; stroke-linejoin: round; stroke-width: 7;" /><path d="M33.42,983.9L25.4,975.87L14.7,970.53L9.36,965.18L4.01,962.51L1.34,962.51" fill="none" stroke="#000000" style="-webkit-tap-highlight-color: rgba(0, 0, 0, 0); stroke-linecap: round; stroke-linejoin: round; stroke-width: 7;" /><path d="M1.34,965.18L6.68,965.18L12.03,965.18L20.05,965.18L30.75,965.18L44.11,965.18L57.48,962.51L70.85,959.83L81.55,959.83L89.57,957.16L97.59,957.16L108.28,957.16L118.98,957.16L127,957.16L135.02,954.49L143.04,954.49L151.06,954.49L159.08,957.16L169.78,957.16L177.8,959.83L188.49,959.83L199.19,962.51L207.21,962.51L217.9,962.51L225.92,962.51L236.62,962.51L247.31,962.51L258.01,962.51L266.03,965.18L274.05,965.18L279.39,965.18L287.42,967.85L295.44,967.85L303.46,967.85L311.48,967.85L322.17,970.53L332.87,973.2L340.89,975.87L348.91,975.87L356.93,975.87L364.95,975.87L375.64,975.87L386.34,975.87L397.03,973.2L405.05,973.2L415.75,973.2L426.44,975.87L434.46,975.87L442.49,978.55L445.16,981.22L447.83,981.22L450.51,983.9L453.18,986.57L453.18,989.24" fill="none" stroke="#000000" style="-webkit-tap-highlight-color: rgba(0, 0, 0, 0); stroke-linecap: round; stroke-linejoin: round; stroke-width: 7;" /><path d="M560.13,844.87L560.13,842.19L560.13,839.52L560.13,836.85L560.13,834.17L562.8,834.17L565.47,831.5L568.15,831.5L573.49,831.5L584.19,828.83L594.88,828.83L605.58,828.83L616.27,828.83L626.97,831.5L634.99,831.5L645.68,834.17L653.7,836.85L659.05,836.85L667.07,839.52L672.42,842.19L677.77,842.19L688.46,844.87L693.81,847.54L696.48,847.54L701.83,850.21L704.5,850.21L707.17,847.54L709.85,847.54L712.52,844.87L712.52,842.19" fill="none" stroke="#000000" style="-webkit-tap-highlight-color: rgba(0, 0, 0, 0); stroke-linecap: round; stroke-linejoin: round; stroke-width: 7;" /><path d="M779.36,844.87L776.69,844.87L776.69,842.19L774.02,842.19L774.02,839.52L774.02,836.85L776.69,834.17L776.69,828.83L779.36,826.15L782.04,820.8L784.71,818.13L790.06,812.78L795.4,807.44L803.43,804.76L811.45,799.42L819.47,796.74L830.16,794.07L840.86,794.07L851.55,791.39L864.92,791.39L875.61,791.39L886.31,791.39L894.33,794.07L902.35,794.07L913.04,794.07L921.07,796.74L929.09,796.74L937.11,796.74L947.8,796.74L953.15,796.74L958.5,796.74L966.52,796.74L971.86,796.74L977.21,796.74L985.23,796.74L990.58,796.74L995.93,796.74L1003.95,796.74L1006.62,796.74L1011.97,794.07L1014.64,786.05L1019.99,775.35L1022.66,767.33" fill="none" stroke="#000000" style="-webkit-tap-highlight-color: rgba(0, 0, 0, 0); stroke-linecap: round; stroke-linejoin: round; stroke-width: 7;" /><path d="M782.04,711.19L779.36,708.51L779.36,705.84L776.69,705.84L774.02,703.16L771.34,700.49L768.67,700.49L765.99,700.49L765.99,703.16L765.99,708.51L765.99,716.53L765.99,727.23L768.67,740.6L768.67,753.96L771.34,764.66L771.34,778.03L771.34,786.05L771.34,796.74L771.34,807.44L771.34,815.46L771.34,823.48L771.34,826.15L771.34,828.83L771.34,831.5L771.34,834.17L771.34,831.5" fill="none" stroke="#000000" style="-webkit-tap-highlight-color: rgba(0, 0, 0, 0); stroke-linecap: round; stroke-linejoin: round; stroke-width: 7;" /><path d="M741.93,727.23L741.93,724.55L739.26,721.88L739.26,719.21L733.91,719.21L731.24,721.88L728.56,727.23L723.22,732.57L720.54,740.6L717.87,753.96L715.2,767.33L715.2,780.7L715.2,791.39L717.87,804.76L717.87,812.78L720.54,818.13L723.22,820.8L725.89,823.48L728.56,823.48L731.24,823.48L733.91,823.48" fill="none" stroke="#000000" style="-webkit-tap-highlight-color: rgba(0, 0, 0, 0); stroke-linecap: round; stroke-linejoin: round; stroke-width: 7;" /><path d="M1019.99,604.24L1019.99,601.57L1017.32,598.89L1014.64,598.89L1009.3,598.89L1006.62,598.89L1003.95,601.57L1001.27,606.91L998.6,612.26L998.6,620.28L1001.27,633.65L1003.95,649.69L1003.95,668.41L1006.62,687.12L1006.62,703.16L1003.95,719.21L1003.95,732.57L1003.95,743.27L1003.95,753.96L1003.95,761.98L1003.95,767.33L1003.95,770.01L1006.62,770.01L1009.3,767.33" fill="none" stroke="#000000" style="-webkit-tap-highlight-color: rgba(0, 0, 0, 0); stroke-linecap: round; stroke-linejoin: round; stroke-width: 7;" /><path d="M731.24,933.1L731.24,930.42L728.56,930.42L725.89,930.42L723.22,930.42L725.89,930.42L731.24,933.1L736.58,933.1L747.28,935.77L755.3,935.77L765.99,935.77L774.02,938.44L782.04,938.44L787.38,938.44L792.73,938.44L798.08,935.77L803.43,933.1L808.77,930.42L814.12,927.75L819.47,925.08L824.81,919.73L830.16,914.38L835.51,911.71L840.86,906.36L846.2,901.01L851.55,898.34L856.9,892.99L862.25,890.32L864.92,887.64L870.27,884.97L875.61,882.3L880.96,879.62L888.98,876.95L894.33,871.6L899.68,868.93L905.02,863.58L910.37,860.91L913.04,860.91L915.72,858.23L918.39,858.23L921.07,858.23L921.07,860.91" fill="none" stroke="#000000" style="-webkit-tap-highlight-color: rgba(0, 0, 0, 0); stroke-linecap: round; stroke-linejoin: round; stroke-width: 7;" /><path d="M921.07,935.77L921.07,938.44L923.74,941.12L929.09,943.79L934.43,949.14L939.78,954.49L945.13,957.16L947.8,959.83L953.15,959.83L955.82,959.83L955.82,957.16L955.82,954.49L958.5,954.49L961.17,951.81L963.84,949.14L966.52,946.46L971.86,943.79L977.21,941.12L982.56,938.44L987.91,935.77L990.58,935.77L993.25,933.1L993.25,930.42" fill="none" stroke="#000000" style="-webkit-tap-highlight-color: rgba(0, 0, 0, 0); stroke-linecap: round; stroke-linejoin: round; stroke-width: 7;" /><path d="M827.49,532.05L827.49,529.38L824.81,529.38L827.49,529.38L830.16,529.38L832.84,532.05L835.51,537.4L835.51,540.07L835.51,548.09L832.84,553.44L832.84,558.79L832.84,561.46L832.84,566.81L835.51,572.16L835.51,574.83L835.51,577.5L835.51,580.18L835.51,582.85L832.84,582.85L832.84,585.52L830.16,585.52L827.49,585.52L822.14,582.85L819.47,582.85L816.79,580.18L811.45,580.18L808.77,577.5L806.1,577.5L803.43,577.5L800.75,580.18L800.75,582.85L798.08,588.2L798.08,593.55L798.08,598.89L800.75,604.24L803.43,612.26L806.1,617.61L808.77,622.96L808.77,625.63L808.77,628.3L808.77,630.98L811.45,628.3" fill="none" stroke="#000000" style="-webkit-tap-highlight-color: rgba(0, 0, 0, 0); stroke-linecap: round; stroke-linejoin: round; stroke-width: 7;" /><path d="M969.19,556.11L963.84,556.11L958.5,550.77L953.15,548.09L950.48,548.09L950.48,545.42L950.48,548.09L950.48,550.77L953.15,556.11L958.5,561.46L963.84,566.81L969.19,574.83L974.54,580.18L977.21,582.85L979.89,585.52L985.23,588.2L987.91,590.87L990.58,590.87L993.25,590.87L995.93,590.87L998.6,593.55L1001.27,593.55L1001.27,596.22L1003.95,598.89L1003.95,601.57L1003.95,606.91L1001.27,609.59L1001.27,614.93L998.6,617.61L995.93,620.28" fill="none" stroke="#000000" style="-webkit-tap-highlight-color: rgba(0, 0, 0, 0); stroke-linecap: round; stroke-linejoin: round; stroke-width: 7;" /></svg>