<?xml version="1.0" encoding="utf-8" ?>
<svg baseProfile="full" height="1514" version="1.1" width="1024" xmlns="http://www.w3.org/2000/svg" xmlns:ev="http://www.w3.org/2001/xml-events" xmlns:xlink="http://www.w3.org/1999/xlink"><defs /><path d="M34.38,137.52L29,138L27,138" fill="none" stroke="#000000" style="-webkit-tap-highlight-color: rgba(0, 0, 0, 0); stroke-linecap: round; stroke-linejoin: round; stroke-width: 7;" /><path d="M28,124L28,124L28,124L14.73,120.33L27,123L11,120L11,120L6,121L7,117L2,121L7,116L11,120L11,120L14,122L17,121L18,121L18,121L27,123L27,123L29,123L32,122L34,122L37,122L39,123L41,124L44,122L47,122L49,121L52,122L54,123L56,122L59,122L61,123L63,122L67,123L69,123L71,122L74,123L76,122L80,121L81,121L85,120L83,120L88,120L91,120L94,122L96,125L96,125L97,126L98,127L99,129L99,129L99,129L106,136L106,136L106,136L107,136L113,136L115,137L118,137L115,137L122,138L123,139L125,138L129,139L130,139L133,139L133,139L133,139L133,139L133,139L148,139L148,139L148,139L150,139L153,140L157,141L156,141L160,142L162,141L165,141L167,142L168,143L168,143L179,143L179,145L179,145L179,146L183,148L185,151L184,150L187,153L191,155L192,156L191,155L192,157L200,153L197,169L206,159L198,170L207,164L202,174L208,171L204,175L204,176L209,182L204,176L209,182L209,182L211,182L214,182L214,182L219,181L222,182L223,182L222,182L229,183L226,182L231,184L231,184L239,184L241,184L235,184L233,184L243,184L249,181L245,183L246,182L253,180L255,180L256,180L260,195L263,195L265,195L266,195L267,196L267,196L267,196L267,196L267,196L277,197L277,197L277,197L281,197L282,197L288,198L290,199L290,199L292,199L295,199L296,199L301,198L302,198L304,198L307,198L309,199L312,198L314,198L317,198L318,197L319,196L322,194L324,192L325,191L332,189L332,189" fill="none" stroke="#000000" style="-webkit-tap-highlight-color: rgba(0, 0, 0, 0); stroke-linecap: round; stroke-linejoin: round; stroke-width: 7;" /><path d="M336,190L324.14,186.63L325,190L325,190L325,190L325,190L329,189L334,189L340,191L344,192L351,193L356,194L346,192L359,195L361,196L366,201L362,199L370,202L371,203L373,204L375,203L379,204L382,208L383,208L386,210L389,211L388,211L393,213L395,214L403,217L397,215L403,217L407,220L409,222L412,225L411,224L414,227L422,233L425,235L418,230L420,231L429,241L431,241L432,243L426,238L434,246L436,248L435,247L439,250L439,250L439,250L440,253L441,255L441,255L445,262L443,260L442,258L447,263L448,268L447,264L450,271L449,270L453,273L448,280L453,273L448,280L457,290L458,290L457,290L457,290L458,290L461,293L464,295L463,298L466,309L466,309L467,298L467,298L466,309L475,314L475,314L477,310L479,317L474,317L481,314L479,317L482,313L483,312L483,312L483,312L483,325L483,325L487,331L488,332L488,332L488,332L488,333L487,335L486,339L486,340L486,343L487,345L489,346L491,347L491,356L491,354L492,358L491,354L494,356L493,358L498,356L497,356L502,355L503,350L506,350L508,349L510,349L513,348L513,348L515,348L515,348L521,344L526,344L528,344L523,344L534,345L535,345L530,344L541,347" fill="none" stroke="#000000" style="-webkit-tap-highlight-color: rgba(0, 0, 0, 0); stroke-linecap: round; stroke-linejoin: round; stroke-width: 7;" /><path d="M541,347L541,347L545,345L547,345L553,354L550,354L553,354L559,354L564,345L560,354L561,354L561,354L572,345L574,345L577,344L572,345L582,344L581,344L582,344L589,353L589,353L589,353L593,343L597,343L602,355L607,355L602,355L609,355L552.52,343.79L557,345L559,345L564,345L567,344L572,345L574,345L587,354L597,355L589,353L607,355L602,355L616,356L610,355L620,355L616,356L626,357L621,355L629,357L631,357L646,357L638,357L639,357L635,357L647,357L647,357L663,345L647,357L670,346L667,346L668,346L667,346L675,346L682,347L678,346L684,348L690,351L687,349L692,352L688,350L697,353L695,353L702,352L701,352L706,352L712,351L711,351L707,352L715,351L717,351L722,351L720,351L724,351L735,351L729,351L731,351L744,352L737,351L742,352L746,352L757,355L749,351L751,351L757,355L761,359L764,359L759,358L766,359L769,359L771,359L779,362L777,361L781,363L783,363L789,366L789,366L798,368L798,368L793,367L791,367L802,370L802,370L806,372L806,372L811,377L812,379L809,374L813,383L813,387L812,390L812,390L812,390L813,395L813,392L814,397L815,398L815,398L818,399L820,400L820,401L825,403L828,403L823,402L830,403L837,403L832,403L835,403L837,403L844,405L841,404L844,405L841,404L844,405L842,422L852,406L842,420L845,422L861,422L847,422L850,422L861,422L861,422L861,422L862,421L863,420L866,425L871,428L869,426L872,429L874,429L874,429L878,431L881,433L882,434L883,436L884,437L885,438L886,439L889,439L889,439L896,442L893,440L896,442L900,443L904,445L907,446L911,446L909,446L915,447L916,447L918,448L918,448L921,448L925,449L927,450L928,450L931,450L931,450L942,456L942,456L942,456L943,456L945,456L946,456L949,455L953,454L955,454L955,454L957,453L960,452L962,451" fill="none" stroke="#000000" style="-webkit-tap-highlight-color: rgba(0, 0, 0, 0); stroke-linecap: round; stroke-linejoin: round; stroke-width: 7;" /><path d="M968,450L972,450L970,450L975,450L977,450L979,450L979,450L985,449L987,449L997,448L992,449L990,449L1007,448L1004,448L1009,448L999,448L1016,447L1022,446L1011,448L1016,447L1022,446" fill="none" stroke="#000000" style="-webkit-tap-highlight-color: rgba(0, 0, 0, 0); stroke-linecap: round; stroke-linejoin: round; stroke-width: 7;" /><path d="M523.05,650.74L509,654L509,654L509,654L509,654L508,653L521,641L523,641L523,638L523,636L526,634L526,631L528,629L530,626L533,624L535,621L535,619L538,616L540,614L543,611L545,609L548,609L550,607L553,604L567,609L567,609L570,606L571,605L571,605L573,604L578,597L579,596L581,594L580,595L583,593L589,589L589,589L586,591L592,587L592,587L596,585L599,584L599,584L604,582L604,582L611,580L607,581L617,577L614,578L621,577L624,577L626,577L629,576L632,576L632,576L643,582L648,583L641,581L653,583L662,581L662,581L665,581L672,583L686,587L685,587L678,585L680,585L693,591L690,589L702,595L697,593L710,601L703,596L713,603L716,605L720,608L723,611L726,613L721,609L729,616L730,617L731,619L732,620L733,621L735,624L737,627L739,629L739,631L742,635L742,634L743,638L743,639L743,639L745,646L745,646L746,648L743,653L743,652L743,656L743,657L741,661L741,665L743,668L743,670L741,675L741,678L741,680L742,687L743,690L743,683L742,685L743,692L743,695L743,697L743,700L743,702L740,707L742,706L740,709L736,715L733,722L738,711L733,717L733,727L733,734L733,729L733,724L733,744L733,737L733,742L733,739L733,751L733,747L733,744L733,750L733,756L733,754L734,759L737,761L737,764L737,765L737,765L740,777L740,777L740,778L739,781L735,786L735,788L734,791L734,796L734,798L734,803L734,801L733,810L733,808L733,813L733,815L733,818L733,820L733,821" fill="none" stroke="#000000" style="-webkit-tap-highlight-color: rgba(0, 0, 0, 0); stroke-linecap: round; stroke-linejoin: round; stroke-width: 7;" /><path d="M734,824L735,828L735,830L735,832L735,835L735,840L735,847L735,841L735,837L735,847L735,850L735,855L735,852L735,859L735,857L735,862L734,866L733,867L732,869L731,872L731,874L731,877L730,879L729,882L729,884L729,884L727,889L727,889L727,889L732,903L732,903L732,903L734,906L733,907L734,906L730,910L733,907L730,910L730,910L728,912L728,912L737,926L737,928L737,931L739,933L739,931" fill="none" stroke="#000000" style="-webkit-tap-highlight-color: rgba(0, 0, 0, 0); stroke-linecap: round; stroke-linejoin: round; stroke-width: 7;" /><path d="M567.25,596.72L573,604L578,597L578,597L578,597L573,604L573,604L573,604L571,606L577,610L576,611L576,615L576,616L576,624L576,619L576,626L580,629L580,635L580,635L582,641L583,646L583,652L583,651L582,654L582,654L580,666L580,663L580,673L580,674L580,678L578,688L579,684L579,683L578,692L576,697L578,695L578,690L578,702L575,705L575,702L578,700L575,707L570,712L571,710L574,716L574,720L575,724L574,717L574,722L575,726L576,729L576,732L575,733L576,737L574,739L574,744L574,742L574,749L574,751L574,759L574,756L574,764L576,766L575,771L574,776L575,781L574,791L575,782L574,788L573,793L573,796L573,798L573,799L572,801L572,801L569,808L569,808L569,808L568,809L567,810L567,810L565,811L561,820L561,818L561,823L562,825L563,828L560,832L563,829L560,835L560,837L565,842L565,840L565,845L565,847L565,850L566,855L565,852L566,857L566,858L565,862L565,864L566,869L566,867L566,872L566,872L564,880L565,875L564,881L567,889L568,890L568,890L572,894L576,895L578,896L576,895L583,898L581,897L586,899L589,900L592,901L592,901L597,908L597,909L597,909L598,914L599,916L599,913L603,917L604,917L607,922L606,918L604,917L607,923L607,924L607,923L607,924L607,924L625,931L624,934L624,934L625,931L625,931L625,931L625,931L625,931L636,920L638,920L641,920L643,920L646,920L647,920L647,920L647,920L647,920L661,931L647,920L663,931" fill="none" stroke="#000000" style="-webkit-tap-highlight-color: rgba(0, 0, 0, 0); stroke-linecap: round; stroke-linejoin: round; stroke-width: 7;" /><path d="M665,931L668,931L673,931L675,931L678,931L680,931L685,933L683,933L688,933L692,936L705,926L690,936L705,926L705,926L705,926L705,926L705,926L707,924L707,924L720,933L705,926L729,933L722,933L724,933L727,933L734,931" fill="none" stroke="#000000" style="-webkit-tap-highlight-color: rgba(0, 0, 0, 0); stroke-linecap: round; stroke-linejoin: round; stroke-width: 7;" /><path d="M412.55,753.88" fill="none" stroke="#000000" style="-webkit-tap-highlight-color: rgba(0, 0, 0, 0); stroke-linecap: round; stroke-linejoin: round; stroke-width: 7;" /><path d="M732,933" fill="none" stroke="#000000" style="-webkit-tap-highlight-color: rgba(0, 0, 0, 0); stroke-linecap: round; stroke-linejoin: round; stroke-width: 7;" /><path d="M418,752L417,749L418,751L420,749L421,749L418,751L418,752L418,752L407,754L407,754L405,753L405,752L402,751L401,751L398,750L396,751L390,748L396,751L386,753L386,754L383,754L383,754L377,757L373,756L376,756L371,760L367,759L362,762L363,761L363,759L359,762L356,761L351,764L354,761L351,764L346,766L344,765L339,766L341,766L337,769L332,771L334,770L328,769L327,769L322,771L317,771L309,773L314,772L307,774L304,776L298,778L298,778L286,781L292,781L278,781L280,781L269,786L266,786L255,790L243,782L243,782L242,783L238,783L238,783L231,789L226,787L223,792L221,792L219,792L216,794L212,793L206,802L199,798L212,793L199,798L189,800L187,800L196,799L178,807L172,809L172,809L182,800L157,814L159,815L154,813L150,812L146,812L134,812L134,812L132,812L130,811L129,810L115,820L113,823" fill="none" stroke="#000000" style="-webkit-tap-highlight-color: rgba(0, 0, 0, 0); stroke-linecap: round; stroke-linejoin: round; stroke-width: 7;" /><path d="M108,823L101,825L98,825L106,825L83,828L91,828L96,828L88,828L81,830L68,823L65,839L68,823L65,839L63,838L62,838L62,838L49,837L62,838L35,834L47,837L34,834L35,834L25,840L24,842L22,841L21,841L20,840L20,840L7,847L20,840" fill="none" stroke="#000000" style="-webkit-tap-highlight-color: rgba(0, 0, 0, 0); stroke-linecap: round; stroke-linejoin: round; stroke-width: 7;" /><path d="M314.32,731.78" fill="none" stroke="#000000" style="-webkit-tap-highlight-color: rgba(0, 0, 0, 0); stroke-linecap: round; stroke-linejoin: round; stroke-width: 7;" /><path d="M5,847L2,847L0,850" fill="none" stroke="#000000" style="-webkit-tap-highlight-color: rgba(0, 0, 0, 0); stroke-linecap: round; stroke-linejoin: round; stroke-width: 7;" /><path d="M312,734L309,734L309,734L299,737L299,737L297,742L292,742L287,742L285,742L280,743L270,746L263,748L276,744L259,747L253,748L241,752L252,746L240,751L236,751L234,749L233,748L230,757L230,757L216,762L214,762L206,755L206,755L203,756L202,755L199,757L194,756L191,759L191,759L184,762L182,763L179,762L177,762L172,765L171,764L165,765L166,765L161,769L155,772L150,768L147,771L143,769L137,774L135,773L128,778L130,774L124,777L123,776L118,772L113,780L113,780L108,780L103,781L106,780L98,781L96,781L91,783L89,783L83,783L81,783" fill="none" stroke="#000000" style="-webkit-tap-highlight-color: rgba(0, 0, 0, 0); stroke-linecap: round; stroke-linejoin: round; stroke-width: 7;" /><path d="M74,786L66,787L69,787L76,786L63,785L59,787L61,785L56,787L54,786L50,786L44,788L47,788L44,788L34,788L28,793L37,787L27,793L25,793L20,791L19,791L12,799L10,799L3,799L9,799L2,799L0,799" fill="none" stroke="#000000" style="-webkit-tap-highlight-color: rgba(0, 0, 0, 0); stroke-linecap: round; stroke-linejoin: round; stroke-width: 7;" /><path d="M103.14,444.47L111,434L113,435L111,434L111,434L110,433L87,447L87,447L87,447L86,438L86,438L87,447L85,448L85,449L84,452L80,460L80,460L80,472L80,461L80,472L80,472L80,472L80,472L83,477L84,482L84,484L84,484L88,488L84,484L88,489L91,488L93,490L95,488L95,492L95,492L103,491L102,491L107,489L106,491L111,486L112,488L110,485L111,486L126,478L125,480L127,473L127,473L127,469L127,467L128,464L129,463L128,444L130,462L133,451" fill="none" stroke="#000000" style="-webkit-tap-highlight-color: rgba(0, 0, 0, 0); stroke-linecap: round; stroke-linejoin: round; stroke-width: 7;" /><path d="M128,444L115,447L113,435L113,447L111,434L111,434L110,433L111,434L110,433L111,434" fill="none" stroke="#000000" style="-webkit-tap-highlight-color: rgba(0, 0, 0, 0); stroke-linecap: round; stroke-linejoin: round; stroke-width: 7;" /><path d="M478.85,365.89L477,363L479,360L475,361L476,362L477,365L477,368L477,371L477,373L478,381L479,383L478,388L479,392L478,395L479,397L479,400L475,405L475,405L475,405L474,407L474,407L475,420L475,420L486,427L486,427L486,427L486,427L486,432L486,435L486,437L486,437L486,437L486,437L484,452L484,449L484,457L470,471L481,459L477,476L477,476L477,476L477,476L477,476L481,488L481,490L481,488L481,489L481,494L481,496L481,497L481,497L481,497L480,498L477,511L477,511L480,515L482,518L482,518L481,516L482,518L480,519L475,537L474,535L475,537L479,545L480,550L480,546L481,553L482,555L481,570L481,567L479,564L481,570L481,582L481,570L481,584L481,587L481,594L481,589L481,597L481,599L481,604L481,607L481,609L481,611L481,619L481,614L468,624L481,621L468,629L468,630L468,630L470,649L472,651L473,652L474,653L475,654L476,655L476,656L476,657L476,657L476,657L476,657L479,670L479,680L479,675L479,673L479,683L479,688L479,690L479,695L479,700L479,702L479,710L479,707L476,715L466,732L476,720L476,717L472,734L472,734L475,735L475,735L476,739L475,742L476,743L475,735L481,763L478,748L478,748L480,749L478,766" fill="none" stroke="#000000" style="-webkit-tap-highlight-color: rgba(0, 0, 0, 0); stroke-linecap: round; stroke-linejoin: round; stroke-width: 7;" /><path d="M481,763L479,766L479,766L479,766L474,776L475,779L474,774L475,779L478,792L478,792L475,779L478,792L478,803L478,794L478,803L478,809L478,810L476,812L479,825L479,830L479,835L479,840L479,845L479,847L479,852L481,857L476,870L475,869L476,871L476,871L476,871L484,886L484,884L484,889L473,906L484,894L473,906L473,906L473,909L473,909L473,909" fill="none" stroke="#000000" style="-webkit-tap-highlight-color: rgba(0, 0, 0, 0); stroke-linecap: round; stroke-linejoin: round; stroke-width: 7;" /><path d="M1009.27,655.65" fill="none" stroke="#000000" style="-webkit-tap-highlight-color: rgba(0, 0, 0, 0); stroke-linecap: round; stroke-linejoin: round; stroke-width: 7;" /><path d="M473,933L476,936L476,936L476,938L489,943L491,950L494,955L496,960L498,965L501,970L503,975L501,972L506,977L506,980L506,982L496,995L498,996L499,997L511,1001L500,998L511,987" fill="none" stroke="#000000" style="-webkit-tap-highlight-color: rgba(0, 0, 0, 0); stroke-linecap: round; stroke-linejoin: round; stroke-width: 7;" /><path d="M1012,659L1012,659L1009,661L1009,661L995,663L997,663L993,664L992,665L986,674L981,676L981,676L980,677L965,660L962,662L962,662L963,684L963,684L963,684L948,674L950,687L946,684L946,684L944,684L938,686L931,688L936,687L926,690L926,690L916,689L917,689L910,691L910,691L907,693L904,694L903,694L898,695L894,696L896,696L884,698L889,696L884,698L881,699L880,699L876,699L874,700L872,700L865,707L865,707L861,707L864,707L861,707L849,712L849,712L841,714L843,713L832,720L832,720L826,728L827,728L832,720L824,729L818,730L820,730L815,731L810,734L803,740L808,737L806,739L803,740L794,743L793,744L793,744L789,746L789,746L786,748L784,749L783,750L784,756L778,754L779,753L778,754L778,756L777,759L774,766L775,764L774,766L774,766L771,774L771,774L771,774L771,776L771,776L771,776L771,776L764,791L766,793L770,806L770,806L770,806L770,806L770,806L769,809L768,813L768,813L768,811L768,815L761,824L764,821L763,822L760,825L759,828L757,832L758,830L756,834L754,837L753,839L752,841L752,841L755,848L751,854L751,845L755,850" fill="none" stroke="#000000" style="-webkit-tap-highlight-color: rgba(0, 0, 0, 0); stroke-linecap: round; stroke-linejoin: round; stroke-width: 7;" /><path d="M749,855L749,856L749,856L739,859L739,859L735,862L735,859L739,859L735,862L734,866L733,867L731,869L731,869L731,872L730,878L729,880" fill="none" stroke="#000000" style="-webkit-tap-highlight-color: rgba(0, 0, 0, 0); stroke-linecap: round; stroke-linejoin: round; stroke-width: 7;" /><path d="M623.73,915.95" fill="none" stroke="#000000" style="-webkit-tap-highlight-color: rgba(0, 0, 0, 0); stroke-linecap: round; stroke-linejoin: round; stroke-width: 7;" /><path d="M729,882L727,889L727,889L727,886L730,903L730,903L730,903L729,904L729,905L730,909L728,912L729,911L728,912L728,912L727,912L728,912L727,926L727,931L727,928L727,933L727,936L728,948L728,948L728,948L728,948L725,950L725,950L724,951L724,951L722,951L718,952L718,952L717,965L717,968" fill="none" stroke="#000000" style="-webkit-tap-highlight-color: rgba(0, 0, 0, 0); stroke-linecap: round; stroke-linejoin: round; stroke-width: 7;" /><path d="M712,970L715,970L712,972L710,972L707,975L702,975L700,977L695,977" fill="none" stroke="#000000" style="-webkit-tap-highlight-color: rgba(0, 0, 0, 0); stroke-linecap: round; stroke-linejoin: round; stroke-width: 7;" /><path d="M624,918L620,919L619,918L616,918L613,918" fill="none" stroke="#000000" style="-webkit-tap-highlight-color: rgba(0, 0, 0, 0); stroke-linecap: round; stroke-linejoin: round; stroke-width: 7;" /><path d="M427.28,979.8" fill="none" stroke="#000000" style="-webkit-tap-highlight-color: rgba(0, 0, 0, 0); stroke-linecap: round; stroke-linejoin: round; stroke-width: 7;" /><path d="M611,918L613,918L619,918L624,918L629,918L643,917L636,918L648,917L653,916L658,916L663,916L665,916L670,916L675,916L683,919L678,919L688,919L695,917L690,917L697,918L702,917L704,918L707,918L709,917L709,917L727,912L727,912L727,912L709,917L728,912L727,912" fill="none" stroke="#000000" style="-webkit-tap-highlight-color: rgba(0, 0, 0, 0); stroke-linecap: round; stroke-linejoin: round; stroke-width: 7;" /><path d="M425,976" fill="none" stroke="#000000" style="-webkit-tap-highlight-color: rgba(0, 0, 0, 0); stroke-linecap: round; stroke-linejoin: round; stroke-width: 7;" /><path d="M728,912" fill="none" stroke="#000000" style="-webkit-tap-highlight-color: rgba(0, 0, 0, 0); stroke-linecap: round; stroke-linejoin: round; stroke-width: 7;" /><path d="M422,989L417,987L413,987L413,987L402,984L408,986L410,986L405,985L398,983L400,983L394,982L393,982L393,982L381,980L376,980L393,982L366,980L371,980L348,976L363,980L348,976L348,976L348,976L347,976L343,975L343,975L340,972L341,973L337,968L337,968L310,987L322,977L322,964L295,985L309,975L295,985L295,985L292,985L291,985L291,985L291,985L275,975L277,975L280,975L273,975L270,975L265,975L268,975L263,975L260,975L255,972L258,972L250,972L241,970L238,970L246,970L236,968L231,968L226,968L223,965L219,965L214,963L202,960L201,963L202,960L199,963L201,963L192,959L197,963L192,959L189,957L189,957L189,957L177,963L174,963L172,963L169,963L167,965L165,965L162,965L157,965L155,965L152,968L150,968L136,976L135,971L135,971L135,971L135,971L133,970L133,970L132,970L131,971L131,971L131,971L120,968L118,968L111,968L115,968L113,968L108,968" fill="none" stroke="#000000" style="-webkit-tap-highlight-color: rgba(0, 0, 0, 0); stroke-linecap: round; stroke-linejoin: round; stroke-width: 7;" /><path d="M106,968L93,963L93,963L93,963L91,965L92,964L90,966L87,967L87,967L87,967L87,967L87,967L87,966L76,965L74,965L71,965L66,965L64,965L69,965L61,968L54,968L56,968L52,968L49,968L42,968L30,961L47,968L44,968L30,961L29,961L29,961L30,961L29,961L11,971L11,971L11,971L11,971L10,972L11,971L7,972L7,972L7,972L7,972" fill="none" stroke="#000000" style="-webkit-tap-highlight-color: rgba(0, 0, 0, 0); stroke-linecap: round; stroke-linejoin: round; stroke-width: 7;" /><path d="M306.95,726.87L307,728L304,721L304,721L302,719L300,716L300,715L299,715L295,710L294,709L286,710L285,710L281,705L280,704L271,701L280,704L268,701L263,700L259,697L264,700L258,695L258,690L255,690L253,688L253,682L251,682L248,687L245,684L250,681L243,680L241,678L239,681L236,678L233,677L228,678L231,677L226,673L225,672L217,668L225,672L223,667L217,668L216,666L215,666L211,662L216,668L204,657L198,661L209,664L206,657L196,659L187,655L194,659L189,657L183,654L179,653L174,651L179,653L170,649L170,649L160,647L160,647L155,649L155,648L148,648L152,647L145,649L142,649L140,649L139,649L136,650L131,649L130,649L131,649L127,644L128,643L127,643L125,644L128,642L124,644L116,638L119,629L116,638L116,638L115,638L109,639L108,639L106,640L103,641L95,643L86,641L83,641L83,641" fill="none" stroke="#000000" style="-webkit-tap-highlight-color: rgba(0, 0, 0, 0); stroke-linecap: round; stroke-linejoin: round; stroke-width: 7;" /><path d="M75,640L69,636L72,638L69,636L61,633L66,634L65,635L58,631L58,634L58,631L58,634L39,635L42,634L46,635L46,635L35,635L27,627L19,630L19,630L3,635L3,635L17,630L17,630L0,636L3,635" fill="none" stroke="#000000" style="-webkit-tap-highlight-color: rgba(0, 0, 0, 0); stroke-linecap: round; stroke-linejoin: round; stroke-width: 7;" /><path d="M714.59,925.77L707,924L707,924L709,917L724,926L727,912L728,912L728,912L736,906L736,906L737,905L751,911L754,909L756,906L768,904L768,903L769,902L764,886L766,879L771,874L774,867L776,862L778,855L783,845L781,850L786,837L772,832L788,832L791,830L793,828L798,823L808,818L803,820L815,813L813,815L818,813L825,808L823,810L835,805L830,805L842,803L837,803L847,801L852,801L857,801L862,801L867,801L869,801L874,801L879,798L877,801L882,798L884,798L886,796L891,796L889,796L903,787L909,790L908,790L903,787L915,793L919,794L936,796L931,796L919,794L951,790L952,791L951,790L952,791L961,790L960,790L955,791L964,788" fill="none" stroke="#000000" style="-webkit-tap-highlight-color: rgba(0, 0, 0, 0); stroke-linecap: round; stroke-linejoin: round; stroke-width: 7;" /><path d="M978,789L980,790L980,790L978,789L984,791L986,791L986,792L989,793L989,793L1004,781L989,793L1002,783L1007,781L1009,778L1014,776L1014,774L1017,774L1017,771L1019,769L1019,766L1019,764L1022,764L1024,764L1022,761" fill="none" stroke="#000000" style="-webkit-tap-highlight-color: rgba(0, 0, 0, 0); stroke-linecap: round; stroke-linejoin: round; stroke-width: 7;" /><path d="M493.58,1006.81L503,1003L503,1003L503,1003L503,1003L503,1003L480,1013L478,1015L461,1031L454,1031L440,1033L427,1036L413,1041L400,1044L388,1046L376,1049L363,1053L354,1056L344,1058L334,1061L324,1066L314,1068L307,1071L300,1073L290,1078L282,1080L275,1083L270,1085L260,1090L265,1088L255,1093L250,1095L246,1098L236,1103L226,1105L214,1105L192,1110L201,1107L184,1110L174,1112L167,1115L160,1115L152,1117L138,1122L145,1120L130,1125L123,1127L118,1130L113,1132L108,1132L103,1135L101,1137" fill="none" stroke="#000000" style="-webkit-tap-highlight-color: rgba(0, 0, 0, 0); stroke-linecap: round; stroke-linejoin: round; stroke-width: 7;" /></svg>