<?xml version="1.0" encoding="utf-8" ?>
<svg baseProfile="full" height="745" version="1.1" width="1024" xmlns="http://www.w3.org/2000/svg" xmlns:ev="http://www.w3.org/2001/xml-events" xmlns:xlink="http://www.w3.org/1999/xlink"><defs /><path d="M4.98,224.88L4.98,226.54L3.32,228.2L1.66,228.2L0,228.2L1.66,228.2L3.32,228.2L4.98,228.2L8.3,228.2L11.62,229.86L16.6,229.86L19.92,229.86L24.89,229.86L28.21,231.52L31.53,231.52L33.19,231.52L36.51,231.52L39.83,233.18L41.49,233.18L43.15,233.18L44.81,233.18L46.47,233.18L48.13,233.18L49.79,233.18L49.79,231.52L51.45,231.52L53.11,231.52L54.77,229.86L56.43,228.2L58.09,228.2L59.75,226.54L61.41,223.22L63.07,221.56L64.73,219.9L66.39,218.24L69.71,213.26L73.02,211.6L74.68,209.94L78,206.63L79.66,204.97L82.98,203.31L84.64,199.99L86.3,198.33L89.62,196.67L92.94,193.35L94.6,191.69L97.92,190.03L101.24,186.71L102.9,185.05L106.22,181.73L107.88,180.07L109.54,178.41L112.86,175.09L114.52,173.43L116.18,171.77L117.83,170.11L119.49,168.45L121.15,166.79L124.47,165.13L126.13,165.13L127.79,163.47L131.11,161.82L132.77,160.16L134.43,158.5L137.75,156.84L139.41,155.18L141.07,155.18L142.73,151.86L144.39,150.2L146.05,148.54L149.37,146.88L151.03,145.22L152.69,143.56L154.35,143.56L156.01,143.56L156.01,145.22" fill="none" stroke="#000000" style="-webkit-tap-highlight-color: rgba(0, 0, 0, 0); stroke-linecap: round; stroke-linejoin: round; stroke-width: 5;" /><path d="M159.33,145.22L159.33,146.88L157.67,146.88L157.67,145.22L157.67,143.56L157.67,141.9L159.33,140.24L160.99,138.58L162.65,138.58L164.3,136.92L167.62,135.26L172.6,135.26L175.92,135.26L179.24,135.26L184.22,135.26L189.2,135.26L194.18,135.26L199.16,133.6L202.48,133.6L207.46,133.6L210.77,133.6L214.09,133.6L215.75,133.6L219.07,133.6L222.39,133.6L225.71,133.6L229.03,133.6L232.35,133.6L235.67,133.6L237.33,133.6L240.65,133.6L243.97,135.26L248.95,135.26L252.27,136.92L255.59,136.92L258.9,136.92L263.88,138.58L267.2,138.58L270.52,138.58L275.5,138.58L278.82,136.92L283.8,136.92L287.12,135.26L292.1,135.26L295.42,135.26L298.74,135.26L303.71,135.26L307.03,135.26L312.01,135.26L316.99,135.26L320.31,135.26L325.29,133.6L328.61,133.6L331.93,133.6L336.91,133.6L340.23,133.6L343.55,131.94L346.87,131.94L350.18,130.28L353.5,130.28L356.82,130.28L360.14,130.28L361.8,130.28L363.46,130.28L365.12,130.28L366.78,130.28L366.78,128.62L365.12,128.62L365.12,126.96L363.46,123.64L361.8,121.98L358.48,120.32L355.16,118.66L350.18,117L346.87,115.35L343.55,115.35L341.89,115.35L341.89,117L341.89,118.66L343.55,120.32" fill="none" stroke="#000000" style="-webkit-tap-highlight-color: rgba(0, 0, 0, 0); stroke-linecap: round; stroke-linejoin: round; stroke-width: 5;" /><path d="M66.39,125.3L64.73,125.3L63.07,125.3L61.41,126.96L59.75,126.96L58.09,126.96L56.43,128.62L56.43,130.28L59.75,130.28L64.73,130.28L71.36,130.28L79.66,130.28L87.96,130.28L96.26,130.28L102.9,130.28L107.88,130.28L112.86,130.28L117.83,130.28L122.81,131.94L134.43,133.6L139.41,133.6L142.73,133.6L147.71,135.26L151.03,135.26L156.01,135.26L159.33,135.26L162.65,135.26L165.96,135.26L169.28,135.26L170.94,135.26L174.26,135.26L175.92,133.6L179.24,133.6L182.56,133.6L185.88,133.6L189.2,131.94L190.86,131.94L194.18,131.94L197.5,131.94L200.82,131.94L205.8,131.94L210.77,131.94L214.09,131.94L219.07,130.28L224.05,128.62L229.03,128.62L234.01,126.96L238.99,125.3L242.31,125.3L247.29,123.64L252.27,123.64L257.24,121.98L260.56,121.98L265.54,121.98L270.52,121.98L273.84,120.32L277.16,120.32L280.48,120.32L285.46,120.32L288.78,120.32L290.44,120.32L293.76,120.32L297.08,120.32L298.74,120.32L302.06,120.32L303.71,120.32L307.03,120.32L310.35,120.32L313.67,120.32L315.33,120.32L318.65,120.32L321.97,120.32L323.63,120.32L325.29,118.66L328.61,118.66L330.27,118.66L331.93,118.66" fill="none" stroke="#000000" style="-webkit-tap-highlight-color: rgba(0, 0, 0, 0); stroke-linecap: round; stroke-linejoin: round; stroke-width: 5;" /><path d="M376.74,128.62L375.08,128.62L376.74,128.62L380.06,128.62L383.38,128.62L388.36,130.28L395,131.94L399.97,131.94L404.95,133.6L408.27,133.6L411.59,135.26L413.25,136.92L414.91,136.92L414.91,138.58L416.57,140.24L416.57,141.9L416.57,143.56L414.91,145.22L414.91,146.88L413.25,146.88L413.25,148.54L413.25,150.2L413.25,151.86L413.25,153.52L413.25,155.18L414.91,156.84L414.91,158.5L416.57,160.16L418.23,161.82L418.23,165.13L419.89,166.79L419.89,170.11L419.89,171.77L419.89,175.09L419.89,176.75L419.89,180.07L419.89,181.73L419.89,185.05L421.55,186.71L421.55,188.37L421.55,191.69L421.55,193.35L421.55,196.67L423.21,198.33L423.21,199.99L424.87,201.65L424.87,204.97L426.53,206.63L428.19,208.29L428.19,209.94L428.19,211.6L428.19,214.92L429.85,216.58L429.85,218.24L428.19,218.24" fill="none" stroke="#000000" style="-webkit-tap-highlight-color: rgba(0, 0, 0, 0); stroke-linecap: round; stroke-linejoin: round; stroke-width: 5;" /><path d="M365.12,150.2L365.12,148.54L365.12,146.88L363.46,146.88L361.8,146.88L360.14,148.54L360.14,150.2L360.14,155.18L360.14,160.16L361.8,168.45L363.46,175.09L365.12,181.73L366.78,186.71L366.78,191.69L368.44,195.01L368.44,198.33L368.44,201.65L368.44,204.97L368.44,208.29L368.44,209.94L368.44,211.6L366.78,211.6" fill="none" stroke="#000000" style="-webkit-tap-highlight-color: rgba(0, 0, 0, 0); stroke-linecap: round; stroke-linejoin: round; stroke-width: 5;" /><path d="M371.76,216.58L370.1,216.58L370.1,218.24L370.1,221.56L370.1,224.88L371.76,228.2L373.42,233.18L373.42,236.5L375.08,241.48L375.08,243.14L376.74,246.46L376.74,248.12L378.4,251.44L378.4,253.1L380.06,254.76" fill="none" stroke="#000000" style="-webkit-tap-highlight-color: rgba(0, 0, 0, 0); stroke-linecap: round; stroke-linejoin: round; stroke-width: 5;" /><path d="M388.36,209.94L385.04,209.94L381.72,209.94L378.4,208.29L376.74,208.29L375.08,208.29L376.74,206.63L380.06,206.63L385.04,206.63L390.02,206.63L395,206.63L399.97,206.63L404.95,206.63L408.27,208.29L411.59,208.29L414.91,208.29L416.57,209.94L418.23,209.94L419.89,211.6L421.55,211.6L423.21,213.26L424.87,214.92L426.53,218.24L426.53,219.9L428.19,223.22L429.85,226.54L429.85,229.86L429.85,233.18L429.85,236.5L429.85,239.82L429.85,241.48L429.85,243.14L429.85,244.8L429.85,246.46L428.19,248.12L426.53,248.12L424.87,249.78L423.21,249.78L421.55,249.78L418.23,249.78L413.25,249.78L408.27,249.78L403.29,248.12L399.97,248.12L395,248.12L390.02,248.12L385.04,248.12L381.72,248.12L378.4,248.12L376.74,249.78L376.74,251.44L378.4,251.44" fill="none" stroke="#000000" style="-webkit-tap-highlight-color: rgba(0, 0, 0, 0); stroke-linecap: round; stroke-linejoin: round; stroke-width: 5;" /><path d="M124.47,264.71L126.13,264.71L127.79,266.37L126.13,266.37L124.47,266.37L122.81,266.37L121.15,266.37L119.49,266.37L117.83,266.37L116.18,268.03L114.52,269.69L112.86,269.69L111.2,271.35L109.54,274.67L107.88,276.33L106.22,277.99L106.22,279.65L104.56,281.31L102.9,282.97L101.24,284.63L99.58,286.29L97.92,287.95L97.92,289.61L96.26,291.27L96.26,292.93L94.6,294.59L94.6,297.91L92.94,299.57L91.28,302.88L91.28,304.54L89.62,306.2L89.62,309.52L87.96,311.18L87.96,314.5L86.3,316.16L84.64,317.82L82.98,319.48L82.98,321.14L81.32,322.8L79.66,324.46L78,326.12L78,327.78L76.34,329.44L76.34,331.1L74.68,332.76L74.68,336.08L74.68,337.74L73.02,339.4L73.02,341.06L73.02,342.72L73.02,344.38L73.02,347.7L71.36,349.35L71.36,351.01L71.36,352.67L71.36,354.33L71.36,355.99L69.71,357.65L69.71,359.31L68.05,360.97L68.05,362.63L68.05,364.29L69.71,364.29" fill="none" stroke="#000000" style="-webkit-tap-highlight-color: rgba(0, 0, 0, 0); stroke-linecap: round; stroke-linejoin: round; stroke-width: 5;" /><path d="M3.32,359.31L4.98,359.31L4.98,360.97L3.32,360.97L4.98,360.97L6.64,362.63L9.96,362.63L13.28,364.29L16.6,365.95L19.92,365.95L24.89,365.95L28.21,365.95L31.53,365.95L33.19,365.95L36.51,365.95L39.83,365.95L43.15,365.95L44.81,365.95L48.13,365.95L49.79,365.95L53.11,365.95L56.43,365.95L58.09,365.95L61.41,365.95L64.73,364.29L68.05,364.29L71.36,364.29L74.68,364.29L78,364.29L81.32,364.29L84.64,364.29L87.96,364.29L91.28,364.29L94.6,364.29L99.58,364.29L102.9,364.29L106.22,364.29L109.54,364.29L112.86,365.95L116.18,365.95L119.49,365.95L122.81,367.61L126.13,367.61L127.79,367.61L131.11,367.61L134.43,367.61L137.75,367.61L141.07,367.61L144.39,367.61L146.05,367.61L147.71,367.61L152.69,367.61L156.01,367.61L157.67,367.61L160.99,367.61L165.96,367.61L169.28,367.61L174.26,367.61L177.58,367.61L182.56,367.61L185.88,367.61L190.86,367.61L194.18,367.61L199.16,367.61L202.48,367.61L207.46,365.95L212.43,365.95L215.75,365.95L220.73,364.29L224.05,364.29L227.37,362.63L229.03,362.63L230.69,362.63L232.35,362.63L234.01,362.63L234.01,364.29L234.01,365.95L234.01,367.61L232.35,367.61L232.35,369.27L230.69,370.93L229.03,372.59L227.37,374.25L225.71,375.91L224.05,377.57L222.39,379.23L219.07,379.23L219.07,380.89L217.41,382.55L215.75,382.55L215.75,384.21L215.75,385.87L215.75,387.53L214.09,387.53L214.09,389.19L212.43,389.19L210.77,389.19L209.12,389.19L207.46,389.19L205.8,389.19L202.48,387.53L199.16,387.53L194.18,385.87L189.2,385.87L184.22,385.87L179.24,384.21L175.92,384.21L170.94,384.21L165.96,384.21L160.99,384.21L156.01,384.21L151.03,384.21L147.71,384.21L144.39,384.21L141.07,385.87L139.41,385.87L136.09,385.87L132.77,385.87L129.45,385.87L124.47,385.87L121.15,385.87L116.18,385.87L114.52,385.87L111.2,385.87L107.88,385.87L106.22,385.87L102.9,384.21L99.58,384.21L96.26,384.21L91.28,384.21L86.3,384.21L81.32,384.21L76.34,384.21L71.36,384.21L66.39,384.21L63.07,384.21L59.75,384.21L56.43,384.21L51.45,384.21L48.13,384.21L44.81,382.55L41.49,382.55L38.17,382.55L34.85,382.55L31.53,382.55L28.21,384.21L26.55,384.21L23.24,384.21L14.94,385.87L11.62,385.87L4.98,385.87L0,385.87" fill="none" stroke="#000000" style="-webkit-tap-highlight-color: rgba(0, 0, 0, 0); stroke-linecap: round; stroke-linejoin: round; stroke-width: 5;" /><path d="M212.43,394.17L210.77,392.51L209.12,392.51L207.46,392.51L205.8,390.85L204.14,389.19L204.14,390.85L204.14,392.51L205.8,395.82L207.46,400.8L207.46,405.78L209.12,410.76L212.43,420.72L212.43,427.36L214.09,430.68L215.75,434L215.75,438.98L215.75,442.29L215.75,447.27L217.41,450.59L217.41,453.91L217.41,455.57L217.41,458.89L217.41,462.21L217.41,465.53L217.41,468.85L217.41,470.51L219.07,470.51L220.73,468.85L220.73,467.19" fill="none" stroke="#000000" style="-webkit-tap-highlight-color: rgba(0, 0, 0, 0); stroke-linecap: round; stroke-linejoin: round; stroke-width: 5;" /><path d="M229.03,389.19L229.03,387.53L229.03,385.87L229.03,382.55L229.03,380.89L229.03,379.23L229.03,377.57L230.69,375.91L232.35,375.91L232.35,377.57L234.01,380.89L234.01,385.87L234.01,392.51L234.01,400.8L234.01,410.76L235.67,420.72L235.67,430.68L237.33,437.32L238.99,443.95L240.65,448.93L240.65,452.25L240.65,455.57L240.65,457.23L242.31,457.23" fill="none" stroke="#000000" style="-webkit-tap-highlight-color: rgba(0, 0, 0, 0); stroke-linecap: round; stroke-linejoin: round; stroke-width: 5;" /><path d="M252.27,442.29L250.61,442.29L248.95,442.29L247.29,442.29L245.63,442.29L247.29,442.29L250.61,442.29L255.59,440.64L262.22,440.64L270.52,440.64L275.5,440.64L280.48,440.64L285.46,440.64L290.44,442.29L293.76,442.29L298.74,442.29L302.06,443.95L303.71,443.95L305.37,443.95L307.03,445.61L308.69,445.61L312.01,445.61L313.67,445.61L316.99,445.61L318.65,443.95L320.31,443.95L321.97,443.95" fill="none" stroke="#000000" style="-webkit-tap-highlight-color: rgba(0, 0, 0, 0); stroke-linecap: round; stroke-linejoin: round; stroke-width: 5;" /><path d="M245.63,457.23L245.63,458.89L247.29,457.23L250.61,457.23L257.24,457.23L263.88,458.89L272.18,458.89L278.82,460.55L285.46,462.21L292.1,462.21L297.08,463.87L302.06,463.87L307.03,463.87L312.01,463.87L316.99,463.87L321.97,462.21L326.95,462.21L330.27,462.21L333.59,460.55L335.25,458.89L336.91,458.89L336.91,457.23" fill="none" stroke="#000000" style="-webkit-tap-highlight-color: rgba(0, 0, 0, 0); stroke-linecap: round; stroke-linejoin: round; stroke-width: 5;" /><path d="M345.21,395.82L343.55,394.17L341.89,392.51L340.23,390.85L338.57,389.19L338.57,390.85L338.57,392.51L338.57,395.82L338.57,402.46L338.57,409.1L340.23,419.06L341.89,429.02L341.89,437.32L341.89,443.95L341.89,447.27L341.89,450.59L341.89,452.25L340.23,452.25L340.23,448.93L341.89,442.29L341.89,440.64" fill="none" stroke="#000000" style="-webkit-tap-highlight-color: rgba(0, 0, 0, 0); stroke-linecap: round; stroke-linejoin: round; stroke-width: 5;" /><path d="M340.23,390.85L340.23,389.19L340.23,387.53L341.89,387.53L343.55,387.53L348.53,387.53L355.16,387.53L358.48,389.19L363.46,389.19L368.44,389.19L371.76,387.53L373.42,387.53L375.08,387.53L373.42,389.19" fill="none" stroke="#000000" style="-webkit-tap-highlight-color: rgba(0, 0, 0, 0); stroke-linecap: round; stroke-linejoin: round; stroke-width: 5;" /><path d="M341.89,370.93L341.89,372.59L343.55,372.59L343.55,370.93L345.21,370.93L348.53,369.27L353.5,369.27L358.48,369.27L363.46,369.27L368.44,369.27L371.76,369.27L375.08,369.27" fill="none" stroke="#000000" style="-webkit-tap-highlight-color: rgba(0, 0, 0, 0); stroke-linecap: round; stroke-linejoin: round; stroke-width: 5;" /><path d="M350.18,497.06L351.84,497.06L351.84,495.4L351.84,492.08L351.84,490.42L351.84,487.11L353.5,485.45L353.5,482.13L355.16,478.81L355.16,475.49L356.82,473.83L358.48,470.51L358.48,468.85L360.14,465.53L360.14,462.21L361.8,458.89L361.8,455.57L361.8,452.25L361.8,448.93L361.8,445.61L361.8,443.95L361.8,440.64L363.46,438.98L363.46,435.66L363.46,432.34L363.46,429.02L365.12,425.7L365.12,422.38L365.12,417.4L366.78,412.42L366.78,409.1L366.78,404.12L368.44,400.8L368.44,397.48L368.44,394.17L368.44,389.19L370.1,385.87L370.1,382.55L370.1,380.89L370.1,377.57L370.1,374.25L370.1,370.93L370.1,369.27L370.1,365.95L371.76,365.95L371.76,364.29L373.42,362.63L375.08,362.63L375.08,360.97L376.74,360.97L380.06,359.31L381.72,359.31L385.04,359.31L388.36,359.31L393.34,359.31L398.31,359.31L401.63,359.31L406.61,359.31L411.59,360.97L416.57,360.97L419.89,360.97L423.21,362.63L426.53,362.63L428.19,362.63L431.51,364.29L433.17,364.29L434.83,365.95L434.83,367.61L436.49,370.93L436.49,372.59L436.49,375.91L438.15,379.23L438.15,382.55L438.15,387.53L438.15,390.85L438.15,395.82L438.15,399.14L438.15,404.12L439.81,407.44L439.81,410.76L439.81,415.74L439.81,419.06L439.81,424.04L439.81,429.02L439.81,432.34L439.81,435.66L439.81,438.98L439.81,442.29L438.15,445.61L438.15,448.93L438.15,452.25L438.15,453.91L438.15,457.23L438.15,460.55L438.15,463.87L436.49,465.53L436.49,470.51L436.49,473.83L434.83,475.49L434.83,478.81L434.83,482.13L433.17,483.79L433.17,485.45L433.17,488.76L433.17,492.08L431.51,493.74L431.51,497.06L431.51,498.72L429.85,498.72L429.85,500.38L429.85,502.04L429.85,503.7L429.85,505.36L428.19,505.36" fill="none" stroke="#000000" style="-webkit-tap-highlight-color: rgba(0, 0, 0, 0); stroke-linecap: round; stroke-linejoin: round; stroke-width: 5;" /><path d="M348.53,487.11L346.87,488.76L345.21,488.76L343.55,490.42L340.23,492.08L336.91,492.08L333.59,493.74L330.27,495.4L326.95,497.06L325.29,497.06L323.63,498.72L321.97,498.72L321.97,497.06L320.31,497.06L318.65,497.06L316.99,497.06L315.33,497.06L313.67,497.06L310.35,498.72L308.69,498.72L305.37,498.72L303.71,500.38L300.4,500.38L297.08,500.38L295.42,500.38L292.1,500.38L288.78,500.38L285.46,498.72L283.8,498.72L280.48,498.72L277.16,498.72L272.18,497.06L268.86,497.06L265.54,497.06L260.56,497.06L257.24,498.72L253.93,500.38L248.95,500.38L245.63,502.04L242.31,502.04L238.99,503.7L234.01,503.7L230.69,503.7L227.37,503.7L224.05,503.7L222.39,503.7L217.41,503.7L215.75,503.7L212.43,503.7L209.12,502.04L207.46,502.04L204.14,502.04L202.48,502.04L200.82,502.04L197.5,500.38L195.84,500.38L194.18,500.38L192.52,500.38L189.2,500.38L187.54,498.72L184.22,498.72L182.56,498.72L179.24,498.72L177.58,498.72L174.26,498.72L170.94,498.72L169.28,498.72L165.96,498.72L162.65,498.72L159.33,498.72L154.35,498.72L151.03,498.72L147.71,500.38L144.39,500.38L141.07,500.38L137.75,500.38L134.43,500.38L129.45,500.38L126.13,500.38L122.81,498.72L117.83,498.72L114.52,498.72L109.54,498.72L106.22,497.06L101.24,497.06L97.92,495.4L94.6,495.4L91.28,493.74L86.3,493.74L82.98,493.74L79.66,493.74L74.68,493.74L71.36,493.74L68.05,493.74L63.07,493.74L59.75,495.4L54.77,495.4L51.45,495.4L48.13,495.4L44.81,497.06L41.49,497.06L38.17,497.06L34.85,495.4L31.53,495.4L29.87,495.4L26.55,495.4L23.24,495.4L18.26,495.4L14.94,495.4L11.62,495.4L6.64,495.4L1.66,495.4" fill="none" stroke="#000000" style="-webkit-tap-highlight-color: rgba(0, 0, 0, 0); stroke-linecap: round; stroke-linejoin: round; stroke-width: 5;" /><path d="M131.11,414.08L131.11,412.42L131.11,410.76L129.45,410.76L127.79,410.76L126.13,410.76L122.81,410.76L117.83,412.42L114.52,415.74L111.2,419.06L109.54,422.38L109.54,425.7L109.54,429.02L109.54,432.34L109.54,435.66L109.54,440.64L109.54,443.95L111.2,447.27L111.2,453.91L112.86,455.57L112.86,457.23L114.52,458.89L117.83,458.89L119.49,460.55L121.15,460.55L122.81,460.55L126.13,460.55L127.79,462.21L131.11,462.21L134.43,462.21L137.75,460.55L139.41,458.89L142.73,457.23L146.05,455.57L147.71,450.59L149.37,447.27L149.37,442.29L147.71,437.32L146.05,432.34L142.73,425.7L139.41,422.38L136.09,419.06L132.77,415.74L129.45,414.08L126.13,410.76L122.81,409.1L119.49,407.44L117.83,407.44L114.52,409.1L112.86,412.42L112.86,415.74L112.86,417.4" fill="none" stroke="#000000" style="-webkit-tap-highlight-color: rgba(0, 0, 0, 0); stroke-linecap: round; stroke-linejoin: round; stroke-width: 5;" /><path d="M210.77,186.71L210.77,185.05L209.12,185.05L209.12,186.71L207.46,188.37L205.8,193.35L205.8,198.33L204.14,204.97L202.48,211.6L202.48,216.58L202.48,221.56L204.14,223.22L205.8,226.54L209.12,226.54L212.43,226.54L215.75,226.54L220.73,226.54L222.39,226.54L225.71,226.54L227.37,224.88L227.37,223.22L227.37,219.9L227.37,214.92L227.37,211.6L227.37,204.97L225.71,198.33L222.39,191.69L217.41,185.05L210.77,181.73L204.14,181.73L202.48,185.05L200.82,190.03L200.82,196.67L202.48,201.65" fill="none" stroke="#000000" style="-webkit-tap-highlight-color: rgba(0, 0, 0, 0); stroke-linecap: round; stroke-linejoin: round; stroke-width: 5;" /><path d="M298.74,196.67L297.08,196.67L295.42,196.67L293.76,196.67L292.1,199.99L292.1,203.31L293.76,208.29L293.76,214.92L293.76,223.22L293.76,231.52L295.42,238.16L297.08,243.14L298.74,248.12L300.4,249.78L302.06,249.78L305.37,249.78L307.03,246.46L310.35,241.48L313.67,236.5L315.33,228.2L315.33,221.56L315.33,211.6L313.67,204.97L308.69,199.99L305.37,198.33L302.06,198.33L298.74,199.99L295.42,203.31L293.76,206.63L292.1,211.6L292.1,214.92" fill="none" stroke="#000000" style="-webkit-tap-highlight-color: rgba(0, 0, 0, 0); stroke-linecap: round; stroke-linejoin: round; stroke-width: 5;" /><path d="M127.79,175.09L127.79,173.43L126.13,173.43L124.47,173.43L124.47,175.09L124.47,180.07L126.13,186.71L126.13,193.35L127.79,201.65L127.79,208.29L127.79,214.92L129.45,219.9L129.45,224.88L129.45,229.86L129.45,234.84L129.45,238.16L129.45,241.48L131.11,244.8L131.11,246.46L131.11,249.78L132.77,251.44L132.77,253.1L132.77,254.76L132.77,256.41L132.77,258.07L134.43,259.73" fill="none" stroke="#000000" style="-webkit-tap-highlight-color: rgba(0, 0, 0, 0); stroke-linecap: round; stroke-linejoin: round; stroke-width: 5;" /><path d="M8.3,355.99L6.64,357.65L4.98,357.65L1.66,357.65L0,357.65" fill="none" stroke="#000000" style="-webkit-tap-highlight-color: rgba(0, 0, 0, 0); stroke-linecap: round; stroke-linejoin: round; stroke-width: 5;" /><path d="M0,354.33L1.66,354.33L4.98,354.33L8.3,354.33L13.28,354.33L19.92,354.33L26.55,354.33L33.19,352.67L39.83,349.35L46.47,346.04L51.45,342.72L56.43,337.74L61.41,334.42L66.39,331.1L71.36,327.78L74.68,324.46L78,319.48L81.32,316.16L82.98,314.5L82.98,312.84" fill="none" stroke="#000000" style="-webkit-tap-highlight-color: rgba(0, 0, 0, 0); stroke-linecap: round; stroke-linejoin: round; stroke-width: 5;" /><path d="M53.11,231.52L51.45,231.52L49.79,231.52L49.79,234.84L49.79,238.16L49.79,244.8L51.45,253.1L53.11,261.39L54.77,271.35L54.77,281.31L56.43,289.61L56.43,296.25L56.43,304.54L58.09,309.52L58.09,314.5L58.09,317.82L58.09,319.48L58.09,316.16" fill="none" stroke="#000000" style="-webkit-tap-highlight-color: rgba(0, 0, 0, 0); stroke-linecap: round; stroke-linejoin: round; stroke-width: 5;" /><path d="M8.3,113.69L8.3,110.37L8.3,108.71L8.3,107.05L6.64,105.39L8.3,105.39L9.96,105.39L13.28,107.05L16.6,107.05L21.58,108.71L28.21,110.37L33.19,112.03L39.83,113.69L44.81,113.69L49.79,113.69L56.43,113.69L61.41,113.69L66.39,113.69L71.36,113.69L74.68,113.69L78,113.69L81.32,113.69L84.64,112.03L87.96,112.03L92.94,112.03L96.26,112.03L101.24,112.03L104.56,112.03L109.54,112.03L112.86,112.03L116.18,112.03L119.49,113.69L122.81,113.69L127.79,113.69L131.11,112.03L134.43,112.03L139.41,112.03L142.73,112.03L146.05,112.03L151.03,110.37L156.01,110.37L159.33,110.37L164.3,108.71L169.28,108.71L174.26,107.05L177.58,107.05L180.9,107.05L184.22,107.05L187.54,108.71L190.86,108.71L194.18,108.71L197.5,108.71L200.82,110.37L204.14,110.37L207.46,110.37L210.77,110.37L214.09,110.37L217.41,110.37L220.73,110.37L224.05,110.37L227.37,110.37L230.69,110.37L234.01,110.37L235.67,110.37L238.99,112.03L242.31,112.03L245.63,112.03L248.95,112.03L252.27,113.69L253.93,113.69L257.24,113.69L260.56,113.69L263.88,113.69L265.54,113.69L268.86,113.69L272.18,113.69L275.5,113.69L278.82,112.03L280.48,112.03L283.8,112.03L285.46,110.37L288.78,110.37L290.44,110.37L293.76,110.37L295.42,110.37L298.74,108.71L302.06,108.71L305.37,108.71L308.69,108.71L312.01,108.71L315.33,108.71L318.65,108.71L321.97,108.71L325.29,110.37L328.61,110.37L331.93,110.37L336.91,112.03L340.23,112.03L345.21,112.03L348.53,112.03L351.84,112.03L355.16,113.69L358.48,113.69L361.8,115.35L365.12,117L368.44,118.66L371.76,118.66L375.08,120.32L378.4,120.32L380.06,121.98L383.38,121.98L386.7,121.98L390.02,121.98L391.68,121.98L395,121.98L396.65,121.98L398.31,121.98L401.63,120.32L404.95,120.32L406.61,120.32L409.93,118.66L413.25,118.66L416.57,118.66L419.89,117L421.55,117L424.87,117L428.19,117L429.85,117L433.17,117L436.49,118.66L439.81,118.66L443.12,118.66L446.44,118.66L449.76,118.66L453.08,120.32L456.4,120.32L459.72,120.32L463.04,121.98L466.36,121.98L469.68,121.98L473,121.98L477.98,120.32L481.3,120.32L482.96,118.66L486.28,118.66L487.94,118.66L489.59,117L492.91,117L494.57,117L496.23,115.35L499.55,115.35L501.21,115.35L504.53,115.35L507.85,115.35L511.17,115.35L514.49,115.35L519.47,115.35L522.79,115.35L526.11,115.35L529.43,117L534.41,117L537.72,118.66L541.04,120.32L542.7,120.32L544.36,121.98L547.68,123.64L549.34,123.64L551,125.3L552.66,126.96L554.32,126.96L554.32,128.62L555.98,128.62L557.64,128.62L559.3,130.28L560.96,130.28L562.62,130.28L565.94,130.28L567.6,130.28L570.92,128.62L574.24,128.62L577.56,128.62L580.88,126.96L584.19,126.96L587.51,126.96L590.83,126.96L594.15,126.96L597.47,126.96L600.79,125.3L604.11,125.3L607.43,125.3L609.09,125.3L612.41,125.3L615.73,125.3L619.05,125.3L622.37,125.3L625.69,125.3L629,125.3L632.32,125.3L635.64,125.3L638.96,125.3L643.94,125.3L647.26,125.3L650.58,125.3L653.9,125.3L658.88,125.3L662.2,125.3L665.52,123.64L668.84,123.64L672.16,123.64L675.47,123.64L678.79,123.64L682.11,123.64L685.43,121.98L690.41,121.98L693.73,121.98L697.05,121.98L700.37,120.32L702.03,120.32L705.35,120.32L708.67,120.32L711.99,120.32L713.65,120.32L716.97,121.98L720.29,121.98L723.6,121.98L726.92,121.98L730.24,123.64L733.56,123.64L736.88,123.64L740.2,125.3L743.52,125.3L746.84,126.96L750.16,126.96L753.48,128.62L756.8,128.62L758.46,130.28L761.78,131.94L763.44,131.94L766.76,133.6L768.41,133.6L770.07,135.26L773.39,135.26L775.05,136.92L778.37,136.92L780.03,136.92L783.35,136.92L785.01,136.92L788.33,138.58L791.65,138.58L793.31,138.58L796.63,138.58L798.29,138.58L801.61,138.58L804.93,140.24L806.59,140.24L809.91,140.24L813.23,140.24L814.88,140.24L818.2,140.24L821.52,140.24L824.84,140.24L828.16,140.24L831.48,138.58L834.8,138.58L838.12,138.58L841.44,138.58L844.76,138.58L846.42,138.58L849.74,138.58L853.06,138.58L856.38,138.58L859.7,138.58L861.35,138.58L864.67,138.58L867.99,138.58L871.31,138.58L874.63,138.58L877.95,138.58L882.93,138.58L886.25,138.58L891.23,138.58L896.21,138.58L901.19,138.58L906.17,138.58L911.14,138.58L916.12,138.58L921.1,138.58L924.42,138.58L927.74,136.92L931.06,136.92L934.38,135.26L937.7,135.26L941.02,135.26L944.34,133.6L947.66,133.6L950.98,133.6L954.29,133.6L957.61,133.6L960.93,133.6L962.59,133.6L965.91,133.6L967.57,133.6L970.89,133.6L972.55,133.6L975.87,133.6L977.53,133.6L979.19,133.6L982.51,133.6L985.83,133.6L989.15,133.6L992.47,133.6L995.79,133.6L999.11,131.94L1002.42,131.94L1005.74,130.28L1009.06,130.28L1012.38,130.28L1015.7,128.62L1017.36,128.62L1019.02,128.62L1020.68,128.62L1022.34,128.62L1024,128.62" fill="none" stroke="#000000" style="-webkit-tap-highlight-color: rgba(0, 0, 0, 0); stroke-linecap: round; stroke-linejoin: round; stroke-width: 5;" /><path d="M876.29,405.78L876.29,407.44L876.29,409.1L874.63,409.1L872.97,409.1L872.97,407.44L872.97,405.78L872.97,404.12L872.97,402.46L872.97,399.14L872.97,397.48L872.97,394.17L872.97,390.85L872.97,387.53L872.97,385.87L872.97,384.21L872.97,380.89L872.97,379.23L872.97,375.91L872.97,372.59L872.97,369.27L874.63,367.61L874.63,364.29L874.63,362.63L874.63,359.31L874.63,355.99L874.63,354.33L874.63,351.01L874.63,347.7L874.63,346.04L876.29,342.72L876.29,341.06L876.29,337.74L876.29,336.08L877.95,332.76L877.95,329.44L879.61,326.12L881.27,321.14L881.27,317.82L882.93,314.5L882.93,312.84L884.59,311.18L884.59,309.52L884.59,307.86L884.59,306.2L884.59,304.54L884.59,302.88L884.59,301.23L884.59,299.57L886.25,296.25L887.91,294.59L887.91,292.93L889.57,291.27L891.23,287.95L892.89,286.29L894.55,286.29L896.21,284.63L897.87,284.63L899.53,284.63L901.19,284.63L901.19,287.95L902.85,291.27L902.85,294.59L904.51,297.91L904.51,302.88L904.51,306.2L904.51,309.52L904.51,312.84L904.51,316.16L904.51,319.48L906.17,321.14L906.17,322.8L906.17,324.46L906.17,327.78L907.82,329.44L907.82,332.76L907.82,336.08L907.82,339.4L907.82,342.72L907.82,344.38L906.17,347.7L906.17,349.35L906.17,352.67L906.17,355.99L906.17,359.31L906.17,360.97L904.51,364.29L904.51,367.61L904.51,370.93L904.51,374.25L904.51,375.91L904.51,379.23L906.17,380.89L906.17,384.21L906.17,385.87L906.17,389.19L907.82,390.85L907.82,394.17L907.82,395.82L907.82,397.48L907.82,399.14L907.82,400.8L907.82,402.46L909.48,404.12L909.48,405.78L909.48,407.44" fill="none" stroke="#000000" style="-webkit-tap-highlight-color: rgba(0, 0, 0, 0); stroke-linecap: round; stroke-linejoin: round; stroke-width: 5;" /><path d="M936.04,397.48L932.72,397.48L931.06,397.48L929.4,397.48L931.06,397.48L932.72,397.48L936.04,397.48L939.36,399.14L942.68,399.14L944.34,400.8L947.66,402.46L949.32,404.12L950.98,405.78L952.64,405.78L954.29,405.78L954.29,407.44L955.95,407.44L955.95,409.1L955.95,410.76L955.95,412.42L954.29,410.76" fill="none" stroke="#000000" style="-webkit-tap-highlight-color: rgba(0, 0, 0, 0); stroke-linecap: round; stroke-linejoin: round; stroke-width: 5;" /><path d="M924.42,399.14L924.42,400.8L922.76,402.46L921.1,402.46L922.76,402.46L926.08,404.12L929.4,405.78L932.72,407.44L937.7,409.1L941.02,410.76L946,410.76L947.66,410.76L946,407.44L946,405.78" fill="none" stroke="#000000" style="-webkit-tap-highlight-color: rgba(0, 0, 0, 0); stroke-linecap: round; stroke-linejoin: round; stroke-width: 5;" /><path d="M927.74,387.53L927.74,390.85L927.74,392.51L926.08,392.51L926.08,389.19L926.08,385.87L926.08,380.89L924.42,375.91L924.42,369.27L924.42,364.29L924.42,359.31L924.42,354.33L924.42,351.01L924.42,346.04L924.42,342.72L924.42,339.4L924.42,334.42L926.08,331.1L926.08,327.78L926.08,322.8L927.74,319.48L927.74,316.16L927.74,312.84L927.74,309.52L927.74,304.54L926.08,301.23L926.08,297.91L926.08,294.59L926.08,289.61L926.08,286.29L926.08,282.97L926.08,279.65L926.08,276.33L926.08,273.01L926.08,271.35L924.42,271.35L922.76,271.35L921.1,271.35L919.44,271.35L917.78,271.35L916.12,271.35L912.8,271.35L911.14,271.35L907.82,271.35L904.51,271.35L902.85,269.69L901.19,269.69L897.87,268.03L896.21,268.03L892.89,268.03L891.23,266.37L887.91,266.37L886.25,266.37L882.93,266.37L879.61,268.03L877.95,268.03L876.29,268.03L874.63,269.69L872.97,271.35L872.97,273.01L871.31,273.01L871.31,274.67L871.31,277.99L869.65,279.65L867.99,282.97L866.33,286.29L864.67,291.27L863.01,296.25L861.35,299.57L859.7,302.88L858.04,306.2L856.38,307.86L856.38,309.52L856.38,311.18L858.04,311.18" fill="none" stroke="#000000" style="-webkit-tap-highlight-color: rgba(0, 0, 0, 0); stroke-linecap: round; stroke-linejoin: round; stroke-width: 5;" /><path d="M891.23,266.37L891.23,268.03L891.23,269.69L891.23,271.35L892.89,271.35L892.89,269.69L894.55,269.69L897.87,268.03L901.19,268.03L906.17,266.37L909.48,264.71L911.14,264.71L912.8,263.05L914.46,263.05L914.46,261.39L914.46,259.73L914.46,258.07L912.8,256.41L912.8,254.76L912.8,253.1L914.46,251.44L916.12,251.44L917.78,251.44L919.44,251.44L921.1,253.1L924.42,254.76L926.08,256.41L929.4,256.41L932.72,258.07L934.38,259.73L936.04,259.73L937.7,259.73L939.36,261.39L941.02,261.39L942.68,261.39L944.34,261.39L946,263.05L947.66,263.05L949.32,263.05L950.98,263.05L952.64,263.05L954.29,263.05L955.95,263.05L957.61,263.05L959.27,263.05L960.93,264.71L960.93,266.37L962.59,268.03L962.59,269.69L962.59,273.01L962.59,274.67L964.25,277.99L964.25,281.31L964.25,282.97L964.25,284.63L965.91,287.95L965.91,289.61L967.57,292.93L967.57,294.59L967.57,297.91L969.23,301.23L969.23,302.88L969.23,304.54L970.89,306.2L972.55,307.86L972.55,309.52L974.21,309.52L975.87,311.18L975.87,312.84L977.53,312.84L979.19,314.5L980.85,314.5L982.51,316.16L985.83,316.16L990.81,316.16L992.47,316.16L994.13,314.5L997.45,314.5L1000.76,314.5L1002.42,314.5L1005.74,316.16L1009.06,316.16L1012.38,317.82L1014.04,317.82L1017.36,319.48L1019.02,319.48L1020.68,317.82L1022.34,317.82L1024,317.82" fill="none" stroke="#000000" style="-webkit-tap-highlight-color: rgba(0, 0, 0, 0); stroke-linecap: round; stroke-linejoin: round; stroke-width: 5;" /><path d="M833.14,193.35L833.14,195.01L834.8,195.01L834.8,193.35L833.14,193.35L831.48,193.35L829.82,193.35L828.16,193.35L826.5,193.35L824.84,191.69L823.18,191.69L821.52,190.03L819.86,190.03L818.2,188.37L816.54,188.37L816.54,186.71L814.88,185.05L813.23,185.05L813.23,183.39L811.57,181.73L809.91,180.07L808.25,178.41L808.25,176.75L806.59,176.75L804.93,175.09L803.27,173.43L801.61,171.77L798.29,170.11L796.63,168.45L793.31,166.79L791.65,165.13L788.33,163.47L786.67,161.82L785.01,161.82L783.35,160.16L783.35,158.5L783.35,156.84L785.01,156.84L786.67,156.84L788.33,156.84L791.65,156.84L796.63,158.5L799.95,158.5L803.27,160.16L806.59,160.16L809.91,160.16L813.23,160.16L816.54,160.16L821.52,160.16L824.84,161.82L828.16,161.82L831.48,161.82L834.8,163.47L838.12,163.47L841.44,163.47L844.76,163.47L848.08,165.13L853.06,165.13L856.38,166.79L861.35,166.79L864.67,166.79L869.65,166.79L874.63,166.79L879.61,166.79L882.93,168.45L887.91,168.45L892.89,170.11L896.21,171.77L899.53,175.09L902.85,176.75L906.17,178.41L907.82,180.07L911.14,181.73L914.46,183.39L916.12,185.05L917.78,186.71L921.1,188.37L922.76,188.37L924.42,190.03L926.08,191.69L927.74,193.35L929.4,195.01L932.72,198.33L934.38,199.99L937.7,203.31L939.36,204.97L942.68,208.29L944.34,209.94L946,211.6L947.66,213.26L949.32,213.26L950.98,213.26L952.64,213.26L954.29,213.26L955.95,213.26L959.27,213.26L960.93,213.26L962.59,211.6L965.91,211.6L967.57,211.6L970.89,211.6L972.55,211.6L974.21,211.6L977.53,211.6L979.19,211.6L982.51,211.6L984.17,211.6L987.49,211.6L989.15,211.6L992.47,211.6L995.79,211.6L999.11,211.6L1002.42,211.6L1005.74,213.26L1010.72,213.26L1014.04,213.26L1019.02,213.26L1022.34,213.26" fill="none" stroke="#000000" style="-webkit-tap-highlight-color: rgba(0, 0, 0, 0); stroke-linecap: round; stroke-linejoin: round; stroke-width: 5;" /><path d="M960.93,148.54L960.93,150.2L959.27,150.2L959.27,148.54L957.61,148.54L955.95,146.88L954.29,146.88L952.64,146.88L950.98,146.88L950.98,148.54L954.29,150.2L955.95,151.86L957.61,153.52L960.93,155.18L965.91,156.84L970.89,158.5L975.87,160.16L980.85,161.82L985.83,163.47L989.15,165.13L992.47,166.79L997.45,171.77L999.11,173.43L1002.42,178.41L1005.74,181.73L1007.4,186.71L1010.72,190.03L1014.04,193.35L1015.7,193.35L1017.36,195.01L1017.36,193.35L1017.36,190.03L1014.04,186.71" fill="none" stroke="#000000" style="-webkit-tap-highlight-color: rgba(0, 0, 0, 0); stroke-linecap: round; stroke-linejoin: round; stroke-width: 5;" /><path d="M969.23,150.2L967.57,148.54L967.57,146.88L970.89,146.88L974.21,146.88L979.19,146.88L985.83,146.88L994.13,148.54L999.11,148.54L1005.74,148.54L1010.72,146.88L1014.04,146.88L1015.7,146.88L1014.04,146.88L1014.04,148.54L1010.72,148.54" fill="none" stroke="#000000" style="-webkit-tap-highlight-color: rgba(0, 0, 0, 0); stroke-linecap: round; stroke-linejoin: round; stroke-width: 5;" /><path d="M614.07,141.9L614.07,143.56L614.07,145.22L615.73,145.22L617.39,145.22L619.05,145.22L620.71,145.22L622.37,145.22L625.69,145.22L630.66,145.22L633.98,145.22L637.3,143.56L642.28,143.56L645.6,143.56L650.58,143.56L655.56,143.56L660.54,143.56L665.52,143.56L670.5,143.56L675.47,143.56L678.79,143.56L687.09,143.56L692.07,143.56L698.71,143.56L703.69,145.22L707.01,145.22L711.99,145.22L715.31,146.88L720.29,148.54L725.26,148.54L730.24,150.2L735.22,150.2L738.54,150.2L741.86,150.2L743.52,150.2L745.18,150.2L746.84,150.2L748.5,150.2" fill="none" stroke="#000000" style="-webkit-tap-highlight-color: rgba(0, 0, 0, 0); stroke-linecap: round; stroke-linejoin: round; stroke-width: 5;" /><path d="M748.5,156.84L743.52,156.84L741.86,156.84L743.52,156.84L745.18,156.84L746.84,158.5L751.82,161.82L756.8,165.13L761.78,168.45L766.76,171.77L770.07,175.09L771.73,176.75L775.05,178.41L775.05,180.07L776.71,180.07L776.71,181.73L776.71,183.39L778.37,185.05L778.37,188.37L778.37,190.03L778.37,191.69L778.37,193.35L776.71,193.35L775.05,193.35L773.39,193.35L771.73,193.35L770.07,193.35L766.76,191.69L763.44,190.03L760.12,190.03L756.8,188.37L755.14,188.37L751.82,188.37L750.16,186.71L746.84,186.71L745.18,186.71L741.86,188.37L738.54,188.37L735.22,190.03L731.9,190.03L728.58,191.69L726.92,191.69L723.6,193.35L721.94,193.35L718.63,195.01L718.63,196.67L715.31,196.67L713.65,198.33L711.99,198.33L708.67,199.99L707.01,201.65L703.69,203.31L702.03,204.97L700.37,206.63L698.71,208.29L697.05,209.94L695.39,211.6L710.33,206.63L711.99,204.97L711.99,203.31L711.99,201.65L711.99,199.99L710.33,198.33L708.67,196.67L707.01,196.67L705.35,196.67L705.35,198.33L703.69,198.33L702.03,198.33L700.37,199.99L698.71,201.65L697.05,203.31L693.73,204.97L692.07,206.63L690.41,208.29L688.75,209.94L688.75,211.6L687.09,214.92L685.43,216.58L683.77,218.24L682.11,219.9L680.45,221.56L680.45,223.22L678.79,224.88L677.13,226.54L677.13,228.2L675.47,231.52L675.47,233.18L675.47,236.5L675.47,239.82L675.47,243.14L675.47,246.46L675.47,249.78L675.47,253.1L675.47,254.76L675.47,258.07L675.47,259.73L675.47,263.05L677.13,266.37L677.13,268.03L677.13,271.35L677.13,273.01L678.79,274.67L678.79,277.99L680.45,281.31L680.45,284.63L682.11,287.95L682.11,291.27L682.11,294.59L682.11,299.57L682.11,302.88L682.11,307.86L682.11,311.18L682.11,314.5L682.11,319.48L682.11,322.8L682.11,326.12L682.11,329.44L682.11,332.76L682.11,336.08L682.11,339.4L682.11,342.72L682.11,346.04L680.45,349.35L678.79,351.01L678.79,354.33L678.79,357.65L677.13,359.31L677.13,362.63L675.47,364.29L675.47,367.61L675.47,370.93L675.47,374.25L673.82,375.91L673.82,379.23L673.82,382.55L672.16,384.21L672.16,387.53L672.16,390.85L670.5,392.51L670.5,394.17L668.84,394.17L668.84,395.82L667.18,397.48L665.52,399.14L663.86,400.8L662.2,402.46L658.88,402.46L657.22,404.12L653.9,404.12L650.58,405.78L647.26,405.78L645.6,404.12L642.28,404.12L638.96,402.46L637.3,400.8L633.98,400.8L630.66,399.14L629,399.14L627.35,399.14L624.03,397.48L622.37,397.48L620.71,397.48L617.39,397.48L614.07,397.48L612.41,397.48L609.09,399.14L605.77,399.14L602.45,399.14L599.13,399.14L595.81,399.14L594.15,400.8L590.83,400.8L587.51,400.8L582.53,400.8L579.22,402.46L574.24,402.46L570.92,402.46L569.26,402.46L570.92,404.12L572.58,404.12" fill="none" stroke="#000000" style="-webkit-tap-highlight-color: rgba(0, 0, 0, 0); stroke-linecap: round; stroke-linejoin: round; stroke-width: 5;" /><path d="M763.44,394.17L763.44,392.51L765.1,392.51L765.1,390.85L766.76,389.19L766.76,387.53L766.76,385.87L766.76,384.21L766.76,382.55L766.76,379.23L766.76,377.57L765.1,374.25L765.1,372.59L765.1,369.27L765.1,367.61L765.1,364.29L765.1,360.97L766.76,359.31L766.76,355.99L768.41,352.67L768.41,349.35L768.41,347.7L768.41,344.38L768.41,342.72L770.07,341.06L770.07,339.4L770.07,336.08L770.07,334.42L768.41,336.08L766.76,337.74L765.1,339.4L763.44,337.74L763.44,336.08L763.44,334.42L763.44,332.76L761.78,329.44L761.78,327.78L761.78,324.46L761.78,322.8L760.12,319.48L760.12,317.82L758.46,316.16L758.46,314.5L758.46,312.84L756.8,311.18L756.8,307.86L756.8,306.2L756.8,302.88L756.8,299.57L756.8,296.25L758.46,291.27L760.12,287.95L761.78,284.63L765.1,281.31L766.76,277.99L768.41,274.67L770.07,273.01L771.73,269.69L773.39,268.03L775.05,266.37L775.05,264.71L776.71,261.39L778.37,259.73L780.03,258.07L781.69,256.41L783.35,254.76L786.67,253.1L788.33,251.44L791.65,249.78L793.31,248.12L794.97,246.46L798.29,246.46L799.95,246.46L803.27,246.46L804.93,246.46L806.59,246.46L808.25,248.12L809.91,249.78L811.57,253.1L811.57,256.41L811.57,261.39L811.57,266.37L811.57,271.35L811.57,274.67L809.91,277.99L809.91,281.31L809.91,282.97L809.91,286.29L809.91,287.95L809.91,291.27L811.57,292.93L813.23,294.59L816.54,296.25L818.2,297.91L819.86,297.91L823.18,299.57L824.84,299.57L826.5,299.57L828.16,301.23L828.16,302.88L829.82,304.54L829.82,307.86L829.82,311.18L829.82,314.5L829.82,317.82L829.82,321.14L828.16,324.46L828.16,327.78L828.16,331.1L828.16,334.42L826.5,337.74L826.5,341.06L826.5,346.04L826.5,349.35L826.5,352.67L826.5,355.99L826.5,357.65L828.16,360.97L828.16,362.63L828.16,365.95L828.16,367.61L828.16,370.93L828.16,372.59L828.16,374.25L828.16,375.91L826.5,375.91L826.5,377.57L824.84,377.57L823.18,375.91L821.52,375.91L818.2,374.25L814.88,374.25L811.57,372.59L808.25,372.59L803.27,370.93L798.29,367.61L793.31,365.95L788.33,364.29L783.35,362.63L780.03,362.63L776.71,362.63L775.05,364.29L771.73,365.95L771.73,367.61L773.39,370.93L776.71,370.93" fill="none" stroke="#000000" style="-webkit-tap-highlight-color: rgba(0, 0, 0, 0); stroke-linecap: round; stroke-linejoin: round; stroke-width: 5;" /><path d="M771.73,390.85L773.39,389.19L775.05,389.19L780.03,389.19L786.67,387.53L793.31,385.87L798.29,385.87L803.27,385.87L808.25,385.87L811.57,387.53L814.88,387.53L813.23,387.53" fill="none" stroke="#000000" style="-webkit-tap-highlight-color: rgba(0, 0, 0, 0); stroke-linecap: round; stroke-linejoin: round; stroke-width: 5;" /><path d="M665.52,399.14L663.86,399.14L662.2,399.14L660.54,399.14L660.54,397.48L662.2,395.82L667.18,394.17L675.47,392.51L683.77,390.85L690.41,390.85L695.39,390.85L700.37,392.51L702.03,394.17L705.35,397.48L707.01,399.14L708.67,402.46L710.33,404.12L713.65,407.44L715.31,409.1L716.97,412.42L720.29,414.08L723.6,415.74L726.92,417.4L728.58,419.06L730.24,422.38L731.9,424.04L733.56,424.04L735.22,425.7L735.22,427.36L736.88,429.02L738.54,429.02L740.2,429.02L741.86,429.02L743.52,429.02L746.84,429.02L748.5,427.36L751.82,427.36L753.48,425.7L755.14,425.7L756.8,424.04L758.46,422.38L761.78,420.72L763.44,420.72L765.1,419.06L766.76,419.06L768.41,419.06L770.07,419.06L771.73,419.06L773.39,419.06L775.05,419.06L776.71,419.06L778.37,419.06L780.03,419.06L781.69,417.4L783.35,417.4L785.01,417.4L785.01,415.74L786.67,415.74L788.33,415.74L789.99,414.08L791.65,414.08L793.31,412.42L796.63,412.42L799.95,410.76L803.27,410.76L804.93,410.76L806.59,410.76L809.91,410.76L813.23,410.76L816.54,412.42L819.86,412.42L823.18,414.08L826.5,415.74L829.82,415.74L831.48,415.74L834.8,417.4L836.46,417.4L838.12,419.06L839.78,419.06L843.1,419.06L844.76,420.72L848.08,420.72L849.74,420.72L848.08,419.06" fill="none" stroke="#000000" style="-webkit-tap-highlight-color: rgba(0, 0, 0, 0); stroke-linecap: round; stroke-linejoin: round; stroke-width: 5;" /><path d="M834.8,389.19L834.8,387.53L834.8,385.87L838.12,385.87L843.1,385.87L846.42,385.87L849.74,385.87L851.4,387.53L853.06,387.53" fill="none" stroke="#000000" style="-webkit-tap-highlight-color: rgba(0, 0, 0, 0); stroke-linecap: round; stroke-linejoin: round; stroke-width: 5;" /><path d="M849.74,307.86L849.74,306.2L851.4,304.54L849.74,302.88L849.74,301.23L848.08,301.23L846.42,302.88L846.42,304.54L846.42,306.2L846.42,309.52L844.76,314.5L844.76,321.14L844.76,327.78L846.42,334.42L848.08,339.4L848.08,342.72L849.74,346.04L849.74,349.35L849.74,352.67L849.74,355.99L849.74,359.31L849.74,360.97L849.74,364.29L849.74,367.61L849.74,370.93L848.08,374.25L848.08,377.57L846.42,379.23L846.42,382.55L846.42,380.89" fill="none" stroke="#000000" style="-webkit-tap-highlight-color: rgba(0, 0, 0, 0); stroke-linecap: round; stroke-linejoin: round; stroke-width: 5;" /><path d="M824.84,199.99L823.18,201.65L823.18,203.31L821.52,204.97L823.18,204.97L826.5,204.97L831.48,204.97L836.46,203.31L841.44,201.65L844.76,199.99L846.42,199.99L848.08,201.65L848.08,203.31L849.74,206.63L849.74,209.94L849.74,214.92L849.74,219.9L849.74,224.88L849.74,229.86L849.74,234.84L849.74,239.82L849.74,244.8L849.74,249.78L849.74,254.76L849.74,258.07L851.4,261.39L853.06,266.37L854.72,269.69L854.72,271.35L856.38,273.01L856.38,271.35L856.38,269.69" fill="none" stroke="#000000" style="-webkit-tap-highlight-color: rgba(0, 0, 0, 0); stroke-linecap: round; stroke-linejoin: round; stroke-width: 5;" /><path d="M851.4,218.24L853.06,218.24L853.06,216.58L854.72,214.92L856.38,214.92L859.7,214.92L863.01,214.92L867.99,214.92L872.97,214.92L879.61,214.92L882.93,214.92L886.25,214.92L889.57,213.26L891.23,213.26L894.55,211.6L896.21,211.6L897.87,211.6L899.53,211.6L901.19,211.6L902.85,213.26L904.51,214.92L906.17,216.58L907.82,218.24L909.48,221.56L912.8,224.88L914.46,226.54L916.12,229.86L917.78,233.18L919.44,234.84L921.1,238.16L921.1,239.82L921.1,241.48L921.1,243.14L919.44,243.14L919.44,241.48" fill="none" stroke="#000000" style="-webkit-tap-highlight-color: rgba(0, 0, 0, 0); stroke-linecap: round; stroke-linejoin: round; stroke-width: 5;" /><path d="M957.61,414.08L955.95,414.08L954.29,412.42L952.64,412.42L950.98,410.76L952.64,410.76L955.95,410.76L957.61,410.76L960.93,410.76L964.25,410.76L967.57,412.42L969.23,414.08L972.55,415.74L974.21,417.4L975.87,419.06L977.53,422.38L979.19,424.04L979.19,427.36L980.85,430.68L980.85,432.34L982.51,434L984.17,434L985.83,435.66L989.15,435.66L992.47,435.66L994.13,435.66L997.45,435.66L1000.76,435.66L1004.08,435.66L1009.06,434L1014.04,434L1017.36,434L1022.34,434" fill="none" stroke="#000000" style="-webkit-tap-highlight-color: rgba(0, 0, 0, 0); stroke-linecap: round; stroke-linejoin: round; stroke-width: 5;" /><path d="M438.15,264.71L436.49,266.37L436.49,264.71L436.49,263.05L434.83,259.73L434.83,256.41L433.17,253.1L433.17,251.44L431.51,248.12L429.85,246.46L428.19,246.46L426.53,248.12L426.53,249.78L426.53,251.44L426.53,253.1L426.53,254.76L426.53,258.07L428.19,261.39L429.85,264.71L431.51,266.37L431.51,268.03L433.17,268.03L434.83,269.69L436.49,269.69L438.15,269.69L441.47,269.69L443.12,269.69L446.44,269.69L449.76,269.69L453.08,268.03L456.4,268.03L459.72,268.03L463.04,268.03L464.7,268.03L468.02,266.37L469.68,266.37L471.34,266.37L473,266.37L474.66,264.71L476.32,264.71L477.98,264.71L479.64,264.71L482.96,264.71L484.62,264.71L486.28,266.37L487.94,266.37L489.59,266.37L491.25,266.37L492.91,266.37L494.57,264.71L496.23,264.71L496.23,263.05L496.23,261.39L496.23,259.73L496.23,258.07L496.23,256.41L497.89,254.76L499.55,253.1L501.21,253.1L502.87,253.1L504.53,254.76L506.19,256.41L509.51,256.41L511.17,258.07L514.49,259.73L516.15,261.39L517.81,261.39L519.47,263.05L521.13,263.05L521.13,261.39L522.79,259.73L522.79,258.07L524.45,256.41L524.45,254.76L524.45,253.1L526.11,249.78L526.11,248.12L526.11,246.46L526.11,243.14L527.77,241.48L527.77,239.82L527.77,238.16L529.43,238.16L529.43,236.5L531.09,234.84L531.09,233.18L532.75,231.52L534.41,229.86L536.06,228.2L539.38,228.2L541.04,226.54L544.36,224.88L547.68,224.88L552.66,223.22L555.98,223.22L560.96,221.56L564.28,221.56L567.6,219.9L570.92,219.9L574.24,218.24L577.56,218.24L580.88,218.24L582.53,218.24L585.85,219.9L589.17,221.56L590.83,223.22L592.49,224.88L594.15,228.2L594.15,231.52L594.15,234.84L594.15,239.82L595.81,243.14L595.81,244.8L595.81,248.12L595.81,249.78L595.81,253.1L594.15,254.76L592.49,258.07L592.49,259.73L590.83,261.39L589.17,264.71L585.85,266.37L584.19,268.03L582.53,271.35L582.53,273.01L580.88,276.33L580.88,279.65L580.88,281.31L580.88,284.63L580.88,286.29L580.88,289.61L582.53,291.27L582.53,292.93L584.19,296.25L585.85,297.91L587.51,301.23L589.17,302.88L590.83,306.2L592.49,309.52L592.49,311.18L592.49,314.5L594.15,317.82L594.15,321.14L594.15,322.8L594.15,327.78L594.15,331.1L594.15,334.42L594.15,337.74L594.15,341.06L594.15,344.38L594.15,347.7L594.15,351.01L594.15,352.67L594.15,355.99L592.49,359.31L592.49,360.97L592.49,365.95L590.83,369.27L590.83,372.59L589.17,375.91L589.17,379.23L587.51,380.89L587.51,384.21L587.51,385.87L585.85,387.53L585.85,390.85L585.85,392.51L587.51,394.17L589.17,394.17L590.83,394.17L594.15,394.17L597.47,394.17L602.45,395.82L605.77,395.82L607.43,395.82L609.09,397.48L609.09,399.14L607.43,402.46L605.77,402.46L600.79,404.12L592.49,400.8" fill="none" stroke="#000000" style="-webkit-tap-highlight-color: rgba(0, 0, 0, 0); stroke-linecap: round; stroke-linejoin: round; stroke-width: 5;" /><path d="M504.53,276.33L504.53,274.67L502.87,274.67L502.87,276.33L502.87,281.31L504.53,286.29L506.19,292.93L507.85,299.57L509.51,306.2L509.51,311.18L509.51,316.16L509.51,321.14L507.85,322.8L507.85,326.12L506.19,329.44L504.53,331.1L502.87,332.76L501.21,332.76L499.55,334.42L497.89,334.42L496.23,336.08L494.57,336.08L492.91,337.74L491.25,339.4L491.25,341.06L489.59,342.72L489.59,346.04L489.59,349.35L489.59,351.01L489.59,354.33L487.94,357.65L486.28,359.31L484.62,362.63L482.96,364.29L481.3,364.29L479.64,364.29L477.98,365.95L476.32,365.95" fill="none" stroke="#000000" style="-webkit-tap-highlight-color: rgba(0, 0, 0, 0); stroke-linecap: round; stroke-linejoin: round; stroke-width: 5;" /><path d="M421.55,239.82L421.55,241.48L421.55,243.14L419.89,244.8L419.89,248.12L419.89,251.44L419.89,256.41L419.89,259.73L421.55,264.71L421.55,269.69L423.21,274.67L423.21,279.65L424.87,284.63L426.53,291.27L428.19,296.25L428.19,302.88L429.85,309.52L429.85,314.5L429.85,321.14L431.51,324.46L433.17,327.78L433.17,331.1L434.83,334.42L434.83,337.74L436.49,341.06L436.49,344.38L438.15,346.04L439.81,347.7L441.47,351.01L441.47,352.67L443.12,354.33L443.12,355.99L443.12,357.65L444.78,359.31L444.78,360.97L444.78,362.63L446.44,362.63L446.44,364.29L448.1,365.95L449.76,365.95L453.08,367.61L454.74,367.61L458.06,367.61L459.72,367.61L463.04,367.61L464.7,367.61L466.36,369.27L468.02,369.27L469.68,370.93L469.68,372.59L471.34,374.25L471.34,377.57L473,379.23L473,380.89L474.66,382.55L474.66,384.21L476.32,385.87L476.32,387.53L477.98,390.85L477.98,392.51L479.64,394.17L479.64,395.82L481.3,397.48L481.3,399.14L482.96,402.46L482.96,404.12L482.96,405.78L484.62,409.1L484.62,410.76L484.62,414.08L484.62,415.74L484.62,417.4L482.96,419.06L482.96,422.38L482.96,424.04L482.96,425.7L482.96,429.02L482.96,430.68L482.96,434L482.96,435.66L481.3,437.32L479.64,435.66L477.98,435.66L477.98,434L476.32,434L477.98,434L479.64,432.34L482.96,432.34L484.62,430.68L486.28,430.68L487.94,429.02L491.25,427.36L492.91,425.7L494.57,425.7L496.23,425.7L497.89,425.7L499.55,425.7L502.87,425.7L504.53,427.36L506.19,429.02L506.19,430.68L506.19,432.34L506.19,434L506.19,432.34L506.19,434L506.19,435.66L506.19,437.32L506.19,438.98L506.19,440.64L504.53,442.29L504.53,443.95L502.87,443.95L501.21,443.95L499.55,443.95L497.89,442.29L494.57,442.29L491.25,440.64L486.28,438.98L482.96,437.32L477.98,435.66L476.32,435.66L474.66,435.66L473,435.66L473,437.32L474.66,437.32" fill="none" stroke="#000000" style="-webkit-tap-highlight-color: rgba(0, 0, 0, 0); stroke-linecap: round; stroke-linejoin: round; stroke-width: 5;" /><path d="M446.44,447.27L448.1,447.27L449.76,448.93L453.08,452.25L456.4,455.57L458.06,458.89L461.38,462.21L463.04,465.53L464.7,468.85L464.7,470.51" fill="none" stroke="#000000" style="-webkit-tap-highlight-color: rgba(0, 0, 0, 0); stroke-linecap: round; stroke-linejoin: round; stroke-width: 5;" /><path d="M459.72,465.53L458.06,465.53L456.4,465.53L456.4,463.87L456.4,462.21L459.72,462.21L461.38,462.21L466.36,462.21L471.34,462.21L476.32,462.21L481.3,463.87L486.28,463.87L489.59,465.53L494.57,465.53L499.55,465.53L504.53,465.53L509.51,467.19L514.49,467.19L519.47,468.85L522.79,468.85L526.11,468.85L529.43,468.85L534.41,468.85L537.72,468.85L542.7,468.85L546.02,468.85L549.34,468.85L551,467.19L554.32,467.19L557.64,467.19L560.96,468.85L564.28,468.85L567.6,468.85L572.58,468.85L575.9,468.85L579.22,468.85L582.53,468.85L585.85,468.85L590.83,468.85L594.15,468.85L599.13,468.85L602.45,468.85L607.43,468.85L610.75,468.85L615.73,468.85L619.05,468.85L622.37,468.85L625.69,468.85L630.66,470.51L633.98,470.51L638.96,472.17L642.28,473.83L645.6,473.83L647.26,473.83L652.24,473.83L657.22,475.49L662.2,475.49L665.52,475.49L670.5,475.49L675.47,475.49L678.79,473.83L683.77,473.83L687.09,473.83L692.07,473.83L695.39,473.83L698.71,473.83L703.69,473.83L707.01,473.83L710.33,473.83L713.65,473.83L718.63,473.83L721.94,473.83L725.26,473.83L728.58,473.83L731.9,473.83L735.22,473.83L738.54,473.83L741.86,473.83L745.18,473.83L748.5,473.83L751.82,472.17L755.14,472.17L758.46,472.17L761.78,472.17L766.76,470.51L770.07,470.51L771.73,470.51L775.05,470.51L778.37,470.51L781.69,472.17L785.01,472.17L788.33,472.17L789.99,472.17L793.31,472.17L796.63,472.17L799.95,472.17L803.27,472.17L806.59,472.17L809.91,472.17L813.23,472.17L816.54,472.17L819.86,472.17L821.52,472.17L824.84,472.17L828.16,472.17L831.48,472.17L834.8,473.83L838.12,473.83L841.44,473.83L846.42,473.83L849.74,473.83L853.06,473.83L858.04,473.83L861.35,473.83L866.33,473.83L869.65,473.83L872.97,473.83L877.95,473.83L881.27,472.17L884.59,472.17L889.57,472.17L892.89,472.17L897.87,472.17L901.19,472.17L904.51,470.51L907.82,470.51L912.8,470.51L916.12,470.51L921.1,470.51L924.42,470.51L929.4,472.17L934.38,472.17L937.7,472.17L942.68,472.17L946,472.17L950.98,472.17L954.29,472.17L959.27,472.17L964.25,472.17L969.23,472.17L972.55,472.17L977.53,472.17L982.51,472.17L987.49,472.17L994.13,472.17L999.11,472.17L1004.08,472.17L1009.06,472.17L1014.04,470.51L1017.36,470.51L1020.68,468.85L1022.34,468.85L1024,468.85" fill="none" stroke="#000000" style="-webkit-tap-highlight-color: rgba(0, 0, 0, 0); stroke-linecap: round; stroke-linejoin: round; stroke-width: 5;" /><path d="M1022.34,487.11L1019.02,487.11L1017.36,487.11L1015.7,485.45L1014.04,483.79L1012.38,482.13L1009.06,482.13L1007.4,480.47L1004.08,480.47L1000.76,480.47L995.79,480.47L994.13,480.47L990.81,480.47L987.49,482.13L985.83,482.13L982.51,482.13L980.85,482.13L979.19,482.13L975.87,483.79L974.21,483.79L972.55,483.79L969.23,483.79L967.57,483.79L964.25,483.79L960.93,483.79L959.27,483.79L955.95,483.79L952.64,483.79L949.32,483.79L946,483.79L942.68,483.79L939.36,483.79L936.04,485.45L934.38,485.45L931.06,485.45L927.74,485.45L926.08,485.45L922.76,485.45L921.1,485.45L917.78,485.45L914.46,485.45L911.14,485.45L907.82,485.45L904.51,485.45L901.19,485.45L897.87,485.45L894.55,485.45L891.23,483.79L889.57,483.79L886.25,483.79L882.93,483.79L879.61,483.79L877.95,483.79L874.63,483.79L871.31,483.79L869.65,483.79L866.33,483.79L864.67,483.79L861.35,483.79L859.7,483.79L856.38,483.79L854.72,483.79L851.4,483.79L848.08,483.79L844.76,483.79L841.44,483.79L836.46,483.79L833.14,483.79L828.16,483.79L824.84,483.79L819.86,485.45L816.54,485.45L811.57,485.45L808.25,485.45L803.27,485.45L799.95,485.45L796.63,485.45L793.31,485.45L789.99,485.45L786.67,485.45L783.35,485.45L780.03,485.45L776.71,485.45L771.73,485.45L768.41,485.45L763.44,485.45L760.12,485.45L755.14,485.45L751.82,485.45L746.84,485.45L741.86,487.11L738.54,487.11L735.22,487.11L728.58,487.11L725.26,487.11L721.94,487.11L716.97,485.45L711.99,485.45L707.01,485.45L700.37,485.45L695.39,485.45L690.41,485.45L685.43,485.45L680.45,485.45L677.13,485.45L672.16,485.45L667.18,485.45L663.86,485.45L658.88,485.45L655.56,485.45L650.58,485.45L647.26,485.45L643.94,485.45L638.96,485.45L635.64,485.45L632.32,485.45L627.35,485.45L624.03,483.79L619.05,483.79L615.73,483.79L610.75,483.79L607.43,482.13L602.45,482.13L599.13,482.13L594.15,482.13L590.83,480.47L585.85,480.47L582.53,480.47L577.56,478.81L574.24,478.81L569.26,478.81L564.28,478.81L560.96,477.15L555.98,477.15L551,475.49L546.02,475.49L539.38,473.83L532.75,473.83L526.11,473.83L519.47,473.83L512.83,473.83L507.85,473.83L501.21,473.83L496.23,473.83L491.25,473.83L486.28,475.49L481.3,475.49L477.98,475.49L474.66,477.15L473,477.15L471.34,477.15L469.68,478.81L468.02,478.81L466.36,480.47" fill="none" stroke="#000000" style="-webkit-tap-highlight-color: rgba(0, 0, 0, 0); stroke-linecap: round; stroke-linejoin: round; stroke-width: 5;" /><path d="M401.63,498.72L403.29,498.72L406.61,498.72L408.27,498.72L409.93,498.72L414.91,497.06L421.55,497.06L428.19,495.4L436.49,495.4L446.44,493.74L453.08,492.08L461.38,492.08L468.02,492.08L474.66,490.42L481.3,490.42L486.28,492.08L492.91,492.08L499.55,493.74L506.19,493.74L512.83,493.74L519.47,495.4L526.11,495.4L532.75,495.4L539.38,495.4L544.36,497.06L551,497.06L555.98,498.72L562.62,500.38L569.26,500.38L575.9,502.04L582.53,502.04L589.17,503.7L594.15,503.7L600.79,503.7L607.43,503.7L615.73,505.36L622.37,505.36L629,505.36L635.64,505.36L642.28,505.36L648.92,505.36L653.9,505.36L658.88,505.36L665.52,505.36L670.5,505.36L675.47,505.36L680.45,505.36L685.43,505.36L690.41,505.36L695.39,505.36L702.03,505.36L707.01,505.36L711.99,505.36L716.97,505.36L721.94,505.36L726.92,505.36L733.56,505.36L738.54,505.36L743.52,505.36L748.5,505.36L753.48,505.36L756.8,505.36L761.78,505.36L766.76,505.36L770.07,505.36L775.05,505.36L778.37,505.36L781.69,505.36L786.67,505.36L791.65,505.36L796.63,505.36L801.61,505.36L806.59,505.36L809.91,505.36L814.88,505.36L819.86,505.36L824.84,505.36L828.16,505.36L833.14,505.36L838.12,503.7L843.1,503.7L849.74,503.7L854.72,503.7L859.7,502.04L866.33,502.04L872.97,502.04L879.61,502.04L886.25,502.04L892.89,502.04L899.53,502.04L906.17,502.04L912.8,502.04L919.44,502.04L924.42,502.04L932.72,503.7L937.7,505.36L944.34,505.36L949.32,505.36L954.29,505.36L959.27,505.36L965.91,505.36L970.89,505.36L977.53,507.02L982.51,507.02L989.15,507.02L994.13,507.02L999.11,507.02L1005.74,507.02L1010.72,507.02L1015.7,505.36L1020.68,505.36" fill="none" stroke="#000000" style="-webkit-tap-highlight-color: rgba(0, 0, 0, 0); stroke-linecap: round; stroke-linejoin: round; stroke-width: 5;" /><path d="M245.63,369.27L245.63,370.93L243.97,372.59L243.97,370.93L243.97,369.27L245.63,369.27L248.95,367.61L255.59,367.61L262.22,367.61L268.86,367.61L277.16,367.61L283.8,367.61L288.78,365.95L293.76,365.95L298.74,364.29L303.71,364.29L308.69,364.29L313.67,364.29L318.65,364.29L325.29,364.29L330.27,362.63L335.25,362.63L341.89,362.63L346.87,362.63L353.5,362.63L358.48,362.63L363.46,362.63L370.1,362.63L373.42,360.97L376.74,359.31L378.4,359.31L378.4,357.65L376.74,357.65L373.42,359.31" fill="none" stroke="#000000" style="-webkit-tap-highlight-color: rgba(0, 0, 0, 0); stroke-linecap: round; stroke-linejoin: round; stroke-width: 5;" /><path d="M164.3,150.2L164.3,148.54L162.65,145.22L162.65,143.56L160.99,143.56L160.99,141.9L159.33,140.24L159.33,141.9L157.67,143.56L157.67,145.22L157.67,150.2L157.67,156.84L157.67,163.47L157.67,173.43L157.67,181.73L157.67,190.03L157.67,196.67L156.01,203.31L156.01,209.94L156.01,216.58L156.01,223.22L156.01,228.2L156.01,233.18L156.01,238.16L157.67,243.14L159.33,246.46L159.33,249.78L159.33,251.44L159.33,258.07L159.33,261.39L159.33,266.37L160.99,269.69L160.99,274.67L160.99,279.65L160.99,284.63L160.99,289.61L159.33,296.25L159.33,301.23L159.33,306.2L157.67,311.18L157.67,316.16L157.67,321.14L159.33,326.12L159.33,332.76L159.33,337.74L159.33,341.06L160.99,344.38L160.99,347.7L160.99,351.01L159.33,352.67L159.33,354.33L157.67,354.33L157.67,352.67" fill="none" stroke="#000000" style="-webkit-tap-highlight-color: rgba(0, 0, 0, 0); stroke-linecap: round; stroke-linejoin: round; stroke-width: 5;" /><path d="M102.9,294.59L102.9,292.93L102.9,291.27L102.9,292.93L102.9,294.59L104.56,296.25L104.56,301.23L104.56,306.2L106.22,311.18L106.22,317.82L106.22,322.8L106.22,326.12L107.88,329.44L107.88,327.78L107.88,324.46L106.22,322.8L106.22,321.14L104.56,319.48L104.56,317.82L102.9,316.16L99.58,314.5L96.26,312.84L91.28,312.84L87.96,312.84L84.64,316.16L84.64,317.82L84.64,321.14L84.64,322.8" fill="none" stroke="#000000" style="-webkit-tap-highlight-color: rgba(0, 0, 0, 0); stroke-linecap: round; stroke-linejoin: round; stroke-width: 5;" /><path d="M433.17,163.47L431.51,163.47L429.85,160.16L429.85,158.5L429.85,156.84L428.19,155.18L428.19,156.84L429.85,158.5L433.17,160.16L434.83,161.82L439.81,161.82L444.78,163.47L451.42,165.13L459.72,165.13L464.7,165.13L471.34,166.79L476.32,166.79L481.3,166.79L484.62,166.79L489.59,166.79L496.23,166.79L501.21,166.79L506.19,166.79L511.17,166.79L514.49,166.79L519.47,165.13L524.45,165.13L529.43,165.13L532.75,165.13L536.06,165.13L539.38,165.13L542.7,165.13L546.02,165.13L549.34,165.13L552.66,165.13L557.64,165.13L560.96,165.13L564.28,165.13L567.6,165.13L570.92,165.13L575.9,165.13L579.22,165.13L582.53,165.13L585.85,165.13L589.17,163.47L590.83,163.47L592.49,163.47L594.15,161.82L595.81,160.16L597.47,158.5L599.13,156.84L600.79,155.18L602.45,153.52L604.11,151.86L605.77,148.54L607.43,148.54L609.09,146.88L610.75,146.88L612.41,145.22L615.73,145.22L617.39,145.22L620.71,145.22L624.03,145.22L627.35,145.22L627.35,146.88L630.66,146.88L633.98,146.88L637.3,146.88L638.96,146.88L640.62,146.88L642.28,146.88L642.28,148.54L642.28,150.2" fill="none" stroke="#000000" style="-webkit-tap-highlight-color: rgba(0, 0, 0, 0); stroke-linecap: round; stroke-linejoin: round; stroke-width: 5;" /><path d="M629,126.96L625.69,125.3L624.03,125.3L622.37,130.28L619.05,135.26L615.73,141.9L612.41,146.88L609.09,151.86L609.09,153.52L612.41,155.18L614.07,155.18" fill="none" stroke="#000000" style="-webkit-tap-highlight-color: rgba(0, 0, 0, 0); stroke-linecap: round; stroke-linejoin: round; stroke-width: 5;" /><path d="M911.14,183.39L909.48,183.39L906.17,181.73L904.51,181.73L902.85,180.07L899.53,180.07L897.87,178.41L896.21,178.41L896.21,176.75L897.87,178.41L897.87,180.07L899.53,183.39L899.53,190.03L899.53,198.33L899.53,208.29L899.53,216.58L897.87,223.22L897.87,228.2L897.87,229.86L897.87,228.2" fill="none" stroke="#000000" style="-webkit-tap-highlight-color: rgba(0, 0, 0, 0); stroke-linecap: round; stroke-linejoin: round; stroke-width: 5;" /><path d="M1005.74,311.18L1005.74,309.52L1005.74,307.86L1007.4,306.2L1007.4,307.86L1005.74,309.52L1005.74,311.18L1005.74,312.84" fill="none" stroke="#000000" style="-webkit-tap-highlight-color: rgba(0, 0, 0, 0); stroke-linecap: round; stroke-linejoin: round; stroke-width: 5;" /><path d="M599.13,316.16L597.47,316.16L595.81,316.16L594.15,316.16L594.15,317.82L594.15,319.48L595.81,321.14L597.47,322.8L599.13,324.46L602.45,326.12L605.77,327.78L609.09,327.78L612.41,327.78L615.73,326.12L619.05,322.8L620.71,321.14L624.03,317.82L627.35,314.5L630.66,309.52L632.32,307.86L635.64,304.54L637.3,302.88L638.96,301.23L640.62,299.57L643.94,299.57L645.6,297.91L648.92,297.91L652.24,296.25L655.56,296.25L658.88,294.59L660.54,292.93L662.2,292.93L665.52,291.27L667.18,291.27L668.84,289.61L668.84,291.27L668.84,292.93L668.84,294.59L668.84,296.25" fill="none" stroke="#000000" style="-webkit-tap-highlight-color: rgba(0, 0, 0, 0); stroke-linecap: round; stroke-linejoin: round; stroke-width: 5;" /><path d="M746.84,158.5L745.18,156.84L743.52,156.84L741.86,156.84L741.86,158.5L741.86,161.82L743.52,166.79L743.52,171.77L743.52,178.41L745.18,185.05L745.18,188.37L745.18,190.03L745.18,191.69L743.52,191.69L743.52,193.35" fill="none" stroke="#000000" style="-webkit-tap-highlight-color: rgba(0, 0, 0, 0); stroke-linecap: round; stroke-linejoin: round; stroke-width: 5;" /><path d="M758.46,410.76L760.12,410.76L753.48,414.08L748.5,417.4L746.84,419.06L745.18,420.72" fill="none" stroke="#000000" style="-webkit-tap-highlight-color: rgba(0, 0, 0, 0); stroke-linecap: round; stroke-linejoin: round; stroke-width: 5;" /><path d="M378.4,256.41L378.4,254.76L378.4,251.44L378.4,249.78L378.4,248.12L376.74,248.12L376.74,249.78L375.08,251.44L375.08,256.41L375.08,266.37L375.08,281.31L375.08,301.23L375.08,319.48L373.42,334.42L373.42,341.06L373.42,344.38L373.42,346.04L373.42,349.35L375.08,352.67L375.08,354.33L375.08,355.99L375.08,357.65L375.08,360.97L375.08,362.63L375.08,364.29L373.42,364.29L373.42,362.63L373.42,360.97L375.08,360.97" fill="none" stroke="#000000" style="-webkit-tap-highlight-color: rgba(0, 0, 0, 0); stroke-linecap: round; stroke-linejoin: round; stroke-width: 5;" /></svg>