<?xml version="1.0" encoding="utf-8" ?>
<svg baseProfile="full" height="758" version="1.1" width="1024" xmlns="http://www.w3.org/2000/svg" xmlns:ev="http://www.w3.org/2001/xml-events" xmlns:xlink="http://www.w3.org/1999/xlink"><defs /><path d="M165.96,556.81L162,562L161,561L162,563L159,571L158,567L159,569L159,571L158,568L161,572L159,570L163,576L163,576L165,580L164,581L163,582L164,585L164,585L163,588L163,588L165,590L168,592L168,592L169,592L171,592L173,591L174,591L176,592L178,593L178,595L179,597L179,597L181,598L182,603L181,604L181,604L177,606L177,606L176,607L174,608L174,608L169,609L169,609L169,609L168,609L167,612L164,613L163,613L161,614L161,612L159,615L158,616L158,616L157,617L153,618L154,620L148,619L149,623L149,623L146,621L144,622L142,622L142,622L141,623L141,623L134,623L133,622L133,622L132,622L129,623L128,623L126,622L124,621L121,620L122,620L119,620L118,620L116,620L116,620L111,617L110,617L113,618L108,616L107,616L103,614L103,614L107,616L96,618L96,618L96,618L96,613L95,612L93,612L95,612L91,608L91,608L91,608L89,607L90,602L90,602L89,600L86,598L86,598L86,595L85,593L85,593L84,590L81,588L81,588L80,587L78,584L77,583L75,581L75,581L73,581L71,580L70,576L67,579L66,578L65,577L63,577L61,575L60,575L57,574L55,573L55,573L51,572L51,572L50,572L48,571L46,571L46,571L45,571L43,571L41,571L41,571L39,572L38,573L38,574L38,574L39,577L39,577L37,581L36,583L36,583L36,585L35,588L34,590L35,587L34,591L33,593L33,595L33,595L33,597L31,597L31,592L30,595L31,590L31,583L31,587L32,580L32,578L27,573L27,573L27,573L25,573L28,572L25,573L31,565L28,572L29,560L29,558L29,557L29,560L29,553L29,553L28,548L27,549L28,547L28,546L27,534L28,546L27,534L27,534L27,529L27,531L26,525L26,525L26,525L26,525L26,525L20,519L20,519L32,506L32,506L32,506L32,506L32,506L32,506L28,490L28,492L24,500L24,500L24,500L28,490L24,488L24,488L25,497L25,499L23,487L25,497L23,487L23,487L18,487L18,487L17,487L13,487L12,487L12,487L10,488L9,489L4,491L4,491" fill="none" stroke="#000000" style="-webkit-tap-highlight-color: rgba(0, 0, 0, 0); stroke-linecap: round; stroke-linejoin: round; stroke-width: 5;" /><path d="M4,491L4,491L9,489" fill="none" stroke="#000000" style="-webkit-tap-highlight-color: rgba(0, 0, 0, 0); stroke-linecap: round; stroke-linejoin: round; stroke-width: 5;" /><path d="M8.3,415.74L5,423L3,423L8,423L7,423L10,423L12,423L13,423L17,423L18,423L22,423L23,423L27,422L28,422L32,423L31,423L35,422L37,422L38,422L40,422L41,422L43,422L45,422L46,422L50,422L48,422L51,422L53,422L56,422L55,422L58,422L60,422L61,422L65,422L63,422L66,422L68,421L73,421L71,421L75,421L80,421L78,421L81,421L83,421L88,421L86,421L91,421L93,421L95,421L98,421L100,421L101,421L103,421L105,421L108,421L106,420L110,421L111,421L113,421L115,421L116,421L119,420L117,421L121,420L123,420L124,420L128,420L129,420L131,420L138,420L134,420L139,420L146,420L143,420L144,420L149,420L151,420L153,420L158,420L154,420L159,420L161,420L163,420L164,420L166,420L168,420L169,420L171,420L173,420L178,420L174,420L176,420L179,420L181,420L183,421L184,420L186,420L188,420L189,420L191,421L193,421L194,421L197,421L196,421L199,421L200,421L202,421L206,421L206,421L209,420L211,420L214,420L216,420L217,420L221,420L222,420L224,420L227,420L234,420L229,420L232,420L236,420L237,420L239,420L241,420L242,420L247,420L244,420L249,420L246,420L254,420L251,420L252,420L256,420L258,420L257,420L261,419L262,419L271,419L266,419L264,419L267,419L272,419L279,419L274,419L276,419L280,419L282,419L284,419L285,419L287,419L292,419L294,419L290,419L294,419L294,419L294,419L294,419L294,419L307,421L310,421L309,421L312,421L314,421L315,421L317,419L320,419L319,419L324,419L325,419L327,419L329,419L330,419L332,419L335,421L334,419L337,421L339,421L342,421L340,421L344,419L355,412L358,419L355,412L355,412L355,412L358,418L356,413L358,419L358,419L358,418L358,419L358,419" fill="none" stroke="#000000" style="-webkit-tap-highlight-color: rgba(0, 0, 0, 0); stroke-linecap: round; stroke-linejoin: round; stroke-width: 5;" /><path d="M0,352.67" fill="none" stroke="#000000" style="-webkit-tap-highlight-color: rgba(0, 0, 0, 0); stroke-linecap: round; stroke-linejoin: round; stroke-width: 5;" /><path d="M0,362.63L5,363L3,363L7,361L10,358L8,359L12,358L15,358L18,358L23,356L28,356L33,356L45,356L40,356L48,356L51,356L58,356L55,356L65,356L61,356L68,354L71,354L75,353L78,353L80,351L83,351L85,351L88,351L91,351L93,351L96,353L100,353L101,354L105,354L108,356L111,356L118,356L115,356L128,354L124,354L131,354L121,356L141,354L134,354L136,354L139,354L144,356L143,356L148,358L146,358L149,358L151,359L153,359L154,359L156,359L158,359L163,359L159,359L164,359L169,359L171,359L166,359L173,359L176,359L174,359L178,359L179,359L181,361L179,361L183,361L184,361L188,361L186,361L189,361L191,361L193,361L196,361L197,361L194,361L202,359L199,361L201,359L204,359L206,359L207,359L209,359L211,359L212,359L214,359L216,359L217,359L219,359L221,359L224,359L222,359L227,359L226,359L231,359L229,359L232,359L234,359L236,359L237,359L241,359L242,359L239,359L244,358L246,358L247,358L249,358L251,358L252,358L254,358L256,358L257,356L259,356L261,356L264,356L262,356L266,356L269,356L271,356L267,356L272,356L274,356L277,358L276,358L279,358L284,358L282,358L280,358L285,358L289,358L287,358L290,358L292,358L297,358L294,358L295,358L300,358L302,358L304,358L307,358L305,358L310,358L312,358L317,359L315,358L320,359L324,359L325,359L327,359L329,359L332,359L334,358L335,358L337,358L340,358L339,358L342,358L344,358L345,358L347,358L349,358L352,358L354,358L357,358L358,358L360,358L363,358L365,356L362,358L367,356L368,356L370,356L372,356L373,354L386,362L375,354L386,362L387,361" fill="none" stroke="#000000" style="-webkit-tap-highlight-color: rgba(0, 0, 0, 0); stroke-linecap: round; stroke-linejoin: round; stroke-width: 5;" /><path d="M560,94L567.6,92.11L560,94L560,92L559,98L559,100L559,99L562,104L560,105L561,107L561,107L561,107L562,107L562,107L562,107L562,107L571,123L571,123L571,123L571,123L571,123L571,123L573,123L571,123L574,123L576,123L578,123L581,123L581,123L581,123L589,116L589,116L589,116L594,119L594,119L594,119L596,119L596,119L596,119L603,124L603,124L604,124L606,124L607,124L611,123L616,125L622,125L611,123L613,124L624,125L622,125L625,125L617,125L625,127L630,124L625,127L633,125L630,133L633,125L633,125L636,125L636,125L636,125L619,126L647,129L622,125L647,129L647,129L647,130L648,130L650,130L654,134L651,132L655,134L655,134L662,136L663,134L664,134L663,134L666,136L667,134L668,134L667,134L669,135L669,135L676,134L676,134L676,134L678,134L678,134L678,132L678,131L680,126L682,127L680,124L680,124L680,122L680,120L680,119L681,117L681,115L681,115L682,110L682,112L682,109L682,108L683,105L682,102L682,102L682,102L682,100L685,99L687,98L685,97L686,95L689,94L690,94L692,95L693,95L695,96L693,95L695,96L702,95L703,94L703,94L704,94L705,94L710,91L710,91L713,90L714,89L715,88L717,91L719,91L719,91L724,85L726,86L724,85L726,86L732,87L729,87L730,87L734,85L733,86L734,85L736,84L740,84L740,84L742,84L744,84L744,84L748,85L749,85L747,84L752,84L753,84L753,82L753,84L754,81L755,79L756,77L756,77L759,77L759,77L762,76L763,76L765,77L767,77L768,77L770,77L770,79L772,79L773,79" fill="none" stroke="#000000" style="-webkit-tap-highlight-color: rgba(0, 0, 0, 0); stroke-linecap: round; stroke-linejoin: round; stroke-width: 5;" /><path d="M773.39,83.81L773,79L774,79L780,84L777,84L781,86L782,92L780,84L778,84L783,92L783,92L783,95L785,95L785,95L787,97L786,95L787,98L787,98L787,98L783,105L787,98L787,98L798,110L798,110L801,108L801,108L801,108L801,108L801,108L805,112L801,108L806,112" fill="none" stroke="#000000" style="-webkit-tap-highlight-color: rgba(0, 0, 0, 0); stroke-linecap: round; stroke-linejoin: round; stroke-width: 5;" /><path d="M806,112L794.97,112.03L798,111L798,110L802,110L811,110L812,109L812,109L812,109L812,109L812,109L813,110L813,110L813,110L815,113L815,113L827,118L827,118L827,118L827,118L827,118L825,119L827,119L827,122L826,124L826,124L826,124L826,124L837,127L837,127L837,127L838,125L840,125L840,125" fill="none" stroke="#000000" style="-webkit-tap-highlight-color: rgba(0, 0, 0, 0); stroke-linecap: round; stroke-linejoin: round; stroke-width: 5;" /><path d="M840,125L846,129L846,129L846,129L843.1,126.96L840,127L846,129L846,129L847,129L851,130L854,129L855,129L856,130L856,130L863,133L856,130L863,133L867,129L867,128L868,126L869,124L869,122L870,122L871,122L874,121L877,119L877,119L878,118L880,118L883,119L880,120L885,120L886,120L887,119L887,118L887,113L887,113L888,110L890,108L893,105L890,108L893,104L893,104L893,104L896,102L896,102L897,101L899,99L899,99L898,93L899,94L898,93L900,91L900,91L901,88L904,89L905,87L906,87L908,88L909,89L909,89L910,90L913,93L914,93L916,94L914,93L920,92L920,92L923,89L923,89L927,88L928,87L931,87L937,85L932,87L940,83L944,81L945,81L943,81L950,80L953,79L950,80L953,79L954,79L956,79L957,79L957,79L957,79L968,76L968,76L968,76L971,74L973,73L972,73L984,72L986,72L973,73L977,73" fill="none" stroke="#000000" style="-webkit-tap-highlight-color: rgba(0, 0, 0, 0); stroke-linecap: round; stroke-linejoin: round; stroke-width: 5;" /><path d="M991,71L992,71L993,71L997,71L999,71L977,73L983,72L1001,71L1001,71L1003,70L1004,73L1010,71L1009,69L1011,70L1024,67.22L1012,69L1012,71L1017,69L1017,69L1018,69" fill="none" stroke="#000000" style="-webkit-tap-highlight-color: rgba(0, 0, 0, 0); stroke-linecap: round; stroke-linejoin: round; stroke-width: 5;" /><path d="M1021,69L1021,67L1022,65L1022,65" fill="none" stroke="#000000" style="-webkit-tap-highlight-color: rgba(0, 0, 0, 0); stroke-linecap: round; stroke-linejoin: round; stroke-width: 5;" /><path d="M838.12,130.28L838,135L838,137L836,140L835,142L835,142L837,147L837,147L836,149L836,149L836,149L832,158L833,159L833,159L834,162L834,161L835,164L835,163L836,167L836,168L836,169L836,169L840,174L840,174L842,176L842,178L842,178L842,180L843,181L844,183L843,184L841,184L841,184L844,190L844,190L844,191L844,191L841,198L841,200L841,198L841,200L840,205L840,205L840,209L840,210L840,210L837,215L842,211L840,219L840,219L840,219L840,222L840,222L842,225L840,229L840,229L838,229L838,229L837,232L837,233L838,234L837,236L837,237L838,239L835,243L835,243L835,246L835,248L836,250L836,251L836,253L836,254L837,256L836,258L836,260L838,260L838,260L838,263L838,264L840,270L838,264L840,271L840,269L840,273L839,275L839,276L840,278L840,278L842,281L840,283L840,285L840,286L841,290L836,286L838,293L838,295L838,295L838,293L836,298L838,302L836,304L838,302L836,302L835,311L836,304L835,310L835,308L836,315L836,313L836,316L836,319L836,319L836,321L836,321L836,321L841,325L842,330L836,337" fill="none" stroke="#000000" style="-webkit-tap-highlight-color: rgba(0, 0, 0, 0); stroke-linecap: round; stroke-linejoin: round; stroke-width: 5;" /><path d="M136.09,624.86L133,624L133,622L133,624L135,625L137,626L140,625L140,625L144,625L146,624L148,624L151,623L153,622L153,622L153,622L154,621L153,622L154,638L154,621L154,638L166,631L173,631L169,631L183,630L176,631L179,630L186,630L189,628L191,628L188,628L193,628L194,628" fill="none" stroke="#000000" style="-webkit-tap-highlight-color: rgba(0, 0, 0, 0); stroke-linecap: round; stroke-linejoin: round; stroke-width: 5;" /><path d="M196,628L197,628L199,628L210,633L210,633L210,633L210,633L211,633L212,633L211,633L210,633L223,628L223,630L214,633L215,633L223,628L224,630L224,628" fill="none" stroke="#000000" style="-webkit-tap-highlight-color: rgba(0, 0, 0, 0); stroke-linecap: round; stroke-linejoin: round; stroke-width: 5;" /><path d="M156.01,629.83L154,638L154,638L154,638L156,619L169,628L171,628L174,628L176,628L179,627L181,627L183,627L186,625L188,625L189,623L191,623L194,623L196,623L197,623L199,625L210,633L210,633L210,633L210,633L210,633L211,633L215,633L212,633L214,633L223,628L223,628L223,628L223,628L223,628L225,628L224,628L225,628L225,628L225,628L225,628L226,629L226,629L226,629L241,622L246,623L244,623L247,623L251,623L252,623L256,622L254,623L257,622L259,620L264,617L261,618L262,618L267,615L272,613L277,612L269,615L280,612L284,610L287,610L289,608L292,608L294,608L297,607L299,607L302,607L304,607L305,605L307,605L309,605L310,605L312,605L314,605L317,605L315,605L319,605L320,603L322,603L325,603L327,603L330,603L332,603L334,603L335,603L337,603L337,605L339,605L340,607L342,607L344,607L345,607L349,607L350,607L347,607L352,607L354,607L355,607L357,607L358,607L363,608L360,607L362,608L365,608L368,608L370,608L375,608L373,608L382,608L380,608L383,608L377,608L388,608L387,608L392,608L393,610L398,610L397,610L403,610L407,610L417,608L413,608L410,608L418,607L427,605L422,607L423,605L425,605L428,603L433,603L432,603L430,603L435,603L436,603L438,603L440,605L441,605L445,607L443,605L446,607L448,607L450,608L448,608L451,608L453,608L455,610L458,610L456,610L460,610L461,608L463,608L465,608L466,607L471,607L470,607L468,607L473,607L478,607L475,607L480,607L476,607L483,607L481,607L486,607L485,607L490,607L491,607L491,605L488,607L495,605L493,605L496,605L498,605L500,605L501,605L503,605L505,603L506,603L508,603L510,603L513,603L516,602L518,602L514,603L519,602L521,602L526,600L524,600L523,600L528,600L529,600L532,588L532,588L532,588L532,588L532,588L532,588L532,588L532,588L532,588L546,595L544,595L548,593L551,593L549,593L553,593L554,593L556,592L554,592L558,592L559,592L563,590L564,590L566,590L568,590L571,588L569,588L573,588L574,588L576,588L578,588L579,587L581,587L584,587L588,587L589,585L592,585L596,583L594,585L597,583L599,583L602,583L601,583L604,583L606,583L609,583L607,583L612,583L611,583L614,583L616,583L617,583L621,583L619,583L622,583L624,583L626,583L627,583L629,585L631,585L634,585L632,585L637,585L639,585L642,585L646,585L647,585L641,585L659,582L659,582L659,582L659,582L661,585L661,585L659,582L659,582L661,585L663,585L663,585L663,585L664,582L664,582L664,582L663,583L661,575L663,572L663,573L661,578L664,567L665,567L665,567L665,567L665,567L665,567L666,568L665,567L666,568L666,568L666,568L666,568L666,568L679,567L682,567L685,565L684,567L687,565L689,565L685,565L687,565L684,565L682,565L680,565L680,563L682,563L684,563L689,563L692,563L690,563L692,562L695,562L694,562L699,562L697,562L699,563L700,563L702,563L704,563L705,563L707,563L709,563L725,561L725,561L712,563L725,561L725,561L725,561L725,561L730,561L735,562L733,562L737,560L738,560L748,556L750,557L748,556L750,557L752,558L755,556L756,556L759,556L760,556L762,555L762,556L762,555L762,555L775,560L762,555L770,545L775,560L777,560L778,560L778,560L778,560L778,560L792,555L778,560L778,560L793,555L805,545L807,561" fill="none" stroke="#000000" style="-webkit-tap-highlight-color: rgba(0, 0, 0, 0); stroke-linecap: round; stroke-linejoin: round; stroke-width: 5;" /><path d="M778,560L807,561L807,561L779,563L807,561L803.27,561.79L808,565L807,563L811,565L813,565L813,565L825,571L825,571L831,565L831,565L834,567L835,567L835,567L837,565L840,565L841,565L843,566L843,566L851,569L843,566L851,572L851,570L855,579L853,575L856,579L858,580L859,582L861,581L861,581L864,582L865,582L867,583L867,583L868,581L870,579L871,577L873,576L875,575L877,574L878,570L879,574L881,569L885,567L886,567L889,565L888,567L892,563L895,564L897,562L897,557L903,553L903,552L903,553L904,548L917,550L919,546L920,540L920,541L920,539L923,535L920,539L920,537L923,534L926,529L925,525L925,526L923,533L929,524L928,517L928,521L928,522L931,512L935,504L931,512L931,512L935,504L935,504L935,504L935,504L937,497L935,504L945,495L936,501L945,495L945,495L945,495L946,495L947,495L950,498L949,497L948,496L950,498L958,500L959,500L956,500L959,500L963,501L962,501L966,502L967,510L969,510L968,510L971,511L973,510L974,510L976,510L978,513L979,513L980,513L985,511L983,510L988,512L991,514L989,513L992,514L994,515L996,517L996,517L999,517L1001,517L1001,520L1002,520L1002,520L1004,520L1006,521L1004,520L1007,522L1011,522L1009,521L1019,524L1019,524L1011,522L1014,522" fill="none" stroke="#000000" style="-webkit-tap-highlight-color: rgba(0, 0, 0, 0); stroke-linecap: round; stroke-linejoin: round; stroke-width: 5;" /><path d="M1022,710L1021,710L1019,710" fill="none" stroke="#000000" style="-webkit-tap-highlight-color: rgba(0, 0, 0, 0); stroke-linecap: round; stroke-linejoin: round; stroke-width: 5;" /><path d="M240.65,654.73L256,651L231,658L258,651L231,658L233,661L256,651L276,658L262,652L289,652L281,656L293,655L296,655L303,656L299,656L309,657L313,660L317,662L329,663L331,663L324,665L342,669L349,668L356,673L338,670L358,671L363,671L367,671L373,672L379,673L386,673L390,673L390,675L398,673L403,675L400,675L407,676L411,678L414,679L420,682L421,683L421,683L448,686L438,678L448,686L438,678L467,688L456,688L451,689L461,686L473,688L475,688L470,688L479,690L486,691L490,691L495,690L483,691L500,690L509,696L508,694L498,690L516,697L513,695L521,698L509,696L528,699L524,699L535,700L531,699L538,699L541,701L539,701L542,699L552,703L549,697L552,703L553,703L556,704L558,704L560,704L565,703L568,703L565,703L566,703L572,707L572,707L579,708L574,708L576,709L583,708L583,708L583,708L591,713L591,713L591,713L592,713L596,713L596,714L602,713L603,714L607,713L608,713L616,712L617,712L619,712L625,715L627,716L629,715L633,717L636,717L634,717L637,719L639,718L641,722L637,721L644,722L642,722L647,722L645,720L649,723L647,722L650,722L652,721L654,722L657,722L659,723L664,724L664,724L666,726L670,728L669,724L674,728L672,728L679,728L674,728L682,729L684,729L687,730L695,729L693,728L698,731L700,731L703,732L709,734L706,731L710,734L715,736L715,736L717,736L720,736L725,737L722,737L724,737L727,734L728,738L731,739L730,739L734,737L734,737L734,737L738,737L739,737L741,740L742,740L744,740L745,738L747,739L747,739L749,740L749,740L749,740L759,739L759,739L760,739L762,738L763,738L765,742L766,742L767,743L771,742L767,743L773,746L773,746L775,746L778,745L779,745L783,744L785,747L787,745L788,746L790,746L793,744L800,750L801,748L802,748L803,747L802,748L805,747L807,747L808,747L810,751L812,751L814,748L818,748L817,749" fill="none" stroke="#000000" style="-webkit-tap-highlight-color: rgba(0, 0, 0, 0); stroke-linecap: round; stroke-linejoin: round; stroke-width: 5;" /><path d="M769,127L773,122L773,118L769,116L770,115L770,108L770,112L769,105L771,102L770,99L770,97L771,94L770,92" fill="none" stroke="#000000" style="-webkit-tap-highlight-color: rgba(0, 0, 0, 0); stroke-linecap: round; stroke-linejoin: round; stroke-width: 5;" /><path d="M756.8,228.2L760,230L765,231L762,231L767,234L768,240L767,245L766,236L771,249L770,251L771,260L775,254L772,263L774,268L773,266L774,269L770,271L771,277L770,275L772,278L772,278L772,282L772,282L772,285L772,285L772,287L769,292L769,293L769,295L769,300L769,296L769,300L769,300L763,304L769,300L768,300L763,304L763,304L760,304L753,307L755,306L746,308L741,308L739,306L745,308L733,307L728,308L720,306L715,303L725,308L710,303L702,306L700,306L698,306L690,312L690,312L690,312L684,311L682,311L676,311L679,311L676,311L669,312L656,315L664,311L666,311L648,311L645,311L627,316L630,318L639,308L626,318L616,318L616,318L614,318L609,313L609,313L609,313L604,312L603,312L603,312L599,308L603,312L596,319L599,308L592,306L592,306L584,318L578,311L576,310L574,310L574,310L578,311L574,310L569,302L568,300L569,302L568,300L569,290L568,296L569,291L569,288L568,284L568,284L566,284L564,283L563,280L562,276L562,278L562,275L561,274L563,268L563,268L562,266L562,255L562,266L562,255L563,254L563,254L563,254L563,254L561,245L569,240L571,240L569,240L571,240L573,234L573,236L573,234L573,234L573,234L573,234L571,236L571,238L569,240L571,240L569,234L568,238" fill="none" stroke="#000000" style="-webkit-tap-highlight-color: rgba(0, 0, 0, 0); stroke-linecap: round; stroke-linejoin: round; stroke-width: 5;" /><path d="M987,413L989,413L990,413L990,413L993,410L993,410L1000,417L1000,417L1002,417L1001,417L1003,417L1003,417L1003,417L1003,417L1003,417L1003,417" fill="none" stroke="#000000" style="-webkit-tap-highlight-color: rgba(0, 0, 0, 0); stroke-linecap: round; stroke-linejoin: round; stroke-width: 5;" /><path d="M941.02,419.06" fill="none" stroke="#000000" style="-webkit-tap-highlight-color: rgba(0, 0, 0, 0); stroke-linecap: round; stroke-linejoin: round; stroke-width: 5;" /><path d="M1016,416L1003,417L1003,417L1003,417" fill="none" stroke="#000000" style="-webkit-tap-highlight-color: rgba(0, 0, 0, 0); stroke-linecap: round; stroke-linejoin: round; stroke-width: 5;" /><path d="M943,412" fill="none" stroke="#000000" style="-webkit-tap-highlight-color: rgba(0, 0, 0, 0); stroke-linecap: round; stroke-linejoin: round; stroke-width: 5;" /><path d="M1003,417" fill="none" stroke="#000000" style="-webkit-tap-highlight-color: rgba(0, 0, 0, 0); stroke-linecap: round; stroke-linejoin: round; stroke-width: 5;" /><path d="M941,412L941,412L934,417L934,417L934,417L934,417L934,417L943,428L943,428L929,429L942,433L942,433L938,438L938,438L936,439L936,439L935,443L929,442L929,446L929,444L929,447L929,449L929,450L929,450L931,454L931,457L931,457L933,460L933,463L933,464L933,465L933,468L933,468L931,471L931,472L931,474L931,472L931,474L931,474L933,479L933,479L933,479L923,487L923,487L923,487L924,491L924,491L926,496L925,493L925,495L926,497L926,499L926,499L924,504L926,501L924,504L922,507L923,504L924,504L919,506L917,511L919,509L918,510L915,513L913,517L913,516L914,514L906,524L909,521L909,522L909,521L906,524L906,524L906,527L906,527L906,530L904,528L904,528L904,532L901,534L900,535L900,537L898,536L897,539L897,540L897,541L895,545L893,545L893,544L890,548L891,547L890,548L884,553L885,552L887,550L878,563L878,563L877,564L883,555L876,564L875,567L880,559L875,567L882,556L879,560L873,568L875,567L872,572L873,570L868,574L868,573L868,577L866,578" fill="none" stroke="#000000" style="-webkit-tap-highlight-color: rgba(0, 0, 0, 0); stroke-linecap: round; stroke-linejoin: round; stroke-width: 5;" /><path d="M866,578L866,578L865,582L865,579L863,581L864,582L864,582L859,582L861,590L860,590L861,590L860,590L860,590L860,595L858,593L858,594" fill="none" stroke="#000000" style="-webkit-tap-highlight-color: rgba(0, 0, 0, 0); stroke-linecap: round; stroke-linejoin: round; stroke-width: 5;" /><path d="M932.72,475.49L931,474L931,474L931,472L934,470L937,470L939,470L939,470L943,468L948,469L943,468L947,469L949,469L950,469L952,469L949,469L952,469L959,469L965,474L959,469L959,469L965,474L965,474L968,474L966,474L968,474L970,474L968,474L970,474L976,472L977,474L977,474L979,473L981,474L984,475L984,475L985,476L985,476L995,477L985,476L995,477L995,477L996,477L997,477L998,477L1001,477L1001,477L1001,477L1009,475L1009,476L1009,475L1009,475L1011,474L1011,474L1012,474L1012,474L1012,476L1012,476L1014,476L1014,476" fill="none" stroke="#000000" style="-webkit-tap-highlight-color: rgba(0, 0, 0, 0); stroke-linecap: round; stroke-linejoin: round; stroke-width: 5;" /><path d="M1016,476L1019,477L1019,477L1019,477L1019,477" fill="none" stroke="#000000" style="-webkit-tap-highlight-color: rgba(0, 0, 0, 0); stroke-linecap: round; stroke-linejoin: round; stroke-width: 5;" /><path d="M147.71,548.51L143,548L144,549L138,549L140,550L136,550L139,549L134,549L133,549L132,549L133,545L128,544L128,544L126,545L123,543L124,543L121,545L119,545L118,542L119,542L118,542L115,540L114,538L115,539L114,538L114,538L114,527L114,527L114,527L114,527L113,525L110,523L109,522L109,520L109,519L109,519L109,508L109,519L109,508L109,508L109,508L109,508L106,498L106,498L106,497L106,496L106,496L106,498L106,496L106,496L106,496L106,496L105,485L106,485L106,484L106,482L110,479L108,480L108,479L110,477L111,479L111,482L111,480L120,494L120,494L120,494L120,494L120,494L113,482L116,479L119,477L115,480L124,477L121,477L126,477L129,477L138,477L134,477L131,477L141,477L153,474L148,474L143,475L149,474L158,472L156,474L161,472L163,472L164,474L171,475L168,475L166,474L174,477L173,477L176,477L178,479L179,479L184,479L183,479L186,479L189,479L193,479L191,479L196,479L207,488L207,488L207,488L214,482L214,482L214,482L217,482L216,482L217,482L217,482L217,482L236,489L236,489L237,489L239,489L239,489L239,489L251,488L251,488L251,488L255,488L255,488L255,488L255,488L255,488L271,486L271,486L271,486L271,486L272,486L275,486L275,486L282,475L285,474L289,472L295,471L292,471L299,469L300,469L305,469L302,469L304,469L307,469L312,467L309,469L310,469L314,467L317,467L315,467L319,466L320,466L325,462L324,462L322,464L325,461L329,459L327,461L330,459L330,457L334,457L335,457L332,457L337,457L339,457L339,456L340,456L342,456L344,456L349,454L345,456L347,456L350,454L362,444L363,445L363,445L363,445L363,445L363,445L363,445L363,445L363,445L371,451L363,445L363,445L363,445L362,444L363,445L362,444L362,443L365,441L364,439L365,441L364,437L361,435L362,437L362,436L364,430L364,430L363,429L363,429L363,427L364,427L363,422L363,422L363,421L365,416L366,415L366,415L366,415L365,414L364,413L363,412L361,406L361,405L361,405L366,394L361,405L366,394L369,392L373,390L368,393L372,384L373,383L375,379L375,381L376,379L376,379L376,379L376,379L386,363L386,363L386,363L386,363L386,363L387,363L387,363L390,361L392,360L399,354L392,360L399,354L399,354L399,354L401,352L402,349L392,360L403,348L403,348L392,360L407,347L405,348L407,347L410,345L410,345L410,345L410,345L410,345L426,339L426,339L426,339L427,337L428,336L431,335L433,334L428,336L433,334L436,333L440,331L436,333L440,331L440,331L440,331L445,327L446,326L446,326L446,326L446,326L446,326L448,326L449,326L449,326L449,326L449,326" fill="none" stroke="#000000" style="-webkit-tap-highlight-color: rgba(0, 0, 0, 0); stroke-linecap: round; stroke-linejoin: round; stroke-width: 5;" /><path d="M449,326L463,319" fill="none" stroke="#000000" style="-webkit-tap-highlight-color: rgba(0, 0, 0, 0); stroke-linecap: round; stroke-linejoin: round; stroke-width: 5;" /><path d="M476.32,95.43L477,99L475,100L477,99L475,100L475,100L475,102L475,104L473,109L475,105L473,110L473,113L473,113L475,115L473,120L470,120L470,122L470,124L470,125L470,126L471,129L471,130L469,135L468,136L468,136L466,138L466,140L466,139L466,142L466,142L467,147L466,142L467,148L465,154L465,154L465,154L465,154L465,154L466,156L467,158L466,160L467,162L467,162L467,162L466,170L466,170L466,170L466,171L467,175L464,178L465,182L465,185L465,185L465,195L465,195L465,197L465,200L465,202L465,202L466,205L466,215L467,209L463,221L466,215L463,221L463,221L463,221L463,222L462,225L462,225L462,225L462,227L462,227L463,231L463,231L469,238L465,231L469,238L466,244L469,240L466,244L466,246L466,250L464,251L464,251L466,248L465,262L465,262L465,264L464,251L464,266L463,267L464,273L464,271L462,279L462,279L458,280L456,280L456,285L455,295L456,283L456,285L455,295L455,295L452,299L455,295L452,301L452,299L453,305L452,302L453,308L453,306L453,310L453,310" fill="none" stroke="#000000" style="-webkit-tap-highlight-color: rgba(0, 0, 0, 0); stroke-linecap: round; stroke-linejoin: round; stroke-width: 5;" /><path d="M454,315L454,315L455,316L455,316L455,316L455,316L449,326L449,326L449,326L449,326L447,329L447,329L447,329L447,329L446,329L446,329L442,331L446,329L447,329L446,329L447,329L446,329L442,331" fill="none" stroke="#000000" style="-webkit-tap-highlight-color: rgba(0, 0, 0, 0); stroke-linecap: round; stroke-linejoin: round; stroke-width: 5;" /><path d="M499.55,90.45L495,88L493,89L493,88L492,89L495,88L495,88L495,96L493,89L495,96L495,99L495,104L494,102L496,110L495,113L495,113L496,114L497,117L495,120L495,120L495,122L495,123L498,126L498,127L497,129L497,129L497,129L497,129L497,129L497,129L499,146L499,146L499,146L499,146L499,146L499,149L499,150L503,152L503,152L505,152L501,160L509,155L501,160L506,165L505,171L506,165L506,167L505,172L504,175L504,175L504,188L504,188L504,188L504,190L505,195L504,193L505,197L505,200L505,200L505,198L505,200L501,207L508,211L503,210L503,210L508,211L508,211L509,213L507,219L507,219L503,222L503,220L504,224L503,227L505,232L505,229L505,230L505,232L505,235L505,235L506,237L506,237L503,243L503,243L503,244L503,244L506,250L506,251L506,250L508,254L508,254L508,261L508,259L508,259L510,265L509,268L509,270L511,271L510,273L510,276L513,278L513,278L513,278L512,286L512,286L513,288L512,289L513,295L513,295L511,291L513,295L512,298L512,303L513,300L513,301L511,304L514,308L509,308L510,306L513,314" fill="none" stroke="#000000" style="-webkit-tap-highlight-color: rgba(0, 0, 0, 0); stroke-linecap: round; stroke-linejoin: round; stroke-width: 5;" /><path d="M514,316L513,314L513,315L514,316L516,318L518,321L517,322L517,322L518,325L520,327L518,325L519,326L515,334L515,334L515,334L515,336L515,336L515,334L520,327" fill="none" stroke="#000000" style="-webkit-tap-highlight-color: rgba(0, 0, 0, 0); stroke-linecap: round; stroke-linejoin: round; stroke-width: 5;" /><path d="M491.25,88.79L486,88L486,88L486,88L493,88L493,88L493,88L495,87L495,88L500,88L501,90L505,90L506,92L509,87L513,86L517,90L518,90L521,88L523,88L528,89L524,89L529,89L533,88L534,88L534,88L544,86L544,86L545,85L544,86" fill="none" stroke="#000000" style="-webkit-tap-highlight-color: rgba(0, 0, 0, 0); stroke-linecap: round; stroke-linejoin: round; stroke-width: 5;" /><path d="M548,88L545,87L549,86L549,86L553,89L550,89L556,89L554,89L556,89L558,89L554,87L554,89" fill="none" stroke="#000000" style="-webkit-tap-highlight-color: rgba(0, 0, 0, 0); stroke-linecap: round; stroke-linejoin: round; stroke-width: 5;" /><path d="M496.23,87.13L493,88L495,87L495,87L492,89L492,89L492,89L486,91L485,91L479,96L482,96L478,96L475,97L475,99L475,102L475,100L475,104L473,109L473,109L475,104L475,105" fill="none" stroke="#000000" style="-webkit-tap-highlight-color: rgba(0, 0, 0, 0); stroke-linecap: round; stroke-linejoin: round; stroke-width: 5;" /><path d="M473,109L473,109L473,109L475,102L475,102" fill="none" stroke="#000000" style="-webkit-tap-highlight-color: rgba(0, 0, 0, 0); stroke-linecap: round; stroke-linejoin: round; stroke-width: 5;" /><path d="M522.79,352.67L524,352L526,352L527,345L527,345L529,345L531,351L533,351L536,351L538,351L541,351L543,351L546,352L548,352L553,351L556,350L559,350L563,350L566,348L568,349L571,349L574,348L574,348L576,349L578,349L579,349L581,349L583,349L586,348L584,348L588,348L589,348L591,349L592,348L594,348L598,350L599,348L602,348L604,349L607,349L612,349L609,349L614,348L617,349L617,349L619,349" fill="none" stroke="#000000" style="-webkit-tap-highlight-color: rgba(0, 0, 0, 0); stroke-linecap: round; stroke-linejoin: round; stroke-width: 5;" /><path d="M620,349L626,348L620,349L626,348L631,348L632,348L629,348L636,349L641,349L636,349L642,349L643,349L647,348L649,348L650,348L646,347L652,347L654,347L656,347L658,349" fill="none" stroke="#000000" style="-webkit-tap-highlight-color: rgba(0, 0, 0, 0); stroke-linecap: round; stroke-linejoin: round; stroke-width: 5;" /><path d="M519.47,364.29" fill="none" stroke="#000000" style="-webkit-tap-highlight-color: rgba(0, 0, 0, 0); stroke-linecap: round; stroke-linejoin: round; stroke-width: 5;" /><path d="M661,350L659,348L664,348L662,347" fill="none" stroke="#000000" style="-webkit-tap-highlight-color: rgba(0, 0, 0, 0); stroke-linecap: round; stroke-linejoin: round; stroke-width: 5;" /><path d="M511,361L511,361L519,354L519,354L521,354L523,354L527,355L528,355L534,370L534,370L535,372L534,370L537,374L537,374L537,374L537,374L545,393L545,393L545,393L545,393L545,393L545,395L545,395L545,395L539,402L539,402L539,402L539,402L539,402L535,405L546,426L546,426L546,426L546,426L546,426L540,430L541,431L540,430L541,431L541,433L541,433L536,441L536,441L536,442L537,445L537,445L537,445L537,445L533,460L533,460L533,460L533,460L533,460L541,473L533,460L541,475L541,475L541,473L541,475L536,492L534,492L536,492L534,492L534,494L531,495L531,495L531,495L531,495L521,504L521,504L521,504L520,524L520,524L528,533L526,533L520,524L526,533L526,542L526,535L526,533L526,542L524,544L524,544L526,542L524,548L527,549L526,548L527,549L530,550L530,550L530,550L530,550L530,550L530,550L525,567L525,567L525,567L525,567L525,567L524,567L525,567L524,570L524,572L525,575L524,572L524,576L524,580L525,578L526,580L527,582L526,583L528,585L529,586L526,584L532,588L529,586L529,586L532,588" fill="none" stroke="#000000" style="-webkit-tap-highlight-color: rgba(0, 0, 0, 0); stroke-linecap: round; stroke-linejoin: round; stroke-width: 5;" /><path d="M532,588L532,588L532,588L528,600L528,602L529,603L528,603L529,602L531,600L531,602L533,600L532,588" fill="none" stroke="#000000" style="-webkit-tap-highlight-color: rgba(0, 0, 0, 0); stroke-linecap: round; stroke-linejoin: round; stroke-width: 5;" /><path d="M828.16,331.1L835,337L835,337L835,337L833,338L831,339L831,339L829,344L829,344L830,348L830,346L831,349L830,348L831,349L831,349L831,349L831,349L838,352L822,364L822,364L822,364L822,364L822,364L822,364L822,364L839,379L839,379L827,385L827,385L827,385L827,385L827,385L827,388L827,388L826,391L826,393L827,394L827,395L826,397L827,399L827,399L827,399L824,400L824,400L824,400L826,418L823,400L826,418L826,418L824,419L824,419L824,419L823,420L822,421L822,421L822,429L822,429L822,429L820,432L820,431L820,433L818,436L818,436L817,440L817,440L815,444L818,442L815,446L815,448L815,447L813,451L813,452L813,453L814,455L814,455L813,460L813,460L812,464L813,460L812,464L810,474L812,464L812,464L810,474L810,475L810,474L810,475L810,474L810,477L809,483L810,479L809,483L808,485L808,487L808,487L808,485L808,487L801,492L807,496L807,497L807,499L807,500L808,502L807,505L807,505L807,507L808,508L808,508L808,508L806,517L805,517L805,519L805,517L805,519L804,524L805,521L804,524L805,526L805,526L803,538L805,537L803,538L798,541L803,538L799,541L798,541L798,543L798,543L798,543L798,543L798,543L798,543L798,543L807,561L807,561L807,561L807,561L807,561L806,564L807,561" fill="none" stroke="#000000" style="-webkit-tap-highlight-color: rgba(0, 0, 0, 0); stroke-linecap: round; stroke-linejoin: round; stroke-width: 5;" /><path d="M806,564L806,564L806,564L806,564L806,564L811.57,570.09L808,566L808,565L810,563L812,563L813,563L813,563L813,563L824,561L825,562L831,565L834,567L835,567L840,565L843,566L843,566L851,569L855,564L851,569L860,565L860,565" fill="none" stroke="#000000" style="-webkit-tap-highlight-color: rgba(0, 0, 0, 0); stroke-linecap: round; stroke-linejoin: round; stroke-width: 5;" /><path d="M864,566L865,566L865,566L866,568L862,568L863,570L866,570L896.21,570.09L888,567L888,567L889,566L889,566L895,565L897,567L897,567L898,568L900,568L901,568L902,568L902,568L902,568L914,580L902,568L914,580L914,580L918,579L918,579L919,579L922,578L923,580L928,579L926,579L923,580L928,579L928,579L928,579L928,579L928,579L928,579L941,590L939,590L950,585L950,585L950,585L950,585L950,585L951,585L953,585L954,585L956,585L959,584L959,584L963,582L963,583L964,583L966,582L968,583L971,584L969,585L973,584L976,587L976,587L978,587L979,589L980,590L984,592L983,590L985,593L986,595L990,597L991,598L988,595L992,600L994,601L992,601L994,603L996,605L996,607L997,608L997,610L997,612" fill="none" stroke="#000000" style="-webkit-tap-highlight-color: rgba(0, 0, 0, 0); stroke-linecap: round; stroke-linejoin: round; stroke-width: 5;" /><path d="M1003,613L1003,613L1003,613L1004,614L1005,614L1007,617L1010,615L1010,615L1012,614L1014,615L1017,615L1020,615L1021,614L1022,614L1021,614" fill="none" stroke="#000000" style="-webkit-tap-highlight-color: rgba(0, 0, 0, 0); stroke-linecap: round; stroke-linejoin: round; stroke-width: 5;" /><path d="M368.44,448.93L367,441L368,442L367,444L368,442L367,441L368,442L371,436L367,444L371,453L371,451L371,451L373,457L374,472L373,458L373,458L374,472L374,472L373,473L376,476L376,476L376,487L376,487L376,487L376,489L376,489L376,489L376,489L376,489L362,500L362,500L362,500L362,500L362,500L362,500L362,500L362,500L368,520L368,520L368,520L368,520L368,520L368,520L368,520L367,524L368,520L368,525L368,525L368,525L368,525L368,525L374,547L368,525L368,525L374,547L374,547L374,547L374,547L374,547L374,549L374,550L374,550L374,550L375,555L375,555L365,564L365,564L365,564L366,565L366,565L366,565L366,565L366,565L376,570L376,572L376,573L376,574L376,574L376,574L376,574L378,585L378,585L378,585L378,585L378,585L378,585L378,585L378,585L378,585L378,585L378,585L375,597L378,585L375,598L375,600L373,602L373,603L373,605L373,603L373,602L370,602L372,602L368,602L368,600L367,600L365,600L360,600L362,600L357,600L354,600L347,600L350,600L340,600L344,600L335,600L339,600L332,602L334,602L329,602L330,602L325,602L327,602L324,602" fill="none" stroke="#000000" style="-webkit-tap-highlight-color: rgba(0, 0, 0, 0); stroke-linecap: round; stroke-linejoin: round; stroke-width: 5;" /><path d="M322,602L320,602L320,603L320,605L324,605L325,605L322,605L327,605L329,605L329,603" fill="none" stroke="#000000" style="-webkit-tap-highlight-color: rgba(0, 0, 0, 0); stroke-linecap: round; stroke-linejoin: round; stroke-width: 5;" /><path d="M403.29,653.07L403,648L403,649L405,648L405,646L406,648L411,642L410,642L411,642L418,648L420,648L423,639L425,639L426,639L430,638L432,638L433,638L437,639L437,639L440,640L441,640L441,640L441,640L449,650L446,649L452,651L449,650L454,652L452,651L454,652L454,652L469,635L469,635L469,635L470,633L472,627L470,630L475,625L476,624L477,623L478,623L480,623L480,623L483,623L486,623L488,623L492,624L492,624L497,627L501,631L501,631L502,632L501,631L503,633L503,633L510,635L506,635L507,635L510,635L514,636L513,636L518,636L519,636L526,631L529,629L527,630L531,628L534,628L543,631L538,629L539,629L546,631L549,632L551,632L551,632L551,632L563,633L551,632L568,635L564,633L569,636L573,638L578,650L578,650L578,650L578,650L578,650L578,650L594,643L591,643L596,645L597,645L601,645L602,645L606,646L607,646L616,645L612,646L614,646L609,646L624,641L622,643L619,645L621,643L626,641L631,641L629,641L632,641L636,641L639,641L641,641L642,641L646,641L647,641L658,647L658,647L658,647L658,647L658,647L660,650L661,651L661,651L668,652L661,651L668,652L670,653L674,656L673,655L676,658L678,660L679,660L682,660L682,660L684,659L702,663L684,659L702,663L702,663L702,663L702,663L702,663L702,663L706,665L706,665L706,665L707,665L709,665L714,666L721,669L714,666L721,669L721,669L721,669L722,669L725,669L725,669L727,670L728,670L730,671L730,671L732,676L732,676L734,678L735,679L735,679L735,684L735,684L737,684L739,685L740,685L740,685L744,678L744,676L744,678L752,665L745,672L752,665L757,665L757,665L757,665L762,666L758,665L763,666L762,666L766,667L763,666L767,667L768,667L770,667L768,667L772,667L777,668L775,667L778,668L786,670L782,669L787,670L783,669L788,671L794,672L794,672L790,671L795,684L793,685L795,685L795,684L796,685L797,686L799,686L798,686L805,685L804,686L804,686L806,685L808,684L810,684L813,685L813,685L815,685L817,685L817,685L821,685L822,686L823,686L827,686L826,686L828,685L827,685L829,681L828,683L829,681L831,680L830,680L832,680L835,681L836,681L836,681L837,681L838,682L840,682L841,683L841,683L843,684L843,684L843,684L843,684L839,700L839,700L839,700L849,686L839,700L860,693L854,689L856,691L855,690L859,692L856,691L856,691L858,692L859,692L860,693L861,694L866,698L866,698L868,698L868,698L868,698L868,700L870,700L871,705L873,705L875,704L875,704L875,704L875,704L875,705L875,705L875,705L879,696L882,694L884,693L882,694L884,693L885,692L885,692L889,690L889,690L889,690L892,688L894,687L894,687L900,685L898,685L900,685L906,686L907,687L910,689L907,687L909,688L912,690L913,692L911,690L914,688L914,693L914,693L916,696L915,695L917,698L921,699L918,699L923,700L924,699L929,698L926,700L926,699L931,698L931,698L929,698L931,698L940,696L938,695L940,696L941,697L944,699L944,699L943,698L946,700L948,701L950,703L949,702L951,704L951,704L954,708L954,708L953,705L955,709L962,711L963,711L959,712L966,711" fill="none" stroke="#000000" style="-webkit-tap-highlight-color: rgba(0, 0, 0, 0); stroke-linecap: round; stroke-linejoin: round; stroke-width: 5;" /></svg>