<?xml version="1.0" encoding="utf-8" ?>
<svg baseProfile="full" height="758" version="1.1" width="1024" xmlns="http://www.w3.org/2000/svg" xmlns:ev="http://www.w3.org/2001/xml-events" xmlns:xlink="http://www.w3.org/1999/xlink"><defs /><path d="M150.02,620.22L147.78,620.22L145.54,621.71L144.79,623.21L144.79,625.45L145.54,626.94L147.78,627.69L150.02,629.18L153,629.92L158.23,632.91L162.71,633.66L167.93,633.66L178.38,632.16L185.1,630.67L191.81,628.43L198.53,627.69L205.99,626.19L216.44,625.45L223.16,625.45L230.62,623.95L238.09,622.46L250.03,620.97L258.24,619.48L266.45,617.98L275.41,616.49L284.36,615.74L297.8,613.5L306.75,611.27L316.45,609.77L325.41,608.28L339.59,606.79L357.5,603.8L367.21,603.06L376.16,602.31L388.1,602.31L396.31,602.31L404.52,602.31L411.24,603.06L420.2,604.55L426.92,606.04L432.89,607.53L438.86,609.03L444.08,610.52L452.29,611.27L458.26,611.27L464.23,612.01L470.2,612.01L479.16,612.01L485.88,611.27L491.85,610.52L498.57,609.77L505.28,609.03L514.24,607.53L520.96,606.79L526.93,605.29L535.88,603.06L541.85,602.31L547.08,601.56L553.05,600.82L559.02,600.07L564.24,599.32L571.71,597.83L576.19,597.08L581.41,596.34L586.64,595.59L593.35,594.85L597.08,594.1L600.82,593.35L604.55,592.61L608.28,591.86L613.5,591.86L617.24,591.11L620.22,590.37L623.95,589.62L629.18,588.87L632.16,588.13L635.9,587.38L639.63,586.64L643.36,585.89L647.84,585.14L654.55,583.65L659.03,582.9L662.76,582.16L668.73,579.92L672.47,579.17L676.2,577.68L679.18,576.19L681.42,575.44L683.66,574.69L684.41,574.69L683.66,575.44L683.66,576.19L683.66,576.93L684.41,577.68L685.15,578.43L686.65,579.17L688.89,580.66L690.38,582.16L692.62,583.65L695.6,585.14L698.59,586.64L703.07,588.87L706.8,590.37L711.28,591.86L716.5,594.1L723.22,595.59L728.44,597.08L732.17,598.58L736.65,599.32L740.38,600.82L746.36,602.31L750.09,603.06L753.82,603.8L756.8,603.8L761.28,605.29L763.52,605.29L766.51,606.04L769.49,606.79L772.48,606.04L776.96,606.04L779.94,606.04L782.93,606.79L785.91,606.79L790.39,607.53L793.38,608.28L797.11,609.03L800.09,609.03L803.08,609.77L806.81,610.52L811.29,611.27L815.02,611.27L818.75,611.27L822.48,612.01L825.47,613.5L828.45,614.25L830.69,614.25L833.68,615.74L836.66,617.24L841.14,618.73L844.87,620.22L847.86,621.71L851.59,623.95L856.82,625.45L861.29,626.19L865.03,627.69L869.5,629.18L873.98,629.92L880.7,631.42L885.18,632.16L889.66,632.91L896.37,634.4L900.85,635.15L906.08,635.9L910.55,637.39L915.03,638.13L918.76,638.88L923.99,640.37L927.72,641.12L931.45,641.87L936.68,642.61L939.66,643.36L942.65,643.36L945.63,644.85L947.87,645.6L950.11,647.09L953.84,647.84L956.08,649.33L959.07,650.08L962.8,651.57L965.78,652.31L969.52,653.81L973.25,654.55L976.98,655.3L981.46,656.79L988.17,658.29L992.65,659.78L997.13,661.27L1004.59,663.51L1009.07,665L1012.8,666.5L1017.28,667.24L1021.01,669.48" fill="none" stroke="#000000" style="-webkit-tap-highlight-color: rgba(0, 0, 0, 0); stroke-linecap: round; stroke-linejoin: round; stroke-width: 5;" /><path d="M326.9,668.73L324.66,667.99L323.17,667.24" fill="none" stroke="#000000" style="-webkit-tap-highlight-color: rgba(0, 0, 0, 0); stroke-linecap: round; stroke-linejoin: round; stroke-width: 5;" /><path d="M316.45,671.72L318.69,671.72L321.68,670.97L324.66,670.23L327.65,669.48L330.64,669.48L333.62,669.48L337.35,670.97L342.58,673.96L346.31,676.2L350.79,678.44L356.01,679.18L364.22,680.68L371.69,681.42L379.15,682.92L386.61,683.66L394.82,684.41L417.21,685.15L422.44,685.15L441.1,685.9L449.31,686.65L457.52,687.39L466.47,689.63L475.43,691.13L484.38,691.87L497.82,693.36L506.03,694.86L514.24,696.35L525.43,699.34L532.9,701.57L539.62,703.07L545.59,704.56L552.3,706.8L559.02,708.29L564.24,709.04L576.19,712.02L582.9,712.77L594.85,715.01L602.31,717.25L609.77,719.49L617.24,720.98L624.7,723.22L632.16,725.46L643.36,727.7L651.57,729.19L659.78,731.43L671.72,734.41L680.68,735.91L688.89,736.65L696.35,738.15L703.81,738.89L711.28,740.38L721.73,743.37L727.7,745.61L734.41,747.1L741.13,748.59L751.58,749.34L757.55,750.83L763.52,751.58L770.24,752.33L777.7,753.07L787.41,753.82L793.38,754.57L800.09,754.57L806.81,756.06L818.01,756.8L825.47,756.8L833.68,757.55L841.14,758.3" fill="none" stroke="#000000" style="-webkit-tap-highlight-color: rgba(0, 0, 0, 0); stroke-linecap: round; stroke-linejoin: round; stroke-width: 5;" /><path d="M20.9,606.79L20.15,607.53L18.66,609.03L17.91,609.03L19.41,609.77L21.64,612.01L23.14,614.25L26.12,615.74L29.11,617.24L32.84,618.73L40.3,622.46L45.53,623.95L50.01,625.45L54.48,626.94L60.45,628.43L64.19,629.92L67.92,630.67L72.4,631.42L76.87,632.91L82.85,633.66L87.32,633.66L91.8,634.4L95.53,634.4L101.5,635.15L105.98,635.15L110.46,635.15L114.94,635.15L118.67,635.15L123.15,635.9L128.37,636.64L132.85,637.39L137.33,637.39L150.02,637.39" fill="none" stroke="#000000" style="-webkit-tap-highlight-color: rgba(0, 0, 0, 0); stroke-linecap: round; stroke-linejoin: round; stroke-width: 5;" /><path d="M280.63,647.84L281.38,647.09L282.87,646.34L286.6,645.6L288.84,644.85L291.83,644.85L294.06,644.85L296.3,645.6L301.53,647.09L306.01,647.84L310.48,647.84L314.96,648.58L321.68,648.58L327.65,648.58L329.89,648.58L333.62,648.58L338.1,647.84L344.82,646.34L349.29,645.6L353.03,644.85L356.76,644.85L361.24,644.85L366.46,644.1L371.69,644.1L376.16,644.1L380.64,643.36L386.61,644.1L391.09,643.36L396.31,642.61L401.54,641.87L408.26,641.12L411.99,641.12L414.97,641.12L419.45,641.12L423.93,640.37L430.65,638.88L435.13,637.39L438.86,637.39L444.08,636.64L449.31,635.9L454.53,635.15L459.76,635.15L464.98,635.9L469.46,635.9L476.92,637.39L482.15,638.13L487.37,637.39L497.07,637.39L503.04,637.39L509.76,637.39L514.99,636.64L521.7,635.9L528.42,635.9L535.88,635.9L540.36,635.9L544.84,637.39L549.32,638.88L556.03,641.12L561.26,642.61L566.48,643.36L570.96,644.85L576.93,646.34L585.89,647.84L593.35,649.33L600.07,651.57L606.79,652.31L617.24,654.55L623.95,656.05L630.67,657.54L637.39,659.03L644.85,659.03L652.31,660.52L662.76,662.02L672.47,663.51L678.44,665.75L684.41,667.24L691.87,667.99L697.84,668.73L703.81,668.73L709.78,668.73L719.49,670.23L725.46,670.97L731.43,672.47L737.4,672.47L747.1,673.96L753.07,673.96L758.3,674.71L764.27,676.2L770.24,676.94L778.45,678.44L785.17,679.93L791.14,681.42L797.11,682.92L807.56,684.41L814.27,685.15L821.74,685.9L828.45,687.39L835.17,688.89L845.62,691.13L851.59,692.62L856.82,693.36L863.53,694.86L872.49,696.35L878.46,697.84L883.69,698.59L888.91,699.34L894.13,700.08L899.36,700.83L906.82,701.57L912.05,702.32L916.52,703.81L923.24,706.05L927.72,707.55L932.94,708.29L938.17,709.04L943.39,710.53L948.62,711.28L956.08,712.77L961.31,713.52L968.02,713.52L973.25,713.52L981.46,714.26L985.94,715.01L991.16,715.01L995.64,715.76L1000.86,716.5L1007.58,717.99L1012.06,718.74L1016.54,719.49L1021.01,720.98" fill="none" stroke="#000000" style="-webkit-tap-highlight-color: rgba(0, 0, 0, 0); stroke-linecap: round; stroke-linejoin: round; stroke-width: 5;" /><path d="M845.62,148.52L844.13,150.76L843.38,150.02L842.64,149.27L841.89,147.03L841.14,147.78L840.4,150.02L840.4,154.5L841.14,158.23L843.38,161.96L845.62,168.68L847.11,175.39L848.61,182.86L848.61,189.57L849.35,197.04L850.85,208.98L850.85,217.94L850.1,226.15L849.35,234.36L848.61,245.55L847.86,251.52L847.11,258.99L846.37,261.22L845.62,266.45L844.13,271.67L843.38,275.41L841.89,279.88L841.89,282.12L841.14,286.6L841.14,288.84L840.4,291.83L840.4,292.57L840.4,295.56L840.4,300.03L841.14,303.02L841.14,306.01L841.14,310.48L841.14,314.22L841.14,317.2L841.89,320.19L841.89,322.43L841.89,324.66L841.14,327.65L841.14,329.14L841.14,329.89L841.14,330.64L841.14,332.13L841.14,332.87L841.14,333.62L841.14,334.37L841.14,335.11L841.14,335.86L841.14,336.61L841.89,338.1" fill="none" stroke="#000000" style="-webkit-tap-highlight-color: rgba(0, 0, 0, 0); stroke-linecap: round; stroke-linejoin: round; stroke-width: 5;" /><path d="M829.95,335.86L831.44,335.11L832.19,334.37L833.68,333.62L832.93,334.37L832.19,337.35L832.19,340.34L832.19,344.07L832.19,349.29L832.19,353.03L832.93,356.76L832.93,359.74L832.19,363.48L832.19,367.95L832.19,370.94L831.44,373.18L831.44,374.67L830.69,377.66L830.69,379.9L829.95,381.39L829.2,383.63L828.45,386.61L828.45,389.6L828.45,391.84L828.45,394.82L827.71,397.81L826.96,401.54L826.22,404.52L825.47,406.76L824.72,409L823.98,411.24L821.74,414.23L818.75,417.96L818.01,419.45L817.26,420.2L815.77,421.69L815.02,423.18L813.53,425.42L812.78,427.66L812.03,428.41L811.29,432.14L811.29,434.38L811.29,435.87L811.29,437.36L812.03,439.6L812.03,441.84L812.03,444.08L812.03,446.32L812.03,449.31L812.03,451.55L812.03,456.02L812.03,459.01L811.29,462.74L811.29,467.97L811.29,470.95L811.29,473.19L810.54,476.17L810.54,479.16L809.8,484.38L809.05,487.37L809.05,490.36L808.3,493.34L807.56,497.82L806.81,500.06L806.81,502.3L806.06,504.54L805.32,506.78L805.32,509.01L804.57,512.75L804.57,515.73L804.57,517.22L804.57,520.96L804.57,523.2L804.57,526.18L804.57,528.42L803.83,532.15L803.83,534.39L803.08,538.87L802.33,542.6L802.33,546.33L802.33,549.32L803.08,554.54L803.83,557.53L804.57,560.51L804.57,563.5L805.32,565.74L805.32,569.47L805.32,570.96L805.32,571.71L806.06,573.2L806.06,573.95L806.06,574.69L806.81,574.69L808.3,575.44L811.29,576.19L812.03,576.19L815.02,576.93L819.5,578.43L822.48,579.17L826.22,579.92L830.69,580.66L838.9,580.66L844.13,581.41L848.61,582.16L853.08,582.9L857.56,584.4L862.79,585.14L870.25,587.38L875.48,588.87L881.45,589.62L888.16,591.86L894.88,594.1L901.6,596.34L908.31,599.32L914.29,602.31L923.24,606.79L929.96,609.77L936.68,612.76L944.14,614.25L950.86,616.49L961.31,620.22L968.02,622.46L975.49,623.95L981.46,626.19L988.17,627.69L997.88,629.92L1004.59,631.42L1010.57,632.91L1018.78,635.15" fill="none" stroke="#000000" style="-webkit-tap-highlight-color: rgba(0, 0, 0, 0); stroke-linecap: round; stroke-linejoin: round; stroke-width: 5;" /><path d="M847.11,123.15L846.37,123.15L848.61,122.4L852.34,120.16L856.07,117.92L862.79,113.45L868.01,110.46L874.73,108.97L882.94,106.73L891.15,104.49L900.1,103L913.54,99.27L921.75,97.03L930.71,94.79L945.63,90.31L950.11,89.56L964.29,85.83L972.5,84.34L981.46,82.85L989.67,81.35L997.88,79.11L1010.57,75.38L1018.78,73.14" fill="none" stroke="#000000" style="-webkit-tap-highlight-color: rgba(0, 0, 0, 0); stroke-linecap: round; stroke-linejoin: round; stroke-width: 5;" /><path d="M676.2,570.22L676.2,570.96L676.94,571.71L679.18,571.71L681.42,570.96L685.9,570.22L690.38,568.72L694.86,567.98L702.32,565.74L708.29,564.24L715.76,562.75L723.22,560.51L732.92,558.27L739.64,556.78L746.36,555.29L752.33,553.8L758.3,553.05L763.52,553.05L770.99,553.05L774.72,553.05L779.94,553.05L782.93,553.05L785.17,553.8L785.91,553.8L786.66,553.8L788.15,553.8L789.64,553.8L791.88,553.8L792.63,553.8L794.12,553.8L798.6,553.05L804.57,553.05L809.05,551.56L812.78,550.81L813.53,550.81" fill="none" stroke="#000000" style="-webkit-tap-highlight-color: rgba(0, 0, 0, 0); stroke-linecap: round; stroke-linejoin: round; stroke-width: 5;" /><path d="M475.43,98.52L476.17,98.52L476.92,98.52L478.41,97.77L480.65,97.77L485.88,95.53L490.36,93.29L495.58,90.31L503.04,86.58L506.78,84.34L510.51,83.59L513.49,82.85L516.48,83.59L520.21,84.34L525.43,85.08L528.42,85.08L530.66,85.08L533.64,85.08L538.87,84.34L541.11,84.34L543.35,84.34L544.09,85.08L545.59,86.58L547.08,87.32L548.57,89.56L549.32,90.31L550.06,91.8L550.81,94.04L551.56,95.53L552.3,96.28L552.3,97.77L553.05,98.52L554.54,100.76L556.03,101.5L557.53,103L559.77,104.49L562.01,106.73L564.24,108.22L565.74,108.97L566.48,109.71L567.98,110.46L568.72,111.21L569.47,113.45L569.47,114.19L570.96,114.94L571.71,114.94L573.95,115.69L576.19,115.69L577.68,116.43L580.66,116.43L583.65,117.18L589.62,117.92L594.1,118.67L598.58,118.67L603.8,119.42L611.27,119.42L616.49,119.42L620.97,120.16L624.7,120.16L628.43,120.91L633.66,121.66L636.64,121.66L640.37,122.4L644.85,123.15L647.84,123.9L650.82,124.64L653.81,125.39L656.79,125.39L659.78,126.88L661.27,126.88L662.76,126.88L663.51,126.13L665,126.13L666.5,125.39L667.99,124.64L670.23,123.9L672.47,123.15L676.2,123.15L676.94,122.4L677.69,122.4L678.44,121.66L679.18,120.91L679.93,120.91L680.68,120.16L680.68,119.42L679.93,117.92L679.93,117.18L679.93,115.69L679.93,111.95L679.18,110.46L679.18,108.22L678.44,106.73L678.44,105.24L678.44,104.49L679.93,101.5L680.68,100.01L682.17,99.27L685.15,97.77L687.39,96.28L690.38,95.53L693.36,94.79L696.35,94.04L699.34,94.04L705.31,93.29L709.04,91.8L713.52,91.06L717.99,90.31L724.71,88.82L729.94,87.32L733.67,85.83L737.4,85.08L740.38,83.59L745.61,82.85L748.59,82.1L751.58,81.35L754.57,80.61L758.3,79.86L759.79,79.86L762.03,79.86L764.27,79.86L767.25,79.86L770.99,79.86L771.73,79.86L773.97,79.86L775.46,80.61L778.45,82.1L780.69,82.85L782.18,82.85L783.67,83.59L786.66,85.08L788.9,85.83L791.14,87.32L793.38,88.07L797.11,89.56L798.6,91.06L801.59,91.8L803.83,93.29L805.32,93.29L807.56,94.79L809.8,95.53L811.29,96.28L812.03,97.77L813.53,100.01L814.27,101.5L815.02,102.25L816.51,103L818.01,104.49L819.5,105.98L821.74,108.22L823.98,109.71L826.22,110.46L828.45,111.21L831.44,112.7L833.68,113.45L835.17,114.19L836.66,114.19L838.16,114.94L840.4,115.69L843.38,116.43L844.87,116.43L845.62,116.43L846.37,117.18L847.11,117.18L847.86,117.92L848.61,117.92L849.35,118.67L849.35,119.42L850.1,120.16L851.59,121.66L853.08,124.64L855.32,126.13L856.82,127.63L859.06,127.63" fill="none" stroke="#000000" style="-webkit-tap-highlight-color: rgba(0, 0, 0, 0); stroke-linecap: round; stroke-linejoin: round; stroke-width: 5;" /><path d="M476.17,108.97L475.43,108.97L475.43,108.22L475.43,107.48L476.17,108.22L476.17,108.97L475.43,110.46L474.68,114.94L473.19,117.92L472.44,120.91L470.95,124.64L470.2,128.37L469.46,131.36L468.71,138.08L467.22,142.55L465.73,149.27L464.23,153.75L464.23,158.97L463.49,163.45L463.49,167.93L462.74,172.41L461.99,179.87L461.25,185.1L459.76,189.57L459.76,195.55L459.01,199.28L458.26,203.76L457.52,208.98L456.77,212.71L456.02,217.94L454.53,223.91L454.53,228.38L454.53,232.12L453.78,238.09L453.78,241.82L453.78,245.55L453.78,249.28L453.78,252.27L453.78,256L453.78,261.22L453.78,264.21L453.78,267.2L454.53,271.67L455.28,274.66L455.28,277.64L456.02,280.63L456.77,283.62L456.77,286.6L457.52,291.08L457.52,294.06L458.26,296.3L459.01,300.03L459.01,302.27L459.01,305.26L459.01,306.75L459.01,308.24L459.01,309.74L459.01,311.23L459.01,311.98L459.01,313.47L459.01,314.96L458.26,318.69L457.52,320.93L456.77,322.43L456.02,323.17L455.28,324.66L453.78,326.16L453.04,326.16L452.29,327.65L450.8,328.4L449.31,329.14L447.81,331.38L447.07,332.13L445.57,332.87L444.08,333.62L443.34,335.11L441.1,336.61L440.35,337.35L438.86,338.1L435.87,340.34L434.38,341.08L432.14,342.58L430.65,344.07L429.15,345.56L426.17,347.06L423.93,348.55L421.69,350.04L418.71,351.53L417.21,353.03L415.72,353.77L414.23,355.27L411.99,356.76L410.5,357.5L408.26,358.25L405.27,360.49L403.78,361.98L400.05,363.48L397.81,364.22L394.82,365.71L392.58,367.21L390.34,368.7L387.36,370.19L385.12,371.69L382.13,373.18L380.64,374.67L379.15,375.42L376.16,377.66L374.67,379.15L373.18,380.64L371.69,382.13L370.94,383.63L368.7,386.61L367.21,387.36L365.71,389.6L364.22,392.58L362.73,394.82L361.24,396.31L360.49,398.55L358.25,401.54L356.76,403.78L356.01,406.02L354.52,409L353.77,410.5L353.03,411.99L352.28,414.23L351.53,416.47L351.53,418.71L351.53,419.45L351.53,420.2L351.53,420.94L350.79,423.93L350.79,426.17L350.04,426.92L350.04,428.41L350.04,431.39L350.04,432.14L350.04,433.63L350.04,434.38L350.04,435.87L350.79,439.6L350.79,440.35L350.79,442.59L351.53,444.83L351.53,446.32L351.53,448.56L352.28,450.05L352.28,451.55L352.28,453.04L352.28,454.53L351.53,456.02L350.04,459.01L349.29,460.5L348.55,461.99L347.06,463.49L346.31,463.49L345.56,464.98L343.32,465.73L341.83,465.73L339.59,466.47L336.61,466.47L335.11,467.22L332.87,467.97L330.64,467.97L329.14,468.71L327.65,468.71L324.66,469.46L323.17,470.2L322.43,470.95L320.93,470.95L317.95,472.44L316.45,473.19L314.22,473.94L312.72,473.94L311.23,474.68L308.24,473.94L306.01,473.94L304.51,474.68L302.27,474.68L300.78,474.68L297.05,473.94L294.81,473.94L292.57,474.68L290.33,475.43L288.84,476.17L285.11,476.92L282.87,477.67L280.63,478.41L278.39,478.41L273.91,479.91L271.67,480.65L268.69,481.4L266.45,481.4L263.46,481.4L259.73,482.89L256.75,483.64L254.51,483.64L253.01,483.64L249.28,483.64L247.04,484.38L245.55,484.38L242.57,485.13L239.58,485.88L237.34,485.88L234.36,487.37L232.12,488.12L228.38,489.61L225.4,489.61L223.16,490.36L220.17,490.36L216.44,490.36L213.46,491.1L207.49,491.85L203.01,492.59L200.02,492.59L194.8,492.59L191.07,493.34L188.08,493.34L185.1,492.59L181.36,492.59L176.89,492.59L174.65,492.59L168.68,492.59L165.69,492.59L160.47,492.59L156.73,492.59L153.75,492.59L150.02,492.59L147.03,492.59L143.3,492.59L137.33,493.34L133.6,494.09L129.87,495.58L126.13,497.07L122.4,498.57L120.16,499.31L116.43,500.06L114.19,500.06L111.21,500.8L110.46,501.55L108.97,503.04L107.48,503.04L106.73,504.54L105.98,506.03L105.98,506.78L105.98,508.27L105.98,509.76L106.73,512L106.73,514.24L106.73,517.22L106.73,517.97L106.73,519.46L107.48,521.7L108.22,523.94L108.97,526.18L109.71,527.67L110.46,529.91L111.21,532.9L111.21,535.14L111.95,535.88L113.45,537.38L114.19,538.87L114.94,539.62L116.43,541.11L117.92,543.35L118.67,544.09L120.16,546.33L121.66,547.08L123.15,547.83L125.39,548.57L126.88,549.32L128.37,550.06L129.87,550.81L131.36,552.3L133.6,553.8L134.34,553.8L136.58,556.03L137.33,557.53L138.08,558.27L139.57,561.26L140.31,562.01L140.31,562.75L141.06,563.5L141.81,564.24L143.3,565.74L144.79,567.98L146.29,570.22L147.03,571.71L148.52,573.2L150.02,574.69L152.26,575.44L153.75,576.93L155.99,577.68L158.23,579.17L158.97,579.92L160.47,582.16L161.21,582.9L162.71,583.65L164.2,584.4L164.94,584.4L165.69,585.14L167.18,585.14L169.42,585.89L170.92,585.89L171.66,586.64L173.15,586.64L174.65,588.13L175.39,588.13L176.14,588.87L176.89,589.62L176.89,590.37L176.89,591.86L176.14,592.61L176.14,593.35L175.39,594.1L173.9,595.59L173.15,597.83L172.41,599.32L170.92,600.82L169.42,602.31L167.93,603.8L167.18,604.55L164.2,607.53L161.96,609.03L159.72,611.27L157.48,613.5L155.24,616.49L151.51,619.48L149.27,620.97L147.03,622.46L145.54,623.95L141.81,625.45L141.06,626.19L140.31,626.94L139.57,627.69" fill="none" stroke="#000000" style="-webkit-tap-highlight-color: rgba(0, 0, 0, 0); stroke-linecap: round; stroke-linejoin: round; stroke-width: 5;" /><path d="M1.49,489.61L0.75,489.61L0.75,488.86L0,487.37L0,486.62L0,485.88" fill="none" stroke="#000000" style="-webkit-tap-highlight-color: rgba(0, 0, 0, 0); stroke-linecap: round; stroke-linejoin: round; stroke-width: 5;" /><path d="M2.99,487.37L6.72,487.37L10.45,487.37L14.18,487.37L19.41,485.88L24.63,485.88L26.12,485.88L29.11,485.88L30.6,486.62L31.35,487.37L32.09,488.12L32.09,488.86L32.09,490.36L32.09,491.1L32.09,493.34L32.09,494.83L31.35,496.33L30.6,498.57L29.85,500.8L29.11,502.3L29.11,506.03L29.11,507.52L29.11,509.76L29.11,512.75L28.36,517.22L28.36,520.21L27.62,523.2L27.62,526.93L28.36,529.91L27.62,534.39L27.62,536.63L27.62,540.36L27.62,542.6L28.36,546.33L29.11,549.32L29.11,550.81L29.85,554.54L29.85,556.78L29.85,559.77L31.35,562.01L31.35,563.5L31.35,564.99L32.09,566.48L32.84,567.98L34.33,568.72L35.08,569.47L36.57,570.22L38.06,570.96L40.3,571.71L42.54,573.95L44.03,575.44L45.53,577.68L47.02,579.17L48.51,581.41L50.01,583.65L51.5,585.89L53.74,588.87L56.72,590.37L58.96,591.11L60.45,591.11L62.69,590.37L64.93,590.37L66.43,591.11L67.92,591.86L69.41,592.61L70.16,593.35L71.65,593.35L72.4,594.1L73.89,594.85L75.38,595.59L76.87,596.34L78.37,597.83L80.61,598.58L82.1,600.07L83.59,601.56L85.83,603.06L87.32,604.55L89.56,606.79L90.31,609.03L91.06,609.77L91.06,610.52L91.06,612.01L91.06,612.76L91.06,614.25L91.06,615.74L91.06,616.49L91.8,617.24L92.55,617.98L94.04,618.73L95.53,618.73L96.28,618.73L97.77,619.48L99.27,619.48L102.25,619.48L103.74,619.48L105.98,620.22L108.97,620.97L110.46,620.97L112.7,621.71L114.94,622.46L116.43,623.21L118.67,623.95L120.91,624.7L122.4,625.45L123.9,625.45L126.13,626.19L129.12,627.69L131.36,628.43L134.34,629.18L138.08,629.18L141.81,629.18L145.54,629.18L149.27,628.43L153.75,626.94" fill="none" stroke="#000000" style="-webkit-tap-highlight-color: rgba(0, 0, 0, 0); stroke-linecap: round; stroke-linejoin: round; stroke-width: 5;" /><path d="M370.19,420.94L368.7,420.94L367.21,421.69L366.46,423.93L365.71,426.17L365.71,429.15L365.71,433.63L364.97,440.35L364.22,446.32L364.22,452.29L363.48,459.01L364.22,467.97L364.97,474.68L365.71,482.15L366.46,489.61L367.95,497.07L368.7,507.52L368.7,514.24L367.95,520.21L367.95,526.18L368.7,533.64L368.7,538.87L368.7,544.09L367.95,549.32L368.7,555.29L368.7,561.26L368.7,570.96L369.45,577.68L369.45,585.14L369.45,592.61L369.45,596.34" fill="none" stroke="#000000" style="-webkit-tap-highlight-color: rgba(0, 0, 0, 0); stroke-linecap: round; stroke-linejoin: round; stroke-width: 5;" /><path d="M504.54,106.73L503.04,104.49L501.55,103.74L500.8,103L497.82,103L495.58,103L496.33,103.74L496.33,104.49L497.07,105.24L497.82,110.46L498.57,114.94L499.31,120.91L500.06,128.37L500.06,134.34L500.06,144.05L500.06,152.26L499.31,165.69L500.06,175.39L500.06,184.35L499.31,192.56L499.31,200.77L499.31,208.98L499.31,219.43L499.31,226.15L498.57,232.12L498.57,242.57L498.57,249.28L499.31,254.51L499.31,259.73L499.31,264.96L499.31,270.93L499.31,276.15L500.06,283.62L500.8,288.09L501.55,294.81L501.55,299.29L502.3,303.77L502.3,308.24L502.3,311.98L502.3,317.2L502.3,320.93L502.3,326.9L502.3,330.64L503.04,335.11L503.04,337.35L503.79,339.59L503.79,341.83L504.54,343.32L504.54,345.56L505.28,346.31L506.03,348.55L506.78,349.29L506.78,352.28L507.52,353.77L507.52,356.01L507.52,357.5L507.52,360.49L506.78,364.22L506.78,367.95L506.78,370.19L506.78,373.92L506.78,376.16L506.78,378.4L506.03,382.88L506.03,385.12L505.28,387.36L505.28,388.85L504.54,391.09L503.04,394.08L501.55,396.31L500.8,399.3L499.31,402.29L497.82,406.02L496.33,408.26L494.83,410.5L492.59,413.48L489.61,417.96L488.12,419.45L486.62,420.94L485.13,423.18L482.89,426.17L481.4,427.66L480.65,429.15L479.91,430.65L479.16,432.89L478.41,433.63L477.67,436.62L476.92,438.11L476.17,439.6L475.43,442.59L474.68,444.08L473.94,446.32L473.19,448.56L472.44,451.55L471.7,454.53L470.95,459.76L470.95,462.74L470.95,465.73L470.2,469.46L470.2,471.7L470.2,473.94L469.46,476.92L468.71,480.65L468.71,484.38L469.46,488.86L470.2,491.1L470.2,494.09L470.95,497.07L470.95,500.06L470.95,502.3L470.95,504.54L471.7,506.03L472.44,508.27L472.44,512L471.7,515.73L471.7,518.72L470.95,521.7L470.95,526.18L470.95,529.17L470.2,533.64L470.2,536.63L469.46,540.36L469.46,543.35L468.71,548.57L468.71,551.56L467.97,555.29L467.97,560.51L467.97,562.75L467.97,564.99L467.97,566.48L467.97,567.98L467.97,570.22L467.97,571.71L467.97,573.2L467.97,574.69L467.22,577.68L467.22,579.17L466.47,580.66L466.47,582.9L465.73,585.14L465.73,588.13L464.98,589.62L464.98,591.86L464.98,593.35L464.98,594.85L464.98,596.34L465.73,598.58L465.73,599.32L467.22,600.07" fill="none" stroke="#000000" style="-webkit-tap-highlight-color: rgba(0, 0, 0, 0); stroke-linecap: round; stroke-linejoin: round; stroke-width: 5;" /><path d="M757.55,113.45L759.04,114.94L760.54,116.43L762.03,119.42L762.03,120.91L762.78,122.4L762.03,125.39L762.03,127.63L762.03,130.61L761.28,135.84L760.54,140.31L759.79,145.54L759.04,150.76L758.3,155.24L757.55,162.71L758.3,166.44L758.3,170.92L758.3,175.39L757.55,182.86L757.55,187.34L756.8,191.81L756.8,195.55L756.06,197.78L755.31,203.01L753.82,206.74L753.82,211.22L753.07,214.95L752.33,217.94L751.58,221.67L750.83,223.16L749.34,225.4L747.85,228.38L746.36,231.37L746.36,233.61L746.36,235.85L746.36,238.83L746.36,241.82L746.36,244.8L746.36,247.04L747.1,250.78L747.85,253.01L747.85,255.25L748.59,257.49L749.34,260.48L750.09,261.22L751.58,263.46L753.82,267.2L754.57,270.18L756.06,273.91L756.06,276.15L756.8,278.39L757.55,280.63L757.55,283.62L758.3,285.85L758.3,289.59L759.04,291.08L759.04,293.32L759.04,294.06L759.79,296.3L759.79,298.54L759.79,300.03L759.79,301.53L760.54,303.77L759.79,306.01L758.3,309.74L756.8,311.23L755.31,312.72L752.33,314.96L750.09,316.45" fill="none" stroke="#000000" style="-webkit-tap-highlight-color: rgba(0, 0, 0, 0); stroke-linecap: round; stroke-linejoin: round; stroke-width: 5;" /><path d="M689.63,133.6L688.89,134.34L688.89,135.84L688.14,139.57L686.65,141.81L685.9,144.79L684.41,149.27L683.66,153L682.17,159.72L681.42,164.2L681.42,167.93L681.42,171.66L679.93,176.89L679.93,179.13L679.18,182.11L679.18,184.35L678.44,186.59L677.69,188.83L676.94,190.32L676.2,192.56L675.45,194.05L673.96,196.29L672.47,197.04L671.72,197.78L670.97,197.78L669.48,197.78L667.99,197.78L665,199.28L663.51,200.02L662.02,200.77L658.29,202.26L655.3,203.01L653.06,203.76L651.57,203.76L650.08,203.76L647.09,204.5L643.36,204.5L641.12,205.25L638.13,205.99L635.9,205.99L632.91,205.99L630.67,205.99L628.43,205.99L626.94,205.99L625.45,205.99L622.46,207.49L620.97,208.23L619.48,208.23L618.73,208.98L616.49,208.23L615,208.23L613.5,207.49L611.27,206.74L609.77,206.74L608.28,206.74L606.79,206.74L605.29,206.74L603.8,206.74L602.31,206.74L601.56,205.99L600.07,205.25L599.32,204.5L598.58,203.76L596.34,202.26L595.59,201.52L594.1,200.77L592.61,199.28L591.86,199.28L590.37,199.28L588.13,197.04L586.64,194.8L585.89,193.31L584.4,191.07L583.65,189.57L582.9,188.08L582.16,186.59L581.41,185.1L580.66,182.86L579.17,179.87L577.68,177.63L576.19,175.39L573.95,173.15L573.2,170.92L571.71,168.68L570.96,167.18L570.96,164.2L570.22,162.71L569.47,160.47L567.23,158.23L565.74,156.73L561.26,154.5L559.02,151.51L556.03,147.78L554.54,141.81" fill="none" stroke="#000000" style="-webkit-tap-highlight-color: rgba(0, 0, 0, 0); stroke-linecap: round; stroke-linejoin: round; stroke-width: 5;" /><path d="M935.93,470.95L934.44,470.95L934.44,469.46L932.94,468.71L931.45,467.97L929.96,467.97L928.47,467.97L927.72,468.71L926.97,468.71L926.23,470.2L924.73,472.44L923.24,473.94L921.75,476.17L920.26,479.91L920.26,481.4L921,481.4L923.24,482.89L926.23,484.38L928.47,485.88L930.71,487.37L932.94,490.36L935.93,492.59L938.92,494.83L944.89,495.58L948.62,497.07L951.6,498.57L956.83,501.55L959.81,503.79L962.8,505.28L966.53,506.78L968.77,508.27L971.01,509.01L973.99,512L976.23,513.49L979.22,516.48L982.2,519.46L983.7,520.96L985.94,521.7L987.43,523.2L989.67,524.69L991.91,525.43L994.89,526.18L997.13,526.93L997.88,526.93L999.37,527.67L1002.36,529.17L1003.85,530.66L1005.34,532.15L1006.83,532.9L1007.58,532.9L1009.07,533.64L1009.82,533.64" fill="none" stroke="#000000" style="-webkit-tap-highlight-color: rgba(0, 0, 0, 0); stroke-linecap: round; stroke-linejoin: round; stroke-width: 5;" /><path d="M927.72,470.95L932.94,470.2L940.41,469.46L944.14,468.71L947.87,468.71L952.35,469.46L954.59,470.2L957.57,471.7L961.31,472.44L964.29,473.19L967.28,473.94L970.26,475.43L971.76,476.17L973.25,476.92L975.49,476.92L976.23,477.67L976.98,477.67L977.73,478.41L978.47,478.41L979.97,478.41L981.46,478.41L982.95,479.16L983.7,479.16L985.19,479.91L986.68,480.65L987.43,480.65L988.17,480.65L988.92,480.65L989.67,479.91L989.67,478.41L988.92,478.41L988.92,476.17L988.92,475.43L988.92,474.68L988.17,473.94L987.43,473.94L987.43,473.19L987.43,472.44L988.17,471.7L988.17,470.95L987.43,470.2L987.43,469.46L988.17,468.71L988.92,467.22L988.92,466.47L988.17,464.98L987.43,464.23L987.43,463.49L986.68,461.99L985.19,461.25L983.7,458.26L982.95,456.77L981.46,455.28L980.71,454.53L979.97,453.04L979.97,452.29L979.97,451.55L979.22,450.8L979.22,450.05L979.97,449.31L981.46,448.56L982.95,447.81L985.94,447.81L987.43,447.81L989.67,447.81L991.16,448.56L994.15,448.56L997.13,449.31L999.37,450.05L1002.36,450.05L1006.09,450.05L1009.07,450.05L1011.31,450.05L1015.04,450.8L1016.54,451.55L1018.78,452.29L1020.27,452.29L1023.25,452.29" fill="none" stroke="#000000" style="-webkit-tap-highlight-color: rgba(0, 0, 0, 0); stroke-linecap: round; stroke-linejoin: round; stroke-width: 5;" /></svg>