<?xml version="1.0" encoding="utf-8" ?>
<svg baseProfile="full" height="1351" version="1.1" width="1024" xmlns="http://www.w3.org/2000/svg" xmlns:ev="http://www.w3.org/2001/xml-events" xmlns:xlink="http://www.w3.org/1999/xlink"><defs /><path d="M187.38,785.31L187.38,782.92L184.99,782.92L184.99,780.53L182.6,780.53L180.21,780.53L182.6,780.53L184.99,780.53L189.76,782.92L194.54,782.92L199.31,782.92L204.08,782.92L208.86,782.92L211.24,782.92L213.63,782.92L216.02,782.92L218.41,782.92L220.79,780.53L225.57,780.53L227.95,780.53L232.73,778.14L235.11,778.14L237.5,778.14L242.28,775.76L244.66,775.76L247.05,775.76L249.44,775.76L251.82,775.76L254.21,775.76L256.6,775.76L258.98,775.76L261.37,775.76L263.76,775.76L266.14,775.76L268.53,775.76L268.53,778.14L266.14,780.53" fill="none" stroke="#000000" style="-webkit-tap-highlight-color: rgba(0, 0, 0, 0); stroke-linecap: round; stroke-linejoin: round; stroke-width: 6;" /><path d="M247.05,780.53L247,778L247,776L247,773L249,773L254,773L259,773L266,771L276,769L285,769L302,776L304,764L311,764L321,764L328,761L338,761L347,759L366,759L357,759L371,759L374,759L378,759L389,763L389,763L390,763L396,763L402,753L409,752L413,751L425,753L427,754L428,754L433,753L435,753L444,749L440,751L448,747L457,745L459,746L464,746L467,745L473,742L476,740L476,740L493,749L503,743L507,742L518,741L514,741L527,743L536,741L540,741L533,741L545,740L549,739L556,737L561,735L565,734L569,734L578,731L578,731L584,729L586,729L601,722L591,728L594,726L610,721L605,722L615,720L610,721L620,719L627,717L629,717L644,726L644,726L644,726L647,726L646,725L647,726L660,721L665,721L670,721L674,721L679,718L691,718L703,707L686,718L697,706L715,717L709,716L709,716L722,716L729,715L748,712L739,714L755,709" fill="none" stroke="#000000" style="-webkit-tap-highlight-color: rgba(0, 0, 0, 0); stroke-linecap: round; stroke-linejoin: round; stroke-width: 6;" /><path d="M244,1174L244,1177L244,1179L245,1182L245,1186L246,1191L246,1189L246,1198L246,1195L246,1205L246,1203L248,1214L247,1210L248,1217L248,1215L249,1220L249,1222L250,1227L250,1225L250,1229L251,1232L251,1236L251,1234L252,1239L252,1241L253,1244L253,1246L253,1248L254,1253L252,1257L252,1257L256,1265L256,1263L254,1269L253,1271L252,1275L254,1279L254,1279L251,1283L251,1287L260,1289L260,1290L261,1294L261,1295L261,1295L261,1295" fill="none" stroke="#000000" style="-webkit-tap-highlight-color: rgba(0, 0, 0, 0); stroke-linecap: round; stroke-linejoin: round; stroke-width: 6;" /><path d="M313.88,1140.96" fill="none" stroke="#000000" style="-webkit-tap-highlight-color: rgba(0, 0, 0, 0); stroke-linecap: round; stroke-linejoin: round; stroke-width: 6;" /><path d="M251,1303L253,1310L253,1310L254,1314L255,1320L254,1315L256,1324L255,1320L257,1326L257,1327L257,1327L257,1327L257,1327L266,1339L266,1341L266,1344L269,1344L269,1346L271,1349L269,1349L271,1344L271,1346" fill="none" stroke="#000000" style="-webkit-tap-highlight-color: rgba(0, 0, 0, 0); stroke-linecap: round; stroke-linejoin: round; stroke-width: 6;" /><path d="M311,1137" fill="none" stroke="#000000" style="-webkit-tap-highlight-color: rgba(0, 0, 0, 0); stroke-linecap: round; stroke-linejoin: round; stroke-width: 6;" /><path d="M273,1341" fill="none" stroke="#000000" style="-webkit-tap-highlight-color: rgba(0, 0, 0, 0); stroke-linecap: round; stroke-linejoin: round; stroke-width: 6;" /><path d="M308,1138L311,1137L314,1136L314,1136L316,1135L322,1134L333,1132L326,1134L339,1133L343,1131L354,1128L350,1129L364,1126L359,1127L365,1125L370,1123L378,1122L374,1122L381,1123L383,1123L393,1120L388,1122L393,1120L400,1119L402,1118L407,1117L407,1117L416,1114L420,1114L423,1112L429,1112L434,1112L436,1112L438,1112L443,1113L445,1112L448,1111L452,1111L450,1111L455,1110L459,1110L457,1110L461,1111L463,1112L466,1114L470,1117L466,1114L466,1114L470,1117L470,1117L473,1120L472,1119L476,1123L474,1121L476,1123L477,1125L477,1125L477,1125L477,1127L477,1125L477,1128L477,1128L491,1136L491,1134L482,1150L480,1147L482,1150L484,1158L489,1163L493,1168L495,1172L491,1165L495,1179L497,1182L499,1186L501,1192L501,1192L505,1199L505,1199L505,1199L505,1199L508,1206L500,1220L508,1206L500,1225L502,1229L502,1227L515,1233L515,1233L515,1233L515,1233L507,1246L510,1248L510,1251L512,1253L514,1256L525,1254L526,1256L528,1265L528,1267L528,1267L529,1268L529,1268" fill="none" stroke="#000000" style="-webkit-tap-highlight-color: rgba(0, 0, 0, 0); stroke-linecap: round; stroke-linejoin: round; stroke-width: 6;" /><path d="M529,1268L537,1285L537,1285L537,1286L537,1286L538,1287L540,1289L539,1288L546,1296L544,1293L544,1293L548,1303L548,1303L550,1308L548,1305L550,1309L553,1314L553,1314L554,1316L554,1316L555,1324L554,1317L553,1321L555,1325L556,1327L557,1332L557,1330L557,1332L558,1337L558,1336L558,1338L558,1338L558,1338L558,1338L558,1338L562,1351" fill="none" stroke="#000000" style="-webkit-tap-highlight-color: rgba(0, 0, 0, 0); stroke-linecap: round; stroke-linejoin: round; stroke-width: 6;" /><path d="M316.27,1138.57L311,1137L305,1141L305,1141L302,1144L300,1146L299,1147L297,1155L297,1151L292,1163L297,1158L297,1186L300,1193L298,1178L292,1170L301,1201L302,1213L303,1220L302,1208L305,1235L321,1236L304,1228L319,1232L321,1239L323,1244L326,1248L321,1241L326,1251L326,1256L326,1258L326,1260L326,1265L323,1272L326,1263L326,1270L323,1287L323,1277L323,1282L323,1291L323,1298L323,1303L323,1308L323,1296" fill="none" stroke="#000000" style="-webkit-tap-highlight-color: rgba(0, 0, 0, 0); stroke-linecap: round; stroke-linejoin: round; stroke-width: 6;" /><path d="M326,1315L328,1318L326,1310L328,1322L331,1325L331,1330L331,1332L331,1327L331,1334L331,1337L331,1341L331,1339L331,1344L328,1349L328,1346L328,1351" fill="none" stroke="#000000" style="-webkit-tap-highlight-color: rgba(0, 0, 0, 0); stroke-linecap: round; stroke-linejoin: round; stroke-width: 6;" /><path d="M905.85,1002.52L895,1000L895,1000L895,1000L895,1000L895,1000L889,1002L887,1003L877,1004L882,1003L874,1002L874,1002L874,1002L873,999L860,1010L858,1010L853,1010L851,1012L849,1012L844,1012L841,1014L839,1014L837,1014L837,1017L834,1017L832,1017L829,1017L827,1019L825,1019L825,1022L822,1024L822,1029L822,1036L822,1031L822,1041L822,1057L822,1048L822,1053L822,1043L829,1068L828,1069L828,1069L828,1069L828,1072L828,1072L828,1072L830,1082L827,1085L821,1087L821,1088L821,1087L822,1091L821,1091L820,1093L819,1095L819,1095L824,1097L824,1097L818,1112L818,1095L818,1110L815,1117L808,1139L813,1124L815,1122L808,1139L808,1139L807,1139L807,1139L807,1139L807,1139L791,1129L794,1129L775,1124L775,1124L775,1124L775,1124L772,1124L767,1126L763,1127L759,1128L759,1128L759,1128L748,1134L744,1136L741,1136L736,1136L734,1139L729,1139L724,1139L720,1139L710,1141L708,1141L715,1141L701,1143L703,1143L693,1143L696,1143L689,1143L691,1143L686,1143L684,1143L671,1132L671,1132L671,1132L671,1132L670,1132L671,1132L668,1132L659,1135L659,1135L659,1135L655,1136L655,1136L654,1136L654,1136L648,1151L650,1148L635,1152L648,1153L643,1168L643,1168L643,1168L643,1168L643,1170L643,1172L643,1174L643,1175" fill="none" stroke="#000000" style="-webkit-tap-highlight-color: rgba(0, 0, 0, 0); stroke-linecap: round; stroke-linejoin: round; stroke-width: 6;" /><path d="M644,1183L644,1182L644,1183L639,1196L639,1196L639,1196L639,1197L637,1203L639,1207L639,1207L639,1214L640,1210L637,1217L641,1221L644,1223L645,1228L645,1228L646,1238L644,1242L642,1245L636,1247L636,1247L634,1248L634,1248L629,1249L630,1249L630,1249L630,1249L627,1249L624,1249L624,1249L624,1249L610,1258L603,1256L607,1256L622,1248L593,1256L596,1256L600,1256L588,1256L575,1256L575,1256L575,1256L575,1256L575,1256L574,1257L572,1258L569,1259L567,1260L564,1261L567,1260L562,1262L560,1262L557,1262L553,1263L551,1264L550,1264L547,1265L544,1266L541,1267L540,1268L538,1268" fill="none" stroke="#000000" style="-webkit-tap-highlight-color: rgba(0, 0, 0, 0); stroke-linecap: round; stroke-linejoin: round; stroke-width: 6;" /><path d="M994.16,732.79" fill="none" stroke="#000000" style="-webkit-tap-highlight-color: rgba(0, 0, 0, 0); stroke-linecap: round; stroke-linejoin: round; stroke-width: 6;" /><path d="M531,1268L532,1268L536,1268L532,1267L529,1267L533,1267L532,1267L535,1267" fill="none" stroke="#000000" style="-webkit-tap-highlight-color: rgba(0, 0, 0, 0); stroke-linecap: round; stroke-linejoin: round; stroke-width: 6;" /><path d="M994,730L994,728L994,730L982,728L982,728L981,729L981,729L981,729L973,742L966,742L951,747L956,747L961,745L938,742L929,750L934,744L929,750L928,775L928,777L930,775L938,770L929,782L929,782L919,784L919,784L925,811L925,800L925,811L925,816L926,822L926,821L927,823L927,823L927,823L925,838L913,839L913,839L913,839L913,839L923,855L923,857L923,859L923,862L923,864L923,866L920,869L920,871L920,874L920,876L920,878L920,881L920,883L920,886L920,888L920,890L923,895L920,893L923,897L923,900L923,905L923,902L923,907L925,909L925,912L925,917L925,919L927,921L927,926L927,929L927,931L933,945L933,945L933,945L933,945L933,945L934,947L934,947L934,947L934,947L927,960L927,962L927,964L927,967L927,969L927,971L927,974L927,976L927,981L927,979L930,983L930,986L932,988L932,991L932,993L932,995L932,1000L932,998L932,1003L932,1005L932,1010L932,1012L932,1007L934,1012L934,1014L934,1019L934,1017L934,1024L934,1022" fill="none" stroke="#000000" style="-webkit-tap-highlight-color: rgba(0, 0, 0, 0); stroke-linecap: round; stroke-linejoin: round; stroke-width: 6;" /><path d="M223.18,844.98L216,847L211,847L209,847L193,848L193,848L193,848L193,848L193,848L196,855L214,845L221,845L248,843L228,845L249,840L261,839L269,839L283,835L287,834L295,831L300,832L302,834L311,831L311,831L314,831L319,832L323,830L328,831L333,827L338,828L340,828L347,826L345,825L347,826L347,826L347,826L364,823L359,823L369,823L382,827L382,827L383,827L383,827L397,819L383,827L411,815L383,827L411,815L414,816L411,815L415,816L416,815L416,815L416,814L431,814L436,812L453,822L440,812L458,816L459,815L459,815L473,796L460,815L476,797L486,799L495,805L489,801L497,807L505,803L505,803L500,809L509,802L514,801L522,801L519,801L523,801L527,800L527,800L528,798L528,798L543,800L545,797L557,795L557,795L557,795L557,795L562,794L565,794L567,794L573,793L576,793L584,792L588,794L600,789L597,790L605,787L609,785L612,784L617,783L622,782L636,795L622,782L639,794L639,794L639,794L655,783L665,783L660,783L674,781L670,781L684,778L679,778L689,776L691,776L688,762L696,776L703,773L708,773L713,771L717,771L720,771L724,771L729,769L732,769L734,769L739,766" fill="none" stroke="#000000" style="-webkit-tap-highlight-color: rgba(0, 0, 0, 0); stroke-linecap: round; stroke-linejoin: round; stroke-width: 6;" /><path d="M748,766L746,766L741,766L753,764L755,764L760,764L767,761L763,761L772,761L784,759L779,759L777,759L786,757L789,743L791,757L789,743L789,743L794,741L812,746L812,746L812,746L813,746L818,752L817,748L818,750L820,750L822,750L822,750L828,743L830,744L834,743L832,745L836,744L836,744L850,742L845,744L841,745L852,739L856,738L853,739L858,737L858,737L858,735L858,737L871,742L871,742L872,742L873,742L873,742L873,742L873,742L873,742L873,742" fill="none" stroke="#000000" style="-webkit-tap-highlight-color: rgba(0, 0, 0, 0); stroke-linecap: round; stroke-linejoin: round; stroke-width: 6;" /><path d="M526.32,842.59L526,840L524,840L522,840L522,843L524,843L529,843L533,840L541,840L548,838L553,838L557,835L567,833L562,835L572,833L579,831L588,828L584,831L596,826L600,826L605,823L607,823L612,823L617,823L624,823L629,823L622,823L648,823L634,823L641,823L643,823L662,821L655,821L660,821L653,823L667,821L672,819L677,819L681,816L691,816L696,816L701,816L686,816L705,816L708,816L713,816L717,816L722,814L734,814L732,814L727,814L739,812" fill="none" stroke="#000000" style="-webkit-tap-highlight-color: rgba(0, 0, 0, 0); stroke-linecap: round; stroke-linejoin: round; stroke-width: 6;" /><path d="M741,812L746,809L744,812L748,809L751,807L762,807L762,807L762,804L762,804L768,803L767,803L763,804L768,803L768,803" fill="none" stroke="#000000" style="-webkit-tap-highlight-color: rgba(0, 0, 0, 0); stroke-linecap: round; stroke-linejoin: round; stroke-width: 6;" /><path d="M383.1,942.84L387,940L387,940L387,940L387,940L387,940L367,941L366,940L366,940L365,939L366,941L366,941L367,942L370,946L370,946L371,947L371,947L366,962L366,964L369,967L369,969L369,971L369,974L363,989L361,988L358,986L363,989L361,988L363,989L363,989L363,990L364,991L365,995L366,997L366,997L367,1001L368,1004L368,1004L370,1008L371,1011L373,1017L373,1018L374,1019L374,1019L376,1034L376,1031L376,1036L376,1038L376,1043L376,1041L376,1048L376,1045L376,1053L376,1055L376,1057L368,1069L368,1069L368,1069L368,1069L377,1076L377,1076L377,1076L378,1077L378,1079L379,1080L380,1084L380,1086L380,1086L382,1090L384,1096L384,1098L384,1098" fill="none" stroke="#000000" style="-webkit-tap-highlight-color: rgba(0, 0, 0, 0); stroke-linecap: round; stroke-linejoin: round; stroke-width: 6;" /><path d="M386,1104L386,1106L388,1111L386,1106L389,1114L386,1122L386,1122L389,1114L389,1114L389,1114" fill="none" stroke="#000000" style="-webkit-tap-highlight-color: rgba(0, 0, 0, 0); stroke-linecap: round; stroke-linejoin: round; stroke-width: 6;" /><path d="M256.6,945.23L266,939L266,939L266,939L261,952L259,965L259,965L259,965L257,969L257,972L258,971L258,979L258,981L258,983L259,985L261,988L262,991L263,992L264,994L264,994L263,992L265,997L265,997L267,1003L266,1001L268,1005L271,1009L271,1009L271,1009L266,1010L266,1010L265,1029L266,1010L265,1029L265,1029L265,1029L267,1036L269,1037L268,1041L270,1044L269,1043L270,1051L269,1052L269,1057L269,1057L270,1060L268,1062L265,1060L266,1061L263,1059L259,1057L257,1057L250,1060L250,1060" fill="none" stroke="#000000" style="-webkit-tap-highlight-color: rgba(0, 0, 0, 0); stroke-linecap: round; stroke-linejoin: round; stroke-width: 6;" /><path d="M247,1061L243,1063L240,1065L245,1062L240,1065L235,1066L238,1066L233,1067L230,1066L227,1067L227,1067L223,1066L223,1066L223,1070L223,1069L223,1069L212,1079L224,1074" fill="none" stroke="#000000" style="-webkit-tap-highlight-color: rgba(0, 0, 0, 0); stroke-linecap: round; stroke-linejoin: round; stroke-width: 6;" /><path d="M791.27,124.12L775,115L775,115L775,115L775,115L775,115L775,115L775,115L775,115L784,106L790,102L809,105L809,105L813,103L828,95L818,103L832,96L838,93L854,90L846,94L862,86L858,88L877,88L863,85L884,87L882,87L889,87L894,88L899,88L902,87L905,86L908,85L916,84L908,85L914,85L920,83L934,80L930,80L925,81L939,78" fill="none" stroke="#000000" style="-webkit-tap-highlight-color: rgba(0, 0, 0, 0); stroke-linecap: round; stroke-linejoin: round; stroke-width: 6;" /><path d="M945,77L942,77L956,74L951,75L963,72L960,73L966,72L973,68L977,68L980,68L985,67L989,66L999,63L992,65L1000,63L1002,62L1004,61L1008,60L1011,60L1011,60L1016,59L1018,58L1016,59" fill="none" stroke="#000000" style="-webkit-tap-highlight-color: rgba(0, 0, 0, 0); stroke-linecap: round; stroke-linejoin: round; stroke-width: 6;" /><path d="M762.63,124.12L763,127L771,116L771,116L771,116L760,112L758,112L758,115L757,127L757,127L746,136L746,131L747,131L728,146L728,146L727,165L723,152L727,172L731,187L731,187L728,191L728,191L732,205L732,212L744,237L732,220L744,237L744,237L744,237L736,251L739,255L739,260L741,272L739,267L741,277L744,282L744,286L746,291L748,296L748,298L748,303L748,308L748,306L748,310L748,315L746,317L746,322L746,325L746,329L746,332L746,337L746,339L746,341L746,346L746,356L746,351L750,367L750,368L751,370L750,369L753,371L748,387L751,391L753,396L755,411L753,411L761,415L758,414L755,413L760,430L771,442L770,443L770,444L760,432L768,450L765,461L763,458L763,458L765,480L765,461L765,475L759,491L759,491L760,494L760,494L760,494L765,506L765,508L765,513L765,511L765,523L765,525L765,518L765,516L762,541L765,530L765,528L762,541L762,541L765,543L762,541L765,543L765,546L765,546L765,546L765,546L765,546L758,559L765,546L758,561L758,563L755,566L755,563L753,568" fill="none" stroke="#000000" style="-webkit-tap-highlight-color: rgba(0, 0, 0, 0); stroke-linecap: round; stroke-linejoin: round; stroke-width: 6;" /><path d="M753,573L753,570L755,585L755,585L755,585L753,587L753,586L755,585L753,589L753,589L753,589L753,589L753,589L740,591L737,594L746,606L746,613L746,609L746,616L746,611L746,623L746,621L746,625L746,618" fill="none" stroke="#000000" style="-webkit-tap-highlight-color: rgba(0, 0, 0, 0); stroke-linecap: round; stroke-linejoin: round; stroke-width: 6;" /><path d="M951.2,303.14" fill="none" stroke="#000000" style="-webkit-tap-highlight-color: rgba(0, 0, 0, 0); stroke-linecap: round; stroke-linejoin: round; stroke-width: 6;" /><path d="M746,635L746,633L746,637L746,630L746,640L746,642L745,654L745,654" fill="none" stroke="#000000" style="-webkit-tap-highlight-color: rgba(0, 0, 0, 0); stroke-linecap: round; stroke-linejoin: round; stroke-width: 6;" /><path d="M951,298" fill="none" stroke="#000000" style="-webkit-tap-highlight-color: rgba(0, 0, 0, 0); stroke-linecap: round; stroke-linejoin: round; stroke-width: 6;" /><path d="M745,654L748,654" fill="none" stroke="#000000" style="-webkit-tap-highlight-color: rgba(0, 0, 0, 0); stroke-linecap: round; stroke-linejoin: round; stroke-width: 6;" /><path d="M952,299L946,298L949,298L944,298L941,298L932,297L939,298L927,304L920,295L911,294L915,295L906,294L901,294L889,296L892,296L895,297L887,295L884,295L880,295L880,295L882,295L880,295L891,298L880,295L882,295L884,310L889,325L899,311L887,317L896,303L889,327L887,334L887,337L889,329L884,346L887,339L884,341L884,348L884,353L884,358L887,368L887,363L889,375L892,380L892,391L892,391L891,399L891,399L890,395L906,403L899,422L896,418L906,403L899,425L899,430L899,432L899,437L899,439L899,456L899,444L899,449L899,461L901,465L901,470L901,475L901,480L899,489L901,485L894,505L899,494L894,505L894,506L896,509L896,509L894,523L896,509L896,528L894,525L896,532L896,535L896,539L896,542L896,547L899,554L899,549L899,551L901,556L901,563L901,559L901,561L901,570L901,568L901,566L901,573L899,582L901,580L901,575L901,578L899,587L899,592L899,585L899,590L901,594L901,599L901,597L901,602L906,604L908,606L903,604L911,609L913,611L913,609L915,613L920,613L925,618L923,616L927,621L930,621L937,623L934,623L932,621L939,623L942,625L944,625L946,625L949,625L954,625L958,625L951,625L956,625L963,625L961,625L966,625L968,625L966,625L963,628L963,625L961,628L961,625L961,623L962,608L962,608L962,606L964,602L964,602L961,590L961,582L958,573L961,578L958,568L958,563L961,549L961,549L961,549L961,549L960,544L961,547L961,541L960,534L960,531L950,512L958,521L950,512L949,510L948,497L947,494L937,482L937,482L939,480L939,478" fill="none" stroke="#000000" style="-webkit-tap-highlight-color: rgba(0, 0, 0, 0); stroke-linecap: round; stroke-linejoin: round; stroke-width: 6;" /><path d="M927,465L939,478L927,451L927,458L928,437L927,448L928,437L928,437L928,434L928,434L928,434L929,420L929,420L929,420L939,408L929,420L939,403L937,391L937,391L937,391L934,388L934,388L927,378L934,388L927,375L927,377L927,370L927,368L927,365L927,360L928,355L928,351L928,344L928,348L928,339L928,341L942,337L952,324L952,324L952,324L952,324L952,320L952,320L952,318L952,318L953,314L953,314L944,298L941,298L941,298L942,297L941,298L942,297L942,297L942,297L944,298L944,298" fill="none" stroke="#000000" style="-webkit-tap-highlight-color: rgba(0, 0, 0, 0); stroke-linecap: round; stroke-linejoin: round; stroke-width: 6;" /><path d="M566.9,19.1L561,21L561,20L561,24L561,24L561,24L565,36L574,49L574,49L574,49L574,49L574,49L574,49L574,49L574,49L574,49L576,70L575,71L573,73L573,73L571,75L571,80L571,76L572,88L572,92L573,98L573,102L574,108L574,110L574,111L574,111L579,120L579,120L579,122L576,128L575,130L573,135L574,132L573,136L573,138L573,139L576,147L573,139L576,150L576,153L576,155L576,158L576,160L576,160L577,165L577,169L577,174L577,176L577,176L577,176L572,191L572,196L574,212L572,208L574,217L576,222L576,224L579,229L579,232L579,234L579,236L572,203L579,239L581,241L581,243L581,248L581,246L581,251L581,253L579,258L581,255L579,263L579,260L576,270L579,267L576,277L576,272L586,294L576,282L586,294L586,294L586,296L586,294L586,301L586,302L586,306L587,313L586,309L587,316L587,317L587,322L587,325L587,329L587,332L587,333L587,333L587,333L587,333L581,346L581,348L581,351L581,353L581,356L581,360L581,358L581,363L581,365L581,368L581,370L581,372L581,377L584,384L584,380L584,387L586,396L584,391L586,399L586,401L588,403L588,406L591,408L591,411L591,413L593,413L593,418L593,415L596,420L596,422L596,425L596,430L596,432L596,437L592,454L596,442L592,454L593,458L593,463L594,464L595,465L598,467L588,482L588,487L591,492L591,494L593,504L593,501L593,499L593,506L593,508L596,513L596,511L596,516L596,523L596,520L596,525L596,530L596,537L596,532L596,535L596,542L596,544L596,547L602,560L596,549L602,560L602,560L602,562L602,561L602,562L606,577L593,581L602,562L593,581L606,577L605,590L606,577L605,592L607,597L605,594L607,599L607,602L607,604L607,609L607,606L607,611L607,613L605,613L605,616" fill="none" stroke="#000000" style="-webkit-tap-highlight-color: rgba(0, 0, 0, 0); stroke-linecap: round; stroke-linejoin: round; stroke-width: 6;" /><path d="M594,628L602,629L602,629L602,629L602,629L602,629L602,629" fill="none" stroke="#000000" style="-webkit-tap-highlight-color: rgba(0, 0, 0, 0); stroke-linecap: round; stroke-linejoin: round; stroke-width: 6;" /><path d="M464.26,0L464,5L462,5L449,3L448,5L449,3L448,5L448,5L459,19L459,24L462,26L462,29L459,40L459,40L459,45L459,41L459,50L460,53L460,55L460,62L460,57L460,64L460,67L460,69L460,72L460,72L460,72L460,72L460,72L464,84L467,86L467,93L467,88L467,91L467,95L467,98L467,103L467,100L467,105L467,112L467,107L467,115L467,117L467,122L467,129L467,124L467,131L467,134L467,136L467,138L467,141L467,148L467,146L469,150L469,153L469,155L469,160L469,162L469,165L469,172L469,167L469,174L469,177L469,181L469,189L469,184L467,193L467,196L467,210L467,201L467,205L464,212L464,217L464,220L464,222L464,224L467,229L467,232L469,234L469,239L471,241L474,246L471,243L474,248L474,251L474,255L474,258L474,260L474,263L474,267L474,270L474,279L474,274L474,286L474,284L471,291L469,298L467,303L471,296L467,306L464,310L467,308L464,313L464,315L469,327L469,327L469,327L469,327L469,332L469,329L469,332L469,332L464,344L467,348L464,346L467,353L469,360L467,356L471,365L469,363L471,372L471,370L474,380L474,377L474,382L476,387L476,389L476,391L476,394L476,396L476,401L476,399L476,403L476,408L476,411L476,406L476,413L476,418L476,415L476,420L476,422L476,425L474,430L474,427L476,427L474,432L474,437L474,442L474,439L471,446L471,449L471,454L469,458L469,465L467,470L467,475L467,473L467,477L467,482L467,480L467,485L467,487L467,489L467,492L469,496L469,494L469,499L469,501L471,504L471,506L474,511L471,508L476,513L476,516L476,518L479,518L481,523L481,520L483,530L483,525L483,532L486,535L486,547L486,539L483,549L486,542L484,563L484,563L484,563L484,563L476,569L476,569L476,569L476,569L476,574L476,574L476,574L473,575L479,574L481,587L479,574L481,590L481,592L481,594L483,599L483,597L483,604L483,609L483,602L483,606L486,611L486,616L486,613L486,609L486,621L486,618L486,623L486,625" fill="none" stroke="#000000" style="-webkit-tap-highlight-color: rgba(0, 0, 0, 0); stroke-linecap: round; stroke-linejoin: round; stroke-width: 6;" /><path d="M486,628L488,630L488,633L486,630L488,635L488,637L507.23,622.99L498,625L500,625L500,625L505,628L510,630L519,633L514,630L526,633L533,635L548,635L541,635L555,637L562,637L576,635L576,635L576,635L581,633L586,632L592,631L593,631L595,631" fill="none" stroke="#000000" style="-webkit-tap-highlight-color: rgba(0, 0, 0, 0); stroke-linecap: round; stroke-linejoin: round; stroke-width: 6;" /><path d="M597,630L602,629L602,629L602,629L600,629" fill="none" stroke="#000000" style="-webkit-tap-highlight-color: rgba(0, 0, 0, 0); stroke-linecap: round; stroke-linejoin: round; stroke-width: 6;" /><path d="M411.75,11.93L410,2" fill="none" stroke="#000000" style="-webkit-tap-highlight-color: rgba(0, 0, 0, 0); stroke-linecap: round; stroke-linejoin: round; stroke-width: 6;" /><path d="M410,2L410,2L410,2L404.59,2.39L405,7L406,14L405,21L404,25L404,32L404,41L403,45L405,50L408,56L407,62L408,57L407,62L407,64L407,70L407,78L407,75L407,81L407,89L407,89L407,81L408,93L408,93L408,93L408,93L405,107L405,110L405,112L407,115L407,117L407,122L407,124L409,129L409,134L412,136L409,147L409,147L409,147L409,148L409,149L409,149L409,149L409,149L409,149L414,162L412,172L412,167L409,177L409,181L407,186L405,189L405,198L405,193L391,209L392,211L392,213L392,211L391,224L391,220L392,229L392,234L392,239L392,241L395,250L395,250L394,258L395,250L395,265L394,260L395,267L395,270L395,277L396,288L395,273L396,288L396,288L396,291L396,288L396,294L396,298L396,301L396,296L397,309L397,309L397,315L397,310L397,317L398,327L399,336L398,325L399,337L400,350L400,353L399,344L401,358L401,360L401,366L401,367L401,370L414,377L414,372L414,382L414,380L414,384L414,387L414,389L414,391L414,396L414,406L414,399L414,401L417,411L417,424L417,413L417,424L418,425L418,427L419,429L419,429L419,429L419,429L421,442L419,429L424,446L424,451L424,444L424,454L426,463L426,458L426,456L426,465L428,465L428,468L420,479L420,479L420,479L421,481L421,481L421,482L421,485L421,489L421,491L421,487L421,491L421,491L421,491L428,504" fill="none" stroke="#000000" style="-webkit-tap-highlight-color: rgba(0, 0, 0, 0); stroke-linecap: round; stroke-linejoin: round; stroke-width: 6;" /><path d="M428,506L426,521L426,508L426,521L426,521L426,521L426,524L426,521L426,523L418,530L418,530L426,524L418,530L418,530L418,530L418,530L426,542L424,544L424,547L426,544L426,549L423.68,529.9L426,551L431,551L428,551L418,530L419,526L418,530L418,530L418,530L414,544L414,549L409,561L409,561L412,564L412,564L414,566L414,569L414,569L417,571L420,572L421,572L424,573L431,571L426,573L432,571L436,574L442,574L441,574L450,575L452,575L454,575L454,575L460,576L464,575L464,575L467,575L469,575L471,575" fill="none" stroke="#000000" style="-webkit-tap-highlight-color: rgba(0, 0, 0, 0); stroke-linecap: round; stroke-linejoin: round; stroke-width: 6;" /><path d="M474,574L426.07,527.52L434,526L440,527L444,526L444,526L457,530L464,528L471,523L474,520L479,516" fill="none" stroke="#000000" style="-webkit-tap-highlight-color: rgba(0, 0, 0, 0); stroke-linecap: round; stroke-linejoin: round; stroke-width: 6;" /><path d="M476,516L476,518L474,518" fill="none" stroke="#000000" style="-webkit-tap-highlight-color: rgba(0, 0, 0, 0); stroke-linecap: round; stroke-linejoin: round; stroke-width: 6;" /><path d="M175.44,62.06L168,62L180,52L181,53L180,52L181,53L182,53L182,53L200,59L202,60L203,60L228,56L226,55L215,53L230,56L234,56L244,60L244,60L247,60L254,59L268,57L264,58L259,59L271,58L276,54L274,57L287,56L290,56L295,55L302,56L298,56L304,56L309,56L309,56L309,56L323,49L327,50L329,50L332,49L332,49L332,49L347,53L354,53L365,44L368,44L366,44L368,44L381,55L388,55L383,55" fill="none" stroke="#000000" style="-webkit-tap-highlight-color: rgba(0, 0, 0, 0); stroke-linecap: round; stroke-linejoin: round; stroke-width: 6;" /><path d="M400,51L400,51L400,51L400,51L400,51L402,51" fill="none" stroke="#000000" style="-webkit-tap-highlight-color: rgba(0, 0, 0, 0); stroke-linecap: round; stroke-linejoin: round; stroke-width: 6;" /><path d="M187.38,88.32" fill="none" stroke="#000000" style="-webkit-tap-highlight-color: rgba(0, 0, 0, 0); stroke-linecap: round; stroke-linejoin: round; stroke-width: 6;" /><path d="M407,50L408,56L407,50L407,50L402,51L405,50" fill="none" stroke="#000000" style="-webkit-tap-highlight-color: rgba(0, 0, 0, 0); stroke-linecap: round; stroke-linejoin: round; stroke-width: 6;" /><path d="M184,86L184,86L184,86L184,86L197,86L204,86L199,86L211,86L221,84L228,81L245,79L238,81L252,76L271,74L266,74L259,74L276,74L290,74L280,74L285,74L295,74L300,76L304,76L309,76L316,76L321,76L326,76L331,76L338,76L354,76L343,76L352,76L347,76L359,76L364,76L366,76L369,76L376,76L378,76L371,76L381,76L383,76L385,76L388,76" fill="none" stroke="#000000" style="-webkit-tap-highlight-color: rgba(0, 0, 0, 0); stroke-linecap: round; stroke-linejoin: round; stroke-width: 6;" /><path d="M393,76L407,75L395,74L407,75L407,75L407,75L408,74L408,74L408,74L408,74L408,79" fill="none" stroke="#000000" style="-webkit-tap-highlight-color: rgba(0, 0, 0, 0); stroke-linecap: round; stroke-linejoin: round; stroke-width: 6;" /><path d="M254.21,171.86L250,166L253,166L249,160L245,159L238,160L238,160L242,159L238,160L235,161L250,166L235,161L252,183L252,184L252,191L253,196L254,204L256,222L254,210L255,217L256,228L256,236L257,241L258,249L258,253L259,261L259,263L259,267L260,274L260,277L260,282L261,286L261,290L262,303L261,298L263,309L263,313L263,317L264,322L264,332L264,327L265,341L265,337L266,351L266,347L268,360L268,360L268,371L267,365L268,372L268,377L269,382L269,384L269,389L269,387L269,391L269,394L269,394L269,394L269,394L269,394L283,406L285,403L288,401L290,399L300,394L295,396L304,391L307,391L314,389L311,389L319,389L321,389L331,389L323,389L328,389L335,391L348,388L348,388L348,388L348,388L352,388L354,388L354,388L359,387L362,387L362,387L366,386L369,386L374,386L376,386L381,385L378,385L383,385L385,385L388,385L389,385L393,384L396,384L395,384L399,383L399,383L399,383L402,380L399,383L402,380L402,377L402,380L401,371L401,367L401,358L401,362L400,351L399,346L399,341L399,337L399,336L398,329L398,327L398,325L397,313L397,317L397,309L396,301L396,296L396,289L396,288L395,277L395,270L395,265L395,250L394,255L394,248L392,236L392,233L391,224L391,220L392,212L391,209L390,203L390,193L390,189L390,184L390,184L389,179L389,174L389,172L389,162L389,167L389,158L383,149L383,149L383,149L383,149L381,149L378,149L376,149L374,150L371,151L371,151L371,151L352,156" fill="none" stroke="#000000" style="-webkit-tap-highlight-color: rgba(0, 0, 0, 0); stroke-linecap: round; stroke-linejoin: round; stroke-width: 6;" /><path d="M350,154L343,162L336,162L336,162L324,164L319,163L314,161L322,163L310,160L303,156L293,157L297,157L293,157L280,160L268,162L268,160L264,162L266,162L256,162L253,165L250,166L250,166L238,160L230,163L228,165L228,165L227,165L227,165L224,163L218,177L221,177L223,177L228,177L226,177" fill="none" stroke="#000000" style="-webkit-tap-highlight-color: rgba(0, 0, 0, 0); stroke-linecap: round; stroke-linejoin: round; stroke-width: 6;" /><path d="M237.5,436.81L229,446L235,445L232,445L229,446L229,446L229,446L235,445L232,445L240,445L245,445L252,444L257,443L264,442L269,442L274,441L278,441L280,441L288,442L297,441L292,442L304,440L300,440L309,441L309,441L309,441L312,447L326,437L328,437L342,434L342,434L342,434L343,434L347,433L347,433L353,431L356,432L357,433L362,434L364,434L366,433L373,433L369,433L376,433L381,431L385,430L388,430L395,429" fill="none" stroke="#000000" style="-webkit-tap-highlight-color: rgba(0, 0, 0, 0); stroke-linecap: round; stroke-linejoin: round; stroke-width: 6;" /><path d="M90,116L90,112L90,116L90,116L90,116L94,131L94,129L91,143L91,143L91,143L91,143L91,143L92,146" fill="none" stroke="#000000" style="-webkit-tap-highlight-color: rgba(0, 0, 0, 0); stroke-linecap: round; stroke-linejoin: round; stroke-width: 6;" /><path d="M103.83,350.88" fill="none" stroke="#000000" style="-webkit-tap-highlight-color: rgba(0, 0, 0, 0); stroke-linecap: round; stroke-linejoin: round; stroke-width: 6;" /><path d="M92,148L92,146L92,150L93,155L93,155L93,156L93,156L90,166L90,167L93,156L104,172L104,169L104,174L104,177L104,181L104,184L104,186L106,191L104,189L106,193L106,196L111,209L106,198L111,209L111,209L111,209L111,210L111,212L112,215L115,219L112,215L113,217L116,220L116,232L116,232L116,232L116,232L116,234L117,236L117,238L118,244L118,241L118,243L119,248" fill="none" stroke="#000000" style="-webkit-tap-highlight-color: rgba(0, 0, 0, 0); stroke-linecap: round; stroke-linejoin: round; stroke-width: 6;" /><path d="M173,444L173,446L173,451L173,449L171,451L171,454L173,454L175,449" fill="none" stroke="#000000" style="-webkit-tap-highlight-color: rgba(0, 0, 0, 0); stroke-linecap: round; stroke-linejoin: round; stroke-width: 6;" /><path d="M77.58,350.88" fill="none" stroke="#000000" style="-webkit-tap-highlight-color: rgba(0, 0, 0, 0); stroke-linecap: round; stroke-linejoin: round; stroke-width: 6;" /><path d="M175,442" fill="none" stroke="#000000" style="-webkit-tap-highlight-color: rgba(0, 0, 0, 0); stroke-linecap: round; stroke-linejoin: round; stroke-width: 6;" /><path d="M39,69L35,70L35,70L39,69L37,70L37,70L45,81L45,79L47,99L46,100L46,100L47,102L47,113L48,116L48,126L46,125L47,129L45,132L44,137L43,143L43,143L42,156L42,157L42,157L51,169L51,174L54,186L51,181L54,193L53,208L53,208L55,210L55,210L57,229L65,233L60,230L62,231L68,235L72,241L73,244L73,244L73,244L73,244L73,260L73,258L73,263L73,265L73,277L73,272L73,270L73,279L73,300L73,284L73,300L73,286L73,300L73,300L73,300L73,300L73,300L77,301L81,302L73,315L73,317L73,320L73,322L73,325L73,327L73,329L73,332L77,344L77,344L77,344L77,344L77,344L77,344L75,348" fill="none" stroke="#000000" style="-webkit-tap-highlight-color: rgba(0, 0, 0, 0); stroke-linecap: round; stroke-linejoin: round; stroke-width: 6;" /><path d="M73,349L76,346L77,344L68,332L68,327L68,322L68,315L68,300L68,300L68,300L52,271L66,284L52,271L51,270L61,253L69,237L65,234L62,232L57,229L57,229L55,210L55,210L55,210L53,208L66,201L66,197L66,196L66,189L66,193L66,186L66,184L65,181L65,177L65,174L65,173L68,166L68,165L68,162L69,160L69,160L69,160L69,160L66,146L66,143L66,141L66,138L57,126L57,126L57,126L57,126L57,126L57,126L58,117L58,119L58,116L58,116L58,116L58,116L54,111L53,105L53,104L53,100L53,99L53,99L53,99L53,99L51,80L53,99L51,80L51,80L51,79L51,80L51,76L51,76L51,76L51,76" fill="none" stroke="#000000" style="-webkit-tap-highlight-color: rgba(0, 0, 0, 0); stroke-linecap: round; stroke-linejoin: round; stroke-width: 6;" /><path d="M612.25,7.16" fill="none" stroke="#000000" style="-webkit-tap-highlight-color: rgba(0, 0, 0, 0); stroke-linecap: round; stroke-linejoin: round; stroke-width: 6;" /><path d="M51,76L45,68L45,68L45,68L45,68L54,57L54,53L54,55L54,50L54,48L54,45L54,43L56,43" fill="none" stroke="#000000" style="-webkit-tap-highlight-color: rgba(0, 0, 0, 0); stroke-linecap: round; stroke-linejoin: round; stroke-width: 6;" /><path d="M603,10L605,2L600,10L604,14L605,15L610,34L595,45L595,45L602,56L603,55L603,56L604,60L605,67L604,62L604,71L604,75L604,80L604,81L603,86L603,87L603,94L603,98L603,103L603,110L606,119L604,114L605,125L606,125L598,138L610,148L598,138L610,150L621,156L621,156L610,155L621,156L621,156L615,172L612,169L621,156L615,181L615,177L615,186L615,179L615,189L618,208L615,193L618,208L617,210" fill="none" stroke="#000000" style="-webkit-tap-highlight-color: rgba(0, 0, 0, 0); stroke-linecap: round; stroke-linejoin: round; stroke-width: 6;" /><path d="M615,241L617,210L615,229L615,253L615,263L615,272L617,284L619,291L622,301L624,315L622,308L624,322L624,329L624,353L624,346L624,339L624,360L624,365L624,372L624,370L624,375L624,377L624,382L624,384L624,389L624,391L624,403L624,396L624,408L624,413L624,425L624,420L624,430L622,437L622,442L622,446L627,461L627,461L625,464L624,465L622,468L623,470L623,471L623,471L623,471L623,471L623,471L624,485L624,487L624,489L631.35,479.78L623,471L623,471L626,470L630,469L630,469L630,469L653,480L646,480L660,480L667,482L677,485L672,482L679,485" fill="none" stroke="#000000" style="-webkit-tap-highlight-color: rgba(0, 0, 0, 0); stroke-linecap: round; stroke-linejoin: round; stroke-width: 6;" /><path d="M681,485L686,487L693,489L689,487L691,489L689,489" fill="none" stroke="#000000" style="-webkit-tap-highlight-color: rgba(0, 0, 0, 0); stroke-linecap: round; stroke-linejoin: round; stroke-width: 6;" /><path d="M612.25,510.81L605,511L600,513L598,513L596,513L593,516L593,513L600,511L605,497L607,497L619,506L627,504L634,504L641,501L646,501L655,499L650,501L667,496L662,499L674,496L684,492L681,494L686,492" fill="none" stroke="#000000" style="-webkit-tap-highlight-color: rgba(0, 0, 0, 0); stroke-linecap: round; stroke-linejoin: round; stroke-width: 6;" /><path d="M691,492L701,489L696,489L703,489L705,492L705,489L703,492" fill="none" stroke="#000000" style="-webkit-tap-highlight-color: rgba(0, 0, 0, 0); stroke-linecap: round; stroke-linejoin: round; stroke-width: 6;" /><path d="M607.48,611.06L605,606L605,604L605,602L603,602L603,599L605,599L607,599L610,599L615,599L622,599L629,597L639,597L648,594L665,589L667,593L672,593L674,592L674,592" fill="none" stroke="#000000" style="-webkit-tap-highlight-color: rgba(0, 0, 0, 0); stroke-linecap: round; stroke-linejoin: round; stroke-width: 6;" /><path d="M707,597L691,590L696,587L707,597L719,586L719,586L719,586L723,581L724,581L728,582L724,581L722,585" fill="none" stroke="#000000" style="-webkit-tap-highlight-color: rgba(0, 0, 0, 0); stroke-linecap: round; stroke-linejoin: round; stroke-width: 6;" /><path d="M258.98,553.77L250,558L258,561L258,561L262,562L262,562L280,551L266,563L290,551L297,551L307,551L322,555L323,553L325,552L333,551L335,547L336,549L335,547L336,549L354,542L359,542L364,539L374,527L375,527L374,527L375,527L378,524L401,531L384,521L401,531L401,531L401,531" fill="none" stroke="#000000" style="-webkit-tap-highlight-color: rgba(0, 0, 0, 0); stroke-linecap: round; stroke-linejoin: round; stroke-width: 6;" /><path d="M402,531L405,530L405,530L405,530L402,531" fill="none" stroke="#000000" style="-webkit-tap-highlight-color: rgba(0, 0, 0, 0); stroke-linecap: round; stroke-linejoin: round; stroke-width: 6;" /><path d="M41.77,401.01L41,401L41,401L44,409L42,404L42,404L44,410L45,413L41,415L44,414L41,415L46,432L46,433L46,432L46,433" fill="none" stroke="#000000" style="-webkit-tap-highlight-color: rgba(0, 0, 0, 0); stroke-linecap: round; stroke-linejoin: round; stroke-width: 6;" /><path d="M46,433L39,446L46,433L46,433L26,455L26,455L26,456L26,455L26,457L26,457" fill="none" stroke="#000000" style="-webkit-tap-highlight-color: rgba(0, 0, 0, 0); stroke-linecap: round; stroke-linejoin: round; stroke-width: 6;" /><path d="M48.93,391.46L43,395L43,395L43,395L44,384L44,380L44,367L44,367L41,367L42,364L40,364L37,360L32,362L30,362" fill="none" stroke="#000000" style="-webkit-tap-highlight-color: rgba(0, 0, 0, 0); stroke-linecap: round; stroke-linejoin: round; stroke-width: 6;" /><path d="M27,362L23,362L18,364L13,364L8,364L4,364" fill="none" stroke="#000000" style="-webkit-tap-highlight-color: rgba(0, 0, 0, 0); stroke-linecap: round; stroke-linejoin: round; stroke-width: 6;" /><path d="M1.19,1133.8" fill="none" stroke="#000000" style="-webkit-tap-highlight-color: rgba(0, 0, 0, 0); stroke-linecap: round; stroke-linejoin: round; stroke-width: 6;" /><path d="M7,1132L1.19,1133.8L7,1132L12,1130L14,1127L24,1127L24,1127L37,1124L42,1124L49,1124L54,1124L58,1122L61,1122L66,1117L70,1115L75,1112L82,1110L86,1097L85,1110L86,1097L99,1103L86,1097L86,1097L110,1096L110,1096L110,1096L110,1096" fill="none" stroke="#000000" style="-webkit-tap-highlight-color: rgba(0, 0, 0, 0); stroke-linecap: round; stroke-linejoin: round; stroke-width: 6;" /><path d="M110,1096L110,1096L113,1095" fill="none" stroke="#000000" style="-webkit-tap-highlight-color: rgba(0, 0, 0, 0); stroke-linecap: round; stroke-linejoin: round; stroke-width: 6;" /><path d="M168.28,389.07L169,385L169,389L163,378L161,377L161,377L161,377L155,374L155,374L154,374L154,374L161,377L163,378L156,394L156,396L169,389L159,401L164,406L161,403L166,411L164,408L168,413L168,415L168,418L171,422L173,427L171,425L173,430L175,432L175,434L186,428L186,428L178,442L178,444L178,446L178,449L178,451L178,454L175,456L178,468L178,468L178,468L178,468L166,458L164,458L161,458L159,458L154,461L156,458L152,461L149,463L147,463L144,463L142,463L140,465L137,465L135,465L130,465L128,465L123,463L125,465L116,463L118,463L109,463L113,463L106,463L101,465L97,465L92,465L87,468L82,468L78,468L73,468L68,468" fill="none" stroke="#000000" style="-webkit-tap-highlight-color: rgba(0, 0, 0, 0); stroke-linecap: round; stroke-linejoin: round; stroke-width: 6;" /><path d="M66,468L63,468L58,468L56,468L54,468L51,468L49,468L47,465L44,465L42,465L26,457L26,457L26,457L26,457L20,471L20,471L20,471L20,471L20,471L20,471L20,471L20,471L20,471" fill="none" stroke="#000000" style="-webkit-tap-highlight-color: rgba(0, 0, 0, 0); stroke-linecap: round; stroke-linejoin: round; stroke-width: 6;" /><path d="M175.44,465.45L178,468L178,468L178,468L178,468L178,468L183,456L178,468L179,469L179,470L179,479L178,488L176,496L175,506L174,513L174,517L173,524L172,528L171,531L169,537L172,544L175,549L174,548L175,554L175,559L175,561L176,563L176,565L177,568L177,572L177,570L178,575L178,578L178,580L178,582L178,585L177,592L177,592L177,597L178,602L178,606L178,611L178,616L178,619L180,625L183,625L183,625L177,635L177,639L176,642L176,642L187,659L190,666L190,673L190,680L192,685L190,704L192,690L198,705L198,705L197,707L198,708L198,708L199,721L199,726L199,730L199,735L204,747L203,748L204,752L204,769L203,751L205,773L205,795L206,782L204,789L211,813L210,807L205,798L211,813L193,828L193,826L193,835L193,848L196,856L209,869L209,871L196,855L197,884L198,890L199,895L201,903L201,907L205,923L203,914L206,929L208,937L209,941L211,952L210,948L212,964L212,960L214,971L215,974L216,978L222,984L224,989L219,981L221,1011L221,1011L226,994L226,994L223,1029L222,1018L223,1034L222,1022L225,1043L225,1042L227,1047L226,1045L223,1057L228,1065L223,1055L230,1066L233,1068L238,1077L238,1077L230,1071L227,1099L226,1086L238,1077L227,1099L227,1099L229,1106L230,1109L230,1109L242,1118L242,1118L241,1118" fill="none" stroke="#000000" style="-webkit-tap-highlight-color: rgba(0, 0, 0, 0); stroke-linecap: round; stroke-linejoin: round; stroke-width: 6;" /><path d="M241,1122L240,1124L241,1123L244,1137L244,1137L239,1147L240,1150L244,1138L244,1138L245,1164L245,1160L240,1151L243,1156L244,1179L244,1174L243,1170L245,1184L245,1186L246,1189L246,1191L246,1193L246,1200L246,1193L246,1198L246,1195L246,1203L247,1208L247,1208L247,1210L248,1214L249,1218L249,1218L249,1220L250,1224L250,1225L250,1229L250,1227L250,1225L250,1227L249,1222" fill="none" stroke="#000000" style="-webkit-tap-highlight-color: rgba(0, 0, 0, 0); stroke-linecap: round; stroke-linejoin: round; stroke-width: 6;" /><path d="M712.5,634.93L715,630L713,630L715,628L717,625L728,626L728,626L728,626L728,626L728,626L728,626L717,628L713,630L710,633L708,633L703,633L701,633L698,633L696,633L693,633L691,633L686,633L684,633L679,633L677,633L672,635L667,635L662,637L658,637L655,637L653,637L650,640L648,640L646,640L643,640L643,637L641,637L639,635L636,635L639,640L646,644L643,642L650,647L661,651L661,651L662,652L663,653L667,654L670,657L672,659L669,656L675,661L675,661L679,664L680,665L681,666L684,677L684,677L679,685L684,680L684,677L684,680L686,678L688,676L689,678L695,670L691,671L702,668L698,669L701,668L713,668L728,676L716,668L713,668L726,674L736,678L735,678L744,678L741,678L755,676L751,677L748,677L760,676L765,671L765,672L766,667L783,678L790,667" fill="none" stroke="#000000" style="-webkit-tap-highlight-color: rgba(0, 0, 0, 0); stroke-linecap: round; stroke-linejoin: round; stroke-width: 6;" /><path d="M787,667L790,667L802,673L807,673L803,672L802,673L810,673L819,671L817,671L818,671L812,674L827,660L823,674L822,674L823,674L827,660L827,660L827,660L839,666L841,668L839,668L833,682L831,681L836.62,708.92L834,699L834,699L836,698L837,697L837,697L845,692L853,691L858,692L860,692L863,692L872,697L872,697L872,695L872,695L877,692L883,691L882,691L889,687L891,687L891,687L891,687L891,687L891,687L903,690L906,690L911,690L908,690L913,690L915,690L923,687L920,687L918,687L927,685L932,685L930,685L934,683L937,683L939,683" fill="none" stroke="#000000" style="-webkit-tap-highlight-color: rgba(0, 0, 0, 0); stroke-linecap: round; stroke-linejoin: round; stroke-width: 6;" /><path d="M944,683L946,680L944,680L949,680L951,680L956,680L961,678L958,680L966,678L968,676L970,676L973,673L975,673L980,673L982,671L989,671L987,671L985,671L992,671" fill="none" stroke="#000000" style="-webkit-tap-highlight-color: rgba(0, 0, 0, 0); stroke-linecap: round; stroke-linejoin: round; stroke-width: 6;" /><path d="M836.62,749.5" fill="none" stroke="#000000" style="-webkit-tap-highlight-color: rgba(0, 0, 0, 0); stroke-linecap: round; stroke-linejoin: round; stroke-width: 6;" /><path d="M994,668L999,668L997,668L1001,668L1004,668L1008,668L1006,668L1011,668" fill="none" stroke="#000000" style="-webkit-tap-highlight-color: rgba(0, 0, 0, 0); stroke-linecap: round; stroke-linejoin: round; stroke-width: 6;" /><path d="M839,747" fill="none" stroke="#000000" style="-webkit-tap-highlight-color: rgba(0, 0, 0, 0); stroke-linecap: round; stroke-linejoin: round; stroke-width: 6;" /><path d="M1011,671" fill="none" stroke="#000000" style="-webkit-tap-highlight-color: rgba(0, 0, 0, 0); stroke-linecap: round; stroke-linejoin: round; stroke-width: 6;" /><path d="M841,745L839,745L844,745L850,742L851,742L859,743L871,742L877,749L873,742L877,749L900,748L901,748L903,748L900,748L900,748L906,756L913,755L908,756L911,756L918,753L925,753L929,750L920,752L929,750L939,741L934,744L938,742L939,741L954,740L951,742L939,741L939,741" fill="none" stroke="#000000" style="-webkit-tap-highlight-color: rgba(0, 0, 0, 0); stroke-linecap: round; stroke-linejoin: round; stroke-width: 6;" /><path d="M961,740L958,740L956,740L963,740L966,738L968,738L981,729L970,738L981,729L981,729L981,729L981,729L981,729L981,729L981,729L982,728L981,729L981,729L981,729L981,729L981,729L981,729L963,740L970,738L968,738L961,740L939,741L951,742L956,742L939,741L927,750L934,744L931,745L923,751L914,747L912,747L918,752L907,747L906,747L900,748L904,747L900,748L900,748L877,749L889,745L877,749L877,749L877,749L873,742L877,749L871,745L871,745L871,745L865,747L863,747" fill="none" stroke="#000000" style="-webkit-tap-highlight-color: rgba(0, 0, 0, 0); stroke-linecap: round; stroke-linejoin: round; stroke-width: 6;" /><path d="M435.62,1043.1" fill="none" stroke="#000000" style="-webkit-tap-highlight-color: rgba(0, 0, 0, 0); stroke-linecap: round; stroke-linejoin: round; stroke-width: 6;" /><path d="M859,743L857,738L856,738L855,738L851,731L847,729L847,729L847,729L849,731L836,744L834,732L847,731L834,732" fill="none" stroke="#000000" style="-webkit-tap-highlight-color: rgba(0, 0, 0, 0); stroke-linecap: round; stroke-linejoin: round; stroke-width: 6;" /><path d="M434,1045L434,1045L434,1045L434,1045L415,1056L416,1057L415,1056L415,1056L417,1058L418,1059L434,1045L435,1046L435,1045L443,1043L450,1041L457,1039L466,1040L471,1040L479,1039L474,1040L481,1039L481,1039L484,1038L484,1038L493,1050L495,1050L496,1050L496,1050L503,1033L503,1033L519,1027L521,1027L521,1027L540,1046L540,1046L550,1039L548,1041L548,1041L552,1037L556,1035L552,1037L559,1034L565,1029L567,1026L567,1026L568,1027L568,1027L584,1015L589,1014L597,1012L580,1014L624,1009L603,1009L610,1005L625,1011L627,1011L633,1010L631,1010L633,1010L650,1007L646,1007L633,1010L653,1007L655,1005L662,1003L667,1003L660,1005L670,1003L679,1000L677,1000L672,1000L684,1000L689,1000L693,1000L700,988L701,988L704,987L710,982L705,986L722,993L724,980L736,979L724,980L736,991L746,979L741,979L746,979L746,979L765,976L746,979L765,976L767,976L776,991L784,987L780,989L787,984L792,983L793,982L796,980L799,979L807,978L808,978L803,978L811,977L825,974L822,974L815,976L818,975" fill="none" stroke="#000000" style="-webkit-tap-highlight-color: rgba(0, 0, 0, 0); stroke-linecap: round; stroke-linejoin: round; stroke-width: 6;" /><path d="M829,974L832,974L840,973L844,973L849,974L854,977L853,976L864,978L864,978L864,978L864,978L877,974L880,974L882,976L884,976L889,976L887,976L892,976L894,976L896,974L899,974L901,974L903,971L906,971L908,971L911,969L913,969L918,969L915,969L920,967L923,967L925,967L927,967L930,967L932,967L934,967L937,967L939,962L939,964" fill="none" stroke="#000000" style="-webkit-tap-highlight-color: rgba(0, 0, 0, 0); stroke-linecap: round; stroke-linejoin: round; stroke-width: 6;" /><path d="M139.64,1124.25L144,1114L144,1114L144,1114L132,1122L128,1124L123,1129L116,1131L111,1136L109,1139L106,1143L101,1146L92,1155L97,1151L85,1158L78,1162L70,1165L59,1176L59,1176L58,1176L59,1176L57,1176L57,1176L53,1177L53,1177L53,1177L53,1177L50,1181L51,1180L50,1181L49,1187L45,1189L45,1189L39,1191L38,1192L25,1186L20,1189L16,1191L13,1193L8,1196" fill="none" stroke="#000000" style="-webkit-tap-highlight-color: rgba(0, 0, 0, 0); stroke-linecap: round; stroke-linejoin: round; stroke-width: 6;" /><path d="M6,1196L4,1198L1,1198" fill="none" stroke="#000000" style="-webkit-tap-highlight-color: rgba(0, 0, 0, 0); stroke-linecap: round; stroke-linejoin: round; stroke-width: 6;" /><path d="M106.22,1098L110,1096L116,1091L113,1092L130,1093L140,1093L149,1093L154,1096L156,1098L159,1110L159,1110L159,1110L159,1110L159,1110L147,1100L140,1100L132,1100L130,1100" fill="none" stroke="#000000" style="-webkit-tap-highlight-color: rgba(0, 0, 0, 0); stroke-linecap: round; stroke-linejoin: round; stroke-width: 6;" /><path d="M130,1100L128,1100L132,1103L143,1111L143,1111" fill="none" stroke="#000000" style="-webkit-tap-highlight-color: rgba(0, 0, 0, 0); stroke-linecap: round; stroke-linejoin: round; stroke-width: 6;" /><path d="M34.61,465.45L26,457L20,471L26,457L24,457L24,457L24,457L24,457L20,471L20,471L20,475L20,479L18,487L18,492L18,496L19,506L20,509L21,514L21,514L23,532L25,527L25,528L21,535L21,536L18,542L17,546L17,546L15,561L15,559L15,559L15,563L15,565L15,565L13,574L13,575" fill="none" stroke="#000000" style="-webkit-tap-highlight-color: rgba(0, 0, 0, 0); stroke-linecap: round; stroke-linejoin: round; stroke-width: 6;" /><path d="M13,578L13,585L13,580L13,582L14,592L13,588L15,594L15,594L15,599L15,597L14,607L11,604L14,611L5,618L5,618L6,619L1,622L8,633L8,633L8,633L13,642L14,639L16,642L16,642" fill="none" stroke="#000000" style="-webkit-tap-highlight-color: rgba(0, 0, 0, 0); stroke-linecap: round; stroke-linejoin: round; stroke-width: 6;" /><path d="M84.74,7.16L82,7L80,7L80,10L80,12L80,17L80,21L80,38L80,38L80,40L80,45L80,52L81,50L80,52L80,52L82,67L85,69L87,79L87,74L87,81L87,84L90,88L90,93L90,95L90,100L90,98L90,111L90,111L90,116L90,111L90,112" fill="none" stroke="#000000" style="-webkit-tap-highlight-color: rgba(0, 0, 0, 0); stroke-linecap: round; stroke-linejoin: round; stroke-width: 6;" /></svg>