<?xml version="1.0" encoding="utf-8" ?>
<svg baseProfile="full" height="1351" version="1.1" width="1024" xmlns="http://www.w3.org/2000/svg" xmlns:ev="http://www.w3.org/2001/xml-events" xmlns:xlink="http://www.w3.org/1999/xlink"><defs /><path d="M456.32,9.68L456.32,7.26L453.9,7.26L453.9,4.84L451.48,4.84L451.48,2.42L449.06,2.42L449.06,0L451.48,2.42L451.48,7.26L451.48,9.68L451.48,24.21L451.48,33.89L453.9,46L453.9,48.42L453.9,50.84L456.32,65.36L458.74,72.62L458.74,75.04L458.74,77.47L458.74,79.89L458.74,94.41L461.16,104.09L461.16,111.36L461.16,113.78L461.16,118.62L461.16,125.88L461.16,128.3L461.16,130.72L461.16,140.41L461.16,150.09L461.16,152.51L461.16,159.77L461.16,162.19L461.16,169.46L463.58,171.88L463.58,176.72L463.58,179.14L463.58,181.56L463.58,191.24L463.58,203.35L461.16,213.03L461.16,215.45L461.16,217.87L461.16,232.4L461.16,242.08L461.16,246.92L461.16,261.45L461.16,271.13L461.16,273.55L461.16,275.97L461.16,290.5L461.16,307.44L461.16,317.13L461.16,329.23L461.16,338.91L463.58,351.02L463.58,365.54L463.58,377.65L463.58,389.75L466,399.43L466,409.12L468.43,416.38L470.85,426.06L470.85,435.74L473.27,445.43L475.69,455.11L475.69,464.79L478.11,472.06L480.53,479.32L480.53,486.58L482.95,493.84L482.95,503.53L485.37,510.79L485.37,515.63L487.79,525.31L487.79,530.16L490.21,537.42L490.21,544.68L490.21,549.52L492.63,556.78L492.63,559.21L492.63,566.47L492.63,571.31L492.63,576.15L495.05,578.57L495.05,583.41L495.05,588.26L495.05,595.52L497.48,602.78L497.48,607.62L497.48,612.46L497.48,614.88L499.9,617.3L502.32,619.73" fill="none" stroke="#000000" style="-webkit-tap-highlight-color: rgba(0, 0, 0, 0); stroke-linecap: round; stroke-linejoin: round; stroke-width: 6;" /><path d="M570.1,4.84L570.1,2.42L567.68,2.42L567.68,4.84L567.68,7.26L567.68,12.1L570.1,19.37L570.1,31.47L570.1,41.15L572.52,50.84L572.52,60.52L574.94,70.2L574.94,79.89L577.36,89.57L577.36,99.25L579.78,111.36L579.78,121.04L579.78,130.72L579.78,140.41L582.2,150.09L582.2,162.19L582.2,171.88L584.62,193.66L584.62,203.35L584.62,215.45L584.62,225.13L584.62,234.82L584.62,244.5L584.62,254.18L584.62,263.87L584.62,271.13L584.62,280.81L584.62,288.08L584.62,297.76L584.62,307.44L584.62,317.13L584.62,326.81L584.62,336.49L584.62,343.75L584.62,353.44L587.04,360.7L587.04,370.38L587.04,380.07L589.47,389.75L589.47,399.43L591.89,406.7L591.89,416.38L591.89,423.64L594.31,433.32L594.31,440.59L594.31,447.85L596.73,455.11L596.73,462.37L596.73,469.64L596.73,479.32L596.73,489L596.73,498.69L599.15,508.37L599.15,520.47L599.15,527.74L601.57,535L601.57,539.84L601.57,544.68L603.99,549.52L603.99,554.36L603.99,559.21L606.41,564.05L606.41,566.47L606.41,568.89L606.41,573.73L608.83,578.57L608.83,583.41L608.83,588.26L608.83,590.68L611.25,595.52L611.25,600.36L611.25,605.2L611.25,607.62L611.25,610.04L611.25,612.46L611.25,614.88L611.25,617.3L611.25,619.73L611.25,624.57L608.83,626.99L606.41,629.41L601.57,629.41L599.15,631.83L594.31,634.25L591.89,634.25L587.04,634.25L584.62,634.25L579.78,636.67L574.94,636.67L570.1,636.67L562.84,636.67L558,639.09L553.15,639.09L548.31,639.09L543.47,639.09L538.63,639.09L533.79,639.09L528.95,639.09L524.1,639.09L519.26,636.67L512,634.25L507.16,631.83L499.9,629.41L495.05,629.41L490.21,629.41" fill="none" stroke="#000000" style="-webkit-tap-highlight-color: rgba(0, 0, 0, 0); stroke-linecap: round; stroke-linejoin: round; stroke-width: 6;" /><path d="M410.33,4.84L410.33,2.42L410.33,7.26L410.33,9.68L410.33,24.21L410.33,26.63L410.33,41.15L410.33,43.57L410.33,55.68L410.33,67.78L410.33,79.89L412.75,91.99L412.75,104.09L412.75,116.2L412.75,125.88L412.75,128.3L412.75,137.99L412.75,140.41L412.75,152.51L412.75,159.77L412.75,176.72L412.75,186.4L412.75,198.51L412.75,210.61L415.17,222.71L415.17,232.4L415.17,242.08L415.17,246.92L415.17,256.61L415.17,280.81L415.17,290.5L415.17,297.76L415.17,307.44L415.17,317.13L415.17,324.39L415.17,334.07L415.17,341.33L415.17,351.02L417.59,360.7L417.59,367.96L417.59,377.65L417.59,384.91L420.01,394.59L420.01,404.27L420.01,413.96L420.01,423.64L420.01,430.9L420.01,440.59L422.43,450.27L422.43,457.53L424.85,467.22L424.85,474.48L427.27,481.74L427.27,489L427.27,496.26L429.69,501.11L429.69,505.95L429.69,513.21L429.69,515.63L429.69,520.47L429.69,522.89L429.69,525.31L429.69,530.16L427.27,532.58L427.27,537.42L424.85,542.26L424.85,547.1L422.43,549.52L422.43,554.36L420.01,556.78L420.01,559.21L420.01,561.63L420.01,566.47L417.59,566.47L417.59,568.89L420.01,568.89L424.85,571.31L429.69,571.31L434.53,573.73L439.38,573.73L444.22,573.73L449.06,573.73L453.9,573.73L458.74,573.73L463.58,576.15L468.43,576.15L475.69,576.15L487.79,568.89L492.63,568.89L497.48,568.89" fill="none" stroke="#000000" style="-webkit-tap-highlight-color: rgba(0, 0, 0, 0); stroke-linecap: round; stroke-linejoin: round; stroke-width: 6;" /><path d="M173.09,4.84L170.67,7.26L168.25,9.68L168.25,12.1L168.25,14.52L168.25,19.37L173.09,24.21L175.51,31.47L175.51,41.15L177.93,50.84L177.93,60.52L180.35,72.62L182.77,82.31L185.19,91.99L185.19,104.09L187.61,113.78L187.61,123.46L190.03,135.57L192.45,145.25L194.87,157.35L197.3,169.46L199.72,179.14L199.72,188.82L199.72,193.66L202.14,196.09L202.14,215.45L204.56,227.56L204.56,237.24L206.98,249.34L206.98,261.45L209.4,273.55L209.4,285.65L211.82,295.34L214.24,307.44L216.66,319.55L216.66,326.81L219.08,336.49L221.5,346.17L221.5,355.86L223.92,365.54L223.92,375.22L226.35,382.49L228.77,389.75L228.77,399.43L231.19,409.12L231.19,418.8L233.61,426.06L233.61,428.48L233.61,435.74L236.03,447.85L238.45,457.53L238.45,467.22L240.87,474.48L240.87,484.16L243.29,491.42L243.29,498.69L243.29,503.53L245.71,510.79L245.71,515.63L248.13,522.89L250.55,527.74L250.55,532.58L252.97,537.42L255.39,542.26L257.82,544.68L257.82,547.1L260.24,549.52L260.24,551.94L262.66,554.36L262.66,559.21L265.08,561.63L265.08,564.05L265.08,566.47L267.5,568.89L267.5,571.31L267.5,573.73L267.5,576.15L265.08,578.57L262.66,580.99L260.24,583.41L257.82,585.83L255.39,588.26L252.97,590.68L248.13,593.1L243.29,595.52L238.45,597.94L233.61,600.36L228.77,602.78L221.5,602.78L211.82,602.78L199.72,602.78L187.61,602.78L180.35,602.78" fill="none" stroke="#000000" style="-webkit-tap-highlight-color: rgba(0, 0, 0, 0); stroke-linecap: round; stroke-linejoin: round; stroke-width: 6;" /><path d="M88.36,4.84L85.94,4.84L83.52,4.84L81.1,7.26L81.1,12.1L81.1,16.95L83.52,21.79L83.52,24.21L83.52,31.47L83.52,43.57L85.94,58.1L85.94,72.62L88.36,82.31L88.36,91.99L90.78,101.67L93.2,111.36L93.2,121.04L93.2,133.14L95.62,140.41L95.62,150.09L98.04,157.35L98.04,164.61L98.04,167.04L98.04,169.46L100.46,179.14L102.88,186.4L102.88,188.82L102.88,193.66L105.3,198.51L105.3,203.35L107.73,210.61L110.15,217.87L112.57,222.71L114.99,227.56L114.99,232.4L117.41,239.66L119.83,246.92L122.25,251.76L122.25,254.18L124.67,261.45L124.67,268.71L127.09,271.13L127.09,273.55L129.51,278.39L129.51,285.65L131.93,292.92L131.93,295.34L131.93,297.76L131.93,305.02L134.35,314.7L136.78,326.81L139.2,336.49L141.62,341.33L141.62,343.75L141.62,348.6L144.04,355.86L146.46,358.28L146.46,365.54L146.46,367.96L146.46,370.38L148.88,375.22L148.88,377.65L148.88,380.07" fill="none" stroke="#000000" style="-webkit-tap-highlight-color: rgba(0, 0, 0, 0); stroke-linecap: round; stroke-linejoin: round; stroke-width: 6;" /><path d="M93.2,307.44L90.78,307.44L88.36,307.44L88.36,314.7L90.78,324.39L93.2,331.65L98.04,341.33L100.46,346.17L105.3,351.02L110.15,353.44L117.41,355.86L122.25,360.7L127.09,363.12L131.93,367.96L136.78,370.38L139.2,372.8L144.04,375.22L148.88,377.65L151.3,380.07L156.14,384.91L158.56,384.91L163.4,387.33L165.83,389.75L168.25,394.59L170.67,397.01L173.09,399.43L173.09,401.85L175.51,404.27L175.51,409.12L177.93,413.96L177.93,418.8L180.35,421.22L180.35,423.64L180.35,426.06L180.35,428.48L182.77,433.32L182.77,440.59L182.77,445.43L182.77,447.85L182.77,455.11L182.77,457.53L182.77,464.79L182.77,467.22L182.77,479.32L182.77,481.74L182.77,489L180.35,491.42L180.35,493.84L180.35,498.69L180.35,505.95L180.35,508.37L180.35,510.79L180.35,515.63L177.93,525.31L175.51,532.58L175.51,537.42L175.51,544.68L173.09,549.52L173.09,554.36L173.09,556.78L173.09,564.05L170.67,568.89L170.67,571.31L170.67,576.15L170.67,580.99L170.67,583.41L170.67,585.83L170.67,588.26L170.67,590.68L170.67,593.1L170.67,595.52L170.67,597.94L170.67,600.36L170.67,602.78L170.67,605.2L170.67,610.04L170.67,614.88L170.67,626.99L173.09,636.67L173.09,641.51L173.09,648.78L173.09,653.62L175.51,660.88L175.51,665.72L175.51,672.98L175.51,685.09L175.51,694.77L175.51,704.45L175.51,709.3L175.51,716.56L177.93,723.82L177.93,733.5L180.35,740.77L180.35,745.61L180.35,755.29L180.35,762.55L180.35,772.24L182.77,781.92L182.77,789.18L182.77,794.02L182.77,801.29L185.19,810.97L185.19,818.23L185.19,825.49L187.61,830.34L187.61,837.6L187.61,844.86L190.03,849.7L190.03,859.39L192.45,869.07L194.87,878.75L197.3,888.43L197.3,895.7L199.72,902.96L199.72,910.22L202.14,917.48L202.14,924.75L204.56,929.59L204.56,936.85L204.56,944.11L206.98,951.38L209.4,961.06L209.4,968.32L211.82,975.58L211.82,980.43L214.24,985.27L214.24,994.95L214.24,1004.63L216.66,1011.9L216.66,1019.16L216.66,1026.42L219.08,1033.68L219.08,1040.95L219.08,1048.21L221.5,1057.89L223.92,1065.15L223.92,1072.42L226.35,1079.68L226.35,1089.36L231.19,1101.47L233.61,1111.15L236.03,1120.83L238.45,1130.52L238.45,1137.78L238.45,1147.46L240.87,1154.72L243.29,1161.99L243.29,1169.25L245.71,1174.09L245.71,1178.93L245.71,1183.77L245.71,1191.04L248.13,1200.72L248.13,1205.56L248.13,1212.82L248.13,1217.66L250.55,1224.93L252.97,1232.19L252.97,1239.45L255.39,1244.29L255.39,1249.13L255.39,1253.98L255.39,1258.82L255.39,1263.66L257.82,1270.92L260.24,1275.76L260.24,1280.61L262.66,1285.45L262.66,1287.87L262.66,1292.71L262.66,1297.55L265.08,1302.39L265.08,1307.23L265.08,1312.08L267.5,1314.5L267.5,1319.34L267.5,1324.18L267.5,1326.6L267.5,1331.44L267.5,1333.86L267.5,1336.28L267.5,1338.7L269.92,1338.7L274.76,1338.7L279.6,1333.86" fill="none" stroke="#000000" style="-webkit-tap-highlight-color: rgba(0, 0, 0, 0); stroke-linecap: round; stroke-linejoin: round; stroke-width: 6;" /><path d="M899.33,305.02L896.91,300.18L894.49,297.76L892.07,300.18L892.07,307.44L889.65,314.7L889.65,321.97L889.65,329.23L889.65,336.49L889.65,346.17L887.22,355.86L887.22,365.54L887.22,372.8L887.22,382.49L887.22,392.17L887.22,399.43L884.8,409.12L884.8,418.8L884.8,426.06L884.8,435.74L884.8,445.43L884.8,455.11L884.8,464.79L884.8,476.9L884.8,486.58L884.8,493.84L884.8,503.53L884.8,510.79L884.8,522.89L882.38,535L882.38,544.68L882.38,551.94L882.38,559.21L882.38,564.05L882.38,573.73L882.38,580.99L882.38,593.1L884.8,600.36L884.8,605.2L884.8,607.62L884.8,610.04L887.22,610.04" fill="none" stroke="#000000" style="-webkit-tap-highlight-color: rgba(0, 0, 0, 0); stroke-linecap: round; stroke-linejoin: round; stroke-width: 6;" /><path d="M889.65,297.76L889.65,292.92L892.07,292.92L899.33,292.92L906.59,292.92L913.85,292.92L918.7,292.92L923.54,295.34L928.38,295.34L930.8,297.76L933.22,297.76L938.06,300.18L940.48,300.18L942.9,300.18L945.32,300.18L947.74,300.18L950.17,302.6L952.59,302.6L955.01,302.6L955.01,305.02L955.01,307.44L955.01,314.7L952.59,319.55L952.59,326.81L950.17,334.07L950.17,343.75L950.17,351.02L950.17,360.7L950.17,370.38L950.17,377.65L950.17,384.91L950.17,394.59L950.17,401.85L950.17,409.12L950.17,413.96L950.17,423.64L950.17,430.9L950.17,440.59L950.17,447.85L950.17,452.69L950.17,457.53L950.17,464.79L950.17,472.06L950.17,481.74L952.59,489L952.59,493.84L952.59,501.11L952.59,505.95L952.59,510.79L952.59,518.05L952.59,527.74L952.59,535L952.59,542.26L955.01,549.52L955.01,551.94L955.01,556.78L955.01,561.63L955.01,566.47L955.01,573.73L955.01,578.57L955.01,583.41L957.43,593.1L957.43,597.94L957.43,605.2L957.43,607.62L957.43,612.46L957.43,617.3L957.43,622.15L957.43,629.41L957.43,634.25L962.27,636.67" fill="none" stroke="#000000" style="-webkit-tap-highlight-color: rgba(0, 0, 0, 0); stroke-linecap: round; stroke-linejoin: round; stroke-width: 6;" /><path d="M894.49,607.62L892.07,607.62L889.65,607.62L887.22,607.62L889.65,607.62L892.07,607.62L894.49,610.04L901.75,614.88L906.59,617.3L913.85,619.73L921.12,619.73L925.96,622.15L930.8,624.57L935.64,626.99L940.48,626.99L945.32,629.41L950.17,631.83L955.01,636.67L959.85,636.67L959.85,639.09L964.69,639.09L967.11,639.09" fill="none" stroke="#000000" style="-webkit-tap-highlight-color: rgba(0, 0, 0, 0); stroke-linecap: round; stroke-linejoin: round; stroke-width: 6;" /><path d="M892.07,605.2L889.65,605.2L889.65,607.62L887.22,607.62L884.8,607.62L887.22,605.2L892.07,602.78L899.33,597.94L906.59,590.68L913.85,578.57L921.12,568.89L928.38,561.63L935.64,556.78L940.48,549.52L950.17,542.26L955.01,537.42" fill="none" stroke="#000000" style="-webkit-tap-highlight-color: rgba(0, 0, 0, 0); stroke-linecap: round; stroke-linejoin: round; stroke-width: 6;" /><path d="M930.8,305.02L930.8,302.6L930.8,307.44L930.8,314.7L930.8,319.55L930.8,326.81L930.8,336.49L930.8,346.17L930.8,355.86L930.8,365.54L930.8,372.8L930.8,382.49L930.8,392.17L930.8,401.85L933.22,411.54L933.22,421.22L933.22,433.32L933.22,440.59L933.22,447.85L933.22,455.11L933.22,462.37L933.22,469.64L933.22,479.32L933.22,486.58L933.22,493.84L933.22,498.69L933.22,505.95L933.22,510.79L933.22,518.05L933.22,522.89L933.22,530.16L933.22,537.42L933.22,542.26L933.22,547.1L933.22,551.94L933.22,559.21L933.22,564.05L935.64,568.89L938.06,571.31" fill="none" stroke="#000000" style="-webkit-tap-highlight-color: rgba(0, 0, 0, 0); stroke-linecap: round; stroke-linejoin: round; stroke-width: 6;" /><path d="M194.87,786.76L192.45,786.76L199.72,786.76L206.98,781.92L214.24,781.92L221.5,781.92L226.35,781.92L233.61,781.92L243.29,779.5L252.97,774.66L260.24,772.24L265.08,769.82L272.34,769.82L277.18,769.82L282.02,769.82L289.29,767.39L296.55,767.39L301.39,767.39L308.65,767.39L313.49,767.39L318.34,767.39L323.18,767.39L330.44,767.39L337.7,767.39L342.54,767.39L349.81,767.39L354.65,767.39L359.49,767.39L364.33,767.39L371.59,764.97L376.43,764.97L381.28,764.97L386.12,764.97L390.96,764.97L395.8,762.55L400.64,762.55L403.06,762.55L407.91,762.55L412.75,762.55L415.17,764.97L420.01,764.97L427.27,764.97L429.69,764.97L432.11,764.97L434.53,764.97L439.38,764.97L441.8,764.97L444.22,764.97L446.64,764.97L449.06,764.97L453.9,762.55L456.32,762.55L458.74,762.55L461.16,762.55L463.58,762.55L466,762.55L468.43,760.13L470.85,760.13L473.27,760.13L475.69,760.13L478.11,760.13L482.95,757.71L485.37,757.71L487.79,757.71L490.21,757.71L492.63,757.71L495.05,757.71L497.48,757.71L502.32,757.71L504.74,757.71L507.16,755.29L509.58,755.29L512,755.29L514.42,755.29L516.84,752.87L519.26,752.87L521.68,752.87L524.1,752.87L526.52,752.87L531.37,752.87L533.79,752.87L536.21,752.87L536.21,750.45L538.63,750.45L541.05,750.45L543.47,750.45L548.31,750.45L550.73,750.45L553.15,750.45L553.15,748.03L555.57,748.03L558,748.03L560.42,748.03L562.84,748.03L565.26,748.03L567.68,748.03L570.1,745.61L572.52,745.61L574.94,745.61L577.36,745.61L579.78,745.61L582.2,745.61L584.62,743.19L587.04,743.19L589.47,743.19L591.89,743.19L594.31,743.19L596.73,740.77L599.15,740.77L601.57,740.77L603.99,740.77L606.41,740.77L608.83,740.77L611.25,738.35L613.67,738.35L620.94,738.35L623.36,738.35L625.78,738.35L625.78,735.92L628.2,735.92L630.62,735.92L633.04,735.92L635.46,735.92L637.88,735.92L640.3,735.92L642.72,735.92L645.14,735.92L645.14,733.5L652.41,733.5L657.25,731.08L664.51,728.66L671.77,728.66L679.04,726.24L681.46,726.24L693.56,723.82L700.82,721.4L708.09,718.98L717.77,718.98L725.03,718.98L734.71,718.98L741.98,716.56L749.24,716.56L756.5,714.14L761.34,714.14L768.61,714.14L775.87,714.14L780.71,714.14L787.97,714.14L792.81,711.72L797.65,711.72L802.5,711.72L809.76,711.72L814.6,711.72L819.44,711.72L826.7,711.72L831.55,709.3L836.39,709.3L841.23,709.3L846.07,709.3L850.91,706.87L855.75,706.87L860.6,706.87L865.44,706.87L872.7,706.87L877.54,706.87L882.38,704.45L884.8,704.45L889.65,704.45L892.07,704.45L896.91,704.45L899.33,702.03L904.17,702.03L909.01,699.61L911.43,699.61L916.27,699.61L921.12,697.19L923.54,694.77L928.38,692.35L933.22,692.35L935.64,689.93L938.06,689.93L940.48,689.93L942.9,687.51L945.32,687.51L947.74,685.09L950.17,685.09L952.59,685.09L957.43,682.67L959.85,680.25L962.27,680.25L964.69,680.25L967.11,680.25L969.53,677.83L971.95,677.83L974.37,677.83L976.79,677.83L979.22,677.83L981.64,677.83L984.06,677.83L986.48,677.83L988.9,675.4" fill="none" stroke="#000000" style="-webkit-tap-highlight-color: rgba(0, 0, 0, 0); stroke-linecap: round; stroke-linejoin: round; stroke-width: 6;" /><path d="M294.13,1159.57L294.13,1157.14L294.13,1152.3L296.55,1149.88L296.55,1147.46L296.55,1145.04L296.55,1147.46L298.97,1152.3L298.97,1161.99L301.39,1174.09L301.39,1186.19L303.81,1200.72L306.23,1210.4L306.23,1220.09L308.65,1227.35L311.07,1237.03L311.07,1244.29L313.49,1253.98L313.49,1261.24L313.49,1268.5L315.91,1278.18L315.91,1285.45L318.34,1292.71L318.34,1297.55L320.76,1302.39L323.18,1309.65L323.18,1314.5L325.6,1321.76L325.6,1336.28L325.6,1343.55L328.02,1345.97L328.02,1341.13" fill="none" stroke="#000000" style="-webkit-tap-highlight-color: rgba(0, 0, 0, 0); stroke-linecap: round; stroke-linejoin: round; stroke-width: 6;" /><path d="M311.07,1147.46L308.65,1149.88L306.23,1149.88L303.81,1149.88L306.23,1149.88L306.23,1147.46L311.07,1147.46L313.49,1145.04L318.34,1142.62L325.6,1142.62L332.86,1140.2L340.12,1140.2L349.81,1140.2L357.07,1137.78L364.33,1135.36L374.01,1132.94L381.28,1130.52L388.54,1128.09L393.38,1125.67L400.64,1125.67L405.48,1123.25L410.33,1123.25L415.17,1120.83L420.01,1118.41L422.43,1118.41L427.27,1115.99L432.11,1115.99L434.53,1113.57L439.38,1113.57L441.8,1113.57L444.22,1113.57L446.64,1113.57L449.06,1111.15L453.9,1111.15L456.32,1111.15L458.74,1111.15L461.16,1111.15L463.58,1113.57L463.58,1115.99L466,1118.41L468.43,1123.25L470.85,1128.09L473.27,1132.94L478.11,1140.2L480.53,1147.46L485.37,1157.14L487.79,1166.83L492.63,1176.51L495.05,1186.19L499.9,1195.88L504.74,1205.56L509.58,1220.09L512,1232.19L516.84,1241.87L519.26,1251.56L524.1,1261.24L526.52,1273.34L531.37,1283.03L533.79,1290.29L536.21,1297.55L541.05,1307.23L545.89,1316.92L548.31,1326.6L553.15,1336.28L558,1343.55" fill="none" stroke="#000000" style="-webkit-tap-highlight-color: rgba(0, 0, 0, 0); stroke-linecap: round; stroke-linejoin: round; stroke-width: 6;" /><path d="M386.12,1077.26L383.7,1077.26L383.7,1074.84L388.54,1072.42L395.8,1070L403.06,1067.57L410.33,1062.73L417.59,1060.31L422.43,1055.47L427.27,1050.63L434.53,1045.79L441.8,1043.37L449.06,1040.95L456.32,1038.52L461.16,1036.1L468.43,1031.26L475.69,1028.84L482.95,1026.42L490.21,1024L497.48,1021.58L504.74,1016.74L512,1011.9L519.26,1007.05L526.52,1004.63L533.79,1002.21L538.63,997.37L545.89,994.95L553.15,992.53L560.42,992.53L565.26,990.11L572.52,990.11L579.78,990.11L587.04,987.69L594.31,987.69L601.57,987.69L608.83,987.69L618.52,987.69L625.78,985.27L635.46,982.85L645.14,980.43L654.83,980.43L666.93,980.43L679.04,978L688.72,978L700.82,975.58L712.93,973.16L725.03,970.74L734.71,970.74L746.82,968.32L756.5,965.9L766.18,965.9L775.87,965.9L783.13,963.48L792.81,963.48L802.5,961.06L812.18,958.64L819.44,958.64L829.13,958.64L836.39,958.64L843.65,958.64L850.91,956.22L855.75,956.22L863.02,956.22L867.86,956.22L872.7,956.22L877.54,956.22L882.38,956.22L887.22,956.22L892.07,956.22L894.49,956.22L896.91,956.22L899.33,956.22L901.75,956.22L906.59,956.22L909.01,958.64L911.43,958.64L916.27,958.64L918.7,958.64L921.12,958.64L923.54,961.06" fill="none" stroke="#000000" style="-webkit-tap-highlight-color: rgba(0, 0, 0, 0); stroke-linecap: round; stroke-linejoin: round; stroke-width: 6;" /><path d="M804.92,104.09L797.65,101.67L795.23,101.67L792.81,101.67L795.23,101.67L797.65,101.67L804.92,101.67L812.18,101.67L824.28,101.67L836.39,99.25L846.07,96.83L858.17,94.41L870.28,91.99L882.38,89.57L894.49,84.73L906.59,79.89L916.27,77.47L928.38,72.62L938.06,70.2L947.74,67.78L957.43,65.36L967.11,62.94L979.22,60.52L988.9,58.1L998.58,55.68L1008.26,53.26L1017.95,48.42" fill="none" stroke="#000000" style="-webkit-tap-highlight-color: rgba(0, 0, 0, 0); stroke-linecap: round; stroke-linejoin: round; stroke-width: 6;" /><path d="M180.35,65.36L175.51,67.78L177.93,67.78L185.19,65.36L190.03,65.36L194.87,67.78L199.72,67.78L204.56,67.78L211.82,67.78L221.5,65.36L231.19,62.94L238.45,62.94L248.13,62.94L255.39,60.52L262.66,60.52L269.92,58.1L277.18,58.1L284.44,55.68L291.71,55.68L298.97,55.68L308.65,55.68L315.91,55.68L323.18,53.26L330.44,53.26L335.28,53.26L340.12,53.26L344.96,53.26L349.81,53.26L354.65,53.26L359.49,53.26L364.33,53.26L366.75,53.26L371.59,53.26L376.43,53.26L381.28,55.68L386.12,55.68L388.54,55.68L393.38,55.68L400.64,55.68L403.06,53.26L407.91,55.68" fill="none" stroke="#000000" style="-webkit-tap-highlight-color: rgba(0, 0, 0, 0); stroke-linecap: round; stroke-linejoin: round; stroke-width: 6;" /><path d="M202.14,162.19L199.72,159.77L197.3,157.35L197.3,154.93L204.56,154.93L206.98,154.93L214.24,154.93L216.66,152.51L221.5,152.51L226.35,152.51L233.61,150.09L236.03,150.09L238.45,150.09L243.29,150.09L245.71,150.09L248.13,147.67L252.97,147.67L257.82,147.67L260.24,147.67L262.66,147.67L265.08,147.67L267.5,147.67L272.34,145.25L277.18,145.25L279.6,145.25L284.44,145.25L286.87,145.25L289.29,145.25L294.13,145.25L296.55,145.25L301.39,145.25L311.07,145.25L313.49,145.25L320.76,145.25L325.6,145.25L328.02,145.25L335.28,145.25L337.7,147.67L340.12,147.67L342.54,147.67L347.39,147.67L349.81,150.09L354.65,150.09L357.07,150.09L357.07,152.51L361.91,152.51L364.33,152.51L366.75,152.51L369.17,152.51L371.59,152.51L376.43,152.51L378.86,152.51L381.28,152.51L383.7,152.51L386.12,152.51L388.54,152.51L390.96,152.51L393.38,152.51L395.8,150.09L398.22,150.09L400.64,150.09L403.06,150.09L405.48,150.09L407.91,147.67L410.33,147.67L412.75,145.25L415.17,145.25L417.59,142.83" fill="none" stroke="#000000" style="-webkit-tap-highlight-color: rgba(0, 0, 0, 0); stroke-linecap: round; stroke-linejoin: round; stroke-width: 6;" /><path d="M250.55,159.77L248.13,159.77L248.13,162.19L248.13,164.61L248.13,167.04L248.13,169.46L250.55,176.72L250.55,181.56L250.55,183.98L250.55,188.82L250.55,203.35L252.97,213.03L255.39,225.13L255.39,229.98L255.39,234.82L257.82,244.5L260.24,246.92L260.24,249.34L260.24,263.87L262.66,273.55L262.66,285.65L265.08,295.34L267.5,305.02L269.92,317.13L269.92,324.39L269.92,331.65L272.34,341.33L272.34,351.02L272.34,358.28L272.34,365.54L274.76,372.8L274.76,380.07L274.76,384.91L277.18,389.75L277.18,394.59L277.18,399.43L277.18,401.85L279.6,401.85L279.6,404.27L282.02,404.27L284.44,404.27L289.29,404.27L291.71,404.27L298.97,404.27L303.81,404.27L308.65,401.85L315.91,401.85L320.76,401.85L325.6,399.43L332.86,399.43L337.7,397.01L342.54,397.01L347.39,394.59L352.23,394.59L357.07,392.17L361.91,389.75L366.75,389.75L369.17,389.75L374.01,389.75L378.86,389.75L381.28,387.33L386.12,387.33L388.54,387.33L390.96,389.75L393.38,389.75L398.22,389.75L400.64,387.33L403.06,387.33L405.48,384.91L407.91,384.91" fill="none" stroke="#000000" style="-webkit-tap-highlight-color: rgba(0, 0, 0, 0); stroke-linecap: round; stroke-linejoin: round; stroke-width: 6;" /><path d="M376.43,157.35L376.43,154.93L378.86,152.51L378.86,150.09L378.86,152.51L378.86,154.93L378.86,157.35L378.86,159.77L378.86,162.19L378.86,164.61L381.28,169.46L381.28,171.88L381.28,179.14L383.7,183.98L383.7,186.4L386.12,200.93L388.54,210.61L388.54,215.45L390.96,222.71L390.96,229.98L390.96,232.4L393.38,242.08L393.38,244.5L393.38,251.76L393.38,254.18L393.38,256.61L395.8,268.71L398.22,275.97L398.22,283.23L400.64,290.5L400.64,297.76L400.64,305.02L403.06,309.86L403.06,314.7L403.06,321.97L405.48,326.81L405.48,331.65L407.91,336.49L407.91,341.33L407.91,348.6L407.91,355.86L407.91,363.12L407.91,367.96L407.91,375.22L407.91,382.49L407.91,392.17L407.91,397.01" fill="none" stroke="#000000" style="-webkit-tap-highlight-color: rgba(0, 0, 0, 0); stroke-linecap: round; stroke-linejoin: round; stroke-width: 6;" /><path d="M6.05,116.2L3.63,118.62L1.21,118.62L3.63,121.04L8.47,121.04L10.89,121.04L15.74,123.46L20.58,125.88L25.42,125.88L30.26,125.88L35.1,128.3L39.94,128.3L42.36,130.72L44.78,133.14L47.21,133.14L47.21,135.57L49.63,140.41L52.05,147.67L52.05,152.51L54.47,157.35L54.47,162.19L56.89,169.46L59.31,174.3L59.31,179.14L61.73,183.98L61.73,188.82L61.73,196.09L64.15,200.93L66.57,203.35L68.99,208.19L71.41,210.61L73.83,213.03L78.68,215.45L81.1,217.87L85.94,220.29L88.36,220.29L90.78,222.71L93.2,222.71L95.62,225.13L98.04,229.98L100.46,232.4L100.46,237.24L102.88,242.08L102.88,246.92L102.88,251.76L105.3,259.03L105.3,266.29L107.73,273.55L107.73,280.81L110.15,288.08L110.15,292.92L110.15,297.76L110.15,305.02L110.15,309.86L110.15,317.13L107.73,321.97L105.3,324.39L102.88,326.81L102.88,329.23L100.46,331.65L98.04,334.07" fill="none" stroke="#000000" style="-webkit-tap-highlight-color: rgba(0, 0, 0, 0); stroke-linecap: round; stroke-linejoin: round; stroke-width: 6;" /><path d="M10.89,288.08L8.47,288.08L8.47,290.5L8.47,292.92L13.31,295.34L18.16,295.34L23,297.76L27.84,300.18L32.68,302.6L37.52,305.02L44.78,305.02L52.05,305.02L59.31,305.02L61.73,305.02L68.99,305.02L73.83,305.02L78.68,307.44L83.52,307.44L88.36,307.44L93.2,307.44L95.62,307.44L98.04,309.86L98.04,312.28" fill="none" stroke="#000000" style="-webkit-tap-highlight-color: rgba(0, 0, 0, 0); stroke-linecap: round; stroke-linejoin: round; stroke-width: 6;" /><path d="M252.97,525.31L250.55,525.31L248.13,522.89L255.39,520.47L262.66,518.05L269.92,518.05L277.18,518.05L284.44,515.63L291.71,515.63L298.97,515.63L306.23,513.21L313.49,513.21L318.34,513.21L325.6,513.21L332.86,515.63L340.12,515.63L347.39,515.63L354.65,515.63L359.49,515.63L366.75,515.63L371.59,513.21L376.43,513.21L383.7,510.79L388.54,510.79L393.38,510.79L398.22,510.79L403.06,510.79L407.91,510.79L412.75,508.37L417.59,508.37L420.01,508.37L422.43,508.37L427.27,508.37L432.11,508.37L436.96,508.37" fill="none" stroke="#000000" style="-webkit-tap-highlight-color: rgba(0, 0, 0, 0); stroke-linecap: round; stroke-linejoin: round; stroke-width: 6;" /><path d="M620.94,602.78L613.67,602.78L616.09,602.78L620.94,602.78L625.78,602.78L633.04,600.36L640.3,597.94L647.57,595.52L654.83,593.1L659.67,593.1L666.93,590.68L674.19,590.68L681.46,590.68L686.3,588.26L693.56,585.83L698.4,585.83L700.82,585.83L705.66,585.83L708.09,585.83L710.51,585.83L715.35,585.83L717.77,585.83L720.19,585.83L722.61,585.83L725.03,585.83L727.45,585.83L734.71,585.83L739.56,585.83" fill="none" stroke="#000000" style="-webkit-tap-highlight-color: rgba(0, 0, 0, 0); stroke-linecap: round; stroke-linejoin: round; stroke-width: 6;" /><path d="M727.45,351.02L727.45,348.6L727.45,343.75L727.45,341.33L727.45,338.91L727.45,336.49L727.45,331.65L725.03,336.49L725.03,346.17L722.61,355.86L722.61,367.96L722.61,380.07L722.61,392.17L722.61,404.27L725.03,416.38L725.03,428.48L725.03,438.17L725.03,447.85L727.45,457.53L727.45,467.22L727.45,474.48L727.45,484.16L727.45,491.42L727.45,498.69L727.45,505.95L727.45,510.79L727.45,520.47L727.45,527.74L727.45,532.58L727.45,539.84L727.45,544.68L727.45,549.52L727.45,554.36L729.87,559.21L729.87,561.63L729.87,566.47L729.87,568.89L729.87,573.73L732.29,573.73" fill="none" stroke="#000000" style="-webkit-tap-highlight-color: rgba(0, 0, 0, 0); stroke-linecap: round; stroke-linejoin: round; stroke-width: 6;" /><path d="M734.71,573.73L732.29,573.73L729.87,573.73L727.45,573.73L727.45,576.15L729.87,578.57L732.29,580.99L734.71,583.41L737.13,585.83L741.98,588.26L744.4,593.1L746.82,595.52L749.24,597.94L749.24,600.36L751.66,600.36L754.08,602.78L754.08,607.62L756.5,610.04L756.5,612.46L756.5,614.88L758.92,617.3L758.92,619.73L758.92,622.15L758.92,624.57L758.92,626.99L758.92,629.41L758.92,631.83L761.34,636.67L761.34,639.09L761.34,641.51L761.34,643.93L761.34,646.35L761.34,651.2L761.34,656.04L763.76,660.88L766.18,660.88" fill="none" stroke="#000000" style="-webkit-tap-highlight-color: rgba(0, 0, 0, 0); stroke-linecap: round; stroke-linejoin: round; stroke-width: 6;" /><path d="M376.43,944.11L374.01,944.11L371.59,944.11L369.17,944.11L369.17,946.53L371.59,948.96L374.01,953.8L374.01,961.06L376.43,965.9L378.86,973.16L378.86,978L381.28,982.85L381.28,987.69L381.28,992.53L381.28,999.79L381.28,1004.63L381.28,1009.48L381.28,1016.74L381.28,1021.58L381.28,1026.42L381.28,1031.26L383.7,1038.52L383.7,1043.37L383.7,1048.21L383.7,1053.05L383.7,1057.89L383.7,1062.73L386.12,1067.57L386.12,1072.42L386.12,1079.68L388.54,1084.52L388.54,1091.78L390.96,1099.04L393.38,1106.31L395.8,1113.57L395.8,1115.99L398.22,1118.41L398.22,1113.57" fill="none" stroke="#000000" style="-webkit-tap-highlight-color: rgba(0, 0, 0, 0); stroke-linecap: round; stroke-linejoin: round; stroke-width: 6;" /><path d="M260.24,934.43L260.24,936.85L262.66,936.85L265.08,939.27L269.92,939.27L274.76,939.27L279.6,939.27L286.87,939.27L296.55,939.27L303.81,939.27L311.07,936.85L318.34,936.85L325.6,934.43L332.86,934.43L340.12,934.43L347.39,934.43L352.23,936.85L359.49,936.85L366.75,939.27L371.59,941.69L376.43,941.69L378.86,941.69L381.28,941.69L383.7,944.11L386.12,939.27" fill="none" stroke="#000000" style="-webkit-tap-highlight-color: rgba(0, 0, 0, 0); stroke-linecap: round; stroke-linejoin: round; stroke-width: 6;" /><path d="M262.66,946.53L260.24,944.11L257.82,944.11L257.82,946.53L255.39,951.38L255.39,958.64L252.97,963.48L252.97,970.74L252.97,978L252.97,987.69L255.39,997.37L257.82,1004.63L257.82,1009.48L260.24,1014.32L260.24,1016.74L260.24,1021.58L260.24,1028.84L260.24,1036.1L257.82,1040.95L252.97,1045.79L248.13,1050.63L243.29,1055.47L236.03,1060.31L228.77,1062.73L223.92,1067.57L223.92,1070" fill="none" stroke="#000000" style="-webkit-tap-highlight-color: rgba(0, 0, 0, 0); stroke-linecap: round; stroke-linejoin: round; stroke-width: 6;" /><path d="M252.97,1205.56L255.39,1203.14L262.66,1203.14L269.92,1198.3L279.6,1193.46L286.87,1188.61L291.71,1181.35L298.97,1178.93L308.65,1174.09" fill="none" stroke="#000000" style="-webkit-tap-highlight-color: rgba(0, 0, 0, 0); stroke-linecap: round; stroke-linejoin: round; stroke-width: 6;" /></svg>