<?xml version="1.0" encoding="utf-8" ?>
<svg baseProfile="full" height="734" version="1.1" width="1024" xmlns="http://www.w3.org/2000/svg" xmlns:ev="http://www.w3.org/2001/xml-events" xmlns:xlink="http://www.w3.org/1999/xlink"><defs /><path d="M336.51,284.04L336.51,287.66L336.51,289.47L338.32,293.09L338.32,294.9L338.32,298.52L338.32,300.33L338.32,302.13L336.51,305.75L336.51,309.37L336.51,312.99L334.7,312.99L334.7,314.8L332.89,316.61L332.89,318.42L331.08,318.42L331.08,320.23L329.27,320.23L327.46,320.23L327.46,322.04L329.27,322.04L329.27,320.23L329.27,318.42L329.27,316.61L329.27,314.8L331.08,312.99L331.08,309.37L331.08,307.56L331.08,305.75L332.89,302.13L332.89,300.33L332.89,298.52L332.89,296.71L332.89,294.9L332.89,293.09L332.89,291.28L332.89,289.47L334.7,289.47L334.7,287.66L334.7,285.85L334.7,284.04L336.51,284.04L336.51,282.23L334.7,282.23L334.7,280.42L332.89,280.42L331.08,280.42L329.27,278.61L327.46,278.61L327.46,276.81L325.65,275L325.65,273.19L325.65,271.38L325.65,267.76L325.65,265.95L325.65,264.14L325.65,262.33L325.65,260.52L325.65,258.71L325.65,256.9L325.65,255.1L325.65,253.29L323.84,251.48L323.84,249.67L323.84,247.86L323.84,244.24L323.84,240.62L325.65,237L325.65,235.19L325.65,233.39L327.46,229.77L327.46,227.96L327.46,226.15L327.46,222.53L329.27,220.72L329.27,217.1L329.27,215.29L329.27,211.67L329.27,209.87L329.27,206.25L329.27,204.44L329.27,200.82L329.27,197.2L331.08,193.58L331.08,189.96L332.89,186.35L332.89,182.73L332.89,177.3L334.7,173.68L334.7,168.25L336.51,164.64L336.51,161.02L336.51,155.59L336.51,151.97L336.51,148.35L336.51,142.93L334.7,137.5L334.7,133.88L334.7,128.45L334.7,124.83L334.7,121.22L334.7,117.6L334.7,113.98L336.51,112.17L336.51,110.36L336.51,108.55L338.32,108.55L340.13,108.55L341.94,108.55L343.75,108.55L345.55,108.55L347.36,110.36L349.17,110.36L350.98,110.36L352.79,112.17L354.6,112.17L356.41,112.17L360.03,113.98L361.84,113.98L363.65,113.98L367.27,113.98L369.07,113.98L370.88,113.98L372.69,113.98L374.5,113.98L376.31,113.98L378.12,113.98L379.93,113.98L381.74,113.98L383.55,113.98L385.36,113.98L387.17,113.98L388.98,113.98L390.78,113.98L392.59,113.98L394.4,113.98L396.21,113.98L398.02,112.17L399.83,112.17L401.64,112.17L403.45,112.17L405.26,112.17L407.07,112.17L410.69,112.17L412.49,112.17L416.11,112.17L417.92,112.17L419.73,112.17L421.54,112.17L423.35,112.17L425.16,110.36L426.97,110.36L428.78,110.36L430.59,110.36L432.4,110.36L434.2,110.36L436.01,110.36L437.82,110.36L439.63,110.36L441.44,110.36L443.25,110.36L445.06,110.36L446.87,110.36L448.68,110.36L450.49,110.36L452.3,112.17L454.11,112.17L457.72,112.17L461.34,112.17L464.96,112.17L468.58,112.17L472.2,112.17L475.82,112.17L477.63,112.17L479.43,110.36L481.24,110.36L483.05,110.36L484.86,110.36L488.48,108.55L490.29,108.55L492.1,108.55L495.72,108.55L497.53,108.55L501.14,108.55L504.76,108.55L508.38,110.36L512,110.36L515.62,112.17L521.05,112.17L524.66,113.98L528.28,113.98L531.9,113.98L533.71,113.98L537.33,113.98L539.14,113.98L540.95,113.98L544.57,113.98L546.37,113.98L549.99,113.98L553.61,112.17L555.42,112.17L559.04,112.17L560.85,112.17L564.47,112.17L568.08,112.17L569.89,112.17L571.7,112.17L573.51,112.17L577.13,112.17L578.94,112.17L580.75,112.17L582.56,113.98L584.37,113.98L586.18,113.98L589.8,113.98L591.6,113.98L593.41,113.98L597.03,113.98L598.84,112.17L602.46,112.17L606.08,112.17L609.7,110.36L613.31,110.36L616.93,108.55L622.36,108.55L625.98,108.55L629.6,108.55L633.22,108.55L636.83,108.55L640.45,108.55L645.88,108.55L649.5,108.55L653.12,108.55L658.54,110.36L662.16,110.36L665.78,110.36L671.21,110.36L674.83,110.36L680.25,110.36L683.87,110.36L689.3,110.36L692.92,110.36L698.35,110.36L701.96,110.36L705.58,110.36L709.2,108.55L712.82,108.55L718.25,108.55L721.87,106.74L725.48,106.74L729.1,106.74L734.53,104.93L738.15,104.93L741.77,104.93L745.39,104.93L750.81,104.93L754.43,104.93L758.05,104.93L763.48,104.93L768.9,104.93L772.52,103.12L777.95,103.12L783.38,103.12L788.81,103.12L794.23,101.31L799.66,101.31L805.09,99.51L810.52,99.51L817.75,99.51L821.37,99.51L828.61,97.7L834.04,97.7L839.46,97.7L844.89,97.7L850.32,99.51L857.55,101.31L862.98,101.31L870.22,101.31L875.65,103.12L881.07,103.12L886.5,103.12L891.93,103.12L897.36,103.12L902.78,103.12L908.21,103.12L911.83,103.12L917.26,101.31L920.88,101.31L926.3,101.31L931.73,101.31L935.35,101.31L940.78,101.31L946.2,101.31L951.63,101.31L957.06,101.31L962.49,101.31L967.92,101.31L973.34,101.31L976.96,101.31L982.39,101.31L987.82,101.31L993.24,101.31L996.86,101.31L1002.29,101.31L1005.91,101.31L1011.34,101.31L1014.95,101.31L1018.57,101.31L1022.19,101.31" fill="none" stroke="#000000" style="-webkit-tap-highlight-color: rgba(0, 0, 0, 0); stroke-linecap: round; stroke-linejoin: round; stroke-width: 5;" /><path d="M1024,104.93" fill="none" stroke="#000000" style="-webkit-tap-highlight-color: rgba(0, 0, 0, 0); stroke-linecap: round; stroke-linejoin: round; stroke-width: 5;" /><path d="M481.24,271.38L479.43,271.38L479.43,273.19L477.63,275L475.82,275L475.82,276.81L474.01,278.61L472.2,280.42L470.39,280.42L470.39,278.61L470.39,276.81L470.39,275L470.39,273.19L468.58,271.38L468.58,267.76L468.58,265.95L468.58,262.33L466.77,260.52L466.77,256.9L466.77,255.1L466.77,253.29L466.77,251.48L466.77,249.67L468.58,246.05L468.58,244.24L470.39,242.43L472.2,240.62L474.01,238.81L475.82,237L477.63,237L479.43,237L481.24,237L483.05,237L484.86,237L486.67,238.81L488.48,238.81L490.29,240.62L490.29,244.24L490.29,247.86L490.29,251.48L490.29,255.1L490.29,260.52L490.29,264.14L488.48,265.95L488.48,269.57L488.48,271.38L490.29,273.19L490.29,275L490.29,276.81L492.1,278.61L492.1,280.42L492.1,282.23L492.1,284.04L493.91,284.04L493.91,285.85L493.91,287.66L493.91,289.47L492.1,289.47L490.29,289.47L486.67,289.47L483.05,289.47L479.43,289.47L475.82,289.47L472.2,287.66L468.58,287.66L466.77,285.85L463.15,285.85L459.53,285.85L457.72,285.85L455.92,287.66L455.92,289.47L459.53,291.28L463.15,293.09" fill="none" stroke="#000000" style="-webkit-tap-highlight-color: rgba(0, 0, 0, 0); stroke-linecap: round; stroke-linejoin: round; stroke-width: 5;" /><path d="M513.81,284.04L513.81,282.23L512,280.42L510.19,278.61L508.38,278.61L506.57,278.61L506.57,276.81L508.38,275L508.38,273.19L510.19,271.38L510.19,269.57L512,267.76L513.81,264.14L517.43,262.33L519.24,260.52L524.66,258.71L528.28,256.9L533.71,255.1L539.14,253.29L544.57,251.48L549.99,249.67L553.61,247.86L559.04,247.86L564.47,247.86L569.89,246.05L573.51,246.05L577.13,244.24L582.56,244.24L587.99,242.43L593.41,242.43L598.84,242.43L602.46,242.43L607.89,242.43L613.31,242.43L618.74,242.43L622.36,240.62L627.79,240.62L633.22,240.62L638.64,238.81L642.26,238.81L647.69,238.81L653.12,238.81L658.54,238.81L662.16,238.81L667.59,237L673.02,237L678.45,237L683.87,237L689.3,237L692.92,237L698.35,237L703.77,237L709.2,238.81L714.63,238.81L720.06,240.62L725.48,242.43L730.91,244.24L736.34,246.05L741.77,246.05L745.39,247.86L749,247.86L754.43,247.86L758.05,247.86L761.67,247.86L765.29,247.86L768.9,247.86L774.33,247.86L777.95,247.86L783.38,247.86L788.81,247.86L792.42,247.86L797.85,247.86L801.47,247.86L806.9,247.86L814.13,247.86L817.75,247.86L824.99,247.86L830.42,247.86L835.84,247.86L841.27,247.86L846.7,249.67L852.13,251.48L857.55,251.48L861.17,253.29L866.6,255.1L872.03,256.9L877.46,256.9L881.07,258.71L884.69,258.71L890.12,258.71L893.74,258.71L897.36,256.9L902.78,256.9L906.4,256.9L911.83,255.1L915.45,255.1L920.88,253.29L926.3,253.29L931.73,251.48L935.35,251.48L940.78,251.48L946.2,251.48L949.82,251.48L953.44,251.48L958.87,251.48L962.49,251.48L966.11,251.48L969.72,251.48L975.15,251.48L978.77,251.48L984.2,251.48L989.63,251.48L993.24,251.48L996.86,249.67L1002.29,249.67L1005.91,249.67L1007.72,249.67L1011.34,249.67L1013.14,249.67L1014.95,251.48L1016.76,253.29L1018.57,255.1L1018.57,256.9L1020.38,256.9L1020.38,258.71L1018.57,258.71L1016.76,258.71" fill="none" stroke="#000000" style="-webkit-tap-highlight-color: rgba(0, 0, 0, 0); stroke-linecap: round; stroke-linejoin: round; stroke-width: 5;" /><path d="M721.87,269.57L721.87,267.76L720.06,267.76L718.25,265.95L716.44,265.95L714.63,264.14L712.82,264.14L711.01,264.14L709.2,265.95L707.39,267.76L705.58,269.57L703.77,273.19L701.96,275L700.16,280.42L698.35,284.04L696.54,289.47L696.54,294.9L694.73,300.33L694.73,305.75L694.73,311.18L694.73,316.61L692.92,322.04L692.92,325.65L694.73,329.27L694.73,332.89L696.54,334.7L698.35,338.32L700.16,340.13L701.96,343.75L703.77,345.55L705.58,349.17L707.39,350.98L709.2,354.6L711.01,356.41L712.82,358.22L714.63,361.84L716.44,363.65L718.25,365.46L720.06,367.27L721.87,367.27L725.48,370.88L727.29,370.88L729.1,372.69L729.1,374.5L730.91,376.31L732.72,378.12L734.53,379.93L734.53,381.74L736.34,383.55L738.15,385.36L738.15,387.17L739.96,388.98L739.96,390.78L739.96,392.59L739.96,394.4L739.96,396.21L739.96,398.02L739.96,401.64L739.96,403.45L738.15,405.26L734.53,407.07L730.91,407.07L725.48,408.88L721.87,408.88L716.44,408.88L711.01,408.88L707.39,407.07L701.96,405.26L698.35,405.26L694.73,403.45L691.11,403.45L689.3,401.64L685.68,401.64L683.87,398.02L682.06,396.21L682.06,394.4L680.25,392.59L676.64,390.78L674.83,388.98L671.21,387.17L669.4,383.55L667.59,381.74L665.78,378.12L663.97,376.31L663.97,374.5L662.16,372.69L660.35,370.88L658.54,369.07L656.73,367.27L654.93,365.46L653.12,363.65L651.31,360.03L649.5,358.22L647.69,356.41L645.88,354.6L642.26,352.79L640.45,352.79L638.64,350.98L635.02,350.98L633.22,350.98L631.41,349.17L627.79,349.17L624.17,349.17L620.55,349.17L616.93,349.17L613.31,349.17L609.7,349.17L607.89,349.17L604.27,349.17L602.46,349.17L600.65,349.17L598.84,349.17L597.03,349.17L595.22,347.36L593.41,347.36L591.6,345.55L591.6,343.75L589.8,341.94L587.99,341.94L586.18,340.13L584.37,340.13L584.37,338.32L582.56,338.32L582.56,336.51L582.56,334.7L580.75,332.89L580.75,331.08L580.75,327.46L580.75,325.65L580.75,322.04L580.75,320.23L580.75,318.42L580.75,316.61L578.94,316.61L578.94,314.8L577.13,312.99L575.32,311.18L573.51,311.18L569.89,309.37L566.28,307.56L562.66,305.75L557.23,303.94L553.61,302.13L549.99,302.13L546.37,302.13L542.76,302.13L540.95,302.13L537.33,302.13L535.52,302.13L533.71,303.94L531.9,303.94L530.09,303.94L528.28,305.75L526.47,305.75L524.66,307.56L522.86,307.56L522.86,305.75L521.05,305.75L519.24,303.94L517.43,303.94L515.62,303.94L513.81,302.13L512,302.13L510.19,302.13L508.38,302.13L506.57,302.13L504.76,300.33L502.95,300.33L501.14,300.33L499.34,300.33L497.53,298.52L495.72,296.71L493.91,296.71L492.1,294.9L490.29,294.9L488.48,294.9L486.67,294.9L484.86,294.9L483.05,294.9L481.24,294.9L479.43,294.9L477.63,296.71L475.82,296.71L474.01,296.71L472.2,296.71L470.39,296.71L468.58,298.52L466.77,298.52L464.96,298.52L463.15,300.33L461.34,300.33L459.53,302.13L457.72,302.13L455.92,303.94L455.92,305.75L455.92,307.56" fill="none" stroke="#000000" style="-webkit-tap-highlight-color: rgba(0, 0, 0, 0); stroke-linecap: round; stroke-linejoin: round; stroke-width: 5;" /><path d="M405.26,113.98L403.45,113.98L401.64,113.98L401.64,115.79L403.45,117.6L405.26,119.41L407.07,121.22L407.07,123.02L408.88,124.83L408.88,128.45L408.88,130.26L408.88,133.88L408.88,137.5L408.88,139.31L408.88,142.93L408.88,144.73L407.07,146.54L407.07,150.16L407.07,151.97L407.07,153.78L408.88,155.59L408.88,157.4L410.69,161.02L410.69,162.83L412.49,164.64L412.49,166.45L414.3,168.25L416.11,170.06L417.92,171.87L417.92,173.68L417.92,175.49L417.92,177.3L417.92,179.11L419.73,180.92L419.73,182.73L419.73,186.35L421.54,188.16L421.54,189.96L421.54,191.77L423.35,193.58L423.35,197.2L425.16,199.01L425.16,200.82L426.97,202.63L426.97,206.25L428.78,209.87L428.78,213.48L428.78,217.1L428.78,220.72L430.59,224.34L430.59,226.15L430.59,229.77L428.78,231.58L428.78,235.19L428.78,238.81L428.78,240.62L428.78,244.24L428.78,247.86L428.78,249.67L428.78,253.29L430.59,255.1L430.59,258.71L430.59,262.33L430.59,265.95L430.59,267.76L430.59,271.38L430.59,275L430.59,276.81L430.59,280.42L430.59,284.04L430.59,285.85L430.59,289.47L430.59,291.28L430.59,293.09L430.59,294.9L430.59,296.71L432.4,300.33L432.4,302.13L434.2,302.13L434.2,303.94L436.01,305.75L437.82,307.56L439.63,309.37L439.63,311.18L441.44,312.99L443.25,314.8L445.06,316.61L445.06,318.42L446.87,318.42L446.87,320.23L448.68,322.04L448.68,323.84L448.68,325.65L448.68,327.46L448.68,331.08L448.68,332.89L448.68,334.7L448.68,331.08" fill="none" stroke="#000000" style="-webkit-tap-highlight-color: rgba(0, 0, 0, 0); stroke-linecap: round; stroke-linejoin: round; stroke-width: 5;" /><path d="M454.11,318.42L452.3,318.42L452.3,316.61L452.3,312.99L452.3,309.37L452.3,303.94L452.3,298.52L452.3,293.09L450.49,287.66L450.49,282.23L450.49,278.61L448.68,273.19L448.68,267.76L448.68,262.33L446.87,256.9L446.87,253.29L445.06,247.86L445.06,244.24L445.06,238.81L445.06,235.19L445.06,229.77L446.87,226.15L446.87,220.72L446.87,215.29L446.87,211.67L446.87,206.25L446.87,197.2L446.87,191.77L446.87,188.16L446.87,186.35L446.87,182.73L446.87,180.92L446.87,179.11L445.06,177.3L445.06,173.68L445.06,171.87L445.06,170.06L443.25,168.25L443.25,166.45L443.25,164.64L443.25,162.83L443.25,161.02L443.25,157.4L443.25,153.78L443.25,151.97L443.25,150.16L443.25,148.35L443.25,144.73L445.06,142.93L445.06,141.12L445.06,139.31L446.87,137.5L446.87,135.69L448.68,133.88L448.68,132.07L450.49,130.26L452.3,130.26L454.11,130.26L454.11,132.07L455.92,133.88L455.92,135.69L455.92,137.5L455.92,139.31L455.92,142.93L457.72,146.54L457.72,150.16L457.72,151.97L457.72,153.78L457.72,155.59L457.72,159.21L459.53,161.02L459.53,162.83L459.53,164.64L459.53,168.25L459.53,170.06L459.53,171.87L459.53,173.68L459.53,175.49L459.53,177.3L459.53,180.92L459.53,182.73L459.53,184.54L459.53,186.35L459.53,189.96L459.53,191.77L459.53,195.39L459.53,199.01L459.53,202.63L459.53,206.25L459.53,208.06L459.53,211.67L459.53,215.29L459.53,217.1L459.53,218.91L459.53,220.72L459.53,224.34L459.53,226.15L459.53,227.96L459.53,229.77L459.53,233.39L459.53,235.19L459.53,237L459.53,238.81L459.53,240.62L459.53,242.43L459.53,244.24L459.53,246.05L459.53,249.67L459.53,251.48L459.53,253.29L459.53,256.9L461.34,258.71L461.34,262.33L461.34,264.14L461.34,265.95L461.34,269.57L461.34,271.38L461.34,273.19L463.15,275L463.15,278.61L463.15,280.42L463.15,282.23L463.15,284.04L463.15,285.85L463.15,287.66L463.15,289.47L463.15,291.28L463.15,293.09L463.15,294.9L463.15,296.71L463.15,298.52L463.15,300.33L463.15,302.13L463.15,303.94L463.15,305.75L463.15,307.56" fill="none" stroke="#000000" style="-webkit-tap-highlight-color: rgba(0, 0, 0, 0); stroke-linecap: round; stroke-linejoin: round; stroke-width: 5;" /><path d="M434.2,177.3L434.2,180.92L434.2,182.73L432.4,184.54L430.59,184.54L428.78,182.73L428.78,180.92L426.97,179.11L426.97,177.3L425.16,173.68L425.16,171.87L425.16,170.06L425.16,166.45L426.97,164.64L426.97,162.83L428.78,159.21L430.59,157.4L430.59,155.59L432.4,153.78L432.4,151.97L434.2,150.16L436.01,150.16L436.01,148.35L437.82,146.54L439.63,144.73L439.63,142.93L441.44,141.12L441.44,139.31L441.44,137.5L441.44,135.69L441.44,133.88L439.63,132.07L439.63,130.26L439.63,128.45L439.63,126.64L439.63,128.45L439.63,130.26" fill="none" stroke="#000000" style="-webkit-tap-highlight-color: rgba(0, 0, 0, 0); stroke-linecap: round; stroke-linejoin: round; stroke-width: 5;" /><path d="M416.11,170.06L416.11,168.25L416.11,166.45L416.11,164.64L416.11,162.83L416.11,159.21L416.11,155.59L416.11,150.16L416.11,144.73L416.11,139.31L417.92,135.69L417.92,132.07L417.92,128.45L417.92,126.64L417.92,124.83L417.92,123.02L417.92,121.22L419.73,123.02" fill="none" stroke="#000000" style="-webkit-tap-highlight-color: rgba(0, 0, 0, 0); stroke-linecap: round; stroke-linejoin: round; stroke-width: 5;" /><path d="M97.7,224.34L95.89,224.34L94.08,224.34L92.27,224.34L95.89,224.34L99.51,224.34L103.12,224.34L106.74,224.34L112.17,224.34L117.6,224.34L124.83,224.34L132.07,224.34L137.5,224.34L144.73,224.34L150.16,224.34L155.59,224.34L162.83,224.34L168.25,224.34L173.68,224.34L179.11,224.34L184.54,224.34L191.77,226.15L197.2,226.15L202.63,227.96L206.25,229.77L211.67,229.77L215.29,229.77L220.72,229.77L226.15,229.77L231.58,229.77L235.19,229.77L240.62,229.77L244.24,229.77L247.86,229.77L251.48,229.77L256.9,229.77L260.52,227.96L265.95,227.96L271.38,227.96L275,227.96L280.42,227.96L284.04,226.15L287.66,226.15L293.09,226.15L296.71,226.15L300.33,226.15L303.94,226.15L307.56,226.15L311.18,227.96L314.8,229.77L318.42,231.58L316.61,231.58" fill="none" stroke="#000000" style="-webkit-tap-highlight-color: rgba(0, 0, 0, 0); stroke-linecap: round; stroke-linejoin: round; stroke-width: 5;" /><path d="M128.45,237L126.64,235.19L124.83,233.39L123.02,231.58L121.22,229.77L119.41,229.77L117.6,229.77L117.6,231.58L117.6,233.39L117.6,237L119.41,238.81L121.22,240.62L124.83,244.24L128.45,246.05L130.26,249.67L133.88,249.67L137.5,251.48L141.12,251.48L142.93,251.48L146.54,251.48L148.35,251.48L151.97,251.48L153.78,253.29L155.59,253.29L157.4,253.29L159.21,253.29L161.02,255.1L162.83,256.9L164.64,256.9L166.45,258.71L170.06,258.71L171.87,260.52L175.49,260.52L179.11,260.52L182.73,260.52L186.35,260.52L189.96,260.52L195.39,260.52L199.01,260.52L202.63,260.52L206.25,260.52L211.67,258.71L215.29,258.71L218.91,258.71L222.53,258.71L227.96,260.52L231.58,260.52L235.19,260.52L238.81,260.52L242.43,260.52L246.05,260.52L249.67,262.33L253.29,262.33L256.9,262.33L260.52,262.33L264.14,262.33L267.76,262.33L269.57,262.33L273.19,260.52L276.81,258.71L280.42,256.9L285.85,256.9L291.28,255.1L294.9,255.1L300.33,255.1L302.13,255.1L305.75,255.1L307.56,255.1L309.37,253.29L311.18,253.29" fill="none" stroke="#000000" style="-webkit-tap-highlight-color: rgba(0, 0, 0, 0); stroke-linecap: round; stroke-linejoin: round; stroke-width: 5;" /><path d="M12.66,130.26L10.86,128.45L10.86,130.26L10.86,132.07L10.86,133.88L12.66,133.88L14.47,135.69L19.9,135.69L25.33,135.69L34.37,135.69L43.42,135.69L52.47,133.88L59.7,133.88L68.75,133.88L77.8,132.07L85.03,132.07L94.08,132.07L103.12,132.07L110.36,132.07L119.41,132.07L128.45,132.07L137.5,133.88L146.54,133.88L155.59,135.69L164.64,139.31L173.68,139.31L182.73,141.12L191.77,141.12L200.82,141.12L209.87,141.12L217.1,141.12L224.34,141.12L231.58,141.12L238.81,141.12L242.43,141.12L247.86,141.12L251.48,139.31L256.9,139.31L260.52,139.31L265.95,139.31L269.57,139.31L275,139.31L280.42,139.31L285.85,139.31L291.28,139.31L298.52,139.31L311.18,139.31L316.61,139.31L322.04,141.12L325.65,141.12L329.27,141.12L331.08,141.12L329.27,141.12L325.65,141.12L323.84,141.12" fill="none" stroke="#000000" style="-webkit-tap-highlight-color: rgba(0, 0, 0, 0); stroke-linecap: round; stroke-linejoin: round; stroke-width: 5;" /><path d="M9.05,222.53L9.05,220.72L7.24,220.72L7.24,218.91L9.05,220.72L12.66,220.72L16.28,222.53L21.71,224.34L27.14,227.96L34.37,231.58L41.61,235.19L47.04,238.81L52.47,240.62L57.89,244.24L63.32,246.05L68.75,246.05L74.18,246.05L86.84,247.86L94.08,249.67L99.51,249.67L106.74,249.67L112.17,251.48L117.6,253.29L123.02,255.1L126.64,258.71L132.07,262.33L135.69,264.14L141.12,267.76L146.54,271.38L150.16,273.19L153.78,276.81L159.21,280.42L162.83,282.23L166.45,285.85L171.87,287.66L177.3,289.47L184.54,291.28L189.96,293.09L195.39,294.9L199.01,296.71L202.63,298.52L204.44,298.52L208.06,300.33L209.87,300.33L211.67,300.33L211.67,298.52" fill="none" stroke="#000000" style="-webkit-tap-highlight-color: rgba(0, 0, 0, 0); stroke-linecap: round; stroke-linejoin: round; stroke-width: 5;" /><path d="M258.71,303.94L256.9,303.94L255.1,303.94L253.29,303.94L251.48,303.94L249.67,303.94L247.86,303.94L246.05,303.94L242.43,302.13L238.81,300.33L235.19,300.33L229.77,300.33L222.53,300.33L217.1,300.33L209.87,300.33L204.44,300.33L200.82,300.33L197.2,300.33L195.39,300.33L191.77,300.33L188.16,300.33L182.73,300.33L177.3,302.13L171.87,302.13L166.45,303.94L161.02,303.94L155.59,303.94L151.97,305.75L146.54,305.75L139.31,305.75L132.07,305.75L124.83,305.75L117.6,305.75L110.36,305.75L104.93,303.94L97.7,303.94L92.27,303.94L86.84,303.94L81.41,305.75L75.99,305.75L70.56,307.56L65.13,307.56L59.7,309.37L54.28,309.37L48.85,311.18L43.42,312.99L37.99,312.99L32.57,312.99L28.95,312.99L23.52,312.99L19.9,314.8L18.09,314.8L16.28,316.61L12.66,318.42L10.86,318.42L9.05,320.23L7.24,322.04L7.24,325.65L7.24,327.46L7.24,329.27L9.05,331.08L10.86,332.89L12.66,334.7L14.47,336.51L18.09,338.32L21.71,340.13L25.33,340.13L30.76,341.94L34.37,343.75L37.99,345.55L39.8,347.36L43.42,350.98L45.23,350.98L47.04,352.79L50.66,352.79L54.28,350.98L57.89,349.17L63.32,347.36L68.75,347.36L75.99,345.55L79.6,345.55L86.84,341.94L94.08,338.32L103.12,334.7L110.36,332.89L117.6,331.08L124.83,329.27L133.88,329.27L141.12,327.46L150.16,327.46L157.4,325.65L164.64,323.84L170.06,323.84L177.3,322.04L184.54,322.04L191.77,322.04L197.2,322.04L202.63,322.04L206.25,322.04L209.87,322.04L213.48,322.04L217.1,322.04L222.53,322.04L227.96,320.23L233.39,320.23L237,318.42L242.43,318.42L246.05,318.42L247.86,318.42L247.86,316.61L249.67,314.8L251.48,312.99L253.29,312.99L256.9,311.18L260.52,309.37L264.14,309.37L265.95,307.56L262.33,305.75L258.71,302.13L253.29,302.13L247.86,300.33L246.05,300.33L246.05,302.13L247.86,305.75" fill="none" stroke="#000000" style="-webkit-tap-highlight-color: rgba(0, 0, 0, 0); stroke-linecap: round; stroke-linejoin: round; stroke-width: 5;" /><path d="M350.98,305.75L349.17,305.75L349.17,307.56L347.36,307.56L345.55,309.37L343.75,311.18L341.94,312.99L341.94,316.61L341.94,318.42L340.13,320.23L340.13,323.84L341.94,327.46L343.75,329.27L345.55,331.08L349.17,332.89L352.79,334.7L356.41,334.7L361.84,336.51L367.27,336.51L370.88,338.32L376.31,338.32L381.74,338.32L387.17,338.32L394.4,340.13L399.83,340.13L403.45,341.94L407.07,343.75L408.88,345.55L412.49,345.55L416.11,345.55L419.73,345.55L425.16,347.36L428.78,347.36L432.4,349.17L434.2,349.17L436.01,349.17L437.82,347.36L439.63,345.55L443.25,343.75L443.25,341.94L445.06,340.13L446.87,338.32L448.68,338.32L450.49,338.32L450.49,340.13" fill="none" stroke="#000000" style="-webkit-tap-highlight-color: rgba(0, 0, 0, 0); stroke-linecap: round; stroke-linejoin: round; stroke-width: 5;" /><path d="M707.39,300.33L707.39,302.13L707.39,303.94L707.39,305.75L705.58,305.75L705.58,303.94L705.58,302.13L707.39,300.33L709.2,298.52L712.82,296.71L718.25,294.9L721.87,294.9L727.29,293.09L730.91,293.09L734.53,294.9L738.15,296.71L741.77,300.33L743.58,302.13L747.19,303.94L749,307.56L752.62,309.37L756.24,311.18L758.05,311.18L761.67,312.99L767.1,314.8L770.71,316.61L774.33,316.61L777.95,318.42L783.38,318.42L787,318.42L792.42,318.42L796.04,318.42L799.66,318.42L805.09,318.42L808.71,316.61L812.33,316.61L817.75,314.8L823.18,312.99L828.61,312.99L834.04,312.99L837.65,312.99L841.27,312.99L846.7,312.99L850.32,312.99L853.94,312.99L859.36,312.99L862.98,312.99L868.41,314.8L872.03,314.8L875.65,314.8L879.27,314.8L884.69,314.8L890.12,314.8L895.55,314.8L900.98,314.8L906.4,316.61L911.83,316.61L917.26,318.42L922.69,320.23L929.92,320.23L935.35,320.23L940.78,322.04L946.2,322.04L949.82,322.04L953.44,322.04L957.06,322.04L960.68,320.23L964.3,320.23L969.72,320.23L973.34,320.23L976.96,318.42L980.58,318.42L984.2,318.42L987.82,316.61L991.43,316.61L995.05,314.8L998.67,312.99L1004.1,312.99L1007.72,312.99L1013.14,312.99L1016.76,312.99L1022.19,312.99L1024,314.8L1018.57,314.8L1011.34,314.8" fill="none" stroke="#000000" style="-webkit-tap-highlight-color: rgba(0, 0, 0, 0); stroke-linecap: round; stroke-linejoin: round; stroke-width: 5;" /><path d="M716.44,303.94L716.44,302.13L716.44,300.33L714.63,300.33L714.63,298.52L712.82,298.52L711.01,298.52L709.2,298.52L707.39,300.33L705.58,302.13L703.77,303.94L701.96,307.56L701.96,309.37L700.16,312.99L700.16,316.61L700.16,320.23L701.96,322.04L701.96,325.65L703.77,327.46L703.77,331.08L705.58,332.89L707.39,336.51L707.39,338.32L709.2,340.13L711.01,343.75L711.01,345.55L712.82,347.36L712.82,349.17L714.63,350.98L716.44,352.79L718.25,354.6L720.06,356.41L720.06,358.22L721.87,360.03L721.87,361.84L723.67,363.65L723.67,365.46L725.48,367.27L725.48,369.07L727.29,370.88L729.1,372.69L729.1,374.5L730.91,374.5L732.72,376.31L734.53,378.12L736.34,379.93L738.15,381.74L739.96,383.55L739.96,385.36L741.77,387.17L741.77,388.98L741.77,390.78L743.58,390.78L743.58,392.59L743.58,394.4L743.58,396.21L743.58,398.02L741.77,399.83L741.77,401.64L739.96,403.45L739.96,405.26L738.15,407.07L736.34,408.88L734.53,408.88L732.72,410.69L730.91,410.69L729.1,410.69L727.29,410.69L729.1,408.88L732.72,408.88L732.72,407.07" fill="none" stroke="#000000" style="-webkit-tap-highlight-color: rgba(0, 0, 0, 0); stroke-linecap: round; stroke-linejoin: round; stroke-width: 5;" /><path d="M647.69,358.22L649.5,358.22L651.31,358.22L654.93,358.22L660.35,358.22L663.97,358.22L667.59,358.22L671.21,358.22L674.83,358.22L676.64,358.22L680.25,358.22L682.06,358.22L683.87,358.22L685.68,358.22L683.87,358.22" fill="none" stroke="#000000" style="-webkit-tap-highlight-color: rgba(0, 0, 0, 0); stroke-linecap: round; stroke-linejoin: round; stroke-width: 5;" /><path d="M879.27,242.43" fill="none" stroke="#000000" style="-webkit-tap-highlight-color: rgba(0, 0, 0, 0); stroke-linecap: round; stroke-linejoin: round; stroke-width: 5;" /><path d="M378.12,211.67L378.12,209.87L376.31,208.06L376.31,206.25L376.31,204.44L376.31,202.63L376.31,200.82L374.5,200.82L374.5,202.63L374.5,204.44L374.5,206.25L374.5,208.06L374.5,211.67L374.5,213.48L374.5,217.1L376.31,218.91L376.31,220.72L378.12,222.53L379.93,222.53L381.74,222.53L383.55,220.72L383.55,218.91L385.36,215.29L385.36,211.67L385.36,209.87L383.55,206.25L381.74,204.44L379.93,204.44L376.31,202.63L374.5,202.63L372.69,204.44L370.88,206.25L370.88,208.06L370.88,209.87" fill="none" stroke="#000000" style="-webkit-tap-highlight-color: rgba(0, 0, 0, 0); stroke-linecap: round; stroke-linejoin: round; stroke-width: 5;" /><path d="M414.3,316.61L412.49,316.61L412.49,314.8L410.69,314.8L412.49,314.8L414.3,314.8L416.11,316.61L417.92,318.42L419.73,320.23L421.54,322.04L423.35,323.84L423.35,325.65L425.16,327.46L425.16,331.08L425.16,332.89L426.97,334.7L426.97,336.51L426.97,338.32L426.97,340.13L426.97,341.94L426.97,343.75L426.97,345.55L428.78,345.55" fill="none" stroke="#000000" style="-webkit-tap-highlight-color: rgba(0, 0, 0, 0); stroke-linecap: round; stroke-linejoin: round; stroke-width: 5;" /><path d="M886.5,425.16L888.31,425.16L886.5,425.16L884.69,425.16L882.88,423.35L881.07,423.35L879.27,421.54L875.65,419.73L873.84,417.92L870.22,416.11L868.41,414.3L864.79,410.69L861.17,408.88L857.55,407.07L855.75,407.07L852.13,407.07L850.32,407.07L846.7,407.07L843.08,407.07L839.46,407.07L835.84,408.88L832.23,408.88L828.61,408.88L823.18,410.69L817.75,410.69L814.13,410.69L810.52,410.69L806.9,410.69L805.09,412.49L803.28,412.49L801.47,412.49L799.66,414.3L797.85,416.11L796.04,417.92L796.04,419.73L796.04,421.54L797.85,425.16L799.66,426.97L803.28,428.78L806.9,430.59L810.52,432.4L815.94,434.2L821.37,436.01L824.99,437.82L830.42,439.63L834.04,439.63L839.46,441.44L843.08,441.44L846.7,443.25L850.32,443.25L853.94,443.25L855.75,443.25L859.36,445.06L864.79,445.06L868.41,445.06L872.03,445.06L873.84,445.06L875.65,445.06L877.46,443.25L879.27,443.25L881.07,441.44L882.88,439.63L884.69,437.82L886.5,436.01L886.5,434.2L888.31,430.59L888.31,426.97L888.31,425.16L886.5,423.35L884.69,419.73L882.88,417.92L881.07,416.11L875.65,414.3L870.22,410.69L862.98,408.88L855.75,408.88L852.13,408.88L850.32,408.88L848.51,410.69L848.51,412.49L850.32,414.3L852.13,416.11" fill="none" stroke="#000000" style="-webkit-tap-highlight-color: rgba(0, 0, 0, 0); stroke-linecap: round; stroke-linejoin: round; stroke-width: 5;" /></svg>