<?xml version="1.0" encoding="utf-8" ?>
<svg baseProfile="full" height="734" version="1.1" width="1024" xmlns="http://www.w3.org/2000/svg" xmlns:ev="http://www.w3.org/2001/xml-events" xmlns:xlink="http://www.w3.org/1999/xlink"><defs /><path d="M331.38,113.45L331.38,116.43L331.38,119.42L331.38,123.15L332.13,127.63L333.62,133.6L335.11,141.81L336.61,149.27L336.61,152.26L338.1,158.23L338.85,162.71L339.59,165.69L340.34,171.66L341.08,175.39L341.08,180.62L341.83,186.59L341.83,189.57L341.83,192.56L341.08,195.55L341.08,196.29L340.34,197.78L340.34,200.02L340.34,201.52L340.34,203.76L340.34,208.23L339.59,211.22L339.59,214.2L339.59,217.94L338.85,220.92L338.85,223.16L338.1,225.4L338.1,227.64L337.35,230.62L336.61,234.36L336.61,237.34L335.86,240.33L335.11,244.8L335.11,247.79L334.37,250.78L333.62,254.51L332.87,256.75L332.87,258.99L332.87,260.48L332.87,261.22L332.87,263.46L332.87,264.21L332.87,264.96L332.87,266.45L332.87,267.2L332.87,267.94L332.87,268.69L332.87,269.43L332.87,273.17L333.62,273.91L333.62,275.41L333.62,276.9L333.62,279.14L333.62,282.12L333.62,284.36L334.37,286.6L334.37,288.09L334.37,291.08L334.37,291.83L334.37,294.81L333.62,297.05L333.62,297.8L333.62,299.29L333.62,301.53L332.87,304.51L332.13,306.75L331.38,308.99L330.64,310.48L330.64,311.23L330.64,311.98L329.89,313.47L328.4,315.71L327.65,316.45L326.9,319.44L326.9,320.19" fill="none" stroke="#000000" style="-webkit-tap-highlight-color: rgba(0, 0, 0, 0); stroke-linecap: round; stroke-linejoin: round; stroke-width: 5;" /><path d="M346.31,108.97L347.06,107.48L347.8,107.48L349.29,107.48L352.28,107.48L354.52,108.22L360.49,107.48L364.97,107.48L373.18,107.48L376.16,107.48L382.88,107.48L388.85,107.48L394.08,107.48L403.03,106.73L408.26,106.73L412.73,107.48L416.47,107.48L420.94,107.48L427.66,107.48L435.13,107.48L441.84,107.48L445.57,107.48L449.31,107.48L456.77,106.73L460.5,106.73L463.49,107.48L468.71,108.22L471.7,108.97L473.94,109.71L476.92,110.46L478.41,110.46L481.4,111.95L482.89,112.7L486.62,113.45L488.86,113.45L491.85,113.45L495.58,112.7L498.57,112.7L501.55,112.7L503.79,111.95L509.01,111.95L511.25,111.21L514.24,110.46L515.73,110.46L520.21,108.97L521.7,108.97L526.93,108.22L530.66,107.48L532.15,107.48L538.12,107.48L541.85,107.48L547.08,106.73L548.57,105.98L556.78,105.98L561.26,105.98L566.48,105.98L570.22,106.73L573.95,106.73L576.93,106.73L580.66,106.73L586.64,106.73L591.86,106.73L595.59,106.73L598.58,106.73L603.8,106.73L607.53,105.98L615,105.98L617.24,105.98L620.22,105.98L623.21,106.73L626.94,106.73L631.42,107.48L634.4,107.48L636.64,108.22L638.13,108.22L643.36,108.97L647.09,108.97L650.08,108.97L654.55,108.97L656.05,108.97L660.52,109.71L662.02,109.71L666.5,110.46L669.48,110.46L672.47,110.46L677.69,110.46L681.42,110.46L682.92,110.46L688.14,110.46L691.87,111.21L695.6,111.21L697.1,111.21L702.32,110.46L707.55,109.71L713.52,108.97L715.76,108.97L721.73,108.97L725.46,108.97L726.95,108.97L730.68,108.22L733.67,108.22L739.64,107.48L743.37,107.48L749.34,106.73L753.07,106.73L759.04,105.98L762.78,105.98L767.25,105.24L770.99,104.49L773.97,104.49L777.7,103.74L795.62,103L797.11,103L801.59,103L804.57,102.25L806.81,102.25L810.54,102.25L812.03,102.25L815.02,102.25L818.75,102.25L820.99,102.25L824.72,103L826.96,103L829.95,103L832.19,102.25L838.16,102.25L841.14,102.25L846.37,102.25L849.35,102.25L852.34,102.25L855.32,102.25L857.56,103L860.55,103L863.53,103L867.27,103L870.25,103L874.73,103L877.71,103L879.21,103" fill="none" stroke="#000000" style="-webkit-tap-highlight-color: rgba(0, 0, 0, 0); stroke-linecap: round; stroke-linejoin: round; stroke-width: 5;" /><path d="M885.92,104.49L888.16,103.74L889.66,103.74L893.39,103.74L896.37,103.74L903.09,103L906.82,103L909.81,103L912.79,103.74L915.78,103.74L919.51,103.74L922.5,103.74L926.97,103.74L929.21,103.74L933.69,103.74L936.68,103.74L940.41,103.74L943.39,103.74L947.13,104.49L950.11,104.49L953.1,103.74L957.57,103.74L961.31,103L965.78,103L969.52,103L972.5,103.74L979.22,104.49L981.46,104.49L986.68,104.49L988.92,104.49L991.91,103.74L994.89,103.74L996.38,103L997.88,103L1000.86,103L1003.1,103L1006.83,103L1009.07,103L1012.06,103L1015.79,103L1016.54,103L1018.03,103L1021.01,103L1024,103" fill="none" stroke="#000000" style="-webkit-tap-highlight-color: rgba(0, 0, 0, 0); stroke-linecap: round; stroke-linejoin: round; stroke-width: 5;" /><path d="M450.8,126.13L451.55,126.88L451.55,127.63L451.55,129.12L451.55,132.85L451.55,135.09L451.55,137.33L451.55,140.31L452.29,142.55L452.29,144.79L452.29,147.03L452.29,149.27L453.04,153L453.78,155.24L453.78,156.73L453.78,158.97L454.53,160.47L453.78,164.94L453.78,167.18L453.78,168.68L453.78,171.66L453.78,173.15L453.78,175.39L453.78,177.63L453.78,179.87L453.78,182.11L453.78,185.1L453.04,187.34L453.04,188.08L453.04,191.07L452.29,193.31L452.29,194.8L452.29,196.29L452.29,197.78L452.29,199.28L451.55,200.77L452.29,201.52L451.55,203.76L451.55,205.25L450.8,206.74L450.8,208.23L450.8,209.73L450.8,211.97L450.8,214.95L450.8,216.44L450.8,217.94L451.55,220.92L451.55,223.91L451.55,226.15L451.55,227.64L450.8,230.62L450.8,232.12L450.8,236.59L450.8,238.83L450.8,242.57L450.8,244.8L450.8,247.79L450.8,249.28L450.8,251.52L451.55,253.76L451.55,257.49L451.55,259.73L451.55,260.48L451.55,261.22L452.29,261.97L452.29,262.72L452.29,264.21L452.29,265.7L452.29,267.2L452.29,268.69L452.29,271.67L452.29,272.42L453.04,273.91L453.04,279.14L453.04,279.88L453.04,281.38L453.04,283.62L453.04,284.36L453.04,285.85L452.29,286.6L452.29,288.09L452.29,289.59L452.29,291.08L452.29,291.83L452.29,292.57L452.29,294.06L452.29,294.81L452.29,296.3L452.29,297.05L452.29,298.54L452.29,300.03L452.29,300.78L452.29,302.27L453.04,303.02L452.29,304.51L452.29,305.26L453.04,306.75L453.04,307.5L453.04,308.24L453.78,308.24L453.78,309.74L454.53,310.48L455.28,310.48" fill="none" stroke="#000000" style="-webkit-tap-highlight-color: rgba(0, 0, 0, 0); stroke-linecap: round; stroke-linejoin: round; stroke-width: 5;" /><path d="M451.55,308.24L451.55,308.99L450.8,309.74L450.8,310.48L450.05,311.98L448.56,313.47L447.07,314.96L444.08,317.95L442.59,320.19L441.84,321.68L439.6,323.92L438.86,325.41L438.11,326.9L436.62,330.64L435.87,333.62L435.13,336.61L435.13,340.34" fill="none" stroke="#000000" style="-webkit-tap-highlight-color: rgba(0, 0, 0, 0); stroke-linecap: round; stroke-linejoin: round; stroke-width: 5;" /><path d="M473.19,299.29L473.94,298.54L474.68,298.54L476.17,298.54L477.67,298.54L478.41,298.54L482.89,297.8L486.62,297.8L489.61,297.05L494.83,297.8L499.31,298.54L503.04,299.29L509.01,300.03L512,300.78L515.73,300.78L517.97,301.53L522.45,301.53L526.18,302.27L532.15,303.02L535.88,303.77L539.62,304.51L550.06,307.5L551.56,308.24L554.54,308.24L556.03,308.99L560.51,308.99L564.24,308.99L569.47,308.24" fill="none" stroke="#000000" style="-webkit-tap-highlight-color: rgba(0, 0, 0, 0); stroke-linecap: round; stroke-linejoin: round; stroke-width: 5;" /><path d="M571.71,310.48L572.45,310.48L573.2,310.48L573.95,310.48L575.44,310.48L576.93,310.48L578.43,310.48L580.66,311.23L582.16,311.98L583.65,312.72L586.64,313.47L589.62,314.22L591.86,314.96L594.1,314.96" fill="none" stroke="#000000" style="-webkit-tap-highlight-color: rgba(0, 0, 0, 0); stroke-linecap: round; stroke-linejoin: round; stroke-width: 5;" /><path d="M588.13,317.2L587.38,317.2L588.13,318.69L588.87,320.93L589.62,323.92L589.62,324.66L590.37,329.89L591.11,333.62L591.86,337.35L594.85,344.07L596.34,347.8L597.83,349.29" fill="none" stroke="#000000" style="-webkit-tap-highlight-color: rgba(0, 0, 0, 0); stroke-linecap: round; stroke-linejoin: round; stroke-width: 5;" /><path d="M715.01,303.77L714.26,303.02L713.52,303.77L712.77,304.51L710.53,307.5L709.78,309.74L709.04,313.47L707.55,318.69L706.8,323.92L706.8,327.65L706.8,330.64L706.8,334.37L707.55,336.61L710.53,342.58L712.02,344.82L713.52,347.8L715.01,350.04L717.25,352.28L719.49,356.01L721.73,358.25L722.47,359.74L723.97,361.98L726.95,367.21L728.44,370.19L730.68,374.67L732.17,377.66L732.92,379.15L734.41,382.13L735.16,383.63L736.65,386.61L738.15,388.85L739.64,389.6L740.38,391.09L742.62,391.84L744.12,393.33L745.61,395.57L746.36,396.31L747.1,397.81L747.1,399.3L748.59,400.79L748.59,402.29L749.34,404.52L749.34,405.27L749.34,406.76L749.34,407.51L748.59,407.51L748.59,408.26L747.1,408.26L743.37,408.26L740.38,408.26L735.16,408.26L730.68,408.26L725.46,409L721.73,409.75L717.25,409.75L713.52,409.75L709.78,410.5L706.05,410.5L697.1,411.24L694.86,411.24L692.62,411.24L690.38,411.99L686.65,411.24" fill="none" stroke="#000000" style="-webkit-tap-highlight-color: rgba(0, 0, 0, 0); stroke-linecap: round; stroke-linejoin: round; stroke-width: 5;" /><path d="M600.82,339.59L600.07,339.59L600.82,339.59L602.31,339.59L604.55,341.08L606.79,343.32L609.03,345.56L612.01,347.06L615,347.8L616.49,348.55L620.22,349.29L623.21,350.04L631.42,351.53L635.15,352.28L639.63,353.03L641.87,353.03L643.36,353.77L645.6,354.52L647.09,354.52L650.82,356.01L652.31,356.01L657.54,357.5L659.78,358.25L663.51,361.24L664.26,362.73L665.75,364.97L667.24,367.21L668.73,368.7L671.72,373.18L673.21,375.42L674.71,378.4L677.69,382.88L679.93,385.87L682.17,387.36L683.66,388.85L685.15,390.34L686.65,391.84L687.39,394.08L688.89,396.31L689.63,398.55L691.13,401.54L692.62,403.78L693.36,405.27L695.6,407.51L697.1,409L700.08,408.26" fill="none" stroke="#000000" style="-webkit-tap-highlight-color: rgba(0, 0, 0, 0); stroke-linecap: round; stroke-linejoin: round; stroke-width: 5;" /><path d="M726.2,301.53L725.46,301.53L726.2,301.53L726.95,302.27L727.7,302.27L730.68,303.02L734.41,303.02L735.91,303.02L738.89,302.27L742.62,302.27L749.34,302.27L755.31,302.27L760.54,303.02L768,303.02L773.22,303.02L782.18,303.02L789.64,303.77L797.85,304.51L812.03,306.01L820.99,306.01" fill="none" stroke="#000000" style="-webkit-tap-highlight-color: rgba(0, 0, 0, 0); stroke-linecap: round; stroke-linejoin: round; stroke-width: 5;" /><path d="M821.74,309.74L823.23,309.74L824.72,309.74L828.45,309.74L832.93,309.74L839.65,309.74L845.62,309.74L850.85,309.74L858.31,310.48L863.53,310.48L868.76,310.48L878.46,310.48L881.45,310.48L889.66,310.48L894.88,310.48L900.85,310.48L910.55,311.23L915.78,311.23L921.75,311.23L927.72,311.98L937.42,311.98L947.13,312.72L951.6,313.47L954.59,313.47L961.31,313.47L964.29,313.47L972.5,314.22L991.16,316.45L996.38,316.45L1003.1,317.2" fill="none" stroke="#000000" style="-webkit-tap-highlight-color: rgba(0, 0, 0, 0); stroke-linecap: round; stroke-linejoin: round; stroke-width: 5;" /><path d="M482.89,235.1L483.64,235.1L484.38,235.1L484.38,234.36L482.89,234.36L482.15,234.36L480.65,235.1L479.16,235.1L477.67,235.85L476.92,236.59L476.17,237.34L474.68,240.33L473.19,243.31L472.44,245.55L471.7,247.04L470.95,249.28L470.95,250.78L470.2,253.01L469.46,253.76L468.71,256L468.71,257.49L468.71,259.73L468.71,261.22L468.71,261.97L468.71,263.46L468.71,265.7L469.46,268.69L470.95,272.42L470.95,273.17L471.7,277.64L471.7,279.88L471.7,281.38L472.44,282.87L473.19,283.62L473.94,283.62" fill="none" stroke="#000000" style="-webkit-tap-highlight-color: rgba(0, 0, 0, 0); stroke-linecap: round; stroke-linejoin: round; stroke-width: 5;" /><path d="M484.38,240.33L485.13,239.58L486.62,238.83L488.12,238.83L490.36,238.83L491.85,240.33L493.34,240.33L494.83,241.07L496.33,242.57L498.57,244.8L499.31,246.3L500.06,247.79L500.8,250.03L501.55,253.01L501.55,254.51L501.55,256.75L501.55,258.24L501.55,260.48L501.55,261.22L501.55,262.72L501.55,264.21L502.3,266.45L502.3,268.69L502.3,270.93L502.3,273.17L502.3,275.41L502.3,276.15L502.3,278.39L503.04,279.88L503.04,280.63L504.54,282.87L504.54,282.12" fill="none" stroke="#000000" style="-webkit-tap-highlight-color: rgba(0, 0, 0, 0); stroke-linecap: round; stroke-linejoin: round; stroke-width: 5;" /><path d="M463.49,241.82L463.49,241.07L464.23,240.33L464.98,239.58L467.22,238.83L469.46,237.34L473.19,236.59L476.17,235.1L479.16,234.36L482.89,232.86L483.64,232.12L485.13,232.12L487.37,232.12L491.1,232.86L494.09,233.61L496.33,234.36L497.82,235.1L500.8,237.34L503.04,239.58L504.54,243.31L506.03,246.3L506.78,250.03L508.27,253.01L508.27,254.51L509.76,257.49L509.76,258.24L510.51,260.48L510.51,261.97L511.25,262.72L511.25,264.21L511.25,264.96L511.25,266.45L512,266.45L512,267.2L512,268.69L512,270.18L512,270.93L512,272.42L512,273.91L512,276.15L512,277.64L512,279.14L512,279.88L512.75,280.63L512.75,281.38L512.75,282.12L512.75,282.87L512.75,283.62L512.75,284.36L513.49,285.11" fill="none" stroke="#000000" style="-webkit-tap-highlight-color: rgba(0, 0, 0, 0); stroke-linecap: round; stroke-linejoin: round; stroke-width: 5;" /><path d="M474.68,282.87L476.92,282.87L479.16,281.38L481.4,281.38L484.38,280.63L487.37,279.88L489.61,279.14L494.09,278.39L497.07,277.64L500.06,277.64L504.54,277.64L506.03,277.64L507.52,278.39" fill="none" stroke="#000000" style="-webkit-tap-highlight-color: rgba(0, 0, 0, 0); stroke-linecap: round; stroke-linejoin: round; stroke-width: 5;" /><path d="M476.92,268.69L478.41,269.43L479.16,269.43L480.65,269.43L482.15,269.43L484.38,268.69L487.37,268.69L488.86,268.69L491.1,268.69L492.59,268.69L494.09,268.69" fill="none" stroke="#000000" style="-webkit-tap-highlight-color: rgba(0, 0, 0, 0); stroke-linecap: round; stroke-linejoin: round; stroke-width: 5;" /><path d="M482.15,263.46L481.4,263.46L482.15,262.72L484.38,261.97L485.88,261.22L488.86,261.22L491.1,261.22L492.59,261.22L495.58,261.22L497.82,261.97L500.06,261.97L503.79,261.97" fill="none" stroke="#000000" style="-webkit-tap-highlight-color: rgba(0, 0, 0, 0); stroke-linecap: round; stroke-linejoin: round; stroke-width: 5;" /><path d="M385.12,220.92L385.12,220.17" fill="none" stroke="#000000" style="-webkit-tap-highlight-color: rgba(0, 0, 0, 0); stroke-linecap: round; stroke-linejoin: round; stroke-width: 5;" /><path d="M378.4,205.25L378.4,204.5L379.15,205.25L378.4,206.74L378.4,208.23L378.4,208.98L378.4,209.73L378.4,210.47L378.4,212.71L378.4,213.46L378.4,214.2L379.15,214.2L379.9,214.2L380.64,214.95L381.39,214.95L382.13,215.7L383.63,215.7L384.37,216.44L385.12,216.44L386.61,215.7" fill="none" stroke="#000000" style="-webkit-tap-highlight-color: rgba(0, 0, 0, 0); stroke-linecap: round; stroke-linejoin: round; stroke-width: 5;" /><path d="M382.13,204.5L382.88,204.5L383.63,204.5L384.37,204.5L385.12,205.25L385.87,205.25L386.61,205.99L386.61,206.74L386.61,208.23L385.87,208.23L385.87,208.98L385.87,211.22L385.87,211.97L385.87,213.46L385.87,215.7L385.87,216.44" fill="none" stroke="#000000" style="-webkit-tap-highlight-color: rgba(0, 0, 0, 0); stroke-linecap: round; stroke-linejoin: round; stroke-width: 5;" /><path d="M258.24,255.25L258.24,254.51L258.24,255.25L259.73,255.25L261.22,256L262.72,256.75L263.46,256.75L266.45,257.49L267.94,257.49L271.67,257.49L277.64,257.49L281.38,257.49L287.35,256.75L291.08,256L294.81,254.51L300.03,253.76L303.02,253.01L306.75,252.27L309.74,252.27L314.22,251.52L316.45,250.78L319.44,250.03L321.68,249.28L322.43,248.54L323.17,248.54L324.66,247.79L325.41,247.79" fill="none" stroke="#000000" style="-webkit-tap-highlight-color: rgba(0, 0, 0, 0); stroke-linecap: round; stroke-linejoin: round; stroke-width: 5;" /><path d="M252.27,261.22L252.27,260.48L253.01,260.48L252.27,261.22L251.52,261.97L251.52,262.72L250.03,263.46L249.28,264.96L249.28,265.7L248.54,267.2L248.54,268.69L249.28,270.18L250.78,271.67L251.52,272.42L252.27,273.91L253.01,274.66L254.51,275.41L255.25,276.15L256,277.64L256,279.14L256,279.88L256,281.38L256,283.62L256,284.36L256,285.85L254.51,287.35" fill="none" stroke="#000000" style="-webkit-tap-highlight-color: rgba(0, 0, 0, 0); stroke-linecap: round; stroke-linejoin: round; stroke-width: 5;" /></svg>