<?xml version="1.0" encoding="utf-8" ?>
<svg baseProfile="full" height="734" version="1.1" width="1024" xmlns="http://www.w3.org/2000/svg" xmlns:ev="http://www.w3.org/2001/xml-events" xmlns:xlink="http://www.w3.org/1999/xlink"><defs /><path d="M337.66,110.11L335.83,110.11L333.99,110.11L333.99,121.12L333.99,124.79L333.99,132.13L335.83,137.63L335.83,144.97L335.83,150.48L335.83,155.99L335.83,161.49L335.83,168.83L335.83,174.34L335.83,178.01L335.83,181.68L335.83,187.18L335.83,190.85L335.83,196.36L333.99,200.03L333.99,205.53L333.99,209.2L333.99,214.71L333.99,218.38L332.16,222.05L332.16,225.72L332.16,229.39L330.32,233.06L330.32,236.73L330.32,238.57L328.49,242.24L328.49,245.91L328.49,249.58L328.49,253.25L328.49,256.92L328.49,260.59L328.49,262.42L328.49,266.09L328.49,269.76L328.49,271.6L328.49,275.27L328.49,277.1L328.49,280.77L328.49,282.61L328.49,286.28L328.49,288.11L328.49,291.78L328.49,295.46L330.32,299.13L330.32,302.8L330.32,306.47L330.32,313.81L330.32,321.15L333.99,326.65" fill="none" stroke="#000000" style="-webkit-tap-highlight-color: rgba(0, 0, 0, 0); stroke-linecap: round; stroke-linejoin: round; stroke-width: 5;" /><path d="M348.67,108.27L345,108.27L343.17,110.11L339.5,110.11L337.66,110.11L335.83,110.11L333.99,108.27L335.83,110.11L337.66,110.11L341.33,110.11L345,110.11L348.67,110.11L352.34,110.11L357.85,111.94L361.52,111.94L367.03,111.94L372.53,110.11L376.2,110.11L379.87,110.11L383.54,110.11L387.21,110.11L390.88,110.11L394.55,110.11L398.22,110.11L401.89,110.11L403.73,110.11L407.4,110.11L411.07,110.11L414.74,110.11L418.41,108.27L422.08,108.27L425.75,106.44L427.58,106.44L429.42,106.44L431.25,106.44L433.09,106.44L434.92,106.44L438.59,106.44L442.27,108.27L447.77,108.27L451.44,108.27L455.11,106.44L456.95,106.44L458.78,106.44L460.62,106.44L462.45,106.44L464.29,106.44L466.12,108.27L467.96,108.27L469.79,108.27L475.3,108.27L478.97,108.27L480.8,108.27L484.47,110.11L488.14,110.11L491.81,110.11L493.65,110.11L497.32,110.11L500.99,110.11L504.66,110.11L508.33,110.11L512,110.11L515.67,110.11L519.34,111.94L521.18,111.94L524.85,111.94L528.52,111.94L532.19,111.94L535.86,111.94L537.69,111.94L541.36,111.94L543.2,111.94L546.87,111.94L550.54,111.94L554.21,111.94L556.04,111.94L559.71,111.94L563.38,111.94L567.05,111.94L570.72,111.94L574.39,111.94L578.06,111.94L583.57,113.78L589.08,113.78L594.58,111.94L600.09,111.94L605.59,111.94L609.26,111.94L614.77,111.94L618.44,111.94L620.27,111.94L622.11,111.94L623.94,110.11L625.78,110.11L627.61,110.11L629.45,110.11L633.12,110.11L634.95,110.11L636.79,110.11L638.62,110.11L640.46,110.11L647.8,110.11L651.47,110.11L656.97,108.27L660.65,108.27L667.99,108.27L671.66,108.27L675.33,108.27L679,108.27L682.67,108.27L684.5,108.27L688.17,108.27L693.68,108.27L697.35,108.27L701.02,106.44L704.69,106.44L708.36,106.44L712.03,106.44L715.7,106.44L719.37,106.44L723.04,106.44L726.71,106.44L730.38,106.44L734.05,106.44L735.89,106.44L739.56,106.44L743.23,106.44L746.9,106.44L750.57,106.44L754.24,106.44L757.91,106.44L761.58,106.44L765.25,106.44L768.92,106.44L774.42,106.44L778.09,106.44L781.76,106.44L785.43,106.44L789.1,104.6L794.61,104.6L798.28,104.6L801.95,104.6L805.62,104.6L809.29,104.6L812.96,104.6L816.63,104.6L820.3,104.6L823.97,104.6L825.81,104.6L827.64,104.6L831.31,104.6L833.15,104.6L836.82,104.6L840.49,104.6L844.16,104.6L845.99,104.6L849.66,104.6L853.33,104.6L858.84,104.6L862.51,102.77L868.01,102.77L873.52,102.77L879.03,100.93L884.53,100.93L893.71,99.1L899.21,97.26L902.88,97.26L906.55,97.26L910.22,97.26L913.89,97.26L917.56,97.26L921.23,97.26L924.9,97.26L926.74,99.1L930.41,99.1L934.08,99.1L935.91,99.1L939.58,99.1L943.25,100.93L946.92,100.93L948.76,100.93L952.43,100.93L956.1,100.93L957.94,100.93L959.77,100.93L963.44,102.77L965.28,102.77L967.11,102.77L968.95,102.77L972.62,102.77L974.45,102.77L976.29,102.77L978.12,104.6L981.79,104.6L985.46,104.6L987.3,104.6L989.13,104.6L992.8,104.6L994.64,104.6L998.31,104.6L1000.14,104.6L1003.81,104.6L1005.65,104.6L1007.48,104.6L1011.15,104.6L1012.99,104.6L1014.82,104.6L1018.49,104.6L1020.33,106.44L1022.16,106.44" fill="none" stroke="#000000" style="-webkit-tap-highlight-color: rgba(0, 0, 0, 0); stroke-linecap: round; stroke-linejoin: round; stroke-width: 5;" /><path d="M453.28,121.12L453.28,122.95L451.44,130.29L451.44,141.3L451.44,146.81L449.61,150.48L449.61,155.99L447.77,161.49L447.77,167L447.77,172.5L445.94,178.01L445.94,183.51L445.94,189.02L445.94,194.52L445.94,200.03L445.94,203.7L445.94,209.2L445.94,212.87L445.94,216.54L445.94,222.05L445.94,225.72L445.94,229.39L447.77,234.9L447.77,238.57L447.77,244.07L447.77,249.58L447.77,253.25L447.77,258.75L449.61,262.42L449.61,267.93L449.61,271.6L449.61,277.1L449.61,280.77L449.61,284.44L449.61,289.95L449.61,291.78L449.61,295.46L449.61,297.29L449.61,300.96L449.61,302.8L449.61,306.47L449.61,308.3L449.61,310.14L449.61,311.97L449.61,313.81L449.61,315.64L449.61,317.48L449.61,321.15L447.77,324.82L447.77,328.49L445.94,332.16L444.1,335.83L442.27,337.66" fill="none" stroke="#000000" style="-webkit-tap-highlight-color: rgba(0, 0, 0, 0); stroke-linecap: round; stroke-linejoin: round; stroke-width: 5;" /><path d="M403.73,121.12L403.73,124.79L403.73,128.46L405.56,132.13L407.4,137.63L409.23,141.3L411.07,146.81L412.9,150.48L414.74,155.99L416.57,161.49L418.41,165.16L420.24,170.67L422.08,176.17L423.91,179.84L423.91,185.35L425.75,189.02L427.58,192.69L429.42,196.36L431.25,200.03L431.25,203.7L433.09,207.37L433.09,211.04L433.09,214.71L433.09,220.22L433.09,223.89L434.92,229.39L434.92,233.06L434.92,242.24L434.92,247.74L434.92,251.41L434.92,255.08L434.92,258.75L434.92,264.26L434.92,267.93L434.92,273.43L433.09,277.1L433.09,280.77L433.09,282.61L433.09,286.28L433.09,289.95L434.92,293.62L434.92,299.13L434.92,302.8L436.76,306.47L436.76,313.81L436.76,319.31L438.59,321.15" fill="none" stroke="#000000" style="-webkit-tap-highlight-color: rgba(0, 0, 0, 0); stroke-linecap: round; stroke-linejoin: round; stroke-width: 5;" /><path d="M326.65,322.98L324.82,324.82L330.32,324.82L339.5,326.65L343.17,328.49L348.67,328.49L354.18,330.32L359.68,330.32L365.19,332.16L376.2,335.83L381.71,337.66L385.38,337.66L390.88,337.66L394.55,337.66L398.22,339.5L401.89,339.5L405.56,339.5L409.23,339.5L412.9,339.5L416.57,339.5L420.24,339.5L423.91,339.5L427.58,339.5L429.42,339.5L433.09,337.66L434.92,337.66L438.59,337.66L440.43,335.83" fill="none" stroke="#000000" style="-webkit-tap-highlight-color: rgba(0, 0, 0, 0); stroke-linecap: round; stroke-linejoin: round; stroke-width: 5;" /><path d="M445.94,332.16L444.1,332.16L444.1,333.99L447.77,335.83L449.61,337.66L453.28,339.5L456.95,339.5L460.62,341.33L466.12,341.33L469.79,343.17L475.3,343.17L480.8,343.17L484.47,343.17L489.98,343.17L495.48,343.17L499.15,341.33L504.66,341.33L508.33,341.33L510.16,341.33L513.84,339.5L515.67,339.5L519.34,339.5L521.18,339.5L524.85,339.5L526.68,339.5L530.35,339.5L532.19,339.5L535.86,339.5L537.69,339.5L539.53,339.5L541.36,339.5L543.2,339.5L546.87,339.5L548.7,339.5L550.54,339.5L554.21,339.5L556.04,339.5L557.88,341.33L561.55,341.33L565.22,341.33L568.89,341.33L572.56,341.33L576.23,343.17L579.9,343.17L583.57,345L587.24,345L592.75,345L598.25,345" fill="none" stroke="#000000" style="-webkit-tap-highlight-color: rgba(0, 0, 0, 0); stroke-linecap: round; stroke-linejoin: round; stroke-width: 5;" /><path d="M708.36,300.96L706.52,300.96L704.69,300.96L704.69,304.63L704.69,308.3L704.69,313.81L704.69,319.31L704.69,326.65L706.52,333.99L710.19,339.5L713.86,345L717.53,350.51L719.37,354.18L723.04,359.68L724.87,363.35L728.54,367.03L732.22,370.7L735.89,374.37L739.56,378.04L743.23,381.71L746.9,385.38L748.73,390.88L752.4,394.55L754.24,398.22L756.07,398.22" fill="none" stroke="#000000" style="-webkit-tap-highlight-color: rgba(0, 0, 0, 0); stroke-linecap: round; stroke-linejoin: round; stroke-width: 5;" /><path d="M701.02,311.97L699.18,311.97L702.85,310.14L704.69,308.3L708.36,308.3L715.7,308.3L719.37,306.47L723.04,306.47L726.71,306.47L730.38,306.47L734.05,306.47L737.72,306.47L743.23,306.47L746.9,306.47L750.57,306.47L756.07,308.3L761.58,308.3L767.08,308.3L772.59,308.3L776.26,308.3L781.76,308.3L785.43,308.3L789.1,308.3L794.61,308.3L798.28,308.3L803.78,310.14L807.46,310.14L812.96,310.14L818.47,310.14L822.14,310.14L827.64,310.14L833.15,310.14L838.65,311.97L844.16,311.97L849.66,311.97L855.17,311.97L860.67,311.97L864.34,311.97L869.85,311.97L873.52,313.81L879.03,313.81L884.53,311.97L890.04,311.97L895.54,311.97L899.21,311.97L904.72,310.14L910.22,310.14L915.73,310.14L921.23,308.3L924.9,308.3L930.41,308.3L934.08,308.3L941.42,308.3L946.92,306.47L952.43,304.63L956.1,304.63L959.77,304.63L963.44,304.63L967.11,304.63L972.62,304.63L976.29,302.8L978.12,302.8L981.79,304.63L985.46,304.63L990.97,306.47L994.64,306.47L996.47,306.47L1000.14,308.3L1001.98,308.3L1005.65,308.3L1009.32,308.3L1011.15,308.3L1012.99,310.14" fill="none" stroke="#000000" style="-webkit-tap-highlight-color: rgba(0, 0, 0, 0); stroke-linecap: round; stroke-linejoin: round; stroke-width: 5;" /><path d="M469.79,236.73L469.79,238.57L469.79,240.4L469.79,242.24L469.79,244.07L469.79,245.91L469.79,247.74L467.96,249.58L467.96,253.25L467.96,255.08L467.96,258.75L469.79,262.42L469.79,266.09L469.79,269.76L469.79,273.43L471.63,277.1L471.63,280.77L473.46,284.44L473.46,286.28L473.46,288.11L473.46,289.95L471.63,291.78L471.63,293.62" fill="none" stroke="#000000" style="-webkit-tap-highlight-color: rgba(0, 0, 0, 0); stroke-linecap: round; stroke-linejoin: round; stroke-width: 5;" /><path d="M467.96,242.24L467.96,240.4L469.79,238.57L471.63,236.73L473.46,236.73L475.3,236.73L477.13,236.73L478.97,236.73L480.8,238.57L482.64,238.57L484.47,238.57L486.31,238.57L486.31,240.4L488.14,242.24L489.98,244.07L491.81,245.91L493.65,247.74L493.65,249.58L493.65,251.41L495.48,253.25L495.48,255.08L495.48,256.92L497.32,258.75L497.32,260.59L497.32,262.42L497.32,266.09L497.32,267.93L497.32,269.76L497.32,273.43L497.32,275.27L499.15,278.94L499.15,282.61L499.15,286.28L499.15,289.95L499.15,291.78L500.99,293.62L502.82,295.46L502.82,293.62" fill="none" stroke="#000000" style="-webkit-tap-highlight-color: rgba(0, 0, 0, 0); stroke-linecap: round; stroke-linejoin: round; stroke-width: 5;" /><path d="M471.63,304.63L469.79,304.63L471.63,304.63L475.3,304.63L478.97,304.63L482.64,304.63L486.31,304.63L493.65,302.8L497.32,302.8L502.82,302.8L508.33,302.8L513.84,302.8L519.34,302.8L524.85,302.8L528.52,300.96L534.02,300.96L537.69,300.96L543.2,300.96L548.7,300.96L554.21,300.96L557.88,300.96L561.55,300.96L563.38,300.96L567.05,300.96L568.89,302.8L570.72,302.8L572.56,302.8L574.39,304.63L576.23,304.63L578.06,304.63L579.9,306.47L581.73,306.47L583.57,306.47L585.41,306.47L587.24,306.47L589.08,306.47L589.08,308.3L590.91,310.14L590.91,311.97L590.91,313.81L590.91,315.64L592.75,317.48L592.75,319.31L594.58,321.15L594.58,324.82L596.42,332.16L600.09,337.66" fill="none" stroke="#000000" style="-webkit-tap-highlight-color: rgba(0, 0, 0, 0); stroke-linecap: round; stroke-linejoin: round; stroke-width: 5;" /><path d="M605.59,343.17L603.76,343.17L605.59,343.17L609.26,343.17L612.93,345L618.44,345L623.94,345L629.45,346.84L634.95,346.84L640.46,348.67L645.96,350.51L651.47,352.34L656.97,352.34L662.48,352.34L666.15,354.18L667.99,356.01L669.82,357.85L669.82,359.68L671.66,363.35L671.66,365.19L673.49,368.86L673.49,372.53L673.49,376.2L675.33,379.87L675.33,383.54L677.16,385.38L679,389.05L679,390.88L680.83,392.72L682.67,394.55L686.34,398.22L690.01,398.22L695.51,400.06L701.02,400.06L708.36,401.89L717.53,403.73L724.87,403.73L730.38,405.56L735.89,405.56L737.72,405.56" fill="none" stroke="#000000" style="-webkit-tap-highlight-color: rgba(0, 0, 0, 0); stroke-linecap: round; stroke-linejoin: round; stroke-width: 5;" /><path d="M12.85,223.89L12.85,222.05L14.68,222.05L18.35,222.05L20.19,222.05L25.69,220.22L31.2,220.22L36.7,218.38L42.21,218.38L45.88,218.38L49.55,220.22L55.05,220.22L60.56,220.22L64.23,220.22L67.9,220.22L69.73,220.22L71.57,222.05L75.24,223.89L77.08,223.89L78.91,223.89L80.75,225.72L82.58,225.72L86.25,227.56L88.09,227.56L91.76,229.39L95.43,231.23L99.1,233.06L102.77,234.9L106.44,236.73L110.11,238.57L111.94,240.4L115.61,242.24L121.12,244.07L124.79,244.07L130.29,244.07L133.96,245.91L139.47,245.91L143.14,247.74L148.65,249.58L152.32,249.58L157.82,251.41L161.49,253.25L167,253.25L174.34,255.08L178.01,256.92L183.51,256.92L187.18,258.75L190.85,258.75L194.52,258.75L198.19,260.59L201.86,260.59L205.53,260.59L207.37,262.42L211.04,262.42L212.87,264.26L216.54,266.09L218.38,267.93L220.22,267.93L222.05,269.76L223.89,271.6L225.72,273.43L229.39,275.27L231.23,277.1L234.9,278.94L236.73,280.77L240.4,282.61L242.24,284.44L244.07,286.28L245.91,288.11L249.58,291.78L251.41,293.62L253.25,295.46L255.08,297.29L258.75,300.96L260.59,302.8L262.42,306.47L266.09,310.14L269.76,313.81L271.6,317.48L271.6,321.15L271.6,328.49" fill="none" stroke="#000000" style="-webkit-tap-highlight-color: rgba(0, 0, 0, 0); stroke-linecap: round; stroke-linejoin: round; stroke-width: 5;" /><path d="M238.57,266.09L238.57,269.76L240.4,269.76L242.24,267.93L244.07,266.09L247.74,264.26L251.41,260.59L255.08,258.75L258.75,258.75L262.42,256.92L267.93,256.92L271.6,256.92L275.27,256.92L278.94,256.92L282.61,258.75L286.28,258.75L289.95,260.59L295.46,260.59L300.96,260.59L306.47,258.75L313.81,258.75L319.31,256.92L326.65,255.08L333.99,253.25" fill="none" stroke="#000000" style="-webkit-tap-highlight-color: rgba(0, 0, 0, 0); stroke-linecap: round; stroke-linejoin: round; stroke-width: 5;" /></svg>