<?xml version="1.0" encoding="utf-8" ?>
<svg baseProfile="full" height="719" version="1.1" width="1024" xmlns="http://www.w3.org/2000/svg" xmlns:ev="http://www.w3.org/2001/xml-events" xmlns:xlink="http://www.w3.org/1999/xlink"><defs /><path d="M7.24,114.88L5.43,113.07L5.43,111.27L5.43,109.46L9.05,107.65L12.66,105.84L16.28,104.03L21.71,102.22L27.14,100.41L30.76,100.41L34.37,100.41L37.99,102.22L41.61,105.84L45.23,107.65L48.85,111.27L52.47,113.07L56.08,113.07L59.7,114.88L63.32,116.69L65.13,118.5L68.75,122.12L72.37,123.93L75.99,125.74L79.6,127.55L81.41,127.55L85.03,129.36L86.84,131.17L90.46,134.78L92.27,136.59L94.08,138.4L95.89,140.21L97.7,142.02L99.51,142.02L101.31,143.83L103.12,143.83L104.93,143.83L104.93,145.64L106.74,145.64L108.55,145.64L110.36,147.45L112.17,147.45L113.98,147.45L115.79,149.26L117.6,149.26L121.22,149.26L123.02,149.26L124.83,149.26L126.64,149.26L128.45,149.26L130.26,149.26L132.07,149.26L133.88,149.26L135.69,151.07L137.5,154.69L139.31,156.49L141.12,158.3L142.93,158.3L144.73,158.3L146.54,158.3L148.35,156.49L153.78,154.69L157.4,152.88L162.83,151.07L166.45,149.26L171.87,147.45L175.49,145.64L179.11,145.64L180.92,145.64L184.54,145.64L186.35,145.64L189.96,145.64L193.58,143.83L195.39,143.83L199.01,143.83L200.82,142.02L204.44,142.02L206.25,142.02L208.06,142.02L209.87,142.02L211.67,142.02L215.29,142.02L217.1,142.02L220.72,142.02L224.34,142.02L227.96,142.02L231.58,142.02L237,142.02L242.43,142.02L246.05,142.02L251.48,142.02L258.71,142.02L262.33,140.21L267.76,140.21L271.38,140.21L276.81,140.21L280.42,140.21L284.04,142.02L287.66,142.02L291.28,142.02L294.9,142.02L300.33,142.02L303.94,142.02L307.56,142.02L311.18,142.02L314.8,142.02L318.42,143.83L322.04,143.83L325.65,143.83L329.27,143.83L331.08,143.83L334.7,143.83L338.32,143.83L341.94,143.83L345.55,143.83L349.17,143.83L354.6,143.83L360.03,145.64L365.46,145.64L370.88,145.64L376.31,145.64L381.74,145.64L387.17,145.64L392.59,143.83L396.21,143.83L399.83,143.83L403.45,142.02L407.07,142.02L412.49,142.02L416.11,142.02L419.73,142.02L423.35,142.02L426.97,142.02L432.4,142.02L436.01,142.02L441.44,142.02L445.06,142.02L450.49,142.02L455.92,142.02L459.53,140.21L464.96,140.21L468.58,140.21L474.01,138.4L479.43,138.4L483.05,136.59L486.67,136.59L492.1,136.59L493.91,136.59L497.53,136.59L499.34,136.59L502.95,134.78L504.76,134.78L508.38,134.78L512,134.78L513.81,134.78L517.43,134.78L521.05,134.78L522.86,132.98L524.66,132.98L526.47,132.98L528.28,131.17L530.09,129.36L531.9,127.55L533.71,125.74L535.52,122.12L537.33,120.31L539.14,118.5L540.95,116.69L542.76,116.69L544.57,114.88L546.37,114.88L548.18,114.88L549.99,114.88L551.8,113.07L553.61,113.07L555.42,113.07L557.23,113.07L559.04,113.07L560.85,113.07L562.66,113.07L564.47,113.07L568.08,113.07L569.89,113.07L571.7,113.07L573.51,113.07L575.32,113.07L577.13,114.88L580.75,114.88L582.56,116.69L584.37,116.69L587.99,116.69L589.8,118.5L591.6,118.5L595.22,118.5L597.03,118.5L600.65,118.5L602.46,118.5L606.08,118.5L609.7,118.5L613.31,118.5L618.74,116.69L622.36,114.88L625.98,114.88L629.6,113.07L633.22,111.27L636.83,109.46L640.45,107.65L644.07,105.84L645.88,105.84L649.5,104.03L651.31,102.22L653.12,100.41L654.93,98.6L656.73,98.6L658.54,96.79L660.35,96.79L662.16,96.79L663.97,96.79L665.78,96.79L667.59,98.6L669.4,100.41L671.21,104.03L673.02,105.84L674.83,109.46L674.83,113.07L676.64,116.69L676.64,120.31L674.83,122.12L673.02,122.12L674.83,122.12L676.64,120.31L680.25,116.69L683.87,114.88L685.68,113.07L689.3,111.27L692.92,109.46L696.54,109.46L698.35,109.46L701.96,109.46L705.58,109.46L709.2,111.27L712.82,111.27L716.44,113.07L720.06,114.88L723.67,116.69L725.48,118.5L729.1,120.31L730.91,120.31L730.91,122.12L727.29,122.12" fill="none" stroke="#000000" style="-webkit-tap-highlight-color: rgba(0, 0, 0, 0); stroke-linecap: round; stroke-linejoin: round; stroke-width: 5;" /><path d="M743.58,149.26L739.96,149.26L738.15,149.26L736.34,149.26L734.53,147.45L738.15,147.45L743.58,149.26L750.81,151.07L759.86,151.07L772.52,152.88L787,152.88L799.66,152.88L812.33,152.88L819.56,152.88L828.61,152.88L835.84,152.88L843.08,151.07L852.13,151.07L861.17,149.26L870.22,149.26L877.46,147.45L886.5,147.45L893.74,147.45L899.17,147.45L906.4,147.45L913.64,145.64L920.88,143.83L928.11,142.02L935.35,142.02L942.59,140.21L949.82,140.21L958.87,140.21L966.11,140.21L973.34,140.21L980.58,140.21L987.82,140.21L993.24,140.21L1002.29,143.83L1009.53,147.45L1014.95,149.26L1020.38,151.07L1022.19,151.07" fill="none" stroke="#000000" style="-webkit-tap-highlight-color: rgba(0, 0, 0, 0); stroke-linecap: round; stroke-linejoin: round; stroke-width: 5;" /><path d="M739.96,270.47L738.15,265.05L738.15,261.43L738.15,259.62L738.15,257.81L739.96,256L741.77,254.19L745.39,254.19L750.81,256L758.05,259.62L768.9,261.43L777.95,263.24L787,265.05L794.23,265.05L799.66,265.05L803.28,265.05L805.09,266.86L806.9,270.47L805.09,272.28L803.28,275.9L799.66,277.71L794.23,281.33L788.81,283.14L783.38,284.95L777.95,286.76L774.33,286.76L774.33,288.57L774.33,290.37L777.95,290.37L785.19,292.18L792.42,292.18L803.28,293.99L814.13,293.99L826.8,293.99L835.84,292.18L844.89,290.37L852.13,290.37L857.55,288.57L864.79,288.57L870.22,288.57L875.65,288.57L881.07,288.57L888.31,286.76L893.74,283.14L899.17,281.33L906.4,281.33L911.83,279.52L915.45,279.52L920.88,277.71L926.3,277.71L931.73,277.71L937.16,277.71L944.4,279.52L951.63,279.52L958.87,281.33L967.92,281.33L978.77,281.33L993.24,281.33L1000.48,281.33L1005.91,281.33L1007.72,281.33" fill="none" stroke="#000000" style="-webkit-tap-highlight-color: rgba(0, 0, 0, 0); stroke-linecap: round; stroke-linejoin: round; stroke-width: 5;" /><path d="M942.59,328.37L944.4,324.75L948.01,321.13L951.63,319.32L953.44,315.7L957.06,313.89L957.06,312.08L958.87,312.08L957.06,312.08L955.25,312.08L949.82,312.08L942.59,313.89L935.35,313.89L926.3,315.7L917.26,315.7L908.21,317.51L900.98,317.51L895.55,319.32L886.5,321.13L879.27,322.94L872.03,326.56L864.79,328.37L859.36,331.99L853.94,335.6L850.32,337.41L846.7,341.03L843.08,342.84L843.08,344.65L841.27,346.46L839.46,346.46L837.65,350.08L837.65,351.89L835.84,353.7L834.04,355.51L830.42,357.31L823.18,357.31L815.94,359.12L810.52,359.12L805.09,359.12L803.28,359.12L801.47,357.31L801.47,355.51" fill="none" stroke="#000000" style="-webkit-tap-highlight-color: rgba(0, 0, 0, 0); stroke-linecap: round; stroke-linejoin: round; stroke-width: 5;" /><path d="M531.9,120.31L531.9,118.5L533.71,118.5L533.71,122.12L533.71,123.93L533.71,129.36L535.52,134.78L535.52,142.02L535.52,149.26L535.52,156.49L535.52,165.54L535.52,172.78L535.52,178.2L535.52,185.44L535.52,190.87L535.52,196.3L535.52,203.53L535.52,208.96L535.52,216.2L535.52,221.63L533.71,228.86L531.9,234.29L531.9,241.53L531.9,246.95L531.9,254.19L531.9,263.24L531.9,272.28L531.9,279.52L531.9,288.57L531.9,295.8L531.9,303.04L531.9,310.28L533.71,319.32L533.71,326.56L535.52,331.99L535.52,339.22L537.33,342.84L539.14,348.27L539.14,353.7L539.14,359.12L539.14,364.55L539.14,371.79L539.14,379.02L539.14,388.07L539.14,395.31L539.14,402.54L539.14,407.97L539.14,415.21L540.95,420.64L542.76,431.49L544.57,436.92L544.57,442.35L544.57,445.96L544.57,449.58L544.57,453.2L546.37,455.01L546.37,456.82L546.37,458.63L548.18,460.44L548.18,462.25L548.18,460.44L548.18,458.63" fill="none" stroke="#000000" style="-webkit-tap-highlight-color: rgba(0, 0, 0, 0); stroke-linecap: round; stroke-linejoin: round; stroke-width: 5;" /><path d="M95.89,147.45L95.89,149.26L95.89,151.07L95.89,152.88L95.89,156.49L95.89,161.92L97.7,167.35L99.51,174.59L101.31,181.82L103.12,190.87L103.12,199.92L104.93,207.15L104.93,214.39L106.74,221.63L108.55,228.86L110.36,239.72L110.36,246.95L112.17,252.38L112.17,257.81L112.17,263.24L112.17,268.66L110.36,275.9L110.36,281.33L108.55,286.76L106.74,292.18L106.74,295.8L106.74,299.42L106.74,301.23L108.55,301.23L112.17,299.42" fill="none" stroke="#000000" style="-webkit-tap-highlight-color: rgba(0, 0, 0, 0); stroke-linecap: round; stroke-linejoin: round; stroke-width: 5;" /><path d="M106.74,315.7L106.74,317.51L106.74,319.32L110.36,321.13L113.98,324.75L119.41,328.37L126.64,331.99L133.88,335.6L142.93,339.22L150.16,344.65L157.4,348.27L162.83,351.89L168.25,355.51L173.68,360.93L177.3,362.74L180.92,366.36L186.35,373.6L188.16,377.22L189.96,382.64L191.77,386.26L195.39,389.88L197.2,393.5L200.82,397.12L202.63,398.93L206.25,402.54L209.87,406.16L213.48,409.78L218.91,411.59L222.53,413.4L226.15,417.02L227.96,420.64L229.77,426.06L229.77,431.49L231.58,438.73L233.39,444.16L237,451.39L238.81,456.82L242.43,462.25L246.05,467.67L247.86,473.1L251.48,480.34L253.29,485.77L255.1,494.81L255.1,503.86L255.1,511.1L253.29,518.33L253.29,520.14L253.29,518.33" fill="none" stroke="#000000" style="-webkit-tap-highlight-color: rgba(0, 0, 0, 0); stroke-linecap: round; stroke-linejoin: round; stroke-width: 5;" /><path d="M66.94,606.98L65.13,608.79L63.32,608.79L59.7,608.79L59.7,605.17L59.7,601.55L59.7,597.94L61.51,596.13L61.51,594.32L63.32,594.32L63.32,596.13L61.51,599.75L57.89,601.55L54.28,605.17L50.66,606.98L47.04,606.98L45.23,608.79L41.61,608.79L37.99,608.79L36.18,606.98L34.37,606.98L34.37,605.17L36.18,605.17L41.61,605.17L47.04,605.17L54.28,605.17L63.32,603.36L68.75,601.55L74.18,599.75L81.41,597.94L85.03,597.94L90.46,596.13L95.89,596.13L101.31,596.13L106.74,594.32L110.36,592.51L115.79,590.7L119.41,587.08L124.83,585.27L130.26,583.46L133.88,581.65L139.31,579.84L144.73,579.84L150.16,578.04L153.78,576.23L155.59,574.42L161.02,574.42L164.64,572.61L168.25,570.8L170.06,570.8L175.49,568.99L182.73,565.37L188.16,563.56L195.39,561.75L199.01,559.94L202.63,559.94L206.25,559.94L209.87,558.13L211.67,558.13L213.48,558.13L215.29,558.13L218.91,558.13L220.72,558.13L224.34,556.33L229.77,554.52L235.19,552.71L240.62,550.9L246.05,549.09L253.29,547.28L260.52,547.28L269.57,545.47L278.61,543.66L287.66,543.66L296.71,541.85L305.75,540.04L314.8,538.23L323.84,534.61L332.89,531L341.94,529.19L349.17,527.38L356.41,525.57L363.65,523.76L370.88,521.95L378.12,521.95L385.36,520.14L394.4,518.33L401.64,516.52L408.88,514.71L417.92,512.9L426.97,509.29L436.01,507.48L445.06,505.67L454.11,503.86L463.15,503.86L470.39,502.05L479.43,502.05L486.67,500.24L492.1,500.24L499.34,498.43L504.76,498.43L510.19,498.43L517.43,496.62L522.86,494.81L528.28,493L533.71,491.19L539.14,491.19L544.57,489.39L549.99,487.58L557.23,485.77L562.66,483.96L569.89,482.15L575.32,480.34L580.75,478.53L586.18,478.53L589.8,476.72L595.22,474.91L602.46,474.91L609.7,471.29L616.93,469.48L624.17,467.67L633.22,465.87L640.45,464.06L647.69,462.25L654.93,460.44L662.16,458.63L669.4,456.82L676.64,455.01L683.87,453.2L691.11,451.39L696.54,449.58L701.96,449.58L707.39,447.77L712.82,445.96L718.25,444.16L723.67,442.35L727.29,442.35L730.91,440.54L736.34,438.73L739.96,438.73L743.58,436.92L745.39,435.11L749,433.3L750.81,433.3L754.43,431.49L756.24,429.68L759.86,429.68L761.67,427.87L763.48,426.06L763.48,424.25" fill="none" stroke="#000000" style="-webkit-tap-highlight-color: rgba(0, 0, 0, 0); stroke-linecap: round; stroke-linejoin: round; stroke-width: 5;" /><path d="M3.62,597.94L3.62,596.13L7.24,594.32L12.66,590.7L21.71,587.08L34.37,585.27L47.04,583.46L59.7,579.84L74.18,574.42L88.65,568.99L99.51,565.37L112.17,563.56L123.02,559.94L130.26,558.13L137.5,554.52L146.54,549.09L157.4,545.47L168.25,541.85L177.3,540.04L184.54,536.42L191.77,534.61L199.01,532.81L206.25,529.19L213.48,527.38L222.53,525.57L231.58,523.76L238.81,521.95L246.05,520.14L251.48,518.33L255.1,518.33L258.71,516.52L260.52,516.52L264.14,514.71L269.57,514.71L273.19,512.9L278.61,511.1L282.23,509.29L285.85,507.48L291.28,507.48L294.9,505.67L300.33,503.86L305.75,503.86L309.37,502.05L314.8,502.05L320.23,500.24L325.65,500.24L329.27,498.43L340.13,498.43L347.36,496.62L352.79,496.62L358.22,496.62L365.46,494.81L370.88,494.81L374.5,493L379.93,493L385.36,491.19L388.98,491.19L394.4,489.39L399.83,489.39L405.26,489.39L412.49,489.39L417.92,487.58L423.35,487.58L428.78,487.58L432.4,487.58L436.01,485.77L441.44,485.77L445.06,483.96L450.49,482.15L454.11,482.15L457.72,480.34L461.34,480.34L464.96,478.53L468.58,476.72L470.39,476.72L474.01,474.91L479.43,473.1L483.05,471.29L486.67,469.48L492.1,469.48L497.53,467.67L502.95,465.87L506.57,465.87L512,464.06L517.43,462.25L522.86,462.25L528.28,460.44L533.71,458.63L540.95,458.63L544.57,456.82L549.99,455.01L555.42,455.01L559.04,453.2L564.47,451.39L568.08,451.39L571.7,451.39L575.32,449.58L580.75,449.58L586.18,447.77L591.6,447.77L598.84,445.96L604.27,444.16L611.51,444.16L616.93,442.35L625.98,440.54L633.22,438.73L642.26,436.92L651.31,435.11L662.16,433.3L671.21,429.68L682.06,427.87L692.92,424.25L703.77,420.64L714.63,418.83L723.67,417.02L730.91,415.21L736.34,413.4L743.58,411.59L749,409.78L756.24,407.97L761.67,404.35L765.29,402.54L767.1,400.73L768.9,398.93L768.9,397.12L768.9,395.31L768.9,393.5" fill="none" stroke="#000000" style="-webkit-tap-highlight-color: rgba(0, 0, 0, 0); stroke-linecap: round; stroke-linejoin: round; stroke-width: 5;" /><path d="M539.14,116.69L540.95,116.69L542.76,116.69L544.57,114.88L548.18,114.88L551.8,116.69L557.23,118.5L559.04,122.12L560.85,125.74L560.85,129.36L559.04,134.78L557.23,140.21L555.42,145.64L553.61,149.26L553.61,152.88L555.42,154.69L557.23,156.49L559.04,160.11L562.66,161.92L564.47,163.73L568.08,167.35L571.7,170.97L573.51,174.59L575.32,176.4L577.13,180.01L580.75,181.82L582.56,183.63L586.18,185.44L589.8,187.25L593.41,189.06L597.03,189.06L598.84,189.06L602.46,189.06L606.08,189.06L609.7,189.06L613.31,189.06L616.93,189.06L620.55,187.25L622.36,187.25L624.17,187.25L625.98,185.44L627.79,183.63L629.6,181.82L631.41,180.01L633.22,176.4L635.02,172.78L635.02,169.16L636.83,165.54L636.83,161.92L636.83,158.3L636.83,152.88L638.64,151.07L638.64,147.45L638.64,142.02L638.64,138.4L638.64,134.78L640.45,131.17L640.45,127.55L642.26,123.93L644.07,118.5L645.88,114.88L647.69,109.46L647.69,105.84L647.69,102.22L647.69,100.41L649.5,100.41L651.31,100.41L653.12,100.41L656.73,100.41L658.54,102.22L662.16,104.03L663.97,104.03L665.78,105.84L667.59,105.84L669.4,107.65L671.21,109.46L673.02,111.27L674.83,113.07L676.64,116.69L678.45,120.31L678.45,123.93L680.25,127.55L680.25,131.17L680.25,136.59L682.06,140.21L682.06,143.83L682.06,147.45L682.06,152.88L682.06,156.49L680.25,160.11L680.25,163.73L678.45,165.54L678.45,167.35L678.45,169.16L680.25,169.16L682.06,169.16L683.87,169.16" fill="none" stroke="#000000" style="-webkit-tap-highlight-color: rgba(0, 0, 0, 0); stroke-linecap: round; stroke-linejoin: round; stroke-width: 5;" /><path d="M725.48,122.12L725.48,120.31L725.48,118.5L725.48,116.69L727.29,116.69L727.29,118.5L727.29,120.31L727.29,122.12L727.29,123.93L727.29,127.55L729.1,131.17L729.1,134.78L729.1,138.4L730.91,142.02L730.91,145.64L732.72,149.26L732.72,151.07L732.72,152.88L732.72,154.69L730.91,158.3L730.91,160.11L730.91,161.92L729.1,165.54L729.1,169.16L727.29,170.97L727.29,174.59L727.29,178.2L727.29,180.01L727.29,181.82L725.48,185.44L725.48,189.06L725.48,192.68L723.67,198.11L723.67,201.72L723.67,207.15L723.67,212.58L721.87,218.01L721.87,221.63L720.06,225.24L720.06,228.86L720.06,232.48L718.25,236.1L718.25,239.72L716.44,245.14L716.44,250.57L714.63,256L714.63,261.43L712.82,265.05L712.82,268.66L712.82,270.47L712.82,274.09L712.82,277.71L712.82,281.33L712.82,284.95L714.63,286.76L716.44,290.37L716.44,293.99L718.25,295.8L720.06,299.42L721.87,301.23L723.67,304.85L725.48,306.66L727.29,310.28L727.29,313.89L729.1,317.51L729.1,321.13L729.1,326.56L729.1,330.18L729.1,335.6L729.1,339.22L729.1,342.84L729.1,346.46L727.29,350.08L727.29,353.7L725.48,357.31L725.48,360.93L725.48,364.55L723.67,368.17L721.87,369.98L721.87,375.41L721.87,377.22L720.06,380.83L720.06,382.64L720.06,386.26L721.87,388.07L721.87,389.88L721.87,391.69L721.87,395.31L723.67,397.12L723.67,400.73L723.67,402.54L723.67,404.35L725.48,407.97L725.48,411.59L725.48,413.4L727.29,417.02L727.29,418.83L729.1,420.64L729.1,422.45L729.1,420.64" fill="none" stroke="#000000" style="-webkit-tap-highlight-color: rgba(0, 0, 0, 0); stroke-linecap: round; stroke-linejoin: round; stroke-width: 5;" /><path d="M741.77,326.56L739.96,326.56L738.15,324.75L736.34,324.75L734.53,324.75L734.53,326.56L736.34,328.37L739.96,331.99L745.39,335.6L752.62,337.41L759.86,341.03L767.1,342.84L772.52,346.46L776.14,348.27L779.76,348.27L781.57,348.27L783.38,350.08L783.38,351.89L785.19,353.7L785.19,355.51L785.19,359.12L781.57,360.93L777.95,362.74L772.52,364.55L767.1,366.36L759.86,366.36L752.62,368.17L743.58,369.98L739.96,369.98L736.34,369.98L738.15,369.98L743.58,368.17L745.39,368.17" fill="none" stroke="#000000" style="-webkit-tap-highlight-color: rgba(0, 0, 0, 0); stroke-linecap: round; stroke-linejoin: round; stroke-width: 5;" /><path d="M785.19,348.27L787,348.27L788.81,348.27L790.61,350.08L790.61,353.7L790.61,364.55L788.81,379.02L787,393.5L785.19,404.35L783.38,409.78L781.57,409.78L781.57,406.16L781.57,402.54" fill="none" stroke="#000000" style="-webkit-tap-highlight-color: rgba(0, 0, 0, 0); stroke-linecap: round; stroke-linejoin: round; stroke-width: 5;" /><path d="M256.9,353.7L258.71,351.89L262.33,351.89L265.95,350.08L269.57,348.27L275,346.46L282.23,346.46L287.66,344.65L294.9,344.65L300.33,344.65L305.75,344.65L314.8,344.65L322.04,344.65L329.27,344.65L338.32,344.65L345.55,342.84L352.79,342.84L358.22,342.84L365.46,341.03L372.69,341.03L379.93,341.03L385.36,341.03L392.59,341.03L398.02,341.03L405.26,339.22L410.69,339.22L419.73,337.41L426.97,335.6L434.2,335.6L441.44,333.8L446.87,331.99L454.11,331.99L461.34,331.99L466.77,331.99L474.01,331.99L477.63,331.99L481.24,330.18L483.05,330.18L477.63,330.18L466.77,333.8" fill="none" stroke="#000000" style="-webkit-tap-highlight-color: rgba(0, 0, 0, 0); stroke-linecap: round; stroke-linejoin: round; stroke-width: 5;" /><path d="M249.67,359.12L249.67,357.31L253.29,357.31L256.9,359.12L262.33,362.74L267.76,366.36L271.38,371.79L273.19,377.22L273.19,384.45L273.19,391.69L271.38,397.12L269.57,404.35L267.76,409.78L265.95,415.21L264.14,422.45L260.52,427.87L258.71,435.11L255.1,440.54L253.29,445.96L249.67,451.39L246.05,456.82L242.43,464.06L240.62,469.48L240.62,474.91L240.62,480.34L242.43,483.96L246.05,485.77L247.86,485.77L249.67,483.96" fill="none" stroke="#000000" style="-webkit-tap-highlight-color: rgba(0, 0, 0, 0); stroke-linecap: round; stroke-linejoin: round; stroke-width: 5;" /><path d="M273.19,404.35L271.38,404.35L269.57,402.54L269.57,400.73L269.57,398.93L271.38,398.93L278.61,398.93L285.85,398.93L296.71,398.93L309.37,398.93L323.84,397.12L338.32,395.31L350.98,393.5L363.65,391.69L376.31,391.69L390.78,391.69L401.64,389.88L412.49,389.88L421.54,389.88L428.78,389.88L436.01,388.07L443.25,388.07L452.3,386.26L461.34,386.26L466.77,386.26L470.39,386.26L472.2,386.26L475.82,384.45L477.63,382.64L479.43,380.83L483.05,379.02L484.86,377.22L486.67,377.22L484.86,377.22" fill="none" stroke="#000000" style="-webkit-tap-highlight-color: rgba(0, 0, 0, 0); stroke-linecap: round; stroke-linejoin: round; stroke-width: 5;" /><path d="M253.29,156.49L253.29,152.88L253.29,151.07L255.1,151.07L255.1,147.45L253.29,147.45L251.48,151.07L251.48,156.49L249.67,165.54L247.86,174.59L247.86,181.82L247.86,189.06L247.86,196.3L247.86,201.72L249.67,207.15L249.67,212.58L251.48,216.2L251.48,221.63L253.29,225.24L253.29,230.67L253.29,234.29L253.29,239.72L253.29,243.34L253.29,246.95L253.29,250.57L253.29,254.19L253.29,257.81L253.29,261.43L253.29,265.05L253.29,270.47L251.48,275.9L251.48,279.52L251.48,284.95L253.29,288.57L253.29,292.18L255.1,293.99L256.9,295.8L256.9,297.61L258.71,299.42" fill="none" stroke="#000000" style="-webkit-tap-highlight-color: rgba(0, 0, 0, 0); stroke-linecap: round; stroke-linejoin: round; stroke-width: 5;" /><path d="M244.24,478.53L242.43,478.53L242.43,476.72L244.24,474.91L247.86,473.1L255.1,473.1L262.33,471.29L269.57,471.29L278.61,469.48L287.66,467.67L294.9,465.87L302.13,465.87L307.56,465.87L312.99,465.87L318.42,465.87L322.04,464.06L327.46,462.25L332.89,460.44L336.51,458.63L338.32,456.82L340.13,456.82L341.94,456.82L343.75,455.01L345.55,455.01L347.36,455.01L349.17,455.01L350.98,455.01L352.79,455.01L354.6,455.01L358.22,453.2L360.03,451.39L363.65,451.39L367.27,449.58L372.69,447.77L378.12,447.77L381.74,447.77L387.17,447.77L390.78,445.96L398.02,444.16L401.64,444.16L405.26,444.16L408.88,442.35L412.49,442.35L416.11,442.35L417.92,440.54L419.73,440.54L423.35,440.54L426.97,438.73L430.59,438.73L434.2,438.73L439.63,438.73L443.25,438.73L445.06,438.73L448.68,438.73L452.3,438.73L454.11,440.54L457.72,440.54L461.34,440.54L464.96,442.35L468.58,442.35L472.2,444.16L475.82,445.96L477.63,449.58L481.24,451.39L484.86,453.2L488.48,455.01L490.29,455.01L493.91,455.01L497.53,455.01L499.34,455.01L502.95,455.01L504.76,455.01L508.38,453.2L510.19,453.2L512,451.39L513.81,451.39L515.62,451.39L515.62,449.58L517.43,449.58L515.62,449.58" fill="none" stroke="#000000" style="-webkit-tap-highlight-color: rgba(0, 0, 0, 0); stroke-linecap: round; stroke-linejoin: round; stroke-width: 5;" /><path d="M3.62,554.52L7.24,552.71L9.05,550.9L12.66,549.09L14.47,545.47L18.09,543.66L21.71,540.04L28.95,538.23L37.99,534.61L47.04,531L57.89,527.38L65.13,523.76L72.37,520.14L77.8,516.52L85.03,512.9L90.46,511.1L97.7,507.48L104.93,502.05L112.17,498.43L115.79,496.62L121.22,494.81L123.02,493L126.64,491.19L128.45,491.19L130.26,489.39L132.07,487.58L133.88,485.77L135.69,483.96L135.69,482.15L137.5,478.53L137.5,476.72L139.31,473.1L139.31,471.29L139.31,469.48L139.31,467.67L139.31,465.87L141.12,464.06L141.12,462.25L142.93,460.44L142.93,458.63L144.73,455.01L144.73,453.2L144.73,451.39L146.54,449.58L146.54,447.77L144.73,447.77L144.73,449.58" fill="none" stroke="#000000" style="-webkit-tap-highlight-color: rgba(0, 0, 0, 0); stroke-linecap: round; stroke-linejoin: round; stroke-width: 5;" /><path d="M184.54,489.39L182.73,493L180.92,494.81L179.11,498.43L179.11,503.86L177.3,507.48L175.49,512.9L175.49,514.71L175.49,518.33L175.49,520.14L175.49,521.95L175.49,523.76L175.49,525.57L175.49,529.19L175.49,534.61L175.49,536.42L175.49,540.04L173.68,541.85L175.49,541.85L177.3,541.85" fill="none" stroke="#000000" style="-webkit-tap-highlight-color: rgba(0, 0, 0, 0); stroke-linecap: round; stroke-linejoin: round; stroke-width: 5;" /><path d="M188.16,480.34L186.35,480.34L186.35,482.15L186.35,485.77L188.16,489.39L188.16,493L189.96,498.43L191.77,502.05L195.39,505.67L197.2,509.29L199.01,512.9L200.82,514.71L200.82,516.52L202.63,518.33L204.44,521.95L204.44,523.76L206.25,525.57L208.06,525.57L208.06,527.38L209.87,529.19L211.67,529.19L213.48,529.19L215.29,529.19" fill="none" stroke="#000000" style="-webkit-tap-highlight-color: rgba(0, 0, 0, 0); stroke-linecap: round; stroke-linejoin: round; stroke-width: 5;" /><path d="M747.19,462.25L747.19,460.44L749,458.63L749,456.82L750.81,455.01L754.43,453.2L756.24,451.39L761.67,449.58L765.29,449.58L768.9,449.58L772.52,447.77L776.14,447.77L779.76,447.77L781.57,447.77L785.19,447.77L790.61,447.77L794.23,447.77L797.85,447.77L801.47,447.77L805.09,447.77L808.71,445.96L812.33,444.16L814.13,442.35L819.56,442.35L823.18,440.54L826.8,440.54L830.42,438.73L834.04,436.92L837.65,436.92L843.08,435.11L846.7,435.11L852.13,433.3L857.55,433.3L861.17,433.3L864.79,433.3L868.41,431.49L872.03,431.49L877.46,429.68L881.07,427.87L884.69,426.06L888.31,424.25L891.93,422.45L893.74,420.64L897.36,418.83L900.98,418.83L904.59,417.02L910.02,417.02L913.64,415.21L915.45,415.21L917.26,415.21L920.88,413.4L922.69,411.59L926.3,409.78L928.11,407.97L929.92,406.16L933.54,402.54L935.35,400.73L937.16,398.93L938.97,397.12L940.78,395.31L942.59,393.5L944.4,389.88L944.4,386.26L944.4,382.64L944.4,379.02L942.59,375.41L940.78,371.79L940.78,368.17L940.78,366.36L940.78,364.55L942.59,362.74L944.4,359.12L948.01,357.31L949.82,355.51L953.44,353.7L955.25,351.89L957.06,350.08L958.87,348.27L960.68,348.27L962.49,346.46L964.3,346.46L966.11,344.65L967.92,344.65L969.72,342.84L971.53,342.84L971.53,341.03L973.34,341.03L975.15,341.03L976.96,339.22L978.77,339.22L980.58,337.41L982.39,337.41L984.2,337.41L986.01,335.6L987.82,333.8L989.63,333.8L991.43,333.8L993.24,333.8L995.05,331.99L996.86,331.99L998.67,331.99L1000.48,330.18L1002.29,330.18" fill="none" stroke="#000000" style="-webkit-tap-highlight-color: rgba(0, 0, 0, 0); stroke-linecap: round; stroke-linejoin: round; stroke-width: 5;" /><path d="M736.34,236.1L738.15,236.1L739.96,236.1L741.77,236.1L743.58,236.1L750.81,237.91L758.05,237.91L765.29,239.72L772.52,239.72L777.95,241.53L783.38,241.53L788.81,243.34L794.23,245.14L799.66,246.95L806.9,246.95L812.33,248.76L817.75,248.76L821.37,250.57L824.99,252.38L828.61,252.38L834.04,254.19L837.65,256L843.08,256L846.7,257.81L850.32,257.81L853.94,259.62L857.55,259.62L861.17,259.62L866.6,259.62L872.03,259.62L879.27,259.62L884.69,259.62L890.12,257.81L895.55,257.81L900.98,257.81L906.4,257.81L910.02,257.81L915.45,257.81L919.07,257.81L922.69,259.62L926.3,259.62L929.92,261.43L933.54,261.43L935.35,261.43L938.97,261.43L940.78,261.43L942.59,261.43L946.2,261.43L948.01,261.43L951.63,261.43L953.44,261.43L955.25,261.43L957.06,261.43L958.87,261.43L962.49,261.43L964.3,261.43L966.11,259.62L967.92,259.62L969.72,259.62L971.53,259.62L973.34,259.62L975.15,259.62L975.15,257.81L976.96,257.81" fill="none" stroke="#000000" style="-webkit-tap-highlight-color: rgba(0, 0, 0, 0); stroke-linecap: round; stroke-linejoin: round; stroke-width: 5;" /><path d="M549.99,397.12L554,396L555,396L556,396L559,392L561,392L562,391L563,390L566,386L576,388L576,388L580,390L586,391L592,389L595,389L599,392L600,392L610,391L605,392L611,392L614,390L617,391L617,391L622,392L625,388L625,388L628,388L630,388L633,388L637,388L635,388L640,389L640,389L644,390L641,390L644,390L645,392" fill="none" stroke="#000000" style="-webkit-tap-highlight-color: rgba(0, 0, 0, 0); stroke-linecap: round; stroke-linejoin: round; stroke-width: 5;" /><path d="M657,389L660,389L654,388L654,388L665,390L677,388L673,390L669,390L679,388L682,387L686,388L686,388L691,388L689,388L684,389" fill="none" stroke="#000000" style="-webkit-tap-highlight-color: rgba(0, 0, 0, 0); stroke-linecap: round; stroke-linejoin: round; stroke-width: 5;" /><path d="M548.18,417.02" fill="none" stroke="#000000" style="-webkit-tap-highlight-color: rgba(0, 0, 0, 0); stroke-linecap: round; stroke-linejoin: round; stroke-width: 5;" /><path d="M686,390" fill="none" stroke="#000000" style="-webkit-tap-highlight-color: rgba(0, 0, 0, 0); stroke-linecap: round; stroke-linejoin: round; stroke-width: 5;" /><path d="M554,412L550,415L563,408L557,412L567,408L577,408L583,408L590,408L597,408L603,407L617,408L612,408L622,409L625,409L629,408L632,408L638,408L641,406L645,406L649,404L656,404L651,404L660,404L657,404L662,402L663,402" fill="none" stroke="#000000" style="-webkit-tap-highlight-color: rgba(0, 0, 0, 0); stroke-linecap: round; stroke-linejoin: round; stroke-width: 5;" /><path d="M666,402L669,403L671,402L673,402L675,403L678,402L680,403L680,403L684,401" fill="none" stroke="#000000" style="-webkit-tap-highlight-color: rgba(0, 0, 0, 0); stroke-linecap: round; stroke-linejoin: round; stroke-width: 5;" /><path d="M12.66,369.98L9,366L9,365L9,365L9,366L14,372L18,373L22,373L30,375L37,373L47,368L63,366L64,353L68,353L69,352L81,350L79,352" fill="none" stroke="#000000" style="-webkit-tap-highlight-color: rgba(0, 0, 0, 0); stroke-linecap: round; stroke-linejoin: round; stroke-width: 5;" /><path d="M85,348L88,347L87,346L93,348L93,348" fill="none" stroke="#000000" style="-webkit-tap-highlight-color: rgba(0, 0, 0, 0); stroke-linecap: round; stroke-linejoin: round; stroke-width: 5;" /><path d="M19.9,402.54L27,403L25,403L36,402L45,399L53,397L53,397L64,393L76,384" fill="none" stroke="#000000" style="-webkit-tap-highlight-color: rgba(0, 0, 0, 0); stroke-linecap: round; stroke-linejoin: round; stroke-width: 5;" /><path d="M89,384L108,379L109,379L116,382L117,368L117,368L118,367L118,367" fill="none" stroke="#000000" style="-webkit-tap-highlight-color: rgba(0, 0, 0, 0); stroke-linecap: round; stroke-linejoin: round; stroke-width: 5;" /><path d="M19.9,328.37L16,327L14,326L13,325L15,324L17,323L24,321L31,319L37,316L53,311L67,309L60,311L72,309L78,308" fill="none" stroke="#000000" style="-webkit-tap-highlight-color: rgba(0, 0, 0, 0); stroke-linecap: round; stroke-linejoin: round; stroke-width: 5;" /><path d="M81,308L80,308L83,308L85,307L85,306L85,307L85,306" fill="none" stroke="#000000" style="-webkit-tap-highlight-color: rgba(0, 0, 0, 0); stroke-linecap: round; stroke-linejoin: round; stroke-width: 5;" /><path d="M164.64,337.41L166,342L166,341L168,345L170,344L174,346L177,346L195,346L186,346L201,346L205,346L211,346L216,347L220,346L220,346L221,344" fill="none" stroke="#000000" style="-webkit-tap-highlight-color: rgba(0, 0, 0, 0); stroke-linecap: round; stroke-linejoin: round; stroke-width: 5;" /></svg>