<?xml version="1.0" encoding="utf-8" ?>
<svg baseProfile="full" height="1320" version="1.1" width="1024" xmlns="http://www.w3.org/2000/svg" xmlns:ev="http://www.w3.org/2001/xml-events" xmlns:xlink="http://www.w3.org/1999/xlink"><defs /><path d="M346.46,4.73L346.46,2.36L344.09,2.36L344.09,7.09L344.09,9.46L344.09,11.82L341.73,16.55L337,21.28L334.63,28.38L329.9,33.11L327.54,40.2L325.17,44.93L322.81,47.3L320.44,52.03L315.71,59.12L313.35,63.85L313.35,66.22L310.98,68.58L308.62,73.31L308.62,75.68L306.25,80.41L303.89,82.77L303.89,87.5L301.52,92.23L301.52,96.96L301.52,101.69L299.16,106.42L299.16,108.79L299.16,113.52L299.16,118.24L299.16,122.97L299.16,130.07L299.16,134.8L299.16,139.53L296.79,146.62L296.79,153.72L296.79,158.45L296.79,165.54L296.79,172.64L296.79,179.73L296.79,186.83L296.79,193.92L296.79,208.11L296.79,215.21L296.79,222.3L296.79,227.03L296.79,234.12L299.16,241.22L299.16,245.95L299.16,253.04L299.16,257.77L299.16,262.5L301.52,267.23L301.52,269.6L301.52,271.96L303.89,274.33L303.89,276.69L306.25,279.06L308.62,279.06L310.98,281.42L315.71,281.42L318.08,281.42L320.44,281.42L322.81,281.42L325.17,281.42L329.9,281.42L332.27,281.42L334.63,281.42L339.36,281.42L341.73,281.42L344.09,281.42L344.09,283.79L346.46,283.79L348.82,283.79L351.19,283.79L353.55,283.79L355.92,283.79L355.92,286.15L355.92,290.88L355.92,293.25L355.92,295.61L355.92,300.34L355.92,302.71L355.92,309.8L355.92,314.53L355.92,319.26L355.92,323.99L355.92,328.72L355.92,335.82L355.92,340.55L355.92,345.27L355.92,352.37L355.92,359.46L355.92,364.19L355.92,378.38L355.92,385.48L355.92,392.57L355.92,402.03L353.55,409.13L353.55,416.22L353.55,423.32L353.55,432.78L353.55,442.24L353.55,449.33L353.55,456.42L353.55,463.52L353.55,472.98L353.55,480.07L353.55,487.17L353.55,491.9L353.55,498.99L353.55,503.72L353.55,508.45L353.55,515.55L353.55,522.64L353.55,529.74L353.55,536.83L353.55,541.56L353.55,548.66L353.55,553.39L355.92,560.48L355.92,569.94L355.92,577.03L355.92,581.76L355.92,588.86L355.92,593.59L355.92,600.68L355.92,607.78L355.92,614.87L355.92,619.6L355.92,624.33L355.92,629.06L355.92,636.16L355.92,640.89L355.92,645.62L355.92,650.35L355.92,655.08L355.92,659.81L355.92,669.27L358.28,676.36L358.28,683.45L358.28,692.91L358.28,704.74L360.65,718.93L363.01,728.39L365.38,730.75" fill="none" stroke="#000000" style="-webkit-tap-highlight-color: rgba(0, 0, 0, 0); stroke-linecap: round; stroke-linejoin: round; stroke-width: 6;" /><path d="M8.28,262.5L8.28,260.14L5.91,260.14L8.28,260.14L10.64,260.14L13.01,260.14L17.74,260.14L24.83,260.14L29.56,260.14L34.29,260.14L39.02,262.5L43.75,264.87L50.85,264.87L57.94,264.87L62.67,264.87L69.76,264.87L74.49,267.23L79.22,267.23L83.95,269.6L88.68,269.6L93.41,269.6L98.14,269.6L102.87,269.6L107.6,269.6L112.33,269.6L114.7,269.6L119.43,269.6L124.16,269.6L131.25,269.6L135.98,271.96L140.71,271.96L145.44,271.96L150.17,271.96L152.54,271.96L157.27,271.96L162,271.96L166.73,271.96L171.45,274.33L176.18,274.33L180.91,274.33L183.28,274.33L188.01,276.69L192.74,276.69L195.1,276.69L199.83,276.69L204.56,276.69L209.29,279.06L211.66,279.06L216.39,279.06L221.12,279.06L223.48,279.06L228.21,279.06L230.58,279.06L235.31,281.42L240.04,281.42L242.4,281.42L244.77,281.42L249.5,281.42L251.86,281.42L256.59,281.42L258.96,283.79L261.32,283.79L263.69,283.79L266.05,283.79L268.42,283.79L270.78,283.79L273.15,283.79L275.51,283.79L277.88,283.79L280.24,283.79L282.61,283.79L284.97,283.79L287.33,283.79L289.7,283.79L292.06,283.79L294.43,286.15L296.79,286.15L299.16,286.15L301.52,286.15L303.89,286.15L303.89,288.52L306.25,288.52L308.62,288.52L310.98,288.52L313.35,288.52L315.71,288.52L318.08,288.52L320.44,288.52L322.81,288.52L325.17,288.52L327.54,288.52L329.9,288.52L332.27,288.52L334.63,288.52L337,288.52L339.36,288.52L341.73,290.88L344.09,290.88L346.46,290.88L348.82,290.88L351.19,290.88L353.55,290.88L355.92,288.52L358.28,288.52" fill="none" stroke="#000000" style="-webkit-tap-highlight-color: rgba(0, 0, 0, 0); stroke-linecap: round; stroke-linejoin: round; stroke-width: 6;" /><path d="M72.13,543.93L72.13,546.29L74.49,546.29L74.49,551.02L74.49,553.39L74.49,558.12L74.49,565.21L76.86,579.4L76.86,584.13L76.86,588.86L76.86,593.59L76.86,598.32L76.86,603.05L76.86,607.78L76.86,612.51L76.86,617.24L76.86,621.97L76.86,626.7L76.86,633.79L79.22,638.52L79.22,643.25L79.22,647.98L79.22,655.08L79.22,659.81L81.59,666.9L81.59,674L81.59,681.09L81.59,688.18L81.59,695.28L81.59,702.37L81.59,711.83L83.95,718.93L83.95,728.39L83.95,737.85L86.32,744.94L86.32,754.4L86.32,761.5L88.68,768.59L88.68,773.32L91.05,780.42L91.05,785.15L91.05,789.88L93.41,794.61L93.41,801.7L93.41,811.16L95.78,818.25L98.14,822.98L98.14,832.44L100.51,839.54L102.87,849L105.24,858.46L105.24,865.55L105.24,875.01L105.24,884.47L105.24,889.2" fill="none" stroke="#000000" style="-webkit-tap-highlight-color: rgba(0, 0, 0, 0); stroke-linecap: round; stroke-linejoin: round; stroke-width: 6;" /><path d="M76.86,546.29L74.49,546.29L72.13,546.29L74.49,546.29L76.86,546.29L79.22,548.66L81.59,551.02L83.95,551.02L88.68,553.39L93.41,555.75L98.14,555.75L102.87,558.12L109.97,560.48L114.7,562.85L119.43,565.21L124.16,567.58L128.89,567.58L133.62,567.58L138.35,569.94L140.71,572.3L145.44,572.3L147.81,574.67L150.17,574.67L150.17,577.03L152.54,579.4L154.9,579.4L157.27,581.76L159.63,584.13L162,586.49L162,588.86L164.36,591.22L166.73,593.59L169.09,598.32L171.45,600.68L173.82,605.41L176.18,610.14L178.55,614.87L183.28,619.6L185.64,624.33L188.01,626.7L190.37,631.43L192.74,636.16L197.47,640.89L199.83,645.62L202.2,647.98L204.56,652.71L206.93,657.44L211.66,662.17L214.02,669.27L218.75,674L221.12,681.09L225.85,685.82L228.21,692.91L232.94,697.64L235.31,702.37L240.04,709.47L242.4,714.2L247.13,716.56L249.5,721.29L251.86,723.66L254.23,726.02L256.59,730.75L258.96,733.12L261.32,737.85L263.69,740.21L266.05,740.21L266.05,742.58L266.05,744.94L266.05,747.31L268.42,749.67L268.42,752.04L270.78,754.4L270.78,756.77L273.15,756.77L273.15,759.13L273.15,761.5L275.51,763.86L275.51,766.23L277.88,768.59L277.88,770.96L280.24,770.96L280.24,773.32L280.24,775.69L282.61,778.05L282.61,780.42L284.97,780.42L284.97,782.78L287.33,785.15L287.33,787.51L289.7,789.88L289.7,792.24L292.06,794.61L292.06,796.97L294.43,799.33L294.43,801.7L296.79,801.7L299.16,804.06L301.52,806.43L303.89,808.79L306.25,811.16L308.62,813.52L310.98,813.52L313.35,815.89L315.71,818.25L318.08,820.62L320.44,825.35L322.81,827.71L325.17,830.08L329.9,832.44L332.27,832.44L334.63,837.17L339.36,841.9L341.73,844.27L344.09,846.63L348.82,849L351.19,851.36L353.55,851.36L355.92,853.73L360.65,856.09L363.01,856.09L365.38,858.46L367.74,860.82L372.47,863.19L374.84,863.19L379.57,865.55L381.93,867.92L384.3,867.92L389.03,870.28L393.76,872.65L396.12,875.01L400.85,877.38L403.21,879.74L407.94,882.11L412.67,884.47L415.04,886.84L419.77,889.2L422.13,893.93L426.86,896.3L429.23,896.3L433.96,898.66L436.32,898.66L441.05,898.66L443.42,901.03L445.78,903.39L450.51,903.39L452.88,905.76L457.61,908.12L459.97,910.48L464.7,910.48L467.07,912.85L471.8,912.85L476.53,915.21L478.89,917.58L483.62,917.58L488.35,919.94L490.72,919.94L495.45,922.31L497.81,924.67L500.18,927.04L502.54,929.4L504.91,929.4L507.27,931.77L509.64,934.13L512,934.13L512,936.5L514.36,936.5L516.73,938.86L519.09,941.23L521.46,943.59L523.82,943.59L526.19,945.96L530.92,948.32L533.28,953.05L538.01,957.78L545.11,960.15L549.84,960.15" fill="none" stroke="#000000" style="-webkit-tap-highlight-color: rgba(0, 0, 0, 0); stroke-linecap: round; stroke-linejoin: round; stroke-width: 6;" /><path d="M60.3,539.2L60.3,541.56L62.67,539.2L67.4,539.2L69.76,539.2L74.49,539.2L76.86,539.2L81.59,536.83L88.68,534.47L93.41,534.47L98.14,532.1L102.87,532.1L109.97,529.74L114.7,527.37L121.79,525.01L126.52,525.01L131.25,525.01L138.35,525.01L143.08,525.01L147.81,522.64L150.17,522.64L154.9,522.64L159.63,522.64L162,520.28L164.36,520.28L166.73,520.28L169.09,520.28L173.82,522.64L178.55,522.64L183.28,522.64L185.64,522.64L190.37,522.64L192.74,525.01L197.47,525.01L199.83,527.37L204.56,529.74L209.29,529.74L211.66,532.1L216.39,532.1L218.75,534.47L223.48,536.83L228.21,539.2L230.58,541.56L235.31,543.93L240.04,546.29L242.4,546.29L247.13,548.66L251.86,551.02L254.23,553.39L258.96,555.75L261.32,558.12L266.05,560.48L268.42,562.85L273.15,562.85L275.51,565.21L277.88,567.58L277.88,569.94L280.24,572.3L282.61,574.67L284.97,577.03L287.33,579.4L289.7,579.4L289.7,581.76L292.06,584.13L292.06,586.49L294.43,588.86L296.79,591.22L299.16,593.59L301.52,595.95L303.89,598.32L306.25,600.68L308.62,605.41L310.98,607.78L313.35,610.14L315.71,612.51L318.08,614.87L320.44,617.24L322.81,621.97L322.81,624.33L325.17,626.7L327.54,631.43L329.9,633.79L329.9,636.16L332.27,640.89L334.63,643.25L334.63,645.62L337,650.35L339.36,652.71L339.36,655.08L341.73,657.44L341.73,659.81L344.09,662.17L346.46,666.9L346.46,669.27L346.46,674L348.82,676.36L348.82,681.09L351.19,683.45L351.19,688.18L353.55,690.55L353.55,692.91L355.92,697.64L355.92,700.01L358.28,704.74L358.28,707.1L360.65,709.47L360.65,714.2L363.01,716.56L365.38,718.93L365.38,723.66L367.74,726.02L367.74,728.39L370.11,733.12L370.11,737.85L372.47,740.21L372.47,744.94L372.47,749.67L374.84,752.04L374.84,756.77L377.2,759.13L377.2,763.86L377.2,766.23L379.57,770.96L379.57,773.32L381.93,778.05L384.3,780.42L384.3,785.15L386.66,787.51L389.03,789.88L391.39,792.24L393.76,794.61L396.12,796.97L398.48,799.33L400.85,801.7L403.21,801.7L407.94,804.06L410.31,806.43L412.67,808.79L415.04,808.79L419.77,811.16L422.13,811.16L424.5,811.16L429.23,813.52L431.59,813.52L433.96,815.89L436.32,815.89L438.69,815.89L441.05,815.89L443.42,815.89L445.78,815.89L448.15,815.89L450.51,815.89L452.88,818.25L455.24,818.25L457.61,818.25L459.97,818.25L462.34,820.62L464.7,820.62L467.07,822.98L467.07,825.35L469.43,827.71L471.8,830.08L471.8,832.44L474.16,837.17L476.53,839.54L476.53,841.9L478.89,844.27L481.26,844.27L483.62,846.63L488.35,849L490.72,851.36L495.45,851.36L497.81,853.73L500.18,853.73L502.54,856.09L504.91,856.09L509.64,858.46L512,860.82L516.73,860.82L519.09,863.19L521.46,863.19L526.19,865.55L528.55,867.92L530.92,867.92L535.65,870.28L538.01,872.65L542.74,872.65L547.47,875.01L549.84,875.01L554.57,877.38L556.93,879.74L561.66,879.74L566.39,882.11L568.76,882.11L573.49,884.47L578.22,884.47L580.58,886.84L585.31,886.84L590.04,889.2L592.41,891.57L597.14,891.57L599.5,893.93L604.23,893.93L606.6,896.3L611.33,896.3L613.69,898.66L616.06,901.03L620.79,901.03L623.15,903.39L625.52,903.39L630.24,905.76L632.61,908.12L634.97,908.12L639.7,910.48L642.07,912.85L644.43,915.21L646.8,917.58L649.16,919.94L649.16,924.67L651.53,927.04L651.53,929.4L653.89,934.13L653.89,936.5L656.26,941.23L656.26,943.59L658.62,945.96L658.62,948.32L660.99,953.05L660.99,955.42L663.35,957.78L663.35,960.15L665.72,962.51L677.54,974.34L679.91,976.7L684.64,979.07L687,981.43L691.73,983.8L701.19,986.16L705.92,988.53L710.65,990.89L713.02,990.89L717.75,993.26L720.11,993.26L724.84,995.62L727.21,995.62L729.57,995.62L731.94,995.62L734.3,995.62L736.67,993.26L739.03,993.26L741.39,990.89L743.76,990.89L746.12,986.16L748.49,983.8L750.85,981.43L753.22,979.07L755.58,979.07L757.95,976.7L760.31,976.7L762.68,974.34L765.04,971.97L767.41,969.61L769.77,969.61L769.77,967.24L772.14,967.24L774.5,967.24L776.87,967.24L779.23,967.24L781.6,964.88L783.96,964.88L786.33,964.88L788.69,964.88L791.06,964.88L795.79,964.88L798.15,964.88L800.52,964.88L805.25,964.88L807.61,967.24L812.34,967.24L814.71,969.61L819.44,969.61L821.8,971.97L826.53,971.97L831.26,971.97L833.63,971.97L838.36,974.34L840.72,974.34L845.45,976.7L847.82,979.07L852.55,979.07L857.27,981.43L859.64,981.43L864.37,983.8L869.1,983.8L871.46,986.16L873.83,988.53L876.19,988.53L878.56,990.89L880.92,993.26L883.29,993.26L885.65,995.62L888.02,997.99L888.02,1002.72L890.38,1005.08L892.75,1009.81L892.75,1012.18L895.11,1016.91L895.11,1021.64L895.11,1026.36L895.11,1031.09L895.11,1038.19L897.48,1040.55L897.48,1045.28L897.48,1047.65L899.84,1050.01L899.84,1052.38L902.21,1057.11L902.21,1059.47L902.21,1061.84L904.57,1066.57L904.57,1071.3L906.94,1076.03L909.3,1080.76L911.67,1085.49L916.4,1087.85L918.76,1090.22L923.49,1092.58L930.59,1094.95L935.32,1094.95L940.05,1097.31L947.14,1097.31L951.87,1097.31L958.97,1097.31L963.7,1097.31L970.79,1097.31L975.52,1097.31L980.25,1099.68L984.98,1099.68L989.71,1102.04L994.44,1102.04L1001.53,1102.04L1006.26,1102.04L1010.99,1102.04" fill="none" stroke="#000000" style="-webkit-tap-highlight-color: rgba(0, 0, 0, 0); stroke-linecap: round; stroke-linejoin: round; stroke-width: 6;" /><path d="M109.97,879.74L102.87,879.74L109.97,886.84L114.7,891.57L119.43,893.93L124.16,898.66L131.25,903.39L135.98,905.76L140.71,910.48L145.44,915.21L150.17,919.94L154.9,924.67L159.63,927.04L164.36,929.4L166.73,934.13L171.45,936.5L176.18,941.23L180.91,943.59L185.64,948.32L190.37,950.69L192.74,955.42L197.47,957.78L202.2,962.51L206.93,964.88L211.66,967.24L216.39,971.97L218.75,974.34L223.48,976.7L228.21,981.43L232.94,986.16L235.31,988.53L240.04,993.26L242.4,995.62L247.13,997.99L249.5,1000.35L254.23,1002.72L256.59,1005.08L258.96,1007.45L261.32,1009.81L263.69,1012.18L266.05,1014.54L268.42,1014.54L270.78,1016.91L273.15,1019.27L275.51,1019.27L277.88,1021.64L280.24,1024L284.97,1024L287.33,1026.36L289.7,1028.73L294.43,1028.73L296.79,1031.09L303.89,1031.09L310.98,1031.09" fill="none" stroke="#000000" style="-webkit-tap-highlight-color: rgba(0, 0, 0, 0); stroke-linecap: round; stroke-linejoin: round; stroke-width: 6;" /><path d="M313.35,1035.82L310.98,1035.82L306.25,1038.19L301.52,1040.55L296.79,1045.28L292.06,1047.65L289.7,1050.01L284.97,1054.74L282.61,1054.74L277.88,1061.84L270.78,1066.57L266.05,1071.3L261.32,1076.03L258.96,1078.39L254.23,1083.12L249.5,1087.85L244.77,1092.58L242.4,1097.31L240.04,1099.68L235.31,1104.41L232.94,1109.14L230.58,1111.5L228.21,1113.87L225.85,1118.6L223.48,1120.96L221.12,1123.33L221.12,1125.69L221.12,1128.06L223.48,1130.42L225.85,1132.79L228.21,1135.15L230.58,1139.88L232.94,1144.61L235.31,1149.34L240.04,1154.07L247.13,1161.16L249.5,1163.53L251.86,1168.26L254.23,1170.62L256.59,1172.99L258.96,1175.35L261.32,1177.72L266.05,1180.08L268.42,1182.45L270.78,1184.81L273.15,1187.18L275.51,1191.91L277.88,1194.27L280.24,1196.64L282.61,1199L284.97,1199L289.7,1201.37L292.06,1203.73L294.43,1206.1L299.16,1208.46L301.52,1213.19L306.25,1215.56L308.62,1217.92L313.35,1220.29L315.71,1222.65L318.08,1227.38L322.81,1229.75L325.17,1234.48L329.9,1239.21L332.27,1241.57L337,1246.3L341.73,1248.67L346.46,1253.39L351.19,1255.76L358.28,1260.49L363.01,1262.85L367.74,1262.85L370.11,1265.22L374.84,1267.58L379.57,1267.58L381.93,1269.95L386.66,1269.95L389.03,1269.95L391.39,1272.31L393.76,1272.31L396.12,1272.31L398.48,1272.31L400.85,1272.31L405.58,1272.31L407.94,1274.68L410.31,1274.68L412.67,1274.68L415.04,1274.68L417.4,1272.31L419.77,1269.95L422.13,1265.22L424.5,1258.12L429.23,1251.03L431.59,1241.57L438.69,1229.75L441.05,1222.65L443.42,1215.56L445.78,1208.46L450.51,1201.37L452.88,1196.64L452.88,1191.91L455.24,1187.18L455.24,1184.81L455.24,1182.45L452.88,1180.08L452.88,1177.72L450.51,1175.35L450.51,1172.99L448.15,1170.62L448.15,1168.26L448.15,1165.89L445.78,1161.16L445.78,1158.8L443.42,1156.43L441.05,1154.07L438.69,1149.34L436.32,1144.61L433.96,1139.88L431.59,1135.15L426.86,1130.42L424.5,1125.69L422.13,1120.96L417.4,1116.23L415.04,1111.5L410.31,1106.77L407.94,1102.04L403.21,1099.68L398.48,1094.95L393.76,1090.22L389.03,1087.85L386.66,1085.49L384.3,1080.76L379.57,1078.39L374.84,1076.03L372.47,1073.66L367.74,1071.3L360.65,1068.93L355.92,1064.2L351.19,1061.84L348.82,1059.47L344.09,1057.11L341.73,1054.74L337,1052.38L334.63,1050.01L329.9,1047.65L327.54,1045.28L322.81,1042.92L318.08,1040.55L313.35,1040.55L310.98,1038.19L308.62,1038.19L306.25,1038.19L308.62,1038.19" fill="none" stroke="#000000" style="-webkit-tap-highlight-color: rgba(0, 0, 0, 0); stroke-linecap: round; stroke-linejoin: round; stroke-width: 6;" /><path d="M365.38,1078.39L363.01,1078.39L360.65,1078.39L358.28,1078.39L353.55,1078.39L351.19,1078.39L346.46,1078.39L341.73,1080.76L337,1083.12L332.27,1087.85L329.9,1092.58L325.17,1094.95L322.81,1102.04L318.08,1106.77L315.71,1113.87L310.98,1118.6L308.62,1123.33L306.25,1128.06L303.89,1132.79L301.52,1137.52L299.16,1144.61L296.79,1151.7L296.79,1158.8L294.43,1165.89L294.43,1172.99L294.43,1180.08L294.43,1184.81L292.06,1189.54L289.7,1191.91L289.7,1194.27L289.7,1196.64" fill="none" stroke="#000000" style="-webkit-tap-highlight-color: rgba(0, 0, 0, 0); stroke-linecap: round; stroke-linejoin: round; stroke-width: 6;" /><path d="M455.24,1215.56L452.88,1217.92L452.88,1220.29L452.88,1225.02L452.88,1232.11L455.24,1236.84L457.61,1243.94L462.34,1248.67L467.07,1255.76L471.8,1260.49L476.53,1265.22L481.26,1272.31L488.35,1277.04L493.08,1284.14L500.18,1288.87L507.27,1295.96L514.36,1303.06L523.82,1307.79L535.65,1312.52L538.01,1314.88" fill="none" stroke="#000000" style="-webkit-tap-highlight-color: rgba(0, 0, 0, 0); stroke-linecap: round; stroke-linejoin: round; stroke-width: 6;" /><path d="M653.89,14.19L653.89,9.46L653.89,7.09L651.53,4.73L651.53,7.09L651.53,9.46L651.53,11.82L651.53,18.92L651.53,28.38L653.89,37.84L653.89,49.66L653.89,61.49L653.89,70.95L653.89,80.41L653.89,89.87L653.89,101.69L653.89,111.15L653.89,120.61L653.89,130.07L656.26,139.53L656.26,148.99L656.26,160.81L653.89,170.27L653.89,182.1L653.89,191.56L653.89,203.38L653.89,217.57L653.89,227.03L653.89,238.85L653.89,248.31L653.89,257.77L653.89,269.6L653.89,279.06L653.89,288.52L653.89,295.61L653.89,305.07L653.89,312.17L653.89,321.63L653.89,328.72L653.89,335.82L653.89,340.55L653.89,347.64L653.89,354.73L653.89,359.46L653.89,366.56L653.89,371.29L653.89,378.38L653.89,385.48L653.89,390.21L653.89,394.94L653.89,402.03L653.89,406.76L653.89,411.49L651.53,418.59L651.53,423.32L651.53,425.68L651.53,430.41L651.53,432.78L651.53,437.51L651.53,442.24L649.16,446.97L649.16,449.33L649.16,451.7L649.16,454.06L646.8,458.79L646.8,463.52L644.43,465.88L642.07,468.25L639.7,472.98L637.34,477.71L632.61,480.07L630.24,482.44L627.88,484.8L625.52,484.8L620.79,487.17L616.06,489.53L611.33,491.9L606.6,494.26L604.23,496.63L599.5,498.99L597.14,498.99L592.41,501.36L587.68,501.36L585.31,503.72L580.58,503.72L578.22,503.72L575.85,506.09L573.49,506.09L571.12,506.09L568.76,508.45L566.39,508.45L564.03,510.82L561.66,510.82L559.3,513.18L556.93,513.18L554.57,515.55L552.2,517.91L549.84,520.28L547.47,522.64L545.11,525.01L542.74,529.74L540.38,534.47L538.01,536.83L535.65,541.56L535.65,543.93L533.28,548.66L533.28,551.02L533.28,553.39L533.28,558.12L535.65,562.85L535.65,567.58L538.01,572.3L540.38,577.03L540.38,581.76L540.38,584.13L542.74,588.86L542.74,593.59L542.74,598.32L542.74,603.05L545.11,607.78L545.11,612.51L545.11,617.24L545.11,624.33L545.11,629.06L545.11,633.79L545.11,638.52L545.11,643.25L545.11,647.98L545.11,652.71L545.11,657.44L545.11,662.17L545.11,669.27L545.11,674L545.11,678.73L545.11,685.82L545.11,690.55L542.74,695.28L542.74,702.37L542.74,711.83L540.38,718.93L540.38,726.02L540.38,733.12L540.38,737.85L538.01,747.31L540.38,752.04L542.74,749.67" fill="none" stroke="#000000" style="-webkit-tap-highlight-color: rgba(0, 0, 0, 0); stroke-linecap: round; stroke-linejoin: round; stroke-width: 6;" /><path d="M604.23,543.93L601.87,546.29L601.87,551.02L601.87,553.39L601.87,558.12L604.23,565.21L606.6,572.3L606.6,581.76L606.6,591.22L606.6,600.68L606.6,610.14L604.23,617.24L604.23,624.33L601.87,631.43L601.87,638.52L599.5,645.62L599.5,655.08L597.14,662.17L597.14,666.9L594.77,676.36L594.77,683.45L594.77,692.91L594.77,700.01L592.41,704.74L592.41,709.47L592.41,716.56L590.04,723.66L590.04,730.75L590.04,735.48L590.04,742.58L590.04,749.67L590.04,759.13L590.04,766.23L590.04,775.69L590.04,782.78L590.04,789.88L590.04,794.61L590.04,801.7L592.41,806.43L594.77,806.43" fill="none" stroke="#000000" style="-webkit-tap-highlight-color: rgba(0, 0, 0, 0); stroke-linecap: round; stroke-linejoin: round; stroke-width: 6;" /><path d="M713.02,569.94L710.65,567.58L708.29,574.67L708.29,593.59L705.92,617.24L705.92,631.43L705.92,643.25L705.92,655.08L708.29,669.27L708.29,681.09L708.29,692.91L708.29,704.74L705.92,714.2L705.92,723.66L705.92,733.12L705.92,742.58L705.92,752.04L705.92,761.5L705.92,768.59L705.92,775.69L708.29,782.78L708.29,789.88L708.29,796.97L708.29,804.06L708.29,813.52L708.29,820.62L708.29,825.35L708.29,830.08L708.29,834.81L710.65,834.81" fill="none" stroke="#000000" style="-webkit-tap-highlight-color: rgba(0, 0, 0, 0); stroke-linecap: round; stroke-linejoin: round; stroke-width: 6;" /><path d="M734.3,581.76L736.67,581.76L739.03,588.86L743.76,605.41L743.76,614.87L746.12,621.97L748.49,631.43L750.85,640.89L753.22,647.98L755.58,655.08L755.58,662.17L755.58,671.63L755.58,678.73L757.95,685.82L760.31,692.91L760.31,702.37L762.68,711.83L765.04,718.93L765.04,728.39L765.04,733.12L767.41,740.21L767.41,747.31L767.41,754.4L767.41,759.13L767.41,766.23L769.77,770.96L769.77,775.69L769.77,782.78L769.77,792.24L769.77,799.33L769.77,806.43L772.14,815.89L772.14,827.71L772.14,837.17L772.14,841.9L772.14,844.27L774.5,844.27" fill="none" stroke="#000000" style="-webkit-tap-highlight-color: rgba(0, 0, 0, 0); stroke-linecap: round; stroke-linejoin: round; stroke-width: 6;" /><path d="M587.68,804.06L587.68,801.7L587.68,799.33L590.04,801.7L594.77,806.43L599.5,808.79L606.6,811.16L616.06,813.52L625.52,813.52L634.97,815.89L644.43,818.25L651.53,820.62L658.62,822.98L663.35,825.35L670.45,827.71L675.18,827.71L679.91,830.08L684.64,834.81L687,837.17L691.73,837.17L696.46,837.17L701.19,837.17L708.29,837.17L713.02,837.17L715.38,839.54L720.11,839.54L722.48,839.54L727.21,839.54L729.57,839.54L731.94,839.54L736.67,839.54L739.03,841.9L743.76,841.9L748.49,841.9L753.22,841.9L757.95,841.9L762.68,841.9L767.41,839.54L772.14,837.17L776.87,834.81L781.6,834.81" fill="none" stroke="#000000" style="-webkit-tap-highlight-color: rgba(0, 0, 0, 0); stroke-linecap: round; stroke-linejoin: round; stroke-width: 6;" /><path d="M772.14,846.63L769.77,846.63L767.41,846.63L767.41,844.27L769.77,844.27L772.14,844.27L776.87,844.27L781.6,841.9L786.33,841.9L793.42,841.9L802.88,841.9L809.98,841.9L817.07,844.27L821.8,846.63L831.26,849L838.36,849L845.45,849L852.55,849L857.27,849L869.1,849L876.19,849L883.29,849L888.02,849L895.11,849L899.84,849L904.57,849L911.67,849L918.76,849L925.86,846.63L932.95,844.27L942.41,844.27L949.51,841.9L958.97,839.54L968.42,839.54L977.88,834.81L989.71,832.44L996.8,827.71L1003.9,827.71" fill="none" stroke="#000000" style="-webkit-tap-highlight-color: rgba(0, 0, 0, 0); stroke-linecap: round; stroke-linejoin: round; stroke-width: 6;" /><path d="M743.76,839.54L741.39,839.54L739.03,839.54L736.67,839.54L741.39,839.54L748.49,841.9L757.95,844.27L767.41,849L776.87,853.73L786.33,858.46L798.15,860.82L809.98,863.19L824.17,865.55L835.99,870.28L845.45,872.65L854.91,877.38L864.37,879.74L873.83,882.11L883.29,882.11L892.75,884.47L899.84,884.47L906.94,884.47L911.67,886.84L918.76,886.84L925.86,886.84L932.95,886.84L937.68,886.84L944.78,889.2L951.87,889.2L958.97,889.2L968.42,889.2L975.52,891.57L984.98,896.3L994.44,898.66L1003.9,898.66L1013.36,896.3L1020.45,893.93" fill="none" stroke="#000000" style="-webkit-tap-highlight-color: rgba(0, 0, 0, 0); stroke-linecap: round; stroke-linejoin: round; stroke-width: 6;" /><path d="M381.93,300.34L374.84,300.34L374.84,302.71L379.57,309.8L384.3,319.26L386.66,326.36L391.39,333.45L398.48,340.55L403.21,345.27L410.31,352.37L417.4,357.1L422.13,364.19L429.23,371.29L433.96,376.02L441.05,383.11L445.78,387.84L450.51,392.57L455.24,397.3L462.34,402.03L467.07,406.76L471.8,411.49L476.53,413.86L481.26,418.59L488.35,420.95L495.45,425.68L502.54,430.41L507.27,432.78L514.36,435.14L519.09,437.51L526.19,439.87L533.28,442.24L538.01,442.24L545.11,444.6L549.84,444.6L554.57,446.97L561.66,446.97L568.76,446.97L573.49,449.33L580.58,449.33L585.31,449.33L592.41,449.33L599.5,449.33L606.6,449.33L613.69,449.33L620.79,446.97L625.52,446.97L632.61,444.6L642.07,444.6L649.16,439.87L656.26,437.51L663.35,432.78L665.72,432.78" fill="none" stroke="#000000" style="-webkit-tap-highlight-color: rgba(0, 0, 0, 0); stroke-linecap: round; stroke-linejoin: round; stroke-width: 6;" /><path d="M727.21,1005.08L727.21,1002.72L724.84,1002.72L722.48,1007.45L717.75,1009.81L713.02,1012.18L708.29,1014.54L701.19,1016.91L696.46,1021.64L691.73,1024L689.37,1028.73L687,1028.73L684.64,1031.09L682.27,1033.46L679.91,1033.46L677.54,1035.82L675.18,1035.82L672.81,1038.19L670.45,1042.92L668.08,1045.28L668.08,1050.01L665.72,1052.38L663.35,1054.74L663.35,1057.11L658.62,1059.47L658.62,1061.84L656.26,1064.2L653.89,1064.2L651.53,1066.57L649.16,1068.93L646.8,1071.3L642.07,1073.66L637.34,1076.03L634.97,1078.39L632.61,1080.76L627.88,1080.76L625.52,1083.12L623.15,1083.12L620.79,1083.12L618.42,1083.12L616.06,1083.12L613.69,1083.12L613.69,1080.76L611.33,1078.39L608.96,1076.03L606.6,1073.66L604.23,1068.93L599.5,1066.57L597.14,1061.84L592.41,1059.47L590.04,1057.11L587.68,1054.74L582.95,1052.38L580.58,1050.01L578.22,1047.65L578.22,1045.28L575.85,1040.55L573.49,1038.19L571.12,1035.82L568.76,1031.09L566.39,1028.73L566.39,1021.64L566.39,1016.91L564.03,1009.81L564.03,1005.08L561.66,997.99L561.66,988.53L559.3,979.07L554.57,971.97L552.2,967.24L552.2,962.51L554.57,960.15L556.93,962.51" fill="none" stroke="#000000" style="-webkit-tap-highlight-color: rgba(0, 0, 0, 0); stroke-linecap: round; stroke-linejoin: round; stroke-width: 6;" /><path d="M812.34,995.62L812.34,993.26L809.98,990.89L809.98,993.26L812.34,995.62L814.71,997.99L817.07,1002.72L819.44,1009.81L824.17,1016.91L828.9,1021.64L835.99,1028.73L843.09,1033.46L847.82,1040.55L852.55,1045.28L857.27,1052.38L862,1057.11L866.73,1061.84L871.46,1066.57L873.83,1071.3L876.19,1076.03L878.56,1078.39L878.56,1080.76L880.92,1083.12L880.92,1085.49L880.92,1087.85L880.92,1090.22L878.56,1092.58L876.19,1094.95L873.83,1099.68L869.1,1102.04L864.37,1106.77L859.64,1111.5L854.91,1118.6L850.18,1125.69L843.09,1132.79L835.99,1142.24L828.9,1151.7L821.8,1158.8L817.07,1165.89L812.34,1172.99L809.98,1177.72L807.61,1180.08L807.61,1184.81L807.61,1187.18L807.61,1189.54L814.71,1196.64L821.8,1201.37L826.53,1208.46L833.63,1213.19L840.72,1220.29L850.18,1225.02L859.64,1232.11L869.1,1236.84L876.19,1241.57L885.65,1248.67L892.75,1255.76L902.21,1260.49L909.3,1265.22L918.76,1269.95L928.22,1274.68L940.05,1281.77L949.51,1286.5L963.7,1293.6L982.61,1298.33L996.8,1300.69L1010.99,1305.42L1020.45,1312.52L1022.82,1312.52" fill="none" stroke="#000000" style="-webkit-tap-highlight-color: rgba(0, 0, 0, 0); stroke-linecap: round; stroke-linejoin: round; stroke-width: 6;" /></svg>