<?xml version="1.0" encoding="utf-8" ?>
<svg baseProfile="full" height="1363" version="1.1" width="1024" xmlns="http://www.w3.org/2000/svg" xmlns:ev="http://www.w3.org/2001/xml-events" xmlns:xlink="http://www.w3.org/1999/xlink"><defs /><path d="M10.84,238.53L8.43,236.12L8.43,233.71L10.84,233.71L13.25,233.71L15.66,233.71L20.48,231.3L25.3,231.3L30.12,231.3L34.94,228.89L39.76,226.48L42.16,224.08L46.98,221.67L49.39,219.26L54.21,216.85L59.03,214.44L61.44,212.03L66.26,209.62L68.67,209.62L71.08,207.21L73.49,204.8L80.72,202.39L83.12,199.98L85.53,199.98L87.94,197.57L92.76,195.16L95.17,192.75L99.99,190.34L104.81,187.93L109.63,185.52L114.45,183.12L119.27,180.71L124.08,178.3L131.31,175.89L136.13,173.48L140.95,173.48L145.77,171.07L148.18,171.07L150.59,171.07L153,171.07L155.41,171.07L157.82,173.48L160.23,173.48L160.23,175.89L162.64,175.89L162.64,178.3L165.04,180.71L165.04,183.12L165.04,185.52L167.45,190.34L167.45,192.75L169.86,197.57L172.27,199.98L172.27,202.39L174.68,207.21L177.09,209.62L177.09,214.44L179.5,216.85L181.91,219.26L181.91,221.67L184.32,224.08L186.73,228.89L189.14,231.3L191.55,233.71L193.96,236.12L196.37,240.94L198.78,243.35L198.78,245.76L198.78,250.58L198.78,252.99L198.78,255.4L198.78,260.22L198.78,262.63L198.78,267.44L198.78,272.26L198.78,277.08L198.78,281.9L198.78,286.72L201.19,291.54L201.19,301.18L201.19,306L203.6,310.81L203.6,315.63L203.6,322.86L203.6,327.68L203.6,334.91L203.6,339.73L203.6,346.96L203.6,351.77L203.6,356.59L203.6,361.41L203.6,366.23L206,371.05L206,375.87L206,380.69L206,385.51L206,390.32L206,397.55L206,402.37L206,407.19L208.41,412.01L208.41,416.83L208.41,419.24L208.41,424.06L208.41,426.47L208.41,431.28L208.41,436.1L208.41,438.51L208.41,443.33L208.41,445.74L208.41,450.56L208.41,455.38L208.41,462.61L208.41,469.84L208.41,477.06L208.41,484.29L208.41,491.52L210.82,498.75L210.82,505.98L210.82,513.2L210.82,522.84L213.23,530.07L213.23,537.3L213.23,546.94L213.23,554.16L213.23,558.98L213.23,566.21L213.23,571.03L213.23,575.85L213.23,580.67L213.23,585.49L213.23,590.31L213.23,595.12L213.23,599.94L213.23,604.76L213.23,609.58L213.23,614.4L213.23,619.22L213.23,621.63L213.23,624.04L213.23,626.45L213.23,628.86L213.23,631.27L210.82,636.08L210.82,638.49L208.41,640.9L206,643.31L203.6,643.31L196.37,643.31L189.14,643.31L179.5,638.49L167.45,633.68L157.82,631.27L150.59,628.86L140.95,628.86L131.31,628.86L124.08,628.86L116.86,628.86L112.04,628.86L107.22,628.86L99.99,628.86L95.17,626.45L90.35,626.45L85.53,624.04L80.72,624.04L73.49,621.63L66.26,621.63L59.03,619.22L51.8,619.22L46.98,616.81L39.76,616.81L30.12,614.4L22.89,611.99L13.25,609.58L8.43,607.17L3.61,602.35L1.2,597.53L1.2,595.12L1.2,592.72L6.02,587.9" fill="none" stroke="#000000" style="-webkit-tap-highlight-color: rgba(0, 0, 0, 0); stroke-linecap: round; stroke-linejoin: round; stroke-width: 6;" /><path d="M165.04,183.12L160.23,183.12L157.82,183.12L155.41,180.71L157.82,178.3L160.23,178.3L165.04,175.89L169.86,175.89L177.09,173.48L186.73,171.07L196.37,168.66L206,166.25L215.64,163.84L222.87,163.84L227.69,166.25L232.51,168.66L237.33,171.07L242.15,173.48L246.96,173.48L251.78,178.3L256.6,180.71L261.42,185.52L266.24,187.93L268.65,192.75L271.06,199.98L275.88,204.8L278.29,214.44L280.7,221.67L283.11,228.89L285.52,236.12L285.52,245.76L287.92,250.58L287.92,255.4L287.92,262.63L287.92,269.85L287.92,279.49L290.33,289.13L290.33,296.36L290.33,303.59L290.33,313.22L292.74,320.45L292.74,327.68L295.15,334.91L295.15,339.73L295.15,346.96L297.56,351.77L297.56,356.59L297.56,361.41L299.97,366.23L299.97,371.05L302.38,373.46L304.79,375.87L307.2,378.28L309.61,380.69L314.43,380.69L316.84,380.69L321.66,383.1L324.07,383.1L328.88,385.51L331.29,385.51L333.7,385.51L336.11,387.92L338.52,387.92L340.93,387.92L343.34,390.32L345.75,390.32L348.16,390.32L348.16,387.92L350.57,387.92L350.57,383.1L350.57,380.69L352.98,375.87L352.98,371.05L352.98,368.64L355.39,363.82L357.8,361.41L360.21,361.41L362.62,363.82L365.03,363.82L367.44,366.23L369.84,368.64L372.25,368.64L374.66,371.05L377.07,371.05L379.48,371.05L381.89,371.05L384.3,371.05L386.71,368.64L389.12,368.64L386.71,371.05L384.3,373.46" fill="none" stroke="#000000" style="-webkit-tap-highlight-color: rgba(0, 0, 0, 0); stroke-linecap: round; stroke-linejoin: round; stroke-width: 6;" /><path d="M307.2,293.95L304.79,293.95L302.38,291.54L297.56,291.54L295.15,291.54L295.15,289.13L297.56,289.13L299.97,289.13L304.79,289.13L312.02,289.13L319.25,286.72L326.48,284.31L336.11,281.9L343.34,279.49L350.57,277.08L355.39,274.67L360.21,272.26L365.03,272.26L367.44,269.85L369.84,267.44L372.25,262.63L372.25,260.22L374.66,255.4L374.66,250.58L374.66,243.35L374.66,238.53L374.66,233.71L374.66,228.89L372.25,221.67L369.84,216.85L367.44,212.03L365.03,207.21L365.03,202.39L362.62,197.57L362.62,195.16L365.03,190.34L367.44,185.52L367.44,180.71L369.84,175.89L372.25,173.48L372.25,171.07L372.25,168.66L372.25,166.25L372.25,163.84L372.25,161.43L374.66,159.02L377.07,159.02L379.48,159.02L384.3,156.61L391.53,156.61L398.76,156.61L405.99,154.2L413.21,154.2L420.44,151.79L425.26,149.38L430.08,149.38L437.31,149.38L442.13,146.97L446.95,146.97L451.76,146.97L456.58,146.97L458.99,146.97L463.81,146.97L466.22,149.38L471.04,151.79L473.45,151.79L475.86,154.2L478.27,154.2L483.09,156.61L485.5,156.61L487.91,156.61L492.72,156.61L495.13,156.61L497.54,156.61L502.36,159.02L504.77,159.02L509.59,161.43L512,161.43L516.82,163.84L519.23,163.84L521.64,166.25L526.46,168.66L528.87,171.07L531.28,171.07L533.68,173.48L536.09,173.48L538.5,173.48L540.91,173.48L543.32,173.48L548.14,173.48L550.55,175.89L552.96,175.89L555.37,178.3L555.37,180.71L557.78,183.12L557.78,185.52L560.19,190.34L560.19,192.75L560.19,195.16L562.6,197.57L562.6,199.98L565.01,202.39L567.42,202.39L569.83,202.39L572.24,199.98L574.64,197.57L577.05,195.16L579.46,190.34L581.87,187.93L584.28,185.52L586.69,185.52L589.1,185.52L591.51,185.52L591.51,187.93L593.92,192.75L593.92,197.57L593.92,202.39L596.33,209.62L596.33,214.44L596.33,219.26L596.33,224.08L598.74,228.89L598.74,233.71L601.15,238.53L601.15,245.76L603.56,250.58L603.56,255.4L605.97,257.81L608.38,262.63L613.2,265.04L615.6,267.44L618.01,272.26L622.83,274.67L625.24,279.49L627.65,281.9L630.06,286.72L634.88,291.54L637.29,293.95L639.7,298.77L642.11,303.59L644.52,306L646.93,313.22L646.93,318.04L649.34,325.27L651.75,332.5L651.75,337.32L654.16,342.14L654.16,346.96L654.16,349.36L654.16,354.18L654.16,359L654.16,361.41L654.16,366.23L654.16,371.05L654.16,378.28L651.75,383.1L651.75,390.32L651.75,397.55L651.75,404.78L651.75,412.01L654.16,416.83L654.16,424.06L654.16,431.28L654.16,438.51L654.16,448.15L654.16,455.38L649.34,462.61L646.93,469.84L644.52,477.06L644.52,484.29L642.11,491.52L642.11,496.34L642.11,508.39L642.11,513.2L642.11,520.43L642.11,527.66L644.52,532.48L644.52,537.3L644.52,542.12L644.52,546.94L644.52,551.76L644.52,556.57L644.52,558.98L642.11,561.39L642.11,566.21L639.7,566.21L634.88,568.62L630.06,571.03L622.83,573.44L618.01,575.85L610.79,578.26L608.38,583.08L603.56,585.49L601.15,590.31L601.15,595.12L601.15,599.94L601.15,607.17L598.74,611.99L598.74,616.81L598.74,621.63L598.74,624.04L601.15,628.86L601.15,633.68L601.15,636.08L601.15,640.9L601.15,645.72L601.15,648.13L601.15,652.95L601.15,655.36L601.15,657.77L601.15,662.59L598.74,665L596.33,665L593.92,667.41L591.51,667.41L589.1,667.41L586.69,667.41L581.87,667.41L577.05,667.41L574.64,665L569.83,665L567.42,662.59L565.01,660.18L562.6,657.77L560.19,657.77L555.37,655.36L552.96,655.36L548.14,655.36L540.91,655.36L531.28,655.36L519.23,657.77L502.36,662.59L495.13,665L487.91,667.41L483.09,667.41L480.68,667.41L475.86,667.41L471.04,667.41L468.63,667.41L463.81,667.41L461.4,665L458.99,665L454.17,662.59L449.36,660.18L446.95,655.36L442.13,652.95L439.72,648.13L437.31,645.72L437.31,643.31L437.31,640.9L434.9,638.49L434.9,633.68L434.9,631.27L434.9,628.86L434.9,624.04L434.9,621.63L434.9,616.81L434.9,611.99L434.9,609.58L434.9,602.35L432.49,597.53L430.08,587.9L425.26,580.67L422.85,571.03L420.44,561.39L420.44,551.76L418.03,542.12L418.03,534.89L418.03,525.25L418.03,518.02L418.03,508.39L418.03,501.16L418.03,491.52L418.03,484.29L418.03,474.65L418.03,467.43L418.03,462.61L418.03,455.38L418.03,448.15L418.03,440.92L415.62,431.28L415.62,421.65L415.62,412.01L415.62,402.37L415.62,392.73L415.62,385.51L415.62,375.87L418.03,368.64L418.03,361.41L418.03,351.77L415.62,332.5L413.21,320.45L413.21,310.81L415.62,301.18L415.62,291.54L415.62,279.49L415.62,269.85L415.62,260.22L415.62,252.99L415.62,248.17L415.62,240.94L415.62,236.12L415.62,233.71L415.62,228.89L415.62,224.08L418.03,219.26L418.03,214.44L415.62,212.03L415.62,207.21L413.21,202.39L413.21,199.98L413.21,197.57L413.21,195.16L413.21,190.34L413.21,187.93L413.21,185.52L410.8,185.52L410.8,183.12" fill="none" stroke="#000000" style="-webkit-tap-highlight-color: rgba(0, 0, 0, 0); stroke-linecap: round; stroke-linejoin: round; stroke-width: 6;" /><path d="M369.84,228.89L367.44,228.89L369.84,231.3L369.84,236.12L372.25,240.94L374.66,248.17L377.07,255.4L379.48,262.63L379.48,272.26L381.89,279.49L381.89,289.13L381.89,296.36L381.89,301.18L381.89,308.4L379.48,315.63L379.48,322.86L379.48,330.09L379.48,334.91L379.48,339.73L379.48,344.55L379.48,346.96L379.48,349.36L379.48,351.77" fill="none" stroke="#000000" style="-webkit-tap-highlight-color: rgba(0, 0, 0, 0); stroke-linecap: round; stroke-linejoin: round; stroke-width: 6;" /><path d="M338.52,409.6L338.52,407.19L338.52,404.78L338.52,407.19L336.11,409.6L336.11,412.01L336.11,416.83L336.11,421.65L336.11,424.06L336.11,431.28L336.11,436.1L336.11,440.92L336.11,445.74L338.52,452.97L338.52,457.79L340.93,465.02L340.93,472.24L343.34,477.06L345.75,481.88L345.75,486.7L345.75,491.52L345.75,496.34L345.75,501.16L345.75,505.98L345.75,510.8L345.75,513.2L348.16,518.02L350.57,520.43L352.98,525.25L357.8,527.66L360.21,532.48L362.62,534.89L365.03,539.71L365.03,542.12L367.44,546.94L367.44,551.76L367.44,558.98L367.44,563.8L367.44,568.62L369.84,573.44L369.84,575.85L369.84,580.67L372.25,583.08L374.66,585.49L377.07,587.9L379.48,587.9L384.3,590.31L389.12,592.72L396.35,595.12L401.17,597.53L408.4,599.94L410.8,604.76L413.21,607.17L415.62,611.99L415.62,614.4L418.03,616.81L418.03,619.22L420.44,621.63L422.85,624.04L425.26,624.04L427.67,626.45L430.08,628.86L432.49,631.27L434.9,633.68L434.9,631.27L434.9,628.86" fill="none" stroke="#000000" style="-webkit-tap-highlight-color: rgba(0, 0, 0, 0); stroke-linecap: round; stroke-linejoin: round; stroke-width: 6;" /><path d="M220.46,631.27L220.46,628.86L218.05,628.86L215.64,628.86L213.23,628.86L213.23,631.27L213.23,636.08L213.23,640.9L215.64,648.13L218.05,657.77L218.05,665L220.46,672.23L220.46,677.04L220.46,679.45L218.05,679.45L213.23,679.45L210.82,679.45L206,679.45L201.19,679.45L198.78,679.45L193.96,679.45L189.14,681.86L184.32,684.27L179.5,689.09L172.27,691.5L167.45,696.32L162.64,701.14L162.64,705.96L160.23,710.78L162.64,715.6L162.64,720.41L165.04,722.82L165.04,720.41L162.64,715.6L157.82,710.78L153,705.96L148.18,701.14L140.95,696.32L131.31,693.91L121.68,691.5L112.04,689.09L107.22,689.09L102.4,689.09L97.58,691.5L92.76,693.91L87.94,693.91L83.12,696.32L78.31,696.32L73.49,696.32L68.67,696.32L63.85,693.91L59.03,691.5L51.8,689.09L44.57,689.09L37.35,689.09L30.12,686.68L22.89,686.68L15.66,686.68L8.43,686.68L3.61,689.09" fill="none" stroke="#000000" style="-webkit-tap-highlight-color: rgba(0, 0, 0, 0); stroke-linecap: round; stroke-linejoin: round; stroke-width: 6;" /><path d="M6.02,689.09L8.43,689.09" fill="none" stroke="#000000" style="-webkit-tap-highlight-color: rgba(0, 0, 0, 0); stroke-linecap: round; stroke-linejoin: round; stroke-width: 6;" /><path d="M278.29,920.4L280.7,922.8L287.92,925.21L295.15,927.62L297.56,927.62L302.38,925.21L304.79,925.21L312.02,920.4L316.84,915.58L324.07,910.76L328.88,905.94L336.11,898.71L340.93,891.48L345.75,886.66L352.98,879.44L360.21,872.21L365.03,867.39L369.84,862.57L372.25,857.75L374.66,855.34L377.07,850.52L379.48,845.7L381.89,840.88L386.71,836.07L389.12,831.25L391.53,828.84L393.94,824.02L398.76,819.2L403.58,814.38L408.4,809.56L413.21,804.74L418.03,799.92L420.44,795.11L425.26,790.29L427.67,785.47L430.08,780.65L432.49,775.83L434.9,771.01L437.31,766.19L439.72,761.37L442.13,758.96L446.95,754.15L449.36,749.33L451.76,746.92L454.17,744.51L454.17,742.1L454.17,739.69L456.58,737.28L456.58,734.87L456.58,732.46L458.99,727.64L461.4,725.23L463.81,720.41L463.81,718L466.22,713.19L468.63,710.78L471.04,705.96L471.04,703.55L473.45,698.73L475.86,693.91L475.86,689.09L475.86,684.27L475.86,679.45L473.45,674.64" fill="none" stroke="#000000" style="-webkit-tap-highlight-color: rgba(0, 0, 0, 0); stroke-linecap: round; stroke-linejoin: round; stroke-width: 6;" /><path d="M478.27,696.32L478.27,693.91L478.27,691.5L480.68,689.09L485.5,689.09L495.13,689.09L502.36,689.09L512,689.09L521.64,689.09L531.28,689.09L540.91,691.5L550.55,693.91L560.19,698.73L569.83,703.55L577.05,708.37L581.87,715.6L589.1,720.41L598.74,725.23L605.97,727.64L610.79,730.05L618.01,730.05L622.83,730.05L625.24,730.05L630.06,730.05L634.88,730.05L637.29,730.05L642.11,732.46L646.93,732.46L651.75,734.87L654.16,734.87L656.56,734.87L661.38,737.28L661.38,739.69L663.79,739.69L663.79,742.1L666.2,742.1L666.2,744.51L666.2,746.92" fill="none" stroke="#000000" style="-webkit-tap-highlight-color: rgba(0, 0, 0, 0); stroke-linecap: round; stroke-linejoin: round; stroke-width: 6;" /><path d="M622.83,655.36L622.83,652.95L622.83,650.54L622.83,648.13L622.83,650.54L622.83,652.95L625.24,657.77L627.65,662.59L632.47,667.41L637.29,672.23L644.52,674.64L651.75,674.64L658.97,677.04L663.79,677.04L668.61,679.45L675.84,679.45L680.66,681.86L685.48,681.86L687.89,681.86L692.71,681.86L695.12,681.86L699.93,681.86L702.34,681.86L707.16,681.86L709.57,681.86L714.39,681.86L721.62,681.86L726.44,681.86L731.26,681.86L733.67,681.86L736.08,681.86L733.67,681.86" fill="none" stroke="#000000" style="-webkit-tap-highlight-color: rgba(0, 0, 0, 0); stroke-linecap: round; stroke-linejoin: round; stroke-width: 6;" /><path d="M678.25,363.82L675.84,363.82L673.43,363.82L671.02,361.41L668.61,361.41L666.2,361.41L666.2,359L668.61,356.59L673.43,356.59L678.25,354.18L685.48,351.77L692.71,351.77L699.93,349.36L709.57,349.36L719.21,346.96L728.85,346.96L733.67,346.96L738.48,349.36L740.89,351.77L745.71,351.77L748.12,351.77L752.94,354.18L755.35,354.18L757.76,356.59L760.17,356.59L762.58,356.59L767.4,356.59L769.81,356.59L772.22,356.59L774.63,354.18L779.44,351.77L781.85,349.36L784.26,346.96L789.08,344.55L791.49,342.14L796.31,339.73L798.72,337.32L801.13,337.32L803.54,337.32L808.36,337.32L810.77,337.32L815.59,337.32L820.4,337.32L825.22,337.32L830.04,337.32L837.27,339.73L842.09,342.14L849.32,344.55L856.55,346.96L863.77,349.36L868.59,349.36L875.82,349.36L883.05,351.77L887.87,351.77L895.1,354.18L902.32,354.18L911.96,356.59L919.19,356.59L926.42,359L933.65,359L938.47,359L943.28,359L945.69,359L948.1,361.41L950.51,361.41L952.92,363.82L955.33,366.23L957.74,368.64L957.74,371.05L960.15,373.46L962.56,375.87L964.97,380.69L967.38,383.1L969.79,387.92L972.2,390.32L974.61,395.14L977.02,397.55L979.43,402.37L981.84,404.78L984.24,409.6L986.65,412.01L986.65,416.83L989.06,424.06L989.06,428.88L989.06,433.69L989.06,438.51L989.06,443.33L991.47,448.15L991.47,452.97L991.47,457.79L991.47,462.61L993.88,465.02L993.88,469.84L993.88,474.65L993.88,479.47L996.29,484.29L996.29,491.52L996.29,496.34L996.29,503.57L996.29,510.8L996.29,518.02L998.7,527.66L998.7,534.89L998.7,542.12L1001.11,549.35L1001.11,554.16L1001.11,561.39L998.7,566.21L998.7,571.03L998.7,575.85L998.7,580.67L998.7,585.49L998.7,590.31L998.7,592.72L998.7,595.12L1001.11,597.53L1001.11,599.94L1003.52,602.35L1001.11,602.35" fill="none" stroke="#000000" style="-webkit-tap-highlight-color: rgba(0, 0, 0, 0); stroke-linecap: round; stroke-linejoin: round; stroke-width: 6;" /><path d="M740.89,363.82L738.48,361.41L736.08,359L733.67,359L733.67,363.82L736.08,366.23L738.48,371.05L743.3,378.28L748.12,387.92L750.53,397.55L752.94,412.01L752.94,424.06L752.94,433.69L752.94,445.74L750.53,455.38L750.53,465.02L750.53,477.06L750.53,486.7L750.53,496.34L752.94,503.57L755.35,508.39L755.35,515.61L757.76,522.84L757.76,527.66L757.76,537.3L757.76,544.53L757.76,554.16L755.35,561.39L755.35,571.03L755.35,580.67L755.35,587.9L755.35,595.12L755.35,602.35L755.35,607.17L757.76,614.4L757.76,621.63L760.17,626.45L762.58,633.68L762.58,638.49L762.58,643.31L764.99,648.13L764.99,652.95L764.99,657.77L762.58,662.59L760.17,667.41L755.35,672.23L750.53,674.64L745.71,679.45L740.89,681.86L738.48,686.68L736.08,691.5L733.67,696.32L731.26,703.55L731.26,708.37L728.85,715.6L731.26,722.82L731.26,730.05L733.67,734.87L736.08,739.69L738.48,744.51L738.48,749.33L738.48,751.74L738.48,754.15L736.08,756.56L736.08,758.96L733.67,761.37L731.26,766.19L731.26,768.6L728.85,773.42L726.44,775.83L726.44,778.24L724.03,778.24L724.03,780.65L724.03,778.24" fill="none" stroke="#000000" style="-webkit-tap-highlight-color: rgba(0, 0, 0, 0); stroke-linecap: round; stroke-linejoin: round; stroke-width: 6;" /><path d="M748.12,681.86L743.3,679.45L738.48,677.04L738.48,674.64L740.89,674.64L745.71,674.64L750.53,674.64L757.76,672.23L764.99,672.23L772.22,669.82L784.26,667.41L793.9,665L805.95,662.59L815.59,662.59L827.63,662.59L837.27,662.59L849.32,662.59L861.36,660.18L873.41,657.77L885.46,655.36L897.51,655.36L907.14,655.36L916.78,655.36L924.01,652.95L931.24,648.13L936.06,640.9L940.88,636.08L948.1,633.68L955.33,633.68L962.56,631.27L967.38,628.86L972.2,626.45L977.02,626.45L984.24,624.04L991.47,624.04L998.7,624.04L1005.93,624.04L1013.16,621.63L1015.57,616.81L1020.39,614.4L1020.39,609.58L1020.39,604.76" fill="none" stroke="#000000" style="-webkit-tap-highlight-color: rgba(0, 0, 0, 0); stroke-linecap: round; stroke-linejoin: round; stroke-width: 6;" /><path d="M861.36,696.32L861.36,698.73L858.96,701.14L858.96,703.55L858.96,701.14L858.96,696.32L858.96,693.91L861.36,689.09L861.36,684.27L863.77,677.04L863.77,674.64L866.18,669.82L866.18,667.41L868.59,665L871,665L873.41,665L878.23,667.41L885.46,672.23L892.69,677.04L899.92,679.45L907.14,681.86L911.96,681.86L919.19,684.27L926.42,684.27L933.65,686.68L940.88,686.68L945.69,686.68L952.92,689.09L955.33,689.09L960.15,689.09L964.97,686.68L967.38,686.68L974.61,684.27L981.84,684.27L984.24,681.86L986.65,679.45L989.06,677.04L989.06,672.23L989.06,669.82L989.06,667.41L986.65,665L981.84,665L977.02,662.59L969.79,662.59L960.15,662.59L948.1,662.59L938.47,662.59L924.01,662.59L914.37,665L904.73,669.82L895.1,672.23L890.28,672.23L887.87,674.64L890.28,677.04" fill="none" stroke="#000000" style="-webkit-tap-highlight-color: rgba(0, 0, 0, 0); stroke-linecap: round; stroke-linejoin: round; stroke-width: 6;" /><path d="M878.23,708.37L878.23,710.78L880.64,710.78L883.05,710.78L885.46,713.19L887.87,715.6L890.28,720.41L892.69,722.82L892.69,727.64L895.1,732.46L895.1,734.87L895.1,737.28L892.69,737.28L890.28,734.87L887.87,732.46L883.05,732.46L878.23,730.05L871,727.64L863.77,725.23L856.55,722.82L851.73,722.82L846.91,722.82L839.68,725.23L834.86,727.64L827.63,730.05L820.4,734.87L813.18,739.69L805.95,744.51L801.13,749.33L796.31,751.74L791.49,754.15L786.67,756.56L784.26,758.96L781.85,758.96L781.85,756.56L784.26,754.15L789.08,751.74L793.9,746.92L803.54,742.1L813.18,734.87L825.22,727.64L834.86,722.82L844.5,718L854.14,718L861.36,718L871,718L878.23,720.41L885.46,722.82L892.69,725.23L899.92,727.64L907.14,730.05L916.78,732.46L921.6,732.46L928.83,732.46L936.06,730.05L943.28,730.05L950.51,727.64L957.74,727.64L964.97,727.64L972.2,727.64L977.02,727.64L984.24,727.64L989.06,727.64L996.29,727.64L1003.52,725.23L1010.75,725.23L1015.57,722.82L1020.39,718L1022.8,715.6" fill="none" stroke="#000000" style="-webkit-tap-highlight-color: rgba(0, 0, 0, 0); stroke-linecap: round; stroke-linejoin: round; stroke-width: 6;" /><path d="M1022.8,708.37" fill="none" stroke="#000000" style="-webkit-tap-highlight-color: rgba(0, 0, 0, 0); stroke-linecap: round; stroke-linejoin: round; stroke-width: 6;" /><path d="M972.2,674.64L972.2,672.23L974.61,672.23L977.02,672.23L977.02,677.04L979.43,681.86L979.43,689.09L981.84,698.73L981.84,708.37L981.84,715.6L981.84,720.41L981.84,722.82L981.84,725.23L979.43,722.82L979.43,720.41" fill="none" stroke="#000000" style="-webkit-tap-highlight-color: rgba(0, 0, 0, 0); stroke-linecap: round; stroke-linejoin: round; stroke-width: 6;" /><path d="M849.32,681.86L846.91,679.45L846.91,674.64L846.91,672.23L849.32,674.64L851.73,681.86L851.73,691.5L854.14,698.73L854.14,703.55L854.14,708.37" fill="none" stroke="#000000" style="-webkit-tap-highlight-color: rgba(0, 0, 0, 0); stroke-linecap: round; stroke-linejoin: round; stroke-width: 6;" /><path d="M538.5,686.68L538.5,689.09L538.5,691.5L538.5,693.91L538.5,696.32L538.5,703.55L538.5,710.78L538.5,720.41L540.91,734.87L543.32,746.92L545.73,754.15L545.73,758.96L545.73,761.37L545.73,758.96L543.32,756.56" fill="none" stroke="#000000" style="-webkit-tap-highlight-color: rgba(0, 0, 0, 0); stroke-linecap: round; stroke-linejoin: round; stroke-width: 6;" /><path d="M487.91,783.06L487.91,785.47L487.91,787.88L485.5,787.88L485.5,790.29L487.91,792.7L490.32,792.7L495.13,795.11L502.36,795.11L507.18,795.11L514.41,792.7L519.23,787.88L526.46,783.06L533.68,775.83L540.91,771.01L548.14,763.78L555.37,758.96L562.6,756.56L569.83,756.56L577.05,756.56L584.28,758.96L591.51,763.78L596.33,766.19L601.15,768.6L605.97,771.01L610.79,773.42L615.6,775.83L622.83,775.83L627.65,775.83L632.47,778.24L639.7,778.24L644.52,778.24L649.34,775.83L654.16,773.42L658.97,768.6L661.38,766.19L663.79,761.37L666.2,758.96L668.61,754.15L668.61,749.33L671.02,744.51L673.43,742.1L673.43,739.69L673.43,737.28L668.61,737.28L663.79,734.87L654.16,734.87L644.52,734.87L637.29,737.28L632.47,739.69L630.06,744.51L630.06,749.33" fill="none" stroke="#000000" style="-webkit-tap-highlight-color: rgba(0, 0, 0, 0); stroke-linecap: round; stroke-linejoin: round; stroke-width: 6;" /><path d="M208.41,722.82L206,722.82L201.19,722.82L198.78,722.82L196.37,725.23L191.55,727.64L186.73,732.46L181.91,737.28L179.5,742.1L174.68,746.92L172.27,749.33L169.86,751.74L169.86,754.15L167.45,754.15L165.04,754.15L165.04,756.56L162.64,756.56L160.23,756.56L157.82,756.56L155.41,756.56L153,758.96L148.18,761.37L143.36,766.19L138.54,771.01L131.31,775.83L126.49,780.65L121.68,783.06L119.27,787.88L114.45,790.29L112.04,792.7L107.22,795.11L102.4,797.52L99.99,799.92L97.58,802.33L95.17,802.33L92.76,802.33L90.35,802.33L87.94,802.33L90.35,802.33L92.76,799.92L99.99,795.11L114.45,783.06L128.9,773.42L143.36,761.37L155.41,754.15L165.04,751.74L174.68,746.92L181.91,744.51L191.55,742.1L198.78,737.28L206,734.87L213.23,730.05L222.87,725.23L227.69,722.82L234.92,722.82L239.74,720.41L244.56,720.41L249.37,720.41L254.19,720.41L259.01,720.41L263.83,722.82L268.65,725.23L273.47,727.64L278.29,730.05L283.11,734.87L287.92,739.69L292.74,742.1L297.56,746.92L302.38,749.33L309.61,751.74L314.43,756.56L321.66,758.96L328.88,758.96L336.11,761.37L343.34,761.37L350.57,761.37L357.8,763.78L365.03,763.78L369.84,763.78L377.07,766.19L381.89,766.19L386.71,766.19L391.53,766.19L396.35,766.19L403.58,766.19L408.4,766.19L415.62,766.19L422.85,766.19L430.08,766.19L437.31,766.19L444.54,766.19L449.36,768.6L454.17,771.01L456.58,773.42L458.99,773.42L461.4,775.83L463.81,775.83L466.22,778.24" fill="none" stroke="#000000" style="-webkit-tap-highlight-color: rgba(0, 0, 0, 0); stroke-linecap: round; stroke-linejoin: round; stroke-width: 6;" /><path d="M526.46,804.74L526.46,802.33L526.46,797.52L526.46,795.11L528.87,792.7L533.68,790.29L540.91,790.29L548.14,790.29L552.96,792.7" fill="none" stroke="#000000" style="-webkit-tap-highlight-color: rgba(0, 0, 0, 0); stroke-linecap: round; stroke-linejoin: round; stroke-width: 6;" /><path d="M18.07,896.3L15.66,896.3L18.07,898.71L22.89,901.12L27.71,901.12L34.94,903.53L44.57,905.94L54.21,908.35L66.26,908.35L78.31,908.35L90.35,905.94L102.4,905.94L114.45,903.53L126.49,901.12L138.54,896.3L148.18,891.48L157.82,889.07L167.45,884.25L174.68,881.84L181.91,877.03L186.73,869.8L191.55,864.98L196.37,860.16L201.19,855.34L203.6,852.93L208.41,848.11L213.23,845.7L218.05,845.7L222.87,845.7L230.1,845.7L237.33,845.7L244.56,848.11L251.78,850.52L256.6,852.93L261.42,852.93L268.65,852.93L273.47,852.93L278.29,850.52L283.11,848.11L287.92,848.11L292.74,848.11L297.56,845.7L302.38,845.7L307.2,845.7L312.02,848.11L319.25,848.11L326.48,850.52L328.88,852.93L333.7,852.93L333.7,855.34L336.11,857.75" fill="none" stroke="#000000" style="-webkit-tap-highlight-color: rgba(0, 0, 0, 0); stroke-linecap: round; stroke-linejoin: round; stroke-width: 6;" /><path d="M430.08,881.84L425.26,879.44L418.03,877.03L413.21,874.62L410.8,872.21L408.4,867.39L410.8,864.98L415.62,860.16L422.85,855.34L434.9,850.52L446.95,848.11L458.99,848.11L471.04,850.52L480.68,852.93L490.32,857.75L499.95,862.57L507.18,869.8L514.41,877.03L519.23,884.25L521.64,891.48L524.05,898.71L526.46,905.94L528.87,910.76L533.68,915.58L538.5,917.99L543.32,920.4L548.14,920.4L552.96,920.4L560.19,920.4L567.42,920.4L572.24,920.4L579.46,917.99L584.28,917.99L591.51,917.99L593.92,917.99L596.33,917.99L598.74,917.99" fill="none" stroke="#000000" style="-webkit-tap-highlight-color: rgba(0, 0, 0, 0); stroke-linecap: round; stroke-linejoin: round; stroke-width: 6;" /><path d="M610.79,915.58L608.38,917.99L605.97,917.99L605.97,915.58L608.38,913.17L610.79,910.76L618.01,908.35L625.24,908.35L634.88,905.94L646.93,905.94L658.97,903.53L671.02,901.12L680.66,901.12L690.3,903.53L697.52,908.35L704.75,913.17L711.98,917.99L719.21,925.21L726.44,930.03L733.67,932.44L743.3,932.44L752.94,930.03L762.58,925.21L772.22,922.8L781.85,920.4L793.9,915.58L805.95,915.58L815.59,913.17L827.63,913.17L837.27,913.17L844.5,913.17L854.14,913.17L861.36,915.58L871,915.58L878.23,917.99L887.87,917.99L895.1,920.4L902.32,920.4L911.96,920.4L919.19,920.4L926.42,922.8L933.65,922.8L940.88,922.8L948.1,925.21L957.74,925.21L964.97,925.21L974.61,927.62L984.24,927.62L993.88,927.62L1003.52,927.62L1008.34,922.8L1013.16,920.4L1017.98,915.58L1020.39,913.17L1022.8,910.76L1020.39,910.76L1017.98,910.76L1013.16,910.76" fill="none" stroke="#000000" style="-webkit-tap-highlight-color: rgba(0, 0, 0, 0); stroke-linecap: round; stroke-linejoin: round; stroke-width: 6;" /><path d="M873.41,373.46L875.82,371.05L875.82,368.64L875.82,366.23L873.41,371.05L871,373.46L868.59,375.87L866.18,380.69L866.18,385.51L866.18,390.32L866.18,395.14L866.18,399.96L868.59,402.37L871,407.19L873.41,409.6L873.41,412.01L875.82,414.42L875.82,416.83L878.23,419.24L880.64,419.24L883.05,419.24L885.46,419.24L887.87,419.24L890.28,416.83L892.69,412.01L895.1,409.6L895.1,404.78L895.1,402.37L895.1,397.55L895.1,395.14L890.28,390.32L885.46,387.92L883.05,383.1L878.23,380.69L878.23,378.28L875.82,378.28L878.23,375.87L880.64,375.87" fill="none" stroke="#000000" style="-webkit-tap-highlight-color: rgba(0, 0, 0, 0); stroke-linecap: round; stroke-linejoin: round; stroke-width: 6;" /><path d="M471.04,296.36L468.63,296.36L466.22,296.36L463.81,296.36L461.4,296.36L461.4,298.77L461.4,301.18L463.81,306L463.81,313.22L466.22,322.86L468.63,330.09L471.04,337.32L473.45,342.14L473.45,346.96L475.86,346.96L478.27,346.96L480.68,346.96L483.09,344.55L485.5,342.14L487.91,339.73L490.32,339.73L492.72,337.32L495.13,334.91L497.54,332.5L499.95,330.09L499.95,325.27L499.95,322.86L499.95,318.04L497.54,313.22L495.13,306L492.72,301.18L490.32,293.95L485.5,289.13L485.5,284.31L483.09,284.31L485.5,286.72L485.5,289.13L487.91,293.95" fill="none" stroke="#000000" style="-webkit-tap-highlight-color: rgba(0, 0, 0, 0); stroke-linecap: round; stroke-linejoin: round; stroke-width: 6;" /><path d="M215.64,686.68L215.64,684.27L215.64,681.86L215.64,679.45L218.05,679.45L220.46,679.45L222.87,679.45L225.28,681.86L225.28,689.09L225.28,696.32L225.28,705.96L227.69,713.19L227.69,720.41L227.69,718L227.69,713.19L225.28,705.96L225.28,698.73L225.28,689.09L227.69,679.45L230.1,669.82L232.51,660.18L232.51,655.36L232.51,652.95L234.92,652.95L234.92,655.36" fill="none" stroke="#000000" style="-webkit-tap-highlight-color: rgba(0, 0, 0, 0); stroke-linecap: round; stroke-linejoin: round; stroke-width: 6;" /><path d="M8.43,990.27L8.43,987.86L8.43,985.45L13.25,985.45L18.07,983.04L22.89,983.04L32.53,980.63L42.16,978.22L51.8,975.81L61.44,975.81L71.08,975.81L78.31,975.81L85.53,975.81L95.17,973.4L102.4,970.99L109.63,968.58L114.45,966.17L119.27,966.17L126.49,963.76L131.31,963.76L136.13,961.36L143.36,958.95L148.18,958.95L153,958.95L160.23,958.95L165.04,958.95L172.27,958.95L179.5,958.95L184.32,958.95L191.55,958.95L196.37,961.36L203.6,961.36L210.82,961.36L218.05,963.76L225.28,963.76L232.51,963.76L239.74,963.76L244.56,963.76L251.78,963.76L259.01,963.76L266.24,961.36L271.06,961.36L278.29,961.36L285.52,958.95L292.74,958.95L299.97,958.95L307.2,958.95L312.02,961.36L319.25,963.76L326.48,968.58L333.7,973.4L340.93,975.81L348.16,978.22L355.39,980.63L360.21,980.63L365.03,983.04L369.84,983.04L377.07,985.45L384.3,985.45L391.53,985.45L401.17,985.45L408.4,985.45L415.62,985.45L422.85,983.04L430.08,983.04L439.72,983.04L446.95,983.04L454.17,983.04L463.81,983.04L471.04,983.04L480.68,983.04L485.5,985.45L492.72,985.45L497.54,985.45L502.36,985.45L509.59,983.04L514.41,983.04L521.64,983.04L528.87,983.04L533.68,980.63L538.5,980.63L543.32,980.63L548.14,978.22L550.55,978.22" fill="none" stroke="#000000" style="-webkit-tap-highlight-color: rgba(0, 0, 0, 0); stroke-linecap: round; stroke-linejoin: round; stroke-width: 6;" /><path d="M42.16,1036.05L39.76,1036.05L39.76,1033.64L39.76,1031.23L39.76,1026.41L42.16,1021.59L44.57,1019.18L51.8,1014.36L61.44,1011.95L71.08,1009.54L80.72,1009.54L87.94,1009.54L97.58,1007.13L109.63,1007.13L119.27,1007.13L131.31,1004.72L140.95,1004.72L150.59,1002.32L157.82,1002.32L160.23,999.91L169.86,999.91L179.5,997.5L189.14,997.5L198.78,995.09L208.41,995.09L218.05,992.68L227.69,992.68L237.33,992.68L246.96,992.68L261.42,995.09L275.88,995.09L287.92,995.09L302.38,995.09L314.43,995.09L328.88,995.09L343.34,995.09L355.39,995.09L367.44,997.5L379.48,997.5L391.53,995.09L401.17,992.68L413.21,992.68L418.03,990.27L425.26,990.27L427.67,990.27L430.08,990.27" fill="none" stroke="#000000" style="-webkit-tap-highlight-color: rgba(0, 0, 0, 0); stroke-linecap: round; stroke-linejoin: round; stroke-width: 6;" /></svg>