<?xml version="1.0" encoding="utf-8" ?>
<svg baseProfile="full" height="1363" version="1.1" width="1024" xmlns="http://www.w3.org/2000/svg" xmlns:ev="http://www.w3.org/2001/xml-events" xmlns:xlink="http://www.w3.org/1999/xlink"><defs /><path d="M179.86,167.72L174,170L172,168L172,168L168,162L168,162L170,167L172,168L172,170L173,171L173,173L173,176L174,178L174,178L174,189L174,178L174,189L173,190L175,191L174,192L180,202L177,205L175,207L178,212L179,217L180,221L182,225L182,230L184,231L184,231L185,237L187,243L187,243L186,246L187,245L189,249L189,252L188,256L189,253L190,257L189,261L190,260L195,264L193,271L193,278L193,274L191,270L192,282L195,296L193,285L195,294L195,302L195,307L194,298L195,310L197,318L195,312L195,328L195,321L195,332L196,342L196,338L195,328L194,349L193,352L195,343L192,345L192,354L193,360L192,362L195,358L195,367L195,369L195,364L198,371L198,374L200,376L200,380L202,383L202,386L202,391L202,395L202,400L204,404L204,410L204,415L205,407L206,418L206,418L205,424L205,423L204,428L209,429L209,437L209,434L209,441L211,449L211,444L211,451L210,457L212,461L214,468L212,463L213,471L215,477L215,483L215,488L215,492L215,499L215,497L215,505L215,510L218,514L221,520L220,523L217,519L220,523L220,533L222,543L222,536L221,547L224,550L222,573L222,557L221,565L221,578L220,592L220,588L221,580L220,598" fill="none" stroke="#000000" style="-webkit-tap-highlight-color: rgba(0, 0, 0, 0); stroke-linecap: round; stroke-linejoin: round; stroke-width: 6;" /><path d="M221,607L220,600L220,605L220,610L220,610L220,615L222,615L222,617L222,620L222,622L222,627L222,627L223,629L221,636L222,630L223,632L221,637L221,644L222,640L219,648L222,642" fill="none" stroke="#000000" style="-webkit-tap-highlight-color: rgba(0, 0, 0, 0); stroke-linecap: round; stroke-linejoin: round; stroke-width: 6;" /><path d="M20.97,582.62" fill="none" stroke="#000000" style="-webkit-tap-highlight-color: rgba(0, 0, 0, 0); stroke-linecap: round; stroke-linejoin: round; stroke-width: 6;" /><path d="M220,653L220,652L220,661L220,654L218,653L218,654" fill="none" stroke="#000000" style="-webkit-tap-highlight-color: rgba(0, 0, 0, 0); stroke-linecap: round; stroke-linejoin: round; stroke-width: 6;" /><path d="M14,580L17,586L14,578L14,578L14,580L14,583L17,589L16,592L19,594L19,597L21,598L23,600L24,602L27,602L31,605L33,608L37,608L41,609L44,611L49,616L52,618L47,614L56,620L58,621L63,625L61,621L68,624L71,625L72,627L74,626L77,629L78,629L81,629L83,630L87,631L89,630L96,633L92,632L100,633L102,636L107,638L110,638L114,638L117,638L127,639L136,640L123,640L130,640L141,639L145,640L152,640L156,639L160,638L171,646L164,644L168,645L175,647L180,650L178,646L182,649L185,649" fill="none" stroke="#000000" style="-webkit-tap-highlight-color: rgba(0, 0, 0, 0); stroke-linecap: round; stroke-linejoin: round; stroke-width: 6;" /><path d="M189,649L199,651L196,651L191,651L202,653L205,653L204,652L200,653L212,652L215,652L211,653L210,652L220,652L228,653L218,653L228,653L234,651L235,649L235,649L237,648L220,653L239,651L237,651L239,652L237,651L220,653L235,652" fill="none" stroke="#000000" style="-webkit-tap-highlight-color: rgba(0, 0, 0, 0); stroke-linecap: round; stroke-linejoin: round; stroke-width: 6;" /><path d="M20.97,242.76L17,244L17,244L13,243L17,244L17,241L19,238L21,235L23,232L25,231L30,228L28,230L36,226L35,226L40,224L41,222L42,222L45,223L47,221L48,220L48,220L50,217L54,215L54,215L54,215L73,221L54,215L75,213L73,221L75,213L75,212L76,210L78,210L79,207L81,205L85,202L89,201L90,199L96,196L99,195L103,195L103,195L103,195L103,195L103,195L103,195L116,183L120,181L118,183L125,179L122,181L129,177L127,179L142,187L136,174L138,172L140,172L154,169L154,169L154,169L154,169L155,164L155,164L158,164L160,163L162,163" fill="none" stroke="#000000" style="-webkit-tap-highlight-color: rgba(0, 0, 0, 0); stroke-linecap: round; stroke-linejoin: round; stroke-width: 6;" /><path d="M167,163L168,162L164,162L169,167L170,167L172,168L172,168L172,168L174,170L190,163L190,163L190,163L193,164L190,163L195,168L193,164L186.48,167.72L190,163L190,163L190,163L193,164L195,166L204,167L201,167L206,169L217,168L217,168L220,168L220,168L235,174L235,174L237,171L242,173L242,174L242,174L242,174L246,181L249,184L262,189L252,186L252,186L264,189L265,189L265,189L265,189L265,189L266,190L266,190L270,199L266,192L272,200L272,200L272,203L272,201L272,203L274,211L272,204L274,211L275,213L275,213L275,213L275,213L275,213L275,213L275,213L288,218L277,231L280,233L290,234L290,234L290,234L290,234L290,236L290,236L291,244L291,244L291,245L291,247L291,247L290,251L290,251L290,251L290,251L297,263L290,251L292,280L285,258L292,278L285,258L292,278L292,282L292,282L292,278L296,293L292,278L292,278L292,291L296,293L296,293L296,295L297,294L299,298L298,305L299,299L298,302L298,307L298,311L298,309L298,312L298,317L299,319L300,323L299,318L300,327L298,324L301,331L301,329L301,337L303,341L301,335L301,340" fill="none" stroke="#000000" style="-webkit-tap-highlight-color: rgba(0, 0, 0, 0); stroke-linecap: round; stroke-linejoin: round; stroke-width: 6;" /><path d="M300,346L303,341L302,350L302,350L305,353L305,353L304,354L304,354L300,366L301,368L301,368L302,372L303,374L303,374L303,375L304,378L309,382L309,382L309,384L310,385L310,389L311,391L311,393L311,393L313,399L313,397L303.45,397.24L305,400L307,401L313,399L313,399L313,399L317,399L318,400L319,401L325,403L323,403L325,403L330,392L332,392L332,392L335,393L336,393L341,390L342,391L340,393L344,390L348,390L348,388L348,385L348,384L345,381L342,380L343,377L343,377L346,375L348,373L349,377L354,371L349,377L358,372L359,372L363,376L363,376L362,374L364,378L368,382L369,386L365,379L366,390L370,386L373,392L374,392L369,391L375,393L375,393L375,393L384,392L381,400L382,400L387,396L387,396L390,397L393,397L393,397L395,397L398,397L403,396L402,397L405,396L403,396L407,395L409,395L412,395L415,394L417,393L418,393L424,393L420,393L427,393L425,393L429,393L431,391L434,391L436,390L436,390L434,389L438,382L437,381L431,378L431,378L429,378L429,378L428,375L428,375L427,373L425,371L426,369L425,364L425,366L426,362L425,358L425,358L425,355L422,352L424,352L423,344L422,349L423,344L422,343L419,338L420,334L419,333L419,330L419,327L417,325L421,318L420,322L417,315L416,312L415,306L414,311L414,307L414,308L417,289L418,290L418,284L418,286L416,301L418,282L418,282L416,299L418,296L416,299L418,282L418,282L418,294L418,282L416,266L418,265L420,264L420,264L419,254L420,253L421,249L423,248L420,251L423,243L424,241L423,243L424,236L423,235L424,232L423,230L423,235L423,229L427,220L422,228L425,219L426,217L427,213L427,215L426,211" fill="none" stroke="#000000" style="-webkit-tap-highlight-color: rgba(0, 0, 0, 0); stroke-linecap: round; stroke-linejoin: round; stroke-width: 6;" /><path d="M427,206L425,199L427,203L427,205L425,195L425,193L424,188L423,185L423,190L422,184L423,176L421,183L423,176L423,174L423,172L423,171L423,167L423,167L423,160L423,159L423,152L423,157L420,150L419,148L419,146L420,142L420,143L420,142L420,142L416,150.07L416,146L419,146L418,142L416,143L415,143L414,148L407,150L409,149L407,150L405,150L404,152L403,151L401,154L398,157L395,156L394,159L393,159L390,164L388,164L383,165L383,165L381,165L378,168L374,169L376,170L374,174L370,173L371,173" fill="none" stroke="#000000" style="-webkit-tap-highlight-color: rgba(0, 0, 0, 0); stroke-linecap: round; stroke-linejoin: round; stroke-width: 6;" /><path d="M366,173L365,174L364,177L364,177L364,175L364,177L365,179L365.24,178.76L365,179L365,179L367,185L360,194L360,194L360,196L360,194L360,199L360,200L360,209L361,201L361,208L361,210L361,210L366,216L361,222L363,222L365,225L365,227L363,222L365,225L368,232L367,233L365,228L367,235L370,238L370,244L370,241L370,244L372,252L372,254L372,257L372,249L372,257L375,265L374,260L374,262L373,268L373,268L374,267L373,268L376,282L372,282L376,282L376,282L377,286L375,285L373,289L378,289L373,291L374,295L374,296L371,297L371,302L371,305L371,307L371,302L371,309L372,312L372,311L374,321L375,317L374,321L374,327L373,324L374,329L374,329L371,331L371,331L368,337L369,341L371,317L370,342L375,318L370,343L367,346L367,349L368,352L368,353L365,357L365,357L365,359" fill="none" stroke="#000000" style="-webkit-tap-highlight-color: rgba(0, 0, 0, 0); stroke-linecap: round; stroke-linejoin: round; stroke-width: 6;" /><path d="M364,364L365,361L364,366L362,366L363,369L364,370L362,373L362,373L362,374L363,376L358,384L365,379L364,378L366,380" fill="none" stroke="#000000" style="-webkit-tap-highlight-color: rgba(0, 0, 0, 0); stroke-linecap: round; stroke-linejoin: round; stroke-width: 6;" /><path d="M299.03,297.93L308,297L301,297L308,297L310,295L312,294L314,291L317,288L318,288L321,287L323,284L329,285L326,283L330,282L333,282L334,279L339,277L342,278L343,276L345,276L347,274L352,270L349,274" fill="none" stroke="#000000" style="-webkit-tap-highlight-color: rgba(0, 0, 0, 0); stroke-linecap: round; stroke-linejoin: round; stroke-width: 6;" /><path d="M355,271L356,269L356,271" fill="none" stroke="#000000" style="-webkit-tap-highlight-color: rgba(0, 0, 0, 0); stroke-linecap: round; stroke-linejoin: round; stroke-width: 6;" /><path d="M429.24,145.66L431,146L431,146L420,143L420,143L418,142L420,143L419,146L416,146L416,148L416,148L420,150L420,150L425,152L431,152L433,152L440,152L445,151L449,152L452,153L456,150L460,152L465,151L468,152L471,153L477,151L481,155L482,153L485,157L491,154L493,154L502,156L501,156L503,156L518,163L530,166L518,163L516,165L532,166L536,168L542,166L540,168L544,170" fill="none" stroke="#000000" style="-webkit-tap-highlight-color: rgba(0, 0, 0, 0); stroke-linecap: round; stroke-linejoin: round; stroke-width: 6;" /><path d="M547,170L546,170L551,170L553,170L554,168L554,170L554,168L554,168L554,168L566,168L568,170L568,168L570,170L563,182L570.48,180.97L570,185L570,187L568,192L569,194L568,191L567,196L567,197L575,202L575,202L581,200L582,202L586,204L588,204L588,204L594,206L593,216L593,216L593,216L593,218L593,220L605,230L593,220L605,230L605,230L605,232L605,230L605,234L607,235L607,235L607,235L611,244L611,244L611,245L615,250L615,250L615,250L615,252L619,258L619,258L620,258L620,260L623,263L624,264L626,267L626,277L626,268L628,280L627,277L632,284L632,283L633,289L633,289L633,289L633,301L633,301L634,302L634,302L634,303L634,311L634,303L634,313L635,316L635,317L635,317L632,322L636,327L637,329L636,327L638,331L638,331L638,339L638,339L638,338L637,337L638,339L643,354L634,352L638,339L643,354L643,354L639,360L640,360L641,363L643,366L642,371L646,380L646,375L647,384L647,388L643,398L641,404L645,391L641,413L641,408L641,410L641,404L641,415L641,413L643,424L641,417L643,424L647,433L646,431L646,431L647,433L647,433L647,434L647,434L646,441L646,441L646,441L646,457L646,457L647,461L647,463L647,461L667,465L667,467L667,467L667,466L668,470L668,481L668,481L668,470L668,481L668,483L669,487L668,485L669,487L671,505L670,497L670,499L670,499L671,508L671,512L671,508L671,513L671,513L671,513L671,513L671,513L671,513L667,539L663,525L663,527L667,539L667,539L667,539L646,538L645,543L645,543L645,543L645,543L645,543L638,558L639,547L638,559L638,559L638,559L638,559L633,569L631,570L627,578L627,578L633,569L635,562L626,582L626,582L625,583L625,583" fill="none" stroke="#000000" style="-webkit-tap-highlight-color: rgba(0, 0, 0, 0); stroke-linecap: round; stroke-linejoin: round; stroke-width: 6;" /><path d="M623,583L616,591L616,593L616,593L615,596L615,598L613,600L610,601L609,602L610,601L612,607L609,603L611,612L612,609L610,616L608,617L610,620L608,618L610,620L612,621L615,627L614,625L615,629L615,631L620,640L618,635L619,636L619,642L619,644L617,649L618,647L618,648L617,655L617,655L619,655L616,655L617,655L619,655" fill="none" stroke="#000000" style="-webkit-tap-highlight-color: rgba(0, 0, 0, 0); stroke-linecap: round; stroke-linejoin: round; stroke-width: 6;" /><path d="M424.83,357.52L425,363L420,364L420,364L420,366L420,368L419,373L423,372L421,386L421,387L425,391L427,402L426,397L429,407L433,416L430,418L431,422L432,426L431,427L431,433L431,438L431,435L430,445L431,447L431,447L432,458L434,464L434,469L436,471L437,481L437,483L438,488L440,496L440,491L439,502L440,504L440,509L440,512L440,508L439,513L441,516L440,519L440,521L441,523L443,530L441,527L443,532L441,525L445,543L443,536L443,538L443,534L444,544L447,554L447,552L447,552L442,562L442,564L443,568L443,572L443,575L443,575L443,575L443,588L443,588L456,589L456,589L452,594L452,594L454,596L452,596L454,596L453,607L453,607L454,610L454,610L454,610L453,618L453,618L454,620L454,620L453,628L453,628L454,629L456,633L454,630L456,635L456,635L456,635L458,635" fill="none" stroke="#000000" style="-webkit-tap-highlight-color: rgba(0, 0, 0, 0); stroke-linecap: round; stroke-linejoin: round; stroke-width: 6;" /><path d="M463,642L463,642L463,642L463,642L465,643L465,647L467,647L467,649L468,649L471,651L471,649L476,654L472,651L480,654L478,654L484,654L482,654L486,654L487,655" fill="none" stroke="#000000" style="-webkit-tap-highlight-color: rgba(0, 0, 0, 0); stroke-linecap: round; stroke-linejoin: round; stroke-width: 6;" /><path d="M241.66,662.07L239,664L238,664L237,661L237,658L237,655L237,651L237,651L237,648L239,647L242,646L243,645L246,642L250,640L247,642L255,639L259,639L266,629L262,640L269,629L275,627L281,620L277,626L280,620L286,619L287,619L293,622L296,617L297,617L315,615L298,616L298,616L315,615L315,615L323,617L319,614L317,613L327,616L330,616L332,615L337,615L350,614L338,616L346,613L341,614L359,620L354,628L360,625L363,624L368,626L366,625L372,627L370,626L372,627L377,628L378,629L380,628L380,628L387,627L394,633L394,633L396,633L401,630L402,630L402,630L403,629L419,637L420,640L420,643L429,644L425,641L431,646L431,646L442,652L445,652L442,652L447,652L450,653L456,654L459,656L458,654L464,660L466,661L465,659L466,659L470,666L466,661L470,666L471,666L476,666L472,666L480,668L478,669L482,667L482,667L490,671L490,671L491,671L492,671L492,673L492,671L506,669L506,669L506,669L506,669L514,672L514,672L514,672L514,672L520,670L533,678L523,670L535,678" fill="none" stroke="#000000" style="-webkit-tap-highlight-color: rgba(0, 0, 0, 0); stroke-linecap: round; stroke-linejoin: round; stroke-width: 6;" /><path d="M536,679L549,670L549,670L551,674L553,673L555,675L559,675L557,675L561,675L564,674L568,675L569,675L566,676L573,674L580,675L584,673L580,673L585,670L593,665L599,664L606,664L626,663L610,662L615,662L626,658L628,658L620,662L620,662L623,663L630,659L630,658L630,658L630,658L630,658" fill="none" stroke="#000000" style="-webkit-tap-highlight-color: rgba(0, 0, 0, 0); stroke-linecap: round; stroke-linejoin: round; stroke-width: 6;" /><path d="M367.45,410.48L366,413L364,413L365,416L365,419L365,426L367,430L366,438L370,439L370,445L372,450L371,461L368,455L372,464L372,466L372,470L373,474L372,476L371,479L372,483L372,481L371,486L371,492L371,492L371,494L373,501L373,501L373,501L376,503L376,508L377,506L378,514L378,512L381,515L382,519L382,523L383,525L383,527L385,530L385,537L385,532L385,534L385,538L383,541L385,544L385,546L385,545L388,555L385,546L388,556L388,555L387,560L390,562L388,557L390,565L393,572L390,567L390,569" fill="none" stroke="#000000" style="-webkit-tap-highlight-color: rgba(0, 0, 0, 0); stroke-linecap: round; stroke-linejoin: round; stroke-width: 6;" /><path d="M393,574L392,576L392,577L391,583L391,583L391,583L392,597L391,583L392,597L393,598L394,599L396,599L398,600L401,605L404,606L405,609L407,612L410,613L409,618L409,618L409,619L409,619L414,621L413,620L414,620L418,619" fill="none" stroke="#000000" style="-webkit-tap-highlight-color: rgba(0, 0, 0, 0); stroke-linecap: round; stroke-linejoin: round; stroke-width: 6;" /><path d="M9.93,681.93L15,678L15,682L15,684L15,684L15,684L18,682L28,687L32,676L36,676L43,675L49,677L53,679L56,679L58,679L66,683L75,681L69,683L78,684L85,687L90,688L94,688L98,687L102,688L107,687L107,687L118,700" fill="none" stroke="#000000" style="-webkit-tap-highlight-color: rgba(0, 0, 0, 0); stroke-linecap: round; stroke-linejoin: round; stroke-width: 6;" /><path d="M114,686L165,714L165,714L120,702L182,725L183,724L191,719L193,719L198,719L132,706L132,706" fill="none" stroke="#000000" style="-webkit-tap-highlight-color: rgba(0, 0, 0, 0); stroke-linecap: round; stroke-linejoin: round; stroke-width: 6;" /><path d="M206.34,655.45" fill="none" stroke="#000000" style="-webkit-tap-highlight-color: rgba(0, 0, 0, 0); stroke-linecap: round; stroke-linejoin: round; stroke-width: 6;" /><path d="M132,706" fill="none" stroke="#000000" style="-webkit-tap-highlight-color: rgba(0, 0, 0, 0); stroke-linecap: round; stroke-linejoin: round; stroke-width: 6;" /><path d="M202,719L136,707" fill="none" stroke="#000000" style="-webkit-tap-highlight-color: rgba(0, 0, 0, 0); stroke-linecap: round; stroke-linejoin: round; stroke-width: 6;" /><path d="M206,720L209,717L211,717L145,716L141,711" fill="none" stroke="#000000" style="-webkit-tap-highlight-color: rgba(0, 0, 0, 0); stroke-linecap: round; stroke-linejoin: round; stroke-width: 6;" /><path d="M211,717L147,716L157,715L159,716" fill="none" stroke="#000000" style="-webkit-tap-highlight-color: rgba(0, 0, 0, 0); stroke-linecap: round; stroke-linejoin: round; stroke-width: 6;" /><path d="M211,653L208,660L204,661L206,659L202,662L206,658" fill="none" stroke="#000000" style="-webkit-tap-highlight-color: rgba(0, 0, 0, 0); stroke-linecap: round; stroke-linejoin: round; stroke-width: 6;" /><path d="M202,664L198,666L195,667L200,664L193,667L186,678L187,673L191,668L182,684L184,682L185,680L182,685L180,692L180,689L178,697L180,695L178,700L179,702L180,703L179,702L180,703L186,707L248.28,723.86L248,723L259,720L259,720L261,722L261,722L281,726L281,728L303,727L283,729L300,739L308,737L308,738L308,737L308,738L323,751L327,751L330,751L330,751L341,750L341,750L342,752L343,755L345,756L348,757L350,760L352,761L354,760L360,761L363,762L363,762L365,762L370,763L370,763" fill="none" stroke="#000000" style="-webkit-tap-highlight-color: rgba(0, 0, 0, 0); stroke-linecap: round; stroke-linejoin: round; stroke-width: 6;" /><path d="M375,764L375,764L377,777L377,777L377,777L377,777L377,777L376,778" fill="none" stroke="#000000" style="-webkit-tap-highlight-color: rgba(0, 0, 0, 0); stroke-linecap: round; stroke-linejoin: round; stroke-width: 6;" /><path d="M471.17,690.76L472,683L473,682L471,681L467,682L464,684L462,685L462,684L459,686L460,690L460,690L462,696L463,692L465,703L468,706L467,711L467,717L468,722L461,728L454,735L455,729L449,736L443,737L440,742L442,739L439,743L438,744L435,746L435,754L435,748L434,756L433,759L427,767L432,763L421,767L420,768L420,771L418,769L417,771" fill="none" stroke="#000000" style="-webkit-tap-highlight-color: rgba(0, 0, 0, 0); stroke-linecap: round; stroke-linejoin: round; stroke-width: 6;" /><path d="M416,775L414,775L413,777L413,777" fill="none" stroke="#000000" style="-webkit-tap-highlight-color: rgba(0, 0, 0, 0); stroke-linecap: round; stroke-linejoin: round; stroke-width: 6;" /><path d="M497.66,690.76L495,685L495,689L493,683L491,684L497,684L502,688L509,691L515,693L519,694L524,698L529,703L536,704L542,703L545,707L552,705L557,710L561,707L575,714L572,712L565,708L584,708L597,713L597,719L596,712L589,710L599,719L609,720L611,723L607,718L617,722L623,726L618,724" fill="none" stroke="#000000" style="-webkit-tap-highlight-color: rgba(0, 0, 0, 0); stroke-linecap: round; stroke-linejoin: round; stroke-width: 6;" /><path d="M625,728L638.9,745.93L628,728L628,728L632,730L634,730L639,730L638,742L637,730L637,739L641,739L645,742L641,741L647,745L647,750L649,756L647,753L650,757L650,759L651,761L650,764L646,764L646,766L642,766L641,766L639,765L637,768L633,768L628,769L622,770L619,769L615,772L617,772L609,772L610,771L600,774L599,773L597,773L588,772L586,770L584,769L577,769L573,767L577,769L569,770L564,770L557,771L553,772L547,771L544,772L541,775L542,771L537,775L535,777L533,777L530,779L526,777L523,779L522,780L518,783L521,781L513,783L511,783L509,787L501,788L504,788L500,788L494,787L494,790L489,790L488,790L482,789L480,788L475,787L471,783L473,786L466,779L467,783L464,777L465,774L463,775L464,774L457,766L457,766L456,766L455,764" fill="none" stroke="#000000" style="-webkit-tap-highlight-color: rgba(0, 0, 0, 0); stroke-linecap: round; stroke-linejoin: round; stroke-width: 6;" /><path d="M451,764L450,764L445,765L442,768L442,768L439,771L432,765L429,770L427,770L425,772L415,777L420,773L413,777L410,777L410,778L401,784L400,784L390,785L387,785L387,785L377,777L376,778L375,778L374,779L377,777L377,777L377,777" fill="none" stroke="#000000" style="-webkit-tap-highlight-color: rgba(0, 0, 0, 0); stroke-linecap: round; stroke-linejoin: round; stroke-width: 6;" /><path d="M656.55,386.21L664,380L664,377L664,377L664,377L664,377L664,380L664,380L664,376L664,377L665,373L668,369L672,364L672,364L672,364L683,347L690,347L695,352L695,351L692,347L695,348L694,345L696,345L698,344L701,344L703,343L704,343L709,344L710,344L712,340L714,343L718,342L721,343L724,341L716,342L725,341L730,341L725,341L727,341L730,341L736,342L736,342L734,342L739,343L746,344L747,342L747,342L746,344L749,344L751,343L751,345L754,346L757,346L757,346L757,345L759,346L759,346L766,342L767,342L771,342L774,340L778,341L780,339L786,340L787,340L788,340L789,342L791,343L792,344L801,345L818,341L801,345L812,342L802,345L821,342L823,344L809,340L829,344L808,343L830,344L811,341L843,344L841,348L844,345L846,345L853,348L849,346L855,348L856,348L862,350L862,350L865,350L868,351L874,347L874,347L875,347L877,348L882,349L884,349L887,349L888,348L893,350L890,351L893,350L893,350L905,354L905,354L905,354L906,354L910,354L912,354L908,354L912,354L921,353L923,352L921,353L923,352L928,358L928,358L930,358L931,358L931,358L931,358L935,363L935,363L935,363L939,365L939,366L939,368L946,376L953,371L953,371L953,373L954,373L955,373L955,373L955,378L958,382L958,382L958,382L958,384L967,394L967,394L968,394L968,397L970,399L967.72,403.86L965,399L968,399L968,399L968,399L970,410L970,399L970,410L972,411L977,411L980,413L983,417L981,414L984,418L984,418L988,427L988,427L988,427L988,429L988,429L988,429L977,430L988,444L990,448L988,446L994,459L994,459L994,459L994,459L994,461L994,462L993,467L992,468L992,470L992,472L992,473L981,473L981,473L979,477L979,477L993,495L993,495L992,510L977,492L977,492L992,512L994,516L993,495L999,531L999,531L993,495L999,531L999,531L999,532L999,533L999,533L999,533L999,533L999,549L999,549L999,549L999,549L995,552L997,551L998,550L996,567L995,570L994,576L994,567L996,567L994,583L994,578L994,584L995,580L994,584L998,586L990,596L990,598L990,598L990,598L990,598L990,598L981,616L981,616L981,616L981,618" fill="none" stroke="#000000" style="-webkit-tap-highlight-color: rgba(0, 0, 0, 0); stroke-linecap: round; stroke-linejoin: round; stroke-width: 6;" /><path d="M982,630L982,623L982,623L982,623L982,632L987,646L982,632L982,630L987,646L987,646L987,646L987,646L987,648L987,647L987,648L987,648L987,648" fill="none" stroke="#000000" style="-webkit-tap-highlight-color: rgba(0, 0, 0, 0); stroke-linecap: round; stroke-linejoin: round; stroke-width: 6;" /><path d="M689.66,339.86L683,343L687,341L684,346L683,343L695,352L688,346L697,358L695,355L703,367L701,358L710,361L718,363L719,366L720,366L727,366L735,374L729,367L735,374L735,384L744,382L752,384L743,381L751,390L754,391L759,395L756,393L758,396L759,402L758,404L758,409L758,406L758,410L758,413L758,419L757,417L758,422L758,426L758,429L758,433L757,437L758,440L756,452L756,452L755,463L752,457L753,468L753,471L745,479L745,480L748,495L748,495L748,497L747,499L749,501L750,504L751,513L750,505L747,510L751,513L751,517L750,518L753,521L753,522L756,525L754,534L760,534L756,526L760,536L760,540L760,543L760,538L761,543L763,545L762,546L765,549L765,551L767,556L767,558L767,562L767,560L767,566L766,574L766,576L767,569L768,578L767,586L767,586L766,581L767,588" fill="none" stroke="#000000" style="-webkit-tap-highlight-color: rgba(0, 0, 0, 0); stroke-linecap: round; stroke-linejoin: round; stroke-width: 6;" /><path d="M770,595L769,591L769,599L771,599L771,603L770,606L770,606L771,609L771,611L771,614L770,616L768,620L768,622L771,627L771,629L769,633L767,638L769,640L769,645L768,647L768,649L767,658L768,652L767,655L767,660L767,661L766,666L765,664L768,670L767,671L766,672L767,675L767,677L767,675L766,672L767,671L771,666L775,666" fill="none" stroke="#000000" style="-webkit-tap-highlight-color: rgba(0, 0, 0, 0); stroke-linecap: round; stroke-linejoin: round; stroke-width: 6;" /><path d="M879.45,377.38L874,378L871,381L873,377L868,382L866,384L873,380L871,380L866,386L864,386L864,386L864,386L857,388L857,388L862,406L862,406L864,406L864,406L864,406L874,406L864,409L874,406L879,413L879,413L879,414L881,415L881,415L886,410L888,410L889,410L890,409L890,408L892,402L890,406L893,401L890,399L888,397L888,395L888,393L887,389L882,386" fill="none" stroke="#000000" style="-webkit-tap-highlight-color: rgba(0, 0, 0, 0); stroke-linecap: round; stroke-linejoin: round; stroke-width: 6;" /><path d="M882,386L882,384L882,384L882,384L880,373L882,372L879,367L881,371L876,370L876,371L880,373L876,373L880,373L883,372" fill="none" stroke="#000000" style="-webkit-tap-highlight-color: rgba(0, 0, 0, 0); stroke-linecap: round; stroke-linejoin: round; stroke-width: 6;" /><path d="M969.93,686.34L974,686L974,684L968,684L966,684L962,683L961,683L959,684L956,684L957,679L953,680L952,677L950,678L945,676L943,675L939,675L936,674L932,673L928,673L926,672L921,672L915,671L919,672L915,671L912,667L910,667L908,666L906,667L904,666L904,666L896,667L894,666L892,666L890,666L888,665L886,666L885,666L882,666L879,666L877,667L875,665L873,666L872,666L866,667L868,667L866,667L863,668L861,669L859,670L857,672L854,673L847,678L852,675L844,678L842,679L840,681L835,682L833,683L829,684L826,685L825,686L822,685L822,688L821,691L820,689L820,692L821,691L821,691L825,689L838,701L830,700L840,701L844,701L853,702L849,699L856,702L864,703L860,703L867,703L873,704L877,704L882,705L886,705L890,706L893,706" fill="none" stroke="#000000" style="-webkit-tap-highlight-color: rgba(0, 0, 0, 0); stroke-linecap: round; stroke-linejoin: round; stroke-width: 6;" /><path d="M899,707L904,709L897,707L904,709L908,720L906,709L907,720L914,714L915,716L909,720L916,718L917,721L917,726L917,726L916,728" fill="none" stroke="#000000" style="-webkit-tap-highlight-color: rgba(0, 0, 0, 0); stroke-linecap: round; stroke-linejoin: round; stroke-width: 6;" /><path d="M976.55,684.14" fill="none" stroke="#000000" style="-webkit-tap-highlight-color: rgba(0, 0, 0, 0); stroke-linecap: round; stroke-linejoin: round; stroke-width: 6;" /><path d="M913,732L913,734L915,730L917,738L914,746" fill="none" stroke="#000000" style="-webkit-tap-highlight-color: rgba(0, 0, 0, 0); stroke-linecap: round; stroke-linejoin: round; stroke-width: 6;" /><path d="M974,681L974,684" fill="none" stroke="#000000" style="-webkit-tap-highlight-color: rgba(0, 0, 0, 0); stroke-linecap: round; stroke-linejoin: round; stroke-width: 6;" /><path d="M917,738" fill="none" stroke="#000000" style="-webkit-tap-highlight-color: rgba(0, 0, 0, 0); stroke-linecap: round; stroke-linejoin: round; stroke-width: 6;" /><path d="M972,691L970,695L970,702L972,687" fill="none" stroke="#000000" style="-webkit-tap-highlight-color: rgba(0, 0, 0, 0); stroke-linecap: round; stroke-linejoin: round; stroke-width: 6;" /><path d="M967,715L969,705L969,719L968,710L967,724L968,727L968,727" fill="none" stroke="#000000" style="-webkit-tap-highlight-color: rgba(0, 0, 0, 0); stroke-linecap: round; stroke-linejoin: round; stroke-width: 6;" /><path d="M784.55,653.24L780,653L776,653L773,653L771,653L769,652L768,652L764,654L763,653L764,655L764,657L769,658L780,657L776,657L788,658L792,655L801,653L796,657L801,651L810,650L811,651L814,651L819,651L818,651L824,651L825,650L832,651L835,651L832,651L839,652L846,653L842,653L849,650L851,650L855,655L857,653L857,653L864,651L866,652L876,653L879,653L871,653L883,651L887,653L892,655L892,654L904,655L908,653L909,657L917,652L921,654L928,649L927,649" fill="none" stroke="#000000" style="-webkit-tap-highlight-color: rgba(0, 0, 0, 0); stroke-linecap: round; stroke-linejoin: round; stroke-width: 6;" /><path d="M932,653L939,653L937,653L943,651L947,651L950,651L952,651L957,649L960,649L959,648L969,646L972,647L974,647L974,647L985,648L987,648L987,648L999,651L1003,651L1007,651L1010,649L1014,649L1018,649L1021,649L1023,649" fill="none" stroke="#000000" style="-webkit-tap-highlight-color: rgba(0, 0, 0, 0); stroke-linecap: round; stroke-linejoin: round; stroke-width: 6;" /><path d="M466.76,295.72L466,291L466,298L466,300L465,305L465,307L465,311L457,318L458,320L457,318L458,321L458,321L458,321L464,329L463,333L463,333L463,333L463,333L467,335L468,335L471,337L473,337L481,334L478,335L482,337L482,337L487,339L489,339L489,338L488,335L489,331L489,326L488,322L489,318L488,312L490,311L489,309L489,307L488,307L488,307L490,302L490,300L491,298L491,296L493,294L492,293L491,296L490,298L482,292L480,292L479,292L466,298L466,298L466,298L463,293L463,293L463,293" fill="none" stroke="#000000" style="-webkit-tap-highlight-color: rgba(0, 0, 0, 0); stroke-linecap: round; stroke-linejoin: round; stroke-width: 6;" /><path d="M465,303L465,303L465,305L465,307" fill="none" stroke="#000000" style="-webkit-tap-highlight-color: rgba(0, 0, 0, 0); stroke-linecap: round; stroke-linejoin: round; stroke-width: 6;" /><path d="M619.03,664.28L623,665L643,665L627,665L647,666L650,667L628,664L635,664L653,667L660,667L659,667L639,665L665,668L670,670L674,671L671,670L683,676L692,669L696,669L692,669L701,666L708,668L716,673L716,673L714,672L731,672L731,672L732,673L737,682L738,682L751,679L752,680L751,679L739,682L768,678L756,680L756,680L756,680L772,683L773,684L772,683L778,685L780,686L789,687L785,686L789,687L790,686L793,684L793,684L793,684L795,700L816,693L816,693L816,693L816,695L816,695L824,700L820,694L826,700L829,700L830,700L833,701L835,701L838,701L840,701L842,701L844,701L849,699L846,701L851,702L853,702L855,702L857,703L860,703L862,703" fill="none" stroke="#000000" style="-webkit-tap-highlight-color: rgba(0, 0, 0, 0); stroke-linecap: round; stroke-linejoin: round; stroke-width: 6;" /><path d="M864,703L866,703L871,704L868,704L877,704L875,704L879,704L882,705L884,705L890,706L886,705L893,706L895,707L904,709L904,709L899,707L906,709L910,710L910,710L914,714L915,715L916,716L919,719L919,719L925,718" fill="none" stroke="#000000" style="-webkit-tap-highlight-color: rgba(0, 0, 0, 0); stroke-linecap: round; stroke-linejoin: round; stroke-width: 6;" /><path d="M60.69,999.72L68,995L64,996L89,977L74,991L94,976L100,970L81,987L104,969L87,979L120,962L111,967L129,961L139,957L149,955L158,955L169,958L178,954L186,952L195,953L206,953L215,952L225,949L234,953L243,946L253,949L262,949L284,948L274,949L294,949L303,949L332,948L314,948L323,949L339,947L348,947L354,946L365,945L359,945L372,945L378,945L385,945L392,944L397,945L405,945L414,944L434,940L425,942L447,940L457,938L471,935L484,933L499,930L513,928L540,925L526,926L552,922L567,920L579,920L601,914L589,916L613,914L633,911L624,911L643,913L650,914L659,916L672,920L665,917L687,925L696,927L702,927L681,922L709,927L727,927L739,927L717,927L748,927L775,927L765,927L756,927" fill="none" stroke="#000000" style="-webkit-tap-highlight-color: rgba(0, 0, 0, 0); stroke-linecap: round; stroke-linejoin: round; stroke-width: 6;" /><path d="M782,927L790,929L807,930L799,928L815,935L822,934L831,937L840,936L845,935L853,935L868,938L862,938L876,936L884,936L889,934L895,933L901,932L910,931L915,932L927,931L928,931L932,928L941,927L936,926L945,926L949,927L954,927L959,928L964,925L980,930L972,923L982,928L988,933L1000,936L995,936L999,938L1001,939L999,934" fill="none" stroke="#000000" style="-webkit-tap-highlight-color: rgba(0, 0, 0, 0); stroke-linecap: round; stroke-linejoin: round; stroke-width: 6;" /><path d="M985.38,732.69L984,730L983,730L981,732L977,733L975,733L971,733L961,733L959,734L952,734L948,736L941,735L935,737L921,739L928,737L917,738L906,738L897,737L888,737L884,736L882,739L878,733L877,734L873,733L871,733L865,733L865,733L855,734L853,733L848,733L839,734L844,733L829,732L834,731L823,732L820,732L816,733L811,732L804,734L800,735L797,735L791,737L782,742L788,738L776,744L778,742L771,746L770,746L767,748L763,749L760,750L757,753L751,755L751,755L745,758L743,758L739,760L736,761L731,765L727,766L720,767L725,766L716,770L712,771L710,775L701,779L694,778L687,782L675,786L681,783L668,787L663,787L659,787L655,787L650,790L648,792" fill="none" stroke="#000000" style="-webkit-tap-highlight-color: rgba(0, 0, 0, 0); stroke-linecap: round; stroke-linejoin: round; stroke-width: 6;" /><path d="M646,791L641,792L639,791L633,792L630,791L620,792L627,792L617,791L614,792L601,787L607,795L598,787L597,788L593,794L597,788L588,786L588,796L588,797L588,796L588,798" fill="none" stroke="#000000" style="-webkit-tap-highlight-color: rgba(0, 0, 0, 0); stroke-linecap: round; stroke-linejoin: round; stroke-width: 6;" /><path d="M197.52,737.1L200,730L191,733L198,730L189,737L195,730L184,734L192,733L182,746L173,751L171,751L166,753L161,753L161,753L155,764L153,763L147,768L152,766L147,772L139,775L139,777L138,779L132,779L129,781L126,783L125,786L122,786L114,785L122,786L118,791L118,791L111,794L105,791L105,791L108,802L97,803L96,805L97,803L94,805L92,806L88,809L84,812L82,812L81,814L77,814L73,817L75,817L72,818" fill="none" stroke="#000000" style="-webkit-tap-highlight-color: rgba(0, 0, 0, 0); stroke-linecap: round; stroke-linejoin: round; stroke-width: 6;" /></svg>