<?xml version="1.0" encoding="utf-8" ?>
<svg baseProfile="full" height="726" version="1.1" width="1024" xmlns="http://www.w3.org/2000/svg" xmlns:ev="http://www.w3.org/2001/xml-events" xmlns:xlink="http://www.w3.org/1999/xlink"><defs /><path d="M202.26,315.71L202.26,316.45L201.52,317.95L201.52,320.19L201.52,322.43L200.77,324.66L200.77,326.9L200.77,329.14L200.77,331.38L201.52,335.11L201.52,338.1L201.52,341.83L201.52,345.56L200.77,350.79L200.77,353.77L200.77,357.5L201.52,361.24L201.52,363.48L201.52,368.7L202.26,372.43L202.26,376.16L202.26,379.9L203.01,385.12L203.01,388.1L203.76,391.09L203.76,394.82L203.76,397.06L203.76,402.29L203.76,405.27L203.76,409L203.76,411.24L203.76,416.47L204.5,418.71L204.5,421.69L204.5,423.18L204.5,428.41L205.25,433.63L204.5,436.62L204.5,440.35L204.5,442.59L205.25,447.81L205.25,450.8L205.25,451.55L205.25,458.26L205.25,461.99L205.99,465.73L205.99,469.46L207.49,484.38L208.23,485.88L208.23,488.12L208.98,491.1L208.98,493.34L210.47,497.07L210.47,498.57L211.22,500.8" fill="none" stroke="#000000" style="-webkit-tap-highlight-color: rgba(0, 0, 0, 0); stroke-linecap: round; stroke-linejoin: round; stroke-width: 5;" /><path d="M0.75,629.18" fill="none" stroke="#000000" style="-webkit-tap-highlight-color: rgba(0, 0, 0, 0); stroke-linecap: round; stroke-linejoin: round; stroke-width: 5;" /><path d="M2.99,626.19L8.96,623.21L14.18,620.22L20.15,616.49L47.77,598.58L51.5,596.34L56.72,593.35L71.65,581.41L82.1,576.19L91.06,570.22L100.01,564.24L108.97,558.27L118.67,553.8L133.6,544.09L143.3,538.87L152.26,534.39L159.72,529.91L170.92,525.43L178.38,523.2L184.35,519.46L189.57,515.73L194.05,513.49L198.53,510.51L200.77,507.52" fill="none" stroke="#000000" style="-webkit-tap-highlight-color: rgba(0, 0, 0, 0); stroke-linecap: round; stroke-linejoin: round; stroke-width: 5;" /><path d="M8.21,258.99L7.46,257.49L6.72,255.25L8.21,253.76L9.7,252.27L13.43,250.78L17.17,250.03L25.38,251.52L31.35,252.27L38.06,253.01L47.02,253.76L57.47,253.76L73.14,253.76L83.59,253.01L93.29,251.52L108.22,249.28L117.92,247.79L126.88,246.3L135.84,245.55L144.79,244.8L156.73,244.8L167.93,243.31L176.89,242.57L185.84,241.82L197.78,241.07L205.99,240.33L214.2,239.58L222.41,238.09L230.62,237.34L238.09,235.85L250.03,234.36L258.24,232.86L266.45,232.12L278.39,230.62L288.84,228.38L297.05,227.64L304.51,226.89L312.72,226.15L320.19,225.4L329.14,224.65L332.87,224.65L338.1,223.91" fill="none" stroke="#000000" style="-webkit-tap-highlight-color: rgba(0, 0, 0, 0); stroke-linecap: round; stroke-linejoin: round; stroke-width: 5;" /><path d="M30.6,211.22L29.11,208.98L29.11,207.49L29.11,205.99L32.09,204.5L35.83,203.01L40.3,201.52L47.77,198.53L52.99,195.55L58.96,193.31L64.93,191.07L73.89,188.08L79.11,185.84L84.34,184.35L88.07,182.86L91.8,182.11L97.03,179.13L100.76,176.89L105.24,174.65L108.97,172.41L112.7,170.17L117.92,166.44L122.4,164.94L126.13,163.45L132.1,161.21L138.08,158.97L143.3,157.48L148.52,155.99L164.94,153.75L167.18,153L171.66,153L175.39,153L181.36,153L186.59,152.26L191.81,153L196.29,153L201.52,152.26L207.49,151.51L214.2,150.76L219.43,149.27L224.65,148.52L231.37,147.03L233.61,146.29L241.07,146.29L246.3,145.54L250.78,144.79L254.51,144.79L260.48,146.29L263.46,146.29L267.2,145.54L270.18,144.79L273.91,144.05L279.88,144.05L284.36,144.05L288.09,144.05L292.57,143.3L297.8,143.3L301.53,142.55L304.51,142.55L308.99,142.55L313.47,142.55L316.45,142.55L318.69,142.55L320.93,142.55L323.92,143.3L326.16,143.3L326.9,144.05L329.14,144.79L331.38,145.54L334.37,146.29L336.61,147.03L338.85,147.78L340.34,148.52L341.83,149.27L344.82,150.76L345.56,151.51L347.06,152.26L348.55,152.26L349.29,153L350.79,153.75L352.28,154.5L353.03,155.24L353.77,155.99L354.52,155.99L356.01,157.48L356.76,158.23L357.5,158.97L359,162.71L359.74,163.45L360.49,165.69L360.49,167.18L361.24,170.17L361.24,172.41L361.24,174.65L361.24,177.63L361.98,179.87L361.98,182.11L362.73,184.35L363.48,186.59L363.48,189.57L363.48,192.56L363.48,194.05L363.48,205.99L363.48,212.71L363.48,218.68L362.73,223.16L361.98,228.38L361.98,232.12L361.24,238.83L361.24,241.07L361.24,244.06L361.24,247.04L361.24,251.52L361.24,255.25L361.24,258.24L361.24,261.97L360.49,264.96L360.49,268.69L360.49,270.93L360.49,274.66L360.49,278.39L360.49,282.12L360.49,288.09L360.49,292.57L360.49,296.3L360.49,298.54L361.24,301.53L361.24,305.26L361.24,307.5L361.24,308.99L361.98,310.48L361.98,311.98" fill="none" stroke="#000000" style="-webkit-tap-highlight-color: rgba(0, 0, 0, 0); stroke-linecap: round; stroke-linejoin: round; stroke-width: 5;" /><path d="M300.03,130.61L300.03,129.87L300.78,129.87L302.27,129.87L306.75,128.37L311.23,126.88L315.71,125.39L323.17,123.15L329.14,120.91L335.11,119.42L340.34,117.18L347.06,114.94L350.79,114.19L354.52,114.19L358.25,113.45L361.98,113.45L367.21,112.7L370.19,112.7L373.18,112.7L376.16,112.7L379.9,114.19L382.13,115.69L384.37,116.43L386.61,117.92L388.85,118.67L392.58,120.91L396.31,121.66L400.05,123.9L403.03,124.64L408.26,126.88L411.99,128.37L414.97,129.87L418.71,132.1L422.44,133.6L427.66,135.84L430.65,136.58L434.38,138.08L437.36,139.57L442.59,140.31L445.57,141.06L451.55,143.3L453.78,143.3L455.28,144.79L456.77,145.54L458.26,146.29L459.76,147.78L461.99,149.27L463.49,150.02L464.98,150.76L466.47,150.76L467.97,152.26L468.71,153L469.46,153.75L470.95,154.5L471.7,155.24L473.19,155.99L473.94,158.23L474.68,158.97L476.17,160.47L476.92,161.21L478.41,163.45L479.16,164.94L479.91,167.18L480.65,168.68L481.4,170.92L482.15,172.41L482.89,175.39L482.89,177.63L483.64,180.62L483.64,184.35L484.38,186.59L484.38,189.57L484.38,194.05L484.38,197.04L484.38,200.77L484.38,204.5L485.13,208.98L485.88,213.46L487.37,218.68L488.12,221.67L488.86,225.4L490.36,229.88L491.1,234.36L491.1,237.34L491.85,239.58L491.85,243.31L491.85,247.04L493.34,251.52L494.09,254.51L494.83,256.75L494.83,260.48L496.33,264.21L497.07,267.94L498.57,270.18L499.31,273.91L500.06,278.39L500.8,283.62L501.55,288.84L504.54,303.02L505.28,306.75L506.03,308.99L506.78,311.98L506.78,313.47L507.52,315.71L508.27,316.45" fill="none" stroke="#000000" style="-webkit-tap-highlight-color: rgba(0, 0, 0, 0); stroke-linecap: round; stroke-linejoin: round; stroke-width: 5;" /><path d="M421.69,142.55L421.69,141.81L421.69,141.06L420.94,141.06L420.94,141.81L420.94,143.3L420.2,147.78L420.2,157.48L419.45,162.71L418.71,168.68L417.96,173.9L417.21,182.86L416.47,189.57L415.72,195.55L414.97,201.52L413.48,206.74L412.73,215.7L412.73,222.41L412.73,229.13L412.73,235.85L412.73,247.04L412.73,253.76L412.73,259.73L412.73,277.64L413.48,280.63L414.23,287.35L414.23,293.32L414.97,301.53L414.23,306.75L414.23,312.72L414.23,314.96L414.97,321.68L415.72,323.92" fill="none" stroke="#000000" style="-webkit-tap-highlight-color: rgba(0, 0, 0, 0); stroke-linecap: round; stroke-linejoin: round; stroke-width: 5;" /><path d="M339.59,298.54L340.34,298.54L341.08,297.8L343.32,298.54L346.31,299.29L349.29,300.03L352.28,301.53L356.01,303.02L361.98,305.26L366.46,306.75L370.94,307.5L376.16,309.74L379.9,311.23L387.36,311.98L392.58,311.98L397.06,312.72L401.54,312.72L417.21,313.47L419.45,313.47L423.93,313.47L426.92,313.47L429.9,314.22L433.63,314.22L438.11,314.96L441.84,314.96L448.56,317.2L453.04,317.95L456.77,318.69L460.5,319.44L465.73,320.93L471.7,322.43L473.19,322.43" fill="none" stroke="#000000" style="-webkit-tap-highlight-color: rgba(0, 0, 0, 0); stroke-linecap: round; stroke-linejoin: round; stroke-width: 5;" /><path d="M484.38,315.71L484.38,314.96L485.13,314.96L488.86,312.72L490.36,312.72L491.1,312.72L492.59,312.72L497.82,313.47L501.55,313.47L506.03,314.22L509.76,314.96L514.99,316.45L517.22,317.95L519.46,317.95L521.7,318.69L524.69,320.19L526.93,321.68L529.17,323.17L531.41,325.41L532.9,327.65L535.14,329.89L536.63,330.64L537.38,331.38L538.12,331.38L539.62,332.13L540.36,332.87L541.11,334.37L541.11,335.11L541.85,335.11L541.85,336.61L541.85,338.1L541.85,339.59L541.85,341.08L541.85,341.83L541.85,343.32L541.85,345.56L541.11,347.06L541.11,347.8L541.11,349.29L541.11,350.79L541.11,352.28L541.11,353.03L541.85,353.77L544.09,353.77L545.59,353.77L547.83,353.77L549.32,353.77L551.56,353.03L554.54,352.28L557.53,351.53L561.26,351.53L562.75,350.79L569.47,350.04" fill="none" stroke="#000000" style="-webkit-tap-highlight-color: rgba(0, 0, 0, 0); stroke-linecap: round; stroke-linejoin: round; stroke-width: 5;" /><path d="M566.48,353.77L567.98,353.03L570.22,350.79L573.2,349.29L576.19,347.06L579.17,344.82L582.9,341.83L588.87,338.1L592.61,335.86L596.34,334.37L600.07,333.62L603.8,332.87L609.03,329.89L612.76,328.4L615.74,326.9L618.73,326.16L623.21,324.66L626.19,323.92L628.43,323.17L629.92,321.68L632.16,320.93L634.4,319.44L635.9,319.44L636.64,318.69L638.88,317.2L641.12,315.71L644.85,313.47L647.84,311.23L649.33,308.24L651.57,305.26L654.55,302.27L656.79,300.03L659.03,300.03L660.52,299.29L661.27,298.54L662.76,297.05L665,294.06L665.75,292.57L666.5,290.33L667.24,288.84L667.99,285.85L668.73,284.36L670.23,278.39L670.23,277.64L670.23,276.9L670.23,275.41L670.23,273.91L670.97,273.17L670.97,271.67L671.72,270.18L672.47,269.43L674.71,266.45L674.71,264.96L676.2,264.21L677.69,262.72L678.44,261.97L679.93,260.48L680.68,259.73L681.42,258.99L682.92,257.49L684.41,256.75L687.39,256L688.89,254.51L689.63,253.76L690.38,253.01L691.13,252.27L691.87,250.78L692.62,249.28L694.11,247.79L694.86,246.3L696.35,244.06L697.1,242.57L697.1,241.07L697.1,238.83L697.1,238.09L699.34,233.61L700.83,231.37L702.32,228.38L703.81,225.4L706.05,220.92L706.8,217.94L707.55,214.95L708.29,211.97L710.53,208.23L712.02,205.25L714.26,202.26L717.25,200.02L719.49,197.78L723.97,195.55L726.2,194.8L728.44,193.31L729.94,191.81L732.17,190.32L735.91,187.34L739.64,184.35L744.86,180.62L752.33,176.14L765.76,170.17L773.97,165.69L779.94,161.96L783.67,158.23L786.66,153.75L785.91,151.51L785.91,150.76L785.17,150.02L784.42,148.52L784.42,147.78L784.42,145.54L785.91,144.79L787.41,142.55L791.88,139.57L795.62,137.33L799.35,135.09L804.57,132.1L808.3,129.87L812.03,129.12L815.02,128.37L818.75,126.88L821.74,126.13L825.47,124.64L826.96,124.64L829.95,124.64L832.19,124.64L833.68,124.64L835.17,124.64L837.41,124.64L839.65,125.39L842.64,126.13L845.62,126.13L848.61,126.13L850.85,126.88L853.08,126.88L856.07,126.13L858.31,126.88L859.8,126.88L861.29,126.88L862.79,127.63L865.03,127.63L866.52,127.63L867.27,129.12L869.5,129.12L869.5,129.87L870.25,130.61L871,130.61L871.74,131.36L872.49,132.1L873.98,133.6L874.73,135.09L875.48,135.84L876.22,137.33L878.46,140.31L879.95,141.81L881.45,144.79L882.19,147.78L883.69,152.26" fill="none" stroke="#000000" style="-webkit-tap-highlight-color: rgba(0, 0, 0, 0); stroke-linecap: round; stroke-linejoin: round; stroke-width: 5;" /><path d="M883.69,165.69L885.18,167.18L886.67,169.42L891.9,173.15L895.63,176.14L899.36,178.38L902.34,180.62L906.82,183.6L909.81,185.84L912.79,188.83L915.78,191.07L918.02,193.31L921,197.04L922.5,200.02L927.72,204.5L930.71,206.74L935.93,211.97L938.92,215.7L942.65,219.43L946.38,222.41L949.36,225.4L954.59,231.37L957.57,235.85L968.02,244.06L973.99,246.3L979.97,248.54L985.19,249.28" fill="none" stroke="#000000" style="-webkit-tap-highlight-color: rgba(0, 0, 0, 0); stroke-linecap: round; stroke-linejoin: round; stroke-width: 5;" /><path d="M703.81,262.72L703.81,260.48L706.8,257.49L708.29,256.75L709.04,256.75L710.53,256.75L713.52,256.75L717.99,257.49L721.73,257.49L726.2,258.24L735.16,259.73L737.4,260.48L741.88,261.22L747.85,261.97L754.57,262.72L763.52,264.21L770.24,265.7L776.21,265.7L782.93,266.45L789.64,266.45L801.59,266.45L809.8,265.7L817.26,264.96L825.47,264.21L835.92,264.21L842.64,264.21L850.1,263.46L856.07,262.72L862.79,263.46L871.74,264.21L879.21,264.21L886.67,264.21L894.13,263.46L904.58,262.72L911.3,261.97L918.02,261.97L923.99,261.97L929.96,261.22L937.42,261.22L942.65,261.22L948.62,260.48L954.59,260.48L964.29,259.73L970.26,259.73L973.25,258.99" fill="none" stroke="#000000" style="-webkit-tap-highlight-color: rgba(0, 0, 0, 0); stroke-linecap: round; stroke-linejoin: round; stroke-width: 5;" /><path d="M692.62,261.97L690.38,260.48L690.38,259.73L693.36,258.99L697.1,258.99L702.32,258.99L707.55,259.73L717.25,260.48L723.97,261.97L731.43,263.46L744.86,264.21L755.31,264.21L765.76,264.21L774.72,264.96L782.93,265.7L790.39,265.7L802.33,266.45L808.3,265.7L814.27,265.7L820.24,266.45L827.71,266.45L832.93,267.2L838.16,267.94L844.13,268.69L850.1,268.69L859.8,269.43L865.77,270.18L871.74,270.93L878.46,271.67L887.42,270.93L894.13,270.93L900.85,270.93L908.31,270.93L915.78,271.67L926.23,272.42L929.96,272.42L939.66,273.91L948.62,274.66L956.83,274.66L963.55,275.41L971.01,275.41L978.47,276.15L985.94,276.15L997.13,276.15L1009.82,277.64L1013.55,277.64L1015.04,278.39" fill="none" stroke="#000000" style="-webkit-tap-highlight-color: rgba(0, 0, 0, 0); stroke-linecap: round; stroke-linejoin: round; stroke-width: 5;" /><path d="M673.96,270.93L673.21,270.18L672.47,270.18L670.23,273.91L668.73,278.39L667.24,285.11L666.5,291.83L666.5,301.53L665.75,308.24L665,317.95L665.75,321.68L665.75,328.4L666.5,338.1L666.5,343.32L666.5,348.55L666.5,353.03L665.75,359.74L665,364.97L664.26,368.7L663.51,373.18L662.76,378.4L662.76,385.12L662.76,389.6L662.76,393.33L662.76,399.3L662.76,403.78L662.76,407.51L662.76,411.99L662.76,415.72L662.76,419.45L662.76,425.42L662.76,426.92L662.76,428.41L662.76,432.89L662.76,438.11L662.76,441.84L662.76,444.83L662.02,447.07L661.27,453.04L660.52,458.26L659.78,461.99L659.03,464.23L658.29,466.47L658.29,470.95L657.54,473.19L657.54,476.17L656.79,479.16L656.05,480.65L655.3,485.13L655.3,487.37L654.55,488.12L653.81,490.36L653.06,491.85L652.31,493.34L650.82,495.58L650.08,497.82L649.33,497.82L646.34,502.3L644.1,504.54L642.61,507.52L640.37,511.25L639.63,512.75L638.13,515.73L637.39,517.22L637.39,518.72L636.64,521.7L634.4,522.45L633.66,523.94L632.16,525.43L629.92,529.17L629.18,530.66L628.43,531.41L627.69,532.15L626.19,533.64L624.7,534.39L623.21,535.88L622.46,538.12L621.71,539.62L620.22,541.11L617.98,544.09L616.49,547.08L616.49,548.57L615.74,551.56L615.74,555.29L615,556.03L613.5,558.27L612.76,560.51L612.01,563.5L612.01,565.74L612.01,567.98L612.01,571.71L612.01,573.95L612.01,576.93L612.01,579.17L612.01,581.41L612.76,583.65L613.5,587.38L614.25,590.37L613.5,591.11L613.5,594.1L613.5,594.85L612.76,596.34L612.01,601.56L611.27,603.8L611.27,607.53L611.27,609.77L612.01,612.01L612.76,615L613.5,617.24L615,620.97L615,621.71L617.24,623.21" fill="none" stroke="#000000" style="-webkit-tap-highlight-color: rgba(0, 0, 0, 0); stroke-linecap: round; stroke-linejoin: round; stroke-width: 5;" /><path d="M625.45,619.48L621.71,617.24L619.48,616.49L618.73,616.49L617.24,616.49L616.49,616.49L615.74,618.73L615,621.71L614.25,623.21L613.5,626.19L614.25,629.92L615.74,632.16L616.49,635.15L617.24,638.13L618.73,640.37L621.71,641.87L628.43,644.85L632.16,644.85L636.64,643.36L639.63,644.85L642.61,646.34L645.6,646.34L648.58,646.34L652.31,645.6L659.03,641.87L668.73,638.88L673.96,638.13L678.44,638.88L682.17,638.88L689.63,638.13L694.86,637.39L707.55,634.4L709.04,634.4L711.28,633.66L716.5,632.16L722.47,630.67L727.7,628.43L736.65,626.19L740.38,625.45L744.86,623.95L750.09,623.21L755.31,622.46L761.28,621.71L765.76,621.71L769.49,621.71L773.22,621.71L780.69,620.97L786.66,620.97L791.88,620.97L797.11,621.71L802.33,620.97L810.54,621.71L815.77,622.46L820.99,622.46L826.22,622.46L832.93,623.21L835.92,623.21L838.9,623.95L843.38,623.95L847.86,623.21L856.07,622.46" fill="none" stroke="#000000" style="-webkit-tap-highlight-color: rgba(0, 0, 0, 0); stroke-linecap: round; stroke-linejoin: round; stroke-width: 5;" /><path d="M829.2,629.92L830.69,629.18L832.93,626.94L838.9,624.7L844.13,623.21L850.1,622.46L856.07,622.46L862.04,621.71L867.27,621.71L876.97,623.95L882.94,625.45L888.91,626.94L897.87,629.18L903.09,630.67L909.06,631.42L915.03,633.66L920.26,635.15L926.23,635.9L935.93,637.39L943.39,637.39L951.6,637.39L964.29,637.39L974.74,635.9L986.68,632.16L1001.61,627.69" fill="none" stroke="#000000" style="-webkit-tap-highlight-color: rgba(0, 0, 0, 0); stroke-linecap: round; stroke-linejoin: round; stroke-width: 5;" /><path d="M223.16,481.4L222.41,479.16L221.67,478.41L223.16,478.41L226.15,478.41L238.09,481.4L244.8,485.13L250.78,488.12L256.75,491.85L264.96,494.09L270.18,494.83L276.9,496.33L286.6,497.82L289.59,498.57L300.03,501.55L306.75,503.04L314.22,503.79L320.93,505.28L328.4,506.03L340.34,508.27L349.29,509.76L362.73,511.25L372.43,512.75L382.13,512.75L390.34,514.24L398.55,514.99L405.27,515.73L411.99,517.22L419.45,517.97L424.68,519.46L429.9,520.21L438.11,521.7L441.1,521.7L449.31,522.45L451.55,522.45L458.26,523.2L466.47,523.94L471.7,523.94L474.68,523.94L479.91,523.94L487.37,523.94L495.58,523.94L501.55,523.94L503.79,523.94L512,523.94L514.99,524.69L526.93,525.43L532.9,526.93L536.63,526.93L544.84,527.67" fill="none" stroke="#000000" style="-webkit-tap-highlight-color: rgba(0, 0, 0, 0); stroke-linecap: round; stroke-linejoin: round; stroke-width: 5;" /><path d="M520.21,532.9L523.94,529.91L530.66,529.17L539.62,526.93L549.32,525.43L561.26,523.94L573.2,523.94L584.4,523.94L595.59,523.94L606.79,524.69L626.94,524.69L631.42,524.69L636.64,524.69L642.61,524.69" fill="none" stroke="#000000" style="-webkit-tap-highlight-color: rgba(0, 0, 0, 0); stroke-linecap: round; stroke-linejoin: round; stroke-width: 5;" /><path d="M542.6,362.73L541.85,359L541.11,357.5L541.11,356.76L541.85,358.25L542.6,360.49L543.35,365.71L544.09,385.12L544.09,393.33L544.84,400.05L546.33,406.76L547.08,413.48L547.83,420.2L548.57,426.92L550.81,432.14L551.56,436.62L554.54,446.32L556.03,450.05L556.78,455.28L559.77,461.99L562.01,466.47L564.99,469.46L567.98,472.44L570.96,476.92L573.95,479.91L579.17,485.13L582.16,488.86L584.4,493.34L586.64,497.82L590.37,503.79L592.61,507.52L594.1,511.25L595.59,514.99L597.83,521.7L600.07,534.39L600.82,536.63L600.82,537.38" fill="none" stroke="#000000" style="-webkit-tap-highlight-color: rgba(0, 0, 0, 0); stroke-linecap: round; stroke-linejoin: round; stroke-width: 5;" /></svg>