<?xml version="1.0" encoding="utf-8" ?>
<svg baseProfile="full" height="726" version="1.1" width="1024" xmlns="http://www.w3.org/2000/svg" xmlns:ev="http://www.w3.org/2001/xml-events" xmlns:xlink="http://www.w3.org/1999/xlink"><defs /><path d="M9.05,265.05L5.43,265.05L3.62,265.05L1.81,265.05L0,266.86" fill="none" stroke="#000000" style="-webkit-tap-highlight-color: rgba(0, 0, 0, 0); stroke-linecap: round; stroke-linejoin: round; stroke-width: 5;" /><path d="M0,266.86L5.43,265.05L10.86,263.24L18.09,259.62L27.14,257.81L36.18,254.19L45.23,252.38L52.47,252.38L59.7,250.57L66.94,248.76L72.37,246.95L79.6,246.95L85.03,245.14L92.27,243.34L97.7,243.34L104.93,241.53L110.36,239.72L115.79,237.91L123.02,236.1L128.45,234.29L133.88,232.48L139.31,232.48L144.73,232.48L150.16,230.67L153.78,230.67L159.21,230.67L164.64,228.86L170.06,228.86L173.68,227.05L179.11,225.24L184.54,225.24L189.96,223.43L195.39,223.43L200.82,221.63L204.44,219.82L209.87,218.01L215.29,218.01L222.53,216.2L227.96,216.2L233.39,214.39L240.62,214.39L246.05,212.58L253.29,210.77L258.71,210.77L264.14,210.77L269.57,210.77L273.19,210.77L278.61,212.58L282.23,212.58L284.04,212.58L287.66,212.58L291.28,212.58L294.9,212.58L296.71,212.58L298.52,212.58L300.33,210.77L302.13,208.96L303.94,207.15L305.75,207.15L307.56,205.34L307.56,203.53L309.37,201.72L309.37,198.11L309.37,196.3L309.37,192.68L309.37,189.06L309.37,185.44L309.37,181.82L309.37,180.01L309.37,176.4L311.18,172.78L311.18,169.16L312.99,165.54L314.8,161.92L316.61,158.3L318.42,156.49L320.23,152.88L323.84,151.07L327.46,145.64L331.08,143.83L332.89,142.02L336.51,140.21L338.32,140.21L341.94,142.02L345.55,143.83L347.36,145.64L350.98,149.26L352.79,152.88L354.6,158.3L358.22,160.11L358.22,163.73L360.03,167.35L360.03,169.16L360.03,172.78L360.03,174.59L360.03,176.4L360.03,178.2L358.22,181.82L358.22,183.63L356.41,185.44L356.41,189.06L354.6,190.87L354.6,194.49L354.6,198.11L354.6,201.72L356.41,205.34L358.22,208.96L360.03,210.77L361.84,214.39L365.46,218.01L367.27,221.63L369.07,223.43L370.88,227.05L370.88,230.67L370.88,234.29L372.69,237.91L372.69,243.34L372.69,248.76L372.69,252.38L372.69,257.81L370.88,263.24L370.88,266.86L369.07,270.47L369.07,275.9L367.27,279.52L367.27,283.14L367.27,286.76L365.46,290.37L365.46,293.99L365.46,299.42L365.46,301.23L365.46,304.85L365.46,308.47L365.46,312.08L365.46,315.7L367.27,319.32L367.27,321.13L369.07,324.75L367.27,322.94L365.46,317.51L365.46,315.7" fill="none" stroke="#000000" style="-webkit-tap-highlight-color: rgba(0, 0, 0, 0); stroke-linecap: round; stroke-linejoin: round; stroke-width: 5;" /><path d="M329.27,143.83L331.08,143.83L331.08,142.02L329.27,143.83L327.46,143.83L325.65,143.83L323.84,143.83L322.04,143.83L318.42,142.02L316.61,140.21L314.8,138.4L311.18,138.4L309.37,136.59L305.75,134.78L303.94,132.98L300.33,132.98L296.71,132.98L291.28,132.98L284.04,134.78L278.61,136.59L275,138.4L267.76,140.21L262.33,142.02L258.71,143.83L253.29,143.83L249.67,145.64L240.62,149.26L235.19,149.26L233.39,149.26L227.96,151.07L224.34,151.07L218.91,151.07L213.48,151.07L208.06,151.07L204.44,151.07L199.01,151.07L195.39,151.07L189.96,151.07L186.35,151.07L180.92,151.07L175.49,151.07L168.25,151.07L162.83,151.07L159.21,151.07L155.59,152.88L151.97,152.88L148.35,154.69L144.73,154.69L141.12,154.69L135.69,156.49L130.26,156.49L126.64,156.49L123.02,158.3L119.41,158.3L115.79,160.11L110.36,161.92L104.93,165.54L99.51,167.35L94.08,170.97L88.65,174.59L85.03,176.4L79.6,180.01L74.18,183.63L70.56,189.06L65.13,192.68L59.7,196.3L54.28,198.11L48.85,201.72L41.61,203.53L32.57,207.15L21.71,210.77L16.28,212.58L9.05,216.2L1.81,219.82" fill="none" stroke="#000000" style="-webkit-tap-highlight-color: rgba(0, 0, 0, 0); stroke-linecap: round; stroke-linejoin: round; stroke-width: 5;" /><path d="M303.94,127.55L302.13,127.55L300.33,127.55L300.33,125.74L302.13,125.74L303.94,125.74L305.75,123.93L307.56,122.12L309.37,122.12L314.8,120.31L320.23,118.5L325.65,118.5L332.89,116.69L340.13,114.88L345.55,114.88L350.98,113.07L358.22,113.07L363.65,111.27L372.69,109.46L379.93,109.46L387.17,109.46L394.4,109.46L398.02,111.27L403.45,113.07L410.69,114.88L416.11,116.69L423.35,120.31L428.78,122.12L434.2,123.93L439.63,125.74L446.87,127.55L452.3,129.36L457.72,132.98L463.15,134.78L466.77,136.59L470.39,140.21L474.01,140.21L477.63,142.02L481.24,142.02L483.05,143.83L486.67,143.83L488.48,145.64L490.29,149.26L490.29,151.07L492.1,154.69L492.1,156.49L492.1,160.11L492.1,161.92L493.91,165.54L493.91,169.16L493.91,172.78L493.91,176.4L495.72,180.01L495.72,181.82L497.53,185.44L499.34,189.06L501.14,192.68L502.95,196.3L502.95,198.11L504.76,201.72L504.76,205.34L504.76,208.96L504.76,214.39L504.76,219.82L504.76,223.43L504.76,228.86L502.95,234.29L502.95,239.72L502.95,243.34L504.76,248.76L504.76,252.38L506.57,256L506.57,259.62L508.38,265.05L510.19,268.66L510.19,272.28L512,277.71L513.81,283.14L513.81,286.76L513.81,292.18L515.62,295.8L517.43,301.23L517.43,304.85L517.43,310.28L517.43,313.89L519.24,315.7L521.05,319.32L521.05,322.94L522.86,326.56L524.66,330.18L526.47,333.8L528.28,335.6L528.28,337.41L528.28,341.03L526.47,342.84L524.66,346.46L522.86,348.27L519.24,346.46L517.43,344.65" fill="none" stroke="#000000" style="-webkit-tap-highlight-color: rgba(0, 0, 0, 0); stroke-linecap: round; stroke-linejoin: round; stroke-width: 5;" /><path d="M432.4,145.64L432.4,143.83L432.4,142.02L432.4,140.21L432.4,138.4L430.59,138.4L428.78,138.4L426.97,138.4L423.35,140.21L419.73,142.02L416.11,145.64L414.3,151.07L410.69,156.49L410.69,161.92L410.69,169.16L410.69,176.4L412.49,183.63L412.49,190.87L412.49,198.11L414.3,205.34L414.3,212.58L416.11,219.82L417.92,225.24L417.92,232.48L417.92,237.91L417.92,245.14L417.92,250.57L417.92,257.81L417.92,263.24L417.92,268.66L417.92,272.28L417.92,275.9L417.92,279.52L417.92,284.95L419.73,290.37L419.73,293.99L419.73,297.61L421.54,297.61L423.35,299.42" fill="none" stroke="#000000" style="-webkit-tap-highlight-color: rgba(0, 0, 0, 0); stroke-linecap: round; stroke-linejoin: round; stroke-width: 5;" /><path d="M412.49,312.08L412.49,310.28L414.3,308.47L414.3,306.66L412.49,304.85L410.69,304.85" fill="none" stroke="#000000" style="-webkit-tap-highlight-color: rgba(0, 0, 0, 0); stroke-linecap: round; stroke-linejoin: round; stroke-width: 5;" /><path d="M334.7,303.04L327.46,303.04L318.42,303.04L307.56,303.04L300.33,304.85L296.71,304.85L294.9,304.85L294.9,306.66L298.52,306.66L302.13,306.66L309.37,306.66L316.61,306.66L325.65,306.66L336.51,306.66L347.36,306.66L358.22,306.66L365.46,306.66L372.69,308.47L379.93,308.47L387.17,310.28L396.21,312.08L401.64,312.08L407.07,313.89L412.49,313.89L417.92,313.89L430.59,312.08L436.01,310.28L441.44,310.28L448.68,310.28L455.92,310.28L461.34,312.08L468.58,312.08L474.01,315.7L479.43,317.51L483.05,319.32L488.48,322.94L492.1,326.56L497.53,328.37L502.95,331.99L508.38,333.8L513.81,333.8L517.43,335.6L519.24,335.6L521.05,335.6L524.66,335.6L528.28,337.41L530.09,337.41L533.71,339.22L535.52,339.22L539.14,341.03L540.95,342.84L540.95,344.65L540.95,346.46L540.95,348.27L540.95,350.08L540.95,351.89L539.14,351.89L533.71,351.89L530.09,351.89L522.86,350.08L517.43,348.27L510.19,346.46L504.76,344.65L501.14,344.65L495.72,342.84L488.48,342.84L483.05,342.84L475.82,342.84L468.58,342.84L459.53,342.84L452.3,342.84L446.87,342.84L439.63,342.84L434.2,341.03L426.97,339.22L419.73,337.41L412.49,333.8L407.07,331.99L401.64,330.18L398.02,328.37L381.74,326.56L372.69,324.75L363.65,322.94L356.41,321.13L349.17,321.13L343.75,321.13L336.51,321.13L327.46,321.13L318.42,319.32L309.37,319.32L300.33,317.51L293.09,317.51L285.85,317.51L278.61,317.51L271.38,317.51L264.14,317.51L256.9,317.51L251.48,319.32L246.05,319.32L240.62,319.32L238.81,319.32L235.19,319.32L233.39,317.51L233.39,315.7L233.39,313.89L233.39,312.08L233.39,310.28L233.39,308.47L235.19,306.66L235.19,304.85L237,303.04L240.62,303.04L244.24,303.04L247.86,303.04L253.29,303.04L260.52,303.04L267.76,303.04L275,303.04L284.04,301.23L293.09,301.23L298.52,301.23L302.13,301.23L303.94,301.23L303.94,303.04L303.94,304.85" fill="none" stroke="#000000" style="-webkit-tap-highlight-color: rgba(0, 0, 0, 0); stroke-linecap: round; stroke-linejoin: round; stroke-width: 5;" /><path d="M246.05,304.85L244.24,304.85L242.43,303.04L240.62,303.04L237,303.04L235.19,306.66L233.39,310.28L229.77,315.7L224.34,322.94L218.91,331.99L217.1,339.22L215.29,346.46L213.48,355.51L213.48,362.74L213.48,371.79L213.48,379.02L213.48,386.26L213.48,395.31L213.48,404.35L213.48,415.21L213.48,424.25L213.48,433.3L213.48,440.54L209.87,447.77L208.06,456.82L206.25,464.06L206.25,478.53L204.44,489.39L204.44,500.24L204.44,507.48L202.63,512.9L202.63,518.33L202.63,521.95L202.63,525.57L206.25,527.38L208.06,527.38" fill="none" stroke="#000000" style="-webkit-tap-highlight-color: rgba(0, 0, 0, 0); stroke-linecap: round; stroke-linejoin: round; stroke-width: 5;" /><path d="M238.81,527.38L237,523.76L235.19,523.76L235.19,521.95L238.81,521.95L240.62,521.95L244.24,521.95L247.86,521.95L251.48,521.95L258.71,521.95L267.76,523.76L280.42,523.76L289.47,523.76L300.33,523.76L309.37,523.76L318.42,523.76L327.46,525.57L334.7,525.57L336.51,527.38L343.75,529.19L347.36,529.19L358.22,531L369.07,532.81L378.12,534.61L388.98,534.61L398.02,534.61L407.07,534.61L417.92,534.61L428.78,532.81L439.63,532.81L450.49,532.81L461.34,531L470.39,529.19L479.43,527.38L488.48,525.57L497.53,523.76L515.62,523.76L524.66,523.76L533.71,523.76L542.76,523.76L551.8,523.76L560.85,523.76L568.08,523.76L575.32,523.76L578.94,525.57L582.56,525.57L584.37,527.38L584.37,529.19L582.56,531L580.75,531" fill="none" stroke="#000000" style="-webkit-tap-highlight-color: rgba(0, 0, 0, 0); stroke-linecap: round; stroke-linejoin: round; stroke-width: 5;" /><path d="M553.61,369.98L553.61,368.17L551.8,366.36L551.8,364.55L549.99,362.74L549.99,359.12L549.99,357.31L548.18,355.51L548.18,353.7L548.18,351.89L546.37,351.89L544.57,353.7L542.76,355.51L540.95,359.12L539.14,364.55L539.14,368.17L540.95,375.41L542.76,382.64L546.37,389.88L549.99,397.12L553.61,404.35L557.23,409.78L562.66,415.21L566.28,420.64L569.89,426.06L573.51,433.3L577.13,438.73L578.94,444.16L580.75,449.58L584.37,453.2L587.99,456.82L589.8,462.25L591.6,465.87L593.41,471.29L593.41,476.72L595.22,480.34L595.22,485.77L595.22,489.39L593.41,494.81L593.41,498.43L593.41,502.05L591.6,505.67L591.6,507.48L591.6,511.1L591.6,514.71L591.6,520.14L591.6,523.76L593.41,529.19L595.22,532.81L597.03,536.42L597.03,541.85L598.84,545.47L600.65,550.9L602.46,554.52L604.27,559.94L604.27,563.56L606.08,568.99L607.89,572.61L609.7,578.04L611.51,583.46L613.31,587.08L615.12,590.7L616.93,594.32L618.74,596.13L620.55,599.75L620.55,601.55L620.55,603.36L618.74,605.17L618.74,606.98L616.93,608.79L616.93,610.6L615.12,612.41L615.12,616.03L615.12,619.65L615.12,621.46L616.93,623.27L620.55,625.07L622.36,626.88L625.98,626.88L631.41,628.69L635.02,628.69L638.64,628.69L642.26,630.5L645.88,630.5L647.69,632.31L649.5,634.12L653.12,637.74L654.93,639.55L658.54,641.36L660.35,643.17L662.16,644.98L663.97,646.78L663.97,648.59L665.78,650.4L667.59,650.4L669.4,652.21L671.21,652.21L673.02,652.21L674.83,652.21L676.64,654.02L678.45,654.02L680.25,655.83L682.06,655.83L682.06,657.64L683.87,657.64L685.68,657.64L687.49,657.64L691.11,657.64L694.73,657.64L700.16,659.45L705.58,659.45L711.01,659.45L716.44,659.45L721.87,659.45L725.48,661.26L730.91,661.26L736.34,663.07L739.96,663.07L745.39,663.07L749,663.07L754.43,663.07L758.05,663.07L763.48,663.07L767.1,661.26L772.52,661.26L776.14,661.26L777.95,661.26L779.76,661.26" fill="none" stroke="#000000" style="-webkit-tap-highlight-color: rgba(0, 0, 0, 0); stroke-linecap: round; stroke-linejoin: round; stroke-width: 5;" /><path d="M758.05,654.02L756.24,652.21L754.43,650.4L752.62,650.4L756.24,654.02L761.67,655.83L767.1,657.64L776.14,659.45L787,657.64L803.28,657.64L815.94,655.83L830.42,655.83L843.08,655.83L853.94,655.83L866.6,657.64L879.27,661.26L891.93,663.07L899.17,664.88L910.02,664.88L919.07,664.88L928.11,661.26L937.16,659.45L944.4,657.64L951.63,655.83L958.87,655.83L964.3,655.83L971.53,655.83L976.96,655.83L982.39,657.64L987.82,657.64L993.24,657.64L998.67,657.64L1004.1,657.64L1009.53,657.64L1013.14,657.64L1014.95,655.83L1016.76,655.83L1018.57,654.02L1020.38,652.21L1022.19,650.4L1022.19,646.78L1020.38,643.17" fill="none" stroke="#000000" style="-webkit-tap-highlight-color: rgba(0, 0, 0, 0); stroke-linecap: round; stroke-linejoin: round; stroke-width: 5;" /><path d="M696.54,261.43L694.73,261.43L692.92,261.43L691.11,261.43L689.3,261.43L687.49,261.43L683.87,263.24L682.06,265.05L680.25,266.86L680.25,268.66L680.25,270.47L682.06,272.28L683.87,274.09L687.49,274.09L692.92,275.9L698.35,275.9L712.82,275.9L720.06,274.09L727.29,272.28L734.53,272.28L741.77,272.28L749,272.28L758.05,270.47L767.1,268.66L777.95,268.66L787,266.86L797.85,266.86L808.71,265.05L821.37,265.05L832.23,263.24L843.08,263.24L850.32,263.24L857.55,261.43L866.6,261.43L873.84,261.43L882.88,261.43L891.93,263.24L900.98,265.05L908.21,265.05L915.45,266.86L920.88,266.86L926.3,268.66L931.73,268.66L935.35,270.47L940.78,270.47L944.4,270.47L949.82,272.28L955.25,272.28L958.87,274.09L964.3,274.09L967.92,274.09L973.34,274.09L978.77,274.09L984.2,272.28L991.43,272.28L996.86,272.28L1002.29,272.28L1007.72,270.47L1011.34,270.47L1016.76,268.66L1018.57,266.86L1020.38,263.24L1020.38,261.43L1014.95,257.81L1005.91,257.81" fill="none" stroke="#000000" style="-webkit-tap-highlight-color: rgba(0, 0, 0, 0); stroke-linecap: round; stroke-linejoin: round; stroke-width: 5;" /><path d="M680.25,272.28L682.06,270.47L682.06,268.66L682.06,266.86L683.87,265.05L683.87,263.24L683.87,261.43L682.06,261.43L678.45,261.43L674.83,265.05L669.4,266.86L665.78,270.47L662.16,272.28L660.35,275.9L658.54,279.52L658.54,283.14L656.73,288.57L656.73,292.18L656.73,295.8L656.73,299.42L656.73,301.23L656.73,304.85L656.73,306.66L656.73,308.47L656.73,310.28L654.93,312.08L653.12,312.08L651.31,313.89L649.5,313.89L647.69,315.7L645.88,315.7L644.07,317.51L642.26,317.51L640.45,319.32L636.83,321.13L633.22,321.13L629.6,322.94L625.98,324.75L624.17,324.75L622.36,324.75L620.55,326.56L618.74,326.56L615.12,326.56L613.31,328.37L609.7,328.37L606.08,328.37L598.84,328.37L595.22,330.18L589.8,330.18L586.18,331.99L582.56,333.8L578.94,337.41L575.32,339.22L571.7,341.03L569.89,344.65L566.28,346.46L564.47,348.27L562.66,351.89L560.85,353.7L557.23,353.7L553.61,355.51L551.8,357.31L548.18,357.31L544.57,359.12L540.95,359.12L535.52,357.31L531.9,355.51L530.09,355.51L528.28,353.7L530.09,351.89L539.14,348.27L540.95,346.46" fill="none" stroke="#000000" style="-webkit-tap-highlight-color: rgba(0, 0, 0, 0); stroke-linecap: round; stroke-linejoin: round; stroke-width: 5;" /><path d="M756.24,207.15L756.24,205.34L756.24,203.53L756.24,201.72L754.43,201.72L754.43,199.92L752.62,199.92L749,199.92L745.39,201.72L739.96,203.53L734.53,205.34L729.1,207.15L725.48,207.15L720.06,208.96L716.44,210.77L711.01,212.58L707.39,214.39L705.58,218.01L701.96,221.63L701.96,225.24L700.16,228.86L700.16,234.29L700.16,237.91L703.77,243.34L707.39,246.95L711.01,250.57L716.44,254.19L723.67,257.81L730.91,259.62L736.34,259.62L743.58,261.43L749,261.43L754.43,261.43L759.86,261.43L765.29,259.62L768.9,256L772.52,250.57L776.14,245.14L777.95,239.72L779.76,232.48L779.76,225.24L777.95,218.01L774.33,210.77L767.1,203.53L759.86,196.3L752.62,192.68L749,190.87L745.39,190.87L743.58,194.49L741.77,199.92L739.96,205.34" fill="none" stroke="#000000" style="-webkit-tap-highlight-color: rgba(0, 0, 0, 0); stroke-linecap: round; stroke-linejoin: round; stroke-width: 5;" /><path d="M862.98,187.25L859.36,187.25L857.55,185.44L855.75,185.44L852.13,183.63L848.51,183.63L843.08,183.63L839.46,183.63L834.04,183.63L828.61,187.25L823.18,190.87L815.94,194.49L810.52,198.11L806.9,201.72L803.28,205.34L801.47,210.77L799.66,214.39L799.66,221.63L797.85,225.24L797.85,230.67L797.85,234.29L797.85,239.72L797.85,243.34L797.85,245.14L801.47,246.95L803.28,248.76L808.71,250.57L815.94,250.57L823.18,252.38L832.23,252.38L841.27,252.38L848.51,252.38L855.75,252.38L862.98,252.38L868.41,250.57L873.84,248.76L879.27,246.95L882.88,243.34L886.5,241.53L888.31,237.91L890.12,234.29L890.12,230.67L890.12,227.05L890.12,221.63L888.31,214.39L884.69,207.15L879.27,199.92L873.84,190.87L866.6,183.63L857.55,180.01L848.51,180.01L841.27,181.82L835.84,185.44L830.42,192.68L828.61,199.92L828.61,201.72" fill="none" stroke="#000000" style="-webkit-tap-highlight-color: rgba(0, 0, 0, 0); stroke-linecap: round; stroke-linejoin: round; stroke-width: 5;" /><path d="M960.68,212.58L958.87,212.58L955.25,210.77L951.63,210.77L946.2,210.77L938.97,212.58L933.54,218.01L926.3,223.43L922.69,230.67L919.07,237.91L919.07,246.95L919.07,256L922.69,263.24L926.3,270.47L933.54,275.9L940.78,277.71L949.82,279.52L960.68,275.9L971.53,268.66L978.77,257.81L984.2,246.95L986.01,234.29L982.39,221.63L975.15,212.58L966.11,208.96L957.06,208.96L946.2,212.58L933.54,218.01L928.11,221.63L924.49,223.43L924.49,225.24" fill="none" stroke="#000000" style="-webkit-tap-highlight-color: rgba(0, 0, 0, 0); stroke-linecap: round; stroke-linejoin: round; stroke-width: 5;" /><path d="M745.39,187.25L743.58,187.25L739.96,189.06L738.15,189.06L736.34,190.87L734.53,192.68L738.15,192.68L739.96,189.06L745.39,185.44L750.81,178.2L758.05,170.97L767.1,163.73L774.33,158.3L777.95,154.69L779.76,152.88L781.57,151.07L785.19,147.45L787,143.83L792.42,140.21L796.04,134.78L799.66,131.17L803.28,129.36L806.9,125.74L810.52,125.74L812.33,123.93L814.13,122.12L815.94,122.12L817.75,122.12L821.37,120.31L824.99,122.12L828.61,123.93L830.42,127.55L834.04,131.17L835.84,134.78L839.46,134.78L843.08,134.78L846.7,132.98L850.32,129.36L852.13,125.74L855.75,123.93L859.36,120.31L861.17,120.31L862.98,118.5L864.79,120.31L870.22,125.74L872.03,127.55L873.84,132.98L873.84,136.59L873.84,143.83L873.84,149.26L873.84,154.69L873.84,158.3L873.84,161.92L873.84,165.54L875.65,169.16L877.46,172.78L879.27,174.59L881.07,176.4L884.69,178.2L888.31,180.01L891.93,181.82L893.74,183.63L897.36,183.63L900.98,185.44L902.78,187.25L906.4,187.25L910.02,189.06L913.64,189.06L917.26,190.87L920.88,190.87L926.3,190.87L931.73,190.87L937.16,190.87L942.59,190.87L946.2,190.87L949.82,190.87L955.25,192.68L958.87,194.49L964.3,196.3L969.72,198.11L975.15,199.92L980.58,199.92L986.01,201.72L993.24,203.53L996.86,205.34L1002.29,207.15L1004.1,208.96L1004.1,210.77L1000.48,210.77L996.86,210.77L989.63,210.77L982.39,210.77" fill="none" stroke="#000000" style="-webkit-tap-highlight-color: rgba(0, 0, 0, 0); stroke-linecap: round; stroke-linejoin: round; stroke-width: 5;" /><path d="M504.76,237.91L502.95,236.1L501.14,236.1L501.14,234.29L499.34,234.29L499.34,232.48L501.14,232.48L504.76,232.48L508.38,232.48L512,232.48L515.62,232.48L521.05,232.48L526.47,232.48L533.71,232.48L540.95,232.48L544.57,232.48L549.99,232.48L553.61,232.48L557.23,232.48L560.85,232.48L566.28,234.29L571.7,234.29L577.13,234.29L582.56,234.29L589.8,232.48L595.22,232.48L600.65,230.67L604.27,230.67L609.7,230.67L613.31,230.67L616.93,230.67L620.55,230.67L625.98,228.86L629.6,228.86L635.02,227.05L640.45,227.05L644.07,227.05L647.69,225.24L651.31,223.43L653.12,221.63L656.73,219.82L660.35,219.82L665.78,218.01L671.21,216.2L674.83,216.2L678.45,216.2L682.06,214.39L683.87,214.39" fill="none" stroke="#000000" style="-webkit-tap-highlight-color: rgba(0, 0, 0, 0); stroke-linecap: round; stroke-linejoin: round; stroke-width: 5;" /><path d="M796.04,131.17L794.23,131.17L792.42,131.17L792.42,129.36L790.61,129.36L788.81,131.17L787,132.98L783.38,134.78L781.57,136.59L777.95,138.4L776.14,140.21L774.33,142.02L772.52,142.02L772.52,143.83L770.71,143.83L768.9,143.83L767.1,143.83L765.29,143.83L761.67,142.02L758.05,140.21L754.43,138.4L749,136.59L745.39,134.78L739.96,132.98L736.34,131.17L734.53,131.17L730.91,129.36L729.1,129.36L725.48,129.36L721.87,129.36L718.25,129.36L712.82,129.36L709.2,127.55L705.58,127.55L700.16,127.55L696.54,127.55L691.11,127.55L687.49,127.55L682.06,127.55L678.45,127.55L673.02,127.55L669.4,127.55L663.97,127.55L658.54,127.55L653.12,127.55L647.69,127.55L644.07,127.55L638.64,127.55L633.22,129.36L629.6,129.36L625.98,129.36L620.55,129.36L616.93,129.36L613.31,129.36L607.89,131.17L602.46,131.17L598.84,131.17L593.41,131.17L587.99,131.17L584.37,131.17L578.94,131.17L573.51,131.17L568.08,131.17L560.85,131.17L557.23,132.98L551.8,132.98L548.18,132.98L544.57,132.98L540.95,132.98L537.33,132.98L533.71,132.98L531.9,132.98L528.28,132.98L524.66,132.98L521.05,132.98L517.43,132.98L513.81,132.98L510.19,132.98L506.57,131.17L502.95,131.17L501.14,131.17L497.53,131.17L495.72,131.17L492.1,131.17L490.29,131.17L486.67,131.17L484.86,131.17L481.24,129.36L479.43,129.36L477.63,129.36L474.01,129.36L470.39,129.36L468.58,129.36L464.96,129.36L463.15,129.36L463.15,127.55L464.96,127.55" fill="none" stroke="#000000" style="-webkit-tap-highlight-color: rgba(0, 0, 0, 0); stroke-linecap: round; stroke-linejoin: round; stroke-width: 5;" /><path d="M322.04,123.93L320.23,122.12L318.42,122.12L318.42,120.31L316.61,120.31L314.8,120.31L312.99,122.12L311.18,122.12L305.75,123.93L302.13,125.74L294.9,127.55L291.28,127.55L287.66,127.55L284.04,127.55L282.23,127.55L280.42,125.74L278.61,125.74L276.81,125.74L275,125.74L273.19,125.74L269.57,125.74L267.76,125.74L264.14,125.74L260.52,125.74L258.71,125.74L255.1,125.74L251.48,127.55L246.05,127.55L242.43,127.55L237,127.55L231.58,127.55L226.15,129.36L220.72,129.36L217.1,129.36L211.67,129.36L208.06,129.36L202.63,129.36L197.2,129.36L191.77,129.36L186.35,127.55L179.11,125.74L170.06,125.74L164.64,125.74L159.21,125.74L151.97,125.74L148.35,125.74L142.93,125.74L137.5,125.74L132.07,123.93L126.64,123.93L121.22,123.93L117.6,123.93L112.17,123.93L106.74,123.93L103.12,122.12L97.7,122.12L92.27,122.12L86.84,122.12L83.22,123.93L77.8,123.93L72.37,123.93L68.75,123.93L65.13,123.93L59.7,123.93L56.08,123.93L50.66,123.93L47.04,125.74L41.61,125.74L37.99,125.74L36.18,125.74L32.57,125.74L28.95,125.74L23.52,123.93L18.09,123.93L14.47,123.93L9.05,123.93L5.43,123.93L0,125.74" fill="none" stroke="#000000" style="-webkit-tap-highlight-color: rgba(0, 0, 0, 0); stroke-linecap: round; stroke-linejoin: round; stroke-width: 5;" /><path d="M5.43,123.93" fill="none" stroke="#000000" style="-webkit-tap-highlight-color: rgba(0, 0, 0, 0); stroke-linecap: round; stroke-linejoin: round; stroke-width: 5;" /><path d="M204.44,520.14L202.63,520.14L202.63,518.33L200.82,518.33L199.01,516.52L197.2,518.33L195.39,520.14L191.77,523.76L188.16,525.57L180.92,531L171.87,536.42L162.83,541.85L153.78,545.47L146.54,549.09L141.12,550.9L133.88,554.52L128.45,556.33L124.83,558.13L117.6,559.94L106.74,565.37L99.51,568.99L94.08,572.61L88.65,578.04L81.41,581.65L74.18,585.27L68.75,588.89L63.32,592.51L57.89,594.32L52.47,597.94L45.23,601.55L37.99,605.17L32.57,608.79L27.14,610.6L19.9,614.22L14.47,617.84L9.05,621.46L5.43,623.27L1.81,626.88L0,628.69" fill="none" stroke="#000000" style="-webkit-tap-highlight-color: rgba(0, 0, 0, 0); stroke-linecap: round; stroke-linejoin: round; stroke-width: 5;" /><path d="M1.81,628.69L5.43,626.88L7.24,626.88" fill="none" stroke="#000000" style="-webkit-tap-highlight-color: rgba(0, 0, 0, 0); stroke-linecap: round; stroke-linejoin: round; stroke-width: 5;" /><path d="M613.31,579.84L611.51,579.84L611.51,578.04L609.7,578.04L609.7,576.23L609.7,574.42L611.51,574.42L613.31,574.42L615.12,574.42L620.55,572.61L625.98,572.61L633.22,572.61L640.45,572.61L647.69,574.42L653.12,574.42L660.35,574.42L669.4,574.42L676.64,572.61L683.87,570.8L692.92,568.99L700.16,568.99L707.39,568.99L714.63,568.99L720.06,568.99L725.48,568.99L730.91,568.99L736.34,568.99L741.77,570.8L745.39,570.8L750.81,570.8L756.24,570.8L763.48,570.8L770.71,570.8L776.14,570.8L783.38,572.61L788.81,572.61L796.04,574.42L801.47,576.23L806.9,578.04L814.13,578.04L819.56,579.84L828.61,581.65L837.65,583.46L844.89,585.27L852.13,585.27L855.75,585.27L861.17,585.27L866.6,583.46L872.03,583.46L875.65,583.46L881.07,583.46L886.5,583.46L890.12,583.46L895.55,583.46L899.17,583.46L904.59,583.46L908.21,583.46L913.64,583.46L919.07,583.46L924.49,583.46L931.73,585.27L938.97,585.27L944.4,585.27L949.82,585.27L953.44,585.27L958.87,585.27L962.49,585.27L966.11,585.27L967.92,585.27L971.53,585.27L973.34,585.27L976.96,585.27L978.77,585.27L980.58,585.27L982.39,585.27L984.2,585.27L987.82,585.27L989.63,585.27L991.43,585.27L993.24,585.27L995.05,583.46L996.86,583.46L998.67,583.46L998.67,581.65L1000.48,581.65L998.67,581.65" fill="none" stroke="#000000" style="-webkit-tap-highlight-color: rgba(0, 0, 0, 0); stroke-linecap: round; stroke-linejoin: round; stroke-width: 5;" /></svg>