<?xml version="1.0" encoding="utf-8" ?>
<svg baseProfile="full" height="1405" version="1.1" width="1024" xmlns="http://www.w3.org/2000/svg" xmlns:ev="http://www.w3.org/2001/xml-events" xmlns:xlink="http://www.w3.org/1999/xlink"><defs /><path d="M708.25,35.22L708.25,32.71L703.21,30.19L700.7,32.71L700.7,35.22L700.7,40.26L700.7,42.77L700.7,47.8L700.7,52.84L700.7,60.38L700.7,65.42L700.7,70.45L703.21,75.48L703.21,83.03L703.21,88.06L703.21,95.61L703.21,100.64L703.21,108.19L703.21,113.22L703.21,118.25L703.21,125.8L703.21,130.83L703.21,135.86L703.21,140.89L703.21,148.44L703.21,153.47L703.21,161.02L703.21,166.05L703.21,173.6L703.21,181.15L703.21,188.7L700.7,193.73L700.7,201.28L700.7,206.31L698.18,213.86L698.18,221.41L698.18,226.44L698.18,233.99L698.18,241.53L698.18,246.57L695.67,254.11L695.67,261.66L695.67,266.69L695.67,274.24L695.67,281.79L695.67,289.34L695.67,299.4L695.67,309.46L695.67,319.53L695.67,327.08L695.67,337.14L693.15,344.69L693.15,354.75L693.15,362.3L693.15,372.36L693.15,379.91L695.67,389.98L695.67,397.52L695.67,405.07L695.67,412.62L695.67,420.17L695.67,425.2L695.67,432.75L698.18,440.29L698.18,447.84L698.18,452.87L698.18,467.97L698.18,475.52L700.7,483.07L700.7,493.13L700.7,503.19L700.7,510.74L700.7,520.81L700.7,528.35L700.7,538.42L700.7,545.97L700.7,556.03L700.7,563.58L700.7,571.13L700.7,581.19L703.21,586.22L703.21,593.77L703.21,601.32L703.21,608.86L703.21,618.93L703.21,626.48L703.21,634.02L703.21,644.09L705.73,654.15L705.73,661.7L705.73,671.76L708.25,681.83L708.25,691.89L708.25,704.47L708.25,714.54L708.25,722.08L710.76,732.15L710.76,742.21L710.76,752.28L710.76,762.34L710.76,772.4L710.76,782.47L710.76,792.53L710.76,800.08L710.76,810.14L710.76,815.17L710.76,822.72L710.76,827.75L710.76,837.82L708.25,847.88L708.25,857.95L708.25,868.01L705.73,878.07L705.73,890.65L705.73,898.2L705.73,903.23L708.25,903.23" fill="none" stroke="#000000" style="-webkit-tap-highlight-color: rgba(0, 0, 0, 0); stroke-linecap: round; stroke-linejoin: round; stroke-width: 7;" /><path d="M813.92,32.71L813.92,30.19L813.92,27.68L813.92,32.71L813.92,42.77L813.92,52.84L813.92,62.9L813.92,72.96L811.4,85.54L811.4,98.12L811.4,108.19L813.92,120.77L813.92,130.83L813.92,140.89L813.92,150.96L813.92,163.54L816.43,173.6L816.43,183.67L818.95,191.21L821.46,201.28L823.98,208.83L823.98,218.89L823.98,226.44L826.5,233.99L826.5,241.53L829.01,249.08L829.01,256.63L829.01,264.18L829.01,271.72L829.01,279.27L829.01,286.82L829.01,294.37L829.01,304.43L829.01,314.5L829.01,324.56L831.53,334.62L831.53,342.17L831.53,352.24L831.53,364.82L831.53,374.88L831.53,382.43L831.53,392.49L831.53,400.04L829.01,407.59L829.01,415.14L829.01,422.68L829.01,430.23L829.01,435.26L829.01,442.81L829.01,445.33L829.01,450.36L829.01,455.39L829.01,462.94L826.5,467.97L826.5,473L829.01,483.07L829.01,488.1L829.01,493.13L831.53,498.16L831.53,505.71L831.53,510.74L834.04,515.77L836.56,520.81L839.08,525.84L841.59,530.87L844.11,533.39L844.11,535.9L846.62,538.42L851.66,540.93L854.17,540.93L856.69,543.45L859.2,543.45L861.72,543.45L864.24,543.45L869.27,545.97L871.78,545.97L874.3,545.97L876.82,548.48L879.33,548.48L881.85,548.48L884.36,548.48L884.36,551L886.88,551L886.88,553.51L889.4,558.55L889.4,561.06L891.91,563.58L891.91,568.61L894.43,571.13L894.43,576.16L894.43,581.19L896.94,583.71L896.94,586.22L899.46,591.25L901.98,593.77L904.49,596.29L907.01,598.8L909.52,603.83L912.04,608.86L914.56,611.38L914.56,616.41L917.07,621.44L917.07,626.48L919.59,631.51L919.59,636.54L919.59,644.09L919.59,649.12L919.59,654.15L919.59,661.7L922.1,669.25L922.1,674.28L922.1,681.83L924.62,686.86L927.14,691.89L929.65,709.5L929.65,719.57L932.17,729.63L934.68,732.15L937.2,734.66L939.71,734.66" fill="none" stroke="#000000" style="-webkit-tap-highlight-color: rgba(0, 0, 0, 0); stroke-linecap: round; stroke-linejoin: round; stroke-width: 7;" /><path d="M839.08,535.9L839.08,538.42L836.56,538.42L834.04,540.93L831.53,540.93L829.01,540.93L826.5,543.45L823.98,543.45L818.95,548.48L813.92,556.03L811.4,561.06L806.37,563.58L803.85,568.61L801.34,573.64L801.34,578.67L798.82,581.19L796.3,588.74L796.3,593.77L793.79,598.8L793.79,606.35L793.79,611.38L796.3,618.93L796.3,623.96L796.3,631.51L798.82,646.6L801.34,654.15L803.85,664.22L806.37,671.76L808.88,679.31L808.88,686.86L811.4,696.92L811.4,704.47L813.92,709.5L813.92,714.54L813.92,719.57L813.92,722.08L813.92,724.6L813.92,727.12L813.92,729.63L813.92,734.66L811.4,737.18L808.88,742.21L806.37,747.24L803.85,752.28L801.34,757.31L798.82,759.82L798.82,762.34L796.3,764.86L796.3,767.37L793.79,769.89L788.76,772.4L786.24,777.43L783.72,779.95L783.72,782.47L781.21,784.98L778.69,787.5L778.69,790.01L776.18,790.01L776.18,792.53L776.18,797.56L773.66,800.08L773.66,805.11L773.66,807.63L773.66,812.66L771.14,817.69L771.14,825.24L771.14,830.27L771.14,835.3L771.14,842.85L771.14,850.4L771.14,857.95L773.66,865.49L773.66,875.56L773.66,885.62L776.18,895.69L776.18,903.23L776.18,910.78L776.18,915.81L776.18,923.36L776.18,933.43L776.18,943.49L776.18,951.04L776.18,958.58L773.66,968.65L773.66,976.2L773.66,986.26L773.66,996.32L776.18,1006.39L776.18,1018.97L778.69,1031.55L781.21,1044.13L781.21,1056.71L783.72,1069.29L783.72,1079.35L783.72,1089.42" fill="none" stroke="#000000" style="-webkit-tap-highlight-color: rgba(0, 0, 0, 0); stroke-linecap: round; stroke-linejoin: round; stroke-width: 7;" /><path d="M796.3,782.47L793.79,782.47L793.79,784.98L793.79,792.53L796.3,802.59L796.3,815.17L796.3,825.24L798.82,837.82L798.82,850.4L801.34,862.98L801.34,873.04L803.85,888.14L803.85,900.72L801.34,913.3L801.34,923.36L801.34,935.94L801.34,946L803.85,956.07L803.85,963.62L803.85,983.74L803.85,991.29L803.85,1001.36L803.85,1008.9L803.85,1013.94L803.85,1021.48L803.85,1031.55L803.85,1039.1L803.85,1046.64L806.37,1056.71L806.37,1066.77L808.88,1074.32L811.4,1084.38L811.4,1096.96L813.92,1107.03L813.92,1114.57L813.92,1119.61L813.92,1124.64L816.43,1129.67L821.46,1132.19" fill="none" stroke="#000000" style="-webkit-tap-highlight-color: rgba(0, 0, 0, 0); stroke-linecap: round; stroke-linejoin: round; stroke-width: 7;" /><path d="M806.37,792.53L798.82,790.01L796.3,790.01L793.79,790.01L798.82,790.01L803.85,787.5L808.88,787.5L813.92,787.5L821.46,790.01L829.01,790.01L839.08,790.01L846.62,790.01L854.17,790.01L861.72,792.53L869.27,795.05L874.3,795.05L884.36,795.05L891.91,795.05L896.94,795.05L904.49,795.05L909.52,795.05L917.07,792.53L922.1,792.53L927.14,792.53L929.65,792.53L934.68,792.53L939.71,792.53L944.75,792.53L949.78,792.53L952.29,792.53L957.33,792.53L962.36,792.53L969.91,792.53L977.45,792.53L985,790.01L990.03,790.01L997.58,790.01L1002.61,787.5L1007.65,784.98L1012.68,782.47" fill="none" stroke="#000000" style="-webkit-tap-highlight-color: rgba(0, 0, 0, 0); stroke-linecap: round; stroke-linejoin: round; stroke-width: 7;" /><path d="M937.2,679.31L934.68,679.31L932.17,679.31L934.68,679.31L937.2,679.31L944.75,681.83L952.29,684.34L962.36,686.86L972.42,689.38L985,689.38L995.07,686.86L1005.13,681.83L1010.16,679.31" fill="none" stroke="#000000" style="-webkit-tap-highlight-color: rgba(0, 0, 0, 0); stroke-linecap: round; stroke-linejoin: round; stroke-width: 7;" /><path d="M990.03,827.75L987.52,835.3L985,842.85L982.49,850.4L979.97,857.95L977.45,868.01L972.42,878.07L969.91,888.14L969.91,895.69L967.39,903.23L967.39,910.78L964.87,918.33L964.87,925.88L962.36,933.43L962.36,940.97L962.36,948.52L962.36,956.07L962.36,963.62L962.36,966.13L962.36,968.65L959.84,971.16L959.84,973.68L957.33,973.68L954.81,973.68L952.29,976.2L949.78,976.2L947.26,976.2L944.75,978.71L942.23,978.71L937.2,978.71L934.68,978.71L929.65,981.23L929.65,983.74L927.14,986.26L927.14,988.78L924.62,991.29L922.1,993.81L922.1,998.84L922.1,1001.36L919.59,1003.87L919.59,1008.9L917.07,1011.42L917.07,1018.97L914.56,1024L912.04,1031.55L909.52,1039.1L909.52,1044.13L907.01,1051.68L907.01,1059.22L904.49,1064.26L904.49,1069.29L901.98,1074.32L901.98,1089.42L901.98,1096.96L901.98,1102L899.46,1109.54L899.46,1114.57L899.46,1122.12L899.46,1129.67L899.46,1137.22L899.46,1144.77L899.46,1152.31L899.46,1157.35L896.94,1162.38" fill="none" stroke="#000000" style="-webkit-tap-highlight-color: rgba(0, 0, 0, 0); stroke-linecap: round; stroke-linejoin: round; stroke-width: 7;" /><path d="M818.95,1122.12L821.46,1122.12L831.53,1122.12L846.62,1119.61L856.69,1117.09L864.24,1114.57L871.78,1112.06L879.33,1112.06L894.43,1107.03L896.94,1107.03L899.46,1104.51" fill="none" stroke="#000000" style="-webkit-tap-highlight-color: rgba(0, 0, 0, 0); stroke-linecap: round; stroke-linejoin: round; stroke-width: 7;" /><path d="M786.24,1074.32L786.24,1076.84L788.76,1081.87L796.3,1091.93L803.85,1102L813.92,1109.54L818.95,1117.09L823.98,1122.12L826.5,1122.12" fill="none" stroke="#000000" style="-webkit-tap-highlight-color: rgba(0, 0, 0, 0); stroke-linecap: round; stroke-linejoin: round; stroke-width: 7;" /><path d="M713.28,895.69L710.76,895.69L713.28,898.2L718.31,898.2L723.34,900.72L728.37,905.75L733.41,910.78L735.92,915.81L743.47,920.85L748.5,923.36L756.05,928.39L763.6,930.91L768.63,935.94L773.66,940.97L776.18,943.49L778.69,946" fill="none" stroke="#000000" style="-webkit-tap-highlight-color: rgba(0, 0, 0, 0); stroke-linecap: round; stroke-linejoin: round; stroke-width: 7;" /><path d="M708.25,898.2L705.73,898.2L703.21,900.72L703.21,903.23L700.7,905.75L698.18,910.78L695.67,915.81L693.15,920.85L690.63,923.36L693.15,925.88L695.67,928.39L698.18,930.91L700.7,935.94L705.73,938.46L710.76,943.49L713.28,946L718.31,951.04L720.83,956.07L725.86,961.1L728.37,966.13L733.41,971.16L735.92,973.68L738.44,978.71L743.47,981.23L745.99,986.26L751.02,991.29L758.57,996.32L766.11,1001.36L771.14,1001.36L778.69,1003.87L781.21,1003.87" fill="none" stroke="#000000" style="-webkit-tap-highlight-color: rgba(0, 0, 0, 0); stroke-linecap: round; stroke-linejoin: round; stroke-width: 7;" /><path d="M647.86,930.91L645.35,930.91L647.86,933.43L650.38,938.46L652.89,940.97L657.93,946L662.96,948.52L670.51,948.52L678.05,951.04L683.09,953.55L688.12,958.58L690.63,963.62L693.15,968.65L698.18,971.16L700.7,976.2L705.73,981.23L708.25,986.26L710.76,993.81L713.28,996.32L713.28,1001.36L715.79,1006.39L718.31,1011.42L720.83,1016.45L725.86,1021.48L728.37,1026.52L730.89,1029.03L733.41,1034.06L733.41,1039.1L735.92,1041.61L740.95,1046.64L743.47,1051.68L745.99,1056.71L748.5,1064.26L751.02,1071.8L753.53,1076.84L758.57,1084.38L763.6,1089.42L771.14,1094.45L778.69,1102L786.24,1109.54L793.79,1114.57L798.82,1119.61L801.34,1119.61" fill="none" stroke="#000000" style="-webkit-tap-highlight-color: rgba(0, 0, 0, 0); stroke-linecap: round; stroke-linejoin: round; stroke-width: 7;" /><path d="M652.89,379.91L650.38,379.91L650.38,382.43L650.38,384.94L652.89,387.46L652.89,395.01L655.41,400.04L655.41,407.59L655.41,412.62L655.41,420.17L657.93,425.2L657.93,430.23L657.93,435.26L660.44,437.78L660.44,440.29L660.44,442.81L660.44,447.84L660.44,450.36L660.44,455.39L660.44,457.91L660.44,460.42L660.44,462.94L660.44,465.45L660.44,467.97L660.44,470.49L660.44,473L657.93,473L657.93,475.52L655.41,478.03L655.41,480.55L655.41,483.07L652.89,485.58L650.38,490.61L647.86,493.13L647.86,498.16L645.35,500.68L642.83,503.19L642.83,505.71L640.31,508.23L637.8,510.74L635.28,513.26L635.28,515.77L632.77,518.29L632.77,523.32L632.77,525.84L632.77,530.87L632.77,533.39L630.25,538.42L630.25,543.45L630.25,551L630.25,556.03L630.25,563.58L630.25,568.61L630.25,576.16L630.25,581.19L630.25,588.74L630.25,593.77L632.77,601.32L632.77,606.35L632.77,613.9L632.77,618.93L632.77,623.96L632.77,628.99L632.77,634.02L632.77,639.06L632.77,644.09L632.77,649.12L632.77,656.67L632.77,664.22L632.77,671.76L632.77,679.31L635.28,684.34L635.28,691.89L635.28,699.44L637.8,709.5L637.8,719.57L637.8,729.63L637.8,734.66L637.8,744.73L637.8,752.28L640.31,762.34L640.31,769.89L640.31,779.95L640.31,790.01L640.31,797.56L640.31,805.11L640.31,812.66L642.83,820.21L642.83,825.24L642.83,832.79L642.83,840.33L642.83,847.88L642.83,855.43L642.83,860.46L642.83,865.49L642.83,873.04L645.35,878.07L645.35,883.11L645.35,888.14L645.35,895.69L645.35,905.75L645.35,915.81L645.35,923.36L645.35,930.91L647.86,940.97L650.38,948.52" fill="none" stroke="#000000" style="-webkit-tap-highlight-color: rgba(0, 0, 0, 0); stroke-linecap: round; stroke-linejoin: round; stroke-width: 7;" /><path d="M325.82,450.36L323.3,450.36L323.3,452.87L325.82,452.87L325.82,450.36L328.33,445.33L328.33,437.78L328.33,430.23L330.85,422.68L330.85,415.14L333.37,407.59L335.88,402.56L338.4,395.01L340.91,387.46L343.43,382.43L345.95,377.4L348.46,369.85L348.46,364.82L350.98,357.27L353.49,352.24L356.01,347.2L358.53,342.17L361.04,337.14L366.07,334.62L368.59,329.59L371.11,327.08L376.14,324.56L378.65,319.53L381.17,317.01L383.69,314.5L388.72,311.98L391.23,306.95L393.75,304.43L398.78,301.92L401.3,299.4L403.81,296.88L408.85,294.37L413.88,291.85L418.91,289.34L421.43,286.82L423.94,284.3L428.97,284.3L431.49,281.79L436.52,279.27L439.04,276.76L441.55,276.76L444.07,276.76L449.1,274.24L451.62,274.24L454.13,271.72L456.65,271.72L459.16,271.72L461.68,269.21L464.2,269.21L466.71,269.21L469.23,266.69L471.74,266.69L474.26,266.69L476.78,266.69L479.29,266.69L481.81,266.69L484.32,266.69L486.84,266.69L489.36,266.69L491.87,266.69L494.39,266.69L499.42,269.21L501.94,269.21L506.97,269.21L512,269.21L514.52,269.21L519.55,271.72L522.06,271.72L524.58,271.72L527.1,274.24L529.61,274.24L532.13,274.24L534.64,274.24L537.16,274.24L539.68,276.76L542.19,276.76L544.71,279.27L547.22,279.27L549.74,281.79L552.26,281.79L554.77,284.3L557.29,284.3L559.8,284.3L559.8,286.82L562.32,289.34L564.84,291.85L567.35,291.85L567.35,294.37L569.87,296.88L572.38,299.4L574.9,299.4L577.42,301.92L579.93,304.43L582.45,306.95L584.96,309.46L587.48,311.98L590,311.98L590,314.5L592.51,317.01L595.03,317.01L597.54,319.53L597.54,322.04L600.06,322.04L602.57,324.56L605.09,327.08L607.61,327.08L610.12,329.59L612.64,332.11L612.64,334.62L615.15,337.14L617.67,337.14L617.67,339.66L620.19,342.17L622.7,344.69L625.22,347.2L625.22,349.72L627.73,349.72L627.73,352.24L630.25,352.24L630.25,354.75L632.77,354.75L632.77,357.27L635.28,357.27L635.28,359.78L637.8,362.3L640.31,367.33L640.31,369.85L642.83,374.88L642.83,379.91L645.35,384.94L647.86,387.46" fill="none" stroke="#000000" style="-webkit-tap-highlight-color: rgba(0, 0, 0, 0); stroke-linecap: round; stroke-linejoin: round; stroke-width: 7;" /><path d="M340.91,415.14L340.91,417.65L338.4,417.65L338.4,420.17L340.91,422.68L343.43,420.17L343.43,417.65L343.43,412.62L345.95,407.59L348.46,402.56L350.98,397.52L353.49,392.49L356.01,389.98L361.04,384.94L363.56,382.43L366.07,379.91L368.59,374.88L371.11,372.36L373.62,369.85L378.65,364.82L383.69,359.78L386.2,357.27L391.23,354.75L393.75,352.24L396.27,349.72L398.78,347.2L401.3,344.69L403.81,339.66L406.33,337.14L408.85,334.62L411.36,332.11L413.88,332.11L416.39,329.59L418.91,327.08L426.46,324.56L428.97,324.56L434,322.04L436.52,322.04L439.04,322.04L444.07,319.53L449.1,319.53L454.13,317.01L459.16,317.01L461.68,317.01L466.71,317.01L471.74,317.01L476.78,317.01L481.81,317.01L486.84,317.01L491.87,314.5L494.39,314.5L496.9,314.5L501.94,314.5L504.45,314.5L506.97,314.5L512,314.5L514.52,314.5L519.55,314.5L522.06,314.5L522.06,317.01L524.58,317.01L527.1,317.01L529.61,319.53L532.13,319.53L534.64,322.04L537.16,324.56L539.68,327.08L542.19,327.08L544.71,329.59L547.22,332.11L549.74,334.62L552.26,337.14L554.77,337.14L559.8,339.66L562.32,342.17L564.84,342.17L567.35,344.69L569.87,347.2L572.38,349.72L574.9,352.24L577.42,352.24L579.93,354.75L579.93,357.27L582.45,359.78L584.96,362.3L587.48,364.82L590,367.33L592.51,367.33L595.03,369.85L595.03,372.36L597.54,374.88L597.54,377.4L600.06,379.91L602.57,382.43L605.09,384.94L607.61,387.46L610.12,387.46L610.12,389.98L612.64,392.49L612.64,395.01L615.15,397.52L617.67,402.56L620.19,407.59L620.19,410.1L622.7,415.14L622.7,417.65L625.22,420.17L627.73,422.68L627.73,425.2L630.25,427.71L630.25,432.75L630.25,435.26L632.77,437.78L632.77,440.29L635.28,442.81L635.28,445.33L635.28,447.84L637.8,450.36L637.8,452.87L637.8,455.39L637.8,457.91L637.8,460.42L637.8,462.94L637.8,465.45L637.8,467.97L637.8,470.49L637.8,473L637.8,478.03L635.28,483.07L632.77,488.1L632.77,495.65L630.25,503.19L630.25,510.74L630.25,513.26" fill="none" stroke="#000000" style="-webkit-tap-highlight-color: rgba(0, 0, 0, 0); stroke-linecap: round; stroke-linejoin: round; stroke-width: 7;" /><path d="M627.73,495.65L625.22,495.65L625.22,493.13L622.7,493.13L620.19,495.65L617.67,495.65L612.64,498.16L610.12,500.68L605.09,503.19L602.57,505.71L597.54,508.23L592.51,510.74L590,513.26L587.48,515.77L584.96,518.29L584.96,520.81L584.96,523.32L584.96,528.35L584.96,533.39L584.96,535.9L587.48,540.93L590,543.45L590,545.97L592.51,548.48L592.51,556.03L592.51,561.06L592.51,563.58L590,568.61L590,571.13L590,573.64L587.48,576.16L584.96,581.19L584.96,583.71L582.45,586.22L582.45,588.74L582.45,591.25L582.45,593.77L582.45,596.29L582.45,601.32L584.96,603.83L587.48,608.86L587.48,611.38L590,613.9L590,616.41L587.48,618.93L584.96,621.44L582.45,621.44L579.93,621.44L577.42,621.44L574.9,623.96L572.38,623.96L572.38,626.48L572.38,628.99L572.38,631.51L572.38,636.54L572.38,639.06L574.9,644.09L574.9,649.12L574.9,654.15L574.9,661.7L577.42,669.25L577.42,674.28L577.42,681.83L577.42,689.38L577.42,694.41L577.42,701.96L577.42,709.5L577.42,717.05L577.42,727.12L577.42,734.66L577.42,742.21L577.42,749.76L577.42,754.79L577.42,759.82L577.42,767.37L577.42,774.92L577.42,779.95L577.42,787.5L577.42,792.53L579.93,802.59L579.93,810.14L579.93,817.69L579.93,825.24L579.93,830.27L582.45,835.3L582.45,842.85L582.45,850.4L582.45,860.46L582.45,870.53L582.45,880.59L584.96,883.11" fill="none" stroke="#000000" style="-webkit-tap-highlight-color: rgba(0, 0, 0, 0); stroke-linecap: round; stroke-linejoin: round; stroke-width: 7;" /><path d="M340.91,430.23L338.4,430.23L338.4,432.75L340.91,435.26L340.91,440.29L340.91,447.84L343.43,455.39L343.43,462.94L348.46,467.97L350.98,473L353.49,478.03L353.49,480.55L353.49,483.07L356.01,488.1L356.01,490.61L353.49,493.13L353.49,495.65L350.98,495.65L350.98,498.16L348.46,498.16L345.95,500.68L343.43,503.19L343.43,505.71L343.43,508.23L343.43,513.26L343.43,520.81L343.43,523.32L343.43,528.35L343.43,530.87L343.43,533.39L343.43,535.9L343.43,538.42L343.43,540.93L343.43,543.45L343.43,545.97L345.95,548.48L345.95,551L348.46,553.51L348.46,558.55L350.98,561.06L353.49,563.58L356.01,568.61L356.01,571.13L358.53,573.64L358.53,576.16L358.53,581.19L358.53,583.71L361.04,586.22L361.04,588.74L361.04,593.77L361.04,598.8L361.04,603.83L361.04,606.35L361.04,611.38L361.04,613.9L361.04,618.93L363.56,621.44L363.56,623.96L363.56,626.48L366.07,628.99L368.59,631.51L371.11,634.02L373.62,634.02L376.14,636.54L378.65,639.06L378.65,641.57L378.65,644.09L381.17,646.6L381.17,649.12L381.17,654.15L381.17,656.67L381.17,661.7L381.17,666.73L381.17,671.76L381.17,676.8L381.17,681.83L381.17,686.86L381.17,691.89L381.17,699.44L381.17,704.47L381.17,712.02L381.17,717.05L381.17,722.08L381.17,727.12L381.17,734.66L381.17,742.21L381.17,749.76L381.17,757.31L381.17,762.34L381.17,767.37L381.17,774.92L381.17,782.47L381.17,790.01L381.17,797.56L381.17,802.59L381.17,807.63L381.17,812.66L381.17,820.21L381.17,827.75L381.17,832.79L381.17,840.33L383.69,847.88L383.69,860.46L383.69,870.53L383.69,880.59L386.2,890.65" fill="none" stroke="#000000" style="-webkit-tap-highlight-color: rgba(0, 0, 0, 0); stroke-linecap: round; stroke-linejoin: round; stroke-width: 7;" /><path d="M356.01,608.86L356.01,611.38L356.01,616.41L356.01,621.44L358.53,626.48L358.53,631.51L358.53,639.06L361.04,646.6L361.04,651.64L361.04,659.18L361.04,664.22L363.56,669.25L363.56,676.8L363.56,684.34L363.56,691.89L363.56,696.92L363.56,699.44L363.56,706.99L363.56,714.54L366.07,719.57L366.07,727.12L366.07,732.15L366.07,739.7L366.07,744.73L366.07,752.28L366.07,757.31L366.07,762.34L366.07,767.37L366.07,772.4L366.07,777.43L366.07,784.98L366.07,790.01L366.07,795.05L366.07,802.59L366.07,807.63L366.07,812.66L366.07,817.69L366.07,822.72L366.07,830.27L366.07,837.82L366.07,847.88L366.07,862.98L366.07,878.07L363.56,890.65L363.56,903.23L366.07,910.78L366.07,915.81" fill="none" stroke="#000000" style="-webkit-tap-highlight-color: rgba(0, 0, 0, 0); stroke-linecap: round; stroke-linejoin: round; stroke-width: 7;" /><path d="M278.01,25.16L275.5,25.16L275.5,27.68L275.5,30.19L272.98,32.71L270.47,35.22L270.47,37.74L270.47,40.26L270.47,42.77L270.47,45.29L270.47,47.8L270.47,50.32L270.47,55.35L270.47,57.87L270.47,62.9L270.47,65.42L270.47,70.45L270.47,72.96L272.98,78L272.98,83.03L272.98,90.57L272.98,95.61L272.98,98.12L272.98,103.15L272.98,108.19L272.98,115.73L272.98,123.28L272.98,128.31L272.98,133.35L272.98,140.89L272.98,148.44L272.98,155.99L272.98,163.54L272.98,168.57L272.98,176.12L272.98,183.67L272.98,191.21L272.98,198.76L272.98,203.79L272.98,211.34L272.98,216.37L272.98,223.92L272.98,233.99L272.98,239.02L275.5,246.57L275.5,254.11L275.5,259.14L275.5,269.21L275.5,276.76L275.5,284.3L275.5,291.85L275.5,299.4L275.5,309.46L275.5,319.53L275.5,329.59L272.98,337.14L272.98,344.69L272.98,354.75L272.98,362.3L272.98,372.36L272.98,379.91L272.98,387.46L272.98,395.01L272.98,402.56L272.98,412.62L275.5,417.65L275.5,422.68L275.5,430.23L275.5,437.78L275.5,442.81L275.5,450.36L275.5,455.39L275.5,460.42L278.01,465.45L278.01,470.49L278.01,475.52L280.53,483.07L280.53,488.1L280.53,493.13L280.53,498.16L280.53,503.19L283.05,510.74L283.05,515.77L283.05,518.29L283.05,523.32L283.05,528.35L283.05,535.9L283.05,543.45L283.05,548.48L283.05,556.03L283.05,563.58L283.05,568.61L283.05,576.16L283.05,583.71L283.05,588.74L283.05,596.29L283.05,603.83L283.05,611.38L283.05,621.44L283.05,631.51L285.56,641.57L285.56,649.12L285.56,656.67L285.56,664.22L285.56,671.76L288.08,679.31L288.08,686.86L288.08,694.41L288.08,701.96L290.59,706.99L290.59,712.02L290.59,717.05L290.59,722.08L290.59,729.63L290.59,734.66L290.59,742.21L290.59,744.73L290.59,749.76L290.59,754.79L290.59,762.34L290.59,769.89L290.59,774.92L290.59,782.47L293.11,787.5L295.63,787.5" fill="none" stroke="#000000" style="-webkit-tap-highlight-color: rgba(0, 0, 0, 0); stroke-linecap: round; stroke-linejoin: round; stroke-width: 7;" /><path d="M293.11,462.94L298.14,462.94L305.69,460.42L318.27,457.91L328.33,455.39L333.37,452.87L335.88,450.36L335.88,447.84" fill="none" stroke="#000000" style="-webkit-tap-highlight-color: rgba(0, 0, 0, 0); stroke-linecap: round; stroke-linejoin: round; stroke-width: 7;" /><path d="M184.92,714.54L179.89,717.05L179.89,719.57L179.89,727.12L182.41,729.63L184.92,732.15L189.96,734.66L194.99,737.18L200.02,739.7L202.54,742.21L207.57,744.73L212.6,747.24L217.63,749.76L222.66,754.79L230.21,757.31L235.24,759.82L240.28,762.34L245.31,764.86L250.34,767.37L255.37,767.37L260.4,769.89L262.92,769.89L265.43,772.4L270.47,774.92L275.5,777.43L280.53,779.95L283.05,782.47L288.08,784.98L290.59,787.5L293.11,787.5L295.63,790.01L298.14,792.53L300.66,792.53L303.17,795.05L305.69,797.56L305.69,800.08L308.21,805.11L308.21,807.63L308.21,810.14L308.21,812.66L308.21,817.69L308.21,822.72L308.21,825.24L308.21,830.27L308.21,835.3L308.21,840.33L310.72,847.88L310.72,852.91L310.72,857.95L310.72,862.98L310.72,868.01L310.72,875.56L310.72,883.11L310.72,893.17L310.72,900.72L310.72,903.23L308.21,913.3L308.21,920.85L308.21,928.39L308.21,933.43L308.21,938.46L308.21,943.49L308.21,951.04L308.21,956.07L308.21,963.62L310.72,966.13L310.72,971.16L310.72,976.2L313.24,978.71L313.24,983.74L313.24,986.26L315.75,988.78L315.75,991.29L318.27,993.81L320.79,996.32L323.3,996.32L328.33,998.84L330.85,998.84L335.88,1001.36L340.91,1001.36L345.95,1003.87L350.98,1003.87L356.01,1003.87L361.04,1003.87L366.07,1006.39L371.11,1006.39L373.62,1006.39L378.65,1006.39L381.17,1003.87L386.2,1003.87L388.72,1003.87L391.23,1003.87L393.75,1003.87L396.27,1003.87L398.78,1003.87L401.3,1003.87L403.81,1003.87L406.33,1003.87L408.85,1003.87L411.36,1003.87L411.36,1006.39L413.88,1008.9L413.88,1011.42L413.88,1016.45L413.88,1021.48L413.88,1024L413.88,1026.52L413.88,1031.55L413.88,1036.58L413.88,1041.61L411.36,1044.13L411.36,1046.64L411.36,1049.16L411.36,1054.19L411.36,1061.74L411.36,1066.77L411.36,1074.32L411.36,1079.35L411.36,1084.38L411.36,1094.45L411.36,1109.54L413.88,1122.12L413.88,1137.22L413.88,1149.8" fill="none" stroke="#000000" style="-webkit-tap-highlight-color: rgba(0, 0, 0, 0); stroke-linecap: round; stroke-linejoin: round; stroke-width: 7;" /><path d="M222.66,1044.13L220.15,1041.61L220.15,1039.1L225.18,1036.58L232.73,1036.58L237.76,1036.58L245.31,1036.58L252.86,1034.06L257.89,1034.06L265.43,1034.06L270.47,1034.06L278.01,1034.06L283.05,1034.06L290.59,1036.58L295.63,1036.58L303.17,1039.1L310.72,1039.1L318.27,1039.1L323.3,1039.1L330.85,1039.1L335.88,1039.1L340.91,1039.1L345.95,1041.61L350.98,1041.61L356.01,1041.61L361.04,1041.61L366.07,1041.61L368.59,1044.13L373.62,1044.13L381.17,1044.13L386.2,1044.13L393.75,1041.61L398.78,1039.1L403.81,1036.58L408.85,1034.06L416.39,1034.06" fill="none" stroke="#000000" style="-webkit-tap-highlight-color: rgba(0, 0, 0, 0); stroke-linecap: round; stroke-linejoin: round; stroke-width: 7;" /><path d="M255.37,1149.8L252.86,1149.8L252.86,1147.28L255.37,1144.77L257.89,1144.77L265.43,1142.25L272.98,1139.73L280.53,1139.73L288.08,1139.73L295.63,1139.73L300.66,1139.73L310.72,1139.73L318.27,1139.73L325.82,1139.73L330.85,1139.73L335.88,1142.25L343.43,1142.25L350.98,1142.25L356.01,1144.77L361.04,1144.77L366.07,1147.28L371.11,1149.8L376.14,1149.8L383.69,1149.8L391.23,1152.31L398.78,1152.31L406.33,1152.31L413.88,1152.31L421.43,1149.8L426.46,1149.8L431.49,1149.8" fill="none" stroke="#000000" style="-webkit-tap-highlight-color: rgba(0, 0, 0, 0); stroke-linecap: round; stroke-linejoin: round; stroke-width: 7;" /><path d="M61.64,827.75L59.13,830.27L51.58,832.79L54.09,832.79L61.64,835.3L74.22,837.82L81.77,837.82L89.32,837.82L96.86,837.82L101.9,837.82L106.93,837.82L111.96,837.82L116.99,840.33L122.02,840.33L127.06,842.85L132.09,842.85L134.6,847.88L139.64,850.4L147.18,855.43L152.22,860.46L154.73,865.49L159.76,870.53L162.28,878.07L164.8,885.62L167.31,893.17L169.83,900.72L172.34,908.27L174.86,915.81L177.38,920.85L177.38,928.39L179.89,935.94L182.41,940.97L182.41,946L184.92,951.04L187.44,958.58L189.96,963.62L192.47,968.65L192.47,973.68L197.5,978.71L200.02,983.74L202.54,986.26L205.05,991.29L205.05,993.81L205.05,998.84L207.57,1003.87L207.57,1008.9L207.57,1013.94L207.57,1018.97L207.57,1024L207.57,1029.03L210.08,1034.06L210.08,1039.1L210.08,1041.61L212.6,1046.64L212.6,1054.19L215.12,1059.22L217.63,1064.26L220.15,1069.29L220.15,1074.32L222.66,1079.35L222.66,1084.38L225.18,1089.42L227.7,1094.45L230.21,1099.48L235.24,1109.54L237.76,1114.57L240.28,1122.12L242.79,1127.15L245.31,1134.7L247.82,1142.25L247.82,1149.8L250.34,1154.83L250.34,1157.35" fill="none" stroke="#000000" style="-webkit-tap-highlight-color: rgba(0, 0, 0, 0); stroke-linecap: round; stroke-linejoin: round; stroke-width: 7;" /><path d="M84.29,835.3L81.77,830.27L84.29,827.75L94.35,825.24L101.9,825.24L109.44,825.24L116.99,822.72L122.02,822.72L129.57,822.72L137.12,822.72L144.67,822.72L154.73,822.72L162.28,820.21L172.34,817.69L179.89,817.69L187.44,817.69L194.99,817.69L202.54,817.69L210.08,817.69L217.63,817.69L222.66,817.69L227.7,817.69L235.24,817.69L240.28,817.69L247.82,815.17L252.86,815.17L255.37,815.17L260.4,815.17L265.43,815.17L270.47,812.66L272.98,812.66L278.01,812.66L280.53,810.14L285.56,810.14L288.08,807.63L290.59,807.63L290.59,805.11L293.11,805.11L295.63,805.11" fill="none" stroke="#000000" style="-webkit-tap-highlight-color: rgba(0, 0, 0, 0); stroke-linecap: round; stroke-linejoin: round; stroke-width: 7;" /><path d="M285.56,815.17L283.05,812.66L283.05,815.17L283.05,820.21L283.05,830.27L280.53,840.33L280.53,852.91L280.53,868.01L280.53,880.59L280.53,890.65L280.53,903.23L283.05,913.3L283.05,925.88L283.05,935.94L285.56,946L285.56,956.07L288.08,963.62L288.08,968.65L290.59,976.2L290.59,983.74L290.59,993.81L290.59,1001.36L290.59,1008.9L290.59,1013.94L290.59,1018.97L293.11,1021.48" fill="none" stroke="#000000" style="-webkit-tap-highlight-color: rgba(0, 0, 0, 0); stroke-linecap: round; stroke-linejoin: round; stroke-width: 7;" /><path d="M230.21,37.74L230.21,35.22L227.7,35.22L230.21,37.74L230.21,35.22L227.7,27.68L227.7,30.19L230.21,37.74L235.24,50.32L235.24,57.87L237.76,65.42L237.76,72.96L237.76,80.51L237.76,88.06L237.76,95.61L240.28,103.15L240.28,110.7L240.28,115.73L240.28,120.77L240.28,125.8L240.28,130.83L240.28,138.38L237.76,143.41L237.76,148.44L237.76,153.47L237.76,161.02L237.76,166.05L235.24,171.09L235.24,176.12L235.24,183.67L235.24,188.7L232.73,196.25L232.73,201.28L232.73,206.31L232.73,213.86L232.73,218.89L232.73,226.44L232.73,233.99L230.21,239.02L230.21,246.57L230.21,254.11L230.21,259.14L230.21,266.69L230.21,269.21L230.21,274.24L230.21,281.79L230.21,286.82L227.7,294.37L227.7,299.4L227.7,304.43L227.7,311.98L227.7,317.01L227.7,322.04L227.7,329.59L227.7,334.62L227.7,342.17L227.7,349.72L227.7,354.75L227.7,362.3L227.7,372.36L227.7,377.4L227.7,382.43L227.7,387.46L227.7,395.01L227.7,402.56L227.7,410.1L227.7,415.14L227.7,417.65L227.7,422.68L227.7,425.2L227.7,430.23L227.7,435.26L227.7,440.29L227.7,442.81L227.7,447.84L230.21,452.87L230.21,455.39L230.21,460.42L232.73,462.94L232.73,467.97L232.73,473L235.24,478.03L235.24,483.07L237.76,485.58L237.76,490.61L240.28,495.65L240.28,498.16L240.28,503.19L240.28,508.23L240.28,515.77L240.28,520.81L240.28,525.84L242.79,530.87L242.79,535.9L242.79,540.93L242.79,545.97L242.79,551L242.79,556.03L242.79,563.58L245.31,566.09L245.31,571.13L245.31,578.67L245.31,586.22L242.79,593.77L242.79,598.8L242.79,606.35L242.79,611.38L242.79,616.41L242.79,621.44L242.79,628.99L242.79,634.02L242.79,641.57L242.79,646.6L242.79,651.64L242.79,659.18L240.28,666.73L240.28,671.76L240.28,676.8L240.28,679.31L237.76,681.83L237.76,684.34L237.76,686.86L237.76,689.38L235.24,691.89L235.24,694.41L232.73,696.92L230.21,699.44L227.7,701.96L225.18,706.99L220.15,712.02L215.12,717.05L210.08,717.05L202.54,719.57L197.5,719.57L192.47,722.08L189.96,729.63L189.96,734.66" fill="none" stroke="#000000" style="-webkit-tap-highlight-color: rgba(0, 0, 0, 0); stroke-linecap: round; stroke-linejoin: round; stroke-width: 7;" /><path d="M217.63,384.94L215.12,384.94L210.08,384.94L205.05,384.94L200.02,384.94L197.5,384.94L192.47,384.94L187.44,382.43L184.92,382.43L182.41,382.43L179.89,384.94L177.38,384.94L177.38,387.46L177.38,389.98L177.38,392.49L174.86,395.01L174.86,400.04L174.86,405.07L172.34,407.59L172.34,410.1L172.34,412.62L169.83,412.62L169.83,415.14L169.83,417.65L169.83,420.17L167.31,420.17L167.31,422.68L164.8,425.2L164.8,427.71L162.28,430.23L159.76,430.23L159.76,432.75L157.25,435.26L154.73,435.26L152.22,437.78L149.7,440.29L149.7,442.81L147.18,445.33L144.67,447.84L142.15,452.87L142.15,455.39L139.64,457.91L137.12,460.42L134.6,462.94L132.09,465.45L129.57,467.97L127.06,470.49L124.54,473L122.02,473L116.99,478.03L114.48,480.55L111.96,483.07L111.96,485.58L109.44,490.61L106.93,493.13L104.41,498.16L101.9,500.68L99.38,505.71L96.86,508.23L94.35,510.74L89.32,513.26L86.8,515.77L84.29,518.29L79.25,523.32L74.22,525.84L69.19,528.35L64.16,530.87L61.64,533.39L59.13,533.39L56.61,533.39L54.09,535.9L51.58,535.9L49.06,535.9L49.06,538.42L46.55,538.42L46.55,540.93L46.55,543.45L44.03,545.97L44.03,548.48L44.03,553.51L44.03,556.03L44.03,563.58L41.51,566.09L36.48,566.09L31.45,568.61L26.42,571.13L21.39,571.13L16.35,573.64L13.84,576.16" fill="none" stroke="#000000" style="-webkit-tap-highlight-color: rgba(0, 0, 0, 0); stroke-linecap: round; stroke-linejoin: round; stroke-width: 7;" /><path d="M39,727.12L36.48,724.6L33.97,722.08L36.48,722.08L39,722.08L46.55,722.08L56.61,719.57L66.67,719.57L74.22,717.05L81.77,719.57L86.8,719.57L91.83,722.08L99.38,722.08L104.41,722.08L109.44,722.08L114.48,724.6L119.51,724.6L124.54,727.12L132.09,729.63L137.12,729.63L144.67,729.63L152.22,729.63L157.25,729.63L164.8,729.63L172.34,729.63L177.38,729.63L184.92,729.63L187.44,729.63" fill="none" stroke="#000000" style="-webkit-tap-highlight-color: rgba(0, 0, 0, 0); stroke-linecap: round; stroke-linejoin: round; stroke-width: 7;" /><path d="M162.28,925.88L162.28,928.39L159.76,933.43L157.25,938.46L154.73,946L149.7,956.07L147.18,963.62L142.15,971.16L139.64,978.71L134.6,986.26L132.09,993.81L129.57,1001.36L124.54,1006.39L119.51,1013.94L116.99,1018.97L111.96,1024L109.44,1026.52L106.93,1031.55L104.41,1036.58L104.41,1041.61L101.9,1046.64L101.9,1049.16L99.38,1051.68L99.38,1054.19L99.38,1059.22L96.86,1064.26L96.86,1069.29L96.86,1076.84L96.86,1081.87L96.86,1089.42L99.38,1099.48L99.38,1109.54L99.38,1122.12L101.9,1134.7L101.9,1147.28L101.9,1159.86L101.9,1172.44L101.9,1187.54" fill="none" stroke="#000000" style="-webkit-tap-highlight-color: rgba(0, 0, 0, 0); stroke-linecap: round; stroke-linejoin: round; stroke-width: 7;" /><path d="M245.31,1149.8L242.79,1149.8L242.79,1152.31L242.79,1154.83L240.28,1159.86L237.76,1169.93L232.73,1177.47L227.7,1187.54L225.18,1195.09L220.15,1200.12L217.63,1202.63L217.63,1205.15" fill="none" stroke="#000000" style="-webkit-tap-highlight-color: rgba(0, 0, 0, 0); stroke-linecap: round; stroke-linejoin: round; stroke-width: 7;" /><path d="M106.93,1200.12L104.41,1200.12L111.96,1197.6L124.54,1197.6L132.09,1197.6L139.64,1197.6L149.7,1197.6L162.28,1197.6L169.83,1197.6L179.89,1197.6L187.44,1200.12L194.99,1200.12L205.05,1200.12L212.6,1200.12L220.15,1200.12L225.18,1200.12L230.21,1202.63L235.24,1202.63L242.79,1205.15L252.86,1205.15L262.92,1205.15L267.95,1205.15L275.5,1205.15L285.56,1205.15L295.63,1205.15L305.69,1202.63L313.24,1202.63L320.79,1202.63L330.85,1202.63L340.91,1202.63L350.98,1200.12L363.56,1200.12L373.62,1200.12L383.69,1200.12L393.75,1200.12L401.3,1200.12L406.33,1200.12L411.36,1200.12L416.39,1200.12L421.43,1200.12L426.46,1200.12L428.97,1200.12L434,1200.12L439.04,1200.12L444.07,1200.12L449.1,1200.12L454.13,1200.12L461.68,1200.12L469.23,1200.12L479.29,1200.12L489.36,1200.12L499.42,1200.12L506.97,1200.12L517.03,1202.63L527.1,1202.63L534.64,1202.63L542.19,1202.63L549.74,1202.63L557.29,1202.63L562.32,1202.63L567.35,1202.63L574.9,1202.63L579.93,1202.63L584.96,1202.63L592.51,1202.63L597.54,1202.63L605.09,1202.63L612.64,1205.15L620.19,1205.15L630.25,1205.15L637.8,1205.15L647.86,1205.15L657.93,1207.67L667.99,1207.67L678.05,1207.67L690.63,1210.18L700.7,1210.18L713.28,1210.18L725.86,1210.18L738.44,1210.18L748.5,1210.18L761.08,1212.7L771.14,1212.7L783.72,1212.7L793.79,1212.7L803.85,1212.7L813.92,1212.7L823.98,1212.7L834.04,1212.7L846.62,1212.7L856.69,1212.7L866.75,1210.18L876.82,1210.18L886.88,1210.18L896.94,1207.67L907.01,1207.67L914.56,1207.67L922.1,1205.15L929.65,1205.15L934.68,1205.15L942.23,1205.15L949.78,1205.15L954.81,1205.15L962.36,1205.15L969.91,1205.15L974.94,1205.15L979.97,1205.15L985,1205.15L990.03,1202.63L995.07,1202.63L997.58,1205.15" fill="none" stroke="#000000" style="-webkit-tap-highlight-color: rgba(0, 0, 0, 0); stroke-linecap: round; stroke-linejoin: round; stroke-width: 7;" /><path d="M901.98,1159.86L904.49,1159.86L907.01,1162.38L909.52,1167.41L914.56,1169.93L919.59,1174.96L927.14,1177.47L937.2,1179.99L944.75,1182.51L949.78,1187.54L957.33,1192.57L964.87,1195.09L972.42,1200.12L974.94,1202.63" fill="none" stroke="#000000" style="-webkit-tap-highlight-color: rgba(0, 0, 0, 0); stroke-linecap: round; stroke-linejoin: round; stroke-width: 7;" /><path d="M106.93,1242.89L104.41,1240.37L104.41,1235.34L101.9,1235.34L104.41,1235.34L106.93,1237.86L114.48,1237.86L122.02,1237.86L132.09,1237.86L139.64,1237.86L149.7,1237.86L159.76,1240.37L172.34,1240.37L182.41,1240.37L192.47,1240.37L202.54,1242.89L210.08,1242.89L220.15,1245.41L230.21,1245.41L240.28,1245.41L250.34,1245.41L257.89,1245.41L265.43,1245.41L272.98,1245.41L283.05,1245.41L290.59,1245.41L300.66,1245.41L308.21,1245.41L315.75,1245.41L323.3,1245.41L330.85,1245.41L340.91,1245.41L348.46,1242.89L356.01,1242.89L366.07,1242.89L373.62,1242.89L383.69,1242.89L393.75,1245.41L403.81,1245.41L413.88,1245.41L421.43,1245.41L434,1247.92L444.07,1247.92L456.65,1247.92L466.71,1247.92L479.29,1247.92L491.87,1247.92L501.94,1247.92L514.52,1245.41L524.58,1245.41L537.16,1245.41L547.22,1245.41L557.29,1245.41L569.87,1245.41L579.93,1245.41L592.51,1245.41L605.09,1245.41L617.67,1245.41L630.25,1245.41L642.83,1245.41L655.41,1245.41L667.99,1245.41L680.57,1245.41L690.63,1245.41L700.7,1245.41L713.28,1245.41L725.86,1245.41L735.92,1245.41L748.5,1245.41L758.57,1245.41L768.63,1242.89L778.69,1242.89L791.27,1242.89L801.34,1240.37L811.4,1240.37L821.46,1240.37L831.53,1240.37L841.59,1240.37L851.66,1240.37L861.72,1240.37L871.78,1240.37L879.33,1240.37L889.4,1240.37L899.46,1240.37L909.52,1240.37L919.59,1240.37L927.14,1240.37L937.2,1240.37L944.75,1237.86L952.29,1237.86L959.84,1237.86L964.87,1237.86L969.91,1237.86L974.94,1237.86L982.49,1237.86L990.03,1235.34L995.07,1235.34L1000.1,1235.34L1002.61,1240.37" fill="none" stroke="#000000" style="-webkit-tap-highlight-color: rgba(0, 0, 0, 0); stroke-linecap: round; stroke-linejoin: round; stroke-width: 7;" /><path d="M132.09,1351.08L129.57,1351.08L127.06,1351.08L127.06,1353.59L132.09,1353.59L137.12,1353.59L144.67,1356.11L154.73,1356.11L164.8,1356.11L174.86,1356.11L184.92,1356.11L192.47,1356.11L202.54,1358.62L212.6,1358.62L222.66,1358.62L230.21,1358.62L237.76,1358.62L245.31,1361.14L250.34,1361.14L257.89,1363.66L265.43,1363.66L272.98,1363.66L280.53,1363.66L290.59,1366.17L298.14,1368.69L310.72,1368.69L320.79,1368.69L333.37,1368.69L345.95,1368.69L356.01,1368.69L368.59,1368.69L378.65,1368.69L393.75,1368.69L403.81,1366.17L416.39,1366.17L428.97,1363.66L441.55,1363.66L451.62,1361.14L464.2,1361.14L474.26,1361.14L484.32,1358.62L496.9,1358.62L506.97,1358.62L517.03,1356.11L527.1,1356.11L539.68,1356.11L549.74,1356.11L574.9,1353.59L587.48,1353.59L602.57,1353.59L615.15,1353.59L627.73,1353.59L640.31,1353.59L652.89,1353.59L665.47,1356.11L678.05,1356.11L690.63,1356.11L700.7,1353.59L715.79,1353.59L728.37,1351.08L740.95,1351.08L753.53,1348.56L768.63,1348.56L781.21,1348.56L793.79,1346.04L803.85,1346.04L813.92,1346.04L826.5,1346.04L836.56,1346.04L846.62,1346.04L856.69,1346.04L869.27,1346.04L879.33,1343.53L889.4,1343.53L899.46,1343.53L907.01,1343.53L914.56,1343.53L919.59,1343.53L927.14,1343.53L932.17,1343.53L937.2,1343.53L944.75,1343.53L949.78,1343.53L957.33,1343.53L962.36,1343.53L969.91,1343.53L977.45,1343.53L982.49,1343.53L990.03,1346.04L997.58,1348.56" fill="none" stroke="#000000" style="-webkit-tap-highlight-color: rgba(0, 0, 0, 0); stroke-linecap: round; stroke-linejoin: round; stroke-width: 7;" /><path d="M391.23,888.14L388.72,885.62L396.27,883.11L401.3,883.11L406.33,880.59L411.36,880.59L413.88,880.59L421.43,880.59L426.46,880.59L434,878.07L436.52,878.07L441.55,875.56L446.58,875.56L451.62,875.56L456.65,875.56L461.68,875.56L466.71,875.56L471.74,875.56L479.29,875.56L484.32,873.04L489.36,873.04L494.39,873.04L496.9,873.04L501.94,873.04L509.48,875.56L514.52,875.56L517.03,875.56L522.06,875.56L524.58,875.56L529.61,875.56L534.64,875.56L539.68,875.56L544.71,875.56L549.74,875.56L552.26,875.56L557.29,875.56L559.8,875.56L564.84,875.56L567.35,875.56L572.38,875.56L577.42,875.56L582.45,875.56L584.96,873.04L590,873.04" fill="none" stroke="#000000" style="-webkit-tap-highlight-color: rgba(0, 0, 0, 0); stroke-linecap: round; stroke-linejoin: round; stroke-width: 7;" /><path d="M597.54,868.01L592.51,870.53L590,870.53L592.51,870.53L595.03,873.04L597.54,873.04L605.09,873.04L610.12,873.04L615.15,873.04L617.67,873.04L620.19,873.04L622.7,870.53L625.22,870.53L627.73,873.04L630.25,875.56L632.77,880.59L635.28,888.14L637.8,895.69L642.83,903.23L645.35,903.23" fill="none" stroke="#000000" style="-webkit-tap-highlight-color: rgba(0, 0, 0, 0); stroke-linecap: round; stroke-linejoin: round; stroke-width: 7;" /><path d="M386.2,890.65L386.2,888.14L386.2,885.62L386.2,888.14L381.17,890.65L376.14,895.69L371.11,900.72L368.59,905.75L366.07,913.3L363.56,918.33L361.04,920.85L358.53,923.36L356.01,925.88L356.01,930.91L353.49,935.94L350.98,938.46L350.98,940.97L348.46,946L345.95,948.52L343.43,951.04L340.91,956.07L338.4,963.62L333.37,968.65L330.85,976.2L325.82,983.74L323.3,988.78L320.79,991.29L320.79,993.81" fill="none" stroke="#000000" style="-webkit-tap-highlight-color: rgba(0, 0, 0, 0); stroke-linecap: round; stroke-linejoin: round; stroke-width: 7;" /><path d="M371.11,946L368.59,946L366.07,946L368.59,946L373.62,946L381.17,946L383.69,946L388.72,948.52L396.27,948.52L401.3,948.52L403.81,948.52L406.33,948.52L406.33,951.04L406.33,953.55L403.81,956.07L403.81,958.58L403.81,961.1L401.3,963.62L401.3,966.13L398.78,968.65L396.27,971.16L393.75,973.68L388.72,973.68L386.2,976.2L381.17,976.2L378.65,976.2L373.62,976.2L371.11,978.71L366.07,981.23L363.56,983.74L361.04,986.26L361.04,988.78L358.53,993.81L358.53,998.84" fill="none" stroke="#000000" style="-webkit-tap-highlight-color: rgba(0, 0, 0, 0); stroke-linecap: round; stroke-linejoin: round; stroke-width: 7;" /><path d="M517.03,935.94L519.55,935.94L529.61,938.46L534.64,938.46L542.19,938.46L549.74,938.46L557.29,938.46L564.84,938.46L572.38,935.94L577.42,935.94L582.45,935.94L590,933.43L595.03,933.43L602.57,933.43L607.61,933.43L615.15,930.91L620.19,930.91L627.73,928.39L632.77,928.39L637.8,925.88L642.83,923.36L647.86,920.85L652.89,920.85" fill="none" stroke="#000000" style="-webkit-tap-highlight-color: rgba(0, 0, 0, 0); stroke-linecap: round; stroke-linejoin: round; stroke-width: 7;" /><path d="M537.16,933.43L537.16,930.91L537.16,928.39L537.16,930.91L537.16,933.43L537.16,938.46L539.68,943.49L542.19,946L544.71,951.04L547.22,956.07L552.26,961.1L554.77,963.62L557.29,966.13L562.32,971.16L564.84,973.68L567.35,976.2L569.87,978.71L574.9,981.23L577.42,983.74L582.45,986.26L584.96,988.78L587.48,988.78L592.51,993.81L595.03,996.32L600.06,998.84L602.57,1003.87L605.09,1006.39L610.12,1008.9L612.64,1011.42L615.15,1013.94L620.19,1016.45L622.7,1021.48L625.22,1024L630.25,1026.52L632.77,1029.03L637.8,1031.55L640.31,1034.06L642.83,1036.58L645.35,1041.61L647.86,1046.64L650.38,1054.19L652.89,1059.22L655.41,1066.77L660.44,1071.8L662.96,1071.8" fill="none" stroke="#000000" style="-webkit-tap-highlight-color: rgba(0, 0, 0, 0); stroke-linecap: round; stroke-linejoin: round; stroke-width: 7;" /><path d="M406.33,940.97L403.81,943.49L403.81,946L406.33,946L411.36,946L416.39,946L418.91,946L423.94,946L431.49,940.97L439.04,938.46L446.58,933.43L451.62,933.43L456.65,930.91L461.68,930.91L466.71,930.91L471.74,930.91L476.78,930.91L479.29,930.91L481.81,930.91L486.84,930.91L489.36,930.91L494.39,933.43L501.94,933.43L506.97,935.94L514.52,938.46L522.06,938.46L532.13,938.46L542.19,938.46L554.77,938.46" fill="none" stroke="#000000" style="-webkit-tap-highlight-color: rgba(0, 0, 0, 0); stroke-linecap: round; stroke-linejoin: round; stroke-width: 7;" /><path d="M393.75,908.27L396.27,908.27L403.81,910.78L413.88,913.3L421.43,915.81L428.97,915.81L434,915.81L444.07,915.81L451.62,913.3L461.68,910.78L469.23,910.78L476.78,910.78L481.81,910.78L489.36,910.78L496.9,910.78L504.45,910.78L509.48,910.78L517.03,910.78L522.06,910.78L527.1,910.78L532.13,910.78L537.16,910.78L544.71,910.78L549.74,910.78L557.29,908.27L559.8,908.27L564.84,908.27L569.87,908.27L577.42,908.27L584.96,908.27L592.51,905.75L602.57,905.75L612.64,903.23L622.7,903.23L627.73,903.23" fill="none" stroke="#000000" style="-webkit-tap-highlight-color: rgba(0, 0, 0, 0); stroke-linecap: round; stroke-linejoin: round; stroke-width: 7;" /><path d="M396.27,727.12L393.75,727.12L391.23,727.12L391.23,724.6L393.75,724.6L396.27,724.6L398.78,722.08L403.81,719.57L411.36,717.05L416.39,717.05L421.43,717.05L426.46,719.57L431.49,722.08L436.52,722.08L441.55,722.08L446.58,722.08L451.62,722.08L456.65,724.6L461.68,724.6L469.23,724.6L474.26,724.6L481.81,724.6L486.84,724.6L489.36,727.12L494.39,727.12L501.94,727.12L509.48,727.12L514.52,727.12L519.55,727.12L524.58,724.6L529.61,724.6L534.64,724.6L539.68,724.6L544.71,724.6L549.74,724.6L554.77,724.6L559.8,724.6L567.35,724.6L574.9,724.6L579.93,724.6L582.45,727.12" fill="none" stroke="#000000" style="-webkit-tap-highlight-color: rgba(0, 0, 0, 0); stroke-linecap: round; stroke-linejoin: round; stroke-width: 7;" /><path d="M101.9,1242.89L101.9,1240.37L101.9,1235.34L99.38,1240.37L81.77,1260.5L71.71,1270.57L61.64,1280.63L56.61,1288.18L56.61,1290.69" fill="none" stroke="#000000" style="-webkit-tap-highlight-color: rgba(0, 0, 0, 0); stroke-linecap: round; stroke-linejoin: round; stroke-width: 7;" /><path d="M134.6,1351.08L134.6,1348.56L132.09,1351.08L127.06,1356.11L116.99,1363.66L106.93,1371.2L96.86,1381.27L91.83,1391.33" fill="none" stroke="#000000" style="-webkit-tap-highlight-color: rgba(0, 0, 0, 0); stroke-linecap: round; stroke-linejoin: round; stroke-width: 7;" /><path d="M104.41,1250.44L101.9,1247.92L101.9,1242.89L99.38,1240.37L101.9,1245.41L101.9,1250.44L106.93,1255.47L109.44,1263.02L111.96,1268.05L114.48,1275.6L116.99,1283.14L116.99,1293.21L119.51,1300.76L124.54,1310.82L127.06,1318.37L127.06,1328.43L129.57,1335.98L132.09,1346.04L134.6,1356.11L137.12,1363.66" fill="none" stroke="#000000" style="-webkit-tap-highlight-color: rgba(0, 0, 0, 0); stroke-linecap: round; stroke-linejoin: round; stroke-width: 7;" /></svg>