<?xml version="1.0" encoding="utf-8" ?>
<svg baseProfile="full" height="1405" version="1.1" width="1024" xmlns="http://www.w3.org/2000/svg" xmlns:ev="http://www.w3.org/2001/xml-events" xmlns:xlink="http://www.w3.org/1999/xlink"><defs /><path d="M378.11,860.36L378.11,857.88L380.59,857.88L380.59,860.36L383.07,860.36L383.07,862.84L383.07,865.32L385.55,865.32L385.55,867.8L385.55,865.32L383.07,865.32L380.59,865.32L380.59,862.84L380.59,860.36L378.11,860.36L378.11,857.88L378.11,855.4L378.11,852.92L378.11,850.44L378.11,847.96L378.11,845.48L378.11,843L378.11,840.52L378.11,838.04L378.11,835.56L378.11,833.08L378.11,830.61L378.11,828.13L378.11,825.65L378.11,823.17L378.11,820.69L375.63,820.69L375.63,818.21L375.63,815.73" fill="none" stroke="#000000" style="-webkit-tap-highlight-color: rgba(0, 0, 0, 0); stroke-linecap: round; stroke-linejoin: round; stroke-width: 7;" /><path d="M378.11,870.28L376,858L375,864L378,849L378,840L381,833L377,821L381,808L376,820L381,801L361,793L380,788L380,787L361,786L360,781L360,776L360,774L361,768L361,761L361,759L381,766L381,751L381,756L381,744L381,749L381,734L381,739L381,722L381,726L382,717L382,707L382,712L382,704L382,702L384,697L383,694L382,692L383,689L384,682L384,684L383,679L384,666L383,674L382,672L384,664L382,657L383,659L383,651L383,650L384,647L381,642L383,644L380,640L378,634L381,637L378,634L378,634L375,633L372,632L375,633L361,622L362,614L361,620L362,614L362,614L362,607L362,610L362,612L357,605L355,602L354,601L354,601L358,603L353,590L353,590L353,590L353,588L351,583L351,580L351,577L351,574L348,569L348,570L349,565L348,562L347,552L346,560L345,558L343,549L341,545L343,549L341,541L340,538L341,533L340,526L341,532L340,524L340,516L343,511L343,511L340,516L343,508L346,501L347,507L346,501L344,499L343,498L341,491L341,490L341,491L335,483L333,482L337,486L333,478L333,475L331,474L331,472L332,468L336,463L333,467L337,454L337,456L338,446L338,449L342,441L342,439L341,429L341,436L345,422L344,426L345,415L346,419L344,412L344,410L345,398L349,392L355,384L353,388L362,375L359,379L364,371L366,368L368,366L370,363L375,358L372,361L376,357L379,356L383,354L384,353L391,345L391,345L399,339L395,343L402,338L406,335L411,332L409,333L417,330L417,330L420,329L426,325L432,322L430,323L438,320L444,320L455,317L447,319L452,317L459,317L461,318L475,316L473,316L479,316L492,317L495,316L500,317L485,317L505,315L516,318L520,321L510,316L522,322L527,323L525,323L520,321L533,326L529,324L534,326L538,328L539,329L547,332L544,332L543,332L550,333L552,337L554,337L556,338L558,339L562,341L559,339L566,343L571,349L570,347L567,344L568,345L576,354L574,352L577,355L573,351L582,358L582,358L589,363L586,361L592,365L591,364L596,372L594,370L596,372L606,377L606,377L606,377L606,377L606,377L609,382L607,380L609,383L612,387L612,387L616,392L618,395L620,398L622,402L623,404L624,406L629,414L625,409L632,419L631,417L633,421L634,424L635,427L635,426L637,434L636,430L637,434L638,437L638,437L640,443L640,443L641,449L641,449L641,449L642,454L642,454L642,463L642,463L639,467L639,467L639,467L638,469L638,471L637,474L637,476L637,479L639,481L639,483L638,486L635,485L638,488L634,491L633,494L631,493L630,496L629,496L626,497L624,498L621,497L619,497L616,498L614,499L611,498L609,497L604,498L602,498L606,499L600,499L592,506L600,499L599,501L592,506L591,509L590,512L589,515L589,516L589,518L587,525L585,529L584,531L584,531L584,532L584,532L585,534L585,534L585,534L588,537L586,535L589,559L591,553L589,559L589,559L589,559L588,565L589,560L586,568L588,565L586,570L586,572L586,575L586,575L586,575L592,583L579,588L580,591L582,595L581,594L582,598L582,598L583,602L582,598L576,609L576,609L574,610L573,612L572,620L573,622L572,615L572,616L571,628L572,629L573,625L569,635L570,642L570,640L570,645L569,637L570,655L570,647L559,657L570,652L559,660L557,660L554,664L554,662L557,674L554,667L554,669L554,672L557,679L557,684L557,677L557,682L557,689L557,697L557,687L557,692L557,707L554,721L557,699L557,704L554,725L554,721L554,721L555,724L554,728L554,728L557,751L554,728L557,751L557,751L557,754L556,756L557,757L559,763L563,768L558,767L562,774L564,779L564,776L564,781L568,782L568,782L569,782L576,791L576,791L576,793L576,796L576,797L577,801L577,803L577,806L564,814L564,814L571,822L571,822L564,814L569,827L571,823L569,827L569,833L569,838L569,842L569,836L569,841L571,845L576,853L572,848L574,850L577,858L576,859L576,855L576,853L576,863L576,866L574,867L576,869L574,873L574,871L575,875L576,875L575,883L576,883L576,878L576,880L576,885L581,884L574,885L579,884L585,891L581,886L584,892L584,887" fill="none" stroke="#000000" style="-webkit-tap-highlight-color: rgba(0, 0, 0, 0); stroke-linecap: round; stroke-linejoin: round; stroke-width: 7;" /><path d="M581,902L581,902L584,892L584,892L583,903" fill="none" stroke="#000000" style="-webkit-tap-highlight-color: rgba(0, 0, 0, 0); stroke-linecap: round; stroke-linejoin: round; stroke-width: 7;" /><path d="M291.33,463.65L283,470L285,450L285,450L285,450L286,449L286,445L284,440L284,436L284,436L283,422L283,422L286,416L286,409L292,405L294,404L294,392L300,388L305,373L293,389L299,369L301,369L300,362L301,366L303,360L304,355L307,343L304,352L305,349L319,341L319,341L320,328L320,325L321,321L321,317L328,303L325,309L334,302L339,298L341,297L353,291L343,290L358,285L366,280L372,278L378,276L382,273L387,270L391,271L395,272L395,272L402,264L406,264L402,264L422,264L418,262L409,266L425,264L432,263L438,260L443,259L448,257L451,258L456,258L462,258L462,258L477,254L471,258L477,254L472,255L486,258L487,258L493,255L495,255L497,253L511,253L500,253L508,253L514,252L519,252L524,250L529,250L534,249L536,250L542,250L547,252L550,252L555,253L552,253L563,255L568,254L572,258L576,260L585,265L580,260L592,267L600,274L596,270L606,275L608,278L611,278L616,284L613,279L619,283L624,284L621,284L624,293L627,292L625,293L629,297L629,300L629,295L631,300L633,305L633,305L633,301L632,306L641,314L639,315L641,317L643,320L645,324L646,321L645,324L660,328L660,328" fill="none" stroke="#000000" style="-webkit-tap-highlight-color: rgba(0, 0, 0, 0); stroke-linecap: round; stroke-linejoin: round; stroke-width: 7;" /><path d="M663,333L664,350L664,350L663,361L664,350L663,361L666,360L666,366L668,366L668,366L676,382L668,366L676,382L676,382L677,382L678,383L681,386L681,386L683,403L678,390L686,403L686,403L685,406L686,409L688,408L686,409" fill="none" stroke="#000000" style="-webkit-tap-highlight-color: rgba(0, 0, 0, 0); stroke-linecap: round; stroke-linejoin: round; stroke-width: 7;" /><path d="M291.33,468.61" fill="none" stroke="#000000" style="-webkit-tap-highlight-color: rgba(0, 0, 0, 0); stroke-linecap: round; stroke-linejoin: round; stroke-width: 7;" /><path d="M694,415L691,426L694,415L691,426L693,432L694,441L693,431L694,441L699,454L698,449L698,452L699,454L695,479L695,479L695,482L695,479L696,488L697,490L697,490L697,490L697,490L697,490" fill="none" stroke="#000000" style="-webkit-tap-highlight-color: rgba(0, 0, 0, 0); stroke-linecap: round; stroke-linejoin: round; stroke-width: 7;" /><path d="M283,471L284,480L296,471L284,480L301,461L299,466L304,448L305,446L311,429L309,434L311,422L311,416L312,409L311,412L316,394L314,401L319,386L319,388L324,376L325,374L330,364L329,368L332,358L333,356L345,343L343,343L350,338L356,335L354,337L358,336L358,330L361,329L361,329L361,329L358,317L358,317L366,312L364,313L364,313L366,312L371,309L372,309L374,307L377,306L379,305L383,302L388,300L386,302L398,294L392,298L408,289L402,291L409,288L415,283L415,283L419,281L435,279L426,281L425,282L425,282L440,278L446,278L443,278L445,278L452,276L454,276L454,276L454,276L456,274L470,285L475,283L490,272L491,274L491,274L491,274L508,278L508,278L514,275L508,276L512,274L519,277L523,278L527,279L535,278L532,278L539,276L546,280L549,281L552,283L554,283L558,286L564,290L572,294L562,289L575,297L577,300L578,301L586,302L588,303L593,307" fill="none" stroke="#000000" style="-webkit-tap-highlight-color: rgba(0, 0, 0, 0); stroke-linecap: round; stroke-linejoin: round; stroke-width: 7;" /><path d="M601,314L600,314L596,309L601,314L613,322L610,318L613,322L617,326L617,326L617,326L622,331L622,331L623,332L623,332L629,339L630,341L630,341L630,341L631,359L631,359L631,360L631,362L635,367L632,363L639,373L641,375L645,376L641,375L641,389L643,394" fill="none" stroke="#000000" style="-webkit-tap-highlight-color: rgba(0, 0, 0, 0); stroke-linecap: round; stroke-linejoin: round; stroke-width: 7;" /><path d="M224.39,32.23" fill="none" stroke="#000000" style="-webkit-tap-highlight-color: rgba(0, 0, 0, 0); stroke-linecap: round; stroke-linejoin: round; stroke-width: 7;" /><path d="M653,405L653,405L653,405L656,406L659,407L663,414L662,415L662,416L666,414L668,428L668,428L668,428L670,428L672,443L672,443L671,447L670,448L668,451L667,452L665,453L663,476L663,476L663,476L663,476L673,491L676,496L676,493L676,498L676,501L676,506L676,508L676,503L673,511L668,508L666,503" fill="none" stroke="#000000" style="-webkit-tap-highlight-color: rgba(0, 0, 0, 0); stroke-linecap: round; stroke-linejoin: round; stroke-width: 7;" /><path d="M224,30L227,27L227,27L227,27L227,27L224,27L224,35L223,40L224,30L224,46L224,55L228,72L226,61L227,64L228,77L231,87L229,82L231,92L233,97L233,101L233,104L234,106L235,112L232,114L233,119L233,118L234,124L233,121L232,129L233,131L234,134L234,136L234,139L232,141L232,144L232,148L232,146L233,151L233,153L231,156L232,158L232,161L232,166L233,168L228,179L229,174L229,182L227,189L227,201L227,192L226,196L228,206L227,213L233,236L227,226L228,221L232,244L232,250L233,253L232,245L231,258L231,261L233,270L231,265L231,284L231,276L234,288L231,295L231,310L234,302L228,321L228,316L226,335L229,330L223,345L227,340L226,350L224,356L224,360L223,363L219,368L219,368L213,374L217,372L212,377L210,378L206,382L202,383L200,382L198,382L198,382L194,381L194,381" fill="none" stroke="#000000" style="-webkit-tap-highlight-color: rgba(0, 0, 0, 0); stroke-linecap: round; stroke-linejoin: round; stroke-width: 7;" /><path d="M187,394L185,394L169,402L169,402L169,402L169,402L169,404L169,407L169,409L166,414L164,419L221.91,419.02L157,426L155,426L161,424L145,436L145,436L144,442L144,452L143,446L144,454L143,458L140,464L140,460L130,468L138,467L135,468L118,485L108,496L118,485L118,490L105,504L103,508L82,534L95,523L98,511L88,554L85,543L95,539L83,558L71,590L77,573L76,579L81,564L67,602L66,596L62,610L58,616L53,625L48,640L48,635L52,630L48,642L43,656L47,646L46,650L43,656L40,662L42,666L38,669L36,673L36,679L34,683L33,688L31,693L31,702" fill="none" stroke="#000000" style="-webkit-tap-highlight-color: rgba(0, 0, 0, 0); stroke-linecap: round; stroke-linejoin: round; stroke-width: 7;" /><path d="M31,709L31,712L29,718L31,714L30,724L30,729L31,741L30,732L31,746L31,746L31,746L32,760L32,761L32,764L32,766L32,766L36,767L38,767L41,761L46,748L48,743" fill="none" stroke="#000000" style="-webkit-tap-highlight-color: rgba(0, 0, 0, 0); stroke-linecap: round; stroke-linejoin: round; stroke-width: 7;" /><path d="M216,419" fill="none" stroke="#000000" style="-webkit-tap-highlight-color: rgba(0, 0, 0, 0); stroke-linecap: round; stroke-linejoin: round; stroke-width: 7;" /><path d="M51,738" fill="none" stroke="#000000" style="-webkit-tap-highlight-color: rgba(0, 0, 0, 0); stroke-linecap: round; stroke-linejoin: round; stroke-width: 7;" /><path d="M219,419L214,422L215,424L212,425L210,428L210,428L210,434L207,434L207,434L215,435L221,437L228,440L228,459L231,447" fill="none" stroke="#000000" style="-webkit-tap-highlight-color: rgba(0, 0, 0, 0); stroke-linecap: round; stroke-linejoin: round; stroke-width: 7;" /><path d="M169.84,751.26" fill="none" stroke="#000000" style="-webkit-tap-highlight-color: rgba(0, 0, 0, 0); stroke-linecap: round; stroke-linejoin: round; stroke-width: 7;" /><path d="M241,474L239,466L237,464L234,460L245,481L249,498L247,488L247,492L251,506L253,513L254,521L253,538L255,531L255,552L251,567L253,560L254,546L249,574L246,585L244,592L241,599L241,610L239,619L236,627L236,635L235,643L234,650L232,660L232,655L228,666L227,676L227,683L230,672L224,687L222,698L224,691L224,696L222,703L222,713L222,707L222,710L223,716L223,716L228,721L225,725L227,729L227,731L226,734L223,734L224,736L222,736L222,741L222,741L222,743L176,746L177,746L179,746L182,754L183,755L195,751L210,743L200,750L215,745L226,749L238,751L231,749L247,753L256,757" fill="none" stroke="#000000" style="-webkit-tap-highlight-color: rgba(0, 0, 0, 0); stroke-linecap: round; stroke-linejoin: round; stroke-width: 7;" /><path d="M263,772L261,762L266,773L269,773L274,780L271,778L274,792L275,786L274,785L276,798L276,798L274,814L274,814L274,821L271,832L270,825L272,836L271,841L271,849L271,855L271,845L271,857L270,863L271,864L270,870L274,872L275,885L274,874L275,885L276,888L276,889L272,894L277,890L280,912L280,912L280,912L281,914L281,917L281,922L281,926L282,928L284,939L286,941L284,939L285,949L287,952L286,956L288,963L289,960L289,969L287,981L288,984L288,973L289,993L290,997L290,1002L291,1014L292,1012L291,1023L291,1025L290,1019L291,1023L299,1033L294,1030L291,1030L296,1031L303.73,1036.4L301,1036L300,1036L296,1034L299,1033L302,1033L309,1031L316,1031L326,1032L334,1034L346,1039L357,1036L360,1037L365,1036L368,1036L371,1036L372,1036" fill="none" stroke="#000000" style="-webkit-tap-highlight-color: rgba(0, 0, 0, 0); stroke-linecap: round; stroke-linejoin: round; stroke-width: 7;" /><path d="M378,1038L379,1037L379,1037L381,1037L373,1040L371,1041" fill="none" stroke="#000000" style="-webkit-tap-highlight-color: rgba(0, 0, 0, 0); stroke-linecap: round; stroke-linejoin: round; stroke-width: 7;" /><path d="M308.69,1006.64L306,1007L314,1005L324,1007L334,1006L345,1004L358,1004L366,1007L371,1004L376,1004" fill="none" stroke="#000000" style="-webkit-tap-highlight-color: rgba(0, 0, 0, 0); stroke-linecap: round; stroke-linejoin: round; stroke-width: 7;" /><path d="M378,1004L381,1005L383,1006L380,1005L380,1005L395.47,1011.6L407,1014L395,1005L407,1012L407,1014L404,1022L404,1022L404,1022L404,1022L394,1031L393,1034L386,1040L381,1049" fill="none" stroke="#000000" style="-webkit-tap-highlight-color: rgba(0, 0, 0, 0); stroke-linecap: round; stroke-linejoin: round; stroke-width: 7;" /><path d="M378,1050L378,1053L378,1048L385.55,1043.84L388,1040L386,1040L390,1044L393,1049L394,1056L395,1064L395,1084L395,1073L395,1092L395,1101L398,1105L400,1110L404,1113L404,1113L405,1117" fill="none" stroke="#000000" style="-webkit-tap-highlight-color: rgba(0, 0, 0, 0); stroke-linecap: round; stroke-linejoin: round; stroke-width: 7;" /><path d="M405,1117L403,1117L401,1113" fill="none" stroke="#000000" style="-webkit-tap-highlight-color: rgba(0, 0, 0, 0); stroke-linecap: round; stroke-linejoin: round; stroke-width: 7;" /><path d="M45.87,1001.69L49,1001L49,1001L52,998L58,1002L53,998L65,1002L69,1004L83,1000L73,1003L89,997L99,991L99,990L127,986L128,985L134,977L143,972L140,974L148,969L152,963L157,956L152,960L159,944L160,943L160,936L159,933L160,925L160,919L159,915L160,909L160,909L161,892L160,909L156,890L161,892L154,887L152,881L152,878L150,878L145,870L140,860L145,868L143,864L138,857L135,859L135,859L131,841L115,838L122,838L120,838L131,841L114,838L108,838L104,838L101,837" fill="none" stroke="#000000" style="-webkit-tap-highlight-color: rgba(0, 0, 0, 0); stroke-linecap: round; stroke-linejoin: round; stroke-width: 7;" /><path d="M88,835L94,837L75,831L83,833L71,830L61,828L66,828L63,828L58,830L51,830L53,830L49,830L45,837L37,835L43,837L40,836L36,835L34,836L34,836L34,836L34,836L34,836L21,836L21,838L21,841L21,843L21,848L21,845" fill="none" stroke="#000000" style="-webkit-tap-highlight-color: rgba(0, 0, 0, 0); stroke-linecap: round; stroke-linejoin: round; stroke-width: 7;" /><path d="M169.84,954.58L168,949L165,951L167,948L166,944L167,948L170,949L171,950L170,963L170,964L181,971L178,994L172,983L190,1022L183,1009L195,1037L202,1048L196,1041L205,1054L208,1059L208,1067L214,1069L215,1074L215,1076L216,1079L216,1084L216,1081L217,1086L218,1089L218,1091L218,1093L220,1101L218,1096L225,1110L224,1106L223,1117L224,1121L224,1122L224,1128L227,1133L229,1138L229,1138" fill="none" stroke="#000000" style="-webkit-tap-highlight-color: rgba(0, 0, 0, 0); stroke-linecap: round; stroke-linejoin: round; stroke-width: 7;" /><path d="M233,1141L232,1140L233,1141L239,1145L237,1146L239,1145L241,1149L241,1150L239,1148L239,1151L239,1145L237,1146" fill="none" stroke="#000000" style="-webkit-tap-highlight-color: rgba(0, 0, 0, 0); stroke-linecap: round; stroke-linejoin: round; stroke-width: 7;" /><path d="M102.9,1214.92" fill="none" stroke="#000000" style="-webkit-tap-highlight-color: rgba(0, 0, 0, 0); stroke-linecap: round; stroke-linejoin: round; stroke-width: 7;" /><path d="M93,1215L79,1218L63.23,1222.35L79,1218L57,1225L59,1227L57,1226L57,1225L69,1219L78,1217L73,1220L93,1201L123,1189L137,1189L97,1201L138,1190L152,1195L178,1196L165,1194L187,1200L202,1196L224,1196L212,1204L238,1199L246,1200L258,1205L271,1205L276,1205L284,1208L298,1208L289,1207L301,1207L308,1211L311,1211L316,1209L324,1206L331,1206L341,1206L353,1207L361,1205L370,1206L383,1203L388,1205L393,1206L398,1203L411,1204L418,1204L425,1206L435,1202L442,1205L451,1203L461,1204L461,1204L474,1203L492,1198L482,1200L499,1199L502,1201L514,1196L517,1196L524,1199L530,1200L537,1207L546,1205L558,1208L553,1206L567,1209L572,1208L579,1208L584,1207L589,1206L594,1207L599,1206L604,1206L609,1208L614,1208L621,1207L626,1206L633,1205L641,1204L646,1205L652,1205L658,1205L666,1205L676,1204L682,1205L700,1207L691,1206L709,1210L720,1211L730,1209L750,1206L737,1208L755,1207L767,1212L777,1206L785,1206L795,1205" fill="none" stroke="#000000" style="-webkit-tap-highlight-color: rgba(0, 0, 0, 0); stroke-linecap: round; stroke-linejoin: round; stroke-width: 7;" /><path d="M802,1206L800,1206L817,1202L812,1204L820,1199L829,1200L839,1200L844,1200L852,1199L857,1199L864,1199L870,1201L875,1196L891,1194L884,1198L909,1200L896,1196L921,1196L921,1196L927,1194L932,1196L936,1198L938,1200L947,1202L951,1202L963,1202L956,1202L963,1202L967,1202L968,1202L971,1202" fill="none" stroke="#000000" style="-webkit-tap-highlight-color: rgba(0, 0, 0, 0); stroke-linecap: round; stroke-linejoin: round; stroke-width: 7;" /><path d="M100.42,1252.11" fill="none" stroke="#000000" style="-webkit-tap-highlight-color: rgba(0, 0, 0, 0); stroke-linecap: round; stroke-linejoin: round; stroke-width: 7;" /><path d="M972,1191L975,1193L965,1190L976,1200" fill="none" stroke="#000000" style="-webkit-tap-highlight-color: rgba(0, 0, 0, 0); stroke-linecap: round; stroke-linejoin: round; stroke-width: 7;" /><path d="M103,1242L110,1240L100,1248" fill="none" stroke="#000000" style="-webkit-tap-highlight-color: rgba(0, 0, 0, 0); stroke-linecap: round; stroke-linejoin: round; stroke-width: 7;" /><path d="M960,1190" fill="none" stroke="#000000" style="-webkit-tap-highlight-color: rgba(0, 0, 0, 0); stroke-linecap: round; stroke-linejoin: round; stroke-width: 7;" /><path d="M145,1240L134,1238L120,1239L155,1239L165,1242L178,1245L188,1243L202,1241L214,1241L250,1236L227,1240L237,1240L257,1237L279,1231L289,1233L270,1235L299,1234L306,1230L329,1231L316,1231L336,1229L349,1231L357,1228L363,1230L371,1231L380,1231L398,1229L386,1232L406,1232L414,1232L433,1236L422,1237L440,1238L449,1241L456,1241L462,1241L475,1243L488,1235L491,1235L511,1233L514,1233L530,1232L532,1232L532,1232L548,1227L554,1238L567,1232L561,1228L581,1230L574,1230L596,1241L609,1239L589,1241L600,1241L615,1235L625,1241L631,1241L619,1237L636,1241L641,1233L653,1240L648,1241L658,1241L664,1240L667,1240L674,1240L678,1239L680,1241L686,1237L688,1237L693,1237L695,1237L700,1238L703,1236L708,1237L713,1236L715,1236L723,1238L718,1235L737,1231L730,1240L743,1238L746,1237L753,1240L763,1240L757,1241L765,1242L766,1242L770,1241L774,1242L772,1241L780,1241L786,1241L786,1241L794,1241L795,1237L807,1236L800,1234L812,1237L817,1233" fill="none" stroke="#000000" style="-webkit-tap-highlight-color: rgba(0, 0, 0, 0); stroke-linecap: round; stroke-linejoin: round; stroke-width: 7;" /><path d="M823,1232L839,1232L832,1235L847,1232L858,1232L868,1230L852,1232L874,1229L884,1231L879,1230L889,1229L893,1230L904,1232L895,1232L902,1231L909,1230L923,1230L916,1231L911,1230L924,1230L928,1230L934,1232L930,1231L938,1232L943,1232L941,1233L946,1232L948,1233L952,1232L953,1230L955,1230L958,1229L963,1230L974,1229L966,1229L966,1229L994,1226L988,1229L983,1224L978,1229L995,1226L1000,1226L1003,1230L1003,1230L1003,1230L1003,1230L1003,1230L1003,1228L1015,1225L1015,1222L1015,1220" fill="none" stroke="#000000" style="-webkit-tap-highlight-color: rgba(0, 0, 0, 0); stroke-linecap: round; stroke-linejoin: round; stroke-width: 7;" /><path d="M390.51,728.95L384,726L384,725L384,720L384,719L384,720L384,725L384,726L403,726L413,738L413,738L428,729L435,729L443,729L454,732L457,730L460,730L464,730L470,731L472,731L478,731L481,731L487,725L486,727L490,726L492,726L495,726L500,723L502,723L508,725L510,726L509,725L521,725L522,725L530,722L525,724L532,722L534,721" fill="none" stroke="#000000" style="-webkit-tap-highlight-color: rgba(0, 0, 0, 0); stroke-linecap: round; stroke-linejoin: round; stroke-width: 7;" /><path d="M542,721L547,721L537,721L539,721L552,722L549,722L554,721L557,721L559,723L559,721L562,723L556,724L554,725L554,728" fill="none" stroke="#000000" style="-webkit-tap-highlight-color: rgba(0, 0, 0, 0); stroke-linecap: round; stroke-linejoin: round; stroke-width: 7;" /><path d="M390.51,818.21L413,817L398,817L404,818L420,818L443,818L433,818L450,817L460,815L472,817L468,816L470,816L464,817L491,813L482,814L487,814L477,814L495,815L501,814L500,814" fill="none" stroke="#000000" style="-webkit-tap-highlight-color: rgba(0, 0, 0, 0); stroke-linecap: round; stroke-linejoin: round; stroke-width: 7;" /><path d="M501,814L514,817L516,817L508,817L516,817L530,814L532,814L524,818L537,814L541,813L544,813L542,813L549,806L548,805L548,805" fill="none" stroke="#000000" style="-webkit-tap-highlight-color: rgba(0, 0, 0, 0); stroke-linecap: round; stroke-linejoin: round; stroke-width: 7;" /><path d="M283.89,542.99L284,537L284,536L283,539L283,538L283,545L283,544L283,548L283,553L285,559L283,556L281,572L281,569L287,593L281,572L288,596L287,593L291,600L292,601L291,605L294,607L296,610L296,610L301,624L301,624L301,625L301,626L301,633L301,633L301,633L294,647L294,647L291,648L294,647L291,648L289,650L290,651L289,657L289,657L289,657L288,657L288,657L289,677L289,677L289,677L286,679L286,679L286,679L286,685L286,687L286,688L289,692L288,694L289,696L293,706L291,703L291,705L293,706" fill="none" stroke="#000000" style="-webkit-tap-highlight-color: rgba(0, 0, 0, 0); stroke-linecap: round; stroke-linejoin: round; stroke-width: 7;" /><path d="M301,728L293,706L301,728L284,733L284,733L284,733L284,734L284,734L283,741L283,742L281,746L281,746L299,760L282,770L282,770L282,770L285,775L283,773L286,777L287,779L288,781L289,783L289,782L290,786L291,787L289,791L290,793L290,793L294,793" fill="none" stroke="#000000" style="-webkit-tap-highlight-color: rgba(0, 0, 0, 0); stroke-linecap: round; stroke-linejoin: round; stroke-width: 7;" /><path d="M707.87,565.31L703,555L703,560L703,555L702,550L701,547L701,547L702,549L696,538L696,536L698,530L698,530L699,527L699,527L700,523L698,521L695,522L693,522L695,528L693,522L696,538L699,547L701,558L701,564L706,568L695,591L695,591L694,595L704,609L704,609L704,612L704,617L705,618L705,618L705,618L705,630L705,635L706,655L705,640L706,655L706,655L706,657L704,660L705,662L704,662L704,662L704,662L703,674L703,684L703,679L703,689L703,692L703,699L703,697L703,702L703,707L693,718L693,718L693,718L693,718L700,731L693,718L700,734L691,746L691,746L691,746L691,746L691,746L703,751L703,756L703,759L702,771L702,771L702,771L706,773L709,775L709,775L705,795L708,792L705,798L705,800L701,819L707,800L703,821L703,821L703,821L703,822L703,822L706,838L703,822L706,838L706,838L707,839L708,840L708,842L708,842L709,854L708,842L709,854L709,855L708,858L708,863L708,860L708,863" fill="none" stroke="#000000" style="-webkit-tap-highlight-color: rgba(0, 0, 0, 0); stroke-linecap: round; stroke-linejoin: round; stroke-width: 7;" /><path d="M708,863L702,877L701,874L702,877L702,880L702,880L702,880L702,880L706,897L706,897L706,897L714,902L714,902L712,904L714,902L713,903L713,907L715,907L715,916L713,907L715,907" fill="none" stroke="#000000" style="-webkit-tap-highlight-color: rgba(0, 0, 0, 0); stroke-linecap: round; stroke-linejoin: round; stroke-width: 7;" /><path d="M645.89,468.61L642,469L642,469L638,469L638,469L638,469L638,469L637,474L636,481L629,488L629,496L628,502L628,512L630,518L630,526L629,531L629,534L631,543L632,547L610,545L632,547L619,560L616,563L614,570L614,568L614,575L614,580L616,585L626,600L625,601L625,601L627,613L625,603L627,619L627,615L629,625L629,629L629,631L630,635L631,640L632,637L631,645L629,650L628,652L632,642L630,661L630,660L629,655L630,661L630,661L629,687L629,687L629,687L629,690L629,687L629,694L629,694L633,697L627,709L629,712L627,709L628,716L626,733L626,733L628,716L627,736L628,741L629,747L629,751L629,759L629,764L630,771L631,779L631,786L631,791L631,796L629,800L631,806L631,808L632,816L631,811L632,820L632,818L633,827L633,826L634,833L634,836L634,843L634,841L634,848L634,850L635,857L635,858L633,863L634,865L633,868L632,873L633,875L632,877L631,886L632,879L633,892L631,887L633,893L633,896L633,898L633,899L633,904" fill="none" stroke="#000000" style="-webkit-tap-highlight-color: rgba(0, 0, 0, 0); stroke-linecap: round; stroke-linejoin: round; stroke-width: 7;" /><path d="M634,906L634,909L634,907L636,915L636,921L636,916L636,915L636,922L636,922L636,922" fill="none" stroke="#000000" style="-webkit-tap-highlight-color: rgba(0, 0, 0, 0); stroke-linecap: round; stroke-linejoin: round; stroke-width: 7;" /><path d="M683.08,37.19L678,35L675,33L676,35L673,30L673,30L663,42L666,38L662,48L661,52L661,56L661,60L663,61L667,62L668,62L671,62L678,66L674,62L680,70L684,75L685,78L688,84L688,87L688,87L695,99L694,101L694,104L693,108L690,114L690,110L689,117L693,119L693,120L691,126L691,128L690,134L692,143L692,139L685,154L688,156L690,159L688,156L689,167L689,167L689,167L688,171L688,171L688,171L689,188L689,188L689,188L701,192L701,196L701,193L701,196L705,201L705,201L708,207L704,218L701,219L701,220L701,219L702,223L702,228L702,231L705,236L702,251L704,239L702,253L702,251L694,260L702,257L697,268L697,265L697,273L697,280L697,278L696,285L695,288L695,288L705,300L705,303L695,322L705,303L706,312L695,322L696,323L698,329L697,332L696,327L701,336L698,335L701,346L698,342L703,352L704,353L697,358L704,350L696,363" fill="none" stroke="#000000" style="-webkit-tap-highlight-color: rgba(0, 0, 0, 0); stroke-linecap: round; stroke-linejoin: round; stroke-width: 7;" /><path d="M698,372L698,372L698,378L700,384L700,384L698,392L700,385L698,394L698,399L698,399L698,399L695,406L696,415L695,406L696,417L696,419L701,429L698,425L700,428L702,432L704,439L704,436L704,439L718,444L712,455L712,455L712,455L712,456L712,461L711,465L711,465L711,465L715,488L715,481L722,501L727,498L732,495" fill="none" stroke="#000000" style="-webkit-tap-highlight-color: rgba(0, 0, 0, 0); stroke-linecap: round; stroke-linejoin: round; stroke-width: 7;" /><path d="M802.09,468.61L802,464L804,463L808,459L799,461L812,458L814,463L812,456L814,472L817,493L812,478L817,491L812,478L817,501L834,513L819,506L831,510L827,540L828,536L828,536L829,544L828,549L830,553L837,555L839,558L842,557L845,560L846,560L852,560L854,561L858,560L864,561L865,562L875,558L878,560L875,558L878,560L882,561L895,556L895,556L895,556L895,556L895,556L896,558L895,556L897,562L897,568L897,566L898,572L899,575L898,580L898,583L899,588L899,590L901,593L901,594L900,597L899,598L905,599L905,599L904,609L904,609L905,610L915,615L910,617L915,615L916,615L927,617L919,617L928,620L929,621L931,626L934,630L934,631L934,637L936,642L936,651L936,654L937,660L941,669L938,663L941,672L943,679" fill="none" stroke="#000000" style="-webkit-tap-highlight-color: rgba(0, 0, 0, 0); stroke-linecap: round; stroke-linejoin: round; stroke-width: 7;" /><path d="M943,681L946,683L944,684L948,684" fill="none" stroke="#000000" style="-webkit-tap-highlight-color: rgba(0, 0, 0, 0); stroke-linecap: round; stroke-linejoin: round; stroke-width: 7;" /><path d="M819.45,565.31" fill="none" stroke="#000000" style="-webkit-tap-highlight-color: rgba(0, 0, 0, 0); stroke-linecap: round; stroke-linejoin: round; stroke-width: 7;" /><path d="M959,687L966,687L954,687L956,687L966,687L973,688L972,688L976,688L978,690L979,690L979,690L979,690L983,702L983,707L983,709L983,712L983,714L983,719L983,717" fill="none" stroke="#000000" style="-webkit-tap-highlight-color: rgba(0, 0, 0, 0); stroke-linecap: round; stroke-linejoin: round; stroke-width: 7;" /><path d="M817,560L810,552L810,551L811,545L812,544L813,540L814,541L818,543L820,545L823,550L823,555L828,560L829,563L832,573L834,579L837,591L839,598L839,601L841,618L839,611L842,621L843,630L844,642L844,646L842,636L844,655L844,672L844,666L842,678L844,659L839,689L836,694L834,696L841,683L831,700L830,704L826,708L823,712L822,717L818,723L816,724L816,732L812,736L809,741L805,746L805,751L802,755L800,762L797,764L797,769L793,771L791,776L786,781L786,783L785,787L782,792L781,796L777,798L776,800L773,805L773,808L774,803L777,811L779,813L786,808L779,813L789,809L792,806L795,805L800,804L797,803L802,803L810,802L805,800L807,802L812,800L824,798L819,797L817,797L832,796L827,797L837,796L842,796L847,792L853,793L857,795L862,794L867,791L876,791L874,791L880,790L880,790L894,786L894,786L900,790L896,786L901,790L901,783L907,785L911,786L909,785L913,786L919,786L921,786L924,786L929,787L931,787L934,786L941,783L936,786L942,790" fill="none" stroke="#000000" style="-webkit-tap-highlight-color: rgba(0, 0, 0, 0); stroke-linecap: round; stroke-linejoin: round; stroke-width: 7;" /><path d="M946,789L948,789L951,789L952,789L958,785L956,785L960,785L963,782L964,783L964,783L976,783L976,783L976,783L978,782L981,781L983,786L984,786L994,786L984,786L992,791L992,791" fill="none" stroke="#000000" style="-webkit-tap-highlight-color: rgba(0, 0, 0, 0); stroke-linecap: round; stroke-linejoin: round; stroke-width: 7;" /><path d="M797.13,805.81L800,813L797,811L802,816L802,820L805,825L805,829L805,838L805,845L806,852L805,857L805,864L805,873L805,878L807,880L806,883L806,890L806,889L808,893L809,898L809,894L809,900L810,902L812,912L810,909L810,907L808,917L807,919L805,923L802,924L802,927L801,935L801,935L800,931L801,942L800,951L800,949L800,945L802,957L802,961L803,963L804,966L805,972L809,982L805,974L809,986L808,995L805,997L804,999L805,1001L805,1007L810,1014L810,1016L812,1020L812,1020L800,1033L800,1033L799,1035L804,1045L804,1045L805,1049L804,1045L805,1052L809,1058L807,1054L805,1054L807,1062L809,1064L811,1066L810,1069L812,1072L812,1074L813,1079L813,1075" fill="none" stroke="#000000" style="-webkit-tap-highlight-color: rgba(0, 0, 0, 0); stroke-linecap: round; stroke-linejoin: round; stroke-width: 7;" /><path d="M812,1081L812,1084L811,1093L811,1092L812,1088L811,1096L812,1098L813,1103L812,1102L813,1106" fill="none" stroke="#000000" style="-webkit-tap-highlight-color: rgba(0, 0, 0, 0); stroke-linecap: round; stroke-linejoin: round; stroke-width: 7;" /><path d="M767.38,800.85" fill="none" stroke="#000000" style="-webkit-tap-highlight-color: rgba(0, 0, 0, 0); stroke-linecap: round; stroke-linejoin: round; stroke-width: 7;" /><path d="M814,1108L815,1108L818,1115L818,1106" fill="none" stroke="#000000" style="-webkit-tap-highlight-color: rgba(0, 0, 0, 0); stroke-linecap: round; stroke-linejoin: round; stroke-width: 7;" /><path d="M768,798L767,794L766,793L767,794L768,799L767,805L767,808L769,813L768,816L771,823L772,828L771,836L774,843L776,848L777,853L777,858L777,860L778,865L777,869L775,877L773,880L776,873L773,885L772,888L772,892L772,890L763,898L763,905L764,902L764,903L764,909L764,911L765,910L761,920L761,921L761,925L764,935L761,927L764,935L764,935L764,935L772,947L773,945L772,947L767,952L767,957L767,952L767,957L766,959L765,963L765,961L764,968L765,969L764,972L762,974L762,979L762,982L762,983L764,988L763,990L762,991L764,994L765,1002" fill="none" stroke="#000000" style="-webkit-tap-highlight-color: rgba(0, 0, 0, 0); stroke-linecap: round; stroke-linejoin: round; stroke-width: 7;" /><path d="M761,998L766,1004L770,1006L776,1017L772,1012L780,1019L782,1022L782,1023L785,1028L784,1031L788,1034L786,1039L786,1041L791,1046L787,1054L788,1056L784,1059L784,1061L784,1064L784,1059" fill="none" stroke="#000000" style="-webkit-tap-highlight-color: rgba(0, 0, 0, 0); stroke-linecap: round; stroke-linejoin: round; stroke-width: 7;" /><path d="M693,917.38L691,912L693,911L698,912L703,912L707,910L720,920L715,916L734,918L737,920L740,919L742,919L751,926L751,926L759,936L762,936L759,943L772,947L772,947L775,948L778,952L781,956L782,955L783,957L785,960L787,962L787,963L790,966L788,969L789,971L792,972L792,973" fill="none" stroke="#000000" style="-webkit-tap-highlight-color: rgba(0, 0, 0, 0); stroke-linecap: round; stroke-linejoin: round; stroke-width: 7;" /><path d="M792,972L793,969L792,965L792,964L792,963" fill="none" stroke="#000000" style="-webkit-tap-highlight-color: rgba(0, 0, 0, 0); stroke-linecap: round; stroke-linejoin: round; stroke-width: 7;" /><path d="M673.16,924.82L665,911L665,911L665,911L665,911L686,917L686,917L686,917L691,920L695,925L703,924L708,930L717,948L711,940L720,956L723,960L728,962L730,962L737,968L738,969L743,976L739,971L745,977L747,981L753,983L751,978L757,982L761,984L765,988L762,983L770,992L765,989" fill="none" stroke="#000000" style="-webkit-tap-highlight-color: rgba(0, 0, 0, 0); stroke-linecap: round; stroke-linejoin: round; stroke-width: 7;" /><path d="M772,993L777,997L774,1000L777,999L777,1001L777,1001L780,1010L791,1019L780,1010L791,1019L793,1019L793,1019L791,1019L793,1021" fill="none" stroke="#000000" style="-webkit-tap-highlight-color: rgba(0, 0, 0, 0); stroke-linecap: round; stroke-linejoin: round; stroke-width: 7;" /><path d="M640.93,924.82" fill="none" stroke="#000000" style="-webkit-tap-highlight-color: rgba(0, 0, 0, 0); stroke-linecap: round; stroke-linejoin: round; stroke-width: 7;" /><path d="M793,1021L793,1021L793,1021" fill="none" stroke="#000000" style="-webkit-tap-highlight-color: rgba(0, 0, 0, 0); stroke-linecap: round; stroke-linejoin: round; stroke-width: 7;" /><path d="M640,922L642,922L642,922L647,917L647,917L657,937L660,939L659,938L676,947L677,948L683,957L688,963L686,962L690,969L695,977L694,978L693,973L695,983L705,991L702,991L702,991L706,1004L706,1004L719,1002L721,1010L725,1013L730,1015L735,1019L738,1021L746,1026L745,1029L747,1031L749,1034L750,1035L753,1040L757,1046L755,1043L755,1049L754,1050L754,1050L755,1049L750,1054" fill="none" stroke="#000000" style="-webkit-tap-highlight-color: rgba(0, 0, 0, 0); stroke-linecap: round; stroke-linejoin: round; stroke-width: 7;" /><path d="M750,1054L764,1068L764,1068L762,1071L760,1072L765,1074L762,1071L765,1074L768,1077L770,1079L772,1078L777,1080L777,1080L783,1077L779,1080" fill="none" stroke="#000000" style="-webkit-tap-highlight-color: rgba(0, 0, 0, 0); stroke-linecap: round; stroke-linejoin: round; stroke-width: 7;" /><path d="M916.15,1011.6L917,1004L917,1004L917,1004L917,1004L917,1004L919,1004L926,1011L934,1017L947,1009L956,1024L963,1029L978,1027L982,1037" fill="none" stroke="#000000" style="-webkit-tap-highlight-color: rgba(0, 0, 0, 0); stroke-linecap: round; stroke-linejoin: round; stroke-width: 7;" /><path d="M982,1041L982,1041L994,1043L997,1046L999,1049L995,1048" fill="none" stroke="#000000" style="-webkit-tap-highlight-color: rgba(0, 0, 0, 0); stroke-linecap: round; stroke-linejoin: round; stroke-width: 7;" /><path d="M383.07,887.63L376,888L374,888L373,885L376,885L376,885L381,880L387,881L388,881L393,881L397,879L403,879L407,880L414,877L423,878L428,879L435,879L443,879L450,881L457,882L463,882L470,884L485,884L477,882L492,884L500,878L507,877L514,877L519,877L527,876L522,876L524,876L529,880L539,885L533,883L532,883L537,882L543,887L542,884L547,888L548,888" fill="none" stroke="#000000" style="-webkit-tap-highlight-color: rgba(0, 0, 0, 0); stroke-linecap: round; stroke-linejoin: round; stroke-width: 7;" /><path d="M558,887L550,886L558,887L555,886L563,888L572,885L567,884L569,884L576,885L581,883L579,883" fill="none" stroke="#000000" style="-webkit-tap-highlight-color: rgba(0, 0, 0, 0); stroke-linecap: round; stroke-linejoin: round; stroke-width: 7;" /><path d="M378.11,865.32L382,863L387,862L390,862L400,858L405,859L413,857L420,860L428,858L438,858L445,857L453,858L462,859L477,866L470,862L487,867L497,869L505,870L515,869L522,869" fill="none" stroke="#000000" style="-webkit-tap-highlight-color: rgba(0, 0, 0, 0); stroke-linecap: round; stroke-linejoin: round; stroke-width: 7;" /><path d="M529,870L537,871L543,871L544,870L557,873L547,870L551,872L559,873L564,869L567,870L567,873L563,868L568,873L572,873" fill="none" stroke="#000000" style="-webkit-tap-highlight-color: rgba(0, 0, 0, 0); stroke-linecap: round; stroke-linejoin: round; stroke-width: 7;" /><path d="M390.51,934.74L391,932L387,930L386,930L382,929L383,935L383,935L385,937L389,939L396,942L403,942L415,942L425,941L440,942L456,945L461,943L483,942L486,940L498,940L510,939L512,937L519,935L533,936L539,932L546,931L553,933L558,932L564,932L562,931L569,931L567,931" fill="none" stroke="#000000" style="-webkit-tap-highlight-color: rgba(0, 0, 0, 0); stroke-linecap: round; stroke-linejoin: round; stroke-width: 7;" /><path d="M567,933L570,931L571,930" fill="none" stroke="#000000" style="-webkit-tap-highlight-color: rgba(0, 0, 0, 0); stroke-linecap: round; stroke-linejoin: round; stroke-width: 7;" /><path d="M373.15,947.14L363,943L358,942L342,951L340,958L338,963L333,974L327,980L335,999L332,1000L326,1003" fill="none" stroke="#000000" style="-webkit-tap-highlight-color: rgba(0, 0, 0, 0); stroke-linecap: round; stroke-linejoin: round; stroke-width: 7;" /><path d="M324,1008L324,1007L323,1009L329,1019L329,1019L331,1019" fill="none" stroke="#000000" style="-webkit-tap-highlight-color: rgba(0, 0, 0, 0); stroke-linecap: round; stroke-linejoin: round; stroke-width: 7;" /><path d="M792.17,22.31L790,24L790,24L795,24L795,24L795,24L795,29L795,40L796,36L797,42L803,47L800,44L802,50L804,50L805,52L808,60L806,56L807,64L806,69L810,81L809,87L810,77L806,88L805,94L805,107L807,102L805,111L804,117L805,119L806,127L805,124L805,134L802,144L803,146L803,139L802,150L805,158L806,160L803,154L810,164L812,168L811,171L814,175L814,179L815,183L814,187L816,194L817,198L816,203L812,213L815,225L814,219L814,230L814,238L815,250L814,245L814,255L814,262L812,266L814,275L814,279L812,286L817,292L813,298L814,302L814,305L810,324L811,309L810,312L814,327L818,347L813,340L814,331L816,356" fill="none" stroke="#000000" style="-webkit-tap-highlight-color: rgba(0, 0, 0, 0); stroke-linecap: round; stroke-linejoin: round; stroke-width: 7;" /></svg>