<?xml version="1.0" encoding="utf-8" ?>
<svg baseProfile="full" height="800" version="1.1" width="1024" xmlns="http://www.w3.org/2000/svg" xmlns:ev="http://www.w3.org/2001/xml-events" xmlns:xlink="http://www.w3.org/1999/xlink"><defs /><path d="M354.6,349.17L354,346L353,343L354,346L350,346L350,347L350,349L350,351L350,353L350,355L350,355L350,356L351,358L351,360L351,362L351,362L351,362L352,364L351,362L351,362L351,362L350,356L350,351L350,355L350,349L350,346L350,342L350,339L353,335L354,333L354,331L354,331L353,327L355,323L355,323L362,317L364,317L364,317L366,314L369,311L369,311L371,304L371,301L371,304L374,300L374,299L376,295L376,293L376,291L382,287L383,282L382,286L388,282L389,280L391,280L392,276L394,275L394,275L398,273L396,274L398,273L405,271L401,272L407,270L411,269L412,269L416,270L417,270L419,271L421,272L421,272L428,267L428,267L428,267L428,267L438,271L438,271L438,271L438,275L440,277L441,276L440,277L444,283L443,282L444,280L445,283" fill="none" stroke="#000000" style="-webkit-tap-highlight-color: rgba(0, 0, 0, 0); stroke-linecap: round; stroke-linejoin: round; stroke-width: 5;" /><path d="M441,289L441,289L441,289L441,289L440,299L450,303L450,303L450,303L451,306L450,304L488.48,293.09L451,306L447,317L447,320L448,324L448,326L448,329L449,331L448,335L449,336L452,341L453,341L452,341L453,341L453,341L456,340L453,341" fill="none" stroke="#000000" style="-webkit-tap-highlight-color: rgba(0, 0, 0, 0); stroke-linecap: round; stroke-linejoin: round; stroke-width: 5;" /><path d="M483,293" fill="none" stroke="#000000" style="-webkit-tap-highlight-color: rgba(0, 0, 0, 0); stroke-linecap: round; stroke-linejoin: round; stroke-width: 5;" /><path d="M458,340" fill="none" stroke="#000000" style="-webkit-tap-highlight-color: rgba(0, 0, 0, 0); stroke-linecap: round; stroke-linejoin: round; stroke-width: 5;" /><path d="M484,290L484,290L484,290L484,290L481,282L481,282L478,281L478,272L477,270L478,272L476,269L474,267L472,263L474,266L472,262L471,261L470,261L469,259L466,257L468,258L462,256L465,257L461,256L458,255L458,255L458,255L455,254L452,248L452,247L452,248L452,247L451,246L451,246L449,245L447,245L442,247L445,248L440,245L439,244L435,242L436,244L438,244L434,242L432,241L431,241L431,241L429,241L425,238L427,239L426,241L424,237L422,236L418,235L421,236L414,235L414,235L413,235L413,235L408,235L403,235L405,235L407,234L402,235L397,235L390,243L397,235L391,243L383,240L376,242L384,244L380,244L365,249L369,247L361,251L374,246L359,252L352,255L353,255L356,254L343,255L339,258L344,254L337,261L335,264L332,268L334,265L333,269L331,270L331,283L332,272L332,281L328,288L322,288L330,284L323,288L317,294L318,292L319,290L316,297L314,297L311,298L309,298L315,297L306,298L302,299L305,298L301,299L295,301L283,303L294,301L281,302L278,301L276,301L275,302L269,304L269,304L268,304L266,306L266,306L262,309L260,308L259,308L258,308L259,308L255,307L251,309L253,309L246,308L248,308L242,309L240,309L243,309L240,309L228,320L239,313L239,312L224,324L223,324L226,320L219,327L221,326L215,328L215,333L205,341L215,334L200,342L205,341L228,320L204,341L191,348L194,345L197,345L191,348L183,355L181,356L183,355L180,360L169,364L167,368L169,364L168,364L165,369L162,371L160,375L159,378L159,380L160,382L160,382L160,382L147,396L148,394L147,398L147,400L160,407L160,403L148,402L160,409L160,410L161,415L162,426L162,426L161,434L161,434L161,438L161,441L160,446L160,449L160,450L160,454L155,460L157,461L160,467L158,463L160,469L159,472L161,474L161,478L161,478L162,483L162,483L162,488L162,488L161,492L161,494L160,499L160,499L161,501L161,505L160,508L160,507L161,510L161,512L161,514L159,517L160,516L162,521L162,523L161,526L161,526L161,528L161,530L161,530L151,530L151,530L150,530L147,532" fill="none" stroke="#000000" style="-webkit-tap-highlight-color: rgba(0, 0, 0, 0); stroke-linecap: round; stroke-linejoin: round; stroke-width: 5;" /><path d="M145,535L145,535L145,535L140,543L142,545L141,545L146,530L149,530L142,548L141,550L135,555L141,550L135,555L137,559L136,557L133,564L134,562L132,568L134,566L130,574L133,570L128,577L126,581L123,583L123,586L119,591L118,594L117,597L114,601L110,603L109,604L106,605L105,606L103,605L101,605L100,605L96,607L98,606L95,608L88,608L83,608L86,606L85,609L79,610L76,608L74,612L72,611L72,611L69,613L69,615L69,613L69,617L69,618L54,624L42,632L67,610L45,635L45,635L43,635L42,635L41,636L40,637L40,637L38,641L40,641L38,641L36,641L34,641L34,641L34,641L24,661L24,661L24,661L21,664L18,667L14,669L11,671L11,671L11,671L22,686L11,671L11,671L11,671" fill="none" stroke="#000000" style="-webkit-tap-highlight-color: rgba(0, 0, 0, 0); stroke-linecap: round; stroke-linejoin: round; stroke-width: 5;" /><path d="M495.72,296.71L492,297L483,299L476,301L477,301L472,298L469,297L472,298L473,299L476,301L476,301L478,304L479,306L481,306L483,304L483,300L492,297L492,293L496,292L496,292L510,286L510,286L512,286L510,286L522,282L522,282L527,277L526,278L529,275L532,273L536,270L540,268L541,268L548,266L550,262L553,262L554,263L553,262L554,263L566,266L572,262L575,258L577,257L579,256L582,255L582,255L590,253L576,257L572,262L590,250L592,251L593,248L593,248L593,248L601,246L602,245L602,245L602,245L607,243L607,243L608,243L617,239L610,243L617,239L619,236L621,233L621,233L624,230L626,229L630,227L631,226L638,224L635,227L639,223L642,222L642,222L642,222L649,227L649,227L654,225L655,224L655,224L659,223L661,224L662,224L666,225L668,226L668,226L669,227L678,225L678,225L680,226L678,225L684,226L686,225L686,224L689,225L691,225L693,225L696,222L700,219L695,224L702,219L707,222L704,219L704,220L714,222L720,217L720,217L720,217L722,217L723,217L723,217L723,217L736,214L738,211L738,211L738,211L738,211L742,209L743,207L744,207L743,207L745,207L746,207L747,208L752,209L754,209L754,209L753,209L754,209L763,203L763,203L763,203L769,205L770,206L770,206L771,206L773,206L774,206L770,224L770,224L783,228L783,228L783,228L783,228L783,228L786,230L790,232L790,232L790,232L791,233L791,233L791,233L791,233L802,238L802,238L802,238L805,237L807,237L805,237L807,237L809,239L809,240L809,239L809,242L809,240L809,242L817,249L817,249L817,249L825,256L817,249L825,256L825,256L825,256L825,256L828,259L828,259L828,259L828,259L828,262L835,272L828,261L835,272L835,272L837,276L837,276L835,272L837,276L837,276L837,276L838,288L838,288L838,290L838,290L838,288L838,290L847,310L838,290L847,310L847,310L848,311L848,311L848,311L850,315L850,315L850,315L850,315L850,315L850,316L870,327L859,329L870,327L870,327L870,327L870,327L870,327L870,327L870,328L870,331L869,329L872,332L874,337L872,335L874,335L875,338L879,343L878,342L876,340L877,341L880,344L882,348L880,354L881,354L881,354L883,354L886,354L885,354L886,364L891,364L886,364L886,364" fill="none" stroke="#000000" style="-webkit-tap-highlight-color: rgba(0, 0, 0, 0); stroke-linecap: round; stroke-linejoin: round; stroke-width: 5;" /><path d="M894,363L896,365L897,365L893,363L899,365L901,365L905,366L903,366L910,365L908,365L912,364L907,365L915,364L919,363L917,364L922,364L931,364L925,364L928,365L926,363L932,363L933,364L937,364L935,364L940,366L943,366L941,366L944,366L949,364L948,364L949,364L947,365L949,364L949,364L964,367L949,364L964,367L964,367L964,367L968,366L968,366L972,365L970,366L974,364L975,364L982,364L978,364L978,364L982,364L988,368L984,365L983,365L988,368L988,365L993,368L989,368L995,368L996,368L996,368L996,368L996,368" fill="none" stroke="#000000" style="-webkit-tap-highlight-color: rgba(0, 0, 0, 0); stroke-linecap: round; stroke-linejoin: round; stroke-width: 5;" /><path d="M682.06,275" fill="none" stroke="#000000" style="-webkit-tap-highlight-color: rgba(0, 0, 0, 0); stroke-linecap: round; stroke-linejoin: round; stroke-width: 5;" /><path d="M996,368L1010,362L996,368L997,370L1015,362L1013,362L1013,362L1011,362" fill="none" stroke="#000000" style="-webkit-tap-highlight-color: rgba(0, 0, 0, 0); stroke-linecap: round; stroke-linejoin: round; stroke-width: 5;" /><path d="M678,275L679,278L682,279L684,280L684,280L686,285L686,285L686,287L687,288L689,294L687,288L689,294L685,297L687,299L687,300L686,301L689,303L689,305L690,309L690,309L692,313L683,317L683,318L683,322L687,327L687,327L687,327L686,329L687,335L687,335L687,337L687,338L685,342L687,339L685,346L685,344L691,347L691,349L691,353L691,351L691,356L691,359L691,362L691,362L691,362L686,369L686,371L686,375L687,378L687,379L687,382L693,388L693,388L693,388L693,390L692,392L692,392L692,392L690,398L692,403L693,405L693,405L695,408L696,412L695,409L695,413L695,416L697,420L696,418L698,422L698,422L698,422L697,429L697,430L696,432L700,442L697,436L698,444L696,446L688,452L695,449L692,459L692,459L691,460L688,461L688,462L689,468L689,469L689,469L690,473L690,474L690,479L690,475L690,481L691,485L690,483L690,487" fill="none" stroke="#000000" style="-webkit-tap-highlight-color: rgba(0, 0, 0, 0); stroke-linecap: round; stroke-linejoin: round; stroke-width: 5;" /><path d="M691,496L691,492L691,490L692,493L691,499L692,501L691,498L691,500L691,505L691,505L693,509L694,510L694,510L701,514L698,514L694,510L700,516L701,518L700,516L702,520L702,520L703,526L702,527L703,526L702,530L702,530L700,533L700,533" fill="none" stroke="#000000" style="-webkit-tap-highlight-color: rgba(0, 0, 0, 0); stroke-linecap: round; stroke-linejoin: round; stroke-width: 5;" /><path d="M635.02,264.14" fill="none" stroke="#000000" style="-webkit-tap-highlight-color: rgba(0, 0, 0, 0); stroke-linecap: round; stroke-linejoin: round; stroke-width: 5;" /><path d="M700,533L699,544L700,545L702,546L704,546L707,543" fill="none" stroke="#000000" style="-webkit-tap-highlight-color: rgba(0, 0, 0, 0); stroke-linecap: round; stroke-linejoin: round; stroke-width: 5;" /><path d="M629,258L637,266L636,269L637,266L637,270L636,272L637,275L640,276L639,279L639,279L639,282L639,284L640,286L640,287L641,289L640,291L640,293L640,295L640,297L640,297L640,297L640,297L646,303L643,312L643,312L643,312L645,314L643,312L642,328L642,328L642,331L640,335L639,342L639,338L640,347L640,346L642,351L642,351L642,356L642,355L642,356L643,360L644,361L643,364L645,365L646,364L644,369L644,371L645,375L645,375L644,378L646,380L643,381L644,384L644,387L644,393L644,389L644,394L646,398L647,400L645,396L646,406L646,407L644,414L644,412L646,418L638,425L646,418L647,435L647,435L648,443L647,444L647,445L649,447L639,457L642,460L644,473L642,467L642,463L643,468L644,478L644,474L643,479L643,483L647,488L647,487L643,485L647,491L647,494L647,497L646,499L645,501L644,505L644,505L646,503L645,509L642,511L641,512L641,514L640,518L641,514L637,519L637,519L637,519L633,520L634,520L636,525L634,529L634,529L633,531L633,533L621,538L621,538L625,532L633,533L628,549L628,549L628,549L628,549" fill="none" stroke="#000000" style="-webkit-tap-highlight-color: rgba(0, 0, 0, 0); stroke-linecap: round; stroke-linejoin: round; stroke-width: 5;" /><path d="M626,559L629,554L629,552L626,556L626,560L626,564L626,563L624,566L624,569L624,576L624,576L624,567L623,572L623,574L625,579L623,581L623,583L623,584L623,586L623,590L623,592L624,587L623,592L623,593L619,599L623,595L621,598L618,600L616,602L614,604L613,605L615,603L612,608L609,613L612,608L609,612L609,617L609,619L609,613L609,615L605,628L605,628L604,629L604,629L603,632L603,632L604,635L603,632L604,637L604,639L604,640L604,644L604,642L604,646L604,648L604,649L604,651L604,653L604,654L604,654L605,662L606,654L606,662" fill="none" stroke="#000000" style="-webkit-tap-highlight-color: rgba(0, 0, 0, 0); stroke-linecap: round; stroke-linejoin: round; stroke-width: 5;" /><path d="M739.96,307.56L738,304L738,304L738,302L738,302L738,302L735,295L738,306L738,307L736,311L736,315L739,319L738,322L737,324L737,327L737,331L738,335L737,338L738,340L738,346L738,344L738,348L738,347L738,351L738,353L739,362L739,355L738,360L739,356L737,369L739,365L739,367L739,364L737,373L737,371L737,375L739,376L742,381L740,378L742,383L742,381L740,389L740,387L741,393L741,394L741,396L744,399L744,401L745,401L743,407L743,407L747,409L748,414L747,424L747,415L747,429L747,425L748,431L748,434L747,437L745,442L749,447L746,444L746,449L747,450L749,454L747,452L748,460L747,458L748,461L749,464L751,469L751,467L752,474L751,472L751,477L751,479L751,482L751,487L752,489L751,486L753,492L754,494L754,498L754,500L753,503L756,513L756,506L756,509L756,512L758,520L758,525L756,519L755,517L758,526L757,531L757,530L758,535L759,545L759,544L759,549L757,538L757,552" fill="none" stroke="#000000" style="-webkit-tap-highlight-color: rgba(0, 0, 0, 0); stroke-linecap: round; stroke-linejoin: round; stroke-width: 5;" /><path d="M759,554L759,554L756,557L757,560L760,568L757,561L757,564L760,572L761,575L760,583L760,584L760,578L762,592L762,591L762,592L761,587" fill="none" stroke="#000000" style="-webkit-tap-highlight-color: rgba(0, 0, 0, 0); stroke-linecap: round; stroke-linejoin: round; stroke-width: 5;" /><path d="M692.92,544.57" fill="none" stroke="#000000" style="-webkit-tap-highlight-color: rgba(0, 0, 0, 0); stroke-linecap: round; stroke-linejoin: round; stroke-width: 5;" /><path d="M762,596L761,601L762,595L762,599L762,602L766,611L761,605L761,605L763,614L763,614L762,617L762,615L761,619L763,624L763,626L761,621L762,632L764,631L763,634L762,639L763,640L764,644L763,648L764,653L763,649L761,659L762,660L763,661L762,660L763,663L763,667L765,667L763,667" fill="none" stroke="#000000" style="-webkit-tap-highlight-color: rgba(0, 0, 0, 0); stroke-linecap: round; stroke-linejoin: round; stroke-width: 5;" /><path d="M691,548L691,549L695,550L697,551L693,550L700,554L700,555L704,559L700,556L704,560L705,566L705,568L705,564L705,572L706,576L706,574L706,574L706,578L706,586L706,584L706,583L706,589" fill="none" stroke="#000000" style="-webkit-tap-highlight-color: rgba(0, 0, 0, 0); stroke-linecap: round; stroke-linejoin: round; stroke-width: 5;" /><path d="M707,592L706,593L706,597L706,598L706,598L701,604L701,604L701,604L697,612L697,615L697,613L697,617L697,619L697,619L697,619L697,619L697,619L697,619L697,617L692,617L690,624L691,619L690,624L691,620L690,633L690,633L693,639L692,635L694,640L696,645L695,644L696,646L698,651L697,650L696,647L697,655L697,660L697,660L697,662L697,655L697,664L700,668L697,660" fill="none" stroke="#000000" style="-webkit-tap-highlight-color: rgba(0, 0, 0, 0); stroke-linecap: round; stroke-linejoin: round; stroke-width: 5;" /><path d="M472.2,336.51L471,337L465,338L465,338L465,338L465,338L478,354L465,338L463,361L478,355L463,365L463,362L472,372L472,372L471,377L471,377L471,378L471,380L472,386L472,386L476,393L476,394L476,395L476,395L478,401L478,409L478,401L478,409L478,414L478,416L478,411L471,427L471,427L471,427L471,427L471,427L474,431L474,432L474,434L474,436L475,437L475,437L481,441L481,445L481,447L477,454L477,454L477,454L476,457L476,456L480,464L480,469L474,478L474,478L474,480L471,484L471,484L471,484L471,484L471,484L482,504L482,504L475,509L475,509L475,509L475,509L475,512L475,510L473,516L473,516L473,518L473,516L473,524L473,518L473,525L473,526L467,530L464,534L465,531L467,530L464,537L465,540L465,541L465,541L465,541L468,554L468,554L468,554L468,555L468,556L468,556L468,556L468,556L471,568" fill="none" stroke="#000000" style="-webkit-tap-highlight-color: rgba(0, 0, 0, 0); stroke-linecap: round; stroke-linejoin: round; stroke-width: 5;" /><path d="M471,568L471,568L470,573L470,573L469,577L470,574L467,580L467,580L466,582L466,582L465,585L465,586L459,586L458,587L462,596L455,594L456,596L456,599L454,599L456,599L452,600L451,601L449,602L450,602L446,602L445,608L446,604L445,606L445,610L446,614L445,614L445,614L446,614L447,625L449,625L449,625L449,628L449,628L447,628L447,628L452,643" fill="none" stroke="#000000" style="-webkit-tap-highlight-color: rgba(0, 0, 0, 0); stroke-linecap: round; stroke-linejoin: round; stroke-width: 5;" /><path d="M540.95,454.11" fill="none" stroke="#000000" style="-webkit-tap-highlight-color: rgba(0, 0, 0, 0); stroke-linecap: round; stroke-linejoin: round; stroke-width: 5;" /><path d="M452,643L452,643L451,645L436,644L441,651L441,651L441,651L443,652L443,652L445,653L442,658L445,662L444,660L444,660L445,662L445,662L444,660L444,663L442,658" fill="none" stroke="#000000" style="-webkit-tap-highlight-color: rgba(0, 0, 0, 0); stroke-linecap: round; stroke-linejoin: round; stroke-width: 5;" /><path d="M534,452L534,452L533,456L533,456L532,459L532,459L531,462L531,462L530,470L530,470L530,476L530,474L531,480L530,483L532,491L531,488L532,494L533,497L534,499L534,503L532,507L532,507L533,512L534,514L537,519L534,517L535,523L537,523L537,527L536,532L539,534L539,539L538,536L539,539L542,543L542,546L542,545L540,550L542,552L544,559L543,556L543,554L544,563L544,564L544,568L544,572L544,574L543,577L545,580L546,583L546,581L546,584L546,586L546,588L546,590L546,590L546,594L549,596L550,599L550,601L552,604L552,608L554,613L553,610L554,612L555,615L556,621L555,619L556,622L557,625L558,628L560,633L559,630L561,637L562,639L562,640L562,642L563,644" fill="none" stroke="#000000" style="-webkit-tap-highlight-color: rgba(0, 0, 0, 0); stroke-linecap: round; stroke-linejoin: round; stroke-width: 5;" /><path d="M561,646L561,649L560,653L561,649L561,649L561,655L561,658L561,658L559,659L555,660L550,660L553,660L555,660L549,660L546,661L544,660L544,660" fill="none" stroke="#000000" style="-webkit-tap-highlight-color: rgba(0, 0, 0, 0); stroke-linecap: round; stroke-linejoin: round; stroke-width: 5;" /><path d="M495.72,539.14" fill="none" stroke="#000000" style="-webkit-tap-highlight-color: rgba(0, 0, 0, 0); stroke-linecap: round; stroke-linejoin: round; stroke-width: 5;" /><path d="M537,661L533,661L536,661L532,662L528,663L522,663L526,663L522,661L517,664L514,664L510,663L507,669L503,667L502,667L498,669L490,671L493,670L489,671L483,669L479,669L476,668L474,668L470,665L467,665L469,665L461,663L463,665L460,662L458,662L458,659L457,659L457,657L456,660L456,660L460,662" fill="none" stroke="#000000" style="-webkit-tap-highlight-color: rgba(0, 0, 0, 0); stroke-linecap: round; stroke-linejoin: round; stroke-width: 5;" /><path d="M492,538L495,539L493,537L490,538" fill="none" stroke="#000000" style="-webkit-tap-highlight-color: rgba(0, 0, 0, 0); stroke-linecap: round; stroke-linejoin: round; stroke-width: 5;" /><path d="M490,538L493,548L494,548L490,541L494,554L496,558L497,559L496,566L496,569L496,575L494,579L495,583L495,585L495,590L495,595L496,600L496,607L494,612L495,615L494,621L494,621" fill="none" stroke="#000000" style="-webkit-tap-highlight-color: rgba(0, 0, 0, 0); stroke-linecap: round; stroke-linejoin: round; stroke-width: 5;" /><path d="M539.14,539.14" fill="none" stroke="#000000" style="-webkit-tap-highlight-color: rgba(0, 0, 0, 0); stroke-linecap: round; stroke-linejoin: round; stroke-width: 5;" /><path d="M494,628L494,633L495,626L494,631L495,640L495,639L495,637L494,634L495,642L495,648L495,646L495,644L493,651L493,655L494,653L494,657L494,662L494,659L494,663L494,660L494,671L494,667L494,667L493,670L492,670L491,672L491,675L493,677L496,674" fill="none" stroke="#000000" style="-webkit-tap-highlight-color: rgba(0, 0, 0, 0); stroke-linecap: round; stroke-linejoin: round; stroke-width: 5;" /><path d="M539,539L542,545L542,543L542,545L542,546L539,539L536,549L539,539L537,535L537,535L539,539L536,532L533,531L529,525L532,528L531,521L526,512L528,516L528,507L528,507L530,496L532,494L526,501L532,492L531,480L531,488L531,488L531,480L530,470L530,465L530,474L532,459L536,449L533,456L532,459L536,449L553,447L540,440L536,449L540,440L555,441L556,437L555,440L555,440L557,434L558,432L561,429L558,431L562,427L568,424L562,428L566,424L575,419L572,421L574,421L570,421" fill="none" stroke="#000000" style="-webkit-tap-highlight-color: rgba(0, 0, 0, 0); stroke-linecap: round; stroke-linejoin: round; stroke-width: 5;" /><path d="M581,420L579,420L577,419L584,420L586,419L595,419L597,421L592,419L607,424L601,420L608,424L602,420L610,424L611,426L611,426L611,426L625,420L611,427L627,423L627,423L612,437L614,444L628,424L612,437L632,444L632,447L628,457L632,447L628,457L628,459L628,459L628,459L623,469L625,475L624,472L626,477L626,477L627,481L628,483L627,481L628,483L629,486L629,487L630,490L631,492" fill="none" stroke="#000000" style="-webkit-tap-highlight-color: rgba(0, 0, 0, 0); stroke-linecap: round; stroke-linejoin: round; stroke-width: 5;" /><path d="M265.95,314.8L262,313L262,314L262,317L261,322L261,326L260,334L263,329L261,335L262,343L263,338L262,342L266,351L261,344L265,348L264,355L263,356L264,355L261,312L266,358L265,366L264,357L265,366L265,368L265,372L265,367L265,373L265,375L265,379L265,375L265,379L267,386L267,386L266,380L267,387L266,391L266,391L266,390L266,398L266,398L265,407L266,401L267,404L269,411L269,421L269,420L268,414L267,428L269,432L268,433L268,438L269,446L268,454L267,449L267,462L267,458" fill="none" stroke="#000000" style="-webkit-tap-highlight-color: rgba(0, 0, 0, 0); stroke-linecap: round; stroke-linejoin: round; stroke-width: 5;" /><path d="M266,465L266,469L266,472L266,476L266,478L267,481L267,484L268,487L268,491L267,494L267,494L264,498L264,501L264,498L264,503L265,508L265,510L266,512L266,517L266,516L266,521L266,523" fill="none" stroke="#000000" style="-webkit-tap-highlight-color: rgba(0, 0, 0, 0); stroke-linecap: round; stroke-linejoin: round; stroke-width: 5;" /><path d="M300.33,309.37" fill="none" stroke="#000000" style="-webkit-tap-highlight-color: rgba(0, 0, 0, 0); stroke-linecap: round; stroke-linejoin: round; stroke-width: 5;" /><path d="M268,526L268,526L268,527L269,532L268,536L269,539L268,544L268,549L268,551L268,551L263,554L274,563L263,554L274,564L274,563L274,563L275,553" fill="none" stroke="#000000" style="-webkit-tap-highlight-color: rgba(0, 0, 0, 0); stroke-linecap: round; stroke-linejoin: round; stroke-width: 5;" /><path d="M299,308L297,308L297,306L297,308L297,309L297,311L297,318L297,314L296,324L297,327L299,343L299,346L299,350L299,354L297,361L297,360L296,332L297,338L302,371L300,369L302,374L302,374L302,374L302,387L306,400L306,400L306,400L305,402L306,404L306,404L307,415L306,418L304,422L303,424L303,426L302,432L302,436L303,440L303,443L303,456" fill="none" stroke="#000000" style="-webkit-tap-highlight-color: rgba(0, 0, 0, 0); stroke-linecap: round; stroke-linejoin: round; stroke-width: 5;" /><path d="M303,448L302,446L303,460L297,470L297,465L297,474L297,478L297,487L297,483L298,490L298,492L298,498L298,500L298,500L299,507L300,509L300,514L301,517L302,521L302,525L302,525L301,529L301,528L300,534" fill="none" stroke="#000000" style="-webkit-tap-highlight-color: rgba(0, 0, 0, 0); stroke-linecap: round; stroke-linejoin: round; stroke-width: 5;" /><path d="M238.81,329.27" fill="none" stroke="#000000" style="-webkit-tap-highlight-color: rgba(0, 0, 0, 0); stroke-linecap: round; stroke-linejoin: round; stroke-width: 5;" /><path d="M300,532L301,537L301,537L302,541L301,539L302,545L302,545L302,550L302,550L302,550L302,550L304,550L304,550L305,564L305,564L305,564L304,565L305,564L304,565L305,564" fill="none" stroke="#000000" style="-webkit-tap-highlight-color: rgba(0, 0, 0, 0); stroke-linecap: round; stroke-linejoin: round; stroke-width: 5;" /><path d="M235,330L235,330L237,330L235,333L234,338L242,342L237,338L237,339L242,342L242,342L242,354L242,354L244,356" fill="none" stroke="#000000" style="-webkit-tap-highlight-color: rgba(0, 0, 0, 0); stroke-linecap: round; stroke-linejoin: round; stroke-width: 5;" /><path d="M244,359L247,362L249,367L250,371L250,376L250,379L251,385" fill="none" stroke="#000000" style="-webkit-tap-highlight-color: rgba(0, 0, 0, 0); stroke-linecap: round; stroke-linejoin: round; stroke-width: 5;" /><path d="M226.15,336.51" fill="none" stroke="#000000" style="-webkit-tap-highlight-color: rgba(0, 0, 0, 0); stroke-linecap: round; stroke-linejoin: round; stroke-width: 5;" /><path d="M251,394L251,388L250,402L251,397L250,402L250,403L251,406L251,404L251,411L251,411L253,417L253,414L253,417L253,424L253,427L253,429L253,424" fill="none" stroke="#000000" style="-webkit-tap-highlight-color: rgba(0, 0, 0, 0); stroke-linecap: round; stroke-linejoin: round; stroke-width: 5;" /><path d="M226,341L225,339L226,344L226,355L226,360L227,349L226,365L230,370L233,375L233,380L233,385L232,390L232,396L232,396L234,400L234,405L235,408L235,403L233,410L233,413L232,413L232,413L230,411L233,413L237,412L236,413L233,413" fill="none" stroke="#000000" style="-webkit-tap-highlight-color: rgba(0, 0, 0, 0); stroke-linecap: round; stroke-linejoin: round; stroke-width: 5;" /><path d="M241,411L245,412L246,412L248,414L249,415L253,414L253,414L254,415L255,412L256,411L265,413L264,418L264,418L264,418" fill="none" stroke="#000000" style="-webkit-tap-highlight-color: rgba(0, 0, 0, 0); stroke-linecap: round; stroke-linejoin: round; stroke-width: 5;" /><path d="M188.16,370.88L184.54,372.69L182,375L181,376L180,379L182,383L183,387L183,391L184,393L185,398L185,402L188,409L185,405L187,413L187,416L188,420L188,423L188,422L187,427L187,432L187,432L187,434L187,436L187,438L187,441L187,443L187,445L187,447L188,450L188,452L188,450L189,458L188,454L189,460L189,458L192,463L192,463L192,464L193,464L194,467L194,468L195,469L194,475L194,473L194,479L194,481L193,483L193,485L193,485L193,485L194,489L194,489L194,490L205,495L205,496L205,495L204,499L204,501L204,503L205,508L206,505L206,510L205,511L205,515L207,517L205,519L205,521L206,525L206,526L204,531L206,533L204,536L206,533L204,537L204,539L210,542L208,543L210,542L212,546L209,545L210,546L212,548L213,548L217,548L216,548L219,545L221,546L223,546L224,546L224,548L225,551L225,555L225,556L225,554L224,557L224,557L222,559L222,559L221,560L219,563L219,563L216,572L216,572L216,575L216,574L216,577L216,579L216,583L217,588L217,587L217,590L217,593L217,595L217,597L217,599" fill="none" stroke="#000000" style="-webkit-tap-highlight-color: rgba(0, 0, 0, 0); stroke-linecap: round; stroke-linejoin: round; stroke-width: 5;" /><path d="M218,604L218,604L219,607L219,607L219,608L220,611L221,613L221,613L221,617L222,621" fill="none" stroke="#000000" style="-webkit-tap-highlight-color: rgba(0, 0, 0, 0); stroke-linecap: round; stroke-linejoin: round; stroke-width: 5;" /><path d="M247.86,557.23" fill="none" stroke="#000000" style="-webkit-tap-highlight-color: rgba(0, 0, 0, 0); stroke-linecap: round; stroke-linejoin: round; stroke-width: 5;" /><path d="M222,627L221,633L224,624L222,637L222,637L225,642L225,642L229,641L230,644L228,644L231,645L232,649L232,649L232,651L232,649L232,649" fill="none" stroke="#000000" style="-webkit-tap-highlight-color: rgba(0, 0, 0, 0); stroke-linecap: round; stroke-linejoin: round; stroke-width: 5;" /><path d="M246,553L250,554L244,554L251,554L255,554" fill="none" stroke="#000000" style="-webkit-tap-highlight-color: rgba(0, 0, 0, 0); stroke-linecap: round; stroke-linejoin: round; stroke-width: 5;" /><path d="M263,554L262,554L261,554L275,553L275,553L279,551L277,552L282,551L286,551L287,551L284,551L287,551L287,551" fill="none" stroke="#000000" style="-webkit-tap-highlight-color: rgba(0, 0, 0, 0); stroke-linecap: round; stroke-linejoin: round; stroke-width: 5;" /><path d="M318.42,390.78L315,399L319,391L315,399L315,399L317,410L315,401L316,412L317,412L315,419L316,423L321,425L316,423L321,431L321,429L321,427L321,434L321,441L321,438L321,440L321,436L324,448L321,445L321,443L324,450L324,450L323,459L325,454L325,454L323,460L323,460L323,466L322,462L323,472L324,467L324,474L325,469L324,479L324,477L324,482L324,477" fill="none" stroke="#000000" style="-webkit-tap-highlight-color: rgba(0, 0, 0, 0); stroke-linecap: round; stroke-linejoin: round; stroke-width: 5;" /><path d="M323,486L322,487L324,482L323,486L320,489L319,490L324,504L321,488L324,504L324,506L324,504L324,504L324,506L322,513L322,517L323,515L323,520L322,529L323,525L323,521L322,532L325,541L324,539L322,536L325,541L321,542L321,542L320,561L320,561L320,561L324,563L324,563L324,563L324,570L324,566L324,564L324,572L324,575L324,578L325,580L323,584L322,588L322,593L322,590L322,597L323,601L324,603L322,608L322,610L323,613L324,614L324,620L324,623L323,624L322,630L322,630L322,635L322,637L322,638L326,642L327,641L327,641" fill="none" stroke="#000000" style="-webkit-tap-highlight-color: rgba(0, 0, 0, 0); stroke-linecap: round; stroke-linejoin: round; stroke-width: 5;" /><path d="M819.56,434.2L816,436L814,435L814,435L818,434L818,434L820,433L821,433L825,426L827,422L829,422L832,420L832,420L839,421L840,420L843,422L847,423L849,423L854,428L858,429L862,429L868,430L865,431L870,434L872,434L874,433L877,432L875,435L879,429L880,429L883,428L885,428L888,427L888,427L890,427L893,424L896,425L897,425L899,424L903,425L905,424L906,424L909,426L910,427L915,426L916,425L919,425L923,428L927,425L928,425L930,425L935,422L934,422L938,424L941,422L943,421L944,421L945,422L948,422L952,421L949,419L955,418L954,417L958,416L957,418L960,416L962,412L965,414L966,411L970,412L972,411L978,412L973,411L978,412L981,411L982,410L986,409" fill="none" stroke="#000000" style="-webkit-tap-highlight-color: rgba(0, 0, 0, 0); stroke-linecap: round; stroke-linejoin: round; stroke-width: 5;" /><path d="M987,409L990,408L995,410L995,410L997,410L999,411L1000,411L1000,411L1004,416L1005,416L1010,417L1012,417L1016,405L1019,406L1019,406L1022,404L1020,407L1022,404" fill="none" stroke="#000000" style="-webkit-tap-highlight-color: rgba(0, 0, 0, 0); stroke-linecap: round; stroke-linejoin: round; stroke-width: 5;" /><path d="M799.66,486.67L801,483L800,479L799,476L804,471L803,469L803,469L804,471L798,475L797,478L794,483L791,488L791,493L789,501L789,505L789,508L783,516L787,521L787,527L785,532L785,535L784,540L786,545L783,551L782,559L783,555L784,562L783,565L784,570L784,572L782,573L783,578L783,579L782,583L782,583L783,588L783,592L783,590L782,596L782,601L782,603L783,605L783,608L782,596" fill="none" stroke="#000000" style="-webkit-tap-highlight-color: rgba(0, 0, 0, 0); stroke-linecap: round; stroke-linejoin: round; stroke-width: 5;" /><path d="M783,609L782,599L783,613L783,615L784,622L784,617L784,622L786,629L785,626L787,632L787,636L789,646L787,638L791,648" fill="none" stroke="#000000" style="-webkit-tap-highlight-color: rgba(0, 0, 0, 0); stroke-linecap: round; stroke-linejoin: round; stroke-width: 5;" /><path d="M908.21,497.53" fill="none" stroke="#000000" style="-webkit-tap-highlight-color: rgba(0, 0, 0, 0); stroke-linecap: round; stroke-linejoin: round; stroke-width: 5;" /><path d="M799,649L794,648" fill="none" stroke="#000000" style="-webkit-tap-highlight-color: rgba(0, 0, 0, 0); stroke-linecap: round; stroke-linejoin: round; stroke-width: 5;" /><path d="M906,489L908,490L906,487L903,487L901,486L901,487L901,487L902,490L901,502L901,495L900,508L901,516L901,519L901,521L901,526L901,532L900,536L903,541L904,545L903,548L902,551L903,555L903,559L906,560L905,564L904,566L904,570L904,572L905,577L905,581L905,585L905,590L903,595L902,590" fill="none" stroke="#000000" style="-webkit-tap-highlight-color: rgba(0, 0, 0, 0); stroke-linecap: round; stroke-linejoin: round; stroke-width: 5;" /><path d="M906,601L906,601L904,605L904,606L904,606L901,617L901,617L899,618L901,617L899,623L903,633L899,623L900,624L902,634L900,636L901,635L899,637L899,639L917.26,613.31L899,639L898,642L919,616L914,618L914,606L914,606L915,606L916,606L919,601L917,604L921,599L926,597L932,600L929,598L934,600L938,602L939,604L944,606L944,607L945,612L952,614L950,612L957,613L954,613L960,613L965,615L968,616L964,615L972,617L973,613L973,613L970,616" fill="none" stroke="#000000" style="-webkit-tap-highlight-color: rgba(0, 0, 0, 0); stroke-linecap: round; stroke-linejoin: round; stroke-width: 5;" /><path d="M978,614L979,615L982,617L981,617L992,618L987,617L984,617L986,616L995,615L1007,612L999,614L1002,613L1019,605L1008,612L1013,607L1020,604" fill="none" stroke="#000000" style="-webkit-tap-highlight-color: rgba(0, 0, 0, 0); stroke-linecap: round; stroke-linejoin: round; stroke-width: 5;" /><path d="M797.85,656.73" fill="none" stroke="#000000" style="-webkit-tap-highlight-color: rgba(0, 0, 0, 0); stroke-linecap: round; stroke-linejoin: round; stroke-width: 5;" /><path d="M1020,604L1020,604L1020,604" fill="none" stroke="#000000" style="-webkit-tap-highlight-color: rgba(0, 0, 0, 0); stroke-linecap: round; stroke-linejoin: round; stroke-width: 5;" /><path d="M791,659L793,657L792,657L796,653L800,651L802,649L811,643L805,646L812,643L815,646L835,638L835,637L839,636L845,641L849,640L852,639L856,638L860,640L866,641L868,640L873,642L875,642L877,640L883,640L888,635L887,638L892,633L892,635L892,633L892,633L903,633L903,633L907,632L903,633L908,632L910,632" fill="none" stroke="#000000" style="-webkit-tap-highlight-color: rgba(0, 0, 0, 0); stroke-linecap: round; stroke-linejoin: round; stroke-width: 5;" /><path d="M915,633L919,636L912,632L921,636L923,636L926,636L929,634L930,633L929,630" fill="none" stroke="#000000" style="-webkit-tap-highlight-color: rgba(0, 0, 0, 0); stroke-linecap: round; stroke-linejoin: round; stroke-width: 5;" /><path d="M718.25,669.4L715,662L716,666L713,662L713,662L718,661L722,657L722,657L725,657L728,659L728,659L746,658L746,658L747,662L751,664L753,664L757,668L761,668L770,667L763,667L767,668L774,663L782,661L785,660L780,662L776,663" fill="none" stroke="#000000" style="-webkit-tap-highlight-color: rgba(0, 0, 0, 0); stroke-linecap: round; stroke-linejoin: round; stroke-width: 5;" /><path d="M787,656L792,653L789,656L789,656L791,655" fill="none" stroke="#000000" style="-webkit-tap-highlight-color: rgba(0, 0, 0, 0); stroke-linecap: round; stroke-linejoin: round; stroke-width: 5;" /><path d="M615.12,671.21L616,673L622,666L628,668L632,666L637,663L644,661L640,664L648,661L651,661L655,661L659,661L662,666L666,667L668,667L669,667L675,667L678,668" fill="none" stroke="#000000" style="-webkit-tap-highlight-color: rgba(0, 0, 0, 0); stroke-linecap: round; stroke-linejoin: round; stroke-width: 5;" /><path d="M689,670L682,667L685,669L693,668L695,664L697,664L697,664L697,664L700,668L700,668" fill="none" stroke="#000000" style="-webkit-tap-highlight-color: rgba(0, 0, 0, 0); stroke-linecap: round; stroke-linejoin: round; stroke-width: 5;" /><path d="M75.99,691.11L73,689L73,689L70,690L70,690L70,690L70,690L73,689L74,689L73,689L88,680L90,680L96,684L108,685L114,690L111,690L115,690L114,704L132,709L117,708L126,715L132,709L133,719L126,715L134,719L137,719L139,719L143,721L147,720L155,717L151,719L161,717L168,716L166,717L175,713L172,715L175,713L181,713L183,712L185,712L186,712L190,713L194,712L198,713L198,713L203,713L206,712L212,714L208,713L214,714L221,711L226,709L221,711L224,712L231,712L233,710L235,710L239,711L243,713L244,712L253,715L250,712L255,715L258,715L262,716L265,713L269,713L274,713L277,713L279,713L280,711L291,715L289,712L300,716L295,715L302,717L305,719L309,720L311,722L318,724L316,723L326,725L323,724L327,725L332,725L335,724L338,724L340,721L344,721L348,721L351,721L358,719L355,719L360,718L364,715L370,715L367,716L373,714L374,716L387,712L374,713L387,712L391,714L400,713L394,711L402,713L408,714L412,716L417,716L421,718L427,718L423,717L428,718L435,714L441,720L445,718L447,717L451,717L460,712L459,719L465,715L465,715L469,713L472,710L476,712L479,710L483,710L487,711L490,711L494,710L498,711L501,710L505,711L510,709L509,709L516,709L516,709L521,709L523,710L525,707L528,713L536,706L527,706L539,706L546,709L551,711L546,709L554,713L554,713L557,715L561,715L564,716L566,716L569,717L577,719L574,720L584,728L586,731L580,725L592,734L600,744L597,738L603,748L610,746L613,746L621,748L626,749L633,749L638,749L649,749L644,751L655,751L664,751L667,751L659,753L671,751L676,751L682,753L678,752L686,754L691,754L695,754L699,756L706,762L711,764L706,762L718,768L714,764L722,768L725,770L729,772L734,772L742,778L738,776L745,778L750,778L752,781L756,782L762,781L761,781" fill="none" stroke="#000000" style="-webkit-tap-highlight-color: rgba(0, 0, 0, 0); stroke-linecap: round; stroke-linejoin: round; stroke-width: 5;" /><path d="M83,469L94,463L92,463L89,463L98,462L100,462L103,462L107,462L110,462L114,462L116,461L118,461L123,461L121,461L129,460L125,461L130,460L134,459L132,459L136,459L137,459L139,459L143,459L141,459L145,459L150,459L151,459L148,459L154,460L155,460L155,460" fill="none" stroke="#000000" style="-webkit-tap-highlight-color: rgba(0, 0, 0, 0); stroke-linecap: round; stroke-linejoin: round; stroke-width: 5;" /><path d="M5.43,470.39L2,475L0,475L2,475L4,475L5,475L9,474L15,473L18,472L22,471L27,469L33,468L38,467L43,472L49,472L50,471L50,471L57,471L62,472L65,471L69,470L72,464L76,469L80,469L85,463L81,463L89,463L92,463L96,463L109,467L100,467L103,467L112,467L116,467L122,467L133,465L127,461L134,465L134,465L139,466L142,465" fill="none" stroke="#000000" style="-webkit-tap-highlight-color: rgba(0, 0, 0, 0); stroke-linecap: round; stroke-linejoin: round; stroke-width: 5;" /><path d="M143,465L144,465L148,465L147,465L151,464L154,464L154,464L152,464" fill="none" stroke="#000000" style="-webkit-tap-highlight-color: rgba(0, 0, 0, 0); stroke-linecap: round; stroke-linejoin: round; stroke-width: 5;" /><path d="M776.14,779.76L773,779L771,779L771,782L774,779L780,782L789,782L784,783L800,785L794,782L806,782L807,782L811,783L812,783L820,780L818,782L824,780L826,778L831,776L830,778L834,774L836,775L847,773L843,774L847,773L852,769L855,769L858,767L861,765L868,765L865,765L876,764L880,765L883,762L887,764L892,762L896,758L898,756L872,763L901,756L908,750L905,752L912,747L916,745L919,743L921,742L926,740L930,738L934,735L934,735L939,735L943,735L944,735L950,729L952,727L953,727L959,721L962,723L968,722L964,724L972,722L975,721L982,722L982,722L986,722L990,721" fill="none" stroke="#000000" style="-webkit-tap-highlight-color: rgba(0, 0, 0, 0); stroke-linecap: round; stroke-linejoin: round; stroke-width: 5;" /><path d="M993,723L995,721L1024,705.58" fill="none" stroke="#000000" style="-webkit-tap-highlight-color: rgba(0, 0, 0, 0); stroke-linecap: round; stroke-linejoin: round; stroke-width: 5;" /><path d="M1000,720L1000,720L1004,716L1004,718L1008,715L1010,716L1011,711L1013,711L1015,709L1017,709L1019,706L1019,706L1020,706L1022,704L1022,704" fill="none" stroke="#000000" style="-webkit-tap-highlight-color: rgba(0, 0, 0, 0); stroke-linecap: round; stroke-linejoin: round; stroke-width: 5;" /><path d="M521.05,280.42L522,284L521,289L520,296L520,290L521,300L521,300L523,300L532,313L532,311L526,322L526,322L524,323L525,323L525,326L523,329L523,329" fill="none" stroke="#000000" style="-webkit-tap-highlight-color: rgba(0, 0, 0, 0); stroke-linecap: round; stroke-linejoin: round; stroke-width: 5;" /><path d="M526,338L526,338L525,342L526,338L524,344L526,350L523,347L528,350L528,350L530,356" fill="none" stroke="#000000" style="-webkit-tap-highlight-color: rgba(0, 0, 0, 0); stroke-linecap: round; stroke-linejoin: round; stroke-width: 5;" /><path d="M559.04,262.33L554,268L555,266L554,269L555,269L554,269L548,280L548,280L557,287L556,291L555,297L560,304L555,297L558,316L560,308L560,311L558,317L558,322L560,318" fill="none" stroke="#000000" style="-webkit-tap-highlight-color: rgba(0, 0, 0, 0); stroke-linecap: round; stroke-linejoin: round; stroke-width: 5;" /><path d="M560,331L560,326L562,337L561,344L560,348L561,351L561,355L560,355L559,353L515.62,367.27L509,364L509,364L509,364L509,364L509,364L521,366L521,366L523,367L526,367L530,365L530,365L535,361L535,361L541,356L545,355L548,355L555,357L563,356L557,357L560,358L555,357L567,357L568,358L574,359L570,360L577,360L575,359L578,359L578,359L578,359L578,358L578,358L587,349L587,349L587,349L587,349L587,349L594,345L594,345L602,346L602,346L602,346L607,348L606,347" fill="none" stroke="#000000" style="-webkit-tap-highlight-color: rgba(0, 0, 0, 0); stroke-linecap: round; stroke-linejoin: round; stroke-width: 5;" /><path d="M608,348L610,349L613,347L613,347L618,346L620,343L616,347L618,346L623,344L623,342L623,342L623,342" fill="none" stroke="#000000" style="-webkit-tap-highlight-color: rgba(0, 0, 0, 0); stroke-linecap: round; stroke-linejoin: round; stroke-width: 5;" /><path d="M515.62,376.31" fill="none" stroke="#000000" style="-webkit-tap-highlight-color: rgba(0, 0, 0, 0); stroke-linecap: round; stroke-linejoin: round; stroke-width: 5;" /><path d="M623,342L623,342L639,342L639,342L639,342L640,346" fill="none" stroke="#000000" style="-webkit-tap-highlight-color: rgba(0, 0, 0, 0); stroke-linecap: round; stroke-linejoin: round; stroke-width: 5;" /><path d="M506,375L506,375L506,378L523,378L525,382L528,389L526,385L530,393L530,395L532,398L534,403L533,401L534,405L535,406L536,406L536,406L536,406L538,406L543,419L543,419" fill="none" stroke="#000000" style="-webkit-tap-highlight-color: rgba(0, 0, 0, 0); stroke-linecap: round; stroke-linejoin: round; stroke-width: 5;" /></svg>