<?xml version="1.0" encoding="utf-8" ?>
<svg baseProfile="full" height="1380" version="1.1" width="1024" xmlns="http://www.w3.org/2000/svg" xmlns:ev="http://www.w3.org/2001/xml-events" xmlns:xlink="http://www.w3.org/1999/xlink"><defs /><path d="M797.67,259.52L798.68,259.52L798.68,260.53L797.67,262.54L795.66,263.54L793.65,266.56L790.63,268.57L788.62,271.59L785.6,274.61L781.58,279.64L779.57,283.66L774.54,288.69L773.53,290.7L772.53,292.72L766.49,300.76L762.47,302.77L759.45,305.79L756.43,309.82L750.4,313.84L747.38,317.86L745.37,318.87L741.34,323.9L738.33,325.91L735.31,329.93L734.3,330.94L732.29,333.96L730.28,335.97L728.27,341L728.27,343.01L726.26,347.03L725.25,350.05L725.25,352.06L724.24,356.09L723.24,358.1L721.23,360.11L720.22,363.13L718.21,368.16L717.2,371.17L716.2,375.2L715.19,378.22L714.18,380.23L714.18,382.24L712.17,388.28L711.17,392.3L710.16,397.33L710.16,402.36L709.16,409.4L709.16,411.41L708.15,416.44L706.14,427.5L705.13,433.54L704.13,438.57L704.13,445.61L703.12,449.63L703.12,453.66L702.11,456.68L701.11,460.7L701.11,464.72L701.11,470.76L701.11,475.79L700.1,477.8L700.1,482.83L699.1,488.86L699.1,491.88L700.1,494.9L699.1,497.92L700.1,500.94L700.1,503.95L700.1,509.99L700.1,514.01L699.1,523.06L699.1,525.08L698.09,530.11L697.08,535.14L696.08,540.17L695.07,547.21L694.07,550.22L693.06,556.26L692.06,563.3L691.05,566.32L690.04,570.34L690.04,574.37L689.04,580.4L689.04,584.42L689.04,588.45L688.03,592.47L687.03,596.5L687.03,599.51L685.01,605.55L685.01,607.56L683,610.58L682,614.6L680.99,616.61L679.98,618.62L678.98,622.65L677.97,624.66L676.97,627.68L675.96,631.7L674.95,635.72L672.94,638.74L669.93,641.76L667.91,644.78L664.9,648.8L662.88,650.81L661.88,653.83L659.87,655.84L657.85,659.87L655.84,662.88L654.84,664.9L655.84,667.91L654.84,668.92L654.84,670.93L654.84,671.94" fill="none" stroke="#000000" style="-webkit-tap-highlight-color: rgba(0, 0, 0, 0); stroke-linecap: round; stroke-linejoin: round; stroke-width: 6;" /><path d="M798.68,273.6L798.68,272.6L798.68,270.59L798.68,269.58L798.68,268.57L800.69,270.59L802.7,272.6L803.71,275.61L805.72,279.64L807.73,284.67L809.74,292.72L811.76,297.74L813.77,302.77L815.78,308.81L818.8,314.84L819.8,318.87L821.82,321.89L822.82,323.9L824.83,326.92L827.85,330.94L829.86,332.95L830.87,334.96L833.89,336.97L835.9,338.99L837.91,341L839.92,343.01L840.93,345.02L842.94,348.04L844.95,351.06L845.96,353.07L846.96,356.09L847.97,358.1L848.97,361.12L850.99,368.16L850.99,369.16L850.99,373.19L850.99,376.2L851.99,379.22L851.99,383.25L851.99,386.26L853,389.28L853,392.3L854,395.32L855.01,398.33L855.01,401.35L856.02,403.36L857.02,405.38L858.03,406.38L860.04,409.4L861.05,411.41L863.06,412.42L864.06,413.42L866.07,414.43L869.09,416.44L870.1,417.45L872.11,419.46L875.13,421.47L880.16,424.49L883.17,426.5L885.19,428.51L888.2,430.52L890.22,432.53L893.23,434.55L895.25,436.56L897.26,437.56L898.26,438.57L900.28,441.59L901.28,443.6L902.29,444.61L902.29,447.62L903.29,450.64L904.3,454.66L905.3,456.68L906.31,458.69L907.32,459.69L908.32,462.71L909.33,464.72L909.33,466.73L910.33,468.75L911.34,471.76L912.35,474.78L913.35,478.81L914.36,481.82L915.36,485.85L916.37,490.88L916.37,494.9L916.37,497.92L915.36,499.93L915.36,502.95L914.36,507.98L913.35,509.99L911.34,517.03L910.33,519.04L909.33,520.05L908.32,522.06L906.31,524.07L905.3,526.08L902.29,530.11L900.28,532.12L899.27,535.14L897.26,537.15L895.25,542.18L894.24,544.19L893.23,546.2L892.23,549.22L891.22,552.24L891.22,555.25L891.22,560.28L891.22,563.3L891.22,566.32L892.23,571.35L892.23,575.37L893.23,579.39L894.24,583.42L894.24,587.44L894.24,593.48L894.24,600.52L894.24,605.55L894.24,610.58L893.23,616.61L893.23,620.64L893.23,624.66L892.23,627.68L892.23,630.7L892.23,633.71L892.23,636.73L892.23,639.75L892.23,642.77L891.22,646.79L891.22,648.8L890.22,651.82L890.22,654.84L889.21,657.85L889.21,660.87L888.2,664.9L888.2,667.91L887.2,670.93L887.2,674.95L886.19,676.97L886.19,679.98L887.2,684.01L887.2,687.03L887.2,693.06L887.2,698.09L887.2,702.11L887.2,706.14L887.2,709.16L886.19,714.18L885.19,717.2L885.19,720.22L883.17,727.26L882.17,728.27L882.17,731.28L883.17,733.3L883.17,734.3L884.18,737.32L885.19,739.33L886.19,741.34L887.2,745.37L888.2,746.37L893.23,756.43L893.23,757.44L894.24,758.44L895.25,761.46L896.25,764.48L898.26,767.5L899.27,770.51L901.28,773.53L904.3,777.56L906.31,780.57L908.32,784.6L910.33,789.63L913.35,794.66L915.36,797.67L917.38,802.7L919.39,806.73L921.4,811.76L923.41,818.8L925.42,823.83L925.42,829.86L926.43,835.9L925.42,840.93L924.42,845.96L924.42,849.98L922.4,856.02L920.39,861.05L918.38,868.09L916.37,872.11L915.36,875.13L913.35,879.15L912.35,880.16L911.34,882.17L910.33,883.17" fill="none" stroke="#000000" style="-webkit-tap-highlight-color: rgba(0, 0, 0, 0); stroke-linecap: round; stroke-linejoin: round; stroke-width: 6;" /><path d="M656.85,687.03L659.87,687.03L663.89,688.03L669.93,690.04L675.96,693.06L685.01,701.11L692.06,706.14L701.11,710.16L711.17,715.19L721.23,719.21L735.31,725.25L743.36,731.28L751.4,737.32L759.45,743.36L773.53,753.41L783.59,758.44L792.64,766.49L799.69,773.53L805.72,781.58L811.76,790.63L816.79,798.68L821.82,803.71L826.84,808.74L835.9,814.77L841.93,818.8L847.97,822.82L853,827.85L859.03,831.87L865.07,835.9L873.12,841.93L879.15,845.96L884.18,851.99L891.22,861.05L896.25,867.08L909.33,876.13" fill="none" stroke="#000000" style="-webkit-tap-highlight-color: rgba(0, 0, 0, 0); stroke-linecap: round; stroke-linejoin: round; stroke-width: 6;" /><path d="M892.23,950.57L892.23,949.56L891.22,949.56L891.22,948.56L889.21,947.55L886.19,947.55L882.17,948.56L878.15,950.57L873.12,954.59L869.09,959.62L864.06,967.67L861.05,970.69L858.03,973.71L855.01,975.72L850.99,978.73L846.96,982.76L834.89,993.82L832.88,994.83L827.85,999.86L824.83,1002.88L821.82,1004.89L815.78,1009.92L811.76,1012.94L807.73,1014.95L803.71,1017.96L799.69,1020.98L795.66,1025.01L789.63,1032.05L786.61,1035.06L783.59,1038.08L779.57,1041.1L773.53,1045.12L769.51,1048.14L765.49,1051.16L761.46,1053.17L757.44,1055.18L751.4,1056.19L747.38,1056.19L744.36,1057.19L740.34,1057.19L735.31,1058.2L731.28,1058.2L727.26,1060.21L723.24,1060.21L719.21,1062.22L713.18,1064.24L709.16,1066.25L705.13,1068.26L701.11,1070.27L694.07,1074.29L689.04,1077.31L684.01,1080.33L678.98,1083.35L674.95,1086.37L666.91,1091.39L661.88,1096.42L657.85,1100.45L651.82,1104.47L643.77,1110.51L638.74,1114.53L631.7,1118.55L625.67,1121.57L619.63,1124.59L610.58,1129.62L604.54,1132.64L598.51,1135.65L592.47,1138.67L584.42,1143.7L579.39,1146.72L574.37,1149.74L570.34,1151.75L565.31,1155.77L559.28,1158.79L553.24,1163.82L548.21,1165.83L536.14,1173.88L534.13,1175.89L529.1,1179.91L524.07,1181.93L519.04,1183.94L510.99,1188.97L505.96,1191.98L499.93,1195L493.89,1199.03L484.84,1205.06L476.79,1207.07L469.75,1212.1L464.72,1217.13L458.69,1220.15L452.65,1224.17L443.6,1229.2L437.56,1232.22L432.53,1235.24L424.49,1240.27L420.46,1242.28L415.43,1245.3L411.41,1246.3L406.38,1248.31L403.36,1250.33L397.33,1252.34L393.3,1254.35L389.28,1256.36L383.25,1260.39L379.22,1262.4L375.2,1265.41L370.17,1267.43L365.14,1270.44L358.1,1274.47L354.07,1276.48L349.05,1278.49L345.02,1280.5L338.99,1282.51L334.96,1284.53L330.94,1286.54L326.92,1287.54L322.89,1289.56L317.86,1291.57L314.84,1292.57L310.82,1293.58L306.8,1295.59L301.77,1297.6L294.73,1299.61L287.69,1302.63L278.63,1306.66L269.58,1310.68L260.53,1314.7L252.48,1319.73" fill="none" stroke="#000000" style="-webkit-tap-highlight-color: rgba(0, 0, 0, 0); stroke-linecap: round; stroke-linejoin: round; stroke-width: 6;" /><path d="M2.01,801.7L2.01,799.69L5.03,797.67L7.04,796.67L9.05,795.66L10.06,795.66L13.08,798.68L14.08,801.7L14.08,804.72L15.09,809.74L18.11,816.79L20.12,821.82L23.14,826.84L26.15,831.87L29.17,836.9L32.19,842.94L32.19,846.96L34.2,851.99L36.21,857.02L40.24,864.06L43.25,870.1L46.27,876.13L49.29,882.17L53.31,889.21L57.34,898.26L61.36,904.3L64.38,908.32L68.4,913.35L73.43,923.41L79.47,940.51L81.48,947.55L82.48,950.57L86.51,960.63L88.52,968.68L91.54,976.72L93.55,984.77L97.57,993.82L99.58,998.85L101.6,1003.88L103.61,1009.92L105.62,1015.95L109.64,1026.01L111.65,1032.05L114.67,1037.08L116.68,1042.11L119.7,1051.16L120.71,1056.19L122.72,1061.22L125.74,1067.25L127.75,1074.29L131.77,1083.35L133.78,1091.39L136.8,1098.44L139.82,1105.48L142.84,1116.54L145.85,1123.58L148.87,1130.62L152.9,1138.67L155.91,1146.72L161.95,1158.79L164.97,1166.84L167.98,1173.88L172.01,1183.94L177.04,1197.01L182.07,1206.07L185.08,1212.1L189.11,1220.15L193.13,1227.19L198.16,1238.26L201.18,1244.29L203.19,1249.32L206.21,1254.35L210.23,1260.39L213.25,1265.41L215.26,1269.44L218.28,1272.46L221.3,1277.49L225.32,1283.52L228.34,1287.54L231.36,1292.57L234.37,1297.6L238.4,1303.64L242.42,1309.67L245.44,1313.7L248.46,1317.72L250.47,1322.75L254.49,1329.79L264.55,1344.88L267.57,1349.91L270.59,1353.93L272.6,1357.96L275.61,1362.99L278.63,1368.02L283.66,1375.06L287.69,1380.09" fill="none" stroke="#000000" style="-webkit-tap-highlight-color: rgba(0, 0, 0, 0); stroke-linecap: round; stroke-linejoin: round; stroke-width: 6;" /><path d="M899.27,949.56L898.26,950.57L898.26,951.58L899.27,951.58L900.28,952.58L902.29,953.59L907.32,956.61L910.33,959.62L914.36,962.64L924.42,973.71L933.47,986.78L939.5,994.83L944.53,1001.87L948.56,1008.91L952.58,1015.95L954.59,1017.96L955.6,1018.97L955.6,1019.98L955.6,1020.98L954.59,1022.99L953.59,1024L952.58,1025.01L951.58,1025.01L951.58,1026.01L949.56,1027.02L946.55,1030.04L942.52,1033.05L938.5,1037.08L930.45,1045.12L925.42,1053.17L918.38,1059.21L913.35,1066.25L906.31,1073.29L900.28,1078.32L889.21,1088.38L882.17,1095.42L873.12,1101.45L861.05,1110.51L853,1116.54L846.96,1121.57L840.93,1126.6L834.89,1131.63L829.86,1137.67L821.82,1144.71L815.78,1148.73L809.74,1152.75L802.7,1155.77L797.67,1157.78L793.65,1159.8L788.62,1161.81L784.6,1163.82L778.56,1166.84L770.51,1171.87L763.47,1174.88L755.43,1176.9L748.39,1180.92L735.31,1186.95L727.26,1189.97L720.22,1194L712.17,1199.03L704.13,1203.05L693.06,1209.08L685.01,1213.11L677.97,1218.14L659.87,1227.19L652.83,1232.22L644.78,1236.24L638.74,1239.26L632.71,1244.29L622.65,1251.33L615.61,1255.36L609.57,1260.39L603.54,1265.41L598.51,1271.45L593.48,1275.47L588.45,1281.51L582.41,1287.54L575.37,1292.57L566.32,1300.62L559.28,1304.64L552.24,1308.67L545.19,1313.7L533.12,1321.74L522.06,1328.79L512,1335.83L500.94,1342.87L489.87,1350.92L475.79,1357.96L467.74,1360.97L460.7,1363.99L451.65,1368.02L439.58,1373.05L431.53,1377.07L423.48,1380.09" fill="none" stroke="#000000" style="-webkit-tap-highlight-color: rgba(0, 0, 0, 0); stroke-linecap: round; stroke-linejoin: round; stroke-width: 6;" /><path d="M936.49,1057.19L936.49,1056.19L940.51,1055.18L941.52,1057.19L941.52,1061.22L939.5,1072.28L937.49,1079.32L936.49,1086.37L935.48,1094.41L934.48,1107.49L933.47,1115.54L932.46,1121.57L930.45,1127.61L929.45,1131.63L928.44,1137.67L927.43,1141.69L926.43,1143.7L926.43,1144.71L929.45,1145.71L935.48,1148.73L941.52,1151.75L947.55,1156.78L957.61,1168.85L964.65,1178.91L971.69,1188.97L977.73,1199.03L984.77,1209.08L994.83,1223.17L1003.88,1230.21L1011.93,1238.26L1016.96,1246.3L1019.98,1253.34" fill="none" stroke="#000000" style="-webkit-tap-highlight-color: rgba(0, 0, 0, 0); stroke-linecap: round; stroke-linejoin: round; stroke-width: 6;" /><path d="M923.41,1140.68L924.42,1140.68L921.4,1145.71L918.38,1148.73L914.36,1153.76L909.33,1159.8L905.3,1164.83L899.27,1168.85L894.24,1172.87L887.2,1176.9L881.16,1180.92L871.1,1186.95L863.06,1191.98L856.02,1197.01L842.94,1204.06L834.89,1209.08L826.84,1212.1L817.79,1217.13L810.75,1222.16L804.72,1228.2L794.66,1236.24L788.62,1241.27L781.58,1245.3L772.53,1250.33L766.49,1253.34L761.46,1256.36L756.43,1260.39L750.4,1265.41L744.36,1269.44L733.3,1275.47L726.26,1279.5L719.21,1283.52L714.18,1288.55L705.13,1298.61L697.08,1305.65L688.03,1312.69L677.97,1319.73L665.9,1326.77L649.81,1334.82L639.75,1341.86L629.69,1349.91L619.63,1359.97L603.54,1373.05L596.5,1378.07" fill="none" stroke="#000000" style="-webkit-tap-highlight-color: rgba(0, 0, 0, 0); stroke-linecap: round; stroke-linejoin: round; stroke-width: 6;" /><path d="M595.49,1380.09" fill="none" stroke="#000000" style="-webkit-tap-highlight-color: rgba(0, 0, 0, 0); stroke-linecap: round; stroke-linejoin: round; stroke-width: 6;" /><path d="M1018.97,1260.39L1018.97,1262.4L1019.98,1266.42L1019.98,1270.44L1018.97,1274.47L1015.95,1281.51L1013.94,1285.53L1009.92,1288.55L1005.89,1292.57L1000.86,1295.59L994.83,1298.61L989.8,1300.62L984.77,1302.63L979.74,1303.64L971.69,1305.65L967.67,1307.66L962.64,1309.67L956.61,1312.69L951.58,1316.72L944.53,1321.74L940.51,1325.77L935.48,1329.79L931.46,1334.82L924.42,1344.88L919.39,1351.92L916.37,1358.96L913.35,1366L911.34,1373.05L911.34,1380.09" fill="none" stroke="#000000" style="-webkit-tap-highlight-color: rgba(0, 0, 0, 0); stroke-linecap: round; stroke-linejoin: round; stroke-width: 6;" /><path d="M631.7,20.12L633.71,16.09L637.74,10.06L640.75,8.05L643.77,6.04L645.78,7.04L646.79,11.06L647.8,16.09L646.79,21.12L646.79,26.15L644.78,35.21L643.77,41.24L643.77,47.28L642.77,54.32L641.76,60.35L639.75,69.41L638.74,75.44L637.74,81.48L637.74,86.51L637.74,95.56L637.74,102.6L638.74,109.64L638.74,116.68L639.75,123.72L640.75,135.8L643.77,143.84L644.78,151.89L645.78,159.94L645.78,172.01L644.78,180.06L643.77,187.1L643.77,195.14L642.77,202.18L641.76,209.23L639.75,220.29L638.74,229.34L636.73,237.39L636.73,244.43L636.73,251.47L637.74,257.51L638.74,264.55L638.74,270.59L638.74,277.63L637.74,284.67L636.73,288.69L635.72,293.72L634.72,302.77L634.72,307.8L633.71,313.84L632.71,325.91L632.71,328.93L632.71,330.94L632.71,336.97L631.7,344.02L631.7,350.05L630.7,359.1L630.7,364.13L630.7,369.16L630.7,375.2L630.7,379.22L629.69,389.28L629.69,396.32L628.68,403.36L628.68,410.4L627.68,418.45L627.68,424.49L627.68,430.52L626.67,435.55L626.67,440.58L625.67,445.61L624.66,453.66L624.66,457.68L623.65,462.71L622.65,469.75L622.65,474.78L622.65,479.81L621.64,485.85L621.64,490.88L620.64,497.92L618.62,505.96L617.62,512L616.61,518.04L616.61,527.09L615.61,532.12L615.61,538.15L615.61,544.19L615.61,549.22L615.61,555.25L615.61,562.29L615.61,567.32L615.61,572.35L616.61,577.38L616.61,585.43L616.61,590.46L616.61,595.49L616.61,600.52L616.61,604.54L616.61,613.6L617.62,619.63L617.62,625.67L617.62,631.7L616.61,639.75L615.61,645.78L614.6,649.81L614.6,654.84L613.6,659.87L612.59,665.9L611.58,669.93L610.58,673.95L607.56,684.01L607.56,686.02L607.56,688.03L607.56,692.06L607.56,696.08L607.56,701.11L607.56,709.16L608.57,713.18L608.57,719.21L608.57,723.24L608.57,732.29L609.57,738.33L609.57,743.36L609.57,749.39L609.57,754.42L611.58,762.47L611.58,767.5L612.59,772.53L612.59,777.56L614.6,785.6L616.61,790.63L616.61,794.66L617.62,799.69L618.62,803.71L617.62,808.74L617.62,812.76L617.62,815.78L617.62,818.8L617.62,823.83L616.61,827.85L616.61,831.87L616.61,835.9L615.61,839.92L614.6,843.94L614.6,847.97L613.6,851.99L614.6,856.02L613.6,861.05L612.59,864.06L612.59,867.08L611.58,871.1L611.58,875.13L610.58,880.16L610.58,883.17L610.58,885.19L610.58,887.2L610.58,889.21L610.58,891.22L610.58,893.23L609.57,894.24L608.57,895.25L608.57,896.25L607.56,898.26L607.56,899.27L607.56,900.28L607.56,901.28L606.55,903.29L606.55,905.3L606.55,906.31L605.55,909.33L605.55,911.34L605.55,915.36L604.54,917.38L604.54,919.39L604.54,921.4L604.54,923.41L604.54,927.43L604.54,930.45L604.54,934.48L604.54,936.49L604.54,940.51L603.54,944.53" fill="none" stroke="#000000" style="-webkit-tap-highlight-color: rgba(0, 0, 0, 0); stroke-linecap: round; stroke-linejoin: round; stroke-width: 6;" /><path d="M619.63,877.14L619.63,874.12L619.63,871.1L620.64,870.1L622.65,870.1L625.67,871.1L635.72,877.14L637.74,879.15L645.78,885.19L650.81,889.21L656.85,892.23L661.88,896.25L669.93,903.29L675.96,907.32L683,912.35L690.04,917.38L698.09,922.4L709.16,929.45L715.19,934.48L720.22,939.5L725.25,944.53L733.3,949.56L738.33,953.59L742.35,957.61L747.38,961.63L751.4,964.65L757.44,970.69L760.46,974.71L764.48,978.73L768.5,981.75L774.54,987.79L777.56,991.81L781.58,996.84L783.59,1002.88L787.61,1007.91L790.63,1012.94L797.67,1019.98L801.7,1025.01L805.72,1029.03L808.74,1033.05L810.75,1034.06L813.77,1036.07L814.77,1038.08" fill="none" stroke="#000000" style="-webkit-tap-highlight-color: rgba(0, 0, 0, 0); stroke-linecap: round; stroke-linejoin: round; stroke-width: 6;" /><path d="M699.1,927.43L698.09,927.43L697.08,927.43L696.08,929.45L695.07,932.46L693.06,936.49L691.05,940.51L689.04,944.53L683,950.57L678.98,954.59L675.96,958.62L672.94,961.63L668.92,964.65L664.9,965.66L661.88,966.66L658.86,968.68L655.84,969.68L650.81,972.7L646.79,974.71L641.76,976.72L636.73,977.73L630.7,979.74L625.67,982.76L620.64,985.78L615.61,988.79L611.58,991.81L604.54,993.82L599.51,995.83L594.48,995.83L590.46,996.84L583.42,998.85L578.39,998.85L574.37,998.85L570.34,996.84L566.32,994.83L559.28,991.81L554.25,989.8L550.22,986.78L546.2,983.76L540.17,978.73L537.15,974.71L533.12,969.68L529.1,965.66L525.08,961.63L519.04,957.61L515.02,955.6L512,952.58L507.98,949.56L501.94,944.53L497.92,941.52L493.89,938.5L490.88,934.48L486.85,931.46L483.83,928.44L478.81,924.42L475.79,920.39L474.78,918.38L473.78,914.36L472.77,913.35" fill="none" stroke="#000000" style="-webkit-tap-highlight-color: rgba(0, 0, 0, 0); stroke-linecap: round; stroke-linejoin: round; stroke-width: 6;" /><path d="M508.98,922.4L506.97,921.4L506.97,920.39L508.98,918.38L514.01,915.36L520.05,912.35L527.09,910.33L535.14,907.32L544.19,904.3L558.27,899.27L566.32,895.25L575.37,892.23L583.42,889.21L594.48,886.19L599.51,884.18L603.54,883.17L606.55,882.17" fill="none" stroke="#000000" style="-webkit-tap-highlight-color: rgba(0, 0, 0, 0); stroke-linecap: round; stroke-linejoin: round; stroke-width: 6;" /><path d="M628.68,885.19L629.69,885.19L631.7,885.19" fill="none" stroke="#000000" style="-webkit-tap-highlight-color: rgba(0, 0, 0, 0); stroke-linecap: round; stroke-linejoin: round; stroke-width: 6;" /><path d="M492.89,920.39L490.88,921.4L486.85,924.42L479.81,930.45L474.78,933.47L468.75,935.48L461.71,937.49L455.67,939.5L444.61,942.52L437.56,944.53L425.49,948.56L422.48,949.56L410.4,953.59L403.36,956.61L395.32,961.63L387.27,966.66L378.22,972.7L363.13,982.76L343.01,993.82L337.98,996.84L332.95,999.86L318.87,1008.91L307.8,1014.95L296.74,1022.99L285.67,1029.03L274.61,1034.06L257.51,1039.09L245.44,1043.11L232.36,1049.15L221.3,1055.18L205.2,1064.24L197.16,1069.27L188.1,1073.29L181.06,1076.31L174.02,1078.32L165.97,1082.34L160.94,1084.35L158.93,1086.37L154.91,1089.38L152.9,1090.39" fill="none" stroke="#000000" style="-webkit-tap-highlight-color: rgba(0, 0, 0, 0); stroke-linecap: round; stroke-linejoin: round; stroke-width: 6;" /><path d="M298.75,476.79L295.73,475.79L293.72,476.79L288.69,477.8L282.66,479.81L275.61,482.83L261.53,487.86L252.48,489.87L243.43,491.88L226.33,497.92L222.3,499.93L213.25,501.94L206.21,502.95L199.17,504.96L193.13,504.96L187.1,505.96L184.08,507.98L182.07,508.98L179.05,512L177.04,514.01L177.04,515.02L176.03,517.03L176.03,521.05L176.03,524.07L175.03,530.11L173.01,534.13L172.01,538.15L170,542.18L168.99,546.2L167.98,550.22L167.98,555.25L167.98,558.27L168.99,562.29L170,566.32L172.01,570.34L174.02,574.37L176.03,577.38L179.05,584.42L181.06,590.46L184.08,595.49L186.09,599.51L188.1,603.54L192.13,609.57L195.14,613.6L197.16,618.62L199.17,622.65L202.18,628.68L204.2,632.71L206.21,637.74L208.22,642.77L209.23,647.8L212.24,654.84L213.25,659.87L214.26,664.9L216.27,669.93L218.28,677.97L219.28,683L221.3,689.04L222.3,693.06L223.31,698.09L225.32,703.12L227.33,710.16L228.34,714.18L229.34,718.21L231.36,722.23L232.36,725.25L233.37,727.26L236.39,730.28L238.4,732.29L245.44,739.33L246.44,739.33L247.45,741.34L250.47,743.36L253.49,745.37L255.5,746.37L259.52,746.37L263.54,746.37L267.57,746.37L274.61,743.36L279.64,741.34L284.67,739.33L289.7,737.32L296.74,735.31L301.77,735.31L305.79,734.3L309.82,733.3L313.84,731.28L318.87,728.27L322.89,726.26L325.91,725.25L328.93,724.24L334.96,723.24L339.99,722.23L345.02,722.23L351.06,721.23L356.09,721.23L364.13,720.22L369.16,720.22L373.19,718.21L376.2,716.2L381.23,713.18L384.25,710.16L386.26,708.15L389.28,706.14L391.29,703.12L393.3,699.1L396.32,692.06L398.33,686.02L400.35,679.98L404.37,668.92L407.39,662.88L410.4,657.85L412.42,652.83L413.42,648.8L414.43,644.78L415.43,637.74L415.43,632.71L415.43,628.68L415.43,623.65L414.43,618.62L413.42,615.61L412.42,614.6L410.4,611.58L409.4,608.57L407.39,604.54L406.38,601.52L404.37,598.51L402.36,593.48L397.33,587.44L390.29,579.39L388.28,577.38L386.26,575.37L382.24,572.35L375.2,567.32L371.17,565.31L366.15,561.29L358.1,557.27L353.07,554.25L348.04,550.22L344.02,547.21L339.99,544.19L336.97,540.17L329.93,532.12L325.91,526.08L322.89,520.05L319.87,510.99L318.87,504.96L316.86,499.93L315.85,493.89L314.84,488.86L312.83,484.84L311.83,478.81L309.82,473.78L306.8,469.75L302.77,464.72L293.72,457.68L290.7,454.66" fill="none" stroke="#000000" style="-webkit-tap-highlight-color: rgba(0, 0, 0, 0); stroke-linecap: round; stroke-linejoin: round; stroke-width: 6;" /><path d="M7.04,152.9L7.04,151.89L8.05,150.88L11.06,149.88L19.11,148.87L26.15,147.87L33.19,146.86L41.24,144.85L53.31,140.83L63.37,135.8L74.44,129.76L84.5,121.71L94.55,114.67L109.64,103.61L118.7,95.56L127.75,88.52L136.8,81.48L148.87,73.43L157.93,68.4L166.98,63.37L176.03,58.34L184.08,51.3L192.13,44.26L202.18,36.21L210.23,31.18L217.27,27.16L229.34,19.11L237.39,14.08L245.44,8.05L253.49,2.01" fill="none" stroke="#000000" style="-webkit-tap-highlight-color: rgba(0, 0, 0, 0); stroke-linecap: round; stroke-linejoin: round; stroke-width: 6;" /><path d="M649.81,888.2" fill="none" stroke="#000000" style="-webkit-tap-highlight-color: rgba(0, 0, 0, 0); stroke-linecap: round; stroke-linejoin: round; stroke-width: 6;" /><path d="M615.61,877.14L615.61,876.13L616.61,876.13L622.65,879.15L625.67,881.16L629.69,884.18L632.71,887.2L638.74,894.24L642.77,898.26L645.78,903.29L649.81,906.31L652.83,910.33L658.86,916.37L661.88,920.39L665.9,924.42L669.93,929.45L673.95,936.49L676.97,940.51L679.98,943.53L683,946.55L685.01,948.56L688.03,951.58L689.04,952.58" fill="none" stroke="#000000" style="-webkit-tap-highlight-color: rgba(0, 0, 0, 0); stroke-linecap: round; stroke-linejoin: round; stroke-width: 6;" /><path d="M875.13,10.06L874.12,8.05L876.13,11.06L881.16,16.09L886.19,21.12L894.24,28.17L900.28,33.19L905.3,37.22L911.34,44.26L922.4,58.34L931.46,67.39L940.51,75.44L949.56,81.48L957.61,86.51L971.69,91.54L980.75,94.55L990.81,95.56L1000.86,97.57L1017.96,98.58" fill="none" stroke="#000000" style="-webkit-tap-highlight-color: rgba(0, 0, 0, 0); stroke-linecap: round; stroke-linejoin: round; stroke-width: 6;" /></svg>