<?xml version="1.0" encoding="utf-8" ?>
<svg baseProfile="full" height="1401" version="1.1" width="1024" xmlns="http://www.w3.org/2000/svg" xmlns:ev="http://www.w3.org/2001/xml-events" xmlns:xlink="http://www.w3.org/1999/xlink"><defs /><path d="M477.25,74.6L476.23,76.65L475.21,78.69L474.19,82.78L474.19,85.84L473.17,89.93L470.1,95.04L468.06,100.15L463.97,107.31L460.9,112.42L457.84,117.52L453.75,125.7L449.66,131.83L446.59,138.99L443.53,146.14L441.49,153.29L439.44,156.36L434.33,167.6L432.29,173.73L430.24,180.89L428.2,187.02L425.13,194.17L424.11,198.26L422.07,202.35L420.02,204.39L416.96,207.46L411.85,216.65L409.8,223.81L406.74,229.94L403.67,236.07L399.58,243.23L396.52,247.31L394.48,251.4L392.43,256.51L389.37,261.62L383.23,268.77L380.17,272.86L376.08,276.95L374.04,281.04L371.99,283.08L366.88,289.21L365.86,291.26L359.73,297.39L357.68,299.43L353.6,305.56L350.53,309.65L347.47,312.72L346.44,313.74L341.33,322.94L338.27,328.05L336.22,332.14L333.16,336.22L331.11,340.31L328.05,346.44L324.98,354.62L322.94,360.75L320.89,364.84L316.81,371.99L314.76,376.08L312.72,379.15L309.65,383.23L307.61,387.32L305.56,392.43L300.46,400.61L298.41,405.72L295.35,409.8L291.26,415.94L288.19,420.02L285.13,423.09L282.06,426.16L278.99,430.24L269.8,446.59L268.77,448.64L267.75,450.68L264.69,454.77L260.6,459.88L258.55,461.92L256.51,463.97L253.45,466.01L251.4,469.08L249.36,472.14L248.34,474.19L247.31,475.21L245.27,476.23L245.27,477.25L244.25,478.28L244.25,479.3L244.25,480.32L243.23,481.34" fill="none" stroke="#000000" style="-webkit-tap-highlight-color: rgba(0, 0, 0, 0); stroke-linecap: round; stroke-linejoin: round; stroke-width: 7;" /><path d="M239.14,489.52L241.18,492.58L242.2,497.69L241.18,506.89L241.18,510.98L239.14,525.29L238.12,534.48L238.12,547.77L237.09,554.92L237.09,564.12L238.12,573.32L238.12,586.6L238.12,593.76L238.12,600.91L238.12,608.06L238.12,613.17L239.14,621.35L239.14,627.48L239.14,633.61L239.14,638.72L239.14,645.88L239.14,649.96L239.14,655.07L239.14,661.21L240.16,667.34L241.18,675.51L241.18,680.62L241.18,685.73L241.18,691.86L241.18,700.04L241.18,710.26L241.18,717.41L240.16,725.59L239.14,732.74L239.14,734.79L239.14,743.98L238.12,753.18L238.12,760.34L237.09,769.53L236.07,772.6L235.05,779.75L235.05,786.91L234.03,796.1L233.01,804.28L231.98,809.39L229.94,823.7L229.94,826.76L228.92,842.09L228.92,846.18L228.92,858.44L228.92,867.64L228.92,875.82L228.92,883.99L229.94,890.12L229.94,898.3L230.96,903.41L230.96,908.52L231.98,914.65L231.98,921.8L231.98,928.96L231.98,935.09L233.01,940.2L233.01,946.33L233.01,951.44L233.01,956.55L233.01,962.68L234.03,968.81L235.05,973.92L236.07,980.06L237.09,986.19L238.12,992.32L238.12,998.45L239.14,1010.71L240.16,1017.87L241.18,1024L242.2,1030.13L242.2,1036.26L242.2,1042.4L242.2,1052.61L242.2,1059.77L241.18,1065.9L240.16,1074.08L239.14,1079.19L239.14,1086.34L238.12,1093.49L237.09,1100.65L237.09,1106.78L237.09,1115.98L237.09,1119.04L236.07,1126.2L236.07,1132.33L235.05,1138.46L235.05,1148.68L235.05,1155.83L235.05,1161.96L234.03,1169.12L234.03,1179.34L233.01,1182.4L234.03,1191.6L234.03,1194.67L234.03,1204.89L234.03,1207.95L234.03,1217.15L234.03,1234.52L234.03,1237.59L233.01,1242.7L233.01,1244.74L230.96,1252.92L229.94,1258.03L228.92,1262.12L228.92,1265.18L227.9,1270.29L227.9,1274.38L225.85,1281.53L224.83,1286.64L224.83,1288.69L223.81,1291.75L223.81,1293.8L223.81,1294.82" fill="none" stroke="#000000" style="-webkit-tap-highlight-color: rgba(0, 0, 0, 0); stroke-linecap: round; stroke-linejoin: round; stroke-width: 7;" /><path d="M21.46,1307.08L18.4,1307.08L16.35,1309.13L17.37,1309.13L21.46,1309.13L28.61,1309.13L36.79,1309.13L45.99,1308.1L62.34,1308.1L74.6,1307.08L85.84,1307.08L104.24,1306.06L114.46,1306.06L124.68,1306.06L134.9,1306.06L146.14,1306.06L156.36,1307.08L170.67,1307.08L178.84,1308.1L187.02,1309.13L198.26,1308.1L206.44,1307.08L212.57,1306.06L218.7,1304.02L224.83,1301.97L230.96,1299.93L242.2,1296.86L248.34,1294.82L252.42,1292.77L256.51,1290.73L261.62,1287.66L263.66,1286.64L264.69,1284.6L266.73,1283.58L267.75,1279.49L268.77,1275.4L269.8,1274.38L271.84,1272.34L274.91,1271.31L280.02,1271.31L283.08,1270.29L285.13,1269.27L287.17,1267.23L289.21,1265.18L290.24,1263.14" fill="none" stroke="#000000" style="-webkit-tap-highlight-color: rgba(0, 0, 0, 0); stroke-linecap: round; stroke-linejoin: round; stroke-width: 7;" /><path d="M515.07,99.13L514.04,95.04L512,93L509.96,91.98L507.91,91.98L503.82,91.98" fill="none" stroke="#000000" style="-webkit-tap-highlight-color: rgba(0, 0, 0, 0); stroke-linecap: round; stroke-linejoin: round; stroke-width: 7;" /><path d="M475.21,91.98L475.21,90.95L476.23,90.95L477.25,90.95L479.3,90.95L481.34,91.98L483.39,94.02L485.43,95.04L488.5,98.11L491.56,101.17L493.6,103.22L496.67,107.31L497.69,111.39L498.71,114.46L498.71,118.55L499.74,122.63L500.76,126.72L501.78,132.85L503.82,137.96L504.85,142.05L507.91,148.18L508.93,153.29L510.98,156.36L513.02,159.43L514.04,162.49L516.09,166.58L520.18,171.69L523.24,175.78L527.33,178.84L530.4,183.95L533.46,188.04L535.5,191.11L538.57,195.19L541.64,199.28L543.68,202.35L546.75,206.44L549.81,214.61L552.88,218.7L556.97,228.92L559.01,230.96L561.05,235.05L563.1,239.14L565.14,243.23L568.21,249.36L570.25,253.45L572.3,256.51L574.34,260.6L577.41,264.69L580.47,267.75L581.49,271.84L583.54,275.93L584.56,280.02L586.6,284.1L589.67,289.21L591.71,293.3L593.76,296.37L595.8,299.43L597.84,306.59L599.89,309.65L601.93,314.76L603.98,319.87L606.02,324.98L610.11,332.14L612.15,337.25L614.2,342.36L616.24,347.47L620.33,354.62L623.39,359.73L626.46,363.82L628.5,368.93L630.55,374.04L632.59,381.19L633.61,386.3L635.66,390.39L636.68,395.5L639.74,401.63L641.79,406.74L643.83,411.85L645.88,416.96L647.92,422.07L652.01,429.22L655.07,434.33L657.12,438.42L660.18,443.53L663.25,451.7L666.32,456.81L668.36,461.92L670.4,466.01L672.45,470.1L674.49,477.25L676.53,481.34L677.56,486.45L679.6,490.54L681.64,496.67L683.69,498.71L684.71,501.78L686.75,503.82L687.78,505.87L691.86,509.96L691.86,510.98L692.89,512L693.91,514.04L695.95,517.11L696.97,517.11L698,519.15L698,521.2" fill="none" stroke="#000000" style="-webkit-tap-highlight-color: rgba(0, 0, 0, 0); stroke-linecap: round; stroke-linejoin: round; stroke-width: 7;" /><path d="M704.13,533.46L702.08,529.37L702.08,528.35L701.06,528.35L700.04,529.37L700.04,530.4L700.04,532.44L700.04,536.53L700.04,541.64L699.02,548.79L698,562.08L698,572.3L698,582.51L698,590.69L696.97,603.98L695.95,612.15L695.95,624.42L695.95,627.48L694.93,634.63L693.91,645.88L693.91,652.01L693.91,660.18L692.89,668.36L691.86,678.58L690.84,686.75L689.82,694.93L688.8,702.08L687.78,712.3L686.75,726.61L685.73,735.81L684.71,743.98L683.69,754.2L682.67,769.53L681.64,784.86L681.64,788.95L681.64,798.15L681.64,808.37L680.62,820.63L680.62,828.81L680.62,836.98L679.6,844.14L679.6,855.38L678.58,863.55L678.58,870.71L678.58,878.88L678.58,888.08L678.58,896.26L679.6,907.5L679.6,914.65L680.62,921.8L680.62,929.98L680.62,940.2L681.64,947.35L681.64,954.51L681.64,960.64L681.64,965.75L681.64,974.95L682.67,981.08L682.67,988.23L683.69,997.43L684.71,1004.58L685.73,1012.76L686.75,1018.89L687.78,1026.04L688.8,1033.2L690.84,1043.42L690.84,1049.55L690.84,1056.7L689.82,1063.86L689.82,1073.05L688.8,1079.19L688.8,1084.3L688.8,1089.41L687.78,1094.51L687.78,1102.69L687.78,1108.82L686.75,1122.11L686.75,1128.24L685.73,1134.37L684.71,1140.5L683.69,1147.66L683.69,1153.79L682.67,1164.01L682.67,1170.14L682.67,1178.32L682.67,1184.45L682.67,1194.67L683.69,1201.82L682.67,1208.97L682.67,1216.13L682.67,1222.26L681.64,1234.52L681.64,1241.68L682.67,1249.85L682.67,1257.01L682.67,1265.18L682.67,1271.31L682.67,1275.4L682.67,1280.51L682.67,1283.58L682.67,1290.73L682.67,1294.82L682.67,1297.88L682.67,1301.97L682.67,1306.06L682.67,1309.13L683.69,1311.17L685.73,1314.24L686.75,1317.3L689.82,1321.39L690.84,1323.43L692.89,1325.48L693.91,1326.5L695.95,1327.52L696.97,1328.54L699.02,1329.56L702.08,1329.56L707.19,1330.59L716.39,1330.59L723.54,1330.59L729.68,1331.61L736.83,1331.61L746.03,1331.61L755.23,1331.61L763.4,1330.59L768.51,1330.59L774.64,1331.61L783.84,1333.65L787.93,1334.67L794.06,1334.67L800.19,1333.65L810.41,1331.61L816.54,1331.61L823.7,1330.59L831.87,1331.61L851.29,1327.52" fill="none" stroke="#000000" style="-webkit-tap-highlight-color: rgba(0, 0, 0, 0); stroke-linecap: round; stroke-linejoin: round; stroke-width: 7;" /><path d="M863.55,1321.39L862.53,1321.39L864.57,1321.39L866.62,1322.41L869.68,1322.41L873.77,1322.41L879.9,1322.41L885.01,1322.41L890.12,1322.41L894.21,1322.41L898.3,1323.43L903.41,1326.5L907.5,1327.52L910.56,1329.56L913.63,1332.63L919.76,1340.81L921.8,1341.83L922.83,1343.87L926.91,1347.96L932.02,1353.07L936.11,1357.16L940.2,1363.29L944.29,1368.4L952.46,1376.57L957.57,1381.68L963.7,1386.79L971.88,1393.95L979.03,1400.08" fill="none" stroke="#000000" style="-webkit-tap-highlight-color: rgba(0, 0, 0, 0); stroke-linecap: round; stroke-linejoin: round; stroke-width: 7;" /><path d="M903.41,105.26L904.43,107.31L904.43,111.39L905.45,117.52L905.45,123.66L905.45,126.72L905.45,143.07L905.45,152.27L903.41,161.47L903.41,165.56L901.37,177.82L901.37,186L901.37,194.17L901.37,209.5L902.39,220.74L903.41,237.09L903.41,246.29L903.41,256.51L903.41,265.71L903.41,274.91L902.39,283.08L900.34,298.41L899.32,308.63L897.28,319.87L896.26,334.18L894.21,347.47L893.19,358.71L892.17,387.32L891.15,394.48L891.15,406.74L891.15,413.89L891.15,424.11L890.12,431.27L890.12,436.38L889.1,442.51L889.1,448.64L887.06,457.84L887.06,463.97L886.04,471.12L886.04,477.25L885.01,483.39L885.01,494.63L885.01,501.78L883.99,508.93L883.99,517.11L883.99,525.29L883.99,536.53L883.99,542.66L883.99,548.79L883.99,556.97L885.01,563.1L886.04,568.21L887.06,573.32L888.08,578.43L889.1,582.51L890.12,588.65L890.12,593.76L890.12,598.87L891.15,602.95L891.15,611.13L892.17,616.24L892.17,621.35L893.19,627.48L894.21,632.59L895.23,641.79L896.26,647.92L896.26,655.07L896.26,663.25L896.26,668.36L896.26,673.47L896.26,679.6L896.26,684.71L897.28,691.86L897.28,701.06L897.28,707.19L896.26,713.33L896.26,719.46L896.26,728.65L895.23,733.76L895.23,739.9L895.23,746.03L895.23,751.14L894.21,760.34L895.23,766.47L895.23,772.6L896.26,790.99L896.26,794.06L896.26,797.13L897.28,805.3L898.3,812.46L898.3,818.59L899.32,828.81L899.32,835.96L899.32,843.11L899.32,850.27L898.3,858.44L898.3,864.57L897.28,870.71L896.26,876.84L895.23,882.97L895.23,892.17L894.21,897.28L894.21,902.39L894.21,907.5L894.21,916.69L894.21,920.78L894.21,925.89L895.23,931L895.23,936.11L895.23,944.29L895.23,949.4L894.21,954.51L894.21,959.62L893.19,968.81L893.19,974.95L892.17,980.06L892.17,986.19L892.17,992.32L891.15,1000.5L891.15,1004.58L891.15,1009.69L890.12,1014.8L890.12,1020.93L889.1,1025.02L888.08,1030.13L887.06,1035.24L887.06,1041.37L886.04,1048.53L886.04,1053.64L886.04,1058.75L886.04,1063.86L887.06,1072.03L887.06,1078.16L887.06,1083.27L888.08,1088.38L888.08,1093.49L889.1,1100.65L889.1,1105.76L889.1,1109.84L889.1,1114.95L888.08,1123.13L888.08,1128.24L887.06,1132.33L887.06,1138.46L887.06,1143.57L886.04,1165.03L886.04,1173.21L886.04,1176.27L886.04,1180.36L886.04,1186.49L887.06,1192.62L887.06,1198.75L887.06,1203.86L887.06,1210L887.06,1218.17L887.06,1224.3L887.06,1230.44L886.04,1237.59L886.04,1243.72L885.01,1252.92L883.99,1259.05L882.97,1264.16L881.95,1270.29L880.93,1275.4L878.88,1281.53L877.86,1285.62L876.84,1290.73L876.84,1298.91L876.84,1306.06L878.88,1310.15L880.93,1316.28L882.97,1320.37L883.99,1323.43L883.99,1324.46L882.97,1323.43" fill="none" stroke="#000000" style="-webkit-tap-highlight-color: rgba(0, 0, 0, 0); stroke-linecap: round; stroke-linejoin: round; stroke-width: 7;" /><path d="M503.82,71.54L504.85,70.51L504.85,69.49L506.89,68.47L508.93,67.45L510.98,67.45L514.04,68.47L519.15,69.49L520.18,69.49L521.2,70.51L519.15,68.47L517.11,68.47L512,67.45L504.85,66.43L498.71,67.45L493.6,67.45L486.45,68.47L479.3,68.47L474.19,69.49L471.12,69.49L463.97,70.51L458.86,69.49L458.86,70.51L462.95,71.54L468.06,71.54L478.28,72.56L487.47,73.58L497.69,75.62L509.96,76.65L531.42,77.67L545.72,77.67L560.03,78.69L573.32,79.71L588.65,80.73L603.98,79.71L628.5,79.71L642.81,79.71L656.1,81.76L668.36,85.84L685.73,88.91L698,90.95L710.26,91.98L721.5,93L732.74,93L749.09,93L759.31,93L768.51,93L779.75,93L794.06,94.02L804.28,95.04L813.48,95.04L822.67,95.04L830.85,95.04L843.11,96.06L850.27,97.09L857.42,97.09L863.55,97.09L870.71,98.11L873.77,98.11L876.84,98.11L878.88,99.13L879.9,99.13L880.93,99.13L881.95,99.13L886.04,101.17L888.08,102.2L891.15,102.2L893.19,103.22L895.23,104.24L898.3,104.24L900.34,104.24L901.37,104.24L902.39,103.22L906.48,97.09L908.52,94.02L913.63,88.91L919.76,80.73L933.05,65.41L948.38,45.99" fill="none" stroke="#000000" style="-webkit-tap-highlight-color: rgba(0, 0, 0, 0); stroke-linecap: round; stroke-linejoin: round; stroke-width: 7;" /><path d="M458.86,320.89L458.86,321.92L457.84,326L456.81,329.07L454.77,332.14L450.68,341.33L447.62,347.47L445.57,353.6L442.51,361.77L438.42,367.9L435.35,373.01L431.27,380.17L428.2,385.28L425.13,389.37L422.07,398.56L420.02,404.69L417.98,409.8L416.96,413.89L414.91,419L412.87,423.09L409.8,428.2L407.76,434.33L404.69,439.44L402.65,444.55L398.56,451.7L394.48,456.81L391.41,461.92L388.34,466.01L385.28,471.12L381.19,478.28L378.12,483.39L375.06,489.52L371.99,494.63L367.9,501.78L364.84,506.89L361.77,513.02L359.73,519.15L356.66,524.26L352.57,531.42L348.49,537.55L346.44,539.59L344.4,543.68L340.31,547.77L338.27,551.86L335.2,554.92L332.14,557.99L330.09,562.08L324.98,567.19L322.94,571.27L319.87,575.36L317.83,579.45L313.74,584.56L311.7,587.62L309.65,590.69L306.59,593.76L303.52,596.82L300.46,600.91L298.41,603.98L296.37,607.04L295.35,610.11L293.3,615.22L292.28,618.28" fill="none" stroke="#000000" style="-webkit-tap-highlight-color: rgba(0, 0, 0, 0); stroke-linecap: round; stroke-linejoin: round; stroke-width: 7;" /><path d="M248.34,497.69L248.34,498.71L249.36,499.74L249.36,500.76L251.4,503.82L253.45,507.91L257.53,514.04L260.6,519.15L263.66,523.24L268.77,531.42L270.82,534.48L275.93,543.68L278.99,548.79L282.06,553.9L284.1,556.97L287.17,564.12L288.19,568.21L290.24,572.3L290.24,575.36L291.26,579.45L292.28,582.51L292.28,586.6L293.3,587.62L293.3,589.67L294.32,593.76L294.32,595.8L295.35,597.84L295.35,598.87L295.35,600.91L296.37,601.93L296.37,602.95" fill="none" stroke="#000000" style="-webkit-tap-highlight-color: rgba(0, 0, 0, 0); stroke-linecap: round; stroke-linejoin: round; stroke-width: 7;" /><path d="M283.08,598.87L283.08,597.84L283.08,598.87L282.06,599.89L281.04,601.93L280.02,607.04L278.99,613.17L277.97,621.35L277.97,627.48L277.97,633.61L277.97,646.9L277.97,650.99L276.95,659.16L275.93,666.32L274.91,673.47L273.88,680.62L273.88,688.8L272.86,693.91L272.86,700.04L272.86,708.22L272.86,713.33L273.88,717.41L273.88,720.48L273.88,723.54L273.88,725.59L274.91,730.7L274.91,734.79L274.91,739.9L275.93,741.94L276.95,746.03L277.97,749.09L278.99,752.16L278.99,756.25L280.02,759.31L281.04,764.42L281.04,768.51L282.06,772.6L282.06,776.69L283.08,783.84L284.1,788.95L284.1,793.04L285.13,797.13L285.13,801.21L285.13,805.3L285.13,807.35L285.13,811.43L285.13,814.5L286.15,816.54L286.15,817.56L286.15,818.59L286.15,821.65L286.15,822.67L287.17,824.72L287.17,826.76L288.19,828.81L288.19,830.85L288.19,833.92L288.19,836.98L287.17,842.09L287.17,847.2L287.17,851.29L287.17,855.38L287.17,862.53L287.17,867.64L287.17,872.75L288.19,877.86L288.19,883.99L289.21,893.19L289.21,895.23L289.21,900.34L289.21,905.45L290.24,912.61L290.24,917.72L290.24,921.8L290.24,925.89L290.24,931L290.24,937.13L290.24,940.2L290.24,944.29L290.24,949.4L289.21,956.55L289.21,960.64L289.21,965.75L289.21,970.86L289.21,976.99L290.24,983.12L290.24,987.21L290.24,992.32L289.21,996.41L289.21,1003.56L289.21,1007.65L289.21,1012.76L288.19,1017.87L288.19,1022.98L287.17,1030.13L286.15,1035.24L285.13,1040.35L284.1,1045.46L283.08,1052.61L282.06,1058.75L281.04,1064.88L281.04,1069.99L280.02,1076.12L278.99,1085.32L277.97,1089.41L276.95,1094.51L275.93,1098.6L275.93,1105.76L274.91,1109.84L274.91,1113.93L273.88,1118.02L273.88,1122.11L273.88,1127.22L272.86,1133.35L272.86,1137.44L271.84,1141.52L271.84,1146.63L270.82,1152.77L269.8,1156.85L268.77,1160.94L268.77,1166.05L268.77,1171.16L267.75,1177.29L267.75,1181.38L266.73,1185.47L265.71,1190.58L265.71,1193.64L266.73,1195.69L266.73,1196.71L266.73,1198.75L266.73,1199.78L267.75,1199.78L268.77,1198.75L269.8,1198.75L270.82,1198.75L270.82,1197.73L271.84,1197.73L272.86,1196.71L274.91,1196.71L276.95,1195.69L278.99,1194.67L284.1,1193.64L288.19,1191.6L292.28,1189.56L300.46,1184.45L306.59,1182.4L310.67,1180.36L318.85,1177.29" fill="none" stroke="#000000" style="-webkit-tap-highlight-color: rgba(0, 0, 0, 0); stroke-linecap: round; stroke-linejoin: round; stroke-width: 7;" /><path d="M277.97,1218.17L274.91,1220.22" fill="none" stroke="#000000" style="-webkit-tap-highlight-color: rgba(0, 0, 0, 0); stroke-linecap: round; stroke-linejoin: round; stroke-width: 7;" /><path d="M264.69,1205.91L265.71,1202.84L265.71,1204.89L265.71,1207.95L264.69,1212.04L263.66,1216.13L261.62,1220.22L258.55,1227.37L256.51,1232.48L253.45,1237.59L250.38,1242.7L246.29,1250.87L243.23,1257.01L240.16,1262.12L237.09,1267.23L234.03,1272.34L229.94,1281.53L226.87,1287.66L223.81,1293.8L219.72,1299.93L214.61,1306.06L212.57,1309.13" fill="none" stroke="#000000" style="-webkit-tap-highlight-color: rgba(0, 0, 0, 0); stroke-linecap: round; stroke-linejoin: round; stroke-width: 7;" /><path d="M330.09,635.66L330.09,634.63L330.09,633.61L329.07,632.59L328.05,631.57L329.07,635.66L330.09,639.74L332.14,643.83L335.2,652.01L337.25,657.12L338.27,663.25L340.31,668.36L341.33,672.45L342.36,676.53L343.38,681.64L344.4,683.69L345.42,686.75L346.44,689.82L346.44,691.86L346.44,693.91L346.44,694.93L346.44,695.95L346.44,696.97L346.44,698L346.44,700.04L346.44,702.08L345.42,702.08L345.42,703.11L343.38,702.08L340.31,702.08L336.22,701.06L333.16,700.04L329.07,699.02L324.98,696.97L319.87,694.93L316.81,692.89L314.76,691.86L313.74,690.84L312.72,691.86L311.7,691.86L310.67,691.86L310.67,692.89L310.67,693.91L310.67,695.95L311.7,699.02L311.7,702.08L312.72,704.13L313.74,708.22L314.76,711.28L314.76,715.37L314.76,718.44L314.76,722.52L315.78,728.65L315.78,733.76L315.78,735.81L315.78,739.9L315.78,742.96L315.78,746.03L315.78,749.09L315.78,752.16L315.78,756.25L315.78,759.31L315.78,760.34L315.78,761.36L315.78,762.38L314.76,765.45L314.76,766.47L314.76,768.51L313.74,770.55L314.76,773.62L314.76,775.66L314.76,776.69L314.76,777.71L314.76,779.75L313.74,778.73L311.7,777.71L309.65,776.69L308.63,774.64L306.59,772.6L305.56,771.58L303.52,770.55L302.5,769.53L301.48,769.53L300.46,768.51L299.43,767.49L297.39,766.47L295.35,764.42L294.32,762.38L292.28,761.36L291.26,759.31L290.24,759.31" fill="none" stroke="#000000" style="-webkit-tap-highlight-color: rgba(0, 0, 0, 0); stroke-linecap: round; stroke-linejoin: round; stroke-width: 7;" /><path d="M285.13,812.46L284.1,812.46L284.1,814.5L284.1,816.54L286.15,819.61L288.19,822.67L289.21,825.74L291.26,828.81L293.3,831.87L295.35,835.96L298.41,839.03L300.46,840.05L303.52,841.07L304.54,841.07L307.61,841.07" fill="none" stroke="#000000" style="-webkit-tap-highlight-color: rgba(0, 0, 0, 0); stroke-linecap: round; stroke-linejoin: round; stroke-width: 7;" /><path d="M313.74,771.58L314.76,771.58L314.76,772.6L315.78,775.66L315.78,780.77L315.78,785.88L315.78,789.97L314.76,799.17L313.74,805.3L313.74,812.46L313.74,818.59L314.76,827.78L314.76,831.87L314.76,835.96L314.76,841.07L315.78,846.18L315.78,853.33L315.78,857.42L315.78,861.51L315.78,869.68L316.81,874.79L316.81,878.88L316.81,885.01L317.83,890.12L317.83,894.21L317.83,900.34L317.83,904.43L317.83,907.5L317.83,911.58L317.83,915.67L317.83,917.72L317.83,920.78L317.83,923.85L316.81,927.94L316.81,933.05L315.78,936.11L315.78,940.2L315.78,943.27L314.76,947.35L314.76,950.42L314.76,954.51L314.76,958.59L314.76,961.66L314.76,966.77L313.74,970.86L313.74,974.95L313.74,980.06L314.76,986.19L313.74,990.28L313.74,995.39L313.74,1000.5L313.74,1005.6L313.74,1011.74L313.74,1015.82L312.72,1019.91L312.72,1025.02L311.7,1030.13L311.7,1033.2L310.67,1038.31L310.67,1041.37L309.65,1045.46L309.65,1050.57L309.65,1053.64L308.63,1056.7L308.63,1059.77L309.65,1064.88L308.63,1067.94L308.63,1069.99L308.63,1073.05L308.63,1076.12L308.63,1079.19L308.63,1082.25L308.63,1085.32L308.63,1087.36L308.63,1091.45L307.61,1093.49L307.61,1096.56L307.61,1099.62L307.61,1102.69L307.61,1107.8L307.61,1109.84L307.61,1112.91L307.61,1117L308.63,1122.11L308.63,1125.17L309.65,1129.26L309.65,1133.35L309.65,1135.39L309.65,1140.5L309.65,1143.57L309.65,1146.63L309.65,1149.7L309.65,1152.77L309.65,1155.83L309.65,1157.88L310.67,1160.94L310.67,1164.01L310.67,1168.1L310.67,1171.16L310.67,1174.23L310.67,1177.29L309.65,1182.4L309.65,1185.47L309.65,1189.56L307.61,1192.62" fill="none" stroke="#000000" style="-webkit-tap-highlight-color: rgba(0, 0, 0, 0); stroke-linecap: round; stroke-linejoin: round; stroke-width: 7;" /><path d="M327.03,624.42L326,625.44L324.98,626.46L323.96,626.46L323.96,627.48L324.98,627.48L329.07,629.52L338.27,629.52L346.44,629.52L355.64,629.52L366.88,631.57L383.23,632.59L394.48,633.61L406.74,633.61L419,632.59L429.22,630.55L441.49,630.55L449.66,631.57L456.81,632.59L463.97,633.61L475.21,634.63L481.34,635.66L488.5,636.68L493.6,637.7L498.71,638.72L507.91,638.72L513.02,638.72L520.18,639.74L523.24,639.74L530.4,640.77L534.48,641.79L538.57,642.81L542.66,642.81L545.72,642.81L549.81,642.81L550.83,641.79L552.88,641.79L553.9,640.77L553.9,641.79L553.9,643.83L552.88,645.88L552.88,648.94L551.86,652.01L549.81,655.07L547.77,660.18L545.72,664.27L543.68,668.36L541.64,672.45L539.59,675.51L535.5,680.62L534.48,682.67L532.44,685.73L530.4,688.8L528.35,692.89L527.33,694.93L526.31,698L525.29,700.04L524.26,701.06L524.26,702.08L523.24,703.11L523.24,704.13L524.26,706.17L525.29,706.17L527.33,708.22L529.37,708.22L531.42,709.24L537.55,710.26L540.61,708.22L544.7,709.24L549.81,710.26L552.88,710.26L555.94,711.28L560.03,712.3L561.05,712.3L563.1,712.3L565.14,713.33L566.16,713.33L566.16,714.35L567.19,715.37L568.21,716.39L568.21,717.41L568.21,719.46L569.23,721.5L568.21,724.57L568.21,725.59L568.21,727.63L567.19,729.68L566.16,731.72L565.14,733.76L564.12,735.81L564.12,736.83L563.1,738.87L562.08,740.92L562.08,742.96L562.08,743.98L562.08,746.03L562.08,747.05L563.1,749.09L563.1,751.14L564.12,752.16L564.12,755.23L565.14,758.29L566.16,761.36L567.19,763.4L568.21,766.47L568.21,767.49L569.23,771.58L569.23,774.64L570.25,776.69L570.25,779.75L570.25,781.8L571.27,784.86L571.27,785.88L571.27,787.93L571.27,789.97L572.3,792.02L573.32,795.08L573.32,796.1L575.36,797.13L576.38,799.17L577.41,800.19L578.43,801.21L579.45,803.26L580.47,803.26L581.49,804.28L582.51,806.32L582.51,807.35L583.54,808.37L584.56,811.43L584.56,812.46L585.58,813.48L586.6,815.52L586.6,816.54L587.62,818.59L587.62,821.65L587.62,823.7L587.62,826.76L586.6,829.83L586.6,830.85L586.6,831.87L586.6,833.92L586.6,835.96L586.6,836.98L585.58,838L585.58,839.03L585.58,841.07L584.56,842.09L583.54,844.14L583.54,845.16L583.54,846.18L583.54,847.2L584.56,848.22" fill="none" stroke="#000000" style="-webkit-tap-highlight-color: rgba(0, 0, 0, 0); stroke-linecap: round; stroke-linejoin: round; stroke-width: 7;" /><path d="M582.51,828.81L583.54,828.81L583.54,829.83L584.56,829.83L585.58,830.85L585.58,832.89L584.56,833.92L582.51,838L580.47,839.03L578.43,841.07L576.38,843.11L574.34,846.18L571.27,849.25L570.25,851.29L567.19,853.33L565.14,854.36L561.05,856.4L559.01,858.44L556.97,860.49L555.94,861.51L554.92,863.55L553.9,866.62L552.88,868.66L552.88,869.68L551.86,871.73L551.86,874.79L552.88,877.86L552.88,881.95L553.9,886.04L553.9,891.15L554.92,898.3L554.92,903.41L554.92,910.56L554.92,915.67L554.92,924.87L554.92,929.98L554.92,936.11L554.92,941.22L553.9,946.33L553.9,953.49L554.92,958.59L554.92,962.68L554.92,967.79L555.94,975.97L555.94,980.06L555.94,985.17L556.97,989.25L556.97,993.34L557.99,999.47L559.01,1004.58L560.03,1015.82L560.03,1018.89L561.05,1024L562.08,1030.13L563.1,1035.24L564.12,1040.35L565.14,1046.48L565.14,1050.57L566.16,1058.75L566.16,1064.88L566.16,1069.99L565.14,1076.12L565.14,1083.27L564.12,1089.41L562.08,1099.62L562.08,1101.67L562.08,1104.73L562.08,1106.78L561.05,1112.91L561.05,1117L561.05,1123.13L560.03,1127.22L560.03,1131.31L560.03,1134.37L560.03,1138.46L560.03,1142.55L559.01,1149.7L559.01,1152.77L559.01,1156.85L557.99,1160.94L557.99,1165.03L557.99,1168.1L557.99,1172.18L557.99,1176.27L557.99,1179.34" fill="none" stroke="#000000" style="-webkit-tap-highlight-color: rgba(0, 0, 0, 0); stroke-linecap: round; stroke-linejoin: round; stroke-width: 7;" /><path d="M443.53,332.14L445.57,332.14L450.68,332.14L452.73,332.14L453.75,332.14L455.79,333.16L457.84,336.22L459.88,340.31L461.92,343.38L463.97,347.47L466.01,351.55L469.08,357.68L472.14,362.79L475.21,367.9L477.25,374.04L481.34,384.26L484.41,389.37L487.47,395.5L490.54,399.58L493.6,403.67L496.67,413.89L498.71,420.02L501.78,426.16L503.82,431.27L505.87,439.44L507.91,444.55L508.93,448.64L509.96,453.75L512,458.86L515.07,463.97L517.11,467.03L519.15,470.1L521.2,474.19L524.26,479.3L526.31,481.34L529.37,485.43L530.4,488.5L532.44,493.6L534.48,497.69L538.57,503.82L540.61,507.91L541.64,512L544.7,519.15L546.75,524.26L548.79,528.35L549.81,532.44L551.86,537.55L554.92,544.7L555.94,546.75L556.97,549.81L559.01,553.9L561.05,557.99L562.08,561.05L564.12,564.12L565.14,568.21L566.16,571.27L569.23,577.41L570.25,580.47L572.3,584.56L574.34,587.62L577.41,592.73L579.45,595.8L581.49,598.87L583.54,601.93L584.56,605L586.6,609.09L588.65,611.13L589.67,614.2L590.69,617.26L593.76,622.37L594.78,626.46L596.82,628.5L598.87,631.57L599.89,633.61L601.93,636.68L602.95,638.72L602.95,639.74L603.98,639.74L603.98,640.77L605,643.83L606.02,644.85L606.02,645.88L606.02,646.9L607.04,646.9L607.04,648.94L607.04,649.96L607.04,652.01L606.02,655.07L606.02,657.12L606.02,658.14L606.02,660.18L606.02,664.27L606.02,670.4L607.04,674.49L607.04,679.6L607.04,683.69L607.04,691.86L607.04,698L606.02,705.15L606.02,711.28L606.02,716.39L605,725.59L603.98,729.68L602.95,735.81L601.93,742.96L600.91,751.14L600.91,753.18L599.89,759.31L599.89,764.42L599.89,771.58L599.89,777.71L599.89,783.84L599.89,789.97L598.87,801.21L598.87,808.37L598.87,815.52L598.87,823.7L597.84,830.85L597.84,838L596.82,848.22L596.82,854.36L596.82,860.49L596.82,870.71L596.82,876.84L595.8,882.97L595.8,891.15L595.8,899.32L594.78,906.48L594.78,917.72L594.78,923.85L593.76,928.96L593.76,936.11L593.76,940.2L593.76,944.29L593.76,948.38L593.76,952.46L593.76,956.55L594.78,961.66L594.78,966.77L593.76,970.86L593.76,975.97L593.76,982.1L592.73,987.21L592.73,991.3L591.71,995.39L590.69,999.47L590.69,1006.63L590.69,1011.74L590.69,1016.85L589.67,1021.96L589.67,1028.09L589.67,1032.18L589.67,1037.29L589.67,1042.4L590.69,1046.48L590.69,1053.64L590.69,1058.75L590.69,1063.86L589.67,1068.97L588.65,1077.14L587.62,1082.25L587.62,1088.38L587.62,1093.49L587.62,1098.6L587.62,1104.73L587.62,1111.89L588.65,1114.95L588.65,1119.04L586.6,1125.17L586.6,1130.28L586.6,1134.37L587.62,1138.46L588.65,1142.55L588.65,1147.66L589.67,1151.74L588.65,1154.81L588.65,1157.88L588.65,1160.94L588.65,1164.01L588.65,1167.07L587.62,1168.1L587.62,1170.14L586.6,1171.16L586.6,1172.18L586.6,1173.21L585.58,1175.25L585.58,1176.27L584.56,1177.29L584.56,1178.32L584.56,1179.34L584.56,1181.38L584.56,1183.43L584.56,1184.45L584.56,1185.47L584.56,1186.49L585.58,1186.49L586.6,1187.51L589.67,1188.53L591.71,1189.56L593.76,1190.58L598.87,1193.64L601.93,1195.69L605,1197.73L607.04,1199.78L610.11,1201.82L614.2,1204.89L617.26,1206.93L621.35,1208.97L624.42,1212.04L627.48,1215.11L629.52,1218.17L632.59,1220.22L636.68,1226.35L637.7,1228.39L640.77,1231.46L642.81,1235.54L644.85,1238.61L646.9,1242.7L648.94,1247.81L650.99,1251.9L652.01,1255.98L654.05,1260.07L656.1,1263.14L658.14,1266.2L659.16,1270.29L661.21,1274.38L662.23,1277.45L666.32,1281.53L668.36,1284.6L671.43,1287.66L673.47,1290.73L677.56,1294.82L682.67,1301.97L686.75,1306.06L688.8,1307.08L691.86,1308.1L692.89,1309.13" fill="none" stroke="#000000" style="-webkit-tap-highlight-color: rgba(0, 0, 0, 0); stroke-linecap: round; stroke-linejoin: round; stroke-width: 7;" /><path d="M561.05,1171.16L560.03,1171.16L559.01,1171.16L557.99,1172.18L556.97,1172.18L555.94,1173.21L557.99,1174.23L559.01,1175.25L560.03,1175.25L566.16,1177.29L570.25,1177.29L572.3,1177.29L576.38,1177.29L580.47,1176.27L582.51,1175.25L584.56,1175.25L585.58,1175.25L586.6,1174.23L586.6,1173.21" fill="none" stroke="#000000" style="-webkit-tap-highlight-color: rgba(0, 0, 0, 0); stroke-linecap: round; stroke-linejoin: round; stroke-width: 7;" /><path d="M547.77,894.21L547.77,895.23L548.79,896.26L549.81,897.28L549.81,898.3L550.83,901.37L550.83,905.45L551.86,910.56L551.86,914.65L551.86,923.85L550.83,929.98L550.83,936.11L549.81,942.24L548.79,949.4L547.77,962.68L546.75,968.81L545.72,971.88L544.7,978.01L543.68,987.21L543.68,994.36L542.66,1001.52L542.66,1007.65L542.66,1013.78L542.66,1020.93L542.66,1024L542.66,1028.09L542.66,1032.18L543.68,1037.29L542.66,1041.37L542.66,1044.44L541.64,1048.53L541.64,1051.59L542.66,1058.75L542.66,1062.83L542.66,1065.9L541.64,1068.97L541.64,1075.1L540.61,1079.19L540.61,1083.27L539.59,1088.38L539.59,1091.45L538.57,1097.58L538.57,1099.62L538.57,1103.71L538.57,1107.8L538.57,1112.91L537.55,1117L537.55,1121.09L536.53,1125.17L536.53,1129.26L536.53,1134.37L536.53,1138.46L537.55,1141.52L537.55,1145.61L538.57,1148.68L538.57,1150.72L537.55,1152.77L537.55,1155.83L537.55,1156.85L537.55,1158.9L538.57,1162.99L538.57,1164.01L538.57,1165.03L539.59,1167.07L540.61,1168.1L540.61,1169.12L541.64,1170.14L542.66,1171.16L543.68,1173.21L545.72,1174.23L547.77,1175.25L550.83,1177.29L557.99,1181.38L563.1,1183.43L568.21,1184.45L573.32,1184.45" fill="none" stroke="#000000" style="-webkit-tap-highlight-color: rgba(0, 0, 0, 0); stroke-linecap: round; stroke-linejoin: round; stroke-width: 7;" /><path d="M328.05,965.75L326,964.73L324.98,966.77L324.98,967.79L326,971.88L327.03,978.01L328.05,983.12L328.05,988.23L329.07,992.32L330.09,999.47L331.11,1004.58L332.14,1007.65L333.16,1010.71L335.2,1013.78L336.22,1014.8L338.27,1016.85L340.31,1018.89L341.33,1019.91L343.38,1021.96L345.42,1025.02L348.49,1029.11L350.53,1031.15L350.53,1032.18L351.55,1034.22L352.57,1036.26L353.6,1038.31L353.6,1041.37L353.6,1044.44L353.6,1046.48L354.62,1049.55L354.62,1051.59L355.64,1055.68L355.64,1059.77L355.64,1063.86L355.64,1066.92L356.66,1069.99L356.66,1072.03L356.66,1077.14L356.66,1080.21L356.66,1083.27L356.66,1088.38L356.66,1091.45L356.66,1092.47L357.68,1094.51L357.68,1095.54" fill="none" stroke="#000000" style="-webkit-tap-highlight-color: rgba(0, 0, 0, 0); stroke-linecap: round; stroke-linejoin: round; stroke-width: 7;" /><path d="M314.76,1032.18L314.76,1033.2L315.78,1034.22L315.78,1035.24L316.81,1035.24L319.87,1035.24L322.94,1035.24L327.03,1035.24L330.09,1035.24L334.18,1034.22L336.22,1034.22L338.27,1035.24L341.33,1036.26L343.38,1037.29" fill="none" stroke="#000000" style="-webkit-tap-highlight-color: rgba(0, 0, 0, 0); stroke-linecap: round; stroke-linejoin: round; stroke-width: 7;" /><path d="M319.87,1099.62L320.89,1099.62L321.92,1098.6L323.96,1098.6L324.98,1097.58L327.03,1096.56L329.07,1095.54L330.09,1094.51L333.16,1095.54L335.2,1096.56L338.27,1098.6L342.36,1100.65L344.4,1101.67L346.44,1102.69L347.47,1102.69L350.53,1101.67L353.6,1100.65L354.62,1099.62L357.68,1097.58" fill="none" stroke="#000000" style="-webkit-tap-highlight-color: rgba(0, 0, 0, 0); stroke-linecap: round; stroke-linejoin: round; stroke-width: 7;" /><path d="M373.01,1021.96L371.99,1020.93L371.99,1019.91L371.99,1017.87L374.04,1016.85L376.08,1015.82L380.17,1016.85L385.28,1016.85L393.45,1015.82L399.58,1016.85L406.74,1017.87L413.89,1019.91L426.16,1020.93L433.31,1020.93L440.46,1021.96L447.62,1021.96L454.77,1021.96L463.97,1021.96L469.08,1022.98L475.21,1024L480.32,1025.02L488.5,1028.09L494.63,1029.11L500.76,1030.13L505.87,1032.18L510.98,1033.2L517.11,1035.24L522.22,1036.26L527.33,1037.29L531.42,1038.31L538.57,1040.35L543.68,1042.4L548.79,1042.4L553.9,1043.42L554.92,1043.42" fill="none" stroke="#000000" style="-webkit-tap-highlight-color: rgba(0, 0, 0, 0); stroke-linecap: round; stroke-linejoin: round; stroke-width: 7;" /></svg>