<?xml version="1.0" encoding="utf-8" ?>
<svg baseProfile="full" height="1401" version="1.1" width="1024" xmlns="http://www.w3.org/2000/svg" xmlns:ev="http://www.w3.org/2001/xml-events" xmlns:xlink="http://www.w3.org/1999/xlink"><defs /><path d="M491.92,77.8L489.41,77.8L486.9,80.31L484.39,82.82L484.39,85.33L481.88,87.84L479.37,92.86L476.86,100.39L474.35,107.92L471.84,112.94L469.33,117.96L466.82,125.49L461.8,130.51L459.29,138.04L454.27,145.57L451.76,153.1L449.25,158.12L446.75,165.65L444.24,170.67L441.73,178.2L436.71,185.73L434.2,193.25L431.69,198.27L429.18,205.8L424.16,210.82L421.65,218.35L419.14,223.37L416.63,228.39L411.61,233.41L409.1,238.43L406.59,243.45L401.57,250.98L399.06,256L396.55,261.02L391.53,268.55L389.02,276.08L386.51,281.1L381.49,286.12L378.98,291.14L373.96,296.16L371.45,301.18L366.43,306.2L363.92,313.73L358.9,318.75L353.88,326.27L348.86,333.8L343.84,341.33L338.82,346.35L333.8,353.88L331.29,358.9L328.78,366.43L323.76,371.45L321.25,376.47L318.75,381.49L313.73,389.02L308.71,396.55L303.69,404.08L298.67,411.61L293.65,419.14L288.63,426.67L283.61,434.2L278.59,444.24L273.57,451.76L271.06,459.29L266.04,464.31L263.53,471.84L261.02,476.86L258.51,479.37L256,484.39L253.49,486.9L250.98,491.92L248.47,494.43L248.47,496.94L245.96,496.94L245.96,499.45L245.96,501.96L245.96,504.47L245.96,506.98L245.96,512L245.96,519.53L245.96,524.55L245.96,532.08L245.96,539.61L245.96,547.14L245.96,554.67L245.96,564.71L245.96,569.73L245.96,579.76L245.96,589.8L245.96,597.33L245.96,604.86L245.96,614.9L245.96,624.94L245.96,632.47L245.96,642.51L248.47,647.53L248.47,655.06L248.47,662.59L250.98,670.12L250.98,675.14L250.98,682.67L250.98,690.2L250.98,697.73L250.98,705.25L250.98,710.27L250.98,720.31L248.47,727.84L248.47,735.37L248.47,742.9L248.47,750.43L245.96,757.96L245.96,765.49L245.96,775.53L245.96,783.06L243.45,790.59L243.45,798.12L243.45,808.16L243.45,815.69L243.45,823.22L243.45,833.25L240.94,840.78L240.94,848.31L240.94,855.84L240.94,863.37L238.43,873.41L238.43,883.45L238.43,896L235.92,906.04L235.92,916.08L233.41,926.12L233.41,933.65L230.9,943.69L230.9,953.73L230.9,963.76L230.9,971.29L230.9,978.82L230.9,986.35L230.9,993.88L230.9,1001.41L230.9,1008.94L230.9,1016.47L230.9,1024L230.9,1034.04L230.9,1041.57L230.9,1049.1L230.9,1056.63L230.9,1064.16L230.9,1071.69L230.9,1079.22L230.9,1089.25L228.39,1096.78L228.39,1101.8L228.39,1109.33L228.39,1116.86L228.39,1124.39L225.88,1131.92L225.88,1139.45L225.88,1146.98L225.88,1157.02L225.88,1164.55L225.88,1169.57L223.37,1174.59L223.37,1182.12L223.37,1187.14L223.37,1194.67L223.37,1202.2L223.37,1207.22L223.37,1212.24L223.37,1219.76L225.88,1224.78L225.88,1229.8L225.88,1234.82L225.88,1239.84L225.88,1244.86L225.88,1249.88L223.37,1252.39L223.37,1257.41L223.37,1259.92L223.37,1264.94L223.37,1269.96L223.37,1274.98L223.37,1277.49L223.37,1282.51L223.37,1285.02L220.86,1287.53L220.86,1290.04L220.86,1292.55L220.86,1295.06L218.35,1297.57L220.86,1292.55" fill="none" stroke="#000000" style="-webkit-tap-highlight-color: rgba(0, 0, 0, 0); stroke-linecap: round; stroke-linejoin: round; stroke-width: 7;" /><path d="M489.41,92.86L489.41,90.35L489.41,87.84L489.41,85.33L489.41,82.82L489.41,80.31L489.41,85.33L491.92,90.35L491.92,95.37L496.94,100.39L499.45,107.92L501.96,115.45L504.47,120.47L509.49,128L514.51,135.53L517.02,140.55L519.53,148.08L522.04,155.61L524.55,163.14L527.06,168.16L529.57,175.69L532.08,183.22L534.59,190.75L537.1,198.27L539.61,203.29L542.12,210.82L544.63,215.84L547.14,220.86L549.65,225.88L552.16,228.39L554.67,233.41L559.69,238.43L562.2,243.45L564.71,250.98L567.22,256L569.73,261.02L572.24,266.04L574.75,271.06L579.76,276.08L582.27,281.1L584.78,283.61L587.29,288.63L589.8,293.65L592.31,298.67L594.82,303.69L597.33,308.71L599.84,313.73L604.86,321.25L607.37,328.78L609.88,336.31L612.39,343.84L617.41,351.37L622.43,358.9L624.94,366.43L629.96,371.45L632.47,376.47L637.49,381.49L640,386.51L642.51,389.02L647.53,394.04L650.04,399.06L652.55,404.08L657.57,406.59L660.08,414.12L665.1,419.14L667.61,424.16L672.63,429.18L675.14,434.2L680.16,439.22L682.67,444.24L685.18,449.25L687.69,454.27L690.2,459.29L692.71,464.31L695.22,469.33L697.73,471.84L700.24,476.86L700.24,481.88L702.75,484.39L705.25,489.41L705.25,494.43L707.76,496.94L707.76,501.96L710.27,506.98L710.27,509.49" fill="none" stroke="#000000" style="-webkit-tap-highlight-color: rgba(0, 0, 0, 0); stroke-linecap: round; stroke-linejoin: round; stroke-width: 7;" /><path d="M705.25,514.51L705.25,512L702.75,519.53L700.24,527.06L697.73,537.1L695.22,547.14L695.22,557.18L692.71,567.22L692.71,577.25L692.71,584.78L692.71,594.82L692.71,604.86L690.2,614.9L690.2,624.94L687.69,632.47L687.69,640L685.18,650.04L685.18,657.57L685.18,667.61L685.18,677.65L685.18,685.18L685.18,692.71L685.18,705.25L685.18,717.8L685.18,727.84L685.18,737.88L685.18,745.41L685.18,757.96L685.18,768L685.18,775.53L685.18,785.57L685.18,798.12L685.18,810.67L685.18,823.22L682.67,830.75L682.67,840.78L682.67,850.82L682.67,858.35L682.67,868.39L682.67,878.43L682.67,885.96L680.16,896L680.16,903.53L680.16,913.57L680.16,923.61L680.16,931.14L677.65,941.18L677.65,953.73L677.65,966.27L677.65,976.31L677.65,988.86L677.65,1003.92L677.65,1016.47L677.65,1029.02L677.65,1041.57L677.65,1054.12L677.65,1066.67L675.14,1079.22L675.14,1091.76L675.14,1101.8L675.14,1114.35L672.63,1124.39L672.63,1136.94L672.63,1149.49L672.63,1159.53L672.63,1169.57L675.14,1179.61L675.14,1189.65L675.14,1197.18L675.14,1204.71L675.14,1214.75L677.65,1224.78L677.65,1232.31L677.65,1242.35L677.65,1249.88L680.16,1257.41L680.16,1264.94L682.67,1269.96L682.67,1274.98L682.67,1280L682.67,1290.04L682.67,1300.08L682.67,1310.12L682.67,1320.16L682.67,1325.18L682.67,1327.69L685.18,1320.16" fill="none" stroke="#000000" style="-webkit-tap-highlight-color: rgba(0, 0, 0, 0); stroke-linecap: round; stroke-linejoin: round; stroke-width: 7;" /><path d="M921.1,7.53L918.59,7.53L918.59,12.55L918.59,20.08L916.08,27.61L916.08,37.65L913.57,47.69L911.06,57.73L911.06,67.76L911.06,77.8L911.06,87.84L911.06,100.39L911.06,107.92L911.06,117.96L908.55,128L908.55,140.55L908.55,153.1L908.55,163.14L908.55,170.67L908.55,180.71L908.55,190.75L908.55,200.78L908.55,213.33L908.55,223.37L906.04,235.92L906.04,248.47L906.04,263.53L903.53,276.08L903.53,288.63L903.53,301.18L903.53,311.22L903.53,321.25L903.53,333.8L903.53,343.84L903.53,353.88L903.53,363.92L903.53,373.96L903.53,386.51L903.53,396.55L903.53,406.59L903.53,419.14L903.53,431.69L903.53,444.24L903.53,456.78L901.02,466.82L901.02,479.37L901.02,494.43L901.02,504.47L901.02,506.98" fill="none" stroke="#000000" style="-webkit-tap-highlight-color: rgba(0, 0, 0, 0); stroke-linecap: round; stroke-linejoin: round; stroke-width: 7;" /><path d="M898.51,542.12L898.51,554.67L898.51,564.71L898.51,574.75L898.51,584.78L898.51,594.82L898.51,604.86L898.51,617.41L898.51,629.96L898.51,640L898.51,650.04L898.51,660.08L898.51,670.12L898.51,677.65L898.51,690.2L898.51,700.24L898.51,710.27L898.51,720.31L898.51,730.35L898.51,737.88L898.51,747.92L898.51,755.45L898.51,765.49L898.51,775.53L898.51,785.57L896,798.12L896,808.16L893.49,820.71L890.98,830.75L890.98,840.78L888.47,850.82L888.47,858.35L888.47,868.39L885.96,878.43L885.96,888.47L885.96,898.51L883.45,908.55L880.94,918.59L878.43,933.65L875.92,946.2L875.92,956.24L873.41,966.27L873.41,976.31L873.41,986.35L870.9,996.39L870.9,1003.92L870.9,1013.96L870.9,1024L870.9,1039.06L870.9,1054.12L870.9,1069.18L870.9,1084.24L870.9,1096.78L870.9,1109.33L870.9,1121.88L870.9,1131.92L870.9,1141.96L870.9,1154.51L870.9,1164.55L873.41,1172.08L873.41,1182.12L875.92,1192.16L878.43,1202.2L878.43,1212.24L878.43,1219.76L878.43,1229.8L878.43,1239.84L880.94,1244.86L880.94,1252.39L880.94,1257.41L880.94,1264.94L880.94,1272.47L883.45,1280L883.45,1287.53L883.45,1295.06L885.96,1302.59L885.96,1310.12L888.47,1312.63L888.47,1315.14L890.98,1307.61" fill="none" stroke="#000000" style="-webkit-tap-highlight-color: rgba(0, 0, 0, 0); stroke-linecap: round; stroke-linejoin: round; stroke-width: 7;" /><path d="M690.2,1322.67L690.2,1320.16L687.69,1320.16L687.69,1317.65L690.2,1317.65L695.22,1317.65L702.75,1317.65L712.78,1315.14L722.82,1315.14L730.35,1315.14L740.39,1315.14L750.43,1312.63L760.47,1312.63L773.02,1312.63L783.06,1312.63L793.1,1310.12L798.12,1310.12L805.65,1310.12L813.18,1310.12L818.2,1310.12L828.24,1310.12L835.76,1310.12L840.78,1310.12L845.8,1310.12L853.33,1310.12L858.35,1310.12L863.37,1310.12L868.39,1310.12L870.9,1310.12L873.41,1312.63L875.92,1312.63L878.43,1315.14L878.43,1317.65L880.94,1320.16L883.45,1322.67L885.96,1325.18L888.47,1330.2L893.49,1332.71L898.51,1337.73L903.53,1342.75L906.04,1347.76L911.06,1352.78L913.57,1355.29L918.59,1362.82L923.61,1365.33L931.14,1367.84L933.65,1370.35L936.16,1375.37L941.18,1377.88L943.69,1380.39L948.71,1382.9L953.73,1387.92L961.25,1390.43L971.29,1392.94L978.82,1395.45L991.37,1400.47L996.39,1400.47" fill="none" stroke="#000000" style="-webkit-tap-highlight-color: rgba(0, 0, 0, 0); stroke-linecap: round; stroke-linejoin: round; stroke-width: 7;" /><path d="M17.57,1312.63L17.57,1310.12L15.06,1310.12L17.57,1310.12L25.1,1307.61L32.63,1307.61L40.16,1307.61L52.71,1310.12L62.75,1310.12L72.78,1312.63L82.82,1312.63L90.35,1315.14L100.39,1317.65L107.92,1317.65L117.96,1317.65L125.49,1317.65L130.51,1317.65L138.04,1317.65L143.06,1317.65L148.08,1320.16L153.1,1320.16L160.63,1320.16L165.65,1320.16L168.16,1320.16L173.18,1320.16L178.2,1320.16L183.22,1317.65L188.24,1317.65L190.75,1317.65L193.25,1317.65L198.27,1317.65L203.29,1317.65L205.8,1320.16L208.31,1320.16L215.84,1317.65L220.86,1312.63L228.39,1310.12L230.9,1310.12" fill="none" stroke="#000000" style="-webkit-tap-highlight-color: rgba(0, 0, 0, 0); stroke-linecap: round; stroke-linejoin: round; stroke-width: 7;" /><path d="M469.33,313.73L466.82,313.73L464.31,318.75L461.8,321.25L459.29,326.27L456.78,333.8L451.76,338.82L446.75,346.35L441.73,353.88L436.71,358.9L431.69,366.43L429.18,376.47L424.16,384L421.65,391.53L416.63,399.06L414.12,404.08L409.1,411.61L406.59,416.63L401.57,421.65L399.06,429.18L394.04,434.2L389.02,441.73L386.51,446.75L381.49,451.76L378.98,456.78L376.47,464.31L373.96,471.84L371.45,476.86L368.94,484.39L363.92,489.41L358.9,499.45L356.39,509.49L351.37,517.02L346.35,522.04L343.84,527.06L341.33,532.08L336.31,537.1L333.8,544.63L331.29,549.65L328.78,557.18L326.27,559.69L323.76,567.22L321.25,574.75L316.24,579.76L313.73,587.29L311.22,592.31L306.2,597.33L303.69,599.84L301.18,604.86L298.67,609.88L296.16,614.9L293.65,619.92L291.14,624.94L288.63,627.45L291.14,627.45" fill="none" stroke="#000000" style="-webkit-tap-highlight-color: rgba(0, 0, 0, 0); stroke-linecap: round; stroke-linejoin: round; stroke-width: 7;" /><path d="M469.33,316.24L469.33,313.73L469.33,321.25L471.84,331.29L474.35,338.82L476.86,346.35L481.88,361.41L484.39,368.94L486.9,376.47L491.92,384L494.43,391.53L496.94,399.06L499.45,404.08L504.47,411.61L506.98,419.14L509.49,426.67L514.51,436.71L517.02,444.24L519.53,451.76L522.04,461.8L524.55,469.33L527.06,476.86L529.57,486.9L532.08,494.43L534.59,504.47L534.59,514.51L537.1,522.04L537.1,532.08L539.61,539.61L542.12,547.14L544.63,552.16L547.14,557.18L549.65,564.71L552.16,569.73L554.67,574.75L557.18,577.25L559.69,582.27L562.2,587.29L564.71,592.31L567.22,597.33L569.73,602.35L572.24,604.86L574.75,609.88L577.25,617.41L579.76,622.43L582.27,627.45L584.78,632.47L584.78,634.98L587.29,640L589.8,645.02L589.8,650.04" fill="none" stroke="#000000" style="-webkit-tap-highlight-color: rgba(0, 0, 0, 0); stroke-linecap: round; stroke-linejoin: round; stroke-width: 7;" /><path d="M594.82,624.94L592.31,624.94L592.31,629.96L592.31,634.98L592.31,642.51L592.31,652.55L592.31,665.1L592.31,675.14L592.31,685.18L594.82,695.22L594.82,705.25L594.82,715.29L597.33,722.82L597.33,732.86L597.33,742.9L597.33,750.43L597.33,757.96L599.84,765.49L599.84,770.51L599.84,778.04L599.84,785.57L599.84,793.1L599.84,800.63L599.84,808.16L599.84,815.69L602.35,823.22L602.35,828.24L602.35,835.76L602.35,845.8L602.35,853.33L599.84,860.86L599.84,870.9L599.84,878.43L599.84,888.47L599.84,898.51L599.84,908.55L597.33,918.59L597.33,928.63L597.33,936.16L597.33,946.2L597.33,953.73L597.33,961.25L597.33,968.78L594.82,973.8L594.82,981.33L594.82,988.86L594.82,996.39L594.82,1003.92L594.82,1011.45L594.82,1021.49L594.82,1029.02L594.82,1039.06L594.82,1046.59L594.82,1056.63L594.82,1066.67L594.82,1076.71L594.82,1084.24L594.82,1091.76L594.82,1096.78L594.82,1104.31L594.82,1106.82L594.82,1111.84L594.82,1116.86L594.82,1121.88L594.82,1126.9L592.31,1131.92L592.31,1134.43L592.31,1139.45L592.31,1144.47L592.31,1152L592.31,1157.02L592.31,1164.55L592.31,1172.08L589.8,1179.61L589.8,1187.14L592.31,1192.16L594.82,1192.16" fill="none" stroke="#000000" style="-webkit-tap-highlight-color: rgba(0, 0, 0, 0); stroke-linecap: round; stroke-linejoin: round; stroke-width: 7;" /><path d="M288.63,617.41L286.12,617.41L286.12,622.43L286.12,629.96L286.12,637.49L286.12,645.02L286.12,652.55L286.12,662.59L286.12,672.63L288.63,680.16L288.63,690.2L291.14,697.73L291.14,710.27L291.14,717.8L291.14,727.84L291.14,737.88L291.14,747.92L291.14,760.47L288.63,770.51L288.63,778.04L288.63,788.08L288.63,795.61L288.63,805.65L288.63,815.69L288.63,825.73L288.63,833.25L288.63,843.29L288.63,853.33L288.63,860.86L288.63,868.39L288.63,875.92L288.63,885.96L288.63,896L288.63,903.53L288.63,911.06L288.63,918.59L288.63,926.12L288.63,933.65L288.63,941.18L288.63,948.71L288.63,958.75L288.63,966.27L288.63,971.29L288.63,978.82L288.63,986.35L288.63,993.88L288.63,1001.41L286.12,1011.45L286.12,1018.98L283.61,1026.51L283.61,1034.04L283.61,1041.57L281.1,1046.59L281.1,1054.12L281.1,1061.65L281.1,1069.18L278.59,1076.71L278.59,1086.75L276.08,1091.76L276.08,1099.29L276.08,1104.31L273.57,1109.33L273.57,1114.35L273.57,1119.37L273.57,1124.39L273.57,1131.92L271.06,1144.47L271.06,1154.51L271.06,1164.55L268.55,1172.08L268.55,1177.1L268.55,1184.63L268.55,1189.65L268.55,1197.18L268.55,1204.71L268.55,1207.22L268.55,1209.73L268.55,1212.24L268.55,1214.75L268.55,1219.76L268.55,1222.27L268.55,1224.78" fill="none" stroke="#000000" style="-webkit-tap-highlight-color: rgba(0, 0, 0, 0); stroke-linecap: round; stroke-linejoin: round; stroke-width: 7;" /><path d="M215.84,1315.14L215.84,1317.65L215.84,1315.14L215.84,1310.12L218.35,1307.61L223.37,1305.1L225.88,1300.08L230.9,1295.06L235.92,1287.53L238.43,1282.51L240.94,1277.49L243.45,1272.47L245.96,1267.45L248.47,1259.92L250.98,1249.88L253.49,1239.84L256,1232.31L258.51,1224.78L263.53,1219.76L266.04,1214.75" fill="none" stroke="#000000" style="-webkit-tap-highlight-color: rgba(0, 0, 0, 0); stroke-linecap: round; stroke-linejoin: round; stroke-width: 7;" /><path d="M336.31,640L336.31,645.02L336.31,650.04L333.8,662.59L331.29,685.18L331.29,695.22L331.29,707.76L331.29,717.8L331.29,727.84L331.29,737.88L328.78,745.41L328.78,752.94L328.78,762.98L328.78,770.51L328.78,778.04L328.78,785.57L326.27,790.59L326.27,798.12L326.27,805.65L326.27,813.18L326.27,818.2L326.27,825.73L326.27,830.75L326.27,835.76L323.76,840.78L323.76,848.31L323.76,853.33L323.76,860.86L323.76,865.88L323.76,873.41L321.25,880.94L321.25,885.96L321.25,893.49L321.25,901.02L321.25,908.55L321.25,913.57L321.25,921.1L321.25,928.63L321.25,936.16L321.25,941.18L321.25,948.71L321.25,953.73L321.25,961.25L321.25,966.27L318.75,971.29L318.75,978.82L318.75,983.84L318.75,991.37L318.75,1001.41L318.75,1011.45L316.24,1018.98L316.24,1029.02L316.24,1036.55L316.24,1046.59L316.24,1056.63L316.24,1064.16L316.24,1071.69L316.24,1084.24L316.24,1091.76L313.73,1099.29L313.73,1104.31L313.73,1111.84L313.73,1116.86L313.73,1121.88L313.73,1126.9L311.22,1129.41L311.22,1134.43L311.22,1141.96L311.22,1146.98L311.22,1154.51L311.22,1159.53L311.22,1164.55L311.22,1169.57L311.22,1177.1L311.22,1179.61L311.22,1184.63L311.22,1187.14L308.71,1187.14L308.71,1189.65L306.2,1192.16L303.69,1194.67L298.67,1197.18L296.16,1199.69L291.14,1202.2L283.61,1204.71L278.59,1204.71L273.57,1207.22L271.06,1209.73L268.55,1209.73L271.06,1207.22" fill="none" stroke="#000000" style="-webkit-tap-highlight-color: rgba(0, 0, 0, 0); stroke-linecap: round; stroke-linejoin: round; stroke-width: 7;" /><path d="M338.82,634.98L336.31,634.98L338.82,634.98L341.33,637.49L346.35,640L348.86,642.51L353.88,642.51L361.41,642.51L366.43,642.51L373.96,640L378.98,640L384,640L389.02,640L396.55,640L401.57,640L406.59,640L411.61,642.51L416.63,642.51L421.65,642.51L426.67,642.51L434.2,642.51L439.22,642.51L441.73,642.51L446.75,642.51L454.27,642.51L464.31,640L469.33,640L471.84,640L476.86,640L479.37,640L481.88,640L486.9,640L489.41,640L491.92,640L496.94,642.51L499.45,642.51L504.47,642.51L506.98,642.51L509.49,642.51L512,642.51L517.02,642.51L519.53,642.51L522.04,642.51L524.55,642.51L527.06,642.51L529.57,642.51L532.08,642.51L534.59,642.51L537.1,642.51L539.61,642.51L542.12,642.51L544.63,645.02L547.14,645.02L549.65,645.02L552.16,645.02L554.67,645.02L557.18,645.02" fill="none" stroke="#000000" style="-webkit-tap-highlight-color: rgba(0, 0, 0, 0); stroke-linecap: round; stroke-linejoin: round; stroke-width: 7;" /><path d="M564.71,640L562.2,645.02L562.2,647.53L559.69,650.04L559.69,652.55L557.18,660.08L557.18,667.61L554.67,672.63L549.65,680.16L547.14,687.69L544.63,692.71L542.12,697.73L537.1,700.24L534.59,705.25L532.08,707.76L532.08,710.27L529.57,712.78L529.57,715.29L527.06,717.8L527.06,720.31L527.06,722.82L529.57,725.33L534.59,725.33L537.1,725.33L542.12,725.33L544.63,722.82L547.14,722.82L549.65,722.82L552.16,720.31L552.16,722.82L554.67,727.84L554.67,730.35L554.67,735.37L554.67,740.39L554.67,745.41L554.67,750.43L554.67,755.45L554.67,760.47L557.18,765.49L557.18,770.51L557.18,773.02L559.69,778.04L559.69,780.55L559.69,785.57L562.2,790.59L564.71,795.61L564.71,798.12L567.22,803.14L569.73,805.65L569.73,810.67L569.73,815.69L572.24,818.2L572.24,820.71L572.24,823.22L572.24,825.73L572.24,828.24L572.24,833.25L572.24,835.76L569.73,838.27L569.73,843.29L567.22,845.8L567.22,848.31L564.71,850.82L562.2,853.33L562.2,855.84L559.69,858.35L557.18,860.86L557.18,863.37L557.18,865.88L557.18,868.39L557.18,873.41L557.18,875.92L557.18,878.43L557.18,883.45L557.18,888.47L557.18,890.98L557.18,896L557.18,901.02L557.18,906.04L557.18,911.06L557.18,916.08L557.18,921.1L557.18,926.12L557.18,931.14L557.18,938.67L557.18,946.2L557.18,953.73L557.18,961.25L557.18,971.29L557.18,978.82L557.18,988.86L557.18,1001.41L557.18,1011.45L557.18,1021.49L557.18,1034.04L557.18,1044.08L557.18,1051.61L557.18,1061.65L557.18,1069.18L559.69,1079.22L559.69,1086.75L559.69,1096.78L559.69,1101.8L559.69,1109.33L559.69,1116.86L559.69,1121.88L559.69,1129.41L559.69,1136.94L559.69,1141.96L559.69,1149.49L559.69,1154.51L559.69,1162.04L557.18,1167.06L557.18,1172.08L557.18,1174.59L554.67,1177.1L554.67,1179.61L554.67,1182.12L554.67,1184.63L554.67,1187.14L557.18,1187.14L562.2,1189.65L564.71,1189.65L569.73,1189.65L572.24,1189.65L577.25,1187.14L582.27,1184.63L584.78,1182.12L589.8,1182.12" fill="none" stroke="#000000" style="-webkit-tap-highlight-color: rgba(0, 0, 0, 0); stroke-linecap: round; stroke-linejoin: round; stroke-width: 7;" /><path d="M592.31,1179.61L587.29,1177.1L587.29,1182.12L594.82,1194.67L599.84,1202.2L602.35,1212.24L607.37,1219.76L614.9,1229.8L619.92,1237.33L624.94,1244.86L629.96,1252.39L634.98,1257.41L640,1264.94L645.02,1272.47L647.53,1280L652.55,1285.02L655.06,1290.04L660.08,1295.06L665.1,1302.59L667.61,1310.12L675.14,1320.16L677.65,1327.69L682.67,1330.2L687.69,1327.69L687.69,1325.18" fill="none" stroke="#000000" style="-webkit-tap-highlight-color: rgba(0, 0, 0, 0); stroke-linecap: round; stroke-linejoin: round; stroke-width: 7;" /><path d="M491.92,87.84L491.92,85.33L489.41,85.33L486.9,87.84L486.9,90.35L484.39,92.86L484.39,100.39L481.88,105.41L481.88,112.94L481.88,117.96L481.88,125.49L481.88,130.51L481.88,138.04L479.37,145.57L479.37,150.59L479.37,158.12L479.37,163.14L479.37,168.16L479.37,175.69L479.37,180.71L476.86,185.73L476.86,193.25L476.86,198.27L474.35,203.29L474.35,208.31L474.35,215.84L471.84,223.37L471.84,228.39L469.33,235.92L469.33,240.94L469.33,248.47L469.33,253.49L466.82,261.02L466.82,266.04L466.82,271.06L466.82,276.08L466.82,281.1L466.82,286.12L466.82,291.14L466.82,296.16L466.82,301.18L466.82,306.2L466.82,308.71L466.82,313.73L466.82,318.75L466.82,323.76L466.82,326.27L464.31,328.78" fill="none" stroke="#000000" style="-webkit-tap-highlight-color: rgba(0, 0, 0, 0); stroke-linecap: round; stroke-linejoin: round; stroke-width: 7;" /><path d="M597.33,629.96L594.82,629.96L592.31,629.96L589.8,632.47L594.82,624.94L599.84,619.92L607.37,609.88L617.41,599.84L624.94,589.8L632.47,579.76L642.51,569.73L652.55,562.2L660.08,552.16L667.61,544.63L675.14,542.12L680.16,537.1L685.18,532.08L690.2,524.55L692.71,519.53L695.22,514.51L697.73,512L702.75,506.98L705.25,504.47L710.27,504.47" fill="none" stroke="#000000" style="-webkit-tap-highlight-color: rgba(0, 0, 0, 0); stroke-linecap: round; stroke-linejoin: round; stroke-width: 7;" /><path d="M258.51,496.94L253.49,496.94L250.98,496.94L248.47,496.94L248.47,499.45L248.47,504.47L250.98,506.98L250.98,512L253.49,514.51L253.49,519.53L256,527.06L256,532.08L258.51,537.1L258.51,542.12L261.02,547.14L261.02,552.16L263.53,554.67L263.53,559.69L266.04,564.71L266.04,569.73L268.55,574.75L271.06,579.76L271.06,582.27L273.57,587.29L276.08,589.8L276.08,594.82L278.59,597.33L278.59,602.35L281.1,607.37L281.1,609.88L283.61,614.9L286.12,619.92L286.12,622.43L288.63,627.45L291.14,629.96L291.14,632.47L291.14,634.98L293.65,637.49" fill="none" stroke="#000000" style="-webkit-tap-highlight-color: rgba(0, 0, 0, 0); stroke-linecap: round; stroke-linejoin: round; stroke-width: 7;" /></svg>