<?xml version="1.0" encoding="utf-8" ?>
<svg baseProfile="full" height="758" version="1.1" width="1024" xmlns="http://www.w3.org/2000/svg" xmlns:ev="http://www.w3.org/2001/xml-events" xmlns:xlink="http://www.w3.org/1999/xlink"><defs /><path d="M10.86,232.48L9.05,232.48L7.24,232.48L5.43,232.48L3.62,232.48L0,234.29" fill="none" stroke="#000000" style="-webkit-tap-highlight-color: rgba(0, 0, 0, 0); stroke-linecap: round; stroke-linejoin: round; stroke-width: 5;" /><path d="M0,239.72L5.43,237.91L9.05,234.29L12.66,232.48L16.28,227.05L19.9,223.43L23.52,221.63L27.14,219.82L28.95,219.82L30.76,219.82L30.76,218.01L30.76,216.2L30.76,214.39L30.76,212.58L28.95,210.77L28.95,208.96L28.95,207.15L28.95,205.34L28.95,201.72L28.95,199.92L28.95,196.3L28.95,194.49L30.76,190.87L30.76,189.06L30.76,185.44L32.57,183.63L32.57,180.01L32.57,178.2L34.37,178.2L36.18,178.2L37.99,180.01L41.61,180.01L43.42,180.01L47.04,180.01L50.66,180.01L54.28,180.01L56.08,178.2L59.7,178.2L61.51,176.4L63.32,176.4L65.13,176.4L66.94,176.4L66.94,174.59L68.75,174.59L68.75,172.78L70.56,172.78L72.37,170.97L74.18,170.97L75.99,169.16L77.8,167.35L79.6,165.54L81.41,163.73L81.41,161.92L83.22,160.11L85.03,158.3L86.84,156.49L88.65,154.69L90.46,152.88L92.27,151.07L94.08,151.07L94.08,149.26L97.7,149.26L99.51,147.45L101.31,145.64L104.93,145.64L104.93,143.83L106.74,142.02L108.55,142.02L108.55,140.21L108.55,138.4L108.55,136.59L110.36,136.59L110.36,134.78L112.17,134.78L113.98,134.78L115.79,134.78L119.41,134.78L121.22,136.59L124.83,138.4L128.45,140.21L130.26,140.21L132.07,140.21L132.07,136.59L132.07,132.98L132.07,129.36L132.07,125.74L132.07,123.93L132.07,122.12L132.07,120.31L132.07,118.5L133.88,118.5L135.69,116.69L135.69,114.88L137.5,114.88L139.31,113.07L139.31,111.27L141.12,111.27L142.93,109.46L144.73,107.65L146.54,105.84L148.35,104.03L150.16,102.22L151.97,100.41L153.78,100.41L155.59,98.6L157.4,98.6L161.02,98.6L164.64,98.6L166.45,96.79L170.06,96.79L173.68,94.98L175.49,93.17L177.3,91.36L179.11,87.75L180.92,85.94L180.92,82.32L180.92,80.51L180.92,76.89L182.73,75.08L184.54,73.27L188.16,73.27L191.77,73.27L195.39,73.27L199.01,75.08L202.63,78.7L204.44,78.7L208.06,80.51L209.87,84.13L213.48,85.94L213.48,89.55L213.48,91.36L213.48,93.17L213.48,94.98L213.48,96.79L213.48,98.6L213.48,100.41L213.48,102.22L213.48,105.84L213.48,107.65L213.48,109.46L213.48,111.27L213.48,113.07L213.48,114.88L213.48,118.5L211.67,120.31L209.87,123.93L208.06,125.74L208.06,129.36L208.06,131.17L208.06,134.78L208.06,136.59L208.06,138.4L209.87,140.21L211.67,142.02L213.48,142.02L215.29,142.02L217.1,142.02L218.91,138.4L220.72,136.59L222.53,131.17L226.15,127.55L227.96,123.93L227.96,122.12L229.77,120.31L231.58,114.88L233.39,111.27L235.19,107.65L235.19,105.84L237,104.03L238.81,102.22L240.62,100.41L244.24,98.6L246.05,96.79L247.86,93.17L249.67,91.36L253.29,89.55L255.1,89.55L256.9,87.75L258.71,87.75L260.52,87.75L262.33,87.75L262.33,89.55L264.14,91.36L264.14,93.17L264.14,94.98" fill="none" stroke="#000000" style="-webkit-tap-highlight-color: rgba(0, 0, 0, 0); stroke-linecap: round; stroke-linejoin: round; stroke-width: 5;" /><path d="M260.52,91.36L260.52,89.55L260.52,87.75L260.52,85.94L262.33,85.94L264.14,87.75L267.76,91.36L273.19,94.98L276.81,98.6L280.42,102.22L284.04,105.84L287.66,107.65L291.28,109.46L293.09,109.46L294.9,109.46L296.71,109.46L298.52,109.46L300.33,109.46L302.13,107.65L303.94,107.65L305.75,105.84L307.56,104.03L309.37,102.22L311.18,100.41L312.99,100.41L314.8,98.6L316.61,98.6L320.23,96.79L322.04,96.79L325.65,96.79L329.27,98.6L331.08,98.6L334.7,100.41L336.51,100.41L338.32,100.41L340.13,100.41" fill="none" stroke="#000000" style="-webkit-tap-highlight-color: rgba(0, 0, 0, 0); stroke-linecap: round; stroke-linejoin: round; stroke-width: 5;" /><path d="M347.36,102.22L347.36,104.03L345.55,104.03L343.75,105.84L341.94,105.84L341.94,107.65L343.75,107.65L345.55,107.65L349.17,107.65L354.6,107.65L360.03,107.65L365.46,107.65L372.69,107.65L378.12,107.65L381.74,107.65L385.36,109.46L390.78,109.46L392.59,109.46L394.4,111.27L398.02,111.27L399.83,111.27L401.64,113.07L403.45,114.88L405.26,116.69L407.07,118.5L408.88,120.31L410.69,120.31L412.49,122.12L414.3,122.12L416.11,123.93L417.92,123.93L419.73,123.93L419.73,122.12L421.54,122.12L421.54,120.31L423.35,122.12L423.35,123.93L425.16,127.55L425.16,131.17L426.97,134.78L428.78,134.78L430.59,134.78L432.4,134.78L434.2,134.78L436.01,134.78L437.82,134.78L439.63,134.78L441.44,134.78L445.06,134.78L446.87,136.59L450.49,136.59L452.3,138.4L455.92,138.4L457.72,140.21L461.34,142.02L464.96,142.02L468.58,143.83L472.2,143.83L474.01,143.83L477.63,143.83L479.43,143.83L483.05,143.83L486.67,143.83L488.48,143.83L492.1,143.83L493.91,143.83L497.53,143.83L499.34,143.83L501.14,143.83L502.95,145.64L506.57,147.45L508.38,149.26L510.19,152.88L512,154.69L513.81,156.49L515.62,160.11L517.43,161.92L519.24,163.73L521.05,167.35L522.86,169.16L524.66,170.97L526.47,172.78L528.28,172.78L531.9,174.59L533.71,174.59L533.71,176.4L533.71,178.2L531.9,180.01L530.09,181.82L530.09,183.63L528.28,185.44L528.28,187.25L530.09,194.49L530.09,196.3L531.9,198.11L533.71,199.92L537.33,201.72L539.14,201.72L540.95,201.72L542.76,203.53L544.57,203.53L544.57,205.34L544.57,207.15L544.57,208.96L544.57,212.58L544.57,214.39L544.57,218.01L546.37,219.82L546.37,221.63L548.18,223.43L549.99,225.24L549.99,227.05L551.8,227.05L551.8,228.86L553.61,230.67L553.61,232.48L553.61,234.29L551.8,236.1L548.18,237.91L546.37,239.72L544.57,243.34L544.57,245.14L542.76,250.57L544.57,254.19L546.37,259.62L549.99,263.24L551.8,266.86L555.42,268.66" fill="none" stroke="#000000" style="-webkit-tap-highlight-color: rgba(0, 0, 0, 0); stroke-linecap: round; stroke-linejoin: round; stroke-width: 5;" /><path d="M557.23,268.66L557.23,270.47L557.23,272.28L559.04,272.28L560.85,272.28L560.85,268.66L562.66,265.05L562.66,259.62L562.66,254.19L560.85,248.76L560.85,243.34L560.85,237.91L560.85,232.48L560.85,228.86L560.85,225.24L560.85,219.82L560.85,216.2L560.85,212.58L560.85,208.96L560.85,201.72L560.85,196.3L560.85,189.06L560.85,183.63L560.85,178.2L559.04,172.78L559.04,169.16L559.04,165.54L562.66,160.11L566.28,158.3L571.7,156.49L577.13,156.49L582.56,156.49L587.99,158.3L589.8,158.3" fill="none" stroke="#000000" style="-webkit-tap-highlight-color: rgba(0, 0, 0, 0); stroke-linecap: round; stroke-linejoin: round; stroke-width: 5;" /><path d="M573.51,180.01L571.7,180.01L569.89,180.01L569.89,176.4L569.89,174.59L569.89,170.97L569.89,167.35L571.7,161.92L578.94,152.88L582.56,149.26L587.99,147.45L595.22,143.83L600.65,142.02L604.27,140.21L609.7,138.4L616.93,136.59L620.55,136.59L625.98,136.59L629.6,134.78L635.02,134.78L640.45,132.98L645.88,131.17L651.31,129.36L656.73,129.36L662.16,129.36L665.78,129.36L669.4,129.36L674.83,129.36L680.25,129.36L685.68,129.36L691.11,129.36L696.54,131.17L701.96,131.17L707.39,131.17L711.01,131.17L716.44,131.17L721.87,131.17L725.48,132.98L730.91,132.98L734.53,134.78L739.96,134.78L745.39,134.78L750.81,136.59L754.43,136.59L759.86,138.4L765.29,138.4L770.71,140.21L776.14,140.21L779.76,140.21L785.19,142.02L790.61,142.02L794.23,142.02L799.66,143.83L805.09,143.83L808.71,145.64L814.13,145.64L817.75,147.45L823.18,147.45L826.8,149.26L830.42,149.26L834.04,149.26L835.84,149.26L839.46,151.07L843.08,151.07L846.7,151.07L852.13,151.07L857.55,151.07L861.17,151.07L866.6,151.07L870.22,152.88L873.84,152.88L877.46,154.69L879.27,154.69L882.88,156.49L884.69,156.49L886.5,156.49L890.12,158.3L891.93,160.11L891.93,161.92L893.74,163.73L895.55,165.54L895.55,169.16L897.36,170.97L897.36,172.78L897.36,176.4L899.17,178.2L900.98,180.01L900.98,181.82L902.78,183.63L904.59,185.44L906.4,185.44L910.02,187.25L911.83,187.25L913.64,189.06L915.45,189.06L917.26,190.87L917.26,192.68L919.07,194.49L920.88,196.3L920.88,198.11L922.69,199.92L922.69,201.72L924.49,201.72L924.49,203.53L926.3,203.53L928.11,203.53L929.92,203.53L931.73,205.34L933.54,205.34L935.35,205.34L935.35,207.15L937.16,208.96L937.16,212.58L937.16,216.2L935.35,221.63L933.54,228.86L933.54,234.29L933.54,237.91L931.73,241.53L931.73,245.14L931.73,248.76L931.73,252.38L933.54,256L933.54,259.62L935.35,263.24L937.16,266.86L937.16,272.28L938.97,275.9L938.97,277.71L938.97,281.33L938.97,283.14L938.97,286.76L938.97,288.57L940.78,292.18L940.78,295.8L942.59,299.42L942.59,303.04L942.59,306.66L942.59,308.47L942.59,312.08L942.59,315.7L942.59,319.32L942.59,322.94L942.59,324.75L940.78,328.37L938.97,330.18L937.16,333.8L935.35,335.6L935.35,339.22L935.35,342.84L935.35,346.46L937.16,350.08L940.78,353.7L942.59,357.31L946.2,360.93L948.01,362.74L951.63,366.36L951.63,368.17L951.63,369.98L951.63,371.79L949.82,373.6L949.82,375.41L949.82,377.22L948.01,379.02L948.01,382.64L948.01,384.45L948.01,386.26L948.01,389.88L949.82,391.69L949.82,395.31L951.63,397.12L951.63,400.73L953.44,404.35L955.25,407.97L957.06,411.59L957.06,415.21L958.87,418.83L958.87,422.45L960.68,426.06L960.68,429.68L962.49,431.49L962.49,435.11L964.3,438.73L964.3,440.54L966.11,444.16L967.92,445.96L969.72,449.58L969.72,451.39L971.53,453.2L971.53,455.01L971.53,456.82L973.34,458.63L973.34,460.44L973.34,462.25L973.34,464.06L973.34,465.87L975.15,469.48L975.15,471.29L975.15,474.91L975.15,476.72L975.15,480.34L975.15,483.96L975.15,485.77L976.96,489.39L978.77,493L980.58,494.81L982.39,498.43L982.39,500.24L982.39,502.05L982.39,503.86L982.39,505.67L982.39,507.48L982.39,509.29L982.39,511.1L982.39,514.71L978.77,516.52L976.96,518.33L975.15,521.95L973.34,523.76L971.53,525.57L969.72,529.19L967.92,532.81L967.92,536.42L966.11,540.04L966.11,543.66L964.3,547.28L964.3,550.9L962.49,552.71L960.68,554.52L958.87,556.33L957.06,559.94L957.06,561.75L955.25,563.56L953.44,567.18L951.63,568.99L949.82,570.8L949.82,574.42L949.82,576.23L949.82,579.84L949.82,581.65L949.82,585.27L949.82,587.08L949.82,588.89L948.01,590.7L946.2,592.51L946.2,594.32L944.4,596.13L942.59,597.94L940.78,599.75L938.97,601.55L937.16,603.36L935.35,605.17L935.35,606.98L933.54,608.79L933.54,610.6L933.54,612.41L933.54,616.03L933.54,617.84L933.54,621.46L933.54,623.27L933.54,625.07L933.54,626.88L931.73,630.5L931.73,632.31L931.73,634.12L931.73,635.93L929.92,637.74L929.92,639.55L929.92,643.17L929.92,644.98L929.92,646.78L929.92,650.4L929.92,652.21L929.92,654.02L929.92,657.64L931.73,659.45L931.73,663.07L935.35,664.88L937.16,668.49L940.78,668.49L942.59,670.3L944.4,672.11L946.2,672.11L948.01,673.92L948.01,675.73L948.01,677.54L948.01,679.35L946.2,681.16L944.4,681.16L942.59,682.97L940.78,682.97L938.97,682.97L937.16,684.78L935.35,684.78L931.73,684.78L928.11,686.59L924.49,686.59L922.69,688.4L920.88,690.2L920.88,692.01L920.88,693.82L920.88,695.63L922.69,699.25L922.69,701.06L922.69,704.68L922.69,706.49L922.69,708.3L922.69,710.11L922.69,711.92L922.69,713.72L924.49,715.53L924.49,717.34L926.3,719.15L926.3,720.96L928.11,722.77L929.92,726.39L931.73,728.2L933.54,730.01L933.54,733.63L935.35,735.43L935.35,737.24L935.35,740.86L935.35,742.67L935.35,744.48L935.35,748.1L935.35,749.91L933.54,751.72L929.92,755.34" fill="none" stroke="#000000" style="-webkit-tap-highlight-color: rgba(0, 0, 0, 0); stroke-linecap: round; stroke-linejoin: round; stroke-width: 5;" /><path d="M917.26,757.14" fill="none" stroke="#000000" style="-webkit-tap-highlight-color: rgba(0, 0, 0, 0); stroke-linecap: round; stroke-linejoin: round; stroke-width: 5;" /><path d="M721.87,170.97L721.87,169.16L723.67,169.16L723.67,167.35L725.48,167.35L727.29,169.16L729.1,170.97L730.91,172.78L732.72,174.59L732.72,178.2L732.72,181.82L734.53,187.25L734.53,190.87L734.53,196.3L734.53,199.92L734.53,203.53L734.53,208.96L734.53,214.39L734.53,218.01L734.53,223.43L734.53,227.05L734.53,232.48L734.53,236.1L736.34,239.72L736.34,243.34L736.34,246.95L738.15,248.76L738.15,252.38L738.15,254.19L739.96,256L739.96,259.62L741.77,263.24L743.58,265.05L745.39,268.66L747.19,270.47L749,272.28L749,275.9L750.81,277.71L752.62,281.33L752.62,284.95L754.43,288.57L754.43,293.99L756.24,297.61L756.24,303.04L758.05,308.47L758.05,312.08L759.86,317.51L759.86,321.13L759.86,326.56L759.86,330.18L761.67,333.8L761.67,337.41L763.48,341.03L763.48,342.84L765.29,344.65L767.1,346.46L768.9,348.27L770.71,348.27L774.33,348.27L776.14,348.27L777.95,348.27L779.76,348.27L781.57,348.27L783.38,348.27L785.19,348.27L787,350.08L790.61,351.89L792.42,355.51L796.04,357.31L797.85,359.12L799.66,360.93L801.47,360.93L803.28,362.74L805.09,364.55L806.9,366.36L806.9,368.17L806.9,369.98L806.9,371.79L806.9,375.41L806.9,377.22L805.09,380.83L805.09,384.45L805.09,389.88L805.09,393.5L805.09,398.93L805.09,402.54L805.09,406.16L805.09,409.78L805.09,413.4L805.09,418.83L805.09,424.25L805.09,427.87L805.09,431.49L805.09,435.11L806.9,438.73L806.9,442.35L806.9,451.39L806.9,455.01L806.9,458.63L806.9,462.25L806.9,467.67L806.9,471.29L806.9,474.91L806.9,478.53L806.9,482.15L806.9,487.58L806.9,491.19L808.71,494.81L810.52,500.24L812.33,505.67L814.13,511.1L815.94,516.52L815.94,521.95L817.75,527.38L819.56,532.81L821.37,538.23L823.18,543.66L823.18,549.09L823.18,554.52L823.18,559.94L823.18,565.37L824.99,570.8L824.99,578.04L824.99,581.65L826.8,587.08L828.61,592.51L828.61,597.94L830.42,603.36L830.42,608.79L830.42,614.22L830.42,619.65L830.42,625.07L828.61,630.5L828.61,635.93L826.8,641.36L826.8,646.78L826.8,652.21L826.8,655.83L826.8,661.26L826.8,666.69L826.8,670.3L826.8,675.73L826.8,679.35L824.99,682.97L823.18,686.59L821.37,690.2L817.75,693.82L815.94,697.44L812.33,701.06L810.52,704.68L808.71,708.3L806.9,711.92L805.09,715.53L803.28,720.96L801.47,724.58L799.66,730.01L797.85,735.43L794.23,739.05L792.42,742.67L790.61,744.48L790.61,746.29L788.81,746.29L792.42,746.29L796.04,744.48" fill="none" stroke="#000000" style="-webkit-tap-highlight-color: rgba(0, 0, 0, 0); stroke-linecap: round; stroke-linejoin: round; stroke-width: 5;" /><path d="M654.93,216.2L654.93,214.39L654.93,212.58L654.93,210.77L656.73,210.77L658.54,212.58L658.54,214.39L660.35,218.01L660.35,223.43L662.16,230.67L662.16,237.91L663.97,243.34L663.97,248.76L665.78,254.19L667.59,257.81L667.59,261.43L669.4,263.24L671.21,266.86L673.02,268.66L674.83,270.47L676.64,272.28L678.45,274.09L680.25,277.71L682.06,277.71L683.87,279.52L683.87,281.33L685.68,283.14L687.49,284.95L687.49,286.76L689.3,290.37L689.3,292.18L691.11,293.99L691.11,295.8L691.11,297.61L692.92,299.42L692.92,301.23L694.73,301.23L696.54,303.04L698.35,304.85L700.16,306.66L701.96,308.47L703.77,312.08L703.77,313.89L705.58,315.7L705.58,319.32L707.39,322.94L707.39,324.75L709.2,328.37L709.2,331.99L709.2,333.8L709.2,335.6L707.39,337.41L705.58,339.22L705.58,341.03L705.58,342.84L705.58,344.65L707.39,346.46L709.2,348.27L712.82,350.08L716.44,351.89L718.25,353.7L721.87,357.31L723.67,359.12L725.48,362.74L727.29,366.36L727.29,369.98L729.1,373.6L729.1,377.22L729.1,379.02L729.1,380.83L727.29,382.64L725.48,382.64L723.67,382.64L720.06,382.64L718.25,380.83L716.44,379.02L714.63,379.02L712.82,377.22L714.63,379.02L714.63,380.83L716.44,384.45L718.25,389.88L720.06,393.5L721.87,398.93L721.87,402.54L723.67,406.16L723.67,411.59L723.67,415.21L723.67,418.83L723.67,422.45L723.67,426.06L723.67,427.87L723.67,431.49L723.67,435.11L723.67,438.73L723.67,442.35L723.67,447.77L723.67,453.2L725.48,458.63L725.48,464.06L723.67,469.48L723.67,474.91L723.67,480.34L723.67,485.77L723.67,489.39L723.67,491.19L723.67,493L725.48,494.81L725.48,496.62L725.48,498.43L727.29,500.24L727.29,503.86L729.1,507.48L729.1,511.1L730.91,514.71L730.91,520.14L732.72,523.76L732.72,529.19L734.53,532.81L734.53,536.42L734.53,541.85L736.34,545.47L736.34,550.9L738.15,558.13L738.15,563.56L738.15,568.99L738.15,574.42L738.15,579.84L736.34,583.46L734.53,587.08L734.53,588.89L732.72,592.51L732.72,594.32L732.72,597.94L732.72,599.75L732.72,603.36L734.53,606.98L734.53,608.79L736.34,612.41L738.15,616.03L739.96,621.46L739.96,625.07L741.77,630.5L743.58,635.93L745.39,639.55L749,648.59L749,652.21L750.81,657.64L754.43,661.26L756.24,666.69L758.05,670.3L759.86,673.92L761.67,677.54L763.48,681.16L767.1,686.59L768.9,690.2L772.52,693.82L776.14,699.25L777.95,702.87L779.76,706.49L781.57,710.11L781.57,713.72L783.38,717.34L785.19,720.96L788.81,724.58L792.42,728.2L794.23,730.01L796.04,731.82L797.85,731.82L797.85,728.2L797.85,724.58" fill="none" stroke="#000000" style="-webkit-tap-highlight-color: rgba(0, 0, 0, 0); stroke-linecap: round; stroke-linejoin: round; stroke-width: 5;" /><path d="M886.5,205.34L886.5,203.53L888.31,201.72L888.31,199.92L888.31,198.11L890.12,198.11L891.93,198.11L891.93,199.92L891.93,201.72L888.31,205.34L884.69,210.77L879.27,218.01L875.65,225.24L873.84,232.48L873.84,237.91L875.65,239.72L877.46,243.34L882.88,246.95L886.5,248.76L890.12,252.38L893.74,256L893.74,259.62L895.55,263.24L895.55,266.86L895.55,268.66L895.55,270.47L895.55,274.09L895.55,277.71L895.55,279.52L897.36,281.33L897.36,283.14L897.36,284.95L899.17,284.95" fill="none" stroke="#000000" style="-webkit-tap-highlight-color: rgba(0, 0, 0, 0); stroke-linecap: round; stroke-linejoin: round; stroke-width: 5;" /><path d="M899.17,299.42L899.17,301.23L900.98,303.04L904.59,304.85L911.83,310.28L917.26,317.51L920.88,326.56L920.88,333.8L920.88,341.03L920.88,348.27L919.07,357.31L917.26,364.55L917.26,371.79L915.45,377.22L915.45,382.64L915.45,388.07L917.26,391.69L919.07,397.12L920.88,402.54L924.49,409.78L926.3,415.21L928.11,422.45L929.92,429.68L931.73,435.11L933.54,442.35L933.54,449.58L935.35,455.01L937.16,460.44L938.97,465.87L942.59,469.48L944.4,473.1L946.2,474.91" fill="none" stroke="#000000" style="-webkit-tap-highlight-color: rgba(0, 0, 0, 0); stroke-linecap: round; stroke-linejoin: round; stroke-width: 5;" /><path d="M549.99,265.05L549.99,263.24L551.8,263.24L557.23,263.24L562.66,263.24L569.89,263.24L578.94,263.24L586.18,263.24L591.6,263.24L595.22,265.05L598.84,266.86L602.46,268.66L606.08,268.66L607.89,268.66L611.51,268.66L615.12,266.86L620.55,265.05L625.98,263.24L627.79,263.24L631.41,261.43L631.41,259.62L631.41,256" fill="none" stroke="#000000" style="-webkit-tap-highlight-color: rgba(0, 0, 0, 0); stroke-linecap: round; stroke-linejoin: round; stroke-width: 5;" /><path d="M625.98,149.26L625.98,145.64L625.98,142.02L625.98,140.21L625.98,142.02L625.98,145.64L622.36,151.07L620.55,158.3L618.74,167.35L616.93,176.4L616.93,183.63L616.93,189.06L616.93,196.3L618.74,201.72L620.55,208.96L622.36,214.39L625.98,219.82L627.79,225.24L629.6,230.67L631.41,234.29L633.22,239.72L635.02,243.34L636.83,246.95L638.64,250.57L638.64,254.19L640.45,256L640.45,257.81L640.45,261.43L638.64,263.24L636.83,266.86L635.02,270.47L633.22,274.09L631.41,275.9L629.6,277.71L629.6,279.52L629.6,277.71L631.41,274.09L633.22,274.09" fill="none" stroke="#000000" style="-webkit-tap-highlight-color: rgba(0, 0, 0, 0); stroke-linecap: round; stroke-linejoin: round; stroke-width: 5;" /><path d="M16.28,386.26L12.66,386.26L7.24,386.26L10.86,386.26L18.09,386.26L25.33,384.45L34.37,384.45L45.23,382.64L57.89,382.64L70.56,380.83L81.41,377.22L90.46,373.6L99.51,371.79L108.55,368.17L117.6,364.55L126.64,362.74L135.69,359.12L144.73,357.31L155.59,353.7L164.64,351.89L173.68,351.89L182.73,350.08L191.77,350.08L200.82,348.27L209.87,348.27L217.1,348.27L226.15,350.08L235.19,351.89L242.43,351.89L249.67,353.7L256.9,353.7L264.14,353.7L273.19,353.7L280.42,353.7L287.66,351.89L293.09,351.89L300.33,353.7L305.75,353.7L312.99,353.7L318.42,355.51L323.84,355.51L331.08,355.51L336.51,355.51L343.75,355.51L349.17,357.31L356.41,357.31L361.84,357.31L367.27,357.31L372.69,357.31L379.93,357.31L385.36,357.31L394.4,357.31L401.64,355.51L408.88,355.51L416.11,355.51L423.35,353.7L430.59,353.7L437.82,353.7L445.06,351.89L452.3,351.89L459.53,351.89L466.77,351.89L474.01,350.08L483.05,348.27L490.29,346.46L497.53,346.46L504.76,344.65L512,342.84L519.24,341.03L526.47,339.22L533.71,337.41L540.95,337.41L546.37,337.41L553.61,337.41L559.04,337.41L564.47,337.41L569.89,339.22L575.32,341.03L580.75,341.03L584.37,342.84L589.8,342.84L593.41,342.84L597.03,342.84L600.65,344.65L604.27,344.65L607.89,346.46L611.51,346.46L615.12,348.27L618.74,350.08L624.17,350.08L627.79,350.08L633.22,351.89L636.83,351.89L642.26,353.7L647.69,353.7L651.31,355.51L656.73,355.51L660.35,355.51L665.78,357.31L671.21,357.31L676.64,355.51L680.25,353.7L685.68,351.89L691.11,350.08L694.73,348.27L696.54,346.46L698.35,344.65L700.16,342.84L701.96,342.84L703.77,342.84L705.58,342.84L707.39,342.84L707.39,341.03L709.2,341.03L707.39,339.22" fill="none" stroke="#000000" style="-webkit-tap-highlight-color: rgba(0, 0, 0, 0); stroke-linecap: round; stroke-linejoin: round; stroke-width: 5;" /><path d="M436.01,208.96L436.01,207.15L436.01,203.53L436.01,201.72L436.01,199.92L437.82,199.92L439.63,201.72L439.63,203.53L441.44,207.15L441.44,208.96L443.25,212.58L443.25,218.01L445.06,225.24L446.87,232.48L448.68,239.72L450.49,246.95L450.49,256L452.3,263.24L452.3,268.66L452.3,275.9L454.11,283.14L454.11,288.57L455.92,293.99L455.92,295.8L455.92,297.61L455.92,295.8L455.92,288.57" fill="none" stroke="#000000" style="-webkit-tap-highlight-color: rgba(0, 0, 0, 0); stroke-linecap: round; stroke-linejoin: round; stroke-width: 5;" /><path d="M446.87,203.53L445.06,203.53L443.25,205.34L441.44,205.34L443.25,203.53L445.06,201.72L448.68,199.92L454.11,198.11L457.72,198.11L463.15,201.72L468.58,208.96L472.2,218.01L474.01,227.05L475.82,237.91L475.82,245.14L477.63,252.38L477.63,261.43L479.43,272.28L479.43,283.14L481.24,292.18L481.24,299.42L484.86,304.85L486.67,308.47L488.48,310.28L492.1,310.28L493.91,310.28" fill="none" stroke="#000000" style="-webkit-tap-highlight-color: rgba(0, 0, 0, 0); stroke-linecap: round; stroke-linejoin: round; stroke-width: 5;" /><path d="M940.78,270.47L938.97,268.66L937.16,268.66L935.35,266.86L933.54,265.05L935.35,265.05L937.16,265.05L940.78,265.05L942.59,265.05L948.01,263.24L955.25,261.43L962.49,259.62L969.72,259.62L976.96,259.62L982.39,259.62L989.63,257.81L995.05,257.81L1000.48,257.81L1005.91,257.81L1011.34,257.81L1014.95,259.62L1016.76,261.43L1018.57,263.24L1020.38,265.05L1020.38,266.86L1018.57,266.86" fill="none" stroke="#000000" style="-webkit-tap-highlight-color: rgba(0, 0, 0, 0); stroke-linecap: round; stroke-linejoin: round; stroke-width: 5;" /><path d="M942.59,274.09L942.59,272.28L940.78,272.28L942.59,272.28L946.2,272.28L953.44,274.09L960.68,274.09L969.72,274.09L976.96,275.9L984.2,275.9L989.63,275.9L995.05,275.9L1000.48,275.9L1005.91,275.9L1009.53,274.09L1014.95,274.09L1016.76,274.09L1018.57,274.09L1018.57,275.9" fill="none" stroke="#000000" style="-webkit-tap-highlight-color: rgba(0, 0, 0, 0); stroke-linecap: round; stroke-linejoin: round; stroke-width: 5;" /><path d="M940.78,284.95L940.78,286.76L938.97,286.76L938.97,288.57L942.59,290.37L948.01,292.18L955.25,292.18L966.11,292.18L975.15,292.18L984.2,292.18L991.43,290.37L998.67,288.57L1004.1,288.57L1009.53,286.76L1014.95,286.76L1018.57,288.57L1020.38,288.57L1020.38,290.37" fill="none" stroke="#000000" style="-webkit-tap-highlight-color: rgba(0, 0, 0, 0); stroke-linecap: round; stroke-linejoin: round; stroke-width: 5;" /><path d="M937.16,301.23L937.16,299.42L938.97,299.42L942.59,299.42L944.4,299.42L949.82,299.42L960.68,301.23L969.72,301.23L976.96,303.04L984.2,304.85L989.63,304.85L995.05,303.04L1000.48,303.04L1007.72,301.23L1013.14,301.23L1016.76,301.23L1020.38,301.23L1022.19,303.04L1022.19,304.85" fill="none" stroke="#000000" style="-webkit-tap-highlight-color: rgba(0, 0, 0, 0); stroke-linecap: round; stroke-linejoin: round; stroke-width: 5;" /><path d="M958.87,417.02L958.87,415.21L960.68,415.21L964.3,415.21L971.53,417.02L978.77,418.83L987.82,420.64L995.05,424.25L1002.29,426.06L1005.91,426.06L1009.53,426.06L1009.53,424.25L1009.53,422.45" fill="none" stroke="#000000" style="-webkit-tap-highlight-color: rgba(0, 0, 0, 0); stroke-linecap: round; stroke-linejoin: round; stroke-width: 5;" /><path d="M857.55,585.27L857.55,587.08L857.55,588.89L857.55,590.7L857.55,592.51L859.36,596.13L861.17,599.75L862.98,603.36L864.79,606.98L866.6,610.6L868.41,612.41L868.41,614.22L870.22,614.22L872.03,614.22L873.84,612.41L877.46,608.79L881.07,606.98L884.69,606.98L886.5,605.17L888.31,605.17L890.12,605.17" fill="none" stroke="#000000" style="-webkit-tap-highlight-color: rgba(0, 0, 0, 0); stroke-linecap: round; stroke-linejoin: round; stroke-width: 5;" /><path d="M870.22,485.77L870.22,487.58L868.41,489.39L868.41,491.19L866.6,491.19L866.6,489.39L866.6,485.77L866.6,478.53L866.6,473.1L868.41,471.29L868.41,469.48" fill="none" stroke="#000000" style="-webkit-tap-highlight-color: rgba(0, 0, 0, 0); stroke-linecap: round; stroke-linejoin: round; stroke-width: 5;" /><path d="M859.36,514.71L859.36,516.52L857.55,516.52L855.75,518.33L853.94,516.52L853.94,514.71L853.94,511.1L853.94,509.29L855.75,505.67" fill="none" stroke="#000000" style="-webkit-tap-highlight-color: rgba(0, 0, 0, 0); stroke-linecap: round; stroke-linejoin: round; stroke-width: 5;" /><path d="M837.65,357.31L837.65,359.12L835.84,359.12L834.04,360.93L834.04,357.31L834.04,351.89L834.04,346.46L834.04,341.03L835.84,339.22" fill="none" stroke="#000000" style="-webkit-tap-highlight-color: rgba(0, 0, 0, 0); stroke-linecap: round; stroke-linejoin: round; stroke-width: 5;" /><path d="M112.17,274.09L110.36,274.09L110.36,272.28L110.36,268.66L110.36,265.05L110.36,261.43L110.36,256L110.36,252.38L110.36,248.76L110.36,245.14L112.17,243.34L112.17,241.53L113.98,239.72L115.79,237.91L119.41,236.1L124.83,236.1L130.26,236.1L139.31,237.91L146.54,239.72L151.97,241.53L155.59,243.34L157.4,245.14L155.59,245.14" fill="none" stroke="#000000" style="-webkit-tap-highlight-color: rgba(0, 0, 0, 0); stroke-linecap: round; stroke-linejoin: round; stroke-width: 5;" /><path d="M103.12,246.95L103.12,245.14L101.31,243.34L101.31,239.72L101.31,234.29L101.31,228.86L101.31,225.24L101.31,221.63L101.31,218.01L101.31,216.2L103.12,216.2L106.74,214.39L112.17,214.39L119.41,214.39L124.83,214.39L130.26,214.39L133.88,214.39L135.69,216.2L137.5,218.01L139.31,219.82" fill="none" stroke="#000000" style="-webkit-tap-highlight-color: rgba(0, 0, 0, 0); stroke-linecap: round; stroke-linejoin: round; stroke-width: 5;" /><path d="M209.87,208.96L209.87,210.77L209.87,212.58L211.67,212.58L213.48,210.77L213.48,208.96L213.48,205.34L215.29,201.72L217.1,199.92L220.72,199.92L222.53,201.72L224.34,207.15L224.34,210.77L222.53,212.58L220.72,212.58L217.1,212.58L213.48,210.77L211.67,207.15L211.67,205.34" fill="none" stroke="#000000" style="-webkit-tap-highlight-color: rgba(0, 0, 0, 0); stroke-linecap: round; stroke-linejoin: round; stroke-width: 5;" /><path d="M153.78,176.4L151.97,174.59L151.97,172.78L155.59,172.78L161.02,172.78L166.45,170.97L171.87,170.97L175.49,170.97L177.3,170.97L177.3,172.78L177.3,174.59L177.3,180.01L175.49,187.25L175.49,194.49L175.49,199.92L175.49,205.34L175.49,207.15" fill="none" stroke="#000000" style="-webkit-tap-highlight-color: rgba(0, 0, 0, 0); stroke-linecap: round; stroke-linejoin: round; stroke-width: 5;" /><path d="M146.54,203.53L144.73,203.53L142.93,203.53L141.12,203.53L135.69,203.53L130.26,203.53L123.02,205.34L117.6,205.34L115.79,205.34" fill="none" stroke="#000000" style="-webkit-tap-highlight-color: rgba(0, 0, 0, 0); stroke-linecap: round; stroke-linejoin: round; stroke-width: 5;" /><path d="M57.89,216.2L50.66,214.39L45.23,214.39L43.42,216.2L45.23,216.2L47.04,216.2" fill="none" stroke="#000000" style="-webkit-tap-highlight-color: rgba(0, 0, 0, 0); stroke-linecap: round; stroke-linejoin: round; stroke-width: 5;" /><path d="M421.54,308.47L419.73,306.66L425.16,306.66L430.59,306.66L437.82,306.66L443.25,306.66L448.68,306.66L450.49,304.85L450.49,303.04" fill="none" stroke="#000000" style="-webkit-tap-highlight-color: rgba(0, 0, 0, 0); stroke-linecap: round; stroke-linejoin: round; stroke-width: 5;" /><path d="M329.27,263.24L329.27,261.43L329.27,259.62L329.27,257.81L329.27,256L329.27,252.38L329.27,248.76L329.27,245.14L329.27,241.53L331.08,237.91L332.89,236.1L334.7,234.29L336.51,234.29L341.94,234.29L347.36,236.1L354.6,237.91L363.65,237.91L370.88,237.91L378.12,239.72L381.74,239.72L383.55,237.91L383.55,236.1L383.55,234.29" fill="none" stroke="#000000" style="-webkit-tap-highlight-color: rgba(0, 0, 0, 0); stroke-linecap: round; stroke-linejoin: round; stroke-width: 5;" /><path d="M349.17,199.92L349.17,201.72L349.17,203.53L350.98,208.96L354.6,214.39L356.41,221.63L358.22,227.05L360.03,230.67L361.84,230.67" fill="none" stroke="#000000" style="-webkit-tap-highlight-color: rgba(0, 0, 0, 0); stroke-linecap: round; stroke-linejoin: round; stroke-width: 5;" /><path d="M763.48,172.78L763.48,170.97L763.48,169.16L765.29,169.16L767.1,169.16L768.9,169.16L770.71,167.35L772.52,167.35L776.14,167.35L779.76,169.16L783.38,170.97L787,174.59L788.81,178.2L790.61,181.82L790.61,187.25L790.61,189.06L788.81,190.87L787,192.68L783.38,194.49L777.95,194.49L774.33,194.49L768.9,190.87L765.29,185.44L763.48,181.82L763.48,176.4L763.48,174.59L767.1,172.78L770.71,174.59" fill="none" stroke="#000000" style="-webkit-tap-highlight-color: rgba(0, 0, 0, 0); stroke-linecap: round; stroke-linejoin: round; stroke-width: 5;" /><path d="M877.46,322.94L875.65,321.13L873.84,319.32L873.84,317.51L872.03,315.7L872.03,313.89L872.03,317.51L872.03,321.13L872.03,326.56L872.03,331.99L873.84,337.41L877.46,341.03L881.07,344.65L884.69,342.84L886.5,337.41L886.5,326.56L886.5,317.51L882.88,308.47L877.46,306.66L875.65,304.85L873.84,308.47L873.84,312.08L873.84,313.89" fill="none" stroke="#000000" style="-webkit-tap-highlight-color: rgba(0, 0, 0, 0); stroke-linecap: round; stroke-linejoin: round; stroke-width: 5;" /><path d="M850.32,561.75L848.51,559.94L846.7,558.13L843.08,558.13L841.27,558.13L841.27,559.94L841.27,565.37L843.08,570.8L846.7,576.23L850.32,578.04L855.75,576.23L857.55,568.99L859.36,561.75L857.55,556.33L853.94,554.52L850.32,554.52L848.51,558.13L846.7,563.56L846.7,565.37" fill="none" stroke="#000000" style="-webkit-tap-highlight-color: rgba(0, 0, 0, 0); stroke-linecap: round; stroke-linejoin: round; stroke-width: 5;" /></svg>