<?xml version="1.0" encoding="utf-8" ?>
<svg baseProfile="full" height="1845" version="1.1" width="1024" xmlns="http://www.w3.org/2000/svg" xmlns:ev="http://www.w3.org/2001/xml-events" xmlns:xlink="http://www.w3.org/1999/xlink"><defs /><path d="M438.09,342.68L439.43,339.99L439.43,338.65L440.78,339.99L440.78,341.33L438.09,342.68L436.75,344.02L431.37,349.4L428.68,352.08L427.34,354.77L424.65,358.8L421.96,362.83L417.93,368.21L415.24,370.9L411.21,374.93L408.52,378.96L401.81,385.68L397.77,389.71L395.09,395.09L391.06,400.46L387.02,404.49L382.99,409.87L378.96,416.59L374.93,420.62L370.9,428.68L366.87,434.06L365.52,438.09L361.49,442.12L358.8,444.81L354.77,450.18L352.08,454.22L350.74,456.9L346.71,463.62L339.99,473.03L337.3,478.4L333.27,483.78L330.58,489.15L326.55,493.19L323.86,497.22L309.08,507.97L307.74,509.31L303.71,513.34L301.02,517.38L296.99,522.75L292.96,526.78L290.27,532.16L286.24,536.19L282.2,540.22L279.52,545.6L276.83,549.63L272.8,555L268.77,557.69L266.08,561.72L262.05,564.41L259.36,568.44L255.33,573.82L252.64,579.19L249.95,584.57L247.27,588.6L244.58,595.32L240.55,600.69L237.86,604.72L233.83,608.76L231.14,612.79L227.11,616.82L224.42,622.19L220.39,627.57L220.39,630.26L215.01,638.32L208.29,649.07L204.26,654.45L200.23,659.82L194.86,665.2L190.82,669.23L182.76,677.29L177.39,684.01L173.35,689.39L169.32,696.1L163.95,704.17L159.92,709.54L155.88,714.92L151.85,718.95L149.17,724.33L145.13,728.36L139.76,733.73L134.38,736.42L129.01,740.45L124.98,743.14L120.94,747.17L118.26,749.86L116.91,752.55L114.23,755.23L112.88,756.58L112.88,757.92L111.54,759.27L110.19,760.61L108.85,761.95L107.51,763.3L107.51,764.64L106.16,764.64L106.16,765.98" fill="none" stroke="#000000" style="-webkit-tap-highlight-color: rgba(0, 0, 0, 0); stroke-linecap: round; stroke-linejoin: round; stroke-width: 9;" /><path d="M106.16,751.2L106.16,749.86L106.16,748.51L108.85,753.89L110.19,761.95L111.54,771.36L111.54,782.11L111.54,799.58L111.54,813.02L111.54,825.11L111.54,835.86L110.19,849.3L110.19,858.71L108.85,868.12L107.51,876.18L107.51,884.24L106.16,892.3L106.16,899.02L104.82,907.09L104.82,909.77L103.48,919.18L102.13,936.65L100.79,943.37L100.79,948.75L99.44,956.81L99.44,962.18L98.1,970.25L98.1,976.97L98.1,983.69L98.1,994.44L95.41,1010.56L95.41,1013.25L94.07,1017.28L92.72,1028.03L92.72,1033.41L91.38,1044.16L91.38,1054.91L88.69,1064.31L87.35,1069.69L86.01,1076.41L84.66,1081.78L84.66,1087.16L83.32,1096.57L81.97,1108.66L81.97,1114.04L81.97,1118.07L79.29,1126.13L77.94,1134.19L76.6,1138.23L76.6,1144.94L75.25,1150.32L72.57,1161.07L72.57,1170.48L71.22,1175.85L69.88,1181.23L67.19,1190.64L65.85,1196.01L64.5,1204.07L63.16,1210.79L59.13,1222.89L57.78,1228.26L55.1,1237.67L55.1,1245.73L53.75,1256.48L52.41,1267.23L53.75,1283.36L53.75,1294.11L53.75,1302.17L53.75,1308.89L53.75,1316.96L52.41,1323.67L51.07,1335.77L51.07,1342.49L49.72,1351.9L48.38,1357.27L48.38,1362.65L47.03,1369.36L47.03,1374.74L45.69,1385.49L45.69,1392.21L47.03,1394.9L47.03,1401.62L45.69,1419.09L45.69,1425.81L44.35,1433.87L44.35,1440.59L44.35,1447.31L44.35,1455.37L44.35,1466.12L45.69,1487.62L45.69,1491.65L45.69,1495.69L45.69,1505.09L45.69,1511.81L44.35,1518.53L41.66,1541.38L40.31,1548.09L38.97,1558.85L36.28,1576.31L34.94,1580.35L33.6,1585.72L30.91,1595.13L28.22,1608.57L25.53,1623.35L22.85,1632.76L18.81,1642.16L14.78,1658.29L13.44,1667.7L10.75,1679.79L8.06,1691.88L6.72,1698.6L2.69,1716.07L0,1728.17" fill="none" stroke="#000000" style="-webkit-tap-highlight-color: rgba(0, 0, 0, 0); stroke-linecap: round; stroke-linejoin: round; stroke-width: 9;" /><path d="M432.71,368.21L432.71,366.87L432.71,364.18L432.71,362.83L434.06,361.49L434.06,360.15L438.09,361.49L440.78,364.18L443.46,368.21L444.81,369.55L448.84,377.62L451.53,382.99L452.87,388.37L454.22,396.43L455.56,403.15L459.59,415.24L462.28,423.31L463.62,430.03L466.31,435.4L469,442.12L470.34,446.15L473.03,451.53L474.37,460.93L477.06,471.69L481.09,485.12L482.44,493.19L486.47,499.91L489.15,506.62L493.19,517.38L495.87,525.44L498.56,533.5L499.91,540.22L502.59,545.6L505.28,552.31L507.97,555L509.31,559.03L512,561.72L517.38,572.47L518.72,573.82L521.41,577.85L522.75,581.88L525.44,589.94L526.78,593.97L528.13,598.01L529.47,600.69L533.5,607.41L534.85,608.76L536.19,612.79L537.53,615.48L538.88,619.51L541.56,623.54L542.91,627.57L544.25,632.94L546.94,638.32L549.63,646.38L550.97,651.76L553.66,655.79L555,661.17L555,662.51L559.03,671.92L560.38,677.29L561.72,684.01L564.41,688.04L565.75,696.1L568.44,708.2L571.13,717.61L572.47,722.98L575.16,728.36L579.19,732.39L581.88,737.76L583.22,743.14L585.91,747.17L587.25,753.89L591.29,763.3L593.97,767.33L596.66,771.36L598.01,774.05L602.04,780.77L602.04,783.45L603.38,787.49L606.07,790.17L610.1,800.92L611.44,804.96L614.13,810.33L616.82,813.02L619.51,818.39L622.19,823.77L624.88,830.49L627.57,835.86L630.26,839.9L632.94,845.27L635.63,849.3L636.98,853.33L638.32,858.71L641.01,864.08L641.01,866.77L646.38,881.55L646.38,884.24L647.73,884.24L649.07,888.27L649.07,889.62L653.1,897.68L653.1,900.37L658.48,907.09L659.82,911.12L662.51,917.84L663.85,921.87L665.2,924.56L666.54,929.93L669.23,933.96L670.57,936.65L671.92,940.68L673.26,943.37L674.6,944.71L674.6,946.06L675.95,947.4" fill="none" stroke="#000000" style="-webkit-tap-highlight-color: rgba(0, 0, 0, 0); stroke-linecap: round; stroke-linejoin: round; stroke-width: 9;" /><path d="M666.54,939.34L665.2,940.68L662.51,943.37L659.82,948.75L657.13,954.12L654.45,963.53L647.73,987.72L642.35,999.81L639.66,1006.53L636.98,1011.91L635.63,1017.28L634.29,1026.69L632.94,1036.09L631.6,1045.5L630.26,1053.56L627.57,1064.31L627.57,1071.03L626.23,1075.07L624.88,1081.78L624.88,1092.54L623.54,1103.29L623.54,1110.01L623.54,1116.72L623.54,1124.79L623.54,1132.85L622.19,1139.57L622.19,1147.63L622.19,1155.7L623.54,1161.07L623.54,1169.13L623.54,1174.51L623.54,1179.88L622.19,1186.6L622.19,1191.98L622.19,1196.01L622.19,1202.73L620.85,1205.42L620.85,1212.14L619.51,1218.86L618.16,1225.57L615.48,1230.95L615.48,1236.33L611.44,1248.42L610.1,1260.51L610.1,1267.23L608.76,1276.64L607.41,1290.08L606.07,1300.83L604.72,1312.92L604.72,1326.36L604.72,1339.8L604.72,1353.24L606.07,1365.33L606.07,1388.18L607.41,1397.59L608.76,1406.99L610.1,1416.4L610.1,1425.81L611.44,1433.87L615.48,1460.75L616.82,1462.09L616.82,1467.46L618.16,1479.56L619.51,1486.28L622.19,1493L623.54,1502.4L624.88,1511.81L624.88,1521.22L624.88,1529.28L626.23,1537.34L628.91,1549.44L630.26,1554.81L631.6,1564.22L632.94,1570.94L632.94,1580.35L635.63,1595.13L636.98,1609.91L641.01,1628.72L641.01,1635.44L642.35,1642.16L643.7,1651.57L643.7,1660.98L643.7,1677.1L642.35,1685.17L641.01,1693.23L641.01,1701.29L639.66,1712.04L639.66,1722.79L638.32,1733.54L636.98,1742.95L636.98,1751.01L636.98,1757.73L636.98,1765.8L636.98,1776.55L638.32,1787.3L639.66,1798.05L641.01,1810.14L642.35,1816.86L642.35,1823.58L642.35,1831.64L642.35,1835.67" fill="none" stroke="#000000" style="-webkit-tap-highlight-color: rgba(0, 0, 0, 0); stroke-linecap: round; stroke-linejoin: round; stroke-width: 9;" /><path d="M857.36,385.68L856.02,385.68L857.36,382.99L862.74,378.96L872.15,373.59L885.59,366.87L899.02,358.8L913.81,350.74L932.62,344.02L951.43,337.3L979.65,326.55L989.06,322.52L995.78,319.83L997.12,318.49" fill="none" stroke="#000000" style="-webkit-tap-highlight-color: rgba(0, 0, 0, 0); stroke-linecap: round; stroke-linejoin: round; stroke-width: 9;" /><path d="M905.74,1.34L907.09,1.34L909.77,4.03L913.81,10.75L915.15,20.16L916.49,32.25L917.84,45.69L917.84,60.47L919.18,79.29L921.87,111.54L923.21,126.32L923.21,142.45L924.56,155.88L925.9,170.67L924.56,188.14L921.87,223.08L921.87,228.45L921.87,233.83L923.21,251.3L923.21,258.02L924.56,266.08L925.9,275.49L927.24,284.89L927.24,292.96L927.24,298.33L927.24,305.05L924.56,317.14L921.87,323.86L919.18,330.58L915.15,337.3L909.77,345.36L904.4,356.12" fill="none" stroke="#000000" style="-webkit-tap-highlight-color: rgba(0, 0, 0, 0); stroke-linecap: round; stroke-linejoin: round; stroke-width: 9;" /><path d="M869.46,395.09L868.12,395.09L866.77,396.43L866.77,397.77L865.43,397.77L864.08,399.12L861.4,399.12L857.36,401.81L854.68,404.49L849.3,417.93L846.61,427.34L845.27,435.4L843.93,443.46L843.93,448.84L843.93,458.25L845.27,471.69L845.27,478.4L845.27,489.15L845.27,495.87L845.27,501.25L843.93,525.44L843.93,530.81L843.93,540.22L843.93,548.28L843.93,556.35L845.27,567.1L845.27,576.5L845.27,585.91L846.61,595.32L846.61,604.72L847.96,618.16L847.96,627.57L849.3,636.98L849.3,654.45L847.96,666.54L847.96,675.95L849.3,685.35L849.3,697.45L850.65,710.89L853.33,725.67L853.33,735.08L854.68,743.14L854.68,755.23L854.68,761.95L854.68,780.77L854.68,788.83L854.68,798.24L854.68,806.3L854.68,822.43L854.68,831.83L854.68,845.27L853.33,856.02L853.33,872.15L853.33,880.21L853.33,889.62L854.68,899.02L854.68,907.09L854.68,920.52L854.68,932.62L854.68,942.03L854.68,952.78L853.33,960.84L851.99,968.9L850.65,979.65L850.65,989.06L849.3,998.47L847.96,1009.22L847.96,1017.28L846.61,1026.69L845.27,1041.47L843.93,1058.94L843.93,1071.03L842.58,1076.41L841.24,1091.19L841.24,1103.29L839.9,1120.76L839.9,1130.16L839.9,1138.23L839.9,1155.7L839.9,1183.92L839.9,1191.98L839.9,1196.01L839.9,1201.39L838.55,1212.14L838.55,1228.26L838.55,1234.98L839.9,1243.04L841.24,1251.11L843.93,1265.89L847.96,1276.64L849.3,1288.73L851.99,1299.49L854.68,1311.58L856.02,1333.08L857.36,1346.52L858.71,1357.27L860.05,1372.05L861.4,1389.52L861.4,1401.62L861.4,1413.71L861.4,1425.81L861.4,1437.9L862.74,1454.03L862.74,1464.78L864.08,1474.18L864.08,1478.22L864.08,1487.62L864.08,1510.47L864.08,1519.87L862.74,1527.94L862.74,1537.34L862.74,1548.09L864.08,1558.85L864.08,1569.6L864.08,1577.66L865.43,1585.72L866.77,1603.19L866.77,1613.94L866.77,1624.69L866.77,1632.76L866.77,1640.82L866.77,1647.54L866.77,1655.6L865.43,1665.01L865.43,1673.07L864.08,1686.51L864.08,1690.54L864.08,1695.92L864.08,1701.29L862.74,1709.35L862.74,1716.07L861.4,1724.14L861.4,1725.48L858.71,1740.26L857.36,1749.67L857.36,1757.73L856.02,1767.14L853.33,1776.55L851.99,1787.3L849.3,1822.24L849.3,1828.96L850.65,1835.67" fill="none" stroke="#000000" style="-webkit-tap-highlight-color: rgba(0, 0, 0, 0); stroke-linecap: round; stroke-linejoin: round; stroke-width: 9;" /><path d="M1080.44,748.51" fill="none" stroke="#000000" style="-webkit-tap-highlight-color: rgba(0, 0, 0, 0); stroke-linecap: round; stroke-linejoin: round; stroke-width: 9;" /><path d="M182.76,850.65L185.45,857.36L188.14,866.77L192.17,876.18L196.2,890.96L200.23,901.71L202.92,907.09L206.95,915.15L208.29,923.21L212.33,932.62L216.36,947.4L217.7,955.46L219.04,962.18L220.39,970.25L220.39,974.28L221.73,979.65L223.08,982.34L223.08,983.69L224.42,987.72L224.42,991.75L223.08,993.09L224.42,1006.53L225.76,1011.91L229.8,1021.31L232.48,1026.69L236.51,1036.09L240.55,1044.16L241.89,1050.88L244.58,1057.6L245.92,1064.31L247.27,1071.03L251.3,1079.1L253.98,1087.16L260.7,1100.6L263.39,1105.97L264.73,1107.32L264.73,1104.63L266.08,1105.97L266.08,1105.97" fill="none" stroke="#000000" style="-webkit-tap-highlight-color: rgba(0, 0, 0, 0); stroke-linecap: round; stroke-linejoin: round; stroke-width: 9;" /><path d="M157.23,724.33L155.88,721.64L155.88,720.29L154.54,716.26L155.88,718.95L157.23,721.64L158.57,727.01L161.26,735.08L163.95,744.48L166.64,757.92L170.67,771.36L172.01,787.49L176.04,802.27L180.07,813.02L184.1,841.24L185.45,853.33L185.45,861.4L186.79,870.8L188.14,880.21" fill="none" stroke="#000000" style="-webkit-tap-highlight-color: rgba(0, 0, 0, 0); stroke-linecap: round; stroke-linejoin: round; stroke-width: 9;" /><path d="M275.49,1054.91L270.11,1053.56L266.08,1053.56L264.73,1053.56L268.77,1050.88L274.14,1049.53L282.2,1045.5L301.02,1040.13L321.18,1036.09L344.02,1032.06L365.52,1029.38L387.02,1024L407.18,1018.62L428.68,1010.56L467.65,995.78L486.47,989.06L505.28,982.34L522.75,975.62L540.22,967.56L555,962.18L569.78,956.81L583.22,954.12L599.35,951.43L626.23,942.03L636.98,937.99L646.38,933.96L651.76,931.28L657.13,929.93L659.82,928.59" fill="none" stroke="#000000" style="-webkit-tap-highlight-color: rgba(0, 0, 0, 0); stroke-linecap: round; stroke-linejoin: round; stroke-width: 9;" /><path d="M251.3,1095.22L252.64,1093.88L253.98,1096.57L253.98,1105.97L253.98,1111.35L253.98,1116.72L252.64,1123.44L251.3,1131.51L249.95,1146.29L249.95,1157.04L248.61,1165.1L248.61,1174.51L247.27,1186.6L248.61,1194.67L248.61,1204.07L248.61,1212.14L248.61,1221.54L247.27,1233.64L247.27,1240.36L245.92,1247.08L245.92,1257.83L245.92,1265.89L245.92,1272.61L244.58,1284.7L241.89,1295.45L240.55,1300.83L240.55,1308.89L240.55,1320.99L239.2,1331.74L239.2,1341.14L237.86,1355.93L237.86,1358.61L237.86,1365.33L239.2,1370.71L237.86,1382.8L237.86,1396.24L237.86,1397.59L236.51,1404.3L236.51,1413.71L237.86,1431.18L237.86,1437.9L236.51,1445.96L236.51,1455.37L235.17,1462.09L233.83,1470.15L232.48,1478.22L231.14,1487.62L229.8,1495.69L228.45,1513.15L228.45,1518.53L228.45,1529.28L229.8,1542.72L229.8,1552.13L231.14,1561.53L231.14,1568.25L231.14,1574.97L231.14,1584.38L229.8,1601.85L229.8,1608.57L228.45,1615.29L227.11,1622.01L227.11,1628.72L227.11,1635.44L225.76,1642.16L225.76,1650.23L225.76,1656.94L225.76,1667.7L225.76,1679.79L225.76,1687.85L225.76,1694.57L225.76,1701.29L225.76,1708.01L225.76,1713.39L225.76,1721.45L224.42,1730.86L223.08,1741.61L221.73,1748.33L221.73,1757.73L221.73,1765.8L220.39,1775.2L217.7,1789.98L216.36,1800.73L215.01,1812.83L213.67,1824.92L212.33,1841.05" fill="none" stroke="#000000" style="-webkit-tap-highlight-color: rgba(0, 0, 0, 0); stroke-linecap: round; stroke-linejoin: round; stroke-width: 9;" /><path d="M111.54,1069.69L110.19,1068.35L106.16,1067L104.82,1065.66L104.82,1064.31L106.16,1061.63L107.51,1060.28L110.19,1057.6L116.91,1061.63L120.94,1061.63L126.32,1064.31L133.04,1064.31L138.41,1065.66L145.13,1067L153.2,1069.69L161.26,1073.72L167.98,1076.41L173.35,1075.07L177.39,1073.72L186.79,1075.07L189.48,1075.07L190.82,1075.07L192.17,1075.07L194.86,1075.07L196.2,1076.41L197.54,1076.41L200.23,1077.75L201.57,1080.44L202.92,1081.78L201.57,1084.47L200.23,1089.85L197.54,1091.19L194.86,1093.88L192.17,1099.25L185.45,1112.69L181.42,1118.07L177.39,1123.44L174.7,1130.16L172.01,1135.54L170.67,1139.57L167.98,1144.94L166.64,1147.63L163.95,1157.04L161.26,1163.76L159.92,1165.1L159.92,1166.45L159.92,1167.79L159.92,1169.13L161.26,1173.17L163.95,1175.85L163.95,1179.88L165.29,1181.23L166.64,1182.57L167.98,1183.92L170.67,1185.26L174.7,1187.95L178.73,1191.98L182.76,1190.64L186.79,1185.26L192.17,1186.6L198.89,1190.64L204.26,1194.67L209.64,1194.67L213.67,1196.01L213.67,1197.35L215.01,1198.7L215.01,1200.04L213.67,1202.73L213.67,1204.07L209.64,1214.82L209.64,1216.17L208.29,1218.86L206.95,1224.23L206.95,1230.95L206.95,1234.98L206.95,1241.7L206.95,1247.08L208.29,1252.45L208.29,1260.51L208.29,1272.61L208.29,1279.33L209.64,1284.7L210.98,1290.08L210.98,1295.45L210.98,1303.52L210.98,1308.89L210.98,1314.27L208.29,1325.02L206.95,1333.08L206.95,1341.14L205.61,1346.52L205.61,1351.9L204.26,1357.27L204.26,1362.65L202.92,1368.02L201.57,1373.4L201.57,1377.43L200.23,1386.83L198.89,1393.55L198.89,1396.24L198.89,1398.93L197.54,1400.27L196.2,1401.62L194.86,1402.96L193.51,1404.3L189.48,1405.65L186.79,1406.99L185.45,1409.68L181.42,1409.68L180.07,1409.68L174.7,1412.37L172.01,1413.71L170.67,1415.06L167.98,1416.4L166.64,1417.74L163.95,1419.09L162.6,1421.77L161.26,1424.46L161.26,1429.84L159.92,1428.49L159.92,1432.52L161.26,1440.59L161.26,1445.96L162.6,1458.06L162.6,1462.09L163.95,1467.46L162.6,1484.93L162.6,1487.62L162.6,1495.69L162.6,1503.75L161.26,1515.84L159.92,1522.56L159.92,1527.94L159.92,1534.66L158.57,1541.38L157.23,1549.44L155.88,1558.85L154.54,1568.25L153.2,1577.66L153.2,1584.38L153.2,1601.85L153.2,1609.91L153.2,1617.97L153.2,1626.04L154.54,1632.76L154.54,1638.13L155.88,1644.85L157.23,1651.57L157.23,1656.94L158.57,1667.7L159.92,1671.73L161.26,1678.45L161.26,1682.48L162.6,1687.85L162.6,1690.54L163.95,1695.92L163.95,1699.95L163.95,1702.64L163.95,1708.01L163.95,1713.39L163.95,1717.42L162.6,1721.45L162.6,1725.48L162.6,1728.17L161.26,1732.2L161.26,1740.26L159.92,1742.95L159.92,1746.98L159.92,1753.7L159.92,1760.42L158.57,1764.45L158.57,1769.83L157.23,1775.2L157.23,1780.58L154.54,1788.64L153.2,1796.7L149.17,1808.8L147.82,1814.17L147.82,1818.2L149.17,1826.27L149.17,1832.99L150.51,1837.02L151.85,1841.05" fill="none" stroke="#000000" style="-webkit-tap-highlight-color: rgba(0, 0, 0, 0); stroke-linecap: round; stroke-linejoin: round; stroke-width: 9;" /><path d="M150.51,1423.12L147.82,1423.12L145.13,1421.77L146.48,1421.77L151.85,1421.77L163.95,1423.12L172.01,1427.15L178.73,1427.15L182.76,1427.15L185.45,1427.15L186.79,1427.15L186.79,1424.46" fill="none" stroke="#000000" style="-webkit-tap-highlight-color: rgba(0, 0, 0, 0); stroke-linecap: round; stroke-linejoin: round; stroke-width: 9;" /><path d="M145.13,1435.21L143.79,1432.52L143.79,1429.84L143.79,1428.49L143.79,1427.15L142.45,1428.49L141.1,1429.84L138.41,1433.87L138.41,1436.56L137.07,1447.31L137.07,1463.43L135.73,1468.81L135.73,1478.22L133.04,1494.34L131.7,1505.09L130.35,1517.19L127.66,1525.25L124.98,1540.03L122.29,1549.44L120.94,1558.85L119.6,1568.25L119.6,1581.69L118.26,1589.75L116.91,1599.16L115.57,1608.57L114.23,1617.97L112.88,1631.41L111.54,1640.82L111.54,1648.88L111.54,1656.94L111.54,1669.04L111.54,1674.41L110.19,1683.82L108.85,1690.54L108.85,1693.23L107.51,1701.29L107.51,1709.35L106.16,1717.42L106.16,1724.14L106.16,1728.17L104.82,1742.95L103.48,1748.33L102.13,1756.39L100.79,1764.45L98.1,1772.51L98.1,1785.95L98.1,1794.02L98.1,1800.73L96.76,1810.14L95.41,1816.86L95.41,1822.24L94.07,1830.3L94.07,1839.71" fill="none" stroke="#000000" style="-webkit-tap-highlight-color: rgba(0, 0, 0, 0); stroke-linecap: round; stroke-linejoin: round; stroke-width: 9;" /></svg>