<?xml version="1.0" encoding="utf-8" ?>
<svg baseProfile="full" height="1845" version="1.1" width="1024" xmlns="http://www.w3.org/2000/svg" xmlns:ev="http://www.w3.org/2001/xml-events" xmlns:xlink="http://www.w3.org/1999/xlink"><defs /><path d="M166.32,737.02L163.06,737.02L159.8,737.02L156.54,740.28L153.27,740.28L150.01,743.54L146.75,743.54L143.49,743.54L140.23,743.54L136.97,743.54" fill="none" stroke="#000000" style="-webkit-tap-highlight-color: rgba(0, 0, 0, 0); stroke-linecap: round; stroke-linejoin: round; stroke-width: 9;" /><path d="M123.92,746.8L123.92,750.06L120.66,753.32L117.4,753.32L117.4,750.06L120.66,746.8L120.66,743.54L127.18,740.28L130.45,737.02L133.71,730.5L140.23,720.71L146.75,710.93L153.27,704.41L159.8,694.62L166.32,691.36L169.58,684.84L176.1,678.32L179.36,671.8L185.89,665.27L189.15,658.75L192.41,652.23L198.93,648.97L202.19,642.45L205.45,635.92L211.97,629.4L215.24,626.14L221.76,619.62L225.02,609.83L231.54,603.31L234.8,596.79L241.32,593.53L244.59,587.01L251.11,580.48L257.63,573.96L264.15,564.18L270.68,551.13L277.2,544.61L283.72,534.83L290.24,525.04L296.76,512L303.29,502.22L309.81,495.69L316.33,489.17L322.85,479.39L329.38,469.61L335.9,459.82L342.42,453.3L348.94,443.52L352.2,436.99L358.73,427.21L365.25,417.43L368.51,410.9L375.03,401.12L378.29,391.34L381.55,384.82L384.82,378.29L388.08,368.51L394.6,361.99L401.12,352.2L407.64,345.68L410.9,342.42L414.17,342.42L414.17,345.68L414.17,355.46L414.17,358.73" fill="none" stroke="#000000" style="-webkit-tap-highlight-color: rgba(0, 0, 0, 0); stroke-linecap: round; stroke-linejoin: round; stroke-width: 9;" /><path d="M420.69,371.77L417.43,365.25L414.17,361.99L410.9,358.73L407.64,355.46L407.64,352.2L410.9,352.2L414.17,355.46L417.43,358.73L420.69,365.25L427.21,375.03L433.73,391.34L440.25,404.38L446.78,420.69L453.3,436.99L456.56,446.78L459.82,456.56L466.34,469.61L469.61,479.39L476.13,485.91L479.39,492.43L485.91,512L489.17,521.78L492.43,531.57L498.96,538.09L502.22,544.61L508.74,554.39L512,560.92L515.26,567.44L518.52,573.96L525.04,580.48L528.31,587.01L534.83,593.53L538.09,600.05L541.35,606.57L544.61,616.36L551.13,622.88L554.39,632.66L557.66,642.45L564.18,648.97L567.44,658.75L570.7,668.54L573.96,678.32L580.48,688.1L583.75,694.62L587.01,704.41L587.01,710.93L590.27,717.45L590.27,720.71L593.53,720.71" fill="none" stroke="#000000" style="-webkit-tap-highlight-color: rgba(0, 0, 0, 0); stroke-linecap: round; stroke-linejoin: round; stroke-width: 9;" /><path d="M655.49,873.99L652.23,873.99L648.97,873.99L645.71,873.99L645.71,877.25L642.45,880.51L642.45,883.77L642.45,887.03L642.45,890.29L642.45,896.82L642.45,906.6L642.45,913.12L645.71,922.9L645.71,929.43L648.97,935.95L648.97,939.21L648.97,945.73L648.97,952.25L648.97,955.52L648.97,962.04L652.23,968.56L652.23,975.08L652.23,981.61L652.23,991.39L652.23,997.91L652.23,1007.69L652.23,1014.22L652.23,1024L652.23,1033.78L652.23,1043.57L652.23,1053.35L652.23,1063.13L652.23,1072.92L652.23,1082.7L652.23,1092.48L648.97,1105.53L648.97,1115.31L645.71,1128.36L642.45,1144.66L642.45,1154.45L639.18,1167.49L635.92,1180.54L632.66,1193.58L629.4,1206.62L629.4,1219.67L626.14,1229.45L626.14,1242.5L626.14,1252.28L626.14,1265.32L626.14,1278.37L626.14,1288.15L626.14,1297.94L626.14,1310.98L626.14,1320.76L626.14,1330.55L626.14,1343.59L626.14,1356.64L626.14,1366.42L626.14,1379.46L626.14,1389.25L626.14,1402.29L626.14,1415.34L626.14,1428.38L629.4,1460.99L629.4,1477.3L629.4,1496.87L629.4,1516.43L629.4,1536L629.4,1555.57L626.14,1575.13L626.14,1591.44L626.14,1607.75L622.88,1624.05L622.88,1640.36L622.88,1656.66L622.88,1676.23L622.88,1695.8L622.88,1715.36L622.88,1734.93L622.88,1754.5L626.14,1774.06L626.14,1796.89L626.14,1809.94L626.14,1826.24L626.14,1836.03L622.88,1845.81" fill="none" stroke="#000000" style="-webkit-tap-highlight-color: rgba(0, 0, 0, 0); stroke-linecap: round; stroke-linejoin: round; stroke-width: 9;" /><path d="M120.66,727.24L117.4,730.5L114.14,730.5L114.14,733.76L114.14,737.02L114.14,740.28L117.4,740.28L117.4,743.54L120.66,750.06L120.66,756.59L120.66,766.37L117.4,779.41L117.4,798.98L117.4,818.55L114.14,838.11L110.88,857.68L110.88,877.25L107.62,896.82L107.62,916.38L104.36,935.95L101.1,952.25L101.1,968.56L97.83,984.87L97.83,1001.17L94.57,1017.48L94.57,1033.78L91.31,1046.83L88.05,1063.13L84.79,1079.44L81.53,1099.01L78.27,1118.57L75.01,1138.14L71.75,1154.45L68.48,1174.01L68.48,1187.06L65.22,1203.36L65.22,1219.67L61.96,1232.71L61.96,1249.02L61.96,1265.32L58.7,1281.63L55.44,1297.94L52.18,1314.24L48.92,1330.55L42.39,1353.38L32.61,1376.2L26.09,1399.03L16.31,1418.6L13.04,1438.17L9.78,1454.47L6.52,1474.04L6.52,1493.61L3.26,1513.17L3.26,1532.74L0,1552.31L0,1568.61L0,1584.92" fill="none" stroke="#000000" style="-webkit-tap-highlight-color: rgba(0, 0, 0, 0); stroke-linecap: round; stroke-linejoin: round; stroke-width: 9;" /><path d="M935.95,71.75L939.21,68.48L939.21,65.22L939.21,61.96L942.47,55.44L948.99,48.92L958.78,42.39L965.3,35.87L971.82,32.61" fill="none" stroke="#000000" style="-webkit-tap-highlight-color: rgba(0, 0, 0, 0); stroke-linecap: round; stroke-linejoin: round; stroke-width: 9;" /><path d="M247.85,150.01L244.59,150.01L241.32,146.75L238.06,143.49L238.06,140.23L234.8,136.97L238.06,143.49L238.06,153.27L238.06,166.32L238.06,179.36L238.06,195.67L234.8,211.97L234.8,225.02L234.8,231.54L234.8,238.06L238.06,241.32L244.59,241.32L251.11,241.32L257.63,244.59L264.15,247.85L273.94,251.11L283.72,254.37L293.5,257.63L303.29,260.89L316.33,267.41L326.11,270.68L339.16,273.94L348.94,277.2L361.99,277.2L375.03,280.46L388.08,280.46L401.12,283.72L414.17,286.98L427.21,290.24L436.99,296.76L450.04,300.03L459.82,300.03L472.87,303.29L482.65,303.29L492.43,303.29L515.26,303.29L525.04,306.55L528.31,306.55L531.57,306.55L534.83,303.29L534.83,300.03L534.83,293.5L534.83,286.98L531.57,273.94L525.04,260.89L515.26,241.32L505.48,228.28L498.96,218.5L492.43,211.97L485.91,211.97L476.13,215.24L466.34,218.5L456.56,225.02L446.78,228.28L433.73,231.54L420.69,231.54L404.38,231.54L391.34,228.28L375.03,221.76L365.25,215.24L355.46,208.71L345.68,202.19L335.9,198.93L329.38,192.41L319.59,185.89L313.07,182.62L309.81,176.1L306.55,169.58L303.29,163.06L300.03,159.8L296.76,159.8L290.24,156.54L283.72,156.54L273.94,156.54L264.15,156.54L257.63,156.54L251.11,153.27L247.85,153.27L251.11,153.27L264.15,153.27L273.94,150.01" fill="none" stroke="#000000" style="-webkit-tap-highlight-color: rgba(0, 0, 0, 0); stroke-linecap: round; stroke-linejoin: round; stroke-width: 9;" /><path d="M361.99,202.19L358.73,202.19L352.2,198.93L352.2,195.67L348.94,189.15L348.94,179.36L348.94,169.58L348.94,150.01L348.94,130.45L352.2,110.88L352.2,91.31L355.46,84.79L358.73,81.53L365.25,84.79L368.51,84.79" fill="none" stroke="#000000" style="-webkit-tap-highlight-color: rgba(0, 0, 0, 0); stroke-linecap: round; stroke-linejoin: round; stroke-width: 9;" /><path d="M583.75,397.86L577.22,401.12L573.96,404.38L570.7,407.64L570.7,410.9L573.96,410.9L583.75,414.17L593.53,417.43L603.31,420.69L619.62,427.21L642.45,430.47L668.54,436.99L688.1,443.52L707.67,450.04L723.97,456.56L737.02,459.82L743.54,459.82L750.06,463.08L753.32,466.34L756.59,466.34" fill="none" stroke="#000000" style="-webkit-tap-highlight-color: rgba(0, 0, 0, 0); stroke-linecap: round; stroke-linejoin: round; stroke-width: 9;" /><path d="M694.62,688.1L688.1,688.1L684.84,688.1L681.58,688.1L675.06,691.36L675.06,694.62L675.06,697.89L678.32,697.89L684.84,694.62L697.89,694.62L717.45,694.62L743.54,694.62L766.37,701.15L779.41,707.67L789.2,714.19L792.46,723.97L795.72,727.24L795.72,730.5" fill="none" stroke="#000000" style="-webkit-tap-highlight-color: rgba(0, 0, 0, 0); stroke-linecap: round; stroke-linejoin: round; stroke-width: 9;" /><path d="M746.8,821.81L743.54,825.07L753.32,828.33L776.15,831.59L802.24,834.85L821.81,838.11L834.85,841.38L838.11,841.38" fill="none" stroke="#000000" style="-webkit-tap-highlight-color: rgba(0, 0, 0, 0); stroke-linecap: round; stroke-linejoin: round; stroke-width: 9;" /><path d="M1001.17,1040.31L997.91,1040.31L994.65,1037.04L991.39,1037.04L988.13,1037.04L984.87,1037.04L978.34,1037.04L971.82,1037.04L968.56,1037.04L962.04,1040.31L955.52,1043.57L948.99,1050.09L942.47,1059.87L939.21,1072.92L935.95,1089.22L929.43,1105.53L926.17,1121.83L922.9,1138.14L922.9,1151.18L919.64,1160.97L922.9,1167.49L929.43,1170.75L939.21,1170.75L955.52,1170.75L975.08,1160.97L994.65,1147.92L1014.22,1131.62" fill="none" stroke="#000000" style="-webkit-tap-highlight-color: rgba(0, 0, 0, 0); stroke-linecap: round; stroke-linejoin: round; stroke-width: 9;" /><path d="M1020.74,1037.04L1010.96,1027.26L994.65,1024L978.34,1024L962.04,1027.26L945.73,1037.04L932.69,1046.83L922.9,1063.13L916.38,1076.18L916.38,1092.48L916.38,1102.27L916.38,1112.05L922.9,1118.57L932.69,1125.1" fill="none" stroke="#000000" style="-webkit-tap-highlight-color: rgba(0, 0, 0, 0); stroke-linecap: round; stroke-linejoin: round; stroke-width: 9;" /><path d="M192.41,1076.18L192.41,1079.44L189.15,1082.7L185.89,1085.96L182.62,1092.48L182.62,1095.75L179.36,1099.01L179.36,1102.27L176.1,1102.27L176.1,1105.53L172.84,1112.05L172.84,1115.31L166.32,1121.83L163.06,1128.36L159.8,1134.88L153.27,1144.66L150.01,1147.92L146.75,1154.45L146.75,1157.71L143.49,1157.71L143.49,1160.97L143.49,1157.71L146.75,1157.71L146.75,1160.97L143.49,1167.49L143.49,1170.75L140.23,1174.01L140.23,1177.27L136.97,1177.27L136.97,1180.54L136.97,1177.27L140.23,1177.27L143.49,1177.27L146.75,1174.01L150.01,1174.01L156.54,1174.01L163.06,1174.01L169.58,1174.01L179.36,1177.27L185.89,1180.54L192.41,1183.8L198.93,1183.8L202.19,1183.8L205.45,1180.54L208.71,1177.27L211.97,1174.01L215.24,1174.01" fill="none" stroke="#000000" style="-webkit-tap-highlight-color: rgba(0, 0, 0, 0); stroke-linecap: round; stroke-linejoin: round; stroke-width: 9;" /><path d="M211.97,1177.27L208.71,1177.27L205.45,1177.27L202.19,1177.27L202.19,1180.54" fill="none" stroke="#000000" style="-webkit-tap-highlight-color: rgba(0, 0, 0, 0); stroke-linecap: round; stroke-linejoin: round; stroke-width: 9;" /><path d="M195.67,1200.1L192.41,1200.1L189.15,1196.84L189.15,1193.58L189.15,1196.84L189.15,1200.1L189.15,1203.36L185.89,1209.89L185.89,1213.15L185.89,1219.67L185.89,1226.19L185.89,1232.71L185.89,1239.24L185.89,1242.5L185.89,1249.02L185.89,1258.8L185.89,1265.32L189.15,1271.85L189.15,1281.63L192.41,1288.15L195.67,1294.68L195.67,1301.2L198.93,1307.72L198.93,1314.24L202.19,1320.76L202.19,1327.29L202.19,1333.81L202.19,1337.07L198.93,1340.33L198.93,1343.59L198.93,1346.85L202.19,1346.85L202.19,1350.11L205.45,1350.11L208.71,1350.11L211.97,1350.11L215.24,1353.38L215.24,1356.64L218.5,1356.64L218.5,1359.9L218.5,1366.42L218.5,1369.68L218.5,1372.94L218.5,1376.2L215.24,1379.46L211.97,1385.99L205.45,1395.77L202.19,1402.29L198.93,1408.82L195.67,1415.34L192.41,1421.86L189.15,1428.38L189.15,1431.64L185.89,1438.17L185.89,1444.69L182.62,1447.95L179.36,1454.47L179.36,1460.99L176.1,1470.78L176.1,1477.3L176.1,1483.82L172.84,1490.34L172.84,1500.13L172.84,1506.65L172.84,1513.17L172.84,1522.96L172.84,1532.74L169.58,1542.52L169.58,1552.31L169.58,1562.09L169.58,1575.13L169.58,1584.92L169.58,1597.96L169.58,1614.27L169.58,1630.57L169.58,1646.88L169.58,1659.92L169.58,1676.23L166.32,1689.27L166.32,1708.84L163.06,1725.15L163.06,1744.71L163.06,1761.02L163.06,1777.32L163.06,1793.63L159.8,1806.68L159.8,1819.72L156.54,1832.76L156.54,1842.55" fill="none" stroke="#000000" style="-webkit-tap-highlight-color: rgba(0, 0, 0, 0); stroke-linecap: round; stroke-linejoin: round; stroke-width: 9;" /><path d="M78.27,1053.35L75.01,1056.61L71.75,1056.61L71.75,1059.87L68.48,1059.87L75.01,1063.13L78.27,1063.13L84.79,1063.13L94.57,1063.13L101.1,1063.13L110.88,1063.13L120.66,1066.39L130.45,1066.39L140.23,1069.66L146.75,1069.66L156.54,1069.66L163.06,1069.66L166.32,1069.66L172.84,1072.92L176.1,1072.92L176.1,1076.18L179.36,1076.18" fill="none" stroke="#000000" style="-webkit-tap-highlight-color: rgba(0, 0, 0, 0); stroke-linecap: round; stroke-linejoin: round; stroke-width: 9;" /><path d="M851.16,952.25L851.16,955.52L847.9,955.52L844.64,955.52L844.64,952.25L844.64,948.99L844.64,942.47L847.9,932.69L847.9,922.9L847.9,916.38L847.9,909.86L847.9,903.34L847.9,893.55L847.9,887.03L847.9,880.51L847.9,877.25L847.9,870.73L847.9,864.2L847.9,857.68L847.9,844.64L844.64,834.85L844.64,825.07L844.64,818.55L841.38,815.29L841.38,812.03L841.38,805.5L841.38,802.24L841.38,798.98L841.38,795.72L841.38,789.2L841.38,785.94L841.38,779.41L841.38,776.15L841.38,772.89L841.38,766.37L844.64,759.85L844.64,753.32L844.64,750.06L844.64,740.28L844.64,733.76L844.64,727.24L844.64,720.71L844.64,714.19L844.64,704.41L844.64,697.89L844.64,688.1L844.64,681.58L844.64,671.8L844.64,665.27L844.64,655.49L844.64,648.97L844.64,642.45L844.64,632.66L844.64,626.14L844.64,616.36L844.64,609.83L844.64,603.31L844.64,596.79L844.64,590.27L844.64,583.75L844.64,577.22L844.64,570.7L844.64,564.18L844.64,557.66L844.64,551.13L844.64,544.61L844.64,538.09L844.64,528.31L844.64,521.78L844.64,515.26L844.64,508.74L841.38,505.48L841.38,495.69L841.38,489.17L838.11,479.39L838.11,472.87L838.11,466.34L834.85,456.56L834.85,450.04L834.85,440.25L834.85,433.73L838.11,423.95L841.38,414.17L844.64,407.64L847.9,404.38L851.16,397.86L854.42,397.86L857.68,394.6L860.94,391.34L867.46,391.34L870.73,388.08L873.99,384.82L877.25,384.82L880.51,384.82L883.77,381.55L890.29,381.55L893.55,381.55L896.82,378.29L903.34,378.29L906.6,375.03L913.12,371.77L916.38,368.51L919.64,365.25L926.17,358.73L929.43,355.46L932.69,348.94L935.95,342.42L939.21,335.9L939.21,329.38L942.47,319.59L942.47,313.07L945.73,303.29L945.73,300.03L945.73,293.5L945.73,290.24L945.73,283.72L945.73,277.2L945.73,270.68L945.73,267.41L945.73,257.63L945.73,251.11L945.73,244.59L945.73,234.8L942.47,228.28L939.21,225.02L939.21,218.5L935.95,211.97L932.69,205.45L932.69,198.93L932.69,195.67L929.43,189.15L929.43,182.62L926.17,179.36L922.9,172.84L919.64,166.32L916.38,159.8L913.12,153.27L913.12,146.75L909.86,140.23L906.6,136.97L900.08,120.66L896.82,110.88L896.82,101.1L893.55,91.31L893.55,81.53L893.55,75.01L893.55,68.48L896.82,61.96L896.82,55.44L900.08,48.92L900.08,39.13L903.34,32.61L903.34,26.09L903.34,19.57L906.6,13.04L909.86,3.26" fill="none" stroke="#000000" style="-webkit-tap-highlight-color: rgba(0, 0, 0, 0); stroke-linecap: round; stroke-linejoin: round; stroke-width: 9;" /><path d="M838.11,932.69L834.85,932.69L834.85,939.21L834.85,942.47L834.85,952.25L838.11,962.04L838.11,971.82L841.38,984.87L841.38,997.91L844.64,1014.22L844.64,1027.26L844.64,1040.31L844.64,1053.35L844.64,1066.39L844.64,1079.44L844.64,1095.75L844.64,1108.79L844.64,1121.83L844.64,1131.62L844.64,1144.66L844.64,1154.45L844.64,1164.23L844.64,1174.01L844.64,1187.06L844.64,1196.84L841.38,1203.36L841.38,1213.15L838.11,1219.67L838.11,1226.19L838.11,1232.71L834.85,1242.5L834.85,1249.02L834.85,1258.8L834.85,1265.32L834.85,1275.11L834.85,1284.89L834.85,1294.68L834.85,1301.2L834.85,1307.72L834.85,1317.5L831.59,1327.29L831.59,1337.07L828.33,1346.85L828.33,1359.9L825.07,1369.68L825.07,1382.73L821.81,1399.03L818.55,1412.08L818.55,1425.12L815.29,1438.17L815.29,1451.21L815.29,1460.99L815.29,1477.3L815.29,1490.34L815.29,1503.39L815.29,1513.17L815.29,1526.22L815.29,1539.26L815.29,1555.57L812.03,1565.35L812.03,1575.13L808.76,1584.92L808.76,1594.7L808.76,1604.48L805.5,1614.27L805.5,1624.05L805.5,1630.57L808.76,1640.36L808.76,1646.88L812.03,1650.14L812.03,1653.4L815.29,1653.4L818.55,1656.66L821.81,1656.66L825.07,1659.92L828.33,1663.18L831.59,1666.45L834.85,1672.97L841.38,1679.49L844.64,1689.27L847.9,1699.06L847.9,1705.58L851.16,1715.36L854.42,1728.41L857.68,1738.19L857.68,1747.97L857.68,1754.5L857.68,1764.28L857.68,1770.8L857.68,1777.32L860.94,1787.11L860.94,1796.89L860.94,1806.68L864.2,1813.2L864.2,1822.98L864.2,1832.76L864.2,1839.29L864.2,1845.81" fill="none" stroke="#000000" style="-webkit-tap-highlight-color: rgba(0, 0, 0, 0); stroke-linecap: round; stroke-linejoin: round; stroke-width: 9;" /><path d="M867.46,1845.81" fill="none" stroke="#000000" style="-webkit-tap-highlight-color: rgba(0, 0, 0, 0); stroke-linecap: round; stroke-linejoin: round; stroke-width: 9;" /><path d="M645.71,1235.97L642.45,1235.97L639.18,1235.97L635.92,1239.24L642.45,1239.24L652.23,1235.97L662.01,1235.97L671.8,1232.71L681.58,1232.71L694.62,1232.71L704.41,1229.45L717.45,1229.45L727.24,1229.45L740.28,1232.71L750.06,1232.71L759.85,1235.97L766.37,1235.97L772.89,1232.71L782.68,1226.19L785.94,1222.93L792.46,1219.67L795.72,1219.67L798.98,1222.93L798.98,1226.19L798.98,1229.45" fill="none" stroke="#000000" style="-webkit-tap-highlight-color: rgba(0, 0, 0, 0); stroke-linecap: round; stroke-linejoin: round; stroke-width: 9;" /><path d="M629.4,1402.29L626.14,1402.29L622.88,1402.29L619.62,1402.29L616.36,1402.29L616.36,1399.03L622.88,1392.51L632.66,1385.99L642.45,1379.46L652.23,1372.94L662.01,1366.42L675.06,1363.16L688.1,1363.16L704.41,1366.42L717.45,1366.42L727.24,1369.68L740.28,1369.68L750.06,1369.68L763.11,1372.94L772.89,1376.2L782.68,1376.2L792.46,1379.46L802.24,1379.46L812.03,1382.73L818.55,1385.99L825.07,1389.25L828.33,1395.77L831.59,1399.03L831.59,1405.55L831.59,1408.82L828.33,1412.08L818.55,1415.34L812.03,1421.86L802.24,1425.12L789.2,1431.64L772.89,1438.17L756.59,1444.69L737.02,1451.21L723.97,1454.47L704.41,1454.47L691.36,1457.73L681.58,1460.99L671.8,1460.99L658.75,1464.25L639.18,1464.25L622.88,1457.73L613.1,1451.21L606.57,1444.69L603.31,1441.43L603.31,1434.9L600.05,1431.64L596.79,1425.12L593.53,1418.6L593.53,1412.08L593.53,1405.55L593.53,1402.29L596.79,1395.77L603.31,1389.25L613.1,1382.73L629.4,1376.2L645.71,1372.94L662.01,1366.42L671.8,1363.16L684.84,1363.16L691.36,1363.16" fill="none" stroke="#000000" style="-webkit-tap-highlight-color: rgba(0, 0, 0, 0); stroke-linecap: round; stroke-linejoin: round; stroke-width: 9;" /><path d="M772.89,1496.87L776.15,1493.61L776.15,1490.34L772.89,1487.08L766.37,1487.08L759.85,1483.82L753.32,1483.82L740.28,1483.82L723.97,1483.82L701.15,1483.82L678.32,1483.82L658.75,1483.82L642.45,1490.34L632.66,1496.87L622.88,1503.39L613.1,1513.17L603.31,1522.96L596.79,1536L590.27,1542.52L590.27,1549.04L593.53,1558.83L600.05,1565.35L609.83,1568.61L626.14,1571.87L645.71,1571.87L671.8,1568.61L701.15,1565.35L730.5,1558.83L756.59,1555.57L776.15,1549.04L789.2,1542.52L798.98,1536L802.24,1529.48L802.24,1519.69L789.2,1509.91L769.63,1503.39L743.54,1496.87L717.45,1493.61L704.41,1500.13L701.15,1506.65L701.15,1513.17L704.41,1516.43" fill="none" stroke="#000000" style="-webkit-tap-highlight-color: rgba(0, 0, 0, 0); stroke-linecap: round; stroke-linejoin: round; stroke-width: 9;" /><path d="M244.59,1089.22L241.32,1085.96L244.59,1085.96L247.85,1085.96L257.63,1082.7L267.41,1079.44L277.2,1076.18L293.5,1072.92L306.55,1072.92L316.33,1069.66L326.11,1066.39L335.9,1066.39L345.68,1063.13L355.46,1056.61L361.99,1053.35L368.51,1046.83L378.29,1043.57L384.82,1040.31L394.6,1033.78L404.38,1030.52L414.17,1027.26L423.95,1024L433.73,1020.74L443.52,1020.74L453.3,1017.48L463.08,1014.22L472.87,1010.96L479.39,1007.69L489.17,1004.43L495.69,1001.17L505.48,994.65L512,991.39L521.78,984.87L531.57,984.87L544.61,981.61L557.66,978.34L570.7,975.08L583.75,975.08L593.53,971.82L600.05,968.56L606.57,965.3L613.1,958.78L619.62,955.52L626.14,948.99L632.66,945.73L639.18,939.21L642.45,939.21L639.18,939.21" fill="none" stroke="#000000" style="-webkit-tap-highlight-color: rgba(0, 0, 0, 0); stroke-linecap: round; stroke-linejoin: round; stroke-width: 9;" /><path d="M123.92,733.76L120.66,733.76L117.4,733.76L117.4,737.02L117.4,740.28L120.66,746.8L120.66,753.32L123.92,759.85L130.45,766.37L136.97,779.41L140.23,789.2L146.75,805.5L150.01,818.55L156.54,828.33L163.06,841.38L166.32,854.42L172.84,864.2L176.1,877.25L179.36,883.77L185.89,890.29L192.41,900.08L195.67,906.6L198.93,916.38L205.45,926.17L208.71,935.95L211.97,942.47L211.97,952.25L215.24,958.78L218.5,968.56L221.76,975.08L228.28,984.87L231.54,991.39L238.06,1001.17L244.59,1010.96L247.85,1020.74L251.11,1030.52L254.37,1040.31L257.63,1046.83L257.63,1050.09L260.89,1053.35L260.89,1050.09L260.89,1046.83L264.15,1043.57" fill="none" stroke="#000000" style="-webkit-tap-highlight-color: rgba(0, 0, 0, 0); stroke-linecap: round; stroke-linejoin: round; stroke-width: 9;" /><path d="M270.68,1118.57L267.41,1118.57L264.15,1118.57L260.89,1118.57L260.89,1121.83L260.89,1125.1L260.89,1128.36L260.89,1134.88L260.89,1141.4L260.89,1151.18L260.89,1160.97L264.15,1170.75L264.15,1180.54L264.15,1190.32L264.15,1196.84L264.15,1206.62L264.15,1213.15L264.15,1219.67L264.15,1226.19L264.15,1235.97L264.15,1242.5L264.15,1252.28L264.15,1265.32L264.15,1271.85L264.15,1284.89L260.89,1294.68L260.89,1304.46L260.89,1317.5L260.89,1330.55L260.89,1340.33L260.89,1353.38L260.89,1366.42L257.63,1379.46L257.63,1392.51L254.37,1412.08L247.85,1431.64L244.59,1451.21L241.32,1467.52L238.06,1483.82L238.06,1496.87L238.06,1513.17L238.06,1526.22L238.06,1539.26L238.06,1552.31L238.06,1562.09L238.06,1571.87L238.06,1581.66L238.06,1594.7L234.8,1607.75L231.54,1620.79L228.28,1633.83L221.76,1646.88L221.76,1659.92L218.5,1676.23L215.24,1686.01L215.24,1699.06L215.24,1708.84L215.24,1715.36L215.24,1721.89L215.24,1728.41L215.24,1734.93L215.24,1741.45L215.24,1751.24L211.97,1764.28L211.97,1780.59L208.71,1793.63L208.71,1806.68L205.45,1832.76L205.45,1839.29L205.45,1842.55" fill="none" stroke="#000000" style="-webkit-tap-highlight-color: rgba(0, 0, 0, 0); stroke-linecap: round; stroke-linejoin: round; stroke-width: 9;" /><path d="M202.19,1845.81" fill="none" stroke="#000000" style="-webkit-tap-highlight-color: rgba(0, 0, 0, 0); stroke-linecap: round; stroke-linejoin: round; stroke-width: 9;" /></svg>