<?xml version="1.0" encoding="utf-8" ?>
<svg baseProfile="full" height="1845" version="1.1" width="1024" xmlns="http://www.w3.org/2000/svg" xmlns:ev="http://www.w3.org/2001/xml-events" xmlns:xlink="http://www.w3.org/1999/xlink"><defs /><path d="M120.66,753.32L117.4,753.32L117.4,756.59L114.14,756.59L114.14,753.32L117.4,753.32L117.4,750.06L120.66,750.06" fill="none" stroke="#000000" style="-webkit-tap-highlight-color: rgba(0, 0, 0, 0); stroke-linecap: round; stroke-linejoin: round; stroke-width: 9;" /><path d="M114.14,776.15L111,773L114,773L111,770L114,766L117,763L117,760L117,760L125,749L126,747L127,740L136,730L140,726L143,721L149,712L153,708L157,701L160,698L165,692L177,678L172,685L179,675L186,665L185,669L196,662L199,654L202,652L209,645L212,641L214,637L217,633L219,630L224,624L226,621L236,608L230,616L240,603L246,595L251,587L255,581L258,575L266,561L272,556L280,549L286,540L300,522L293,528" fill="none" stroke="#000000" style="-webkit-tap-highlight-color: rgba(0, 0, 0, 0); stroke-linecap: round; stroke-linejoin: round; stroke-width: 9;" /><path d="M306,514L311,507L315,499L320,492L331,477L324,483L341,464L336,469L344,460L353,449L354,447L372,447L375,440L378,434L385,427L388,421L383,405L404,395L389,394L411,385L421,375L443.52,345.68L427,365L437,352L444,349L447,349L456,331L447,349L453,327L456,331L444,349L447,349L440,350L444,349L444,349L447,349L447,349L450,349L450,352L450,355L456,357L450,364L450,363L456,372L454,371L460,384L458,374L463,394L460,388L465,401L466,407L469,415L471,424L474,430L476,435L476,443L481,446L481,452L485,459L485,461L488,464L491,471L492,473L495,478L498,485L499,494L499,494L499,494L503,499L504,500L506,502L509,515L509,515L512,526L514,528L512,526L518,533L517,546L521,552L519,548L527,558L529,562L530,566L532,574L539,584L534,577L541,585L546,595L550,598L559,609L561,610L561,615L564,620L566,625L571,636L568,633L575,643L574,650L578,665L578,654L579,672L580,677L583,685L584,691L589,699L587,710L587,721L589,727" fill="none" stroke="#000000" style="-webkit-tap-highlight-color: rgba(0, 0, 0, 0); stroke-linecap: round; stroke-linejoin: round; stroke-width: 9;" /><path d="M590,744L590,736L590,753L590,760L590,767L596,776L602,783L602,790L608,799L602,792L607,802L610,809L612,815L613,818L613,824L618,832L611,828L617,838L622,844L624,848L626,853L628,867L627,856L628,871L631,877L634,883L636,886L638,890" fill="none" stroke="#000000" style="-webkit-tap-highlight-color: rgba(0, 0, 0, 0); stroke-linecap: round; stroke-linejoin: round; stroke-width: 9;" /><path d="M110.88,750.06" fill="none" stroke="#000000" style="-webkit-tap-highlight-color: rgba(0, 0, 0, 0); stroke-linecap: round; stroke-linejoin: round; stroke-width: 9;" /><path d="M642,900L640,893L646,911L644,903L648,913L652,919L650,926L659,936L654,929L662,941L662,946" fill="none" stroke="#000000" style="-webkit-tap-highlight-color: rgba(0, 0, 0, 0); stroke-linecap: round; stroke-linejoin: round; stroke-width: 9;" /><path d="M106,751L103,750L101,749L97,750L97,753L94,760L95,756L95,766L98,773L97,782L99,790L100,799L101,808L101,818L101,828L101,835L101,840L101,852L102,845L101,862L101,854L98,866L98,870L95,877L91,893L92,890L95,884L91,900L87,903L88,909L85,911L82,925L82,920L82,928L79,934L80,942L78,949L78,946L78,955L79,959L77,965L76,972L78,971L78,981L85,991L82,988L85,998L88,1005L88,1025L88,1011L88,1017L89,1030L88,1034L88,1039L88,1046L88,1053L89,1060L87,1066L86,1072L85,1076L84,1082L82,1091L81,1098L80,1105L80,1109L80,1113L79,1120L77,1128L77,1134L77,1145L77,1151L75,1159L73,1167L73,1172L72,1184L62,1197L62,1197L62,1197L69,1217L69,1217L69,1217L68,1223L67,1229L67,1233L64,1249L65,1239L64,1250L57,1272L57,1272L57,1272L55,1272L44,1288L44,1288L46,1306L48,1311L51,1316L51,1316L46,1339L47,1344" fill="none" stroke="#000000" style="-webkit-tap-highlight-color: rgba(0, 0, 0, 0); stroke-linecap: round; stroke-linejoin: round; stroke-width: 9;" /><path d="M45,1353L42,1363L40,1372L39,1382L42,1396L42,1406L36,1415L37,1416L36,1412L26,1440L26,1440L26,1441L28,1446L25,1457L25,1457L25,1468L24,1470L24,1470L16,1484L16,1484L16,1484L12,1494L12,1494L12,1494L12,1494L15,1519L20,1507L15,1519L15,1519L13,1520L15,1519L13,1526L13,1523L10,1523L12,1529L12,1533L10,1536L7,1543L7,1545L5,1547L7,1562" fill="none" stroke="#000000" style="-webkit-tap-highlight-color: rgba(0, 0, 0, 0); stroke-linecap: round; stroke-linejoin: round; stroke-width: 9;" /><path d="M84.79,1066.39" fill="none" stroke="#000000" style="-webkit-tap-highlight-color: rgba(0, 0, 0, 0); stroke-linecap: round; stroke-linejoin: round; stroke-width: 9;" /><path d="M7,1573L7,1575L10,1593L8,1585L3,1611L3,1611L7,1620L7,1620L7,1620L10,1639L10,1639L10,1639L9,1639L8,1647L3,1654L2,1656" fill="none" stroke="#000000" style="-webkit-tap-highlight-color: rgba(0, 0, 0, 0); stroke-linecap: round; stroke-linejoin: round; stroke-width: 9;" /><path d="M3,1671" fill="none" stroke="#000000" style="-webkit-tap-highlight-color: rgba(0, 0, 0, 0); stroke-linecap: round; stroke-linejoin: round; stroke-width: 9;" /><path d="M86,1063L86,1061L89,1060L89,1060L99,1058L103,1060L108,1062L123,1064L130,1064L132,1070L150,1075L143,1069L162,1073L165,1073L172,1077L179,1075L177,1075L181,1075L188,1077L190,1078L192,1079L194,1081L192,1087L189,1089L189.15,1089.22L190,1088L188,1089L186,1090L186,1093L186,1094L182,1098L189,1109L186,1114L183,1120L180,1125L175,1134L172,1140L168,1146L165,1151L162,1156L163,1154L160,1163" fill="none" stroke="#000000" style="-webkit-tap-highlight-color: rgba(0, 0, 0, 0); stroke-linecap: round; stroke-linejoin: round; stroke-width: 9;" /><path d="M159,1165L159,1167L159,1167L163,1166L159.8,1187.06L157,1187L169,1193L169,1193L173,1192L179,1193L192,1187L199,1187L206,1195L202,1187" fill="none" stroke="#000000" style="-webkit-tap-highlight-color: rgba(0, 0, 0, 0); stroke-linecap: round; stroke-linejoin: round; stroke-width: 9;" /><path d="M208,1200L215.24,1196.84L214,1202L214,1202L206,1197L208,1200L205,1196L205,1200L205,1204L206,1213L205,1209L204,1224L203,1229L204,1237L202,1250L204,1258L204,1265L205,1278L205,1274L205,1285L209,1288L209,1298L209,1295L210,1303L208,1308L209,1313L209,1318L204,1324L204,1325L198,1339L198,1334L198,1340L198,1342L195,1349L194,1351L193,1354L192,1354L192,1366L192,1373L189,1376L186,1383L181,1405L178,1408L186,1393L179,1416L178,1422L178,1422L175,1432L176,1437L176,1437L175,1441L174,1450L174,1451L174,1454L174,1456L174,1456L171,1463L170,1465L175,1479L175,1479L173,1484L173,1487L170,1497L173,1494L170,1503L169,1507L169,1510L170,1520L171,1516L171,1526L170,1529L170,1537L169,1539L170,1545L170,1551L175,1556L171,1566L172,1562L176,1581L173,1572L174,1575L173,1584L171,1596L171,1598L171,1591L171,1600L170,1614L170,1611L170,1618L169,1627L169,1634" fill="none" stroke="#000000" style="-webkit-tap-highlight-color: rgba(0, 0, 0, 0); stroke-linecap: round; stroke-linejoin: round; stroke-width: 9;" /><path d="M168,1640L168,1642L168,1651L168,1651L168,1660L168,1660L168,1660L179,1676L179,1683L165,1687L166,1696L166,1697L176,1712L176,1719L176,1725L176,1732L176,1738L176,1754L176,1748L176,1764L173,1774L173,1784L173,1790L170,1800L170,1810L157,1831L155,1824L157,1831L157,1831L151,1841" fill="none" stroke="#000000" style="-webkit-tap-highlight-color: rgba(0, 0, 0, 0); stroke-linecap: round; stroke-linejoin: round; stroke-width: 9;" /><path d="M626.14,948.99L624,942L624,946L624,939L621,939L622,943L624,946L623,946L631,947L630,956L637,962L640,975L639,988L644,1001L641,1014L643,1037L643,1028L642,1046L642,1069L641,1075L642,1056L641,1084L642,1088L642,1095L638,1099L639,1105L638,1117L635,1128L635,1122L638,1112L636,1135L635,1148L638,1141L633,1154L635,1163L634,1171L633,1181L633,1186L633,1194L631,1210L633,1203L630,1213L628,1222L619,1234L628,1222L628,1219L620,1240L620,1240L620,1240L628,1254L626,1254L626,1254L626,1256L625,1261L624,1262L620,1269L619,1271L623,1265L611,1291L616,1275L615,1282L612,1285L611,1299L609,1301L609,1307L612,1314L610,1318L613,1325L614,1321L617,1332L616,1334L616,1337L616,1347L618,1344L617,1357L616,1363L614,1370L610,1375L615,1383L599,1387L615,1384L598,1393L598,1394L597,1397L610,1402L610,1406L610,1409L613,1412L613,1415L613,1419L613,1422L610,1425L610,1422L607,1438L608,1439L610,1447L609,1451L607,1456L609,1463L607,1468L606,1469L603,1473L602,1481L601,1484L601,1487L602,1491L604,1496L601,1499L603,1504L604,1507L603,1508L603,1508L610,1523L610,1529L616,1544L616,1544L614,1546L614,1546L614,1546L613,1559L614,1558L616,1558" fill="none" stroke="#000000" style="-webkit-tap-highlight-color: rgba(0, 0, 0, 0); stroke-linecap: round; stroke-linejoin: round; stroke-width: 9;" /><path d="M620,1562L623,1562L625,1565L628,1568L636,1575L633,1577L636,1585L636,1591L635,1595L632,1611L633,1605L634,1614L633,1620L632,1631L631,1637L629,1643L626,1648L626,1653L626,1661L624,1673L622,1679L624,1687L623,1692L622,1699L623,1702L623,1706L622,1709L622,1712L626,1720L623,1732L626,1723L627,1742L626,1747L626,1754L627,1761L629,1768L627,1772L629,1781L629,1787L629,1795L629,1800L626,1818L629,1800L627,1819L627,1829L627,1833L627,1833L627,1833L627,1833L627,1833" fill="none" stroke="#000000" style="-webkit-tap-highlight-color: rgba(0, 0, 0, 0); stroke-linecap: round; stroke-linejoin: round; stroke-width: 9;" /><path d="M887.03,9.78L888,15L888,15L883,22L883,22L894,29L890,34L890,36L894,39L894,42L897,45L898,50L898,55L899,62L900,67L896,75L905,84L906,85L901,101L902,102L911,118L902,102L909,119L909,119L909,119L909,119L899,129L913,122L899,129L910,145L910,145L910,145L911,146L919,158L911,146L919,158L916,167L913,174L913,169L915,181L914,184L915,199L915,196L915,199L925,221L925,221L925,221L925,222L921,230L921,230L921,232L922,233L927,237L928,240L924,247L923,248L923,254L923,251L923,255L927,261L924,267L925,273L925,271L918,280L924,301L917,281L927,287L916,303L916,303L914,304L913,307L910,310L905,317L907,312L901,326L906,317L897,330L898,334L894,336L889,336L891,342L887,348L877,361L883,352L874,365L872,373L865,378L867,386L861,391L860,393L858,398L851,404L851,411L852,417L848,425L846,426L846,434L845,435L841,444L841,451L841,454L842,463L842,463L841,467L842,466L839,483L845,479L840,489L841,486L844,494L841,501L841,501L841,511L841,511L838,521L838,524L838,533L838,537L840,543L834,555L837,564L841,560L838,571L841,587L838,577L842,592L841,601L843,604L846,615L845,620L844,625L847,635L848,641L848,651L848,652L845,664L845,661L843,677L840,672L838,691L842,685L838,698L833,714L833,714L832,727L832,721L827,734L828,741L826,753L828,747L828,759L824,769L825,765L824,780L828,787L824,791L827,823L825,811L825,802L825,829L825,835L828,855L825,844L827,867L829,870L828,876L828,884L828,890L833,896L832,909L829,906L835,916L836,925L835,933L834,949L835,940L835,956L837,970L839,974L838,963L838,977L841,987L841,995" fill="none" stroke="#000000" style="-webkit-tap-highlight-color: rgba(0, 0, 0, 0); stroke-linecap: round; stroke-linejoin: round; stroke-width: 9;" /><path d="M841,1000L841,1010L841,1017L843,1025L841,1032L841,1044L840,1050L841,1054L842,1069L842,1062L841,1081L841,1086L841,1092L843,1096L848,1102L849,1104L854,1120L855,1137L855,1132L860,1157L860,1157L849,1184L849,1175L851,1191L849,1195L853,1213L857,1220L859,1216L857,1220L861,1236L861,1242L863,1256L862,1259L857,1279L861,1269L858,1289L858,1296L858,1299L855,1309L857,1313L848,1329L848,1327L857,1337L854,1343L857,1349L852,1360L852,1365L852,1365L849,1385L849,1389L848,1391L861,1406L861,1412L861,1419L861,1428L861,1435L858,1441L849,1456L849,1456L850,1464L850,1459L850,1465L850,1465L854,1481L851,1494L854,1487L851,1503L851,1510L848,1520L848,1529L848,1539L848,1549L837,1575L848,1559L838,1581L845,1608L845,1598L838,1581L848,1618L848,1624L851,1634L851,1644L854,1653L858,1670L854,1660L858,1679L858,1686L858,1696L858,1702L858,1709L858,1722L858,1725L858,1715L858,1732L858,1738L854,1748L854,1741L854,1751L854,1761L858,1768L854,1754L858,1771L858,1774L861,1794L861,1787L858,1781L861,1800L864,1813L861,1807L864,1820L867,1833L864,1826L867,1839L867,1843L867,1846" fill="none" stroke="#000000" style="-webkit-tap-highlight-color: rgba(0, 0, 0, 0); stroke-linecap: round; stroke-linejoin: round; stroke-width: 9;" /><path d="M593.53,1516.43L594,1511L594,1511L600,1509L603,1508L605,1504L609,1499L626,1503L641,1492L653,1492L659,1496L672,1489L681,1489L698,1500L681,1489L708,1500L721,1503L714,1500L730,1503L740,1503L753,1503L773,1507L763,1503L779,1507" fill="none" stroke="#000000" style="-webkit-tap-highlight-color: rgba(0, 0, 0, 0); stroke-linecap: round; stroke-linejoin: round; stroke-width: 9;" /><path d="M789,1507L799,1507L796,1507L802,1507L799,1503" fill="none" stroke="#000000" style="-webkit-tap-highlight-color: rgba(0, 0, 0, 0); stroke-linecap: round; stroke-linejoin: round; stroke-width: 9;" /><path d="M613.1,1444.69L610,1447L607,1441L605,1443L614,1441L623,1440L636,1441L653,1440L665,1439L676,1439L682,1439L691,1446L692,1446L721,1446L734,1445L721,1446L744,1443L748,1444L787,1450L766,1441L776,1441L752,1446" fill="none" stroke="#000000" style="-webkit-tap-highlight-color: rgba(0, 0, 0, 0); stroke-linecap: round; stroke-linejoin: round; stroke-width: 9;" /><path d="M794,1449L809,1451L795,1450L812,1451L809,1451L795,1450" fill="none" stroke="#000000" style="-webkit-tap-highlight-color: rgba(0, 0, 0, 0); stroke-linecap: round; stroke-linejoin: round; stroke-width: 9;" /><path d="M613.1,1376.2L610,1375L619,1379L614,1377L633,1376L647,1366L650,1366L659,1366L678,1361L689,1363L703,1369L711,1370L719,1369L728,1368L739,1368L752,1367L757,1363L783,1376L782,1376L786,1374L799,1379" fill="none" stroke="#000000" style="-webkit-tap-highlight-color: rgba(0, 0, 0, 0); stroke-linecap: round; stroke-linejoin: round; stroke-width: 9;" /><path d="M806,1383L809,1383L815,1383L819,1383L822,1383L825,1383" fill="none" stroke="#000000" style="-webkit-tap-highlight-color: rgba(0, 0, 0, 0); stroke-linecap: round; stroke-linejoin: round; stroke-width: 9;" /><path d="M675.06,1320.76L672,1317L674,1315L694,1333L699,1331L725,1334L725,1334L740,1339L745,1339" fill="none" stroke="#000000" style="-webkit-tap-highlight-color: rgba(0, 0, 0, 0); stroke-linecap: round; stroke-linejoin: round; stroke-width: 9;" /><path d="M761,1339L758,1337L762,1341L711,1333L786,1331L779,1334L789,1331L792,1324L792,1327" fill="none" stroke="#000000" style="-webkit-tap-highlight-color: rgba(0, 0, 0, 0); stroke-linecap: round; stroke-linejoin: round; stroke-width: 9;" /><path d="M635.92,1271.85L647,1271L637,1266L652,1267L661,1264L678,1257L669,1257L687,1258L696,1259L705,1258L711,1257L721,1257L727,1260L737,1262L744,1265L753,1270" fill="none" stroke="#000000" style="-webkit-tap-highlight-color: rgba(0, 0, 0, 0); stroke-linecap: round; stroke-linejoin: round; stroke-width: 9;" /><path d="M756,1271L766,1273L763,1273L769,1273" fill="none" stroke="#000000" style="-webkit-tap-highlight-color: rgba(0, 0, 0, 0); stroke-linecap: round; stroke-linejoin: round; stroke-width: 9;" /><path d="M648.97,1213.15L646,1213L631,1210L631,1210L646,1220L652,1223L659,1223L662,1226L678,1215L687,1218L691,1217L714,1223L736,1216L745,1214L763,1217L783,1222L772,1219L789,1221L798,1220L804,1219L805,1219L809,1220" fill="none" stroke="#000000" style="-webkit-tap-highlight-color: rgba(0, 0, 0, 0); stroke-linecap: round; stroke-linejoin: round; stroke-width: 9;" /><path d="M811,1220L814,1219" fill="none" stroke="#000000" style="-webkit-tap-highlight-color: rgba(0, 0, 0, 0); stroke-linecap: round; stroke-linejoin: round; stroke-width: 9;" /><path d="M655.49,1046.83L650,1040L649,1043L654,1038L672,1045L688,1044L703,1047L724,1049L742,1053" fill="none" stroke="#000000" style="-webkit-tap-highlight-color: rgba(0, 0, 0, 0); stroke-linecap: round; stroke-linejoin: round; stroke-width: 9;" /><path d="M756,1053L766,1052L770,1053L777,1053L780,1051" fill="none" stroke="#000000" style="-webkit-tap-highlight-color: rgba(0, 0, 0, 0); stroke-linecap: round; stroke-linejoin: round; stroke-width: 9;" /><path d="M560.92,1108.79L558,1109L559,1106L559,1106L557,1110L559,1104L558,1109L548,1096L545,1092L545,1089L530,1089L530,1089L530,1089L530,1089L530,1089L517,1103L516,1109L516,1120L513,1125L509,1135L510,1145L505,1154L504,1161L502,1166L503,1173L502,1181L506,1190L507,1200L509,1200L509,1205L511,1209L515,1213L522,1215L518,1216L523,1216L523,1216L524,1201L538,1203L541,1197L545,1187L560,1164L558,1184L557,1149L557,1141L556,1131L556,1119L557,1110" fill="none" stroke="#000000" style="-webkit-tap-highlight-color: rgba(0, 0, 0, 0); stroke-linecap: round; stroke-linejoin: round; stroke-width: 9;" /><path d="M561,1098L551,1086L548,1083L547,1068L534,1077L532,1081L530,1089L530,1089" fill="none" stroke="#000000" style="-webkit-tap-highlight-color: rgba(0, 0, 0, 0); stroke-linecap: round; stroke-linejoin: round; stroke-width: 9;" /><path d="M981.61,1089.22L978,1086L982,1086L975,1086L969,1086L959,1086L949,1089L926,1106L926,1106L920,1108L910,1121L900,1127L890,1138L884,1148L875,1154L877,1153L874,1171L877,1181L874,1177L889,1191L889,1191L889,1191L903,1185L907,1181" fill="none" stroke="#000000" style="-webkit-tap-highlight-color: rgba(0, 0, 0, 0); stroke-linecap: round; stroke-linejoin: round; stroke-width: 9;" /><path d="M921,1175L942,1161L925,1174L961,1164L978,1158L982,1141L991,1135L1001,1125L1008,1115L1011,1102L1011,1096L1008,1099L1001,1112" fill="none" stroke="#000000" style="-webkit-tap-highlight-color: rgba(0, 0, 0, 0); stroke-linecap: round; stroke-linejoin: round; stroke-width: 9;" /><path d="M962.04,1229.45" fill="none" stroke="#000000" style="-webkit-tap-highlight-color: rgba(0, 0, 0, 0); stroke-linecap: round; stroke-linejoin: round; stroke-width: 9;" /><path d="M998,1112" fill="none" stroke="#000000" style="-webkit-tap-highlight-color: rgba(0, 0, 0, 0); stroke-linecap: round; stroke-linejoin: round; stroke-width: 9;" /><path d="M974,1238L979,1235L969,1220L969,1223L965,1220L962,1220L945,1213L942,1217L937,1221L913,1223L897,1226L884,1233L871,1236L861,1242L863,1256L850,1255L863,1256L864,1256L876,1250L903,1253L923,1244L887,1252L938,1246L974,1238L952,1244L974,1238L979,1235" fill="none" stroke="#000000" style="-webkit-tap-highlight-color: rgba(0, 0, 0, 0); stroke-linecap: round; stroke-linejoin: round; stroke-width: 9;" /><path d="M987,1231L989,1230L989,1230L989,1230L973,1207L963,1207L945,1213L938,1220L937,1226L971.82,1278.37L969,1278L962,1275L969,1275L956,1275L942,1278L926,1282L904,1294L894,1309L897,1295L894,1319L897,1323L907,1331L922,1341" fill="none" stroke="#000000" style="-webkit-tap-highlight-color: rgba(0, 0, 0, 0); stroke-linecap: round; stroke-linejoin: round; stroke-width: 9;" /><path d="M923,1343L933,1341L962,1337L976,1319L984,1306L999,1296L988,1275L998,1293L978,1272L969,1272L959,1272L946,1278L936,1285L933,1285" fill="none" stroke="#000000" style="-webkit-tap-highlight-color: rgba(0, 0, 0, 0); stroke-linecap: round; stroke-linejoin: round; stroke-width: 9;" /><path d="M280.46,1105.53L279,1102L278,1106L274,1102L273,1106L274,1105L290,1110L280,1109L306,1106L324,1099L348,1095L388,1089L373,1092L404,1082L417,1080L458,1077L444,1076L430,1079L465,1074L499,1073L479,1076L489,1076L513,1072" fill="none" stroke="#000000" style="-webkit-tap-highlight-color: rgba(0, 0, 0, 0); stroke-linecap: round; stroke-linejoin: round; stroke-width: 9;" /><path d="M523,1070L540,1066L527,1066L549,1061L559,1057L566,1053L577,1048L585,1044L594,1039L606,1033L613,1033L601,1037L621,1032L622,1031L628,1031L625,1031L625,1031L624,1034L620,1037L616,1036" fill="none" stroke="#000000" style="-webkit-tap-highlight-color: rgba(0, 0, 0, 0); stroke-linecap: round; stroke-linejoin: round; stroke-width: 9;" /><path d="M469.61,502.22L473,502L473,505L473,509L470,509L466,512L463,512L457,515L453,519L447,525L440,528L430,535L417,553L421,551L395,564L409,560L388,576L382,579L365,584L352,590L337,602L332,603" fill="none" stroke="#000000" style="-webkit-tap-highlight-color: rgba(0, 0, 0, 0); stroke-linecap: round; stroke-linejoin: round; stroke-width: 9;" /><path d="M320,610L307,623L310,620L300,629L297,633L290,636L284,642L277,652L267,659L248,678L258,669L241,685L235,688L222,695L228,691L222,698" fill="none" stroke="#000000" style="-webkit-tap-highlight-color: rgba(0, 0, 0, 0); stroke-linecap: round; stroke-linejoin: round; stroke-width: 9;" /><path d="M68.48,1063.13L69,1061L72,1059L82,1059L89,1061L104,1062L123,1064L130,1069L143,1069L151,1075L163,1075" fill="none" stroke="#000000" style="-webkit-tap-highlight-color: rgba(0, 0, 0, 0); stroke-linecap: round; stroke-linejoin: round; stroke-width: 9;" /><path d="M172,1077L179,1075L186,1090" fill="none" stroke="#000000" style="-webkit-tap-highlight-color: rgba(0, 0, 0, 0); stroke-linecap: round; stroke-linejoin: round; stroke-width: 9;" /><path d="M238.06,153.27L228,153L248,151L228,144L228,153L228,153L228,157L228,165L227,176L223,189L225,205L240,211L234,226L240,230L255,238L242,234L266,241L258,234L277,245L284,247L301,255L304,255L316,261L326,266L336,271L347,271L379,273L363,277" fill="none" stroke="#000000" style="-webkit-tap-highlight-color: rgba(0, 0, 0, 0); stroke-linecap: round; stroke-linejoin: round; stroke-width: 9;" /><path d="M398,274L416,280L440,288L427,285L452,285L463,284L473,284L477,285L473,284" fill="none" stroke="#000000" style="-webkit-tap-highlight-color: rgba(0, 0, 0, 0); stroke-linecap: round; stroke-linejoin: round; stroke-width: 9;" /><path d="M348.94,114.14L347,111L349,110L342,112L335,127L333,140L338,168" fill="none" stroke="#000000" style="-webkit-tap-highlight-color: rgba(0, 0, 0, 0); stroke-linecap: round; stroke-linejoin: round; stroke-width: 9;" /></svg>