<?xml version="1.0" encoding="utf-8" ?>
<svg baseProfile="full" height="761" version="1.1" width="1024" xmlns="http://www.w3.org/2000/svg" xmlns:ev="http://www.w3.org/2001/xml-events" xmlns:xlink="http://www.w3.org/1999/xlink"><defs /><path d="M1.81,212.58L2,209" fill="none" stroke="#000000" style="-webkit-tap-highlight-color: rgba(0, 0, 0, 0); stroke-linecap: round; stroke-linejoin: round; stroke-width: 5;" /><path d="M2,209L0,210.77L0,209L2,209L5,210L7,211L7,211L9,211L14,212L14,212L16,212L20,212L24,213L22,212L25,213L27,213L29,213L31,213L32,213L33,214L34,214L36,215L38,215L40,214L42,213L43,213L47,214L49,214L51,214L54,214L58,215L62,214L63,214L67,215L71,215L72,215L74,215L80,214L77,215L85,213L81,214L87,213L89,213L90,214L92,213L94,213L100,213L96,213L98,213L101,213L103,213L105,213L107,213L109,213L112,212L110,213L114,212L116,212L118,212L119,212L121,211L123,211L125,211L128,210L130,211L132,210L136,210L134,210L137,210L139,210L143,210L145,211L147,211L150,211L151,211L156,211L159,212L161,212L164,211L165,211L165,211L170,212L172,211L177,209L175,210L183,208L181,208L186,209L185,208L190,206L191,206L192,205L192,205L192,205L199,212L199,212L199,212L208,213L214,210L217,202L217,202L217,202L217,200L218,199L218,200L218,200L218,199L231,193L231,193L231,193L232,193L237,196L237,194L239,192L241,194L250,190L246,191L244,193L251,190L253,190L259,189L257,189L261,189L262,189L266,189L268,189L272,188L278,187L273,188L280,187L284,186L289,186L291,186L286,186L293,186L297,185L302,184L299,184L304,183L308,183L313,181L310,182L315,181L318,182" fill="none" stroke="#000000" style="-webkit-tap-highlight-color: rgba(0, 0, 0, 0); stroke-linecap: round; stroke-linejoin: round; stroke-width: 5;" /><path d="M322,183L319,182L322,183L328,183L331,182L328,183L329,183L332,182L332,182L332,182L332,182L332,182L332,182L344,182L346,182L347,182L349,182" fill="none" stroke="#000000" style="-webkit-tap-highlight-color: rgba(0, 0, 0, 0); stroke-linecap: round; stroke-linejoin: round; stroke-width: 5;" /><path d="M821.37,165.54L818,163L814,161L812,161L810,160L809,160L806,159L804,156L805,157L810,160L809,160L814,161L814,161L821,163L821,163L826,165L826,165L838,155L841,156L843,156L847,158L849,158L850,158L856,160L854,160L858,160L859,160L861,162L863,162L865,162L867,164L868,164L870,164L872,164L874,164L877,164L879,164L881,164L885,164L888,164L890,164L894,164L897,164L905,164L901,164L908,164L912,164L915,164L919,164L923,164L924,164L928,164L930,164L932,164L934,164L935,164L941,162L937,162L943,162L946,162L950,162L952,162L955,162L957,162L959,162L962,162L964,162L970,162L968,162" fill="none" stroke="#000000" style="-webkit-tap-highlight-color: rgba(0, 0, 0, 0); stroke-linecap: round; stroke-linejoin: round; stroke-width: 5;" /><path d="M972,164L979,164L975,164L977,164L984,166L982,166L990,167L986,166L993,167L991,167L995,167L999,169L1000,169L1002,169L1004,169L1006,171L1008,171L1010,171L1011,171L1013,171L1017,171L1019,171" fill="none" stroke="#000000" style="-webkit-tap-highlight-color: rgba(0, 0, 0, 0); stroke-linecap: round; stroke-linejoin: round; stroke-width: 5;" /><path d="M345.55,132.98L356,126L356,126L356,126L360,128L362,128L364,126L371,126L367,126L373,126L380,126L394,121L388,124L394,121L398,115L398,115L398,115L401,115L402,113L406,114L402,113L406,114L406,114L406,114L406,114L424,116L424,116L424,116L424,116L431,105L432,105L431,105L440,103L438,104L445,103L445,103L443,103L445,103L450,106L460,95L445,103L463,93L469,93L465,93L482,101L482,101L482,101L485,90L481,90L487,90L496,88L492,88L490,90L499,88L514,91L503,88L515,90L514,91L516,90L518,89L520,89L522,92L532,87L532,87L536,87L532,87L539,88L537,88L539,88L539,88L539,88L550,95L554,84L557,84L561,84L559,84L572,91L572,91L572,91L574,91L581,86L581,86L582,86L584,87L584,87L584,87L592,94L597,95L604,92L604,92L604,92L612,93L610,93L619,92L622,91L620,91L626,92L626,92L629,95L627,93L629,95L642,91L657,103L646,93L657,103L657,103L660,103L657,103L667,97L667,97L668,96L673,97L671,96L673,97L673,97L673,97L687,100L673,97L693,100L689,100L700,102L697,102L704,102L707,104L711,104L715,106L718,108L722,109L725,109L729,111L733,111L731,111L736,113L738,115L745,117L742,115L742,129L742,129L756,132L762,131L762,131L763,131L763,131L764,132L764,132L764,132" fill="none" stroke="#000000" style="-webkit-tap-highlight-color: rgba(0, 0, 0, 0); stroke-linecap: round; stroke-linejoin: round; stroke-width: 5;" /><path d="M768,141L768,141L789,134L789,134L789,134L789,134L789,134L792,134L799,136L795,134L800,137L803,142L803,142L803,144L803,144L803,144L804,147L804,147L804,147L804,147L805,157L818,149L814,161L814,161L810,160L804,151L810,160L810,160L810,160L810,160L812,161L812,161L811,161L812,161L811,161L810,161L805,171" fill="none" stroke="#000000" style="-webkit-tap-highlight-color: rgba(0, 0, 0, 0); stroke-linecap: round; stroke-linejoin: round; stroke-width: 5;" /><path d="M23.52,559.94L23,554L23,554L23,554L22,553L25,553L29,554L34,554L43,553L52,552L62,544L71,544L77,544L79,541L85,545L90,545L87,545L94,545L100,546L107,545L115,540L117,540L125,535L132,535L126,536L137,536L134,536L137,536L141,536L143,535L147,537L154,536L154,536L154,536L166,543L173,538L173,538L173,538L178,537L186,535L181,536L190,535L194,535L205,531L202,532L209,529L212,528L215,527L220,526L223,524L226,524L230,524L233,522L235,523L241,520L244,522L249,522L250,523L253,525L257,524L262,527L261,527L266,527L270,526L270,526L274,527" fill="none" stroke="#000000" style="-webkit-tap-highlight-color: rgba(0, 0, 0, 0); stroke-linecap: round; stroke-linejoin: round; stroke-width: 5;" /><path d="M968,484L972,484L973,486L977,486L979,486L990,475L991,496L990,475L990,475L991,475L990,475L993,475L994,475L994,475L994,475L994,475L994,475L994,475L1006,482L1018,475L1017,474L1018,475L1018,475L1022,476L1022,476L1022,476" fill="none" stroke="#000000" style="-webkit-tap-highlight-color: rgba(0, 0, 0, 0); stroke-linecap: round; stroke-linejoin: round; stroke-width: 5;" /><path d="M837.65,172.78L829,167L829,167L829,167L829,167L829,167L829,167L829,167L847,164L843,164L852,167L856,169L859,171L863,175L867,178L868,182L872,187L874,191L877,198L876,194L889,191L881,205L883,207L894,202L885,214L887,218L887,222L887,225L887,227L887,231L887,232L887,236L888,242L887,238L888,245L888,243L888,249L899,240L890,252L890,256L890,258L889,271L889,271L889,271L888,273L889,271L888,273L888,273L890,285L890,289L890,294L890,299L892,317L892,317L893,324L894,320L896,336L896,334L893,341L894,328L896,346L897,355L897,352L897,347L901,363L903,364L901,363L897,355L905,372L906,366L905,369L907,373L910,380L910,385L908,376L911,388L915,396L909,392L909,393L914,399L913,401L913,402L913,402L913,402L922,407L922,407L914,421L922,407L919,433L919,433L924,432L919,433" fill="none" stroke="#000000" style="-webkit-tap-highlight-color: rgba(0, 0, 0, 0); stroke-linecap: round; stroke-linejoin: round; stroke-width: 5;" /><path d="M919,433L919,437L919,433L919,435L919,439L919,439L919,439L919,437L921,440L921,440L921,440L921,440L921,440L929,461L931,456L921,440L927,465L927,465L929,461L927,466" fill="none" stroke="#000000" style="-webkit-tap-highlight-color: rgba(0, 0, 0, 0); stroke-linecap: round; stroke-linejoin: round; stroke-width: 5;" /><path d="M803.28,158.3" fill="none" stroke="#000000" style="-webkit-tap-highlight-color: rgba(0, 0, 0, 0); stroke-linecap: round; stroke-linejoin: round; stroke-width: 5;" /><path d="M927,467L927,467L927,467L927,467L927,467L927,467L930,479L930,467L928,484L930,482L930,480L928,486L928,488L930,489L928,489L932,488" fill="none" stroke="#000000" style="-webkit-tap-highlight-color: rgba(0, 0, 0, 0); stroke-linecap: round; stroke-linejoin: round; stroke-width: 5;" /><path d="M803,154L803,154" fill="none" stroke="#000000" style="-webkit-tap-highlight-color: rgba(0, 0, 0, 0); stroke-linecap: round; stroke-linejoin: round; stroke-width: 5;" /><path d="M932,482" fill="none" stroke="#000000" style="-webkit-tap-highlight-color: rgba(0, 0, 0, 0); stroke-linecap: round; stroke-linejoin: round; stroke-width: 5;" /><path d="M803,153L804,157L803,154L801,168L803,154L802,168L807,180L805,174L805,171L805,194L806,182L805,194L805,200L805,202L806,212L805,206L806,214L806,218L807,222L806,225L806,229L806,232L805,234L806,246L806,240L806,249L806,254L805,261L805,256L804,265L808,270L807,274L807,276L806,280L805,283L805,283L809,296L805,283L809,299L807,314L809,308L809,305" fill="none" stroke="#000000" style="-webkit-tap-highlight-color: rgba(0, 0, 0, 0); stroke-linecap: round; stroke-linejoin: round; stroke-width: 5;" /><path d="M692,506L692,507L692,507L692,507L692,507L698,520L698,520L698,520L698,520L698,520L697,520L697,520" fill="none" stroke="#000000" style="-webkit-tap-highlight-color: rgba(0, 0, 0, 0); stroke-linecap: round; stroke-linejoin: round; stroke-width: 5;" /><path d="M662.16,143.83L667,147L667,148L667,148L667,148L660,162L668,149L660,166L660,167L660,171L660,173L660,176L660,178L660,184L660,182L660,185L660,189L660,191L660,193L660,194L660,196L660,200L660,198L659,204L659,202L659,207L659,211L659,209L659,205L659,213L659,214L659,218L659,220L660,222L660,227L660,223L662,229L662,231L662,232L664,234L664,236L664,238L664,240L664,242L664,243L664,245L664,247L664,249L664,251L664,252L664,254L666,260L666,258L666,263L668,270L668,267L668,276L668,274L668,283L668,280L666,289L668,287L666,292L666,296L666,299L666,303L666,312L666,307L666,321L666,318L666,325L666,332L666,328L666,336L666,339L666,346L666,343L664,350L664,354L664,352L664,357L664,359L664,363L664,370L664,366L666,374L666,377L666,381L666,384L666,388L664,393L664,397L662,404L664,401L662,408L662,413L662,410L662,417L662,428L662,422L662,426L662,419L662,431L662,437L662,435L662,439L662,444L662,441L662,442L662,446L662,450L662,448L662,451L662,453" fill="none" stroke="#000000" style="-webkit-tap-highlight-color: rgba(0, 0, 0, 0); stroke-linecap: round; stroke-linejoin: round; stroke-width: 5;" /><path d="M577,555" fill="none" stroke="#000000" style="-webkit-tap-highlight-color: rgba(0, 0, 0, 0); stroke-linecap: round; stroke-linejoin: round; stroke-width: 5;" /><path d="M347.36,131.17L344,129L344,128L342,131L342,133L344,137L346,142L346,146L346,149L347,153L347,156L347,160L347,164L347,167L347,169L347,173L347,176L347,180L346,182L340,194L340,194L341,195L341,195L341,196L341,196L339,201L339,201L338,203L339,201L338,203L335,217L336,220L340,224L341,225L341,225L342,226L342,229L342,227L342,231L343,235L342,232L343,236L343,238L343,240L343,242L343,242L342,249L342,252L342,261L342,256L342,264L342,279L342,281L340,266L342,279L342,285L342,292L342,290L342,287L342,294L342,296L342,301L342,298L342,303L342,305L342,308L342,307L343,314L343,316L343,316L342,319L342,321L342,325L343,330L343,329L343,332L342,333L343,332L342,350L342,350L347,356L342,350L347,356L347,356L343,363L343,366L343,369L343,374L343,377L343,380L341,388L356,383L341,393L356,397L342,401L342,404L342,406L342,408L342,412L342,410L349,418L349,418L349,418L349,418L347,426L347,426L347,428L347,428L347,428L341,435L342,440L342,440L342,441L342,441L342,441L341,445L341,445L340,454L340,457L349,467L340,460L346,468L346,468L346,471L346,471L348,477L342,477L342,479L342,480L342,482L342,484L343,486L343,488L343,489L343,489L343,491L343,493L341,495L342,499L342,498L342,498L342,499L342,507L341,506L344,505L344,507L346,515L345,516L344,517L346,508L344,522L344,521L344,517L343,523L343,528L344,531L342,525" fill="none" stroke="#000000" style="-webkit-tap-highlight-color: rgba(0, 0, 0, 0); stroke-linecap: round; stroke-linejoin: round; stroke-width: 5;" /><path d="M343,529L344,533L344,533L343,537L343,537L342,539L344,540L342,542L342,542L342,542L342,542L342,542" fill="none" stroke="#000000" style="-webkit-tap-highlight-color: rgba(0, 0, 0, 0); stroke-linecap: round; stroke-linejoin: round; stroke-width: 5;" /><path d="M361.84,619.65L356,620L347,620L351,620L347,620L346,620L346,618L352,618L355,617L359,618L362,617L367,616L375,615L380,617L391,615L400,612L396,614L410,611L414,611L421,612L430,609L428,611L439,610" fill="none" stroke="#000000" style="-webkit-tap-highlight-color: rgba(0, 0, 0, 0); stroke-linecap: round; stroke-linejoin: round; stroke-width: 5;" /><path d="M499,552L492,552L508,550L506,550L510,550L517,550L519,550L519,550L519,550L519,550" fill="none" stroke="#000000" style="-webkit-tap-highlight-color: rgba(0, 0, 0, 0); stroke-linecap: round; stroke-linejoin: round; stroke-width: 5;" /><path d="M157.4,646.78L152,645L154,644L164,648L172,650L219,647L186,649L203,647" fill="none" stroke="#000000" style="-webkit-tap-highlight-color: rgba(0, 0, 0, 0); stroke-linecap: round; stroke-linejoin: round; stroke-width: 5;" /><path d="M235,645L244,644L260,643L250,644L274,641L309,639L290,641L333,646L323,643L340,647" fill="none" stroke="#000000" style="-webkit-tap-highlight-color: rgba(0, 0, 0, 0); stroke-linecap: round; stroke-linejoin: round; stroke-width: 5;" /><path d="M179.11,616.03" fill="none" stroke="#000000" style="-webkit-tap-highlight-color: rgba(0, 0, 0, 0); stroke-linecap: round; stroke-linejoin: round; stroke-width: 5;" /><path d="M345,647L351,647L355,646L356,646L356,646L355,646L355,646" fill="none" stroke="#000000" style="-webkit-tap-highlight-color: rgba(0, 0, 0, 0); stroke-linecap: round; stroke-linejoin: round; stroke-width: 5;" /><path d="M177,616L175,616L173,615L168,613L170,614L170,612L174,612L186,612L201,613L216,613L231,601L250,609L269,619L274,619L270,619" fill="none" stroke="#000000" style="-webkit-tap-highlight-color: rgba(0, 0, 0, 0); stroke-linecap: round; stroke-linejoin: round; stroke-width: 5;" /><path d="M278,620L293,622L296,623L294,622L317,621L317,621L325,615L325,615L313,605" fill="none" stroke="#000000" style="-webkit-tap-highlight-color: rgba(0, 0, 0, 0); stroke-linecap: round; stroke-linejoin: round; stroke-width: 5;" /><path d="M227.96,552.71L226,549L226,545L226,545L226,549L229,554L235,565L261,567L262,570L262,570L265,592L280,585L297,589L288,587L306,589L313,591L328,585L329,600" fill="none" stroke="#000000" style="-webkit-tap-highlight-color: rgba(0, 0, 0, 0); stroke-linecap: round; stroke-linejoin: round; stroke-width: 5;" /><path d="M329,600L329,600L329,600L329,600L329,600" fill="none" stroke="#000000" style="-webkit-tap-highlight-color: rgba(0, 0, 0, 0); stroke-linecap: round; stroke-linejoin: round; stroke-width: 5;" /><path d="M282.23,531L277,531L275,529L277,531L278,532L276,537L278,540L289,552L280,545L310,567L300,559" fill="none" stroke="#000000" style="-webkit-tap-highlight-color: rgba(0, 0, 0, 0); stroke-linecap: round; stroke-linejoin: round; stroke-width: 5;" /><path d="M317,570L321,573L323,574L333,573" fill="none" stroke="#000000" style="-webkit-tap-highlight-color: rgba(0, 0, 0, 0); stroke-linecap: round; stroke-linejoin: round; stroke-width: 5;" /><path d="M226.15,592.51" fill="none" stroke="#000000" style="-webkit-tap-highlight-color: rgba(0, 0, 0, 0); stroke-linecap: round; stroke-linejoin: round; stroke-width: 5;" /><path d="M337,577L345,579L345,579L336,576L337,579L337,579" fill="none" stroke="#000000" style="-webkit-tap-highlight-color: rgba(0, 0, 0, 0); stroke-linecap: round; stroke-linejoin: round; stroke-width: 5;" /><path d="M224,589L225,591L223,587L224,584L224,583L219,587L213,588L207,587L201,596L195,596L188,596L170,598L181,599L161,603L155,602L145,602L152,602L138,604" fill="none" stroke="#000000" style="-webkit-tap-highlight-color: rgba(0, 0, 0, 0); stroke-linecap: round; stroke-linejoin: round; stroke-width: 5;" /><path d="M130,601L125,602L118,602L110,603L107,603L104,603L104,603" fill="none" stroke="#000000" style="-webkit-tap-highlight-color: rgba(0, 0, 0, 0); stroke-linecap: round; stroke-linejoin: round; stroke-width: 5;" /><path d="M204.44,536.42L197,535L185,542L194,539L177,550L172,548L158,549L152,553L164,552L148,552L145,552L135,563L128,567L126,567L116,579L107,583L105,583L121,575L101,586L94,591" fill="none" stroke="#000000" style="-webkit-tap-highlight-color: rgba(0, 0, 0, 0); stroke-linecap: round; stroke-linejoin: round; stroke-width: 5;" /><path d="M90,594L98,588L85,594L77,602L71,598L81,595L71,600" fill="none" stroke="#000000" style="-webkit-tap-highlight-color: rgba(0, 0, 0, 0); stroke-linecap: round; stroke-linejoin: round; stroke-width: 5;" /><path d="M754.43,536.42L754,533L756,531L754,531L760,533L767,535L774,536L783,540L792,542L808,550L813,549L808,550L818,551L825,553L830,554L842,555L836,556L849,556L852,555L858,557L859,559L861,559L862,559L862,559L862,559L876,565L879,565L883,567L888,567L892,567L897,569L903,569L910,567L906,569L914,567L917,567L923,567L919,567L936,577L936,577L936,577L939,575L939,575L939,575L945,571L939,575L945,571L947,567" fill="none" stroke="#000000" style="-webkit-tap-highlight-color: rgba(0, 0, 0, 0); stroke-linecap: round; stroke-linejoin: round; stroke-width: 5;" /><path d="M946,563L946,563L947,562L946,563L954,561L950,561L962,557L956,561L967,556L971,556L977,556L981,556L986,558L990,556" fill="none" stroke="#000000" style="-webkit-tap-highlight-color: rgba(0, 0, 0, 0); stroke-linecap: round; stroke-linejoin: round; stroke-width: 5;" /><path d="M707.39,527.38" fill="none" stroke="#000000" style="-webkit-tap-highlight-color: rgba(0, 0, 0, 0); stroke-linecap: round; stroke-linejoin: round; stroke-width: 5;" /><path d="M993,558L997,558L999,558L999,558L1006,555L1006,555L1006,555" fill="none" stroke="#000000" style="-webkit-tap-highlight-color: rgba(0, 0, 0, 0); stroke-linecap: round; stroke-linejoin: round; stroke-width: 5;" /><path d="M706,524L704,524" fill="none" stroke="#000000" style="-webkit-tap-highlight-color: rgba(0, 0, 0, 0); stroke-linecap: round; stroke-linejoin: round; stroke-width: 5;" /><path d="M699,520L706,524L706,524L706,524L707,524L709,524L713,525L720,527L729,527L730,526L744,527L747,527L747,529L745,531L742,533" fill="none" stroke="#000000" style="-webkit-tap-highlight-color: rgba(0, 0, 0, 0); stroke-linecap: round; stroke-linejoin: round; stroke-width: 5;" /><path d="M206.25,241.53L211,238L208,238L214,240" fill="none" stroke="#000000" style="-webkit-tap-highlight-color: rgba(0, 0, 0, 0); stroke-linecap: round; stroke-linejoin: round; stroke-width: 5;" /><path d="M805.09,315.7L805,312L805,310L805,308L805,307L801,308L801,310L801,312L800,312L800,314L801,318L800,316L803,319L803,321L805,323L807,328L807,325L807,332L809,337L809,341L807,336L809,343L811,348L811,350L809,345L811,352L811,354L811,359L811,357L811,363L811,368L811,366L811,365L811,372L807,375L809,372L809,374L799,387L799,387L799,387L799,387L799,387L799,387L797,389L797,389L794,392L794,392L786,403L794,392L787,399L786,404L786,406L786,406L786,406L786,406L785,407L785,407L785,407L787,419L785,424L785,422L783,426L783,430L782,431L780,437L782,435L780,441L778,442L776,448L778,446L776,451L776,453L774,464L774,464L774,464L774,464L774,464L771,466L771,468L774,466" fill="none" stroke="#000000" style="-webkit-tap-highlight-color: rgba(0, 0, 0, 0); stroke-linecap: round; stroke-linejoin: round; stroke-width: 5;" /><path d="M771,468L771,468L771,468L771,468L769,468L769,480L769,484L769,482L769,488L743.58,482.15L769,486L767,488L767,489L765,489L740,479L742,480L743,480L743,482L743,482L760,484L767,484L773,482L776,482L782,482L785,482L789,482L792,482L798,484L796,482L803,484L807,484L824,492L824,492L812,484L824,492L825,492L825,492L825,492L825,492L838,486L841,486L845,488L849,488L850,488L856,489L852,488L858,489L859,489L863,491L867,491L861,491L870,491L874,491L877,491L881,491L885,491L888,491L892,491L897,489L894,491L901,489L905,489L910,491L906,491L914,491" fill="none" stroke="#000000" style="-webkit-tap-highlight-color: rgba(0, 0, 0, 0); stroke-linecap: round; stroke-linejoin: round; stroke-width: 5;" /><path d="M915,493L919,493L923,495L924,495L932,497L930,497L928,495L935,498L937,500L939,502L929.92,500.24L939,500L943,502L944,502L948,502L959,510L953,498L955,498L959,498L970,497L970,497L970,497L970,497L928,497L970,497L928,495L928,493L928,491L930,491L930,493L930,495L932,497L932,500L934,504L934,509L942,523L943,521L942,524L942,524" fill="none" stroke="#000000" style="-webkit-tap-highlight-color: rgba(0, 0, 0, 0); stroke-linecap: round; stroke-linejoin: round; stroke-width: 5;" /><path d="M942,524L945,544L945,544L945,544L944,546L944,546L944,546L944,546L944,546L944,546L946,563L946,563L946,563L946,563L946,563L939,575L939,575L939,575L939,575L945,571L945,571L945,573L945,573" fill="none" stroke="#000000" style="-webkit-tap-highlight-color: rgba(0, 0, 0, 0); stroke-linecap: round; stroke-linejoin: round; stroke-width: 5;" /><path d="M587.99,561.75L577,555L577,555L577,555L577,555L577,555L592,564L597,561L598,561L607,562L611,560L613,560L614,561L622,564L622,564L622,564L637,564L637,564L637,564L637,564L639,563L639,563L640,563L644,562L644,562L645,562L646,563L650,563L651,562L653,562L653,562L653,562L653,562L669,564L669,564L669,564L662,572L662,572L662,573L660,575L660,579L660,578L658,583L658,583L658,583L655,587L658,583L658,583L655,587L655,587L653,589L651,589L648,588L644,588L643,588L639,587L635,587L633,587L630,584L628,585L624,586L620,582L619,582L613,582L610,581L606,579L605,579L605,579" fill="none" stroke="#000000" style="-webkit-tap-highlight-color: rgba(0, 0, 0, 0); stroke-linecap: round; stroke-linejoin: round; stroke-width: 5;" /><path d="M605,579L591,572L587,572L591,572L575,579L582,573L575,579L575,579L574,580L574,580L575,579" fill="none" stroke="#000000" style="-webkit-tap-highlight-color: rgba(0, 0, 0, 0); stroke-linecap: round; stroke-linejoin: round; stroke-width: 5;" /><path d="M674.83,563.56L671,562L669,564L670,563L669,564L669,564L674,562L674,562L689,560L689,560L691,560L695,560L697,560L697,560L705,564L708,563L709,563L709,563L709,563L709,563L729,559L729,559L729,559L729,563L728,565L729,559L728,565L729,567L729,567L729,567L731,567L735,569L734,569L736,569L736,569L742,567L744,568L745,569L747,570L748,571L750,572L753,574L754,575L755,576L756,577L758,578L759,579L759,579L759,585L756,586L754,586L749,586L751,586L747,587L745,587L745,587L742,587L736,587L740,587L735,587L731,587L729,587L725,585L725,585L725,585L720,580L720,580" fill="none" stroke="#000000" style="-webkit-tap-highlight-color: rgba(0, 0, 0, 0); stroke-linecap: round; stroke-linejoin: round; stroke-width: 5;" /><path d="M711,577L706,578L702,580L706,578L696,581L696,581L694,582L694,582L689,579L688,579L694,582L684,578L680,578L679,578L678,577L662,577L662,577" fill="none" stroke="#000000" style="-webkit-tap-highlight-color: rgba(0, 0, 0, 0); stroke-linecap: round; stroke-linejoin: round; stroke-width: 5;" /><path d="M350.98,538.23" fill="none" stroke="#000000" style="-webkit-tap-highlight-color: rgba(0, 0, 0, 0); stroke-linecap: round; stroke-linejoin: round; stroke-width: 5;" /><path d="M660,579L662,577L658,583L658,583L658,583L658,583L658,583" fill="none" stroke="#000000" style="-webkit-tap-highlight-color: rgba(0, 0, 0, 0); stroke-linecap: round; stroke-linejoin: round; stroke-width: 5;" /><path d="M346,534L346,532L344,533L344,533L347,535L350,536L355,537L353,539L358,540L359,540L366,543L369,543L384,544L380,545L379,545L387,541L391,542L403,541L398,543L393,542L405,542L413,540L418,539L422,540L427,541L432,540L435,541L432,540L442,544L443,543L445,544L450,544L450,544L452,544L452,544L458,546L460,545L461,545L465,545L463,545L467,545L468,545L471,544L472,544L474,544L476,543L478,545L477,542L477,542L478,545L478,545L483,550L483,550L482,531L483,530L483,530L500,527L500,527L500,527L501,527L502,527L505,527L505,527L505,527L510,526" fill="none" stroke="#000000" style="-webkit-tap-highlight-color: rgba(0, 0, 0, 0); stroke-linecap: round; stroke-linejoin: round; stroke-width: 5;" /><path d="M510,526L512,526L514,526L514,526L526.47,520.14L514,526L519,525L521,525L523,525L525,525L526,525L529,526L530,526L530,526L518,520L517,517L518,520L517,515L517,513L517,511L519,505L521,503L522,500L523,493L523,497L523,491L521,486L521,486L521,482L520,479L520,475L520,471L520,468L520,469L520,466L521,460L521,460L521,464L521,459L523,453L525,448L523,453L525,448L525,448L527,443L526,445L529,441L532,438L531,439L533,436L537,433L535,434L537,433L539,431L539,430L541,430L542,428L543,427L544,427L546,428L548,428L550,428L550,428L554,429L557,429L560,428L560,428L563,430L564,430L566,431L567,432L568,433L571,435L571,436L572,437L573,439L575,442L575,442L577,445L578,448L578,448L579,452L580,457L580,458L579,452L580,458L581,462L581,466L581,464L581,468L581,471L581,473L581,469L581,475L581,477L581,479L581,480L581,482L581,486L581,491L581,488" fill="none" stroke="#000000" style="-webkit-tap-highlight-color: rgba(0, 0, 0, 0); stroke-linecap: round; stroke-linejoin: round; stroke-width: 5;" /><path d="M581,493L581,497L581,502L581,498L581,503L581,507L580,513L581,508L581,515L581,517L581,519L581,518L581,523L581,523L581,524L581,526L581,527L581,528L598.84,547.28L581,528L581,528L580,533L580,535L580,536L580,540L580,538L580,543L593,546L580,543L593,548L593,548L577,555L593,548L593,548L593,548L593,548L599,545L600,545L602,544L608,545L604,547L615,544L614,544L621,541L629,545L633,545L637,544L642,543L650,542L650,542L646,541L650,543L650,542L650,543L664,544" fill="none" stroke="#000000" style="-webkit-tap-highlight-color: rgba(0, 0, 0, 0); stroke-linecap: round; stroke-linejoin: round; stroke-width: 5;" /><path d="M671,545L666,545L669,545L675,545L680,542L677,544L682,542L678,542L682,540L684,540L686,538L684,538L687,538L689,536L687,536L689,535L691,535L695,522L695,522L695,522L695,522L695,522" fill="none" stroke="#000000" style="-webkit-tap-highlight-color: rgba(0, 0, 0, 0); stroke-linecap: round; stroke-linejoin: round; stroke-width: 5;" /><path d="M571.7,648.59L571,640L571,640L571,640L568,639L566,638L572,631L569,625L570,626L568,623L567,620L567,621L567,618L566,616L566,612L567,610L566,613L567,609L567,607L567,605L567,603L566,602L566,602L567,603L565,602L564,604L555,600L565,602L565,602L551,601L546,601L555,600L554,600L541,601L537,599L543,601L537,600L528,599L526,599L530,600L532,600L521,599L517,599L514,602L516,600L508,600L507,600L505,600L505,600L497,608L495,605L497,608L494,604L495,605L493,605L492,603L488,603L489,603L485,603L483,603L481,603L478,603" fill="none" stroke="#000000" style="-webkit-tap-highlight-color: rgba(0, 0, 0, 0); stroke-linecap: round; stroke-linejoin: round; stroke-width: 5;" /><path d="M475,605L473,605L470,605L466,605L463,607L457,606L456,607L447,608L453,607L449,609L443,609L439,609L442,609L436,606L430,609L429,609L430,609L425,607L427,608L420,609L422,608L422,608L417,611L414,611L417,611L412,612L413,611" fill="none" stroke="#000000" style="-webkit-tap-highlight-color: rgba(0, 0, 0, 0); stroke-linecap: round; stroke-linejoin: round; stroke-width: 5;" /><path d="M191.77,198.11" fill="none" stroke="#000000" style="-webkit-tap-highlight-color: rgba(0, 0, 0, 0); stroke-linecap: round; stroke-linejoin: round; stroke-width: 5;" /><path d="M410,612L408,614L408,612L407,614L407,615" fill="none" stroke="#000000" style="-webkit-tap-highlight-color: rgba(0, 0, 0, 0); stroke-linecap: round; stroke-linejoin: round; stroke-width: 5;" /><path d="M192,205L192,205L192,205L197,213L189,212L188,218L188,222L193,228L192,229L192,232L192,235L192,235L188,239L188,245L192,250L192,250L195,252L192,251L195,254L192,258L192,259L192,259L200,265L190,272L190,272L190,272L190,275L198,280L198,283L198,287L198,287L197,298L198,295L197,299L197,301L199,305L195,309L194,309L194,311L200,321L191,324L191,325L191,324L191,327L190,330L190,332L191,334L189,338L189,338L190,343L190,344L190,344L191,351L191,354" fill="none" stroke="#000000" style="-webkit-tap-highlight-color: rgba(0, 0, 0, 0); stroke-linecap: round; stroke-linejoin: round; stroke-width: 5;" /><path d="M191,356L191,359L191,361L191,363L192,366L192,368L193,370L193,372L194,374L194,375L194,377L194,379" fill="none" stroke="#000000" style="-webkit-tap-highlight-color: rgba(0, 0, 0, 0); stroke-linecap: round; stroke-linejoin: round; stroke-width: 5;" /><path d="M188.16,322.94" fill="none" stroke="#000000" style="-webkit-tap-highlight-color: rgba(0, 0, 0, 0); stroke-linecap: round; stroke-linejoin: round; stroke-width: 5;" /><path d="M194,380" fill="none" stroke="#000000" style="-webkit-tap-highlight-color: rgba(0, 0, 0, 0); stroke-linecap: round; stroke-linejoin: round; stroke-width: 5;" /><path d="M186,320L186,321L186,321L181,327L180,328L174,330L168,330L157,330L163,331L152,330L152,330L149,328L149,328L147,329L144,328L143,327L141,326L137,327L135,327L133,327L131,327L127,327L128,326L119,328L123,326L116,328L112,327L110,327L107,326L105,326L99,325L96,326L99,325L94,321L91,323" fill="none" stroke="#000000" style="-webkit-tap-highlight-color: rgba(0, 0, 0, 0); stroke-linecap: round; stroke-linejoin: round; stroke-width: 5;" /><path d="M91,325L91,323L79,326L80,328L79,326L76,326L76,327L61,329L61,329L58,328L54,330L52,330L51,332L44,332L42,335L40,334L40,334L40,334L24,334L24,334L22,335L19,336L18,337L9,341L6,342L6,342" fill="none" stroke="#000000" style="-webkit-tap-highlight-color: rgba(0, 0, 0, 0); stroke-linecap: round; stroke-linejoin: round; stroke-width: 5;" /><path d="M10.86,558.13L19,554L23,554L31,554L38,555L41,556L50,554L58,552L55,553L62,553L67,554L74,560L72,560L78,560L81,559L91,558L85,559L94,558L102,557L103,557L109,560L111,560L117,556L123,558L124,558" fill="none" stroke="#000000" style="-webkit-tap-highlight-color: rgba(0, 0, 0, 0); stroke-linecap: round; stroke-linejoin: round; stroke-width: 5;" /><path d="M128,557L134,563L138,553L145,552L147,552L135,563" fill="none" stroke="#000000" style="-webkit-tap-highlight-color: rgba(0, 0, 0, 0); stroke-linecap: round; stroke-linejoin: round; stroke-width: 5;" /><path d="M312.99,677.54L318,674L320,674L324,669L324,669L316,665L316,665L311,665L307,664L307,664L302,670L294,670L287,666L287,666L287,666L286,666L281,668L280,667" fill="none" stroke="#000000" style="-webkit-tap-highlight-color: rgba(0, 0, 0, 0); stroke-linecap: round; stroke-linejoin: round; stroke-width: 5;" /><path d="M274,669L277,670L273,669L273,669L273,669" fill="none" stroke="#000000" style="-webkit-tap-highlight-color: rgba(0, 0, 0, 0); stroke-linecap: round; stroke-linejoin: round; stroke-width: 5;" /><path d="M115.79,690.2L110,687L109,687L109,687L107,684L106,679L105,678L105,671L106,668L107,663L105,661L103,661L100,658L100,658L100,655L98,654L96,652L94,651L94,651L92,645L89,647L89,645L87,645L83,641L77,640L81,641" fill="none" stroke="#000000" style="-webkit-tap-highlight-color: rgba(0, 0, 0, 0); stroke-linecap: round; stroke-linejoin: round; stroke-width: 5;" /><path d="M72,640L74,640L71,640L71,640L71,640L48.85,614.22L47,612L40,613L40,613L38,613L38,613L32,614L31,614L31,611L31,608L31,603L31,600L31,595L31,591L31,593L31,588L29,588L24,587L25,589L24,589" fill="none" stroke="#000000" style="-webkit-tap-highlight-color: rgba(0, 0, 0, 0); stroke-linecap: round; stroke-linejoin: round; stroke-width: 5;" /><path d="M20,585L25,583L31,579L36,575L40,576L42,573L40,574L43,573L38,573L35,574L33,574L42,573L22,570L27,571L18,569L20,569L22,570" fill="none" stroke="#000000" style="-webkit-tap-highlight-color: rgba(0, 0, 0, 0); stroke-linecap: round; stroke-linejoin: round; stroke-width: 5;" /><path d="M128.45,730.01L124,726L123,726L123,724L124,724L124,719L124,719L125,716L125,716L148,709L148,728L150,727L150,727L154,729L155,729L157,740L161,729L166,727L162,729L172,725L174,725L174,725L177,718L177,715L178,713L172,706L172,708L172,706L168,705" fill="none" stroke="#000000" style="-webkit-tap-highlight-color: rgba(0, 0, 0, 0); stroke-linecap: round; stroke-linejoin: round; stroke-width: 5;" /><path d="M160,701L164,701L152,701L143,700L149,701L132,703L133,702L135.69,672.11L130,703L124,713L124,713L124,714L125,716" fill="none" stroke="#000000" style="-webkit-tap-highlight-color: rgba(0, 0, 0, 0); stroke-linecap: round; stroke-linejoin: round; stroke-width: 5;" /><path d="M137,662L134,661L134,661L134,661L134,661L130,660L128,659L127,659L123,658L116,656L109,655L102,650L94,651L90,651L87,651L85,651" fill="none" stroke="#000000" style="-webkit-tap-highlight-color: rgba(0, 0, 0, 0); stroke-linecap: round; stroke-linejoin: round; stroke-width: 5;" /><path d="M84,651L84,651L84,666L84,666L83,667L85,668L83,681L81,681L79,683L77,682L77,682L77,682L86.84,722.77L84,712L83,712L83,712L74,710L71,710L62,709L54,713L50,714L50,714L47,739L55,733L47,739L46,740" fill="none" stroke="#000000" style="-webkit-tap-highlight-color: rgba(0, 0, 0, 0); stroke-linecap: round; stroke-linejoin: round; stroke-width: 5;" /><path d="M46,742L46,742L47,742L48,742L55,739L69,745L69,745" fill="none" stroke="#000000" style="-webkit-tap-highlight-color: rgba(0, 0, 0, 0); stroke-linecap: round; stroke-linejoin: round; stroke-width: 5;" /><path d="M687.49,606.98L690,601L691,601L690,601L680,602L690,601L677,602L668,605L659,608L658,608L658,608L655,621L660,625L669,627L678,629L696,623" fill="none" stroke="#000000" style="-webkit-tap-highlight-color: rgba(0, 0, 0, 0); stroke-linecap: round; stroke-linejoin: round; stroke-width: 5;" /><path d="M697,623L702,621L706,618L707,610L707,610L707,610L694,601L691,601L690,601L676,603L680,602" fill="none" stroke="#000000" style="-webkit-tap-highlight-color: rgba(0, 0, 0, 0); stroke-linecap: round; stroke-linejoin: round; stroke-width: 5;" /><path d="M653.12,715.53L662,707L662,707L662,707L648,700L648,700L637,711L638,704L631,713L624,714L616,733L616,725L618,723L617,735L623,737L648,733L631,740L641,737" fill="none" stroke="#000000" style="-webkit-tap-highlight-color: rgba(0, 0, 0, 0); stroke-linecap: round; stroke-linejoin: round; stroke-width: 5;" /><path d="M654,731L661,726L648,700L662,707L648,700L634,708L638,704L633,712L598.84,708.3L593,702L592,700L598,703L587,700L578,708L578,708L584,705L584,701L582,721L581,723L582,726L590,728" fill="none" stroke="#000000" style="-webkit-tap-highlight-color: rgba(0, 0, 0, 0); stroke-linecap: round; stroke-linejoin: round; stroke-width: 5;" /><path d="M602,720L594,726L598,709L602,717L593,698L586,701L601,703L588,699L625.98,684.78L584,703L619,684L617,683L617,683L617,683L597,691L592,690L588,695L583,699" fill="none" stroke="#000000" style="-webkit-tap-highlight-color: rgba(0, 0, 0, 0); stroke-linecap: round; stroke-linejoin: round; stroke-width: 5;" /><path d="M574,712L576,705L570,723L581,722L585,713L584,721L582,721L588,712L587,707L588,712" fill="none" stroke="#000000" style="-webkit-tap-highlight-color: rgba(0, 0, 0, 0); stroke-linecap: round; stroke-linejoin: round; stroke-width: 5;" /><path d="M949.82,596.13L951,589L951,589L949,589L939,598L943,595L939,601L938,612L939,614L941,615L950,615L953,614L964,610L963,611" fill="none" stroke="#000000" style="-webkit-tap-highlight-color: rgba(0, 0, 0, 0); stroke-linecap: round; stroke-linejoin: round; stroke-width: 5;" /><path d="M964,610L966,598L964,610L954,598L954,598L952,598L991.43,576.23L995,577L995,577L981,570L981,570L957,575L975,570L954,595L954,596L962,609" fill="none" stroke="#000000" style="-webkit-tap-highlight-color: rgba(0, 0, 0, 0); stroke-linecap: round; stroke-linejoin: round; stroke-width: 5;" /><path d="M964,610L977,609L995,605L997,605L1002,602L999,592L1001,589L995,583L993,580L981,570L975,583L973,587" fill="none" stroke="#000000" style="-webkit-tap-highlight-color: rgba(0, 0, 0, 0); stroke-linecap: round; stroke-linejoin: round; stroke-width: 5;" /><path d="M928.11,529.19L924,527L928,526L942,524L942,524L947,526L951,525L969,539L951,525L969,539L975,539L989,534L989,534L994,529L994,529L994,529" fill="none" stroke="#000000" style="-webkit-tap-highlight-color: rgba(0, 0, 0, 0); stroke-linecap: round; stroke-linejoin: round; stroke-width: 5;" /><path d="M1010,536L1006,536L1020,532L1021,531L1021,531L1022,531" fill="none" stroke="#000000" style="-webkit-tap-highlight-color: rgba(0, 0, 0, 0); stroke-linecap: round; stroke-linejoin: round; stroke-width: 5;" /><path d="M904.59,322.94L902,318L903,316L901,316L901,318L901,318L899,320L899,320L902,322L902,322L906,324L910,320L914,318L920,317L923,316L929,312L926,314L931,310L931,310L934,309L934,308L937,308L940,308L943,308L941,308L943,306L944,307L948,305L946,307L948,305L953,302L953,302L955,302L959,302L956,302L961,301L960,302L969,301L969,301L970,301L972,305L972,305L972,307L972,307L975,308L977,310L979,310L981,310L982,310L983,310L987,311L988,311L990,311L991,311L993,311L996,310L997,310L1000,306L998,308L1000,306L1004,310L1008,305L1005,310L1009,305L1009,305" fill="none" stroke="#000000" style="-webkit-tap-highlight-color: rgba(0, 0, 0, 0); stroke-linecap: round; stroke-linejoin: round; stroke-width: 5;" /><path d="M1013,304L1014,304L1020,308L1020,308L1020,308L1022,308L1022,308" fill="none" stroke="#000000" style="-webkit-tap-highlight-color: rgba(0, 0, 0, 0); stroke-linecap: round; stroke-linejoin: round; stroke-width: 5;" /><path d="M209.87,521.95L212,518L212,518L212,518L213,516L216,513L217,512L220,507L223,504L224,502L228,498L230,499L235,493L235,493L237,492L239,489L242,488L246,488L246,488L244,488L251,488L251,488L253,487L254,488L257,487L260,486L261,486L262,486L263,486L267,486L268,486L270,485L270,485L273,486L274,485L277,484L279,487L280,487L283,486L282,486L286,486L288,484L289,484L291,483L293,483L295,483L295,483L299,482L298,482L300,482L299,482L302,482L305,481L309,481L306,481L308,481L311,481L313,480L317,479L315,479L318,478" fill="none" stroke="#000000" style="-webkit-tap-highlight-color: rgba(0, 0, 0, 0); stroke-linecap: round; stroke-linejoin: round; stroke-width: 5;" /></svg>