<?xml version="1.0" encoding="utf-8" ?>
<svg baseProfile="full" height="692" version="1.1" width="1024" xmlns="http://www.w3.org/2000/svg" xmlns:ev="http://www.w3.org/2001/xml-events" xmlns:xlink="http://www.w3.org/1999/xlink"><defs /><path d="M597.03,153.78L597.03,151.97L597.03,150.16L597.03,148.35L597.03,146.54L597.03,144.73L597.03,142.93L597.03,141.12L595.22,141.12L593.41,141.12L593.41,142.93L593.41,144.73L591.6,148.35L591.6,150.16L591.6,153.78L591.6,157.4L591.6,161.02L591.6,166.45L593.41,170.06L593.41,173.68L593.41,177.3L593.41,179.11L595.22,182.73L595.22,186.35L595.22,189.96L595.22,193.58L595.22,197.2L595.22,200.82L597.03,204.44L597.03,208.06L597.03,209.87L598.84,213.48L598.84,215.29L598.84,217.1L598.84,218.91L598.84,220.72L600.65,224.34L600.65,226.15L600.65,227.96L600.65,231.58L602.46,235.19L602.46,237L602.46,240.62L602.46,244.24L604.27,246.05L604.27,249.67L604.27,253.29L604.27,256.9L606.08,260.52L606.08,264.14L607.89,267.76L609.7,271.38L609.7,276.81L611.51,280.42L613.31,284.04L613.31,289.47L615.12,293.09L615.12,296.71L616.93,302.13L616.93,307.56L618.74,312.99L620.55,318.42L620.55,322.04L622.36,327.46L624.17,332.89L624.17,338.32L625.98,343.75L625.98,349.17L625.98,354.6L627.79,360.03L627.79,365.46L627.79,372.69L627.79,378.12L627.79,385.36L627.79,390.78L627.79,396.21L627.79,401.64L627.79,407.07L627.79,412.49L627.79,417.92L627.79,423.35L627.79,428.78L627.79,434.2L627.79,439.63L627.79,445.06L627.79,450.49L627.79,455.92L629.6,461.34L629.6,466.77L629.6,472.2L629.6,477.63L631.41,481.24L631.41,486.67L633.22,490.29L633.22,493.91L635.02,499.34L635.02,504.76L635.02,510.19L635.02,515.62L636.83,522.86L636.83,528.28L636.83,535.52L636.83,540.95L636.83,546.37L636.83,551.8L636.83,557.23L638.64,562.66L638.64,568.08L638.64,573.51L640.45,578.94L640.45,584.37L640.45,589.8L642.26,595.22L642.26,598.84L644.07,602.46L644.07,606.08L645.88,609.7L645.88,613.31L647.69,616.93L647.69,620.55L647.69,624.17L649.5,627.79L649.5,631.41L651.31,635.02L651.31,638.64L653.12,644.07L653.12,649.5L654.93,656.73L654.93,662.16L656.73,669.4L656.73,674.83L656.73,680.25L656.73,683.87L656.73,687.49L656.73,691.11L654.93,687.49L653.12,682.06" fill="none" stroke="#000000" style="-webkit-tap-highlight-color: rgba(0, 0, 0, 0); stroke-linecap: round; stroke-linejoin: round; stroke-width: 5;" /><path d="M3.62,416.11L1.81,419.73L0,421.54L0,425.16" fill="none" stroke="#000000" style="-webkit-tap-highlight-color: rgba(0, 0, 0, 0); stroke-linecap: round; stroke-linejoin: round; stroke-width: 5;" /><path d="M0,419.73L1.81,416.11L3.62,412.49L7.24,408.88L10.86,405.26L16.28,403.45L23.52,401.64L28.95,399.83L34.37,399.83L39.8,398.02L45.23,396.21L52.47,394.4L57.89,392.59L65.13,390.78L70.56,387.17L75.99,381.74L81.41,378.12L86.84,372.69L90.46,369.07L94.08,365.46L97.7,361.84L103.12,360.03L106.74,356.41L110.36,354.6L115.79,352.79L119.41,350.98L123.02,349.17L128.45,345.55L133.88,341.94L141.12,338.32L146.54,336.51L150.16,334.7L153.78,332.89L157.4,331.08L162.83,327.46L168.25,325.65L175.49,323.84L180.92,322.04L186.35,320.23L193.58,320.23L200.82,318.42L206.25,316.61L213.48,316.61L224.34,314.8L231.58,314.8L238.81,312.99L246.05,312.99L255.1,312.99L260.52,312.99L267.76,311.18L273.19,311.18L276.81,311.18L282.23,311.18L285.85,311.18L291.28,311.18L294.9,311.18L298.52,309.37L302.13,309.37L307.56,309.37L311.18,309.37L316.61,309.37L322.04,309.37L325.65,309.37L331.08,309.37L334.7,309.37L338.32,311.18L343.75,311.18L349.17,312.99L354.6,314.8L358.22,316.61L363.65,316.61L369.07,318.42L372.69,320.23L378.12,323.84L383.55,325.65L388.98,327.46L394.4,329.27L398.02,332.89L403.45,334.7L407.07,338.32L408.88,340.13L412.49,343.75L416.11,349.17L417.92,352.79L421.54,356.41L425.16,360.03L426.97,361.84L430.59,365.46L432.4,369.07L434.2,370.88L437.82,372.69L439.63,374.5L441.44,378.12L445.06,379.93L446.87,383.55L450.49,385.36L452.3,388.98L454.11,392.59L457.72,394.4L459.53,398.02L463.15,399.83L464.96,403.45L470.39,408.88L474.01,410.69L475.82,414.3L479.43,416.11L481.24,417.92L484.86,421.54L486.67,423.35L490.29,426.97L492.1,430.59L495.72,434.2L497.53,436.01L499.34,439.63L501.14,443.25L502.95,446.87L504.76,450.49L506.57,454.11L508.38,457.72L510.19,461.34L512,464.96L513.81,466.77L515.62,470.39L519.24,472.2L521.05,474.01L522.86,475.82L526.47,477.63L528.28,481.24L530.09,483.05L531.9,484.86L535.52,488.48L537.33,490.29L539.14,493.91L540.95,497.53L542.76,501.14L544.57,504.76L546.37,506.57L548.18,510.19L549.99,513.81L551.8,517.43L553.61,521.05L557.23,524.66L559.04,528.28L559.04,531.9L560.85,535.52L560.85,540.95L562.66,544.57L562.66,548.18L562.66,551.8L564.47,555.42L564.47,557.23L566.28,560.85L568.08,566.28L569.89,568.08L571.7,571.7L573.51,577.13L575.32,580.75L578.94,584.37L580.75,586.18L582.56,589.8L582.56,591.6L586.18,598.84L587.99,602.46L589.8,606.08L589.8,609.7L591.6,613.31L591.6,616.93L593.41,618.74L593.41,622.36L595.22,624.17L595.22,627.79L597.03,631.41L597.03,635.02L598.84,636.83L598.84,638.64L598.84,640.45L600.65,644.07L602.46,647.69L602.46,649.5L604.27,651.31L606.08,653.12L607.89,654.93L611.51,654.93L613.31,656.73L616.93,660.35L620.55,663.97L624.17,667.59L627.79,671.21L629.6,676.64L631.41,678.45L631.41,680.25L629.6,678.45L625.98,674.83L622.36,671.21" fill="none" stroke="#000000" style="-webkit-tap-highlight-color: rgba(0, 0, 0, 0); stroke-linecap: round; stroke-linejoin: round; stroke-width: 5;" /><path d="M43.42,521.05L39.8,524.66L37.99,524.66L36.18,524.66L34.37,524.66L32.57,526.47L28.95,526.47L27.14,530.09L23.52,531.9L19.9,533.71L16.28,535.52L12.66,539.14L9.05,542.76L7.24,542.76L3.62,544.57L0,544.57" fill="none" stroke="#000000" style="-webkit-tap-highlight-color: rgba(0, 0, 0, 0); stroke-linecap: round; stroke-linejoin: round; stroke-width: 5;" /><path d="M3.62,528.28L10.86,524.66L16.28,522.86L18.09,521.05L23.52,519.24L30.76,519.24L37.99,517.43L43.42,515.62L47.04,513.81L52.47,510.19L57.89,504.76L59.7,501.14L65.13,499.34L68.75,499.34L72.37,497.53L75.99,495.72L79.6,495.72L83.22,493.91L86.84,492.1L88.65,492.1L86.84,493.91L85.03,493.91L88.65,492.1L92.27,488.48L97.7,486.67L103.12,483.05L108.55,481.24L113.98,481.24L119.41,479.43L124.83,477.63L128.45,477.63L132.07,475.82L137.5,474.01L141.12,472.2L146.54,472.2L150.16,470.39L157.4,468.58L162.83,468.58L170.06,466.77L177.3,466.77L184.54,466.77L189.96,466.77L195.39,466.77L200.82,468.58L206.25,468.58L211.67,470.39L215.29,472.2L218.91,472.2L222.53,474.01L226.15,474.01L229.77,474.01L233.39,474.01L235.19,475.82L238.81,475.82L242.43,475.82L246.05,475.82L249.67,475.82L253.29,475.82L256.9,475.82L262.33,477.63L265.95,477.63L271.38,477.63L275,479.43L284.04,479.43L289.47,481.24L293.09,481.24L296.71,483.05L300.33,484.86L302.13,486.67L305.75,490.29L309.37,492.1L311.18,492.1L314.8,493.91L318.42,495.72L322.04,495.72L325.65,497.53L329.27,497.53L332.89,499.34L336.51,499.34L340.13,501.14L343.75,502.95L347.36,504.76L350.98,506.57L354.6,508.38L358.22,510.19L361.84,512L365.46,513.81L367.27,517.43L369.07,519.24L372.69,522.86L374.5,526.47L376.31,530.09L378.12,533.71L379.93,535.52L381.74,537.33L383.55,539.14L385.36,540.95L388.98,544.57L390.78,546.37L392.59,548.18L394.4,549.99L396.21,553.61L398.02,555.42L401.64,559.04L403.45,560.85L405.26,564.47L407.07,566.28L408.88,569.89L408.88,573.51L410.69,577.13L412.49,580.75L414.3,582.56L416.11,586.18L417.92,587.99L419.73,589.8L421.54,593.41L423.35,595.22L426.97,597.03L428.78,598.84L432.4,598.84L434.2,600.65L437.82,602.46L439.63,606.08L441.44,606.08L443.25,607.89L445.06,609.7L446.87,611.51L448.68,615.12L450.49,616.93L452.3,618.74L455.92,622.36L457.72,624.17L459.53,627.79L461.34,629.6L463.15,633.22L464.96,636.83L468.58,640.45L470.39,645.88L472.2,651.31L475.82,656.73L477.63,662.16L479.43,667.59L481.24,674.83L481.24,678.45L483.05,682.06L484.86,685.68L484.86,689.3" fill="none" stroke="#000000" style="-webkit-tap-highlight-color: rgba(0, 0, 0, 0); stroke-linecap: round; stroke-linejoin: round; stroke-width: 5;" /><path d="M484.86,683.87L481.24,676.64" fill="none" stroke="#000000" style="-webkit-tap-highlight-color: rgba(0, 0, 0, 0); stroke-linecap: round; stroke-linejoin: round; stroke-width: 5;" /><path d="M338.32,526.47L338.32,524.66L336.51,524.66L336.51,522.86L334.7,521.05L334.7,519.24L334.7,517.43L334.7,515.62L334.7,513.81L334.7,512L334.7,510.19L332.89,510.19L331.08,512L329.27,513.81L327.46,515.62L323.84,519.24L320.23,522.86L316.61,528.28L312.99,531.9L311.18,535.52L307.56,537.33L305.75,540.95L302.13,542.76L300.33,544.57L294.9,548.18L291.28,549.99L287.66,553.61L282.23,557.23L278.61,560.85L275,564.47L273.19,568.08L269.57,571.7L267.76,575.32L264.14,580.75L258.71,586.18L255.1,591.6L251.48,595.22L249.67,600.65L247.86,604.27L246.05,609.7L244.24,613.31L242.43,616.93L238.81,622.36L237,625.98L235.19,631.41L233.39,635.02L231.58,640.45L229.77,644.07L227.96,647.69L226.15,649.5L224.34,653.12L222.53,654.93L220.72,658.54L218.91,660.35L217.1,662.16L215.29,665.78L211.67,667.59L209.87,669.4L206.25,671.21L204.44,673.02L200.82,674.83L200.82,676.64" fill="none" stroke="#000000" style="-webkit-tap-highlight-color: rgba(0, 0, 0, 0); stroke-linecap: round; stroke-linejoin: round; stroke-width: 5;" /><path d="M388.98,692.92" fill="none" stroke="#000000" style="-webkit-tap-highlight-color: rgba(0, 0, 0, 0); stroke-linecap: round; stroke-linejoin: round; stroke-width: 5;" /><path d="M390.78,691.11L392.59,691.11L394.4,689.3L396.21,687.49L399.83,685.68L403.45,682.06L408.88,678.45L412.49,674.83L416.11,669.4L419.73,665.78L423.35,662.16L425.16,660.35L428.78,656.73L430.59,653.12L432.4,651.31L436.01,647.69L437.82,644.07L439.63,642.26L443.25,640.45L446.87,638.64L450.49,636.83L454.11,633.22L457.72,631.41L461.34,627.79L464.96,620.55L466.77,618.74L468.58,618.74L468.58,620.55L468.58,624.17" fill="none" stroke="#000000" style="-webkit-tap-highlight-color: rgba(0, 0, 0, 0); stroke-linecap: round; stroke-linejoin: round; stroke-width: 5;" /><path d="M611.51,130.26L609.7,132.07L607.89,132.07L606.08,133.88L606.08,135.69L606.08,137.5L607.89,135.69L609.7,133.88L613.31,130.26L620.55,123.02L624.17,117.6L631.41,112.17L636.83,106.74L642.26,103.12L645.88,99.51L649.5,95.89L653.12,92.27L654.93,88.65L658.54,85.03L662.16,81.41L667.59,75.99L673.02,72.37L678.45,68.75L683.87,63.32L689.3,59.7L694.73,54.28L698.35,50.66L701.96,45.23L705.58,39.8L709.2,34.37L712.82,28.95L714.63,21.71L716.44,16.28L720.06,12.66L723.67,7.24L727.29,3.62L729.1,0" fill="none" stroke="#000000" style="-webkit-tap-highlight-color: rgba(0, 0, 0, 0); stroke-linecap: round; stroke-linejoin: round; stroke-width: 5;" /><path d="M730.91,0L729.1,3.62L727.29,5.43" fill="none" stroke="#000000" style="-webkit-tap-highlight-color: rgba(0, 0, 0, 0); stroke-linecap: round; stroke-linejoin: round; stroke-width: 5;" /><path d="M237,3.62L235.19,3.62L233.39,1.81L231.58,1.81L229.77,1.81L227.96,0L226.15,1.81L226.15,3.62L226.15,5.43L229.77,7.24L235.19,9.05L238.81,10.86L244.24,12.66L249.67,14.47L255.1,16.28L260.52,18.09L265.95,19.9L271.38,19.9L275,21.71L278.61,21.71L282.23,21.71L287.66,21.71L291.28,23.52L296.71,23.52L300.33,25.33L305.75,27.14L309.37,27.14L314.8,27.14L318.42,28.95L323.84,30.76L329.27,32.57L332.89,36.18L338.32,37.99L341.94,39.8L347.36,43.42L356.41,47.04L360.03,50.66L363.65,52.47L367.27,54.28L370.88,56.08L376.31,57.89L381.74,59.7L385.36,59.7L392.59,61.51L398.02,63.32L401.64,65.13L407.07,66.94L410.69,68.75L416.11,70.56L421.54,72.37L425.16,75.99L430.59,79.6L436.01,83.22L441.44,85.03L446.87,88.65L454.11,90.46L459.53,92.27L466.77,92.27L472.2,94.08L479.43,94.08L483.05,94.08L486.67,94.08L488.48,94.08L492.1,95.89L495.72,95.89L499.34,97.7L501.14,99.51L502.95,101.31L506.57,101.31L510.19,103.12L512,104.93L517.43,106.74L521.05,108.55L524.66,110.36L530.09,110.36L531.9,112.17L535.52,112.17L539.14,112.17L542.76,113.98L546.37,117.6L548.18,119.41L551.8,123.02L553.61,126.64L555.42,128.45L559.04,130.26L560.85,133.88L564.47,135.69L566.28,137.5L568.08,137.5L569.89,139.31L573.51,139.31L575.32,139.31L577.13,141.12L580.75,141.12L584.37,141.12L586.18,141.12L589.8,142.93L591.6,144.73L595.22,146.54L597.03,148.35L598.84,150.16L598.84,151.97L597.03,153.78" fill="none" stroke="#000000" style="-webkit-tap-highlight-color: rgba(0, 0, 0, 0); stroke-linecap: round; stroke-linejoin: round; stroke-width: 5;" /><path d="M644.07,417.92L642.26,417.92L642.26,419.73L644.07,419.73L645.88,419.73L649.5,419.73L653.12,417.92L658.54,414.3L663.97,410.69L669.4,407.07L673.02,403.45L676.64,399.83L678.45,396.21L680.25,394.4L683.87,392.59L687.49,388.98L691.11,387.17L694.73,383.55L698.35,381.74L701.96,378.12L705.58,376.31L707.39,374.5L709.2,372.69L711.01,369.07L712.82,367.27L716.44,363.65L720.06,360.03L721.87,356.41L723.67,354.6L725.48,352.79L727.29,350.98L729.1,347.36L729.1,343.75L730.91,340.13L732.72,334.7L734.53,331.08L738.15,327.46L739.96,322.04L741.77,318.42L743.58,314.8L747.19,309.37L749,305.75L750.81,303.94L754.43,302.13L756.24,300.33L758.05,300.33L759.86,298.52L761.67,294.9L763.48,293.09L765.29,289.47L767.1,285.85L768.9,284.04L770.71,280.42L772.52,276.81L772.52,271.38L774.33,267.76L774.33,264.14L774.33,260.52L776.14,256.9L776.14,253.29L777.95,249.67L779.76,246.05L781.57,240.62L783.38,237L787,233.39L788.81,229.77L790.61,227.96L794.23,224.34L796.04,220.72L797.85,217.1L801.47,213.48L805.09,209.87L806.9,206.25L808.71,204.44L808.71,200.82L810.52,199.01L810.52,195.39L810.52,193.58L810.52,189.96L810.52,188.16L810.52,184.54L812.33,179.11L814.13,175.49L814.13,170.06L815.94,164.64L817.75,161.02L819.56,155.59L819.56,151.97L821.37,148.35L821.37,142.93L824.99,139.31L826.8,133.88L830.42,130.26L832.23,124.83L834.04,121.22L835.84,117.6L839.46,113.98L843.08,110.36L846.7,104.93L850.32,101.31L852.13,97.7L855.75,94.08L859.36,90.46L862.98,85.03L864.79,81.41L868.41,77.8L870.22,74.18L872.03,70.56L873.84,66.94L877.46,61.51L879.27,57.89L882.88,54.28L884.69,50.66L886.5,48.85L888.31,45.23L891.93,39.8L895.55,36.18L899.17,30.76L902.78,25.33L906.4,21.71L910.02,18.09L915.45,14.47L919.07,10.86L924.49,5.43L929.92,0" fill="none" stroke="#000000" style="-webkit-tap-highlight-color: rgba(0, 0, 0, 0); stroke-linecap: round; stroke-linejoin: round; stroke-width: 5;" /><path d="M794.23,285.85L790.61,289.47L787,293.09L783.38,298.52L779.76,302.13L777.95,303.94L774.33,307.56L774.33,305.75L774.33,303.94L776.14,302.13L777.95,298.52L781.57,294.9L787,291.28L794.23,285.85L799.66,282.23L803.28,278.61L806.9,275L812.33,271.38L815.94,267.76L821.37,264.14L826.8,260.52L832.23,256.9L835.84,253.29L837.65,251.48L841.27,249.67L844.89,246.05L848.51,242.43L853.94,237L857.55,233.39L862.98,229.77L868.41,226.15L873.84,222.53L877.46,218.91L881.07,215.29L884.69,209.87L888.31,208.06L890.12,204.44L891.93,200.82L895.55,197.2L897.36,193.58L900.98,188.16L904.59,182.73L911.83,171.87L915.45,166.45L919.07,162.83L922.69,159.21L924.49,155.59L928.11,151.97L931.73,148.35L935.35,142.93L938.97,139.31L942.59,133.88L946.2,130.26L951.63,124.83L957.06,121.22L962.49,117.6L967.92,113.98L973.34,110.36L978.77,106.74L986.01,103.12L989.63,97.7L995.05,92.27L1000.48,86.84L1005.91,79.6L1009.53,74.18L1011.34,68.75L1014.95,63.32L1018.57,56.08L1024,50.66" fill="none" stroke="#000000" style="-webkit-tap-highlight-color: rgba(0, 0, 0, 0); stroke-linecap: round; stroke-linejoin: round; stroke-width: 5;" /><path d="M843.08,166.45L844.89,168.25L846.7,168.25L848.51,170.06L852.13,170.06L853.94,170.06L855.75,170.06L857.55,170.06L859.36,170.06L861.17,168.25L861.17,164.64L862.98,162.83L864.79,159.21L866.6,153.78L868.41,148.35L870.22,142.93L872.03,137.5L875.65,132.07L879.27,124.83L882.88,119.41L886.5,115.79L888.31,113.98L891.93,110.36L895.55,108.55L899.17,106.74L900.98,104.93L904.59,103.12L906.4,101.31L910.02,97.7L911.83,95.89L915.45,94.08L917.26,92.27L919.07,90.46L920.88,88.65L922.69,86.84L924.49,85.03L926.3,83.22L929.92,79.6L931.73,77.8L933.54,75.99L935.35,72.37L937.16,70.56L940.78,68.75L944.4,66.94L948.01,63.32L949.82,61.51L953.44,59.7L957.06,57.89L960.68,56.08L962.49,54.28L966.11,52.47L967.92,50.66L971.53,47.04L973.34,45.23L976.96,43.42L978.77,41.61L982.39,39.8L986.01,37.99L987.82,34.37L991.43,32.57L995.05,30.76L998.67,30.76L1002.29,30.76L1005.91,30.76L1007.72,32.57L1009.53,36.18L1009.53,39.8L1007.72,43.42L1005.91,48.85L1002.29,52.47L998.67,57.89L995.05,59.7L991.43,63.32L987.82,65.13L986.01,66.94L984.2,66.94L984.2,68.75L982.39,70.56L980.58,72.37L978.77,74.18L976.96,75.99L975.15,77.8L973.34,79.6L969.72,81.41L966.11,81.41L962.49,81.41L960.68,81.41L957.06,79.6L955.25,75.99L953.44,72.37L953.44,68.75L953.44,66.94L951.63,66.94L949.82,66.94L949.82,68.75L949.82,72.37L949.82,75.99L951.63,81.41L953.44,81.41" fill="none" stroke="#000000" style="-webkit-tap-highlight-color: rgba(0, 0, 0, 0); stroke-linecap: round; stroke-linejoin: round; stroke-width: 5;" /><path d="M870.22,133.88L870.22,132.07L870.22,130.26L870.22,128.45L872.03,128.45L872.03,130.26L872.03,132.07L872.03,135.69L872.03,139.31L870.22,144.73L868.41,148.35L868.41,153.78L866.6,155.59L866.6,159.21L866.6,162.83L866.6,166.45L866.6,170.06L864.79,175.49L864.79,179.11L862.98,182.73L862.98,184.54L862.98,188.16L861.17,189.96L859.36,191.77L859.36,193.58L857.55,195.39L855.75,195.39L853.94,197.2L852.13,199.01L850.32,200.82L848.51,200.82L846.7,202.63L844.89,204.44L841.27,204.44L837.65,206.25L835.84,208.06L834.04,208.06L830.42,209.87L826.8,211.67L824.99,213.48L823.18,215.29L821.37,217.1L817.75,220.72L815.94,222.53L814.13,226.15L812.33,227.96L810.52,231.58L806.9,233.39L805.09,235.19L803.28,237L799.66,238.81L796.04,240.62L794.23,242.43L790.61,244.24L787,246.05L785.19,247.86L783.38,249.67L781.57,251.48L779.76,253.29L777.95,255.1L776.14,258.71L774.33,260.52L774.33,262.33L772.52,264.14L770.71,267.76L770.71,269.57L768.9,269.57L768.9,271.38L767.1,275L763.48,278.61L759.86,280.42L756.24,284.04L754.43,285.85L752.62,285.85L754.43,287.66L756.24,287.66" fill="none" stroke="#000000" style="-webkit-tap-highlight-color: rgba(0, 0, 0, 0); stroke-linecap: round; stroke-linejoin: round; stroke-width: 5;" /><path d="M61.51,30.76" fill="none" stroke="#000000" style="-webkit-tap-highlight-color: rgba(0, 0, 0, 0); stroke-linecap: round; stroke-linejoin: round; stroke-width: 5;" /><path d="M85.03,21.71L85.03,19.9L86.84,18.09L86.84,14.47L86.84,16.28L85.03,19.9L81.41,23.52L77.8,28.95L74.18,34.37L70.56,41.61L66.94,50.66L65.13,56.08L63.32,61.51L63.32,63.32L63.32,66.94L63.32,70.56L63.32,72.37L63.32,75.99L63.32,77.8L63.32,81.41L63.32,85.03L61.51,90.46L61.51,94.08L61.51,97.7L59.7,101.31L57.89,104.93L52.47,108.55L47.04,113.98L43.42,117.6L37.99,123.02L36.18,126.64L34.37,132.07L32.57,135.69L30.76,139.31L28.95,142.93L28.95,144.73L27.14,148.35L25.33,151.97L23.52,155.59L21.71,159.21L19.9,166.45L18.09,170.06L16.28,173.68L14.47,179.11L12.66,182.73L12.66,184.54L10.86,186.35L10.86,188.16L9.05,189.96L9.05,191.77L9.05,189.96" fill="none" stroke="#000000" style="-webkit-tap-highlight-color: rgba(0, 0, 0, 0); stroke-linecap: round; stroke-linejoin: round; stroke-width: 5;" /><path d="M94.08,27.14L94.08,25.33L94.08,23.52L92.27,21.71L92.27,19.9L94.08,16.28L95.89,14.47L97.7,9.05L99.51,5.43L103.12,1.81" fill="none" stroke="#000000" style="-webkit-tap-highlight-color: rgba(0, 0, 0, 0); stroke-linecap: round; stroke-linejoin: round; stroke-width: 5;" /></svg>