<?xml version="1.0" encoding="utf-8" ?>
<svg baseProfile="full" height="692" version="1.1" width="1024" xmlns="http://www.w3.org/2000/svg" xmlns:ev="http://www.w3.org/2001/xml-events" xmlns:xlink="http://www.w3.org/1999/xlink"><defs /><path d="M2.31,426.54L1.54,425.77L2.31,423.46L3.85,421.92L6.93,420.38L10.01,418.07L13.86,414.99L16.94,411.91L21.56,407.29L25.41,402.67L29.26,398.05L34.65,395.74L43.89,390.35L50.05,387.27L56.2,383.42L61.59,379.57L66.98,375.72L72.37,372.64L75.45,371.1L87,363.4L95.47,358.78L105.48,353.4L113.18,349.55L120.11,346.47L127.81,342.62L141.67,337.23L151.68,333.38L160.91,329.53L169.38,325.68L182.47,321.06L190.94,317.21L199.41,314.13L207.88,311.05L216.35,307.97L224.82,305.66L235.6,303.35L243.3,302.58L250.23,301.81L261,301.04L267.93,301.04L274.09,301.81L279.48,301.81L284.87,302.58L289.49,303.35L296.42,304.12L300.27,304.89L304.12,305.66L307.97,306.43L311.05,307.2L312.59,307.97L314.9,308.74L317.21,310.28L321.06,311.82L326.45,314.13L331.84,315.67L337.23,317.21L342.62,319.52L364.17,328.76L368.79,331.84L371.1,332.61L374.18,334.15L381.11,338.77L385.73,340.31L390.35,343.39L395.74,347.24L399.59,349.55L403.44,351.86L406.52,353.4L409.6,354.94L412.68,356.48L416.53,358.02L419.61,359.55L421.92,361.09L425.77,363.4L428.08,364.94L429.62,367.25L432.7,369.56L435.01,371.87L437.32,374.18L441.94,378.03L445.02,381.11L447.33,383.42L449.64,385.73L452.72,388.04L457.34,390.35L458.88,392.66L461.18,394.97L463.49,397.28L467.34,400.36L469.65,402.67L471.96,404.21L474.27,406.52L477.35,409.6L480.43,411.91L482.74,414.22L485.82,416.53L489.67,420.38L491.98,423.46L495.06,426.54L497.37,429.62L500.45,433.47L504.3,438.86L507.38,442.71L510.46,446.56L513.54,450.41L517.39,454.26L521.24,459.65L523.55,463.49L525.86,468.11L528.94,471.19L533.56,477.35L535.87,481.97L538.18,486.59L540.49,490.44L542.8,494.29L545.88,501.22L554.35,513.54L555.12,515.08L556.66,516.62L558.97,520.47L562.05,523.55L564.35,527.4L565.89,531.25L568.97,536.64L570.51,539.72L572.82,544.34L574.36,548.19L575.9,552.04L578.98,557.43L579.75,561.28L581.29,565.89L582.83,568.97L584.37,572.82L586.68,578.98L588.22,583.6L588.99,586.68L591.3,592.07L592.84,595.92L594.38,599L595.92,602.85L597.46,605.93L599.77,611.32L601.31,615.17L602.85,618.25L604.39,622.1L606.7,626.72L607.47,630.57L609.01,633.65L610.55,636.73L611.32,641.35L613.63,647.51L615.17,650.59L615.94,654.44L616.71,657.52L618.25,662.91L619.79,666.75L621.33,669.83L621.33,672.14L622.87,675.22L624.41,679.07L625.18,680.61L625.95,682.15" fill="none" stroke="#000000" style="-webkit-tap-highlight-color: rgba(0, 0, 0, 0); stroke-linecap: round; stroke-linejoin: round; stroke-width: 5;" /><path d="M4.62,539.72L3.85,539.72L3.08,538.95L2.31,538.95L1.54,538.95L2.31,538.18L3.08,536.64L5.39,534.33L9.24,531.25L13.09,528.94L22.33,525.09L26.18,523.55L28.49,522.01L33.88,518.93L39.27,515.85L45.43,512.77L53.12,507.38L58.51,505.84L63.13,502.76L69.29,498.91L76.22,495.83L81.61,493.52L94.7,488.9L100.86,487.36L106.25,485.82L109.33,485.05L114.72,482.74L119.34,481.2L127.04,478.89L131.66,478.89L136.28,477.35L142.44,477.35L147.83,476.58L153.98,475.04L161.68,475.04L167.07,475.04L173.23,475.04L183.24,475.04L190.17,474.27L196.33,474.27L201.72,474.27L207.88,475.04L213.27,475.81L221.74,476.58L226.36,476.58L230.21,477.35L236.37,478.89L240.99,479.66L244.07,481.2L247.15,481.97L248.69,482.74L252.54,485.05L256.38,486.59L259.46,487.36L261.77,488.13L264.85,488.9L269.47,489.67L273.32,490.44L276.4,491.21L280.25,491.98L284.1,492.75L287.18,494.29L291.03,495.83L293.34,496.6L295.65,497.37L298.73,498.91L301.81,500.45L304.89,501.22L307.97,502.76L311.05,503.53L318.75,505.84L321.06,506.61L322.6,507.38L326.45,509.69L328.76,511.23L331.07,512L333.38,513.54L336.46,515.08L340.31,517.39L342.62,519.7L345.7,520.47L349.55,522.78L352.63,524.32L354.94,525.86L358.78,527.4L361.09,529.71L363.4,531.25L367.25,534.33L369.56,535.87L371.87,537.41L373.41,538.95L375.72,541.26L378.03,542.8L379.57,544.34L381.11,545.88L382.65,547.42L383.42,548.96L385.73,552.04L387.27,553.58L389.58,555.89L391.89,557.43L393.43,559.74L394.97,561.28L397.28,563.58L399.59,565.12L401.9,567.43L403.44,569.74L405.75,571.28L408.06,573.59L409.6,574.36L411.91,575.9L413.45,577.44L415.76,578.98L417.3,581.29L419.61,583.6L421.92,585.14L423.46,586.68L425.77,588.22L428.08,590.53L429.62,594.38L431.16,597.46L434.24,600.54L435.78,602.85L438.09,605.16L440.4,609.01L441.94,612.09L444.25,614.4L445.79,617.48L451.18,625.95L451.95,627.49L452.72,628.26L455.03,632.88L455.8,635.19L456.57,635.96L457.34,639.04L458.88,642.89L460.42,644.43L460.42,646.74L461.18,648.28L463.49,651.36L464.26,653.67L466.57,656.75L467.34,658.29L468.88,661.37L470.42,664.45L471.96,665.98L472.73,668.29L473.5,671.37L475.04,674.45L475.04,675.22L477.35,681.38L478.89,683.69L478.89,685.23L480.43,687.54" fill="none" stroke="#000000" style="-webkit-tap-highlight-color: rgba(0, 0, 0, 0); stroke-linecap: round; stroke-linejoin: round; stroke-width: 5;" /><path d="M325.68,525.09L325.68,524.32L326.45,523.55L324.14,523.55L321.06,525.09L317.98,527.4L315.67,528.94L313.36,532.02L309.51,535.1L307.2,538.18L305.66,541.26L303.35,544.34L301.04,548.19L297.96,553.58L296.42,555.89L295.65,558.2L294.11,561.28L291.8,564.35L289.49,565.89L287.18,567.43L284.87,568.97L284.1,570.51L282.56,571.28L281.79,572.05L280.25,574.36L279.48,575.9L277.94,578.21L277.17,579.75L277.17,581.29L277.17,582.83L277.17,583.6L277.17,585.91L276.4,587.45L275.63,588.99L274.86,590.53L274.09,592.07L272.55,594.38L271.78,595.15L271.01,595.92L268.7,597.46L267.16,599L265.62,601.31L264.08,602.85L264.08,603.62L261.77,604.39L259.46,605.16L257.15,606.7L251.77,610.55L251,611.32L248.69,612.09L246.38,612.86L243.3,613.63L241.76,615.17L239.45,615.94L237.91,616.71L236.37,618.25L234.83,618.25L233.29,618.25L231.75,619.02L230.21,619.79L229.44,621.33L227.13,622.87L226.36,624.41L225.59,625.95L224.82,627.49L224.05,629.8L223.28,632.88L221.74,635.19L221.74,635.96L220.2,639.04L219.43,641.35L217.89,645.97L217.89,647.51L217.89,648.28L216.35,649.82L215.58,651.36L215.58,652.13L215.58,652.9L214.81,654.44L213.27,656.75L213.27,658.29L212.5,659.06L211.73,660.6L210.96,662.91L210.96,663.68L210.19,665.22L209.42,666.75L208.65,671.37L208.65,674.45L208.65,676.76L208.65,679.84L208.65,682.15L208.65,686L210.19,691.39" fill="none" stroke="#000000" style="-webkit-tap-highlight-color: rgba(0, 0, 0, 0); stroke-linecap: round; stroke-linejoin: round; stroke-width: 5;" /><path d="M235.6,10.78L234.06,6.93L233.29,6.16L231.75,3.85L230.98,1.54L230.98,0.77L231.75,0.77L234.06,2.31L236.37,3.08L240.99,6.16L243.3,6.93L248.69,6.93L252.54,7.7L257.15,8.47L262.54,9.24L265.62,10.78L268.7,11.55L271.78,13.09L274.86,14.63L277.17,16.17L278.71,16.94L280.25,18.48L281.79,18.48L285.64,20.02L291.03,21.56L294.88,22.33L299.5,23.87L301.81,23.87L305.66,25.41L307.97,26.95L311.05,27.72L314.9,28.49L317.98,29.26L319.52,30.03L322.6,30.03L325.68,30.8L327.99,31.57L329.53,32.34L331.84,33.88L334.15,34.65L338,36.19L341.08,36.96L341.85,37.73L344.93,37.73L348.78,38.5L351.86,39.27L354.17,40.04L357.25,40.81L359.55,41.58L363.4,42.35L365.71,43.12L368.79,43.89L371.1,45.43L373.41,46.2L374.95,46.97L380.34,49.28L383.42,50.82L384.96,51.58L386.5,53.12L388.04,54.66L390.35,55.43L393.43,57.74L395.74,59.28L398.82,60.82L401.9,61.59L406.52,63.13L408.83,63.9L411.91,65.44L414.22,66.21L418.07,67.75L420.38,69.29L421.92,70.06L425.77,70.06L427.31,70.83L430.39,72.37L434.24,74.68L437.32,76.22L439.63,78.53L444.25,81.61L446.56,83.15L449.64,84.69L451.95,86.23L454.26,87.77L458.11,90.08L460.42,91.62L463.49,93.16L465.8,93.93L469.65,95.47L471.96,96.24L473.5,96.24L475.81,97.78L477.35,98.55L480.43,100.09L482.74,101.63L485.05,101.63L487.36,102.4L489.67,103.17L492.75,104.71L495.83,105.48L498.14,105.48L500.45,106.25L502.76,107.02L506.61,107.79L508.92,107.79L510.46,108.56L512,109.33L514.31,110.1L516.62,111.64L518.93,112.41L519.7,113.18L523.55,114.72L527.4,117.03L530.48,118.57L534.33,120.88L536.64,122.42L541.26,123.96L543.57,125.5L545.88,126.27L548.96,127.04L552.04,127.81L554.35,127.81L556.66,128.58L558.97,129.35L562.05,130.12L564.35,131.66L566.66,133.2L568.97,133.97L571.28,135.51L573.59,138.59L575.13,140.13L577.44,142.44L578.98,143.21L582.06,144.75L584.37,147.06L586.68,149.37L588.22,150.91L590.53,152.45L590.53,153.22L591.3,153.22L592.07,151.68" fill="none" stroke="#000000" style="-webkit-tap-highlight-color: rgba(0, 0, 0, 0); stroke-linecap: round; stroke-linejoin: round; stroke-width: 5;" /><path d="M731.43,1.54L729.89,1.54L728.35,2.31L723.73,5.39L721.42,8.47L718.34,11.55L715.26,14.63L711.41,18.48L705.25,23.1L702.17,26.18L698.32,30.03L694.47,33.88L690.62,40.04L687.54,43.89L685.23,48.51L682.15,53.12L679.07,57.74L675.22,63.9L672.91,66.98L670.6,70.06L668.29,73.91L666.75,76.22L663.68,80.84L661.37,83.92L659.06,86.23L657.52,88.54L655.98,90.08L652.9,94.7L651.36,96.24L649.82,98.55L646.74,101.63L645.2,103.94L643.66,106.25L641.35,107.79L640.58,109.33L638.27,110.87L635.96,113.95L633.65,116.26L632.11,117.8L629.8,120.11L624.41,126.27L622.87,127.04L621.33,127.81L618.25,130.12L615.94,131.66L613.63,133.2L612.86,133.97L609.78,135.51L607.47,137.05L605.93,138.59L604.39,140.13L602.85,141.67L601.31,143.98L599.77,146.29L598.23,149.37L597.46,150.91L596.69,152.45L595.92,153.22L595.15,153.98L595.92,157.83" fill="none" stroke="#000000" style="-webkit-tap-highlight-color: rgba(0, 0, 0, 0); stroke-linecap: round; stroke-linejoin: round; stroke-width: 5;" /><path d="M596.69,160.14L595.92,160.14L594.38,170.15L594.38,171.69L595.15,177.08L595.92,181.7L596.69,186.32L597.46,190.94L598.23,194.79L599,200.95L599.77,204.8L600.54,209.42L601.31,212.5L601.31,215.58L602.08,217.12L601.31,225.59L601.31,229.44L601.31,233.29L602.08,241.76L602.08,247.15L602.08,251L602.85,254.85L603.62,261L604.39,264.85L604.39,268.7L605.93,274.86L606.7,280.25L606.7,286.41L607.47,291.03L607.47,293.34L608.24,298.73L609.01,309.51L609.78,315.67L610.55,321.06L610.55,325.68L611.32,331.84L612.09,334.92L612.09,338L612.09,344.16L612.86,347.24L613.63,351.09L613.63,353.4L614.4,357.25L614.4,359.55L615.17,362.63L615.94,368.79L615.94,371.1L616.71,376.49L618.25,381.88L618.25,384.19L618.25,385.73L619.02,391.89L619.79,394.97L619.79,400.36L619.79,402.67L619.79,405.75L619.79,411.14L620.56,414.22L620.56,418.07L620.56,421.15L620.56,423.46L621.33,435.78L622.1,440.4L622.87,443.48L623.64,450.41L623.64,452.72L625.18,460.42L625.95,463.49L626.72,465.8L627.49,468.88L628.26,471.96L629.03,476.58L629.8,480.43L630.57,484.28L632.11,488.9L632.88,494.29L633.65,495.06L634.42,498.14L635.19,500.45L635.96,501.99L636.73,506.61L636.73,509.69L636.73,510.46L636.73,512.77L636.73,513.54L637.5,515.85L637.5,516.62L637.5,517.39L638.27,523.55L638.27,525.09L639.04,526.63L639.04,529.71L639.81,532.02L639.81,535.1L639.81,537.41L640.58,538.18L640.58,540.49L640.58,542.8L641.35,545.88L641.35,547.42L641.35,548.19L641.35,552.04L641.35,555.12L641.35,558.97L641.35,562.05L642.12,565.89L642.12,568.97L642.12,571.28" fill="none" stroke="#000000" style="-webkit-tap-highlight-color: rgba(0, 0, 0, 0); stroke-linecap: round; stroke-linejoin: round; stroke-width: 5;" /><path d="M640.58,568.2L640.58,570.51L641.35,573.59L641.35,575.9L642.12,581.29L642.89,585.14L642.89,589.76L642.89,593.61L642.12,602.85L642.12,606.7L642.12,610.55L642.89,615.94L642.89,620.56L643.66,625.95L643.66,632.88L644.43,636.73L644.43,644.43L644.43,649.82L644.43,654.44L644.43,655.98L645.2,661.37L645.2,665.98L645.2,669.06L645.97,677.53L646.74,681.38L646.74,685.23L648.28,689.08L648.28,691.39" fill="none" stroke="#000000" style="-webkit-tap-highlight-color: rgba(0, 0, 0, 0); stroke-linecap: round; stroke-linejoin: round; stroke-width: 5;" /><path d="M644.43,439.63L644.43,438.86L645.97,435.01L649.05,431.93L652.13,426.54L655.98,422.69L661.37,416.53L665.22,412.68L673.68,401.13L678.3,394.97L682.92,389.58L686.77,383.42L693.7,374.95L698.32,368.79L703.71,363.4L708.33,358.02L710.64,354.17L716.03,345.7L717.57,341.85L718.34,340.31L719.88,338L722.19,335.69L726.04,331.84L729.89,327.22L732.97,324.91L736.05,321.83L739.9,317.98L746.83,311.05L752.22,307.97L756.84,304.12L761.46,300.27L766.85,296.42L771.46,292.57L775.31,288.72L779.16,284.87L783.78,278.71L789.94,269.47L791.48,267.16L799.95,255.62L805.34,247.15L809.96,239.45L813.81,230.98L816.89,225.59L818.43,221.74L819.2,217.89L819.2,214.04L819.97,207.11L819.97,204.03L819.97,201.72L820.74,198.64L821.51,196.33L823.05,190.94L824.59,186.32L825.36,181.7L826.9,177.85L827.67,172.46L828.44,168.61L828.44,164.76L828.44,162.45L828.44,159.37L828.44,157.06L828.44,151.68L828.44,147.83L829.21,143.98L829.21,140.13L829.21,134.74L829.98,131.66L831.52,128.58L834.6,122.42L836.91,120.11L839.22,115.49L841.53,111.64L845.38,107.79L851.54,100.86L855.39,95.47L858.47,91.62L860.78,87.77L863.09,85.46L863.86,83.15L864.63,79.3L864.63,75.45L865.4,73.14L866.17,70.06L867.71,66.21L870.02,61.59L872.32,56.97L875.4,50.82L880.02,43.12L883.1,37.73L887.72,33.88L893.88,30.03L902.35,25.41L907.74,22.33L911.59,18.48L917.75,11.55L918.52,10.78L921.6,5.39L925.45,2.31L928.53,0" fill="none" stroke="#000000" style="-webkit-tap-highlight-color: rgba(0, 0, 0, 0); stroke-linecap: round; stroke-linejoin: round; stroke-width: 5;" /><path d="M1015.53,52.35L1013.99,53.12L1010.91,54.66L1006.29,56.97L1000.13,63.13L991.66,72.37L983.96,83.92L979.34,92.39L974.72,99.32L968.57,107.79L963.95,113.18L960.1,118.57L957.02,123.19L954.71,127.81L951.63,133.97L949.32,137.05L947.01,139.36L946.24,141.67L944.7,143.98L943.93,147.06L943.16,149.37L934.69,165.53L931.61,170.15L930.07,172.46L928.53,175.54L921.6,184.01L915.44,188.63L910.05,194.02L904.66,199.41L900.04,204.8L894.65,210.96L886.18,220.97L880.02,226.36L873.86,231.75L868.48,237.14L863.09,241.76L860.01,244.07L850.77,253.31L839.22,262.54L825.36,273.32L819.2,279.48L814.58,284.1L809.96,287.95L804.57,292.57L800.72,295.65L796.1,298.73L792.25,301.81L787.63,305.66L781.47,311.05L776.85,314.9L772.23,317.98L767.62,322.6L760.69,327.99L758.38,331.84L756.07,334.92L753.76,338L752.99,340.31L749.91,346.47L746.83,349.55L744.52,351.86L743.75,354.17L742.21,355.71L741.44,356.48L739.9,358.02L738.36,360.32L736.82,363.4L732.97,367.25L731.43,371.1L729.12,374.18L725.27,378.03L720.65,384.96L717.57,389.58L713.72,392.66L709.87,396.51L706.02,398.82L701.4,401.9L697.55,402.67L692.93,404.21L689.08,407.29L683.69,411.91L675.22,418.84L672.91,420.38L671.37,422.69L666.75,425.77L659.83,431.93L658.29,434.24L655.98,436.55" fill="none" stroke="#000000" style="-webkit-tap-highlight-color: rgba(0, 0, 0, 0); stroke-linecap: round; stroke-linejoin: round; stroke-width: 5;" /></svg>