<?xml version="1.0" encoding="utf-8" ?>
<svg baseProfile="full" height="1343" version="1.1" width="1024" xmlns="http://www.w3.org/2000/svg" xmlns:ev="http://www.w3.org/2001/xml-events" xmlns:xlink="http://www.w3.org/1999/xlink"><defs /><path d="M322.08,319.14L322.08,315.23L322.08,313.27L322.08,311.31L318.16,313.27L317.19,313.27L314.25,315.23L313.27,315.23L309.35,317.19L308.37,317.19L308.37,318.16L307.4,319.14L307.4,320.12L307.4,323.06L306.42,325.02L305.44,326L304.46,329.91L304.46,332.85L304.46,334.81L304.46,336.76L304.46,339.7L304.46,343.62L304.46,345.58L304.46,349.49L304.46,354.39L304.46,359.28L304.46,363.2L304.46,365.15L304.46,369.07L305.44,372.99L305.44,373.97L304.46,378.86L304.46,381.8L303.48,386.69L303.48,389.63L303.48,392.57L303.48,395.5L302.5,399.42L301.52,403.33L300.54,407.25L300.54,410.19L300.54,417.04L300.54,420.96L300.54,424.87L299.56,428.79L299.56,433.68L299.56,437.6L299.56,441.51L299.56,447.39L299.56,451.3L299.56,453.26L298.59,461.09L298.59,464.03L297.61,470.88L297.61,471.86L297.61,472.84L297.61,474.8L296.63,478.72L296.63,481.65L296.63,483.61L296.63,484.59L295.65,486.55L295.65,488.5L295.65,491.44L295.65,493.4L295.65,495.36L295.65,496.34L294.67,497.32L293.69,500.25L292.71,502.21L291.73,505.15L290.75,506.13L290.75,507.11L288.8,508.08L287.82,511.02L285.86,512.98L283.9,514.94L280.96,517.87L279.98,518.85L279.01,521.79L278.03,523.75L277.05,526.68L275.09,529.62L274.11,530.6L273.13,536.47L273.13,537.45L272.15,543.33L272.15,545.28L271.17,548.22L271.17,552.14L270.2,556.05L269.22,560.95L269.22,561.93L268.24,566.82L268.24,570.74L268.24,575.63L268.24,579.55L267.26,582.49L267.26,586.4L267.26,591.3L266.28,597.17L267.26,603.04L267.26,605L268.24,609.9L268.24,614.79L268.24,616.75L269.22,618.71L269.22,620.67L269.22,624.58L270.2,629.48L270.2,631.43L270.2,636.33L270.2,648.08L270.2,651.01L270.2,651.99L271.17,654.93L271.17,658.85L271.17,662.76L272.15,668.63L272.15,670.59L272.15,674.51L272.15,679.4L273.13,688.21L273.13,691.15L273.13,694.09L273.13,696.05L272.15,698.98L272.15,701.92L272.15,703.88L272.15,707.79L270.2,713.67L269.22,716.6L268.24,719.54L266.28,722.48L265.3,725.41L264.32,728.35L263.34,733.25L262.36,735.2L261.38,738.14L261.38,741.08L260.41,746.95L259.43,750.87L258.45,753.8L258.45,757.72L257.47,761.64L257.47,765.55L256.49,772.41L256.49,775.34L256.49,782.2L255.51,789.05L255.51,793.94L255.51,796.88L255.51,800.8L255.51,803.73L255.51,809.61L255.51,811.56L256.49,815.48L256.49,819.4L256.49,824.29L256.49,826.25L256.49,829.19L257.47,831.14L257.47,833.1L256.49,836.04L256.49,838.98L255.51,843.87L255.51,845.83L255.51,846.81L254.53,848.76L253.55,853.66L252.57,855.62L251.59,857.58L251.59,858.55L251.59,859.53L250.62,861.49L249.64,863.45L248.66,865.41L247.68,867.37L246.7,869.32L244.74,872.26L242.78,875.2L239.85,880.09L236.91,882.05L234.95,884.99L231.04,887.92L228.1,890.86L226.14,894.78L223.2,897.71L221.25,901.63L218.31,909.46L217.33,912.4L216.35,915.33L214.39,919.25L213.41,922.19L211.46,924.15L210.48,927.08L209.5,931L208.52,933.93L206.56,938.83L204.6,941.77L202.65,944.7L199.71,946.66L195.79,950.58L189.92,955.47L182.09,963.3L174.26,972.11L172.3,975.05" fill="none" stroke="#000000" style="-webkit-tap-highlight-color: rgba(0, 0, 0, 0); stroke-linecap: round; stroke-linejoin: round; stroke-width: 6;" /><path d="M308.37,306.42L311.31,305.44L317.19,304.46L324.04,303.48L335.79,301.52L343.62,299.56L351.45,297.61L359.28,297.61L368.09,296.63L379.84,296.63L387.67,296.63L396.48,297.61L403.33,297.61L415.08,298.59L421.93,299.56L428.79,300.54L434.66,301.52L440.54,303.48L445.43,304.46L452.28,307.4L457.18,309.35L461.09,311.31L467.95,314.25L471.86,315.23L475.78,316.21L479.69,317.19L483.61,319.14L487.53,321.1L491.44,323.06L497.32,325.02L499.27,326L504.17,327.95L506.13,328.93L513.96,331.87L517.87,333.83L522.77,335.79L526.68,336.76L530.6,338.72L545.28,345.58L547.24,346.55L550.18,348.51L552.14,349.49L555.07,350.47L558.01,351.45L560.95,353.41L563.89,353.41L566.82,354.39L568.78,355.37L571.72,357.32L578.57,360.26L581.51,362.22L584.44,364.18L587.38,366.13L590.32,368.09L592.28,369.07L594.23,371.03L596.19,372.99L598.15,373.97L601.09,375.92L603.04,376.9L605,377.88L606.96,378.86L607.94,379.84L609.9,379.84L611.85,380.82L614.79,379.84L617.73,379.84L623.6,378.86" fill="none" stroke="#000000" style="-webkit-tap-highlight-color: rgba(0, 0, 0, 0); stroke-linecap: round; stroke-linejoin: round; stroke-width: 6;" /><path d="M625.56,391.59L625.56,390.61L625.56,391.59L624.58,392.57L624.58,395.5L623.6,403.33L623.6,409.21L623.6,416.06L623.6,422.91L623.6,429.77L624.58,435.64L624.58,441.51L625.56,446.41L625.56,454.24L625.56,459.14L625.56,464.03L624.58,468.93L624.58,472.84L624.58,475.78L625.56,478.72L626.54,480.67L626.54,483.61L627.52,490.46L627.52,494.38L627.52,498.29L628.5,501.23L629.48,505.15L629.48,508.08L629.48,512.98L628.5,518.85L628.5,523.75L628.5,527.66L628.5,540.39L628.5,545.28L628.5,551.16L627.52,557.03L627.52,562.91L627.52,567.8L627.52,572.7L626.54,578.57L625.56,584.44L624.58,597.17L623.6,603.04L622.62,608.92L622.62,613.81L622.62,618.71L622.62,624.58L622.62,628.5L622.62,633.39L621.64,646.12L621.64,651.01L621.64,655.91L621.64,661.78L621.64,666.68L621.64,671.57L621.64,676.47L621.64,680.38L621.64,684.3L621.64,692.13L621.64,696.05L622.62,698.98L622.62,700.94L622.62,701.92L622.62,703.88L622.62,706.81L622.62,707.79L623.6,709.75L623.6,711.71L623.6,712.69L624.58,715.63L625.56,723.46L626.54,729.33L626.54,735.2L627.52,744.99L627.52,748.91L627.52,753.8L627.52,757.72L627.52,761.64L627.52,767.51L627.52,772.41L627.52,778.28L626.54,784.15L626.54,791.98L626.54,799.82L626.54,803.73L627.52,807.65L627.52,811.56L627.52,815.48L627.52,818.42L627.52,821.35L627.52,823.31L626.54,829.19L626.54,832.12L627.52,835.06L627.52,838.98L627.52,840.93L627.52,842.89L627.52,844.85L627.52,846.81L628.5,848.76L629.48,852.68L629.48,854.64L629.48,856.6L629.48,857.58L630.46,859.53L632.41,867.37L632.41,870.3L632.41,872.26L633.39,873.24L633.39,874.22L634.37,876.18L635.35,876.18L635.35,878.13L636.33,879.11L637.31,880.09L638.29,881.07L639.27,882.05L640.24,883.03L641.22,884.99L643.18,885.97L644.16,887.92L645.14,890.86L645.14,891.84L646.12,893.8L646.12,896.73L646.12,897.71L647.1,899.67L647.1,902.61L647.1,905.54L648.08,907.5L649.06,910.44L649.06,913.38L650.03,919.25L650.03,921.21L650.03,924.15L650.03,928.06L651.01,931L651.01,932.96L650.03,934.91" fill="none" stroke="#000000" style="-webkit-tap-highlight-color: rgba(0, 0, 0, 0); stroke-linecap: round; stroke-linejoin: round; stroke-width: 6;" /><path d="M195.79,966.24L198.73,964.28L203.63,962.33L209.5,958.41L215.37,955.47L222.23,952.54L230.06,948.62L252.57,941.77L265.3,936.87L278.03,931.98L289.77,927.08L302.5,923.17L314.25,920.23L326.98,918.27L338.72,917.29L349.49,916.31L361.24,914.36L383.76,909.46L393.54,906.52L401.38,905.54L410.19,906.52L419,908.48L425.85,909.46L434.66,911.42L441.51,912.4L448.37,914.36L461.09,917.29L466.97,919.25L472.84,920.23L479.69,921.21L485.57,920.23L492.42,919.25L498.29,918.27L514.94,913.38L520.81,912.4L526.68,911.42L531.58,911.42L536.47,910.44L542.35,909.46L546.26,907.5L551.16,906.52L555.07,905.54L560.95,905.54L567.8,905.54L572.7,905.54L578.57,904.57L583.46,902.61L590.32,900.65L597.17,898.69L605.98,896.73L614.79,894.78L623.6,893.8" fill="none" stroke="#000000" style="-webkit-tap-highlight-color: rgba(0, 0, 0, 0); stroke-linecap: round; stroke-linejoin: round; stroke-width: 6;" /><path d="M527.66,514.94L527.66,520.81L526.68,525.71L526.68,531.58L525.71,537.45L526.68,544.31L528.64,551.16L529.62,555.07L529.62,563.89L529.62,572.7L530.6,579.55L531.58,586.4L532.56,593.25L533.54,599.13L533.54,605.98L532.56,613.81L532.56,617.73L532.56,626.54L532.56,629.48L533.54,638.29L533.54,643.18L533.54,648.08L533.54,653.95L534.52,659.82L535.5,664.72L536.47,670.59L536.47,674.51L535.5,679.4L534.52,689.19L533.54,696.05L533.54,702.9L532.56,709.75L531.58,715.63L530.6,724.44L529.62,727.37L529.62,736.18L529.62,738.14L528.64,749.89L529.62,754.78L529.62,758.7L529.62,762.62L530.6,767.51L531.58,771.43L532.56,775.34L533.54,778.28L533.54,782.2L534.52,789.05L534.52,797.86L534.52,801.77L534.52,803.73L535.5,806.67L535.5,814.5L535.5,817.44L536.47,826.25L535.5,829.19L534.52,840.93L533.54,845.83L533.54,850.72L533.54,855.62L532.56,860.51L531.58,864.43L530.6,868.34L530.6,873.24L529.62,878.13L529.62,882.05L529.62,888.9L528.64,893.8L527.66,898.69L527.66,902.61L526.68,907.5L525.71,911.42L523.75,915.33L520.81,920.23" fill="none" stroke="#000000" style="-webkit-tap-highlight-color: rgba(0, 0, 0, 0); stroke-linecap: round; stroke-linejoin: round; stroke-width: 6;" /><path d="M530.6,922.19L531.58,922.19L534.52,923.17L537.45,924.15L539.41,925.12L542.35,929.04L548.22,936.87L551.16,940.79L553.12,944.7L554.1,949.6L555.07,953.51L555.07,957.43L556.05,959.39L558.01,962.33L558.99,964.28L562.91,968.2L562.91,972.11L562.91,976.03L562.91,978.97L561.93,981.9L560.95,983.86L558.99,985.82L558.99,989.74L558.01,991.69L556.05,999.53L556.05,1002.46L556.05,1005.4L556.05,1009.32L556.05,1013.23L557.03,1016.17L558.01,1021.06L558.99,1024L559.97,1024.98L560.95,1027.92" fill="none" stroke="#000000" style="-webkit-tap-highlight-color: rgba(0, 0, 0, 0); stroke-linecap: round; stroke-linejoin: round; stroke-width: 6;" /><path d="M450.33,340.68L449.35,342.64L449.35,344.6L450.33,350.47L450.33,357.32L452.28,364.18L454.24,371.03L457.18,380.82L461.09,397.46L462.07,402.36L467.95,418.02L469.9,422.91L478.72,438.58L482.63,445.43L486.55,451.3L490.46,459.14L494.38,466.97L499.27,477.74L500.25,480.67L504.17,488.5L505.15,489.48L511.02,496.34L513.96,500.25L516.89,505.15L519.83,511.02L520.81,512.98" fill="none" stroke="#000000" style="-webkit-tap-highlight-color: rgba(0, 0, 0, 0); stroke-linecap: round; stroke-linejoin: round; stroke-width: 6;" /><path d="M569.76,399.42L569.76,405.29L570.74,413.12L570.74,429.77L570.74,437.6L569.76,444.45L567.8,455.22L566.82,461.09L564.86,466.97L562.91,471.86L561.93,476.76L560.95,480.67L560.95,483.61L559.97,486.55L559.97,490.46L559.97,495.36L558.99,498.29L558.01,501.23L558.01,505.15L557.03,508.08L556.05,512L555.07,514.94L555.07,516.89L553.12,518.85L551.16,523.75L550.18,525.71L549.2,527.66L548.22,530.6L548.22,532.56L547.24,535.5L547.24,536.47L547.24,541.37L547.24,543.33L547.24,547.24L548.22,548.22L548.22,551.16L548.22,554.1L548.22,555.07L548.22,557.03L549.2,559.97L550.18,561.93L551.16,563.89L551.16,568.78L551.16,570.74L551.16,572.7L551.16,574.65L551.16,576.61L550.18,578.57L550.18,581.51L549.2,584.44L549.2,587.38L549.2,596.19L549.2,599.13L549.2,603.04L549.2,605L549.2,607.94L549.2,610.88L550.18,612.83L550.18,615.77L550.18,617.73L551.16,622.62L551.16,628.5L552.14,631.43L552.14,635.35L553.12,638.29L553.12,641.22L554.1,644.16L554.1,646.12L556.05,651.01L557.03,652.97L558.01,654.93L558.99,656.89L559.97,659.82L560.95,662.76L561.93,666.68L562.91,670.59L563.89,674.51L564.86,684.3L564.86,689.19L565.84,693.11L565.84,698L565.84,700.94L566.82,704.86L566.82,709.75L566.82,713.67L566.82,718.56L565.84,727.37L564.86,732.27L564.86,736.18L564.86,740.1L564.86,744.99L565.84,748.91L565.84,752.83L566.82,755.76L566.82,759.68L568.78,769.47L569.76,773.38L570.74,778.28L571.72,782.2L572.7,786.11L572.7,789.05L572.7,793.94L572.7,798.84L571.72,802.75L570.74,812.54L570.74,817.44L569.76,821.35L568.78,826.25L568.78,829.19L568.78,834.08L568.78,838L567.8,839.95L566.82,842.89L564.86,846.81L562.91,854.64L562.91,858.55L562.91,861.49L562.91,865.41L561.93,868.34L561.93,875.2L561.93,883.03L562.91,885.97L561.93,888.9L559.97,898.69L559.97,902.61" fill="none" stroke="#000000" style="-webkit-tap-highlight-color: rgba(0, 0, 0, 0); stroke-linecap: round; stroke-linejoin: round; stroke-width: 6;" /><path d="M296.63,374.94L295.65,374.94L293.69,373.97L290.75,373.97L285.86,376.9L282.92,377.88L277.05,381.8L272.15,386.69L268.24,388.65L264.32,391.59L261.38,395.5L258.45,399.42L256.49,404.31L255.51,409.21L254.53,416.06L253.55,419.98L253.55,421.93L253.55,431.72L253.55,436.62L253.55,441.51L253.55,446.41L252.57,450.33L252.57,457.18L252.57,462.07L252.57,464.03L252.57,471.86L250.62,478.72L249.64,483.61L247.68,487.53L245.72,490.46L244.74,493.4L241.8,498.29L240.83,499.27L237.89,504.17L236.91,506.13L234.95,512L232.99,514.94L231.04,516.89L229.08,517.87L227.12,519.83L225.16,523.75L224.18,525.71L223.2,529.62L222.23,530.6L220.27,532.56L219.29,534.52L218.31,536.47L217.33,539.41L216.35,542.35L216.35,545.28L216.35,546.26L216.35,551.16L216.35,554.1L219.29,565.84L220.27,570.74L221.25,574.65L222.23,580.53L223.2,585.42L224.18,593.25L224.18,596.19L225.16,605L226.14,614.79L228.1,621.64L229.08,628.5L229.08,634.37L230.06,640.24L230.06,647.1L230.06,654.93L230.06,657.87L230.06,664.72L231.04,672.55L232.99,688.21L233.97,694.09L233.97,699.96L232.99,705.84L232.99,711.71L232.99,719.54L232.99,722.48L232.02,728.35L232.02,733.25L232.02,742.06L231.04,746.95L231.04,750.87L230.06,754.78L230.06,757.72L229.08,763.59L228.1,765.55L227.12,772.41L227.12,774.36L225.16,784.15L225.16,789.05L225.16,794.92L225.16,799.82L225.16,803.73L225.16,810.59L225.16,812.54L226.14,816.46L226.14,821.35L227.12,829.19L228.1,834.08L228.1,838.98L229.08,841.91L229.08,845.83L230.06,850.72L230.06,854.64L230.06,858.55L231.04,860.51L231.04,864.43L232.02,870.3L232.02,874.22L232.99,878.13L233.97,881.07L233.97,883.03L235.93,891.84L236.91,895.76L239.85,905.54L239.85,911.42" fill="none" stroke="#000000" style="-webkit-tap-highlight-color: rgba(0, 0, 0, 0); stroke-linecap: round; stroke-linejoin: round; stroke-width: 6;" /><path d="M147.82,873.24L151.74,874.22L156.63,876.18L162.51,878.13L168.38,878.13L174.26,879.11L181.11,879.11L194.81,882.05L201.67,883.03L208.52,882.05L214.39,880.09L220.27,880.09L223.2,880.09L224.18,880.09L223.2,881.07" fill="none" stroke="#000000" style="-webkit-tap-highlight-color: rgba(0, 0, 0, 0); stroke-linecap: round; stroke-linejoin: round; stroke-width: 6;" /><path d="M156.63,881.07L152.72,880.09L151.74,881.07L150.76,882.05L148.8,884.01L148.8,888.9L149.78,891.84L151.74,895.76L154.68,900.65L159.57,905.54L164.47,909.46L170.34,912.4L175.24,913.38L180.13,914.36L189.92,919.25L194.81,922.19L198.73,925.12L202.65,929.04L206.56,931.98L209.5,934.91L210.48,936.87" fill="none" stroke="#000000" style="-webkit-tap-highlight-color: rgba(0, 0, 0, 0); stroke-linecap: round; stroke-linejoin: round; stroke-width: 6;" /><path d="M29.37,861.49L26.43,862.47L24.47,862.47L22.52,863.45L21.54,864.43L20.56,864.43L20.56,865.41L20.56,866.39L20.56,867.37L23.5,867.37L27.41,866.39L31.33,865.41L36.22,865.41L41.12,865.41L47.97,866.39L53.84,867.37L68.53,866.39L74.4,867.37L79.3,868.34L88.11,871.28L92.02,873.24L94.96,873.24L97.9,874.22L100.83,875.2L103.77,876.18L103.77,877.15L105.73,878.13L107.69,880.09L108.67,882.05L108.67,883.03L107.69,885.97L106.71,888.9L105.73,891.84L104.75,894.78L103.77,897.71L103.77,899.67L102.79,902.61L101.81,905.54L99.85,910.44L98.88,912.4L98.88,914.36L98.88,916.31L99.85,919.25L100.83,920.23L101.81,922.19L103.77,923.17L105.73,925.12L111.6,929.04L113.56,931L117.48,932.96L119.43,934.91L122.37,936.87L124.33,938.83L127.27,940.79L129.22,943.72L132.16,946.66L134.12,949.6L135.1,951.56L136.08,953.51L137.06,956.45L138.03,959.39L139.01,962.33L139.01,966.24L139.99,969.18L140.97,974.07L140.97,977.99L141.95,981.9" fill="none" stroke="#000000" style="-webkit-tap-highlight-color: rgba(0, 0, 0, 0); stroke-linecap: round; stroke-linejoin: round; stroke-width: 6;" /><path d="M2.94,1004.42L5.87,1003.44L9.79,1002.46L14.68,1002.46L20.56,1002.46L27.41,1001.48L36.22,1000.5L45.03,1000.5L54.82,999.53L63.63,998.55L73.42,996.59L89.09,994.63L96.92,994.63L104.75,994.63L112.58,994.63L120.41,994.63L128.24,995.61L136.08,994.63L141.95,994.63L147.82,994.63L159.57,995.61L165.45,997.57L170.34,999.53L176.21,1001.48L181.11,1002.46L186.98,1003.44L191.88,1004.42L198.73,1004.42L206.56,1003.44L220.27,1000.5L228.1,1000.5L234.95,999.53L241.8,998.55L249.64,998.55L256.49,999.53L263.34,1000.5L270.2,1000.5L277.05,1002.46L292.71,1003.44L299.56,1004.42L306.42,1006.38L313.27,1007.36L319.14,1009.32L326,1010.29L333.83,1011.27L352.43,1015.19L358.3,1016.17L365.15,1017.15L372.01,1018.13L379.84,1019.11L386.69,1019.11L391.59,1020.08L396.48,1021.06L401.38,1021.06L405.29,1022.04L416.06,1023.02L420.96,1024L425.85,1024.98L431.72,1024.98L436.62,1024.98L442.49,1024.98L448.37,1023.02L454.24,1023.02L460.11,1023.02L471.86,1022.04L478.72,1021.06L485.57,1020.08L490.46,1019.11L497.32,1019.11L503.19,1019.11L509.06,1019.11L513.96,1019.11L519.83,1018.13L527.66,1018.13L531.58,1018.13L534.52,1017.15L538.43,1017.15L542.35,1017.15L545.28,1017.15L548.22,1018.13L550.18,1019.11L551.16,1020.08" fill="none" stroke="#000000" style="-webkit-tap-highlight-color: rgba(0, 0, 0, 0); stroke-linecap: round; stroke-linejoin: round; stroke-width: 6;" /><path d="M652.97,916.31L653.95,919.25L655.91,922.19L661.78,923.17L669.61,922.19L676.47,921.21L684.3,921.21L692.13,920.23L699.96,919.25L707.79,919.25L715.63,918.27L723.46,918.27L732.27,917.29L743.04,919.25L748.91,920.23L754.78,919.25L759.68,919.25L764.57,917.29L768.49,915.33L772.41,913.38L776.32,911.42L780.24,910.44L791.01,905.54L796.88,903.59L801.77,901.63L805.69,899.67L809.61,898.69L814.5,897.71L819.4,896.73L824.29,896.73L829.19,895.76L835.06,894.78L837.02,894.78L839.95,894.78L842.89,896.73L845.83,898.69L849.74,899.67L852.68,901.63L856.6,903.59L859.53,905.54L863.45,907.5L867.37,912.4L869.32,914.36L871.28,915.33L873.24,917.29L874.22,919.25L875.2,921.21L876.18,924.15L877.15,926.1L879.11,931L880.09,933.93L882.05,935.89L884.01,936.87L886.94,938.83L891.84,940.79L893.8,941.77L898.69,943.72L900.65,943.72L908.48,942.75L912.4,941.77L915.33,940.79L918.27,938.83L920.23,936.87L923.17,934.91L925.12,933.93L927.08,931L929.04,929.04L931.98,922.19L933.93,919.25L935.89,916.31L937.85,913.38L939.81,910.44L942.75,909.46L945.68,908.48L950.58,908.48L955.47,909.46L966.24,912.4L972.11,913.38L977.99,914.36L983.86,915.33L988.76,915.33L994.63,917.29L999.53,918.27L1004.42,920.23L1009.32,921.21L1014.21,922.19L1024,923.17" fill="none" stroke="#000000" style="-webkit-tap-highlight-color: rgba(0, 0, 0, 0); stroke-linecap: round; stroke-linejoin: round; stroke-width: 6;" /><path d="M647.1,697.02L649.06,697.02L651.99,697.02L656.89,698L665.7,698.98L669.61,698.98L683.32,698.98L690.17,698.98L697.02,699.96L703.88,700.94L713.67,700.94L718.56,701.92L722.48,701.92L727.37,703.88L733.25,707.79L736.18,710.73L740.1,714.65L743.04,716.6L745.97,718.56L749.89,723.46L752.83,726.39L755.76,728.35L758.7,731.29L763.59,734.23L765.55,737.16L768.49,739.12L771.43,741.08L774.36,744.02L776.32,744.99L779.26,748.91L781.22,750.87L782.2,754.78L785.13,755.76L787.09,758.7L788.07,760.66L790.03,765.55L790.03,767.51L791.01,768.49L791.98,772.41L792.96,773.38L793.94,776.32L793.94,777.3L796.88,781.22L797.86,783.17L799.82,785.13L800.8,786.11L802.75,788.07L805.69,789.05L808.63,790.03L811.56,791.01L813.52,791.01L819.4,791.98L823.31,791.98L828.21,791.01L833.1,791.01L837.02,791.01L843.87,790.03L846.81,790.03L854.64,789.05L859.53,789.05L866.39,789.05L871.28,789.05L875.2,789.05L880.09,789.05L884.99,789.05L891.84,789.05L894.78,788.07L901.63,788.07L909.46,788.07L915.33,788.07L920.23,787.09L926.1,786.11L931,786.11L935.89,785.13L943.72,786.11L949.6,786.11L955.47,786.11L960.37,786.11L967.22,785.13L973.09,783.17L977.99,783.17L983.86,783.17L992.67,783.17L1000.5,783.17" fill="none" stroke="#000000" style="-webkit-tap-highlight-color: rgba(0, 0, 0, 0); stroke-linecap: round; stroke-linejoin: round; stroke-width: 6;" /><path d="M695.07,737.16L693.11,736.18L692.13,735.2L690.17,735.2L689.19,735.2L684.3,733.25L679.4,734.23L676.47,736.18L673.53,738.14L670.59,741.08L667.66,743.04L664.72,745.97L662.76,749.89L660.8,753.8L659.82,756.74L657.87,765.55L657.87,771.43L657.87,777.3L656.89,781.22L656.89,786.11L656.89,791.98L656.89,796.88L656.89,802.75L655.91,808.63L655.91,813.52L655.91,822.33L655.91,826.25L655.91,831.14L656.89,836.04L656.89,839.95L656.89,843.87L656.89,848.76L658.85,855.62L659.82,860.51L660.8,865.41L660.8,868.34L660.8,872.26L660.8,875.2L662.76,882.05L662.76,883.03L663.74,885.97L664.72,888.9L665.7,893.8L666.68,896.73L666.68,898.69L667.66,900.65L668.63,901.63" fill="none" stroke="#000000" style="-webkit-tap-highlight-color: rgba(0, 0, 0, 0); stroke-linecap: round; stroke-linejoin: round; stroke-width: 6;" /><path d="M680.38,741.08L681.36,740.1L682.34,738.14L685.28,736.18L689.19,735.2L690.17,735.2L695.07,734.23L696.05,733.25L701.92,731.29L704.86,731.29L708.77,732.27L711.71,733.25L714.65,734.23L718.56,737.16L719.54,738.14L723.46,743.04L724.44,744.02L729.33,747.93L732.27,749.89L733.25,752.83L734.23,755.76L735.2,758.7L736.18,761.64L737.16,764.57L738.14,769.47L739.12,771.43L741.08,779.26L743.04,787.09L744.02,791.98L744.99,792.96L744.99,794.92L746.95,799.82L747.93,801.77L748.91,806.67L749.89,808.63L750.87,816.46L751.85,819.4L752.83,822.33L752.83,826.25L752.83,829.19L753.8,834.08L753.8,836.04L753.8,840.93L754.78,841.91L754.78,848.76L754.78,852.68L754.78,856.6L754.78,860.51L754.78,865.41L754.78,868.34L754.78,871.28L754.78,875.2L754.78,878.13L754.78,883.03L754.78,885.97L755.76,887.92L755.76,890.86L755.76,893.8L755.76,896.73L756.74,898.69L756.74,900.65L756.74,902.61L757.72,906.52L759.68,908.48L760.66,911.42L761.64,914.36L761.64,916.31" fill="none" stroke="#000000" style="-webkit-tap-highlight-color: rgba(0, 0, 0, 0); stroke-linecap: round; stroke-linejoin: round; stroke-width: 6;" /><path d="M648.08,378.86L647.1,378.86L645.14,380.82L645.14,381.8L644.16,381.8L644.16,382.78L646.12,383.76L649.06,381.8L652.97,378.86L655.91,376.9L659.82,375.92L661.78,374.94L663.74,372.99L664.72,372.01L664.72,367.11L663.74,366.13L662.76,364.18L661.78,363.2L659.82,362.22L659.82,361.24L659.82,359.28L661.78,358.3L664.72,356.34L666.68,356.34L669.61,355.37L672.55,353.41L675.49,351.45L681.36,348.51L684.3,347.53L689.19,346.55L697.02,346.55L703.88,345.58L710.73,345.58L718.56,343.62L732.27,340.68L735.2,340.68L743.04,339.7L749.89,340.68L753.8,341.66L771.43,339.7L779.26,338.72L788.07,338.72L795.9,338.72L803.73,338.72L815.48,339.7L824.29,338.72L834.08,337.74L843.87,336.76L858.55,335.79L869.32,334.81L879.11,334.81L887.92,332.85L896.73,331.87L905.54,331.87L918.27,330.89L926.1,329.91L934.91,327.95L945.68,326.98L953.51,326.98L960.37,327.95L967.22,327.95L974.07,328.93L983.86,327.95L990.72,326.98L993.65,326.98L1004.42,326.98L1008.34,326.98L1024,327.95" fill="none" stroke="#000000" style="-webkit-tap-highlight-color: rgba(0, 0, 0, 0); stroke-linecap: round; stroke-linejoin: round; stroke-width: 6;" /><path d="M974.07,848.76L973.09,849.74L972.11,851.7L969.18,854.64L968.2,856.6L967.22,860.51L966.24,871.28L966.24,878.13L966.24,883.03L966.24,888.9L966.24,892.82L968.2,897.71L970.16,900.65L974.07,902.61L977.99,905.54" fill="none" stroke="#000000" style="-webkit-tap-highlight-color: rgba(0, 0, 0, 0); stroke-linecap: round; stroke-linejoin: round; stroke-width: 6;" /><path d="M973.09,842.89L976.03,841.91L978.97,840.93L982.88,840.93L988.76,842.89L994.63,843.87L1000.5,845.83L1006.38,848.76L1011.27,851.7L1015.19,854.64L1019.11,858.55L1022.04,862.47" fill="none" stroke="#000000" style="-webkit-tap-highlight-color: rgba(0, 0, 0, 0); stroke-linecap: round; stroke-linejoin: round; stroke-width: 6;" /><path d="M614.79,908.48L615.77,907.5L617.73,904.57L620.67,903.59L624.58,904.57L627.52,907.5L630.46,911.42L631.43,916.31L633.39,922.19L634.37,929.04L635.35,935.89L636.33,947.64L637.31,954.49L637.31,961.35L638.29,966.24L638.29,972.11L637.31,981.9L636.33,984.84L636.33,989.74L635.35,994.63L632.41,1003.44L632.41,1006.38" fill="none" stroke="#000000" style="-webkit-tap-highlight-color: rgba(0, 0, 0, 0); stroke-linecap: round; stroke-linejoin: round; stroke-width: 6;" /><path d="M242.78,1177.7L236.91,1173.78L235.93,1172.8L235.93,1168.89L240.83,1163.01L247.68,1159.1L255.51,1154.2L264.32,1149.31L274.11,1144.41L294.67,1134.62L305.44,1130.71L316.21,1126.79L326.98,1124.83L336.76,1122.88L353.41,1119.94L362.22,1118.96L372.01,1119.94L379.84,1119.94L391.59,1119.94L395.5,1118.96L406.27,1117.98L409.21,1117L416.06,1117.98L430.75,1120.92L436.62,1120.92L442.49,1121.9L448.37,1122.88L455.22,1122.88L462.07,1122.88L468.93,1122.88L475.78,1122.88L481.65,1121.9L491.44,1120.92L496.34,1119.94L501.23,1118.96L506.13,1117L510.04,1116.02L513.96,1115.04L518.85,1113.09L522.77,1112.11L529.62,1110.15L532.56,1109.17L535.5,1108.19L537.45,1105.25L539.41,1102.32L539.41,1099.38L541.37,1097.42L543.33,1096.44L545.28,1097.42L551.16,1099.38L555.07,1099.38L559.97,1100.36L564.86,1100.36L569.76,1100.36L576.61,1099.38L582.49,1099.38L592.28,1097.42L595.21,1096.44L605.98,1092.53L610.88,1089.59L615.77,1087.63L620.67,1084.7L625.56,1082.74L633.39,1079.8L639.27,1077.84L644.16,1074.91L649.06,1073.93L654.93,1071.97L668.63,1069.03L674.51,1068.05L681.36,1067.07L689.19,1067.07L695.07,1067.07L700.94,1067.07L707.79,1069.03L713.67,1070.99L724.44,1071.97L729.33,1071.97L734.23,1072.95L739.12,1073.93L744.02,1074.91L748.91,1076.86L752.83,1078.82L756.74,1079.8L761.64,1081.76L765.55,1083.72" fill="none" stroke="#000000" style="-webkit-tap-highlight-color: rgba(0, 0, 0, 0); stroke-linecap: round; stroke-linejoin: round; stroke-width: 6;" /><path d="M728.35,1065.12L730.31,1067.07L733.25,1069.03L738.14,1070.99L744.02,1073.93L761.64,1082.74L771.43,1088.61L782.2,1094.49L791.98,1100.36L801.77,1105.25L810.59,1108.19L826.25,1111.13L838.98,1114.07L844.85,1115.04L850.72,1115.04L855.62,1114.07L861.49,1113.09L867.37,1113.09L872.26,1112.11L876.18,1112.11L880.09,1112.11L886.94,1112.11L890.86,1113.09L894.78,1113.09L898.69,1114.07L902.61,1115.04L911.42,1115.04L914.36,1116.02L923.17,1116.02L925.12,1116.02L937.85,1120.92L943.72,1122.88L951.56,1124.83L958.41,1126.79L965.26,1127.77L976.03,1128.75L978.97,1129.73L985.82,1130.71L993.65,1132.67L1007.36,1136.58L1015.19,1138.54L1023.02,1139.52" fill="none" stroke="#000000" style="-webkit-tap-highlight-color: rgba(0, 0, 0, 0); stroke-linecap: round; stroke-linejoin: round; stroke-width: 6;" /><path d="M284.88,1184.55L295.65,1185.53L303.48,1188.47L314.25,1191.4L326.98,1195.32L340.68,1198.26L364.18,1204.13L379.84,1208.05L395.5,1212.94L415.08,1219.79L427.81,1226.65L437.6,1234.48L445.43,1241.33L453.26,1248.18L461.09,1254.06L472.84,1260.91L481.65,1267.76L490.46,1273.64L498.29,1278.53L511.02,1283.43L520.81,1284.41L531.58,1284.41L542.35,1283.43L554.1,1282.45L565.84,1280.49L577.59,1277.55L588.36,1275.59L599.13,1272.66L618.71,1268.74L627.52,1265.8L635.35,1262.87L642.2,1260.91L649.06,1259.93L655.91,1257.97L662.76,1256.02L673.53,1253.08L677.45,1251.12L692.13,1245.25L698.98,1241.33L704.86,1237.41L710.73,1233.5L716.6,1229.58L726.39,1222.73L729.33,1220.77L739.12,1213.92L741.08,1210.98L748.91,1203.15L752.83,1199.24L757.72,1196.3L763.59,1191.4L772.41,1188.47L782.2,1184.55L792.96,1182.59L810.59,1178.68L816.46,1178.68L842.89,1174.76L854.64,1172.8L865.41,1170.85L877.15,1168.89L887.92,1168.89L898.69,1168.89L909.46,1168.89L926.1,1170.85L932.96,1172.8L952.54,1176.72L974.07,1182.59L1003.44,1191.4" fill="none" stroke="#000000" style="-webkit-tap-highlight-color: rgba(0, 0, 0, 0); stroke-linecap: round; stroke-linejoin: round; stroke-width: 6;" /><path d="M638.29,1274.62L637.31,1274.62L634.37,1275.59L632.41,1278.53L632.41,1283.43L636.33,1291.26L641.22,1301.05L649.06,1309.86L657.87,1317.69L665.7,1326.5L674.51,1334.33L682.34,1338.25" fill="none" stroke="#000000" style="-webkit-tap-highlight-color: rgba(0, 0, 0, 0); stroke-linecap: round; stroke-linejoin: round; stroke-width: 6;" /><path d="M261.38,1180.63L260.41,1179.66L254.53,1179.66L251.59,1180.63L247.68,1180.63L242.78,1182.59L237.89,1187.49L232.99,1194.34L227.12,1199.24L218.31,1209.02L213.41,1213.92L208.52,1217.84L203.63,1223.71L197.75,1229.58L192.86,1236.44L185.02,1247.2L179.15,1256.99L176.21,1264.83L173.28,1273.64L172.3,1282.45L171.32,1292.24L170.34,1301.05L169.36,1308.88L168.38,1315.73L166.42,1321.61L164.47,1323.56L162.51,1327.48L160.55,1331.4L156.63,1341.19" fill="none" stroke="#000000" style="-webkit-tap-highlight-color: rgba(0, 0, 0, 0); stroke-linecap: round; stroke-linejoin: round; stroke-width: 6;" /><path d="M647.1,1010.29L647.1,1009.32L648.08,1006.38L649.06,1004.42L651.01,1003.44L657.87,1006.38L663.74,1008.34L669.61,1010.29L677.45,1010.29L686.26,1009.32L695.07,1009.32L702.9,1010.29L709.75,1012.25L717.58,1014.21L729.33,1015.19L732.27,1017.15L734.23,1018.13L735.2,1021.06L737.16,1025.96L739.12,1030.85L741.08,1034.77L743.04,1037.71L745.97,1039.66L748.91,1042.6L754.78,1046.52L758.7,1048.47L763.59,1049.45L768.49,1050.43L773.38,1050.43L778.28,1050.43L785.13,1049.45L791.98,1049.45L805.69,1050.43L811.56,1051.41L817.44,1053.37L823.31,1055.33L829.19,1057.28L834.08,1060.22L839.95,1063.16L843.87,1066.1L848.76,1069.03L852.68,1072.95L858.55,1078.82L860.51,1080.78L862.47,1083.72L864.43,1085.67L866.39,1087.63L869.32,1089.59L873.24,1091.55" fill="none" stroke="#000000" style="-webkit-tap-highlight-color: rgba(0, 0, 0, 0); stroke-linecap: round; stroke-linejoin: round; stroke-width: 6;" /><path d="M846.81,1058.26L847.79,1057.28L853.66,1057.28L858.55,1056.31L865.41,1056.31L872.26,1055.33L886.94,1053.37L894.78,1053.37L902.61,1053.37L912.4,1055.33L922.19,1058.26L933.93,1060.22L944.7,1060.22L955.47,1061.2L964.28,1063.16L981.9,1070.01L989.74,1073.93L998.55,1075.89L1006.38,1078.82L1013.23,1079.8L1020.08,1081.76" fill="none" stroke="#000000" style="-webkit-tap-highlight-color: rgba(0, 0, 0, 0); stroke-linecap: round; stroke-linejoin: round; stroke-width: 6;" /></svg>