<?xml version="1.0" encoding="utf-8" ?>
<svg baseProfile="full" height="1343" version="1.1" width="1024" xmlns="http://www.w3.org/2000/svg" xmlns:ev="http://www.w3.org/2001/xml-events" xmlns:xlink="http://www.w3.org/1999/xlink"><defs /><path d="M622.83,383.1L622.83,387.92L622.83,397.55L622.83,407.19L625.24,414.42L627.65,421.65L627.65,431.28L627.65,440.92L630.06,450.56L630.06,460.2L632.47,467.43L632.47,477.06L632.47,486.7L632.47,493.93L634.88,501.16L634.88,508.39L634.88,518.02L634.88,525.25L634.88,532.48L634.88,539.71L634.88,546.94L634.88,556.57L634.88,563.8L634.88,571.03L634.88,575.85L634.88,583.08L634.88,592.72L634.88,599.94L634.88,607.17L634.88,614.4L634.88,621.63L634.88,628.86L634.88,638.49L634.88,645.72L634.88,655.36L634.88,662.59L634.88,672.23L634.88,679.45L634.88,686.68L634.88,693.91L634.88,703.55L634.88,718L634.88,725.23L634.88,730.05L634.88,737.28L634.88,744.51L634.88,749.33L634.88,756.56L634.88,763.78L634.88,768.6L634.88,775.83L634.88,780.65L634.88,787.88L634.88,795.11L634.88,799.92L634.88,807.15L634.88,811.97L634.88,819.2L634.88,824.02L634.88,831.25L634.88,836.07L634.88,843.29L637.29,855.34L639.7,864.98L642.11,874.62L644.52,881.84L644.52,886.66L642.11,889.07" fill="none" stroke="#000000" style="-webkit-tap-highlight-color: rgba(0, 0, 0, 0); stroke-linecap: round; stroke-linejoin: round; stroke-width: 6;" /><path d="M615.6,387.92L618.01,387.92L620.42,387.92L625.24,387.92L630.06,385.51L634.88,385.51L639.7,385.51L642.11,385.51L644.52,385.51L646.93,385.51L646.93,383.1L646.93,380.69L646.93,378.28L646.93,375.87L649.34,371.05L649.34,368.64L651.75,366.23L654.16,363.82L656.56,361.41L658.97,359L661.38,359L663.79,359L666.2,359L671.02,356.59L675.84,354.18L683.07,351.77L690.3,349.36L695.12,349.36L709.57,346.96L719.21,344.55L726.44,344.55L733.67,342.14L743.3,342.14L752.94,339.73L760.17,339.73L769.81,337.32L777.04,337.32L786.67,334.91L796.31,334.91L805.95,332.5L813.18,330.09L820.4,330.09L827.63,330.09L832.45,330.09L839.68,330.09L844.5,332.5L849.32,332.5L856.55,332.5L861.36,332.5L866.18,332.5L871,334.91L878.23,334.91L885.46,334.91L892.69,332.5L897.51,332.5L902.32,332.5L907.14,332.5L914.37,332.5L921.6,330.09L928.83,330.09L933.65,330.09L940.88,330.09L945.69,330.09L952.92,330.09L957.74,330.09L964.97,327.68L969.79,325.27L977.02,325.27L981.84,325.27L986.65,322.86L991.47,322.86L996.29,322.86L1003.52,322.86L1008.34,320.45L1015.57,320.45L1020.39,320.45" fill="none" stroke="#000000" style="-webkit-tap-highlight-color: rgba(0, 0, 0, 0); stroke-linecap: round; stroke-linejoin: round; stroke-width: 6;" /><path d="M314.43,320.45L314.43,325.27L314.43,327.68L312.02,332.5L309.61,337.32L304.79,344.55L302.38,349.36L299.97,354.18L295.15,361.41L292.74,368.64L290.33,373.46L287.92,378.28L283.11,385.51L280.7,390.32L275.88,397.55L273.47,402.37L271.06,404.78L268.65,407.19L263.83,412.01L261.42,414.42L259.01,419.24L256.6,424.06L254.19,426.47L254.19,431.28L251.78,436.1L249.37,440.92L246.96,445.74L244.56,450.56L244.56,455.38L242.15,462.61L239.74,467.43L239.74,474.65L237.33,479.47L237.33,484.29L234.92,489.11L234.92,493.93L232.51,498.75L232.51,501.16L232.51,505.98L230.1,508.39L227.69,510.8L227.69,513.2L225.28,515.61L222.87,518.02L220.46,520.43L220.46,522.84L218.05,525.25L218.05,527.66L218.05,530.07L218.05,532.48L218.05,539.71L218.05,544.53L218.05,551.76L220.46,561.39L220.46,566.21L220.46,573.44L222.87,578.26L222.87,585.49L225.28,590.31L225.28,597.53L225.28,602.35L227.69,609.58L227.69,616.81L227.69,624.04L230.1,631.27L230.1,638.49L230.1,645.72L230.1,652.95L230.1,660.18L230.1,667.41L230.1,672.23L230.1,681.86L230.1,689.09L227.69,696.32L227.69,705.96L227.69,713.19L225.28,720.41L225.28,725.23L225.28,732.46L225.28,739.69L225.28,746.92L225.28,756.56L225.28,763.78L225.28,771.01L225.28,775.83L225.28,783.06L222.87,787.88L222.87,795.11L222.87,799.92L222.87,807.15L222.87,811.97L222.87,816.79L222.87,821.61L222.87,828.84L225.28,833.66L225.28,838.48L225.28,840.88L227.69,845.7L227.69,850.52L227.69,855.34L230.1,862.57L230.1,864.98L230.1,869.8L230.1,872.21L230.1,877.03L230.1,881.84L230.1,886.66L227.69,891.48L227.69,893.89L227.69,898.71L225.28,901.12L225.28,905.94L218.05,922.8L218.05,925.21L213.23,930.03L210.82,934.85L208.41,942.08L203.6,946.9L201.19,951.72L198.78,954.13L198.78,951.72" fill="none" stroke="#000000" style="-webkit-tap-highlight-color: rgba(0, 0, 0, 0); stroke-linecap: round; stroke-linejoin: round; stroke-width: 6;" /><path d="M314.43,330.09L312.02,330.09L314.43,330.09L319.25,327.68L321.66,325.27L324.07,325.27L328.88,322.86L331.29,322.86L333.7,320.45L338.52,320.45L345.75,318.04L350.57,318.04L355.39,315.63L357.8,315.63L362.62,315.63L367.44,313.22L372.25,313.22L377.07,313.22L381.89,310.81L386.71,310.81L391.53,310.81L396.35,310.81L398.76,310.81L403.58,310.81L408.4,313.22L410.8,313.22L415.62,313.22L418.03,313.22L420.44,313.22L425.26,315.63L427.67,315.63L432.49,315.63L437.31,315.63L439.72,315.63L444.54,313.22L446.95,313.22L451.76,313.22L456.58,313.22L458.99,313.22L463.81,313.22L466.22,313.22L468.63,315.63L471.04,315.63L475.86,315.63L478.27,315.63L480.68,315.63L483.09,315.63L487.91,318.04L490.32,318.04L492.72,318.04L495.13,318.04L497.54,318.04L499.95,318.04L504.77,318.04L507.18,318.04L509.59,318.04L512,320.45L516.82,320.45L519.23,320.45L521.64,322.86L524.05,322.86L526.46,325.27L531.28,327.68L533.68,327.68L536.09,330.09L538.5,332.5L543.32,332.5L545.73,334.91L548.14,337.32L555.37,339.73L557.78,342.14L560.19,344.55L562.6,344.55L565.01,346.96L569.83,346.96L572.24,349.36L574.64,351.77L577.05,354.18L579.46,356.59L581.87,356.59L584.28,359L589.1,361.41L591.51,363.82L593.92,366.23L598.74,366.23L601.15,368.64L605.97,371.05L608.38,373.46L615.6,375.87L620.42,378.28L622.83,383.1L627.65,385.51L630.06,387.92L630.06,390.32" fill="none" stroke="#000000" style="-webkit-tap-highlight-color: rgba(0, 0, 0, 0); stroke-linecap: round; stroke-linejoin: round; stroke-width: 6;" /><path d="M603.56,385.51L601.15,387.92L601.15,390.32L598.74,395.14L598.74,397.55L596.33,402.37L591.51,409.6L584.28,426.47L581.87,436.1L579.46,448.15L577.05,457.79L577.05,467.43L574.64,477.06L574.64,486.7L572.24,496.34L572.24,505.98L569.83,515.61L569.83,525.25L569.83,534.89L567.42,544.53L567.42,554.16L567.42,563.8L567.42,573.44L567.42,583.08L567.42,590.31L567.42,599.94L567.42,607.17L567.42,614.4L567.42,621.63L567.42,631.27L567.42,638.49L567.42,645.72L567.42,655.36L567.42,665L567.42,672.23L567.42,684.27L567.42,691.5L567.42,701.14L569.83,710.78L569.83,720.41L569.83,730.05L569.83,742.1L569.83,749.33L569.83,758.96L569.83,768.6L569.83,778.24L569.83,785.47L569.83,792.7L569.83,799.92L572.24,804.74L572.24,811.97L572.24,819.2L572.24,824.02L572.24,831.25L572.24,838.48L572.24,845.7L572.24,855.34L572.24,864.98L572.24,872.21L569.83,881.84L567.42,889.07L565.01,891.48L562.6,889.07" fill="none" stroke="#000000" style="-webkit-tap-highlight-color: rgba(0, 0, 0, 0); stroke-linecap: round; stroke-linejoin: round; stroke-width: 6;" /><path d="M432.49,330.09L432.49,337.32L434.9,344.55L439.72,351.77L442.13,361.41L444.54,368.64L449.36,380.69L454.17,390.32L456.58,402.37L458.99,412.01L461.4,419.24L466.22,428.88L468.63,436.1L471.04,443.33L473.45,452.97L478.27,457.79L480.68,465.02L483.09,469.84L485.5,477.06L490.32,484.29L492.72,491.52L495.13,496.34L497.54,501.16L502.36,508.39L504.77,513.2L507.18,518.02L509.59,525.25L512,530.07L512,537.3L514.41,544.53L514.41,554.16L516.82,561.39L516.82,568.62L516.82,578.26L519.23,585.49L519.23,595.12L519.23,604.76L519.23,611.99L519.23,621.63L519.23,633.68L519.23,643.31L519.23,655.36L519.23,662.59L516.82,674.64L516.82,684.27L516.82,691.5L516.82,698.73L516.82,705.96L516.82,710.78L514.41,718L514.41,727.64L514.41,734.87L514.41,742.1L514.41,751.74L514.41,758.96L512,768.6L512,778.24L512,785.47L509.59,795.11L509.59,802.33L509.59,811.97L509.59,821.61L509.59,831.25L507.18,840.88L507.18,848.11L507.18,857.75L507.18,864.98L507.18,869.8L507.18,877.03L507.18,881.84L509.59,889.07L509.59,893.89L512,901.12L512,908.35L512,917.99L509.59,925.21L509.59,927.62" fill="none" stroke="#000000" style="-webkit-tap-highlight-color: rgba(0, 0, 0, 0); stroke-linecap: round; stroke-linejoin: round; stroke-width: 6;" /><path d="M531.28,903.53L528.87,905.94L528.87,908.35L528.87,910.76L528.87,913.17L531.28,920.4L533.68,925.21L538.5,932.44L540.91,939.67L543.32,946.9L548.14,951.72L550.55,956.54L550.55,961.36L552.96,966.17L552.96,970.99L552.96,975.81L555.37,980.63L555.37,987.86L555.37,997.5L555.37,1007.13L555.37,1016.77L555.37,1024L555.37,1026.41L555.37,1021.59" fill="none" stroke="#000000" style="-webkit-tap-highlight-color: rgba(0, 0, 0, 0); stroke-linecap: round; stroke-linejoin: round; stroke-width: 6;" /><path d="M174.68,987.86L172.27,985.45L174.68,985.45L181.91,990.27L186.73,992.68L196.37,992.68L203.6,992.68L213.23,992.68L218.05,992.68L225.28,992.68L232.51,995.09L244.56,995.09L254.19,995.09L271.06,995.09L278.29,997.5L285.52,999.91L292.74,1002.32L302.38,1002.32L309.61,1004.72L319.25,1004.72L326.48,1007.13L333.7,1007.13L338.52,1009.54L348.16,1009.54L357.8,1009.54L365.03,1009.54L369.84,1009.54L374.66,1009.54L379.48,1011.95L389.12,1011.95L393.94,1011.95L401.17,1011.95L405.99,1011.95L413.21,1014.36L420.44,1014.36L427.67,1016.77L432.49,1016.77L442.13,1019.18L449.36,1019.18L456.58,1019.18L463.81,1019.18L468.63,1021.59L475.86,1021.59L480.68,1021.59L487.91,1021.59L492.72,1021.59L497.54,1021.59L502.36,1021.59L507.18,1021.59L514.41,1021.59L519.23,1021.59L526.46,1021.59L533.68,1021.59L543.32,1021.59L548.14,1019.18L552.96,1019.18L555.37,1019.18L555.37,1021.59" fill="none" stroke="#000000" style="-webkit-tap-highlight-color: rgba(0, 0, 0, 0); stroke-linecap: round; stroke-linejoin: round; stroke-width: 6;" /><path d="M189.14,968.58L189.14,970.99L196.37,968.58L203.6,963.76L213.23,961.36L218.05,958.95L227.69,956.54L234.92,954.13L242.15,954.13L249.37,951.72L259.01,949.31L266.24,949.31L273.47,949.31L280.7,949.31L285.52,946.9L295.15,946.9L304.79,944.49L316.84,942.08L324.07,942.08L333.7,939.67L340.93,939.67L350.57,937.26L360.21,937.26L369.84,934.85L379.48,932.44L389.12,932.44L398.76,930.03L405.99,930.03L415.62,927.62L422.85,927.62L430.08,925.21L439.72,925.21L446.95,925.21L454.17,925.21L461.4,925.21L468.63,922.8L475.86,922.8L480.68,922.8L487.91,922.8L495.13,920.4L502.36,920.4L509.59,917.99L521.64,915.58L528.87,915.58L533.68,915.58" fill="none" stroke="#000000" style="-webkit-tap-highlight-color: rgba(0, 0, 0, 0); stroke-linecap: round; stroke-linejoin: round; stroke-width: 6;" /><path d="M642.11,879.44L642.11,881.84L644.52,886.66L646.93,896.3L649.34,903.53L649.34,910.76L649.34,915.58L649.34,917.99L649.34,920.4L649.34,922.8L649.34,925.21L649.34,927.62" fill="none" stroke="#000000" style="-webkit-tap-highlight-color: rgba(0, 0, 0, 0); stroke-linecap: round; stroke-linejoin: round; stroke-width: 6;" /><path d="M668.61,889.07L668.61,891.48L668.61,886.66L668.61,881.84L666.2,874.62L666.2,867.39L663.79,857.75L661.38,848.11L658.97,838.48L658.97,828.84L656.56,821.61L654.16,814.38L654.16,809.56L654.16,797.52L654.16,792.7L654.16,785.47L654.16,778.24L654.16,773.42L656.56,768.6L656.56,766.19L658.97,761.37L661.38,758.96L663.79,756.56L666.2,754.15L668.61,751.74L671.02,749.33L673.43,746.92L675.84,746.92L680.66,744.51L683.07,744.51L687.89,742.1L690.3,742.1L692.71,742.1L695.12,742.1L699.93,742.1L702.34,742.1L704.75,742.1L707.16,742.1L709.57,744.51L711.98,744.51L714.39,746.92L716.8,746.92L719.21,749.33L721.62,751.74L726.44,754.15L728.85,754.15L731.26,756.56L733.67,758.96L736.08,761.37L738.48,763.78L740.89,766.19L743.3,768.6L745.71,771.01L748.12,773.42L750.53,778.24L750.53,783.06L752.94,785.47L752.94,790.29L755.35,792.7L755.35,797.52L755.35,802.33L755.35,804.74L755.35,809.56L755.35,814.38L755.35,819.2L755.35,824.02L755.35,828.84L755.35,833.66L755.35,838.48L755.35,843.29L755.35,850.52L755.35,855.34L755.35,867.39L755.35,874.62L755.35,881.84L757.76,886.66L757.76,891.48L757.76,893.89L760.17,891.48" fill="none" stroke="#000000" style="-webkit-tap-highlight-color: rgba(0, 0, 0, 0); stroke-linecap: round; stroke-linejoin: round; stroke-width: 6;" /><path d="M639.7,710.78L642.11,713.19L651.75,713.19L663.79,713.19L675.84,708.37L680.66,705.96L685.48,705.96L695.12,705.96L699.93,705.96L707.16,705.96L711.98,705.96L714.39,705.96L719.21,705.96L724.03,705.96L728.85,708.37L731.26,710.78L736.08,713.19L740.89,715.6L745.71,718L748.12,720.41L752.94,722.82L755.35,722.82L757.76,725.23L762.58,727.64L764.99,730.05L767.4,732.46L767.4,739.69L769.81,746.92L774.63,751.74L777.04,758.96L781.85,766.19L786.67,771.01L789.08,773.42L793.9,773.42L796.31,773.42" fill="none" stroke="#000000" style="-webkit-tap-highlight-color: rgba(0, 0, 0, 0); stroke-linecap: round; stroke-linejoin: round; stroke-width: 6;" /><path d="M764.99,893.89L762.58,893.89L760.17,896.3L757.76,896.3L755.35,896.3L757.76,896.3L762.58,896.3L767.4,896.3L772.22,896.3L777.04,896.3L784.26,896.3L791.49,893.89L798.72,891.48L805.95,891.48L813.18,891.48L818,891.48L822.81,893.89L830.04,896.3L834.86,898.71L842.09,901.12L849.32,901.12L854.14,903.53L861.36,905.94L866.18,905.94L873.41,905.94L878.23,905.94L885.46,905.94L892.69,903.53L899.92,903.53L904.73,901.12L911.96,901.12L916.78,901.12L924.01,901.12L931.24,901.12L938.47,901.12L943.28,903.53L950.51,903.53L957.74,905.94L962.56,908.35L969.79,908.35L977.02,908.35L984.24,908.35L991.47,908.35L998.7,905.94L1003.52,905.94L1008.34,905.94L1013.16,908.35L1017.98,908.35" fill="none" stroke="#000000" style="-webkit-tap-highlight-color: rgba(0, 0, 0, 0); stroke-linecap: round; stroke-linejoin: round; stroke-width: 6;" /><path d="M646.93,927.62L644.52,927.62L634.88,932.44L625.24,934.85L622.83,934.85L622.83,937.26L620.42,939.67L620.42,942.08L618.01,944.49L615.6,949.31L613.2,951.72L610.79,956.54L605.97,961.36L603.56,966.17L598.74,970.99L596.33,975.81L591.51,978.22L586.69,983.04L579.46,987.86L574.64,995.09L572.24,999.91L567.42,1004.72L560.19,1009.54L555.37,1016.77L550.55,1019.18L548.14,1021.59L550.55,1021.59L557.78,1014.36" fill="none" stroke="#000000" style="-webkit-tap-highlight-color: rgba(0, 0, 0, 0); stroke-linecap: round; stroke-linejoin: round; stroke-width: 6;" /><path d="M521.64,908.35L521.64,905.94L524.05,905.94L528.87,913.17L543.32,910.76L550.55,905.94L555.37,903.53L557.78,903.53L560.19,901.12L562.6,898.71L565.01,896.3L567.42,893.89L569.83,893.89L572.24,891.48L574.64,891.48L577.05,891.48L581.87,889.07L584.28,889.07L589.1,886.66L591.51,884.25L596.33,884.25L601.15,881.84L608.38,879.44L615.6,879.44L622.83,877.03L627.65,877.03L632.47,874.62L637.29,872.21L642.11,869.8" fill="none" stroke="#000000" style="-webkit-tap-highlight-color: rgba(0, 0, 0, 0); stroke-linecap: round; stroke-linejoin: round; stroke-width: 6;" /><path d="M174.68,983.04L172.27,983.04L169.86,980.63L167.45,980.63L167.45,978.22L162.64,978.22L157.82,978.22L150.59,978.22L140.95,980.63L131.31,983.04L124.08,985.45L119.27,987.86L112.04,987.86L107.22,990.27L102.4,992.68L97.58,995.09L92.76,995.09L87.94,995.09L83.12,995.09L75.9,995.09L71.08,995.09L63.85,995.09L59.03,995.09L54.21,995.09L49.39,992.68L42.16,990.27L34.94,987.86L27.71,985.45L20.48,983.04L13.25,980.63L13.25,978.22" fill="none" stroke="#000000" style="-webkit-tap-highlight-color: rgba(0, 0, 0, 0); stroke-linecap: round; stroke-linejoin: round; stroke-width: 6;" /><path d="M3.61,828.84L6.02,828.84L15.66,828.84L27.71,831.25L34.94,831.25L42.16,831.25L51.8,831.25L59.03,831.25L68.67,831.25L78.31,831.25L87.94,831.25L95.17,831.25L104.81,831.25L112.04,831.25L119.27,831.25L128.9,831.25L136.13,831.25L143.36,831.25L150.59,831.25L157.82,831.25L162.64,831.25L169.86,831.25L177.09,833.66L184.32,833.66L191.55,833.66L198.78,833.66L206,833.66L213.23,833.66L218.05,833.66L225.28,833.66L232.51,833.66L237.33,833.66" fill="none" stroke="#000000" style="-webkit-tap-highlight-color: rgba(0, 0, 0, 0); stroke-linecap: round; stroke-linejoin: round; stroke-width: 6;" /><path d="M266.24,1142.06L263.83,1142.06L261.42,1139.65L259.01,1139.65L256.6,1142.06L254.19,1144.47L249.37,1151.7L244.56,1158.93L237.33,1166.16L232.51,1173.38L227.69,1180.61L225.28,1185.43L222.87,1190.25L220.46,1197.48L218.05,1202.3L215.64,1207.12L210.82,1211.93L208.41,1216.75L203.6,1219.16L201.19,1223.98L196.37,1228.8L191.55,1233.62L186.73,1238.44L184.32,1240.85L179.5,1243.26L177.09,1248.08L174.68,1252.89L172.27,1257.71L167.45,1262.53L162.64,1269.76L160.23,1274.58L157.82,1279.4L153,1286.63L150.59,1296.26L148.18,1305.9L148.18,1315.54L148.18,1325.18L145.77,1332.4L143.36,1337.22L143.36,1342.04" fill="none" stroke="#000000" style="-webkit-tap-highlight-color: rgba(0, 0, 0, 0); stroke-linecap: round; stroke-linejoin: round; stroke-width: 6;" /><path d="M261.42,1149.29L259.01,1149.29L256.6,1146.88L259.01,1149.29L263.83,1151.7L266.24,1154.11L268.65,1156.52L273.47,1158.93L280.7,1161.34L285.52,1163.75L292.74,1166.16L302.38,1166.16L309.61,1168.56L316.84,1168.56L321.66,1168.56L326.48,1170.97L331.29,1170.97L333.7,1170.97L333.7,1173.38L336.11,1173.38L338.52,1173.38L340.93,1173.38L343.34,1173.38" fill="none" stroke="#000000" style="-webkit-tap-highlight-color: rgba(0, 0, 0, 0); stroke-linecap: round; stroke-linejoin: round; stroke-width: 6;" /><path d="M271.06,1134.83L275.88,1134.83L285.52,1134.83L292.74,1132.42L302.38,1130.01L307.2,1130.01L314.43,1130.01L321.66,1130.01L328.88,1130.01L336.11,1130.01L345.75,1130.01L352.98,1127.6L357.8,1127.6L362.62,1127.6L367.44,1127.6L372.25,1127.6L377.07,1127.6L381.89,1130.01L389.12,1130.01L393.94,1130.01L401.17,1130.01L405.99,1130.01L410.8,1130.01L415.62,1130.01L422.85,1130.01L427.67,1130.01L434.9,1130.01L442.13,1130.01L444.54,1130.01L454.17,1132.42L461.4,1132.42L466.22,1132.42L471.04,1134.83L475.86,1134.83L478.27,1134.83L483.09,1134.83L485.5,1137.24L490.32,1137.24L492.72,1139.65L497.54,1142.06L502.36,1142.06L504.77,1144.47L509.59,1144.47L512,1146.88L514.41,1149.29L516.82,1149.29L521.64,1151.7L524.05,1154.11L528.87,1156.52L531.28,1156.52L533.68,1158.93L538.5,1161.34L540.91,1163.75L545.73,1166.16L548.14,1168.56L550.55,1170.97L555.37,1173.38L557.78,1175.79L562.6,1178.2L565.01,1180.61L567.42,1183.02L569.83,1187.84L574.64,1190.25L577.05,1192.66L579.46,1195.07L581.87,1197.48L584.28,1197.48L586.69,1199.89L589.1,1202.3L591.51,1204.71L593.92,1207.12L596.33,1209.52L596.33,1211.93L598.74,1214.34L601.15,1216.75L603.56,1219.16L603.56,1221.57L605.97,1223.98L608.38,1223.98L608.38,1226.39L610.79,1228.8L613.2,1233.62L613.2,1236.03L615.6,1238.44L618.01,1240.85L618.01,1243.26L620.42,1245.67L622.83,1248.08L622.83,1252.89L625.24,1255.3L625.24,1257.71L627.65,1262.53L627.65,1264.94L630.06,1269.76L630.06,1272.17L632.47,1274.58L634.88,1276.99L634.88,1281.81L637.29,1286.63L639.7,1291.44L642.11,1296.26L644.52,1298.67L649.34,1303.49L654.16,1308.31L658.97,1313.13L663.79,1315.54L666.2,1322.77L668.61,1330" fill="none" stroke="#000000" style="-webkit-tap-highlight-color: rgba(0, 0, 0, 0); stroke-linecap: round; stroke-linejoin: round; stroke-width: 6;" /><path d="M345.75,1187.84L343.34,1187.84L340.93,1187.84L340.93,1190.25L338.52,1195.07L338.52,1199.89L338.52,1204.71L338.52,1209.52L340.93,1216.75L340.93,1221.57L343.34,1228.8L348.16,1233.62L352.98,1238.44L357.8,1243.26L365.03,1248.08L369.84,1250.48L377.07,1255.3L384.3,1260.12L396.35,1262.53L408.4,1264.94L420.44,1267.35L432.49,1269.76L444.54,1269.76L456.58,1272.17L471.04,1272.17L485.5,1272.17L499.95,1269.76L514.41,1269.76L526.46,1269.76L536.09,1269.76L550.55,1269.76L565.01,1269.76L579.46,1269.76L596.33,1267.35L610.79,1264.94L625.24,1262.53L634.88,1260.12L637.29,1260.12" fill="none" stroke="#000000" style="-webkit-tap-highlight-color: rgba(0, 0, 0, 0); stroke-linecap: round; stroke-linejoin: round; stroke-width: 6;" /><path d="M789.08,778.24L789.08,773.42L791.49,773.42L793.9,775.83L798.72,775.83L805.95,775.83L815.59,778.24L825.22,778.24L834.86,778.24L846.91,778.24L856.55,778.24L866.18,778.24L875.82,780.65L883.05,780.65L892.69,783.06L899.92,783.06L909.55,783.06L919.19,783.06L928.83,783.06L938.47,780.65L948.1,780.65L960.15,780.65L969.79,780.65L981.84,780.65L991.47,780.65L1001.11,780.65L1013.16,778.24L1022.8,778.24" fill="none" stroke="#000000" style="-webkit-tap-highlight-color: rgba(0, 0, 0, 0); stroke-linecap: round; stroke-linejoin: round; stroke-width: 6;" /><path d="M668.61,886.66L668.61,884.25L668.61,881.84L671.02,881.84L671.02,884.25L668.61,889.07L666.2,896.3L661.38,905.94L658.97,915.58L656.56,922.8L656.56,925.21L658.97,917.99L661.38,908.35" fill="none" stroke="#000000" style="-webkit-tap-highlight-color: rgba(0, 0, 0, 0); stroke-linecap: round; stroke-linejoin: round; stroke-width: 6;" /></svg>