<?xml version="1.0" encoding="utf-8" ?>
<svg baseProfile="full" height="756" version="1.1" width="1024" xmlns="http://www.w3.org/2000/svg" xmlns:ev="http://www.w3.org/2001/xml-events" xmlns:xlink="http://www.w3.org/1999/xlink"><defs /><path d="M86.25,212.87L86.25,214.71L84.42,218.38L84.42,222.05L82.58,223.89L82.58,229.39L82.58,234.9L82.58,238.57L82.58,242.24L82.58,245.91L82.58,251.41L82.58,255.08L82.58,258.75L82.58,262.42L80.75,266.09L80.75,267.93L80.75,271.6L80.75,275.27L80.75,277.1L80.75,280.77L80.75,282.61L80.75,284.44L80.75,288.11L80.75,289.95L80.75,297.29L80.75,299.13L80.75,302.8L80.75,304.63L80.75,308.3L80.75,311.97L80.75,315.64L80.75,319.31L80.75,324.82L80.75,328.49L82.58,332.16L82.58,337.66L82.58,345L84.42,348.67L84.42,352.34L84.42,350.51" fill="none" stroke="#000000" style="-webkit-tap-highlight-color: rgba(0, 0, 0, 0); stroke-linecap: round; stroke-linejoin: round; stroke-width: 5;" /><path d="M104.6,222.05L104.6,220.22L102.77,218.38L100.93,220.22L99.1,223.89L99.1,229.39L99.1,233.06L99.1,238.57L99.1,242.24L99.1,245.91L97.26,249.58L97.26,256.92L97.26,260.59L97.26,266.09L97.26,269.76L97.26,271.6L97.26,275.27L99.1,278.94L99.1,282.61L99.1,286.28L99.1,288.11L100.93,291.78L100.93,293.62L100.93,297.29L102.77,300.96L102.77,304.63L102.77,306.47L102.77,310.14L102.77,311.97L102.77,315.64L102.77,317.48L102.77,321.15L102.77,324.82L100.93,326.65L100.93,330.32L100.93,333.99L100.93,339.5L100.93,343.17L100.93,346.84L100.93,350.51L99.1,352.34" fill="none" stroke="#000000" style="-webkit-tap-highlight-color: rgba(0, 0, 0, 0); stroke-linecap: round; stroke-linejoin: round; stroke-width: 5;" /><path d="M137.63,220.22L137.63,222.05L137.63,223.89L137.63,225.72L137.63,229.39L137.63,233.06L137.63,236.73L137.63,242.24L137.63,245.91L137.63,249.58L137.63,253.25L135.8,256.92L135.8,260.59L135.8,264.26L135.8,266.09L135.8,269.76L135.8,273.43L135.8,277.1L135.8,282.61L135.8,286.28L135.8,289.95L135.8,293.62L135.8,297.29L135.8,300.96L135.8,304.63L135.8,308.3L135.8,310.14L135.8,313.81L135.8,317.48L135.8,319.31L135.8,322.98L135.8,324.82L135.8,328.49L135.8,332.16L135.8,335.83L135.8,339.5L135.8,341.33" fill="none" stroke="#000000" style="-webkit-tap-highlight-color: rgba(0, 0, 0, 0); stroke-linecap: round; stroke-linejoin: round; stroke-width: 5;" /><path d="M154.15,223.89L154.15,225.72L154.15,227.56L152.32,229.39L152.32,233.06L152.32,238.57L152.32,245.91L152.32,251.41L152.32,256.92L152.32,262.42L154.15,266.09L154.15,269.76L154.15,273.43L154.15,277.1L154.15,280.77L154.15,284.44L154.15,286.28L154.15,289.95L152.32,293.62L152.32,299.13L152.32,302.8L152.32,306.47L150.48,308.3L150.48,311.97L150.48,313.81L150.48,317.48L150.48,319.31L150.48,322.98L150.48,324.82L150.48,328.49L150.48,332.16L150.48,335.83L150.48,339.5L152.32,339.5L154.15,337.66" fill="none" stroke="#000000" style="-webkit-tap-highlight-color: rgba(0, 0, 0, 0); stroke-linecap: round; stroke-linejoin: round; stroke-width: 5;" /><path d="M189.02,223.89L187.18,225.72L187.18,227.56L187.18,231.23L187.18,234.9L187.18,238.57L187.18,242.24L187.18,247.74L187.18,251.41L187.18,255.08L187.18,258.75L187.18,262.42L185.35,267.93L185.35,271.6L185.35,275.27L185.35,277.1L185.35,280.77L185.35,282.61L185.35,286.28L185.35,289.95L185.35,293.62L183.51,295.46L183.51,299.13L183.51,302.8L183.51,306.47L183.51,308.3L183.51,311.97L183.51,313.81L183.51,317.48L183.51,321.15L183.51,324.82L183.51,326.65L183.51,330.32L183.51,333.99L183.51,335.83L183.51,337.66" fill="none" stroke="#000000" style="-webkit-tap-highlight-color: rgba(0, 0, 0, 0); stroke-linecap: round; stroke-linejoin: round; stroke-width: 5;" /><path d="M203.7,225.72L203.7,229.39L201.86,233.06L201.86,236.73L201.86,242.24L201.86,251.41L201.86,255.08L201.86,260.59L201.86,264.26L201.86,267.93L201.86,269.76L201.86,275.27L201.86,277.1L201.86,280.77L200.03,284.44L200.03,288.11L200.03,291.78L200.03,295.46L198.19,299.13L198.19,302.8L198.19,304.63L198.19,308.3L198.19,310.14L198.19,313.81L198.19,315.64L198.19,319.31L198.19,322.98L198.19,326.65L198.19,328.49L198.19,330.32L198.19,332.16L198.19,333.99" fill="none" stroke="#000000" style="-webkit-tap-highlight-color: rgba(0, 0, 0, 0); stroke-linecap: round; stroke-linejoin: round; stroke-width: 5;" /><path d="M233.06,223.89L231.23,223.89L231.23,222.05L231.23,223.89L231.23,225.72L229.39,229.39L229.39,233.06L229.39,238.57L229.39,244.07L227.56,249.58L227.56,255.08L227.56,258.75L227.56,264.26L227.56,267.93L227.56,271.6L227.56,275.27L227.56,278.94L227.56,280.77L225.72,286.28L225.72,289.95L225.72,293.62L225.72,295.46L225.72,299.13L223.89,304.63L223.89,308.3L223.89,311.97L223.89,313.81L223.89,317.48L223.89,321.15L225.72,324.82L225.72,326.65L225.72,328.49L225.72,330.32L225.72,332.16L229.39,332.16" fill="none" stroke="#000000" style="-webkit-tap-highlight-color: rgba(0, 0, 0, 0); stroke-linecap: round; stroke-linejoin: round; stroke-width: 5;" /><path d="M249.58,225.72L247.74,223.89L247.74,227.56L245.91,234.9L244.07,238.57L244.07,242.24L244.07,245.91L244.07,251.41L244.07,255.08L244.07,260.59L244.07,264.26L244.07,267.93L242.24,273.43L242.24,277.1L242.24,280.77L242.24,284.44L242.24,288.11L242.24,291.78L242.24,293.62L242.24,297.29L240.4,300.96L240.4,302.8L240.4,306.47L240.4,308.3L240.4,311.97L240.4,315.64L240.4,319.31L240.4,322.98L240.4,324.82L240.4,326.65" fill="none" stroke="#000000" style="-webkit-tap-highlight-color: rgba(0, 0, 0, 0); stroke-linecap: round; stroke-linejoin: round; stroke-width: 5;" /><path d="M269.76,225.72L267.93,225.72L267.93,227.56L267.93,229.39L267.93,233.06L266.09,236.73L266.09,242.24L266.09,245.91L266.09,251.41L266.09,255.08L266.09,260.59L266.09,262.42L266.09,266.09L264.26,269.76L264.26,273.43L264.26,277.1L264.26,280.77L264.26,284.44L262.42,289.95L262.42,293.62L262.42,299.13L262.42,302.8L262.42,306.47L262.42,311.97L262.42,315.64L262.42,317.48L262.42,319.31L264.26,315.64" fill="none" stroke="#000000" style="-webkit-tap-highlight-color: rgba(0, 0, 0, 0); stroke-linecap: round; stroke-linejoin: round; stroke-width: 5;" /><path d="M289.95,172.5L288.11,172.5L288.11,174.34L288.11,176.17L288.11,178.01L288.11,181.68L288.11,185.35L288.11,189.02L288.11,192.69L288.11,196.36L286.28,200.03L286.28,203.7L286.28,209.2L286.28,214.71L286.28,218.38L286.28,222.05L286.28,225.72L286.28,229.39L286.28,233.06L286.28,236.73L286.28,240.4L286.28,242.24L286.28,245.91L286.28,249.58L286.28,253.25L284.44,258.75L284.44,262.42L284.44,266.09L282.61,271.6L282.61,275.27L282.61,278.94L282.61,282.61L282.61,286.28L282.61,289.95L282.61,293.62L282.61,295.46L282.61,299.13L282.61,300.96L282.61,304.63L282.61,308.3L282.61,310.14L282.61,313.81L282.61,319.31L282.61,321.15L282.61,322.98L282.61,324.82L284.44,322.98" fill="none" stroke="#000000" style="-webkit-tap-highlight-color: rgba(0, 0, 0, 0); stroke-linecap: round; stroke-linejoin: round; stroke-width: 5;" /><path d="M311.97,176.17L310.14,176.17L310.14,178.01L310.14,181.68L311.97,183.51L311.97,187.18L311.97,189.02L311.97,192.69L311.97,196.36L311.97,203.7L311.97,207.37L311.97,211.04L311.97,214.71L310.14,218.38L310.14,222.05L310.14,225.72L310.14,229.39L310.14,233.06L310.14,236.73L308.3,238.57L308.3,242.24L308.3,245.91L308.3,249.58L308.3,253.25L308.3,256.92L308.3,260.59L308.3,264.26L308.3,266.09L308.3,269.76L306.47,273.43L306.47,277.1L306.47,280.77L306.47,284.44L306.47,288.11L306.47,291.78L306.47,293.62L306.47,297.29L306.47,299.13L306.47,302.8L306.47,304.63L306.47,310.14L306.47,311.97L306.47,315.64L310.14,310.14" fill="none" stroke="#000000" style="-webkit-tap-highlight-color: rgba(0, 0, 0, 0); stroke-linecap: round; stroke-linejoin: round; stroke-width: 5;" /><path d="M328.49,185.35L328.49,183.51L328.49,185.35L328.49,187.18L328.49,190.85L328.49,196.36L328.49,201.86L326.65,207.37L326.65,211.04L326.65,216.54L326.65,222.05L326.65,227.56L326.65,231.23L326.65,236.73L328.49,240.4L328.49,244.07L328.49,249.58L328.49,253.25L328.49,258.75L328.49,262.42L328.49,266.09L326.65,269.76L326.65,273.43L326.65,277.1L326.65,280.77L326.65,282.61L326.65,286.28L326.65,289.95L326.65,291.78L326.65,293.62L326.65,297.29L326.65,299.13L324.82,300.96L324.82,304.63L324.82,306.47L324.82,310.14L324.82,313.81L324.82,315.64L324.82,317.48L326.65,317.48L326.65,315.64" fill="none" stroke="#000000" style="-webkit-tap-highlight-color: rgba(0, 0, 0, 0); stroke-linecap: round; stroke-linejoin: round; stroke-width: 5;" /><path d="M356.01,183.51L356.01,185.35L356.01,187.18L356.01,196.36L356.01,201.86L356.01,205.53L356.01,211.04L356.01,214.71L356.01,220.22L356.01,225.72L354.18,229.39L354.18,233.06L354.18,236.73L352.34,240.4L352.34,245.91L352.34,249.58L350.51,253.25L350.51,256.92L350.51,260.59L350.51,264.26L350.51,267.93L348.67,271.6L348.67,275.27L348.67,278.94L348.67,280.77L348.67,284.44L346.84,288.11L346.84,291.78L346.84,295.46L346.84,297.29L346.84,300.96L346.84,302.8L346.84,306.47L346.84,308.3L346.84,310.14L346.84,311.97L346.84,313.81L348.67,310.14" fill="none" stroke="#000000" style="-webkit-tap-highlight-color: rgba(0, 0, 0, 0); stroke-linecap: round; stroke-linejoin: round; stroke-width: 5;" /><path d="M368.86,174.34L368.86,172.5L370.7,168.83L370.7,170.67L370.7,174.34L370.7,179.84L370.7,185.35L370.7,190.85L370.7,196.36L370.7,200.03L370.7,205.53L370.7,211.04L368.86,214.71L368.86,220.22L368.86,223.89L368.86,227.56L368.86,233.06L368.86,236.73L367.03,242.24L367.03,249.58L367.03,255.08L367.03,260.59L367.03,264.26L367.03,269.76L367.03,273.43L367.03,277.1L367.03,280.77L367.03,282.61L367.03,286.28L367.03,289.95L367.03,291.78L367.03,295.46L367.03,299.13L367.03,300.96L367.03,304.63L367.03,308.3L367.03,310.14L367.03,313.81L367.03,315.64L368.86,319.31L368.86,321.15L367.03,321.15" fill="none" stroke="#000000" style="-webkit-tap-highlight-color: rgba(0, 0, 0, 0); stroke-linecap: round; stroke-linejoin: round; stroke-width: 5;" /><path d="M104.6,222.05L102.77,222.05L104.6,222.05L104.6,220.22L106.44,220.22L108.27,220.22L110.11,220.22L111.94,220.22L113.78,220.22L115.61,220.22L119.28,222.05L121.12,222.05L122.95,223.89L124.79,223.89L126.62,223.89L128.46,223.89L130.29,223.89L132.13,223.89" fill="none" stroke="#000000" style="-webkit-tap-highlight-color: rgba(0, 0, 0, 0); stroke-linecap: round; stroke-linejoin: round; stroke-width: 5;" /><path d="M154.15,227.56L155.99,227.56L157.82,225.72L159.66,225.72L163.33,225.72L167,225.72L170.67,225.72L172.5,225.72L176.17,225.72L178.01,225.72L181.68,225.72L183.51,227.56L185.35,227.56L187.18,227.56L189.02,227.56L189.02,229.39" fill="none" stroke="#000000" style="-webkit-tap-highlight-color: rgba(0, 0, 0, 0); stroke-linecap: round; stroke-linejoin: round; stroke-width: 5;" /><path d="M203.7,223.89L201.86,225.72L203.7,223.89L207.37,225.72L209.2,225.72L212.87,225.72L214.71,225.72L216.54,225.72L218.38,225.72L220.22,227.56L222.05,227.56L225.72,227.56L227.56,225.72L229.39,225.72L231.23,223.89L233.06,223.89" fill="none" stroke="#000000" style="-webkit-tap-highlight-color: rgba(0, 0, 0, 0); stroke-linecap: round; stroke-linejoin: round; stroke-width: 5;" /><path d="M245.91,223.89L247.74,223.89L251.41,225.72L258.75,227.56L262.42,229.39L264.26,229.39L267.93,227.56" fill="none" stroke="#000000" style="-webkit-tap-highlight-color: rgba(0, 0, 0, 0); stroke-linecap: round; stroke-linejoin: round; stroke-width: 5;" /><path d="M289.95,176.17L289.95,174.34L291.78,172.5L293.62,172.5L295.46,172.5L297.29,172.5L299.13,172.5L300.96,172.5L302.8,172.5L304.63,174.34L306.47,174.34L308.3,174.34L311.97,176.17" fill="none" stroke="#000000" style="-webkit-tap-highlight-color: rgba(0, 0, 0, 0); stroke-linecap: round; stroke-linejoin: round; stroke-width: 5;" /><path d="M330.32,181.68L330.32,179.84L332.16,179.84L333.99,179.84L337.66,179.84L339.5,179.84L343.17,179.84L345,181.68L348.67,181.68L352.34,183.51L356.01,183.51L357.85,183.51" fill="none" stroke="#000000" style="-webkit-tap-highlight-color: rgba(0, 0, 0, 0); stroke-linecap: round; stroke-linejoin: round; stroke-width: 5;" /><path d="M93.59,200.03L91.76,201.86L93.59,201.86L95.43,201.86L95.43,203.7L97.26,203.7L100.93,203.7L102.77,203.7L106.44,203.7L108.27,203.7L110.11,203.7L113.78,203.7L117.45,205.53L121.12,205.53L122.95,205.53L126.62,205.53L130.29,205.53L133.96,207.37L135.8,207.37L139.47,207.37L141.3,207.37L144.97,207.37L146.81,207.37L148.65,207.37L152.32,207.37L155.99,207.37L157.82,207.37L159.66,207.37L163.33,207.37L165.16,207.37L167,207.37L168.83,207.37L170.67,207.37L172.5,207.37L174.34,207.37L176.17,207.37L178.01,207.37L179.84,207.37L181.68,207.37L183.51,205.53L185.35,205.53L187.18,205.53L189.02,205.53L190.85,205.53L192.69,205.53L194.52,205.53L196.36,205.53L200.03,205.53L201.86,205.53L203.7,205.53L207.37,205.53L209.2,205.53L211.04,205.53L212.87,205.53L214.71,205.53L216.54,205.53L218.38,205.53L220.22,205.53L222.05,205.53L223.89,205.53L225.72,205.53L227.56,207.37L229.39,207.37L231.23,207.37L233.06,207.37L236.73,207.37L238.57,207.37L240.4,207.37L242.24,207.37L244.07,207.37L245.91,207.37L247.74,207.37L249.58,207.37L251.41,207.37L253.25,207.37L255.08,207.37L256.92,207.37L258.75,207.37L260.59,207.37L262.42,207.37L264.26,207.37L266.09,207.37L267.93,207.37L269.76,203.7L269.76,200.03L269.76,196.36L269.76,194.52L267.93,194.52L267.93,192.69L267.93,190.85L267.93,189.02L267.93,187.18L267.93,185.35L267.93,183.51L267.93,181.68L267.93,179.84L267.93,178.01L266.09,178.01L266.09,176.17L267.93,174.34L267.93,172.5" fill="none" stroke="#000000" style="-webkit-tap-highlight-color: rgba(0, 0, 0, 0); stroke-linecap: round; stroke-linejoin: round; stroke-width: 5;" /><path d="M262.42,174.34L262.42,172.5L264.26,170.67L264.26,168.83L264.26,167L264.26,165.16L264.26,161.49L264.26,159.66L264.26,157.82L264.26,155.99L266.09,155.99L267.93,155.99L269.76,155.99L271.6,155.99L275.27,155.99L278.94,155.99L280.77,155.99L282.61,155.99L284.44,157.82L286.28,157.82L288.11,157.82L289.95,159.66L291.78,159.66L293.62,159.66L295.46,159.66L297.29,159.66L299.13,159.66L299.13,161.49L300.96,161.49L302.8,161.49L304.63,161.49L306.47,161.49L308.3,161.49L310.14,161.49L313.81,161.49L315.64,161.49L317.48,161.49L319.31,161.49L321.15,163.33L322.98,163.33L324.82,163.33L326.65,163.33L328.49,163.33L330.32,163.33L332.16,163.33L333.99,163.33L335.83,163.33L337.66,163.33L339.5,163.33L341.33,163.33L343.17,165.16L345,165.16L346.84,165.16L348.67,165.16L350.51,165.16L352.34,165.16L354.18,165.16L356.01,165.16L357.85,165.16L359.68,165.16L359.68,167L361.52,167L363.35,167L365.19,167L365.19,168.83L367.03,168.83L368.86,168.83L370.7,168.83" fill="none" stroke="#000000" style="-webkit-tap-highlight-color: rgba(0, 0, 0, 0); stroke-linecap: round; stroke-linejoin: round; stroke-width: 5;" /><path d="M394.55,194.52L394.55,192.69L394.55,194.52L394.55,196.36L392.72,200.03L392.72,203.7L392.72,209.2L392.72,212.87L392.72,216.54L392.72,222.05L392.72,225.72L392.72,227.56L392.72,231.23L392.72,236.73L390.88,240.4L390.88,244.07L390.88,247.74L390.88,251.41L390.88,255.08L389.05,260.59L389.05,266.09L389.05,269.76L389.05,271.6L389.05,275.27L389.05,277.1L389.05,278.94L389.05,282.61L387.21,286.28L387.21,289.95L387.21,293.62L387.21,297.29L387.21,300.96L387.21,302.8L387.21,306.47L387.21,310.14L387.21,313.81L387.21,315.64L387.21,319.31L390.88,315.64" fill="none" stroke="#000000" style="-webkit-tap-highlight-color: rgba(0, 0, 0, 0); stroke-linecap: round; stroke-linejoin: round; stroke-width: 5;" /><path d="M411.07,194.52L411.07,192.69L412.9,190.85L412.9,189.02L412.9,187.18L414.74,187.18L414.74,189.02L414.74,190.85L412.9,194.52L412.9,200.03L412.9,207.37L411.07,212.87L411.07,218.38L411.07,223.89L411.07,229.39L409.23,233.06L409.23,238.57L407.4,242.24L407.4,247.74L407.4,253.25L407.4,258.75L407.4,262.42L407.4,266.09L407.4,269.76L407.4,273.43L407.4,277.1L407.4,282.61L405.56,286.28L405.56,291.78L405.56,295.46L405.56,299.13L405.56,300.96L405.56,306.47L403.73,310.14L403.73,315.64L403.73,319.31L403.73,321.15" fill="none" stroke="#000000" style="-webkit-tap-highlight-color: rgba(0, 0, 0, 0); stroke-linecap: round; stroke-linejoin: round; stroke-width: 5;" /><path d="M392.72,190.85L392.72,192.69L390.88,192.69L394.55,190.85L398.22,189.02L401.89,189.02L403.73,189.02L405.56,189.02L407.4,189.02L411.07,189.02L414.74,189.02L416.57,189.02" fill="none" stroke="#000000" style="-webkit-tap-highlight-color: rgba(0, 0, 0, 0); stroke-linecap: round; stroke-linejoin: round; stroke-width: 5;" /><path d="M510.16,201.86L512,201.86L512,207.37L512,216.54L510.16,223.89L510.16,229.39L510.16,233.06L510.16,238.57L510.16,242.24L510.16,245.91L510.16,249.58L510.16,253.25L510.16,258.75L510.16,262.42L510.16,266.09L510.16,269.76L510.16,275.27L510.16,277.1L510.16,280.77L510.16,284.44L510.16,288.11L510.16,291.78L508.33,295.46L508.33,299.13L508.33,302.8L508.33,306.47L508.33,310.14L508.33,313.81L508.33,317.48L508.33,319.31L508.33,322.98L508.33,326.65L508.33,330.32L508.33,333.99L508.33,335.83L508.33,337.66L508.33,339.5" fill="none" stroke="#000000" style="-webkit-tap-highlight-color: rgba(0, 0, 0, 0); stroke-linecap: round; stroke-linejoin: round; stroke-width: 5;" /><path d="M528.52,216.54L528.52,218.38L528.52,220.22L528.52,223.89L528.52,227.56L528.52,231.23L528.52,236.73L528.52,240.4L528.52,244.07L526.68,249.58L526.68,253.25L526.68,256.92L524.85,260.59L524.85,264.26L524.85,267.93L524.85,269.76L524.85,273.43L524.85,277.1L524.85,278.94L523.01,282.61L523.01,286.28L523.01,288.11L523.01,289.95L523.01,293.62L523.01,295.46L523.01,299.13L523.01,300.96L523.01,304.63L523.01,306.47L523.01,310.14L523.01,313.81L523.01,315.64L523.01,319.31L521.18,322.98L521.18,324.82L521.18,328.49L521.18,332.16L521.18,335.83L521.18,337.66L523.01,333.99L523.01,330.32" fill="none" stroke="#000000" style="-webkit-tap-highlight-color: rgba(0, 0, 0, 0); stroke-linecap: round; stroke-linejoin: round; stroke-width: 5;" /><path d="M539.53,216.54L537.69,216.54L537.69,214.71L537.69,216.54L537.69,218.38L537.69,220.22L537.69,222.05L537.69,225.72L535.86,229.39L535.86,233.06L535.86,236.73L535.86,240.4L535.86,244.07L535.86,247.74L535.86,251.41L535.86,255.08L534.02,258.75L534.02,262.42L534.02,266.09L534.02,269.76L534.02,271.6L534.02,275.27L534.02,278.94L534.02,282.61L534.02,286.28L534.02,289.95L532.19,291.78L532.19,295.46L532.19,299.13L532.19,300.96L532.19,304.63L532.19,306.47L532.19,310.14L532.19,311.97L532.19,315.64L532.19,319.31L532.19,322.98L532.19,330.32L534.02,332.16L534.02,333.99L534.02,335.83L534.02,339.5" fill="none" stroke="#000000" style="-webkit-tap-highlight-color: rgba(0, 0, 0, 0); stroke-linecap: round; stroke-linejoin: round; stroke-width: 5;" /><path d="M550.54,216.54L550.54,220.22L550.54,222.05L550.54,225.72L550.54,229.39L550.54,234.9L550.54,238.57L550.54,240.4L550.54,244.07L550.54,245.91L550.54,249.58L550.54,251.41L550.54,255.08L550.54,256.92L550.54,260.59L550.54,262.42L550.54,264.26L550.54,271.6L550.54,273.43L550.54,275.27L550.54,278.94L550.54,280.77L550.54,284.44L550.54,288.11L550.54,291.78L550.54,295.46L550.54,297.29L550.54,300.96L550.54,302.8L550.54,306.47L550.54,308.3L548.7,310.14L548.7,311.97L548.7,313.81L548.7,317.48L548.7,319.31L548.7,322.98L548.7,324.82L548.7,328.49L548.7,332.16L548.7,333.99L550.54,332.16" fill="none" stroke="#000000" style="-webkit-tap-highlight-color: rgba(0, 0, 0, 0); stroke-linecap: round; stroke-linejoin: round; stroke-width: 5;" /><path d="M567.05,218.38L567.05,216.54L567.05,220.22L567.05,222.05L565.22,225.72L565.22,229.39L565.22,234.9L565.22,238.57L565.22,244.07L565.22,247.74L565.22,251.41L565.22,255.08L563.38,258.75L563.38,262.42L563.38,266.09L563.38,267.93L563.38,271.6L563.38,275.27L563.38,280.77L563.38,284.44L563.38,286.28L563.38,289.95L563.38,293.62L561.55,297.29L561.55,299.13L561.55,302.8L561.55,304.63L561.55,306.47L561.55,310.14L561.55,311.97L561.55,313.81L561.55,315.64L561.55,319.31L561.55,321.15L561.55,324.82L561.55,326.65L561.55,330.32L561.55,333.99" fill="none" stroke="#000000" style="-webkit-tap-highlight-color: rgba(0, 0, 0, 0); stroke-linecap: round; stroke-linejoin: round; stroke-width: 5;" /><path d="M579.9,216.54L578.06,218.38L578.06,220.22L578.06,223.89L578.06,227.56L578.06,233.06L578.06,238.57L578.06,242.24L578.06,247.74L576.23,249.58L576.23,255.08L576.23,258.75L576.23,262.42L576.23,266.09L576.23,267.93L576.23,271.6L576.23,275.27L576.23,277.1L576.23,280.77L576.23,284.44L576.23,286.28L576.23,289.95L576.23,291.78L576.23,293.62L576.23,297.29L576.23,299.13L576.23,302.8L576.23,304.63L576.23,306.47L576.23,308.3L576.23,311.97L576.23,315.64L576.23,317.48L576.23,321.15L576.23,324.82L576.23,326.65L576.23,330.32L576.23,332.16L576.23,335.83L576.23,337.66L576.23,335.83" fill="none" stroke="#000000" style="-webkit-tap-highlight-color: rgba(0, 0, 0, 0); stroke-linecap: round; stroke-linejoin: round; stroke-width: 5;" /><path d="M590.91,216.54L590.91,214.71L589.08,214.71L589.08,218.38L589.08,222.05L589.08,223.89L589.08,227.56L589.08,233.06L587.24,236.73L587.24,242.24L587.24,245.91L587.24,251.41L587.24,255.08L587.24,258.75L587.24,262.42L587.24,266.09L587.24,269.76L587.24,273.43L585.41,277.1L585.41,280.77L585.41,284.44L583.57,289.95L583.57,293.62L583.57,295.46L583.57,297.29L583.57,300.96L583.57,302.8L583.57,306.47L583.57,308.3L583.57,310.14L583.57,311.97L583.57,315.64L585.41,317.48L585.41,321.15L585.41,322.98L585.41,324.82L585.41,328.49L585.41,330.32L585.41,332.16L585.41,333.99" fill="none" stroke="#000000" style="-webkit-tap-highlight-color: rgba(0, 0, 0, 0); stroke-linecap: round; stroke-linejoin: round; stroke-width: 5;" /><path d="M603.76,216.54L603.76,214.71L603.76,212.87L603.76,214.71L603.76,216.54L603.76,220.22L601.92,223.89L601.92,229.39L600.09,234.9L600.09,240.4L600.09,244.07L601.92,249.58L601.92,253.25L601.92,256.92L601.92,258.75L601.92,264.26L601.92,267.93L601.92,271.6L601.92,275.27L601.92,280.77L601.92,284.44L601.92,288.11L601.92,291.78L601.92,295.46L601.92,299.13L601.92,302.8L601.92,306.47L600.09,310.14L600.09,313.81L600.09,315.64L600.09,319.31L600.09,322.98L600.09,324.82L598.25,328.49L598.25,332.16L598.25,333.99L598.25,337.66L600.09,333.99" fill="none" stroke="#000000" style="-webkit-tap-highlight-color: rgba(0, 0, 0, 0); stroke-linecap: round; stroke-linejoin: round; stroke-width: 5;" /><path d="M510.16,200.03L508.33,200.03L508.33,198.19L506.49,198.19L508.33,196.36L512,196.36L513.84,194.52L515.67,194.52L517.51,196.36L521.18,196.36L523.01,196.36L526.68,196.36L530.35,196.36L532.19,196.36L534.02,198.19L535.86,198.19L539.53,198.19L543.2,198.19L545.03,198.19L546.87,198.19L550.54,198.19L552.37,198.19L554.21,200.03L557.88,200.03L559.71,200.03L561.55,200.03L563.38,200.03L565.22,200.03L568.89,200.03L570.72,200.03L572.56,200.03L574.39,200.03L576.23,201.86L579.9,201.86L581.73,201.86L583.57,201.86L585.41,203.7L587.24,203.7L589.08,203.7L590.91,203.7L592.75,205.53L594.58,205.53L596.42,205.53L598.25,205.53L600.09,205.53L601.92,205.53L603.76,207.37L605.59,207.37L605.59,209.2L605.59,211.04L605.59,212.87L605.59,216.54L605.59,220.22L609.26,220.22" fill="none" stroke="#000000" style="-webkit-tap-highlight-color: rgba(0, 0, 0, 0); stroke-linecap: round; stroke-linejoin: round; stroke-width: 5;" /><path d="M524.85,216.54L524.85,214.71L526.68,214.71L530.35,214.71L532.19,214.71L534.02,214.71L537.69,214.71L541.36,214.71L543.2,214.71" fill="none" stroke="#000000" style="-webkit-tap-highlight-color: rgba(0, 0, 0, 0); stroke-linecap: round; stroke-linejoin: round; stroke-width: 5;" /><path d="M550.54,218.38L548.7,218.38L550.54,216.54L556.04,216.54L559.71,216.54L563.38,216.54L565.22,216.54L567.05,216.54" fill="none" stroke="#000000" style="-webkit-tap-highlight-color: rgba(0, 0, 0, 0); stroke-linecap: round; stroke-linejoin: round; stroke-width: 5;" /><path d="M578.06,218.38L579.9,218.38L581.73,218.38L585.41,216.54L587.24,216.54L590.91,218.38" fill="none" stroke="#000000" style="-webkit-tap-highlight-color: rgba(0, 0, 0, 0); stroke-linecap: round; stroke-linejoin: round; stroke-width: 5;" /><path d="M519.34,341.33L517.51,341.33L515.67,341.33" fill="none" stroke="#000000" style="-webkit-tap-highlight-color: rgba(0, 0, 0, 0); stroke-linecap: round; stroke-linejoin: round; stroke-width: 5;" /><path d="M508.33,339.5L506.49,339.5L504.66,339.5L506.49,339.5L508.33,339.5L510.16,341.33L513.84,341.33L519.34,341.33" fill="none" stroke="#000000" style="-webkit-tap-highlight-color: rgba(0, 0, 0, 0); stroke-linecap: round; stroke-linejoin: round; stroke-width: 5;" /><path d="M535.86,341.33L537.69,339.5L546.87,337.66L550.54,335.83" fill="none" stroke="#000000" style="-webkit-tap-highlight-color: rgba(0, 0, 0, 0); stroke-linecap: round; stroke-linejoin: round; stroke-width: 5;" /><path d="M578.06,339.5L576.23,339.5L578.06,339.5L581.73,337.66L585.41,335.83L587.24,335.83" fill="none" stroke="#000000" style="-webkit-tap-highlight-color: rgba(0, 0, 0, 0); stroke-linecap: round; stroke-linejoin: round; stroke-width: 5;" /><path d="M559.71,333.99L557.88,335.83L567.05,337.66L578.06,337.66" fill="none" stroke="#000000" style="-webkit-tap-highlight-color: rgba(0, 0, 0, 0); stroke-linecap: round; stroke-linejoin: round; stroke-width: 5;" /><path d="M5.51,359.68L3.67,359.68L5.51,359.68L7.34,359.68L9.18,359.68L12.85,359.68L16.52,359.68L20.19,357.85L23.86,357.85L27.53,357.85L31.2,357.85L34.87,357.85L38.54,356.01L42.21,356.01L44.04,356.01L47.71,356.01L49.55,356.01L53.22,357.85L56.89,357.85L58.72,357.85L62.39,357.85L64.23,357.85L67.9,357.85L71.57,357.85L77.08,356.01L80.75,356.01L82.58,354.18L84.42,354.18L88.09,354.18L89.92,354.18L91.76,354.18L95.43,354.18L97.26,354.18L99.1,354.18L102.77,354.18L106.44,354.18L111.94,352.34L115.61,350.51L119.28,348.67L121.12,348.67L124.79,348.67L126.62,346.84L130.29,346.84L133.96,345L135.8,343.17L139.47,343.17L141.3,343.17L143.14,341.33L146.81,341.33L150.48,341.33L154.15,339.5L155.99,339.5L159.66,337.66L163.33,337.66L165.16,337.66L168.83,337.66L170.67,337.66L172.5,337.66L176.17,335.83L178.01,335.83L181.68,335.83L183.51,335.83L187.18,335.83L189.02,335.83L190.85,333.99L194.52,333.99L196.36,333.99L200.03,333.99L203.7,332.16L205.53,332.16L207.37,332.16L211.04,332.16L212.87,332.16L214.71,332.16L216.54,330.32L218.38,330.32L222.05,330.32L223.89,330.32L227.56,330.32L231.23,330.32L233.06,328.49L234.9,328.49L236.73,328.49L238.57,328.49L242.24,326.65L245.91,326.65L247.74,326.65L251.41,326.65L253.25,326.65L255.08,326.65L258.75,326.65L260.59,324.82L262.42,324.82L264.26,324.82L266.09,324.82L267.93,324.82L269.76,324.82L271.6,324.82L275.27,322.98L277.1,322.98L278.94,322.98L280.77,322.98L282.61,322.98L284.44,322.98L286.28,322.98L288.11,322.98L289.95,322.98L291.78,322.98L293.62,322.98L295.46,321.15L297.29,321.15L299.13,321.15L300.96,321.15L302.8,321.15L304.63,321.15L306.47,321.15L308.3,321.15L311.97,321.15L313.81,321.15L317.48,321.15L319.31,321.15L321.15,321.15L322.98,321.15L326.65,321.15L328.49,321.15L330.32,319.31L332.16,319.31L333.99,319.31L335.83,319.31L337.66,319.31L339.5,319.31L341.33,319.31L343.17,319.31L345,319.31L346.84,319.31L348.67,319.31L350.51,319.31L352.34,319.31L354.18,319.31L356.01,319.31L357.85,319.31L359.68,319.31L361.52,319.31L363.35,319.31L365.19,319.31L365.19,321.15L367.03,321.15L368.86,321.15L370.7,321.15L372.53,321.15L376.2,321.15L378.04,321.15L381.71,319.31L385.38,317.48L389.05,317.48L392.72,317.48" fill="none" stroke="#000000" style="-webkit-tap-highlight-color: rgba(0, 0, 0, 0); stroke-linecap: round; stroke-linejoin: round; stroke-width: 5;" /><path d="M11.01,427.58L11.01,425.75L12.85,425.75L14.68,425.75L18.35,425.75L20.19,425.75L23.86,425.75L27.53,425.75L31.2,425.75L34.87,425.75L40.37,423.91L44.04,422.08L47.71,420.24L51.38,420.24L56.89,420.24L62.39,418.41L67.9,416.57L71.57,414.74L75.24,414.74L78.91,414.74L82.58,414.74L86.25,414.74L89.92,412.9L95.43,412.9L99.1,412.9L102.77,412.9L108.27,412.9L111.94,412.9L117.45,411.07L121.12,411.07L124.79,409.23L130.29,409.23L135.8,407.4L139.47,405.56L143.14,405.56L146.81,403.73L150.48,403.73L154.15,403.73L157.82,401.89L159.66,401.89L163.33,400.06L168.83,400.06L172.5,398.22L178.01,396.39L181.68,394.55L185.35,394.55L190.85,392.72L194.52,390.88L198.19,390.88L201.86,389.05L205.53,389.05L209.2,387.21L212.87,387.21L216.54,387.21L218.38,385.38L222.05,383.54L227.56,381.71L233.06,379.87L238.57,379.87L242.24,378.04L247.74,376.2L253.25,376.2L258.75,374.37L262.42,374.37L266.09,374.37L269.76,372.53L275.27,372.53L278.94,372.53L282.61,372.53L286.28,370.7L289.95,370.7L293.62,370.7L297.29,368.86L300.96,368.86L304.63,368.86L308.3,367.03L313.81,367.03L315.64,365.19L319.31,365.19L321.15,363.35L324.82,363.35L328.49,363.35L332.16,361.52L335.83,361.52L337.66,361.52L339.5,359.68L343.17,359.68L346.84,357.85L350.51,357.85L352.34,357.85L354.18,357.85L357.85,356.01L361.52,356.01L363.35,356.01L367.03,354.18L368.86,354.18L372.53,354.18L376.2,352.34L378.04,352.34L379.87,350.51L381.71,350.51L383.54,350.51L387.21,350.51L389.05,348.67L392.72,348.67L394.55,348.67L396.39,346.84L398.22,346.84L401.89,346.84L403.73,345L407.4,345L409.23,345L411.07,343.17L412.9,343.17L414.74,343.17" fill="none" stroke="#000000" style="-webkit-tap-highlight-color: rgba(0, 0, 0, 0); stroke-linecap: round; stroke-linejoin: round; stroke-width: 5;" /><path d="M433.09,341.33L431.25,341.33L427.58,341.33L429.42,341.33L434.92,339.5L436.76,339.5L440.43,339.5L445.94,339.5L451.44,337.66L456.95,335.83L460.62,335.83L464.29,333.99L466.12,333.99L467.96,333.99L471.63,333.99L475.3,333.99L477.13,333.99L478.97,333.99L480.8,333.99L482.64,333.99L486.31,333.99L488.14,333.99L489.98,333.99L491.81,333.99L493.65,333.99L495.48,332.16L497.32,332.16L499.15,332.16L500.99,332.16L502.82,332.16L504.66,332.16L506.49,332.16" fill="none" stroke="#000000" style="-webkit-tap-highlight-color: rgba(0, 0, 0, 0); stroke-linecap: round; stroke-linejoin: round; stroke-width: 5;" /><path d="M598.25,313.81L600.09,315.64L603.76,315.64L605.59,315.64L607.43,315.64L609.26,315.64L614.77,313.81L620.27,311.97L625.78,311.97L631.28,310.14L636.79,310.14L638.62,310.14L642.29,310.14L645.96,310.14L647.8,308.3L653.3,308.3L656.97,308.3L658.81,306.47L662.48,306.47L664.32,306.47L666.15,306.47L667.99,306.47L669.82,306.47L671.66,306.47L673.49,306.47L673.49,304.63L675.33,304.63L677.16,304.63L679,304.63L680.83,304.63L682.67,302.8L684.5,302.8L686.34,302.8L690.01,300.96L695.51,299.13L704.69,293.62L712.03,291.78L713.86,291.78" fill="none" stroke="#000000" style="-webkit-tap-highlight-color: rgba(0, 0, 0, 0); stroke-linecap: round; stroke-linejoin: round; stroke-width: 5;" /><path d="M5.51,469.79L5.51,467.96L9.18,466.12L11.01,466.12L16.52,466.12L20.19,464.29L25.69,462.45L33.03,460.62L40.37,458.78L45.88,456.95L49.55,455.11L53.22,455.11L56.89,453.28L62.39,451.44L67.9,449.61L71.57,447.77L77.08,447.77L78.91,447.77L80.75,447.77L84.42,445.94L88.09,445.94L91.76,444.1L95.43,444.1L99.1,442.27L102.77,442.27L104.6,442.27L106.44,442.27L108.27,442.27L111.94,440.43L113.78,440.43L115.61,440.43L122.95,436.76L128.46,434.92L132.13,433.09L133.96,433.09L135.8,433.09L139.47,431.25L143.14,431.25L146.81,429.42L148.65,429.42L150.48,427.58L152.32,427.58L155.99,427.58L157.82,425.75L159.66,425.75L161.49,423.91L163.33,423.91L165.16,423.91L167,423.91L168.83,423.91L170.67,423.91L172.5,423.91L174.34,423.91L176.17,423.91L178.01,423.91L179.84,423.91L181.68,423.91L183.51,423.91L187.18,423.91L189.02,423.91L190.85,423.91L192.69,423.91L194.52,422.08L196.36,422.08L198.19,422.08L200.03,420.24L201.86,420.24L205.53,418.41L207.37,418.41L209.2,416.57L211.04,416.57L214.71,416.57L216.54,416.57L218.38,414.74L222.05,414.74L225.72,412.9L229.39,411.07L233.06,411.07L236.73,411.07L240.4,411.07L244.07,409.23L247.74,407.4L251.41,407.4L255.08,405.56L256.92,405.56L260.59,405.56L264.26,403.73L266.09,403.73L267.93,401.89L271.6,401.89L273.43,400.06L277.1,400.06L280.77,400.06L284.44,398.22L288.11,396.39L291.78,396.39L295.46,396.39L299.13,394.55L300.96,394.55L304.63,392.72L308.3,390.88L311.97,390.88L313.81,389.05L315.64,389.05L317.48,389.05L319.31,387.21L321.15,385.38L322.98,383.54L324.82,383.54L326.65,381.71L330.32,381.71L332.16,381.71L335.83,379.87L337.66,379.87L341.33,379.87L343.17,378.04L346.84,378.04L348.67,378.04L352.34,378.04L356.01,378.04L357.85,378.04L361.52,378.04L365.19,378.04L368.86,376.2L372.53,376.2L376.2,374.37L383.54,372.53L389.05,370.7L396.39,368.86L403.73,367.03L411.07,365.19L420.24,363.35L425.75,361.52L433.09,359.68L436.76,357.85L440.43,357.85L445.94,356.01L449.61,356.01L451.44,354.18L453.28,354.18L455.11,354.18L456.95,354.18L458.78,352.34L460.62,352.34L464.29,350.51L466.12,350.51L469.79,348.67L471.63,348.67L477.13,346.84L478.97,346.84L480.8,346.84L482.64,346.84L484.47,346.84L488.14,346.84L489.98,346.84L491.81,346.84L493.65,346.84L495.48,346.84L497.32,346.84L499.15,346.84L500.99,346.84L504.66,346.84L506.49,346.84L510.16,346.84L512,346.84L515.67,346.84L519.34,345L523.01,345L524.85,345L526.68,345L528.52,345L532.19,345L535.86,345L537.69,345L541.36,343.17L543.2,343.17L545.03,343.17L546.87,343.17L550.54,341.33L554.21,341.33L556.04,341.33L557.88,341.33L561.55,341.33L563.38,341.33L567.05,341.33L570.72,339.5L574.39,339.5L576.23,339.5L579.9,339.5L581.73,337.66L587.24,337.66L590.91,335.83L594.58,333.99L596.42,333.99L598.25,332.16L601.92,332.16L605.59,332.16L609.26,332.16L612.93,330.32L616.6,330.32L620.27,328.49L622.11,328.49L623.94,328.49L625.78,328.49L627.61,328.49L631.28,328.49L633.12,328.49L636.79,326.65L640.46,326.65L644.13,324.82L647.8,324.82L651.47,322.98L653.3,322.98L656.97,322.98L660.65,322.98L664.32,321.15L669.82,321.15L673.49,319.31L677.16,317.48L680.83,315.64L682.67,315.64L688.17,313.81L693.68,311.97L699.18,310.14L704.69,308.3L710.19,306.47L713.86,306.47L717.53,304.63L719.37,304.63L721.2,304.63L723.04,304.63L724.87,304.63L726.71,304.63L728.54,304.63L730.38,304.63L734.05,304.63L735.89,302.8L737.72,302.8L739.56,302.8L741.39,302.8L743.23,302.8L745.06,300.96L746.9,300.96L748.73,300.96L750.57,300.96L752.4,300.96L754.24,300.96L756.07,300.96L757.91,300.96L759.74,300.96L761.58,299.13L763.41,299.13L765.25,299.13L767.08,299.13L768.92,299.13L770.75,299.13L772.59,299.13L774.42,299.13L778.09,299.13L779.93,299.13L781.76,299.13L785.43,300.96L787.27,300.96L789.1,300.96L790.94,300.96L792.77,300.96L794.61,300.96L796.44,300.96L798.28,300.96L800.11,300.96L801.95,300.96L803.78,300.96L805.62,300.96L809.29,299.13L812.96,299.13L816.63,299.13" fill="none" stroke="#000000" style="-webkit-tap-highlight-color: rgba(0, 0, 0, 0); stroke-linecap: round; stroke-linejoin: round; stroke-width: 5;" /><path d="M467.96,143.14L466.12,143.14L462.45,148.65" fill="none" stroke="#000000" style="-webkit-tap-highlight-color: rgba(0, 0, 0, 0); stroke-linecap: round; stroke-linejoin: round; stroke-width: 5;" /><path d="M466.12,141.3L466.12,139.47L466.12,137.63L464.29,137.63L464.29,139.47L464.29,143.14L464.29,148.65L464.29,154.15L464.29,161.49L464.29,167L464.29,172.5L464.29,176.17L464.29,174.34" fill="none" stroke="#000000" style="-webkit-tap-highlight-color: rgba(0, 0, 0, 0); stroke-linecap: round; stroke-linejoin: round; stroke-width: 5;" /><path d="M477.13,144.97L475.3,143.14L475.3,141.3L473.46,141.3L473.46,146.81L473.46,154.15L471.63,161.49L471.63,168.83L471.63,174.34L473.46,174.34" fill="none" stroke="#000000" style="-webkit-tap-highlight-color: rgba(0, 0, 0, 0); stroke-linecap: round; stroke-linejoin: round; stroke-width: 5;" /><path d="M484.47,141.3L482.64,139.47L484.47,144.97L484.47,152.32L482.64,159.66L480.8,168.83L480.8,172.5L480.8,174.34" fill="none" stroke="#000000" style="-webkit-tap-highlight-color: rgba(0, 0, 0, 0); stroke-linecap: round; stroke-linejoin: round; stroke-width: 5;" /><path d="M493.65,143.14L491.81,141.3L491.81,143.14L491.81,150.48L489.98,159.66L486.31,170.67L484.47,179.84L484.47,183.51" fill="none" stroke="#000000" style="-webkit-tap-highlight-color: rgba(0, 0, 0, 0); stroke-linecap: round; stroke-linejoin: round; stroke-width: 5;" /><path d="M506.49,146.81L504.66,144.97L502.82,143.14L502.82,148.65L500.99,155.99L499.15,167L499.15,178.01L500.99,183.51" fill="none" stroke="#000000" style="-webkit-tap-highlight-color: rgba(0, 0, 0, 0); stroke-linecap: round; stroke-linejoin: round; stroke-width: 5;" /><path d="M834.98,229.39L834.98,227.56L834.98,229.39L834.98,236.73L834.98,247.74L834.98,256.92L833.15,264.26L833.15,266.09L833.15,267.93L834.98,267.93" fill="none" stroke="#000000" style="-webkit-tap-highlight-color: rgba(0, 0, 0, 0); stroke-linecap: round; stroke-linejoin: round; stroke-width: 5;" /><path d="M849.66,225.72L849.66,223.89L849.66,220.22L849.66,223.89L849.66,229.39L849.66,236.73L849.66,245.91L849.66,256.92L847.83,262.42L847.83,266.09L849.66,266.09" fill="none" stroke="#000000" style="-webkit-tap-highlight-color: rgba(0, 0, 0, 0); stroke-linecap: round; stroke-linejoin: round; stroke-width: 5;" /><path d="M862.51,223.89L860.67,222.05L858.84,222.05L858.84,234.9L857,247.74L857,258.75L855.17,264.26L855.17,267.93" fill="none" stroke="#000000" style="-webkit-tap-highlight-color: rgba(0, 0, 0, 0); stroke-linecap: round; stroke-linejoin: round; stroke-width: 5;" /><path d="M842.32,233.06L842.32,231.23L842.32,234.9L840.49,242.24L840.49,249.58L840.49,256.92L840.49,262.42" fill="none" stroke="#000000" style="-webkit-tap-highlight-color: rgba(0, 0, 0, 0); stroke-linecap: round; stroke-linejoin: round; stroke-width: 5;" /><path d="M866.18,231.23L866.18,229.39L866.18,244.07L866.18,255.08L864.34,264.26L864.34,267.93" fill="none" stroke="#000000" style="-webkit-tap-highlight-color: rgba(0, 0, 0, 0); stroke-linecap: round; stroke-linejoin: round; stroke-width: 5;" /><path d="M884.53,231.23L882.7,236.73L882.7,244.07L880.86,256.92L879.03,266.09L879.03,273.43L879.03,277.1" fill="none" stroke="#000000" style="-webkit-tap-highlight-color: rgba(0, 0, 0, 0); stroke-linecap: round; stroke-linejoin: round; stroke-width: 5;" /><path d="M895.54,233.06L893.71,231.23L893.71,236.73L893.71,245.91L891.87,256.92L891.87,266.09L890.04,273.43L890.04,275.27L891.87,275.27" fill="none" stroke="#000000" style="-webkit-tap-highlight-color: rgba(0, 0, 0, 0); stroke-linecap: round; stroke-linejoin: round; stroke-width: 5;" /><path d="M906.55,233.06L904.72,231.23L904.72,229.39L902.88,238.57L902.88,249.58L901.05,260.59L901.05,269.76L901.05,273.43L902.88,273.43" fill="none" stroke="#000000" style="-webkit-tap-highlight-color: rgba(0, 0, 0, 0); stroke-linecap: round; stroke-linejoin: round; stroke-width: 5;" /><path d="M915.73,229.39L915.73,227.56L913.89,227.56L912.06,236.73L908.39,251.41L908.39,267.93L910.22,275.27" fill="none" stroke="#000000" style="-webkit-tap-highlight-color: rgba(0, 0, 0, 0); stroke-linecap: round; stroke-linejoin: round; stroke-width: 5;" /><path d="M814.8,297.29L812.96,297.29L816.63,299.13L822.14,300.96L827.64,300.96L836.82,300.96L845.99,299.13L855.17,297.29L862.51,295.46L866.18,295.46L869.85,295.46L873.52,295.46L879.03,295.46L882.7,295.46L888.2,293.62L893.71,293.62L899.21,293.62L904.72,293.62L915.73,293.62L919.4,293.62L924.9,293.62L930.41,293.62L935.91,293.62L943.25,291.78L948.76,289.95L952.43,291.78L954.27,293.62" fill="none" stroke="#000000" style="-webkit-tap-highlight-color: rgba(0, 0, 0, 0); stroke-linecap: round; stroke-linejoin: round; stroke-width: 5;" /><path d="M858.84,185.35L857,185.35L855.17,187.18L855.17,189.02L858.84,189.02L864.34,189.02L869.85,189.02L873.52,189.02L879.03,189.02L882.7,187.18L888.2,185.35L890.04,185.35L891.87,185.35L891.87,189.02L891.87,190.85L891.87,194.52L890.04,200.03L890.04,203.7L890.04,207.37L891.87,209.2L893.71,209.2L895.54,209.2L897.38,209.2L901.05,209.2L904.72,207.37L908.39,207.37L913.89,207.37L915.73,207.37L919.4,207.37L921.23,207.37L924.9,207.37L930.41,209.2L932.24,209.2L934.08,209.2L935.91,209.2L935.91,212.87L935.91,218.38L935.91,225.72L935.91,233.06L937.75,242.24L939.58,249.58" fill="none" stroke="#000000" style="-webkit-tap-highlight-color: rgba(0, 0, 0, 0); stroke-linecap: round; stroke-linejoin: round; stroke-width: 5;" /><path d="M108.27,172.5L108.27,170.67L108.27,168.83L108.27,170.67L108.27,172.5L108.27,176.17L106.44,178.01L106.44,181.68L106.44,185.35L106.44,187.18L106.44,189.02L108.27,189.02L110.11,189.02L111.94,190.85L113.78,190.85L117.45,190.85L122.95,190.85L128.46,190.85L132.13,190.85L135.8,190.85L137.63,190.85L141.3,190.85L144.97,190.85L150.48,190.85L155.99,190.85L159.66,190.85L163.33,190.85L167,190.85L170.67,190.85L174.34,190.85L179.84,190.85L183.51,190.85L187.18,190.85L190.85,190.85L194.52,190.85L198.19,190.85L200.03,190.85L203.7,190.85L205.53,190.85L207.37,190.85L209.2,190.85L212.87,190.85L214.71,190.85L218.38,190.85L222.05,190.85L223.89,190.85L225.72,192.69L229.39,192.69L233.06,192.69L236.73,192.69L240.4,192.69L244.07,192.69L249.58,190.85L256.92,189.02L262.42,185.35" fill="none" stroke="#000000" style="-webkit-tap-highlight-color: rgba(0, 0, 0, 0); stroke-linecap: round; stroke-linejoin: round; stroke-width: 5;" /><path d="M122.95,168.83L121.12,168.83L117.45,168.83L119.28,168.83L126.62,168.83L135.8,170.67L141.3,170.67L148.65,170.67L154.15,170.67L161.49,168.83L165.16,168.83L168.83,168.83L172.5,168.83L176.17,168.83L179.84,168.83L183.51,168.83L187.18,168.83L189.02,168.83L192.69,168.83L196.36,168.83L200.03,168.83L203.7,168.83L207.37,168.83L211.04,168.83L214.71,168.83L218.38,168.83L222.05,168.83L225.72,168.83L227.56,168.83L229.39,170.67L231.23,170.67L234.9,170.67L236.73,170.67L240.4,170.67L244.07,170.67L247.74,170.67L249.58,170.67L253.25,170.67L256.92,170.67L258.75,170.67" fill="none" stroke="#000000" style="-webkit-tap-highlight-color: rgba(0, 0, 0, 0); stroke-linecap: round; stroke-linejoin: round; stroke-width: 5;" /><path d="M825.81,420.24L823.97,420.24L823.97,418.41L823.97,422.08L822.14,425.75L820.3,429.42L818.47,434.92L814.8,442.27L812.96,451.44L811.13,462.45L811.13,475.3L811.13,484.47L811.13,491.81L812.96,495.48L814.8,495.48" fill="none" stroke="#000000" style="-webkit-tap-highlight-color: rgba(0, 0, 0, 0); stroke-linecap: round; stroke-linejoin: round; stroke-width: 5;" /><path d="M895.54,431.25L893.71,431.25L891.87,429.42L891.87,427.58L893.71,427.58L893.71,429.42L893.71,433.09L893.71,442.27L895.54,453.28L895.54,467.96L895.54,478.97L895.54,488.14L893.71,493.65L893.71,495.48L893.71,493.65" fill="none" stroke="#000000" style="-webkit-tap-highlight-color: rgba(0, 0, 0, 0); stroke-linecap: round; stroke-linejoin: round; stroke-width: 5;" /><path d="M827.64,418.41L823.97,418.41L822.14,416.57L823.97,418.41L827.64,420.24L831.31,423.91L834.98,425.75L842.32,425.75L847.83,423.91L855.17,422.08L858.84,422.08L864.34,422.08L868.01,422.08L871.68,420.24L877.19,420.24L879.03,420.24L882.7,422.08L884.53,422.08L886.37,423.91L888.2,425.75" fill="none" stroke="#000000" style="-webkit-tap-highlight-color: rgba(0, 0, 0, 0); stroke-linecap: round; stroke-linejoin: round; stroke-width: 5;" /><path d="M726.71,464.29L726.71,462.45L724.87,464.29L723.04,467.96L723.04,473.46L721.2,480.8L721.2,491.81L721.2,506.49L721.2,519.34L723.04,528.52L724.87,532.19L726.71,532.19L726.71,530.35" fill="none" stroke="#000000" style="-webkit-tap-highlight-color: rgba(0, 0, 0, 0); stroke-linecap: round; stroke-linejoin: round; stroke-width: 5;" /><path d="M801.95,464.29L800.11,464.29L800.11,466.12L800.11,471.63L801.95,480.8L803.78,493.65L805.62,510.16L807.46,521.18L809.29,526.68L811.13,528.52L811.13,526.68" fill="none" stroke="#000000" style="-webkit-tap-highlight-color: rgba(0, 0, 0, 0); stroke-linecap: round; stroke-linejoin: round; stroke-width: 5;" /><path d="M723.04,466.12L723.04,464.29L726.71,460.62L730.38,458.78L735.89,455.11L741.39,455.11L748.73,455.11L756.07,456.95L765.25,456.95L776.26,456.95L787.27,458.78L794.61,462.45L800.11,466.12L801.95,467.96L803.78,469.79" fill="none" stroke="#000000" style="-webkit-tap-highlight-color: rgba(0, 0, 0, 0); stroke-linecap: round; stroke-linejoin: round; stroke-width: 5;" /><path d="M899.21,422.08L897.38,422.08L897.38,420.24L910.22,420.24L923.07,422.08L924.9,423.91L926.74,425.75L928.57,425.75L928.57,429.42L930.41,434.92L932.24,442.27L934.08,449.61L937.75,455.11L941.42,460.62L943.25,466.12" fill="none" stroke="#000000" style="-webkit-tap-highlight-color: rgba(0, 0, 0, 0); stroke-linecap: round; stroke-linejoin: round; stroke-width: 5;" /><path d="M902.88,471.63L901.05,471.63L908.39,473.46L919.4,473.46L930.41,473.46L937.75,467.96L943.25,464.29" fill="none" stroke="#000000" style="-webkit-tap-highlight-color: rgba(0, 0, 0, 0); stroke-linecap: round; stroke-linejoin: round; stroke-width: 5;" /><path d="M734.05,471.63L732.22,471.63L734.05,471.63L739.56,473.46L746.9,477.13L759.74,478.97L772.59,478.97L787.27,477.13L803.78,469.79" fill="none" stroke="#000000" style="-webkit-tap-highlight-color: rgba(0, 0, 0, 0); stroke-linecap: round; stroke-linejoin: round; stroke-width: 5;" /></svg>