<?xml version="1.0" encoding="utf-8" ?>
<svg baseProfile="full" height="756" version="1.1" width="1024" xmlns="http://www.w3.org/2000/svg" xmlns:ev="http://www.w3.org/2001/xml-events" xmlns:xlink="http://www.w3.org/1999/xlink"><defs /><path d="M81.41,220.72L80,225L80,225L81,228L83,232L83,235L83,233L85,238L83,241L86,245L83,242L84,246L87,248L87,253L86,250L87,251L86,255L84,257L84,259L84,262L84,261L84,266L84,264L84,268L84,270L84,273L84,271L84,277L85,274L84,280L84,279L87,279L86,282L86,288L86,284L88,286L86,289L88,295L87,290L87,293L88,297L87,299L87,300L87,304L87,306L87,310L85,313L87,309L87,308L85,317L86,319L85,315L86,320L86,322L86,324L88,326L88,327L88,329L88,331L90,335L88,333L90,337L89,344L89,342L89,338" fill="none" stroke="#000000" style="-webkit-tap-highlight-color: rgba(0, 0, 0, 0); stroke-linecap: round; stroke-linejoin: round; stroke-width: 5;" /><path d="M89,346L88,350L89,351L89,351L85,356L85,358L85,358L85,358L85,358L85,358L85,358L85,358L92,371" fill="none" stroke="#000000" style="-webkit-tap-highlight-color: rgba(0, 0, 0, 0); stroke-linecap: round; stroke-linejoin: round; stroke-width: 5;" /><path d="M103.12,220.72" fill="none" stroke="#000000" style="-webkit-tap-highlight-color: rgba(0, 0, 0, 0); stroke-linecap: round; stroke-linejoin: round; stroke-width: 5;" /><path d="M85,358L85,358" fill="none" stroke="#000000" style="-webkit-tap-highlight-color: rgba(0, 0, 0, 0); stroke-linecap: round; stroke-linejoin: round; stroke-width: 5;" /><path d="M103,222L102,223L100,224L99,225L98,229L99,233L100,238L102,239L102,239L107,240L107,240L103,253L105,257L105,259L105,261L105,262L105,264L105,266L105,270L105,268L105,271L105,273L103,275L103,277L103,280L103,279L103,282L103,284L103,286L103,288L103,289L103,293L103,291L103,295L103,297L105,302L103,299L92,310L105,304L105,313L105,306L105,309L105,315L105,322L105,318L105,324L105,327L105,326L113,341L105,329" fill="none" stroke="#000000" style="-webkit-tap-highlight-color: rgba(0, 0, 0, 0); stroke-linecap: round; stroke-linejoin: round; stroke-width: 5;" /><path d="M106,343L106,343L109,342L109,342L106,343L106,343L106,343L106,345L106,345L106,345L106,345L106,345" fill="none" stroke="#000000" style="-webkit-tap-highlight-color: rgba(0, 0, 0, 0); stroke-linecap: round; stroke-linejoin: round; stroke-width: 5;" /><path d="M135.69,222.53L136,225L136,232L136,230L137,239L137,235L139,242L139,246L140,252L139,250L139,257L139,258L139,264L139,262L139,268L137,270L137,271L137,273L137,275L137,277L137,279L137,280L138,284L138,286L138,288L138,289L138,291L138,293L138,297L138,299L138,302L138,304L138,300L138,306L138,308L138,309L138,313L138,311L139,317L138,315L139,318L139,320L139,322L139,324L139,326L139,327L139,329L139,331L139,333L139,335" fill="none" stroke="#000000" style="-webkit-tap-highlight-color: rgba(0, 0, 0, 0); stroke-linecap: round; stroke-linejoin: round; stroke-width: 5;" /><path d="M139,337L139,339L139,341L139,338L138,342L138,342L138,342L138,342L138,342L138,342L139,339L138,342" fill="none" stroke="#000000" style="-webkit-tap-highlight-color: rgba(0, 0, 0, 0); stroke-linecap: round; stroke-linejoin: round; stroke-width: 5;" /><path d="M164.64,211.67L162,217L162,217L162,217L161,218L161,222L161,226L161,229L160,234L159,237L158,235L158,240L159,243L160,244L158,242L160,244L160,244L160,244L159,257L159,261L159,268L159,264L159,271L159,273L157,280L157,282L157,277L157,286L157,288L157,289L157,295L157,293L157,308L157,297L157,308L157,308L157,308L157,308L157,308L158,309L159,310L159,310L159,310L159,310L157,322L159,310" fill="none" stroke="#000000" style="-webkit-tap-highlight-color: rgba(0, 0, 0, 0); stroke-linecap: round; stroke-linejoin: round; stroke-width: 5;" /><path d="M160,334L160,334L160,334L160,334L160,334L160,334L160,336L160,336L160,336L160,336L160,336L160,336" fill="none" stroke="#000000" style="-webkit-tap-highlight-color: rgba(0, 0, 0, 0); stroke-linecap: round; stroke-linejoin: round; stroke-width: 5;" /><path d="M186.35,218.91L185,223L185,225L184,232L185,237L185,241L186,248L186,251L186,257L186,264L186,261L186,268L186,271L186,275L186,279L186,277L186,282L186,284L186,288L186,293L186,289L186,295L186,297L186,299L186,302L186,304" fill="none" stroke="#000000" style="-webkit-tap-highlight-color: rgba(0, 0, 0, 0); stroke-linecap: round; stroke-linejoin: round; stroke-width: 5;" /><path d="M186,306L186,309L186,311L186,308L186,322L186,318L186,315L186,317L186,324L186,326L184,331L184,331L183,336" fill="none" stroke="#000000" style="-webkit-tap-highlight-color: rgba(0, 0, 0, 0); stroke-linecap: round; stroke-linejoin: round; stroke-width: 5;" /><path d="M204.44,213.48" fill="none" stroke="#000000" style="-webkit-tap-highlight-color: rgba(0, 0, 0, 0); stroke-linecap: round; stroke-linejoin: round; stroke-width: 5;" /><path d="M183,334L183,334L184,337L184,337L185,339" fill="none" stroke="#000000" style="-webkit-tap-highlight-color: rgba(0, 0, 0, 0); stroke-linecap: round; stroke-linejoin: round; stroke-width: 5;" /><path d="M203,206" fill="none" stroke="#000000" style="-webkit-tap-highlight-color: rgba(0, 0, 0, 0); stroke-linecap: round; stroke-linejoin: round; stroke-width: 5;" /><path d="M183,336" fill="none" stroke="#000000" style="-webkit-tap-highlight-color: rgba(0, 0, 0, 0); stroke-linecap: round; stroke-linejoin: round; stroke-width: 5;" /><path d="M202,226L203,206L202,226L202,226L203,226L203,235L203,230L205,241L204,246L204,247L200,255L204,247L200,257L200,258L200,258L200,258L212,266" fill="none" stroke="#000000" style="-webkit-tap-highlight-color: rgba(0, 0, 0, 0); stroke-linecap: round; stroke-linejoin: round; stroke-width: 5;" /><path d="M212,266L212,266L212,266L208,280L206,281L206,281L206,281L205,283L205,284" fill="none" stroke="#000000" style="-webkit-tap-highlight-color: rgba(0, 0, 0, 0); stroke-linecap: round; stroke-linejoin: round; stroke-width: 5;" /><path d="M276.81,155.59L273,155L271,155L270,156L268,154L268,163L269,159L270,164L270,175L269,179L273,185L273,190L273,193L273,199L273,200" fill="none" stroke="#000000" style="-webkit-tap-highlight-color: rgba(0, 0, 0, 0); stroke-linecap: round; stroke-linejoin: round; stroke-width: 5;" /><path d="M274,203L274,201L274,197L273.19,227.96L273,232L274,235L275,239L272,245L272,249L272,255L272,251L273,259L274,261L272,266L273,264L270,268L270,270L271,274L270,273L270,279L270,280L270,284L268,288L271,291L268,295L271,297L271,299L271,299L274,302L274,304L274,308L274,305L274,309L274,313L273,317L272,315" fill="none" stroke="#000000" style="-webkit-tap-highlight-color: rgba(0, 0, 0, 0); stroke-linecap: round; stroke-linejoin: round; stroke-width: 5;" /><path d="M273,317L271,320L270,321L271,320" fill="none" stroke="#000000" style="-webkit-tap-highlight-color: rgba(0, 0, 0, 0); stroke-linecap: round; stroke-linejoin: round; stroke-width: 5;" /><path d="M95.89,209.87L95,206L98,203L100,203L101,203L105,203L109,203L116,204L121,204L127,204L131,204L138,205L140,205L147,205L144,205L150,205L156,205L163,205L159,205L168,205L172,205L174,205L175,205L181,205L185,205L194,206L192,206L197,206L202,206L203,206L204,206L206,206L208,206L210,206L213,206L215,206L218,206L224,207L228,207L233,204L230,207" fill="none" stroke="#000000" style="-webkit-tap-highlight-color: rgba(0, 0, 0, 0); stroke-linecap: round; stroke-linejoin: round; stroke-width: 5;" /><path d="M235,204L238,205L239,205L241,208L244,207L241,208L246,208L248,208L251,208L250,208L255,208L257,208L259,208L261,208L261,208L266,207L271,209L270,209" fill="none" stroke="#000000" style="-webkit-tap-highlight-color: rgba(0, 0, 0, 0); stroke-linecap: round; stroke-linejoin: round; stroke-width: 5;" /><path d="M220.72,170.06" fill="none" stroke="#000000" style="-webkit-tap-highlight-color: rgba(0, 0, 0, 0); stroke-linecap: round; stroke-linejoin: round; stroke-width: 5;" /><path d="M275,209L276,209L287,201L287,201L287,201L287,201L287,201" fill="none" stroke="#000000" style="-webkit-tap-highlight-color: rgba(0, 0, 0, 0); stroke-linecap: round; stroke-linejoin: round; stroke-width: 5;" /><path d="M216,172L216,174L217,175L217,177L217,179L219,185L218,183" fill="none" stroke="#000000" style="-webkit-tap-highlight-color: rgba(0, 0, 0, 0); stroke-linecap: round; stroke-linejoin: round; stroke-width: 5;" /><path d="M221,187L221,190L223,195L223,195L223,196L223,195L186.35,166.45L181,167L183,167L180,169L181,169L184,171L188,172L195,172L199,171L204,172L209,172L215,172L215,172L219,169L217,169" fill="none" stroke="#000000" style="-webkit-tap-highlight-color: rgba(0, 0, 0, 0); stroke-linecap: round; stroke-linejoin: round; stroke-width: 5;" /><path d="M221,170L223,170L223,170L224,171L177.3,175.49L174,172L172,172L171,174L171,174L170,178L170,181L171,185L169,186" fill="none" stroke="#000000" style="-webkit-tap-highlight-color: rgba(0, 0, 0, 0); stroke-linecap: round; stroke-linejoin: round; stroke-width: 5;" /><path d="M169,190L170,191L170,191L170,191L169,190L171.87,180.92L173,186L173,186L172,185L170,187L172,188L169,190L165,190L165,192L160,191L157,194L151,192L150,192L144,197L142,197L137,194L137,196" fill="none" stroke="#000000" style="-webkit-tap-highlight-color: rgba(0, 0, 0, 0); stroke-linecap: round; stroke-linejoin: round; stroke-width: 5;" /><path d="M134,199L136,197L130,193L126,200L117.6,195.39L126,200L123,202L126,200L114,194L112,193L109,193L105,192L105,192L104,191L104,191" fill="none" stroke="#000000" style="-webkit-tap-highlight-color: rgba(0, 0, 0, 0); stroke-linecap: round; stroke-linejoin: round; stroke-width: 5;" /><path d="M104,191L105,188L101,183L103,177L117.6,175.49L106,175L109,169L111,166L112,166L114,165L115,165L116,170L116,171L129,174L120,174L139,174L152,171" fill="none" stroke="#000000" style="-webkit-tap-highlight-color: rgba(0, 0, 0, 0); stroke-linecap: round; stroke-linejoin: round; stroke-width: 5;" /><path d="M165,172L161,173L168,171L170,172L172,172L171,174L171,174L171,174L168,174" fill="none" stroke="#000000" style="-webkit-tap-highlight-color: rgba(0, 0, 0, 0); stroke-linecap: round; stroke-linejoin: round; stroke-width: 5;" /><path d="M772.52,470.39" fill="none" stroke="#000000" style="-webkit-tap-highlight-color: rgba(0, 0, 0, 0); stroke-linecap: round; stroke-linejoin: round; stroke-width: 5;" /><path d="M787,463.15L776,462L776,469L782,471L785,458L789,467L791,459L790,458L785,458L785,458L783,457L776,459L776,459L776,459L774,459L773,460L765,454L773,460L765,454L762,454L751,455L755,455L745,456L740,455L737,456L733,457L731,458L729,459L727,461L725,466L725,466L742,478L754,476L738,476L755,477L758,481L767,480L762,481L774,478L785,475L779,478L791,474L794,473L798,472L798,474L795,469L796,470L794,469L791,467L791,459L791,459" fill="none" stroke="#000000" style="-webkit-tap-highlight-color: rgba(0, 0, 0, 0); stroke-linecap: round; stroke-linejoin: round; stroke-width: 5;" /><path d="M791,459L785,458L790,458L785,458L791,459L789,467L789,467L791,459L791,467" fill="none" stroke="#000000" style="-webkit-tap-highlight-color: rgba(0, 0, 0, 0); stroke-linecap: round; stroke-linejoin: round; stroke-width: 5;" /><path d="M872.03,416.11L871,412L873,411L870,411L869,413L867,414L867,415L865,415L861,414L858,414L856,414L852,416L849,416L841,416L839,416L836,416L832,416L834,416L830,416L830,416L825,418L826,416L824,419L824,419L824,419L820,422L819,427L827,418L827,418L827,418L839,431L843,432L859,438L859,438L847,434L859,438L859,438L865,439L861,438L868,438L872,438L870,437L876,438L879,438" fill="none" stroke="#000000" style="-webkit-tap-highlight-color: rgba(0, 0, 0, 0); stroke-linecap: round; stroke-linejoin: round; stroke-width: 5;" /><path d="M883,438L887,431L884,438L890,430L890,429L891,427L890,430L890,425L890,421L888,421L890,423L888,421L883,420L874,418L879,421L876,419L872,418L869,418L868,418L868,420" fill="none" stroke="#000000" style="-webkit-tap-highlight-color: rgba(0, 0, 0, 0); stroke-linecap: round; stroke-linejoin: round; stroke-width: 5;" /><path d="M725.48,463.15L722,463L722,464L724,467L724,470L723,479L724,475L724,472L724,483L724,488L724,485L725,494L725,495L725,498L725,503L725,507L725,508L726,514L725,512L726,516" fill="none" stroke="#000000" style="-webkit-tap-highlight-color: rgba(0, 0, 0, 0); stroke-linecap: round; stroke-linejoin: round; stroke-width: 5;" /><path d="M726,517" fill="none" stroke="#000000" style="-webkit-tap-highlight-color: rgba(0, 0, 0, 0); stroke-linecap: round; stroke-linejoin: round; stroke-width: 5;" /><path d="M799.66,472.2" fill="none" stroke="#000000" style="-webkit-tap-highlight-color: rgba(0, 0, 0, 0); stroke-linecap: round; stroke-linejoin: round; stroke-width: 5;" /><path d="M729,520L729,521L729,523" fill="none" stroke="#000000" style="-webkit-tap-highlight-color: rgba(0, 0, 0, 0); stroke-linecap: round; stroke-linejoin: round; stroke-width: 5;" /><path d="M800,468L800,467L800,464L798,468L796,470L792,474L790,486L790,486L789,508L788,501L789,498" fill="none" stroke="#000000" style="-webkit-tap-highlight-color: rgba(0, 0, 0, 0); stroke-linecap: round; stroke-linejoin: round; stroke-width: 5;" /><path d="M789,512L788,513L791,514L791,514L791,514" fill="none" stroke="#000000" style="-webkit-tap-highlight-color: rgba(0, 0, 0, 0); stroke-linecap: round; stroke-linejoin: round; stroke-width: 5;" /><path d="M826.8,430.59L819,427L820,422L824,419L820,422L823,419L819,425L818,431L818,437L817,447L816,453L815,461L813,464L813,474L813,478L813,481L812,483L812,487L812,488L812,485" fill="none" stroke="#000000" style="-webkit-tap-highlight-color: rgba(0, 0, 0, 0); stroke-linecap: round; stroke-linejoin: round; stroke-width: 5;" /><path d="M812,488L813,491L816,494L816,494L822,494" fill="none" stroke="#000000" style="-webkit-tap-highlight-color: rgba(0, 0, 0, 0); stroke-linecap: round; stroke-linejoin: round; stroke-width: 5;" /><path d="M873.84,426.97L872,434L872,432L873,449L872,439L870,464L870,458L870,470L871,476" fill="none" stroke="#000000" style="-webkit-tap-highlight-color: rgba(0, 0, 0, 0); stroke-linecap: round; stroke-linejoin: round; stroke-width: 5;" /><path d="M869,481L868,485L868,490L868,494L862,498L862,499L861,498L860,502L861,498L862,499" fill="none" stroke="#000000" style="-webkit-tap-highlight-color: rgba(0, 0, 0, 0); stroke-linecap: round; stroke-linejoin: round; stroke-width: 5;" /><path d="M835.84,233.39L837,231L836,226L836,234L837,241L837,246L836,253" fill="none" stroke="#000000" style="-webkit-tap-highlight-color: rgba(0, 0, 0, 0); stroke-linecap: round; stroke-linejoin: round; stroke-width: 5;" /><path d="M836,259L836,261L836,259L836,262L846.7,227.96L846,232L842,232L842,233L840,233L840,239L840,235L844,248L842,244" fill="none" stroke="#000000" style="-webkit-tap-highlight-color: rgba(0, 0, 0, 0); stroke-linecap: round; stroke-linejoin: round; stroke-width: 5;" /><path d="M847,257L845,253L845,262L847,261L843,261L852.13,229.77L852,241L852,235L852,246L854,250" fill="none" stroke="#000000" style="-webkit-tap-highlight-color: rgba(0, 0, 0, 0); stroke-linecap: round; stroke-linejoin: round; stroke-width: 5;" /><path d="M853,257L853,259L853,261L851,261L857.55,233.39L851,257L858,235L858,237L856,239L856,242L856,246L855,251" fill="none" stroke="#000000" style="-webkit-tap-highlight-color: rgba(0, 0, 0, 0); stroke-linecap: round; stroke-linejoin: round; stroke-width: 5;" /><path d="M855,257L855,255L855,259L855,261L856,262L862.98,231.58L861,235L862,237L860,242L863,250" fill="none" stroke="#000000" style="-webkit-tap-highlight-color: rgba(0, 0, 0, 0); stroke-linecap: round; stroke-linejoin: round; stroke-width: 5;" /><path d="M865,259L864,255L865,261L862,263L886.5,237L887,233L887,240L886,251L886,246" fill="none" stroke="#000000" style="-webkit-tap-highlight-color: rgba(0, 0, 0, 0); stroke-linecap: round; stroke-linejoin: round; stroke-width: 5;" /><path d="M886,262L886,257L886,266L885,270L885,268L899.17,235.19L895,241L895,250L895,244L896,257L896,262" fill="none" stroke="#000000" style="-webkit-tap-highlight-color: rgba(0, 0, 0, 0); stroke-linecap: round; stroke-linejoin: round; stroke-width: 5;" /><path d="M896,270L896,268L896,270L896,266L902.78,240.62L901,248L902,253L900,261L900,266" fill="none" stroke="#000000" style="-webkit-tap-highlight-color: rgba(0, 0, 0, 0); stroke-linecap: round; stroke-linejoin: round; stroke-width: 5;" /><path d="M899,270L897,275L896,270L911.83,235.19L907,235L908,237L907,241L907,246" fill="none" stroke="#000000" style="-webkit-tap-highlight-color: rgba(0, 0, 0, 0); stroke-linecap: round; stroke-linejoin: round; stroke-width: 5;" /><path d="M906,255L907,250L910,259L910,261L910,262" fill="none" stroke="#000000" style="-webkit-tap-highlight-color: rgba(0, 0, 0, 0); stroke-linecap: round; stroke-linejoin: round; stroke-width: 5;" /><path d="M663.97,162.83L663,168L663,174L663,179L660,184L660,185" fill="none" stroke="#000000" style="-webkit-tap-highlight-color: rgba(0, 0, 0, 0); stroke-linecap: round; stroke-linejoin: round; stroke-width: 5;" /><path d="M659,189L661,190L662,190L662,186L676.64,164.64L674,170L666,166L674,170L673,175L673,172L675,181L674,185L675,191L675,191" fill="none" stroke="#000000" style="-webkit-tap-highlight-color: rgba(0, 0, 0, 0); stroke-linecap: round; stroke-linejoin: round; stroke-width: 5;" /><path d="M673,194L673,189L676,186L680,181L683.87,166.45L681,163L681,168L680,175" fill="none" stroke="#000000" style="-webkit-tap-highlight-color: rgba(0, 0, 0, 0); stroke-linecap: round; stroke-linejoin: round; stroke-width: 5;" /><path d="M680,181L681,185L681,186L681,185" fill="none" stroke="#000000" style="-webkit-tap-highlight-color: rgba(0, 0, 0, 0); stroke-linecap: round; stroke-linejoin: round; stroke-width: 5;" /><path d="M459.53,144.73L461,141L461,139L461,139L461,139L461,141L449,151L454,152L455,157L462,165" fill="none" stroke="#000000" style="-webkit-tap-highlight-color: rgba(0, 0, 0, 0); stroke-linecap: round; stroke-linejoin: round; stroke-width: 5;" /><path d="M460,170L460,175L461,178L460,175L477.63,146.54L460,172L475,147L473,147L475,152L475,157L478,165" fill="none" stroke="#000000" style="-webkit-tap-highlight-color: rgba(0, 0, 0, 0); stroke-linecap: round; stroke-linejoin: round; stroke-width: 5;" /><path d="M479,174L480,170L479,175L479,174L480,168L490.29,146.54L494,146L495,147L495,150L495,156L499,161L499,166" fill="none" stroke="#000000" style="-webkit-tap-highlight-color: rgba(0, 0, 0, 0); stroke-linecap: round; stroke-linejoin: round; stroke-width: 5;" /><path d="M499,170L499,174L494,173L496,171L496,170L506.57,142.93L504,145L503,150L503,156L503,161L503,166" fill="none" stroke="#000000" style="-webkit-tap-highlight-color: rgba(0, 0, 0, 0); stroke-linecap: round; stroke-linejoin: round; stroke-width: 5;" /><path d="M501,172L502,174L500,175L502,174L508.38,146.54L503,154L504,147L503,161" fill="none" stroke="#000000" style="-webkit-tap-highlight-color: rgba(0, 0, 0, 0); stroke-linecap: round; stroke-linejoin: round; stroke-width: 5;" /><path d="M508,170L508,173L508,178L507,179L508,178" fill="none" stroke="#000000" style="-webkit-tap-highlight-color: rgba(0, 0, 0, 0); stroke-linecap: round; stroke-linejoin: round; stroke-width: 5;" /><path d="M412.49,155.59L416,153L417,157L418,160L421,172" fill="none" stroke="#000000" style="-webkit-tap-highlight-color: rgba(0, 0, 0, 0); stroke-linecap: round; stroke-linejoin: round; stroke-width: 5;" /><path d="M420,177L420,180L419,183L420,180L430.59,161.02" fill="none" stroke="#000000" style="-webkit-tap-highlight-color: rgba(0, 0, 0, 0); stroke-linecap: round; stroke-linejoin: round; stroke-width: 5;" /><path d="M434,174L432,168L434,172L441.44,153.78L434,177L441,151L440,156L440,154L437,160" fill="none" stroke="#000000" style="-webkit-tap-highlight-color: rgba(0, 0, 0, 0); stroke-linecap: round; stroke-linejoin: round; stroke-width: 5;" /><path d="M444,168L444,172L442,174L442,175" fill="none" stroke="#000000" style="-webkit-tap-highlight-color: rgba(0, 0, 0, 0); stroke-linecap: round; stroke-linejoin: round; stroke-width: 5;" /><path d="M510.19,211.67L508,206L507,208L508,203L509,203L512,205L512,205L512,205L513.81,220.72L509,219L510,216L508,215L508,213L508,216L508,219L507,224L510,224L509,228L509,230L507,232L508,238L508,245L508,243L508,250L508,255L508,250L508,258L508,262L510,271L510,268L513,275L513,277L513,278L514,281L515,284L515,288L515,291L515,294L516,300L516,297L514,305L514,303" fill="none" stroke="#000000" style="-webkit-tap-highlight-color: rgba(0, 0, 0, 0); stroke-linecap: round; stroke-linejoin: round; stroke-width: 5;" /><path d="M514,311L515,309L513,315L513,316L514,320L508,322L508,327L508,326L508,333L508,329L510,336L510,337L510,337L510,342L510,340L512,343" fill="none" stroke="#000000" style="-webkit-tap-highlight-color: rgba(0, 0, 0, 0); stroke-linecap: round; stroke-linejoin: round; stroke-width: 5;" /><path d="M530.09,193.58" fill="none" stroke="#000000" style="-webkit-tap-highlight-color: rgba(0, 0, 0, 0); stroke-linecap: round; stroke-linejoin: round; stroke-width: 5;" /><path d="M512,344L514,344L514,342L513,337" fill="none" stroke="#000000" style="-webkit-tap-highlight-color: rgba(0, 0, 0, 0); stroke-linecap: round; stroke-linejoin: round; stroke-width: 5;" /><path d="M529,196L528,196L528,198L528,196L529,199L529,199L531,211L528,212L528,212L528,219L528,215L529,225L529,228L527,232L528,236L528,241L528,243L529,249L528,250L529,253L530,257L529,261L530,262L530,270L530,266L530,270L528,272L528,276L527,278L528,283L528,281L526,286L526,288L525,291L525,293L525,297L525,298L525,300L525,306L525,306L524,308L524,309L525,312L524,316L524,317L524,318L525,319" fill="none" stroke="#000000" style="-webkit-tap-highlight-color: rgba(0, 0, 0, 0); stroke-linecap: round; stroke-linejoin: round; stroke-width: 5;" /><path d="M525,319L523,331L523,331L523,331L525,331L523,331L522,335L525,339L525,340" fill="none" stroke="#000000" style="-webkit-tap-highlight-color: rgba(0, 0, 0, 0); stroke-linecap: round; stroke-linejoin: round; stroke-width: 5;" /><path d="M539.14,211.67" fill="none" stroke="#000000" style="-webkit-tap-highlight-color: rgba(0, 0, 0, 0); stroke-linecap: round; stroke-linejoin: round; stroke-width: 5;" /><path d="M525,339L525,339L522,335" fill="none" stroke="#000000" style="-webkit-tap-highlight-color: rgba(0, 0, 0, 0); stroke-linecap: round; stroke-linejoin: round; stroke-width: 5;" /><path d="M536,212L536,212L534,212L532,212L532,212L532,214L531,217L535,221L535,226L537,232L538,238L538,243L541,248L540,250L540,256L540,260L539,270L540,264L540,265L540,273L540,280L540,277L540,281L540,281L547,288L540,299L547,290L540,299L539,300L540,299L539,308L540,309L537,313L540,309L539,317L539,317" fill="none" stroke="#000000" style="-webkit-tap-highlight-color: rgba(0, 0, 0, 0); stroke-linecap: round; stroke-linejoin: round; stroke-width: 5;" /><path d="M539,323L540,322L539,326L539,327L540,320L539,326L538,329L539,331" fill="none" stroke="#000000" style="-webkit-tap-highlight-color: rgba(0, 0, 0, 0); stroke-linecap: round; stroke-linejoin: round; stroke-width: 5;" /><path d="M548.18,211.67L542,217L548,228L549,221L550,234L551,243L552,256L549,252L552,260L552,268L552,274L552,279L553,281L552,284L552,288L552,288L552,293L552,295L552,297L552,300L552,307L552,305" fill="none" stroke="#000000" style="-webkit-tap-highlight-color: rgba(0, 0, 0, 0); stroke-linecap: round; stroke-linejoin: round; stroke-width: 5;" /><path d="M552,310L551,314L552,315L551,316L550,317L550,317L552,326L552,326" fill="none" stroke="#000000" style="-webkit-tap-highlight-color: rgba(0, 0, 0, 0); stroke-linecap: round; stroke-linejoin: round; stroke-width: 5;" /><path d="M573.51,213.48" fill="none" stroke="#000000" style="-webkit-tap-highlight-color: rgba(0, 0, 0, 0); stroke-linecap: round; stroke-linejoin: round; stroke-width: 5;" /><path d="M550,327L550,327L550,327L551,327" fill="none" stroke="#000000" style="-webkit-tap-highlight-color: rgba(0, 0, 0, 0); stroke-linecap: round; stroke-linejoin: round; stroke-width: 5;" /><path d="M570,216L568,215L570,216L571,222L572,224L573,233L571,241L571,242L571,250L571,259L571,276L578,270L578,264L570,279L570,281L569,282L578,289L578,291L578,297L568,302L569,304L569,306L569,310L569,313L569,315L569,311L569,317L569,318L569,322L569,320L569,324" fill="none" stroke="#000000" style="-webkit-tap-highlight-color: rgba(0, 0, 0, 0); stroke-linecap: round; stroke-linejoin: round; stroke-width: 5;" /><path d="M569,324L577,322L577,320" fill="none" stroke="#000000" style="-webkit-tap-highlight-color: rgba(0, 0, 0, 0); stroke-linecap: round; stroke-linejoin: round; stroke-width: 5;" /><path d="M597.03,220.72L593,221L593,223L592,226L591,233L596,248L593,241L596,255L601,260L602,270L597,267L602,271L601,277L601,280L601,291L601,284L601,288L601,295L602,297L602,297L602,303L602,303L602,303L590,309L590,311L590,317L590,313" fill="none" stroke="#000000" style="-webkit-tap-highlight-color: rgba(0, 0, 0, 0); stroke-linecap: round; stroke-linejoin: round; stroke-width: 5;" /><path d="M590,318L600,320L600,324L594,330L594,330L594,330L595,331L595,333L595,331L594,330L594,330" fill="none" stroke="#000000" style="-webkit-tap-highlight-color: rgba(0, 0, 0, 0); stroke-linecap: round; stroke-linejoin: round; stroke-width: 5;" /><path d="M316.61,182.73L311,177L310,175L309,175L308,174L306,173L308,178L309,183L308,179L309,185L309,188L310,197L309,191L310,203L310,208L310,212L313,221L310,217L314,226L313,230L314,233L314,235L317,239L318,241L317,245L317,244L318,241L315,250L315,251L315,255L315,262L315,259L315,266L317,279L317,275L317,270L317,282L317,285L315,293L316,288L315,295L315,296L315,295L315,300L315,300L316,308L315,300L314,304L317,309" fill="none" stroke="#000000" style="-webkit-tap-highlight-color: rgba(0, 0, 0, 0); stroke-linecap: round; stroke-linejoin: round; stroke-width: 5;" /><path d="M317,309L317,311L317,312L316,313L315,319L315,319L315,320L315,320" fill="none" stroke="#000000" style="-webkit-tap-highlight-color: rgba(0, 0, 0, 0); stroke-linecap: round; stroke-linejoin: round; stroke-width: 5;" /><path d="M331.08,188.16" fill="none" stroke="#000000" style="-webkit-tap-highlight-color: rgba(0, 0, 0, 0); stroke-linecap: round; stroke-linejoin: round; stroke-width: 5;" /><path d="M315,319L315,320" fill="none" stroke="#000000" style="-webkit-tap-highlight-color: rgba(0, 0, 0, 0); stroke-linecap: round; stroke-linejoin: round; stroke-width: 5;" /><path d="M326,188L326,188L326,192L326,195L326,199L326,203L326,213L326,215L327,223L327,230L327,240L327,246L327,237L329,249L328,253L331,259L329,258L331,261L329,262L333,269L333,267L333,273L333,282L333,280L333,276L332,284L333,288L332,293L331,289L331,294" fill="none" stroke="#000000" style="-webkit-tap-highlight-color: rgba(0, 0, 0, 0); stroke-linecap: round; stroke-linejoin: round; stroke-width: 5;" /><path d="M328,296L332,295L328,296L334,308L331,310L334,308L334,308L337,307" fill="none" stroke="#000000" style="-webkit-tap-highlight-color: rgba(0, 0, 0, 0); stroke-linecap: round; stroke-linejoin: round; stroke-width: 5;" /><path d="M358.22,177.3L352,180L352,180L353,181L353,183L353,187L355,197L353,194L355,199L356,203L356,210L359,215L359,221L358,222L356,228L357,232L357,237L357,233L357,239L358,241L358,246L356,250L356,257L355,253L355,261L355,262L357,270L357,265L357,273L357,276L357,282L357,279" fill="none" stroke="#000000" style="-webkit-tap-highlight-color: rgba(0, 0, 0, 0); stroke-linecap: round; stroke-linejoin: round; stroke-width: 5;" /><path d="M357,285L357,289L356,292L356,291L357,295L357,296L358,299L358,300L358,308L358,306L358,302L358,311" fill="none" stroke="#000000" style="-webkit-tap-highlight-color: rgba(0, 0, 0, 0); stroke-linecap: round; stroke-linejoin: round; stroke-width: 5;" /><path d="M363.65,184.54" fill="none" stroke="#000000" style="-webkit-tap-highlight-color: rgba(0, 0, 0, 0); stroke-linecap: round; stroke-linejoin: round; stroke-width: 5;" /><path d="M356,317L357,316L358,315L356,317L356,317L356,317L357,316L358,315" fill="none" stroke="#000000" style="-webkit-tap-highlight-color: rgba(0, 0, 0, 0); stroke-linecap: round; stroke-linejoin: round; stroke-width: 5;" /><path d="M358,185L358,185L369,190L358,185L368,197L369,190L369,203L369,210L371,215L373,223L373,230L373,235L373,240L373,246L372,249L373,254L373,262L372,259L373,267L374,270L374,270L373,277L373,279L374,281" fill="none" stroke="#000000" style="-webkit-tap-highlight-color: rgba(0, 0, 0, 0); stroke-linecap: round; stroke-linejoin: round; stroke-width: 5;" /><path d="M373,285L373,285L371,288L371,288L371,291L372,293L371,296L371,296L370,300L371,302L372,304L374,306L374,306L374,306L372,300L373,298" fill="none" stroke="#000000" style="-webkit-tap-highlight-color: rgba(0, 0, 0, 0); stroke-linecap: round; stroke-linejoin: round; stroke-width: 5;" /><path d="M284.04,153.78L280,154L279,156L284,155L281,157L289,156L309,159L300,172L295,157L309,159L320,160L317,160L316,160L324,161L327,162L327,162L337,162L333,161L338,162L343,164L347,164L344,164L353,165L352,165L356,165L358,166" fill="none" stroke="#000000" style="-webkit-tap-highlight-color: rgba(0, 0, 0, 0); stroke-linecap: round; stroke-linejoin: round; stroke-width: 5;" /><path d="M365,166L362,167L364,167L364,167" fill="none" stroke="#000000" style="-webkit-tap-highlight-color: rgba(0, 0, 0, 0); stroke-linecap: round; stroke-linejoin: round; stroke-width: 5;" /><path d="M284.04,180.92" fill="none" stroke="#000000" style="-webkit-tap-highlight-color: rgba(0, 0, 0, 0); stroke-linecap: round; stroke-linejoin: round; stroke-width: 5;" /><path d="M369,171L369,171L369,174L362,167" fill="none" stroke="#000000" style="-webkit-tap-highlight-color: rgba(0, 0, 0, 0); stroke-linecap: round; stroke-linejoin: round; stroke-width: 5;" /><path d="M288,178L288,178L281,171L289,175L291,175L295,179L300,181L304,182L306,182L311,184L326,185L315,188L326,185L332,185L337,185L339,185L344,184L343,184L348,185L351,184" fill="none" stroke="#000000" style="-webkit-tap-highlight-color: rgba(0, 0, 0, 0); stroke-linecap: round; stroke-linejoin: round; stroke-width: 5;" /><path d="M355,184L358,185L358,186L358,186L358,186L369,182L392.59,193.58L389,195L387,194L387,194L387,198L389,204L389,200L392,212L392,215L394,220L394,222L394,230L393,233L396,237L395,241L396,244L395,248L395,250L396,253L395,257L396,261L394,264L393,268L395,273L394,271" fill="none" stroke="#000000" style="-webkit-tap-highlight-color: rgba(0, 0, 0, 0); stroke-linecap: round; stroke-linejoin: round; stroke-width: 5;" /><path d="M394,277L395,280L395,286L395,289L396,295L395,298L395,300L395,302" fill="none" stroke="#000000" style="-webkit-tap-highlight-color: rgba(0, 0, 0, 0); stroke-linecap: round; stroke-linejoin: round; stroke-width: 5;" /><path d="M414.3,197.2" fill="none" stroke="#000000" style="-webkit-tap-highlight-color: rgba(0, 0, 0, 0); stroke-linecap: round; stroke-linejoin: round; stroke-width: 5;" /><path d="M395,303L395,306L396,315L395,309L395,311L396,319L395,321L395,321L395,321L395,321L395,321L395,321L396,319" fill="none" stroke="#000000" style="-webkit-tap-highlight-color: rgba(0, 0, 0, 0); stroke-linecap: round; stroke-linejoin: round; stroke-width: 5;" /><path d="M412,196L408,194L408,194L408,197L408,203L412,229L407,212L411,220L411,216L412,249L412,240L411,260L412,254L411,265L411,272L411,272L411,276L411,282L411,279L411,287" fill="none" stroke="#000000" style="-webkit-tap-highlight-color: rgba(0, 0, 0, 0); stroke-linecap: round; stroke-linejoin: round; stroke-width: 5;" /><path d="M411,284L412,288L407,290L407,290L419,301L419,301L396,305L396,305L396,304L396,305L396,313L396,315L396,315L396,319L396,319L396,319" fill="none" stroke="#000000" style="-webkit-tap-highlight-color: rgba(0, 0, 0, 0); stroke-linecap: round; stroke-linejoin: round; stroke-width: 5;" /><path d="M0,428.78" fill="none" stroke="#000000" style="-webkit-tap-highlight-color: rgba(0, 0, 0, 0); stroke-linecap: round; stroke-linejoin: round; stroke-width: 5;" /><path d="M12.66,358.22L17,357L25,355L22,356L29,355L33,358L34,358L34,358L38,355L39,355L42,355L43,355L44,355L51,354L49,354L49,354L54,353L59,353L60,353L55,353L62,353L65,355L67,355L63,353L69,354L73,351L69,354L82,355L70,353L83,355L92,351L89,351L92,349L106,345L106,345L106,345L106,345L109,345L117,343L113,345L110,345L121,342L128,341L123,342L127,341L129,340L138,339L132,339L135,339L142,336L142,336L144,338L160,334L160,334L165,333L160,334L161,334L165,333L166,333L166,333L177,332L174,333L177,332L186,327L177,332L186,327L186,327L189,327L190,328L189,327L190,328L204,326L204,327L204,327L206,325L208,325L212,324L210,326L212,324L212,324L220,324L220,324L221,323" fill="none" stroke="#000000" style="-webkit-tap-highlight-color: rgba(0, 0, 0, 0); stroke-linecap: round; stroke-linejoin: round; stroke-width: 5;" /><path d="M226,322L229,321L226,322L222,323L230,320L233,320L234,318L234,318L234,318L244,313L244,313L249,319L250,318L254,316L256,315L253,317" fill="none" stroke="#000000" style="-webkit-tap-highlight-color: rgba(0, 0, 0, 0); stroke-linecap: round; stroke-linejoin: round; stroke-width: 5;" /><path d="M193.58,329.27" fill="none" stroke="#000000" style="-webkit-tap-highlight-color: rgba(0, 0, 0, 0); stroke-linecap: round; stroke-linejoin: round; stroke-width: 5;" /><path d="M259,316L264,315L261,316L263,315L266,315L268,313L268,313L274,313L271,315L274,311L274,311L274,311L274,311L275,307L291,312L291,312L275,307L292,309L294,311L293,309L292,309L301,311L301,311L306,311L310,309" fill="none" stroke="#000000" style="-webkit-tap-highlight-color: rgba(0, 0, 0, 0); stroke-linecap: round; stroke-linejoin: round; stroke-width: 5;" /><path d="M190,322" fill="none" stroke="#000000" style="-webkit-tap-highlight-color: rgba(0, 0, 0, 0); stroke-linecap: round; stroke-linejoin: round; stroke-width: 5;" /><path d="M316,308L314,308" fill="none" stroke="#000000" style="-webkit-tap-highlight-color: rgba(0, 0, 0, 0); stroke-linecap: round; stroke-linejoin: round; stroke-width: 5;" /><path d="M190,328L205,325L190,322L205,325L212,324L221,323L226,322L235,321L249,319L262,322L257,320L251,320L265,322L267,319L275,316L271,320L275,316L275,315L290,314L290,314L293,314L297,313L299,313L304,312L308,311" fill="none" stroke="#000000" style="-webkit-tap-highlight-color: rgba(0, 0, 0, 0); stroke-linecap: round; stroke-linejoin: round; stroke-width: 5;" /><path d="M308,311L316,312L313,311L317,311L317,311L329,311L317,311L329,311L329,311L331,310L333,310L337,310L335,310L341,310L344,309L346,308L350,308L352,308L358,306L369,303L359,304L371,304L371,304L375,306L374,306L375,306L380,306L382,306L378,307L383,306L385,304L387,305L390,306L395,303L396,304L396,304L396,297L396,297L396,297" fill="none" stroke="#000000" style="-webkit-tap-highlight-color: rgba(0, 0, 0, 0); stroke-linecap: round; stroke-linejoin: round; stroke-width: 5;" /><path d="M5.43,430.59" fill="none" stroke="#000000" style="-webkit-tap-highlight-color: rgba(0, 0, 0, 0); stroke-linecap: round; stroke-linejoin: round; stroke-width: 5;" /><path d="M2,438L0,432.4L5,438L7,438L9,438L11,437L14,438L20,438L16,438L22,438L24,435L25,435L29,435L27,435L31,435L34,434L38,434L42,433L45,432L49,432L54,431L52,431L56,431L60,430L62,430L68,428L64,429L73,427L74,427L82,425L78,426L90,421L85,425L89,421L93,420L96,420L98,419L105,421L101,419L114,416L118,419L110,417L107,421L123,414L127,417L130,416L133,415L134,415L136,411L141,409L139,410L148,408L147,412L145,412L143,409L148,408L152,411L154,411L156,410L157,410L161,409L165,402L163,409L169,407L175,405L177,400L172,401L181,400L183,399L186,398L188,398L192,397L194,396L200,395L195,396L201,395L203,394L204,394L206,394L208,394L210,394L215,392L215,392L215,392L217,392L219,392L220,392L223,392L229,389L229,389L230,389L229,389L230,389L238,389L230,389L240,388L242,386L242,386L250,384L244,386L250,384L253,384L260,382L260,382L264,381L264,381L269,380L273,379L273,379L276,377L283,372L278,375L285,371L289,371L289,371L298,373L298,373L304,371L306,371L304,371L304,371L314,369L315,369L321,368L314,369L324,367L326,367L324,367L324,367L327,367L335,365L335,365L335,365L335,365L342,363L342,363L342,363L342,363L355,360L355,360L355,360L355,360L356,360L355,360L363,358L363,358L367,357L367,357L372,356L373,356L375,356L379,355L385,354L389,351L389,351L391,351L394,351L400,350" fill="none" stroke="#000000" style="-webkit-tap-highlight-color: rgba(0, 0, 0, 0); stroke-linecap: round; stroke-linejoin: round; stroke-width: 5;" /><path d="M404,349L405,349L411,347L415,345L419,340L415,345L420,340L423,338L425,338L434,342L426,337L434,342L438,341L446,331L438,341L446,331L451,334L456,334L454,332L451,334L460,330L461,330L462,330L465,329L467,329L470,329L472,329L469,329L474,329L479,337L474,329L479,337L483,337L485,337L488,336L487,327L493,328L494,328L494,328L493,328L494,328L499,334L508,327L500,321L508,327L508,327L508,329L508,327L508,329L508,329" fill="none" stroke="#000000" style="-webkit-tap-highlight-color: rgba(0, 0, 0, 0); stroke-linecap: round; stroke-linejoin: round; stroke-width: 5;" /><path d="M14.47,475.82L13,472L11,472L11,472L11,472L11,472L12,462L14,462L18,461L25,461L28,460L33,458L36,458L40,456L47,457L54,457L62,455L67,455L71,458L74,455L74,454L80,452L86,450L77,451L90,450L94,448L93,449L99,448L100,449L101,446L107,444L104,447" fill="none" stroke="#000000" style="-webkit-tap-highlight-color: rgba(0, 0, 0, 0); stroke-linecap: round; stroke-linejoin: round; stroke-width: 5;" /><path d="M111,443L112,442L115,441L119,439L124,438L127,436L126,434L128,435L117.6,443.25L123,439L121,440L125,437L131,438L138,436L133,437L143,432L148,431L148,431L153,429L157,429L161,429L165,428L166,425L175,424L180,422L194,415L185,420L191,418L197,415L199,416L202,413L205,414L206,413L211,414L213,412L212,412L216,413L223,412L219,413L228,410L227,412L232,411L241,409L236,411L245,407L253,405L251,407L247,407L257,404L265,402L261,402L258,404L264,402L276,403L270,403L270,403L276,403L281,402L290,402L293,402L284,402L299,400L318,393L304,397L313,397L327,389L336,385L340,384L330,388L342,381L346,384L351,381L350,382L355,378L353,379L357,379L355,378L364,376L362,377L360,377L365,376L370,376L371,374L373,376L366,376L376,374L376,374L380,371L378,370L382,371L385,368L388,366L384,368L392,367L389,366L391,366L396,365L398,364L408,364L405,367L405,367L410,365L414,363L417,362L420,361L426,360L423,361L429,359L431,359L438,361L432,359L434,361L440,358L445,358L443,359L447,358L450,356L454,356L450,356L456,355L452,356L461,354L458,355L463,355L460,354L466,354L470,352L469,353L467,354L472,353L474,352L478,352L476,353L479,352L485,351L481,350L483,351L491,348L490,349L487,352L488,349L499,348L499,348L493,347L496,349L502,345L505,347L507,345L503,345L511,346L511,346L508,346L515,346L516,345L519,347L517,345L519,347L524,346L528,342L524,346L527,342L532,347L534,340L529,342L536,340L539,342L540,341L543,343L539,342L547,342L544,343" fill="none" stroke="#000000" style="-webkit-tap-highlight-color: rgba(0, 0, 0, 0); stroke-linecap: round; stroke-linejoin: round; stroke-width: 5;" /><path d="M548,341L546,338L550,340L555,339L552,339L554,340L557,340L563,337L562,338L558,338L565,338L572,337L568,336L570,337L574,337L575,337L581,334L578,333L584,333L586,330L584,333L588,331L588,331L592,330L593,330L595,331L599,332L602,330L605,331L608,330L612,330L615,328L614,328L617,328L619,328L622,328L621,328L624,327L627,327L630,327L628,327L631,327L633,325L632,326L637,325L636,326L640,324L639,325L644,323L642,323L646,322L645,324L646,319" fill="none" stroke="#000000" style="-webkit-tap-highlight-color: rgba(0, 0, 0, 0); stroke-linecap: round; stroke-linejoin: round; stroke-width: 5;" /><path d="M593.41,323.84L590,318L590,318L590,318L601,317L590,317L601,317L611,311L617,310L621,308L630,306L633,306L637,306L640,307L645,309L642,307L648,308L645,309L649,309L653,307L657,311L659,310L662,310L669,309L664,310L668,309L673,308L675,308L676,308L678,307L680,307L684,306L680,307L684,306L685,306L689,305L692,305L685,306L693,306L697,304L695,306L698,304L700,303L701,301L701,301L708,304L709,301L710,300L710,299" fill="none" stroke="#000000" style="-webkit-tap-highlight-color: rgba(0, 0, 0, 0); stroke-linecap: round; stroke-linejoin: round; stroke-width: 5;" /><path d="M712,299L716,299L716,297L716,297L716,300L716,299L713,302L710,304L691.11,309.37L691,304L695,301L697,300L704,296L709,296L716,297L722,295L726,297L734,297L738,296L745,295L751,292L756,293L766,290L761,293L773,290L782,289L785,289L778,291L791,288L794,288L800,287L803,288L808,288L813,288L818,290L822,291L825,291L830,294L829,290L834,293L838,293L845,293L840,293L851,293L849,293L854,291L858,292L859,289L863,288L868,289L866,288" fill="none" stroke="#000000" style="-webkit-tap-highlight-color: rgba(0, 0, 0, 0); stroke-linecap: round; stroke-linejoin: round; stroke-width: 5;" /><path d="M874,286L872,286L877,285L881,284L888,283L891,284L885,284L887,283L908,284L905,284L893,284L899,284" fill="none" stroke="#000000" style="-webkit-tap-highlight-color: rgba(0, 0, 0, 0); stroke-linecap: round; stroke-linejoin: round; stroke-width: 5;" /><path d="M960.68,296.71L919,284L914,284L923,285L924,285L930,286L927,286L935,286L935,286L939,285L938,286L941,288L944,288L946,287L948,288L949,289L953,289L955,288L953,289L959,295L961,295L958,295L952,294L949,295L943,297L937,296L941,297L931,298L932,297L925,300L928,299L919,301L915,301L912,302L906,304L905,304L901,303L898,303L894,301L893,302L888,299L885,298L881,300L877,297L872,296L864,295L868,298L858,295L854,294L842,296L849,295L834,296L838,296L829,300L824,300L818,301L811,304L803,306L789,308L796,306L783,308L773,308L778,308L763,306L769,307L760,306L756,306L749,306L752,306L745,306L747,306L739,307L742,306L736,308L735,309L729,304L726,305L723,307L720,308L715,309L713,309L709,308L706,310" fill="none" stroke="#000000" style="-webkit-tap-highlight-color: rgba(0, 0, 0, 0); stroke-linecap: round; stroke-linejoin: round; stroke-width: 5;" /><path d="M700,311L702,309L698,311L697,312L695,316L691,315L689,316L682,322L686,318L684,320L679,322L675,323L669,324L669,325L666,325L660,326L662,325L659,327L655,326L653,326L649,327L651,327L649,327L648,329L645,329L644,329L644,330L642,331L640,330L639,330L636,331" fill="none" stroke="#000000" style="-webkit-tap-highlight-color: rgba(0, 0, 0, 0); stroke-linecap: round; stroke-linejoin: round; stroke-width: 5;" /><path d="M861.17,209.87" fill="none" stroke="#000000" style="-webkit-tap-highlight-color: rgba(0, 0, 0, 0); stroke-linecap: round; stroke-linejoin: round; stroke-width: 5;" /><path d="M635,331L633,331L630,330L627,331L624,330L615,330L613,331L619,328L612,330L612,333L612,333L613,333" fill="none" stroke="#000000" style="-webkit-tap-highlight-color: rgba(0, 0, 0, 0); stroke-linecap: round; stroke-linejoin: round; stroke-width: 5;" /><path d="M861,207L863,206L864,203L864,204L864,199L863,190L863,193L867,196L863,187L863,187L863,187L863,187L865,187L870,185L870,185L877,185L874,184L887,183L888,183L883,183L890,183L897,185L892,183L894,185L892,185L899,183L901,181L897,183L901,183" fill="none" stroke="#000000" style="-webkit-tap-highlight-color: rgba(0, 0, 0, 0); stroke-linecap: round; stroke-linejoin: round; stroke-width: 5;" /><path d="M901,193L901,185L901,188L901,197L901,202L900,204L903,209L900,206L905,209L905,209L903,209L901,209L897,212L897,212L896,212L897,213L897,214L897,214L933.54,206.25L897,214L897,214L901,216L901,216L900,227L935,202L935,205L934,213L935,202L937,215L932,235L936,223L935,230L931,241" fill="none" stroke="#000000" style="-webkit-tap-highlight-color: rgba(0, 0, 0, 0); stroke-linecap: round; stroke-linejoin: round; stroke-width: 5;" /><path d="M931,244L930,250L930,248L933,250L948.01,213.48L949,217L944,223L949,233L948,244L947,252" fill="none" stroke="#000000" style="-webkit-tap-highlight-color: rgba(0, 0, 0, 0); stroke-linecap: round; stroke-linejoin: round; stroke-width: 5;" /><path d="M945,261L946,263L946,265L946,268L946,265L948.01,224.34L951,224L951,228" fill="none" stroke="#000000" style="-webkit-tap-highlight-color: rgba(0, 0, 0, 0); stroke-linecap: round; stroke-linejoin: round; stroke-width: 5;" /></svg>