<?xml version="1.0" encoding="utf-8" ?>
<svg baseProfile="full" height="690" version="1.1" width="1024" xmlns="http://www.w3.org/2000/svg" xmlns:ev="http://www.w3.org/2001/xml-events" xmlns:xlink="http://www.w3.org/1999/xlink"><defs /><path d="M85.03,169.16L84,173L85,173L87,172L89,172L90,172L92,171L94,171L94,171L96,171L102,169L100,170L102,169L104,168L107,168L105,168L110,167L110,167L112,166L112,166L118,166L117,166L119,166L122,165L123,165L125,165L127,166L128,166L129,166L132,167L134,167L136,167L137,167L139,167L140,167L140,167L144,170L143,169L147,171L147,171L148,172L150,173L150,174L151,176L154,176L155,174L156,173L157,173L158,171L159,170L160,169L161,167L161,167L162,166L163,165L163,165L165,160L165,158L166,154L168,153L165,156L168,153L170,152L172,151L174,151L175,151L176,151L179,149L179,149L181,148L183,147L190,147L186,145L185,146L188,147L197,145L192,144L194,144L194,144L201,144L203,144L201,144L204,144L208,143L207,143L212,142L213,141L219,141L217,142L221,141L222,142L226,143L226,143L226,143L227,144L234,147L235,147L236,147L235,147L236,147L240,149L240,149L244,149L247,149L250,150L251,150L253,150L256,149L257,149L259,149L260,149L262,150L264,150L266,150L267,151L270,153L272,153L274,154L271,153L277,155L279,155L282,157L280,155L282,158L282,160L284,164L283,162L284,165L284,170L284,165L285,171L287,173L289,175L290,174L291,177L291,177L299,179L300,179L299,179L301,179L307,179L307,179L303,180L307,179L310,180L310,180L310,180L321,179L322,179L321,179L321,179L324,179L326,181L327,181L327,185L327,185L328,185L329,186L331,187L333,187L335,184L333,184L336,183L336,183L333,181L332,180L332,180L336,183L336,183L340,186L337,184L342,186L342,187L342,188L342,187L342,188L342,188L343,198L342,188L351,201L352,201L355,202L355,202L355,202L355,202L355,204L362,211L362,211L364,211L364,211L365,212L365,211L366,213L365,219L367,219L365,219L367,222L369,222L371,223L373,225L375,227L375,229L375,232L377,234L377,231L378,238L378,238L378,238L381,240L384,241L387,242L384,241L389,242L389,242L398,240L394,242L394,242L399,238L400,238L403,238L403,238L405,236L407,235L411,236L409,235L411,236L414,236L415,236L416,237L417,238L420,239L422,239L423,238L422,239L426,240L429,240L431,239L426,240L431,234L434,232L435,234L432,234L436,231L438,230L439,230L440,229L441,227L441,221L441,227L441,227L443,221L445,221L443,221L445,222L447,221L450,221L449,221L450,221L451,222L456,226L452,223L459,227L459,227L465,227L465,227L459,227L466,227L466,227L470,228L476,226L472,228L478,227L476,226L481,227L478,227L487,227L484,226L485,226L487,227L496,228L495,228L495,228L487,227L501,227L499,227L499,227L503,227L509,227L512,227L504,227L510,227L517,227L513,227L516,227L519,227L525,227L521,227L525,227L529,227L531,226L534,226L532,226L534,226L539,227L542,227L546,228L541,227L554,229L546,228L548,228L548,228L554,229L557,229L561,229L559,229L563,229L564,229L570,229L566,229L572,229L575,229L574,229L575,229L581,229L583,229L585,229L584,229L590,229L592,229L596,229L599,229L602,229L606,229L613,229L610,229L622,229L619,229L635,229L626,228L631,229L639,228L644,229L648,229L651,229L655,229L659,229L662,229L666,229L669,229L671,229L678,229L674,229L678,229L682,229L684,229L686,229L689,229L693,229L691,229L695,229L698,229L699,229L705,229L706,229L709,228L711,228L716,226L719,225L716,226L722,224L724,223L726,222L725,223L726,222L728,218L729,217L732,215L732,215L737,213L737,213L743,213L743,213L744,213L745,213L745,213L751,212L749,212L760,218L752,212L760,218L760,216L762,217L760,216L763,212L765,213L767,213L769,213L770,213L773,213L775,212L778,210L775,212L779,209L780,209L782,208L783,207L782,208L786,205L786,205L786,205L786,205L786,205L789,200L790,199L789,200L794,197L794,197L802,203L802,203L802,203L806,198L805,198L805,198L806,200L806,198L807,200L808,201L806,198L814,203L816,203L814,203L816,203L818,203L816,203L820,203L818,203L820,203L820,203L820,203L825,204L830,203L832,203L830,203L830,203L832,203L838,204L838,204L836,204L836,204L838,204L843,206L846,206L845,206L849,207L849,207L849,207L849,207L855,208L860,206L860,206L860,206L861,206L865,205L865,205L869,204L869,204L871,203L872,203L875,203L875,203L878,201L878,201L878,201L881,199L881,199L883,198L883,198L887,197L887,197L885,197L891,197L894,195L896,194L894,195L897,194L899,193L902,192L901,193L905,191L908,190L910,190L905,191L914,190L915,190L917,191L912,190L920,195L919,193L920,196L920,196L920,197L919,199L920,197L919,199L922,208L922,208L925,210L922,208L922,208L923,209L926,211L924,210L930,211L928,211L932,211L934,211L936,212L937,213L939,213L940,214L943,215L944,215L944,216L945,216L949,220L947,218L950,222L952,222L952,224L952,224L952,222L952,224L950,234L950,234L951,236L951,236L951,239L951,239L951,238L950,245L950,245L950,248L950,248L950,247L949,252L949,255L949,258L949,256L949,258L949,260L949,263L949,261L944,267L944,267L944,269L944,269L948,272L948,273L950,275L951,279L950,280L950,280L951,280L951,286L950,285L952,289L951,287L952,290L953,291L951,295L952,296L953,297L954,300L955,299L955,299L956,301L956,301L964,307L956,301L964,307L968,307L970,307L970,307L972,307L975,306L973,307L975,306L979,306L979,306L981,306L977,306L981,306L981,306L986,305L984,305L990,305L988,305L991,305L993,305L999,305L997,305L995,305" fill="none" stroke="#000000" style="-webkit-tap-highlight-color: rgba(0, 0, 0, 0); stroke-linecap: round; stroke-linejoin: round; stroke-width: 5;" /><path d="M1000,305L1002,305L1004,305L1005,305L1005,305L1006,304L1005,305" fill="none" stroke="#000000" style="-webkit-tap-highlight-color: rgba(0, 0, 0, 0); stroke-linecap: round; stroke-linejoin: round; stroke-width: 5;" /><path d="M92.27,169.16L91,171L87,172L87,172L84,173L84,173L82,174L82,174L82,174L80,177L80,177L79,182L79,184L76,195L76,195L76,196L75,198L74,200L73,201L78,201L72,205L72,207L72,209L72,211L72,211L72,211L70,216L69,220L70,224L70,224L70,224L70,227L70,225L70,229L70,231L70,234L70,237L70,238L69,240L70,242L71,244L71,249L71,248L70,254L70,252L70,256L70,258L72,263L71,261L73,269L72,264L73,272L75,276L74,280L74,283L75,289L76,292L77,296L77,299L78,308L80,311L83,318L82,316L80,311L83,318L84,320L85,323L85,325L85,327L85,328L86,333L85,330L86,334L87,336L87,339L87,341L87,343L87,348L87,348L87,350L87,354L87,356L87,359L87,361L87,363L87,363L87,363L87,363L87,363L86,364L104,380L104,380L86,364L92,379L83,366L79,368L90,381L90,383L89,384L89,386L87,390L87,388L85,392L85,393L81,393L83,393L80,393L78,393L76,393L74,393L72,393L80,405L67,395L63,399L65,397L60,401L58,403L52,404L54,404L51,406L47,408L45,408L40,410L43,410" fill="none" stroke="#000000" style="-webkit-tap-highlight-color: rgba(0, 0, 0, 0); stroke-linecap: round; stroke-linejoin: round; stroke-width: 5;" /><path d="M47,422L36,412L34,412L33,413L43,425L31,415L39,427L16,424L16,424L16,424L16,424L16,424L16,424L16,424L16,424L16,424L16,424L10,435L16,424L10,435L10,435L10,437L10,442L10,437L10,442L10,442L10,442L10,442L10,442L10,442" fill="none" stroke="#000000" style="-webkit-tap-highlight-color: rgba(0, 0, 0, 0); stroke-linecap: round; stroke-linejoin: round; stroke-width: 5;" /><path d="M175.49,152.88L172,151L168,153L166,160L166,162L165,165L161,169L158,172L154,176L153,179L153,179L157,194L157,194L156,196L156,196L156,198L156,198L157,209L157,209L157,211L157,213L157,214L158,216L159,218L159,220L159,223L159,223L159,224L159,228L159,229L158,231L158,234L159,238L158,236L159,240L159,242L159,247L159,245L159,248L159,251L159,252L159,254L157,260L157,260L156,261L156,263L156,264L155,267L154,269L154,269L152,274L152,271L151,274L149,275L148,278L147,278L143,280L145,280L138,283L141,280L138,283L136,284L134,285L132,286L129,289L130,288L132,294L129,289L132,294L132,294L128,306L128,306L125,307L128,306L127,307L127,307L129,309L126,312L129,314L130,315L130,320L130,320L130,320L128,323L131,326L129,327L128,327L127,330L127,332L127,334L127,335L128,337L126,341L128,339L125,342L125,345L125,345L126,348L125,350L124,352L123,356L124,354L123,357L121,358L121,361L119,360L119,363L119,363L118,365L113,366L115,365L113,366L108,368L108,368L107,370L107,372L107,372L105,379L105,379L104,380L104,381L105,383L105,384L105,385L105,388L105,390L105,391L106,393L106,395L106,395L103,402L101,403L98,404L92,405L98,404L90,407L90,405L84,408L83,410L80,412L81,412L78,415L77,413L76,415L74,419L74,421L72,423L71,423L68,425L67,426L69,424L66,431L60,436L63,432L60,435L58,439L58,444L57,441L55,448L55,448L54,449L53,451L54,452L54,455L53,456L54,460L54,462L53,464L53,466L52,470L50,468L51,473L51,470" fill="none" stroke="#000000" style="-webkit-tap-highlight-color: rgba(0, 0, 0, 0); stroke-linecap: round; stroke-linejoin: round; stroke-width: 5;" /><path d="M50,479L50,475L47,483L47,483L45,488L45,488L42,493L43,495L43,495L38,501L38,502L38,501L38,504L38,507L38,507L38,509L41,509L40,510L41,513L41,515L41,516L42,518L40,522L39,521L39,526L38,524L36,530L35,531L34,535L34,532L33,538L34,540L34,542L34,546L33,550L33,544L33,551L31,555L31,557L31,562L32,569L29,571L31,564L31,567L27,574L29,571L27,577L27,577" fill="none" stroke="#000000" style="-webkit-tap-highlight-color: rgba(0, 0, 0, 0); stroke-linecap: round; stroke-linejoin: round; stroke-width: 5;" /><path d="M383.55,234.29" fill="none" stroke="#000000" style="-webkit-tap-highlight-color: rgba(0, 0, 0, 0); stroke-linecap: round; stroke-linejoin: round; stroke-width: 5;" /><path d="M27,582L27,580L27,582L26,585L26,587L27,588L27,588L26,587L27,588L27,588L27,588" fill="none" stroke="#000000" style="-webkit-tap-highlight-color: rgba(0, 0, 0, 0); stroke-linecap: round; stroke-linejoin: round; stroke-width: 5;" /><path d="M378,230L378,229L378,227L378,227L378,227L378,227L378,229L377,234L378,230L380,240L376,242L378,252L377,248L376,256L377,260L375,266L376,263L376,271L375,269L374,278L376,275L375,282L374,280L376,285L376,290L376,292L376,294L376,297L376,299L376,305L376,303L376,308L375,314L375,310L376,316L377,318L377,318L376,321L376,323L375,326L376,329L376,327L376,331L378,334L378,338L378,334L380,339L381,341L380,343L380,344L381,345L381,346L381,346L380,352L385,354L385,354L385,356L386,357L387,359L393,361L392,359L394,363L393,361L396,363L397,365L397,366L397,368L398,369L397,376L400,370L397,376L397,377L397,379L399,381L398,382L399,384L398,386L398,387L398,389L398,391L398,393L400,397L398,394L401,398L402,401L402,406L402,405L402,401L403,412L402,407L403,413L401,419L405,425L401,419L402,421L405,425" fill="none" stroke="#000000" style="-webkit-tap-highlight-color: rgba(0, 0, 0, 0); stroke-linecap: round; stroke-linejoin: round; stroke-width: 5;" /><path d="M399,431L399,437L399,432L399,437L399,443L399,443L399,443L408,453L408,453L408,455L408,453L408,456L408,456L408,456L410,467L410,457L414.3,455.01L410,467L411,471L411,469L410,468L412,473L414,477L412,476L412,476L414,480L414,480L415,483L416,482L416,487L416,487L416,491L416,489L413,455L413,455L416,459L416,457L420,463L419,463L420,470L429,476L425,472L429,476L439,475L439,475L443,477L448,480" fill="none" stroke="#000000" style="-webkit-tap-highlight-color: rgba(0, 0, 0, 0); stroke-linecap: round; stroke-linejoin: round; stroke-width: 5;" /><path d="M450,479L456,487L453,484L460,489L461,493L457,506L461,493L454,502L458,507" fill="none" stroke="#000000" style="-webkit-tap-highlight-color: rgba(0, 0, 0, 0); stroke-linecap: round; stroke-linejoin: round; stroke-width: 5;" /><path d="M533.71,487.58" fill="none" stroke="#000000" style="-webkit-tap-highlight-color: rgba(0, 0, 0, 0); stroke-linecap: round; stroke-linejoin: round; stroke-width: 5;" /><path d="M467,510L463,510L467,510L468,511L468,511L468,511L470,515L484,519L484,519L484,519L484,519L485,522L484,526L487,527L487,526L487,527L490,526L491,526" fill="none" stroke="#000000" style="-webkit-tap-highlight-color: rgba(0, 0, 0, 0); stroke-linecap: round; stroke-linejoin: round; stroke-width: 5;" /><path d="M532,489L532,484L530,484L530,484L528,483L529,479L527,473L529,478L528,468L528,465L527,465L528,460L526,457L525,456L523,454L523,452L523,453L523,449L523,448L523,444L522,446L523,441L523,441L521,439L520,437L519,434L516,435L514,431L512,429L516,433L512,429L507,426L507,426L508,426L505,426L502,426L500,430L500,431L501,428" fill="none" stroke="#000000" style="-webkit-tap-highlight-color: rgba(0, 0, 0, 0); stroke-linecap: round; stroke-linejoin: round; stroke-width: 5;" /><path d="M499,439L499,441L499,436L499,444L503,453L503,457L503,451L503,457L503,457L501,464L502,467L507,471L507,471L507,471L507,473L507,471" fill="none" stroke="#000000" style="-webkit-tap-highlight-color: rgba(0, 0, 0, 0); stroke-linecap: round; stroke-linejoin: round; stroke-width: 5;" /><path d="M674.83,474.91" fill="none" stroke="#000000" style="-webkit-tap-highlight-color: rgba(0, 0, 0, 0); stroke-linecap: round; stroke-linejoin: round; stroke-width: 5;" /><path d="M507,475L507,476L508,477L508,481L508,482L508,483L510,484L513,487L516,489L514,489L516,489L524,489L516,489L524,489L524,490" fill="none" stroke="#000000" style="-webkit-tap-highlight-color: rgba(0, 0, 0, 0); stroke-linecap: round; stroke-linejoin: round; stroke-width: 5;" /><path d="M675,477L678,475L677,477L669,479L666,480L655,483L662,481L651,482L648,482L644,483L638,484L635,483L630,483L624,483L622,485L625,484L617,487L617,487L608,486L610,486L606,486L606,486L597,484L601,484L596,484L592,480L590,480L586,481L583,481L579,479L574,480L572,480L567,479L566,480L564,480" fill="none" stroke="#000000" style="-webkit-tap-highlight-color: rgba(0, 0, 0, 0); stroke-linecap: round; stroke-linejoin: round; stroke-width: 5;" /><path d="M561,479L563,479L555,481L557,482L551,482L554,482L547,482L547,482L545,483L543,483L539,482L541,483L536,481L537,481" fill="none" stroke="#000000" style="-webkit-tap-highlight-color: rgba(0, 0, 0, 0); stroke-linecap: round; stroke-linejoin: round; stroke-width: 5;" /><path d="M683.87,471.29" fill="none" stroke="#000000" style="-webkit-tap-highlight-color: rgba(0, 0, 0, 0); stroke-linecap: round; stroke-linejoin: round; stroke-width: 5;" /><path d="M534,481L532,481L530,481L528,483L525,483L526,483L525,483L524,484L516,486L516,488L516,489" fill="none" stroke="#000000" style="-webkit-tap-highlight-color: rgba(0, 0, 0, 0); stroke-linecap: round; stroke-linejoin: round; stroke-width: 5;" /><path d="M677,468L680,468L677,468L677,468L681,471L679,470L684,471L684,473L704,473L689,480L713,475L720,477L733,480L727,479L744,482L738,480L747,482L753,484" fill="none" stroke="#000000" style="-webkit-tap-highlight-color: rgba(0, 0, 0, 0); stroke-linecap: round; stroke-linejoin: round; stroke-width: 5;" /><path d="M758,486L762,488L774,499L774,499L774,499L774,499L776,499L777,499L781,500L781,500L791,505L797,504L797,504L806,489L808,491L807,490L808,491L809,492" fill="none" stroke="#000000" style="-webkit-tap-highlight-color: rgba(0, 0, 0, 0); stroke-linecap: round; stroke-linejoin: round; stroke-width: 5;" /><path d="M797.85,208.96L797,218L797,218L796,221L802,226L807,238L799,251L804,247L802,255L803,256L805,259L805,259L810,277L810,277L799,288L799,288L799,290L800,292L801,298L801,299L800,303L799,308L799,310L802,314L801,319L801,315L803,324L803,324L803,328L805,331L805,333L805,336L803,339L805,350L805,350L805,352L806,357L806,359L806,364L806,371L804,375L805,377L811,383L807,397L807,397L802,407L801,412L800,416L800,422L801,428L800,433L800,435L800,439L799,444L799,444L799,448L799,449L800,453L800,455L800,459L800,461L802,467L802,468L803,471L803,471L806,483L806,483L806,484L806,483L806,486L806,488L806,489L806,489L807,490L809,491L814,493L812,491L811,490L815,494L822,496L822,496L815,495L815,495L822,497L822,497L823,496L825,497L829,496L830,497L835,495L836,495L836,495L841,500L847,494L847,494L848,494" fill="none" stroke="#000000" style="-webkit-tap-highlight-color: rgba(0, 0, 0, 0); stroke-linecap: round; stroke-linejoin: round; stroke-width: 5;" /><path d="M851,493L855,495L865,499L858,495L868,499L875,493L878,491L881,491L882,492L883,493L883,493L897,477L899,477L908,484L913,483L908,484L913,483" fill="none" stroke="#000000" style="-webkit-tap-highlight-color: rgba(0, 0, 0, 0); stroke-linecap: round; stroke-linejoin: round; stroke-width: 5;" /><path d="M953.44,299.42" fill="none" stroke="#000000" style="-webkit-tap-highlight-color: rgba(0, 0, 0, 0); stroke-linecap: round; stroke-linejoin: round; stroke-width: 5;" /><path d="M916,486L930,477L934,477L916,486L936,464L936,464L954,470L954,470L959,468L961,456L962,455L961,456L962,455L962,455L975,460L973,472L973,472L973,472L973,472L988,469L991,471L1003,475L1003,475L1007,482L1007,484L1007,484L1007,484L1007,480L1007,482L1007,477" fill="none" stroke="#000000" style="-webkit-tap-highlight-color: rgba(0, 0, 0, 0); stroke-linecap: round; stroke-linejoin: round; stroke-width: 5;" /><path d="M953,297L952,296L956,294L955,296L956,294L956,301L956,301L962,307L962,307L965,308L959,328L958,327L959,332L959,332L956,348L956,348L956,350L956,352L956,352L955,353L962,366L961,372L961,377L961,383L962,393L961,388L962,404L962,399" fill="none" stroke="#000000" style="-webkit-tap-highlight-color: rgba(0, 0, 0, 0); stroke-linecap: round; stroke-linejoin: round; stroke-width: 5;" /><path d="M962,410L961,415L961,422L961,419L961,428L961,426L961,430L956,441L956,441L956,441L956,441L956,441L956,441L956,441L961,449L960,448L962,450L962,450L962,451L962,450L962,453L962,455L962,455L961,456L961,456L961,469L961,456L961,469L962,470L964,471L965,472L964,471" fill="none" stroke="#000000" style="-webkit-tap-highlight-color: rgba(0, 0, 0, 0); stroke-linecap: round; stroke-linejoin: round; stroke-width: 5;" /><path d="M768.9,230.67" fill="none" stroke="#000000" style="-webkit-tap-highlight-color: rgba(0, 0, 0, 0); stroke-linecap: round; stroke-linejoin: round; stroke-width: 5;" /><path d="M965,472L966,472" fill="none" stroke="#000000" style="-webkit-tap-highlight-color: rgba(0, 0, 0, 0); stroke-linecap: round; stroke-linejoin: round; stroke-width: 5;" /><path d="M762,218L762,218L767,217L767,217L767,217L767,217L767,217L767,213L767,217L767,217L767,231L767,238L767,243L767,261L767,251L767,258L767,263L769,274L769,272L769,269L769,280L769,283L769,287L769,290L769,294L769,299L769,298L769,303L769,307L769,312L769,308L769,316L769,321L769,325L769,330L769,334L769,337L769,341L767,345L767,350L767,346L765,357L765,354L765,365L765,361L765,368L765,372L765,379L765,375L765,384L765,381L765,388L765,390L765,397L765,393L765,403L765,401L765,408L765,412L765,421L765,417L765,430L765,426" fill="none" stroke="#000000" style="-webkit-tap-highlight-color: rgba(0, 0, 0, 0); stroke-linecap: round; stroke-linejoin: round; stroke-width: 5;" /><path d="M765,439L765,433L765,442L765,446L765,450L765,451L763,457L765,455L763,459L763,466L763,460L763,462L765,473L765,471L765,468L765,475L765,480L765,479L765,484L765,488L764,501L764,501L763,504L764,501L763,505L763,505L763,505L763,505L767,501L767,501" fill="none" stroke="#000000" style="-webkit-tap-highlight-color: rgba(0, 0, 0, 0); stroke-linecap: round; stroke-linejoin: round; stroke-width: 5;" /><path d="M401.64,491.19L403,497L403,498L401,508L401,526L402,517L405,535L402,532L405,540L405,544L405,547L405,549L402,551L402,551L396,553L401,551L389,554L394,555L377,556L384,555L373,556L370,555L362,559L360,559L345,563L353,561L337,565L341,565L330,568L330,568L317,585L324,582L311,591L306,594L299,598L293,602L279,611L286,607L262,620L270,616L257,621L250,623L244,625L239,627L235,629L233,631L232,631L230,629L226,627L228,629L224,623L226,625L223,621L221,618L217,614L213,609L206,602L199,596L210,605L203,598L198,582L185,589L198,582L195,594L167,574L181,587L167,574L186,575L161,587L165,587L159,587L167,574L156,587L150,575L151,575L151,575L144,578L141,576L139,576L144,578L133,574L133,574L132,574L130,574L125,576L125,575" fill="none" stroke="#000000" style="-webkit-tap-highlight-color: rgba(0, 0, 0, 0); stroke-linecap: round; stroke-linejoin: round; stroke-width: 5;" /><path d="M119,575L123,575L115,578L112,578L108,580L106,579L102,578L102,578L90,581L90,581L88,582L87,583L81,581L85,583L78,581L76,581L70,582L69,583L64,582L62,583L60,583L56,583L56,583L56,583L56,583L56,583L46,579L45,579L45,579L33,586L45,579L33,586L33,586L33,586L33,586L27,587L26,587L29,586L26,587L26,587L26,587L27,588L26,587L27,588" fill="none" stroke="#000000" style="-webkit-tap-highlight-color: rgba(0, 0, 0, 0); stroke-linecap: round; stroke-linejoin: round; stroke-width: 5;" /><path d="M323.84,281.33L331,279L327,280L334,280L338,279L342,282L342,284L341,287L341,291L341,293L341,302L342,298L341,305L341,308L341,311L340,315L340,315L340,321L340,325L340,325L340,323L341,329L341,329L332,332L332,332L331,332L327,331L321,325L324,329L324,329L321,321L321,323L322,318L322,318L323,314L319,310L318,300" fill="none" stroke="#000000" style="-webkit-tap-highlight-color: rgba(0, 0, 0, 0); stroke-linecap: round; stroke-linejoin: round; stroke-width: 5;" /></svg>