<?xml version="1.0" encoding="utf-8" ?>
<svg baseProfile="full" height="690" version="1.1" width="1024" xmlns="http://www.w3.org/2000/svg" xmlns:ev="http://www.w3.org/2001/xml-events" xmlns:xlink="http://www.w3.org/1999/xlink"><defs /><path d="M80.75,176.17L78.91,172.5L78.91,178.01L78.91,185.35L77.08,189.02L75.24,192.69L75.24,196.36L73.41,205.53L73.41,209.2L73.41,214.71L71.57,218.38L71.57,223.89L71.57,227.56L71.57,233.06L71.57,234.9L71.57,240.4L71.57,244.07L71.57,247.74L71.57,253.25L69.73,256.92L69.73,262.42L69.73,266.09L69.73,271.6L69.73,275.27L69.73,278.94L69.73,284.44L69.73,288.11L71.57,293.62L71.57,297.29L71.57,302.8L71.57,308.3L71.57,311.97L73.41,315.64L73.41,321.15L73.41,324.82L75.24,328.49L77.08,332.16L77.08,335.83L78.91,339.5L78.91,343.17L80.75,345L80.75,348.67L80.75,350.51L80.75,352.34L80.75,354.18L80.75,357.85L80.75,361.52L80.75,363.35L80.75,365.19L80.75,367.03L80.75,370.7L80.75,372.53L80.75,374.37L80.75,376.2L78.91,376.2L78.91,378.04L77.08,378.04L73.41,379.87L71.57,381.71L67.9,383.54L64.23,385.38L60.56,387.21L56.89,389.05L51.38,392.72L45.88,396.39L38.54,401.89L25.69,409.23L20.19,412.9L16.52,416.57L14.68,416.57L14.68,414.74" fill="none" stroke="#000000" style="-webkit-tap-highlight-color: rgba(0, 0, 0, 0); stroke-linecap: round; stroke-linejoin: round; stroke-width: 5;" /><path d="M78.91,176.17L77.08,176.17L75.24,178.01L80.75,178.01L82.58,178.01L86.25,176.17L91.76,174.34L97.26,172.5L100.93,172.5L111.94,170.67L115.61,170.67L121.12,170.67L126.62,170.67L130.29,170.67L133.96,170.67L137.63,172.5L141.3,174.34L144.97,176.17L150.48,176.17L154.15,178.01L155.99,178.01" fill="none" stroke="#000000" style="-webkit-tap-highlight-color: rgba(0, 0, 0, 0); stroke-linecap: round; stroke-linejoin: round; stroke-width: 5;" /><path d="M181.68,155.99L179.84,155.99L178.01,155.99L174.34,157.82L172.5,161.49L170.67,163.33L167,167L165.16,170.67L161.49,174.34L159.66,178.01L159.66,181.68L157.82,185.35L155.99,189.02L155.99,192.69L154.15,196.36L154.15,200.03L154.15,201.86L152.32,209.2L152.32,212.87L152.32,216.54L152.32,220.22L150.48,223.89L150.48,227.56L150.48,231.23L148.65,234.9L148.65,236.73L148.65,240.4L146.81,244.07L144.97,247.74L144.97,251.41L143.14,255.08L141.3,256.92L141.3,260.59L139.47,262.42L137.63,266.09L135.8,269.76L133.96,273.43L133.96,277.1L132.13,278.94L130.29,282.61L130.29,284.44L128.46,288.11L128.46,289.95L126.62,293.62L124.79,295.46L124.79,299.13L122.95,300.96L122.95,304.63L121.12,306.47L121.12,310.14L119.28,311.97L119.28,315.64L119.28,319.31L117.45,321.15L117.45,324.82L117.45,328.49L115.61,332.16L113.78,335.83L113.78,339.5L111.94,343.17L111.94,346.84L110.11,350.51L110.11,356.01L108.27,359.68L108.27,363.35L106.44,367.03L106.44,368.86L106.44,372.53L104.6,374.37L104.6,376.2L102.77,379.87L102.77,381.71L100.93,383.54L100.93,385.38L99.1,389.05L97.26,390.88L95.43,396.39L93.59,400.06L91.76,403.73L88.09,405.56L86.25,409.23L84.42,412.9L80.75,416.57L78.91,420.24L77.08,422.08L75.24,425.75L71.57,429.42L67.9,433.09L64.23,436.76L60.56,442.27L56.89,445.94L55.05,449.61L53.22,453.28L51.38,456.95L49.55,460.62L47.71,464.29L45.88,469.79L42.21,475.3L40.37,478.97L38.54,482.64L36.7,486.31L34.87,489.98L33.03,493.65L31.2,497.32L29.36,500.99L27.53,504.66L27.53,510.16L25.69,513.84L25.69,519.34L23.86,524.85L23.86,530.35L23.86,537.69L22.02,545.03L22.02,552.37L22.02,561.55L20.19,568.89L20.19,576.23L22.02,578.06" fill="none" stroke="#000000" style="-webkit-tap-highlight-color: rgba(0, 0, 0, 0); stroke-linecap: round; stroke-linejoin: round; stroke-width: 5;" /><path d="M170.67,165.16L168.83,165.16L167,163.33L172.5,163.33L178.01,161.49L181.68,159.66L185.35,157.82L192.69,152.32L194.52,150.48L196.36,148.65L200.03,148.65L201.86,146.81L205.53,146.81L207.37,144.97L209.2,144.97L211.04,144.97L212.87,144.97L216.54,144.97L222.05,144.97L227.56,144.97L231.23,144.97L234.9,144.97L238.57,146.81L242.24,146.81L245.91,148.65L251.41,148.65L255.08,148.65L258.75,150.48L262.42,150.48L267.93,152.32L271.6,154.15L275.27,155.99L280.77,157.82L284.44,159.66L288.11,159.66L291.78,161.49L295.46,163.33L300.96,167L304.63,168.83L308.3,170.67L313.81,174.34L317.48,176.17L321.15,178.01L324.82,181.68L328.49,183.51L332.16,185.35L333.99,187.18L337.66,189.02L339.5,190.85L343.17,192.69L345,194.52L346.84,196.36L348.67,200.03L350.51,201.86L352.34,203.7L354.18,205.53L356.01,207.37L356.01,209.2L357.85,211.04L359.68,212.87L361.52,214.71L363.35,216.54L363.35,218.38L365.19,220.22L367.03,222.05L368.86,223.89L370.7,225.72L372.53,227.56L374.37,229.39L374.37,231.23L376.2,231.23L378.04,233.06L379.87,234.9L383.54,236.73L385.38,236.73L387.21,238.57L390.88,238.57L392.72,240.4L394.55,240.4L396.39,240.4L398.22,240.4L400.06,240.4L401.89,240.4L405.56,240.4L407.4,238.57L409.23,238.57L411.07,238.57L412.9,238.57L414.74,238.57L416.57,236.73L418.41,236.73L420.24,236.73L420.24,234.9L422.08,234.9L423.91,233.06L425.75,233.06L427.58,231.23L429.42,231.23L429.42,229.39L431.25,229.39L433.09,229.39L434.92,227.56L436.76,227.56L438.59,227.56L440.43,227.56L442.27,227.56L444.1,227.56L445.94,227.56L447.77,227.56L449.61,227.56L451.44,227.56L453.28,227.56L456.95,227.56L458.78,227.56L460.62,227.56L462.45,227.56L464.29,227.56L466.12,227.56L469.79,227.56L471.63,227.56L473.46,227.56L475.3,227.56L477.13,227.56L480.8,227.56L482.64,227.56L484.47,227.56L486.31,227.56L488.14,227.56L489.98,227.56L491.81,227.56L495.48,227.56L497.32,227.56L499.15,227.56L500.99,227.56L502.82,227.56L504.66,227.56L508.33,227.56L510.16,227.56L512,227.56L513.84,227.56L515.67,229.39L517.51,229.39L519.34,229.39L521.18,229.39L523.01,229.39L524.85,231.23L526.68,231.23L530.35,231.23L532.19,231.23L535.86,231.23L537.69,231.23L539.53,231.23L543.2,231.23L545.03,231.23L548.7,231.23L550.54,231.23L552.37,231.23L556.04,231.23L557.88,231.23L559.71,231.23L561.55,231.23L565.22,231.23L567.05,231.23L568.89,231.23L570.72,231.23L572.56,231.23L576.23,231.23L579.9,231.23L581.73,231.23L583.57,233.06L587.24,233.06L589.08,233.06L592.75,233.06L594.58,233.06L598.25,233.06L601.92,233.06L609.26,234.9L614.77,234.9L618.44,234.9L622.11,234.9L625.78,234.9L629.45,234.9L633.12,234.9L638.62,234.9L642.29,234.9L645.96,234.9L649.63,234.9L653.3,234.9L656.97,234.9L660.65,234.9L666.15,234.9L669.82,236.73L673.49,236.73L677.16,236.73L682.67,236.73L688.17,236.73L691.84,236.73L695.51,236.73L699.18,236.73L704.69,236.73L708.36,236.73L712.03,234.9L715.7,234.9L719.37,234.9L723.04,233.06L726.71,233.06L730.38,233.06L732.22,231.23L735.89,229.39L739.56,229.39L743.23,227.56L745.06,225.72L746.9,225.72L748.73,223.89L750.57,222.05L750.57,220.22L752.4,220.22L754.24,218.38L756.07,216.54L757.91,216.54L761.58,214.71L763.41,214.71L767.08,212.87L768.92,212.87L772.59,212.87L774.42,211.04L778.09,211.04L781.76,211.04L785.43,211.04L787.27,211.04L790.94,209.2L792.77,209.2L796.44,209.2L798.28,207.37L800.11,205.53L801.95,203.7L803.78,201.86L807.46,201.86L809.29,201.86L812.96,200.03L814.8,200.03L816.63,200.03L820.3,200.03L822.14,200.03L825.81,200.03L827.64,200.03L829.48,200.03L831.31,200.03L833.15,200.03L836.82,200.03L838.65,201.86L842.32,201.86L844.16,201.86L845.99,201.86L847.83,201.86L849.66,201.86L853.33,201.86L855.17,201.86L858.84,201.86L860.67,200.03L864.34,200.03L866.18,198.19L869.85,198.19L871.68,196.36L875.35,196.36L879.03,194.52L880.86,194.52L882.7,194.52L886.37,192.69L888.2,192.69L890.04,192.69L891.87,192.69L893.71,190.85L895.54,190.85L897.38,190.85L899.21,190.85L901.05,192.69L902.88,192.69L906.55,194.52L908.39,194.52L910.22,194.52L912.06,194.52L915.73,194.52L917.56,194.52L917.56,196.36" fill="none" stroke="#000000" style="-webkit-tap-highlight-color: rgba(0, 0, 0, 0); stroke-linecap: round; stroke-linejoin: round; stroke-width: 5;" /><path d="M919.4,198.19L919.4,196.36L915.73,196.36L913.89,196.36L913.89,198.19L915.73,198.19L915.73,200.03L915.73,201.86L917.56,201.86L919.4,203.7L921.23,205.53L924.9,207.37L926.74,207.37L928.57,209.2L930.41,209.2L932.24,211.04L934.08,211.04L935.91,211.04L937.75,211.04L939.58,212.87L941.42,214.71L941.42,216.54L941.42,218.38L943.25,220.22L945.09,222.05L945.09,223.89L945.09,225.72L945.09,229.39L945.09,233.06L945.09,236.73L945.09,240.4L946.92,245.91L946.92,251.41L946.92,255.08L946.92,258.75L946.92,262.42L948.76,266.09L948.76,269.76L948.76,271.6L948.76,275.27L948.76,278.94L948.76,282.61L948.76,286.28L948.76,289.95L950.59,293.62L950.59,295.46L950.59,299.13L952.43,300.96L952.43,302.8L954.27,304.63L956.1,304.63L957.94,306.47L959.77,306.47L961.61,306.47L963.44,306.47L967.11,306.47L970.78,306.47L972.62,306.47L976.29,306.47L978.12,304.63L981.79,304.63L983.63,304.63L987.3,304.63L989.13,304.63L994.64,304.63L998.31,304.63L1001.98,304.63L1007.48,304.63L1011.15,304.63" fill="none" stroke="#000000" style="-webkit-tap-highlight-color: rgba(0, 0, 0, 0); stroke-linecap: round; stroke-linejoin: round; stroke-width: 5;" /><path d="M957.94,311.97L956.1,308.3L952.43,306.47L952.43,308.3L952.43,310.14L952.43,313.81L952.43,319.31L952.43,330.32L952.43,337.66L952.43,343.17L952.43,350.51L952.43,356.01L952.43,361.52L952.43,368.86L952.43,374.37L952.43,381.71L952.43,387.21L952.43,392.72L952.43,396.39L952.43,401.89L952.43,407.4L954.27,411.07L954.27,416.57L954.27,420.24L954.27,425.75L954.27,429.42L954.27,433.09L954.27,438.59L954.27,442.27L954.27,447.77L954.27,456.95L952.43,466.12L952.43,475.3L952.43,478.97L956.1,477.13L956.1,475.3" fill="none" stroke="#000000" style="-webkit-tap-highlight-color: rgba(0, 0, 0, 0); stroke-linecap: round; stroke-linejoin: round; stroke-width: 5;" /><path d="M801.95,200.03L801.95,201.86L801.95,205.53L801.95,207.37L801.95,209.2L803.78,212.87L803.78,220.22L801.95,227.56L801.95,233.06L801.95,240.4L801.95,245.91L801.95,251.41L801.95,258.75L800.11,266.09L800.11,273.43L798.28,278.94L798.28,286.28L796.44,293.62L796.44,300.96L796.44,308.3L796.44,315.64L796.44,321.15L796.44,326.65L796.44,333.99L796.44,337.66L796.44,343.17L796.44,350.51L796.44,356.01L796.44,363.35L796.44,367.03L796.44,372.53L796.44,378.04L796.44,385.38L796.44,396.39L796.44,403.73L796.44,411.07L796.44,414.74L798.28,420.24L798.28,425.75L798.28,433.09L798.28,442.27L798.28,447.77L798.28,451.44L798.28,455.11L800.11,456.95L800.11,460.62L800.11,466.12L801.95,471.63L801.95,477.13L803.78,486.31L803.78,493.65L805.62,499.15L807.46,502.82L809.29,504.66L814.8,497.32L814.8,493.65" fill="none" stroke="#000000" style="-webkit-tap-highlight-color: rgba(0, 0, 0, 0); stroke-linecap: round; stroke-linejoin: round; stroke-width: 5;" /><path d="M811.13,500.99L807.46,500.99L807.46,499.15L809.29,500.99L814.8,502.82L822.14,502.82L829.48,502.82L838.65,500.99L847.83,499.15L855.17,499.15L862.51,499.15L869.85,499.15L875.35,499.15L880.86,497.32L886.37,495.48L891.87,495.48L895.54,493.65L901.05,491.81L906.55,488.14L910.22,486.31L915.73,484.47L919.4,484.47L923.07,482.64L926.74,482.64L928.57,482.64L932.24,480.8L937.75,480.8L941.42,478.97L943.25,478.97L946.92,478.97L950.59,477.13L954.27,475.3L957.94,473.46L961.61,471.63" fill="none" stroke="#000000" style="-webkit-tap-highlight-color: rgba(0, 0, 0, 0); stroke-linecap: round; stroke-linejoin: round; stroke-width: 5;" /><path d="M785.43,212.87L783.6,214.71L783.6,216.54L783.6,218.38L783.6,223.89L783.6,229.39L781.76,236.73L779.93,245.91L778.09,253.25L778.09,260.59L778.09,267.93L776.26,273.43L776.26,280.77L776.26,286.28L774.42,293.62L774.42,300.96L774.42,306.47L774.42,313.81L774.42,332.16L774.42,339.5L774.42,345L772.59,354.18L772.59,361.52L772.59,368.86L772.59,376.2L772.59,381.71L772.59,389.05L772.59,398.22L772.59,405.56L772.59,411.07L772.59,414.74L772.59,420.24L770.75,425.75L770.75,431.25L770.75,434.92L772.59,438.59L772.59,442.27L772.59,445.94L772.59,449.61L772.59,453.28L774.42,456.95L774.42,460.62L776.26,464.29L776.26,467.96L776.26,473.46L776.26,477.13L776.26,480.8L778.09,484.47L779.93,486.31L783.6,484.47L785.43,480.8" fill="none" stroke="#000000" style="-webkit-tap-highlight-color: rgba(0, 0, 0, 0); stroke-linecap: round; stroke-linejoin: round; stroke-width: 5;" /><path d="M792.77,482.64L790.94,482.64L789.1,484.47L787.27,484.47L785.43,484.47L783.6,482.64L781.76,482.64L781.76,480.8L783.6,482.64L789.1,486.31L796.44,489.98L801.95,493.65L805.62,497.32L809.29,499.15L811.13,499.15" fill="none" stroke="#000000" style="-webkit-tap-highlight-color: rgba(0, 0, 0, 0); stroke-linecap: round; stroke-linejoin: round; stroke-width: 5;" /><path d="M447.77,499.15L447.77,497.32L453.28,497.32L460.62,495.48L478.97,491.81L499.15,489.98L508.33,488.14L515.67,488.14L523.01,488.14L530.35,488.14L539.53,488.14L545.03,486.31L550.54,486.31L556.04,486.31L561.55,486.31L567.05,486.31L572.56,486.31L579.9,486.31L585.41,486.31L590.91,486.31L596.42,486.31L601.92,486.31L607.43,486.31L612.93,484.47L618.44,484.47L623.94,484.47L629.45,484.47L636.79,484.47L644.13,484.47L649.63,484.47L655.14,484.47L662.48,482.64L671.66,482.64L680.83,482.64L686.34,480.8L691.84,480.8L699.18,478.97L704.69,478.97L708.36,478.97L713.86,478.97L719.37,478.97L724.87,478.97L728.54,478.97L732.22,478.97L735.89,478.97L739.56,478.97L743.23,480.8L746.9,480.8L750.57,480.8L754.24,480.8L759.74,480.8L761.58,480.8L765.25,480.8L767.08,480.8L772.59,478.97L776.26,478.97" fill="none" stroke="#000000" style="-webkit-tap-highlight-color: rgba(0, 0, 0, 0); stroke-linecap: round; stroke-linejoin: round; stroke-width: 5;" /><path d="M447.77,500.99L447.77,499.15L447.77,497.32L445.94,497.32L444.1,497.32L440.43,499.15L436.76,500.99L433.09,502.82L427.58,504.66L423.91,506.49L422.08,510.16L418.41,513.84L414.74,515.67L409.23,519.34L405.56,523.01L401.89,524.85L400.06,526.68L398.22,528.52L396.39,530.35L394.55,532.19L390.88,535.86L389.05,537.69L385.38,539.53L381.71,541.36L379.87,543.2L376.2,545.03L372.53,546.87L368.86,548.7L365.19,550.54L361.52,552.37L359.68,554.21L356.01,556.04L346.84,561.55L343.17,563.38L337.66,567.05L332.16,570.72L328.49,572.56L324.82,574.39L321.15,574.39L319.31,576.23L313.81,576.23L308.3,578.06L302.8,578.06L295.46,579.9L289.95,579.9L284.44,579.9L278.94,579.9L273.43,579.9L267.93,579.9L262.42,579.9L255.08,581.73L249.58,581.73L242.24,581.73L234.9,581.73L229.39,583.57L222.05,583.57L216.54,583.57L212.87,583.57L211.04,583.57L207.37,581.73L205.53,581.73L201.86,581.73L198.19,579.9L194.52,579.9L190.85,579.9L185.35,579.9L181.68,578.06L178.01,578.06L174.34,578.06L170.67,578.06L167,578.06L163.33,578.06L161.49,578.06L157.82,576.23L154.15,576.23L150.48,576.23L146.81,576.23L141.3,576.23L135.8,576.23L130.29,576.23L126.62,576.23L122.95,576.23L117.45,576.23L111.94,578.06L108.27,579.9L104.6,581.73L100.93,581.73L97.26,583.57L93.59,583.57L88.09,583.57L84.42,583.57L80.75,583.57L77.08,583.57L73.41,583.57L69.73,583.57L66.06,583.57L62.39,583.57L58.72,583.57L55.05,583.57L53.22,583.57L49.55,583.57L47.71,583.57L44.04,583.57L42.21,581.73L38.54,579.9L34.87,578.06L31.2,578.06L29.36,578.06L27.53,578.06L25.69,578.06L25.69,579.9L27.53,581.73" fill="none" stroke="#000000" style="-webkit-tap-highlight-color: rgba(0, 0, 0, 0); stroke-linecap: round; stroke-linejoin: round; stroke-width: 5;" /><path d="M326.65,280.77L324.82,280.77L324.82,278.94L322.98,277.1L322.98,280.77L322.98,284.44L321.15,291.78L321.15,293.62L321.15,304.63L319.31,311.97L319.31,317.48L319.31,322.98L319.31,324.82L319.31,326.65" fill="none" stroke="#000000" style="-webkit-tap-highlight-color: rgba(0, 0, 0, 0); stroke-linecap: round; stroke-linejoin: round; stroke-width: 5;" /><path d="M324.82,278.94L322.98,278.94L322.98,277.1L324.82,277.1L328.49,277.1L332.16,278.94L335.83,278.94L339.5,280.77L339.5,282.61L339.5,284.44L339.5,286.28L339.5,289.95L339.5,293.62L339.5,299.13L339.5,302.8L339.5,308.3L339.5,311.97L339.5,315.64L339.5,319.31L339.5,322.98L339.5,324.82L339.5,326.65L339.5,328.49L335.83,328.49L332.16,328.49L326.65,328.49L322.98,328.49L321.15,328.49" fill="none" stroke="#000000" style="-webkit-tap-highlight-color: rgba(0, 0, 0, 0); stroke-linecap: round; stroke-linejoin: round; stroke-width: 5;" /><path d="M383.54,238.57L381.71,238.57L379.87,238.57L379.87,240.4L379.87,244.07L379.87,247.74L379.87,253.25L379.87,258.75L379.87,264.26L379.87,271.6L379.87,278.94L381.71,284.44L381.71,291.78L381.71,299.13L381.71,306.47L381.71,311.97L383.54,317.48L383.54,324.82L385.38,330.32L387.21,335.83L387.21,341.33L389.05,348.67L389.05,354.18L390.88,361.52L392.72,368.86L394.55,374.37L396.39,381.71L398.22,387.21L401.89,392.72L403.73,398.22L405.56,405.56L409.23,411.07L411.07,416.57L414.74,420.24L416.57,425.75L418.41,431.25L418.41,436.76L420.24,442.27L420.24,449.61L422.08,453.28L422.08,458.78L422.08,462.45L423.91,466.12L423.91,473.46L423.91,480.8L423.91,489.98L425.75,497.32L425.75,502.82L425.75,504.66L425.75,506.49L427.58,504.66" fill="none" stroke="#000000" style="-webkit-tap-highlight-color: rgba(0, 0, 0, 0); stroke-linecap: round; stroke-linejoin: round; stroke-width: 5;" /><path d="M172.5,401.89L170.67,403.73L168.83,407.4L167,409.23L163.33,412.9L159.66,414.74L155.99,416.57L154.15,418.41L152.32,420.24L150.48,422.08L148.65,423.91L146.81,427.58L144.97,431.25L143.14,433.09L141.3,434.92L139.47,438.59L139.47,442.27L137.63,444.1L135.8,447.77L135.8,449.61L135.8,453.28L133.96,456.95L133.96,458.78L133.96,462.45L133.96,466.12L132.13,469.79L132.13,473.46L132.13,477.13L132.13,482.64L132.13,486.31L132.13,489.98L132.13,493.65L133.96,497.32L133.96,500.99L133.96,504.66L135.8,508.33L135.8,512L137.63,513.84L137.63,517.51L139.47,519.34L139.47,523.01L141.3,526.68L143.14,530.35L143.14,532.19L144.97,535.86L146.81,541.36L146.81,545.03L148.65,548.7L148.65,554.21L150.48,557.88L150.48,561.55L152.32,567.05L152.32,568.89" fill="none" stroke="#000000" style="-webkit-tap-highlight-color: rgba(0, 0, 0, 0); stroke-linecap: round; stroke-linejoin: round; stroke-width: 5;" /><path d="M11.01,370.7L9.18,370.7L9.18,368.86L9.18,367.03L12.85,367.03L16.52,365.19L20.19,365.19L27.53,363.35L36.7,361.52L44.04,361.52L49.55,361.52L55.05,361.52L60.56,363.35L66.06,363.35L73.41,363.35L78.91,363.35L82.58,363.35" fill="none" stroke="#000000" style="-webkit-tap-highlight-color: rgba(0, 0, 0, 0); stroke-linecap: round; stroke-linejoin: round; stroke-width: 5;" /><path d="M392.72,559.71L389.05,557.88L387.21,557.88L390.88,557.88L394.55,556.04L400.06,556.04L405.56,554.21L412.9,552.37L420.24,550.54L427.58,548.7L434.92,546.87L444.1,545.03L451.44,545.03L458.78,543.2L466.12,541.36L471.63,541.36L477.13,541.36L484.47,541.36L491.81,541.36L499.15,541.36L506.49,541.36L512,541.36L517.51,541.36L523.01,543.2L528.52,543.2L535.86,545.03L541.36,545.03L546.87,545.03L552.37,546.87L557.88,548.7L563.38,550.54L568.89,552.37L576.23,554.21L581.73,556.04L587.24,557.88L590.91,557.88L594.58,559.71L596.42,561.55L600.09,563.38L603.76,563.38L607.43,565.22L611.1,565.22L614.77,567.05L618.44,567.05L623.94,568.89L631.28,568.89L638.62,568.89L644.13,568.89L651.47,568.89L658.81,568.89L666.15,568.89L673.49,568.89L680.83,568.89L686.34,568.89L693.68,568.89L701.02,568.89L710.19,568.89L717.53,567.05L724.87,565.22L732.22,565.22L739.56,563.38L746.9,563.38L752.4,563.38L759.74,561.55L765.25,561.55L770.75,559.71L778.09,559.71L783.6,559.71L789.1,559.71L796.44,559.71L801.95,559.71L807.46,559.71L812.96,559.71L818.47,559.71L823.97,559.71L831.31,559.71L840.49,557.88L845.99,557.88L853.33,556.04L860.67,556.04L869.85,554.21L877.19,552.37L884.53,552.37L888.2,552.37L893.71,550.54L901.05,550.54L908.39,548.7L913.89,548.7L919.4,548.7L924.9,546.87L932.24,545.03L941.42,543.2L948.76,539.53L950.59,535.86" fill="none" stroke="#000000" style="-webkit-tap-highlight-color: rgba(0, 0, 0, 0); stroke-linecap: round; stroke-linejoin: round; stroke-width: 5;" /><path d="M170.67,411.07L170.67,409.23L170.67,407.4L172.5,405.56L176.17,403.73L178.01,401.89L183.51,400.06L187.18,398.22L189.02,396.39L196.36,394.55L198.19,394.55L201.86,392.72L205.53,392.72L207.37,392.72L211.04,392.72L214.71,392.72L216.54,390.88L220.22,390.88L222.05,390.88L225.72,390.88L229.39,390.88L233.06,390.88L236.73,390.88L238.57,390.88L242.24,390.88L245.91,389.05L247.74,389.05L251.41,389.05L253.25,390.88L256.92,390.88L258.75,390.88L262.42,392.72L264.26,392.72L266.09,394.55L267.93,394.55L271.6,396.39L273.43,398.22L275.27,400.06L278.94,400.06L280.77,401.89L282.61,401.89L284.44,403.73L288.11,403.73L289.95,405.56L293.62,405.56L295.46,407.4L297.29,407.4L299.13,409.23L302.8,409.23L304.63,409.23L306.47,411.07L308.3,411.07L311.97,411.07L313.81,412.9L315.64,412.9L319.31,412.9L321.15,414.74L324.82,414.74L326.65,414.74L328.49,416.57L330.32,416.57L332.16,416.57L335.83,418.41L337.66,418.41L339.5,420.24L341.33,420.24L343.17,420.24L346.84,422.08L348.67,422.08L350.51,423.91L352.34,423.91L354.18,423.91L354.18,425.75L356.01,425.75L357.85,425.75L359.68,427.58L361.52,427.58L363.35,427.58L363.35,429.42L365.19,429.42L367.03,431.25L368.86,431.25L370.7,433.09L374.37,434.92L376.2,436.76L381.71,436.76L387.21,438.59L389.05,440.43" fill="none" stroke="#000000" style="-webkit-tap-highlight-color: rgba(0, 0, 0, 0); stroke-linecap: round; stroke-linejoin: round; stroke-width: 5;" /></svg>