<?xml version="1.0" encoding="utf-8" ?>
<svg baseProfile="full" height="690" version="1.1" width="1024" xmlns="http://www.w3.org/2000/svg" xmlns:ev="http://www.w3.org/2001/xml-events" xmlns:xlink="http://www.w3.org/1999/xlink"><defs /><path d="M91.06,173.15L90.31,173.15L89.56,173.15L88.82,173.9L86.58,175.39L85.08,176.89L83.59,178.38L82.85,179.87L80.61,185.84L80.61,187.34L80.61,189.57L80.61,191.07L80.61,192.56L80.61,195.55L79.86,196.29L79.11,197.78L78.37,198.53L77.62,200.02L76.13,203.01L74.64,204.5L74.64,206.74L73.89,208.98L73.89,211.97L73.89,214.2L73.89,216.44L73.14,217.94L72.4,220.17L72.4,222.41L71.65,225.4L70.9,227.64L70.16,229.13L69.41,232.12L69.41,234.36L68.66,235.85L68.66,237.34L68.66,238.83L68.66,241.82L68.66,244.06L69.41,245.55L69.41,247.79L70.16,250.03L70.9,252.27L70.9,254.51L71.65,256.75L71.65,258.99L72.4,261.97L73.14,264.96L73.89,267.2L74.64,269.43L75.38,271.67L76.13,276.15L76.87,278.39L77.62,279.88L78.37,282.87L79.11,286.6L79.86,289.59L80.61,292.57L81.35,297.05L82.1,300.03L83.59,305.26L84.34,308.24L85.08,311.23L85.83,314.22L86.58,315.71L87.32,320.19L88.07,323.92L88.07,326.9L88.82,335.11L89.56,336.61L89.56,338.1L89.56,341.08L89.56,344.07L90.31,347.06L90.31,349.29L90.31,352.28L90.31,354.52L90.31,356.76L90.31,359L90.31,360.49L89.56,361.98L89.56,362.73L89.56,364.22L88.82,365.71L88.07,366.46L87.32,367.95L86.58,368.7L85.08,369.45L84.34,370.94L82.85,371.69L82.1,372.43L81.35,373.92L79.11,375.42L76.87,376.91L74.64,378.4L72.4,378.4L69.41,379.15L67.17,380.64L64.93,382.13L62.69,382.88L60.45,384.37L56.72,385.87L53.74,387.36L50.75,388.1L48.51,389.6L44.03,391.09L41.8,392.58L38.81,394.08L35.83,395.57L32.84,397.06L29.85,399.3L27.62,400.79L26.12,402.29L24.63,404.52L22.39,407.51L20.9,409L19.41,409.75L17.91,411.24L17.17,413.48L15.67,415.72L14.93,419.45L13.43,420.94L11.94,423.93L11.2,425.42L9.7,429.9" fill="none" stroke="#000000" style="-webkit-tap-highlight-color: rgba(0, 0, 0, 0); stroke-linecap: round; stroke-linejoin: round; stroke-width: 5;" /><path d="M88.82,176.89L90.31,176.14L94.04,174.65L97.03,173.15L99.27,171.66L103.74,170.17L106.73,169.42L110.46,168.68L114.19,167.93L117.18,167.18L120.91,167.18L123.9,167.93L126.88,167.93L129.87,167.93L132.85,168.68L136.58,169.42L138.08,170.17L139.57,170.17L140.31,170.92L141.81,171.66L143.3,173.15L144.05,173.9L144.79,175.39L146.29,176.89L147.03,177.63L147.78,178.38L147.78,179.13L147.78,179.87L148.52,180.62L149.27,180.62L149.27,181.36L150.02,182.11L150.76,182.86L151.51,182.11L151.51,181.36L152.26,179.87L153,178.38L153,176.14L153.75,173.9L154.5,173.15L155.24,171.66L155.99,170.17L157.48,168.68L159.72,166.44L163.45,164.2L165.69,162.71L167.93,160.47L170.17,158.23L173.9,155.99L176.89,155.24L180.62,153.75L183.6,152.26L186.59,150.76L191.07,149.27L194.05,148.52L197.04,147.78L200.77,147.03L205.99,145.54L208.98,144.79L211.22,143.3L214.2,143.3L217.19,143.3L222.41,144.05L225.4,144.05L229.13,144.79L232.12,144.79L236.59,145.54L240.33,145.54L244.06,146.29L247.04,146.29L250.78,147.03L255.25,147.03L258.24,147.78L260.48,148.52L263.46,149.27L266.45,151.51L268.69,153L271.67,154.5L273.91,155.99L276.9,157.48L279.88,159.72L282.12,161.21L284.36,163.45L286.6,164.94L288.84,166.44L290.33,167.93L291.08,168.68L292.57,169.42L294.06,170.17L294.81,170.92L296.3,172.41L299.29,173.9L299.29,174.65L300.03,174.65L301.53,175.39L303.77,176.89L305.26,177.63L306.75,178.38L308.99,179.13L311.23,180.62L313.47,181.36L315.71,182.86L317.95,184.35L319.44,185.1L320.93,185.84L322.43,186.59L323.92,187.34L326.9,189.57L328.4,191.81L330.64,192.56L333.62,194.8L335.86,196.29L338.1,197.78L341.08,198.53L342.58,200.02L344.82,201.52L347.8,204.5L350.04,205.99L351.53,208.23L353.77,211.22L356.01,212.71L357.5,214.95L359.74,217.19L361.98,218.68L363.48,220.17L364.97,221.67L366.46,223.16L367.21,224.65L368.7,225.4L370.19,226.89L370.94,228.38L371.69,229.13L372.43,229.88L373.92,230.62L375.42,232.86L376.16,233.61L376.91,234.36L377.66,235.1L379.15,236.59L380.64,237.34L381.39,237.34L382.88,238.09L384.37,238.83L386.61,240.33L388.1,240.33L389.6,241.07L391.09,241.07L392.58,241.82L394.82,242.57L395.57,242.57L397.81,242.57L402.29,242.57L403.78,243.31L406.02,244.06L408.26,244.06L411.24,244.06L412.73,242.57L414.23,242.57L417.21,241.07L418.71,240.33L420.94,236.59L423.18,235.1L424.68,233.61L427.66,232.86L429.9,232.86L432.14,232.12L435.87,229.88L438.11,229.13L440.35,228.38L443.34,227.64L446.32,226.89L447.81,226.89L450.05,226.15L452.29,225.4L453.78,225.4L456.77,225.4L459.76,224.65L461.99,223.91L464.98,223.91L470.2,223.91L473.19,224.65L476.92,225.4L479.91,225.4L482.89,226.15L487.37,226.89L491.85,226.89L494.09,227.64L497.07,227.64L501.55,227.64L505.28,229.13L508.27,229.88L512,230.62L515.73,231.37L519.46,231.37L525.43,232.12L529.17,232.12L533.64,232.12L538.87,232.12L549.32,232.12L550.81,232.12L553.05,232.12L554.54,232.12L559.77,231.37L563.5,232.12L566.48,231.37L570.22,232.12L573.95,232.12L586.64,231.37L588.13,231.37L590.37,231.37L594.1,231.37L600.07,232.12L603.06,231.37L606.79,232.12L612.01,231.37L615.74,231.37L619.48,231.37L623.21,232.12L626.94,232.86L631.42,233.61L636.64,235.1L641.12,235.1L646.34,235.1L652.31,235.1L657.54,234.36L661.27,234.36L664.26,233.61L666.5,233.61L668.73,232.86L671.72,232.12L673.21,232.12L675.45,231.37L677.69,230.62L682.17,230.62L684.41,230.62L688.14,230.62L691.13,231.37L693.36,230.62L697.84,230.62L700.08,231.37L702.32,231.37L704.56,231.37L706.8,231.37L709.04,230.62L710.53,229.88L712.02,229.88L712.77,229.88L713.52,229.13L715.01,228.38L717.25,226.89L718.74,226.15L720.98,225.4L723.22,223.91L724.71,223.16L726.2,221.67L727.7,220.92L730.68,219.43L734.41,218.68L738.89,217.19L744.12,215.7L750.09,213.46L753.07,211.97L755.31,211.97L756.8,211.22L758.3,211.22L762.03,210.47L768.75,210.47L771.73,210.47L772.48,211.22L776.21,211.22L780.69,211.22L783.67,210.47L786.66,210.47L789.64,209.73L791.14,208.98L792.63,207.49L794.12,205.99L797.11,205.25L799.35,203.76L802.33,202.26L805.32,200.77L809.05,198.53L810.54,198.53L812.03,197.78L814.27,197.78L818.01,197.04L820.24,196.29L822.48,197.04L824.72,197.04L827.71,197.04L829.95,197.78L833.68,199.28L836.66,200.02L839.65,200.02L841.89,200.77L845.62,200.77L847.86,200.77L850.1,200.77L852.34,201.52L854.58,201.52L859.06,201.52L862.04,200.77L864.28,200.02L867.27,200.02L871,200.02L873.24,200.02L875.48,199.28L878.46,198.53L879.95,198.53L883.69,197.78L885.92,197.78L888.16,197.78L889.66,196.29L892.64,195.55L894.13,194.8L897.12,194.8L899.36,194.8L901.6,194.05L904.58,192.56L906.08,191.81L907.57,191.07L909.81,190.32L912.79,190.32L914.29,189.57L915.78,190.32L918.02,190.32L918.76,190.32L919.51,191.07L920.26,191.07L922.5,191.81L923.24,192.56L924.73,194.05L925.48,196.29L926.23,197.78L926.97,199.28L927.72,200.77L926.97,201.52L926.23,203.76L924.73,205.25L924.73,207.49L923.99,208.23L923.24,208.98L923.24,209.73L923.24,211.22L923.24,212.71L924.73,213.46L926.97,214.2L928.47,214.95L930.71,215.7L932.2,217.19L935.18,217.94L936.68,217.94L938.92,218.68L941.15,219.43L943.39,219.43L944.14,219.43L946.38,220.17L947.13,221.67L948.62,221.67L949.36,223.16L950.11,224.65L950.86,226.15L951.6,227.64L951.6,228.38L952.35,229.88L952.35,231.37L952.35,232.86L953.1,233.61L953.84,235.85L954.59,237.34L954.59,240.33L955.34,242.57L956.83,247.04L957.57,250.03L958.32,252.27L958.32,255.25L958.32,257.49L958.32,259.73L958.32,264.21L958.32,266.45L958.32,268.69L956.83,274.66L955.34,278.39L954.59,280.63L953.84,282.12L953.84,283.62L953.1,285.85L953.1,288.09L953.1,289.59L953.1,290.33L953.1,291.83L953.1,292.57L953.1,294.06L953.1,294.81L953.1,295.56L953.84,297.05L953.84,298.54L954.59,300.03L954.59,300.78L955.34,302.27L956.08,303.77L956.83,305.26L956.83,306.75L957.57,308.99L957.57,313.47L958.32,317.2L959.07,320.93L959.81,325.41L960.56,332.13L960.56,335.86L960.56,341.83L959.81,345.56L959.07,351.53L958.32,358.25L958.32,362.73L958.32,367.21L958.32,370.94L958.32,376.16L958.32,378.4L958.32,380.64L958.32,383.63L957.57,385.87L956.83,390.34L956.08,392.58L955.34,394.82L955.34,398.55L954.59,403.03L953.84,406.76L953.1,410.5L953.1,414.97L953.1,419.45L952.35,425.42L951.6,429.15L950.86,432.89L950.86,436.62L950.86,441.84L950.11,444.83L950.11,447.81L949.36,450.05L949.36,452.29L949.36,454.53L949.36,455.28L950.11,456.02L951.6,457.52L952.35,457.52L953.1,459.01L954.59,460.5L955.34,461.99L956.08,464.23L955.34,464.98" fill="none" stroke="#000000" style="-webkit-tap-highlight-color: rgba(0, 0, 0, 0); stroke-linecap: round; stroke-linejoin: round; stroke-width: 5;" /><path d="M962.05,315.71L964.29,315.71L968.02,315.71L973.99,313.47L979.22,311.98L983.7,311.23L992.65,312.72L1006.09,313.47L1009.07,313.47L1013.55,312.72L1015.79,312.72" fill="none" stroke="#000000" style="-webkit-tap-highlight-color: rgba(0, 0, 0, 0); stroke-linecap: round; stroke-linejoin: round; stroke-width: 5;" /><path d="M962.05,473.94L963.55,473.19L965.78,472.44L968.02,472.44L971.76,473.19L976.23,473.94L985.19,475.43L992.65,476.17L998.62,477.67L1005.34,480.65L1011.31,483.64L1020.27,488.86L1024,490.36" fill="none" stroke="#000000" style="-webkit-tap-highlight-color: rgba(0, 0, 0, 0); stroke-linecap: round; stroke-linejoin: round; stroke-width: 5;" /><path d="M944.89,468.71L945.63,468.71L947.13,470.95L947.13,473.19L947.13,475.43L946.38,477.67L945.63,480.65L944.89,482.89L943.39,485.88L941.9,487.37L940.41,489.61L938.17,491.85L936.68,492.59L935.18,493.34L933.69,494.09L931.45,494.83L927.72,495.58L925.48,496.33L923.24,496.33L920.26,496.33L915.78,497.82L912.79,498.57L910.55,499.31L907.57,500.06L905.33,500.8L902.34,500.8L897.12,501.55L894.13,501.55L891.15,502.3L886.67,501.55L882.94,501.55L879.21,501.55L876.22,501.55L873.24,501.55L870.25,501.55L865.03,502.3L860.55,502.3L856.07,502.3L851.59,503.04L844.87,503.79L840.4,504.54L835.92,504.54L831.44,504.54L826.96,503.79L820.99,503.04L817.26,503.04L813.53,502.3L810.54,501.55L805.32,500.8L800.84,500.06L797.11,500.06L785.17,498.57L782.18,498.57L779.94,498.57L775.46,498.57L770.99,497.82L767.25,497.82L762.78,497.82L759.79,497.82L756.8,497.07L754.57,497.07L750.83,497.82L746.36,497.82L743.37,497.82L740.38,497.82L736.65,497.82L731.43,497.82L728.44,497.82L725.46,498.57L721.73,498.57L718.74,498.57L713.52,497.82L709.04,497.07L706.05,496.33L702.32,495.58L697.84,494.09L694.86,493.34L691.87,492.59L688.89,491.85L685.9,491.1L682.17,489.61L679.18,488.12L676.2,487.37L672.47,486.62L667.24,486.62L663.51,485.88L659.78,485.88L655.3,485.88L651.57,485.88L645.6,485.13L641.87,485.13L638.13,484.38L634.4,483.64L629.18,483.64L625.45,483.64L621.71,483.64L617.98,483.64L614.25,483.64L610.52,483.64L604.55,484.38L600.82,484.38L596.34,485.13L591.86,485.88L585.14,486.62L579.92,486.62L574.69,486.62L569.47,486.62L564.99,487.37L558.27,488.12L553.8,488.86L549.32,488.86L537.38,488.86L535.14,488.86L531.41,489.61L528.42,489.61L521.7,488.86L517.22,488.12L513.49,487.37L509.01,486.62L503.79,486.62L501.55,486.62L498.57,487.37L495.58,487.37L493.34,487.37L489.61,487.37L486.62,487.37L483.64,487.37L479.91,488.12L474.68,489.61L470.95,490.36L466.47,490.36L461.99,490.36L457.52,490.36L450.8,491.85L447.07,492.59L444.08,492.59L440.35,492.59L435.87,492.59L433.63,492.59L431.39,493.34L429.15,493.34L427.66,494.09L424.68,496.33L423.18,496.33L421.69,497.07L420.2,498.57L417.21,500.8L414.23,501.55L411.99,503.04L409.75,504.54L408.26,505.28L405.27,506.03L401.54,509.01L399.3,511.25L397.06,513.49L394.08,514.99L390.34,518.72L387.36,520.96L385.12,523.2L382.13,524.69L379.15,526.93L376.16,528.42L372.43,530.66L369.45,532.15L366.46,534.39L361.24,537.38L358.25,539.62L356.01,541.11L353.03,543.35L350.04,544.84L345.56,547.08L338.1,551.56L337.35,551.56L336.61,552.3L332.87,555.29L329.89,557.53L326.16,559.77L323.17,561.26L320.19,563.5L315.71,567.23L312.72,568.72L309.74,570.96L307.5,573.2L303.02,576.19L301.53,577.68L298.54,579.92L295.56,581.41L293.32,582.9L289.59,585.14L286.6,585.89L284.36,587.38L282.12,588.13L278.39,588.87L276.15,590.37L273.17,590.37L270.93,591.11L267.94,591.86L263.46,591.86L260.48,591.86L258.24,592.61L255.25,592.61L250.78,592.61L248.54,592.61L245.55,591.86L242.57,591.86L240.33,591.11L238.09,590.37L235.1,589.62L232.86,589.62L230.62,589.62L226.89,589.62L225.4,589.62L223.16,588.87L220.92,588.87L218.68,588.87L214.95,588.13L211.97,588.13L209.73,588.13L207.49,588.13L203.01,587.38L199.28,587.38L196.29,586.64L192.56,585.89L189.57,585.89L185.84,585.14L179.87,585.14L176.89,584.4L173.15,584.4L167.93,584.4L164.2,584.4L147.78,585.14L142.55,585.14L139.57,585.14L133.6,585.89L126.88,585.89L120.91,585.89L113.45,585.89L105.98,586.64L100.01,586.64L95.53,587.38L90.31,587.38L84.34,587.38L79.11,587.38L74.64,587.38L70.16,587.38L62.69,586.64L58.22,586.64L52.99,586.64L49.26,586.64L46.27,587.38L41.05,588.13L36.57,588.87L32.84,589.62L29.11,589.62L22.39,589.62L16.42,589.62L10.45,589.62L5.22,590.37L0,590.37" fill="none" stroke="#000000" style="-webkit-tap-highlight-color: rgba(0, 0, 0, 0); stroke-linecap: round; stroke-linejoin: round; stroke-width: 5;" /><path d="M148.52,196.29L148.52,197.78L147.78,200.02L147.03,202.26L147.03,205.25L147.03,208.23L147.78,212.71L149.27,216.44L150.02,220.17L150.76,223.16L151.51,227.64L151.51,231.37L151.51,234.36L151.51,237.34L151.51,240.33L150.76,244.06L148.52,248.54L147.78,250.03L146.29,252.27L144.05,255.25L141.81,257.49L140.31,260.48L138.82,263.46L137.33,266.45L135.84,268.69L134.34,273.91L133.6,277.64L132.85,279.88L131.36,283.62L127.63,291.83L126.88,294.06L126.13,294.81L126.13,296.3L124.64,300.03L123.9,301.53L123.15,303.77L122.4,306.75L122.4,308.24L122.4,311.23L122.4,313.47L121.66,315.71L121.66,318.69L120.91,321.68L120.91,324.66L120.91,327.65L121.66,330.64L121.66,335.11L121.66,338.85L121.66,342.58L121.66,345.56L122.4,345.56L121.66,348.55L120.91,352.28L120.91,354.52L120.16,358.25L119.42,360.49L118.67,362.73L117.18,365.71L115.69,368.7L114.19,371.69L111.95,376.91L109.71,379.15L107.48,382.13L103.74,385.12L101.5,388.1L99.27,390.34L97.03,392.58L94.79,394.08L92.55,396.31L88.07,400.05L85.08,402.29L82.1,405.27L78.37,409L73.89,410.5L69.41,412.73L65.68,414.97L62.69,417.21L58.96,419.45L54.48,422.44L50.75,424.68L48.51,426.92L43.29,429.9L41.05,432.89L38.81,434.38L35.83,437.36L35.08,438.86L33.59,441.1L31.35,443.34L27.62,450.8L26.12,453.78L25.38,456.02L24.63,459.01L22.39,461.99L20.9,464.98L17.17,470.2L14.93,473.94L13.43,477.67L13.43,479.91L12.69,485.88L13.43,491.1" fill="none" stroke="#000000" style="-webkit-tap-highlight-color: rgba(0, 0, 0, 0); stroke-linecap: round; stroke-linejoin: round; stroke-width: 5;" /><path d="M324.66,279.88L323.92,279.14L323.17,279.14L322.43,279.14L320.93,280.63L319.44,282.12L317.95,284.36L317.95,285.85L317.2,288.84L317.95,292.57L317.95,296.3L318.69,299.29L318.69,302.27L319.44,305.26L320.19,307.5L320.93,309.74L321.68,311.98L322.43,313.47L323.17,317.2L323.17,319.44L323.92,321.68L323.92,323.92L323.92,326.16L323.92,327.65L323.92,329.14L323.92,330.64L323.92,331.38L323.92,332.13L323.92,332.87L325.41,332.87L326.9,332.87L329.14,333.62L329.89,333.62" fill="none" stroke="#000000" style="-webkit-tap-highlight-color: rgba(0, 0, 0, 0); stroke-linecap: round; stroke-linejoin: round; stroke-width: 5;" /><path d="M314.96,288.09L315.71,287.35L317.95,285.85L320.93,285.11L322.43,285.11L324.66,285.85L327.65,285.85L328.4,285.85L330.64,286.6L331.38,286.6L332.87,288.09L333.62,290.33L334.37,292.57L335.11,294.81L335.11,296.3L335.86,297.05L335.86,299.29L336.61,301.53L336.61,304.51L337.35,306.75L337.35,308.24L338.1,310.48L338.85,312.72L339.59,314.22L339.59,317.2L340.34,320.19L340.34,323.17L340.34,326.16L340.34,328.4L340.34,329.89L340.34,331.38L340.34,332.87L341.08,333.62" fill="none" stroke="#000000" style="-webkit-tap-highlight-color: rgba(0, 0, 0, 0); stroke-linecap: round; stroke-linejoin: round; stroke-width: 5;" /><path d="M317.2,337.35L321.68,338.1L326.9,338.1L332.87,339.59L338.85,339.59L341.83,340.34" fill="none" stroke="#000000" style="-webkit-tap-highlight-color: rgba(0, 0, 0, 0); stroke-linecap: round; stroke-linejoin: round; stroke-width: 5;" /><path d="M572.45,239.58L572.45,240.33L571.71,241.07L570.96,241.82L569.47,242.57L567.98,244.06L567.98,244.8L567.23,244.8L567.98,246.3L568.72,247.04L570.22,248.54L570.96,250.03L573.2,250.78L574.69,250.78L577.68,250.78L579.17,250.03L581.41,248.54L583.65,247.04L585.14,246.3L586.64,244.06L587.38,243.31L588.13,241.07L587.38,240.33L585.89,237.34L582.9,235.85L576.19,234.36L573.95,234.36L571.71,234.36L570.96,234.36" fill="none" stroke="#000000" style="-webkit-tap-highlight-color: rgba(0, 0, 0, 0); stroke-linecap: round; stroke-linejoin: round; stroke-width: 5;" /><path d="M801.59,214.2L802.33,214.95L802.33,215.7L803.08,217.94L804.57,220.92L805.32,223.16L806.06,226.89L806.06,235.1L806.06,236.59L806.06,237.34L806.06,239.58L806.06,241.82L806.81,244.06L807.56,247.04L809.05,250.03L810.54,252.27L812.78,254.51L817.26,258.24L820.99,259.73L824.72,260.48L828.45,261.97L832.19,262.72L836.66,263.46L841.89,265.7L845.62,267.2L848.61,267.94L853.08,270.18L854.58,271.67L856.82,273.17L859.8,274.66L861.29,276.9L862.79,278.39L864.28,279.88L866.52,281.38L867.27,282.12L868.76,283.62L871,285.11L871.74,285.11L872.49,285.85L873.24,285.85L874.73,285.85L874.73,285.11L875.48,284.36L876.22,283.62L876.22,282.87L877.71,280.63L878.46,277.64L879.95,274.66L881.45,269.43L882.19,265.7L882.94,262.72L884.43,256L885.18,253.01L885.92,250.78L886.67,247.04L886.67,243.31L888.16,239.58L888.91,232.86L889.66,228.38L889.66,223.91L891.15,220.17L892.64,213.46L894.13,210.47L895.63,206.74L897.12,203.01L902.34,195.55L903.84,194.05L906.08,191.81" fill="none" stroke="#000000" style="-webkit-tap-highlight-color: rgba(0, 0, 0, 0); stroke-linecap: round; stroke-linejoin: round; stroke-width: 5;" /><path d="M513.49,429.9L512,429.9L511.25,429.15L511.25,429.9L510.51,431.39L509.76,434.38L507.52,437.36L506.03,441.1L503.79,444.83L504.54,451.55L505.28,453.04L506.03,455.28L509.01,458.26L512.75,461.99L515.73,464.23L517.22,464.98L520.21,467.22" fill="none" stroke="#000000" style="-webkit-tap-highlight-color: rgba(0, 0, 0, 0); stroke-linecap: round; stroke-linejoin: round; stroke-width: 5;" /><path d="M513.49,441.1L512,438.86L511.25,438.11L512.75,439.6L514.99,441.1L517.22,443.34L518.72,446.32L521.7,452.29L523.2,456.02L523.94,460.5L525.43,467.22L525.43,471.7L525.43,475.43L525.43,478.41L525.43,481.4L524.69,484.38L524.69,488.12" fill="none" stroke="#000000" style="-webkit-tap-highlight-color: rgba(0, 0, 0, 0); stroke-linecap: round; stroke-linejoin: round; stroke-width: 5;" /><path d="M798.6,223.91L797.85,223.91L797.85,222.41L797.11,222.41L797.11,221.67L796.36,221.67L794.87,220.92L794.12,220.17L793.38,220.17L792.63,220.17L792.63,219.43L792.63,220.17L791.88,220.17L791.88,220.92L790.39,222.41L790.39,223.16L790.39,224.65L790.39,226.15L790.39,227.64L790.39,228.38L790.39,229.88L789.64,230.62L789.64,232.12L790.39,232.86L791.14,235.1L791.88,235.85L792.63,237.34L792.63,239.58L793.38,241.07L794.12,243.31L794.87,244.8L794.87,247.04L794.87,249.28L795.62,251.52L796.36,254.51L797.11,256.75L797.11,258.99L797.11,262.72L797.85,266.45L797.85,268.69L797.85,272.42L797.11,275.41L797.11,279.88L797.11,282.87L797.11,286.6L797.85,291.83L797.85,296.3L797.85,300.78L798.6,304.51L800.09,314.22L800.84,317.2L800.84,320.19L800.84,321.68L801.59,329.14L802.33,333.62L803.08,335.86L803.08,339.59L803.83,343.32L804.57,346.31L805.32,350.79L805.32,354.52L806.06,359L806.06,364.22L806.81,368.7L806.81,372.43L806.06,376.16L806.81,379.9L806.81,383.63L806.06,388.85L806.06,392.58L806.06,395.57L806.06,399.3L805.32,404.52L805.32,408.26L804.57,411.24L804.57,414.23L803.83,419.45L803.83,422.44L803.83,426.17L803.83,429.15L803.83,432.89L803.08,436.62L803.08,438.86L803.08,441.84L803.08,444.08L803.08,447.07L803.08,451.55L803.08,455.28L803.83,459.01L803.83,463.49L803.83,465.73L804.57,467.97L804.57,470.95L804.57,473.94L804.57,474.68L805.32,478.41L805.32,481.4L805.32,483.64L806.06,486.62L806.81,489.61L807.56,493.34L808.3,497.07" fill="none" stroke="#000000" style="-webkit-tap-highlight-color: rgba(0, 0, 0, 0); stroke-linecap: round; stroke-linejoin: round; stroke-width: 5;" /><path d="M785.91,212.71L785.91,213.46L785.17,214.2L784.42,214.95L784.42,216.44L784.42,217.94L783.67,219.43L783.67,220.17L782.93,222.41L782.18,225.4L781.43,227.64L781.43,229.88L780.69,232.12L780.69,235.1L779.2,239.58L778.45,242.57L778.45,244.8L778.45,247.79L778.45,251.52L778.45,253.76L777.7,256L776.96,258.99L776.21,261.97L776.21,265.7L775.46,267.94L775.46,270.93L775.46,272.42L775.46,276.15L775.46,276.9L775.46,279.14L775.46,281.38L775.46,283.62L776.21,287.35L776.21,294.81L776.96,296.3L776.96,297.8L776.96,300.78L776.96,303.77L777.7,310.48L777.7,314.96L777.7,320.93L777.7,323.92L777.7,327.65L777.7,330.64L778.45,335.11L778.45,337.35L778.45,340.34L778.45,343.32L778.45,345.56L778.45,347.8L779.2,352.28L779.2,355.27L779.2,358.25L779.94,361.98L779.94,364.22L779.94,367.21L779.94,369.45L780.69,372.43L781.43,376.16L781.43,376.91L781.43,379.15L782.18,381.39L782.18,385.12L782.93,388.1L783.67,390.34L783.67,393.33L783.67,395.57L783.67,399.3L783.67,401.54L782.93,403.78L782.93,406.76L782.93,409.75L783.67,412.73L783.67,415.72L783.67,419.45L783.67,423.18L783.67,427.66L783.67,430.65L783.67,433.63L783.67,435.87L782.93,440.35L782.93,443.34L782.18,446.32L781.43,449.31L780.69,452.29L780.69,456.02L779.94,458.26L779.94,460.5L779.2,462.74L779.2,466.47L779.2,468.71L779.2,473.19L779.2,473.94L779.2,477.67L779.94,480.65L779.94,483.64L779.94,485.88L780.69,489.61L780.69,491.85L780.69,494.83L780.69,497.07L780.69,499.31L781.43,500.8L782.18,502.3L782.93,502.3" fill="none" stroke="#000000" style="-webkit-tap-highlight-color: rgba(0, 0, 0, 0); stroke-linecap: round; stroke-linejoin: round; stroke-width: 5;" /><path d="M164.2,411.24L163.45,410.5L161.96,411.24L160.47,412.73L156.73,414.97L153,416.47L149.27,417.96L146.29,419.45L141.81,422.44L139.57,423.93L137.33,426.17L134.34,428.41L131.36,429.9L126.13,433.63L122.4,436.62L118.67,439.6L114.94,442.59L108.97,447.07L105.24,450.8L103,453.78L101.5,457.52L102.25,461.99L103.74,464.23L105.24,464.98L107.48,467.97L109.71,469.46L113.45,473.19L115.69,474.68L118.67,476.17L121.66,478.41L124.64,480.65L129.12,485.13L132.1,488.12L134.34,491.1L137.33,494.09L140.31,497.82L141.81,500.06L142.55,503.04L143.3,505.28L143.3,506.78L144.79,510.51L146.29,512.75L147.78,514.99L148.52,517.97L150.76,522.45L151.51,525.43L152.26,528.42L153,530.66L153.75,532.9L154.5,535.88L155.24,538.12L155.24,541.11L155.99,543.35L155.24,546.33L155.24,548.57L155.24,550.06L155.24,552.3L155.24,553.8L155.24,556.78L155.24,559.02L155.24,561.26L155.24,562.75L154.5,564.99L154.5,567.23L154.5,569.47L154.5,570.96L154.5,573.2L154.5,574.69L153.75,576.93L153.75,578.43L154.5,580.66L155.24,583.65L157.48,585.14L162.71,585.89" fill="none" stroke="#000000" style="-webkit-tap-highlight-color: rgba(0, 0, 0, 0); stroke-linecap: round; stroke-linejoin: round; stroke-width: 5;" /><path d="M380.64,246.3L379.9,244.06L379.9,243.31L379.15,244.06L376.91,247.79L375.42,250.78L373.92,254.51L372.43,258.99L371.69,262.72L370.19,267.2L369.45,270.18L368.7,273.17L367.95,276.15L367.95,279.88L367.95,282.87L367.95,285.11L368.7,288.09L368.7,291.83L369.45,296.3L370.94,301.53L370.94,303.02L371.69,306.01L373.18,311.23L374.67,313.47L374.67,315.71L376.16,317.95L376.91,323.17L377.66,325.41L379.15,329.14L380.64,332.13L381.39,335.11L383.63,339.59L384.37,343.32L385.12,345.56L386.61,347.06L388.1,352.28L389.6,355.27L391.09,359L393.33,362.73L394.82,367.21L397.81,373.18L400.05,376.91L402.29,380.64L403.78,383.63L405.27,388.1L406.02,390.34L406.76,391.84L406.76,394.08L407.51,396.31L407.51,397.81L407.51,400.05L408.26,402.29L409,403.78L409.75,406.02L409.75,409L410.5,409.75L411.24,410.5L411.99,411.99L413.48,414.23L415.72,417.21L417.21,418.71L417.96,420.94L419.45,423.93L422.44,426.92L424.68,429.15L426.17,430.65L427.66,432.14L429.15,434.38L431.39,437.36L434.38,438.86L436.62,441.1L440.35,443.34L442.59,444.83L444.83,447.07L446.32,448.56L448.56,450.8L450.8,453.04L453.04,456.02L453.78,457.52L455.28,460.5L456.77,463.49L457.52,464.98L458.26,467.22L459.76,468.71L459.76,470.2L460.5,472.44L461.25,474.68L461.25,475.43L461.99,476.92L464.23,479.91L465.73,482.15L467.22,483.64L468.71,485.88L470.2,487.37L473.19,488.86L476.92,491.1L479.16,491.85" fill="none" stroke="#000000" style="-webkit-tap-highlight-color: rgba(0, 0, 0, 0); stroke-linecap: round; stroke-linejoin: round; stroke-width: 5;" /></svg>