<?xml version="1.0" encoding="utf-8" ?>
<svg baseProfile="full" height="1383" version="1.1" width="1024" xmlns="http://www.w3.org/2000/svg" xmlns:ev="http://www.w3.org/2001/xml-events" xmlns:xlink="http://www.w3.org/1999/xlink"><defs /><path d="M261.58,193.39L259.1,193.39L256.62,195.87L256.62,200.83L254.14,205.79L254.14,210.75L251.66,215.71L249.18,218.19L249.18,223.15L246.7,228.11L246.7,230.59L244.22,233.07L241.74,238.02L239.26,240.5L234.31,242.98L231.83,242.98L229.35,245.46L224.39,247.94L221.91,247.94L219.43,250.42L214.47,252.9L211.99,255.38L207.03,255.38L202.07,257.86L199.59,257.86L197.11,257.86L194.63,257.86L192.15,257.86L189.68,257.86L187.2,257.86L184.72,257.86L182.24,257.86L179.76,257.86L177.28,255.38L174.8,252.9L172.32,252.9L167.36,252.9L164.88,252.9L157.44,250.42L154.96,250.42L152.48,247.94L147.53,245.46L145.05,245.46L140.09,245.46L137.61,242.98L135.13,242.98L132.65,238.02L130.17,235.54L125.21,233.07L120.25,230.59L117.77,228.11L110.33,225.63L105.38,223.15L100.42,223.15L92.98,220.67L88.02,220.67L83.06,220.67L75.62,218.19L70.66,218.19L65.7,218.19L60.75,218.19L55.79,215.71L50.83,215.71L45.87,215.71L40.91,215.71L38.43,215.71L33.47,213.23L28.51,213.23L23.55,213.23L21.08,213.23L16.12,213.23L13.64,213.23L8.68,210.75L6.2,210.75" fill="none" stroke="#000000" style="-webkit-tap-highlight-color: rgba(0, 0, 0, 0); stroke-linecap: round; stroke-linejoin: round; stroke-width: 6;" /><path d="M259.1,190.92L256.62,190.92L259.1,188.44L259.1,185.96L264.06,183.48L269.02,181L273.98,176.04L276.46,173.56L281.41,171.08L288.85,171.08L293.81,168.6L298.77,166.12L306.21,163.64L313.65,163.64L321.08,161.16L326.04,161.16L333.48,158.68L338.44,158.68L345.88,156.2L350.84,156.2L353.32,153.72L358.28,153.72L360.76,153.72L365.71,151.24L370.67,148.77L375.63,148.77L380.59,146.29L385.55,143.81L390.51,143.81L395.47,143.81L402.91,141.33L412.82,138.85L420.26,136.37L425.22,136.37L432.66,133.89L437.62,133.89L442.58,133.89L450.01,133.89L454.97,131.41L459.93,131.41L462.41,131.41L467.37,131.41L472.33,131.41L477.29,128.93L479.77,128.93L484.73,128.93L489.69,128.93L497.12,128.93L502.08,128.93L509.52,128.93L514.48,126.45L516.96,126.45L521.92,126.45L529.36,126.45L534.31,126.45L539.27,126.45L541.75,123.97L549.19,123.97L554.15,123.97L561.59,123.97L566.55,123.97L571.51,123.97L578.94,123.97L583.9,123.97L588.86,123.97L593.82,123.97L601.26,123.97L608.7,123.97L613.66,123.97L618.62,123.97L621.09,123.97L626.05,123.97L631.01,123.97L633.49,123.97L638.45,123.97L643.41,123.97L645.89,123.97L650.85,123.97L653.33,126.45L658.29,126.45L663.24,126.45L665.72,126.45L670.68,126.45L675.64,126.45L678.12,126.45L680.6,126.45" fill="none" stroke="#000000" style="-webkit-tap-highlight-color: rgba(0, 0, 0, 0); stroke-linecap: round; stroke-linejoin: round; stroke-width: 6;" /><path d="M683.08,126.45L685.56,123.97L688.04,121.49L693,119.01L695.48,114.05L697.96,109.09L700.44,104.14L700.44,99.18L702.92,94.22L702.92,86.78L705.39,81.82L705.39,76.86L707.87,69.42L710.35,64.46L710.35,57.03L712.83,52.07L712.83,47.11L715.31,39.67L717.79,32.23L717.79,24.79L717.79,14.88L717.79,7.44L717.79,2.48L717.79,0L717.79,2.48" fill="none" stroke="#000000" style="-webkit-tap-highlight-color: rgba(0, 0, 0, 0); stroke-linecap: round; stroke-linejoin: round; stroke-width: 6;" /><path d="M695.48,123.97L695.48,128.93L695.48,133.89L695.48,138.85L695.48,143.81L695.48,151.24L695.48,158.68L697.96,166.12L697.96,173.56L700.44,178.52L700.44,185.96L700.44,193.39L700.44,203.31L700.44,213.23L700.44,220.67L697.96,228.11L697.96,235.54L697.96,242.98L697.96,252.9L695.48,262.82L695.48,270.26L695.48,277.69L693,285.13L693,295.05L690.52,304.97L688.04,312.41L688.04,319.85L688.04,327.28L688.04,334.72L688.04,342.16L688.04,349.6L688.04,354.56L688.04,362L688.04,369.43L688.04,376.87L688.04,384.31L688.04,391.75L688.04,399.19L688.04,404.15L688.04,414.06L688.04,421.5L688.04,426.46L690.52,433.9L690.52,441.34L690.52,448.77L690.52,456.21L690.52,463.65L690.52,468.61L690.52,473.57L690.52,478.53L690.52,485.97L690.52,493.4L690.52,503.32L690.52,508.28L690.52,515.72L690.52,520.68L690.52,525.64L690.52,530.6L690.52,538.03L690.52,545.47L690.52,550.43L690.52,557.87L690.52,562.83L690.52,570.27L690.52,577.7L690.52,585.14L690.52,592.58L690.52,600.02L690.52,609.94L690.52,619.85L690.52,627.29L690.52,629.77L693,632.25" fill="none" stroke="#000000" style="-webkit-tap-highlight-color: rgba(0, 0, 0, 0); stroke-linecap: round; stroke-linejoin: round; stroke-width: 6;" /><path d="M693,629.77L693,632.25L693,634.73L693,637.21L695.48,647.13L697.96,652.09L697.96,654.57L697.96,657.05L695.48,659.53L695.48,662L693,669.44L690.52,671.92L690.52,674.4L688.04,676.88L688.04,679.36L688.04,681.84L685.56,681.84L685.56,684.32L685.56,686.8L683.08,686.8L683.08,689.28L680.6,689.28L680.6,691.76L680.6,694.24L680.6,696.72L680.6,699.2L680.6,701.68L680.6,704.15L678.12,709.11L678.12,714.07L678.12,719.03L678.12,723.99L678.12,728.95L680.6,733.91L680.6,736.39L680.6,741.35L680.6,748.78L680.6,756.22L683.08,761.18L683.08,768.62L683.08,773.58L683.08,781.02L683.08,785.98L683.08,793.41L683.08,800.85L683.08,808.29L683.08,815.73L683.08,823.17L683.08,830.61L683.08,838.04L683.08,845.48L683.08,852.92L683.08,860.36L683.08,867.8L683.08,872.76L683.08,880.19L683.08,887.63L683.08,895.07L683.08,902.51L683.08,907.47L683.08,914.91L685.56,919.86L685.56,924.82L685.56,929.78L688.04,934.74L688.04,942.18L688.04,947.14L688.04,954.58L688.04,959.54L688.04,969.45L688.04,974.41L688.04,979.37L688.04,986.81L690.52,996.73L690.52,1006.64L690.52,1009.12L690.52,1019.04L690.52,1031.44L690.52,1046.31L690.52,1048.79" fill="none" stroke="#000000" style="-webkit-tap-highlight-color: rgba(0, 0, 0, 0); stroke-linecap: round; stroke-linejoin: round; stroke-width: 6;" /><path d="M705.39,659.53L705.39,657.05L705.39,654.57L705.39,652.09L705.39,654.57L705.39,659.53L705.39,664.48L702.92,671.92L700.44,684.32L700.44,696.72L700.44,709.11L700.44,716.55L700.44,726.47L700.44,738.87L700.44,748.78L700.44,758.7L700.44,768.62L700.44,781.02L702.92,790.93L705.39,808.29L705.39,815.73L705.39,825.65L705.39,833.08L707.87,843L707.87,850.44L707.87,855.4L710.35,865.32L710.35,872.76L710.35,882.67L710.35,892.59L710.35,902.51L710.35,912.43L710.35,919.86L710.35,927.3L710.35,937.22L710.35,944.66L710.35,954.58L710.35,962.01L712.83,969.45L712.83,979.37L712.83,991.77L715.31,1004.16L715.31,1019.04L712.83,1033.92L712.83,1046.31L712.83,1053.75" fill="none" stroke="#000000" style="-webkit-tap-highlight-color: rgba(0, 0, 0, 0); stroke-linecap: round; stroke-linejoin: round; stroke-width: 6;" /><path d="M772.34,629.77L767.38,629.77L767.38,632.25L767.38,644.65L767.38,654.57L767.38,666.96L767.38,676.88L767.38,686.8L769.86,699.2L769.86,711.59L769.86,721.51L772.34,731.43L772.34,743.83L772.34,756.22L774.82,768.62L774.82,776.06L774.82,783.5L777.3,790.93L777.3,800.85L777.3,810.77L779.78,820.69L779.78,830.61L779.78,840.52L779.78,847.96L779.78,855.4L782.26,865.32L782.26,875.23L784.74,885.15L784.74,895.07L784.74,904.99L787.22,912.43L789.69,919.86L789.69,927.3L792.17,934.74L792.17,942.18L794.65,949.62L794.65,957.06L794.65,964.49L797.13,969.45L797.13,974.41L797.13,981.85L797.13,989.29L799.61,994.25L799.61,999.21L799.61,1006.64L799.61,1011.6L802.09,1019.04L802.09,1026.48L804.57,1033.92L804.57,1043.84L807.05,1056.23L807.05,1063.67L807.05,1071.11L807.05,1073.59" fill="none" stroke="#000000" style="-webkit-tap-highlight-color: rgba(0, 0, 0, 0); stroke-linecap: round; stroke-linejoin: round; stroke-width: 6;" /><path d="M908.71,14.88L908.71,12.4L908.71,9.92L906.23,9.92L906.23,14.88L903.75,22.31L901.27,29.75L898.79,37.19L896.31,44.63L893.83,54.55L891.35,61.99L888.87,69.42L888.87,79.34L886.39,89.26L886.39,96.7L883.91,106.62L883.91,114.05L881.43,121.49L878.95,128.93L878.95,136.37L878.95,141.33L878.95,146.29L878.95,151.24L878.95,158.68L876.47,163.64L874,168.6L874,173.56L871.52,178.52L871.52,183.48L869.04,190.92L869.04,195.87L866.56,203.31L864.08,210.75L864.08,215.71L861.6,223.15L861.6,228.11L859.12,233.07L859.12,238.02L859.12,245.46L859.12,252.9L859.12,260.34L859.12,267.78L856.64,275.22L856.64,280.17L856.64,285.13L856.64,290.09L856.64,295.05L856.64,302.49L856.64,309.93L856.64,314.89L859.12,319.85L859.12,324.8L859.12,329.76L861.6,334.72L861.6,342.16L861.6,349.6L859.12,357.04L859.12,364.47L859.12,371.91L859.12,379.35L856.64,384.31L856.64,391.75L856.64,399.19L854.16,406.62L854.16,414.06L854.16,421.5L854.16,428.94L854.16,436.38L851.68,443.82L851.68,451.25L849.2,456.21L849.2,463.65L846.72,471.09L846.72,478.53L844.24,483.49L841.76,490.92L841.76,495.88L839.28,503.32L836.8,508.28L834.32,515.72L829.37,523.16L826.89,530.6L824.41,535.55L821.93,542.99L819.45,547.95L816.97,552.91L814.49,557.87L809.53,562.83L807.05,567.79L804.57,572.75L802.09,577.7L799.61,582.66L794.65,590.1L792.17,600.02L787.22,607.46L782.26,617.38L777.3,629.77L772.34,642.17L772.34,652.09" fill="none" stroke="#000000" style="-webkit-tap-highlight-color: rgba(0, 0, 0, 0); stroke-linecap: round; stroke-linejoin: round; stroke-width: 6;" /><path d="M782.26,32.23L782.26,34.71L782.26,39.67L782.26,42.15L782.26,49.59L782.26,57.03L782.26,66.94L782.26,81.82L782.26,96.7L782.26,111.57L782.26,123.97L782.26,138.85L782.26,153.72L782.26,168.6L782.26,183.48L779.78,195.87L779.78,210.75L779.78,223.15L779.78,235.54L779.78,245.46L779.78,255.38L782.26,265.3L782.26,275.22L782.26,282.65L782.26,292.57L782.26,302.49L782.26,309.93L782.26,317.37L782.26,324.8L782.26,332.24L782.26,339.68L782.26,349.6L782.26,357.04L782.26,364.47L782.26,371.91L782.26,376.87L782.26,384.31L782.26,391.75L782.26,396.71L782.26,401.67L779.78,406.62L779.78,414.06L779.78,419.02L779.78,426.46L779.78,433.9L777.3,438.86L774.82,451.25L772.34,458.69L772.34,466.13L769.86,471.09L769.86,476.05L769.86,483.49L767.38,488.45L767.38,495.88L767.38,500.84L764.9,505.8L764.9,513.24L764.9,520.68L762.42,528.12L762.42,535.55L759.94,547.95L759.94,560.35L759.94,572.75L759.94,585.14L759.94,602.5L762.42,619.85L764.9,637.21" fill="none" stroke="#000000" style="-webkit-tap-highlight-color: rgba(0, 0, 0, 0); stroke-linecap: round; stroke-linejoin: round; stroke-width: 6;" /><path d="M365.71,525.64L363.23,523.16L360.76,523.16L360.76,528.12L360.76,533.08L358.28,538.03L358.28,542.99L355.8,547.95L353.32,557.87L350.84,565.31L350.84,575.23L350.84,580.18L350.84,587.62L350.84,592.58L350.84,600.02L350.84,607.46L350.84,614.9L350.84,622.33L350.84,629.77L350.84,634.73L350.84,642.17L350.84,647.13L350.84,652.09L350.84,659.53L350.84,666.96L350.84,671.92L350.84,679.36L350.84,684.32L350.84,691.76L350.84,696.72L350.84,704.15L348.36,711.59L348.36,719.03L348.36,726.47L348.36,731.43L348.36,738.87L348.36,743.83L348.36,748.78L348.36,756.22L348.36,763.66L348.36,771.1L348.36,776.06L348.36,783.5L348.36,788.46L348.36,795.89L348.36,803.33L348.36,808.29L348.36,813.25L348.36,818.21L348.36,823.17L348.36,828.13L348.36,835.56L348.36,840.52L348.36,845.48L348.36,850.44L348.36,857.88L348.36,862.84L348.36,867.8L348.36,875.23L348.36,882.67L348.36,887.63L345.88,892.59L345.88,900.03L345.88,907.47L345.88,912.43L345.88,919.86L345.88,924.82L343.4,929.78L343.4,934.74L343.4,942.18L343.4,952.1L343.4,962.01L343.4,976.89L343.4,991.77L343.4,1006.64L340.92,1024L340.92,1038.88L340.92,1043.84" fill="none" stroke="#000000" style="-webkit-tap-highlight-color: rgba(0, 0, 0, 0); stroke-linecap: round; stroke-linejoin: round; stroke-width: 6;" /><path d="M360.76,538.03L360.76,540.51L360.76,538.03L363.23,538.03L365.71,533.08L365.71,530.6L370.67,525.64L370.67,520.68L373.15,515.72L375.63,513.24L378.11,508.28L383.07,503.32L385.55,498.36L390.51,493.4L392.99,490.92L395.47,485.97L397.95,483.49L402.91,481.01L405.38,478.53L410.34,473.57L412.82,471.09L417.78,468.61L420.26,466.13L422.74,463.65L425.22,461.17L430.18,458.69L435.14,456.21L440.1,451.25L445.06,451.25L450.01,448.77L452.49,448.77L462.41,446.3L467.37,443.82L472.33,443.82L474.81,443.82L479.77,443.82L484.73,441.34L489.69,441.34L494.64,438.86L497.12,438.86L502.08,438.86L504.56,436.38L509.52,436.38L512,436.38L516.96,436.38L521.92,436.38L524.4,436.38L526.88,436.38L529.36,436.38L534.31,436.38L536.79,436.38L541.75,436.38L544.23,436.38L549.19,436.38L551.67,438.86L556.63,438.86L559.11,441.34L561.59,441.34L564.07,443.82L566.55,446.3L569.03,446.3L571.51,448.77L573.99,451.25L576.46,451.25L578.94,456.21L581.42,458.69L583.9,461.17L586.38,461.17L588.86,463.65L591.34,466.13L593.82,468.61L596.3,471.09L601.26,473.57L601.26,476.05L603.74,478.53L608.7,481.01L611.18,483.49L613.66,485.97L616.14,485.97L618.62,488.45L621.09,490.92L623.57,493.4L626.05,495.88L628.53,495.88L631.01,498.36L633.49,498.36L635.97,500.84L635.97,503.32L638.45,505.8L640.93,508.28L640.93,510.76L643.41,513.24L643.41,515.72L645.89,520.68L648.37,523.16L648.37,525.64L650.85,528.12L653.33,533.08L653.33,538.03L655.81,540.51L658.29,545.47L658.29,550.43L663.24,552.91L665.72,555.39" fill="none" stroke="#000000" style="-webkit-tap-highlight-color: rgba(0, 0, 0, 0); stroke-linecap: round; stroke-linejoin: round; stroke-width: 6;" /><path d="M660.77,555.39L660.77,550.43L655.81,547.95L655.81,552.91L655.81,557.87L660.77,567.79L660.77,572.75L663.24,577.7L663.24,585.14L663.24,590.1L665.72,595.06L665.72,600.02L665.72,604.98L665.72,609.94L665.72,612.42L665.72,617.38L665.72,619.85L665.72,622.33L665.72,624.81L665.72,627.29L665.72,629.77L665.72,632.25L665.72,634.73L665.72,637.21L665.72,639.69L665.72,642.17L665.72,644.65L665.72,647.13L668.2,649.61L668.2,652.09L668.2,654.57L668.2,657.05L668.2,659.53L670.68,662L670.68,664.48L670.68,666.96L670.68,671.92L670.68,674.4L670.68,679.36L673.16,689.28L670.68,701.68L670.68,726.47" fill="none" stroke="#000000" style="-webkit-tap-highlight-color: rgba(0, 0, 0, 0); stroke-linecap: round; stroke-linejoin: round; stroke-width: 6;" /><path d="M363.23,592.58L365.71,592.58L365.71,587.62L368.19,585.14L368.19,580.18L368.19,577.7L370.67,575.23L370.67,570.27L373.15,565.31L375.63,560.35L378.11,555.39L380.59,552.91L383.07,547.95L385.55,542.99L390.51,540.51L392.99,535.55L397.95,530.6L400.43,525.64L402.91,523.16L405.38,520.68L407.86,518.2L410.34,515.72L412.82,510.76L417.78,505.8L420.26,503.32L422.74,500.84L425.22,498.36L427.7,495.88L432.66,493.4L435.14,490.92L437.62,488.45L442.58,488.45L445.06,488.45L447.54,485.97L452.49,483.49L454.97,483.49L457.45,481.01L459.93,478.53L464.89,478.53L467.37,478.53L472.33,476.05L474.81,476.05L479.77,473.57L484.73,473.57L489.69,471.09L494.64,468.61L499.6,468.61L504.56,468.61L507.04,468.61L512,468.61L516.96,468.61L519.44,468.61L521.92,468.61L524.4,471.09L526.88,471.09L529.36,473.57L531.84,473.57L534.31,473.57L539.27,476.05L541.75,476.05L544.23,476.05L546.71,476.05L549.19,476.05L551.67,478.53L556.63,478.53L556.63,481.01L559.11,481.01L561.59,483.49L566.55,485.97L569.03,485.97L571.51,488.45L573.99,490.92L578.94,493.4L581.42,495.88L583.9,498.36L586.38,500.84L588.86,503.32L591.34,503.32L593.82,505.8L593.82,508.28L596.3,508.28L596.3,510.76L598.78,510.76L601.26,513.24L603.74,515.72L606.22,518.2L608.7,520.68L608.7,523.16L611.18,525.64L611.18,528.12L613.66,530.6L616.14,533.08L616.14,535.55L618.62,538.03L621.09,538.03L621.09,540.51L623.57,542.99L623.57,545.47L623.57,547.95L626.05,550.43L626.05,552.91L626.05,555.39L628.53,557.87L628.53,562.83L628.53,565.31L628.53,567.79L628.53,570.27L631.01,572.75L631.01,577.7L631.01,580.18L631.01,582.66L631.01,585.14L631.01,587.62L631.01,592.58L631.01,595.06L628.53,600.02L628.53,604.98L628.53,607.46L628.53,609.94L628.53,614.9L628.53,622.33L628.53,627.29L628.53,634.73L628.53,639.69L628.53,644.65L628.53,649.61L628.53,657.05L628.53,662L628.53,666.96L628.53,671.92L628.53,676.88L628.53,681.84L626.05,684.32L626.05,689.28L626.05,694.24L626.05,699.2L626.05,704.15L626.05,706.63L626.05,711.59L626.05,719.03L623.57,723.99L623.57,728.95L623.57,731.43L623.57,736.39L623.57,741.35L623.57,748.78L623.57,756.22L623.57,761.18L623.57,763.66L623.57,768.62L623.57,776.06L623.57,783.5L623.57,790.93L623.57,795.89L623.57,803.33L623.57,810.77L623.57,815.73L626.05,820.69L626.05,825.65L626.05,830.61L626.05,838.04L626.05,845.48L626.05,852.92L626.05,860.36L626.05,865.32L628.53,870.28L628.53,877.71L628.53,885.15L628.53,892.59L628.53,900.03L628.53,907.47L628.53,912.43L628.53,917.38L628.53,924.82L628.53,929.78L628.53,937.22L628.53,942.18L631.01,949.62L631.01,952.1L631.01,957.06L631.01,962.01L633.49,969.45L633.49,976.89L633.49,984.33L633.49,991.77L635.97,1001.69L635.97,1011.6L635.97,1019.04L635.97,1026.48L638.45,1036.4L638.45,1038.88" fill="none" stroke="#000000" style="-webkit-tap-highlight-color: rgba(0, 0, 0, 0); stroke-linecap: round; stroke-linejoin: round; stroke-width: 6;" /><path d="M397.95,533.08L397.95,530.6L397.95,533.08L397.95,538.03L397.95,540.51L397.95,542.99L397.95,545.47L397.95,550.43L397.95,557.87L397.95,565.31L400.43,572.75L400.43,580.18L400.43,585.14L400.43,590.1L400.43,597.54L397.95,604.98L397.95,609.94L395.47,614.9L395.47,617.38L395.47,622.33L395.47,629.77L395.47,634.73L392.99,642.17L392.99,647.13L392.99,654.57L392.99,659.53L392.99,666.96L392.99,674.4L392.99,681.84L392.99,686.8L390.51,694.24L390.51,701.68L390.51,709.11L390.51,714.07L390.51,721.51L388.03,728.95L388.03,736.39L388.03,741.35L388.03,746.31L388.03,753.74L388.03,758.7L388.03,766.14L388.03,771.1L388.03,776.06L388.03,783.5L388.03,788.46L388.03,793.41L388.03,798.37L388.03,803.33L388.03,808.29L388.03,813.25L388.03,815.73L390.51,820.69L390.51,823.17L390.51,825.65L390.51,828.13L390.51,833.08L390.51,838.04L390.51,840.52L390.51,845.48L390.51,850.44L390.51,855.4L388.03,862.84L388.03,870.28L388.03,877.71L388.03,882.67L388.03,890.11L388.03,897.55L388.03,904.99L388.03,912.43L388.03,919.86L388.03,927.3L388.03,934.74L388.03,939.7L388.03,947.14L385.55,952.1L385.55,959.54L385.55,969.45L388.03,976.89L388.03,984.33L388.03,989.29L388.03,991.77L388.03,996.73L388.03,1001.69L388.03,1009.12L388.03,1016.56L388.03,1024L388.03,1033.92L388.03,1043.84L388.03,1053.75L388.03,1058.71L390.51,1058.71" fill="none" stroke="#000000" style="-webkit-tap-highlight-color: rgba(0, 0, 0, 0); stroke-linecap: round; stroke-linejoin: round; stroke-width: 6;" /><path d="M355.8,751.26L353.32,753.74L350.84,756.22L350.84,758.7L350.84,756.22L353.32,753.74L355.8,753.74L358.28,753.74L363.23,751.26L368.19,748.78L375.63,748.78L380.59,748.78L383.07,751.26L385.55,753.74L388.03,756.22" fill="none" stroke="#000000" style="-webkit-tap-highlight-color: rgba(0, 0, 0, 0); stroke-linecap: round; stroke-linejoin: round; stroke-width: 6;" /><path d="M368.19,572.75L368.19,575.23L368.19,580.18L368.19,585.14L365.71,590.1L365.71,595.06L363.23,602.5L360.76,614.9L360.76,624.81L358.28,632.25L358.28,639.69L358.28,647.13L358.28,657.05L358.28,666.96L358.28,676.88L358.28,681.84L358.28,689.28L358.28,696.72L358.28,706.63L358.28,716.55L358.28,723.99L358.28,731.43L358.28,736.39L358.28,741.35L358.28,748.78L360.76,758.7L360.76,763.66L360.76,766.14L360.76,768.62" fill="none" stroke="#000000" style="-webkit-tap-highlight-color: rgba(0, 0, 0, 0); stroke-linecap: round; stroke-linejoin: round; stroke-width: 6;" /><path d="M306.21,530.6L306.21,535.55L303.73,545.47L301.25,575.23L301.25,585.14L303.73,590.1L303.73,595.06L306.21,597.54L306.21,600.02L308.69,602.5L311.17,604.98L311.17,607.46L311.17,612.42L313.65,614.9L313.65,617.38L316.13,622.33L316.13,624.81L316.13,629.77L318.61,634.73L321.08,639.69L321.08,644.65L321.08,649.61L323.56,654.57L323.56,659.53L323.56,664.48L323.56,671.92L323.56,676.88L323.56,681.84L323.56,689.28L323.56,699.2L323.56,709.11L323.56,719.03L323.56,726.47L323.56,733.91L321.08,738.87L321.08,746.31L321.08,756.22L321.08,761.18L318.61,768.62L318.61,773.58L318.61,778.54L316.13,785.98L316.13,793.41L316.13,800.85L316.13,808.29L316.13,813.25L313.65,820.69L313.65,828.13L313.65,835.56L313.65,843L313.65,852.92L313.65,860.36L313.65,867.8L313.65,877.71L313.65,887.63L311.17,897.55L311.17,904.99L311.17,912.43L311.17,919.86L311.17,929.78L311.17,939.7L311.17,947.14L311.17,957.06L311.17,966.97L311.17,974.41L311.17,984.33L313.65,994.25L313.65,1004.16L313.65,1014.08L316.13,1026.48L316.13,1041.36L316.13,1058.71L316.13,1078.55L316.13,1098.38L316.13,1118.22L321.08,1128.14" fill="none" stroke="#000000" style="-webkit-tap-highlight-color: rgba(0, 0, 0, 0); stroke-linecap: round; stroke-linejoin: round; stroke-width: 6;" /><path d="M301.25,190.92L298.77,190.92L298.77,193.39L298.77,200.83L298.77,208.27L298.77,215.71L298.77,223.15L298.77,230.59L298.77,240.5L298.77,250.42L298.77,262.82L301.25,272.74L301.25,280.17L303.73,290.09L306.21,297.53L306.21,307.45L306.21,314.89L306.21,322.32L306.21,329.76L306.21,337.2L308.69,344.64L308.69,349.6L308.69,357.04L308.69,364.47L308.69,371.91L308.69,379.35L308.69,384.31L308.69,391.75L311.17,399.19L311.17,409.1L311.17,416.54L311.17,423.98L311.17,431.42L308.69,438.86L308.69,446.3L308.69,453.73L308.69,458.69L308.69,466.13L308.69,473.57L306.21,481.01L306.21,485.97L306.21,493.4L303.73,500.84L303.73,508.28L303.73,515.72L303.73,520.68L303.73,525.64L303.73,530.6L303.73,538.03L301.25,542.99L301.25,550.43L301.25,557.87L301.25,567.79L301.25,575.23L303.73,585.14L303.73,595.06L306.21,604.98L306.21,609.94" fill="none" stroke="#000000" style="-webkit-tap-highlight-color: rgba(0, 0, 0, 0); stroke-linecap: round; stroke-linejoin: round; stroke-width: 6;" /><path d="M298.77,401.67L298.77,404.15L296.29,409.1L291.33,423.98L288.85,433.9L286.37,441.34L283.89,448.77L281.41,456.21L278.93,461.17L278.93,463.65L276.46,468.61L273.98,473.57L273.98,478.53L271.5,485.97L269.02,490.92L266.54,498.36L266.54,505.8L264.06,513.24L264.06,518.2L261.58,525.64L261.58,533.08L261.58,542.99L259.1,547.95L259.1,555.39L259.1,562.83L256.62,570.27L256.62,577.7L256.62,585.14L256.62,595.06L256.62,600.02L254.14,607.46L254.14,612.42L254.14,619.85L254.14,627.29L251.66,634.73L251.66,642.17L251.66,647.13L249.18,652.09L249.18,654.57L249.18,662L249.18,666.96L246.7,671.92L246.7,679.36L244.22,686.8L244.22,694.24L244.22,701.68L241.74,709.11L241.74,714.07L241.74,721.51L241.74,728.95L241.74,736.39L239.26,746.31L239.26,753.74L236.78,761.18L234.31,768.62L234.31,778.54L234.31,785.98L234.31,793.41L234.31,800.85L234.31,815.73L234.31,823.17L231.83,830.61L231.83,840.52L231.83,847.96L231.83,855.4L231.83,860.36L231.83,867.8L231.83,875.23L231.83,882.67L234.31,890.11L234.31,895.07L234.31,900.03L234.31,907.47L234.31,912.43L234.31,917.38L234.31,924.82L234.31,929.78L236.78,934.74L236.78,937.22L236.78,942.18L236.78,949.62L236.78,962.01L236.78,974.41L236.78,984.33L234.31,994.25L229.35,1004.16L224.39,1016.56L221.91,1021.52" fill="none" stroke="#000000" style="-webkit-tap-highlight-color: rgba(0, 0, 0, 0); stroke-linecap: round; stroke-linejoin: round; stroke-width: 6;" /><path d="M283.89,401.67L281.41,404.15L278.93,406.62L278.93,409.1L276.46,411.58L276.46,414.06L271.5,419.02L269.02,426.46L264.06,436.38L259.1,446.3L256.62,453.73L254.14,461.17L251.66,468.61L246.7,478.53L241.74,490.92L236.78,500.84L234.31,510.76L231.83,515.72L231.83,523.16L229.35,533.08L226.87,545.47L224.39,557.87L221.91,567.79L221.91,575.23L221.91,582.66L221.91,592.58L221.91,600.02L221.91,607.46L219.43,617.38L219.43,629.77L219.43,639.69L219.43,652.09L219.43,664.48L219.43,674.4L219.43,684.32L219.43,694.24L219.43,706.63L216.95,716.55L216.95,726.47L216.95,738.87L216.95,748.78L216.95,758.7L214.47,763.66L214.47,771.1L214.47,778.54L214.47,788.46L214.47,798.37L214.47,808.29L214.47,813.25L214.47,820.69L214.47,838.04L214.47,850.44L211.99,865.32L211.99,877.71L211.99,885.15L211.99,895.07L211.99,904.99L211.99,917.38L211.99,929.78L211.99,942.18L209.51,954.58L209.51,966.97L207.03,979.37L207.03,991.77L207.03,1001.69L207.03,1006.64L207.03,1014.08L207.03,1024L207.03,1033.92L207.03,1043.84L207.03,1051.27L207.03,1061.19L207.03,1073.59L207.03,1085.99L209.51,1098.38L209.51,1115.74L211.99,1130.62L211.99,1145.49L211.99,1160.37L211.99,1165.33" fill="none" stroke="#000000" style="-webkit-tap-highlight-color: rgba(0, 0, 0, 0); stroke-linecap: round; stroke-linejoin: round; stroke-width: 6;" /><path d="M23.55,1160.37L21.08,1160.37L8.68,1157.89L13.64,1155.41L26.03,1160.37L30.99,1162.85L40.91,1165.33L50.83,1165.33L63.23,1165.33L70.66,1167.81L80.58,1170.29L90.5,1175.24L97.94,1175.24L107.85,1175.24L117.77,1175.24L125.21,1175.24L132.65,1175.24L137.61,1175.24L145.05,1175.24L152.48,1172.77L159.92,1172.77L167.36,1170.29L174.8,1167.81L182.24,1165.33L187.2,1165.33L192.15,1165.33L197.11,1162.85L202.07,1160.37L204.55,1160.37L207.03,1160.37L209.51,1160.37L211.99,1160.37L214.47,1157.89L216.95,1157.89L219.43,1157.89L221.91,1157.89L221.91,1155.41L224.39,1155.41L229.35,1155.41L234.31,1155.41L236.78,1157.89L239.26,1160.37L244.22,1160.37L246.7,1160.37L251.66,1160.37L254.14,1160.37L256.62,1160.37L259.1,1160.37L261.58,1157.89L264.06,1157.89L264.06,1155.41L269.02,1152.93L273.98,1147.97L281.41,1140.53L286.37,1135.57L293.81,1133.09L298.77,1128.14L306.21,1125.66L311.17,1120.7L313.65,1118.22L316.13,1115.74L316.13,1113.26" fill="none" stroke="#000000" style="-webkit-tap-highlight-color: rgba(0, 0, 0, 0); stroke-linecap: round; stroke-linejoin: round; stroke-width: 6;" /><path d="M328.52,1110.78L326.04,1110.78L323.56,1110.78L323.56,1108.3L326.04,1105.82L331,1103.34L333.48,1100.86L335.96,1095.9L340.92,1088.46L345.88,1083.51L353.32,1078.55L358.28,1073.59L360.76,1071.11L363.23,1071.11L365.71,1068.63L368.19,1066.15L370.67,1066.15L373.15,1063.67L375.63,1063.67L380.59,1061.19L383.07,1061.19L388.03,1061.19L392.99,1058.71L397.95,1058.71L402.91,1058.71L407.86,1058.71L412.82,1058.71L420.26,1058.71L425.22,1058.71L430.18,1058.71L437.62,1058.71L442.58,1058.71L450.01,1058.71L457.45,1058.71L467.37,1058.71L477.29,1056.23L487.21,1056.23L494.64,1056.23L502.08,1056.23L509.52,1056.23L516.96,1056.23L521.92,1056.23L529.36,1056.23L536.79,1056.23L546.71,1056.23L554.15,1053.75L561.59,1053.75L569.03,1053.75L573.99,1053.75L581.42,1053.75L586.38,1051.27L593.82,1051.27L598.78,1051.27L606.22,1048.79L611.18,1048.79L618.62,1048.79L626.05,1048.79L633.49,1048.79L640.93,1048.79L645.89,1046.31L648.37,1046.31L653.33,1043.84" fill="none" stroke="#000000" style="-webkit-tap-highlight-color: rgba(0, 0, 0, 0); stroke-linecap: round; stroke-linejoin: round; stroke-width: 6;" /><path d="M400.43,1028.96L400.43,1026.48L405.38,1026.48L407.86,1026.48L417.78,1026.48L427.7,1026.48L435.14,1026.48L445.06,1026.48L454.97,1026.48L464.89,1026.48L477.29,1026.48L492.16,1024L504.56,1024L514.48,1024L524.4,1024L534.31,1024L544.23,1024L554.15,1024L561.59,1024L566.55,1024L573.99,1024L581.42,1024L588.86,1021.52L591.34,1021.52L596.3,1021.52L601.26,1021.52L606.22,1021.52L613.66,1021.52L618.62,1021.52L623.57,1021.52L628.53,1021.52L633.49,1021.52" fill="none" stroke="#000000" style="-webkit-tap-highlight-color: rgba(0, 0, 0, 0); stroke-linecap: round; stroke-linejoin: round; stroke-width: 6;" /><path d="M623.57,895.07L623.57,892.59L623.57,890.11L621.09,890.11L618.62,892.59L616.14,895.07L611.18,895.07L608.7,900.03L606.22,904.99L603.74,909.95L603.74,917.38L603.74,922.34L606.22,929.78L606.22,934.74L606.22,942.18L606.22,949.62L606.22,954.58L606.22,959.54L603.74,964.49L603.74,971.93L601.26,976.89L601.26,981.85L598.78,986.81L596.3,989.29L596.3,991.77L591.34,991.77L588.86,994.25L583.9,994.25L581.42,994.25L576.46,996.73L573.99,996.73L571.51,996.73L571.51,999.21L569.03,1001.69L569.03,1006.64L566.55,1014.08L564.07,1021.52L561.59,1026.48L561.59,1031.44L561.59,1033.92" fill="none" stroke="#000000" style="-webkit-tap-highlight-color: rgba(0, 0, 0, 0); stroke-linecap: round; stroke-linejoin: round; stroke-width: 6;" /><path d="M388.03,885.15L385.55,882.67L385.55,885.15L385.55,887.63L390.51,890.11L395.47,895.07L402.91,897.55L405.38,902.51L407.86,904.99L410.34,907.47L412.82,909.95L412.82,912.43L415.3,914.91L415.3,919.86L417.78,922.34L417.78,927.3L417.78,932.26L417.78,937.22L417.78,944.66L417.78,952.1L417.78,957.06L417.78,964.49L417.78,969.45L415.3,974.41L415.3,979.37L415.3,984.33L415.3,989.29L415.3,996.73L415.3,1001.69L415.3,1009.12L415.3,1014.08L415.3,1021.52L417.78,1028.96L417.78,1033.92" fill="none" stroke="#000000" style="-webkit-tap-highlight-color: rgba(0, 0, 0, 0); stroke-linecap: round; stroke-linejoin: round; stroke-width: 6;" /><path d="M640.93,1053.75L643.41,1051.27L648.37,1051.27L658.29,1051.27L663.24,1048.79L670.68,1048.79L673.16,1046.31L678.12,1046.31L680.6,1048.79L688.04,1048.79L690.52,1048.79L693,1048.79L695.48,1051.27L697.96,1051.27L700.44,1051.27L705.39,1053.75L710.35,1056.23L715.31,1058.71L717.79,1061.19L722.75,1061.19L727.71,1063.67L732.67,1066.15L735.15,1066.15L740.11,1068.63L745.07,1068.63L750.02,1071.11L757.46,1071.11L762.42,1071.11L764.9,1071.11L769.86,1071.11L774.82,1071.11L779.78,1073.59L784.74,1073.59L789.69,1073.59L794.65,1073.59L799.61,1073.59L804.57,1073.59L804.57,1076.07L814.49,1076.07L819.45,1076.07L821.93,1076.07L826.89,1078.55L829.37,1078.55L831.85,1078.55L836.8,1078.55L839.28,1078.55L841.76,1078.55L844.24,1081.03L849.2,1081.03L851.68,1081.03L856.64,1081.03L861.6,1081.03L866.56,1081.03L869.04,1081.03L874,1081.03L876.47,1083.51L881.43,1083.51L886.39,1085.99L891.35,1085.99L893.83,1088.46L896.31,1088.46L901.27,1090.94L903.75,1090.94L908.71,1090.94L911.19,1090.94L913.67,1090.94L916.15,1093.42L918.62,1093.42L923.58,1093.42L926.06,1093.42L931.02,1093.42L933.5,1093.42L935.98,1090.94L938.46,1090.94L943.42,1090.94L945.9,1090.94L948.38,1090.94L950.86,1090.94L953.34,1090.94L958.3,1090.94L960.77,1090.94L963.25,1090.94L965.73,1090.94L970.69,1090.94L973.17,1090.94L973.17,1093.42L975.65,1095.9L978.13,1098.38L980.61,1100.86L983.09,1100.86L985.57,1103.34L985.57,1105.82L990.53,1108.3L995.49,1110.78L1000.45,1110.78L1007.88,1110.78L1015.32,1110.78L1020.28,1108.3" fill="none" stroke="#000000" style="-webkit-tap-highlight-color: rgba(0, 0, 0, 0); stroke-linecap: round; stroke-linejoin: round; stroke-width: 6;" /><path d="M623.57,1061.19L623.57,1058.71L623.57,1061.19L623.57,1066.15L623.57,1073.59L623.57,1076.07L626.05,1081.03L626.05,1083.51L628.53,1085.99L631.01,1088.46L631.01,1090.94L633.49,1093.42L635.97,1095.9L640.93,1095.9L645.89,1095.9L648.37,1098.38L653.33,1098.38L655.81,1098.38L660.77,1100.86L665.72,1100.86L670.68,1100.86L675.64,1100.86L678.12,1100.86L680.6,1100.86L683.08,1100.86L685.56,1100.86L688.04,1100.86L688.04,1103.34L690.52,1103.34L690.52,1105.82L693,1108.3L695.48,1110.78L697.96,1113.26L702.92,1115.74L707.87,1118.22L710.35,1120.7L715.31,1123.18L720.27,1125.66L725.23,1128.14L730.19,1130.62L735.15,1133.09L740.11,1135.57L742.59,1138.05L747.54,1140.53L752.5,1143.01L759.94,1143.01L767.38,1143.01L777.3,1143.01L787.22,1143.01L794.65,1147.97" fill="none" stroke="#000000" style="-webkit-tap-highlight-color: rgba(0, 0, 0, 0); stroke-linecap: round; stroke-linejoin: round; stroke-width: 6;" /><path d="M598.78,525.64L598.78,523.16L596.3,533.08L596.3,538.03L596.3,545.47L596.3,550.43L598.78,557.87L598.78,562.83L598.78,570.27L598.78,575.23L601.26,580.18L601.26,585.14L601.26,592.58L601.26,597.54L603.74,604.98L603.74,609.94L603.74,614.9L603.74,619.85L603.74,624.81L603.74,629.77L603.74,634.73L603.74,639.69L603.74,644.65L603.74,649.61L603.74,657.05L603.74,662L603.74,669.44L603.74,674.4L603.74,681.84L606.22,691.76L606.22,704.15L608.7,719.03L608.7,738.87L608.7,753.74L611.18,761.18" fill="none" stroke="#000000" style="-webkit-tap-highlight-color: rgba(0, 0, 0, 0); stroke-linecap: round; stroke-linejoin: round; stroke-width: 6;" /><path d="M83.06,1381.04L80.58,1381.04L80.58,1378.56L85.54,1376.08L90.5,1373.6L95.46,1371.12L97.94,1368.64L105.38,1366.16L112.81,1361.2L122.73,1353.76L130.17,1346.32L135.13,1341.37L140.09,1336.41L147.53,1333.93L152.48,1328.97L159.92,1321.53L164.88,1316.57L172.32,1314.09L177.28,1309.13L182.24,1304.17L187.2,1301.69L194.63,1296.74L194.63,1294.26L197.11,1294.26L199.59,1291.78L204.55,1284.34L209.51,1279.38L214.47,1274.42L219.43,1271.94L221.91,1269.46L226.87,1266.98L234.31,1262.02L239.26,1259.54L244.22,1257.07L249.18,1254.59L254.14,1252.11L259.1,1247.15L264.06,1244.67L271.5,1242.19L276.46,1237.23L286.37,1234.75L296.29,1229.79L308.69,1224.83L323.56,1219.87L340.92,1217.39" fill="none" stroke="#000000" style="-webkit-tap-highlight-color: rgba(0, 0, 0, 0); stroke-linecap: round; stroke-linejoin: round; stroke-width: 6;" /></svg>