<?xml version="1.0" encoding="utf-8" ?>
<svg baseProfile="full" height="666" version="1.1" width="1024" xmlns="http://www.w3.org/2000/svg" xmlns:ev="http://www.w3.org/2001/xml-events" xmlns:xlink="http://www.w3.org/1999/xlink"><defs /><path d="M441.17,282.56L441.17,281.02L441.17,280.25L440.4,281.79L439.63,284.87L438.86,287.18L438.86,290.26L438.09,293.34L438.09,297.96L437.32,301.81L437.32,304.89L437.32,307.97L436.55,311.82L436.55,315.67L436.55,319.52L436.55,323.37L436.55,326.45L436.55,332.61L436.55,336.46L436.55,340.31L436.55,344.16L436.55,347.24L436.55,351.09L436.55,353.4L437.32,355.71L437.32,358.02L437.32,362.63L437.32,366.48L438.09,370.33L438.09,374.18L438.09,378.8L438.86,382.65L438.86,385.73L438.86,389.58L438.86,392.66L438.86,398.05L438.86,401.9L438.86,405.75L439.63,409.6L439.63,413.45L439.63,418.84L439.63,422.69L439.63,426.54L438.86,429.62L439.63,451.95L439.63,453.49L439.63,456.57L438.86,459.65L438.86,461.95L438.86,465.03L438.09,468.11L438.09,469.65L438.09,472.73L438.09,475.04L438.09,477.35L438.09,480.43L437.32,485.82L437.32,489.67L437.32,492.75L437.32,496.6L437.32,499.68L437.32,502.76L437.32,505.07L437.32,507.38L437.32,511.23L436.55,514.31L435.78,517.39L435.01,519.7L434.24,524.32L434.24,527.4L433.47,530.48L432.7,532.79L432.7,535.87L432.7,539.72L431.93,545.11L431.93,548.19L431.16,552.04L430.39,555.89L429.62,560.51L428.85,563.58L428.08,567.43L428.08,571.28L428.08,575.9L428.08,578.98L428.85,581.29L428.85,582.06L429.62,584.37" fill="none" stroke="#000000" style="-webkit-tap-highlight-color: rgba(0, 0, 0, 0); stroke-linecap: round; stroke-linejoin: round; stroke-width: 5;" /><path d="M471.19,168.61L471.96,168.61L471.96,169.38L472.73,170.92L471.96,174L471.96,178.62L471.19,186.32L470.42,192.48L470.42,198.64L470.42,204.03L470.42,212.5L470.42,216.35L470.42,220.97L469.65,230.98L469.65,234.06L469.65,235.6L468.88,237.91L468.11,241.76L467.34,245.61L466.57,247.92L465.03,253.31L464.26,255.62L462.72,258.69L461.18,261L459.65,265.62L457.34,267.16L455.03,269.47L452.72,271.01L448.87,273.32L447.33,275.63L445.02,277.94L444.25,279.48L441.94,281.79L440.4,284.1L437.32,287.18L436.55,288.72L435.78,289.49" fill="none" stroke="#000000" style="-webkit-tap-highlight-color: rgba(0, 0, 0, 0); stroke-linecap: round; stroke-linejoin: round; stroke-width: 5;" /><path d="M483.51,124.73L484.28,124.73L485.82,123.96L488.13,123.96L490.44,123.19L492.75,122.42L497.37,120.88L500.45,120.11L502.76,120.11L506.61,119.34L508.92,119.34L511.23,118.57L513.54,117.8L515.85,117.8L518.93,118.57L521.24,119.34L524.32,120.11L527.4,120.11L531.25,120.11L534.33,120.88L536.64,121.65L538.95,121.65L541.26,122.42L543.57,123.96L546.65,124.73L548.96,125.5L551.27,126.27L555.12,127.04L557.43,127.81L560.51,128.58L563.58,128.58L565.89,129.35L569.74,130.12L572.05,130.89L574.36,131.66L576.67,133.2L580.52,133.2L582.83,133.97L585.91,134.74L588.99,135.51L591.3,137.05L594.38,137.82L599,139.36L602.08,139.36L605.16,139.36L607.47,140.13L612.09,140.9L614.4,140.13L616.71,140.13L619.02,140.13L621.33,140.9L623.64,140.9L625.95,141.67L627.49,142.44L630.57,143.21L632.88,143.98L635.19,143.98L636.73,144.75L639.04,144.75L645.2,146.29L646.74,147.06L648.28,147.83L649.82,148.6L651.36,149.37L652.9,149.37L655.21,150.91L657.52,150.91L660.6,153.22L662.91,154.75L664.45,156.29L665.98,157.06L667.52,158.6L669.06,159.37L669.83,160.91L670.6,161.68L671.37,162.45L672.91,164.76L672.91,165.53L672.91,166.3L673.68,167.07L674.45,167.07L674.45,168.61L675.22,169.38L675.99,171.69L675.99,173.23L676.76,174L676.76,176.31L676.76,179.39L676.76,182.47L675.99,184.01L675.99,185.55L676.76,186.32L677.53,188.63L678.3,189.4L678.3,190.17" fill="none" stroke="#000000" style="-webkit-tap-highlight-color: rgba(0, 0, 0, 0); stroke-linecap: round; stroke-linejoin: round; stroke-width: 5;" /><path d="M671.37,195.56L672.14,198.64L672.14,200.95L672.14,203.26L672.14,205.57L671.37,212.5L671.37,216.35L671.37,220.97L671.37,225.59L670.6,227.9L670.6,233.29L669.83,236.37L669.83,240.22L669.83,244.07L669.06,251L669.06,254.08L669.06,257.15L669.06,261L668.29,264.85L668.29,268.7L669.06,274.09L669.06,277.94L669.06,281.02L669.06,285.64L669.06,288.72L669.06,291.03L669.06,294.11L669.06,297.19L668.29,301.04L668.29,304.89L667.52,307.97L667.52,311.05L666.75,315.67L666.75,318.75L666.75,321.06L665.98,323.37L665.98,325.68L665.98,330.3L665.98,331.84L665.98,338.77L666.75,341.85L666.75,344.16L666.75,346.47L666.75,349.55L667.52,351.86L667.52,356.48L667.52,359.55L668.29,361.86L668.29,364.17L668.29,367.25L668.29,369.56L668.29,372.64L668.29,375.72L669.06,378.03L669.83,380.34L669.83,382.65L669.83,384.96L670.6,388.04L670.6,391.12L671.37,393.43L671.37,396.51L672.14,399.59L672.91,402.67L673.68,408.06L674.45,411.91L675.22,416.53L675.99,421.15L675.99,423.46L678.3,431.16" fill="none" stroke="#000000" style="-webkit-tap-highlight-color: rgba(0, 0, 0, 0); stroke-linecap: round; stroke-linejoin: round; stroke-width: 5;" /><path d="M671.37,432.7L671.37,433.47L671.37,435.01L671.37,436.55L672.14,440.4L672.91,445.79L672.91,450.41L673.68,455.8L673.68,463.49L674.45,468.88L674.45,472.73L674.45,476.58L675.22,478.89L675.22,481.2L674.45,485.05L674.45,488.9L674.45,490.44L673.68,494.29L673.68,496.6L673.68,498.91L672.91,500.45L673.68,503.53L673.68,505.84L673.68,508.15L673.68,508.92L672.91,512L672.91,512.77L672.91,516.62L672.91,517.39L672.91,518.93L672.91,519.7L673.68,521.24L673.68,523.55L673.68,525.86L673.68,528.17L674.45,531.25L674.45,534.33L675.22,536.64L675.22,539.72L675.22,542.03L675.22,544.34L674.45,548.96L674.45,551.27L673.68,554.35L673.68,557.43L672.91,563.58L672.91,567.43L672.91,568.97L672.91,570.51L672.91,574.36L672.91,578.21L672.91,581.29L672.14,585.14L672.14,586.68L670.6,586.68" fill="none" stroke="#000000" style="-webkit-tap-highlight-color: rgba(0, 0, 0, 0); stroke-linecap: round; stroke-linejoin: round; stroke-width: 5;" /><path d="M659.83,421.15L659.06,422.69L657.52,424.23L655.98,426.54L654.44,430.39L652.13,433.47L649.05,439.63L646.74,444.25L644.43,448.1L642.12,453.49L640.58,459.65L639.04,463.49L638.27,466.57L637.5,469.65L636.73,474.27L635.96,478.89L635.19,487.36L635.19,489.67L635.19,495.83L635.96,499.68L635.96,504.3L635.96,508.92L635.96,513.54L636.73,521.24L636.73,525.09L636.73,529.71L636.73,534.33L636.73,542.03L636.73,546.65L636.73,551.27L637.5,555.12L637.5,557.43L636.73,561.28L635.96,567.43L635.96,571.28L635.19,575.13L635.19,579.75L635.19,582.83L634.42,586.68L634.42,589.76L634.42,592.84L634.42,595.92L634.42,599.77L634.42,602.08L635.19,602.85L635.19,605.16" fill="none" stroke="#000000" style="-webkit-tap-highlight-color: rgba(0, 0, 0, 0); stroke-linecap: round; stroke-linejoin: round; stroke-width: 5;" /><path d="M479.66,135.51L479.66,136.28L479.66,139.36L478.89,142.44L478.12,144.75L477.35,147.06L476.58,148.6L475.81,150.91L475.04,153.98L475.81,154.75L475.81,156.29L475.81,157.06L476.58,159.37L476.58,161.68L476.58,163.22L475.81,163.99L475.04,166.3L474.27,167.84" fill="none" stroke="#000000" style="-webkit-tap-highlight-color: rgba(0, 0, 0, 0); stroke-linecap: round; stroke-linejoin: round; stroke-width: 5;" /><path d="M378.8,120.11L378.03,120.11L378.03,120.88L379.57,120.88L381.11,123.19L382.65,124.73L384.19,126.27L387.27,127.04L389.58,127.81L392.66,128.58L393.43,128.58L395.74,130.12L399.59,132.43L402.67,133.97L408.83,136.28L410.37,136.28L411.14,137.82L411.91,137.82L414.22,140.13L414.99,140.9L417.3,141.67L418.07,142.44L418.84,142.44L420.38,143.21L421.92,143.98L423.46,145.52L425.77,146.29L426.54,147.06L428.08,147.06L429.62,148.6L431.93,149.37L433.47,150.14L434.24,150.91L436.55,150.91L438.09,151.68L439.63,151.68L440.4,152.45L441.17,153.22L441.94,153.22L444.25,154.75L445.02,156.29L445.02,157.06L445.79,158.6L447.33,160.14L448.1,162.45L448.87,163.99L449.64,165.53L449.64,167.07L450.41,169.38L451.18,171.69L451.95,173.23L452.72,174L452.72,174.77L453.49,175.54L454.26,176.31L455.03,176.31L455.8,177.08L457.34,177.08L458.11,177.85L458.88,177.85L460.42,178.62L461.95,178.62L464.26,178.62L466.57,177.85L468.11,177.85L468.88,177.85L469.65,177.85" fill="none" stroke="#000000" style="-webkit-tap-highlight-color: rgba(0, 0, 0, 0); stroke-linecap: round; stroke-linejoin: round; stroke-width: 5;" /><path d="M371.1,124.73L370.33,124.73L369.56,123.96L368.79,124.73L367.25,125.5L365.71,127.04L364.94,128.58L364.17,130.89L363.4,133.97L363.4,136.28L363.4,138.59L363.4,140.9L361.86,143.98L361.86,146.29L361.09,148.6L361.09,150.14L361.09,151.68L361.09,152.45L361.09,157.83L361.09,160.91L361.09,163.99L361.86,167.84L361.86,170.15L362.63,172.46L362.63,174L363.4,182.47L364.17,184.78L364.17,186.32L364.17,189.4L364.94,193.25L365.71,196.33L366.48,198.64L367.25,200.18L368.02,202.49L368.02,204.8L368.02,207.88L368.02,210.19L368.79,213.27L368.79,214.81L369.56,217.12L369.56,219.43L369.56,220.97L369.56,222.51L369.56,225.59L369.56,227.13L369.56,230.21L368.79,231.75L368.79,232.52L368.79,234.06L368.02,234.83L368.02,235.6L367.25,236.37L366.48,237.91L364.94,240.22L364.17,241.76L363.4,242.53L361.86,246.38L361.09,247.15L360.32,247.15L359.55,247.92L358.02,249.46L356.48,251L355.71,251.77L354.17,252.54L352.63,254.08L351.09,254.85L349.55,254.85L348.78,254.08L348.01,254.08L346.47,253.31L345.7,252.54L344.93,252.54L344.16,253.31L343.39,253.31L342.62,254.08L342.62,254.85L341.85,256.38L341.08,257.15L340.31,258.69L338.77,260.23L338,261.77L336.46,265.62L336.46,267.16L336.46,269.47L336.46,271.78L336.46,273.32L337.23,274.09" fill="none" stroke="#000000" style="-webkit-tap-highlight-color: rgba(0, 0, 0, 0); stroke-linecap: round; stroke-linejoin: round; stroke-width: 5;" /><path d="M275.63,259.46L274.86,259.46L274.09,258.69L274.09,261L274.86,261L277.94,261L284.1,260.23L285.64,260.23L290.26,261L292.57,261L295.65,261L297.96,261L301.04,261.77L304.12,262.54L307.2,264.08L309.51,265.62L311.82,267.16L314.9,267.93L316.44,268.7L318.75,268.7L321.06,268.7L323.37,269.47L324.91,270.24L327.99,271.01L329.53,271.78L331.07,272.55L332.61,272.55L335.69,274.09L338,274.09L340.31,274.86L342.62,274.09L346.47,272.55" fill="none" stroke="#000000" style="-webkit-tap-highlight-color: rgba(0, 0, 0, 0); stroke-linecap: round; stroke-linejoin: round; stroke-width: 5;" /><path d="M267.93,263.31L267.16,263.31L267.16,262.54L266.39,261.77L264.85,262.54L263.31,263.31L261,264.85L258.69,267.16L254.85,270.24L253.31,273.32L251,275.63L248.69,279.48L247.92,281.79L245.61,284.1L244.84,286.41L244.07,288.72L242.53,291.03L241.76,295.65L241.76,298.73L240.99,301.04L240.22,303.35L239.45,306.43" fill="none" stroke="#000000" style="-webkit-tap-highlight-color: rgba(0, 0, 0, 0); stroke-linecap: round; stroke-linejoin: round; stroke-width: 5;" /><path d="M230.98,247.15L231.75,246.38L230.98,246.38L231.75,247.92L230.98,251L230.98,253.31L231.75,255.62L231.75,261L232.52,265.62L233.29,274.09L234.06,278.71L234.83,284.1L234.83,297.96L234.83,301.04L235.6,301.04L235.6,302.58" fill="none" stroke="#000000" style="-webkit-tap-highlight-color: rgba(0, 0, 0, 0); stroke-linecap: round; stroke-linejoin: round; stroke-width: 5;" /><path d="M182.47,247.92L181.7,248.69L182.47,248.69L186.32,247.92L188.63,247.92L191.71,247.15L195.56,246.38L199.41,245.61L205.57,244.84L209.42,245.61L213.27,245.61L215.58,247.92L220.2,248.69L222.51,248.69L224.82,247.15L226.36,246.38" fill="none" stroke="#000000" style="-webkit-tap-highlight-color: rgba(0, 0, 0, 0); stroke-linecap: round; stroke-linejoin: round; stroke-width: 5;" /><path d="M174.77,258.69L175.54,260.23L176.31,262.54L177.08,266.39L177.85,273.32L178.62,277.94L178.62,282.56L179.39,287.95L179.39,294.11L179.39,298.73L179.39,302.58L179.39,306.43L179.39,311.05L179.39,314.13L179.39,317.98L179.39,321.06L178.62,326.45L178.62,329.53L178.62,332.61L178.62,334.92L178.62,337.23L177.85,340.31L178.62,344.16L178.62,345.7L177.85,348.01L177.85,350.32L177.85,355.71L177.85,358.02L177.85,361.09L177.08,363.4L177.08,365.71L176.31,369.56L176.31,372.64L176.31,374.95L176.31,377.26L176.31,378.8L174.77,385.73L174.77,386.5L174,388.81L174,391.12L174,393.43L174,395.74L174,398.05L173.23,401.13L173.23,402.67L173.23,404.98L173.23,407.29L173.23,408.83L173.23,412.68L173.23,414.22L172.46,414.99L172.46,417.3L171.69,418.07L171.69,420.38L171.69,421.15L171.69,423.46L171.69,424.23L170.92,425L170.92,426.54L170.92,428.85L170.92,429.62L170.15,431.93L170.15,432.7L170.15,434.24L170.15,435.01L170.15,435.78" fill="none" stroke="#000000" style="-webkit-tap-highlight-color: rgba(0, 0, 0, 0); stroke-linecap: round; stroke-linejoin: round; stroke-width: 5;" /><path d="M98.55,488.13L98.55,487.36L97.78,487.36L98.55,486.59L100.09,485.05L101.63,482.74L103.94,481.97L107.02,478.89L108.56,477.35L110.87,475.04L111.64,474.27L113.95,472.73L115.49,471.19L117.03,469.65L118.57,467.34L120.88,466.57L123.19,464.26L125.5,462.72L127.04,461.18L129.35,460.42L133.2,458.11L136.28,457.34L138.59,455.03L141.67,453.49L148.6,449.64L150.14,448.87L152.45,447.33L153.98,446.56L156.29,446.56L158.6,445.02L160.91,444.25L161.68,443.48L163.22,443.48L164.76,443.48L168.61,442.71L169.38,442.71L170.92,442.71" fill="none" stroke="#000000" style="-webkit-tap-highlight-color: rgba(0, 0, 0, 0); stroke-linecap: round; stroke-linejoin: round; stroke-width: 5;" /><path d="M87.77,501.99L87.77,501.22L87.77,500.45L87.77,501.22L87.77,505.07L87,508.92L87,512L87,515.08L86.23,518.93L86.23,522.78L87,527.4L86.23,529.71L86.23,532.79L86.23,535.87L86.23,541.26L85.46,542.03L85.46,542.8L85.46,545.11L86.23,547.42L86.23,551.27L86.23,554.35L87,556.66L87,558.2" fill="none" stroke="#000000" style="-webkit-tap-highlight-color: rgba(0, 0, 0, 0); stroke-linecap: round; stroke-linejoin: round; stroke-width: 5;" /><path d="M371.1,282.56L371.87,284.1L371.87,286.41L371.87,288.72L371.1,292.57L370.33,295.65L370.33,297.19L370.33,298.73L369.56,301.04L369.56,305.66L369.56,307.97L369.56,311.05L370.33,314.13L369.56,318.75L369.56,321.06L369.56,324.14L369.56,327.99L369.56,332.61L369.56,336.46L369.56,340.31L369.56,343.39L370.33,347.24L370.33,353.4L370.33,355.71L370.33,358.78L370.33,362.63L369.56,366.48L369.56,368.79L369.56,371.87L369.56,374.95L368.79,378.03L368.79,380.34L368.02,383.42L368.02,386.5L368.02,388.04L368.02,390.35L368.02,394.2L368.02,396.51L368.02,398.82L368.02,401.13L368.02,403.44L368.02,407.29L368.02,409.6L368.02,412.68L368.02,414.99L368.02,415.76L367.25,421.15L367.25,423.46L367.25,425.77L367.25,428.08L367.25,431.93L367.25,434.24L367.25,437.32L366.48,440.4L366.48,449.64L366.48,450.41L366.48,451.95L366.48,454.26L365.71,458.88L365.71,461.18L365.71,464.26L365.71,468.88L365.71,470.42L364.94,472.73L364.94,475.04L364.94,475.81L364.94,476.58L364.94,479.66L364.94,482.74L364.17,485.05L364.17,488.13L364.17,490.44L364.17,492.75L364.17,495.06L364.17,497.37L364.17,500.45L364.94,505.07L364.94,507.38L364.94,509.69L364.94,514.31L364.94,516.62L364.94,518.93L365.71,521.24L365.71,524.32L365.71,527.4L365.71,531.25L365.71,534.33L365.71,537.41L365.71,540.49L364.94,544.34L364.94,546.65L364.94,548.96L364.94,551.27L364.94,553.58L365.71,557.43L365.71,559.74L365.71,562.05L365.71,564.35L365.71,568.97L365.71,571.28L365.71,573.59L365.71,575.9L365.71,578.21L365.71,582.83L365.71,585.91L365.71,587.45L364.94,588.22L364.94,588.99L364.17,590.53L364.17,592.07L364.17,592.84" fill="none" stroke="#000000" style="-webkit-tap-highlight-color: rgba(0, 0, 0, 0); stroke-linecap: round; stroke-linejoin: round; stroke-width: 5;" /><path d="M681.38,165.53L680.61,165.53L681.38,165.53L682.92,164.76L684.46,164.76L686.77,164.76L690.62,164.76L695.24,163.99L698.32,163.22L702.17,163.22L705.25,162.45L710.64,161.68L714.49,161.68L718.34,161.68L722.19,160.91L726.04,160.14L731.43,160.14L734.51,160.14L737.59,160.91L741.44,160.91L745.29,160.14L749.14,160.14L752.99,160.14L756.84,160.14L761.46,160.14L767.62,160.14L772.23,159.37L776.08,159.37L781.47,159.37L786.86,160.14L790.71,160.14L793.79,160.14L797.64,160.14L803.8,159.37L810.73,159.37L814.58,159.37L819.97,159.37L824.59,159.37L831.52,160.14L836.91,160.14L841.53,160.14L846.15,160.91L850.77,161.68L853.85,161.68L859.24,162.45L864.63,163.22L867.71,163.22L873.09,163.99L877.71,163.99L881.56,163.99L885.41,164.76L889.26,164.76L893.11,165.53L899.27,166.3L902.35,166.3L906.97,167.07L910.82,167.84L915.44,167.84L917.75,168.61L931.61,169.38L933.15,169.38L937,169.38L940.85,170.15L944.7,170.15L950.86,170.15L954.71,170.92L959.33,170.92L963.18,170.92L967.03,171.69L973.95,172.46L978.57,172.46L983.19,172.46L987.04,172.46L993.2,173.23L997.05,173.23L1000.9,173.23L1004.75,173.23L1007.83,173.23L1010.91,174L1013.99,174L1017.84,173.23" fill="none" stroke="#000000" style="-webkit-tap-highlight-color: rgba(0, 0, 0, 0); stroke-linecap: round; stroke-linejoin: round; stroke-width: 5;" /><path d="M30.03,597.46L28.49,597.46L27.72,596.69L26.95,596.69L27.72,596.69L30.03,596.69L31.57,595.92L33.88,594.38L40.04,592.07L45.43,588.99L51.58,586.68L54.66,585.14L65.44,578.21L76.22,570.51L83.15,565.89L90.85,562.82L94.7,561.28L103.17,556.66L113.18,552.04L127.04,545.11" fill="none" stroke="#000000" style="-webkit-tap-highlight-color: rgba(0, 0, 0, 0); stroke-linecap: round; stroke-linejoin: round; stroke-width: 5;" /><path d="M110.1,551.27L110.1,549.73L111.64,548.19L113.18,547.42L117.03,548.19L125.5,549.73L130.12,549.73L150.91,548.19" fill="none" stroke="#000000" style="-webkit-tap-highlight-color: rgba(0, 0, 0, 0); stroke-linecap: round; stroke-linejoin: round; stroke-width: 5;" /><path d="M140.9,547.42L140.9,548.19L141.67,549.73L143.98,549.73L145.52,550.5L148.6,552.04L150.14,552.81L152.45,554.35L154.75,555.89L157.83,557.43L162.45,558.2L167.07,558.97L170.92,559.74L173.23,559.74L179.39,561.28L187.09,562.05L192.48,562.05L197.1,562.82L200.95,563.58L204.8,563.58L208.65,563.58L214.04,565.12L217.89,565.89L220.97,567.43L225.59,569.74L230.21,572.82L234.06,574.36L237.14,576.67L242.53,578.21L247.15,578.98L248.69,579.75L253.31,579.75L260.23,581.29L268.7,584.37L273.32,585.91L276.4,586.68L281.02,588.99L282.56,588.99L286.41,590.53L291.03,592.07L294.11,592.07L296.42,592.07L300.27,592.07L303.35,592.84L306.43,593.61L310.28,593.61L313.36,592.84L318.75,593.61L324.91,594.38L329.53,594.38L334.15,595.15L338.77,595.15L343.39,595.92L348.01,595.92L351.86,595.92L353.4,595.92L358.78,595.15L365.71,594.38L369.56,593.61L373.41,592.84L374.95,592.84L379.57,592.84L381.11,593.61L384.19,593.61L385.73,594.38L387.27,593.61L389.58,593.61L390.35,593.61L392.66,592.84L394.2,592.84L397.28,592.84L398.82,592.84L399.59,592.84L401.9,592.84L404.21,592.84L406.52,592.84L408.06,592.84L409.6,592.84L412.68,593.61L413.45,594.38L416.53,595.15L418.84,595.15L420.38,595.92L423.46,596.69L425.77,597.46L428.08,598.23L429.62,599L431.16,599.77L431.93,599.77L433.47,599.77L437.32,599.77L438.09,599.77L439.63,599.77L440.4,599.77L441.94,599.77L442.71,599.77L445.02,599.77L446.56,600.54L447.33,600.54L449.64,600.54L452.72,600.54L454.26,601.31L456.57,601.31L457.34,602.08L460.42,602.08L464.26,602.85L469.65,604.39L472.73,605.16L476.58,605.93L481.97,607.47L485.82,608.24L488.9,609.01L492.75,608.24L497.37,607.47L501.99,605.93L505.07,605.93L506.61,605.16L508.15,605.16L509.69,604.39L511.23,604.39L512.77,604.39L513.54,604.39L515.85,605.16L518.16,605.93L522.78,605.93L526.63,606.7L530.48,606.7L535.87,607.47L540.49,608.24L544.34,609.01L548.19,609.78L552.04,609.78L555.12,609.78L560.51,609.78L564.35,609.01L568.97,609.01L572.05,609.01L578.21,609.01L582.06,609.01L585.91,609.78L588.99,609.78L592.07,609.78L598.23,610.55L602.08,609.78L605.16,608.24L608.24,607.47L613.63,605.93L616.71,605.16L619.79,604.39L622.87,604.39L632.88,603.62L635.19,603.62L636.73,603.62L639.04,602.85L642.12,602.85L645.2,602.08L647.51,602.08L650.59,601.31L652.9,601.31L658.29,600.54L661.37,601.31L665.22,600.54L668.29,601.31L673.68,601.31L675.99,602.08L679.07,602.08L680.61,602.08L682.15,602.08L683.69,602.85L685.23,602.85L686,602.85L687.54,602.08L689.08,602.08L690.62,601.31L692.16,601.31L693.7,601.31L695.24,601.31L698.32,601.31L700.63,601.31L702.94,601.31L706.02,602.08L707.56,602.08L709.87,602.08L710.64,602.08L712.18,602.08L714.49,602.08L716.8,602.85L718.34,602.85L719.88,603.62L722.19,604.39L724.5,605.16L725.27,605.93L726.04,605.93L726.81,605.93L727.58,605.93L728.35,605.16L729.89,604.39L730.66,604.39L732.2,603.62" fill="none" stroke="#000000" style="-webkit-tap-highlight-color: rgba(0, 0, 0, 0); stroke-linecap: round; stroke-linejoin: round; stroke-width: 5;" /><path d="M686,532.79L686.77,532.79L689.85,532.79L692.16,534.33L694.47,535.1L696.78,535.87L698.32,536.64L700.63,538.18L704.48,538.95L706.02,540.49L708.33,541.26L711.41,542.8L716.03,544.34L718.34,545.88L721.42,546.65L724.5,548.19L728.35,548.96L739.13,552.81L742.21,553.58L743.75,554.35L748.37,555.89L750.68,557.43L753.76,558.2L757.61,559.74L760.69,561.28L765.31,565.12L769.15,567.43L772.23,569.74L777.62,571.28L783.01,573.59L788.4,575.13L793.79,576.67L798.41,577.44L802.26,578.98L809.19,581.29L813.81,582.83L818.43,585.14L823.82,587.45L832.29,590.53L836.91,593.61L841.53,595.15L846.92,596.69L850.77,598.23L858.47,599L863.09,599.77L866.94,600.54L873.09,600.54L876.94,600.54L880.02,601.31L883.1,602.08L886.95,602.85L890.8,604.39L895.42,606.7L898.5,608.24L901.58,608.24L904.66,609.01L908.51,609.78L912.36,610.55L915.44,610.55L919.29,611.32L923.14,611.32L929.3,611.32L932.38,612.09L936.23,612.86L939.31,613.63L944.7,614.4L947.78,615.17L950.86,615.17L954.71,615.94L958.56,615.94L962.41,617.48L966.26,618.25L969.34,619.02L973.95,619.79L979.34,620.56L983.96,621.33L998.59,625.18L1003.21,626.72L1010.91,627.49L1013.22,628.26L1018.61,627.49L1021.69,627.49" fill="none" stroke="#000000" style="-webkit-tap-highlight-color: rgba(0, 0, 0, 0); stroke-linecap: round; stroke-linejoin: round; stroke-width: 5;" /><path d="M517.39,360.32L518.16,361.09L518.93,361.09L519.7,362.63L519.7,364.94L519.7,369.56L520.47,372.64L520.47,377.26L520.47,380.34L520.47,382.65L520.47,384.96L521.24,387.27" fill="none" stroke="#000000" style="-webkit-tap-highlight-color: rgba(0, 0, 0, 0); stroke-linecap: round; stroke-linejoin: round; stroke-width: 5;" /><path d="M518.93,389.58L519.7,389.58L521.24,390.35L522.78,390.35L528.94,388.81L532.79,387.27L536.64,386.5L538.95,385.73L541.26,385.73L542.03,385.73" fill="none" stroke="#000000" style="-webkit-tap-highlight-color: rgba(0, 0, 0, 0); stroke-linecap: round; stroke-linejoin: round; stroke-width: 5;" /><path d="M512.77,352.63L516.62,352.63L520.47,351.09L522.01,350.32L523.55,350.32L526.63,351.86L528.17,352.63L528.94,353.4L529.71,354.17L529.71,356.48L529.71,359.55L530.48,363.4L530.48,368.02L531.25,372.64L532.79,378.8L532.79,380.34L534.33,381.88" fill="none" stroke="#000000" style="-webkit-tap-highlight-color: rgba(0, 0, 0, 0); stroke-linecap: round; stroke-linejoin: round; stroke-width: 5;" /><path d="M679.07,483.51L679.84,485.05L679.84,486.59L679.84,489.67L679.07,492.75L679.07,495.06L679.07,497.37L679.07,499.68L679.84,498.14L679.84,496.6L679.84,495.06L680.61,491.98L681.38,489.67L681.38,486.59L682.15,485.05L683.69,482.74L684.46,481.97L685.23,480.43L686.77,478.89L687.54,476.58L689.08,475.04L691.39,472.73L692.93,471.96L695.24,470.42L696.01,468.88L698.32,467.34L700.63,465.8L702.94,465.03L703.71,464.26L706.02,464.26L706.79,464.26L708.33,464.26L710.64,463.49L711.41,463.49L713.72,463.49L714.49,463.49L716.03,464.26L716.8,464.26L719.11,465.03L720.65,465.03L722.19,465.03L723.73,465.8L725.27,465.8L726.81,466.57L727.58,466.57L728.35,466.57L729.89,467.34L730.66,467.34L732.2,467.34L732.97,468.11L734.51,468.11L735.28,468.88L736.05,469.65L737.59,471.19L740.67,474.27L741.44,475.81L742.21,476.58L742.21,477.35L742.98,478.89L743.75,481.2L745.29,481.97L746.06,484.28L746.83,486.59L747.6,488.13L748.37,489.67L749.91,492.75L750.68,494.29L751.45,495.06L752.99,496.6L753.76,498.14L754.53,500.45L755.3,501.99L756.07,504.3L756.07,505.84L756.84,508.92L757.61,510.46L757.61,512L758.38,514.31L759.15,516.62L759.15,520.47L759.92,522.78L760.69,525.09L760.69,529.71L761.46,532.02L761.46,535.1L761.46,538.18L762.23,540.49L763,542.8L763,545.11L763.77,547.42L763.77,548.19L763.77,548.96L763.77,549.73L763.77,551.27L764.54,552.04L764.54,552.81" fill="none" stroke="#000000" style="-webkit-tap-highlight-color: rgba(0, 0, 0, 0); stroke-linecap: round; stroke-linejoin: round; stroke-width: 5;" /><path d="M679.84,488.13L680.61,489.67L679.84,491.21L679.84,492.75L679.07,496.6L679.07,499.68L678.3,502.76L678.3,505.84L678.3,509.69L678.3,511.23L678.3,513.54L678.3,515.85L678.3,518.16L678.3,522.01L678.3,523.55L678.3,525.86L678.3,527.4L679.07,529.71L679.07,531.25L679.07,532.02" fill="none" stroke="#000000" style="-webkit-tap-highlight-color: rgba(0, 0, 0, 0); stroke-linecap: round; stroke-linejoin: round; stroke-width: 5;" /></svg>