<?xml version="1.0" encoding="utf-8" ?>
<svg baseProfile="full" height="666" version="1.1" width="1024" xmlns="http://www.w3.org/2000/svg" xmlns:ev="http://www.w3.org/2001/xml-events" xmlns:xlink="http://www.w3.org/1999/xlink"><defs /><path d="M185.35,248.66L185.35,254.16L185.35,259.67L183.51,265.18L183.51,274.35L183.51,278.02L185.35,281.69L185.35,289.03L185.35,292.7L185.35,296.37L185.35,298.21L185.35,301.88L185.35,305.55L185.35,311.05L185.35,314.72L185.35,318.39L185.35,323.9L185.35,327.57L185.35,331.24L185.35,334.91L185.35,338.58L185.35,340.42L185.35,344.09L183.51,347.76L183.51,351.43L183.51,355.1L181.68,358.77L181.68,362.44L181.68,366.11L179.84,369.78L179.84,371.61L179.84,375.28L178.01,378.95L178.01,382.62L178.01,386.29L178.01,388.13L176.17,391.8L176.17,395.47L176.17,397.3L176.17,400.97L176.17,402.81L176.17,406.48L176.17,410.15L176.17,411.99L176.17,415.66L176.17,417.49L176.17,419.33L174.34,421.16L174.34,423L174.34,424.83L172.5,426.67L172.5,428.5L170.67,430.34L168.83,430.34L167,432.17L165.16,434.01L163.33,434.01L161.49,435.84L159.66,437.68L155.99,439.51L152.32,443.18L148.65,445.02L144.97,446.85L143.14,448.69L139.47,450.52L135.8,452.36L132.13,456.03L128.46,457.86L124.79,459.7L121.12,461.53L117.45,463.37L115.61,467.04L111.94,468.87L110.11,472.54L108.27,476.22L104.6,479.89L102.77,481.72L100.93,485.39L99.1,487.23L97.26,489.06L95.43,492.73L93.59,494.57L91.76,498.24L91.76,501.91L89.92,505.58L88.09,509.25L88.09,512.92L86.25,514.75L86.25,518.42L86.25,522.09L86.25,525.76L84.42,529.43L84.42,533.1L84.42,538.61L82.58,542.28L82.58,549.62L80.75,553.29L80.75,555.13L80.75,556.96L78.91,556.96" fill="none" stroke="#000000" style="-webkit-tap-highlight-color: rgba(0, 0, 0, 0); stroke-linecap: round; stroke-linejoin: round; stroke-width: 5;" /><path d="M370.7,123.87L370.7,125.71L370.7,127.54L368.86,129.38L367.03,136.72L367.03,138.55L367.03,142.22L367.03,144.06L367.03,147.73L367.03,149.56L365.19,151.4L365.19,155.07L363.35,158.74L363.35,162.41L363.35,167.91L365.19,171.58L365.19,178.92L367.03,182.59L367.03,186.27L368.86,191.77L368.86,195.44L370.7,200.95L372.53,206.45L372.53,210.12L374.37,213.79L374.37,217.46L376.2,222.97L376.2,226.64L376.2,230.31L378.04,233.98L378.04,237.65L378.04,241.32L378.04,244.99L378.04,248.66L378.04,254.16L378.04,257.84L378.04,261.51L378.04,265.18L378.04,270.68L376.2,274.35L376.2,278.02L376.2,279.86L374.37,283.53L374.37,287.2L372.53,292.7L370.7,298.21L370.7,301.88L368.86,307.38L368.86,311.05L367.03,316.56L367.03,320.23L367.03,323.9L365.19,329.41L365.19,333.08L365.19,338.58L363.35,344.09L363.35,347.76L363.35,353.26L363.35,358.77L361.52,364.27L361.52,369.78L361.52,375.28L361.52,380.79L361.52,386.29L361.52,391.8L361.52,397.3L361.52,404.65L359.68,410.15L359.68,415.66L359.68,423L359.68,426.67L361.52,435.84L361.52,441.35L361.52,446.85L361.52,452.36L361.52,457.86L361.52,463.37L363.35,470.71L363.35,476.22L363.35,479.89L363.35,485.39L365.19,490.9L365.19,496.4L365.19,500.07L365.19,503.74L365.19,509.25L365.19,514.75L365.19,520.26L365.19,523.93L365.19,527.6L365.19,531.27L365.19,536.77L365.19,540.44L365.19,545.95L365.19,549.62L365.19,555.13L365.19,560.63L365.19,566.14L363.35,571.64L363.35,577.15L363.35,582.65L363.35,586.32L363.35,588.16L361.52,593.66" fill="none" stroke="#000000" style="-webkit-tap-highlight-color: rgba(0, 0, 0, 0); stroke-linecap: round; stroke-linejoin: round; stroke-width: 5;" /><path d="M449.61,156.9L447.77,156.9L447.77,155.07L449.61,156.9L451.44,160.57L451.44,164.24L453.28,167.91L455.11,173.42L456.95,177.09L458.78,182.59L460.62,186.27L460.62,189.94L460.62,195.44L460.62,200.95L460.62,204.62L460.62,210.12L460.62,215.63L458.78,221.13L456.95,226.64L456.95,232.14L456.95,235.81L455.11,241.32L455.11,246.82L453.28,250.49L453.28,256L451.44,259.67L451.44,263.34L451.44,268.85L449.61,272.52L449.61,276.19L447.77,281.69L447.77,285.36L447.77,290.87L445.94,296.37L445.94,301.88L444.1,305.55L444.1,311.05L444.1,314.72L444.1,320.23L442.27,325.73L442.27,329.41L442.27,334.91L442.27,340.42L442.27,347.76L440.43,353.26L440.43,360.6L438.59,367.94L438.59,373.45L438.59,380.79L438.59,386.29L440.43,391.8L440.43,397.3L440.43,402.81L440.43,408.32L440.43,411.99L442.27,417.49L442.27,423L442.27,428.5L442.27,432.17L442.27,435.84L442.27,441.35L440.43,446.85L440.43,450.52L440.43,456.03L440.43,459.7L440.43,461.53L440.43,467.04L438.59,472.54L438.59,478.05L438.59,481.72L436.76,485.39L436.76,487.23L436.76,492.73L434.92,498.24L434.92,501.91L433.09,505.58L433.09,509.25L433.09,514.75L433.09,518.42L433.09,522.09L431.25,525.76L431.25,529.43L431.25,533.1L431.25,536.77L429.42,540.44L429.42,544.11L429.42,545.95L429.42,549.62L429.42,555.13L427.58,560.63L427.58,564.3L427.58,567.97L427.58,573.48L427.58,577.15L427.58,580.82L427.58,578.98" fill="none" stroke="#000000" style="-webkit-tap-highlight-color: rgba(0, 0, 0, 0); stroke-linecap: round; stroke-linejoin: round; stroke-width: 5;" /><path d="M464.29,175.25L462.45,175.25L460.62,175.25L462.45,175.25L464.29,175.25L466.12,175.25L467.96,173.42L471.63,171.58L473.46,169.75L475.3,167.91L477.13,167.91L477.13,166.08L478.97,164.24L478.97,160.57L480.8,158.74L480.8,155.07L480.8,153.23L482.64,151.4L482.64,149.56L482.64,145.89L482.64,144.06L484.47,142.22L486.31,140.39L488.14,138.55L489.98,136.72L491.81,134.88L493.65,134.88L495.48,133.05L497.32,131.21L500.99,129.38L502.82,129.38L506.49,129.38L508.33,129.38L512,127.54L515.67,125.71L519.34,125.71L521.18,125.71L524.85,125.71L528.52,125.71L532.19,125.71L537.69,125.71L541.36,125.71L545.03,125.71L548.7,125.71L552.37,125.71L557.88,125.71L561.55,125.71L565.22,125.71L567.05,125.71L570.72,127.54L576.23,127.54L579.9,127.54L583.57,127.54L585.41,127.54L589.08,127.54L590.91,127.54L594.58,129.38L598.25,129.38L601.92,131.21L603.76,133.05L607.43,133.05L611.1,134.88L612.93,134.88L614.77,136.72L616.6,136.72L618.44,138.55L620.27,140.39L622.11,140.39L623.94,142.22L625.78,144.06L627.61,145.89L629.45,145.89L631.28,147.73L633.12,147.73L634.95,149.56L636.79,149.56L638.62,151.4L640.46,153.23L642.29,153.23L644.13,155.07L645.96,155.07L647.8,156.9L649.63,156.9L651.47,158.74L653.3,160.57L655.14,160.57L655.14,162.41L656.97,162.41L658.81,164.24L660.65,164.24L662.48,166.08L664.32,167.91L667.99,169.75L669.82,171.58L669.82,173.42L671.66,173.42L671.66,175.25" fill="none" stroke="#000000" style="-webkit-tap-highlight-color: rgba(0, 0, 0, 0); stroke-linecap: round; stroke-linejoin: round; stroke-width: 5;" /><path d="M671.66,180.76L671.66,178.92L671.66,177.09L673.49,177.09L671.66,177.09L671.66,178.92L671.66,180.76L673.49,184.43L675.33,188.1L675.33,193.61L677.16,200.95L677.16,206.45L679,210.12L679,213.79L679,219.3L679,224.8L679,230.31L679,235.81L679,239.48L679,244.99L679,252.33L679,257.84L679,261.51L679,265.18L679,270.68L679,274.35L680.83,279.86L680.83,283.53L680.83,289.03L680.83,294.54L680.83,300.04L680.83,303.71L680.83,309.22L680.83,312.89L680.83,316.56L680.83,322.06L680.83,325.73L680.83,329.41L680.83,333.08L680.83,336.75L680.83,340.42L680.83,345.92L680.83,349.59L680.83,355.1L680.83,358.77L680.83,364.27L680.83,369.78L680.83,375.28L680.83,380.79L680.83,384.46L682.67,389.96L682.67,393.63L682.67,399.14L680.83,402.81L680.83,406.48L680.83,411.99L680.83,413.82L680.83,417.49L680.83,419.33L680.83,423L680.83,424.83L680.83,428.5L680.83,432.17L680.83,435.84L679,439.51L679,443.18L679,446.85L677.16,450.52L677.16,454.19L677.16,456.03L677.16,459.7L677.16,461.53L677.16,465.2L677.16,467.04L677.16,470.71L677.16,474.38L675.33,476.22L675.33,479.89L675.33,483.56L675.33,489.06L675.33,490.9L673.49,494.57L673.49,496.4L673.49,500.07L673.49,501.91L673.49,505.58L673.49,507.41L673.49,511.08L673.49,514.75L673.49,518.42L673.49,520.26L673.49,523.93L673.49,525.76L673.49,529.43L673.49,533.1L673.49,536.77L673.49,538.61L673.49,542.28L673.49,544.11L673.49,547.78L675.33,549.62L675.33,553.29L675.33,556.96L675.33,558.8L675.33,562.47L675.33,566.14L675.33,569.81L675.33,573.48L675.33,577.15L675.33,580.82L673.49,584.49L673.49,586.32L673.49,588.16" fill="none" stroke="#000000" style="-webkit-tap-highlight-color: rgba(0, 0, 0, 0); stroke-linecap: round; stroke-linejoin: round; stroke-width: 5;" /><path d="M649.63,193.61L647.8,195.44L647.8,197.28L645.96,199.11L645.96,202.78L647.8,206.45L647.8,210.12L647.8,215.63L647.8,221.13L647.8,224.8L649.63,228.47L649.63,232.14L651.47,237.65L651.47,244.99L649.63,252.33L649.63,259.67L649.63,265.18L649.63,270.68L649.63,278.02L649.63,285.36L649.63,298.21L649.63,303.71L649.63,309.22L649.63,314.72L649.63,322.06L647.8,327.57L647.8,334.91L647.8,340.42L647.8,345.92L647.8,351.43L647.8,356.93L647.8,364.27L647.8,369.78L647.8,375.28L647.8,380.79L645.96,386.29L645.96,391.8L645.96,397.3L645.96,402.81L645.96,406.48L645.96,411.99L645.96,415.66L645.96,421.16L644.13,426.67L644.13,432.17L644.13,437.68L644.13,441.35L644.13,446.85L644.13,452.36L644.13,457.86L642.29,463.37L642.29,468.87L642.29,474.38L644.13,478.05L644.13,483.56L644.13,490.9L644.13,496.4L645.96,501.91L645.96,507.41L645.96,512.92L645.96,516.59L647.8,522.09L647.8,525.76L647.8,531.27L647.8,534.94L647.8,538.61L647.8,542.28L647.8,545.95L647.8,549.62L647.8,553.29L647.8,555.13L647.8,558.8L647.8,562.47L647.8,566.14L647.8,569.81L649.63,571.64L649.63,577.15L649.63,580.82L647.8,584.49L647.8,591.83L647.8,597.33L645.96,601L645.96,602.84" fill="none" stroke="#000000" style="-webkit-tap-highlight-color: rgba(0, 0, 0, 0); stroke-linecap: round; stroke-linejoin: round; stroke-width: 5;" /><path d="M427.58,591.83L427.58,589.99L429.42,589.99L431.25,589.99L433.09,589.99L433.09,591.83L436.76,593.66L438.59,595.5L444.1,597.33L447.77,599.17L451.44,601L456.95,602.84L462.45,604.67L469.79,604.67L477.13,604.67L482.64,604.67L488.14,606.51L493.65,608.34L499.15,608.34L510.16,610.18L517.51,610.18L523.01,610.18L530.35,610.18L537.69,610.18L543.2,610.18L550.54,610.18L557.88,608.34L565.22,608.34L568.89,608.34L572.56,608.34L576.23,608.34L579.9,608.34L585.41,608.34L589.08,608.34L592.75,608.34L596.42,608.34L600.09,608.34L603.76,608.34L607.43,608.34L611.1,608.34L614.77,608.34L616.6,608.34L620.27,608.34L623.94,608.34L625.78,608.34L627.61,608.34L631.28,606.51L633.12,606.51L638.62,606.51L642.29,604.67L645.96,602.84L649.63,601L653.3,599.17L656.97,599.17L662.48,597.33L667.99,593.66L673.49,591.83L677.16,586.32L680.83,582.65L682.67,580.82" fill="none" stroke="#000000" style="-webkit-tap-highlight-color: rgba(0, 0, 0, 0); stroke-linecap: round; stroke-linejoin: round; stroke-width: 5;" /><path d="M521.18,349.59L521.18,347.76L519.34,347.76L519.34,349.59L519.34,353.26L519.34,358.77L517.51,364.27L517.51,371.61L517.51,378.95L517.51,386.29L517.51,391.8L519.34,393.63L519.34,391.8L521.18,389.96" fill="none" stroke="#000000" style="-webkit-tap-highlight-color: rgba(0, 0, 0, 0); stroke-linecap: round; stroke-linejoin: round; stroke-width: 5;" /><path d="M519.34,347.76L519.34,345.92L524.85,345.92L528.52,345.92L530.35,345.92L530.35,347.76L532.19,347.76L532.19,349.59L532.19,351.43L534.02,353.26L534.02,355.1L534.02,358.77L534.02,362.44L534.02,366.11L535.86,371.61L535.86,375.28L535.86,378.95L535.86,382.62L535.86,384.46L535.86,386.29L534.02,388.13L534.02,389.96L532.19,391.8L530.35,393.63L528.52,393.63L526.68,393.63L524.85,391.8L523.01,391.8L521.18,389.96" fill="none" stroke="#000000" style="-webkit-tap-highlight-color: rgba(0, 0, 0, 0); stroke-linecap: round; stroke-linejoin: round; stroke-width: 5;" /><path d="M677.16,178.92L675.33,178.92L673.49,178.92L673.49,177.09L677.16,175.25L679,173.42L679,169.75L679,167.91L679,166.08L679,162.41L680.83,158.74L682.67,156.9L684.5,155.07L686.34,155.07L688.17,155.07L690.01,155.07L693.68,156.9L695.51,156.9L699.18,156.9L702.85,158.74L706.52,158.74L712.03,158.74L717.53,158.74L721.2,158.74L726.71,158.74L730.38,158.74L734.05,158.74L737.72,158.74L741.39,158.74L745.06,158.74L748.73,158.74L752.4,158.74L756.07,158.74L759.74,158.74L765.25,158.74L768.92,158.74L772.59,158.74L776.26,160.57L779.93,160.57L785.43,160.57L789.1,160.57L794.61,160.57L798.28,160.57L801.95,160.57L807.46,160.57L812.96,162.41L816.63,162.41L822.14,162.41L825.81,162.41L831.31,164.24L836.82,164.24L842.32,164.24L847.83,164.24L851.5,164.24L857,164.24L862.51,164.24L868.01,164.24L871.68,164.24L877.19,162.41L880.86,162.41L886.37,162.41L890.04,160.57L895.54,160.57L899.21,160.57L902.88,160.57L908.39,158.74L912.06,158.74L917.56,158.74L921.23,158.74L924.9,158.74L928.57,158.74L932.24,158.74L937.75,158.74L943.25,158.74L946.92,158.74L952.43,158.74L956.1,158.74L959.77,158.74L963.44,158.74L967.11,160.57L970.78,160.57L972.62,160.57L976.29,160.57L979.96,160.57L983.63,160.57L985.46,160.57L989.13,160.57L992.8,160.57L994.64,160.57L996.47,160.57L1000.14,160.57L1001.98,160.57L1003.81,162.41L1005.65,162.41L1009.32,162.41L1011.15,164.24" fill="none" stroke="#000000" style="-webkit-tap-highlight-color: rgba(0, 0, 0, 0); stroke-linecap: round; stroke-linejoin: round; stroke-width: 5;" /><path d="M679,523.93L677.16,523.93L677.16,525.76L679,525.76L679,523.93L679,522.09L679,520.26L679,518.42L677.16,516.59L677.16,512.92L677.16,509.25L679,505.58L679,503.74L679,501.91L679,498.24L680.83,496.4L682.67,494.57L682.67,492.73L684.5,489.06L686.34,487.23L686.34,485.39L688.17,483.56L688.17,481.72L690.01,479.89L690.01,478.05L691.84,478.05L691.84,476.22L693.68,474.38L697.35,472.54L699.18,470.71L699.18,468.87L701.02,467.04L702.85,467.04L704.69,465.2L706.52,463.37L708.36,463.37L710.19,463.37L710.19,461.53L713.86,459.7L715.7,459.7L717.53,459.7L719.37,459.7L721.2,459.7L723.04,459.7L726.71,461.53L728.54,463.37L730.38,463.37L734.05,465.2L735.89,465.2L737.72,467.04L739.56,468.87L741.39,470.71L745.06,472.54L746.9,474.38L748.73,476.22L750.57,479.89L752.4,481.72L752.4,485.39L754.24,489.06L754.24,490.9L754.24,494.57L756.07,496.4L756.07,500.07L756.07,501.91L756.07,505.58L756.07,509.25L756.07,512.92L756.07,514.75L756.07,518.42L756.07,520.26L756.07,523.93L756.07,529.43L756.07,533.1L754.24,536.77L754.24,540.44L754.24,544.11L754.24,547.78" fill="none" stroke="#000000" style="-webkit-tap-highlight-color: rgba(0, 0, 0, 0); stroke-linecap: round; stroke-linejoin: round; stroke-width: 5;" /><path d="M686.34,542.28L690.01,544.11L697.35,545.95L708.36,547.78L713.86,547.78L717.53,547.78L721.2,547.78L724.87,549.62L726.71,549.62L735.89,547.78L739.56,547.78L741.39,545.95L743.23,545.95L745.06,545.95L746.9,545.95L750.57,544.11L754.24,544.11" fill="none" stroke="#000000" style="-webkit-tap-highlight-color: rgba(0, 0, 0, 0); stroke-linecap: round; stroke-linejoin: round; stroke-width: 5;" /><path d="M765.25,549.62L765.25,547.78L763.41,545.95L761.58,545.95L763.41,545.95L765.25,545.95L767.08,547.78L768.92,549.62L770.75,551.46L774.42,553.29L781.76,555.13L787.27,558.8L792.77,560.63L798.28,564.3L801.95,567.97L807.46,571.64L812.96,575.31L818.47,578.98L822.14,582.65L825.81,586.32L829.48,588.16L833.15,589.99L836.82,593.66L842.32,595.5L845.99,597.33L849.66,597.33L853.33,599.17L855.17,601L858.84,602.84L862.51,602.84L866.18,602.84L869.85,604.67L873.52,604.67L877.19,606.51L880.86,606.51L884.53,606.51L890.04,606.51L891.87,606.51L895.54,606.51L897.38,606.51L901.05,606.51L904.72,606.51L908.39,606.51L913.89,608.34L919.4,608.34L923.07,608.34L926.74,608.34L928.57,608.34L930.41,608.34L934.08,610.18L939.58,610.18L945.09,612.01L946.92,612.01L950.59,613.85L956.1,615.68L959.77,617.52L965.28,619.35L968.95,621.19L972.62,621.19L976.29,623.03L981.79,624.86L985.46,624.86L989.13,624.86L994.64,624.86L998.31,624.86" fill="none" stroke="#000000" style="-webkit-tap-highlight-color: rgba(0, 0, 0, 0); stroke-linecap: round; stroke-linejoin: round; stroke-width: 5;" /><path d="M185.35,250.49L183.51,250.49L183.51,248.66L185.35,248.66L187.18,248.66L189.02,248.66L190.85,246.82L194.52,246.82L198.19,246.82L203.7,244.99L207.37,244.99L211.04,244.99L214.71,244.99L220.22,244.99L222.05,244.99L223.89,244.99L225.72,244.99L227.56,244.99L229.39,244.99L231.23,244.99L231.23,246.82L233.06,248.66L233.06,250.49L233.06,252.33L233.06,256L233.06,259.67L233.06,263.34L231.23,268.85L231.23,272.52L231.23,276.19L231.23,281.69L231.23,285.36L231.23,287.2L231.23,289.03L231.23,292.7L231.23,294.54L231.23,296.37L231.23,298.21L231.23,300.04L231.23,301.88L231.23,303.71L233.06,303.71L234.9,303.71L236.73,303.71L238.57,303.71L240.4,303.71L242.24,300.04L244.07,298.21L244.07,296.37L245.91,294.54L247.74,292.7L249.58,290.87L251.41,289.03L251.41,285.36L253.25,283.53L255.08,281.69L256.92,278.02L258.75,276.19L260.59,274.35L262.42,272.52L262.42,270.68L264.26,270.68L266.09,268.85L267.93,268.85L269.76,268.85L271.6,267.01L273.43,267.01L275.27,267.01L277.1,267.01L278.94,267.01L280.77,267.01L284.44,267.01L286.28,265.18L288.11,265.18L289.95,265.18L293.62,265.18L295.46,265.18L297.29,265.18L300.96,265.18L304.63,265.18L306.47,265.18L308.3,263.34L311.97,263.34L313.81,263.34L315.64,265.18L317.48,265.18L319.31,265.18L321.15,265.18L322.98,265.18L326.65,263.34L330.32,263.34L332.16,263.34L333.99,261.51L335.83,261.51L337.66,259.67L339.5,259.67L341.33,257.84L343.17,257.84L345,256L346.84,254.16L348.67,252.33L350.51,250.49L352.34,250.49L354.18,248.66L354.18,246.82L356.01,246.82L357.85,246.82L359.68,246.82L361.52,244.99L365.19,244.99L367.03,243.15L368.86,243.15L370.7,241.32L372.53,241.32" fill="none" stroke="#000000" style="-webkit-tap-highlight-color: rgba(0, 0, 0, 0); stroke-linecap: round; stroke-linejoin: round; stroke-width: 5;" /><path d="M367.03,129.38L368.86,127.54L368.86,125.71L370.7,125.71L374.37,125.71L376.2,125.71L379.87,125.71L383.54,123.87L385.38,123.87L387.21,123.87L389.05,123.87L392.72,125.71L396.39,125.71L400.06,127.54L405.56,129.38L409.23,131.21L412.9,133.05L416.57,134.88L420.24,136.72L423.91,138.55L427.58,140.39L431.25,142.22L433.09,142.22L434.92,144.06L436.76,145.89L438.59,147.73L440.43,147.73L442.27,149.56L444.1,151.4L445.94,155.07L449.61,156.9L451.44,158.74L453.28,160.57L456.95,164.24" fill="none" stroke="#000000" style="-webkit-tap-highlight-color: rgba(0, 0, 0, 0); stroke-linecap: round; stroke-linejoin: round; stroke-width: 5;" /><path d="M84.42,558.8L84.42,556.96L84.42,555.13L86.25,555.13L88.09,555.13L91.76,555.13L95.43,553.29L99.1,553.29L102.77,551.46L108.27,549.62L111.94,547.78L115.61,547.78L117.45,547.78L121.12,547.78L122.95,547.78L126.62,547.78L128.46,545.95L130.29,545.95L132.13,545.95L133.96,545.95L137.63,547.78L141.3,547.78L144.97,547.78L146.81,547.78L148.65,547.78L150.48,547.78L152.32,547.78L154.15,547.78L155.99,547.78L159.66,545.95L161.49,545.95L165.16,545.95L168.83,544.11L172.5,542.28L178.01,540.44L183.51,538.61L187.18,536.77L192.69,534.94L196.36,533.1L201.86,533.1L209.2,529.43L212.87,527.6L218.38,525.76L222.05,525.76L225.72,523.93L231.23,522.09L234.9,520.26L240.4,518.42L244.07,514.75L247.74,512.92L251.41,512.92L253.25,511.08L256.92,511.08L260.59,509.25L264.26,507.41L267.93,505.58L271.6,503.74L275.27,501.91L278.94,500.07L282.61,498.24L286.28,496.4L289.95,494.57L291.78,492.73L297.29,489.06L300.96,487.23L306.47,483.56L310.14,481.72L311.97,478.05L315.64,474.38L317.48,472.54" fill="none" stroke="#000000" style="-webkit-tap-highlight-color: rgba(0, 0, 0, 0); stroke-linecap: round; stroke-linejoin: round; stroke-width: 5;" /><path d="M88.09,560.63L89.92,556.96L86.25,556.96L82.58,556.96L78.91,558.8L75.24,558.8L67.9,562.47L62.39,564.3L55.05,567.97L47.71,569.81L40.37,573.48L33.03,575.31L25.69,577.15L18.35,580.82L14.68,582.65" fill="none" stroke="#000000" style="-webkit-tap-highlight-color: rgba(0, 0, 0, 0); stroke-linecap: round; stroke-linejoin: round; stroke-width: 5;" /><path d="M73.41,634.04L73.41,632.2L75.24,632.2L77.08,632.2L80.75,632.2L88.09,632.2L95.43,630.37L104.6,628.53L113.78,628.53L121.12,628.53L128.46,628.53L135.8,628.53L144.97,626.7L152.32,626.7L157.82,626.7L163.33,626.7L168.83,626.7L172.5,626.7L178.01,626.7L181.68,624.86L185.35,624.86L187.18,624.86L189.02,624.86L192.69,624.86L194.52,624.86L198.19,623.03L201.86,623.03L203.7,623.03L207.37,623.03L209.2,621.19L211.04,621.19L212.87,621.19L216.54,621.19L220.22,621.19L223.89,621.19L225.72,621.19L227.56,621.19L231.23,621.19L236.73,619.35L238.57,619.35L242.24,619.35L245.91,617.52L251.41,617.52L255.08,615.68L260.59,615.68L266.09,613.85L271.6,613.85L277.1,612.01L282.61,612.01L286.28,612.01L291.78,612.01L297.29,610.18L300.96,610.18L304.63,610.18L306.47,608.34L310.14,608.34L313.81,606.51L317.48,606.51L319.31,604.67L322.98,602.84L324.82,602.84L328.49,601L332.16,599.17L335.83,599.17L337.66,597.33L341.33,597.33L345,597.33L348.67,595.5L352.34,593.66L356.01,593.66L361.52,589.99L365.19,589.99L367.03,588.16" fill="none" stroke="#000000" style="-webkit-tap-highlight-color: rgba(0, 0, 0, 0); stroke-linecap: round; stroke-linejoin: round; stroke-width: 5;" /><path d="M365.19,595.5L365.19,593.66L367.03,593.66L367.03,591.83L370.7,591.83L374.37,591.83L378.04,591.83L381.71,589.99L387.21,589.99L390.88,589.99L396.39,588.16L401.89,586.32L409.23,584.49L414.74,584.49L416.57,584.49" fill="none" stroke="#000000" style="-webkit-tap-highlight-color: rgba(0, 0, 0, 0); stroke-linecap: round; stroke-linejoin: round; stroke-width: 5;" /></svg>