<?xml version="1.0" encoding="utf-8" ?>
<svg baseProfile="full" height="754" version="1.1" width="1024" xmlns="http://www.w3.org/2000/svg" xmlns:ev="http://www.w3.org/2001/xml-events" xmlns:xlink="http://www.w3.org/1999/xlink"><defs /><path d="M671.66,114.7L671.66,116.53L671.66,118.37L673.49,122.04L675.33,125.71L677.16,131.21L679,134.88L679,138.55L680.83,140.39L680.83,145.89L680.83,149.56L680.83,155.07L680.83,158.74L680.83,160.57L680.83,164.24L680.83,169.75L680.83,173.42L680.83,177.09L680.83,180.76L680.83,184.43L680.83,188.1L680.83,193.61L680.83,197.28L680.83,200.95L679,206.45L679,210.12L679,215.63L679,221.13L679,226.64L679,232.14L679,237.65L679,241.32L679,246.82L677.16,252.33L677.16,256L677.16,261.51L677.16,267.01L677.16,270.68L677.16,276.19L677.16,281.69L677.16,285.36L677.16,290.87L677.16,294.54L677.16,300.04L677.16,305.55L677.16,309.22L677.16,318.39L677.16,323.9L677.16,327.57L677.16,333.08L677.16,338.58L677.16,344.09L677.16,349.59L677.16,355.1L677.16,358.77L677.16,364.27L677.16,369.78L677.16,373.45L677.16,378.95L677.16,382.62L677.16,388.13L677.16,391.8L677.16,397.3L677.16,400.97L677.16,406.48L677.16,410.15L677.16,413.82L677.16,419.33L677.16,423L677.16,426.67L677.16,432.17L677.16,435.84L677.16,441.35L677.16,446.85L677.16,450.52L677.16,456.03L677.16,461.53L677.16,465.2L677.16,470.71L677.16,476.22L677.16,479.89L677.16,485.39L677.16,489.06L677.16,494.57L677.16,498.24L677.16,501.91L677.16,505.58L677.16,509.25L677.16,512.92L677.16,516.59L677.16,520.26L677.16,523.93L677.16,527.6L677.16,533.1L677.16,536.77L677.16,542.28L677.16,545.95L675.33,547.78L673.49,547.78" fill="none" stroke="#000000" style="-webkit-tap-highlight-color: rgba(0, 0, 0, 0); stroke-linecap: round; stroke-linejoin: round; stroke-width: 5;" /><path d="M671.66,118.37L669.82,116.53L671.66,116.53L675.33,114.7L677.16,114.7L680.83,114.7L684.5,114.7L688.17,114.7L691.84,112.86L695.51,112.86L699.18,112.86L702.85,112.86L704.69,112.86L708.36,112.86L710.19,112.86L713.86,112.86L715.7,112.86L717.53,111.03L719.37,111.03L721.2,111.03L723.04,111.03L724.87,111.03L726.71,111.03L728.54,111.03L730.38,111.03L732.22,112.86L734.05,112.86L735.89,114.7L737.72,116.53L739.56,116.53L741.39,118.37L743.23,118.37L743.23,120.2L743.23,122.04L743.23,123.87L741.39,125.71L739.56,127.54L737.72,131.21L737.72,133.05L735.89,134.88L734.05,138.55L734.05,142.22L732.22,145.89L732.22,149.56L732.22,153.23L730.38,156.9L730.38,158.74L728.54,164.24L726.71,167.91L726.71,171.58L726.71,175.25L726.71,178.92L724.87,184.43L724.87,188.1L724.87,193.61L723.04,197.28L723.04,202.78L723.04,206.45L721.2,211.96L721.2,217.46L721.2,222.97L721.2,228.47L721.2,233.98L721.2,239.48L721.2,243.15L721.2,248.66L721.2,252.33L721.2,257.84L721.2,263.34L721.2,268.85L721.2,274.35L721.2,279.86L721.2,285.36L721.2,290.87L723.04,296.37L723.04,301.88L723.04,307.38L723.04,314.72L723.04,322.06L723.04,329.41L723.04,336.75L724.87,345.92L724.87,351.43L724.87,358.77L724.87,364.27L726.71,371.61L726.71,377.12L726.71,382.62L728.54,388.13L728.54,400.97L730.38,410.15L730.38,415.66L730.38,421.16L730.38,426.67L730.38,432.17L730.38,439.51L730.38,446.85L730.38,452.36L730.38,459.7L730.38,465.2L730.38,472.54L730.38,479.89L730.38,485.39L730.38,492.73L730.38,496.4L730.38,501.91L730.38,507.41L730.38,511.08L730.38,516.59L730.38,520.26L730.38,523.93L730.38,527.6L730.38,531.27L730.38,533.1L730.38,536.77L730.38,540.44L730.38,544.11L730.38,545.95L732.22,549.62L732.22,551.46L732.22,555.13L732.22,556.96L732.22,555.13" fill="none" stroke="#000000" style="-webkit-tap-highlight-color: rgba(0, 0, 0, 0); stroke-linecap: round; stroke-linejoin: round; stroke-width: 5;" /><path d="M675.33,549.62L677.16,549.62L673.49,551.46L673.49,553.29L671.66,555.13L669.82,556.96L667.99,558.8L666.15,560.63L666.15,564.3L664.32,566.14L664.32,567.97L666.15,569.81L666.15,571.64L667.99,573.48L667.99,577.15L669.82,578.98L669.82,580.82L671.66,582.65L673.49,584.49L675.33,586.32L677.16,588.16L679,591.83L682.67,591.83L688.17,593.66L691.84,593.66L697.35,593.66L701.02,593.66L704.69,593.66L708.36,593.66L712.03,593.66L715.7,593.66L717.53,595.5L721.2,595.5L724.87,595.5L726.71,595.5L728.54,593.66L728.54,591.83L730.38,591.83L730.38,589.99L732.22,588.16L732.22,584.49L732.22,582.65L732.22,578.98L732.22,575.31L732.22,569.81L732.22,564.3L732.22,555.13L732.22,549.62L732.22,542.28" fill="none" stroke="#000000" style="-webkit-tap-highlight-color: rgba(0, 0, 0, 0); stroke-linecap: round; stroke-linejoin: round; stroke-width: 5;" /><path d="M811.13,133.05L811.13,140.39L814.8,147.73L820.3,151.4L822.14,155.07L823.97,158.74L825.81,160.57L827.64,162.41L829.48,164.24L831.31,166.08L831.31,167.91L833.15,171.58L833.15,173.42L834.98,177.09L834.98,178.92L834.98,182.59L834.98,186.27L836.82,189.94L836.82,193.61L836.82,197.28L836.82,202.78L836.82,206.45L838.65,210.12L838.65,213.79L838.65,217.46L836.82,222.97L836.82,228.47L834.98,233.98L834.98,239.48L834.98,244.99L834.98,250.49L834.98,256L834.98,261.51L834.98,265.18L834.98,272.52L834.98,276.19L834.98,281.69L834.98,285.36L834.98,289.03L836.82,292.7L836.82,298.21L836.82,303.71L836.82,307.38L836.82,311.05L836.82,314.72L836.82,318.39L836.82,323.9L836.82,329.41L836.82,333.08L836.82,340.42L836.82,344.09L838.65,349.59L838.65,355.1L838.65,360.6L838.65,369.78L838.65,375.28L838.65,382.62L840.49,388.13L840.49,393.63L840.49,406.48L840.49,410.15L840.49,411.99L840.49,415.66L840.49,419.33L840.49,424.83L840.49,428.5L840.49,434.01L840.49,437.68L840.49,443.18L840.49,448.69L840.49,454.19L840.49,459.7L840.49,465.2L840.49,468.87L840.49,474.38L840.49,478.05L840.49,483.56L840.49,489.06L840.49,494.57L840.49,498.24L840.49,500.07L840.49,503.74L840.49,509.25L840.49,512.92L840.49,516.59L840.49,520.26L840.49,523.93L842.32,527.6L842.32,529.43L842.32,533.1L842.32,534.94L842.32,536.77L842.32,538.61L840.49,542.28L840.49,544.11L838.65,545.95L838.65,547.78L836.82,549.62L834.98,551.46L834.98,555.13L833.15,558.8L833.15,560.63L831.31,562.47L831.31,564.3L831.31,566.14L831.31,567.97L831.31,571.64L833.15,573.48L834.98,577.15L834.98,578.98" fill="none" stroke="#000000" style="-webkit-tap-highlight-color: rgba(0, 0, 0, 0); stroke-linecap: round; stroke-linejoin: round; stroke-width: 5;" /><path d="M897.38,129.38L895.54,131.21L893.71,134.88L891.87,138.55L890.04,142.22L888.2,145.89L886.37,147.73L884.53,149.56L882.7,151.4L880.86,155.07L880.86,158.74L879.03,160.57L879.03,162.41L879.03,164.24L879.03,166.08L879.03,169.75L879.03,173.42L879.03,177.09L879.03,182.59L877.19,186.27L877.19,191.77L877.19,197.28L877.19,202.78L877.19,206.45L879.03,210.12L879.03,213.79L879.03,224.8L879.03,230.31L879.03,233.98L879.03,239.48L879.03,244.99L879.03,248.66L879.03,254.16L879.03,257.84L879.03,263.34L879.03,267.01L879.03,276.19L880.86,281.69L880.86,285.36L880.86,289.03L882.7,290.87L882.7,294.54L882.7,300.04L882.7,303.71L882.7,309.22L882.7,312.89L882.7,316.56L882.7,322.06L884.53,325.73L884.53,331.24L884.53,334.91L884.53,340.42L884.53,344.09L884.53,349.59L884.53,355.1L886.37,362.44L886.37,367.94L886.37,375.28L888.2,380.79L888.2,384.46L888.2,386.29L890.04,397.3L891.87,408.32L891.87,417.49L891.87,423L891.87,424.83L893.71,430.34L893.71,437.68L893.71,443.18L893.71,450.52L893.71,456.03L893.71,461.53L893.71,467.04L893.71,472.54L893.71,478.05L893.71,483.56L893.71,489.06L893.71,494.57L893.71,500.07L893.71,503.74L893.71,507.41L893.71,511.08L893.71,516.59L893.71,520.26L895.54,522.09L895.54,525.76L895.54,527.6L895.54,531.27L897.38,534.94L897.38,538.61L897.38,540.44L899.21,540.44L899.21,544.11L899.21,545.95L901.05,549.62L901.05,553.29L901.05,555.13L902.88,556.96L902.88,560.63L902.88,562.47L904.72,564.3L904.72,566.14L904.72,569.81L906.55,569.81L906.55,571.64L906.55,573.48L906.55,577.15L904.72,577.15L904.72,578.98L902.88,578.98L901.05,580.82L899.21,580.82L897.38,580.82L895.54,580.82L893.71,580.82L891.87,580.82L890.04,578.98L888.2,578.98L884.53,578.98L880.86,578.98L879.03,578.98L875.35,578.98L871.68,578.98L868.01,580.82L866.18,580.82L862.51,580.82L858.84,580.82L855.17,580.82L851.5,580.82L847.83,580.82L842.32,582.65L838.65,580.82" fill="none" stroke="#000000" style="-webkit-tap-highlight-color: rgba(0, 0, 0, 0); stroke-linecap: round; stroke-linejoin: round; stroke-width: 5;" /><path d="M809.29,133.05L805.62,136.72L807.46,136.72L811.13,134.88L812.96,134.88L814.8,133.05L818.47,131.21L820.3,129.38L822.14,129.38L825.81,129.38L827.64,129.38L831.31,129.38L833.15,129.38L833.15,127.54L834.98,125.71L836.82,123.87L838.65,122.04L840.49,120.2L840.49,118.37L842.32,116.53L844.16,116.53L845.99,114.7L847.83,114.7L849.66,114.7L851.5,114.7L853.33,114.7L857,114.7L858.84,114.7L864.34,116.53L866.18,118.37L869.85,120.2L871.68,122.04L875.35,122.04L879.03,122.04L882.7,122.04L888.2,122.04L893.71,122.04L897.38,122.04L901.05,120.2L906.55,120.2" fill="none" stroke="#000000" style="-webkit-tap-highlight-color: rgba(0, 0, 0, 0); stroke-linecap: round; stroke-linejoin: round; stroke-width: 5;" /><path d="M176.17,70.65L174.34,70.65L172.5,70.65L172.5,72.49L172.5,76.16L172.5,81.66L172.5,87.17L174.34,92.67L174.34,96.34L176.17,101.85L178.01,105.52L179.84,109.19L179.84,114.7L181.68,120.2L181.68,123.87L183.51,127.54L183.51,133.05L183.51,136.72L183.51,140.39L185.35,145.89L185.35,151.4L185.35,155.07L185.35,160.57L185.35,171.58L185.35,178.92L185.35,182.59L185.35,188.1L185.35,195.44L185.35,200.95L185.35,208.29L185.35,213.79L187.18,221.13L187.18,226.64L187.18,233.98L187.18,241.32L185.35,248.66L185.35,254.16L185.35,259.67L185.35,267.01L185.35,272.52L185.35,279.86L185.35,285.36L183.51,290.87L183.51,298.21L183.51,305.55L181.68,311.05L181.68,316.56L181.68,323.9L181.68,329.41L181.68,333.08L181.68,338.58L181.68,345.92L181.68,351.43L179.84,356.93L179.84,362.44L179.84,367.94L178.01,371.61L178.01,377.12L178.01,382.62L178.01,388.13L178.01,393.63L176.17,399.14L176.17,404.65L176.17,411.99L176.17,417.49L174.34,424.83L174.34,430.34L174.34,437.68L174.34,445.02L174.34,450.52L172.5,456.03L172.5,461.53L172.5,468.87L172.5,472.54L172.5,478.05L172.5,483.56L172.5,489.06L172.5,492.73L172.5,498.24L172.5,503.74L172.5,509.25L172.5,514.75L172.5,523.93L172.5,529.43L172.5,533.1L172.5,536.77L172.5,540.44L172.5,544.11L172.5,547.78L170.67,551.46L168.83,555.13L168.83,558.8L167,564.3L165.16,567.97L163.33,571.64L161.49,577.15L161.49,582.65L159.66,589.99L159.66,595.5L159.66,601L159.66,599.17" fill="none" stroke="#000000" style="-webkit-tap-highlight-color: rgba(0, 0, 0, 0); stroke-linecap: round; stroke-linejoin: round; stroke-width: 5;" /><path d="M176.17,76.16L176.17,74.32L178.01,76.16L179.84,76.16L183.51,77.99L189.02,79.83L192.69,81.66L196.36,81.66L198.19,81.66L201.86,81.66L203.7,83.5L207.37,83.5L209.2,85.33L212.87,85.33L214.71,85.33L216.54,85.33L220.22,85.33L222.05,85.33L223.89,87.17L227.56,87.17L229.39,87.17L231.23,87.17L233.06,87.17L234.9,87.17L234.9,85.33L236.73,85.33L238.57,85.33L240.4,85.33L242.24,87.17L242.24,89L242.24,90.84L242.24,92.67L242.24,96.34L242.24,100.01L242.24,105.52L242.24,109.19L242.24,112.86L242.24,118.37L240.4,123.87L240.4,129.38L238.57,134.88L238.57,138.55L236.73,144.06L236.73,151.4L234.9,156.9L233.06,162.41L233.06,167.91L233.06,175.25L233.06,182.59L231.23,189.94L231.23,199.11L229.39,204.62L229.39,211.96L229.39,217.46L229.39,224.8L229.39,232.14L229.39,237.65L229.39,244.99L229.39,254.16L229.39,259.67L229.39,265.18L229.39,270.68L229.39,274.35L229.39,279.86L229.39,285.36L229.39,290.87L229.39,296.37L229.39,303.71L229.39,309.22L229.39,316.56L229.39,325.73L229.39,333.08L231.23,340.42L231.23,345.92L231.23,353.26L231.23,360.6L231.23,369.78L231.23,377.12L233.06,384.46L233.06,389.96L233.06,397.3L233.06,404.65L234.9,413.82L234.9,419.33L234.9,426.67L234.9,434.01L234.9,441.35L236.73,446.85L236.73,452.36L236.73,457.86L236.73,463.37L236.73,468.87L236.73,474.38L236.73,479.89L236.73,487.23L236.73,490.9L236.73,496.4L236.73,501.91L236.73,507.41L236.73,512.92L236.73,520.26L236.73,525.76L236.73,529.43L236.73,533.1L236.73,538.61L236.73,542.28L236.73,547.78L236.73,553.29L236.73,558.8L236.73,562.47L236.73,564.3L236.73,567.97L236.73,571.64L236.73,575.31L238.57,577.15L238.57,578.98L238.57,582.65L238.57,588.16L240.4,589.99L240.4,593.66L240.4,595.5L240.4,597.33L238.57,599.17L236.73,601L234.9,604.67L233.06,606.51L229.39,608.34L225.72,610.18L222.05,610.18L218.38,612.01L214.71,612.01L211.04,613.85L209.2,613.85L205.53,613.85L201.86,613.85L196.36,613.85L192.69,612.01L189.02,612.01L185.35,612.01L179.84,612.01L176.17,610.18L170.67,610.18L167,608.34L161.49,606.51L159.66,604.67L155.99,604.67L154.15,604.67" fill="none" stroke="#000000" style="-webkit-tap-highlight-color: rgba(0, 0, 0, 0); stroke-linecap: round; stroke-linejoin: round; stroke-width: 5;" /><path d="M170.67,566.14L168.83,566.14L168.83,567.97L170.67,569.81L181.68,569.81L198.19,571.64L209.2,571.64L218.38,569.81L225.72,566.14L231.23,562.47" fill="none" stroke="#000000" style="-webkit-tap-highlight-color: rgba(0, 0, 0, 0); stroke-linecap: round; stroke-linejoin: round; stroke-width: 5;" /><path d="M181.68,158.74L179.84,158.74L179.84,160.57L178.01,160.57L176.17,160.57L172.5,162.41L170.67,162.41L167,164.24L165.16,164.24L161.49,164.24L157.82,164.24L152.32,164.24L148.65,164.24L146.81,164.24L143.14,164.24L139.47,164.24L133.96,164.24L130.29,164.24L128.46,162.41L124.79,162.41L121.12,162.41L115.61,162.41L111.94,160.57L108.27,160.57L104.6,160.57L102.77,160.57L100.93,160.57L99.1,160.57L97.26,160.57L95.43,160.57L93.59,160.57L93.59,162.41L91.76,164.24L91.76,166.08L89.92,169.75L89.92,173.42L88.09,175.25L88.09,178.92L86.25,182.59L86.25,186.27L84.42,189.94L84.42,193.61L84.42,199.11L82.58,202.78L82.58,206.45L80.75,211.96L80.75,215.63L78.91,219.3L77.08,224.8L77.08,230.31L75.24,233.98L75.24,237.65L75.24,241.32L75.24,246.82L73.41,252.33L73.41,257.84L71.57,267.01L71.57,272.52L71.57,276.19L69.73,281.69L69.73,285.36L69.73,289.03L69.73,292.7L69.73,296.37L69.73,300.04L69.73,303.71L69.73,307.38L69.73,311.05L69.73,314.72L69.73,318.39L69.73,320.23L69.73,322.06L69.73,323.9L69.73,325.73L69.73,327.57L69.73,329.41L67.9,329.41L66.06,329.41L64.23,331.24L62.39,331.24L60.56,333.08L56.89,333.08L55.05,333.08L51.38,333.08L47.71,333.08L44.04,333.08L40.37,333.08L38.54,333.08L34.87,333.08L33.03,333.08L29.36,331.24L27.53,329.41L25.69,329.41L22.02,329.41L20.19,327.57L16.52,327.57L14.68,325.73L12.85,325.73L11.01,323.9L9.18,322.06L7.34,320.23L3.67,318.39L1.84,318.39" fill="none" stroke="#000000" style="-webkit-tap-highlight-color: rgba(0, 0, 0, 0); stroke-linecap: round; stroke-linejoin: round; stroke-width: 5;" /><path d="M238.57,153.23L238.57,155.07L240.4,155.07L244.07,156.9L247.74,158.74L251.41,160.57L255.08,162.41L258.75,162.41L264.26,164.24L267.93,166.08L273.43,166.08L277.1,167.91L280.77,167.91L284.44,167.91L288.11,167.91L291.78,167.91L293.62,167.91L297.29,167.91L302.8,167.91L306.47,167.91L310.14,167.91L313.81,167.91L317.48,166.08L321.15,166.08L324.82,164.24L328.49,164.24L330.32,162.41L333.99,160.57L337.66,158.74L341.33,156.9L345,155.07L348.67,153.23L352.34,151.4L356.01,151.4L359.68,149.56L361.52,147.73L365.19,147.73L368.86,145.89L370.7,145.89L374.37,144.06L378.04,144.06L379.87,144.06L383.54,142.22L387.21,142.22L390.88,142.22L394.55,142.22L398.22,142.22L401.89,140.39L407.4,140.39L411.07,140.39L416.57,140.39L422.08,140.39L425.75,140.39L429.42,140.39L433.09,140.39L438.59,140.39L442.27,140.39L447.77,140.39L451.44,140.39L455.11,140.39L458.78,140.39L462.45,140.39L464.29,140.39L467.96,142.22L469.79,142.22L471.63,142.22L473.46,144.06L475.3,144.06L477.13,145.89L478.97,147.73L478.97,149.56L480.8,151.4L480.8,153.23L482.64,155.07L482.64,156.9L482.64,158.74L482.64,160.57L484.47,164.24L484.47,166.08L484.47,167.91L486.31,169.75L488.14,171.58L489.98,173.42L489.98,175.25L491.81,175.25L493.65,177.09L495.48,178.92L495.48,180.76L497.32,182.59L499.15,182.59L499.15,184.43L500.99,184.43L502.82,186.27L502.82,188.1L504.66,188.1L506.49,189.94L508.33,189.94L510.16,189.94L512,191.77L513.84,191.77L515.67,193.61L517.51,193.61L519.34,195.44L523.01,195.44L523.01,197.28L526.68,197.28L528.52,197.28L530.35,199.11L532.19,199.11L534.02,200.95L535.86,200.95L539.53,202.78L541.36,202.78L543.2,202.78L545.03,202.78L546.87,204.62L548.7,204.62L550.54,204.62L552.37,204.62L554.21,204.62L556.04,206.45L557.88,206.45L559.71,206.45L561.55,208.29L563.38,208.29L565.22,208.29L567.05,210.12L568.89,210.12L570.72,211.96L572.56,211.96L574.39,213.79L576.23,213.79L578.06,213.79L579.9,213.79L581.73,215.63L583.57,215.63L585.41,215.63L589.08,215.63L590.91,215.63L592.75,217.46L594.58,217.46L596.42,217.46L598.25,217.46L600.09,217.46L600.09,219.3L601.92,219.3L603.76,219.3L605.59,219.3L605.59,221.13L607.43,221.13L607.43,222.97L609.26,224.8L611.1,226.64L611.1,228.47L612.93,232.14L612.93,233.98L612.93,237.65L614.77,239.48L614.77,241.32L616.6,244.99L616.6,246.82L616.6,248.66L618.44,252.33L618.44,254.16L618.44,256L618.44,257.84L618.44,259.67L618.44,261.51L620.27,263.34L620.27,265.18L620.27,267.01L620.27,270.68L620.27,272.52L620.27,274.35L620.27,278.02L622.11,279.86L622.11,281.69L622.11,283.53L622.11,285.36L623.94,287.2L625.78,289.03L625.78,290.87L627.61,290.87L629.45,290.87L631.28,292.7L633.12,292.7L634.95,292.7L636.79,294.54L638.62,294.54L640.46,294.54L642.29,296.37L644.13,296.37L645.96,298.21L649.63,298.21L651.47,300.04L653.3,300.04L655.14,300.04L658.81,301.88L662.48,303.71L666.15,309.22" fill="none" stroke="#000000" style="-webkit-tap-highlight-color: rgba(0, 0, 0, 0); stroke-linecap: round; stroke-linejoin: round; stroke-width: 5;" /><path d="M724.87,309.22L723.04,309.22L724.87,309.22L734.05,305.55L737.72,305.55L741.39,305.55L745.06,305.55L750.57,305.55L754.24,305.55L759.74,303.71L763.41,301.88L767.08,300.04L770.75,300.04L774.42,298.21L779.93,296.37L783.6,294.54L789.1,292.7L792.77,292.7L794.61,292.7L796.44,290.87L798.28,290.87L800.11,290.87L803.78,290.87L805.62,289.03L807.46,289.03L809.29,289.03L811.13,289.03L814.8,287.2L816.63,285.36L820.3,283.53L823.97,283.53L827.64,283.53L829.48,283.53L831.31,283.53" fill="none" stroke="#000000" style="-webkit-tap-highlight-color: rgba(0, 0, 0, 0); stroke-linecap: round; stroke-linejoin: round; stroke-width: 5;" /><path d="M893.71,270.68L888.2,268.85L891.87,270.68L893.71,270.68L897.38,270.68L902.88,270.68L908.39,270.68L913.89,268.85L919.4,268.85L926.74,267.01L932.24,267.01L939.58,265.18L946.92,263.34L952.43,263.34L959.77,261.51L963.44,259.67L968.95,259.67L974.45,259.67L978.12,257.84L983.63,257.84L989.13,256L994.64,256L998.31,254.16L1001.98,254.16L1005.65,254.16L1007.48,254.16L1011.15,254.16L1012.99,254.16L1016.66,254.16L1018.49,254.16L1022.16,254.16L1024,256" fill="none" stroke="#000000" style="-webkit-tap-highlight-color: rgba(0, 0, 0, 0); stroke-linecap: round; stroke-linejoin: round; stroke-width: 5;" /><path d="M53.22,523.93L51.38,522.09L51.38,520.26L51.38,522.09L55.05,522.09L58.72,522.09L62.39,522.09L67.9,522.09L75.24,522.09L80.75,520.26L86.25,520.26L91.76,520.26L95.43,520.26L99.1,520.26L102.77,522.09L106.44,522.09L110.11,522.09L113.78,520.26L117.45,520.26L121.12,518.42L124.79,518.42L128.46,518.42L132.13,518.42L133.96,518.42L137.63,518.42L141.3,518.42L144.97,518.42L148.65,518.42L152.32,518.42L155.99,518.42L161.49,518.42L168.83,516.59L174.34,516.59" fill="none" stroke="#000000" style="-webkit-tap-highlight-color: rgba(0, 0, 0, 0); stroke-linecap: round; stroke-linejoin: round; stroke-width: 5;" /><path d="M251.41,522.09L249.58,518.42L247.74,516.59L245.91,514.75L245.91,512.92L245.91,511.08L247.74,511.08L249.58,511.08L253.25,511.08L258.75,509.25L264.26,509.25L271.6,507.41L278.94,505.58L282.61,505.58L288.11,505.58L293.62,505.58L299.13,505.58L306.47,505.58L311.97,505.58L315.64,507.41L319.31,509.25L322.98,511.08L328.49,511.08L333.99,512.92L339.5,512.92L345,514.75L348.67,514.75L354.18,516.59L359.68,516.59L367.03,516.59L374.37,516.59L381.71,516.59L389.05,516.59L396.39,514.75L401.89,514.75L407.4,514.75L411.07,514.75L416.57,514.75L422.08,514.75L425.75,514.75L431.25,514.75L436.76,514.75L440.43,514.75L444.1,514.75L447.77,514.75L451.44,514.75L456.95,514.75L462.45,514.75L467.96,514.75L471.63,514.75L477.13,514.75L482.64,514.75L488.14,514.75L493.65,514.75L499.15,514.75L504.66,514.75L508.33,514.75L512,514.75L517.51,514.75L523.01,514.75L528.52,512.92L532.19,512.92L535.86,512.92L537.69,512.92L541.36,512.92L543.2,512.92L546.87,514.75L550.54,514.75L552.37,514.75L554.21,514.75L557.88,514.75L559.71,516.59L561.55,516.59L565.22,516.59L567.05,516.59L568.89,516.59L570.72,516.59L572.56,518.42L574.39,518.42L579.9,518.42L585.41,520.26L590.91,520.26" fill="none" stroke="#000000" style="-webkit-tap-highlight-color: rgba(0, 0, 0, 0); stroke-linecap: round; stroke-linejoin: round; stroke-width: 5;" /><path d="M245.91,564.3L245.91,562.47L245.91,560.63L245.91,558.8L247.74,558.8L251.41,558.8L256.92,560.63L262.42,560.63L271.6,560.63L280.77,560.63L288.11,558.8L297.29,556.96L304.63,556.96L311.97,556.96L319.31,556.96L324.82,556.96L332.16,556.96L341.33,555.13L348.67,555.13L354.18,555.13L357.85,556.96L363.35,556.96L370.7,556.96L379.87,556.96L387.21,556.96L394.55,558.8L400.06,558.8L405.56,558.8L412.9,558.8L420.24,556.96L427.58,556.96L434.92,556.96L442.27,555.13L447.77,555.13L455.11,553.29L462.45,551.46L469.79,551.46L477.13,549.62L484.47,549.62L489.98,549.62L495.48,549.62L499.15,549.62L504.66,549.62L508.33,549.62L512,549.62L517.51,549.62L521.18,549.62L528.52,549.62L532.19,549.62L535.86,549.62L539.53,549.62L545.03,549.62L548.7,549.62L554.21,549.62L557.88,549.62L561.55,549.62L565.22,551.46L570.72,551.46L572.56,551.46L576.23,551.46L578.06,551.46L581.73,553.29" fill="none" stroke="#000000" style="-webkit-tap-highlight-color: rgba(0, 0, 0, 0); stroke-linecap: round; stroke-linejoin: round; stroke-width: 5;" /><path d="M82.58,558.8L80.75,558.8L77.08,556.96L80.75,555.13L86.25,555.13L91.76,556.96L99.1,556.96L104.6,558.8L110.11,560.63L115.61,560.63L121.12,560.63L126.62,560.63L132.13,560.63L135.8,558.8L141.3,558.8L144.97,558.8L148.65,558.8L152.32,558.8L155.99,556.96L161.49,556.96L168.83,555.13" fill="none" stroke="#000000" style="-webkit-tap-highlight-color: rgba(0, 0, 0, 0); stroke-linecap: round; stroke-linejoin: round; stroke-width: 5;" /><path d="M244.07,402.81L242.24,402.81L242.24,400.97L242.24,399.14L244.07,395.47L244.07,391.8L245.91,389.96L245.91,386.29L247.74,382.62L249.58,378.95L251.41,375.28L253.25,371.61L255.08,367.94L256.92,364.27L258.75,360.6L262.42,358.77L264.26,355.1L266.09,353.26L267.93,351.43L271.6,349.59L273.43,347.76L277.1,347.76L280.77,345.92L284.44,345.92L288.11,345.92L291.78,345.92L295.46,345.92L299.13,347.76L304.63,349.59L310.14,349.59L313.81,349.59L317.48,349.59L321.15,349.59L324.82,351.43L328.49,351.43L332.16,351.43L335.83,351.43L339.5,351.43L343.17,351.43L346.84,351.43L350.51,351.43L352.34,351.43L356.01,353.26L359.68,353.26L363.35,353.26L367.03,353.26L368.86,353.26L372.53,353.26L374.37,353.26L376.2,353.26L378.04,353.26L379.87,355.1L381.71,355.1L383.54,356.93L385.38,358.77L387.21,360.6L389.05,360.6L390.88,364.27L392.72,366.11L394.55,367.94L396.39,369.78L398.22,373.45L400.06,375.28L401.89,377.12L403.73,378.95L405.56,382.62L407.4,384.46L407.4,386.29L409.23,389.96L411.07,391.8L411.07,393.63L412.9,395.47L412.9,397.3L412.9,400.97L414.74,402.81L414.74,406.48L414.74,408.32L416.57,411.99L416.57,413.82L416.57,417.49L416.57,419.33L416.57,421.16L416.57,424.83L416.57,428.5L416.57,432.17L416.57,434.01L416.57,437.68L416.57,441.35L416.57,445.02L416.57,448.69L414.74,452.36L414.74,457.86L412.9,463.37L412.9,467.04L412.9,472.54L412.9,478.05L412.9,479.89" fill="none" stroke="#000000" style="-webkit-tap-highlight-color: rgba(0, 0, 0, 0); stroke-linecap: round; stroke-linejoin: round; stroke-width: 5;" /><path d="M288.11,204.62L288.11,202.78L289.95,200.95L293.62,200.95L297.29,199.11L300.96,199.11L308.3,200.95L315.64,200.95L322.98,202.78L330.32,202.78L335.83,202.78L341.33,202.78L346.84,204.62L352.34,206.45L357.85,208.29L365.19,208.29L372.53,210.12L378.04,210.12L383.54,211.96L389.05,211.96L394.55,211.96L400.06,211.96L407.4,211.96L412.9,211.96L416.57,211.96L422.08,211.96L425.75,211.96L431.25,211.96L434.92,211.96L438.59,211.96L442.27,211.96L445.94,211.96L449.61,211.96L453.28,211.96L458.78,211.96L464.29,210.12L469.79,210.12L475.3,208.29L480.8,208.29L484.47,208.29" fill="none" stroke="#000000" style="-webkit-tap-highlight-color: rgba(0, 0, 0, 0); stroke-linecap: round; stroke-linejoin: round; stroke-width: 5;" /><path d="M295.46,206.45L295.46,204.62L293.62,204.62L291.78,206.45L289.95,208.29L288.11,211.96L284.44,217.46L280.77,221.13L278.94,226.64L277.1,230.31L275.27,237.65L273.43,243.15L271.6,248.66L271.6,254.16L271.6,259.67L269.76,265.18L269.76,268.85L269.76,272.52L269.76,276.19L269.76,279.86L269.76,283.53L269.76,287.2L269.76,292.7L267.93,296.37L267.93,301.88L267.93,307.38L267.93,311.05L267.93,316.56L267.93,322.06L267.93,329.41L267.93,333.08" fill="none" stroke="#000000" style="-webkit-tap-highlight-color: rgba(0, 0, 0, 0); stroke-linecap: round; stroke-linejoin: round; stroke-width: 5;" /><path d="M445.94,259.67L444.1,259.67L449.61,259.67L455.11,259.67L458.78,259.67L462.45,259.67L466.12,259.67L469.79,259.67L473.46,259.67L475.3,259.67L475.3,261.51L475.3,265.18L475.3,267.01L475.3,270.68L475.3,274.35L473.46,279.86L473.46,283.53L473.46,289.03L473.46,294.54L473.46,298.21L473.46,301.88L473.46,305.55L473.46,309.22L471.63,312.89L471.63,316.56L469.79,318.39L467.96,322.06L467.96,323.9L466.12,323.9L464.29,325.73L462.45,325.73L460.62,325.73L456.95,325.73L453.28,325.73L449.61,325.73L445.94,325.73L444.1,325.73L442.27,325.73L440.43,325.73L440.43,323.9L440.43,322.06L440.43,320.23L440.43,316.56L442.27,311.05L442.27,303.71L442.27,294.54L442.27,287.2L444.1,279.86L444.1,274.35L442.27,268.85L442.27,267.01L442.27,265.18L444.1,263.34L445.94,261.51L447.77,259.67" fill="none" stroke="#000000" style="-webkit-tap-highlight-color: rgba(0, 0, 0, 0); stroke-linecap: round; stroke-linejoin: round; stroke-width: 5;" /><path d="M324.82,250.49L321.15,250.49L319.31,248.66L322.98,248.66L324.82,248.66L328.49,248.66L332.16,248.66L333.99,250.49L337.66,250.49L341.33,252.33L345,252.33L346.84,254.16L346.84,256L346.84,257.84L346.84,259.67L346.84,263.34L346.84,267.01L346.84,272.52L346.84,278.02L345,285.36L345,292.7L346.84,298.21L346.84,303.71L346.84,309.22L346.84,312.89L346.84,316.56L346.84,320.23L345,322.06L345,323.9L343.17,325.73L341.33,325.73L339.5,325.73L337.66,325.73L335.83,325.73L332.16,325.73L328.49,325.73L324.82,325.73L321.15,325.73L319.31,325.73L319.31,323.9L319.31,322.06L319.31,318.39L319.31,314.72L319.31,311.05L319.31,303.71L319.31,294.54L319.31,285.36L319.31,276.19L317.48,268.85L317.48,261.51L317.48,256L315.64,250.49L315.64,248.66L315.64,246.82L317.48,244.99L319.31,243.15" fill="none" stroke="#000000" style="-webkit-tap-highlight-color: rgba(0, 0, 0, 0); stroke-linecap: round; stroke-linejoin: round; stroke-width: 5;" /><path d="M578.06,558.8L578.06,556.96L578.06,555.13L579.9,556.96L579.9,558.8L581.73,558.8L581.73,560.63L583.57,562.47L585.41,564.3L587.24,566.14L587.24,567.97L589.08,567.97L590.91,569.81L590.91,571.64L592.75,571.64L594.58,573.48L596.42,573.48L598.25,575.31L600.09,575.31L601.92,575.31L603.76,577.15L605.59,577.15L607.43,577.15L609.26,577.15L612.93,578.98L616.6,578.98L620.27,578.98L623.94,578.98L629.45,577.15L633.12,577.15L636.79,577.15L642.29,577.15L647.8,577.15L653.3,575.31L655.14,575.31" fill="none" stroke="#000000" style="-webkit-tap-highlight-color: rgba(0, 0, 0, 0); stroke-linecap: round; stroke-linejoin: round; stroke-width: 5;" /><path d="M770.75,533.1L770.75,529.43L772.59,529.43L772.59,531.27L772.59,534.94L770.75,536.77L770.75,542.28L768.92,547.78L768.92,553.29L767.08,558.8L767.08,564.3L768.92,569.81L768.92,575.31L770.75,580.82L772.59,586.32L772.59,591.83L770.75,595.5L768.92,601L767.08,604.67L765.25,604.67" fill="none" stroke="#000000" style="-webkit-tap-highlight-color: rgba(0, 0, 0, 0); stroke-linecap: round; stroke-linejoin: round; stroke-width: 5;" /><path d="M774.42,531.27L772.59,531.27L770.75,531.27L772.59,529.43L778.09,527.6L781.76,527.6L785.43,527.6L789.1,527.6L790.94,527.6L792.77,529.43L794.61,529.43L796.44,533.1L796.44,534.94L796.44,538.61L796.44,542.28L796.44,545.95L796.44,549.62L796.44,553.29L796.44,556.96L796.44,560.63L796.44,564.3L796.44,567.97L796.44,571.64L796.44,575.31L798.28,578.98L798.28,582.65L798.28,586.32L798.28,589.99L800.11,591.83L800.11,595.5L800.11,599.17L801.95,602.84L801.95,608.34L803.78,612.01" fill="none" stroke="#000000" style="-webkit-tap-highlight-color: rgba(0, 0, 0, 0); stroke-linecap: round; stroke-linejoin: round; stroke-width: 5;" /><path d="M904.72,547.78L902.88,547.78L901.05,547.78L902.88,547.78L906.55,545.95L910.22,545.95L913.89,545.95L915.73,545.95L919.4,545.95L924.9,545.95L930.41,545.95L935.91,545.95L939.58,545.95L945.09,545.95L948.76,545.95L952.43,545.95L956.1,544.11L959.77,544.11L965.28,544.11L968.95,544.11L972.62,545.95L978.12,545.95L983.63,545.95L989.13,545.95L996.47,545.95L1003.81,544.11L1016.66,542.28L1018.49,542.28" fill="none" stroke="#000000" style="-webkit-tap-highlight-color: rgba(0, 0, 0, 0); stroke-linecap: round; stroke-linejoin: round; stroke-width: 5;" /><path d="M611.1,476.22L611.1,474.38L611.1,472.54L609.26,472.54L609.26,470.71L609.26,472.54L609.26,474.38L611.1,476.22L611.1,479.89L612.93,483.56L612.93,487.23L612.93,490.9L612.93,494.57L612.93,498.24L611.1,501.91L611.1,505.58L611.1,509.25L609.26,512.92L609.26,514.75L609.26,518.42L609.26,520.26L609.26,523.93L607.43,527.6L607.43,529.43L607.43,533.1L607.43,536.77L607.43,540.44L605.59,544.11L605.59,547.78L605.59,551.46L605.59,555.13L605.59,560.63L605.59,566.14L605.59,569.81L605.59,575.31L605.59,577.15L605.59,578.98" fill="none" stroke="#000000" style="-webkit-tap-highlight-color: rgba(0, 0, 0, 0); stroke-linecap: round; stroke-linejoin: round; stroke-width: 5;" /><path d="M605.59,476.22L607.43,474.38L609.26,472.54L611.1,472.54L614.77,472.54L618.44,472.54L622.11,472.54L625.78,470.71L629.45,470.71L631.28,470.71L633.12,470.71L634.95,470.71L636.79,470.71L638.62,470.71L640.46,470.71L640.46,472.54L640.46,474.38L640.46,476.22L642.29,478.05L642.29,479.89L640.46,483.56L640.46,487.23L638.62,490.9L638.62,494.57L638.62,498.24L638.62,503.74L636.79,507.41L636.79,511.08L636.79,516.59L636.79,518.42L636.79,522.09L636.79,525.76L636.79,527.6L636.79,531.27L636.79,533.1L636.79,536.77L636.79,538.61L636.79,542.28L636.79,545.95L636.79,547.78L636.79,549.62L636.79,551.46L636.79,555.13L636.79,556.96L636.79,558.8L636.79,560.63L636.79,562.47L636.79,564.3L636.79,566.14L636.79,567.97L636.79,569.81L636.79,571.64L636.79,573.48L636.79,575.31" fill="none" stroke="#000000" style="-webkit-tap-highlight-color: rgba(0, 0, 0, 0); stroke-linecap: round; stroke-linejoin: round; stroke-width: 5;" /><path d="M247.74,500.07L247.74,498.24L251.41,498.24L255.08,498.24L258.75,498.24L262.42,498.24L267.93,498.24L271.6,496.4L277.1,496.4L280.77,496.4L286.28,496.4L289.95,496.4L295.46,494.57L300.96,494.57L304.63,494.57L308.3,494.57L311.97,494.57L313.81,494.57L317.48,494.57L321.15,494.57L322.98,494.57L326.65,496.4L328.49,496.4L330.32,496.4L333.99,496.4L337.66,496.4L341.33,498.24L343.17,498.24L345,498.24L348.67,500.07L350.51,500.07L352.34,500.07L356.01,500.07L359.68,500.07L361.52,500.07L365.19,500.07L368.86,500.07L370.7,500.07L374.37,500.07L378.04,500.07L379.87,500.07L383.54,500.07L387.21,500.07L390.88,500.07L396.39,500.07L400.06,498.24L403.73,498.24L409.23,498.24L414.74,496.4L420.24,494.57L423.91,494.57L425.75,492.73" fill="none" stroke="#000000" style="-webkit-tap-highlight-color: rgba(0, 0, 0, 0); stroke-linecap: round; stroke-linejoin: round; stroke-width: 5;" /><path d="M71.57,344.09L71.57,345.92L71.57,347.76L69.73,349.59L67.9,355.1L66.06,360.6L66.06,364.27L64.23,369.78L62.39,373.45L62.39,378.95L60.56,386.29L60.56,391.8L58.72,397.3L58.72,402.81L58.72,410.15L58.72,413.82L58.72,419.33L58.72,424.83L58.72,430.34L58.72,434.01L58.72,439.51L56.89,445.02L56.89,448.69L55.05,454.19L55.05,459.7L55.05,465.2L55.05,470.71L55.05,478.05L55.05,485.39L55.05,492.73L55.05,498.24L55.05,503.74L53.22,509.25" fill="none" stroke="#000000" style="-webkit-tap-highlight-color: rgba(0, 0, 0, 0); stroke-linecap: round; stroke-linejoin: round; stroke-width: 5;" /><path d="M75.24,340.42L73.41,340.42L71.57,338.58L69.73,338.58L71.57,338.58L75.24,338.58L78.91,340.42L82.58,342.25L86.25,344.09L89.92,345.92L91.76,347.76L93.59,347.76L95.43,347.76L95.43,349.59L95.43,351.43L95.43,353.26L95.43,356.93L95.43,360.6L95.43,366.11L95.43,371.61L95.43,377.12L93.59,382.62L93.59,388.13L93.59,393.63L93.59,397.3L93.59,402.81L93.59,406.48L93.59,411.99L91.76,417.49L91.76,423L91.76,428.5L91.76,434.01L91.76,439.51L91.76,445.02L93.59,450.52L93.59,454.19L95.43,459.7L95.43,465.2L97.26,468.87L97.26,476.22L97.26,481.72L97.26,487.23L97.26,492.73L97.26,498.24L97.26,501.91L97.26,505.58" fill="none" stroke="#000000" style="-webkit-tap-highlight-color: rgba(0, 0, 0, 0); stroke-linecap: round; stroke-linejoin: round; stroke-width: 5;" /><path d="M277.1,419.33L277.1,421.16L277.1,423L275.27,428.5L275.27,434.01L273.43,439.51L273.43,446.85L273.43,454.19L273.43,461.53L273.43,468.87L275.27,478.05L275.27,483.56L277.1,489.06L277.1,492.73L277.1,494.57" fill="none" stroke="#000000" style="-webkit-tap-highlight-color: rgba(0, 0, 0, 0); stroke-linecap: round; stroke-linejoin: round; stroke-width: 5;" /><path d="M277.1,421.16L278.94,421.16L280.77,421.16L282.61,421.16L284.44,423L284.44,424.83L286.28,426.67L286.28,428.5L288.11,432.17L288.11,437.68L288.11,445.02L286.28,452.36L288.11,461.53L288.11,468.87L288.11,478.05L288.11,483.56L288.11,490.9L288.11,496.4L289.95,498.24" fill="none" stroke="#000000" style="-webkit-tap-highlight-color: rgba(0, 0, 0, 0); stroke-linecap: round; stroke-linejoin: round; stroke-width: 5;" /><path d="M311.97,424.83L311.97,426.67L310.14,434.01L308.3,452.36L306.47,474.38L306.47,483.56L306.47,489.06L306.47,492.73L308.3,492.73" fill="none" stroke="#000000" style="-webkit-tap-highlight-color: rgba(0, 0, 0, 0); stroke-linecap: round; stroke-linejoin: round; stroke-width: 5;" /><path d="M310.14,417.49L310.14,415.66L311.97,417.49L313.81,417.49L315.64,419.33L317.48,421.16L319.31,423L319.31,424.83L319.31,428.5L321.15,432.17L321.15,435.84L322.98,441.35L322.98,446.85L322.98,454.19L322.98,463.37L322.98,472.54L322.98,479.89L322.98,485.39L322.98,489.06L324.82,492.73" fill="none" stroke="#000000" style="-webkit-tap-highlight-color: rgba(0, 0, 0, 0); stroke-linecap: round; stroke-linejoin: round; stroke-width: 5;" /><path d="M356.01,411.99L354.18,413.82L354.18,415.66L354.18,421.16L354.18,426.67L354.18,434.01L354.18,441.35L354.18,448.69L354.18,459.7L354.18,468.87L354.18,479.89L354.18,487.23L354.18,490.9L354.18,494.57L356.01,496.4L359.68,494.57" fill="none" stroke="#000000" style="-webkit-tap-highlight-color: rgba(0, 0, 0, 0); stroke-linecap: round; stroke-linejoin: round; stroke-width: 5;" /><path d="M352.34,415.66L350.51,415.66L350.51,413.82L352.34,413.82L356.01,413.82L357.85,415.66L359.68,419.33L359.68,421.16L361.52,424.83L361.52,428.5L361.52,432.17L361.52,435.84L363.35,446.85L363.35,454.19L365.19,463.37L365.19,470.71L367.03,479.89L367.03,485.39L367.03,492.73L368.86,500.07" fill="none" stroke="#000000" style="-webkit-tap-highlight-color: rgba(0, 0, 0, 0); stroke-linecap: round; stroke-linejoin: round; stroke-width: 5;" /><path d="M625.78,298.21L625.78,296.37L625.78,294.54L625.78,296.37L625.78,300.04L625.78,303.71L623.94,309.22L622.11,314.72L620.27,322.06L616.6,327.57L616.6,334.91L616.6,340.42L614.77,345.92L614.77,351.43L612.93,355.1L611.1,360.6L611.1,364.27L609.26,369.78L609.26,373.45L609.26,377.12L607.43,380.79L607.43,384.46L605.59,388.13L603.76,391.8L601.92,395.47L598.25,399.14L596.42,400.97L592.75,404.65L590.91,406.48L589.08,408.32L587.24,410.15L585.41,410.15L583.57,411.99L579.9,413.82L578.06,413.82L574.39,413.82L570.72,415.66L568.89,417.49L567.05,419.33L563.38,419.33L561.55,421.16L557.88,423L554.21,424.83L552.37,426.67L548.7,428.5L546.87,428.5L545.03,430.34L541.36,432.17L539.53,432.17L535.86,434.01L534.02,434.01L530.35,434.01L526.68,434.01L523.01,435.84L519.34,437.68L517.51,437.68L513.84,437.68L512,437.68L508.33,437.68L504.66,437.68L500.99,437.68L497.32,437.68L495.48,437.68L493.65,437.68L489.98,437.68L488.14,437.68L484.47,437.68L478.97,437.68L473.46,437.68L469.79,437.68L467.96,435.84L464.29,434.01L462.45,434.01L458.78,432.17L455.11,430.34L451.44,428.5L449.61,428.5L447.77,428.5L447.77,430.34L445.94,434.01L445.94,439.51L445.94,446.85L445.94,452.36L445.94,461.53L445.94,468.87L445.94,476.22L445.94,481.72L445.94,487.23L445.94,489.06" fill="none" stroke="#000000" style="-webkit-tap-highlight-color: rgba(0, 0, 0, 0); stroke-linecap: round; stroke-linejoin: round; stroke-width: 5;" /></svg>