<?xml version="1.0" encoding="utf-8" ?>
<svg baseProfile="full" height="754" version="1.1" width="1024" xmlns="http://www.w3.org/2000/svg" xmlns:ev="http://www.w3.org/2001/xml-events" xmlns:xlink="http://www.w3.org/1999/xlink"><defs /><path d="M167.62,74.68L169,86L169,77L170,79L170,89L169,85L170,89L171,92L169,85L169,86L172,95L172,96L172,96L172,99L172,98L172,103L172,102L172,105L172,105L173,110L172,108L173,110L174,111L176,112L179,116L181,119L179,117L181,120L181,123L181,124L181,126L183,129L183,129L183,131L183,133L183,134L183,138L183,139L183,142L183,146L183,142L185,150L185,151L185,150L185,152L185,152L184,156L185,159L185,159L185,161L185,161L184,163L187,168L187,168L187,168L186,171L188,174L188,174L188,174L182,181L183,187L183,188L183,190L183,190L182,194L182,197L182,196L182,199L182,199L182,199L181,204L181,205L181,205L181,205L181,205L181,205L177,223L177,223L177,223L177,223L177,223L177,224L179,230L179,230L179,230L179,230L179,230L177,235L177,235L176,237L176,237L178,254L178,254L178,254L178,254L178,254L179,260L179,260L179,260L179,261L179,261L179,261L179,261L179,261L179,261L178,279L178,279L178,279L178,279L178,279L178,279L178,280L178,282L178,282L178,282L178,282L178,282L178,298L178,298L178,298L178,298L178,299L186,305L186,305L186,305L186,307L186,305L186,309L186,310L186,312L186,312L186,312L186,312L186,312L186,312L186,312L195,332L195,332L195,332L195,332L195,332L195,332L195,332L195,332L197,334L197,334L197,334L191,349L191,350L191,352L191,354L191,357L191,355L191,358L191,360L189,360L189,362L189,363L189,365L189,370L189,367L189,368L189,372L189,378L189,375L189,377L189,380L189,382L189,383L189,387L189,385L178,400L189,388L178,400L177,398L180,403L180,403L180,403L180,403L180,404L180,403L180,404L180,404L180,404L193,419L193,419L193,419L192,421L192,421L192,421L192,421L175,424L175,424L175,425L175,427L175,428L175,431L175,432L180,438L180,438L179,438L178,440L179,438L179,441L178,443L178,445L178,446L174,446L175,448L175,448L172,451L172,455L172,453L172,456L172,458L172,460L172,461L174,464L174,465L174,471L174,466L174,467L174,471L174,476L174,473L174,475L174,478L174,480L174,481L172,483L173,485L173,486L174,490L174,491L173,488L173,494L173,495L173,496L174,498L174,498L170,501L171,503L170,501L170,507L171,508L171,503L171,511L171,514L171,514L171,511L170,515L171,518L171,519L173,521L173,523L173,523L174,528L174,529L174,526L174,531L174,533L174,533L174,534L170,540L171,541L174,536L170,540L171,543L171,543L171,543L171,543L171,554L173,554L171,554L173,554L173,556L173,559L173,554L172,558L171,567L173,562L173,562L171,564L169,567L168,571L168,574L168,574L164,577L164,577L164,579L163,580L163,582L163,584L163,586L163,588L163,592L163,592" fill="none" stroke="#000000" style="-webkit-tap-highlight-color: rgba(0, 0, 0, 0); stroke-linecap: round; stroke-linejoin: round; stroke-width: 5;" /><path d="M247.29,87.96L247,81L247,81L247,80L247,78L246,85L246,85L246,91L245,94L245,90L244,96L244,98L244,98L243,99L242,100L237,108L242,100L237,109L237,111L240,117L240,117L240,117L240,117L240,117L240,118L239,117L239,121L237,122L234,126L237,122L237,122L234,127L234,129L234,130L233,132L233,132L233,132L231,138L231,139L231,141L232,144L232,144L232,148L232,146L230,152L230,158L231,150L230,152L230,158L230,159L231,168L230,159L231,168L230,168L230,173L229,169L230,170L230,178L230,174L230,176L230,181L230,179L230,186L230,188L230,189L230,183L230,188L230,191L230,184L230,196L230,193L230,194L230,197L230,200L230,199L230,200L230,200L230,200L230,200L233,215L233,215L233,215L232,216L232,216L232,216L231,221L231,219L231,219L231,222L231,224L231,226L231,226L231,231L231,232L231,231L231,237L231,239L231,234L231,236L231,242L231,241L231,246L231,244L231,246L231,249L231,254L231,252L231,251L231,254L231,254L232,259L232,261L232,261L232,261L232,261L232,261L232,261L232,261L227,274L232,261L227,276L227,280L227,277L227,279L227,284L227,282L227,285L227,287L227,290L227,292L227,289L227,297L227,294L227,302L227,299L227,300L227,304L227,309L227,307L227,305L227,312L227,310L227,314L227,317L227,315L227,322L227,319L227,320L227,325L227,324L227,327L227,329L227,330L227,332L227,334L227,337L227,342L227,335L227,340L227,339L227,344L227,350L227,345L227,349L227,354L227,352L227,355L226,360L226,358L227,357L226,363L226,357L230,375L226,362L224,363L230,375L230,375L230,375L230,375L230,375L230,377L230,375L230,377L230,377L230,377L230,377L230,377L232,393L232,393L232,393L232,393L232,393L231,397L231,397L231,399L231,398L230,405L230,405L230,405L230,411L230,410L230,407L230,407L230,411L230,411L230,411L230,411L230,411L231,412L229,437L222,425L231,412L229,437L229,437L229,437L229,438L229,437L229,440L229,437L229,440L229,448L229,440L229,447L229,450L229,447L229,455L229,450L229,454L229,458L229,456L228,462L228,463L228,463L228,462L228,463L228,473L229,466L228,473L228,475L228,473L228,476L228,481L228,480L228,478L228,485L228,483L228,487L228,490L228,492L228,486L228,491L228,492L227,508L228,492L228,492L227,508L227,508L227,508L227,508" fill="none" stroke="#000000" style="-webkit-tap-highlight-color: rgba(0, 0, 0, 0); stroke-linecap: round; stroke-linejoin: round; stroke-width: 5;" /><path d="M227,509L227,508L227,514L227,515L227,514L227,509L227,515L227,515L227,515L227,515L227,515L221,528L221,533L221,529L227,515L221,531L221,538L221,536L221,534L221,539L219,551L227.37,514.49L219,551L219,551L219,551L219,551L219,551L221,553L221,553L220,552L216,550L221,553L232,518L219,551L227,515L232,518L227,515L233,519L232,518L226,531L233,519L233,519L226,533L232,546L232,546L226,534L232,546L232,546L232,546L232,546L232,546L220,552L219,551L226,554L226,554L220,552L226,554L226,556L227,556L227,556L229,563L227,563L229,563L229,566L229,568L229,568L229,568L229,568L229,568L229,582L232,581L229,582L229,582L231,582L231,584" fill="none" stroke="#000000" style="-webkit-tap-highlight-color: rgba(0, 0, 0, 0); stroke-linecap: round; stroke-linejoin: round; stroke-width: 5;" /><path d="M231,584L231,590L231,591L229,588L231,593L231,592L233,597L229,596" fill="none" stroke="#000000" style="-webkit-tap-highlight-color: rgba(0, 0, 0, 0); stroke-linecap: round; stroke-linejoin: round; stroke-width: 5;" /><path d="M688.75,109.54L689,113L684,111L682,116L682,116L682,116L682,116L679,116L679,116L673,118L673,118L670,121L671,119L670,121L670,123L670,123L670,123L670,123L670,123L671,132L671,132L671,133L671,133L671,133L672,134L672,134L672,146L672,146L672,146L672,146L675,148L675,148L678,151L678,153L678,154L679,154L680,156L679,155L681,157L682,159L681,168L682,159L680,169L681,168L680,169L679,171L679,173L679,173L681,176L681,178L681,181L681,179L681,183L681,184L681,186L681,188L681,189L681,191L681,193L680,194L680,196L680,196L680,196L680,200L680,201L680,202L680,204L680,206L680,207L680,209L680,211L680,212L680,214L680,219L680,217L680,216L679,221L679,222L679,224L679,226L679,229L679,231L679,227L679,232L679,234L679,236L679,237L679,239L679,241L679,242L679,246L679,244L679,247L678,249L678,251L678,252L678,256L678,254L678,257L678,259L678,261L678,262L678,264L678,269L678,266L678,271L678,274L678,272L678,274L677,279L677,280L677,285L677,282L677,284L677,287L677,290L677,289L677,292L677,294L677,295L677,297L677,300L677,304L677,302L677,304L677,304L675,317L675,320L675,317L675,317L675,322L675,325L675,326L675,330L675,324L675,332L675,332L675,341L675,341L675,332L675,342L675,342L675,349L675,350L674,356L674,356L675,353L673,359L673,359L674,369L674,370L674,369L674,371L674,371L674,384L674,371L674,384L674,385L674,384L674,392L674,392L674,388L674,390L674,400L674,402L674,400L674,400L674,402L674,402L673,410L673,405L673,409L673,412L673,413L673,415L673,422L673,416L673,423L673,416L673,427L673,425L673,427L673,427L673,427L673,427L673,427L673,427L667,446L667,446L667,446L667,446L667,446L667,446L684,457L684,457L684,457L684,457L684,457L684,457L685,459L685,459L684,457L685,459L685,459L685,459L689,460L685,459L679,473L667,475L677,486L677,486L667,476L677,486L677,486L677,486L677,486L677,488L677,488L677,488L672,494L677,488L672,494L672,500L673,502L673,502L672,506L673,502L673,502L672,510L672,508L672,511L672,518L672,511L672,518L672,511L672,519L672,518L672,521L672,524L672,523L672,526L673,529L673,529L673,529L677,536L677,536L677,536L677,536L675,542L675,539L675,542L675,546L674,546L674,551L675,544L673,548L674,549L674,557L674,551L674,551L674,557L674,562L674,562L674,559L674,566L675,565L675,574" fill="none" stroke="#000000" style="-webkit-tap-highlight-color: rgba(0, 0, 0, 0); stroke-linecap: round; stroke-linejoin: round; stroke-width: 5;" /><path d="M674,568L674,568L674,572L675,574L675,574L675,571L670,581L670,581L670,581L670,581" fill="none" stroke="#000000" style="-webkit-tap-highlight-color: rgba(0, 0, 0, 0); stroke-linecap: round; stroke-linejoin: round; stroke-width: 5;" /><path d="M741.86,119.49L743,124L743,126L740,128L743,124L742,128L740,128L740,128L739,128L740,128L735,138L734,137L734,137L731,133L730,134L734,137L729,138L728,139L729,136L729,136L726,141L727,140L724,146L724,148L724,146L724,149L725,156L725,159L725,155L725,155L725,158L725,161L725,164L725,163L725,166L725,168L723,172L725,169L724,171L722,178L723,173L722,176L722,174L722,184L722,181L722,179L722,185L723,189L723,193L723,188L723,194L723,197L723,196L723,201L723,199L723,202L723,206L723,204L723,207L723,209L723,212L723,211L723,214L723,216L723,217L723,219L723,222L723,221L723,224L723,226L723,227L723,229L723,231L723,232L723,234L723,236L723,237L723,239L723,242L723,241L723,244L723,246L723,247L723,249L723,251L723,252L724,256L724,254L724,259L724,261L724,262L724,264L724,267L724,266L724,269L724,271L724,274L724,272L724,276L724,277L724,279L724,280L724,282L724,284L724,285L724,289L724,287L724,290L724,294L724,295L724,291L724,297L724,300L724,302L724,304L724,308L724,307L724,305L724,308L719,322L724,308L724,308L724,308L719,327L719,325L719,324L719,329L719,330L728,342L728,342L728,342L728,342L728,342L728,342L728,342L728,342L728,342L729,344L729,344L723,366L717,355L729,344L723,366L723,366L723,366L723,367L723,372L723,370L723,368L723,373L723,375L723,377L723,378L723,380L723,382L723,383L709,391L709,391L709,392L709,393L709,393L709,393L709,393L723,407L723,403L723,405L723,410L723,412L723,415L723,418L723,417L723,432L723,432L723,438L723,422L723,440L723,442L722,449L723,423L710,453L710,453L723,427L710,455L710,455L709,459L709,459L723,428L723,430L721,465L721,465L721,465L722,473L722,470L722,471L709,478L709,480L709,478" fill="none" stroke="#000000" style="-webkit-tap-highlight-color: rgba(0, 0, 0, 0); stroke-linecap: round; stroke-linejoin: round; stroke-width: 5;" /><path d="M709,478L709,480L709,480L722,485L722,490L722,486L722,488L721,494L721,495L721,494L721,496L721,495L721,498L721,500L721,503L721,500L721,500L721,506L721,505L721,508L721,510L721,513L721,514L721,511L721,518L721,518L721,518L721,518L721,518L721,518L717,538L717,538L717,538L717,538L717,538L714,539L714,539L714,539L714,543L714,545L714,539L714,543L715,550L714,547L714,550L715,550L715,556L715,553L715,553L715,558L715,558L715,561L717,568L717,568L715,561L719,568L715,561L722,572L719,568L720,570L722,572L722,572L719,573L719,573L722,592L719,573L722,592L715,590L722,592L722,592" fill="none" stroke="#000000" style="-webkit-tap-highlight-color: rgba(0, 0, 0, 0); stroke-linecap: round; stroke-linejoin: round; stroke-width: 5;" /><path d="M813.23,132.77L810,141L812,135L811,147L810,138L811,143L812,148L812,148L811,144L811,146L811,147L820,158L812,148L820,158L820,158L820,158L820,158L822,159L824,160L822,159L824,160L828,164L828,165L830,168L829,166L831,171L831,174L831,173L831,176L830,179L830,179L830,179L830,181L830,183L830,183L832,186L832,188L832,191L832,193L832,194L832,199L832,196L832,201L832,202L832,204L832,206L832,207L832,209L832,211L832,212L832,216L832,214L832,217L832,219L832,221L832,222L832,224L832,226L832,229L832,227L832,231L832,232L832,234L832,236L832,237L832,239L832,242L832,244L832,251L832,247L832,256L832,252L832,257L832,261L832,262L832,264L832,266L832,267L832,269L832,271L832,272L832,274L832,276L832,279L832,280L832,280L831,281L832,297L831,281L831,281L832,297L832,297L832,297L833,299L833,300L832,304L833,305L832,307L832,307L830,315L832,307L832,307L830,315L830,316L830,316L830,316L830,316L830,316L830,316L830,316L833,329L832,340L832,340L832,340L832,340L832,340L833,342L833,343L832,340L832,344L834,354L834,354L834,354L834,355L834,354L834,355L834,355L835,363L835,363L834,368L834,367L835,363L834,372L834,369L834,372L834,372L834,378L834,380L834,378L834,381L834,386L834,381L835,392L834,389L834,386L835,392L835,395L835,393L835,395L835,399L835,400L835,401L834,403L835,401L836,410L837,412L840,414L840,414L840,417L840,414L840,417L839,420L838,423L838,422L838,423L836,429L836,430L838,423L836,432L836,436L836,433L836,436L836,443L836,442L836,444L836,450L836,450L837,455L837,458L837,455L837,456L837,461L837,460L837,463L837,468L837,465L837,470L837,466L837,473L837,471L837,479L837,478L837,478L836,483L836,485L837,490L836,485L838,491L837,490L836,489L838,494L838,494L838,493L838,494L835,495L835,495L835,509L835,509L835,509L835,509L836,511L836,514L836,510L837,513L837,518L836,516L837,521L836,519L834,524L834,524L836,523L836,523L838,535L827,540L839,529L839,531L837,537L827,540L826,542L829,548" fill="none" stroke="#000000" style="-webkit-tap-highlight-color: rgba(0, 0, 0, 0); stroke-linecap: round; stroke-linejoin: round; stroke-width: 5;" /><path d="M827,540L827,540L828,548L827,553L829,548L826,552L828,548L828,554L831,556L830,554L833,556L830,556L831,556L833,556L831,563L831,563L833,563L831,563L827,568L827,569L828,568L827,572L830,563L827,567L827,576L827,572L827,577L826,574L827,577" fill="none" stroke="#000000" style="-webkit-tap-highlight-color: rgba(0, 0, 0, 0); stroke-linecap: round; stroke-linejoin: round; stroke-width: 5;" /><path d="M891.23,127.79L892,133L894,134L891,138L891,138L891,138L891,138L890,138L885,149L885,149L885,149L885,149L883,153L883,153L880,153L880,153L877,155L877,155L876,163L876,163L876,164L876,164L873,168L873,169L873,171L874,174L874,174L875,176L875,178L874,181L875,179L873,183L873,184L873,186L874,191L873,188L873,189L874,193L874,196L874,194L874,197L874,199L874,201L874,202L874,203L874,201L875,207L875,206L875,209L875,211L875,212L875,214L875,216L875,217L875,217L876,221L876,222L876,224L876,226L876,227L876,229L876,231L876,232L876,232L877,236L877,237L877,239L877,242L877,244L877,246L877,247L877,247L878,251L877,241L878,252L878,254L878,256L878,257L878,259L878,261L878,262L878,265L878,264L878,265L879,269L879,272L879,271L879,272L879,272L879,272L882,279L882,280L882,280L882,280L880,291L880,291L880,291L880,292L880,291L880,293L880,295L880,297L880,299L880,300L880,302L880,305L880,305L880,305L881,309L881,310L881,312L881,312L881,312L882,316L882,321L882,321L882,321L882,321L883,325L883,325L883,325L883,325L884,355L884,326L884,326L884,326L884,355L884,326L884,355L884,355L883,357L883,357L878,340L883,357L878,342L883,357L878,344L883,361L883,363L883,362L883,365L883,367L883,368L883,369L883,369L883,369L884,372L885,377L884,381L884,381L884,382L884,383L884,387L884,385L884,392L884,388L884,390L884,392L885,397L884,392L885,397L885,402L885,402L885,405L885,403L885,408L885,410L885,412L885,412L885,412L885,412L885,412L886,413L885,428L885,428L885,428L885,428L885,428L885,430L885,430L886,435L885,430L886,436L886,438L886,443L886,438L886,443L886,445L886,446L886,448L886,451L886,450L886,453L886,455L886,456L886,456L886,461L886,461L886,463L886,464L886,464L887,468L877,473L877,473L878,476L877,473L878,476L878,476L878,476L878,476L887,483L887,485L887,488L887,486L887,491L887,493L887,495L887,496L887,498L887,500L887,501L887,503L887,506L887,505L887,510L888,508L887,511L887,513L887,513L888,516L887,518L887,519L888,521L888,523L888,526L888,524L888,529L888,531L888,533L885,536L887,535L886,538L886,538L886,541L886,543L886,543L886,547L886,547L885,551L886,550L885,551L885,556L885,556L886,558L888,558L886,558L890,564L888,558L890,564L891,567L891,567L891,567L890,567" fill="none" stroke="#000000" style="-webkit-tap-highlight-color: rgba(0, 0, 0, 0); stroke-linecap: round; stroke-linejoin: round; stroke-width: 5;" /><path d="M890,567L890,567L890,580L890,580L888,580L888,580L890,581L888,580L890,581L889,588L884,583" fill="none" stroke="#000000" style="-webkit-tap-highlight-color: rgba(0, 0, 0, 0); stroke-linecap: round; stroke-linejoin: round; stroke-width: 5;" /><path d="M162.65,78L163,71L163,71L169,76L169,77L169,77L171,80L171,80L175,79L176,79L178,81L179,81L182,83L182,83L184,82L186,83L187,84L187,84L186,83L194,83L194,83L194,83L199,82L201,82L202,82L204,83L204,83L213,78L212,77L213,78L215,83L215,83L215,83L217,84L219,84L220,84L222,79L224,79L225,79L229,79L228,79L235,84L231,79L236,84L237,84" fill="none" stroke="#000000" style="-webkit-tap-highlight-color: rgba(0, 0, 0, 0); stroke-linecap: round; stroke-linejoin: round; stroke-width: 5;" /><path d="M682.11,109.54L685,106L685,105L685,105L685,108L690,112L691,112L693,115L693,115L703,108L703,108L704,108L705,108L709,109L709,109L710,109L701,107L712,109L715,109L711,120L721,111L721,111L721,111L721,111L724,110L725,110L727,110L730,110" fill="none" stroke="#000000" style="-webkit-tap-highlight-color: rgba(0, 0, 0, 0); stroke-linecap: round; stroke-linejoin: round; stroke-width: 5;" /><path d="M735,119L735,119L738,119L739,119L740,119L739,119L740,119L740,119" fill="none" stroke="#000000" style="-webkit-tap-highlight-color: rgba(0, 0, 0, 0); stroke-linecap: round; stroke-linejoin: round; stroke-width: 5;" /><path d="M831.48,127.79L832,124L830,125L834,123L835,122L841,123L838,121L847,118L847,118L850,119L854,119L849,119L857,126L858,126L860,126L861,122L863,123L870,123L866,123L868,123L865,123L870,123L876,121L872,122L875,121" fill="none" stroke="#000000" style="-webkit-tap-highlight-color: rgba(0, 0, 0, 0); stroke-linecap: round; stroke-linejoin: round; stroke-width: 5;" /><path d="M880,130L882,129L883,129L882,129L885,129L889,128L885,129" fill="none" stroke="#000000" style="-webkit-tap-highlight-color: rgba(0, 0, 0, 0); stroke-linecap: round; stroke-linejoin: round; stroke-width: 5;" /><path d="M814.88,131.11L820,130L825,129L828,126L832,124" fill="none" stroke="#000000" style="-webkit-tap-highlight-color: rgba(0, 0, 0, 0); stroke-linecap: round; stroke-linejoin: round; stroke-width: 5;" /><path d="M837,121L835,122L838,120L839,119L840,118L840,119" fill="none" stroke="#000000" style="-webkit-tap-highlight-color: rgba(0, 0, 0, 0); stroke-linecap: round; stroke-linejoin: round; stroke-width: 5;" /><path d="M69.71,338.57L71,333L75,315L72,332L70,333L76,309L78,295L72,331L77,302L79,291L77,325L75,318L79,291L78,282L78,273L78,267L77,261L79,256L78,251L78,248L78,243L80,240L80,240L81,235L80,236L78,232L81,228L81,219L79,222L83,216" fill="none" stroke="#000000" style="-webkit-tap-highlight-color: rgba(0, 0, 0, 0); stroke-linecap: round; stroke-linejoin: round; stroke-width: 5;" /><path d="M81,212L84,209L81,204L81,201L85,195L85,194L83,192L88,183L87,180L91,168L88,178L86,178L90,167L90,167L88,164L96.26,162.65L95,161L101,156L107,157L112,158L118,158L123,160L126,159L126,161L133,165L134,165L139,164L143,163L136,165L139,164L144,163L146,163L151,163L148,163L141,163L154,164L158,163L156,164" fill="none" stroke="#000000" style="-webkit-tap-highlight-color: rgba(0, 0, 0, 0); stroke-linecap: round; stroke-linejoin: round; stroke-width: 5;" /><path d="M161,162L158,163L163,160L161,160L164,162L166,162L169,160L169,160L171,161L172,159L174,160L176,158L177,159" fill="none" stroke="#000000" style="-webkit-tap-highlight-color: rgba(0, 0, 0, 0); stroke-linecap: round; stroke-linejoin: round; stroke-width: 5;" /><path d="M238.99,159.33L237,156L237,156L239,154L244,153L255,158L255,158L259,158L264,159L266,160L272,162L272,162L273,163L282,166" fill="none" stroke="#000000" style="-webkit-tap-highlight-color: rgba(0, 0, 0, 0); stroke-linecap: round; stroke-linejoin: round; stroke-width: 5;" /><path d="M284,165L286,164L286,164L286,164L291,165L290,165L295,167L299,168L305,166L302,167L306,166L305,167L305.37,174.26L302,171L305,167L308,164L308,164L328,154L329,154L331,154L335,153L338,151L340,149L341,148L345,146L345,146L345,146L355,156L355,156L357,156L362,141L362,141L363,141L363,141L368,139L375,145L370,147L375,145L378,144L379,143L385,142L382,142L406,143L407,143L409,143L409,143L390,143L423,142L409,143L424,143L394,144L427,144L394,144L394,146L427,144L430,144L432,143L434,142L434,142L446,148L434,142L451,149L450,149L455,151L456,153L460,154L461,156L472,147L472,147L472,147L472,147L472,147L473,147L476,147L475,147L478,147L481,148L483,150L482,151L487,156L486,160L486,163L486,164L487,167L488,174L488,171L488,176L488,174" fill="none" stroke="#000000" style="-webkit-tap-highlight-color: rgba(0, 0, 0, 0); stroke-linecap: round; stroke-linejoin: round; stroke-width: 5;" /><path d="M490,176L490,176L493,177L492,177L493,177L492,177L492,177L492,177L498,180L498,180L492.91,170.94L503,195L503,195L510,190L512,187L513,184L513,183L513,182L513,182L513,182L513,182L526,178L528,179L528,181L529,184L531,196L531,196L525,195L531,196L533,197L533,197L533,197L533,197L543,199L543,199L543,199L543,199L543,199L548,202L546,201L546,201" fill="none" stroke="#000000" style="-webkit-tap-highlight-color: rgba(0, 0, 0, 0); stroke-linecap: round; stroke-linejoin: round; stroke-width: 5;" /><path d="M489,172L489,173L495,177L492,176L498,177L501,179L504,180L513,186L507,181L515,192L525,195L514,191L525,195L528,196L525,195L529,196L531,196L533,197L533,197L538,203L533,199L538,203L542,201L543,200L544,201L546,202L548,203L549,204L550,206" fill="none" stroke="#000000" style="-webkit-tap-highlight-color: rgba(0, 0, 0, 0); stroke-linecap: round; stroke-linejoin: round; stroke-width: 5;" /><path d="M550,206L557,207L557,207L558,207L561,207L559,207L563,207L564,207L564,207L564,207L564,207L564,207L564,208L582,211L582,210L582,210L582,211L585,212L586,212L582,211L589,211L593,210L603,219L589,211L595.81,214.09L603,219L603,219L603,221L603,221L603,222L603,224L605,228L607,229L609,229L610,230L608,234L608,232L609,238L609,238L614,239L614,241L614,242L614,245L616,245L620,247L619,253L620,252L621,256L621,254L621,257L621,259L622,260L626,264L625,266L623,261L624,267" fill="none" stroke="#000000" style="-webkit-tap-highlight-color: rgba(0, 0, 0, 0); stroke-linecap: round; stroke-linejoin: round; stroke-width: 5;" /><path d="M593,210" fill="none" stroke="#000000" style="-webkit-tap-highlight-color: rgba(0, 0, 0, 0); stroke-linecap: round; stroke-linejoin: round; stroke-width: 5;" /><path d="M624,268" fill="none" stroke="#000000" style="-webkit-tap-highlight-color: rgba(0, 0, 0, 0); stroke-linecap: round; stroke-linejoin: round; stroke-width: 5;" /><path d="M593,210L593,210L603,217L605,228L603,222L613,233L614,236L614,237" fill="none" stroke="#000000" style="-webkit-tap-highlight-color: rgba(0, 0, 0, 0); stroke-linecap: round; stroke-linejoin: round; stroke-width: 5;" /><path d="M614,239L614,241L614,241L614,242L617,245L619,245L619,245L620,247L621,249L621,256L623,261L621,257L625,266L629,292.1L626,269L627,275L626,271L627,275L626,279L628,283L626,279L629,284L629,284L629,289" fill="none" stroke="#000000" style="-webkit-tap-highlight-color: rgba(0, 0, 0, 0); stroke-linecap: round; stroke-linejoin: round; stroke-width: 5;" /><path d="M629,287L629,285L630,291L631,294L631,294L630,292L631,294L632,294L634,294L632,294L630,293L633.98,288.78L637,297L641,296L642,297L646,296L631,294L649,295L648,295L631,294L650,295L636,288L640,289L637,290" fill="none" stroke="#000000" style="-webkit-tap-highlight-color: rgba(0, 0, 0, 0); stroke-linecap: round; stroke-linejoin: round; stroke-width: 5;" /><path d="M652,285L646,287L658,284L658,284L658,284" fill="none" stroke="#000000" style="-webkit-tap-highlight-color: rgba(0, 0, 0, 0); stroke-linecap: round; stroke-linejoin: round; stroke-width: 5;" /><path d="M718.63,305.37L724,308L724,308L724,308L727,308L732,307L738,305L745,304L745,302L747,303L749,302L752,300L749,302L756,303" fill="none" stroke="#000000" style="-webkit-tap-highlight-color: rgba(0, 0, 0, 0); stroke-linecap: round; stroke-linejoin: round; stroke-width: 5;" /><path d="M756,303L757,304L750.16,307.03L749,300L748,303L746,294L747,291L747,291L747,279" fill="none" stroke="#000000" style="-webkit-tap-highlight-color: rgba(0, 0, 0, 0); stroke-linecap: round; stroke-linejoin: round; stroke-width: 5;" /><path d="M758,278L758,278L758,279L758,278L753.48,275.5L758,278L761,274L761,272L761,271L761,271L762,268L761,269L765,268L763,268L767,267L767,267L767,267L767,267L767,267L767,269" fill="none" stroke="#000000" style="-webkit-tap-highlight-color: rgba(0, 0, 0, 0); stroke-linecap: round; stroke-linejoin: round; stroke-width: 5;" /><path d="M767,271L767,276L767,272L767,277L767,278L767,287L767,285L767,290L776,299L773.39,292.1L776,299L776,299L776,299L776,299L773,300L773,300L773,301" fill="none" stroke="#000000" style="-webkit-tap-highlight-color: rgba(0, 0, 0, 0); stroke-linecap: round; stroke-linejoin: round; stroke-width: 5;" /><path d="M773,301L775,301L777,299L773.39,297.08L773,300L780,298L778,298L787,297L785,297L794,294L795,294" fill="none" stroke="#000000" style="-webkit-tap-highlight-color: rgba(0, 0, 0, 0); stroke-linecap: round; stroke-linejoin: round; stroke-width: 5;" /><path d="M797,294L803,293L803,293L806,292L806,293L807,291L806,293L806.59,292.1L810,290L812,289" fill="none" stroke="#000000" style="-webkit-tap-highlight-color: rgba(0, 0, 0, 0); stroke-linecap: round; stroke-linejoin: round; stroke-width: 5;" /><path d="M815,288L817,288L820,287L819,287" fill="none" stroke="#000000" style="-webkit-tap-highlight-color: rgba(0, 0, 0, 0); stroke-linecap: round; stroke-linejoin: round; stroke-width: 5;" /><path d="M877.95,267.2L879,271L879,271L879,271L883,271L879,271L901,268L891,269L879,271L919,267L908,268L926,266L914,268L938,266L932,266L942,265L936,266L944,263L945,262L946,262L948,262L949,262L951,262L953,263L953,263L958,264L959,264L963,262L968,259L971,259L964,261L973,258L976,257L981,256L979,256L982,257L981,256L986,257" fill="none" stroke="#000000" style="-webkit-tap-highlight-color: rgba(0, 0, 0, 0); stroke-linecap: round; stroke-linejoin: round; stroke-width: 5;" /><path d="M986,257L986,257L993,258L993,258L995,257L996,257L999,256L999,256L999,256L1002,256L1006,255L1008,254L1006,255L1009,254L1011,254L1012,254L1015,253L1017,253L1021,252L1022,252" fill="none" stroke="#000000" style="-webkit-tap-highlight-color: rgba(0, 0, 0, 0); stroke-linecap: round; stroke-linejoin: round; stroke-width: 5;" /><path d="M356.82,444.78L357,440L357,441L357,441L357,440L357,446L357,450L357,455L356,459L356,463L356,473L356,468L356,476L356,481L356,485" fill="none" stroke="#000000" style="-webkit-tap-highlight-color: rgba(0, 0, 0, 0); stroke-linecap: round; stroke-linejoin: round; stroke-width: 5;" /><path d="M355,490L354,493L354,494L354,494L356,495L357,494" fill="none" stroke="#000000" style="-webkit-tap-highlight-color: rgba(0, 0, 0, 0); stroke-linecap: round; stroke-linejoin: round; stroke-width: 5;" /><path d="M370.1,443.12L367,445L367,443L367,446L368,448L369,453L369,460L369,466L369,473L370,480L370,482L368,492L368,492L368,494" fill="none" stroke="#000000" style="-webkit-tap-highlight-color: rgba(0, 0, 0, 0); stroke-linecap: round; stroke-linejoin: round; stroke-width: 5;" /><path d="M367,494L367,494" fill="none" stroke="#000000" style="-webkit-tap-highlight-color: rgba(0, 0, 0, 0); stroke-linecap: round; stroke-linejoin: round; stroke-width: 5;" /><path d="M320.31,451.42L314,449L314,449L311,461L319,487" fill="none" stroke="#000000" style="-webkit-tap-highlight-color: rgba(0, 0, 0, 0); stroke-linecap: round; stroke-linejoin: round; stroke-width: 5;" /><path d="M319,490L312,463L319,495L313,467L314,471L320,498L319,501L319,487L303.71,454.74L319,495L320,498L310,455L310,456L310,458L311,463L310,460L312,474L311,476L309,484L309,488" fill="none" stroke="#000000" style="-webkit-tap-highlight-color: rgba(0, 0, 0, 0); stroke-linecap: round; stroke-linejoin: round; stroke-width: 5;" /><path d="M308,493L307,497L307,497L308,496L309,495L309,495L273.84,469.68L273,465L273,465L273,465L273,465L268,470L268,475L268,479L267,491L269,496L269,500" fill="none" stroke="#000000" style="-webkit-tap-highlight-color: rgba(0, 0, 0, 0); stroke-linecap: round; stroke-linejoin: round; stroke-width: 5;" /><path d="M269,502L269,502L269,502L272,500L271,498L280.48,463.04L274,466L274,468L274,471L275,476L276,482L277,486L282,492L282,496" fill="none" stroke="#000000" style="-webkit-tap-highlight-color: rgba(0, 0, 0, 0); stroke-linecap: round; stroke-linejoin: round; stroke-width: 5;" /><path d="M282,498L283,500L284,499L248.95,479.64L245,481L246,483L246,485L246,486L245,490L246,491" fill="none" stroke="#000000" style="-webkit-tap-highlight-color: rgba(0, 0, 0, 0); stroke-linecap: round; stroke-linejoin: round; stroke-width: 5;" /><path d="M249,492L256,502L247,514L247,514L249,514" fill="none" stroke="#000000" style="-webkit-tap-highlight-color: rgba(0, 0, 0, 0); stroke-linecap: round; stroke-linejoin: round; stroke-width: 5;" /><path d="M111.2,446.44L113,456L113,451L113,461L113,468L111,474L110,485L110,479L109,491" fill="none" stroke="#000000" style="-webkit-tap-highlight-color: rgba(0, 0, 0, 0); stroke-linecap: round; stroke-linejoin: round; stroke-width: 5;" /><path d="M110,492L110,496L111,495" fill="none" stroke="#000000" style="-webkit-tap-highlight-color: rgba(0, 0, 0, 0); stroke-linecap: round; stroke-linejoin: round; stroke-width: 5;" /><path d="M124.47,443.12L126,448L125,451L124,488L124,479" fill="none" stroke="#000000" style="-webkit-tap-highlight-color: rgba(0, 0, 0, 0); stroke-linecap: round; stroke-linejoin: round; stroke-width: 5;" /><path d="M123,456L128,491L128,497L125,465L125,472L128,497L129,501L129,501L129,503L129,501" fill="none" stroke="#000000" style="-webkit-tap-highlight-color: rgba(0, 0, 0, 0); stroke-linecap: round; stroke-linejoin: round; stroke-width: 5;" /><path d="M92.94,282.14L90,286L90,286L90,287L90,290L91,289L92,292L92,293L91,297L92,300L91,303L90,306L91,313L90,310L91,313L92,317L90,320L90,320L88,324L90,320" fill="none" stroke="#000000" style="-webkit-tap-highlight-color: rgba(0, 0, 0, 0); stroke-linecap: round; stroke-linejoin: round; stroke-width: 5;" /><path d="M88,324L86,329L86,327L85,329L85,329L83,329L82,327L83,329L83,324L83,324L74.68,278.82L78,282L78,284L78,284L79,291L78,293L78,297L77,302L76,309L76,312L75,315L75,318L76,322L73,330L77,325L73,334L71,341L70,345L69,350L70,348L70,351L70,354L70,358L70,361L70,358L70,365L67,374L65,380L70,370L64,385L65,391L63,394L62,399L61,400L60,402L60,405L62,403L61,408L61,412L60,419L59,415L58,432L60,425L58,439L58,436" fill="none" stroke="#000000" style="-webkit-tap-highlight-color: rgba(0, 0, 0, 0); stroke-linecap: round; stroke-linejoin: round; stroke-width: 5;" /><path d="M58,453L58,447L56,454L56,460L56,463L56,466L56,470L56,475L56,479L55,481L57,483L56,485L56,485L56,487L6.64,474.66" fill="none" stroke="#000000" style="-webkit-tap-highlight-color: rgba(0, 0, 0, 0); stroke-linecap: round; stroke-linejoin: round; stroke-width: 5;" /><path d="M56,490L56,490L55,493L55,495L56,498L51,509L56,516L52,512L56,516L56,516" fill="none" stroke="#000000" style="-webkit-tap-highlight-color: rgba(0, 0, 0, 0); stroke-linecap: round; stroke-linejoin: round; stroke-width: 5;" /><path d="M0,476L3,475L1,478L1,478L2,478L7,478L10,478L12,478L23,477L18,477L32,478L28,476L32,481L33,478L32,483L32,490L35,495L32,488L37,503L38,511L33,500L38,507" fill="none" stroke="#000000" style="-webkit-tap-highlight-color: rgba(0, 0, 0, 0); stroke-linecap: round; stroke-linejoin: round; stroke-width: 5;" /><path d="M44,521L44,516L43,517L41,514L47,529L46,525L48,532L48,538L51.45,529.43L47,549L48,542L48,553L48,557L48,568L47,564L49,576L50,579L49,581L45,590L47,582L49,581L50,580L50,579L48,528" fill="none" stroke="#000000" style="-webkit-tap-highlight-color: rgba(0, 0, 0, 0); stroke-linecap: round; stroke-linejoin: round; stroke-width: 5;" /><path d="M47,528L46,525L50,527L49,526L60,522L66,522L81,522L72,522L88,520L94,524L79.66,481.3L100,521L106,522L110,522L115,522L118,522L122,520L126,521L129,520L134,520L136,521L140,520L146,520L154,520L151,521L156,520L158,520" fill="none" stroke="#000000" style="-webkit-tap-highlight-color: rgba(0, 0, 0, 0); stroke-linecap: round; stroke-linejoin: round; stroke-width: 5;" /><path d="M75,482" fill="none" stroke="#000000" style="-webkit-tap-highlight-color: rgba(0, 0, 0, 0); stroke-linecap: round; stroke-linejoin: round; stroke-width: 5;" /><path d="M154,520" fill="none" stroke="#000000" style="-webkit-tap-highlight-color: rgba(0, 0, 0, 0); stroke-linecap: round; stroke-linejoin: round; stroke-width: 5;" /><path d="M85,483L101,483L75,482L93,483" fill="none" stroke="#000000" style="-webkit-tap-highlight-color: rgba(0, 0, 0, 0); stroke-linecap: round; stroke-linejoin: round; stroke-width: 5;" /><path d="M108,480L110,482L73,482L108,480L105,481L78,483L103,483L104,484L105,481L104,486L103,492L103,488L104,496L104,501L101,504L101,510L101,510L99,511L103,516" fill="none" stroke="#000000" style="-webkit-tap-highlight-color: rgba(0, 0, 0, 0); stroke-linecap: round; stroke-linejoin: round; stroke-width: 5;" /><path d="M238.99,517.81L236,519L236,514L233,515L236,514L241,519L237,519L239,519L246,519L252,519L257,519L263,520L265,520L269,519L276,519L272,519L277,519L279,519L280,519L285,522L285,522L286,522L285,522L286,522L292,526L292,526L292,526L294,526L295,526L299,525L297,524L302,523L304,524L304,524L308,522L310,522L313,521L317,521L321,522L324,520L327,521L328,519L337,521L336,522L336,522L339,521L339,521L345,518L344,521L346,518L347,517L350,515L349,516L356,520L357,520L363,519L358,520L360,520L365,519L368,520L370,521L372,521L377,522L377,522L380,521L382,522L383,523L386,523L388,522L390,520L400,517L394,519L394,519L403,517L413,518L413,518L416,519L406,517L423,519L422,519L431,520L431,520L434,519L443,517L434,519L453,533L453,533L458,529L453,533L458,529L460,528L462,527L466,529L468,528L472,531L480,518L472,531L472,531L485,518L488,518L483,518L486,518" fill="none" stroke="#000000" style="-webkit-tap-highlight-color: rgba(0, 0, 0, 0); stroke-linecap: round; stroke-linejoin: round; stroke-width: 5;" /><path d="M493,519L493,519L495,519L496,519L498,519L503,520L503,520L500,519L506,520L511,519L507,520L513,519L514,519L516,519L523,518L516,519L524,518L529,518L529,518L528,518L533,518L534,518" fill="none" stroke="#000000" style="-webkit-tap-highlight-color: rgba(0, 0, 0, 0); stroke-linecap: round; stroke-linejoin: round; stroke-width: 5;" /><path d="M609.09,486.28" fill="none" stroke="#000000" style="-webkit-tap-highlight-color: rgba(0, 0, 0, 0); stroke-linecap: round; stroke-linejoin: round; stroke-width: 5;" /><path d="M535,518L539,517L543,517L544,517L549,517L548,517L551,517L554,517L555,517L558,517L562,517L563,517L571,518L571,518" fill="none" stroke="#000000" style="-webkit-tap-highlight-color: rgba(0, 0, 0, 0); stroke-linecap: round; stroke-linejoin: round; stroke-width: 5;" /><path d="M573,518L579,518L579,518L583,517L584,517L588,517L589,517L587,517L589,517L593,517L593,517L597,525L605,485L606,486L607,490L607,492L609,500L642.28,486.28L609,510L610,523L611,518L610,531L608,541L608,544L611,536L610,554L609,554L610,554L609,554L611,555" fill="none" stroke="#000000" style="-webkit-tap-highlight-color: rgba(0, 0, 0, 0); stroke-linecap: round; stroke-linejoin: round; stroke-width: 5;" /><path d="M642,484L644,485L644,486L644,486L643,491L646,493L644,500L641,506L644,513L644,519L643,526L643,531L642,543L642,538L644,546L646,553L646,553L645,554" fill="none" stroke="#000000" style="-webkit-tap-highlight-color: rgba(0, 0, 0, 0); stroke-linecap: round; stroke-linejoin: round; stroke-width: 5;" /><path d="M643,559L643,561L642,561L643,561" fill="none" stroke="#000000" style="-webkit-tap-highlight-color: rgba(0, 0, 0, 0); stroke-linecap: round; stroke-linejoin: round; stroke-width: 5;" /><path d="M443.12,262.22L431,271L443,267L434,283L434,283L442,295L442,291L442,300L442,304L440,310L440,312L440,314L440,314L448,321L448,321L448,321L450,321L454,321L453,322L455,321L458,321L461,320L465,320L468,319L472,318L472,318L472,318L472,318L472,318L470,307L465,294L470,292L470,292L469,291L473,284L472,275L473,279L472,270L472,274L472,265L472,264L472,262L468,256L468,256L468,256L468,256L468,256L466,256L460,257L463,257L454,254L455,256L429,262" fill="none" stroke="#000000" style="-webkit-tap-highlight-color: rgba(0, 0, 0, 0); stroke-linecap: round; stroke-linejoin: round; stroke-width: 5;" /><path d="M443,257L429,262L430,266L430,266" fill="none" stroke="#000000" style="-webkit-tap-highlight-color: rgba(0, 0, 0, 0); stroke-linecap: round; stroke-linejoin: round; stroke-width: 5;" /><path d="M366.78,338.57L367,333L367,335L367,333L367,333L367,319L367,314L368,304L367,309L372,295L370,299L372,292L372,289L373,280L373,279L373,284L373,276L373,274L373,272L375,269L387,256L377,266L396,243L400,249L400,249L378,264L400,249L400,249L380,261L400,249L383,257L409,257L409,256L382,259L409,257L410,258L412,261L415,272L413,262L413,262L415,272L418,274L418,276L417,273L417,273" fill="none" stroke="#000000" style="-webkit-tap-highlight-color: rgba(0, 0, 0, 0); stroke-linecap: round; stroke-linejoin: round; stroke-width: 5;" /><path d="M422,277L421,276L420,289L421,288L421,291L421,291L419,311L428,301L419,311L422,312L421,315L423,318L422,337L423,318L422,337L422,337L418,341L422,337L420,338L418,346" fill="none" stroke="#000000" style="-webkit-tap-highlight-color: rgba(0, 0, 0, 0); stroke-linecap: round; stroke-linejoin: round; stroke-width: 5;" /><path d="M321.97,252.27L319,251L317,251L317,252L315,254L315,256L315,261L317,266L317,271L319,284L317,277L319,289L319,295L319,300L319,304L319,309L311,320L311,320L311,320L311,320L324,329L324,329L320,333L324,329L320,333L320,333L320,333L324,332L324,332L327,330L331,328L331,330L335,326L339,326L340,326L341,327L342,329L342,331L342,334L341,332L341,331L340,327L340,326L339,326L339,310L337,302L335,294L334,289L334,277L334,282L334,274L334,269L334,266L334,262L334,256L334,259" fill="none" stroke="#000000" style="-webkit-tap-highlight-color: rgba(0, 0, 0, 0); stroke-linecap: round; stroke-linejoin: round; stroke-width: 5;" /><path d="M335,251L335,254L335,246L335,249L335,244L335,246L324,254L329,252L332,249L334,247L319,257L310,261L312,259L310,262L312,262" fill="none" stroke="#000000" style="-webkit-tap-highlight-color: rgba(0, 0, 0, 0); stroke-linecap: round; stroke-linejoin: round; stroke-width: 5;" /><path d="M235.67,481.3L234,479L234,479L232,470L233,468L235,463L234,451L234,457L234,448L235,441L233,439L234,436L234,436L241,417L237,409L241,417L239,409L238,401L241,393L241,391L237,399L241,391L243,380L242,379L242,376L246,370L246,368L247,363L246,361L247,365L246,358L246,357L246,360L246,360L253,355L254,354L253,357L254,354L257,351L260,346L263,345L257,350L267,341L267,341L272,339L265,343L272,339L286,341L286,341L274,338L287,343L289,346L289,346L289,346L289,346L301,341L289,346L289,346L318,343L302,341L305,341L306,341L319,343L318,343L331,341L320,343L331,341L342,347L338,343L338,343L343,347L348,347L354,347L349,347L357,346L359,346L362,344L363,344L365,344L369,349L371,348L369,349L373,348L375,348L377,348L385,351L386,354L387,355L391,357L395,359L391,357L395,359L397,363L400,365L395,361L402,366L405,369L408,374L405,369L406,381L406,381L406,381L380,348L382,350L408,388L406,381L378,348L408,388L408,389L410,394L408,389L408,389" fill="none" stroke="#000000" style="-webkit-tap-highlight-color: rgba(0, 0, 0, 0); stroke-linecap: round; stroke-linejoin: round; stroke-width: 5;" /><path d="M410,394L412,402L412,402L412,402L414,412L414,412L413,405L414,410L414,412L415,423L415,427L415,423L414,431L414,431L413,436L413,436L413,436L413,439L413,442L413,443L413,446L413,448L413,456L413,449L413,456L413,456L413,458L413,461L412,470L412,465L412,466L411,475L410,478L410,478L405,482L405,482L405,482L405,482L405,482L405,482L406,493L403,494L403,494L403,494L403,494L403,494L403,498L403,498L403,498L403,498L409,509L409,509L409,509" fill="none" stroke="#000000" style="-webkit-tap-highlight-color: rgba(0, 0, 0, 0); stroke-linecap: round; stroke-linejoin: round; stroke-width: 5;" /><path d="M235.67,555.98L234,560L249,560L236,560L256,560L244,561L259,560L239,561L266,559L270,559L274,552L280,553L277,552L281,554L283,552L283,552L283,552L288,559L292,559L294,559L291,559L295,559L302,559L304,559L299,559L297,559L307,560L305,559L309,560L311,560L314,560L316,560L319,560L314,560L323,560L321,560L320,560L327,559L330,560L330,560L335,558L340,559L340,559L350,560L350,560L358,558L364,561L370,558L367,559L372,558L375,563L384,563L375,563L384,563L384,563L389,563L389,563L384,563L393,563L397,561L395,564L398,561L393,563L403,561L402,561L407,559L408,559L412,559L410,559L417,559L415,559L418,559L423,560L422,560L420,560L424,560L427,560L430,560L428,560L432,560L433,560L438,560L436,560L440,560L441,560L445,560L446,560L448,560L451,560L450,560L453,560L454,560L454,560L458,559L463,564L463,564L464,561L465,561L465,561L466,559L473,557L476,565L478,565L482,563L486,560L483,563" fill="none" stroke="#000000" style="-webkit-tap-highlight-color: rgba(0, 0, 0, 0); stroke-linecap: round; stroke-linejoin: round; stroke-width: 5;" /><path d="M486,560L489,563L488,560L495,561L496,561L500,561L500,561L500,561L500,561L508,556L508,556L511,555L512,555L512,555L512,555L521,563L523,562L523,562L524,562L525,562L530,562L530,562L533,562L535,561L536,560L537,561L537,561L541,563L541,563L549,561L549,561L551,561L554,561L559,561L556,560L559,561L563,560L568,563L566,563L569,563L571,564L573,563L574,561L576,561L578,560L579,560L578,560L580,560L584,559L584,559L584,559L584,559L593,561L593,561L594,560L594,560L593,561L596,565" fill="none" stroke="#000000" style="-webkit-tap-highlight-color: rgba(0, 0, 0, 0); stroke-linecap: round; stroke-linejoin: round; stroke-width: 5;" /><path d="M81.32,565.94L78,568L76,568L76,568L73,565L71,566L70,568L68,569L65,571L61,574L58,575L55,577L49,581L47,582L40,588L45,590L40,592L38,594L38,596L38,596L51,606L38,602L58,599L38,601L40,604L66,595L61,597L71,592L40,604L76,589L74,588L80,585L43,606L46,606L89,579" fill="none" stroke="#000000" style="-webkit-tap-highlight-color: rgba(0, 0, 0, 0); stroke-linecap: round; stroke-linejoin: round; stroke-width: 5;" /><path d="M85,583L88,577L86,576L88,575L87,575L78,568L81,566L87,575L79,567L91.28,570.92L76,568L72,568L67,568L63,567L56,570L53,574L52,578L50,580L52,579L52,579L90,573L94,568" fill="none" stroke="#000000" style="-webkit-tap-highlight-color: rgba(0, 0, 0, 0); stroke-linecap: round; stroke-linejoin: round; stroke-width: 5;" /><path d="M94,568L95,568L100,568L106,567L124,566L111,568L118,566L128,564L135,564L142,561L139,562L145,561L147,574L145,561" fill="none" stroke="#000000" style="-webkit-tap-highlight-color: rgba(0, 0, 0, 0); stroke-linecap: round; stroke-linejoin: round; stroke-width: 5;" /><path d="M680.45,590.83L682,589L690,591L697,590L700,591" fill="none" stroke="#000000" style="-webkit-tap-highlight-color: rgba(0, 0, 0, 0); stroke-linecap: round; stroke-linejoin: round; stroke-width: 5;" /><path d="M707,590" fill="none" stroke="#000000" style="-webkit-tap-highlight-color: rgba(0, 0, 0, 0); stroke-linecap: round; stroke-linejoin: round; stroke-width: 5;" /><path d="M841.44,580.88L871,569L840,578" fill="none" stroke="#000000" style="-webkit-tap-highlight-color: rgba(0, 0, 0, 0); stroke-linecap: round; stroke-linejoin: round; stroke-width: 5;" /><path d="M842,578L876,569L852,570L876,569L858,570L866,570L875,569L873,569" fill="none" stroke="#000000" style="-webkit-tap-highlight-color: rgba(0, 0, 0, 0); stroke-linecap: round; stroke-linejoin: round; stroke-width: 5;" /><path d="M766.76,534.41L761,534L761,534L761,539L761,544L762,550L763,559L763,566" fill="none" stroke="#000000" style="-webkit-tap-highlight-color: rgba(0, 0, 0, 0); stroke-linecap: round; stroke-linejoin: round; stroke-width: 5;" /><path d="M769,578L765,582L767,583L767,589" fill="none" stroke="#000000" style="-webkit-tap-highlight-color: rgba(0, 0, 0, 0); stroke-linecap: round; stroke-linejoin: round; stroke-width: 5;" /><path d="M789.99,541.04" fill="none" stroke="#000000" style="-webkit-tap-highlight-color: rgba(0, 0, 0, 0); stroke-linecap: round; stroke-linejoin: round; stroke-width: 5;" /><path d="M768,591L769,594L769,595L770,593L769,592" fill="none" stroke="#000000" style="-webkit-tap-highlight-color: rgba(0, 0, 0, 0); stroke-linecap: round; stroke-linejoin: round; stroke-width: 5;" /><path d="M792,540L791,539L793,540L792,540L792,547L792,547L799,557L801,564L801,571L801,579L797,586" fill="none" stroke="#000000" style="-webkit-tap-highlight-color: rgba(0, 0, 0, 0); stroke-linecap: round; stroke-linejoin: round; stroke-width: 5;" /><path d="M797,586L797,586L797,586L797,586L773.39,547.68L771,546L769,543L769,543L769,540L771,536L772,534L775,530L777,528L783,527L785,529L785,529L792,533L792,533L793,540L793,537L793,547L794,548L795,548L794,548L794,548L788,547L781,550L785,548" fill="none" stroke="#000000" style="-webkit-tap-highlight-color: rgba(0, 0, 0, 0); stroke-linecap: round; stroke-linejoin: round; stroke-width: 5;" /><path d="M777,548L773,550L772,550L772,550L770,550L726.92,522.79L722,518L722,518L721,518L721,518L721,516L721,518L725,517L735,516L730,517L741,517L745,516L753,516L752,516L748,517L755,516L755,516L757,516L757,516L757,516L762,530L753,537L762,530L753,537L752,537L752,537L752,545L752,545L752,545" fill="none" stroke="#000000" style="-webkit-tap-highlight-color: rgba(0, 0, 0, 0); stroke-linecap: round; stroke-linejoin: round; stroke-width: 5;" /><path d="M752,537L753,537L753,537" fill="none" stroke="#000000" style="-webkit-tap-highlight-color: rgba(0, 0, 0, 0); stroke-linecap: round; stroke-linejoin: round; stroke-width: 5;" /><path d="M144.39,693.73L136,679L146,688L146,688L137,684L136,675L136,670L137,667L138,682L139,663L141,656L145,653L146,645L147,642L149,639L150,637L150,633L159,633L160,632L162,629L164,627L168,624L171,622L172,621L174,620L179,618L191,615L188,616L183,617L194,615L199,614L204,613L207,612L209,612L221,610L218,610L224,609L227,608L232,607L230,608L234,607L214,611L237,606L216,611L241,605L240,620L237,606L241,605L240,620L240,620L238,622L238,622L236,624L237,624L237,626L240,620L233,626L233,626L233,626L233,626" fill="none" stroke="#000000" style="-webkit-tap-highlight-color: rgba(0, 0, 0, 0); stroke-linecap: round; stroke-linejoin: round; stroke-width: 5;" /><path d="M225,628L221,629L218,631L219,630L218,631L214,630L212,630L224,628L208,634L206,637L202,636L195,641L197,638L187,645L191,640L184,644L180,646L179,646L176,647L174,649L171,651" fill="none" stroke="#000000" style="-webkit-tap-highlight-color: rgba(0, 0, 0, 0); stroke-linecap: round; stroke-linejoin: round; stroke-width: 5;" /><path d="M242.31,629" fill="none" stroke="#000000" style="-webkit-tap-highlight-color: rgba(0, 0, 0, 0); stroke-linecap: round; stroke-linejoin: round; stroke-width: 5;" /><path d="M169,654L165,657L159,664L162,661L156,665L155,669L152,670L147,675L151,674L146,677L146,679L146,679L149,681L153,683" fill="none" stroke="#000000" style="-webkit-tap-highlight-color: rgba(0, 0, 0, 0); stroke-linecap: round; stroke-linejoin: round; stroke-width: 5;" /><path d="M242,631L244,632L245,633L248,638L247,636L251,647L251,648L250,654L247,658L244,662L241,669L235,681L236,673L234,684L235,691L235,693L235,692L226,702" fill="none" stroke="#000000" style="-webkit-tap-highlight-color: rgba(0, 0, 0, 0); stroke-linecap: round; stroke-linejoin: round; stroke-width: 5;" /><path d="M226,702L226,702L240,700L226,702L242,720L242,720L242,720L242,723L242,725L242,725L242,725L229,729L222,730L242,724L226,730" fill="none" stroke="#000000" style="-webkit-tap-highlight-color: rgba(0, 0, 0, 0); stroke-linecap: round; stroke-linejoin: round; stroke-width: 5;" /><path d="M267.2,670.5" fill="none" stroke="#000000" style="-webkit-tap-highlight-color: rgba(0, 0, 0, 0); stroke-linecap: round; stroke-linejoin: round; stroke-width: 5;" /><path d="M196,731L202,719L217,730L196,731L193,728L196,731L183,728L190,727L190,727" fill="none" stroke="#000000" style="-webkit-tap-highlight-color: rgba(0, 0, 0, 0); stroke-linecap: round; stroke-linejoin: round; stroke-width: 5;" /><path d="M242,720" fill="none" stroke="#000000" style="-webkit-tap-highlight-color: rgba(0, 0, 0, 0); stroke-linecap: round; stroke-linejoin: round; stroke-width: 5;" /><path d="M182,728L177,730L176,730L169,737L169,740L163,737L169,740" fill="none" stroke="#000000" style="-webkit-tap-highlight-color: rgba(0, 0, 0, 0); stroke-linecap: round; stroke-linejoin: round; stroke-width: 5;" /><path d="M266,667L266,665L269,664L266,664L277,663L282,664L289,662L302,661L303,662L314,661L319,661L331,660L315,661L332,660L337,660L340,660L344,660L347,660L349,660L352,659L356,659L360,661L363,661L369,659L365,660L372,658L377,658L379,658L383,658L386,658L390,658L391,658L397,665L398,666L397,665L410,656L410,656L410,656L415,658L415,658L421,672L422,671L421,672L421,672L421,673L421,672L420,677L420,676L419,687L419,682L420,679L417,684L417,689L415,692L415,694L413,694L413,696L412,702L412,702L412,698L412,702L406,706L406,706L406,706L405,706L400,708L397,708L403,706L395,709L392,710L388,711L388,711" fill="none" stroke="#000000" style="-webkit-tap-highlight-color: rgba(0, 0, 0, 0); stroke-linecap: round; stroke-linejoin: round; stroke-width: 5;" /><path d="M383,711L383,711L378,705L383,711L375,706L373,706L365,712L365,712L365,712L348,712L364,716L335,712L335,712L359,714L356,712L326,720L326,720L324,720L350,711L322,719L320,719L348,712L315,719L315,719L309,719L304,719L301,719L298,716L287,719L290,718L292,719L292,719L285,718L284,718L280,718L279,718L276,717L275,717L275,717L275,717L275,717L263,712L263,712L259,713L263,712L253,721L253,722L252,724L254,724L252,724L248,724" fill="none" stroke="#000000" style="-webkit-tap-highlight-color: rgba(0, 0, 0, 0); stroke-linecap: round; stroke-linejoin: round; stroke-width: 5;" /><path d="M416.57,468.02L413,464L413,464L411,478L413,466" fill="none" stroke="#000000" style="-webkit-tap-highlight-color: rgba(0, 0, 0, 0); stroke-linecap: round; stroke-linejoin: round; stroke-width: 5;" /><path d="M415,492L413,468L410,480L418,488L412,475L415,492L412,471L415,492L436.49,461.38L417,492L437,463L437,463L437,465L429,460L436,468L437,476L431,486L430,488" fill="none" stroke="#000000" style="-webkit-tap-highlight-color: rgba(0, 0, 0, 0); stroke-linecap: round; stroke-linejoin: round; stroke-width: 5;" /><path d="M430,496L430,498L430,500L431,498L449.76,458.06L446,458L446,458L446,460L446,461L446,463L446,467L447,473L447,480L454,485L452,484L451,497L454,485L452,484L452,484L454,482" fill="none" stroke="#000000" style="-webkit-tap-highlight-color: rgba(0, 0, 0, 0); stroke-linecap: round; stroke-linejoin: round; stroke-width: 5;" /><path d="M452,484L477.98,463.04L478,463L478,465L480,471L480,475L478,488" fill="none" stroke="#000000" style="-webkit-tap-highlight-color: rgba(0, 0, 0, 0); stroke-linecap: round; stroke-linejoin: round; stroke-width: 5;" /><path d="M479,498L478,504L479,506L479,506L504.53,469.68L503,475L503,481L504,488" fill="none" stroke="#000000" style="-webkit-tap-highlight-color: rgba(0, 0, 0, 0); stroke-linecap: round; stroke-linejoin: round; stroke-width: 5;" /><path d="M503,494L504,489L503,496L505,496L519.47,473L518,478L518,480L518,483L518,486L519,491" fill="none" stroke="#000000" style="-webkit-tap-highlight-color: rgba(0, 0, 0, 0); stroke-linecap: round; stroke-linejoin: round; stroke-width: 5;" /><path d="M519,498L519,501L519,510L519,510L542.7,466.36L538,467L538,467L536,465L538,467L538,470L538,475" fill="none" stroke="#000000" style="-webkit-tap-highlight-color: rgba(0, 0, 0, 0); stroke-linecap: round; stroke-linejoin: round; stroke-width: 5;" /><path d="M538,481L538,488L537,493L539,495L554.32,461.38L539,496L541,494L551,461L551,463L551,466L551,471" fill="none" stroke="#000000" style="-webkit-tap-highlight-color: rgba(0, 0, 0, 0); stroke-linecap: round; stroke-linejoin: round; stroke-width: 5;" /><path d="M551,478L552,491L553,498L551,486L552,501L555,501L555,502L552,503" fill="none" stroke="#000000" style="-webkit-tap-highlight-color: rgba(0, 0, 0, 0); stroke-linecap: round; stroke-linejoin: round; stroke-width: 5;" /><path d="M610.75,434.83L609,448L605,435L610,451L605,436L611,458" fill="none" stroke="#000000" style="-webkit-tap-highlight-color: rgba(0, 0, 0, 0); stroke-linecap: round; stroke-linejoin: round; stroke-width: 5;" /><path d="M612,463L614,467L608,441L614,467L616,468L625.69,428.19L624,432L624,435L625,446L625,440L625,455" fill="none" stroke="#000000" style="-webkit-tap-highlight-color: rgba(0, 0, 0, 0); stroke-linecap: round; stroke-linejoin: round; stroke-width: 5;" /><path d="M626,460L626,463L626,465L624,467" fill="none" stroke="#000000" style="-webkit-tap-highlight-color: rgba(0, 0, 0, 0); stroke-linecap: round; stroke-linejoin: round; stroke-width: 5;" /><path d="M570.92,448.1L568,454L567,452L568,454L568,458L568,461L567,463L567,465L566,465L566,465L566,477L566,465L563,478L563,478L562,479L558,480L558,479L558,480L558,483L556,484L555,487L555,486L552,490L552,491L552,491L556,497L554,498L555,501L554,498" fill="none" stroke="#000000" style="-webkit-tap-highlight-color: rgba(0, 0, 0, 0); stroke-linecap: round; stroke-linejoin: round; stroke-width: 5;" /><path d="M555,501L556,501L555,502L557,501" fill="none" stroke="#000000" style="-webkit-tap-highlight-color: rgba(0, 0, 0, 0); stroke-linecap: round; stroke-linejoin: round; stroke-width: 5;" /><path d="M595.81,446.44L590,448L592,448L589,448L589,448L589,457L589,457L589,457L590,459L590,459L595,473L593,474L594,482L594,477L594,474L594,482L594,489L594,486L593,490L596,492L594,498" fill="none" stroke="#000000" style="-webkit-tap-highlight-color: rgba(0, 0, 0, 0); stroke-linecap: round; stroke-linejoin: round; stroke-width: 5;" /><path d="M596,492L594,498L597,500L597,500L597,504L597,504L598,509L597,510L597,510L597,514" fill="none" stroke="#000000" style="-webkit-tap-highlight-color: rgba(0, 0, 0, 0); stroke-linecap: round; stroke-linejoin: round; stroke-width: 5;" /><path d="M638.96,302.06L638,300L637,299L637,299L638,305L638,306L639,308L642,317L642,317L639,329L639,330L643,335L642,339L640,344L640,345L640,344L635,348L636,349L635,354L635,353L635,354L635,355L628,361L631,361L631,361L627,362L620,369L627,362L619,371L618,371L616,378L616,377L612,382L611,382L609,384L610,383L609,384L602,386L602,386L599,386L601,386L598,387L596,388L595,390L593,393L594,398L589,400L587,402L588,400L583,402L582,405L575,404L577,403L573,405" fill="none" stroke="#000000" style="-webkit-tap-highlight-color: rgba(0, 0, 0, 0); stroke-linecap: round; stroke-linejoin: round; stroke-width: 5;" /><path d="M569,405L568,405L559,406L563,407L556,406L553,408L550,410L545,410L544,411L538,413L541,412L538,419L529,428L529,427L529,423L529,423L524,433L526,433L528,433L521,435" fill="none" stroke="#000000" style="-webkit-tap-highlight-color: rgba(0, 0, 0, 0); stroke-linecap: round; stroke-linejoin: round; stroke-width: 5;" /><path d="M443.12,413.25" fill="none" stroke="#000000" style="-webkit-tap-highlight-color: rgba(0, 0, 0, 0); stroke-linecap: round; stroke-linejoin: round; stroke-width: 5;" /><path d="M519,436L517,440L510,441L506,440L499,441L500,440L498,443L498,443L489,442L491,443L488,442L488,442L482,443L481,443" fill="none" stroke="#000000" style="-webkit-tap-highlight-color: rgba(0, 0, 0, 0); stroke-linecap: round; stroke-linejoin: round; stroke-width: 5;" /><path d="M480,443L480,443L475,445L475,445L473,450L475,448L443.12,414.91L473,450L474,451L463,468L474,451L478,460L461,456L461,456L463,468L461,456L461,456L441,416L438,420L438,420L440,416L436,420" fill="none" stroke="#000000" style="-webkit-tap-highlight-color: rgba(0, 0, 0, 0); stroke-linecap: round; stroke-linejoin: round; stroke-width: 5;" /><path d="M436,427L436,422L436,431L436,422L436,451L437,438L436,458L438,445L466.36,414.91" fill="none" stroke="#000000" style="-webkit-tap-highlight-color: rgba(0, 0, 0, 0); stroke-linecap: round; stroke-linejoin: round; stroke-width: 5;" /><path d="M438,475L437,463L436,468L437,473L438,475L437,478L437,480L438,482" fill="none" stroke="#000000" style="-webkit-tap-highlight-color: rgba(0, 0, 0, 0); stroke-linecap: round; stroke-linejoin: round; stroke-width: 5;" /><path d="M443,412L441,412" fill="none" stroke="#000000" style="-webkit-tap-highlight-color: rgba(0, 0, 0, 0); stroke-linecap: round; stroke-linejoin: round; stroke-width: 5;" /><path d="M440,482" fill="none" stroke="#000000" style="-webkit-tap-highlight-color: rgba(0, 0, 0, 0); stroke-linecap: round; stroke-linejoin: round; stroke-width: 5;" /><path d="M441,409L445,411L441,412L449,413L446,412L456,413L460,412L463,410L466,408L470,408L468,408L471,408L471,408L471,410L471,410L466,416L466,416L463,417L471,427L470,430L470,432" fill="none" stroke="#000000" style="-webkit-tap-highlight-color: rgba(0, 0, 0, 0); stroke-linecap: round; stroke-linejoin: round; stroke-width: 5;" /><path d="M414.91,361.8" fill="none" stroke="#000000" style="-webkit-tap-highlight-color: rgba(0, 0, 0, 0); stroke-linecap: round; stroke-linejoin: round; stroke-width: 5;" /><path d="M460,446L463,447L461,451L463,447L461,456L461,456L461,456" fill="none" stroke="#000000" style="-webkit-tap-highlight-color: rgba(0, 0, 0, 0); stroke-linecap: round; stroke-linejoin: round; stroke-width: 5;" /><path d="M413,363L410,363L412,363L407,364L410,363L405,368L407,366L405,369L405,369L405,369L402,366L408,368L405,369L405,368L412,368L417,364L422,361L427,362" fill="none" stroke="#000000" style="-webkit-tap-highlight-color: rgba(0, 0, 0, 0); stroke-linecap: round; stroke-linejoin: round; stroke-width: 5;" /><path d="M432,365L438,361L439,361L443,360L447,365L453,363L453,363L456,354L418.23,385.04" fill="none" stroke="#000000" style="-webkit-tap-highlight-color: rgba(0, 0, 0, 0); stroke-linecap: round; stroke-linejoin: round; stroke-width: 5;" /><path d="M460,354L468,361L463,362L471,361L470,361L474,360L476,358L476,358L478,360L480,360L481,360L480,362L480,362" fill="none" stroke="#000000" style="-webkit-tap-highlight-color: rgba(0, 0, 0, 0); stroke-linecap: round; stroke-linejoin: round; stroke-width: 5;" /><path d="M417,381L413,390L420,381L422,381L424,380L425,379L440,379L440,379L443,379" fill="none" stroke="#000000" style="-webkit-tap-highlight-color: rgba(0, 0, 0, 0); stroke-linecap: round; stroke-linejoin: round; stroke-width: 5;" /><path d="M448,381L456,381L451,381L460,381L463,381L466,381L471,380L470,380L473,378L476,380L476,380L473,378L473,378" fill="none" stroke="#000000" style="-webkit-tap-highlight-color: rgba(0, 0, 0, 0); stroke-linecap: round; stroke-linejoin: round; stroke-width: 5;" /><path d="M375.08,335.25L372,336L370,342L372,336L373,336L384,342L384,342L388,342L392,339" fill="none" stroke="#000000" style="-webkit-tap-highlight-color: rgba(0, 0, 0, 0); stroke-linecap: round; stroke-linejoin: round; stroke-width: 5;" /><path d="M391,342L390.02,335.25L393,339L395,339L397,339L398,339L401,339" fill="none" stroke="#000000" style="-webkit-tap-highlight-color: rgba(0, 0, 0, 0); stroke-linecap: round; stroke-linejoin: round; stroke-width: 5;" /><path d="M406,338L405,339L412,340L412,339L413,337L413,337" fill="none" stroke="#000000" style="-webkit-tap-highlight-color: rgba(0, 0, 0, 0); stroke-linecap: round; stroke-linejoin: round; stroke-width: 5;" /><path d="M297.08,219.07L292,215L292,215L292,215L292,215L292,215L311,228L314,227L320,226L335,224L320,226L342,224L347,224L357,224L352,224L363,224L368,224L375,224L372,224L387,223L387,223L387,223L388,223L390,223L390,223L396,219L398,219L404,221L406,223L407,223L410,224L412,224L420,221L412,224L420,221L420,221L426,230L426,230L426,230L447,217L445,216L426,230L443,229L455,231L455,231L455,231L455,231" fill="none" stroke="#000000" style="-webkit-tap-highlight-color: rgba(0, 0, 0, 0); stroke-linecap: round; stroke-linejoin: round; stroke-width: 5;" /><path d="M455,231L455,231L456,231L458,231L465,226L465,226L465,226L466,226L470,226L471,226L473,227L474,228L475,229L476,230L488,229L476,230L488,229L488,229L488,229L488,229L488,229" fill="none" stroke="#000000" style="-webkit-tap-highlight-color: rgba(0, 0, 0, 0); stroke-linecap: round; stroke-linejoin: round; stroke-width: 5;" /><path d="M305.37,229.03L310,229L299,227L310,229L310,229L299,231L299,237L299,244L292,215" fill="none" stroke="#000000" style="-webkit-tap-highlight-color: rgba(0, 0, 0, 0); stroke-linecap: round; stroke-linejoin: round; stroke-width: 5;" /><path d="M302,269L300,259L300,252L302,266L302,277L302,274L302,285L302,280L302,289L300,292L300,297L300,300" fill="none" stroke="#000000" style="-webkit-tap-highlight-color: rgba(0, 0, 0, 0); stroke-linecap: round; stroke-linejoin: round; stroke-width: 5;" /><path d="M300,302L300,304L299,309L299,305L302,320L302,320L302,320L299,322L299,322L292,326L292,326L292,327L292,327L292,327L292,327L278.82,315.33L288,325L277,320L277,319L277,315L277,312L277,309L277,304L277,299L277,295L277,290L277,285L279,280L279,277L280,274L282,272L282,271L284,269L284,267L285,267L285,269L287,274L287,276L289,279L289,284L290,287L290,292L290,295" fill="none" stroke="#000000" style="-webkit-tap-highlight-color: rgba(0, 0, 0, 0); stroke-linecap: round; stroke-linejoin: round; stroke-width: 5;" /><path d="M290,299L290,302L290,305L290,309L289,310L288,325L299,322L288,325L288,325L288,325L288,325" fill="none" stroke="#000000" style="-webkit-tap-highlight-color: rgba(0, 0, 0, 0); stroke-linecap: round; stroke-linejoin: round; stroke-width: 5;" /><path d="M53.11,336.91L52,332L52,332L43,327L41,325L35,322L30,322L28,322L27,322L25,322L28,322L25,322L22,322L23,322L28,322" fill="none" stroke="#000000" style="-webkit-tap-highlight-color: rgba(0, 0, 0, 0); stroke-linecap: round; stroke-linejoin: round; stroke-width: 5;" /></svg>