<?xml version="1.0" encoding="utf-8" ?>
<svg baseProfile="full" height="1414" version="1.1" width="1024" xmlns="http://www.w3.org/2000/svg" xmlns:ev="http://www.w3.org/2001/xml-events" xmlns:xlink="http://www.w3.org/1999/xlink"><defs /><path d="M476.51,154.61L473.98,154.61L471.45,157.15L471.45,159.68L468.91,162.22L468.91,167.29L466.38,169.82L461.31,174.89L458.77,179.96L453.7,187.56L448.63,192.63L446.1,197.7L443.56,202.77L441.03,210.38L435.96,215.45L430.89,223.05L425.82,233.19L420.75,240.79L415.68,248.4L413.15,253.47L408.08,258.53L405.54,263.6L400.48,268.67L397.94,276.28L392.87,281.35L390.34,283.88L385.27,288.95L382.73,296.55L377.66,301.62L375.13,306.69L370.06,311.76L367.52,316.83L364.99,324.44L362.46,332.04L357.39,337.11L354.85,342.18L352.32,344.71L349.78,349.78L347.25,354.85L342.18,359.92L339.64,364.99L334.57,370.06L332.04,375.13L326.97,382.73L324.44,387.8L319.37,395.41L316.83,403.01L311.76,410.61L306.69,418.22L304.16,425.82L301.62,433.43L299.09,441.03L296.55,448.63L291.49,458.77L288.95,466.38L286.42,473.98L283.88,484.12L281.35,491.72L278.81,501.86L276.28,509.47L276.28,517.07L276.28,522.14L276.28,529.74L276.28,537.35L276.28,542.42L273.74,552.55L273.74,560.16L273.74,567.76L273.74,575.37L273.74,582.97L276.28,593.11L276.28,600.71L276.28,610.85L278.81,620.99L278.81,631.13L278.81,638.73L281.35,648.87L283.88,659.01L283.88,666.61L286.42,674.22L286.42,681.82L286.42,691.96L286.42,699.56L288.95,709.7L288.95,717.31L288.95,724.91L288.95,732.51L288.95,737.58L288.95,745.19L288.95,752.79L288.95,760.4L288.95,765.47L286.42,773.07L286.42,778.14L286.42,783.21L283.88,790.81L283.88,798.42L281.35,808.55L281.35,816.16L278.81,823.76L278.81,828.83L278.81,836.44L278.81,841.5L278.81,849.11L278.81,854.18L278.81,861.78L276.28,866.85L276.28,874.46L276.28,882.06L276.28,889.66L276.28,894.73L276.28,904.87L276.28,912.48L273.74,917.54L273.74,925.15L273.74,932.75L273.74,940.36L273.74,950.5L271.21,958.1L271.21,968.24L268.67,978.38L268.67,988.51L268.67,996.12L268.67,1006.26L268.67,1013.86L268.67,1024L266.14,1034.14L266.14,1044.28L266.14,1051.88L263.6,1062.02L263.6,1069.62L263.6,1077.23L263.6,1084.83L263.6,1092.44L263.6,1100.04L263.6,1107.64L263.6,1115.25L263.6,1122.85L261.07,1127.92L261.07,1135.52L261.07,1143.13L261.07,1150.73L261.07,1155.8L261.07,1163.41L261.07,1168.48L261.07,1173.54L258.53,1178.61L258.53,1188.75L258.53,1193.82L258.53,1201.43L258.53,1206.5L258.53,1214.1L258.53,1221.7L258.53,1229.31L258.53,1236.91L258.53,1241.98L258.53,1247.05L258.53,1252.12L258.53,1257.19L258.53,1264.79L258.53,1272.4L261.07,1274.93L263.6,1264.79" fill="none" stroke="#000000" style="-webkit-tap-highlight-color: rgba(0, 0, 0, 0); stroke-linecap: round; stroke-linejoin: round; stroke-width: 7;" /><path d="M476.51,162.22L473.98,159.68L471.45,157.15L471.45,154.61L471.45,157.15L473.98,159.68L476.51,164.75L479.05,169.82L481.58,177.43L486.65,185.03L491.72,190.1L496.79,195.17L501.86,200.24L504.4,205.31L509.47,212.91L512,217.98L517.07,223.05L519.6,228.12L522.14,233.19L527.21,235.72L529.74,240.79L532.28,245.86L534.81,250.93L539.88,256L542.42,261.07L547.49,263.6L550.02,268.67L555.09,271.21L557.62,276.28L562.69,281.35L565.23,286.42L570.3,288.95L572.83,291.49L577.9,296.55L580.44,299.09L585.5,304.16L588.04,309.23L593.11,311.76L598.18,316.83L603.25,321.9L605.78,324.44L610.85,329.5L613.39,334.57L618.46,339.64L623.52,344.71L626.06,347.25L628.59,352.32L633.66,354.85L636.2,359.92L638.73,364.99L641.27,370.06L643.8,375.13L646.34,380.2L651.41,385.27L653.94,387.8L656.48,392.87L659.01,397.94L661.54,403.01L666.61,408.08L669.15,413.15L671.68,415.68L674.22,418.22L676.75,423.29L679.29,425.82L681.82,428.36L681.82,433.43L684.36,435.96L686.89,438.5L689.43,441.03L691.96,446.1L694.5,448.63L694.5,451.17L697.03,453.7L699.56,456.24L702.1,461.31L704.63,463.84L704.63,466.38L707.17,468.91L709.7,471.45L709.7,473.98L712.24,476.51L714.77,481.58L719.84,486.65L719.84,489.19L722.38,491.72L722.38,494.26L724.91,496.79L724.91,499.33L727.45,501.86L727.45,506.93L727.45,509.47L729.98,514.53L729.98,517.07L729.98,522.14L729.98,524.67L729.98,529.74L729.98,534.81L729.98,537.35L729.98,544.95L729.98,550.02L729.98,555.09L729.98,560.16L729.98,565.23L727.45,570.3L727.45,577.9L727.45,582.97L727.45,588.04L727.45,593.11L727.45,598.18L727.45,605.78L724.91,610.85L724.91,618.46L724.91,623.52L724.91,631.13L724.91,636.2L722.38,643.8L722.38,653.94L722.38,661.54L722.38,669.15L719.84,679.29L719.84,689.43L719.84,699.56L719.84,709.7L719.84,719.84L719.84,727.45L719.84,735.05L719.84,742.65L722.38,750.26L722.38,757.86L722.38,765.47L724.91,773.07L724.91,780.67L727.45,788.28L727.45,798.42L729.98,806.02L729.98,813.62L729.98,823.76L732.51,831.37L732.51,841.5L732.51,849.11L735.05,859.25L735.05,869.39L735.05,879.52L735.05,887.13L737.58,897.27L737.58,907.41L737.58,917.54L737.58,927.68L737.58,937.82L740.12,950.5L740.12,963.17L740.12,975.84L740.12,988.51L740.12,1003.72L740.12,1016.4L740.12,1029.07L740.12,1041.74L740.12,1051.88L740.12,1059.49L740.12,1069.62L740.12,1079.76L740.12,1089.9L740.12,1100.04L740.12,1110.18L740.12,1120.32L740.12,1130.46L740.12,1140.59L740.12,1150.73L740.12,1158.34L740.12,1168.48L740.12,1178.61L740.12,1188.75L740.12,1196.36L742.65,1203.96L742.65,1209.03L742.65,1214.1L742.65,1219.17L745.19,1221.7L745.19,1226.77L745.19,1229.31L745.19,1231.84L747.72,1234.38L747.72,1236.91L747.72,1241.98L747.72,1247.05L747.72,1249.58L747.72,1254.65L750.26,1257.19L750.26,1259.72L750.26,1264.79L752.79,1269.86L752.79,1274.93L755.33,1280L755.33,1285.07L755.33,1292.67L757.86,1300.28L757.86,1312.95L760.4,1325.62L760.4,1340.83L762.93,1353.5L768,1361.11L770.53,1361.11" fill="none" stroke="#000000" style="-webkit-tap-highlight-color: rgba(0, 0, 0, 0); stroke-linecap: round; stroke-linejoin: round; stroke-width: 7;" /><path d="M773.07,1348.44L762.93,1353.5L760.4,1356.04L762.93,1356.04L765.47,1356.04L768,1356.04L770.53,1356.04L785.74,1350.97L795.88,1348.44L806.02,1345.9L818.69,1343.37L828.83,1340.83L841.5,1338.3L854.18,1338.3L864.32,1338.3L874.46,1338.3L884.59,1340.83L894.73,1343.37L904.87,1345.9L915.01,1348.44L925.15,1350.97L932.75,1353.5L942.89,1353.5L953.03,1356.04L960.63,1356.04L970.77,1358.57L980.91,1361.11L991.05,1363.64L1001.19,1363.64L1013.86,1363.64L1024,1363.64" fill="none" stroke="#000000" style="-webkit-tap-highlight-color: rgba(0, 0, 0, 0); stroke-linecap: round; stroke-linejoin: round; stroke-width: 7;" /><path d="M261.07,1264.79L261.07,1267.33L258.53,1269.86L256,1269.86L253.47,1272.4L250.93,1272.4L245.86,1274.93L240.79,1277.47L233.19,1280L223.05,1285.07L220.51,1285.07L217.98,1285.07L215.45,1285.07L212.91,1285.07L210.38,1285.07L207.84,1287.6L205.31,1290.14L202.77,1290.14L200.24,1290.14L197.7,1292.67L195.17,1292.67L192.63,1292.67L190.1,1292.67L190.1,1290.14L185.03,1287.6L182.5,1285.07L177.43,1282.53L167.29,1280L157.15,1277.47L144.48,1272.4L134.34,1264.79L121.66,1262.26L106.46,1259.72L96.32,1259.72L91.25,1259.72L83.64,1257.19L76.04,1257.19L65.9,1254.65L58.3,1252.12L53.23,1249.58L45.62,1247.05L40.55,1247.05L32.95,1247.05L27.88,1244.51L20.28,1244.51L15.21,1241.98L12.67,1239.45L7.6,1239.45L5.07,1236.91L2.53,1234.38" fill="none" stroke="#000000" style="-webkit-tap-highlight-color: rgba(0, 0, 0, 0); stroke-linecap: round; stroke-linejoin: round; stroke-width: 7;" /><path d="M555.09,278.81L555.09,276.28L552.55,276.28L550.02,278.81L547.49,283.88L542.42,288.95L539.88,294.02L534.81,301.62L529.74,311.76L524.67,321.9L519.6,332.04L514.53,342.18L506.93,354.85L501.86,367.52L496.79,377.66L489.19,387.8L484.12,397.94L479.05,405.54L473.98,415.68L468.91,425.82L463.84,433.43L458.77,441.03L453.7,448.63L451.17,458.77L446.1,466.38L443.56,473.98L438.5,481.58L433.43,489.19L428.36,496.79L425.82,504.4L420.75,514.53L418.22,519.6L415.68,527.21L413.15,534.81L408.08,542.42L405.54,550.02L403.01,555.09L403.01,557.62L400.48,560.16L400.48,562.69L397.94,565.23L397.94,567.76L395.41,570.3L395.41,572.83L395.41,577.9L395.41,582.97L395.41,590.57L395.41,598.18L395.41,605.78L395.41,613.39L395.41,620.99L392.87,628.59L392.87,641.27L390.34,653.94L390.34,664.08L387.8,674.22L387.8,684.36L385.27,697.03L385.27,707.17L382.73,717.31L382.73,729.98L382.73,740.12L382.73,752.79L380.2,762.93L380.2,770.53L380.2,780.67L380.2,788.28L380.2,793.35L380.2,800.95L380.2,808.55L380.2,816.16L380.2,821.23L380.2,828.83L380.2,833.9L380.2,841.5L380.2,849.11L380.2,856.71L380.2,861.78L380.2,869.39L377.66,876.99L377.66,884.59L377.66,894.73L377.66,904.87L377.66,912.48L377.66,920.08L375.13,930.22L375.13,940.36L372.59,953.03L370.06,963.17L367.52,973.31L367.52,983.45L364.99,991.05L364.99,998.65L364.99,1008.79L362.46,1018.93L362.46,1029.07L359.92,1036.67L359.92,1046.81L359.92,1054.42L359.92,1064.55L359.92,1072.16L359.92,1079.76L359.92,1087.37L359.92,1094.97L359.92,1100.04L359.92,1107.64L359.92,1115.25L359.92,1120.32L359.92,1125.39L357.39,1130.46L357.39,1138.06L357.39,1143.13L357.39,1150.73L357.39,1158.34L357.39,1165.94L359.92,1173.54L359.92,1181.15L359.92,1186.22L359.92,1193.82L359.92,1201.43L359.92,1209.03L359.92,1214.1L359.92,1211.56L359.92,1209.03" fill="none" stroke="#000000" style="-webkit-tap-highlight-color: rgba(0, 0, 0, 0); stroke-linecap: round; stroke-linejoin: round; stroke-width: 7;" /><path d="M499.33,666.61L496.79,669.15L491.72,671.68L491.72,674.22L494.26,676.75L499.33,676.75L506.93,676.75L514.53,676.75L522.14,676.75L527.21,676.75L534.81,676.75L539.88,676.75L544.95,674.22L550.02,674.22L552.55,674.22L555.09,674.22L557.62,674.22L560.16,674.22L562.69,674.22L565.23,671.68L567.76,669.15L567.76,666.61L567.76,659.01L567.76,653.94L567.76,648.87L570.3,643.8L570.3,638.73L570.3,633.66L570.3,628.59L570.3,623.52L570.3,620.99L570.3,618.46L570.3,613.39L570.3,610.85L570.3,608.32L572.83,605.78L572.83,603.25L575.37,600.71L577.9,598.18L582.97,598.18L585.5,595.64L590.57,595.64L595.64,593.11L600.71,590.57L605.78,588.04L610.85,585.5L613.39,582.97L618.46,580.44L620.99,577.9L623.52,577.9L626.06,575.37L628.59,572.83L631.13,570.3L633.66,570.3L636.2,570.3L636.2,575.37L636.2,580.44L636.2,588.04L633.66,593.11L633.66,600.71L633.66,610.85L633.66,618.46L633.66,623.52L631.13,631.13L631.13,636.2L631.13,638.73L631.13,641.27L633.66,643.8L636.2,643.8L638.73,646.34L641.27,648.87L646.34,651.41L651.41,653.94L653.94,653.94L659.01,656.48L664.08,656.48L671.68,659.01L676.75,659.01L684.36,659.01L689.43,656.48L694.5,656.48L699.56,656.48L702.1,656.48L707.17,656.48L712.24,656.48L717.31,656.48L719.84,656.48L724.91,656.48L732.51,659.01" fill="none" stroke="#000000" style="-webkit-tap-highlight-color: rgba(0, 0, 0, 0); stroke-linecap: round; stroke-linejoin: round; stroke-width: 7;" /><path d="M504.4,676.75L501.86,676.75L499.33,681.82L499.33,686.89L499.33,697.03L499.33,707.17L496.79,717.31L496.79,727.45L494.26,737.58L494.26,747.72L494.26,757.86L491.72,768L491.72,778.14L491.72,785.74L491.72,790.81L489.19,798.42L489.19,806.02L489.19,811.09L489.19,816.16L486.65,818.69L486.65,821.23L486.65,823.76L484.12,826.3L479.05,831.37L476.51,833.9L473.98,838.97L468.91,841.5L466.38,844.04L461.31,844.04L458.77,846.57L456.24,846.57L453.7,846.57L451.17,849.11L448.63,851.64L446.1,854.18L441.03,856.71L438.5,859.25L435.96,861.78L433.43,864.32L430.89,869.39L430.89,871.92L430.89,876.99L428.36,879.52L428.36,884.59L428.36,889.66L428.36,897.27L428.36,902.34L428.36,909.94L428.36,915.01L428.36,920.08L428.36,927.68L425.82,935.29L425.82,940.36L425.82,945.43L425.82,953.03L423.29,958.1L423.29,965.7L423.29,973.31L423.29,978.38L423.29,985.98L423.29,993.58L423.29,998.65L423.29,1003.72L425.82,1008.79L425.82,1013.86L425.82,1018.93L425.82,1024L428.36,1026.53L428.36,1031.6L430.89,1036.67L435.96,1039.21L438.5,1044.28L441.03,1049.35L443.56,1051.88L443.56,1056.95L446.1,1062.02L448.63,1064.55L448.63,1069.62L448.63,1072.16L448.63,1077.23L448.63,1082.3L448.63,1087.37L448.63,1094.97L448.63,1100.04L448.63,1105.11L448.63,1110.18L448.63,1115.25L448.63,1122.85L448.63,1130.46L448.63,1135.52L448.63,1143.13L448.63,1148.2L448.63,1153.27L448.63,1160.87L448.63,1168.48L448.63,1173.54L448.63,1176.08L448.63,1181.15L448.63,1183.68L446.1,1186.22L446.1,1191.29L443.56,1191.29L443.56,1193.82L441.03,1196.36L438.5,1198.89L433.43,1203.96L430.89,1209.03L425.82,1214.1L420.75,1216.63L415.68,1221.7L413.15,1224.24L408.08,1226.77L405.54,1229.31L400.48,1231.84L397.94,1231.84L395.41,1234.38L390.34,1236.91L387.8,1236.91L385.27,1236.91L382.73,1236.91L380.2,1236.91L377.66,1234.38L375.13,1231.84L370.06,1229.31L364.99,1224.24L362.46,1221.7L359.92,1219.17L357.39,1219.17L362.46,1214.1" fill="none" stroke="#000000" style="-webkit-tap-highlight-color: rgba(0, 0, 0, 0); stroke-linecap: round; stroke-linejoin: round; stroke-width: 7;" /><path d="M258.53,1277.47L253.47,1280L258.53,1277.47L271.21,1274.93L276.28,1272.4L281.35,1272.4L286.42,1269.86L291.49,1267.33L296.55,1262.26L301.62,1259.72L306.69,1257.19L311.76,1254.65L314.3,1249.58L319.37,1247.05L324.44,1241.98L329.5,1239.45L334.57,1234.38L339.64,1231.84L344.71,1226.77L349.78,1224.24L352.32,1221.7L354.85,1219.17L357.39,1219.17" fill="none" stroke="#000000" style="-webkit-tap-highlight-color: rgba(0, 0, 0, 0); stroke-linecap: round; stroke-linejoin: round; stroke-width: 7;" /></svg>