<?xml version="1.0" encoding="utf-8" ?>
<svg baseProfile="full" height="765" version="1.1" width="1024" xmlns="http://www.w3.org/2000/svg" xmlns:ev="http://www.w3.org/2001/xml-events" xmlns:xlink="http://www.w3.org/1999/xlink"><defs /><path d="M703.77,411.59L703.77,409.78L703.77,407.97L703.77,406.16L705.58,404.35L705.58,402.54L707.39,402.54L707.39,400.73L709.2,400.73L707.39,402.54L703.77,404.35L700.16,409.78L698.35,413.4L694.73,418.83L691.11,422.45L687.49,427.87L685.68,429.68L683.87,431.49L682.06,433.3L680.25,435.11L678.45,435.11L676.64,438.73L673.02,440.54L669.4,442.35L667.59,445.96L663.97,449.58L662.16,451.39L658.54,455.01L656.73,456.82L653.12,460.44L649.5,464.06L645.88,467.67L642.26,469.48L638.64,473.1L635.02,476.72L629.6,478.53L625.98,480.34L622.36,483.96L615.12,487.58L609.7,493L604.27,498.43L597.03,502.05L591.6,507.48L586.18,511.1L580.75,514.71L577.13,518.33L571.7,521.95L568.08,525.57L562.66,529.19L559.04,532.81L553.61,534.61L549.99,538.23L546.37,541.85L540.95,547.28L537.33,550.9L531.9,554.52L528.28,559.94L524.66,563.56L521.05,567.18L515.62,572.61L512,576.23L508.38,579.84L504.76,583.46L502.95,588.89L499.34,592.51L495.72,597.94L492.1,601.55L490.29,606.98L488.48,610.6L488.48,612.41L490.29,614.22L493.91,616.03L499.34,617.84L506.57,619.65L515.62,621.46L524.66,621.46L533.71,621.46L542.76,621.46L549.99,625.07L559.04,626.88L566.28,630.5L571.7,634.12L578.94,637.74L587.99,641.36L593.41,644.98L600.65,648.59L607.89,650.4L615.12,654.02L622.36,657.64L629.6,659.45L636.83,661.26L642.26,663.07L647.69,664.88L653.12,664.88L656.73,668.49L662.16,670.3L667.59,672.11L671.21,673.92L676.64,677.54L682.06,679.35L685.68,681.16L691.11,682.97L692.92,686.59L696.54,688.4L700.16,692.01L703.77,693.82L707.39,695.63L711.01,695.63L716.44,697.44L720.06,699.25L723.67,701.06L727.29,701.06L732.72,702.87L738.15,702.87L743.58,704.68L749,704.68L754.43,706.49L759.86,708.3L763.48,708.3L768.9,710.11L772.52,711.92L777.95,713.72L783.38,715.53L787,717.34L790.61,719.15L794.23,720.96L799.66,720.96L803.28,722.77L805.09,722.77L808.71,722.77L812.33,722.77L815.94,722.77L819.56,724.58L823.18,724.58L828.61,724.58L832.23,726.39L835.84,726.39L839.46,728.2L841.27,728.2L843.08,730.01L844.89,731.82L846.7,735.43L846.7,737.24L848.51,739.05L850.32,742.67L852.13,742.67L853.94,744.48L853.94,746.29" fill="none" stroke="#000000" style="-webkit-tap-highlight-color: rgba(0, 0, 0, 0); stroke-linecap: round; stroke-linejoin: round; stroke-width: 5;" /><path d="M504.76,619.65L502.95,617.84L501.14,617.84L499.34,616.03L495.72,614.22L493.91,614.22L490.29,614.22L488.48,616.03L484.86,616.03L481.24,619.65L477.63,621.46L475.82,625.07L474.01,630.5L472.2,635.93L472.2,641.36L472.2,650.4L472.2,659.45L472.2,668.49L472.2,677.54L472.2,686.59L472.2,693.82L474.01,702.87L474.01,710.11L475.82,717.34L475.82,726.39L477.63,731.82L479.43,739.05L479.43,744.48L481.24,748.1L481.24,751.72L481.24,755.34L483.05,758.95L483.05,760.76L484.86,762.57L484.86,764.38" fill="none" stroke="#000000" style="-webkit-tap-highlight-color: rgba(0, 0, 0, 0); stroke-linecap: round; stroke-linejoin: round; stroke-width: 5;" /><path d="M484.86,764.38" fill="none" stroke="#000000" style="-webkit-tap-highlight-color: rgba(0, 0, 0, 0); stroke-linecap: round; stroke-linejoin: round; stroke-width: 5;" /><path d="M488.48,681.16L486.67,681.16L486.67,679.35L484.86,679.35L490.29,679.35L497.53,681.16L504.76,684.78L515.62,688.4L526.47,692.01L537.33,695.63L548.18,699.25L559.04,702.87L569.89,706.49L580.75,710.11L589.8,711.92L598.84,715.53L607.89,717.34L615.12,719.15L622.36,720.96L631.41,724.58L638.64,726.39L647.69,728.2L654.93,731.82L663.97,735.43L671.21,739.05L678.45,740.86L683.87,742.67L689.3,742.67L692.92,742.67L700.16,744.48L707.39,746.29L714.63,748.1L721.87,749.91L729.1,749.91L734.53,749.91L739.96,749.91L745.39,749.91L750.81,751.72L758.05,753.53L761.67,753.53L765.29,755.34L768.9,757.14L768.9,758.95" fill="none" stroke="#000000" style="-webkit-tap-highlight-color: rgba(0, 0, 0, 0); stroke-linecap: round; stroke-linejoin: round; stroke-width: 5;" /><path d="M700.16,422.45L696.54,422.45L694.73,420.64L694.73,418.83L696.54,417.02L698.35,415.21L701.96,413.4L705.58,411.59L711.01,407.97L718.25,404.35L727.29,402.54L734.53,398.93L741.77,398.93L749,400.73L754.43,404.35L759.86,406.16L765.29,409.78L767.1,409.78L772.52,411.59L777.95,415.21L783.38,417.02L792.42,420.64L799.66,424.25L806.9,426.06L815.94,427.87L823.18,429.68L839.46,431.49L848.51,431.49L857.55,431.49L864.79,433.3L873.84,436.92L879.27,438.73L886.5,440.54L891.93,442.35L899.17,445.96L906.4,447.77L911.83,449.58L919.07,451.39L926.3,453.2L931.73,455.01L935.35,456.82L940.78,458.63L944.4,460.44L949.82,462.25L955.25,464.06L962.49,467.67L967.92,471.29L971.53,474.91L975.15,476.72L976.96,478.53L978.77,478.53L976.96,474.91" fill="none" stroke="#000000" style="-webkit-tap-highlight-color: rgba(0, 0, 0, 0); stroke-linecap: round; stroke-linejoin: round; stroke-width: 5;" /><path d="M991.43,328.37L996.86,324.75L998.67,322.94L1000.48,319.32L1000.48,317.51L1000.48,315.7L998.67,319.32L998.67,321.13L996.86,326.56L996.86,331.99L996.86,339.22L996.86,350.08L996.86,360.93L996.86,373.6L995.05,386.26L993.24,397.12L991.43,411.59L989.63,417.02L986.01,424.25L984.2,427.87L980.58,429.68L976.96,429.68L975.15,429.68L973.34,427.87L969.72,426.06L966.11,422.45L962.49,418.83L958.87,417.02L953.44,413.4L949.82,411.59L944.4,409.78L937.16,407.97L929.92,407.97L920.88,407.97L915.45,406.16L911.83,404.35L910.02,404.35L911.83,402.54L913.64,400.73L915.45,395.31L919.07,389.88L922.69,380.83L926.3,369.98L926.3,359.12L922.69,348.27L920.88,337.41L920.88,330.18L922.69,324.75L924.49,317.51L926.3,310.28L924.49,304.85L924.49,301.23L924.49,299.42L926.3,297.61L929.92,297.61L933.54,297.61L937.16,299.42L940.78,299.42L944.4,299.42L949.82,301.23L955.25,301.23L960.68,303.04L966.11,303.04L971.53,304.85L975.15,304.85L976.96,303.04L978.77,303.04L976.96,303.04" fill="none" stroke="#000000" style="-webkit-tap-highlight-color: rgba(0, 0, 0, 0); stroke-linecap: round; stroke-linejoin: round; stroke-width: 5;" /><path d="M725.48,297.61L723.67,297.61L721.87,297.61L720.06,297.61L718.25,297.61L716.44,299.42L720.06,301.23L723.67,303.04L729.1,303.04L734.53,303.04L743.58,303.04L752.62,303.04L761.67,303.04L768.9,301.23L777.95,301.23L783.38,301.23L788.81,301.23L792.42,301.23L794.23,299.42L794.23,297.61L796.04,295.8L797.85,293.99L799.66,290.37L801.47,288.57L803.28,283.14L805.09,279.52L806.9,274.09L806.9,266.86L806.9,261.43L806.9,259.62L805.09,259.62L805.09,261.43L805.09,265.05" fill="none" stroke="#000000" style="-webkit-tap-highlight-color: rgba(0, 0, 0, 0); stroke-linecap: round; stroke-linejoin: round; stroke-width: 5;" /><path d="M783.38,304.85L781.57,304.85L777.95,304.85L777.95,306.66L777.95,308.47L777.95,313.89L777.95,321.13L779.76,328.37L779.76,335.6L781.57,342.84L781.57,348.27L781.57,351.89L781.57,355.51L781.57,357.31L779.76,357.31L777.95,355.51L774.33,353.7L768.9,351.89L759.86,348.27L750.81,348.27L741.77,346.46L734.53,346.46L730.91,346.46L725.48,348.27L721.87,351.89L718.25,353.7L716.44,357.31L716.44,359.12L716.44,360.93L718.25,360.93L721.87,359.12" fill="none" stroke="#000000" style="-webkit-tap-highlight-color: rgba(0, 0, 0, 0); stroke-linecap: round; stroke-linejoin: round; stroke-width: 5;" /><path d="M846.7,482.15L844.89,480.34L843.08,478.53L841.27,478.53L841.27,476.72L841.27,474.91L839.46,473.1L837.65,469.48L832.23,467.67L824.99,465.87L815.94,465.87L805.09,465.87L797.85,469.48L790.61,473.1L787,476.72L783.38,480.34L781.57,483.96L781.57,487.58L781.57,489.39L785.19,493L790.61,494.81L797.85,498.43L806.9,502.05L815.94,505.67L824.99,507.48L834.04,509.29L839.46,509.29L844.89,509.29L846.7,507.48L848.51,503.86L850.32,498.43L850.32,491.19L848.51,482.15L841.27,471.29L828.61,462.25L814.13,456.82L803.28,456.82L801.47,458.63L797.85,462.25L792.42,474.91" fill="none" stroke="#000000" style="-webkit-tap-highlight-color: rgba(0, 0, 0, 0); stroke-linecap: round; stroke-linejoin: round; stroke-width: 5;" /><path d="M821.37,154.69L821.37,152.88L823.18,151.07L823.18,149.26L823.18,147.45L821.37,147.45L815.94,147.45L810.52,149.26L803.28,149.26L792.42,149.26L783.38,147.45L774.33,147.45L767.1,149.26L761.67,149.26L756.24,151.07L752.62,152.88L747.19,154.69L741.77,158.3L738.15,161.92L734.53,167.35L730.91,170.97L729.1,176.4L729.1,181.82L730.91,185.44L734.53,189.06L739.96,194.49L745.39,198.11L750.81,201.72L759.86,205.34L768.9,208.96L777.95,212.58L785.19,214.39L794.23,214.39L801.47,214.39L812.33,208.96L824.99,205.34L835.84,199.92L843.08,196.3L850.32,190.87L853.94,187.25L855.75,183.63L857.55,178.2L857.55,176.4L857.55,172.78L857.55,169.16L852.13,163.73L843.08,158.3L830.42,152.88L815.94,147.45L803.28,145.64L797.85,145.64L792.42,149.26L787,152.88L781.57,154.69L777.95,158.3L777.95,160.11" fill="none" stroke="#000000" style="-webkit-tap-highlight-color: rgba(0, 0, 0, 0); stroke-linecap: round; stroke-linejoin: round; stroke-width: 5;" /><path d="M282.23,118.5L280.42,118.5L276.81,118.5L276.81,116.69L276.81,113.07L275,111.27L273.19,111.27L275,111.27L278.61,107.65L285.85,105.84L296.71,102.22L309.37,100.41L322.04,100.41L332.89,100.41L343.75,100.41L354.6,102.22L365.46,102.22L376.31,104.03L383.55,105.84L390.78,107.65L399.83,109.46L408.88,111.27L419.73,111.27L430.59,111.27L439.63,113.07L450.49,113.07L459.53,114.88L466.77,116.69L475.82,116.69L488.48,118.5L497.53,118.5L506.57,120.31L515.62,120.31L524.66,120.31L531.9,120.31L540.95,120.31L549.99,122.12L559.04,122.12L568.08,122.12L577.13,122.12L586.18,122.12L597.03,120.31L609.7,120.31L622.36,120.31L636.83,118.5L649.5,118.5L660.35,118.5L673.02,118.5L683.87,118.5L694.73,118.5L705.58,118.5L716.44,120.31L725.48,122.12L736.34,122.12L743.58,122.12L752.62,122.12L759.86,122.12L768.9,120.31L776.14,120.31L783.38,118.5L792.42,118.5L799.66,118.5L806.9,118.5L814.13,118.5L821.37,118.5L828.61,120.31L835.84,122.12L841.27,123.93L844.89,127.55L850.32,129.36L855.75,129.36L859.36,129.36L864.79,131.17L870.22,131.17L873.84,132.98L877.46,132.98L882.88,132.98L886.5,132.98L891.93,132.98L899.17,132.98L904.59,132.98L911.83,132.98L919.07,132.98L926.3,132.98L931.73,132.98L935.35,132.98L938.97,134.78L942.59,134.78L946.2,136.59L951.63,138.4L958.87,140.21L966.11,142.02L973.34,143.83L980.58,145.64L986.01,147.45L993.24,149.26L996.86,151.07L1000.48,152.88L1005.91,156.49L1011.34,158.3L1016.76,161.92L1022.19,163.73" fill="none" stroke="#000000" style="-webkit-tap-highlight-color: rgba(0, 0, 0, 0); stroke-linecap: round; stroke-linejoin: round; stroke-width: 5;" /><path d="M238.81,143.83L240.62,142.02L242.43,142.02L244.24,142.02L244.24,140.21L246.05,140.21L246.05,138.4L244.24,138.4L242.43,138.4L240.62,138.4L237,136.59L233.39,136.59L226.15,136.59L217.1,134.78L204.44,134.78L193.58,134.78L184.54,132.98L177.3,132.98L171.87,132.98L166.45,134.78L159.21,136.59L151.97,138.4L144.73,140.21L133.88,142.02L124.83,143.83L115.79,145.64L104.93,147.45L95.89,151.07L86.84,152.88L77.8,154.69L68.75,154.69L61.51,154.69L54.28,154.69L48.85,156.49L45.23,156.49L41.61,158.3L36.18,160.11L32.57,160.11L27.14,161.92L21.71,163.73L16.28,165.54L10.86,167.35L7.24,170.97L1.81,172.78" fill="none" stroke="#000000" style="-webkit-tap-highlight-color: rgba(0, 0, 0, 0); stroke-linecap: round; stroke-linejoin: round; stroke-width: 5;" /><path d="M12.66,129.36L10.86,127.55L9.05,127.55L9.05,125.74L7.24,125.74L7.24,123.93L9.05,122.12L14.47,120.31L19.9,118.5L30.76,116.69L45.23,116.69L61.51,114.88L74.18,114.88L83.22,114.88L92.27,116.69L103.12,116.69L115.79,118.5L126.64,118.5L139.31,118.5L151.97,116.69L164.64,116.69L175.49,114.88L186.35,111.27L197.2,109.46L204.44,104.03L211.67,100.41L222.53,94.98L233.39,91.36L242.43,87.75L249.67,87.75L256.9,85.94L262.33,84.13L265.95,80.51L269.57,76.89L271.38,73.27L273.19,69.65L276.81,64.23L276.81,58.8L276.81,53.37L273.19,47.94L271.38,44.33L267.76,42.52L265.95,42.52L264.14,42.52L258.71,42.52L251.48,42.52L240.62,46.13L231.58,47.94L220.72,51.56L213.48,53.37L206.25,55.18L200.82,55.18L197.2,56.99L191.77,56.99L186.35,56.99L182.73,55.18L177.3,55.18L173.68,53.37L171.87,53.37L168.25,51.56L164.64,51.56L161.02,49.75L157.4,49.75L155.59,47.94L153.78,46.13L155.59,44.33L157.4,42.52L161.02,40.71L166.45,38.9L173.68,37.09L180.92,35.28L188.16,35.28L195.39,35.28L202.63,35.28L211.67,35.28L220.72,35.28L227.96,37.09L235.19,35.28L240.62,33.47L246.05,33.47L249.67,31.66L256.9,31.66L262.33,31.66L267.76,31.66L275,31.66L280.42,31.66L285.85,31.66L291.28,31.66L296.71,31.66L302.13,31.66L305.75,31.66L309.37,33.47L312.99,33.47L316.61,33.47L318.42,35.28L320.23,35.28L320.23,37.09L320.23,38.9L320.23,40.71L318.42,42.52L318.42,44.33L316.61,46.13L316.61,49.75L314.8,53.37L314.8,58.8L312.99,64.23L311.18,69.65L309.37,75.08L307.56,80.51L307.56,84.13L305.75,87.75L305.75,93.17L305.75,96.79L305.75,98.6L305.75,102.22L307.56,104.03" fill="none" stroke="#000000" style="-webkit-tap-highlight-color: rgba(0, 0, 0, 0); stroke-linecap: round; stroke-linejoin: round; stroke-width: 5;" /><path d="M379.93,42.52L378.12,42.52L376.31,42.52L374.5,44.33L374.5,46.13L374.5,49.75L374.5,55.18L374.5,60.61L376.31,67.84L376.31,69.65L378.12,78.7L378.12,85.94L379.93,94.98L378.12,102.22L376.31,105.84L376.31,102.22L376.31,100.41" fill="none" stroke="#000000" style="-webkit-tap-highlight-color: rgba(0, 0, 0, 0); stroke-linecap: round; stroke-linejoin: round; stroke-width: 5;" /><path d="M381.74,44.33L379.93,42.52L378.12,42.52L378.12,40.71L379.93,40.71L381.74,38.9L383.55,37.09L387.17,33.47L390.78,31.66L394.4,28.04L399.83,24.42L403.45,22.61L408.88,20.81L412.49,20.81L416.11,19L421.54,19L423.35,19L426.97,19L430.59,19L436.01,20.81L439.63,20.81L445.06,22.61L448.68,24.42L452.3,26.23L454.11,28.04L455.92,29.85L457.72,35.28L457.72,40.71L457.72,46.13L457.72,53.37L457.72,58.8L459.53,62.42L461.34,67.84L461.34,71.46L461.34,75.08L461.34,78.7L461.34,82.32L461.34,84.13L461.34,80.51L461.34,76.89" fill="none" stroke="#000000" style="-webkit-tap-highlight-color: rgba(0, 0, 0, 0); stroke-linecap: round; stroke-linejoin: round; stroke-width: 5;" /><path d="M504.76,8.14L504.76,6.33L504.76,4.52L502.95,4.52L502.95,6.33L502.95,9.95L502.95,13.57L502.95,19L502.95,26.23L502.95,35.28L502.95,42.52L501.14,49.75L499.34,53.37L499.34,55.18" fill="none" stroke="#000000" style="-webkit-tap-highlight-color: rgba(0, 0, 0, 0); stroke-linecap: round; stroke-linejoin: round; stroke-width: 5;" /><path d="M560.85,19L562.66,17.19L562.66,15.38L564.47,15.38L564.47,13.57L566.28,11.76L566.28,8.14L566.28,6.33L566.28,4.52L566.28,2.71L564.47,2.71L560.85,4.52L557.23,6.33L553.61,9.95L548.18,15.38L544.57,20.81L540.95,24.42L537.33,28.04L535.52,29.85L531.9,33.47L528.28,37.09L526.47,38.9L522.86,40.71L521.05,44.33L519.24,46.13L519.24,47.94L517.43,49.75L517.43,51.56L515.62,53.37L513.81,55.18L512,56.99L510.19,58.8L506.57,62.42L502.95,64.23L499.34,66.04L497.53,67.84L493.91,69.65L492.1,71.46L488.48,73.27L484.86,75.08L481.24,76.89L477.63,78.7L474.01,80.51L470.39,80.51L466.77,82.32L461.34,84.13L457.72,85.94L454.11,87.75L450.49,91.36L448.68,94.98L446.87,102.22L443.25,107.65L441.44,113.07L441.44,114.88L439.63,118.5L437.82,120.31L437.82,122.12" fill="none" stroke="#000000" style="-webkit-tap-highlight-color: rgba(0, 0, 0, 0); stroke-linecap: round; stroke-linejoin: round; stroke-width: 5;" /><path d="M253.29,161.92L253.29,158.3L253.29,156.49L253.29,154.69L253.29,152.88L251.48,152.88L249.67,156.49L246.05,160.11L246.05,163.73L244.24,167.35L244.24,169.16L244.24,170.97L244.24,172.78L244.24,174.59L244.24,178.2L244.24,181.82L244.24,185.44L244.24,190.87L246.05,194.49L246.05,196.3L246.05,199.92L246.05,203.53L246.05,208.96L246.05,212.58L247.86,216.2L247.86,225.24L249.67,230.67L249.67,237.91L251.48,245.14L251.48,252.38L253.29,259.62L253.29,268.66L253.29,275.9L255.1,284.95L255.1,293.99L255.1,299.42L256.9,306.66L256.9,312.08L256.9,319.32L256.9,324.75L256.9,331.99L256.9,337.41L256.9,342.84L256.9,350.08L255.1,357.31L255.1,366.36L255.1,373.6L255.1,380.83L253.29,386.26L253.29,393.5L253.29,398.93L253.29,406.16L255.1,418.83L256.9,426.06L258.71,433.3L258.71,442.35L260.52,449.58L260.52,456.82L260.52,464.06L260.52,471.29L260.52,476.72L260.52,482.15L262.33,487.58L262.33,494.81L262.33,498.43L262.33,503.86L262.33,509.29L262.33,512.9L262.33,516.52L262.33,520.14L262.33,523.76L262.33,529.19L262.33,532.81L262.33,538.23L262.33,543.66L262.33,547.28L260.52,552.71L260.52,558.13L258.71,563.56L258.71,568.99L258.71,572.61L258.71,576.23L260.52,576.23L260.52,578.04L262.33,576.23L260.52,576.23" fill="none" stroke="#000000" style="-webkit-tap-highlight-color: rgba(0, 0, 0, 0); stroke-linecap: round; stroke-linejoin: round; stroke-width: 5;" /><path d="M233.39,301.23L231.58,299.42L229.77,297.61L227.96,297.61L226.15,297.61L224.34,299.42L222.53,303.04L217.1,304.85L211.67,308.47L204.44,312.08L199.01,313.89L193.58,313.89L191.77,315.7L188.16,317.51L186.35,321.13L184.54,324.75L182.73,330.18L179.11,335.6L173.68,342.84L170.06,348.27L166.45,353.7L162.83,359.12L161.02,364.55L159.21,369.98L159.21,375.41L159.21,380.83L157.4,386.26L157.4,389.88L157.4,395.31L157.4,398.93L157.4,402.54L157.4,406.16L157.4,409.78L155.59,413.4L151.97,418.83L148.35,422.45L144.73,426.06L141.12,429.68L135.69,435.11L130.26,440.54L124.83,444.16L121.22,447.77L119.41,451.39L115.79,455.01L112.17,456.82L108.55,460.44L104.93,462.25L101.31,464.06L97.7,467.67L94.08,469.48L90.46,473.1L88.65,474.91L85.03,476.72L81.41,478.53L77.8,480.34L74.18,482.15L70.56,483.96L66.94,485.77L63.32,487.58L57.89,491.19L54.28,493L50.66,494.81L47.04,498.43L43.42,502.05L39.8,505.67L36.18,509.29L34.37,511.1L30.76,514.71L27.14,518.33L23.52,521.95L19.9,525.57L18.09,529.19L14.47,532.81L12.66,536.42L12.66,540.04L10.86,543.66L10.86,547.28L10.86,550.9L10.86,556.33L9.05,561.75L7.24,568.99L5.43,574.42L5.43,578.04L5.43,579.84L5.43,581.65" fill="none" stroke="#000000" style="-webkit-tap-highlight-color: rgba(0, 0, 0, 0); stroke-linecap: round; stroke-linejoin: round; stroke-width: 5;" /><path d="M5.43,626.88L3.62,625.07L1.81,623.27L0,623.27" fill="none" stroke="#000000" style="-webkit-tap-highlight-color: rgba(0, 0, 0, 0); stroke-linecap: round; stroke-linejoin: round; stroke-width: 5;" /><path d="M0,619.65L3.62,621.46L9.05,623.27L14.47,625.07L21.71,626.88L32.57,626.88L41.61,626.88L48.85,626.88L54.28,626.88L59.7,626.88L63.32,626.88L66.94,628.69L68.75,628.69L68.75,630.5" fill="none" stroke="#000000" style="-webkit-tap-highlight-color: rgba(0, 0, 0, 0); stroke-linecap: round; stroke-linejoin: round; stroke-width: 5;" /><path d="M77.8,606.98L77.8,608.79L77.8,610.6L75.99,610.6L75.99,612.41L75.99,616.03L77.8,621.46L79.6,628.69L83.22,637.74L86.84,646.78L88.65,655.83L92.27,664.88L92.27,672.11L94.08,681.16L95.89,686.59L99.51,692.01L101.31,695.63L103.12,699.25L103.12,701.06L103.12,702.87L101.31,702.87L99.51,704.68L99.51,706.49" fill="none" stroke="#000000" style="-webkit-tap-highlight-color: rgba(0, 0, 0, 0); stroke-linecap: round; stroke-linejoin: round; stroke-width: 5;" /><path d="M14.47,682.97L12.66,682.97L9.05,686.59L5.43,688.4L3.62,690.2L1.81,692.01L3.62,690.2L9.05,686.59L18.09,679.35L30.76,670.3L45.23,657.64L56.08,648.59L61.51,643.17L61.51,641.36" fill="none" stroke="#000000" style="-webkit-tap-highlight-color: rgba(0, 0, 0, 0); stroke-linecap: round; stroke-linejoin: round; stroke-width: 5;" /><path d="M128.45,702.87L128.45,701.06L128.45,699.25L132.07,697.44L135.69,695.63L141.12,695.63L146.54,695.63L151.97,695.63L157.4,697.44L162.83,695.63L170.06,692.01L177.3,686.59L184.54,684.78L189.96,681.16L197.2,679.35L202.63,677.54L209.87,675.73L217.1,675.73L224.34,673.92L233.39,672.11L240.62,670.3L247.86,668.49L255.1,666.69L258.71,664.88L262.33,663.07L265.95,661.26L271.38,661.26L276.81,663.07L280.42,664.88L284.04,668.49L285.85,670.3L287.66,673.92L287.66,675.73L287.66,677.54L289.47,677.54L291.28,679.35L293.09,679.35L294.9,679.35L296.71,679.35L298.52,679.35L300.33,677.54L302.13,677.54L303.94,677.54L305.75,677.54L307.56,677.54L311.18,679.35L314.8,679.35L318.42,681.16L323.84,681.16L327.46,681.16L332.89,681.16L338.32,681.16L343.75,681.16L349.17,682.97L354.6,682.97L360.03,682.97L363.65,682.97L369.07,684.78L372.69,684.78L376.31,686.59L379.93,688.4L383.55,690.2L385.36,692.01L388.98,693.82L392.59,693.82L396.21,695.63L401.64,695.63L405.26,697.44L410.69,699.25L414.3,701.06L417.92,702.87L421.54,704.68L423.35,708.3L425.16,710.11L428.78,713.72L430.59,715.53L432.4,717.34L432.4,719.15L434.2,722.77L434.2,724.58L436.01,726.39L432.4,726.39L430.59,726.39L425.16,726.39L419.73,726.39L414.3,726.39L407.07,724.58L399.83,722.77L392.59,720.96L387.17,720.96L381.74,719.15L372.69,719.15L365.46,719.15L358.22,719.15L350.98,720.96L345.55,720.96L338.32,720.96L331.08,720.96L325.65,720.96L316.61,719.15L309.37,719.15L300.33,717.34L291.28,715.53L282.23,713.72L276.81,711.92L271.38,710.11L269.57,708.3L267.76,706.49L264.14,704.68L260.52,702.87L255.1,699.25L251.48,697.44L247.86,697.44L246.05,697.44L242.43,697.44L240.62,699.25L237,701.06L235.19,704.68L231.58,706.49L227.96,708.3L224.34,711.92L222.53,713.72L218.91,717.34L217.1,719.15L213.48,720.96L209.87,720.96L206.25,722.77L202.63,722.77L199.01,722.77L195.39,724.58L191.77,724.58L188.16,724.58L184.54,724.58L180.92,724.58L175.49,724.58L170.06,724.58L164.64,724.58L161.02,722.77L157.4,722.77L155.59,720.96L153.78,720.96L151.97,720.96L150.16,719.15L144.73,717.34L139.31,715.53L133.88,715.53L132.07,713.72L135.69,713.72L144.73,713.72L148.35,713.72" fill="none" stroke="#000000" style="-webkit-tap-highlight-color: rgba(0, 0, 0, 0); stroke-linecap: round; stroke-linejoin: round; stroke-width: 5;" /><path d="M512,256L510.19,254.19L510.19,252.38L508.38,252.38L506.57,250.57L504.76,250.57L501.14,248.76L497.53,246.95L492.1,246.95L488.48,246.95L483.05,246.95L479.43,246.95L477.63,246.95L474.01,246.95L470.39,248.76L466.77,248.76L463.15,248.76L457.72,248.76L452.3,250.57L448.68,250.57L445.06,252.38L441.44,254.19L436.01,257.81L434.2,259.62L430.59,263.24L426.97,265.05L425.16,268.66L423.35,272.28L419.73,275.9L417.92,281.33L416.11,284.95L414.3,288.57L412.49,293.99L410.69,297.61L410.69,301.23L410.69,304.85L410.69,308.47L408.88,312.08L408.88,317.51L408.88,322.94L410.69,328.37L410.69,331.99L410.69,337.41L408.88,342.84L408.88,348.27L408.88,353.7L408.88,359.12L408.88,366.36L410.69,373.6L412.49,380.83L412.49,386.26L414.3,393.5L414.3,398.93L414.3,406.16L416.11,413.4L416.11,422.45L416.11,429.68L416.11,436.92L416.11,442.35L414.3,449.58L414.3,456.82L412.49,464.06L412.49,471.29L410.69,480.34L410.69,485.77L408.88,491.19L408.88,496.62L408.88,502.05L408.88,505.67L408.88,511.1L408.88,516.52L408.88,520.14L408.88,523.76L408.88,529.19L408.88,531L408.88,534.61L408.88,536.42L408.88,538.23L408.88,540.04L408.88,541.85L408.88,543.66L408.88,545.47" fill="none" stroke="#000000" style="-webkit-tap-highlight-color: rgba(0, 0, 0, 0); stroke-linecap: round; stroke-linejoin: round; stroke-width: 5;" /><path d="M284.04,393.5L282.23,395.31L280.42,395.31L280.42,397.12L278.61,397.12L276.81,398.93L276.81,400.73L276.81,402.54L276.81,404.35L276.81,407.97L276.81,411.59L276.81,417.02L276.81,424.25L276.81,431.49L276.81,438.73L276.81,444.16L276.81,451.39L276.81,458.63L276.81,464.06L276.81,469.48L278.61,476.72L280.42,482.15L280.42,485.77L282.23,489.39L282.23,491.19L282.23,494.81L282.23,498.43L282.23,502.05L282.23,507.48L282.23,512.9L282.23,518.33L282.23,523.76L282.23,529.19L282.23,534.61L282.23,538.23L282.23,541.85L282.23,543.66L282.23,545.47" fill="none" stroke="#000000" style="-webkit-tap-highlight-color: rgba(0, 0, 0, 0); stroke-linecap: round; stroke-linejoin: round; stroke-width: 5;" /><path d="M282.23,379.02L280.42,379.02L278.61,380.83L278.61,382.64L276.81,384.45L276.81,380.83L276.81,377.22L276.81,373.6L276.81,366.36L276.81,359.12L276.81,351.89L276.81,346.46L278.61,341.03L280.42,335.6L280.42,330.18L282.23,324.75L282.23,319.32L282.23,315.7L282.23,312.08L282.23,306.66L282.23,301.23L282.23,293.99L284.04,288.57L285.85,283.14L287.66,277.71L291.28,272.28L293.09,266.86L296.71,259.62L298.52,254.19L302.13,248.76L305.75,241.53L309.37,234.29L314.8,228.86L318.42,223.43L323.84,216.2L327.46,210.77L332.89,205.34L336.51,199.92L341.94,196.3L347.36,192.68L350.98,189.06L354.6,187.25L358.22,183.63L363.65,180.01L369.07,176.4L376.31,172.78L381.74,170.97L387.17,169.16L392.59,167.35L396.21,165.54L399.83,165.54L403.45,165.54L405.26,165.54L408.88,167.35L414.3,169.16L417.92,170.97L423.35,170.97L426.97,172.78L430.59,174.59L434.2,178.2L437.82,180.01L441.44,181.82L445.06,183.63L450.49,185.44L454.11,187.25L457.72,189.06L461.34,190.87L464.96,192.68L468.58,194.49L472.2,194.49L475.82,196.3L479.43,198.11L481.24,199.92L484.86,199.92L486.67,199.92L488.48,201.72L490.29,201.72L493.91,203.53L495.72,205.34L497.53,205.34L501.14,207.15L504.76,208.96L506.57,208.96L508.38,210.77L512,210.77L513.81,210.77L517.43,210.77L519.24,212.58L521.05,212.58L522.86,214.39L524.66,216.2L526.47,218.01L526.47,219.82L526.47,221.63L526.47,223.43L526.47,225.24L528.28,227.05L528.28,228.86L530.09,228.86L530.09,230.67L531.9,232.48L535.52,234.29L537.33,236.1L540.95,237.91L544.57,239.72L546.37,241.53L548.18,245.14L549.99,246.95L551.8,248.76L551.8,250.57L551.8,254.19L549.99,257.81L549.99,263.24L549.99,265.05L549.99,266.86L549.99,268.66L551.8,270.47L551.8,272.28L553.61,272.28L553.61,270.47" fill="none" stroke="#000000" style="-webkit-tap-highlight-color: rgba(0, 0, 0, 0); stroke-linecap: round; stroke-linejoin: round; stroke-width: 5;" /><path d="M519.24,270.47L517.43,268.66L515.62,268.66L513.81,268.66L513.81,270.47L513.81,272.28L513.81,275.9L513.81,279.52L515.62,286.76L515.62,293.99L517.43,303.04L517.43,310.28L517.43,319.32L517.43,326.56L517.43,331.99L517.43,337.41L517.43,342.84L517.43,346.46L517.43,351.89L519.24,355.51L519.24,360.93L521.05,364.55L521.05,369.98L521.05,375.41L522.86,380.83L522.86,386.26L522.86,393.5L522.86,400.73L521.05,407.97L519.24,415.21L519.24,422.45L517.43,427.87L517.43,433.3L517.43,440.54L517.43,444.16L517.43,449.58L517.43,453.2L517.43,456.82L517.43,458.63L517.43,462.25L517.43,467.67L517.43,471.29L517.43,476.72L517.43,482.15L517.43,487.58L517.43,491.19L515.62,498.43L515.62,503.86L513.81,511.1L513.81,516.52L513.81,521.95L513.81,527.38L515.62,531L517.43,536.42L519.24,541.85L519.24,547.28L521.05,550.9L521.05,554.52L521.05,558.13L522.86,563.56L522.86,567.18L522.86,572.61L522.86,576.23L522.86,578.04L521.05,574.42L519.24,565.37" fill="none" stroke="#000000" style="-webkit-tap-highlight-color: rgba(0, 0, 0, 0); stroke-linecap: round; stroke-linejoin: round; stroke-width: 5;" /><path d="M551.8,268.66L551.8,265.05L551.8,263.24L551.8,265.05L551.8,266.86L551.8,274.09L551.8,283.14L553.61,295.8L553.61,312.08L555.42,326.56L555.42,339.22L555.42,348.27L555.42,355.51L555.42,364.55L557.23,371.79L557.23,379.02L557.23,386.26L557.23,391.69L557.23,397.12L557.23,404.35L557.23,409.78L555.42,417.02L555.42,424.25L553.61,431.49L553.61,438.73L553.61,444.16L553.61,449.58L553.61,456.82L553.61,465.87L553.61,471.29L553.61,478.53L553.61,483.96L553.61,489.39L553.61,493L553.61,500.24L553.61,505.67L553.61,511.1L553.61,516.52L553.61,521.95L553.61,525.57L553.61,529.19L551.8,532.81L551.8,536.42L551.8,540.04L551.8,543.66L551.8,547.28L551.8,550.9L553.61,552.71L553.61,556.33L555.42,559.94L555.42,561.75L553.61,561.75L549.99,556.33L548.18,554.52" fill="none" stroke="#000000" style="-webkit-tap-highlight-color: rgba(0, 0, 0, 0); stroke-linecap: round; stroke-linejoin: round; stroke-width: 5;" /><path d="M338.32,364.55L336.51,364.55L332.89,362.74L331.08,362.74L329.27,362.74L327.46,364.55L325.65,366.36L323.84,371.79L322.04,377.22L320.23,382.64L318.42,388.07L318.42,393.5L318.42,398.93L320.23,404.35L323.84,407.97L329.27,411.59L334.7,413.4L340.13,415.21L343.75,417.02L345.55,417.02L347.36,415.21L347.36,413.4L347.36,409.78L347.36,404.35L347.36,398.93L347.36,391.69L347.36,386.26L347.36,380.83L347.36,375.41L345.55,373.6L343.75,371.79L340.13,371.79L332.89,371.79L327.46,373.6L322.04,377.22L318.42,384.45L318.42,388.07" fill="none" stroke="#000000" style="-webkit-tap-highlight-color: rgba(0, 0, 0, 0); stroke-linecap: round; stroke-linejoin: round; stroke-width: 5;" /><path d="M436.01,541.85L432.4,540.04L428.78,540.04L425.16,540.04L423.35,540.04L421.54,540.04L419.73,540.04L419.73,541.85L423.35,545.47L430.59,547.28L437.82,550.9L446.87,552.71L454.11,554.52L459.53,556.33L466.77,558.13L472.2,559.94L477.63,563.56L483.05,565.37L486.67,568.99L492.1,572.61L493.91,574.42L497.53,576.23L499.34,579.84L501.14,581.65L502.95,581.65L499.34,579.84L497.53,576.23" fill="none" stroke="#000000" style="-webkit-tap-highlight-color: rgba(0, 0, 0, 0); stroke-linecap: round; stroke-linejoin: round; stroke-width: 5;" /><path d="M455.92,520.14L452.3,523.76L450.49,525.57L448.68,527.38L446.87,529.19L446.87,527.38L448.68,525.57L450.49,521.95L452.3,516.52L454.11,511.1L455.92,503.86L457.72,494.81L459.53,487.58L461.34,478.53L461.34,471.29L461.34,464.06L461.34,458.63L459.53,455.01L459.53,451.39L459.53,445.96L459.53,440.54L459.53,435.11L459.53,429.68L459.53,426.06L459.53,424.25L459.53,422.45L461.34,422.45L463.15,422.45L466.77,420.64L472.2,420.64L477.63,420.64L484.86,420.64L492.1,420.64L497.53,422.45L502.95,422.45L506.57,422.45L510.19,422.45L513.81,422.45L517.43,424.25L513.81,426.06L510.19,426.06L506.57,427.87" fill="none" stroke="#000000" style="-webkit-tap-highlight-color: rgba(0, 0, 0, 0); stroke-linecap: round; stroke-linejoin: round; stroke-width: 5;" /><path d="M470.39,312.08L468.58,313.89L466.77,315.7L466.77,317.51L466.77,319.32L464.96,319.32L463.15,321.13L461.34,322.94L461.34,324.75L459.53,326.56L457.72,330.18L457.72,333.8L455.92,341.03L454.11,346.46L454.11,353.7L454.11,359.12L454.11,360.93L455.92,355.51L461.34,344.65" fill="none" stroke="#000000" style="-webkit-tap-highlight-color: rgba(0, 0, 0, 0); stroke-linecap: round; stroke-linejoin: round; stroke-width: 5;" /><path d="M472.2,313.89L472.2,315.7L470.39,319.32L470.39,321.13L470.39,319.32L472.2,315.7L474.01,312.08L475.82,308.47L479.43,303.04L481.24,297.61L484.86,292.18L488.48,288.57L490.29,286.76L493.91,283.14L495.72,281.33L497.53,279.52L499.34,277.71L501.14,274.09L502.95,270.47L502.95,268.66L504.76,266.86L504.76,265.05L506.57,263.24L508.38,261.43L510.19,259.62" fill="none" stroke="#000000" style="-webkit-tap-highlight-color: rgba(0, 0, 0, 0); stroke-linecap: round; stroke-linejoin: round; stroke-width: 5;" /><path d="M275,583.46L273.19,583.46L273.19,581.65L271.38,581.65L273.19,579.84L276.81,576.23L282.23,574.42L287.66,570.8L294.9,570.8L302.13,572.61L307.56,576.23L312.99,579.84L320.23,585.27L323.84,588.89L329.27,592.51L334.7,597.94L340.13,601.55L345.55,605.17L350.98,606.98L356.41,608.79L363.65,610.6L370.88,612.41L376.31,614.22L383.55,616.03L388.98,617.84L394.4,619.65L399.83,619.65L405.26,621.46L410.69,625.07L414.3,626.88L417.92,628.69L421.54,630.5L425.16,632.31L428.78,634.12L430.59,635.93L436.01,635.93L439.63,637.74L445.06,637.74L450.49,639.55L454.11,641.36L455.92,641.36L459.53,643.17L461.34,643.17L464.96,643.17L466.77,643.17L468.58,644.98L470.39,646.78L472.2,648.59L470.39,648.59L466.77,648.59L464.96,648.59" fill="none" stroke="#000000" style="-webkit-tap-highlight-color: rgba(0, 0, 0, 0); stroke-linecap: round; stroke-linejoin: round; stroke-width: 5;" /><path d="M273.19,587.08L271.38,585.27L271.38,583.46L271.38,581.65L271.38,579.84L273.19,583.46L275,587.08L276.81,592.51L278.61,599.75L282.23,606.98L285.85,612.41L287.66,619.65L287.66,625.07L289.47,628.69L289.47,632.31L289.47,635.93L287.66,635.93L285.85,635.93L284.04,635.93L280.42,634.12L275,634.12L269.57,632.31L264.14,632.31L256.9,630.5L249.67,630.5L244.24,630.5L237,630.5L231.58,632.31L224.34,634.12L217.1,635.93L209.87,635.93L204.44,637.74L199.01,637.74L193.58,637.74L188.16,637.74L182.73,637.74L177.3,639.55L170.06,639.55L164.64,641.36L161.02,641.36L157.4,641.36L153.78,641.36L148.35,641.36L144.73,641.36L142.93,641.36L139.31,643.17L139.31,644.98L139.31,646.78L141.12,648.59L146.54,650.4L151.97,652.21L157.4,652.21L161.02,654.02L166.45,654.02L173.68,654.02L179.11,652.21L184.54,652.21L189.96,652.21L195.39,652.21L200.82,652.21L202.63,652.21L204.44,654.02L206.25,655.83L209.87,657.64L211.67,661.26L215.29,663.07L217.1,664.88L220.72,666.69L222.53,668.49L224.34,670.3L226.15,672.11L227.96,672.11" fill="none" stroke="#000000" style="-webkit-tap-highlight-color: rgba(0, 0, 0, 0); stroke-linecap: round; stroke-linejoin: round; stroke-width: 5;" /><path d="M296.71,621.46L294.9,621.46L291.28,623.27L287.66,625.07L287.66,628.69L287.66,630.5L287.66,632.31L289.47,634.12L294.9,634.12L302.13,635.93L312.99,637.74L323.84,637.74L334.7,639.55L341.94,641.36L349.17,643.17L356.41,644.98L363.65,648.59L369.07,652.21L374.5,655.83L379.93,659.45L385.36,663.07L388.98,664.88L394.4,668.49L399.83,672.11L405.26,673.92L412.49,675.73L417.92,677.54L421.54,679.35L426.97,681.16L430.59,684.78L436.01,686.59L439.63,688.4L443.25,692.01L446.87,693.82L450.49,697.44L452.3,697.44L455.92,699.25L459.53,701.06L463.15,702.87L464.96,704.68L466.77,706.49L466.77,708.3L466.77,706.49" fill="none" stroke="#000000" style="-webkit-tap-highlight-color: rgba(0, 0, 0, 0); stroke-linecap: round; stroke-linejoin: round; stroke-width: 5;" /><path d="M685.68,145.64" fill="none" stroke="#000000" style="-webkit-tap-highlight-color: rgba(0, 0, 0, 0); stroke-linecap: round; stroke-linejoin: round; stroke-width: 5;" /><path d="M9.05,2.71L1.81,2.71" fill="none" stroke="#000000" style="-webkit-tap-highlight-color: rgba(0, 0, 0, 0); stroke-linecap: round; stroke-linejoin: round; stroke-width: 5;" /><path d="M3.62,2.71L10.86,4.52L21.71,6.33L34.37,8.14L48.85,9.95L65.13,9.95L81.41,8.14L97.7,8.14L108.55,8.14L117.6,9.95L126.64,9.95L137.5,9.95L146.54,9.95L155.59,9.95L164.64,11.76L173.68,11.76L180.92,13.57L188.16,13.57L197.2,13.57L204.44,13.57L213.48,11.76L222.53,11.76L231.58,11.76L238.81,9.95L246.05,9.95L253.29,8.14L260.52,6.33L267.76,6.33L275,6.33L282.23,6.33L289.47,6.33L294.9,6.33L302.13,6.33L309.37,6.33L316.61,6.33L323.84,6.33L332.89,8.14L341.94,8.14L352.79,9.95L360.03,9.95L367.27,9.95L376.31,9.95L385.36,9.95L394.4,11.76L403.45,11.76L412.49,11.76L421.54,11.76L430.59,11.76L439.63,11.76L450.49,11.76L459.53,11.76L470.39,11.76L481.24,9.95L492.1,9.95L502.95,9.95L513.81,9.95L524.66,9.95L537.33,9.95L546.37,9.95L557.23,9.95L568.08,9.95L577.13,9.95L587.99,9.95L597.03,9.95L606.08,9.95L616.93,9.95L625.98,9.95L638.64,9.95L649.5,9.95L660.35,9.95L671.21,9.95L683.87,11.76L694.73,11.76L705.58,11.76L718.25,11.76L729.1,11.76L739.96,11.76L750.81,11.76L761.67,11.76L772.52,11.76L783.38,11.76L794.23,11.76L803.28,11.76L812.33,11.76L821.37,11.76L830.42,11.76L839.46,11.76L848.51,9.95L857.55,9.95L868.41,9.95L877.46,9.95L886.5,9.95L895.55,9.95L904.59,9.95L911.83,9.95L920.88,9.95L929.92,8.14L938.97,8.14L948.01,6.33L955.25,6.33L964.3,6.33L973.34,6.33L982.39,6.33L991.43,6.33L1000.48,6.33L1007.72,6.33L1016.76,6.33" fill="none" stroke="#000000" style="-webkit-tap-highlight-color: rgba(0, 0, 0, 0); stroke-linecap: round; stroke-linejoin: round; stroke-width: 5;" /></svg>