<?xml version="1.0" encoding="utf-8" ?>
<svg baseProfile="full" height="765" version="1.1" width="1024" xmlns="http://www.w3.org/2000/svg" xmlns:ev="http://www.w3.org/2001/xml-events" xmlns:xlink="http://www.w3.org/1999/xlink"><defs /><path d="M392.58,175.39L391.84,173.15L391.09,173.15L389.6,173.9L388.1,174.65L385.87,175.39L382.88,176.14L379.9,177.63L374.67,179.87L370.94,181.36L367.21,183.6L363.48,185.84L358.25,188.83L355.27,191.81L351.53,194.8L348.55,197.78L345.56,201.52L340.34,205.99L338.1,208.23L332.13,211.97L329.89,214.2L323.17,220.92L320.93,224.65L318.69,228.38L315.71,231.37L312.72,234.36L308.24,238.83L306.75,240.33L303.77,244.8L298.54,251.52L297.05,254.51L295.56,256.75L294.06,259.73L292.57,262.72L291.08,264.96L288.84,267.2L287.35,270.18L286.6,271.67L285.11,276.9L283.62,280.63L282.12,283.62L281.38,285.85L280.63,288.84L279.14,292.57L279.14,294.81L278.39,297.8L277.64,300.78L276.9,306.75L276.15,309.74L275.41,313.47L275.41,317.2L274.66,319.44L273.91,323.92L273.91,325.41L273.91,329.14L273.91,330.64L273.17,334.37L273.17,337.35L273.17,339.59L272.42,341.83L272.42,344.07L272.42,346.31L272.42,347.8L273.17,350.79L273.17,351.53L273.17,355.27L273.17,356.76L273.91,358.25L273.17,359.74L273.17,361.24L273.17,363.48L272.42,364.97L272.42,367.95L272.42,368.7L271.67,370.19L271.67,370.94L271.67,372.43L270.93,374.67L270.93,377.66L270.18,381.39L269.43,383.63L267.2,388.85L267.2,390.34L264.96,394.08L264.21,397.81L263.46,400.05L262.72,402.29L262.72,404.52L261.97,415.72L261.97,416.47L261.97,418.71L261.97,423.18L261.22,426.92L261.22,430.65L261.97,433.63L261.97,436.62L262.72,441.84L262.72,443.34L262.72,448.56L262.72,450.05L262.72,455.28L262.72,459.01L262.72,461.99L262.72,464.23L262.72,466.47L262.72,468.71L262.72,470.95L262.72,474.68L262.72,476.17L262.72,479.91L262.72,481.4L263.46,487.37L263.46,490.36L263.46,493.34L264.21,497.82L264.21,501.55L265.7,507.52L265.7,509.01L266.45,512.75L267.2,516.48L267.2,520.96" fill="none" stroke="#000000" style="-webkit-tap-highlight-color: rgba(0, 0, 0, 0); stroke-linecap: round; stroke-linejoin: round; stroke-width: 5;" /><path d="M391.84,173.15L394.08,172.41L396.31,170.92L399.3,170.17L402.29,168.68L406.02,167.93L410.5,167.93L414.23,167.93L420.2,167.93L420.94,167.93L425.42,170.17L429.9,171.66L432.14,172.41L435.13,173.15L438.11,174.65L440.35,175.39L442.59,176.89L446.32,179.13L447.07,179.13L450.8,180.62L451.55,181.36L454.53,183.6L456.02,185.1L457.52,186.59L459.01,188.08L459.76,189.57L461.25,190.32L461.25,191.07L463.49,192.56L463.49,193.31L466.47,196.29L468.71,197.78L470.2,200.02L472.44,201.52L474.68,203.01L477.67,205.25L478.41,205.99L479.91,207.49L482.15,208.23L486.62,208.98L488.86,209.73L491.1,210.47L493.34,211.97L494.83,212.71L497.82,214.2L498.57,214.95L500.8,216.44L501.55,217.19L503.79,220.17L504.54,220.92L505.28,221.67L506.03,223.16L506.78,223.16L509.76,227.64L510.51,228.38L512,229.88L512.75,231.37L514.24,233.61L514.99,235.1L515.73,237.34L516.48,240.33L517.97,241.82L518.72,244.8L518.72,245.55L518.72,250.03L518.72,252.27L518.72,255.25L518.72,257.49L518.72,261.22L518.72,264.21L518.72,267.94L518.72,273.17L517.97,274.66L517.22,282.87L517.22,286.6L517.97,288.84L517.97,291.08L517.97,294.06L517.97,298.54L517.97,300.03L517.22,303.77L517.22,306.01L517.22,311.98L517.22,314.96L516.48,317.95L516.48,321.68L515.73,325.41L514.99,331.38L514.99,332.87L514.24,336.61L514.24,338.1L514.24,344.07L514.24,347.8L514.24,350.04L514.24,353.03L514.24,356.01L513.49,360.49L513.49,361.98L513.49,367.21L513.49,368.7L512.75,375.42L512,379.15L512,382.88L512,388.1L512,393.33L512.75,400.05L512.75,402.29L513.49,409.75L513.49,411.99L513.49,421.69L513.49,426.92L512.75,444.08L512,445.57L511.25,450.05L511.25,454.53L510.51,461.25L510.51,464.23L509.76,474.68L509.76,479.91L509.76,485.13L510.51,490.36L510.51,494.83L510.51,500.8L510.51,503.04L510.51,509.76L510.51,512L510.51,520.21L510.51,523.94L509.76,527.67L509.76,531.41L509.01,535.14L508.27,538.87L508.27,541.11L508.27,544.09L508.27,546.33L508.27,550.81L507.52,553.05L507.52,556.03L507.52,557.53L507.52,559.77L507.52,562.01L507.52,563.5L507.52,564.24L508.27,564.99" fill="none" stroke="#000000" style="-webkit-tap-highlight-color: rgba(0, 0, 0, 0); stroke-linecap: round; stroke-linejoin: round; stroke-width: 5;" /><path d="M380.64,533.64L382.88,534.39L385.87,535.88L389.6,538.12L394.08,540.36L397.81,542.6L403.03,544.84L409.75,547.08L415.72,549.32L423.93,552.3L434.38,555.29L441.1,556.78L447.07,557.53L452.29,558.27L457.52,559.02L462.74,559.02L468.71,559.77L477.67,560.51L489.61,562.01L493.34,562.75L497.82,562.75L502.3,563.5L506.03,563.5L510.51,562.01" fill="none" stroke="#000000" style="-webkit-tap-highlight-color: rgba(0, 0, 0, 0); stroke-linecap: round; stroke-linejoin: round; stroke-width: 5;" /><path d="M515.73,270.93L516.48,269.43L517.97,269.43L518.72,269.43L519.46,269.43L519.46,268.69L519.46,267.94L518.72,267.94L517.22,268.69L516.48,268.69L514.99,270.18L513.49,271.67L512.75,272.42L512.75,271.67L512.75,270.93L512.75,270.18L512,269.43L511.25,267.94L510.51,265.7L509.76,264.21L507.52,262.72L504.54,260.48L502.3,258.99L500.8,258.24L498.57,257.49L497.07,256.75L493.34,257.49L492.59,257.49L489.61,256L488.12,255.25L482.15,253.76L479.91,253.01L476.92,253.76L474.68,253.76L472.44,253.76L469.46,253.01L467.22,253.01L463.49,252.27L462.74,252.27L459.01,252.27L457.52,252.27L453.04,253.01L450.05,253.76L449.31,253.76L445.57,256L444.08,256.75L440.35,258.99L438.86,260.48L436.62,262.72L435.13,264.21L432.89,266.45L429.9,269.43L429.15,270.18L427.66,272.42L426.92,274.66L425.42,279.88L424.68,282.12L423.93,284.36L422.44,286.6L421.69,288.09L420.2,291.08L420.2,292.57L419.45,297.05L419.45,298.54L417.96,303.02L417.21,305.26L417.21,308.24L417.21,310.48L417.21,312.72L417.21,316.45L417.21,317.95L416.47,320.93L416.47,323.92L415.72,328.4L415.72,331.38L415.72,333.62L415.72,336.61L414.97,339.59L414.97,344.07L414.97,346.31L414.23,351.53L414.23,355.27L412.73,360.49L412.73,364.22L411.99,367.21L411.99,370.19L411.24,373.18L411.24,378.4L411.24,380.64L410.5,384.37L410.5,389.6L410.5,391.84L410.5,398.55L410.5,402.29L410.5,406.02L410.5,409.75L411.24,414.23L411.24,419.45L411.24,423.93L411.24,434.38L411.24,438.11L411.24,441.84L411.99,444.83L411.99,447.81L411.99,450.8L411.99,454.53L411.99,459.01L411.99,460.5L411.24,467.22L411.24,470.2L411.24,473.94L410.5,476.92L410.5,479.91L409.75,484.38L409.75,487.37L409.75,492.59L409,494.83L407.51,500.06L407.51,502.3L406.76,505.28L406.02,508.27L406.02,510.51L406.02,513.49L406.02,514.99L406.02,518.72L406.76,520.21L406.76,522.45L407.51,526.93L407.51,528.42L406.76,529.91L406.76,530.66" fill="none" stroke="#000000" style="-webkit-tap-highlight-color: rgba(0, 0, 0, 0); stroke-linecap: round; stroke-linejoin: round; stroke-width: 5;" /><path d="M390.34,246.3" fill="none" stroke="#000000" style="-webkit-tap-highlight-color: rgba(0, 0, 0, 0); stroke-linecap: round; stroke-linejoin: round; stroke-width: 5;" /><path d="M391.09,244.06L390.34,247.04L389.6,249.28L389.6,253.01L389.6,258.99L389.6,260.48L388.85,267.94L388.85,270.18L388.1,282.87L387.36,291.08L388.1,298.54L388.1,306.01L389.6,314.22L390.34,322.43L390.34,332.13L391.09,341.08L391.84,351.53L393.33,368.7L393.33,376.91L394.08,383.63L394.08,391.09L394.82,397.81L395.57,405.27L395.57,411.99L395.57,422.44L396.31,425.42L397.06,435.87L397.81,445.57L397.81,451.55L398.55,456.77L398.55,462.74L398.55,467.22L397.81,471.7L397.81,478.41L396.31,483.64L395.57,487.37L394.08,493.34L393.33,497.82L392.58,500.8L391.84,505.28L391.09,509.01L390.34,513.49L390.34,517.22L389.6,521.7L388.85,524.69L387.36,532.15L386.61,535.14L386.61,537.38L386.61,540.36L386.61,541.11" fill="none" stroke="#000000" style="-webkit-tap-highlight-color: rgba(0, 0, 0, 0); stroke-linecap: round; stroke-linejoin: round; stroke-width: 5;" /><path d="M398.55,238.83L400.05,238.09L401.54,237.34L404.52,237.34L407.51,237.34L411.99,238.09L414.97,238.09L418.71,238.09L423.18,237.34L427.66,237.34L435.87,237.34L440.35,237.34L444.83,237.34L450.05,237.34L457.52,235.1L461.25,235.1L464.23,235.1L467.97,235.85L470.95,237.34L475.43,238.09L478.41,238.83L480.65,238.83L483.64,239.58L487.37,240.33L489.61,241.82L491.85,242.57L494.09,243.31L497.07,243.31L500.8,244.06L507.52,244.8L513.49,244.8L515.73,244.8L518.72,244.8L520.21,244.8" fill="none" stroke="#000000" style="-webkit-tap-highlight-color: rgba(0, 0, 0, 0); stroke-linecap: round; stroke-linejoin: round; stroke-width: 5;" /><path d="M339.59,369.45L337.35,366.46L335.86,365.71L335.86,364.97L335.11,365.71L333.62,367.95L332.87,369.45L329.89,375.42L327.65,379.15L326.16,390.34L326.9,396.31L327.65,398.55L329.14,400.79L332.13,406.76L332.87,407.51L338.1,411.24L340.34,410.5" fill="none" stroke="#000000" style="-webkit-tap-highlight-color: rgba(0, 0, 0, 0); stroke-linecap: round; stroke-linejoin: round; stroke-width: 5;" /><path d="M339.59,367.95L338.85,367.95L341.08,367.95L345.56,369.45L346.31,370.19L350.79,372.43L353.03,373.92L355.27,376.16L356.01,376.91L357.5,382.88L358.25,386.61L358.25,390.34L359,394.08L359,397.81L359,403.78L359.74,406.76L359.74,407.51L359.74,408.26" fill="none" stroke="#000000" style="-webkit-tap-highlight-color: rgba(0, 0, 0, 0); stroke-linecap: round; stroke-linejoin: round; stroke-width: 5;" /><path d="M336.61,409.75L338.85,410.5L342.58,410.5L344.07,409.75L349.29,407.51L351.53,406.76L357.5,402.29" fill="none" stroke="#000000" style="-webkit-tap-highlight-color: rgba(0, 0, 0, 0); stroke-linecap: round; stroke-linejoin: round; stroke-width: 5;" /><path d="M262.72,516.48L261.22,515.73L261.22,516.48L261.97,519.46L261.97,522.45L262.72,526.18L263.46,529.17L265.7,531.41L267.94,533.64L270.18,535.88L274.66,537.38L277.64,538.87L280.63,539.62L283.62,540.36L288.09,541.11L292.57,541.11L297.8,541.11L302.27,541.11L308.24,540.36L318.69,539.62L323.92,538.87L329.14,538.12L333.62,537.38L346.31,536.63L350.79,536.63L358.25,535.88L361.24,535.88L363.48,535.88L365.71,535.14L368.7,533.64L370.94,532.15L373.18,530.66L375.42,528.42L377.66,526.93" fill="none" stroke="#000000" style="-webkit-tap-highlight-color: rgba(0, 0, 0, 0); stroke-linecap: round; stroke-linejoin: round; stroke-width: 5;" /><path d="M465.73,421.69L464.98,419.45L464.98,418.71L467.22,418.71L470.2,419.45L473.19,421.69L477.67,423.18L482.89,424.68L488.12,426.17L496.33,426.92L498.57,426.92L505.28,426.17L506.03,426.17" fill="none" stroke="#000000" style="-webkit-tap-highlight-color: rgba(0, 0, 0, 0); stroke-linecap: round; stroke-linejoin: round; stroke-width: 5;" /><path d="M481.4,253.76L480.65,255.25L480.65,256L479.91,256.75L479.16,256.75L476.92,256.75L474.68,258.24L473.19,259.73L469.46,265.7L468.71,267.2L468.71,267.94L467.97,270.18L467.97,273.17L467.22,276.15L467.22,279.14L465.73,283.62L465.73,286.6L464.98,288.09L464.98,291.08L464.23,295.56L464.23,298.54L464.23,300.78L463.49,303.77L463.49,306.01L463.49,310.48L462.74,313.47L462.74,317.2L462.74,319.44L462.74,323.17L462.74,326.16L462.74,329.14L462.74,332.13L463.49,335.11L463.49,339.59L463.49,342.58L463.49,346.31L463.49,349.29L463.49,351.53L463.49,357.5L464.23,361.24L464.23,364.97L464.98,368.7L465.73,372.43L465.73,376.91L465.73,378.4L465.73,382.88L465.73,384.37L465.73,391.09L465.73,394.82L464.98,398.55L464.98,401.54L464.98,405.27L464.98,410.5L465.73,411.99L465.73,415.72L465.73,416.47L466.47,420.94L466.47,423.18L466.47,424.68L467.22,426.17L467.22,428.41L467.97,431.39L467.97,432.14L467.22,435.13L467.22,435.87L467.22,438.11L467.22,439.6L467.22,440.35L466.47,442.59L465.73,446.32L466.47,447.81L465.73,450.8L465.73,451.55L465.73,452.29L464.98,452.29L464.98,453.78L464.23,454.53L463.49,455.28L461.99,457.52L461.99,458.26L459.01,461.99L456.77,464.23L453.78,467.97L452.29,470.95L449.31,473.94L447.07,476.17L443.34,479.91L437.36,487.37L435.13,489.61L429.9,497.82L428.41,500.8L427.66,503.79L426.92,506.78L426.17,509.01L425.42,510.51L425.42,512" fill="none" stroke="#000000" style="-webkit-tap-highlight-color: rgba(0, 0, 0, 0); stroke-linecap: round; stroke-linejoin: round; stroke-width: 5;" /><path d="M445.57,485.88L445.57,486.62L445.57,488.12L445.57,489.61L446.32,491.85L447.07,494.09L447.81,499.31L447.81,502.3L448.56,504.54L448.56,506.03L449.31,509.76L450.8,511.25L451.55,512L452.29,512L453.78,512L456.77,512.75L459.76,512.75L461.25,512.75L468.71,512.75L472.44,512.75L475.43,512.75L479.16,513.49L481.4,514.24L484.38,514.99L486.62,515.73L490.36,516.48L491.1,516.48L495.58,517.97L497.82,518.72L499.31,519.46L501.55,519.46L503.79,520.21L506.78,519.46L509.76,518.72" fill="none" stroke="#000000" style="-webkit-tap-highlight-color: rgba(0, 0, 0, 0); stroke-linecap: round; stroke-linejoin: round; stroke-width: 5;" /><path d="M718.74,414.23L716.5,414.97L715.01,415.72L713.52,416.47L710.53,417.21L706.8,417.96L700.08,418.71L695.6,420.2L689.63,423.93L686.65,425.42L674.71,435.13L669.48,438.86L659.78,444.83L658.29,446.32L654.55,450.05L651.57,455.28L647.84,461.25L644.85,466.47L640.37,473.19L638.13,477.67L635.9,481.4L634.4,485.88L632.91,489.61L630.67,494.09L628.43,497.82L624.7,500.8L620.97,503.04L614.25,507.52L609.77,509.76L605.29,513.49L600.82,516.48L596.34,519.46L591.86,520.96L585.89,523.2L582.16,525.43L579.17,526.93L573.95,529.91L570.96,532.15L567.98,533.64L564.99,535.88L562.01,538.12L558.27,541.11L552.3,544.09L547.83,547.08L546.33,548.57L541.85,551.56L532.9,556.78L527.67,559.02L521.7,560.51L516.48,562.75L511.25,564.99L507.52,567.98L504.54,571.71L500.8,574.69L497.07,576.93L491.1,581.41L488.12,582.16L485.88,584.4L484.38,585.89L482.89,588.13L482.15,590.37L481.4,593.35L481.4,596.34L481.4,599.32L482.15,602.31L482.89,607.53L483.64,609.03L484.38,610.52L485.13,611.27L487.37,612.76L488.12,613.5L489.61,614.25L495.58,617.98L497.82,619.48L500.06,621.71L503.79,623.21" fill="none" stroke="#000000" style="-webkit-tap-highlight-color: rgba(0, 0, 0, 0); stroke-linecap: round; stroke-linejoin: round; stroke-width: 5;" /><path d="M507.52,629.18L507.52,628.43L509.01,627.69L515.73,626.94L519.46,626.94L523.2,626.94L527.67,626.94L532.15,627.69L537.38,629.18L542.6,630.67L547.83,632.16L553.8,633.66L559.77,635.9L573.2,640.37L580.66,643.36L587.38,647.09L594.1,650.08L615,657.54L621.71,660.52L635.15,667.99L641.87,671.72L650.82,674.71L661.27,678.44L671.72,681.42L681.42,685.15L690.38,688.89L698.59,691.87L706.8,694.86L722.47,700.08L730.68,702.32L738.15,703.81L744.86,706.05L751.58,709.04L763.52,713.52L768,714.26L780.69,717.25L784.42,718.74L797.85,724.71L803.83,727.7L810.54,731.43L818.01,735.16L824.72,739.64L834.43,746.36L838.16,749.34L847.86,755.31L851.59,756.8" fill="none" stroke="#000000" style="-webkit-tap-highlight-color: rgba(0, 0, 0, 0); stroke-linecap: round; stroke-linejoin: round; stroke-width: 5;" /><path d="M489.61,612.01L488.86,612.01L487.37,615L487.37,617.24L487.37,620.22L486.62,623.95L486.62,628.43L487.37,635.9L488.12,644.1L488.86,653.06L489.61,659.78L489.61,666.5L489.61,678.44L489.61,684.41L488.86,689.63L488.86,694.86L488.12,699.34L488.12,701.57L488.12,703.81L488.12,706.05L487.37,707.55L487.37,712.02L487.37,713.52L487.37,715.76L488.12,717.99L488.12,720.23L487.37,722.47L487.37,724.71L486.62,727.7L485.88,729.94L485.13,734.41L484.38,735.91L483.64,738.89L483.64,741.13L482.89,743.37L482.89,746.36L483.64,748.59L484.38,750.83L484.38,753.82L484.38,757.55L484.38,759.79L484.38,762.78" fill="none" stroke="#000000" style="-webkit-tap-highlight-color: rgba(0, 0, 0, 0); stroke-linecap: round; stroke-linejoin: round; stroke-width: 5;" /><path d="M245.55,694.11L244.8,694.11L242.57,696.35L238.83,698.59L238.09,700.83L235.85,702.32L233.61,704.56L230.62,706.05L228.38,707.55L225.4,708.29L223.16,709.78L221.67,711.28L218.68,715.01L217.19,717.25L215.7,717.99L213.46,718.74L211.97,718.74L209.73,717.99L207.49,717.25L204.5,716.5L197.78,715.01L196.29,714.26L186.59,712.02L182.11,710.53L178.38,710.53L173.9,710.53L169.42,711.28L163.45,711.28L161.21,712.02L157.48,712.02L153.75,711.28L147.03,709.78L143.3,709.04L138.82,708.29L135.09,707.55L131.36,706.05L129.12,704.56L126.13,703.07L123.15,701.57L120.16,700.08L114.94,697.84L111.95,697.1L108.22,697.1L104.49,696.35L100.01,695.6L95.53,695.6L91.06,694.86L86.58,694.11L84.34,693.36L83.59,693.36L83.59,692.62L85.08,690.38L86.58,688.89L88.07,686.65L90.31,683.66L91.8,681.42L92.55,678.44L93.29,674.71L94.04,667.24L94.04,663.51L93.29,660.52L93.29,657.54L93.29,655.3L92.55,653.06L91.8,651.57L90.31,649.33L88.82,647.09L83.59,642.61L80.61,640.37L76.87,638.13L72.4,636.64L67.17,635.15L61.2,634.4L54.48,632.91L47.77,632.16L41.05,631.42L29.11,627.69L23.88,626.19L19.41,624.7L14.93,623.95L10.45,625.45" fill="none" stroke="#000000" style="-webkit-tap-highlight-color: rgba(0, 0, 0, 0); stroke-linecap: round; stroke-linejoin: round; stroke-width: 5;" /><path d="M248.54,691.13L250.78,690.38L254.51,689.63L259.73,688.89L265.7,688.14L279.88,689.63L286.6,692.62L294.06,696.35L301.53,699.34L308.99,700.83L315.71,702.32L321.68,703.81L329.89,707.55L332.13,709.04L343.32,712.77L349.29,713.52L354.52,713.52L359.74,715.01L364.97,715.76L373.92,716.5L376.91,716.5L383.63,715.76L390.34,715.76L396.31,715.76L403.78,716.5L414.97,718.74L420.94,719.49L426.92,720.23L432.89,720.98L439.6,722.47L450.05,726.2L453.04,727.7L464.23,735.91" fill="none" stroke="#000000" style="-webkit-tap-highlight-color: rgba(0, 0, 0, 0); stroke-linecap: round; stroke-linejoin: round; stroke-width: 5;" /><path d="M285.85,556.78L284.36,556.78L283.62,558.27L285.11,559.02L287.35,559.02L290.33,559.02L300.78,562.01L307.5,564.24L316.45,567.98L323.92,570.96L332.13,573.95L339.59,576.93L347.8,580.66L354.52,585.89L361.24,591.86L370.19,600.07L374.67,603.06L383.63,608.28L387.36,611.27L391.84,613.5L396.31,615.74L402.29,617.24L406.76,618.73L411.99,619.48L416.47,620.22L426.17,622.46L430.65,624.7L435.87,626.94L441.1,628.43L447.07,629.18L453.04,629.92L458.26,630.67L463.49,632.91L470.95,635.9L479.16,638.13L479.91,638.88" fill="none" stroke="#000000" style="-webkit-tap-highlight-color: rgba(0, 0, 0, 0); stroke-linecap: round; stroke-linejoin: round; stroke-width: 5;" /><path d="M255.25,539.62L254.51,541.85L254.51,544.84L254.51,550.06L254.51,556.03L253.76,562.75L253.01,568.72L253.01,581.41L251.52,592.61L251.52,599.32L250.78,603.8L249.28,606.79L248.54,609.77L248.54,612.01" fill="none" stroke="#000000" style="-webkit-tap-highlight-color: rgba(0, 0, 0, 0); stroke-linecap: round; stroke-linejoin: round; stroke-width: 5;" /><path d="M267.2,618.73L270.18,620.22L273.17,621.71L277.64,623.21L282.12,623.95L286.6,625.45L297.05,628.43L301.53,631.42L305.26,635.15L309.74,639.63L313.47,643.36L317.2,647.09L320.19,650.82L322.43,655.3L325.41,658.29L332.87,662.02L338.1,664.26L343.32,665.75L349.29,667.24L354.52,670.23L361.24,671.72L367.95,672.47L373.92,673.21L379.9,673.21L391.84,676.2L397.81,677.69L405.27,679.18L412.73,679.18L420.2,679.93L426.17,680.68L431.39,682.17L435.87,683.66L441.1,686.65L447.07,688.89L457.52,691.87L461.99,692.62L465.73,694.86L470.95,697.1L476.92,698.59" fill="none" stroke="#000000" style="-webkit-tap-highlight-color: rgba(0, 0, 0, 0); stroke-linecap: round; stroke-linejoin: round; stroke-width: 5;" /><path d="M135.84,629.92L136.58,629.18L138.82,626.94L141.81,624.7L145.54,622.46L150.76,620.97L156.73,620.22L162.71,618.73L175.39,615.74L181.36,615.74L187.34,616.49L193.31,617.98L200.02,620.97L206.74,622.46L212.71,623.21L218.68,624.7L223.91,626.19L229.13,627.69L238.83,632.16L243.31,633.66L248.54,633.66L252.27,633.66L256,633.66L260.48,633.66L264.96,633.66L270.93,632.91L276.9,632.16L283.62,630.67" fill="none" stroke="#000000" style="-webkit-tap-highlight-color: rgba(0, 0, 0, 0); stroke-linecap: round; stroke-linejoin: round; stroke-width: 5;" /><path d="M226.15,532.15" fill="none" stroke="#000000" style="-webkit-tap-highlight-color: rgba(0, 0, 0, 0); stroke-linecap: round; stroke-linejoin: round; stroke-width: 5;" /><path d="M8.21,494.83L8.96,492.59L9.7,491.85L13.43,491.1L18.66,490.36L24.63,491.1L31.35,491.1L38.81,490.36L46.27,487.37L52.99,483.64L64.93,479.91L72.4,476.92L76.13,475.43L90.31,468.71L97.03,464.23L103.74,459.01L108.22,453.04L111.95,447.81L113.45,439.6L114.19,434.38L114.19,432.14L114.94,426.92L118.67,423.18L123.15,420.2L127.63,416.47L133.6,411.99L140.31,406.76L150.76,400.79L156.73,397.06L160.47,392.58L162.71,388.1L164.2,380.64L164.94,375.42L165.69,369.45L164.94,364.22L164.94,360.49L164.94,357.5L168.68,353.03L173.15,350.04L177.63,346.31L180.62,344.07L191.81,337.35L197.78,333.62L205.25,331.38L212.71,330.64L219.43,329.89L224.65,329.14L228.38,328.4" fill="none" stroke="#000000" style="-webkit-tap-highlight-color: rgba(0, 0, 0, 0); stroke-linecap: round; stroke-linejoin: round; stroke-width: 5;" /><path d="M245.55,154.5L246.3,153L247.04,152.26L247.79,151.51L247.04,151.51L246.3,158.23L245.55,167.93L246.3,179.87L246.3,192.56L247.04,203.76L247.79,216.44L248.54,229.13L250.03,241.07L252.27,256.75L252.27,261.97L252.27,278.39L251.52,285.85L250.78,292.57L250.78,298.54L251.52,305.26L252.27,315.71L252.27,317.95L253.01,328.4L253.01,332.13L255.25,344.07L256.75,349.29L258.24,355.27L259.73,361.98L261.22,366.46" fill="none" stroke="#000000" style="-webkit-tap-highlight-color: rgba(0, 0, 0, 0); stroke-linecap: round; stroke-linejoin: round; stroke-width: 5;" /><path d="M4.48,169.42L5.22,167.18L8.21,163.45L9.7,162.71L11.94,161.21L14.93,159.72L19.41,157.48L26.12,155.99L38.81,153L44.03,152.26L58.96,148.52L76.13,143.3L88.07,139.57L98.52,136.58L108.97,134.34L119.42,132.85L130.61,130.61L149.27,126.88L155.24,125.39L170.92,122.4L182.11,122.4L188.08,123.9L194.05,124.64L200.02,126.13L204.5,126.88L208.23,128.37L212.71,129.12L214.2,130.61L219.43,133.6L221.67,135.09L229.88,137.33L234.36,137.33L240.33,136.58L245.55,136.58L250.03,135.84L256,133.6L258.24,132.1L263.46,127.63L264.96,126.13L270.93,120.16L273.17,117.92L275.41,115.69L278.39,112.7L279.88,110.46L285.11,105.98L288.09,105.98L289.59,105.98L294.81,105.98L299.29,105.98L303.77,105.98L308.99,105.98L313.47,106.73L318.69,107.48L325.41,109.71L327.65,109.71L333.62,110.46L339.59,111.21L342.58,111.21L346.31,111.95L349.29,112.7L351.53,113.45L353.77,113.45L356.01,112.7L359,112.7L361.24,113.45L361.98,113.45L366.46,114.94L368.7,115.69L371.69,115.69L374.67,116.43L377.66,116.43L381.39,115.69L382.88,116.43L387.36,116.43L392.58,115.69L395.57,114.94L398.55,113.45L401.54,112.7L403.78,111.21L406.02,110.46L410.5,109.71L411.99,108.97L416.47,107.48L420.94,104.49L423.93,103L426.92,100.76L429.9,100.01L432.89,98.52L435.87,97.03L438.86,94.79L439.6,94.04L441.84,91.06L443.34,90.31L446.32,88.07L448.56,86.58L450.8,85.83L453.78,84.34L456.02,82.85L460.5,79.86L462.74,78.37L465.73,76.13L467.22,76.13L472.44,72.4L474.68,70.9L479.16,65.68L480.65,64.19L482.15,62.69L485.88,59.71L487.37,59.71L491.85,57.47L492.59,56.72L498.57,53.74L505.28,51.5L508.27,50.75L511.25,50.01L514.99,48.51L516.48,47.77L520.96,45.53L521.7,44.78L526.93,40.3L529.17,37.32L530.66,33.59L532.9,30.6L535.14,28.36L537.38,26.12L539.62,23.88L541.85,22.39L544.09,18.66L546.33,15.67L547.83,11.2L550.81,8.21L553.8,4.48L557.53,1.49" fill="none" stroke="#000000" style="-webkit-tap-highlight-color: rgba(0, 0, 0, 0); stroke-linecap: round; stroke-linejoin: round; stroke-width: 5;" /><path d="M448.56,114.94L449.31,114.94L450.8,114.94L456.02,117.18L461.25,117.92L467.22,118.67L473.94,119.42L479.91,119.42L488.12,118.67L491.1,118.67L500.06,118.67L503.04,117.92L512.75,119.42L517.22,120.91L520.21,123.15L521.7,124.64L523.2,125.39L525.43,124.64L525.43,123.9" fill="none" stroke="#000000" style="-webkit-tap-highlight-color: rgba(0, 0, 0, 0); stroke-linecap: round; stroke-linejoin: round; stroke-width: 5;" /><path d="M592.61,124.64L592.61,123.15L594.1,123.15L597.08,123.15L602.31,123.15L607.53,123.15L613.5,122.4L626.94,123.15L633.66,124.64L641.12,125.39L650.08,125.39L658.29,124.64L666.5,123.15L676.94,120.91L682.92,120.16L690.38,119.42L700.08,118.67L706.8,118.67L712.02,117.92L716.5,117.18L720.23,116.43L726.2,116.43L729.94,117.18L734.41,117.18L738.89,117.18L745.61,117.18L750.09,117.18L754.57,117.92L759.04,118.67L763.52,120.16L768,122.4L776.21,123.9L781.43,124.64L788.15,123.9L797.85,123.15L804.57,123.15L810.54,122.4L815.77,122.4L820.99,121.66L827.71,120.91L832.93,120.91L838.16,120.91L842.64,121.66L849.35,123.15L853.08,124.64L856.82,126.13L860.55,126.88L865.03,127.63L868.76,129.12L874.73,130.61L876.22,130.61L881.45,132.1L882.94,132.85L888.91,133.6L891.9,132.85L895.63,132.85L898.61,132.85L902.34,133.6L908.31,133.6L909.81,133.6L913.54,133.6L915.03,133.6L917.27,135.09L918.76,135.84L920.26,136.58L921.75,137.33L923.24,138.08L923.99,138.08L924.73,138.82L926.97,141.06L927.72,141.06L934.44,143.3" fill="none" stroke="#000000" style="-webkit-tap-highlight-color: rgba(0, 0, 0, 0); stroke-linecap: round; stroke-linejoin: round; stroke-width: 5;" /><path d="M941.15,145.54L944.14,144.79L947.13,144.05L950.11,144.05L955.34,144.79L956.83,145.54L961.31,147.78L965.78,150.02L976.23,155.24L980.71,158.23L985.19,160.47L990.41,161.96L995.64,162.71L1004.59,164.2L1007.58,164.2L1016.54,164.94L1018.78,165.69" fill="none" stroke="#000000" style="-webkit-tap-highlight-color: rgba(0, 0, 0, 0); stroke-linecap: round; stroke-linejoin: round; stroke-width: 5;" /><path d="M718.74,410.5L719.49,410.5L724.71,409L730.68,409L737.4,409L746.36,410.5L760.54,413.48L770.99,415.72L780.69,417.21L794.12,420.2L802.33,422.44L809.05,424.68L815.02,427.66L820.99,430.65L825.47,432.89L832.19,436.62L835.92,438.86L840.4,441.1L844.87,443.34L855.32,444.83L862.04,444.83" fill="none" stroke="#000000" style="-webkit-tap-highlight-color: rgba(0, 0, 0, 0); stroke-linecap: round; stroke-linejoin: round; stroke-width: 5;" /><path d="M944.89,297.8L944.89,297.05L944.89,296.3L942.65,298.54L939.66,302.27L935.18,311.98L932.2,318.69L929.96,325.41L927.72,332.13L926.23,340.34L923.99,350.04L923.24,356.01L923.24,361.24L923.99,364.97L923.99,370.19L923.99,373.18L923.24,376.16L921,379.15L918.02,381.39L914.29,382.88L909.06,385.12L906.08,385.87L902.34,387.36L894.88,388.85L893.39,389.6L888.91,389.6L885.18,390.34L879.95,391.84L872.49,393.33L870.25,393.33L862.04,393.33L857.56,392.58L850.85,389.6L847.11,387.36L844.13,385.12L841.89,385.12L841.14,385.12L838.9,384.37L838.16,384.37L836.66,385.12L834.43,385.87L831.44,388.1L829.95,390.34L827.71,393.33L826.22,396.31L824.72,399.3L823.23,403.78L821.74,406.76L820.24,409.75L818.75,413.48L816.51,420.94L815.02,426.92" fill="none" stroke="#000000" style="-webkit-tap-highlight-color: rgba(0, 0, 0, 0); stroke-linecap: round; stroke-linejoin: round; stroke-width: 5;" /><path d="M938.92,294.06L938.92,293.32L938.92,292.57L939.66,291.08L942.65,288.84L946.38,286.6L950.11,284.36L954.59,284.36L963.55,285.11L967.28,285.85L969.52,286.6L976.98,288.09L982.2,289.59L986.68,291.83L990.41,294.81L994.15,297.8L1000.12,300.78L1003.85,303.02L1006.83,305.26L1009.07,307.5L1010.57,311.98L1010.57,314.96L1009.82,316.45L1009.07,317.95L1006.83,320.93L1003.85,325.41L1002.36,329.89L1000.86,333.62L1000.12,337.35L998.62,341.83L998.62,346.31L997.88,349.29L997.88,353.03L998.62,356.01L998.62,361.24L997.88,364.97L997.13,370.19L995.64,374.67L993.4,380.64L991.91,383.63L990.41,385.87L988.92,388.85L988.17,391.84L988.17,395.57L988.17,397.06L989.67,400.05L990.41,402.29L992.65,405.27L994.89,406.76L995.64,407.51L997.88,408.26L1000.12,409.75L1001.61,411.99L1004.59,414.23L1004.59,414.97L1006.83,417.21L1006.09,420.2L1004.59,423.93L1002.36,426.92L1000.86,430.65L999.37,432.89L998.62,436.62L996.38,440.35L993.4,442.59L991.16,443.34L985.94,445.57" fill="none" stroke="#000000" style="-webkit-tap-highlight-color: rgba(0, 0, 0, 0); stroke-linecap: round; stroke-linejoin: round; stroke-width: 5;" /><path d="M488.12,4.48L487.37,5.22L486.62,5.22L485.13,5.97L482.89,7.46L479.91,8.96L476.17,11.2L471.7,13.43L465.73,15.67L460.5,17.91L454.53,19.41L442.59,23.88L436.62,26.12L431.39,27.62L425.42,28.36L420.2,30.6L413.48,33.59L411.24,35.08L407.51,39.56L406.02,40.3L400.05,41.05L396.31,40.3L391.09,38.81L385.87,37.32L380.64,36.57L373.18,35.08L370.19,34.33L363.48,32.84L361.24,32.09L354.52,31.35L352.28,31.35L349.29,31.35L347.06,32.84L344.07,33.59L339.59,35.08L338.1,35.83L334.37,38.06L332.87,38.81L326.16,41.05L322.43,42.54L317.95,42.54L313.47,42.54L308.99,41.8L302.27,41.05L299.29,40.3L291.83,38.81L289.59,38.81L279.88,37.32L275.41,37.32L271.67,36.57L267.2,35.83L261.97,36.57L256.75,37.32L252.27,38.81L245.55,40.3L242.57,40.3L229.88,41.05L222.41,40.3L214.95,41.05L208.23,41.8L200.77,44.03L193.31,46.27L185.1,49.26L173.9,50.01L170.92,50.75L163.45,52.24L161.96,52.99L161.21,53.74L161.21,55.23L162.71,56.72L166.44,58.22L168.68,58.22L177.63,58.22L181.36,58.22L196.29,56.72L203.01,55.98L210.47,55.98L217.19,56.72L223.91,57.47L231.37,58.96L238.09,59.71L244.8,61.2L250.03,61.2L258.99,61.95L261.97,61.95L263.46,61.95L263.46,62.69L264.21,63.44L264.21,65.68L263.46,67.17L261.97,70.16L261.22,70.9L256.75,74.64L255.25,76.13L253.01,77.62L250.78,78.37L249.28,79.11L249.28,79.86L248.54,80.61L248.54,81.35L247.79,82.1L247.04,83.59L245.55,84.34L244.06,84.34L242.57,85.83L241.07,87.32L239.58,88.82L238.83,89.56L235.1,91.06L233.61,91.06L232.12,91.06L230.62,92.55L229.13,92.55L227.64,94.04L226.89,94.79L223.16,95.53L221.67,96.28L216.44,97.77L210.47,99.27L204.5,100.01L197.04,101.5L190.32,103.74L183.6,105.98L178.38,108.97L170.92,112.7L168.68,113.45L161.96,115.69L154.5,117.18L147.78,117.18L141.06,117.18L120.16,115.69L115.69,114.94L100.01,112.7L94.79,111.95L83.59,109.71L55.98,107.48L41.05,108.22L26.87,111.21L14.18,114.94L2.99,120.91L0.75,122.4" fill="none" stroke="#000000" style="-webkit-tap-highlight-color: rgba(0, 0, 0, 0); stroke-linecap: round; stroke-linejoin: round; stroke-width: 5;" /><path d="M421.69,111.21L422.44,111.21L425.42,111.95L429.9,111.95L436.62,113.45L441.1,112.7L446.32,111.95L452.29,110.46L458.26,108.97L464.23,108.22L469.46,108.22L476.17,109.71L478.41,110.46L488.12,110.46L493.34,109.71L497.82,109.71L501.55,109.71L505.28,110.46L511.25,111.21L513.49,111.21L520.21,111.21L522.45,111.21L530.66,111.95L534.39,113.45L538.12,113.45L541.85,113.45L545.59,111.95L549.32,111.95L552.3,111.21L556.03,111.21L559.77,111.95L563.5,111.95L570.22,110.46L573.2,110.46L576.19,109.71L579.92,109.71L582.16,110.46L584.4,110.46L586.64,110.46L588.87,111.21L590.37,111.21L593.35,111.95L595.59,112.7L597.08,113.45L599.32,114.19L601.56,114.94L604.55,114.94L606.79,114.94L609.03,114.94L609.77,114.94L612.01,114.94L612.76,115.69L614.25,116.43L615,117.18L615.74,117.92L615.74,118.67L616.49,120.16" fill="none" stroke="#000000" style="-webkit-tap-highlight-color: rgba(0, 0, 0, 0); stroke-linecap: round; stroke-linejoin: round; stroke-width: 5;" /><path d="M588.13,131.36L589.62,130.61L589.62,129.87L589.62,129.12L588.87,129.12L586.64,128.37L583.65,129.12L579.92,129.87L575.44,130.61L567.23,132.1L562.75,133.6L558.27,135.09L554.54,137.33L549.32,139.57L544.84,141.06L538.12,142.55L535.88,142.55L529.91,143.3L528.42,144.05L524.69,146.29" fill="none" stroke="#000000" style="-webkit-tap-highlight-color: rgba(0, 0, 0, 0); stroke-linecap: round; stroke-linejoin: round; stroke-width: 5;" /><path d="M728.44,158.23L728.44,159.72L728.44,161.96L729.19,164.94L730.68,171.66L731.43,177.63L731.43,182.11L732.17,185.1L732.92,188.83L732.92,191.81L732.92,195.55L732.92,197.04L734.41,200.77L735.16,202.26L744.12,205.99L750.83,206.74L757.55,206.74L765.01,205.99L773.22,205.25L785.17,204.5L792.63,203.76L800.09,202.26L806.81,201.52L816.51,200.02L822.48,200.77L827.71,200.77L832.93,200.02L841.89,197.78L843.38,197.04L845.62,197.04L851.59,194.8L853.08,194.05L857.56,191.81L859.06,189.57L859.8,187.34L861.29,184.35L861.29,181.36L862.04,176.89L862.04,173.9L862.04,172.41L859.06,167.93L856.82,164.94L853.83,162.71L849.35,161.21L844.87,160.47L840.4,160.47L832.19,161.21L825.47,161.21L818.75,161.21L807.56,160.47L799.35,158.97L790.39,157.48L781.43,156.73L770.99,156.73L760.54,158.23L744.86,158.23L738.89,158.97L724.71,158.97L720.23,158.97L712.77,161.21" fill="none" stroke="#000000" style="-webkit-tap-highlight-color: rgba(0, 0, 0, 0); stroke-linecap: round; stroke-linejoin: round; stroke-width: 5;" /></svg>