<?xml version="1.0" encoding="utf-8" ?>
<svg baseProfile="full" height="673" version="1.1" width="1024" xmlns="http://www.w3.org/2000/svg" xmlns:ev="http://www.w3.org/2001/xml-events" xmlns:xlink="http://www.w3.org/1999/xlink"><defs /><path d="M9.7,345.56L10.45,344.82L12.69,344.82L14.93,344.82L17.91,344.07L20.9,344.82L24.63,344.82L29.11,344.07L32.09,344.07L41.05,344.82L45.53,344.82L50.01,344.07L55.98,343.32L61.2,342.58L65.68,342.58L70.9,341.83L76.13,341.83L86.58,341.08L93.29,339.59L98.52,339.59L103,339.59L107.48,339.59L114.94,340.34L120.16,340.34L125.39,340.34L129.87,340.34L135.09,340.34L138.82,341.08L153.75,341.08L155.99,341.08L157.48,341.08L158.97,341.08L162.71,341.08L165.69,341.08L170.17,341.83L176.89,341.08L179.13,341.08L182.11,341.08L185.84,341.08L188.83,340.34L193.31,340.34L195.55,340.34L198.53,339.59L202.26,339.59L205.25,339.59L206.74,339.59L208.98,339.59L211.22,339.59L212.71,339.59L214.2,338.85L215.7,338.85L217.19,339.59L218.68,339.59L222.41,339.59L225.4,339.59L227.64,339.59L229.88,340.34L232.86,341.08L237.34,341.08L238.09,340.34L241.82,340.34L244.8,339.59L250.78,340.34L253.76,340.34L256.75,341.08L260.48,340.34L264.96,340.34L268.69,339.59L273.17,339.59L279.14,338.85L283.62,337.35L294.81,336.61L299.29,335.86L303.77,335.86L307.5,335.11L311.23,335.11L314.22,335.11L317.2,335.11L320.19,335.11L322.43,335.86L326.16,335.11L331.38,333.62L334.37,332.87L338.1,332.87L342.58,332.87L346.31,332.13L350.04,332.13L365.71,331.38L369.45,331.38L373.18,330.64L376.91,329.89L380.64,329.89L383.63,329.89L387.36,329.14L390.34,329.14L394.08,329.14L400.79,328.4L404.52,328.4L408.26,328.4L411.99,327.65L415.72,327.65L419.45,326.9L422.44,326.9L426.92,326.16L429.9,325.41L438.11,325.41L441.84,325.41L444.83,325.41L447.81,325.41L453.04,325.41L456.77,324.66L459.76,324.66L462.74,324.66L465.73,325.41L469.46,325.41L471.7,325.41L473.94,325.41L476.17,326.16L478.41,326.9L480.65,326.9L482.89,327.65L484.38,328.4L486.62,329.14L488.86,329.89L490.36,331.38L491.1,331.38L492.59,332.13L492.59,332.87L494.09,333.62L494.83,333.62L496.33,335.11L497.07,335.86L498.57,336.61L499.31,338.1L500.8,338.85L502.3,339.59L504.54,340.34L506.03,341.08L507.52,341.08L508.27,341.83L509.76,341.83L512,341.08L512.75,341.08L517.97,341.08L520.21,341.08L520.96,341.08L523.2,341.08L525.43,340.34L528.42,340.34L529.91,339.59L531.41,339.59L532.15,339.59L533.64,338.85L535.14,337.35L536.63,337.35L538.12,336.61L540.36,335.86L542.6,335.11L543.35,333.62L544.84,332.87L546.33,332.13L547.08,332.13L548.57,330.64L550.06,329.89L550.81,329.14L552.3,327.65L553.8,326.9L556.03,325.41L558.27,323.92L560.51,323.17L562.75,323.17L565.74,322.43L567.23,322.43L569.47,323.17L571.71,322.43L575.44,322.43L576.93,322.43L578.43,322.43L580.66,321.68L582.9,321.68L585.14,321.68L587.38,321.68L589.62,321.68L591.86,322.43L595.59,323.17L598.58,323.17L600.07,323.92L602.31,323.92L603.8,323.92L604.55,324.66L606.79,324.66L607.53,324.66L609.77,324.66L612.76,325.41L615,325.41L617.98,324.66L620.22,324.66L622.46,323.92L625.45,323.92L628.43,323.92L630.67,323.92L633.66,323.92L644.85,323.17L647.84,323.17L651.57,323.17L657.54,322.43L660.52,322.43L662.02,321.68L665,321.68L667.99,320.93L669.48,320.19L670.97,320.19L671.72,318.69L673.96,317.95L674.71,317.2L676.2,316.45L678.44,314.96L679.93,314.22L682.17,312.72L682.92,311.23L686.65,309.74L688.89,308.24L691.13,308.24L693.36,307.5L694.86,307.5L696.35,307.5L701.57,307.5L706.05,307.5L712.77,308.24L719.49,308.24L725.46,308.24L732.17,309.74L736.65,310.48L740.38,311.23L747.1,312.72L751.58,312.72L755.31,313.47L758.3,313.47L761.28,312.72L763.52,312.72L766.51,312.72L768.75,313.47L770.99,313.47L772.48,313.47L776.21,313.47L778.45,314.22L780.69,314.22L783.67,313.47L785.91,314.22L789.64,314.22L792.63,314.96L795.62,314.96L798.6,315.71L803.83,316.45L807.56,317.2L810.54,317.95L814.27,318.69L817.26,318.69L826.96,320.19L829.2,320.19L835.92,320.19L838.9,320.19L841.89,320.19L845.62,320.19L849.35,320.93L853.83,320.93L856.07,320.93L859.8,320.93L863.53,320.19L867.27,320.93L870.25,320.93L872.49,320.93L875.48,321.68L878.46,322.43L882.94,323.17L884.43,323.17L888.16,323.92L890.4,323.92L894.13,323.92L895.63,323.92L897.12,323.92L899.36,323.17L900.1,323.17L903.09,323.17L904.58,323.17L906.82,322.43L907.57,322.43L912.79,322.43L915.03,322.43L917.27,321.68L919.51,321.68L921.75,320.93L926.23,320.19L927.72,320.19L931.45,319.44L933.69,318.69L939.66,317.2L942.65,316.45L946.38,315.71L950.11,314.96L953.1,314.22L957.57,313.47L959.81,312.72L964.29,312.72L968.02,311.98L971.01,311.23L973.25,311.23L976.23,311.23L978.47,311.23L980.71,310.48L985.19,309.74L987.43,309.74L991.91,308.99L997.13,308.24L1000.86,307.5L1004.59,307.5L1016.54,307.5L1021.01,307.5" fill="none" stroke="#000000" style="-webkit-tap-highlight-color: rgba(0, 0, 0, 0); stroke-linecap: round; stroke-linejoin: round; stroke-width: 5;" /><path d="M406.02,341.08L405.27,341.83L404.52,344.07L403.03,347.8L403.03,351.53L403.03,354.52L405.27,359.74L406.76,363.48L407.51,366.46L408.26,368.7L409.75,375.42L409.75,379.15L410.5,382.13L409.75,386.61L409.75,390.34L408.26,396.31L408.26,400.05L408.26,403.03L409,408.26L409,411.99L409,416.47L409,419.45L408.26,423.18L407.51,426.92L407.51,431.39L406.76,435.87L406.76,438.86L406.02,441.1L406.02,444.83L406.76,446.32L406.76,449.31L407.51,452.29L408.26,455.28L409,459.76L409.75,461.25L409.75,461.99" fill="none" stroke="#000000" style="-webkit-tap-highlight-color: rgba(0, 0, 0, 0); stroke-linecap: round; stroke-linejoin: round; stroke-width: 5;" /><path d="M370.19,347.06L370.19,346.31L371.69,344.82L372.43,344.82L373.92,344.07L374.67,344.07L376.16,344.07L376.91,344.07L377.66,345.56L378.4,347.8L379.15,350.79L379.9,354.52L380.64,359L380.64,364.22L382.13,374.67L382.88,379.9L382.88,385.12L382.88,388.85L382.88,392.58L382.13,397.06L382.13,400.79L382.13,404.52L381.39,409.75L381.39,414.23L381.39,417.96L381.39,424.68L381.39,428.41L381.39,431.39L382.13,435.87L382.13,438.86L382.88,441.84L382.88,444.83L383.63,447.07L383.63,449.31L383.63,452.29L383.63,454.53L382.88,456.77L382.88,459.01L382.13,463.49L381.39,464.23L379.9,469.46L379.15,473.19L378.4,477.67L377.66,479.16" fill="none" stroke="#000000" style="-webkit-tap-highlight-color: rgba(0, 0, 0, 0); stroke-linecap: round; stroke-linejoin: round; stroke-width: 5;" /><path d="M254.51,356.01L254.51,355.27L254.51,356.76L255.25,359.74L256,367.21L256,369.45L257.49,382.88L258.24,389.6L258.99,397.06L258.99,403.78L258.24,411.99L258.24,419.45L258.24,426.92L258.24,433.63L258.24,441.84L258.24,451.55L258.24,455.28L258.24,459.01L258.24,462.74L258.99,467.22L258.99,472.44L258.24,484.38L258.99,485.13L258.99,485.88" fill="none" stroke="#000000" style="-webkit-tap-highlight-color: rgba(0, 0, 0, 0); stroke-linecap: round; stroke-linejoin: round; stroke-width: 5;" /><path d="M249.28,488.12L250.78,489.61L253.01,488.86L257.49,487.37L260.48,486.62L263.46,486.62L268.69,485.88L270.93,485.88L273.91,485.88L281.38,485.88L287.35,485.88L293.32,485.88L303.02,485.13L311.98,484.38L319.44,484.38L329.89,482.89L338.1,482.89L346.31,482.15L353.77,481.4L361.24,479.91L368.7,478.41L379.15,477.67L384.37,477.67L386.61,477.67L388.1,477.67" fill="none" stroke="#000000" style="-webkit-tap-highlight-color: rgba(0, 0, 0, 0); stroke-linecap: round; stroke-linejoin: round; stroke-width: 5;" /><path d="M190.32,347.8L191.07,348.55L191.07,350.04L191.81,353.03L191.81,357.5L191.81,362.73L192.56,367.95L193.31,373.92L193.31,379.9L194.05,385.87L194.05,395.57L194.05,400.05L194.8,405.27L195.55,410.5L194.8,415.72L194.8,420.94L194.8,425.42L194.05,430.65L193.31,435.13L193.31,443.34L193.31,447.81L193.31,452.29L193.31,455.28L192.56,459.01L193.31,461.25L193.31,462.74" fill="none" stroke="#000000" style="-webkit-tap-highlight-color: rgba(0, 0, 0, 0); stroke-linecap: round; stroke-linejoin: round; stroke-width: 5;" /><path d="M195.55,457.52L195.55,456.77L197.04,456.77L198.53,458.26L200.77,461.99L203.76,464.98L208.23,467.97L212.71,471.7L217.94,474.68L222.41,478.41L227.64,482.15L237.34,490.36L242.57,494.83L247.79,497.07" fill="none" stroke="#000000" style="-webkit-tap-highlight-color: rgba(0, 0, 0, 0); stroke-linecap: round; stroke-linejoin: round; stroke-width: 5;" /><path d="M5.97,474.68L7.46,473.19L8.96,473.19L11.2,472.44L14.18,472.44L17.91,471.7L23.14,470.95L29.11,470.2L35.83,468.71L43.29,468.71L58.22,467.22L64.93,467.22L71.65,467.22L76.87,467.22L82.1,466.47L87.32,465.73L92.55,464.98L97.03,464.98L102.25,464.98L112.7,464.23L118.67,464.23L124.64,464.23L130.61,463.49L135.84,463.49L141.06,462.74L146.29,462.74L151.51,461.99L156.73,461.99L166.44,461.25L170.92,461.25L175.39,461.25L180.62,460.5L186.59,460.5" fill="none" stroke="#000000" style="-webkit-tap-highlight-color: rgba(0, 0, 0, 0); stroke-linecap: round; stroke-linejoin: round; stroke-width: 5;" /><path d="M413.48,458.26L417.21,459.76L418.71,459.76L420.2,460.5L423.18,461.25L425.42,461.99L428.41,463.49L432.14,464.23L437.36,465.73L438.86,465.73L442.59,466.47L447.81,467.97L453.78,469.46L457.52,469.46L461.25,470.2L464.23,470.2L467.22,470.95L470.2,471.7L472.44,471.7L475.43,472.44L479.91,473.19L482.89,473.94L485.13,474.68L487.37,475.43L490.36,476.17L493.34,476.92L497.82,477.67L501.55,477.67L505.28,477.67L509.01,478.41L512,478.41L514.24,479.16L517.97,479.16L521.7,479.16L526.18,479.91L532.15,480.65L534.39,481.4L539.62,481.4L550.81,482.15L556.78,482.15L563.5,482.15L569.47,482.89L575.44,482.89L579.92,482.89L587.38,482.15L594.1,482.15L599.32,482.15L603.8,482.15L608.28,482.89L612.01,482.15L615.74,482.15L619.48,482.15L623.21,482.15L629.18,481.4L633.66,481.4L636.64,481.4L639.63,479.91L644.1,479.16L647.84,478.41L651.57,477.67L655.3,476.92L664.26,475.43L665.75,474.68L669.48,473.94L673.21,472.44L676.2,471.7L682.17,471.7L685.9,471.7L689.63,470.95L693.36,470.95L696.35,470.2L700.83,469.46L702.32,469.46L704.56,469.46L709.04,469.46L710.53,467.97L712.02,467.97L712.77,467.97L714.26,467.22L716.5,466.47L718.74,466.47L720.23,466.47L723.22,465.73L727.7,466.47L729.94,465.73L732.17,464.98L735.16,464.98L737.4,464.23L740.38,464.23L743.37,463.49L744.86,462.74L745.61,461.99L746.36,461.99L749.34,460.5L750.09,460.5L751.58,459.76L753.82,459.01L756.06,459.01" fill="none" stroke="#000000" style="-webkit-tap-highlight-color: rgba(0, 0, 0, 0); stroke-linecap: round; stroke-linejoin: round; stroke-width: 5;" /><path d="M783.67,326.16L782.93,326.9L782.18,326.9L781.43,327.65L779.94,330.64L779.2,333.62L778.45,337.35L776.96,341.83L776.21,345.56L776.21,351.53L776.21,353.77L776.21,357.5L776.21,363.48L774.72,372.43L773.97,377.66L773.22,381.39L772.48,385.12L771.73,388.1L770.99,393.33L770.99,397.06L770.24,402.29L769.49,406.76L768.75,412.73L768,416.47L768,419.45L768,422.44L768,425.42L768,429.15L767.25,432.14L767.25,435.13L766.51,438.86L765.76,441.84L765.01,444.83L765.01,447.07L765.01,448.56" fill="none" stroke="#000000" style="-webkit-tap-highlight-color: rgba(0, 0, 0, 0); stroke-linecap: round; stroke-linejoin: round; stroke-width: 5;" /><path d="M774.72,454.53L774.72,453.78L775.46,453.04L775.46,452.29L776.96,451.55L777.7,451.55L779.2,452.29L781.43,453.78L784.42,455.28L787.41,456.77L792.63,458.26L796.36,460.5L798.6,461.99L801.59,462.74L804.57,464.98L809.8,464.23L814.27,464.23L818.75,464.98L822.48,465.73L826.96,467.22L829.95,468.71L832.93,469.46L835.17,470.2L838.9,471.7L844.13,472.44L847.11,473.19L849.35,473.94L850.85,474.68L853.83,476.92L856.07,478.41L856.82,478.41L857.56,478.41" fill="none" stroke="#000000" style="-webkit-tap-highlight-color: rgba(0, 0, 0, 0); stroke-linecap: round; stroke-linejoin: round; stroke-width: 5;" /><path d="M859.06,332.87L858.31,333.62L857.56,335.86L855.32,343.32L854.58,348.55L853.08,353.03L852.34,357.5L852.34,362.73L853.08,367.21L853.83,372.43L855.32,377.66L856.07,383.63L857.56,394.82L857.56,400.79L857.56,406.76L857.56,411.99L856.82,417.96L856.82,423.18L856.07,429.15L855.32,435.13L855.32,440.35L855.32,446.32L855.32,453.04L855.32,456.77L855.32,460.5L856.07,464.23L856.07,466.47L856.82,469.46L856.82,470.2L857.56,472.44" fill="none" stroke="#000000" style="-webkit-tap-highlight-color: rgba(0, 0, 0, 0); stroke-linecap: round; stroke-linejoin: round; stroke-width: 5;" /><path d="M921.75,323.92L922.5,325.41L922.5,326.16L923.24,329.89L923.24,331.38L923.24,334.37L922.5,340.34L922.5,344.07L922.5,347.8L922.5,351.53L922.5,356.01L921.75,360.49L920.26,367.95L920.26,371.69L920.26,376.16L920.26,377.66L920.26,384.37L919.51,388.85L919.51,393.33L918.76,397.06L918.76,400.79L918.02,406.76L918.02,409.75L918.02,413.48L918.02,417.21L918.02,419.45L918.02,421.69L918.02,424.68L918.02,426.92L917.27,429.9L917.27,432.89L916.52,437.36L917.27,440.35L917.27,442.59L916.52,447.81L915.78,450.8L915.03,453.04L914.29,455.28L914.29,456.77L913.54,459.01L912.79,461.99L912.79,464.98L912.05,467.22L911.3,470.2L910.55,473.19L910.55,475.43L910.55,476.92L909.81,479.16L909.06,479.91L908.31,481.4L908.31,482.15L907.57,486.62L906.82,488.12L906.08,488.12L905.33,486.62L903.84,486.62L902.34,486.62L900.1,486.62L897.87,485.88L894.13,485.13L891.9,483.64L888.91,482.89L887.42,483.64L885.18,482.15L881.45,479.16L878.46,476.92L874.73,475.43L872.49,474.68L868.01,474.68L865.03,475.43L862.04,476.17L859.06,476.92L858.31,477.67" fill="none" stroke="#000000" style="-webkit-tap-highlight-color: rgba(0, 0, 0, 0); stroke-linecap: round; stroke-linejoin: round; stroke-width: 5;" /><path d="M753.07,459.76L753.07,457.52L753.82,456.77L755.31,456.02L759.04,454.53L763.52,453.04L766.51,452.29L768.75,451.55L770.99,450.8L772.48,450.05L773.97,450.05" fill="none" stroke="#000000" style="-webkit-tap-highlight-color: rgba(0, 0, 0, 0); stroke-linecap: round; stroke-linejoin: round; stroke-width: 5;" /><path d="M927.72,391.09L929.21,390.34L931.45,389.6L934.44,389.6L936.68,389.6L938.92,391.09L941.9,391.09L946.38,392.58L950.11,393.33L953.84,394.82L957.57,395.57L963.55,397.06L968.77,397.81L971.76,398.55L975.49,400.05L978.47,400.79L981.46,401.54L984.44,401.54L987.43,401.54L991.16,401.54L995.64,401.54L999.37,401.54L1003.85,401.54L1008.33,401.54L1012.06,401.54L1015.79,401.54L1020.27,401.54L1021.76,402.29" fill="none" stroke="#000000" style="-webkit-tap-highlight-color: rgba(0, 0, 0, 0); stroke-linecap: round; stroke-linejoin: round; stroke-width: 5;" /><path d="M385.12,447.07L385.87,447.07L387.36,447.81L388.85,448.56L391.84,449.31L397.81,452.29L401.54,454.53L404.52,454.53L408.26,454.53L412.73,455.28L414.23,455.28" fill="none" stroke="#000000" style="-webkit-tap-highlight-color: rgba(0, 0, 0, 0); stroke-linecap: round; stroke-linejoin: round; stroke-width: 5;" /><path d="M873.24,379.9L873.98,379.15L874.73,379.15L875.48,379.9L876.97,381.39L877.71,382.88L878.46,385.87L878.46,388.1" fill="none" stroke="#000000" style="-webkit-tap-highlight-color: rgba(0, 0, 0, 0); stroke-linecap: round; stroke-linejoin: round; stroke-width: 5;" /><path d="M875.48,381.39L875.48,380.64L876.22,379.9L876.97,378.4L878.46,378.4L879.21,378.4L880.7,378.4L881.45,378.4L882.94,379.15L883.69,379.15L884.43,379.15L885.18,379.9L885.18,380.64L885.18,381.39L885.18,382.13L885.18,382.88L885.92,385.12L885.92,386.61L885.92,388.1L885.92,389.6L885.92,392.58L885.92,394.08L885.92,395.57" fill="none" stroke="#000000" style="-webkit-tap-highlight-color: rgba(0, 0, 0, 0); stroke-linecap: round; stroke-linejoin: round; stroke-width: 5;" /><path d="M873.24,397.81L872.49,397.81L872.49,397.06L873.98,396.31L875.48,395.57L879.21,396.31L882.19,396.31" fill="none" stroke="#000000" style="-webkit-tap-highlight-color: rgba(0, 0, 0, 0); stroke-linecap: round; stroke-linejoin: round; stroke-width: 5;" /><path d="M317.2,381.39L317.2,380.64L316.45,380.64L314.96,381.39L314.22,382.13L312.72,382.88L311.98,383.63L311.23,384.37L310.48,385.12L310.48,385.87L309.74,388.85L309.74,390.34L310.48,393.33L311.23,394.82L311.23,395.57L311.98,396.31L312.72,397.06L313.47,397.06L314.22,397.06L314.22,396.31L314.96,397.06L315.71,396.31L317.2,395.57L317.95,395.57L317.95,394.82L318.69,394.08L318.69,393.33L318.69,392.58L318.69,390.34L318.69,389.6L318.69,388.85L318.69,388.1L318.69,386.61" fill="none" stroke="#000000" style="-webkit-tap-highlight-color: rgba(0, 0, 0, 0); stroke-linecap: round; stroke-linejoin: round; stroke-width: 5;" /></svg>