<?xml version="1.0" encoding="utf-8" ?>
<svg baseProfile="full" height="822" version="1.1" width="1024" xmlns="http://www.w3.org/2000/svg" xmlns:ev="http://www.w3.org/2001/xml-events" xmlns:xlink="http://www.w3.org/1999/xlink"><defs /><path d="M207.37,240.4L205.53,240.4L205.53,242.24L205.53,245.91L205.53,251.41L207.37,258.75L209.2,266.09L211.04,273.43L211.04,282.61L212.87,289.95L214.71,297.29L214.71,304.63L216.54,313.81L218.38,322.98L220.22,330.32L220.22,337.66L222.05,345L223.89,352.34L223.89,359.68L225.72,365.19L225.72,372.53L227.56,379.87L227.56,385.38L229.39,394.55L231.23,401.89L231.23,409.23L233.06,416.57L234.9,425.75L234.9,434.92L236.73,442.27L238.57,449.61L240.4,456.95L240.4,464.29L242.24,471.63L242.24,478.97L242.24,486.31L244.07,493.65L244.07,499.15L245.91,506.49L245.91,513.84L247.74,521.18L249.58,528.52L251.41,537.69L251.41,546.87L253.25,556.04L255.08,565.22L256.92,572.56L256.92,581.73L258.75,590.91L260.59,600.09L262.42,607.43L262.42,614.77L264.26,620.27L264.26,625.78L264.26,633.12L266.09,638.62L267.93,644.13L269.76,649.63L269.76,655.14L269.76,660.65L271.6,666.15L271.6,675.33L273.43,682.67L273.43,688.17L275.27,691.84L275.27,697.35L277.1,702.85L277.1,708.36L277.1,715.7L278.94,721.2L278.94,726.71L278.94,734.05L280.77,741.39L280.77,748.73L280.77,752.4L280.77,757.91L280.77,761.58L280.77,768.92L282.61,776.26L282.61,785.43L282.61,792.77L282.61,803.78L284.44,811.13L284.44,816.63L288.11,816.63" fill="none" stroke="#000000" style="-webkit-tap-highlight-color: rgba(0, 0, 0, 0); stroke-linecap: round; stroke-linejoin: round; stroke-width: 5;" /><path d="M16.52,222.05L14.68,223.89L11.01,223.89L11.01,222.05L12.85,222.05L16.52,222.05L20.19,220.22L22.02,220.22L27.53,220.22L34.87,218.38L44.04,216.54L53.22,216.54L62.39,216.54L71.57,216.54L80.75,214.71L88.09,211.04L97.26,209.2L104.6,207.37L115.61,205.53L122.95,203.7L130.29,201.86L137.63,200.03L144.97,198.19L152.32,198.19L159.66,196.36L167,196.36L174.34,194.52L181.68,192.69L189.02,190.85L196.36,189.02L205.53,189.02L212.87,187.18L223.89,183.51L233.06,181.68L240.4,179.84L247.74,179.84L255.08,178.01L262.42,176.17L269.76,176.17L275.27,174.34L282.61,174.34L288.11,172.5L295.46,172.5L306.47,170.67L311.97,170.67L317.48,168.83L322.98,167L326.65,167L330.32,165.16L333.99,165.16L335.83,165.16L337.66,165.16L339.5,165.16L343.17,165.16L345,165.16L346.84,167L346.84,168.83L348.67,172.5L348.67,174.34L350.51,178.01L350.51,181.68L352.34,185.35L354.18,189.02L354.18,190.85L356.01,192.69L356.01,194.52L356.01,196.36" fill="none" stroke="#000000" style="-webkit-tap-highlight-color: rgba(0, 0, 0, 0); stroke-linecap: round; stroke-linejoin: round; stroke-width: 5;" /><path d="M5.51,161.49L7.34,161.49L9.18,161.49L11.01,161.49L16.52,161.49L23.86,161.49L33.03,161.49L40.37,161.49L44.04,161.49L53.22,161.49L64.23,161.49L73.41,159.66L82.58,157.82L91.76,155.99L102.77,155.99L110.11,155.99L119.28,154.15L128.46,150.48L137.63,148.65L146.81,146.81L157.82,144.97L167,141.3L176.17,139.47L185.35,135.8L194.52,133.96L203.7,132.13L212.87,130.29L222.05,128.46L231.23,126.62L238.57,126.62L247.74,126.62L255.08,124.79L262.42,122.95L267.93,121.12L273.43,121.12L280.77,121.12L286.28,119.28L291.78,117.45L297.29,117.45L300.96,117.45L304.63,117.45L306.47,117.45L308.3,119.28L310.14,121.12L311.97,122.95L313.81,124.79L315.64,126.62L319.31,130.29L322.98,133.96L326.65,137.63L330.32,141.3L333.99,146.81L339.5,152.32L345,157.82L348.67,161.49L354.18,165.16L357.85,170.67L359.68,174.34" fill="none" stroke="#000000" style="-webkit-tap-highlight-color: rgba(0, 0, 0, 0); stroke-linecap: round; stroke-linejoin: round; stroke-width: 5;" /><path d="M354.18,172.5L352.34,172.5L352.34,174.34L352.34,183.51L352.34,192.69L352.34,201.86L352.34,211.04L354.18,220.22L356.01,229.39L357.85,238.57L359.68,245.91L359.68,253.25L361.52,260.59L361.52,267.93L361.52,275.27L361.52,280.77L361.52,288.11L363.35,295.46L363.35,300.96L363.35,306.47L363.35,311.97L363.35,319.31L365.19,324.82L365.19,332.16L365.19,337.66L365.19,343.17L367.03,348.67L367.03,361.52L367.03,367.03L368.86,372.53L368.86,378.04L368.86,383.54L368.86,387.21L370.7,392.72L370.7,396.39L370.7,401.89L370.7,407.4L370.7,412.9L370.7,418.41L370.7,423.91L370.7,427.58L370.7,433.09L370.7,438.59L372.53,442.27L372.53,447.77L374.37,453.28L376.2,455.11L376.2,458.78L376.2,460.62L376.2,462.45L376.2,464.29L378.04,467.96L378.04,471.63L378.04,473.46L378.04,475.3L378.04,478.97L379.87,480.8L379.87,484.47L379.87,488.14L379.87,495.48L381.71,500.99L381.71,504.66L383.54,512L385.38,515.67L387.21,517.51" fill="none" stroke="#000000" style="-webkit-tap-highlight-color: rgba(0, 0, 0, 0); stroke-linecap: round; stroke-linejoin: round; stroke-width: 5;" /><path d="M389.05,458.78L387.21,456.95L383.54,453.28L379.87,451.44L378.04,449.61L376.2,449.61L378.04,451.44L379.87,453.28L383.54,458.78L387.21,466.12L392.72,473.46L398.22,480.8L401.89,488.14L407.4,493.65L411.07,500.99L416.57,508.33L420.24,517.51L423.91,523.01L427.58,528.52L431.25,535.86L434.92,541.36L438.59,548.7L442.27,554.21L445.94,559.71L449.61,565.22L453.28,568.89L456.95,572.56L460.62,578.06L464.29,581.73L471.63,590.91L475.3,592.75L478.97,596.42L482.64,600.09L486.31,605.59L489.98,609.26L493.65,612.93L497.32,616.6L500.99,620.27L506.49,623.94L510.16,627.61L512,631.28L515.67,633.12L519.34,636.79L521.18,640.46L524.85,642.29L528.52,645.96L530.35,647.8L532.19,651.47L534.02,653.3L537.69,655.14L539.53,656.97L541.36,660.65L543.2,662.48L545.03,666.15L548.7,667.99L550.54,669.82L554.21,673.49L556.04,675.33L557.88,679L561.55,680.83L563.38,682.67L565.22,686.34L568.89,690.01L570.72,693.68L572.56,697.35L576.23,699.18L578.06,702.85L581.73,704.69L583.57,708.36L587.24,712.03L590.91,713.86L592.75,717.53L596.42,719.37L600.09,723.04L601.92,724.87L605.59,728.54L607.43,732.22L611.1,734.05L614.77,737.72L618.44,739.56L622.11,743.23L625.78,746.9L627.61,748.73L631.28,752.4L634.95,756.07L638.62,759.74L642.29,763.41L645.96,767.08L653.3,774.42L656.97,778.09L660.65,781.76L664.32,785.43L666.15,787.27L669.82,790.94L671.66,792.77L675.33,794.61L677.16,798.28L680.83,800.11L682.67,803.78L686.34,807.46L690.01,811.13L693.68,814.8L695.51,818.47L699.18,822.14" fill="none" stroke="#000000" style="-webkit-tap-highlight-color: rgba(0, 0, 0, 0); stroke-linecap: round; stroke-linejoin: round; stroke-width: 5;" /><path d="M367.03,242.24L367.03,240.4L367.03,242.24L368.86,244.07L370.7,245.91L374.37,249.58L378.04,251.41L381.71,255.08L385.38,256.92L389.05,260.59L392.72,262.42L394.55,264.26L398.22,266.09L401.89,269.76L405.56,271.6L407.4,273.43L409.23,275.27L411.07,275.27L411.07,277.1L412.9,277.1L414.74,278.94L416.57,278.94L416.57,280.77L418.41,280.77L418.41,282.61L420.24,282.61L420.24,284.44L422.08,284.44L423.91,286.28L425.75,286.28L427.58,288.11L429.42,289.95L431.25,289.95L431.25,291.78L433.09,293.62L434.92,293.62L434.92,295.46L436.76,297.29L438.59,299.13L440.43,299.13L442.27,300.96L445.94,304.63L451.44,308.3L455.11,310.14L460.62,313.81L464.29,319.31L467.96,322.98L473.46,326.65L477.13,330.32L480.8,333.99L484.47,339.5L488.14,343.17L491.81,345L495.48,348.67L502.82,354.18L506.49,356.01L510.16,359.68L513.84,361.52L515.67,363.35L521.18,367.03L526.68,368.86L530.35,372.53L534.02,374.37L539.53,376.2L545.03,378.04L550.54,381.71L554.21,383.54L559.71,387.21L565.22,389.05L568.89,390.88L574.39,392.72L578.06,396.39L583.57,400.06L587.24,401.89L592.75,405.56L596.42,407.4L601.92,411.07L605.59,414.74L609.26,418.41L612.93,422.08L614.77,422.08L616.6,423.91L618.44,423.91L622.11,427.58L625.78,431.25L629.45,433.09L631.28,434.92L634.95,438.59L636.79,438.59L640.46,440.43L640.46,442.27L645.96,445.94L649.63,449.61L653.3,453.28L658.81,456.95L664.32,460.62L667.99,462.45L669.82,464.29L673.49,466.12L675.33,467.96L679,471.63L684.5,475.3L688.17,478.97L693.68,482.64L699.18,486.31L704.69,489.98L706.52,491.81L708.36,493.65L710.19,495.48L715.7,499.15L719.37,504.66L724.87,508.33L728.54,512L730.38,513.84L734.05,515.67L739.56,519.34L743.23,524.85L748.73,526.68L748.73,528.52L752.4,530.35L759.74,535.86L765.25,541.36L770.75,545.03L774.42,548.7L779.93,552.37L785.43,556.04L790.94,559.71L794.61,563.38L800.11,568.89L805.62,574.39L809.29,578.06L814.8,583.57L820.3,589.08L825.81,592.75L831.31,596.42L834.98,600.09L840.49,603.76L845.99,607.43L851.5,611.1L858.84,614.77L864.34,618.44L871.68,622.11L877.19,625.78L882.7,629.45L888.2,633.12L895.54,636.79L902.88,640.46L908.39,644.13L913.89,647.8L921.23,651.47L928.57,655.14L934.08,658.81L941.42,662.48L946.92,666.15L952.43,669.82L957.94,673.49L963.44,677.16L968.95,680.83L974.45,684.5L979.96,686.34L985.46,690.01L990.97,691.84L996.47,695.51L1001.98,697.35L1007.48,699.18L1012.99,702.85L1018.49,704.69" fill="none" stroke="#000000" style="-webkit-tap-highlight-color: rgba(0, 0, 0, 0); stroke-linecap: round; stroke-linejoin: round; stroke-width: 5;" /><path d="M357.85,223.89L361.52,223.89L365.19,222.05L370.7,222.05L374.37,222.05L379.87,222.05L383.54,222.05L387.21,220.22L392.72,218.38L394.55,218.38L398.22,216.54L400.06,216.54L401.89,216.54L403.73,216.54L407.4,214.71L409.23,212.87L411.07,212.87L412.9,211.04L414.74,211.04L416.57,212.87L420.24,214.71L423.91,218.38L425.75,222.05L429.42,223.89L433.09,227.56L438.59,233.06L442.27,236.73L445.94,240.4L449.61,244.07L453.28,247.74L456.95,251.41L460.62,255.08L464.29,258.75L469.79,262.42L473.46,266.09L477.13,269.76L478.97,273.43L482.64,277.1L486.31,278.94L488.14,282.61L491.81,284.44L493.65,286.28L497.32,288.11L499.15,289.95L500.99,291.78L504.66,293.62L506.49,295.46L510.16,295.46L512,297.29L515.67,299.13L517.51,300.96L521.18,302.8L524.85,304.63L528.52,306.47L532.19,310.14L537.69,311.97L541.36,315.64L546.87,319.31L552.37,322.98L557.88,326.65L561.55,330.32L567.05,333.99L572.56,335.83L578.06,339.5L583.57,343.17L587.24,345L592.75,348.67L598.25,352.34L603.76,356.01L607.43,357.85L612.93,359.68L618.44,363.35L622.11,365.19L627.61,368.86L631.28,372.53L636.79,374.37L640.46,378.04L645.96,379.87L649.63,383.54L653.3,387.21L658.81,390.88L664.32,394.55L667.99,396.39L671.66,400.06L677.16,403.73L680.83,407.4L684.5,411.07L690.01,414.74L693.68,418.41L699.18,420.24L704.69,423.91L710.19,427.58L715.7,431.25L721.2,434.92L726.71,438.59L734.05,440.43L739.56,444.1L746.9,445.94L752.4,449.61L757.91,453.28L763.41,456.95L768.92,458.78L774.42,462.45L779.93,466.12L785.43,467.96L794.61,473.46L798.28,475.3L803.78,478.97L811.13,482.64L814.8,484.47L818.47,488.14L822.14,489.98L825.81,491.81L827.64,493.65L829.48,495.48L831.31,497.32L833.15,499.15L834.98,499.15L836.82,500.99L836.82,502.82L838.65,504.66L840.49,506.49L842.32,510.16L844.16,512L845.99,515.67L847.83,519.34L849.66,523.01L851.5,526.68L853.33,530.35L855.17,534.02L857,535.86L858.84,539.53L860.67,543.2L864.34,546.87L866.18,550.54L869.85,554.21L873.52,556.04L879.03,559.71L882.7,561.55L886.37,563.38L888.2,565.22L893.71,567.05L899.21,570.72L904.72,574.39L910.22,576.23L915.73,579.9L921.23,581.73L926.74,583.57L930.41,587.24L934.08,589.08L937.75,592.75L941.42,596.42L945.09,598.25L946.92,600.09L948.76,601.92L952.43,605.59L956.1,607.43L957.94,609.26L959.77,611.1L961.61,612.93L967.11,616.6L970.78,618.44L970.78,620.27L974.45,622.11L979.96,623.94L985.46,627.61L990.97,631.28L996.47,634.95L1003.81,638.62L1011.15,642.29L1016.66,645.96L1024,651.47" fill="none" stroke="#000000" style="-webkit-tap-highlight-color: rgba(0, 0, 0, 0); stroke-linecap: round; stroke-linejoin: round; stroke-width: 5;" /><path d="M335.83,161.49L337.66,161.49L341.33,161.49L348.67,159.66L361.52,154.15L367.03,152.32L374.37,150.48L379.87,148.65L383.54,146.81L389.05,143.14L390.88,143.14L394.55,141.3L396.39,141.3L400.06,139.47L401.89,139.47L403.73,139.47L405.56,139.47L405.56,137.63L407.4,137.63L409.23,137.63L409.23,139.47L411.07,139.47L411.07,141.3L412.9,143.14L412.9,144.97L414.74,150.48L414.74,155.99L414.74,163.33L414.74,172.5L416.57,179.84L416.57,189.02L416.57,196.36L418.41,203.7L418.41,211.04L418.41,216.54L418.41,222.05" fill="none" stroke="#000000" style="-webkit-tap-highlight-color: rgba(0, 0, 0, 0); stroke-linecap: round; stroke-linejoin: round; stroke-width: 5;" /><path d="M407.4,135.8L407.4,133.96L405.56,133.96L403.73,133.96L401.89,133.96L400.06,135.8L401.89,133.96L403.73,130.29L407.4,126.62L409.23,124.79L411.07,121.12L412.9,119.28L414.74,117.45L418.41,115.61L420.24,113.78L422.08,111.94L425.75,111.94L427.58,111.94L429.42,111.94L433.09,111.94L436.76,111.94L440.43,113.78L442.27,113.78L445.94,115.61L447.77,117.45L451.44,117.45L453.28,119.28L456.95,121.12L460.62,121.12L462.45,122.95L466.12,122.95L471.63,126.62L475.3,128.46L478.97,130.29L480.8,132.13L484.47,135.8L486.31,137.63L489.98,139.47L493.65,141.3L497.32,143.14L497.32,144.97L500.99,144.97L504.66,148.65L508.33,150.48L512,154.15L517.51,157.82L521.18,159.66L526.68,163.33L530.35,167L539.53,172.5L543.2,174.34L548.7,178.01L552.37,179.84L557.88,181.68L561.55,185.35L565.22,187.18L570.72,189.02L574.39,190.85L579.9,192.69L585.41,194.52L590.91,196.36L590.91,198.19L594.58,198.19L596.42,200.03L598.25,200.03L600.09,200.03L601.92,201.86L605.59,203.7L609.26,205.53L611.1,205.53L612.93,207.37L614.77,207.37L616.6,209.2L618.44,209.2L622.11,211.04L623.94,211.04L625.78,212.87L629.45,214.71L633.12,216.54L634.95,216.54L636.79,218.38L644.13,220.22L647.8,223.89L653.3,225.72L656.97,227.56L662.48,231.23L669.82,236.73L671.66,238.57" fill="none" stroke="#000000" style="-webkit-tap-highlight-color: rgba(0, 0, 0, 0); stroke-linecap: round; stroke-linejoin: round; stroke-width: 5;" /><path d="M666.15,255.08L666.15,258.75L667.99,269.76L669.82,282.61L671.66,286.28L673.49,288.11L675.33,291.78L680.83,293.62L684.5,297.29L690.01,299.13L701.02,302.8L706.52,304.63L712.03,308.3L719.37,310.14L724.87,311.97L730.38,315.64L735.89,317.48L739.56,319.31L745.06,322.98L748.73,322.98L750.57,324.82L752.4,324.82L752.4,322.98L752.4,321.15L752.4,319.31L754.24,315.64L759.74,310.14L765.25,304.63L772.59,300.96L779.93,297.29L787.27,295.46L792.77,293.62L798.28,291.78L803.78,289.95L807.46,288.11L812.96,286.28L816.63,284.44L820.3,282.61L822.14,282.61L823.97,282.61L825.81,282.61L827.64,282.61" fill="none" stroke="#000000" style="-webkit-tap-highlight-color: rgba(0, 0, 0, 0); stroke-linecap: round; stroke-linejoin: round; stroke-width: 5;" /><path d="M438.59,99.1L436.76,99.1L438.59,97.26L442.27,97.26L445.94,97.26L451.44,95.43L456.95,95.43L460.62,93.59L464.29,93.59L466.12,93.59L469.79,93.59L473.46,93.59L475.3,95.43L477.13,95.43L478.97,95.43L480.8,97.26L482.64,97.26L484.47,97.26L486.31,99.1L488.14,99.1L489.98,100.93L491.81,100.93L493.65,100.93L493.65,102.77L495.48,102.77L504.66,104.6L510.16,106.44L515.67,108.27L521.18,110.11L524.85,111.94L530.35,113.78L537.69,117.45L543.2,119.28L548.7,121.12L554.21,122.95L565.22,126.62L570.72,130.29L576.23,132.13L583.57,135.8L589.08,137.63L594.58,141.3L601.92,144.97L607.43,146.81L612.93,150.48L620.27,154.15L625.78,155.99L631.28,159.66L636.79,163.33L642.29,167L647.8,170.67L655.14,172.5L660.65,176.17L666.15,178.01L671.66,181.68L677.16,183.51L682.67,187.18L690.01,190.85L695.51,194.52L701.02,198.19L706.52,200.03L712.03,203.7L717.53,207.37L724.87,209.2L730.38,211.04L735.89,212.87L739.56,214.71L743.23,216.54L746.9,218.38L750.57,220.22L752.4,223.89L754.24,225.72L754.24,229.39L756.07,233.06L756.07,236.73L757.91,240.4L757.91,244.07L759.74,247.74L761.58,249.58L763.41,251.41L765.25,253.25L768.92,255.08L772.59,256.92L776.26,258.75L779.93,260.59L785.43,262.42L789.1,264.26L794.61,266.09L801.95,266.09L807.46,267.93L814.8,269.76L820.3,273.43L827.64,275.27L834.98,278.94L840.49,280.77L844.16,282.61L847.83,284.44L849.66,286.28" fill="none" stroke="#000000" style="-webkit-tap-highlight-color: rgba(0, 0, 0, 0); stroke-linecap: round; stroke-linejoin: round; stroke-width: 5;" /><path d="M14.68,77.08L16.52,77.08L20.19,77.08L27.53,77.08L34.87,75.24L44.04,71.57L53.22,67.9L62.39,66.06L73.41,66.06L84.42,64.23L97.26,62.39L110.11,60.56L121.12,60.56L130.29,60.56L143.14,58.72L154.15,56.89L163.33,56.89L174.34,56.89L183.51,56.89L192.69,56.89L201.86,56.89L211.04,56.89L220.22,55.05L231.23,55.05L240.4,55.05L251.41,55.05L262.42,56.89L271.6,56.89L282.61,56.89L293.62,56.89L302.8,56.89L311.97,56.89L321.15,56.89L332.16,56.89L341.33,55.05L350.51,55.05L357.85,55.05L367.03,55.05L378.04,53.22L385.38,53.22L392.72,51.38L400.06,51.38L409.23,51.38L418.41,51.38L425.75,49.55L431.25,49.55L436.76,49.55L442.27,49.55L445.94,49.55L449.61,47.71L453.28,47.71L458.78,47.71L462.45,47.71L466.12,45.88L469.79,45.88L473.46,44.04L477.13,42.21L480.8,42.21L484.47,42.21L486.31,42.21" fill="none" stroke="#000000" style="-webkit-tap-highlight-color: rgba(0, 0, 0, 0); stroke-linecap: round; stroke-linejoin: round; stroke-width: 5;" /><path d="M33.03,271.6L33.03,269.76L31.2,271.6L31.2,277.1L31.2,280.77L29.36,286.28L29.36,291.78L27.53,295.46L27.53,299.13L25.69,304.63L23.86,308.3L23.86,313.81L22.02,317.48L20.19,321.15L18.35,326.65L16.52,330.32L14.68,333.99L12.85,337.66L11.01,343.17L11.01,348.67L11.01,352.34L9.18,357.85L9.18,363.35L9.18,367.03L7.34,372.53L7.34,379.87L5.51,387.21L1.84,394.55L1.84,400.06L1.84,401.89" fill="none" stroke="#000000" style="-webkit-tap-highlight-color: rgba(0, 0, 0, 0); stroke-linecap: round; stroke-linejoin: round; stroke-width: 5;" /><path d="M27.53,269.76L29.36,269.76L31.2,271.6L34.87,271.6L36.7,273.43L40.37,273.43L45.88,273.43L51.38,271.6L58.72,269.76L64.23,269.76L71.57,267.93L78.91,266.09L88.09,262.42L97.26,260.59L106.44,258.75L115.61,256.92L122.95,255.08L130.29,253.25L135.8,251.41L143.14,249.58L148.65,247.74L154.15,247.74L159.66,245.91L163.33,244.07L167,244.07L172.5,242.24L176.17,242.24L179.84,240.4L183.51,238.57L187.18,236.73L192.69,234.9L196.36,234.9L198.19,234.9" fill="none" stroke="#000000" style="-webkit-tap-highlight-color: rgba(0, 0, 0, 0); stroke-linecap: round; stroke-linejoin: round; stroke-width: 5;" /><path d="M317.48,368.86L315.64,365.19L315.64,363.35L317.48,365.19L319.31,367.03L322.98,370.7L324.82,376.2L328.49,379.87L332.16,383.54L335.83,387.21L339.5,390.88L341.33,394.55L345,398.22L346.84,401.89L348.67,403.73L350.51,405.56L352.34,409.23L352.34,411.07L354.18,411.07L354.18,412.9L352.34,414.74L348.67,416.57L346.84,420.24L343.17,422.08L341.33,423.91L337.66,425.75L333.99,427.58L330.32,427.58L328.49,429.42L326.65,431.25L326.65,433.09L326.65,434.92L328.49,436.76L328.49,440.43L330.32,444.1L332.16,447.77L333.99,449.61L335.83,453.28L337.66,456.95L337.66,458.78L339.5,466.12L339.5,469.79L339.5,473.46L339.5,475.3L341.33,477.13L341.33,478.97L341.33,480.8L341.33,482.64L339.5,484.47L337.66,486.31L335.83,488.14L333.99,489.98L332.16,491.81L330.32,493.65L330.32,495.48L328.49,499.15L328.49,500.99L328.49,504.66L328.49,506.49L328.49,510.16L328.49,513.84L328.49,517.51L326.65,519.34L326.65,523.01L326.65,524.85L324.82,526.68L322.98,528.52L322.98,530.35L321.15,534.02L321.15,535.86L319.31,537.69L317.48,539.53L317.48,541.36L315.64,543.2L313.81,545.03L310.14,546.87L304.63,548.7L299.13,550.54L293.62,554.21L289.95,556.04L286.28,559.71L282.61,561.55L277.1,563.38L273.43,565.22L269.76,565.22L267.93,565.22L266.09,565.22L264.26,565.22" fill="none" stroke="#000000" style="-webkit-tap-highlight-color: rgba(0, 0, 0, 0); stroke-linecap: round; stroke-linejoin: round; stroke-width: 5;" /><path d="M255.08,513.84L253.25,513.84L258.75,513.84L264.26,512L271.6,512L278.94,510.16L284.44,510.16L288.11,510.16L291.78,508.33L293.62,508.33L295.46,506.49L297.29,506.49L297.29,504.66L299.13,504.66L300.96,502.82L302.8,500.99L304.63,500.99L306.47,499.15L308.3,499.15L310.14,499.15L313.81,497.32L317.48,497.32" fill="none" stroke="#000000" style="-webkit-tap-highlight-color: rgba(0, 0, 0, 0); stroke-linecap: round; stroke-linejoin: round; stroke-width: 5;" /><path d="M266.09,572.56L266.09,570.72L267.93,572.56L269.76,572.56L273.43,576.23L275.27,578.06L277.1,579.9L278.94,583.57L280.77,587.24L282.61,589.08L282.61,592.75L284.44,594.58L284.44,598.25L286.28,601.92L286.28,605.59L286.28,607.43L286.28,611.1L288.11,616.6L288.11,620.27L288.11,625.78L288.11,629.45L288.11,633.12L288.11,636.79L288.11,640.46L289.95,642.29L291.78,644.13L291.78,645.96L295.46,649.63L299.13,651.47L302.8,651.47L306.47,653.3L311.97,655.14L317.48,655.14L319.31,655.14L333.99,656.97L343.17,656.97L352.34,656.97L361.52,658.81L370.7,660.65L378.04,662.48L385.38,664.32L390.88,666.15L396.39,667.99L401.89,669.82L405.56,671.66L409.23,673.49L412.9,673.49L414.74,675.33L418.41,677.16L422.08,679L425.75,679L427.58,680.83L431.25,680.83L436.76,680.83L440.43,680.83L442.27,680.83L445.94,682.67L449.61,682.67L453.28,682.67L456.95,682.67L462.45,680.83L464.29,680.83L467.96,680.83L471.63,680.83L473.46,679L477.13,679L478.97,679L482.64,679L484.47,679L486.31,679L488.14,679L491.81,679L493.65,679L495.48,679L497.32,679L499.15,677.16L500.99,677.16L506.49,677.16" fill="none" stroke="#000000" style="-webkit-tap-highlight-color: rgba(0, 0, 0, 0); stroke-linecap: round; stroke-linejoin: round; stroke-width: 5;" /><path d="M860.67,416.57L858.84,416.57L857,423.91L857,425.75L858.84,425.75L862.51,412.9L864.34,405.56L868.01,398.22L869.85,390.88L875.35,385.38L879.03,378.04L884.53,372.53L888.2,365.19L890.04,359.68L893.71,356.01L895.54,352.34L899.21,352.34L902.88,352.34L904.72,354.18L906.55,354.18L908.39,352.34L910.22,346.84L913.89,341.33L915.73,333.99L917.56,328.49L917.56,326.65L917.56,324.82L919.4,322.98L921.23,321.15L924.9,319.31L926.74,317.48L928.57,317.48L932.24,317.48L937.75,317.48L943.25,317.48L948.76,315.64L954.27,315.64L961.61,315.64L967.11,315.64L972.62,311.97L978.12,310.14L981.79,308.3L983.63,308.3L987.3,308.3L989.13,306.47L990.97,306.47L994.64,306.47L998.31,308.3L1001.98,310.14L1005.65,313.81L1009.32,315.64L1014.82,319.31L1018.49,321.15L1022.16,321.15" fill="none" stroke="#000000" style="-webkit-tap-highlight-color: rgba(0, 0, 0, 0); stroke-linecap: round; stroke-linejoin: round; stroke-width: 5;" /><path d="M913.89,383.54L913.89,381.71L913.89,385.38L908.39,401.89L904.72,411.07L901.05,420.24L897.38,429.42L893.71,434.92L891.87,440.43L888.2,445.94L886.37,449.61L882.7,451.44L879.03,455.11L875.35,458.78L869.85,460.62L866.18,464.29L862.51,467.96L858.84,469.79L855.17,473.46L853.33,477.13L851.5,480.8L849.66,486.31L847.83,491.81L845.99,497.32L842.32,502.82L838.65,508.33L838.65,512" fill="none" stroke="#000000" style="-webkit-tap-highlight-color: rgba(0, 0, 0, 0); stroke-linecap: round; stroke-linejoin: round; stroke-width: 5;" /><path d="M745.06,322.98L743.23,321.15L743.23,322.98L743.23,324.82L743.23,330.32L741.39,337.66L739.56,346.84L737.72,357.85L735.89,368.86L734.05,376.2L734.05,383.54L732.22,389.05L732.22,392.72L734.05,392.72" fill="none" stroke="#000000" style="-webkit-tap-highlight-color: rgba(0, 0, 0, 0); stroke-linecap: round; stroke-linejoin: round; stroke-width: 5;" /><path d="M840.49,284.44L840.49,282.61L838.65,280.77L838.65,282.61L836.82,284.44L834.98,289.95L833.15,293.62L829.48,300.96L827.64,306.47L825.81,311.97L825.81,317.48L825.81,324.82L823.97,332.16L823.97,339.5L823.97,345L823.97,348.67L822.14,350.51L822.14,352.34" fill="none" stroke="#000000" style="-webkit-tap-highlight-color: rgba(0, 0, 0, 0); stroke-linecap: round; stroke-linejoin: round; stroke-width: 5;" /><path d="M737.72,401.89L735.89,401.89L735.89,400.06L739.56,396.39L746.9,390.88L752.4,385.38L761.58,378.04L768.92,372.53L778.09,367.03L785.43,363.35L792.77,357.85L800.11,354.18L807.46,350.51L814.8,346.84L818.47,343.17L823.97,341.33L827.64,339.5L831.31,335.83L833.15,333.99L834.98,332.16L833.15,333.99" fill="none" stroke="#000000" style="-webkit-tap-highlight-color: rgba(0, 0, 0, 0); stroke-linecap: round; stroke-linejoin: round; stroke-width: 5;" /><path d="M735.89,401.89L735.89,400.06L734.05,400.06L735.89,400.06L739.56,401.89L743.23,403.73L748.73,405.56L754.24,405.56L759.74,407.4L765.25,409.23L768.92,412.9L774.42,414.74L779.93,416.57L785.43,416.57L790.94,418.41L794.61,420.24L798.28,422.08L801.95,423.91L803.78,425.75L807.46,427.58L809.29,427.58L811.13,429.42L812.96,431.25L812.96,433.09L814.8,433.09L816.63,434.92L818.47,434.92L820.3,436.76L822.14,438.59L823.97,440.43L825.81,442.27L827.64,442.27L831.31,444.1L833.15,445.94L836.82,445.94L838.65,447.77L840.49,447.77L842.32,447.77L844.16,449.61L845.99,449.61L847.83,451.44L849.66,451.44L851.5,451.44L853.33,455.11L855.17,456.95L857,456.95L858.84,456.95L860.67,456.95L864.34,458.78L869.85,462.45" fill="none" stroke="#000000" style="-webkit-tap-highlight-color: rgba(0, 0, 0, 0); stroke-linecap: round; stroke-linejoin: round; stroke-width: 5;" /></svg>