<?xml version="1.0" encoding="utf-8" ?>
<svg baseProfile="full" height="755" version="1.1" width="1024" xmlns="http://www.w3.org/2000/svg" xmlns:ev="http://www.w3.org/2001/xml-events" xmlns:xlink="http://www.w3.org/1999/xlink"><defs /><path d="M933.54,15.38L931.73,15.38L929.92,15.38L929.92,17.19L929.92,19L929.92,20.81L929.92,22.61L929.92,26.23L929.92,29.85L929.92,33.47L929.92,37.09L929.92,40.71L929.92,44.33L929.92,47.94L928.11,51.56L928.11,53.37L928.11,55.18L928.11,56.99L928.11,58.8L928.11,62.42L928.11,64.23L929.92,67.84L931.73,69.65L931.73,73.27L933.54,75.08L933.54,78.7L933.54,82.32L933.54,85.94L933.54,89.55L933.54,93.17L933.54,98.6L935.35,104.03L935.35,109.46L935.35,113.07L937.16,122.12L937.16,127.55L938.97,131.17L938.97,136.59L940.78,142.02L940.78,147.45L942.59,151.07L942.59,154.69L942.59,160.11L942.59,163.73L942.59,169.16L942.59,172.78L942.59,176.4L942.59,181.82L942.59,187.25L940.78,194.49L938.97,201.72L938.97,207.15L938.97,212.58L937.16,214.39L937.16,216.2L937.16,219.82L937.16,221.63L937.16,225.24L937.16,227.05L937.16,230.67L937.16,232.48L937.16,236.1L937.16,237.91L937.16,239.72L937.16,241.53L937.16,239.72L937.16,232.48L937.16,230.67" fill="none" stroke="#000000" style="-webkit-tap-highlight-color: rgba(0, 0, 0, 0); stroke-linecap: round; stroke-linejoin: round; stroke-width: 5;" /><path d="M964.3,89.55L964.3,87.75L962.49,85.94L960.68,84.13L960.68,82.32L960.68,80.51L958.87,84.13L957.06,89.55L955.25,96.79L955.25,104.03L953.44,111.27L953.44,120.31L953.44,127.55L953.44,132.98L955.25,136.59L955.25,140.21L955.25,143.83L955.25,149.26L955.25,152.88L955.25,156.49L955.25,161.92L955.25,165.54L955.25,167.35L955.25,169.16L955.25,172.78L955.25,174.59L955.25,178.2L955.25,180.01L955.25,183.63L955.25,185.44L955.25,189.06L953.44,192.68L953.44,196.3L953.44,199.92L953.44,201.72L953.44,203.53L953.44,205.34L955.25,207.15L955.25,208.96L955.25,210.77L955.25,214.39L957.06,214.39L957.06,216.2L957.06,214.39L955.25,212.58L955.25,208.96" fill="none" stroke="#000000" style="-webkit-tap-highlight-color: rgba(0, 0, 0, 0); stroke-linecap: round; stroke-linejoin: round; stroke-width: 5;" /><path d="M931.73,20.81L931.73,19L929.92,19L928.11,17.19L928.11,19L929.92,20.81L931.73,24.42L933.54,28.04L935.35,29.85L937.16,33.47L938.97,38.9L940.78,42.52L942.59,44.33L942.59,47.94L944.4,51.56L946.2,55.18L946.2,58.8L946.2,62.42L948.01,66.04L948.01,67.84L948.01,69.65L949.82,71.46L951.63,73.27L951.63,75.08L953.44,78.7L953.44,80.51L953.44,84.13L953.44,85.94L955.25,85.94L955.25,87.75" fill="none" stroke="#000000" style="-webkit-tap-highlight-color: rgba(0, 0, 0, 0); stroke-linecap: round; stroke-linejoin: round; stroke-width: 5;" /><path d="M966.11,142.02L964.3,142.02L962.49,140.21L960.68,140.21L960.68,138.4L958.87,138.4L960.68,138.4L962.49,138.4L964.3,136.59L967.92,136.59L969.72,136.59L971.53,138.4L973.34,140.21L975.15,142.02L975.15,143.83L975.15,147.45L975.15,151.07L975.15,152.88L975.15,156.49L975.15,158.3L976.96,160.11L976.96,161.92L976.96,163.73L976.96,165.54L976.96,167.35L976.96,170.97L976.96,172.78L976.96,174.59L976.96,178.2L976.96,180.01L976.96,183.63L976.96,185.44L976.96,187.25L976.96,190.87L976.96,192.68L978.77,192.68L978.77,194.49L980.58,196.3L982.39,198.11L984.2,198.11L984.2,196.3L982.39,196.3L982.39,194.49" fill="none" stroke="#000000" style="-webkit-tap-highlight-color: rgba(0, 0, 0, 0); stroke-linecap: round; stroke-linejoin: round; stroke-width: 5;" /><path d="M1004.1,185.44L1004.1,183.63L1004.1,181.82L1005.91,178.2L1007.72,176.4L1009.53,172.78L1013.14,169.16L1014.95,167.35L1016.76,167.35L1014.95,167.35L1013.14,169.16L1009.53,170.97L1005.91,172.78L1002.29,174.59L998.67,178.2L995.05,180.01L989.63,183.63L984.2,187.25L978.77,190.87L973.34,196.3L967.92,199.92L964.3,205.34L960.68,208.96L957.06,212.58L955.25,218.01L951.63,221.63L949.82,227.05L946.2,232.48L944.4,237.91L940.78,243.34L938.97,246.95L937.16,252.38L935.35,256L931.73,259.62L929.92,261.43L928.11,263.24L926.3,266.86L920.88,270.47L919.07,270.47L917.26,272.28L915.45,274.09L913.64,274.09L913.64,275.9L911.83,277.71L910.02,277.71L910.02,279.52L908.21,279.52L906.4,279.52L902.78,279.52L900.98,279.52L899.17,279.52L897.36,277.71L897.36,275.9L895.55,275.9L895.55,274.09L895.55,272.28L893.74,272.28L891.93,272.28L890.12,272.28L888.31,274.09L884.69,275.9L882.88,277.71L879.27,279.52L875.65,281.33L872.03,283.14L870.22,284.95L868.41,286.76L866.6,288.57L864.79,290.37L862.98,292.18L862.98,293.99L862.98,297.61L862.98,301.23L862.98,303.04L862.98,306.66L862.98,310.28L862.98,313.89L862.98,315.7L862.98,319.32L862.98,322.94L861.17,326.56L861.17,330.18L861.17,333.8L859.36,335.6L857.55,337.41L855.75,339.22L853.94,341.03L852.13,342.84L850.32,344.65L848.51,346.46L846.7,348.27L843.08,351.89L839.46,353.7L837.65,357.31L834.04,359.12L826.8,364.55L823.18,366.36L819.56,369.98L815.94,371.79L812.33,375.41L808.71,379.02L805.09,380.83L801.47,384.45L799.66,388.07L796.04,389.88L794.23,393.5L792.42,395.31L790.61,395.31L788.81,398.93L785.19,400.73L783.38,404.35L779.76,406.16L776.14,409.78L772.52,413.4L768.9,415.21L765.29,418.83L761.67,420.64L758.05,424.25L756.24,427.87L752.62,433.3L749,436.92L745.39,440.54L741.77,442.35L738.15,444.16L736.34,445.96L734.53,449.58L730.91,453.2L729.1,455.01L727.29,458.63L725.48,460.44L723.67,462.25L721.87,464.06L720.06,467.67L720.06,471.29L718.25,474.91L716.44,478.53L716.44,482.15L714.63,485.77L712.82,489.39L712.82,493L711.01,496.62L711.01,498.43L709.2,502.05L707.39,503.86L705.58,509.29L705.58,511.1L703.77,514.71L701.96,518.33L701.96,521.95L700.16,525.57L698.35,527.38L698.35,529.19L696.54,531L696.54,534.61L694.73,536.42L692.92,541.85L692.92,543.66L691.11,545.47L689.3,547.28L687.49,547.28L685.68,549.09L683.87,549.09L680.25,550.9L678.45,552.71L673.02,554.52L669.4,558.13L665.78,559.94L663.97,561.75L662.16,563.56L660.35,563.56L658.54,563.56L656.73,565.37L653.12,567.18L649.5,570.8L645.88,572.61L642.26,574.42L640.45,576.23L638.64,576.23L636.83,576.23L635.02,576.23L633.22,576.23L631.41,576.23L629.6,576.23L625.98,574.42L624.17,574.42L620.55,574.42L616.93,576.23L615.12,578.04L613.31,581.65L611.51,585.27L609.7,588.89L606.08,594.32L604.27,597.94L602.46,601.55L600.65,603.36L598.84,606.98L598.84,608.79L597.03,612.41L597.03,616.03L595.22,621.46L591.6,625.07L589.8,628.69L586.18,632.31L584.37,637.74L582.56,641.36L580.75,644.98L578.94,648.59L578.94,650.4L577.13,654.02L575.32,657.64L575.32,663.07L575.32,668.49L575.32,673.92L575.32,684.78L573.51,688.4L571.7,693.82L571.7,695.63L569.89,699.25L568.08,704.68L568.08,710.11L566.28,713.72L566.28,719.15L566.28,720.96L564.47,722.77L564.47,726.39L562.66,728.2L562.66,731.82L560.85,735.43L560.85,740.86L559.04,746.29L557.23,749.91L555.42,753.53" fill="none" stroke="#000000" style="-webkit-tap-highlight-color: rgba(0, 0, 0, 0); stroke-linecap: round; stroke-linejoin: round; stroke-width: 5;" /><path d="M531.9,225.24L531.9,223.43L530.09,223.43L528.28,225.24L526.47,225.24L526.47,227.05L524.66,227.05L522.86,227.05L521.05,227.05L519.24,227.05L517.43,227.05L515.62,228.86L513.81,228.86L512,230.67L512,232.48L510.19,234.29L510.19,236.1L508.38,237.91L508.38,239.72L508.38,241.53L508.38,243.34L510.19,243.34L512,243.34L512,245.14L512,246.95L510.19,246.95L508.38,246.95L508.38,248.76L506.57,250.57L506.57,252.38L506.57,254.19L508.38,254.19L508.38,256L508.38,257.81L508.38,259.62L508.38,261.43L508.38,263.24L508.38,265.05L508.38,266.86L508.38,268.66L508.38,270.47L506.57,270.47L504.76,272.28L502.95,272.28L502.95,274.09L502.95,275.9L502.95,277.71L504.76,277.71L506.57,279.52L508.38,279.52L508.38,281.33L508.38,283.14L506.57,283.14L504.76,283.14L502.95,283.14L501.14,283.14L499.34,283.14L499.34,284.95L497.53,284.95L495.72,284.95L495.72,286.76L493.91,286.76L493.91,288.57L493.91,290.37L492.1,290.37L492.1,292.18L490.29,292.18L490.29,293.99L488.48,295.8L488.48,297.61L490.29,297.61L490.29,299.42L488.48,301.23L486.67,301.23L484.86,301.23L483.05,301.23L481.24,301.23L479.43,301.23L477.63,301.23L477.63,299.42L475.82,299.42L475.82,301.23L475.82,303.04L474.01,304.85L474.01,306.66L472.2,308.47L470.39,310.28L470.39,312.08L470.39,313.89L470.39,315.7L470.39,317.51L470.39,319.32L470.39,321.13L470.39,322.94L470.39,324.75L468.58,324.75L468.58,326.56L466.77,326.56L464.96,328.37L463.15,328.37L461.34,328.37L461.34,330.18L461.34,331.99L461.34,333.8L459.53,335.6L459.53,337.41L459.53,339.22L457.72,341.03L457.72,342.84L457.72,344.65L455.92,344.65L454.11,344.65L452.3,344.65L450.49,344.65L448.68,344.65L446.87,342.84L445.06,342.84L443.25,342.84L441.44,344.65L441.44,346.46L441.44,348.27L441.44,350.08L441.44,351.89L441.44,353.7L439.63,355.51L439.63,357.31L439.63,359.12L437.82,360.93L437.82,362.74L436.01,364.55L436.01,366.36L434.2,368.17L432.4,369.98L432.4,371.79L432.4,373.6L432.4,375.41L432.4,377.22L432.4,379.02L432.4,380.83L432.4,382.64L430.59,382.64L430.59,384.45L428.78,384.45L426.97,384.45L425.16,384.45L423.35,382.64L421.54,382.64L421.54,384.45L421.54,386.26L419.73,386.26L419.73,388.07L419.73,389.88L419.73,391.69L417.92,393.5L417.92,395.31L417.92,397.12L417.92,398.93L416.11,400.73L416.11,402.54L416.11,404.35L416.11,406.16L414.3,407.97L412.49,409.78L412.49,411.59L410.69,411.59L410.69,409.78L410.69,407.97L408.88,407.97L407.07,407.97L405.26,407.97L405.26,409.78L403.45,411.59L401.64,413.4L401.64,415.21L399.83,417.02L399.83,418.83L399.83,420.64L399.83,422.45L399.83,424.25L399.83,426.06L399.83,427.87L399.83,429.68L399.83,431.49L399.83,433.3L399.83,435.11L398.02,435.11L398.02,436.92L396.21,436.92L394.4,436.92L392.59,435.11L390.78,435.11L388.98,433.3L387.17,433.3L387.17,435.11L385.36,436.92L385.36,438.73L385.36,440.54L383.55,442.35L383.55,444.16L383.55,445.96L381.74,447.77L381.74,449.58L381.74,451.39L381.74,453.2L381.74,455.01L381.74,456.82L381.74,458.63L381.74,460.44L379.93,462.25L378.12,462.25L376.31,460.44L374.5,460.44L370.88,458.63L369.07,458.63L367.27,456.82L365.46,456.82L363.65,456.82L361.84,456.82L361.84,458.63L361.84,460.44L361.84,462.25L361.84,464.06L361.84,465.87L361.84,467.67L361.84,469.48L361.84,471.29L361.84,473.1L361.84,474.91L360.03,476.72L360.03,478.53L360.03,480.34L360.03,482.15L360.03,483.96L358.22,483.96L358.22,485.77L358.22,487.58L358.22,489.39L358.22,491.19L356.41,493L354.6,493L350.98,493L349.17,493L347.36,491.19L345.55,491.19L343.75,491.19L341.94,491.19L341.94,493L340.13,493L340.13,494.81L340.13,496.62L340.13,498.43L338.32,500.24L338.32,502.05L336.51,502.05L336.51,503.86L334.7,505.67L332.89,507.48L332.89,509.29L332.89,511.1L331.08,512.9L331.08,514.71L331.08,516.52L331.08,518.33L331.08,520.14L329.27,520.14L327.46,520.14L327.46,518.33L323.84,518.33L322.04,516.52L320.23,516.52L318.42,514.71L316.61,514.71L314.8,514.71L314.8,516.52L314.8,518.33L314.8,520.14L314.8,521.95L314.8,525.57L314.8,527.38L312.99,529.19L312.99,531L312.99,532.81L312.99,534.61L312.99,536.42L311.18,538.23L311.18,540.04L311.18,541.85L309.37,541.85L309.37,543.66L309.37,545.47L309.37,547.28L307.56,549.09L305.75,550.9L305.75,552.71L303.94,554.52L303.94,556.33L303.94,558.13L303.94,559.94L303.94,563.56L302.13,565.37L302.13,568.99L302.13,570.8L302.13,572.61L300.33,572.61L300.33,570.8L300.33,568.99L298.52,567.18L298.52,565.37L298.52,563.56L300.33,563.56L302.13,563.56L302.13,565.37L303.94,567.18L303.94,568.99L305.75,570.8L305.75,572.61L305.75,574.42L303.94,574.42L303.94,576.23L302.13,576.23L298.52,578.04L296.71,578.04L294.9,578.04L293.09,578.04L291.28,578.04L289.47,578.04L287.66,578.04L285.85,579.84L284.04,579.84L282.23,579.84L282.23,581.65L280.42,581.65L278.61,583.46L276.81,585.27L275,587.08L273.19,588.89L273.19,590.7L271.38,594.32L271.38,596.13L271.38,597.94L271.38,599.75L273.19,601.55L275,601.55L275,603.36L275,605.17L275,606.98L273.19,608.79L271.38,610.6L269.57,612.41L267.76,612.41L265.95,614.22L262.33,614.22L260.52,614.22L258.71,614.22L256.9,616.03L255.1,616.03L253.29,616.03L251.48,614.22L249.67,614.22L247.86,614.22L246.05,614.22L246.05,616.03L244.24,616.03L242.43,617.84L240.62,619.65L238.81,621.46L237,623.27L237,625.07L235.19,626.88L235.19,628.69L235.19,630.5L237,632.31L237,634.12L237,635.93L237,639.55L238.81,641.36L238.81,643.17L238.81,644.98L238.81,646.78L238.81,648.59L238.81,650.4L238.81,652.21L238.81,654.02L238.81,655.83L238.81,657.64L238.81,659.45L240.62,661.26L240.62,663.07L240.62,666.69L242.43,668.49L242.43,670.3L244.24,672.11L244.24,673.92L244.24,675.73L244.24,677.54L244.24,679.35L244.24,682.97L242.43,688.4L242.43,690.2L242.43,692.01L240.62,695.63L238.81,697.44L238.81,699.25L237,699.25L237,701.06L235.19,701.06L235.19,702.87L233.39,702.87L233.39,704.68L231.58,704.68L231.58,706.49L229.77,706.49L227.96,708.3L226.15,710.11L224.34,710.11L224.34,711.92L222.53,711.92L220.72,713.72L218.91,713.72L217.1,715.53L215.29,715.53L213.48,717.34L211.67,717.34L209.87,717.34L208.06,719.15L206.25,719.15L202.63,719.15L200.82,720.96L199.01,720.96L197.2,722.77L193.58,722.77L189.96,722.77L188.16,724.58L184.54,724.58L182.73,724.58L179.11,726.39L177.3,726.39L173.68,726.39L171.87,728.2L168.25,728.2L164.64,728.2L159.21,730.01L157.4,730.01L153.78,730.01L151.97,730.01L150.16,728.2L148.35,726.39L146.54,724.58L144.73,722.77L141.12,722.77L137.5,720.96L135.69,720.96L132.07,720.96L126.64,719.15L123.02,719.15L119.41,720.96L117.6,720.96L113.98,722.77L110.36,726.39L108.55,728.2L104.93,731.82L101.31,735.43L99.51,737.24L97.7,740.86L95.89,742.67L94.08,742.67L95.89,740.86L97.7,739.05L103.12,733.63" fill="none" stroke="#000000" style="-webkit-tap-highlight-color: rgba(0, 0, 0, 0); stroke-linecap: round; stroke-linejoin: round; stroke-width: 5;" /><path d="M398.02,274.09L398.02,275.9L396.21,275.9L394.4,275.9L392.59,275.9L390.78,275.9L388.98,279.52L385.36,281.33L383.55,283.14L381.74,286.76L379.93,288.57L379.93,290.37L378.12,292.18L378.12,293.99L378.12,295.8L376.31,295.8L376.31,297.61L374.5,297.61L374.5,299.42L372.69,299.42L372.69,301.23L370.88,303.04L369.07,303.04L369.07,304.85L367.27,306.66L367.27,308.47L367.27,310.28L367.27,312.08L367.27,313.89L367.27,315.7L365.46,317.51L363.65,319.32L363.65,321.13L361.84,322.94L360.03,324.75L358.22,326.56L356.41,330.18L354.6,331.99L352.79,333.8L350.98,335.6L350.98,337.41L349.17,339.22L347.36,341.03L345.55,344.65L343.75,346.46L341.94,348.27L341.94,351.89L340.13,353.7L338.32,355.51L336.51,359.12L334.7,360.93L332.89,362.74L331.08,364.55L331.08,368.17L329.27,369.98L327.46,371.79L325.65,373.6L323.84,375.41L322.04,377.22L320.23,377.22L318.42,379.02L314.8,379.02L312.99,380.83L311.18,380.83L309.37,382.64L307.56,382.64L305.75,384.45L303.94,386.26L302.13,388.07L300.33,389.88L298.52,391.69L296.71,393.5L294.9,397.12L293.09,398.93L291.28,402.54L289.47,404.35L287.66,406.16L285.85,407.97L284.04,409.78L284.04,411.59L282.23,413.4L280.42,413.4L280.42,415.21L278.61,417.02L278.61,418.83L276.81,418.83L275,420.64L273.19,422.45L271.38,426.06L269.57,427.87L267.76,427.87L265.95,429.68L265.95,431.49L264.14,433.3L262.33,433.3L260.52,435.11L258.71,436.92L256.9,438.73L255.1,440.54L253.29,442.35L251.48,444.16L249.67,447.77L249.67,449.58L247.86,451.39L246.05,453.2L244.24,455.01L242.43,456.82L242.43,458.63L240.62,460.44L240.62,462.25L238.81,464.06L238.81,465.87L237,467.67L235.19,469.48L233.39,471.29L231.58,471.29L229.77,473.1L226.15,474.91L224.34,476.72L222.53,476.72L220.72,478.53L220.72,480.34L218.91,480.34L218.91,482.15L217.1,483.96L213.48,485.77L211.67,487.58L208.06,489.39L204.44,491.19L200.82,493L195.39,496.62L191.77,498.43L188.16,500.24L186.35,503.86L182.73,505.67L179.11,507.48L175.49,509.29L173.68,512.9L171.87,514.71L170.06,516.52L168.25,518.33L166.45,521.95L166.45,523.76L164.64,527.38L162.83,529.19L161.02,532.81L159.21,536.42L157.4,540.04L153.78,543.66L150.16,545.47L146.54,549.09L144.73,550.9L141.12,552.71L139.31,554.52L139.31,556.33L137.5,558.13L137.5,561.75L135.69,563.56L135.69,567.18L133.88,568.99L133.88,570.8L133.88,572.61L132.07,574.42L132.07,576.23L130.26,578.04L130.26,579.84L128.45,581.65L126.64,585.27L124.83,587.08L123.02,588.89L123.02,590.7L121.22,592.51L121.22,594.32L119.41,596.13L117.6,597.94L113.98,599.75L110.36,603.36L106.74,605.17L101.31,606.98L95.89,608.79L90.46,610.6L88.65,612.41L86.84,614.22L85.03,616.03L85.03,617.84L83.22,619.65L83.22,623.27L81.41,625.07L79.6,626.88L77.8,630.5L74.18,632.31L70.56,634.12L66.94,635.93L59.7,637.74L54.28,639.55L50.66,639.55L48.85,641.36L47.04,641.36L45.23,641.36L43.42,641.36L39.8,639.55L36.18,637.74L32.57,637.74L28.95,637.74L25.33,641.36L21.71,643.17L18.09,646.78L14.47,650.4L10.86,652.21L9.05,654.02L7.24,655.83L5.43,655.83L7.24,655.83L9.05,655.83L10.86,655.83L12.66,655.83L14.47,655.83L16.28,655.83" fill="none" stroke="#000000" style="-webkit-tap-highlight-color: rgba(0, 0, 0, 0); stroke-linecap: round; stroke-linejoin: round; stroke-width: 5;" /><path d="M398.02,301.23L398.02,303.04L399.83,303.04L403.45,303.04L407.07,303.04L410.69,303.04L416.11,303.04L419.73,303.04L423.35,304.85L426.97,304.85L430.59,304.85L434.2,304.85L439.63,304.85L443.25,304.85L450.49,303.04L455.92,301.23L461.34,301.23L468.58,301.23L472.2,301.23L474.01,301.23L475.82,303.04L477.63,304.85L479.43,304.85" fill="none" stroke="#000000" style="-webkit-tap-highlight-color: rgba(0, 0, 0, 0); stroke-linecap: round; stroke-linejoin: round; stroke-width: 5;" /><path d="M408.88,279.52L407.07,279.52L407.07,277.71L410.69,277.71L416.11,277.71L425.16,279.52L434.2,279.52L445.06,279.52L454.11,279.52L461.34,281.33L466.77,283.14L474.01,283.14L479.43,283.14L484.86,281.33L488.48,281.33L492.1,279.52L493.91,279.52L492.1,281.33L490.29,281.33" fill="none" stroke="#000000" style="-webkit-tap-highlight-color: rgba(0, 0, 0, 0); stroke-linecap: round; stroke-linejoin: round; stroke-width: 5;" /><path d="M370.88,339.22L370.88,337.41L369.07,335.6L370.88,335.6L372.69,333.8L378.12,333.8L385.36,333.8L398.02,333.8L408.88,333.8L417.92,333.8L426.97,331.99L436.01,331.99L443.25,331.99L450.49,331.99L455.92,331.99L459.53,331.99L461.34,330.18L463.15,328.37L461.34,328.37" fill="none" stroke="#000000" style="-webkit-tap-highlight-color: rgba(0, 0, 0, 0); stroke-linecap: round; stroke-linejoin: round; stroke-width: 5;" /><path d="M352.79,355.51L352.79,357.31L350.98,357.31L350.98,359.12L350.98,360.93L354.6,360.93L361.84,360.93L372.69,359.12L385.36,357.31L398.02,355.51L408.88,353.7L417.92,351.89L425.16,351.89L430.59,350.08L436.01,350.08L439.63,350.08L441.44,350.08L443.25,351.89L443.25,353.7L443.25,355.51" fill="none" stroke="#000000" style="-webkit-tap-highlight-color: rgba(0, 0, 0, 0); stroke-linecap: round; stroke-linejoin: round; stroke-width: 5;" /><path d="M334.7,379.02L336.51,379.02L340.13,380.83L345.55,380.83L352.79,382.64L360.03,382.64L365.46,384.45L369.07,384.45L372.69,384.45L378.12,382.64L381.74,382.64L387.17,382.64L392.59,382.64L396.21,382.64L399.83,382.64L403.45,382.64L407.07,380.83L410.69,380.83L414.3,380.83L417.92,380.83L421.54,379.02L425.16,379.02L428.78,379.02L432.4,379.02L434.2,377.22L436.01,377.22" fill="none" stroke="#000000" style="-webkit-tap-highlight-color: rgba(0, 0, 0, 0); stroke-linecap: round; stroke-linejoin: round; stroke-width: 5;" /><path d="M322.04,402.54L320.23,402.54L320.23,404.35L322.04,404.35L323.84,402.54L329.27,402.54L336.51,400.73L345.55,397.12L358.22,397.12L367.27,395.31L374.5,393.5L381.74,393.5L387.17,395.31L392.59,395.31L398.02,397.12L401.64,397.12L405.26,397.12L407.07,395.31L410.69,393.5L414.3,391.69L416.11,391.69L416.11,389.88" fill="none" stroke="#000000" style="-webkit-tap-highlight-color: rgba(0, 0, 0, 0); stroke-linecap: round; stroke-linejoin: round; stroke-width: 5;" /><path d="M298.52,417.02L296.71,415.21L294.9,415.21L294.9,413.4L298.52,413.4L302.13,413.4L307.56,415.21L314.8,415.21L323.84,415.21L331.08,415.21L338.32,417.02L347.36,417.02L352.79,417.02L360.03,417.02L365.46,417.02L370.88,417.02L376.31,418.83L379.93,418.83L385.36,418.83L388.98,418.83L392.59,418.83L396.21,418.83L394.4,418.83L392.59,418.83" fill="none" stroke="#000000" style="-webkit-tap-highlight-color: rgba(0, 0, 0, 0); stroke-linecap: round; stroke-linejoin: round; stroke-width: 5;" /><path d="M269.57,433.3L271.38,433.3L273.19,433.3L275,433.3L276.81,435.11L280.42,435.11L284.04,436.92L289.47,436.92L294.9,436.92L303.94,438.73L312.99,438.73L322.04,438.73L331.08,436.92L340.13,436.92L349.17,435.11L356.41,435.11L361.84,435.11L367.27,435.11L372.69,436.92L376.31,438.73L379.93,438.73L376.31,436.92" fill="none" stroke="#000000" style="-webkit-tap-highlight-color: rgba(0, 0, 0, 0); stroke-linecap: round; stroke-linejoin: round; stroke-width: 5;" /><path d="M265.95,456.82L264.14,456.82L262.33,456.82L264.14,456.82L267.76,456.82L275,456.82L285.85,456.82L296.71,456.82L307.56,456.82L314.8,455.01L322.04,455.01L329.27,455.01L336.51,456.82L343.75,456.82L349.17,456.82L354.6,456.82L360.03,456.82L363.65,456.82L361.84,456.82L360.03,456.82" fill="none" stroke="#000000" style="-webkit-tap-highlight-color: rgba(0, 0, 0, 0); stroke-linecap: round; stroke-linejoin: round; stroke-width: 5;" /><path d="M238.81,474.91L237,474.91L235.19,473.1L237,473.1L242.43,473.1L247.86,473.1L255.1,474.91L264.14,474.91L273.19,474.91L284.04,474.91L293.09,474.91L302.13,474.91L311.18,474.91L318.42,474.91L325.65,474.91L334.7,474.91L340.13,476.72L347.36,476.72L350.98,478.53L354.6,478.53L356.41,478.53L358.22,478.53L360.03,478.53L358.22,478.53" fill="none" stroke="#000000" style="-webkit-tap-highlight-color: rgba(0, 0, 0, 0); stroke-linecap: round; stroke-linejoin: round; stroke-width: 5;" /><path d="M206.25,502.05L204.44,500.24L202.63,500.24L202.63,498.43L204.44,498.43L206.25,500.24L209.87,500.24L215.29,502.05L222.53,502.05L229.77,503.86L238.81,505.67L247.86,505.67L256.9,505.67L265.95,505.67L273.19,505.67L282.23,505.67L289.47,505.67L296.71,505.67L303.94,505.67L309.37,507.48L316.61,507.48L322.04,509.29L327.46,509.29L331.08,509.29L334.7,511.1L336.51,511.1L332.89,512.9" fill="none" stroke="#000000" style="-webkit-tap-highlight-color: rgba(0, 0, 0, 0); stroke-linecap: round; stroke-linejoin: round; stroke-width: 5;" /><path d="M180.92,540.04L179.11,540.04L177.3,540.04L175.49,540.04L173.68,540.04L177.3,540.04L180.92,540.04L184.54,540.04L189.96,540.04L199.01,540.04L209.87,540.04L218.91,540.04L227.96,540.04L238.81,540.04L249.67,538.23L258.71,536.42L267.76,534.61L276.81,534.61L284.04,534.61L291.28,534.61L298.52,536.42L305.75,536.42L309.37,536.42L307.56,536.42L303.94,536.42L302.13,536.42" fill="none" stroke="#000000" style="-webkit-tap-highlight-color: rgba(0, 0, 0, 0); stroke-linecap: round; stroke-linejoin: round; stroke-width: 5;" /><path d="M128.45,567.18L130.26,565.37L135.69,565.37L144.73,565.37L155.59,565.37L162.83,565.37L171.87,565.37L179.11,565.37L188.16,565.37L197.2,565.37L204.44,565.37L211.67,567.18L218.91,567.18L224.34,568.99L229.77,570.8L237,572.61L242.43,574.42L249.67,574.42L253.29,576.23L258.71,576.23L264.14,576.23L269.57,574.42L273.19,574.42L278.61,574.42L284.04,574.42L287.66,574.42L291.28,574.42L296.71,574.42L298.52,572.61L302.13,572.61L305.75,572.61L303.94,572.61" fill="none" stroke="#000000" style="-webkit-tap-highlight-color: rgba(0, 0, 0, 0); stroke-linecap: round; stroke-linejoin: round; stroke-width: 5;" /><path d="M121.22,599.75L119.41,599.75L117.6,599.75L117.6,597.94L121.22,597.94L126.64,597.94L137.5,597.94L150.16,597.94L161.02,599.75L171.87,601.55L182.73,601.55L191.77,603.36L200.82,603.36L209.87,603.36L217.1,605.17L224.34,605.17L231.58,605.17L237,605.17L242.43,606.98L249.67,606.98L253.29,606.98L258.71,606.98L262.33,605.17L267.76,605.17L271.38,605.17L275,605.17L276.81,606.98" fill="none" stroke="#000000" style="-webkit-tap-highlight-color: rgba(0, 0, 0, 0); stroke-linecap: round; stroke-linejoin: round; stroke-width: 5;" /><path d="M83.22,644.98L79.6,643.17L77.8,643.17L75.99,643.17L74.18,641.36L79.6,643.17L86.84,643.17L97.7,644.98L108.55,644.98L121.22,644.98L135.69,643.17L148.35,643.17L159.21,643.17L170.06,643.17L177.3,643.17L184.54,644.98L189.96,644.98L195.39,644.98L202.63,644.98L208.06,644.98L213.48,643.17L218.91,641.36L218.91,639.55L218.91,637.74L218.91,635.93" fill="none" stroke="#000000" style="-webkit-tap-highlight-color: rgba(0, 0, 0, 0); stroke-linecap: round; stroke-linejoin: round; stroke-width: 5;" /><path d="M387.17,174.59L385.36,174.59L385.36,172.78L385.36,170.97L387.17,169.16L388.98,165.54L390.78,163.73L390.78,161.92L390.78,163.73L388.98,167.35L387.17,169.16L387.17,170.97L385.36,174.59L383.55,176.4L383.55,178.2L381.74,181.82L379.93,183.63L378.12,183.63L378.12,181.82L378.12,180.01L376.31,180.01L374.5,178.2L372.69,178.2L370.88,178.2L369.07,178.2L367.27,178.2L365.46,178.2L363.65,178.2L361.84,178.2L360.03,178.2L358.22,178.2L356.41,178.2L354.6,178.2L352.79,178.2L350.98,178.2L350.98,180.01L350.98,181.82L350.98,183.63L352.79,185.44L352.79,187.25L354.6,189.06L354.6,190.87L356.41,192.68L356.41,194.49L356.41,196.3L356.41,198.11L356.41,199.92L354.6,199.92L352.79,201.72L350.98,201.72L349.17,199.92L345.55,199.92L343.75,198.11L340.13,196.3L338.32,194.49L334.7,192.68L332.89,190.87L331.08,190.87L329.27,190.87L327.46,190.87L323.84,190.87L320.23,190.87L318.42,190.87L316.61,190.87L314.8,192.68L312.99,194.49L312.99,196.3L312.99,198.11L312.99,199.92L312.99,201.72L312.99,205.34L312.99,207.15L312.99,210.77L312.99,212.58L312.99,214.39L312.99,218.01L312.99,219.82L312.99,221.63L312.99,223.43L311.18,223.43L309.37,221.63L307.56,219.82L305.75,218.01L305.75,216.2L303.94,214.39L302.13,212.58L300.33,210.77L298.52,208.96L296.71,208.96L294.9,208.96L293.09,208.96L291.28,210.77L291.28,212.58L289.47,214.39L289.47,216.2L287.66,218.01L287.66,219.82L287.66,221.63L287.66,223.43L287.66,225.24L287.66,227.05L287.66,228.86L287.66,230.67L287.66,232.48L287.66,234.29L287.66,236.1L285.85,236.1L284.04,236.1L282.23,236.1L278.61,234.29L276.81,232.48L273.19,232.48L271.38,230.67L269.57,230.67L267.76,230.67L267.76,232.48L265.95,234.29L265.95,236.1L265.95,237.91L265.95,241.53L267.76,243.34L267.76,245.14L269.57,246.95L271.38,248.76L275,248.76L276.81,250.57L278.61,250.57L280.42,252.38L280.42,254.19L282.23,254.19L282.23,256L280.42,257.81L278.61,259.62L278.61,261.43L276.81,263.24L273.19,265.05L271.38,265.05L269.57,265.05L267.76,265.05L265.95,263.24L264.14,261.43L264.14,259.62L262.33,259.62L260.52,257.81L258.71,257.81L255.1,257.81L253.29,257.81L249.67,257.81L247.86,257.81L246.05,257.81L244.24,259.62L242.43,261.43L240.62,263.24L238.81,265.05L238.81,266.86L238.81,268.66L238.81,270.47L240.62,270.47L242.43,272.28L244.24,274.09L246.05,275.9L246.05,277.71L247.86,277.71L247.86,279.52L247.86,281.33L247.86,283.14L247.86,284.95L247.86,286.76L247.86,288.57L247.86,290.37L246.05,292.18L246.05,293.99L244.24,293.99L242.43,293.99L240.62,292.18L240.62,290.37L238.81,288.57L237,286.76L235.19,284.95L233.39,284.95L231.58,283.14L227.96,283.14L226.15,283.14L224.34,283.14L222.53,284.95L220.72,286.76L218.91,288.57L218.91,290.37L218.91,293.99L218.91,297.61L218.91,299.42L218.91,301.23L220.72,303.04L220.72,304.85L220.72,308.47L222.53,308.47L222.53,310.28L222.53,312.08L222.53,313.89L220.72,313.89L218.91,313.89L217.1,315.7L215.29,315.7L213.48,315.7L209.87,315.7L208.06,315.7L204.44,313.89L202.63,313.89L200.82,312.08L197.2,312.08L195.39,312.08L193.58,312.08L189.96,312.08L188.16,312.08L186.35,313.89L184.54,313.89L180.92,315.7L179.11,317.51L175.49,319.32L173.68,319.32L171.87,321.13L170.06,321.13L171.87,322.94L173.68,324.75L173.68,326.56L175.49,326.56L175.49,328.37L177.3,330.18L177.3,331.99L177.3,333.8L177.3,335.6L177.3,337.41L175.49,339.22L173.68,341.03L171.87,341.03L170.06,341.03L168.25,341.03L166.45,341.03L166.45,339.22L164.64,339.22L162.83,337.41L161.02,337.41L159.21,337.41L157.4,337.41L155.59,337.41L155.59,339.22L153.78,339.22L153.78,341.03L151.97,341.03L151.97,342.84L151.97,344.65L150.16,346.46L150.16,348.27L148.35,350.08L148.35,351.89L148.35,353.7L148.35,355.51L148.35,357.31L148.35,359.12L148.35,360.93L148.35,362.74L148.35,364.55L148.35,366.36L148.35,368.17L146.54,368.17L144.73,368.17L142.93,368.17L141.12,368.17L139.31,368.17L137.5,368.17L135.69,368.17L133.88,368.17L130.26,366.36L128.45,366.36L126.64,366.36L124.83,366.36L121.22,366.36L119.41,366.36L117.6,368.17L115.79,368.17L113.98,369.98L112.17,369.98L110.36,371.79L108.55,371.79L108.55,373.6L106.74,373.6L106.74,375.41L108.55,377.22L108.55,379.02L108.55,380.83L110.36,382.64L110.36,386.26L110.36,388.07L108.55,389.88L108.55,391.69L108.55,393.5L108.55,395.31L106.74,397.12L106.74,398.93L106.74,402.54L106.74,404.35L104.93,406.16L104.93,407.97L104.93,409.78L103.12,409.78L101.31,411.59L99.51,411.59L97.7,409.78L95.89,409.78L94.08,407.97L92.27,406.16L90.46,404.35L88.65,404.35L85.03,404.35L83.22,404.35L81.41,404.35L79.6,404.35L77.8,404.35L75.99,406.16L74.18,406.16L72.37,407.97L70.56,407.97L68.75,409.78L68.75,411.59L66.94,413.4L65.13,415.21L63.32,417.02L63.32,418.83L61.51,420.64L61.51,422.45L61.51,424.25L61.51,426.06L61.51,427.87L61.51,429.68L63.32,429.68L63.32,431.49L65.13,431.49L65.13,433.3L66.94,433.3L66.94,435.11L65.13,435.11L63.32,435.11L61.51,436.92L57.89,436.92L56.08,436.92L54.28,436.92L52.47,436.92L48.85,436.92L47.04,438.73L45.23,438.73L43.42,438.73L41.61,440.54L39.8,440.54L37.99,440.54L36.18,440.54L34.37,442.35L30.76,442.35L28.95,444.16L25.33,445.96L21.71,447.77L19.9,447.77L18.09,449.58L19.9,449.58L21.71,449.58L23.52,449.58L23.52,451.39L25.33,453.2L25.33,456.82L25.33,458.63L25.33,462.25L23.52,464.06L21.71,467.67L19.9,469.48L18.09,473.1L18.09,474.91L16.28,474.91L16.28,476.72L14.47,478.53L14.47,480.34L12.66,480.34L12.66,482.15L10.86,482.15L9.05,483.96L5.43,485.77L3.62,487.58L0,489.39" fill="none" stroke="#000000" style="-webkit-tap-highlight-color: rgba(0, 0, 0, 0); stroke-linecap: round; stroke-linejoin: round; stroke-width: 5;" /><path d="M0,498.43" fill="none" stroke="#000000" style="-webkit-tap-highlight-color: rgba(0, 0, 0, 0); stroke-linecap: round; stroke-linejoin: round; stroke-width: 5;" /><path d="M316.61,187.25L316.61,185.44L318.42,183.63L320.23,183.63L320.23,181.82L322.04,181.82L320.23,181.82L316.61,183.63L314.8,185.44L311.18,187.25L309.37,189.06L305.75,192.68L302.13,194.49L300.33,196.3L298.52,198.11L296.71,199.92L296.71,201.72L298.52,201.72L298.52,203.53L298.52,205.34L296.71,205.34L296.71,207.15L294.9,208.96L293.09,210.77L291.28,212.58L291.28,216.2L289.47,218.01L289.47,219.82L287.66,219.82L287.66,221.63L287.66,223.43L287.66,221.63L285.85,221.63L285.85,219.82L284.04,219.82L282.23,218.01L280.42,218.01L278.61,218.01L276.81,218.01L276.81,219.82L275,219.82L273.19,221.63L271.38,223.43L269.57,223.43L267.76,225.24L265.95,225.24L264.14,227.05L262.33,227.05L260.52,227.05L258.71,227.05L256.9,228.86L258.71,228.86L258.71,230.67L260.52,232.48L260.52,234.29L260.52,236.1L260.52,237.91L260.52,239.72L260.52,243.34L258.71,246.95L258.71,248.76L258.71,250.57L258.71,252.38L256.9,252.38L256.9,250.57L258.71,248.76L258.71,246.95L256.9,248.76L255.1,248.76L253.29,248.76L251.48,250.57L249.67,250.57L247.86,250.57L246.05,250.57L244.24,250.57L244.24,252.38L242.43,252.38L242.43,254.19L240.62,254.19L240.62,256L238.81,257.81L238.81,259.62L238.81,261.43L237,261.43L237,263.24L237,265.05L237,266.86L237,268.66L237,270.47L237,272.28L235.19,274.09L235.19,275.9L235.19,277.71L235.19,279.52L235.19,281.33L233.39,281.33L233.39,283.14L231.58,283.14L229.77,283.14L227.96,283.14L226.15,283.14L224.34,283.14L222.53,283.14L220.72,283.14L217.1,283.14L215.29,283.14L213.48,283.14L211.67,281.33L209.87,281.33L208.06,281.33L206.25,281.33L206.25,283.14L206.25,284.95L206.25,286.76L206.25,288.57L206.25,290.37L206.25,293.99L206.25,295.8L206.25,297.61L206.25,299.42L204.44,301.23L204.44,303.04L202.63,301.23L202.63,299.42L200.82,299.42L200.82,297.61L199.01,297.61L197.2,297.61L195.39,297.61L193.58,297.61L191.77,299.42L188.16,301.23L186.35,301.23L182.73,303.04L180.92,304.85L180.92,306.66L179.11,306.66L180.92,303.04L179.11,303.04L179.11,301.23L177.3,301.23L175.49,301.23L175.49,303.04L173.68,303.04L171.87,304.85L170.06,306.66L168.25,306.66L168.25,308.47L166.45,310.28L164.64,310.28L164.64,312.08L162.83,313.89L161.02,315.7L159.21,317.51L159.21,319.32L161.02,321.13L162.83,322.94L162.83,324.75L162.83,326.56L162.83,328.37L162.83,330.18L162.83,331.99L161.02,331.99L159.21,333.8L157.4,333.8L155.59,333.8L153.78,333.8L151.97,331.99L150.16,331.99L148.35,331.99L146.54,330.18L144.73,330.18L142.93,330.18L141.12,330.18L139.31,331.99L137.5,331.99L135.69,333.8L133.88,335.6L132.07,337.41L130.26,339.22L128.45,339.22L128.45,341.03L126.64,342.84L126.64,344.65L126.64,346.46L126.64,348.27L126.64,350.08L128.45,351.89L128.45,353.7L128.45,355.51L128.45,357.31L128.45,359.12L126.64,359.12L124.83,360.93L123.02,360.93L121.22,359.12L119.41,359.12L117.6,359.12L115.79,357.31L113.98,357.31L112.17,357.31L112.17,359.12L110.36,359.12L110.36,360.93L108.55,360.93L108.55,362.74L106.74,364.55L104.93,364.55L104.93,366.36L103.12,368.17L101.31,369.98L99.51,371.79L99.51,373.6L97.7,373.6L97.7,375.41L95.89,375.41L95.89,377.22L95.89,379.02L94.08,380.83L94.08,382.64L94.08,384.45L94.08,386.26L94.08,388.07L94.08,389.88L92.27,391.69L90.46,393.5L88.65,393.5L86.84,395.31L85.03,395.31L83.22,395.31L81.41,395.31L79.6,395.31L77.8,395.31L75.99,395.31L74.18,395.31L72.37,395.31L70.56,395.31L70.56,397.12L70.56,398.93L68.75,400.73L68.75,402.54L68.75,404.35L66.94,404.35L66.94,406.16L65.13,406.16L63.32,406.16L61.51,406.16L61.51,407.97L59.7,407.97L59.7,409.78L59.7,411.59L57.89,411.59L57.89,413.4L56.08,413.4L56.08,415.21L54.28,415.21L54.28,417.02L52.47,417.02L52.47,418.83L50.66,418.83L48.85,418.83L47.04,418.83L43.42,418.83L39.8,418.83L36.18,418.83L34.37,418.83L32.57,418.83L30.76,418.83L28.95,417.02L27.14,417.02L27.14,418.83L27.14,420.64L25.33,422.45L25.33,424.25L25.33,426.06L25.33,427.87L25.33,429.68L25.33,431.49L25.33,433.3L25.33,436.92L25.33,438.73L25.33,440.54L25.33,442.35L25.33,444.16L23.52,444.16L21.71,444.16L19.9,444.16L18.09,444.16L16.28,442.35L12.66,442.35L10.86,440.54L7.24,440.54L5.43,440.54L3.62,442.35L3.62,444.16L3.62,445.96L3.62,447.77L3.62,449.58L3.62,451.39L3.62,455.01L3.62,458.63L1.81,460.44L1.81,464.06L1.81,465.87L1.81,469.48L1.81,473.1L0,476.72L0,478.53L0,480.34L0,482.15L1.81,482.15L5.43,478.53L7.24,478.53" fill="none" stroke="#000000" style="-webkit-tap-highlight-color: rgba(0, 0, 0, 0); stroke-linecap: round; stroke-linejoin: round; stroke-width: 5;" /><path d="M157.4,158.3L157.4,156.49L157.4,154.69L159.21,152.88L159.21,151.07L161.02,151.07L161.02,149.26L162.83,149.26L161.02,149.26L161.02,151.07L161.02,152.88L159.21,154.69L159.21,156.49L159.21,158.3L159.21,160.11L159.21,163.73L159.21,165.54L159.21,169.16L161.02,172.78L161.02,176.4L162.83,181.82L162.83,185.44L162.83,190.87L162.83,194.49L162.83,199.92L162.83,203.53L162.83,208.96L162.83,212.58L164.64,216.2L164.64,219.82L164.64,221.63L164.64,225.24L164.64,228.86L164.64,234.29L164.64,237.91L164.64,243.34L164.64,248.76L164.64,254.19L164.64,257.81L164.64,263.24L164.64,270.47L164.64,277.71L162.83,281.33L162.83,275.9L164.64,266.86L168.25,252.38L168.25,248.76" fill="none" stroke="#000000" style="-webkit-tap-highlight-color: rgba(0, 0, 0, 0); stroke-linecap: round; stroke-linejoin: round; stroke-width: 5;" /><path d="M179.11,154.69L177.3,154.69L171.87,154.69L171.87,156.49L170.06,156.49L170.06,160.11L170.06,165.54L171.87,172.78L171.87,183.63L173.68,194.49L175.49,203.53L175.49,212.58L177.3,219.82L177.3,227.05L177.3,232.48L177.3,237.91L177.3,243.34L177.3,248.76L177.3,252.38L177.3,256L177.3,257.81L177.3,261.43L177.3,263.24L177.3,257.81L177.3,250.57" fill="none" stroke="#000000" style="-webkit-tap-highlight-color: rgba(0, 0, 0, 0); stroke-linecap: round; stroke-linejoin: round; stroke-width: 5;" /><path d="M155.59,149.26L153.78,149.26L153.78,151.07L153.78,152.88L153.78,154.69L151.97,156.49L150.16,156.49L148.35,156.49L146.54,156.49L142.93,154.69L141.12,154.69L139.31,154.69L139.31,152.88L141.12,151.07L141.12,149.26L142.93,147.45L142.93,143.83L144.73,140.21L144.73,136.59L144.73,132.98L144.73,129.36L146.54,127.55L146.54,123.93L146.54,122.12L146.54,120.31L144.73,120.31L144.73,118.5L146.54,118.5L148.35,118.5L150.16,118.5L151.97,118.5L153.78,118.5L155.59,118.5L157.4,118.5L159.21,118.5L161.02,118.5L161.02,120.31L161.02,122.12L161.02,123.93L159.21,125.74L159.21,129.36L157.4,131.17L157.4,134.78L157.4,136.59L157.4,138.4L157.4,142.02L157.4,143.83L157.4,147.45L157.4,149.26L157.4,151.07L157.4,149.26L159.21,147.45" fill="none" stroke="#000000" style="-webkit-tap-highlight-color: rgba(0, 0, 0, 0); stroke-linecap: round; stroke-linejoin: round; stroke-width: 5;" /><path d="M164.64,116.69L162.83,116.69L161.02,118.5L159.21,120.31L159.21,122.12L159.21,120.31L161.02,120.31L164.64,118.5L166.45,116.69L168.25,116.69L171.87,114.88L173.68,114.88L175.49,114.88L175.49,116.69L173.68,118.5L173.68,122.12L171.87,125.74L171.87,131.17L171.87,134.78L170.06,140.21L170.06,143.83L170.06,147.45L170.06,149.26L170.06,151.07L170.06,149.26L168.25,149.26L166.45,147.45L164.64,147.45L162.83,147.45L161.02,147.45L159.21,147.45L161.02,147.45" fill="none" stroke="#000000" style="-webkit-tap-highlight-color: rgba(0, 0, 0, 0); stroke-linecap: round; stroke-linejoin: round; stroke-width: 5;" /><path d="M180.92,123.93L177.3,123.93L175.49,123.93L173.68,123.93L175.49,123.93L179.11,123.93L182.73,123.93L186.35,125.74L191.77,125.74L197.2,125.74L199.01,125.74L200.82,125.74L202.63,123.93L200.82,123.93L200.82,125.74L200.82,129.36L199.01,132.98L199.01,136.59L199.01,140.21L199.01,145.64L199.01,151.07L199.01,154.69L199.01,156.49L199.01,158.3L197.2,158.3L195.39,158.3L193.58,156.49L188.16,156.49L184.54,156.49L180.92,158.3L177.3,158.3L177.3,160.11L175.49,160.11L177.3,160.11L180.92,158.3" fill="none" stroke="#000000" style="-webkit-tap-highlight-color: rgba(0, 0, 0, 0); stroke-linecap: round; stroke-linejoin: round; stroke-width: 5;" /><path d="M273.19,216.2L273.19,218.01L273.19,219.82L273.19,218.01L273.19,216.2L271.38,212.58L269.57,210.77L267.76,208.96L265.95,207.15L264.14,205.34L262.33,205.34L260.52,203.53L258.71,203.53L256.9,203.53L255.1,203.53L253.29,203.53L251.48,205.34L249.67,207.15L247.86,208.96L246.05,208.96L246.05,210.77L244.24,212.58L244.24,214.39L244.24,216.2L246.05,218.01L246.05,219.82L247.86,221.63L247.86,223.43L246.05,225.24L244.24,225.24L242.43,227.05L240.62,227.05L238.81,228.86L237,230.67L237,232.48L237,234.29L237,236.1L237,237.91L237,241.53L237,243.34L238.81,245.14L240.62,246.95L242.43,246.95L244.24,245.14L246.05,243.34L247.86,243.34L249.67,241.53L251.48,241.53L253.29,241.53L253.29,239.72L255.1,239.72L256.9,239.72L258.71,239.72L260.52,237.91L262.33,236.1L264.14,232.48L265.95,228.86L267.76,225.24L269.57,219.82L269.57,218.01L269.57,216.2L271.38,216.2L271.38,218.01L273.19,219.82L273.19,221.63L273.19,223.43" fill="none" stroke="#000000" style="-webkit-tap-highlight-color: rgba(0, 0, 0, 0); stroke-linecap: round; stroke-linejoin: round; stroke-width: 5;" /><path d="M206.25,219.82L204.44,219.82L204.44,218.01L206.25,218.01L206.25,221.63L206.25,223.43L206.25,227.05L206.25,232.48L206.25,236.1L206.25,239.72L206.25,243.34L206.25,246.95L206.25,248.76L206.25,250.57L208.06,252.38L208.06,254.19L208.06,252.38L206.25,250.57L204.44,250.57L202.63,250.57L200.82,250.57L202.63,252.38L204.44,252.38L208.06,254.19L209.87,254.19L211.67,254.19L213.48,252.38L215.29,250.57L217.1,248.76L217.1,246.95L217.1,245.14L217.1,243.34L217.1,241.53L215.29,237.91L213.48,236.1L213.48,234.29L211.67,232.48L211.67,230.67L209.87,230.67L209.87,228.86L209.87,227.05L209.87,225.24L211.67,225.24L211.67,223.43L213.48,223.43L215.29,225.24L217.1,225.24L218.91,227.05L222.53,230.67L224.34,232.48L226.15,234.29L227.96,236.1L229.77,237.91L231.58,237.91L233.39,236.1L233.39,234.29L235.19,232.48L235.19,228.86L233.39,225.24L231.58,223.43L227.96,219.82L224.34,218.01L218.91,218.01L215.29,218.01L213.48,218.01L209.87,219.82L208.06,221.63L204.44,221.63L204.44,223.43L202.63,223.43L204.44,223.43L206.25,223.43L208.06,223.43" fill="none" stroke="#000000" style="-webkit-tap-highlight-color: rgba(0, 0, 0, 0); stroke-linecap: round; stroke-linejoin: round; stroke-width: 5;" /><path d="M132.07,208.96L132.07,210.77L130.26,210.77L128.45,210.77L128.45,208.96L126.64,208.96L124.83,208.96L123.02,208.96L121.22,208.96L119.41,208.96L117.6,210.77L115.79,212.58L113.98,214.39L112.17,216.2L110.36,218.01L110.36,219.82L108.55,221.63L108.55,223.43L108.55,225.24L108.55,228.86L110.36,230.67L110.36,234.29L112.17,236.1L112.17,237.91L113.98,239.72L115.79,239.72L117.6,241.53L121.22,241.53L123.02,243.34L124.83,243.34L126.64,243.34L128.45,243.34L130.26,241.53L132.07,239.72L133.88,237.91L135.69,234.29L137.5,230.67L139.31,225.24L139.31,219.82L137.5,214.39L133.88,208.96L132.07,203.53L128.45,201.72L126.64,201.72L126.64,205.34L126.64,208.96L126.64,210.77" fill="none" stroke="#000000" style="-webkit-tap-highlight-color: rgba(0, 0, 0, 0); stroke-linecap: round; stroke-linejoin: round; stroke-width: 5;" /><path d="M90.46,205.34L88.65,205.34L86.84,207.15L86.84,208.96L85.03,210.77L83.22,214.39L83.22,218.01L81.41,223.43L81.41,227.05L79.6,230.67L79.6,232.48L79.6,236.1L81.41,239.72L81.41,241.53L83.22,245.14L85.03,246.95L86.84,250.57L88.65,252.38L90.46,254.19L92.27,254.19L95.89,256L97.7,256L101.31,252.38L104.93,248.76L106.74,245.14L108.55,239.72L108.55,234.29L108.55,230.67L108.55,225.24L108.55,221.63L108.55,219.82L106.74,216.2L104.93,214.39L101.31,210.77L97.7,210.77L92.27,210.77L88.65,210.77L85.03,210.77L85.03,212.58" fill="none" stroke="#000000" style="-webkit-tap-highlight-color: rgba(0, 0, 0, 0); stroke-linecap: round; stroke-linejoin: round; stroke-width: 5;" /><path d="M66.94,207.15L66.94,205.34L65.13,205.34L63.32,205.34L61.51,207.15L57.89,208.96L56.08,210.77L52.47,212.58L50.66,216.2L48.85,218.01L47.04,221.63L47.04,225.24L47.04,228.86L47.04,232.48L48.85,236.1L52.47,237.91L56.08,237.91L63.32,237.91L68.75,234.29L72.37,228.86L75.99,221.63L75.99,216.2L75.99,212.58L70.56,210.77L65.13,208.96L59.7,208.96L56.08,210.77L54.28,214.39L54.28,218.01L54.28,221.63" fill="none" stroke="#000000" style="-webkit-tap-highlight-color: rgba(0, 0, 0, 0); stroke-linecap: round; stroke-linejoin: round; stroke-width: 5;" /><path d="M3.62,266.86L1.81,266.86L0,265.05L1.81,265.05L5.43,265.05L7.24,266.86L12.66,266.86L16.28,268.66L23.52,268.66L27.14,270.47L30.76,270.47L34.37,270.47L36.18,268.66L36.18,266.86L37.99,263.24L37.99,259.62L39.8,256L39.8,252.38L41.61,248.76L41.61,245.14L43.42,243.34L45.23,241.53L47.04,239.72L48.85,239.72L50.66,239.72L54.28,237.91L56.08,237.91L57.89,237.91L59.7,237.91L61.51,239.72L65.13,239.72L66.94,241.53L68.75,241.53L70.56,243.34L72.37,243.34L74.18,245.14L75.99,246.95L77.8,248.76L79.6,250.57L79.6,252.38L81.41,254.19L83.22,256L85.03,256L86.84,257.81L88.65,257.81L92.27,257.81L94.08,257.81L95.89,257.81L97.7,257.81L99.51,257.81L101.31,257.81L103.12,256L106.74,256L108.55,254.19L110.36,254.19L112.17,254.19" fill="none" stroke="#000000" style="-webkit-tap-highlight-color: rgba(0, 0, 0, 0); stroke-linecap: round; stroke-linejoin: round; stroke-width: 5;" /><path d="M121.22,256L119.41,256L117.6,256L119.41,254.19L121.22,254.19L123.02,254.19L126.64,256L130.26,256L133.88,257.81L137.5,261.43L141.12,263.24L142.93,266.86L144.73,270.47L146.54,274.09L148.35,275.9L150.16,279.52L151.97,281.33L153.78,281.33L155.59,283.14L157.4,283.14L159.21,283.14L161.02,283.14L162.83,283.14L164.64,283.14L166.45,283.14L168.25,283.14L170.06,283.14L171.87,283.14L173.68,283.14L175.49,281.33L177.3,281.33L179.11,281.33L180.92,281.33L182.73,281.33L184.54,281.33L186.35,281.33L188.16,281.33L189.96,283.14L191.77,283.14L193.58,284.95L195.39,284.95L195.39,286.76L199.01,288.57L200.82,288.57L202.63,290.37L204.44,290.37L206.25,290.37L208.06,290.37L209.87,288.57L209.87,286.76L211.67,286.76L215.29,284.95L215.29,283.14L217.1,283.14L218.91,283.14L220.72,283.14L222.53,283.14L222.53,284.95L220.72,286.76L218.91,288.57" fill="none" stroke="#000000" style="-webkit-tap-highlight-color: rgba(0, 0, 0, 0); stroke-linecap: round; stroke-linejoin: round; stroke-width: 5;" /><path d="M5.43,218.01L3.62,218.01L1.81,218.01L0,218.01" fill="none" stroke="#000000" style="-webkit-tap-highlight-color: rgba(0, 0, 0, 0); stroke-linecap: round; stroke-linejoin: round; stroke-width: 5;" /><path d="M0,219.82L1.81,219.82L5.43,219.82L10.86,219.82L18.09,218.01L27.14,214.39L34.37,212.58L41.61,212.58L47.04,212.58L52.47,212.58L56.08,216.2L57.89,218.01L59.7,219.82L59.7,221.63" fill="none" stroke="#000000" style="-webkit-tap-highlight-color: rgba(0, 0, 0, 0); stroke-linecap: round; stroke-linejoin: round; stroke-width: 5;" /><path d="M464.96,185.44L463.15,185.44L461.34,185.44L459.53,185.44L457.72,185.44L455.92,185.44L455.92,183.63L454.11,181.82L454.11,180.01L454.11,176.4L452.3,172.78L452.3,170.97L452.3,167.35L452.3,165.54L452.3,161.92L452.3,160.11L452.3,158.3L452.3,156.49L452.3,152.88L454.11,151.07L454.11,149.26L454.11,145.64L454.11,143.83L454.11,142.02L454.11,140.21L455.92,138.4L455.92,136.59L455.92,134.78L457.72,132.98L459.53,131.17L459.53,129.36L459.53,127.55L461.34,125.74L461.34,123.93L463.15,122.12L463.15,120.31L464.96,118.5L466.77,118.5L468.58,118.5L470.39,118.5L472.2,118.5L475.82,118.5L479.43,116.69L483.05,114.88L484.86,114.88L490.29,113.07L493.91,113.07L497.53,113.07L499.34,113.07L502.95,113.07L506.57,113.07L510.19,113.07L513.81,113.07L517.43,113.07L521.05,113.07L524.66,113.07L528.28,113.07L530.09,113.07L533.71,111.27L537.33,111.27L540.95,111.27L544.57,111.27L549.99,111.27L553.61,111.27L559.04,111.27L562.66,109.46L566.28,109.46L568.08,109.46L571.7,109.46L575.32,109.46L578.94,109.46L582.56,109.46L586.18,107.65L587.99,107.65L591.6,107.65L595.22,105.84L598.84,105.84L602.46,105.84L607.89,105.84L611.51,104.03L615.12,104.03L618.74,102.22L622.36,100.41L624.17,100.41L627.79,98.6L631.41,98.6L635.02,98.6L638.64,98.6L642.26,98.6L645.88,98.6L649.5,98.6L653.12,98.6L656.73,96.79L660.35,96.79L663.97,96.79L667.59,96.79L671.21,94.98L673.02,93.17L676.64,93.17L680.25,91.36L683.87,89.55L687.49,87.75L689.3,87.75L692.92,85.94L694.73,84.13L698.35,84.13L701.96,82.32L703.77,80.51L707.39,80.51L711.01,80.51L712.82,78.7L716.44,78.7L720.06,76.89L723.67,76.89L727.29,75.08L729.1,73.27L732.72,73.27L736.34,71.46L739.96,69.65L743.58,67.84L747.19,66.04L749,64.23L754.43,64.23L758.05,62.42L761.67,60.61L765.29,58.8L768.9,55.18L772.52,53.37L776.14,51.56L781.57,47.94L785.19,46.13L788.81,44.33L794.23,42.52L797.85,40.71L801.47,38.9L805.09,37.09L808.71,37.09L812.33,35.28L814.13,35.28L817.75,33.47L821.37,33.47L823.18,33.47L826.8,31.66L830.42,31.66L832.23,31.66L835.84,31.66L837.65,31.66L841.27,31.66L844.89,31.66L846.7,29.85L850.32,29.85L853.94,29.85L857.55,29.85L861.17,28.04L864.79,28.04L868.41,28.04L872.03,26.23L873.84,26.23L877.46,24.42L881.07,24.42L884.69,22.61L888.31,22.61L891.93,22.61L895.55,22.61L900.98,22.61L904.59,22.61L908.21,22.61L911.83,20.81L913.64,20.81L917.26,20.81L920.88,20.81L924.49,20.81L928.11,20.81L931.73,20.81L933.54,20.81L937.16,22.61L938.97,24.42L940.78,26.23" fill="none" stroke="#000000" style="-webkit-tap-highlight-color: rgba(0, 0, 0, 0); stroke-linecap: round; stroke-linejoin: round; stroke-width: 5;" /><path d="M530.09,230.67L528.28,228.86L526.47,228.86L524.66,228.86L526.47,228.86L528.28,228.86L530.09,228.86L533.71,227.05L537.33,227.05L540.95,225.24L546.37,225.24L548.18,227.05L551.8,228.86L553.61,230.67L555.42,234.29L557.23,237.91L559.04,243.34L559.04,246.95L559.04,252.38L560.85,257.81L560.85,261.43L560.85,263.24L562.66,265.05L562.66,266.86L562.66,268.66L562.66,270.47L562.66,274.09L562.66,275.9L562.66,279.52L562.66,283.14L562.66,286.76L562.66,288.57L562.66,292.18L562.66,295.8L562.66,299.42L562.66,301.23L562.66,304.85L562.66,308.47L562.66,312.08L560.85,315.7L560.85,321.13L560.85,326.56L559.04,331.99L559.04,339.22L559.04,344.65L559.04,350.08L559.04,355.51L559.04,359.12L559.04,364.55L560.85,369.98L560.85,373.6L562.66,377.22L562.66,380.83L564.47,384.45L564.47,388.07L564.47,391.69L566.28,395.31L566.28,400.73L566.28,406.16L566.28,411.59L566.28,417.02L568.08,422.45L568.08,427.87L569.89,431.49L569.89,435.11L569.89,440.54L569.89,444.16L569.89,447.77L571.7,451.39L571.7,456.82L571.7,460.44L571.7,465.87L571.7,473.1L571.7,480.34L571.7,485.77L571.7,493L571.7,500.24L571.7,507.48L571.7,512.9L571.7,520.14L571.7,527.38L571.7,532.81L571.7,538.23L569.89,543.66L569.89,549.09L569.89,554.52L569.89,559.94L568.08,565.37L568.08,568.99L568.08,572.61L568.08,576.23L566.28,578.04L566.28,581.65L566.28,585.27L568.08,590.7L569.89,597.94L571.7,603.36L573.51,606.98L573.51,608.79L573.51,606.98L571.7,606.98L569.89,606.98L568.08,606.98L564.47,606.98L560.85,608.79L553.61,610.6L546.37,612.41L539.14,614.22L530.09,616.03L522.86,617.84L515.62,621.46L510.19,623.27L506.57,625.07L501.14,626.88L495.72,626.88L490.29,628.69L483.05,628.69L475.82,630.5L468.58,634.12L461.34,637.74L452.3,641.36L443.25,644.98L434.2,650.4L423.35,654.02L412.49,657.64L403.45,661.26L394.4,664.88L385.36,668.49L376.31,672.11L367.27,673.92L360.03,677.54L350.98,679.35L343.75,682.97L336.51,684.78L331.08,684.78L325.65,684.78L320.23,686.59L312.99,686.59L307.56,688.4L300.33,690.2L293.09,690.2L287.66,692.01L280.42,695.63L275,697.44L269.57,699.25L264.14,701.06L256.9,702.87L249.67,706.49L244.24,708.3L238.81,708.3L235.19,710.11L231.58,711.92L227.96,713.72L224.34,715.53L220.72,719.15L217.1,720.96L217.1,722.77L222.53,722.77L227.96,722.77" fill="none" stroke="#000000" style="-webkit-tap-highlight-color: rgba(0, 0, 0, 0); stroke-linecap: round; stroke-linejoin: round; stroke-width: 5;" /><path d="M573.51,599.75L575.32,599.75L577.13,601.55L578.94,603.36L584.37,605.17L589.8,605.17L597.03,606.98L600.65,608.79L604.27,610.6L606.08,610.6" fill="none" stroke="#000000" style="-webkit-tap-highlight-color: rgba(0, 0, 0, 0); stroke-linecap: round; stroke-linejoin: round; stroke-width: 5;" /></svg>