<?xml version="1.0" encoding="utf-8" ?>
<svg baseProfile="full" height="1397" version="1.1" width="1024" xmlns="http://www.w3.org/2000/svg" xmlns:ev="http://www.w3.org/2001/xml-events" xmlns:xlink="http://www.w3.org/1999/xlink"><defs /><path d="M901.86,123.37" fill="none" stroke="#000000" style="-webkit-tap-highlight-color: rgba(0, 0, 0, 0); stroke-linecap: round; stroke-linejoin: round; stroke-width: 6;" /><path d="M196.16,106.1L196.16,103.63L193.7,103.63L193.7,101.17L193.7,98.7L191.23,96.23L193.7,98.7L193.7,101.17L196.16,106.1L201.1,108.57L203.57,113.5L208.5,118.44L213.44,125.84L218.37,130.78L223.31,135.71L225.77,140.65L228.24,145.58L230.71,150.52L233.18,155.45L233.18,160.39L235.64,162.85L235.64,167.79L238.11,172.72L238.11,177.66L240.58,182.59L243.05,187.53L245.51,192.46L247.98,197.4L247.98,202.33L250.45,207.27L252.92,214.67L252.92,222.07L255.38,227.01L257.85,229.47L257.85,234.41L260.32,234.41L262.79,231.94L262.79,229.47" fill="none" stroke="#000000" style="-webkit-tap-highlight-color: rgba(0, 0, 0, 0); stroke-linecap: round; stroke-linejoin: round; stroke-width: 6;" /><path d="M203.57,88.83L201.1,88.83L198.63,88.83L198.63,91.3L203.57,91.3L208.5,91.3L215.9,91.3L223.31,93.76L233.18,93.76L245.51,93.76L257.85,93.76L267.72,93.76L277.59,93.76L287.46,91.3L294.86,88.83L304.73,83.89L317.07,83.89L326.94,81.43L334.34,81.43L339.28,81.43L346.68,83.89L354.08,86.36L361.48,86.36L366.42,86.36L373.82,86.36L381.22,86.36L388.63,86.36L393.56,86.36L400.96,86.36L408.37,86.36L415.77,83.89L423.17,83.89L433.04,83.89L442.91,83.89L452.78,83.89L465.12,81.43L479.92,81.43L492.26,81.43L504.6,78.96L514.47,76.49L526.8,74.02L536.67,74.02L546.54,74.02L556.41,74.02L566.28,76.49L573.69,78.96L583.56,78.96L590.96,81.43L600.83,81.43L608.23,81.43L615.63,81.43L625.5,81.43L632.91,81.43L640.31,83.89L647.71,86.36L662.52,91.3L672.39,93.76L677.32,96.23L684.72,98.7L692.13,98.7L697.06,98.7L702,98.7L709.4,98.7L714.33,98.7L721.73,98.7L729.14,98.7L736.54,98.7L741.47,98.7L746.41,98.7L751.34,96.23L753.81,96.23L756.28,96.23L756.28,98.7L756.28,101.17L756.28,103.63L753.81,108.57" fill="none" stroke="#000000" style="-webkit-tap-highlight-color: rgba(0, 0, 0, 0); stroke-linecap: round; stroke-linejoin: round; stroke-width: 6;" /><path d="M763.68,115.97L761.21,118.44L758.75,118.44L753.81,120.91L751.34,123.37L748.88,123.37L748.88,125.84L746.41,128.31L743.94,130.78L741.47,138.18L739.01,143.11L736.54,150.52L731.6,157.92L726.67,162.85L724.2,170.26L719.27,177.66L716.8,182.59L711.87,187.53L711.87,190L706.93,194.93L702,202.33L697.06,204.8L694.59,209.73L694.59,212.2L692.13,217.14L689.66,219.6L687.19,222.07L687.19,227.01L684.72,229.47L684.72,231.94L682.26,234.41L684.72,234.41L687.19,231.94L689.66,229.47" fill="none" stroke="#000000" style="-webkit-tap-highlight-color: rgba(0, 0, 0, 0); stroke-linecap: round; stroke-linejoin: round; stroke-width: 6;" /><path d="M694.59,236.88L692.13,236.88L689.66,236.88L687.19,236.88L687.19,239.34L684.72,239.34L684.72,244.28L684.72,246.75L682.26,254.15L679.79,259.08L674.85,266.49L669.92,271.42L664.98,276.36L662.52,281.29L660.05,283.76L657.58,286.23L660.05,286.23" fill="none" stroke="#000000" style="-webkit-tap-highlight-color: rgba(0, 0, 0, 0); stroke-linecap: round; stroke-linejoin: round; stroke-width: 6;" /><path d="M694.59,246.75L692.13,246.75L689.66,246.75L694.59,249.21L699.53,249.21L706.93,249.21L714.33,251.68L724.2,251.68L731.6,254.15L739.01,256.62L746.41,256.62L753.81,259.08L758.75,259.08L763.68,259.08L768.62,261.55L773.55,261.55L776.02,261.55L778.49,261.55" fill="none" stroke="#000000" style="-webkit-tap-highlight-color: rgba(0, 0, 0, 0); stroke-linecap: round; stroke-linejoin: round; stroke-width: 6;" /><path d="M776.02,261.55L776.02,264.02L773.55,264.02L771.08,266.49L771.08,268.95L768.62,273.89L768.62,276.36L768.62,281.29L768.62,286.23L768.62,293.63L766.15,301.03L766.15,308.43L766.15,315.84L766.15,323.24L766.15,328.17L766.15,333.11L763.68,338.04L763.68,345.45L761.21,350.38L761.21,355.32L758.75,360.25L756.28,365.19L753.81,372.59L753.81,375.06L751.34,379.99L751.34,384.93L748.88,389.86L748.88,394.8L746.41,399.73L743.94,407.13L743.94,412.07L741.47,417L741.47,419.47L741.47,417L739.01,414.53L734.07,412.07L731.6,412.07L726.67,409.6L721.73,407.13L716.8,404.67L711.87,402.2L709.4,399.73L706.93,397.26L706.93,394.8L709.4,389.86L711.87,384.93L714.33,379.99L714.33,367.65L716.8,355.32L716.8,340.51L716.8,328.17L716.8,315.84L719.27,308.43L719.27,301.03L721.73,298.56L721.73,291.16L721.73,286.23L721.73,283.76L721.73,286.23L721.73,291.16" fill="none" stroke="#000000" style="-webkit-tap-highlight-color: rgba(0, 0, 0, 0); stroke-linecap: round; stroke-linejoin: round; stroke-width: 6;" /><path d="M748.88,468.82L743.94,466.35L741.47,466.35L736.54,463.88L734.07,463.88L731.6,463.88L731.6,466.35L731.6,471.29L734.07,476.22L736.54,481.16L739.01,488.56L743.94,495.96L746.41,503.36L748.88,510.77L751.34,515.7L753.81,520.64L753.81,525.57L753.81,528.04L751.34,530.51L748.88,532.97L743.94,535.44L741.47,537.91L736.54,542.84L734.07,545.31L731.6,550.25L731.6,555.18L729.14,560.12L726.67,565.05L724.2,569.99L721.73,574.92L721.73,579.86L719.27,587.26L719.27,594.66L716.8,599.6L716.8,607L714.33,611.93L714.33,616.87L714.33,621.8L714.33,626.74L714.33,631.67L714.33,634.14L714.33,639.07L714.33,644.01L716.8,648.94L716.8,653.88L716.8,658.81L716.8,663.75L716.8,668.68L716.8,673.62L714.33,678.55L714.33,683.49L714.33,690.89L714.33,695.83L711.87,700.76L711.87,705.7L711.87,710.63L714.33,713.1L714.33,718.03L714.33,722.97L716.8,727.9L716.8,732.84L716.8,737.77L719.27,745.18L719.27,750.11L719.27,757.51L719.27,762.45L719.27,767.38L719.27,772.32L719.27,779.72L719.27,784.66L719.27,789.59L719.27,794.53L719.27,799.46L719.27,806.86L719.27,811.8L719.27,814.27L719.27,819.2L719.27,824.13L719.27,826.6L719.27,831.54L719.27,836.47L719.27,838.94L719.27,843.87L719.27,846.34L719.27,848.81L719.27,851.28L716.8,856.21L716.8,858.68L716.8,863.61L716.8,868.55L716.8,871.02L716.8,875.95L714.33,880.89L714.33,885.82L714.33,890.76L714.33,898.16L714.33,903.09L714.33,910.5L714.33,915.43L711.87,920.37L711.87,925.3L709.4,932.7L709.4,937.64L709.4,942.57L706.93,949.98L706.93,954.91L706.93,962.31L704.46,967.25L704.46,974.65L704.46,982.05L704.46,989.46L704.46,996.86L704.46,1001.79L704.46,1009.2L704.46,1016.6L704.46,1021.53L704.46,1026.47L704.46,1031.4L704.46,1036.34L702,1041.27L702,1046.21L702,1051.14L702,1056.08L702,1063.48L699.53,1068.41L699.53,1073.35L699.53,1078.28L699.53,1083.22L699.53,1090.62L699.53,1095.56L699.53,1102.96L699.53,1107.89L699.53,1115.3L699.53,1120.23L699.53,1125.17L699.53,1132.57L699.53,1137.5L702,1144.91L702,1152.31L702,1157.24L702,1164.65L699.53,1169.58L699.53,1176.98L697.06,1181.92L697.06,1186.85L697.06,1194.26L697.06,1199.19L697.06,1204.13L694.59,1211.53L694.59,1216.46L692.13,1223.87L689.66,1231.27L689.66,1238.67L689.66,1248.54L689.66,1255.94L689.66,1263.34L689.66,1273.21L689.66,1280.62L689.66,1288.02L689.66,1295.42L689.66,1302.82L689.66,1310.23L689.66,1315.16L689.66,1320.1L689.66,1325.03L689.66,1329.97L689.66,1334.9L689.66,1342.3L689.66,1347.24L689.66,1352.17L689.66,1357.11L689.66,1359.58L692.13,1362.04L692.13,1364.51L694.59,1364.51L697.06,1364.51L699.53,1364.51L702,1364.51L704.46,1364.51L709.4,1364.51L714.33,1362.04L716.8,1362.04L721.73,1362.04L729.14,1362.04L734.07,1362.04L739.01,1362.04L741.47,1362.04L739.01,1359.58L736.54,1357.11L734.07,1352.17L731.6,1344.77L731.6,1337.37L731.6,1329.97L731.6,1320.1L731.6,1310.23L734.07,1300.36L734.07,1290.49L736.54,1283.08L739.01,1278.15L739.01,1275.68L739.01,1268.28L739.01,1258.41L739.01,1248.54L739.01,1238.67L739.01,1231.27L739.01,1221.4L741.47,1214L741.47,1206.59L741.47,1199.19L743.94,1191.79L743.94,1181.92L743.94,1172.05L743.94,1162.18L741.47,1152.31L741.47,1144.91L743.94,1137.5L743.94,1130.1L746.41,1125.17L746.41,1117.76L748.88,1110.36L748.88,1100.49L748.88,1088.15L748.88,1075.82L748.88,1063.48L748.88,1051.14L748.88,1041.27L751.34,1031.4L751.34,1024L753.81,1014.13L753.81,1004.26L753.81,996.86L753.81,986.99L753.81,974.65L751.34,962.31L751.34,949.98L751.34,937.64L751.34,922.83L751.34,910.5L751.34,898.16L753.81,885.82L756.28,871.02L756.28,858.68L756.28,843.87L756.28,831.54L758.75,819.2L758.75,809.33L761.21,799.46L761.21,789.59L763.68,777.25L763.68,767.38L763.68,757.51L763.68,747.64L763.68,735.31L763.68,715.57L763.68,703.23L763.68,695.83L763.68,685.96L761.21,676.09L761.21,668.68L761.21,658.81L761.21,648.94L761.21,641.54L761.21,631.67L761.21,624.27L763.68,616.87L766.15,609.47L766.15,602.06L768.62,594.66L771.08,587.26L773.55,579.86L776.02,572.45L778.49,569.99L780.95,565.05L780.95,560.12L783.42,552.71L785.89,547.78L785.89,542.84L788.36,537.91L788.36,532.97L788.36,528.04L790.82,523.1L790.82,518.17L793.29,513.23L793.29,510.77L793.29,505.83L793.29,503.36L793.29,498.43L793.29,495.96L793.29,491.03L790.82,488.56L790.82,483.62L790.82,478.69L788.36,476.22L788.36,471.29L785.89,468.82L785.89,466.35L783.42,463.88L780.95,458.95L778.49,456.48L776.02,451.55L773.55,449.08L771.08,446.61L768.62,444.14L768.62,441.68L766.15,439.21L766.15,436.74L763.68,434.27L761.21,431.81L758.75,429.34L753.81,426.87L753.81,424.4L751.34,421.94L753.81,421.94" fill="none" stroke="#000000" style="-webkit-tap-highlight-color: rgba(0, 0, 0, 0); stroke-linecap: round; stroke-linejoin: round; stroke-width: 6;" /><path d="M889.52,231.94L887.06,231.94L889.52,229.47L894.46,229.47L899.39,224.54L904.33,219.6L909.26,214.67L914.2,209.73L919.13,204.8L926.53,199.87L931.47,194.93L936.4,190L938.87,185.06L943.81,177.66L948.74,172.72L953.68,170.26L958.61,167.79L963.55,165.32L968.48,162.85L975.88,160.39L980.82,157.92L985.75,155.45L990.69,152.98L995.62,150.52L998.09,148.05L998.09,145.58L995.62,148.05L993.16,148.05" fill="none" stroke="#000000" style="-webkit-tap-highlight-color: rgba(0, 0, 0, 0); stroke-linecap: round; stroke-linejoin: round; stroke-width: 6;" /><path d="M267.72,249.21L265.25,246.75L262.79,246.75L260.32,246.75L257.85,246.75L255.38,246.75L250.45,246.75L247.98,246.75L243.05,246.75L235.64,249.21L228.24,249.21L220.84,251.68L213.44,251.68L203.57,254.15L193.7,256.62L183.83,256.62L176.42,259.08L173.96,261.55L171.49,261.55L171.49,264.02L171.49,266.49L173.96,266.49L176.42,268.95L178.89,273.89L181.36,276.36L181.36,281.29L181.36,286.23L181.36,293.63L181.36,298.56L178.89,303.5L178.89,308.43L178.89,313.37L178.89,315.84L176.42,313.37L176.42,310.9L173.96,308.43L173.96,305.97L171.49,305.97L169.02,303.5L164.09,303.5L159.15,303.5L154.22,303.5L149.28,303.5L146.81,305.97L146.81,308.43L149.28,310.9L151.75,313.37L154.22,315.84L156.68,318.3L156.68,323.24L156.68,325.71L156.68,330.64L156.68,333.11L156.68,338.04L156.68,340.51L156.68,342.98L156.68,345.45L156.68,347.91L161.62,347.91L164.09,347.91L166.55,347.91L169.02,347.91L173.96,347.91L176.42,347.91L181.36,347.91L183.83,347.91L186.29,350.38L188.76,352.85L188.76,355.32L191.23,360.25L191.23,362.72L191.23,365.19L193.7,367.65L193.7,370.12L193.7,372.59L196.16,375.06L196.16,377.52L196.16,379.99L198.63,382.46L198.63,384.93L198.63,387.39L198.63,389.86L198.63,392.33L196.16,392.33L191.23,392.33L186.29,394.8L176.42,394.8L166.55,397.26L156.68,399.73L151.75,402.2L146.81,402.2L144.35,404.67L144.35,407.13L144.35,409.6L144.35,414.53L144.35,419.47L144.35,424.4L144.35,431.81L144.35,439.21L144.35,444.14L144.35,451.55L144.35,456.48L144.35,463.88L144.35,466.35L146.81,471.29L146.81,473.75L146.81,478.69L146.81,481.16L146.81,483.62L146.81,486.09L146.81,488.56L146.81,493.49L149.28,495.96L151.75,498.43L154.22,500.9L156.68,503.36L159.15,503.36L161.62,505.83L161.62,508.3L161.62,510.77L161.62,513.23L161.62,515.7L159.15,518.17L156.68,523.1L154.22,525.57L151.75,530.51L149.28,535.44L146.81,537.91L141.88,542.84L139.41,545.31L136.94,547.78L134.48,552.71L134.48,555.18L134.48,557.65L134.48,562.58L134.48,567.52L136.94,572.45L139.41,577.39L139.41,582.32L139.41,587.26L141.88,589.73L141.88,592.19L144.35,594.66L149.28,594.66L151.75,594.66L156.68,594.66L159.15,594.66L164.09,594.66L166.55,597.13L169.02,597.13L171.49,599.6L171.49,602.06L171.49,604.53L171.49,607L171.49,611.93L173.96,614.4L173.96,619.33L173.96,624.27L173.96,626.74L173.96,634.14L173.96,639.07L173.96,644.01L173.96,648.94L173.96,653.88L173.96,661.28L173.96,666.22L173.96,671.15L173.96,676.09L173.96,681.02L173.96,685.96L173.96,690.89L171.49,695.83L171.49,700.76L171.49,705.7L171.49,710.63L169.02,715.57L169.02,720.5L169.02,725.44L169.02,730.37L169.02,737.77L169.02,742.71L169.02,750.11L169.02,755.05L169.02,762.45L169.02,767.38L169.02,772.32L169.02,777.25L169.02,782.19L169.02,787.12L166.55,792.06L166.55,796.99L166.55,801.93L166.55,806.86L166.55,811.8L164.09,816.73L164.09,821.67L164.09,826.6L164.09,834L164.09,838.94L161.62,846.34L161.62,851.28L161.62,858.68L161.62,866.08L161.62,871.02L161.62,878.42L161.62,885.82L161.62,895.69L161.62,903.09L159.15,910.5L159.15,917.9L159.15,925.3L159.15,935.17L159.15,945.04L156.68,952.44L156.68,959.85L156.68,969.72L154.22,977.12L154.22,984.52L154.22,994.39L151.75,1001.79L151.75,1011.66L149.28,1021.53L149.28,1028.93L149.28,1036.34L149.28,1043.74L149.28,1051.14L146.81,1058.54L146.81,1065.95L146.81,1073.35L146.81,1078.28L146.81,1085.69L146.81,1093.09L146.81,1100.49L146.81,1107.89L146.81,1115.3L146.81,1122.7L146.81,1132.57L146.81,1139.97L146.81,1147.37L146.81,1154.78L149.28,1162.18L149.28,1169.58L149.28,1176.98L149.28,1184.39L149.28,1194.26L149.28,1201.66L149.28,1211.53L149.28,1218.93L149.28,1228.8L149.28,1238.67L151.75,1248.54L151.75,1258.41L151.75,1265.81L151.75,1278.15L151.75,1288.02L151.75,1300.36L151.75,1312.69L151.75,1322.56L151.75,1329.97L151.75,1332.43L151.75,1329.97L156.68,1325.03L159.15,1315.16" fill="none" stroke="#000000" style="-webkit-tap-highlight-color: rgba(0, 0, 0, 0); stroke-linecap: round; stroke-linejoin: round; stroke-width: 6;" /><path d="M354.08,140.65L354.08,143.11L354.08,145.58L354.08,148.05L354.08,145.58L354.08,143.11L354.08,140.65L354.08,138.18L354.08,135.71L354.08,140.65L349.15,145.58L346.68,152.98L344.21,160.39L339.28,170.26L336.81,177.66L331.87,187.53L326.94,194.93L322,202.33L317.07,207.27L312.13,214.67L304.73,222.07L299.8,227.01L294.86,234.41L289.93,239.34L282.53,246.75L277.59,254.15L272.66,259.08L267.72,261.55L267.72,264.02L270.19,264.02L275.12,264.02" fill="none" stroke="#000000" style="-webkit-tap-highlight-color: rgba(0, 0, 0, 0); stroke-linecap: round; stroke-linejoin: round; stroke-width: 6;" /><path d="M378.76,140.65L373.82,143.11L368.89,145.58L361.48,148.05L356.55,148.05L356.55,150.52L361.48,152.98L363.95,152.98L373.82,152.98L383.69,150.52L396.03,148.05L413.3,143.11L430.57,138.18L445.38,135.71L462.65,133.24L474.99,130.78L484.86,130.78L494.73,130.78L504.6,130.78L516.93,130.78L526.8,133.24L536.67,135.71L544.08,135.71L553.95,138.18L563.82,140.65L568.75,140.65L578.62,143.11L586.02,143.11L595.89,143.11L600.83,143.11L605.76,140.65L610.7,140.65L615.63,140.65L620.57,140.65L623.04,143.11L627.97,143.11L630.44,143.11L627.97,143.11L623.04,145.58" fill="none" stroke="#000000" style="-webkit-tap-highlight-color: rgba(0, 0, 0, 0); stroke-linecap: round; stroke-linejoin: round; stroke-width: 6;" /><path d="M623.04,152.98L620.57,152.98L620.57,155.45L618.1,155.45L618.1,157.92L620.57,162.85L625.5,167.79L630.44,172.72L635.37,182.59L640.31,190L645.24,197.4L647.71,202.33L647.71,209.73L650.18,214.67L650.18,219.6L650.18,222.07L652.65,222.07L652.65,219.6" fill="none" stroke="#000000" style="-webkit-tap-highlight-color: rgba(0, 0, 0, 0); stroke-linecap: round; stroke-linejoin: round; stroke-width: 6;" /><path d="M687.19,271.42L687.19,268.95L687.19,266.49L684.72,266.49L684.72,268.95L684.72,276.36L684.72,281.29L684.72,288.69L687.19,298.56L692.13,305.97L694.59,315.84L697.06,320.77L697.06,325.71L697.06,328.17L697.06,330.64L699.53,335.58L699.53,338.04L702,345.45L702,350.38L702,355.32L704.46,360.25L704.46,365.19L704.46,372.59L704.46,377.52L704.46,384.93L704.46,392.33L704.46,399.73L704.46,407.13L704.46,414.53L704.46,424.4L704.46,431.81L704.46,436.74L704.46,444.14L704.46,449.08L704.46,454.01L706.93,461.42L706.93,468.82L706.93,476.22L706.93,483.62L706.93,491.03L706.93,495.96L706.93,500.9L706.93,505.83L706.93,513.23L706.93,518.17L706.93,525.57L709.4,530.51L709.4,537.91L709.4,542.84L711.87,550.25L711.87,555.18L711.87,560.12L714.33,567.52L714.33,572.45L714.33,577.39L714.33,584.79L714.33,589.73L714.33,597.13L714.33,604.53L714.33,611.93L714.33,616.87L714.33,621.8L714.33,624.27L711.87,626.74L711.87,624.27L706.93,614.4" fill="none" stroke="#000000" style="-webkit-tap-highlight-color: rgba(0, 0, 0, 0); stroke-linecap: round; stroke-linejoin: round; stroke-width: 6;" /><path d="M270.19,288.69L267.72,288.69L265.25,286.23L262.79,286.23L262.79,288.69L262.79,293.63L262.79,303.5L265.25,313.37L265.25,325.71L267.72,338.04L267.72,350.38L267.72,362.72L267.72,372.59L265.25,382.46L265.25,389.86L265.25,397.26L265.25,402.2L262.79,412.07L260.32,421.94L257.85,434.27L257.85,444.14L255.38,451.55L255.38,458.95L252.92,468.82L252.92,478.69L250.45,486.09L247.98,495.96L247.98,505.83L245.51,513.23L245.51,520.64L245.51,528.04L243.05,535.44L243.05,545.31L243.05,552.71L243.05,560.12L240.58,569.99L240.58,579.86L240.58,587.26L238.11,594.66L238.11,602.06L238.11,609.47L235.64,616.87L235.64,626.74L235.64,634.14L235.64,641.54L235.64,648.94L235.64,658.81L235.64,666.22L235.64,676.09L235.64,683.49L235.64,690.89L235.64,700.76L238.11,718.03L238.11,725.44L240.58,732.84L240.58,737.77L240.58,745.18L240.58,752.58L240.58,757.51L243.05,764.92L243.05,772.32L243.05,777.25L245.51,782.19L245.51,789.59L245.51,794.53L245.51,801.93L245.51,809.33L245.51,816.73L245.51,821.67L245.51,829.07L245.51,836.47L245.51,846.34L245.51,853.74L245.51,863.61L245.51,875.95L245.51,885.82L245.51,895.69L245.51,905.56L245.51,915.43L245.51,925.3L245.51,935.17L243.05,942.57L243.05,952.44L240.58,959.85L240.58,969.72L240.58,979.59L240.58,989.46L238.11,1001.79L238.11,1011.66L238.11,1021.53L238.11,1033.87L238.11,1043.74L238.11,1056.08L238.11,1065.95L238.11,1075.82L238.11,1083.22L238.11,1085.69L238.11,1083.22L243.05,1073.35" fill="none" stroke="#000000" style="-webkit-tap-highlight-color: rgba(0, 0, 0, 0); stroke-linecap: round; stroke-linejoin: round; stroke-width: 6;" /><path d="M245.51,1100.49L243.05,1098.02L240.58,1098.02L238.11,1098.02L235.64,1098.02L233.18,1098.02L230.71,1100.49L228.24,1102.96L225.77,1110.36L220.84,1120.23L210.97,1137.5L201.1,1157.24L191.23,1174.52L183.83,1186.85L181.36,1194.26L178.89,1204.13L176.42,1216.46L173.96,1228.8L169.02,1241.14L169.02,1251.01L166.55,1260.88L164.09,1268.28L161.62,1278.15L159.15,1288.02L159.15,1297.89L156.68,1307.76L151.75,1317.63L149.28,1327.5L144.35,1334.9L141.88,1337.37L139.41,1337.37L141.88,1332.43L146.81,1327.5" fill="none" stroke="#000000" style="-webkit-tap-highlight-color: rgba(0, 0, 0, 0); stroke-linecap: round; stroke-linejoin: round; stroke-width: 6;" /><path d="M247.98,856.21L247.98,851.28L247.98,848.81L245.51,843.87L245.51,841.41L243.05,838.94L243.05,841.41L247.98,843.87L252.92,843.87L260.32,846.34L270.19,846.34L282.53,846.34L294.86,846.34L304.73,846.34L317.07,846.34L329.41,846.34L339.28,848.81L351.61,848.81L361.48,848.81L368.89,848.81L376.29,848.81L386.16,848.81L393.56,848.81L403.43,848.81L413.3,848.81L423.17,848.81L435.51,848.81L445.38,848.81L455.25,848.81L467.59,848.81L477.46,848.81L484.86,848.81L494.73,848.81L502.13,848.81L509.53,848.81L516.93,851.28L526.8,851.28L534.21,851.28L541.61,851.28L546.54,851.28L553.95,851.28L558.88,851.28L566.28,848.81L573.69,848.81L581.09,848.81L588.49,848.81L595.89,846.34L603.3,846.34L613.17,846.34L620.57,846.34L627.97,846.34L637.84,846.34L647.71,846.34L657.58,846.34L667.45,848.81L679.79,848.81L687.19,851.28L694.59,851.28L699.53,851.28L699.53,848.81L692.13,848.81" fill="none" stroke="#000000" style="-webkit-tap-highlight-color: rgba(0, 0, 0, 0); stroke-linecap: round; stroke-linejoin: round; stroke-width: 6;" /><path d="M1.23,1307.76" fill="none" stroke="#000000" style="-webkit-tap-highlight-color: rgba(0, 0, 0, 0); stroke-linecap: round; stroke-linejoin: round; stroke-width: 6;" /><path d="M3.7,1312.69L6.17,1312.69L13.57,1312.69L16.04,1312.69L35.78,1312.69L55.52,1310.23L77.73,1307.76L95,1307.76L104.87,1310.23L109.8,1312.69L117.2,1315.16L119.67,1315.16" fill="none" stroke="#000000" style="-webkit-tap-highlight-color: rgba(0, 0, 0, 0); stroke-linecap: round; stroke-linejoin: round; stroke-width: 6;" /><path d="M768.62,1349.71L766.15,1349.71L761.21,1352.17L758.75,1352.17L756.28,1352.17L763.68,1352.17L771.08,1352.17L778.49,1347.24L790.82,1344.77L803.16,1342.3L810.56,1342.3L817.97,1342.3L822.9,1342.3L825.37,1342.3" fill="none" stroke="#000000" style="-webkit-tap-highlight-color: rgba(0, 0, 0, 0); stroke-linecap: round; stroke-linejoin: round; stroke-width: 6;" /><path d="M820.43,64.15L822.9,54.28L825.37,44.41L827.84,39.48L830.3,34.54L830.3,29.61L832.77,24.67L835.24,19.74L835.24,17.27L832.77,14.8L832.77,12.34L832.77,7.4L832.77,4.93L835.24,0" fill="none" stroke="#000000" style="-webkit-tap-highlight-color: rgba(0, 0, 0, 0); stroke-linecap: round; stroke-linejoin: round; stroke-width: 6;" /><path d="M842.64,0L845.11,9.87L845.11,22.21L845.11,37.01L847.58,51.82L850.04,66.62L852.51,78.96L854.98,93.76L854.98,106.1L854.98,118.44L854.98,133.24L854.98,145.58L854.98,157.92L854.98,170.26L854.98,180.13L854.98,187.53L854.98,197.4L854.98,207.27L852.51,214.67L852.51,222.07L850.04,227.01L847.58,234.41L847.58,239.34L845.11,241.81L842.64,249.21L840.17,256.62L840.17,261.55L840.17,266.49L840.17,268.95L840.17,273.89L840.17,278.82L840.17,286.23L842.64,293.63L842.64,298.56L845.11,305.97L845.11,315.84L847.58,325.71L847.58,335.58L847.58,350.38L845.11,362.72L845.11,377.52L842.64,389.86L840.17,407.13L840.17,419.47L837.71,431.81L837.71,441.68L837.71,451.55L837.71,461.42L837.71,471.29L837.71,483.62L837.71,493.49L837.71,500.9L840.17,508.3L840.17,518.17L842.64,525.57L842.64,532.97L842.64,540.38L842.64,550.25L842.64,562.58L842.64,572.45L842.64,582.32L842.64,592.19L842.64,602.06L842.64,611.93L842.64,621.8L842.64,631.67L840.17,644.01L840.17,656.35L840.17,668.68L840.17,678.55L837.71,688.42L837.71,698.29L837.71,710.63L837.71,720.5L837.71,732.84L837.71,745.18L837.71,757.51L837.71,772.32L837.71,784.66L835.24,799.46L835.24,811.8L835.24,826.6L835.24,838.94L835.24,851.28L835.24,861.15L837.71,873.48L837.71,885.82L837.71,895.69L837.71,908.03L837.71,917.9L840.17,930.24L840.17,940.11L840.17,949.98L840.17,962.31L837.71,974.65L837.71,984.52L837.71,994.39L837.71,1004.26L837.71,1014.13L835.24,1024L835.24,1031.4L835.24,1038.8L835.24,1048.67L835.24,1058.54L835.24,1068.41L835.24,1078.28L835.24,1088.15L835.24,1098.02L835.24,1107.89L835.24,1117.76L835.24,1130.1L835.24,1142.44L835.24,1154.78L835.24,1167.11L832.77,1181.92L832.77,1194.26L832.77,1206.59L832.77,1216.46L832.77,1226.33L832.77,1236.2L830.3,1246.07L830.3,1253.47L827.84,1260.88L825.37,1268.28L825.37,1278.15L822.9,1288.02L822.9,1295.42L820.43,1302.82L817.97,1310.23L817.97,1315.16L815.5,1322.56L813.03,1325.03L810.56,1327.5L808.1,1329.97L808.1,1332.43L808.1,1334.9L805.63,1337.37L805.63,1339.84L805.63,1344.77L805.63,1347.24L805.63,1352.17L805.63,1354.64L805.63,1357.11L805.63,1362.04L805.63,1364.51L803.16,1362.04L800.69,1359.58L798.23,1357.11L790.82,1357.11L783.42,1354.64L773.55,1354.64L756.28,1357.11L739.01,1364.51L724.2,1371.91L716.8,1381.78L714.33,1384.25L714.33,1386.72L716.8,1384.25L719.27,1381.78" fill="none" stroke="#000000" style="-webkit-tap-highlight-color: rgba(0, 0, 0, 0); stroke-linecap: round; stroke-linejoin: round; stroke-width: 6;" /><path d="M973.42,22.21L970.95,19.74L968.48,17.27L966.01,17.27L963.55,14.8L961.08,14.8L958.61,19.74L958.61,24.67L956.14,34.54L958.61,44.41L963.55,51.82L970.95,56.75L978.35,54.28L980.82,46.88L983.29,37.01L983.29,32.08L975.88,29.61L966.01,27.14L953.68,32.08L946.27,39.48L941.34,49.35L943.81,56.75" fill="none" stroke="#000000" style="-webkit-tap-highlight-color: rgba(0, 0, 0, 0); stroke-linecap: round; stroke-linejoin: round; stroke-width: 6;" /><path d="M970.95,550.25L970.95,545.31L970.95,540.38L968.48,537.91L963.55,530.51L958.61,528.04L956.14,525.57L951.21,530.51L948.74,540.38L948.74,555.18L953.68,569.99L966.01,577.39L975.88,577.39L983.29,567.52L985.75,552.71L985.75,537.91L978.35,530.51L970.95,528.04L966.01,528.04" fill="none" stroke="#000000" style="-webkit-tap-highlight-color: rgba(0, 0, 0, 0); stroke-linecap: round; stroke-linejoin: round; stroke-width: 6;" /><path d="M605.76,937.64L605.76,932.7L603.3,930.24L603.3,927.77L605.76,925.3L605.76,922.83L608.23,920.37" fill="none" stroke="#000000" style="-webkit-tap-highlight-color: rgba(0, 0, 0, 0); stroke-linecap: round; stroke-linejoin: round; stroke-width: 6;" /><path d="M613.17,917.9L610.7,920.37L608.23,922.83L608.23,925.3L605.76,930.24L605.76,935.17L605.76,940.11L605.76,945.04L608.23,945.04L610.7,947.51L618.1,947.51L620.57,949.98L623.04,949.98L627.97,949.98L635.37,949.98L640.31,949.98L645.24,949.98L647.71,949.98L652.65,949.98L655.11,952.44L657.58,954.91L657.58,957.38L660.05,962.31L660.05,969.72L660.05,974.65L657.58,979.59L657.58,984.52L657.58,989.46L660.05,986.99L662.52,986.99L662.52,984.52L662.52,982.05L657.58,979.59L650.18,974.65L645.24,972.18L642.78,969.72L640.31,969.72" fill="none" stroke="#000000" style="-webkit-tap-highlight-color: rgba(0, 0, 0, 0); stroke-linecap: round; stroke-linejoin: round; stroke-width: 6;" /></svg>