<?xml version="1.0" encoding="utf-8" ?>
<svg baseProfile="full" height="787" version="1.1" width="1024" xmlns="http://www.w3.org/2000/svg" xmlns:ev="http://www.w3.org/2001/xml-events" xmlns:xlink="http://www.w3.org/1999/xlink"><defs /><path d="M783.6,153.23L781.76,153.23L781.76,151.4L781.76,156.9L781.76,167.91L781.76,173.42L781.76,178.92L783.6,184.43L783.6,197.28L783.6,202.78L783.6,210.12L785.43,213.79L785.43,219.3L787.27,226.64L787.27,232.14L787.27,237.65L787.27,244.99L789.1,250.49L789.1,256L789.1,261.51L789.1,267.01L789.1,272.52L790.94,278.02L790.94,283.53L790.94,290.87L790.94,296.37L790.94,301.88L790.94,307.38L790.94,312.89L790.94,320.23L790.94,329.41L790.94,334.91L790.94,340.42L790.94,345.92L790.94,351.43L790.94,358.77L790.94,366.11L790.94,373.45L790.94,378.95L790.94,384.46L790.94,391.8L790.94,399.14L790.94,404.65L790.94,411.99L792.77,417.49L792.77,426.67L792.77,434.01L792.77,441.35L792.77,446.85L792.77,454.19L792.77,463.37L792.77,468.87L794.61,476.22L794.61,481.72L794.61,485.39L796.44,492.73L796.44,498.24L796.44,503.74L798.28,507.41L798.28,511.08L798.28,514.75L800.11,518.42L800.11,523.93L800.11,527.6L800.11,531.27L800.11,534.94L803.78,533.1" fill="none" stroke="#000000" style="-webkit-tap-highlight-color: rgba(0, 0, 0, 0); stroke-linecap: round; stroke-linejoin: round; stroke-width: 5;" /><path d="M779.93,156.9L778.09,156.9L776.26,156.9L776.26,155.07L776.26,153.23L778.09,153.23L779.93,153.23L781.76,153.23L783.6,151.4L789.1,151.4L792.77,149.56L798.28,147.73L803.78,147.73L809.29,145.89L814.8,144.06L820.3,142.22L827.64,140.39L833.15,136.72L838.65,134.88L842.32,133.05L847.83,131.21L851.5,131.21L860.67,127.54L864.34,125.71L868.01,123.87L871.68,123.87L875.35,122.04L879.03,120.2L882.7,120.2L884.53,118.37L888.2,116.53L890.04,116.53L893.71,116.53L897.38,116.53L899.21,114.7L902.88,114.7L904.72,114.7L908.39,112.86L912.06,112.86L913.89,111.03L917.56,111.03L919.4,109.19L923.07,109.19L926.74,107.35L928.57,107.35L932.24,107.35L934.08,107.35L935.91,107.35L939.58,107.35L941.42,107.35L943.25,109.19L946.92,109.19L948.76,111.03L950.59,112.86L952.43,112.86L954.27,112.86L956.1,114.7L959.77,114.7L961.61,114.7L963.44,116.53L965.28,116.53L967.11,116.53L970.78,116.53L972.62,118.37L976.29,118.37L978.12,118.37L981.79,118.37L983.63,120.2L987.3,120.2L989.13,120.2L990.97,122.04L994.64,122.04L996.47,122.04L998.31,122.04L1000.14,123.87L1003.81,125.71L1005.65,127.54L1009.32,127.54L1011.15,129.38L1014.82,131.21L1018.49,133.05L1022.16,133.05" fill="none" stroke="#000000" style="-webkit-tap-highlight-color: rgba(0, 0, 0, 0); stroke-linecap: round; stroke-linejoin: round; stroke-width: 5;" /><path d="M800.11,529.43L798.28,529.43L796.44,529.43L801.95,531.27L811.13,533.1L816.63,534.94L822.14,536.77L827.64,538.61L833.15,540.44L834.98,540.44L836.82,542.28L838.65,542.28L838.65,544.11L840.49,544.11L842.32,545.95L844.16,545.95L845.99,547.78L847.83,549.62L851.5,551.46L853.33,551.46L857,551.46L860.67,551.46L864.34,553.29L869.85,553.29L873.52,555.13L880.86,555.13L888.2,555.13L895.54,553.29L902.88,553.29L910.22,553.29L915.73,553.29L923.07,553.29L930.41,551.46L937.75,551.46L945.09,549.62L950.59,549.62L957.94,551.46L965.28,551.46L972.62,551.46L978.12,551.46L985.46,551.46L990.97,551.46L998.31,553.29L1003.81,553.29L1011.15,553.29L1016.66,553.29L1024,553.29" fill="none" stroke="#000000" style="-webkit-tap-highlight-color: rgba(0, 0, 0, 0); stroke-linecap: round; stroke-linejoin: round; stroke-width: 5;" /><path d="M807.46,265.18L805.62,265.18L805.62,267.01L812.96,272.52L816.63,276.19L820.3,279.86L825.81,285.36L833.15,292.7L836.82,294.54L840.49,296.37L842.32,300.04L844.16,303.71L845.99,307.38L845.99,311.05L847.83,312.89L847.83,316.56L847.83,320.23L847.83,327.57L847.83,333.08L849.66,340.42L849.66,347.76L851.5,356.93L851.5,366.11L851.5,373.45L851.5,382.62L851.5,391.8L851.5,400.97L851.5,410.15L851.5,419.33L851.5,426.67L851.5,435.84L851.5,443.18L851.5,450.52L851.5,457.86L851.5,463.37L851.5,470.71L851.5,479.89L851.5,485.39L851.5,492.73L851.5,498.24L851.5,505.58L851.5,512.92L851.5,520.26L851.5,527.6L853.33,536.77L853.33,545.95L855.17,555.13L855.17,560.63L858.84,560.63" fill="none" stroke="#000000" style="-webkit-tap-highlight-color: rgba(0, 0, 0, 0); stroke-linecap: round; stroke-linejoin: round; stroke-width: 5;" /><path d="M225.72,217.46L231.23,217.46L236.73,215.63L240.4,215.63L242.24,215.63L244.07,215.63L247.74,215.63L253.25,215.63L258.75,213.79L262.42,213.79L267.93,213.79L273.43,213.79L278.94,213.79L286.28,213.79L291.78,211.96L297.29,211.96L302.8,211.96L306.47,211.96L311.97,211.96L317.48,211.96L322.98,211.96L328.49,211.96L333.99,211.96L339.5,211.96L343.17,211.96L348.67,211.96L354.18,211.96L356.01,211.96L363.35,210.12L368.86,210.12L370.7,210.12L372.53,210.12L381.71,210.12L389.05,210.12L396.39,210.12L401.89,210.12L409.23,210.12L416.57,210.12L423.91,211.96L433.09,211.96L440.43,211.96L447.77,211.96L455.11,211.96L462.45,213.79L471.63,213.79L478.97,213.79L488.14,213.79L493.65,213.79L500.99,213.79L508.33,213.79L515.67,213.79L528.52,213.79L534.02,213.79L539.53,213.79L545.03,213.79L550.54,213.79L556.04,213.79L563.38,213.79L568.89,213.79L574.39,215.63L578.06,215.63L583.57,215.63L587.24,215.63L592.75,215.63L596.42,215.63L601.92,215.63L605.59,215.63L611.1,215.63L616.6,215.63L622.11,215.63L627.61,215.63L633.12,215.63L638.62,215.63L644.13,215.63L651.47,215.63L656.97,215.63L662.48,215.63L667.99,215.63L675.33,213.79L682.67,213.79L688.17,211.96L691.84,211.96L697.35,211.96L704.69,210.12L710.19,210.12L715.7,208.29L721.2,208.29L724.87,208.29L730.38,206.45L735.89,206.45L741.39,204.62L745.06,204.62L750.57,204.62L754.24,204.62L757.91,204.62L761.58,202.78L763.41,202.78L767.08,202.78L768.92,202.78L772.59,200.95L774.42,200.95L776.26,200.95L778.09,200.95L778.09,199.11" fill="none" stroke="#000000" style="-webkit-tap-highlight-color: rgba(0, 0, 0, 0); stroke-linecap: round; stroke-linejoin: round; stroke-width: 5;" /><path d="M170.67,2.75L172.5,4.59L174.34,8.26L176.17,11.93L179.84,13.76L185.35,13.76L187.18,15.6L190.85,15.6L192.69,17.43L194.52,19.27L198.19,21.1L201.86,22.94L205.53,24.77L207.37,26.61L209.2,28.44L211.04,30.28L212.87,32.11L216.54,33.95L218.38,35.78L218.38,37.62L218.38,39.46L220.22,41.29L222.05,44.96L223.89,48.63L223.89,50.47L225.72,52.3L225.72,54.14L227.56,57.81L227.56,59.64L229.39,63.31L229.39,65.15L229.39,68.82L231.23,70.65L231.23,72.49L231.23,76.16L231.23,79.83L233.06,81.66L233.06,83.5L233.06,87.17L233.06,90.84L233.06,92.67L233.06,96.34L233.06,101.85L233.06,105.52L233.06,107.35L233.06,111.03L233.06,114.7L234.9,120.2L234.9,123.87L234.9,127.54L234.9,131.21L234.9,134.88L234.9,138.55L234.9,142.22L234.9,147.73L234.9,151.4L233.06,155.07L233.06,158.74L233.06,162.41L233.06,166.08L233.06,169.75L233.06,173.42L231.23,177.09L231.23,184.43L229.39,188.1L229.39,193.61L229.39,197.28L229.39,200.95L229.39,204.62L229.39,208.29L229.39,211.96L229.39,215.63L229.39,219.3L229.39,224.8L229.39,228.47L229.39,232.14L229.39,235.81L231.23,239.48L231.23,243.15L231.23,246.82L231.23,248.66L231.23,252.33L233.06,257.84L233.06,261.51L233.06,265.18L234.9,268.85L234.9,270.68L234.9,274.35L234.9,279.86L234.9,283.53L234.9,287.2L234.9,289.03L233.06,292.7L233.06,296.37L233.06,300.04L233.06,303.71L233.06,307.38L231.23,311.05L231.23,314.72L231.23,316.56L231.23,320.23L229.39,323.9L229.39,327.57L229.39,331.24L227.56,334.91L227.56,338.58L227.56,342.25L225.72,345.92L225.72,351.43L225.72,355.1L225.72,356.93L225.72,360.6L225.72,364.27L225.72,367.94L225.72,373.45L225.72,378.95L225.72,382.62L225.72,386.29L225.72,389.96L225.72,395.47L225.72,399.14L225.72,404.65L227.56,408.32L227.56,413.82L227.56,419.33L227.56,424.83L227.56,430.34L227.56,435.84L227.56,441.35L227.56,446.85L225.72,454.19L225.72,459.7L223.89,467.04L223.89,472.54L222.05,479.89L222.05,483.56L222.05,489.06L222.05,494.57L220.22,500.07L220.22,503.74L218.38,507.41L218.38,511.08L218.38,514.75L218.38,516.59L218.38,520.26L216.54,522.09L214.71,523.93L214.71,525.76L214.71,529.43L212.87,531.27L211.04,533.1L211.04,536.77L209.2,538.61L207.37,540.44L205.53,542.28L203.7,544.11L200.03,545.95L198.19,545.95L194.52,547.78L190.85,549.62L187.18,551.46L183.51,553.29L181.68,555.13L178.01,555.13L174.34,556.96L172.5,556.96L170.67,558.8L167,558.8L165.16,560.63L163.33,560.63L161.49,560.63L159.66,560.63L157.82,560.63L154.15,560.63L150.48,560.63L146.81,560.63L143.14,560.63L137.63,560.63L132.13,560.63L128.46,560.63L122.95,560.63L117.45,560.63L113.78,558.8L108.27,558.8L104.6,556.96L99.1,556.96L93.59,556.96L88.09,556.96L84.42,555.13L78.91,555.13L75.24,553.29L69.73,553.29L66.06,553.29L60.56,553.29L56.89,553.29L53.22,553.29L49.55,551.46L44.04,551.46L40.37,551.46L36.7,551.46L33.03,551.46L31.2,551.46L27.53,551.46L23.86,551.46L20.19,549.62L16.52,549.62L12.85,549.62L9.18,549.62L5.51,549.62L3.67,549.62L1.84,549.62L0,549.62" fill="none" stroke="#000000" style="-webkit-tap-highlight-color: rgba(0, 0, 0, 0); stroke-linecap: round; stroke-linejoin: round; stroke-width: 5;" /><path d="M203.7,52.3L203.7,50.47L205.53,50.47L205.53,54.14L203.7,57.81L201.86,63.31L198.19,68.82L196.36,74.32L194.52,79.83L192.69,79.83L190.85,87.17L187.18,94.51L183.51,100.01L181.68,107.35L178.01,112.86L176.17,120.2L176.17,125.71L174.34,129.38L172.5,136.72L170.67,142.22L168.83,149.56L168.83,155.07L168.83,160.57L167,167.91L167,173.42L167,180.76L167,188.1L167,195.44L167,202.78L167,210.12L167,219.3L167,226.64L167,235.81L165.16,243.15L165.16,252.33L165.16,259.67L165.16,268.85L167,276.19L168.83,283.53L168.83,290.87L168.83,298.21L168.83,305.55L170.67,312.89L170.67,322.06L170.67,329.41L172.5,336.75L172.5,344.09L172.5,349.59L172.5,356.93L172.5,364.27L172.5,371.61L172.5,378.95L172.5,384.46L172.5,391.8L172.5,397.3L172.5,404.65L172.5,410.15L172.5,415.66L172.5,423L172.5,428.5L172.5,435.84L170.67,441.35L170.67,448.69L168.83,454.19L167,461.53L165.16,467.04L163.33,474.38L161.49,479.89L161.49,487.23L159.66,496.4L159.66,503.74L157.82,514.75L157.82,527.6L157.82,542.28L157.82,562.47L157.82,578.98" fill="none" stroke="#000000" style="-webkit-tap-highlight-color: rgba(0, 0, 0, 0); stroke-linecap: round; stroke-linejoin: round; stroke-width: 5;" /><path d="M240.4,437.68L242.24,435.84L247.74,435.84L255.08,439.51L260.59,439.51L267.93,439.51L273.43,441.35L280.77,441.35L288.11,443.18L295.46,443.18L302.8,443.18L310.14,445.02L317.48,445.02L321.15,445.02L322.98,445.02L328.49,446.85L333.99,446.85L337.66,448.69L341.33,448.69L343.17,450.52L346.84,450.52L350.51,452.36L352.34,452.36L356.01,452.36L357.85,454.19L359.68,456.03L363.35,456.03L367.03,456.03L368.86,456.03L372.53,457.86L374.37,457.86L379.87,459.7L383.54,459.7L387.21,461.53L392.72,461.53L398.22,463.37L405.56,463.37L411.07,463.37L418.41,463.37L425.75,463.37L433.09,463.37L442.27,463.37L451.44,463.37L460.62,463.37L471.63,461.53L478.97,461.53L488.14,459.7L495.48,459.7L506.49,459.7L515.67,457.86L524.85,457.86L532.19,456.03L539.53,456.03L545.03,454.19L552.37,454.19L556.04,452.36L561.55,450.52L565.22,450.52L568.89,448.69L572.56,448.69L576.23,446.85L578.06,445.02L579.9,445.02L581.73,443.18L585.41,443.18L590.91,443.18L594.58,441.35L598.25,441.35L603.76,441.35L609.26,439.51L614.77,439.51L622.11,437.68L629.45,437.68L634.95,437.68L642.29,437.68L647.8,437.68L655.14,435.84L662.48,435.84L667.99,434.01L675.33,434.01L679,434.01L686.34,434.01L691.84,435.84L699.18,435.84L706.52,435.84L712.03,435.84L719.37,435.84L724.87,435.84L732.22,435.84L739.56,435.84L746.9,435.84L752.4,435.84L759.74,435.84L767.08,435.84L776.26,435.84L783.6,435.84L789.1,435.84L796.44,434.01L801.95,434.01L809.29,437.68" fill="none" stroke="#000000" style="-webkit-tap-highlight-color: rgba(0, 0, 0, 0); stroke-linecap: round; stroke-linejoin: round; stroke-width: 5;" /><path d="M453.28,243.15L451.44,241.32L451.44,239.48L451.44,241.32L451.44,243.15L451.44,244.99L451.44,248.66L451.44,252.33L451.44,257.84L453.28,263.34L453.28,267.01L453.28,272.52L455.11,278.02L455.11,281.69L455.11,287.2L455.11,292.7L455.11,296.37L455.11,300.04L456.95,305.55L456.95,311.05L456.95,316.56L458.78,322.06L458.78,327.57L458.78,331.24L456.95,336.75L456.95,342.25L456.95,347.76L456.95,353.26L456.95,356.93L456.95,360.6L456.95,362.44L455.11,366.11L455.11,371.61L455.11,375.28L455.11,378.95L455.11,382.62L455.11,386.29L455.11,388.13L456.95,389.96L455.11,391.8" fill="none" stroke="#000000" style="-webkit-tap-highlight-color: rgba(0, 0, 0, 0); stroke-linecap: round; stroke-linejoin: round; stroke-width: 5;" /><path d="M456.95,243.15L455.11,243.15L453.28,243.15L451.44,243.15L447.77,243.15L445.94,243.15L447.77,243.15L449.61,243.15L453.28,243.15L456.95,243.15L462.45,241.32L469.79,241.32L475.3,241.32L480.8,241.32L486.31,243.15L489.98,243.15L493.65,243.15L497.32,243.15L500.99,243.15L502.82,243.15L504.66,243.15L508.33,243.15L510.16,243.15L512,243.15L513.84,243.15L515.67,243.15L517.51,243.15L519.34,243.15L521.18,243.15L523.01,243.15L524.85,243.15L526.68,244.99L528.52,244.99L528.52,246.82L528.52,248.66L528.52,252.33L528.52,256L530.35,259.67L530.35,263.34L530.35,267.01L530.35,270.68L530.35,276.19L528.52,281.69L528.52,289.03L528.52,294.54L528.52,300.04L528.52,305.55L528.52,309.22L526.68,314.72L526.68,320.23L526.68,325.73L526.68,331.24L526.68,334.91L526.68,338.58L526.68,344.09L528.52,347.76L528.52,349.59L528.52,353.26L530.35,355.1L530.35,358.77L530.35,360.6L532.19,362.44L532.19,366.11L532.19,369.78L532.19,371.61L532.19,373.45L532.19,375.28L534.02,377.12L534.02,380.79L534.02,382.62L534.02,384.46L534.02,386.29L532.19,388.13L532.19,389.96L530.35,391.8L528.52,393.63L526.68,393.63L524.85,395.47L521.18,395.47L517.51,395.47L513.84,395.47L510.16,395.47L506.49,395.47L502.82,395.47L499.15,395.47L495.48,395.47L491.81,395.47L488.14,395.47L482.64,395.47L478.97,395.47L475.3,393.63L471.63,393.63L466.12,393.63L462.45,391.8L460.62,391.8L458.78,391.8L456.95,391.8L455.11,389.96L453.28,389.96" fill="none" stroke="#000000" style="-webkit-tap-highlight-color: rgba(0, 0, 0, 0); stroke-linecap: round; stroke-linejoin: round; stroke-width: 5;" /><path d="M451.44,268.85L449.61,267.01L449.61,265.18L449.61,263.34L451.44,263.34L453.28,263.34L456.95,263.34L460.62,265.18L464.29,265.18L467.96,265.18L473.46,265.18L477.13,265.18L480.8,265.18L484.47,265.18L488.14,265.18L493.65,265.18L497.32,265.18L499.15,265.18L502.82,265.18L504.66,265.18L508.33,265.18L510.16,263.34L513.84,263.34L517.51,261.51L519.34,261.51L521.18,259.67L524.85,259.67" fill="none" stroke="#000000" style="-webkit-tap-highlight-color: rgba(0, 0, 0, 0); stroke-linecap: round; stroke-linejoin: round; stroke-width: 5;" /><path d="M455.11,276.19L453.28,276.19L455.11,276.19L458.78,276.19L464.29,276.19L467.96,276.19L471.63,276.19L475.3,276.19L478.97,276.19L482.64,276.19L484.47,276.19L486.31,276.19L488.14,278.02L489.98,278.02L491.81,278.02L493.65,278.02L495.48,278.02L497.32,278.02L497.32,279.86L499.15,281.69L499.15,283.53L499.15,287.2L499.15,290.87L499.15,294.54L499.15,298.21L499.15,301.88L499.15,305.55L499.15,311.05L499.15,314.72L499.15,318.39L499.15,322.06L499.15,325.73L499.15,331.24L499.15,334.91L499.15,338.58L499.15,342.25L499.15,345.92L499.15,347.76L499.15,351.43L499.15,353.26L497.32,356.93L497.32,358.77L497.32,360.6L497.32,362.44L497.32,364.27L497.32,367.94L497.32,369.78L497.32,371.61L495.48,371.61L493.65,371.61L491.81,371.61L488.14,371.61L484.47,371.61L480.8,371.61L477.13,371.61L473.46,371.61L469.79,371.61L466.12,371.61L462.45,371.61L460.62,371.61L458.78,371.61L460.62,371.61" fill="none" stroke="#000000" style="-webkit-tap-highlight-color: rgba(0, 0, 0, 0); stroke-linecap: round; stroke-linejoin: round; stroke-width: 5;" /><path d="M372.53,424.83L367.03,421.16L370.7,419.33L374.37,417.49L379.87,417.49L385.38,417.49L392.72,417.49L400.06,417.49L409.23,415.66L418.41,415.66L425.75,415.66L429.42,415.66L434.92,417.49L438.59,417.49L442.27,417.49L447.77,417.49L451.44,419.33L456.95,419.33L462.45,419.33L466.12,417.49L469.79,417.49L475.3,417.49L478.97,417.49L482.64,417.49L488.14,417.49L493.65,417.49L497.32,417.49L502.82,417.49L508.33,417.49L513.84,417.49L519.34,417.49L523.01,417.49L528.52,417.49L534.02,417.49L537.69,417.49L543.2,417.49L546.87,417.49L550.54,417.49L554.21,417.49L559.71,417.49L563.38,417.49L567.05,417.49L568.89,417.49L572.56,417.49L576.23,417.49L579.9,417.49L583.57,417.49L587.24,417.49L590.91,417.49L594.58,417.49L598.25,415.66L601.92,413.82L603.76,413.82L603.76,415.66" fill="none" stroke="#000000" style="-webkit-tap-highlight-color: rgba(0, 0, 0, 0); stroke-linecap: round; stroke-linejoin: round; stroke-width: 5;" /><path d="M234.9,476.22L233.06,476.22L236.73,478.05L240.4,478.05L244.07,479.89L249.58,481.72L256.92,481.72L264.26,481.72L273.43,481.72L282.61,481.72L289.95,481.72L299.13,481.72L306.47,481.72L313.81,481.72L319.31,483.56L324.82,483.56L332.16,483.56L337.66,483.56L343.17,483.56L346.84,483.56L352.34,483.56L357.85,481.72L363.35,481.72L367.03,479.89L372.53,479.89L376.2,479.89L379.87,479.89L385.38,479.89L390.88,479.89L396.39,479.89L400.06,479.89L403.73,479.89L409.23,479.89L414.74,479.89L418.41,479.89L423.91,479.89L427.58,481.72L431.25,481.72L436.76,481.72L440.43,481.72L444.1,481.72L447.77,481.72L453.28,481.72L456.95,481.72L458.78,481.72L462.45,483.56L466.12,483.56L467.96,485.39L471.63,489.06" fill="none" stroke="#000000" style="-webkit-tap-highlight-color: rgba(0, 0, 0, 0); stroke-linecap: round; stroke-linejoin: round; stroke-width: 5;" /><path d="M212.87,578.98L212.87,577.15L214.71,573.48L214.71,571.64L216.54,566.14L218.38,562.47L222.05,558.8L225.72,555.13L229.39,551.46L233.06,547.78L234.9,545.95L236.73,544.11L238.57,542.28L240.4,542.28L242.24,542.28L244.07,542.28L245.91,542.28L247.74,542.28L249.58,542.28L253.25,542.28L258.75,540.44L264.26,538.61L266.09,538.61L271.6,538.61L275.27,538.61L280.77,538.61L288.11,538.61L295.46,536.77L300.96,536.77L306.47,536.77L311.97,536.77L317.48,536.77L322.98,536.77L326.65,536.77L332.16,536.77L337.66,536.77L341.33,534.94L346.84,534.94L352.34,534.94L359.68,534.94L361.52,534.94L363.35,533.1L367.03,533.1L374.37,533.1L381.71,531.27L390.88,531.27L398.22,531.27L409.23,531.27L431.25,531.27L440.43,531.27L451.44,531.27L460.62,531.27L471.63,531.27L480.8,531.27L489.98,529.43L497.32,529.43L504.66,529.43L513.84,529.43L521.18,529.43L528.52,529.43L535.86,529.43L545.03,529.43L554.21,529.43L563.38,527.6L574.39,527.6L583.57,527.6L592.75,527.6L603.76,527.6L614.77,527.6L627.61,525.76L638.62,525.76L649.63,523.93L662.48,523.93L673.49,523.93L686.34,522.09L697.35,522.09L708.36,520.26L715.7,520.26L723.04,520.26L730.38,520.26L737.72,520.26L743.23,520.26L746.9,520.26L748.73,520.26L752.4,520.26L754.24,520.26L757.91,520.26L761.58,520.26L763.41,522.09L765.25,522.09L768.92,523.93L772.59,525.76L776.26,525.76L779.93,525.76L783.6,527.6L785.43,529.43" fill="none" stroke="#000000" style="-webkit-tap-highlight-color: rgba(0, 0, 0, 0); stroke-linecap: round; stroke-linejoin: round; stroke-width: 5;" /><path d="M218.38,538.61L214.71,534.94L211.04,534.94L211.04,533.1L212.87,533.1L214.71,534.94L218.38,536.77L223.89,540.44L229.39,542.28L236.73,542.28L242.24,542.28L247.74,542.28L251.41,542.28L255.08,542.28" fill="none" stroke="#000000" style="-webkit-tap-highlight-color: rgba(0, 0, 0, 0); stroke-linecap: round; stroke-linejoin: round; stroke-width: 5;" /><path d="M16.52,575.31L12.85,573.48L12.85,569.81L12.85,567.97L14.68,567.97L20.19,567.97L27.53,566.14L36.7,564.3L44.04,564.3L49.55,564.3L56.89,566.14L62.39,567.97L69.73,567.97L77.08,567.97L82.58,567.97L89.92,567.97L95.43,567.97L100.93,569.81L108.27,569.81L111.94,567.97L124.79,567.97L132.13,567.97L135.8,567.97L141.3,569.81L146.81,571.64L154.15,571.64L163.33,571.64L170.67,571.64L178.01,571.64L187.18,573.48L194.52,573.48L203.7,573.48L209.2,575.31L214.71,577.15L222.05,578.98L227.56,578.98L234.9,580.82L240.4,580.82L245.91,582.65L251.41,582.65L256.92,584.49L262.42,584.49L267.93,584.49L273.43,584.49L278.94,584.49L284.44,584.49L289.95,584.49L297.29,584.49L304.63,582.65L313.81,582.65L321.15,580.82L330.32,578.98L337.66,578.98L346.84,577.15L356.01,575.31L363.35,575.31L372.53,573.48L381.71,573.48L390.88,573.48L398.22,571.64L405.56,571.64L414.74,571.64L425.75,569.81L434.92,567.97L444.1,567.97L453.28,566.14L462.45,566.14L471.63,564.3L480.8,564.3L489.98,564.3L499.15,564.3L508.33,564.3L515.67,564.3L524.85,564.3L535.86,562.47L545.03,562.47L556.04,560.63L565.22,560.63L574.39,560.63L585.41,558.8L594.58,556.96L603.76,556.96L612.93,555.13L620.27,555.13L627.61,555.13L636.79,555.13L645.96,555.13L653.3,555.13L660.65,556.96L669.82,556.96L679,558.8L688.17,558.8L697.35,560.63L706.52,560.63L715.7,560.63L724.87,560.63L734.05,560.63L743.23,560.63L752.4,560.63L761.58,560.63L770.75,560.63L779.93,560.63L787.27,560.63L794.61,560.63L801.95,560.63L809.29,560.63L814.8,560.63L820.3,560.63L827.64,562.47L833.15,562.47L838.65,562.47L844.16,562.47L849.66,562.47L855.17,564.3L862.51,564.3L868.01,564.3L875.35,566.14L880.86,566.14L888.2,566.14L895.54,566.14L902.88,566.14L910.22,566.14L917.56,566.14L926.74,566.14L934.08,566.14L941.42,566.14L948.76,566.14L956.1,566.14L963.44,567.97L970.78,567.97L979.96,566.14L990.97,566.14L1001.98,566.14L1012.99,566.14L1014.82,566.14" fill="none" stroke="#000000" style="-webkit-tap-highlight-color: rgba(0, 0, 0, 0); stroke-linecap: round; stroke-linejoin: round; stroke-width: 5;" /><path d="M192.69,615.68L192.69,613.85L192.69,612.01L190.85,612.01L189.02,615.68L185.35,621.19L181.68,626.7L178.01,632.2L172.5,637.71L167,641.38L163.33,646.88L161.49,648.72L161.49,650.55L161.49,652.39L161.49,654.22L161.49,656.06L161.49,657.89L161.49,661.56L161.49,665.23L161.49,668.9L159.66,674.41L159.66,678.08L159.66,683.58L159.66,687.25L159.66,692.76L157.82,696.43L157.82,700.1L157.82,705.61L157.82,709.28L157.82,712.95L157.82,716.62L157.82,720.29L157.82,723.96L157.82,727.63L157.82,729.46L157.82,731.3L157.82,733.13L157.82,734.97L159.66,734.97L161.49,736.8L163.33,736.8L165.16,738.64L168.83,738.64L170.67,738.64L176.17,740.47L181.68,742.31L185.35,744.14L190.85,744.14L198.19,744.14L200.03,744.14L214.71,744.14L222.05,744.14L233.06,744.14L242.24,744.14L253.25,744.14L262.42,742.31L273.43,742.31L282.61,742.31L289.95,742.31L299.13,742.31L306.47,742.31L313.81,742.31L319.31,742.31L324.82,742.31L330.32,742.31L335.83,742.31L341.33,742.31L346.84,742.31L352.34,742.31L356.01,742.31L361.52,742.31L367.03,744.14L372.53,744.14L379.87,744.14L389.05,742.31L398.22,742.31L405.56,740.47L416.57,738.64L427.58,736.8L440.43,734.97L453.28,733.13L466.12,731.3L477.13,731.3L488.14,729.46L497.32,729.46L506.49,729.46L515.67,727.63L523.01,727.63L530.35,727.63L537.69,727.63L545.03,727.63L550.54,727.63L557.88,725.79L561.55,725.79L567.05,725.79L570.72,725.79L576.23,725.79L579.9,725.79L583.57,725.79L585.41,725.79L589.08,725.79L590.91,725.79L592.75,725.79L596.42,725.79" fill="none" stroke="#000000" style="-webkit-tap-highlight-color: rgba(0, 0, 0, 0); stroke-linecap: round; stroke-linejoin: round; stroke-width: 5;" /><path d="M800.11,725.79L794.61,725.79L790.94,723.96L790.94,725.79L792.77,727.63L798.28,727.63L803.78,727.63L812.96,727.63L820.3,727.63L825.81,725.79L829.48,725.79L831.31,725.79L834.98,725.79L838.65,723.96L844.16,723.96L845.99,723.96L849.66,722.12L851.5,720.29L853.33,718.45L855.17,714.78L857,712.95L857,709.28L858.84,703.77L858.84,700.1L858.84,694.59L858.84,689.09L858.84,683.58L858.84,679.91L858.84,676.24L858.84,672.57L858.84,668.9L858.84,667.07L857,663.4L857,661.56L857,656.06L857,652.39L857,650.55L855.17,646.88L855.17,645.05L853.33,643.21L853.33,639.54L853.33,637.71L851.5,634.04L851.5,632.2L849.66,630.37L847.83,626.7L847.83,624.86L847.83,621.19L847.83,617.52L847.83,615.68L845.99,613.85L845.99,617.52L845.99,619.35" fill="none" stroke="#000000" style="-webkit-tap-highlight-color: rgba(0, 0, 0, 0); stroke-linecap: round; stroke-linejoin: round; stroke-width: 5;" /><path d="M194.52,613.85L190.85,612.01L189.02,612.01L194.52,612.01L203.7,610.18L211.04,610.18L220.22,610.18L229.39,610.18L238.57,610.18L247.74,610.18L251.41,610.18L256.92,610.18L264.26,610.18L269.76,610.18L271.6,610.18L278.94,610.18L284.44,610.18L291.78,610.18L300.96,610.18L302.8,610.18L310.14,610.18L317.48,608.34L326.65,606.51L335.83,606.51L346.84,604.67L359.68,602.84L370.7,601L381.71,599.17L394.55,597.33L405.56,595.5L416.57,593.66L429.42,593.66L442.27,591.83L453.28,589.99L462.45,589.99L473.46,589.99L484.47,589.99L495.48,588.16L506.49,588.16L517.51,586.32L528.52,586.32L541.36,586.32L554.21,584.49L567.05,584.49L576.23,582.65L587.24,582.65L598.25,582.65L607.43,582.65L616.6,584.49L627.61,584.49L636.79,584.49L645.96,586.32L656.97,586.32L667.99,588.16L679,588.16L690.01,588.16L701.02,588.16L712.03,589.99L721.2,589.99L732.22,591.83L743.23,591.83L752.4,591.83L761.58,591.83L770.75,593.66L778.09,593.66L787.27,593.66L794.61,593.66L801.95,593.66L809.29,593.66L816.63,593.66L823.97,593.66L831.31,593.66L838.65,593.66L845.99,593.66L851.5,593.66L857,593.66L860.67,593.66L864.34,595.5" fill="none" stroke="#000000" style="-webkit-tap-highlight-color: rgba(0, 0, 0, 0); stroke-linecap: round; stroke-linejoin: round; stroke-width: 5;" /><path d="M165.16,657.89L163.33,657.89L159.66,656.06L163.33,654.22L174.34,654.22L181.68,652.39L190.85,652.39L198.19,650.55L203.7,650.55L211.04,650.55L218.38,650.55L225.72,650.55L231.23,650.55L233.06,650.55L242.24,650.55L253.25,650.55L264.26,648.72L284.44,646.88L291.78,646.88L300.96,648.72L310.14,648.72L321.15,648.72L330.32,648.72L339.5,648.72L346.84,648.72L356.01,648.72L363.35,650.55L370.7,650.55L379.87,650.55L389.05,650.55L398.22,650.55L407.4,648.72L416.57,648.72L425.75,648.72L433.09,646.88L442.27,646.88L449.61,646.88L456.95,646.88L464.29,646.88L469.79,646.88L475.3,646.88L480.8,646.88L486.31,646.88L491.81,646.88L495.48,646.88L500.99,648.72L506.49,648.72L512,650.55L519.34,650.55L524.85,650.55L532.19,652.39L541.36,652.39L552.37,652.39L565.22,650.55L578.06,648.72L590.91,646.88L601.92,646.88L614.77,646.88L629.45,646.88L644.13,645.05L660.65,645.05L673.49,645.05L688.17,643.21L702.85,643.21L715.7,643.21L730.38,643.21L745.06,641.38L756.07,641.38L765.25,641.38L774.42,639.54L781.76,639.54L790.94,639.54L800.11,639.54L807.46,639.54L814.8,639.54L820.3,639.54L825.81,639.54L831.31,639.54L836.82,637.71L840.49,637.71L844.16,637.71L845.99,637.71L849.66,637.71L851.5,637.71L853.33,639.54" fill="none" stroke="#000000" style="-webkit-tap-highlight-color: rgba(0, 0, 0, 0); stroke-linecap: round; stroke-linejoin: round; stroke-width: 5;" /><path d="M834.98,602.84L834.98,599.17L833.15,599.17L834.98,601L836.82,604.67L838.65,608.34L840.49,610.18L842.32,613.85L844.16,617.52L847.83,623.03" fill="none" stroke="#000000" style="-webkit-tap-highlight-color: rgba(0, 0, 0, 0); stroke-linecap: round; stroke-linejoin: round; stroke-width: 5;" /><path d="M585.41,725.79L583.57,725.79L581.73,725.79L579.9,725.79L579.9,727.63L578.06,729.46L574.39,731.3L572.56,733.13L572.56,734.97L570.72,736.8L568.89,740.47L568.89,742.31L567.05,745.98L567.05,749.65L567.05,751.48L565.22,753.32L565.22,756.99L565.22,758.82L565.22,760.66L563.38,762.49L563.38,766.16L563.38,768L561.55,769.84L561.55,771.67L559.71,773.51L559.71,775.34L559.71,780.85L559.71,782.68" fill="none" stroke="#000000" style="-webkit-tap-highlight-color: rgba(0, 0, 0, 0); stroke-linecap: round; stroke-linejoin: round; stroke-width: 5;" /><path d="M792.77,723.96L790.94,723.96L789.1,722.12L790.94,723.96L794.61,723.96L798.28,725.79L800.11,729.46L801.95,731.3L801.95,733.13L803.78,736.8L803.78,738.64L805.62,742.31L805.62,744.14L807.46,747.81L807.46,751.48L807.46,753.32L809.29,756.99L811.13,758.82L812.96,760.66L814.8,764.33L816.63,766.16L818.47,768L820.3,771.67L822.14,773.51L823.97,777.18L827.64,779.01L833.15,780.85L836.82,780.85" fill="none" stroke="#000000" style="-webkit-tap-highlight-color: rgba(0, 0, 0, 0); stroke-linecap: round; stroke-linejoin: round; stroke-width: 5;" /><path d="M502.82,492.73L502.82,490.9L504.66,489.06L506.49,489.06L508.33,487.23L512,487.23L517.51,487.23L524.85,487.23L532.19,485.39L541.36,483.56L548.7,483.56L556.04,483.56L561.55,481.72L565.22,481.72L570.72,481.72L578.06,481.72L583.57,481.72L589.08,481.72L592.75,481.72L596.42,481.72L600.09,481.72L603.76,481.72L609.26,481.72L612.93,481.72L618.44,481.72L622.11,481.72L627.61,479.89L631.28,479.89L634.95,478.05L636.79,478.05L640.46,478.05L644.13,476.22L649.63,476.22L655.14,476.22L660.65,476.22L666.15,476.22L671.66,476.22L675.33,474.38L679,474.38L684.5,474.38L690.01,474.38L697.35,474.38L704.69,474.38L710.19,476.22L715.7,476.22L721.2,476.22L724.87,476.22L726.71,478.05L730.38,478.05L734.05,478.05L737.72,476.22L743.23,476.22L746.9,476.22L754.24,474.38L759.74,474.38L767.08,474.38L778.09,474.38L781.76,474.38" fill="none" stroke="#000000" style="-webkit-tap-highlight-color: rgba(0, 0, 0, 0); stroke-linecap: round; stroke-linejoin: round; stroke-width: 5;" /></svg>