<?xml version="1.0" encoding="utf-8" ?>
<svg baseProfile="full" height="785" version="1.1" width="1024" xmlns="http://www.w3.org/2000/svg" xmlns:ev="http://www.w3.org/2001/xml-events" xmlns:xlink="http://www.w3.org/1999/xlink"><defs /><path d="M1.81,356.41" fill="none" stroke="#000000" style="-webkit-tap-highlight-color: rgba(0, 0, 0, 0); stroke-linecap: round; stroke-linejoin: round; stroke-width: 5;" /><path d="M0,358.22L14,357L5,359L7,359L16,357L22,355L24,356L29,355L26,355L30,355L33,356L41,358L34,353L41,358L43,357L43,357L45,357L48,356L49,356L51,356L51,358L51,358L54,358L57,358L58,358L60,360L62,359L65,359L63,359L67,361L69,362L73,360L73,360L73,360L73,360L81,359L78,356L81,359" fill="none" stroke="#000000" style="-webkit-tap-highlight-color: rgba(0, 0, 0, 0); stroke-linecap: round; stroke-linejoin: round; stroke-width: 5;" /><path d="M81,356L82,358L83,356L83,356" fill="none" stroke="#000000" style="-webkit-tap-highlight-color: rgba(0, 0, 0, 0); stroke-linecap: round; stroke-linejoin: round; stroke-width: 5;" /><path d="M83.22,173.68L87,170L88,172L89,174L90,182L90,182L88,189L86,194L85,196L85,199L86,204L85,207L84,210L84,216L84,213L84,224L84,224L84,221L85,228L84,235L84,235L85,230L84,235L84,237L84,237L84,237L85,239L86,241L87,247L87,246L87,254L87,254L87,256L87,255L87,256L88,257L87,270L87,270L87,270L87,271L89,279L87,273L89,279L89,280L89,283L89,283L88,289L89,290L89,295L89,295L88,297L89,299L89,299L87,300L87,300L91,309L91,309L91,309L90,311L89,313L90,317L89,319L90,315L89,319L87,325L88,320L88,325L88,328L87,331L87,331L87,338L87,338L87,342L87,340L87,343" fill="none" stroke="#000000" style="-webkit-tap-highlight-color: rgba(0, 0, 0, 0); stroke-linecap: round; stroke-linejoin: round; stroke-width: 5;" /><path d="M87,343L78,354L78,354L87,343L79,355L81,356L81,356L82,358L81,359L81,359L81,359L81,359" fill="none" stroke="#000000" style="-webkit-tap-highlight-color: rgba(0, 0, 0, 0); stroke-linecap: round; stroke-linejoin: round; stroke-width: 5;" /><path d="M92.27,173.68L92,170L92,168L92,163L92,166L96,162L93,162L100,161L103,162L110,163L108,163L114,162L118,162L119,162L123,164L130,165L127,165L136,165L136,165L136,165L140,169L143,169L147,170L147,170L150,172L154,174L151,172L156,174L156,174L160,175L159,175L159,175L163,178L165,178L165,179L166,179L166,180L167,181L169,183L168,182L170,184L172,186L175,192L175,192L175,198L175,199L175,200L175,203" fill="none" stroke="#000000" style="-webkit-tap-highlight-color: rgba(0, 0, 0, 0); stroke-linecap: round; stroke-linejoin: round; stroke-width: 5;" /><path d="M175,203L175,204L173,210L174,209L173,210L173,210L172,213L172,215L174,215L175,216L175,216L182.73,168.25L189,167L189,167L188,161L188,159L188,157L187,151L187,148L190,143L192,137L194,136L195,136L195,136L199,135L199,135L200,135L204,134L208,135L212,134L217,136L223,136L227,133L227,133L230,133L233,133L234,134L237,135L240,136L242,137L246,139L244,139L251,138L249,139L255,140L257,140L261,139L267,139L270,139L273,138L276,139L275,139L279,137L280,137L282,137L284,138L288,139L289,138L291,140L295,141L293,140L299,142L300,143L302,144L306,143L308,143" fill="none" stroke="#000000" style="-webkit-tap-highlight-color: rgba(0, 0, 0, 0); stroke-linecap: round; stroke-linejoin: round; stroke-width: 5;" /><path d="M310,145L317,144L313,144L317,144L323,147L324,147L326,146L329,147L330,147L333,150L300.33,150.16L304,147L306,147L308,147L310,145L313,144L315,145L317,144L318,147L326,146L323,148L329,147L332,151L334,152L338,154L340,155L342,157L343,161L347,165L353,169L349,166L355,171L357,175L359,179L359,177L360,182L362,192L361,188L361,184L363,193L364,195L369,195L365,198L365,199L371,202L371,203L372,206L373,208" fill="none" stroke="#000000" style="-webkit-tap-highlight-color: rgba(0, 0, 0, 0); stroke-linecap: round; stroke-linejoin: round; stroke-width: 5;" /><path d="M373,213L373,212L374,216L375,217L375,219L380,224L381,224L383,225L390,226L386,226L390,226L390,226L399,226L370.88,226.15L375,222L375,222L375,221L376,222L381,224L386,226L394,228L402,228L412,232L407,229L418,233L422,231L427,230L434,234L451,234L454,233L436,234L442,235L457,236L463,236L460,235L444,235L469,235L465,234L469,235L472,236L474,236L476,236L478,237L479,237L482,239L489,235L489,235L490,235L491,235L496,234L496,234L499,234L501,231L507,233L503,231L510,233L513,230L517,230L518,230L523,229L526,231L531,232L531,232L527,231L537,232L537,232L547,228L539,233L547,228L548,228L549,228L556,230L553,230L559,229L561,229L566,227L566,227L568,228L570,229L570,229L578,229L581,226L581,226L585,225L590,223L588,223L593,224L601,225L597,225L604,224L608,224L614,226L610,224L619,225L617,226L621,225L623,226L628,227L632,226L638,224L640,224L638,224L632,226" fill="none" stroke="#000000" style="-webkit-tap-highlight-color: rgba(0, 0, 0, 0); stroke-linecap: round; stroke-linejoin: round; stroke-width: 5;" /><path d="M652,225L642,225L652,225L644,226L654,224L660,228L655,224L655,224L664,228L669,229L669,229L662,228L683,230L671,229L677,231L684,230L686,230L688,230L696,225L696,226L698,225L700,226L700,226L706,225L706,227L712,232L712,232L716,231L718,232L720,233L723,232L723,232L730,234L731,232L731,232L733,232L735,233L736,233L736,233L739,236L739,236L740,237L740,237L749,238L749,238L749,238L749,238L749,238L751,238L738.15,240.62L742,241L744,241L747,241L749,242L751,241L752,245L755,245L756,246L758,248L760,248L762,250L766,250L766,251L766,251L766,253L766,255L766,257L771,265L776,271L771,265L778,274L776,271L778,274L779,277L779,277L780,282" fill="none" stroke="#000000" style="-webkit-tap-highlight-color: rgba(0, 0, 0, 0); stroke-linecap: round; stroke-linejoin: round; stroke-width: 5;" /><path d="M780,282L780,284L778,287L777,289L776,292L775,295L776,300L776,300L773,301L773,304L773,306L773,306L774.33,271.38L771,309L771,311L770,311L771,315L771,318L771,317L769,320L768,321L769,324L770,324L773,320L774,275L774,279L774,275L774,282L774,286L774,289L773,293L773,296L773,299L773,306L773,304L775,309L774,311L775,313L775,315L775,316L773,320L773,322L772,325L771,328L773,332L773,333L773,334L773,337L773,338L773,340L773,340L772,344L771,347L771,346L771,349L768,351L770,353L769,356L768,356L767,357L767,362L765,358L767,362L767,362L767,373L765,370L765,370L767,369L768,375L768,375L770,378L769,376L771,377L770,380L770,382L770,384L772,387L772,384L773,388L773,388L769,392L769,394L769,394L769,396L769,397L769,402L769,402L769,403L769,404L769,404L766,407L766,407L766,415L766,415L766,416L766,420L766,418L766,422L766,422L766,425L766,422L765,430L766,426L765,431L765,431L765,434L765,432L764,434L763,435L759,440L760,439L762,436L760,439L753,442L757,441L758,441" fill="none" stroke="#000000" style="-webkit-tap-highlight-color: rgba(0, 0, 0, 0); stroke-linecap: round; stroke-linejoin: round; stroke-width: 5;" /><path d="M753,442L753,442L751,442L747,448L748,446L742,454L742,454L742,454L745,448L742,456L745,458L745,458L744,458L747,461L742,467L747,461L742,466" fill="none" stroke="#000000" style="-webkit-tap-highlight-color: rgba(0, 0, 0, 0); stroke-linecap: round; stroke-linejoin: round; stroke-width: 5;" /><path d="M483.05,475.82" fill="none" stroke="#000000" style="-webkit-tap-highlight-color: rgba(0, 0, 0, 0); stroke-linecap: round; stroke-linejoin: round; stroke-width: 5;" /><path d="M742,468L742,468L742,466L742,467L740,463" fill="none" stroke="#000000" style="-webkit-tap-highlight-color: rgba(0, 0, 0, 0); stroke-linecap: round; stroke-linejoin: round; stroke-width: 5;" /><path d="M478,472L479,470L478,473L479,470L481,469L489,469L485,468L493,469L501,468L496,469L507,469L511,470L515,472L521,476L519,470L528,471L533,470L539,475L543,473L544,473L550,465L556,471L559,469L561,468L562,468L569,467L571,466L575,465L579,465L580,465L584,465L587,463L591,462L591,462L599,467L599,467L600,465L600,465L609,464L602,465L611,469L617,466L620,467L613,468L621,466L621,466L632,466L632,466L632,466L633,466L638,465L640,465L646,465L646,465L647,465L654,466L654,466L655,466L660,466L664,466L659,466L666,466L668,466L676,466L676,466L676,466L686,467L686,467L687,467L677,465L693,469L695,469L697,469L692,469L697,469L702,469L703,468L701,470L703,468L707,465L712,468" fill="none" stroke="#000000" style="-webkit-tap-highlight-color: rgba(0, 0, 0, 0); stroke-linecap: round; stroke-linejoin: round; stroke-width: 5;" /><path d="M712,468L712,468L714,468L713,468L714,468L721,468L721,468L722,468L724,468L724,468L724,468L733,467L732,468L732,468L740,464L734,467L735,468L738,464L742,466L747,461L741,461L747,461L747,461L752,460L749,461L751,460L754,461L752,460" fill="none" stroke="#000000" style="-webkit-tap-highlight-color: rgba(0, 0, 0, 0); stroke-linecap: round; stroke-linejoin: round; stroke-width: 5;" /><path d="M416.11,388.98L418,393" fill="none" stroke="#000000" style="-webkit-tap-highlight-color: rgba(0, 0, 0, 0); stroke-linecap: round; stroke-linejoin: round; stroke-width: 5;" /><path d="M418,394L418,398L418,402L416,403L416,405L403.45,419.73L403,425L403,423L402,427L401,429L401,431L401,431L401,432L401,432L401,431L401,431L401,429L401,429L401,429L397,410L397,410L396,408L396,408L396,398L397,402L396,398L396,396L396,395L396,395L397,389L397,389L398,385L397,387L397,386L398,385L398,385L401,375L401,375L400,370L400,370L399,367L399,367L398,365L399,365L401,360L401,360L401,358L401,356L404,350L403,351L407,348L410,345L409,347L409,347L412,344L415,342L418,341L418,341L414,343L420,340L422,339L422,339L423,338L431,337L429,337L438,337L434,337L445,337L441,337L451,339L453,340L457,343L457,343L457,343L457,343L457,343L464,346L467,349L467,349L468,350L471,352L472,353L475,357L475,357L475,357L475,357L475,357L481,363L481,363L475,357L481,363L484,367L484,367L486,372L486,372L486,372L486,372L488,373L488,373L495,384L495,384L495,384L495,385L495,386L492,392L494,392L496,394" fill="none" stroke="#000000" style="-webkit-tap-highlight-color: rgba(0, 0, 0, 0); stroke-linecap: round; stroke-linejoin: round; stroke-width: 5;" /><path d="M496,386" fill="none" stroke="#000000" style="-webkit-tap-highlight-color: rgba(0, 0, 0, 0); stroke-linecap: round; stroke-linejoin: round; stroke-width: 5;" /><path d="M479.43,251.48L480,248L483,244L485,242L486,241L489,235L489,235L489,235L479,237L476,236L479,237L476,236L478,242L478,248L479,255L479,261L481,265L484,282L480,273L479,284L481,288L481,291L481,295L484,300L482,302L482,306L482,307L482,311L483,315L483,316L483,320L483,322L482,324L481,326L481,327L482,330L482,331L481,335L482,332L481,337L481,340L482,344L482,342L483,347L483,351L483,355L479,358L481,363L481,362L484,367L486,372L486,372L486,372L486,372L479,385L479,389L479,393L479,394L486,406L486,406L485,407L485,407L485,409L485,407L485,409L486,412L486,412L486,412L486,412L486,412L479,433L479,433L481,433L481,433L481,433L481,433L483,433L483,433" fill="none" stroke="#000000" style="-webkit-tap-highlight-color: rgba(0, 0, 0, 0); stroke-linecap: round; stroke-linejoin: round; stroke-width: 5;" /><path d="M487,438L487,441L487,440L487,443L487,445L487,449L487,450L487,447L487,454L485,463L485,462L481,469L483,467L484,466L481,468L481,469" fill="none" stroke="#000000" style="-webkit-tap-highlight-color: rgba(0, 0, 0, 0); stroke-linecap: round; stroke-linejoin: round; stroke-width: 5;" /><path d="M354.6,173.68L348,172L347,173L348,172L347,173L345,175L352,194L347,183L351,202L351,207L353,216L353,223L352,231L352,237L355,245L356,243L356,251L356,248L356,252L356,256L356,260L355,261L358,264L357,266L358,268L358,270L358,271L358,271L356,275L356,277L358,283L358,284L356,289L356,293L356,297L356,298L355,302L355,306L355,308L355,308L355,313L354,316L354,320L354,322L354,331L354,331L354,332L354,339L354,339L354,342L354,347L354,349L353,352L352,359L353,354L351,361L350,365L351,374L351,375L351,375L352,381L352,383L352,388L352,391L352,393L352,393L352,393L355,409L350,424L350,424L352,425L352,427L351,431L351,432L350,436L350,439L349,443L349,447L348,452L348,458L352,467L355,468L355,468L355,468L355,470L354,472L356,474L356,474" fill="none" stroke="#000000" style="-webkit-tap-highlight-color: rgba(0, 0, 0, 0); stroke-linecap: round; stroke-linejoin: round; stroke-width: 5;" /><path d="M354,479L354,479L359,487L354,481L359,488L355,494L353,493L353,493L353,493L352,482L352,482" fill="none" stroke="#000000" style="-webkit-tap-highlight-color: rgba(0, 0, 0, 0); stroke-linecap: round; stroke-linejoin: round; stroke-width: 5;" /><path d="M189.96,135.69L188,140L188,140L188,141L186,146L188,157L186,150L188,169L188,161L185,173L181,177L181,183L181,188L180,194L176,198L176,204L176,208L176,217L178,214L176,222L178,226L173,232L174,240L175,241L175,248L174,255L175,261L175,265L174,273L177,284L176,291L174,278L176,293L177,299L177,299L178,297L177,302L176,304L177,308L176,305L177,308L178,315L176,313L175,320L174,329L175,320L175,325L175,327L173,337L176,339L174,338L175,342L175,352L175,361L175,347L175,352L175,361L172,372L173,369L175,365L172,377L166,386L170,380L166,385L165,391L168,395L168,395L168,395L169,400" fill="none" stroke="#000000" style="-webkit-tap-highlight-color: rgba(0, 0, 0, 0); stroke-linecap: round; stroke-linejoin: round; stroke-width: 5;" /><path d="M171,405L170,403L171,405L171,415L172,420L171,415L172,417L172,421L172,425L172,425L174,429L172,432L172,432L173,442L173,436L172,438L174,442L173,444L172,447L173,450L173,450L175,451L176,455L175,451L172,447" fill="none" stroke="#000000" style="-webkit-tap-highlight-color: rgba(0, 0, 0, 0); stroke-linecap: round; stroke-linejoin: round; stroke-width: 5;" /><path d="M74.18,352.79L69,355L73,360L71,368L71,363L77,373L81,384L81,387L82,389L84,403L84,404L84,404L74,416L74,418L78,430L78,430L78,430L78,430" fill="none" stroke="#000000" style="-webkit-tap-highlight-color: rgba(0, 0, 0, 0); stroke-linecap: round; stroke-linejoin: round; stroke-width: 5;" /><path d="M78,430L78,430L80,434L78,431L79,439L79,436L82,441L78,440L78,440L79,436" fill="none" stroke="#000000" style="-webkit-tap-highlight-color: rgba(0, 0, 0, 0); stroke-linecap: round; stroke-linejoin: round; stroke-width: 5;" /><path d="M75.99,358.22L73,362L75,367L74,367L70,369L65,372L61,376L54,383L52,393L51,397L51,396L49,401L47,405L43,411L42,418L38,421L35,432" fill="none" stroke="#000000" style="-webkit-tap-highlight-color: rgba(0, 0, 0, 0); stroke-linecap: round; stroke-linejoin: round; stroke-width: 5;" /><path d="M33,438L33,443L34,440L33,440L38,433L3.62,428.78L2,427L5,429L10,434L10,434L11,435L13,436L13,438L14,436L18,434L32,424L23,431L43,426L44,427L65,432L60,432L76,431L78,430L81,430L91,417L100,420L94,425L110,418L105,417L123,416L129,416L136,415L141,418L143,419L148,422L151,422L154,424L157,426L159,427L171,431L165,424L171,431L174,431L176,431L182,434L186,438L183,435L188,438L192,439L196,440L196,440L199,442L198,443L198,444L207,448L209,447L203,449L211,453L222,452L218,450L221,452L226,452L233,455L235,455L240,455L231,453L242,457L245,459L251,461L256,463L259,464L266,468L262,468L273,472L268,468L274,474L279,475L288,479L284,477L298,485L295,483L303,485L291,481L303,487L301,487L315,488L312,486L322,495L318,492L327,496L326,496L331,498L335,499L336,500L339,502L342,505L347,509L346,507L350,512L353,516L358,516L356,517L355,516L360,518L362,521L365,523" fill="none" stroke="#000000" style="-webkit-tap-highlight-color: rgba(0, 0, 0, 0); stroke-linecap: round; stroke-linejoin: round; stroke-width: 5;" /><path d="M365,525L367,526L369,526L371,531L373,532L375,533L379,539L376,536L382,540L378,536L384,542L387,544L392,546L389,545L395,551L394,544L398,552L396,547L402,554L400,552L403,554L408,557L409,557L412,558L419,561L417,559L427,563L425,562L422,561L431,564L432,564L434,564L435,564L435,564L435,563L419.73,521.05L417,522L414,521L412,521L412,521L427,521L419,523L433,519L442,520L440,520L451,519L449,519L456,518L460,517L461,517L461,517" fill="none" stroke="#000000" style="-webkit-tap-highlight-color: rgba(0, 0, 0, 0); stroke-linecap: round; stroke-linejoin: round; stroke-width: 5;" /><path d="M471,526L463,517L461,517L460,517L414.3,504.76L411,508L409,508L407,508L417,510L424,509" fill="none" stroke="#000000" style="-webkit-tap-highlight-color: rgba(0, 0, 0, 0); stroke-linecap: round; stroke-linejoin: round; stroke-width: 5;" /><path d="M433,510L445,508L447,508L448,509L450,510L450,510L470.39,472.2L475,474L475,474L463,474L461,478L461,481L460,487L461,496L463,510L463,517L471,526L464,512L471,532L463,541L465,541L463,541" fill="none" stroke="#000000" style="-webkit-tap-highlight-color: rgba(0, 0, 0, 0); stroke-linecap: round; stroke-linejoin: round; stroke-width: 5;" /><path d="M460,557L461,558L463,560L476,554L476,550L476,548L476,548" fill="none" stroke="#000000" style="-webkit-tap-highlight-color: rgba(0, 0, 0, 0); stroke-linecap: round; stroke-linejoin: round; stroke-width: 5;" /><path d="M499.34,486.67L494,477L494,477L495,477L503,474L508,477L516,481L521,477L537,479L543,481L553,480L556,481L575,481L570,481L582,482L583,484L588,487L596,483L596,504L616,499L618,500L619,499L620,497L645,520L645,520L645,520L647,520L657,510L659,510L657,510L659,510L659,510L677,510L680,510L673,512L682,510L693,506L698,506L693,506L706,504L708,504L700,506L714,511L719,507L725,507L723,507L728,504L743,515L741,515L743,515L728,504L765,516L760,516L773,516L778,516L794,516L783,516L789,516L800,516L805,516L818,517L814,517L809,517L825,517L821,517L832,517L829,517L843,519L839,519L836,517L847,519L863,523L852,521L856,521L859,521L867,523L872,525L870,523L876,525" fill="none" stroke="#000000" style="-webkit-tap-highlight-color: rgba(0, 0, 0, 0); stroke-linecap: round; stroke-linejoin: round; stroke-width: 5;" /><path d="M877,525L879,525L881,526L885,526L888,526L897,528L894,528L901,530L912,542L912,542L910,542L906,530L912,542L928,532L934,532L924,532L941,532L950,532L946,532L937,532L970,532L961,532" fill="none" stroke="#000000" style="-webkit-tap-highlight-color: rgba(0, 0, 0, 0); stroke-linecap: round; stroke-linejoin: round; stroke-width: 5;" /><path d="M995.05,408.88" fill="none" stroke="#000000" style="-webkit-tap-highlight-color: rgba(0, 0, 0, 0); stroke-linecap: round; stroke-linejoin: round; stroke-width: 5;" /><path d="M966,532L955,532L975,532L996,524L981,532L996,524L1006,526L1006,526L997,524L1008,526L1017,528L1006,524L1008,526L1008,526" fill="none" stroke="#000000" style="-webkit-tap-highlight-color: rgba(0, 0, 0, 0); stroke-linecap: round; stroke-linejoin: round; stroke-width: 5;" /><path d="M999,407L1002,402L1000,405L1002,403L995,400L999,400L1000,400L982,395L970,397L981,395L982,395L971,397L955,396L942,402L953,397L968,397L935,409L941,403L935,409L931,413L919,416L924,416L930,413L928,415L909,419L903,419L915,417L899,420L892,419L877,418L883,418L873,416L851,421L851,421L840,424L849,421L832,426L838,425L821,432L825,431L815,437L809,440L817,435L819,433L807,440L801,440L799,442L803,440" fill="none" stroke="#000000" style="-webkit-tap-highlight-color: rgba(0, 0, 0, 0); stroke-linecap: round; stroke-linejoin: round; stroke-width: 5;" /><path d="M798,443L794,446L794,446L794,446L782,441L792,447L782,441L782,441L777,442L777,442L777,442L778,442L760,439L769,458L769,458L758,441" fill="none" stroke="#000000" style="-webkit-tap-highlight-color: rgba(0, 0, 0, 0); stroke-linecap: round; stroke-linejoin: round; stroke-width: 5;" /><path d="M796.04,399.83" fill="none" stroke="#000000" style="-webkit-tap-highlight-color: rgba(0, 0, 0, 0); stroke-linecap: round; stroke-linejoin: round; stroke-width: 5;" /><path d="M758,441L749,458L752,460L758,441L747,458L742,458L745,458L739,460L739,460L734,459L735,459L736,459L733,462L739,460L735,462L736,459" fill="none" stroke="#000000" style="-webkit-tap-highlight-color: rgba(0, 0, 0, 0); stroke-linecap: round; stroke-linejoin: round; stroke-width: 5;" /><path d="M796,395L794,394L791,393L789,392L783,390L778,389L777,389L780,389L778,389L784,391L787,392L789,393L795,395L800,396L809,398L816,398L826,399L819,398L826,399L838,393L839,392L844,390L838,392L848,389L850,389L850,389L850,389" fill="none" stroke="#000000" style="-webkit-tap-highlight-color: rgba(0, 0, 0, 0); stroke-linecap: round; stroke-linejoin: round; stroke-width: 5;" /><path d="M864,389L867,386L868,386L868,386L877,386L890,381L881,386L890,381L894,380L903,380" fill="none" stroke="#000000" style="-webkit-tap-highlight-color: rgba(0, 0, 0, 0); stroke-linecap: round; stroke-linejoin: round; stroke-width: 5;" /><path d="M969.72,387.17" fill="none" stroke="#000000" style="-webkit-tap-highlight-color: rgba(0, 0, 0, 0); stroke-linecap: round; stroke-linejoin: round; stroke-width: 5;" /><path d="M897,380L908,382L914,382L917,382L920,382L921,381L930,388L937,381L941,381L937,381L946,381L955,382L949,382L955,382L962,382L964,382L962,382L965,385L967,386L967,386L964,385L966,386L961,385L959,384L952,382L946,381L940,378L936,378L934,378L931,378L921,379L919,379L915,380L910,379L905,377L900,379L897,379L892,380L894,380L890,381L890,381L877,386L879,386L877,386L868,386L867,386L867,386L864,389" fill="none" stroke="#000000" style="-webkit-tap-highlight-color: rgba(0, 0, 0, 0); stroke-linecap: round; stroke-linejoin: round; stroke-width: 5;" /><path d="M852,391L850,389L849,389L843,391L838,393L826,399L819,398L816,398L812,398L807,398L798,395L803,397L794,394L791,393L780,389L785,391L778,389L774,388L769,384L772,387L767,384L763,385L765,384L763,389L763,385" fill="none" stroke="#000000" style="-webkit-tap-highlight-color: rgba(0, 0, 0, 0); stroke-linecap: round; stroke-linejoin: round; stroke-width: 5;" /><path d="M524.66,300.33L526,297L526,291L524,288L523,287L522,289L526,295L522,300L523,309L523,318L524,329L524,340L523,347L523,353L524,360L523,364L523,371L522,378L522,375L522,380" fill="none" stroke="#000000" style="-webkit-tap-highlight-color: rgba(0, 0, 0, 0); stroke-linecap: round; stroke-linejoin: round; stroke-width: 5;" /><path d="M523,383L523,383L523,387L523,389L523,387" fill="none" stroke="#000000" style="-webkit-tap-highlight-color: rgba(0, 0, 0, 0); stroke-linecap: round; stroke-linejoin: round; stroke-width: 5;" /><path d="M379.93,573.51L385,565L384,570L389,562L391,560L393,559L394,559L391,562L388,564L388,566L384,568L376,574L378,572L365,577L370,575L360,579L356,578L353,581L347,581L344,582L340,584L337,586L333,586L327,590L329,588L324,592L322,595L319,593L317,594L310,597L308,601L301,602L299,604L293,602L290,606L281,606L286,605L275,607L271,605L268,605L263,606L260,606L254,606L251,606L246,606L248,605L244,606L239,606L232,605L223,607L204,611L198,613L194,613L213,610L190,612L183,612L186,613L180,611L173,606L177,607L166,604L170,604L156,603L162,601L150,602L144,602L138,602L130,602L116,603L123,601" fill="none" stroke="#000000" style="-webkit-tap-highlight-color: rgba(0, 0, 0, 0); stroke-linecap: round; stroke-linejoin: round; stroke-width: 5;" /><path d="M103,605L109,603L97,606L99,606L92,607L89,606L85,607L80,608L78,608L74,608L72,609L69,610L67,611L63,611L62,613L58,612L54,614L49,617L45,619L42,621L37,621L35,625L31,626L32,623L26,628L29,628L23,631L25,628L22,630L19,631L16,630L17,631L11,631L15,629L11,628L13,628L8,626L12,625L9,623L13,622" fill="none" stroke="#000000" style="-webkit-tap-highlight-color: rgba(0, 0, 0, 0); stroke-linecap: round; stroke-linejoin: round; stroke-width: 5;" /><path d="M204.44,233.39L202,230L202,228L202,230L202,239L201,243L202,250L202,262L203,267L203,267L205,270L206,266L215,258L212,262L219,255L223,252L225,253L226,252L227,252L227,255L227,255L227,255L227,255L225,239L225,244L224,233L224,228L224,227L224,223L221,224L223,223" fill="none" stroke="#000000" style="-webkit-tap-highlight-color: rgba(0, 0, 0, 0); stroke-linecap: round; stroke-linejoin: round; stroke-width: 5;" /></svg>