<?xml version="1.0" encoding="utf-8" ?>
<svg baseProfile="full" height="1477" version="1.1" width="1024" xmlns="http://www.w3.org/2000/svg" xmlns:ev="http://www.w3.org/2001/xml-events" xmlns:xlink="http://www.w3.org/1999/xlink"><defs /><path d="M216.82,104.49L219.43,104.49L222.04,104.49L222.04,107.1L219.43,107.1L216.82,107.1L214.2,109.71L211.59,109.71L208.98,112.33L206.37,114.94L203.76,114.94L201.14,117.55L198.53,117.55L195.92,117.55L193.31,117.55L190.69,117.55L188.08,117.55L188.08,120.16L185.47,120.16L182.86,120.16L180.24,120.16L177.63,122.78L175.02,125.39L172.41,125.39L169.8,128L164.57,130.61L161.96,135.84L156.73,138.45L154.12,141.06L151.51,143.67L148.9,146.29L148.9,148.9L148.9,151.51L151.51,154.12L151.51,156.73L154.12,156.73L154.12,159.35L156.73,161.96L156.73,164.57L159.35,167.18L161.96,172.41L161.96,175.02L161.96,180.24L164.57,182.86L164.57,185.47L164.57,188.08L164.57,190.69L161.96,193.31L161.96,195.92L161.96,198.53L161.96,201.14L159.35,203.76L159.35,206.37L156.73,211.59L156.73,214.2L154.12,219.43L154.12,224.65L151.51,227.27L151.51,229.88L151.51,232.49L151.51,237.71L151.51,240.33L151.51,245.55L151.51,248.16L154.12,253.39L154.12,256L154.12,261.22L154.12,263.84L154.12,266.45L154.12,269.06L154.12,271.67L154.12,274.29L154.12,276.9L154.12,282.12L154.12,284.73L154.12,287.35L154.12,289.96L156.73,295.18L156.73,297.8L156.73,300.41L156.73,303.02L159.35,305.63L159.35,308.24L159.35,313.47L156.73,318.69L154.12,329.14L151.51,334.37L151.51,339.59L148.9,344.82L148.9,350.04L146.29,355.27L146.29,357.88L143.67,360.49L143.67,363.1L141.06,365.71L138.45,368.33L135.84,368.33L133.22,370.94L130.61,373.55L128,378.78L125.39,381.39L122.78,384L120.16,384L120.16,386.61L117.55,389.22L117.55,391.84L117.55,394.45L117.55,397.06L114.94,399.67L114.94,402.29L112.33,404.9L112.33,407.51L112.33,410.12L112.33,412.73L112.33,415.35L109.71,417.96L107.1,420.57L104.49,420.57L101.88,420.57L99.27,420.57L96.65,420.57L96.65,423.18L94.04,425.8L94.04,428.41L94.04,431.02L94.04,436.24L96.65,441.47L96.65,449.31L99.27,454.53L99.27,462.37L99.27,470.2L99.27,478.04L101.88,483.27L101.88,488.49L101.88,493.71L101.88,498.94L101.88,504.16L104.49,514.61L104.49,517.22L107.1,519.84L107.1,525.06L107.1,527.67L107.1,532.9L109.71,538.12L109.71,543.35L109.71,548.57L109.71,556.41L109.71,561.63L109.71,566.86L109.71,572.08L109.71,577.31L109.71,582.53L109.71,587.76L109.71,592.98L109.71,598.2L109.71,603.43L109.71,608.65L109.71,611.27L109.71,616.49L109.71,619.1L109.71,621.71L109.71,624.33L109.71,629.55L107.1,634.78L107.1,640L107.1,647.84L107.1,655.67L107.1,660.9L107.1,666.12L107.1,671.35L107.1,676.57L109.71,681.8L109.71,684.41L112.33,684.41L114.94,684.41L117.55,684.41L117.55,687.02L117.55,689.63L117.55,694.86L117.55,697.47L117.55,700.08L114.94,702.69L114.94,705.31L112.33,707.92L112.33,710.53L109.71,713.14L107.1,715.76L107.1,718.37L107.1,720.98L104.49,723.59L101.88,726.2L101.88,728.82L101.88,731.43L99.27,736.65L99.27,739.27L99.27,741.88L99.27,744.49L99.27,747.1L99.27,749.71L99.27,752.33L99.27,754.94L99.27,757.55L99.27,760.16L99.27,765.39L101.88,768L101.88,770.61L101.88,775.84L101.88,778.45L104.49,783.67L104.49,788.9L107.1,794.12L107.1,799.35L107.1,807.18L109.71,812.41L109.71,815.02L109.71,820.24L109.71,825.47L109.71,828.08L112.33,833.31L112.33,835.92L112.33,838.53L112.33,843.76L112.33,846.37L112.33,848.98L112.33,851.59L112.33,854.2L112.33,856.82L112.33,862.04L114.94,864.65L114.94,867.27L114.94,869.88L117.55,875.1L120.16,877.71L120.16,882.94L122.78,885.55L122.78,888.16L122.78,890.78L122.78,893.39L120.16,896L114.94,898.61L112.33,898.61L107.1,901.22L101.88,901.22L96.65,903.84L94.04,906.45L91.43,909.06L88.82,914.29L88.82,919.51L83.59,927.35L83.59,935.18L83.59,940.41L83.59,945.63L80.98,950.86L80.98,953.47L78.37,958.69L75.76,963.92L73.14,969.14L70.53,971.76L65.31,971.76L62.69,971.76L60.08,974.37L57.47,974.37L54.86,974.37L52.24,976.98L47.02,979.59L44.41,982.2L44.41,987.43L41.8,995.27L39.18,997.88L39.18,1005.71L36.57,1010.94L36.57,1013.55L33.96,1018.78L33.96,1021.39L31.35,1021.39" fill="none" stroke="#000000" style="-webkit-tap-highlight-color: rgba(0, 0, 0, 0); stroke-linecap: round; stroke-linejoin: round; stroke-width: 7;" /><path d="M125.39,1008.33L122.78,1008.33L120.16,1008.33L117.55,1008.33L112.33,1008.33L109.71,1005.71L107.1,1003.1L104.49,1003.1L101.88,1000.49L101.88,1003.1L101.88,1005.71L99.27,1010.94L99.27,1016.16L99.27,1024L99.27,1029.22L101.88,1034.45L101.88,1039.67L104.49,1044.9L104.49,1047.51L107.1,1052.73L109.71,1055.35L112.33,1057.96L112.33,1063.18L114.94,1068.41L114.94,1076.24L114.94,1081.47L114.94,1084.08L114.94,1089.31L114.94,1094.53L114.94,1099.76L114.94,1104.98L117.55,1110.2L117.55,1112.82L117.55,1115.43L117.55,1120.65L117.55,1123.27L117.55,1128.49L114.94,1136.33L114.94,1144.16L112.33,1152L112.33,1157.22L112.33,1162.45L112.33,1167.67L112.33,1172.9L112.33,1178.12L114.94,1180.73L114.94,1185.96L114.94,1188.57L114.94,1191.18L114.94,1196.41L114.94,1199.02L114.94,1201.63L114.94,1204.24L112.33,1206.86L112.33,1209.47L109.71,1206.86L109.71,1199.02L109.71,1191.18" fill="none" stroke="#000000" style="-webkit-tap-highlight-color: rgba(0, 0, 0, 0); stroke-linecap: round; stroke-linejoin: round; stroke-width: 7;" /><path d="M23.51,1029.22L20.9,1029.22L18.29,1029.22L18.29,1034.45L18.29,1044.9L15.67,1057.96L15.67,1073.63L15.67,1089.31L18.29,1102.37L20.9,1112.82L23.51,1123.27L28.73,1133.71L31.35,1144.16L33.96,1154.61L33.96,1167.67L33.96,1178.12L33.96,1188.57L31.35,1193.8L28.73,1199.02L28.73,1204.24L28.73,1206.86L31.35,1206.86L36.57,1209.47L41.8,1209.47L47.02,1212.08L54.86,1212.08L65.31,1212.08L73.14,1214.69L78.37,1217.31L86.2,1219.92L88.82,1222.53L94.04,1222.53L99.27,1219.92L107.1,1217.31L112.33,1212.08L120.16,1206.86L122.78,1204.24L122.78,1201.63L120.16,1199.02L117.55,1196.41" fill="none" stroke="#000000" style="-webkit-tap-highlight-color: rgba(0, 0, 0, 0); stroke-linecap: round; stroke-linejoin: round; stroke-width: 7;" /><path d="M28.73,984.82L26.12,984.82L23.51,982.2L23.51,984.82L26.12,987.43L28.73,987.43L33.96,990.04L41.8,992.65L49.63,992.65L65.31,992.65L78.37,992.65L88.82,992.65L94.04,992.65" fill="none" stroke="#000000" style="-webkit-tap-highlight-color: rgba(0, 0, 0, 0); stroke-linecap: round; stroke-linejoin: round; stroke-width: 7;" /><path d="M266.45,99.27L258.61,99.27L250.78,99.27L248.16,99.27L242.94,99.27L240.33,99.27L237.71,99.27L235.1,96.65L229.88,96.65L227.27,96.65L224.65,96.65L224.65,94.04L227.27,94.04L232.49,91.43L237.71,91.43L245.55,88.82L256,88.82L266.45,88.82L274.29,88.82L279.51,88.82L282.12,91.43L284.73,91.43L287.35,91.43L292.57,94.04L297.8,94.04L303.02,94.04L308.24,94.04L316.08,94.04L321.31,94.04L329.14,94.04L336.98,94.04L342.2,91.43L347.43,91.43L350.04,94.04L352.65,94.04L352.65,96.65L352.65,101.88L352.65,104.49L352.65,109.71L352.65,112.33L352.65,117.55L352.65,122.78L352.65,125.39L352.65,130.61L352.65,135.84L352.65,141.06L355.27,146.29L355.27,151.51L357.88,154.12L357.88,159.35L360.49,164.57L360.49,169.8L360.49,175.02L360.49,180.24L360.49,182.86L360.49,185.47L360.49,188.08L360.49,193.31L363.1,198.53L363.1,203.76L365.71,208.98L365.71,214.2L368.33,219.43L370.94,222.04L370.94,224.65L373.55,229.88L376.16,235.1L376.16,237.71L378.78,242.94L378.78,248.16L378.78,253.39L378.78,256L378.78,261.22L378.78,263.84L378.78,271.67L378.78,276.9L381.39,282.12L384,284.73L386.61,289.96L391.84,297.8L394.45,303.02L399.67,305.63L399.67,310.86L402.29,310.86L402.29,313.47L404.9,316.08L407.51,318.69L410.12,318.69L412.73,321.31L412.73,326.53L415.35,329.14L415.35,331.76L415.35,336.98L415.35,339.59L412.73,347.43L412.73,352.65L412.73,357.88L410.12,365.71L410.12,373.55L410.12,378.78L407.51,384L407.51,389.22L407.51,394.45L407.51,402.29L410.12,407.51L410.12,412.73L410.12,417.96L410.12,420.57L410.12,425.8L407.51,433.63L404.9,441.47L402.29,449.31L399.67,457.14L399.67,464.98L397.06,472.82L397.06,478.04L397.06,483.27L397.06,488.49L399.67,493.71L399.67,496.33L402.29,504.16L402.29,509.39L404.9,514.61L407.51,517.22L407.51,522.45L410.12,527.67L410.12,530.29L412.73,532.9L412.73,535.51L412.73,538.12L415.35,540.73L415.35,543.35L415.35,545.96L417.96,551.18L417.96,553.8L417.96,559.02L417.96,561.63L417.96,566.86L417.96,572.08L417.96,574.69L417.96,579.92L417.96,585.14L417.96,587.76L417.96,592.98L417.96,595.59L417.96,600.82L417.96,611.27L417.96,616.49L417.96,619.1L417.96,629.55L417.96,634.78L417.96,640L417.96,645.22L417.96,650.45L417.96,655.67L417.96,660.9L417.96,666.12L417.96,668.73L417.96,673.96L417.96,679.18L417.96,684.41L417.96,689.63L417.96,697.47L417.96,702.69L417.96,707.92L417.96,718.37L415.35,726.2L415.35,734.04L415.35,741.88L412.73,749.71L412.73,757.55L412.73,765.39L412.73,773.22L412.73,778.45L412.73,786.29L412.73,791.51L412.73,799.35L412.73,804.57L412.73,809.8L412.73,817.63L412.73,822.86L412.73,825.47L412.73,830.69L412.73,835.92L415.35,838.53L415.35,843.76L415.35,848.98L415.35,856.82L417.96,862.04L417.96,869.88L417.96,877.71L417.96,882.94L417.96,890.78L417.96,898.61L417.96,903.84L417.96,906.45L417.96,909.06L420.57,911.67L423.18,911.67L425.8,911.67L428.41,911.67L433.63,911.67L438.86,911.67L444.08,911.67L446.69,911.67L451.92,911.67L457.14,914.29L459.76,916.9L464.98,919.51L467.59,924.73L467.59,927.35L470.2,929.96L470.2,932.57L472.82,935.18L472.82,937.8L472.82,940.41L472.82,945.63L472.82,950.86L472.82,953.47L472.82,956.08L470.2,958.69L470.2,961.31L470.2,966.53L470.2,969.14L470.2,974.37L470.2,976.98L470.2,982.2L470.2,987.43L470.2,992.65L470.2,997.88L470.2,1003.1L470.2,1008.33L470.2,1013.55L472.82,1016.16L472.82,1021.39L472.82,1026.61L475.43,1031.84L475.43,1039.67L478.04,1047.51L480.65,1052.73L480.65,1057.96L483.27,1063.18L485.88,1065.8L485.88,1068.41L485.88,1065.8L483.27,1060.57L483.27,1052.73L483.27,1050.12" fill="none" stroke="#000000" style="-webkit-tap-highlight-color: rgba(0, 0, 0, 0); stroke-linecap: round; stroke-linejoin: round; stroke-width: 7;" /><path d="M334.37,96.65L334.37,94.04L331.76,94.04L331.76,96.65L336.98,99.27L339.59,101.88L344.82,104.49L352.65,107.1L363.1,107.1L373.55,107.1L384,104.49L394.45,104.49L402.29,104.49L407.51,104.49L410.12,104.49L415.35,104.49L417.96,104.49L420.57,107.1L423.18,109.71L423.18,112.33L423.18,117.55L423.18,120.16L425.8,125.39L425.8,128L425.8,133.22L425.8,138.45L425.8,143.67L423.18,148.9L423.18,154.12L423.18,159.35L423.18,164.57L423.18,169.8L423.18,175.02L423.18,180.24L423.18,185.47L423.18,188.08L423.18,190.69L428.41,193.31L431.02,193.31L436.24,193.31L438.86,193.31L444.08,190.69L446.69,190.69L449.31,188.08L449.31,185.47L449.31,182.86L451.92,180.24L454.53,175.02L457.14,169.8L459.76,164.57L459.76,159.35L462.37,154.12L462.37,151.51L462.37,148.9L462.37,146.29L462.37,143.67L464.98,141.06L467.59,141.06L470.2,138.45L472.82,138.45L475.43,138.45L480.65,138.45L485.88,135.84L491.1,135.84L496.33,135.84L501.55,135.84L506.78,135.84L509.39,135.84L514.61,135.84L519.84,135.84L522.45,138.45L527.67,138.45L530.29,138.45L535.51,141.06L540.73,141.06L548.57,143.67L553.8,146.29L559.02,148.9L564.24,151.51L566.86,156.73L566.86,159.35L566.86,164.57L569.47,167.18L569.47,172.41L572.08,175.02L572.08,177.63L572.08,180.24L574.69,182.86L574.69,185.47L574.69,190.69L574.69,193.31L577.31,198.53L577.31,203.76L579.92,208.98L582.53,214.2L585.14,219.43L587.76,224.65L587.76,229.88L590.37,232.49L592.98,235.1L592.98,237.71L595.59,240.33L598.2,242.94L603.43,245.55L606.04,248.16L611.27,250.78L613.88,253.39L619.1,256L619.1,258.61L621.71,261.22L624.33,263.84L626.94,269.06L632.16,274.29L634.78,279.51L637.39,284.73L640,289.96L642.61,295.18L642.61,297.8L637.39,300.41L629.55,303.02L616.49,303.02" fill="none" stroke="#000000" style="-webkit-tap-highlight-color: rgba(0, 0, 0, 0); stroke-linecap: round; stroke-linejoin: round; stroke-width: 7;" /><path d="M561.63,201.14L564.24,201.14L564.24,198.53L564.24,195.92L564.24,198.53L564.24,203.76L559.02,208.98L556.41,214.2L548.57,222.04L543.35,232.49L538.12,240.33L535.51,248.16L532.9,256L532.9,261.22L530.29,266.45L530.29,269.06L527.67,274.29L527.67,276.9L525.06,282.12L525.06,284.73L522.45,289.96L519.84,295.18L519.84,300.41L517.22,305.63L517.22,313.47L514.61,318.69L514.61,323.92L514.61,326.53L514.61,329.14L514.61,334.37L512,336.98L509.39,342.2L506.78,347.43L501.55,352.65L498.94,357.88L493.71,363.1L491.1,370.94L485.88,376.16L483.27,384L483.27,389.22L483.27,394.45L483.27,399.67L483.27,404.9L485.88,407.51L488.49,412.73L488.49,417.96L491.1,425.8L491.1,431.02L491.1,436.24L493.71,441.47L493.71,446.69L493.71,451.92L493.71,457.14L493.71,464.98L493.71,472.82L493.71,480.65L493.71,488.49L493.71,496.33L496.33,504.16L496.33,512L498.94,517.22L501.55,525.06L501.55,532.9L501.55,538.12L501.55,545.96L501.55,553.8L501.55,561.63L501.55,572.08L498.94,579.92L496.33,587.76L493.71,598.2L491.1,606.04L491.1,613.88L491.1,619.1L491.1,624.33L491.1,629.55L488.49,637.39L488.49,642.61L488.49,647.84L488.49,655.67L488.49,660.9L488.49,666.12L488.49,668.73L488.49,673.96L488.49,679.18L491.1,684.41L491.1,689.63L493.71,694.86L493.71,697.47L496.33,702.69L498.94,707.92L498.94,713.14L501.55,720.98L504.16,728.82L506.78,736.65L506.78,747.1L506.78,754.94L509.39,760.16L509.39,768L509.39,773.22L509.39,781.06L509.39,788.9L509.39,796.73L506.78,804.57L506.78,812.41L504.16,820.24L504.16,828.08L501.55,835.92L498.94,843.76L498.94,851.59L496.33,864.65L493.71,867.27L493.71,872.49L493.71,875.1L493.71,880.33L491.1,885.55L491.1,890.78L491.1,893.39L491.1,896L491.1,898.61L491.1,901.22L491.1,903.84L488.49,906.45L488.49,909.06L485.88,911.67L483.27,914.29L478.04,916.9L475.43,916.9L470.2,919.51L464.98,922.12L457.14,924.73L449.31,927.35L444.08,932.57L441.47,932.57L446.69,929.96L451.92,922.12" fill="none" stroke="#000000" style="-webkit-tap-highlight-color: rgba(0, 0, 0, 0); stroke-linecap: round; stroke-linejoin: round; stroke-width: 7;" /><path d="M441.47,235.1L441.47,232.49L441.47,229.88L441.47,227.27L441.47,224.65L438.86,224.65L436.24,224.65L436.24,222.04L433.63,222.04L433.63,219.43L433.63,216.82L433.63,214.2L431.02,211.59L431.02,208.98L431.02,206.37L428.41,203.76L428.41,201.14L428.41,198.53L431.02,198.53L433.63,198.53L433.63,201.14L436.24,201.14L436.24,203.76L438.86,203.76L438.86,208.98L438.86,211.59L438.86,216.82L438.86,224.65L441.47,229.88L441.47,237.71L441.47,242.94L441.47,250.78L441.47,261.22L441.47,269.06L441.47,276.9L441.47,284.73L441.47,292.57L441.47,303.02L441.47,308.24L444.08,313.47L444.08,318.69L444.08,326.53L444.08,331.76L444.08,336.98L441.47,344.82L441.47,350.04L441.47,352.65L438.86,355.27L438.86,360.49L438.86,363.1L436.24,368.33L436.24,370.94L438.86,373.55L438.86,376.16L438.86,378.78L438.86,384L438.86,386.61L438.86,391.84L438.86,394.45L441.47,399.67L441.47,402.29L441.47,407.51L441.47,412.73L444.08,417.96L444.08,423.18L444.08,431.02L446.69,438.86L451.92,449.31L451.92,459.76L454.53,472.82L454.53,485.88L454.53,498.94L454.53,514.61L457.14,527.67L459.76,540.73L462.37,556.41L464.98,569.47L464.98,582.53L464.98,598.2L464.98,611.27L464.98,621.71L464.98,632.16L467.59,640L467.59,647.84L467.59,653.06L467.59,660.9L467.59,666.12L467.59,673.96L467.59,681.8L467.59,687.02L467.59,694.86L467.59,702.69L467.59,710.53L467.59,718.37L467.59,723.59L470.2,728.82L470.2,734.04L470.2,739.27L472.82,744.49L472.82,749.71L472.82,754.94L470.2,760.16L467.59,768L467.59,775.84L464.98,783.67L462.37,791.51L459.76,801.96L459.76,809.8L459.76,817.63L459.76,825.47L459.76,833.31L459.76,841.14L462.37,848.98L462.37,856.82L462.37,864.65L462.37,869.88L462.37,875.1L462.37,882.94L462.37,888.16L462.37,893.39L462.37,898.61L462.37,901.22L459.76,903.84L459.76,909.06L459.76,911.67L459.76,914.29L459.76,911.67L459.76,906.45L459.76,903.84L459.76,898.61" fill="none" stroke="#000000" style="-webkit-tap-highlight-color: rgba(0, 0, 0, 0); stroke-linecap: round; stroke-linejoin: round; stroke-width: 7;" /><path d="M493.71,1065.8L491.1,1063.18L485.88,1063.18L483.27,1060.57L485.88,1060.57L488.49,1060.57L493.71,1057.96L498.94,1055.35L506.78,1047.51L517.22,1037.06L527.67,1026.61L535.51,1018.78L543.35,1013.55L548.57,1008.33L556.41,1003.1L564.24,997.88L574.69,990.04L582.53,982.2L590.37,976.98L595.59,971.76L600.82,966.53L603.43,963.92L608.65,958.69L613.88,953.47L619.1,948.24L624.33,943.02L626.94,940.41L629.55,940.41L629.55,943.02L629.55,945.63L632.16,948.24" fill="none" stroke="#000000" style="-webkit-tap-highlight-color: rgba(0, 0, 0, 0); stroke-linecap: round; stroke-linejoin: round; stroke-width: 7;" /><path d="M640,943.02L637.39,943.02L634.78,940.41L634.78,937.8L637.39,937.8L640,937.8L645.22,937.8L650.45,937.8L653.06,937.8L658.29,937.8L660.9,940.41L666.12,940.41L668.73,940.41L673.96,940.41L679.18,943.02L681.8,943.02L687.02,945.63L689.63,945.63L692.24,945.63L694.86,945.63L697.47,945.63L702.69,945.63L705.31,945.63L710.53,945.63L715.76,945.63L720.98,945.63L726.2,945.63L734.04,945.63L739.27,943.02L747.1,943.02L754.94,945.63L762.78,945.63L768,948.24L775.84,948.24L783.67,950.86L788.9,950.86L799.35,950.86L804.57,950.86L812.41,950.86L817.63,953.47L825.47,956.08L833.31,958.69L841.14,958.69L846.37,961.31L854.2,961.31L859.43,963.92L867.27,963.92L872.49,963.92L880.33,963.92L885.55,963.92L890.78,963.92L901.22,963.92L909.06,963.92L916.9,966.53L924.73,966.53L932.57,966.53L940.41,966.53L948.24,966.53L953.47,966.53L958.69,966.53L963.92,966.53L969.14,966.53L974.37,966.53L982.2,969.14L987.43,969.14L992.65,969.14L997.88,969.14L1000.49,969.14L1005.71,969.14L1010.94,969.14L1013.55,969.14L1018.78,969.14L1024,969.14" fill="none" stroke="#000000" style="-webkit-tap-highlight-color: rgba(0, 0, 0, 0); stroke-linecap: round; stroke-linejoin: round; stroke-width: 7;" /><path d="M626.94,269.06L624.33,269.06L621.71,269.06L619.1,269.06L619.1,263.84L619.1,258.61L621.71,250.78L624.33,240.33L624.33,232.49L626.94,222.04L629.55,214.2L632.16,206.37L632.16,201.14L634.78,198.53L637.39,193.31L637.39,190.69L637.39,188.08L640,185.47L642.61,182.86L645.22,180.24L647.84,177.63L650.45,175.02L655.67,172.41L663.51,169.8L668.73,169.8L673.96,169.8L676.57,167.18L681.8,167.18L684.41,164.57L689.63,161.96L694.86,161.96L700.08,159.35L705.31,156.73L710.53,154.12L715.76,154.12L720.98,151.51L728.82,151.51L734.04,148.9L744.49,146.29L752.33,143.67L762.78,141.06L770.61,138.45L778.45,138.45L786.29,135.84L794.12,133.22L801.96,130.61L807.18,130.61L815.02,128L822.86,128L828.08,125.39L835.92,125.39L841.14,125.39L846.37,125.39L851.59,125.39L859.43,122.78L867.27,122.78L875.1,120.16L882.94,120.16L890.78,120.16L898.61,120.16L906.45,120.16L914.29,117.55L922.12,117.55L927.35,117.55L935.18,114.94L943.02,114.94L950.86,112.33L956.08,112.33L963.92,109.71L971.76,109.71L979.59,109.71L987.43,109.71L995.27,109.71L1003.1,109.71L1008.33,109.71L1016.16,107.1L1021.39,107.1L1024,104.49" fill="none" stroke="#000000" style="-webkit-tap-highlight-color: rgba(0, 0, 0, 0); stroke-linecap: round; stroke-linejoin: round; stroke-width: 7;" /><path d="M692.24,869.88L689.63,869.88L687.02,869.88L684.41,869.88L681.8,869.88L679.18,869.88L679.18,867.27L681.8,864.65L681.8,862.04L681.8,856.82L681.8,851.59L681.8,846.37L681.8,841.14L681.8,833.31L681.8,828.08L679.18,822.86L679.18,817.63L676.57,812.41L676.57,809.8L676.57,804.57L676.57,799.35L676.57,794.12L673.96,788.9L673.96,783.67L673.96,781.06L671.35,778.45L671.35,773.22L671.35,770.61L671.35,765.39L671.35,760.16L671.35,754.94L671.35,749.71L671.35,744.49L671.35,739.27L671.35,734.04L671.35,728.82L671.35,726.2L671.35,723.59L668.73,718.37L668.73,715.76L666.12,713.14L666.12,710.53L666.12,707.92L663.51,705.31L663.51,702.69L663.51,700.08L666.12,697.47L668.73,694.86L671.35,692.24L673.96,687.02L676.57,684.41L681.8,679.18L684.41,673.96L689.63,668.73L692.24,666.12L697.47,663.51L700.08,660.9L705.31,658.29L707.92,655.67L710.53,655.67L715.76,655.67L718.37,653.06L720.98,653.06L723.59,653.06L728.82,655.67L731.43,655.67L736.65,658.29L739.27,658.29L741.88,658.29L744.49,660.9L747.1,660.9L749.71,660.9L752.33,663.51L754.94,666.12L757.55,668.73L760.16,671.35L762.78,671.35L762.78,676.57L765.39,679.18L765.39,681.8L768,681.8L768,684.41L768,687.02L770.61,689.63L770.61,694.86L770.61,697.47L773.22,700.08L773.22,702.69L773.22,705.31L775.84,707.92L775.84,713.14L775.84,715.76L775.84,718.37L775.84,720.98L775.84,723.59L778.45,726.2L778.45,728.82L778.45,734.04L778.45,736.65L778.45,741.88L778.45,747.1L778.45,749.71L778.45,752.33L778.45,757.55L778.45,760.16L778.45,762.78L778.45,768L778.45,770.61L781.06,773.22L781.06,778.45L781.06,781.06L781.06,783.67L783.67,786.29L783.67,791.51L783.67,794.12L783.67,799.35L783.67,807.18L783.67,812.41L783.67,817.63L783.67,822.86L783.67,828.08L783.67,833.31L783.67,838.53L786.29,846.37L786.29,851.59L786.29,856.82L786.29,862.04L786.29,864.65L786.29,867.27L786.29,869.88L786.29,867.27L783.67,862.04L783.67,854.2" fill="none" stroke="#000000" style="-webkit-tap-highlight-color: rgba(0, 0, 0, 0); stroke-linecap: round; stroke-linejoin: round; stroke-width: 7;" /><path d="M713.14,757.55L710.53,757.55L707.92,757.55L705.31,757.55L702.69,760.16L702.69,762.78L702.69,765.39L702.69,770.61L705.31,773.22L707.92,775.84L710.53,775.84L715.76,775.84L720.98,778.45L728.82,778.45L734.04,778.45L741.88,778.45L749.71,775.84L757.55,773.22L765.39,773.22L773.22,773.22L778.45,773.22L783.67,773.22L786.29,773.22L783.67,773.22L778.45,775.84L773.22,778.45" fill="none" stroke="#000000" style="-webkit-tap-highlight-color: rgba(0, 0, 0, 0); stroke-linecap: round; stroke-linejoin: round; stroke-width: 7;" /><path d="M710.53,804.57L710.53,801.96L713.14,801.96L718.37,801.96L731.43,801.96L747.1,799.35L757.55,799.35L762.78,799.35L765.39,796.73L765.39,794.12L762.78,786.29" fill="none" stroke="#000000" style="-webkit-tap-highlight-color: rgba(0, 0, 0, 0); stroke-linecap: round; stroke-linejoin: round; stroke-width: 7;" /><path d="M726.2,673.96L726.2,671.35L723.59,671.35L720.98,673.96L718.37,679.18L718.37,681.8L715.76,687.02L713.14,694.86L710.53,700.08L710.53,707.92L710.53,718.37L713.14,723.59L715.76,731.43L715.76,736.65L718.37,741.88L718.37,747.1L718.37,752.33L718.37,754.94L720.98,757.55L720.98,760.16L720.98,765.39L720.98,770.61L720.98,775.84L718.37,781.06L718.37,786.29L718.37,791.51L718.37,796.73L720.98,804.57L720.98,812.41L723.59,820.24L723.59,825.47L723.59,830.69L720.98,835.92L720.98,838.53L720.98,843.76L720.98,848.98L720.98,851.59L723.59,854.2L723.59,856.82L726.2,856.82" fill="none" stroke="#000000" style="-webkit-tap-highlight-color: rgba(0, 0, 0, 0); stroke-linecap: round; stroke-linejoin: round; stroke-width: 7;" /><path d="M590.37,1183.35L590.37,1185.96L592.98,1185.96L595.59,1188.57L598.2,1188.57L600.82,1185.96L603.43,1180.73L608.65,1175.51L608.65,1170.29L611.27,1165.06L611.27,1162.45L611.27,1157.22L611.27,1154.61L613.88,1152L613.88,1149.39L616.49,1149.39L616.49,1146.78L619.1,1144.16L621.71,1141.55L624.33,1136.33L626.94,1133.71L629.55,1128.49L632.16,1125.88L634.78,1123.27L634.78,1118.04L637.39,1115.43L637.39,1110.2L637.39,1104.98L637.39,1099.76L634.78,1094.53L634.78,1089.31L632.16,1086.69L629.55,1081.47L629.55,1078.86L626.94,1076.24L626.94,1073.63L629.55,1071.02L629.55,1068.41L632.16,1065.8L634.78,1065.8L637.39,1065.8L640,1065.8L642.61,1065.8L647.84,1065.8L650.45,1065.8L653.06,1065.8L658.29,1068.41L660.9,1071.02L666.12,1071.02L671.35,1073.63L676.57,1073.63L679.18,1073.63L684.41,1073.63L687.02,1071.02L689.63,1071.02L689.63,1073.63L687.02,1078.86L687.02,1081.47L687.02,1089.31L684.41,1094.53L684.41,1102.37L681.8,1107.59L681.8,1115.43L681.8,1123.27L684.41,1131.1L687.02,1138.94L687.02,1141.55L689.63,1146.78L692.24,1152L692.24,1157.22L692.24,1159.84L692.24,1162.45L692.24,1165.06L692.24,1167.67L692.24,1170.29L692.24,1175.51L689.63,1178.12L689.63,1180.73L689.63,1183.35L689.63,1185.96L689.63,1188.57L689.63,1191.18L692.24,1193.8L689.63,1191.18L684.41,1191.18L681.8,1188.57L679.18,1188.57L673.96,1188.57L671.35,1185.96L668.73,1185.96L663.51,1185.96L660.9,1185.96L658.29,1185.96L655.67,1191.18L653.06,1193.8L647.84,1199.02L645.22,1201.63L640,1204.24L634.78,1206.86L629.55,1206.86L624.33,1206.86L619.1,1206.86L613.88,1204.24L608.65,1201.63L600.82,1196.41L592.98,1191.18L590.37,1188.57L587.76,1185.96L587.76,1188.57L585.14,1188.57L585.14,1191.18L582.53,1193.8L582.53,1199.02L585.14,1204.24L587.76,1204.24" fill="none" stroke="#000000" style="-webkit-tap-highlight-color: rgba(0, 0, 0, 0); stroke-linecap: round; stroke-linejoin: round; stroke-width: 7;" /><path d="M778.45,1183.35L778.45,1185.96L775.84,1185.96L773.22,1185.96L770.61,1183.35L765.39,1180.73L760.16,1178.12L754.94,1175.51L749.71,1172.9L744.49,1172.9L741.88,1170.29L736.65,1172.9L734.04,1175.51L731.43,1180.73L728.82,1185.96L726.2,1196.41L720.98,1206.86L718.37,1214.69L713.14,1225.14L710.53,1232.98L707.92,1243.43L705.31,1251.27L702.69,1259.1L700.08,1266.94L700.08,1274.78L700.08,1280L700.08,1287.84L702.69,1295.67L705.31,1303.51L705.31,1311.35L705.31,1319.18L707.92,1324.41L707.92,1329.63L707.92,1332.24L710.53,1334.86L713.14,1337.47L715.76,1340.08L718.37,1342.69L720.98,1342.69L726.2,1345.31L734.04,1347.92L741.88,1350.53L752.33,1353.14L760.16,1355.76L765.39,1355.76L770.61,1358.37L775.84,1358.37L781.06,1360.98L783.67,1360.98L786.29,1360.98L788.9,1360.98L788.9,1358.37L791.51,1358.37L794.12,1355.76L796.73,1350.53L799.35,1345.31L804.57,1337.47L809.8,1329.63L815.02,1321.8L817.63,1313.96L822.86,1308.73L825.47,1300.9L825.47,1290.45L828.08,1280L828.08,1269.55L828.08,1261.71L828.08,1256.49L828.08,1251.27L830.69,1243.43L830.69,1235.59L833.31,1227.76L833.31,1219.92L835.92,1214.69L835.92,1209.47L838.53,1204.24L841.14,1199.02L841.14,1191.18L843.76,1185.96L843.76,1183.35L843.76,1180.73L841.14,1178.12L835.92,1178.12L830.69,1178.12L822.86,1180.73L812.41,1183.35L801.96,1183.35L791.51,1185.96L781.06,1185.96L770.61,1185.96L760.16,1183.35L752.33,1183.35L741.88,1180.73L736.65,1180.73L731.43,1180.73L726.2,1178.12L723.59,1178.12L723.59,1180.73L728.82,1183.35L734.04,1188.57L736.65,1188.57" fill="none" stroke="#000000" style="-webkit-tap-highlight-color: rgba(0, 0, 0, 0); stroke-linecap: round; stroke-linejoin: round; stroke-width: 7;" /><path d="M835.92,1219.92L835.92,1222.53L833.31,1222.53L833.31,1225.14L833.31,1222.53L835.92,1219.92L835.92,1214.69L838.53,1209.47L841.14,1204.24L846.37,1201.63L848.98,1199.02L854.2,1196.41L862.04,1196.41L864.65,1199.02L869.88,1201.63L872.49,1209.47L875.1,1217.31L877.71,1227.76L880.33,1238.2L880.33,1248.65L882.94,1253.88L882.94,1261.71L882.94,1269.55L880.33,1277.39L880.33,1285.22L877.71,1293.06L875.1,1300.9L872.49,1308.73L869.88,1313.96L867.27,1321.8L864.65,1327.02L864.65,1334.86L862.04,1340.08L859.43,1345.31L856.82,1353.14L854.2,1358.37L854.2,1363.59L854.2,1368.82L851.59,1371.43L851.59,1374.04L848.98,1376.65L848.98,1379.27L846.37,1381.88L843.76,1381.88L841.14,1381.88L838.53,1381.88L833.31,1379.27L825.47,1379.27L820.24,1376.65L809.8,1374.04L801.96,1368.82L794.12,1368.82L786.29,1368.82L783.67,1368.82L778.45,1371.43L775.84,1374.04L775.84,1371.43L775.84,1368.82L773.22,1368.82L773.22,1371.43L775.84,1371.43L778.45,1371.43" fill="none" stroke="#000000" style="-webkit-tap-highlight-color: rgba(0, 0, 0, 0); stroke-linecap: round; stroke-linejoin: round; stroke-width: 7;" /><path d="M872.49,1264.33L869.88,1264.33L867.27,1261.71L872.49,1259.1L877.71,1253.88L890.78,1246.04L901.22,1240.82L911.67,1235.59L922.12,1232.98L932.57,1227.76L940.41,1225.14L948.24,1219.92L956.08,1214.69L963.92,1212.08L969.14,1209.47L976.98,1209.47L982.2,1212.08L990.04,1212.08L995.27,1214.69L1000.49,1214.69L1008.33,1214.69L1013.55,1212.08L1018.78,1209.47L1021.39,1206.86L1024,1204.24L1024,1201.63L1024,1199.02L1021.39,1196.41L1018.78,1196.41" fill="none" stroke="#000000" style="-webkit-tap-highlight-color: rgba(0, 0, 0, 0); stroke-linecap: round; stroke-linejoin: round; stroke-width: 7;" /><path d="M828.08,1172.9L825.47,1172.9L822.86,1172.9L822.86,1175.51L828.08,1178.12L838.53,1178.12L848.98,1175.51L862.04,1170.29L877.71,1159.84L890.78,1149.39L901.22,1144.16L909.06,1144.16L916.9,1144.16L927.35,1149.39L935.18,1152L943.02,1154.61L948.24,1157.22L953.47,1159.84L956.08,1159.84L956.08,1162.45L953.47,1165.06L950.86,1165.06" fill="none" stroke="#000000" style="-webkit-tap-highlight-color: rgba(0, 0, 0, 0); stroke-linecap: round; stroke-linejoin: round; stroke-width: 7;" /><path d="M739.27,1128.49L736.65,1128.49L734.04,1128.49L728.82,1125.88L726.2,1123.27L723.59,1123.27L720.98,1120.65L718.37,1118.04L718.37,1115.43L718.37,1112.82L718.37,1110.2L720.98,1110.2L723.59,1110.2L728.82,1110.2L736.65,1110.2L744.49,1110.2L752.33,1110.2L760.16,1110.2L768,1112.82L770.61,1115.43L775.84,1118.04L778.45,1123.27L778.45,1128.49L781.06,1133.71L781.06,1138.94L781.06,1141.55L786.29,1141.55L791.51,1141.55L796.73,1138.94L807.18,1136.33L812.41,1128.49L817.63,1125.88L820.24,1120.65L822.86,1120.65L822.86,1123.27" fill="none" stroke="#000000" style="-webkit-tap-highlight-color: rgba(0, 0, 0, 0); stroke-linecap: round; stroke-linejoin: round; stroke-width: 7;" /><path d="M289.96,1086.69L287.35,1089.31L284.73,1089.31L282.12,1089.31L276.9,1089.31L271.67,1089.31L266.45,1086.69L263.84,1084.08L258.61,1084.08L250.78,1084.08L245.55,1084.08L240.33,1084.08L235.1,1086.69L235.1,1089.31L232.49,1091.92L232.49,1094.53L229.88,1099.76L229.88,1102.37L229.88,1107.59L229.88,1110.2L227.27,1115.43L227.27,1120.65L224.65,1125.88L224.65,1133.71L224.65,1138.94L224.65,1144.16L227.27,1149.39L229.88,1154.61L232.49,1159.84L235.1,1165.06L237.71,1172.9L237.71,1178.12L240.33,1180.73L242.94,1185.96L245.55,1188.57L250.78,1191.18L253.39,1196.41L258.61,1199.02L263.84,1199.02L266.45,1199.02L271.67,1199.02L276.9,1199.02L282.12,1199.02L289.96,1196.41L297.8,1196.41L300.41,1196.41L305.63,1193.8L308.24,1191.18L308.24,1188.57L308.24,1183.35L308.24,1178.12L305.63,1167.67L305.63,1157.22L303.02,1144.16L300.41,1136.33L295.18,1125.88L289.96,1120.65L284.73,1115.43L282.12,1112.82L279.51,1110.2L276.9,1110.2L274.29,1107.59L269.06,1104.98L266.45,1099.76L263.84,1097.14L263.84,1091.92L261.22,1089.31L258.61,1086.69L256,1086.69L250.78,1086.69L240.33,1086.69L235.1,1086.69L229.88,1089.31L227.27,1091.92L227.27,1094.53L227.27,1097.14" fill="none" stroke="#000000" style="-webkit-tap-highlight-color: rgba(0, 0, 0, 0); stroke-linecap: round; stroke-linejoin: round; stroke-width: 7;" /><path d="M242.94,1086.69L240.33,1084.08L242.94,1084.08L248.16,1084.08L253.39,1084.08L261.22,1084.08L271.67,1086.69L279.51,1086.69L284.73,1086.69L284.73,1084.08L292.57,1081.47L297.8,1078.86L303.02,1078.86L305.63,1078.86L308.24,1078.86L308.24,1081.47L308.24,1084.08L308.24,1086.69" fill="none" stroke="#000000" style="-webkit-tap-highlight-color: rgba(0, 0, 0, 0); stroke-linecap: round; stroke-linejoin: round; stroke-width: 7;" /><path d="M318.69,1065.8L316.08,1065.8L313.47,1065.8L310.86,1068.41L308.24,1071.02L308.24,1073.63L305.63,1078.86L305.63,1081.47L305.63,1086.69L305.63,1091.92L305.63,1097.14L308.24,1099.76L310.86,1104.98L316.08,1107.59L323.92,1107.59L329.14,1104.98L336.98,1102.37L339.59,1097.14L342.2,1091.92L344.82,1086.69L344.82,1084.08L344.82,1081.47L342.2,1078.86L339.59,1078.86L329.14,1078.86L321.31,1078.86L310.86,1078.86L300.41,1081.47L297.8,1081.47L300.41,1081.47L305.63,1078.86" fill="none" stroke="#000000" style="-webkit-tap-highlight-color: rgba(0, 0, 0, 0); stroke-linecap: round; stroke-linejoin: round; stroke-width: 7;" /><path d="M125.39,1010.94L122.78,1010.94L120.16,1010.94L117.55,1010.94L120.16,1013.55L125.39,1013.55L128,1013.55L138.45,1013.55L151.51,1016.16L164.57,1016.16L177.63,1016.16L188.08,1018.78L198.53,1018.78L208.98,1021.39L219.43,1024L229.88,1026.61L237.71,1026.61L248.16,1026.61L258.61,1026.61L269.06,1026.61L276.9,1029.22L284.73,1029.22L292.57,1029.22L300.41,1029.22L308.24,1029.22L316.08,1029.22L323.92,1026.61L334.37,1026.61L339.59,1024L347.43,1024L357.88,1024L365.71,1026.61L376.16,1029.22L386.61,1031.84L397.06,1034.45L404.9,1034.45L415.35,1034.45L423.18,1034.45L431.02,1037.06L438.86,1039.67L446.69,1039.67L451.92,1042.29L457.14,1042.29L464.98,1042.29L470.2,1042.29L472.82,1039.67L478.04,1039.67L480.65,1039.67L478.04,1044.9L470.2,1052.73" fill="none" stroke="#000000" style="-webkit-tap-highlight-color: rgba(0, 0, 0, 0); stroke-linecap: round; stroke-linejoin: round; stroke-width: 7;" /><path d="M141.06,1219.92L133.22,1222.53L122.78,1225.14L120.16,1225.14L114.94,1225.14L109.71,1225.14L104.49,1225.14L101.88,1227.76L104.49,1227.76L114.94,1222.53L130.61,1217.31L146.29,1206.86L164.57,1199.02L182.86,1193.8L193.31,1185.96L201.14,1178.12L208.98,1170.29L216.82,1167.67L224.65,1165.06L232.49,1165.06L235.1,1165.06L237.71,1165.06L235.1,1170.29L232.49,1172.9" fill="none" stroke="#000000" style="-webkit-tap-highlight-color: rgba(0, 0, 0, 0); stroke-linecap: round; stroke-linejoin: round; stroke-width: 7;" /><path d="M269.06,1118.04L269.06,1115.43L266.45,1110.2L266.45,1107.59L271.67,1102.37L282.12,1099.76L289.96,1097.14L295.18,1099.76L303.02,1104.98L308.24,1110.2L318.69,1115.43L326.53,1118.04L334.37,1118.04L342.2,1120.65L350.04,1125.88L352.65,1128.49L357.88,1131.1L360.49,1133.71L363.1,1136.33L365.71,1136.33L368.33,1136.33L368.33,1138.94L365.71,1138.94" fill="none" stroke="#000000" style="-webkit-tap-highlight-color: rgba(0, 0, 0, 0); stroke-linecap: round; stroke-linejoin: round; stroke-width: 7;" /><path d="M308.24,1165.06L303.02,1165.06L297.8,1167.67L300.41,1170.29L310.86,1170.29L321.31,1170.29L331.76,1167.67L342.2,1162.45L352.65,1154.61L357.88,1146.78" fill="none" stroke="#000000" style="-webkit-tap-highlight-color: rgba(0, 0, 0, 0); stroke-linecap: round; stroke-linejoin: round; stroke-width: 7;" /><path d="M360.49,1115.43L360.49,1118.04L363.1,1123.27L363.1,1131.1L363.1,1141.55L357.88,1154.61L355.27,1165.06L352.65,1175.51L350.04,1180.73L350.04,1183.35L355.27,1180.73" fill="none" stroke="#000000" style="-webkit-tap-highlight-color: rgba(0, 0, 0, 0); stroke-linecap: round; stroke-linejoin: round; stroke-width: 7;" /><path d="M410.12,1138.94L404.9,1136.33L399.67,1131.1L397.06,1131.1L394.45,1131.1L391.84,1131.1L389.22,1136.33L386.61,1141.55L386.61,1152L384,1159.84L384,1170.29L386.61,1180.73L391.84,1188.57L397.06,1193.8L402.29,1196.41L407.51,1196.41L412.73,1193.8L423.18,1191.18L431.02,1188.57L444.08,1185.96L449.31,1183.35L459.76,1183.35L467.59,1183.35L475.43,1188.57L480.65,1191.18L485.88,1193.8L488.49,1199.02L491.1,1193.8L491.1,1188.57L493.71,1180.73L493.71,1172.9L496.33,1165.06L496.33,1154.61L493.71,1144.16L491.1,1136.33L485.88,1131.1L478.04,1128.49L470.2,1128.49L462.37,1128.49L454.53,1133.71L446.69,1136.33L436.24,1136.33L425.8,1136.33L412.73,1136.33L399.67,1136.33L389.22,1138.94L384,1141.55L381.39,1141.55L384,1141.55L389.22,1141.55L391.84,1141.55" fill="none" stroke="#000000" style="-webkit-tap-highlight-color: rgba(0, 0, 0, 0); stroke-linecap: round; stroke-linejoin: round; stroke-width: 7;" /><path d="M464.98,1131.1L464.98,1128.49L462.37,1128.49L462.37,1125.88L462.37,1123.27L464.98,1123.27L470.2,1120.65L478.04,1120.65L485.88,1118.04L496.33,1115.43L504.16,1115.43L512,1112.82L522.45,1112.82L527.67,1112.82L535.51,1115.43L538.12,1118.04L540.73,1123.27L545.96,1128.49L548.57,1136.33L551.18,1144.16L553.8,1152L553.8,1154.61L556.41,1154.61L556.41,1157.22L556.41,1159.84L553.8,1162.45L548.57,1167.67L543.35,1170.29L538.12,1175.51L532.9,1180.73L530.29,1185.96L527.67,1191.18L527.67,1196.41L527.67,1199.02L522.45,1199.02L514.61,1193.8L504.16,1188.57L493.71,1180.73L485.88,1178.12L488.49,1178.12" fill="none" stroke="#000000" style="-webkit-tap-highlight-color: rgba(0, 0, 0, 0); stroke-linecap: round; stroke-linejoin: round; stroke-width: 7;" /><path d="M2.61,1238.2L2.61,1235.59L7.84,1235.59L18.29,1238.2L28.73,1240.82L41.8,1240.82L57.47,1240.82L75.76,1238.2L91.43,1235.59L107.1,1232.98L120.16,1232.98L133.22,1232.98L146.29,1235.59L159.35,1238.2L169.8,1240.82L182.86,1243.43L195.92,1246.04L208.98,1251.27L224.65,1261.71L232.49,1272.16L240.33,1280L250.78,1285.22L263.84,1290.45L274.29,1295.67L287.35,1298.29L295.18,1303.51L303.02,1311.35L310.86,1319.18L313.47,1329.63L316.08,1337.47L316.08,1345.31L318.69,1353.14L318.69,1358.37L316.08,1363.59L310.86,1368.82L305.63,1371.43L295.18,1376.65L284.73,1384.49L274.29,1387.1L261.22,1389.71L242.94,1389.71L219.43,1389.71L198.53,1389.71L182.86,1392.33L169.8,1394.94L156.73,1394.94L141.06,1397.55L128,1397.55L112.33,1397.55L96.65,1397.55L83.59,1402.78L73.14,1405.39L65.31,1410.61L54.86,1413.22L47.02,1418.45L33.96,1423.67L23.51,1426.29L13.06,1428.9L5.22,1431.51" fill="none" stroke="#000000" style="-webkit-tap-highlight-color: rgba(0, 0, 0, 0); stroke-linecap: round; stroke-linejoin: round; stroke-width: 7;" /><path d="M5.22,1449.8" fill="none" stroke="#000000" style="-webkit-tap-highlight-color: rgba(0, 0, 0, 0); stroke-linecap: round; stroke-linejoin: round; stroke-width: 7;" /><path d="M496.33,1050.12L493.71,1050.12L491.1,1047.51L488.49,1047.51L488.49,1044.9L485.88,1044.9L485.88,1047.51L485.88,1050.12L485.88,1052.73L488.49,1052.73L488.49,1055.35L491.1,1055.35L493.71,1057.96L496.33,1060.57L501.55,1063.18L504.16,1063.18L506.78,1063.18L512,1065.8L517.22,1065.8L525.06,1065.8L530.29,1065.8L538.12,1065.8L543.35,1068.41L548.57,1068.41L551.18,1068.41L556.41,1068.41L559.02,1068.41L564.24,1068.41L566.86,1068.41L569.47,1071.02L572.08,1071.02L572.08,1073.63L574.69,1073.63L577.31,1076.24L579.92,1076.24L582.53,1078.86L585.14,1078.86L587.76,1078.86L590.37,1078.86L592.98,1078.86L595.59,1078.86L598.2,1078.86L603.43,1078.86L606.04,1076.24L608.65,1076.24L611.27,1076.24L613.88,1078.86" fill="none" stroke="#000000" style="-webkit-tap-highlight-color: rgba(0, 0, 0, 0); stroke-linecap: round; stroke-linejoin: round; stroke-width: 7;" /><path d="M726.2,1104.98L723.59,1102.37L718.37,1099.76L715.76,1097.14L713.14,1097.14L710.53,1094.53L707.92,1094.53L710.53,1094.53L713.14,1094.53L715.76,1094.53L720.98,1094.53L726.2,1094.53L731.43,1094.53L739.27,1091.92L747.1,1091.92L754.94,1091.92L760.16,1091.92L768,1091.92L775.84,1094.53L781.06,1094.53L788.9,1097.14L794.12,1099.76L799.35,1099.76L801.96,1102.37L807.18,1104.98L809.8,1107.59L812.41,1110.2L817.63,1112.82L822.86,1115.43L830.69,1115.43L835.92,1115.43L841.14,1115.43L846.37,1115.43L851.59,1118.04L854.2,1118.04L859.43,1120.65L864.65,1120.65L869.88,1123.27L877.71,1123.27L882.94,1125.88L890.78,1125.88L896,1128.49L903.84,1131.1L911.67,1131.1L916.9,1131.1L924.73,1131.1L929.96,1131.1L937.8,1131.1L945.63,1133.71L948.24,1133.71L953.47,1133.71L958.69,1136.33L963.92,1136.33L969.14,1136.33L974.37,1136.33L979.59,1136.33L982.2,1136.33L984.82,1136.33L987.43,1138.94L992.65,1138.94L997.88,1138.94L1000.49,1138.94L1005.71,1138.94L1005.71,1141.55L1003.1,1141.55L1003.1,1144.16" fill="none" stroke="#000000" style="-webkit-tap-highlight-color: rgba(0, 0, 0, 0); stroke-linecap: round; stroke-linejoin: round; stroke-width: 7;" /><path d="M107.1,1470.69L104.49,1470.69L101.88,1470.69L99.27,1468.08L96.65,1468.08L94.04,1470.69L91.43,1470.69L91.43,1468.08L91.43,1462.86L94.04,1457.63L96.65,1452.41L96.65,1447.18L99.27,1441.96L99.27,1436.73L99.27,1431.51L99.27,1428.9L101.88,1431.51L104.49,1434.12L107.1,1436.73L109.71,1436.73L114.94,1436.73L120.16,1436.73L125.39,1436.73L130.61,1434.12L138.45,1434.12L143.67,1434.12L148.9,1431.51L154.12,1431.51L159.35,1431.51L164.57,1431.51L172.41,1428.9L180.24,1428.9L185.47,1426.29L193.31,1423.67L203.76,1421.06L211.59,1418.45L219.43,1415.84L229.88,1413.22L240.33,1410.61L250.78,1410.61L263.84,1408L274.29,1405.39L282.12,1405.39L292.57,1402.78L300.41,1402.78L308.24,1400.16L316.08,1397.55L326.53,1397.55L334.37,1394.94L344.82,1394.94L352.65,1394.94L360.49,1394.94L365.71,1392.33L373.55,1392.33L378.78,1392.33L384,1392.33L389.22,1392.33L394.45,1392.33L399.67,1392.33L404.9,1389.71L410.12,1389.71L417.96,1389.71L423.18,1389.71L425.8,1389.71L428.41,1389.71L431.02,1387.1L433.63,1387.1L436.24,1387.1L438.86,1384.49L441.47,1381.88L444.08,1381.88L446.69,1379.27L446.69,1376.65L449.31,1376.65L451.92,1374.04L454.53,1374.04L457.14,1374.04L459.76,1376.65L464.98,1376.65L472.82,1379.27L480.65,1379.27L488.49,1381.88L496.33,1384.49L498.94,1384.49L501.55,1387.1L501.55,1389.71L504.16,1389.71L506.78,1392.33L509.39,1392.33L512,1394.94L514.61,1397.55L514.61,1400.16L517.22,1402.78L519.84,1408L519.84,1413.22L522.45,1421.06L519.84,1426.29L517.22,1431.51L514.61,1434.12L512,1436.73L506.78,1441.96L504.16,1444.57L498.94,1447.18L496.33,1452.41L493.71,1455.02L491.1,1460.24L488.49,1462.86L488.49,1468.08L488.49,1473.31L488.49,1478.53" fill="none" stroke="#000000" style="-webkit-tap-highlight-color: rgba(0, 0, 0, 0); stroke-linecap: round; stroke-linejoin: round; stroke-width: 7;" /><path d="M619.1,1465.47L616.49,1465.47L611.27,1468.08L608.65,1468.08L603.43,1470.69L598.2,1473.31L595.59,1473.31L590.37,1470.69L585.14,1468.08L582.53,1462.86L579.92,1460.24L577.31,1455.02L574.69,1452.41L572.08,1449.8L569.47,1447.18L566.86,1447.18L561.63,1444.57L556.41,1441.96L548.57,1439.35L543.35,1436.73L535.51,1436.73L530.29,1434.12L527.67,1431.51L527.67,1426.29L527.67,1418.45L530.29,1410.61L535.51,1402.78L540.73,1397.55L548.57,1389.71L556.41,1384.49L561.63,1384.49L569.47,1381.88L574.69,1387.1L579.92,1392.33L587.76,1397.55L592.98,1405.39L595.59,1413.22L600.82,1421.06L606.04,1426.29L608.65,1428.9L613.88,1428.9L616.49,1428.9L621.71,1428.9L626.94,1428.9L632.16,1428.9L634.78,1426.29L637.39,1426.29L640,1428.9L642.61,1431.51L642.61,1436.73L642.61,1441.96L642.61,1447.18L642.61,1455.02L640,1460.24L637.39,1465.47L632.16,1468.08L626.94,1473.31L621.71,1473.31L621.71,1475.92L619.1,1475.92L624.33,1475.92L634.78,1473.31L637.39,1470.69" fill="none" stroke="#000000" style="-webkit-tap-highlight-color: rgba(0, 0, 0, 0); stroke-linecap: round; stroke-linejoin: round; stroke-width: 7;" /><path d="M739.27,1475.92L736.65,1473.31L734.04,1470.69L734.04,1468.08L736.65,1465.47L741.88,1462.86L744.49,1460.24L749.71,1457.63L757.55,1452.41L765.39,1449.8L770.61,1447.18L778.45,1447.18L783.67,1447.18L791.51,1447.18L796.73,1447.18L804.57,1447.18L812.41,1447.18L817.63,1447.18L825.47,1447.18L830.69,1447.18L838.53,1444.57L843.76,1441.96L851.59,1441.96L856.82,1439.35L862.04,1439.35L864.65,1439.35L867.27,1441.96L872.49,1444.57L875.1,1447.18L877.71,1449.8L880.33,1452.41L882.94,1455.02L885.55,1457.63L888.16,1460.24L890.78,1462.86L893.39,1465.47L896,1468.08L898.61,1473.31L898.61,1475.92L896,1478.53L893.39,1478.53" fill="none" stroke="#000000" style="-webkit-tap-highlight-color: rgba(0, 0, 0, 0); stroke-linecap: round; stroke-linejoin: round; stroke-width: 7;" /><path d="M935.18,1159.84L932.57,1157.22L929.96,1157.22L927.35,1157.22L927.35,1154.61L924.73,1154.61L922.12,1154.61L919.51,1154.61L916.9,1152L919.51,1154.61L922.12,1157.22L924.73,1159.84L927.35,1165.06L932.57,1170.29L935.18,1172.9L940.41,1175.51L945.63,1180.73L948.24,1183.35L950.86,1188.57L953.47,1191.18L953.47,1193.8L953.47,1196.41L956.08,1196.41L956.08,1199.02L958.69,1199.02L963.92,1201.63L966.53,1204.24L969.14,1204.24L969.14,1201.63" fill="none" stroke="#000000" style="-webkit-tap-highlight-color: rgba(0, 0, 0, 0); stroke-linecap: round; stroke-linejoin: round; stroke-width: 7;" /><path d="M161.96,1047.51L159.35,1047.51L156.73,1047.51L154.12,1047.51L154.12,1050.12L151.51,1052.73L151.51,1055.35L154.12,1057.96L156.73,1060.57L159.35,1063.18L164.57,1063.18L167.18,1065.8L169.8,1065.8L169.8,1068.41L172.41,1071.02L172.41,1073.63L172.41,1078.86L172.41,1081.47L172.41,1084.08L172.41,1086.69L172.41,1089.31L172.41,1094.53L172.41,1097.14L172.41,1102.37L172.41,1104.98L172.41,1107.59L172.41,1110.2L172.41,1112.82L175.02,1115.43L175.02,1118.04L175.02,1120.65L177.63,1123.27L180.24,1123.27L182.86,1123.27L185.47,1123.27L188.08,1123.27L190.69,1123.27L193.31,1123.27L195.92,1123.27L198.53,1125.88L201.14,1128.49L203.76,1128.49L206.37,1125.88L208.98,1123.27L211.59,1123.27L214.2,1123.27L216.82,1123.27L219.43,1123.27L222.04,1123.27L224.65,1123.27L224.65,1125.88" fill="none" stroke="#000000" style="-webkit-tap-highlight-color: rgba(0, 0, 0, 0); stroke-linecap: round; stroke-linejoin: round; stroke-width: 7;" /><path d="M655.67,1400.16L655.67,1397.55L655.67,1394.94L655.67,1392.33L653.06,1392.33L653.06,1389.71L650.45,1387.1L650.45,1384.49L647.84,1379.27L645.22,1376.65L645.22,1374.04L642.61,1371.43L642.61,1368.82L645.22,1366.2L647.84,1363.59L650.45,1358.37L655.67,1355.76L658.29,1350.53L663.51,1345.31L666.12,1342.69L671.35,1340.08L673.96,1337.47L676.57,1337.47L681.8,1337.47L684.41,1337.47L689.63,1337.47L694.86,1340.08L697.47,1342.69L700.08,1342.69L702.69,1345.31L702.69,1347.92" fill="none" stroke="#000000" style="-webkit-tap-highlight-color: rgba(0, 0, 0, 0); stroke-linecap: round; stroke-linejoin: round; stroke-width: 7;" /><path d="M582.53,1394.94L579.92,1394.94L572.08,1394.94L569.47,1394.94L569.47,1392.33L566.86,1389.71L569.47,1387.1L572.08,1384.49L577.31,1384.49L585.14,1384.49L592.98,1384.49L606.04,1384.49L616.49,1384.49L629.55,1384.49L640,1384.49L645.22,1387.1L650.45,1387.1L655.67,1387.1L658.29,1387.1L660.9,1387.1L663.51,1384.49L668.73,1384.49L671.35,1387.1" fill="none" stroke="#000000" style="-webkit-tap-highlight-color: rgba(0, 0, 0, 0); stroke-linecap: round; stroke-linejoin: round; stroke-width: 7;" /><path d="M801.96,1379.27L799.35,1379.27L796.73,1376.65L794.12,1376.65L794.12,1379.27L796.73,1384.49L799.35,1389.71L801.96,1397.55L804.57,1408L807.18,1418.45L809.8,1426.29L809.8,1434.12L812.41,1439.35L812.41,1441.96L815.02,1441.96" fill="none" stroke="#000000" style="-webkit-tap-highlight-color: rgba(0, 0, 0, 0); stroke-linecap: round; stroke-linejoin: round; stroke-width: 7;" /><path d="M825.47,1371.43L822.86,1368.82L822.86,1366.2L822.86,1363.59L825.47,1360.98L830.69,1360.98L835.92,1360.98L841.14,1360.98L848.98,1360.98L856.82,1360.98L864.65,1360.98L869.88,1360.98L875.1,1360.98L877.71,1363.59L882.94,1363.59L885.55,1363.59L888.16,1363.59L893.39,1363.59L896,1360.98L901.22,1360.98L906.45,1360.98L911.67,1360.98L916.9,1363.59L922.12,1363.59L927.35,1363.59L932.57,1363.59L937.8,1363.59L943.02,1363.59L945.63,1363.59L948.24,1363.59L950.86,1366.2L953.47,1368.82L953.47,1371.43L953.47,1374.04L956.08,1379.27L956.08,1384.49L956.08,1389.71L958.69,1394.94L961.31,1400.16L963.92,1402.78L969.14,1408L971.76,1410.61L976.98,1415.84L982.2,1421.06L987.43,1423.67L990.04,1428.9L995.27,1434.12L997.88,1439.35L1000.49,1447.18L1003.1,1452.41L1005.71,1455.02L1005.71,1452.41L1005.71,1447.18L1003.1,1444.57" fill="none" stroke="#000000" style="-webkit-tap-highlight-color: rgba(0, 0, 0, 0); stroke-linecap: round; stroke-linejoin: round; stroke-width: 7;" /><path d="M953.47,1340.08L948.24,1340.08L943.02,1337.47L943.02,1340.08L943.02,1342.69L943.02,1347.92L945.63,1350.53L950.86,1350.53L956.08,1350.53L961.31,1350.53L966.53,1347.92L974.37,1345.31L982.2,1342.69L987.43,1342.69L990.04,1342.69L992.65,1342.69L995.27,1345.31L995.27,1342.69L997.88,1340.08L997.88,1337.47L997.88,1332.24L997.88,1327.02L995.27,1324.41L992.65,1316.57L990.04,1311.35L987.43,1306.12L984.82,1300.9L984.82,1295.67L984.82,1293.06L990.04,1293.06L992.65,1290.45L997.88,1287.84L1005.71,1287.84L1013.55,1285.22L1018.78,1282.61L1024,1280" fill="none" stroke="#000000" style="-webkit-tap-highlight-color: rgba(0, 0, 0, 0); stroke-linecap: round; stroke-linejoin: round; stroke-width: 7;" /><path d="M1024,1280L1018.78,1282.61" fill="none" stroke="#000000" style="-webkit-tap-highlight-color: rgba(0, 0, 0, 0); stroke-linecap: round; stroke-linejoin: round; stroke-width: 7;" /><path d="M512,1238.2L512,1235.59L512,1232.98L512,1230.37L512,1227.76L509.39,1227.76L509.39,1230.37L509.39,1232.98L506.78,1235.59L506.78,1238.2L509.39,1243.43L509.39,1246.04L512,1253.88L517.22,1259.1L519.84,1264.33L522.45,1269.55L525.06,1272.16L527.67,1277.39L527.67,1280L525.06,1282.61L519.84,1285.22L517.22,1287.84L512,1287.84L506.78,1290.45L501.55,1293.06L498.94,1293.06L496.33,1293.06L493.71,1293.06L493.71,1295.67L493.71,1298.29L493.71,1300.9L496.33,1303.51L496.33,1308.73L498.94,1311.35L498.94,1313.96L498.94,1316.57L498.94,1319.18L496.33,1319.18L491.1,1321.8L485.88,1321.8L480.65,1321.8L472.82,1324.41L467.59,1324.41L459.76,1327.02L454.53,1327.02L446.69,1329.63L441.47,1329.63L436.24,1332.24L428.41,1332.24L423.18,1334.86L420.57,1334.86L415.35,1337.47L410.12,1337.47L404.9,1340.08L399.67,1342.69L394.45,1347.92L389.22,1350.53L386.61,1355.76L381.39,1358.37L381.39,1363.59L378.78,1366.2L376.16,1368.82L376.16,1371.43L373.55,1374.04L370.94,1374.04L368.33,1376.65L365.71,1376.65L360.49,1376.65L357.88,1379.27L355.27,1379.27L352.65,1381.88L350.04,1381.88L344.82,1381.88L339.59,1381.88L336.98,1381.88L331.76,1379.27L326.53,1376.65L318.69,1374.04L310.86,1371.43L305.63,1368.82L303.02,1368.82L303.02,1374.04L305.63,1376.65L308.24,1384.49L313.47,1389.71" fill="none" stroke="#000000" style="-webkit-tap-highlight-color: rgba(0, 0, 0, 0); stroke-linecap: round; stroke-linejoin: round; stroke-width: 7;" /><path d="M235.1,485.88L235.1,483.27L232.49,480.65L229.88,480.65L227.27,478.04L224.65,478.04L222.04,478.04L222.04,480.65L222.04,483.27L224.65,483.27L229.88,483.27L235.1,483.27L240.33,480.65L245.55,478.04L250.78,475.43L253.39,475.43L256,472.82L256,475.43L256,478.04L253.39,483.27L253.39,488.49L253.39,496.33L253.39,501.55L253.39,509.39L253.39,514.61L253.39,519.84L253.39,525.06L253.39,530.29L253.39,532.9L253.39,535.51L250.78,538.12L250.78,540.73L250.78,543.35L248.16,543.35L245.55,543.35L242.94,545.96L240.33,545.96L235.1,545.96L227.27,545.96L222.04,543.35L219.43,543.35L222.04,543.35L224.65,543.35L224.65,540.73L224.65,538.12L224.65,532.9L224.65,525.06L224.65,517.22L224.65,506.78L224.65,498.94L224.65,493.71L224.65,488.49L227.27,485.88L229.88,488.49L229.88,491.1L232.49,491.1" fill="none" stroke="#000000" style="-webkit-tap-highlight-color: rgba(0, 0, 0, 0); stroke-linecap: round; stroke-linejoin: round; stroke-width: 7;" /><path d="M982.2,914.29L982.2,911.67L984.82,911.67L982.2,911.67L979.59,911.67L974.37,911.67L971.76,911.67L969.14,914.29L966.53,914.29L963.92,916.9L961.31,919.51L958.69,922.12L956.08,924.73L953.47,929.96L953.47,932.57L953.47,937.8L953.47,943.02L953.47,945.63L953.47,948.24L956.08,950.86L958.69,953.47L961.31,953.47L963.92,956.08L966.53,956.08L971.76,953.47L976.98,950.86L979.59,948.24L984.82,948.24L987.43,945.63L990.04,940.41L992.65,937.8L992.65,932.57L992.65,929.96L990.04,924.73L987.43,919.51L984.82,916.9L984.82,911.67L982.2,909.06L982.2,903.84L979.59,903.84L976.98,903.84L974.37,903.84L974.37,906.45L974.37,909.06" fill="none" stroke="#000000" style="-webkit-tap-highlight-color: rgba(0, 0, 0, 0); stroke-linecap: round; stroke-linejoin: round; stroke-width: 7;" /><path d="M73.14,880.33L75.76,880.33L75.76,877.71L75.76,875.1L73.14,877.71L70.53,877.71L67.92,880.33L62.69,880.33L60.08,882.94L54.86,882.94L49.63,882.94L44.41,882.94L36.57,880.33L28.73,875.1L20.9,867.27L13.06,862.04L7.84,862.04L5.22,862.04L7.84,864.65L10.45,867.27L13.06,867.27L15.67,867.27L18.29,867.27L20.9,864.65L23.51,862.04L26.12,859.43L26.12,856.82L28.73,856.82L33.96,856.82L36.57,856.82L39.18,859.43L44.41,864.65L49.63,872.49L52.24,880.33L57.47,882.94L60.08,885.55L65.31,888.16L70.53,888.16L73.14,888.16L78.37,888.16L83.59,888.16L88.82,885.55L91.43,885.55L96.65,885.55L99.27,885.55L101.88,885.55L104.49,885.55L107.1,885.55L109.71,885.55L112.33,882.94L112.33,880.33L109.71,877.71L109.71,875.1" fill="none" stroke="#000000" style="-webkit-tap-highlight-color: rgba(0, 0, 0, 0); stroke-linecap: round; stroke-linejoin: round; stroke-width: 7;" /><path d="M18.29,838.53L15.67,835.92L13.06,833.31L13.06,830.69L15.67,830.69L18.29,833.31L20.9,835.92L26.12,838.53L28.73,838.53L33.96,843.76L39.18,846.37L41.8,846.37L47.02,848.98L49.63,851.59L54.86,851.59L60.08,851.59L65.31,854.2L70.53,854.2L75.76,854.2L78.37,856.82L83.59,854.2L86.2,854.2L88.82,851.59L91.43,851.59L96.65,851.59L99.27,851.59L101.88,851.59L104.49,851.59L104.49,854.2L107.1,854.2" fill="none" stroke="#000000" style="-webkit-tap-highlight-color: rgba(0, 0, 0, 0); stroke-linecap: round; stroke-linejoin: round; stroke-width: 7;" /><path d="M1269.55,1522.94" fill="none" stroke="#000000" style="-webkit-tap-highlight-color: rgba(0, 0, 0, 0); stroke-linecap: round; stroke-linejoin: round; stroke-width: 7;" /><path d="M352.65,1110.2L350.04,1110.2L347.43,1110.2L344.82,1110.2L347.43,1110.2L350.04,1112.82L352.65,1112.82L357.88,1112.82L363.1,1112.82L368.33,1112.82L376.16,1112.82L381.39,1112.82L384,1115.43L389.22,1115.43L394.45,1115.43L399.67,1115.43L402.29,1115.43L407.51,1112.82L412.73,1110.2L417.96,1107.59L423.18,1102.37L428.41,1099.76L431.02,1099.76L433.63,1097.14L433.63,1099.76L431.02,1099.76L431.02,1102.37L431.02,1099.76L433.63,1094.53L436.24,1091.92L438.86,1086.69L441.47,1086.69L444.08,1086.69L441.47,1089.31L441.47,1091.92L444.08,1091.92L446.69,1091.92L449.31,1091.92L451.92,1091.92L454.53,1091.92L457.14,1091.92L459.76,1091.92L462.37,1094.53L464.98,1094.53L467.59,1094.53L472.82,1094.53L475.43,1094.53L478.04,1094.53L480.65,1094.53L483.27,1091.92L485.88,1091.92L488.49,1091.92L491.1,1091.92L493.71,1091.92L496.33,1091.92L501.55,1091.92L504.16,1091.92L509.39,1091.92L517.22,1091.92L525.06,1091.92L530.29,1094.53L535.51,1094.53L540.73,1094.53L545.96,1094.53L548.57,1094.53L551.18,1094.53L553.8,1094.53L556.41,1094.53L556.41,1097.14L559.02,1097.14L561.63,1097.14L564.24,1099.76L566.86,1099.76L569.47,1099.76L572.08,1099.76" fill="none" stroke="#000000" style="-webkit-tap-highlight-color: rgba(0, 0, 0, 0); stroke-linecap: round; stroke-linejoin: round; stroke-width: 7;" /><path d="M7.84,1389.71L5.22,1389.71L5.22,1387.1L7.84,1387.1L10.45,1381.88L15.67,1379.27L20.9,1374.04L28.73,1368.82L39.18,1363.59L47.02,1360.98L52.24,1358.37L57.47,1358.37L62.69,1355.76L65.31,1353.14L70.53,1347.92L75.76,1342.69L80.98,1337.47L88.82,1332.24L91.43,1332.24L94.04,1329.63L96.65,1329.63L99.27,1327.02L101.88,1327.02L107.1,1327.02L109.71,1327.02L112.33,1327.02L114.94,1327.02L117.55,1327.02L122.78,1327.02L125.39,1327.02L128,1327.02L130.61,1327.02L133.22,1327.02L135.84,1327.02L138.45,1327.02L141.06,1327.02L143.67,1327.02L148.9,1324.41L151.51,1324.41L156.73,1324.41L159.35,1321.8L164.57,1321.8L167.18,1321.8L172.41,1321.8L175.02,1321.8L180.24,1321.8L182.86,1321.8L185.47,1321.8L188.08,1321.8L190.69,1321.8L195.92,1321.8L198.53,1321.8L201.14,1321.8L206.37,1321.8L208.98,1321.8L211.59,1321.8L214.2,1321.8L216.82,1321.8L219.43,1319.18L222.04,1319.18L224.65,1319.18L227.27,1319.18L229.88,1319.18L232.49,1319.18L235.1,1319.18L237.71,1319.18L240.33,1319.18L242.94,1319.18L245.55,1319.18L248.16,1319.18L250.78,1319.18L253.39,1319.18L256,1319.18L258.61,1316.57L261.22,1316.57L263.84,1313.96L266.45,1311.35L269.06,1311.35L271.67,1308.73L274.29,1308.73L274.29,1311.35L271.67,1313.96L271.67,1319.18L269.06,1321.8L269.06,1324.41" fill="none" stroke="#000000" style="-webkit-tap-highlight-color: rgba(0, 0, 0, 0); stroke-linecap: round; stroke-linejoin: round; stroke-width: 7;" /><path d="M399.67,1337.47L397.06,1337.47L394.45,1337.47L391.84,1337.47L389.22,1340.08L386.61,1340.08L384,1340.08L381.39,1340.08L381.39,1337.47L381.39,1334.86L381.39,1332.24L381.39,1329.63L381.39,1327.02L381.39,1324.41L381.39,1321.8L381.39,1319.18L378.78,1319.18L378.78,1316.57L378.78,1313.96L378.78,1311.35L378.78,1308.73L381.39,1306.12L384,1303.51L386.61,1300.9L386.61,1298.29L386.61,1295.67L384,1295.67L378.78,1295.67L376.16,1293.06L373.55,1290.45L373.55,1287.84L373.55,1285.22L373.55,1282.61L376.16,1277.39L378.78,1274.78L381.39,1269.55L384,1266.94L386.61,1261.71L386.61,1259.1L386.61,1256.49L386.61,1253.88L386.61,1251.27L386.61,1248.65L381.39,1248.65L378.78,1246.04L373.55,1243.43L368.33,1243.43L360.49,1243.43L355.27,1243.43L347.43,1246.04L342.2,1248.65L336.98,1248.65L334.37,1251.27L331.76,1253.88L326.53,1256.49L321.31,1259.1L316.08,1264.33L308.24,1269.55L297.8,1274.78L292.57,1277.39L287.35,1282.61L284.73,1285.22L282.12,1287.84L282.12,1290.45L279.51,1293.06L279.51,1295.67L276.9,1295.67L276.9,1298.29L282.12,1295.67L284.73,1295.67" fill="none" stroke="#000000" style="-webkit-tap-highlight-color: rgba(0, 0, 0, 0); stroke-linecap: round; stroke-linejoin: round; stroke-width: 7;" /><path d="M368.33,1256.49L365.71,1256.49L363.1,1251.27L360.49,1248.65L360.49,1246.04L360.49,1243.43L363.1,1243.43L365.71,1243.43L370.94,1243.43L376.16,1240.82L381.39,1240.82L389.22,1240.82L394.45,1238.2L402.29,1238.2L404.9,1238.2L410.12,1238.2L412.73,1238.2L415.35,1235.59L417.96,1232.98L420.57,1232.98L423.18,1230.37L425.8,1230.37L428.41,1227.76L428.41,1225.14L431.02,1225.14L431.02,1222.53L433.63,1222.53L431.02,1222.53L428.41,1225.14L425.8,1227.76L423.18,1230.37L420.57,1230.37L417.96,1225.14L417.96,1219.92L417.96,1214.69L420.57,1209.47L423.18,1206.86L425.8,1201.63L431.02,1201.63L433.63,1199.02L438.86,1199.02L441.47,1201.63L444.08,1204.24L449.31,1206.86L451.92,1212.08L454.53,1214.69L459.76,1217.31L462.37,1219.92L464.98,1222.53L464.98,1225.14L464.98,1227.76L464.98,1230.37L464.98,1232.98L462.37,1235.59L459.76,1238.2L454.53,1243.43L451.92,1246.04L446.69,1251.27L441.47,1253.88L436.24,1256.49L433.63,1259.1L431.02,1261.71L431.02,1264.33L431.02,1266.94L431.02,1269.55L431.02,1272.16L431.02,1274.78L433.63,1277.39L433.63,1282.61L436.24,1285.22L438.86,1290.45L441.47,1293.06L441.47,1298.29L441.47,1300.9L441.47,1308.73L444.08,1313.96L444.08,1319.18L446.69,1324.41L446.69,1329.63L446.69,1332.24L444.08,1329.63L444.08,1324.41" fill="none" stroke="#000000" style="-webkit-tap-highlight-color: rgba(0, 0, 0, 0); stroke-linecap: round; stroke-linejoin: round; stroke-width: 7;" /><path d="M436.24,1253.88L436.24,1248.65L436.24,1243.43L436.24,1240.82L441.47,1240.82L449.31,1243.43L457.14,1246.04L464.98,1251.27L470.2,1256.49L475.43,1261.71L480.65,1266.94L485.88,1272.16L488.49,1277.39L491.1,1280L491.1,1282.61L491.1,1280L488.49,1277.39" fill="none" stroke="#000000" style="-webkit-tap-highlight-color: rgba(0, 0, 0, 0); stroke-linecap: round; stroke-linejoin: round; stroke-width: 7;" /><path d="M632.16,297.8L629.55,295.18L626.94,295.18L624.33,295.18L624.33,297.8L621.71,300.41L621.71,303.02L621.71,305.63L621.71,308.24L621.71,310.86L621.71,313.47L621.71,318.69L621.71,323.92L624.33,329.14L624.33,331.76L624.33,336.98L626.94,339.59L626.94,344.82L629.55,350.04L629.55,352.65L632.16,357.88L632.16,365.71L634.78,370.94L634.78,378.78L634.78,384L637.39,389.22L637.39,397.06L637.39,404.9L637.39,410.12L637.39,415.35L637.39,423.18L637.39,428.41L640,431.02L640,433.63L640,436.24L640,441.47L640,444.08L640,446.69L640,451.92L640,454.53L642.61,459.76L642.61,462.37L642.61,467.59L642.61,472.82L642.61,475.43L642.61,480.65L642.61,485.88L642.61,491.1L642.61,496.33L642.61,504.16L642.61,509.39L642.61,517.22L642.61,522.45L642.61,530.29L642.61,535.51L642.61,540.73L645.22,545.96L647.84,551.18L647.84,556.41L650.45,564.24L650.45,569.47L650.45,574.69L653.06,579.92L653.06,585.14L653.06,590.37L653.06,595.59L653.06,603.43L653.06,611.27L653.06,619.1L653.06,626.94L653.06,634.78L653.06,642.61L655.67,650.45L655.67,655.67L655.67,658.29L658.29,658.29L658.29,653.06L660.9,647.84L660.9,645.22L663.51,642.61L663.51,640L663.51,637.39" fill="none" stroke="#000000" style="-webkit-tap-highlight-color: rgba(0, 0, 0, 0); stroke-linecap: round; stroke-linejoin: round; stroke-width: 7;" /><path d="M640,681.8L640,684.41L637.39,684.41L637.39,687.02L637.39,684.41L637.39,681.8L637.39,679.18L637.39,673.96L637.39,668.73L637.39,666.12L634.78,658.29L634.78,653.06L634.78,647.84L634.78,645.22L634.78,640L634.78,634.78L632.16,629.55L632.16,626.94L632.16,621.71L629.55,616.49L629.55,611.27L629.55,606.04L632.16,600.82L632.16,595.59L632.16,592.98L634.78,585.14L634.78,582.53L637.39,577.31L640,572.08L640,566.86L642.61,561.63L642.61,553.8L645.22,548.57L645.22,538.12L647.84,530.29L647.84,519.84L650.45,509.39L650.45,498.94L653.06,488.49L653.06,480.65L653.06,472.82L653.06,464.98L653.06,457.14L653.06,449.31L653.06,444.08L653.06,436.24L653.06,428.41L653.06,423.18L650.45,415.35L650.45,407.51L650.45,402.29L653.06,394.45L653.06,389.22L653.06,381.39L653.06,376.16L653.06,370.94L653.06,363.1L653.06,357.88L653.06,350.04L653.06,342.2L653.06,334.37L653.06,329.14L650.45,326.53L650.45,323.92L647.84,321.31L647.84,316.08L647.84,310.86L647.84,305.63L647.84,297.8L645.22,292.57L642.61,292.57L640,292.57L637.39,300.41L632.16,310.86L629.55,321.31L626.94,334.37L626.94,347.43L626.94,360.49L626.94,370.94L626.94,381.39L629.55,389.22L632.16,394.45L632.16,399.67L632.16,407.51L634.78,417.96L634.78,431.02L634.78,441.47L634.78,454.53L634.78,464.98L634.78,475.43L634.78,485.88L634.78,498.94L634.78,509.39L637.39,517.22L640,527.67L640,535.51L640,543.35L642.61,553.8L645.22,566.86L650.45,579.92L653.06,592.98L653.06,603.43L653.06,613.88L653.06,621.71L653.06,629.55L653.06,640L650.45,650.45L647.84,660.9L647.84,668.73L645.22,676.57L645.22,687.02L645.22,692.24L645.22,700.08L645.22,707.92L645.22,713.14L645.22,723.59L642.61,734.04L642.61,741.88L642.61,749.71L642.61,754.94L642.61,760.16L642.61,765.39L642.61,770.61L642.61,773.22L642.61,778.45L642.61,786.29L642.61,794.12L642.61,801.96L642.61,812.41L642.61,822.86L640,830.69L640,838.53L640,846.37L640,854.2L640,859.43L642.61,867.27L642.61,877.71L645.22,888.16L645.22,893.39L645.22,898.61L642.61,903.84L642.61,909.06L642.61,911.67L642.61,916.9L640,916.9L642.61,919.51L642.61,922.12L642.61,927.35L642.61,929.96L642.61,932.57L642.61,935.18L642.61,927.35L642.61,919.51L642.61,906.45L640,893.39L637.39,877.71L637.39,864.65L637.39,851.59L637.39,838.53L637.39,825.47L637.39,809.8L637.39,796.73L637.39,783.67L637.39,770.61L637.39,757.55L634.78,744.49L634.78,739.27L634.78,736.65L637.39,739.27L640,747.1L640,757.55L642.61,768L645.22,781.06L647.84,791.51L650.45,804.57L650.45,815.02L650.45,825.47L650.45,835.92L650.45,846.37L650.45,854.2L650.45,862.04L650.45,872.49L650.45,882.94L650.45,890.78L650.45,896L653.06,898.61L655.67,896" fill="none" stroke="#000000" style="-webkit-tap-highlight-color: rgba(0, 0, 0, 0); stroke-linecap: round; stroke-linejoin: round; stroke-width: 7;" /><path d="M637.39,308.24L637.39,305.63L637.39,303.02L637.39,300.41L640,300.41L640,303.02L640,305.63L640,310.86L640,316.08L640,321.31L637.39,329.14L637.39,339.59L637.39,347.43L637.39,355.27L640,363.1L640,370.94L642.61,376.16L645.22,381.39L645.22,386.61L645.22,389.22L645.22,394.45L645.22,399.67L645.22,402.29L645.22,407.51L645.22,412.73L645.22,415.35L642.61,420.57L642.61,425.8L640,428.41L640,433.63L637.39,436.24L637.39,438.86L637.39,444.08L637.39,446.69L634.78,451.92L634.78,457.14L634.78,462.37L634.78,467.59L634.78,472.82L634.78,480.65L634.78,485.88L634.78,491.1L634.78,493.71L634.78,498.94L634.78,504.16L634.78,509.39L634.78,514.61L634.78,519.84L634.78,525.06L634.78,530.29L634.78,535.51L637.39,538.12L637.39,543.35L640,545.96L640,548.57L642.61,551.18L642.61,556.41L645.22,559.02L645.22,561.63L645.22,566.86L647.84,572.08L647.84,579.92L647.84,590.37L645.22,600.82L645.22,608.65L642.61,613.88L642.61,619.1L642.61,624.33L645.22,626.94L645.22,632.16L645.22,637.39L645.22,642.61L645.22,647.84L645.22,653.06L645.22,660.9L645.22,668.73L645.22,676.57L645.22,684.41L645.22,689.63L645.22,697.47L645.22,702.69L642.61,707.92L642.61,713.14L642.61,718.37L642.61,720.98L642.61,723.59L642.61,726.2L642.61,728.82L642.61,731.43L642.61,734.04L645.22,734.04L647.84,734.04L653.06,728.82L660.9,726.2L666.12,723.59L668.73,726.2L671.35,731.43L673.96,739.27" fill="none" stroke="#000000" style="-webkit-tap-highlight-color: rgba(0, 0, 0, 0); stroke-linecap: round; stroke-linejoin: round; stroke-width: 7;" /><path d="M640,297.8L640,295.18L637.39,295.18L634.78,295.18L634.78,297.8L634.78,300.41L634.78,308.24L634.78,313.47L634.78,321.31L634.78,326.53L634.78,331.76L634.78,339.59L637.39,344.82L637.39,350.04L637.39,355.27L637.39,357.88L637.39,363.1L640,365.71L640,368.33L640,370.94L640,373.55L640,378.78L640,384L640,389.22L637.39,391.84L637.39,397.06L637.39,402.29L637.39,407.51L637.39,415.35L637.39,417.96L637.39,423.18L637.39,428.41L637.39,433.63L637.39,438.86L637.39,444.08L637.39,449.31L637.39,454.53L637.39,462.37L637.39,467.59L634.78,475.43L634.78,483.27L632.16,488.49L632.16,493.71L632.16,498.94L632.16,504.16L634.78,512L634.78,517.22L637.39,525.06L637.39,532.9L640,540.73L642.61,548.57L645.22,556.41L645.22,566.86L645.22,574.69L645.22,582.53L645.22,590.37L645.22,598.2L645.22,608.65L645.22,619.1L645.22,629.55L642.61,640L642.61,647.84L640,655.67L637.39,663.51L637.39,671.35L637.39,676.57L637.39,681.8L637.39,684.41L637.39,687.02L637.39,692.24L637.39,700.08L637.39,707.92L637.39,715.76L640,726.2L640,736.65L640,747.1L640,760.16L640,770.61L640,783.67L640,799.35L640,809.8L640,817.63L640,822.86L640,828.08L640,835.92L640,841.14L640,846.37L642.61,854.2L642.61,859.43L642.61,867.27L642.61,875.1L642.61,882.94L642.61,885.55L642.61,890.78L642.61,893.39L642.61,898.61L642.61,901.22L642.61,903.84L642.61,906.45L645.22,906.45L645.22,909.06L645.22,911.67L645.22,914.29L645.22,916.9L645.22,919.51L645.22,916.9L645.22,914.29L642.61,914.29L642.61,916.9L642.61,924.73L640,929.96L640,935.18L640,940.41L640,935.18L640,927.35L640,919.51L640,906.45L640,890.78L640,869.88L637.39,846.37L634.78,822.86L637.39,801.96L640,788.9L642.61,781.06L645.22,773.22L647.84,768L647.84,757.55L650.45,744.49L650.45,731.43L650.45,723.59L650.45,720.98L653.06,723.59L653.06,726.2" fill="none" stroke="#000000" style="-webkit-tap-highlight-color: rgba(0, 0, 0, 0); stroke-linecap: round; stroke-linejoin: round; stroke-width: 7;" /><path d="M653.06,336.98L653.06,334.37L653.06,329.14L653.06,326.53L653.06,323.92L650.45,321.31L650.45,318.69L647.84,316.08L645.22,316.08L642.61,316.08L640,316.08L637.39,316.08L634.78,318.69L632.16,321.31L629.55,323.92L629.55,326.53L629.55,334.37L629.55,342.2L629.55,350.04L632.16,360.49L632.16,370.94L634.78,381.39L634.78,391.84L637.39,399.67L637.39,410.12L637.39,417.96L637.39,428.41L637.39,436.24L637.39,444.08L637.39,449.31L637.39,454.53L637.39,457.14L637.39,462.37L637.39,467.59L637.39,475.43L637.39,485.88L637.39,493.71L637.39,504.16L637.39,514.61L637.39,519.84L637.39,530.29L637.39,538.12L640,545.96L640,553.8L640,561.63L640,569.47L640,577.31L640,585.14L642.61,592.98L642.61,598.2L642.61,606.04L642.61,613.88L642.61,621.71L642.61,626.94L640,634.78L640,642.61L640,647.84L640,655.67L640,663.51L637.39,673.96L637.39,681.8L637.39,689.63L637.39,700.08L634.78,710.53L634.78,718.37L634.78,728.82L634.78,736.65L634.78,744.49L634.78,749.71L634.78,754.94L634.78,760.16L634.78,765.39L634.78,773.22L634.78,775.84L634.78,778.45L634.78,781.06L634.78,783.67L634.78,788.9L634.78,794.12L634.78,799.35L634.78,804.57L634.78,812.41L634.78,820.24L634.78,830.69L637.39,838.53L640,848.98L642.61,859.43L642.61,867.27L645.22,877.71L645.22,885.55L647.84,893.39L647.84,901.22L647.84,906.45L647.84,911.67L647.84,914.29L645.22,911.67L647.84,909.06" fill="none" stroke="#000000" style="-webkit-tap-highlight-color: rgba(0, 0, 0, 0); stroke-linecap: round; stroke-linejoin: round; stroke-width: 7;" /><path d="M650.45,922.12L650.45,924.73L650.45,932.57L647.84,937.8L645.22,937.8L645.22,935.18L645.22,929.96L645.22,922.12L645.22,914.29L645.22,906.45L645.22,893.39L645.22,880.33L645.22,867.27L645.22,854.2L645.22,843.76L645.22,833.31L645.22,825.47L642.61,815.02L642.61,801.96L645.22,791.51L647.84,778.45L650.45,768L650.45,757.55L650.45,747.1L650.45,734.04L650.45,726.2L650.45,718.37L650.45,715.76L650.45,713.14L650.45,710.53L650.45,707.92L650.45,705.31L650.45,702.69L650.45,697.47L650.45,694.86L650.45,692.24L647.84,681.8L645.22,668.73L645.22,655.67L645.22,642.61L645.22,634.78L645.22,632.16L647.84,634.78" fill="none" stroke="#000000" style="-webkit-tap-highlight-color: rgba(0, 0, 0, 0); stroke-linecap: round; stroke-linejoin: round; stroke-width: 7;" /><path d="M744.49,1138.94L741.88,1136.33L739.27,1136.33L736.65,1133.71L734.04,1133.71L734.04,1131.1L731.43,1131.1L728.82,1131.1L726.2,1131.1L723.59,1131.1L723.59,1133.71L720.98,1136.33L720.98,1138.94L723.59,1144.16L728.82,1146.78L734.04,1146.78L741.88,1149.39L749.71,1149.39L757.55,1146.78L765.39,1144.16L773.22,1141.55L781.06,1138.94L783.67,1138.94L786.29,1138.94L783.67,1138.94L778.45,1141.55L770.61,1141.55L760.16,1141.55L749.71,1141.55L739.27,1141.55L734.04,1141.55L728.82,1141.55L731.43,1141.55L739.27,1141.55L749.71,1141.55L762.78,1141.55L775.84,1141.55L778.45,1141.55L770.61,1141.55L754.94,1144.16L739.27,1144.16L723.59,1144.16L713.14,1144.16L718.37,1144.16L720.98,1144.16L726.2,1144.16L734.04,1146.78L739.27,1146.78L744.49,1152L747.1,1152" fill="none" stroke="#000000" style="-webkit-tap-highlight-color: rgba(0, 0, 0, 0); stroke-linecap: round; stroke-linejoin: round; stroke-width: 7;" /><path d="M741.88,1152L739.27,1152L736.65,1149.39L734.04,1149.39L734.04,1146.78L731.43,1144.16L731.43,1141.55L728.82,1138.94L728.82,1136.33L726.2,1136.33L723.59,1136.33L718.37,1138.94L715.76,1141.55L710.53,1146.78L705.31,1152L700.08,1159.84L697.47,1165.06L694.86,1170.29L692.24,1175.51L692.24,1178.12L694.86,1175.51L700.08,1172.9L705.31,1165.06L713.14,1157.22L718.37,1152L720.98,1149.39L718.37,1152L715.76,1157.22L715.76,1159.84L710.53,1165.06L705.31,1172.9L702.69,1175.51L700.08,1178.12L700.08,1175.51L702.69,1167.67L710.53,1159.84L715.76,1149.39L720.98,1144.16L723.59,1141.55L720.98,1144.16L715.76,1154.61L707.92,1165.06L700.08,1172.9L694.86,1180.73L692.24,1185.96L689.63,1188.57L692.24,1191.18L694.86,1191.18L697.47,1191.18" fill="none" stroke="#000000" style="-webkit-tap-highlight-color: rgba(0, 0, 0, 0); stroke-linecap: round; stroke-linejoin: round; stroke-width: 7;" /><path d="M564.24,1238.2L561.63,1235.59L559.02,1230.37L556.41,1227.76L556.41,1222.53L556.41,1217.31L556.41,1212.08L556.41,1209.47L559.02,1204.24L561.63,1201.63L564.24,1199.02L566.86,1196.41L566.86,1199.02L566.86,1201.63L566.86,1204.24L569.47,1201.63L574.69,1199.02L577.31,1193.8L579.92,1191.18L579.92,1188.57L577.31,1188.57L574.69,1188.57L569.47,1191.18L566.86,1193.8L566.86,1196.41L564.24,1199.02L564.24,1201.63L564.24,1204.24L566.86,1209.47L566.86,1212.08L569.47,1214.69L572.08,1219.92L574.69,1222.53L577.31,1225.14L579.92,1227.76L582.53,1227.76L585.14,1230.37L587.76,1230.37L592.98,1230.37L598.2,1230.37L603.43,1230.37L606.04,1230.37L611.27,1227.76L613.88,1227.76L619.1,1225.14L621.71,1225.14L626.94,1225.14L629.55,1225.14L632.16,1225.14L637.39,1225.14L640,1225.14L645.22,1225.14L653.06,1225.14L658.29,1225.14L663.51,1225.14L668.73,1225.14L671.35,1225.14L676.57,1225.14L679.18,1225.14L681.8,1225.14L687.02,1225.14L692.24,1225.14L694.86,1225.14L700.08,1225.14L702.69,1225.14L705.31,1225.14L705.31,1227.76L707.92,1227.76L707.92,1225.14L705.31,1225.14" fill="none" stroke="#000000" style="-webkit-tap-highlight-color: rgba(0, 0, 0, 0); stroke-linecap: round; stroke-linejoin: round; stroke-width: 7;" /><path d="M728.82,1269.55L726.2,1266.94L723.59,1261.71L723.59,1259.1L726.2,1256.49L728.82,1256.49L734.04,1256.49L736.65,1256.49L741.88,1256.49L747.1,1259.1L752.33,1261.71L757.55,1264.33L760.16,1269.55L762.78,1274.78L765.39,1280L768,1285.22L768,1290.45L768,1295.67L768,1300.9L770.61,1303.51L770.61,1306.12L770.61,1308.73L773.22,1311.35L773.22,1313.96L773.22,1319.18L773.22,1321.8L773.22,1324.41L773.22,1327.02L775.84,1329.63L778.45,1329.63L781.06,1332.24L786.29,1332.24L791.51,1334.86L796.73,1334.86L799.35,1337.47L804.57,1340.08L807.18,1340.08L804.57,1340.08" fill="none" stroke="#000000" style="-webkit-tap-highlight-color: rgba(0, 0, 0, 0); stroke-linecap: round; stroke-linejoin: round; stroke-width: 7;" /></svg>