<?xml version="1.0" encoding="utf-8" ?>
<svg baseProfile="full" height="1477" version="1.1" width="1024" xmlns="http://www.w3.org/2000/svg" xmlns:ev="http://www.w3.org/2001/xml-events" xmlns:xlink="http://www.w3.org/1999/xlink"><defs /><path d="M173.26,136.61L171.04,135.5L169.93,135.5L166.59,139.94L165.48,143.27L164.37,146.6L163.26,153.27L162.15,162.15L162.15,167.7L161.04,172.15L161.04,177.7L161.04,182.14L161.04,192.14L159.93,196.58L158.82,202.13L157.71,206.58L156.6,211.02L154.38,214.35L154.38,217.68L153.27,222.13L152.16,227.68L152.16,235.45L152.16,239.9L152.16,243.23L152.16,246.56L153.27,248.78L152.16,253.22L152.16,259.89L152.16,264.33L152.16,268.77L152.16,277.66L151.05,280.99L149.93,284.32L149.93,288.76L148.82,293.21L147.71,297.65L146.6,303.2L145.49,312.09L145.49,314.31L145.49,317.64L145.49,319.86L144.38,323.19L144.38,324.3L144.38,326.52L144.38,328.75L143.27,330.97L142.16,333.19L141.05,334.3L138.83,336.52L137.72,338.74L135.5,342.07L134.39,344.3L133.28,346.52L133.28,347.63L132.16,348.74L132.16,350.96L131.05,355.4L131.05,357.62L129.94,360.95L129.94,362.07L129.94,364.29L128.83,367.62L128.83,368.73L127.72,370.95L126.61,376.5L126.61,378.72L125.5,382.06L124.39,384.28L123.28,386.5L122.17,387.61L122.17,389.83L121.06,390.94L118.84,394.27L116.62,397.61L114.39,399.83L113.28,402.05L112.17,404.27L111.06,406.49L109.95,408.71L107.73,410.93L106.62,412.04L105.51,413.15L104.4,415.38L103.29,416.49L103.29,417.6L103.29,418.71L102.18,419.82L102.18,422.04L101.07,424.26L101.07,427.59L101.07,430.92L99.96,434.26L99.96,436.48L99.96,445.36L99.96,447.58L99.96,450.92L101.07,453.14L101.07,460.91L101.07,464.24L101.07,466.46L101.07,469.8L101.07,473.13L101.07,475.35L101.07,479.79L99.96,484.23L99.96,488.68L101.07,490.9L101.07,493.12L101.07,495.34L101.07,497.56L101.07,499.78L101.07,502L102.18,505.34L101.07,508.67L102.18,516.44L103.29,519.77L103.29,522L104.4,526.44L104.4,530.88L104.4,535.32L105.51,541.99L105.51,546.43L105.51,549.76L106.62,556.43L106.62,561.98L106.62,565.31L106.62,569.75L106.62,574.2L106.62,578.64L106.62,581.97L107.73,584.19L107.73,587.52L107.73,589.74L106.62,597.52L106.62,599.74L107.73,603.07L107.73,605.29L107.73,607.51L106.62,611.96L106.62,614.18L106.62,617.51L106.62,621.95L107.73,627.51L107.73,630.84L108.84,633.06L108.84,636.39L108.84,638.61L109.95,641.94L109.95,645.28L109.95,648.61L109.95,650.83L111.06,659.71L112.17,661.93L113.28,663.05L114.39,665.27L114.39,667.49L116.62,670.82L116.62,671.93L116.62,673.04L117.73,676.37L117.73,678.59L116.62,679.7L116.62,681.93L116.62,684.15L115.51,688.59L114.39,689.7L114.39,691.92L113.28,694.14L112.17,697.48L111.06,700.81L111.06,703.03L111.06,704.14L109.95,706.36L107.73,715.25L107.73,717.47L106.62,720.8L105.51,724.13L105.51,726.35L105.51,728.57L104.4,729.68L103.29,730.79L102.18,735.24L101.07,737.46L99.96,739.68L99.96,741.9L99.96,744.12L98.85,744.12L98.85,746.34L98.85,747.45L98.85,749.67L97.74,751.9L97.74,753.01L98.85,755.23L97.74,757.45L97.74,760.78L98.85,763L98.85,768.56L98.85,771.89L99.96,774.11L99.96,775.22L99.96,776.33L99.96,777.44L99.96,785.21L102.18,787.44L103.29,790.77L104.4,792.99L104.4,795.21L105.51,796.32L105.51,799.65L105.51,802.98L106.62,802.98L106.62,804.1L108.84,809.65L109.95,812.98L109.95,816.31L111.06,817.42L111.06,818.53L111.06,820.75L111.06,821.87L111.06,824.09L111.06,826.31L109.95,831.86L111.06,834.08L111.06,836.3L111.06,839.64L111.06,842.97L111.06,846.3L111.06,848.52L111.06,852.96L111.06,856.3L112.17,861.85L111.06,865.18L111.06,868.51L111.06,871.84L111.06,875.18L111.06,877.4L111.06,879.62L111.06,880.73L109.95,881.84L107.73,884.06L106.62,887.39L105.51,890.72L104.4,894.06L103.29,897.39L102.18,899.61L101.07,901.83L99.96,904.05L98.85,906.27L97.74,907.38L94.4,911.83L93.29,912.94L91.07,915.16L91.07,916.27L88.85,918.49L87.74,919.6L86.63,920.71L85.52,922.93L84.41,924.04L81.08,928.49L81.08,930.71L76.63,936.26L74.41,939.59L72.19,942.92L71.08,945.15L66.64,948.48L65.53,950.7L63.31,954.03L61.08,956.25L59.97,958.47L57.75,960.69L55.53,962.92L52.2,964.03L48.87,967.36L46.65,970.69L43.31,980.69L42.2,985.13L41.09,988.46L39.98,990.68L38.87,996.23L35.54,1000.68L34.43,1004.01L33.32,1008.45L31.1,1012.89L28.88,1017.34L27.77,1024L28.88,1029.55" fill="none" stroke="#000000" style="-webkit-tap-highlight-color: rgba(0, 0, 0, 0); stroke-linecap: round; stroke-linejoin: round; stroke-width: 7;" /><path d="M166.59,114.39L167.7,116.62L169.93,116.62L172.15,116.62L177.7,115.51L189.92,111.06L197.69,109.95L204.36,108.84L212.13,107.73L218.79,105.51L225.46,103.29L232.12,102.18L238.79,101.07L243.23,102.18L255.44,103.29L262.11,102.18L268.77,101.07L276.55,99.96L282.1,97.74L287.65,96.62L293.21,96.62L298.76,96.62L304.31,96.62L308.75,96.62L313.2,96.62L320.97,99.96L324.3,102.18L328.75,103.29L333.19,105.51L338.74,105.51L344.3,105.51L350.96,105.51L357.62,105.51L363.18,104.4L372.06,103.29L376.5,103.29L387.61,102.18L392.05,104.4L393.16,105.51L398.72,106.62L404.27,108.84L407.6,109.95L409.82,109.95L412.04,111.06L415.38,112.17L417.6,112.17L420.93,112.17L422.04,112.17L423.15,112.17L426.48,113.28L427.59,113.28L428.7,113.28L430.92,114.39L432.03,116.62L434.26,118.84L434.26,119.95L435.37,119.95L437.59,121.06L439.81,123.28L440.92,124.39L440.92,125.5L443.14,126.61L443.14,128.83L444.25,131.05L444.25,132.16L445.36,136.61L445.36,137.72L445.36,138.83L445.36,139.94L445.36,142.16L445.36,144.38L445.36,146.6L445.36,147.71" fill="none" stroke="#000000" style="-webkit-tap-highlight-color: rgba(0, 0, 0, 0); stroke-linecap: round; stroke-linejoin: round; stroke-width: 7;" /><path d="M450.92,129.94L450.92,131.05L452.03,136.61L455.36,139.94L458.69,141.05L464.24,142.16L468.69,141.05L473.13,141.05L477.57,141.05L480.9,139.94L484.23,139.94L489.79,141.05L493.12,141.05L495.34,142.16L497.56,142.16L500.89,143.27L504.23,143.27L506.45,145.49L508.67,145.49L512,146.6L516.44,146.6L519.77,147.71L523.11,147.71L526.44,148.82L528.66,148.82L531.99,148.82L534.21,149.93L536.43,152.16L537.54,152.16L539.77,153.27L544.21,155.49L545.32,155.49L546.43,156.6L547.54,157.71L548.65,159.93L549.76,163.26L551.98,164.37L553.09,166.59L554.2,167.7L557.54,169.93L558.65,171.04L560.87,173.26L563.09,173.26L565.31,175.48L569.75,181.03L571.97,184.36L574.2,188.81L575.31,191.03L577.53,193.25L579.75,195.47L580.86,195.47L584.19,198.8L587.52,201.02L590.85,203.25L594.19,205.47L595.3,206.58L598.63,208.8L599.74,209.91L601.96,211.02L605.29,214.35L606.4,215.46L608.62,217.68L609.74,219.9L614.18,225.46L615.29,227.68L616.4,231.01L618.62,233.23L619.73,236.56L620.84,236.56L621.95,236.56L624.17,237.67L627.51,236.56L631.95,234.34L634.17,232.12" fill="none" stroke="#000000" style="-webkit-tap-highlight-color: rgba(0, 0, 0, 0); stroke-linecap: round; stroke-linejoin: round; stroke-width: 7;" /><path d="M619.73,231.01L618.62,229.9L617.51,228.79L618.62,225.46L624.17,221.02L629.73,217.68L635.28,215.46L640.83,213.24L645.28,211.02L648.61,209.91L650.83,207.69L651.94,207.69L654.16,206.58L654.16,205.47L655.27,204.36L655.27,203.25L655.27,199.91L655.27,197.69L654.16,195.47L653.05,192.14L654.16,191.03L654.16,187.7L654.16,185.48L654.16,182.14L655.27,181.03L655.27,179.92L655.27,178.81L656.38,177.7L657.49,175.48L658.6,175.48L659.71,173.26L661.93,173.26L665.27,172.15L667.49,171.04L671.93,171.04L677.48,168.82L681.93,167.7" fill="none" stroke="#000000" style="-webkit-tap-highlight-color: rgba(0, 0, 0, 0); stroke-linecap: round; stroke-linejoin: round; stroke-width: 7;" /><path d="M684.15,166.59L693.03,165.48L698.59,164.37L706.36,163.26L715.25,161.04L723.02,159.93L730.79,157.71L738.57,155.49L746.34,152.16L760.78,148.82L768.56,147.71L776.33,146.6L784.1,146.6L790.77,146.6L797.43,146.6L804.1,145.49L810.76,145.49L816.31,144.38L830.75,143.27L837.41,142.16L844.08,141.05L850.74,139.94L857.41,137.72L865.18,135.5L871.84,133.28L879.62,129.94L887.39,128.83L901.83,127.72L908.49,126.61L915.16,125.5L922.93,123.28L928.49,122.17L935.15,119.95L940.7,119.95L946.26,119.95L952.92,117.73L959.58,115.51L971.8,114.39L978.46,113.28L985.13,112.17L991.79,112.17L1007.34,112.17L1012.89,112.17" fill="none" stroke="#000000" style="-webkit-tap-highlight-color: rgba(0, 0, 0, 0); stroke-linecap: round; stroke-linejoin: round; stroke-width: 7;" /><path d="M611.96,261L613.07,262.11L614.18,265.44L616.4,268.77L617.51,274.33L619.73,280.99L619.73,287.65L620.84,296.54L620.84,305.42L620.84,313.2L620.84,322.08L623.06,334.3L623.06,338.74L623.06,343.18L623.06,347.63L623.06,350.96L624.17,354.29L624.17,357.62L625.28,360.95L626.39,362.07L626.39,366.51L626.39,369.84L627.51,373.17L627.51,376.5L627.51,379.84L628.62,382.06L628.62,386.5L628.62,389.83L629.73,394.27L630.84,399.83L631.95,403.16L631.95,407.6L630.84,413.15L630.84,418.71L631.95,436.48L631.95,446.47L631.95,450.92L631.95,456.47L631.95,462.02L631.95,468.69L630.84,474.24L630.84,478.68L630.84,484.23L629.73,489.79L629.73,494.23L629.73,498.67L629.73,506.45L629.73,510.89L629.73,514.22L628.62,517.55L628.62,522L628.62,525.33L628.62,529.77L628.62,533.1L628.62,538.66L628.62,541.99L628.62,545.32L627.51,549.76L627.51,554.2L627.51,559.76L628.62,563.09L628.62,567.53L629.73,571.97L630.84,581.97L630.84,587.52L631.95,593.08L631.95,599.74L631.95,606.4" fill="none" stroke="#000000" style="-webkit-tap-highlight-color: rgba(0, 0, 0, 0); stroke-linecap: round; stroke-linejoin: round; stroke-width: 7;" /><path d="M626.39,606.4L627.51,608.62L627.51,613.07L626.39,617.51L626.39,623.06L625.28,628.62L624.17,634.17L625.28,639.72L625.28,644.16L626.39,649.72L627.51,659.71L627.51,665.27L627.51,671.93L628.62,677.48L628.62,684.15L629.73,688.59L629.73,693.03L630.84,698.59L630.84,703.03L630.84,707.47L630.84,715.25L630.84,719.69L631.95,724.13L631.95,730.79L633.06,735.24L634.17,740.79L634.17,746.34L634.17,751.9L634.17,756.34L634.17,760.78L634.17,765.22L634.17,768.56L634.17,771.89L634.17,774.11L634.17,777.44L634.17,780.77L634.17,785.21L634.17,787.44L634.17,789.66L634.17,791.88L634.17,792.99L633.06,794.1L633.06,796.32L633.06,799.65L633.06,802.98L631.95,807.43L630.84,810.76L630.84,812.98L629.73,816.31L629.73,819.64L628.62,822.98L628.62,827.42L627.51,831.86L626.39,835.19L624.17,846.3" fill="none" stroke="#000000" style="-webkit-tap-highlight-color: rgba(0, 0, 0, 0); stroke-linecap: round; stroke-linejoin: round; stroke-width: 7;" /><path d="M616.4,878.51L616.4,891.84" fill="none" stroke="#000000" style="-webkit-tap-highlight-color: rgba(0, 0, 0, 0); stroke-linecap: round; stroke-linejoin: round; stroke-width: 7;" /><path d="M464.24,925.15L465.35,926.26L469.8,924.04L476.46,920.71L486.46,917.38L498.67,910.72L517.55,904.05L597.52,871.84L624.17,859.63L661.93,844.08" fill="none" stroke="#000000" style="-webkit-tap-highlight-color: rgba(0, 0, 0, 0); stroke-linecap: round; stroke-linejoin: round; stroke-width: 7;" /><path d="M465.35,948.48L463.13,951.81L463.13,956.25L463.13,960.69L463.13,968.47L464.24,979.57L465.35,1006.23L466.46,1029.55L467.57,1039.55L467.57,1049.54L466.46,1058.43L466.46,1067.31L466.46,1072.87L466.46,1077.31L467.57,1078.42" fill="none" stroke="#000000" style="-webkit-tap-highlight-color: rgba(0, 0, 0, 0); stroke-linecap: round; stroke-linejoin: round; stroke-width: 7;" /><path d="M641.94,852.96L641.94,851.85L643.05,850.74L644.16,849.63L645.28,849.63L648.61,850.74" fill="none" stroke="#000000" style="-webkit-tap-highlight-color: rgba(0, 0, 0, 0); stroke-linecap: round; stroke-linejoin: round; stroke-width: 7;" /><path d="M628.62,867.4L630.84,868.51L633.06,876.29L633.06,888.5L634.17,904.05L635.28,908.49L635.28,919.6L636.39,931.82" fill="none" stroke="#000000" style="-webkit-tap-highlight-color: rgba(0, 0, 0, 0); stroke-linecap: round; stroke-linejoin: round; stroke-width: 7;" /><path d="M66.64,1007.34L58.86,1016.23L58.86,1019.56L62.2,1021.78L75.52,1021.78L84.41,1021.78L93.29,1020.67L102.18,1021.78L111.06,1021.78L121.06,1024L134.39,1026.22L142.16,1027.33L152.16,1028.44L169.93,1030.66L181.03,1031.77L193.25,1030.66L207.69,1030.66L221.02,1029.55L232.12,1029.55L249.89,1028.44L263.22,1028.44L274.33,1028.44L289.87,1029.55L302.09,1029.55L314.31,1029.55L324.3,1028.44L333.19,1027.33L343.18,1027.33L357.62,1027.33L365.4,1028.44L372.06,1028.44L383.17,1028.44L390.94,1028.44L400.94,1029.55L410.93,1029.55L418.71,1029.55L426.48,1029.55L438.7,1030.66L443.14,1031.77L455.36,1035.11L458.69,1036.22L467.57,1042.88L472.02,1046.21L476.46,1049.54L482.01,1052.88L486.46,1056.21L492.01,1061.76L494.23,1063.98L495.34,1065.09L497.56,1067.31L500.89,1069.54L502,1070.65L504.23,1070.65L506.45,1070.65L508.67,1070.65L512,1071.76L515.33,1072.87L519.77,1073.98L525.33,1076.2L531.99,1078.42L535.32,1080.64L540.88,1086.2L544.21,1089.53L546.43,1090.64L553.09,1093.97L556.43,1096.19L559.76,1099.52L564.2,1101.74L568.64,1103.97L573.08,1106.19L579.75,1109.52L585.3,1110.63L590.85,1111.74L598.63,1115.07L604.18,1117.29L609.74,1119.51L615.29,1120.62L621.95,1122.85L628.62,1123.96L639.72,1126.18L646.39,1127.29L651.94,1128.4L661.93,1129.51L668.6,1129.51L674.15,1129.51L679.7,1131.73L685.26,1132.84L691.92,1133.95L697.48,1135.06L704.14,1136.17L711.91,1137.28L718.58,1138.39L736.35,1140.62L745.23,1142.84L754.12,1145.06L761.89,1147.28L770.78,1149.5L779.66,1150.61L787.44,1151.72L796.32,1152.83L804.1,1153.94L811.87,1155.05L818.53,1155.05" fill="none" stroke="#000000" style="-webkit-tap-highlight-color: rgba(0, 0, 0, 0); stroke-linecap: round; stroke-linejoin: round; stroke-width: 7;" /><path d="M835.19,1150.61L836.3,1151.72L839.64,1152.83L845.19,1155.05L858.52,1156.16L864.07,1156.16L887.39,1158.39L899.61,1159.5L914.05,1159.5L926.26,1159.5L945.15,1160.61L950.7,1160.61L960.69,1161.72L970.69,1162.83L989.57,1165.05L998.46,1166.16L1006.23,1167.27L1014,1168.38" fill="none" stroke="#000000" style="-webkit-tap-highlight-color: rgba(0, 0, 0, 0); stroke-linecap: round; stroke-linejoin: round; stroke-width: 7;" /><path d="M749.67,1185.04L748.56,1185.04L747.45,1182.82L745.23,1182.82L743.01,1185.04L735.24,1196.15L731.9,1202.81L726.35,1209.48L721.91,1216.14L717.47,1223.91L713.02,1232.8L709.69,1242.79L706.36,1251.68L705.25,1261.67L703.03,1277.22L703.03,1285L703.03,1297.21L704.14,1306.1L705.25,1314.98L707.47,1329.42L708.58,1338.31L708.58,1343.86L708.58,1346.08L708.58,1348.3" fill="none" stroke="#000000" style="-webkit-tap-highlight-color: rgba(0, 0, 0, 0); stroke-linecap: round; stroke-linejoin: round; stroke-width: 7;" /><path d="M746.34,1193.93L746.34,1191.7L747.45,1190.59L754.12,1186.15L755.23,1185.04L765.22,1186.15L771.89,1186.15L780.77,1186.15L791.88,1185.04L804.1,1182.82L816.31,1180.6L827.42,1179.49L838.52,1179.49L859.63,1178.38L870.73,1177.27L882.95,1175.05L894.06,1172.82L904.05,1171.71L919.6,1170.6L924.04,1169.49L931.82,1169.49L941.81,1170.6L961.8,1169.49L974.02,1169.49L984.02,1170.6L994.01,1171.71L1004.01,1173.93L1015.11,1176.16" fill="none" stroke="#000000" style="-webkit-tap-highlight-color: rgba(0, 0, 0, 0); stroke-linecap: round; stroke-linejoin: round; stroke-width: 7;" /><path d="M877.4,1219.47L878.51,1218.36L877.4,1215.03L876.29,1215.03L876.29,1213.92L872.95,1215.03L869.62,1216.14L865.18,1219.47L858.52,1225.02L852.96,1229.47L848.52,1233.91L841.86,1242.79L838.52,1249.46L836.3,1257.23L835.19,1266.12L832.97,1275L830.75,1283.89L829.64,1290.55L828.53,1298.33L827.42,1304.99L827.42,1311.65L826.31,1318.32L826.31,1323.87L826.31,1329.42L826.31,1334.98L826.31,1340.53L826.31,1346.08L826.31,1353.86L828.53,1358.3" fill="none" stroke="#000000" style="-webkit-tap-highlight-color: rgba(0, 0, 0, 0); stroke-linecap: round; stroke-linejoin: round; stroke-width: 7;" /><path d="M701.92,1342.75L700.81,1341.64L701.92,1343.86L706.36,1346.08L730.79,1356.08L748.56,1360.52L755.23,1360.52L774.11,1363.85L779.66,1366.07L797.43,1373.85L804.1,1377.18" fill="none" stroke="#000000" style="-webkit-tap-highlight-color: rgba(0, 0, 0, 0); stroke-linecap: round; stroke-linejoin: round; stroke-width: 7;" /><path d="M664.16,1347.19L665.27,1348.3L665.27,1349.41L665.27,1350.52L663.05,1352.75L657.49,1356.08L651.94,1358.3L645.28,1361.63L637.5,1363.85L625.28,1367.18L617.51,1369.41L609.74,1370.52L603.07,1371.63L594.19,1371.63L585.3,1372.74L573.08,1374.96L565.31,1376.07L558.65,1378.29L547.54,1380.51L539.77,1383.84L533.1,1386.07L524.22,1387.18L516.44,1388.29L509.78,1388.29L499.78,1387.18L492.01,1387.18L485.34,1386.07L462.02,1382.73L458.69,1381.62L455.36,1381.62L449.8,1381.62L444.25,1380.51L436.48,1380.51L434.26,1380.51L426.48,1381.62L422.04,1383.84L414.26,1384.95L409.82,1387.18L405.38,1388.29L400.94,1390.51L395.38,1392.73L388.72,1397.17L384.28,1399.39L380.95,1401.61L377.61,1404.95L373.17,1409.39L369.84,1412.72L365.4,1416.05L362.07,1419.38L357.62,1421.61L349.85,1424.94L344.3,1426.05L339.85,1428.27L334.3,1429.38L326.52,1430.49L322.08,1430.49L315.42,1430.49L309.87,1430.49L303.2,1430.49L293.21,1429.38L285.43,1428.27L277.66,1428.27L270.99,1427.16L257.67,1428.27L247.67,1429.38L238.79,1430.49L228.79,1432.71L218.79,1436.04L204.36,1439.38L194.36,1440.49L185.48,1442.71L176.59,1444.93L162.15,1448.26L152.16,1451.59L143.27,1453.81L134.39,1457.15L126.61,1460.48L118.84,1466.03L116.62,1468.25" fill="none" stroke="#000000" style="-webkit-tap-highlight-color: rgba(0, 0, 0, 0); stroke-linecap: round; stroke-linejoin: round; stroke-width: 7;" /><path d="M243.23,1103.97L243.23,1107.3L242.12,1111.74L239.9,1119.51L237.67,1128.4L235.45,1140.62L233.23,1155.05L232.12,1167.27L232.12,1180.6L232.12,1193.93L234.34,1217.25L235.45,1226.13L236.56,1236.13L236.56,1243.9L237.67,1248.35L237.67,1252.79L237.67,1258.34L237.67,1259.45" fill="none" stroke="#000000" style="-webkit-tap-highlight-color: rgba(0, 0, 0, 0); stroke-linecap: round; stroke-linejoin: round; stroke-width: 7;" /><path d="M38.87,1236.13L37.76,1237.24L41.09,1237.24L46.65,1236.13L54.42,1235.02L75.52,1233.91L88.85,1235.02L101.07,1236.13L113.28,1237.24L126.61,1238.35L137.72,1240.57L147.71,1243.9L154.38,1246.13L164.37,1251.68L171.04,1255.01L176.59,1255.01L184.36,1253.9L193.25,1251.68L204.36,1250.57" fill="none" stroke="#000000" style="-webkit-tap-highlight-color: rgba(0, 0, 0, 0); stroke-linecap: round; stroke-linejoin: round; stroke-width: 7;" /><path d="M246.56,1103.97L246.56,1100.63L248.78,1097.3L252.11,1093.97L256.56,1092.86L263.22,1090.64L269.88,1088.42L282.1,1082.86L288.76,1081.75L295.43,1082.86L300.98,1086.2L304.31,1089.53L305.42,1089.53L306.53,1090.64L308.75,1090.64L312.09,1089.53" fill="none" stroke="#000000" style="-webkit-tap-highlight-color: rgba(0, 0, 0, 0); stroke-linecap: round; stroke-linejoin: round; stroke-width: 7;" /><path d="M299.87,1096.19L304.31,1092.86L309.87,1089.53L315.42,1087.31L320.97,1085.08L333.19,1079.53L340.96,1077.31L349.85,1073.98L360.95,1071.76L369.84,1069.54L376.5,1068.43L383.17,1067.31L388.72,1068.43L393.16,1068.43L404.27,1070.65L408.71,1071.76L413.15,1075.09L417.6,1076.2L429.81,1079.53L445.36,1078.42" fill="none" stroke="#000000" style="-webkit-tap-highlight-color: rgba(0, 0, 0, 0); stroke-linecap: round; stroke-linejoin: round; stroke-width: 7;" /><path d="M571.97,1155.05L571.97,1156.16L573.08,1157.28L575.31,1160.61L577.53,1163.94L579.75,1168.38L580.86,1172.82L583.08,1177.27L586.41,1187.26L587.52,1190.59L587.52,1195.04L587.52,1198.37L587.52,1202.81L586.41,1206.14L585.3,1209.48L583.08,1213.92L583.08,1216.14L579.75,1219.47L577.53,1221.69L574.2,1227.25L570.86,1230.58L568.64,1232.8L565.31,1236.13L564.2,1238.35L561.98,1240.57L559.76,1242.79L558.65,1246.13L556.43,1249.46L553.09,1253.9L550.87,1256.12L548.65,1258.34L546.43,1261.67L544.21,1263.9L540.88,1267.23L538.66,1268.34L535.32,1272.78L534.21,1273.89L529.77,1278.33L527.55,1280.56L524.22,1282.78L519.77,1287.22L514.22,1290.55L508.67,1293.88L504.23,1297.21L498.67,1300.55L489.79,1303.88L485.34,1304.99L480.9,1307.21L477.57,1308.32L473.13,1309.43L469.8,1311.65L463.13,1312.76L459.8,1314.98L456.47,1316.1L452.03,1318.32L449.8,1320.54L448.69,1320.54L447.58,1321.65L445.36,1322.76L443.14,1323.87L438.7,1326.09L436.48,1327.2L433.15,1329.42L426.48,1333.87L422.04,1336.09L416.49,1338.31L412.04,1341.64L406.49,1342.75L393.16,1349.41L392.05,1350.52L389.83,1351.64L385.39,1354.97L379.84,1357.19L373.17,1360.52L368.73,1361.63L364.29,1362.74L358.73,1362.74L353.18,1362.74L344.3,1363.85L337.63,1364.96L330.97,1366.07L322.08,1367.18L315.42,1367.18L308.75,1368.3L302.09,1370.52L294.32,1372.74L284.32,1376.07L275.44,1378.29L268.77,1380.51L262.11,1382.73L251,1387.18L244.34,1389.4L238.79,1391.62L234.34,1393.84L229.9,1396.06L224.35,1399.39L216.57,1402.72L211.02,1404.95L204.36,1407.17L194.36,1409.39L185.48,1411.61L176.59,1412.72L165.48,1413.83L153.27,1414.94L136.61,1418.27L116.62,1424.94L99.96,1431.6L91.07,1434.93L71.08,1443.82L41.09,1460.48" fill="none" stroke="#000000" style="-webkit-tap-highlight-color: rgba(0, 0, 0, 0); stroke-linecap: round; stroke-linejoin: round; stroke-width: 7;" /><path d="M550.87,1118.4L550.87,1120.62L554.2,1122.85L557.54,1126.18L563.09,1131.73L568.64,1139.51L571.97,1142.84" fill="none" stroke="#000000" style="-webkit-tap-highlight-color: rgba(0, 0, 0, 0); stroke-linecap: round; stroke-linejoin: round; stroke-width: 7;" /><path d="M627.51,1185.04L624.17,1180.6L623.06,1178.38L621.95,1177.27L621.95,1176.16L620.84,1175.05L620.84,1173.93L621.95,1175.05L624.17,1179.49L625.28,1181.71L626.39,1183.93L626.39,1185.04L627.51,1185.04L633.06,1186.15L638.61,1187.26L644.16,1187.26L653.05,1186.15L660.82,1185.04L668.6,1182.82L678.59,1178.38L687.48,1175.05L696.36,1171.71L708.58,1168.38L715.25,1167.27L719.69,1165.05L721.91,1165.05L730.79,1162.83L734.13,1161.72L737.46,1161.72L738.57,1161.72L740.79,1161.72L741.9,1161.72L744.12,1161.72L747.45,1162.83L749.67,1162.83L753.01,1163.94L754.12,1163.94L755.23,1163.94" fill="none" stroke="#000000" style="-webkit-tap-highlight-color: rgba(0, 0, 0, 0); stroke-linecap: round; stroke-linejoin: round; stroke-width: 7;" /><path d="M619.73,1140.62L616.4,1140.62L615.29,1140.62L611.96,1143.95L605.29,1151.72L596.41,1160.61L591.97,1166.16L587.52,1171.71L587.52,1175.05L588.63,1177.27L593.08,1178.38L604.18,1178.38L611.96,1178.38" fill="none" stroke="#000000" style="-webkit-tap-highlight-color: rgba(0, 0, 0, 0); stroke-linecap: round; stroke-linejoin: round; stroke-width: 7;" /><path d="M225.46,482.01L225.46,483.12L225.46,484.23L225.46,486.46L224.35,493.12L224.35,498.67L223.24,504.23L223.24,510.89L223.24,522L224.35,529.77L225.46,536.43L226.57,540.88L227.68,543.1" fill="none" stroke="#000000" style="-webkit-tap-highlight-color: rgba(0, 0, 0, 0); stroke-linecap: round; stroke-linejoin: round; stroke-width: 7;" /><path d="M225.46,486.46L224.35,485.34L225.46,483.12L228.79,479.79L232.12,478.68L234.34,480.9L236.56,483.12L238.79,487.57L239.9,492.01L242.12,497.56L242.12,504.23L243.23,513.11L244.34,520.89L244.34,533.1L244.34,536.43L244.34,539.77" fill="none" stroke="#000000" style="-webkit-tap-highlight-color: rgba(0, 0, 0, 0); stroke-linecap: round; stroke-linejoin: round; stroke-width: 7;" /><path d="M225.46,547.54L228.79,545.32L233.23,541.99L241.01,538.66" fill="none" stroke="#000000" style="-webkit-tap-highlight-color: rgba(0, 0, 0, 0); stroke-linecap: round; stroke-linejoin: round; stroke-width: 7;" /><path d="M703.03,663.05L703.03,661.93L703.03,660.82L700.81,659.71L697.48,661.93L694.14,664.16L689.7,669.71L680.82,680.82L676.37,686.37L673.04,693.03L669.71,700.81L667.49,708.58L665.27,715.25L663.05,720.8L661.93,727.46L660.82,733.02L660.82,744.12L659.71,749.67L659.71,755.23L659.71,758.56L659.71,763L658.6,769.67L658.6,774.11L658.6,779.66L657.49,784.1L656.38,794.1L656.38,800.76L656.38,805.21L656.38,809.65L657.49,816.31L658.6,828.53L658.6,831.86L658.6,838.52L658.6,841.86L658.6,849.63" fill="none" stroke="#000000" style="-webkit-tap-highlight-color: rgba(0, 0, 0, 0); stroke-linecap: round; stroke-linejoin: round; stroke-width: 7;" /><path d="M706.36,673.04L707.47,673.04L709.69,673.04L713.02,673.04L716.36,671.93L720.8,670.82L725.24,670.82L730.79,669.71L737.46,671.93L740.79,674.15L744.12,676.37L746.34,678.59L748.56,679.7L751.9,681.93L755.23,684.15L756.34,687.48L757.45,690.81L758.56,698.59L758.56,703.03L759.67,707.47L760.78,711.91L760.78,716.36L760.78,721.91L761.89,726.35L763,730.79L763,734.13L765.22,743.01L766.33,755.23L767.44,759.67L767.44,764.11L768.56,767.44L769.67,770.78L769.67,774.11L769.67,780.77L769.67,784.1L769.67,786.33L769.67,789.66L769.67,792.99L770.78,796.32L770.78,800.76L771.89,802.98L771.89,804.1L773,809.65L774.11,812.98L775.22,815.2L775.22,818.53L776.33,820.75L776.33,822.98L776.33,825.2L776.33,826.31L777.44,828.53L778.55,834.08L779.66,838.52L779.66,840.75L780.77,842.97L780.77,846.3L780.77,848.52L780.77,850.74L779.66,852.96" fill="none" stroke="#000000" style="-webkit-tap-highlight-color: rgba(0, 0, 0, 0); stroke-linecap: round; stroke-linejoin: round; stroke-width: 7;" /><path d="M657.49,858.52L655.27,859.63L654.16,860.74L654.16,861.85L654.16,865.18L656.38,866.29L660.82,866.29L665.27,868.51L670.82,869.62L677.48,869.62L684.15,870.73L693.03,870.73L710.8,869.62L719.69,867.4L728.57,866.29L735.24,865.18L741.9,864.07L747.45,862.96L751.9,861.85L756.34,861.85L760.78,859.63L764.11,858.52L770.78,857.41L774.11,857.41L776.33,858.52L779.66,858.52L779.66,857.41L781.88,857.41L784.1,857.41L785.21,856.3" fill="none" stroke="#000000" style="-webkit-tap-highlight-color: rgba(0, 0, 0, 0); stroke-linecap: round; stroke-linejoin: round; stroke-width: 7;" /><path d="M687.48,650.83L686.37,649.72L684.15,649.72L683.04,649.72L679.7,650.83L676.37,654.16L670.82,660.82L667.49,665.27L664.16,670.82L660.82,676.37L657.49,681.93L654.16,689.7L653.05,697.48L650.83,707.47L645.28,726.35L643.05,736.35L639.72,746.34L637.5,754.12L636.39,764.11L636.39,777.44L636.39,789.66L637.5,800.76L638.61,809.65" fill="none" stroke="#000000" style="-webkit-tap-highlight-color: rgba(0, 0, 0, 0); stroke-linecap: round; stroke-linejoin: round; stroke-width: 7;" /><path d="M699.7,648.61L700.81,647.5L704.14,646.39L709.69,645.28L714.13,645.28L717.47,645.28L720.8,645.28L726.35,645.28L730.79,646.39L735.24,647.5L737.46,648.61L740.79,650.83L746.34,654.16L748.56,655.27L751.9,656.38L753.01,656.38L755.23,657.49L757.45,658.6L758.56,658.6L760.78,659.71L763,660.82L765.22,663.05L766.33,664.16L768.56,664.16L769.67,665.27L770.78,665.27L771.89,667.49L773,667.49L775.22,668.6L776.33,669.71L779.66,669.71L781.88,670.82L782.99,670.82L784.1,671.93L785.21,673.04L787.44,674.15L789.66,676.37L790.77,676.37L792.99,679.7L794.1,680.82L795.21,681.93L796.32,684.15L797.43,686.37L798.54,689.7L799.65,690.81L801.87,693.03L802.98,695.25L804.1,696.36L804.1,697.48L806.32,699.7L807.43,700.81L808.54,701.92L809.65,703.03L810.76,704.14L810.76,706.36L811.87,709.69L811.87,710.8L811.87,713.02L811.87,715.25L812.98,717.47L812.98,719.69L812.98,721.91L814.09,724.13L815.2,727.46L815.2,729.68L815.2,730.79L816.31,731.9L816.31,734.13L817.42,736.35L817.42,737.46L817.42,738.57L818.53,740.79L818.53,741.9L818.53,744.12L818.53,746.34L818.53,750.79L818.53,751.9L818.53,753.01L818.53,754.12L819.64,755.23L819.64,756.34" fill="none" stroke="#000000" style="-webkit-tap-highlight-color: rgba(0, 0, 0, 0); stroke-linecap: round; stroke-linejoin: round; stroke-width: 7;" /><path d="M825.2,754.12L825.2,756.34L826.31,758.56L826.31,761.89L826.31,767.44L826.31,771.89L827.42,777.44L827.42,778.55L828.53,788.55" fill="none" stroke="#000000" style="-webkit-tap-highlight-color: rgba(0, 0, 0, 0); stroke-linecap: round; stroke-linejoin: round; stroke-width: 7;" /><path d="M819.64,750.79L820.75,753.01L821.87,756.34L821.87,759.67L821.87,765.22L822.98,769.67L824.09,779.66L824.09,784.1L825.2,789.66L826.31,802.98L826.31,810.76L827.42,817.42L827.42,825.2L828.53,830.75L828.53,837.41L829.64,844.08L829.64,849.63L829.64,856.3L829.64,865.18L829.64,867.4L829.64,869.62" fill="none" stroke="#000000" style="-webkit-tap-highlight-color: rgba(0, 0, 0, 0); stroke-linecap: round; stroke-linejoin: round; stroke-width: 7;" /><path d="M827.42,854.07L827.42,856.3L827.42,860.74L827.42,868.51L827.42,876.29L827.42,884.06L827.42,892.95L827.42,900.72L827.42,906.27L828.53,916.27L828.53,918.49" fill="none" stroke="#000000" style="-webkit-tap-highlight-color: rgba(0, 0, 0, 0); stroke-linecap: round; stroke-linejoin: round; stroke-width: 7;" /><path d="M510.89,1020.67L503.11,1029.55L497.56,1034L493.12,1037.33L496.45,1035.11L503.11,1029.55L514.22,1019.56L530.88,1005.12L539.77,997.34L549.76,990.68L596.41,959.58L619.73,946.26L639.72,934.04L654.16,925.15" fill="none" stroke="#000000" style="-webkit-tap-highlight-color: rgba(0, 0, 0, 0); stroke-linecap: round; stroke-linejoin: round; stroke-width: 7;" /><path d="M678.59,931.82L677.48,931.82L676.37,932.93L678.59,931.82L686.37,931.82L695.25,929.6L707.47,926.26L720.8,925.15L735.24,924.04L748.56,924.04L767.44,924.04L792.99,921.82L807.43,922.93L821.87,924.04L835.19,926.26L848.52,928.49L862.96,930.71L877.4,934.04L894.06,936.26L918.49,938.48L950.7,939.59L968.47,940.7L986.24,941.81L1004.01,942.92L1021.78,942.92" fill="none" stroke="#000000" style="-webkit-tap-highlight-color: rgba(0, 0, 0, 0); stroke-linecap: round; stroke-linejoin: round; stroke-width: 7;" /></svg>