<?xml version="1.0" encoding="utf-8" ?>
<svg baseProfile="full" height="1603" version="1.1" width="1024" xmlns="http://www.w3.org/2000/svg" xmlns:ev="http://www.w3.org/2001/xml-events" xmlns:xlink="http://www.w3.org/1999/xlink"><defs /><path d="M575.12,583.31L575.12,584.47L576.29,585.64L576.29,586.81L575.12,589.15L572.79,590.32L568.11,595L564.6,598.5L561.1,602.01L557.59,604.35L555.25,607.85L551.74,612.53L549.41,616.04L547.07,619.54L540.05,626.56L540.05,627.73L534.21,634.74L531.87,638.25L529.53,640.58L528.37,642.92L526.03,647.6L524.86,653.44L522.52,658.12L521.35,661.63L520.18,666.3L519.01,669.81L517.84,672.15L516.68,676.82L515.51,679.16L514.34,683.84L513.17,686.17L513.17,688.51L513.17,689.68L512,693.19L510.83,702.54L509.66,708.38L508.49,713.06L508.49,717.74L508.49,722.41L508.49,725.92L508.49,737.61L508.49,739.95L508.49,744.62L508.49,748.13L508.49,749.3L509.66,752.8L508.49,760.99L508.49,762.16L508.49,764.49L509.66,775.01L509.66,777.35L509.66,779.69L509.66,780.86L509.66,784.37L509.66,787.87L509.66,790.21L509.66,791.38L509.66,793.72L510.83,799.56L510.83,801.9L510.83,804.24L510.83,807.74L510.83,811.25L512,815.93L512,817.1L512,819.43L513.17,824.11L513.17,825.28L514.34,826.45L514.34,827.62L514.34,831.12L515.51,832.29L515.51,833.46L515.51,834.63L516.68,836.97L517.84,836.97L519.01,838.14L521.35,838.14L522.52,839.31L522.52,840.47L523.69,840.47L524.86,842.81L524.86,843.98L524.86,847.49L524.86,849.83L524.86,855.67L524.86,856.84L526.03,860.35L526.03,863.85L526.03,868.53L526.03,870.87L526.03,874.37L526.03,881.39L526.03,882.56L526.03,883.73L527.2,886.06L527.2,888.4L528.37,890.74L528.37,891.91L528.37,895.42L528.37,900.09L529.53,902.43L529.53,907.11L530.7,910.61L530.7,914.12L531.87,919.96L531.87,923.47L533.04,925.81L533.04,929.32L533.04,932.82L533.04,935.16L533.04,937.5L533.04,939.84L534.21,943.34L534.21,946.85L534.21,949.19L534.21,952.69L534.21,955.03L534.21,958.54L534.21,964.38L533.04,966.72L533.04,969.06L533.04,971.4L533.04,974.9L533.04,976.07L533.04,978.41L533.04,980.75L533.04,983.09L533.04,986.59L533.04,987.76L533.04,990.1L533.04,993.61L531.87,998.28L531.87,1001.79L531.87,1006.47L530.7,1009.97L530.7,1014.65L529.53,1019.32L529.53,1022.83L529.53,1026.34L529.53,1028.68L528.37,1033.35L528.37,1036.86L528.37,1039.2L527.2,1042.7L527.2,1045.04L527.2,1053.22L526.03,1057.9L526.03,1062.58L524.86,1066.08L523.69,1080.11L522.52,1083.62L522.52,1085.95L522.52,1088.29L521.35,1095.31L521.35,1099.98L521.35,1105.83L522.52,1116.35L522.52,1118.68L522.52,1122.19" fill="none" stroke="#000000" style="-webkit-tap-highlight-color: rgba(0, 0, 0, 0); stroke-linecap: round; stroke-linejoin: round; stroke-width: 8;" /><path d="M527.2,586.81L527.2,587.98L526.03,590.32L526.03,591.49L523.69,595L520.18,603.18L516.68,607.85L513.17,614.87L508.49,620.71L504.99,627.73L501.48,634.74L488.62,655.78L486.28,662.79L485.11,666.3L483.95,672.15L481.61,675.65L480.44,680.33L478.1,686.17L475.76,690.85L474.59,689.68L473.42,696.69L472.26,704.88L469.92,708.38L467.58,713.06L466.41,716.57L466.41,718.9L465.24,721.24L464.07,723.58L462.9,724.75L462.9,727.09L462.9,728.26L461.74,730.59L461.74,735.27L461.74,738.78L461.74,742.28L461.74,748.13L462.9,753.97L464.07,756.31L464.07,762.16L464.07,768L464.07,769.17L464.07,770.34L464.07,772.68L464.07,775.01L464.07,777.35L464.07,778.52L464.07,780.86L462.9,782.03L462.9,787.87L462.9,790.21L464.07,792.55L464.07,794.89L465.24,797.22L465.24,799.56L466.41,805.41L467.58,813.59L467.58,815.93L467.58,818.26L467.58,820.6L467.58,824.11L466.41,825.28L466.41,827.62L466.41,829.95L465.24,832.29L465.24,834.63L464.07,838.14L464.07,840.47L462.9,845.15L462.9,846.32L461.74,847.49L461.74,848.66L461.74,849.83L460.57,851L460.57,852.16L460.57,853.33L459.4,855.67L457.06,859.18L457.06,861.52L455.89,863.85L455.89,866.19L454.72,867.36L454.72,869.7L454.72,872.04L454.72,875.54L454.72,879.05L453.55,881.39L453.55,883.73L453.55,887.23L453.55,891.91L452.38,895.42L453.55,898.92L453.55,902.43L453.55,908.27L454.72,911.78L454.72,915.29L454.72,917.63L454.72,922.3L455.89,926.98L455.89,930.48L454.72,935.16L454.72,937.5L454.72,943.34L454.72,946.85L454.72,951.53L453.55,955.03L453.55,962.05L453.55,966.72L452.38,971.4L452.38,976.07L451.21,979.58L451.21,984.26L451.21,987.76L450.05,992.44L450.05,993.61L450.05,1000.62L450.05,1007.63L450.05,1012.31L450.05,1016.99L450.05,1021.66L450.05,1025.17L450.05,1031.01L450.05,1034.52L450.05,1036.86L450.05,1039.2" fill="none" stroke="#000000" style="-webkit-tap-highlight-color: rgba(0, 0, 0, 0); stroke-linecap: round; stroke-linejoin: round; stroke-width: 8;" /><path d="M453.55,1013.48L452.38,1015.82L451.21,1016.99L450.05,1019.32L450.05,1022.83L448.88,1026.34L446.54,1043.87L446.54,1052.05L445.37,1063.74L445.37,1070.76L444.2,1076.6L444.2,1081.28L444.2,1085.95L444.2,1091.8L444.2,1102.32L444.2,1107L444.2,1111.67L444.2,1116.35L444.2,1118.68L444.2,1119.85L444.2,1121.02L444.2,1122.19L445.37,1123.36L445.37,1126.87L446.54,1128.04L446.54,1129.21L446.54,1130.37L448.88,1129.21L451.21,1128.04L454.72,1126.87L458.23,1128.04L465.24,1130.37L472.26,1131.54L480.44,1131.54L488.62,1133.88L496.8,1136.22L504.99,1137.39L510.83,1137.39L515.51,1138.56L520.18,1138.56L527.2,1137.39L530.7,1137.39L531.87,1137.39L533.04,1137.39L534.21,1137.39L535.38,1136.22L538.89,1135.05L542.39,1133.88L547.07,1131.54L557.59,1129.21L566.94,1124.53L579.8,1119.85L595,1114.01L603.18,1110.5L604.35,1110.5L606.68,1108.16" fill="none" stroke="#000000" style="-webkit-tap-highlight-color: rgba(0, 0, 0, 0); stroke-linecap: round; stroke-linejoin: round; stroke-width: 8;" /><path d="M606.68,1122.19L607.85,1121.02L610.19,1119.85L613.7,1118.68L619.54,1119.85L627.73,1121.02L638.25,1121.02L649.94,1122.19L660.46,1122.19L669.81,1123.36L680.33,1123.36L696.69,1122.19L706.05,1123.36L713.06,1124.53L717.74,1125.7L723.58,1126.87L727.09,1128.04L730.59,1129.21L734.1,1129.21" fill="none" stroke="#000000" style="-webkit-tap-highlight-color: rgba(0, 0, 0, 0); stroke-linecap: round; stroke-linejoin: round; stroke-width: 8;" /><path d="M728.26,946.85L724.75,944.51L724.75,946.85L724.75,952.69L725.92,965.55L725.92,973.74L725.92,983.09L725.92,991.27L727.09,999.45L729.42,1013.48L729.42,1024L730.59,1033.35L729.42,1048.55L728.26,1057.9L728.26,1064.91L729.42,1070.76L730.59,1077.77L731.76,1081.28L732.93,1091.8L734.1,1101.15L735.27,1110.5L735.27,1112.84L735.27,1123.36L735.27,1131.54L734.1,1138.56L732.93,1140.89L732.93,1143.23L731.76,1147.91L730.59,1151.42L730.59,1153.75L730.59,1158.43L730.59,1159.6L732.93,1164.27" fill="none" stroke="#000000" style="-webkit-tap-highlight-color: rgba(0, 0, 0, 0); stroke-linecap: round; stroke-linejoin: round; stroke-width: 8;" /><path d="M739.95,937.5L743.45,936.33L748.13,935.16L753.97,935.16L759.82,935.16L770.34,932.82L779.69,930.48L789.04,929.32L798.39,929.32L810.08,929.32L817.1,929.32L824.11,929.32L828.79,928.15L835.8,926.98L843.98,925.81L853.33,925.81L858.01,925.81L865.02,926.98L872.04,925.81L876.71,924.64L881.39,924.64L884.89,923.47L889.57,923.47L894.25,924.64L901.26,923.47L907.11,922.3L911.78,919.96L918.79,917.63L922.3,916.46L929.32,914.12L936.33,911.78L941,910.61L945.68,909.44L951.53,908.27L957.37,909.44L963.21,910.61L974.9,911.78L1004.13,908.27L1007.63,907.11L1011.14,907.11L1020.49,903.6" fill="none" stroke="#000000" style="-webkit-tap-highlight-color: rgba(0, 0, 0, 0); stroke-linecap: round; stroke-linejoin: round; stroke-width: 8;" /><path d="M848.66,943.34L848.66,942.17L848.66,941L847.49,939.84L846.32,939.84L843.98,939.84L841.64,939.84L838.14,942.17L835.8,945.68L834.63,951.53L829.95,962.05L828.79,969.06L826.45,974.9L825.28,983.09L824.11,990.1L824.11,998.28L821.77,1007.63L819.43,1016.99L818.26,1026.34L815.93,1035.69L814.76,1042.7L814.76,1049.72L813.59,1057.9L813.59,1067.25L811.25,1076.6L808.91,1099.98L808.91,1107L807.74,1112.84L807.74,1125.7L807.74,1133.88L806.58,1136.22L806.58,1140.89L806.58,1146.74L806.58,1153.75L807.74,1161.94L807.74,1163.11L807.74,1168.95L808.91,1168.95" fill="none" stroke="#000000" style="-webkit-tap-highlight-color: rgba(0, 0, 0, 0); stroke-linecap: round; stroke-linejoin: round; stroke-width: 8;" /><path d="M845.15,936.33L845.15,939.84L847.49,945.68L849.83,952.69L852.16,958.54L854.5,964.38L856.84,973.74L858.01,979.58L859.18,983.09L860.35,983.09L861.52,983.09L862.68,983.09L863.85,983.09L866.19,983.09L870.87,983.09L879.05,981.92L889.57,983.09L894.25,983.09L907.11,984.26L918.79,984.26L938.67,984.26L951.53,984.26L981.92,983.09L987.76,983.09L1006.47,981.92L1016.99,980.75" fill="none" stroke="#000000" style="-webkit-tap-highlight-color: rgba(0, 0, 0, 0); stroke-linecap: round; stroke-linejoin: round; stroke-width: 8;" /><path d="M981.92,991.27L980.75,990.1L979.58,990.1L979.58,991.27L979.58,992.44L979.58,997.11L980.75,1000.62L981.92,1014.65L983.09,1021.66L983.09,1026.34L981.92,1031.01L979.58,1039.2L976.07,1045.04L973.74,1050.89L970.23,1063.74L970.23,1067.25L970.23,1070.76L970.23,1075.43L970.23,1078.94L970.23,1081.28L970.23,1083.62L970.23,1087.12L969.06,1095.31L967.89,1102.32L966.72,1109.33L964.38,1114.01L963.21,1116.35L962.05,1121.02L960.88,1123.36L959.71,1125.7L958.54,1126.87L957.37,1132.71L957.37,1136.22L956.2,1136.22L956.2,1137.39L956.2,1139.73L956.2,1143.23L956.2,1144.4L956.2,1147.91L956.2,1153.75L955.03,1160.77L955.03,1166.61L953.86,1171.29L953.86,1177.13L953.86,1180.64L953.86,1184.15L953.86,1186.48L953.86,1187.65L953.86,1188.82" fill="none" stroke="#000000" style="-webkit-tap-highlight-color: rgba(0, 0, 0, 0); stroke-linecap: round; stroke-linejoin: round; stroke-width: 8;" /><path d="M873.21,988.93L873.21,990.1L873.21,991.27L873.21,999.45L873.21,1004.13L873.21,1015.82L872.04,1033.35L870.87,1047.38L869.7,1063.74L869.7,1076.6L868.53,1089.46L867.36,1101.15L866.19,1119.85L865.02,1130.37L865.02,1138.56L865.02,1150.25L865.02,1163.11L863.85,1178.3L863.85,1182.98" fill="none" stroke="#000000" style="-webkit-tap-highlight-color: rgba(0, 0, 0, 0); stroke-linecap: round; stroke-linejoin: round; stroke-width: 8;" /><path d="M724.75,1170.12L725.92,1167.78L725.92,1166.61L728.26,1164.27L729.42,1164.27L732.93,1164.27L736.44,1164.27L746.96,1164.27L752.8,1163.11L762.16,1160.77L775.01,1161.94L777.35,1161.94L789.04,1167.78L796.05,1171.29L803.07,1175.96L812.42,1180.64L819.43,1181.81L825.28,1184.15L831.12,1186.48L838.14,1188.82L843.98,1191.16L855.67,1194.67L862.68,1195.84L872.04,1198.17L879.05,1200.51L889.57,1200.51L902.43,1200.51L910.61,1200.51L918.79,1200.51L926.98,1200.51L933.99,1201.68L941,1202.85L950.36,1205.19L957.37,1206.36L963.21,1205.19L966.72,1204.02L981.92,1202.85L987.76,1204.02L993.61,1207.53L998.28,1208.69L1005.3,1209.86L1011.14,1209.86L1019.32,1209.86" fill="none" stroke="#000000" style="-webkit-tap-highlight-color: rgba(0, 0, 0, 0); stroke-linecap: round; stroke-linejoin: round; stroke-width: 8;" /><path d="M744.62,160.15L743.45,158.98L743.45,161.32L745.79,174.17L746.96,185.86L746.96,199.89L745.79,216.26L746.96,233.79L748.13,250.16L749.3,264.18L750.47,275.87L751.63,285.22L752.8,294.58L752.8,315.62L752.8,324.97L753.97,335.49L755.14,342.5L756.31,355.36L756.31,367.05L757.48,375.23L758.65,388.09L759.82,396.27L760.99,410.3L763.32,425.5L764.49,434.85L765.66,440.69L766.83,452.38L770.34,469.92L770.34,480.44L771.51,488.62L771.51,497.97L772.68,508.49L773.84,529.53L775.01,540.05L776.18,557.59L776.18,570.45L776.18,573.95L776.18,580.97L777.35,595L776.18,603.18L776.18,609.02L775.01,613.7L775.01,619.54L776.18,625.39L777.35,632.4L777.35,637.08L777.35,641.75L777.35,651.11L777.35,658.12L776.18,663.96L776.18,668.64L776.18,670.98L776.18,675.65L776.18,681.5L775.01,685L775.01,690.85L775.01,696.69L775.01,709.55L775.01,715.4L775.01,722.41L775.01,728.26L775.01,734.1L775.01,738.78L775.01,744.62L776.18,752.8L777.35,755.14L777.35,769.17L777.35,775.01L778.52,779.69L778.52,785.53L779.69,791.38L780.86,794.89L782.03,798.39L782.03,803.07L782.03,807.74L784.37,814.76L786.7,821.77L787.87,825.28L789.04,828.79L789.04,833.46L790.21,836.97L790.21,842.81L790.21,846.32L790.21,852.16L790.21,858.01L789.04,860.35L789.04,862.68L789.04,866.19L789.04,869.7L787.87,872.04L786.7,874.37L786.7,875.54L785.53,877.88L784.37,879.05L783.2,881.39L783.2,882.56L782.03,886.06L780.86,887.23L779.69,889.57L778.52,893.08L778.52,896.58L777.35,902.43L776.18,910.61L775.01,912.95L773.84,916.46L772.68,918.79L771.51,921.13L770.34,922.3L766.83,925.81L764.49,928.15L760.99,930.48L758.65,931.65L756.31,932.82L753.97,935.16L750.47,933.99L749.3,933.99L746.96,932.82L742.28,932.82L739.95,928.15" fill="none" stroke="#000000" style="-webkit-tap-highlight-color: rgba(0, 0, 0, 0); stroke-linecap: round; stroke-linejoin: round; stroke-width: 8;" /><path d="M773.84,867.36L775.01,867.36L778.52,865.02L784.37,862.68L787.87,861.52L791.38,860.35L793.72,859.18L797.22,856.84L798.39,856.84" fill="none" stroke="#000000" style="-webkit-tap-highlight-color: rgba(0, 0, 0, 0); stroke-linecap: round; stroke-linejoin: round; stroke-width: 8;" /><path d="M771.51,873.21L770.34,875.54L770.34,879.05L771.51,886.06L773.84,890.74L775.01,896.58L776.18,903.6L777.35,909.44L777.35,912.95L777.35,914.12" fill="none" stroke="#000000" style="-webkit-tap-highlight-color: rgba(0, 0, 0, 0); stroke-linecap: round; stroke-linejoin: round; stroke-width: 8;" /><path d="M762.16,150.79L764.49,149.63L770.34,144.95L777.35,142.61L785.53,139.11L797.22,135.6L818.26,127.42L829.95,120.4L843.98,112.22L858.01,104.04L879.05,91.18L893.08,84.16L904.77,78.32L914.12,73.64L923.47,68.97L933.99,66.63L951.53,60.79L956.2,60.79L965.55,58.45L976.07,57.28L994.78,52.6L1002.96,50.26L1013.48,46.76L1022.83,42.08" fill="none" stroke="#000000" style="-webkit-tap-highlight-color: rgba(0, 0, 0, 0); stroke-linecap: round; stroke-linejoin: round; stroke-width: 8;" /><path d="M472.26,303.93L472.26,302.76L473.42,300.42L476.93,299.25L480.44,298.08L483.95,299.25L488.62,300.42L500.31,301.59L513.17,299.25L527.2,296.91L541.22,295.74L554.08,293.41L568.11,293.41L583.31,291.07L597.33,288.73L611.36,289.9L631.23,294.58L638.25,298.08L646.43,300.42L654.61,302.76L661.63,305.1L669.81,303.93L680.33,305.1L687.34,306.26L690.85,307.43L697.86,308.6L709.55,309.77L715.4,310.94L721.24,312.11L727.09,312.11L732.93,313.28L737.61,314.45L742.28,313.28L744.62,313.28L745.79,313.28" fill="none" stroke="#000000" style="-webkit-tap-highlight-color: rgba(0, 0, 0, 0); stroke-linecap: round; stroke-linejoin: round; stroke-width: 8;" /><path d="M361.21,8.18L362.37,8.18L364.71,10.52L365.88,14.03L369.39,24.55L371.73,32.73L374.06,39.74L377.57,49.1L381.08,61.95L385.75,73.64L389.26,83L391.6,93.52L395.11,104.04L398.61,112.22L403.29,120.4L406.79,126.25L410.3,133.26L414.98,139.11L421.99,153.13L424.33,158.98L425.5,161.32L429,170.67L430.17,175.34L433.68,183.53L434.85,188.2L434.85,194.05L437.19,198.72L439.53,211.58L443.03,222.1L444.2,225.61L445.37,231.45L448.88,238.47L450.05,244.31L452.38,247.82L453.55,253.66L455.89,260.68L457.06,265.35L458.23,270.03L458.23,273.53L459.4,277.04L460.57,281.72L461.74,285.22L462.9,287.56L464.07,289.9L466.41,293.41L467.58,296.91L468.75,299.25L469.92,301.59L469.92,303.93L471.09,305.1L471.09,307.43L469.92,309.77L469.92,312.11L467.58,315.62L466.41,316.79L465.24,319.12L465.24,320.29" fill="none" stroke="#000000" style="-webkit-tap-highlight-color: rgba(0, 0, 0, 0); stroke-linecap: round; stroke-linejoin: round; stroke-width: 8;" /><path d="M473.42,314.45L474.59,317.95L474.59,323.8L474.59,326.14L476.93,334.32L476.93,342.5L476.93,357.7L475.76,368.22L473.42,376.4L472.26,384.58L469.92,392.77L467.58,402.12L466.41,410.3L466.41,413.81L466.41,419.65L466.41,432.51L465.24,437.19L465.24,448.88L465.24,451.21L464.07,464.07L464.07,471.09L462.9,481.61L461.74,485.11L461.74,489.79L461.74,496.8L460.57,507.32L460.57,513.17L460.57,515.51L459.4,523.69L458.23,531.87L458.23,535.38L458.23,541.22L457.06,543.56L457.06,545.9L457.06,555.25L455.89,568.11L455.89,575.12L455.89,582.14L454.72,590.32L454.72,595L454.72,600.84L454.72,605.52L454.72,611.36L455.89,619.54L455.89,624.22L455.89,627.73L455.89,632.4L455.89,637.08L457.06,640.58L457.06,646.43L457.06,652.27L457.06,655.78L457.06,662.79L457.06,666.3L457.06,670.98L457.06,680.33L457.06,682.67L458.23,687.34L458.23,692.02L458.23,699.03L458.23,706.05L459.4,715.4L459.4,722.41L459.4,728.26L460.57,736.44L461.74,745.79" fill="none" stroke="#000000" style="-webkit-tap-highlight-color: rgba(0, 0, 0, 0); stroke-linecap: round; stroke-linejoin: round; stroke-width: 8;" /><path d="M519.01,599.67L519.01,598.5L521.35,595L522.52,592.66L526.03,587.98L527.2,585.64L528.37,584.47L533.04,582.14L535.38,580.97L538.89,577.46L544.73,573.95L550.58,571.62L561.1,565.77L566.94,563.43L575.12,561.1L583.31,557.59L595,551.74L602.01,549.41L607.85,548.24L610.19,548.24L616.04,548.24L630.06,545.9L634.74,545.9L639.42,545.9L642.92,545.9L648.77,547.07L652.27,548.24L655.78,549.41L659.29,549.41L661.63,549.41L666.3,550.58L668.64,550.58L670.98,551.74L672.15,552.91L675.65,554.08L680.33,554.08L682.67,555.25L683.84,556.42L688.51,558.76L690.85,561.1L694.36,562.26L697.86,563.43L700.2,564.6L702.54,565.77L704.88,566.94L707.21,568.11L709.55,568.11L713.06,569.28L715.4,570.45L717.74,571.62L721.24,572.79L724.75,575.12L725.92,576.29L728.26,577.46L730.59,577.46L734.1,579.8L736.44,580.97L739.95,582.14L742.28,583.31L744.62,583.31L750.47,585.64L752.8,587.98L756.31,589.15L758.65,591.49L759.82,592.66L764.49,595L766.83,597.33L768,597.33L770.34,599.67L772.68,602.01L773.84,603.18L775.01,605.52L776.18,606.68L778.52,609.02L779.69,611.36L779.69,613.7L780.86,614.87L780.86,616.04L782.03,619.54" fill="none" stroke="#000000" style="-webkit-tap-highlight-color: rgba(0, 0, 0, 0); stroke-linecap: round; stroke-linejoin: round; stroke-width: 8;" /><path d="M563.43,602.01L568.11,598.5L571.62,596.16L572.79,595L576.29,595L578.63,593.83L585.64,591.49L591.49,589.15L597.33,589.15L604.35,586.81L612.53,585.64L618.37,584.47L623.05,583.31L628.89,582.14L633.57,582.14L638.25,580.97L642.92,580.97L647.6,580.97L651.11,580.97L654.61,582.14L661.63,583.31L665.13,583.31L669.81,583.31L674.48,584.47L677.99,584.47L681.5,584.47L686.17,584.47L689.68,584.47L693.19,585.64L700.2,586.81L703.71,589.15L706.05,590.32L709.55,592.66L714.23,593.83L715.4,593.83L718.9,596.16L722.41,597.33L725.92,598.5L730.59,603.18L731.76,605.52L734.1,606.68L735.27,607.85L736.44,610.19L738.78,613.7L741.11,616.04L743.45,618.37L748.13,621.88L751.63,624.22L753.97,625.39L756.31,627.73L757.48,627.73L759.82,628.89L760.99,630.06L763.32,630.06L764.49,631.23L765.66,632.4L769.17,634.74L771.51,635.91L772.68,637.08L773.84,637.08L776.18,639.42L776.18,640.58L777.35,641.75L778.52,642.92L779.69,644.09L780.86,645.26" fill="none" stroke="#000000" style="-webkit-tap-highlight-color: rgba(0, 0, 0, 0); stroke-linecap: round; stroke-linejoin: round; stroke-width: 8;" /><path d="M501.48,729.42L501.48,730.59L501.48,731.76L501.48,732.93L502.65,731.76L504.99,725.92L508.49,721.24L510.83,716.57L512,713.06L515.51,706.05L519.01,702.54L521.35,699.03L523.69,694.36L526.03,690.85L528.37,686.17L530.7,685L536.55,680.33L538.89,679.16L542.39,675.65L544.73,672.15L547.07,669.81L549.41,666.3L551.74,662.79L555.25,658.12L558.76,655.78L561.1,653.44L564.6,651.11L569.28,647.6L572.79,644.09L576.29,645.26L579.8,641.75L585.64,638.25L592.66,635.91L598.5,633.57L603.18,631.23L607.85,628.89L611.36,627.73L619.54,624.22L624.22,623.05L628.89,620.71L633.57,618.37L642.92,614.87L645.26,614.87L649.94,612.53L653.44,611.36L659.29,610.19L662.79,609.02L667.47,609.02L672.15,607.85L675.65,607.85L681.5,609.02L686.17,610.19L690.85,610.19L694.36,611.36L700.2,612.53L702.54,613.7L704.88,616.04L707.21,617.21L710.72,618.37L715.4,620.71L717.74,623.05L720.07,624.22L723.58,626.56L728.26,628.89L730.59,631.23L734.1,632.4L736.44,633.57L738.78,634.74L743.45,637.08L745.79,638.25L746.96,639.42L749.3,641.75L753.97,644.09L756.31,645.26L758.65,646.43L760.99,647.6L763.32,649.94L765.66,653.44L768,656.95L770.34,659.29L771.51,660.46L773.84,663.96L775.01,666.3L775.01,667.47" fill="none" stroke="#000000" style="-webkit-tap-highlight-color: rgba(0, 0, 0, 0); stroke-linecap: round; stroke-linejoin: round; stroke-width: 8;" /><path d="M576.29,654.61L577.46,656.95L578.63,660.46L580.97,662.79L583.31,665.13L585.64,669.81L587.98,674.48L589.15,679.16L589.15,682.67L587.98,688.51L586.81,692.02L585.64,696.69L584.47,701.37L583.31,706.05L582.14,709.55L580.97,710.72L578.63,714.23L578.63,715.4L575.12,723.58L573.95,729.42L573.95,734.1L572.79,735.27L572.79,737.61L572.79,741.11L572.79,742.28L572.79,745.79L572.79,749.3L572.79,751.63L573.95,755.14L573.95,758.65L573.95,762.16L575.12,764.49L573.95,773.84L575.12,777.35L575.12,776.18L575.12,778.52L576.29,782.03L576.29,784.37L575.12,789.04L575.12,791.38L576.29,794.89L576.29,800.73L576.29,805.41L576.29,812.42L576.29,813.59L576.29,818.26L576.29,820.6L576.29,822.94L576.29,825.28L576.29,827.62L576.29,829.95L575.12,829.95L575.12,831.12L575.12,832.29L573.95,833.46L573.95,834.63L573.95,836.97L575.12,839.31L575.12,840.47L576.29,841.64L576.29,842.81L577.46,842.81L578.63,843.98L579.8,843.98L582.14,845.15L584.47,845.15L585.64,846.32L585.64,847.49L587.98,851L587.98,853.33L587.98,855.67L589.15,858.01L589.15,860.35L590.32,863.85L590.32,866.19L591.49,867.36L591.49,870.87L591.49,873.21L591.49,875.54L591.49,876.71L591.49,879.05L590.32,881.39L590.32,882.56L589.15,884.89L587.98,887.23L587.98,890.74L586.81,896.58L586.81,901.26L585.64,904.77L585.64,908.27L585.64,910.61L585.64,911.78L586.81,914.12L586.81,915.29L586.81,916.46L587.98,917.63L589.15,917.63L590.32,917.63L592.66,917.63L593.83,918.79L596.16,918.79L597.33,918.79L599.67,918.79L600.84,919.96L602.01,922.3L602.01,924.64L602.01,928.15L603.18,932.82L603.18,935.16L603.18,937.5L603.18,939.84L603.18,945.68L603.18,949.19L604.35,953.86L604.35,958.54L604.35,964.38L604.35,969.06L604.35,972.57L604.35,976.07L604.35,980.75L603.18,984.26L603.18,990.1L602.01,993.61L602.01,998.28L602.01,1002.96L602.01,1007.63L603.18,1012.31L603.18,1015.82L603.18,1020.49L604.35,1029.84L604.35,1031.01L604.35,1034.52L605.52,1035.69L605.52,1038.03L605.52,1042.7L605.52,1046.21L606.68,1048.55L606.68,1052.05L607.85,1055.56L607.85,1061.41L607.85,1064.91L609.02,1067.25L610.19,1070.76L610.19,1073.1L612.53,1078.94L612.53,1083.62L612.53,1087.12L612.53,1090.63L612.53,1096.47L612.53,1099.98L612.53,1104.66L612.53,1108.16L611.36,1111.67L610.19,1115.18L610.19,1117.52L609.02,1118.68L607.85,1121.02L606.68,1119.85L604.35,1117.52" fill="none" stroke="#000000" style="-webkit-tap-highlight-color: rgba(0, 0, 0, 0); stroke-linecap: round; stroke-linejoin: round; stroke-width: 8;" /><path d="M571.62,711.89L570.45,715.4L569.28,718.9L568.11,727.09L566.94,735.27L566.94,744.62L565.77,753.97L564.6,769.17L563.43,778.52L563.43,786.7L562.26,797.22L562.26,808.91L561.1,817.1L561.1,825.28L559.93,831.12L559.93,836.97L559.93,848.66L559.93,859.18L559.93,868.53L559.93,873.21L558.76,881.39L557.59,887.23L556.42,890.74L555.25,900.09L555.25,907.11L554.08,918.79L552.91,926.98L551.74,932.82L550.58,938.67L549.41,946.85L549.41,952.69L549.41,957.37L549.41,960.88L550.58,965.55L550.58,970.23L551.74,973.74L551.74,977.24L551.74,980.75L551.74,986.59L551.74,991.27L552.91,995.95L552.91,1001.79L552.91,1005.3L552.91,1014.65L552.91,1019.32L552.91,1022.83L552.91,1027.51L551.74,1032.18L551.74,1035.69L551.74,1039.2L550.58,1042.7L549.41,1047.38L548.24,1053.22L548.24,1059.07L547.07,1063.74L545.9,1068.42L544.73,1074.26L543.56,1077.77L542.39,1081.28L541.22,1085.95L541.22,1090.63L541.22,1096.47L541.22,1104.66L541.22,1109.33L542.39,1111.67L542.39,1112.84L543.56,1122.19L543.56,1125.7L543.56,1128.04L544.73,1129.21" fill="none" stroke="#000000" style="-webkit-tap-highlight-color: rgba(0, 0, 0, 0); stroke-linecap: round; stroke-linejoin: round; stroke-width: 8;" /><path d="M596.16,921.13L596.16,923.47L596.16,926.98L595,930.48L593.83,938.67L592.66,946.85L591.49,963.21L590.32,972.57L590.32,980.75L589.15,987.76L589.15,997.11L589.15,1002.96L587.98,1009.97L587.98,1015.82L586.81,1024L586.81,1028.68L586.81,1032.18L586.81,1036.86L587.98,1041.53L587.98,1047.38L587.98,1054.39L587.98,1060.24L587.98,1064.91L587.98,1070.76L586.81,1077.77L586.81,1082.45L585.64,1087.12L585.64,1092.97L584.47,1097.64L584.47,1107L585.64,1114.01L585.64,1118.68L585.64,1123.36L586.81,1126.87L587.98,1125.7" fill="none" stroke="#000000" style="-webkit-tap-highlight-color: rgba(0, 0, 0, 0); stroke-linecap: round; stroke-linejoin: round; stroke-width: 8;" /><path d="M348.35,16.37L347.18,16.37L346.01,25.72L342.5,39.74L340.16,54.94L336.66,68.97L334.32,83L333.15,98.19L333.15,114.56L331.98,129.75L329.64,144.95L327.31,161.32L321.46,191.71L319.12,206.9L317.95,220.93L316.79,232.62L315.62,240.8L315.62,257.17L315.62,268.86L315.62,278.21L314.45,289.9L314.45,313.28L313.28,320.29L313.28,330.81L312.11,340.16L310.94,350.68L310.94,361.21L310.94,372.89L310.94,381.08L310.94,396.27L310.94,407.96L310.94,420.82L309.77,430.17L309.77,437.19L309.77,447.71L308.6,461.74L307.43,471.09L306.26,480.44L305.1,489.79L302.76,502.65L299.25,521.35L298.08,529.53L298.08,536.55L298.08,544.73L298.08,552.91L298.08,561.1L299.25,568.11L299.25,575.12L299.25,589.15L299.25,597.33L299.25,605.52L299.25,613.7L298.08,618.37L298.08,624.22L298.08,628.89L296.91,632.4L296.91,635.91L295.74,638.25L294.58,640.58L293.41,641.75L292.24,642.92L289.9,644.09L287.56,644.09" fill="none" stroke="#000000" style="-webkit-tap-highlight-color: rgba(0, 0, 0, 0); stroke-linecap: round; stroke-linejoin: round; stroke-width: 8;" /><path d="M267.69,634.74L267.69,635.91L265.35,635.91L264.18,638.25L261.84,639.42L259.51,641.75L256,644.09L247.82,653.44L241.97,659.29L237.3,667.47L233.79,674.48L230.28,680.33L225.61,686.17L223.27,689.68L222.1,692.02L218.59,700.2L218.59,704.88L218.59,711.89L218.59,717.74L217.42,721.24L215.09,725.92L212.75,725.92L210.41,729.42L206.9,730.59L204.57,732.93L202.23,734.1L199.89,736.44L197.55,738.78L195.21,742.28L192.88,746.96L190.54,749.3L188.2,751.63L182.36,756.31L177.68,758.65L173,760.99L169.5,763.32L164.82,765.66L160.15,768L153.13,775.01L148.46,778.52L143.78,782.03L141.44,784.37L137.94,787.87L135.6,791.38L134.43,794.89L133.26,799.56L132.09,804.24L130.92,808.91L129.75,810.08L128.58,811.25L126.25,813.59L120.4,815.93L116.89,817.1L113.39,820.6L111.05,822.94L107.54,825.28L102.87,828.79L98.19,832.29L94.68,834.63L91.18,836.97L86.5,839.31L80.66,840.47L75.98,841.64L67.8,842.81L60.79,842.81L51.43,841.64L42.08,841.64L33.9,840.47L25.72,841.64L12.86,841.64L5.84,840.47L4.68,839.31" fill="none" stroke="#000000" style="-webkit-tap-highlight-color: rgba(0, 0, 0, 0); stroke-linecap: round; stroke-linejoin: round; stroke-width: 8;" /><path d="M291.07,647.6L292.24,652.27L292.24,659.29L292.24,667.47L293.41,673.32L294.58,679.16L298.08,683.84L301.59,687.34L303.93,690.85L307.43,694.36L310.94,699.03L315.62,701.37L319.12,704.88L323.8,707.21L330.81,714.23L333.15,717.74L334.32,721.24L336.66,723.58L340.16,727.09L343.67,728.26L347.18,728.26L351.85,731.76L355.36,735.27L357.7,739.95L361.21,746.96L363.54,748.13L365.88,749.3L368.22,751.63L370.56,755.14L371.73,759.82L372.89,763.32L372.89,766.83L374.06,770.34L375.23,779.69L375.23,782.03L375.23,786.7L376.4,790.21L377.57,794.89L377.57,798.39L378.74,799.56L378.74,800.73L381.08,805.41L382.25,811.25L383.42,813.59L384.58,815.93L384.58,818.26L384.58,821.77L384.58,822.94L384.58,826.45L384.58,828.79L384.58,831.12L384.58,836.97L385.75,839.31" fill="none" stroke="#000000" style="-webkit-tap-highlight-color: rgba(0, 0, 0, 0); stroke-linecap: round; stroke-linejoin: round; stroke-width: 8;" /><path d="M820.6,1000.62" fill="none" stroke="#000000" style="-webkit-tap-highlight-color: rgba(0, 0, 0, 0); stroke-linecap: round; stroke-linejoin: round; stroke-width: 8;" /><path d="M39.74,939.84L37.41,939.84L36.24,938.67L33.9,937.5L31.56,936.33L26.89,935.16L24.55,935.16L22.21,936.33L21.04,937.5L21.04,939.84L26.89,939.84L32.73,939.84L40.91,937.5L49.1,937.5L65.46,935.16L78.32,933.99L93.52,931.65L108.71,930.48L123.91,930.48L144.95,930.48L157.81,930.48L168.33,931.65L182.36,933.99L190.54,936.33L198.72,937.5L206.9,939.84L213.92,939.84L220.93,939.84L229.11,937.5L232.62,937.5L240.8,939.84L244.31,941L261.84,942.17L270.03,941L278.21,939.84L285.22,938.67L291.07,938.67L301.59,939.84L303.93,939.84L310.94,943.34L316.79,944.51" fill="none" stroke="#000000" style="-webkit-tap-highlight-color: rgba(0, 0, 0, 0); stroke-linecap: round; stroke-linejoin: round; stroke-width: 8;" /><path d="M38.58,1140.89L33.9,1140.89L30.39,1139.73L26.89,1139.73L24.55,1138.56L24.55,1137.39L25.72,1133.88L25.72,1132.71L25.72,1131.54L35.07,1132.71L37.41,1133.88L44.42,1136.22L52.6,1138.56L65.46,1142.06L73.64,1145.57L81.83,1147.91L88.84,1151.42L100.53,1153.75L104.04,1154.92L109.88,1158.43L116.89,1164.27L123.91,1171.29L128.58,1174.79L132.09,1175.96L136.77,1178.3L141.44,1179.47L148.46,1181.81L154.3,1182.98L160.15,1182.98L165.99,1181.81L175.34,1179.47L182.36,1177.13L190.54,1174.79L198.72,1172.46L206.9,1170.12L216.26,1166.61L224.44,1164.27L232.62,1160.77L239.63,1158.43L256,1153.75L264.18,1152.58L270.03,1151.42L275.87,1149.08L280.55,1147.91L286.39,1146.74L292.24,1145.57L298.08,1145.57L302.76,1144.4L307.43,1144.4L317.95,1143.23L323.8,1144.4L329.64,1145.57L336.66,1145.57L342.5,1144.4L348.35,1144.4L354.19,1144.4L360.04,1146.74L365.88,1147.91L377.57,1152.58L382.25,1153.75L386.92,1154.92L393.94,1156.09L399.78,1157.26L406.79,1157.26L412.64,1157.26L424.33,1153.75L429,1150.25L434.85,1146.74L441.86,1143.23L448.88,1140.89L457.06,1137.39L462.9,1132.71" fill="none" stroke="#000000" style="-webkit-tap-highlight-color: rgba(0, 0, 0, 0); stroke-linecap: round; stroke-linejoin: round; stroke-width: 8;" /></svg>