<?xml version="1.0" encoding="utf-8" ?>
<svg baseProfile="full" height="1415" version="1.1" width="1024" xmlns="http://www.w3.org/2000/svg" xmlns:ev="http://www.w3.org/2001/xml-events" xmlns:xlink="http://www.w3.org/1999/xlink"><defs /><path d="M314.69,409.6L315,408L315,408L315,408L316,404L315,400L316,403L317,396L317,396L321,389L323,386L325,383L328,380L329,379L331,377L332,375L332,375L332,375L334,370L334,370L336,366L335,368L336,366L340,360L344,356L344,356L344,356L344,356L347,349L349,346L355,340L355,340L355,340L355,340L355,340L361,332L361,332L361,332L361,332L363,328L367,323L368,322L368,322L370,315L372,312L372,312L373,309L376,303L379,298L376,303L379,298L387,292L387,292L387,292L387,292L392,285L393,284L394,283L394,283L398,275L394,283L398,275L398,275L403,267L403,267L409,258L406,261L411,255L414,251L419,245L419,245L425,237L431,230L425,237L431,230L435,224L437,221L443,213L443,213L443,213L448,204L450,203L450,203L456,197L452,201L457,196L458,194L462,190L463,189L463,189L467,184L470,180L468,183L473,177L473,178L482,161L473,176L482,161L483,160L483,160L483,159L495,144L497,144L499,143L508,135L502,141L509,134L509,134L517,122L517,122L520,118L524,112" fill="none" stroke="#000000" style="-webkit-tap-highlight-color: rgba(0, 0, 0, 0); stroke-linecap: round; stroke-linejoin: round; stroke-width: 7;" /><path d="M529,106L532,102L525,111L536,98L536,97L542,89L542,89L549,80L551,79L557,78L557,78L562,76L564,74L564,72L564,71L579,63L578,67L578,67L579,63L579,60L580,58L580,58L581,55L582,52L594.42,79.92L594,73L595,74L590,72L594,73L595,74L596,75L596,75L599,77L603,88L603,90L606,89L618,100L618,102L617,107L617,107L618,110L622,112L626,119L624,117L629,122L632,125L634,130L637,135L638,141L641,142L643,144L646,150L649,150L653,156L652,161L654,164L657,167L659,171L664,182L662,177L669,187L671,192L681,206L676,197L684,210L687,212L694,217L692,215L696,223L701,222L703,230L702,229L704,231L700,227L705,234L713,241L718,242L708,238L722,245L724,247L729,258L729,248L737,261L744,272L742,270L749,272L764,281L753,272L757,299L774,297" fill="none" stroke="#000000" style="-webkit-tap-highlight-color: rgba(0, 0, 0, 0); stroke-linecap: round; stroke-linejoin: round; stroke-width: 7;" /><path d="M774,297L770,309L772,311L774,315L772,319L781,335L778,332L777,328L786,345L786,347L784,339L788,350L794,360L789,352L792,357L791,355L795,360L795,360L794,360L802,374L805,366L801,360L799,360L799,360L804,360L806,367L805,366L804,360L796.72,377.13L800,379L798,383L798,385L797,392L796,396L795,402L795,407L795,412L795,417L795,420L795,425L794,430L794,432L794,435L794,440L794,442L794,445L794,447L794,450L794,452L794,455L793,458L793,461L793,460L793,461L794,470L792,475L794,470L793,473L792,477L794,485L793,482L794,487L794,487L799,499L798,500L797,502L797,503L798,513L797,503L798,514L798,517L798,527L798,522L799,528L801,534L801,541L803,537L802,538L798,547L799,556L798,548L799,556L797,564L796,569L797,578L797,572L798,579L797,582L797,589L797,589L796,594L796,599L800,608L797,612L796,601L799,614L801,622L799,617L797,625L797,627L797,627L797,627L797,627L797,627L795,647L795,647L795,647L795,652L795,657L796,665L807,667L806,670L797,682L807,671L796,692L796,687L796,697L797,702L797,703L797,712L797,714L797,709L797,727L797,717L797,722L797,729L797,737L797,732L797,739L797,742L797,744L799,752L799,754L799,749L800,757L799,759L799,762L799,764L802,767L802,769L799,776L803,770L799,779L799,780L798,784L798,789L798,792L798,794L799,799L799,799L800,803L800,807L800,812L800,809L800,817L812,819L812,824L820,838L808,840L811,841L812,842L811,848L811,848L809,852L809,852L809,864L809,864L810,867L810,867L802,884L803,885L805,888L806,893L805,889L803,899L804,893L803,899L804,900L806,901L800,907L799,910L800,907L798,916L800,918L800,919L800,919L799,927L799,925L799,929L799,932L799,934L799,937L799,939L799,941L799,944L799,948L799,952L799,954L800,959L800,964L800,962L800,959L800,969L800,972L800,974L800,979L800,977L801,989L800,982L800,984L801,992L801,994L802,999L803,1001L803,1001L799,1024L805,1017L804,1013L804,1010L799,1024L803,1039L803,1034L804,1044L803,1061L804,1054L804,1056L804,1049L803,1066L804,1071L804,1069L804,1076L805,1081L805,1081L805,1085L805,1086L805,1090L805,1090L804,1092" fill="none" stroke="#000000" style="-webkit-tap-highlight-color: rgba(0, 0, 0, 0); stroke-linecap: round; stroke-linejoin: round; stroke-width: 7;" /><path d="M803,1099L803,1099L810,1113L810,1113L810,1113L810,1113L810,1113L810,1113L818,1119L818,1120L818,1120L818,1120L818,1120L812,1134L812,1139L812,1136L812,1144L809,1146L815,1157L815,1157L815,1157L815,1157L809,1169L815,1157L809,1171L809,1176L807,1187L807,1187L807,1189L807,1194L807,1199L807,1204L806,1205L806,1205L809,1226L809,1219L808,1238L808,1238L808,1241L807,1249L807,1249L804,1262L802,1264L802,1264L799,1276L799,1281L799,1289L799,1294L799,1306L799,1301" fill="none" stroke="#000000" style="-webkit-tap-highlight-color: rgba(0, 0, 0, 0); stroke-linecap: round; stroke-linejoin: round; stroke-width: 7;" /><path d="M319.69,389.62" fill="none" stroke="#000000" style="-webkit-tap-highlight-color: rgba(0, 0, 0, 0); stroke-linecap: round; stroke-linejoin: round; stroke-width: 7;" /><path d="M799,1311L810,1326L810,1326L810,1326L810,1339L810,1326L812,1340L810,1339L813,1341L813,1341L815,1355L815,1355L815,1355L815,1357L814,1371L815,1356L814,1371L814,1371L815,1372L815,1372L805,1391L805,1391L805,1391L805,1391L805,1391L814,1406L812,1409L812,1411" fill="none" stroke="#000000" style="-webkit-tap-highlight-color: rgba(0, 0, 0, 0); stroke-linecap: round; stroke-linejoin: round; stroke-width: 7;" /><path d="M318,390" fill="none" stroke="#000000" style="-webkit-tap-highlight-color: rgba(0, 0, 0, 0); stroke-linecap: round; stroke-linejoin: round; stroke-width: 7;" /><path d="M812,1414" fill="none" stroke="#000000" style="-webkit-tap-highlight-color: rgba(0, 0, 0, 0); stroke-linecap: round; stroke-linejoin: round; stroke-width: 7;" /><path d="M315,387L314,388L311,390L311,390L308,395L308,395L307,396L307,401L307,404L301,408L311,434L313,424L311,442L312,452L315,459L317,466L316,482L317,476L316,496L316,491L316,497L317,505L317,510L317,512L315,517L317,524L316,520L317,526L316,531L317,537L315,539L316,544L311,549L310,559L312,553L307,565L305,567L307,573L305,579L308,577L305,579L298,588L298,593L300,598L300,601L296,612L300,604L296,614L294,618L294,630L294,621L294,632L295,637L295,639L296,641L295,648L295,646L295,654L294,661L296,652L295,655L291,674L292,661L291,667L291,667L289,684L290,689L291,674L289,683L290,695L290,704L289,699L291,706L286,711L285,717L285,717L283,731L285,739L285,739L283,731L286,751L285,755L283,759L281,761L285,757L282,769L283,773L280,778L284,764L277,795L280,789L275,802L280,783L277,805L276,815L277,808L279,820L278,841L272,868L273,858L281,827L270,877L266,892L269,884L268,897L265,903L264,914L265,909L265,918L264,923L261,929L261,941L262,933L261,944L261,957L260,962L263,948L260,969L259,979L258,982L259,994L261,990L258,1012L257,1002L255,1018L257,1009L253,1026L253,1043L254,1024L253,1043L253,1046L253,1046L251,1068L251,1068" fill="none" stroke="#000000" style="-webkit-tap-highlight-color: rgba(0, 0, 0, 0); stroke-linecap: round; stroke-linejoin: round; stroke-width: 7;" /><path d="M251,1068L252,1087L252,1079L252,1089L248,1115L245,1096L248,1116L252,1089L249,1121L249,1123L247,1127L244,1139L244,1140L245,1147L245,1147L245,1147L241,1154L238,1158L241,1179L241,1179L242,1182L241,1186L240,1203L240,1203L241,1206L240,1209L241,1208L240,1209L240,1229L240,1229L240,1229L239,1233L240,1230L248,1246L239,1233L246,1248L246,1248L246,1248L246,1248L246,1248L249,1252L249,1252L249,1252L248,1274L251,1271L243,1279L248,1274L243,1279L243,1281L243,1282L240,1291L239,1288L240,1291L242,1299L242,1299L239,1293L242,1301L242,1309L240,1305L242,1309L242,1302" fill="none" stroke="#000000" style="-webkit-tap-highlight-color: rgba(0, 0, 0, 0); stroke-linecap: round; stroke-linejoin: round; stroke-width: 7;" /><path d="M579.43,656.86" fill="none" stroke="#000000" style="-webkit-tap-highlight-color: rgba(0, 0, 0, 0); stroke-linecap: round; stroke-linejoin: round; stroke-width: 7;" /><path d="M242,1314L241,1316L237,1319L240,1319L236,1319" fill="none" stroke="#000000" style="-webkit-tap-highlight-color: rgba(0, 0, 0, 0); stroke-linecap: round; stroke-linejoin: round; stroke-width: 7;" /><path d="M575,658L578,657L579,658L582,658L582,658L582,658L594,662L582,658L597,662L599,662L602,662L607,662L604,662L609,662L612,662L614,662L617,659L619,659L622,647L624,647L624,647L629,645L633,646L633,646L637,646L637,646L639,644L639,644L642,642L639,644L642,642L644,639L644,639L646,636L646,636L649,632L650,631L652,627L652,627L653,624L657,620L664,621L659,620L667,621L669,621L672,621L674,621L678,622L679,622L682,623L684,624L687,624L688,625L691,626L694,627L697,628L699,628L702,627L704,627L707,627L712,625L709,626L713,625L717,624L721,625L723,626L724,626L726,626L738,630L726,626L739,631L740,632L742,633L745,634L745,634L747,634L751,635L754,636L761,640L762,641L757,637" fill="none" stroke="#000000" style="-webkit-tap-highlight-color: rgba(0, 0, 0, 0); stroke-linecap: round; stroke-linejoin: round; stroke-width: 7;" /><path d="M763,642L768,643L764,642L767,643L769,644L773,646L779,647L777,647L782,647L779,647" fill="none" stroke="#000000" style="-webkit-tap-highlight-color: rgba(0, 0, 0, 0); stroke-linecap: round; stroke-linejoin: round; stroke-width: 7;" /><path d="M586.93,674.34L573,661L572,672L572,669L572,669L572,667L572,667L571,674L571,677L571,684L572,692L572,699L571,707L571,714L571,719L571,724L571,727L569,734L570,730L568,737L567,747L566,742L567,749L567,754L567,759L567,762L567,767L567,769L567,774L568,782L567,778L567,787L567,802L566,794L566,795L564,787L567,807L567,812L568,817L567,820L565,825L566,834L565,829L566,837L566,847L566,849L566,842L566,854L566,859L566,867L566,862L565,873L565,877L564,883L564,893L564,887L563,898L561,906L560,919L560,912L560,923L559,929L560,947L559,937L560,941L559,954L558,967L558,962L558,959L558,969L557,974L556,977L554,983" fill="none" stroke="#000000" style="-webkit-tap-highlight-color: rgba(0, 0, 0, 0); stroke-linecap: round; stroke-linejoin: round; stroke-width: 7;" /><path d="M554,993L559,998L560,1005L559,1008L554,1017L554,1023L553,1029L552,1033L552,1044L552,1046L552,1039L569,1044L556,1063L557,1064L560,1067L562,1068L562,1068L562,1071L561,1072L561,1072L562,1087L562,1087L562,1087L562,1087L562,1087L562,1087L562,1087L561.95,1093.93L562,1087L564,1087L575,1087L571,1087L569,1087L584,1086L589,1087L599,1085L594,1086L604,1089L611,1088L618,1091L628,1092L631,1094L637,1094L644,1095L649,1094L638,1094L654,1094L659,1093L664,1093L667,1093L672,1094L677,1093L679,1093L684,1093L684,1093L689,1089L695,1093" fill="none" stroke="#000000" style="-webkit-tap-highlight-color: rgba(0, 0, 0, 0); stroke-linecap: round; stroke-linejoin: round; stroke-width: 7;" /><path d="M697,1093L704,1094L697,1093L704,1094L711,1094L713,1094L722,1093L719,1094L724,1095L728,1096L727,1095L735,1099L740,1099L747,1100L754,1100L764,1101L759,1101" fill="none" stroke="#000000" style="-webkit-tap-highlight-color: rgba(0, 0, 0, 0); stroke-linecap: round; stroke-linejoin: round; stroke-width: 7;" /><path d="M554.46,1153.87" fill="none" stroke="#000000" style="-webkit-tap-highlight-color: rgba(0, 0, 0, 0); stroke-linecap: round; stroke-linejoin: round; stroke-width: 7;" /><path d="M769,1101L772,1100L779,1100L779,1100L782,1098L787,1098L789,1098L792,1100L792,1100L792,1103" fill="none" stroke="#000000" style="-webkit-tap-highlight-color: rgba(0, 0, 0, 0); stroke-linecap: round; stroke-linejoin: round; stroke-width: 7;" /><path d="M552,1151" fill="none" stroke="#000000" style="-webkit-tap-highlight-color: rgba(0, 0, 0, 0); stroke-linecap: round; stroke-linejoin: round; stroke-width: 7;" /><path d="M790,1105" fill="none" stroke="#000000" style="-webkit-tap-highlight-color: rgba(0, 0, 0, 0); stroke-linecap: round; stroke-linejoin: round; stroke-width: 7;" /><path d="M538,1159L537,1158L535,1155L535,1155L535,1155L535,1155L559,1154L582,1154L569,1154L538,1159L604,1154L594,1154L619,1154L612,1154L624,1156L634,1156L629,1156L642,1156L647,1159L659,1159L654,1159L667,1159L672,1159L684,1159L679,1159L692,1159L707,1153L708,1153L713,1153L707,1153L713,1153L713,1153L727,1164L713,1153L729,1164" fill="none" stroke="#000000" style="-webkit-tap-highlight-color: rgba(0, 0, 0, 0); stroke-linecap: round; stroke-linejoin: round; stroke-width: 7;" /><path d="M737,1164L742,1164L734,1164L747,1164L757,1161L752,1164L762,1161" fill="none" stroke="#000000" style="-webkit-tap-highlight-color: rgba(0, 0, 0, 0); stroke-linecap: round; stroke-linejoin: round; stroke-width: 7;" /><path d="M517,1198.83" fill="none" stroke="#000000" style="-webkit-tap-highlight-color: rgba(0, 0, 0, 0); stroke-linecap: round; stroke-linejoin: round; stroke-width: 7;" /><path d="M764,1161L767,1161L772,1161L774,1161L777,1161L779,1161L784,1161L782,1161L787,1161L787,1164L789,1164L787,1164" fill="none" stroke="#000000" style="-webkit-tap-highlight-color: rgba(0, 0, 0, 0); stroke-linecap: round; stroke-linejoin: round; stroke-width: 7;" /><path d="M513,1205L512,1186L512,1186L512,1186L517,1186L519,1185L517,1186L522,1186L524,1187L527,1187L531,1188L542,1187L554,1188L562,1188L571,1192L587,1189L597,1191L579,1188L604,1195L612,1196L623,1195L617,1197L629,1186" fill="none" stroke="#000000" style="-webkit-tap-highlight-color: rgba(0, 0, 0, 0); stroke-linecap: round; stroke-linejoin: round; stroke-width: 7;" /><path d="M657,1189L661,1200L648,1185L662,1200L669,1201L676,1199L676,1199L694,1199L713,1197L711,1193L719,1198L714,1198L726,1199L726,1199L736,1196L732,1197" fill="none" stroke="#000000" style="-webkit-tap-highlight-color: rgba(0, 0, 0, 0); stroke-linecap: round; stroke-linejoin: round; stroke-width: 7;" /><path d="M452.06,1271.26" fill="none" stroke="#000000" style="-webkit-tap-highlight-color: rgba(0, 0, 0, 0); stroke-linecap: round; stroke-linejoin: round; stroke-width: 7;" /><path d="M739,1196L740,1196L740,1196L767,1199L777,1204L768,1201L768,1201L784,1206L787,1206L793,1205L792,1204L789,1205L789,1205L784,1206" fill="none" stroke="#000000" style="-webkit-tap-highlight-color: rgba(0, 0, 0, 0); stroke-linecap: round; stroke-linejoin: round; stroke-width: 7;" /><path d="M444,1272L447,1273L443,1275L465,1275L445,1273L450,1276L474,1269L510,1270L517,1269L493,1272L522,1268L532,1272" fill="none" stroke="#000000" style="-webkit-tap-highlight-color: rgba(0, 0, 0, 0); stroke-linecap: round; stroke-linejoin: round; stroke-width: 7;" /><path d="M544,1267L547,1267L555,1280L578,1273L584,1272L609,1273L590,1274L619,1271L631,1273L635,1271L649,1269L657,1271L664,1271L669,1274L682,1276L677,1274L687,1276L699,1276L707,1279L692,1276" fill="none" stroke="#000000" style="-webkit-tap-highlight-color: rgba(0, 0, 0, 0); stroke-linecap: round; stroke-linejoin: round; stroke-width: 7;" /><path d="M569.44,1138.89" fill="none" stroke="#000000" style="-webkit-tap-highlight-color: rgba(0, 0, 0, 0); stroke-linecap: round; stroke-linejoin: round; stroke-width: 7;" /><path d="M734,1281L714,1279L719,1279L727,1279L744,1281L739,1281L747,1284L754,1284L759,1284L782,1284L767,1284L774,1284" fill="none" stroke="#000000" style="-webkit-tap-highlight-color: rgba(0, 0, 0, 0); stroke-linecap: round; stroke-linejoin: round; stroke-width: 7;" /><path d="M794,1284L799,1284L797,1284L787,1284" fill="none" stroke="#000000" style="-webkit-tap-highlight-color: rgba(0, 0, 0, 0); stroke-linecap: round; stroke-linejoin: round; stroke-width: 7;" /><path d="M567,1136" fill="none" stroke="#000000" style="-webkit-tap-highlight-color: rgba(0, 0, 0, 0); stroke-linecap: round; stroke-linejoin: round; stroke-width: 7;" /><path d="M789,1274" fill="none" stroke="#000000" style="-webkit-tap-highlight-color: rgba(0, 0, 0, 0); stroke-linecap: round; stroke-linejoin: round; stroke-width: 7;" /><path d="M564,1136" fill="none" stroke="#000000" style="-webkit-tap-highlight-color: rgba(0, 0, 0, 0); stroke-linecap: round; stroke-linejoin: round; stroke-width: 7;" /><path d="M797,1281" fill="none" stroke="#000000" style="-webkit-tap-highlight-color: rgba(0, 0, 0, 0); stroke-linecap: round; stroke-linejoin: round; stroke-width: 7;" /><path d="M562,1136L559,1141L554,1146L538,1159L535,1161L514,1184L534,1159L539,1161L514,1184L514,1184L514,1184L514,1184L514,1184" fill="none" stroke="#000000" style="-webkit-tap-highlight-color: rgba(0, 0, 0, 0); stroke-linecap: round; stroke-linejoin: round; stroke-width: 7;" /><path d="M499.51,834.19L497,834L495,832L495,834L495,839L495,842L481,853L482,855L482,857L481,862L483,874L483,877L488,890L489,891L490,893L491,899L490,904L491,907L492,912L492,914L495,919L495,924L496,928L494,934L494,939L487,951L490,951L486,959L485,967L481,975L482,986L482,983L482,990L482,990L487,994L489,998L485,1007L490,1004L487,1012L486,1009L495,1022L486,1013L492,1026L492,1028L495,1039L487,1044L489,1049L489,1051L489,1051L493,1074L493,1074L491,1079L485,1088L479,1102L490,1083L480,1106L481,1111L484,1117L487,1126L485,1128L482,1141L483,1136L480,1144L490,1156L483,1165L483,1164" fill="none" stroke="#000000" style="-webkit-tap-highlight-color: rgba(0, 0, 0, 0); stroke-linecap: round; stroke-linejoin: round; stroke-width: 7;" /><path d="M482,1175L480,1183L480,1170L480,1185L477,1195L476,1192L476,1198L478,1203L475,1208L476,1215L477,1218L477,1221L475,1229L475,1229L475,1233L480,1237L479,1240L479,1245L477,1254L477,1249L476,1259L476,1262L474,1268L474,1269L485,1271L482,1269L488,1273L472,1278L488,1273" fill="none" stroke="#000000" style="-webkit-tap-highlight-color: rgba(0, 0, 0, 0); stroke-linecap: round; stroke-linejoin: round; stroke-width: 7;" /><path d="M492.02,517L487,517L485,519L485,522L485,524L485,529L485,527L485,539L485,534L485,547L485,557L485,564L485,574L485,582L485,592L485,599L485,607L485,622L485,614L485,629L485,637L487,642L487,649L487,652L487,654L487,667L487,659L485,677L487,672L482,692L485,682L485,687L480,699L475,717L475,724L480,704L477,712L472,732L472,729L472,737L472,742L472,747L472,754L472,752L472,759L472,764L472,769L472,774L470,779L470,784L470,789L470,794L458,799L459,807L461,834L458,824L458,816L462,841L459,853L456,869L457,862L457,879L453,889L449,915L454,897L450,903L456,932L451,941L449,917L450,944L452,953L448,971L452,955L447,970L448,971L443,987L442,1003L443,987L443,1007L455,1022L443,1009L448,1025L448,1025L442,1041L451,1029L449,1026L442,1042L441,1043L442,1042L435,1054L435,1056L442,1073L435,1056L437,1069L442,1073L441,1075L440,1081L440,1089L440,1093L437,1100L437,1103L436,1111" fill="none" stroke="#000000" style="-webkit-tap-highlight-color: rgba(0, 0, 0, 0); stroke-linecap: round; stroke-linejoin: round; stroke-width: 7;" /><path d="M754,377L757,380L764,385L767,387L769,390L772,395L782,412L777,400L782,412L780,411L795,412L795,415L795,420L795,417L803,427L795,422L806,426L806,426" fill="none" stroke="#000000" style="-webkit-tap-highlight-color: rgba(0, 0, 0, 0); stroke-linecap: round; stroke-linejoin: round; stroke-width: 7;" /><path d="M52.45,1316.21L47,1310L47,1312L44,1317L47,1321L47,1321L59,1325L62,1327L74,1330L77,1329L98,1334L102,1332L109,1332L122,1329L125,1328L125,1328L142,1324L140,1322L140,1322L142,1324L152,1323L147,1323L160,1324L165,1321L172,1322L188,1316L182,1321L192,1315L193,1316L201,1318L196,1318L202,1318L202,1318L214,1313L216,1309L218,1310" fill="none" stroke="#000000" style="-webkit-tap-highlight-color: rgba(0, 0, 0, 0); stroke-linecap: round; stroke-linejoin: round; stroke-width: 7;" /><path d="M226,1309L222,1309L229,1306L239,1306L240,1305L244,1309L272.23,1318.71L244,1309L266,1319L265,1319L263,1316L270,1314L268,1316L275,1312L279,1311L280,1306L281,1301L291,1300L295,1295L300,1293L306,1290L307,1289L312,1286L318,1284L315,1285L322,1283L325,1280L329,1279L333,1277L337,1275L338,1274L335,1276L342,1274L347,1272L345,1271L349,1270L349,1271L349,1270L366,1264L366,1264L366,1264L372,1261L367,1261L375,1260L377,1259L385,1259L381,1259L382,1259L387,1259" fill="none" stroke="#000000" style="-webkit-tap-highlight-color: rgba(0, 0, 0, 0); stroke-linecap: round; stroke-linejoin: round; stroke-width: 7;" /><path d="M389,1259L391,1256L392,1255L393,1255L398,1256L402,1254L408,1251L402,1254L406,1248L406,1248L410,1245L410,1248L416,1245" fill="none" stroke="#000000" style="-webkit-tap-highlight-color: rgba(0, 0, 0, 0); stroke-linecap: round; stroke-linejoin: round; stroke-width: 7;" /><path d="M564.45,994.03L559,998L554,993L561,998L570,997L574,995L577,995L582,995L593,1000L586,998L593,1000L593,1000L609,1007L607,1002L623,1008L612,1009L623,1008L623,1008L625,1011L627,1011L629,1011L632,1011L637,1011L634,1011L642,1011L643,1011L643,1011L643,1011L651,1021L651,1021L651,1021L651,1021L651,1021L673,1015L675,1015L673,1015L675,1015L687,1021L699,1024L690,1021L708,1019L708,1019L717,1024L721,1023L710,1019L728,1022L734,1022L729,1022L732,1022" fill="none" stroke="#000000" style="-webkit-tap-highlight-color: rgba(0, 0, 0, 0); stroke-linecap: round; stroke-linejoin: round; stroke-width: 7;" /><path d="M742,1022L739,1022L744,1022L745,1022L749,1021L754,1026L757,1026L754,1026L759,1026L770,1025L761,1025L765,1025L774,1026L782,1026L784,1026L777,1026L787,1025L789,1025L789,1025L792,1025L787,1028" fill="none" stroke="#000000" style="-webkit-tap-highlight-color: rgba(0, 0, 0, 0); stroke-linecap: round; stroke-linejoin: round; stroke-width: 7;" /><path d="M576.94,272.23L574,272L574,270L577,270L579,270L574,270L574,272L572,275L569,277L567,282L562,287L557,292L554,295L552,297L549,300L547,302L544,302L544,305L542,305L539,307L534,312L537,310L532,315L532,317L529,320L529,317L527,320L527,325L524,325L527,322L522,327L519,332L522,330L517,332L517,335L512,340L514,337L510,342L507,345L507,347L502,352L500,355L505,350L500,357L497,360L492,365L495,362L490,370L485,372L482,375L480,377L477,382L475,385L472,385L470,387L467,390L465,392L465,395L462,397L462,400L460,405L460,402L457,407L460,407" fill="none" stroke="#000000" style="-webkit-tap-highlight-color: rgba(0, 0, 0, 0); stroke-linecap: round; stroke-linejoin: round; stroke-width: 7;" /><path d="M457,410L457,412L455,415L455,412L450,417L452,417L447,422L450,420L442,427L440,430L437,435L432,437L430,442L427,442L425,447L427,445L427,450L430,450" fill="none" stroke="#000000" style="-webkit-tap-highlight-color: rgba(0, 0, 0, 0); stroke-linecap: round; stroke-linejoin: round; stroke-width: 7;" /><path d="M789.23,479.53L792,477L792,475L792,474L794,470L792,474L792,474L792,474L779,470L777,467L774,465L772,462L772,460L769,457L769,455L767,452L764,447L764,450L762,442L762,437L759,432L757,425L754,420L752,415L749,410L747,407L744,402L744,400L742,397L737,392L734,387L739,395L729,385L722,372L727,380L724,375L719,367L717,365L714,360L714,362L712,357L704,350L709,352L702,347L699,342L697,340L694,337L692,335L687,330L679,320L684,325L667,312L672,317L662,310L657,307L649,305L644,300L637,295L629,287L627,282L624,280L622,277L619,275L617,272L609,262" fill="none" stroke="#000000" style="-webkit-tap-highlight-color: rgba(0, 0, 0, 0); stroke-linecap: round; stroke-linejoin: round; stroke-width: 7;" /><path d="M614,267L607,260L604,257L599,252L602,255L597,250L594,250L592,247L589,247L587,245L584,245L579,242L582,245L577,242L574,242L572,240L569,240L567,240L567,242L567,245L567,252L567,250" fill="none" stroke="#000000" style="-webkit-tap-highlight-color: rgba(0, 0, 0, 0); stroke-linecap: round; stroke-linejoin: round; stroke-width: 7;" /><path d="M349.66,429.58L347,430L345,430L350,430L352,430L362,432L357,432L370,435L375,437L382,440L387,440L392,442L397,442L402,442L407,445L412,445L417,447L425,447L420,447L427,447L430,447" fill="none" stroke="#000000" style="-webkit-tap-highlight-color: rgba(0, 0, 0, 0); stroke-linecap: round; stroke-linejoin: round; stroke-width: 7;" /><path d="M435,447L432,447L437,450L440,450L442,450" fill="none" stroke="#000000" style="-webkit-tap-highlight-color: rgba(0, 0, 0, 0); stroke-linecap: round; stroke-linejoin: round; stroke-width: 7;" /><path d="M492.02,549.46L487,549L487,547L485,544L485,542L482,542L482,539L482,537L482,534L482,532L482,529L482,527L482,524L482,519L482,514L482,517L482,512L482,510L482,505L485,502L485,497L485,500L485,495L485,492L482,487L485,490L482,485L482,482L480,482L480,480L477,480L475,480L470,477L472,477L465,475L460,472L442,462L437,457L450,467L435,457L430,452L425,450L420,447L417,445L415,440L412,437L410,435L407,432L405,432" fill="none" stroke="#000000" style="-webkit-tap-highlight-color: rgba(0, 0, 0, 0); stroke-linecap: round; stroke-linejoin: round; stroke-width: 7;" /><path d="M402,432L400,432L397,432L397,435L397,437L400,440L402,442" fill="none" stroke="#000000" style="-webkit-tap-highlight-color: rgba(0, 0, 0, 0); stroke-linecap: round; stroke-linejoin: round; stroke-width: 7;" /><path d="M464.55,47.45L460,45L461,45L462,44L465,42L474,54L475,54L482,38L480,39L495,35L482,38L504,36L496,35L506,36L505,36L515,32L506,36L516,32L516,32L516,32L516,32L531,31L531,31L533,31L532,31L533,31L535,30" fill="none" stroke="#000000" style="-webkit-tap-highlight-color: rgba(0, 0, 0, 0); stroke-linecap: round; stroke-linejoin: round; stroke-width: 7;" /><path d="M535,30L538,26L555,24L555,24L555,24L557,24L557,24L564,24L564,24L567,24L566.95,34.97L567,24L578,35L578,37L564,24L564,40L564,37L564,45L559,57L560,58L561,64L564,71L564,72" fill="none" stroke="#000000" style="-webkit-tap-highlight-color: rgba(0, 0, 0, 0); stroke-linecap: round; stroke-linejoin: round; stroke-width: 7;" /><path d="M564,74L562,76L564,74L562,76" fill="none" stroke="#000000" style="-webkit-tap-highlight-color: rgba(0, 0, 0, 0); stroke-linecap: round; stroke-linejoin: round; stroke-width: 7;" /><path d="M87.41,197.31L82,200L82,196L87,201L88,201L94,199L102,203L111,203L122,199L130,196L137,194L142,194L149,203L150,203L154,201L155,202L152,203" fill="none" stroke="#000000" style="-webkit-tap-highlight-color: rgba(0, 0, 0, 0); stroke-linecap: round; stroke-linejoin: round; stroke-width: 7;" /><path d="M159.84,197.31L157,197L157,200L157,205L157,212L156,222L157,230L154,236L156,246L155,255L155,260L156,265L155,270L155,275L155,282L155,276L154,287L154,286L154,291L155,293" fill="none" stroke="#000000" style="-webkit-tap-highlight-color: rgba(0, 0, 0, 0); stroke-linecap: round; stroke-linejoin: round; stroke-width: 7;" /><path d="M155,293L155,293" fill="none" stroke="#000000" style="-webkit-tap-highlight-color: rgba(0, 0, 0, 0); stroke-linecap: round; stroke-linejoin: round; stroke-width: 7;" /><path d="M97.4,189.81L92,198L92,198L92,198L93,199L96,211L90,214L90,214L90,225L84,228L88,237L88,246L86,251L85,257L84,263L85,276L86,270L85,282L85,290L87,297L85,304L85,311L85,320L82,325L82,332L81,337L83,342L80,355L82,347L80,348L80,360L80,360L77,365L80,375L80,375L77,379L77,384L70,399L77,384L71,400L67,410L66,420L68,415L65,425L65,432L64,444L65,434L62,445L62,457L62,453L60,457L59,462L57,482L59,472L55,495L57,491L58,499L52,509L52,517L50,521L50,528L50,528L44,541L45,534L45,547L40,553L42,556L41,561L40,565L36,582L37,573L35,584L35,577L37,591L32,598L30,602L32,600L27,615L30,624L30,620" fill="none" stroke="#000000" style="-webkit-tap-highlight-color: rgba(0, 0, 0, 0); stroke-linecap: round; stroke-linejoin: round; stroke-width: 7;" /><path d="M23,632L25,647L24,634L24,634L21,651L22,670L19,659L20,667L14,680L16,689L17,692L17,692L18,683L16,703L15,715L15,715L16,706L13,719L13,727L12,721L12,723L12,731L12,737L12,734L11,743L12,744L11,746L9,744L10,749L10,754L10,760L6,759L7,763" fill="none" stroke="#000000" style="-webkit-tap-highlight-color: rgba(0, 0, 0, 0); stroke-linecap: round; stroke-linejoin: round; stroke-width: 7;" /><path d="M189.81,1291.24L185,1291L187,1290L182,1292L180,1291L177,1291L177,1290L175,1285L175,1284L180,1281L180,1277L184,1275L189,1264L189,1264L192,1263L195,1261L197,1261L201,1257L200,1261L202,1256L205,1251L205,1251L206,1251L206,1251L209,1238" fill="none" stroke="#000000" style="-webkit-tap-highlight-color: rgba(0, 0, 0, 0); stroke-linecap: round; stroke-linejoin: round; stroke-width: 7;" /><path d="M212,1238L212,1238L212,1238L212,1238L230,1234L230,1234L230,1234L230,1234L187.32,1276.25L184,1275L180,1277L177,1275L172,1277L160,1276L166,1276L149,1279L138,1277L120,1277L130,1275L115,1277L111,1278L102,1275L97,1275L90,1274L85,1274L75,1274L80,1274L65,1272L71,1273L59,1278L53,1279L47,1279L40,1281L36,1279" fill="none" stroke="#000000" style="-webkit-tap-highlight-color: rgba(0, 0, 0, 0); stroke-linecap: round; stroke-linejoin: round; stroke-width: 7;" /></svg>