<?xml version="1.0" encoding="utf-8" ?>
<svg baseProfile="full" height="764" version="1.1" width="1024" xmlns="http://www.w3.org/2000/svg" xmlns:ev="http://www.w3.org/2001/xml-events" xmlns:xlink="http://www.w3.org/1999/xlink"><defs /><path d="M9.18,91.76L7.34,91.76L5.51,91.76L7.34,95.43L11.01,99.1L14.68,102.77L18.35,104.6L22.02,108.27L27.53,110.11L31.2,113.78L34.87,115.61L38.54,117.45L44.04,121.12L47.71,122.95L51.38,122.95L55.05,122.95L58.72,124.79L62.39,126.62L66.06,128.46L69.73,130.29L73.41,132.13L77.08,133.96L80.75,135.8L84.42,137.63L88.09,141.3L91.76,143.14L95.43,144.97L99.1,146.81L102.77,148.65L104.6,150.48L108.27,152.32L110.11,152.32L111.94,154.15L113.78,154.15L117.45,155.99L119.28,155.99L121.12,155.99L122.95,155.99L126.62,155.99L128.46,155.99L130.29,155.99L133.96,155.99L135.8,155.99L139.47,155.99L143.14,155.99L144.97,155.99L148.65,155.99L152.32,155.99L155.99,155.99L159.66,155.99L161.49,155.99L163.33,155.99L165.16,155.99L168.83,155.99L172.5,157.82L174.34,157.82L178.01,157.82L181.68,159.66L185.35,161.49L189.02,163.33L190.85,165.16L194.52,165.16L196.36,167L200.03,167L201.86,168.83L205.53,170.67L207.37,170.67L209.2,172.5L212.87,174.34L214.71,176.17L218.38,178.01L220.22,181.68L223.89,183.51L225.72,185.35L229.39,187.18L231.23,189.02L234.9,189.02L236.73,190.85L240.4,192.69L242.24,194.52L245.91,194.52L247.74,196.36L251.41,198.19L253.25,201.86L256.92,203.7L258.75,205.53L262.42,207.37L264.26,209.2L267.93,209.2L269.76,211.04L273.43,212.87L277.1,214.71L278.94,216.54L280.77,216.54L284.44,218.38L286.28,220.22L289.95,222.05L293.62,222.05L295.46,223.89L300.96,225.72L302.8,225.72L304.63,227.56L306.47,227.56L308.3,229.39L310.14,229.39L311.97,229.39L313.81,231.23L315.64,231.23L317.48,231.23L319.31,233.06L321.15,233.06L322.98,234.9L324.82,236.73L326.65,236.73L330.32,240.4L332.16,244.07L333.99,245.91L335.83,247.74L337.66,249.58L339.5,251.41L341.33,255.08L343.17,256.92L345,258.75L346.84,262.42L348.67,264.26L350.51,267.93L350.51,269.76L352.34,273.43L354.18,278.94L354.18,280.77" fill="none" stroke="#000000" style="-webkit-tap-highlight-color: rgba(0, 0, 0, 0); stroke-linecap: round; stroke-linejoin: round; stroke-width: 5;" /><path d="M354.18,289.95L354.18,291.78L354.18,295.46L354.18,299.13L354.18,302.8L354.18,308.3L354.18,315.64L354.18,322.98L354.18,328.49L354.18,333.99L354.18,339.5L354.18,345L354.18,348.67L354.18,354.18L354.18,357.85L354.18,367.03L354.18,372.53L354.18,376.2L354.18,379.87L354.18,385.38L354.18,390.88L354.18,394.55L354.18,400.06L356.01,403.73L356.01,407.4L356.01,411.07L357.85,414.74L357.85,418.41L357.85,420.24L357.85,422.08L357.85,425.75L359.68,431.25L361.52,436.76L361.52,440.43L363.35,445.94L363.35,447.77L363.35,449.61L363.35,451.44" fill="none" stroke="#000000" style="-webkit-tap-highlight-color: rgba(0, 0, 0, 0); stroke-linecap: round; stroke-linejoin: round; stroke-width: 5;" /><path d="M255.08,207.37L253.25,203.7L253.25,211.04L255.08,212.87L256.92,216.54L258.75,220.22L260.59,225.72L264.26,229.39L264.26,233.06L267.93,236.73L267.93,240.4L267.93,245.91L269.76,251.41L269.76,256.92L271.6,262.42L271.6,266.09L273.43,271.6L273.43,277.1L275.27,282.61L275.27,289.95L275.27,295.46L277.1,299.13L277.1,304.63L277.1,311.97L277.1,317.48L278.94,324.82L278.94,330.32L278.94,335.83L278.94,341.33L278.94,345L278.94,350.51L278.94,357.85L278.94,365.19L278.94,370.7L278.94,376.2L278.94,383.54L278.94,390.88L278.94,398.22L280.77,405.56L280.77,411.07L280.77,416.57L282.61,422.08L282.61,425.75L284.44,429.42L284.44,434.92L286.28,436.76L286.28,438.59L288.11,444.1L288.11,449.61L289.95,455.11L291.78,458.78L291.78,464.29L293.62,469.79L297.29,471.63" fill="none" stroke="#000000" style="-webkit-tap-highlight-color: rgba(0, 0, 0, 0); stroke-linecap: round; stroke-linejoin: round; stroke-width: 5;" /><path d="M12.85,179.84L18.35,179.84L29.36,181.68L38.54,185.35L44.04,187.18L49.55,187.18L55.05,189.02L62.39,189.02L67.9,190.85L73.41,190.85L78.91,190.85L82.58,190.85L88.09,190.85L93.59,190.85L97.26,190.85L100.93,190.85L106.44,190.85L110.11,192.69L113.78,192.69L119.28,192.69L122.95,194.52L126.62,196.36L132.13,198.19L135.8,200.03L141.3,201.86L146.81,201.86L152.32,201.86L155.99,203.7L159.66,203.7L163.33,203.7L167,203.7L170.67,205.53L174.34,205.53L178.01,205.53L181.68,205.53L185.35,205.53L189.02,205.53L194.52,205.53L198.19,205.53L201.86,205.53L203.7,205.53L207.37,205.53L209.2,203.7L212.87,203.7L214.71,203.7L218.38,203.7L220.22,203.7L223.89,201.86L225.72,201.86L229.39,201.86L231.23,201.86L234.9,201.86L236.73,201.86L240.4,201.86L242.24,200.03L244.07,200.03L245.91,200.03" fill="none" stroke="#000000" style="-webkit-tap-highlight-color: rgba(0, 0, 0, 0); stroke-linecap: round; stroke-linejoin: round; stroke-width: 5;" /><path d="M1.84,512L5.51,512L14.68,513.84L27.53,513.84L33.03,510.16L38.54,508.33L44.04,508.33L49.55,508.33L55.05,508.33L62.39,506.49L67.9,504.66L75.24,502.82L80.75,500.99L84.42,500.99L89.92,500.99L93.59,500.99L99.1,499.15L104.6,499.15L110.11,497.32L115.61,497.32L121.12,495.48L124.79,495.48L130.29,495.48L135.8,495.48L141.3,493.65L146.81,493.65L152.32,491.81L157.82,491.81L163.33,491.81L167,491.81L172.5,491.81L176.17,489.98L181.68,489.98L185.35,489.98L189.02,488.14L194.52,486.31L198.19,486.31L201.86,484.47L205.53,482.64L209.2,482.64L212.87,480.8L216.54,480.8L220.22,478.97L225.72,478.97L229.39,478.97L233.06,478.97L238.57,478.97L242.24,478.97L245.91,478.97L249.58,478.97L255.08,478.97L258.75,478.97L262.42,478.97L266.09,478.97L269.76,478.97L275.27,478.97L277.1,477.13L280.77,477.13L282.61,477.13L284.44,477.13L286.28,477.13L289.95,477.13L291.78,475.3L295.46,475.3L297.29,473.46L300.96,473.46L302.8,471.63L304.63,471.63L306.47,471.63L308.3,469.79L310.14,469.79L313.81,467.96L315.64,467.96L317.48,467.96L317.48,466.12L319.31,466.12L321.15,464.29L322.98,464.29L324.82,464.29L324.82,462.45L326.65,462.45L328.49,462.45L330.32,462.45L332.16,462.45L333.99,462.45L335.83,460.62L337.66,460.62L339.5,460.62L341.33,460.62L343.17,460.62L345,460.62L346.84,460.62L348.67,460.62L354.18,458.78L356.01,458.78L357.85,458.78L357.85,456.95L359.68,456.95L361.52,456.95L363.35,456.95L365.19,458.78L367.03,458.78L368.86,458.78L370.7,460.62L372.53,460.62L374.37,460.62L376.2,460.62L378.04,462.45L379.87,462.45L381.71,462.45L385.38,462.45L387.21,462.45L389.05,462.45L390.88,462.45L392.72,462.45L394.55,462.45L396.39,462.45L398.22,464.29L400.06,464.29L401.89,464.29L403.73,464.29L405.56,464.29L407.4,464.29L409.23,464.29L411.07,464.29L412.9,464.29L414.74,464.29L414.74,466.12L416.57,466.12L418.41,466.12L420.24,466.12L422.08,466.12L423.91,466.12L425.75,467.96L429.42,467.96L431.25,467.96L433.09,467.96L434.92,469.79L436.76,469.79L438.59,469.79L440.43,471.63L442.27,471.63L445.94,471.63L447.77,471.63L449.61,471.63L451.44,471.63L453.28,471.63L456.95,471.63L458.78,471.63L460.62,471.63L462.45,471.63L466.12,471.63L467.96,471.63L471.63,471.63L473.46,471.63L477.13,471.63L478.97,471.63L480.8,471.63L484.47,471.63L488.14,471.63L491.81,471.63L493.65,469.79L495.48,469.79L499.15,469.79L500.99,469.79L504.66,469.79L508.33,469.79L510.16,469.79L513.84,469.79L515.67,469.79L517.51,469.79L521.18,469.79L524.85,469.79L526.68,469.79L530.35,469.79L534.02,469.79L537.69,469.79L539.53,469.79L543.2,469.79L545.03,469.79L548.7,469.79L552.37,469.79L554.21,469.79L557.88,469.79L561.55,469.79L565.22,469.79L568.89,469.79L570.72,467.96L574.39,467.96L578.06,467.96L581.73,467.96L585.41,467.96L592.75,467.96L596.42,466.12L598.25,466.12L601.92,466.12L603.76,466.12L607.43,466.12L609.26,466.12L611.1,466.12L612.93,466.12L616.6,466.12L618.44,466.12L622.11,466.12L623.94,466.12L627.61,467.96L629.45,467.96L633.12,467.96L634.95,467.96L636.79,467.96L638.62,467.96L640.46,469.79L644.13,469.79L645.96,469.79L647.8,469.79L649.63,469.79L651.47,469.79L653.3,469.79L656.97,471.63L658.81,471.63L660.65,471.63L662.48,471.63L664.32,471.63L667.99,471.63L669.82,471.63L671.66,471.63L673.49,473.46L675.33,473.46L679,473.46" fill="none" stroke="#000000" style="-webkit-tap-highlight-color: rgba(0, 0, 0, 0); stroke-linecap: round; stroke-linejoin: round; stroke-width: 5;" /><path d="M673.49,473.46L673.49,471.63L671.66,471.63L673.49,471.63L677.16,473.46L679,473.46L684.5,473.46L690.01,475.3L697.35,475.3L702.85,475.3L710.19,475.3L715.7,475.3L721.2,475.3L726.71,477.13L732.22,477.13L739.56,475.3L743.23,475.3L748.73,477.13L752.4,477.13L756.07,478.97L759.74,478.97L765.25,478.97L770.75,478.97L774.42,480.8L778.09,480.8L783.6,482.64L789.1,482.64L792.77,482.64L798.28,482.64L801.95,484.47L807.46,484.47L811.13,484.47L814.8,486.31L818.47,486.31L822.14,486.31L825.81,488.14L829.48,488.14L831.31,488.14L834.98,488.14L836.82,488.14L840.49,488.14L842.32,488.14L845.99,488.14L849.66,488.14L853.33,486.31L857,484.47L860.67,484.47L862.51,484.47L866.18,484.47L869.85,484.47L871.68,484.47L875.35,484.47L877.19,486.31L879.03,486.31L880.86,486.31L882.7,486.31L884.53,486.31L884.53,488.14L886.37,488.14L888.2,488.14L890.04,488.14L891.87,488.14L893.71,488.14L895.54,488.14L897.38,488.14L899.21,488.14L901.05,488.14L902.88,488.14L904.72,488.14L908.39,488.14L910.22,488.14L912.06,488.14L915.73,489.98L917.56,489.98L921.23,489.98L923.07,491.81L924.9,491.81L928.57,493.65L930.41,493.65L937.75,495.48L939.58,495.48L943.25,495.48L945.09,495.48L948.76,495.48L952.43,495.48L954.27,495.48L957.94,495.48L959.77,495.48L963.44,495.48L967.11,495.48L970.78,493.65L974.45,493.65L976.29,493.65L979.96,493.65L981.79,493.65L985.46,495.48L987.3,495.48L989.13,495.48L990.97,495.48L992.8,497.32L994.64,497.32L996.47,497.32L1000.14,497.32L1001.98,497.32L1005.65,499.15L1007.48,499.15L1009.32,499.15L1011.15,499.15L1014.82,499.15L1018.49,500.99L1018.49,502.82" fill="none" stroke="#000000" style="-webkit-tap-highlight-color: rgba(0, 0, 0, 0); stroke-linecap: round; stroke-linejoin: round; stroke-width: 5;" /><path d="M321.15,236.73L326.65,234.9L333.99,233.06L350.51,231.23L354.18,231.23L357.85,231.23L361.52,229.39L365.19,229.39L370.7,227.56L376.2,225.72L379.87,223.89L385.38,222.05L390.88,222.05L394.55,220.22L398.22,218.38L401.89,216.54L405.56,214.71L409.23,214.71L412.9,214.71L416.57,212.87L422.08,212.87L425.75,211.04L429.42,211.04L431.25,211.04L433.09,211.04L436.76,211.04L438.59,211.04L442.27,211.04L445.94,209.2L449.61,209.2L453.28,209.2L456.95,209.2L458.78,211.04L462.45,211.04L466.12,211.04L467.96,211.04L471.63,211.04L473.46,212.87L477.13,214.71L480.8,214.71L482.64,216.54L486.31,216.54L488.14,218.38L491.81,218.38L493.65,220.22L497.32,220.22L499.15,220.22L500.99,220.22L504.66,222.05L508.33,222.05L510.16,222.05L513.84,222.05L517.51,222.05L519.34,222.05L523.01,222.05L526.68,222.05L530.35,222.05L532.19,223.89L535.86,223.89L539.53,223.89L541.36,223.89L543.2,223.89L545.03,223.89L552.37,223.89L554.21,223.89L556.04,223.89L557.88,223.89L559.71,223.89L559.71,222.05L561.55,222.05L563.38,222.05L565.22,222.05L567.05,222.05L568.89,222.05L570.72,222.05L572.56,222.05L574.39,222.05L576.23,222.05L578.06,222.05L579.9,222.05L581.73,222.05L583.57,222.05L585.41,222.05L587.24,222.05L589.08,222.05L589.08,223.89L590.91,223.89L592.75,223.89L592.75,225.72L594.58,225.72L596.42,225.72L600.09,227.56L601.92,227.56L605.59,227.56L607.43,227.56L611.1,229.39L612.93,229.39L616.6,229.39L620.27,229.39L622.11,229.39L625.78,231.23L629.45,231.23L633.12,231.23L634.95,231.23L638.62,231.23L640.46,231.23L644.13,233.06L645.96,233.06L647.8,234.9L651.47,234.9L655.14,236.73L658.81,238.57L660.65,238.57L664.32,240.4L666.15,240.4L669.82,242.24L673.49,242.24L677.16,242.24L679,242.24L682.67,242.24L684.5,242.24L688.17,242.24L691.84,242.24L693.68,242.24L697.35,242.24L701.02,240.4L704.69,240.4L706.52,240.4L708.36,240.4L710.19,240.4L717.53,240.4L723.04,238.57L730.38,238.57L735.89,236.73L737.72,236.73L739.56,236.73L745.06,234.9L748.73,234.9L750.57,233.06L754.24,233.06L756.07,233.06L757.91,233.06L759.74,233.06L761.58,233.06L763.41,234.9L765.25,234.9L768.92,234.9L772.59,234.9L774.42,234.9L778.09,234.9L781.76,234.9L785.43,234.9L789.1,233.06L792.77,233.06L796.44,231.23L801.95,229.39L805.62,229.39L807.46,229.39L811.13,229.39L814.8,227.56L818.47,227.56L822.14,227.56L823.97,227.56L827.64,227.56L831.31,227.56L834.98,227.56L840.49,227.56L844.16,225.72L847.83,225.72L851.5,225.72L857,225.72L860.67,225.72L864.34,225.72L869.85,225.72L873.52,225.72L877.19,227.56L880.86,229.39L884.53,229.39L888.2,231.23L891.87,231.23L895.54,231.23L899.21,231.23L901.05,231.23L904.72,233.06L908.39,233.06L913.89,233.06L917.56,233.06L921.23,233.06L924.9,231.23L930.41,231.23L934.08,231.23L939.58,231.23L943.25,229.39L948.76,227.56L952.43,227.56L954.27,227.56L957.94,225.72L961.61,225.72L965.28,223.89L968.95,223.89L970.78,222.05L974.45,222.05L978.12,222.05L979.96,220.22L983.63,220.22L987.3,220.22L990.97,218.38L992.8,216.54L994.64,216.54L998.31,216.54L1000.14,214.71L1003.81,214.71L1005.65,212.87L1007.48,212.87L1009.32,211.04L1011.15,211.04L1012.99,211.04L1014.82,211.04L1016.66,211.04L1020.33,211.04L1022.16,212.87" fill="none" stroke="#000000" style="-webkit-tap-highlight-color: rgba(0, 0, 0, 0); stroke-linecap: round; stroke-linejoin: round; stroke-width: 5;" /><path d="M343.17,255.08L343.17,256.92L341.33,251.41L341.33,249.58L346.84,251.41L350.51,253.25L356.01,251.41L359.68,249.58L365.19,247.74L367.03,247.74L370.7,247.74L376.2,249.58L379.87,249.58L381.71,249.58L383.54,249.58L385.38,249.58L387.21,251.41L387.21,253.25L387.21,255.08L389.05,258.75L389.05,262.42L390.88,267.93L390.88,271.6L392.72,275.27L394.55,280.77L396.39,284.44L398.22,286.28L400.06,289.95L401.89,293.62L405.56,295.46L407.4,297.29L411.07,300.96L412.9,302.8L416.57,304.63L418.41,306.47L422.08,308.3L425.75,310.14L429.42,310.14L431.25,310.14L434.92,310.14L438.59,311.97L440.43,311.97L444.1,311.97L447.77,311.97L451.44,311.97L453.28,311.97L455.11,311.97L458.78,311.97L462.45,311.97L464.29,311.97L467.96,310.14L469.79,310.14L473.46,308.3L477.13,308.3L478.97,308.3L482.64,308.3L486.31,306.47L489.98,306.47L491.81,306.47L495.48,306.47L497.32,306.47L499.15,306.47L502.82,306.47L506.49,306.47L508.33,306.47L512,308.3L515.67,308.3L519.34,310.14L524.85,310.14L528.52,310.14L532.19,310.14L537.69,311.97L541.36,311.97L545.03,311.97L548.7,311.97L552.37,311.97L556.04,311.97L559.71,311.97L563.38,310.14L567.05,310.14L570.72,310.14L574.39,310.14L578.06,310.14L581.73,310.14L585.41,310.14L589.08,310.14L592.75,310.14L594.58,310.14L598.25,310.14L601.92,311.97L603.76,311.97L607.43,311.97L611.1,311.97L614.77,311.97L618.44,310.14L622.11,310.14L625.78,308.3L627.61,308.3L631.28,310.14L633.12,310.14L636.79,310.14L640.46,311.97L642.29,311.97L644.13,311.97L647.8,313.81L649.63,313.81L651.47,313.81L655.14,313.81L656.97,313.81L658.81,313.81L662.48,311.97L666.15,310.14L667.99,310.14L671.66,310.14L673.49,310.14L675.33,310.14L679,310.14L682.67,308.3L684.5,308.3L690.01,308.3L691.84,308.3L693.68,308.3L695.51,308.3L697.35,308.3L699.18,308.3L699.18,310.14L699.18,311.97L701.02,311.97L701.02,313.81L702.85,317.48L704.69,321.15L706.52,324.82L708.36,326.65L708.36,328.49L710.19,330.32L710.19,333.99L710.19,335.83L712.03,339.5L712.03,341.33L713.86,345L713.86,346.84L715.7,350.51L715.7,354.18L717.53,357.85L719.37,359.68L721.2,363.35L723.04,365.19L724.87,367.03L724.87,368.86L726.71,370.7L726.71,372.53L728.54,372.53L728.54,374.37L728.54,376.2L730.38,376.2L732.22,378.04L732.22,379.87L734.05,379.87L734.05,381.71L735.89,381.71L735.89,383.54L737.72,385.38L739.56,385.38L739.56,387.21L741.39,387.21L741.39,389.05L743.23,389.05L745.06,390.88L746.9,392.72L748.73,392.72L750.57,392.72L752.4,394.55L754.24,396.39L756.07,396.39L759.74,398.22L761.58,400.06L765.25,401.89L768.92,403.73L770.75,405.56L774.42,407.4L776.26,411.07L779.93,412.9L781.76,414.74L783.6,414.74L785.43,416.57L789.1,418.41L790.94,420.24L790.94,422.08L792.77,423.91L794.61,425.75L796.44,427.58L800.11,429.42L801.95,433.09L805.62,434.92L807.46,436.76L811.13,438.59L812.96,440.43L814.8,442.27L816.63,444.1L818.47,447.77L820.3,447.77L822.14,449.61L823.97,451.44L825.81,453.28L825.81,455.11L827.64,456.95L829.48,458.78L829.48,460.62L831.31,462.45L833.15,464.29L834.98,466.12L836.82,467.96L836.82,471.63L838.65,473.46L842.32,477.13L845.99,480.8L849.66,482.64L855.17,484.47" fill="none" stroke="#000000" style="-webkit-tap-highlight-color: rgba(0, 0, 0, 0); stroke-linecap: round; stroke-linejoin: round; stroke-width: 5;" /><path d="M666.15,242.24L666.15,244.07L666.15,247.74L664.32,249.58L664.32,251.41L660.65,253.25L658.81,255.08L655.14,256.92L649.63,256.92L645.96,258.75L642.29,260.59L638.62,262.42L634.95,262.42L631.28,262.42L627.61,262.42L622.11,262.42L618.44,260.59L614.77,260.59L611.1,258.75L607.43,256.92L603.76,256.92L600.09,255.08L596.42,255.08L594.58,255.08L590.91,255.08L589.08,256.92L587.24,258.75L585.41,262.42L585.41,267.93L587.24,273.43L589.08,280.77L590.91,286.28L592.75,293.62L596.42,299.13L598.25,304.63" fill="none" stroke="#000000" style="-webkit-tap-highlight-color: rgba(0, 0, 0, 0); stroke-linecap: round; stroke-linejoin: round; stroke-width: 5;" /><path d="M473.46,418.41L473.46,420.24L471.63,420.24L469.79,420.24L469.79,418.41L469.79,414.74L469.79,409.23L471.63,401.89L471.63,396.39L473.46,390.88L475.3,387.21L477.13,383.54L478.97,379.87L480.8,378.04L484.47,374.37L486.31,374.37L489.98,372.53L491.81,370.7L493.65,368.86L495.48,368.86L497.32,368.86L500.99,367.03L502.82,367.03L504.66,367.03L506.49,367.03L508.33,367.03L510.16,367.03L512,367.03L515.67,367.03L517.51,367.03L519.34,367.03L521.18,367.03L523.01,368.86L524.85,370.7L526.68,372.53L526.68,374.37L526.68,376.2L528.52,378.04L528.52,379.87L528.52,381.71L528.52,383.54L528.52,385.38L526.68,385.38L524.85,387.21L524.85,389.05L523.01,390.88L523.01,392.72L523.01,396.39L521.18,398.22L521.18,400.06L521.18,401.89L521.18,403.73L521.18,405.56L521.18,407.4L521.18,409.23L521.18,411.07L521.18,414.74L521.18,416.57L521.18,418.41L519.34,418.41L517.51,418.41L513.84,418.41L512,420.24L508.33,420.24L502.82,420.24L499.15,422.08L493.65,422.08L486.31,423.91L480.8,423.91L477.13,422.08L475.3,422.08L477.13,422.08" fill="none" stroke="#000000" style="-webkit-tap-highlight-color: rgba(0, 0, 0, 0); stroke-linecap: round; stroke-linejoin: round; stroke-width: 5;" /><path d="M543.2,528.52L543.2,524.85L541.36,523.01L541.36,521.18L541.36,519.34L543.2,517.51L545.03,515.67L548.7,513.84L552.37,512L559.71,510.16L567.05,506.49L574.39,504.66L581.73,502.82L589.08,502.82L594.58,500.99L598.25,500.99L605.59,500.99L611.1,499.15L616.6,499.15L627.61,497.32L631.28,499.15L636.79,499.15L640.46,500.99L645.96,500.99L651.47,500.99L658.81,502.82L662.48,502.82L667.99,504.66L671.66,506.49L677.16,506.49L684.5,506.49L690.01,508.33L695.51,508.33L699.18,510.16L702.85,510.16L708.36,512L712.03,513.84L717.53,515.67L723.04,517.51L728.54,517.51L734.05,519.34L739.56,521.18L745.06,523.01L750.57,524.85L756.07,526.68L761.58,526.68L765.25,528.52L770.75,528.52L776.26,528.52L779.93,528.52L783.6,528.52L787.27,528.52L792.77,528.52L796.44,528.52L801.95,528.52L805.62,528.52L811.13,528.52L816.63,528.52L822.14,528.52L827.64,528.52L831.31,528.52L836.82,528.52L842.32,528.52L847.83,526.68L851.5,526.68L857,526.68L860.67,526.68L866.18,526.68L871.68,526.68L875.35,526.68L879.03,526.68L882.7,526.68L886.37,526.68L891.87,528.52L897.38,528.52L904.72,530.35L908.39,530.35L913.89,532.19L919.4,534.02L924.9,534.02L932.24,535.86L935.91,535.86L939.58,537.69L945.09,539.53L948.76,539.53L952.43,541.36L956.1,541.36L959.77,543.2L963.44,545.03L965.28,545.03L967.11,546.87L970.78,548.7L972.62,550.54L976.29,552.37L979.96,552.37L981.79,554.21L983.63,554.21L985.46,556.04L989.13,557.88L990.97,557.88L994.64,559.71L998.31,561.55L1001.98,561.55L1005.65,563.38L1009.32,565.22L1014.82,567.05L1016.66,568.89" fill="none" stroke="#000000" style="-webkit-tap-highlight-color: rgba(0, 0, 0, 0); stroke-linecap: round; stroke-linejoin: round; stroke-width: 5;" /></svg>