<?xml version="1.0" encoding="utf-8" ?>
<svg baseProfile="full" height="656" version="1.1" width="1024" xmlns="http://www.w3.org/2000/svg" xmlns:ev="http://www.w3.org/2001/xml-events" xmlns:xlink="http://www.w3.org/1999/xlink"><defs /><path d="M7.24,245.14L5.43,245.14L3.62,245.14L5.43,243.34L7.24,243.34L9.05,241.53L12.66,239.72L16.28,237.91L19.9,234.29L23.52,230.67L27.14,227.05L28.95,225.24L30.76,221.63L32.57,219.82L34.37,218.01L36.18,218.01L37.99,218.01L37.99,219.82L39.8,219.82L41.61,221.63L43.42,221.63L47.04,223.43L48.85,223.43L50.66,223.43L52.47,223.43L52.47,221.63L54.28,219.82L56.08,218.01L57.89,216.2L59.7,214.39L61.51,212.58L63.32,212.58L66.94,210.77L68.75,208.96L70.56,208.96L74.18,208.96L77.8,207.15L81.41,205.34L86.84,205.34L92.27,205.34L95.89,205.34L99.51,205.34L104.93,205.34L108.55,205.34L112.17,205.34L115.79,205.34L119.41,205.34L123.02,205.34L126.64,205.34L130.26,205.34L132.07,205.34L135.69,205.34L137.5,205.34L141.12,205.34L144.73,205.34L148.35,205.34L151.97,205.34L153.78,203.53L159.21,203.53L162.83,201.72L166.45,201.72L171.87,199.92L177.3,199.92L180.92,199.92L186.35,199.92L191.77,199.92L197.2,198.11L202.63,198.11L208.06,196.3L211.67,196.3L215.29,196.3L220.72,194.49L222.53,194.49L226.15,194.49L229.77,194.49L235.19,194.49L238.81,196.3L242.43,196.3L246.05,196.3L251.48,196.3L255.1,196.3L260.52,196.3L264.14,196.3L269.57,194.49L273.19,194.49L276.81,194.49L280.42,192.68L284.04,192.68L287.66,192.68L291.28,192.68L294.9,192.68L300.33,194.49L303.94,194.49L307.56,194.49L312.99,194.49L316.61,194.49L322.04,194.49L325.65,192.68L331.08,190.87L334.7,189.06L340.13,187.25L343.75,187.25L349.17,187.25L352.79,185.44L356.41,185.44L360.03,185.44L365.46,187.25L369.07,187.25L374.5,189.06L378.12,189.06L381.74,189.06L385.36,189.06L387.17,190.87L390.78,192.68L392.59,192.68L394.4,194.49L396.21,194.49L398.02,194.49L399.83,196.3L403.45,198.11L405.26,198.11L408.88,199.92L410.69,201.72L414.3,201.72L417.92,203.53L421.54,203.53L425.16,205.34L428.78,205.34L432.4,203.53L437.82,203.53L443.25,201.72L448.68,199.92L454.11,198.11L459.53,196.3L464.96,194.49L470.39,192.68L474.01,192.68L479.43,190.87L483.05,190.87L486.67,190.87L490.29,190.87L493.91,190.87L495.72,190.87L499.34,190.87L501.14,190.87L502.95,190.87L504.76,190.87L506.57,190.87L508.38,189.06L510.19,189.06L512,189.06L513.81,187.25L515.62,185.44L515.62,181.82L517.43,180.01L519.24,176.4L519.24,172.78L521.05,169.16L521.05,165.54L522.86,163.73L524.66,161.92L526.47,160.11L528.28,160.11L530.09,160.11L531.9,158.3L535.52,158.3L537.33,156.49L539.14,154.69L542.76,151.07L544.57,149.26L546.37,147.45L546.37,145.64L548.18,143.83L549.99,142.02L551.8,140.21L553.61,138.4L555.42,136.59L557.23,134.78L559.04,132.98L560.85,131.17L564.47,129.36L566.28,127.55L569.89,125.74L571.7,123.93L573.51,120.31L575.32,118.5L577.13,114.88L577.13,111.27L578.94,109.46L578.94,105.84L580.75,104.03L580.75,102.22L582.56,100.41L584.37,100.41L586.18,98.6L587.99,98.6L591.6,96.79L593.41,96.79L595.22,94.98L598.84,93.17L602.46,93.17L604.27,89.55L607.89,87.75L609.7,85.94L613.31,85.94L615.12,84.13L616.93,84.13L618.74,84.13L620.55,84.13L624.17,84.13L625.98,84.13L627.79,84.13L629.6,84.13L631.41,84.13L635.02,84.13L636.83,85.94L638.64,87.75L640.45,87.75L642.26,89.55L644.07,91.36L645.88,93.17L645.88,94.98L647.69,96.79L649.5,96.79L651.31,96.79L653.12,96.79L656.73,96.79L658.54,96.79L660.35,94.98L663.97,94.98L665.78,93.17L669.4,93.17L671.21,91.36L674.83,91.36L678.45,89.55L682.06,89.55L683.87,87.75L687.49,87.75L691.11,85.94L694.73,85.94L696.54,84.13L700.16,84.13L703.77,82.32L707.39,82.32L711.01,80.51L714.63,78.7L718.25,76.89L720.06,75.08L723.67,75.08L727.29,73.27L730.91,71.46L734.53,71.46L738.15,71.46L741.77,71.46L745.39,71.46L747.19,71.46L750.81,71.46L754.43,73.27L758.05,73.27L761.67,73.27L767.1,73.27L772.52,73.27L776.14,73.27L781.57,73.27L787,73.27L792.42,73.27L797.85,71.46L803.28,71.46L806.9,69.65L812.33,69.65L815.94,69.65L821.37,67.84L824.99,67.84L828.61,67.84L834.04,67.84L837.65,67.84L841.27,67.84L844.89,67.84L846.7,67.84L850.32,67.84L853.94,67.84L855.75,67.84L859.36,67.84L861.17,67.84L862.98,69.65L864.79,69.65L866.6,69.65L868.41,71.46L870.22,73.27L870.22,75.08L872.03,76.89L873.84,78.7L875.65,78.7L877.46,78.7L879.27,80.51L881.07,80.51L882.88,82.32L884.69,82.32L886.5,82.32L888.31,82.32L890.12,82.32L891.93,82.32L893.74,80.51L895.55,80.51L899.17,78.7L900.98,78.7L902.78,78.7L904.59,78.7L906.4,80.51L906.4,84.13L908.21,85.94L910.02,89.55L913.64,93.17L915.45,94.98L917.26,96.79L917.26,98.6L919.07,100.41L920.88,100.41L920.88,102.22L922.69,102.22L924.49,104.03L926.3,104.03L928.11,104.03L929.92,105.84L931.73,105.84L931.73,107.65L931.73,109.46" fill="none" stroke="#000000" style="-webkit-tap-highlight-color: rgba(0, 0, 0, 0); stroke-linecap: round; stroke-linejoin: round; stroke-width: 5;" /><path d="M929.92,100.41L928.11,100.41L928.11,104.03L926.3,105.84L924.49,109.46L924.49,114.88L924.49,118.5L926.3,122.12L928.11,125.74L928.11,129.36L928.11,132.98L928.11,138.4L929.92,142.02L929.92,143.83L929.92,147.45L931.73,151.07L931.73,154.69L931.73,160.11L931.73,161.92L931.73,165.54L931.73,169.16L931.73,170.97L931.73,174.59L931.73,178.2L931.73,181.82L931.73,183.63L931.73,187.25L931.73,189.06L931.73,190.87L933.54,194.49L933.54,196.3L933.54,199.92L933.54,203.53L933.54,205.34L933.54,208.96L933.54,212.58L933.54,216.2L933.54,219.82L933.54,223.43L933.54,228.86L933.54,232.48L935.35,236.1L935.35,237.91L935.35,241.53L935.35,243.34L937.16,246.95L937.16,250.57L937.16,252.38L938.97,256L938.97,259.62L940.78,263.24L940.78,266.86L940.78,272.28L940.78,275.9L940.78,281.33L942.59,284.95L942.59,288.57L944.4,292.18L944.4,295.8L944.4,297.61L946.2,301.23L946.2,304.85L946.2,308.47L946.2,313.89L946.2,317.51L946.2,321.13L946.2,326.56L946.2,330.18L946.2,333.8L946.2,337.41L946.2,341.03L946.2,344.65L948.01,350.08L948.01,353.7L948.01,359.12L948.01,362.74L948.01,366.36L948.01,371.79L948.01,377.22L948.01,382.64L948.01,388.07L948.01,393.5L948.01,397.12L948.01,402.54L948.01,406.16L948.01,409.78L948.01,411.59L948.01,415.21L948.01,420.64L948.01,424.25L948.01,427.87L948.01,433.3L948.01,436.92L948.01,440.54L949.82,442.35L949.82,445.96L949.82,449.58L951.63,451.39L951.63,455.01L953.44,460.44L953.44,464.06L953.44,467.67L955.25,473.1L955.25,476.72L957.06,480.34L957.06,482.15L958.87,483.96L958.87,485.77L960.68,487.58L962.49,489.39L962.49,491.19L964.3,493L966.11,493L969.72,494.81L973.34,496.62L978.77,498.43L984.2,498.43L991.43,498.43L998.67,496.62L1005.91,496.62L1013.14,496.62L1020.38,498.43" fill="none" stroke="#000000" style="-webkit-tap-highlight-color: rgba(0, 0, 0, 0); stroke-linecap: round; stroke-linejoin: round; stroke-width: 5;" /><path d="M861.17,73.27L859.36,71.46L859.36,69.65L857.55,69.65L855.75,69.65L855.75,75.08L857.55,78.7L859.36,84.13L859.36,89.55L861.17,94.98L862.98,102.22L862.98,107.65L862.98,114.88L862.98,122.12L862.98,127.55L862.98,134.78L862.98,142.02L861.17,149.26L861.17,156.49L861.17,163.73L861.17,170.97L861.17,178.2L861.17,183.63L861.17,189.06L861.17,194.49L861.17,199.92L861.17,205.34L861.17,210.77L861.17,216.2L862.98,219.82L862.98,225.24L862.98,230.67L862.98,236.1L862.98,241.53L864.79,246.95L864.79,250.57L864.79,256L866.6,261.43L866.6,266.86L868.41,270.47L868.41,275.9L870.22,279.52L870.22,283.14L872.03,288.57L872.03,293.99L872.03,299.42L872.03,304.85L872.03,312.08L873.84,319.32L873.84,324.75L873.84,331.99L873.84,339.22L873.84,344.65L873.84,350.08L875.65,355.51L875.65,360.93L875.65,366.36L877.46,371.79L877.46,377.22L877.46,382.64L879.27,388.07L879.27,393.5L881.07,398.93L881.07,404.35L881.07,417.02L881.07,424.25L881.07,431.49L881.07,438.73L881.07,445.96L881.07,451.39L881.07,456.82L881.07,464.06L881.07,469.48L881.07,474.91L881.07,482.15L881.07,485.77L882.88,489.39L882.88,494.81L882.88,496.62L882.88,500.24L882.88,503.86L882.88,507.48L882.88,511.1L882.88,516.52L884.69,520.14L884.69,527.38L884.69,534.61L884.69,538.23L884.69,541.85L884.69,540.04L884.69,536.42" fill="none" stroke="#000000" style="-webkit-tap-highlight-color: rgba(0, 0, 0, 0); stroke-linecap: round; stroke-linejoin: round; stroke-width: 5;" /><path d="M882.88,94.98L882.88,96.79L881.07,98.6L882.88,94.98L881.07,98.6L879.27,105.84L877.46,114.88L877.46,125.74L879.27,136.59L881.07,147.45L882.88,154.69L882.88,161.92L884.69,169.16L886.5,172.78L886.5,178.2L886.5,183.63L888.31,189.06L888.31,192.68L888.31,196.3L890.12,199.92L890.12,203.53L890.12,208.96L890.12,212.58L890.12,218.01L890.12,223.43L890.12,228.86L890.12,234.29L890.12,239.72L891.93,245.14L891.93,252.38L891.93,259.62L893.74,265.05L893.74,272.28L893.74,279.52L893.74,286.76L893.74,292.18L893.74,299.42L893.74,303.04L893.74,306.66L893.74,312.08L893.74,317.51L893.74,321.13L893.74,326.56L893.74,330.18L893.74,331.99L893.74,333.8L893.74,337.41L893.74,341.03L893.74,344.65L893.74,348.27L893.74,350.08L893.74,353.7L893.74,357.31L893.74,362.74L893.74,366.36L893.74,368.17L893.74,371.79L893.74,377.22L893.74,382.64L893.74,388.07L893.74,395.31L893.74,411.59L893.74,420.64L893.74,429.68L893.74,438.73L895.55,449.58L895.55,458.63L895.55,465.87L895.55,474.91L895.55,483.96L895.55,491.19L895.55,498.43L895.55,503.86L893.74,507.48L893.74,511.1L893.74,512.9L893.74,514.71L893.74,518.33L893.74,521.95L893.74,527.38L891.93,531L891.93,534.61L891.93,536.42L891.93,532.81L891.93,527.38" fill="none" stroke="#000000" style="-webkit-tap-highlight-color: rgba(0, 0, 0, 0); stroke-linecap: round; stroke-linejoin: round; stroke-width: 5;" /><path d="M466.77,480.34L464.96,482.15L464.96,483.96L464.96,482.15L464.96,478.53L464.96,474.91L464.96,469.48L466.77,465.87L468.58,460.44L470.39,455.01L472.2,451.39L474.01,445.96L475.82,442.35L479.43,438.73L481.24,435.11L483.05,433.3L484.86,431.49L486.67,427.87L490.29,426.06L493.91,422.45L497.53,420.64L501.14,418.83L504.76,418.83L508.38,417.02L510.19,417.02L513.81,415.21L517.43,415.21L521.05,413.4L522.86,413.4L524.66,413.4L526.47,415.21L528.28,417.02L528.28,418.83L526.47,420.64" fill="none" stroke="#000000" style="-webkit-tap-highlight-color: rgba(0, 0, 0, 0); stroke-linecap: round; stroke-linejoin: round; stroke-width: 5;" /><path d="M510.19,377.22L512,377.22L510.19,377.22L508.38,377.22L504.76,375.41L499.34,375.41L495.72,373.6L492.1,373.6L488.48,373.6L484.86,373.6L481.24,373.6L479.43,373.6L477.63,375.41L474.01,377.22L470.39,380.83L466.77,382.64L464.96,386.26L461.34,389.88L459.53,393.5L455.92,398.93L454.11,400.73L454.11,406.16L452.3,409.78L450.49,413.4L450.49,418.83L450.49,422.45L450.49,424.25L450.49,427.87L448.68,431.49L448.68,433.3L448.68,435.11L446.87,438.73L446.87,440.54L445.06,442.35L443.25,444.16L441.44,445.96L441.44,447.77L439.63,451.39L437.82,455.01L436.01,456.82L436.01,460.44L434.2,464.06L432.4,465.87L432.4,469.48L432.4,473.1L430.59,474.91L430.59,476.72L430.59,480.34L430.59,483.96L430.59,485.77L430.59,489.39L430.59,491.19L430.59,493L430.59,494.81L428.78,496.62L428.78,494.81L428.78,493L430.59,493L430.59,491.19" fill="none" stroke="#000000" style="-webkit-tap-highlight-color: rgba(0, 0, 0, 0); stroke-linecap: round; stroke-linejoin: round; stroke-width: 5;" /><path d="M436.01,485.77L436.01,487.58L434.2,487.58L432.4,489.39L430.59,489.39L426.97,491.19L421.54,493L416.11,496.62L408.88,500.24L403.45,502.05L396.21,505.67L390.78,505.67L387.17,507.48L383.55,507.48L379.93,507.48L378.12,507.48L376.31,505.67L374.5,505.67L372.69,505.67L370.88,505.67L369.07,505.67L367.27,503.86L365.46,503.86L361.84,503.86L356.41,505.67L352.79,507.48L347.36,511.1L341.94,514.71L338.32,518.33L332.89,520.14L329.27,523.76L325.65,525.57L322.04,525.57L318.42,525.57L314.8,525.57L311.18,525.57L309.37,525.57L303.94,525.57L300.33,525.57L296.71,525.57L291.28,525.57L285.85,525.57L278.61,525.57L271.38,525.57L265.95,525.57L258.71,525.57L253.29,527.38L246.05,527.38L240.62,527.38L233.39,529.19L227.96,529.19L220.72,529.19L215.29,529.19L209.87,529.19L204.44,529.19L200.82,529.19L195.39,529.19L191.77,529.19L188.16,529.19L186.35,529.19L182.73,529.19L179.11,529.19L177.3,529.19L173.68,529.19L170.06,529.19L166.45,529.19L162.83,529.19L159.21,527.38L155.59,525.57L151.97,523.76L150.16,521.95L146.54,518.33L144.73,516.52L141.12,516.52L135.69,516.52L132.07,516.52L126.64,516.52L123.02,516.52L119.41,516.52L115.79,518.33L113.98,518.33L110.36,520.14L106.74,520.14L101.31,520.14L95.89,518.33L88.65,516.52L83.22,516.52L77.8,514.71L74.18,512.9L70.56,512.9L63.32,511.1L57.89,511.1L50.66,511.1L43.42,512.9L37.99,512.9L32.57,512.9L27.14,512.9L19.9,512.9L12.66,512.9L3.62,512.9" fill="none" stroke="#000000" style="-webkit-tap-highlight-color: rgba(0, 0, 0, 0); stroke-linecap: round; stroke-linejoin: round; stroke-width: 5;" /><path d="M502.95,382.64L502.95,379.02L502.95,377.22L502.95,375.41L504.76,373.6L504.76,371.79" fill="none" stroke="#000000" style="-webkit-tap-highlight-color: rgba(0, 0, 0, 0); stroke-linecap: round; stroke-linejoin: round; stroke-width: 5;" /><path d="M517.43,190.87L517.43,187.25L517.43,185.44L517.43,183.63L517.43,181.82L517.43,180.01L515.62,176.4L515.62,174.59L515.62,170.97L513.81,170.97L513.81,172.78L512,174.59L512,180.01L512,185.44L512,190.87L512,198.11L512,203.53L512,210.77L512,218.01L512,223.43L512,230.67L512,234.29L512,239.72L512,245.14L512,250.57L513.81,254.19L513.81,257.81L515.62,259.62L515.62,263.24L515.62,266.86L515.62,270.47L515.62,274.09L515.62,277.71L515.62,281.33L515.62,284.95L515.62,288.57L515.62,292.18L515.62,293.99L517.43,297.61L517.43,301.23L517.43,310.28L517.43,313.89L517.43,319.32L515.62,322.94L515.62,326.56L515.62,331.99L515.62,335.6L515.62,339.22L515.62,342.84L515.62,346.46L517.43,350.08L517.43,353.7L517.43,357.31L517.43,360.93L517.43,364.55L517.43,368.17L517.43,373.6L519.24,377.22L519.24,382.64L521.05,388.07L521.05,393.5L522.86,398.93L526.47,404.35L528.28,409.78L530.09,415.21L531.9,422.45L533.71,426.06L535.52,429.68L535.52,435.11L537.33,440.54L537.33,444.16L539.14,447.77L539.14,451.39L540.95,455.01L542.76,456.82L544.57,460.44L546.37,462.25L549.99,465.87L551.8,467.67L553.61,469.48L555.42,471.29L557.23,471.29L559.04,473.1L559.04,474.91L560.85,474.91L560.85,476.72L562.66,474.91L562.66,471.29" fill="none" stroke="#000000" style="-webkit-tap-highlight-color: rgba(0, 0, 0, 0); stroke-linecap: round; stroke-linejoin: round; stroke-width: 5;" /><path d="M407.07,189.06L405.26,189.06L405.26,187.25L403.45,187.25L401.64,187.25L401.64,185.44L399.83,185.44L399.83,187.25L399.83,189.06L398.02,192.68L398.02,198.11L398.02,203.53L399.83,210.77L401.64,218.01L403.45,225.24L405.26,232.48L407.07,237.91L408.88,245.14L410.69,250.57L412.49,256L412.49,261.43L412.49,266.86L412.49,270.47L412.49,275.9L412.49,279.52L412.49,283.14L410.69,286.76L410.69,290.37L410.69,293.99L410.69,299.42L410.69,303.04L408.88,308.47L408.88,313.89L407.07,319.32L407.07,324.75L405.26,330.18L405.26,333.8L403.45,337.41L403.45,341.03L403.45,346.46L403.45,350.08L403.45,353.7L403.45,359.12L401.64,364.55L401.64,368.17L399.83,373.6L399.83,379.02L399.83,384.45L399.83,389.88L399.83,393.5L399.83,398.93L399.83,404.35L399.83,409.78L399.83,415.21L401.64,420.64L403.45,426.06L403.45,431.49L405.26,436.92L407.07,442.35L407.07,449.58L408.88,456.82L408.88,462.25L408.88,467.67L408.88,474.91L408.88,480.34L408.88,485.77L408.88,489.39L408.88,493L410.69,494.81L412.49,496.62L414.3,496.62L416.11,496.62L417.92,491.19" fill="none" stroke="#000000" style="-webkit-tap-highlight-color: rgba(0, 0, 0, 0); stroke-linecap: round; stroke-linejoin: round; stroke-width: 5;" /><path d="M428.78,194.49L426.97,194.49L425.16,194.49L425.16,196.3L425.16,198.11L425.16,201.72L425.16,203.53L425.16,207.15L426.97,212.58L426.97,218.01L428.78,225.24L430.59,230.67L430.59,236.1L432.4,241.53L432.4,246.95L434.2,254.19L434.2,257.81L436.01,263.24L437.82,268.66L437.82,274.09L437.82,279.52L437.82,284.95L437.82,290.37L437.82,295.8L436.01,299.42L434.2,303.04L432.4,308.47L430.59,313.89L428.78,317.51L428.78,322.94L428.78,326.56L426.97,331.99L426.97,335.6L428.78,339.22L430.59,342.84L430.59,346.46L432.4,350.08L432.4,355.51L432.4,359.12L432.4,362.74L432.4,368.17L430.59,373.6L430.59,379.02L430.59,382.64L428.78,388.07L428.78,391.69L428.78,397.12L428.78,400.73L428.78,406.16L428.78,409.78L428.78,413.4L430.59,417.02L430.59,420.64L430.59,424.25L430.59,427.87L430.59,429.68L430.59,431.49L430.59,433.3L432.4,435.11L432.4,436.92L432.4,440.54L432.4,444.16L432.4,447.77L432.4,449.58L432.4,451.39L432.4,455.01L432.4,458.63L432.4,460.44L430.59,464.06L430.59,469.48L430.59,473.1L430.59,478.53L428.78,482.15L428.78,485.77L428.78,491.19L428.78,494.81L428.78,498.43L426.97,502.05L426.97,505.67L426.97,509.29L425.16,509.29L425.16,507.48L426.97,505.67L426.97,503.86" fill="none" stroke="#000000" style="-webkit-tap-highlight-color: rgba(0, 0, 0, 0); stroke-linecap: round; stroke-linejoin: round; stroke-width: 5;" /><path d="M540.95,489.39L539.14,489.39L539.14,487.58L539.14,485.77L540.95,485.77L544.57,485.77L549.99,485.77L555.42,485.77L560.85,483.96L566.28,482.15L571.7,482.15L577.13,482.15L582.56,482.15L589.8,483.96L595.22,487.58L600.65,489.39L606.08,493L611.51,494.81L618.74,496.62L627.79,498.43L631.41,500.24L638.64,500.24L645.88,500.24L653.12,500.24L660.35,500.24L667.59,500.24L673.02,500.24L676.64,500.24L682.06,500.24L687.49,500.24L692.92,500.24L698.35,500.24L701.96,500.24L707.39,500.24L711.01,500.24L716.44,500.24L720.06,500.24L725.48,502.05L729.1,502.05L734.53,503.86L738.15,505.67L739.96,505.67L743.58,507.48L747.19,509.29L750.81,509.29L754.43,511.1L758.05,511.1L761.67,511.1L765.29,511.1L768.9,511.1L772.52,511.1L776.14,509.29L779.76,509.29L783.38,507.48L787,507.48L790.61,507.48L794.23,507.48L799.66,509.29L803.28,511.1L808.71,512.9L814.13,516.52L817.75,518.33L821.37,521.95L824.99,523.76L828.61,525.57L830.42,525.57L834.04,527.38L835.84,527.38L839.46,527.38L843.08,527.38L846.7,527.38L850.32,527.38L852.13,525.57L855.75,525.57L855.75,523.76L857.55,523.76L853.94,523.76" fill="none" stroke="#000000" style="-webkit-tap-highlight-color: rgba(0, 0, 0, 0); stroke-linecap: round; stroke-linejoin: round; stroke-width: 5;" /><path d="M539.14,474.91L540.95,476.72L542.76,476.72L542.76,478.53L542.76,476.72L542.76,474.91L540.95,474.91L539.14,473.1L537.33,473.1L533.71,473.1L530.09,471.29L526.47,471.29L521.05,471.29L517.43,471.29L513.81,471.29L510.19,471.29L506.57,471.29L504.76,471.29L501.14,471.29L497.53,471.29L493.91,471.29L492.1,471.29L486.67,473.1L483.05,474.91L479.43,476.72L475.82,478.53L472.2,480.34L468.58,482.15L466.77,483.96L464.96,485.77L463.15,487.58L463.15,489.39L461.34,491.19L461.34,493L459.53,493L457.72,494.81L455.92,494.81L454.11,496.62L450.49,496.62L446.87,498.43L443.25,500.24L439.63,500.24L436.01,500.24L432.4,502.05L428.78,502.05L425.16,502.05L421.54,502.05L419.73,503.86L416.11,503.86L412.49,505.67L408.88,505.67L403.45,507.48L399.83,509.29L396.21,511.1L390.78,511.1L387.17,512.9L381.74,512.9L376.31,514.71L370.88,514.71L365.46,514.71L360.03,514.71L354.6,516.52L354.6,518.33L354.6,520.14L356.41,523.76L361.84,525.57L363.65,527.38" fill="none" stroke="#000000" style="-webkit-tap-highlight-color: rgba(0, 0, 0, 0); stroke-linecap: round; stroke-linejoin: round; stroke-width: 5;" /><path d="M700.16,230.67L700.16,228.86L700.16,227.05L700.16,225.24L701.96,223.43L703.77,223.43L703.77,221.63L703.77,219.82L701.96,218.01L700.16,218.01L698.35,218.01L694.73,218.01L692.92,218.01L691.11,219.82L689.3,221.63L687.49,225.24L685.68,228.86L685.68,232.48L685.68,236.1L687.49,239.72L689.3,243.34L691.11,246.95L694.73,250.57L696.54,252.38L698.35,256L700.16,257.81L701.96,257.81L703.77,257.81L705.58,257.81L707.39,254.19L709.2,252.38L711.01,246.95L711.01,243.34L711.01,237.91L711.01,232.48L711.01,227.05L707.39,225.24L703.77,223.43L700.16,221.63L696.54,221.63L692.92,223.43L687.49,227.05L685.68,232.48L685.68,236.1" fill="none" stroke="#000000" style="-webkit-tap-highlight-color: rgba(0, 0, 0, 0); stroke-linecap: round; stroke-linejoin: round; stroke-width: 5;" /><path d="M705.58,371.79L705.58,369.98L703.77,369.98L703.77,368.17L701.96,368.17L700.16,368.17L698.35,368.17L696.54,368.17L692.92,371.79L691.11,375.41L689.3,380.83L687.49,386.26L687.49,391.69L687.49,398.93L689.3,404.35L691.11,409.78L696.54,413.4L700.16,415.21L703.77,417.02L709.2,417.02L714.63,413.4L718.25,406.16L720.06,398.93L718.25,388.07L714.63,379.02L709.2,373.6L703.77,371.79L698.35,371.79L696.54,373.6L694.73,379.02L694.73,384.45L694.73,386.26" fill="none" stroke="#000000" style="-webkit-tap-highlight-color: rgba(0, 0, 0, 0); stroke-linecap: round; stroke-linejoin: round; stroke-width: 5;" /></svg>