<?xml version="1.0" encoding="utf-8" ?>
<svg baseProfile="full" height="776" version="1.1" width="1024" xmlns="http://www.w3.org/2000/svg" xmlns:ev="http://www.w3.org/2001/xml-events" xmlns:xlink="http://www.w3.org/1999/xlink"><defs /><path d="M1.81,306.66" fill="none" stroke="#000000" style="-webkit-tap-highlight-color: rgba(0, 0, 0, 0); stroke-linecap: round; stroke-linejoin: round; stroke-width: 5;" /><path d="M0,303.04L6,308L6,308L7,308L9,308L10,308L10,308L14,309L19,309L25,307L22,308L27,307L25,307L29,307L31,307L33,307L33,307L33,307L37,308L37,308L39,308L39,308L42,309L47,310L42,309L47,310L48,310L50,311L50,311L56,314L53,312L56,314L59,315L62,316L62,316L67,319L65,318L68,320L71,320L72,320L74,321L76,322L78,323L79,325L79,325L79,327L83,329L83,329L85,330L87,331L92,332L94,332L95,332L97,333L105,333L105,333L110,332L110,332L112,332L116,331L120,330L116,331L120,330L122,329L125,328L123,329L128,327L128,327L130,326L132,325L132,325L134,325L137,324L139,323L139,323L143,322L143,322L148,321L148,321L145,322L154,320L150,321L156,320L163,318L168,317L163,318L170,316L170,316L174,315L178,313L178,313L178,313L179,313L187,314L179,313L179,313L187,314L190,314L188,314L191,314L199,310L201,310L199,310L203,310L217,308L210,309L213,309L208,309L219,307L219,307L219,307L219,307L227,308L219,307L228,308L237,306L241,302L239,304L242,301L241,302L243,300L243,300L243,300L243,300L246,299L246,299L250,299L248,299L255,295L255,295L250,299L257,294L261,294L260,294L262,291L263,290L266,289L270,284L266,287L268,285L270,280L273,280L271,280L277,276L276,274L276,274L277,270L277,268L278,267L280,265L279,267L280,265L280,263L284,261L286,261L286,261L282,261L286,261L286,263L288,265L291,263L297,259L294,261L299,259L301,259L306,261L311,261L308,261L313,261L323,258L323,258L321,259L321,259L328,257L330,256L332,255L332,255L333,255L335,255L335,255L335,255L342,258L349,255L349,255L349,255L349,255L353,256L358,255L358,255L363,254L364,254L365,254L365,254L369,256L374,256L376,257L373,256L376,257L376,258L379,261L381,262L381,262L385,265L381,262L385,265L387,267L391,270L389,269L389,269L393,272L394,272L399,275L396,273L404,274L404,274L407,273L405,273L409,273L412,276L416,277L412,276L414,277L418,276L422,279L423,279L420,278L427,278L432,281L430,279L425,278L441,283L448,283L438,283L444,283L452,280L450,282L452,280L451,283L454,278L457,276L458,269L455,271L458,266L458,260L458,263L458,260L454,254L456,258L456,256L454,252L455,251L456,248L458,249L458,249L460,249L461,249L461,249L463,249L465,249L467,249L474,245L474,245L474,245L474,245L478,244L479,242L479,242L481,241L482,243L485,241L487,242L486,243L487,240L487,238L487,238L487,238L492,228L493,232L492,228L492,228L493,225L493,223L494,222L493,223L497,221L494,222L498,221L499,221L504,220L504,220L510,214L510,214L511,212L510,213L515,210L518,208L522,205L522,205L523,205L527,204L530,203L530,203L533,202L536,200L537,199L539,198L539,198L545,196L545,196L550,197L552,197L555,197L557,197L561,197L559,197L563,197L568,196L570,195L572,194L572,194L574,194L575,194L581,190L581,190L583,190L584,190L586,190L589,191L590,191L592,190L593,190L594,192L597,189L599,189L601,189L602,189L607,188L608,188L604,189L612,189L615,188L617,188L615,188L621,187L621,187L626,189L621,187L628,189L630,189L632,188L633,188L634,188L640,188L640,188L637,189L640,188L642,191L643,193L640,190L643,193L644,194L644,194L646,191L648,193L651,188L654,187L649,191L655,183L660,175L659,179L662,176L661,172L664,171L666,166L666,166L664,169L666,164L668,161L668,160L670,158L671,156L673,155L675,153L678,151L678,151L680,151L683,150L684,150L688,148L689,148L693,147L693,147L695,147L697,147L697,147L700,148L700,148L702,149L708,149L708,149L711,149L709,149L713,149L715,150L715,150L719,150L720,147L724,146L722,146L724,145L725,141L727,142L729,140L731,140L733,140L734,140L734,140L740,139L746,137L749,134L740,139L750,133L753,128L754,124L754,124L755,121L755,121L756,121L761,118L762,118L765,117L769,116L770,116L775,115L782,114L786,112L776,115L786,112L786,112L787,112L787,112" fill="none" stroke="#000000" style="-webkit-tap-highlight-color: rgba(0, 0, 0, 0); stroke-linecap: round; stroke-linejoin: round; stroke-width: 5;" /><path d="M793,112L793,112L802,106L802,106L802,106L803,105L805,104L803,105L805,104L809,103L811,103L814,102L814,102L818,102L818,102L816,102L822,102L828,101L823,102L833,99L833,99L834,99L836,99L843,99L839,99L851,98L851,98L857,97L852,98L857,97L861,97L858,97L863,97L869,96L865,97L869,96L869,96L877,97L874,97L879,97L869,96L881,97L882,97L887,98L891,97L891,97L896,96L892,97L896,96L901,96L905,96L904,96L909,96L910,96L912,96L914,96L916,96L920,96L921,96L921,96L921,96L930,98L932,98L930,98L932,98L941,96L944,96L943,96L941,96L944,96L951,97L950,97L948,97L951,97L951,97L951,97L951,97L952,99L951.63,107.65L948,107L952,109L955,110L959,112L962,114L964,114L966,120L966,118L969,122L968,126L964,132L968,128L964,132L971,137L971,140L962,144L962,144L963,147L963,149L969,151L969,153L969,155L969,158L969,160L969,164L969,166L969,167L967,169L969,173L969,175L970,176L970,180L971,185L970,191L970,182L971,194L970,200L970,198L970,205L970,213L969,223L971,229L969,218L971,233L972,236L971,240L971,247L970,243L971,249L971,252L971,254L971,256L970,260L970,261L970,264L971,267L970,269L968,274L968,276L968,280L968,283" fill="none" stroke="#000000" style="-webkit-tap-highlight-color: rgba(0, 0, 0, 0); stroke-linecap: round; stroke-linejoin: round; stroke-width: 5;" /><path d="M968,286L968,285L968,286L968,286L970,286L972,286" fill="none" stroke="#000000" style="-webkit-tap-highlight-color: rgba(0, 0, 0, 0); stroke-linecap: round; stroke-linejoin: round; stroke-width: 5;" /><path d="M1024,284.95L973,286" fill="none" stroke="#000000" style="-webkit-tap-highlight-color: rgba(0, 0, 0, 0); stroke-linecap: round; stroke-linejoin: round; stroke-width: 5;" /><path d="M973,286L981,286L977,286L982,286L984,286L986,286L991,285L997,285L993,285L1002,284L1000,284L1006,285L1010,284L1017,284L1013,284L1022,283L1022,283L1020,284" fill="none" stroke="#000000" style="-webkit-tap-highlight-color: rgba(0, 0, 0, 0); stroke-linecap: round; stroke-linejoin: round; stroke-width: 5;" /><path d="M969.72,341.03L971,339L971,339L967,339L964,338L962,338L959,339L955,340L953,341L949,342L946,346L939,349L943,345L934,350L931,351L926,353L922,355L919,356L916,357L910,359L910,359L905,360L903,360L903,360L897,362L896,363L893,365L888,368L885,370L883,369L880,372L877,375L875,375L872,377L867,376L863,378L858,381L854,383L849,382L838,387L841,386L846,384L836,388L827,389L829,388L834,388L825,389L816,393L821,392L820,392L814,393L811,393L809,393L808,394L804,396L803,397L800,399L796,400L792,400L783,401L791,401L787,399" fill="none" stroke="#000000" style="-webkit-tap-highlight-color: rgba(0, 0, 0, 0); stroke-linecap: round; stroke-linejoin: round; stroke-width: 5;" /><path d="M773,408L778,406L781,405L769,407L761,412L765,410L758,412L757,413L748,415L751,414L754,414L747,417L747,420L747,422L747,420" fill="none" stroke="#000000" style="-webkit-tap-highlight-color: rgba(0, 0, 0, 0); stroke-linecap: round; stroke-linejoin: round; stroke-width: 5;" /><path d="M1013.14,362.74L1017,360L1017,359L1019,359L1006,361L1013,359L1002,365L999,366L997,366L992,367L988,368L979,372L984,368L980,370L975,372L971,374L966,372L970,373L963,374L959,374L960,375L952,377L955,375L943,379L948,379L939,380L934,383L930,383L925,387L922,385L924,387L910,390L911,389L906,391L901,393L900,390L896,394L894,393L890,393L880,399L885,395L863,400L869,396L854,401L840,408L847,404L839,409L825,405L811,416L820,407L806,415L798,417L796,416L801,417L794,417" fill="none" stroke="#000000" style="-webkit-tap-highlight-color: rgba(0, 0, 0, 0); stroke-linecap: round; stroke-linejoin: round; stroke-width: 5;" /><path d="M790,415L793,418L792,420L789,421L785,418L783,419L778,421L783,421L774,421L773,421L767,423L769,423L765,425L763,425L763,429L764,429L758.05,447.77L760,443L762,442L763,440L749,451L760,443L754,447L741,457L728,468L733,465L722,471" fill="none" stroke="#000000" style="-webkit-tap-highlight-color: rgba(0, 0, 0, 0); stroke-linecap: round; stroke-linejoin: round; stroke-width: 5;" /><path d="M724,470L725,472L728,471L733,470L770.71,458.63L770,455L770,456L762,463L756,466L751,468" fill="none" stroke="#000000" style="-webkit-tap-highlight-color: rgba(0, 0, 0, 0); stroke-linecap: round; stroke-linejoin: round; stroke-width: 5;" /><path d="M746,473L745,475L745,477L721.87,464.06L718,468L720,470L720,471L720,474L720,474L720,477L718,479L718,479L718,482L719,486L718,488L718,490L718,499L716,500L715,499L716,504L716,507L716,507L716,509L716,511L716,514L716,517L716,517L716,520L715,522L716,523L715,526L717,527L716,530L716,534L716,528L716,534L716,536L715,537L717,540L716,541" fill="none" stroke="#000000" style="-webkit-tap-highlight-color: rgba(0, 0, 0, 0); stroke-linecap: round; stroke-linejoin: round; stroke-width: 5;" /><path d="M717,536L719,532" fill="none" stroke="#000000" style="-webkit-tap-highlight-color: rgba(0, 0, 0, 0); stroke-linecap: round; stroke-linejoin: round; stroke-width: 5;" /><path d="M736.34,469.48L738,466L738,466L738,469L738,475L740,480L740,488L740,492L742,500L742,506L743,509L746,512L746,512L746,512L750,515" fill="none" stroke="#000000" style="-webkit-tap-highlight-color: rgba(0, 0, 0, 0); stroke-linecap: round; stroke-linejoin: round; stroke-width: 5;" /><path d="M750,515L723.67,480.34L750,515L724,478L724,477L725,475L725,473L725,482L724,477L725,488L725,495L725,504L725,514" fill="none" stroke="#000000" style="-webkit-tap-highlight-color: rgba(0, 0, 0, 0); stroke-linecap: round; stroke-linejoin: round; stroke-width: 5;" /><path d="M724,519L727,519L726,522L729,521L700.16,552.71L704,552L704,551L704,550L697,551L696,551L688,556L682,554L675,562L676,560L666,565L671,565L661,571L659,573L656,573L651,575L651,580L645,582L639,587L642,582L631,591L635,589L628,593L625,594L621,598L621,596L617,602L617,600L617,605L615,606L613,609L609,614L613,611" fill="none" stroke="#000000" style="-webkit-tap-highlight-color: rgba(0, 0, 0, 0); stroke-linecap: round; stroke-linejoin: round; stroke-width: 5;" /><path d="M610,615L608,618L608,620L608,620L606,622L595.22,635.93L601,628L601,628L604,625L599,631L595,631L595,631L597,631L592,633L592,633L599,634L592,633L592,633L592,633L608,630L595,631L602,631L615,629L628,630L622,627L632,631L640,635L653,634L644,635L648,634L671,636L666,636L656,636L662,636" fill="none" stroke="#000000" style="-webkit-tap-highlight-color: rgba(0, 0, 0, 0); stroke-linecap: round; stroke-linejoin: round; stroke-width: 5;" /><path d="M687,636L680,636L684,635L675,635L691,636L698,637L694,636L700,637L703.77,648.59L704,637L702,637L702,646L702,646L700,641L702,635L705,636L707,636L711,637L713,640L715,643L716,649L716,651L716,659L717,661L715,665L716,668L714,679L713,676L715,687L715,686L714,694L715,690L714,697L715,698L713,703L714,706L712,708L711,712L711,714L711,715L709,718L709,721" fill="none" stroke="#000000" style="-webkit-tap-highlight-color: rgba(0, 0, 0, 0); stroke-linecap: round; stroke-linejoin: round; stroke-width: 5;" /><path d="M709,723L706,726L706,728L706,731L706,732L705,734L706,739L704,741L704,748L704,745L702,764L699,749L702,764L702,764L702,769L702,769L702,774L702,771L702,774" fill="none" stroke="#000000" style="-webkit-tap-highlight-color: rgba(0, 0, 0, 0); stroke-linecap: round; stroke-linejoin: round; stroke-width: 5;" /><path d="M754.43,540.04L753,536L764,542L760,542L769,542L772,545L774,546L778,550L782,553L785,555L789,557L787,555L790,560L793,561L796,563L804,569L800,566L813,573L807,573L820,576L815,574L828,582L826,577L833,583L836,584L841,588L838,586L846,593L843,591L854,598L851,596L858,600L862,602L867,606L865,605L873,609L875,610L883,611L889,618L890,625L889,618L892,627L897,631L903,636L901,634L906,639L908,639L913,644L912,642L916,644L919,648L921,650L925,652L925,652L927,653L923,655L929,656L934,658L934,659L935,661L937,663L939,663L944,667L941,665L944,668L946,669L949,672L954,674L947,672L954,679L955,678" fill="none" stroke="#000000" style="-webkit-tap-highlight-color: rgba(0, 0, 0, 0); stroke-linecap: round; stroke-linejoin: round; stroke-width: 5;" /><path d="M961,683L957,681L962,685L966,687L973,692L970,691L977,694L978,695L982,692L985,696L985,697L986,698L988,701L989,703L991,706L993,705L993,709L991,706L995,708L996,713L995,714L995,716L995,710L995,716L996,717" fill="none" stroke="#000000" style="-webkit-tap-highlight-color: rgba(0, 0, 0, 0); stroke-linecap: round; stroke-linejoin: round; stroke-width: 5;" /><path d="M920.88,525.57" fill="none" stroke="#000000" style="-webkit-tap-highlight-color: rgba(0, 0, 0, 0); stroke-linecap: round; stroke-linejoin: round; stroke-width: 5;" /><path d="M996,722L997,723L998,725L996,725L998,724L998,725" fill="none" stroke="#000000" style="-webkit-tap-highlight-color: rgba(0, 0, 0, 0); stroke-linecap: round; stroke-linejoin: round; stroke-width: 5;" /><path d="M917,525" fill="none" stroke="#000000" style="-webkit-tap-highlight-color: rgba(0, 0, 0, 0); stroke-linecap: round; stroke-linejoin: round; stroke-width: 5;" /><path d="M1002,717" fill="none" stroke="#000000" style="-webkit-tap-highlight-color: rgba(0, 0, 0, 0); stroke-linecap: round; stroke-linejoin: round; stroke-width: 5;" /><path d="M914,526L915,526L915,523L921,525L918,524L917,524" fill="none" stroke="#000000" style="-webkit-tap-highlight-color: rgba(0, 0, 0, 0); stroke-linecap: round; stroke-linejoin: round; stroke-width: 5;" /><path d="M923,524L939,525L929,524L934,526L946,526L957,525L953,524L962,525L966,521L975,519L980,520L980,520L972,521L994,517L988,521L993,517L991,517" fill="none" stroke="#000000" style="-webkit-tap-highlight-color: rgba(0, 0, 0, 0); stroke-linecap: round; stroke-linejoin: round; stroke-width: 5;" /><path d="M920.88,478.53" fill="none" stroke="#000000" style="-webkit-tap-highlight-color: rgba(0, 0, 0, 0); stroke-linecap: round; stroke-linejoin: round; stroke-width: 5;" /><path d="M999,516L997,515L994,517L997,515" fill="none" stroke="#000000" style="-webkit-tap-highlight-color: rgba(0, 0, 0, 0); stroke-linecap: round; stroke-linejoin: round; stroke-width: 5;" /><path d="M919,481L916,479L915,479L914,484L914,486L912,489L910,496L908,496L908,505L908,502L908,514L908,509" fill="none" stroke="#000000" style="-webkit-tap-highlight-color: rgba(0, 0, 0, 0); stroke-linecap: round; stroke-linejoin: round; stroke-width: 5;" /><path d="M907,518L908,516L908,519L906,522L907,518L908,519" fill="none" stroke="#000000" style="-webkit-tap-highlight-color: rgba(0, 0, 0, 0); stroke-linecap: round; stroke-linejoin: round; stroke-width: 5;" /><path d="M882.88,469.48L887,469L883,470L881,471L879,471L877,473L877,474L876,477L874,480L870,490L874,484" fill="none" stroke="#000000" style="-webkit-tap-highlight-color: rgba(0, 0, 0, 0); stroke-linecap: round; stroke-linejoin: round; stroke-width: 5;" /><path d="M868,493L868,497L868,504L866,500L868,508L868,512L867,510L868,512L869,515L868,516L867,517" fill="none" stroke="#000000" style="-webkit-tap-highlight-color: rgba(0, 0, 0, 0); stroke-linecap: round; stroke-linejoin: round; stroke-width: 5;" /><path d="M770.71,521.95L774,519L776,520L778,517L776,517L780,517L785,514L798,511L792,512" fill="none" stroke="#000000" style="-webkit-tap-highlight-color: rgba(0, 0, 0, 0); stroke-linecap: round; stroke-linejoin: round; stroke-width: 5;" /><path d="M801,511L807,510L818,509L811,509L821,509L824,509L797.85,549.09L798,544L798,544L800,541L801,542L805,540L807,538L812,536L811,538L816,535L821,536L827,535L830,534L833,536L835,538L838,540L841,539L842,542L847,542L850,544L859,546L862,549L868,550L872,552L864,551L876,555L883,554L880,554L883,554L889,559L893,557L898,556L900,554L901,554L908,552L910,552L906,552L905,552L916,552L917,549L917,551L915,549" fill="none" stroke="#000000" style="-webkit-tap-highlight-color: rgba(0, 0, 0, 0); stroke-linecap: round; stroke-linejoin: round; stroke-width: 5;" /><path d="M920,548L918,549L918,544L918,544L918,538L917,535L917,542L917,540L916,534L912,535L916,536L910,535L905,535L897,533L903,534L896,532L893,533L892,530L892,532L892,534" fill="none" stroke="#000000" style="-webkit-tap-highlight-color: rgba(0, 0, 0, 0); stroke-linecap: round; stroke-linejoin: round; stroke-width: 5;" /><path d="M781.57,460.44L782,456L783,455L782,453L783,453L783,456L784,462L783,468L783,486L783,476L783,492L783,498L783,502L783,506L785,507" fill="none" stroke="#000000" style="-webkit-tap-highlight-color: rgba(0, 0, 0, 0); stroke-linecap: round; stroke-linejoin: round; stroke-width: 5;" /><path d="M787,507L787,506" fill="none" stroke="#000000" style="-webkit-tap-highlight-color: rgba(0, 0, 0, 0); stroke-linecap: round; stroke-linejoin: round; stroke-width: 5;" /><path d="M1.81,570.8" fill="none" stroke="#000000" style="-webkit-tap-highlight-color: rgba(0, 0, 0, 0); stroke-linecap: round; stroke-linejoin: round; stroke-width: 5;" /><path d="M0,570.8L4,567L11,566L7,567L13,565L16,564L25,561L22,562L22,562L31,560L34,559L36,558L38,557L38,556L41,555L40,555L43,554L45,553L55,549L52,550L48,552L51,550L60,547L59,547L68,543L64,545L71,542L75,540L76,540L78,540L83,536L87,536L83,536L90,535L93,533L105,527L99,530L101,529L114,523L116,522L110,525L109,526L120,519L119,520L126,516L124,517L131,513L127,515L128,515L131,513L134,511L134,511L139,508L137,509L141,506L140,507" fill="none" stroke="#000000" style="-webkit-tap-highlight-color: rgba(0, 0, 0, 0); stroke-linecap: round; stroke-linejoin: round; stroke-width: 5;" /><path d="M143,505L141,506L146,503L148,502L148,502L153,499L155,498L157,497L157,497L160,495L161,494L163,493L165,491L164,492L167,490L168,487L170,487L170,485L171,486L173,484" fill="none" stroke="#000000" style="-webkit-tap-highlight-color: rgba(0, 0, 0, 0); stroke-linecap: round; stroke-linejoin: round; stroke-width: 5;" /><path d="M350.98,460.44L347,462L347,462L344,461L345,464L342,464L339,464L340,464L338,469L338,469L335,470L335,475L335,475L336,480L335,482L335,484L336,488L335,489L332,491L333,493L330,494L331,497L329,497L329,497L329,499L329,501L330,503L327,506L327,506L327,509L326,510L326,513L327,514L328,517L327,518L327,520L325,523L326,522L323,524L322,525L322,525L321,533L319,533L319,533L319,534L319,534L316,539L318,540L315,542L315,544L315,544L312,544L312,547" fill="none" stroke="#000000" style="-webkit-tap-highlight-color: rgba(0, 0, 0, 0); stroke-linecap: round; stroke-linejoin: round; stroke-width: 5;" /><path d="M262.33,527.38L266,527L266,526L266,523L268,522L268,517L270,517L271,515L271,512L271,511L271,510L271,506L271,503L271,506L271,500L273,496L272,499L271,503L273,494L272,493L272,491L277,494L281,492L282,493L281,492L284,493L286,493L290,493L288,494L291,493L291,492L295,489L295,489L293,491L296,488L296,485L296,486L297,480L296,479L295,478L295,477L295,471L295,476L295,471L295,471L295,469L296,468L297,465L299,462L299,460L297,464L299,459L301,457L304,457L302,456L306,457L308,457" fill="none" stroke="#000000" style="-webkit-tap-highlight-color: rgba(0, 0, 0, 0); stroke-linecap: round; stroke-linejoin: round; stroke-width: 5;" /><path d="M309,457L311,457L313,462L313,461L313,463" fill="none" stroke="#000000" style="-webkit-tap-highlight-color: rgba(0, 0, 0, 0); stroke-linecap: round; stroke-linejoin: round; stroke-width: 5;" /><path d="M770.71,265.05L769,262L769,259L771,259L773,260L774,259L776,259L775,260L777,259L780,259L782,259L782,259L782,259L792,264L792,264L792,264L792,264L795,265L794,265L799,267L795,265L799,267L803,266L804,265L805,265L804,263L807,263L809,263L810,263L810,264L809,266L810,270L809,272L808,274L810,278L809,279L809,290L808,285L809,290L809,294L809,299L809,294L809,299L809,305L809,306L808,308L809,311L809,311L808,314L806,316L803,317L803,317L800,321L794,315L791,315L789,315L782,316L785,316L779,315L776,315L774,315L773,315L769,316L770,315L769,318L768,314L769,312L767,308L769,302L768,299L769,296L767,290L765,288L763,280L763,280L764,275L763,276L764,271L763,270L764,269L765,269L765,263L765,263L767,259L767,258L767,255L766,254" fill="none" stroke="#000000" style="-webkit-tap-highlight-color: rgba(0, 0, 0, 0); stroke-linecap: round; stroke-linejoin: round; stroke-width: 5;" /><path d="M767,252L762,260L765,253L762,261L763,263" fill="none" stroke="#000000" style="-webkit-tap-highlight-color: rgba(0, 0, 0, 0); stroke-linecap: round; stroke-linejoin: round; stroke-width: 5;" /><path d="M645.88,180.01L647,184L647,184L650,190L652,193L653,195L654,200L657,204L660,211L658,215L658,223L659,219L658,227L660,231L659,236L658,238L659,241L659,241L660,252L659,247L660,249L659,251L660,262L660,258L659,255L660,259L660,270L661,267L660,269L660,262L659,279L660,274L660,271L659,275L660,281L659,287L659,285L660,289L659,290L658,291L659,295L659,297L659,297L660,309L659,297L660,309L659,310L659,313L658,319L659,316L659,324L658,328L659,321L661,330L659,333L658,336L659,335L658,339L660,345L658,340L658,346L660,345L658,348L657,351L655,356L659,350L655,357L652,363L654,359L653,360L653,364L653,366L652,367L653,370L655,371L655,374L655,374L654,380L657,381L658,384L657,386L657,391L657,391L658,393L655,393L652,392L650,395L649,396L648,395L648,397L646,398L644,402L642,404L644,401L639,406L641,408L639,411L639,410L639,413L639,415L639,415L637,420L640,421L637,425L640,421L639,432L637,427L639,432L639,432L639,436L637,438L637,441L637,441L637,446L636,444L633,450L633,450L631,452L633,450L631,457L632,454L631,459L631,459L631,462L630,464L630,465L630,465L630,465L632,473L632,473L632,474L631,476L631,476L635,484L629,480L632,485L632,486L635,489L632,487L634,491L632,493L633,495L633,498L635,498L635,498L637,504L637,502L637,507L637,506L637,509" fill="none" stroke="#000000" style="-webkit-tap-highlight-color: rgba(0, 0, 0, 0); stroke-linecap: round; stroke-linejoin: round; stroke-width: 5;" /><path d="M637,511L637,513L637,515L638,518L637,515L638,520L637,523L637,524L637,525L637,525L637,529L637,531L636,534L635,535L635,535L637,538" fill="none" stroke="#000000" style="-webkit-tap-highlight-color: rgba(0, 0, 0, 0); stroke-linecap: round; stroke-linejoin: round; stroke-width: 5;" /><path d="M654.93,389.88" fill="none" stroke="#000000" style="-webkit-tap-highlight-color: rgba(0, 0, 0, 0); stroke-linecap: round; stroke-linejoin: round; stroke-width: 5;" /><path d="M637,539L637,543L635,543L637,543L637,545" fill="none" stroke="#000000" style="-webkit-tap-highlight-color: rgba(0, 0, 0, 0); stroke-linecap: round; stroke-linejoin: round; stroke-width: 5;" /><path d="M652,390L650,390L650,390L649,392L650,401L650,395L653,404L655,410L655,416L655,422L656,426L655,430L655,434L655,434L656,439L654,442L654,441L655,444L655,448L655,450L655,450L655,453L656,455L656,457L654,459L652,464L654,460L652,469L652,468L653,472L653,476L652,482L652,479L652,484L653,485L653,487L652,491L653,493L653,489L654,495L655,499L655,497L655,497L656,501L653,505L653,505L654,503L652,510L653,509L653,507L655,513L653,519L653,519L653,522L655,515L654,524L653,525L653,529L653,527L653,531L653,534L652,533L654,536L653,538L653,540L653,540L653,544L653,544L650,544L651,544L650,544L644,540L637,543L640,543L637,539L631,543" fill="none" stroke="#000000" style="-webkit-tap-highlight-color: rgba(0, 0, 0, 0); stroke-linecap: round; stroke-linejoin: round; stroke-width: 5;" /><path d="M629,536L631,535L629,536L631,543" fill="none" stroke="#000000" style="-webkit-tap-highlight-color: rgba(0, 0, 0, 0); stroke-linecap: round; stroke-linejoin: round; stroke-width: 5;" /><path d="M483.05,284.95L479,284L478,284L477,285L476,287L472,288L472,288L476,289L481,289L476,289L483,290L487,289L494,289L498,289L492,289L501,292L500,292L503,292L504,294L508,298L510,298L506,295L510,298L513,308L511,303L512,301L512,305L514,309L512,317L514,315L514,313L512,322L513,324L512,326L512,326L512,326L507,333L507,335L507,335L507,335L507,335L505,338L516,354L516,354L516,354L516,354L515,356L516,354L516,354L515,356L515,356L515,356L515,356L515,356L515,356L499,366L499,367L499,367L499,367L498,368L503,390L503,390L503,390L503,392L503,392L502,395L502,405L502,405L502,412L502,405L502,412L502,414L502,414L501,421L501,424L501,425L500,431L500,433L500,436L501,442L501,442L501,446L501,448L501,450L501,451L501,452L501,457L501,459L500,462L501,465L501,465L501,470L500,469L498,475L498,477L498,483L499,478L498,485L498,485L498,496L498,485L494,493" fill="none" stroke="#000000" style="-webkit-tap-highlight-color: rgba(0, 0, 0, 0); stroke-linecap: round; stroke-linejoin: round; stroke-width: 5;" /><path d="M498,496L498,498L499,499L498,496L499,503L499,506L499,507L499,504L499,509L499,510L498,515L498,513L498,515" fill="none" stroke="#000000" style="-webkit-tap-highlight-color: rgba(0, 0, 0, 0); stroke-linecap: round; stroke-linejoin: round; stroke-width: 5;" /><path d="M398.02,420.64" fill="none" stroke="#000000" style="-webkit-tap-highlight-color: rgba(0, 0, 0, 0); stroke-linecap: round; stroke-linejoin: round; stroke-width: 5;" /><path d="M498,520L498,520L498,522L498,522L499,531L499,531L498,522L499,531L498,533L498,538L498,533L498,538L498,538" fill="none" stroke="#000000" style="-webkit-tap-highlight-color: rgba(0, 0, 0, 0); stroke-linecap: round; stroke-linejoin: round; stroke-width: 5;" /><path d="M398,417L396,417L396,417L394,415L394,415L387,415L391,413L387,417L386,417L379,419L384,416L378,418L375,422L372,422L371,422L369,424L367,427L365,430L365,430L367,426L363,441L365,436L365,443L365,437L365,443L367,446L369,448L372,450L384,452L387,450L378,450L390,450L394,450L399,448L395,450L398,450L402,448L403,445L403,445" fill="none" stroke="#000000" style="-webkit-tap-highlight-color: rgba(0, 0, 0, 0); stroke-linecap: round; stroke-linejoin: round; stroke-width: 5;" /><path d="M404,442L405,439L405,441L407,434L407,433L405,430L405,430L400,427L401,427L393,425L398,428L389,426L390,426L387,426L389,426L390,426L393,425L396.21,445.96L394,450L394,450L394,453L393,454L396,457L395,460L395,459L398,462L398,462L399,466L400,468L400,468L400,472L400,470L402,475L402,476L402,479L402,481L401,484L403,486L401,489L402,490L402,492L400,496L401,498L400,500L400,504L400,506" fill="none" stroke="#000000" style="-webkit-tap-highlight-color: rgba(0, 0, 0, 0); stroke-linecap: round; stroke-linejoin: round; stroke-width: 5;" /><path d="M400,506L400,513L400,508L403,515L402,516L400,520L402,518L402,519L401,527L401,527L401,527" fill="none" stroke="#000000" style="-webkit-tap-highlight-color: rgba(0, 0, 0, 0); stroke-linecap: round; stroke-linejoin: round; stroke-width: 5;" /><path d="M332.89,404.35L329,406L327,408L325,412L324,412L322,413L316,417L311,424L313,421L310,425L308,426L306,429L304,430L302,431L301,432L300,433L300,434L299,435L295,438L297,436L291,442L292,440L289,443L287,444L286,444L286,444L286,444L286,444L278,443L278,443L278,443L277,443L271,448L271,448L271,448L268,448L266,447L261,447L256,447L255,448L250,448L247,450L247,450L250,448L244,449L241,450L242,449L238,450L237,449L236,450L232,450L233,449L229,450L229,450L226,448L223,448L221,448L215,448L208,449L212,447L206,448L203,448L199,444L201,447L197,444L195,444L194,444L192,444L185,439L187,444L183,439L179,439L177,439L175,439L172,439L170,439L168,439L166,439L165,439L163,439L157,440L162,439L155,439L155,439L150,440L152,440L147,440L143,440L145,440L148,440L141,440L136,441L139,441L134,442L132,442L125,442L127,442L130,442L121,443L123,442L119,442L118,442L116,442L113,442L110,441L112,441L109,441L106,442L100,442L103,441L98,442L96,442L92,444L100,442L92,444L87,442L91,444L89,442L85,444L85,444L81,446L80,442L78,442L74,443L72,442L75,444L70,446L66,448L65,448L69,445L67,445L70,443L67,443L64,446L69,443L74,443L76,442L78,442L72,442L80,442L80,442L83,440L85,441L87,442L89,442L92,442L93,441L96,442L101,436L104,435L100,439L109,431L105,432L109,430L112,428L117,428L120,428L116,428L119,428L126,425L123,426L127,426L129,424L129,424L136,428L137,427L139,426L139,426L143,424L142,424L145,424L147,425L150,423L152,422L148,421L152,422L154,421L157,421L157,421L159,421L161,418L159,419L166,416L165,416L170,416L176,410L174,410L181,415L188,414L183,415L186,414L190,414L195,415L201,416L195,416L198,417L204,415L206,414L210,412L208,412L213,410L219,408L215,409L211,411L226,404L223,407L221,406L224,407L231,404L227,404L231,403L232,404L240,397L236,398L236,398L239,398L246,399L249,397L247,397L251,395L256,395L257,392L259,394L261,393L266,392L262,392L270,390L268,390L271,390L273,390L273,387L274,387L277,389L282,389L279,389L279,389" fill="none" stroke="#000000" style="-webkit-tap-highlight-color: rgba(0, 0, 0, 0); stroke-linecap: round; stroke-linejoin: round; stroke-width: 5;" /><path d="M284,386L286,386L288,386L289,386L291,386L293,386L294,386L297,388L301,388L298,388L304,386L304,386L307,385L310,387L308,386L311,387L313,387L316,392L289.47,402.54L318,393L316,390L320,394L319,393L324,394L321,395L326,395L326,395L330,394L331,394L333,397L335,399L333,394L335,400L337,404L337,402L332,403L332,403L329,406L329,407L329,407L328,408L329,407L329,406L331,403L331,403L285,404L290,404L286,402L285,403L284,401L283,401L280,399L279,399L277,400L275,401L271,401L273,400L270,401L268,404L266,403L264,403L262,407L262,408L260,407L258,411L256,410L256,408L253,407L255,408L249,410L249,407L248,412L243,414L242,414L241,417L239,419L237,420L232,420L235,420L232,420L232,418L231,419L227,420L228,420L223,418L223,420L218,421L215,421L211,423L203,420L208,422L204,422L201,421L197,419L195,419L199,419L194,419L192,419L190,419L187,420L186,421L185,421L181,422L182,421L179,422L173,421L171,421L178,422L170,422L168,422L166,423L165,423L160,423L163,424L160,423L157,425L154,427L156,427L152,426L150,427L148,431L148,431L148,433L148,433L151,436L148,433L152,435L155,435L156,436L158,437L159,437L159,440L163,439L162,439L166,439L165,439L168,439L170,439L172,439L172,439L174,439L175,439L179,444L177,444L181,443L186,444L183,443L184,443L190,439L192,439L194,439L195,439L197,439L201,439L204,439L206,439L203,439L208,439L212,439L215,442L214,442L219,442L224,439L221,442L222,442L226,439L230,439L228,439L232,439L233,439L239,439L235,439L237,439L241,439L242,439L244,439L248,439L246,439L250,439L251,439L253,439L255,438L255,438L257,438L259,437L259,437L262,436L264,436L266,436L268,436L270,435L271,433L272,433L274,430L278,429L279,429L279,429L279,427L279,424L280,427L282,420L282,420L284,418L284,417L287,415L286,416" fill="none" stroke="#000000" style="-webkit-tap-highlight-color: rgba(0, 0, 0, 0); stroke-linecap: round; stroke-linejoin: round; stroke-width: 5;" /><path d="M288,413L287,412L289,412L287,412L291,408L288,410L290,404L290,404L287,402L290,404" fill="none" stroke="#000000" style="-webkit-tap-highlight-color: rgba(0, 0, 0, 0); stroke-linecap: round; stroke-linejoin: round; stroke-width: 5;" /><path d="M300.33,460.44L297,457L304,457L313,462L308,457L317,464L319,464L327,463L321,464L327,463L331,462L333,463L336,461" fill="none" stroke="#000000" style="-webkit-tap-highlight-color: rgba(0, 0, 0, 0); stroke-linecap: round; stroke-linejoin: round; stroke-width: 5;" /><path d="M329,463L294.9,474.91L298,474L303,474L306,474L311,474L315,476L321,474L318,476L325,473" fill="none" stroke="#000000" style="-webkit-tap-highlight-color: rgba(0, 0, 0, 0); stroke-linecap: round; stroke-linejoin: round; stroke-width: 5;" /><path d="M327,476L327,476L327,476L294.9,482.15L295,478L297,479L300,479L300,479L304,479L309,482L312,482L316,481L326,482" fill="none" stroke="#000000" style="-webkit-tap-highlight-color: rgba(0, 0, 0, 0); stroke-linecap: round; stroke-linejoin: round; stroke-width: 5;" /><path d="M320,482L327,480L329,480L331,480L329,486L331,482L293.09,496.62L300,498L306,497L312,498L318,496L323,496L326,496" fill="none" stroke="#000000" style="-webkit-tap-highlight-color: rgba(0, 0, 0, 0); stroke-linecap: round; stroke-linejoin: round; stroke-width: 5;" /><path d="M327,496L291.28,500.24L288,500L286,497L286,497L289,497L292,497L300,498L308,500L313,499L317,500" fill="none" stroke="#000000" style="-webkit-tap-highlight-color: rgba(0, 0, 0, 0); stroke-linecap: round; stroke-linejoin: round; stroke-width: 5;" /><path d="M317,500L273.19,516.52L276,516L278,515L280,516L284,514L291,514L297,515L304,514L307,515L311,515L315,513" fill="none" stroke="#000000" style="-webkit-tap-highlight-color: rgba(0, 0, 0, 0); stroke-linecap: round; stroke-linejoin: round; stroke-width: 5;" /><path d="M317,512L317,512L318,511L311,515L273.19,521.95L270,522L284,522L280,523L293,522L289,522" fill="none" stroke="#000000" style="-webkit-tap-highlight-color: rgba(0, 0, 0, 0); stroke-linecap: round; stroke-linejoin: round; stroke-width: 5;" /><path d="M295,522L297,522L297,524L296,526L293,527L264.14,538.23L273,540L273,538L283,534L291,535" fill="none" stroke="#000000" style="-webkit-tap-highlight-color: rgba(0, 0, 0, 0); stroke-linecap: round; stroke-linejoin: round; stroke-width: 5;" /><path d="M295,535L294,535L292,536L294,535L288,540L289,540L249.67,547.28L255,544L253,545L259,544L271,544L271,544L272,543L273,542L279,541" fill="none" stroke="#000000" style="-webkit-tap-highlight-color: rgba(0, 0, 0, 0); stroke-linecap: round; stroke-linejoin: round; stroke-width: 5;" /><path d="M281,541L279,541L286,540L286,540L288,535" fill="none" stroke="#000000" style="-webkit-tap-highlight-color: rgba(0, 0, 0, 0); stroke-linecap: round; stroke-linejoin: round; stroke-width: 5;" /><path d="M325.65,456.82L321,459L320,459L321,456L318,455L317,455L315,456L316,455L319,453L322,452L324,453L335,453L324,453L343,446L337,453L346,449L346,449L347,449L349,449L352,450L353,450L357,451L357,451L357,451" fill="none" stroke="#000000" style="-webkit-tap-highlight-color: rgba(0, 0, 0, 0); stroke-linecap: round; stroke-linejoin: round; stroke-width: 5;" /><path d="M361,452L362,452L365,453L365,453L368,453L367,451L369,450L371,450L371,450L372,450L369,453" fill="none" stroke="#000000" style="-webkit-tap-highlight-color: rgba(0, 0, 0, 0); stroke-linecap: round; stroke-linejoin: round; stroke-width: 5;" /><path d="M267.76,288.57L264,287L262,286L266,287L269,289L268,289L274,289L277,289L289,289L302,290L293,288L283,288L307,286L308,287L303,290L309,287L317,286L318,286L311,286L315,286L320,286L326,289L324,287L322,286L327,289L331,288L329,288L333,289L334,289L338,288L337,288L340,290L345,289L343,289L344,289L345,289L349,293L352,292L353,294L355,296L353,300L354,298L357,297L352,302L352,302L352,302L352,302L352,302L355,315L342,306L342,306L341,307L340,308L340,308L337,306L338,307L331,310L335,308L327,312L325,315L318,318L322,316L317,324L318,318L315,324L313,322L313,327L313,324L309,327L311,326L309,328L309,328L306,328L304,330L300,330L301,330L299,332L295,331L295,331L289,332L289,332L289,332L288,334L288,334L277,329L278,329L272,332L271,331L268,330L268,330L262,331L261,328L255,326L259,326L251,326L254,327L248,327L246,327L242,326L236,327L241,327L235,327L233,327L233,327L232,325L233,327L234,324L236,322L235,318L236,318L239,316L242,313L246,313L250,312L252,312L258,312L259,312L261,311L264,314L266,313L270,313L267,313L271,313L272,314" fill="none" stroke="#000000" style="-webkit-tap-highlight-color: rgba(0, 0, 0, 0); stroke-linecap: round; stroke-linejoin: round; stroke-width: 5;" /><path d="M275,314L277,311L280,312L279,310L279,307L283,307L282,303L282,304L282,300L284,299L284,298L284,295L311.18,295.8L284,295L286,295L310,295L309,295L308,287L305,292L303,292L299,299L302,294L297,301L295,306L296,310L295,311L294,312L296,311L299,317L303,313L305,307L311,302" fill="none" stroke="#000000" style="-webkit-tap-highlight-color: rgba(0, 0, 0, 0); stroke-linecap: round; stroke-linejoin: round; stroke-width: 5;" /><path d="M312,299L315,296L315,296L313,296L310,295L309,295L309,295L356.41,297.61L353,298L353,296L353,294L356,294L354,294L360,295L366,296L367,297L370,300L373,300L376,298L380,298L383,296L387,295L391,291L394,290L396,288L400,288L402,290L403,288L409,288L407,291L411,291L413,291L417,292L420,292L422,292" fill="none" stroke="#000000" style="-webkit-tap-highlight-color: rgba(0, 0, 0, 0); stroke-linecap: round; stroke-linejoin: round; stroke-width: 5;" /><path d="M423,292L429,293L427,293L433,296L433,296L434,296L435,295L440,295L438,297L440,297L442,298" fill="none" stroke="#000000" style="-webkit-tap-highlight-color: rgba(0, 0, 0, 0); stroke-linecap: round; stroke-linejoin: round; stroke-width: 5;" /><path d="M340.13,337.41L338,333L337,331L337,330L337,328L337,328L340,328L342,328L346,325L351,324L355,325L359,324L367,327L365,325L369,327L373,332L373,329L377,337L380,338L383,344L383,346L384,347L384,350L391,354L388,353L393,354L396,354L399,354L397,354L401,354L403,353L405,355L407,356L411,356L409,356L412,356L414,356L416,356L420,357L422,354L422,354L424,354L425,352L426,352L427,350L425,345L425,347L425,345L423,343L423,343L423,343L428,334L432,331L429,333L433,329L428,334L436,324L433,318L433,316L433,318L436,310L436,310L436,313L436,310L410,313L421,320L422,308L433,316L410,313L410,313L408,311L408,311L408,311L407,311L406,311L408,311" fill="none" stroke="#000000" style="-webkit-tap-highlight-color: rgba(0, 0, 0, 0); stroke-linecap: round; stroke-linejoin: round; stroke-width: 5;" /><path d="M406,311L393,312L406,311L406,312L396,324L396,325L397,323L392,316L396,327L396,328L396,328L396,328L396,328L387,339L381,338L385,339L377,337L375,336L372,333L370,333L367,332L365,336L359,334L365,336L359,334L358,334L359,334" fill="none" stroke="#000000" style="-webkit-tap-highlight-color: rgba(0, 0, 0, 0); stroke-linecap: round; stroke-linejoin: round; stroke-width: 5;" /><path d="M430.59,357.31L438,355L436,355L441,356L445,356L454,360L451,361L455,362L460,366L461,366L463,366L465,366L467,366L472,368L469,367L472,368L476,369" fill="none" stroke="#000000" style="-webkit-tap-highlight-color: rgba(0, 0, 0, 0); stroke-linecap: round; stroke-linejoin: round; stroke-width: 5;" /><path d="M481,369L479,369L479,369L486,367L481,369" fill="none" stroke="#000000" style="-webkit-tap-highlight-color: rgba(0, 0, 0, 0); stroke-linecap: round; stroke-linejoin: round; stroke-width: 5;" /><path d="M170.06,453.2L165,453L165,453L164,453L157,455L159,454L154,457L151,457L151,457L148,456L144,457L147,456L143,457L142,456L137,457L136,457L130,457L125,457L134,457L122,456L116,455L112,460L110,460L107,461L106,464L106,468L105,465L107,461L105,469L109,471L109,471L106,468L114,470L118,472L124,473L133,469L139,471L150,470L147,472L156,471L159,470L168,472L165,473L161,473L170,472L183,472L174,473L177,474L184,473L187,469L196,479L199,477L199,477L206,469L206,469L206,468L206,469L206,466L208,460L208,462" fill="none" stroke="#000000" style="-webkit-tap-highlight-color: rgba(0, 0, 0, 0); stroke-linecap: round; stroke-linejoin: round; stroke-width: 5;" /><path d="M208,462L203,459L197,459L206,458L190,457L186,457L178,453L172,456L175,452L174,452" fill="none" stroke="#000000" style="-webkit-tap-highlight-color: rgba(0, 0, 0, 0); stroke-linecap: round; stroke-linejoin: round; stroke-width: 5;" /><path d="M77.8,480.34L74,479L67,479L71,480L71,480L62,478L45,479L58,479L52,479L38,480L32,483L27,486L22,488L15,488L13,490L11,490L9,495L5,496L4,496L2,501L4,496L2,502L2,504L2,504L2,504L5,509L8,509L13,512L19,511L29,503L47,492L35,500L43,495" fill="none" stroke="#000000" style="-webkit-tap-highlight-color: rgba(0, 0, 0, 0); stroke-linecap: round; stroke-linejoin: round; stroke-width: 5;" /><path d="M51,486L49,479L51,479L51,481L45,477L42,477L38,479L41,477L43,478" fill="none" stroke="#000000" style="-webkit-tap-highlight-color: rgba(0, 0, 0, 0); stroke-linecap: round; stroke-linejoin: round; stroke-width: 5;" /><path d="M126.64,476.72L124,473L125,476L125,479L125,479L123,481L123,483L121,485L121,490L121,487L120,490L119,491L120,494L119,495L115,495L113,495L111,498L109,500L105,503L103,503L100,507L100,506L94,510L96,509L89,515L91,513L92,513L87,515L87,516L83,518L81,518L85,516L79,520L80,520L74,520L77,522L69,526L71,523L73,524L67,526L61,530L63,528L54,533L58,531" fill="none" stroke="#000000" style="-webkit-tap-highlight-color: rgba(0, 0, 0, 0); stroke-linecap: round; stroke-linejoin: round; stroke-width: 5;" /><path d="M48,536L45,536L50,534L42,539L0,552.71" fill="none" stroke="#000000" style="-webkit-tap-highlight-color: rgba(0, 0, 0, 0); stroke-linecap: round; stroke-linejoin: round; stroke-width: 5;" /><path d="M42,539L36,541L38,540L40,540L29,543L27,544L31,543L34,541L22,544L26,544L20,546L16,547L9,549L2,552L5,550L13,548L2,552L5,550" fill="none" stroke="#000000" style="-webkit-tap-highlight-color: rgba(0, 0, 0, 0); stroke-linecap: round; stroke-linejoin: round; stroke-width: 5;" /><path d="M130.26,478.53L125,476L126,477L127,478L128,478L128,483L132,481L134,480L137,484L141,484L147,485L150,485L154,485L157,484" fill="none" stroke="#000000" style="-webkit-tap-highlight-color: rgba(0, 0, 0, 0); stroke-linecap: round; stroke-linejoin: round; stroke-width: 5;" /><path d="M159,486" fill="none" stroke="#000000" style="-webkit-tap-highlight-color: rgba(0, 0, 0, 0); stroke-linecap: round; stroke-linejoin: round; stroke-width: 5;" /><path d="M191.77,532.81L187,529L186,528L184,529L181,530L177,531L177,531L177,531L177,531L181,535L181,535L183,536L188,536L199,546L197,547L197,535L199,534L199,534L196,531" fill="none" stroke="#000000" style="-webkit-tap-highlight-color: rgba(0, 0, 0, 0); stroke-linecap: round; stroke-linejoin: round; stroke-width: 5;" /><path d="M192,530L194,530L195,531L188,531L181,533L179,531L183,532L181,535L181,535L218.91,540.04L212,538L215,537L212,538L212,538L208,543L206,544L201,546L199,547L197,550L198,553L199,555L199,555L206,553L201,555" fill="none" stroke="#000000" style="-webkit-tap-highlight-color: rgba(0, 0, 0, 0); stroke-linecap: round; stroke-linejoin: round; stroke-width: 5;" /><path d="M207,553L213,551L215,544L215,541L212,539L208,543L204,545L201,546L201,550L207,543L242.43,554.52L241,558L238,558L235,558L228,558L223,558L219,564L220,561L219,565L215,575L223,572L231,572L241,574L248,562L250,559L251,563" fill="none" stroke="#000000" style="-webkit-tap-highlight-color: rgba(0, 0, 0, 0); stroke-linecap: round; stroke-linejoin: round; stroke-width: 5;" /><path d="M248,559L242,558L235,558L228,558L226,558L224,561L224,564L225,567L229,569" fill="none" stroke="#000000" style="-webkit-tap-highlight-color: rgba(0, 0, 0, 0); stroke-linecap: round; stroke-linejoin: round; stroke-width: 5;" /><path d="M323.84,543.66L327,544L331,543L331,543L340,544L340,544L341,544L341,544L351,533L353,533L356,533L360,533L362,533L365,533L367,533L373,533L369,533L375,531L376,531L390,522L390,522L390,522L391,523" fill="none" stroke="#000000" style="-webkit-tap-highlight-color: rgba(0, 0, 0, 0); stroke-linecap: round; stroke-linejoin: round; stroke-width: 5;" /><path d="M617,449L619,450L613,447L615,448L623,448L623,448L625,450L626,450L628,451L628,449L631,452L630,450" fill="none" stroke="#000000" style="-webkit-tap-highlight-color: rgba(0, 0, 0, 0); stroke-linecap: round; stroke-linejoin: round; stroke-width: 5;" /><path d="M573.51,538.23L572,533L575,534L574,533L574,533L581,534L587,534L592,535L597,537L602,537L606,536L610,536L613,536L617,536" fill="none" stroke="#000000" style="-webkit-tap-highlight-color: rgba(0, 0, 0, 0); stroke-linecap: round; stroke-linejoin: round; stroke-width: 5;" /><path d="M623,535L626,535L619,536L628,535L626,535L624,535L623,535L623,535L621,536" fill="none" stroke="#000000" style="-webkit-tap-highlight-color: rgba(0, 0, 0, 0); stroke-linecap: round; stroke-linejoin: round; stroke-width: 5;" /><path d="M560.85,534.61L557,538L557,538L554,538L550,539L545,539L541,541L536,543L532,544L528,546L530,546L526,541L526,538L526,538L526,538L526,538L515,534L515,534L513,531L510,532L507,532L499,531L503,532L498,531" fill="none" stroke="#000000" style="-webkit-tap-highlight-color: rgba(0, 0, 0, 0); stroke-linecap: round; stroke-linejoin: round; stroke-width: 5;" /><path d="M494,533L492,537L488,537L490,537L488,547L487,547L487,547L488,547L490,547" fill="none" stroke="#000000" style="-webkit-tap-highlight-color: rgba(0, 0, 0, 0); stroke-linecap: round; stroke-linejoin: round; stroke-width: 5;" /><path d="M566.28,534.61L569,534L569,534L569,534L569,534L569,534L569,534L564,522L564,520L564,517L564,518L564,515L570,503L570,503L570,503L570,503L570,503L570,502L570,500L570,497L570,498L570,493L570,496L570,491L570,489L570,488L570,486L570,484L570,480L570,482L570,477L570,479L570,476L571,473L571,471L571,470L571,470L572,467L570,461L568,460L568,460L566,459L566,457L566,460L566,457L564,449L567,451L564,449L562,448L562,448L560,444L560,441L560,442L560,437L560,439L560,435L560,433L560,431L560,430L560,428L560,426L561,422L561,421L562,415L561,419L561,412L561,412L561,411L562,408L562,406L562,404L563,401L563,397L563,395L563,393L563,390L563,388L564,383L563,387L564,381L564,379L564,375L564,377L564,374L565,372L566,366L566,368L566,363L566,359L566,356L566,361L566,354L566,350L566,352L566,348L566,346L566,343L566,343L567,339L566,337L566,334L566,332L566,336L566,330L566,328L567,325L567,326L567,323L568,320L570,316L568,320L570,316L574,314L574,314L576,312L576,312L577,312L577,312L580,311L580,311L583,310L585,309L588,308L585,309L588,308L594,307L594,307L590,308L595,307L597,306L601,306L599,306L602,306L604,306L608,307L608,307L611,308L611,308L614,309L616,310L616,310L622,313L620,312L625,315L622,313L626,316L626,316L628,317L630,318L632,320L631,319L632,320L635,322L637,325L637,325L638,326L640,329L640,329L642,332L642,332L643,334L643,334L644,336L645,338L644,336L645,338L647,342L647,347L647,347L647,347L647,347L647,348L647,350L647,351L648,354L648,354L648,355L649,356L649,356L651,361L649,359L651,358L652,363L650,365L649,366" fill="none" stroke="#000000" style="-webkit-tap-highlight-color: rgba(0, 0, 0, 0); stroke-linecap: round; stroke-linejoin: round; stroke-width: 5;" /><path d="M613.31,447.77L608,447L610,447L606,447L602,448L599,448L598,449L592,450L592,450L590,450L586,450L587,449L584,450L583,450L581,451L579,452L577,452L575,453L574,453" fill="none" stroke="#000000" style="-webkit-tap-highlight-color: rgba(0, 0, 0, 0); stroke-linecap: round; stroke-linejoin: round; stroke-width: 5;" /><path d="M572,457L572,459" fill="none" stroke="#000000" style="-webkit-tap-highlight-color: rgba(0, 0, 0, 0); stroke-linecap: round; stroke-linejoin: round; stroke-width: 5;" /><path d="M573.51,538.23L571,539L574,538L575,538L577,538L579,537L583,537L586,537L589,538L599,537L594,538L597,537L602,537L608,536L612,536L606,536L615,536L621,536L617,536L623,535" fill="none" stroke="#000000" style="-webkit-tap-highlight-color: rgba(0, 0, 0, 0); stroke-linecap: round; stroke-linejoin: round; stroke-width: 5;" /><path d="M624,535L626,535L624,535" fill="none" stroke="#000000" style="-webkit-tap-highlight-color: rgba(0, 0, 0, 0); stroke-linecap: round; stroke-linejoin: round; stroke-width: 5;" /><path d="M522.86,531L513,531L515,534L515,534L515,535L514,539L514,539L512,539L512,542L510,542L508,542L507,542L506,542L503,543L499,539L498,541L496,538L490,537L494,538L492,537L488,537L487,537L487,535L485,535L483,535L483,535L482,535L479,534L480,533L478,532L479,531L476,531L477,529L474,529L474,527L471,526L470,526L470,526L469,526L469,526L469,526L469,526L461,530L463,530L460,530L458,530L454,529L447,524L454,529L447,524L447,524L447,524L443,523L445,523L441,523L436,522L440,523L436,522L434,522L431,519L431,519L429,519L424,517L419,516L427,518L423,517" fill="none" stroke="#000000" style="-webkit-tap-highlight-color: rgba(0, 0, 0, 0); stroke-linecap: round; stroke-linejoin: round; stroke-width: 5;" /><path d="M417,515L412,515L412,515L415,514L403,509L403,509L412,515L402,510L412.49,514.71L403,515L400,510L402,510L400,513L409,516L403,515L409,516L407,516L407,516L407,516L401,527L402,519L399,527L399,529L399,532L399,532L400,536L400,537L401,539L390,550L390,550L389,550L387,550L389,550L385,550L384,550L376,549L382,550L379,549L375,549" fill="none" stroke="#000000" style="-webkit-tap-highlight-color: rgba(0, 0, 0, 0); stroke-linecap: round; stroke-linejoin: round; stroke-width: 5;" /><path d="M373,549L373,549L371,549L371,549L375,549L376,549" fill="none" stroke="#000000" style="-webkit-tap-highlight-color: rgba(0, 0, 0, 0); stroke-linecap: round; stroke-linejoin: round; stroke-width: 5;" /><path d="M694.73,556.33L690,556L698,553L700,553L706,555L702,553L711,557L720,555L719,556L724,555L731,558L732,558L724,556L732,558L733,559L745,556L745,556L745,556L751,561L756,569L755,568L753,563L756,571L756,572L762,578L761,574L762,581L767,589L765,585L768,593L768,594L773,602L773,601L773,601L773,603L776,603L776,605L780,608L778,607L780,611L781,612L783,616L789,620L784,618L791,623L794,625L798,627L801,628L801,628L810,636L809,634L811,636L814,638L815,639L816,645L818,646L818,649L820,655L819,652L823,657L821,657L827,665L824,657L830,666L830,666L830,666L830,666L846,680L846,680L846,680L846,680L849,684L848,684L849,685L852,688L850,686L859,688L859,689L860,696L859,689L867,695L867,697L867,696L869,698L871,697L876,707L874,707L877,707L879,711L883,716L881,711L883,713L886,720L887,720L889,725L888,723L889,725L892,726L894,727L896,730L897,732L896,734L899,736L900,737L901,738" fill="none" stroke="#000000" style="-webkit-tap-highlight-color: rgba(0, 0, 0, 0); stroke-linecap: round; stroke-linejoin: round; stroke-width: 5;" /><path d="M909,741L906,740L911,744L911,744L912,743L912,745L913,747L918,750L921,752L919,752L919,752L921,752L923,752L923,752L923,752L923,752L923,752L923,752L934,764L935,766L937,768L937,770L939,772L941,772L943,773L944,773L946,773L948,775L946,775L950,775" fill="none" stroke="#000000" style="-webkit-tap-highlight-color: rgba(0, 0, 0, 0); stroke-linecap: round; stroke-linejoin: round; stroke-width: 5;" /><path d="M942.59,556.33L939,556L937,555L935,554L934,555L943,553L939,554L946,550L949,550L953,546L955,544L959,545L962,550L963,553L961,546L962,555L964,565L965,564L964,566L964,569L970,571L973,570L969,572L976,567L980,565L980,563L977,567L979,557L982,555L982,550L981,553L985,551L986,551L988,550L990,552L991,552L990,555L995,555L993,554L1001,556L995,556L1004,558L1001,556" fill="none" stroke="#000000" style="-webkit-tap-highlight-color: rgba(0, 0, 0, 0); stroke-linecap: round; stroke-linejoin: round; stroke-width: 5;" /><path d="M1004,558L1010,565L1010,566L1008,572L1008,574L1008,573L1008,575L1008,579L1006,581L1006,581L1006,583L1005,590L1003,594L1004,592L1005,590L1003,596L1008,602L1005,600L1006,602L1003,597L1010,603L1010,608L1013,606L1010,605L1016,607L1015,604L1015,602" fill="none" stroke="#000000" style="-webkit-tap-highlight-color: rgba(0, 0, 0, 0); stroke-linecap: round; stroke-linejoin: round; stroke-width: 5;" /><path d="M949.82,429.68L950,433L950,434L950,439L954,442L953,446L954,451L957,459L956,455L959,461L957,462" fill="none" stroke="#000000" style="-webkit-tap-highlight-color: rgba(0, 0, 0, 0); stroke-linecap: round; stroke-linejoin: round; stroke-width: 5;" /><path d="M960,463L963,465L964,462L937.16,444.16L937,447L937,455L938,459L940,464L941,467" fill="none" stroke="#000000" style="-webkit-tap-highlight-color: rgba(0, 0, 0, 0); stroke-linecap: round; stroke-linejoin: round; stroke-width: 5;" /><path d="M947,473L947,475L946.2,471.29L947,476L940,469L940,469L940,469L943,476L943,480L943,483L943,490L945,496L944,504" fill="none" stroke="#000000" style="-webkit-tap-highlight-color: rgba(0, 0, 0, 0); stroke-linecap: round; stroke-linejoin: round; stroke-width: 5;" /><path d="M943,500L944,510L944,512L945,515L944,517L945,515L964.3,471.29L966,477L966,481L966,488L965,495L966,505L966,505L969,513" fill="none" stroke="#000000" style="-webkit-tap-highlight-color: rgba(0, 0, 0, 0); stroke-linecap: round; stroke-linejoin: round; stroke-width: 5;" /><path d="M970,516L970,517L970,518L968,516L968,516" fill="none" stroke="#000000" style="-webkit-tap-highlight-color: rgba(0, 0, 0, 0); stroke-linecap: round; stroke-linejoin: round; stroke-width: 5;" /><path d="M897.36,550.9L900,549L903,549L908,552L906,548L910,552L910,554L909,556L906,558L905,562L904,564L899,570L896,569L895,573L895,573L896,578L896,582L896,580L896,583L896,584L904,590L900,586L900,586L906,592L907,594L908,597L908,597L910,598L910,600L910,602L910,602L911,606L910,611L911,607L910,611L910,609" fill="none" stroke="#000000" style="-webkit-tap-highlight-color: rgba(0, 0, 0, 0); stroke-linecap: round; stroke-linejoin: round; stroke-width: 5;" /><path d="M910,614L910,615L910,618L910,620L910,620L909,625L910,626L908,630L910,633L910,633L910,633L910,636L908,634L908,635L910,626L908,630L912,625" fill="none" stroke="#000000" style="-webkit-tap-highlight-color: rgba(0, 0, 0, 0); stroke-linecap: round; stroke-linejoin: round; stroke-width: 5;" /><path d="M948.01,531L944,526L943,526L944,526L946,526L950,530L954,535L961,532L967,529L976,530L970,531L977,529L980,531L984,525L989,528L986,525L990,528L993,525L994,525L997,524L1001,528L1000,529L1000,529L1002,528L1004,530L1006,531L1010,530" fill="none" stroke="#000000" style="-webkit-tap-highlight-color: rgba(0, 0, 0, 0); stroke-linecap: round; stroke-linejoin: round; stroke-width: 5;" /><path d="M1008,530L1012,530L1011,530L1015,529L1019,531L1017,534" fill="none" stroke="#000000" style="-webkit-tap-highlight-color: rgba(0, 0, 0, 0); stroke-linecap: round; stroke-linejoin: round; stroke-width: 5;" /><path d="M1009.53,594.32L1006,593L1006,591L1011,589L1010,589L1015,587L1019,585" fill="none" stroke="#000000" style="-webkit-tap-highlight-color: rgba(0, 0, 0, 0); stroke-linecap: round; stroke-linejoin: round; stroke-width: 5;" /><path d="M1022,585L1020,585L1022,585" fill="none" stroke="#000000" style="-webkit-tap-highlight-color: rgba(0, 0, 0, 0); stroke-linecap: round; stroke-linejoin: round; stroke-width: 5;" /><path d="M419.73,558.13L416,555L409,562L415,555L429,558L432,557L439,554L454,553L449,555L460,549L460,549L464,551L469,551L473,550L478,544L480,545L480,545L487,547L488,547L493,546L497,542" fill="none" stroke="#000000" style="-webkit-tap-highlight-color: rgba(0, 0, 0, 0); stroke-linecap: round; stroke-linejoin: round; stroke-width: 5;" /></svg>