<?xml version="1.0" encoding="utf-8" ?>
<svg baseProfile="full" height="776" version="1.1" width="1024" xmlns="http://www.w3.org/2000/svg" xmlns:ev="http://www.w3.org/2001/xml-events" xmlns:xlink="http://www.w3.org/1999/xlink"><defs /><path d="M954.27,105.52L952.43,105.52L952.43,103.68L952.43,101.85L952.43,100.01L952.43,101.85L954.27,101.85L957.94,103.68L959.77,103.68L963.44,105.52L963.44,107.35L963.44,111.03L965.28,112.86L965.28,114.7L967.11,116.53L967.11,118.37L968.95,122.04L968.95,125.71L968.95,134.88L968.95,138.55L970.78,144.06L970.78,147.73L972.62,153.23L972.62,156.9L974.45,160.57L974.45,166.08L976.29,171.58L976.29,177.09L978.12,182.59L978.12,189.94L978.12,195.44L978.12,199.11L978.12,204.62L978.12,210.12L978.12,215.63L976.29,221.13L976.29,224.8L974.45,230.31L974.45,235.81L972.62,239.48L972.62,243.15L972.62,248.66L972.62,256L970.78,261.51L970.78,265.18L970.78,268.85L970.78,270.68L970.78,274.35L968.95,278.02L968.95,279.86L968.95,283.53L968.95,287.2L968.95,289.03L970.78,290.87L974.45,290.87L976.29,290.87L981.79,290.87L987.3,290.87L992.8,290.87L998.31,289.03L1003.81,289.03L1009.32,287.2L1014.82,285.36L1020.33,281.69L1022.16,279.86" fill="none" stroke="#000000" style="-webkit-tap-highlight-color: rgba(0, 0, 0, 0); stroke-linecap: round; stroke-linejoin: round; stroke-width: 5;" /><path d="M954.27,105.52L954.27,103.68L954.27,101.85L952.43,101.85L950.59,101.85L948.76,100.01L946.92,100.01L943.25,100.01L939.58,100.01L937.75,100.01L935.91,100.01L934.08,100.01L932.24,98.18L928.57,98.18L926.74,98.18L924.9,98.18L921.23,98.18L919.4,98.18L917.56,98.18L913.89,98.18L904.72,98.18L901.05,98.18L897.38,98.18L893.71,98.18L890.04,98.18L886.37,96.34L882.7,96.34L877.19,98.18L873.52,98.18L869.85,100.01L866.18,100.01L862.51,100.01L857,101.85L851.5,103.68L847.83,103.68L842.32,103.68L840.49,103.68L836.82,103.68L833.15,105.52L829.48,107.35L823.97,109.19L818.47,111.03L814.8,111.03L811.13,112.86L807.46,112.86L801.95,114.7L796.44,118.37L789.1,120.2L783.6,122.04L778.09,123.87L774.42,123.87L770.75,123.87L767.08,125.71L761.58,127.54L756.07,129.38L750.57,131.21L746.9,133.05L741.39,134.88L735.89,136.72L730.38,138.55L726.71,138.55L721.2,140.39L717.53,142.22L713.86,142.22L708.36,144.06L704.69,145.89L701.02,147.73L697.35,149.56L693.68,151.4L690.01,151.4L686.34,153.23L682.67,153.23L679,155.07L675.33,155.07L673.49,156.9L669.82,156.9L667.99,158.74L666.15,158.74L662.48,160.57L660.65,162.41L658.81,162.41L655.14,164.24L653.3,167.91L651.47,171.58L649.63,175.25L649.63,177.09L647.8,180.76L645.96,182.59L644.13,186.27L642.29,191.77L642.29,193.61L642.29,191.77" fill="none" stroke="#000000" style="-webkit-tap-highlight-color: rgba(0, 0, 0, 0); stroke-linecap: round; stroke-linejoin: round; stroke-width: 5;" /><path d="M642.29,188.1L640.46,188.1L638.62,188.1L633.12,189.94L625.78,191.77L622.11,191.77L618.44,191.77L614.77,193.61L609.26,193.61L603.76,193.61L598.25,195.44L594.58,195.44L589.08,197.28L585.41,197.28L581.73,197.28L578.06,197.28L576.23,197.28L570.72,197.28L567.05,199.11L561.55,200.95L557.88,200.95L552.37,200.95L548.7,202.78L545.03,202.78L541.36,202.78L537.69,204.62L534.02,206.45L530.35,208.29L528.52,208.29L524.85,210.12L521.18,211.96L519.34,215.63L515.67,217.46L512,219.3L510.16,221.13L506.49,222.97L502.82,224.8L500.99,226.64L497.32,230.31L493.65,232.14L489.98,233.98L486.31,235.81L484.47,237.65L482.64,237.65L478.97,239.48L475.3,241.32L471.63,243.15L467.96,244.99L462.45,246.82L458.78,248.66L455.11,248.66L453.28,250.49L451.44,250.49L449.61,252.33L447.77,256L447.77,257.84L447.77,261.51L445.94,265.18L445.94,268.85L445.94,272.52L444.1,278.02L444.1,281.69L440.43,289.03" fill="none" stroke="#000000" style="-webkit-tap-highlight-color: rgba(0, 0, 0, 0); stroke-linecap: round; stroke-linejoin: round; stroke-width: 5;" /><path d="M445.94,279.86L444.1,281.69L442.27,281.69L440.43,281.69L438.59,281.69L433.09,281.69L429.42,283.53L423.91,283.53L420.24,283.53L416.57,281.69L414.74,281.69L412.9,279.86L411.07,278.02L409.23,278.02L407.4,276.19L403.73,276.19L401.89,274.35L400.06,274.35L398.22,272.52L394.55,272.52L392.72,270.68L389.05,270.68L387.21,268.85L383.54,268.85L379.87,267.01L376.2,265.18L374.37,263.34L372.53,259.67L370.7,259.67L368.86,259.67L367.03,259.67L363.35,259.67L359.68,259.67L356.01,257.84L350.51,257.84L346.84,257.84L343.17,257.84L337.66,259.67L332.16,259.67L326.65,259.67L321.15,259.67L315.64,259.67L311.97,259.67L306.47,259.67L302.8,259.67L300.96,261.51L297.29,263.34L293.62,265.18L291.78,265.18L289.95,265.18L288.11,267.01L286.28,267.01L282.61,270.68L280.77,272.52L280.77,274.35L278.94,276.19L277.1,276.19L275.27,278.02L271.6,281.69L267.93,283.53L264.26,287.2L262.42,290.87L258.75,294.54L256.92,296.37L253.25,298.21L249.58,300.04L245.91,301.88L242.24,303.71L240.4,305.55L236.73,307.38L233.06,307.38L229.39,309.22L225.72,311.05L220.22,314.72L214.71,316.56L211.04,318.39L207.37,320.23L203.7,322.06L200.03,322.06L194.52,323.9L190.85,323.9L185.35,323.9L181.68,323.9L176.17,325.73L172.5,325.73L168.83,325.73L165.16,325.73L161.49,325.73L155.99,325.73L152.32,325.73L150.48,325.73L150.48,323.9" fill="none" stroke="#000000" style="-webkit-tap-highlight-color: rgba(0, 0, 0, 0); stroke-linecap: round; stroke-linejoin: round; stroke-width: 5;" /><path d="M143.14,327.57L141.3,327.57L135.8,327.57L126.62,329.41L122.95,331.24L117.45,331.24L110.11,333.08L106.44,334.91L100.93,336.75L95.43,338.58L91.76,338.58L88.09,338.58L86.25,338.58L84.42,338.58L84.42,336.75L80.75,334.91L80.75,333.08L78.91,329.41L75.24,327.57L71.57,325.73L67.9,323.9L64.23,322.06L60.56,318.39L56.89,316.56L51.38,312.89L47.71,311.05L42.21,311.05L36.7,309.22L33.03,307.38L29.36,307.38L25.69,305.55L23.86,305.55L20.19,305.55L16.52,305.55L11.01,307.38L5.51,307.38L3.67,309.22L1.84,309.22L1.84,307.38" fill="none" stroke="#000000" style="-webkit-tap-highlight-color: rgba(0, 0, 0, 0); stroke-linecap: round; stroke-linejoin: round; stroke-width: 5;" /><path d="M11.01,347.76L9.18,347.76L9.18,349.59L11.01,349.59L14.68,351.43L22.02,353.26L29.36,353.26L40.37,353.26L53.22,349.59L66.06,345.92L75.24,342.25L84.42,338.58L89.92,336.75" fill="none" stroke="#000000" style="-webkit-tap-highlight-color: rgba(0, 0, 0, 0); stroke-linecap: round; stroke-linejoin: round; stroke-width: 5;" /><path d="M244.07,327.57L244.07,325.73L242.24,325.73L245.91,325.73L249.58,325.73L256.92,323.9L264.26,323.9L269.76,325.73L275.27,325.73L282.61,327.57L288.11,327.57L295.46,327.57L300.96,327.57L306.47,329.41L311.97,329.41L317.48,331.24L322.98,331.24L328.49,331.24L332.16,331.24L335.83,333.08L337.66,334.91L341.33,336.75L346.84,338.58L350.51,340.42L354.18,342.25L359.68,344.09L365.19,345.92L368.86,345.92L372.53,349.59L378.04,351.43L383.54,353.26L389.05,355.1L394.55,356.93L398.22,358.77L403.73,362.44L411.07,364.27L416.57,366.11L422.08,366.11L427.58,367.94L433.09,369.78L442.27,371.61L445.94,373.45L449.61,375.28L453.28,377.12L456.95,377.12L458.78,378.95L462.45,380.79L466.12,382.62L469.79,382.62L475.3,384.46L480.8,386.29L486.31,388.13L491.81,388.13L500.99,389.96L506.49,389.96L510.16,391.8" fill="none" stroke="#000000" style="-webkit-tap-highlight-color: rgba(0, 0, 0, 0); stroke-linecap: round; stroke-linejoin: round; stroke-width: 5;" /><path d="M319.31,323.9L321.15,320.23L328.49,316.56L337.66,311.05L343.17,307.38L346.84,305.55L350.51,303.71L354.18,303.71L359.68,303.71L365.19,303.71L370.7,301.88L376.2,301.88L381.71,300.04L387.21,300.04L394.55,300.04L401.89,301.88L409.23,301.88L418.41,301.88L429.42,300.04L440.43,298.21L449.61,296.37L453.28,296.37" fill="none" stroke="#000000" style="-webkit-tap-highlight-color: rgba(0, 0, 0, 0); stroke-linecap: round; stroke-linejoin: round; stroke-width: 5;" /><path d="M519.34,311.05L521.18,309.22L521.18,307.38L519.34,311.05L515.67,316.56L512,320.23L508.33,325.73L506.49,333.08L504.66,338.58L502.82,344.09L502.82,351.43L502.82,356.93L500.99,362.44L499.15,369.78L499.15,375.28L499.15,380.79L499.15,386.29L499.15,391.8" fill="none" stroke="#000000" style="-webkit-tap-highlight-color: rgba(0, 0, 0, 0); stroke-linecap: round; stroke-linejoin: round; stroke-width: 5;" /><path d="M500.99,380.79L499.15,380.79L499.15,384.46L499.15,386.29L500.99,391.8L500.99,397.3L500.99,402.81L502.82,406.48L502.82,411.99L504.66,417.49L504.66,423L504.66,430.34L504.66,435.84L504.66,441.35L504.66,445.02L504.66,450.52L504.66,457.86L504.66,461.53L504.66,468.87L504.66,476.22L504.66,485.39L504.66,496.4L504.66,507.41L504.66,514.75L502.82,520.26L500.99,525.76L499.15,527.6" fill="none" stroke="#000000" style="-webkit-tap-highlight-color: rgba(0, 0, 0, 0); stroke-linecap: round; stroke-linejoin: round; stroke-width: 5;" /><path d="M532.19,215.63L532.19,221.13L530.35,230.31L528.52,233.98L528.52,239.48L528.52,246.82L528.52,254.16L528.52,259.67L528.52,265.18L528.52,268.85L528.52,274.35L530.35,278.02L530.35,283.53L530.35,289.03L530.35,294.54L530.35,298.21L530.35,301.88L530.35,305.55L530.35,309.22L530.35,312.89L532.19,318.39L532.19,322.06L532.19,325.73L532.19,331.24L534.02,334.91L534.02,340.42L534.02,344.09L534.02,349.59L535.86,355.1L535.86,360.6L535.86,366.11L535.86,371.61L535.86,377.12L535.86,382.62L535.86,388.13L535.86,393.63L535.86,399.14L535.86,404.65L534.02,408.32L534.02,413.82L534.02,417.49L534.02,423L534.02,428.5L532.19,435.84L532.19,441.35L532.19,446.85L534.02,450.52L534.02,456.03L534.02,461.53L534.02,467.04L534.02,472.54L534.02,478.05L534.02,483.56L534.02,487.23L532.19,492.73L532.19,500.07L532.19,507.41L532.19,514.75L530.35,522.09L530.35,529.43L528.52,534.94L526.68,538.61" fill="none" stroke="#000000" style="-webkit-tap-highlight-color: rgba(0, 0, 0, 0); stroke-linecap: round; stroke-linejoin: round; stroke-width: 5;" /><path d="M568.89,312.89L568.89,314.72L567.05,314.72L567.05,316.56L565.22,320.23L563.38,322.06L563.38,325.73L561.55,327.57L561.55,329.41L559.71,333.08L559.71,334.91L559.71,338.58L559.71,340.42L559.71,344.09L559.71,345.92L559.71,347.76L559.71,349.59L559.71,353.26L559.71,355.1L559.71,358.77L559.71,360.6L559.71,364.27L561.55,367.94L561.55,369.78L561.55,371.61L561.55,375.28L561.55,377.12L561.55,378.95L561.55,380.79L561.55,382.62L561.55,384.46L561.55,388.13L561.55,391.8L561.55,393.63L561.55,397.3L561.55,400.97L561.55,404.65L561.55,408.32L561.55,410.15L561.55,413.82L559.71,417.49L559.71,421.16L559.71,424.83L559.71,428.5L559.71,432.17L559.71,435.84L559.71,437.68L559.71,441.35L559.71,445.02L559.71,446.85L559.71,448.69L561.55,452.36L563.38,454.19L563.38,456.03L565.22,457.86L565.22,459.7L567.05,461.53L568.89,463.37L568.89,465.2L570.72,467.04L570.72,468.87L570.72,470.71L572.56,472.54L572.56,474.38L572.56,476.22L572.56,478.05L572.56,479.89L572.56,483.56L570.72,487.23L570.72,490.9L570.72,496.4L570.72,501.91L570.72,507.41L570.72,511.08L570.72,516.59L568.89,522.09L568.89,525.76" fill="none" stroke="#000000" style="-webkit-tap-highlight-color: rgba(0, 0, 0, 0); stroke-linecap: round; stroke-linejoin: round; stroke-width: 5;" /><path d="M565.22,323.9L565.22,325.73L565.22,323.9L567.05,320.23L568.89,318.39L572.56,314.72L574.39,314.72L576.23,312.89L578.06,312.89L579.9,311.05L583.57,309.22L587.24,309.22L589.08,309.22L592.75,309.22L594.58,309.22L596.42,309.22L600.09,309.22L601.92,307.38L603.76,307.38L605.59,307.38L607.43,307.38L611.1,309.22L612.93,309.22L614.77,309.22L616.6,309.22L618.44,311.05L620.27,311.05L622.11,312.89L623.94,312.89L627.61,312.89L629.45,314.72L631.28,314.72L633.12,316.56L634.95,316.56L634.95,318.39L636.79,320.23L638.62,320.23L638.62,322.06L640.46,323.9L640.46,325.73L642.29,329.41L642.29,331.24L644.13,333.08L644.13,334.91L644.13,336.75L645.96,340.42L645.96,342.25L645.96,345.92L647.8,347.76L647.8,351.43L647.8,353.26L647.8,356.93L647.8,360.6L647.8,362.44L647.8,366.11L649.63,367.94L649.63,371.61L649.63,373.45L649.63,375.28L649.63,378.95L649.63,380.79L651.47,382.62L651.47,384.46L651.47,386.29L651.47,388.13L651.47,389.96L651.47,391.8L651.47,393.63L651.47,395.47L651.47,399.14L651.47,402.81L651.47,406.48L651.47,408.32L651.47,411.99L651.47,413.82L651.47,417.49L651.47,421.16L651.47,424.83L651.47,428.5L651.47,432.17L651.47,434.01L651.47,437.68L653.3,441.35L653.3,445.02L653.3,448.69L653.3,452.36L653.3,456.03L653.3,459.7L653.3,463.37L653.3,467.04L653.3,472.54L653.3,476.22L653.3,478.05L653.3,481.72L653.3,487.23L653.3,490.9L653.3,494.57L653.3,498.24L655.14,501.91L655.14,503.74L655.14,507.41L655.14,511.08L655.14,516.59L655.14,520.26L655.14,523.93L655.14,529.43L655.14,534.94L653.3,542.28L653.3,544.11L653.3,540.44" fill="none" stroke="#000000" style="-webkit-tap-highlight-color: rgba(0, 0, 0, 0); stroke-linecap: round; stroke-linejoin: round; stroke-width: 5;" /><path d="M644.13,397.3L644.13,399.14L642.29,399.14L642.29,400.97L640.46,400.97L638.62,404.65L638.62,406.48L636.79,410.15L636.79,411.99L636.79,413.82L636.79,417.49L636.79,421.16L636.79,424.83L636.79,428.5L636.79,432.17L638.62,435.84L638.62,441.35L638.62,445.02L638.62,448.69L638.62,452.36L638.62,456.03L638.62,459.7L638.62,463.37L638.62,467.04L638.62,470.71L638.62,474.38L638.62,478.05L638.62,481.72L638.62,485.39L636.79,489.06L636.79,494.57L636.79,498.24L636.79,501.91L636.79,505.58L636.79,509.25L636.79,512.92L636.79,518.42L638.62,523.93L638.62,531.27L638.62,534.94L638.62,536.77" fill="none" stroke="#000000" style="-webkit-tap-highlight-color: rgba(0, 0, 0, 0); stroke-linecap: round; stroke-linejoin: round; stroke-width: 5;" /><path d="M559.71,307.38L559.71,305.55L561.55,305.55L563.38,305.55L565.22,303.71L568.89,301.88L570.72,300.04L572.56,300.04L574.39,300.04L576.23,300.04L579.9,298.21L581.73,298.21L585.41,296.37L587.24,294.54L589.08,294.54L590.91,294.54L592.75,294.54L594.58,294.54L596.42,294.54L600.09,294.54L601.92,294.54L603.76,294.54L605.59,294.54L607.43,294.54L607.43,296.37L611.1,296.37L612.93,296.37L614.77,296.37L616.6,296.37L618.44,296.37L620.27,296.37L622.11,296.37L623.94,296.37L625.78,298.21L629.45,298.21L631.28,298.21L633.12,300.04L634.95,300.04L634.95,301.88L636.79,301.88L638.62,303.71L640.46,303.71L640.46,305.55L642.29,305.55L642.29,307.38L644.13,307.38L645.96,307.38L645.96,309.22L647.8,311.05L647.8,312.89L649.63,312.89L649.63,314.72L651.47,314.72L651.47,316.56L653.3,320.23L655.14,323.9" fill="none" stroke="#000000" style="-webkit-tap-highlight-color: rgba(0, 0, 0, 0); stroke-linecap: round; stroke-linejoin: round; stroke-width: 5;" /><path d="M561.55,303.71L559.71,303.71L559.71,305.55L557.88,305.55L557.88,307.38L556.04,309.22L556.04,311.05L554.21,311.05L554.21,312.89L552.37,312.89L552.37,314.72L552.37,316.56L552.37,318.39L550.54,318.39L550.54,320.23L550.54,322.06L548.7,323.9L548.7,325.73L548.7,327.57L548.7,329.41L546.87,333.08L546.87,334.91L546.87,336.75L546.87,338.58L546.87,340.42L546.87,342.25L546.87,344.09L546.87,345.92L546.87,347.76L545.03,349.59L545.03,351.43L545.03,353.26L545.03,355.1L545.03,358.77L545.03,362.44L545.03,364.27L545.03,367.94L545.03,371.61L545.03,378.95L546.87,382.62L546.87,386.29L546.87,388.13L546.87,391.8L546.87,393.63L546.87,397.3L545.03,402.81L545.03,404.65L545.03,408.32L545.03,410.15L545.03,411.99L545.03,413.82L545.03,417.49L545.03,421.16L546.87,424.83L546.87,426.67L546.87,430.34L546.87,434.01L548.7,437.68L548.7,439.51L548.7,443.18L548.7,445.02L548.7,448.69L548.7,452.36L548.7,456.03L548.7,457.86L548.7,461.53L548.7,465.2L548.7,468.87L548.7,474.38L548.7,478.05L548.7,485.39L548.7,494.57L548.7,503.74L548.7,512.92L548.7,523.93L548.7,533.1L550.54,542.28" fill="none" stroke="#000000" style="-webkit-tap-highlight-color: rgba(0, 0, 0, 0); stroke-linecap: round; stroke-linejoin: round; stroke-width: 5;" /><path d="M666.15,178.92L664.32,178.92L664.32,184.43L662.48,191.77L662.48,197.28L662.48,204.62L664.32,210.12L666.15,217.46L666.15,224.8L666.15,232.14L666.15,241.32L666.15,248.66L666.15,257.84L667.99,265.18L667.99,272.52L667.99,278.02L667.99,283.53L667.99,289.03L667.99,294.54L667.99,300.04L667.99,307.38L667.99,311.05L666.15,312.89L666.15,316.56L664.32,320.23L664.32,323.9L664.32,325.73L662.48,329.41L662.48,331.24L662.48,334.91L662.48,336.75L660.65,340.42L660.65,342.25L660.65,344.09L658.81,345.92L658.81,351.43L658.81,355.1L658.81,360.6L658.81,366.11L656.97,373.45L656.97,380.79L655.14,389.96L653.3,402.81L651.47,406.48" fill="none" stroke="#000000" style="-webkit-tap-highlight-color: rgba(0, 0, 0, 0); stroke-linecap: round; stroke-linejoin: round; stroke-width: 5;" /><path d="M776.26,265.18L774.42,263.34L772.59,263.34L770.75,267.01L770.75,272.52L768.92,278.02L767.08,285.36L767.08,296.37L767.08,303.71L770.75,311.05L770.75,314.72L772.59,316.56L770.75,316.56" fill="none" stroke="#000000" style="-webkit-tap-highlight-color: rgba(0, 0, 0, 0); stroke-linecap: round; stroke-linejoin: round; stroke-width: 5;" /><path d="M774.42,263.34L774.42,261.51L776.26,261.51L778.09,261.51L781.76,259.67L785.43,259.67L789.1,257.84L790.94,259.67L794.61,259.67L796.44,261.51L800.11,263.34L801.95,263.34L803.78,265.18L805.62,267.01L805.62,270.68L807.46,272.52L807.46,274.35L809.29,274.35L809.29,276.19L809.29,278.02L809.29,285.36L809.29,287.2L807.46,290.87L807.46,294.54L807.46,298.21L807.46,301.88L809.29,305.55L809.29,307.38L809.29,309.22L807.46,309.22L807.46,311.05L805.62,312.89L803.78,314.72L801.95,314.72L798.28,316.56L792.77,316.56L783.6,318.39L774.42,320.23L768.92,322.06L767.08,320.23L770.75,314.72" fill="none" stroke="#000000" style="-webkit-tap-highlight-color: rgba(0, 0, 0, 0); stroke-linecap: round; stroke-linejoin: round; stroke-width: 5;" /><path d="M967.11,292.7L965.28,292.7L963.44,292.7L961.61,296.37L959.77,300.04L957.94,305.55L956.1,311.05L954.27,314.72L950.59,320.23L950.59,325.73L948.76,329.41L946.92,331.24L945.09,333.08L943.25,333.08L941.42,334.91L939.58,334.91L937.75,336.75L935.91,338.58L934.08,340.42L932.24,342.25L928.57,344.09L924.9,345.92L921.23,347.76L915.73,349.59L912.06,351.43L906.55,353.26L901.05,355.1L893.71,355.1L886.37,356.93L879.03,360.6L873.52,362.44L866.18,364.27L860.67,366.11L855.17,366.11L849.66,367.94L844.16,369.78L836.82,373.45L831.31,375.28L825.81,378.95L820.3,378.95L814.8,380.79L811.13,382.62L809.29,384.46L805.62,384.46L801.95,384.46L798.28,384.46L794.61,386.29L790.94,388.13L783.6,389.96L774.42,393.63L759.74,400.97L748.73,406.48" fill="none" stroke="#000000" style="-webkit-tap-highlight-color: rgba(0, 0, 0, 0); stroke-linecap: round; stroke-linejoin: round; stroke-width: 5;" /><path d="M763.41,406.48L759.74,411.99L756.07,417.49L754.24,430.34L754.24,437.68L752.4,443.18L750.57,446.85L746.9,448.69L743.23,450.52L741.39,450.52L737.72,452.36L735.89,454.19L734.05,457.86L732.22,459.7L730.38,461.53L728.54,463.37L726.71,465.2L726.71,468.87L726.71,470.71L724.87,474.38L724.87,478.05L724.87,483.56L724.87,489.06L724.87,494.57L726.71,503.74L726.71,512.92L726.71,522.09L726.71,529.43L726.71,536.77L724.87,542.28" fill="none" stroke="#000000" style="-webkit-tap-highlight-color: rgba(0, 0, 0, 0); stroke-linecap: round; stroke-linejoin: round; stroke-width: 5;" /><path d="M774.42,411.99L770.75,411.99L779.93,410.15L789.1,408.32L796.44,406.48L805.62,406.48L812.96,406.48L820.3,404.65L829.48,402.81L836.82,400.97L844.16,399.14L851.5,399.14L858.84,397.3L868.01,395.47L875.35,391.8L884.53,389.96L890.04,388.13L895.54,386.29L901.05,386.29L908.39,384.46L913.89,382.62L919.4,382.62L923.07,380.79L928.57,380.79L934.08,380.79L939.58,378.95L945.09,378.95L950.59,377.12L956.1,377.12L963.44,375.28L968.95,373.45L972.62,371.61L976.29,369.78L981.79,369.78L985.46,367.94L989.13,366.11L992.8,366.11L998.31,364.27L1003.81,364.27L1007.48,362.44L1014.82,360.6L1018.49,360.6L1022.16,358.77L1024,358.77" fill="none" stroke="#000000" style="-webkit-tap-highlight-color: rgba(0, 0, 0, 0); stroke-linecap: round; stroke-linejoin: round; stroke-width: 5;" /><path d="M844.16,378.95L842.32,380.79L838.65,382.62L836.82,382.62L834.98,382.62L836.82,382.62L840.49,380.79L844.16,380.79L849.66,378.95L857,377.12L864.34,375.28L871.68,373.45L879.03,371.61L884.53,369.78L893.71,366.11L901.05,364.27L908.39,360.6L915.73,358.77L921.23,356.93L926.74,356.93L930.41,355.1L935.91,353.26L941.42,351.43L946.92,349.59L950.59,347.76L956.1,345.92L963.44,342.25L968.95,338.58L976.29,333.08L985.46,327.57L985.46,325.73" fill="none" stroke="#000000" style="-webkit-tap-highlight-color: rgba(0, 0, 0, 0); stroke-linecap: round; stroke-linejoin: round; stroke-width: 5;" /><path d="M778.09,454.19L776.26,452.36L774.42,452.36L768.92,454.19L765.25,456.03L759.74,459.7L756.07,463.37L754.24,467.04L754.24,468.87L754.24,470.71L754.24,472.54L752.4,476.22L752.4,478.05L752.4,483.56L752.4,490.9L752.4,498.24L752.4,505.58L752.4,512.92L752.4,518.42L754.24,522.09L754.24,523.93" fill="none" stroke="#000000" style="-webkit-tap-highlight-color: rgba(0, 0, 0, 0); stroke-linecap: round; stroke-linejoin: round; stroke-width: 5;" /><path d="M783.6,452.36L781.76,452.36L779.93,452.36L779.93,454.19L779.93,456.03L781.76,456.03L783.6,459.7L785.43,463.37L785.43,467.04L785.43,470.71L785.43,476.22L787.27,479.89L787.27,483.56L787.27,487.23L787.27,494.57L787.27,501.91L787.27,511.08L787.27,518.42L787.27,525.76" fill="none" stroke="#000000" style="-webkit-tap-highlight-color: rgba(0, 0, 0, 0); stroke-linecap: round; stroke-linejoin: round; stroke-width: 5;" /><path d="M750.57,514.75L750.57,516.59L748.73,522.09L746.9,527.6L746.9,534.94L746.9,538.61L748.73,542.28" fill="none" stroke="#000000" style="-webkit-tap-highlight-color: rgba(0, 0, 0, 0); stroke-linecap: round; stroke-linejoin: round; stroke-width: 5;" /><path d="M337.66,400.97L337.66,397.3L335.83,397.3L330.32,399.14L321.15,406.48L317.48,410.15L313.81,415.66L311.97,419.33L308.3,423L304.63,426.67L299.13,430.34L293.62,434.01L289.95,437.68L286.28,441.35L282.61,441.35L280.77,443.18L278.94,443.18L277.1,443.18L273.43,445.02L271.6,446.85L267.93,446.85L266.09,448.69L264.26,448.69L262.42,450.52L260.59,454.19L260.59,456.03L258.75,457.86L258.75,459.7L256.92,463.37L255.08,467.04L251.41,470.71L247.74,476.22" fill="none" stroke="#000000" style="-webkit-tap-highlight-color: rgba(0, 0, 0, 0); stroke-linecap: round; stroke-linejoin: round; stroke-width: 5;" /><path d="M389.05,465.2L387.21,465.2L385.38,465.2L383.54,465.2L378.04,465.2L370.7,467.04L363.35,467.04L359.68,467.04L356.01,467.04L354.18,467.04L352.34,467.04L350.51,467.04L348.67,468.87L346.84,470.71L345,474.38L343.17,476.22L341.33,479.89L341.33,483.56L339.5,489.06L337.66,494.57L335.83,498.24L335.83,501.91L333.99,507.41L333.99,509.25L332.16,512.92L330.32,518.42L328.49,522.09L326.65,527.6L322.98,531.27L319.31,536.77L317.48,542.28L313.81,545.95L313.81,547.78" fill="none" stroke="#000000" style="-webkit-tap-highlight-color: rgba(0, 0, 0, 0); stroke-linecap: round; stroke-linejoin: round; stroke-width: 5;" /><path d="M284.44,472.54L282.61,470.71L280.77,470.71L282.61,468.87L286.28,468.87L288.11,468.87L297.29,470.71L308.3,470.71L321.15,470.71L332.16,470.71L339.5,470.71L343.17,470.71L343.17,472.54" fill="none" stroke="#000000" style="-webkit-tap-highlight-color: rgba(0, 0, 0, 0); stroke-linecap: round; stroke-linejoin: round; stroke-width: 5;" /><path d="M284.44,478.05L282.61,478.05L284.44,478.05L291.78,478.05L302.8,478.05L313.81,479.89L322.98,483.56L332.16,483.56L335.83,485.39L337.66,485.39" fill="none" stroke="#000000" style="-webkit-tap-highlight-color: rgba(0, 0, 0, 0); stroke-linecap: round; stroke-linejoin: round; stroke-width: 5;" /><path d="M282.61,489.06L278.94,489.06L278.94,487.23L280.77,487.23L289.95,487.23L302.8,489.06L313.81,490.9L324.82,492.73L333.99,492.73L337.66,494.57L339.5,494.57" fill="none" stroke="#000000" style="-webkit-tap-highlight-color: rgba(0, 0, 0, 0); stroke-linecap: round; stroke-linejoin: round; stroke-width: 5;" /><path d="M284.44,501.91L280.77,501.91L280.77,500.07L284.44,500.07L295.46,500.07L308.3,501.91L319.31,503.74L328.49,503.74L333.99,505.58" fill="none" stroke="#000000" style="-webkit-tap-highlight-color: rgba(0, 0, 0, 0); stroke-linecap: round; stroke-linejoin: round; stroke-width: 5;" /><path d="M277.1,512.92L275.27,512.92L278.94,512.92L288.11,514.75L299.13,516.59L311.97,518.42L319.31,520.26L324.82,520.26L326.65,520.26" fill="none" stroke="#000000" style="-webkit-tap-highlight-color: rgba(0, 0, 0, 0); stroke-linecap: round; stroke-linejoin: round; stroke-width: 5;" /><path d="M269.76,527.6L264.26,527.6L266.09,525.76L275.27,525.76L288.11,527.6L302.8,529.43L315.64,531.27L324.82,531.27L330.32,533.1" fill="none" stroke="#000000" style="-webkit-tap-highlight-color: rgba(0, 0, 0, 0); stroke-linecap: round; stroke-linejoin: round; stroke-width: 5;" /><path d="M300.96,463.37L299.13,463.37L299.13,461.53L299.13,459.7L300.96,457.86L304.63,457.86L308.3,456.03L311.97,456.03L315.64,456.03L321.15,456.03L326.65,456.03L330.32,456.03L333.99,456.03L337.66,456.03L341.33,456.03L346.84,456.03L352.34,456.03L356.01,456.03L361.52,456.03L365.19,456.03L368.86,456.03L372.53,457.86L378.04,457.86L381.71,457.86L385.38,457.86L389.05,457.86L390.88,459.7" fill="none" stroke="#000000" style="-webkit-tap-highlight-color: rgba(0, 0, 0, 0); stroke-linecap: round; stroke-linejoin: round; stroke-width: 5;" /><path d="M361.52,441.35L359.68,443.18L361.52,437.68L365.19,434.01L367.03,430.34L372.53,428.5L376.2,426.67L379.87,424.83L383.54,424.83L385.38,424.83L387.21,424.83L389.05,424.83L390.88,424.83L394.55,426.67L396.39,428.5L400.06,430.34L403.73,430.34L405.56,430.34L407.4,432.17L409.23,432.17L411.07,434.01L411.07,435.84L411.07,437.68L411.07,439.51L411.07,443.18L409.23,446.85L407.4,450.52L407.4,456.03L407.4,461.53L407.4,465.2L405.56,470.71L405.56,478.05L403.73,483.56L403.73,490.9L403.73,496.4L403.73,503.74L403.73,509.25L403.73,514.75L403.73,520.26L405.56,520.26" fill="none" stroke="#000000" style="-webkit-tap-highlight-color: rgba(0, 0, 0, 0); stroke-linecap: round; stroke-linejoin: round; stroke-width: 5;" /><path d="M405.56,435.84L403.73,435.84L403.73,434.01L405.56,432.17L407.4,432.17L409.23,432.17L412.9,432.17L416.57,434.01L418.41,435.84L422.08,435.84L423.91,437.68L425.75,437.68L425.75,439.51L427.58,441.35L427.58,443.18L429.42,445.02L431.25,448.69L433.09,452.36L434.92,457.86L436.76,461.53L438.59,465.2L440.43,470.71L442.27,474.38L444.1,478.05L447.77,483.56L449.61,487.23L451.44,490.9L453.28,494.57L456.95,498.24L458.78,503.74L460.62,507.41L462.45,511.08L464.29,516.59L466.12,520.26L469.79,523.93L471.63,529.43L475.3,533.1L477.13,534.94L477.13,536.77" fill="none" stroke="#000000" style="-webkit-tap-highlight-color: rgba(0, 0, 0, 0); stroke-linecap: round; stroke-linejoin: round; stroke-width: 5;" /><path d="M409.23,522.09L411.07,522.09L414.74,522.09L418.41,522.09L422.08,522.09L425.75,523.93L431.25,525.76L436.76,525.76L442.27,527.6L445.94,529.43L449.61,531.27L453.28,533.1L456.95,534.94L460.62,536.77L462.45,536.77L466.12,538.61L467.96,540.44L469.79,540.44L475.3,540.44L482.64,540.44L489.98,538.61L495.48,536.77L502.82,533.1L504.66,533.1" fill="none" stroke="#000000" style="-webkit-tap-highlight-color: rgba(0, 0, 0, 0); stroke-linecap: round; stroke-linejoin: round; stroke-width: 5;" /><path d="M400.06,522.09L398.22,520.26L396.39,520.26L394.55,520.26L392.72,522.09L389.05,523.93L385.38,527.6L383.54,531.27L381.71,533.1L381.71,534.94L379.87,536.77L378.04,538.61L376.2,538.61L372.53,540.44L370.7,540.44L367.03,540.44L365.19,540.44L361.52,540.44L354.18,540.44L346.84,542.28L337.66,544.11L332.16,545.95L328.49,545.95L326.65,547.78" fill="none" stroke="#000000" style="-webkit-tap-highlight-color: rgba(0, 0, 0, 0); stroke-linecap: round; stroke-linejoin: round; stroke-width: 5;" /><path d="M179.84,494.57L178.01,492.73L176.17,492.73L174.34,492.73L172.5,492.73L168.83,494.57L165.16,496.4L159.66,498.24L155.99,501.91L150.48,503.74L146.81,507.41L143.14,509.25L137.63,512.92L133.96,516.59L128.46,520.26L122.95,523.93L117.45,527.6L113.78,529.43L110.11,531.27L106.44,533.1L102.77,536.77L97.26,538.61L91.76,542.28L84.42,544.11L78.91,545.95L73.41,545.95L67.9,547.78L62.39,549.62L56.89,553.29L51.38,555.13L45.88,556.96L40.37,558.8L34.87,560.63L25.69,564.3L18.35,566.14L12.85,567.97L7.34,569.81L1.84,569.81" fill="none" stroke="#000000" style="-webkit-tap-highlight-color: rgba(0, 0, 0, 0); stroke-linecap: round; stroke-linejoin: round; stroke-width: 5;" /><path d="M1.84,551.46L3.67,549.62L5.51,549.62L12.85,547.78L25.69,542.28L33.03,538.61L38.54,534.94L45.88,533.1L53.22,533.1L60.56,531.27L69.73,527.6L78.91,523.93L86.25,520.26L93.59,516.59L99.1,512.92L104.6,511.08L110.11,507.41L115.61,503.74L121.12,500.07L124.79,498.24L128.46,496.4L130.29,492.73L132.13,490.9L133.96,489.06L135.8,489.06L137.63,489.06L137.63,487.23L139.47,487.23L141.3,487.23L143.14,485.39L144.97,485.39L148.65,485.39L154.15,485.39L161.49,485.39L168.83,487.23L176.17,487.23L185.35,487.23" fill="none" stroke="#000000" style="-webkit-tap-highlight-color: rgba(0, 0, 0, 0); stroke-linecap: round; stroke-linejoin: round; stroke-width: 5;" /><path d="M111.94,465.2L110.11,465.2L111.94,465.2L113.78,465.2L117.45,467.04L119.28,467.04L122.95,467.04L128.46,467.04L135.8,467.04L141.3,465.2L144.97,465.2L150.48,465.2L154.15,465.2L159.66,465.2L163.33,465.2L168.83,465.2L172.5,465.2L176.17,465.2L179.84,465.2L181.68,465.2L185.35,465.2L189.02,465.2L194.52,465.2L196.36,465.2L198.19,465.2L200.03,465.2L200.03,467.04L201.86,468.87L203.7,472.54L205.53,474.38L205.53,476.22L205.53,479.89L205.53,483.56L205.53,487.23L207.37,490.9L207.37,494.57L209.2,498.24L209.2,501.91L211.04,505.58L211.04,509.25L211.04,512.92L211.04,514.75L212.87,518.42L212.87,522.09L214.71,525.76L214.71,529.43L216.54,533.1L218.38,538.61L222.05,544.11" fill="none" stroke="#000000" style="-webkit-tap-highlight-color: rgba(0, 0, 0, 0); stroke-linecap: round; stroke-linejoin: round; stroke-width: 5;" /><path d="M222.05,463.37L220.22,461.53L222.05,461.53L225.72,461.53L231.23,461.53L234.9,461.53L240.4,463.37L244.07,463.37L245.91,463.37L247.74,465.2L251.41,465.2L253.25,465.2L255.08,463.37" fill="none" stroke="#000000" style="-webkit-tap-highlight-color: rgba(0, 0, 0, 0); stroke-linecap: round; stroke-linejoin: round; stroke-width: 5;" /><path d="M16.52,601L14.68,601L12.85,601L14.68,601L16.52,601L20.19,601L25.69,601L33.03,599.17L42.21,597.33L49.55,595.5L56.89,595.5L64.23,593.66L71.57,593.66L80.75,589.99L88.09,588.16L95.43,586.32L102.77,586.32L108.27,584.49L113.78,584.49L117.45,582.65L122.95,582.65L128.46,580.82L135.8,577.15L139.47,575.31L143.14,575.31L146.81,575.31L150.48,573.48L154.15,573.48L157.82,571.64L161.49,571.64L165.16,571.64L167,571.64L170.67,571.64L174.34,571.64L179.84,571.64L183.51,571.64L189.02,571.64L194.52,571.64L198.19,571.64L203.7,571.64L207.37,571.64L211.04,573.48L216.54,573.48L220.22,573.48L225.72,573.48L229.39,573.48L233.06,573.48L238.57,573.48L245.91,573.48L251.41,573.48L258.75,571.64L260.59,571.64" fill="none" stroke="#000000" style="-webkit-tap-highlight-color: rgba(0, 0, 0, 0); stroke-linecap: round; stroke-linejoin: round; stroke-width: 5;" /><path d="M179.84,536.77L178.01,534.94L176.17,534.94L176.17,533.1L178.01,533.1L179.84,531.27L185.35,529.43L189.02,529.43L192.69,529.43L198.19,529.43L200.03,529.43L201.86,529.43L203.7,529.43L205.53,529.43L207.37,529.43L207.37,531.27L207.37,533.1L209.2,534.94L209.2,536.77L209.2,538.61L209.2,540.44L209.2,545.95" fill="none" stroke="#000000" style="-webkit-tap-highlight-color: rgba(0, 0, 0, 0); stroke-linecap: round; stroke-linejoin: round; stroke-width: 5;" /><path d="M196.36,549.62L194.52,549.62L196.36,547.78L200.03,547.78L201.86,545.95L205.53,545.95L209.2,544.11L212.87,542.28L214.71,542.28L216.54,542.28L218.38,542.28L218.38,544.11L220.22,544.11L222.05,545.95L223.89,547.78L225.72,549.62L227.56,549.62L225.72,551.46L225.72,553.29L223.89,555.13L223.89,556.96L223.89,560.63" fill="none" stroke="#000000" style="-webkit-tap-highlight-color: rgba(0, 0, 0, 0); stroke-linecap: round; stroke-linejoin: round; stroke-width: 5;" /><path d="M227.56,566.14L233.06,566.14L238.57,566.14L245.91,569.81L253.25,569.81L258.75,571.64L264.26,571.64L269.76,569.81" fill="none" stroke="#000000" style="-webkit-tap-highlight-color: rgba(0, 0, 0, 0); stroke-linecap: round; stroke-linejoin: round; stroke-width: 5;" /><path d="M256.92,470.71L255.08,468.87L255.08,470.71L255.08,474.38L255.08,479.89L255.08,485.39L255.08,492.73L255.08,500.07L256.92,509.25L256.92,518.42L256.92,525.76L258.75,531.27L260.59,534.94" fill="none" stroke="#000000" style="-webkit-tap-highlight-color: rgba(0, 0, 0, 0); stroke-linecap: round; stroke-linejoin: round; stroke-width: 5;" /><path d="M71.57,461.53L69.73,459.7L69.73,457.86L71.57,457.86L75.24,456.03L80.75,454.19L88.09,450.52L93.59,448.69L99.1,448.69L102.77,448.69L108.27,448.69L115.61,448.69L122.95,446.85L130.29,446.85L135.8,445.02L141.3,445.02L144.97,445.02L152.32,445.02L157.82,445.02L163.33,443.18L167,443.18L172.5,441.35L176.17,441.35L179.84,441.35L185.35,441.35L190.85,441.35L196.36,441.35L200.03,441.35L203.7,441.35L207.37,441.35L211.04,441.35L216.54,441.35L222.05,441.35L225.72,441.35L229.39,441.35L234.9,443.18L238.57,443.18L244.07,443.18L247.74,443.18L251.41,441.35L258.75,441.35L264.26,441.35L269.76,441.35L275.27,441.35" fill="none" stroke="#000000" style="-webkit-tap-highlight-color: rgba(0, 0, 0, 0); stroke-linecap: round; stroke-linejoin: round; stroke-width: 5;" /><path d="M49.55,421.16L49.55,419.33L51.38,419.33L55.05,419.33L60.56,419.33L66.06,419.33L71.57,419.33L77.08,417.49L82.58,417.49L88.09,417.49L93.59,417.49L99.1,417.49L104.6,417.49L110.11,417.49L117.45,417.49L122.95,417.49L128.46,417.49L133.96,417.49L137.63,419.33L144.97,419.33L154.15,419.33L161.49,417.49L165.16,417.49L168.83,417.49L174.34,417.49L179.84,417.49L187.18,415.66L192.69,415.66L198.19,415.66L203.7,415.66L207.37,415.66L211.04,413.82L214.71,413.82L218.38,413.82L222.05,413.82L225.72,411.99L229.39,411.99L233.06,410.15L234.9,410.15L238.57,408.32L242.24,408.32L245.91,406.48L249.58,406.48L251.41,404.65L255.08,402.81L256.92,402.81L258.75,402.81L262.42,400.97L264.26,399.14L266.09,397.3L267.93,395.47L269.76,395.47L271.6,393.63L273.43,393.63L275.27,393.63L277.1,393.63L278.94,391.8L282.61,391.8L284.44,391.8L286.28,391.8L288.11,391.8L289.95,391.8L293.62,391.8L297.29,391.8L300.96,391.8L306.47,391.8L311.97,391.8L317.48,391.8L324.82,391.8L332.16,391.8L335.83,393.63" fill="none" stroke="#000000" style="-webkit-tap-highlight-color: rgba(0, 0, 0, 0); stroke-linecap: round; stroke-linejoin: round; stroke-width: 5;" /><path d="M234.9,569.81L233.06,569.81L231.23,569.81L233.06,569.81L236.73,569.81L238.57,569.81L242.24,569.81L249.58,569.81L256.92,566.14L266.09,562.47L275.27,560.63L284.44,558.8L289.95,555.13L297.29,553.29L304.63,551.46L310.14,549.62L315.64,547.78L319.31,547.78" fill="none" stroke="#000000" style="-webkit-tap-highlight-color: rgba(0, 0, 0, 0); stroke-linecap: round; stroke-linejoin: round; stroke-width: 5;" /><path d="M502.82,534.94L506.49,534.94L510.16,534.94L515.67,534.94L521.18,538.61L523.01,540.44L524.85,540.44L526.68,540.44L528.52,540.44L530.35,540.44L532.19,542.28L535.86,542.28L539.53,542.28L541.36,542.28L543.2,542.28L545.03,544.11L548.7,544.11L550.54,544.11L552.37,542.28L554.21,540.44L556.04,540.44L557.88,538.61L557.88,536.77L559.71,534.94L561.55,534.94L561.55,533.1L563.38,533.1L565.22,533.1L567.05,531.27L568.89,531.27L570.72,531.27L572.56,529.43L574.39,529.43L576.23,529.43L579.9,529.43L581.73,529.43L585.41,529.43L587.24,529.43L589.08,529.43L592.75,529.43L596.42,529.43L598.25,529.43L600.09,531.27L601.92,531.27L605.59,531.27L607.43,531.27L609.26,531.27L611.1,531.27L612.93,533.1L614.77,533.1L616.6,533.1L618.44,533.1L620.27,533.1L622.11,533.1L623.94,533.1L625.78,533.1L627.61,533.1L629.45,533.1L631.28,533.1L631.28,536.77L631.28,538.61" fill="none" stroke="#000000" style="-webkit-tap-highlight-color: rgba(0, 0, 0, 0); stroke-linecap: round; stroke-linejoin: round; stroke-width: 5;" /><path d="M636.79,538.61L636.79,534.94L634.95,533.1L636.79,533.1L640.46,534.94L642.29,534.94L645.96,534.94L649.63,534.94L651.47,534.94L653.3,534.94L655.14,534.94L658.81,534.94L662.48,534.94L664.32,534.94L667.99,536.77L671.66,538.61L675.33,538.61L679,540.44L682.67,540.44L688.17,540.44L691.84,540.44L699.18,540.44L706.52,540.44L712.03,540.44L717.53,538.61L723.04,538.61L728.54,540.44" fill="none" stroke="#000000" style="-webkit-tap-highlight-color: rgba(0, 0, 0, 0); stroke-linecap: round; stroke-linejoin: round; stroke-width: 5;" /><path d="M723.04,540.44L719.37,538.61L717.53,536.77L721.2,536.77L724.87,536.77L730.38,538.61L734.05,540.44L737.72,542.28L743.23,544.11L748.73,544.11L752.4,544.11L752.4,545.95L754.24,547.78L754.24,549.62L756.07,549.62L756.07,553.29L757.91,555.13L759.74,556.96L761.58,558.8L763.41,560.63L765.25,564.3L767.08,566.14L767.08,569.81L768.92,573.48L768.92,577.15L770.75,580.82L772.59,584.49L774.42,586.32L776.26,589.99L778.09,593.66L778.09,595.5L778.09,597.33L778.09,599.17L778.09,601L779.93,602.84L779.93,604.67L779.93,608.34L781.76,610.18L781.76,612.01L783.6,613.85L785.43,617.52L787.27,619.35L787.27,621.19L790.94,624.86L792.77,626.7L796.44,630.37L798.28,632.2L801.95,634.04L805.62,635.87L809.29,639.54L811.13,641.38L814.8,643.21L816.63,645.05L818.47,648.72L820.3,650.55L822.14,652.39L823.97,654.22L825.81,657.89L827.64,659.73L829.48,661.56L831.31,663.4L833.15,667.07L834.98,668.9L834.98,670.74L836.82,674.41L838.65,676.24L840.49,678.08L842.32,679.91L844.16,681.75L845.99,685.42L847.83,687.25L849.66,689.09L849.66,690.92L851.5,690.92L853.33,692.76L853.33,694.59L855.17,696.43L857,698.27L857,700.1L858.84,701.94L860.67,703.77L862.51,705.61L864.34,707.44L864.34,709.28L868.01,711.11L869.85,714.78L871.68,716.62L873.52,720.29L875.35,722.12L879.03,725.79L880.86,727.63L884.53,731.3L888.2,733.13L890.04,734.97L893.71,738.64L897.38,740.47L899.21,742.31L901.05,745.98L904.72,747.81L906.55,749.65L908.39,753.32L912.06,756.99L915.73,758.82L917.56,762.49L921.23,766.16L924.9,769.84L930.41,773.51" fill="none" stroke="#000000" style="-webkit-tap-highlight-color: rgba(0, 0, 0, 0); stroke-linecap: round; stroke-linejoin: round; stroke-width: 5;" /><path d="M884.53,443.18L882.7,445.02L880.86,448.69L879.03,450.52L875.35,454.19L871.68,457.86L869.85,463.37L868.01,467.04L864.34,468.87L862.51,472.54L860.67,476.22L860.67,479.89L860.67,483.56L858.84,487.23L858.84,490.9L857,494.57L855.17,496.4L855.17,500.07L853.33,503.74L849.66,505.58L847.83,509.25L845.99,512.92L845.99,514.75L844.16,516.59L842.32,518.42L838.65,520.26L836.82,522.09L834.98,523.93L833.15,523.93L831.31,525.76L829.48,527.6L827.64,529.43L825.81,529.43L823.97,529.43L822.14,531.27L822.14,533.1L823.97,534.94" fill="none" stroke="#000000" style="-webkit-tap-highlight-color: rgba(0, 0, 0, 0); stroke-linecap: round; stroke-linejoin: round; stroke-width: 5;" /><path d="M827.64,544.11L825.81,542.28L823.97,540.44L825.81,540.44L827.64,540.44L829.48,540.44L829.48,538.61L829.48,536.77L831.31,536.77L833.15,538.61L834.98,538.61L836.82,540.44L840.49,542.28L845.99,544.11L851.5,545.95L855.17,547.78L860.67,549.62L864.34,551.46L866.18,553.29L868.01,555.13L869.85,556.96L871.68,558.8L873.52,560.63L875.35,562.47L879.03,564.3L880.86,566.14L884.53,567.97L888.2,569.81L890.04,569.81L893.71,573.48L897.38,575.31" fill="none" stroke="#000000" style="-webkit-tap-highlight-color: rgba(0, 0, 0, 0); stroke-linecap: round; stroke-linejoin: round; stroke-width: 5;" /><path d="M820.3,540.44L816.63,538.61L814.8,540.44L812.96,549.62L811.13,553.29L811.13,558.8L811.13,564.3L812.96,571.64L812.96,577.15L814.8,582.65L814.8,586.32L814.8,593.66L814.8,601L818.47,608.34L820.3,613.85L820.3,619.35L822.14,626.7L822.14,632.2L822.14,637.71L822.14,643.21L822.14,648.72L822.14,652.39" fill="none" stroke="#000000" style="-webkit-tap-highlight-color: rgba(0, 0, 0, 0); stroke-linecap: round; stroke-linejoin: round; stroke-width: 5;" /><path d="M890.04,571.64L891.87,567.97L895.54,564.3L901.05,560.63L906.55,555.13L913.89,551.46L921.23,549.62L930.41,547.78L937.75,545.95L946.92,545.95L954.27,544.11L961.61,544.11L967.11,545.95L974.45,545.95L978.12,547.78L981.79,547.78L987.3,547.78" fill="none" stroke="#000000" style="-webkit-tap-highlight-color: rgba(0, 0, 0, 0); stroke-linecap: round; stroke-linejoin: round; stroke-width: 5;" /><path d="M923.07,531.27L921.23,531.27L921.23,529.43L923.07,527.6L926.74,527.6L932.24,525.76L939.58,525.76L948.76,522.09L956.1,522.09L961.61,522.09L965.28,522.09L970.78,522.09L976.29,522.09L983.63,522.09L992.8,522.09L998.31,522.09L1003.81,522.09L1009.32,522.09L1014.82,522.09L1016.66,523.93" fill="none" stroke="#000000" style="-webkit-tap-highlight-color: rgba(0, 0, 0, 0); stroke-linecap: round; stroke-linejoin: round; stroke-width: 5;" /><path d="M946.92,445.02L946.92,441.35L946.92,443.18L946.92,446.85L948.76,450.52L952.43,452.36L956.1,454.19L959.77,456.03L961.61,457.86L961.61,459.7L961.61,461.53L963.44,463.37L963.44,465.2L965.28,467.04L965.28,468.87L965.28,472.54L965.28,478.05L965.28,481.72L965.28,489.06L965.28,498.24L965.28,505.58L967.11,509.25L967.11,512.92L967.11,514.75" fill="none" stroke="#000000" style="-webkit-tap-highlight-color: rgba(0, 0, 0, 0); stroke-linecap: round; stroke-linejoin: round; stroke-width: 5;" /><path d="M946.92,450.52L946.92,448.69L946.92,452.36L945.09,456.03L945.09,459.7L945.09,463.37L945.09,468.87L945.09,474.38L945.09,479.89L945.09,485.39L945.09,490.9L945.09,498.24L946.92,503.74L946.92,507.41L945.09,509.25L945.09,512.92L945.09,514.75" fill="none" stroke="#000000" style="-webkit-tap-highlight-color: rgba(0, 0, 0, 0); stroke-linecap: round; stroke-linejoin: round; stroke-width: 5;" /><path d="M935.91,474.38L934.08,472.54L932.24,470.71L928.57,470.71L926.74,470.71L924.9,470.71L921.23,470.71L919.4,470.71L915.73,472.54L912.06,474.38L908.39,476.22L906.55,478.05L904.72,481.72L902.88,485.39L899.21,489.06L897.38,494.57L893.71,498.24L891.87,503.74L888.2,505.58L886.37,509.25" fill="none" stroke="#000000" style="-webkit-tap-highlight-color: rgba(0, 0, 0, 0); stroke-linecap: round; stroke-linejoin: round; stroke-width: 5;" /><path d="M871.68,461.53L869.85,461.53L868.01,459.7L869.85,459.7L873.52,459.7L875.35,461.53L879.03,463.37L882.7,463.37L886.37,465.2L888.2,467.04L890.04,468.87L890.04,470.71L890.04,472.54L891.87,474.38L895.54,474.38" fill="none" stroke="#000000" style="-webkit-tap-highlight-color: rgba(0, 0, 0, 0); stroke-linecap: round; stroke-linejoin: round; stroke-width: 5;" /><path d="M1001.98,377.12L1000.14,375.28L998.31,375.28L1000.14,375.28L1000.14,373.45L1001.98,373.45L1001.98,375.28L1001.98,378.95L1003.81,382.62L1005.65,386.29L1007.48,389.96L1007.48,393.63L1007.48,399.14L1009.32,406.48L1012.99,410.15L1016.66,413.82L1018.49,419.33" fill="none" stroke="#000000" style="-webkit-tap-highlight-color: rgba(0, 0, 0, 0); stroke-linecap: round; stroke-linejoin: round; stroke-width: 5;" /><path d="M970.78,393.63L968.95,397.3L968.95,400.97L967.11,404.65L965.28,411.99L965.28,417.49L963.44,424.83L961.61,430.34L959.77,437.68L957.94,445.02L956.1,450.52L956.1,457.86L957.94,463.37L963.44,468.87" fill="none" stroke="#000000" style="-webkit-tap-highlight-color: rgba(0, 0, 0, 0); stroke-linecap: round; stroke-linejoin: round; stroke-width: 5;" /><path d="M959.77,560.63L959.77,558.8L959.77,556.96L959.77,555.13L959.77,556.96L959.77,560.63L957.94,566.14L957.94,571.64L956.1,578.98L956.1,586.32L957.94,593.66L957.94,601L959.77,608.34L959.77,613.85L961.61,615.68" fill="none" stroke="#000000" style="-webkit-tap-highlight-color: rgba(0, 0, 0, 0); stroke-linecap: round; stroke-linejoin: round; stroke-width: 5;" /><path d="M910.22,573.48L910.22,569.81L910.22,578.98L908.39,591.83L908.39,599.17L908.39,606.51L908.39,613.85L908.39,619.35L910.22,623.03L912.06,624.86L912.06,626.7L913.89,626.7L915.73,628.53L917.56,630.37L919.4,634.04L923.07,639.54L926.74,645.05L932.24,648.72L939.58,654.22L945.09,659.73L950.59,663.4L954.27,667.07L957.94,672.57L961.61,674.41L965.28,678.08L968.95,681.75L972.62,685.42L976.29,690.92L979.96,696.43L985.46,701.94L992.8,707.44L1000.14,712.95L1007.48,716.62L1014.82,720.29" fill="none" stroke="#000000" style="-webkit-tap-highlight-color: rgba(0, 0, 0, 0); stroke-linecap: round; stroke-linejoin: round; stroke-width: 5;" /></svg>