<?xml version="1.0" encoding="utf-8" ?>
<svg baseProfile="full" height="776" version="1.1" width="1024" xmlns="http://www.w3.org/2000/svg" xmlns:ev="http://www.w3.org/2001/xml-events" xmlns:xlink="http://www.w3.org/1999/xlink"><defs /><path d="M0,315.7" fill="none" stroke="#000000" style="-webkit-tap-highlight-color: rgba(0, 0, 0, 0); stroke-linecap: round; stroke-linejoin: round; stroke-width: 5;" /><path d="M0,310.28L1.81,310.28L5.43,308.47L7.24,308.47L12.66,308.47L16.28,306.66L19.9,306.66L25.33,306.66L28.95,308.47L30.76,310.28L34.37,310.28L37.99,310.28L39.8,312.08L41.61,312.08L45.23,312.08L47.04,313.89L50.66,313.89L52.47,313.89L54.28,315.7L57.89,315.7L59.7,315.7L63.32,315.7L65.13,317.51L68.75,317.51L70.56,319.32L72.37,321.13L74.18,321.13L75.99,322.94L77.8,324.75L79.6,326.56L81.41,328.37L83.22,330.18L85.03,330.18L86.84,331.99L88.65,331.99L90.46,331.99L92.27,331.99L94.08,330.18L95.89,330.18L97.7,330.18L97.7,328.37L99.51,328.37L101.31,326.56L103.12,326.56L104.93,326.56L108.55,326.56L110.36,326.56L112.17,326.56L115.79,328.37L117.6,328.37L121.22,328.37L124.83,330.18L130.26,330.18L133.88,330.18L139.31,330.18L142.93,330.18L146.54,330.18L151.97,330.18L155.59,328.37L159.21,328.37L162.83,328.37L166.45,326.56L170.06,326.56L171.87,324.75L175.49,324.75L179.11,322.94L180.92,321.13L182.73,321.13L184.54,321.13L188.16,319.32L189.96,319.32L193.58,319.32L195.39,317.51L199.01,317.51L202.63,315.7L206.25,315.7L209.87,313.89L213.48,313.89L217.1,312.08L218.91,312.08L222.53,312.08L226.15,310.28L229.77,310.28L231.58,308.47L235.19,308.47L238.81,306.66L242.43,304.85L244.24,304.85L247.86,303.04L249.67,301.23L251.48,299.42L253.29,297.61L255.1,297.61L256.9,295.8L258.71,293.99L260.52,292.18L260.52,290.37L262.33,288.57L264.14,286.76L264.14,284.95L265.95,281.33L267.76,279.52L269.57,277.71L271.38,275.9L271.38,274.09L273.19,272.28L275,270.47L275,268.66L276.81,268.66L278.61,268.66L280.42,266.86L282.23,266.86L284.04,265.05L285.85,265.05L287.66,265.05L289.47,263.24L291.28,263.24L293.09,261.43L294.9,261.43L296.71,261.43L300.33,261.43L302.13,259.62L303.94,259.62L307.56,259.62L309.37,257.81L312.99,257.81L316.61,256L320.23,256L323.84,256L327.46,256L331.08,256L334.7,256L340.13,256L343.75,256L347.36,256L352.79,256L356.41,256L360.03,257.81L361.84,257.81L365.46,259.62L367.27,261.43L370.88,263.24L372.69,265.05L376.31,266.86L378.12,266.86L379.93,268.66L383.55,270.47L385.36,270.47L387.17,272.28L390.78,272.28L392.59,272.28L394.4,274.09L396.21,274.09L398.02,274.09L401.64,274.09L403.45,274.09L405.26,274.09L407.07,274.09L408.88,274.09L410.69,274.09L412.49,275.9L416.11,275.9L417.92,275.9L419.73,277.71L421.54,277.71L423.35,279.52L425.16,281.33L426.97,283.14L428.78,283.14L432.4,284.95L434.2,284.95L436.01,284.95L439.63,284.95L441.44,284.95L443.25,284.95L445.06,283.14L446.87,281.33L448.68,281.33L450.49,279.52L452.3,277.71L454.11,275.9L454.11,274.09L455.92,272.28L455.92,270.47L457.72,268.66L457.72,266.86L457.72,265.05L457.72,263.24L457.72,261.43L459.53,261.43L459.53,259.62L459.53,257.81L459.53,256L461.34,256L461.34,254.19L461.34,252.38L463.15,250.57L464.96,250.57L464.96,248.76L466.77,248.76L468.58,248.76L470.39,248.76L472.2,248.76L474.01,248.76L475.82,248.76L477.63,248.76L479.43,248.76L481.24,248.76L481.24,246.95L483.05,246.95L484.86,246.95L484.86,245.14L486.67,245.14L486.67,243.34L488.48,241.53L490.29,239.72L492.1,237.91L493.91,236.1L493.91,234.29L495.72,232.48L497.53,230.67L497.53,228.86L497.53,227.05L499.34,225.24L499.34,223.43L499.34,221.63L501.14,221.63L501.14,219.82L502.95,219.82L504.76,219.82L506.57,219.82L508.38,219.82L510.19,219.82L512,219.82L512,218.01L513.81,218.01L515.62,218.01L515.62,216.2L517.43,216.2L519.24,214.39L521.05,214.39L522.86,214.39L524.66,212.58L528.28,212.58L530.09,210.77L531.9,210.77L535.52,210.77L537.33,208.96L540.95,208.96L542.76,207.15L546.37,207.15L548.18,205.34L551.8,205.34L553.61,203.53L555.42,203.53L559.04,203.53L560.85,201.72L562.66,201.72L566.28,201.72L569.89,201.72L573.51,199.92L575.32,199.92L578.94,199.92L582.56,199.92L586.18,198.11L589.8,198.11L591.6,198.11L595.22,198.11L598.84,198.11L602.46,198.11L604.27,198.11L607.89,198.11L611.51,196.3L613.31,196.3L616.93,196.3L618.74,194.49L622.36,194.49L624.17,192.68L627.79,192.68L629.6,190.87L631.41,190.87L633.22,189.06L635.02,189.06L636.83,189.06L638.64,187.25L642.26,187.25L644.07,185.44L645.88,183.63L647.69,183.63L649.5,181.82L651.31,180.01L653.12,180.01L654.93,178.2L656.73,176.4L658.54,174.59L660.35,172.78L660.35,170.97L662.16,169.16L663.97,167.35L665.78,167.35L665.78,165.54L667.59,163.73L669.4,161.92L671.21,160.11L673.02,158.3L674.83,156.49L676.64,156.49L678.45,154.69L682.06,152.88L683.87,152.88L685.68,152.88L689.3,151.07L692.92,151.07L694.73,151.07L698.35,151.07L701.96,151.07L705.58,152.88L709.2,152.88L712.82,154.69L716.44,154.69L718.25,154.69L720.06,154.69L723.67,154.69L725.48,152.88L725.48,151.07L727.29,149.26L729.1,147.45L730.91,145.64L730.91,143.83L732.72,143.83L734.53,142.02L736.34,140.21L738.15,138.4L739.96,138.4L741.77,138.4L743.58,136.59L745.39,136.59L747.19,136.59L750.81,134.78L752.62,134.78L754.43,132.98L756.24,131.17L758.05,131.17L759.86,129.36L761.67,127.55L763.48,125.74L765.29,123.93L767.1,123.93L768.9,122.12L770.71,120.31L772.52,120.31L774.33,118.5L776.14,118.5L779.76,118.5L781.57,116.69L785.19,116.69L787,116.69L790.61,116.69L792.42,116.69L796.04,116.69L797.85,116.69L801.47,116.69L805.09,116.69L808.71,116.69L810.52,114.88L814.13,114.88L815.94,114.88L819.56,114.88L821.37,113.07L824.99,113.07L826.8,113.07L830.42,111.27L832.23,111.27L834.04,109.46L837.65,109.46L839.46,107.65L841.27,107.65L844.89,107.65L846.7,105.84L850.32,104.03L852.13,104.03L853.94,102.22L857.55,102.22L859.36,102.22L862.98,100.41L864.79,100.41L868.41,100.41L870.22,98.6L873.84,98.6L875.65,98.6L879.27,98.6L881.07,98.6L882.88,98.6L886.5,98.6L888.31,98.6L891.93,98.6L895.55,98.6L897.36,96.79L900.98,96.79L904.59,96.79L908.21,96.79L910.02,96.79L913.64,96.79L915.45,96.79L919.07,98.6L920.88,98.6L924.49,98.6L926.3,98.6L928.11,98.6L929.92,100.41L931.73,100.41L933.54,100.41L935.35,102.22L937.16,104.03L938.97,104.03L938.97,105.84L940.78,107.65L942.59,109.46L944.4,109.46L946.2,111.27L948.01,113.07L949.82,113.07L951.63,114.88L953.44,116.69L955.25,118.5L955.25,120.31L955.25,122.12L955.25,123.93L955.25,125.74L957.06,127.55L957.06,129.36L958.87,131.17L960.68,131.17L962.49,131.17L964.3,131.17L966.11,132.98L967.92,132.98L967.92,134.78L967.92,138.4L967.92,140.21L967.92,142.02L967.92,145.64L969.72,149.26L969.72,152.88L969.72,154.69L969.72,158.3L969.72,161.92L969.72,165.54L967.92,169.16L966.11,174.59L966.11,180.01L964.3,185.44L964.3,189.06L962.49,192.68L962.49,196.3L962.49,201.72L962.49,205.34L962.49,210.77L960.68,219.82L960.68,223.43L958.87,227.05L958.87,230.67L958.87,234.29L958.87,237.91L958.87,241.53L958.87,243.34L957.06,246.95L955.25,250.57L955.25,254.19L955.25,257.81L955.25,259.62L955.25,263.24L955.25,265.05L955.25,266.86L955.25,268.66L957.06,272.28L957.06,274.09L958.87,275.9L960.68,277.71L962.49,279.52L964.3,283.14L966.11,284.95L967.92,286.76L969.72,288.57L971.53,288.57L971.53,290.37L973.34,290.37L975.15,290.37L976.96,290.37L978.77,290.37L982.39,288.57L984.2,288.57L987.82,288.57L991.43,286.76L996.86,286.76L1000.48,284.95L1004.1,284.95L1005.91,283.14L1009.53,283.14L1011.34,283.14L1014.95,281.33L1018.57,281.33L1022.19,281.33" fill="none" stroke="#000000" style="-webkit-tap-highlight-color: rgba(0, 0, 0, 0); stroke-linecap: round; stroke-linejoin: round; stroke-width: 5;" /><path d="M1022.19,277.71" fill="none" stroke="#000000" style="-webkit-tap-highlight-color: rgba(0, 0, 0, 0); stroke-linecap: round; stroke-linejoin: round; stroke-width: 5;" /><path d="M792.42,263.24L792.42,261.43L792.42,259.62L790.61,259.62L790.61,257.81L790.61,256L788.81,256L787,257.81L785.19,261.43L783.38,265.05L781.57,268.66L779.76,274.09L777.95,279.52L776.14,283.14L776.14,288.57L774.33,292.18L772.52,295.8L770.71,299.42L770.71,301.23L770.71,304.85L772.52,308.47L776.14,310.28L781.57,313.89L785.19,315.7L788.81,317.51L790.61,319.32L792.42,319.32L796.04,319.32L797.85,319.32L799.66,319.32L801.47,317.51L803.28,312.08L806.9,306.66L808.71,299.42L810.52,288.57L810.52,277.71L810.52,266.86L808.71,259.62L805.09,254.19L790.61,252.38L783.38,257.81L774.33,263.24L768.9,268.66L763.48,274.09L759.86,279.52L759.86,281.33L759.86,283.14L761.67,283.14" fill="none" stroke="#000000" style="-webkit-tap-highlight-color: rgba(0, 0, 0, 0); stroke-linecap: round; stroke-linejoin: round; stroke-width: 5;" /><path d="M551.8,520.14L551.8,521.95L549.99,523.76L548.18,523.76L548.18,521.95L548.18,518.33L548.18,514.71L548.18,511.1L548.18,507.48L548.18,502.05L546.37,496.62L546.37,491.19L546.37,485.77L548.18,482.15L548.18,478.53L549.99,473.1L551.8,467.67L551.8,464.06L553.61,458.63L553.61,455.01L555.42,451.39L555.42,447.77L555.42,442.35L553.61,438.73L553.61,435.11L553.61,431.49L553.61,427.87L553.61,424.25L553.61,420.64L553.61,415.21L553.61,411.59L555.42,407.97L557.23,402.54L557.23,397.12L557.23,391.69L559.04,388.07L559.04,382.64L559.04,379.02L559.04,375.41L559.04,371.79L559.04,368.17L559.04,364.55L559.04,362.74L559.04,359.12L559.04,351.89L559.04,350.08L559.04,348.27L560.85,344.65L560.85,339.22L560.85,333.8L562.66,330.18L564.47,326.56L566.28,324.75L566.28,322.94L568.08,319.32L569.89,317.51L571.7,315.7L573.51,313.89L575.32,313.89L578.94,312.08L580.75,312.08L584.37,310.28L587.99,310.28L593.41,308.47L597.03,306.66L600.65,304.85L602.46,304.85L606.08,304.85L609.7,304.85L613.31,306.66L615.12,308.47L618.74,312.08L622.36,313.89L625.98,317.51L629.6,321.13L633.22,322.94L636.83,326.56L638.64,330.18L642.26,333.8L644.07,337.41L647.69,341.03L649.5,344.65L651.31,348.27L653.12,351.89L653.12,355.51L653.12,357.31L653.12,362.74L653.12,366.36L653.12,371.79L653.12,377.22L653.12,382.64L653.12,386.26L651.31,391.69L651.31,395.31L651.31,400.73L649.5,406.16L649.5,409.78L649.5,413.4L647.69,417.02L647.69,422.45L647.69,426.06L645.88,431.49L645.88,436.92L645.88,442.35L644.07,453.2L644.07,458.63L644.07,462.25L645.88,465.87L645.88,469.48L645.88,473.1L645.88,476.72L645.88,482.15L645.88,487.58L645.88,493L645.88,498.43L645.88,502.05L647.69,507.48L647.69,511.1L649.5,514.71L651.31,516.52L651.31,520.14L653.12,523.76L653.12,525.57L653.12,527.38L651.31,525.57L649.5,520.14L647.69,514.71" fill="none" stroke="#000000" style="-webkit-tap-highlight-color: rgba(0, 0, 0, 0); stroke-linecap: round; stroke-linejoin: round; stroke-width: 5;" /><path d="M649.5,187.25L647.69,187.25L645.88,185.44L645.88,183.63L647.69,183.63L649.5,183.63L651.31,183.63L653.12,183.63L654.93,183.63L654.93,185.44L654.93,189.06L654.93,190.87L654.93,196.3L656.73,203.53L656.73,210.77L658.54,219.82L660.35,228.86L662.16,236.1L663.97,245.14L665.78,250.57L667.59,257.81L667.59,266.86L669.4,274.09L669.4,283.14L669.4,292.18L669.4,297.61L669.4,303.04L669.4,308.47L669.4,312.08L669.4,317.51L667.59,322.94L667.59,328.37L667.59,333.8L667.59,339.22L667.59,344.65L667.59,350.08L667.59,355.51L667.59,360.93L667.59,366.36L667.59,368.17L669.4,369.98L669.4,371.79L669.4,375.41L671.21,379.02L671.21,382.64L671.21,388.07L671.21,393.5L669.4,397.12L667.59,400.73" fill="none" stroke="#000000" style="-webkit-tap-highlight-color: rgba(0, 0, 0, 0); stroke-linecap: round; stroke-linejoin: round; stroke-width: 5;" /><path d="M725.48,521.95L725.48,523.76L727.29,525.57L727.29,529.19L727.29,531L727.29,532.81L725.48,532.81L725.48,531L725.48,527.38L725.48,525.57L725.48,523.76L725.48,520.14L725.48,514.71L725.48,509.29L725.48,505.67L725.48,500.24L725.48,496.62L725.48,491.19L725.48,487.58L725.48,485.77L725.48,482.15L725.48,478.53L725.48,476.72L725.48,473.1L727.29,469.48L727.29,467.67L727.29,464.06L727.29,460.44L729.1,458.63L729.1,456.82L730.91,456.82L732.72,456.82L734.53,455.01L736.34,453.2L739.96,451.39L741.77,447.77L745.39,445.96L747.19,444.16L750.81,440.54L752.62,436.92L754.43,433.3L754.43,429.68L756.24,426.06L756.24,424.25L756.24,420.64L756.24,418.83L758.05,417.02L758.05,413.4L759.86,411.59L761.67,409.78L765.29,407.97L768.9,406.16L772.52,404.35L776.14,402.54L779.76,400.73L783.38,398.93L787,397.12L790.61,397.12L796.04,395.31L799.66,393.5L803.28,391.69L808.71,389.88L814.13,388.07L817.75,386.26L823.18,386.26L828.61,384.45L834.04,382.64L839.46,380.83L844.89,379.02L848.51,377.22L853.94,377.22L859.36,375.41L864.79,375.41L868.41,375.41L873.84,373.6L879.27,371.79L882.88,369.98L886.5,368.17L890.12,366.36L893.74,364.55L899.17,362.74L902.78,362.74L906.4,360.93L910.02,360.93L913.64,360.93L917.26,359.12L922.69,357.31L926.3,355.51L929.92,353.7L933.54,351.89L937.16,350.08L940.78,348.27L944.4,346.46L948.01,344.65L949.82,342.84L953.44,342.84L957.06,341.03L958.87,339.22L962.49,337.41L964.3,337.41L966.11,335.6L969.72,333.8L971.53,333.8L973.34,331.99L975.15,331.99" fill="none" stroke="#000000" style="-webkit-tap-highlight-color: rgba(0, 0, 0, 0); stroke-linecap: round; stroke-linejoin: round; stroke-width: 5;" /><path d="M1024,351.89" fill="none" stroke="#000000" style="-webkit-tap-highlight-color: rgba(0, 0, 0, 0); stroke-linecap: round; stroke-linejoin: round; stroke-width: 5;" /><path d="M1024,353.7L1022.19,353.7L1020.38,355.51L1016.76,357.31L1013.14,360.93L1007.72,362.74L1002.29,364.55L996.86,366.36L991.43,366.36L986.01,368.17L980.58,369.98L973.34,371.79L966.11,373.6L958.87,373.6L951.63,371.79L944.4,371.79L938.97,373.6L933.54,373.6L926.3,375.41L915.45,377.22L904.59,379.02L893.74,380.83L884.69,382.64L879.27,384.45L873.84,386.26L868.41,388.07L862.98,388.07L855.75,389.88L850.32,391.69L841.27,393.5L832.23,395.31L823.18,397.12L815.94,397.12L812.33,398.93L808.71,400.73L806.9,402.54L805.09,402.54L803.28,404.35L801.47,406.16L799.66,407.97L797.85,407.97L796.04,407.97L794.23,409.78L792.42,409.78L790.61,409.78L787,409.78L783.38,409.78L781.57,411.59L777.95,413.4L774.33,415.21L770.71,417.02L768.9,418.83L767.1,420.64L767.1,424.25L765.29,426.06L765.29,427.87L767.1,431.49L767.1,436.92L768.9,440.54L770.71,444.16L770.71,447.77L772.52,451.39L772.52,453.2L774.33,453.2L776.14,455.01L776.14,456.82L774.33,456.82L772.52,456.82L768.9,456.82L765.29,456.82L761.67,456.82L758.05,456.82L756.24,456.82L752.62,456.82L750.81,456.82L749,458.63L747.19,460.44L747.19,462.25L745.39,464.06L745.39,467.67L745.39,469.48L743.58,473.1L743.58,474.91L743.58,478.53L743.58,483.96L741.77,489.39L741.77,494.81L741.77,498.43L741.77,502.05L741.77,505.67L741.77,509.29L741.77,511.1L741.77,512.9L741.77,514.71L741.77,516.52L741.77,518.33L741.77,520.14L743.58,521.95L743.58,523.76L743.58,525.57L743.58,527.38L743.58,529.19L743.58,531L741.77,531L741.77,532.81L739.96,532.81L738.15,532.81L736.34,532.81L734.53,532.81L732.72,534.61L729.1,534.61L723.67,536.42L716.44,534.61L712.82,534.61L711.01,532.81L711.01,531L712.82,531L714.63,532.81" fill="none" stroke="#000000" style="-webkit-tap-highlight-color: rgba(0, 0, 0, 0); stroke-linecap: round; stroke-linejoin: round; stroke-width: 5;" /><path d="M774.33,478.53L772.52,482.15L772.52,483.96L772.52,485.77L774.33,485.77L776.14,482.15L776.14,478.53L776.14,474.91L777.95,469.48L777.95,464.06L779.76,458.63L783.38,455.01L785.19,451.39L788.81,447.77L792.42,445.96L796.04,444.16L797.85,444.16L801.47,442.35L805.09,442.35L808.71,440.54L812.33,440.54L815.94,440.54L817.75,440.54L821.37,440.54L823.18,440.54L824.99,440.54L826.8,440.54L830.42,440.54L832.23,440.54L835.84,440.54L837.65,440.54L839.46,440.54L841.27,440.54L841.27,438.73" fill="none" stroke="#000000" style="-webkit-tap-highlight-color: rgba(0, 0, 0, 0); stroke-linecap: round; stroke-linejoin: round; stroke-width: 5;" /><path d="M843.08,511.1L841.27,511.1L839.46,509.29L835.84,509.29L834.04,509.29L834.04,511.1L835.84,511.1L837.65,511.1L841.27,509.29L843.08,507.48L844.89,502.05L848.51,494.81L852.13,485.77L855.75,478.53L857.55,471.29L861.17,462.25L862.98,456.82L862.98,453.2L864.79,451.39L866.6,451.39L868.41,449.58L868.41,451.39L868.41,456.82L866.6,458.63" fill="none" stroke="#000000" style="-webkit-tap-highlight-color: rgba(0, 0, 0, 0); stroke-linecap: round; stroke-linejoin: round; stroke-width: 5;" /><path d="M651.31,543.66L651.31,541.85L649.5,541.85L649.5,540.04L647.69,540.04L647.69,538.23L645.88,538.23L645.88,540.04L644.07,540.04L644.07,541.85L642.26,543.66L642.26,545.47L640.45,547.28L638.64,549.09L636.83,552.71L636.83,558.13L635.02,561.75L633.22,567.18L631.41,570.8L629.6,574.42L629.6,578.04L627.79,581.65L625.98,583.46L624.17,587.08L622.36,588.89L620.55,590.7L616.93,594.32L615.12,596.13L613.31,599.75L609.7,603.36L606.08,606.98L604.27,608.79L602.46,612.41L600.65,616.03L597.03,619.65L595.22,623.27L593.41,626.88L591.6,628.69L591.6,630.5L593.41,630.5L597.03,628.69L602.46,626.88L607.89,626.88L615.12,625.07L622.36,625.07L629.6,625.07L636.83,625.07L642.26,625.07L645.88,626.88L649.5,626.88L653.12,626.88L658.54,626.88L663.97,628.69L669.4,630.5L674.83,634.12L680.25,635.93L685.68,637.74L691.11,641.36L696.54,643.17L700.16,644.98L703.77,646.78L707.39,648.59L709.2,650.4L711.01,652.21L711.01,655.83L711.01,657.64L711.01,661.26L712.82,664.88L712.82,668.49L712.82,672.11L712.82,677.54L712.82,682.97L712.82,688.4L712.82,693.82L711.01,701.06L711.01,706.49L711.01,713.72L711.01,720.96L709.2,728.2L707.39,733.63L707.39,740.86L705.58,748.1L703.77,755.34L703.77,764.38L703.77,769.81L703.77,775.24" fill="none" stroke="#000000" style="-webkit-tap-highlight-color: rgba(0, 0, 0, 0); stroke-linecap: round; stroke-linejoin: round; stroke-width: 5;" /><path d="M711.01,663.07L711.01,661.26L711.01,659.45L711.01,657.64L712.82,657.64L714.63,657.64L716.44,657.64L716.44,659.45L718.25,661.26L720.06,663.07L721.87,664.88L725.48,666.69L729.1,668.49L732.72,672.11L738.15,675.73L741.77,677.54L745.39,681.16L749,684.78L752.62,688.4L756.24,692.01L758.05,695.63L759.86,699.25L761.67,704.68L761.67,710.11L761.67,715.53L763.48,720.96L763.48,724.58L765.29,730.01L767.1,733.63L767.1,739.05L768.9,744.48L768.9,749.91L770.71,753.53L770.71,757.14L770.71,758.95L770.71,762.57L770.71,766.19L770.71,769.81L770.71,773.43L770.71,768L768.9,766.19" fill="none" stroke="#000000" style="-webkit-tap-highlight-color: rgba(0, 0, 0, 0); stroke-linecap: round; stroke-linejoin: round; stroke-width: 5;" /><path d="M732.72,637.74L730.91,637.74L730.91,639.55L729.1,641.36L729.1,643.17L732.72,643.17L738.15,641.36L745.39,641.36L756.24,637.74L765.29,635.93L774.33,634.12L781.57,634.12L787,634.12L790.61,634.12L794.23,634.12L797.85,634.12L801.47,632.31L801.47,630.5L803.28,626.88L803.28,625.07L803.28,623.27L803.28,619.65L805.09,614.22L805.09,608.79L805.09,603.36L805.09,596.13L805.09,590.7L805.09,583.46L805.09,574.42L805.09,567.18L806.9,559.94L808.71,552.71L814.13,545.47L819.56,540.04L824.99,534.61L828.61,532.81L832.23,531L835.84,529.19L837.65,529.19L839.46,529.19L841.27,531L843.08,532.81L844.89,534.61L846.7,536.42L850.32,538.23L855.75,540.04L859.36,541.85L862.98,541.85L868.41,543.66L873.84,543.66L877.46,545.47L882.88,545.47L888.31,547.28L891.93,549.09L895.55,550.9L900.98,550.9L902.78,552.71L906.4,554.52L910.02,554.52L911.83,556.33L913.64,556.33L915.45,556.33L917.26,556.33L919.07,556.33L920.88,554.52L924.49,554.52L926.3,552.71L928.11,552.71L929.92,552.71L933.54,550.9L937.16,550.9L938.97,549.09L942.59,549.09L946.2,547.28L948.01,545.47L951.63,543.66L953.44,541.85L955.25,538.23L955.25,536.42L955.25,534.61L955.25,531L953.44,529.19L949.82,525.57L944.4,523.76L938.97,521.95L933.54,521.95L928.11,520.14L922.69,520.14L917.26,520.14L911.83,518.33L908.21,518.33L906.4,518.33L904.59,516.52L900.98,516.52L897.36,516.52L893.74,516.52L884.69,518.33L879.27,518.33L875.65,518.33L873.84,518.33L870.22,520.14L866.6,520.14L862.98,521.95L857.55,523.76L853.94,523.76L848.51,523.76L843.08,525.57L837.65,525.57L834.04,525.57L832.23,527.38L828.61,527.38L826.8,527.38L824.99,529.19L821.37,531L819.56,532.81L815.94,534.61L812.33,536.42L810.52,538.23L810.52,540.04L810.52,541.85L812.33,541.85L814.13,540.04L814.13,538.23L814.13,536.42L814.13,534.61L814.13,532.81L814.13,531L812.33,529.19L806.9,527.38L803.28,527.38L797.85,527.38L790.61,529.19L785.19,529.19L781.57,531L776.14,532.81L772.52,532.81L770.71,532.81L768.9,532.81L768.9,531L767.1,531L767.1,529.19L765.29,529.19L768.9,529.19L774.33,531L777.95,531" fill="none" stroke="#000000" style="-webkit-tap-highlight-color: rgba(0, 0, 0, 0); stroke-linecap: round; stroke-linejoin: round; stroke-width: 5;" /><path d="M908.21,523.76L910.02,523.76L910.02,521.95L911.83,521.95L915.45,521.95L917.26,521.95L922.69,521.95L928.11,523.76L933.54,523.76L940.78,525.57L946.2,527.38L949.82,527.38L955.25,527.38L958.87,525.57L962.49,525.57L964.3,525.57L967.92,525.57L969.72,525.57L971.53,525.57L973.34,525.57L975.15,525.57L976.96,527.38L978.77,527.38L980.58,527.38L982.39,527.38L986.01,527.38L987.82,525.57L989.63,523.76L993.24,521.95L996.86,521.95L1000.48,520.14L1005.91,520.14L1009.53,520.14L1013.14,520.14L1014.95,520.14L1016.76,520.14L1016.76,516.52L1013.14,514.71L1011.34,512.9" fill="none" stroke="#000000" style="-webkit-tap-highlight-color: rgba(0, 0, 0, 0); stroke-linecap: round; stroke-linejoin: round; stroke-width: 5;" /><path d="M893.74,507.48L891.93,507.48L890.12,507.48L888.31,507.48L886.5,507.48L884.69,507.48L882.88,507.48L882.88,505.67L882.88,503.86L882.88,502.05L884.69,500.24L884.69,496.62L886.5,494.81L886.5,493L886.5,491.19L888.31,489.39L888.31,487.58L890.12,483.96L893.74,482.15L897.36,478.53L900.98,476.72L904.59,473.1L908.21,471.29L910.02,469.48L913.64,467.67L915.45,467.67L917.26,467.67L919.07,467.67L922.69,467.67L926.3,467.67L929.92,467.67L931.73,467.67L933.54,467.67L933.54,469.48L935.35,471.29L937.16,473.1L937.16,478.53L937.16,483.96L937.16,489.39L937.16,493L935.35,498.43L933.54,502.05L933.54,505.67L931.73,507.48L929.92,509.29L929.92,511.1L928.11,511.1L928.11,512.9L926.3,514.71L926.3,516.52L928.11,516.52" fill="none" stroke="#000000" style="-webkit-tap-highlight-color: rgba(0, 0, 0, 0); stroke-linecap: round; stroke-linejoin: round; stroke-width: 5;" /><path d="M953.44,487.58L953.44,489.39L951.63,489.39L949.82,491.19L948.01,491.19L948.01,489.39L946.2,487.58L946.2,483.96L946.2,478.53L946.2,473.1L944.4,465.87L944.4,458.63L944.4,453.2L944.4,449.58L944.4,445.96L942.59,444.16L940.78,442.35L938.97,440.54L935.35,438.73L933.54,436.92L931.73,436.92L931.73,435.11L933.54,435.11L935.35,435.11L938.97,435.11L940.78,435.11L944.4,435.11L948.01,436.92L949.82,436.92L953.44,438.73L955.25,438.73L958.87,442.35L960.68,444.16L962.49,447.77L962.49,451.39L962.49,455.01L962.49,460.44L960.68,464.06L960.68,467.67L958.87,471.29L958.87,473.1L958.87,474.91L960.68,478.53L960.68,482.15L962.49,485.77L962.49,489.39L964.3,494.81L964.3,498.43L964.3,503.86L966.11,509.29L966.11,511.1L966.11,512.9L964.3,512.9L960.68,512.9L958.87,511.1L953.44,507.48" fill="none" stroke="#000000" style="-webkit-tap-highlight-color: rgba(0, 0, 0, 0); stroke-linecap: round; stroke-linejoin: round; stroke-width: 5;" /><path d="M888.31,438.73L888.31,436.92L886.5,436.92L884.69,436.92L879.27,438.73L873.84,442.35L866.6,445.96L859.36,449.58L855.75,455.01L852.13,458.63L850.32,462.25L848.51,465.87L846.7,471.29L844.89,476.72L843.08,482.15L843.08,485.77L841.27,491.19L841.27,494.81L841.27,498.43L843.08,502.05L846.7,503.86L850.32,507.48L855.75,509.29L862.98,509.29L868.41,509.29L873.84,509.29L879.27,507.48L882.88,502.05L886.5,498.43L888.31,493L891.93,485.77L891.93,480.34L891.93,476.72L893.74,471.29L893.74,465.87L893.74,460.44L890.12,455.01L888.31,449.58L884.69,447.77L882.88,445.96L881.07,445.96L882.88,445.96" fill="none" stroke="#000000" style="-webkit-tap-highlight-color: rgba(0, 0, 0, 0); stroke-linecap: round; stroke-linejoin: round; stroke-width: 5;" /><path d="M991.43,382.64L989.63,380.83L989.63,379.02L989.63,377.22L991.43,375.41L993.24,375.41L995.05,375.41L996.86,375.41L1000.48,377.22L1004.1,380.83L1009.53,382.64L1013.14,386.26L1018.57,389.88L1020.38,393.5L1022.19,397.12L1024,400.73L1024,404.35L1024,409.78L1024,413.4L1024,417.02L1024,418.83L1024,420.64L1022.19,422.45L1018.57,424.25L1014.95,424.25L1009.53,424.25L1004.1,422.45L1000.48,418.83L996.86,415.21L993.24,409.78L993.24,404.35L993.24,397.12L995.05,389.88L996.86,386.26L998.67,384.45L998.67,382.64L995.05,384.45L993.24,388.07L991.43,389.88" fill="none" stroke="#000000" style="-webkit-tap-highlight-color: rgba(0, 0, 0, 0); stroke-linecap: round; stroke-linejoin: round; stroke-width: 5;" /><path d="M980.58,424.25L980.58,418.83L980.58,415.21L980.58,413.4L982.39,413.4L982.39,415.21L982.39,417.02L982.39,422.45L982.39,427.87L980.58,435.11L980.58,444.16L978.77,451.39L976.96,458.63L976.96,465.87L976.96,471.29L975.15,476.72L975.15,482.15L975.15,487.58L975.15,491.19L975.15,494.81L975.15,498.43L975.15,500.24L976.96,503.86L978.77,505.67L978.77,507.48L980.58,509.29L980.58,511.1L982.39,512.9L984.2,512.9L984.2,514.71L986.01,514.71L986.01,512.9L984.2,509.29" fill="none" stroke="#000000" style="-webkit-tap-highlight-color: rgba(0, 0, 0, 0); stroke-linecap: round; stroke-linejoin: round; stroke-width: 5;" /><path d="M276.81,433.3L276.81,435.11L276.81,436.92L278.61,436.92L278.61,438.73L275,438.73L273.19,436.92L267.76,436.92L262.33,436.92L258.71,435.11L253.29,435.11L247.86,435.11L242.43,433.3L237,433.3L231.58,433.3L226.15,435.11L222.53,435.11L217.1,436.92L213.48,436.92L208.06,436.92L204.44,438.73L199.01,438.73L191.77,438.73L186.35,440.54L179.11,440.54L173.68,440.54L168.25,440.54L162.83,440.54L155.59,440.54L150.16,440.54L144.73,440.54L139.31,440.54L133.88,440.54L123.02,440.54L113.98,440.54L106.74,442.35L101.31,442.35L95.89,442.35L92.27,444.16L88.65,445.96L85.03,445.96L81.41,447.77L77.8,449.58L74.18,451.39L74.18,453.2L72.37,453.2L72.37,455.01L75.99,455.01L83.22,455.01L90.46,455.01L101.31,455.01L112.17,455.01L121.22,455.01L130.26,455.01L139.31,455.01L150.16,456.82L157.4,456.82L168.25,456.82L177.3,456.82L188.16,455.01L197.2,455.01L208.06,453.2L218.91,451.39L227.96,451.39L235.19,449.58L242.43,447.77L247.86,445.96L253.29,444.16L258.71,442.35L262.33,440.54L267.76,438.73L271.38,436.92L273.19,435.11L275,433.3L276.81,431.49L278.61,429.68L278.61,427.87L278.61,426.06L280.42,424.25L284.04,420.64L285.85,418.83L289.47,415.21L291.28,411.59L293.09,407.97L294.9,404.35L294.9,400.73L294.9,398.93L296.71,397.12L298.52,397.12L298.52,398.93L294.9,400.73L293.09,404.35L287.66,409.78L282.23,415.21L276.81,422.45L271.38,427.87L269.57,431.49L269.57,436.92L271.38,438.73L271.38,442.35L273.19,445.96L275,447.77L276.81,447.77L278.61,447.77L280.42,447.77L285.85,445.96L289.47,444.16L296.71,440.54L302.13,435.11L307.56,431.49L312.99,426.06L316.61,422.45L320.23,418.83L323.84,415.21L325.65,409.78L327.46,406.16L327.46,402.54L327.46,397.12L325.65,393.5L322.04,389.88L318.42,388.07L314.8,386.26L309.37,386.26L303.94,386.26L296.71,389.88L289.47,391.69L282.23,395.31L276.81,397.12L273.19,398.93L271.38,400.73L275,400.73L276.81,400.73" fill="none" stroke="#000000" style="-webkit-tap-highlight-color: rgba(0, 0, 0, 0); stroke-linecap: round; stroke-linejoin: round; stroke-width: 5;" /><path d="M305.75,391.69L305.75,393.5L302.13,393.5L294.9,397.12L285.85,398.93L275,400.73L265.95,400.73L260.52,400.73L253.29,402.54L247.86,402.54L242.43,404.35L237,406.16L229.77,407.97L220.72,411.59L213.48,413.4L206.25,415.21L200.82,417.02L195.39,418.83L189.96,420.64L188.16,420.64L184.54,422.45L182.73,422.45L180.92,422.45L177.3,424.25L175.49,424.25L175.49,426.06L173.68,426.06L173.68,427.87L177.3,427.87L180.92,427.87L188.16,427.87L197.2,426.06L204.44,426.06L213.48,422.45L220.72,418.83L227.96,417.02L231.58,415.21L231.58,413.4L229.77,415.21L226.15,415.21L222.53,417.02L218.91,418.83L211.67,418.83L204.44,420.64L195.39,422.45L188.16,422.45L180.92,424.25L177.3,426.06L173.68,426.06L170.06,427.87L166.45,427.87L162.83,427.87L159.21,427.87L155.59,427.87L151.97,427.87L150.16,427.87L146.54,427.87L144.73,427.87L142.93,427.87L141.12,427.87L142.93,427.87" fill="none" stroke="#000000" style="-webkit-tap-highlight-color: rgba(0, 0, 0, 0); stroke-linecap: round; stroke-linejoin: round; stroke-width: 5;" /><path d="M157.4,424.25L157.4,422.45L157.4,420.64L157.4,418.83L155.59,418.83L151.97,418.83L148.35,422.45L142.93,424.25L133.88,429.68L128.45,433.3L123.02,436.92L115.79,440.54L112.17,442.35L108.55,444.16L104.93,445.96L103.12,445.96L103.12,447.77L104.93,447.77L108.55,445.96L113.98,445.96L121.22,444.16L130.26,442.35L141.12,438.73L150.16,435.11L155.59,431.49L161.02,427.87L162.83,424.25L162.83,422.45L162.83,420.64L159.21,420.64L151.97,420.64L144.73,420.64L137.5,422.45L132.07,422.45L132.07,424.25L133.88,424.25" fill="none" stroke="#000000" style="-webkit-tap-highlight-color: rgba(0, 0, 0, 0); stroke-linecap: round; stroke-linejoin: round; stroke-width: 5;" /><path d="M173.68,404.35L171.87,406.16L170.06,407.97L168.25,409.78L166.45,411.59L164.64,411.59L161.02,413.4L157.4,413.4L153.78,413.4L148.35,415.21L142.93,415.21L135.69,417.02L130.26,417.02L123.02,417.02L117.6,417.02L112.17,415.21L106.74,415.21L101.31,413.4L94.08,413.4L88.65,413.4L81.41,413.4L74.18,413.4L68.75,413.4L61.51,413.4L56.08,413.4L50.66,415.21L47.04,415.21L45.23,417.02L43.42,417.02L41.61,417.02L43.42,418.83L48.85,420.64L57.89,420.64L68.75,418.83L79.6,418.83L92.27,417.02L103.12,417.02L112.17,417.02L117.6,417.02L123.02,417.02L121.22,415.21L119.41,413.4L119.41,411.59" fill="none" stroke="#000000" style="-webkit-tap-highlight-color: rgba(0, 0, 0, 0); stroke-linecap: round; stroke-linejoin: round; stroke-width: 5;" /><path d="M296.71,467.67L294.9,467.67L293.09,467.67L293.09,469.48L294.9,471.29L296.71,471.29L300.33,471.29L303.94,471.29L309.37,471.29L314.8,471.29L323.84,471.29L329.27,471.29L334.7,471.29L340.13,471.29L341.94,471.29L340.13,471.29" fill="none" stroke="#000000" style="-webkit-tap-highlight-color: rgba(0, 0, 0, 0); stroke-linecap: round; stroke-linejoin: round; stroke-width: 5;" /><path d="M298.52,478.53L294.9,478.53L293.09,478.53L291.28,478.53L289.47,478.53L293.09,478.53L296.71,480.34L302.13,482.15L309.37,483.96L314.8,483.96L322.04,485.77L325.65,485.77L327.46,485.77" fill="none" stroke="#000000" style="-webkit-tap-highlight-color: rgba(0, 0, 0, 0); stroke-linecap: round; stroke-linejoin: round; stroke-width: 5;" /><path d="M284.04,494.81L284.04,493L282.23,493L285.85,493L289.47,494.81L296.71,494.81L303.94,496.62L311.18,496.62L316.61,496.62L320.23,496.62L322.04,496.62L325.65,496.62L327.46,496.62L329.27,496.62" fill="none" stroke="#000000" style="-webkit-tap-highlight-color: rgba(0, 0, 0, 0); stroke-linecap: round; stroke-linejoin: round; stroke-width: 5;" /><path d="M275,509.29L276.81,509.29L280.42,509.29L289.47,511.1L298.52,512.9L305.75,512.9L309.37,512.9L311.18,511.1" fill="none" stroke="#000000" style="-webkit-tap-highlight-color: rgba(0, 0, 0, 0); stroke-linecap: round; stroke-linejoin: round; stroke-width: 5;" /><path d="M273.19,520.14L273.19,518.33L275,516.52L278.61,516.52L287.66,518.33L296.71,520.14L305.75,521.95L314.8,521.95L318.42,523.76L320.23,523.76L322.04,521.95" fill="none" stroke="#000000" style="-webkit-tap-highlight-color: rgba(0, 0, 0, 0); stroke-linecap: round; stroke-linejoin: round; stroke-width: 5;" /><path d="M280.42,532.81L278.61,531L284.04,531L289.47,532.81L296.71,532.81L303.94,532.81L309.37,532.81L311.18,532.81" fill="none" stroke="#000000" style="-webkit-tap-highlight-color: rgba(0, 0, 0, 0); stroke-linecap: round; stroke-linejoin: round; stroke-width: 5;" /><path d="M294.9,545.47L296.71,545.47L302.13,545.47L307.56,545.47L312.99,545.47L318.42,545.47L320.23,545.47" fill="none" stroke="#000000" style="-webkit-tap-highlight-color: rgba(0, 0, 0, 0); stroke-linecap: round; stroke-linejoin: round; stroke-width: 5;" /><path d="M1.81,568.99L0,568.99" fill="none" stroke="#000000" style="-webkit-tap-highlight-color: rgba(0, 0, 0, 0); stroke-linecap: round; stroke-linejoin: round; stroke-width: 5;" /><path d="M1.81,568.99L7.24,565.37L14.47,561.75L21.71,558.13L28.95,554.52L34.37,550.9L39.8,549.09L43.42,549.09L47.04,547.28L50.66,547.28L54.28,545.47L59.7,543.66L63.32,543.66L66.94,541.85L70.56,541.85L74.18,541.85L75.99,540.04L77.8,540.04L81.41,538.23L85.03,536.42L88.65,534.61L92.27,532.81L94.08,532.81L97.7,531L101.31,531L104.93,529.19L106.74,527.38L110.36,525.57L113.98,523.76L115.79,521.95L119.41,520.14L121.22,518.33L124.83,516.52L126.64,514.71L130.26,512.9L133.88,511.1L137.5,509.29L141.12,507.48L142.93,505.67L146.54,503.86L148.35,502.05L150.16,498.43L153.78,496.62L155.59,493L159.21,489.39L159.21,485.77L159.21,483.96L159.21,482.15L157.4,482.15L155.59,480.34L153.78,480.34L150.16,478.53L148.35,478.53L144.73,478.53L141.12,478.53L137.5,480.34L133.88,482.15L128.45,483.96L124.83,485.77L121.22,485.77L117.6,487.58L115.79,487.58L113.98,489.39L113.98,491.19L112.17,491.19L110.36,493L108.55,494.81L104.93,498.43L99.51,500.24L95.89,503.86L92.27,507.48L88.65,509.29L85.03,512.9L81.41,514.71L77.8,516.52L74.18,520.14L70.56,521.95L66.94,523.76L63.32,525.57L61.51,527.38L59.7,527.38L57.89,529.19L54.28,531L52.47,532.81L48.85,534.61L45.23,536.42L43.42,540.04L39.8,541.85L37.99,543.66L36.18,545.47L32.57,547.28L28.95,550.9L25.33,552.71L19.9,556.33L18.09,558.13L14.47,561.75L10.86,563.56L9.05,565.37L7.24,567.18L5.43,568.99L5.43,570.8L9.05,568.99" fill="none" stroke="#000000" style="-webkit-tap-highlight-color: rgba(0, 0, 0, 0); stroke-linecap: round; stroke-linejoin: round; stroke-width: 5;" /><path d="M189.96,540.04L188.16,540.04L189.96,540.04L193.58,538.23L199.01,536.42L202.63,534.61L206.25,532.81L209.87,532.81" fill="none" stroke="#000000" style="-webkit-tap-highlight-color: rgba(0, 0, 0, 0); stroke-linecap: round; stroke-linejoin: round; stroke-width: 5;" /><path d="M200.82,556.33L199.01,556.33L197.2,554.52L202.63,552.71L208.06,550.9L211.67,549.09L215.29,547.28L217.1,547.28L218.91,547.28" fill="none" stroke="#000000" style="-webkit-tap-highlight-color: rgba(0, 0, 0, 0); stroke-linecap: round; stroke-linejoin: round; stroke-width: 5;" /><path d="M222.53,568.99L222.53,570.8L227.96,570.8L229.77,568.99L235.19,567.18L238.81,563.56L240.62,561.75L240.62,559.94L240.62,558.13" fill="none" stroke="#000000" style="-webkit-tap-highlight-color: rgba(0, 0, 0, 0); stroke-linecap: round; stroke-linejoin: round; stroke-width: 5;" /><path d="M161.02,503.86L159.21,503.86L157.4,503.86L157.4,502.05L155.59,502.05L153.78,502.05L153.78,503.86L153.78,505.67L155.59,507.48L155.59,509.29L157.4,511.1L159.21,514.71L162.83,520.14L166.45,525.57L170.06,532.81L171.87,538.23L175.49,543.66L177.3,547.28L179.11,550.9L180.92,554.52L182.73,558.13L182.73,559.94L184.54,563.56L186.35,565.37L188.16,568.99L189.96,570.8L189.96,572.61L191.77,576.23L193.58,578.04L195.39,579.84L197.2,581.65L199.01,581.65L200.82,581.65L202.63,579.84L204.44,578.04L206.25,578.04L208.06,578.04L208.06,576.23" fill="none" stroke="#000000" style="-webkit-tap-highlight-color: rgba(0, 0, 0, 0); stroke-linecap: round; stroke-linejoin: round; stroke-width: 5;" /><path d="M553.61,455.01L551.8,455.01L551.8,456.82L553.61,456.82L555.42,456.82L557.23,456.82L559.04,456.82L562.66,456.82L564.47,455.01L566.28,453.2L568.08,451.39L569.89,451.39L573.51,449.58L575.32,447.77L577.13,447.77L578.94,445.96L580.75,445.96L582.56,445.96L584.37,445.96L586.18,445.96L587.99,447.77L589.8,447.77L591.6,447.77L593.41,447.77L595.22,447.77L597.03,447.77L598.84,449.58L600.65,449.58L602.46,449.58L602.46,451.39L604.27,451.39L606.08,451.39L607.89,451.39L609.7,451.39L611.51,451.39L613.31,451.39L615.12,451.39L616.93,449.58L618.74,449.58L620.55,447.77L622.36,445.96L622.36,444.16L622.36,442.35L622.36,440.54L622.36,438.73L622.36,436.92L622.36,435.11L622.36,433.3L622.36,431.49L624.17,433.3L625.98,433.3L627.79,433.3L629.6,433.3L631.41,433.3L631.41,435.11L633.22,435.11L635.02,435.11L636.83,433.3L635.02,433.3" fill="none" stroke="#000000" style="-webkit-tap-highlight-color: rgba(0, 0, 0, 0); stroke-linecap: round; stroke-linejoin: round; stroke-width: 5;" /><path d="M569.89,511.1L569.89,509.29L568.08,507.48L566.28,505.67L566.28,503.86L568.08,503.86L569.89,503.86L571.7,503.86L575.32,503.86L578.94,503.86L582.56,503.86L584.37,502.05L587.99,502.05L589.8,502.05L593.41,502.05L595.22,502.05L597.03,502.05L600.65,502.05L604.27,502.05L607.89,502.05L609.7,502.05L613.31,502.05L616.93,502.05L620.55,500.24L624.17,500.24L627.79,498.43L631.41,498.43L633.22,498.43L633.22,496.62L635.02,496.62L635.02,494.81L631.41,493L629.6,493" fill="none" stroke="#000000" style="-webkit-tap-highlight-color: rgba(0, 0, 0, 0); stroke-linecap: round; stroke-linejoin: round; stroke-width: 5;" /><path d="M562.66,469.48L562.66,467.67L562.66,465.87L564.47,464.06L566.28,464.06L568.08,464.06L568.08,465.87L569.89,467.67L571.7,469.48L571.7,473.1L571.7,478.53L571.7,483.96L571.7,489.39L571.7,494.81L573.51,498.43L573.51,502.05L573.51,507.48L573.51,511.1L571.7,514.71L571.7,518.33L569.89,521.95L569.89,525.57L568.08,529.19L568.08,531L568.08,534.61L568.08,536.42L568.08,538.23L568.08,540.04L568.08,541.85L568.08,543.66L568.08,541.85L566.28,541.85L564.47,541.85L562.66,541.85L560.85,541.85L557.23,541.85L551.8,540.04L548.18,540.04L544.57,538.23L540.95,538.23L537.33,536.42L533.71,536.42L531.9,536.42L530.09,536.42L530.09,538.23L528.28,538.23L526.47,538.23L524.66,538.23L524.66,536.42L522.86,536.42L521.05,536.42L519.24,534.61L515.62,534.61L513.81,534.61L510.19,534.61L506.57,536.42L502.95,536.42L501.14,536.42L497.53,538.23L495.72,538.23L493.91,538.23L492.1,538.23L490.29,538.23L488.48,536.42L486.67,536.42L483.05,534.61L481.24,532.81L477.63,531L472.2,529.19L466.77,527.38L463.15,525.57L459.53,525.57L455.92,523.76L454.11,523.76L450.49,521.95L448.68,521.95L445.06,520.14L441.44,518.33L439.63,518.33L436.01,518.33L434.2,518.33L432.4,520.14L428.78,520.14L425.16,521.95L423.35,521.95L421.54,521.95L417.92,521.95L416.11,521.95L414.3,521.95L412.49,520.14L410.69,518.33L408.88,514.71L408.88,512.9L407.07,509.29L407.07,505.67L407.07,503.86L407.07,500.24L407.07,498.43L407.07,496.62L407.07,494.81L407.07,493L407.07,491.19L407.07,489.39L407.07,487.58L407.07,483.96L407.07,482.15L408.88,480.34L408.88,478.53L408.88,476.72L410.69,473.1L410.69,469.48L412.49,465.87L412.49,464.06L412.49,460.44L412.49,458.63L412.49,455.01L412.49,453.2L412.49,451.39L412.49,449.58L410.69,445.96L408.88,444.16L408.88,440.54L407.07,436.92L407.07,435.11L405.26,433.3L405.26,431.49L405.26,429.68L405.26,427.87L403.45,426.06L401.64,424.25L401.64,422.45L399.83,420.64L398.02,420.64L396.21,418.83L394.4,418.83L394.4,417.02L392.59,417.02L390.78,417.02L387.17,415.21L385.36,415.21L383.55,415.21L381.74,415.21L379.93,415.21L376.31,417.02L374.5,417.02L372.69,417.02L370.88,418.83L369.07,418.83L367.27,420.64L365.46,420.64L363.65,422.45L361.84,424.25L360.03,426.06L358.22,426.06L358.22,427.87L356.41,429.68L354.6,429.68L354.6,431.49L352.79,433.3L352.79,435.11L352.79,436.92L352.79,438.73L352.79,440.54L352.79,442.35L354.6,442.35L356.41,442.35L358.22,442.35L361.84,442.35L363.65,442.35L365.46,440.54L369.07,440.54L370.88,440.54L372.69,438.73L376.31,438.73L378.12,438.73L381.74,438.73L383.55,438.73L385.36,438.73L388.98,438.73L392.59,438.73L394.4,438.73L398.02,438.73L401.64,440.54L405.26,440.54L407.07,440.54L410.69,440.54L412.49,440.54L414.3,440.54L416.11,440.54L414.3,442.35" fill="none" stroke="#000000" style="-webkit-tap-highlight-color: rgba(0, 0, 0, 0); stroke-linecap: round; stroke-linejoin: round; stroke-width: 5;" /><path d="M356.41,444.16L356.41,442.35L354.6,440.54L354.6,438.73L352.79,438.73L352.79,436.92L350.98,436.92L350.98,435.11L349.17,435.11L349.17,436.92L349.17,440.54L349.17,444.16L347.36,447.77L347.36,453.2L347.36,456.82L345.55,460.44L343.75,462.25L343.75,464.06L347.36,462.25" fill="none" stroke="#000000" style="-webkit-tap-highlight-color: rgba(0, 0, 0, 0); stroke-linecap: round; stroke-linejoin: round; stroke-width: 5;" /><path d="M390.78,465.87L388.98,465.87L385.36,465.87L385.36,464.06L385.36,465.87L385.36,467.67L385.36,469.48L385.36,473.1L385.36,476.72L385.36,480.34L385.36,485.77L385.36,491.19L385.36,496.62L387.17,500.24L387.17,503.86L387.17,507.48L387.17,512.9L387.17,514.71L387.17,518.33L387.17,520.14L387.17,523.76L387.17,527.38L387.17,529.19L387.17,531L387.17,532.81L387.17,534.61L385.36,536.42L385.36,538.23L385.36,540.04L383.55,541.85L383.55,540.04L383.55,538.23L383.55,536.42L383.55,534.61L381.74,534.61L379.93,534.61L374.5,534.61L369.07,534.61L363.65,534.61L358.22,536.42L352.79,536.42L349.17,536.42L345.55,538.23L341.94,538.23L336.51,538.23L331.08,538.23L329.27,538.23L325.65,540.04L323.84,540.04L323.84,541.85L322.04,541.85L322.04,543.66L320.23,543.66L318.42,545.47L318.42,547.28L316.61,549.09L316.61,550.9L314.8,550.9L316.61,550.9L320.23,547.28L323.84,543.66" fill="none" stroke="#000000" style="-webkit-tap-highlight-color: rgba(0, 0, 0, 0); stroke-linecap: round; stroke-linejoin: round; stroke-width: 5;" /><path d="M345.55,473.1L343.75,471.29L341.94,469.48L343.75,469.48L345.55,467.67L347.36,467.67L349.17,465.87L352.79,465.87L358.22,464.06L363.65,462.25L367.27,462.25L372.69,460.44L376.31,460.44L378.12,460.44L381.74,460.44L383.55,458.63L385.36,458.63L387.17,456.82L387.17,455.01L387.17,453.2L387.17,451.39L385.36,449.58L381.74,449.58L376.31,449.58L372.69,449.58L365.46,449.58L361.84,451.39L356.41,451.39L352.79,453.2L350.98,453.2L349.17,455.01L347.36,455.01L345.55,456.82L343.75,456.82L341.94,458.63L340.13,458.63L338.32,458.63L334.7,458.63L332.89,458.63L329.27,458.63L327.46,458.63L323.84,458.63L320.23,460.44L318.42,460.44L314.8,460.44L311.18,462.25L309.37,462.25L307.56,462.25L303.94,462.25L302.13,464.06L300.33,464.06L298.52,465.87L296.71,465.87L296.71,467.67L298.52,469.48L300.33,469.48L303.94,469.48L307.56,469.48L311.18,469.48L316.61,469.48L322.04,467.67L327.46,467.67L332.89,467.67L336.51,465.87L341.94,465.87L345.55,465.87L347.36,465.87L349.17,465.87L350.98,465.87L350.98,467.67L349.17,467.67" fill="none" stroke="#000000" style="-webkit-tap-highlight-color: rgba(0, 0, 0, 0); stroke-linecap: round; stroke-linejoin: round; stroke-width: 5;" /><path d="M747.19,538.23L747.19,536.42L745.39,536.42L743.58,536.42L741.77,536.42L739.96,536.42L738.15,536.42L736.34,536.42L736.34,534.61L738.15,534.61L739.96,534.61L741.77,536.42L743.58,536.42L745.39,538.23L747.19,538.23L749,540.04L752.62,540.04L754.43,541.85L758.05,541.85L761.67,543.66L765.29,543.66L767.1,545.47L770.71,545.47L774.33,547.28L777.95,549.09L783.38,550.9L788.81,552.71L794.23,556.33L799.66,559.94L805.09,561.75L810.52,563.56L814.13,567.18L819.56,568.99L823.18,570.8L828.61,574.42L832.23,576.23L835.84,579.84L839.46,583.46L843.08,587.08L844.89,590.7L848.51,592.51L850.32,594.32L853.94,596.13L855.75,599.75L857.55,601.55L861.17,605.17L861.17,606.98L864.79,608.79L866.6,610.6L868.41,610.6L872.03,612.41L873.84,616.03L875.65,617.84L877.46,619.65L879.27,621.46L879.27,623.27L881.07,625.07L881.07,626.88L882.88,628.69L882.88,632.31L884.69,634.12L886.5,637.74L886.5,639.55L888.31,643.17L891.93,644.98L895.55,646.78L897.36,648.59L900.98,650.4L904.59,652.21L906.4,652.21L908.21,652.21L910.02,654.02L913.64,654.02L915.45,655.83L919.07,657.64L920.88,659.45L922.69,661.26L926.3,663.07L928.11,664.88L929.92,666.69L933.54,668.49L935.35,670.3L938.97,672.11L942.59,673.92L946.2,673.92L949.82,675.73L953.44,675.73L957.06,677.54L962.49,679.35L964.3,679.35L967.92,681.16L971.53,682.97L973.34,684.78L975.15,684.78L976.96,686.59L978.77,688.4L980.58,690.2L982.39,692.01L986.01,693.82L987.82,693.82L989.63,695.63L991.43,697.44L995.05,697.44L996.86,699.25L1000.48,699.25L1002.29,699.25L1004.1,699.25L1005.91,699.25L1007.72,699.25L1007.72,697.44L1004.1,693.82L1004.1,692.01" fill="none" stroke="#000000" style="-webkit-tap-highlight-color: rgba(0, 0, 0, 0); stroke-linecap: round; stroke-linejoin: round; stroke-width: 5;" /><path d="M962.49,568.99L964.3,567.18L966.11,565.37L967.92,563.56L969.72,561.75L967.92,561.75L967.92,559.94L966.11,559.94L964.3,559.94L964.3,558.13L962.49,556.33L960.68,556.33L960.68,559.94L960.68,563.56L960.68,568.99L960.68,576.23L960.68,583.46L962.49,590.7L962.49,596.13L964.3,601.55L964.3,603.36L966.11,605.17L967.92,606.98L967.92,608.79L967.92,610.6L967.92,612.41L967.92,614.22L969.72,614.22L971.53,612.41L973.34,608.79" fill="none" stroke="#000000" style="-webkit-tap-highlight-color: rgba(0, 0, 0, 0); stroke-linecap: round; stroke-linejoin: round; stroke-width: 5;" /><path d="M964.3,552.71L962.49,552.71L962.49,554.52L960.68,556.33L960.68,558.13L962.49,561.75L964.3,565.37L964.3,567.18L966.11,568.99L967.92,570.8L971.53,570.8L975.15,568.99L976.96,567.18L980.58,565.37L984.2,563.56L989.63,563.56L991.43,561.75L995.05,559.94L996.86,558.13L998.67,556.33L1000.48,556.33L1000.48,554.52L1000.48,550.9L1000.48,549.09L998.67,547.28L996.86,543.66L995.05,541.85L991.43,540.04L986.01,538.23L978.77,534.61L971.53,534.61L964.3,532.81L958.87,532.81L953.44,532.81L949.82,534.61L948.01,536.42L946.2,538.23L948.01,540.04L949.82,541.85" fill="none" stroke="#000000" style="-webkit-tap-highlight-color: rgba(0, 0, 0, 0); stroke-linecap: round; stroke-linejoin: round; stroke-width: 5;" /><path d="M989.63,559.94L987.82,559.94L987.82,558.13L987.82,559.94L987.82,561.75L987.82,567.18L987.82,574.42L987.82,583.46L989.63,592.51L989.63,599.75L989.63,606.98L989.63,608.79L989.63,610.6L989.63,608.79L991.43,605.17L991.43,603.36" fill="none" stroke="#000000" style="-webkit-tap-highlight-color: rgba(0, 0, 0, 0); stroke-linecap: round; stroke-linejoin: round; stroke-width: 5;" /><path d="M877.46,559.94L877.46,561.75L875.65,559.94L875.65,558.13L873.84,558.13L873.84,556.33L873.84,559.94L872.03,565.37L870.22,572.61L866.6,579.84L866.6,587.08L866.6,594.32L866.6,599.75L866.6,605.17L866.6,608.79L866.6,612.41L866.6,614.22L864.79,612.41L864.79,610.6" fill="none" stroke="#000000" style="-webkit-tap-highlight-color: rgba(0, 0, 0, 0); stroke-linecap: round; stroke-linejoin: round; stroke-width: 5;" /><path d="M964.3,330.18L962.49,330.18L962.49,331.99L962.49,333.8L962.49,335.6L964.3,337.41L964.3,341.03L964.3,342.84L966.11,346.46L966.11,350.08L966.11,351.89L966.11,355.51L966.11,357.31L966.11,360.93L966.11,362.74L967.92,362.74L971.53,362.74L975.15,360.93L976.96,360.93L982.39,359.12L987.82,357.31L991.43,355.51L996.86,353.7L1000.48,351.89L1005.91,350.08L1009.53,348.27L1014.95,346.46L1020.38,344.65" fill="none" stroke="#000000" style="-webkit-tap-highlight-color: rgba(0, 0, 0, 0); stroke-linecap: round; stroke-linejoin: round; stroke-width: 5;" /><path d="M197.2,465.87L195.39,464.06L193.58,462.25L193.58,460.44L195.39,462.25L195.39,464.06L195.39,467.67L195.39,469.48L197.2,473.1L197.2,476.72L199.01,480.34L200.82,485.77L202.63,489.39L204.44,493L204.44,496.62L206.25,500.24L206.25,502.05L208.06,505.67L208.06,507.48L209.87,507.48L209.87,509.29L209.87,511.1L211.67,511.1L213.48,511.1L215.29,507.48L217.1,505.67L220.72,502.05L222.53,498.43L226.15,496.62L227.96,493L229.77,491.19L229.77,489.39L229.77,487.58L229.77,483.96L227.96,482.15L226.15,478.53L224.34,474.91L224.34,473.1L224.34,469.48L222.53,467.67L222.53,465.87L222.53,464.06L222.53,462.25L222.53,460.44L222.53,458.63L224.34,456.82L226.15,456.82L229.77,456.82L231.58,456.82L235.19,456.82L237,458.63L240.62,458.63L242.43,458.63L244.24,460.44L246.05,460.44L246.05,462.25L247.86,462.25L247.86,465.87L249.67,467.67L249.67,471.29L249.67,473.1L249.67,476.72L249.67,480.34L249.67,482.15L251.48,485.77L251.48,487.58L251.48,491.19L251.48,494.81L253.29,498.43L253.29,500.24L255.1,503.86L255.1,507.48L255.1,511.1L255.1,514.71L256.9,518.33L256.9,520.14L256.9,523.76L258.71,527.38L258.71,531L260.52,534.61L260.52,540.04L262.33,541.85L262.33,543.66L260.52,543.66" fill="none" stroke="#000000" style="-webkit-tap-highlight-color: rgba(0, 0, 0, 0); stroke-linecap: round; stroke-linejoin: round; stroke-width: 5;" /><path d="M106.74,471.29L104.93,469.48L104.93,467.67L103.12,467.67L103.12,465.87L101.31,465.87L99.51,465.87L99.51,467.67L99.51,469.48L97.7,473.1L95.89,476.72L95.89,480.34L94.08,485.77L92.27,491.19L90.46,494.81L90.46,498.43L90.46,502.05L90.46,503.86L90.46,505.67L92.27,507.48L92.27,509.29L94.08,509.29L95.89,511.1" fill="none" stroke="#000000" style="-webkit-tap-highlight-color: rgba(0, 0, 0, 0); stroke-linecap: round; stroke-linejoin: round; stroke-width: 5;" /><path d="M66.94,460.44L66.94,458.63L65.13,458.63L65.13,456.82L63.32,456.82L61.51,456.82L61.51,458.63L61.51,462.25L61.51,465.87L61.51,469.48L59.7,474.91L59.7,480.34L59.7,483.96L59.7,487.58L57.89,491.19L57.89,493L57.89,494.81L59.7,496.62L59.7,498.43L59.7,500.24L57.89,502.05L57.89,503.86L57.89,505.67L59.7,509.29L59.7,512.9L59.7,516.52L59.7,520.14L59.7,521.95L59.7,525.57L59.7,527.38L59.7,529.19L61.51,529.19L61.51,527.38" fill="none" stroke="#000000" style="-webkit-tap-highlight-color: rgba(0, 0, 0, 0); stroke-linecap: round; stroke-linejoin: round; stroke-width: 5;" /><path d="M56.08,482.15L56.08,480.34L54.28,480.34L52.47,480.34L50.66,480.34L48.85,480.34L48.85,482.15L45.23,483.96L41.61,485.77L37.99,489.39L32.57,493L28.95,494.81L27.14,494.81L23.52,494.81L19.9,494.81L18.09,494.81L14.47,496.62L12.66,496.62L9.05,496.62L7.24,498.43L5.43,498.43L3.62,500.24L1.81,502.05L0,503.86L0,507.48" fill="none" stroke="#000000" style="-webkit-tap-highlight-color: rgba(0, 0, 0, 0); stroke-linecap: round; stroke-linejoin: round; stroke-width: 5;" /><path d="M0,516.52" fill="none" stroke="#000000" style="-webkit-tap-highlight-color: rgba(0, 0, 0, 0); stroke-linecap: round; stroke-linejoin: round; stroke-width: 5;" /><path d="M423.35,574.42L421.54,572.61L417.92,570.8L416.11,570.8L414.3,570.8L412.49,570.8L410.69,570.8L412.49,570.8L414.3,567.18L419.73,563.56L426.97,559.94L432.4,558.13L437.82,554.52L443.25,554.52L446.87,554.52L452.3,554.52L457.72,556.33L461.34,556.33L466.77,558.13L470.39,559.94L474.01,559.94L477.63,558.13L481.24,556.33L483.05,554.52L486.67,552.71L488.48,550.9L492.1,550.9L495.72,549.09L497.53,547.28L501.14,547.28L502.95,547.28L506.57,547.28L510.19,547.28L512,547.28L515.62,547.28L517.43,545.47L521.05,543.66L522.86,541.85L524.66,540.04L528.28,536.42L530.09,534.61L530.09,532.81" fill="none" stroke="#000000" style="-webkit-tap-highlight-color: rgba(0, 0, 0, 0); stroke-linecap: round; stroke-linejoin: round; stroke-width: 5;" /><path d="M493.91,341.03L493.91,337.41L497.53,331.99" fill="none" stroke="#000000" style="-webkit-tap-highlight-color: rgba(0, 0, 0, 0); stroke-linecap: round; stroke-linejoin: round; stroke-width: 5;" /><path d="M497.53,331.99L497.53,330.18L497.53,331.99L497.53,335.6L497.53,339.22L497.53,342.84L499.34,346.46L499.34,350.08L499.34,353.7L499.34,359.12L501.14,362.74L501.14,366.36L502.95,371.79L502.95,377.22L502.95,380.83L502.95,386.26L502.95,391.69L502.95,397.12L502.95,402.54L502.95,407.97L504.76,413.4L506.57,417.02L506.57,420.64L508.38,424.25L508.38,427.87L506.57,431.49L506.57,435.11L504.76,438.73L502.95,442.35L502.95,445.96L501.14,447.77L501.14,451.39L501.14,455.01L501.14,456.82L501.14,460.44L501.14,464.06L501.14,467.67L501.14,471.29L501.14,473.1L502.95,474.91L502.95,476.72L504.76,478.53L504.76,480.34L504.76,483.96L506.57,487.58L506.57,493L508.38,498.43L510.19,503.86L512,509.29L512,512.9L513.81,516.52L513.81,518.33L513.81,521.95L513.81,523.76L513.81,527.38L513.81,529.19L513.81,531L513.81,532.81L512,532.81L512,534.61L510.19,534.61L510.19,536.42L510.19,538.23L508.38,541.85L508.38,543.66L508.38,540.04" fill="none" stroke="#000000" style="-webkit-tap-highlight-color: rgba(0, 0, 0, 0); stroke-linecap: round; stroke-linejoin: round; stroke-width: 5;" /><path d="M522.86,236.1L522.86,234.29L522.86,232.48L522.86,230.67L521.05,230.67L521.05,228.86L521.05,230.67L519.24,232.48L519.24,234.29L517.43,236.1L517.43,237.91L515.62,241.53L513.81,245.14L513.81,248.76L512,252.38L510.19,256L508.38,259.62L504.76,263.24L502.95,266.86L501.14,270.47L501.14,272.28L501.14,274.09L501.14,275.9L501.14,277.71L501.14,279.52L502.95,281.33L504.76,281.33L508.38,283.14L512,286.76L515.62,288.57L519.24,290.37L522.86,292.18L526.47,293.99L528.28,295.8L530.09,297.61L531.9,299.42L533.71,303.04L533.71,304.85L533.71,306.66L535.52,308.47L535.52,310.28L535.52,312.08L535.52,313.89L535.52,315.7L535.52,317.51L533.71,319.32L533.71,321.13L531.9,322.94L530.09,324.75L528.28,326.56L524.66,330.18L522.86,331.99L519.24,333.8L517.43,337.41L515.62,341.03L513.81,344.65L513.81,348.27L512,350.08L512,353.7L512,355.51L513.81,355.51L513.81,357.31L513.81,353.7" fill="none" stroke="#000000" style="-webkit-tap-highlight-color: rgba(0, 0, 0, 0); stroke-linecap: round; stroke-linejoin: round; stroke-width: 5;" /><path d="M483.05,384.45L484.86,384.45L484.86,386.26L484.86,388.07L484.86,389.88L484.86,391.69L483.05,391.69L481.24,389.88L477.63,388.07L474.01,386.26L470.39,384.45L464.96,380.83L461.34,377.22L457.72,373.6L454.11,371.79L450.49,368.17L446.87,368.17L445.06,366.36L441.44,364.55L437.82,362.74L434.2,360.93L430.59,360.93L426.97,359.12L421.54,359.12L417.92,359.12L412.49,357.31L407.07,355.51L401.64,355.51L396.21,353.7L390.78,353.7L385.36,353.7L379.93,351.89L376.31,351.89L370.88,351.89L365.46,350.08L361.84,348.27L356.41,348.27L352.79,346.46L349.17,346.46L343.75,344.65L340.13,344.65L336.51,342.84L332.89,341.03L329.27,341.03L325.65,339.22L322.04,339.22L318.42,337.41L316.61,335.6L314.8,335.6L314.8,333.8L312.99,331.99L312.99,330.18L311.18,330.18L309.37,328.37L309.37,326.56L309.37,324.75L309.37,322.94L309.37,321.13L309.37,319.32L311.18,317.51L312.99,317.51L312.99,315.7L314.8,315.7L318.42,313.89L322.04,313.89L323.84,313.89L325.65,313.89L325.65,312.08L325.65,313.89L323.84,315.7L320.23,317.51L318.42,321.13L314.8,322.94L311.18,326.56L309.37,330.18L305.75,331.99L303.94,331.99L302.13,333.8L300.33,333.8L298.52,333.8L296.71,333.8L293.09,333.8L289.47,333.8L284.04,333.8L276.81,333.8L273.19,333.8L267.76,333.8L262.33,333.8L255.1,333.8L249.67,335.6L244.24,335.6L240.62,337.41L237,337.41L235.19,337.41L233.39,337.41L231.58,335.6L229.77,335.6L229.77,333.8L229.77,331.99L229.77,330.18L229.77,328.37L229.77,326.56L231.58,324.75L231.58,321.13L233.39,319.32L233.39,317.51L233.39,315.7L233.39,312.08L233.39,310.28L231.58,308.47L233.39,310.28L237,312.08" fill="none" stroke="#000000" style="-webkit-tap-highlight-color: rgba(0, 0, 0, 0); stroke-linecap: round; stroke-linejoin: round; stroke-width: 5;" /><path d="M358.22,293.99L358.22,292.18L354.6,290.37L352.79,290.37L350.98,290.37L349.17,290.37L347.36,293.99L343.75,295.8L340.13,299.42L336.51,304.85L334.7,308.47L332.89,312.08L332.89,315.7L334.7,319.32L338.32,321.13L345.55,322.94L350.98,324.75L358.22,324.75L363.65,321.13L367.27,315.7L369.07,312.08L369.07,308.47L367.27,304.85L360.03,299.42L352.79,297.61L345.55,295.8L341.94,295.8L338.32,299.42L336.51,301.23L334.7,304.85L334.7,306.66L334.7,308.47" fill="none" stroke="#000000" style="-webkit-tap-highlight-color: rgba(0, 0, 0, 0); stroke-linecap: round; stroke-linejoin: round; stroke-width: 5;" /><path d="M441.44,303.04L437.82,303.04L432.4,299.42L428.78,297.61L425.16,297.61L419.73,297.61L414.3,295.8L408.88,297.61L403.45,299.42L399.83,301.23L398.02,304.85L398.02,308.47L398.02,312.08L403.45,317.51L410.69,321.13L417.92,321.13L425.16,321.13L430.59,317.51L434.2,312.08L434.2,308.47L430.59,303.04L423.35,301.23L414.3,299.42L405.26,299.42L398.02,303.04L394.4,310.28L394.4,312.08" fill="none" stroke="#000000" style="-webkit-tap-highlight-color: rgba(0, 0, 0, 0); stroke-linecap: round; stroke-linejoin: round; stroke-width: 5;" /><path d="M428.78,333.8L428.78,331.99L428.78,330.18L425.16,330.18L419.73,331.99L412.49,335.6L407.07,342.84L407.07,350.08L412.49,355.51L421.54,357.31L430.59,355.51L439.63,351.89L443.25,344.65L443.25,339.22L441.44,333.8L432.4,330.18L425.16,326.56L414.3,328.37L412.49,330.18" fill="none" stroke="#000000" style="-webkit-tap-highlight-color: rgba(0, 0, 0, 0); stroke-linecap: round; stroke-linejoin: round; stroke-width: 5;" /><path d="M14.47,317.51L10.86,317.51L10.86,315.7L12.66,317.51L18.09,322.94" fill="none" stroke="#000000" style="-webkit-tap-highlight-color: rgba(0, 0, 0, 0); stroke-linecap: round; stroke-linejoin: round; stroke-width: 5;" /><path d="M9.05,341.03L7.24,341.03L1.81,341.03L0,341.03" fill="none" stroke="#000000" style="-webkit-tap-highlight-color: rgba(0, 0, 0, 0); stroke-linecap: round; stroke-linejoin: round; stroke-width: 5;" /><path d="M0,341.03L1.81,341.03L5.43,341.03L7.24,341.03L12.66,341.03L16.28,341.03L21.71,342.84L27.14,342.84L32.57,344.65L36.18,344.65L41.61,344.65L45.23,344.65L48.85,346.46L54.28,346.46L57.89,346.46L61.51,348.27L66.94,348.27L70.56,346.46L72.37,346.46L75.99,344.65L79.6,342.84L83.22,341.03L86.84,341.03L90.46,339.22L94.08,337.41L95.89,337.41L97.7,335.6L101.31,335.6L103.12,335.6L104.93,333.8L108.55,331.99L110.36,330.18L113.98,330.18L115.79,328.37L117.6,326.56L119.41,324.75L121.22,324.75L124.83,324.75L124.83,322.94L126.64,322.94L126.64,324.75" fill="none" stroke="#000000" style="-webkit-tap-highlight-color: rgba(0, 0, 0, 0); stroke-linecap: round; stroke-linejoin: round; stroke-width: 5;" /></svg>