<?xml version="1.0" encoding="utf-8" ?>
<svg baseProfile="full" height="737" version="1.1" width="1024" xmlns="http://www.w3.org/2000/svg" xmlns:ev="http://www.w3.org/2001/xml-events" xmlns:xlink="http://www.w3.org/1999/xlink"><defs /><path d="M5.22,243.31L7.46,243.31L10.45,242.57L15.67,241.82L21.64,241.07L27.62,240.33L38.06,240.33L45.53,239.58L52.24,238.83L58.96,239.58L68.66,238.83L74.64,238.83L80.61,238.83L85.08,238.83L89.56,239.58L96.28,238.83L100.01,238.09L103.74,238.09L105.24,238.09L120.16,237.34L124.64,236.59L130.61,236.59L135.84,235.85L140.31,235.85L145.54,235.1L150.76,234.36L158.23,233.61L162.71,232.86L167.18,232.86L171.66,232.12L176.14,231.37L183.6,231.37L188.08,230.62L193.31,229.88L197.78,229.13L204.5,227.64L208.98,226.15L213.46,225.4L217.19,224.65L220.92,223.91L224.65,223.91L231.37,223.16L236.59,222.41L241.82,222.41L249.28,221.67L253.76,220.92L258.99,220.92L263.46,220.17L268.69,220.17L277.64,219.43L283.62,218.68L288.84,217.94L293.32,217.19L298.54,215.7L303.02,215.7L305.26,214.95L308.24,214.2L311.23,213.46L313.47,213.46L316.45,212.71L317.95,212.71L319.44,212.71L320.93,212.71L322.43,212.71L323.92,212.71L326.16,212.71L329.14,212.71L334.37,211.97L338.1,211.22L341.83,211.22L345.56,211.22L350.79,210.47L354.52,210.47L358.25,210.47L361.24,210.47L364.22,210.47L369.45,211.22L373.18,210.47L388.85,210.47L391.09,209.73L395.57,209.73L400.05,210.47L404.52,210.47L409,210.47L413.48,210.47L417.21,210.47L420.2,210.47L424.68,209.73L427.66,209.73L431.39,210.47L435.13,210.47L438.86,210.47L442.59,210.47L447.07,210.47L450.05,209.73L453.04,209.73L456.77,208.23L459.01,208.23L460.5,207.49L461.99,206.74L464.23,205.99L467.97,205.25L471.7,204.5L473.94,203.76L476.92,203.01L480.65,202.26L482.89,200.77L485.88,200.02L488.12,199.28L491.1,198.53L492.59,197.78L494.09,197.04L494.83,197.04L496.33,197.04L498.57,197.04" fill="none" stroke="#000000" style="-webkit-tap-highlight-color: rgba(0, 0, 0, 0); stroke-linecap: round; stroke-linejoin: round; stroke-width: 5;" /><path d="M444.08,216.44L444.08,215.7L442.59,214.95L441.84,214.95L441.84,215.7L441.1,217.19L441.1,220.17L440.35,223.91L440.35,230.62L440.35,234.36L441.1,238.83L440.35,242.57L440.35,249.28L439.6,253.76L439.6,257.49L439.6,261.97L439.6,267.2L438.86,275.41L438.86,280.63L438.86,286.6L438.86,292.57L438.86,303.77L439.6,311.98L439.6,320.19L439.6,327.65L440.35,334.37L441.1,340.34L441.1,343.32L441.84,346.31L443.34,348.55" fill="none" stroke="#000000" style="-webkit-tap-highlight-color: rgba(0, 0, 0, 0); stroke-linecap: round; stroke-linejoin: round; stroke-width: 5;" /><path d="M497.07,204.5L496.33,203.01L497.07,203.01L496.33,206.74L496.33,213.46L496.33,220.17L496.33,227.64L495.58,238.09L495.58,247.79L495.58,255.25L495.58,262.72L495.58,270.93L495.58,279.14L495.58,284.36L496.33,290.33L496.33,295.56L496.33,301.53L495.58,306.01L494.83,310.48L494.83,316.45L494.09,322.43L494.09,325.41L493.34,327.65L494.83,326.9" fill="none" stroke="#000000" style="-webkit-tap-highlight-color: rgba(0, 0, 0, 0); stroke-linecap: round; stroke-linejoin: round; stroke-width: 5;" /><path d="M504.54,200.77L506.03,199.28L508.27,197.78L512,197.78L517.22,196.29L522.45,195.55L527.67,195.55L535.14,194.8L539.62,194.05L542.6,194.05L544.84,193.31L547.08,193.31L548.57,193.31L548.57,194.05L549.32,194.05L550.06,194.05L551.56,194.8L552.3,194.8L554.54,195.55L555.29,196.29L556.03,197.04L557.53,197.78L559.02,198.53L559.77,199.28L560.51,200.77L560.51,201.52L560.51,203.01L559.77,205.25L559.77,208.23L560.51,210.47L560.51,213.46L560.51,217.94L560.51,223.16L560.51,228.38L560.51,233.61L560.51,238.09L560.51,242.57L560.51,247.79L559.77,251.52L559.77,255.25L559.02,258.99L559.02,262.72L558.27,267.94L559.02,271.67L559.02,273.91L559.02,276.9L559.02,279.88L558.27,286.6L559.02,288.84" fill="none" stroke="#000000" style="-webkit-tap-highlight-color: rgba(0, 0, 0, 0); stroke-linecap: round; stroke-linejoin: round; stroke-width: 5;" /><path d="M5.22,525.43" fill="none" stroke="#000000" style="-webkit-tap-highlight-color: rgba(0, 0, 0, 0); stroke-linecap: round; stroke-linejoin: round; stroke-width: 5;" /><path d="M7.46,527.67L7.46,528.42L6.72,528.42L5.97,528.42L5.97,526.18L7.46,523.94L9.7,522.45L11.94,520.21L14.93,517.97L17.91,515.73L22.39,512.75L34.33,507.52L37.32,506.03L39.56,505.28L44.78,503.04L48.51,500.8L53.74,499.31L58.96,497.82L66.43,494.09L70.9,492.59L75.38,490.36L79.86,488.12L87.32,485.13L92.55,482.89L97.03,481.4L102.25,479.16L108.22,477.67L117.18,473.94L123.9,472.44L129.87,470.2L137.33,467.97L147.78,464.23L155.24,461.99L162.71,460.5L170.92,458.26L179.13,456.02L188.08,453.04L200.77,448.56L208.23,446.32L215.7,444.08L225.4,441.1L232.86,438.86L238.83,436.62L246.3,434.38L253.01,433.63L260.48,432.14L270.93,428.41L278.39,426.17L285.11,424.68L295.56,421.69L301.53,420.2L306.75,417.96L312.72,416.47L317.95,414.97L323.17,412.73L330.64,409.75L335.11,408.26L339.59,405.27L345.56,403.03L352.28,400.79L356.76,397.81L362.73,395.57L367.95,393.33L373.18,390.34L381.39,386.61L386.61,384.37L391.09,382.13L397.06,379.9L406.02,376.16L411.99,373.18L417.21,370.94L431.39,364.97L434.38,363.48L437.36,362.73L442.59,359.74L447.07,357.5L451.55,354.52L457.52,350.79L461.25,347.8L464.98,345.56L468.71,342.58L471.7,340.34L477.67,337.35L481.4,335.11L485.88,333.62L490.36,331.38L497.82,329.14L502.3,327.65L506.78,326.16L511.25,323.92L514.99,322.43L520.96,320.19L523.94,318.69L526.93,317.95L529.91,316.45L534.39,314.96L537.38,313.47L540.36,311.98L543.35,310.48L546.33,308.24L550.81,305.26L553.8,304.51L556.03,303.02L559.77,299.29L562.75,296.3L564.99,294.06L566.48,291.08L569.47,288.84L570.96,286.6L574.69,282.12L576.19,278.39L579.17,275.41L582.16,272.42L585.89,269.43L588.13,267.2L591.11,264.21L593.35,261.22L595.59,257.49L599.32,252.27L602.31,249.28L604.55,245.55L607.53,243.31L612.76,238.09L616.49,234.36L620.22,229.13L623.95,224.65L627.69,220.17L631.42,215.7L635.15,210.47L637.39,205.99L639.63,203.01L646.34,190.32L647.84,187.34L647.84,186.59L648.58,185.1L648.58,183.6L649.33,181.36L648.58,179.87L648.58,178.38L648.58,175.39L647.84,173.9L647.84,173.15L646.34,171.66L644.85,169.42L644.1,167.93L643.36,167.18L641.12,165.69L639.63,164.2L636.64,161.96L634.4,159.72L632.91,158.23L630.67,156.73L628.43,155.24L626.19,153.75L621.71,152.26L619.48,151.51L616.49,151.51L611.27,152.26L607.53,153L603.06,154.5L599.32,155.24L594.85,155.99L588.87,158.23L582.16,161.21L578.43,164.2L575.44,165.69L574.69,166.44L571.71,167.93" fill="none" stroke="#000000" style="-webkit-tap-highlight-color: rgba(0, 0, 0, 0); stroke-linecap: round; stroke-linejoin: round; stroke-width: 5;" /><path d="M563.5,138.08L562.75,135.84L561.26,134.34L561.26,133.6L559.77,130.61L559.02,127.63L558.27,124.64L558.27,119.42L558.27,116.43L559.02,113.45L561.26,110.46L564.24,105.98L565.74,102.25L567.98,99.27L570.22,95.53L572.45,91.06L575.44,87.32L579.92,82.85L582.9,79.86L585.89,77.62L590.37,74.64L593.35,73.89L595.59,73.14L598.58,72.4L600.07,72.4L602.31,72.4L603.8,72.4L606.04,72.4L607.53,72.4L611.27,71.65L613.5,71.65L616.49,71.65L618.73,70.9L621.71,70.9L623.95,70.16L627.69,70.16L629.92,70.16L632.91,70.16L638.13,69.41L641.87,69.41L644.85,69.41L647.84,70.16L650.82,70.16L655.3,70.16L658.29,70.16L659.78,70.16L660.52,70.16L662.02,70.9L662.76,71.65L662.76,72.4L663.51,73.89L663.51,75.38L663.51,77.62L663.51,79.86L664.26,83.59L664.26,86.58L662.76,92.55L662.76,94.04L662.02,95.53L660.52,97.03L658.29,100.01L656.05,103.74" fill="none" stroke="#000000" style="-webkit-tap-highlight-color: rgba(0, 0, 0, 0); stroke-linecap: round; stroke-linejoin: round; stroke-width: 5;" /><path d="M576.19,149.27L575.44,150.76L574.69,152.26L573.95,154.5L573.2,157.48L572.45,158.97L571.71,158.97L570.22,158.23L570.22,155.99L570.96,153.75L572.45,150.02L575.44,146.29L578.43,141.81L586.64,137.33L592.61,133.6L600.07,129.87L609.77,125.39L615.74,122.4L621.71,121.66L628.43,120.91L634.4,120.16L644.1,119.42L650.08,118.67L655.3,117.92L659.78,118.67L665,118.67L670.23,118.67L673.21,117.92L676.2,117.18L679.18,117.18L682.92,116.43L685.9,116.43L688.89,116.43L694.11,116.43L695.6,117.18L696.35,117.18L698.59,117.92L699.34,118.67L700.08,118.67L700.83,120.16L702.32,120.91L703.07,121.66L703.81,123.15L704.56,123.9L705.31,125.39L706.05,126.13L706.8,127.63L707.55,129.12L707.55,130.61L708.29,132.1L709.04,133.6L710.53,136.58L711.28,138.08L711.28,138.82L711.28,141.06L711.28,142.55L711.28,144.05L710.53,147.78L710.53,150.02L710.53,151.51L709.78,155.24L709.04,157.48L707.55,159.72L706.8,161.96L705.31,164.94L703.81,168.68L703.07,170.92L700.83,173.9L699.34,176.89L696.35,181.36L694.86,185.1L692.62,188.08L691.13,191.81L689.63,194.8L687.39,197.78L684.41,203.76L682.92,208.23L680.68,211.97L676.94,217.19L674.71,220.17L671.72,223.91L667.99,227.64L665,232.12L659.78,238.83L656.05,241.82L653.06,244.8L650.82,246.3L645.6,249.28L640.37,253.01L635.15,256L629.18,260.48L621.71,264.21L592.61,276.9L587.38,279.14L582.9,280.63L577.68,283.62" fill="none" stroke="#000000" style="-webkit-tap-highlight-color: rgba(0, 0, 0, 0); stroke-linecap: round; stroke-linejoin: round; stroke-width: 5;" /><path d="M42.54,229.88L44.03,230.62L50.75,230.62L54.48,230.62L57.47,229.88L61.95,229.88L64.19,229.13L66.43,228.38L68.66,227.64L71.65,225.4L73.14,223.16L74.64,221.67L76.87,219.43L78.37,217.19L81.35,212.71L82.85,210.47L85.08,208.98L87.32,206.74L90.31,202.26L91.8,200.02L94.04,197.04L95.53,194.8L97.77,192.56L100.76,188.83L103.74,186.59L105.98,184.35L108.22,181.36L111.21,178.38L114.19,174.65L117.18,173.15L119.42,170.92L121.66,168.68L124.64,164.2L126.88,161.96L133.6,155.99L135.09,154.5L137.33,153L140.31,150.76L143.3,148.52L147.03,147.03L150.76,145.54L157.48,143.3L161.96,141.81L167.18,139.57L174.65,135.09L178.38,133.6L182.86,131.36L186.59,129.12L190.32,126.88L194.8,123.9L200.02,120.91L204.5,119.42L208.98,117.92L215.7,115.69L220.92,114.19L225.4,112.7L230.62,111.21L236.59,109.71L243.31,107.48L249.28,105.98L253.76,103.74L257.49,102.25L263.46,99.27L267.94,97.77L272.42,97.03L276.15,95.53L279.88,94.04L282.87,92.55L288.09,89.56L291.83,87.32L295.56,85.08L301.53,82.85L306.01,80.61L310.48,79.11L315.71,77.62L320.93,75.38L326.16,73.89L334.37,70.9L338.85,69.41L343.32,67.92L349.29,65.68L353.77,64.93L358.25,63.44L362.73,62.69L367.95,61.2L373.18,60.45L381.39,58.96L387.36,58.22L393.33,58.22L398.55,57.47L407.51,55.98L412.73,54.48L417.21,53.74L429.9,50.01L431.39,49.26L435.87,47.77L438.86,46.27L441.1,46.27L456.02,42.54L461.25,41.8L466.47,41.05L472.44,39.56L477.67,38.81L485.88,36.57L491.85,35.83L497.82,35.08L504.54,34.33L511.25,33.59L515.73,32.84L520.21,31.35L524.69,30.6L528.42,29.85L533.64,29.85L537.38,29.85L540.36,29.11L544.84,27.62L549.32,27.62L553.05,26.87L556.78,26.87L561.26,26.87L564.99,26.87L571.71,26.87L576.19,26.12L580.66,26.12L585.14,25.38L592.61,24.63L597.83,24.63L602.31,23.88L606.79,23.14L612.01,22.39L619.48,22.39L624.7,22.39L629.92,22.39L635.15,23.14L643.36,22.39L649.33,22.39L654.55,22.39L659.78,22.39L665,23.14L673.96,23.88L680.68,23.14L687.39,23.14L694.11,23.88L703.81,23.88L710.53,23.88L715.76,24.63L722.47,25.38L727.7,26.12L737.4,26.12L744.86,26.12L752.33,26.12L759.79,26.12L775.46,28.36L781.43,29.11L784.42,29.11L786.66,29.85L794.87,30.6L800.09,31.35L805.32,32.09L811.29,32.84L816.51,33.59L824.72,34.33L829.95,34.33L835.17,35.83L841.14,36.57L846.37,37.32L853.83,38.81L859.06,40.3L864.28,41.8L871,42.54L879.21,44.78L883.69,44.78L888.91,46.27L894.13,47.77L899.36,48.51L906.82,48.51L912.05,49.26L915.78,49.26L919.51,49.26L925.48,50.01L929.96,49.26L933.69,49.26L936.68,48.51L939.66,48.51L945.63,48.51L949.36,47.77L953.1,47.77L956.08,47.77L961.31,46.27L964.29,45.53L967.28,44.78L971.01,44.78L973.99,44.03L979.22,43.29L982.2,41.8L985.19,40.3L989.67,38.81L996.38,36.57L1002.36,35.08L1007.58,33.59L1012.8,32.09L1018.03,30.6L1024,29.85" fill="none" stroke="#000000" style="-webkit-tap-highlight-color: rgba(0, 0, 0, 0); stroke-linecap: round; stroke-linejoin: round; stroke-width: 5;" /><path d="M908.31,145.54L908.31,143.3L907.57,142.55L907.57,141.81L907.57,142.55L906.08,145.54L904.58,148.52L903.84,151.51L903.09,155.24L903.09,158.23L903.09,161.21L904.58,163.45L906.08,167.18L908.31,169.42L910.55,172.41L912.05,174.65L913.54,176.89L916.52,181.36L919.51,184.35L921.75,186.59L923.99,188.08L926.97,190.32L928.47,192.56L933.69,197.78L935.93,199.28L937.42,200.77L938.92,203.01L940.41,204.5L941.15,208.23L942.65,211.97L943.39,215.7L944.14,218.68L944.89,222.41L944.89,225.4L944.14,229.13L941.9,233.61L940.41,237.34L938.17,241.07L937.42,241.82L932.94,247.79L930.71,250.03L928.47,253.01L926.23,255.25L923.24,259.73L920.26,262.72L918.02,265.7L915.03,268.69L912.05,271.67L909.81,273.17L908.31,274.66L906.08,275.41L904.58,276.9L901.6,279.88L899.36,280.63L897.12,282.12L894.13,284.36L891.15,285.85L889.66,287.35L888.16,288.84L886.67,290.33L885.92,291.83L882.94,294.81L881.45,297.8L879.95,300.78L878.46,303.02L876.22,306.75L874.73,309.74L873.24,312.72L872.49,315.71L871,318.69L870.25,321.68L868.01,325.41L867.27,328.4L866.52,332.13L865.03,337.35L864.28,341.08L863.53,344.07L862.79,347.06L862.04,350.04L861.29,353.77L860.55,356.01L859.8,358.25L857.56,365.71L856.82,367.21L856.07,367.95L855.32,372.43L854.58,375.42L853.83,378.4L852.34,382.88L850.85,386.61L849.35,389.6L847.86,394.08L847.11,397.06L845.62,400.79L844.13,403.78L842.64,407.51L841.89,410.5L840.4,414.23L838.16,416.47L837.41,419.45L835.17,423.18L834.43,426.17L833.68,429.15L832.93,432.14L832.19,434.38L832.19,437.36L830.69,441.84L830.69,445.57L829.95,447.81L829.2,451.55L828.45,455.28L828.45,458.26L827.71,461.25L826.96,464.98L826.22,467.97L824.72,472.44L823.98,476.17L822.48,479.91L820.99,484.38L819.5,488.12L818.75,490.36L818.01,492.59L816.51,495.58L815.02,497.82L812.78,501.55L811.29,504.54L809.8,507.52L806.81,512L804.57,514.99L802.33,517.97L800.09,520.96L797.85,524.69L794.87,528.42L792.63,531.41L790.39,533.64L788.9,535.88L785.91,539.62L783.67,542.6L781.43,544.84L779.2,547.83L777.7,550.81L770.24,559.02L769.49,559.02L766.51,560.51L764.27,562.01L760.54,563.5L758.3,564.99L756.06,564.99L753.07,564.99L750.09,565.74L745.61,565.74L742.62,566.48L738.89,567.23L735.16,568.72L731.43,569.47L728.44,570.22L725.46,570.96L722.47,571.71L719.49,573.2L715.01,573.95L712.77,574.69L709.78,574.69L706.05,575.44L703.07,575.44L699.34,574.69L697.1,574.69L694.11,574.69L691.87,574.69L687.39,574.69L684.41,574.69L681.42,573.95L677.69,573.95L673.21,573.2L669.48,573.2L665.75,573.2L662.02,573.2L657.54,573.2L651.57,573.2L646.34,573.95L641.87,573.95L637.39,574.69L629.92,575.44L625.45,575.44L620.97,575.44L615.74,574.69L610.52,574.69L603.06,573.95L597.83,573.2L592.61,572.45L583.65,570.96L576.93,570.96L570.96,570.96L564.99,570.96L559.02,571.71L553.05,572.45L544.84,572.45L539.62,573.2L532.9,573.95L526.93,574.69L517.22,575.44L503.79,576.19L500.8,576.19L495.58,576.19L487.37,575.44L482.15,576.19L477.67,576.19L473.19,576.19L467.97,574.69L463.49,573.95L459.76,572.45L455.28,572.45L450.8,571.71L444.08,571.71L438.86,570.96L434.38,569.47L429.15,568.72L420.94,567.23L415.72,566.48L410.5,564.99L406.02,563.5L400.79,562.01L394.82,561.26L390.34,561.26L386.61,561.26L382.88,561.26L378.4,561.26L375.42,562.01L371.69,563.5L368.7,564.99L365.71,566.48L360.49,568.72L357.5,570.96L353.77,572.45L350.04,574.69L344.07,576.93L339.59,578.43L335.11,580.66L330.64,582.9L325.41,585.89L318.69,590.37L311.98,595.59L306.01,598.58L301.53,601.56L294.06,606.04L288.84,609.03L283.62,612.01L279.14,615L273.91,617.98L266.45,622.46L261.97,625.45L257.49,629.18L253.76,632.91L247.79,638.13L244.06,641.12L240.33,644.1L235.85,647.84L232.12,652.31L226.15,659.03L222.41,662.76L211.22,676.2L208.23,680.68L205.25,685.9L200.77,691.87L197.04,697.84L194.05,703.07L191.07,709.04L187.34,717.99L185.84,725.46L184.35,731.43L183.6,734.41" fill="none" stroke="#000000" style="-webkit-tap-highlight-color: rgba(0, 0, 0, 0); stroke-linecap: round; stroke-linejoin: round; stroke-width: 5;" /><path d="M908.31,142.55L907.57,138.82L907.57,136.58L909.06,135.09L912.05,134.34L916.52,133.6L921,132.85L926.23,132.1L934.44,129.87L939.66,128.37L945.63,128.37L950.86,128.37L961.31,127.63L963.55,126.88L967.28,126.13L969.52,123.9L971.01,121.66L973.25,117.92L974.74,115.69L976.23,113.45L976.98,109.71L976.23,106.73L975.49,103L973.25,100.01L971.01,97.03L968.02,92.55L962.05,86.58L958.32,82.1L954.59,78.37L949.36,71.65L946.38,67.92L941.9,64.19L935.18,61.95" fill="none" stroke="#000000" style="-webkit-tap-highlight-color: rgba(0, 0, 0, 0); stroke-linecap: round; stroke-linejoin: round; stroke-width: 5;" /><path d="M510.51,48.51L510.51,47.77L509.76,47.77L509.01,48.51L507.52,49.26L506.03,50.75L504.54,52.24L502.3,55.23L500.8,58.22L496.33,64.19L494.09,67.17L491.85,69.41L488.86,71.65L485.13,74.64L482.15,77.62L478.41,81.35L474.68,84.34L470.95,88.07L463.49,94.79L459.01,98.52L454.53,101.5L450.8,104.49L447.07,106.73L444.08,108.97L440.35,111.21L437.36,113.45L434.38,114.94L428.41,117.92L425.42,118.67L422.44,120.16L418.71,120.91L414.97,122.4L411.24,123.15L407.51,124.64L403.03,125.39L398.55,126.13L394.08,126.88L385.87,127.63L380.64,127.63L376.16,128.37L371.69,129.87L367.21,131.36L361.98,132.1L357.5,132.85L353.03,133.6L347.8,134.34L338.85,135.84L334.37,138.08L330.64,140.31L326.9,142.55L323.17,144.79L318.69,146.29L314.96,147.78L311.23,149.27L308.24,151.51L301.53,156.73L297.8,158.23L294.06,160.47L290.33,161.96L287.35,163.45L284.36,165.69L281.38,167.93L279.14,170.17L276.15,172.41L271.67,176.89L270.18,179.13L267.94,181.36L264.96,184.35L262.72,186.59L259.73,188.08L256.75,190.32L253.76,191.81L250.78,193.31L244.06,197.04L240.33,198.53L236.59,200.77L232.86,202.26L229.88,203.76L226.89,205.25L223.16,205.99L219.43,208.23L216.44,209.73L210.47,211.97L206.74,212.71L203.01,214.95L198.53,216.44L194.8,217.94L190.32,219.43L187.34,220.92L183.6,220.92L179.87,220.92L176.14,220.92L167.18,221.67L161.96,221.67L156.73,222.41L151.51,223.16L145.54,224.65L139.57,225.4L133.6,226.89L126.13,227.64L117.92,229.13L98.52,233.61L93.29,235.85L75.38,241.07" fill="none" stroke="#000000" style="-webkit-tap-highlight-color: rgba(0, 0, 0, 0); stroke-linecap: round; stroke-linejoin: round; stroke-width: 5;" /><path d="M429.9,120.91L432.14,120.16L438.86,120.91L444.08,120.91L449.31,120.91L456.02,120.16L461.99,120.16L468.71,120.91L476.17,120.91L482.89,120.16L488.86,119.42L494.83,119.42L500.8,120.16L511.25,120.16L517.22,120.16L521.7,120.16L526.18,120.16L531.41,120.91L535.88,120.91L541.11,120.91L545.59,121.66L559.02,124.64L564.24,126.13L569.47,126.88L573.95,126.88" fill="none" stroke="#000000" style="-webkit-tap-highlight-color: rgba(0, 0, 0, 0); stroke-linecap: round; stroke-linejoin: round; stroke-width: 5;" /><path d="M265.7,202.26L264.21,202.26L260.48,203.01L259.73,203.01L259.73,202.26L261.22,200.77L264.21,200.02L267.94,197.78L276.15,194.8L279.88,192.56L282.87,191.07L286.6,188.83L291.08,186.59L295.56,183.6L300.78,181.36L306.01,179.13L311.98,177.63L317.95,176.14L330.64,173.9L336.61,171.66L342.58,170.17L347.8,168.68L353.03,167.18L358.25,165.69L364.22,164.2L370.19,163.45L376.16,161.96L386.61,158.97L392.58,157.48L400.05,155.99L407.51,154.5L414.97,153.75L422.44,151.51L429.15,149.27L437.36,147.78L451.55,144.79L458.26,143.3L464.98,141.81L470.95,141.06L476.92,140.31L482.89,139.57L488.86,139.57L494.83,139.57L500.06,139.57L509.76,140.31L514.24,140.31L518.72,141.06L522.45,141.06L526.93,141.06L531.41,141.06L536.63,141.81L541.11,142.55L546.33,142.55" fill="none" stroke="#000000" style="-webkit-tap-highlight-color: rgba(0, 0, 0, 0); stroke-linecap: round; stroke-linejoin: round; stroke-width: 5;" /><path d="M141.06,330.64L139.57,330.64L138.08,330.64L135.09,330.64L132.85,330.64L129.87,330.64L126.13,332.13L123.15,334.37L114.94,340.34L111.21,344.07L107.48,347.8L103.74,352.28L100.01,356.01L97.03,361.24L93.29,366.46L90.31,372.43L88.07,377.66L83.59,386.61L82.1,391.09L81.35,397.06L80.61,402.29L79.11,407.51L78.37,412.73L77.62,417.21L76.87,421.69L76.13,426.17L75.38,435.87L74.64,440.35L73.89,445.57L73.89,450.8L73.89,454.53L73.89,459.01L73.89,463.49L73.14,468.71L73.14,473.94L73.14,482.15L73.14,485.13L73.89,486.62L73.89,487.37" fill="none" stroke="#000000" style="-webkit-tap-highlight-color: rgba(0, 0, 0, 0); stroke-linecap: round; stroke-linejoin: round; stroke-width: 5;" /><path d="M122.4,332.87L123.15,332.87L126.13,330.64L129.87,329.14L137.33,325.41L141.06,323.92L144.79,323.17L149.27,322.43L153,322.43L156.73,323.17L160.47,323.17L164.2,323.17L167.18,323.17L173.9,325.41L176.89,326.16L179.87,326.9L182.86,327.65L185.84,328.4L188.83,329.89L191.07,332.13L193.31,334.37L194.8,335.86L197.78,339.59L198.53,341.83L200.02,344.82L200.77,348.55L201.52,352.28L201.52,355.27L202.26,358.25L203.01,361.24L203.76,364.22L204.5,370.94L204.5,373.92L204.5,376.91L205.25,379.9L205.25,383.63L205.25,386.61L205.99,390.34L205.99,394.08L206.74,397.81L205.99,404.52L205.99,407.51L205.25,410.5L205.25,414.23L204.5,417.96L203.01,421.69L202.26,426.17L202.26,430.65L200.77,435.13L200.77,440.35L200.02,443.34L201.52,444.83" fill="none" stroke="#000000" style="-webkit-tap-highlight-color: rgba(0, 0, 0, 0); stroke-linecap: round; stroke-linejoin: round; stroke-width: 5;" /><path d="M707.55,123.9L709.78,122.4L717.99,121.66L723.97,122.4L732.17,123.15L744.12,123.15L758.3,123.9L773.97,124.64L790.39,125.39L806.06,126.13L818.75,126.88L831.44,127.63L835.92,127.63" fill="none" stroke="#000000" style="-webkit-tap-highlight-color: rgba(0, 0, 0, 0); stroke-linecap: round; stroke-linejoin: round; stroke-width: 5;" /><path d="M709.04,129.87L708.29,129.87L707.55,129.87L708.29,130.61L712.77,131.36L720.23,132.1L732.17,132.1L747.1,132.1L782.18,131.36L800.09,131.36L815.77,132.1L829.95,133.6L835.17,134.34L845.62,136.58" fill="none" stroke="#000000" style="-webkit-tap-highlight-color: rgba(0, 0, 0, 0); stroke-linecap: round; stroke-linejoin: round; stroke-width: 5;" /><path d="M721.73,141.81L721.73,142.55L726.95,144.05L735.91,144.79L768,144.05L788.9,143.3L810.54,143.3L831.44,144.05L851.59,144.79L868.01,146.29L879.21,147.03L885.92,148.52L885.18,148.52L879.95,148.52" fill="none" stroke="#000000" style="-webkit-tap-highlight-color: rgba(0, 0, 0, 0); stroke-linecap: round; stroke-linejoin: round; stroke-width: 5;" /><path d="M729.94,147.03L728.44,147.03L724.71,146.29L734.41,148.52L750.83,150.76L772.48,152.26L797.11,153.75L821.74,155.99L846.37,158.23L869.5,161.21L888.16,161.96L901.6,162.71L907.57,162.71L902.34,161.96L900.1,161.96" fill="none" stroke="#000000" style="-webkit-tap-highlight-color: rgba(0, 0, 0, 0); stroke-linecap: round; stroke-linejoin: round; stroke-width: 5;" /><path d="M735.91,158.23L722.47,155.24L718.74,155.99L720.23,157.48L728.44,158.97L744.86,160.47L792.63,161.21L805.32,161.96L830.69,162.71L851.59,164.2L865.77,164.94L872.49,165.69L872.49,165.69" fill="none" stroke="#000000" style="-webkit-tap-highlight-color: rgba(0, 0, 0, 0); stroke-linecap: round; stroke-linejoin: round; stroke-width: 5;" /><path d="M732.92,173.15L732.17,173.15L741.13,173.9L757.55,173.9L791.88,174.65L816.51,175.39L841.14,176.89L864.28,178.38L883.69,179.87L898.61,180.62L906.82,180.62L907.57,180.62" fill="none" stroke="#000000" style="-webkit-tap-highlight-color: rgba(0, 0, 0, 0); stroke-linecap: round; stroke-linejoin: round; stroke-width: 5;" /><path d="M753.07,184.35L756.8,184.35L766.51,185.1L781.43,184.35L812.03,184.35L834.43,184.35L855.32,185.84L872.49,186.59L885.18,188.08L890.4,188.83" fill="none" stroke="#000000" style="-webkit-tap-highlight-color: rgba(0, 0, 0, 0); stroke-linecap: round; stroke-linejoin: round; stroke-width: 5;" /><path d="M739.64,191.07L738.89,190.32L741.88,190.32L751.58,191.81L765.76,192.56L794.87,194.8L817.26,195.55L841.14,197.78L862.04,199.28L879.21,200.77L890.4,200.77L894.13,200.77" fill="none" stroke="#000000" style="-webkit-tap-highlight-color: rgba(0, 0, 0, 0); stroke-linecap: round; stroke-linejoin: round; stroke-width: 5;" /><path d="M741.13,207.49L745.61,207.49L756.8,208.23L773.97,209.73L806.81,210.47L830.69,211.97L855.32,212.71L877.71,212.71L894.13,213.46L897.12,213.46" fill="none" stroke="#000000" style="-webkit-tap-highlight-color: rgba(0, 0, 0, 0); stroke-linecap: round; stroke-linejoin: round; stroke-width: 5;" /><path d="M757.55,221.67L759.79,221.67L775.46,222.41L792.63,223.91L821.74,225.4L841.89,226.89L861.29,227.64L876.97,228.38L887.42,229.13L891.9,229.13L888.91,228.38" fill="none" stroke="#000000" style="-webkit-tap-highlight-color: rgba(0, 0, 0, 0); stroke-linecap: round; stroke-linejoin: round; stroke-width: 5;" /><path d="M776.21,227.64L766.51,227.64L762.78,228.38L766.51,229.13L776.96,229.88L792.63,231.37L812.03,232.86L844.13,235.1L865.03,235.85L882.19,237.34L889.66,238.09" fill="none" stroke="#000000" style="-webkit-tap-highlight-color: rgba(0, 0, 0, 0); stroke-linecap: round; stroke-linejoin: round; stroke-width: 5;" /><path d="M762.78,256L767.25,256.75L784.42,258.99L800.09,261.22L819.5,262.72L840.4,263.46L867.27,264.96L879.21,266.45L882.94,266.45" fill="none" stroke="#000000" style="-webkit-tap-highlight-color: rgba(0, 0, 0, 0); stroke-linecap: round; stroke-linejoin: round; stroke-width: 5;" /><path d="M770.24,274.66L770.99,274.66L776.96,275.41L787.41,276.9L803.08,277.64L821.74,279.14L841.14,279.88L858.31,279.88L873.24,280.63" fill="none" stroke="#000000" style="-webkit-tap-highlight-color: rgba(0, 0, 0, 0); stroke-linecap: round; stroke-linejoin: round; stroke-width: 5;" /><path d="M785.17,292.57L788.9,294.06L791.88,294.81L815.02,297.8L829.95,300.03L847.86,301.53" fill="none" stroke="#000000" style="-webkit-tap-highlight-color: rgba(0, 0, 0, 0); stroke-linecap: round; stroke-linejoin: round; stroke-width: 5;" /><path d="M782.18,312.72L782.93,311.98L788.9,314.22L798.6,315.71L818.75,318.69L826.22,319.44L839.65,320.19L845.62,320.93" fill="none" stroke="#000000" style="-webkit-tap-highlight-color: rgba(0, 0, 0, 0); stroke-linecap: round; stroke-linejoin: round; stroke-width: 5;" /><path d="M797.11,329.89L798.6,330.64L801.59,331.38L814.27,335.86L825.47,338.85L837.41,341.08L853.08,344.82" fill="none" stroke="#000000" style="-webkit-tap-highlight-color: rgba(0, 0, 0, 0); stroke-linecap: round; stroke-linejoin: round; stroke-width: 5;" /><path d="M691.87,350.79L692.62,350.79L694.86,351.53L709.78,353.03L733.67,354.52L753.82,355.27L774.72,357.5L785.17,358.25L812.03,361.24L826.96,363.48" fill="none" stroke="#000000" style="-webkit-tap-highlight-color: rgba(0, 0, 0, 0); stroke-linecap: round; stroke-linejoin: round; stroke-width: 5;" /><path d="M612.01,359.74L626.94,360.49L641.12,360.49L659.03,361.24L679.93,362.73L714.26,364.97L738.15,367.95L761.28,369.45L783.67,371.69L803.08,373.92L817.26,376.16L825.47,378.4L826.96,379.15" fill="none" stroke="#000000" style="-webkit-tap-highlight-color: rgba(0, 0, 0, 0); stroke-linecap: round; stroke-linejoin: round; stroke-width: 5;" /><path d="M596.34,389.6L600.07,390.34L628.43,391.84L652.31,392.58L680.68,393.33L726.95,395.57L758.3,397.81L785.17,400.05L795.62,401.54L812.03,403.03L820.24,405.27L817.26,407.51" fill="none" stroke="#000000" style="-webkit-tap-highlight-color: rgba(0, 0, 0, 0); stroke-linecap: round; stroke-linejoin: round; stroke-width: 5;" /><path d="M577.68,390.34L583.65,393.33L596.34,395.57L615.74,397.81L641.12,399.3L686.65,401.54L717.25,402.29L744.86,403.78L784.42,406.02L792.63,406.76L794.12,406.76" fill="none" stroke="#000000" style="-webkit-tap-highlight-color: rgba(0, 0, 0, 0); stroke-linecap: round; stroke-linejoin: round; stroke-width: 5;" /><path d="M590.37,411.24L597.08,411.24L620.97,411.99L644.1,412.73L671.72,412.73L699.34,414.23L726.2,415.72L752.33,417.21L776.21,417.96L781.43,417.96" fill="none" stroke="#000000" style="-webkit-tap-highlight-color: rgba(0, 0, 0, 0); stroke-linecap: round; stroke-linejoin: round; stroke-width: 5;" /><path d="M549.32,423.18L551.56,423.18L576.19,423.18L599.32,423.18L642.61,423.93L675.45,424.68L707.55,426.17L723.22,426.92L751.58,428.41L781.43,432.14" fill="none" stroke="#000000" style="-webkit-tap-highlight-color: rgba(0, 0, 0, 0); stroke-linecap: round; stroke-linejoin: round; stroke-width: 5;" /><path d="M526.93,434.38L529.91,434.38L534.39,434.38L569.47,436.62L596.34,437.36L625.45,438.86L656.79,440.35L685.15,441.84L709.04,443.34L735.16,446.32" fill="none" stroke="#000000" style="-webkit-tap-highlight-color: rgba(0, 0, 0, 0); stroke-linecap: round; stroke-linejoin: round; stroke-width: 5;" /><path d="M509.76,465.73L519.46,464.98L536.63,464.23L559.02,462.74L601.56,459.76L632.91,459.01L680.68,457.52" fill="none" stroke="#000000" style="-webkit-tap-highlight-color: rgba(0, 0, 0, 0); stroke-linecap: round; stroke-linejoin: round; stroke-width: 5;" /><path d="M735.16,458.26L772.48,460.5L782.93,461.99L789.64,463.49L792.63,464.23L793.38,464.23" fill="none" stroke="#000000" style="-webkit-tap-highlight-color: rgba(0, 0, 0, 0); stroke-linecap: round; stroke-linejoin: round; stroke-width: 5;" /><path d="M513.49,479.91L518.72,479.91L535.14,479.91L551.56,479.16L571.71,478.41L596.34,477.67L638.88,474.68L670.23,472.44L699.34,470.95L723.97,470.2L742.62,470.2L745.61,470.95" fill="none" stroke="#000000" style="-webkit-tap-highlight-color: rgba(0, 0, 0, 0); stroke-linecap: round; stroke-linejoin: round; stroke-width: 5;" /><path d="M445.57,505.28L456.02,503.04L470.95,501.55L504.54,497.82L532.9,494.83L564.24,492.59L597.08,488.86L647.09,485.88L679.93,483.64L710.53,481.4L737.4,480.65L768,479.91L778.45,481.4L781.43,482.15L781.43,482.89" fill="none" stroke="#000000" style="-webkit-tap-highlight-color: rgba(0, 0, 0, 0); stroke-linecap: round; stroke-linejoin: round; stroke-width: 5;" /><path d="M462.74,518.72L463.49,519.46L466.47,520.21L474.68,520.96L485.13,520.21L508.27,517.22L528.42,514.99L549.32,512L571.71,511.25L596.34,509.76L619.48,509.76L650.08,511.25L665,511.25L671.72,512L682.17,512L690.38,512L698.59,511.25" fill="none" stroke="#000000" style="-webkit-tap-highlight-color: rgba(0, 0, 0, 0); stroke-linecap: round; stroke-linejoin: round; stroke-width: 5;" /><path d="M425.42,549.32L429.9,548.57L441.84,547.08L453.04,547.08L467.22,546.33L484.38,544.84L514.24,541.11L547.08,536.63L557.53,535.88L579.17,532.9L597.83,531.41L615,530.66L636.64,529.91L650.08,528.42L662.76,527.67L680.68,525.43L691.13,523.94L698.59,523.2L704.56,522.45" fill="none" stroke="#000000" style="-webkit-tap-highlight-color: rgba(0, 0, 0, 0); stroke-linecap: round; stroke-linejoin: round; stroke-width: 5;" /><path d="M537.38,574.69L541.85,573.95L550.06,571.71L561.26,568.72L572.45,564.99L585.14,561.26L600.82,556.03L617.24,550.06L643.36,541.11L660.52,536.63L675.45,532.9L688.14,530.66L693.36,530.66L705.31,529.17" fill="none" stroke="#000000" style="-webkit-tap-highlight-color: rgba(0, 0, 0, 0); stroke-linecap: round; stroke-linejoin: round; stroke-width: 5;" /><path d="M641.12,563.5L641.12,562.75L643.36,561.26" fill="none" stroke="#000000" style="-webkit-tap-highlight-color: rgba(0, 0, 0, 0); stroke-linecap: round; stroke-linejoin: round; stroke-width: 5;" /><path d="M653.06,560.51L658.29,558.27L662.76,556.78L667.24,553.8L673.21,550.06L682.92,543.35L684.41,541.85" fill="none" stroke="#000000" style="-webkit-tap-highlight-color: rgba(0, 0, 0, 0); stroke-linecap: round; stroke-linejoin: round; stroke-width: 5;" /><path d="M722.47,170.17L723.22,168.68L722.47,168.68L721.73,168.68L720.23,169.42L719.49,170.17L718.74,170.92L718.74,172.41L718.74,173.15L719.49,176.89L720.23,179.87L720.98,182.86L723.22,191.07L724.71,195.55L725.46,197.78L726.95,202.26L728.44,206.74L730.68,212.71L732.17,216.44L733.67,220.17L735.16,224.65L737.4,229.88L739.64,232.86L741.88,235.85L744.12,238.09L747.1,241.07L750.83,246.3L752.33,249.28L754.57,253.76L756.8,257.49L759.79,262.72L762.03,265.7L763.52,269.43L765.01,272.42L766.51,276.15L768.75,282.12L770.24,287.35L771.73,291.08L773.22,296.3L775.46,302.27L776.96,306.01L778.45,309.74L779.2,312.72L779.94,316.45L781.43,321.68L781.43,324.66L782.18,327.65L782.93,330.64L785.17,335.86L785.17,339.59L785.91,343.32L785.91,347.8L785.91,351.53L785.91,359" fill="none" stroke="#000000" style="-webkit-tap-highlight-color: rgba(0, 0, 0, 0); stroke-linecap: round; stroke-linejoin: round; stroke-width: 5;" /></svg>