<?xml version="1.0" encoding="utf-8" ?>
<svg baseProfile="full" height="737" version="1.1" width="1024" xmlns="http://www.w3.org/2000/svg" xmlns:ev="http://www.w3.org/2001/xml-events" xmlns:xlink="http://www.w3.org/1999/xlink"><defs /><path d="M9.18,519.34L5.51,521.18L3.67,521.18L3.67,523.01L3.67,524.85L3.67,526.68L5.51,526.68L7.34,526.68L11.01,524.85L16.52,521.18L22.02,519.34L29.36,515.67L34.87,512L40.37,510.16L45.88,508.33L51.38,506.49L55.05,504.66L60.56,502.82L64.23,500.99L69.73,499.15L73.41,499.15L77.08,497.32L82.58,495.48L86.25,493.65L91.76,491.81L95.43,489.98L100.93,488.14L104.6,488.14L108.27,486.31L111.94,484.47L115.61,482.64L121.12,480.8L124.79,478.97L130.29,478.97L133.96,477.13L137.63,475.3L143.14,473.46L146.81,471.63L159.66,467.96L167,466.12L172.5,464.29L179.84,462.45L183.51,462.45L189.02,460.62L192.69,460.62L198.19,458.78L201.86,458.78L205.53,456.95L209.2,456.95L212.87,455.11L214.71,455.11L216.54,455.11L218.38,453.28L222.05,453.28L223.89,451.44L225.72,451.44L227.56,449.61L231.23,449.61L233.06,449.61L236.73,447.77L238.57,447.77L240.4,447.77L244.07,445.94L245.91,445.94L249.58,445.94L251.41,445.94L253.25,444.1L256.92,444.1L260.59,442.27L262.42,442.27L266.09,440.43L271.6,440.43L275.27,438.59L280.77,436.76L288.11,434.92L295.46,433.09L302.8,431.25L310.14,429.42L315.64,427.58L322.98,425.75L330.32,423.91L335.83,420.24L341.33,418.41L346.84,414.74L352.34,412.9L357.85,411.07L361.52,409.23L367.03,407.4L370.7,405.56L374.37,403.73L378.04,401.89L383.54,400.06L387.21,398.22L392.72,396.39L398.22,394.55L403.73,392.72L409.23,389.05L418.41,385.38L423.91,381.71L429.42,379.87L438.59,376.2L445.94,374.37L453.28,370.7L458.78,367.03L464.29,363.35L471.63,361.52L477.13,357.85L482.64,354.18L486.31,352.34L489.98,350.51L493.65,348.67L499.15,346.84L502.82,345L506.49,345L510.16,343.17L512,341.33L515.67,337.66L519.34,335.83L523.01,333.99L528.52,332.16L532.19,328.49L534.02,326.65L537.69,324.82L541.36,321.15L545.03,319.31L548.7,317.48L550.54,315.64L552.37,313.81L554.21,311.97L556.04,311.97L557.88,310.14L561.55,308.3L561.55,306.47L563.38,304.63L565.22,302.8L568.89,300.96L570.72,299.13L572.56,297.29L576.23,293.62L578.06,289.95L581.73,286.28L585.41,282.61L589.08,278.94L592.75,275.27L596.42,271.6L600.09,267.93L603.76,264.26L607.43,260.59L611.1,256.92L614.77,255.08L616.6,251.41L620.27,247.74L622.11,244.07L625.78,242.24L629.45,238.57L631.28,234.9L636.79,231.23L638.62,229.39L640.46,227.56L642.29,223.89L644.13,222.05L645.96,218.38L647.8,216.54L649.63,214.71L649.63,212.87L651.47,209.2L653.3,207.37L655.14,203.7L656.97,200.03L658.81,198.19L658.81,196.36L660.65,192.69L662.48,189.02L662.48,185.35L664.32,179.84L666.15,176.17L667.99,172.5L671.66,168.83L671.66,165.16L673.49,161.49L675.33,155.99L679,152.32L680.83,146.81L682.67,143.14L684.5,141.3L684.5,139.47L686.34,135.8L686.34,132.13L688.17,128.46L690.01,124.79L690.01,121.12L691.84,119.28L691.84,117.45" fill="none" stroke="#000000" style="-webkit-tap-highlight-color: rgba(0, 0, 0, 0); stroke-linecap: round; stroke-linejoin: round; stroke-width: 5;" /><path d="M723.04,117.45L721.2,115.61L721.2,113.78L721.2,115.61L723.04,117.45L724.87,121.12L726.71,126.62L726.71,130.29L726.71,133.96L726.71,135.8L726.71,137.63L726.71,141.3L726.71,143.14L726.71,146.81L726.71,150.48L726.71,152.32L724.87,155.99L723.04,157.82L721.2,161.49L721.2,165.16L721.2,168.83L719.37,172.5L717.53,176.17L715.7,178.01L713.86,181.68L712.03,183.51L708.36,185.35L702.85,189.02L699.18,192.69L695.51,196.36L691.84,200.03L688.17,203.7L684.5,205.53L680.83,209.2L677.16,212.87L675.33,216.54L671.66,218.38L669.82,222.05L666.15,225.72L664.32,227.56L662.48,231.23L660.65,234.9L656.97,236.73L655.14,238.57L653.3,242.24L651.47,244.07L645.96,255.08L644.13,256.92L642.29,260.59L638.62,262.42L636.79,266.09L634.95,269.76L631.28,271.6L629.45,275.27L625.78,277.1L623.94,280.77L620.27,284.44L616.6,288.11L612.93,289.95L611.1,293.62L607.43,297.29L605.59,299.13L603.76,302.8L600.09,304.63L598.25,308.3L594.58,311.97L592.75,313.81L589.08,317.48L585.41,321.15L581.73,324.82L578.06,326.65L574.39,330.32L570.72,333.99L567.05,337.66L565.22,341.33L559.71,345L556.04,346.84L552.37,350.51L546.87,354.18L541.36,357.85L535.86,363.35L532.19,368.86L524.85,372.53L519.34,378.04L513.84,383.54L508.33,387.21L502.82,392.72L497.32,398.22L491.81,403.73L488.14,409.23L482.64,414.74L477.13,420.24L473.46,425.75L469.79,431.25L466.12,436.76L462.45,444.1L458.78,449.61L455.11,456.95L449.61,462.45L445.94,469.79L440.43,475.3L436.76,482.64L433.09,489.98L427.58,497.32L407.4,524.85L400.06,534.02L394.55,541.36L390.88,546.87L389.05,554.21L387.21,559.71L387.21,565.22L387.21,568.89" fill="none" stroke="#000000" style="-webkit-tap-highlight-color: rgba(0, 0, 0, 0); stroke-linecap: round; stroke-linejoin: round; stroke-width: 5;" /><path d="M904.72,148.65L901.05,148.65L901.05,150.48L901.05,154.15L902.88,155.99L904.72,161.49L908.39,165.16L910.22,170.67L915.73,174.34L919.4,176.17L923.07,179.84L924.9,183.51L926.74,187.18L928.57,192.69L930.41,196.36L932.24,201.86L934.08,205.53L935.91,211.04L935.91,214.71L935.91,220.22L935.91,223.89L935.91,225.72L934.08,229.39L932.24,233.06L930.41,236.73L928.57,240.4L926.74,244.07L923.07,247.74L921.23,253.25L917.56,256.92L913.89,262.42L910.22,267.93L906.55,275.27L902.88,278.94L899.21,284.44L897.38,288.11L895.54,289.95L893.71,293.62L891.87,295.46L890.04,299.13L886.37,304.63L884.53,308.3L882.7,313.81L880.86,317.48L880.86,321.15L880.86,322.98L879.03,326.65L877.19,330.32L875.35,335.83L873.52,339.5L871.68,343.17L869.85,345L868.01,348.67L866.18,354.18L862.51,357.85L860.67,363.35L860.67,370.7L858.84,376.2L858.84,381.71L857,385.38L855.17,389.05L853.33,392.72L851.5,398.22L851.5,401.89L849.66,405.56L847.83,411.07L845.99,416.57L844.16,423.91L842.32,429.42L842.32,434.92L840.49,438.59L838.65,444.1L836.82,451.44L834.98,456.95L833.15,462.45L829.48,469.79L825.81,475.3L822.14,480.8L818.47,488.14L814.8,495.48L811.13,500.99L807.46,506.49L803.78,510.16L798.28,517.51L792.77,524.85L789.1,530.35L783.6,535.86L778.09,541.36L774.42,545.03L768.92,546.87L765.25,550.54L761.58,552.37L757.91,556.04L754.24,559.71L748.73,561.55L743.23,565.22L735.89,568.89L726.71,572.56L719.37,578.06L713.86,581.73L712.03,583.57L713.86,583.57" fill="none" stroke="#000000" style="-webkit-tap-highlight-color: rgba(0, 0, 0, 0); stroke-linecap: round; stroke-linejoin: round; stroke-width: 5;" /><path d="M899.21,146.81L899.21,148.65L897.38,150.48L895.54,152.32L893.71,155.99L891.87,159.66L888.2,161.49L886.37,165.16L882.7,168.83L877.19,172.5L873.52,178.01L869.85,183.51L866.18,187.18L862.51,192.69L860.67,196.36L857,201.86L853.33,207.37L849.66,212.87L845.99,216.54L842.32,222.05L840.49,225.72L836.82,229.39L833.15,233.06L831.31,236.73L829.48,240.4L827.64,244.07L827.64,247.74L827.64,249.58L827.64,251.41L827.64,253.25L829.48,255.08L829.48,258.75L829.48,262.42L829.48,266.09L831.31,269.76L831.31,275.27L833.15,278.94L833.15,282.61L834.98,286.28L834.98,291.78L834.98,295.46L836.82,300.96L836.82,304.63L838.65,306.47L838.65,310.14L838.65,313.81L838.65,317.48L840.49,321.15L840.49,324.82L840.49,328.49L842.32,332.16L844.16,335.83L844.16,339.5L845.99,345L845.99,350.51L847.83,356.01L851.5,361.52L851.5,363.35" fill="none" stroke="#000000" style="-webkit-tap-highlight-color: rgba(0, 0, 0, 0); stroke-linecap: round; stroke-linejoin: round; stroke-width: 5;" /><path d="M730.38,132.13L728.54,132.13L726.71,132.13L728.54,133.96L726.71,133.96L726.71,132.13L724.87,133.96L724.87,135.8L724.87,137.63L726.71,141.3L726.71,146.81L726.71,154.15L726.71,161.49L726.71,168.83L728.54,176.17L730.38,181.68L732.22,185.35L734.05,190.85L734.05,196.36L734.05,203.7L734.05,209.2L735.89,212.87L737.72,216.54L737.72,220.22L739.56,223.89L741.39,227.56L743.23,231.23L743.23,234.9L745.06,238.57L746.9,242.24L748.73,245.91L750.57,249.58L752.4,255.08L756.07,258.75L757.91,264.26L759.74,271.6L763.41,275.27L765.25,278.94L767.08,282.61L768.92,286.28L770.75,289.95L772.59,293.62L774.42,297.29L776.26,300.96L778.09,304.63L779.93,308.3L779.93,311.97L781.76,315.64L783.6,321.15L785.43,324.82L787.27,330.32L789.1,333.99L790.94,337.66L792.77,341.33L796.44,345L798.28,346.84L798.28,350.51L800.11,354.18L801.95,356.01L803.78,359.68L805.62,361.52L807.46,365.19L807.46,368.86L809.29,370.7L809.29,372.53L811.13,376.2L811.13,379.87L812.96,381.71L812.96,383.54L812.96,385.38L814.8,387.21L814.8,389.05L812.96,392.72L811.13,396.39L811.13,400.06L809.29,403.73L809.29,405.56L807.46,409.23L805.62,412.9L801.95,416.57L800.11,420.24L798.28,422.08L798.28,423.91L796.44,425.75L794.61,429.42L790.94,434.92L789.1,440.43L785.43,444.1L783.6,445.94L781.76,447.77L779.93,451.44L778.09,455.11L776.26,456.95L774.42,458.78L774.42,460.62L772.59,462.45L770.75,464.29L768.92,467.96L767.08,469.79L765.25,471.63L763.41,471.63L761.58,473.46L759.74,473.46L757.91,475.3L756.07,478.97L754.24,480.8L752.4,482.64L750.57,484.47L746.9,486.31L745.06,486.31L741.39,488.14L739.56,491.81L735.89,493.65L735.89,495.48L734.05,497.32L734.05,499.15L732.22,500.99L732.22,504.66L732.22,508.33L732.22,512L730.38,515.67L730.38,521.18L728.54,530.35L724.87,539.53L721.2,552.37L721.2,563.38L723.04,565.22" fill="none" stroke="#000000" style="-webkit-tap-highlight-color: rgba(0, 0, 0, 0); stroke-linecap: round; stroke-linejoin: round; stroke-width: 5;" /><path d="M5.51,240.4L3.67,240.4L5.51,242.24L9.18,244.07L20.19,242.24L25.69,242.24L31.2,240.4L34.87,238.57L38.54,238.57L42.21,238.57L44.04,236.73L45.88,236.73L47.71,236.73L49.55,233.06L51.38,231.23L53.22,229.39L53.22,227.56L56.89,223.89L58.72,220.22L62.39,218.38L66.06,214.71L67.9,212.87L69.73,209.2L73.41,207.37L75.24,205.53L78.91,203.7L82.58,200.03L86.25,198.19L89.92,194.52L93.59,190.85L97.26,189.02L100.93,185.35L104.6,183.51L108.27,181.68L111.94,179.84L113.78,178.01L117.45,176.17L119.28,174.34L121.12,172.5L122.95,170.67L124.79,168.83L126.62,167L128.46,167L132.13,163.33L133.96,161.49L137.63,159.66L139.47,157.82L143.14,154.15L144.97,152.32L148.65,150.48L152.32,148.65L155.99,144.97L159.66,143.14L163.33,141.3L167,139.47L170.67,137.63L174.34,135.8L179.84,133.96L185.35,132.13L189.02,130.29L192.69,128.46L196.36,128.46L200.03,128.46L207.37,124.79L211.04,122.95L214.71,121.12L218.38,121.12L223.89,119.28L227.56,117.45L231.23,115.61L234.9,113.78L238.57,111.94L242.24,110.11L245.91,110.11L251.41,108.27L255.08,104.6L260.59,102.77L266.09,100.93L269.76,99.1L273.43,97.26L277.1,97.26L282.61,95.43L288.11,91.76L291.78,89.92L297.29,88.09L300.96,86.25L304.63,84.42L310.14,82.58L315.64,80.75L321.15,77.08L326.65,75.24L330.32,73.41L335.83,73.41L343.17,69.73L350.51,67.9L356.01,66.06L361.52,64.23L368.86,62.39L372.53,60.56L374.37,60.56L378.04,60.56L379.87,58.72L381.71,58.72L389.05,56.89L392.72,56.89L398.22,55.05L401.89,55.05L405.56,53.22L409.23,53.22L414.74,51.38L420.24,51.38L425.75,49.55L431.25,47.71L436.76,45.88L444.1,44.04L449.61,42.21L455.11,42.21L460.62,40.37L467.96,38.54L473.46,36.7L478.97,34.87L484.47,34.87L488.14,33.03L495.48,31.2L506.49,29.36L510.16,27.53L515.67,27.53L519.34,25.69L524.85,25.69L528.52,23.86L534.02,23.86L539.53,22.02L543.2,22.02L548.7,22.02L552.37,22.02L557.88,22.02L563.38,20.19L568.89,20.19L572.56,20.19L578.06,20.19L581.73,20.19L585.41,20.19L590.91,20.19L596.42,18.35L600.09,18.35L603.76,18.35L609.26,18.35L612.93,18.35L618.44,18.35L623.94,18.35L629.45,18.35L633.12,18.35L638.62,18.35L642.29,18.35L647.8,18.35L653.3,18.35L656.97,18.35L658.81,18.35L662.48,18.35L666.15,18.35L671.66,18.35L677.16,18.35L680.83,18.35L686.34,18.35L691.84,18.35L697.35,18.35L704.69,18.35L713.86,18.35L724.87,18.35L732.22,18.35L741.39,18.35L748.73,18.35L757.91,18.35L767.08,20.19L776.26,20.19L781.76,20.19L789.1,22.02L794.61,22.02L800.11,23.86L805.62,23.86L811.13,23.86L814.8,23.86L818.47,25.69L823.97,25.69L829.48,27.53L833.15,27.53L836.82,29.36L840.49,29.36L844.16,31.2L849.66,31.2L855.17,33.03L858.84,33.03L864.34,34.87L868.01,36.7L871.68,36.7L877.19,38.54L882.7,38.54L886.37,40.37L890.04,40.37L893.71,40.37L897.38,40.37L902.88,40.37L906.55,40.37L912.06,42.21L915.73,42.21L919.4,42.21L923.07,42.21L926.74,40.37L932.24,40.37L935.91,40.37L941.42,40.37L945.09,40.37L948.76,38.54L952.43,38.54L956.1,38.54L961.61,36.7L965.28,36.7L970.78,34.87L976.29,33.03L979.96,33.03L983.63,31.2L987.3,29.36L992.8,29.36L996.47,27.53L1000.14,27.53L1003.81,25.69L1009.32,22.02L1016.66,20.19" fill="none" stroke="#000000" style="-webkit-tap-highlight-color: rgba(0, 0, 0, 0); stroke-linecap: round; stroke-linejoin: round; stroke-width: 5;" /><path d="M532.19,25.69L532.19,23.86L528.52,29.36L526.68,34.87L523.01,38.54L521.18,42.21L519.34,45.88L515.67,49.55L513.84,51.38L512,55.05L508.33,58.72L504.66,62.39L502.82,66.06L499.15,69.73L497.32,73.41L493.65,77.08L489.98,80.75L488.14,84.42L484.47,88.09L482.64,89.92L478.97,93.59L477.13,95.43L475.3,97.26L473.46,99.1L469.79,102.77L467.96,104.6L466.12,106.44L464.29,110.11L462.45,111.94L460.62,113.78L458.78,113.78L456.95,115.61L455.11,115.61L451.44,117.45L449.61,117.45L445.94,117.45L444.1,119.28L442.27,119.28L440.43,119.28L436.76,121.12L434.92,121.12L431.25,122.95L427.58,122.95L423.91,124.79L422.08,124.79L418.41,126.62L414.74,126.62L411.07,128.46L409.23,128.46L405.56,128.46L403.73,130.29L400.06,130.29L396.39,132.13L392.72,132.13L389.05,133.96L385.38,133.96L379.87,135.8L374.37,137.63L368.86,139.47L365.19,141.3L361.52,141.3L356.01,143.14L350.51,144.97L346.84,146.81L341.33,148.65L337.66,150.48L333.99,150.48L332.16,150.48L328.49,152.32L324.82,152.32L322.98,154.15L319.31,155.99L313.81,157.82L310.14,159.66L304.63,159.66L299.13,161.49L295.46,163.33L293.62,165.16L289.95,167L286.28,168.83L280.77,170.67L275.27,172.5L269.76,176.17L264.26,178.01L260.59,179.84L258.75,181.68L256.92,183.51L253.25,185.35L251.41,187.18L247.74,190.85L244.07,192.69L240.4,194.52L236.73,196.36L233.06,198.19L227.56,200.03L223.89,201.86L222.05,203.7L218.38,205.53L216.54,205.53L212.87,207.37L209.2,207.37L205.53,209.2L203.7,209.2L200.03,211.04L196.36,212.87L192.69,212.87L189.02,214.71L183.51,214.71L179.84,216.54L176.17,216.54L170.67,218.38L167,218.38L161.49,220.22L157.82,220.22L154.15,222.05L148.65,222.05L143.14,222.05L139.47,222.05L133.96,223.89L130.29,223.89L126.62,225.72L122.95,225.72L117.45,225.72L111.94,225.72L108.27,225.72L104.6,227.56L100.93,227.56L97.26,227.56L93.59,227.56L89.92,227.56L86.25,227.56L82.58,227.56L78.91,225.72L75.24,225.72L71.57,223.89L66.06,223.89L62.39,223.89L56.89,223.89L53.22,223.89L49.55,223.89L51.38,223.89" fill="none" stroke="#000000" style="-webkit-tap-highlight-color: rgba(0, 0, 0, 0); stroke-linecap: round; stroke-linejoin: round; stroke-width: 5;" /><path d="M601.92,71.57L600.09,73.41L598.25,75.24L594.58,78.91L590.91,84.42L587.24,88.09L583.57,93.59L581.73,99.1L578.06,102.77L574.39,108.27L572.56,111.94L568.89,117.45L567.05,119.28L567.05,122.95L565.22,124.79L565.22,126.62L563.38,128.46L561.55,130.29L559.71,132.13L557.88,132.13L557.88,133.96L556.04,135.8L554.21,137.63L552.37,139.47L550.54,141.3L548.7,141.3L545.03,141.3L543.2,143.14L539.53,143.14L535.86,143.14L532.19,143.14L526.68,143.14L523.01,143.14L517.51,144.97L512,144.97L506.49,144.97L500.99,144.97L497.32,146.81L493.65,146.81L489.98,146.81L486.31,146.81L482.64,148.65L477.13,148.65L473.46,150.48L467.96,150.48L464.29,150.48L460.62,150.48L455.11,150.48L451.44,150.48L447.77,150.48L444.1,152.32L440.43,152.32L436.76,152.32L433.09,154.15L427.58,155.99L422.08,157.82L418.41,157.82L414.74,159.66L409.23,159.66L405.56,161.49L400.06,163.33L396.39,163.33L392.72,165.16L389.05,165.16L383.54,167L378.04,168.83L372.53,170.67L367.03,172.5L361.52,172.5L356.01,174.34L352.34,174.34L348.67,176.17L343.17,178.01L337.66,179.84L330.32,181.68L322.98,185.35L315.64,187.18L308.3,189.02L302.8,190.85L297.29,192.69L291.78,194.52L288.11,198.19L282.61,200.03L278.94,201.86L273.43,203.7L269.76,203.7L266.09,205.53L262.42,207.37L258.75,207.37L255.08,209.2L251.41,211.04L247.74,212.87L245.91,212.87L242.24,214.71L236.73,216.54L233.06,216.54L229.39,218.38L223.89,220.22L220.22,220.22L216.54,222.05L212.87,223.89L209.2,225.72L205.53,225.72L203.7,227.56L201.86,227.56L198.19,227.56L194.52,229.39L190.85,229.39L189.02,229.39L187.18,231.23L183.51,231.23L179.84,231.23L176.17,231.23L172.5,233.06L168.83,233.06L165.16,233.06L161.49,234.9L157.82,234.9L154.15,234.9L150.48,234.9L146.81,234.9L143.14,234.9L139.47,234.9L135.8,236.73L130.29,236.73L126.62,236.73L122.95,236.73L119.28,238.57L113.78,238.57L110.11,238.57L108.27,238.57L104.6,238.57L100.93,238.57L97.26,238.57L93.59,238.57L88.09,238.57L84.42,238.57L80.75,238.57L75.24,238.57L71.57,238.57L67.9,238.57L64.23,238.57L60.56,238.57L58.72,238.57L55.05,238.57L53.22,238.57L49.55,238.57L45.88,238.57L44.04,238.57L42.21,238.57L38.54,238.57L36.7,238.57L34.87,238.57L33.03,238.57L31.2,238.57L27.53,236.73L25.69,236.73L23.86,236.73L22.02,236.73L20.19,236.73L18.35,236.73L16.52,238.57L14.68,238.57L12.85,240.4L11.01,240.4L9.18,240.4L5.51,240.4L5.51,242.24L3.67,242.24L9.18,240.4" fill="none" stroke="#000000" style="-webkit-tap-highlight-color: rgba(0, 0, 0, 0); stroke-linecap: round; stroke-linejoin: round; stroke-width: 5;" /><path d="M229.39,223.89L227.56,223.89L229.39,223.89L231.23,223.89L234.9,223.89L236.73,223.89L242.24,223.89L245.91,222.05L249.58,222.05L251.41,222.05L255.08,220.22L258.75,220.22L262.42,220.22L266.09,220.22L269.76,218.38L273.43,218.38L277.1,218.38L278.94,218.38L284.44,218.38L289.95,218.38L295.46,216.54L300.96,216.54L304.63,216.54L310.14,216.54L317.48,214.71L324.82,214.71L330.32,214.71L337.66,214.71L343.17,214.71L348.67,214.71L354.18,212.87L361.52,212.87L367.03,212.87L372.53,211.04L379.87,211.04L385.38,211.04L390.88,209.2L398.22,209.2L405.56,209.2L412.9,209.2L418.41,207.37L423.91,207.37L429.42,207.37L434.92,207.37L440.43,207.37L445.94,205.53L453.28,205.53L458.78,205.53L464.29,203.7L469.79,203.7L475.3,201.86L480.8,201.86L486.31,201.86L489.98,200.03L495.48,200.03L500.99,198.19L504.66,198.19L510.16,196.36L513.84,196.36L517.51,194.52L521.18,194.52L526.68,194.52L530.35,194.52L534.02,192.69L535.86,192.69L537.69,192.69L541.36,192.69L543.2,192.69L545.03,192.69L546.87,192.69L548.7,192.69L550.54,192.69L552.37,192.69L554.21,192.69L556.04,194.52L557.88,196.36L557.88,198.19L559.71,200.03L559.71,201.86L561.55,205.53L561.55,207.37L561.55,211.04L561.55,212.87L563.38,216.54L563.38,220.22L563.38,222.05L563.38,225.72L563.38,229.39L563.38,233.06L563.38,236.73L563.38,240.4L565.22,244.07L565.22,247.74L565.22,249.58L565.22,253.25L565.22,256.92L565.22,258.75L565.22,260.59L565.22,264.26L565.22,267.93L565.22,271.6L565.22,275.27L565.22,278.94L565.22,282.61L565.22,286.28L565.22,289.95L565.22,293.62L567.05,295.46L567.05,300.96L567.05,302.8" fill="none" stroke="#000000" style="-webkit-tap-highlight-color: rgba(0, 0, 0, 0); stroke-linecap: round; stroke-linejoin: round; stroke-width: 5;" /><path d="M603.76,71.57L601.92,71.57L600.09,69.73L600.09,67.9L600.09,69.73L600.09,71.57L600.09,75.24L600.09,80.75L600.09,86.25L600.09,89.92L600.09,95.43L601.92,99.1L601.92,102.77L601.92,104.6L601.92,108.27L601.92,110.11L601.92,111.94L601.92,113.78L601.92,115.61L601.92,117.45L601.92,119.28L600.09,122.95L600.09,124.79L600.09,126.62L600.09,128.46L600.09,130.29L598.25,133.96" fill="none" stroke="#000000" style="-webkit-tap-highlight-color: rgba(0, 0, 0, 0); stroke-linecap: round; stroke-linejoin: round; stroke-width: 5;" /><path d="M574.39,148.65L578.06,146.81L581.73,144.97L585.41,143.14L590.91,141.3L594.58,137.63L598.25,133.96L600.09,132.13L603.76,132.13L607.43,130.29L609.26,130.29L612.93,128.46L614.77,126.62L618.44,124.79L620.27,124.79L622.11,122.95L623.94,122.95L625.78,121.12L629.45,121.12L631.28,119.28L633.12,117.45L634.95,117.45L636.79,115.61L638.62,115.61L640.46,115.61L642.29,115.61L644.13,115.61L645.96,115.61L647.8,115.61L649.63,115.61L651.47,115.61L653.3,115.61L656.97,115.61L658.81,117.45L662.48,117.45L666.15,117.45L669.82,119.28L671.66,119.28L675.33,119.28L677.16,119.28L680.83,119.28L684.5,119.28L688.17,119.28L691.84,119.28L693.68,119.28L697.35,117.45L701.02,117.45L704.69,117.45L708.36,117.45L712.03,117.45L719.37,113.78L721.2,113.78" fill="none" stroke="#000000" style="-webkit-tap-highlight-color: rgba(0, 0, 0, 0); stroke-linecap: round; stroke-linejoin: round; stroke-width: 5;" /><path d="M84.42,486.31L82.58,488.14L84.42,480.8L84.42,475.3L84.42,464.29L84.42,460.62L84.42,455.11L86.25,451.44L86.25,447.77L86.25,444.1L88.09,440.43L88.09,436.76L88.09,433.09L88.09,429.42L88.09,425.75L88.09,422.08L88.09,420.24L89.92,416.57L89.92,412.9L89.92,411.07L89.92,407.4L89.92,403.73L89.92,401.89L89.92,398.22L91.76,396.39L91.76,394.55L91.76,392.72L93.59,389.05L93.59,385.38L95.43,383.54L95.43,379.87L97.26,378.04L97.26,376.2L99.1,372.53L100.93,370.7L102.77,367.03L104.6,365.19L106.44,361.52L108.27,359.68L110.11,357.85L111.94,356.01L113.78,354.18L115.61,352.34L119.28,350.51L121.12,348.67L124.79,346.84L126.62,346.84L128.46,345L132.13,343.17L133.96,343.17L137.63,341.33L139.47,339.5L141.3,339.5L144.97,337.66L146.81,335.83L148.65,335.83L150.48,335.83L152.32,333.99L154.15,333.99L155.99,333.99L157.82,333.99L159.66,333.99L163.33,332.16L167,332.16L168.83,332.16L172.5,332.16L174.34,332.16L176.17,332.16L178.01,332.16L178.01,333.99L181.68,333.99L183.51,333.99L185.35,335.83L187.18,337.66L189.02,339.5L189.02,341.33L190.85,343.17L192.69,346.84L192.69,348.67L194.52,352.34L194.52,356.01L196.36,359.68L196.36,363.35L196.36,367.03L198.19,370.7L198.19,374.37L198.19,378.04L198.19,381.71L198.19,385.38L198.19,389.05L198.19,392.72L198.19,396.39L198.19,400.06L198.19,403.73L196.36,409.23L196.36,412.9L196.36,416.57L196.36,418.41L196.36,422.08L194.52,423.91L194.52,427.58L194.52,431.25L192.69,436.76L192.69,440.43L192.69,445.94L192.69,451.44L192.69,453.28L192.69,455.11L194.52,458.78" fill="none" stroke="#000000" style="-webkit-tap-highlight-color: rgba(0, 0, 0, 0); stroke-linecap: round; stroke-linejoin: round; stroke-width: 5;" /><path d="M713.86,121.12L712.03,121.12L710.19,121.12L710.19,119.28L712.03,117.45L715.7,115.61L721.2,115.61L726.71,115.61L735.89,115.61L748.73,113.78L761.58,113.78L772.59,111.94L781.76,111.94L790.94,111.94L801.95,110.11L811.13,108.27L820.3,106.44L827.64,106.44L829.48,108.27" fill="none" stroke="#000000" style="-webkit-tap-highlight-color: rgba(0, 0, 0, 0); stroke-linecap: round; stroke-linejoin: round; stroke-width: 5;" /><path d="M737.72,139.47L737.72,137.63L741.39,137.63L750.57,135.8L767.08,135.8L785.43,133.96L805.62,132.13L823.97,130.29L838.65,130.29L847.83,130.29L851.5,130.29L853.33,132.13L853.33,133.96" fill="none" stroke="#000000" style="-webkit-tap-highlight-color: rgba(0, 0, 0, 0); stroke-linecap: round; stroke-linejoin: round; stroke-width: 5;" /><path d="M726.71,154.15L724.87,152.32L724.87,150.48L728.54,150.48L735.89,150.48L746.9,150.48L759.74,150.48L776.26,148.65L798.28,146.81L818.47,146.81L834.98,144.97L847.83,144.97L857,144.97L862.51,144.97L866.18,144.97L869.85,144.97L873.52,144.97" fill="none" stroke="#000000" style="-webkit-tap-highlight-color: rgba(0, 0, 0, 0); stroke-linecap: round; stroke-linejoin: round; stroke-width: 5;" /><path d="M745.06,167L735.89,165.16L730.38,165.16L726.71,165.16L726.71,163.33L734.05,161.49L745.06,159.66L759.74,159.66L774.42,159.66L789.1,161.49L807.46,163.33L823.97,163.33L838.65,163.33L851.5,161.49L860.67,161.49L862.51,161.49L860.67,165.16" fill="none" stroke="#000000" style="-webkit-tap-highlight-color: rgba(0, 0, 0, 0); stroke-linecap: round; stroke-linejoin: round; stroke-width: 5;" /><path d="M726.71,194.52L721.2,190.85L719.37,189.02L719.37,187.18L723.04,185.35L728.54,185.35L737.72,187.18L750.57,189.02L772.59,189.02L796.44,185.35L816.63,183.51L831.31,181.68L842.32,181.68L849.66,181.68L853.33,179.84L855.17,179.84L857,181.68L853.33,181.68" fill="none" stroke="#000000" style="-webkit-tap-highlight-color: rgba(0, 0, 0, 0); stroke-linecap: round; stroke-linejoin: round; stroke-width: 5;" /><path d="M745.06,214.71L741.39,212.87L745.06,211.04L750.57,211.04L759.74,211.04L772.59,211.04L789.1,211.04L809.29,207.37L825.81,205.53L836.82,203.7L844.16,201.86L847.83,201.86L847.83,200.03L845.99,201.86" fill="none" stroke="#000000" style="-webkit-tap-highlight-color: rgba(0, 0, 0, 0); stroke-linecap: round; stroke-linejoin: round; stroke-width: 5;" /><path d="M745.06,244.07L741.39,242.24L745.06,240.4L752.4,236.73L761.58,236.73L776.26,236.73L790.94,236.73L807.46,234.9L820.3,233.06L827.64,233.06L829.48,233.06L827.64,236.73L825.81,236.73" fill="none" stroke="#000000" style="-webkit-tap-highlight-color: rgba(0, 0, 0, 0); stroke-linecap: round; stroke-linejoin: round; stroke-width: 5;" /><path d="M756.07,269.76L752.4,267.93L756.07,266.09L778.09,264.26L792.77,262.42L807.46,260.59L816.63,260.59L822.14,260.59L823.97,262.42" fill="none" stroke="#000000" style="-webkit-tap-highlight-color: rgba(0, 0, 0, 0); stroke-linecap: round; stroke-linejoin: round; stroke-width: 5;" /><path d="M765.25,291.78L759.74,291.78L761.58,291.78L770.75,289.95L787.27,288.11L803.78,286.28L818.47,284.44L827.64,284.44L831.31,284.44L829.48,286.28" fill="none" stroke="#000000" style="-webkit-tap-highlight-color: rgba(0, 0, 0, 0); stroke-linecap: round; stroke-linejoin: round; stroke-width: 5;" /><path d="M778.09,319.31L774.42,317.48L772.59,317.48L778.09,313.81L789.1,310.14L803.78,306.47L818.47,306.47L827.64,304.63L833.15,304.63L836.82,304.63L834.98,306.47" fill="none" stroke="#000000" style="-webkit-tap-highlight-color: rgba(0, 0, 0, 0); stroke-linecap: round; stroke-linejoin: round; stroke-width: 5;" /><path d="M798.28,330.32L792.77,332.16L790.94,332.16L801.95,328.49L814.8,322.98L827.64,321.15L833.15,322.98L834.98,324.82L834.98,326.65L833.15,328.49" fill="none" stroke="#000000" style="-webkit-tap-highlight-color: rgba(0, 0, 0, 0); stroke-linecap: round; stroke-linejoin: round; stroke-width: 5;" /><path d="M801.95,346.84L798.28,348.67L796.44,350.51L800.11,350.51L809.29,348.67L823.97,345L833.15,343.17L840.49,343.17L845.99,343.17L847.83,343.17L842.32,345L840.49,346.84" fill="none" stroke="#000000" style="-webkit-tap-highlight-color: rgba(0, 0, 0, 0); stroke-linecap: round; stroke-linejoin: round; stroke-width: 5;" /><path d="M805.62,370.7L803.78,370.7L811.13,370.7L823.97,367.03L836.82,365.19L847.83,365.19L857,365.19L864.34,363.35" fill="none" stroke="#000000" style="-webkit-tap-highlight-color: rgba(0, 0, 0, 0); stroke-linecap: round; stroke-linejoin: round; stroke-width: 5;" /><path d="M420.24,565.22L412.9,561.55L414.74,561.55L429.42,561.55L442.27,559.71L456.95,557.88L471.63,556.04L489.98,554.21L506.49,550.54L523.01,548.7L539.53,546.87L559.71,545.03L578.06,545.03L594.58,543.2L607.43,543.2L620.27,543.2L633.12,543.2L644.13,543.2L655.14,543.2L666.15,543.2L679,543.2L688.17,543.2L699.18,541.36L710.19,539.53L721.2,537.69L724.87,537.69" fill="none" stroke="#000000" style="-webkit-tap-highlight-color: rgba(0, 0, 0, 0); stroke-linecap: round; stroke-linejoin: round; stroke-width: 5;" /><path d="M429.42,537.69L427.58,537.69L423.91,534.02L431.25,532.19L440.43,532.19L453.28,532.19L469.79,530.35L488.14,528.52L506.49,524.85L524.85,523.01L543.2,521.18L559.71,519.34L574.39,517.51L583.57,517.51L594.58,515.67L611.1,513.84L614.77,513.84L618.44,512L625.78,512L638.62,510.16L647.8,510.16L649.63,510.16L660.65,508.33L669.82,508.33L680.83,508.33L691.84,510.16L701.02,510.16L712.03,510.16L719.37,510.16L724.87,510.16" fill="none" stroke="#000000" style="-webkit-tap-highlight-color: rgba(0, 0, 0, 0); stroke-linecap: round; stroke-linejoin: round; stroke-width: 5;" /><path d="M431.25,517.51L431.25,515.67L433.09,513.84L434.92,513.84L438.59,513.84L442.27,512L453.28,510.16L466.12,508.33L482.64,506.49L500.99,504.66L524.85,502.82L550.54,500.99L576.23,497.32L601.92,493.65L627.61,491.81L649.63,489.98L671.66,488.14L688.17,484.47L701.02,482.64L710.19,480.8L719.37,480.8L728.54,480.8L735.89,482.64L737.72,486.31" fill="none" stroke="#000000" style="-webkit-tap-highlight-color: rgba(0, 0, 0, 0); stroke-linecap: round; stroke-linejoin: round; stroke-width: 5;" /><path d="M489.98,482.64L486.31,482.64L491.81,482.64L502.82,478.97L521.18,477.13L545.03,473.46L572.56,469.79L603.76,467.96L634.95,466.12L664.32,464.29L690.01,462.45L710.19,460.62L724.87,460.62L735.89,458.78L745.06,456.95L748.73,456.95" fill="none" stroke="#000000" style="-webkit-tap-highlight-color: rgba(0, 0, 0, 0); stroke-linecap: round; stroke-linejoin: round; stroke-width: 5;" /><path d="M523.01,453.28L530.35,451.44L545.03,447.77L568.89,445.94L600.09,444.1L633.12,442.27L666.15,440.43L697.35,438.59L723.04,438.59L739.56,438.59L750.57,440.43L754.24,444.1" fill="none" stroke="#000000" style="-webkit-tap-highlight-color: rgba(0, 0, 0, 0); stroke-linecap: round; stroke-linejoin: round; stroke-width: 5;" /><path d="M524.85,434.92L526.68,433.09L532.19,433.09L543.2,431.25L559.71,429.42L583.57,427.58L614.77,423.91L649.63,422.08L680.83,418.41L712.03,416.57L737.72,416.57L756.07,418.41L765.25,422.08L767.08,423.91" fill="none" stroke="#000000" style="-webkit-tap-highlight-color: rgba(0, 0, 0, 0); stroke-linecap: round; stroke-linejoin: round; stroke-width: 5;" /><path d="M534.02,416.57L532.19,414.74L535.86,414.74L548.7,412.9L570.72,411.07L603.76,407.4L638.62,403.73L675.33,400.06L712.03,398.22L739.56,396.39L759.74,398.22L776.26,401.89L781.76,403.73" fill="none" stroke="#000000" style="-webkit-tap-highlight-color: rgba(0, 0, 0, 0); stroke-linecap: round; stroke-linejoin: round; stroke-width: 5;" /><path d="M539.53,387.21L539.53,389.05L541.36,389.05L548.7,389.05L559.71,389.05L603.76,385.38L638.62,381.71L673.49,379.87L708.36,379.87L741.39,379.87L763.41,383.54L778.09,389.05" fill="none" stroke="#000000" style="-webkit-tap-highlight-color: rgba(0, 0, 0, 0); stroke-linecap: round; stroke-linejoin: round; stroke-width: 5;" /></svg>