<?xml version="1.0" encoding="utf-8" ?>
<svg baseProfile="full" height="745" version="1.1" width="1024" xmlns="http://www.w3.org/2000/svg" xmlns:ev="http://www.w3.org/2001/xml-events" xmlns:xlink="http://www.w3.org/1999/xlink"><defs /><path d="M0,242.24L1.84,240.4L1.84,238.57L5.51,234.9L7.34,231.23L11.01,227.56L14.68,223.89L18.35,220.22L20.19,218.38L22.02,214.71L25.69,212.87L27.53,209.2L31.2,207.37L33.03,203.7L34.87,201.86L36.7,200.03L38.54,198.19L38.54,196.36L40.37,196.36L42.21,194.52L44.04,194.52L45.88,194.52L51.38,192.69L53.22,192.69L55.05,192.69L58.72,192.69L62.39,192.69L66.06,192.69L69.73,190.85L73.41,190.85L78.91,190.85L82.58,190.85L86.25,190.85L89.92,190.85L95.43,190.85L99.1,190.85L104.6,190.85L108.27,190.85L113.78,190.85L119.28,190.85L124.79,189.02L130.29,189.02L135.8,189.02L139.47,189.02L144.97,187.18L148.65,187.18L154.15,187.18L159.66,187.18L163.33,187.18L168.83,185.35L174.34,185.35L178.01,183.51L181.68,183.51L183.51,183.51L187.18,183.51L189.02,183.51L192.69,183.51L194.52,183.51L196.36,185.35L200.03,185.35L201.86,185.35L203.7,185.35L207.37,187.18L211.04,187.18L212.87,187.18L216.54,187.18L218.38,187.18L222.05,187.18L223.89,187.18L225.72,187.18L229.39,187.18L231.23,187.18L234.9,187.18L236.73,185.35L238.57,185.35L242.24,183.51L244.07,181.68L247.74,179.84L251.41,179.84L253.25,178.01L256.92,178.01L262.42,176.17L266.09,174.34L269.76,172.5L273.43,170.67L277.1,168.83L280.77,167L284.44,165.16L288.11,165.16L289.95,163.33L293.62,163.33L295.46,161.49L299.13,159.66L302.8,157.82L306.47,157.82L308.3,155.99L311.97,155.99L313.81,155.99L315.64,155.99L317.48,155.99L319.31,155.99L321.15,155.99L322.98,157.82L324.82,157.82L326.65,157.82L328.49,157.82L330.32,159.66L333.99,159.66L335.83,159.66L339.5,159.66L341.33,157.82L343.17,157.82L345,157.82L346.84,155.99L348.67,155.99L352.34,155.99L354.18,155.99L357.85,154.15L361.52,154.15L363.35,154.15L367.03,152.32L370.7,152.32L372.53,150.48L376.2,150.48L378.04,150.48L379.87,148.65L381.71,148.65L385.38,146.81L387.21,146.81L389.05,144.97L390.88,143.14L392.72,141.3L394.55,139.47L396.39,139.47L398.22,137.63L400.06,135.8L401.89,135.8L401.89,133.96L405.56,132.13L407.4,132.13L409.23,130.29L411.07,130.29L412.9,128.46L414.74,128.46L416.57,126.62L418.41,126.62L422.08,124.79L423.91,124.79L425.75,122.95L429.42,122.95L431.25,122.95L434.92,121.12L438.59,121.12L444.1,119.28L447.77,117.45L453.28,117.45L456.95,115.61L462.45,113.78L466.12,111.94L471.63,111.94L475.3,110.11L480.8,108.27L486.31,106.44L489.98,104.6L495.48,104.6L500.99,102.77L506.49,100.93L512,100.93L515.67,99.1L521.18,97.26L524.85,95.43L530.35,93.59L537.69,93.59L543.2,91.76L548.7,89.92L554.21,88.09L559.71,86.25L565.22,86.25L570.72,84.42L574.39,84.42L579.9,82.58L583.57,80.75L587.24,78.91L592.75,78.91L596.42,75.24L601.92,73.41L607.43,71.57L611.1,69.73L616.6,67.9L620.27,66.06L623.94,66.06L627.61,64.23L633.12,62.39L636.79,62.39L640.46,60.56L645.96,58.72L651.47,58.72L660.65,55.05L666.15,53.22L669.82,51.38L675.33,49.55L679,47.71L684.5,45.88L688.17,44.04L693.68,42.21L697.35,40.37L702.85,38.54L706.52,36.7L712.03,34.87L717.53,34.87L721.2,33.03L724.87,31.2L730.38,31.2L734.05,29.36L739.56,27.53L743.23,27.53L746.9,25.69L750.57,23.86L756.07,22.02L759.74,22.02L763.41,20.19L768.92,20.19L772.59,18.35L776.26,16.52L779.93,16.52L781.76,14.68L785.43,14.68L787.27,14.68L790.94,14.68L792.77,12.85L796.44,12.85L798.28,12.85L800.11,11.01L803.78,11.01L807.46,9.18L811.13,9.18L816.63,7.34L820.3,5.51L823.97,5.51L833.15,5.51L840.49,3.67" fill="none" stroke="#000000" style="-webkit-tap-highlight-color: rgba(0, 0, 0, 0); stroke-linecap: round; stroke-linejoin: round; stroke-width: 5;" /><path d="M385.38,170.67L383.54,168.83L383.54,174.34L383.54,178.01L383.54,181.68L381.71,187.18L381.71,190.85L381.71,194.52L381.71,196.36L381.71,198.19L381.71,200.03L379.87,201.86L378.04,201.86L378.04,203.7L374.37,203.7L372.53,205.53L370.7,207.37L368.86,207.37L368.86,209.2L368.86,211.04L367.03,212.87L367.03,214.71L367.03,218.38L365.19,222.05L365.19,225.72L365.19,229.39L363.35,233.06L363.35,238.57L363.35,242.24L361.52,247.74L361.52,251.41L361.52,256.92L359.68,262.42L359.68,267.93L359.68,273.43L357.85,278.94L357.85,284.44L356.01,289.95L356.01,295.46L354.18,299.13L354.18,304.63L352.34,310.14L350.51,315.64L350.51,322.98L348.67,328.49L348.67,333.99L346.84,339.5L346.84,345L345,352.34L343.17,357.85L343.17,363.35L341.33,370.7L341.33,376.2L341.33,383.54L339.5,390.88L337.66,396.39L337.66,403.73L335.83,409.23L335.83,414.74L333.99,420.24L333.99,425.75L332.16,431.25L332.16,434.92L332.16,440.43L332.16,444.1L332.16,447.77L330.32,453.28L330.32,458.78L330.32,462.45L330.32,467.96L328.49,473.46L328.49,478.97L326.65,482.64L326.65,486.31L326.65,491.81L326.65,495.48L326.65,500.99L324.82,506.49L324.82,510.16L324.82,515.67L324.82,519.34L324.82,523.01L324.82,526.68L324.82,528.52L324.82,530.35L324.82,534.02L324.82,535.86L324.82,539.53L324.82,541.36L326.65,541.36L326.65,543.2L328.49,545.03L330.32,546.87L332.16,546.87L333.99,548.7L335.83,548.7L335.83,550.54L337.66,550.54L337.66,552.37L337.66,554.21L337.66,557.88L337.66,559.71L337.66,563.38L337.66,565.22L337.66,568.89L337.66,572.56L337.66,578.06L337.66,581.73L337.66,585.41L339.5,589.08L339.5,594.58L339.5,598.25L339.5,605.59L339.5,612.93L337.66,618.44L337.66,623.94L337.66,625.78" fill="none" stroke="#000000" style="-webkit-tap-highlight-color: rgba(0, 0, 0, 0); stroke-linecap: round; stroke-linejoin: round; stroke-width: 5;" /><path d="M374.37,234.9L376.2,227.56L378.04,225.72L378.04,222.05L378.04,220.22L378.04,218.38L378.04,216.54" fill="none" stroke="#000000" style="-webkit-tap-highlight-color: rgba(0, 0, 0, 0); stroke-linecap: round; stroke-linejoin: round; stroke-width: 5;" /><path d="M374.37,209.2L374.37,211.04L374.37,212.87L372.53,214.71L372.53,218.38L370.7,220.22L370.7,223.89L370.7,227.56L370.7,233.06L370.7,240.4L368.86,245.91L368.86,251.41L368.86,256.92L368.86,262.42L368.86,267.93L368.86,275.27L367.03,280.77L367.03,286.28L367.03,289.95L365.19,295.46L365.19,300.96L365.19,306.47L363.35,311.97L363.35,319.31L363.35,324.82L361.52,330.32L361.52,333.99L361.52,339.5L361.52,345L359.68,350.51L359.68,357.85L359.68,361.52L359.68,367.03L357.85,372.53L357.85,378.04L357.85,383.54L356.01,389.05L356.01,394.55L354.18,400.06L352.34,412.9L352.34,420.24L352.34,425.75L352.34,431.25L350.51,436.76L350.51,442.27L350.51,447.77L348.67,453.28L348.67,458.78L348.67,466.12L346.84,471.63L346.84,475.3L346.84,480.8L346.84,484.47L346.84,489.98L345,493.65L345,497.32L345,500.99L343.17,506.49L343.17,510.16L341.33,513.84L341.33,517.51L341.33,523.01L339.5,526.68L339.5,532.19L339.5,535.86L339.5,537.69L339.5,539.53L339.5,541.36L339.5,543.2L339.5,545.03L339.5,546.87L341.33,546.87L343.17,548.7L345,548.7L346.84,548.7L348.67,550.54L350.51,550.54L352.34,550.54L354.18,552.37L356.01,552.37L357.85,554.21L359.68,554.21L361.52,556.04L363.35,557.88L363.35,559.71L363.35,561.55L363.35,565.22L363.35,567.05L363.35,570.72L363.35,574.39L363.35,578.06L363.35,581.73L363.35,585.41L363.35,589.08L361.52,594.58L361.52,598.25L361.52,601.92L361.52,603.76L361.52,607.43L361.52,609.26L361.52,612.93L361.52,616.6L361.52,618.44L361.52,620.27L361.52,622.11L359.68,623.94L356.01,625.78L352.34,627.61L350.51,629.45L346.84,629.45L345,631.28L346.84,629.45" fill="none" stroke="#000000" style="-webkit-tap-highlight-color: rgba(0, 0, 0, 0); stroke-linecap: round; stroke-linejoin: round; stroke-width: 5;" /><path d="M137.63,539.53L139.47,539.53L143.14,539.53L148.65,541.36L152.32,543.2L155.99,545.03L161.49,546.87L165.16,546.87L170.67,546.87L174.34,546.87L178.01,548.7L179.84,548.7L183.51,550.54L187.18,550.54L190.85,550.54L194.52,550.54L198.19,550.54L201.86,550.54L205.53,552.37L209.2,552.37L212.87,552.37L218.38,554.21L222.05,554.21L225.72,556.04L231.23,556.04L234.9,556.04L238.57,557.88L242.24,557.88L245.91,557.88L249.58,557.88L253.25,557.88L256.92,559.71L260.59,559.71L264.26,559.71L267.93,559.71L271.6,561.55L275.27,561.55L280.77,561.55L284.44,561.55L288.11,561.55L291.78,561.55L297.29,561.55L300.96,561.55L304.63,561.55L308.3,561.55L311.97,561.55L315.64,561.55L321.15,561.55L324.82,561.55L328.49,561.55L337.66,557.88L341.33,557.88L345,556.04" fill="none" stroke="#000000" style="-webkit-tap-highlight-color: rgba(0, 0, 0, 0); stroke-linecap: round; stroke-linejoin: round; stroke-width: 5;" /><path d="M216.54,209.2L218.38,209.2L220.22,209.2L225.72,209.2L231.23,209.2L236.73,209.2L242.24,209.2L249.58,205.53L255.08,203.7L260.59,203.7L266.09,201.86L271.6,201.86L277.1,200.03L282.61,198.19L286.28,196.36L289.95,194.52L295.46,192.69L299.13,190.85L304.63,190.85L308.3,189.02L313.81,187.18L317.48,185.35L321.15,183.51L324.82,181.68L328.49,179.84L332.16,179.84L335.83,178.01L339.5,178.01L345,176.17L348.67,174.34L352.34,174.34L356.01,172.5L357.85,172.5L359.68,172.5L363.35,172.5L367.03,170.67L370.7,168.83L372.53,168.83L374.37,168.83L378.04,168.83L379.87,168.83L383.54,168.83L389.05,167L392.72,167L394.55,167" fill="none" stroke="#000000" style="-webkit-tap-highlight-color: rgba(0, 0, 0, 0); stroke-linecap: round; stroke-linejoin: round; stroke-width: 5;" /><path d="M218.38,211.04L216.54,211.04L214.71,212.87L214.71,216.54L214.71,218.38L214.71,220.22L212.87,225.72L212.87,231.23L212.87,236.73L212.87,240.4L212.87,245.91L211.04,249.58L211.04,255.08L211.04,260.59L211.04,262.42L211.04,266.09L211.04,271.6L211.04,275.27L211.04,278.94L209.2,280.77L209.2,284.44L209.2,288.11L209.2,291.78L209.2,295.46L207.37,299.13L207.37,302.8L205.53,311.97L203.7,315.64L201.86,319.31L201.86,324.82L201.86,332.16L200.03,337.66L200.03,343.17L198.19,346.84L196.36,352.34L194.52,359.68L192.69,367.03L190.85,372.53L189.02,379.87L189.02,385.38L187.18,390.88L185.35,396.39L183.51,401.89L181.68,407.4L179.84,412.9L179.84,418.41L178.01,422.08L176.17,427.58L174.34,433.09L174.34,438.59L172.5,444.1L172.5,447.77L170.67,453.28L168.83,458.78L168.83,464.29L167,469.79L165.16,475.3L165.16,480.8L163.33,484.47L163.33,489.98L161.49,493.65L159.66,499.15L159.66,504.66L157.82,508.33L157.82,513.84L155.99,517.51L155.99,519.34L154.15,524.85L152.32,528.52L150.48,534.02L148.65,537.69L146.81,543.2L144.97,545.03L146.81,541.36" fill="none" stroke="#000000" style="-webkit-tap-highlight-color: rgba(0, 0, 0, 0); stroke-linecap: round; stroke-linejoin: round; stroke-width: 5;" /><path d="M244.07,236.73L244.07,238.57L244.07,242.24L242.24,245.91L242.24,249.58L240.4,256.92L240.4,264.26L240.4,271.6L240.4,277.1L240.4,284.44L238.57,291.78L238.57,300.96L236.73,308.3L234.9,315.64L233.06,321.15L231.23,326.65L229.39,333.99L229.39,341.33L227.56,348.67L225.72,354.18L225.72,359.68L223.89,367.03L222.05,374.37L220.22,381.71L220.22,387.21L218.38,392.72L218.38,400.06L216.54,405.56L214.71,412.9L212.87,420.24L211.04,423.91L211.04,429.42L209.2,434.92L209.2,442.27L207.37,447.77L207.37,453.28L205.53,458.78L203.7,467.96L201.86,473.46L200.03,478.97L200.03,482.64L200.03,486.31L198.19,491.81L198.19,495.48L196.36,499.15L196.36,502.82L194.52,506.49L194.52,510.16L192.69,515.67L192.69,519.34L190.85,523.01L190.85,528.52L190.85,534.02L189.02,537.69L189.02,543.2L189.02,545.03L189.02,546.87L189.02,548.7" fill="none" stroke="#000000" style="-webkit-tap-highlight-color: rgba(0, 0, 0, 0); stroke-linecap: round; stroke-linejoin: round; stroke-width: 5;" /><path d="M244.07,238.57L245.91,236.73L251.41,236.73L260.59,234.9L266.09,234.9L271.6,233.06L275.27,233.06L280.77,231.23L286.28,231.23L289.95,231.23L295.46,229.39L299.13,227.56L302.8,227.56L306.47,225.72L310.14,223.89L313.81,222.05L317.48,220.22L319.31,220.22L322.98,220.22L324.82,218.38L326.65,218.38L328.49,218.38L330.32,216.54L332.16,216.54L333.99,216.54L333.99,214.71L335.83,214.71L337.66,214.71L337.66,216.54L335.83,220.22L335.83,225.72L333.99,229.39L333.99,234.9L332.16,240.4L330.32,247.74L330.32,253.25L328.49,260.59L328.49,266.09L326.65,271.6L326.65,278.94L324.82,284.44L324.82,289.95L322.98,293.62L322.98,299.13L322.98,304.63L322.98,308.3L321.15,313.81L319.31,319.31L319.31,324.82L317.48,328.49L317.48,333.99L315.64,339.5L315.64,345L315.64,350.51L315.64,354.18L313.81,359.68L313.81,370.7L311.97,376.2L311.97,381.71L311.97,385.38L311.97,390.88L311.97,396.39L310.14,401.89L310.14,405.56L308.3,411.07L308.3,414.74L308.3,418.41L308.3,423.91L308.3,427.58L308.3,431.25L308.3,434.92L306.47,438.59L306.47,440.43L306.47,444.1L306.47,447.77L304.63,451.44L304.63,455.11L302.8,460.62L300.96,464.29L300.96,467.96L300.96,471.63L299.13,475.3L297.29,480.8L297.29,484.47L295.46,488.14L295.46,493.65L293.62,499.15L291.78,504.66L289.95,510.16L289.95,513.84L289.95,517.51L288.11,521.18L286.28,528.52L284.44,535.86L284.44,541.36L284.44,545.03L282.61,550.54L282.61,552.37L282.61,554.21L286.28,554.21" fill="none" stroke="#000000" style="-webkit-tap-highlight-color: rgba(0, 0, 0, 0); stroke-linecap: round; stroke-linejoin: round; stroke-width: 5;" /><path d="M277.1,249.58L275.27,249.58L275.27,251.41L275.27,253.25L275.27,256.92L273.43,260.59L273.43,264.26L271.6,269.76L271.6,277.1L269.76,284.44L269.76,289.95L269.76,297.29L267.93,304.63L267.93,310.14L266.09,317.48L266.09,322.98L266.09,328.49L264.26,333.99L264.26,339.5L264.26,345L264.26,350.51L262.42,356.01L262.42,365.19L260.59,370.7L260.59,378.04L258.75,383.54L258.75,390.88L258.75,396.39L256.92,401.89L256.92,407.4L256.92,412.9L255.08,418.41L255.08,425.75L251.41,436.76L251.41,442.27L251.41,445.94L249.58,451.44L249.58,456.95L249.58,462.45L247.74,467.96L245.91,473.46L245.91,478.97L244.07,482.64L244.07,488.14L242.24,491.81L242.24,497.32L240.4,500.99L238.57,506.49L238.57,510.16L236.73,513.84L236.73,517.51L234.9,519.34L234.9,524.85L233.06,530.35L231.23,534.02L229.39,537.69L229.39,539.53L229.39,541.36L231.23,541.36L233.06,537.69" fill="none" stroke="#000000" style="-webkit-tap-highlight-color: rgba(0, 0, 0, 0); stroke-linecap: round; stroke-linejoin: round; stroke-width: 5;" /><path d="M278.94,255.08L278.94,253.25L277.1,251.41L277.1,249.58L277.1,247.74L278.94,247.74L280.77,245.91L282.61,245.91L284.44,245.91L288.11,244.07L289.95,244.07L293.62,244.07L299.13,242.24L302.8,240.4L308.3,240.4L311.97,240.4L313.81,238.57L317.48,238.57L321.15,238.57L324.82,238.57L326.65,238.57L330.32,238.57L333.99,236.73L335.83,236.73L337.66,234.9L339.5,234.9L339.5,236.73" fill="none" stroke="#000000" style="-webkit-tap-highlight-color: rgba(0, 0, 0, 0); stroke-linecap: round; stroke-linejoin: round; stroke-width: 5;" /><path d="M244.07,242.24L242.24,238.57L244.07,238.57L245.91,238.57L247.74,238.57L249.58,240.4L251.41,240.4L255.08,240.4L258.75,242.24L262.42,242.24L264.26,244.07L267.93,245.91L269.76,247.74L273.43,249.58L275.27,249.58L280.77,251.41L284.44,251.41L286.28,251.41" fill="none" stroke="#000000" style="-webkit-tap-highlight-color: rgba(0, 0, 0, 0); stroke-linecap: round; stroke-linejoin: round; stroke-width: 5;" /><path d="M207.37,225.72L203.7,229.39L200.03,238.57L196.36,245.91L190.85,255.08L187.18,260.59L185.35,264.26L185.35,267.93L183.51,271.6L181.68,275.27L179.84,278.94L176.17,280.77L174.34,282.61L172.5,286.28L170.67,288.11L168.83,291.78L167,295.46L163.33,299.13L161.49,300.96L157.82,302.8L155.99,304.63L154.15,306.47L152.32,308.3L150.48,311.97L146.81,315.64L144.97,319.31L143.14,321.15L141.3,326.65L139.47,330.32L137.63,335.83L135.8,341.33L133.96,346.84L133.96,352.34L132.13,356.01L132.13,361.52L130.29,365.19L130.29,368.86L128.46,372.53L128.46,376.2L126.62,378.04L124.79,381.71L124.79,385.38L122.95,389.05L121.12,394.55L119.28,398.22L119.28,403.73L117.45,407.4L115.61,412.9L113.78,416.57L111.94,422.08L108.27,429.42L104.6,434.92L102.77,440.43L100.93,444.1L99.1,449.61L99.1,453.28L97.26,458.78L97.26,462.45L95.43,466.12L95.43,469.79L93.59,477.13L91.76,480.8L91.76,484.47L91.76,488.14L89.92,491.81L89.92,493.65L89.92,497.32L88.09,500.99L88.09,504.66L88.09,506.49L88.09,510.16L86.25,513.84L86.25,517.51L86.25,519.34L86.25,523.01L86.25,524.85L86.25,526.68L86.25,528.52L84.42,530.35L84.42,532.19L82.58,532.19L80.75,532.19L78.91,534.02L77.08,534.02L75.24,534.02L73.41,534.02L71.57,534.02L67.9,534.02L64.23,534.02L62.39,534.02L60.56,534.02L56.89,534.02L55.05,534.02L51.38,534.02L49.55,534.02L45.88,534.02L42.21,534.02L40.37,534.02L36.7,534.02L34.87,532.19L33.03,532.19L31.2,532.19L29.36,532.19L27.53,530.35L25.69,530.35L23.86,530.35L22.02,530.35L20.19,528.52L16.52,528.52L12.85,528.52L9.18,528.52L5.51,528.52L3.67,528.52L0,528.52" fill="none" stroke="#000000" style="-webkit-tap-highlight-color: rgba(0, 0, 0, 0); stroke-linecap: round; stroke-linejoin: round; stroke-width: 5;" /><path d="M11.01,651.47L9.18,651.47L7.34,651.47L7.34,649.63L5.51,649.63L5.51,647.8L3.67,647.8L5.51,647.8L9.18,647.8L14.68,645.96L18.35,645.96L22.02,644.13L25.69,642.29L29.36,640.46L31.2,638.62L34.87,636.79L36.7,634.95L38.54,633.12L38.54,631.28L40.37,629.45L40.37,627.61L42.21,623.94L42.21,620.27L44.04,618.44L44.04,614.77L45.88,611.1L47.71,605.59L49.55,601.92L49.55,598.25L51.38,596.42L51.38,594.58L51.38,592.75L49.55,592.75L47.71,590.91L45.88,590.91L40.37,590.91L33.03,590.91L16.52,589.08L11.01,589.08L5.51,587.24L3.67,587.24L1.84,587.24" fill="none" stroke="#000000" style="-webkit-tap-highlight-color: rgba(0, 0, 0, 0); stroke-linecap: round; stroke-linejoin: round; stroke-width: 5;" /><path d="M45.88,634.95L44.04,634.95L40.37,633.12L42.21,627.61L44.04,625.78L45.88,625.78L47.71,625.78L49.55,625.78L51.38,625.78L55.05,625.78L60.56,625.78L66.06,627.61L69.73,627.61L75.24,629.45L78.91,631.28L88.09,633.12L91.76,634.95L97.26,636.79L100.93,636.79L106.44,638.62L111.94,640.46L115.61,640.46L121.12,642.29L124.79,642.29L128.46,644.13L132.13,645.96L137.63,645.96L143.14,645.96L148.65,645.96L152.32,647.8L155.99,647.8L159.66,647.8L163.33,649.63L167,649.63L170.67,649.63L172.5,651.47L176.17,651.47L179.84,653.3L181.68,653.3L185.35,655.14L187.18,655.14L190.85,656.97L192.69,656.97L196.36,658.81L200.03,658.81L201.86,658.81L203.7,660.65L205.53,660.65L207.37,660.65L209.2,662.48L211.04,664.32L214.71,664.32L218.38,666.15L222.05,666.15L227.56,667.99L233.06,669.82L238.57,669.82L245.91,671.66L251.41,673.49L258.75,675.33L264.26,677.16L267.93,679L273.43,680.83L278.94,682.67L282.61,684.5L288.11,686.34L291.78,688.17L295.46,688.17L299.13,690.01L302.8,690.01L306.47,691.84L311.97,691.84L315.64,691.84L321.15,693.68L324.82,693.68L326.65,695.51L330.32,695.51L333.99,697.35L337.66,697.35L339.5,699.18L341.33,699.18L343.17,701.02L345,701.02L348.67,702.85L350.51,702.85L352.34,702.85L356.01,704.69L359.68,704.69L363.35,704.69L365.19,704.69L367.03,704.69L370.7,706.52L372.53,706.52L376.2,706.52L379.87,706.52L381.71,706.52L385.38,706.52L389.05,708.36L392.72,708.36L396.39,708.36L400.06,708.36L401.89,708.36L403.73,708.36L405.56,708.36L409.23,708.36L411.07,708.36L414.74,708.36L416.57,708.36L418.41,710.19L422.08,710.19L425.75,710.19L429.42,710.19L433.09,710.19L436.76,710.19L440.43,712.03L444.1,712.03L447.77,712.03L451.44,712.03L456.95,712.03L460.62,713.86L464.29,713.86L467.96,715.7L471.63,715.7L477.13,717.53L482.64,719.37L486.31,719.37L493.65,721.2L499.15,721.2L504.66,721.2L510.16,723.04L515.67,723.04L521.18,724.87L526.68,726.71L530.35,726.71L535.86,728.54L541.36,730.38L546.87,730.38L552.37,732.22L556.04,732.22L561.55,732.22L565.22,734.05L570.72,734.05L574.39,734.05L578.06,734.05L581.73,734.05L585.41,734.05L589.08,734.05L592.75,734.05L596.42,734.05L598.25,734.05L601.92,735.89L603.76,735.89L607.43,735.89L609.26,735.89L612.93,735.89L614.77,735.89L620.27,735.89L627.61,735.89L634.95,735.89L647.8,735.89L658.81,735.89" fill="none" stroke="#000000" style="-webkit-tap-highlight-color: rgba(0, 0, 0, 0); stroke-linecap: round; stroke-linejoin: round; stroke-width: 5;" /><path d="M144.97,546.87L143.14,545.03L141.3,545.03L139.47,543.2L137.63,543.2L135.8,541.36L132.13,541.36L130.29,539.53L128.46,539.53L126.62,539.53L126.62,541.36L128.46,543.2L128.46,546.87L128.46,550.54L128.46,554.21L128.46,559.71L128.46,563.38L128.46,567.05L128.46,570.72L128.46,574.39L128.46,578.06L128.46,581.73L128.46,585.41L128.46,590.91L126.62,592.75L126.62,596.42L126.62,598.25L126.62,601.92L126.62,603.76L126.62,607.43L126.62,609.26L126.62,611.1L128.46,612.93L130.29,612.93L133.96,614.77L139.47,614.77L143.14,616.6L150.48,618.44L157.82,620.27L165.16,620.27L172.5,622.11L179.84,623.94L187.18,623.94L194.52,625.78L201.86,627.61L205.53,629.45L211.04,629.45L214.71,631.28L220.22,633.12L223.89,633.12L229.39,634.95L233.06,634.95L234.9,636.79L238.57,636.79L244.07,636.79L247.74,638.62L253.25,638.62L256.92,638.62L262.42,638.62L266.09,638.62L271.6,638.62L275.27,638.62L278.94,638.62L284.44,638.62L288.11,638.62L291.78,638.62L295.46,638.62L300.96,638.62L304.63,638.62L308.3,638.62L313.81,638.62L319.31,636.79L324.82,636.79L328.49,636.79L333.99,634.95L337.66,634.95L345,633.12" fill="none" stroke="#000000" style="-webkit-tap-highlight-color: rgba(0, 0, 0, 0); stroke-linecap: round; stroke-linejoin: round; stroke-width: 5;" /><path d="M502.82,139.47L502.82,137.63L502.82,141.3L504.66,144.97L504.66,148.65L504.66,155.99L504.66,163.33L504.66,172.5L504.66,179.84L504.66,185.35L504.66,192.69L504.66,200.03L502.82,209.2L500.99,212.87L499.15,222.05L499.15,227.56L497.32,234.9L497.32,242.24L495.48,249.58L493.65,256.92L493.65,264.26L491.81,271.6L491.81,277.1L489.98,282.61L489.98,288.11L488.14,295.46L488.14,302.8L486.31,310.14L484.47,319.31L482.64,328.49L482.64,337.66L480.8,346.84L480.8,354.18L478.97,363.35L478.97,370.7L477.13,378.04L475.3,385.38L475.3,392.72L473.46,400.06L473.46,405.56L473.46,412.9L473.46,420.24L471.63,427.58L471.63,433.09L469.79,440.43L469.79,445.94L469.79,451.44L467.96,458.78L466.12,464.29L466.12,469.79L464.29,475.3L462.45,480.8L462.45,486.31L462.45,491.81L460.62,495.48L460.62,500.99L460.62,508.33L460.62,513.84L460.62,521.18L460.62,528.52L460.62,535.86L460.62,543.2L458.78,552.37L458.78,559.71L458.78,568.89L460.62,570.72" fill="none" stroke="#000000" style="-webkit-tap-highlight-color: rgba(0, 0, 0, 0); stroke-linecap: round; stroke-linejoin: round; stroke-width: 5;" /><path d="M500.99,139.47L499.15,139.47L504.66,139.47L506.49,139.47L512,139.47L517.51,137.63L523.01,135.8L526.68,135.8L532.19,133.96L535.86,133.96L541.36,133.96L545.03,132.13L550.54,132.13L554.21,130.29L559.71,130.29L563.38,128.46L568.89,128.46L572.56,126.62L578.06,124.79L581.73,124.79L587.24,124.79L592.75,122.95L598.25,122.95L605.59,121.12L612.93,119.28L620.27,117.45L625.78,117.45L631.28,117.45L636.79,115.61L644.13,115.61L649.63,113.78L656.97,113.78L662.48,113.78L667.99,111.94L673.49,111.94L679,110.11L684.5,110.11L690.01,108.27L695.51,108.27L699.18,108.27L702.85,106.44L706.52,106.44L710.19,106.44L713.86,104.6L717.53,104.6L721.2,104.6L724.87,102.77L728.54,102.77L732.22,100.93L735.89,99.1L741.39,99.1L743.23,99.1L745.06,97.26L748.73,97.26L752.4,95.43L757.91,95.43" fill="none" stroke="#000000" style="-webkit-tap-highlight-color: rgba(0, 0, 0, 0); stroke-linecap: round; stroke-linejoin: round; stroke-width: 5;" /><path d="M752.4,99.1L754.24,99.1L754.24,97.26L754.24,99.1L754.24,104.6L754.24,110.11L752.4,115.61L752.4,121.12L752.4,126.62L752.4,133.96L750.57,141.3L750.57,146.81L750.57,152.32L750.57,157.82L748.73,165.16L748.73,170.67L746.9,178.01L745.06,183.51L745.06,189.02L743.23,192.69L743.23,198.19L741.39,203.7L739.56,209.2L739.56,214.71L737.72,220.22L737.72,225.72L735.89,231.23L735.89,236.73L734.05,242.24L732.22,247.74L732.22,253.25L730.38,258.75L730.38,264.26L728.54,269.76L728.54,275.27L728.54,280.77L728.54,286.28L728.54,293.62L728.54,299.13L728.54,306.47L726.71,313.81L726.71,319.31L726.71,324.82L726.71,332.16L726.71,337.66L726.71,345L726.71,350.51L728.54,356.01L730.38,361.52L730.38,365.19L732.22,370.7L732.22,378.04L734.05,383.54L734.05,389.05L735.89,392.72L735.89,396.39L735.89,401.89L735.89,407.4L735.89,412.9L735.89,418.41L734.05,425.75L734.05,431.25L734.05,436.76L734.05,444.1L734.05,451.44L732.22,458.78L732.22,466.12L732.22,471.63L732.22,478.97L732.22,486.31L732.22,493.65L732.22,500.99L730.38,508.33L730.38,515.67L730.38,519.34L730.38,523.01L730.38,528.52L730.38,534.02L730.38,541.36L730.38,546.87L728.54,550.54L728.54,554.21L728.54,557.88L728.54,565.22L728.54,570.72L728.54,576.23L728.54,578.06L728.54,583.57L726.71,589.08L726.71,596.42L724.87,601.92L724.87,609.26L723.04,614.77L723.04,622.11L721.2,629.45L721.2,638.62L721.2,649.63L723.04,656.97L724.87,658.81" fill="none" stroke="#000000" style="-webkit-tap-highlight-color: rgba(0, 0, 0, 0); stroke-linecap: round; stroke-linejoin: round; stroke-width: 5;" /><path d="M855.17,51.38L853.33,51.38L853.33,55.05L853.33,62.39L853.33,71.57L853.33,80.75L853.33,88.09L853.33,99.1L853.33,108.27L853.33,115.61L853.33,124.79L853.33,133.96L853.33,143.14L853.33,150.48L851.5,157.82L851.5,163.33L851.5,170.67L851.5,176.17L851.5,181.68L851.5,187.18L851.5,192.69L851.5,196.36L849.66,201.86L849.66,207.37L849.66,211.04L849.66,212.87L849.66,214.71L849.66,216.54L849.66,218.38L851.5,220.22L853.33,222.05L855.17,222.05L857,223.89L858.84,225.72L860.67,227.56L862.51,229.39L866.18,229.39L868.01,229.39L871.68,229.39L873.52,231.23L877.19,231.23L879.03,231.23L880.86,233.06L882.7,233.06L886.37,234.9L886.37,236.73L888.2,238.57L888.2,242.24L890.04,244.07L890.04,249.58L890.04,255.08L890.04,260.59L890.04,266.09L890.04,271.6L890.04,278.94L891.87,286.28L891.87,293.62L893.71,300.96L895.54,308.3L895.54,317.48L895.54,324.82L897.38,332.16L897.38,339.5L897.38,345L899.21,352.34L899.21,357.85L899.21,365.19L899.21,372.53L899.21,379.87L899.21,385.38L899.21,389.05L901.05,392.72L902.88,394.55L902.88,396.39L904.72,398.22L906.55,398.22L908.39,398.22L912.06,398.22L913.89,398.22L915.73,398.22L919.4,400.06L921.23,400.06L923.07,400.06L926.74,400.06L928.57,401.89L930.41,401.89L932.24,403.73L934.08,403.73L935.91,403.73L937.75,405.56L939.58,407.4L941.42,409.23L943.25,411.07L943.25,412.9L945.09,418.41L945.09,422.08L945.09,427.58L945.09,431.25L945.09,436.76L945.09,440.43L945.09,445.94L945.09,449.61L945.09,455.11L946.92,458.78L946.92,464.29L946.92,469.79L946.92,473.46L946.92,478.97L946.92,482.64L946.92,488.14L948.76,493.65L948.76,497.32L950.59,500.99L950.59,504.66L952.43,506.49L952.43,510.16L954.27,513.84L956.1,517.51L957.94,521.18L959.77,523.01L963.44,523.01L965.28,526.68L967.11,528.52L970.78,532.19L972.62,534.02L974.45,535.86L976.29,539.53L979.96,541.36L981.79,545.03L983.63,546.87L985.46,548.7L987.3,550.54L989.13,552.37L990.97,552.37L992.8,554.21L992.8,556.04L992.8,559.71L992.8,561.55L992.8,565.22L992.8,568.89L994.64,572.56L994.64,578.06L994.64,587.24L992.8,594.58L992.8,603.76L992.8,611.1L992.8,616.6L992.8,623.94L990.97,631.28L990.97,642.29L990.97,651.47L989.13,660.65L989.13,669.82L989.13,680.83L989.13,693.68L989.13,702.85L989.13,706.52L990.97,706.52L992.8,704.69" fill="none" stroke="#000000" style="-webkit-tap-highlight-color: rgba(0, 0, 0, 0); stroke-linecap: round; stroke-linejoin: round; stroke-width: 5;" /><path d="M609.26,209.2L607.43,211.04L607.43,212.87L607.43,216.54L607.43,227.56L607.43,233.06L607.43,238.57L607.43,244.07L607.43,247.74L607.43,253.25L605.59,258.75L605.59,264.26L605.59,269.76L603.76,277.1L603.76,280.77L603.76,286.28L601.92,289.95L601.92,295.46L601.92,300.96L601.92,304.63L601.92,310.14L601.92,313.81L600.09,317.48L600.09,322.98L600.09,326.65L600.09,332.16L600.09,335.83L598.25,339.5L598.25,343.17L598.25,348.67L598.25,354.18L598.25,359.68L598.25,363.35L598.25,367.03L598.25,372.53L598.25,378.04L598.25,383.54L598.25,387.21L598.25,389.05L598.25,390.88L600.09,390.88L600.09,392.72L598.25,392.72L600.09,392.72L600.09,390.88" fill="none" stroke="#000000" style="-webkit-tap-highlight-color: rgba(0, 0, 0, 0); stroke-linecap: round; stroke-linejoin: round; stroke-width: 5;" /><path d="M609.26,212.87L607.43,212.87L605.59,212.87L603.76,212.87L605.59,212.87L609.26,211.04L614.77,211.04L620.27,211.04L625.78,211.04L631.28,211.04L636.79,211.04L642.29,211.04L645.96,211.04L651.47,209.2L655.14,209.2L658.81,207.37L662.48,205.53L666.15,203.7L669.82,203.7L673.49,203.7L677.16,201.86L680.83,200.03L684.5,200.03L691.84,200.03L693.68,200.03L697.35,200.03L701.02,200.03L704.69,200.03L706.52,200.03L708.36,201.86L710.19,201.86L713.86,201.86L715.7,203.7L717.53,203.7L719.37,203.7L723.04,205.53L724.87,207.37L728.54,207.37L732.22,207.37L735.89,207.37L743.23,205.53L748.73,203.7" fill="none" stroke="#000000" style="-webkit-tap-highlight-color: rgba(0, 0, 0, 0); stroke-linecap: round; stroke-linejoin: round; stroke-width: 5;" /><path d="M611.1,311.97L607.43,310.14L605.59,310.14L607.43,310.14L611.1,310.14L614.77,310.14L618.44,310.14L623.94,310.14L633.12,310.14L638.62,311.97L642.29,311.97L647.8,311.97L651.47,311.97L655.14,311.97L660.65,311.97L664.32,310.14L667.99,310.14L669.82,310.14L673.49,310.14L677.16,310.14L679,310.14L682.67,310.14L684.5,310.14L688.17,310.14L690.01,310.14L693.68,311.97L695.51,311.97L697.35,311.97L699.18,313.81L701.02,313.81L701.02,315.64L702.85,317.48L704.69,317.48L704.69,319.31L704.69,321.15L706.52,321.15L706.52,322.98L706.52,324.82L708.36,326.65L708.36,328.49L708.36,330.32L710.19,332.16L710.19,333.99L710.19,335.83L710.19,337.66L712.03,339.5L713.86,339.5L715.7,341.33L717.53,341.33L721.2,341.33L724.87,341.33L726.71,341.33L732.22,341.33L735.89,341.33" fill="none" stroke="#000000" style="-webkit-tap-highlight-color: rgba(0, 0, 0, 0); stroke-linecap: round; stroke-linejoin: round; stroke-width: 5;" /><path d="M598.25,387.21L600.09,387.21L600.09,389.05L600.09,390.88L600.09,394.55L598.25,398.22L598.25,401.89L596.42,407.4L596.42,411.07L594.58,416.57L592.75,420.24L592.75,425.75L590.91,431.25L590.91,434.92L589.08,440.43L589.08,447.77L587.24,453.28L585.41,458.78L585.41,462.45L583.57,467.96L583.57,473.46L581.73,478.97L581.73,482.64L581.73,488.14L581.73,493.65L579.9,499.15L579.9,502.82L579.9,508.33L579.9,513.84L579.9,517.51L579.9,523.01L578.06,528.52L578.06,534.02L578.06,541.36L578.06,546.87L578.06,556.04L578.06,565.22L578.06,574.39L578.06,583.57L578.06,585.41" fill="none" stroke="#000000" style="-webkit-tap-highlight-color: rgba(0, 0, 0, 0); stroke-linecap: round; stroke-linejoin: round; stroke-width: 5;" /><path d="M462.45,567.05L458.78,567.05L456.95,567.05L456.95,565.22L456.95,563.38L458.78,563.38L460.62,563.38L467.96,563.38L473.46,561.55L478.97,561.55L484.47,559.71L488.14,559.71L491.81,559.71L497.32,559.71L502.82,559.71L506.49,557.88L510.16,557.88L513.84,557.88L515.67,557.88L519.34,557.88L521.18,557.88L524.85,557.88L526.68,556.04L528.52,556.04L530.35,556.04L532.19,556.04L534.02,556.04L535.86,556.04L539.53,556.04L541.36,557.88L545.03,557.88L548.7,559.71L550.54,561.55L554.21,563.38L556.04,565.22L557.88,567.05L561.55,568.89L565.22,570.72L567.05,572.56L568.89,576.23L570.72,578.06L572.56,578.06L574.39,579.9L576.23,581.73L578.06,581.73L579.9,583.57L581.73,585.41L583.57,587.24L585.41,589.08L587.24,589.08L590.91,590.91L592.75,590.91L594.58,592.75L598.25,592.75L600.09,592.75L603.76,594.58L605.59,594.58L609.26,594.58L612.93,596.42L616.6,596.42L620.27,596.42L623.94,596.42L627.61,596.42L631.28,596.42L634.95,596.42L636.79,598.25L640.46,598.25L642.29,598.25L645.96,600.09L647.8,600.09L651.47,600.09L653.3,600.09L656.97,600.09L658.81,600.09L662.48,600.09L664.32,600.09L667.99,600.09L671.66,600.09L675.33,601.92L679,601.92L684.5,601.92L690.01,603.76L695.51,603.76L701.02,605.59L706.52,605.59L712.03,605.59L717.53,607.43L721.2,609.26" fill="none" stroke="#000000" style="-webkit-tap-highlight-color: rgba(0, 0, 0, 0); stroke-linecap: round; stroke-linejoin: round; stroke-width: 5;" /><path d="M469.79,570.72L467.96,561.55L469.79,563.38L473.46,567.05L477.13,568.89L482.64,574.39L486.31,578.06L489.98,581.73L495.48,585.41L500.99,589.08L506.49,590.91L512,590.91L515.67,592.75L517.51,596.42L521.18,598.25L524.85,600.09L528.52,601.92L532.19,603.76L535.86,605.59L539.53,609.26L543.2,611.1L546.87,612.93L550.54,614.77L556.04,616.6L559.71,618.44L563.38,618.44L567.05,620.27L570.72,620.27L574.39,620.27L581.73,620.27L585.41,620.27L592.75,620.27L598.25,620.27L603.76,620.27L609.26,620.27L614.77,620.27L620.27,620.27L627.61,620.27L634.95,620.27L640.46,618.44L645.96,618.44L649.63,618.44L655.14,618.44L660.65,618.44L664.32,618.44L669.82,618.44L677.16,618.44L682.67,620.27L688.17,620.27L693.68,620.27L701.02,620.27L708.36,622.11L713.86,622.11L719.37,623.94L721.2,625.78" fill="none" stroke="#000000" style="-webkit-tap-highlight-color: rgba(0, 0, 0, 0); stroke-linecap: round; stroke-linejoin: round; stroke-width: 5;" /><path d="M517.51,148.65L513.84,146.81L510.16,144.97L510.16,143.14L510.16,141.3L510.16,143.14L512,144.97L513.84,146.81L517.51,150.48L519.34,152.32L524.85,155.99L528.52,159.66L534.02,161.49L539.53,165.16L543.2,168.83L548.7,172.5L552.37,176.17L557.88,178.01L561.55,181.68L565.22,185.35L568.89,187.18L572.56,189.02L576.23,190.85L579.9,192.69L583.57,196.36L587.24,198.19L592.75,201.86L598.25,205.53L601.92,207.37L605.59,211.04L609.26,214.71L611.1,218.38L614.77,220.22" fill="none" stroke="#000000" style="-webkit-tap-highlight-color: rgba(0, 0, 0, 0); stroke-linecap: round; stroke-linejoin: round; stroke-width: 5;" /></svg>