<?xml version="1.0" encoding="utf-8" ?>
<svg baseProfile="full" height="1425" version="1.1" width="1024" xmlns="http://www.w3.org/2000/svg" xmlns:ev="http://www.w3.org/2001/xml-events" xmlns:xlink="http://www.w3.org/1999/xlink"><defs /><path d="M309.74,41.61L307,44L305,44L303,43L304,46L302,51L303,47L302,53L303,55L302,58L303,59L303,62L303,65L303,67L303,69L302,72L302,74L299,76L303,76L301,79L301,81L299,84L300,86L300,87L300,89L300,92L300,94L301,97L303,99L303,105L305,106L304,111L304,111L305,117L306,118L307,123L307,124L311,129L310,132L310,133L311,139L310,141L309,143L309,146L309,148L308,150L308,155L311,157L310,159L309,161L310,166L311,171L310,168L310,175L310,179L311,181L314,188L312,187L313,195L313,195L314,189L312,201L312,201L309,207L310,216L309,207L312,219L313,226L312,218L314,224L317,235L317,235L318,236L318,241L317,243L318,245L317,247L317,249L317,249L323,260L323,260L322,262L316,228L322,264L322,270L321,273L316,275L317,276L317,285L317,282L317,287L322,266L317,289L316,290L317,294L316,296L315,299L314,302L314,302L314,308L314,309L314,311L314,311L312,317L312,318L312,318L313,326L313,326L313,328L313,330L313,330L312,335L312,337L313,343L313,343L313,343L312,347L312,349L313,354L313,354L313,355L315,362L316,363L316,367L316,365L316,373L316,372L318,380L316,381L317,386L317,386L315,394L316,396L315,397L317,406L317,405L315,409L314,411L312,414L315,417L317,416L319,418L322,421L319,419L322,421L324,423L324,425L324,430L326,429L324,428L328,431L335,428L331,429L332,427L337,425L340,424L344,421L348,424L349,423L354,421L356,421L363,417L362,418L367,419L373,417L376,416L373,415L382,415L379,414" fill="none" stroke="#000000" style="-webkit-tap-highlight-color: rgba(0, 0, 0, 0); stroke-linecap: round; stroke-linejoin: round; stroke-width: 7;" /><path d="M384,415L386,417L388,416L389,412L389,411L398,411L398,411L399,411L399,411L399,411L407,409L406,411L409.14,416.07L407,409L407,409L408,406L411,403L411,403L411,400L411,397L413,392L411,385L414,384L414,380L414,378L414,377L417,374L417,372L418,370L419,369L422,369L420,363L420,363L420,361L419,356L423,354L420,358L423,356L423,351L423,350L424,338L422,344L432,338L429,332L432,330L432,329L432,329L432,329L432,329L429,311L431,308L431,308L433,302L431,308L433,302L433,302L435,296L438,291L441,288L441,288L445,285L445,285L446,280L453,271L446,282L453,269L456,255L453,262L463,243L459,252L462,247L453,269L464,236L462,238L467,231L468,229L472,224L475,221L469,226L477,218L476,213L478,209L483,202L481,207L486,201L490,195L492,194L488,199L495,191L496,190L501,184L499,186L504,180L508,177L513,178L514,176L515,172L515,170L520,165L517,168L522,163L527,160L529,158L534,153L540,148L544,145L546,144L551,142L555,140L558,137L565,133L563,134L570,130L575,127L579,125L583,123L584,122L589,119L593,118L592,118L597,110L597,118L603,108L599,109L606,107L608,106L610,106L616,102L620,102L625,99L629,98L636,96L640,96L645,95L651,92L657,93L661,92L668,89L680,79L675,81L693,78L689,84L694,76L705,74L707,75L710,74L716,75L724,75L730,72L726,75L733,72L734,72L745,78L745,78L752,72L752,72L755,74L760,74L765,74L767,74L777,74L772,75L780,73L782,73L791,74L791,74L799,72L804,71L807,76L813,76L817,77" fill="none" stroke="#000000" style="-webkit-tap-highlight-color: rgba(0, 0, 0, 0); stroke-linecap: round; stroke-linejoin: round; stroke-width: 7;" /><path d="M822,79L830,79L841,85L834,84L846,87L852,89L859,89L865,90L869,94L874,95L885,99L875,94L881,96L892,102L899,104L898,102L890,98L910,108L906,105L913,109L903,106L922,110L924,113L917,111L927,116L932,117L936,119L934,118L942,123L944,125L944,126L950,129L951,129L961,134L955,132L962,136L962,136L970,141L970,142L969,145L969,145L969,145L969,145L969,145L969,145L969,145L982,157L985,159L987,162L987,164L989,166L999,154L1002,159L1005,160L994,171L1002,159L1002,159L1007,173L996,173L1007,173L1007,173L1007,173L1007,173L1007,171" fill="none" stroke="#000000" style="-webkit-tap-highlight-color: rgba(0, 0, 0, 0); stroke-linecap: round; stroke-linejoin: round; stroke-width: 7;" /><path d="M332.86,226.53L328,231L326,233L324,232L326,229L328,225L331,225L335,211L335,211L338,206L338,204L346,188L364,187L346,188L363,177L361,177L365,174L366,169L366,165L366,165L379,155L374,143L383,140L383,140L383,139L401,128L401,128L402,126L401,127L407,113L404,118L409,111L410,109L413,104L413,104L413,102L418,92L418,92L423,88L431,86L423,88L432,85L431,86L433,83L433,83L436,71L436,71L446,63L446,63L451,65L448,63L451,64L450,63" fill="none" stroke="#000000" style="-webkit-tap-highlight-color: rgba(0, 0, 0, 0); stroke-linecap: round; stroke-linejoin: round; stroke-width: 7;" /><path d="M457,53L461,53L450,63L455,53L469,45L467,49L468,46L461,53L479,36L474,37L474,38L474,40L478,32L481,32L483,32L486,31L487,31L495,32L492,32L497,32L497,32L497,32L497,34L497,37" fill="none" stroke="#000000" style="-webkit-tap-highlight-color: rgba(0, 0, 0, 0); stroke-linecap: round; stroke-linejoin: round; stroke-width: 7;" /><path d="M332.86,598.68L324,599L324,599L324,599L322,606L324,599L324,599L327,592L329,589L345,588L345,588L350,576L352,576L356,570L356,570L356,570L357,556L374,559L372,562L377,557L379,557L381,555L384,552L386,552L386,550L388,550L391,548L393,543L393,546L395,543L408,545L395,541L402,526L402,526L402,526L405,526L406,525L406,522L412,520L412,518L414,518L414,518L422,504L421,500L426,495L423,497L425,490L426,490L425,475L425,475L431,489L425,475L428,472L430,472L430,472L430,469L434,467L435,465L435,463L437,458L437,458L439,455L439,453L445,442L437,447L439,452L437,447L441,430L439,432L441,424L441,421L440,417L444,414L446,407L444,409L448,407L450,405L450,405L453,402L453,401L464,397L453,401L464,394L467,393L469,390L472,390L474,388L480,380L477,381L476,388L484,376L486,365L488,374L494,357L494,357L497,354L519,349L497,354L519,349L519,349L523,346L520,348L526,342L528,340L534,336L539,332L544,328L549,324L559,314L555,319L564,310L571,298L568,307L575,294L578,290L580,289L582,284L585,280L588,275L589,270L595,265L590,270L597,258L598,256L602,244L605,253L598,252" fill="none" stroke="#000000" style="-webkit-tap-highlight-color: rgba(0, 0, 0, 0); stroke-linecap: round; stroke-linejoin: round; stroke-width: 7;" /><path d="M606,243L607,237L609,229L612,224L608,233L616,221L616,217L622,205L616,216L622,205L622,201L620,194L619,197L620,192L621,187L622,190L622,190L626,181L626,180L629,174L627,176L632,169L633,162L634,159L632,166L640,153L646,146L640,153L645,149L647,141L656,127L652,133L654,129L651,139L661,117L660,122L663,112L666,109L669,104L670,102L670,97L673,95" fill="none" stroke="#000000" style="-webkit-tap-highlight-color: rgba(0, 0, 0, 0); stroke-linecap: round; stroke-linejoin: round; stroke-width: 7;" /><path d="M966.21,171.05" fill="none" stroke="#000000" style="-webkit-tap-highlight-color: rgba(0, 0, 0, 0); stroke-linecap: round; stroke-linejoin: round; stroke-width: 7;" /><path d="M674,89L674,89L672,88L674,92" fill="none" stroke="#000000" style="-webkit-tap-highlight-color: rgba(0, 0, 0, 0); stroke-linecap: round; stroke-linejoin: round; stroke-width: 7;" /><path d="M965,163L965,163L966,157L965,163L966,157L966,157L965,162L965,163L966,185L965,163L966,185L966,185L971,203L971,210L971,215L971,222L959,233L971,229L959,234L959,234L969,250L969,247L969,254L966,259L966,264L966,268L964,273L964,277L962,282L962,289L959,294L957,303L959,298L957,307L955,312L952,324L950,328L955,319L950,333L948,344L948,340L948,347L945,351L936,363L939,365L939,365L939,365L939,365L939,366L939,366L939,366L943,381L946,393L937,394L937,395L937,396L932,405L933,404L932,405" fill="none" stroke="#000000" style="-webkit-tap-highlight-color: rgba(0, 0, 0, 0); stroke-linecap: round; stroke-linejoin: round; stroke-width: 7;" /><path d="M927,415L927,415L926,425L927,423L926,425L924,443L924,443L924,443L924,443L925,444L923,451L925,445L921,453L922,458L922,458L922,458L917,468L917,469L917,470L914,476L919,474L914,474L915,468L917,469" fill="none" stroke="#000000" style="-webkit-tap-highlight-color: rgba(0, 0, 0, 0); stroke-linecap: round; stroke-linejoin: round; stroke-width: 7;" /><path d="M603.3,589.44L605,594L605,593L603,597L603,598L603,603L602,601L604,608L604,610L603,615L604,622L603,619L602,626L604,631L604,629L602,636L602,638L603,645L602,640L603,650L603,653L601,661L601,665L601,659L601,667L601,671L601,674L601,673L600,677L600,687L600,682L600,680L600,688L598,700L599,693L598,703L598,703L595,710L594,716L594,724L594,728L593,733L593,733L592,742L592,744L592,745L591,754L591,752L590,760L589,766L589,766L602,778L590,763L596,787L598,782L595,788L597,785L594,792L594,790L594,792L594,792L596,802L596,802L599,802L596,802L599,807L601,808L600,809L599,804L603,811L606,808L606,804L608,802L613,799L615,797L616,792L620,789L622,789L624,786L624,784L630,782L631,780L633,781L633,780L634,781L639,781L640,781L646,779L648,778L650,777L648,765L650,765L652,765L655,765L655,763L654,763L655,763L655,763L652,762L665,751L665,747L664,743L664,742L664,737L662,734L663,735L666,727L667,721L667,724L668,717L667,712L671,700L669,708L669,703L670,697L673,689L672,684L673,682L673,677L675,669L674,673L675,665L675,662L673,659L676,654L674,650L673,646L674,636L674,640L675,626L674,631L677,619L678,614L682,610L677,610L679,603L680,600L680,594L680,599L680,580L681,588L681,583L680,592L682,578L682,571L682,569L682,566L683,562L684,559L684,551L684,557L684,549L683,546L684,548L684,542L685,541L685,539L684,532L684,534L685,530L684,523L684,522L683,520L683,520L684,518L682,524L682,523L680,529L677,528L680,526L675,531L672,533L673,532L670,534L668,533L661,535L665,534L659,540L663,535" fill="none" stroke="#000000" style="-webkit-tap-highlight-color: rgba(0, 0, 0, 0); stroke-linecap: round; stroke-linejoin: round; stroke-width: 7;" /><path d="M655,539L653,541L653,541L652,543L646,546L645,548L645,548L652,546L641,550L637,556L638,555L638,555L636,558L631,562L636,558L632,561L629,563L627,566L623,570L626,567L623,570" fill="none" stroke="#000000" style="-webkit-tap-highlight-color: rgba(0, 0, 0, 0); stroke-linecap: round; stroke-linejoin: round; stroke-width: 7;" /><path d="M466.93,596.37" fill="none" stroke="#000000" style="-webkit-tap-highlight-color: rgba(0, 0, 0, 0); stroke-linecap: round; stroke-linejoin: round; stroke-width: 7;" /><path d="M621,571L619,573L617,576L617,576L616,576L612,578L615,578L610,579L603,585L607,583L601,586L600,589L594,593L594,596L596,591L592,596L593,601" fill="none" stroke="#000000" style="-webkit-tap-highlight-color: rgba(0, 0, 0, 0); stroke-linecap: round; stroke-linejoin: round; stroke-width: 7;" /><path d="M465,596" fill="none" stroke="#000000" style="-webkit-tap-highlight-color: rgba(0, 0, 0, 0); stroke-linecap: round; stroke-linejoin: round; stroke-width: 7;" /><path d="M593,599" fill="none" stroke="#000000" style="-webkit-tap-highlight-color: rgba(0, 0, 0, 0); stroke-linecap: round; stroke-linejoin: round; stroke-width: 7;" /><path d="M462,596L460,602L458,606L458,606L462,598L455,613L452,615L451,619L446,623L444,626L443,629L436,629L429,634L429,634L425,638L420,645L418,650L416,655L417,654L416,660L416,659L418,663L420,667L416,662L420,667L417,681L417,677L418,676L418,681L417,684L417,686L416,689L418,697L427,698L427,698L427,700L431,701L432,702L433,702L433,702L439,711L439,711L442,712L442,712L442,712L456,712L457,711L457,711L458,711L460,711L462,711L460,711L463,713L468,714L474,713L469,714L472,713L476,713L478,713L483,713L481,713L485,713L492,714L490,714L492,714L503,707L504,705L504,705L507,700L508,697L508,696L508,696L512,691L520,689L529,684L523,687L531,682L522,689L531,682L532,670L533,669L541,675L535,666L540,660L535,666L541,659L548,656L546,650L546,651L548,648L549,647L549,647L543,630L543,630" fill="none" stroke="#000000" style="-webkit-tap-highlight-color: rgba(0, 0, 0, 0); stroke-linecap: round; stroke-linejoin: round; stroke-width: 7;" /><path d="M542,629L543,630L543,627L541,626L540,624L539,621L537,622L536,619L532,615L535,619L535,619L529,614L526,613L523,612L529,614L523,612L520,611L520,611L515,609L513,609L511,608L509,608L504,606L505,606L500,603L502,606L495,603L496,603L493,602L493,602L491,601L489,600L472,603L489,600L472,603L472,603L461,606L472,603L472,603L458,617L458,617L457,622L458,617L457,623L457,623" fill="none" stroke="#000000" style="-webkit-tap-highlight-color: rgba(0, 0, 0, 0); stroke-linecap: round; stroke-linejoin: round; stroke-width: 7;" /><path d="M533.96,355.97" fill="none" stroke="#000000" style="-webkit-tap-highlight-color: rgba(0, 0, 0, 0); stroke-linecap: round; stroke-linejoin: round; stroke-width: 7;" /><path d="M457,623L457,623L457,623L457,623" fill="none" stroke="#000000" style="-webkit-tap-highlight-color: rgba(0, 0, 0, 0); stroke-linecap: round; stroke-linejoin: round; stroke-width: 7;" /><path d="M534,351L534,351L539,360L534,351L536,361L536,366L536,371L536,373L536,378L537,381L534,385L532,385L529,388L529,386L528,388L523,393L525,390L520,395L524,401L515,410L520,407L515,409L512,415L511,425L512,428L513,422L509,429L509,432L509,432L509,432L506,432L503,450L503,450L506,451L504,453L504,455L504,459L504,462L505,465L504,466L504,466L511,467L511,467L520,485L511,467L520,485L519,488L519,488L501,490L510,499L505,501L502,500L502,501L500,505L498,509L497,510L496,518L491,512L496,522L487,530L483,534L487,530L477,539L476,542L476,550L474,555L477,546L470,559L465,561L463,561L462,567L448,582L454,578L458,570L455,572L441,592L439,594L446,585L443,586L438,596L430,602" fill="none" stroke="#000000" style="-webkit-tap-highlight-color: rgba(0, 0, 0, 0); stroke-linecap: round; stroke-linejoin: round; stroke-width: 7;" /><path d="M436,600L431,600L428,603L424,607L423,610L423,613L422,617L420,621L415,619L413,624L413,624L414,628L410,635L410,629L409,635L409,638L407,643L407,647L407,643L405,649L406,652L405,654L405,656L404,659L405,663L404,661L404,668L405,669L406,673L405,674L404,677L402,680L400,681L400,681L406,695L408,692L405,696L404,697L407,694" fill="none" stroke="#000000" style="-webkit-tap-highlight-color: rgba(0, 0, 0, 0); stroke-linecap: round; stroke-linejoin: round; stroke-width: 7;" /><path d="M487.73,730.44L484,734L490,731L484,734L484,734L485,736L486,742L488,747L488,754L491,765L490,760L492,769L494,776L494,780L497,787L495,791L495,796L493,802L493,807L489,818L491,814L492,829L489,823L491,830L490,834L489,839L489,848L492,854L486,862L490,867L488,873L488,881L485,895L486,887L482,904L484,911L480,920L478,927L478,936L476,945L476,955L474,973L475,963L474,982L477,994L475,1003L473,1016L476,1025L474,1035L470,1052L474,1042L468,1059L468,1060L469,1076L469,1068L468,1084L467,1089L467,1110L469,1098L467,1103L470,1114L468,1119L468,1121L469,1124L465,1130" fill="none" stroke="#000000" style="-webkit-tap-highlight-color: rgba(0, 0, 0, 0); stroke-linecap: round; stroke-linejoin: round; stroke-width: 7;" /><path d="M469,1142L464,1149L467,1140L460,1158L462,1166L464,1174L462,1177L462,1168L462,1183L462,1186L461,1195L461,1190L462,1203L462,1197L462,1203L462,1209L462,1214L462,1216L463,1218L462,1220L467,1225L462,1222" fill="none" stroke="#000000" style="-webkit-tap-highlight-color: rgba(0, 0, 0, 0); stroke-linecap: round; stroke-linejoin: round; stroke-width: 7;" /><path d="M538.58,651.85L546,650L543,652L550,647L552,647L557,647L559,652L559,654L560,659L562,661L561,666L561,669L563,675L561,680L562,684L558,691L559,696L558,699L557,707L557,712L556,703L555,717L554,728L555,724L552,733L552,737L552,742L552,744L552,747L552,749L552,759L552,753L552,767L552,771L552,787L552,779L552,793L552,800L552,816L551,803L552,811L551,824L549,837L550,828L548,832L548,841L546,845L546,851L542,858L543,854L541,866L543,862L542,869L543,871L543,876L541,881L541,885L539,889L538,908L538,904L539,897L537,915L534,919L533,928L535,932L534,924L534,934L534,936L533,941L534,943L535,948L536,950L534,955L534,957L533,962L533,964L532,969L532,973L532,980L532,983L535,992L531,987L531,999L532,1002L531,1008L530,1010L530,1012L526,1024L529,1017L526,1018L528,1026L527,1031L525,1035L525,1039L525,1045L522,1053L521,1049L521,1059L521,1062L520,1068L519,1075L521,1073L520,1076L519,1079L520,1089L519,1083L520,1087" fill="none" stroke="#000000" style="-webkit-tap-highlight-color: rgba(0, 0, 0, 0); stroke-linecap: round; stroke-linejoin: round; stroke-width: 7;" /><path d="M518,1091L517,1093L516,1098L517,1095L516,1099L518,1105L516,1111L515,1106L514,1113L515,1116L515,1121L513,1122L513,1126L513,1128L512,1130L513,1135L512,1137L513,1142L513,1140L514,1147L513,1149L513,1150L513,1150L513,1150L513,1150L505,1157L505,1157L505,1157L505,1157L513,1170L513,1172L508.53,1146.51L512,1144L509,1143L506,1144L504,1143L504,1146L504,1149L502,1155L502,1150L502,1155L496,1159L499,1157L495,1160L494,1161L492,1163L489,1166L488,1170L488,1171L486,1174L485,1177" fill="none" stroke="#000000" style="-webkit-tap-highlight-color: rgba(0, 0, 0, 0); stroke-linecap: round; stroke-linejoin: round; stroke-width: 7;" /><path d="M483,1180L480,1184L478,1186L478,1186L477,1191L478,1186L475,1185L480.79,1222.79L477,1220L476,1220L484,1218L488,1223L484,1219L499,1225L492,1224L513,1229L505,1227L519,1231L524,1234L528,1235L535,1239L537,1241L541,1246L550,1248L549,1247L558,1253L553,1252L559,1255L562,1257L569,1260L566,1256L571,1262L573,1262L579,1265L576,1264L580,1266L578,1266L588,1267L585,1267L596,1268L588,1267L599,1271L594,1269L599,1271L613,1271L610,1273L611,1271L617,1270L623,1269L622,1271L615,1270L637,1269L638,1267L629,1269L631,1268L653,1265L642,1266L647,1263L646,1268L660,1257L654,1264L657,1260L655,1263L659,1254L662,1255L663,1251L661,1253L663,1247L666,1241L665,1244L663,1246L670,1232L669,1239L670,1233L669,1237L672,1229L670,1232L657,1222L672,1229L657,1220L657,1222L657,1220L656,1219L649,1209L650,1211L654,1212L643,1210L648,1199L643,1196L643,1210L642,1195L635,1192L635,1192L629,1190L627,1187" fill="none" stroke="#000000" style="-webkit-tap-highlight-color: rgba(0, 0, 0, 0); stroke-linecap: round; stroke-linejoin: round; stroke-width: 7;" /><path d="M623,1184L621,1183L619,1182L617,1181L612,1179L610,1178L608,1177L608,1177L601,1172L589,1167L594,1168L586,1166L598,1170L578,1163L583,1165L563,1154L564,1154L557,1151L557,1151L572,1162L574,1163L546,1148L546,1148L539,1146L531,1146L521,1151L521,1151L521,1151L521,1151L520,1151L515,1150L513,1150" fill="none" stroke="#000000" style="-webkit-tap-highlight-color: rgba(0, 0, 0, 0); stroke-linecap: round; stroke-linejoin: round; stroke-width: 7;" /><path d="M725.81,1250.53" fill="none" stroke="#000000" style="-webkit-tap-highlight-color: rgba(0, 0, 0, 0); stroke-linecap: round; stroke-linejoin: round; stroke-width: 7;" /><path d="M505,1156L505,1157L513,1150L505,1157" fill="none" stroke="#000000" style="-webkit-tap-highlight-color: rgba(0, 0, 0, 0); stroke-linecap: round; stroke-linejoin: round; stroke-width: 7;" /><path d="M719,1253L718,1250L716,1249L716,1249L710,1249L710,1249L705,1248L698,1250L704,1248L693,1252L689,1257L687,1259L681,1262L679,1264L677,1267L676,1269L673,1277L673,1273L670,1283L670,1290L666,1300L668,1293L666,1299L663,1304L666,1308L663,1304L666,1311L668,1310L671,1311L673,1313L676,1318L675,1317L679,1322L679,1322L685,1322L686,1322L691,1324L690,1323L696,1323L698,1323L702,1324L705,1324L706,1333L715,1327L716,1329L719,1330L724,1330L726,1330L729,1334L735,1336L740,1337L745,1341L748,1341L755,1342L760,1342L765,1344L770,1348L772,1348L778,1346L780,1350L785,1350L786,1351L791,1350L793,1352L795,1352L796,1355L796,1355L800,1357L803,1356L802,1360L804,1359L807,1358L809,1358L811,1357L814,1355L816,1354L818,1349L821,1348L824,1343L828,1341L829,1338L833,1333L830,1338L833,1333L833,1333L837,1328L837,1327L832,1322L834,1318L834,1321L832,1315L833,1309L828,1304L830,1307L825,1300L821,1299L807,1288L813,1291L818,1298L802,1279L804,1286" fill="none" stroke="#000000" style="-webkit-tap-highlight-color: rgba(0, 0, 0, 0); stroke-linecap: round; stroke-linejoin: round; stroke-width: 7;" /><path d="M794,1279L794,1279L791,1274L788,1273L779,1268L786,1272L778,1267L772,1265L767,1267L764,1264L760,1265L753,1260L753,1260L757,1260L744,1251L739,1265L726,1254L727,1254L721,1254L711,1252L717,1253L710,1250L708,1251L700,1250L703,1249L699,1254L693,1252L689,1255L691,1253L689,1252L689,1257" fill="none" stroke="#000000" style="-webkit-tap-highlight-color: rgba(0, 0, 0, 0); stroke-linecap: round; stroke-linejoin: round; stroke-width: 7;" /><path d="M344.42,1155.76L343,1149L344,1150L342,1149L340,1151L337,1150L330,1157L329,1158L326,1172L318,1171L319,1180L314,1186L309,1190L304,1198L294,1201L290,1209L289,1210L279,1226L277,1227L270,1231L269,1232L262,1243L263,1242L256,1251L260,1246L256,1251L245,1251L232,1259L232,1259L234,1262L231,1261L231,1261L221,1272L216,1279L220,1272L214,1284L217,1276L199,1294L214,1284L201,1290L194,1297L192,1299L187,1304L202,1310" fill="none" stroke="#000000" style="-webkit-tap-highlight-color: rgba(0, 0, 0, 0); stroke-linecap: round; stroke-linejoin: round; stroke-width: 7;" /><path d="M191,1318L173,1315L188,1321L160,1322L160,1322L160,1322L160,1325L160,1324L158,1328L153,1332L151,1334L157,1329L144,1345L143,1346L147,1338L144,1346L142,1346L142,1346L136,1359L142,1346L132,1366L134,1361L132,1368L129,1368L132,1371L136,1371" fill="none" stroke="#000000" style="-webkit-tap-highlight-color: rgba(0, 0, 0, 0); stroke-linecap: round; stroke-linejoin: round; stroke-width: 7;" /><path d="M325.92,633.35L318,633L320,633L318,633L314,633L312,633L311,638L311,646L312,643L313,654L313,661L311,668L311,672L313,677L315,687L314,681L313,693L314,691L313,700L315,698L313,700L320,706L321,709L321,712L317,717L316,719L316,723L315,725L318,728L317,734L317,734L321,737L319,742L319,744L319,747L321,751L321,753L321,758L320,760L321,763L321,765L320,770L321,767L320,772L320,786L324,779L323,777L325,794L325,797L331,811L326,802L331,811L332,817L335,832L333,823L333,837L335,852L335,846L335,854L333,863L330,869L334,874L334,874L335,875L328,883L331,895L332,891L332,891L331,897L332,903L333,901L333,901L330,906L330,917L329,913L331,921L332,925L332,926L329,932L331,928L328,941L329,949L328,943L332,954L333,955L332,959L331,966L333,957L334,974L334,974L337,979L337,979L337,979L341,996L341,994L341,996L341,996L329,1009L331,1021L331,1024L334,1034L334,1036L334,1043L334,1054L334,1048L334,1058L341,1067L341,1070L342,1068L341,1073L341,1073L336,1086L336,1089L342,1102L336,1093" fill="none" stroke="#000000" style="-webkit-tap-highlight-color: rgba(0, 0, 0, 0); stroke-linecap: round; stroke-linejoin: round; stroke-width: 7;" /><path d="M342,1103L344,1107L346,1111L344,1110L336,1120L354,1127L336,1120L335,1137L344,1147L344,1147L344,1150L343,1153L344,1147L345,1155L345,1155L347,1160L347,1160L349,1162L348,1161L347,1174L347,1174L342,1176L342,1179L342,1176L340,1178L340,1181L340,1182L340,1186L341,1187L342,1189L342,1195L342,1193L342,1195L343,1195L346,1202L343,1195" fill="none" stroke="#000000" style="-webkit-tap-highlight-color: rgba(0, 0, 0, 0); stroke-linecap: round; stroke-linejoin: round; stroke-width: 7;" /><path d="M691.14,718.88L687,722L689,725L685,724L682,723L679,724L684,721L688,712L686,715L693,709L698,703L703,695L705,691L713,682L710,687L718,675L717,677L724,669L727,666L730,663L734,659L736,654L742,647L740,652L748,643L756,631L761,629L754,635L762,626L766,624L767,622L770,617L771,615L773,613L776,610L778,605L781,604L785,601L786,595L793,588L791,594L795,584L796,578L802,573L803,571L807,565L811,559L817,546L812,559L823,546L825,539L825,539L828,535L829,535L831,534" fill="none" stroke="#000000" style="-webkit-tap-highlight-color: rgba(0, 0, 0, 0); stroke-linecap: round; stroke-linejoin: round; stroke-width: 7;" /><path d="M834,532L839,526L837,529L839,525L843,520L841,521L846,518L851,515L854,514L856,511L857,509L864,504L864,502L867,498L869,497L875,491L875,491L878,484L881,483L881,481L883,477L883,476L885,472L892,475L893,474L894,469L893,474" fill="none" stroke="#000000" style="-webkit-tap-highlight-color: rgba(0, 0, 0, 0); stroke-linecap: round; stroke-linejoin: round; stroke-width: 7;" /><path d="M973.15,506.22L972,498L972,498L973,501L969,498L968,502L965,506L966,504L963,508L962,513L957,514L956,518L951,528L952,521L948,531L943,536L938,541L936,546L930,555L934,549L929,558L925,563L918,569L920,567L916,574L912,578L912,580L908,582L904,587L901,589L897,592L897,594L896,599L890,601L886,610L888,602L886,610L882,616L880,619L877,623L876,626L874,630L871,633L870,638L869,640L866,645L860,652L862,650L856,656L854,661L853,664L848,668L846,671L844,675L841,679L839,681L837,687L835,689L832,693L830,696L828,697L825,703L822,705L821,706L817,710L816,712L816,712L812,717L810,719L809,720L806,723L804,723L802,727L800,726L800,728L796,729L800,730L794,733L794,734L787,737L788,737L791,736L776,750L774,750L776,750L787,737" fill="none" stroke="#000000" style="-webkit-tap-highlight-color: rgba(0, 0, 0, 0); stroke-linecap: round; stroke-linejoin: round; stroke-width: 7;" /><path d="M774,750L761,738L759,740L774,750L756,741L755,742L749,741L754,743L748,742L755.86,765.11L746,744L737,739L742,739L734,736L731,737L728,737L732,737L726,736L723,735L721,735L714,734L717,736L712,733L710,733L698,735L704,732L698,737L698,738L698,738L745,767L745,754L745,767L745,754L745,767L745,767L745,767L745,770L740,773L741,772L740,776L737,779L735,784L736,782L727,785L735,785L734,791L723,791L729,799L729,799L726,803L728,801L722,808L714,808L724,805L713,809L711,814L710,823L711,820L707,833L707,833L697,828L698,841L702,837L695,843L682,848L689,851L680,850L684,855L677,853L667,865L675,861L664,870L656,874L652,878L650,881L655,876L650,881L642,890L642,889L648,882L641,892L638,901L638,899L637,901L630,902L628,905L619,913L625,908L616,917L616,917L608,933L608,933" fill="none" stroke="#000000" style="-webkit-tap-highlight-color: rgba(0, 0, 0, 0); stroke-linecap: round; stroke-linejoin: round; stroke-width: 7;" /><path d="M607,936L606,942L606,937L603,944L600,947L599,949L596,958L599,949L593,959L592,960L592,962L592,962L592,962L575,971" fill="none" stroke="#000000" style="-webkit-tap-highlight-color: rgba(0, 0, 0, 0); stroke-linecap: round; stroke-linejoin: round; stroke-width: 7;" /><path d="M684.21,742" fill="none" stroke="#000000" style="-webkit-tap-highlight-color: rgba(0, 0, 0, 0); stroke-linecap: round; stroke-linejoin: round; stroke-width: 7;" /><path d="M575,973L575,971L573,975L572,978L560,982L570,976L570,980L560,983L556,984L560,983L548,988L546,998L546,998L547,1000L547,1001L546,1003L541,1008L541,1008L539,1010L538,1011L536,1011L537,1013" fill="none" stroke="#000000" style="-webkit-tap-highlight-color: rgba(0, 0, 0, 0); stroke-linecap: round; stroke-linejoin: round; stroke-width: 7;" /><path d="M677,744" fill="none" stroke="#000000" style="-webkit-tap-highlight-color: rgba(0, 0, 0, 0); stroke-linecap: round; stroke-linejoin: round; stroke-width: 7;" /><path d="M541,1016" fill="none" stroke="#000000" style="-webkit-tap-highlight-color: rgba(0, 0, 0, 0); stroke-linecap: round; stroke-linejoin: round; stroke-width: 7;" /><path d="M671,747L674,744L668,751L663,761L662,764L655,767L654,777L649,781L644,784L645,794L637,799L639,797L632,813L632,805L621,822L621,822L617,825L615,827L606,830L613,832L606,830L605,842L593,838L593,838L593,838L591,838L589,838L586,838L579,841L576,846L575,847" fill="none" stroke="#000000" style="-webkit-tap-highlight-color: rgba(0, 0, 0, 0); stroke-linecap: round; stroke-linejoin: round; stroke-width: 7;" /><path d="M575,847L570,852L570,852L571,870L571,870L570,870L570,870L559,869L564,876L558,875L557,878L557,878L557,880L555,883L554,885L551,888L550,890L548,892L546,896L541,899L541,899L544,895L541,901L539,904L539,906L542,907" fill="none" stroke="#000000" style="-webkit-tap-highlight-color: rgba(0, 0, 0, 0); stroke-linecap: round; stroke-linejoin: round; stroke-width: 7;" /><path d="M785.91,788.23L785,792L785,791L791,786L781,793L773,797L778,793L773,811L772,814L770,816L770,822L766,828L766,830L763,837L765,834L758,841L755,846L751,851L743,857L747,854L742,862L739,865L734,869L733,870L727,876L723,881L717,887L711,892L721,885L709,895L707,898L705,901L702,904L700,904L693,915L689,919L688,922L684,926L679,932L677,934L675,937L673,940L671,943L668,948L668,948L662,955L661,955L659,956L660,959L657,963L654,966L653,967L651,971L649,971L647,977L645,978L644,980L644,982L639,984L638,986L639,989L636,992L636,993L633,995L630,998L626,1003L624,1005L625,1008L625,1008L625,1008L625,1008L608,1021L608,1021L609,1022L603,1026L602,1029L599,1030L598,1031L598,1031L609,1023L598,1031L629,999L608,1048L608,1048L608,1048L608,1048L615,1050L610,1048L617,1050L618,1050L623,1047L624,1047L626,1047L628,1047L632,1053L632,1054L632,1054L635,1053L635,1053L631,1060L652,1068L651,1070L651,1070L651,1070L652,1072L653,1074L655,1078L654,1077L657,1084L655,1081" fill="none" stroke="#000000" style="-webkit-tap-highlight-color: rgba(0, 0, 0, 0); stroke-linecap: round; stroke-linejoin: round; stroke-width: 7;" /><path d="M659,1088L658,1093L660,1091L658,1086L657,1096L653,1099L648,1100L653,1099L645,1103L643,1105L636,1107L641,1107L634,1109L637,1116L636,1118L635,1120L631,1124L635,1120L626,1118L631,1124L618,1129L626,1131L625,1132L629,1128L617,1138L613,1138L617,1138L615,1138L613,1138L609,1139L606,1140L609,1139L617,1139L617,1157" fill="none" stroke="#000000" style="-webkit-tap-highlight-color: rgba(0, 0, 0, 0); stroke-linecap: round; stroke-linejoin: round; stroke-width: 7;" /><path d="M661.09,968.52L657,964L659,962L658,963L659,956L661,955L663,947L671,943L684,925L677,934L693,912L706,897L712,889L698,904L732,855L722,869L717,881L727,863L740,848L750,837L759,833L745,842L761,824L765,821L773,811L770,816L786,809L784,812L786,809L788,807L793,803L798,804L800,801L805,802L814,792L806,800L812,798L813,797L817,787L822,781L825,776L818,785L829,772L840,752L834,765L839,759L848,746L858,732L854,741L858,732L863,728L875,716L866,724L869,718L877,713L886,703L883,706L884,709L896,692L897,689L886,700L887,698L899,684L906,675L908,673L901,680L916,664L920,660L912,668L917,661L923,656L926,652L927,643L926,652L927,643L934,638L938,628L935,633L940,622L941,619L938,628L943,616" fill="none" stroke="#000000" style="-webkit-tap-highlight-color: rgba(0, 0, 0, 0); stroke-linecap: round; stroke-linejoin: round; stroke-width: 7;" /><path d="M944,611L944,615L945,612L947,606L952,601L950,606L950,603L954,599L954,589L954,597L953,594L957,586L957,586L968,587L968,587L958,584L968,587L969,588L974,589L969,588L985,594L980,591L974,589L985,594" fill="none" stroke="#000000" style="-webkit-tap-highlight-color: rgba(0, 0, 0, 0); stroke-linecap: round; stroke-linejoin: round; stroke-width: 7;" /><path d="M836.77,580.19" fill="none" stroke="#000000" style="-webkit-tap-highlight-color: rgba(0, 0, 0, 0); stroke-linecap: round; stroke-linejoin: round; stroke-width: 7;" /><path d="M985,594L990,617L994,596L989,617L1000,610L1000,610L1000,610L1000,610L1002,610" fill="none" stroke="#000000" style="-webkit-tap-highlight-color: rgba(0, 0, 0, 0); stroke-linecap: round; stroke-linejoin: round; stroke-width: 7;" /><path d="M834,579L833,579" fill="none" stroke="#000000" style="-webkit-tap-highlight-color: rgba(0, 0, 0, 0); stroke-linecap: round; stroke-linejoin: round; stroke-width: 7;" /><path d="M1002,610" fill="none" stroke="#000000" style="-webkit-tap-highlight-color: rgba(0, 0, 0, 0); stroke-linecap: round; stroke-linejoin: round; stroke-width: 7;" /><path d="M830,578L828,578L821,573L823,577L821,575L825,577L830,578L837,580L844,583L851,587" fill="none" stroke="#000000" style="-webkit-tap-highlight-color: rgba(0, 0, 0, 0); stroke-linecap: round; stroke-linejoin: round; stroke-width: 7;" /><path d="M858,593L864,591L871,596L876,593L883,596L884,596L881,596L888,596L890,596L896,596L892,596" fill="none" stroke="#000000" style="-webkit-tap-highlight-color: rgba(0, 0, 0, 0); stroke-linecap: round; stroke-linejoin: round; stroke-width: 7;" /><path d="M679.58,788.23L677,786L670,786L673,785L668,784L666,784L663,785L666,784L668,784L677,791L683,793" fill="none" stroke="#000000" style="-webkit-tap-highlight-color: rgba(0, 0, 0, 0); stroke-linecap: round; stroke-linejoin: round; stroke-width: 7;" /><path d="M685,797L689,799L691,800L691,801L690,804L698.08,848.33L690,851L696,848L689,851" fill="none" stroke="#000000" style="-webkit-tap-highlight-color: rgba(0, 0, 0, 0); stroke-linecap: round; stroke-linejoin: round; stroke-width: 7;" /><path d="M690,851L695,853L689,851L700,855L705,857L707,857" fill="none" stroke="#000000" style="-webkit-tap-highlight-color: rgba(0, 0, 0, 0); stroke-linecap: round; stroke-linejoin: round; stroke-width: 7;" /><path d="M790.54,1109.53L794,1108L790,1113L790,1113L776,1097L776,1097L776,1097L769,1100L768,1099L769,1100L765,1097L749,1111L749,1111L744,1107L751,1090L743,1105L751,1090L751,1090L750,1086L750,1088L741,1078L750,1086L741,1078L741,1075L740,1076L739,1073L738,1068L734,1066L733,1065L734,1059L734,1056L733,1053L735,1038L734,1050L731,1045L736,1033L736,1026L739,1025L741,1020L744,1014L749,1008L752,1003L749,997L758,981L755,992L756,986L760,977L764,972L766,969L768,966L769,958L771,950L772,948L781,936L778,941L783,927L791,917L787,922L790,913L792,905L804,891L792,904L804,891L805,888L824,869L810,876L825,866L810,876L829,863L839,850L834,857L844,848L846,844L855,833L860,832L852,842" fill="none" stroke="#000000" style="-webkit-tap-highlight-color: rgba(0, 0, 0, 0); stroke-linecap: round; stroke-linejoin: round; stroke-width: 7;" /><path d="M862,827L869,821L872,816L867,823L877,813L877,810L883,807L886,802L890,797L898,789L893,795L896,792L901,784L906,777L912,771L914,762L922,757L925,750L930,747L933,740L938,733L946,726L942,730L950,716L955,714L956,714L963,707L959,711L964,705L964,703L975,699L973,703L975,699L979,693L979,693L982,690L984,688L985,684L987,682L987,685L988,680L990,677L994,673L992,676L992,675L993,670L996,671L996,668L998,667L1002,663" fill="none" stroke="#000000" style="-webkit-tap-highlight-color: rgba(0, 0, 0, 0); stroke-linecap: round; stroke-linejoin: round; stroke-width: 7;" /><path d="M765.11,1176.56" fill="none" stroke="#000000" style="-webkit-tap-highlight-color: rgba(0, 0, 0, 0); stroke-linecap: round; stroke-linejoin: round; stroke-width: 7;" /><path d="M1002,666" fill="none" stroke="#000000" style="-webkit-tap-highlight-color: rgba(0, 0, 0, 0); stroke-linecap: round; stroke-linejoin: round; stroke-width: 7;" /><path d="M762,1179L763,1174L765,1167L767,1162L770,1155L772,1150L777,1146L779,1142L778,1137L784,1135L786,1129L787,1125L788,1120L791,1116L793,1114L794,1112L795,1106L796,1110L797,1102L800,1097L797,1099L802,1093L803,1088L809,1075L809,1081L816,1070L818,1068L820,1059L825,1053L828,1048L826,1051L832,1040L839,1031L838,1036L830,1046L846,1015L841,1026L848,1010L845,1019L853,1006L855,1000L861,996L862,992L867,979L864,984L867,977L865,990L871,964L871,969L869,976L873,962L875,952L875,957L878,945L878,949L881,944L882,938L883,936L883,932L888,927L890,920L888,922L885,927L895,912L897,911L899,907L901,906L903,901L908,900L889,918L893,915L916,895L912,897L922,888L918,893L927,885L929,884L932,878L934,876" fill="none" stroke="#000000" style="-webkit-tap-highlight-color: rgba(0, 0, 0, 0); stroke-linecap: round; stroke-linejoin: round; stroke-width: 7;" /><path d="M934,874L936,870L938,865L938,869L939,862L941,859L942,859L943,853L945,853L949,848L947,851L947,853L952,847L955,843L951,846L957,841L956,839L959,838L963,832L958,834L961,829L967,825L964,827L964,832L969,822L970,822L973,818L973,816L975,815L977,811L975,815L980,808L977,809L980,806L982,807" fill="none" stroke="#000000" style="-webkit-tap-highlight-color: rgba(0, 0, 0, 0); stroke-linecap: round; stroke-linejoin: round; stroke-width: 7;" /><path d="M991.64,973.15" fill="none" stroke="#000000" style="-webkit-tap-highlight-color: rgba(0, 0, 0, 0); stroke-linecap: round; stroke-linejoin: round; stroke-width: 7;" /><path d="M982,804L986,804L986,802L987,799L989,799L989,796L992,796L992,794L996,793L994,795L999,792L998,791L1000,791L1000,788L1000,788L1000,786L1000,786L1000,793L1000,788" fill="none" stroke="#000000" style="-webkit-tap-highlight-color: rgba(0, 0, 0, 0); stroke-linecap: round; stroke-linejoin: round; stroke-width: 7;" /><path d="M994,966L994,969L992,966L991,970L989,973L987,976L986,982L985,984L982,989L980,990L980,990L980,990L968,993L965,1014L965,1014L965,1014L964,1019L965,1017L962,1021L962,1021L952,1029L952,1033L952,1036L950,1040L945,1039L943,1039L930,1059L930,1048L930,1059L930,1061L930,1061L930,1061L928,1063L924,1069L923,1073L923,1074L923,1074L921,1077L924,1085L922,1085L921,1089L922,1091L920,1095L921,1093L917,1103L916,1100L914,1107L914,1107L909,1116L917,1111" fill="none" stroke="#000000" style="-webkit-tap-highlight-color: rgba(0, 0, 0, 0); stroke-linecap: round; stroke-linejoin: round; stroke-width: 7;" /><path d="M907,1119L905,1122L899,1133L899,1133L895,1140L903,1127L893,1147L893,1146L889,1151L890,1147L888,1153L882,1158L884,1161L884,1161L875,1172L881,1169L878,1170L871,1175L870,1183L870,1181L865,1192L866,1188" fill="none" stroke="#000000" style="-webkit-tap-highlight-color: rgba(0, 0, 0, 0); stroke-linecap: round; stroke-linejoin: round; stroke-width: 7;" /><path d="M772.05,1181.18" fill="none" stroke="#000000" style="-webkit-tap-highlight-color: rgba(0, 0, 0, 0); stroke-linecap: round; stroke-linejoin: round; stroke-width: 7;" /><path d="M859,1196L857,1205L858,1200L861,1193L851,1214L851,1216L853,1211L853,1207L847,1217L848,1221L848,1223L848,1226L846,1231L846,1227L848,1226" fill="none" stroke="#000000" style="-webkit-tap-highlight-color: rgba(0, 0, 0, 0); stroke-linecap: round; stroke-linejoin: round; stroke-width: 7;" /><path d="M770,1181L771,1179L772,1173L773,1177L774,1171L774,1169L777,1166L779,1161L778,1163L781,1158L783,1157L787,1151L786,1149L784,1153L789,1149L793,1143L791,1144L795,1139L798,1135L799,1133L803,1126L802,1128L807,1123L808,1121L809,1116L808,1119L812,1114L811,1112L814,1110L814,1107L819,1103L816,1104L821,1096L823,1090L818,1097L820,1091L822,1086L825,1082L827,1079L827,1075L832,1068L828,1073L835,1060L832,1066L844,1049L842,1052L839,1055L837,1059L846,1045L851,1037L854,1033L849,1040L860,1026L865,1018L862,1024L857,1032L869,1011L871,1005L866,1017L869,1011L874,1003L875,1001L880,992L878,996L886,981L885,987L883,989L885,987L890,975L890,975L895,973L889,979L897,964L899,959L897,964L899,958L901,953L906,948L900,954L904,944L908,940L908,938L906,943L911,936L912,935L915,929L919,929L915,931L918,926L920,927L922,926L925,923L925,923L929,922L932,922L934,922L936,923L941,923L938,923L943,923L945,923L950,921L955,924L952,924L948,922L956,927L959,927L959,929L959,927L965,926L967,927L968,928L970,935L970,935L970,935L971,943L970,944L970,935L969,946L968,948L970,950L969,952L966,954L966,957L964,962L962,964L961,966L959,968L957,973L959,970L956,975L955,978L955,979L952,982L950,984L951,989L947,992L945,994L943,999L940,1002L938,1008" fill="none" stroke="#000000" style="-webkit-tap-highlight-color: rgba(0, 0, 0, 0); stroke-linecap: round; stroke-linejoin: round; stroke-width: 7;" /><path d="M937,1012L934,1017L932,1022L929,1026L927,1033L927,1029L922,1041L925,1037L918,1052L920,1048L913,1055L912,1061L911,1063L907,1068L906,1072L904,1076L901,1078L899,1084L892,1091L895,1089L889,1096L889,1098L885,1104L889,1099L882,1110L884,1107L883,1111L880,1113L883,1117L877,1119L877,1121L876,1123L876,1125L873,1132L871,1134L869,1139L869,1139L867,1142" fill="none" stroke="#000000" style="-webkit-tap-highlight-color: rgba(0, 0, 0, 0); stroke-linecap: round; stroke-linejoin: round; stroke-width: 7;" /><path d="M624.11,1153.44" fill="none" stroke="#000000" style="-webkit-tap-highlight-color: rgba(0, 0, 0, 0); stroke-linecap: round; stroke-linejoin: round; stroke-width: 7;" /><path d="M864,1147L864,1148L861,1153L862,1156L860,1158L857,1161L855,1169L856,1168L851,1175L846,1181L843,1187L851,1178L842,1188L838,1195L836,1199L835,1198L837,1196L836,1199" fill="none" stroke="#000000" style="-webkit-tap-highlight-color: rgba(0, 0, 0, 0); stroke-linecap: round; stroke-linejoin: round; stroke-width: 7;" /><path d="M623,1152" fill="none" stroke="#000000" style="-webkit-tap-highlight-color: rgba(0, 0, 0, 0); stroke-linecap: round; stroke-linejoin: round; stroke-width: 7;" /><path d="M836,1199" fill="none" stroke="#000000" style="-webkit-tap-highlight-color: rgba(0, 0, 0, 0); stroke-linecap: round; stroke-linejoin: round; stroke-width: 7;" /><path d="M625,1150L623,1152L625,1150L623,1152L617,1139L617,1139L617,1139L620,1140L622,1140L627,1142L635,1148L629,1144L633,1143L638,1149L647,1147L644,1146L653,1148L659,1150L666,1154L655,1149L662,1153L675,1154L677,1154L671,1155L668,1155L680,1167L690,1156L680,1167L680,1167L693,1158L696,1160L698,1162L698,1162L700,1162L703,1171L707,1170L705,1170L707,1172L708,1172L708,1172L708,1172L718,1184L721,1183L727,1181L724,1172L728,1181L734,1182L740,1184L734,1181L742,1188L755,1193L752,1189L747,1190L756,1195L761,1193L767,1197L767,1197L769,1198L774,1199L777,1201L773,1199L779,1201L788,1204L780,1200L785,1207L788,1204L795,1204L792,1204L793,1204L798,1204L800,1205L806,1207L800,1206L807,1209L809,1209L813,1214L817,1214L810,1210L816,1217L820,1216L823,1218L821,1218L825,1218L830,1225L834,1227L838,1230L828,1223L838,1233L845,1234L844,1233L847,1237" fill="none" stroke="#000000" style="-webkit-tap-highlight-color: rgba(0, 0, 0, 0); stroke-linecap: round; stroke-linejoin: round; stroke-width: 7;" /><path d="M850,1238L854,1239L855,1241L857,1241L859,1241L865,1244L867,1246L862,1244L869,1246L871,1248L874,1252L874,1247L876,1250L879,1252L881,1255L884,1257L884,1257L888,1259L890,1262L892,1262L894,1264L898,1266L898,1264L903,1268L907,1268L908,1271L915,1273L910,1274L918,1276L920,1275L922,1278L927,1281L925,1278L929,1280L934,1284L933,1283L934,1282L936,1285L945,1291L944,1288L936,1286L945,1291L945,1294L944,1300L946,1295" fill="none" stroke="#000000" style="-webkit-tap-highlight-color: rgba(0, 0, 0, 0); stroke-linecap: round; stroke-linejoin: round; stroke-width: 7;" /><path d="M846.01,1329.12" fill="none" stroke="#000000" style="-webkit-tap-highlight-color: rgba(0, 0, 0, 0); stroke-linecap: round; stroke-linejoin: round; stroke-width: 7;" /><path d="M945,1300L947,1300L951,1297L947,1300L951,1297L953,1296L953,1296L951,1297" fill="none" stroke="#000000" style="-webkit-tap-highlight-color: rgba(0, 0, 0, 0); stroke-linecap: round; stroke-linejoin: round; stroke-width: 7;" /><path d="M848,1329L851,1328L857,1334L854,1331L853,1331L862,1336" fill="none" stroke="#000000" style="-webkit-tap-highlight-color: rgba(0, 0, 0, 0); stroke-linecap: round; stroke-linejoin: round; stroke-width: 7;" /><path d="M868,1333L879,1342L885,1342L891,1341L897,1341L895,1341L898,1338" fill="none" stroke="#000000" style="-webkit-tap-highlight-color: rgba(0, 0, 0, 0); stroke-linecap: round; stroke-linejoin: round; stroke-width: 7;" /><path d="M351.35,1273.64L352,1271L352,1271L352,1271L348,1278L333,1270L337,1282L339,1282L336,1284L337,1282L337,1293L331,1296L327,1297L324,1296L320,1308L320,1307L318,1312L313,1314L310,1324L312,1316L302,1326L305,1323L299,1330L299,1329L301,1335L286,1341L287,1344L282,1347L280,1349L276,1353L274,1357L273,1359L269,1363L272,1360L267,1364L265,1366" fill="none" stroke="#000000" style="-webkit-tap-highlight-color: rgba(0, 0, 0, 0); stroke-linecap: round; stroke-linejoin: round; stroke-width: 7;" /><path d="M264,1368L263,1369L261,1372L259,1374L255,1377L256,1379L249,1386L249,1386L250,1387" fill="none" stroke="#000000" style="-webkit-tap-highlight-color: rgba(0, 0, 0, 0); stroke-linecap: round; stroke-linejoin: round; stroke-width: 7;" /><path d="M392.96,1197.36L388,1194L389,1195L387,1193L384,1192L379,1193L380,1190L380,1190L379,1191L378,1194L371,1197L368,1203L370,1200L365,1207L361,1213L359,1216L354,1221L352,1227L349,1231L343,1237L337,1244L342,1239L335,1247L331,1253L329,1256L326,1259L324,1265L319,1269L314,1276L317,1271L312,1278L307,1285L305,1288L301,1292L309,1282L296,1297L300,1295L295,1298L290,1300L289,1303L290,1306L287,1309L282,1312L279,1315L277,1319L275,1324L269,1327L269,1329L266,1334" fill="none" stroke="#000000" style="-webkit-tap-highlight-color: rgba(0, 0, 0, 0); stroke-linecap: round; stroke-linejoin: round; stroke-width: 7;" /><path d="M263,1338L260,1342L257,1343L255,1345L252,1348L249,1352L247,1356L245,1358L244,1361L241,1364L237,1369L233,1373L229,1380L227,1384L225,1387L225,1387L225,1387" fill="none" stroke="#000000" style="-webkit-tap-highlight-color: rgba(0, 0, 0, 0); stroke-linecap: round; stroke-linejoin: round; stroke-width: 7;" /><path d="M381.4,1195.05" fill="none" stroke="#000000" style="-webkit-tap-highlight-color: rgba(0, 0, 0, 0); stroke-linecap: round; stroke-linejoin: round; stroke-width: 7;" /><path d="M232,1380" fill="none" stroke="#000000" style="-webkit-tap-highlight-color: rgba(0, 0, 0, 0); stroke-linecap: round; stroke-linejoin: round; stroke-width: 7;" /><path d="M378,1195L377,1196L371,1197L371,1197L370,1197L370,1200L370,1203L390,1196L394,1198L402,1215L402,1215L415,1215L405,1214L416,1214L424,1216" fill="none" stroke="#000000" style="-webkit-tap-highlight-color: rgba(0, 0, 0, 0); stroke-linecap: round; stroke-linejoin: round; stroke-width: 7;" /><path d="M428,1212L424,1216L428,1212L433,1214L440,1218L437,1218L440,1216L445,1217L444,1222L444,1220L416.07,1271.33L404,1272L404,1272L404,1272L402,1271L402,1275L402,1278L399,1284L396,1288L395,1291L400,1306L396,1311L396,1311L387,1324L391,1321L386,1326L385,1327L385,1329L383,1334L382,1335L382,1335L369,1345L369,1345L369,1345L369,1345L367,1348L367,1348L359,1361L362,1356L358,1363L362,1356" fill="none" stroke="#000000" style="-webkit-tap-highlight-color: rgba(0, 0, 0, 0); stroke-linecap: round; stroke-linejoin: round; stroke-width: 7;" /><path d="M337,1361L356,1368L332,1366L356,1368L341,1386L335,1388L333,1388L333,1388L331,1388L328,1388L328,1388L326,1388L324,1411L324,1411L326,1411L324,1411" fill="none" stroke="#000000" style="-webkit-tap-highlight-color: rgba(0, 0, 0, 0); stroke-linecap: round; stroke-linejoin: round; stroke-width: 7;" /><path d="M434.56,1257.46" fill="none" stroke="#000000" style="-webkit-tap-highlight-color: rgba(0, 0, 0, 0); stroke-linecap: round; stroke-linejoin: round; stroke-width: 7;" /><path d="M324,1411" fill="none" stroke="#000000" style="-webkit-tap-highlight-color: rgba(0, 0, 0, 0); stroke-linecap: round; stroke-linejoin: round; stroke-width: 7;" /><path d="M429,1258L428,1258L425,1256L425,1261L425,1259L428,1264L432,1267L440,1273L437,1271L448,1278L452,1280L460,1284L467,1282L478,1284L475,1285L480,1289L489,1287L493,1293" fill="none" stroke="#000000" style="-webkit-tap-highlight-color: rgba(0, 0, 0, 0); stroke-linecap: round; stroke-linejoin: round; stroke-width: 7;" /><path d="M490,1291L495,1293L495,1290L499.29,1285.2L495,1280L495,1283L490,1281L492,1277L495,1274L492,1276L500,1271L501,1269L506,1267L504,1271L508,1268L511,1269L513,1274L516,1276L520,1282L520,1288L523,1293L523,1290L533,1296L534,1298L539,1301L545,1304L548,1301L548,1303L550,1305L552,1308L552,1310L550,1310L548,1313L548,1315L546,1317L546,1320L544,1325L543,1327L546,1332L542,1329L541,1339L550,1339L552,1343L551,1341L553,1346L558,1355L557,1348L558,1354L564,1356L577,1360L575,1359L571,1354L583,1361L583,1361L590,1361L595,1361L591,1361L596,1360L598,1358L598,1358L599,1357L600,1352L599,1347L599,1355L601,1343L601,1342L605,1336L608,1334L603,1337L610,1336L615,1337L615,1338L613,1335L617,1339L620,1341L623,1340L625,1342L626,1342L631,1344L629,1343L633,1345L634,1345L642,1349L642,1349L644,1348L647,1349L650,1350L655,1351L651,1350L656,1351L661,1350L665,1354L664,1355L665,1354" fill="none" stroke="#000000" style="-webkit-tap-highlight-color: rgba(0, 0, 0, 0); stroke-linecap: round; stroke-linejoin: round; stroke-width: 7;" /><path d="M671,1350L667,1351L679,1355L679,1355L680,1357L682,1356L684,1359L689,1359L691,1361L693,1363L697,1366L700,1368L704,1371L705,1372L712,1379L707,1377L719,1381L714,1379L726,1381L724,1381L729,1382L733,1382L736,1382L742,1382L743,1382L749,1383" fill="none" stroke="#000000" style="-webkit-tap-highlight-color: rgba(0, 0, 0, 0); stroke-linecap: round; stroke-linejoin: round; stroke-width: 7;" /><path d="M943.1,406.83L933,404L932,405L933,404L932,405L928,406L925,413L927,415L927,415L945,418L967,425L967,425L973,427L978,430L980,432L980,433" fill="none" stroke="#000000" style="-webkit-tap-highlight-color: rgba(0, 0, 0, 0); stroke-linecap: round; stroke-linejoin: round; stroke-width: 7;" /><path d="M984,432L982,432L933.85,381.4L929,386L946,393L954,397L964,398L967,397L967,397" fill="none" stroke="#000000" style="-webkit-tap-highlight-color: rgba(0, 0, 0, 0); stroke-linecap: round; stroke-linejoin: round; stroke-width: 7;" /><path d="M967,397L967,397L940.79,353.66L930,351L930,351L936,363L939,365L959,363L971,365L982,365L989,368" fill="none" stroke="#000000" style="-webkit-tap-highlight-color: rgba(0, 0, 0, 0); stroke-linecap: round; stroke-linejoin: round; stroke-width: 7;" /><path d="M994,368L1005,365L963.9,328.23L959,326L971,326L980,326L989,328L1005,331" fill="none" stroke="#000000" style="-webkit-tap-highlight-color: rgba(0, 0, 0, 0); stroke-linecap: round; stroke-linejoin: round; stroke-width: 7;" /><path d="M1005,333L1005,333L1005,331L968.52,295.87L973,296L980,298L985,300L992,303" fill="none" stroke="#000000" style="-webkit-tap-highlight-color: rgba(0, 0, 0, 0); stroke-linecap: round; stroke-linejoin: round; stroke-width: 7;" /><path d="M1006,303L1006,305L1006,303L1006,300L1006,298L977.77,263.51L978,257L978,261L975,257L982,264" fill="none" stroke="#000000" style="-webkit-tap-highlight-color: rgba(0, 0, 0, 0); stroke-linecap: round; stroke-linejoin: round; stroke-width: 7;" /><path d="M987,268L989,270L992,270L994,270L973.15,231.15L973,227L978,227L987,229L980,229" fill="none" stroke="#000000" style="-webkit-tap-highlight-color: rgba(0, 0, 0, 0); stroke-linecap: round; stroke-linejoin: round; stroke-width: 7;" /><path d="M992,229L994,229L996,229L1007,229" fill="none" stroke="#000000" style="-webkit-tap-highlight-color: rgba(0, 0, 0, 0); stroke-linecap: round; stroke-linejoin: round; stroke-width: 7;" /><path d="M894.56,1391.53L891,1395L896,1390L891,1395L879,1385L882,1381L887,1378L887,1378L887,1378L890,1378L890,1378L890,1373L890,1373L893,1369L893,1369L893,1369L898,1356L902,1360L898,1356L899,1352L902,1350L901,1347L904,1345L906,1343L906,1342L907,1338L907,1335L911,1331L911,1331L917,1321L918,1321L920,1317L920,1315L922,1313L926,1309L927,1306L928,1304L932,1301L933,1298L936,1296L936,1296L936,1296L944,1288L944,1288L945,1286L945,1279L948,1279L948,1279L948,1279L956,1276L952,1263L952,1263L952,1263L952,1262L952,1251L938,1257L951,1248L952,1260L948,1244L948,1244L947,1237L947,1239" fill="none" stroke="#000000" style="-webkit-tap-highlight-color: rgba(0, 0, 0, 0); stroke-linecap: round; stroke-linejoin: round; stroke-width: 7;" /></svg>