<?xml version="1.0" encoding="utf-8" ?>
<svg baseProfile="full" height="1425" version="1.1" width="1024" xmlns="http://www.w3.org/2000/svg" xmlns:ev="http://www.w3.org/2001/xml-events" xmlns:xlink="http://www.w3.org/1999/xlink"><defs /><path d="M305.16,38.3L305.16,35.75L302.6,33.2L300.05,38.3L300.05,40.86L300.05,48.52L300.05,56.18L300.05,63.84L300.05,74.05L300.05,84.27L300.05,91.93L300.05,102.14L300.05,112.36L300.05,120.02L300.05,127.68L300.05,135.34L302.6,145.56L302.6,155.77L302.6,165.99L302.6,176.2L302.6,183.86L302.6,194.07L302.6,201.74L302.6,211.95L302.6,219.61L302.6,229.83L302.6,240.04L305.16,250.25L305.16,260.47L305.16,270.68L307.71,280.9L307.71,291.11L307.71,301.33L307.71,306.43L310.26,319.2L310.26,326.86L310.26,334.52L310.26,342.18L310.26,349.85L310.26,360.06L310.26,367.72L310.26,377.94L312.82,385.6L312.82,395.81L312.82,403.47L312.82,413.69L312.82,423.9L312.82,434.11L315.37,441.78L315.37,451.99L315.37,459.65L315.37,469.87L317.93,477.53L317.93,495.4L320.48,500.51L320.48,508.17L320.48,515.83L320.48,523.49L320.48,531.15L323.03,538.81L323.03,546.47L323.03,551.58L323.03,559.24L323.03,569.46L323.03,579.67L323.03,589.89L323.03,597.55L323.03,607.76L325.59,617.98L325.59,628.19L325.59,638.4L325.59,646.06L323.03,653.73L323.03,661.39L323.03,666.49L323.03,674.15L323.03,679.26L323.03,684.37L323.03,692.03L323.03,699.69L323.03,707.35L323.03,715.01L323.03,722.67L323.03,730.33L323.03,740.55L323.03,748.21L323.03,755.87L323.03,766.08L323.03,773.75L323.03,781.41L325.59,786.51L325.59,791.62L325.59,801.84L325.59,812.05L325.59,819.71L325.59,827.37L325.59,835.03L325.59,842.69L328.14,852.91L328.14,860.57L328.14,868.23L328.14,875.89L328.14,886.1L328.14,896.32L328.14,906.53L328.14,914.19L330.69,924.41L330.69,934.62L330.69,944.84L330.69,955.05L333.25,965.27L333.25,978.03L333.25,995.91L333.25,1006.12L333.25,1013.79L333.25,1021.45L335.8,1031.66L335.8,1041.88L335.8,1052.09L338.35,1057.2L338.35,1064.86L338.35,1072.52L338.35,1080.18L338.35,1085.29L338.35,1092.95L338.35,1100.61L338.35,1105.72L338.35,1110.82L338.35,1118.48L338.35,1128.7L338.35,1138.91L338.35,1146.57L338.35,1156.79L335.8,1161.9L333.25,1164.45L333.25,1161.9" fill="none" stroke="#000000" style="-webkit-tap-highlight-color: rgba(0, 0, 0, 0); stroke-linecap: round; stroke-linejoin: round; stroke-width: 7;" /><path d="M338.35,1154.23L335.8,1156.79L335.8,1159.34L333.25,1161.9L328.14,1169.56L323.03,1177.22L315.37,1184.88L307.71,1195.09L297.5,1202.75L289.84,1212.97L279.62,1223.18L271.96,1230.84L264.3,1241.06L256.64,1248.72L246.42,1258.93L238.76,1269.15L228.55,1276.81L220.89,1284.47L213.23,1292.13L205.57,1299.79L200.46,1307.45L195.35,1312.56L187.69,1317.67L182.58,1325.33L174.92,1332.99L164.71,1340.65L157.05,1348.31L146.83,1355.97L139.17,1363.63L131.51,1373.85L123.85,1381.51L118.74,1386.61L118.74,1389.17" fill="none" stroke="#000000" style="-webkit-tap-highlight-color: rgba(0, 0, 0, 0); stroke-linecap: round; stroke-linejoin: round; stroke-width: 7;" /><path d="M381.77,1195.09L376.66,1192.54L374.1,1195.09L374.1,1200.2L371.55,1205.31L366.44,1212.97L361.34,1218.07L353.68,1225.74L346.01,1235.95L335.8,1246.16L328.14,1253.83L317.93,1264.04L310.26,1271.7L302.6,1281.92L297.5,1292.13L289.84,1302.34L284.73,1310L279.62,1317.67L274.51,1325.33L266.85,1332.99L261.75,1343.2L254.08,1350.86L243.87,1358.52L238.76,1366.18L233.66,1371.29L231.1,1373.85L231.1,1376.4L228.55,1376.4" fill="none" stroke="#000000" style="-webkit-tap-highlight-color: rgba(0, 0, 0, 0); stroke-linecap: round; stroke-linejoin: round; stroke-width: 7;" /><path d="M402.19,1218.07L399.64,1218.07L397.09,1218.07L394.53,1220.63L391.98,1225.74L386.87,1230.84L381.77,1235.95L374.1,1243.61L366.44,1251.27L361.34,1258.93L353.68,1266.59L346.01,1274.25L338.35,1281.92L330.69,1289.58L320.48,1297.24L315.37,1304.9L307.71,1315.11L300.05,1322.77L292.39,1332.99L284.73,1340.65L279.62,1348.31L274.51,1353.42L269.41,1358.52L266.85,1361.08L261.75,1363.63L259.19,1366.18" fill="none" stroke="#000000" style="-webkit-tap-highlight-color: rgba(0, 0, 0, 0); stroke-linecap: round; stroke-linejoin: round; stroke-width: 7;" /><path d="M409.86,1256.38L407.3,1256.38L404.75,1261.49L397.09,1274.25L391.98,1284.47L384.32,1294.68L379.21,1304.9L371.55,1315.11L369,1322.77L363.89,1330.43L358.78,1338.09L353.68,1345.76L351.12,1350.86L346.01,1355.97L340.91,1363.63L335.8,1368.74L330.69,1373.85L328.14,1381.51L323.03,1386.61L315.37,1394.27L312.82,1399.38" fill="none" stroke="#000000" style="-webkit-tap-highlight-color: rgba(0, 0, 0, 0); stroke-linecap: round; stroke-linejoin: round; stroke-width: 7;" /><path d="M348.57,1159.34L348.57,1156.79L351.12,1159.34L358.78,1169.56L363.89,1177.22L366.44,1182.32L371.55,1187.43L374.1,1192.54L376.66,1195.09L379.21,1200.2L381.77,1202.75L384.32,1205.31L386.87,1207.86L389.43,1210.41L389.43,1212.97L391.98,1215.52L394.53,1218.07L397.09,1220.63L399.64,1223.18L402.19,1225.74L404.75,1228.29L407.3,1233.4L409.86,1235.95L412.41,1235.95L417.52,1238.5L420.07,1241.06L425.18,1243.61L427.73,1246.16L432.84,1246.16L437.95,1248.72L443.05,1248.72L448.16,1251.27L453.27,1251.27L458.37,1253.83" fill="none" stroke="#000000" style="-webkit-tap-highlight-color: rgba(0, 0, 0, 0); stroke-linecap: round; stroke-linejoin: round; stroke-width: 7;" /><path d="M560.52,638.4L557.97,640.96L552.86,643.51L545.2,648.62L537.54,656.28L532.43,658.83L527.32,661.39L519.66,669.05L517.11,671.6L514.55,676.71L514.55,681.82L512,686.92L512,694.58L512,704.8L509.45,712.46L509.45,720.12L509.45,730.33L506.89,740.55L506.89,748.21L506.89,758.42L504.34,766.08L504.34,773.75L504.34,781.41L504.34,791.62L504.34,799.28L501.79,809.5L501.79,817.16L501.79,827.37L501.79,835.03L499.23,842.69L499.23,852.91L499.23,863.12L496.68,870.78L496.68,881L494.12,888.66L494.12,898.87L494.12,906.53L494.12,914.19L491.57,921.86L491.57,929.52L491.57,939.73L491.57,944.84L491.57,952.5L491.57,962.71L491.57,970.37L489.02,980.59L489.02,988.25L486.46,995.91L486.46,1006.12L483.91,1018.89L483.91,1029.11L481.36,1039.32L481.36,1049.54L478.8,1057.2L478.8,1064.86L478.8,1072.52L476.25,1080.18L476.25,1087.84L473.7,1098.05L473.7,1105.72L473.7,1113.38L471.14,1121.04L471.14,1128.7L468.59,1136.36L468.59,1144.02L468.59,1149.13L466.03,1164.45L463.48,1172.11L463.48,1177.22L463.48,1184.88L460.93,1192.54L460.93,1197.65L460.93,1202.75L460.93,1210.41L458.37,1215.52L458.37,1223.18L458.37,1230.84L460.93,1238.5L460.93,1246.16L460.93,1251.27L460.93,1253.83L458.37,1246.16" fill="none" stroke="#000000" style="-webkit-tap-highlight-color: rgba(0, 0, 0, 0); stroke-linecap: round; stroke-linejoin: round; stroke-width: 7;" /><path d="M560.52,643.51L557.97,646.06L557.97,651.17L560.52,661.39L560.52,671.6L560.52,681.82L560.52,692.03L563.07,699.69L563.07,709.91L563.07,722.67L563.07,735.44L563.07,748.21L560.52,758.42L560.52,768.64L557.97,776.3L557.97,783.96L557.97,794.17L555.41,804.39L555.41,814.6L552.86,822.26L552.86,832.48L550.3,845.25L550.3,852.91L547.75,863.12L547.75,873.34L545.2,886.1L545.2,896.32L542.64,906.53L542.64,916.75L540.09,929.52L540.09,942.28L537.54,949.95L537.54,962.71L537.54,972.93L534.98,983.14L534.98,988.25L534.98,995.91L534.98,1003.57L534.98,1013.79L532.43,1021.45L532.43,1029.11L532.43,1034.21L532.43,1041.88L532.43,1046.98L529.88,1054.64L529.88,1059.75L527.32,1067.41L527.32,1075.07L527.32,1082.73L524.77,1087.84L524.77,1092.95L524.77,1098.05L524.77,1105.72L524.77,1113.38L522.21,1121.04L522.21,1128.7L522.21,1133.81L522.21,1138.91L519.66,1141.47L519.66,1144.02L519.66,1141.47" fill="none" stroke="#000000" style="-webkit-tap-highlight-color: rgba(0, 0, 0, 0); stroke-linecap: round; stroke-linejoin: round; stroke-width: 7;" /><path d="M524.77,1141.47L524.77,1138.91L522.21,1138.91L522.21,1141.47L519.66,1144.02L514.55,1146.57L512,1149.13L504.34,1154.23L499.23,1159.34L494.12,1167L489.02,1172.11L486.46,1177.22L483.91,1182.32L481.36,1187.43L481.36,1189.99L478.8,1195.09L476.25,1200.2L476.25,1205.31L473.7,1210.41L471.14,1215.52L468.59,1220.63L466.03,1225.74L466.03,1233.4L466.03,1243.61" fill="none" stroke="#000000" style="-webkit-tap-highlight-color: rgba(0, 0, 0, 0); stroke-linecap: round; stroke-linejoin: round; stroke-width: 7;" /><path d="M537.54,1151.68L534.98,1151.68L532.43,1149.13L534.98,1151.68L537.54,1151.68L542.64,1154.23L550.3,1156.79L555.41,1159.34L570.73,1164.45L575.84,1167L580.95,1169.56L586.05,1172.11L593.72,1172.11L598.82,1174.66L603.93,1177.22L609.04,1182.32L614.14,1187.43L616.7,1192.54L621.81,1195.09L626.91,1200.2L632.02,1202.75L634.57,1207.86L639.68,1210.41L644.79,1212.97L647.34,1215.52L652.45,1218.07L655,1220.63L660.11,1223.18L665.22,1225.74L667.77,1228.29L670.32,1230.84L672.88,1233.4L675.43,1233.4L675.43,1235.95L677.99,1238.5L677.99,1241.06L677.99,1246.16L677.99,1248.72L675.43,1251.27L675.43,1256.38L670.32,1261.49L667.77,1269.15L662.66,1274.25L660.11,1279.36L655,1281.92L649.9,1287.02L644.79,1292.13L639.68,1299.79L637.13,1304.9L632.02,1312.56L626.91,1320.22L621.81,1325.33L616.7,1330.43L611.59,1335.54L609.04,1340.65L603.93,1348.31L601.38,1355.97L598.82,1361.08L598.82,1366.18L598.82,1363.63" fill="none" stroke="#000000" style="-webkit-tap-highlight-color: rgba(0, 0, 0, 0); stroke-linecap: round; stroke-linejoin: round; stroke-width: 7;" /><path d="M476.25,1235.95L473.7,1235.95L471.14,1235.95L473.7,1238.5L476.25,1241.06L481.36,1246.16L486.46,1251.27L494.12,1256.38L499.23,1258.93L504.34,1261.49L509.45,1266.59L514.55,1271.7L517.11,1276.81L522.21,1281.92L524.77,1287.02L527.32,1292.13L532.43,1297.24L534.98,1302.34L537.54,1307.45L537.54,1312.56L540.09,1315.11L542.64,1320.22L545.2,1322.77L550.3,1327.88L552.86,1332.99L555.41,1335.54L560.52,1340.65L563.07,1345.76L568.18,1348.31L573.29,1350.86L578.39,1353.42L586.05,1355.97L591.16,1358.52L596.27,1361.08L598.82,1363.63L601.38,1366.18L606.48,1368.74" fill="none" stroke="#000000" style="-webkit-tap-highlight-color: rgba(0, 0, 0, 0); stroke-linecap: round; stroke-linejoin: round; stroke-width: 7;" /><path d="M695.86,1238.5L693.31,1241.06L690.75,1246.16L688.2,1246.16L690.75,1246.16L693.31,1246.16L695.86,1248.72L700.97,1248.72L703.52,1248.72L708.63,1251.27L713.74,1253.83L718.84,1256.38L723.95,1258.93L729.06,1258.93L736.72,1261.49L741.83,1261.49L746.93,1264.04L752.04,1266.59L757.15,1266.59L762.25,1269.15L767.36,1269.15L772.47,1271.7L777.58,1271.7L780.13,1274.25L782.68,1274.25L787.79,1274.25L792.9,1274.25L798,1274.25L800.56,1274.25L805.67,1276.81L813.33,1279.36L815.88,1281.92L818.43,1284.47L820.99,1287.02L823.54,1289.58L826.09,1294.68L828.65,1297.24L831.2,1302.34L833.76,1304.9L836.31,1307.45L838.86,1307.45L838.86,1310L841.42,1310L841.42,1312.56L843.97,1315.11L843.97,1317.67L843.97,1320.22L843.97,1322.77L841.42,1327.88L838.86,1330.43L836.31,1335.54L831.2,1343.2L826.09,1353.42L820.99,1363.63L813.33,1373.85L808.22,1384.06L805.67,1386.61L808.22,1384.06" fill="none" stroke="#000000" style="-webkit-tap-highlight-color: rgba(0, 0, 0, 0); stroke-linecap: round; stroke-linejoin: round; stroke-width: 7;" /><path d="M606.48,1373.85L601.38,1371.29L601.38,1363.63L606.48,1361.08L609.04,1361.08L614.14,1361.08L619.25,1361.08L621.81,1363.63L626.91,1366.18L634.57,1368.74L639.68,1371.29L647.34,1371.29L657.56,1371.29L665.22,1373.85L675.43,1376.4L683.09,1381.51L695.86,1384.06L706.07,1389.17L716.29,1391.72L726.5,1391.72L734.16,1391.72L736.72,1391.72" fill="none" stroke="#000000" style="-webkit-tap-highlight-color: rgba(0, 0, 0, 0); stroke-linecap: round; stroke-linejoin: round; stroke-width: 7;" /><path d="M657.56,1302.34L655,1302.34L652.45,1302.34L655,1302.34L660.11,1304.9L670.32,1307.45L677.99,1312.56L688.2,1317.67L698.41,1322.77L706.07,1327.88L716.29,1332.99L723.95,1338.09L734.16,1340.65L741.83,1345.76L752.04,1348.31L762.25,1350.86L775.02,1358.52L785.24,1366.18L795.45,1371.29L813.33,1373.85L820.99,1371.29" fill="none" stroke="#000000" style="-webkit-tap-highlight-color: rgba(0, 0, 0, 0); stroke-linecap: round; stroke-linejoin: round; stroke-width: 7;" /><path d="M591.16,602.65L593.72,602.65L598.82,597.55L606.48,592.44L614.14,584.78L621.81,579.67L632.02,574.56L639.68,566.9L647.34,561.8L652.45,556.69L657.56,551.58L662.66,546.47L667.77,543.92L672.88,538.81L677.99,536.26L680.54,531.15L683.09,531.15L685.65,528.6L688.2,528.6L688.2,526.04L690.75,526.04L690.75,531.15L688.2,541.37L688.2,551.58L685.65,566.9L685.65,582.22L683.09,597.55L683.09,612.87L680.54,630.74L677.99,643.51L675.43,656.28L675.43,666.49L672.88,679.26L672.88,689.48L672.88,702.24L672.88,715.01L672.88,730.33L670.32,745.66L670.32,758.42L670.32,771.19L670.32,783.96L670.32,794.17L672.88,796.73" fill="none" stroke="#000000" style="-webkit-tap-highlight-color: rgba(0, 0, 0, 0); stroke-linecap: round; stroke-linejoin: round; stroke-width: 7;" /><path d="M609.04,594.99L606.48,592.44L603.93,589.89L603.93,594.99L603.93,597.55L606.48,600.1L606.48,605.21L606.48,612.87L609.04,620.53L609.04,628.19L609.04,633.3L606.48,638.4L606.48,646.06L606.48,651.17L603.93,658.83L603.93,663.94L603.93,671.6L603.93,679.26L603.93,686.92L601.38,692.03L601.38,697.14L601.38,702.24L601.38,707.35L598.82,712.46L598.82,720.12L598.82,725.23L598.82,732.89L598.82,740.55L598.82,745.66L596.27,748.21L596.27,755.87L596.27,760.98L596.27,768.64L596.27,776.3L596.27,781.41L596.27,786.51L596.27,791.62L596.27,796.73L596.27,801.84L596.27,806.94L598.82,814.6L598.82,822.26L598.82,827.37L598.82,832.48L598.82,837.59L596.27,840.14L596.27,842.69L596.27,840.14L601.38,835.03L611.59,827.37L616.7,822.26L624.36,817.16L629.47,809.5L637.13,801.84L642.23,796.73L647.34,791.62L652.45,789.07L657.56,786.51L660.11,783.96L665.22,781.41L670.32,776.3" fill="none" stroke="#000000" style="-webkit-tap-highlight-color: rgba(0, 0, 0, 0); stroke-linecap: round; stroke-linejoin: round; stroke-width: 7;" /><path d="M545.2,985.7L542.64,985.7L542.64,988.25L547.75,985.7L550.3,985.7L552.86,983.14L557.97,978.03L560.52,975.48L563.07,970.37L568.18,965.27L575.84,960.16L580.95,952.5L588.61,947.39L593.72,942.28L598.82,937.18L606.48,932.07L611.59,924.41L619.25,916.75L626.91,911.64L632.02,903.98L639.68,896.32L647.34,891.21L652.45,886.1L660.11,875.89L667.77,868.23L672.88,860.57L680.54,852.91L685.65,847.8L690.75,837.59L693.31,832.48L698.41,824.82L700.97,819.71L706.07,814.6L708.63,809.5L713.74,804.39L718.84,801.84L721.4,796.73L726.5,789.07L731.61,783.96L736.72,778.85L741.83,771.19L749.49,763.53" fill="none" stroke="#000000" style="-webkit-tap-highlight-color: rgba(0, 0, 0, 0); stroke-linecap: round; stroke-linejoin: round; stroke-width: 7;" /><path d="M698.41,730.33L700.97,725.23L703.52,720.12L708.63,712.46L713.74,704.8L721.4,697.14L729.06,692.03L736.72,681.82L746.93,669.05L757.15,656.28L767.36,646.06L775.02,633.3L782.68,623.08L792.9,610.31L803.11,600.1L810.77,589.89L818.43,582.22L823.54,572.01L828.65,561.8L836.31,554.13L841.42,546.47L849.08,541.37L854.18,533.71L859.29,526.04L864.4,520.94L869.51,513.28L874.61,508.17L879.72,503.06L882.27,497.96L887.38,492.85L892.49,487.74L895.04,482.63L900.15,474.97L902.7,469.87L905.26,467.31L907.81,464.76L907.81,462.2L910.36,459.65L910.36,457.1L912.92,454.54L915.47,451.99L918.02,449.44" fill="none" stroke="#000000" style="-webkit-tap-highlight-color: rgba(0, 0, 0, 0); stroke-linecap: round; stroke-linejoin: round; stroke-width: 7;" /><path d="M974.2,127.68L971.65,132.79L969.1,150.66L969.1,173.65L966.54,183.86L966.54,194.07L963.99,206.84L961.44,222.16L956.33,245.15L953.78,257.92L951.22,268.13L948.67,280.9L946.11,291.11L943.56,301.33L938.45,314.09L938.45,324.31L935.9,337.08L933.35,344.74L930.79,354.95L928.24,365.17L925.69,375.38L925.69,385.6L923.13,393.26L920.58,400.92L920.58,406.02L920.58,413.69L918.02,421.35L918.02,429.01L915.47,439.22L915.47,446.88L915.47,454.54L912.92,462.2L910.36,467.31L910.36,469.87L907.81,469.87" fill="none" stroke="#000000" style="-webkit-tap-highlight-color: rgba(0, 0, 0, 0); stroke-linecap: round; stroke-linejoin: round; stroke-width: 7;" /><path d="M979.31,500.51L976.76,503.06L971.65,510.72L969.1,513.28L963.99,518.38L958.88,523.49L953.78,531.15L946.11,541.37L938.45,549.03L930.79,559.24L925.69,569.46L918.02,577.12L912.92,587.33L907.81,594.99L902.7,602.65L897.6,610.31L892.49,620.53L884.83,628.19L879.72,633.3L874.61,640.96L869.51,646.06L864.4,651.17L859.29,658.83L854.18,666.49L849.08,676.71L843.97,684.37L838.86,689.48L833.76,694.58L828.65,699.69L826.09,702.24L820.99,707.35L813.33,712.46L810.77,717.57L805.67,725.23L800.56,732.89L798,738L795.45,740.55L792.9,743.1L790.34,745.66L787.79,745.66L785.24,748.21L782.68,748.21L780.13,750.76L775.02,750.76L772.47,753.32L767.36,753.32L762.25,753.32L759.7,753.32L754.59,753.32L749.49,750.76L744.38,750.76L739.27,750.76L734.16,748.21L721.4,740.55L713.74,738L706.07,735.44L700.97,735.44L695.86,735.44L700.97,735.44" fill="none" stroke="#000000" style="-webkit-tap-highlight-color: rgba(0, 0, 0, 0); stroke-linecap: round; stroke-linejoin: round; stroke-width: 7;" /><path d="M744.38,766.08L739.27,768.64L736.72,771.19L739.27,771.19L744.38,773.75L746.93,773.75L754.59,773.75L759.7,773.75L767.36,773.75L772.47,773.75L777.58,773.75L782.68,773.75L787.79,773.75L792.9,773.75L795.45,771.19L798,771.19L800.56,771.19L803.11,768.64L805.67,766.08L808.22,760.98L813.33,755.87L820.99,750.76L826.09,748.21L833.76,743.1L841.42,738L854.18,715.01L861.85,707.35L866.95,702.24L874.61,694.58L882.27,686.92L889.94,671.6L897.6,658.83L902.7,651.17L907.81,646.06L912.92,640.96L918.02,633.3L923.13,625.64L930.79,615.42L935.9,605.21L941.01,597.55L946.11,589.89L951.22,582.22L953.78,579.67" fill="none" stroke="#000000" style="-webkit-tap-highlight-color: rgba(0, 0, 0, 0); stroke-linecap: round; stroke-linejoin: round; stroke-width: 7;" /><path d="M614.14,1029.11L611.59,1031.66L616.7,1026.55L621.81,1018.89L629.47,1008.68L634.57,998.46L639.68,990.8L647.34,980.59L655,967.82L662.66,957.61L667.77,947.39L675.43,939.73L680.54,932.07L685.65,924.41L693.31,916.75L698.41,911.64L703.52,906.53L708.63,901.43L713.74,893.77L718.84,888.66L723.95,883.55L729.06,878.44L731.61,873.34L736.72,868.23L741.83,863.12L746.93,858.01L752.04,850.35L754.59,845.25L759.7,840.14L764.81,835.03L767.36,829.93L772.47,822.26L777.58,817.16L782.68,814.6L787.79,809.5L790.34,804.39L795.45,796.73L800.56,791.62L805.67,786.51L808.22,783.96L813.33,778.85L818.43,773.75L820.99,768.64L826.09,766.08L828.65,758.42L833.76,753.32L838.86,748.21L843.97,743.1L846.52,738L854.18,725.23L859.29,720.12L864.4,712.46L869.51,704.8L877.17,697.14L882.27,686.92L892.49,676.71L900.15,661.39L907.81,648.62" fill="none" stroke="#000000" style="-webkit-tap-highlight-color: rgba(0, 0, 0, 0); stroke-linecap: round; stroke-linejoin: round; stroke-width: 7;" /><path d="M325.59,413.69L320.48,413.69L317.93,413.69L317.93,411.13L315.37,411.13L317.93,411.13L320.48,411.13L325.59,408.58L333.25,406.02L340.91,406.02L348.57,403.47L356.23,400.92L363.89,398.36L369,398.36L376.66,398.36L381.77,398.36L386.87,398.36L391.98,395.81L394.53,395.81L397.09,395.81L399.64,393.26L402.19,393.26L404.75,390.7L404.75,388.15L407.3,383.04L407.3,377.94L409.86,370.27L412.41,365.17L412.41,357.51L414.96,349.85L417.52,339.63L422.62,321.76L427.73,311.54L430.28,303.88L432.84,296.22L437.95,288.56L443.05,283.45L448.16,275.79L450.71,268.13L455.82,260.47L458.37,255.36L460.93,250.25L466.03,242.59L468.59,237.49L471.14,232.38L476.25,227.27L478.8,222.16L481.36,217.06L486.46,209.4L489.02,204.29L494.12,199.18L496.68,194.07L499.23,188.97L504.34,183.86L509.45,181.31L512,176.2L517.11,171.09L522.21,165.99L527.32,160.88L532.43,155.77L537.54,150.66L542.64,148.11L547.75,143L552.86,137.9L557.97,135.34L563.07,130.23L568.18,127.68L570.73,122.57L575.84,122.57L580.95,120.02L583.5,117.47L588.61,114.91L593.72,112.36L598.82,107.25L603.93,107.25L609.04,104.7L614.14,102.14L619.25,102.14L624.36,99.59L629.47,99.59L632.02,97.04L634.57,97.04L639.68,94.48L644.79,94.48L647.34,91.93L652.45,91.93L657.56,91.93L662.66,89.38L667.77,89.38L670.32,86.82L675.43,86.82L680.54,84.27L685.65,84.27L688.2,84.27L690.75,81.72L693.31,81.72L698.41,79.16L700.97,76.61L706.07,76.61L708.63,74.05L711.18,74.05L716.29,74.05L718.84,74.05L721.4,71.5L726.5,71.5L729.06,71.5L731.61,71.5L736.72,71.5L739.27,71.5L744.38,71.5L746.93,71.5L752.04,71.5L754.59,71.5L757.15,71.5L762.25,71.5L764.81,71.5L767.36,71.5L772.47,71.5L775.02,71.5L777.58,71.5L780.13,71.5L782.68,71.5L785.24,71.5L787.79,71.5L790.34,71.5L795.45,71.5L798,71.5L800.56,71.5L803.11,71.5L805.67,74.05L808.22,74.05L813.33,74.05L815.88,74.05L818.43,74.05L823.54,74.05L826.09,74.05L828.65,76.61L831.2,76.61L836.31,76.61L838.86,79.16L841.42,79.16L846.52,79.16L849.08,81.72L854.18,81.72L856.74,81.72L859.29,84.27L864.4,84.27L866.95,84.27L869.51,84.27L877.17,86.82L879.72,86.82L882.27,89.38L884.83,89.38L889.94,89.38L892.49,91.93L895.04,91.93L897.6,91.93L900.15,94.48L902.7,94.48L905.26,94.48L910.36,97.04L912.92,97.04L915.47,97.04L918.02,99.59L920.58,99.59L923.13,99.59L925.69,102.14L928.24,102.14L930.79,104.7L933.35,104.7L935.9,104.7L938.45,104.7L941.01,107.25L943.56,107.25L946.11,109.81L948.67,109.81L951.22,109.81L951.22,112.36L953.78,112.36L956.33,114.91L958.88,114.91L961.44,117.47L963.99,117.47L966.54,120.02L969.1,120.02L971.65,122.57L974.2,125.13L976.76,125.13L979.31,127.68L981.87,130.23L981.87,132.79L984.42,135.34L986.97,137.9L986.97,140.45L989.53,143L992.08,145.56L997.19,148.11L999.74,153.22L1004.85,160.88L1007.4,168.54L1009.96,176.2" fill="none" stroke="#000000" style="-webkit-tap-highlight-color: rgba(0, 0, 0, 0); stroke-linecap: round; stroke-linejoin: round; stroke-width: 7;" /><path d="M384.32,400.92L381.77,403.47L379.21,403.47L379.21,400.92L381.77,400.92L386.87,400.92L389.43,400.92L394.53,400.92L399.64,398.36L404.75,398.36L407.3,398.36L412.41,398.36L417.52,395.81L422.62,395.81L427.73,393.26L432.84,393.26L435.39,393.26L440.5,393.26L445.61,393.26L450.71,393.26L453.27,393.26L458.37,393.26L460.93,390.7L466.03,388.15L471.14,383.04L478.8,377.94L483.91,372.83L491.57,367.72L499.23,362.61L506.89,354.95L514.55,347.29L522.21,339.63L529.88,331.97L537.54,324.31L545.2,316.65L552.86,311.54L560.52,303.88L565.63,298.77L570.73,293.67L575.84,288.56L580.95,286L583.5,283.45L588.61,280.9L591.16,278.34L593.72,275.79L598.82,273.24L601.38,270.68L606.48,268.13L609.04,265.58L611.59,263.02L611.59,260.47L614.14,257.92L614.14,255.36L614.14,252.81L614.14,250.25L614.14,247.7L614.14,245.15L614.14,242.59L616.7,237.49L616.7,234.93L619.25,229.83L619.25,222.16L621.81,214.5L624.36,206.84L626.91,199.18L626.91,191.52L629.47,183.86L632.02,178.75L632.02,171.09L634.57,165.99L634.57,163.43L637.13,158.32L639.68,155.77L642.23,150.66L644.79,145.56L647.34,140.45L647.34,132.79L649.9,127.68L652.45,122.57L652.45,117.47L655,112.36L657.56,109.81L657.56,107.25L660.11,102.14L665.22,97.04L667.77,89.38L672.88,84.27L675.43,79.16L677.99,76.61L683.09,74.05" fill="none" stroke="#000000" style="-webkit-tap-highlight-color: rgba(0, 0, 0, 0); stroke-linecap: round; stroke-linejoin: round; stroke-width: 7;" /><path d="M483.91,377.94L481.36,377.94L483.91,377.94L486.46,380.49L489.02,383.04L494.12,383.04L496.68,385.6L499.23,385.6L504.34,388.15L506.89,388.15L509.45,390.7L512,393.26L512,395.81L514.55,398.36L514.55,403.47L514.55,406.02L514.55,411.13L514.55,416.24L514.55,423.9L514.55,429.01L514.55,436.67L514.55,444.33L514.55,449.44L512,457.1L512,464.76L512,469.87L509.45,472.42L509.45,474.97L506.89,477.53L504.34,480.08L501.79,482.63L499.23,485.19L496.68,487.74L494.12,490.29L491.57,492.85L489.02,495.4L486.46,497.96L483.91,503.06L481.36,505.62L481.36,510.72L478.8,513.28L478.8,515.83L476.25,520.94L476.25,523.49L473.7,528.6L473.7,533.71L471.14,538.81L468.59,543.92L468.59,546.47L466.03,551.58L466.03,554.13L463.48,559.24L463.48,561.8L460.93,566.9L460.93,572.01L458.37,574.56L458.37,577.12L455.82,579.67L455.82,582.22L453.27,584.78L453.27,587.33L450.71,589.89L448.16,589.89L445.61,592.44L445.61,594.99L443.05,594.99L440.5,597.55L437.95,597.55L437.95,600.1L435.39,602.65L432.84,605.21L430.28,607.76L427.73,612.87L425.18,615.42L422.62,617.98L420.07,620.53L420.07,623.08L417.52,625.64L414.96,630.74L414.96,633.3L412.41,635.85L412.41,638.4L412.41,643.51L412.41,646.06L409.86,651.17L409.86,663.94L409.86,674.15L412.41,681.82L412.41,689.48L412.41,694.58L412.41,697.14" fill="none" stroke="#000000" style="-webkit-tap-highlight-color: rgba(0, 0, 0, 0); stroke-linecap: round; stroke-linejoin: round; stroke-width: 7;" /><path d="M471.14,592.44L468.59,592.44L466.03,592.44L463.48,592.44L466.03,592.44L471.14,592.44L476.25,594.99L481.36,594.99L486.46,597.55L491.57,597.55L496.68,600.1L501.79,602.65L506.89,605.21L512,607.76L517.11,610.31L519.66,610.31L522.21,612.87L527.32,615.42L529.88,617.98L532.43,620.53L534.98,623.08L537.54,623.08L540.09,625.64L542.64,628.19L545.2,630.74L547.75,633.3L550.3,635.85L552.86,638.4L555.41,640.96L560.52,643.51L568.18,643.51" fill="none" stroke="#000000" style="-webkit-tap-highlight-color: rgba(0, 0, 0, 0); stroke-linecap: round; stroke-linejoin: round; stroke-width: 7;" /></svg>