<?xml version="1.0" encoding="utf-8" ?>
<svg baseProfile="full" height="726" version="1.1" width="1024" xmlns="http://www.w3.org/2000/svg" xmlns:ev="http://www.w3.org/2001/xml-events" xmlns:xlink="http://www.w3.org/1999/xlink"><defs /><path d="M475.3,144.97L475.3,146.81L475.3,150.48L473.46,152.32L473.46,154.15L471.63,155.99L469.79,157.82L467.96,159.66L464.29,163.33L462.45,165.16L460.62,168.83L458.78,170.67L458.78,172.5L456.95,174.34L456.95,176.17L456.95,178.01L456.95,181.68L456.95,185.35L456.95,189.02L456.95,192.69L456.95,196.36L455.11,198.19L455.11,201.86L455.11,205.53L455.11,211.04L455.11,214.71L455.11,218.38L455.11,223.89L455.11,229.39L455.11,233.06L453.28,238.57L453.28,244.07L453.28,249.58L453.28,255.08L453.28,260.59L453.28,264.26L453.28,269.76L453.28,277.1L453.28,280.77L453.28,284.44L453.28,289.95L453.28,293.62L453.28,297.29L453.28,300.96L453.28,304.63L453.28,308.3L453.28,311.97L453.28,315.64L453.28,321.15L453.28,326.65L453.28,330.32L453.28,335.83L453.28,341.33L451.44,346.84L451.44,352.34L451.44,357.85L451.44,363.35L451.44,370.7L451.44,376.2L451.44,381.71L451.44,387.21L451.44,392.72L449.61,398.22L449.61,403.73L449.61,409.23L449.61,414.74L449.61,422.08L451.44,431.25L451.44,438.59L451.44,445.94L451.44,453.28L449.61,456.95" fill="none" stroke="#000000" style="-webkit-tap-highlight-color: rgba(0, 0, 0, 0); stroke-linecap: round; stroke-linejoin: round; stroke-width: 5;" /><path d="M478.97,146.81L477.13,146.81L475.3,146.81L473.46,146.81L471.63,146.81L473.46,146.81L475.3,146.81L478.97,144.97L480.8,143.14L484.47,141.3L486.31,139.47L489.98,137.63L493.65,135.8L497.32,133.96L500.99,132.13L504.66,130.29L508.33,130.29L510.16,130.29L513.84,130.29L515.67,130.29L519.34,128.46L521.18,126.62L523.01,124.79L526.68,124.79L528.52,124.79L532.19,122.95L534.02,122.95L537.69,122.95L541.36,121.12L543.2,121.12L545.03,121.12L548.7,121.12L552.37,121.12L554.21,121.12L557.88,121.12L559.71,122.95L561.55,122.95L563.38,124.79L565.22,126.62L567.05,128.46L570.72,128.46L572.56,130.29L574.39,130.29L578.06,132.13L579.9,132.13L581.73,133.96L585.41,135.8L587.24,135.8L590.91,137.63L592.75,137.63L596.42,137.63L598.25,139.47L601.92,139.47L605.59,139.47L609.26,139.47L612.93,137.63L618.44,135.8L622.11,135.8" fill="none" stroke="#000000" style="-webkit-tap-highlight-color: rgba(0, 0, 0, 0); stroke-linecap: round; stroke-linejoin: round; stroke-width: 5;" /><path d="M622.11,133.96L620.27,133.96L616.6,133.96L614.77,133.96L616.6,133.96L620.27,132.13L622.11,132.13L627.61,132.13L633.12,132.13L638.62,132.13L642.29,132.13L647.8,132.13L651.47,132.13L660.65,133.96L662.48,133.96L666.15,133.96L667.99,135.8L669.82,135.8L673.49,137.63L675.33,139.47L677.16,141.3L680.83,141.3L682.67,143.14L686.34,144.97L688.17,146.81L690.01,148.65L691.84,150.48L693.68,152.32L695.51,154.15L697.35,155.99L697.35,157.82L699.18,159.66L699.18,161.49L701.02,163.33L701.02,167L701.02,170.67L702.85,172.5L702.85,176.17L702.85,181.68L702.85,187.18L702.85,190.85L702.85,196.36L702.85,201.86L702.85,203.7L704.69,207.37L706.52,209.2L708.36,211.04L710.19,212.87L712.03,212.87L712.03,214.71L713.86,214.71L717.53,216.54L719.37,216.54L721.2,214.71L723.04,214.71L724.87,214.71L726.71,214.71L728.54,214.71L728.54,212.87L730.38,211.04L730.38,207.37L730.38,205.53L730.38,201.86L730.38,198.19L730.38,192.69L730.38,187.18L730.38,183.51L730.38,179.84L732.22,176.17L735.89,167L737.72,165.16L739.56,163.33L741.39,163.33L743.23,163.33L745.06,163.33L746.9,161.49L748.73,161.49L750.57,161.49L752.4,161.49L754.24,161.49L756.07,163.33L757.91,163.33L759.74,163.33L761.58,165.16L765.25,167L768.92,167L770.75,167L774.42,167L776.26,167L778.09,168.83L779.93,170.67L781.76,170.67L783.6,172.5L783.6,174.34L783.6,176.17L783.6,178.01L785.43,179.84L785.43,183.51L785.43,187.18L785.43,190.85L787.27,194.52L787.27,200.03L789.1,203.7L789.1,209.2L790.94,211.04L792.77,216.54L792.77,222.05L794.61,227.56L796.44,231.23L798.28,234.9L801.95,234.9" fill="none" stroke="#000000" style="-webkit-tap-highlight-color: rgba(0, 0, 0, 0); stroke-linecap: round; stroke-linejoin: round; stroke-width: 5;" /><path d="M798.28,233.06L800.11,233.06L803.78,233.06L809.29,233.06L814.8,231.23L822.14,229.39L829.48,227.56L836.82,225.72L842.32,223.89L847.83,222.05L849.66,222.05L851.5,222.05L855.17,220.22L860.67,220.22L866.18,220.22L869.85,218.38L875.35,216.54L879.03,216.54L882.7,214.71L886.37,214.71L890.04,214.71L893.71,214.71L897.38,214.71L901.05,214.71L904.72,214.71L908.39,214.71L912.06,214.71L915.73,214.71L919.4,214.71L923.07,214.71L926.74,214.71L928.57,214.71L932.24,214.71L935.91,216.54L945.09,220.22L948.76,222.05L952.43,222.05L956.1,223.89L957.94,223.89L959.77,223.89L963.44,223.89L965.28,223.89L967.11,222.05L968.95,222.05L970.78,220.22L972.62,220.22L974.45,218.38L978.12,218.38L979.96,218.38L983.63,216.54L985.46,216.54L989.13,216.54L992.8,216.54L994.64,216.54L998.31,216.54L1001.98,218.38L1003.81,220.22L1005.65,220.22L1007.48,222.05L1009.32,222.05L1011.15,222.05L1014.82,222.05L1018.49,223.89L1020.33,223.89L1022.16,223.89" fill="none" stroke="#000000" style="-webkit-tap-highlight-color: rgba(0, 0, 0, 0); stroke-linecap: round; stroke-linejoin: round; stroke-width: 5;" /><path d="M812.96,242.24L812.96,240.4L812.96,244.07L812.96,247.74L812.96,251.41L812.96,256.92L812.96,262.42L812.96,269.76L812.96,275.27L812.96,280.77L812.96,286.28L812.96,291.78L812.96,299.13L812.96,304.63L812.96,308.3L812.96,311.97L812.96,315.64L812.96,319.31L812.96,324.82L814.8,330.32L814.8,335.83L814.8,341.33L816.63,345L816.63,348.67L816.63,352.34L816.63,356.01L816.63,357.85L816.63,361.52L816.63,367.03L816.63,372.53L816.63,379.87L816.63,385.38L816.63,389.05L816.63,390.88L818.47,392.72L818.47,396.39L818.47,398.22L818.47,403.73L818.47,405.56L818.47,411.07L818.47,416.57L818.47,422.08L818.47,425.75L816.63,429.42L816.63,434.92L816.63,442.27L816.63,449.61L816.63,455.11L814.8,458.78L812.96,462.45L812.96,467.96L814.8,464.29L814.8,458.78" fill="none" stroke="#000000" style="-webkit-tap-highlight-color: rgba(0, 0, 0, 0); stroke-linecap: round; stroke-linejoin: round; stroke-width: 5;" /><path d="M820.3,396.39L818.47,396.39L818.47,394.55L820.3,394.55L825.81,394.55L831.31,394.55L836.82,394.55L840.49,394.55L845.99,396.39L849.66,398.22L851.5,400.06L855.17,400.06L857,400.06L860.67,400.06L862.51,401.89L864.34,403.73L866.18,405.56L869.85,407.4L873.52,409.23L875.35,409.23L879.03,411.07L880.86,412.9L882.7,414.74L884.53,416.57L886.37,418.41L886.37,420.24L888.2,423.91L890.04,427.58L890.04,429.42L890.04,431.25L890.04,433.09L890.04,436.76L890.04,440.43L888.2,445.94L888.2,451.44L888.2,456.95L888.2,464.29L888.2,473.46L888.2,482.64L888.2,491.81L886.37,499.15L886.37,504.66L884.53,508.33L880.86,510.16" fill="none" stroke="#000000" style="-webkit-tap-highlight-color: rgba(0, 0, 0, 0); stroke-linecap: round; stroke-linejoin: round; stroke-width: 5;" /><path d="M857,400.06L855.17,400.06L853.33,400.06L857,398.22L862.51,398.22L868.01,398.22L873.52,398.22L879.03,398.22L882.7,398.22L888.2,400.06L891.87,401.89L895.54,403.73L899.21,405.56L902.88,405.56L904.72,407.4L906.55,407.4L908.39,409.23L908.39,411.07L910.22,412.9L910.22,414.74L912.06,416.57L913.89,420.24L917.56,425.75L923.07,429.42L924.9,431.25L928.57,433.09L930.41,434.92L930.41,436.76L930.41,440.43L930.41,442.27L930.41,445.94L930.41,451.44L930.41,458.78L930.41,466.12L928.57,473.46L928.57,480.8L928.57,486.31L928.57,489.98L928.57,491.81" fill="none" stroke="#000000" style="-webkit-tap-highlight-color: rgba(0, 0, 0, 0); stroke-linecap: round; stroke-linejoin: round; stroke-width: 5;" /><path d="M879.03,504.66L877.19,506.49L879.03,506.49L886.37,504.66L893.71,500.99L901.05,499.15L908.39,495.48L913.89,493.65L919.4,491.81L921.23,491.81L923.07,491.81L926.74,493.65L928.57,493.65L932.24,493.65L935.91,493.65L939.58,495.48L945.09,495.48L948.76,495.48L954.27,495.48L959.77,495.48L965.28,493.65L968.95,493.65L974.45,493.65L978.12,493.65L981.79,493.65L987.3,495.48L990.97,495.48L994.64,497.32L998.31,499.15L1003.81,499.15L1007.48,499.15L1012.99,499.15L1016.66,499.15L1020.33,499.15L1024,497.32" fill="none" stroke="#000000" style="-webkit-tap-highlight-color: rgba(0, 0, 0, 0); stroke-linecap: round; stroke-linejoin: round; stroke-width: 5;" /><path d="M979.96,434.92L979.96,431.25L979.96,427.58L981.79,422.08L981.79,416.57L983.63,414.74L985.46,411.07L989.13,409.23L990.97,407.4L994.64,407.4L996.47,405.56L998.31,407.4L1000.14,409.23L1001.98,411.07L1003.81,416.57L1005.65,422.08L1005.65,429.42L1005.65,433.09L1005.65,434.92L1007.48,433.09" fill="none" stroke="#000000" style="-webkit-tap-highlight-color: rgba(0, 0, 0, 0); stroke-linecap: round; stroke-linejoin: round; stroke-width: 5;" /><path d="M967.11,431.25L965.28,431.25L965.28,433.09L967.11,433.09L968.95,429.42L968.95,425.75L970.78,420.24L970.78,414.74L972.62,407.4L972.62,401.89L974.45,396.39L974.45,392.72L976.29,389.05L976.29,387.21L978.12,387.21L981.79,387.21L983.63,389.05L989.13,390.88L994.64,392.72L1001.98,394.55L1009.32,396.39L1014.82,398.22L1020.33,400.06L1024,400.06" fill="none" stroke="#000000" style="-webkit-tap-highlight-color: rgba(0, 0, 0, 0); stroke-linecap: round; stroke-linejoin: round; stroke-width: 5;" /><path d="M715.7,214.71L717.53,216.54L717.53,218.38L715.7,218.38" fill="none" stroke="#000000" style="-webkit-tap-highlight-color: rgba(0, 0, 0, 0); stroke-linecap: round; stroke-linejoin: round; stroke-width: 5;" /><path d="M730.38,216.54L728.54,218.38L726.71,220.22L726.71,222.05L724.87,222.05L723.04,223.89L721.2,227.56L719.37,229.39L719.37,233.06L717.53,234.9L715.7,236.73L713.86,238.57L712.03,244.07L712.03,249.58L712.03,253.25L710.19,256.92L710.19,258.75L710.19,260.59L708.36,262.42L706.52,264.26L706.52,266.09L706.52,271.6L706.52,278.94L706.52,282.61L706.52,288.11L706.52,295.46L708.36,300.96L708.36,306.47L708.36,311.97L708.36,315.64L708.36,321.15L708.36,328.49L710.19,333.99L710.19,339.5L710.19,345L712.03,350.51L712.03,356.01L712.03,361.52L712.03,365.19L712.03,370.7L712.03,376.2L712.03,379.87L712.03,383.54L712.03,389.05L712.03,392.72L712.03,396.39L712.03,400.06L712.03,403.73L712.03,409.23L712.03,414.74L712.03,418.41L712.03,422.08L712.03,427.58L710.19,431.25L710.19,434.92L710.19,438.59L710.19,444.1L710.19,447.77L708.36,453.28L708.36,458.78L708.36,464.29L708.36,469.79L708.36,477.13L708.36,480.8L708.36,482.64L708.36,480.8" fill="none" stroke="#000000" style="-webkit-tap-highlight-color: rgba(0, 0, 0, 0); stroke-linecap: round; stroke-linejoin: round; stroke-width: 5;" /><path d="M704.69,214.71L702.85,214.71L702.85,216.54L701.02,218.38L699.18,220.22L697.35,223.89L695.51,225.72L695.51,229.39L693.68,233.06L693.68,234.9L691.84,236.73L691.84,240.4L691.84,244.07L691.84,249.58L691.84,251.41L691.84,255.08L691.84,256.92L690.01,260.59L690.01,262.42L690.01,267.93L690.01,271.6L690.01,277.1L690.01,280.77L690.01,286.28L690.01,291.78L688.17,295.46L688.17,300.96L688.17,306.47L688.17,311.97L688.17,317.48L688.17,322.98L688.17,328.49L688.17,332.16L688.17,339.5L688.17,346.84L688.17,352.34L688.17,357.85L690.01,363.35L691.84,376.2L691.84,379.87L691.84,381.71L691.84,387.21L691.84,392.72L691.84,411.07L691.84,416.57L691.84,420.24L693.68,425.75L693.68,429.42L693.68,433.09L693.68,436.76L693.68,440.43L693.68,444.1L695.51,447.77L695.51,451.44L695.51,456.95L695.51,460.62L695.51,466.12L695.51,469.79L695.51,471.63L695.51,475.3L693.68,478.97L693.68,482.64L693.68,486.31L693.68,488.14L691.84,488.14L691.84,486.31" fill="none" stroke="#000000" style="-webkit-tap-highlight-color: rgba(0, 0, 0, 0); stroke-linecap: round; stroke-linejoin: round; stroke-width: 5;" /><path d="M699.18,484.47L697.35,484.47L697.35,482.64L699.18,484.47L701.02,484.47L704.69,484.47L710.19,484.47L713.86,486.31L717.53,486.31L721.2,488.14L726.71,488.14L732.22,486.31L735.89,484.47L741.39,484.47L745.06,482.64L748.73,482.64L752.4,482.64L756.07,482.64L761.58,482.64L767.08,482.64L770.75,482.64L774.42,482.64L778.09,482.64L783.6,482.64L790.94,482.64L792.77,482.64L796.44,482.64L800.11,482.64L803.78,482.64L807.46,482.64L811.13,482.64L814.8,482.64L818.47,482.64L820.3,482.64L822.14,482.64" fill="none" stroke="#000000" style="-webkit-tap-highlight-color: rgba(0, 0, 0, 0); stroke-linecap: round; stroke-linejoin: round; stroke-width: 5;" /><path d="M453.28,462.45L451.44,462.45L451.44,464.29L449.61,464.29L451.44,462.45L453.28,462.45L456.95,462.45L462.45,462.45L466.12,460.62L471.63,460.62L477.13,460.62L482.64,460.62L486.31,460.62L489.98,460.62L495.48,462.45L499.15,462.45L504.66,464.29L510.16,464.29L513.84,466.12L517.51,466.12L521.18,467.96L526.68,467.96L530.35,469.79L535.86,469.79L539.53,469.79L543.2,471.63L546.87,473.46L552.37,475.3L556.04,475.3L561.55,475.3L567.05,477.13L570.72,477.13L574.39,478.97L579.9,478.97L587.24,478.97L590.91,478.97L594.58,478.97L598.25,478.97L601.92,480.8L605.59,480.8L609.26,480.8L612.93,480.8L616.6,480.8L620.27,480.8L622.11,480.8L625.78,480.8L629.45,480.8L633.12,480.8L636.79,480.8L638.62,480.8L642.29,480.8L645.96,480.8L647.8,480.8L651.47,480.8L655.14,480.8L658.81,480.8L662.48,482.64L666.15,482.64L669.82,482.64L673.49,482.64L677.16,482.64L680.83,482.64L686.34,482.64L688.17,482.64L691.84,482.64L693.68,482.64L695.51,482.64" fill="none" stroke="#000000" style="-webkit-tap-highlight-color: rgba(0, 0, 0, 0); stroke-linecap: round; stroke-linejoin: round; stroke-width: 5;" /><path d="M453.28,288.11L453.28,289.95L451.44,289.95L449.61,291.78L447.77,293.62L444.1,295.46L440.43,300.96L436.76,304.63L433.09,306.47L429.42,310.14L423.91,311.97L420.24,315.64L416.57,317.48L411.07,319.31L407.4,321.15L403.73,322.98L396.39,326.65L390.88,330.32L385.38,332.16L379.87,335.83L374.37,339.5L368.86,343.17L363.35,346.84L359.68,348.67L356.01,352.34L354.18,354.18L350.51,354.18L348.67,356.01L346.84,357.85L343.17,359.68L341.33,359.68L337.66,359.68L332.16,361.52L326.65,361.52L321.15,361.52L317.48,359.68L315.64,357.85L313.81,356.01L311.97,356.01" fill="none" stroke="#000000" style="-webkit-tap-highlight-color: rgba(0, 0, 0, 0); stroke-linecap: round; stroke-linejoin: round; stroke-width: 5;" /><path d="M0,368.86L5.51,367.03L12.85,365.19L16.52,361.52L20.19,357.85L25.69,354.18L29.36,352.34L34.87,348.67L38.54,345L44.04,343.17L47.71,341.33L51.38,339.5L55.05,337.66L58.72,337.66L64.23,335.83L67.9,333.99L73.41,332.16L77.08,330.32L82.58,328.49L86.25,326.65L89.92,324.82L93.59,322.98L97.26,322.98L100.93,321.15L104.6,319.31L106.44,319.31L110.11,317.48L113.78,317.48L117.45,317.48L121.12,317.48L126.62,317.48L132.13,317.48L137.63,317.48L141.3,319.31L146.81,319.31L150.48,321.15L154.15,321.15L157.82,322.98L161.49,322.98L165.16,324.82L168.83,326.65L172.5,328.49L178.01,330.32L183.51,330.32L189.02,332.16L194.52,332.16L198.19,333.99L203.7,335.83L207.37,337.66L212.87,339.5L218.38,339.5L223.89,341.33L229.39,343.17L234.9,345L240.4,346.84L245.91,346.84L251.41,348.67L262.42,350.51L266.09,350.51L271.6,352.34L275.27,352.34L280.77,354.18L284.44,354.18L289.95,356.01L295.46,356.01L299.13,356.01L304.63,356.01L310.14,356.01L313.81,356.01" fill="none" stroke="#000000" style="-webkit-tap-highlight-color: rgba(0, 0, 0, 0); stroke-linecap: round; stroke-linejoin: round; stroke-width: 5;" /><path d="M5.51,352.34L3.67,352.34L5.51,352.34L7.34,348.67L11.01,343.17L14.68,341.33L18.35,339.5L22.02,335.83L23.86,333.99L25.69,332.16L29.36,332.16L31.2,330.32L34.87,330.32L40.37,328.49L45.88,328.49L49.55,326.65L55.05,326.65L58.72,326.65L66.06,326.65L75.24,326.65L84.42,324.82L97.26,319.31L106.44,317.48" fill="none" stroke="#000000" style="-webkit-tap-highlight-color: rgba(0, 0, 0, 0); stroke-linecap: round; stroke-linejoin: round; stroke-width: 5;" /><path d="M247.74,350.51L247.74,348.67L245.91,348.67L244.07,348.67L242.24,348.67L240.4,348.67L234.9,348.67L231.23,348.67L223.89,350.51L218.38,352.34L212.87,352.34L209.2,354.18L205.53,354.18L201.86,356.01L196.36,357.85L192.69,359.68L189.02,361.52L185.35,361.52L181.68,363.35L178.01,365.19L172.5,365.19L168.83,367.03L165.16,368.86L161.49,370.7L157.82,372.53L154.15,374.37L150.48,376.2L146.81,378.04L141.3,379.87L137.63,383.54L132.13,385.38L130.29,387.21L128.46,387.21L126.62,389.05L124.79,390.88L122.95,392.72L121.12,394.55L121.12,398.22L119.28,401.89L119.28,403.73L117.45,405.56L115.61,407.4L113.78,409.23L110.11,411.07L104.6,412.9L99.1,414.74L93.59,414.74L88.09,416.57L82.58,418.41L75.24,418.41L69.73,420.24L62.39,420.24L55.05,422.08L44.04,422.08L38.54,423.91L33.03,423.91L27.53,423.91L22.02,425.75L16.52,425.75L11.01,425.75L7.34,425.75L3.67,425.75L5.51,423.91" fill="none" stroke="#000000" style="-webkit-tap-highlight-color: rgba(0, 0, 0, 0); stroke-linecap: round; stroke-linejoin: round; stroke-width: 5;" /><path d="M297.29,363.35L299.13,361.52L299.13,359.68L297.29,361.52L293.62,363.35L289.95,365.19L286.28,367.03L280.77,368.86L275.27,372.53L271.6,374.37L264.26,378.04L260.59,381.71L256.92,383.54L251.41,385.38L247.74,387.21L244.07,387.21L240.4,389.05L238.57,389.05L236.73,389.05L233.06,390.88L231.23,392.72L227.56,394.55L225.72,396.39L225.72,398.22L225.72,400.06L225.72,401.89L225.72,403.73L225.72,405.56L225.72,407.4L225.72,411.07L225.72,412.9L225.72,418.41L225.72,423.91L225.72,429.42L225.72,436.76L225.72,444.1L225.72,451.44L225.72,458.78" fill="none" stroke="#000000" style="-webkit-tap-highlight-color: rgba(0, 0, 0, 0); stroke-linecap: round; stroke-linejoin: round; stroke-width: 5;" /><path d="M174.34,412.9L172.5,412.9L176.17,411.07L183.51,411.07L189.02,412.9L192.69,412.9L194.52,414.74L196.36,414.74L198.19,414.74L200.03,416.57L200.03,418.41L201.86,418.41L201.86,420.24L203.7,420.24L203.7,422.08L203.7,423.91L203.7,425.75L203.7,427.58L203.7,429.42L205.53,433.09L205.53,436.76L205.53,442.27L207.37,445.94L207.37,451.44L207.37,455.11L207.37,460.62L209.2,464.29L209.2,469.79L209.2,475.3L209.2,482.64L209.2,488.14L209.2,495.48L209.2,500.99L209.2,504.66L209.2,510.16L209.2,513.84" fill="none" stroke="#000000" style="-webkit-tap-highlight-color: rgba(0, 0, 0, 0); stroke-linecap: round; stroke-linejoin: round; stroke-width: 5;" /><path d="M179.84,412.9L178.01,411.07L178.01,414.74L178.01,422.08L176.17,429.42L176.17,431.25L174.34,433.09L172.5,434.92L168.83,434.92L167,434.92L163.33,434.92L159.66,433.09L154.15,433.09L148.65,433.09L143.14,433.09L137.63,433.09L132.13,433.09L126.62,433.09L119.28,433.09L113.78,433.09L108.27,431.25L100.93,431.25L93.59,429.42L84.42,429.42L78.91,427.58L73.41,425.75L71.57,423.91L71.57,422.08L71.57,420.24" fill="none" stroke="#000000" style="-webkit-tap-highlight-color: rgba(0, 0, 0, 0); stroke-linecap: round; stroke-linejoin: round; stroke-width: 5;" /><path d="M14.68,541.36L12.85,541.36L11.01,541.36L11.01,539.53L11.01,537.69L14.68,537.69L18.35,535.86L25.69,535.86L34.87,534.02L42.21,532.19L49.55,532.19L55.05,532.19L60.56,532.19L66.06,530.35L73.41,530.35L78.91,530.35L84.42,530.35L89.92,530.35L95.43,530.35L99.1,530.35L104.6,532.19L111.94,532.19L115.61,532.19L121.12,532.19L124.79,532.19L130.29,532.19L135.8,532.19L139.47,532.19L144.97,530.35L148.65,530.35L154.15,530.35L157.82,530.35L163.33,530.35L168.83,528.52L174.34,526.68L178.01,526.68L179.84,526.68L183.51,524.85L187.18,524.85L190.85,523.01L194.52,523.01L196.36,523.01L198.19,523.01L200.03,523.01L203.7,523.01L209.2,521.18L211.04,521.18L214.71,521.18L216.54,521.18L220.22,519.34L223.89,519.34L227.56,519.34" fill="none" stroke="#000000" style="-webkit-tap-highlight-color: rgba(0, 0, 0, 0); stroke-linecap: round; stroke-linejoin: round; stroke-width: 5;" /><path d="M236.73,524.85L234.9,523.01L238.57,523.01L242.24,523.01L247.74,523.01L253.25,523.01L258.75,523.01L262.42,523.01L266.09,524.85L269.76,526.68L273.43,526.68L278.94,526.68L288.11,526.68L289.95,526.68L293.62,526.68L295.46,526.68L300.96,526.68L304.63,526.68L308.3,524.85L310.14,524.85L311.97,524.85L315.64,524.85L317.48,523.01L321.15,521.18L324.82,519.34L326.65,517.51L330.32,515.67L333.99,513.84L337.66,513.84L343.17,512L346.84,510.16L352.34,508.33L356.01,506.49L361.52,506.49L365.19,504.66L370.7,504.66L374.37,502.82L378.04,500.99L381.71,500.99L387.21,499.15L390.88,497.32L396.39,497.32L400.06,497.32L401.89,495.48L405.56,495.48L407.4,495.48L409.23,493.65L411.07,493.65L414.74,491.81L418.41,488.14L422.08,484.47L425.75,480.8L431.25,477.13L434.92,473.46L440.43,469.79L444.1,466.12L449.61,464.29L453.28,460.62L456.95,458.78" fill="none" stroke="#000000" style="-webkit-tap-highlight-color: rgba(0, 0, 0, 0); stroke-linecap: round; stroke-linejoin: round; stroke-width: 5;" /><path d="M378.04,532.19L376.2,530.35L374.37,528.52L372.53,528.52L374.37,528.52L378.04,528.52L383.54,526.68L387.21,524.85L394.55,524.85L400.06,523.01L405.56,523.01L409.23,523.01L414.74,521.18L418.41,517.51L423.91,515.67L427.58,513.84L429.42,512L433.09,512L436.76,510.16L440.43,510.16L444.1,510.16L449.61,508.33L453.28,508.33L458.78,506.49L462.45,506.49L467.96,506.49L473.46,508.33L495.48,510.16L504.66,510.16L517.51,512L523.01,512L528.52,513.84L534.02,513.84L539.53,513.84L545.03,513.84L552.37,513.84L557.88,513.84L565.22,512L570.72,512L578.06,512L583.57,512L589.08,510.16L592.75,510.16L598.25,510.16L603.76,510.16L611.1,510.16L616.6,510.16L622.11,510.16L627.61,510.16L631.28,508.33L636.79,508.33L640.46,508.33L644.13,508.33L645.96,508.33L649.63,508.33L651.47,508.33L655.14,506.49L658.81,506.49L660.65,504.66" fill="none" stroke="#000000" style="-webkit-tap-highlight-color: rgba(0, 0, 0, 0); stroke-linecap: round; stroke-linejoin: round; stroke-width: 5;" /><path d="M653.3,482.64L651.47,482.64L651.47,480.8L651.47,478.97L653.3,486.31L653.3,493.65L653.3,499.15L653.3,504.66L653.3,506.49L655.14,508.33" fill="none" stroke="#000000" style="-webkit-tap-highlight-color: rgba(0, 0, 0, 0); stroke-linecap: round; stroke-linejoin: round; stroke-width: 5;" /><path d="M231.23,407.4L231.23,409.23L231.23,407.4L234.9,403.73L236.73,401.89L238.57,400.06L242.24,400.06L242.24,398.22L244.07,398.22L245.91,400.06L247.74,401.89L249.58,401.89L249.58,403.73L251.41,407.4L253.25,409.23L253.25,411.07L255.08,412.9L256.92,416.57L256.92,420.24L258.75,423.91L258.75,427.58L260.59,431.25L260.59,433.09L260.59,436.76L260.59,440.43L260.59,447.77L260.59,451.44L260.59,455.11L262.42,458.78L262.42,462.45L262.42,466.12L262.42,469.79L264.26,473.46L264.26,475.3L264.26,478.97L266.09,482.64L266.09,484.47L266.09,486.31L267.93,489.98L267.93,493.65L269.76,495.48L271.6,499.15L271.6,504.66L273.43,508.33L273.43,513.84L273.43,519.34L271.6,526.68L269.76,532.19" fill="none" stroke="#000000" style="-webkit-tap-highlight-color: rgba(0, 0, 0, 0); stroke-linecap: round; stroke-linejoin: round; stroke-width: 5;" /><path d="M27.53,438.59L27.53,436.76L25.69,434.92L25.69,433.09L27.53,433.09L31.2,434.92L33.03,438.59L34.87,442.27L38.54,445.94L42.21,449.61L45.88,451.44L49.55,455.11L51.38,456.95L53.22,460.62L55.05,462.45L55.05,466.12L55.05,467.96L55.05,471.63L55.05,475.3L56.89,478.97L56.89,482.64L55.05,489.98L55.05,495.48L53.22,502.82L53.22,512L53.22,519.34L53.22,526.68L53.22,532.19L53.22,534.02" fill="none" stroke="#000000" style="-webkit-tap-highlight-color: rgba(0, 0, 0, 0); stroke-linecap: round; stroke-linejoin: round; stroke-width: 5;" /></svg>