<?xml version="1.0" encoding="utf-8" ?>
<svg baseProfile="full" height="745" version="1.1" width="1024" xmlns="http://www.w3.org/2000/svg" xmlns:ev="http://www.w3.org/2001/xml-events" xmlns:xlink="http://www.w3.org/1999/xlink"><defs /><path d="M540.49,403.44L541.26,403.44L542.8,404.98L542.8,406.52L542.8,409.6L542.8,411.14L543.57,413.45L543.57,418.07L543.57,421.15L543.57,425.77L543.57,428.85L542.8,432.7L543.57,438.86L543.57,441.94L543.57,445.02L543.57,447.33L543.57,452.72L543.57,456.57L543.57,459.65L544.34,462.72L544.34,465.8L544.34,469.65L545.11,471.19L545.11,473.5L545.11,475.81L545.11,478.89L545.11,481.2L545.11,482.74L545.88,484.28L545.11,485.82L545.88,488.9L545.88,491.21L545.88,493.52L545.88,495.06L546.65,498.14L547.42,499.68L547.42,501.22L548.19,503.53L548.19,505.07L548.96,506.61L548.96,508.15L549.73,511.23L549.73,513.54L550.5,517.39L550.5,519.7L551.27,522.78L551.27,525.09L552.04,528.94L552.04,532.79L552.81,536.64L552.81,539.72L552.81,543.57L552.81,547.42L552.81,549.73L552.81,552.04L552.81,555.12L552.81,557.43L552.81,559.74L552.81,568.97L552.81,570.51L552.81,572.05L553.58,576.67L554.35,578.98L554.35,581.29L555.12,583.6L555.89,585.91L556.66,588.22L556.66,590.53L556.66,592.84L557.43,595.92L557.43,596.69L557.43,599L556.66,601.31L556.66,603.62L557.43,606.7L557.43,609.01L558.2,611.32L558.2,612.86L557.43,615.94L557.43,618.25L557.43,619.79L557.43,622.87L556.66,624.41L556.66,625.95L556.66,627.49L555.89,627.49L555.12,625.95" fill="none" stroke="#000000" style="-webkit-tap-highlight-color: rgba(0, 0, 0, 0); stroke-linecap: round; stroke-linejoin: round; stroke-width: 5;" /><path d="M544.34,405.75L544.34,403.44L544.34,404.98L543.57,408.06L542.03,415.76L541.26,421.92L539.72,428.85L538.95,435.01L536.64,445.02L535.87,451.95L534.33,458.88L532.79,465.03L531.25,471.19L528.17,479.66L526.63,483.51L525.86,487.36L525.09,492.75L525.09,499.68L524.32,503.53L524.32,507.38L523.55,509.69L523.55,512.77L523.55,513.54" fill="none" stroke="#000000" style="-webkit-tap-highlight-color: rgba(0, 0, 0, 0); stroke-linecap: round; stroke-linejoin: round; stroke-width: 5;" /><path d="M526.63,508.92L526.63,510.46L527.4,513.54L526.63,515.85L526.63,518.93L526.63,520.47L526.63,523.55L526.63,526.63L525.86,532.02L525.86,536.64L525.86,539.72L525.86,545.11L525.86,548.19L525.86,554.35L525.86,558.2L525.86,562.05L526.63,565.12L525.86,575.13L525.86,576.67L525.86,578.21L526.63,579.75L526.63,587.45L526.63,591.3L526.63,595.15L526.63,598.23L526.63,602.85L526.63,606.7L526.63,609.78L526.63,613.63L527.4,615.94L527.4,619.02L528.17,622.1L528.94,624.41L528.94,627.49L528.94,631.34L528.94,633.65L528.94,638.27L528.94,642.12L528.94,646.74L529.71,647.51L529.71,649.05L530.48,651.36L531.25,654.44L531.25,658.29L531.25,660.6L532.02,662.91L532.02,665.22L532.79,669.06L532.79,672.14L533.56,674.45L533.56,675.99L533.56,679.07L533.56,680.61L533.56,682.92L533.56,685.23L533.56,688.31L532.79,692.93L533.56,695.24L533.56,698.32L532.79,700.63L532.79,703.71L533.56,709.1L533.56,711.41L533.56,713.72L533.56,715.26L533.56,717.57L533.56,719.88L533.56,722.19L533.56,724.5L533.56,726.04L534.33,727.58L534.33,728.35L535.1,730.66L536.64,732.97L536.64,734.51" fill="none" stroke="#000000" style="-webkit-tap-highlight-color: rgba(0, 0, 0, 0); stroke-linecap: round; stroke-linejoin: round; stroke-width: 5;" /><path d="M354.94,401.9L354.94,401.13L354.94,400.36L356.48,399.59L358.02,399.59L361.86,398.82L364.94,398.05L368.79,397.28L374.18,396.51L380.34,395.74L385.73,394.97L391.12,394.2L395.74,394.2L401.9,394.2L411.14,393.43L417.3,394.2L422.69,394.2L431.16,394.2L437.32,394.2L442.71,394.2L446.56,394.2L451.18,394.97L456.57,395.74L460.42,395.74L464.26,395.74L468.11,394.97L474.27,394.97L478.89,394.97L482.74,394.97L487.36,394.2L490.44,394.2L495.83,393.43L498.91,393.43L501.22,393.43L505.07,393.43L508.15,393.43L510.46,392.66L511.23,392.66L514.31,392.66L516.62,391.89L519.7,391.12L520.47,391.12L522.78,391.89L525.09,391.12L528.94,390.35L531.25,390.35L533.56,390.35L535.1,390.35L537.41,390.35L538.95,390.35L539.72,390.35L541.26,391.12L542.03,391.12L542.8,391.89L542.8,392.66L542.8,395.74L542.8,398.05L542.03,399.59L542.03,401.13L542.03,404.98" fill="none" stroke="#000000" style="-webkit-tap-highlight-color: rgba(0, 0, 0, 0); stroke-linecap: round; stroke-linejoin: round; stroke-width: 5;" /><path d="M324.91,431.93L324.91,432.7L323.37,435.78L322.6,438.09L321.06,440.4L319.52,443.48L318.75,445.02L318.75,445.79L318.75,446.56L320.29,448.1L322.6,448.1L324.91,448.87L327.22,449.64L332.61,451.18L336.46,451.95L341.08,451.95L344.93,451.18L351.09,451.18L354.94,451.18L358.78,450.41L361.09,451.18L364.17,451.95L368.79,452.72L370.33,453.49L372.64,454.26" fill="none" stroke="#000000" style="-webkit-tap-highlight-color: rgba(0, 0, 0, 0); stroke-linecap: round; stroke-linejoin: round; stroke-width: 5;" /><path d="M373.41,457.34L373.41,458.11L374.95,458.88L378.8,461.95L381.11,463.49L383.42,465.03L385.73,468.11L386.5,470.42L387.27,471.96L388.81,472.73L391.12,473.5L393.43,474.27L396.51,474.27L399.59,475.04L402.67,475.81L408.06,475.04L412.68,474.27L415.76,474.27L419.61,474.27L423.46,474.27L428.08,474.27L434.24,474.27L438.09,473.5L442.71,472.73L448.1,473.5L451.18,474.27L454.26,474.27L457.34,474.27L461.18,473.5L472.73,472.73L474.27,471.96L477.35,471.96L481.97,471.96L483.51,471.19L485.05,471.96L486.59,471.19L487.36,471.19L488.13,470.42L488.9,470.42L489.67,470.42L491.21,470.42L492.75,469.65L494.29,469.65L495.83,469.65L497.37,468.88L498.91,468.88L501.99,467.34L503.53,465.8L504.3,465.03L505.07,463.49L505.07,461.18L505.84,459.65L505.84,457.34L505.84,455.8L506.61,454.26L506.61,452.72L506.61,451.18L507.38,449.64L508.15,448.1L508.92,446.56L510.46,445.02L511.23,444.25L512,444.25L514.31,442.71L518.93,441.94L521.24,441.17L523.55,440.4L528.94,439.63L532.02,439.63L535.1,439.63L537.41,438.86L539.72,438.86L540.49,438.09" fill="none" stroke="#000000" style="-webkit-tap-highlight-color: rgba(0, 0, 0, 0); stroke-linecap: round; stroke-linejoin: round; stroke-width: 5;" /><path d="M355.71,271.78L354.17,272.55L353.4,274.09L351.86,276.4L345.7,288.72L344.16,293.34L342.62,297.19L341.85,301.81L340.31,310.28L337.23,322.6L335.69,330.3L334.15,335.69L333.38,341.85L331.84,349.55L331.84,353.4L331.84,357.25L331.07,361.09L331.07,364.94L330.3,370.33L330.3,372.64L330.3,375.72L330.3,378.03L330.3,382.65L329.53,385.73L329.53,387.27L329.53,389.58L329.53,391.12L329.53,393.43L329.53,395.74L328.76,398.05L327.99,401.13L326.45,405.75L325.68,409.6L324.91,412.68L323.37,416.53L322.6,418.84L318.75,423.46" fill="none" stroke="#000000" style="-webkit-tap-highlight-color: rgba(0, 0, 0, 0); stroke-linecap: round; stroke-linejoin: round; stroke-width: 5;" /><path d="M354.17,285.64L354.94,281.02L356.48,283.33L356.48,287.95L355.71,292.57L354.94,297.96L354.17,304.12L353.4,312.59L353.4,323.37L352.63,331.07L352.63,338L352.63,344.93L352.63,353.4L352.63,358.02L351.86,363.4L352.63,368.79L352.63,374.18L353.4,381.88L353.4,385.73L353.4,388.04L353.4,391.12L354.17,393.43" fill="none" stroke="#000000" style="-webkit-tap-highlight-color: rgba(0, 0, 0, 0); stroke-linecap: round; stroke-linejoin: round; stroke-width: 5;" /><path d="M368.02,270.24L368.02,269.47L368.79,271.01L371.87,274.86L374.18,277.17L377.26,280.25L381.88,283.33L388.81,287.18L393.43,290.26L398.82,293.34L404.98,295.65L411.14,297.19L418.84,301.04L423.46,304.12L428.08,307.97L434.24,311.05L445.02,314.13L451.95,315.67L458.11,317.21" fill="none" stroke="#000000" style="-webkit-tap-highlight-color: rgba(0, 0, 0, 0); stroke-linecap: round; stroke-linejoin: round; stroke-width: 5;" /><path d="M479.66,122.42L479.66,121.65L479.66,119.34L478.89,120.88L477.35,123.96L475.04,128.58L471.96,138.59L470.42,147.06L468.88,157.06L468.11,167.07L468.11,175.54L467.34,182.47L467.34,194.79L467.34,202.49L467.34,208.65L466.57,218.66L465.8,224.82L465.03,231.75L465.03,237.14L464.26,243.3L463.49,253.31L462.72,257.15L462.72,263.31L461.95,267.16L461.95,274.86L461.18,280.25L460.42,284.87L460.42,291.8L460.42,297.19L460.42,305.66L460.42,311.05L459.65,316.44L459.65,320.29L458.88,326.45L458.11,330.3L458.11,333.38L457.34,337.23L457.34,341.08L457.34,344.93L457.34,350.32L458.11,352.63L458.11,353.4L457.34,357.25L457.34,364.94L458.11,366.48" fill="none" stroke="#000000" style="-webkit-tap-highlight-color: rgba(0, 0, 0, 0); stroke-linecap: round; stroke-linejoin: round; stroke-width: 5;" /><path d="M478.89,338.77L478.12,338.77L476.58,339.54L475.04,341.85L471.19,348.01L465.8,354.94L461.18,361.09L459.65,364.17L457.34,368.79" fill="none" stroke="#000000" style="-webkit-tap-highlight-color: rgba(0, 0, 0, 0); stroke-linecap: round; stroke-linejoin: round; stroke-width: 5;" /><path d="M476.58,344.16L477.35,344.16L479.66,344.16L483.51,343.39L488.9,344.16L495.83,344.93L506.61,347.24L512,349.55L516.62,351.09L518.93,351.09" fill="none" stroke="#000000" style="-webkit-tap-highlight-color: rgba(0, 0, 0, 0); stroke-linecap: round; stroke-linejoin: round; stroke-width: 5;" /><path d="M474.27,274.09L475.04,274.86L475.81,281.02L475.81,287.95L476.58,297.19L476.58,306.43L476.58,316.44L477.35,327.99L478.12,334.92L478.89,338L478.89,340.31L478.12,346.47L477.35,350.32L476.58,354.94L475.81,356.48" fill="none" stroke="#000000" style="-webkit-tap-highlight-color: rgba(0, 0, 0, 0); stroke-linecap: round; stroke-linejoin: round; stroke-width: 5;" /><path d="M476.58,123.19L476.58,123.96L477.35,127.04L478.12,130.89L478.89,135.51L478.89,141.67L479.66,156.29L481.2,166.3L481.97,176.31L482.74,184.78L483.51,192.48L484.28,199.41L485.05,209.42L485.05,216.35L484.28,222.51L484.28,228.67L484.28,233.29L484.28,235.6L484.28,238.68L484.28,241.76L485.05,244.07L485.82,247.15L485.82,249.46L485.82,252.54L486.59,254.85L486.59,257.15L486.59,258.69L487.36,260.23L487.36,261L485.82,262.54L484.28,263.31L483.51,264.08L481.97,265.62L478.89,271.01L478.12,273.32" fill="none" stroke="#000000" style="-webkit-tap-highlight-color: rgba(0, 0, 0, 0); stroke-linecap: round; stroke-linejoin: round; stroke-width: 5;" /><path d="M492.75,261L491.98,260.23L491.98,259.46L493.52,258.69L495.06,258.69L498.91,258.69L501.99,259.46L505.07,261L508.15,262.54L511.23,265.62L517.39,267.93L522.01,269.47L526.63,271.01L532.02,272.55L538.95,275.63L542.8,278.71L547.42,281.79L551.27,285.64L556.66,287.95L562.82,290.26L566.66,290.26" fill="none" stroke="#000000" style="-webkit-tap-highlight-color: rgba(0, 0, 0, 0); stroke-linecap: round; stroke-linejoin: round; stroke-width: 5;" /><path d="M481.2,280.25L482.74,281.02L486.59,282.56L488.13,282.56L495.06,284.1L500.45,284.87L507.38,286.41L512,287.18L515.08,288.72L519.7,289.49L522.78,291.03L525.86,291.8L529.71,293.34L531.25,295.65L532.79,297.96L532.79,298.73L533.56,300.27L534.33,301.04L534.33,301.81L534.33,302.58L535.1,304.12L536.64,304.12L537.41,304.12L538.95,304.12L539.72,304.12L540.49,304.12" fill="none" stroke="#000000" style="-webkit-tap-highlight-color: rgba(0, 0, 0, 0); stroke-linecap: round; stroke-linejoin: round; stroke-width: 5;" /><path d="M538.95,304.89L538.18,305.66L536.64,307.97L535.87,313.36L532.79,322.6L531.25,328.76L529.71,335.69L528.17,342.62L528.17,349.55L528.94,354.17L530.48,357.25L531.25,359.55L532.79,361.86" fill="none" stroke="#000000" style="-webkit-tap-highlight-color: rgba(0, 0, 0, 0); stroke-linecap: round; stroke-linejoin: round; stroke-width: 5;" /><path d="M563.58,276.4L564.35,276.4L566.66,276.4L570.51,276.4L574.36,277.17L580.52,277.94L584.37,278.71L588.99,278.71L594.38,279.48L602.85,279.48L607.47,279.48L612.86,279.48L618.25,279.48L622.87,279.48L628.26,280.25L635.19,280.25L639.81,281.02L643.66,281.02L649.82,281.02L654.44,281.02L659.83,281.02L664.45,281.02L668.29,281.79L672.91,281.79L679.07,283.33L682.92,283.33L691.39,284.1L692.93,284.1L695.24,284.1L698.32,284.87L702.17,284.87L706.02,284.87L709.87,284.1L713.72,285.64L716.8,285.64L719.88,286.41L722.96,287.18L728.35,287.95L731.43,287.18L735.28,287.95L738.36,287.95L742.21,288.72L744.52,289.49L756.07,290.26L760.69,290.26" fill="none" stroke="#000000" style="-webkit-tap-highlight-color: rgba(0, 0, 0, 0); stroke-linecap: round; stroke-linejoin: round; stroke-width: 5;" /><path d="M455.03,95.47L455.8,94.7L458.11,94.7L459.65,93.93L460.42,93.93L461.18,93.93L462.72,94.7L464.26,95.47L466.57,97.01L468.88,99.32L471.96,102.4L475.04,104.71L478.89,107.02L483.51,109.33L487.36,111.64L494.29,114.72L498.14,117.03L502.76,118.57L507.38,120.11L513.54,121.65L516.62,122.42L520.47,123.96L522.78,126.27L525.86,127.81L531.25,130.89L535.1,132.43L538.18,133.97L541.26,136.28L545.88,139.36L550.5,141.67L554.35,143.98L559.74,146.29L564.35,148.6L569.74,150.91L577.44,154.75L582.83,157.06L587.45,159.37L595.15,162.45L599.77,163.99L604.39,165.53L607.47,167.84L611.32,169.38L614.4,171.69L619.02,174.77L622.1,176.31L625.18,178.62L629.8,181.7L638.27,187.09L641.35,188.63L643.66,190.17L646.74,190.94L649.05,192.48L654.44,194.79L655.98,194.79L661.37,196.33L664.45,197.1L668.29,197.87L670.6,198.64L673.68,200.18L677.53,201.72L681.38,202.49L684.46,203.26L688.31,204.8L692.93,207.11L696.78,208.65L699.86,210.19L703.71,211.73L707.56,213.27L709.87,214.04L717.57,216.35L721.42,218.66L725.27,220.97L729.89,224.05L733.74,225.59L736.82,227.13L739.9,229.44L742.21,230.98L743.75,231.75L748.37,234.83L751.45,237.14L752.99,238.68L756.84,240.99L759.15,241.76L761.46,242.53L762.23,243.3L763,244.07L764.54,244.84L765.31,247.15L766.08,247.15L767.62,249.46L767.62,251L768.38,253.31L769.15,254.85L769.92,256.38L769.92,257.92L771.46,262.54L772.23,266.39L772.23,268.7L772.23,271.78L772.23,274.86L771.46,277.94L769.92,282.56L769.15,286.41L768.38,289.49L767.62,292.57L767.62,295.65L768.38,301.04" fill="none" stroke="#000000" style="-webkit-tap-highlight-color: rgba(0, 0, 0, 0); stroke-linecap: round; stroke-linejoin: round; stroke-width: 5;" /><path d="M474.27,64.67L473.5,65.44L473.5,66.21L473.5,72.37L472.73,81.61L472.73,95.47L473.5,101.63L475.04,105.48L475.81,107.02L477.35,107.79" fill="none" stroke="#000000" style="-webkit-tap-highlight-color: rgba(0, 0, 0, 0); stroke-linecap: round; stroke-linejoin: round; stroke-width: 5;" /><path d="M468.11,70.06L468.11,68.52L468.11,66.21L468.11,63.13L468.88,60.82L470.42,57.74L472.73,56.2L475.04,53.89L476.58,52.35L478.89,50.82L481.2,49.28L484.28,48.51L487.36,48.51L489.67,47.74L494.29,48.51L498.14,48.51L500.45,49.28L503.53,49.28L506.61,50.05L510.46,50.05L512.77,50.05L514.31,50.05L516.62,50.82L518.93,51.58L521.24,51.58L523.55,51.58L525.86,52.35L528.17,53.12L529.71,53.89L534.33,54.66L536.64,55.43L540.49,56.2L544.34,56.2L546.65,56.2L549.73,56.97L552.81,56.97L555.89,56.97L561.28,56.2L563.58,56.2L565.89,56.2L568.97,56.97L572.82,57.74L575.9,58.51L578.21,58.51L580.52,59.28L583.6,60.05L586.68,60.82L590.53,62.36L593.61,63.9L596.69,64.67L604.39,66.98L605.93,67.75L607.47,67.75L610.55,67.75L613.63,68.52L615.17,68.52L622.1,69.29L625.18,69.29L628.26,69.29L631.34,70.06L635.19,70.06L638.27,70.83L641.35,71.6L644.43,71.6L647.51,72.37L652.13,73.14L655.21,73.91L658.29,74.68L661.37,75.45L665.22,76.99L668.29,77.76L670.6,79.3L672.91,80.07L675.99,82.38L678.3,83.92L680.61,85.46L682.15,87L685.23,90.08L686.77,91.62L688.31,93.93L689.85,95.47L691.39,97.01L692.93,99.32L695.24,100.86L696.78,102.4L698.32,103.94L699.86,106.25L701.4,108.56L702.17,110.87L702.94,113.18L703.71,115.49L705.25,119.34L706.02,121.65L706.79,124.73L707.56,127.04L708.33,130.12L709.1,133.97L709.1,136.28L709.87,138.59L710.64,140.13L711.41,142.44L712.18,145.52L712.18,147.06L712.95,148.6L712.95,150.14L714.49,151.68L714.49,153.22L716.03,154.75L716.8,156.29L716.8,157.06L718.34,160.14L719.11,160.91L719.88,161.68L720.65,162.45L721.42,163.99L721.42,164.76L722.19,164.76L722.19,166.3L722.96,167.84L723.73,169.38L723.73,171.69L723.73,173.23L723.73,175.54L723.73,177.08L722.96,177.85L722.19,180.16L722.19,182.47L721.42,184.78L720.65,187.09L720.65,188.63L719.88,191.71L719.88,192.48L719.11,194.02L718.34,194.79L718.34,195.56L718.34,196.33L717.57,197.87L716.8,198.64L716.03,199.41L715.26,200.18L714.49,200.18L714.49,200.95L714.49,201.72L715.26,203.26L716.8,204.03L717.57,204.03L719.88,205.57L721.42,207.11L722.96,207.88L725.27,208.65L726.81,210.19L729.12,210.19L730.66,210.96L732.2,212.5L733.74,214.04L735.28,215.58L736.82,216.35L738.36,217.89L739.13,218.66L740.67,220.97L742.98,224.05L743.75,225.59L745.29,227.13L746.06,227.9L748.37,230.98L749.91,231.75L754.53,234.83L755.3,235.6L758.38,237.91L759.92,238.68L761.46,239.45L763,240.22L764.54,240.99L765.31,241.76L767.62,242.53L768.38,243.3L769.92,244.07L771.46,244.84L772.23,246.38L773.77,247.92L775.31,249.46L776.85,249.46L779.16,251" fill="none" stroke="#000000" style="-webkit-tap-highlight-color: rgba(0, 0, 0, 0); stroke-linecap: round; stroke-linejoin: round; stroke-width: 5;" /><path d="M756.84,230.21L759.92,230.98L761.46,231.75L763.77,233.29L766.85,235.6L769.92,237.91L773,240.22L776.85,241.76L780.7,243.3L785.32,246.38L790.71,251L795.33,254.85L799.18,257.15L806.11,261L810.73,264.08L814.58,267.16L819.2,270.24L823.82,273.32L829.21,276.4L835.37,279.48L839.22,280.25L843.07,281.79L847.69,283.33L850.77,284.87L853.85,286.41L856.93,287.18L860.01,288.72L863.09,290.26L866.17,291.03L869.25,292.57L871.55,293.34L875.4,294.11L878.48,294.88L880.79,294.88L883.1,295.65L885.41,296.42L887.72,297.19L891.57,297.19L894.65,297.19L896.19,297.96L899.27,298.73L902.35,298.73L904.66,298.73L906.97,298.73L909.28,298.73L912.36,299.5L914.67,300.27L916.98,301.04L919.29,301.81L920.06,301.81L923.91,304.89L926.22,305.66L927.76,307.2L932.38,310.28L933.92,313.36L935.46,314.9L937.77,317.21L940.08,319.52L942.39,321.83L943.16,323.37L945.47,326.45L950.86,331.07L953.94,334.15L960.87,340.31L964.72,343.39L970.88,348.01L972.42,349.55L977.03,351.86L980.11,354.17L986.27,356.48L990.12,358.02L995.51,361.09L999.36,363.4L1002.44,365.71L1006.29,367.25L1010.91,371.1L1015.53,373.41L1017.84,374.18" fill="none" stroke="#000000" style="-webkit-tap-highlight-color: rgba(0, 0, 0, 0); stroke-linecap: round; stroke-linejoin: round; stroke-width: 5;" /><path d="M870.02,304.12L870.02,304.89L870.02,305.66L870.02,307.97L870.02,311.05L870.78,317.98L871.55,321.83L872.32,325.68L873.09,330.3L873.86,333.38L874.63,338L876.17,339.54L877.71,341.08L878.48,341.85L880.02,343.39L880.79,344.93L882.33,347.24L883.87,348.78L885.41,350.32L888.49,352.63L890.8,354.17L892.34,354.94L894.65,355.71L898.5,357.25L900.81,358.78L903.89,360.32L906.97,361.09L910.05,361.86L913.13,363.4L918.52,365.71L923.14,367.25L927.76,368.79L932.38,370.33L937.77,372.64L941.62,374.95L944.7,376.49L947.01,378.8L949.32,381.11L953.17,384.96L956.25,386.5L959.33,388.04L962.41,390.35L967.03,394.2L969.34,396.51L972.42,398.82L975.49,401.13L977.8,404.21L980.88,407.29L986.27,411.14L987.04,412.68L990.89,414.99L991.66,415.76L993.97,417.3L996.28,418.84L998.59,420.38L1000.13,421.92L1003.21,425L1005.52,426.54L1006.29,428.08L1009.37,429.62L1010.91,431.16L1013.99,432.7L1016.3,433.47" fill="none" stroke="#000000" style="-webkit-tap-highlight-color: rgba(0, 0, 0, 0); stroke-linecap: round; stroke-linejoin: round; stroke-width: 5;" /><path d="M699.09,435.01L695.24,434.24L688.31,432.7L683.69,432.7L679.84,431.93L676.76,431.16L674.45,430.39L675.22,431.16L679.84,431.93L687.54,432.7L695.24,433.47L702.94,434.24L710.64,435.01L718.34,435.78L727.58,437.32L742.98,438.09L753.76,438.86L764.54,438.86L781.47,438.86L792.25,439.63L803.8,439.63L815.35,438.86L826.9,438.09L843.84,436.55L853.85,436.55L863.09,436.55L872.32,437.32L886.18,436.55L895.42,436.55L904.66,436.55L908.51,437.32L919.29,438.09L930.84,440.4L938.54,439.63L942.39,439.63L948.55,439.63" fill="none" stroke="#000000" style="-webkit-tap-highlight-color: rgba(0, 0, 0, 0); stroke-linecap: round; stroke-linejoin: round; stroke-width: 5;" /><path d="M956.25,441.94L956.25,442.71L959.33,445.02L963.95,448.1L971.65,452.72L974.72,454.26L980.88,458.88L989.35,468.11L997.05,474.27L1006.29,482.74L1014.76,490.44L1022.46,496.6" fill="none" stroke="#000000" style="-webkit-tap-highlight-color: rgba(0, 0, 0, 0); stroke-linecap: round; stroke-linejoin: round; stroke-width: 5;" /><path d="M724.5,441.94L725.27,441.94L726.04,441.94L728.35,442.71L730.66,443.48L733.74,445.79L736.05,448.1L739.9,452.72L743.75,455.8L747.6,459.65L752.99,463.49L764.54,470.42L772.23,472.73L782.24,476.58L795.33,484.28L814.58,494.29L822.28,497.37L825.36,498.91" fill="none" stroke="#000000" style="-webkit-tap-highlight-color: rgba(0, 0, 0, 0); stroke-linecap: round; stroke-linejoin: round; stroke-width: 5;" /><path d="M599,498.14L598.23,498.14L599,498.91L602.08,498.91L605.93,498.14L611.32,498.91L619.79,498.91L628.26,498.91L637.5,498.14L652.13,497.37L662.14,497.37L672.14,498.14L682.15,498.91L691.39,498.91L704.48,498.91L712.95,498.91L720.65,498.91L727.58,499.68L737.59,499.68L744.52,499.68L749.91,500.45L756.07,500.45L762.23,501.99L769.15,503.53L777.62,504.3L786.09,505.07L795.33,505.07L799.95,505.07L816.89,503.53" fill="none" stroke="#000000" style="-webkit-tap-highlight-color: rgba(0, 0, 0, 0); stroke-linecap: round; stroke-linejoin: round; stroke-width: 5;" /><path d="M575.9,499.68L578.21,499.68L581.29,500.45L584.37,501.99L588.99,504.3L594.38,506.61L604.39,512L612.86,516.62L623.64,520.47L636.73,525.86" fill="none" stroke="#000000" style="-webkit-tap-highlight-color: rgba(0, 0, 0, 0); stroke-linecap: round; stroke-linejoin: round; stroke-width: 5;" /><path d="M632.88,522.01L632.11,520.47L631.34,519.7L630.57,521.24L630.57,522.78L630.57,523.55L630.57,524.32L632.11,525.86L634.42,527.4L637.5,528.94L642.89,532.79L647.51,535.87L652.9,538.95L658.29,541.26L664.45,544.34L670.6,547.42L677.53,552.04L683.69,555.12L691.39,559.74L700.63,563.58L706.79,566.66L710.64,567.43L719.88,572.05L722.96,573.59L732.2,578.21L739.9,582.06L745.29,584.37L752.22,586.68L760.69,592.07L765.31,594.38L769.92,596.69L774.54,598.23L780.7,601.31L785.32,602.85L789.17,605.16L793.79,607.47L800.72,611.32L804.57,613.63L809.19,616.71L813.81,617.48L817.66,619.79L825.36,622.87L829.21,625.18L833.06,627.49L836.91,630.57L842.3,634.42L846.15,636.73L849.23,639.04L858.47,644.43L860.78,645.2L864.63,648.28L866.17,648.28L870.78,650.59L876.94,654.44L880.79,656.75L885.41,658.29L890.03,659.06L893.88,659.83L896.96,660.6L902.35,661.37L905.43,662.14L909.28,662.14L913.9,662.91L916.98,662.91L919.29,663.68L921.6,664.45L924.68,665.22L926.99,665.98L931.61,666.75L934.69,667.52L936.23,667.52L941.62,667.52" fill="none" stroke="#000000" style="-webkit-tap-highlight-color: rgba(0, 0, 0, 0); stroke-linecap: round; stroke-linejoin: round; stroke-width: 5;" /><path d="M315.67,85.46L316.44,83.92L317.98,81.61L317.98,80.07L317.98,79.3L317.21,79.3L314.13,80.84L311.05,82.38L307.2,84.69L301.81,87.77L292.57,93.16L287.95,96.24L283.33,99.32L278.71,102.4L274.86,107.02L268.7,113.95L264.08,118.57L259.46,122.42L254.85,125.5L247.92,130.89L244.07,133.97L230.98,142.44L229.44,143.21" fill="none" stroke="#000000" style="-webkit-tap-highlight-color: rgba(0, 0, 0, 0); stroke-linecap: round; stroke-linejoin: round; stroke-width: 5;" /><path d="M323.37,81.61L322.6,80.07L324.14,77.76L327.22,76.99L333.38,75.45L338,74.68L344.16,73.14L350.32,72.37L359.55,71.6L366.48,72.37L372.64,72.37L378.03,71.6L382.65,71.6L386.5,71.6L391.12,70.83L394.2,70.06L396.51,68.52L400.36,65.44L401.9,63.9L402.67,62.36L402.67,60.05L404.21,58.51L407.29,57.74L409.6,56.97L411.91,56.2L414.99,56.2L419.61,56.97L422.69,58.51L425.77,60.05L428.85,62.36L432.7,64.67L438.86,68.52L442.71,71.6L445.79,73.91L448.87,75.45L452.72,78.53L455.03,80.07L457.34,82.38L460.42,83.92L462.72,85.46L465.03,86.23L467.34,87.77L468.88,89.31L470.42,90.85L471.96,91.62L475.81,91.62L478.89,91.62L479.66,91.62" fill="none" stroke="#000000" style="-webkit-tap-highlight-color: rgba(0, 0, 0, 0); stroke-linecap: round; stroke-linejoin: round; stroke-width: 5;" /><path d="M244.07,139.36L242.53,140.13L240.99,140.9L239.45,142.44L236.37,145.52L234.06,150.14L233.29,154.75L232.52,159.37L231.75,164.76L230.98,167.84L229.44,170.92L228.67,173.23L227.9,176.31L227.9,177.85L227.13,179.39L227.13,182.47L226.36,183.24L225.59,185.55L224.05,187.09L222.51,189.4L220.97,190.94L218.66,194.02L215.58,197.87L212.5,199.41L210.19,201.72L207.88,203.26L205.57,206.34L204.03,207.88L203.26,209.42L202.49,210.96L202.49,212.5L201.72,212.5" fill="none" stroke="#000000" style="-webkit-tap-highlight-color: rgba(0, 0, 0, 0); stroke-linecap: round; stroke-linejoin: round; stroke-width: 5;" /><path d="M35.42,344.93L36.19,344.16L37.73,344.16L36.96,344.16L36.19,344.93L35.42,345.7L32.34,348.78L29.26,351.09L28.49,351.09L30.03,350.32L33.88,345.7L37.73,342.62L42.35,338.77L48.51,333.38L61.59,321.83L72.37,313.36L83.92,304.12L95.47,294.88L113.95,280.25L124.73,271.78L133.97,265.62L142.44,261L149.37,256.38L155.52,251.77L165.53,242.53L167.84,240.99L170.92,237.91L174,235.6L177.08,233.29L179.39,230.98L181.7,228.67L184.01,226.36L187.86,224.05L190.94,223.28L194.02,221.74L197.1,220.97L200.18,220.2L206.34,217.89L210.96,216.35L214.04,214.81L216.35,211.73L217.89,208.65L218.66,203.26L219.43,198.64L220.2,196.33L222.51,191.71" fill="none" stroke="#000000" style="-webkit-tap-highlight-color: rgba(0, 0, 0, 0); stroke-linecap: round; stroke-linejoin: round; stroke-width: 5;" /><path d="M5.39,184.78L4.62,184.01L5.39,184.01L7.7,184.01L11.55,182.47L15.4,181.7L18.48,180.16L23.87,178.62L26.95,178.62L30.8,178.62L36.96,178.62L40.04,178.62L43.12,178.62L46.2,178.62L50.05,177.85L52.35,177.08L56.97,177.08L59.28,177.08L61.59,177.85L64.67,177.85L68.52,177.85L70.83,177.85L73.91,177.85L76.22,177.85L78.53,178.62L83.15,179.39L84.69,179.39L87,179.39L88.54,179.39L91.62,180.16L93.93,180.93L96.24,180.93L98.55,180.93L100.86,181.7L104.71,183.24L107.79,183.24L111.64,184.01L113.95,184.01L118.57,184.01L122.42,184.01L130.12,183.24" fill="none" stroke="#000000" style="-webkit-tap-highlight-color: rgba(0, 0, 0, 0); stroke-linecap: round; stroke-linejoin: round; stroke-width: 5;" /><path d="M135.51,167.84L134.74,170.15L133.97,172.46L133.2,174.77L132.43,177.85L131.66,182.47L131.66,184.78L132.43,185.55L133.2,186.32" fill="none" stroke="#000000" style="-webkit-tap-highlight-color: rgba(0, 0, 0, 0); stroke-linecap: round; stroke-linejoin: round; stroke-width: 5;" /><path d="M137.05,163.99L137.82,160.91L138.59,160.14L140.13,158.6L141.67,157.06L147.83,153.98L148.6,153.98L150.91,154.75L153.98,155.52L157.06,156.29L157.83,157.06L160.14,157.83L161.68,158.6L163.99,160.14L164.76,160.14L165.53,160.91L167.07,161.68L168.61,162.45L170.15,163.22L171.69,163.99L174,164.76L175.54,165.53L177.08,166.3L180.16,168.61L182.47,169.38L184.78,169.38L187.09,170.15L189.4,171.69L191.71,173.23L194.02,174.77" fill="none" stroke="#000000" style="-webkit-tap-highlight-color: rgba(0, 0, 0, 0); stroke-linecap: round; stroke-linejoin: round; stroke-width: 5;" /><path d="M182.47,170.15L183.24,168.61L185.55,167.84L193.25,163.99L194.02,163.99L196.33,162.45L198.64,162.45L200.95,162.45L204.03,161.68L207.88,160.91L210.19,160.91L211.73,160.91L213.27,160.91L214.81,160.91L217.89,161.68L220.2,160.91L222.51,160.14L224.05,159.37L226.36,159.37L228.67,159.37L230.98,159.37L234.83,159.37L235.6,158.6" fill="none" stroke="#000000" style="-webkit-tap-highlight-color: rgba(0, 0, 0, 0); stroke-linecap: round; stroke-linejoin: round; stroke-width: 5;" /><path d="M150.91,190.94L149.37,190.17L151.68,191.71L151.68,194.02L151.68,197.1L151.68,204.03L152.45,208.65L153.22,213.27L153.98,218.66L153.22,225.59L151.68,230.98L150.91,235.6L150.14,238.68L150.14,241.76L150.14,244.07L150.14,246.38L150.91,248.69L150.91,250.23L151.68,251" fill="none" stroke="#000000" style="-webkit-tap-highlight-color: rgba(0, 0, 0, 0); stroke-linecap: round; stroke-linejoin: round; stroke-width: 5;" /><path d="M80.84,186.32L80.07,185.55L80.07,184.01L80.07,183.24L80.84,183.24L82.38,184.78L83.92,187.86L84.69,192.48L85.46,198.64L85.46,204.03L85.46,209.42L85.46,216.35L85.46,221.74L85.46,228.67L85.46,232.52L85.46,235.6L85.46,237.91L85.46,238.68L85.46,239.45L86.23,238.68" fill="none" stroke="#000000" style="-webkit-tap-highlight-color: rgba(0, 0, 0, 0); stroke-linecap: round; stroke-linejoin: round; stroke-width: 5;" /><path d="M66.98,177.08L66.21,179.39L65.44,181.7L64.67,185.55L65.44,188.63L66.21,197.1L66.98,203.26L66.98,208.65L67.75,210.96L68.52,216.35L68.52,221.74L68.52,226.36L68.52,234.06L67.75,237.91L67.75,241.76L66.98,244.07L67.75,245.61" fill="none" stroke="#000000" style="-webkit-tap-highlight-color: rgba(0, 0, 0, 0); stroke-linecap: round; stroke-linejoin: round; stroke-width: 5;" /><path d="M33.88,184.01L36.19,183.24L37.73,182.47L39.27,182.47L40.81,186.32L42.35,190.94L43.12,197.1L43.89,202.49L45.43,210.96L45.43,215.58L46.2,219.43L46.2,221.74" fill="none" stroke="#000000" style="-webkit-tap-highlight-color: rgba(0, 0, 0, 0); stroke-linecap: round; stroke-linejoin: round; stroke-width: 5;" /><path d="M28.49,181.7L28.49,183.24L28.49,187.86L28.49,194.02L28.49,200.95L29.26,207.11L29.26,212.5L29.26,213.27" fill="none" stroke="#000000" style="-webkit-tap-highlight-color: rgba(0, 0, 0, 0); stroke-linecap: round; stroke-linejoin: round; stroke-width: 5;" /><path d="M13.86,185.55L13.09,185.55L12.32,185.55L12.32,187.09L12.32,191.71L13.86,198.64L14.63,204.8L14.63,206.34" fill="none" stroke="#000000" style="-webkit-tap-highlight-color: rgba(0, 0, 0, 0); stroke-linecap: round; stroke-linejoin: round; stroke-width: 5;" /><path d="M20.79,222.51L17.71,221.74L16.94,221.74L15.4,221.74L13.09,222.51L10.78,223.28L7.7,226.36L5.39,230.98L3.08,236.37" fill="none" stroke="#000000" style="-webkit-tap-highlight-color: rgba(0, 0, 0, 0); stroke-linecap: round; stroke-linejoin: round; stroke-width: 5;" /><path d="M34.65,237.91L31.57,240.22L28.49,242.53L26.18,245.61L22.33,248.69L18.48,251.77L13.86,255.62L6.93,261.77L3.08,265.62L1.54,268.7L0.77,271.01" fill="none" stroke="#000000" style="-webkit-tap-highlight-color: rgba(0, 0, 0, 0); stroke-linecap: round; stroke-linejoin: round; stroke-width: 5;" /><path d="M40.04,265.62L40.81,264.85L41.58,264.08L42.35,263.31L42.35,264.08L42.35,264.85L42.35,265.62L41.58,267.93L40.04,272.55L40.04,273.32L40.04,274.86L40.04,275.63L40.81,277.17L40.04,275.63L40.04,274.09L40.04,272.55L40.81,271.01L42.35,268.7L43.89,266.39L45.43,265.62L47.74,264.85L50.82,264.08L53.89,263.31L57.74,261.77L60.82,261L64.67,260.23L68.52,260.23L72.37,260.23L76.99,260.23L81.61,260.23L84.69,261L87,260.23L89.31,261L91.62,261.77L94.7,261.77L99.32,261.77L102.4,261.77L106.25,262.54L110.1,262.54L117.03,262.54L120.88,261L125.5,260.23L130.12,260.23L133.97,259.46L136.28,259.46L140.9,259.46L143.21,260.23" fill="none" stroke="#000000" style="-webkit-tap-highlight-color: rgba(0, 0, 0, 0); stroke-linecap: round; stroke-linejoin: round; stroke-width: 5;" /><path d="M40.81,277.94L40.04,281.79L40.04,284.1L38.5,287.95L36.96,289.49L36.19,290.26L32.34,294.11L29.26,298.73L23.1,302.58L21.56,304.12L15.4,307.97L9.24,311.05L6.16,314.9L3.08,318.75L0.77,322.6" fill="none" stroke="#000000" style="-webkit-tap-highlight-color: rgba(0, 0, 0, 0); stroke-linecap: round; stroke-linejoin: round; stroke-width: 5;" /><path d="M26.18,304.89L26.18,304.12L26.18,303.35L28.49,302.58L32.34,301.81L39.27,301.04L46.2,300.27L53.12,299.5L61.59,298.73L69.29,298.73L76.99,298.73L87.77,298.73L93.16,297.96L97.78,297.19L98.55,296.42L100.09,294.88L98.55,297.19" fill="none" stroke="#000000" style="-webkit-tap-highlight-color: rgba(0, 0, 0, 0); stroke-linecap: round; stroke-linejoin: round; stroke-width: 5;" /><path d="M2.31,318.75L3.85,317.98L6.93,317.21L12.32,315.67L17.71,314.9L24.64,314.13L33.11,313.36L46.2,312.59L53.89,311.05L61.59,310.28L72.37,309.51L76.99,308.74L79.3,308.74L82.38,309.51" fill="none" stroke="#000000" style="-webkit-tap-highlight-color: rgba(0, 0, 0, 0); stroke-linecap: round; stroke-linejoin: round; stroke-width: 5;" /><path d="M0,325.68L3.08,325.68L6.16,325.68L10.78,325.68L17.71,325.68L25.41,325.68L36.19,324.91L43.89,324.14L50.82,321.83L61.59,319.52L68.52,318.75L73.14,318.75L76.99,318.75L77.76,318.75" fill="none" stroke="#000000" style="-webkit-tap-highlight-color: rgba(0, 0, 0, 0); stroke-linecap: round; stroke-linejoin: round; stroke-width: 5;" /><path d="M12.32,336.46L12.32,337.23L14.63,337.23L18.48,338L22.33,337.23L26.18,337.23L30.03,337.23L34.65,337.23L37.73,337.23L43.12,337.23L46.2,337.23L46.97,337.23L47.74,337.23" fill="none" stroke="#000000" style="-webkit-tap-highlight-color: rgba(0, 0, 0, 0); stroke-linecap: round; stroke-linejoin: round; stroke-width: 5;" /><path d="M3.08,341.08L3.85,340.31L5.39,339.54L8.47,338.77L21.56,337.23L28.49,335.69L35.42,334.92L41.58,333.38L50.05,331.84L53.89,331.07L56.97,331.07" fill="none" stroke="#000000" style="-webkit-tap-highlight-color: rgba(0, 0, 0, 0); stroke-linecap: round; stroke-linejoin: round; stroke-width: 5;" /><path d="M2.31,331.07L3.08,329.53L4.62,327.99L6.16,326.45L7.7,326.45L10.01,325.68L12.32,326.45L15.4,327.22L22.33,327.99L26.95,327.99L33.11,327.22L37.73,326.45L46.2,325.68L50.82,324.91L55.43,324.14L58.51,323.37L60.82,323.37" fill="none" stroke="#000000" style="-webkit-tap-highlight-color: rgba(0, 0, 0, 0); stroke-linecap: round; stroke-linejoin: round; stroke-width: 5;" /><path d="M6.16,363.4L5.39,363.4L4.62,363.4L3.85,363.4L4.62,362.63L10.78,361.09L15.4,358.02L20.02,355.71L23.87,354.17L26.95,352.63L27.72,351.86L28.49,351.09L28.49,350.32" fill="none" stroke="#000000" style="-webkit-tap-highlight-color: rgba(0, 0, 0, 0); stroke-linecap: round; stroke-linejoin: round; stroke-width: 5;" /><path d="M14.63,350.32L13.86,350.32L13.09,350.32L13.86,349.55L16.94,349.55L23.1,348.78L26.95,349.55L31.57,350.32L35.42,350.32L37.73,349.55L42.35,347.24" fill="none" stroke="#000000" style="-webkit-tap-highlight-color: rgba(0, 0, 0, 0); stroke-linecap: round; stroke-linejoin: round; stroke-width: 5;" /><path d="M585.91,300.27L584.37,297.96L584.37,297.19L586.68,296.42L590.53,297.19L595.15,298.73L599,299.5L606.7,300.27L611.32,300.27L615.94,300.27L620.56,301.04L631.34,302.58L635.19,303.35L639.04,303.35L642.12,302.58L645.2,302.58L649.05,302.58L650.59,303.35L652.9,303.35L655.98,304.12L659.06,304.12L662.14,304.12L664.45,304.12L667.52,304.12L669.83,304.12L672.91,304.89L674.45,304.89L675.99,304.89L677.53,304.89L679.84,305.66L681.38,306.43L683.69,307.2L684.46,307.2L686.77,307.2L687.54,307.97L689.08,308.74L689.85,308.74L692.16,311.05L693.7,311.82L694.47,312.59L695.24,313.36L696.01,314.9L696.78,316.44L698.32,319.52L698.32,321.06L699.09,323.37L699.86,324.91L699.86,327.22L699.86,329.53L699.86,333.38L699.09,336.46L699.09,339.54L699.09,343.39L699.09,345.7L699.09,347.24L699.09,349.55L698.32,352.63L698.32,353.4L697.55,353.4L696.78,354.17L695.24,354.17L692.16,354.94L689.85,353.4L687.54,353.4L683.69,353.4L678.3,354.17L675.22,354.17L671.37,353.4L667.52,351.86L663.68,351.09L654.44,347.24L651.36,345.7L649.05,344.93L646.74,343.39L642.89,341.85L639.04,341.08L625.95,338L622.87,336.46L619.02,335.69L615.94,334.92L612.09,334.15L606.7,333.38L602.85,331.84L599,331.07L595.92,329.53L592.07,327.99L587.45,324.14L585.14,321.83L582.06,318.75L578.98,314.9L574.36,310.28L570.51,307.97L567.43,304.89L564.35,302.58L562.05,300.27L558.2,296.42L557.43,295.65L557.43,294.88" fill="none" stroke="#000000" style="-webkit-tap-highlight-color: rgba(0, 0, 0, 0); stroke-linecap: round; stroke-linejoin: round; stroke-width: 5;" /><path d="M796.1,737.59L795.33,737.59L796.1,735.28L798.41,734.51L801.49,733.74L808.42,732.97L815.35,732.97L823.05,732.97L830.75,734.51L838.45,735.28L850,736.05L858.47,736.05L866.94,736.05L874.63,736.05L884.64,736.05L890.8,736.05L896.96,732.97L902.35,729.89L907.74,725.27L913.9,719.88L918.52,716.03L921.6,712.18L924.68,709.1L929.3,704.48L931.61,702.17L933.92,699.86L935.46,696.78L937,694.47L937,689.08L936.23,685.23L933.92,682.92L931.61,679.84L926.22,675.22L923.14,672.14L919.29,669.83L912.36,666.75L906.97,665.22L902.35,664.45L896.96,663.68L892.34,663.68L890.8,663.68L890.03,662.91L890.8,659.06L891.57,655.98L891.57,653.67L890.03,651.36L886.95,649.05L884.64,646.74L882.33,643.66L876.17,640.58L871.55,637.5L866.94,635.96L862.32,633.65L856.93,630.57L851.54,627.49L846.15,624.41L843.07,622.87L840.76,620.56L839.22,619.02L838.45,619.02L838.45,618.25L839.22,617.48L841.53,617.48L845.38,616.71L850.77,616.71L854.62,616.71L859.24,616.71L865.4,616.71L870.02,615.94L874.63,615.94L879.25,615.94L883.1,615.17L888.49,615.17L896.19,614.4L900.81,614.4L906.2,614.4L910.82,613.63L918.52,612.09L924.68,611.32L929.3,610.55L935.46,610.55L940.85,610.55L948.55,610.55L953.17,611.32L959.33,611.32L964.72,612.09L972.42,614.4L977.03,615.17L982.42,615.94L988.58,615.17L994.74,614.4L1003.98,612.09L1010.91,609.78L1017.07,607.47" fill="none" stroke="#000000" style="-webkit-tap-highlight-color: rgba(0, 0, 0, 0); stroke-linecap: round; stroke-linejoin: round; stroke-width: 5;" /></svg>