<?xml version="1.0" encoding="utf-8" ?>
<svg baseProfile="full" height="745" version="1.1" width="1024" xmlns="http://www.w3.org/2000/svg" xmlns:ev="http://www.w3.org/2001/xml-events" xmlns:xlink="http://www.w3.org/1999/xlink"><defs /><path d="M1.81,175.49L5,177L7,177L13,177L11,177L14,177L16,177L18,177L20,177L22,177L24,177L27,177L25,177L30,176L31,175L33,175L34,174L36,175L40,177L37,175L43,176L43,176L45,176L47,176L47,176L49,177L49,177L52,179L54,179L56,179L58,179L58,179L63,181L63,181L69,177L67,179L69,178L69,177L72,179L71,179L74,180L76,181L78,180L76,183L81,181L82,184L85,185L83,184L86,186L86,186L94,180L86,186L96,189L96,189L98,189L100,189L103,184L104,187L106,186L107,186L109,186L110,186L112,187L114,188L118,188L116,188L120,190L120,192L122,193L125,192L127,192L128,191L127,192L130,191L131,190L137,192L137,190L137,190L139,188L139,186L139,185L143,183L143,181L143,178L142,176L142,175L139,174L139,173L136,172L136,170L136,167L136,166L136,165L136,163L137,161L139,160L141,158L143,159L144,159L144,159L146,156L152,157L152,157L154,157L156,159L159,160L156,159L164,159L161,160L165,159L166,159L168,158L170,162L172,162L172,162L172,162L172,162L180,168L180,170L180,170L181,168L184,166L192,168L192,168L184,166L192,168L192,168L195,163L194,167L195,163L197,161L201,159L197,161L200,159L202,158L208,154L203,157L205,155L208,154L212,153L217,153L213,153L215,153L219,153L221,166L223,166L221,166L224,153L224,153L226,153L226,153L228,153L228,153L232,154L230,153L235,152L235,154L235,152L235,154L235,154L235,150L235,152L235,147L235,148L235,145L235,143L235,141L235,139" fill="none" stroke="#000000" style="-webkit-tap-highlight-color: rgba(0, 0, 0, 0); stroke-linecap: round; stroke-linejoin: round; stroke-width: 5;" /><path d="M237,135L235.19,137.5L235,137L235,137L235,137L237,134L244,130L241,132L247,127L252,124L257,120L253,123L258,119L263,115L271,110L269,112L272,108L269,112L277,103L278,102L272,108L279,101L285,97L282,99L284,98L287,96L295,92L287,96L292,93L295,92L299,89L303,87L297,90L303,87L307,85L304,86L307,85L310,83L313,82L314,81L316,80L313,82L318,79L326,76L320,78L320,78L326,76L326,76L326,76L326,76L331,70L335,68L335,68L338,67L339,67L341,66L339,67L349,66L349,66L354,66L349,66L353,66L356,63L357,63L362,64L360,64L364,64L364,64L371,66L367,65L373,65L377,65L376,65L379,66L384,67L382,67L387,66L389,66L393,69L391,67L396,70L394,69L398,70L398,70L398,67L400,66L400,63L400,59L400,63L400,66L400,58L404,58L405,57L402,57L407,59L411,58L409,57L412,58L417,58L413,58L416,58L421,59L424,60L422,59L426,61L427,62L431,64L430,64L434,63L433,63L436,63L438,62L440,63L441,64L442,67L443,68L445,71L445,71L449,77L449,78L448,80L448,81L448,83L449,84L450,85L451,85L456,87L453,86L457,87L459,88L461,89L461,89L468,87L468,87L468,89L468,89L472,91L470,91" fill="none" stroke="#000000" style="-webkit-tap-highlight-color: rgba(0, 0, 0, 0); stroke-linecap: round; stroke-linejoin: round; stroke-width: 5;" /><path d="M472,94L474,96L475,96L478,98L479,98L474.01,85.03L468,85L468,85L468,81L468,78L467,74L467,72L466,69L467,71L468,61L467,62L470,59L469,60L470,58L472,57L472,56L474,55L474,55L479,52L480,51L479,52L480,51L481,51L486,49L486,49L488,48L490,47L490,47L494,46L496,46L503,44L500,45L500,45L505,43L509,43L508,43L512,44L516,45L526,45L517,45L523,44L532,44L536,47L543,48L541,47L547,48L547,52L550,49L554,54L557,53L561,51L570,51L566,52L563,51L572,52L575,53L584,54L579,53L588,55L592,57L601,59L597,58L602,60L606,62L610,62L611,65L617,65L619,70L624,70L622,70L628,70L631,71L639,72L631,71L636,72L639,72L644,70L646,72L647,73L650,74L652,75L657,79L653,76L661,79L662,79L664,79L665,79L669,81L671,81L672,81L674,82L675,83L677,84L677,84L678,85L678,85L678,85L682,89L682,89L682,89L685,93L688,96L686,94L688,96L688,96L691,101L690,99L690,99L691,101L694,106L693,105L694,106L694,107L694,108L694,108L694,108L694,108L692,117L692,119L692,118L693,124L693,124L694,129L693,124L695,131L696,133L696,133L697,137L696,133L697,137L697,137L697,137L697,139L699,143L700,144L702,146L703,147L702,146L705,149L704,148L707,150L708,150L709,152L708,150L710,152L711,154L712,157L712,156L712,156L712,157L712,156L712,155L712,155L712,155L713,163L713,163L713,163L716,168L716,168L716,168L718,172L717,170L717,170L718,172L718,172L718,175L718,175L718,174L717,179L716,185L717,179L717,179L716,186L716,186L716,186L716,186L716,186L715,187L714,197L714,197L714,197L716,200L714,197L714,199L714,199L715,200" fill="none" stroke="#000000" style="-webkit-tap-highlight-color: rgba(0, 0, 0, 0); stroke-linecap: round; stroke-linejoin: round; stroke-width: 5;" /><path d="M716,201L717,202L717,202L717,202L734.53,204.44L731,207L731,207L733,207L733,207L735,207L735,207L735,207L735,207L733,207L731,210L731,210L735,213L735,213L740,216L744,218L744,218L747,220L751,223L751,223L753,224L753,224L758,228L760,229L760,229L761,230L764,232L768,235L765,233L769,236L769,236L774,241L776,241L776,241L778,241L780,242L782,242L782,244L784,243L783,245L789,246L789,246L789,246L793,249L791,248L794,250L794,250L800,253L799,253L801,253L803,253L807,253L808,253L808,253L808,253L814,262L812,261L818,265L818,265L818,265L837,259L818,265L837,259L838,260L838,260L845,273L838,260L845,273L845,273L845,273L845,273L847,275L849,275L850,275L853,278L855,277L856,277L858,278L859,278L861,279L864,280L864,280L864,281L864,281L864,281L878,286L878,286L878,286L878,286L878,286L876,295L878,286L880,295L881,287L881,295L882,295L882,295L883,297L887,298L888,298L890,298L892,298L894,298L896,300L897,301L898,302L904,303L905,304L909,308L907,306L907,306L912,308L913,309L913,309L915,310L917,310L920,312L919,311L923,315L920,312L924,315L925,315L928,318L925,315L928,318L929,318L931,319L930,319L936,324L937,321L936,324L938,325L939,326L940,327L944,327L944,329L949,332L946,330L948,331L952,334L953,334L955,336L958,338L961,338L962,339L964,339L966,342L968,342L969,341L972,345" fill="none" stroke="#000000" style="-webkit-tap-highlight-color: rgba(0, 0, 0, 0); stroke-linecap: round; stroke-linejoin: round; stroke-width: 5;" /><path d="M975,345L973,345L975,345L979,348L981,348L983,347L984,347L989,348L990,347L984,347L992,349L995,352L995,353L993,350L996,352L998,354L1001,357L996,354L1001,357L1000,364L1000,362L1000,360L1002,364L1002,364L1001,368L1006,367L1003,370L1004,371L1006,373L1005,371L1007,373" fill="none" stroke="#000000" style="-webkit-tap-highlight-color: rgba(0, 0, 0, 0); stroke-linecap: round; stroke-linejoin: round; stroke-width: 5;" /><path d="M539.14,265.95L536,270L536,270L532,272L532,272L523,261L521,259L519,259L517,259L516,259L514,261L512,261L508,261L505,262L501,262L498,262L494,262L492,261L490,259L490,257L494,257L498,257L505,257L512,259L519,259L534,271L536,270L537,270L539,270L540,271L554,266L557,266L561,266L568,268L572,270L563,268L577,271L586,273L581,271L588,273L592,275L593,275L597,275L601,277L599,277L604,277L610,277L613,279L621,279L617,279L626,280L637,280L640,282L631,280L644,282L656,289L656,289L657,289L656,289L657,289L667,292L662,291L667,292L673,294L673,294L673,294L686,286L687,286L691,286L697,288L700,288L715,289L707,289L704,288L711,289L720,289L724,289L727,289L716,289L733,291L745,293L740,293L736,291L753,305L752,305L753,305L749,293L753,305L763,305L763,305L753,305L774,301L767,304L767,304L767,304L767,286L767,289L767,288L774,301L767,284L767,282L767,280L767,279L765,275L767,277L773,262L773,262L771,260L773,262" fill="none" stroke="#000000" style="-webkit-tap-highlight-color: rgba(0, 0, 0, 0); stroke-linecap: round; stroke-linejoin: round; stroke-width: 5;" /><path d="M770,259L768,257L768,257L768,257L762,252L762,252L760,250L763,251L762,252L760,250L760,250L760,250L763,239L763,239L760,250" fill="none" stroke="#000000" style="-webkit-tap-highlight-color: rgba(0, 0, 0, 0); stroke-linecap: round; stroke-linejoin: round; stroke-width: 5;" /><path d="M466.77,180.92L463,183L450,185L450,185L450,185L450,185L457,203L457,203L457,214L461,222L459,219L463,224L465,250L463,241L463,224L465,244L465,257L465,253L465,262L465,261L463,270L463,271L465,266L463,268L452,282L452,282L461,271L452,282L452,283L452,282L452,283L452,283L452,283L461,297L461,299L461,295L461,304L461,302L461,308L456,320L457,321L456,320L459,326L458,322L460,330L460,329L459,331L459,331L459,331L459,331" fill="none" stroke="#000000" style="-webkit-tap-highlight-color: rgba(0, 0, 0, 0); stroke-linecap: round; stroke-linejoin: round; stroke-width: 5;" /><path d="M459,331L461,344L461,346L461,347L461,349L461,351L458,365L458,365L458,365L458,365L458,365L457,368L457,368L457,368L459,382L457,368" fill="none" stroke="#000000" style="-webkit-tap-highlight-color: rgba(0, 0, 0, 0); stroke-linecap: round; stroke-linejoin: round; stroke-width: 5;" /><path d="M354.6,264.14L345,267L346,269L362,271L369,273L376,277L384,279L391,280L394,282L400,284L403,286L407,289L411,293L409,291L412,295L416,297L414,295L420,299L422,300L434,298L423,302L434,298L435,299L435,299L435,299L435,299" fill="none" stroke="#000000" style="-webkit-tap-highlight-color: rgba(0, 0, 0, 0); stroke-linecap: round; stroke-linejoin: round; stroke-width: 5;" /><path d="M436,311" fill="none" stroke="#000000" style="-webkit-tap-highlight-color: rgba(0, 0, 0, 0); stroke-linecap: round; stroke-linejoin: round; stroke-width: 5;" /><path d="M367.27,262.33" fill="none" stroke="#000000" style="-webkit-tap-highlight-color: rgba(0, 0, 0, 0); stroke-linecap: round; stroke-linejoin: round; stroke-width: 5;" /><path d="M438,313L443,317L445,318L440,315L445,320L445,318L456,320L456,320" fill="none" stroke="#000000" style="-webkit-tap-highlight-color: rgba(0, 0, 0, 0); stroke-linecap: round; stroke-linejoin: round; stroke-width: 5;" /><path d="M367,256" fill="none" stroke="#000000" style="-webkit-tap-highlight-color: rgba(0, 0, 0, 0); stroke-linecap: round; stroke-linejoin: round; stroke-width: 5;" /><path d="M443,318" fill="none" stroke="#000000" style="-webkit-tap-highlight-color: rgba(0, 0, 0, 0); stroke-linecap: round; stroke-linejoin: round; stroke-width: 5;" /><path d="M367,256L367,256L369,268L369,271L367,279L369,275L358,294L367,282L358,294L358,294L358,300L356,306L356,304L358,297L356,307L353,317L353,317L353,318L352,324L339,329L339,329L339,329L338,330L338,335L335,338L335,337L335,338" fill="none" stroke="#000000" style="-webkit-tap-highlight-color: rgba(0, 0, 0, 0); stroke-linecap: round; stroke-linejoin: round; stroke-width: 5;" /><path d="M335,338L335,338L335,338L340,351L340,351L339,354L339,354L339,354L338,359L345.55,331.08L339,331L338,330L339,333L338,335L337,336L337,338L337,338L339,354L340,351L338,359L338,359L338,359L341,363L341,363L335,384L335,384L335,384L335,385L335,388L337,393L337,398" fill="none" stroke="#000000" style="-webkit-tap-highlight-color: rgba(0, 0, 0, 0); stroke-linecap: round; stroke-linejoin: round; stroke-width: 5;" /><path d="M337,396L338,400L337,401L336,409L337,416L338,413L336,405L341.94,414.3L337,420L339,429L336,423L337,424L334,425L334,425L336,423L342,417L342,417L340,418L341,423L338,424L333,429L327,439L327,440L332,429L327,440L331,446L320,462L331,446L318,462L317,462L317,462L317,462L311,467L306,469L309,467L309,467L302,470L301,471L301,471L301,471L301,471L301,471L301,471L301,471L293,483L291,485L291,483L291,488L291,487L289,488L289,490L288,492L276,496L276,496L275,498L275,498L275,498L261,515L277,510L275,512L273,514L261,515L261,518L261,518L260,521L261,524L261,524L261,524L261,524L250,537L253,536L261,524L251,536L241,548L241,548L241,548L241,548L241,548L241,548L241,548L240,548L230,548L240,548L226,548L230,548L220,546L221,548L224,548L221,547L218,547L213,547L217,548L215,547L212,549L206,549L209,549L208,549L204,549L200,550L201,550L203,550L195,550L192,550L195,550L190,550L188,550L183,550L186,551L179,551L177,551L168,557L168,555L168,557L161,555L156,556L156,556L161,555L153,557L150,558L148,558L146,555L143,554L142,555L141,556L130,552L138,557L130,552L128,553L123,554L127,553L118,559L122,554L114,560L110,562L106,559L105,559L103,559L98,560L96,563L92,565L96,563L90,565L87,565L85,565L83,565L81,565" fill="none" stroke="#000000" style="-webkit-tap-highlight-color: rgba(0, 0, 0, 0); stroke-linecap: round; stroke-linejoin: round; stroke-width: 5;" /><path d="M78,566L74,565L72,565L71,565L70,565L63,568L61,566L61,566L61,566L58,566L56,566L54,566L53,566L50,566L48,566L49,566L46,567L45,568L42,569L40,569L36,569L34,570L31,570L29,570L26,572L22,572L17,573L20,572L14,574L9,574L11,574L7,574" fill="none" stroke="#000000" style="-webkit-tap-highlight-color: rgba(0, 0, 0, 0); stroke-linecap: round; stroke-linejoin: round; stroke-width: 5;" /><path d="M12.66,367.27" fill="none" stroke="#000000" style="-webkit-tap-highlight-color: rgba(0, 0, 0, 0); stroke-linecap: round; stroke-linejoin: round; stroke-width: 5;" /><path d="M6,574L1,571L2,570L2,571" fill="none" stroke="#000000" style="-webkit-tap-highlight-color: rgba(0, 0, 0, 0); stroke-linecap: round; stroke-linejoin: round; stroke-width: 5;" /><path d="M9,365L6,366L4,368L4,368L4,367L5,366L9,361L7,365L13,358L18,353L24,348L32,347L34,342L40,341L51,335L45,337L56,334L61,325L59,330L62,324L72,319L73,319L85,315L78,317L80,317L91,306L85,315L91,306L89,308L105,294L100,300L109,294L100,300L114,286L112,289L114,286L110,293L117,283L123,278L123,278L121,279L143,271L123,277L144,270L143,271L146,270L144,270L146,270L146,270L156,259L157,257L168,259L169,258L171,256L173,253L175,251L178,249L182,245L183,245L183,245L183,245L194,233L199,232L197,233L203,230L209,217L210,217L209,217L210,217L210,217L226,219L210,217L223,221L237,215L243,213L237,215L246,209L240,215L262,218L250,206L262,218L263,218L279,210L263,218L264,219L282,210L286,210L289,210L299,210L293,210L302,210L306,210L308,206L308,208L309,206L311,203L311,204L313,201L315,199L317,197L320,194L318,195L322,192L335,197L334,198L336,196L336,196L336,196L336,196L336,196L337,196L338,196L338,196L338,196L349,176L349,176L349,176L352,177L353,177L355,177L357,176L355,177" fill="none" stroke="#000000" style="-webkit-tap-highlight-color: rgba(0, 0, 0, 0); stroke-linecap: round; stroke-linejoin: round; stroke-width: 5;" /><path d="M357,176L357,176L375,182L374,183L375,182L375,182L376,182L377,182L390,171L390,171L390,171L377,182L390,171L391,171L391,171L398,172L402,172L398,172L405,172L406,172L420,175L406,172L406,172L418,175L432,177L432,177L432,177L432,177L434,177" fill="none" stroke="#000000" style="-webkit-tap-highlight-color: rgba(0, 0, 0, 0); stroke-linecap: round; stroke-linejoin: round; stroke-width: 5;" /><path d="M472.2,126.64" fill="none" stroke="#000000" style="-webkit-tap-highlight-color: rgba(0, 0, 0, 0); stroke-linecap: round; stroke-linejoin: round; stroke-width: 5;" /><path d="M436,177L443,181L440,179L442,180L442,179L444,177" fill="none" stroke="#000000" style="-webkit-tap-highlight-color: rgba(0, 0, 0, 0); stroke-linecap: round; stroke-linejoin: round; stroke-width: 5;" /><path d="M465,129" fill="none" stroke="#000000" style="-webkit-tap-highlight-color: rgba(0, 0, 0, 0); stroke-linecap: round; stroke-linejoin: round; stroke-width: 5;" /><path d="M445,179" fill="none" stroke="#000000" style="-webkit-tap-highlight-color: rgba(0, 0, 0, 0); stroke-linecap: round; stroke-linejoin: round; stroke-width: 5;" /><path d="M465,129L465,129L476,118L476,116L476,114L487,110L487,110L481,100L476,112L474,114L472,116L463,127L464,128L465,129L459,137L465,131L465,131L459,137L456,144L456,145L456,145L456,145L453,152L455,146L453,152L450,158L450,158L450,161L450,161L450,158L450,158L452,152L449,155L453,149L459,137L465,131L465,131" fill="none" stroke="#000000" style="-webkit-tap-highlight-color: rgba(0, 0, 0, 0); stroke-linecap: round; stroke-linejoin: round; stroke-width: 5;" /><path d="M465,130L465,129L465,129L465,129L465,129L465,129L487,110L476,118L487,110L487,110L487,110L487,110L487,110L487,110" fill="none" stroke="#000000" style="-webkit-tap-highlight-color: rgba(0, 0, 0, 0); stroke-linecap: round; stroke-linejoin: round; stroke-width: 5;" /><path d="M229.77,144.73L235,141L235,141L235,147L235,143L235,145L235,148L235,152L235,155L235,155L239,167L237,167L237,167L236,172L233,175L232,177L227,185L231,181L227,186L221,195L224,190L219,196L214,200L208,203L212,201L210,202L210,211L208,213L208,211L208,212" fill="none" stroke="#000000" style="-webkit-tap-highlight-color: rgba(0, 0, 0, 0); stroke-linecap: round; stroke-linejoin: round; stroke-width: 5;" /><path d="M207,215L209,217" fill="none" stroke="#000000" style="-webkit-tap-highlight-color: rgba(0, 0, 0, 0); stroke-linecap: round; stroke-linejoin: round; stroke-width: 5;" /><path d="M479.43,285.85L479,282L481,282L485,280L487,280L490,280L494,280L496,282L499,282L505,284L503,284L507,286L508,286L512,286L514,286L516,286L517,286L529,285L529,285L529,285L529,285L529,285L529,285L530,286L530,286L536,292L536,292L536,292L536,292L535,312L532,313L532,313L532,313L532,313L532,313L532,313L529,317L529,317L529,317L528,318L526,319" fill="none" stroke="#000000" style="-webkit-tap-highlight-color: rgba(0, 0, 0, 0); stroke-linecap: round; stroke-linejoin: round; stroke-width: 5;" /><path d="M526,319L526,319L525,331L526,319" fill="none" stroke="#000000" style="-webkit-tap-highlight-color: rgba(0, 0, 0, 0); stroke-linecap: round; stroke-linejoin: round; stroke-width: 5;" /><path d="M546.37,414.3L542,408L542,408L542,408L544,399L544,399L544,399L542,408L542,408L542,408L539,422L542,408L539,422L539,422L536,431L539,425L532,437L534,435L524,450L525,449L524,450L524,467L524,467L524,467L524,467L518,468L524,470L519,475L519,475L519,475L519,480L517,481L517,481L517,483L516,484L516,488L517,485L517,491L517,498L519,502L521,510L525,517L525,523L526,529L526,534L527,543L530,537L528,546L528,546L528,552L528,555L528,559L529,563L528,567L529,564L527,574L527,577L527,581L527,584L527,592L527,588L527,595L530,599L532,603L532,608L531,611L529,621L531,615L528,624L529,628L529,631L529,635L527,639L527,642L530,645L530,651L526,659L530,655L526,660L530,664L528,672L529,669L527,679L527,675L527,680L528,682L529,684L528,686L528,687L529,689L528,691L528,692L528,694L527,697L527,697L530,702L527,704L527,707" fill="none" stroke="#000000" style="-webkit-tap-highlight-color: rgba(0, 0, 0, 0); stroke-linecap: round; stroke-linejoin: round; stroke-width: 5;" /><path d="M527,710L527,709L533,720L527,710L528,722L533,720L528,722L528,722L527,724L528,727L526,729L528,728L526,730L525,734L523,730L525,734L523,729" fill="none" stroke="#000000" style="-webkit-tap-highlight-color: rgba(0, 0, 0, 0); stroke-linecap: round; stroke-linejoin: round; stroke-width: 5;" /><path d="M390.78,464.96L386,467L387,468L386,470L386,470L383,478L382,483L380,487L378,494L378,499L376,505L377,507L374,510L373,510L373,516L369,510L367,519L366,519L366,519L364,520L364,520L362,522L364,522L360,523L366,531L360,523L365,532L365,532L361,536L360,539L361,536L362,537L358,546L358,546L358,546L357,550L358,565L358,565L355,552L356,551L358,567L357,574L345,581L357,574L357,598L360,590L346,604L345,581L348,605L346,616L349,609L346,615L350,640L347,624L349,635L349,633L346,649L346,651L345,655L350,644L344,666L344,660L345,672L344,666L344,677L344,677L344,677L342,680L348,682L345,685L348,686L349,687L351,691L351,691L351,697L344,700L344,700L349,704L349,703L346,707L346,707L346,708L346,708L349,715L348,717L347,720" fill="none" stroke="#000000" style="-webkit-tap-highlight-color: rgba(0, 0, 0, 0); stroke-linecap: round; stroke-linejoin: round; stroke-width: 5;" /><path d="M348,718L347,720L347,720L347,720L352,727L348,734L348,734L348,734L347,735L348,734" fill="none" stroke="#000000" style="-webkit-tap-highlight-color: rgba(0, 0, 0, 0); stroke-linecap: round; stroke-linejoin: round; stroke-width: 5;" /><path d="M233.39,555.42L231,555L230,557L228,565L232,560L231,561L229,579L242,590L244,599L229,583L246,606L250,613L250,619L250,624L250,630L251,639L244,654L251,635L251,656L251,656L250,656L250,656L250,656L243,659L260,679L243,659L260,679L260,679L248,678L248,682L248,686L248,687L256,700L254,703L256,700L253,704L248,710L248,710L253,704L248,710L248,710" fill="none" stroke="#000000" style="-webkit-tap-highlight-color: rgba(0, 0, 0, 0); stroke-linecap: round; stroke-linejoin: round; stroke-width: 5;" /><path d="M251,720L251,720L252,724L251,721L252,724L249,731L248,733L248,735L248,735L249,731L249,731L252,724" fill="none" stroke="#000000" style="-webkit-tap-highlight-color: rgba(0, 0, 0, 0); stroke-linecap: round; stroke-linejoin: round; stroke-width: 5;" /><path d="M327.46,445.06L331,446L333,449L331,446L335,448L335,448L343,444L359,449L343,444L359,449L364,449L360,448L364,449L368,450" fill="none" stroke="#000000" style="-webkit-tap-highlight-color: rgba(0, 0, 0, 0); stroke-linecap: round; stroke-linejoin: round; stroke-width: 5;" /><path d="M370,448L372,449L373,449L375,450L379,452L379,452L376,450L384,457L384,458" fill="none" stroke="#000000" style="-webkit-tap-highlight-color: rgba(0, 0, 0, 0); stroke-linecap: round; stroke-linejoin: round; stroke-width: 5;" /><path d="M354.6,412.49L351,414L348,420L349,418L346,422L344,427L339,430L340,429L333,429L333,429L337,424L333,429L337,421L342,417L346,411L346,415L357,408L362,401L359,402L364,401L365,401L369,386L371,386L367,401L373,386L373,386L373,386L379,385L380,385L380,385L390,382L391,383L393,382L398,381L403,384L400,381L405,384L412,385L409,384L411,385L414,386L416,387L417,388L418,389L421,392L424,392L425,392L425,392L425,392L425,392L425,392L434,398L445,390L440,397L445,390L445,390L446,389L447,389L450,389L450,389L452,390L452,390L461,391L460,394L463,391L467,392L470,396L474,394L478,393L480,394L487,395L485,395L490,394L496,394L496,394L503,395L499,394L499,394L510,394L510,394L510,394L514,394L512,394L517,394L516,394L520,394L519,394L525,394L523,394L525,394L528,394L532,394L530,393L536,394L534,394L537,394L539,394L541,394L541,398" fill="none" stroke="#000000" style="-webkit-tap-highlight-color: rgba(0, 0, 0, 0); stroke-linecap: round; stroke-linejoin: round; stroke-width: 5;" /><path d="M543,400L544,399L542,398L544,399L544,398L544,398L544,398L544,398L544,399L544,399L512,363.65L504,372L508,376L507,381L508,376L509,385" fill="none" stroke="#000000" style="-webkit-tap-highlight-color: rgba(0, 0, 0, 0); stroke-linecap: round; stroke-linejoin: round; stroke-width: 5;" /><path d="M503,395L499,394L503,395L503,395L479.43,361.84L476,362L476,364L493,369L493,369L494,369L501,372L504,372L504,372" fill="none" stroke="#000000" style="-webkit-tap-highlight-color: rgba(0, 0, 0, 0); stroke-linecap: round; stroke-linejoin: round; stroke-width: 5;" /><path d="M504,372L508,376L470.39,349.17L476,345L476,345L479,346L487,346L503,346L496,346L510,347" fill="none" stroke="#000000" style="-webkit-tap-highlight-color: rgba(0, 0, 0, 0); stroke-linecap: round; stroke-linejoin: round; stroke-width: 5;" /><path d="M508,346L510,347L510,347L510,347L510,347" fill="none" stroke="#000000" style="-webkit-tap-highlight-color: rgba(0, 0, 0, 0); stroke-linecap: round; stroke-linejoin: round; stroke-width: 5;" /><path d="M553.61,289.47L555,287L555,287L563,287L563,293L563,293L570,301L563,293L574,305L570,301L581,310L577,307L588,314L584,312L592,316L595,318L601,322L597,320L604,324L606,326L609,328L613,330L614,331L619,334L621,335L621,335L622,336L628,339L631,341L628,339L634,342L634,342L637,343L637,343L642,344L642,344L642,344L642,344L651,348L642,344L656,347L658,346L658,346L658,346L661,344L661,344L665,343L665,343L667,344L667,344L673,346L675,346L677,346L678,346L680,346L680,346L682,347L680,346L682,347L689,335L700,331L700,331L700,331L700,331L697,317L700,331L697,317L697,317L697,315L694,308L695,310L694,308L694,308L694,308L694,308L694,308L694,308L694,308L673,294L673,294L673,294L673,294L671,294L670,294L670,294L662,292L667,293L662,292L659,291L657,290L657,290L642,299L637,299L630,299L622,297" fill="none" stroke="#000000" style="-webkit-tap-highlight-color: rgba(0, 0, 0, 0); stroke-linecap: round; stroke-linejoin: round; stroke-width: 5;" /><path d="M619,297L617,297L621,297L615,297L608,297L610,297L612,297L606,295L604,295L602,295L601,293L599,293L595,291L575,288L590,291L593,291L575,288L565,289L564,288L575,288L563,287L555,290L552,288L554,289L552,288L553,289L552,288L552,288L554,290" fill="none" stroke="#000000" style="-webkit-tap-highlight-color: rgba(0, 0, 0, 0); stroke-linecap: round; stroke-linejoin: round; stroke-width: 5;" /><path d="M846.7,296.71L841,300L843,299L839,300L839,302L843,302L845,302L857,291L858,297L858,297L858,297L859,298L855,313L856,313L856,313L858,313L858,314L858,318L859,320L859,320L859,320L860,320L860,320L862,341L862,341L862,341L862,341L870,342L870,342L872,343L870,342L874,343L875,343L879,347L877,346L880,347L885,354L880,347L888,346L885,354L890,354L889,354L891,354L896,355L896,356L896,356L903,358L898,356L910,360L912,360L907,358L905,357L913,362L915,363L917,364L912,360L917,364L921,365L924,367L921,365L924,367L927,369L930,370L931,370L932,371L934,372L934,372L935,373L942,377L942,377L946,379L946,379L946,379L948,381L951,384L953,385L953,385L955,387L958,389L958,389L961,391L964,393" fill="none" stroke="#000000" style="-webkit-tap-highlight-color: rgba(0, 0, 0, 0); stroke-linecap: round; stroke-linejoin: round; stroke-width: 5;" /><path d="M968,394L968,394L972,395L972,395L975,396L975,396L972,395L972,395L975,396L977,398L976,397L980,399L982,400L984,402L985,404L988,404L991,406L991,406L994,411L993,408L1001,413L999,412L997,413L998,414" fill="none" stroke="#000000" style="-webkit-tap-highlight-color: rgba(0, 0, 0, 0); stroke-linecap: round; stroke-linejoin: round; stroke-width: 5;" /><path d="M707.39,432.4" fill="none" stroke="#000000" style="-webkit-tap-highlight-color: rgba(0, 0, 0, 0); stroke-linecap: round; stroke-linejoin: round; stroke-width: 5;" /><path d="M1006,418L999,416L1001,417L1006,418L1009,418L1015,422L1009,419L1009,419" fill="none" stroke="#000000" style="-webkit-tap-highlight-color: rgba(0, 0, 0, 0); stroke-linecap: round; stroke-linejoin: round; stroke-width: 5;" /><path d="M707,422" fill="none" stroke="#000000" style="-webkit-tap-highlight-color: rgba(0, 0, 0, 0); stroke-linecap: round; stroke-linejoin: round; stroke-width: 5;" /><path d="M1015,423L1015,423L1015,423" fill="none" stroke="#000000" style="-webkit-tap-highlight-color: rgba(0, 0, 0, 0); stroke-linecap: round; stroke-linejoin: round; stroke-width: 5;" /><path d="M707,422L706,422L708,422L707,422L708,422L708,422L720,432L708,422L724,432L729,432L735,432L738,432L742,432L745,432L751,431L749,431L756,431L754,431L760,431L762,432L765,432L769,432L773,432L780,432L783,432L776,432L785,432L792,431L789,431L791,431L794,431L798,431L796,431L800,432L801,432L803,432L809,434L805,434L811,434L812,434L818,434L816,434L821,434L825,434L830,434L843,425L843,425L843,425L848,426L861,428L848,426L866,428L864,428L873,429L870,427L877,429L879,429L881,429L887,427L881,429L887,431L897,432L889,432L897,432L897,432L905,431L908,431L900,432L916,433L920,433L916,433L917,433L927,433L939,437L935,435L927,433L935,435L950,433L946,434L942,433L953,432L953,432L957,432L960,432L959,432L962,431L964,432L964,432L969,432L970,432L973,430L975,428L976,429L981,429L981,427L986,427L986,427L989,429L990,429L990,429L993,429L995,429L997,426" fill="none" stroke="#000000" style="-webkit-tap-highlight-color: rgba(0, 0, 0, 0); stroke-linecap: round; stroke-linejoin: round; stroke-width: 5;" /><path d="M999,426L1000,426L1001,423L1002,423L1003,422L1005,424L1005,424L1007,425L1007,425L1008,427L1015,425L1008,427L1015,423L1015,423L1009,419" fill="none" stroke="#000000" style="-webkit-tap-highlight-color: rgba(0, 0, 0, 0); stroke-linecap: round; stroke-linejoin: round; stroke-width: 5;" /><path d="M730.91,439.63L727,436L727,434L725,432L727,436L729,438L729,440L731,443L731,445L731,449L733,450L733,452L735,454L736,456L738,456L742,456L745,456L747,456L751,456L754,456L760,458L763,458L767,458L773,460L776,461L780,461L783,463L785,465L791,467L789,465L792,469L794,470L796,472L800,474L801,476L803,478L805,478L809,478L807,478L811,479L814,481L812,479L816,481L818,483L820,483L821,483L823,485L825,485L830,487L829,487L832,488L834,490L836,490L836,492L838,494L838,496L839,498L842,509L842,509L842,509L843,509L843,509L843,509L843,512L843,512L840,512L840,512L840,512L840,512L840,512L821,500L821,500L821,500L820,500L816,501L812,501L811,500L802,500L801,500L806,500L797,499L794,497L791,496L789,497L785,496L785,496L785,496L785,496L774,501L771,501L769,501L773,501L767,501L763,501L762,501L760,501L756,499L751,499L745,499L754,499L742,499L738,499L729,499L735,499L731,499L725,499L718,501L724,499L722,499L716,501L713,501L711,503L707,503L706,505" fill="none" stroke="#000000" style="-webkit-tap-highlight-color: rgba(0, 0, 0, 0); stroke-linecap: round; stroke-linejoin: round; stroke-width: 5;" /><path d="M702,505L700,505L698,507L695,507L693,507L691,507L687,507L686,507L680,507L675,507L678,507L682,507L673,508L668,508L666,508L669,508L664,508L660,510L662,510L659,512L657,512" fill="none" stroke="#000000" style="-webkit-tap-highlight-color: rgba(0, 0, 0, 0); stroke-linecap: round; stroke-linejoin: round; stroke-width: 5;" /><path d="M557.23,499.34L548,496L548,496L548,496L548,496L548,496L548,496L563,507L566,508L570,508L574,508L577,508L584,508L581,508L590,508L588,508L604,507L604,507L593,510L604,507L609,512L611,512L610,512L609,512L611,512L611,512L626,525L611,512L630,526L637,530L631,526L635,528L639,532L644,539L642,537L640,534L642,536L638,551L638,551L638,551L638,551L638,551L642,558L640,556L663,559L663,559L663,559L663,559L663,559L664,560L666,562L668,565L668,565L682,559L684,559L689,561L686,561L691,561L697,561L693,561L695,561L698,563L700,563L704,574L702,563L706,574L708,574L708,574L713,577L713,577L713,577L717,584L719,586L727,589L727,589L727,589L727,589L727,589L730,592L735,593L735,593L736,593L736,594L738,595L741,598L738,596L743,601L743,601L744,601L745,604L747,605L745,606L749,608L754,613L754,613L751,607L754,613L755,614L759,615L760,615L762,615L760,617L770,617L762,615L772,619L773,620L775,621L777,623L778,623L779,627L787,622L779,627L779,627L791,625L789,623L792,626L793,627L794,628L794,630L794,630L794,630L799,637L799,637L799,637L805,636L805,637L807,636L811,639L809,639L814,639L812,639L815,641L815,641L824,642L822,639L823,645L823,640L832,647L829,645L827,644L825,644L843,651L834,647L839,653L834,647L843,652L848,654L845,653L849,655L851,657L856,659L859,658L863,660L867,662L874,666L872,664L876,668L877,668L879,668L880,669L881,671L882,673L885,674L887,677L885,675L885,675L891,678L892,678L893,680" fill="none" stroke="#000000" style="-webkit-tap-highlight-color: rgba(0, 0, 0, 0); stroke-linecap: round; stroke-linejoin: round; stroke-width: 5;" /><path d="M966,567L964,565L970,572L970,572L972,574L975,574L976,575L978,574L978,574L978,574L987,579L987,579L987,579L992,579L991,584L993,584L1000,583L1000,583L997,583L1000,583L1000,583L1010,582L1000,583L1011,596L1014,593" fill="none" stroke="#000000" style="-webkit-tap-highlight-color: rgba(0, 0, 0, 0); stroke-linecap: round; stroke-linejoin: round; stroke-width: 5;" /><path d="M886.5,613.31L891,608" fill="none" stroke="#000000" style="-webkit-tap-highlight-color: rgba(0, 0, 0, 0); stroke-linecap: round; stroke-linejoin: round; stroke-width: 5;" /><path d="M901,608L904,606L908,608L924,597" fill="none" stroke="#000000" style="-webkit-tap-highlight-color: rgba(0, 0, 0, 0); stroke-linecap: round; stroke-linejoin: round; stroke-width: 5;" /><path d="M835.84,521.05L840,512L840,512L840,512L840,512L841,512L844,512L844,512L844,512L844,512L856,523L859,523L861,525L874,528L863,526L874,528L874,528L875,529L879,532L879,532L880,532L881,531L881,531L902,534L902,534L902,534L903,534L905,534L902,534L905,534L910,533L905,534L910,533L910,533L917,545L910,533L905,534L919,546L921,546L930,548L926,548L924,548L932,550L937,552L934,550L939,552L941,554L943,555L946,557L944,555L948,557L950,557L952,559L953,559L964,565L964,565L964,565L971,561L966,566L968,567L973,567L978,567L977,567L978,574" fill="none" stroke="#000000" style="-webkit-tap-highlight-color: rgba(0, 0, 0, 0); stroke-linecap: round; stroke-linejoin: round; stroke-width: 5;" /><path d="M989,575L988,576L990,575L988,576L991,574L992,577L995,580L992,579L997,583L999,582L995,581L997,581L1000,583L1000,583L1000,583L1000,583" fill="none" stroke="#000000" style="-webkit-tap-highlight-color: rgba(0, 0, 0, 0); stroke-linecap: round; stroke-linejoin: round; stroke-width: 5;" /><path d="M895.55,676.64" fill="none" stroke="#000000" style="-webkit-tap-highlight-color: rgba(0, 0, 0, 0); stroke-linecap: round; stroke-linejoin: round; stroke-width: 5;" /><path d="M1015,588L1010,582L1008,581L1010,582" fill="none" stroke="#000000" style="-webkit-tap-highlight-color: rgba(0, 0, 0, 0); stroke-linecap: round; stroke-linejoin: round; stroke-width: 5;" /><path d="M892,675" fill="none" stroke="#000000" style="-webkit-tap-highlight-color: rgba(0, 0, 0, 0); stroke-linecap: round; stroke-linejoin: round; stroke-width: 5;" /><path d="M1010,582" fill="none" stroke="#000000" style="-webkit-tap-highlight-color: rgba(0, 0, 0, 0); stroke-linecap: round; stroke-linejoin: round; stroke-width: 5;" /><path d="M893,678L897,677L899,679L903,684L906,681L913,686L910,684L914,687L914,687L916,694L916,694L916,694L922,703L934,700L934,700L934,700L934,700L934,700L934,700L930,706L930,706L930,706L934,706L937,707L935,706L939,709L941,708L942,708L944,707L945,707L948,713L948,713L948,715L948,715L946,718L950,717L950,721L950,721" fill="none" stroke="#000000" style="-webkit-tap-highlight-color: rgba(0, 0, 0, 0); stroke-linecap: round; stroke-linejoin: round; stroke-width: 5;" /><path d="M951,722L953,723L952,719L953,720L950,716L949,715" fill="none" stroke="#000000" style="-webkit-tap-highlight-color: rgba(0, 0, 0, 0); stroke-linecap: round; stroke-linejoin: round; stroke-width: 5;" /><path d="M294.9,508.38L295,503L293,503L291,503L288,503L275,498L275,498L275,498L275,498L284,510L284,512L284,516L284,521L284,519L273,537L284,525L273,537L273,537L273,537L273,537L273,537L273,537L273,537L273,537L273,537L273,537L282,550L282,552L282,555L280,557L280,561L279,568L279,570L279,564L279,574L279,579L279,575L279,577L279,583L279,584L279,586L279,592L279,588L280,601L280,597L280,602L280,593L282,613L282,608L282,606L282,610L282,615L282,624L282,619L282,622L282,628L282,630L282,633L282,635L280,648L282,639L280,644L280,642L279,649L279,651L279,655L279,653L279,657" fill="none" stroke="#000000" style="-webkit-tap-highlight-color: rgba(0, 0, 0, 0); stroke-linecap: round; stroke-linejoin: round; stroke-width: 5;" /><path d="M279,660L279,659L279,662L279,664L279,671L279,666L279,669L280,673L269,684L272,687L272,687L272,687L272,687L272,687L272,687L272,687L272,687L272,692L272,692L272,689L272,692L272,692L272,692L270,695L271,708" fill="none" stroke="#000000" style="-webkit-tap-highlight-color: rgba(0, 0, 0, 0); stroke-linecap: round; stroke-linejoin: round; stroke-width: 5;" /><path d="M483.05,110.36L487,110L487,110L487,110L487,110L487,110L492,113L494,114L494,114L502,117L502,117L504,119L507,120L510,122L508,121L514,124L510,122L516,125L517,125L522,126L519,125L526,128L526,128L528,129L530,130L532,131L532,131L539,134L536,132L540,135L543,137L545,138L546,139L551,141L551,141L555,143L557,145L557,145L559,146L564,148L564,148L567,151L572,152L574,156L579,157L581,156L584,157L587,158L591,160L590,159L592,160L593,160L596,162L598,163L601,165L601,165L601,165L605,167L605,167L606,167L610,169L612,170L614,171L617,173L619,174L626,177L624,176L622,175L632,183L632,183L633,183L633,183L642,185L644,187L644,187L645,187L652,189L650,188L654,190L656,191L657,192L663,195L657,192L663,195L665,197L671,201L668,198L665,197L676,201L671,201L671,201L680,204L680,204L690,208L683,205L687,206L690,208L695,209L690,208L697,210L703,214L700,212L700,212L703,214L706,215L706,215L710,218L711,219L712,220L713,221L713,221L713,221L718,222L713,221L718,222L718,222L725,225L725,225L727,226L725,225L732,228L737,230L727,226L732,228L738,231L738,231L743,235L742,234L745,237L745,237L745,237L745,237L745,250L747,250L745,237L749,251L760,251" fill="none" stroke="#000000" style="-webkit-tap-highlight-color: rgba(0, 0, 0, 0); stroke-linecap: round; stroke-linejoin: round; stroke-width: 5;" /><path d="M760,252L760,251L760,252L760,252L760,252L760,252L760,252L762,252L768,257L768,257L768,257L768,257L769,258L772,261L770,259L773,262L772,261" fill="none" stroke="#000000" style="-webkit-tap-highlight-color: rgba(0, 0, 0, 0); stroke-linecap: round; stroke-linejoin: round; stroke-width: 5;" /><path d="M479.43,106.74L481,100L479,99L474,112L474,114L474,116L463,127L464,128L465,129L465,129L465,129L478,127L479,127L481,128L481,130L481,132L481,134L481,136L481,137L481,141L481,143L481,147L483,148L483,152L483,154L483,157L483,159L483,163L483,165L483,166L483,168L483,170L483,172L483,174L483,175L481,181L483,177L481,183L481,185L481,186L481,188L483,190L483,192L483,195L483,194L483,197L483,199L483,201L483,203L485,204L485,206L485,210L485,208L485,212L485,213L487,213L487,215L487,217L487,219L487,221L487,223L487,226L487,228L488,230L488,233L488,232L488,235L488,237L488,241L488,239L487,244L487,242L487,246L487,248L485,250L485,251L485,253L485,257L485,259L485,262L485,268L487,271L485,266L487,273L487,275L488,279L488,277L488,280L490,282L490,284L490,288L490,286L490,291L490,293L490,289L490,295L490,297L490,300L490,299L490,304L488,306L485,313L488,308L487,309L485,315L483,318L483,317L481,320L481,324L481,326L481,322L481,327L473,340L473,340L481,329L474,341L481,346L481,346L481,346L481,346L483,346L483,346" fill="none" stroke="#000000" style="-webkit-tap-highlight-color: rgba(0, 0, 0, 0); stroke-linecap: round; stroke-linejoin: round; stroke-width: 5;" /></svg>