<?xml version="1.0" encoding="utf-8" ?>
<svg baseProfile="full" height="745" version="1.1" width="1024" xmlns="http://www.w3.org/2000/svg" xmlns:ev="http://www.w3.org/2001/xml-events" xmlns:xlink="http://www.w3.org/1999/xlink"><defs /><path d="M469.79,67.9L467.96,67.9L467.96,69.73L467.96,73.41L467.96,77.08L469.79,82.58L469.79,88.09L471.63,91.76L475.3,97.26L475.3,100.93L477.13,104.6L478.97,108.27L478.97,111.94L478.97,117.45L478.97,121.12L478.97,124.79L478.97,126.62L480.8,130.29L480.8,133.96L480.8,137.63L480.8,141.3L480.8,144.97L480.8,148.65L482.64,152.32L482.64,157.82L482.64,163.33L482.64,167L482.64,170.67L482.64,176.17L482.64,179.84L482.64,183.51L482.64,189.02L480.8,194.52L480.8,198.19L480.8,203.7L480.8,207.37L478.97,212.87L478.97,218.38L478.97,222.05L477.13,227.56L477.13,233.06L477.13,238.57L477.13,244.07L477.13,247.74L477.13,251.41L477.13,256.92L477.13,264.26L477.13,269.76L475.3,275.27L475.3,278.94L475.3,284.44L475.3,293.62L475.3,299.13L475.3,304.63L475.3,308.3L473.46,313.81L473.46,317.48L473.46,321.15L471.63,324.82L471.63,330.32L471.63,335.83L471.63,341.33L471.63,346.84L471.63,350.51" fill="none" stroke="#000000" style="-webkit-tap-highlight-color: rgba(0, 0, 0, 0); stroke-linecap: round; stroke-linejoin: round; stroke-width: 5;" /><path d="M497.32,111.94L499.15,110.11L502.82,110.11L506.49,111.94L510.16,111.94L513.84,113.78L517.51,113.78L521.18,115.61L524.85,117.45L530.35,119.28L534.02,121.12L537.69,122.95L541.36,126.62L545.03,128.46L548.7,130.29L552.37,132.13L557.88,133.96L561.55,135.8L565.22,137.63L568.89,139.47L572.56,141.3L574.39,143.14L578.06,143.14L581.73,144.97L585.41,146.81L589.08,148.65L592.75,150.48L594.58,152.32L598.25,154.15L600.09,155.99L601.92,157.82L603.76,159.66L607.43,161.49L611.1,163.33L614.77,165.16L616.6,167L620.27,170.67L623.94,172.5L627.61,174.34L631.28,176.17L634.95,178.01L638.62,179.84L644.13,181.68L645.96,183.51L649.63,185.35L655.14,187.18L658.81,187.18L662.48,189.02L666.15,190.85L669.82,192.69L673.49,192.69L677.16,194.52L680.83,196.36L682.67,196.36L686.34,198.19L690.01,200.03L691.84,201.86L697.35,205.53L701.02,207.37L702.85,209.2L704.69,211.04L706.52,211.04L708.36,212.87L710.19,214.71L712.03,214.71L715.7,216.54L717.53,216.54L719.37,218.38L723.04,218.38L724.87,220.22L726.71,222.05L728.54,222.05L732.22,223.89L734.05,225.72L737.72,225.72L739.56,227.56L741.39,229.39L745.06,231.23L746.9,233.06L748.73,233.06L750.57,234.9L754.24,236.73L756.07,238.57L757.91,240.4L761.58,242.24L763.41,244.07L767.08,244.07L768.92,245.91L770.75,245.91" fill="none" stroke="#000000" style="-webkit-tap-highlight-color: rgba(0, 0, 0, 0); stroke-linecap: round; stroke-linejoin: round; stroke-width: 5;" /><path d="M776.26,249.58L772.59,249.58L772.59,247.74L772.59,245.91L774.42,245.91L776.26,245.91L779.93,247.74L783.6,247.74L787.27,247.74L792.77,249.58L796.44,249.58L800.11,253.25L803.78,255.08L807.46,255.08L811.13,256.92L814.8,258.75L818.47,260.59L822.14,260.59L825.81,262.42L829.48,264.26L831.31,266.09L834.98,267.93L838.65,269.76L840.49,271.6L844.16,273.43L845.99,275.27L849.66,277.1L851.5,278.94L855.17,280.77L857,282.61L858.84,284.44L862.51,286.28L864.34,286.28L864.34,288.11L866.18,289.95L868.01,291.78L868.01,293.62L868.01,295.46L869.85,297.29L871.68,302.8L871.68,306.47L871.68,310.14L873.52,313.81L875.35,317.48L875.35,321.15L877.19,322.98L879.03,326.65L880.86,330.32L882.7,333.99L884.53,337.66L886.37,341.33L888.2,345L891.87,348.67L895.54,352.34L899.21,354.18" fill="none" stroke="#000000" style="-webkit-tap-highlight-color: rgba(0, 0, 0, 0); stroke-linecap: round; stroke-linejoin: round; stroke-width: 5;" /><path d="M897.38,350.51L891.87,350.51L893.71,350.51L902.88,352.34L904.72,356.01L908.39,357.85L912.06,359.68L917.56,361.52L924.9,365.19L928.57,367.03L937.75,374.37L941.42,376.2L945.09,379.87L948.76,381.71L952.43,383.54L956.1,387.21L959.77,389.05L963.44,390.88L965.28,394.55L968.95,396.39L972.62,398.22L976.29,400.06L978.12,401.89L981.79,403.73L983.63,405.56L987.3,407.4L989.13,409.23L992.8,411.07L996.47,412.9L1000.14,414.74L1001.98,418.41L1003.81,420.24L1003.81,422.08L1005.65,423.91L1005.65,425.75" fill="none" stroke="#000000" style="-webkit-tap-highlight-color: rgba(0, 0, 0, 0); stroke-linecap: round; stroke-linejoin: round; stroke-width: 5;" /><path d="M875.35,300.96L871.68,300.96L875.35,297.29L879.03,297.29L882.7,297.29L886.37,297.29L891.87,297.29L899.21,297.29L902.88,299.13L908.39,299.13L912.06,300.96L915.73,304.63L919.4,306.47L924.9,308.3L928.57,310.14L930.41,311.97L934.08,313.81L935.91,315.64L939.58,319.31L941.42,321.15L945.09,322.98L946.92,324.82L950.59,328.49L952.43,330.32L956.1,332.16L957.94,335.83L961.61,337.66L965.28,339.5L968.95,341.33L972.62,345L974.45,346.84L978.12,348.67L979.96,352.34L983.63,354.18L985.46,356.01L989.13,359.68L992.8,363.35L996.47,365.19L1003.81,367.03L1011.15,367.03L1014.82,367.03" fill="none" stroke="#000000" style="-webkit-tap-highlight-color: rgba(0, 0, 0, 0); stroke-linecap: round; stroke-linejoin: round; stroke-width: 5;" /><path d="M495.48,269.76L493.65,269.76L489.98,269.76L491.81,269.76L497.32,269.76L500.99,269.76L504.66,271.6L510.16,271.6L513.84,271.6L519.34,273.43L523.01,273.43L528.52,275.27L534.02,277.1L537.69,277.1L543.2,278.94L546.87,278.94L552.37,280.77L554.21,282.61L559.71,282.61L563.38,284.44L568.89,286.28L572.56,286.28L578.06,288.11L583.57,288.11L589.08,288.11L592.75,288.11L598.25,288.11L601.92,289.95L607.43,289.95L611.1,289.95L614.77,289.95L618.44,291.78L622.11,291.78L625.78,291.78L627.61,291.78L631.28,291.78L634.95,291.78L638.62,291.78L642.29,291.78L645.96,291.78L647.8,291.78L651.47,291.78L655.14,293.62L656.97,293.62L660.65,293.62L664.32,295.46L667.99,295.46L671.66,297.29L673.49,297.29L677.16,297.29L679,299.13L682.67,299.13L684.5,300.96L686.34,300.96L690.01,302.8L691.84,302.8L693.68,304.63L693.68,306.47L695.51,308.3L695.51,311.97L697.35,313.81L697.35,317.48L699.18,321.15L699.18,326.65L699.18,332.16L701.02,339.5L702.85,346.84L702.85,350.51L706.52,350.51" fill="none" stroke="#000000" style="-webkit-tap-highlight-color: rgba(0, 0, 0, 0); stroke-linecap: round; stroke-linejoin: round; stroke-width: 5;" /><path d="M552.37,293.62L550.54,293.62L548.7,293.62L550.54,295.46L554.21,297.29L557.88,297.29L563.38,299.13L568.89,302.8L574.39,304.63L579.9,308.3L585.41,311.97L590.91,315.64L596.42,317.48L601.92,321.15L605.59,322.98L609.26,326.65L612.93,328.49L616.6,330.32L622.11,332.16L627.61,335.83L631.28,337.66L634.95,341.33L636.79,343.17L640.46,345L644.13,346.84L647.8,348.67L651.47,350.51L655.14,352.34L658.81,354.18L664.32,356.01L667.99,356.01L671.66,357.85L675.33,359.68L679,359.68L682.67,361.52L686.34,361.52L690.01,361.52L693.68,361.52L699.18,361.52L702.85,361.52L706.52,363.35L710.19,363.35L715.7,363.35L719.37,363.35L721.2,363.35" fill="none" stroke="#000000" style="-webkit-tap-highlight-color: rgba(0, 0, 0, 0); stroke-linecap: round; stroke-linejoin: round; stroke-width: 5;" /><path d="M713.86,367.03L715.7,367.03L715.7,365.19L715.7,367.03L728.54,367.03L737.72,367.03L745.06,365.19L748.73,365.19" fill="none" stroke="#000000" style="-webkit-tap-highlight-color: rgba(0, 0, 0, 0); stroke-linecap: round; stroke-linejoin: round; stroke-width: 5;" /><path d="M651.47,295.46L649.63,295.46L653.3,295.46L666.15,293.62L673.49,293.62L677.16,291.78L682.67,291.78L686.34,289.95L691.84,288.11L697.35,286.28L701.02,284.44L704.69,284.44L710.19,284.44L713.86,282.61L719.37,282.61L723.04,282.61L726.71,282.61L730.38,284.44L735.89,286.28L741.39,286.28L748.73,288.11L752.4,288.11L757.91,288.11L763.41,288.11L768.92,288.11L770.75,288.11" fill="none" stroke="#000000" style="-webkit-tap-highlight-color: rgba(0, 0, 0, 0); stroke-linecap: round; stroke-linejoin: round; stroke-width: 5;" /><path d="M539.53,300.96L537.69,300.96L535.86,300.96L535.86,302.8L534.02,306.47L532.19,310.14L530.35,315.64L528.52,319.31L526.68,324.82L526.68,328.49L526.68,333.99L526.68,339.5L526.68,343.17L526.68,348.67L526.68,352.34L528.52,356.01L528.52,359.68L530.35,361.52L530.35,365.19L532.19,367.03L532.19,370.7L534.02,372.53L535.86,376.2L535.86,378.04L537.69,381.71L539.53,385.38L541.36,389.05L541.36,390.88L543.2,392.72L543.2,394.55L543.2,398.22L543.2,400.06L543.2,401.89L543.2,405.56L543.2,407.4L543.2,409.23L543.2,411.07L543.2,414.74L545.03,416.57L545.03,420.24L545.03,423.91L545.03,425.75L545.03,427.58L545.03,431.25L545.03,433.09L545.03,434.92L543.2,436.76L543.2,438.59L543.2,440.43L543.2,442.27L543.2,445.94L543.2,447.77L543.2,449.61L543.2,451.44L543.2,455.11L543.2,456.95L543.2,460.62L543.2,464.29L541.36,467.96L541.36,471.63L541.36,475.3L541.36,478.97L541.36,480.8L541.36,484.47L541.36,488.14L539.53,491.81L539.53,495.48L539.53,499.15L539.53,502.82L537.69,506.49L537.69,510.16L537.69,513.84L535.86,517.51L535.86,523.01L535.86,526.68L535.86,530.35L534.02,535.86L534.02,539.53L534.02,543.2L534.02,546.87L532.19,550.54L532.19,556.04L530.35,559.71L530.35,563.38L530.35,567.05L530.35,570.72L528.52,576.23L528.52,579.9L528.52,583.57L528.52,587.24L528.52,590.91L528.52,596.42L528.52,600.09L528.52,605.59L526.68,609.26L526.68,612.93L526.68,616.6L524.85,622.11L524.85,625.78L524.85,631.28L524.85,634.95L524.85,640.46L524.85,645.96L524.85,649.63L526.68,653.3L526.68,656.97L526.68,660.65L526.68,664.32L526.68,669.82L526.68,673.49L526.68,679L526.68,682.67L526.68,690.01L528.52,697.35L528.52,704.69L528.52,712.03L528.52,721.2L528.52,730.38L530.35,734.05" fill="none" stroke="#000000" style="-webkit-tap-highlight-color: rgba(0, 0, 0, 0); stroke-linecap: round; stroke-linejoin: round; stroke-width: 5;" /><path d="M548.7,409.23L548.7,411.07L548.7,414.74L550.54,420.24L550.54,427.58L550.54,433.09L550.54,440.43L552.37,445.94L552.37,451.44L552.37,456.95L552.37,462.45L552.37,469.79L554.21,475.3L554.21,480.8L554.21,486.31L554.21,491.81L556.04,497.32L556.04,502.82L556.04,510.16L556.04,517.51L556.04,523.01L556.04,528.52L557.88,534.02L557.88,541.36L557.88,546.87L557.88,554.21L557.88,559.71L557.88,565.22L557.88,570.72L557.88,576.23L557.88,583.57L557.88,589.08L557.88,594.58L556.04,600.09L556.04,607.43L556.04,612.93L554.21,620.27L554.21,625.78L554.21,631.28L552.37,636.79L552.37,642.29L550.54,649.63L550.54,655.14L548.7,662.48L548.7,667.99L546.87,675.33L546.87,680.83L546.87,688.17L546.87,695.51L545.03,704.69L545.03,712.03L543.2,721.2L539.53,730.38L537.69,741.39L539.53,739.56L541.36,737.72" fill="none" stroke="#000000" style="-webkit-tap-highlight-color: rgba(0, 0, 0, 0); stroke-linecap: round; stroke-linejoin: round; stroke-width: 5;" /><path d="M572.56,489.98L570.72,489.98L572.56,493.65L578.06,495.48L581.73,497.32L585.41,500.99L589.08,504.66L592.75,506.49L596.42,508.33L600.09,510.16L603.76,512L609.26,512L612.93,513.84L614.77,515.67L618.44,517.51L622.11,519.34L623.94,521.18L625.78,523.01L627.61,523.01L631.28,524.85L633.12,526.68L633.12,528.52L634.95,528.52L636.79,530.35L638.62,532.19L640.46,532.19L642.29,534.02L644.13,534.02L645.96,535.86L647.8,537.69L649.63,541.36L651.47,543.2L653.3,543.2L656.97,545.03L658.81,548.7L660.65,550.54L660.65,552.37L662.48,554.21L664.32,554.21L666.15,556.04L667.99,557.88L669.82,559.71L671.66,561.55L673.49,561.55L673.49,563.38L677.16,563.38L679,563.38L680.83,565.22L684.5,565.22L686.34,565.22L690.01,567.05L691.84,568.89L695.51,570.72L699.18,572.56L702.85,574.39L713.86,579.9L717.53,583.57L721.2,585.41L726.71,589.08L730.38,592.75L735.89,594.58L739.56,596.42L743.23,600.09L746.9,601.92L750.57,603.76L754.24,607.43L757.91,609.26L761.58,611.1L767.08,614.77L770.75,616.6L774.42,620.27L779.93,622.11L783.6,623.94L789.1,625.78L794.61,627.61L798.28,631.28L803.78,633.12L807.46,634.95L811.13,636.79L814.8,638.62L818.47,638.62L822.14,640.46L825.81,642.29L829.48,644.13L834.98,645.96L838.65,645.96L842.32,647.8L845.99,649.63L849.66,651.47L855.17,653.3L858.84,655.14L864.34,656.97L869.85,658.81L875.35,658.81L880.86,660.65L886.37,660.65L890.04,660.65" fill="none" stroke="#000000" style="-webkit-tap-highlight-color: rgba(0, 0, 0, 0); stroke-linecap: round; stroke-linejoin: round; stroke-width: 5;" /><path d="M721.2,434.92L715.7,433.09L719.37,433.09L734.05,434.92L741.39,433.09L746.9,431.25L754.24,429.42L757.91,429.42L763.41,431.25L768.92,431.25L776.26,429.42L781.76,429.42L787.27,429.42L792.77,431.25L798.28,431.25L805.62,431.25L811.13,431.25L816.63,433.09L822.14,433.09L827.64,433.09L831.31,433.09L836.82,433.09L840.49,433.09L845.99,431.25L849.66,431.25L853.33,431.25L858.84,429.42L864.34,429.42L868.01,427.58L873.52,427.58L877.19,427.58L880.86,427.58L884.53,427.58L888.2,427.58L891.87,427.58L897.38,427.58L901.05,427.58L902.88,427.58L908.39,427.58L912.06,427.58L915.73,429.42L919.4,429.42L923.07,429.42L928.57,429.42L932.24,429.42L935.91,429.42L939.58,429.42L943.25,429.42L948.76,429.42L952.43,429.42L956.1,429.42L957.94,429.42L961.61,429.42L963.44,429.42L967.11,429.42L968.95,429.42L972.62,429.42L976.29,429.42L979.96,429.42L983.63,429.42L987.3,429.42L992.8,429.42L998.31,429.42" fill="none" stroke="#000000" style="-webkit-tap-highlight-color: rgba(0, 0, 0, 0); stroke-linecap: round; stroke-linejoin: round; stroke-width: 5;" /><path d="M717.53,436.76L715.7,436.76L715.7,434.92L717.53,438.59L721.2,440.43L724.87,442.27L728.54,442.27L732.22,444.1L735.89,447.77L739.56,449.61L745.06,453.28L750.57,456.95L754.24,458.78L759.74,462.45L763.41,464.29L767.08,467.96L772.59,471.63L778.09,473.46L781.76,477.13L792.77,480.8L796.44,482.64L800.11,486.31L803.78,488.14L807.46,489.98L811.13,489.98L814.8,491.81L818.47,491.81L822.14,493.65L823.97,495.48L827.64,497.32L833.15,500.99L838.65,504.66L847.83,506.49L855.17,510.16L862.51,513.84L869.85,517.51" fill="none" stroke="#000000" style="-webkit-tap-highlight-color: rgba(0, 0, 0, 0); stroke-linecap: round; stroke-linejoin: round; stroke-width: 5;" /><path d="M578.06,436.76L574.39,434.92L574.39,433.09L576.23,431.25L579.9,431.25L585.41,431.25L590.91,431.25L596.42,431.25L601.92,431.25L607.43,431.25L611.1,431.25L614.77,433.09L620.27,434.92L623.94,434.92L629.45,434.92L634.95,434.92L638.62,434.92L642.29,436.76L645.96,436.76L649.63,436.76L656.97,436.76L662.48,434.92L666.15,433.09L669.82,433.09L675.33,433.09L679,433.09L686.34,434.92L691.84,434.92L697.35,436.76L704.69,436.76L710.19,436.76L715.7,434.92L723.04,433.09L726.71,433.09" fill="none" stroke="#000000" style="-webkit-tap-highlight-color: rgba(0, 0, 0, 0); stroke-linecap: round; stroke-linejoin: round; stroke-width: 5;" /><path d="M469.79,64.23L467.96,64.23L471.63,60.56L475.3,58.72L480.8,55.05L484.47,53.22L488.14,53.22L491.81,51.38L497.32,49.55L500.99,47.71L504.66,47.71L506.49,47.71L510.16,47.71L512,47.71L515.67,47.71L521.18,47.71L524.85,47.71L528.52,47.71L530.35,47.71L534.02,47.71L535.86,49.55L539.53,49.55L543.2,49.55L545.03,51.38L548.7,53.22L552.37,53.22L557.88,55.05L565.22,56.89L567.05,58.72L570.72,60.56L576.23,60.56L579.9,60.56L583.57,60.56L587.24,62.39L590.91,62.39L592.75,64.23L596.42,64.23L600.09,66.06L603.76,66.06L607.43,66.06L612.93,67.9L616.6,67.9L620.27,67.9L623.94,67.9L629.45,67.9L631.28,67.9L633.12,67.9L636.79,67.9L638.62,67.9L642.29,69.73L644.13,69.73L645.96,71.57L647.8,73.41L651.47,75.24L655.14,75.24L656.97,77.08L658.81,77.08L662.48,78.91L664.32,80.75L666.15,82.58L667.99,84.42L669.82,84.42L671.66,86.25L673.49,88.09L675.33,89.92L675.33,91.76L677.16,93.59L679,95.43L680.83,97.26L682.67,99.1L682.67,100.93L684.5,102.77L686.34,104.6L688.17,106.44L690.01,108.27L691.84,110.11L691.84,111.94L693.68,115.61L693.68,117.45L695.51,119.28L695.51,122.95L697.35,126.62L697.35,130.29L699.18,132.13L699.18,135.8L701.02,139.47L702.85,143.14L704.69,146.81L706.52,148.65L706.52,152.32L708.36,154.15L708.36,155.99L710.19,159.66L710.19,161.49L710.19,165.16L712.03,167L712.03,170.67L712.03,174.34L712.03,178.01L712.03,181.68L710.19,185.35L708.36,190.85L706.52,194.52L704.69,198.19L704.69,200.03" fill="none" stroke="#000000" style="-webkit-tap-highlight-color: rgba(0, 0, 0, 0); stroke-linecap: round; stroke-linejoin: round; stroke-width: 5;" /><path d="M467.96,91.76L466.12,91.76L466.12,89.92L464.29,89.92L460.62,88.09L458.78,88.09L455.11,88.09L453.28,86.25L453.28,84.42L451.44,82.58L449.61,82.58L447.77,80.75L445.94,80.75L445.94,78.91L445.94,77.08L444.1,75.24L444.1,73.41L442.27,71.57L440.43,69.73L438.59,69.73L436.76,67.9L433.09,67.9L431.25,67.9L429.42,67.9L427.58,66.06L423.91,66.06L420.24,66.06L416.57,66.06L412.9,66.06L411.07,66.06L407.4,66.06L403.73,66.06L400.06,66.06L396.39,66.06L392.72,66.06L389.05,66.06L385.38,66.06L381.71,67.9L376.2,67.9L372.53,69.73L368.86,69.73L365.19,69.73L363.35,69.73L361.52,69.73L359.68,69.73L356.01,69.73L354.18,69.73L348.67,69.73L345,69.73L341.33,69.73L335.83,71.57L330.32,75.24L324.82,77.08L321.15,80.75L315.64,82.58L310.14,84.42L304.63,88.09L300.96,91.76L295.46,95.43L289.95,97.26L286.28,100.93L282.61,102.77L278.94,104.6L277.1,106.44L273.43,108.27L269.76,110.11L266.09,111.94L262.42,115.61L258.75,117.45L255.08,121.12L251.41,124.79L249.58,126.62L247.74,128.46L245.91,130.29L244.07,133.96L244.07,135.8L242.24,137.63L240.4,141.3L238.57,143.14L238.57,144.97L236.73,146.81L236.73,148.65L234.9,150.48L234.9,152.32L233.06,154.15L233.06,155.99L233.06,157.82L231.23,159.66L231.23,163.33L231.23,165.16L229.39,167L227.56,168.83L225.72,172.5L222.05,178.01" fill="none" stroke="#000000" style="-webkit-tap-highlight-color: rgba(0, 0, 0, 0); stroke-linecap: round; stroke-linejoin: round; stroke-width: 5;" /><path d="M218.38,163.33L216.54,163.33L212.87,161.49L209.2,159.66L205.53,159.66L201.86,159.66L198.19,159.66L192.69,159.66L187.18,159.66L183.51,159.66L179.84,159.66L176.17,159.66L174.34,159.66L170.67,159.66L168.83,161.49L165.16,161.49L163.33,163.33L159.66,163.33L157.82,163.33L155.99,165.16L154.15,165.16L154.15,167L152.32,168.83L152.32,170.67L150.48,172.5L150.48,176.17L150.48,178.01L150.48,181.68L150.48,183.51L150.48,187.18L150.48,190.85L150.48,196.36L150.48,200.03L150.48,203.7L150.48,207.37L150.48,211.04L150.48,214.71L150.48,218.38L150.48,222.05L150.48,225.72L150.48,229.39L150.48,233.06L150.48,236.73L150.48,238.57L150.48,242.24L150.48,244.07L148.65,247.74L148.65,251.41L146.81,253.25L146.81,256.92L144.97,258.75L143.14,262.42L141.3,264.26L139.47,267.93L137.63,269.76L135.8,271.6L133.96,275.27L130.29,278.94L128.46,280.77L128.46,282.61L126.62,284.44L124.79,286.28L121.12,288.11L119.28,291.78L117.45,295.46L113.78,299.13L111.94,302.8L110.11,302.8L108.27,304.63L106.44,306.47L102.77,310.14L99.1,311.97L95.43,315.64L91.76,317.48L88.09,321.15L84.42,322.98L80.75,324.82L77.08,326.65L73.41,326.65L69.73,328.49L66.06,330.32L62.39,330.32L58.72,332.16L53.22,335.83L47.71,337.66L42.21,339.5L36.7,343.17L31.2,346.84L23.86,348.67L18.35,350.51L12.85,354.18L9.18,354.18L11.01,356.01" fill="none" stroke="#000000" style="-webkit-tap-highlight-color: rgba(0, 0, 0, 0); stroke-linecap: round; stroke-linejoin: round; stroke-width: 5;" /><path d="M473.46,121.12L473.46,119.28L471.63,119.28L471.63,121.12L471.63,124.79L469.79,128.46L467.96,132.13L466.12,135.8L462.45,141.3L458.78,146.81L455.11,150.48L453.28,154.15L449.61,155.99L447.77,157.82L445.94,159.66L444.1,163.33L442.27,165.16L442.27,167L442.27,168.83L442.27,170.67L440.43,172.5L440.43,176.17L438.59,178.01L438.59,181.68L438.59,183.51L438.59,185.35L438.59,187.18L438.59,189.02L438.59,190.85L440.43,194.52L440.43,198.19L440.43,200.03L440.43,203.7L442.27,205.53L442.27,209.2L442.27,212.87L444.1,216.54L444.1,220.22L445.94,223.89L445.94,227.56L445.94,231.23L445.94,234.9L445.94,240.4L445.94,245.91L444.1,249.58L444.1,255.08L444.1,260.59L442.27,267.93L442.27,277.1L440.43,289.95L440.43,302.8L440.43,313.81L440.43,322.98L442.27,324.82" fill="none" stroke="#000000" style="-webkit-tap-highlight-color: rgba(0, 0, 0, 0); stroke-linecap: round; stroke-linejoin: round; stroke-width: 5;" /><path d="M429.42,189.02L425.75,183.51L425.75,181.68L423.91,179.84L423.91,176.17L422.08,174.34L418.41,172.5L414.74,172.5L411.07,172.5L407.4,170.67L401.89,170.67L398.22,168.83L392.72,168.83L387.21,168.83L379.87,168.83L370.7,170.67L365.19,172.5L357.85,174.34L352.34,174.34L348.67,174.34L343.17,176.17L337.66,178.01L333.99,179.84L328.49,181.68L324.82,183.51L319.31,183.51L315.64,185.35L311.97,187.18L306.47,190.85L302.8,192.69L297.29,196.36L293.62,198.19L288.11,200.03L284.44,201.86L278.94,203.7L273.43,207.37L267.93,209.2L264.26,211.04L258.75,212.87L255.08,214.71L249.58,216.54L244.07,220.22L238.57,222.05L233.06,223.89L225.72,225.72L222.05,227.56L220.22,231.23L220.22,233.06" fill="none" stroke="#000000" style="-webkit-tap-highlight-color: rgba(0, 0, 0, 0); stroke-linecap: round; stroke-linejoin: round; stroke-width: 5;" /><path d="M306.47,214.71L308.3,216.54L311.97,218.38L317.48,220.22L321.15,222.05L324.82,225.72L328.49,227.56L332.16,231.23L333.99,234.9L337.66,238.57L341.33,242.24L343.17,244.07L346.84,247.74L348.67,249.58L352.34,253.25L352.34,255.08L354.18,258.75L354.18,262.42L356.01,266.09L356.01,269.76L357.85,273.43L357.85,277.1L357.85,280.77L357.85,286.28L357.85,291.78L356.01,299.13L354.18,306.47L352.34,313.81L352.34,321.15L352.34,326.65L352.34,333.99L352.34,341.33L352.34,348.67L350.51,354.18L350.51,359.68L348.67,365.19L348.67,368.86L346.84,374.37L345,379.87L345,385.38L343.17,390.88L343.17,398.22L341.33,405.56L341.33,409.23L341.33,414.74L339.5,420.24L337.66,425.75" fill="none" stroke="#000000" style="-webkit-tap-highlight-color: rgba(0, 0, 0, 0); stroke-linecap: round; stroke-linejoin: round; stroke-width: 5;" /><path d="M368.86,269.76L365.19,269.76L365.19,267.93L365.19,266.09L368.86,266.09L372.53,266.09L376.2,267.93L379.87,269.76L385.38,273.43L389.05,275.27L392.72,277.1L394.55,280.77L398.22,284.44L400.06,288.11L403.73,289.95L409.23,293.62L414.74,295.46L420.24,299.13L423.91,302.8L429.42,308.3L434.92,311.97L440.43,313.81L449.61,313.81L455.11,313.81" fill="none" stroke="#000000" style="-webkit-tap-highlight-color: rgba(0, 0, 0, 0); stroke-linecap: round; stroke-linejoin: round; stroke-width: 5;" /><path d="M356.01,403.73L354.18,403.73L350.51,405.56L348.67,407.4L350.51,407.4L352.34,405.56L354.18,405.56L357.85,405.56L361.52,405.56L367.03,403.73L374.37,401.89L379.87,400.06L385.38,398.22L390.88,398.22L396.39,398.22L401.89,398.22L409.23,398.22L416.57,398.22L422.08,398.22L427.58,398.22L431.25,398.22L436.76,400.06L442.27,400.06L449.61,398.22L455.11,398.22L458.78,396.39L464.29,396.39L467.96,396.39L471.63,396.39L475.3,394.55L477.13,392.72L478.97,392.72L482.64,392.72L484.47,392.72L488.14,392.72L491.81,392.72L497.32,392.72L500.99,392.72L506.49,392.72L512,392.72L517.51,392.72L521.18,392.72" fill="none" stroke="#000000" style="-webkit-tap-highlight-color: rgba(0, 0, 0, 0); stroke-linecap: round; stroke-linejoin: round; stroke-width: 5;" /><path d="M337.66,418.41L339.5,418.41L339.5,422.08L335.83,427.58L332.16,431.25L328.49,434.92L324.82,438.59L321.15,442.27L319.31,445.94L319.31,447.77L321.15,447.77L324.82,449.61L326.65,449.61L332.16,451.44L337.66,451.44L343.17,453.28L352.34,453.28L359.68,455.11L367.03,455.11L374.37,456.95L381.71,458.78L390.88,460.62L398.22,462.45L403.73,462.45L411.07,464.29L416.57,464.29L422.08,464.29L425.75,464.29L429.42,464.29L433.09,466.12L436.76,466.12L440.43,466.12L444.1,466.12L449.61,464.29L453.28,464.29L456.95,464.29L458.78,464.29L462.45,464.29L467.96,464.29L471.63,462.45L477.13,460.62L478.97,460.62L482.64,458.78L488.14,456.95L491.81,455.11L497.32,451.44L500.99,451.44L506.49,449.61L510.16,447.77L515.67,445.94L523.01,444.1L528.52,442.27L537.69,436.76L541.36,434.92" fill="none" stroke="#000000" style="-webkit-tap-highlight-color: rgba(0, 0, 0, 0); stroke-linecap: round; stroke-linejoin: round; stroke-width: 5;" /><path d="M321.15,455.11L319.31,456.95L315.64,460.62L310.14,464.29L299.13,475.3L293.62,484.47L289.95,491.81L286.28,497.32L282.61,502.82L280.77,504.66L280.77,506.49L277.1,508.33L275.27,512L273.43,515.67L269.76,519.34L267.93,523.01L266.09,526.68L264.26,528.52L262.42,532.19L262.42,537.69L260.59,541.36L260.59,543.2L260.59,546.87L258.75,546.87L258.75,548.7L258.75,550.54L256.92,550.54L255.08,550.54L253.25,552.37L251.41,552.37L247.74,550.54L245.91,550.54L242.24,550.54L238.57,550.54L234.9,550.54L229.39,550.54L223.89,550.54L220.22,550.54L214.71,550.54L209.2,550.54L201.86,552.37L196.36,552.37L190.85,552.37L185.35,552.37L179.84,552.37L174.34,552.37L168.83,552.37L163.33,554.21L155.99,556.04L150.48,556.04L144.97,557.88L139.47,557.88L133.96,559.71L128.46,559.71L124.79,559.71L119.28,561.55L115.61,561.55L111.94,561.55L106.44,561.55L102.77,563.38L97.26,563.38L93.59,565.22L89.92,565.22L86.25,567.05L82.58,567.05L80.75,567.05L77.08,568.89L75.24,568.89L73.41,568.89L71.57,570.72L67.9,570.72L66.06,570.72L62.39,570.72L58.72,570.72L55.05,572.56L53.22,572.56L51.38,572.56L47.71,574.39L45.88,574.39L42.21,574.39L40.37,576.23L36.7,576.23L34.87,576.23L31.2,576.23L27.53,576.23L25.69,576.23L22.02,576.23L16.52,578.06L11.01,578.06L9.18,579.9L11.01,579.9" fill="none" stroke="#000000" style="-webkit-tap-highlight-color: rgba(0, 0, 0, 0); stroke-linecap: round; stroke-linejoin: round; stroke-width: 5;" /><path d="M255.08,557.88L253.25,557.88L251.41,557.88L251.41,559.71L249.58,561.55L247.74,567.05L247.74,572.56L245.91,579.9L244.07,585.41L244.07,592.75L244.07,600.09L242.24,609.26L242.24,616.6L240.4,622.11L240.4,629.45L240.4,634.95L240.4,640.46L240.4,645.96L240.4,651.47L240.4,656.97L240.4,662.48L240.4,666.15L240.4,671.66L242.24,677.16L242.24,684.5L242.24,691.84L244.07,701.02L244.07,708.36L244.07,715.7L242.24,726.71L240.4,737.72" fill="none" stroke="#000000" style="-webkit-tap-highlight-color: rgba(0, 0, 0, 0); stroke-linecap: round; stroke-linejoin: round; stroke-width: 5;" /><path d="M385.38,473.46L385.38,471.63L383.54,473.46L381.71,480.8L378.04,486.31L376.2,491.81L374.37,497.32L372.53,500.99L370.7,508.33L367.03,513.84L365.19,517.51L361.52,521.18L359.68,524.85L359.68,526.68L357.85,530.35L356.01,532.19L354.18,535.86L354.18,539.53L354.18,541.36L354.18,543.2L354.18,546.87L354.18,550.54L354.18,556.04L354.18,561.55L356.01,565.22L356.01,570.72L357.85,574.39L359.68,578.06L359.68,581.73L359.68,587.24L359.68,590.91L361.52,594.58L361.52,596.42L361.52,600.09L361.52,603.76L361.52,607.43L359.68,611.1L359.68,614.77L357.85,618.44L357.85,620.27L356.01,625.78L356.01,629.45L356.01,633.12L356.01,636.79L356.01,640.46L354.18,644.13L354.18,647.8L354.18,653.3L354.18,656.97L354.18,660.65L354.18,664.32L354.18,667.99L354.18,671.66L354.18,677.16L354.18,680.83L354.18,686.34L354.18,693.68L354.18,699.18L354.18,704.69L354.18,712.03L354.18,719.37L354.18,724.87L354.18,730.38L354.18,737.72L354.18,743.23" fill="none" stroke="#000000" style="-webkit-tap-highlight-color: rgba(0, 0, 0, 0); stroke-linecap: round; stroke-linejoin: round; stroke-width: 5;" /><path d="M370.7,550.54L368.86,548.7L367.03,546.87L368.86,550.54L372.53,552.37L376.2,556.04L381.71,557.88L387.21,559.71L392.72,561.55L400.06,563.38L405.56,565.22L409.23,567.05L414.74,568.89L418.41,570.72L422.08,572.56L425.75,574.39L431.25,578.06L434.92,579.9L440.43,581.73L445.94,583.57L451.44,583.57L458.78,585.41L464.29,587.24L469.79,587.24L475.3,589.08L478.97,590.91L484.47,590.91L489.98,592.75L495.48,592.75L502.82,592.75L510.16,592.75L517.51,592.75" fill="none" stroke="#000000" style="-webkit-tap-highlight-color: rgba(0, 0, 0, 0); stroke-linecap: round; stroke-linejoin: round; stroke-width: 5;" /><path d="M5.51,179.84L7.34,178.01L16.52,178.01L27.53,178.01L47.71,176.17L51.38,178.01L55.05,179.84L60.56,181.68L66.06,181.68L67.9,181.68L73.41,181.68L77.08,183.51L78.91,183.51L82.58,183.51L86.25,183.51L89.92,183.51L93.59,183.51L97.26,185.35L100.93,185.35L104.6,185.35L108.27,185.35L111.94,187.18L115.61,189.02L119.28,190.85L121.12,190.85L124.79,190.85L126.62,190.85L128.46,190.85L132.13,190.85L135.8,189.02L139.47,187.18L141.3,187.18" fill="none" stroke="#000000" style="-webkit-tap-highlight-color: rgba(0, 0, 0, 0); stroke-linecap: round; stroke-linejoin: round; stroke-width: 5;" /><path d="M51.38,273.43L49.55,273.43L45.88,271.6L42.21,269.76L47.71,269.76L53.22,269.76L67.9,269.76L73.41,269.76L78.91,269.76L84.42,269.76L91.76,269.76L97.26,269.76L102.77,267.93L106.44,267.93L111.94,267.93L117.45,266.09L121.12,266.09L126.62,264.26L130.29,262.42" fill="none" stroke="#000000" style="-webkit-tap-highlight-color: rgba(0, 0, 0, 0); stroke-linecap: round; stroke-linejoin: round; stroke-width: 5;" /><path d="M23.86,308.3L23.86,306.47L23.86,304.63L27.53,302.8L33.03,302.8L42.21,302.8L53.22,302.8L60.56,302.8L69.73,302.8L77.08,302.8L82.58,300.96L89.92,299.13L93.59,297.29L99.1,295.46L99.1,293.62L100.93,293.62" fill="none" stroke="#000000" style="-webkit-tap-highlight-color: rgba(0, 0, 0, 0); stroke-linecap: round; stroke-linejoin: round; stroke-width: 5;" /><path d="M64.23,196.36L64.23,194.52L64.23,192.69L64.23,190.85L64.23,194.52L64.23,196.36L64.23,200.03L64.23,207.37L64.23,212.87L62.39,220.22L62.39,225.72L62.39,231.23L62.39,234.9L64.23,236.73" fill="none" stroke="#000000" style="-webkit-tap-highlight-color: rgba(0, 0, 0, 0); stroke-linecap: round; stroke-linejoin: round; stroke-width: 5;" /><path d="M84.42,185.35L84.42,187.18L84.42,194.52L82.58,205.53L82.58,211.04L82.58,218.38L82.58,223.89L82.58,227.56L82.58,229.39L82.58,231.23L82.58,233.06L82.58,234.9L82.58,236.73L82.58,238.57L84.42,238.57L84.42,240.4L86.25,240.4L88.09,242.24L91.76,242.24L95.43,244.07L99.1,245.91L102.77,245.91L106.44,247.74L111.94,249.58L115.61,251.41L119.28,251.41L124.79,253.25L130.29,253.25L135.8,253.25L141.3,255.08" fill="none" stroke="#000000" style="-webkit-tap-highlight-color: rgba(0, 0, 0, 0); stroke-linecap: round; stroke-linejoin: round; stroke-width: 5;" /><path d="M40.37,189.02L40.37,187.18L38.54,185.35L38.54,187.18L38.54,190.85L36.7,194.52L36.7,200.03L36.7,201.86L36.7,205.53L36.7,209.2L36.7,211.04L36.7,212.87L38.54,214.71L38.54,216.54L38.54,218.38L38.54,220.22L38.54,223.89L36.7,223.89L36.7,225.72L36.7,229.39L36.7,233.06L36.7,236.73L36.7,240.4" fill="none" stroke="#000000" style="-webkit-tap-highlight-color: rgba(0, 0, 0, 0); stroke-linecap: round; stroke-linejoin: round; stroke-width: 5;" /><path d="M34.87,242.24L34.87,240.4L33.03,240.4L31.2,240.4L23.86,247.74L16.52,255.08L11.01,260.59L3.67,266.09L0,267.93" fill="none" stroke="#000000" style="-webkit-tap-highlight-color: rgba(0, 0, 0, 0); stroke-linecap: round; stroke-linejoin: round; stroke-width: 5;" /><path d="M723.04,174.34L721.2,174.34L719.37,174.34L721.2,174.34L723.04,174.34L724.87,174.34L728.54,174.34L732.22,172.5L737.72,172.5L741.39,172.5L746.9,172.5L750.57,172.5L757.91,172.5L763.41,170.67L768.92,170.67L774.42,168.83L778.09,168.83L781.76,168.83L785.43,170.67L790.94,168.83L794.61,168.83L798.28,168.83L801.95,168.83L805.62,168.83L814.8,168.83L820.3,167L823.97,167L829.48,167L833.15,167L838.65,167L844.16,167L849.66,167L853.33,168.83L858.84,168.83L862.51,168.83L868.01,168.83L873.52,170.67L877.19,170.67L882.7,170.67L886.37,170.67L891.87,170.67L895.54,170.67L901.05,170.67L904.72,170.67L910.22,170.67L913.89,170.67L917.56,170.67L921.23,170.67L924.9,170.67L930.41,168.83L932.24,168.83L935.91,168.83L941.42,168.83L945.09,168.83L948.76,167L950.59,167L954.27,167L957.94,167L961.61,167L965.28,167L968.95,167L972.62,167L976.29,167L979.96,165.16L983.63,165.16L987.3,165.16L992.8,165.16L996.47,165.16L1001.98,165.16L1005.65,165.16L1009.32,165.16L1014.82,165.16L1020.33,163.33" fill="none" stroke="#000000" style="-webkit-tap-highlight-color: rgba(0, 0, 0, 0); stroke-linecap: round; stroke-linejoin: round; stroke-width: 5;" /></svg>