<?xml version="1.0" encoding="utf-8" ?>
<svg baseProfile="full" height="745" version="1.1" width="1024" xmlns="http://www.w3.org/2000/svg" xmlns:ev="http://www.w3.org/2001/xml-events" xmlns:xlink="http://www.w3.org/1999/xlink"><defs /><path d="M376.31,463.15L378.12,461.34L379.93,459.53L379.93,457.72L381.74,457.72L381.74,455.92L383.55,455.92L385.36,455.92L385.36,454.11L387.17,454.11L387.17,452.3L388.98,452.3L388.98,454.11L388.98,455.92L387.17,457.72L387.17,459.53L385.36,461.34L383.55,463.15L381.74,466.77L379.93,472.2L378.12,475.82L376.31,479.43L374.5,483.05L372.69,484.86L372.69,486.67L370.88,490.29L369.07,492.1L369.07,493.91L367.27,497.53L365.46,499.34L363.65,502.95L361.84,504.76L360.03,508.38L358.22,512L356.41,515.62L354.6,519.24L354.6,522.86L352.79,526.47L352.79,528.28L352.79,531.9L352.79,533.71L352.79,539.14L352.79,544.57L354.6,551.8L354.6,557.23L356.41,560.85L356.41,564.47L356.41,566.28L356.41,568.08L356.41,571.7L356.41,573.51L356.41,575.32L356.41,578.94L356.41,582.56L354.6,586.18L354.6,587.99L354.6,591.6L354.6,595.22L356.41,600.65L358.22,606.08L360.03,609.7L360.03,613.31L360.03,618.74L360.03,622.36L358.22,625.98L358.22,631.41L356.41,636.83L354.6,640.45L354.6,645.88L352.79,649.5L352.79,653.12L352.79,656.73L352.79,660.35L352.79,665.78L352.79,671.21L352.79,676.64L352.79,682.06L352.79,687.49L352.79,692.92L352.79,698.35L352.79,701.96L352.79,705.58L352.79,709.2L354.6,714.63L356.41,721.87L356.41,727.29L358.22,732.72L358.22,738.15L360.03,739.96L360.03,741.77L360.03,739.96L360.03,732.72L361.84,723.67" fill="none" stroke="#000000" style="-webkit-tap-highlight-color: rgba(0, 0, 0, 0); stroke-linecap: round; stroke-linejoin: round; stroke-width: 5;" /><path d="M544.57,403.45L544.57,401.64L546.37,401.64L546.37,399.83L546.37,398.02L548.18,398.02L548.18,399.83L546.37,403.45L542.76,408.88L539.14,412.49L537.33,417.92L533.71,421.54L531.9,426.97L530.09,430.59L530.09,434.2L530.09,439.63L530.09,443.25L530.09,448.68L530.09,452.3L530.09,457.72L530.09,461.34L530.09,468.58L530.09,474.01L531.9,477.63L531.9,483.05L531.9,488.48L531.9,493.91L533.71,499.34L533.71,504.76L533.71,510.19L533.71,513.81L533.71,519.24L533.71,522.86L533.71,526.47L533.71,531.9L531.9,533.71L531.9,537.33L531.9,540.95L531.9,544.57L530.09,548.18L530.09,553.61L528.28,559.04L526.47,564.47L524.66,569.89L524.66,573.51L522.86,577.13L522.86,580.75L522.86,582.56L524.66,587.99L524.66,591.6L524.66,597.03L524.66,600.65L526.47,606.08L526.47,609.7L526.47,615.12L526.47,618.74L528.28,624.17L528.28,629.6L528.28,635.02L530.09,640.45L530.09,642.26L530.09,649.5L530.09,654.93L531.9,658.54L531.9,663.97L533.71,667.59L535.52,673.02L535.52,676.64L535.52,680.25L535.52,685.68L535.52,689.3L535.52,692.92L535.52,696.54L533.71,698.35L533.71,700.16L533.71,701.96L533.71,703.77L533.71,707.39L533.71,709.2L533.71,712.82L535.52,716.44L535.52,718.25L535.52,720.06L535.52,721.87L535.52,723.67L535.52,721.87L537.33,718.25L539.14,712.82L540.95,707.39L542.76,703.77L542.76,700.16L544.57,700.16L544.57,698.35L544.57,696.54L544.57,691.11L544.57,682.06L544.57,673.02L544.57,663.97L544.57,654.93L544.57,649.5L544.57,642.26L544.57,635.02L544.57,629.6L544.57,624.17L544.57,618.74L544.57,613.31L544.57,609.7L544.57,606.08L544.57,598.84L546.37,591.6L546.37,584.37L548.18,578.94L548.18,571.7L549.99,566.28L549.99,560.85L551.8,553.61L553.61,546.37L553.61,539.14L553.61,531.9L555.42,524.66L555.42,517.43L555.42,512L555.42,508.38L555.42,502.95L555.42,495.72L555.42,488.48L555.42,481.24L555.42,472.2L555.42,464.96L555.42,455.92L555.42,450.49L555.42,445.06L555.42,437.82L553.61,432.4L551.8,426.97L549.99,421.54L548.18,417.92L546.37,414.3L546.37,410.69L544.57,408.88L542.76,405.26L540.95,399.83L539.14,398.02L539.14,394.4L539.14,392.59L537.33,390.78L535.52,390.78L533.71,390.78L531.9,390.78L530.09,390.78L524.66,390.78L519.24,390.78L513.81,392.59L508.38,392.59L504.76,394.4L501.14,394.4L497.53,396.21L493.91,396.21L490.29,396.21L484.86,398.02L479.43,398.02L474.01,398.02L468.58,398.02L463.15,399.83L455.92,399.83L452.3,401.64L450.49,401.64L445.06,401.64L441.44,401.64L439.63,401.64L436.01,399.83L434.2,399.83L430.59,399.83L425.16,399.83L419.73,399.83L414.3,399.83L407.07,399.83L399.83,399.83L394.4,398.02L387.17,398.02L381.74,398.02L370.88,399.83L365.46,399.83L360.03,399.83L354.6,401.64L349.17,401.64L343.75,403.45L338.32,405.26L331.08,407.07L325.65,410.69L322.04,412.49L318.42,416.11L314.8,421.54L314.8,423.35L312.99,426.97L312.99,428.78L316.61,430.59L318.42,430.59L322.04,432.4L325.65,434.2L329.27,436.01L332.89,436.01L338.32,436.01L341.94,437.82L345.55,439.63L350.98,439.63L352.79,441.44L356.41,443.25L358.22,443.25L360.03,443.25L361.84,445.06L363.65,445.06L365.46,445.06L369.07,445.06L372.69,446.87L376.31,446.87L379.93,446.87L381.74,446.87L383.55,446.87L385.36,448.68L387.17,448.68L388.98,448.68L390.78,450.49L392.59,452.3L394.4,454.11L394.4,455.92L394.4,457.72L392.59,459.53L392.59,461.34L390.78,464.96L388.98,466.77L388.98,468.58L388.98,470.39L387.17,472.2L387.17,474.01L388.98,474.01L390.78,474.01L394.4,474.01L403.45,474.01L408.88,474.01L414.3,474.01L421.54,472.2L426.97,470.39L432.4,468.58L437.82,466.77L443.25,466.77L448.68,466.77L452.3,466.77L457.72,466.77L461.34,466.77L464.96,464.96L470.39,464.96L475.82,464.96L479.43,464.96L483.05,464.96L486.67,466.77L490.29,466.77L492.1,466.77L493.91,466.77L495.72,466.77L497.53,466.77L499.34,466.77L501.14,464.96L502.95,463.15L504.76,461.34L506.57,457.72L508.38,454.11L510.19,448.68L513.81,445.06L517.43,441.44L521.05,439.63L524.66,437.82L530.09,436.01L533.71,436.01L537.33,436.01L540.95,437.82L540.95,439.63L539.14,443.25L537.33,446.87" fill="none" stroke="#000000" style="-webkit-tap-highlight-color: rgba(0, 0, 0, 0); stroke-linecap: round; stroke-linejoin: round; stroke-width: 5;" /><path d="M318.42,443.25L318.42,441.44L318.42,437.82L316.61,434.2L316.61,432.4L314.8,432.4L312.99,434.2L311.18,436.01L309.37,441.44L309.37,446.87L307.56,452.3L307.56,457.72L307.56,463.15L305.75,470.39L303.94,477.63L302.13,483.05L300.33,490.29L296.71,493.91L294.9,499.34L289.47,502.95L285.85,506.57L282.23,508.38L278.61,512L275,517.43L273.19,519.24L271.38,521.05L269.57,524.66L267.76,526.47L265.95,528.28L262.33,530.09L262.33,531.9L258.71,533.71L256.9,537.33L255.1,537.33L251.48,539.14L247.86,540.95L246.05,540.95L244.24,542.76L240.62,542.76L238.81,542.76L235.19,544.57L229.77,544.57L226.15,544.57L220.72,544.57L213.48,544.57L208.06,544.57L202.63,544.57L197.2,544.57L193.58,544.57L188.16,546.37L182.73,548.18L175.49,549.99L166.45,553.61L159.21,555.42L153.78,555.42L150.16,555.42L148.35,555.42L144.73,555.42L141.12,555.42L135.69,555.42L128.45,555.42L121.22,555.42L112.17,555.42L106.74,557.23L99.51,557.23L92.27,557.23L86.84,557.23L81.41,557.23L75.99,557.23L70.56,557.23L63.32,557.23L56.08,557.23L48.85,560.85L41.61,562.66L34.37,566.28L28.95,569.89L23.52,573.51L18.09,575.32L12.66,577.13L9.05,578.94L5.43,578.94L1.81,578.94" fill="none" stroke="#000000" style="-webkit-tap-highlight-color: rgba(0, 0, 0, 0); stroke-linecap: round; stroke-linejoin: round; stroke-width: 5;" /><path d="M0,575.32" fill="none" stroke="#000000" style="-webkit-tap-highlight-color: rgba(0, 0, 0, 0); stroke-linecap: round; stroke-linejoin: round; stroke-width: 5;" /><path d="M251.48,546.37L249.67,546.37L247.86,546.37L246.05,544.57L244.24,544.57L244.24,546.37L247.86,548.18L251.48,549.99L255.1,553.61L258.71,557.23L262.33,562.66L265.95,568.08L267.76,577.13L267.76,586.18L267.76,593.41L265.95,602.46L265.95,609.7L265.95,616.93L267.76,622.36L269.57,627.79L271.38,633.22L271.38,638.64L273.19,642.26L275,647.69L275,654.93L275,660.35L275,667.59L273.19,674.83L271.38,680.25L269.57,685.68L267.76,691.11L265.95,694.73L265.95,698.35L265.95,701.96L265.95,707.39L265.95,711.01L267.76,714.63L269.57,720.06L271.38,723.67L273.19,725.48L275,727.29L275,725.48L276.81,723.67" fill="none" stroke="#000000" style="-webkit-tap-highlight-color: rgba(0, 0, 0, 0); stroke-linecap: round; stroke-linejoin: round; stroke-width: 5;" /><path d="M19.9,354.6L16.28,360.03L14.47,361.84L12.66,363.65L12.66,367.27L10.86,367.27L12.66,367.27L14.47,367.27L16.28,367.27L18.09,365.46L23.52,363.65L28.95,360.03L37.99,356.41L47.04,350.98L54.28,345.55L61.51,340.13L70.56,334.7L75.99,331.08L83.22,327.46L88.65,322.04L94.08,316.61L101.31,311.18L106.74,303.94L112.17,298.52L117.6,293.09L124.83,287.66L132.07,284.04L137.5,278.61L144.73,275L150.16,271.38L157.4,265.95L164.64,260.52L171.87,256.9L179.11,251.48L184.54,247.86L189.96,246.05L193.58,242.43L197.2,238.81L200.82,235.19L204.44,231.58L208.06,227.96L211.67,222.53L217.1,218.91L220.72,213.48L224.34,209.87L224.34,208.06L229.77,202.63L233.39,197.2L237,191.77L238.81,184.54L240.62,179.11L240.62,173.68L240.62,170.06L238.81,164.64L235.19,161.02L235.19,157.4L233.39,153.78L233.39,150.16L233.39,146.54L231.58,142.93L231.58,141.12L231.58,139.31L233.39,137.5L235.19,135.69L237,133.88L238.81,132.07L244.24,128.45L249.67,124.83L255.1,121.22L258.71,117.6L264.14,115.79L265.95,113.98L269.57,112.17L273.19,108.55L278.61,106.74L282.23,104.93L285.85,101.31L289.47,99.51L294.9,95.89L298.52,94.08L303.94,90.46L307.56,88.65L311.18,86.84L314.8,83.22L318.42,81.41L320.23,79.6L323.84,77.8L329.27,75.99L334.7,74.18L338.32,72.37L343.75,72.37L349.17,70.56L354.6,70.56L358.22,68.75L363.65,68.75L369.07,68.75L372.69,66.94L378.12,66.94L381.74,65.13L387.17,65.13L390.78,65.13L394.4,65.13L398.02,65.13L401.64,65.13L403.45,65.13L407.07,66.94L407.07,65.13L407.07,63.32L407.07,61.51L408.88,59.7L408.88,56.08L408.88,54.28L410.69,52.47L412.49,52.47L414.3,52.47L417.92,52.47L419.73,52.47L423.35,54.28L425.16,54.28L428.78,56.08L432.4,57.89L436.01,59.7L437.82,61.51L439.63,65.13L443.25,68.75L445.06,70.56L446.87,72.37L448.68,74.18L448.68,75.99L448.68,77.8L448.68,79.6L448.68,81.41L446.87,83.22L446.87,86.84L445.06,88.65L445.06,92.27L445.06,94.08L445.06,97.7L446.87,99.51L450.49,99.51L455.92,101.31L461.34,101.31L464.96,99.51L468.58,97.7L470.39,95.89L472.2,94.08L474.01,94.08L474.01,92.27L475.82,92.27L475.82,90.46L475.82,88.65L475.82,83.22L475.82,77.8L474.01,72.37L474.01,68.75L472.2,65.13L470.39,65.13L468.58,65.13L466.77,65.13L466.77,66.94L468.58,65.13L468.58,63.32L470.39,61.51L470.39,57.89L472.2,54.28L474.01,50.66L477.63,47.04L479.43,45.23L483.05,43.42L486.67,41.61L490.29,41.61L493.91,39.8L497.53,39.8L501.14,39.8L502.95,39.8L506.57,39.8L510.19,41.61L513.81,41.61L519.24,41.61L522.86,43.42L526.47,43.42L530.09,43.42L535.52,43.42L539.14,43.42L542.76,43.42L546.37,43.42L551.8,45.23L555.42,47.04L559.04,48.85L560.85,48.85L564.47,50.66L568.08,52.47L573.51,54.28L578.94,54.28L584.37,56.08L591.6,57.89L597.03,59.7L602.46,59.7L606.08,61.51L609.7,63.32L613.31,65.13L616.93,66.94L618.74,70.56L622.36,72.37L622.36,74.18L625.98,75.99L629.6,79.6L633.22,81.41L635.02,81.41L638.64,83.22L640.45,85.03L644.07,85.03L647.69,85.03L651.31,86.84L653.12,86.84L654.93,86.84L658.54,85.03L662.16,85.03L663.97,85.03L667.59,83.22L671.21,83.22L674.83,83.22L676.64,83.22L678.45,83.22L680.25,83.22L680.25,85.03L682.06,86.84L683.87,90.46L685.68,92.27L685.68,94.08L687.49,97.7L687.49,99.51L689.3,101.31L689.3,104.93L689.3,106.74L689.3,108.55L689.3,110.36L689.3,112.17L689.3,113.98L689.3,115.79L689.3,117.6L689.3,121.22L689.3,124.83L689.3,126.64L689.3,130.26L689.3,132.07L689.3,135.69L689.3,137.5L691.11,139.31L691.11,142.93L692.92,142.93L694.73,144.73L698.35,144.73L701.96,146.54L705.58,146.54L709.2,148.35L711.01,148.35L714.63,150.16L716.44,151.97L716.44,153.78L718.25,155.59L718.25,159.21L718.25,161.02L718.25,164.64L718.25,168.25L716.44,170.06L716.44,173.68L714.63,177.3L712.82,180.92L711.01,184.54L711.01,186.35L709.2,188.16L709.2,191.77L709.2,193.58L709.2,195.39L711.01,199.01L711.01,202.63L712.82,204.44L712.82,206.25L714.63,208.06L714.63,209.87L716.44,209.87L718.25,211.67L720.06,213.48L721.87,215.29L723.67,217.1L721.87,218.91" fill="none" stroke="#000000" style="-webkit-tap-highlight-color: rgba(0, 0, 0, 0); stroke-linecap: round; stroke-linejoin: round; stroke-width: 5;" /><path d="M712.82,200.82L712.82,199.01L712.82,197.2L712.82,195.39L712.82,197.2L716.44,199.01L718.25,202.63L721.87,204.44L725.48,208.06L729.1,209.87L734.53,213.48L738.15,217.1L743.58,220.72L749,222.53L752.62,224.34L756.24,226.15L758.05,227.96L761.67,229.77L763.48,231.58L765.29,233.39L768.9,237L772.52,238.81L776.14,238.81L779.76,240.62L783.38,242.43L787,244.24L790.61,246.05L794.23,246.05L799.66,247.86L803.28,249.67L806.9,249.67L810.52,251.48L814.13,253.29L819.56,256.9L823.18,258.71L826.8,260.52L830.42,262.33L834.04,264.14L835.84,265.95L837.65,265.95L841.27,267.76L841.27,269.57L843.08,271.38L844.89,273.19L846.7,275L848.51,275L848.51,276.81L850.32,276.81L852.13,278.61L853.94,278.61L855.75,280.42L855.75,282.23L857.55,282.23L859.36,284.04L862.98,285.85L864.79,287.66L866.6,289.47L868.41,289.47L870.22,291.28L872.03,293.09L873.84,294.9L873.84,296.71" fill="none" stroke="#000000" style="-webkit-tap-highlight-color: rgba(0, 0, 0, 0); stroke-linecap: round; stroke-linejoin: round; stroke-width: 5;" /><path d="M884.69,289.47L882.88,289.47L881.07,289.47L879.27,291.28L877.46,293.09L877.46,294.9L879.27,296.71L882.88,296.71L888.31,298.52L891.93,300.33L899.17,300.33L902.78,300.33L908.21,302.13L911.83,302.13L913.64,302.13L917.26,303.94L919.07,305.75L922.69,307.56L926.3,309.37L929.92,312.99L931.73,314.8L935.35,316.61L938.97,318.42L940.78,322.04L944.4,325.65L948.01,329.27L949.82,332.89L953.44,336.51L957.06,338.32L960.68,338.32L962.49,340.13L966.11,341.94L969.72,345.55L971.53,347.36L975.15,350.98L976.96,352.79L978.77,354.6L980.58,354.6L982.39,356.41L986.01,356.41L987.82,360.03L991.43,361.84L993.24,363.65L995.05,365.46L996.86,365.46L998.67,363.65L1000.48,363.65L1002.29,363.65L1004.1,363.65L1005.91,363.65L1007.72,365.46L1009.53,365.46L1011.34,367.27L1013.14,370.88L1014.95,372.69L1014.95,374.5L1014.95,376.31L1016.76,376.31" fill="none" stroke="#000000" style="-webkit-tap-highlight-color: rgba(0, 0, 0, 0); stroke-linecap: round; stroke-linejoin: round; stroke-width: 5;" /><path d="M1009.53,387.17L1009.53,388.98L1007.72,388.98L1005.91,385.36L1004.1,381.74L1002.29,379.93L1000.48,379.93L995.05,378.12L991.43,378.12L987.82,378.12L982.39,378.12L978.77,378.12L975.15,376.31L971.53,374.5L967.92,372.69L964.3,370.88L960.68,367.27L957.06,365.46L953.44,361.84L951.63,360.03L949.82,358.22L946.2,356.41L944.4,356.41L942.59,354.6L938.97,352.79L937.16,350.98L933.54,347.36L926.3,343.75L920.88,338.32L915.45,334.7L910.02,332.89L908.21,331.08L904.59,331.08L902.78,329.27L897.36,327.46L891.93,322.04L884.69,318.42L881.07,316.61L879.27,316.61L877.46,314.8L875.65,314.8L873.84,314.8L872.03,314.8L870.22,314.8L870.22,316.61L870.22,320.23L870.22,325.65L870.22,332.89L873.84,340.13L875.65,347.36L879.27,352.79L882.88,356.41L886.5,360.03L890.12,360.03L893.74,361.84L895.55,363.65L897.36,365.46L900.98,365.46L904.59,367.27L908.21,367.27L911.83,369.07L915.45,369.07L919.07,370.88L924.49,372.69L926.3,372.69L929.92,372.69L933.54,374.5L937.16,376.31L938.97,378.12L942.59,379.93L944.4,381.74L948.01,383.55L951.63,385.36L955.25,388.98L957.06,390.78L960.68,394.4L964.3,396.21L966.11,396.21L969.72,398.02L971.53,398.02L975.15,398.02L976.96,399.83L980.58,399.83L982.39,399.83L986.01,401.64L987.82,403.45L991.43,403.45L993.24,405.26L995.05,408.88L998.67,410.69L1000.48,414.3L1004.1,419.73L1005.91,423.35L1007.72,425.16L1009.53,426.97L1009.53,425.16L1007.72,425.16L1005.91,425.16" fill="none" stroke="#000000" style="-webkit-tap-highlight-color: rgba(0, 0, 0, 0); stroke-linecap: round; stroke-linejoin: round; stroke-width: 5;" /><path d="M644.07,428.78L642.26,426.97L642.26,425.16L640.45,425.16L640.45,423.35L638.64,423.35L642.26,425.16L645.88,425.16L651.31,426.97L658.54,426.97L669.4,428.78L680.25,428.78L689.3,428.78L696.54,428.78L703.77,428.78L709.2,428.78L716.44,428.78L723.67,428.78L730.91,428.78L739.96,428.78L747.19,430.59L754.43,432.4L761.67,432.4L767.1,432.4L770.71,432.4L776.14,432.4L783.38,432.4L790.61,432.4L797.85,432.4L805.09,434.2L812.33,434.2L823.18,434.2L828.61,434.2L834.04,434.2L839.46,434.2L846.7,434.2L852.13,434.2L857.55,436.01L864.79,437.82L870.22,437.82L875.65,439.63L881.07,439.63L884.69,439.63L890.12,441.44L893.74,441.44L899.17,441.44L904.59,441.44L908.21,441.44L913.64,441.44L917.26,441.44L920.88,441.44L922.69,441.44L926.3,441.44L928.11,441.44L931.73,443.25L935.35,445.06L938.97,448.68L942.59,450.49L944.4,452.3L946.2,454.11L949.82,455.92L953.44,459.53L955.25,463.15L957.06,466.77L958.87,470.39L960.68,474.01L960.68,477.63L962.49,479.43L964.3,481.24L966.11,483.05L967.92,486.67L969.72,486.67L971.53,488.48L973.34,488.48L975.15,490.29L975.15,492.1L978.77,493.91L980.58,495.72L982.39,495.72L984.2,497.53L986.01,497.53L987.82,497.53L989.63,499.34L986.01,497.53L984.2,497.53" fill="none" stroke="#000000" style="-webkit-tap-highlight-color: rgba(0, 0, 0, 0); stroke-linecap: round; stroke-linejoin: round; stroke-width: 5;" /><path d="M569.89,483.05L568.08,481.24L566.28,481.24L564.47,481.24L560.85,481.24L559.04,481.24L557.23,481.24L557.23,483.05L560.85,484.86L566.28,486.67L571.7,490.29L578.94,492.1L589.8,497.53L598.84,499.34L607.89,501.14L615.12,504.76L624.17,506.57L629.6,510.19L635.02,513.81L642.26,517.43L649.5,519.24L656.73,521.05L663.97,524.66L673.02,526.47L682.06,530.09L687.49,531.9L689.3,533.71L694.73,537.33L700.16,540.95L705.58,546.37L712.82,549.99L716.44,553.61L721.87,557.23L729.1,560.85L734.53,562.66L739.96,566.28L745.39,569.89L750.81,571.7L754.43,575.32L759.86,577.13L763.48,578.94L767.1,582.56L772.52,586.18L776.14,589.8L781.57,593.41L787,598.84L792.42,602.46L797.85,606.08L801.47,609.7L806.9,615.12L810.52,616.93L815.94,620.55L819.56,622.36L823.18,624.17L826.8,627.79L828.61,629.6L830.42,633.22L834.04,638.64L835.84,642.26L839.46,645.88L843.08,649.5L848.51,651.31L853.94,653.12L861.17,654.93L868.41,654.93L873.84,654.93L881.07,654.93L886.5,653.12L891.93,651.31L899.17,651.31L902.78,649.5L908.21,649.5L906.4,645.88L900.98,638.64" fill="none" stroke="#000000" style="-webkit-tap-highlight-color: rgba(0, 0, 0, 0); stroke-linecap: round; stroke-linejoin: round; stroke-width: 5;" /><path d="M492.1,265.95L490.29,262.33L490.29,258.71" fill="none" stroke="#000000" style="-webkit-tap-highlight-color: rgba(0, 0, 0, 0); stroke-linecap: round; stroke-linejoin: round; stroke-width: 5;" /><path d="M484.86,112.17L484.86,108.55L484.86,104.93L484.86,103.12L483.05,101.31L481.24,103.12L477.63,104.93L474.01,108.55L472.2,113.98L468.58,119.41L468.58,123.02L468.58,128.45L468.58,132.07L470.39,135.69L470.39,141.12L472.2,144.73L472.2,148.35L472.2,150.16L474.01,153.78L474.01,157.4L475.82,161.02L475.82,164.64L477.63,170.06L477.63,175.49L477.63,180.92L477.63,184.54L477.63,188.16L477.63,191.77L477.63,195.39L477.63,199.01L479.43,200.82L481.24,204.44L481.24,208.06L483.05,211.67L483.05,213.48L483.05,217.1L483.05,220.72L483.05,224.34L483.05,227.96L483.05,231.58L483.05,237L483.05,238.81L483.05,242.43L483.05,244.24L483.05,246.05L484.86,249.67L484.86,251.48L484.86,255.1L486.67,256.9L486.67,258.71L486.67,260.52L484.86,264.14L483.05,265.95L481.24,269.57L477.63,273.19L475.82,276.81L474.01,280.42L472.2,282.23L470.39,285.85L470.39,287.66L468.58,291.28L468.58,293.09L468.58,296.71L468.58,300.33L468.58,305.75L468.58,311.18L468.58,314.8L468.58,318.42L466.77,322.04L466.77,325.65L466.77,327.46L464.96,331.08L464.96,334.7L464.96,336.51L464.96,338.32L464.96,340.13L464.96,341.94L464.96,343.75L466.77,345.55L466.77,347.36L468.58,349.17L470.39,350.98L474.01,352.79L477.63,352.79L481.24,354.6L486.67,354.6L493.91,354.6L499.34,352.79L504.76,349.17L508.38,345.55L512,341.94L513.81,338.32L515.62,334.7L517.43,329.27L519.24,325.65L521.05,322.04L522.86,316.61L524.66,311.18L526.47,303.94L528.28,296.71L530.09,289.47L531.9,284.04L530.09,271.38L524.66,267.76L519.24,267.76L512,265.95L502.95,267.76L493.91,271.38L486.67,276.81L479.43,282.23L475.82,285.85L472.2,287.66L468.58,289.47L468.58,291.28L466.77,291.28L466.77,293.09L468.58,294.9L470.39,296.71" fill="none" stroke="#000000" style="-webkit-tap-highlight-color: rgba(0, 0, 0, 0); stroke-linecap: round; stroke-linejoin: round; stroke-width: 5;" /><path d="M618.74,293.09L616.93,293.09L611.51,289.47L606.08,289.47L598.84,287.66L595.22,287.66L591.6,287.66L586.18,289.47L578.94,289.47L573.51,291.28L569.89,291.28L569.89,289.47L568.08,291.28L568.08,293.09L568.08,294.9L568.08,298.52L571.7,302.13L577.13,305.75L582.56,311.18L587.99,312.99L593.41,316.61L597.03,316.61L604.27,318.42L609.7,318.42L616.93,320.23L622.36,322.04L625.98,323.84L629.6,325.65L633.22,327.46L636.83,331.08L640.45,332.89L644.07,334.7L647.69,334.7L653.12,334.7L656.73,336.51L660.35,336.51L665.78,336.51L669.4,338.32L674.83,338.32L678.45,338.32L682.06,338.32L687.49,338.32L691.11,338.32L694.73,338.32L696.54,338.32L700.16,338.32L701.96,336.51L703.77,336.51L703.77,334.7L705.58,332.89L705.58,329.27L703.77,323.84L701.96,318.42L696.54,312.99L691.11,307.56L683.87,302.13L680.25,300.33L674.83,300.33L671.21,298.52L667.59,298.52L663.97,296.71L662.16,296.71L658.54,294.9L654.93,294.9L651.31,294.9L645.88,294.9L638.64,294.9L631.41,296.71L625.98,296.71L620.55,298.52L615.12,300.33L611.51,300.33L607.89,302.13L602.46,302.13L598.84,302.13L593.41,302.13L589.8,302.13L586.18,302.13L586.18,300.33L586.18,298.52L586.18,296.71L589.8,296.71L591.6,294.9L593.41,294.9" fill="none" stroke="#000000" style="-webkit-tap-highlight-color: rgba(0, 0, 0, 0); stroke-linecap: round; stroke-linejoin: round; stroke-width: 5;" /><path d="M530.09,271.38L526.47,269.57L524.66,269.57L519.24,267.76L517.43,267.76L515.62,267.76L513.81,267.76L512,267.76L512,269.57L512,271.38L513.81,271.38L517.43,273.19L521.05,273.19L524.66,273.19L530.09,273.19L537.33,273.19L540.95,273.19L546.37,273.19L551.8,273.19L557.23,273.19L562.66,271.38L566.28,271.38L571.7,273.19L577.13,273.19L582.56,275L587.99,276.81L593.41,278.61L597.03,280.42L600.65,282.23L606.08,282.23L609.7,282.23L615.12,284.04L620.55,284.04L624.17,284.04L627.79,284.04L633.22,284.04L636.83,284.04L640.45,284.04L644.07,282.23L649.5,284.04L656.73,284.04L662.16,285.85L667.59,287.66L673.02,287.66L678.45,287.66L683.87,287.66L687.49,287.66L692.92,289.47L696.54,291.28L701.96,293.09L705.58,294.9L711.01,296.71L714.63,296.71L720.06,296.71L725.48,298.52L729.1,298.52L734.53,298.52L738.15,300.33L739.96,300.33L743.58,302.13L747.19,302.13L750.81,303.94L754.43,303.94L756.24,303.94L759.86,303.94L763.48,303.94L765.29,303.94L768.9,302.13L770.71,302.13L772.52,300.33L774.33,298.52L776.14,296.71L777.95,294.9L777.95,291.28L779.76,287.66L779.76,285.85L779.76,282.23L779.76,278.61L777.95,276.81L777.95,273.19L774.33,271.38L772.52,269.57L770.71,267.76L767.1,265.95L765.29,264.14L761.67,262.33L759.86,260.52L759.86,258.71L759.86,256.9L758.05,256.9L758.05,255.1L756.24,253.29L754.43,249.67L752.62,247.86L750.81,246.05L749,246.05L747.19,244.24L745.39,244.24L741.77,242.43L738.15,242.43L734.53,240.62L732.72,240.62L729.1,238.81L727.29,238.81L725.48,237L723.67,235.19L723.67,233.39L721.87,231.58L721.87,229.77L720.06,229.77L720.06,227.96L718.25,226.15L716.44,224.34L714.63,222.53L712.82,220.72L711.01,218.91L709.2,217.1L707.39,217.1L705.58,215.29L703.77,213.48L701.96,211.67L700.16,211.67L698.35,209.87L694.73,209.87L692.92,208.06L691.11,208.06L689.3,206.25L687.49,206.25L683.87,204.44L682.06,204.44L680.25,202.63L676.64,202.63L674.83,200.82L671.21,200.82L669.4,199.01L665.78,199.01L663.97,197.2L660.35,195.39L658.54,195.39L654.93,193.58L653.12,191.77L649.5,191.77L647.69,189.96L644.07,189.96L640.45,188.16L638.64,186.35L635.02,184.54L631.41,182.73L627.79,180.92L622.36,179.11L618.74,177.3L615.12,175.49L609.7,173.68L604.27,171.87L600.65,170.06L597.03,168.25L593.41,166.45L589.8,164.64L586.18,162.83L582.56,162.83L578.94,161.02L577.13,159.21L573.51,157.4L571.7,155.59L568.08,151.97L566.28,150.16L562.66,148.35L557.23,146.54L553.61,144.73L549.99,142.93L544.57,139.31L540.95,137.5L537.33,135.69L531.9,133.88L528.28,132.07L522.86,130.26L519.24,126.64L513.81,124.83L510.19,123.02L504.76,121.22L501.14,119.41L497.53,119.41L493.91,117.6L490.29,115.79L488.48,115.79L486.67,113.98L483.05,113.98L481.24,112.17L477.63,112.17L474.01,110.36L468.58,110.36L464.96,108.55L459.53,108.55L454.11,108.55L452.3,108.55L450.49,108.55L448.68,106.74L446.87,106.74L446.87,108.55L450.49,110.36L454.11,110.36" fill="none" stroke="#000000" style="-webkit-tap-highlight-color: rgba(0, 0, 0, 0); stroke-linecap: round; stroke-linejoin: round; stroke-width: 5;" /><path d="M446.87,184.54L446.87,182.73L445.06,182.73L443.25,182.73L441.44,182.73L441.44,180.92L439.63,180.92L437.82,179.11L434.2,179.11L428.78,177.3L423.35,177.3L416.11,175.49L408.88,175.49L401.64,175.49L396.21,177.3L390.78,179.11L385.36,180.92L381.74,182.73L376.31,184.54L370.88,188.16L367.27,191.77L363.65,195.39L360.03,199.01L360.03,202.63L358.22,208.06L358.22,211.67L358.22,215.29L358.22,220.72L358.22,226.15L356.41,233.39L356.41,238.81L356.41,246.05L356.41,251.48L356.41,256.9L356.41,262.33L356.41,267.76L354.6,273.19L354.6,276.81L352.79,282.23L350.98,287.66L350.98,291.28L349.17,293.09L347.36,296.71L347.36,300.33L345.55,302.13L345.55,305.75L343.75,309.37L343.75,311.18L343.75,312.99L343.75,314.8L343.75,316.61L343.75,320.23L343.75,322.04L343.75,325.65L343.75,331.08L343.75,334.7L343.75,340.13L341.94,345.55L341.94,350.98L340.13,358.22L338.32,365.46L336.51,370.88L334.7,376.31L332.89,381.74L331.08,385.36L331.08,388.98L331.08,390.78L331.08,392.59L332.89,390.78L334.7,387.17L336.51,385.36" fill="none" stroke="#000000" style="-webkit-tap-highlight-color: rgba(0, 0, 0, 0); stroke-linecap: round; stroke-linejoin: round; stroke-width: 5;" /><path d="M372.69,264.14L370.88,264.14L370.88,265.95L372.69,267.76L376.31,269.57L379.93,269.57L385.36,271.38L390.78,273.19L396.21,276.81L401.64,278.61L405.26,280.42L408.88,282.23L412.49,284.04L416.11,285.85L419.73,287.66L423.35,289.47L426.97,291.28L432.4,294.9L436.01,294.9L439.63,294.9L441.44,294.9L443.25,291.28L446.87,289.47L448.68,285.85L450.49,282.23L452.3,276.81L455.92,271.38L457.72,265.95L459.53,260.52L461.34,253.29L461.34,246.05L461.34,238.81L461.34,231.58L459.53,224.34L459.53,218.91L457.72,215.29L454.11,211.67L446.87,208.06L437.82,204.44L434.2,202.63L432.4,202.63L436.01,202.63L437.82,204.44L441.44,206.25" fill="none" stroke="#000000" style="-webkit-tap-highlight-color: rgba(0, 0, 0, 0); stroke-linecap: round; stroke-linejoin: round; stroke-width: 5;" /><path d="M5.43,180.92L3.62,180.92L0,180.92" fill="none" stroke="#000000" style="-webkit-tap-highlight-color: rgba(0, 0, 0, 0); stroke-linecap: round; stroke-linejoin: round; stroke-width: 5;" /><path d="M1.81,175.49L7.24,173.68L14.47,173.68L21.71,171.87L28.95,171.87L34.37,171.87L37.99,175.49L41.61,177.3L43.42,179.11L45.23,180.92L48.85,180.92L52.47,182.73L57.89,184.54L63.32,184.54L66.94,184.54L70.56,184.54L74.18,184.54L77.8,186.35L79.6,186.35L83.22,186.35L86.84,188.16L88.65,189.96L92.27,189.96L94.08,189.96L95.89,189.96L99.51,189.96L103.12,189.96L106.74,191.77L110.36,191.77L113.98,191.77L115.79,189.96L119.41,189.96L121.22,188.16L124.83,186.35L126.64,184.54L130.26,182.73L132.07,182.73L133.88,180.92L133.88,179.11L135.69,177.3L135.69,175.49L135.69,171.87L135.69,168.25L135.69,166.45L135.69,164.64L135.69,162.83L137.5,161.02L139.31,159.21L141.12,157.4L141.12,155.59L142.93,155.59L144.73,155.59L146.54,155.59L148.35,155.59L150.16,155.59L151.97,155.59L153.78,157.4L155.59,157.4L155.59,159.21L157.4,161.02L159.21,162.83L161.02,164.64L162.83,166.45L164.64,166.45L166.45,168.25L168.25,168.25L170.06,168.25L173.68,166.45L177.3,166.45L180.92,164.64L182.73,164.64L186.35,162.83L189.96,162.83L193.58,161.02L195.39,161.02L199.01,159.21L202.63,157.4L206.25,155.59L208.06,155.59L211.67,153.78L213.48,153.78L215.29,153.78L218.91,153.78L220.72,153.78L224.34,153.78L227.96,153.78L229.77,153.78L233.39,153.78L231.58,157.4" fill="none" stroke="#000000" style="-webkit-tap-highlight-color: rgba(0, 0, 0, 0); stroke-linecap: round; stroke-linejoin: round; stroke-width: 5;" /><path d="M153.78,251.48L155.59,251.48L155.59,249.67L157.4,249.67L159.21,249.67L157.4,249.67L157.4,251.48L155.59,251.48L155.59,253.29L153.78,253.29L151.97,255.1L150.16,256.9L148.35,258.71L146.54,260.52L144.73,260.52L142.93,260.52L141.12,260.52L137.5,258.71L133.88,256.9L130.26,255.1L126.64,251.48L123.02,249.67L119.41,247.86L115.79,246.05L112.17,246.05L108.55,246.05L104.93,244.24L101.31,244.24L99.51,244.24L95.89,244.24L90.46,244.24L86.84,244.24L83.22,244.24L77.8,244.24L74.18,244.24L70.56,242.43L68.75,242.43L66.94,242.43L65.13,244.24L63.32,244.24L59.7,246.05L56.08,246.05L52.47,247.86L48.85,247.86L45.23,249.67L41.61,249.67L37.99,251.48L32.57,251.48L28.95,251.48L23.52,251.48L18.09,253.29L14.47,253.29L9.05,255.1L7.24,256.9L3.62,260.52L1.81,262.33L0,264.14" fill="none" stroke="#000000" style="-webkit-tap-highlight-color: rgba(0, 0, 0, 0); stroke-linecap: round; stroke-linejoin: round; stroke-width: 5;" /><path d="M0,280.42L7.24,275" fill="none" stroke="#000000" style="-webkit-tap-highlight-color: rgba(0, 0, 0, 0); stroke-linecap: round; stroke-linejoin: round; stroke-width: 5;" /><path d="M150.16,175.49L146.54,175.49L142.93,177.3L141.12,179.11L141.12,180.92L141.12,182.73L141.12,184.54L141.12,189.96L141.12,195.39L141.12,200.82L141.12,208.06L141.12,215.29L141.12,220.72L141.12,227.96L141.12,233.39L141.12,240.62L141.12,244.24L141.12,249.67L141.12,255.1L141.12,258.71L141.12,260.52L141.12,256.9L141.12,255.1" fill="none" stroke="#000000" style="-webkit-tap-highlight-color: rgba(0, 0, 0, 0); stroke-linecap: round; stroke-linejoin: round; stroke-width: 5;" /><path d="M95.89,188.16L95.89,186.35L95.89,184.54L94.08,186.35L92.27,191.77L92.27,202.63L92.27,211.67L92.27,222.53L92.27,231.58L92.27,238.81L92.27,244.24L92.27,247.86L90.46,249.67L90.46,246.05" fill="none" stroke="#000000" style="-webkit-tap-highlight-color: rgba(0, 0, 0, 0); stroke-linecap: round; stroke-linejoin: round; stroke-width: 5;" /><path d="M59.7,184.54L57.89,182.73L56.08,182.73L54.28,184.54L52.47,188.16L52.47,193.58L50.66,200.82L54.28,211.67L56.08,222.53L56.08,231.58L56.08,237L56.08,242.43L56.08,244.24L54.28,244.24L54.28,242.43L54.28,237L54.28,235.19" fill="none" stroke="#000000" style="-webkit-tap-highlight-color: rgba(0, 0, 0, 0); stroke-linecap: round; stroke-linejoin: round; stroke-width: 5;" /><path d="M36.18,182.73L34.37,180.92L32.57,179.11L30.76,179.11L28.95,180.92L27.14,186.35L25.33,191.77L25.33,199.01L23.52,209.87L23.52,218.91L23.52,226.15L23.52,229.77L23.52,231.58L23.52,227.96L25.33,224.34" fill="none" stroke="#000000" style="-webkit-tap-highlight-color: rgba(0, 0, 0, 0); stroke-linecap: round; stroke-linejoin: round; stroke-width: 5;" /><path d="M12.66,213.48L12.66,215.29L10.86,217.1L10.86,218.91L10.86,224.34L12.66,233.39L12.66,242.43L14.47,247.86L14.47,253.29L16.28,255.1" fill="none" stroke="#000000" style="-webkit-tap-highlight-color: rgba(0, 0, 0, 0); stroke-linecap: round; stroke-linejoin: round; stroke-width: 5;" /><path d="M962.49,857.55" fill="none" stroke="#000000" style="-webkit-tap-highlight-color: rgba(0, 0, 0, 0); stroke-linecap: round; stroke-linejoin: round; stroke-width: 5;" /><path d="M928.11,886.5" fill="none" stroke="#000000" style="-webkit-tap-highlight-color: rgba(0, 0, 0, 0); stroke-linecap: round; stroke-linejoin: round; stroke-width: 5;" /><path d="M448.68,179.11L448.68,177.3L446.87,177.3L450.49,173.68L452.3,170.06L454.11,166.45L457.72,161.02L459.53,153.78L463.15,148.35L464.96,144.73L466.77,139.31L466.77,137.5L466.77,135.69L466.77,133.88L466.77,132.07L466.77,130.26L466.77,126.64L468.58,124.83L470.39,121.22L472.2,117.6L472.2,115.79L474.01,112.17L475.82,110.36L475.82,108.55L472.2,110.36L466.77,117.6L461.34,124.83L454.11,135.69L450.49,144.73L448.68,153.78L446.87,159.21L446.87,164.64L445.06,168.25L443.25,173.68L441.44,177.3L439.63,179.11L437.82,180.92L436.01,182.73L434.2,184.54L434.2,186.35L436.01,186.35" fill="none" stroke="#000000" style="-webkit-tap-highlight-color: rgba(0, 0, 0, 0); stroke-linecap: round; stroke-linejoin: round; stroke-width: 5;" /><path d="M884.69,671.21L888.31,669.4L891.93,665.78L893.74,665.78L899.17,662.16L906.4,662.16L911.83,662.16L915.45,665.78L919.07,671.21L922.69,676.64L928.11,682.06L931.73,689.3L935.35,696.54L940.78,703.77L944.4,709.2L951.63,712.82L957.06,714.63L960.68,716.44L964.3,716.44L964.3,714.63L964.3,712.82" fill="none" stroke="#000000" style="-webkit-tap-highlight-color: rgba(0, 0, 0, 0); stroke-linecap: round; stroke-linejoin: round; stroke-width: 5;" /><path d="M946.2,633.22L946.2,635.02L946.2,636.83L946.2,638.64L944.4,640.45L944.4,642.26L948.01,642.26L953.44,642.26L960.68,642.26L967.92,642.26L973.34,644.07L978.77,647.69L982.39,651.31L986.01,654.93L989.63,660.35L993.24,663.97L996.86,667.59L1002.29,669.4L1005.91,669.4L1009.53,667.59L1013.14,665.78L1013.14,663.97" fill="none" stroke="#000000" style="-webkit-tap-highlight-color: rgba(0, 0, 0, 0); stroke-linecap: round; stroke-linejoin: round; stroke-width: 5;" /><path d="M741.77,184.54L739.96,184.54L736.34,184.54L734.53,182.73L734.53,180.92L734.53,179.11L734.53,177.3L736.34,175.49L738.15,175.49L739.96,173.68L743.58,171.87L750.81,171.87L763.48,171.87L777.95,171.87L792.42,171.87L801.47,170.06L810.52,170.06L819.56,168.25L830.42,168.25L839.46,168.25L848.51,168.25L855.75,168.25L862.98,170.06L872.03,170.06L881.07,170.06L890.12,170.06L897.36,168.25L904.59,168.25L911.83,168.25L919.07,170.06L926.3,170.06L931.73,170.06L937.16,168.25L942.59,168.25L948.01,166.45L955.25,166.45L962.49,166.45L969.72,166.45L975.15,166.45L982.39,166.45L987.82,164.64L995.05,164.64L1002.29,162.83L1007.72,162.83L1011.34,162.83L1014.95,162.83L1016.76,162.83L1018.57,162.83L1020.38,162.83L1022.19,162.83" fill="none" stroke="#000000" style="-webkit-tap-highlight-color: rgba(0, 0, 0, 0); stroke-linecap: round; stroke-linejoin: round; stroke-width: 5;" /><path d="M960.68,327.46L958.87,327.46L957.06,325.65L955.25,325.65L955.25,323.84L953.44,323.84L953.44,325.65L955.25,327.46L957.06,329.27L960.68,331.08L966.11,334.7L969.72,338.32L973.34,343.75L976.96,349.17L980.58,354.6L984.2,358.22L989.63,360.03L995.05,360.03L1000.48,360.03L1007.72,360.03L1011.34,360.03L1014.95,360.03L1018.57,360.03L1020.38,360.03L1018.57,363.65" fill="none" stroke="#000000" style="-webkit-tap-highlight-color: rgba(0, 0, 0, 0); stroke-linecap: round; stroke-linejoin: round; stroke-width: 5;" /></svg>