<?xml version="1.0" encoding="utf-8" ?>
<svg baseProfile="full" height="1412" version="1.1" width="1024" xmlns="http://www.w3.org/2000/svg" xmlns:ev="http://www.w3.org/2001/xml-events" xmlns:xlink="http://www.w3.org/1999/xlink"><defs /><path d="M459.95,613.98L466.32,611.85L471.63,611.85L478.01,610.79L483.32,610.79L489.69,610.79L496.07,610.79L501.38,611.85L506.69,610.79L513.06,610.79L519.44,609.73L531.12,607.6L536.43,606.54L542.8,606.54L548.12,606.54L553.43,605.48L558.74,605.48L562.99,604.41L568.3,603.35L573.61,603.35L579.98,602.29L587.42,601.23" fill="none" stroke="#000000" style="-webkit-tap-highlight-color: rgba(0, 0, 0, 0); stroke-linecap: round; stroke-linejoin: round; stroke-width: 7;" /><path d="M588.48,593.79L589.54,592.73L592.73,591.67L594.85,592.73L599.1,593.79L603.35,593.79L608.66,594.85L619.29,594.85L623.54,595.92L629.91,596.98L635.22,598.04L642.66,598.04L649.03,596.98L655.4,596.98L661.78,596.98L668.15,599.1L676.65,600.17" fill="none" stroke="#000000" style="-webkit-tap-highlight-color: rgba(0, 0, 0, 0); stroke-linecap: round; stroke-linejoin: round; stroke-width: 7;" /><path d="M669.21,605.48L670.27,604.41L674.52,603.35L678.77,602.29L684.08,601.23L690.46,600.17L695.77,599.1L710.64,598.04L719.14,598.04L726.57,598.04L732.95,599.1L738.26,600.17L744.63,602.29L751,602.29L755.25,603.35L762.69,602.29L772.25,603.35L777.56,602.29" fill="none" stroke="#000000" style="-webkit-tap-highlight-color: rgba(0, 0, 0, 0); stroke-linecap: round; stroke-linejoin: round; stroke-width: 7;" /><path d="M506.69,842.36L507.75,841.29L510.94,841.29L515.19,839.17L519.44,837.05L525.81,834.92L532.18,832.8L539.62,830.67L545.99,829.61L552.37,828.55L566.17,827.49L571.49,826.42L578.92,826.42L585.29,827.49L592.73,827.49L599.1,827.49L606.54,828.55L627.78,828.55L635.22,828.55L640.53,829.61L646.9,829.61L652.22,829.61L657.53,829.61L662.84,828.55L667.09,827.49L672.4,826.42L676.65,826.42L680.9,825.36L690.46,825.36L694.71,825.36L700.02,824.3L705.33,825.36L710.64,825.36L718.07,825.36" fill="none" stroke="#000000" style="-webkit-tap-highlight-color: rgba(0, 0, 0, 0); stroke-linecap: round; stroke-linejoin: round; stroke-width: 7;" /><path d="M709.58,823.24L712.76,822.17L715.95,822.17L721.26,821.11L729.76,820.05L749.94,817.93L759.5,818.99L769.06,820.05L777.56,821.11L786.06,822.17L794.56,822.17L807.3,823.24L812.61,824.3L816.86,823.24" fill="none" stroke="#000000" style="-webkit-tap-highlight-color: rgba(0, 0, 0, 0); stroke-linecap: round; stroke-linejoin: round; stroke-width: 7;" /><path d="M454.64,875.29L451.45,872.1L451.45,869.98L453.58,867.85L456.76,866.79L463.14,866.79L475.88,869.98L484.38,869.98L493.94,868.91L504.56,868.91L514.12,869.98L525.81,869.98L536.43,869.98L547.05,867.85L567.24,865.73L576.8,865.73L584.23,865.73L592.73,865.73L600.17,865.73L607.6,866.79L615.04,865.73L621.41,865.73L628.85,865.73L635.22,866.79L647.97,868.91" fill="none" stroke="#000000" style="-webkit-tap-highlight-color: rgba(0, 0, 0, 0); stroke-linecap: round; stroke-linejoin: round; stroke-width: 7;" /><path d="M654.34,871.04L655.4,871.04L658.59,871.04L659.65,871.04L662.84,872.1L664.96,873.16L668.15,875.29L671.34,876.35L674.52,878.47L677.71,879.54L686.21,880.6L691.52,880.6L695.77,880.6L701.08,880.6" fill="none" stroke="#000000" style="-webkit-tap-highlight-color: rgba(0, 0, 0, 0); stroke-linecap: round; stroke-linejoin: round; stroke-width: 7;" /><path d="M659.65,880.6L660.71,883.78L660.71,884.85L660.71,888.03L660.71,890.16L660.71,892.28L660.71,895.47L660.71,898.66L661.78,900.78L661.78,903.97L661.78,906.09L660.71,909.28L659.65,911.4L659.65,914.59L658.59,915.65L657.53,917.78L656.46,919.9L655.4,923.09L654.34,924.15L653.28,926.27L652.22,929.46L651.15,932.65L651.15,933.71L650.09,933.71L649.03,935.83L647.97,936.9L646.9,939.02L645.84,941.15L642.66,944.33L641.59,944.33L640.53,945.39L639.47,947.52L637.34,948.58L636.28,949.64L634.16,951.77L632.03,952.83L629.91,952.83L624.6,957.08L618.22,961.33L615.04,963.45L610.79,966.64L606.54,968.76L602.29,969.83L596.98,971.95L591.67,974.07L587.42,976.2" fill="none" stroke="#000000" style="-webkit-tap-highlight-color: rgba(0, 0, 0, 0); stroke-linecap: round; stroke-linejoin: round; stroke-width: 7;" /><path d="M778.62,896.53L777.56,896.53L775.44,897.59L772.25,900.78L769.06,903.97L764.81,908.22L762.69,912.46L761.63,916.71L760.56,922.02L764.81,933.71L768,934.77" fill="none" stroke="#000000" style="-webkit-tap-highlight-color: rgba(0, 0, 0, 0); stroke-linecap: round; stroke-linejoin: round; stroke-width: 7;" /><path d="M775.44,892.28L775.44,891.22L775.44,890.16L778.62,888.03L783.93,885.91L791.37,883.78L797.74,883.78L801.99,883.78" fill="none" stroke="#000000" style="-webkit-tap-highlight-color: rgba(0, 0, 0, 0); stroke-linecap: round; stroke-linejoin: round; stroke-width: 7;" /><path d="M472.7,295.3L470.57,294.24L468.45,294.24L466.32,295.3L462.07,298.49L457.83,301.68L446.14,311.24L439.77,315.49L433.39,320.8L427.02,326.11L419.59,331.42L414.27,335.67L406.84,339.92L399.4,345.23L385.59,354.79L380.28,360.1L374.97,366.47L368.6,371.78L363.29,378.16L357.98,383.47L352.66,389.84L347.35,395.15L343.1,400.46L338.85,404.71L330.36,414.27L326.11,418.52L322.92,422.77L318.67,427.02L314.42,431.27L310.17,435.52L306.99,438.71L303.8,442.95L299.55,448.27L296.37,453.58L293.18,457.83L291.05,463.14L288.93,467.39L286.8,471.63L284.68,475.88L283.62,480.13L282.56,484.38L281.49,488.63L278.31,498.19L277.24,502.44L277.24,507.75L276.18,513.06L275.12,517.31L274.06,521.56L273,525.81L271.93,531.12L270.87,535.37L268.75,542.8L267.68,548.12L266.62,553.43L264.5,564.05L263.44,568.3L262.37,569.36L262.37,572.55L261.31,573.61L261.31,575.73" fill="none" stroke="#000000" style="-webkit-tap-highlight-color: rgba(0, 0, 0, 0); stroke-linecap: round; stroke-linejoin: round; stroke-width: 7;" /><path d="M488.63,296.37L488.63,294.24L491.82,292.12L496.07,288.93L501.38,285.74L510.94,281.49L520.5,277.24L529,273L536.43,269.81L549.18,265.56L556.61,263.44L565.11,261.31L572.55,259.19L579.98,258.12L586.36,257.06L591.67,257.06L596.98,257.06L603.35,257.06L615.04,258.12L620.35,258.12L625.66,258.12L630.97,258.12L636.28,257.06L641.59,257.06L645.84,258.12L650.09,258.12L654.34,259.19L659.65,260.25L669.21,260.25L674.52,259.19L678.77,260.25L683.02,260.25L688.33,260.25L694.71,260.25L700.02,260.25L705.33,261.31L710.64,262.37L720.2,265.56L725.51,266.62L729.76,267.68L735.07,268.75L740.38,269.81L745.69,269.81L751,271.93L756.32,273L766.94,276.18L772.25,278.31L776.5,280.43L781.81,281.49L787.12,282.56L792.43,283.62L797.74,284.68L801.99,284.68L807.3,285.74L811.55,287.87L820.05,291.05L824.3,292.12L828.55,294.24L832.8,295.3L837.05,297.43L841.29,299.55L846.61,302.74L850.85,305.93L856.17,308.05L866.79,312.3L871.04,315.49L875.29,317.61L879.54,319.73L883.78,321.86L888.03,325.05L892.28,327.17L895.47,328.23L899.72,331.42L908.22,335.67L912.46,338.85L916.71,339.92L920.96,342.04L925.21,345.23L928.4,347.35L931.59,349.48L933.71,350.54L937.96,353.73L942.21,359.04L944.33,361.16L947.52,364.35L951.77,367.54L954.95,370.72L958.14,372.85L962.39,376.03L966.64,378.16L970.89,381.34L976.2,384.53L984.7,388.78L988.95,391.97L992.13,395.15L996.38,398.34L999.57,401.53L1002.76,404.71L1005.94,407.9L1008.07,411.09L1012.32,416.4L1018.69,423.83L1021.88,428.08" fill="none" stroke="#000000" style="-webkit-tap-highlight-color: rgba(0, 0, 0, 0); stroke-linecap: round; stroke-linejoin: round; stroke-width: 7;" /><path d="M446.14,420.65L441.89,421.71L439.77,422.77L436.58,423.83L432.33,427.02L428.08,430.21L417.46,438.71L404.71,449.33L399.4,455.7L395.15,463.14L389.84,469.51L384.53,476.95L380.28,483.32L376.03,491.82L367.54,505.63L363.29,513.06L360.1,519.44L356.91,525.81L352.66,533.24L350.54,539.62L348.41,547.05L346.29,555.55L344.17,564.05L342.04,579.98L339.92,594.85L338.85,602.29L337.79,609.73L337.79,616.1L336.73,622.47L336.73,628.85L335.67,635.22L335.67,641.59L335.67,653.28L335.67,658.59L335.67,664.96L335.67,670.27L335.67,675.59L335.67,679.83L335.67,684.08L335.67,690.46L335.67,702.14L335.67,708.51L335.67,714.89L334.61,721.26L334.61,728.7L334.61,737.2L334.61,744.63L334.61,751L335.67,759.5L336.73,773.31L336.73,779.68L336.73,786.06L336.73,793.49L336.73,799.87L336.73,806.24L335.67,814.74L335.67,822.17L334.61,830.67L334.61,838.11L334.61,854.04L334.61,863.6L334.61,874.22L335.67,883.78L335.67,894.41L335.67,901.84L337.79,928.4L337.79,931.59L338.85,947.52L338.85,957.08L338.85,966.64L338.85,976.2L338.85,984.7L338.85,992.13L337.79,1000.63L336.73,1010.19L336.73,1017.63L336.73,1032.5L336.73,1037.81L336.73,1044.18L335.67,1050.56L335.67,1055.87L335.67,1061.18L335.67,1065.43L335.67,1068.61L335.67,1074.99L335.67,1079.24L335.67,1083.49L336.73,1086.67L336.73,1087.73L335.67,1084.55" fill="none" stroke="#000000" style="-webkit-tap-highlight-color: rgba(0, 0, 0, 0); stroke-linecap: round; stroke-linejoin: round; stroke-width: 7;" /><path d="M424.9,442.95L425.96,440.83L428.08,435.52L433.39,428.08L441.89,418.52L446.14,412.15L451.45,407.9L455.7,402.59L461.01,397.28L465.26,393.03L471.63,386.66L473.76,384.53L478.01,380.28L488.63,370.72L495,366.47L500.32,362.22L505.63,359.04L510.94,355.85L515.19,353.73L520.5,353.73L525.81,351.6L537.49,348.41L543.87,347.35L549.18,345.23L554.49,344.17L558.74,343.1L564.05,345.23L568.3,345.23L572.55,343.1L577.86,343.1L584.23,343.1L594.85,345.23L601.23,345.23L606.54,345.23L611.85,346.29L617.16,346.29L621.41,347.35L625.66,348.41L629.91,348.41L633.1,349.48L640.53,350.54L643.72,350.54L647.97,351.6L651.15,351.6L655.4,352.66L659.65,353.73L663.9,353.73L669.21,354.79L674.52,355.85L687.27,356.91L691.52,356.91L696.83,356.91L701.08,357.98L706.39,356.91L710.64,357.98L714.89,357.98L719.14,359.04L727.63,360.1L732.95,360.1L737.2,362.22L741.44,362.22L747.82,363.29L753.13,365.41L755.25,365.41L760.56,366.47L764.81,367.54L774.37,370.72L778.62,371.78L781.81,372.85L785,374.97L789.24,376.03L794.56,376.03L803.05,379.22L806.24,381.34L813.68,384.53L816.86,385.59L820.05,386.66L823.24,388.78L825.36,390.9L827.49,393.03L830.67,394.09L832.8,395.15L835.98,397.28L838.11,398.34L844.48,401.53L847.67,402.59L849.79,404.71L852.98,406.84L856.17,407.9L859.35,410.02L861.48,412.15L864.66,414.27L866.79,417.46L871.04,422.77L874.22,424.9L877.41,427.02L879.54,429.15L882.72,431.27L885.91,433.39L888.03,434.46L891.22,436.58L895.47,438.71L898.66,440.83L901.84,442.95L903.97,444.02L906.09,446.14L908.22,447.2L912.46,451.45L914.59,452.51L917.78,454.64L923.09,457.83L925.21,458.89L928.4,461.01L930.52,462.07L933.71,465.26L935.83,467.39L936.9,468.45L939.02,471.63L942.21,475.88L943.27,476.95L944.33,479.07L945.39,482.26L946.46,483.32L948.58,486.51L949.64,489.69L950.71,489.69L951.77,492.88L952.83,495L956.02,500.32L958.14,503.5L959.2,506.69L960.27,509.88L961.33,513.06L962.39,516.25L963.45,519.44L965.58,522.62L966.64,525.81L969.83,533.24L970.89,537.49L971.95,540.68L973.01,544.93L974.07,548.12L976.2,552.37L977.26,556.61L978.32,559.8L981.51,566.17L982.57,569.36L984.7,571.49L985.76,575.73L986.82,578.92L987.88,583.17L990.01,586.36L991.07,588.48L992.13,590.61L995.32,593.79L996.38,595.92" fill="none" stroke="#000000" style="-webkit-tap-highlight-color: rgba(0, 0, 0, 0); stroke-linecap: round; stroke-linejoin: round; stroke-width: 7;" /><path d="M503.5,444.02L501.38,445.08L499.25,447.2L492.88,452.51L488.63,454.64L485.44,456.76L482.26,459.95L478.01,463.14L474.82,467.39L470.57,471.63L466.32,476.95L462.07,481.2L451.45,490.76L447.2,495L441.89,501.38L437.64,507.75L434.46,513.06L429.15,520.5L424.9,523.68L421.71,526.87L418.52,530.06L413.21,537.49L411.09,542.8L408.96,549.18L406.84,554.49L405.78,558.74L403.65,566.17L402.59,570.42L400.46,574.67L399.4,579.98L399.4,587.42L398.34,591.67L397.28,595.92L397.28,602.29L396.22,606.54L395.15,610.79L394.09,613.98L394.09,619.29L394.09,623.54L394.09,627.78L394.09,634.16L394.09,637.34L394.09,641.59L394.09,644.78L393.03,651.15L393.03,654.34L391.97,657.53L390.9,660.71L389.84,666.02L389.84,668.15L388.78,671.34L388.78,673.46L388.78,676.65L387.72,678.77L387.72,680.9L386.66,683.02L385.59,686.21L385.59,693.64L385.59,702.14L385.59,705.33L384.53,708.51L385.59,712.76L385.59,715.95L385.59,721.26L385.59,725.51L385.59,728.7L386.66,736.13L386.66,740.38L386.66,743.57L386.66,747.82L387.72,752.07L387.72,755.25L387.72,759.5L387.72,762.69L386.66,766.94L386.66,768L385.59,770.12L384.53,773.31L383.47,777.56L383.47,782.87L382.41,788.18L383.47,792.43L383.47,796.68L385.59,807.3L386.66,813.68L387.72,820.05L387.72,826.42L386.66,831.73L386.66,838.11L387.72,844.48L387.72,850.85L388.78,857.23L388.78,866.79L388.78,872.1L389.84,880.6L389.84,884.85L389.84,890.16L389.84,895.47L388.78,899.72L388.78,903.97L388.78,910.34L388.78,919.9L388.78,925.21L388.78,930.52L388.78,935.83L388.78,942.21L389.84,946.46L388.78,952.83L388.78,962.39L387.72,967.7L386.66,971.95L386.66,977.26L385.59,982.57L385.59,987.88L385.59,992.13L384.53,996.38L384.53,999.57L383.47,1008.07L383.47,1012.32L382.41,1016.56L382.41,1019.75L382.41,1024L381.34,1028.25L381.34,1032.5L381.34,1036.75L380.28,1041L380.28,1048.43L380.28,1051.62L379.22,1055.87L379.22,1057.99L379.22,1061.18L379.22,1065.43L380.28,1068.61L380.28,1071.8L380.28,1076.05L380.28,1084.55L380.28,1087.73L380.28,1090.92L380.28,1094.11L380.28,1096.23L380.28,1098.36L380.28,1097.29" fill="none" stroke="#000000" style="-webkit-tap-highlight-color: rgba(0, 0, 0, 0); stroke-linecap: round; stroke-linejoin: round; stroke-width: 7;" /><path d="M487.57,448.27L488.63,447.2L490.76,445.08L493.94,442.95L497.13,440.83L500.32,438.71L504.56,436.58L508.81,435.52L519.44,432.33L525.81,430.21L531.12,427.02L536.43,423.83L541.74,421.71L544.93,420.65L549.18,418.52L552.37,417.46L556.61,415.34L558.74,415.34L561.93,414.27L565.11,414.27L568.3,414.27L570.42,413.21L573.61,413.21L575.73,413.21L578.92,413.21L583.17,413.21L589.54,413.21L593.79,413.21L596.98,413.21L601.23,414.27L604.41,413.21L609.73,413.21L613.98,414.27L617.16,414.27L621.41,415.34L624.6,415.34L627.78,415.34L629.91,416.4L636.28,419.59L638.41,419.59L641.59,420.65L644.78,421.71L647.97,422.77L654.34,423.83L658.59,424.9L661.78,425.96L664.96,425.96L670.27,427.02L673.46,428.08L674.52,429.15L677.71,429.15L683.02,431.27L685.15,431.27L687.27,433.39L690.46,434.46L692.58,435.52L694.71,436.58L697.89,437.64L700.02,438.71L704.27,440.83L705.33,440.83L709.58,442.95L711.7,444.02L714.89,446.14L717.01,447.2L719.14,449.33L722.32,450.39L723.39,451.45L725.51,451.45L728.7,454.64L730.82,454.64L732.95,455.7L735.07,456.76L737.2,456.76L740.38,457.83L742.51,459.95L744.63,461.01L746.76,462.07L752.07,464.2L754.19,466.32L755.25,467.39L757.38,469.51L760.56,470.57L762.69,472.7L765.88,473.76L768,475.88L771.19,476.95L776.5,480.13L778.62,481.2L780.75,482.26L783.93,484.38L786.06,486.51L788.18,488.63L791.37,490.76L793.49,491.82L795.62,493.94L800.93,498.19L803.05,500.32L805.18,502.44L808.37,505.63L811.55,507.75L813.68,510.94L815.8,513.06L817.93,515.19L823.24,519.44L824.3,522.62L826.42,524.75L828.55,526.87L830.67,530.06L831.73,532.18L833.86,534.31L834.92,536.43L837.05,539.62L838.11,542.8L841.29,548.12L843.42,551.3L844.48,554.49L844.48,556.61L845.54,558.74L847.67,561.93L848.73,564.05L849.79,566.17L851.92,570.42L854.04,572.55L854.04,574.67L855.1,576.8L856.17,579.98L857.23,584.23L858.29,587.42L859.35,590.61L860.41,594.85L861.48,600.17L862.54,603.35L864.66,606.54L865.73,610.79L866.79,613.98L868.91,618.22L871.04,620.35L872.1,623.54L874.22,627.78L875.29,633.1L877.41,636.28L878.47,639.47L879.54,642.66L880.6,646.9L881.66,650.09L881.66,653.28L882.72,656.46L883.78,659.65L883.78,662.84L885.91,670.27L885.91,674.52L886.97,678.77L888.03,683.02L888.03,688.33L889.1,698.95L890.16,703.2L890.16,707.45L891.22,708.51L892.28,715.95L892.28,719.14L892.28,723.39L891.22,725.51L891.22,729.76L891.22,735.07L891.22,740.38L890.16,744.63L890.16,753.13L890.16,754.19L889.1,763.75L888.03,768L886.97,772.25L885.91,777.56L885.91,783.93L884.85,789.24L883.78,795.62L882.72,800.93L881.66,814.74L880.6,821.11L879.54,827.49L878.47,834.92L877.41,841.29L877.41,847.67L877.41,854.04L877.41,859.35L877.41,869.98L877.41,875.29L877.41,879.54L878.47,883.78L878.47,886.97L878.47,890.16L879.54,894.41L879.54,897.59L879.54,898.66L880.6,900.78L881.66,907.15L881.66,909.28L881.66,913.53L881.66,916.71L881.66,920.96L881.66,925.21L881.66,929.46L882.72,933.71L882.72,936.9L884.85,946.46L885.91,950.71L885.91,953.89L886.97,957.08L886.97,961.33L886.97,965.58L888.03,969.83L888.03,974.07L889.1,979.39L888.03,982.57L889.1,992.13L889.1,1000.63L889.1,1007L890.16,1012.32L890.16,1017.63L890.16,1020.81L890.16,1027.19L890.16,1031.44L890.16,1036.75L890.16,1041L890.16,1043.12L890.16,1046.31L890.16,1050.56L889.1,1053.74L889.1,1056.93L889.1,1057.99L890.16,1064.37L890.16,1066.49L890.16,1069.68L890.16,1072.86L891.22,1079.24L891.22,1080.3L892.28,1083.49L892.28,1088.8L891.22,1093.05L891.22,1097.29L890.16,1101.54L889.1,1105.79L888.03,1111.1L885.91,1115.35L884.85,1121.73L882.72,1128.1L881.66,1133.41L880.6,1144.03L880.6,1148.28L880.6,1151.47L880.6,1154.66L881.66,1157.84L881.66,1159.97L881.66,1162.09L881.66,1163.15L881.66,1168.46L880.6,1171.65L876.35,1179.09" fill="none" stroke="#000000" style="-webkit-tap-highlight-color: rgba(0, 0, 0, 0); stroke-linecap: round; stroke-linejoin: round; stroke-width: 7;" /><path d="M519.44,456.76L518.37,455.7L519.44,459.95L521.56,462.07L522.62,465.26L524.75,468.45L525.81,473.76L525.81,475.88L525.81,478.01L525.81,480.13L526.87,482.26L527.93,483.32L527.93,484.38L527.93,487.57L527.93,489.69L527.93,492.88L526.87,495L525.81,498.19L524.75,499.25L523.68,502.44L521.56,505.63L520.5,508.81L519.44,512L517.31,516.25L516.25,517.31L514.12,520.5L512,522.62L509.88,524.75L506.69,526.87L504.56,530.06L501.38,533.24L498.19,535.37L490.76,538.56L488.63,540.68L486.51,541.74L484.38,542.8L482.26,547.05L480.13,549.18L478.01,551.3L475.88,553.43L473.76,553.43L473.76,555.55L473.76,556.61L472.7,558.74L472.7,560.86L472.7,561.93L473.76,562.99L473.76,564.05L473.76,566.17L474.82,567.24L474.82,568.3L473.76,569.36L473.76,571.49L472.7,572.55L471.63,573.61L471.63,574.67L470.57,575.73L469.51,575.73L467.39,575.73L466.32,576.8L464.2,576.8L463.14,577.86L461.01,578.92L459.95,579.98L458.89,579.98L456.76,581.05L454.64,582.11L454.64,583.17L452.51,585.29L451.45,586.36L451.45,587.42L449.33,588.48L446.14,592.73L446.14,593.79L444.02,595.92L442.95,598.04L442.95,599.1L441.89,603.35L441.89,605.48L441.89,607.6L440.83,609.73L440.83,611.85L440.83,613.98L440.83,616.1L439.77,618.22L439.77,619.29L439.77,621.41L439.77,623.54L439.77,625.66L438.71,628.85L438.71,629.91L438.71,633.1L438.71,635.22L438.71,636.28L439.77,639.47L439.77,640.53L439.77,643.72L439.77,646.9L439.77,649.03L439.77,650.09L439.77,651.15L439.77,653.28L439.77,654.34L440.83,661.78L440.83,662.84L441.89,663.9L441.89,664.96L441.89,667.09L441.89,668.15L441.89,670.27L441.89,672.4L441.89,673.46L442.95,674.52L444.02,674.52L445.08,675.59L446.14,677.71L448.27,678.77L448.27,679.83L449.33,681.96L451.45,686.21L451.45,692.58L451.45,694.71L451.45,696.83L450.39,700.02L449.33,703.2L448.27,705.33L447.2,708.51L445.08,710.64L441.89,715.95L440.83,719.14L438.71,721.26L436.58,723.39L435.52,724.45L433.39,725.51L431.27,729.76L430.21,734.01L429.15,737.2L427.02,741.44L424.9,745.69L423.83,747.82L422.77,749.94L422.77,752.07L422.77,753.13L421.71,754.19L421.71,756.32L421.71,758.44L421.71,759.5L423.83,762.69L424.9,764.81L425.96,765.88L428.08,768L430.21,771.19L432.33,771.19L433.39,771.19L435.52,773.31L436.58,775.44L437.64,779.68L437.64,780.75L439.77,783.93L440.83,789.24L441.89,792.43L442.95,795.62L442.95,798.8L444.02,800.93L446.14,806.24L447.2,808.37L448.27,810.49L448.27,812.61L449.33,814.74L449.33,815.8L450.39,816.86L451.45,820.05L451.45,822.17L451.45,828.55L451.45,830.67L451.45,833.86L451.45,837.05L451.45,840.23L451.45,842.36L451.45,845.54L451.45,848.73L451.45,852.98L450.39,859.35L450.39,863.6L451.45,867.85L451.45,871.04L451.45,874.22L451.45,877.41L451.45,880.6L451.45,883.78L451.45,888.03L452.51,894.41L452.51,897.59L451.45,900.78L451.45,905.03L451.45,909.28L451.45,911.4L451.45,914.59L451.45,917.78L451.45,919.9L451.45,924.15L451.45,930.52L451.45,933.71L451.45,936.9L451.45,940.08L451.45,944.33L451.45,947.52L450.39,951.77L450.39,956.02L450.39,965.58L450.39,969.83L449.33,973.01L449.33,976.2L449.33,980.45L449.33,985.76L449.33,990.01L449.33,994.26L449.33,997.44L449.33,1010.19L449.33,1014.44L449.33,1017.63L449.33,1021.88L449.33,1025.06L449.33,1030.37L448.27,1035.68L448.27,1038.87L448.27,1047.37L447.2,1051.62L447.2,1055.87L448.27,1059.05L447.2,1063.3L447.2,1066.49L446.14,1069.68L446.14,1073.93L446.14,1076.05L446.14,1082.42L446.14,1084.55L446.14,1086.67L446.14,1089.86L446.14,1090.92L446.14,1093.05L446.14,1096.23L446.14,1098.36L447.2,1103.67L447.2,1104.73L446.14,1106.85L446.14,1110.04L446.14,1113.23L445.08,1115.35L445.08,1116.41L445.08,1118.54L445.08,1119.6L445.08,1122.79L445.08,1124.91L444.02,1128.1L444.02,1130.22L445.08,1131.29L445.08,1135.54L445.08,1140.85L446.14,1146.16" fill="none" stroke="#000000" style="-webkit-tap-highlight-color: rgba(0, 0, 0, 0); stroke-linecap: round; stroke-linejoin: round; stroke-width: 7;" /><path d="M444.02,1098.36L447.2,1098.36L450.39,1099.42L454.64,1098.36L459.95,1098.36L465.26,1098.36L469.51,1099.42L474.82,1100.48L480.13,1100.48L488.63,1100.48L502.44,1101.54L510.94,1102.61L519.44,1103.67L526.87,1104.73L535.37,1104.73L551.3,1102.61L555.55,1102.61L561.93,1102.61L567.24,1102.61L571.49,1102.61L577.86,1101.54L583.17,1100.48L589.54,1100.48L594.85,1099.42L600.17,1098.36L604.41,1099.42L608.66,1099.42L618.22,1100.48L622.47,1100.48L627.78,1100.48L632.03,1100.48L636.28,1101.54L640.53,1102.61L644.78,1103.67L649.03,1102.61L653.28,1102.61L662.84,1101.54L668.15,1101.54L673.46,1101.54L678.77,1101.54L683.02,1101.54L688.33,1101.54L693.64,1101.54L698.95,1101.54L704.27,1101.54L715.95,1101.54L721.26,1102.61L726.57,1102.61L730.82,1102.61L736.13,1102.61L743.57,1102.61L744.63,1102.61L752.07,1102.61L754.19,1101.54L761.63,1099.42L765.88,1098.36L770.12,1098.36L773.31,1098.36L776.5,1098.36L780.75,1099.42L783.93,1099.42L786.06,1100.48L790.31,1101.54L793.49,1102.61L796.68,1103.67L798.8,1104.73L800.93,1105.79L803.05,1104.73L806.24,1104.73L808.37,1103.67L810.49,1103.67L811.55,1103.67L810.49,1101.54" fill="none" stroke="#000000" style="-webkit-tap-highlight-color: rgba(0, 0, 0, 0); stroke-linecap: round; stroke-linejoin: round; stroke-width: 7;" /><path d="M656.46,429.15L653.28,429.15L652.22,430.21L650.09,432.33L647.97,437.64L646.9,441.89L645.84,446.14L645.84,451.45L644.78,455.7L644.78,458.89L644.78,462.07L645.84,463.14L647.97,463.14L650.09,464.2L653.28,464.2L656.46,465.26L659.65,466.32L662.84,466.32L667.09,466.32L672.4,466.32L675.59,465.26L680.9,465.26L683.02,465.26L686.21,464.2L688.33,463.14L691.52,463.14L693.64,462.07L696.83,462.07L698.95,462.07L705.33,461.01L708.51,461.01L711.7,461.01L715.95,461.01L719.14,459.95L721.26,459.95L723.39,459.95L725.51,459.95L728.7,459.95L729.76,459.95L731.88,459.95L732.95,459.95L735.07,459.95L736.13,461.01L738.26,461.01L739.32,462.07L741.44,463.14L742.51,464.2L743.57,464.2L743.57,466.32L743.57,467.39L744.63,468.45L744.63,469.51L744.63,471.63L744.63,472.7L745.69,474.82L745.69,475.88L746.76,475.88L746.76,478.01L747.82,479.07L748.88,482.26L751,484.38L752.07,486.51L754.19,488.63L754.19,489.69L755.25,490.76L757.38,492.88L758.44,491.82L759.5,491.82L761.63,492.88L762.69,492.88L764.81,495L765.88,496.07L766.94,497.13L768,498.19L769.06,498.19L770.12,500.32L770.12,501.38L772.25,502.44L773.31,503.5L775.44,504.56L775.44,505.63L776.5,506.69L777.56,505.63L778.62,505.63L778.62,504.56L779.68,505.63L779.68,507.75L779.68,508.81L779.68,509.88L778.62,510.94L778.62,512L776.5,513.06L775.44,515.19L772.25,517.31L769.06,520.5L764.81,523.68L763.75,524.75L761.63,526.87L760.56,527.93L759.5,531.12L758.44,532.18L758.44,533.24L756.32,535.37L755.25,538.56L754.19,541.74L754.19,542.8L753.13,545.99L754.19,549.18L754.19,551.3L754.19,555.55L755.25,556.61L756.32,558.74L757.38,559.8L759.5,560.86L760.56,561.93L762.69,562.99L762.69,564.05L764.81,567.24L765.88,567.24L766.94,568.3L768,568.3L770.12,569.36L771.19,571.49L772.25,572.55L773.31,572.55L775.44,574.67L776.5,575.73L777.56,576.8L778.62,577.86L779.68,581.05L779.68,582.11L780.75,582.11L781.81,582.11L782.87,585.29L782.87,587.42L781.81,588.48L781.81,590.61L781.81,591.67L780.75,593.79L779.68,596.98L779.68,599.1L779.68,602.29L779.68,603.35L780.75,604.41L782.87,606.54L782.87,608.66L783.93,609.73L785,610.79L786.06,612.91L787.12,612.91L789.24,615.04L790.31,617.16L791.37,617.16L792.43,619.29L794.56,620.35L795.62,620.35L798.8,623.54L799.87,623.54L801.99,623.54L803.05,625.66L805.18,625.66L807.3,625.66L810.49,626.72L811.55,626.72L812.61,626.72L815.8,627.78L817.93,628.85L817.93,629.91L820.05,630.97L822.17,630.97L823.24,632.03L824.3,634.16L825.36,637.34L825.36,638.41L825.36,641.59L824.3,644.78L823.24,646.9L822.17,650.09L821.11,652.22L821.11,654.34L821.11,655.4L820.05,657.53L820.05,660.71L820.05,661.78L820.05,662.84L817.93,664.96L817.93,667.09L815.8,671.34L814.74,671.34L813.68,674.52L812.61,676.65L812.61,677.71L811.55,678.77L809.43,678.77L807.3,680.9L805.18,684.08L803.05,688.33L801.99,688.33L801.99,690.46L798.8,695.77L797.74,697.89L796.68,698.95L794.56,702.14L794.56,704.27L794.56,705.33L793.49,707.45L793.49,709.58L793.49,710.64L793.49,712.76L793.49,713.83L794.56,715.95L795.62,717.01L795.62,718.07L796.68,720.2L797.74,721.26L798.8,724.45L799.87,725.51L800.93,725.51L800.93,726.57L801.99,727.63L803.05,727.63L804.12,728.7L806.24,731.88L807.3,734.01L807.3,735.07L808.37,736.13L808.37,738.26L809.43,739.32L809.43,741.44L809.43,743.57L810.49,746.76L811.55,751L811.55,754.19L811.55,755.25L812.61,758.44L812.61,761.63L812.61,763.75L813.68,768L813.68,769.06L813.68,772.25L813.68,776.5L814.74,783.93L814.74,787.12L814.74,790.31L814.74,794.56L814.74,797.74L814.74,800.93L813.68,805.18L813.68,808.37L812.61,818.99L812.61,822.17L812.61,824.3L812.61,827.49L811.55,830.67L810.49,832.8L810.49,834.92L808.37,843.42L807.3,845.54L807.3,848.73L807.3,850.85L807.3,854.04L807.3,857.23L806.24,858.29L806.24,861.48L807.3,866.79L807.3,869.98L807.3,875.29L807.3,877.41L807.3,880.6L807.3,882.72L807.3,883.78L807.3,884.85L807.3,885.91L807.3,886.97L807.3,888.03L807.3,889.1L807.3,890.16L807.3,892.28L807.3,895.47L807.3,896.53L807.3,898.66L807.3,899.72L807.3,901.84L808.37,903.97L808.37,906.09L808.37,907.15L808.37,910.34L808.37,912.46L808.37,915.65L808.37,917.78" fill="none" stroke="#000000" style="-webkit-tap-highlight-color: rgba(0, 0, 0, 0); stroke-linecap: round; stroke-linejoin: round; stroke-width: 7;" /><path d="M807.3,900.78L807.3,903.97L807.3,905.03L807.3,909.28L807.3,914.59L808.37,922.02L808.37,931.59L809.43,935.83L809.43,940.08L809.43,946.46L809.43,951.77L810.49,957.08L810.49,962.39L810.49,965.58L811.55,974.07L811.55,977.26L811.55,980.45L812.61,983.63L812.61,986.82L812.61,991.07L812.61,994.26L812.61,997.44L811.55,1000.63L811.55,1007L811.55,1010.19L811.55,1017.63L811.55,1019.75L811.55,1021.88L811.55,1025.06L811.55,1027.19L811.55,1032.5L810.49,1038.87L810.49,1039.93L810.49,1042.06L809.43,1045.24L809.43,1048.43L809.43,1051.62L809.43,1054.8L808.37,1057.99L808.37,1061.18L807.3,1068.61L807.3,1071.8L806.24,1074.99L806.24,1077.11L806.24,1080.3L806.24,1081.36L807.3,1083.49L807.3,1087.73L807.3,1090.92L807.3,1096.23L807.3,1098.36L808.37,1100.48L808.37,1102.61L808.37,1103.67" fill="none" stroke="#000000" style="-webkit-tap-highlight-color: rgba(0, 0, 0, 0); stroke-linecap: round; stroke-linejoin: round; stroke-width: 7;" /><path d="M675.59,840.23L674.52,839.17L675.59,840.23L674.52,850.85L673.46,857.23L672.4,863.6L672.4,866.79L673.46,869.98L674.52,872.1L676.65,873.16" fill="none" stroke="#000000" style="-webkit-tap-highlight-color: rgba(0, 0, 0, 0); stroke-linecap: round; stroke-linejoin: round; stroke-width: 7;" /><path d="M677.71,839.17L676.65,839.17L677.71,840.23L678.77,840.23L680.9,840.23L685.15,841.29L687.27,841.29L689.39,841.29L690.46,841.29L691.52,840.23L692.58,841.29L693.64,841.29L696.83,842.36L696.83,843.42L696.83,846.61L696.83,850.85L696.83,855.1L696.83,859.35L696.83,864.66L696.83,869.98L696.83,875.29L696.83,883.78L696.83,888.03L696.83,889.1" fill="none" stroke="#000000" style="-webkit-tap-highlight-color: rgba(0, 0, 0, 0); stroke-linecap: round; stroke-linejoin: round; stroke-width: 7;" /><path d="M727.63,835.98L727.63,838.11L727.63,840.23L727.63,844.48L728.7,848.73L728.7,854.04L728.7,862.54L728.7,867.85L728.7,872.1L728.7,880.6L729.76,881.66" fill="none" stroke="#000000" style="-webkit-tap-highlight-color: rgba(0, 0, 0, 0); stroke-linecap: round; stroke-linejoin: round; stroke-width: 7;" /><path d="M728.7,837.05L729.76,837.05L731.88,837.05L735.07,835.98L738.26,837.05L739.32,837.05L742.51,837.05L743.57,837.05L744.63,837.05L746.76,838.11L747.82,838.11L748.88,840.23L748.88,843.42L748.88,850.85L748.88,856.17L748.88,861.48L748.88,866.79L748.88,873.16L749.94,878.47L751,881.66L751,885.91L751,888.03" fill="none" stroke="#000000" style="-webkit-tap-highlight-color: rgba(0, 0, 0, 0); stroke-linecap: round; stroke-linejoin: round; stroke-width: 7;" /><path d="M43.55,971.95L41.43,973.01L40.37,974.07L40.37,973.01L42.49,973.01L46.74,974.07L49.93,975.14L53.11,977.26L57.36,979.39L60.55,980.45L65.86,982.57L70.11,983.63L75.42,985.76L80.73,987.88L87.1,990.01L92.41,992.13L99.85,995.32L104.1,997.44L107.29,999.57L112.6,1003.82L115.78,1007L118.97,1009.13L123.22,1011.25L126.41,1013.38L130.66,1014.44L135.97,1016.56L142.34,1020.81L146.59,1024L149.78,1026.12L154.02,1029.31L162.52,1033.56L167.83,1036.75L173.15,1042.06L176.33,1045.24L181.64,1050.56L186.95,1053.74L193.33,1057.99L197.58,1060.12L202.89,1062.24L209.26,1064.37L215.63,1066.49L224.13,1067.55L230.51,1068.61L239,1070.74L244.32,1070.74L249.63,1070.74L256,1071.8L261.31,1073.93L265.56,1074.99L269.81,1078.17L274.06,1080.3L278.31,1083.49L283.62,1085.61L286.8,1087.73L291.05,1090.92L298.49,1093.05L305.93,1096.23L312.3,1098.36L318.67,1100.48L323.98,1102.61L328.23,1104.73L333.54,1106.85L335.67,1108.98L339.92,1111.1L340.98,1112.17L346.29,1115.35L349.48,1116.41L353.73,1118.54L356.91,1119.6L361.16,1121.73L368.6,1124.91L372.85,1127.04L377.1,1128.1L382.41,1129.16L390.9,1131.29L398.34,1132.35L406.84,1132.35L413.21,1133.41L418.52,1133.41L424.9,1133.41L429.15,1134.47L433.39,1135.54L437.64,1136.6L444.02,1137.66L449.33,1137.66L453.58,1137.66L457.83,1137.66L462.07,1137.66L466.32,1138.72L468.45,1138.72L483.32,1137.66L484.38,1137.66L495,1136.6L501.38,1136.6L505.63,1136.6L509.88,1136.6L512,1137.66L515.19,1137.66L518.37,1138.72L521.56,1139.78L527.93,1141.91L532.18,1144.03L535.37,1145.1L538.56,1147.22L541.74,1148.28L544.93,1148.28L548.12,1149.34L551.3,1150.41L554.49,1151.47L559.8,1151.47L561.93,1152.53L565.11,1152.53L568.3,1153.59L573.61,1153.59L577.86,1154.66L584.23,1155.72L589.54,1156.78L594.85,1157.84L600.17,1158.9L609.73,1159.97L615.04,1161.03L627.78,1163.15L634.16,1164.22L640.53,1165.28L644.78,1166.34L647.97,1166.34L653.28,1165.28L661.78,1164.22L666.02,1163.15L670.27,1162.09L673.46,1161.03L677.71,1159.97L680.9,1158.9L684.08,1156.78L686.21,1155.72L688.33,1153.59L690.46,1151.47L691.52,1150.41L692.58,1150.41L693.64,1150.41L694.71,1149.34L696.83,1150.41L697.89,1150.41L698.95,1150.41L701.08,1150.41L702.14,1151.47L704.27,1151.47L708.51,1152.53L711.7,1152.53L713.83,1153.59L717.01,1153.59L719.14,1154.66L725.51,1156.78L729.76,1157.84L732.95,1159.97L736.13,1162.09L739.32,1163.15L743.57,1165.28L747.82,1167.4L753.13,1169.53L758.44,1171.65L769.06,1175.9L774.37,1178.02L777.56,1179.09L779.68,1180.15L782.87,1181.21L786.06,1181.21L787.12,1181.21L790.31,1181.21L793.49,1181.21L800.93,1181.21L804.12,1181.21L807.3,1181.21L811.55,1181.21L814.74,1181.21L818.99,1181.21L822.17,1181.21L824.3,1182.27L827.49,1183.34L834.92,1185.46L839.17,1185.46L844.48,1186.52L850.85,1186.52L857.23,1187.59L862.54,1188.65L868.91,1189.71L873.16,1190.77L878.47,1192.9L892.28,1195.02L898.66,1195.02L905.03,1196.08L911.4,1197.15L915.65,1198.21L920.96,1200.33L925.21,1200.33L930.52,1201.39L935.83,1202.46L946.46,1203.52L951.77,1204.58L956.02,1205.64L961.33,1206.71L966.64,1206.71L970.89,1206.71L980.45,1207.77L982.57,1207.77L992.13,1208.83L1005.94,1209.89L1011.25,1208.83L1014.44,1208.83L1017.63,1208.83" fill="none" stroke="#000000" style="-webkit-tap-highlight-color: rgba(0, 0, 0, 0); stroke-linecap: round; stroke-linejoin: round; stroke-width: 7;" /><path d="M1020.81,589.54L1020.81,588.48L1020.81,585.29L1021.88,582.11L1022.94,579.98L1022.94,578.92L1022.94,579.98L1020.81,584.23L1018.69,590.61L1009.13,606.54L1004.88,615.04L1000.63,622.47L997.44,627.78L995.32,632.03L993.2,635.22L992.13,638.41L991.07,641.59L990.01,645.84L987.88,653.28L986.82,657.53L985.76,661.78L984.7,667.09L983.63,671.34L982.57,676.65L981.51,681.96L980.45,686.21L980.45,691.52L978.32,702.14L977.26,707.45L977.26,712.76L976.2,718.07L976.2,724.45L975.14,729.76L973.01,736.13L973.01,743.57L973.01,749.94L971.95,759.5L971.95,770.12L973.01,777.56L973.01,785L971.95,791.37L971.95,797.74L971.95,805.18L971.95,811.55L970.89,816.86L970.89,823.24L970.89,842.36L969.83,848.73L969.83,856.17L969.83,861.48L969.83,866.79L969.83,872.1L969.83,878.47L969.83,885.91L968.76,896.53L968.76,901.84L967.7,907.15L967.7,914.59L967.7,919.9L966.64,927.34L966.64,936.9L966.64,943.27L966.64,962.39L966.64,969.83L966.64,977.26L966.64,985.76L966.64,993.2L967.7,1001.69L967.7,1010.19L968.76,1019.75L968.76,1030.37L970.89,1041L971.95,1055.87L973.01,1064.37L973.01,1072.86L974.07,1081.36L975.14,1087.73L975.14,1094.11L976.2,1100.48L976.2,1106.85L977.26,1113.23L979.39,1127.04L980.45,1132.35L981.51,1137.66L982.57,1142.97L983.63,1149.34L984.7,1154.66L985.76,1158.9L985.76,1164.22L985.76,1170.59L986.82,1183.34L987.88,1187.59L987.88,1191.83L987.88,1196.08L988.95,1199.27L988.95,1204.58L988.95,1209.89L990.01,1215.2L990.01,1221.58L988.95,1223.7" fill="none" stroke="#000000" style="-webkit-tap-highlight-color: rgba(0, 0, 0, 0); stroke-linecap: round; stroke-linejoin: round; stroke-width: 7;" /><path d="M604.41,979.39L600.17,978.32L598.04,979.39L594.85,980.45L592.73,982.57L590.61,983.63L589.54,985.76L589.54,988.95L590.61,993.2L592.73,995.32L595.92,997.44L599.1,998.51L603.35,999.57L608.66,999.57L612.91,999.57L623.54,1001.69L628.85,1002.76L634.16,1001.69L639.47,1001.69L644.78,1000.63L650.09,1000.63L655.4,1000.63L658.59,999.57L662.84,998.51L667.09,997.44L676.65,995.32L680.9,994.26L685.15,992.13L689.39,992.13L692.58,992.13L695.77,991.07L706.39,988.95L709.58,988.95L712.76,988.95L714.89,988.95L719.14,987.88L722.32,987.88L725.51,987.88L729.76,987.88L732.95,986.82L736.13,985.76L740.38,985.76L745.69,985.76L748.88,985.76L752.07,986.82L755.25,986.82L759.5,986.82L762.69,986.82L765.88,987.88L769.06,987.88L774.37,985.76L777.56,984.7L785,983.63L788.18,983.63" fill="none" stroke="#000000" style="-webkit-tap-highlight-color: rgba(0, 0, 0, 0); stroke-linecap: round; stroke-linejoin: round; stroke-width: 7;" /><path d="M772.25,936.9L773.31,936.9L774.37,939.02L776.5,939.02L779.68,941.15L785,942.21L788.18,942.21L792.43,944.33L793.49,944.33L796.68,943.27" fill="none" stroke="#000000" style="-webkit-tap-highlight-color: rgba(0, 0, 0, 0); stroke-linecap: round; stroke-linejoin: round; stroke-width: 7;" /><path d="M504.56,967.7L503.5,967.7L503.5,966.64L505.63,964.51L509.88,963.45L514.12,962.39L519.44,961.33L532.18,959.2L539.62,957.08L547.05,954.95L553.43,954.95L559.8,952.83L566.17,951.77L571.49,949.64L577.86,948.58L583.17,947.52L590.61,946.46L600.17,946.46L605.48,946.46L610.79,945.39L615.04,946.46L619.29,943.27" fill="none" stroke="#000000" style="-webkit-tap-highlight-color: rgba(0, 0, 0, 0); stroke-linecap: round; stroke-linejoin: round; stroke-width: 7;" /><path d="M500.32,985.76L500.32,986.82L500.32,987.88L500.32,988.95L499.25,988.95L498.19,990.01" fill="none" stroke="#000000" style="-webkit-tap-highlight-color: rgba(0, 0, 0, 0); stroke-linecap: round; stroke-linejoin: round; stroke-width: 7;" /><path d="M454.64,982.57L453.58,981.51L454.64,981.51L456.76,978.32L458.89,976.2L466.32,968.76L470.57,965.58L474.82,962.39L479.07,960.27L483.32,960.27L486.51,960.27L489.69,960.27L493.94,960.27L500.32,962.39L504.56,961.33L507.75,961.33L509.88,961.33L513.06,962.39L515.19,962.39L518.37,961.33" fill="none" stroke="#000000" style="-webkit-tap-highlight-color: rgba(0, 0, 0, 0); stroke-linecap: round; stroke-linejoin: round; stroke-width: 7;" /></svg>