<?xml version="1.0" encoding="utf-8" ?>
<svg baseProfile="full" height="2454" version="1.1" width="3832" xmlns="http://www.w3.org/2000/svg" xmlns:ev="http://www.w3.org/2001/xml-events" xmlns:xlink="http://www.w3.org/1999/xlink"><defs /><path d="M230.5,584.88L230.5,582L230.5,579.12L227.62,584.88L227.62,590.65L224.73,599.29L221.85,605.05L218.97,607.93L216.09,610.82L216.09,616.58L213.21,619.46L213.21,630.98L213.21,636.75L213.21,645.39L216.09,654.03L216.09,665.56L216.09,677.08L216.09,691.49L216.09,700.13L216.09,705.89L216.09,708.78L218.97,714.54L218.97,717.42L218.97,720.3L218.97,726.06L218.97,728.94L218.97,731.83L218.97,734.71L218.97,737.59L216.09,743.35L213.21,749.11L213.21,757.76L210.33,763.52L207.45,769.28L198.8,789.45L198.8,792.33L198.8,798.09L195.92,803.86L195.92,809.62L193.04,818.26L193.04,824.02L190.16,826.91L190.16,832.67L190.16,838.43L187.28,844.19L184.4,849.95L181.52,858.6L181.52,861.48L178.63,864.36L178.63,870.12L178.63,873L175.75,878.77L175.75,884.53L175.75,890.29L175.75,896.05L175.75,904.7L175.75,907.58L175.75,913.34L172.87,927.75L172.87,933.51L172.87,942.15L172.87,945.03L169.99,950.8L169.99,962.32L169.99,968.08L169.99,970.97L167.11,973.85L164.23,982.49L161.35,988.25L161.35,991.13L158.47,994.02L152.7,999.78L149.82,1002.66L144.06,1011.3L138.3,1019.95L135.42,1028.59L132.54,1037.23L129.65,1040.11L121.01,1043L112.37,1040.11L109.49,1043L103.72,1048.76L100.84,1048.76L92.2,1057.4L83.55,1063.16L77.79,1068.93L72.03,1071.81L66.27,1077.57L57.62,1083.33L48.98,1089.09L25.93,1106.38L23.05,1109.26L11.52,1115.03L5.76,1123.67L0,1129.43" fill="none" stroke="#000000" style="-webkit-tap-highlight-color: rgba(0, 0, 0, 0); stroke-linecap: round; stroke-linejoin: round; stroke-width: 19;" /><path d="M270.83,553.19L270.83,556.07L270.83,558.95L273.71,558.95L279.48,558.95L288.12,558.95L299.65,558.95L311.17,558.95L319.81,561.83L331.34,564.72L354.39,567.6L365.91,570.48L377.44,573.36L386.08,576.24L400.49,582L412.01,584.88L426.42,587.77L435.06,593.53L446.59,596.41L455.23,599.29L475.4,605.05L484.04,605.05L492.69,605.05L498.45,605.05L507.09,607.93L512.85,610.82L527.26,613.7L535.9,616.58L544.55,616.58L550.31,616.58L558.95,616.58L564.72,616.58L567.6,616.58L573.36,613.7L579.12,613.7L590.65,613.7L599.29,610.82L605.05,610.82L610.82,610.82L619.46,610.82L625.22,610.82L636.75,610.82L645.39,610.82L656.91,610.82L665.56,613.7" fill="none" stroke="#000000" style="-webkit-tap-highlight-color: rgba(0, 0, 0, 0); stroke-linecap: round; stroke-linejoin: round; stroke-width: 19;" /><path d="M619.46,605.05L622.34,605.05L633.86,602.17L648.27,596.41L662.68,593.53L674.2,590.65L688.61,587.77L697.25,584.88L711.66,582L720.3,582L734.71,582L743.35,584.88L749.11,584.88L754.88,584.88L757.76,584.88L763.52,584.88L769.28,584.88L780.81,587.77L786.57,587.77L789.45,584.88L795.21,587.77L798.09,587.77L800.97,590.65L803.86,593.53L809.62,599.29L812.5,602.17L815.38,605.05L818.26,610.82L821.14,619.46L824.02,625.22L824.02,628.1L826.91,630.98L826.91,633.86L826.91,636.75L829.79,639.63L829.79,642.51L835.55,651.15L835.55,654.03L838.43,656.91L841.31,656.91L847.07,662.68L849.95,662.68L855.72,662.68L858.6,665.56L864.36,665.56L870.12,665.56L875.89,665.56L884.53,665.56L893.17,668.44L904.7,671.32L907.58,671.32L921.98,671.32" fill="none" stroke="#000000" style="-webkit-tap-highlight-color: rgba(0, 0, 0, 0); stroke-linecap: round; stroke-linejoin: round; stroke-width: 19;" /><path d="M901.82,679.96L904.7,679.96L907.58,677.08L921.98,674.2L936.39,668.44L947.92,665.56L956.56,659.8L985.37,648.27L991.13,645.39L1002.66,645.39L1008.42,645.39L1017.06,645.39L1025.71,645.39L1034.35,645.39L1043,645.39L1051.64,645.39L1071.81,639.63L1080.45,639.63L1089.09,636.75L1097.74,636.75L1106.38,630.98L1126.55,628.1L1135.19,625.22L1149.6,625.22L1155.36,625.22L1164.01,628.1L1169.77,628.1L1175.53,630.98L1184.17,630.98L1187.06,630.98L1192.82,633.86L1198.58,633.86L1212.99,636.75L1221.63,636.75L1238.92,636.75L1247.56,636.75L1256.2,639.63L1264.85,642.51L1276.37,645.39L1287.9,645.39L1302.3,648.27L1316.71,651.15L1357.05,654.03" fill="none" stroke="#000000" style="-webkit-tap-highlight-color: rgba(0, 0, 0, 0); stroke-linecap: round; stroke-linejoin: round; stroke-width: 19;" /><path d="M1348.4,645.39L1357.05,648.27L1365.69,648.27L1377.22,651.15L1408.91,654.03L1426.2,654.03L1440.6,651.15L1455.01,648.27L1469.41,645.39L1483.82,642.51L1495.34,639.63L1509.75,639.63L1541.44,639.63L1547.21,639.63L1544.32,639.63" fill="none" stroke="#000000" style="-webkit-tap-highlight-color: rgba(0, 0, 0, 0); stroke-linecap: round; stroke-linejoin: round; stroke-width: 19;" /><path d="M1521.28,584.88L1515.51,570.48L1515.51,576.24L1515.51,584.88L1512.63,605.05L1506.87,613.7L1503.99,622.34L1501.11,633.86L1498.23,645.39L1495.34,656.91L1492.46,671.32L1492.46,685.73L1495.34,700.13L1498.23,726.06L1498.23,737.59L1498.23,746.23L1498.23,757.76L1498.23,766.4L1498.23,772.16L1501.11,783.69L1501.11,792.33L1506.87,809.62L1509.75,821.14L1515.51,832.67L1518.39,841.31L1521.28,847.07L1521.28,861.48L1524.16,873L1527.04,890.29L1527.04,896.05L1532.8,916.22L1532.8,927.75L1532.8,939.27L1535.68,947.92L1538.56,970.97L1544.32,994.02L1547.21,1025.71L1544.32,1028.59L1544.32,1043L1544.32,1054.52L1541.44,1063.16L1538.56,1071.81L1535.68,1080.45L1535.68,1089.09L1532.8,1100.62L1532.8,1106.38L1529.92,1115.03L1529.92,1132.31L1529.92,1140.96L1529.92,1149.6L1529.92,1158.24L1529.92,1166.89L1529.92,1172.65L1529.92,1181.29L1532.8,1189.94L1532.8,1207.22L1529.92,1227.39L1529.92,1236.04L1529.92,1244.68L1527.04,1253.32L1524.16,1264.85L1524.16,1273.49L1524.16,1279.25L1524.16,1287.9L1524.16,1308.07L1524.16,1319.59L1524.16,1328.23L1524.16,1336.88L1527.04,1345.52L1527.04,1354.17L1527.04,1362.81L1527.04,1371.45L1527.04,1382.98L1524.16,1388.74L1524.16,1394.5L1524.16,1397.38L1521.28,1403.15L1518.39,1408.91L1515.51,1414.67L1515.51,1420.43L1512.63,1423.31L1512.63,1426.2L1506.87,1440.6L1503.99,1446.36L1501.11,1455.01L1498.23,1460.77L1498.23,1466.53L1498.23,1472.29L1498.23,1480.94L1495.34,1492.46L1495.34,1506.87L1495.34,1521.28L1498.23,1532.8" fill="none" stroke="#000000" style="-webkit-tap-highlight-color: rgba(0, 0, 0, 0); stroke-linecap: round; stroke-linejoin: round; stroke-width: 19;" /><path d="M1518.39,558.95L1518.39,547.43L1521.28,544.55L1524.16,541.67L1532.8,538.78L1547.21,541.67L1564.49,541.67L1581.78,538.78L1596.19,538.78L1616.35,538.78L1633.64,538.78L1671.1,535.9L1691.27,535.9L1705.67,535.9L1720.08,535.9L1728.72,541.67L1740.25,544.55L1751.77,550.31L1763.3,556.07L1774.82,558.95L1789.23,564.72L1806.51,570.48L1812.28,573.36L1820.92,579.12L1826.68,582L1832.45,584.88L1841.09,584.88L1843.97,587.77L1849.73,596.41L1852.61,599.29L1858.38,602.17L1864.14,605.05L1869.9,607.93L1878.54,610.82L1884.31,610.82L1892.95,610.82L1898.71,610.82L1910.24,613.7L1913.12,613.7L1918.88,619.46L1921.76,619.46L1924.64,619.46L1927.52,622.34L1930.41,625.22L1933.29,628.1L1936.17,628.1L1936.17,630.98L1941.93,630.98L1944.81,630.98" fill="none" stroke="#000000" style="-webkit-tap-highlight-color: rgba(0, 0, 0, 0); stroke-linecap: round; stroke-linejoin: round; stroke-width: 19;" /><path d="M1927.52,607.93L1924.64,605.05L1924.64,602.17L1933.29,593.53L1950.57,576.24L1962.1,567.6L1970.74,564.72L1982.27,558.95L1993.79,556.07L2005.32,550.31L2013.96,547.43L2025.49,547.43L2039.89,547.43L2051.42,550.31L2062.94,550.31L2074.47,553.19L2080.23,553.19L2085.99,556.07L2097.52,558.95L2120.57,561.83L2137.85,564.72L2146.5,567.6L2155.14,570.48L2166.66,570.48L2178.19,570.48L2189.71,567.6L2201.24,567.6L2212.76,567.6L2227.17,567.6L2267.51,570.48L2279.03,573.36L2287.68,573.36L2296.32,570.48L2302.08,573.36L2310.72,576.24L2319.37,576.24L2328.01,579.12L2336.66,579.12L2353.94,579.12L2368.35,582L2379.87,582L2391.4,584.88L2402.92,587.77L2414.45,590.65L2425.97,590.65L2434.62,593.53L2454.78,596.41L2463.43,599.29L2472.07,602.17L2483.6,605.05L2492.24,605.05L2506.65,605.05L2518.17,605.05L2532.58,602.17L2544.1,602.17L2552.75,602.17L2570.03,602.17L2581.56,605.05L2590.2,605.05L2601.73,605.05L2613.25,605.05L2621.89,607.93L2630.54,610.82L2636.3,613.7L2644.94,610.82L2659.35,613.7L2665.11,610.82L2673.76,610.82L2679.52,610.82L2688.16,610.82L2693.92,610.82L2705.45,610.82L2714.09,610.82L2722.74,613.7L2742.91,616.58L2751.55,619.46L2760.19,622.34L2771.72,622.34L2786.12,625.22L2797.65,625.22L2809.17,625.22L2812.05,628.1L2820.7,628.1L2837.98,630.98L2846.63,630.98L2858.15,633.86L2866.8,633.86L2875.44,633.86L2901.37,636.75L2907.13,639.63L2912.9,642.51" fill="none" stroke="#000000" style="-webkit-tap-highlight-color: rgba(0, 0, 0, 0); stroke-linecap: round; stroke-linejoin: round; stroke-width: 19;" /><path d="M2861.03,625.22L2861.03,622.34L2855.27,625.22L2849.51,630.98L2843.75,636.75L2840.87,639.63L2832.22,654.03L2829.34,659.8L2832.22,662.68L2835.1,665.56L2840.87,668.44L2846.63,668.44L2855.27,665.56L2861.03,665.56L2881.2,665.56L2886.97,668.44L2895.61,668.44L2904.25,668.44L2912.9,671.32L2924.42,671.32L2933.06,671.32L2941.71,668.44L2950.35,668.44L2967.64,671.32L2973.4,671.32L2982.05,671.32L2990.69,671.32L2999.33,671.32L3010.86,671.32L3022.38,671.32L3031.03,668.44L3045.43,668.44L3056.96,668.44L3065.6,668.44L3077.12,668.44L3085.77,668.44L3094.41,668.44L3103.06,668.44L3117.46,671.32L3120.34,671.32L3128.99,674.2L3137.63,674.2L3149.15,677.08L3160.68,677.08L3166.44,679.96L3177.97,679.96L3186.61,679.96L3198.14,677.08L3206.78,677.08L3218.3,679.96L3232.71,679.96L3238.47,679.96L3247.12,677.08L3252.88,677.08L3258.64,677.08L3261.52,677.08L3267.28,677.08L3275.93,679.96L3287.45,682.85L3290.33,685.73L3298.98,691.49L3307.62,694.37" fill="none" stroke="#000000" style="-webkit-tap-highlight-color: rgba(0, 0, 0, 0); stroke-linecap: round; stroke-linejoin: round; stroke-width: 19;" /><path d="M3296.1,700.13L3298.98,700.13L3310.5,700.13L3322.03,700.13L3330.67,705.89L3342.2,705.89L3350.84,708.78L3359.48,711.66L3376.77,714.54L3388.29,720.3L3396.94,723.18L3402.7,726.06L3408.46,731.83L3414.23,734.71L3422.87,743.35L3425.75,746.23L3431.51,754.88L3440.16,760.64L3454.56,769.28L3463.21,769.28L3468.97,772.16L3474.73,775.04L3483.37,777.92L3492.02,783.69L3497.78,783.69L3509.31,783.69L3512.19,783.69L3535.24,786.57L3546.76,789.45L3555.4,789.45L3564.05,789.45L3584.22,792.33L3592.86,789.45L3604.38,795.21L3615.91,795.21L3624.55,795.21L3630.32,795.21L3636.08,795.21L3644.72,792.33L3650.48,792.33L3653.37,792.33L3662.01,792.33L3667.77,792.33L3670.65,789.45L3685.06,789.45L3690.82,786.57L3699.46,783.69L3710.99,780.81L3722.51,777.92L3731.16,775.04L3736.92,772.16L3745.56,772.16L3800.31,763.52L3817.59,763.52" fill="none" stroke="#000000" style="-webkit-tap-highlight-color: rgba(0, 0, 0, 0); stroke-linecap: round; stroke-linejoin: round; stroke-width: 19;" /><path d="M2837.98,659.8L2840.87,668.44L2843.75,703.01L2849.51,714.54L2852.39,723.18L2855.27,731.83L2861.03,740.47L2863.92,754.88L2866.8,760.64L2872.56,772.16L2875.44,780.81L2884.08,795.21L2886.97,800.97L2886.97,809.62L2886.97,812.5L2889.85,824.02L2895.61,835.55L2898.49,847.07L2901.37,849.95L2901.37,855.72L2907.13,878.77L2912.9,887.41L2915.78,896.05L2924.42,898.94L2924.42,904.7L2938.83,933.51L2941.71,942.15L2944.59,942.15L2947.47,962.32L2947.47,973.85L2944.59,985.37L2944.59,994.02" fill="none" stroke="#000000" style="-webkit-tap-highlight-color: rgba(0, 0, 0, 0); stroke-linecap: round; stroke-linejoin: round; stroke-width: 19;" /><path d="M1947.69,654.03L1947.69,656.91L1947.69,659.8L1947.69,674.2L1947.69,697.25L1950.57,723.18L1947.69,772.16L1944.81,789.45L1947.69,818.26L1950.57,844.19L1950.57,870.12L1950.57,898.94L1953.46,942.15L1956.34,965.2L1959.22,982.49L1964.98,996.9L1964.98,1019.95L1964.98,1048.76L1962.1,1071.81L1962.1,1086.21L1962.1,1112.14L1964.98,1138.08L1967.86,1146.72L1970.74,1169.77L1973.62,1189.94L1976.51,1207.22L1976.51,1224.51L1976.51,1241.8L1973.62,1261.97L1973.62,1270.61L1973.62,1299.42L1976.51,1313.83L1976.51,1325.35L1976.51,1331.12L1979.39,1342.64L1982.27,1348.4L1982.27,1357.05L1982.27,1362.81L1985.15,1374.33L1988.03,1382.98L1988.03,1385.86L1993.79,1391.62L1993.79,1394.5L1999.55,1411.79L1999.55,1414.67L1999.55,1408.91L1999.55,1417.55L1996.67,1434.84" fill="none" stroke="#000000" style="-webkit-tap-highlight-color: rgba(0, 0, 0, 0); stroke-linecap: round; stroke-linejoin: round; stroke-width: 19;" /><path d="M893.17,705.89L890.29,694.37L890.29,685.73L890.29,682.85L893.17,682.85L893.17,679.96L904.7,700.13L907.58,717.42L913.34,760.64L913.34,786.57L919.1,812.5L919.1,835.55L919.1,858.6L921.98,881.65L921.98,907.58L924.87,930.63L924.87,950.8L924.87,968.08L924.87,999.78L924.87,1031.47L921.98,1051.64L921.98,1063.16L924.87,1074.69L924.87,1086.21L927.75,1103.5L927.75,1126.55L927.75,1146.72L930.63,1187.06L927.75,1198.58L927.75,1212.99L927.75,1227.39L927.75,1244.68L927.75,1264.85L927.75,1276.37L927.75,1285.02L930.63,1299.42L930.63,1308.07L927.75,1325.35L927.75,1336.88L927.75,1345.52L927.75,1351.28L927.75,1359.93L927.75,1365.69L927.75,1380.1L927.75,1394.5L924.87,1388.74L924.87,1403.15L927.75,1414.67" fill="none" stroke="#000000" style="-webkit-tap-highlight-color: rgba(0, 0, 0, 0); stroke-linecap: round; stroke-linejoin: round; stroke-width: 19;" /><path d="M328.46,711.66L325.58,723.18L325.58,743.35L328.46,766.4L331.34,795.21L339.98,826.91L342.86,849.95L348.63,878.77L354.39,910.46L363.03,936.39L374.56,956.56L383.2,973.85L388.96,985.37L400.49,1011.3L403.37,1028.59L406.25,1043L412.01,1051.64L417.77,1060.28L423.54,1068.93L429.3,1077.57L429.3,1091.98L432.18,1103.5L435.06,1115.03L435.06,1120.79L437.94,1123.67L440.82,1132.31L443.71,1143.84L443.71,1155.36L446.59,1169.77L449.47,1181.29L458.11,1204.34L460.99,1215.87L466.75,1230.27L469.64,1241.8L472.52,1256.2L475.4,1270.61L481.16,1285.02L481.16,1302.3L484.04,1313.83L486.92,1322.47L486.92,1357.05L486.92,1368.57L486.92,1380.1L486.92,1400.26L489.8,1411.79L495.57,1417.55" fill="none" stroke="#000000" style="-webkit-tap-highlight-color: rgba(0, 0, 0, 0); stroke-linecap: round; stroke-linejoin: round; stroke-width: 19;" /><path d="M2100.4,610.82L2100.4,613.7L2097.52,613.7L2097.52,619.46L2097.52,622.34L2088.87,639.63L2085.99,648.27L2080.23,659.8L2077.35,671.32L2071.58,685.73L2068.7,700.13L2065.82,714.54L2062.94,726.06L2060.06,737.59L2051.42,763.52L2048.54,775.04L2042.77,786.57L2039.89,795.21L2037.01,806.74L2034.13,818.26L2031.25,832.67L2028.37,847.07L2031.25,861.48L2031.25,875.89L2034.13,890.29L2034.13,901.82L2037.01,924.87L2037.01,945.03L2037.01,962.32L2039.89,979.61L2039.89,988.25L2042.77,1008.42L2039.89,1054.52L2037.01,1068.93L2034.13,1089.09L2034.13,1109.26L2034.13,1123.67L2034.13,1143.84L2034.13,1155.36L2034.13,1166.89L2034.13,1175.53L2034.13,1189.94L2034.13,1204.34L2034.13,1210.11L2037.01,1215.87L2037.01,1224.51L2037.01,1233.15L2037.01,1250.44L2034.13,1261.97L2034.13,1273.49L2037.01,1299.42L2037.01,1316.71L2037.01,1336.88L2037.01,1348.4L2037.01,1357.05L2037.01,1368.57L2034.13,1380.1L2022.6,1403.15" fill="none" stroke="#000000" style="-webkit-tap-highlight-color: rgba(0, 0, 0, 0); stroke-linecap: round; stroke-linejoin: round; stroke-width: 19;" /><path d="M1803.63,668.44L1800.75,662.68L1800.75,665.56L1797.87,665.56L1794.99,668.44L1794.99,671.32L1794.99,674.2L1794.99,685.73L1803.63,723.18L1806.51,743.35L1809.4,763.52L1812.28,783.69L1818.04,800.97L1826.68,821.14L1832.45,844.19L1841.09,870.12L1852.61,916.22L1858.38,942.15L1861.26,965.2L1861.26,979.61L1861.26,991.13L1864.14,1014.18L1867.02,1028.59L1869.9,1045.88L1872.78,1066.05L1878.54,1086.21L1881.43,1094.86L1887.19,1109.26L1898.71,1135.19L1901.59,1152.48L1904.48,1164.01L1913.12,1187.06L1918.88,1204.34L1924.64,1227.39L1927.52,1236.04L1933.29,1244.68L1936.17,1267.73L1941.93,1285.02L1941.93,1296.54L1941.93,1313.83L1941.93,1328.23L1941.93,1339.76L1941.93,1357.05L1941.93,1362.81L1944.81,1380.1L1950.57,1397.38L1956.34,1420.43L1959.22,1434.84L1962.1,1440.6L1964.98,1452.13L1973.62,1457.89L1976.51,1460.77L1988.03,1466.53" fill="none" stroke="#000000" style="-webkit-tap-highlight-color: rgba(0, 0, 0, 0); stroke-linecap: round; stroke-linejoin: round; stroke-width: 19;" /><path d="M54.74,1469.41L51.86,1466.53L46.1,1457.89L46.1,1460.77L48.98,1463.65L57.62,1475.18L69.15,1486.7L86.44,1495.34L112.37,1501.11L121.01,1501.11L149.82,1501.11L195.92,1503.99L207.45,1503.99L233.38,1503.99L253.55,1501.11L270.83,1501.11L288.12,1501.11L299.65,1498.23L325.58,1498.23L342.86,1495.34L365.91,1501.11L377.44,1501.11L391.84,1498.23L409.13,1495.34L443.71,1489.58L466.75,1489.58L484.04,1486.7L501.33,1483.82L509.97,1480.94L547.43,1469.41L564.72,1466.53L579.12,1460.77L593.53,1455.01L607.93,1452.13L622.34,1446.36L639.63,1440.6L665.56,1431.96L671.32,1426.2L694.37,1420.43L723.18,1411.79L737.59,1408.91L751.99,1406.03L766.4,1403.15L789.45,1403.15L795.21,1400.26L812.5,1397.38L818.26,1394.5L838.43,1385.86L847.07,1385.86L855.72,1382.98L861.48,1382.98L870.12,1382.98L887.41,1382.98L893.17,1382.98L910.46,1377.22L919.1,1377.22L927.75,1377.22L953.68,1374.33L965.2,1374.33L976.73,1371.45L988.25,1371.45L1005.54,1371.45L1011.3,1371.45L1028.59,1374.33L1034.35,1374.33L1054.52,1374.33L1063.16,1374.33L1068.93,1374.33L1077.57,1374.33L1097.74,1377.22L1100.62,1377.22L1112.14,1380.1L1117.91,1380.1L1138.08,1385.86L1152.48,1388.74L1166.89,1394.5L1181.29,1397.38L1195.7,1400.26L1218.75,1403.15L1224.51,1403.15L1241.8,1406.03L1247.56,1408.91L1273.49,1411.79L1285.02,1417.55L1293.66,1420.43L1305.18,1423.31L1316.71,1426.2L1334,1431.96L1339.76,1434.84L1354.17,1440.6L1359.93,1443.48L1382.98,1452.13L1394.5,1455.01L1406.03,1460.77L1417.55,1463.65L1429.08,1469.41L1446.36,1478.06L1452.13,1480.94L1466.53,1489.58L1478.06,1492.46L1501.11,1498.23L1509.75,1501.11L1524.16,1503.99L1532.8,1506.87L1541.44,1512.63L1552.97,1524.16L1555.85,1524.16L1567.37,1532.8L1570.26,1532.8L1587.54,1541.44L1596.19,1544.32L1604.83,1547.21L1616.35,1552.97L1627.88,1558.73L1648.05,1564.49L1662.45,1570.26L1668.22,1573.14L1691.27,1578.9L1711.43,1584.66L1728.72,1584.66L1746.01,1584.66L1760.42,1584.66L1774.82,1581.78L1786.35,1581.78L1797.87,1578.9L1815.16,1573.14L1820.92,1573.14L1835.33,1567.37L1846.85,1567.37L1864.14,1564.49L1872.78,1564.49L1887.19,1564.49L1890.07,1561.61L1904.48,1561.61L1907.36,1561.61L1921.76,1555.85L1927.52,1555.85L1939.05,1550.09L1947.69,1547.21L1956.34,1544.32L1970.74,1538.56L1973.62,1538.56L1988.03,1532.8L1993.79,1532.8L2005.32,1527.04L2011.08,1524.16L2019.72,1521.28L2028.37,1515.51L2037.01,1509.75L2048.54,1503.99L2060.06,1498.23L2074.47,1495.34L2083.11,1492.46L2091.75,1486.7L2111.92,1478.06L2120.57,1475.18L2129.21,1469.41L2140.73,1466.53L2146.5,1463.65L2155.14,1457.89L2163.78,1455.01L2175.31,1449.25L2183.95,1443.48L2204.12,1434.84L2215.65,1429.08L2227.17,1423.31L2238.69,1414.67L2253.1,1406.03L2270.39,1400.26L2290.56,1394.5L2313.61,1385.86L2333.77,1374.33L2379.87,1351.28L2405.8,1336.88L2434.62,1325.35L2463.43,1313.83L2492.24,1302.3L2515.29,1293.66L2546.98,1285.02L2564.27,1273.49L2578.68,1264.85L2595.96,1253.32L2607.49,1244.68L2619.01,1238.92L2627.66,1233.15L2636.3,1227.39L2647.83,1218.75L2670.88,1201.46L2673.76,1201.46L2685.28,1192.82L2696.81,1187.06L2705.45,1181.29L2716.97,1175.53L2731.38,1169.77L2751.55,1161.12L2760.19,1158.24L2780.36,1146.72L2800.53,1132.31L2812.05,1123.67L2826.46,1117.91L2837.98,1112.14L2849.51,1106.38L2866.8,1100.62L2875.44,1094.86L2884.08,1091.98L2886.97,1089.09L2895.61,1086.21L2898.49,1086.21L2901.37,1083.33L2904.25,1083.33L2910.02,1077.57L2915.78,1074.69L2921.54,1068.93L2930.18,1066.05L2935.95,1063.16L2941.71,1060.28L2950.35,1051.64L2959,1048.76L2967.64,1043L2976.28,1037.23L2984.93,1031.47L2999.33,1019.95L3010.86,1011.3L3022.38,1002.66L3036.79,996.9L3056.96,985.37L3071.36,982.49L3085.77,976.73L3105.94,973.85L3123.22,968.08L3152.04,959.44L3169.32,953.68L3177.97,950.8L3203.9,936.39L3232.71,924.87L3250,919.1L3270.17,913.34L3290.33,907.58L3304.74,904.7L3322.03,898.94L3342.2,893.17L3356.6,890.29L3371.01,890.29L3391.18,887.41L3399.82,884.53L3411.34,884.53L3431.51,881.65L3437.28,878.77L3451.68,875.89L3466.09,875.89L3480.49,875.89L3494.9,875.89L3515.07,875.89L3532.35,873L3546.76,873L3561.17,875.89L3578.45,873L3604.38,873L3621.67,873L3638.96,873L3659.13,873L3687.94,873L3708.11,873L3725.4,875.89L3745.56,875.89L3765.73,878.77L3797.43,881.65L3814.71,887.41" fill="none" stroke="#000000" style="-webkit-tap-highlight-color: rgba(0, 0, 0, 0); stroke-linecap: round; stroke-linejoin: round; stroke-width: 19;" /></svg>