<?xml version="1.0" encoding="utf-8" ?>
<svg baseProfile="full" height="2454" version="1.1" width="3832" xmlns="http://www.w3.org/2000/svg" xmlns:ev="http://www.w3.org/2001/xml-events" xmlns:xlink="http://www.w3.org/1999/xlink"><defs /><path d="M20.31,1123.87L14,1117L7,1117L13,1101L13,1101L14,1098L0,1097L0,1090L7,1083L14,1070L20,1063L34,1056L41,1043L54,1036L61,1029L74,1022L88,1016L95,1016L102,1009L108,1009L122,1002L135,995L129,995L158,988L158,986L173,982L176,968L166,984L183,961L190,961L190,955L196,948L203,941L203,934L203,928L203,921" fill="none" stroke="#000000" style="-webkit-tap-highlight-color: rgba(0, 0, 0, 0); stroke-linecap: round; stroke-linejoin: round; stroke-width: 19;" /><path d="M203,914L203,907L203,907L203,900L203,928" fill="none" stroke="#000000" style="-webkit-tap-highlight-color: rgba(0, 0, 0, 0); stroke-linecap: round; stroke-linejoin: round; stroke-width: 19;" /><path d="M250.5,636.41L248,620L244,616L244,603L244,603L253,600L260,599L244,582L244,575L237,575L237,569L237,562L230,562L221,575L221,583L224,596L210,609L203,630L203,650L196,663L196,677L196,691L203,718L203,704L210,731L210,724L210,745L210,758L203,792L210,772L203,799L203,812L196,826L196,833L190,853L190,846L190,867L190,880" fill="none" stroke="#000000" style="-webkit-tap-highlight-color: rgba(0, 0, 0, 0); stroke-linecap: round; stroke-linejoin: round; stroke-width: 19;" /><path d="M190,921L190,941L190,894L190,907L203,968L196,955L190,948L203,961L210,968" fill="none" stroke="#000000" style="-webkit-tap-highlight-color: rgba(0, 0, 0, 0); stroke-linecap: round; stroke-linejoin: round; stroke-width: 19;" /><path d="M230.19,602.56L228,598L228,598L255,569L255,569L271,555L284,555L305,548L291,548L318,548L339,548L325,548L352,548L372,565L381,565L379,564L413,569L399,562L433,575L427,575L460,589L447,582L477,605L480,605L492,609L508,609L521,622L535,622L547,623L569,610L582,616L570,610L596,616L609,616L616,616L623,616L630,616L630,609L636,603L643,596L650,589L657,582L663,575L670,569L677,569L684,569L697,562L704,562L718,555L731,555L738,555L745,555L752,555L752,548L758,548L758,555L758,562L765,575L758,569L765,589L765,596L765,603L765,609L765,623L765,616L765,636L765,630L772,636L779,636L785,636L792,636L799,636L812,636L806,636L819,636L826,630L833,630L840,630L846,630L853,630L860,636L853,636L860,650L860,643L860,663L860,657L860,670L860,677L851,692L867,684L873,684L880,677L900,670L894,670L921,657L907,663L928,657L934,657L934,650L948,650L941,650L955,650L961,650L968,650L982,651L983,650L986,647L991,648L1016,643L992,649L1022,636L1034,642L1036,642L1047,646L1073,633L1056,630L1076,633L1083,633L1086,633L1086,635L1104,636L1110,636L1126,635L1125,642L1137,640L1133,640L1152,642L1158,642L1177,649L1170,652L1206,650L1192,649L1219,642L1219,642L1245,648L1239,649L1249,646L1266,650L1249,646L1277,643L1280,643L1290,642L1286,643L1290,642L1307,650L1327,650L1320,650L1341,650L1347,650L1370,637L1370,637L1377,639L1377,639L1395,630L1377,639L1408,623L1415,623L1429,616L1422,623L1435,616L1456,616L1442,616L1462,616L1449,616L1476,616L1469,616L1483,616L1483,609L1483,603L1483,596L1489,589L1496,582L1513,584L1531,568L1514,582L1531,568L1549,563L1535,567L1544,562L1558,562L1565,566L1582,561L1584,576L1574,557L1605,569L1589,562L1590,561L1611,569L1625,569L1638,569L1645,562L1632,569L1672,555L1664,570L1665,570L1658,572L1686,555L1679,555L1699,555L1693,555L1713,555L1726,562L1740,562L1720,562L1760,562L1781,562L1754,562L1774,562L1794,562L1808,562L1814,562L1801,562L1828,562L1842,572L1853,569L1842,572L1855,569L1862,570L1869,582L1867,578L1868,588L1863,612L1862,616L1870,601L1866,634L1869,638L1875,645L1882,644L1888,643L1893,642L1893,642L1909,636L1921,643L1923,630L1930,612L1930,610L1933,603L1932,596L1937,585L1941,577L1933,592L1953,571L1943,555L1957,555L1950,555L1963,555L1973,570L1967,569L1987,568L1992,562L1994,560L2016,556L1999,556L2021,556L2041,557L2041,557L2051,558L2054,558L2057,556L2078,555L2095,565L2095,565L2106,561L2104,561L2112,548L2119,548L2126,548L2133,548L2146,548L2139,548L2153,548L2160,548L2167,548L2173,548L2180,548L2187,548" fill="none" stroke="#000000" style="-webkit-tap-highlight-color: rgba(0, 0, 0, 0); stroke-linecap: round; stroke-linejoin: round; stroke-width: 19;" /><path d="M2200,548L2207,548L2221,555L2227,555L2255,555L2241,555L2268,555L2282,562L2288,562L2315,569L2302,569L2329,575L2343,575L2356,582L2391,589L2376,582L2397,589L2436,598L2399,590L2451,589L2431,597L2478,589L2464,589L2492,590L2492,590L2498,588L2505,588L2505,588L2505,589L2519,582L2525,582L2539,582L2532,582L2546,582L2552,582L2573,582L2559,582L2600,582L2579,582L2593,582L2621,589L2621,589L2621,589L2623,592L2640,582L2654,582L2668,582L2661,582L2674,582L2701,589L2681,582L2695,589L2688,589L2715,596L2708,589L2728,603L2722,596L2735,603L2742,603L2749,603L2756,603L2757,615L2769,609L2776,609L2783,609L2789,609L2796,609L2803,609L2810,609L2816,609L2803,616L2810,609L2829.99,629.64L2830,623L2823,623L2823,616L2823,609L2816,603L2816,596L2816,589L2816,603L2816,630L2823,643L2830,657L2844,691L2837,670L2850,704L2816,616L2877,738L2864,724L2857,718L2898,758L2891,745L2911,765L2918,772L2925,779L2932,785L2945,799L2938,792L2952,806L2959,819L2972,833L2965,826L2979,833L2986,833L2992,833L2999,833L3013,833L3006,833L3020,833L3026,833L3033,833L3040,833L3047,833L3053,840L3060,840L3067,840L3074,846L3080,846L3087,846L3094,853L3101,853L3108,853L3114,853L3128,853L3121,853L3135,853L3141,853L3148,853L3155,853L3170,845L3167,844L3172,845L3172,845L3189,846L3196,846L3202,846L3209,840L3229,840L3216,840L3243,840L3236,840L3260,833L3265,836L3269,840L3279,838L3280,838L3291,838L3294,838L3290,836L3314,831L3314,831L3321,830L3316,831L3328,830L3328,830L3345,826L3351,826L3365,826L3358,826L3372,819L3365,819L3385,819L3378,819L3392,812L3399,812L3405,812L3419,806L3433,806L3439,806L3453,806L3446,806L3473,806L3460,806L3480,806L3487,806L3493,806L3507,799L3514,799L3527,799L3534,792L3548,792L3554,792" fill="none" stroke="#000000" style="-webkit-tap-highlight-color: rgba(0, 0, 0, 0); stroke-linecap: round; stroke-linejoin: round; stroke-width: 19;" /><path d="M3560,774L3575,785L3588,785L3581,785L3595,785L3602,785L3609,785L3615,785L3636,779L3629,779L3622,779L3642,772L3649,772L3676,757L3663,772L3656,772L3683,758L3686,758L3686,758L3710,758L3717,758L3758,758L3730,758L3744,758L3771,758L3798,758L3785,758L3764,758L3818,758L3825,758L3805,758" fill="none" stroke="#000000" style="-webkit-tap-highlight-color: rgba(0, 0, 0, 0); stroke-linecap: round; stroke-linejoin: round; stroke-width: 19;" /><path d="M2857.07,670.26" fill="none" stroke="#000000" style="-webkit-tap-highlight-color: rgba(0, 0, 0, 0); stroke-linecap: round; stroke-linejoin: round; stroke-width: 19;" /><path d="M3812,758L3798,752" fill="none" stroke="#000000" style="-webkit-tap-highlight-color: rgba(0, 0, 0, 0); stroke-linecap: round; stroke-linejoin: round; stroke-width: 19;" /><path d="M2863,664L2850,657L2850,650L2844,643L2844,636L2871,643L2857,636L2877,660L2898,657L2918,657L2938,663L2952,663L2959,663L2992,662L3002,662L2979,662L3020,657L3060,657L3047,657L3033,657L3080,657L3128,663L3094,657L3135,670L3114,663L3148,670L3141,670L3162,670L3155,670L3169,670L3196,677L3209,677L3182,677L3223,677L3263,691L3236,684L3250,684L3277,697L3290,704L3304,704L3317,711L3331,718L3351,724L3345,718L3365,731L3372,738L3392,745L3378,738L3399,752L3405,752L3412,752L3419,758L3426,765" fill="none" stroke="#000000" style="-webkit-tap-highlight-color: rgba(0, 0, 0, 0); stroke-linecap: round; stroke-linejoin: round; stroke-width: 19;" /><path d="M3433,765L3439,772L3446,772L3453,772L3460,772L3460,779L3466,779L3473,779L3480,779L3493,779L3500,772L3487,779L3507,772L3521,772L3534,773L3527,773L3540,774L3553,774L3548,774L3564,772L3570,770L3568,772L3575,785L3570,771" fill="none" stroke="#000000" style="-webkit-tap-highlight-color: rgba(0, 0, 0, 0); stroke-linecap: round; stroke-linejoin: round; stroke-width: 19;" /><path d="M3771.07,832.75L3764,826L3771,826L3764,819L3758,812L3744,799L3744,792L3751,806" fill="none" stroke="#000000" style="-webkit-tap-highlight-color: rgba(0, 0, 0, 0); stroke-linecap: round; stroke-linejoin: round; stroke-width: 19;" /><path d="M3737,792L3737,785L3744,779L3751,779L3758,785L3764,806L3764,792L3764,819L3764,833L3669.51,765.05L3764,846L3764,853L3758,867L3758,873L3676,757L3676,772L3676,785L3670,806L3663,833L3656,846" fill="none" stroke="#000000" style="-webkit-tap-highlight-color: rgba(0, 0, 0, 0); stroke-linecap: round; stroke-linejoin: round; stroke-width: 19;" /><path d="M3656,860L3656,873L3663,873L3757.53,913.99L3764,900L3764,907L3764,894L3758,894L3751,894L3744,894L3737,894L3730,894L3724,894L3717,894L3710,887L3697,887L3676,880L3670,873L3656,873L3649,867L3636,867L3629,867L3615,867L3602,860L3609,867L3595,860L3588,860L3568,853L3575,853L3554,853L3561,853L3541,846L3534,846L3527,846L3521,853L3521,860L3507,873L3514,867L3500,873L3487,880L3493,880L3473,880L3460,880L3439,880L3453,880L3433,880L3426,880L3419,880L3405,880L3412,880L3399,880L3392,880L3385,887L3378,887L3372,887L3358,894L3351,894L3338,900L3331,900L3317,907L3297,921L3304,914L3311,907L3284,921L3270,928L3243,941L3250,941L3263,934L3229,948L3209,955L3202,961L3223,955L3189,968L3182,968L3162,975L3169,975L3148,982L3135,982L3114,988L3128,988L3108,995L3094,995L3080,995L3067,1002L3060,1002L3053,1002L3026,1009L3033,1009L3040,1009L3020,1009L3006,1009L2999,1009L2992,1009L2986,1009L2979,1009L2965,1016L2972,1009L2959,1016L2952,1016L2938,1022L2945,1022L2925,1029L2918,1029L2911,1029L2904,1036L2891,1043L2884,1043L2857,1056L2871,1049L2850,1063L2837,1070L2830,1070L2830,1076L2823,1076L2816,1083L2810,1083L2810,1090L2803,1090L2803,1097L2796,1097L2776,1110L2789,1104L2783,1104L2769,1117L2762,1117L2742,1131L2749,1124L2715,1144L2722,1137L2735,1137L2708,1151L2688,1158L2681,1164L2695,1151L2668,1171L2654,1171L2634,1192L2647,1185L2613,1198L2600,1212L2586,1219L2552,1239L2566,1225L2539,1246L2512,1253L2525,1253L2498,1259L2491,1266L2478,1266L2471,1266L2464,1266L2464,1273L2458,1273L2451,1273L2444,1280L2431,1286L2417,1293L2424,1286L2403,1293L2390,1300L2376,1307L2363,1307L2349,1313L2329,1320L2336,1313L2315,1327L2302,1334L2282,1341L2268,1347L2255,1347L2241,1354" fill="none" stroke="#000000" style="-webkit-tap-highlight-color: rgba(0, 0, 0, 0); stroke-linecap: round; stroke-linejoin: round; stroke-width: 19;" /><path d="M2227,1361L2214,1361L2200,1368L2207,1368L2194,1374L2187,1374L2180,1381L2173,1381L2167,1388L2160,1388L2153,1395L2146,1395L2139,1401L2133,1401L2126,1408L2119,1415L2112,1415L2106,1422L2099,1422L2092,1429L2085,1429L2078,1429L2072,1435L2078,1435L2065,1435L2051,1442L2045,1449L2038,1449L2031,1456L2013,1469L2013,1469L2011,1469L2004,1470L1990,1483L1984,1483L2001,1470L1990,1476L1970,1496L1977,1489L1957,1503L1963,1496L1950,1496L1950,1503L1943,1496" fill="none" stroke="#000000" style="-webkit-tap-highlight-color: rgba(0, 0, 0, 0); stroke-linecap: round; stroke-linejoin: round; stroke-width: 19;" /><path d="M2037.87,555.17L2037,546L2041,556L2048,559L2044,584L2044,584L2049,594L2051,607L2051,624L2053,645L2050,642L2045,670L2049,657L2038,688L2042,681L2039,716L2045,704L2045,719L2044,735L2037,737L2038,757L2034,761L2031,779L2023,792L2026,797L2022,813L2024,815L2016,829L2016,842L2015,855L2011,873L2007,897L2010,899L2012,922L2018,934L2010,955L2011,947L2004,968L2004,982L2008,998L2008,998L1999,1014L1997,1021L2000,1027L1997,1037L1995,1050L1995,1043L1996,1070L1994,1068L2001,1080L2004,1080L2004,1104L2004,1117L2004,1137L2004,1124L2016,1164L2016,1157L2012,1179L2016,1187L2018,1212L2021,1232L2019,1239L2018,1253L2014,1264L2018,1284" fill="none" stroke="#000000" style="-webkit-tap-highlight-color: rgba(0, 0, 0, 0); stroke-linecap: round; stroke-linejoin: round; stroke-width: 19;" /><path d="M2017,1300L2012,1293L2025,1302L2018,1301L2018,1320L2005,1336L2011,1346L2009,1347L1997,1381L2004,1368L1990,1401L1997,1388L1992,1426L1995,1420L1977,1435L1992,1427L1977,1442L1977,1455L1977,1455L1978,1459L1978,1459L1970,1476L1974,1458L1977,1435L1970,1457" fill="none" stroke="#000000" style="-webkit-tap-highlight-color: rgba(0, 0, 0, 0); stroke-linecap: round; stroke-linejoin: round; stroke-width: 19;" /><path d="M1794.13,582.25L1792,576L1791,577L1792,576L1791,577L1774,569L1767,569L1760,569L1759,584L1759,584L1757,592L1754,604L1756,616L1754,624L1755,631L1760,638L1754,635L1765,648L1766,656L1774,657L1768,669L1774,684L1781,697L1781,711L1787,724L1794,745L1794,765L1804,780L1811,789L1801,819L1808,833L1808,846L1814,860L1814,873L1814,887L1814,900L1814,907L1814,921L1814,928L1814,934L1814,941L1814,955L1814,961L1814,968L1814,975L1821,982L1821,995L1821,1002L1821,1009L1828,1022L1828,1036L1828,1049L1835,1063L1835,1083L1840,1101L1835,1076L1843,1109L1842,1124L1842,1131L1843,1152L1843,1154L1848,1158L1835,1178L1835,1185L1835,1192L1835,1198L1828,1212L1835,1205L1828,1225L1828,1232L1828,1266L1828,1253L1828,1239L1828,1280L1828,1293L1828,1300" fill="none" stroke="#000000" style="-webkit-tap-highlight-color: rgba(0, 0, 0, 0); stroke-linecap: round; stroke-linejoin: round; stroke-width: 19;" /><path d="M1828,1320L1828,1327L1828,1368L1828,1354L1828,1341L1835,1408L1828,1388L1828,1374L1828,1395L1835,1422L1842,1435L1835,1415L1842,1442L1842,1449L1848,1469L1848,1462L1842,1456L1848,1476L1855,1492L1849,1500L1855,1492L1855,1501L1855,1501" fill="none" stroke="#000000" style="-webkit-tap-highlight-color: rgba(0, 0, 0, 0); stroke-linecap: round; stroke-linejoin: round; stroke-width: 19;" /><path d="M1882.15,649.95L1883,643L1875,645L1882,644L1882,662L1884,677L1890,681L1888,701L1895,732L1891,715L1888,757L1887,760L1882,768L1889,792L1889,799L1889,806L1896,819L1891,827L1890,833L1887,840L1891,851L1885,866L1889,873L1887,868L1892,876L1891,899L1891,900L1889,907L1886,910L1881,919L1881,919L1896,943L1896,943L1895,948L1899,958L1900,963L1892,980L1892,980L1902,995L1902,1002L1907,1014L1902,1017L1903,1029L1902,1022L1899,1039L1902,1035L1898,1050L1898,1058L1902,1069L1899,1091L1904,1070L1902,1094L1897,1106L1904,1120L1904,1138L1904,1124L1905,1143L1912,1163L1909,1167L1911,1170L1902,1185L1902,1202L1902,1202L1894,1212L1902,1225" fill="none" stroke="#000000" style="-webkit-tap-highlight-color: rgba(0, 0, 0, 0); stroke-linecap: round; stroke-linejoin: round; stroke-width: 19;" /><path d="M1902,1241L1901,1254L1904,1257L1903,1284L1902,1295L1901,1313L1904,1297L1901,1328L1902,1332L1909,1347L1907,1343L1909,1354L1909,1358L1909,1381L1909,1374L1909,1388L1919,1404L1919,1404L1919,1410L1919,1408L1916,1431L1916,1431L1922,1442L1915,1435L1923,1456L1923,1443L1923,1462L1930,1469L1930,1476L1930,1489L1930,1496L1930,1483L1923,1496L1936,1483L1930,1489L1943,1476" fill="none" stroke="#000000" style="-webkit-tap-highlight-color: rgba(0, 0, 0, 0); stroke-linecap: round; stroke-linejoin: round; stroke-width: 19;" /><path d="M853.06,1354.06L846,1347L846,1354L840,1341L846,1341L853,1347L860,1354L867,1361L880,1368L894,1374L900,1381L928,1395L914,1388L941,1401L948,1408L961,1408L975,1408L982,1401L995,1401L1022,1388L1002,1395L1016,1388L1029,1381L1036,1374L1043,1368L1049,1361L1056,1361L1063,1361L1076,1361L1070,1361L1083,1361L1090,1361L1104,1361L1097,1361L1110,1361L1117,1361L1124,1361L1131,1361L1137,1361L1144,1361L1165,1362L1165,1362L1175,1365L1178,1367L1185,1371L1194,1375L1200,1378L1203,1380L1219,1395L1239,1401L1225,1395L1246,1401L1263,1408L1263,1408L1282,1412L1289,1418L1289,1418L1313,1435L1307,1429L1320,1452L1320,1452L1347,1442L1334,1442L1350,1458L1350,1458L1374,1449L1388,1449L1381,1449L1395,1456L1401,1456" fill="none" stroke="#000000" style="-webkit-tap-highlight-color: rgba(0, 0, 0, 0); stroke-linecap: round; stroke-linejoin: round; stroke-width: 19;" /><path d="M1408,1462L1422,1469L1435,1471L1442,1475L1462,1496L1449,1489L1469,1496L1483,1496L1496,1496L1517,1496L1523,1496L1503,1496L1537,1503L1557,1503L1550,1503L1575,1502L1579,1500L1605,1489L1611,1489L1611,1483L1618,1483" fill="none" stroke="#000000" style="-webkit-tap-highlight-color: rgba(0, 0, 0, 0); stroke-linecap: round; stroke-linejoin: round; stroke-width: 19;" /><path d="M1509.78,609.33" fill="none" stroke="#000000" style="-webkit-tap-highlight-color: rgba(0, 0, 0, 0); stroke-linecap: round; stroke-linejoin: round; stroke-width: 19;" /><path d="M1605,1483" fill="none" stroke="#000000" style="-webkit-tap-highlight-color: rgba(0, 0, 0, 0); stroke-linecap: round; stroke-linejoin: round; stroke-width: 19;" /><path d="M1508,603L1509,597L1510,596L1511,593L1513,584L1511,593L1496,596L1505,610L1489,609L1489,623L1489,616L1485,642L1485,644L1496,677L1489,663L1496,691L1503,704L1503,718L1510,724L1510,738L1510,752L1517,772L1517,758L1517,785L1523,792L1523,806L1523,812L1530,826L1530,833L1530,840L1520,855L1537,860L1526,874L1526,880L1527,885L1537,900L1537,907L1537,914L1537,928L1537,941L1537,955L1537,961L1530,975L1530,995L1530,982L1530,1002L1523,1016L1523,1029L1530,1009L1523,1063L1523,1036L1523,1049L1523,1070L1523,1083L1523,1117L1523,1097L1523,1104L1523,1151L1523,1158L1523,1137L1523,1131L1517,1185L1517,1171L1517,1198L1517,1192L1517,1212L1517,1205L1523,1225L1517,1219L1523,1253L1523,1259L1523,1232L1523,1246L1521,1277L1523,1283L1522,1279L1523,1283L1523,1307L1523,1313" fill="none" stroke="#000000" style="-webkit-tap-highlight-color: rgba(0, 0, 0, 0); stroke-linecap: round; stroke-linejoin: round; stroke-width: 19;" /><path d="M1523,1341L1523,1320L1523,1334L1523,1347L1523,1361L1523,1368L1532,1382L1532,1383L1523,1395L1523,1408L1523,1401L1523,1415L1523,1422L1517,1435L1523,1429L1517,1442L1517,1449L1515,1461L1510,1463L1510,1463L1508,1472L1501,1472L1503,1474L1503,1474L1496,1489L1496,1496L1489,1510L1489,1503L1485,1526L1485,1526L1485,1526L1503,1510L1510,1496L1510,1489" fill="none" stroke="#000000" style="-webkit-tap-highlight-color: rgba(0, 0, 0, 0); stroke-linecap: round; stroke-linejoin: round; stroke-width: 19;" /><path d="M0,1482.7" fill="none" stroke="#000000" style="-webkit-tap-highlight-color: rgba(0, 0, 0, 0); stroke-linecap: round; stroke-linejoin: round; stroke-width: 19;" /><path d="M0,1469.16L0,1476L7,1469L14,1469L27,1483L34,1489L47,1503L68,1517L81,1530L102,1537L115,1537L135,1544L156,1544L169,1544L196,1544L183,1544L210,1544L257,1544L244,1544L223,1544L278,1544L305,1537L298,1537L325,1537L339,1537L352,1530L366,1530L393,1523L379,1523L406,1523L427,1523L420,1523L433,1523L474,1510L440,1517L447,1517L460,1517L487,1510L515,1503L528,1503L501,1503L542,1496L569,1489L555,1489L589,1483L616,1469L603,1476L630,1469L643,1469" fill="none" stroke="#000000" style="-webkit-tap-highlight-color: rgba(0, 0, 0, 0); stroke-linecap: round; stroke-linejoin: round; stroke-width: 19;" /><path d="M650,1462L663,1462L670,1462L684,1456L718,1442L691,1449L704,1449L731,1435L758,1429L745,1429L772,1422L792,1422L806,1415L833,1408L819,1408L853,1401L867,1401L894,1401L880,1401L907,1395L934,1395L921,1395L961,1395" fill="none" stroke="#000000" style="-webkit-tap-highlight-color: rgba(0, 0, 0, 0); stroke-linecap: round; stroke-linejoin: round; stroke-width: 19;" /><path d="M913.99,670.26" fill="none" stroke="#000000" style="-webkit-tap-highlight-color: rgba(0, 0, 0, 0); stroke-linecap: round; stroke-linejoin: round; stroke-width: 19;" /><path d="M948,1395L975,1395L968,1388L961,1374L968,1395" fill="none" stroke="#000000" style="-webkit-tap-highlight-color: rgba(0, 0, 0, 0); stroke-linecap: round; stroke-linejoin: round; stroke-width: 19;" /><path d="M907,663L900,650L900,657L894,643L880,657L887,643L873,670L873,684L866,700L867,731L864,711L867,745L873,779L873,765L880,792L880,806L880,819L880,833L880,826L880,846L880,853L880,867L880,873L880,880L880,894L887,914L887,907L887,900L894,928L894,921L894,934L894,941L893,957L894,953L900,982L894,975L900,995L900,1022L900,1016L900,1009L900,1029L900,1036L900,1049L900,1056L900,1063L900,1070L901,1085L901,1085L897,1089L911,1088L907,1104L902,1120L903,1122L903,1121L914,1137L921,1144L921,1151L928,1178L928,1171L928,1158L934,1185L934,1192L934,1205L928,1212L928,1225L928,1232L928,1219L928,1239L928,1254L928,1254L930,1255L932,1265" fill="none" stroke="#000000" style="-webkit-tap-highlight-color: rgba(0, 0, 0, 0); stroke-linecap: round; stroke-linejoin: round; stroke-width: 19;" /><path d="M932,1265L928,1280L928,1286L934,1293L936,1323L934,1307L934,1300L936,1323L934,1341L936,1323L934,1347L941,1354L941,1361L941,1368L941,1374L941,1381L934,1388L934,1401L934,1395L934,1408L934,1415L941,1429L934,1422L934,1429L941,1435L948,1442L941,1442L948,1449L948,1442L948,1415L948,1435L955,1408" fill="none" stroke="#000000" style="-webkit-tap-highlight-color: rgba(0, 0, 0, 0); stroke-linecap: round; stroke-linejoin: round; stroke-width: 19;" /><path d="M33.85,1137.41L34,1144L41,1144L47,1151L54,1151L68,1151L81,1151L95,1151L115,1151L129,1144L142,1144L162,1137L156,1144L176,1137L183,1137L196,1137L203,1137L190,1137L217,1137L233,1143L238,1140L233,1143L242,1141L256,1143L264,1143L252,1144L271,1143L278,1141L296,1140L304,1141L282,1141L304,1141L325,1137L318,1144L332,1137L339,1137L345,1137L376,1142L359,1144L379,1143L384,1142L399,1141L394,1141L413,1140L418,1141L436,1142L440,1140L427,1140L446,1139L465,1140L451,1139L463,1139L472,1138L476,1137L494,1144L476,1137L501,1144L508,1137L515,1137L521,1137L528,1137L535,1137L547,1134L548,1134L555,1134L562,1131L582,1131L565,1132L595,1126L598,1127L623,1124L609,1128L630,1123L643,1124L657,1124L679,1108L676,1107L681,1107L704,1110L718,1110L711,1110L724,1110L731,1110L738,1110L745,1110L752,1110L766,1111L768,1109L766,1111L785,1110L799,1104L806,1104L792,1104" fill="none" stroke="#000000" style="-webkit-tap-highlight-color: rgba(0, 0, 0, 0); stroke-linecap: round; stroke-linejoin: round; stroke-width: 19;" /><path d="M812,1104L833,1104L846,1104L819,1104L840,1104L853,1104L873,1104L867,1104L887,1104L894,1104L911,1088L941,1097L962,1096L928,1089L962,1096L969,1096L962,1096" fill="none" stroke="#000000" style="-webkit-tap-highlight-color: rgba(0, 0, 0, 0); stroke-linecap: round; stroke-linejoin: round; stroke-width: 19;" /><path d="M487.46,778.59L481,779L474,779L474,785L467,792L460,799L460,806L437,811L440,835L440,867L437,841L440,880L440,914L440,900L440,894L440,921L449,934L449,934L433,941L427,948L420,955" fill="none" stroke="#000000" style="-webkit-tap-highlight-color: rgba(0, 0, 0, 0); stroke-linecap: round; stroke-linejoin: round; stroke-width: 19;" /><path d="M399,961L413,961L393,961L399,955" fill="none" stroke="#000000" style="-webkit-tap-highlight-color: rgba(0, 0, 0, 0); stroke-linecap: round; stroke-linejoin: round; stroke-width: 19;" /><path d="M724.42,974.93L686,985L700,976L704,988L740,974L719,989L752,973L772,982L810,980L792,982L826,988L840,988" fill="none" stroke="#000000" style="-webkit-tap-highlight-color: rgba(0, 0, 0, 0); stroke-linecap: round; stroke-linejoin: round; stroke-width: 19;" /><path d="M853,988L873,982L873,975L867,982L887,959L893,957L798.9,792.13L789,784L785,784L778,782L760,791L759,792L771,813L772,818L775,846L776,880L780,893L778,921L768,943" fill="none" stroke="#000000" style="-webkit-tap-highlight-color: rgba(0, 0, 0, 0); stroke-linecap: round; stroke-linejoin: round; stroke-width: 19;" /><path d="M758,951L752,954L745,959L744,953" fill="none" stroke="#000000" style="-webkit-tap-highlight-color: rgba(0, 0, 0, 0); stroke-linecap: round; stroke-linejoin: round; stroke-width: 19;" /><path d="M995.24,1245.74L995,1239L1002,1239L1009,1239L1029,1239L1049,1239L1083,1232L1124,1232L1151,1232L1158,1232L1198,1239" fill="none" stroke="#000000" style="-webkit-tap-highlight-color: rgba(0, 0, 0, 0); stroke-linecap: round; stroke-linejoin: round; stroke-width: 19;" /><path d="M1259,1246L1282,1243L1232,1246L1297,1245L1320,1247L1307,1245L1331,1248L1344,1243" fill="none" stroke="#000000" style="-webkit-tap-highlight-color: rgba(0, 0, 0, 0); stroke-linecap: round; stroke-linejoin: round; stroke-width: 19;" /><path d="M1008.78,1090.02" fill="none" stroke="#000000" style="-webkit-tap-highlight-color: rgba(0, 0, 0, 0); stroke-linecap: round; stroke-linejoin: round; stroke-width: 19;" /><path d="M1344,1243L1344,1243" fill="none" stroke="#000000" style="-webkit-tap-highlight-color: rgba(0, 0, 0, 0); stroke-linecap: round; stroke-linejoin: round; stroke-width: 19;" /><path d="M1014,1091L1023,1096L1056,1104L1097,1117L1133,1125L1180,1121L1219,1131L1286,1137L1253,1125L1313,1137" fill="none" stroke="#000000" style="-webkit-tap-highlight-color: rgba(0, 0, 0, 0); stroke-linecap: round; stroke-linejoin: round; stroke-width: 19;" /><path d="M1334,1137L1341,1137L1347,1137L1347,1144L1341,1151L1334,1158" fill="none" stroke="#000000" style="-webkit-tap-highlight-color: rgba(0, 0, 0, 0); stroke-linecap: round; stroke-linejoin: round; stroke-width: 19;" /><path d="M2640.42,1232.2L2611,1219L2634,1225L2612,1214L2600,1205L2593,1192L2593,1198L2586,1192L2579,1192L2579,1198L2586,1198L2593,1205L2614,1212L2620,1212L2634,1206L2640,1206L2671,1212L2675,1211L2688,1219L2695,1222L2708,1225L2722,1225L2728,1225L2749,1232L2742,1225L2762,1232L2769,1232L2789,1239L2776,1232L2810,1239L2796,1239L2816,1239L2823,1246L2830,1246L2837,1246L2844,1246L2850,1253L2857,1253L2864,1253L2871,1259L2877,1259L2884,1259L2891,1259L2898,1266L2904,1266L2911,1266L2918,1273L2938,1280L2925,1273L2945,1280L2959,1280L2965,1280L2979,1286L2986,1286L2999,1286L3013,1286L3026,1293L3033,1293L3047,1293L3053,1293L3067,1293L3080,1293L3087,1300L3101,1300L3108,1300L3121,1300L3128,1300L3141,1300L3148,1307L3155,1307L3169,1307L3189,1307L3175,1307L3202,1307L3229,1307L3216,1307L3257,1307L3243,1307L3270,1307L3284,1307L3297,1307L3311,1307L3317,1307L3338,1313L3345,1313L3331,1313L3351,1313" fill="none" stroke="#000000" style="-webkit-tap-highlight-color: rgba(0, 0, 0, 0); stroke-linecap: round; stroke-linejoin: round; stroke-width: 19;" /><path d="M3372,1320L3358,1320L3378,1320L3385,1320L3392,1327L3399,1327L3405,1327L3412,1327L3419,1327L3426,1327L3433,1327L3439,1327L3453,1327L3460,1327L3473,1334L3493,1334L3480,1334L3507,1334L3534,1334L3541,1341L3521,1334L3554,1341L3568,1341L3588,1341L3622,1347L3602,1347L3656,1354L3636,1354L3683,1354L3670,1354" fill="none" stroke="#000000" style="-webkit-tap-highlight-color: rgba(0, 0, 0, 0); stroke-linecap: round; stroke-linejoin: round; stroke-width: 19;" /><path d="M2518.56,1266.05" fill="none" stroke="#000000" style="-webkit-tap-highlight-color: rgba(0, 0, 0, 0); stroke-linecap: round; stroke-linejoin: round; stroke-width: 19;" /><path d="M3697,1354L3690,1354L3683,1354" fill="none" stroke="#000000" style="-webkit-tap-highlight-color: rgba(0, 0, 0, 0); stroke-linecap: round; stroke-linejoin: round; stroke-width: 19;" /><path d="M2525,1266L2532,1266L2573,1266L2546,1266L2607,1273L2640,1280L2674,1280L2701,1286L2728,1286L2749,1286L2789,1300L2796,1300L2769,1293" fill="none" stroke="#000000" style="-webkit-tap-highlight-color: rgba(0, 0, 0, 0); stroke-linecap: round; stroke-linejoin: round; stroke-width: 19;" /><path d="M2810,1300L2823,1300L2816,1300L2816,1300" fill="none" stroke="#000000" style="-webkit-tap-highlight-color: rgba(0, 0, 0, 0); stroke-linecap: round; stroke-linejoin: round; stroke-width: 19;" /><path d="M2457.63,1313.44L2471,1313L2498,1313L2519,1310L2559,1313L2600,1320L2640,1320L2681,1327L2708,1327L2735,1334L2756,1341L2762,1347" fill="none" stroke="#000000" style="-webkit-tap-highlight-color: rgba(0, 0, 0, 0); stroke-linecap: round; stroke-linejoin: round; stroke-width: 19;" /><path d="M2769,1347L2776,1347L2783,1347L2789,1347L2816.45,1421.77L2816,1415L2816,1408L2830,1401L2823,1401L2844,1401L2864,1408L2884,1408L2904,1408L2925,1408L2932,1408L2945,1408L2952,1408L2979,1408L2999,1408L3040,1415L3020,1415L3047,1422L3053,1422L3067,1422L3074,1422L3080,1422" fill="none" stroke="#000000" style="-webkit-tap-highlight-color: rgba(0, 0, 0, 0); stroke-linecap: round; stroke-linejoin: round; stroke-width: 19;" /><path d="M3094,1422L3101,1422L3121,1415L3108,1415L3137,1407L3147,1409L3152,1412L3138,1408L3169,1404L3178,1402L3180,1401L3204,1410L3208,1408L3201,1415L3276.83,1415L3214,1412L3196,1429L3189,1429L3270,1415L3263,1415L3257,1415L3284,1422L3311,1422L3339,1420L3378,1422L3405,1422" fill="none" stroke="#000000" style="-webkit-tap-highlight-color: rgba(0, 0, 0, 0); stroke-linecap: round; stroke-linejoin: round; stroke-width: 19;" /><path d="M3426,1422L3439,1422L3446,1429L3446,1435L3439,1442" fill="none" stroke="#000000" style="-webkit-tap-highlight-color: rgba(0, 0, 0, 0); stroke-linecap: round; stroke-linejoin: round; stroke-width: 19;" /><path d="M3263.29,1543.63L3247,1540L3257,1517L3257,1510L3270,1510L3290,1510L3311,1517L3338,1523L3365,1530L3399,1530L3426,1530L3446,1537L3466,1537L3487,1550L3500,1551L3507,1551L3519,1552" fill="none" stroke="#000000" style="-webkit-tap-highlight-color: rgba(0, 0, 0, 0); stroke-linecap: round; stroke-linejoin: round; stroke-width: 19;" /><path d="M3540,1555L3554,1557L3568,1556L3578,1554L3588,1558" fill="none" stroke="#000000" style="-webkit-tap-highlight-color: rgba(0, 0, 0, 0); stroke-linecap: round; stroke-linejoin: round; stroke-width: 19;" /><path d="M3263.29,1604.57L3270,1605L3277,1605L3290,1605L3317,1605" fill="none" stroke="#000000" style="-webkit-tap-highlight-color: rgba(0, 0, 0, 0); stroke-linecap: round; stroke-linejoin: round; stroke-width: 19;" /><path d="M3385,1591L3351,1605L3419,1584L3446,1577L3493,1577L3473,1577L3493,1584L3487,1577L3358.08,1658.73L3358,1652L3358,1645L3365,1645L3378,1659L3392,1672L3412,1686L3433,1706L3460,1713L3487,1720L3514,1720L3534,1726" fill="none" stroke="#000000" style="-webkit-tap-highlight-color: rgba(0, 0, 0, 0); stroke-linecap: round; stroke-linejoin: round; stroke-width: 19;" /><path d="M3554,1726L3568,1726L3588,1733L3581,1733L3588,1740L3581,1740" fill="none" stroke="#000000" style="-webkit-tap-highlight-color: rgba(0, 0, 0, 0); stroke-linecap: round; stroke-linejoin: round; stroke-width: 19;" /><path d="M3276.83,1712.89L3290,1720L3304,1720L3297,1720L3311,1726" fill="none" stroke="#000000" style="-webkit-tap-highlight-color: rgba(0, 0, 0, 0); stroke-linecap: round; stroke-linejoin: round; stroke-width: 19;" /><path d="M3358,1747L3317,1726L3324,1733L3331,1740L3419,1767L3385,1760L3446,1767L3460,1767L3460,1760" fill="none" stroke="#000000" style="-webkit-tap-highlight-color: rgba(0, 0, 0, 0); stroke-linecap: round; stroke-linejoin: round; stroke-width: 19;" /><path d="M3263.29,1719.66L3274,1711L3270,1713L3274,1711L3274,1707L3250,1699L3269,1705L3216,1699L3169,1693L3040,1693L3114,1693L3074,1693L3020,1699" fill="none" stroke="#000000" style="-webkit-tap-highlight-color: rgba(0, 0, 0, 0); stroke-linecap: round; stroke-linejoin: round; stroke-width: 19;" /><path d="M2997,1708L2965,1723L2980,1711L2972,1723L2963,1744L2964,1745" fill="none" stroke="#000000" style="-webkit-tap-highlight-color: rgba(0, 0, 0, 0); stroke-linecap: round; stroke-linejoin: round; stroke-width: 19;" /><path d="M2755.52,1672.27L2762,1671L2762,1668L2762,1668L2761,1668" fill="none" stroke="#000000" style="-webkit-tap-highlight-color: rgba(0, 0, 0, 0); stroke-linecap: round; stroke-linejoin: round; stroke-width: 19;" /><path d="M2742,1659L2728,1659L2708,1672L2688,1678L2674,1699L2674,1706" fill="none" stroke="#000000" style="-webkit-tap-highlight-color: rgba(0, 0, 0, 0); stroke-linecap: round; stroke-linejoin: round; stroke-width: 19;" /><path d="M3087.27,1875.38L3078,1892L3064,1885L3059,1873L3057,1875L3020,1875L2992,1875L2979,1882L2972,1896L2972,1909L2992,1923L3020,1930L3047,1930L3076,1893L3067,1916" fill="none" stroke="#000000" style="-webkit-tap-highlight-color: rgba(0, 0, 0, 0); stroke-linecap: round; stroke-linejoin: round; stroke-width: 19;" /><path d="M3064,1885L3055,1868L2999,1862L2986,1862L3026,1862L3209.13,1895.69" fill="none" stroke="#000000" style="-webkit-tap-highlight-color: rgba(0, 0, 0, 0); stroke-linecap: round; stroke-linejoin: round; stroke-width: 19;" /><path d="M2979,1869" fill="none" stroke="#000000" style="-webkit-tap-highlight-color: rgba(0, 0, 0, 0); stroke-linecap: round; stroke-linejoin: round; stroke-width: 19;" /><path d="M3209,1889L3196,1882L3182,1882L3148,1889L3121,1902L3108,1930L3108,1943L3128,1957L3155,1963" fill="none" stroke="#000000" style="-webkit-tap-highlight-color: rgba(0, 0, 0, 0); stroke-linecap: round; stroke-linejoin: round; stroke-width: 19;" /><path d="M3189,1963L3209,1943L3223,1930L3229,1909L3216,1896L3196,1889L3283.6,1922.77L3294,1907L3292,1906L3294,1900L3289,1903L3270,1909L3263,1930L3265,1942L3266,1959" fill="none" stroke="#000000" style="-webkit-tap-highlight-color: rgba(0, 0, 0, 0); stroke-linecap: round; stroke-linejoin: round; stroke-width: 19;" /><path d="M3276,1964L3311,1943L3300,1965L3311,1930L3304,1923L3297,1923" fill="none" stroke="#000000" style="-webkit-tap-highlight-color: rgba(0, 0, 0, 0); stroke-linecap: round; stroke-linejoin: round; stroke-width: 19;" /><path d="M3540.88,2119.11L3541,2106L3534,2106L3541,2112L3521,2099L3493,2106L3440,2119L3433,2146L3466,2118L3439,2160" fill="none" stroke="#000000" style="-webkit-tap-highlight-color: rgba(0, 0, 0, 0); stroke-linecap: round; stroke-linejoin: round; stroke-width: 19;" /><path d="M3453,2173L3473,2173L3460,2173L3480,2160L3480,2146L3480,2123L3480,2123L3581.5,2166.5L3588,2160L3588,2139L3578,2122L3554,2123L3527,2153L3514,2187L3507,2207L3527,2227L3554,2234L3575,2232L3602,2221" fill="none" stroke="#000000" style="-webkit-tap-highlight-color: rgba(0, 0, 0, 0); stroke-linecap: round; stroke-linejoin: round; stroke-width: 19;" /><path d="M3605,2171L3609,2200L3581,2146L3602,2153L3561,2146L3493.48,2261.29L3480,2275L3466,2288L3466,2309L3473,2322" fill="none" stroke="#000000" style="-webkit-tap-highlight-color: rgba(0, 0, 0, 0); stroke-linecap: round; stroke-linejoin: round; stroke-width: 19;" /><path d="M3493,2329L3541,2322L3521,2329L3554,2309L3545,2263L3561,2288L3500,2236L3527,2248" fill="none" stroke="#000000" style="-webkit-tap-highlight-color: rgba(0, 0, 0, 0); stroke-linecap: round; stroke-linejoin: round; stroke-width: 19;" /><path d="M108.33,1448.85L112,1446L95,1456L88,1456L81,1456L81,1462L73,1487L81,1469L72,1489L73,1487" fill="none" stroke="#000000" style="-webkit-tap-highlight-color: rgba(0, 0, 0, 0); stroke-linecap: round; stroke-linejoin: round; stroke-width: 19;" /><path d="M73,1487L72,1484L81,1442L81,1435L81,1442L81,1456L81,1462L81,1462L88,1456L95,1456" fill="none" stroke="#000000" style="-webkit-tap-highlight-color: rgba(0, 0, 0, 0); stroke-linecap: round; stroke-linejoin: round; stroke-width: 19;" /><path d="M20.31,1232.2L20,1219L20,1225L20,1212L20,1205L34,1198L27,1198L34,1205L41,1232" fill="none" stroke="#000000" style="-webkit-tap-highlight-color: rgba(0, 0, 0, 0); stroke-linecap: round; stroke-linejoin: round; stroke-width: 19;" /><path d="M47,1266L47,1253L47,1253L47,1232L41,1198L47,1205L47,1192L41,1212L41,1225L41,1239" fill="none" stroke="#000000" style="-webkit-tap-highlight-color: rgba(0, 0, 0, 0); stroke-linecap: round; stroke-linejoin: round; stroke-width: 19;" /><path d="M1049.4,1130.64L1049,1137L1043,1137L1043,1131L1043,1124L1049,1124L1049,1117L1056,1117L1070,1110L1083,1110L1104,1104L1134,1114L1149,1114L1192,1097L1171,1097L1205,1097L1225,1104L1239,1110L1253,1110L1273,1110L1286,1110L1300,1110L1313,1110L1327,1110L1334,1110L1347,1110L1361,1110L1354,1110L1368,1110L1368,1117L1374,1124L1374,1117" fill="none" stroke="#000000" style="-webkit-tap-highlight-color: rgba(0, 0, 0, 0); stroke-linecap: round; stroke-linejoin: round; stroke-width: 19;" /><path d="M1381,1124L1388,1124L1395,1124" fill="none" stroke="#000000" style="-webkit-tap-highlight-color: rgba(0, 0, 0, 0); stroke-linecap: round; stroke-linejoin: round; stroke-width: 19;" /><path d="M1956.62,677.03L1957,652L1956,670L1956,651L1956,651L1946,645L1946,649L1946,645L1937,654L1952,667L1952,667L1949,691L1950,711L1949,692L1950,731L1950,718L1943,752L1950,738L1945,757L1950,764L1950,785L1939,796L1943,806L1930,826L1933,832L1931,812L1930,845L1928,844L1932,867L1931,864L1942,881L1934,872L1942,887L1942,881L1946,890L1939,915L1936,919L1935,905L1936,934L1930,945L1939,931L1931,941L1937,968L1926,955L1941,985L1937,968L1938,1002L1936,997L1936,988L1942,1007L1943,1043L1943,1019L1943,1034L1943,1022" fill="none" stroke="#000000" style="-webkit-tap-highlight-color: rgba(0, 0, 0, 0); stroke-linecap: round; stroke-linejoin: round; stroke-width: 19;" /><path d="M1942,1074L1943,1049L1944,1062L1943,1076L1947,1086L1948,1116L1943,1097L1947,1117L1950,1137L1950,1144L1957,1158L1950,1151" fill="none" stroke="#000000" style="-webkit-tap-highlight-color: rgba(0, 0, 0, 0); stroke-linecap: round; stroke-linejoin: round; stroke-width: 19;" /><path d="M2125.88,961.39" fill="none" stroke="#000000" style="-webkit-tap-highlight-color: rgba(0, 0, 0, 0); stroke-linecap: round; stroke-linejoin: round; stroke-width: 19;" /><path d="M1968,1202L1970,1185L1957,1164L1963,1178L1968,1203L1968,1203" fill="none" stroke="#000000" style="-webkit-tap-highlight-color: rgba(0, 0, 0, 0); stroke-linecap: round; stroke-linejoin: round; stroke-width: 19;" /><path d="M2121,968" fill="none" stroke="#000000" style="-webkit-tap-highlight-color: rgba(0, 0, 0, 0); stroke-linecap: round; stroke-linejoin: round; stroke-width: 19;" /><path d="M1968,1203" fill="none" stroke="#000000" style="-webkit-tap-highlight-color: rgba(0, 0, 0, 0); stroke-linecap: round; stroke-linejoin: round; stroke-width: 19;" /><path d="M2122,961L2120,970L2120,975L2119,988L2106,1002L2106,1009L2099,1009L2099,1002L2099,988L2099,975L2106,968L2106,961L2120,970L2134,989L2120,975L2120,982L2133,995L2122,996L2119,988L2134,998L2120,975L2121,968L2120,975L2120,982L2120,986L2122,996L2121,996" fill="none" stroke="#000000" style="-webkit-tap-highlight-color: rgba(0, 0, 0, 0); stroke-linecap: round; stroke-linejoin: round; stroke-width: 19;" /><path d="M2121,995L2120,975" fill="none" stroke="#000000" style="-webkit-tap-highlight-color: rgba(0, 0, 0, 0); stroke-linecap: round; stroke-linejoin: round; stroke-width: 19;" /><path d="M1685.81,974.93L1693,975L1686,988L1679,995L1672,1009L1665,1009L1672,988L1679,968L1703,945L1705,948L1705,955L1705,968L1705,982L1679,1002L1705,986L1693,988L1686,961L1686,988L1686,975L1702,944L1705,948L1702,944L1705,955L1705,968" fill="none" stroke="#000000" style="-webkit-tap-highlight-color: rgba(0, 0, 0, 0); stroke-linecap: round; stroke-linejoin: round; stroke-width: 19;" /><path d="M1705,975L1693,975L1686,975L1679,975L1679,968L1679,961L1686,968L1686,975L1693,988" fill="none" stroke="#000000" style="-webkit-tap-highlight-color: rgba(0, 0, 0, 0); stroke-linecap: round; stroke-linejoin: round; stroke-width: 19;" /><path d="M3006.02,927.53L3006,921L3013,914L3013,907L3020,907L3026,914L3038,931L3038,934L3046,947L3047,960L3047,960L3040,914L3062,905L3039,936L3033,955L3062,905" fill="none" stroke="#000000" style="-webkit-tap-highlight-color: rgba(0, 0, 0, 0); stroke-linecap: round; stroke-linejoin: round; stroke-width: 19;" /><path d="M3067,921L3067,934L3038,931L3049,951L3047,960L3020,948L3026,961L3020,934L3020,921L3038,931L3026,914L3033,914L3042,940L3048,965L3033,975L3047,960" fill="none" stroke="#000000" style="-webkit-tap-highlight-color: rgba(0, 0, 0, 0); stroke-linecap: round; stroke-linejoin: round; stroke-width: 19;" /><path d="M2051.41,1658.73L2058,1665L2058,1659L2065,1659L2065,1652L2051,1652L2058,1652L2045,1652L2038,1652L2024,1659L2011,1665L2004,1665L1997,1672L1990,1679L1990,1672L2004,1679L2011,1686L2024,1693L2038,1699L2045,1706L2051,1706L2058,1713L2065,1713L2078,1672L2072,1686L2065,1706L2072,1693" fill="none" stroke="#000000" style="-webkit-tap-highlight-color: rgba(0, 0, 0, 0); stroke-linecap: round; stroke-linejoin: round; stroke-width: 19;" /><path d="M2078,1659L2078,1645L2065,1638L2072,1638L2051,1632L2051,1638L2058,1632L2045,1645L2010.78,1739.97L2045,1652L2011,1733L2011,1726L2011,1720L2004,1720L1997,1713L2004,1713L1984,1713L1977,1720L1963,1726L1957,1740L1943,1747L1936,1754L1936,1760L1970,1754L1957,1760L1943,1760L1990,1747L1997,1740L2004,1733L2004,1726" fill="none" stroke="#000000" style="-webkit-tap-highlight-color: rgba(0, 0, 0, 0); stroke-linecap: round; stroke-linejoin: round; stroke-width: 19;" /><path d="M1997,1720L1990,1713L1977,1713L1984,1713" fill="none" stroke="#000000" style="-webkit-tap-highlight-color: rgba(0, 0, 0, 0); stroke-linecap: round; stroke-linejoin: round; stroke-width: 19;" /><path d="M2295.14,1679.04L2302,1665L2302,1679L2302,1659L2295,1652L2288,1645L2282,1638L2268,1645L2255,1652L2248,1672L2248,1693L2248,1706L2255,1713" fill="none" stroke="#000000" style="-webkit-tap-highlight-color: rgba(0, 0, 0, 0); stroke-linecap: round; stroke-linejoin: round; stroke-width: 19;" /><path d="M2268,1720L2282,1720L2295,1699L2302,1686L2302,1665L2302,1652L2302,1645L2295,1645L2295,1652L2376.38,1658.73L2370,1659L2356,1652L2349,1645L2343,1638L2336,1638L2329,1645L2329,1652" fill="none" stroke="#000000" style="-webkit-tap-highlight-color: rgba(0, 0, 0, 0); stroke-linecap: round; stroke-linejoin: round; stroke-width: 19;" /><path d="M2329,1665L2336,1679L2343,1699L2376,1713L2356,1713L2511.79,1719.66L2519,1720L2519,1713L2512,1713L2498,1713L2459,1737L2444,1754L2477,1735L2437,1767L2437,1774L2451,1774L2471,1774L2491,1767" fill="none" stroke="#000000" style="-webkit-tap-highlight-color: rgba(0, 0, 0, 0); stroke-linecap: round; stroke-linejoin: round; stroke-width: 19;" /><path d="M2512,1754L2520,1737L2517,1733L2519,1720L2512,1720L2516,1733L2516,1737" fill="none" stroke="#000000" style="-webkit-tap-highlight-color: rgba(0, 0, 0, 0); stroke-linecap: round; stroke-linejoin: round; stroke-width: 19;" /><path d="M2735.21,1651.96L2749,1652L2756,1645L2746,1633L2746,1633L2725,1629L2737,1630L2709,1631L2705,1637L2695,1657L2701,1640L2695,1660L2710,1667L2710,1667L2721,1672L2761,1668L2742,1672" fill="none" stroke="#000000" style="-webkit-tap-highlight-color: rgba(0, 0, 0, 0); stroke-linecap: round; stroke-linejoin: round; stroke-width: 19;" /><path d="M2762,1652L2769,1645L2769,1632L2769,1638L2843.53,1692.58L2858,1692L2837,1686L2844,1686L2830,1686L2816,1686L2803,1699L2799,1681L2796,1706L2793,1719L2816,1733L2802,1726L2830,1733" fill="none" stroke="#000000" style="-webkit-tap-highlight-color: rgba(0, 0, 0, 0); stroke-linecap: round; stroke-linejoin: round; stroke-width: 19;" /><path d="M2844,1726L2850,1713L2858,1692L2857,1672L2857,1665L2844,1665L2809.68,1787.36L2810,1767L2802,1752L2802,1752L2810,1781" fill="none" stroke="#000000" style="-webkit-tap-highlight-color: rgba(0, 0, 0, 0); stroke-linecap: round; stroke-linejoin: round; stroke-width: 19;" /><path d="M2802,1752L2795,1747L2786,1741L2769,1760L2769,1821L2762,1808L2762,1821L2762,1781L2783,1821L2789,1808L2803,1787L2802,1752L2795,1744L2802,1727L2786,1740" fill="none" stroke="#000000" style="-webkit-tap-highlight-color: rgba(0, 0, 0, 0); stroke-linecap: round; stroke-linejoin: round; stroke-width: 19;" /><path d="M2119.11,2152.96L2109,2148L2109,2148L2106,2148L2109,2148L2098,2148L2094,2153L2085,2180L2078,2194L2085,2207L2099,2207" fill="none" stroke="#000000" style="-webkit-tap-highlight-color: rgba(0, 0, 0, 0); stroke-linecap: round; stroke-linejoin: round; stroke-width: 19;" /></svg>