<?xml version="1.0" encoding="utf-8" ?>
<svg baseProfile="full" height="2454" version="1.1" width="3832" xmlns="http://www.w3.org/2000/svg" xmlns:ev="http://www.w3.org/2001/xml-events" xmlns:xlink="http://www.w3.org/1999/xlink"><defs /><path d="M1952.15,578.42L1952.15,571.84L1952.15,578.42L1945.58,598.13L1945.58,604.71L1945.58,617.85L1939.01,624.43L1939.01,637.57L1939.01,644.14L1939.01,657.29L1939.01,670.44L1939.01,690.15L1939.01,703.3L1945.58,716.45L1945.58,729.59L1945.58,736.16L1945.58,749.31L1945.58,762.46L1945.58,769.03L1945.58,782.17L1945.58,795.32L1945.58,801.89L1945.58,815.04L1945.58,821.61L1945.58,834.76L1945.58,841.33L1945.58,847.9L1945.58,861.05L1945.58,874.2L1945.58,880.77L1945.58,893.91L1945.58,907.06L1939.01,920.21L1939.01,933.35L1939.01,946.5L1939.01,966.22L1939.01,979.36L1939.01,992.51L1939.01,1012.23L1945.58,1025.37L1945.58,1038.52L1945.58,1051.66L1952.15,1064.81L1952.15,1077.96L1952.15,1091.1L1952.15,1104.25L1952.15,1117.39L1952.15,1130.54L1952.15,1143.68L1952.15,1156.83L1952.15,1169.98L1952.15,1183.12L1952.15,1189.69L1952.15,1202.84L1952.15,1215.99L1952.15,1229.13L1952.15,1248.85L1952.15,1262L1952.15,1281.72L1952.15,1308.01L1952.15,1334.3L1952.15,1373.74L1952.15,1406.6L1952.15,1426.32" fill="none" stroke="#000000" style="-webkit-tap-highlight-color: rgba(0, 0, 0, 0); stroke-linecap: round; stroke-linejoin: round; stroke-width: 19;" /><path d="M2083.61,584.99L2083.61,578.42L2083.61,584.99L2090.18,591.56L2090.18,604.71L2090.18,617.85L2090.18,631L2083.61,644.14L2083.61,663.86L2083.61,677.01L2083.61,690.15L2083.61,709.87L2083.61,723.02L2077.04,742.74L2077.04,755.88L2077.04,769.03L2077.04,788.75L2070.46,801.89L2070.46,815.04L2070.46,834.76L2063.89,847.9L2063.89,861.05L2057.32,874.2L2057.32,893.91L2057.32,907.06L2050.74,920.21L2050.74,933.35L2050.74,946.5L2044.17,966.22L2037.6,979.36L2037.6,992.51L2037.6,1012.23L2037.6,1031.95L2037.6,1045.09L2037.6,1058.24L2037.6,1071.38L2037.6,1084.53L2037.6,1097.67L2037.6,1110.82L2037.6,1123.97L2037.6,1137.11L2037.6,1150.26L2037.6,1163.4L2037.6,1176.55L2037.6,1189.69L2037.6,1202.84L2037.6,1215.99L2037.6,1235.7L2037.6,1248.85L2037.6,1262L2044.17,1275.14L2044.17,1294.86L2044.17,1308.01L2044.17,1327.73L2044.17,1340.87L2044.17,1347.44L2044.17,1360.59L2044.17,1367.16L2044.17,1380.31L2044.17,1400.03L2037.6,1413.17L2031.03,1426.32L2031.03,1446.04L2017.88,1472.33L2011.31,1492.05L2004.73,1498.62L2004.73,1492.05" fill="none" stroke="#000000" style="-webkit-tap-highlight-color: rgba(0, 0, 0, 0); stroke-linecap: round; stroke-linejoin: round; stroke-width: 19;" /><path d="M1965.3,584.99L1971.87,584.99L1985.02,578.42L2004.73,571.84L2024.45,565.27L2044.17,565.27L2050.74,565.27L2057.32,565.27L2070.46,565.27L2077.04,565.27L2083.61,565.27L2090.18,565.27L2096.75,565.27L2103.33,565.27L2109.9,571.84L2116.47,571.84L2129.62,571.84L2136.19,571.84L2142.77,571.84L2149.34,571.84L2155.91,571.84L2162.48,571.84L2175.63,565.27L2182.2,565.27L2188.78,565.27L2201.92,565.27L2208.49,565.27L2221.64,565.27L2228.21,565.27L2241.36,565.27L2254.5,565.27L2261.08,565.27L2274.22,565.27L2280.8,565.27L2293.94,565.27L2300.51,571.84L2307.09,571.84L2320.23,571.84L2326.81,571.84L2339.95,571.84L2346.52,571.84L2359.67,578.42L2366.24,578.42L2379.39,578.42L2392.54,578.42L2399.11,578.42L2412.25,578.42L2425.4,584.99L2438.55,584.99L2451.69,584.99L2464.84,584.99L2477.98,584.99L2484.56,584.99L2497.7,584.99L2504.27,584.99L2517.42,584.99L2530.57,584.99L2537.14,584.99L2543.71,584.99L2556.86,584.99L2563.43,584.99L2570,584.99L2583.15,584.99L2596.3,584.99L2609.44,584.99L2616.01,584.99L2622.59,584.99L2635.73,584.99L2648.88,584.99L2655.45,584.99L2668.6,584.99L2675.17,584.99L2681.74,584.99L2688.32,584.99L2701.46,584.99L2708.03,584.99L2714.61,591.56L2727.75,591.56L2734.33,591.56L2740.9,591.56L2747.47,598.13L2754.04,598.13L2760.62,598.13L2767.19,598.13L2773.76,598.13L2780.34,598.13L2786.91,598.13L2793.48,604.71L2800.05,604.71L2806.63,604.71L2813.2,611.28L2819.77,611.28L2826.35,617.85" fill="none" stroke="#000000" style="-webkit-tap-highlight-color: rgba(0, 0, 0, 0); stroke-linecap: round; stroke-linejoin: round; stroke-width: 19;" /><path d="M2819.77,644.14L2813.2,637.57L2813.2,631L2813.2,624.43L2819.77,631L2826.35,631L2832.92,637.57L2839.49,644.14L2846.07,657.29L2852.64,663.86L2859.21,677.01L2859.21,690.15L2865.78,696.73L2872.36,709.87L2878.93,716.45L2878.93,729.59L2885.5,736.16L2885.5,749.31L2885.5,755.88L2892.08,769.03L2892.08,775.6L2898.65,788.75L2898.65,795.32L2898.65,808.47L2905.22,821.61L2905.22,834.76L2905.22,847.9L2911.79,874.2L2918.37,887.34L2924.94,900.49L2931.51,913.63L2938.09,913.63L2938.09,920.21L2938.09,926.78L2938.09,939.92L2938.09,946.5L2938.09,953.07L2938.09,959.64L2938.09,966.22L2938.09,972.79L2944.66,979.36L2944.66,985.93L2944.66,999.08L2944.66,1012.23L2944.66,1031.95L2938.09,1058.24L2924.94,1077.96" fill="none" stroke="#000000" style="-webkit-tap-highlight-color: rgba(0, 0, 0, 0); stroke-linecap: round; stroke-linejoin: round; stroke-width: 19;" /><path d="M2852.64,677.01L2852.64,670.44L2846.07,670.44L2852.64,670.44L2865.78,670.44L2885.5,670.44L2924.94,670.44L2938.09,670.44L2957.8,670.44L2970.95,670.44L2990.67,663.86L3003.81,663.86L3016.96,663.86L3023.53,663.86L3036.68,663.86L3043.25,663.86L3056.4,663.86L3069.54,663.86L3082.69,663.86L3089.26,663.86L3102.41,663.86L3108.98,663.86L3122.13,670.44L3135.27,670.44L3148.42,670.44L3161.56,670.44L3174.71,670.44L3181.28,677.01L3187.86,677.01L3201,677.01L3207.57,677.01L3214.15,677.01L3220.72,683.58L3227.29,683.58L3233.87,683.58L3240.44,683.58L3247.01,683.58L3253.58,683.58L3260.16,690.15L3266.73,690.15L3273.3,690.15L3279.88,690.15L3286.45,696.73L3293.02,696.73L3299.6,696.73L3306.17,703.3L3312.74,703.3L3319.31,703.3L3325.89,709.87L3332.46,709.87L3339.03,716.45L3345.61,716.45L3352.18,716.45L3358.75,723.02L3365.32,723.02L3371.9,729.59L3378.47,729.59L3385.04,729.59L3391.62,736.16L3398.19,736.16L3404.76,736.16L3411.33,742.74L3417.91,742.74L3424.48,749.31L3431.05,749.31L3437.63,749.31L3444.2,755.88L3450.77,755.88L3457.34,755.88L3463.92,762.46L3470.49,762.46L3477.06,762.46L3483.64,762.46L3490.21,762.46L3503.36,762.46L3509.93,769.03L3516.5,769.03L3536.22,769.03L3549.37,769.03L3569.08,762.46L3575.66,762.46" fill="none" stroke="#000000" style="-webkit-tap-highlight-color: rgba(0, 0, 0, 0); stroke-linecap: round; stroke-linejoin: round; stroke-width: 19;" /><path d="M3562.51,782.17L3562.51,775.6L3562.51,769.03L3569.08,769.03L3582.23,762.46L3588.8,762.46L3601.95,755.88L3615.09,755.88L3621.67,755.88L3634.81,755.88L3647.96,755.88L3661.1,755.88L3674.25,755.88L3680.82,755.88L3693.97,762.46L3700.54,762.46L3713.69,762.46L3726.83,762.46L3739.98,762.46L3753.13,762.46L3766.27,762.46L3772.84,762.46L3785.99,762.46L3799.14,762.46L3818.85,762.46" fill="none" stroke="#000000" style="-webkit-tap-highlight-color: rgba(0, 0, 0, 0); stroke-linecap: round; stroke-linejoin: round; stroke-width: 19;" /><path d="M2931.51,1005.65L2944.66,999.08L2964.38,999.08L2997.24,985.93L3023.53,979.36L3043.25,972.79L3056.4,972.79L3069.54,966.22L3082.69,966.22L3095.84,959.64L3108.98,959.64L3128.7,959.64L3135.27,953.07L3148.42,953.07L3161.56,953.07L3174.71,946.5L3187.86,946.5L3201,939.92L3214.15,939.92L3227.29,939.92L3240.44,933.35L3253.58,933.35L3266.73,933.35L3279.88,926.78L3293.02,926.78L3312.74,920.21L3325.89,920.21L3339.03,913.63L3352.18,907.06L3365.32,907.06L3378.47,900.49L3385.04,900.49L3398.19,893.91L3411.33,893.91L3424.48,887.34L3437.63,887.34L3450.77,880.77L3463.92,874.2L3477.06,874.2L3483.64,867.62L3490.21,867.62L3503.36,867.62L3509.93,861.05L3516.5,861.05L3529.65,861.05L3536.22,854.48L3542.79,854.48L3549.37,854.48L3555.94,854.48L3569.08,847.9L3575.66,847.9L3582.23,847.9L3588.8,847.9L3601.95,847.9L3608.52,847.9L3615.09,847.9L3621.67,847.9L3634.81,847.9L3641.39,854.48L3647.96,854.48L3654.53,861.05L3661.1,861.05L3674.25,867.62L3680.82,867.62L3693.97,874.2L3700.54,874.2L3707.11,874.2L3713.69,874.2L3726.83,880.77L3733.41,880.77L3739.98,880.77L3753.13,880.77L3759.7,880.77L3766.27,887.34L3779.42,887.34L3785.99,887.34L3805.71,887.34L3825.43,880.77" fill="none" stroke="#000000" style="-webkit-tap-highlight-color: rgba(0, 0, 0, 0); stroke-linecap: round; stroke-linejoin: round; stroke-width: 19;" /><path d="M2938.09,900.49L2931.51,893.91L2951.23,887.34L2977.52,887.34L3010.39,880.77L3023.53,880.77L3036.68,880.77L3056.4,880.77L3069.54,874.2L3089.26,874.2L3108.98,867.62L3128.7,867.62L3141.85,861.05L3154.99,861.05L3168.14,861.05L3187.86,854.48L3201,854.48L3214.15,854.48L3227.29,847.9L3233.87,847.9L3247.01,847.9L3260.16,847.9L3279.88,841.33L3293.02,841.33L3306.17,834.76L3319.31,834.76L3325.89,834.76L3339.03,834.76L3352.18,828.19L3365.32,828.19L3371.9,828.19L3378.47,821.61L3391.62,821.61L3398.19,821.61L3404.76,821.61L3417.91,815.04L3424.48,815.04L3431.05,808.47L3437.63,808.47L3444.2,808.47L3450.77,801.89L3457.34,801.89L3463.92,801.89L3470.49,801.89L3483.64,795.32L3490.21,795.32L3503.36,795.32L3516.5,788.75L3536.22,788.75L3549.37,788.75" fill="none" stroke="#000000" style="-webkit-tap-highlight-color: rgba(0, 0, 0, 0); stroke-linecap: round; stroke-linejoin: round; stroke-width: 19;" /><path d="M3680.82,782.17L3674.25,775.6L3674.25,769.03L3667.68,782.17L3661.1,795.32L3661.1,808.47L3654.53,828.19L3654.53,841.33L3654.53,847.9L3654.53,861.05L3654.53,867.62" fill="none" stroke="#000000" style="-webkit-tap-highlight-color: rgba(0, 0, 0, 0); stroke-linecap: round; stroke-linejoin: round; stroke-width: 19;" /><path d="M3753.13,782.17L3746.55,782.17L3746.55,775.6L3746.55,782.17L3746.55,795.32L3746.55,815.04L3746.55,841.33L3739.98,867.62L3739.98,874.2" fill="none" stroke="#000000" style="-webkit-tap-highlight-color: rgba(0, 0, 0, 0); stroke-linecap: round; stroke-linejoin: round; stroke-width: 19;" /><path d="M2918.37,1091.1L2911.79,1091.1L2911.79,1097.67L2918.37,1097.67L2918.37,1104.25L2911.79,1110.82L2898.65,1117.39L2892.08,1123.97L2878.93,1130.54L2865.78,1130.54L2852.64,1137.11L2839.49,1143.68L2826.35,1150.26L2813.2,1150.26L2800.05,1156.83L2786.91,1169.98L2780.34,1176.55L2767.19,1183.12L2760.62,1183.12L2747.47,1189.69L2734.33,1196.27L2714.61,1202.84L2694.89,1209.41L2681.74,1215.99L2662.02,1215.99L2648.88,1222.56L2635.73,1229.13L2616.01,1229.13L2596.3,1235.7L2576.58,1248.85L2556.86,1255.42L2537.14,1262L2517.42,1268.57L2497.7,1275.14L2477.98,1281.72L2458.26,1288.29L2445.12,1294.86L2425.4,1301.43L2412.25,1314.58L2399.11,1321.15L2385.96,1327.73L2372.82,1334.3L2359.67,1340.87L2346.52,1347.44L2333.38,1354.02L2320.23,1367.16L2313.66,1373.74L2300.51,1380.31L2287.37,1386.88L2274.22,1393.45L2261.08,1400.03L2247.93,1406.6L2234.79,1406.6L2221.64,1413.17L2208.49,1419.75L2195.35,1426.32L2188.78,1432.89L2175.63,1439.46L2169.06,1446.04L2155.91,1452.61L2149.34,1459.18L2136.19,1465.76L2116.47,1472.33L2109.9,1478.9L2096.75,1478.9L2090.18,1485.48L2077.04,1492.05L2063.89,1498.62L2044.17,1505.19L2031.03,1511.77L2017.88,1511.77L1998.16,1518.34L1991.59,1518.34L1991.59,1524.91" fill="none" stroke="#000000" style="-webkit-tap-highlight-color: rgba(0, 0, 0, 0); stroke-linecap: round; stroke-linejoin: round; stroke-width: 19;" /><path d="M1472.33,1551.2L1472.33,1538.06L1478.9,1538.06L1492.05,1538.06L1505.19,1538.06L1524.91,1538.06L1538.06,1538.06L1557.78,1538.06L1570.92,1544.63L1590.64,1544.63L1610.36,1538.06L1623.51,1531.49L1643.22,1531.49L1662.94,1524.91L1669.52,1524.91L1682.66,1524.91L1695.81,1524.91L1708.95,1524.91L1722.1,1524.91L1735.25,1518.34L1741.82,1518.34L1754.96,1518.34L1768.11,1518.34L1781.26,1518.34L1794.4,1518.34L1807.55,1518.34L1820.69,1524.91L1840.41,1524.91L1853.56,1524.91L1866.7,1524.91L1879.85,1531.49L1892.99,1531.49L1899.57,1531.49L1912.71,1531.49L1925.86,1538.06L1939.01,1538.06L1952.15,1544.63L1965.3,1544.63L1978.44,1544.63L1991.59,1544.63L1998.16,1544.63" fill="none" stroke="#000000" style="-webkit-tap-highlight-color: rgba(0, 0, 0, 0); stroke-linecap: round; stroke-linejoin: round; stroke-width: 19;" /><path d="M26.29,1485.48L26.29,1478.9L32.86,1478.9L46.01,1478.9L59.16,1478.9L72.3,1478.9L92.02,1485.48L98.59,1485.48L111.74,1492.05L131.46,1498.62L144.6,1498.62L164.32,1498.62L184.04,1498.62L210.33,1498.62L223.48,1505.19L236.62,1505.19L256.34,1511.77L269.49,1511.77L289.21,1511.77L308.93,1505.19L322.07,1505.19L335.22,1505.19L341.79,1505.19L361.51,1505.19L368.08,1505.19L381.23,1498.62L394.37,1498.62L407.52,1498.62L420.67,1498.62L433.81,1498.62L446.96,1498.62L453.53,1492.05L460.1,1492.05L473.25,1492.05L479.82,1492.05L486.39,1492.05L499.54,1485.48L506.11,1485.48L512.69,1478.9L519.26,1478.9L525.83,1478.9L538.98,1478.9L545.55,1472.33L552.12,1472.33L558.7,1472.33L571.84,1472.33L578.42,1465.76L584.99,1465.76L591.56,1465.76L604.71,1465.76L617.85,1459.18L624.43,1452.61L637.57,1446.04L650.72,1446.04L657.29,1439.46L670.44,1432.89L683.58,1432.89L690.15,1426.32L703.3,1419.75L716.45,1413.17L723.02,1413.17L736.16,1406.6L755.88,1400.03L762.46,1393.45L775.6,1393.45L788.75,1386.88L801.89,1380.31L808.47,1380.31L821.61,1373.74L834.76,1367.16L841.33,1367.16L847.9,1367.16L861.05,1360.59L867.62,1360.59L880.77,1354.02L893.91,1354.02L900.49,1347.44L907.06,1347.44L920.21,1347.44L926.78,1347.44L933.35,1340.87L946.5,1340.87L953.07,1334.3L959.64,1334.3L966.22,1334.3L972.79,1327.73" fill="none" stroke="#000000" style="-webkit-tap-highlight-color: rgba(0, 0, 0, 0); stroke-linecap: round; stroke-linejoin: round; stroke-width: 19;" /><path d="M959.64,1354.02L966.22,1354.02L972.79,1347.44L979.36,1347.44L985.93,1347.44L999.08,1347.44L1018.8,1347.44L1025.37,1354.02L1038.52,1354.02L1051.66,1360.59L1071.38,1360.59L1084.53,1360.59L1097.67,1367.16L1110.82,1367.16L1123.97,1373.74L1143.68,1380.31L1156.83,1380.31L1169.98,1386.88L1183.12,1386.88L1189.69,1386.88L1196.27,1393.45L1202.84,1393.45L1209.41,1393.45L1222.56,1393.45L1229.13,1400.03L1235.7,1400.03L1248.85,1400.03L1255.42,1406.6L1268.57,1406.6L1275.14,1413.17L1281.72,1413.17L1294.86,1413.17L1308.01,1419.75L1314.58,1426.32L1327.73,1426.32L1334.3,1432.89L1347.44,1432.89L1354.02,1439.46L1360.59,1439.46L1367.16,1446.04L1373.74,1446.04L1380.31,1452.61L1386.88,1459.18L1393.45,1459.18L1400.03,1459.18L1406.6,1465.76L1413.17,1465.76L1419.75,1465.76L1426.32,1472.33L1432.89,1472.33L1439.46,1478.9L1446.04,1478.9L1452.61,1485.48L1459.18,1485.48L1465.76,1485.48L1472.33,1492.05L1478.9,1498.62L1485.48,1498.62L1492.05,1505.19L1498.62,1511.77L1505.19,1518.34L1505.19,1524.91L1511.77,1531.49L1518.34,1531.49" fill="none" stroke="#000000" style="-webkit-tap-highlight-color: rgba(0, 0, 0, 0); stroke-linecap: round; stroke-linejoin: round; stroke-width: 19;" /><path d="M1538.06,578.42L1538.06,571.84L1538.06,578.42L1538.06,584.99L1538.06,591.56L1531.49,598.13L1524.91,604.71L1518.34,611.28L1511.77,624.43L1505.19,637.57L1505.19,650.72L1498.62,657.29L1498.62,670.44L1498.62,683.58L1498.62,696.73L1498.62,709.87L1498.62,729.59L1498.62,742.74L1498.62,755.88L1498.62,769.03L1498.62,782.17L1498.62,795.32L1498.62,815.04L1498.62,828.19L1505.19,847.9L1505.19,861.05L1505.19,874.2L1505.19,887.34L1505.19,900.49L1505.19,920.21L1511.77,933.35L1511.77,953.07L1511.77,966.22L1511.77,985.93L1511.77,1005.65L1511.77,1018.8L1518.34,1031.95L1518.34,1051.66L1518.34,1064.81L1518.34,1077.96L1518.34,1097.67L1518.34,1110.82L1518.34,1130.54L1518.34,1143.68L1518.34,1156.83L1518.34,1169.98L1518.34,1183.12L1511.77,1196.27L1511.77,1209.41L1511.77,1222.56L1511.77,1242.28L1511.77,1255.42L1511.77,1262L1511.77,1281.72L1511.77,1288.29L1505.19,1301.43L1505.19,1314.58L1505.19,1321.15L1505.19,1334.3L1505.19,1340.87L1505.19,1347.44L1505.19,1360.59L1498.62,1380.31L1498.62,1393.45L1498.62,1400.03L1498.62,1413.17L1492.05,1426.32L1492.05,1452.61L1485.48,1478.9L1485.48,1498.62L1485.48,1511.77L1485.48,1518.34L1485.48,1531.49" fill="none" stroke="#000000" style="-webkit-tap-highlight-color: rgba(0, 0, 0, 0); stroke-linecap: round; stroke-linejoin: round; stroke-width: 19;" /><path d="M1511.77,598.13L1518.34,591.56L1524.91,584.99L1531.49,584.99L1544.63,578.42L1557.78,578.42L1570.92,578.42L1590.64,571.84L1610.36,571.84L1623.51,565.27L1636.65,565.27L1643.22,565.27L1656.37,565.27L1669.52,565.27L1682.66,565.27L1695.81,565.27L1708.95,571.84L1722.1,571.84L1728.67,578.42L1741.82,578.42L1748.39,578.42L1761.54,578.42L1768.11,578.42L1774.68,578.42L1781.26,578.42L1787.83,584.99L1794.4,584.99L1800.97,584.99L1807.55,584.99L1814.12,584.99L1814.12,591.56L1820.69,591.56L1827.27,591.56L1833.84,591.56L1840.41,591.56L1846.98,591.56L1853.56,598.13L1860.13,598.13L1866.7,598.13L1873.28,598.13L1879.85,598.13L1879.85,604.71L1886.42,604.71L1892.99,604.71L1899.57,604.71L1906.14,611.28L1912.71,611.28L1925.86,611.28L1939.01,611.28L1945.58,611.28L1952.15,611.28" fill="none" stroke="#000000" style="-webkit-tap-highlight-color: rgba(0, 0, 0, 0); stroke-linecap: round; stroke-linejoin: round; stroke-width: 19;" /><path d="M1781.26,604.71L1781.26,611.28L1781.26,637.57L1787.83,663.86L1787.83,683.58L1794.4,703.3L1794.4,723.02L1800.97,736.16L1800.97,755.88L1807.55,769.03L1807.55,782.17L1814.12,801.89L1814.12,815.04L1820.69,834.76L1827.27,847.9L1827.27,861.05L1833.84,874.2L1833.84,887.34L1833.84,893.91L1833.84,907.06L1833.84,913.63L1840.41,920.21L1840.41,933.35L1840.41,939.92L1840.41,946.5L1840.41,959.64L1840.41,966.22L1840.41,979.36L1840.41,985.93L1840.41,999.08L1840.41,1005.65L1840.41,1018.8L1840.41,1025.37L1840.41,1038.52L1840.41,1045.09L1840.41,1058.24L1840.41,1064.81L1840.41,1071.38L1846.98,1084.53L1846.98,1097.67L1846.98,1104.25L1846.98,1117.39L1846.98,1123.97L1846.98,1130.54L1846.98,1143.68L1846.98,1150.26L1846.98,1156.83L1846.98,1163.4L1846.98,1176.55L1846.98,1183.12L1846.98,1196.27L1846.98,1202.84L1846.98,1209.41L1853.56,1222.56L1853.56,1235.7L1860.13,1242.28L1860.13,1248.85L1860.13,1255.42L1860.13,1268.57L1860.13,1275.14L1860.13,1281.72L1860.13,1294.86L1860.13,1301.43L1860.13,1314.58L1860.13,1321.15L1860.13,1334.3L1860.13,1340.87L1853.56,1354.02L1853.56,1367.16L1846.98,1380.31L1846.98,1400.03L1840.41,1406.6L1840.41,1419.75L1833.84,1432.89L1833.84,1452.61L1827.27,1472.33L1827.27,1478.9L1827.27,1472.33" fill="none" stroke="#000000" style="-webkit-tap-highlight-color: rgba(0, 0, 0, 0); stroke-linecap: round; stroke-linejoin: round; stroke-width: 19;" /><path d="M2123.05,979.36L2116.47,979.36L2116.47,972.79L2116.47,966.22L2116.47,959.64L2116.47,966.22L2116.47,972.79L2116.47,985.93L2116.47,992.51L2116.47,999.08L2116.47,1005.65L2123.05,1012.23L2123.05,1018.8L2129.62,1018.8L2129.62,1012.23L2129.62,1005.65L2129.62,999.08L2129.62,992.51L2129.62,985.93L2129.62,979.36L2123.05,972.79L2129.62,959.64L2129.62,953.07" fill="none" stroke="#000000" style="-webkit-tap-highlight-color: rgba(0, 0, 0, 0); stroke-linecap: round; stroke-linejoin: round; stroke-width: 19;" /><path d="M1708.95,939.92L1708.95,933.35L1702.38,933.35L1702.38,926.78L1702.38,933.35L1702.38,939.92L1702.38,953.07L1702.38,959.64L1702.38,966.22L1702.38,972.79L1702.38,979.36L1702.38,985.93L1708.95,985.93L1715.53,985.93L1715.53,979.36L1722.1,972.79L1722.1,966.22L1722.1,953.07L1722.1,946.5L1722.1,933.35L1708.95,933.35L1702.38,926.78L1702.38,920.21L1695.81,913.63" fill="none" stroke="#000000" style="-webkit-tap-highlight-color: rgba(0, 0, 0, 0); stroke-linecap: round; stroke-linejoin: round; stroke-width: 19;" /><path d="M223.48,617.85L223.48,611.28L223.48,604.71L223.48,598.13L230.05,591.56L236.62,584.99L243.2,578.42L256.34,578.42L262.92,571.84L269.49,571.84L276.06,565.27L289.21,565.27L295.78,565.27L308.93,571.84L322.07,571.84L335.22,571.84L341.79,578.42L354.94,578.42L368.08,584.99L381.23,584.99L387.8,584.99L400.95,584.99L407.52,584.99L414.09,591.56L427.24,591.56L433.81,591.56L446.96,591.56L453.53,591.56L466.68,591.56L479.82,591.56L486.39,591.56L492.97,598.13L499.54,598.13L506.11,604.71L512.69,604.71L525.83,604.71L532.4,604.71L545.55,604.71L552.12,604.71L565.27,604.71L571.84,604.71L578.42,604.71L584.99,604.71L591.56,604.71L598.13,598.13L604.71,598.13L611.28,591.56L617.85,591.56L624.43,591.56L631,584.99L637.57,584.99L644.14,584.99L650.72,584.99L657.29,584.99L663.86,584.99L670.44,584.99L677.01,584.99L683.58,578.42L690.15,578.42L696.73,578.42L696.73,584.99L703.3,584.99L709.87,584.99L716.45,584.99L723.02,591.56L729.59,591.56L736.16,598.13L742.74,604.71L749.31,604.71L755.88,604.71L755.88,611.28L769.03,611.28L782.17,617.85L788.75,617.85L795.32,624.43L801.89,624.43L808.47,624.43L808.47,631L815.04,631L821.61,637.57L828.19,637.57L834.76,644.14L841.33,650.72L847.9,657.29L854.48,657.29L854.48,663.86L861.05,670.44L867.62,677.01L874.2,677.01L874.2,683.58L880.77,690.15L887.34,696.73L887.34,703.3L887.34,709.87L887.34,716.45L887.34,723.02L887.34,729.59L887.34,736.16L887.34,742.74L893.91,749.31L893.91,755.88L893.91,762.46L893.91,769.03L893.91,775.6L893.91,788.75L893.91,795.32L893.91,808.47L893.91,821.61L893.91,828.19L893.91,841.33L893.91,847.9L893.91,854.48L893.91,867.62L893.91,874.2L893.91,880.77L893.91,893.91L893.91,907.06L893.91,913.63L893.91,920.21L893.91,926.78L900.49,933.35L900.49,939.92L900.49,946.5L900.49,953.07L900.49,959.64L907.06,966.22L907.06,979.36L913.63,992.51L913.63,1005.65" fill="none" stroke="#000000" style="-webkit-tap-highlight-color: rgba(0, 0, 0, 0); stroke-linecap: round; stroke-linejoin: round; stroke-width: 19;" /><path d="M920.21,1012.23L913.63,1012.23L920.21,1018.8L920.21,1025.37L920.21,1031.95L920.21,1038.52L920.21,1045.09L920.21,1058.24L920.21,1071.38L920.21,1084.53L920.21,1097.67L920.21,1117.39L920.21,1130.54L920.21,1143.68L920.21,1156.83L920.21,1169.98L920.21,1183.12L920.21,1196.27L920.21,1209.41L920.21,1222.56L926.78,1235.7L926.78,1242.28L926.78,1255.42L926.78,1268.57L926.78,1275.14L926.78,1288.29L926.78,1301.43L926.78,1314.58L926.78,1327.73L926.78,1334.3L926.78,1340.87L933.35,1354.02" fill="none" stroke="#000000" style="-webkit-tap-highlight-color: rgba(0, 0, 0, 0); stroke-linecap: round; stroke-linejoin: round; stroke-width: 19;" /><path d="M893.91,696.73L900.49,690.15L907.06,683.58L926.78,677.01L939.92,670.44L953.07,670.44L972.79,670.44L985.93,670.44L999.08,663.86L1025.37,657.29L1031.95,657.29L1038.52,657.29L1045.09,657.29L1064.81,657.29L1084.53,657.29L1104.25,650.72L1117.39,644.14L1137.11,644.14L1150.26,644.14L1156.83,644.14L1163.4,644.14L1169.98,644.14L1183.12,644.14L1202.84,644.14L1215.99,644.14L1222.56,644.14L1235.7,644.14L1248.85,644.14L1268.57,644.14L1281.72,644.14L1294.86,644.14L1308.01,644.14L1321.15,644.14L1334.3,644.14L1347.44,644.14L1360.59,644.14L1373.74,644.14L1386.88,644.14L1393.45,644.14L1400.03,644.14L1406.6,644.14L1413.17,650.72L1419.75,650.72L1432.89,650.72L1446.04,650.72L1452.61,657.29L1465.76,657.29L1472.33,657.29L1485.48,657.29L1492.05,657.29L1505.19,657.29L1518.34,657.29" fill="none" stroke="#000000" style="-webkit-tap-highlight-color: rgba(0, 0, 0, 0); stroke-linecap: round; stroke-linejoin: round; stroke-width: 19;" /><path d="M230.05,611.28L230.05,624.43L223.48,650.72L223.48,683.58L223.48,703.3L223.48,723.02L216.91,736.16L216.91,755.88L216.91,769.03L210.33,782.17L210.33,795.32L203.76,801.89L203.76,815.04L197.19,828.19L197.19,841.33L197.19,847.9L190.61,854.48L190.61,861.05L190.61,874.2L184.04,887.34L184.04,893.91L184.04,900.49L177.47,907.06L177.47,913.63L177.47,920.21L177.47,926.78L177.47,933.35L170.9,939.92L170.9,946.5L164.32,953.07L164.32,959.64L157.75,966.22L151.18,972.79L144.6,979.36L138.03,985.93L131.46,992.51L118.31,999.08L111.74,1005.65L105.17,1012.23L98.59,1018.8L92.02,1018.8L85.45,1025.37L78.87,1031.95L72.3,1045.09L65.73,1051.66L59.16,1064.81L46.01,1071.38L39.44,1084.53L32.86,1091.1L19.72,1097.67L0,1117.39" fill="none" stroke="#000000" style="-webkit-tap-highlight-color: rgba(0, 0, 0, 0); stroke-linecap: round; stroke-linejoin: round; stroke-width: 19;" /><path d="M170.9,979.36L164.32,979.36L164.32,972.79L177.47,972.79L197.19,972.79L223.48,972.79L243.2,979.36L262.92,979.36L282.63,985.93L295.78,985.93L308.93,985.93L328.64,992.51L348.36,999.08L361.51,999.08L381.23,999.08L400.95,999.08L420.67,992.51L427.24,985.93" fill="none" stroke="#000000" style="-webkit-tap-highlight-color: rgba(0, 0, 0, 0); stroke-linecap: round; stroke-linejoin: round; stroke-width: 19;" /><path d="M269.49,611.28L262.92,604.71L262.92,624.43L282.63,657.29L289.21,683.58L295.78,709.87L302.35,723.02L308.93,742.74L315.5,762.46L322.07,782.17L328.64,801.89L328.64,815.04L335.22,834.76L341.79,847.9L348.36,867.62L348.36,880.77L354.94,893.91L361.51,907.06L368.08,920.21L368.08,933.35L374.66,946.5L381.23,959.64L387.8,979.36L387.8,992.51L394.37,999.08L400.95,1005.65L407.52,1012.23L420.67,1018.8" fill="none" stroke="#000000" style="-webkit-tap-highlight-color: rgba(0, 0, 0, 0); stroke-linecap: round; stroke-linejoin: round; stroke-width: 19;" /><path d="M453.53,1012.23L453.53,1005.65L466.68,999.08L479.82,999.08L499.54,992.51L519.26,992.51L532.4,992.51L558.7,992.51L571.84,992.51L584.99,992.51L598.13,992.51L617.85,999.08L631,999.08L650.72,999.08L663.86,999.08L683.58,999.08L696.73,999.08L703.3,999.08L716.45,999.08L729.59,1005.65L742.74,1005.65L749.31,1005.65L755.88,1005.65L769.03,1005.65L775.6,1012.23L782.17,1012.23L795.32,1012.23L808.47,1012.23L815.04,1012.23L821.61,1012.23L828.19,1012.23L834.76,1018.8L847.9,1018.8L861.05,1018.8L874.2,1018.8L887.34,1018.8L893.91,1018.8L907.06,1018.8L920.21,1018.8" fill="none" stroke="#000000" style="-webkit-tap-highlight-color: rgba(0, 0, 0, 0); stroke-linecap: round; stroke-linejoin: round; stroke-width: 19;" /><path d="M663.86,657.29L663.86,663.86L670.44,690.15L670.44,696.73L683.58,723.02L690.15,742.74L703.3,762.46L729.59,788.75L742.74,801.89L749.31,808.47L755.88,821.61L762.46,828.19L762.46,834.76L769.03,847.9L769.03,861.05L775.6,874.2L782.17,893.91L782.17,913.63L788.75,933.35L788.75,946.5L795.32,972.79L795.32,992.51L795.32,1012.23" fill="none" stroke="#000000" style="-webkit-tap-highlight-color: rgba(0, 0, 0, 0); stroke-linecap: round; stroke-linejoin: round; stroke-width: 19;" /></svg>