<?xml version="1.0" encoding="utf-8" ?>
<svg baseProfile="full" height="1622" version="1.1" width="2786" xmlns="http://www.w3.org/2000/svg" xmlns:ev="http://www.w3.org/2001/xml-events" xmlns:xlink="http://www.w3.org/1999/xlink"><defs /><path d="M424.39,486.8L419.4,486.8L414.41,491.79L409.41,496.79L404.42,506.77L399.43,516.76L394.43,526.74L394.43,536.73L389.44,546.72L384.45,556.7L379.46,561.69L379.46,571.68L374.46,581.66L374.46,591.65L374.46,596.64L369.47,606.63L369.47,616.61L364.48,621.61L364.48,631.59L364.48,641.58L364.48,651.56L359.48,661.55L359.48,666.54L354.49,671.54L354.49,676.53L349.5,686.51L344.51,691.51L344.51,696.5L339.51,701.49L339.51,711.48L334.52,716.47L329.53,726.46L329.53,731.45L324.53,736.44L319.54,746.43L319.54,751.42L314.55,761.41L309.56,771.39L309.56,776.39L304.56,786.37L299.57,796.36L299.57,806.34L299.57,816.33L294.58,821.32L294.58,826.31L289.58,831.31L289.58,836.3L289.58,841.29L284.59,841.29L284.59,846.28L279.6,846.28L274.61,851.28L264.62,856.27L254.63,856.27L249.64,861.26L239.66,866.26L234.66,871.25L229.67,876.24L219.68,881.23L209.7,891.22L194.72,896.21L184.73,906.2L174.75,911.19L169.76,916.18L159.77,921.18L154.78,926.17L149.78,931.16L144.79,936.16L139.8,946.14L134.81,951.13L134.81,956.13L129.81,961.12L129.81,966.11L124.82,976.1L124.82,986.08L119.83,991.08L119.83,1001.06L119.83,1011.05L119.83,1021.03L114.84,1026.03L114.84,1036.01L114.84,1046L114.84,1055.98L114.84,1060.98L114.84,1065.97L114.84,1070.96L114.84,1075.96L109.84,1080.95L109.84,1085.94L104.85,1090.93L99.86,1090.93L94.86,1095.93L89.87,1100.92L84.88,1105.91L79.89,1110.91L69.9,1120.89L59.91,1130.88L44.94,1140.86L34.95,1150.85L24.96,1155.84L9.99,1165.83L4.99,1170.82" fill="none" stroke="#000000" style="-webkit-tap-highlight-color: rgba(0, 0, 0, 0); stroke-linecap: round; stroke-linejoin: round; stroke-width: 13;" /><path d="M424.39,496.79L419.4,491.79L414.41,491.79L419.4,491.79L419.4,486.8L424.39,486.8L429.38,486.8L434.38,486.8L444.36,486.8L454.35,486.8L459.34,486.8L474.32,486.8L479.31,486.8L489.3,486.8L499.28,491.79L504.28,491.79L514.26,496.79L529.24,496.79L539.23,501.78L544.22,501.78L554.2,501.78L559.2,501.78L569.18,506.77L579.17,506.77L589.15,511.77L594.15,511.77L604.13,516.76L614.12,516.76L619.11,521.75L629.1,521.75L639.08,521.75L649.07,521.75L654.06,521.75L664.05,521.75L674.03,521.75L679.03,526.74L684.02,526.74L694,521.75L703.99,521.75L708.98,516.76L713.97,511.77L718.97,511.77L723.96,501.78L728.95,501.78L733.95,496.79L738.94,496.79L743.93,496.79L748.92,491.79L753.92,491.79L758.91,491.79L778.88,491.79L788.87,491.79L798.85,491.79L803.85,491.79L808.84,491.79L818.82,491.79L823.82,496.79L828.81,496.79L833.8,496.79L838.8,501.78L843.79,501.78L848.78,506.77L853.77,511.77L858.77,511.77L858.77,516.76L863.76,521.75L868.75,521.75L868.75,526.74L873.75,531.74L878.74,536.73L878.74,541.72L883.73,541.72L888.72,546.72L893.72,551.71L898.71,556.7L903.7,561.69L913.69,566.69L918.68,571.68L923.67,571.68L928.67,576.67L933.66,581.66L938.65,586.66L943.65,586.66L948.64,586.66L963.62,586.66" fill="none" stroke="#000000" style="-webkit-tap-highlight-color: rgba(0, 0, 0, 0); stroke-linecap: round; stroke-linejoin: round; stroke-width: 13;" /><path d="M948.64,591.65L953.63,591.65L963.62,591.65L983.59,591.65L998.57,591.65L1003.56,591.65L1023.53,591.65L1038.51,591.65L1048.49,591.65L1073.46,591.65L1088.44,586.66L1103.42,586.66L1113.4,586.66L1123.39,581.66L1138.37,576.67L1148.35,576.67L1163.33,571.68L1173.32,571.68L1183.3,571.68L1193.29,566.69L1203.27,566.69L1208.27,566.69L1218.25,566.69L1233.23,566.69L1243.22,561.69L1253.2,561.69L1268.18,561.69L1278.16,561.69L1293.14,561.69L1303.13,561.69L1318.11,556.7L1328.09,556.7L1343.07,556.7L1353.06,556.7L1368.04,556.7L1383.01,556.7L1397.99,556.7L1412.97,556.7L1427.95,556.7L1437.94,556.7L1452.91,556.7L1462.9,556.7L1472.89,556.7L1482.87,556.7L1492.86,556.7L1497.85,556.7L1507.84,561.69L1517.82,561.69L1522.81,561.69L1532.8,561.69L1542.78,561.69L1552.77,566.69L1562.76,566.69L1572.74,566.69L1582.73,566.69L1592.71,566.69L1602.7,566.69L1612.68,566.69L1622.67,566.69L1632.66,566.69L1637.65,566.69L1647.63,566.69L1652.63,566.69L1657.62,566.69L1657.62,561.69L1657.62,556.7L1662.61,551.71L1662.61,546.72L1662.61,536.73L1667.61,526.74L1667.61,521.75L1672.6,511.77L1677.59,501.78L1682.58,496.79L1682.58,491.79L1687.58,486.8L1692.57,481.81L1697.56,486.8L1702.56,486.8L1707.55,491.79L1712.54,491.79L1717.53,496.79L1722.53,501.78L1727.52,501.78L1732.51,501.78L1742.5,501.78L1747.49,501.78L1752.48,501.78L1757.48,501.78L1762.47,506.77L1767.46,506.77L1772.46,506.77L1777.45,506.77L1787.43,506.77L1792.43,511.77L1797.42,511.77L1807.41,511.77L1812.4,511.77L1822.38,511.77L1832.37,511.77L1837.36,511.77L1847.35,511.77L1852.34,511.77L1862.33,511.77L1872.31,511.77L1882.3,511.77L1892.28,511.77L1902.27,511.77L1912.25,511.77L1927.23,506.77L1937.22,506.77L1947.2,506.77L1952.2,506.77L1962.18,506.77L1972.17,506.77L1982.15,506.77L1992.14,506.77L2002.13,506.77L2012.11,506.77L2017.1,506.77L2037.08,506.77L2042.07,506.77L2052.05,506.77L2057.05,501.78L2062.04,501.78L2067.03,501.78L2072.03,501.78L2077.02,496.79L2082.01,496.79L2087,496.79L2092,496.79L2096.99,496.79L2101.98,496.79L2106.97,496.79L2111.97,496.79L2116.96,496.79L2121.95,496.79L2126.95,496.79L2131.94,496.79L2136.93,501.78L2141.92,501.78L2151.91,501.78L2156.9,506.77L2161.9,506.77L2166.89,506.77L2176.87,506.77L2181.87,511.77L2186.86,511.77L2191.85,511.77L2196.85,511.77L2201.84,511.77L2206.83,516.76L2211.82,516.76L2216.82,516.76L2221.81,516.76L2226.8,521.75L2231.8,526.74L2236.79,526.74L2236.79,531.74L2241.78,531.74L2241.78,536.73L2246.77,541.72L2251.77,546.72L2251.77,551.71L2256.76,556.7L2256.76,561.69L2261.75,566.69L2261.75,571.68L2266.75,571.68L2266.75,576.67L2271.74,576.67L2271.74,581.66L2276.73,581.66L2276.73,586.66L2281.72,586.66L2281.72,591.65L2281.72,596.64L2281.72,601.64" fill="none" stroke="#000000" style="-webkit-tap-highlight-color: rgba(0, 0, 0, 0); stroke-linecap: round; stroke-linejoin: round; stroke-width: 13;" /><path d="M2271.74,586.66L2276.73,591.65L2281.72,601.64L2301.7,606.63L2316.67,611.62L2326.66,616.61L2341.64,616.61L2351.62,621.61L2361.61,626.6L2371.59,631.59L2381.58,631.59L2391.57,636.59L2401.55,641.58L2411.54,641.58L2421.52,641.58L2426.52,646.57L2431.51,646.57L2436.5,646.57L2446.49,651.56L2451.48,651.56L2456.47,651.56L2461.47,656.56L2466.46,656.56L2471.45,656.56L2476.44,661.55L2481.44,661.55L2486.43,661.55L2491.42,656.56L2501.41,656.56L2506.4,656.56L2516.39,656.56L2521.38,651.56L2531.37,651.56L2536.36,651.56L2546.34,651.56L2551.34,651.56L2556.33,651.56L2566.32,651.56L2571.31,651.56L2576.3,651.56L2581.29,656.56L2586.29,656.56L2591.28,656.56L2596.27,656.56L2601.27,656.56L2606.26,656.56L2611.25,656.56L2611.25,661.55L2616.24,661.55L2616.24,666.54L2616.24,671.54L2616.24,676.53L2616.24,681.52L2616.24,686.51L2616.24,691.51L2616.24,696.5L2616.24,701.49L2616.24,706.49L2616.24,711.48L2621.24,716.47L2626.23,716.47L2626.23,721.46L2631.22,721.46L2641.21,726.46L2646.2,726.46L2651.19,731.45L2656.19,731.45L2666.17,736.44L2676.16,736.44L2686.14,741.44L2696.13,741.44L2706.11,746.43L2716.1,746.43L2726.09,751.42L2736.07,756.41L2751.05,756.41L2766.03,761.41L2781.01,761.41" fill="none" stroke="#000000" style="-webkit-tap-highlight-color: rgba(0, 0, 0, 0); stroke-linecap: round; stroke-linejoin: round; stroke-width: 13;" /><path d="M2606.26,716.47L2611.25,716.47L2606.26,716.47L2601.27,716.47L2596.27,716.47L2591.28,716.47L2581.29,716.47L2576.3,716.47L2571.31,716.47L2566.32,716.47L2561.32,716.47L2556.33,716.47L2551.34,716.47L2546.34,716.47L2541.35,716.47L2536.36,716.47L2531.37,716.47L2526.37,716.47L2521.38,716.47L2516.39,716.47L2511.39,721.46L2506.4,721.46L2506.4,726.46L2501.41,726.46L2501.41,731.45L2496.42,731.45L2491.42,736.44L2481.44,736.44L2476.44,741.44L2466.46,746.43L2461.47,746.43L2451.48,751.42L2446.49,761.41L2441.49,766.4L2431.51,766.4L2426.52,771.39L2421.52,776.39L2416.53,781.38L2411.54,781.38L2411.54,786.37L2401.55,796.36L2396.56,796.36L2391.57,801.35L2386.57,801.35L2381.58,806.34L2371.59,811.34L2366.6,816.33L2361.61,816.33L2356.62,821.32L2351.62,826.31L2346.63,826.31L2336.65,831.31L2331.65,836.3L2326.66,841.29L2321.67,846.28L2316.67,846.28L2311.68,851.28L2306.69,856.27L2296.7,861.26L2291.71,866.26L2286.72,871.25L2281.72,876.24L2276.73,881.23L2271.74,886.23L2266.75,891.22L2261.75,896.21L2256.76,906.2L2251.77,911.19L2241.78,916.18L2236.79,921.18L2231.8,926.17L2226.8,926.17L2221.81,931.16L2216.82,936.16L2211.82,941.15L2206.83,946.14L2206.83,951.13L2201.84,951.13L2201.84,956.13L2196.85,961.12L2191.85,966.11L2186.86,966.11L2186.86,971.11L2181.87,971.11L2181.87,976.1L2181.87,981.09L2181.87,986.08L2181.87,991.08L2181.87,996.07L2181.87,1006.06L2181.87,1011.05L2186.86,1021.03L2186.86,1026.03L2186.86,1031.02L2186.86,1041.01L2186.86,1046L2186.86,1050.99L2186.86,1055.98L2186.86,1060.98L2186.86,1065.97L2186.86,1070.96L2186.86,1075.96L2186.86,1080.95L2186.86,1085.94L2186.86,1090.93L2186.86,1095.93L2186.86,1100.92L2186.86,1105.91L2181.87,1110.91" fill="none" stroke="#000000" style="-webkit-tap-highlight-color: rgba(0, 0, 0, 0); stroke-linecap: round; stroke-linejoin: round; stroke-width: 13;" /><path d="M2181.87,1115.9L2176.87,1115.9L2176.87,1110.91L2176.87,1115.9L2171.88,1115.9L2166.89,1120.89L2161.9,1125.88L2156.9,1135.87L2146.92,1145.85L2136.93,1155.84L2126.95,1160.83L2121.95,1170.82L2116.96,1175.81" fill="none" stroke="#000000" style="-webkit-tap-highlight-color: rgba(0, 0, 0, 0); stroke-linecap: round; stroke-linejoin: round; stroke-width: 13;" /><path d="M2176.87,511.77L2171.88,511.77L2166.89,511.77L2171.88,511.77L2176.87,511.77L2176.87,521.75L2176.87,531.74L2176.87,546.72L2176.87,551.71L2176.87,561.69L2176.87,576.67L2176.87,586.66L2171.88,596.64L2171.88,611.62L2171.88,621.61L2171.88,631.59L2171.88,646.57L2171.88,656.56L2166.89,666.54L2166.89,676.53L2166.89,691.51L2161.9,701.49L2161.9,716.47L2161.9,731.45L2161.9,741.44L2161.9,756.41L2161.9,766.4L2161.9,781.38L2156.9,791.36L2156.9,801.35L2156.9,816.33L2156.9,831.31L2151.91,846.28L2151.91,856.27L2151.91,871.25L2146.92,886.23L2146.92,896.21L2146.92,906.2L2141.92,911.19L2141.92,921.18L2141.92,931.16L2141.92,946.14L2141.92,956.13L2141.92,966.11L2136.93,976.1L2136.93,986.08L2136.93,996.07L2136.93,1006.06L2136.93,1016.04L2136.93,1026.03L2136.93,1036.01L2131.94,1046L2131.94,1055.98L2131.94,1065.97L2131.94,1070.96L2126.95,1080.95L2126.95,1095.93L2126.95,1110.91L2126.95,1125.88L2121.95,1140.86L2121.95,1155.84L2116.96,1170.82L2116.96,1175.81L2126.95,1155.84L2126.95,1145.85" fill="none" stroke="#000000" style="-webkit-tap-highlight-color: rgba(0, 0, 0, 0); stroke-linecap: round; stroke-linejoin: round; stroke-width: 13;" /><path d="M2251.77,546.72L2246.77,546.72L2246.77,551.71L2246.77,561.69L2251.77,571.68L2251.77,581.66L2256.76,591.65L2261.75,601.64L2261.75,606.63L2266.75,616.61L2266.75,626.6L2266.75,636.59L2266.75,646.57L2266.75,651.56L2266.75,656.56L2266.75,666.54L2266.75,671.54L2271.74,681.52L2271.74,686.51L2276.73,696.5L2276.73,701.49L2276.73,711.48L2281.72,716.47L2281.72,721.46L2286.72,731.45L2286.72,736.44L2286.72,741.44L2291.71,741.44L2296.7,736.44L2301.7,736.44L2306.69,731.45L2311.68,731.45L2321.67,726.46L2326.66,721.46L2336.65,721.46L2341.64,716.47L2351.62,716.47L2356.62,716.47L2361.61,716.47L2366.6,711.48L2376.59,711.48L2381.58,706.49L2386.57,706.49L2391.57,701.49L2396.56,701.49L2401.55,701.49L2411.54,696.5L2416.53,691.51L2421.52,686.51L2426.52,686.51L2431.51,686.51L2436.5,686.51L2446.49,686.51L2451.48,681.52L2461.47,671.54L2471.45,671.54L2476.44,666.54L2486.43,661.55L2491.42,661.55L2501.41,656.56L2511.39,651.56L2526.37,641.58L2541.35,631.59L2546.34,631.59" fill="none" stroke="#000000" style="-webkit-tap-highlight-color: rgba(0, 0, 0, 0); stroke-linecap: round; stroke-linejoin: round; stroke-width: 13;" /><path d="M2231.8,1026.03L2226.8,1021.03L2221.81,1016.04L2216.82,1011.05L2216.82,1006.06L2211.82,1001.06L2206.83,1001.06L2201.84,1001.06L2201.84,996.07L2196.85,996.07L2196.85,1001.06L2196.85,1006.06L2206.83,1011.05L2216.82,1016.04L2231.8,1021.03L2246.77,1026.03L2261.75,1026.03L2276.73,1031.02L2291.71,1031.02L2311.68,1036.01L2336.65,1036.01L2361.61,1031.02L2381.58,1031.02L2401.55,1026.03L2421.52,1026.03L2441.49,1031.02L2466.46,1036.01L2486.43,1036.01L2511.39,1041.01L2536.36,1041.01L2566.32,1041.01L2601.27,1041.01" fill="none" stroke="#000000" style="-webkit-tap-highlight-color: rgba(0, 0, 0, 0); stroke-linecap: round; stroke-linejoin: round; stroke-width: 13;" /><path d="M2181.87,1195.78L2181.87,1190.79L2186.86,1185.8L2186.86,1180.8L2191.85,1175.81L2191.85,1180.8L2186.86,1185.8L2181.87,1195.78L2171.88,1205.77L2161.9,1220.75L2146.92,1235.73L2136.93,1250.7L2121.95,1265.68L2111.97,1280.66L2096.99,1295.64L2087,1305.63L2077.02,1315.61L2072.03,1315.61L2067.03,1315.61L2072.03,1315.61" fill="none" stroke="#000000" style="-webkit-tap-highlight-color: rgba(0, 0, 0, 0); stroke-linecap: round; stroke-linejoin: round; stroke-width: 13;" /><path d="M1667.61,556.7L1667.61,561.69L1662.61,566.69L1657.62,571.68L1652.63,576.67L1652.63,571.68L1652.63,566.69L1652.63,556.7L1652.63,551.71L1652.63,546.72L1657.62,556.7L1657.62,566.69L1657.62,576.67L1657.62,586.66L1657.62,601.64L1652.63,616.61L1652.63,626.6L1652.63,641.58L1647.63,651.56L1647.63,661.55L1642.64,676.53L1642.64,686.51L1642.64,701.49L1642.64,716.47L1642.64,726.46L1637.65,741.44L1637.65,756.41L1637.65,771.39L1637.65,786.37L1637.65,796.36L1637.65,811.34L1637.65,821.32L1637.65,836.3L1637.65,846.28L1637.65,856.27L1637.65,866.26L1637.65,876.24L1637.65,886.23L1637.65,896.21L1637.65,911.19L1642.64,921.18L1642.64,931.16L1642.64,941.15L1642.64,956.13L1642.64,966.11L1647.63,976.1L1647.63,986.08L1647.63,996.07L1647.63,1006.06L1652.63,1021.03L1652.63,1031.02L1652.63,1041.01L1652.63,1050.99L1652.63,1065.97L1652.63,1075.96L1652.63,1085.94L1652.63,1095.93L1647.63,1110.91L1647.63,1120.89L1647.63,1135.87L1647.63,1145.85L1642.64,1155.84L1642.64,1170.82L1642.64,1180.8L1637.65,1190.79L1632.66,1200.78L1632.66,1215.75L1627.66,1230.73L1627.66,1240.72L1622.67,1250.7L1622.67,1265.68L1622.67,1275.67L1622.67,1285.65L1617.68,1300.63L1617.68,1310.62L1617.68,1315.61L1617.68,1320.6L1617.68,1310.62L1622.67,1290.65" fill="none" stroke="#000000" style="-webkit-tap-highlight-color: rgba(0, 0, 0, 0); stroke-linecap: round; stroke-linejoin: round; stroke-width: 13;" /><path d="M2017.1,581.66L2012.11,556.7L2007.12,546.72L2002.13,541.72L1997.13,541.72L1997.13,551.71L1997.13,561.69L1997.13,571.68L1997.13,586.66L2002.13,601.64L2002.13,616.61L2007.12,631.59L2012.11,641.58L2017.1,656.56L2017.1,666.54L2017.1,681.52L2017.1,696.5L2017.1,711.48L2017.1,721.46L2017.1,726.46L2017.1,736.44L2012.11,751.42L2012.11,761.41L2007.12,776.39L2007.12,786.37L2007.12,801.35L2007.12,811.34L2007.12,826.31L2007.12,841.29L2007.12,856.27L2007.12,871.25L2007.12,881.23L2007.12,891.22L2007.12,901.21L2007.12,916.18L2007.12,926.17L2007.12,936.16L2007.12,946.14L2007.12,956.13L2002.13,961.12L2002.13,971.11L2002.13,976.1L2002.13,986.08L2002.13,991.08L2007.12,996.07L2007.12,1006.06L2007.12,1016.04L2012.11,1026.03L2012.11,1036.01L2012.11,1041.01L2017.1,1050.99L2017.1,1060.98L2022.1,1070.96L2022.1,1075.96L2022.1,1085.94L2022.1,1090.93L2027.09,1100.92L2027.09,1110.91L2027.09,1115.9L2032.08,1120.89L2032.08,1130.88L2032.08,1140.86L2037.08,1145.85L2037.08,1155.84L2042.07,1160.83L2042.07,1165.83L2042.07,1175.81L2042.07,1185.8L2047.06,1190.79L2047.06,1200.78L2052.05,1210.76L2057.05,1220.75L2057.05,1230.73L2062.04,1245.71L2067.03,1260.69L2072.03,1280.66L2077.02,1295.64L2087,1295.64" fill="none" stroke="#000000" style="-webkit-tap-highlight-color: rgba(0, 0, 0, 0); stroke-linecap: round; stroke-linejoin: round; stroke-width: 13;" /><path d="M2087,496.79L2092,496.79L2092,501.78L2092,506.77L2092,511.77L2087,516.76L2087,526.74L2082.01,531.74L2077.02,536.73L2072.03,541.72L2067.03,546.72L2062.04,551.71L2057.05,561.69L2052.05,571.68L2047.06,586.66L2042.07,596.64L2037.08,611.62L2037.08,626.6L2037.08,641.58L2037.08,651.56L2037.08,661.55L2037.08,666.54L2032.08,671.54L2027.09,676.53L2027.09,686.51L2022.1,696.5L2022.1,701.49" fill="none" stroke="#000000" style="-webkit-tap-highlight-color: rgba(0, 0, 0, 0); stroke-linecap: round; stroke-linejoin: round; stroke-width: 13;" /><path d="M1632.66,1305.63L1617.68,1305.63L1612.68,1300.63L1612.68,1305.63L1617.68,1310.62L1627.66,1315.61L1642.64,1315.61L1657.62,1315.61L1672.6,1315.61L1687.58,1315.61L1697.56,1315.61L1712.54,1315.61L1722.53,1315.61L1727.52,1315.61L1737.51,1315.61L1742.5,1315.61L1752.48,1315.61L1762.47,1315.61L1772.46,1320.6L1782.44,1320.6L1787.43,1320.6L1792.43,1315.61L1802.41,1315.61L1807.41,1310.62L1812.4,1310.62L1817.39,1305.63L1822.38,1305.63L1827.38,1300.63L1832.37,1295.64L1842.35,1295.64L1847.35,1290.65L1857.33,1285.65L1862.33,1280.66L1867.32,1280.66L1872.31,1280.66L1882.3,1280.66L1887.29,1280.66L1897.28,1280.66L1907.26,1280.66L1912.25,1275.67L1922.24,1275.67L1927.23,1275.67L1932.23,1275.67L1937.22,1275.67L1947.2,1275.67L1957.19,1275.67L1967.18,1275.67L1977.16,1275.67L1982.15,1275.67L1987.15,1275.67L1992.14,1275.67L2002.13,1275.67L2007.12,1275.67L2012.11,1280.66L2017.1,1280.66L2022.1,1280.66L2027.09,1280.66L2032.08,1280.66L2037.08,1280.66L2042.07,1280.66L2047.06,1280.66L2052.05,1280.66L2057.05,1285.65L2062.04,1285.65L2067.03,1285.65L2077.02,1290.65L2082.01,1290.65" fill="none" stroke="#000000" style="-webkit-tap-highlight-color: rgba(0, 0, 0, 0); stroke-linecap: round; stroke-linejoin: round; stroke-width: 13;" /><path d="M958.62,1140.86L953.63,1135.87L973.6,1145.85L988.58,1150.85L998.57,1155.84L1013.54,1160.83L1028.52,1160.83L1043.5,1165.83L1053.49,1170.82L1068.47,1175.81L1078.45,1180.8L1093.43,1180.8L1103.42,1185.8L1113.4,1185.8L1123.39,1190.79L1133.37,1190.79L1148.35,1195.78L1158.34,1195.78L1173.32,1200.78L1183.3,1205.77L1193.29,1205.77L1203.27,1210.76L1218.25,1215.75L1228.24,1215.75L1238.22,1220.75L1248.21,1220.75L1258.19,1225.74L1273.17,1230.73L1283.16,1230.73L1288.15,1230.73L1298.14,1230.73L1308.12,1235.73L1313.11,1235.73L1323.1,1240.72L1333.09,1245.71L1338.08,1245.71L1348.06,1250.7L1353.06,1250.7L1363.04,1255.7L1373.03,1255.7L1383.01,1255.7L1393,1255.7L1402.99,1255.7L1412.97,1255.7L1422.96,1255.7L1427.95,1260.69L1437.94,1260.69L1447.92,1260.69L1452.91,1265.68L1462.9,1265.68L1467.89,1265.68L1477.88,1270.68L1487.86,1270.68L1492.86,1275.67L1502.84,1275.67L1512.83,1275.67L1517.82,1275.67L1522.81,1275.67L1527.81,1280.66L1537.79,1280.66L1542.78,1285.65L1552.77,1285.65L1557.76,1285.65L1562.76,1285.65L1572.74,1290.65L1577.73,1290.65L1592.71,1290.65L1602.7,1290.65L1607.69,1295.64L1612.68,1295.64L1617.68,1300.63L1622.67,1300.63" fill="none" stroke="#000000" style="-webkit-tap-highlight-color: rgba(0, 0, 0, 0); stroke-linecap: round; stroke-linejoin: round; stroke-width: 13;" /><path d="M953.63,1135.87L948.64,1140.86L943.65,1140.86L938.65,1140.86L933.66,1140.86L928.67,1145.85L923.67,1145.85L913.69,1150.85L903.7,1155.84L893.72,1155.84L883.73,1160.83L873.75,1165.83L868.75,1170.82L858.77,1175.81L853.77,1180.8L848.78,1185.8L843.79,1185.8L833.8,1190.79L828.81,1195.78L818.82,1195.78L813.83,1200.78L808.84,1200.78L803.85,1200.78L798.85,1205.77L793.86,1205.77L783.87,1210.76L778.88,1210.76L773.89,1215.75L768.9,1215.75L758.91,1220.75L748.92,1225.74L738.94,1225.74L733.95,1230.73L723.96,1235.73L718.97,1240.72L713.97,1240.72L703.99,1240.72L699,1245.71L694,1250.7L684.02,1255.7L679.03,1255.7L674.03,1260.69L669.04,1260.69L664.05,1265.68L654.06,1270.68L649.07,1270.68L644.08,1270.68L639.08,1270.68L634.09,1270.68L629.1,1270.68L624.1,1270.68L614.12,1265.68L609.13,1265.68L604.13,1265.68L599.14,1260.69L594.15,1260.69L589.15,1260.69L584.16,1260.69L579.17,1265.68L574.18,1265.68L569.18,1270.68L564.19,1270.68L554.2,1270.68L549.21,1275.67L544.22,1280.66L534.23,1285.65L529.24,1285.65L519.25,1290.65L514.26,1295.64L509.27,1295.64L504.28,1300.63L499.28,1300.63L489.3,1305.63L479.31,1310.62L469.33,1315.61L459.34,1320.6L449.35,1325.6L439.37,1325.6L429.38,1325.6L419.4,1330.59L414.41,1330.59L409.41,1330.59L399.43,1335.58L394.43,1335.58L384.45,1335.58L379.46,1340.58L374.46,1340.58L369.47,1340.58L364.48,1340.58L354.49,1340.58L349.5,1340.58L344.51,1340.58L334.52,1335.58L324.53,1335.58L319.54,1335.58L309.56,1330.59L299.57,1330.59L289.58,1325.6L284.59,1320.6L274.61,1320.6L269.61,1320.6L259.63,1315.61L254.63,1315.61L244.65,1310.62L239.66,1310.62L229.67,1310.62L224.68,1305.63L214.69,1305.63L209.7,1305.63L199.71,1305.63L189.73,1300.63L184.73,1300.63L174.75,1295.64L169.76,1295.64L164.76,1290.65L159.77,1290.65L154.78,1290.65L149.78,1285.65L154.78,1280.66" fill="none" stroke="#000000" style="-webkit-tap-highlight-color: rgba(0, 0, 0, 0); stroke-linecap: round; stroke-linejoin: round; stroke-width: 13;" /><path d="M109.84,1080.95L104.85,1080.95L94.86,1080.95L104.85,1080.95L109.84,1085.94L114.84,1090.93L124.82,1090.93L134.81,1090.93L144.79,1090.93L149.78,1095.93L154.78,1105.91L159.77,1110.91L164.76,1115.9L164.76,1120.89L164.76,1125.88L164.76,1135.87L164.76,1140.86L164.76,1150.85L164.76,1155.84L164.76,1165.83L164.76,1175.81L164.76,1185.8L164.76,1195.78L164.76,1205.77L164.76,1220.75L164.76,1230.73L164.76,1245.71L164.76,1260.69L164.76,1275.67L164.76,1285.65L164.76,1290.65" fill="none" stroke="#000000" style="-webkit-tap-highlight-color: rgba(0, 0, 0, 0); stroke-linecap: round; stroke-linejoin: round; stroke-width: 13;" /><path d="M439.37,506.77L434.38,506.77L429.38,506.77L429.38,501.78L434.38,501.78L434.38,506.77L439.37,516.76L444.36,526.74L454.35,541.72L459.34,551.71L469.33,566.69L479.31,576.67L484.3,586.66L489.3,596.64L494.29,606.63L499.28,616.61L504.28,626.6L509.27,631.59L509.27,641.58L514.26,646.57L519.25,656.56L519.25,666.54L524.25,676.53L524.25,686.51L529.24,691.51L529.24,701.49L529.24,711.48L534.23,716.47L534.23,726.46L539.23,736.44L539.23,746.43L539.23,751.42L539.23,761.41L544.22,766.4L544.22,776.39L544.22,781.38L544.22,791.36L544.22,796.36L544.22,806.34L549.21,816.33L549.21,821.32L554.2,831.31L554.2,841.29L559.2,851.28L559.2,866.26L564.19,876.24L569.18,886.23L569.18,901.21L574.18,911.19L574.18,921.18L579.17,926.17" fill="none" stroke="#000000" style="-webkit-tap-highlight-color: rgba(0, 0, 0, 0); stroke-linecap: round; stroke-linejoin: round; stroke-width: 13;" /><path d="M943.65,596.64L938.65,596.64L938.65,591.65L938.65,596.64L938.65,601.64L933.66,616.61L933.66,631.59L928.67,646.57L928.67,661.55L928.67,676.53L928.67,691.51L928.67,706.49L928.67,716.47L933.66,731.45L933.66,741.44L933.66,751.42L933.66,766.4L933.66,781.38L933.66,791.36L933.66,801.35L933.66,816.33L938.65,826.31L938.65,836.3L938.65,851.28L938.65,866.26L943.65,876.24L943.65,891.22L943.65,901.21L943.65,916.18L943.65,926.17L943.65,936.16L943.65,946.14L943.65,956.13L943.65,971.11L943.65,981.09L948.64,991.08L948.64,1001.06L948.64,1011.05L948.64,1026.03L948.64,1036.01L948.64,1046L948.64,1055.98L948.64,1060.98L948.64,1070.96L948.64,1080.95L953.63,1085.94L953.63,1100.92L953.63,1110.91L953.63,1120.89L953.63,1130.88L953.63,1140.86L953.63,1145.85L953.63,1150.85L958.62,1150.85" fill="none" stroke="#000000" style="-webkit-tap-highlight-color: rgba(0, 0, 0, 0); stroke-linecap: round; stroke-linejoin: round; stroke-width: 13;" /><path d="M883.73,536.73L878.74,536.73L878.74,541.72L878.74,546.72L878.74,556.7L873.75,571.68L873.75,581.66L873.75,596.64L873.75,611.62L868.75,621.61L868.75,631.59L868.75,641.58L868.75,651.56L868.75,661.55L868.75,671.54L868.75,681.52L868.75,691.51L868.75,701.49L868.75,716.47L868.75,726.46L868.75,741.44L868.75,751.42L873.75,766.4L878.74,776.39L883.73,791.36L888.72,806.34L898.71,816.33L903.7,821.32L903.7,826.31L908.7,831.31" fill="none" stroke="#000000" style="-webkit-tap-highlight-color: rgba(0, 0, 0, 0); stroke-linecap: round; stroke-linejoin: round; stroke-width: 13;" /><path d="M699,516.76L689.01,516.76L684.02,516.76L684.02,531.74L684.02,541.72L684.02,556.7L689.01,566.69L689.01,576.67L699,586.66L708.98,591.65L718.97,601.64L728.95,606.63L738.94,616.61L743.93,621.61L753.92,631.59L758.91,641.58L763.9,651.56L768.9,666.54L768.9,676.53L768.9,691.51L773.89,691.51" fill="none" stroke="#000000" style="-webkit-tap-highlight-color: rgba(0, 0, 0, 0); stroke-linecap: round; stroke-linejoin: round; stroke-width: 13;" /><path d="M604.13,911.19L604.13,906.2L604.13,911.19L614.12,911.19L624.1,911.19L639.08,911.19L654.06,911.19L669.04,911.19L689.01,911.19L703.99,911.19L723.96,906.2L738.94,901.21L753.92,896.21L773.89,891.22L788.87,891.22L803.85,886.23L823.82,881.23L838.8,876.24L868.75,861.26" fill="none" stroke="#000000" style="-webkit-tap-highlight-color: rgba(0, 0, 0, 0); stroke-linecap: round; stroke-linejoin: round; stroke-width: 13;" /><path d="M604.13,921.18L599.14,921.18L594.15,921.18L594.15,926.17L599.14,936.16L604.13,951.13L609.13,961.12L614.12,971.11L619.11,981.09L624.1,991.08L629.1,1001.06L634.09,1011.05L634.09,1021.03L639.08,1031.02L639.08,1036.01L644.08,1046L649.07,1055.98L649.07,1065.97L649.07,1075.96L654.06,1085.94L654.06,1095.93L659.05,1115.9L664.05,1125.88L669.04,1135.87L669.04,1145.85L674.03,1155.84L679.03,1160.83L679.03,1170.82L684.02,1180.8L689.01,1190.79L694,1200.78L699,1210.76L703.99,1220.75L708.98,1225.74L708.98,1230.73" fill="none" stroke="#000000" style="-webkit-tap-highlight-color: rgba(0, 0, 0, 0); stroke-linecap: round; stroke-linejoin: round; stroke-width: 13;" /><path d="M314.55,826.31L309.56,826.31L314.55,831.31L319.54,836.3L324.53,841.29L329.53,841.29L339.51,841.29L354.49,841.29L359.48,846.28L369.47,846.28L379.46,851.28L394.43,851.28L404.42,856.27L419.4,856.27L424.39,856.27L434.38,856.27L444.36,856.27L449.35,856.27L459.34,856.27L464.33,856.27L474.32,861.26L479.31,861.26L484.3,866.26L494.29,866.26L499.28,871.25L504.28,871.25L509.27,876.24L514.26,876.24L524.25,881.23L529.24,886.23L534.23,891.22L544.22,896.21L549.21,901.21L554.2,906.2L564.19,916.18L569.18,921.18L579.17,931.16L594.15,931.16L614.12,931.16" fill="none" stroke="#000000" style="-webkit-tap-highlight-color: rgba(0, 0, 0, 0); stroke-linecap: round; stroke-linejoin: round; stroke-width: 13;" /><path d="M319.54,881.23L314.55,886.23L309.56,891.22L299.57,896.21L294.58,906.2L284.59,911.19L274.61,921.18L264.62,931.16L259.63,941.15L254.63,951.13L249.64,961.12L244.65,971.11L239.66,981.09L234.66,996.07L234.66,1016.04L229.67,1036.01L229.67,1055.98L224.68,1080.95L224.68,1105.91L224.68,1135.87L219.68,1160.83L214.69,1175.81" fill="none" stroke="#000000" style="-webkit-tap-highlight-color: rgba(0, 0, 0, 0); stroke-linecap: round; stroke-linejoin: round; stroke-width: 13;" /></svg>