<?xml version="1.0" encoding="utf-8" ?>
<svg baseProfile="full" height="3008" version="1.1" width="2000" xmlns="http://www.w3.org/2000/svg" xmlns:ev="http://www.w3.org/2001/xml-events" xmlns:xlink="http://www.w3.org/1999/xlink"><defs /><path d="M1212.77,973.4L1202.13,978.72L1196.81,978.72L1196.81,973.4L1202.13,973.4L1207.45,973.4L1212.77,973.4L1218.09,968.09L1223.4,968.09L1234.04,962.77L1244.68,957.45L1250,957.45L1250,952.13L1255.32,946.81L1255.32,941.49L1255.32,936.17L1255.32,925.53L1255.32,920.21L1255.32,914.89L1255.32,909.57L1255.32,898.94L1250,893.62L1250,888.3L1250,877.66L1250,872.34L1255.32,867.02L1255.32,861.7L1255.32,856.38L1260.64,851.06L1260.64,845.74L1265.96,840.43L1265.96,835.11L1265.96,829.79L1271.28,829.79L1276.6,824.47L1281.91,824.47L1287.23,824.47L1292.55,819.15L1303.19,819.15L1313.83,819.15L1319.15,819.15L1329.79,819.15L1335.11,819.15L1340.43,819.15L1345.74,819.15L1351.06,819.15L1372.34,819.15L1382.98,819.15L1393.62,824.47L1404.26,824.47L1414.89,824.47L1420.21,824.47L1425.53,824.47L1430.85,824.47L1436.17,824.47L1446.81,824.47L1457.45,824.47L1468.09,824.47L1473.4,824.47L1484.04,824.47L1489.36,824.47L1494.68,824.47L1500,824.47L1510.64,824.47L1515.96,824.47L1526.6,824.47L1537.23,824.47L1542.55,824.47L1553.19,819.15L1563.83,819.15L1574.47,819.15L1585.11,819.15L1595.74,819.15L1611.7,819.15L1622.34,813.83L1638.3,808.51L1648.94,808.51L1659.57,803.19L1670.21,803.19L1686.17,797.87L1702.13,797.87L1718.09,797.87L1728.72,797.87L1739.36,797.87L1750,797.87L1760.64,797.87L1771.28,797.87L1787.23,797.87L1803.19,797.87L1813.83,797.87L1829.79,797.87L1840.43,797.87L1845.74,797.87L1851.06,797.87L1861.7,797.87L1872.34,797.87L1882.98,797.87L1893.62,792.55L1898.94,792.55L1909.57,792.55L1925.53,792.55L1936.17,797.87L1952.13,797.87L1962.77,803.19L1968.09,803.19L1978.72,803.19L1984.04,803.19L1989.36,797.87L1994.68,797.87L1994.68,792.55" fill="none" stroke="#000000" style="-webkit-tap-highlight-color: rgba(0, 0, 0, 0); stroke-linecap: round; stroke-linejoin: round; stroke-width: 15;" /><path d="M1303.19,2180.85L1308.51,2175.53L1308.51,2170.21L1303.19,2164.89L1303.19,2154.26L1297.87,2148.94L1297.87,2138.3L1297.87,2132.98L1297.87,2122.34L1297.87,2117.02L1297.87,2106.38L1297.87,2101.06L1297.87,2090.43L1297.87,2079.79L1297.87,2074.47L1297.87,2063.83L1297.87,2053.19L1297.87,2042.55L1297.87,2031.91L1297.87,2021.28L1303.19,2010.64L1303.19,2000L1303.19,1989.36L1303.19,1978.72L1303.19,1962.77L1303.19,1946.81L1303.19,1930.85L1303.19,1920.21L1303.19,1904.26L1303.19,1893.62L1303.19,1882.98L1303.19,1872.34L1303.19,1861.7L1308.51,1851.06L1308.51,1840.43L1308.51,1829.79L1308.51,1824.47L1308.51,1813.83L1308.51,1808.51L1308.51,1797.87L1308.51,1787.23L1313.83,1781.91L1313.83,1771.28L1313.83,1760.64L1319.15,1755.32L1319.15,1750L1324.47,1744.68L1329.79,1739.36L1335.11,1734.04L1340.43,1723.4L1351.06,1718.09L1367.02,1702.13L1377.66,1696.81L1388.3,1691.49L1393.62,1686.17L1404.26,1680.85L1414.89,1675.53L1425.53,1675.53L1436.17,1670.21L1446.81,1670.21L1457.45,1675.53L1468.09,1680.85L1473.4,1680.85L1478.72,1686.17L1484.04,1691.49L1489.36,1702.13L1494.68,1707.45L1505.32,1712.77L1505.32,1718.09L1510.64,1723.4L1510.64,1734.04L1510.64,1744.68L1510.64,1755.32L1510.64,1765.96L1510.64,1776.6L1510.64,1787.23L1510.64,1803.19L1510.64,1813.83L1510.64,1824.47L1510.64,1835.11L1510.64,1840.43L1510.64,1851.06L1510.64,1867.02L1510.64,1882.98L1510.64,1893.62L1510.64,1904.26L1510.64,1914.89L1510.64,1930.85L1510.64,1941.49L1510.64,1952.13L1505.32,1962.77L1505.32,1973.4L1505.32,1984.04L1505.32,1994.68L1505.32,2005.32L1505.32,2010.64L1505.32,2015.96L1505.32,2021.28L1505.32,2026.6L1510.64,2037.23L1510.64,2042.55L1510.64,2053.19L1515.96,2063.83L1515.96,2074.47L1521.28,2090.43L1521.28,2101.06L1521.28,2111.7L1521.28,2122.34L1521.28,2127.66L1515.96,2132.98L1510.64,2132.98L1510.64,2138.3L1510.64,2143.62L1510.64,2148.94L1510.64,2154.26L1510.64,2159.57L1515.96,2170.21L1515.96,2186.17L1515.96,2202.13L1515.96,2212.77L1515.96,2218.09L1515.96,2223.4L1515.96,2228.72L1510.64,2234.04L1510.64,2239.36L1510.64,2244.68L1515.96,2244.68" fill="none" stroke="#000000" style="-webkit-tap-highlight-color: rgba(0, 0, 0, 0); stroke-linecap: round; stroke-linejoin: round; stroke-width: 15;" /><path d="M1303.19,2202.13L1297.87,2207.45L1287.23,2218.09L1281.91,2228.72L1276.6,2234.04L1271.28,2239.36L1271.28,2244.68L1281.91,2244.68L1297.87,2239.36L1303.19,2239.36L1324.47,2234.04L1351.06,2234.04L1377.66,2234.04L1398.94,2234.04L1414.89,2234.04L1430.85,2234.04L1441.49,2234.04L1457.45,2234.04L1468.09,2228.72L1478.72,2223.4L1489.36,2218.09L1494.68,2218.09L1500,2212.77L1500,2207.45" fill="none" stroke="#000000" style="-webkit-tap-highlight-color: rgba(0, 0, 0, 0); stroke-linecap: round; stroke-linejoin: round; stroke-width: 15;" /><path d="M1281.91,2111.7L1281.91,2106.38L1276.6,2106.38L1281.91,2111.7L1292.55,2117.02L1303.19,2127.66L1319.15,2132.98L1345.74,2132.98L1372.34,2127.66L1393.62,2122.34L1409.57,2117.02L1430.85,2111.7L1441.49,2111.7L1452.13,2111.7L1462.77,2117.02L1462.77,2127.66L1462.77,2132.98L1457.45,2132.98" fill="none" stroke="#000000" style="-webkit-tap-highlight-color: rgba(0, 0, 0, 0); stroke-linecap: round; stroke-linejoin: round; stroke-width: 15;" /><path d="M1297.87,2042.55L1287.23,2042.55L1281.91,2042.55L1287.23,2047.87L1308.51,2047.87L1329.79,2047.87L1356.38,2047.87L1377.66,2047.87L1398.94,2037.23L1409.57,2031.91L1414.89,2026.6" fill="none" stroke="#000000" style="-webkit-tap-highlight-color: rgba(0, 0, 0, 0); stroke-linecap: round; stroke-linejoin: round; stroke-width: 15;" /><path d="M1292.55,2281.91L1287.23,2281.91L1281.91,2276.6L1276.6,2276.6L1271.28,2276.6L1265.96,2276.6L1260.64,2276.6L1255.32,2276.6L1255.32,2281.91L1250,2281.91L1250,2287.23L1255.32,2287.23L1271.28,2287.23L1292.55,2281.91L1313.83,2281.91L1335.11,2276.6L1356.38,2271.28L1377.66,2265.96L1393.62,2265.96L1409.57,2271.28L1420.21,2271.28L1441.49,2276.6L1452.13,2281.91L1468.09,2281.91L1489.36,2281.91L1510.64,2276.6L1526.6,2271.28L1542.55,2271.28L1563.83,2265.96L1579.79,2265.96L1601.06,2265.96L1622.34,2260.64L1638.3,2255.32L1659.57,2255.32L1675.53,2255.32L1691.49,2260.64L1707.45,2265.96L1728.72,2265.96L1744.68,2271.28L1755.32,2271.28L1771.28,2271.28L1787.23,2265.96L1803.19,2265.96L1813.83,2260.64L1829.79,2260.64L1840.43,2260.64L1851.06,2260.64L1867.02,2260.64L1877.66,2260.64L1893.62,2255.32L1909.57,2255.32L1925.53,2255.32L1936.17,2255.32L1946.81,2255.32L1957.45,2255.32L1973.4,2255.32L1984.04,2255.32L1989.36,2250L1994.68,2244.68L1989.36,2239.36L1984.04,2234.04" fill="none" stroke="#000000" style="-webkit-tap-highlight-color: rgba(0, 0, 0, 0); stroke-linecap: round; stroke-linejoin: round; stroke-width: 15;" /><path d="M1239.36,797.87L1234.04,797.87L1228.72,797.87L1223.4,797.87L1223.4,792.55L1218.09,787.23L1218.09,781.91L1218.09,771.28L1218.09,765.96L1218.09,760.64L1218.09,755.32L1212.77,765.96L1207.45,781.91L1207.45,803.19L1202.13,824.47L1202.13,845.74L1202.13,867.02L1202.13,882.98L1207.45,898.94L1207.45,914.89L1207.45,930.85L1207.45,946.81L1207.45,957.45L1207.45,973.4L1207.45,984.04L1207.45,994.68L1207.45,1005.32L1207.45,1015.96L1207.45,1026.6L1207.45,1037.23L1207.45,1053.19L1207.45,1063.83L1212.77,1079.79L1212.77,1090.43L1218.09,1101.06L1218.09,1111.7L1223.4,1117.02L1228.72,1127.66L1228.72,1143.62L1234.04,1154.26L1234.04,1170.21L1239.36,1180.85L1239.36,1196.81L1239.36,1207.45L1239.36,1218.09L1239.36,1228.72L1239.36,1239.36L1239.36,1250L1239.36,1260.64L1239.36,1271.28L1239.36,1281.91L1234.04,1297.87L1234.04,1308.51L1234.04,1319.15L1234.04,1329.79L1234.04,1340.43L1228.72,1351.06L1228.72,1361.7L1228.72,1377.66L1228.72,1393.62L1228.72,1409.57L1228.72,1420.21L1228.72,1436.17L1223.4,1468.09L1223.4,1489.36L1223.4,1505.32L1223.4,1521.28L1223.4,1537.23L1223.4,1547.87L1223.4,1553.19L1223.4,1569.15L1228.72,1585.11L1228.72,1601.06L1228.72,1617.02L1234.04,1632.98L1234.04,1654.26L1234.04,1670.21L1234.04,1680.85L1239.36,1696.81L1239.36,1707.45L1239.36,1718.09L1239.36,1734.04L1239.36,1750L1239.36,1765.96L1234.04,1787.23L1234.04,1803.19L1234.04,1813.83L1228.72,1835.11L1228.72,1845.74L1228.72,1861.7L1228.72,1872.34L1228.72,1882.98L1234.04,1898.94L1234.04,1914.89L1234.04,1930.85L1234.04,1946.81L1234.04,1962.77L1234.04,1973.4L1234.04,1989.36L1234.04,2010.64L1239.36,2026.6L1239.36,2042.55L1239.36,2063.83L1239.36,2079.79L1239.36,2101.06L1234.04,2127.66L1234.04,2143.62L1234.04,2159.57L1234.04,2175.53L1234.04,2191.49L1239.36,2196.81L1239.36,2202.13L1239.36,2207.45L1239.36,2212.77L1239.36,2223.4L1239.36,2228.72L1239.36,2239.36L1239.36,2250L1234.04,2260.64L1234.04,2271.28L1234.04,2276.6L1234.04,2281.91L1234.04,2287.23L1234.04,2297.87L1234.04,2303.19L1239.36,2308.51L1239.36,2319.15L1244.68,2329.79L1250,2340.43L1250,2345.74L1255.32,2361.7L1260.64,2372.34L1260.64,2382.98L1260.64,2393.62L1260.64,2404.26L1260.64,2420.21L1260.64,2430.85L1255.32,2452.13L1250,2473.4L1250,2500L1244.68,2521.28L1239.36,2537.23L1234.04,2553.19L1228.72,2558.51L1228.72,2563.83L1223.4,2563.83L1228.72,2558.51L1239.36,2547.87" fill="none" stroke="#000000" style="-webkit-tap-highlight-color: rgba(0, 0, 0, 0); stroke-linecap: round; stroke-linejoin: round; stroke-width: 15;" /><path d="M1186.17,765.96L1180.85,765.96L1175.53,765.96L1170.21,760.64L1164.89,755.32L1159.57,755.32L1159.57,750L1154.26,750L1154.26,744.68L1148.94,750L1143.62,755.32L1138.3,765.96L1132.98,776.6L1127.66,792.55L1127.66,808.51L1127.66,829.79L1127.66,856.38L1132.98,882.98L1132.98,904.26L1132.98,930.85L1132.98,952.13L1132.98,973.4L1127.66,989.36L1127.66,1000L1127.66,1015.96L1127.66,1031.91L1127.66,1047.87L1127.66,1063.83L1127.66,1074.47L1127.66,1085.11L1132.98,1095.74L1132.98,1106.38L1132.98,1117.02L1132.98,1132.98L1132.98,1148.94L1138.3,1164.89L1138.3,1175.53L1138.3,1186.17L1138.3,1202.13L1138.3,1212.77L1138.3,1223.4L1138.3,1234.04L1138.3,1239.36L1138.3,1250L1138.3,1260.64L1132.98,1271.28L1132.98,1276.6L1132.98,1287.23L1132.98,1297.87L1132.98,1308.51L1132.98,1319.15L1132.98,1335.11L1127.66,1356.38L1127.66,1367.02L1127.66,1377.66L1127.66,1388.3L1127.66,1404.26L1127.66,1420.21L1122.34,1436.17L1117.02,1452.13L1117.02,1462.77L1117.02,1478.72L1111.7,1494.68L1111.7,1505.32L1111.7,1521.28L1111.7,1531.91L1111.7,1542.55L1111.7,1553.19L1111.7,1563.83L1117.02,1579.79L1117.02,1590.43L1117.02,1601.06L1122.34,1617.02L1122.34,1632.98L1122.34,1648.94L1122.34,1664.89L1117.02,1680.85L1117.02,1691.49L1117.02,1707.45L1117.02,1723.4L1117.02,1734.04L1117.02,1750L1117.02,1760.64L1117.02,1771.28L1117.02,1787.23L1117.02,1792.55L1117.02,1803.19L1117.02,1813.83L1117.02,1824.47L1117.02,1835.11L1117.02,1845.74L1117.02,1856.38L1117.02,1867.02L1111.7,1882.98L1111.7,1893.62L1106.38,1909.57L1106.38,1925.53L1106.38,1936.17L1106.38,1946.81L1106.38,1962.77L1111.7,1973.4L1111.7,1989.36L1117.02,2000L1117.02,2010.64L1117.02,2031.91L1117.02,2047.87L1117.02,2069.15L1117.02,2085.11L1117.02,2095.74L1111.7,2106.38L1111.7,2122.34L1106.38,2143.62L1101.06,2159.57L1095.74,2175.53L1095.74,2191.49L1090.43,2207.45L1090.43,2218.09L1090.43,2228.72L1095.74,2239.36L1095.74,2228.72L1095.74,2223.4" fill="none" stroke="#000000" style="-webkit-tap-highlight-color: rgba(0, 0, 0, 0); stroke-linecap: round; stroke-linejoin: round; stroke-width: 15;" /><path d="M1223.4,776.6L1223.4,781.91L1223.4,787.23L1228.72,787.23L1228.72,781.91L1228.72,776.6L1223.4,765.96L1223.4,760.64L1218.09,750L1212.77,744.68L1202.13,739.36L1196.81,728.72L1191.49,723.4L1180.85,723.4L1175.53,718.09L1170.21,712.77L1164.89,712.77L1159.57,707.45L1154.26,696.81L1148.94,691.49L1148.94,680.85L1138.3,675.53L1132.98,670.21L1127.66,664.89L1122.34,659.57L1117.02,654.26L1111.7,654.26L1106.38,648.94L1106.38,643.62L1101.06,643.62L1101.06,638.3L1095.74,638.3L1090.43,638.3L1079.79,638.3L1074.47,638.3L1063.83,638.3L1053.19,638.3L1047.87,638.3L1042.55,638.3L1037.23,643.62L1031.91,648.94L1026.6,654.26L1021.28,659.57L1021.28,664.89L1015.96,664.89L1010.64,670.21L1005.32,675.53L1005.32,680.85L1000,686.17L994.68,691.49L994.68,696.81L994.68,702.13L994.68,707.45L1000,712.77L1005.32,718.09L1005.32,723.4L1005.32,728.72L1005.32,734.04L1000,734.04L994.68,734.04L984.04,728.72L978.72,723.4L978.72,718.09L973.4,707.45L973.4,702.13L973.4,696.81L973.4,691.49L973.4,686.17L973.4,680.85L968.09,675.53L968.09,670.21L968.09,664.89L968.09,659.57L962.77,659.57L962.77,654.26L962.77,648.94L957.45,648.94L957.45,643.62L952.13,638.3L946.81,632.98L941.49,632.98L936.17,632.98L930.85,632.98L925.53,638.3L920.21,638.3L914.89,643.62L909.57,643.62L909.57,638.3L909.57,632.98L909.57,627.66L909.57,617.02L914.89,606.38L914.89,595.74L920.21,590.43L920.21,579.79L920.21,569.15L920.21,563.83L920.21,558.51L920.21,547.87L920.21,542.55L920.21,537.23L914.89,531.91L909.57,526.6L909.57,521.28L904.26,521.28L898.94,515.96L893.62,510.64L888.3,505.32L882.98,505.32L877.66,500L872.34,500L867.02,494.68L861.7,494.68L856.38,489.36L845.74,489.36L840.43,484.04L835.11,484.04L824.47,478.72L819.15,478.72L813.83,473.4L803.19,473.4L803.19,468.09L797.87,468.09L792.55,468.09L787.23,468.09L781.91,468.09L776.6,462.77L771.28,462.77L765.96,457.45L760.64,452.13L755.32,446.81L750,441.49L744.68,441.49L744.68,436.17L739.36,436.17L734.04,436.17L728.72,436.17L723.4,436.17L712.77,441.49L702.13,446.81L691.49,452.13L680.85,452.13L664.89,457.45L654.26,457.45L643.62,462.77L632.98,462.77L627.66,462.77L617.02,468.09L611.7,468.09L601.06,468.09L595.74,468.09L585.11,468.09L574.47,468.09L563.83,473.4L553.19,478.72L542.55,484.04L537.23,489.36L531.91,489.36L526.6,494.68L521.28,494.68L515.96,494.68L505.32,500L500,500L494.68,505.32L489.36,505.32L484.04,505.32L484.04,510.64L478.72,510.64L473.4,515.96L473.4,521.28L473.4,526.6L473.4,537.23L468.09,542.55L468.09,553.19L468.09,558.51L468.09,563.83L468.09,569.15L468.09,579.79L468.09,585.11L468.09,590.43L468.09,595.74L468.09,601.06L468.09,606.38L468.09,611.7L468.09,617.02L468.09,622.34L468.09,627.66L462.77,632.98L462.77,638.3L457.45,643.62L457.45,648.94L457.45,654.26L452.13,659.57L452.13,664.89L446.81,670.21L446.81,675.53L446.81,680.85L446.81,686.17L441.49,691.49L441.49,696.81L436.17,702.13L436.17,707.45L436.17,712.77L430.85,718.09L430.85,723.4L425.53,728.72L425.53,734.04L420.21,739.36L414.89,744.68L414.89,750L409.57,755.32L404.26,760.64L398.94,765.96L393.62,771.28L382.98,771.28L377.66,776.6L367.02,776.6L361.7,781.91L356.38,787.23L351.06,787.23L345.74,792.55L345.74,797.87L340.43,797.87L340.43,803.19L340.43,808.51L335.11,808.51L335.11,813.83L329.79,813.83L329.79,819.15L324.47,824.47L324.47,829.79L324.47,835.11L324.47,840.43L324.47,845.74L319.15,845.74L319.15,851.06L319.15,856.38L313.83,861.7L308.51,861.7L308.51,867.02L303.19,872.34L297.87,877.66L292.55,882.98L287.23,882.98L281.91,888.3L281.91,893.62L276.6,893.62L271.28,898.94L265.96,904.26L260.64,909.57L260.64,914.89L255.32,920.21L250,925.53L250,930.85L244.68,936.17L244.68,941.49L239.36,946.81L239.36,952.13L239.36,957.45L244.68,962.77L244.68,968.09L244.68,973.4L244.68,978.72L244.68,984.04L244.68,989.36L244.68,994.68L239.36,1000L234.04,1005.32L228.72,1010.64L223.4,1015.96L223.4,1021.28L218.09,1026.6L212.77,1026.6L212.77,1031.91L207.45,1037.23L207.45,1042.55L202.13,1047.87L196.81,1053.19L196.81,1058.51L191.49,1063.83L186.17,1074.47L186.17,1079.79L180.85,1085.11L180.85,1095.74L175.53,1101.06L175.53,1111.7L170.21,1117.02L170.21,1127.66L170.21,1132.98L164.89,1143.62L164.89,1148.94L164.89,1154.26L159.57,1164.89L159.57,1170.21L159.57,1175.53L159.57,1180.85L159.57,1186.17L159.57,1191.49L154.26,1196.81L154.26,1202.13L154.26,1207.45L154.26,1212.77L154.26,1218.09L154.26,1223.4L154.26,1234.04L154.26,1239.36L154.26,1250L154.26,1255.32L159.57,1265.96L159.57,1271.28L159.57,1276.6L159.57,1281.91L159.57,1292.55L159.57,1297.87L159.57,1303.19L159.57,1313.83L159.57,1319.15L159.57,1329.79L154.26,1340.43L154.26,1351.06L154.26,1367.02L148.94,1377.66L148.94,1393.62L148.94,1404.26L148.94,1414.89L148.94,1430.85L148.94,1441.49L148.94,1446.81L154.26,1457.45L154.26,1468.09L154.26,1473.4L154.26,1484.04L154.26,1489.36L154.26,1494.68L154.26,1500L148.94,1505.32L148.94,1510.64L148.94,1515.96L148.94,1521.28L148.94,1526.6L148.94,1531.91L148.94,1537.23L148.94,1547.87L148.94,1558.51L143.62,1563.83L143.62,1574.47L143.62,1590.43L143.62,1601.06L138.3,1617.02L138.3,1627.66L132.98,1643.62L132.98,1654.26L132.98,1659.57L127.66,1670.21L127.66,1675.53L127.66,1680.85L127.66,1691.49L127.66,1702.13L122.34,1707.45L122.34,1718.09L117.02,1728.72L117.02,1739.36L117.02,1744.68L111.7,1755.32L111.7,1760.64L106.38,1765.96L106.38,1776.6L106.38,1787.23L101.06,1792.55L101.06,1803.19L95.74,1813.83L95.74,1824.47L90.43,1835.11L85.11,1845.74L85.11,1861.7L79.79,1872.34L79.79,1882.98L79.79,1893.62L79.79,1904.26L79.79,1909.57L79.79,1914.89L79.79,1920.21L85.11,1925.53L85.11,1930.85L85.11,1936.17L90.43,1941.49L90.43,1946.81L95.74,1952.13L95.74,1957.45L101.06,1962.77L101.06,1968.09L101.06,1973.4L101.06,1978.72L106.38,1984.04L106.38,1989.36L106.38,1994.68L111.7,2000L111.7,2010.64L111.7,2015.96L111.7,2021.28L117.02,2026.6L117.02,2031.91L117.02,2042.55L117.02,2047.87L117.02,2058.51L117.02,2069.15L117.02,2079.79L117.02,2090.43L117.02,2101.06L117.02,2111.7L117.02,2122.34L117.02,2132.98L117.02,2138.3L117.02,2148.94L117.02,2154.26L117.02,2159.57L117.02,2164.89L111.7,2164.89L111.7,2170.21L111.7,2175.53L106.38,2191.49L106.38,2202.13L106.38,2212.77L101.06,2223.4L95.74,2234.04L95.74,2244.68L90.43,2255.32L90.43,2265.96L85.11,2271.28L85.11,2276.6L79.79,2276.6L79.79,2281.91L74.47,2281.91L74.47,2287.23L69.15,2287.23L63.83,2281.91L58.51,2276.6L53.19,2271.28L42.55,2271.28L31.91,2271.28L21.28,2271.28L10.64,2271.28L5.32,2271.28L0,2271.28" fill="none" stroke="#000000" style="-webkit-tap-highlight-color: rgba(0, 0, 0, 0); stroke-linecap: round; stroke-linejoin: round; stroke-width: 15;" /><path d="M5.32,2265.96" fill="none" stroke="#000000" style="-webkit-tap-highlight-color: rgba(0, 0, 0, 0); stroke-linecap: round; stroke-linejoin: round; stroke-width: 15;" /><path d="M79.79,2356.38L69.15,2356.38L47.87,2356.38L37.23,2356.38L31.91,2356.38L37.23,2356.38L47.87,2351.06L58.51,2351.06L79.79,2345.74L101.06,2340.43L127.66,2340.43L148.94,2340.43L170.21,2340.43L186.17,2340.43L202.13,2340.43L218.09,2340.43L234.04,2340.43L250,2340.43L265.96,2345.74L281.91,2345.74L297.87,2345.74L313.83,2351.06L329.79,2351.06L351.06,2356.38L367.02,2356.38L388.3,2351.06L404.26,2345.74L420.21,2345.74L436.17,2345.74L457.45,2345.74L473.4,2345.74L494.68,2345.74L510.64,2345.74L526.6,2345.74L542.55,2351.06L558.51,2351.06L579.79,2351.06L595.74,2351.06L617.02,2351.06L632.98,2351.06L648.94,2351.06L670.21,2345.74L691.49,2340.43L707.45,2335.11L728.72,2335.11L744.68,2329.79L760.64,2329.79L771.28,2329.79L781.91,2329.79L797.87,2335.11L813.83,2335.11L829.79,2340.43L851.06,2340.43L867.02,2340.43L882.98,2345.74L898.94,2345.74L909.57,2345.74L925.53,2340.43L941.49,2340.43L957.45,2340.43L989.36,2335.11L1000,2335.11L1015.96,2335.11L1026.6,2335.11L1042.55,2335.11L1058.51,2335.11L1074.47,2340.43L1085.11,2345.74L1101.06,2351.06L1111.7,2356.38L1122.34,2356.38L1127.66,2361.7L1138.3,2361.7L1148.94,2361.7L1154.26,2356.38L1159.57,2351.06L1164.89,2351.06L1170.21,2345.74L1175.53,2345.74L1180.85,2345.74L1186.17,2345.74L1186.17,2340.43L1180.85,2340.43" fill="none" stroke="#000000" style="-webkit-tap-highlight-color: rgba(0, 0, 0, 0); stroke-linecap: round; stroke-linejoin: round; stroke-width: 15;" /><path d="M313.83,2164.89L303.19,2154.26L281.91,2148.94L271.28,2143.62L260.64,2143.62L250,2138.3L239.36,2138.3L228.72,2143.62L228.72,2148.94L234.04,2148.94L244.68,2148.94L265.96,2143.62L287.23,2138.3L313.83,2138.3L345.74,2132.98L367.02,2132.98L393.62,2138.3L420.21,2143.62L441.49,2148.94L462.77,2148.94L478.72,2148.94L500,2148.94L521.28,2154.26L542.55,2154.26L558.51,2154.26L579.79,2154.26L595.74,2148.94L617.02,2148.94L632.98,2143.62L654.26,2143.62L675.53,2143.62L691.49,2143.62L712.77,2143.62L728.72,2148.94L744.68,2148.94L765.96,2148.94L781.91,2148.94L803.19,2148.94L824.47,2148.94L840.43,2148.94L856.38,2154.26L872.34,2154.26L893.62,2154.26L909.57,2154.26L925.53,2154.26L936.17,2154.26L952.13,2154.26L962.77,2159.57L984.04,2159.57L1000,2164.89L1015.96,2164.89L1031.91,2164.89L1042.55,2159.57L1053.19,2154.26L1053.19,2148.94L1058.51,2148.94L1053.19,2154.26" fill="none" stroke="#000000" style="-webkit-tap-highlight-color: rgba(0, 0, 0, 0); stroke-linecap: round; stroke-linejoin: round; stroke-width: 15;" /><path d="M627.66,1186.17L627.66,1180.85L622.34,1180.85L617.02,1191.49L606.38,1196.81L601.06,1207.45L595.74,1212.77L590.43,1223.4L585.11,1234.04L579.79,1244.68L579.79,1250L574.47,1260.64L574.47,1265.96L574.47,1276.6L579.79,1281.91L579.79,1287.23L585.11,1297.87L585.11,1303.19L590.43,1308.51L595.74,1313.83L606.38,1313.83L611.7,1313.83L617.02,1313.83L622.34,1313.83L627.66,1308.51L638.3,1297.87L643.62,1287.23L648.94,1276.6L648.94,1265.96L654.26,1255.32L654.26,1244.68L654.26,1234.04L654.26,1223.4L654.26,1212.77L648.94,1207.45L638.3,1196.81L632.98,1191.49L622.34,1186.17L611.7,1180.85L606.38,1175.53L601.06,1170.21L595.74,1170.21L595.74,1175.53L590.43,1180.85L585.11,1191.49L585.11,1196.81L579.79,1202.13L579.79,1207.45L579.79,1212.77" fill="none" stroke="#000000" style="-webkit-tap-highlight-color: rgba(0, 0, 0, 0); stroke-linecap: round; stroke-linejoin: round; stroke-width: 15;" /><path d="M319.15,2718.09L313.83,2718.09L303.19,2712.77L303.19,2707.45L297.87,2702.13L292.55,2702.13L287.23,2702.13L281.91,2696.81L276.6,2691.49L271.28,2686.17L265.96,2675.53L265.96,2659.57L265.96,2648.94L265.96,2638.3L260.64,2622.34L255.32,2611.7L250,2606.38L250,2601.06L250,2595.74L255.32,2590.43L260.64,2590.43L271.28,2585.11L281.91,2579.79L297.87,2579.79L313.83,2574.47L329.79,2574.47L345.74,2574.47L361.7,2579.79L372.34,2590.43L377.66,2595.74L377.66,2606.38L382.98,2617.02L388.3,2622.34L393.62,2622.34L398.94,2622.34L409.57,2617.02L420.21,2611.7L425.53,2606.38L425.53,2595.74L430.85,2585.11L430.85,2579.79L425.53,2569.15L425.53,2558.51L420.21,2553.19L420.21,2547.87L425.53,2547.87L430.85,2547.87L436.17,2553.19L441.49,2553.19L452.13,2558.51L462.77,2558.51L478.72,2563.83L500,2569.15L515.96,2569.15L537.23,2569.15L553.19,2569.15L569.15,2563.83L585.11,2558.51L601.06,2553.19L617.02,2553.19L632.98,2553.19L643.62,2547.87L654.26,2547.87L664.89,2547.87L675.53,2542.55L691.49,2542.55L707.45,2537.23L723.4,2537.23L744.68,2537.23L760.64,2537.23L781.91,2542.55L797.87,2542.55L808.51,2537.23L819.15,2537.23L835.11,2537.23L840.43,2537.23L851.06,2537.23L867.02,2537.23L877.66,2537.23L888.3,2537.23L898.94,2537.23L914.89,2537.23L925.53,2537.23L941.49,2537.23L952.13,2537.23L962.77,2537.23L978.72,2537.23L989.36,2542.55L1005.32,2542.55L1021.28,2547.87L1031.91,2547.87L1053.19,2547.87L1074.47,2542.55L1095.74,2531.91L1127.66,2526.6L1154.26,2526.6L1170.21,2521.28L1186.17,2521.28L1202.13,2515.96L1218.09,2515.96L1228.72,2515.96L1234.04,2515.96L1228.72,2515.96L1228.72,2510.64L1228.72,2500L1228.72,2494.68L1228.72,2484.04L1223.4,2473.4L1223.4,2462.77L1223.4,2457.45L1223.4,2452.13L1223.4,2446.81L1223.4,2441.49L1218.09,2436.17L1218.09,2441.49L1218.09,2446.81L1223.4,2452.13L1228.72,2452.13" fill="none" stroke="#000000" style="-webkit-tap-highlight-color: rgba(0, 0, 0, 0); stroke-linecap: round; stroke-linejoin: round; stroke-width: 15;" /><path d="M0,2664.89L0,2659.57L0,2654.26L0,2648.94L5.32,2648.94L10.64,2648.94L21.28,2654.26L31.91,2654.26L47.87,2659.57L63.83,2664.89L79.79,2670.21L95.74,2675.53L111.7,2686.17L127.66,2691.49L143.62,2691.49L159.57,2696.81L175.53,2702.13L191.49,2702.13L207.45,2702.13L223.4,2707.45L239.36,2707.45L250,2707.45L260.64,2707.45L271.28,2702.13L276.6,2696.81L281.91,2691.49L281.91,2686.17L281.91,2680.85L287.23,2680.85" fill="none" stroke="#000000" style="-webkit-tap-highlight-color: rgba(0, 0, 0, 0); stroke-linecap: round; stroke-linejoin: round; stroke-width: 15;" /><path d="M1047.87,914.89L1042.55,909.57L1037.23,904.26L1031.91,898.94L1026.6,898.94L1021.28,904.26L1021.28,909.57L1021.28,914.89L1026.6,920.21L1026.6,930.85L1031.91,941.49L1037.23,952.13L1042.55,968.09L1047.87,984.04L1053.19,1000L1058.51,1015.96L1058.51,1031.91L1058.51,1053.19L1063.83,1069.15L1063.83,1085.11L1069.15,1095.74L1069.15,1111.7L1069.15,1122.34L1069.15,1143.62L1069.15,1159.57L1069.15,1170.21L1069.15,1180.85L1069.15,1196.81L1069.15,1207.45L1069.15,1218.09L1069.15,1234.04L1069.15,1250L1069.15,1260.64L1069.15,1276.6L1063.83,1292.55L1063.83,1308.51L1058.51,1319.15L1058.51,1335.11L1053.19,1345.74L1053.19,1361.7L1053.19,1377.66L1047.87,1388.3L1047.87,1404.26L1047.87,1420.21L1047.87,1441.49L1047.87,1462.77L1047.87,1473.4L1047.87,1484.04L1047.87,1494.68L1047.87,1505.32L1047.87,1515.96L1042.55,1537.23L1042.55,1553.19L1037.23,1569.15L1037.23,1579.79L1031.91,1590.43L1031.91,1601.06L1031.91,1611.7L1026.6,1627.66L1026.6,1632.98L1031.91,1643.62L1031.91,1648.94L1031.91,1659.57L1031.91,1664.89L1031.91,1670.21L1031.91,1680.85L1031.91,1686.17L1031.91,1696.81L1037.23,1707.45L1037.23,1718.09L1037.23,1734.04L1042.55,1744.68L1042.55,1760.64L1047.87,1771.28L1047.87,1781.91L1053.19,1797.87L1053.19,1813.83L1058.51,1829.79L1058.51,1845.74L1058.51,1861.7L1058.51,1877.66L1058.51,1893.62L1058.51,1914.89L1058.51,1930.85L1058.51,1946.81L1053.19,1962.77L1053.19,1978.72L1053.19,1994.68L1053.19,2005.32L1053.19,2015.96L1058.51,2021.28L1058.51,2031.91L1058.51,2042.55L1058.51,2053.19L1058.51,2063.83L1058.51,2074.47L1058.51,2085.11L1058.51,2090.43L1053.19,2101.06L1053.19,2117.02L1053.19,2127.66L1053.19,2138.3L1047.87,2148.94L1047.87,2159.57L1047.87,2164.89L1047.87,2159.57L1053.19,2148.94L1053.19,2132.98L1053.19,2117.02" fill="none" stroke="#000000" style="-webkit-tap-highlight-color: rgba(0, 0, 0, 0); stroke-linecap: round; stroke-linejoin: round; stroke-width: 15;" /><path d="M1026.6,776.6L1015.96,771.28L1005.32,765.96L994.68,765.96L989.36,760.64L978.72,760.64L973.4,760.64L962.77,760.64L957.45,760.64L957.45,755.32L952.13,755.32L946.81,755.32L946.81,760.64L946.81,765.96L946.81,771.28L952.13,776.6L957.45,787.23L968.09,797.87L984.04,808.51L994.68,824.47L1010.64,840.43L1021.28,856.38L1026.6,867.02L1031.91,877.66L1037.23,888.3L1037.23,904.26L1031.91,914.89L1026.6,930.85L1021.28,936.17L1021.28,941.49L1021.28,946.81L1026.6,952.13L1026.6,957.45L1031.91,962.77L1037.23,968.09L1042.55,973.4L1047.87,973.4L1053.19,973.4L1047.87,973.4L1047.87,978.72" fill="none" stroke="#000000" style="-webkit-tap-highlight-color: rgba(0, 0, 0, 0); stroke-linecap: round; stroke-linejoin: round; stroke-width: 15;" /><path d="M207.45,2143.62L207.45,2138.3L202.13,2132.98L196.81,2127.66L191.49,2122.34L186.17,2122.34L180.85,2122.34L180.85,2127.66L186.17,2138.3L186.17,2154.26L191.49,2180.85L191.49,2212.77L186.17,2234.04L180.85,2255.32L175.53,2265.96L175.53,2281.91L175.53,2292.55L170.21,2303.19L170.21,2319.15L170.21,2329.79L164.89,2345.74L164.89,2356.38L164.89,2361.7L164.89,2351.06L170.21,2340.43L170.21,2335.11" fill="none" stroke="#000000" style="-webkit-tap-highlight-color: rgba(0, 0, 0, 0); stroke-linecap: round; stroke-linejoin: round; stroke-width: 15;" /></svg>