<?xml version="1.0" encoding="utf-8" ?>
<svg baseProfile="full" height="2592" version="1.1" width="3872" xmlns="http://www.w3.org/2000/svg" xmlns:ev="http://www.w3.org/2001/xml-events" xmlns:xlink="http://www.w3.org/1999/xlink"><defs /><path d="M1700.23,614.34L1686.94,607.7L1686.94,614.34L1693.58,627.62L1693.58,640.91L1700.23,647.55L1700.23,660.83L1706.87,674.11L1720.15,687.4L1720.15,694.04L1720.15,700.68L1726.79,700.68L1726.79,713.96L1733.43,733.89L1733.43,747.17L1733.43,760.45L1733.43,780.38L1733.43,793.66L1733.43,806.94L1733.43,820.23L1733.43,826.87L1733.43,846.79L1733.43,866.72L1733.43,880L1733.43,899.92L1733.43,913.21L1733.43,919.85L1726.79,933.13L1726.79,953.06L1726.79,979.62L1726.79,986.26L1726.79,1006.19L1720.15,1026.11L1720.15,1046.04L1713.51,1072.6L1713.51,1085.89L1706.87,1099.17L1706.87,1119.09L1706.87,1139.02L1706.87,1152.3L1706.87,1165.58L1700.23,1185.51L1700.23,1205.43L1700.23,1225.36L1693.58,1238.64L1693.58,1258.57L1693.58,1278.49L1693.58,1291.77L1693.58,1311.7L1693.58,1331.62L1693.58,1351.55L1693.58,1364.83L1693.58,1384.75L1693.58,1398.04L1693.58,1411.32L1693.58,1424.6L1693.58,1451.17L1693.58,1464.45L1693.58,1471.09L1693.58,1477.74L1693.58,1491.02L1693.58,1504.3L1693.58,1517.58L1693.58,1524.23L1693.58,1530.87L1693.58,1537.51L1693.58,1544.15L1700.23,1550.79L1700.23,1557.43L1706.87,1564.08L1713.51,1570.72L1720.15,1577.36L1726.79,1577.36L1726.79,1584L1733.43,1590.64L1740.08,1597.28L1746.72,1603.92L1746.72,1610.57L1753.36,1617.21L1753.36,1623.85L1753.36,1630.49L1760,1637.13L1760,1643.77L1760,1650.42L1766.64,1657.06L1773.28,1670.34L1779.92,1676.98L1786.57,1676.98L1793.21,1683.62L1806.49,1690.26L1813.13,1696.91L1826.42,1696.91L1839.7,1696.91L1859.62,1690.26L1866.26,1683.62" fill="none" stroke="#000000" style="-webkit-tap-highlight-color: rgba(0, 0, 0, 0); stroke-linecap: round; stroke-linejoin: round; stroke-width: 19;" /><path d="M1673.66,614.34L1667.02,607.7L1667.02,601.06L1653.74,594.42L1647.09,594.42L1640.45,594.42L1627.17,587.77L1620.53,581.13L1607.25,581.13L1600.6,581.13L1593.96,581.13L1587.32,581.13L1574.04,581.13L1567.4,581.13L1554.11,587.77L1547.47,594.42L1534.19,594.42L1527.55,601.06L1514.26,601.06L1500.98,607.7L1487.7,614.34L1481.06,620.98L1467.77,620.98L1461.13,627.62L1454.49,627.62L1447.85,634.26L1434.57,634.26L1427.92,640.91L1414.64,647.55L1408,654.19L1401.36,654.19L1394.72,660.83L1388.08,667.47L1374.79,680.75L1368.15,687.4L1361.51,694.04L1354.87,700.68L1341.58,707.32L1334.94,713.96L1328.3,727.25L1321.66,733.89L1315.02,740.53L1308.38,753.81L1301.74,760.45L1295.09,767.09L1288.45,773.74L1281.81,773.74L1275.17,780.38L1268.53,787.02L1261.89,793.66L1255.25,800.3L1248.6,806.94L1241.96,806.94L1235.32,813.58L1228.68,813.58L1228.68,820.23L1222.04,820.23L1215.4,826.87L1215.4,840.15L1208.75,846.79L1202.11,853.43L1202.11,866.72L1195.47,886.64L1195.47,899.92L1188.83,919.85L1188.83,933.13L1182.19,953.06L1182.19,966.34L1175.55,979.62L1175.55,999.55L1168.91,1012.83L1168.91,1026.11L1162.26,1039.4L1162.26,1046.04L1162.26,1059.32L1155.62,1065.96L1148.98,1072.6L1148.98,1079.25L1142.34,1085.89L1142.34,1092.53L1135.7,1099.17L1129.06,1105.81L1122.42,1112.45L1122.42,1119.09L1115.77,1125.74L1115.77,1132.38L1115.77,1139.02L1115.77,1145.66L1109.13,1158.94L1109.13,1172.23L1109.13,1178.87L1109.13,1185.51L1109.13,1198.79L1109.13,1212.08L1109.13,1225.36L1109.13,1238.64L1102.49,1245.28L1102.49,1251.92L1102.49,1258.57L1095.85,1265.21L1089.21,1271.85L1082.57,1278.49L1075.92,1285.13L1062.64,1285.13L1049.36,1291.77L1042.72,1291.77L1029.43,1291.77L1016.15,1298.42L1002.87,1298.42L996.23,1298.42L989.58,1305.06L982.94,1305.06L982.94,1311.7L976.3,1318.34L976.3,1324.98L969.66,1331.62L969.66,1338.26L969.66,1344.91L969.66,1351.55L969.66,1358.19L969.66,1364.83L963.02,1371.47" fill="none" stroke="#000000" style="-webkit-tap-highlight-color: rgba(0, 0, 0, 0); stroke-linecap: round; stroke-linejoin: round; stroke-width: 19;" /><path d="M2005.74,773.74L1999.09,773.74L1999.09,787.02L1999.09,820.23L1999.09,866.72L1999.09,886.64L1999.09,906.57L1999.09,933.13L1999.09,959.7L1999.09,979.62L1999.09,999.55L1999.09,1019.47L1999.09,1039.4L1999.09,1052.68L1999.09,1079.25L1999.09,1099.17L1999.09,1119.09L1999.09,1139.02L1999.09,1152.3L1999.09,1172.23L1999.09,1192.15L1999.09,1205.43L1999.09,1225.36L1999.09,1238.64L1992.45,1258.57L1992.45,1278.49L1992.45,1298.42L1999.09,1318.34L1999.09,1331.62L1999.09,1344.91L2005.74,1364.83L2005.74,1378.11L2005.74,1391.4L2005.74,1404.68L2012.38,1417.96L2012.38,1431.25L2012.38,1451.17L2012.38,1464.45L2012.38,1477.74L2012.38,1491.02L2012.38,1510.94L2019.02,1524.23L2019.02,1544.15L2025.66,1564.08L2025.66,1584L2032.3,1603.92L2032.3,1617.21L2038.94,1637.13L2038.94,1643.77L2045.58,1623.85" fill="none" stroke="#000000" style="-webkit-tap-highlight-color: rgba(0, 0, 0, 0); stroke-linecap: round; stroke-linejoin: round; stroke-width: 19;" /><path d="M2005.74,773.74L1999.09,773.74L2005.74,773.74L2019.02,773.74L2032.3,767.09L2038.94,760.45L2045.58,760.45L2058.87,753.81L2065.51,753.81L2078.79,753.81L2092.08,753.81L2105.36,747.17L2118.64,747.17L2125.28,747.17L2138.57,747.17L2145.21,747.17L2151.85,747.17L2165.13,747.17L2171.77,747.17L2178.42,747.17L2185.06,747.17L2198.34,747.17L2204.98,747.17L2218.26,747.17L2224.91,747.17L2231.55,747.17L2238.19,747.17L2244.83,747.17L2258.11,753.81L2264.75,753.81L2271.4,753.81L2278.04,760.45L2284.68,760.45L2291.32,767.09L2297.96,767.09L2297.96,773.74L2304.6,773.74L2311.25,780.38L2317.89,787.02L2324.53,787.02L2331.17,793.66L2337.81,800.3L2337.81,806.94L2344.45,813.58L2351.09,813.58L2351.09,820.23L2357.74,826.87L2364.38,833.51L2364.38,840.15L2371.02,846.79L2377.66,853.43L2384.3,853.43L2384.3,860.08L2390.94,860.08L2397.58,866.72L2404.23,866.72L2404.23,873.36L2410.87,873.36L2410.87,880L2417.51,886.64L2417.51,893.28L2417.51,899.92L2417.51,906.57L2424.15,913.21L2424.15,926.49L2424.15,933.13L2424.15,939.77L2424.15,946.42L2424.15,959.7L2424.15,966.34L2424.15,972.98L2424.15,986.26L2430.79,992.91L2430.79,999.55L2430.79,1012.83L2430.79,1019.47L2437.43,1026.11L2437.43,1032.75L2437.43,1039.4L2437.43,1046.04L2444.08,1052.68L2444.08,1059.32L2450.72,1065.96L2450.72,1072.6L2457.36,1079.25L2464,1085.89L2470.64,1092.53L2470.64,1099.17L2470.64,1105.81L2470.64,1112.45L2470.64,1119.09L2470.64,1132.38L2477.28,1139.02L2477.28,1152.3L2477.28,1165.58L2477.28,1172.23L2477.28,1185.51L2477.28,1192.15L2477.28,1198.79L2477.28,1205.43L2477.28,1212.08L2477.28,1218.72L2477.28,1225.36L2477.28,1232L2477.28,1238.64L2483.92,1238.64L2483.92,1245.28L2490.57,1251.92L2497.21,1258.57L2497.21,1265.21L2503.85,1271.85L2503.85,1278.49L2503.85,1285.13L2503.85,1291.77L2503.85,1298.42L2503.85,1311.7L2503.85,1318.34L2503.85,1324.98L2503.85,1331.62L2510.49,1338.26L2510.49,1344.91L2510.49,1351.55L2517.13,1351.55L2517.13,1358.19L2523.77,1358.19L2530.42,1358.19L2537.06,1358.19L2543.7,1351.55L2550.34,1351.55L2556.98,1351.55L2563.62,1344.91L2570.26,1344.91L2576.91,1344.91L2583.55,1344.91L2590.19,1344.91L2596.83,1344.91L2603.47,1351.55L2610.11,1351.55L2616.75,1358.19L2623.4,1364.83L2630.04,1371.47L2636.68,1371.47L2643.32,1371.47L2643.32,1378.11L2649.96,1378.11L2656.6,1384.75L2663.25,1384.75L2669.89,1384.75L2676.53,1384.75L2683.17,1384.75L2689.81,1391.4L2696.45,1398.04L2703.09,1398.04L2703.09,1411.32L2703.09,1424.6L2703.09,1451.17L2703.09,1477.74L2703.09,1497.66L2703.09,1510.94L2703.09,1524.23L2703.09,1530.87L2703.09,1537.51" fill="none" stroke="#000000" style="-webkit-tap-highlight-color: rgba(0, 0, 0, 0); stroke-linecap: round; stroke-linejoin: round; stroke-width: 19;" /><path d="M2185.06,773.74L2185.06,780.38L2185.06,793.66L2185.06,806.94L2191.7,826.87L2198.34,853.43L2198.34,886.64L2198.34,913.21L2204.98,939.77L2204.98,966.34L2204.98,992.91L2204.98,1012.83L2204.98,1039.4L2198.34,1065.96L2198.34,1085.89L2198.34,1112.45L2198.34,1132.38L2198.34,1152.3L2198.34,1165.58L2198.34,1185.51L2198.34,1205.43L2198.34,1225.36L2198.34,1238.64L2198.34,1258.57L2198.34,1271.85L2198.34,1291.77L2198.34,1305.06L2198.34,1324.98L2198.34,1344.91L2198.34,1364.83L2198.34,1378.11L2198.34,1391.4L2198.34,1404.68L2198.34,1424.6L2198.34,1437.89L2198.34,1451.17L2198.34,1464.45L2198.34,1477.74L2204.98,1517.58L2204.98,1537.51L2204.98,1557.43L2211.62,1577.36L2218.26,1590.64L2224.91,1590.64L2231.55,1590.64" fill="none" stroke="#000000" style="-webkit-tap-highlight-color: rgba(0, 0, 0, 0); stroke-linecap: round; stroke-linejoin: round; stroke-width: 19;" /><path d="M2038.94,1643.77L2032.3,1643.77L2032.3,1637.13L2038.94,1630.49L2038.94,1623.85L2045.58,1617.21L2058.87,1610.57L2065.51,1603.92L2072.15,1597.28L2078.79,1597.28L2092.08,1597.28L2105.36,1590.64L2112,1584L2125.28,1584L2131.92,1584L2145.21,1584L2151.85,1584L2165.13,1584L2171.77,1590.64L2185.06,1590.64L2198.34,1590.64L2204.98,1590.64L2218.26,1597.28L2224.91,1597.28L2231.55,1597.28L2238.19,1597.28L2238.19,1603.92L2244.83,1610.57L2251.47,1617.21L2264.75,1623.85L2271.4,1630.49L2278.04,1637.13L2291.32,1637.13L2304.6,1643.77" fill="none" stroke="#000000" style="-webkit-tap-highlight-color: rgba(0, 0, 0, 0); stroke-linecap: round; stroke-linejoin: round; stroke-width: 19;" /><path d="M2284.68,1643.77L2278.04,1643.77L2271.4,1643.77L2284.68,1643.77L2297.96,1643.77L2311.25,1637.13L2337.81,1630.49L2357.74,1630.49L2384.3,1623.85L2397.58,1617.21L2417.51,1617.21L2430.79,1610.57L2450.72,1610.57L2470.64,1603.92L2490.57,1603.92L2510.49,1590.64L2530.42,1584L2550.34,1577.36L2563.62,1570.72L2583.55,1570.72L2596.83,1564.08L2610.11,1557.43L2630.04,1550.79L2643.32,1550.79L2663.25,1544.15L2676.53,1544.15L2689.81,1537.51L2703.09,1530.87L2716.38,1530.87L2723.02,1530.87" fill="none" stroke="#000000" style="-webkit-tap-highlight-color: rgba(0, 0, 0, 0); stroke-linecap: round; stroke-linejoin: round; stroke-width: 19;" /><path d="M2324.53,713.96L2311.25,707.32L2311.25,700.68L2317.89,694.04L2344.45,687.4L2357.74,687.4L2371.02,694.04L2384.3,700.68L2397.58,707.32L2410.87,707.32L2430.79,713.96L2444.08,727.25L2450.72,733.89L2464,747.17L2477.28,753.81L2483.92,767.09L2497.21,773.74L2503.85,787.02L2510.49,793.66L2523.77,806.94L2530.42,820.23L2537.06,826.87L2543.7,840.15L2556.98,846.79L2563.62,860.08L2576.91,866.72L2583.55,880L2590.19,886.64L2603.47,893.28L2610.11,899.92L2623.4,906.57L2630.04,913.21L2636.68,919.85L2643.32,926.49L2649.96,933.13L2663.25,939.77L2669.89,939.77L2676.53,946.42L2689.81,946.42L2696.45,953.06L2703.09,953.06L2709.74,959.7L2723.02,966.34L2729.66,966.34L2742.94,972.98L2749.58,972.98L2756.23,979.62L2769.51,979.62L2776.15,986.26L2782.79,992.91L2789.43,992.91L2796.08,999.55L2802.72,1006.19L2816,1006.19L2822.64,1012.83L2829.28,1019.47L2835.92,1026.11L2842.57,1032.75L2849.21,1039.4L2862.49,1046.04L2869.13,1052.68L2882.42,1052.68L2895.7,1059.32L2902.34,1065.96L2915.62,1072.6L2922.26,1079.25L2935.55,1085.89L2942.19,1092.53L2955.47,1099.17L2968.75,1105.81L2975.4,1112.45L2982.04,1119.09L2988.68,1132.38L2995.32,1139.02L3001.96,1145.66L3008.6,1152.3L3021.89,1158.94L3028.53,1165.58L3035.17,1172.23L3041.81,1178.87L3048.45,1185.51L3055.09,1198.79L3061.74,1205.43L3061.74,1212.08L3068.38,1218.72L3075.02,1232L3081.66,1238.64L3088.3,1245.28L3094.94,1251.92L3094.94,1258.57L3101.58,1265.21L3108.23,1271.85L3114.87,1278.49L3121.51,1285.13L3128.15,1291.77L3134.79,1298.42L3141.43,1305.06L3141.43,1311.7L3148.08,1318.34L3154.72,1318.34L3161.36,1324.98L3168,1331.62L3174.64,1338.26L3181.28,1344.91L3181.28,1351.55L3187.92,1358.19L3194.57,1364.83L3201.21,1371.47L3207.85,1378.11L3221.13,1384.75L3227.77,1391.4L3234.42,1391.4L3247.7,1404.68L3254.34,1404.68L3267.62,1411.32L3280.91,1417.96L3287.55,1424.6L3307.47,1424.6L3320.75,1431.25L3334.04,1437.89L3353.96,1451.17L3373.89,1457.81L3400.45,1464.45L3433.66,1471.09L3466.87,1471.09L3493.43,1471.09" fill="none" stroke="#000000" style="-webkit-tap-highlight-color: rgba(0, 0, 0, 0); stroke-linecap: round; stroke-linejoin: round; stroke-width: 19;" /><path d="M2590.19,1364.83L2596.83,1358.19L2603.47,1351.55L2610.11,1351.55L2616.75,1351.55L2630.04,1358.19L2649.96,1364.83L2669.89,1371.47L2696.45,1371.47L2723.02,1371.47L2742.94,1378.11L2762.87,1378.11L2782.79,1384.75L2802.72,1391.4L2829.28,1391.4L2855.85,1391.4L2882.42,1398.04L2902.34,1398.04L2922.26,1404.68L2942.19,1404.68L2962.11,1404.68L2982.04,1404.68L3008.6,1411.32L3021.89,1411.32L3041.81,1411.32L3061.74,1417.96L3088.3,1417.96L3108.23,1417.96L3128.15,1424.6L3154.72,1431.25L3181.28,1437.89L3201.21,1437.89L3221.13,1437.89L3241.06,1444.53L3254.34,1451.17L3267.62,1457.81L3280.91,1457.81L3294.19,1457.81L3314.11,1464.45L3327.4,1464.45L3340.68,1471.09L3360.6,1471.09L3387.17,1471.09L3400.45,1471.09L3420.38,1471.09L3433.66,1471.09L3453.58,1471.09" fill="none" stroke="#000000" style="-webkit-tap-highlight-color: rgba(0, 0, 0, 0); stroke-linecap: round; stroke-linejoin: round; stroke-width: 19;" /><path d="M33.21,129.51L19.92,129.51L13.28,136.15L19.92,136.15L26.57,136.15L39.85,136.15L53.13,129.51L66.42,129.51L86.34,129.51L99.62,129.51L119.55,129.51L139.47,129.51L159.4,129.51L172.68,129.51L192.6,129.51L205.89,136.15L225.81,136.15L245.74,136.15L259.02,136.15L278.94,136.15L292.23,136.15L305.51,142.79L325.43,142.79L338.72,142.79L358.64,142.79L371.92,149.43L385.21,156.08L405.13,156.08L425.06,162.72L444.98,162.72L458.26,162.72L471.55,162.72L484.83,169.36L498.11,176L511.4,176L524.68,182.64L531.32,182.64L544.6,189.28L551.25,195.92L557.89,195.92L564.53,202.57L577.81,209.21L584.45,209.21L591.09,215.85L591.09,222.49L604.38,222.49L611.02,229.13L617.66,235.77L624.3,242.42L637.58,242.42L644.23,249.06L650.87,255.7L657.51,255.7L664.15,262.34L670.79,268.98L677.43,268.98L684.08,275.62L690.72,275.62L697.36,282.26L704,282.26L717.28,282.26L723.92,288.91L737.21,288.91L750.49,288.91L770.42,288.91L783.7,288.91L796.98,288.91L810.26,288.91L830.19,288.91L843.47,282.26L856.75,282.26L876.68,275.62L889.96,275.62L903.25,275.62L916.53,275.62L923.17,275.62L936.45,275.62L949.74,275.62L963.02,275.62L969.66,275.62L982.94,275.62L996.23,275.62L1009.51,275.62L1022.79,275.62L1036.08,275.62L1049.36,282.26L1062.64,282.26L1075.92,282.26L1082.57,282.26L1095.85,282.26L1102.49,288.91L1109.13,288.91L1122.42,295.55L1129.06,295.55L1135.7,295.55L1142.34,295.55L1148.98,302.19L1155.62,302.19L1162.26,308.83L1168.91,308.83L1175.55,315.47L1182.19,315.47L1188.83,322.11L1195.47,322.11L1202.11,322.11L1208.75,328.75L1215.4,328.75L1222.04,335.4L1228.68,342.04L1235.32,348.68L1241.96,348.68L1248.6,355.32L1248.6,361.96L1255.25,368.6L1261.89,375.25L1268.53,375.25L1268.53,381.89L1275.17,381.89L1281.81,388.53L1288.45,395.17L1301.74,395.17L1308.38,395.17L1321.66,401.81L1328.3,401.81L1341.58,401.81L1354.87,401.81L1374.79,401.81L1388.08,401.81L1394.72,408.45L1408,408.45L1414.64,408.45L1427.92,415.09L1434.57,415.09L1441.21,415.09L1447.85,421.74L1454.49,421.74L1461.13,428.38L1467.77,428.38L1474.42,428.38L1487.7,428.38L1494.34,435.02L1500.98,435.02L1500.98,441.66L1507.62,441.66L1514.26,448.3L1520.91,448.3L1527.55,454.94L1534.19,461.58L1534.19,468.23L1547.47,468.23L1554.11,468.23L1560.75,474.87L1567.4,474.87L1574.04,481.51L1580.68,481.51L1593.96,488.15L1600.6,488.15L1607.25,494.79L1613.89,494.79L1627.17,501.43L1633.81,501.43L1647.09,508.08L1653.74,514.72L1667.02,514.72L1680.3,514.72L1693.58,521.36L1700.23,521.36L1713.51,528L1726.79,528L1746.72,528L1760,534.64L1773.28,534.64L1793.21,534.64L1806.49,534.64L1826.42,534.64L1846.34,534.64L1866.26,534.64L1886.19,541.28L1899.47,541.28L1919.4,541.28L1932.68,541.28L1945.96,541.28L1965.89,541.28L1979.17,541.28L1992.45,547.92L2005.74,547.92L2025.66,547.92L2038.94,547.92L2052.23,547.92L2065.51,547.92L2078.79,547.92L2092.08,547.92L2105.36,547.92L2118.64,547.92L2131.92,547.92L2145.21,547.92L2151.85,547.92L2165.13,547.92L2171.77,547.92L2178.42,547.92L2191.7,547.92L2204.98,547.92L2211.62,547.92L2218.26,547.92L2231.55,547.92L2238.19,547.92L2244.83,547.92L2251.47,547.92L2258.11,547.92L2271.4,547.92L2278.04,547.92L2284.68,547.92L2297.96,547.92L2304.6,547.92L2317.89,547.92L2324.53,554.57L2337.81,554.57L2344.45,561.21L2357.74,561.21L2371.02,561.21L2384.3,567.85L2390.94,567.85L2404.23,574.49L2417.51,574.49L2430.79,581.13L2437.43,581.13L2450.72,587.77L2457.36,587.77L2464,594.42L2470.64,594.42L2477.28,601.06L2483.92,601.06L2490.57,601.06L2497.21,601.06L2503.85,607.7L2510.49,607.7L2517.13,607.7L2530.42,614.34L2537.06,614.34L2550.34,620.98L2556.98,620.98L2570.26,620.98L2576.91,620.98L2590.19,627.62L2596.83,627.62L2610.11,634.26L2623.4,634.26L2630.04,634.26L2643.32,640.91L2656.6,640.91L2663.25,647.55L2676.53,647.55L2689.81,647.55L2703.09,647.55L2716.38,654.19L2729.66,654.19L2749.58,660.83L2756.23,660.83L2762.87,660.83L2776.15,667.47L2789.43,667.47L2802.72,674.11L2816,674.11L2822.64,680.75L2835.92,680.75L2849.21,687.4L2855.85,687.4L2862.49,694.04L2869.13,694.04L2875.77,694.04L2889.06,694.04L2895.7,694.04L2902.34,694.04L2908.98,694.04L2915.62,694.04L2922.26,694.04L2922.26,700.68L2928.91,700.68L2935.55,707.32L2935.55,713.96L2942.19,720.6L2942.19,727.25L2948.83,740.53L2948.83,747.17L2948.83,760.45L2955.47,767.09L2962.11,773.74L2962.11,780.38L2968.75,787.02L2968.75,793.66L2968.75,800.3L2975.4,806.94L2982.04,813.58L2988.68,820.23L2988.68,826.87L2995.32,833.51L3001.96,840.15L3008.6,846.79L3015.25,853.43L3021.89,853.43L3028.53,860.08L3035.17,860.08L3041.81,860.08L3048.45,853.43L3055.09,853.43L3061.74,840.15L3068.38,833.51L3075.02,826.87L3081.66,820.23L3088.3,813.58L3094.94,813.58L3101.58,806.94L3108.23,800.3L3114.87,793.66L3121.51,793.66L3128.15,787.02L3134.79,787.02L3141.43,780.38L3148.08,780.38L3154.72,780.38L3161.36,773.74L3168,773.74L3174.64,773.74L3187.92,773.74L3194.57,767.09L3201.21,767.09L3214.49,767.09L3227.77,767.09L3241.06,767.09L3247.7,767.09L3260.98,767.09L3267.62,767.09L3274.26,773.74L3287.55,773.74L3294.19,773.74L3300.83,780.38L3307.47,780.38L3314.11,780.38L3320.75,787.02L3334.04,787.02L3347.32,787.02L3360.6,787.02L3380.53,780.38L3393.81,780.38L3413.74,780.38L3427.02,780.38L3446.94,780.38L3460.23,773.74L3473.51,773.74L3486.79,773.74L3500.08,773.74L3513.36,773.74L3526.64,773.74L3539.92,773.74L3553.21,773.74L3566.49,773.74L3573.13,773.74L3586.42,773.74L3599.7,773.74L3612.98,767.09L3626.26,767.09L3632.91,767.09L3646.19,767.09L3666.11,767.09L3672.75,760.45L3686.04,760.45L3699.32,760.45L3719.25,760.45L3725.89,760.45L3739.17,760.45L3745.81,760.45L3752.45,760.45L3759.09,760.45L3772.38,760.45L3779.02,767.09L3785.66,767.09L3792.3,767.09L3798.94,767.09L3805.58,767.09L3812.23,767.09L3825.51,767.09L3838.79,767.09L3845.43,767.09L3858.72,773.74" fill="none" stroke="#000000" style="-webkit-tap-highlight-color: rgba(0, 0, 0, 0); stroke-linecap: round; stroke-linejoin: round; stroke-width: 19;" /><path d="M39.85,262.34L26.57,262.34L53.13,275.62L86.34,295.55L132.83,302.19L159.4,302.19L199.25,302.19L232.45,308.83L265.66,315.47L292.23,322.11L325.43,328.75L352,328.75L378.57,328.75L405.13,335.4L431.7,342.04L458.26,348.68L484.83,355.32L504.75,355.32L531.32,355.32L551.25,355.32L577.81,361.96L604.38,361.96L624.3,368.6L650.87,368.6L677.43,375.25L704,375.25L730.57,381.89L757.13,381.89L783.7,381.89L810.26,388.53L830.19,395.17L856.75,395.17L876.68,401.81L896.6,401.81L916.53,401.81L936.45,408.45L956.38,408.45L976.3,415.09L996.23,415.09L1009.51,421.74L1029.43,421.74L1049.36,428.38L1069.28,428.38L1082.57,435.02L1102.49,441.66L1122.42,441.66L1142.34,448.3L1162.26,448.3L1182.19,454.94L1202.11,461.58L1222.04,461.58L1241.96,461.58L1255.25,468.23L1275.17,468.23L1295.09,474.87L1315.02,474.87L1334.94,474.87L1354.87,481.51L1374.79,481.51L1388.08,488.15L1408,488.15L1427.92,488.15L1441.21,494.79L1461.13,494.79L1474.42,501.43L1487.7,501.43L1500.98,508.08L1514.26,508.08L1527.55,508.08L1540.83,514.72L1547.47,521.36L1560.75,521.36L1574.04,528L1593.96,528L1607.25,528L1620.53,534.64L1627.17,534.64L1640.45,541.28L1653.74,541.28L1667.02,541.28L1686.94,547.92L1700.23,547.92L1720.15,554.57L1733.43,554.57L1753.36,554.57L1779.92,561.21L1819.77,567.85L1866.26,581.13" fill="none" stroke="#000000" style="-webkit-tap-highlight-color: rgba(0, 0, 0, 0); stroke-linecap: round; stroke-linejoin: round; stroke-width: 19;" /><path d="M53.13,640.91L53.13,634.26L53.13,640.91L59.77,640.91L59.77,654.19L66.42,667.47L79.7,680.75L86.34,700.68L92.98,713.96L99.62,727.25L106.26,740.53L106.26,753.81L112.91,767.09L112.91,787.02L119.55,800.3L126.19,806.94L126.19,813.58L126.19,820.23L132.83,826.87L132.83,840.15L139.47,853.43L139.47,860.08L146.11,866.72L146.11,880L146.11,886.64L152.75,899.92L159.4,906.57L159.4,913.21L166.04,919.85L166.04,926.49L172.68,933.13L172.68,946.42L179.32,959.7L179.32,966.34L185.96,979.62L185.96,986.26L185.96,999.55L192.6,1012.83L199.25,1026.11L199.25,1046.04L205.89,1059.32L212.53,1079.25L219.17,1099.17L225.81,1119.09L225.81,1139.02L232.45,1158.94L232.45,1172.23L239.09,1185.51L245.74,1205.43L245.74,1218.72L252.38,1232L252.38,1245.28L259.02,1258.57L259.02,1271.85L259.02,1285.13L265.66,1298.42L272.3,1311.7L272.3,1324.98L278.94,1338.26L278.94,1351.55L278.94,1358.19L285.58,1371.47L285.58,1378.11L285.58,1391.4L292.23,1404.68L292.23,1411.32L292.23,1424.6L292.23,1431.25L292.23,1437.89L292.23,1451.17L292.23,1457.81L292.23,1471.09L285.58,1477.74L285.58,1484.38L298.87,1477.74" fill="none" stroke="#000000" style="-webkit-tap-highlight-color: rgba(0, 0, 0, 0); stroke-linecap: round; stroke-linejoin: round; stroke-width: 19;" /><path d="M112.91,1564.08L112.91,1570.72L112.91,1577.36L112.91,1584L119.55,1584L126.19,1584L139.47,1577.36L152.75,1564.08L179.32,1550.79L199.25,1544.15L225.81,1537.51L245.74,1530.87L272.3,1517.58L298.87,1510.94L318.79,1504.3L338.72,1497.66L352,1491.02L365.28,1484.38L378.57,1484.38L391.85,1477.74L405.13,1471.09L425.06,1464.45L438.34,1457.81L451.62,1457.81L458.26,1451.17L464.91,1451.17L478.19,1451.17L491.47,1444.53L498.11,1444.53L504.75,1437.89L511.4,1437.89L518.04,1431.25L524.68,1424.6L537.96,1424.6L544.6,1417.96L551.25,1417.96L557.89,1417.96L571.17,1417.96L577.81,1417.96L584.45,1417.96L584.45,1424.6L591.09,1417.96L597.74,1417.96L597.74,1411.32L604.38,1411.32L630.94,1384.75L644.23,1378.11L650.87,1371.47L664.15,1371.47L677.43,1371.47L697.36,1358.19L710.64,1351.55L717.28,1351.55L730.57,1344.91L737.21,1344.91L743.85,1344.91L750.49,1344.91L763.77,1338.26L777.06,1338.26L783.7,1338.26L796.98,1338.26L810.26,1338.26L816.91,1338.26L830.19,1338.26L836.83,1338.26L850.11,1338.26L863.4,1344.91L876.68,1344.91L896.6,1351.55L916.53,1351.55L929.81,1351.55L943.09,1358.19L949.74,1358.19L963.02,1364.83L976.3,1364.83L996.23,1371.47L1009.51,1371.47L1022.79,1371.47L1029.43,1371.47L1049.36,1371.47L1062.64,1378.11" fill="none" stroke="#000000" style="-webkit-tap-highlight-color: rgba(0, 0, 0, 0); stroke-linecap: round; stroke-linejoin: round; stroke-width: 19;" /><path d="M132.83,1570.72L132.83,1577.36L132.83,1584L139.47,1597.28L152.75,1610.57L166.04,1623.85L179.32,1637.13L199.25,1657.06L212.53,1670.34L232.45,1683.62L252.38,1696.91L272.3,1710.19L298.87,1716.83L312.15,1730.11L332.08,1736.75L352,1743.4L365.28,1756.68L378.57,1763.32L391.85,1769.96L411.77,1769.96L431.7,1776.6L444.98,1783.25L451.62,1789.89L458.26,1796.53L464.91,1803.17L478.19,1809.81L484.83,1816.45L491.47,1816.45L498.11,1823.09L504.75,1829.74L504.75,1836.38L518.04,1843.02L531.32,1856.3L544.6,1862.94L551.25,1869.58L557.89,1876.23L564.53,1876.23L571.17,1882.87L577.81,1889.51L584.45,1896.15L591.09,1896.15L597.74,1896.15L604.38,1902.79L611.02,1909.43L630.94,1922.72L644.23,1936L657.51,1949.28L670.79,1969.21L684.08,1982.49L697.36,1995.77L710.64,2009.06L717.28,2022.34L723.92,2035.62L737.21,2048.91L743.85,2062.19L750.49,2075.47L757.13,2095.4L763.77,2108.68L770.42,2121.96L777.06,2135.25L777.06,2148.53L783.7,2161.81L783.7,2181.74L783.7,2195.02L790.34,2208.3L790.34,2228.23L790.34,2241.51L790.34,2261.43L796.98,2274.72L803.62,2288L816.91,2294.64L823.55,2307.92L836.83,2314.57L850.11,2321.21L863.4,2327.85L876.68,2334.49L896.6,2341.13L916.53,2341.13L936.45,2334.49L956.38,2327.85L976.3,2327.85L996.23,2321.21L1016.15,2314.57L1036.08,2307.92L1056,2301.28L1075.92,2294.64L1095.85,2288L1109.13,2281.36L1129.06,2274.72L1155.62,2268.08L1175.55,2261.43L1202.11,2254.79L1222.04,2254.79L1235.32,2248.15L1255.25,2248.15L1275.17,2248.15L1295.09,2241.51L1308.38,2241.51L1321.66,2241.51L1334.94,2234.87L1348.23,2234.87L1361.51,2234.87L1381.43,2228.23L1401.36,2228.23L1414.64,2221.58L1427.92,2208.3L1441.21,2201.66L1454.49,2188.38L1474.42,2181.74L1481.06,2175.09L1494.34,2168.45L1494.34,2155.17L1500.98,2148.53L1500.98,2141.89L1507.62,2128.6L1507.62,2115.32L1507.62,2095.4L1507.62,2082.11L1507.62,2068.83L1507.62,2055.55L1507.62,2042.26L1500.98,2028.98L1500.98,2015.7L1500.98,1995.77L1494.34,1982.49L1487.7,1969.21L1481.06,1949.28L1474.42,1936L1467.77,1922.72L1461.13,1902.79L1454.49,1889.51L1441.21,1876.23L1434.57,1856.3L1427.92,1843.02L1414.64,1829.74L1408,1816.45L1401.36,1796.53L1394.72,1783.25L1388.08,1769.96L1381.43,1756.68L1374.79,1743.4L1361.51,1736.75L1354.87,1723.47L1348.23,1710.19L1334.94,1696.91L1321.66,1683.62L1315.02,1670.34L1301.74,1663.7L1288.45,1650.42L1275.17,1637.13L1261.89,1623.85L1248.6,1610.57L1228.68,1597.28L1215.4,1584L1208.75,1570.72L1195.47,1564.08L1188.83,1550.79L1182.19,1537.51L1175.55,1530.87L1162.26,1517.58L1155.62,1510.94L1148.98,1504.3L1135.7,1497.66L1129.06,1484.38L1122.42,1477.74L1109.13,1471.09L1109.13,1464.45L1102.49,1464.45" fill="none" stroke="#000000" style="-webkit-tap-highlight-color: rgba(0, 0, 0, 0); stroke-linecap: round; stroke-linejoin: round; stroke-width: 19;" /><path d="M1202.11,826.87L1208.75,833.51L1222.04,833.51L1235.32,840.15L1255.25,833.51L1275.17,833.51L1295.09,826.87L1321.66,820.23L1348.23,813.58L1368.15,813.58L1388.08,806.94L1408,806.94L1427.92,800.3L1441.21,793.66L1447.85,787.02L1461.13,787.02L1461.13,780.38L1467.77,780.38L1467.77,773.74L1467.77,767.09L1474.42,753.81L1474.42,740.53L1481.06,720.6L1481.06,694.04L1487.7,674.11L1494.34,660.83L1500.98,654.19L1507.62,647.55L1507.62,640.91L1514.26,640.91" fill="none" stroke="#000000" style="-webkit-tap-highlight-color: rgba(0, 0, 0, 0); stroke-linecap: round; stroke-linejoin: round; stroke-width: 19;" /><path d="M1175.55,1085.89L1168.91,1085.89L1168.91,1079.25L1168.91,1072.6L1168.91,1065.96L1182.19,1065.96L1195.47,1059.32L1215.4,1059.32L1235.32,1052.68L1255.25,1052.68L1275.17,1052.68L1288.45,1052.68L1315.02,1052.68L1328.3,1052.68L1341.58,1052.68L1348.23,1052.68L1354.87,1052.68L1354.87,1046.04L1361.51,1039.4L1361.51,1032.75L1368.15,1019.47L1368.15,1012.83L1368.15,999.55L1374.79,979.62L1374.79,966.34L1381.43,939.77L1381.43,919.85L1381.43,899.92L1381.43,880L1388.08,866.72L1388.08,860.08L1388.08,846.79L1388.08,840.15L1388.08,833.51L1381.43,846.79" fill="none" stroke="#000000" style="-webkit-tap-highlight-color: rgba(0, 0, 0, 0); stroke-linecap: round; stroke-linejoin: round; stroke-width: 19;" /><path d="M1102.49,1285.13L1095.85,1285.13L1089.21,1278.49L1089.21,1271.85L1095.85,1265.21L1109.13,1258.57L1129.06,1258.57L1148.98,1251.92L1162.26,1251.92L1182.19,1251.92L1202.11,1251.92L1228.68,1251.92L1241.96,1245.28L1255.25,1245.28L1261.89,1238.64L1268.53,1238.64L1275.17,1232L1281.81,1225.36L1288.45,1218.72L1288.45,1212.08L1295.09,1198.79L1295.09,1185.51L1295.09,1165.58L1301.74,1139.02L1308.38,1112.45L1315.02,1092.53L1315.02,1072.6L1315.02,1065.96" fill="none" stroke="#000000" style="-webkit-tap-highlight-color: rgba(0, 0, 0, 0); stroke-linecap: round; stroke-linejoin: round; stroke-width: 19;" /><path d="M1427.92,1796.53L1414.64,1803.17L1408,1803.17L1401.36,1803.17L1394.72,1803.17L1401.36,1803.17L1414.64,1796.53L1434.57,1789.89L1454.49,1783.25L1487.7,1776.6L1520.91,1776.6L1554.11,1769.96L1587.32,1763.32L1620.53,1756.68L1660.38,1750.04L1686.94,1743.4L1706.87,1736.75L1733.43,1730.11L1760,1723.47L1779.92,1723.47L1799.85,1716.83L1819.77,1716.83L1826.42,1716.83L1839.7,1710.19L1846.34,1710.19L1846.34,1703.55L1852.98,1703.55" fill="none" stroke="#000000" style="-webkit-tap-highlight-color: rgba(0, 0, 0, 0); stroke-linecap: round; stroke-linejoin: round; stroke-width: 19;" /><path d="M1527.55,2208.3L1520.91,2201.66L1507.62,2188.38L1507.62,2168.45L1514.26,2161.81L1534.19,2161.81L1547.47,2161.81L1567.4,2161.81L1587.32,2161.81L1607.25,2175.09L1627.17,2181.74L1647.09,2188.38L1673.66,2201.66L1693.58,2208.3L1706.87,2221.58L1720.15,2228.23L1740.08,2241.51L1753.36,2254.79L1760,2254.79L1793.21,2274.72L1813.13,2281.36L1833.06,2294.64L1846.34,2307.92L1866.26,2314.57L1879.55,2327.85L1899.47,2334.49L1906.11,2347.77L1919.4,2354.42L1926.04,2361.06L1932.68,2367.7L1945.96,2374.34L1959.25,2380.98L1965.89,2380.98L1979.17,2387.62L1985.81,2394.26L1992.45,2400.91L2005.74,2407.55L2025.66,2414.19L2038.94,2420.83L2045.58,2434.11L2065.51,2440.75L2078.79,2454.04L2092.08,2460.68L2105.36,2473.96L2125.28,2480.6L2138.57,2487.25L2158.49,2500.53L2171.77,2507.17L2191.7,2513.81L2204.98,2520.45L2224.91,2527.09L2238.19,2533.74L2264.75,2533.74L2284.68,2540.38L2297.96,2547.02" fill="none" stroke="#000000" style="-webkit-tap-highlight-color: rgba(0, 0, 0, 0); stroke-linecap: round; stroke-linejoin: round; stroke-width: 19;" /><path d="M1514.26,1969.21L1520.91,1962.57L1527.55,1962.57L1534.19,1962.57L1540.83,1969.21L1554.11,1969.21L1580.68,1969.21L1600.6,1962.57L1620.53,1962.57L1633.81,1969.21L1653.74,1975.85L1667.02,1982.49L1686.94,1989.13L1713.51,1995.77L1733.43,2002.42L1753.36,2009.06L1766.64,2015.7L1786.57,2022.34L1806.49,2028.98L1826.42,2035.62L1839.7,2035.62L1852.98,2042.26L1866.26,2048.91L1879.55,2048.91L1899.47,2055.55L1919.4,2055.55L1939.32,2055.55L1952.6,2062.19L1965.89,2062.19L1979.17,2068.83L1992.45,2075.47L2012.38,2075.47L2032.3,2082.11L2052.23,2082.11L2065.51,2088.75L2078.79,2095.4L2092.08,2102.04L2105.36,2108.68L2112,2115.32L2125.28,2115.32L2131.92,2121.96L2138.57,2128.6L2151.85,2128.6L2158.49,2135.25L2171.77,2135.25L2178.42,2135.25L2191.7,2141.89L2198.34,2141.89L2204.98,2148.53L2211.62,2148.53L2231.55,2155.17L2238.19,2155.17L2244.83,2161.81L2251.47,2161.81L2258.11,2168.45L2264.75,2168.45L2278.04,2175.09L2284.68,2175.09L2291.32,2181.74L2304.6,2181.74L2311.25,2188.38L2324.53,2195.02L2331.17,2195.02L2337.81,2201.66L2344.45,2201.66L2351.09,2208.3L2357.74,2208.3L2364.38,2214.94L2371.02,2214.94L2377.66,2221.58L2384.3,2228.23L2390.94,2228.23L2390.94,2234.87L2397.58,2234.87L2404.23,2241.51L2410.87,2248.15L2410.87,2254.79L2417.51,2254.79L2417.51,2261.43L2424.15,2268.08L2424.15,2274.72L2430.79,2281.36L2437.43,2281.36L2437.43,2288L2444.08,2294.64L2450.72,2307.92L2450.72,2314.57L2450.72,2321.21L2457.36,2327.85L2457.36,2334.49L2464,2334.49L2464,2341.13L2464,2354.42L2470.64,2361.06L2477.28,2367.7L2477.28,2380.98L2477.28,2387.62L2477.28,2394.26L2477.28,2407.55L2477.28,2414.19L2477.28,2420.83L2477.28,2427.47L2477.28,2440.75L2470.64,2447.4L2470.64,2454.04L2464,2460.68L2464,2467.32L2457.36,2473.96L2457.36,2480.6L2450.72,2487.25L2444.08,2493.89L2437.43,2500.53L2430.79,2500.53L2430.79,2507.17L2424.15,2513.81L2410.87,2513.81L2404.23,2513.81L2384.3,2520.45L2364.38,2520.45L2344.45,2527.09L2317.89,2533.74L2291.32,2540.38L2271.4,2547.02L2258.11,2553.66" fill="none" stroke="#000000" style="-webkit-tap-highlight-color: rgba(0, 0, 0, 0); stroke-linecap: round; stroke-linejoin: round; stroke-width: 19;" /><path d="M1527.55,2121.96L1527.55,2115.32L1540.83,2115.32L1554.11,2115.32L1567.4,2115.32L1580.68,2121.96L1600.6,2128.6L1620.53,2128.6L1640.45,2135.25L1660.38,2141.89L1673.66,2148.53L1693.58,2155.17L1706.87,2168.45L1726.79,2175.09L1746.72,2181.74L1760,2188.38L1773.28,2195.02L1786.57,2201.66L1799.85,2208.3L1813.13,2214.94L1826.42,2221.58L1833.06,2221.58L1846.34,2228.23L1859.62,2234.87L1866.26,2241.51L1879.55,2248.15L1886.19,2254.79L1899.47,2261.43L1906.11,2261.43L1919.4,2268.08L1932.68,2274.72L1945.96,2274.72L1959.25,2281.36L1972.53,2288L1979.17,2288L1992.45,2294.64L2005.74,2301.28L2019.02,2301.28L2032.3,2307.92L2038.94,2307.92L2052.23,2314.57L2065.51,2314.57L2078.79,2321.21L2092.08,2321.21L2105.36,2321.21L2118.64,2327.85L2131.92,2327.85L2151.85,2327.85L2165.13,2327.85L2178.42,2327.85L2185.06,2327.85L2198.34,2327.85L2211.62,2327.85L2224.91,2327.85L2231.55,2327.85L2238.19,2327.85L2251.47,2334.49L2264.75,2334.49L2271.4,2327.85L2284.68,2327.85L2297.96,2327.85L2304.6,2321.21L2324.53,2321.21L2344.45,2314.57L2364.38,2314.57L2384.3,2307.92L2404.23,2294.64L2424.15,2294.64L2437.43,2294.64L2444.08,2294.64" fill="none" stroke="#000000" style="-webkit-tap-highlight-color: rgba(0, 0, 0, 0); stroke-linecap: round; stroke-linejoin: round; stroke-width: 19;" /><path d="M3187.92,1364.83L3181.28,1364.83L3181.28,1358.19L3174.64,1358.19L3181.28,1358.19L3194.57,1351.55L3207.85,1351.55L3221.13,1344.91L3241.06,1338.26L3260.98,1331.62L3287.55,1324.98L3307.47,1318.34L3327.4,1311.7L3347.32,1311.7L3360.6,1311.7L3380.53,1305.06L3393.81,1305.06L3407.09,1298.42L3420.38,1291.77L3427.02,1291.77L3440.3,1285.13L3453.58,1278.49L3466.87,1271.85L3480.15,1258.57L3493.43,1251.92L3500.08,1251.92L3513.36,1245.28L3520,1238.64L3526.64,1232L3533.28,1232L3539.92,1218.72L3546.57,1212.08L3553.21,1205.43L3559.85,1198.79L3559.85,1192.15L3566.49,1185.51L3566.49,1178.87L3573.13,1172.23L3573.13,1158.94L3579.77,1152.3L3586.42,1132.38L3586.42,1119.09L3593.06,1112.45L3593.06,1105.81L3599.7,1092.53L3606.34,1092.53L3612.98,1085.89L3619.62,1079.25L3626.26,1079.25L3639.55,1072.6L3646.19,1065.96L3652.83,1065.96L3659.47,1065.96L3672.75,1059.32L3679.4,1059.32L3686.04,1052.68L3699.32,1052.68L3705.96,1046.04L3712.6,1046.04L3719.25,1046.04L3732.53,1046.04L3739.17,1046.04L3752.45,1046.04L3759.09,1046.04L3765.74,1046.04L3779.02,1046.04L3785.66,1046.04L3798.94,1046.04L3805.58,1046.04L3812.23,1046.04L3825.51,1046.04L3838.79,1046.04L3852.08,1046.04L3872,1046.04" fill="none" stroke="#000000" style="-webkit-tap-highlight-color: rgba(0, 0, 0, 0); stroke-linecap: round; stroke-linejoin: round; stroke-width: 19;" /><path d="M3606.34,1185.51L3593.06,1185.51L3586.42,1185.51L3586.42,1178.87L3593.06,1178.87L3599.7,1178.87L3626.26,1192.15L3646.19,1192.15L3666.11,1198.79L3679.4,1205.43L3692.68,1212.08L3705.96,1218.72L3712.6,1225.36L3725.89,1225.36L3739.17,1218.72L3752.45,1218.72L3772.38,1212.08L3785.66,1205.43L3805.58,1198.79L3825.51,1192.15L3845.43,1178.87L3865.36,1165.58" fill="none" stroke="#000000" style="-webkit-tap-highlight-color: rgba(0, 0, 0, 0); stroke-linecap: round; stroke-linejoin: round; stroke-width: 19;" /><path d="M1786.57,806.94L1779.92,806.94L1779.92,800.3L1773.28,800.3L1779.92,800.3L1786.57,806.94L1799.85,806.94L1826.42,813.58L1833.06,813.58L1839.7,813.58L1846.34,820.23L1852.98,820.23L1859.62,826.87L1866.26,833.51L1872.91,840.15L1879.55,846.79L1886.19,853.43L1892.83,860.08L1899.47,866.72L1906.11,873.36L1912.75,886.64L1919.4,893.28L1932.68,906.57L1939.32,913.21L1945.96,926.49L1952.6,933.13L1959.25,939.77L1965.89,953.06L1972.53,959.7L1979.17,966.34L1985.81,972.98L1992.45,979.62L1999.09,986.26L2005.74,999.55L2012.38,1006.19L2019.02,1012.83L2025.66,1019.47L2032.3,1032.75L2038.94,1032.75" fill="none" stroke="#000000" style="-webkit-tap-highlight-color: rgba(0, 0, 0, 0); stroke-linecap: round; stroke-linejoin: round; stroke-width: 19;" /><path d="M1793.21,833.51L1786.57,826.87L1786.57,820.23L1779.92,813.58L1779.92,820.23L1773.28,820.23L1773.28,826.87L1766.64,840.15L1760,853.43L1760,873.36L1760,893.28L1760,913.21L1760,933.13L1753.36,953.06L1753.36,972.98L1753.36,992.91L1753.36,1012.83L1753.36,1032.75L1753.36,1046.04L1746.72,1065.96L1746.72,1085.89L1740.08,1099.17L1740.08,1119.09L1740.08,1132.38L1733.43,1145.66L1733.43,1158.94L1726.79,1172.23L1726.79,1185.51L1720.15,1192.15L1720.15,1205.43L1713.51,1218.72L1713.51,1232L1706.87,1251.92L1706.87,1271.85L1706.87,1291.77L1706.87,1318.34L1713.51,1358.19L1720.15,1371.47" fill="none" stroke="#000000" style="-webkit-tap-highlight-color: rgba(0, 0, 0, 0); stroke-linecap: round; stroke-linejoin: round; stroke-width: 19;" /></svg>