<?xml version="1.0" encoding="utf-8" ?>
<svg baseProfile="full" height="2673" version="1.1" width="3606" xmlns="http://www.w3.org/2000/svg" xmlns:ev="http://www.w3.org/2001/xml-events" xmlns:xlink="http://www.w3.org/1999/xlink"><defs /><path d="M1548.16,598.88L1541.79,598.88L1535.42,598.88L1529.05,598.88L1522.67,598.88L1516.3,598.88L1509.93,598.88L1503.56,598.88L1497.19,598.88L1490.82,598.88L1484.45,598.88L1478.08,598.88L1471.71,598.88L1465.34,598.88L1458.96,598.88L1452.59,598.88L1446.22,598.88L1439.85,598.88L1433.48,598.88L1427.11,598.88L1427.11,605.25L1420.74,605.25L1414.37,605.25L1408,598.88L1408,592.51L1401.63,592.51L1395.25,592.51L1388.88,592.51L1382.51,592.51L1376.14,598.88L1369.77,598.88L1363.4,598.88L1363.4,605.25L1357.03,605.25L1350.66,605.25L1350.66,611.62L1350.66,617.99L1344.29,624.36L1344.29,630.73L1344.29,637.1L1344.29,643.47L1344.29,649.84L1337.92,649.84L1331.54,649.84L1325.17,649.84L1318.8,649.84L1312.43,649.84L1306.06,649.84L1299.69,649.84L1293.32,649.84L1286.95,649.84L1280.58,649.84L1280.58,656.22L1274.2,656.22L1274.2,662.59L1267.83,668.96L1267.83,675.33L1261.46,675.33L1261.46,681.7L1255.09,688.07L1255.09,694.44L1248.72,694.44L1248.72,700.81L1255.09,700.81L1255.09,707.18L1261.46,707.18L1261.46,713.55L1267.83,726.3L1267.83,732.67L1267.83,739.04L1267.83,745.41L1267.83,751.78L1267.83,758.15L1267.83,764.52L1267.83,770.89L1267.83,777.27L1261.46,777.27L1255.09,777.27L1255.09,783.64L1248.72,783.64L1242.35,783.64L1235.98,783.64L1229.61,783.64L1223.24,783.64L1216.87,783.64L1210.49,783.64L1204.12,783.64L1197.75,783.64L1191.38,783.64L1185.01,783.64L1178.64,783.64L1172.27,783.64L1165.9,783.64L1165.9,790.01L1165.9,796.38L1172.27,802.75L1178.64,809.12L1178.64,815.49" fill="none" stroke="#000000" style="-webkit-tap-highlight-color: rgba(0, 0, 0, 0); stroke-linecap: round; stroke-linejoin: round; stroke-width: 18;" /><path d="M1229.61,796.38L1217,796L1223,796L1217,790L1210,790L1210,784L1204,784L1204,771L1198,772L1198,770L1191,771L1184,771L1180,771L1179,774L1179,791L1179,791L1176,793L1176,795L1176,795L1160,803L1153,803L1153,809L1153,815L1160,822L1160,828L1160,835L1166,835L1166,841L1166,847L1166,854L1166,860L1166,866L1166,873L1166,879L1166,886L1160,892L1160,898L1160,905L1160,911L1160,917L1160,924L1160,930L1160,937L1160,943L1160,949L1160,956L1160,962L1160,968L1160,975L1160,981L1160,996L1160,996L1160,1000L1160,1000L1162,1000L1166,1013L1160,1013L1153,1013L1136,1006L1136,1006L1134,1006L1128,1007L1121,1008L1116,1008L1116,1008L1102,1019L1096,1019L1089,1019L1096,1019L1096,1026L1096,1032L1096,1045L1096,1038L1089,1064L1089,1058L1089,1070L1083,1077L1083,1083L1083,1089L1083,1096L1083,1102L1083,1109L1083,1115L1083,1121L1089,1121L1089,1128L1089,1134L1089,1140L1089,1147L1089,1153L1089,1160L1089,1166L1083,1166L1077,1166L1070,1166L1064,1166L1058,1166L1051,1166L1045,1166L1038,1166L1026,1172L1032,1166L1019,1172L1013,1172L1007,1172L991,1165L990,1166L988,1179L981,1179L975,1185L968,1185L968,1191L962,1191L962,1198L956,1198L956,1204L956,1210L956,1223L956,1217L956,1230L956,1236L956,1242L956,1255L956,1249L956,1261L956,1268L956,1274L956,1281L956,1287L956,1293L956,1300L956,1306L956,1312L956,1319L962,1338L962,1332L962,1325L962,1344L962,1351L962,1363L962,1357L962,1370L949,1383L956,1370L956,1376L949,1389L943,1389L943,1395L943,1402L937,1402L937,1408L930,1408L924,1408L917,1408L911,1408L905,1408L898,1402L892,1402L886,1402L879,1395L873,1395L866,1395L860,1395L854,1395L847,1395L841,1395L835,1395L818,1395L818,1395L815,1395L812,1396L812,1396L796,1395L790,1395L784,1395L777,1395L771,1395L765,1395L752,1395L752,1389L745,1389L739,1389L733,1389L726,1389L698,1381L698,1381L714,1389L697,1381L681,1380L663,1389L682,1380L669,1389L656,1389L650,1389L635,1390L634,1391L624,1408L630,1394L612,1414L618,1408L612,1421L618,1427L624,1427L612,1427L631,1427L643,1427L637,1427L650,1433L650,1440L650,1433L650,1421L650,1427L650,1414L643,1414L637,1421L631,1421L631,1427L624,1427L624,1440L624,1433L631,1453L631,1459" fill="none" stroke="#000000" style="-webkit-tap-highlight-color: rgba(0, 0, 0, 0); stroke-linecap: round; stroke-linejoin: round; stroke-width: 18;" /><path d="M631,1491L631,1478L631,1504L631,1516L631,1529L631,1535L631,1542L637,1548L637,1555L643,1555" fill="none" stroke="#000000" style="-webkit-tap-highlight-color: rgba(0, 0, 0, 0); stroke-linecap: round; stroke-linejoin: round; stroke-width: 18;" /><path d="M1503.56,649.84L1491,650L1484,650L1478,650L1478,643L1478,637L1478,631L1478,624" fill="none" stroke="#000000" style="-webkit-tap-highlight-color: rgba(0, 0, 0, 0); stroke-linecap: round; stroke-linejoin: round; stroke-width: 18;" /><path d="M1478,618L1548.16,649.84L1555,631L1548,644L1555,624L1548,631L1548,644L1546,650L1535,663L1529,669L1529,682L1523,694L1523,701L1523,707L1523,714L1523,720L1529,733L1535,739L1542,758L1542,752L1542,771L1542,784L1542,809L1542,796L1535,822L1542,815L1535,828L1529,835L1529,847L1529,860L1523,866L1523,873L1523,879L1523,886L1523,898L1523,892L1523,905L1523,911L1523,917L1523,924L1523,930L1523,937L1529,943L1529,949L1529,956L1529,962L1529,975L1529,968L1529,981L1529,988L1523,1007L1523,994L1523,1000L1516,1019L1516,1032L1523,1013L1516,1026L1516,1051L1516,1045L1516,1038L1516,1058L1516,1077L1516,1064L1516,1070L1516,1083L1516,1096L1516,1089L1516,1102L1516,1109L1516,1115L1516,1121L1516,1128L1510,1134L1510,1140L1510,1147L1504,1153L1504,1160L1504,1166L1504,1172L1504,1179L1504,1185L1504,1191L1504,1198L1504,1204L1504,1210L1504,1217L1504,1223L1504,1230L1504,1236L1504,1242L1504,1249L1504,1255L1504,1261L1504,1268L1504,1274L1504,1281L1504,1287L1504,1293L1504,1300L1504,1306L1497,1325L1497,1312L1497,1319L1497,1332L1491,1338L1491,1344L1491,1332L1491,1351L1491,1357L1484,1363L1484,1370L1484,1376L1484,1383L1496,1392L1484,1389L1496,1395L1496,1402L1496,1403L1496,1403L1497,1421L1497,1427L1497,1433L1497,1440L1497,1446L1497,1453L1497,1459L1504,1459L1510,1459L1516,1465L1523,1472L1523,1478L1523,1484L1539,1491L1539,1499L1539,1499L1539,1499L1529,1516L1529,1523L1529,1529L1529,1535L1529,1542L1529,1548L1529,1555L1523,1561L1523,1567L1529,1567L1535,1567L1547,1569L1547,1569L1551,1570L1564,1565L1568,1566L1573,1566L1573,1566L1586,1567L1593,1567L1599,1574L1593,1574L1599,1580L1599,1586L1599,1593L1599,1599L1599,1605L1593,1605L1593,1612L1593,1618L1593,1625L1586,1625L1580,1625L1574,1625L1567,1625L1561,1618L1555,1618L1548,1618L1542,1612L1535,1612L1529,1612L1523,1612L1510,1618L1523,1618L1497,1625L1504,1625L1491,1631L1484,1631L1478,1637L1465,1637L1459,1637L1453,1637L1446,1637L1433,1637L1421,1644L1427,1637L1414,1644L1408,1644L1402,1644L1389,1637L1395,1644L1383,1637L1376,1631L1370,1631L1363,1625L1370,1625L1357,1618L1351,1618L1344,1618L1338,1618L1332,1618L1325,1618L1319,1618L1312,1618L1306,1618L1300,1618L1293,1618L1287,1618L1274,1618L1281,1618L1268,1618L1261,1625L1249,1625L1255,1625L1242,1625L1236,1625L1223,1625L1230,1625L1217,1625L1217,1618L1210,1618L1204,1618L1198,1618L1191,1612L1166,1605L1172,1605L1160,1605L1185,1612L1153,1605L1140,1605L1134,1605L1121,1605L1115,1605L1109,1612L1096,1612L1089,1612L1077,1612L1083,1612L1064,1612L1070,1612L1058,1605L1051,1605L1045,1605L1038,1605L1032,1605L1026,1605L1007,1605L1013,1605L988,1605L1000,1605L981,1605L975,1612L968,1612L962,1612L962,1618L956,1618L949,1618L943,1618L930,1618L937,1618L924,1612L917,1612" fill="none" stroke="#000000" style="-webkit-tap-highlight-color: rgba(0, 0, 0, 0); stroke-linecap: round; stroke-linejoin: round; stroke-width: 18;" /><path d="M911,1612L905,1605L905,1612L898,1605L892,1605L879,1605L886,1605L873,1605L866,1605L860,1605L854,1605L847,1605L841,1605L835,1605L828,1605L822,1605L815,1605L796,1599L803,1605L809,1605L790,1599L777,1599L784,1599L765,1599L758,1599L745,1599L739,1593L752,1599L733,1593L720,1593L714,1593L726,1593L707,1593L701,1593L701,1586L694,1580L694,1586L688,1580L675,1567L682,1574L669,1567L663,1561L650,1555L656,1561L637,1555L643,1555L637,1548L605.25,1471.71L612,1472L618,1478L618,1484L618,1491L618,1497L618,1504L618,1510L618,1516L618,1523L618,1529L618,1535L618,1542L618,1548" fill="none" stroke="#000000" style="-webkit-tap-highlight-color: rgba(0, 0, 0, 0); stroke-linecap: round; stroke-linejoin: round; stroke-width: 18;" /><path d="M618,1555" fill="none" stroke="#000000" style="-webkit-tap-highlight-color: rgba(0, 0, 0, 0); stroke-linecap: round; stroke-linejoin: round; stroke-width: 18;" /><path d="M2140.66,1522.67L2134,1516L2128,1516L2122,1516L2115,1523L2115,1529L2109,1535L2102,1542L2102,1548L2102,1542L2096,1542L2090,1542L2083,1548L2077,1548L2064,1555L2075,1565L2058,1555L2051,1555L2045,1555L2039,1555L2039,1548L2032,1555L2032,1561L2032,1567L2026,1574L2026,1580L2026,1593L2012,1600L2012,1602L2012,1602L2020,1618L2020,1625L2026,1631L2026,1637L2026,1644L2032,1644L2039,1644L2045,1644L2058,1644L2071,1644L2090,1644L2102,1644L2109,1644L2115,1644L2122,1644L2128,1644L2141,1650L2134,1650L2147,1650L2153,1650L2160,1650L2173,1650L2166,1650L2179,1656L2185,1656L2198,1656L2192,1656L2204,1656L2217,1656L2211,1656L2230,1656L2223,1656L2236,1656L2243,1656L2255,1656L2249,1656L2262,1656L2268,1656L2281,1656L2274,1656L2287,1656L2300,1656L2319,1656L2306,1656L2325,1650L2332,1650L2345,1650L2351,1650L2364,1650L2370,1650L2383,1644L2389,1644L2402,1644L2408,1644L2415,1637L2427,1637L2421,1637L2434,1637L2440,1637L2446,1637L2459,1637L2466,1637L2453,1637L2472,1637L2478,1637L2485,1637L2491,1637L2497,1637L2504,1637L2523,1637L2510,1637L2517,1637L2529,1631L2542,1631L2555,1631L2548,1631L2561,1631L2574,1631L2580,1631L2587,1631L2606,1631L2599,1631L2625,1631L2618,1631L2638,1631L2650,1631L2663,1631L2682,1631L2708,1631L2733,1631L2765,1631L2791,1631L2816,1631L2835,1625L2854,1625L2867,1625L2880,1625L2886,1618L2892,1618L2899,1618L2905,1618L2912,1625L2918,1625L2924,1625L2931,1625L2937,1631L2943,1631L2950,1631L2956,1631L2963,1631L2969,1631L2982,1631L2994,1631L3007,1631L3020,1631L3026,1625L3033,1625L3039,1625L3045,1625L3052,1625L3058,1625L3058,1631L3052,1631L3058,1631L3064,1631L3071,1631L3077,1631L3084,1631L3090,1631L3096,1631L3103,1631L3109,1631L3115,1631L3122,1631L3128,1631L3135,1631L3141,1631L3147,1637L3160,1637L3154,1637L3166,1637L3173,1644L3179,1644L3186,1644L3192,1644L3192,1637L3198,1637L3205,1631L3211,1625L3217,1618L3224,1612L3230,1605L3224,1605L3230,1599L3224,1599L3217,1593L3211,1593L3192,1593L3179,1586L3166,1586L3154,1586L3141,1580L3135,1580L3128,1580L3122,1580L3115,1580L3115,1574L3115,1567L3115,1561L3115,1555L3109,1548L3103,1548L3096,1548L3090,1548L3077,1548L3058,1555L3071,1548L3052,1555L3045,1555L3039,1555L3033,1555L3033,1548L3033,1542L3026,1535L3026,1523L3026,1510L3020,1484L3020,1497L3020,1478L3020,1472L3026,1459L3026,1465L3026,1453L3020,1453L3013,1453L3007,1459L3001,1459L2994,1459L2988,1459L2982,1465L2969,1465L2975,1465L2963,1459L2956,1459L2950,1459L2943,1459L2931,1453L2937,1453L2924,1453L2918,1453L2912,1453L2905,1446L2899,1446L2886,1446L2873,1446L2880,1446L2867,1453L2848,1453L2861,1453L2854,1453L2841,1453L2835,1459L2829,1459L2822,1459L2816,1459L2791,1465L2810,1459L2803,1459L2778,1465L2765,1465L2752,1465L2746,1465L2740,1465L2733,1465" fill="none" stroke="#000000" style="-webkit-tap-highlight-color: rgba(0, 0, 0, 0); stroke-linecap: round; stroke-linejoin: round; stroke-width: 18;" /><path d="M2727,1465L2720,1459L2720,1465L2714,1459L2701,1459L2708,1459L2695,1459L2689,1459L2682,1459L2676,1453L2669,1453L2663,1453L2657,1453L2650,1453L2644,1446L2638,1446L2638,1433L2638,1440L2644,1427L2644,1421" fill="none" stroke="#000000" style="-webkit-tap-highlight-color: rgba(0, 0, 0, 0); stroke-linecap: round; stroke-linejoin: round; stroke-width: 18;" /><path d="M2038.73,586.13" fill="none" stroke="#000000" style="-webkit-tap-highlight-color: rgba(0, 0, 0, 0); stroke-linecap: round; stroke-linejoin: round; stroke-width: 18;" /><path d="M2051,618L2045,599L2051,612L2064,637L2064,643L2115.18,739.04L2115,733L2115,726L2115,720L2115,714L2122,701L2122,694L2128,688L2134,682L2141,675L2160,669L2147,669L2173,669L2166,669L2179,669L2195,665L2195,665L2200,669L2205,671L2214,676L2218,677L2223,678L2230,680L2235,683" fill="none" stroke="#000000" style="-webkit-tap-highlight-color: rgba(0, 0, 0, 0); stroke-linecap: round; stroke-linejoin: round; stroke-width: 18;" /><path d="M2236,684L2234,683L2236,684L2223.49,688.07L2218,677L2221,678L2204,694L2198,694L2204,694L2211,701L2217,701L2223,707L2230,714L2236,714L2249,720L2255,720L2262,720L2274,720L2274,726L2281,726L2287,726L2294,733L2306,733L2313,733L2325,733L2319,733L2332,733L2338,733L2345,733L2357,739L2351,739L2364,739L2376,745L2383,745L2402,745L2389,745L2421,745L2408,745L2427,745L2434,745L2440,752L2446,752L2446,758L2453,758L2459,765L2453,765L2466,771L2459,771L2472,771L2478,771L2478,777L2478,784L2478,790L2478,796L2478,803L2472,809L2472,822L2472,815L2478,822L2485,822L2491,822L2497,822L2504,815L2517,815L2510,815L2523,809L2529,809L2536,809L2542,809L2548,809L2555,809L2561,809L2568,809L2574,815L2580,822L2587,828L2593,841L2599,847L2606,860L2606,854L2612,873L2606,866L2618,879L2612,879L2625,886L2618,886L2631,892L2625,892L2625,898L2625,905L2625,911L2618,911L2618,924L2618,917L2618,930L2618,937L2618,943L2618,949L2618,962L2618,968L2618,975L2618,981L2618,988L2618,994L2618,1000L2618,1007L2625,1013L2625,1019L2625,1026L2625,1032L2625,1038L2625,1045L2625,1051L2625,1058L2631,1058L2631,1064L2638,1064L2644,1064L2644,1070L2650,1077L2650,1083L2650,1089L2657,1089L2657,1096L2657,1102L2657,1109L2663,1109L2663,1115L2663,1121L2663,1128L2663,1134L2663,1140L2663,1147L2663,1153L2663,1160L2657,1166L2657,1172L2650,1185L2657,1179L2650,1191L2650,1198L2644,1204L2644,1210L2644,1217L2644,1223L2644,1230L2644,1236L2650,1242L2650,1249L2657,1255L2663,1261L2669,1268L2676,1268L2676,1274L2682,1274L2689,1281L2695,1281L2701,1281L2701,1287L2714,1293L2708,1287L2720,1293L2727,1293L2727,1300L2733,1300L2733,1306L2733,1312L2740,1312L2740,1319L2740,1325L2740,1332L2740,1338L2740,1351L2740,1344L2733,1357L2733,1370L2733,1351L2733,1363L2733,1389L2733,1383L2733,1395L2733,1376L2733,1414L2733,1402L2733,1408L2727,1421L2727,1446L2727,1427L2727,1433L2727,1440L2727,1465L2727,1459L2727,1453" fill="none" stroke="#000000" style="-webkit-tap-highlight-color: rgba(0, 0, 0, 0); stroke-linecap: round; stroke-linejoin: round; stroke-width: 18;" /><path d="M2727,1472L2727,1491L2727,1484L2727,1478L2727,1497L2727,1504L2727,1497L2714,1465L2720,1484" fill="none" stroke="#000000" style="-webkit-tap-highlight-color: rgba(0, 0, 0, 0); stroke-linecap: round; stroke-linejoin: round; stroke-width: 18;" /><path d="M2115.18,739.04L2102,745L2109,739L2096,745L2096,752L2096,758L2096,765L2096,771L2102,777L2102,790L2109,796L2115,809L2115,822L2115,835L2115,847L2115,860L2115,886L2115,873L2115,892L2122,905L2122,911L2122,917L2128,930L2134,937L2134,943L2147,962L2141,949L2147,968L2147,981L2153,988L2147,975L2153,994L2153,1000L2153,1007L2147,1013L2147,1019L2147,1026L2147,1032L2141,1045L2141,1038L2134,1051L2134,1064L2128,1070L2128,1083L2128,1077L2128,1089L2128,1102L2128,1096L2128,1109L2128,1128L2128,1121L2128,1140L2128,1147L2128,1172L2128,1160L2128,1179L2128,1191L2128,1198L2128,1210L2128,1217L2128,1223L2128,1230L2128,1236L2128,1242L2128,1249L2128,1255L2128,1261L2128,1268L2128,1274L2128,1281L2128,1287L2128,1293L2134,1300L2134,1306L2134,1312L2134,1325L2134,1319L2141,1332L2141,1338L2141,1344L2141,1351L2141,1357L2141,1363L2141,1370L2141,1376L2141,1383L2141,1389L2141,1402L2141,1395L2141,1408L2141,1421L2141,1414L2141,1433L2141,1440L2141,1446L2141,1453L2141,1459L2141,1465L2141,1472L2141,1478L2141,1484L2141,1497L2141,1491L2141,1504L2141,1510L2141,1516L2134,1516L2134,1523L2134,1529L2134,1535L2134,1548L2134,1542L2134,1555L2141,1555L2141,1561L2141,1574L2141,1567L2141,1580L2141,1586L2141,1593L2141,1599L2141,1605L2134,1618L2141,1618L2141,1612" fill="none" stroke="#000000" style="-webkit-tap-highlight-color: rgba(0, 0, 0, 0); stroke-linecap: round; stroke-linejoin: round; stroke-width: 18;" /><path d="M2134,1625L2134,1631L2134,1637L2134,1644L2134,1650L2134,1656L2134,1663" fill="none" stroke="#000000" style="-webkit-tap-highlight-color: rgba(0, 0, 0, 0); stroke-linecap: round; stroke-linejoin: round; stroke-width: 18;" /><path d="M0,401.37" fill="none" stroke="#000000" style="-webkit-tap-highlight-color: rgba(0, 0, 0, 0); stroke-linecap: round; stroke-linejoin: round; stroke-width: 18;" /><path d="M0,401.37L16,402L10,400L27,406L31,406L43,405L51,402L58,402L67,403L70,403L76,403L83,403L83,420L89,420L96,420L102,420L108,420L121,420L127,420L134,420L140,406L146,406L153,405L155,405L170,405L172,405L178,405L185,405L189,404L198,403L199,403L199,403L217,414L229,414L236,414L242,414L248,414L255,414L261,408L274,408L280,401L287,401L280,408L293,401L293,395L306,395L299,395L305,380L310,378L316,377L329,375L338,373L369,370L357,371L350,372L376,372L393,375L388,373L398,376L414,378L427,378L416,378L437,376L440,377L440,377L446,378L449,379L452,379L459,379L465,379L475,379L471,380L478,378L491,389L497,389L503,389L510,389L516,389L522,389L529,389L542,389L548,389L548,376L554,376L560,375L560,375L573,382L580,382L580,376L573,370L573,363L562,349L563,347L565,342L567,340L571,332L573,331L584,319L586,318L593,315L606,313L612,312L618,312L624,311L631,299L637,299L656,299L650,299L663,299L669,299L681,311L675,311L689,310L693,311L701,311L707,311L714,311L721,311L725,311L733,312L737,314L743,315L757,320L749,319L761,321L774,321L784,319L780,320L796,320L802,319L809,321L814,320L822,321L828,320L841,323L835,323L844,323L852,325L855,326L856,327L866,331L870,334L866,331L880,337L888,341L897,347L902,348L903,350L904,353L917,357L924,357L930,357L937,357L949,357L943,357L956,357L962,357L968,357L975,357L981,357L981,371L981,371L988,371L988,371L988,389L988,395L994,395L1000,395L1007,395L1013,395L1019,395L1032,395L1026,395L1032,389L1048,378L1052,382L1052,382L1061,383L1067,384L1069,385L1064,401L1070,401L1077,401L1088,390L1089,390L1099,392L1099,392L1109,390L1118,391L1121,391L1131,395L1135,396L1140,398L1147,397L1153,397L1160,398L1160,398L1167,397L1170,396L1167,397L1166,398L1160,398L1160,414L1166,414L1170,397L1178,394L1192,386L1193,385L1193,385L1193,382L1210,382L1202,368L1217,376L1215,362L1219,361L1221,359L1229,352L1236,351L1239,350L1246,345L1255,343L1261,342L1262,341L1268,338L1276,335L1283,335L1287,319L1293,319L1300,319L1300,312L1306,312L1312,312L1319,312L1325,312L1332,312L1338,312L1344,312L1351,312L1357,312L1363,312L1370,312L1376,319L1383,319L1389,319L1402,325L1395,319L1408,325L1414,325L1421,325L1427,325L1433,325L1440,325L1440,338L1449,337L1456,335L1456,335L1465,337L1472,336L1471,337L1477,337L1484,336L1490,336L1497,335L1504,335L1514,337L1521,342L1523,342L1529,342L1535,341L1543,343L1548,345L1555,346L1562,347L1564,347L1573,349L1579,350L1586,350L1593,350L1605,353L1603,353L1593,350L1605,353L1615,356L1620,359L1629,362L1633,363L1650,365L1638,364L1647,364L1656,366L1667,367L1675,367L1669,367L1685,368L1703,374L1688,382L1701,389L1713,388L1714,389L1715,391L1716,398L1723,405L1723,405L1730,408L1732,409L1735,411L1735,411L1733,427L1733,433L1733,440L1739,440L1746,433L1752,433L1758,427L1765,427L1771,420L1768,403L1778,420L1784,414L1790,414L1790,408L1797,408L1803,408L1809,401L1816,401L1822,401L1828,401L1829,384L1841,395L1856,384L1856,384L1860,385" fill="none" stroke="#000000" style="-webkit-tap-highlight-color: rgba(0, 0, 0, 0); stroke-linecap: round; stroke-linejoin: round; stroke-width: 18;" /><path d="M1867,385L1873,383L1877,384L1943.16,369.52L1950,372L1950,372L1956,372L1956,357L1962,357L1962,372L1969,372L1977,372L1981,372L1988,371L1994,371L1999,371L2007,371L2013,371L2026,371L2032,370L2036,371L2045,370L2051,370L2058,369L2064,369L2071,368L2077,368L2071,368L2085,367L2092,366L2096,366L2102,366L2110,365L2118,364L2122,364L2128,363L2134,362L2141,361L2147,361L2153,361L2162,361L2166,362L2173,362L2179,362L2190,361L2184,362L2198,362L2203,363L2210,364L2217,365L2223,365L2229,366L2230,350L2236,350L2243,350L2249,357L2255,357L2255,363L2262,363L2268,376L2268,370L2274,376L2274,382L2274,389L2274,395L2274,401L2274,418L2274,418L2274,418L2268,418L2274,433L2268,418L2281,433L2268,433L2301,419L2287,433L2294,433L2294,418L2319,433L2306,419L2313,419L2325,433L2332,433L2348,422L2353,423L2348,422L2364,423L2370,440L2357,423L2376,440L2383,440L2396,440L2389,440L2402,440L2408,440L2415,440L2436,429L2421,440L2436,429L2446,430L2444,430L2451,430L2461,429L2478,440L2466,429L2466,429L2485,440L2485,446L2497,446L2491,446L2504,446L2510,452L2517,452L2523,452L2529,452L2536,459L2542,459L2548,459L2555,465L2561,465L2580,465L2568,465L2587,465L2593,465L2606,465L2599,465L2612,465L2618,465L2625,465L2631,465L2638,465L2644,465L2644,459L2650,459L2657,459L2663,459L2669,459L2676,465L2682,465L2689,465L2695,471L2689,471L2701,471L2708,478L2714,478L2727,484L2720,478L2733,484L2740,484L2746,484L2759,491L2765,491L2752,484L2771,491L2797,491L2778,491L2791,491L2826,481L2810,491L2803,491L2826,481L2843,489L2835,486L2847,490L2836,487L2861,492L2854,490L2867,491L2874,493L2896,494L2880,492L2886,493L2899,494L2905,510L2912,510L2918,510L2924,510L2931,510L2946,499L2946,499L2949,499L2958,500L2963,500L2969,500L2977,501L2982,502L2988,502L2994,502L3001,502L3009,503L3013,503L3017,503L3020,516L3026,516L3033,516L3039,516L3045,516L3052,516L3058,516L3064,516L3071,516L3077,516L3084,516L3090,516L3103,516L3096,516L3109,510L3122,510L3128,510L3115,510L3135,510L3141,510L3154,510L3147,510L3160,510L3166,510L3179,510L3173,510L3186,510L3198,510L3205,510L3192,510L3211,510L3217,510L3230,510L3224,510L3236,510L3249,510L3256,510L3243,510L3262,510L3275,510L3268,510L3281,510L3287,510L3294,510L3300,510L3307,510L3313,510L3319,510L3332,503L3326,510L3332,510L3338,503L3345,503L3351,503L3358,503L3364,503L3377,503L3370,503L3383,503L3389,503L3396,503L3402,503L3408,503L3421,503L3428,503L3444,492L3444,492L3447,492L3454,492L3463,492L3458,493L3480,492" fill="none" stroke="#000000" style="-webkit-tap-highlight-color: rgba(0, 0, 0, 0); stroke-linecap: round; stroke-linejoin: round; stroke-width: 18;" /><path d="M3480,492L3483,492L3483,492L3498,503L3504,503L3510,486L3520,487L3523,487L3531,487L3538,482L3531,487L3541,480L3555,491L3561,491L3568,491L3574,491L3587,491L3600,497L3581,491L3593,491" fill="none" stroke="#000000" style="-webkit-tap-highlight-color: rgba(0, 0, 0, 0); stroke-linecap: round; stroke-linejoin: round; stroke-width: 18;" /><path d="M6.37,1331.54" fill="none" stroke="#000000" style="-webkit-tap-highlight-color: rgba(0, 0, 0, 0); stroke-linecap: round; stroke-linejoin: round; stroke-width: 18;" /><path d="M0,1325L0,1319L0,1318.8L6,1319L13,1301L16,1303L18,1300L21,1294L25,1286L32,1280L38,1283L45,1273L51,1274L51,1278L57,1279L64,1286L70,1290L79,1288L83,1275L93,1281L89,1275L95,1275L100,1271L102,1278L108,1280L115,1281L117,1281L128,1290L133,1266L134,1266L134,1266L140,1261L140,1258L140,1258L134,1242L134,1236L134,1230L134,1223L134,1217L140,1217L140,1210L157,1199L157,1199L159,1197L167,1198L167,1191L172,1193L178,1192L185,1193L188,1193L198,1184L204,1184L212,1197L218,1196L223,1196L236,1196L242,1191L255,1188L256,1188L269,1192L272,1176L272,1176L281,1189L293,1179L299,1179L302,1193L307,1192L319,1185L307,1192L333,1182L333,1182L344,1186L338,1185L350,1184L357,1190L364,1183L363,1191L363,1191L363,1204L370,1210L370,1217L370,1223L376,1230L382,1236L389,1236L401,1236L395,1236L408,1236L414,1236L420,1230L414,1230L427,1230L433,1242L433,1249L433,1255L427,1236L440,1255L440,1268L440,1274L440,1261L440,1281L433,1281L433,1287L433,1293L433,1306L433,1300L433,1325L433,1319L440,1332L440,1338L446,1338L452,1338L459,1338L465,1332L478,1325L471,1332L484,1325L491,1325L497,1325L503,1325L510,1319L510,1325L516,1319L522,1319L535,1312L529,1319L542,1312L542,1306L548,1306L554,1300L561,1300L567,1300L567,1306L573,1306L580,1306L580,1312L586,1312L593,1319L599,1319L605,1325L612,1325L618,1325L618,1332L624,1332L624,1338L631,1338L631,1344L631,1351L637,1351L643,1351L643,1357L650,1363L656,1363L656,1370L663,1376L669,1383L681,1380L681,1380L669,1370L663,1363L663,1357L663,1351L663,1344L663,1338L669,1338L675,1338L675,1332L682,1332L688,1332L694,1332L701,1332L707,1332L714,1338L720,1338L726,1338L733,1338L739,1338L752,1338L758,1338L771,1338L777,1338L784,1332L790,1332L796,1325L803,1325L809,1319L835,1319L841,1319L822,1319L815,1319" fill="none" stroke="#000000" style="-webkit-tap-highlight-color: rgba(0, 0, 0, 0); stroke-linecap: round; stroke-linejoin: round; stroke-width: 18;" /><path d="M854,1319L860,1319L847,1319L866,1325L866,1332" fill="none" stroke="#000000" style="-webkit-tap-highlight-color: rgba(0, 0, 0, 0); stroke-linecap: round; stroke-linejoin: round; stroke-width: 18;" /><path d="M694.44,1235.98L688,1230L682,1230L682,1223L688,1223L694,1223L701,1230L714,1230L720,1230L733,1230L739,1230L752,1230L758,1230L765,1230L777,1236L784,1236L790,1236L796,1236L812,1236L812,1236L812,1236L815,1237L821,1238L821,1238L835,1242L841,1242L847,1236" fill="none" stroke="#000000" style="-webkit-tap-highlight-color: rgba(0, 0, 0, 0); stroke-linecap: round; stroke-linejoin: round; stroke-width: 18;" /><path d="M854,1236L860,1236L866,1236L873,1236L879,1236L886,1236L892,1236L898,1242" fill="none" stroke="#000000" style="-webkit-tap-highlight-color: rgba(0, 0, 0, 0); stroke-linecap: round; stroke-linejoin: round; stroke-width: 18;" /><path d="M751.78,1121.3L745,1121L742,1119L744,1121L733,1134L742,1119L739,1140L778,1145L745,1140L758,1140L822,1140L786,1145L809,1140L835,1140L854,1147L847,1147L860,1147L866,1147L873,1147L886,1147L879,1147L892,1147" fill="none" stroke="#000000" style="-webkit-tap-highlight-color: rgba(0, 0, 0, 0); stroke-linecap: round; stroke-linejoin: round; stroke-width: 18;" /><path d="M898,1147L905,1140L905,1134L751.78,1044.85L752,1051L745,1051L739,1058L739,1064L733,1070L733,1077L745,1077L758,1077L771,1077L790,1077L803,1077L809,1070L815,1070L822,1070L835,1070L841,1070L847,1077L854,1077L860,1077L866,1077L879,1077L873,1077L886,1077L892,1077L905,1077L898,1077L911,1077L917,1077L924,1077L924,1070" fill="none" stroke="#000000" style="-webkit-tap-highlight-color: rgba(0, 0, 0, 0); stroke-linecap: round; stroke-linejoin: round; stroke-width: 18;" /><path d="M924,1064" fill="none" stroke="#000000" style="-webkit-tap-highlight-color: rgba(0, 0, 0, 0); stroke-linecap: round; stroke-linejoin: round; stroke-width: 18;" /><path d="M758.15,987.51L752,988L752,994L758,1000L758,1007L765,1007L771,1007L777,1013L784,1013L796,1013L809,1013L815,1013L828,1013L841,1013L847,1013L854,1013L860,1013L866,1013L873,1013L886,1013L879,1013L892,1013L898,1013L905,1013L911,1013" fill="none" stroke="#000000" style="-webkit-tap-highlight-color: rgba(0, 0, 0, 0); stroke-linecap: round; stroke-linejoin: round; stroke-width: 18;" /><path d="M917,1013L917,1007L924,1007L917,1007L911,1007L764.52,949.28L777,949L771,949L784,956L796,962L809,968L828,968L835,968L841,968L847,968" fill="none" stroke="#000000" style="-webkit-tap-highlight-color: rgba(0, 0, 0, 0); stroke-linecap: round; stroke-linejoin: round; stroke-width: 18;" /><path d="M866,968L860,968L873,968L879,968L886,968L892,968L898,968L905,968L898,968L802.75,891.94L796,892L790,892L790,898L796,898L815,905L803,905L828,905L841,905L866,911L854,905L873,911L879,911L886,911L892,905L898,905L905,905" fill="none" stroke="#000000" style="-webkit-tap-highlight-color: rgba(0, 0, 0, 0); stroke-linecap: round; stroke-linejoin: round; stroke-width: 18;" /><path d="M924,898L911,905L917,905L924,892L974.77,809.12L975,803L975,796L975,790L968,803L968,809L962,809L956,809L949,809L943,809L937,809L937,815L937,822L937,828L937,835L937,841L943,847L943,854L943,860L949,860L949,866L949,873L949,879L949,886L943,886L943,892L937,892L930,892L930,898L930,905L924,905L924,911L924,917L924,924L924,930L924,937L924,943L924,949L924,956L917,962L917,968L917,975L917,981L917,988L917,994L911,994L911,1000L911,1007L905,1013L905,1007L905,1019L905,1026L905,1032L905,1038L905,1045L905,1051L905,1058L905,1064L905,1070L905,1077L905,1083L905,1089L905,1096L898,1096L898,1102L898,1109L898,1115L898,1121L898,1128L892,1128L892,1134L886,1140L886,1147L886,1153L879,1160L879,1166L879,1172L879,1179L879,1185L886,1185L886,1191L892,1198L892,1204L892,1210L886,1217L886,1223L879,1230L879,1236L873,1236L873,1242L866,1242L866,1249L860,1249L860,1255L860,1261L860,1268L860,1274L860,1281L860,1287L860,1293L860,1300L860,1306L860,1312L860,1319L860,1325L860,1332L860,1338L860,1344L860,1351L860,1357L866,1357L866,1363" fill="none" stroke="#000000" style="-webkit-tap-highlight-color: rgba(0, 0, 0, 0); stroke-linecap: round; stroke-linejoin: round; stroke-width: 18;" /><path d="M796.38,567.02L790,561L790,554L784,554L784,561L784,580L784,599L784,618L790,637L790,656L790,669L790,682L790,688L790,694L790,701L790,720L790,714L790,726L790,733L790,745L790,752L790,758L790,765L790,771L790,777L790,784L790,790L790,796L790,803L784,809L784,815L784,822L777,828L784,828L777,835L777,841L777,847L777,854L771,860L771,866L771,873L771,879L771,886L771,892L765,898L765,905L765,911L758,911L758,917L758,924L752,930L752,937L752,943L745,949L745,956L745,962L745,968L745,975L739,975L739,981L739,988L739,994L739,1000L733,1007L733,1013L733,1019L733,1032L733,1026L733,1038L733,1045L733,1058L733,1051L733,1064L733,1070L733,1077L733,1083L726,1083L726,1089L726,1096L726,1102L720,1109L720,1115L720,1121L714,1128L714,1134L714,1140L714,1147L714,1153L714,1160L714,1166L714,1172L714,1179L714,1185L714,1191L707,1198L707,1204L707,1210L707,1217L701,1217L701,1223L694,1230L694,1236L694,1242L694,1249L688,1255L688,1261L688,1268L688,1274L688,1281L688,1287L682,1293L682,1300L682,1306L682,1312L682,1319L675,1325L675,1319L675,1332L675,1338L669,1344" fill="none" stroke="#000000" style="-webkit-tap-highlight-color: rgba(0, 0, 0, 0); stroke-linecap: round; stroke-linejoin: round; stroke-width: 18;" /><path d="M669,1351L669,1357L675,1357" fill="none" stroke="#000000" style="-webkit-tap-highlight-color: rgba(0, 0, 0, 0); stroke-linecap: round; stroke-linejoin: round; stroke-width: 18;" /><path d="M611.62,1828.48L612,1822L612,1809L618,1803L618,1797L618,1790L612,1790L605,1790L599,1797L586,1797L575,1814L575,1814L580,1803L561,1816L554,1816L554,1822L548,1822L542,1822L535,1822L522,1832L522,1832L519,1832L510,1840L510,1840L504,1841L503,1846L503,1846L501,1870L484,1867L484,1867L484,1867L480,1867L472,1872L472,1872L472,1872L459,1886L459,1879L452,1886L446,1892L440,1892L440,1899L425,1897L425,1897L425,1897L420,1897L406,1907L404,1910L401,1910L396,1910L374,1913L376,1930L370,1930L362,1941L357,1942L353,1946L353,1946L334,1946L331,1946L325,1962L298,1981L321,1975L294,1984L280,2001L274,2007L268,2013L261,2013L236,2026L248,2020L242,2026L229,2032L223,2032L217,2032L217,2026L210,2026L210,2020L204,2020L198,2020L191,2013L185,2013L172,2013L150,2012L147,2026L115,2022L134,2032" fill="none" stroke="#000000" style="-webkit-tap-highlight-color: rgba(0, 0, 0, 0); stroke-linecap: round; stroke-linejoin: round; stroke-width: 18;" /><path d="M104,2028L102,2031L101,2032L83,2032L70,2032L64,2026L45,2020L51,2026L32,2021L31,2023L38,2039L30,2024L45,2039L51,2045L57,2051L64,2058L70,2058" fill="none" stroke="#000000" style="-webkit-tap-highlight-color: rgba(0, 0, 0, 0); stroke-linecap: round; stroke-linejoin: round; stroke-width: 18;" /><path d="M38.23,1669.21L19,1676L32,1676L13,1676L6,1676L6,1669L13,1669L25,1669L32,1669L45,1669L64,1669L76,1669L89,1669L102,1669L121,1663L134,1663L153,1656L147,1663L172,1656L166,1656L178,1656L185,1656L191,1656" fill="none" stroke="#000000" style="-webkit-tap-highlight-color: rgba(0, 0, 0, 0); stroke-linecap: round; stroke-linejoin: round; stroke-width: 18;" /><path d="M191,1650L191,1644L191,1637L191,1631" fill="none" stroke="#000000" style="-webkit-tap-highlight-color: rgba(0, 0, 0, 0); stroke-linecap: round; stroke-linejoin: round; stroke-width: 18;" /><path d="M152.9,1376.14L140,1370L134,1357L134,1351L134,1344L128,1327L128,1327L128,1327L112,1333L115,1310L115,1310L108,1308L115,1307L110,1307L106,1291L108,1308L115,1310L112,1336L127,1357L134,1376L134,1402L134,1389L134,1408L140,1427L140,1446L140,1434L140,1459L140,1465L140,1472L140,1478L140,1484L140,1491L140,1497L140,1504L140,1510L140,1516L147,1516L147,1523L147,1542L147,1529L147,1548L147,1555L147,1574L147,1561L135,1578L140,1588L140,1588L140,1588L131,1607L131,1607L131,1607L140,1625L140,1631L133,1647L133,1647" fill="none" stroke="#000000" style="-webkit-tap-highlight-color: rgba(0, 0, 0, 0); stroke-linecap: round; stroke-linejoin: round; stroke-width: 18;" /><path d="M147,1644L159,1650L153,1644L172,1663" fill="none" stroke="#000000" style="-webkit-tap-highlight-color: rgba(0, 0, 0, 0); stroke-linecap: round; stroke-linejoin: round; stroke-width: 18;" /><path d="M3140.92,662.59L3141,650L3141,656L3141,643L3141,637L3147,637L3147,643L3154,650L3154,656L3154,663L3147,675L3141,688L3135,688L3141,682L3147,675L3154,669L3160,669L3166,669L3166,688L3166,675L3166,720L3166,701L3160,739L3160,752L3160,771L3154,784L3154,790L3154,803L3154,809L3154,815L3154,822L3154,828L3160,835L3166,841L3166,854L3173,860L3179,873L3179,879L3186,886L3186,898L3186,905L3186,911L3186,937L3186,924L3186,943L3186,956L3186,968L3192,994L3192,981L3192,1000L3192,1013L3198,1026L3205,1045L3198,1032L3205,1051L3205,1058L3211,1070L3211,1077L3211,1083L3211,1089L3211,1102L3211,1109" fill="none" stroke="#000000" style="-webkit-tap-highlight-color: rgba(0, 0, 0, 0); stroke-linecap: round; stroke-linejoin: round; stroke-width: 18;" /><path d="M3217,1128L3217,1115L3217,1147L3217,1166L3217,1134L3217,1153L3217,1179L3217,1204L3217,1191L3217,1217L3217,1249L3217,1261L3217,1236L3217,1274L3217,1306L3217,1293L3217,1300L3217,1287L3217,1312L3224,1325L3217,1325L3217,1319" fill="none" stroke="#000000" style="-webkit-tap-highlight-color: rgba(0, 0, 0, 0); stroke-linecap: round; stroke-linejoin: round; stroke-width: 18;" /><path d="M3128.17,617.99" fill="none" stroke="#000000" style="-webkit-tap-highlight-color: rgba(0, 0, 0, 0); stroke-linecap: round; stroke-linejoin: round; stroke-width: 18;" /><path d="M3224,1332" fill="none" stroke="#000000" style="-webkit-tap-highlight-color: rgba(0, 0, 0, 0); stroke-linecap: round; stroke-linejoin: round; stroke-width: 18;" /><path d="M3115,605L3096,599L3103,599L3090,599L3084,599L3077,599L3071,593L3071,586L3071,580L3064,573L3058,573L3052,567L3045,561L3039,554L3033,554L3020,554L3007,554L2988,561L2950,580L2963,573L2937,580L2912,586L2854,605L2880,599L2822,612L2803,612L2784,618L2765,618L2752,618L2740,612L2733,612L2720,612L2752.28,624.36L2746,618L2740,612L2746,605L2752,605L2759,605L2759,599L2759,593L2752,586L2746,586L2746,580L2740,580L2733,580L2733,586L2720,593L2727,586L2714,599L2708,599" fill="none" stroke="#000000" style="-webkit-tap-highlight-color: rgba(0, 0, 0, 0); stroke-linecap: round; stroke-linejoin: round; stroke-width: 18;" /><path d="M2701,599L2695,599L2689,599L2682,593L2682,586L2689,586" fill="none" stroke="#000000" style="-webkit-tap-highlight-color: rgba(0, 0, 0, 0); stroke-linecap: round; stroke-linejoin: round; stroke-width: 18;" /><path d="M796.38,560.65L796,554L803,554L822,554L815,554L835,554L847,554L860,561L879,561L892,567L898,567L911,567L917,567L937,573L924,573L943,573L956,573L962,580L968,580L975,586L981,586L988,586L988,593L1000,593L994,593L1007,593L1013,593L1019,593L1026,593L1032,593L1038,593L1045,593L1051,593L1058,593L1064,593L1070,593L1083,593L1089,593L1102,593L1115,593L1128,593L1153,593L1140,593L1160,593L1166,593L1179,593L1185,593L1191,593L1204,593L1210,593L1217,593L1223,593L1236,593L1242,593L1249,586L1255,586L1268,586L1274,586L1281,586L1300,586L1293,586L1306,586L1312,586L1325,586L1319,586L1332,586L1338,586L1344,586L1351,586L1357,586L1370,580L1363,580L1376,580L1383,580L1389,580L1395,573L1389,573L1402,573L1421,573L1414,573L1408,573L1421,580L1434,574L1434,574L1440,575L1446,574L1453,575L1462,577L1462,577L1484,580L1504,580L1491,580L1523,580L1510,580L1529,580L1535,586L1542,586L1548,586L1555,586L1561,586L1574,586L1567,586L1580,586L1586,593L1593,593L1599,593L1605,593L1612,593L1612,599L1618,599L1625,599L1637,599L1644,599L1656,599L1663,599L1676,599L1682,599L1695,599L1707,599L1701,599L1714,599L1727,599L1733,599L1739,599L1752,599L1758,599L1765,599L1771,593L1784,593L1778,593L1797,586L1803,586L1822,586L1809,586L1828,586" fill="none" stroke="#000000" style="-webkit-tap-highlight-color: rgba(0, 0, 0, 0); stroke-linecap: round; stroke-linejoin: round; stroke-width: 18;" /><path d="M1835,586L1841,586L1848,586L1854,586L1867,586L1873,586L1879,586L1886,586L1892,586L1905,586L1899,586L1911,586L1918,586L1924,586L1937,586L1962,586L1950,586L1975,586L1981,586" fill="none" stroke="#000000" style="-webkit-tap-highlight-color: rgba(0, 0, 0, 0); stroke-linecap: round; stroke-linejoin: round; stroke-width: 18;" /><path d="M1694.69,630.73" fill="none" stroke="#000000" style="-webkit-tap-highlight-color: rgba(0, 0, 0, 0); stroke-linecap: round; stroke-linejoin: round; stroke-width: 18;" /><path d="M1988,586L1988,580L1988,573L1994,573L2020,561L2007,567L2001,567L2013,561L2013,561L2001,567L1994,567L2007,567L1988,567" fill="none" stroke="#000000" style="-webkit-tap-highlight-color: rgba(0, 0, 0, 0); stroke-linecap: round; stroke-linejoin: round; stroke-width: 18;" /><path d="M1695,624L1701,618L1701,624L1707,612L1720,605L1733,599L1739,593L1746,586L1752,580L1758,580L1765,573L1771,573L1803,573L1778,573L1790,573L1816,567L1835,567L1848,567L1854,567L1860,567L1873,561L1892,561L1879,561L1905,561L1918,561L1937,561L1930,561L1962,561L1950,561L1975,567L1981,567L1994,567L2001,567L2013,567L2020,567L2026,567L2032,567L2039,567L2051,561L2058,561L2064,561L2071,554L2083,554L2090,554L2096,554L2102,554L2109,548L2122,548L2115,548L2128,554L2134,554L2141,554L2141,561L2147,567L2153,567L2160,573L2153,573L2166,580L2173,580L2185,586L2179,580L2198,586L2204,586L2211,586L2211,593L2217,593L2223,593L2230,593L2236,593L2243,599L2249,599L2255,599L2262,599L2268,599L2287,599L2281,599L2294,599L2306,599L2319,599L2338,599L2370,605L2351,605L2389,612L2402,612L2427,612L2446,612L2466,612L2485,612L2504,605L2510,605L2523,605L2529,605L2536,605L2548,605L2555,605L2561,605L2568,605L2574,612L2580,612L2587,612L2599,612L2593,612L2606,612L2612,605L2618,599L2625,599L2631,599L2631,593L2644,593L2638,593L2650,593L2657,599L2650,599L2663,599L2669,599L2676,599L2669,605L2669,599L2676,605" fill="none" stroke="#000000" style="-webkit-tap-highlight-color: rgba(0, 0, 0, 0); stroke-linecap: round; stroke-linejoin: round; stroke-width: 18;" /><path d="M872.83,471.46L866,459L873,465L866,452L873,452L898,459L886,459" fill="none" stroke="#000000" style="-webkit-tap-highlight-color: rgba(0, 0, 0, 0); stroke-linecap: round; stroke-linejoin: round; stroke-width: 18;" /><path d="M911,459L924,459L937,459L949,459L936.54,477.83L930,478L917,478L911,478L905,478L911,478L917,478L930,478L943,478L962,478L988,478L975,478L1000,478L1013,478L1019,478L1026,478L1032,478L1032,484L1032,491L1038,491L1045,497L1038,497L1051,497L1064,497L1070,491L1083,491L1096,491L1089,491L1102,491L1109,491L1115,491L1121,491L1134,491L1128,491L1140,491L1147,491L1153,491L1166,491L1179,491L1172,491L1191,491L1185,491L1204,491L1198,491L1223,497L1210,491L1230,497L1236,503L1242,503L1249,503L1268,503L1261,503L1274,503L1281,503L1287,503L1300,503L1293,503L1306,497L1319,497L1332,497L1325,497L1338,497L1344,497L1351,497L1357,497L1363,497L1370,497L1376,497L1383,497L1389,497L1395,497L1402,497L1408,503L1414,503L1421,503L1427,503L1440,503L1433,503L1453,503L1446,503L1459,503L1465,503L1472,510L1465,510L1478,510L1484,516L1491,516L1497,516L1510,516L1516,516L1529,516L1542,516L1555,522L1574,529L1561,522L1580,529L1586,529L1599,535L1605,535L1593,535L1612,535L1625,535L1618,535L1631,535L1644,535L1650,535L1656,535L1663,535L1676,535L1682,535L1707,529L1720,529L1695,529L1733,529L1746,529L1771,535L1758,529L1803,535L1809,535L1790,535L1784,535" fill="none" stroke="#000000" style="-webkit-tap-highlight-color: rgba(0, 0, 0, 0); stroke-linecap: round; stroke-linejoin: round; stroke-width: 18;" /><path d="M1841,535L1835,535L1822,535L1828,535L1860,535L1854,535L1867,535L1873,535L1886,522L1879,529L1879,522L1886,529L1879,516L1898.57,490.57L1905,491L1905,484L1911,484L1918,484L1924,484L1930,491L1950,497L1937,491L1962,503L1975,503L1994,510L2007,510L2020,510L2026,510L2039,510L2045,510L2051,510L2058,510L2064,510L2077,510L2071,510L2083,510L2090,510L2096,510L2102,510L2109,516L2115,516L2122,516L2128,516L2141,516L2134,516L2141,522L2153,522L2147,522L2160,522L2179,522L2173,522L2166,522L2192,522L2198,516L2211,516L2217,516L2230,516L2243,516L2268,516L2255,516L2274,516L2287,516L2300,516L2313,516L2306,516L2325,516L2332,516L2345,522L2351,522L2364,522" fill="none" stroke="#000000" style="-webkit-tap-highlight-color: rgba(0, 0, 0, 0); stroke-linecap: round; stroke-linejoin: round; stroke-width: 18;" /><path d="M2376,529L2396,529L2383,529L2402,529L2415,529L2427,535L2421,535L2434,535L2440,535L2446,535L2453,535L2459,535L2459,542L2466,542L2466,548L2459,548" fill="none" stroke="#000000" style="-webkit-tap-highlight-color: rgba(0, 0, 0, 0); stroke-linecap: round; stroke-linejoin: round; stroke-width: 18;" /><path d="M783.64,764.52L790,765L777,765L771,765L771,758L765,758L752,758L745,758L726,758L720,758L707,765L714,765L694,771L694,777L694,790L694,784L694,803L701,809L701,815L701,822L701,828L701,835L688,841L694,835L688,847L682,847L675,854L675,860L669,860L669,866L669,873L663,879L663,886L656,886L650,892L656,892L643,892L637,892L631,892L624,892L618,898L612,898L605,911L605,905L599,917L599,924L599,937L599,930L599,943L593,949L586,956L586,962L580,968L580,975L573,988L573,981L567,994L561,1000L554,1007L548,1013L542,1019L535,1026L522,1026L516,1026L510,1032L503,1032L497,1032L491,1038L484,1038L478,1045L484,1045L478,1051L478,1058L478,1064L478,1070L478,1077L471,1083L471,1089L465,1089L459,1089L452,1089L440,1089L446,1089L433,1083L427,1083L427,1077L420,1077L420,1070L414,1070L408,1064L414,1064L408,1058L401,1058L382,1051L376,1045L395,1051L370,1045L363,1045L350,1051L357,1045L344,1058L338,1064L331,1070L319,1077L312,1083L287,1102L293,1096L306,1089L280,1102" fill="none" stroke="#000000" style="-webkit-tap-highlight-color: rgba(0, 0, 0, 0); stroke-linecap: round; stroke-linejoin: round; stroke-width: 18;" /><path d="M261,1109L255,1109" fill="none" stroke="#000000" style="-webkit-tap-highlight-color: rgba(0, 0, 0, 0); stroke-linecap: round; stroke-linejoin: round; stroke-width: 18;" /><path d="M6.37,1134.04" fill="none" stroke="#000000" style="-webkit-tap-highlight-color: rgba(0, 0, 0, 0); stroke-linecap: round; stroke-linejoin: round; stroke-width: 18;" /><path d="M274,1102L268,1109" fill="none" stroke="#000000" style="-webkit-tap-highlight-color: rgba(0, 0, 0, 0); stroke-linecap: round; stroke-linejoin: round; stroke-width: 18;" /><path d="M242,1109L248,1109L229,1115L236,1115" fill="none" stroke="#000000" style="-webkit-tap-highlight-color: rgba(0, 0, 0, 0); stroke-linecap: round; stroke-linejoin: round; stroke-width: 18;" /><path d="M0,1134.04" fill="none" stroke="#000000" style="-webkit-tap-highlight-color: rgba(0, 0, 0, 0); stroke-linecap: round; stroke-linejoin: round; stroke-width: 18;" /><path d="M223,1115L217,1115L217,1121L210,1121L178,1121L198,1121L185,1121L204,1121L166,1121L159,1121L147,1121L134,1121L115,1128L127,1128L108,1128L102,1128L108,1128L121,1128" fill="none" stroke="#000000" style="-webkit-tap-highlight-color: rgba(0, 0, 0, 0); stroke-linecap: round; stroke-linejoin: round; stroke-width: 18;" /><path d="M134,1128L0,1128L6,1134L19,1134L32,1140L45,1140L64,1140L70,1147L83,1147L89,1147L115,1147L102,1147L134,1147L140,1140L147,1134L159,1134L166,1128L172,1128L185,1128L191,1121L204,1121" fill="none" stroke="#000000" style="-webkit-tap-highlight-color: rgba(0, 0, 0, 0); stroke-linecap: round; stroke-linejoin: round; stroke-width: 18;" /><path d="M267.58,1669.21L259,1666L255,1662L260,1663L260,1663L274,1663L280,1663L287,1663L293,1663L299,1669L312,1669L306,1669L319,1663L325,1663L331,1656L338,1656L344,1650L357,1644L363,1637L370,1631L376,1625L382,1625L389,1618L395,1618L389,1625L401,1618L408,1618L414,1618L427,1618L433,1612L448,1599L446,1612L465,1599L471,1593L491,1586L478,1593L497,1580L503,1580L520,1563L520,1563L520,1563L523,1561L535,1567L548,1567L542,1567L554,1567L561,1567L567,1567L573,1567L580,1567L580,1561L586,1561L593,1561L593,1555L599,1555" fill="none" stroke="#000000" style="-webkit-tap-highlight-color: rgba(0, 0, 0, 0); stroke-linecap: round; stroke-linejoin: round; stroke-width: 18;" /><path d="M605,1555L605,1548" fill="none" stroke="#000000" style="-webkit-tap-highlight-color: rgba(0, 0, 0, 0); stroke-linecap: round; stroke-linejoin: round; stroke-width: 18;" /><path d="M191.13,1643.72L185,1637L185,1644L185,1631L178,1625L178,1618L172,1618L166,1612L180,1604L173,1594L159,1605L143,1588L143,1588L143,1588L143,1588L153,1574L147,1574L135,1578L134,1578L126,1581L121,1589L119,1590L116,1604L108,1592L97,1595L88,1605L88,1605L83,1605L81,1605L77,1602L64,1612L51,1612L45,1612L38,1612L32,1612L16,1601L19,1618L13,1618L6,1625L0,1625" fill="none" stroke="#000000" style="-webkit-tap-highlight-color: rgba(0, 0, 0, 0); stroke-linecap: round; stroke-linejoin: round; stroke-width: 18;" /><path d="M6,1618L10,1602" fill="none" stroke="#000000" style="-webkit-tap-highlight-color: rgba(0, 0, 0, 0); stroke-linecap: round; stroke-linejoin: round; stroke-width: 18;" /><path d="M3204.63,1681.95L3211,1669L3211,1676L3217,1656L3217,1650L3217,1644L3211,1650L3211,1656L3211,1663L3211,1669L3217,1669L3224,1669L3236,1676L3249,1676L3256,1676L3281,1676L3268,1676L3287,1676L3300,1676L3294,1676L3313,1682L3319,1682L3326,1688L3332,1688L3338,1695L3345,1701L3358,1714L3364,1720L3351,1707L3370,1727L3370,1733L3383,1739L3377,1733L3389,1739L3396,1739L3402,1739L3408,1739L3415,1739L3428,1739L3421,1739L3434,1746L3440,1746L3447,1752L3453,1752L3466,1758L3472,1765L3504,1778L3479,1765L3491,1771" fill="none" stroke="#000000" style="-webkit-tap-highlight-color: rgba(0, 0, 0, 0); stroke-linecap: round; stroke-linejoin: round; stroke-width: 18;" /><path d="M3498,1771L3517,1778L3530,1784L3510,1778L3536,1784L3542,1784L3542,1790L3536,1784" fill="none" stroke="#000000" style="-webkit-tap-highlight-color: rgba(0, 0, 0, 0); stroke-linecap: round; stroke-linejoin: round; stroke-width: 18;" /><path d="M3140.92,1541.79L3135,1542L3128,1529L3128,1523L3122,1516L3115,1516L3103,1516L3100,1516L3103,1516L3100,1516L3084,1516L3071,1523L3077,1523L3077,1523L3100,1516L3103,1516L3115,1516L3128,1516L3141,1516L3154,1516L3173,1523L3179,1529L3198,1542L3192,1535L3211,1548L3217,1548L3230,1555L3224,1555L3236,1555L3243,1555L3262,1555L3249,1555L3256,1555L3268,1555L3281,1561L3287,1561L3275,1555L3300,1561L3307,1567L3319,1574L3313,1574L3326,1580L3332,1586L3345,1593L3338,1593L3345,1599L3351,1605L3358,1605L3351,1599L3364,1605L3370,1605L3377,1605L3383,1605L3389,1612L3402,1612L3396,1612L3408,1612L3421,1618L3415,1618L3428,1625L3434,1631L3447,1631L3440,1631L3453,1637L3459,1637L3466,1637L3472,1637L3479,1637L3485,1644L3498,1644L3491,1644L3504,1650L3510,1656" fill="none" stroke="#000000" style="-webkit-tap-highlight-color: rgba(0, 0, 0, 0); stroke-linecap: round; stroke-linejoin: round; stroke-width: 18;" /><path d="M3517,1663L3510,1663L3517,1669L3517,1676L3523,1676L3530,1682L3523,1682L3536,1682L3542,1682L3549,1682" fill="none" stroke="#000000" style="-webkit-tap-highlight-color: rgba(0, 0, 0, 0); stroke-linecap: round; stroke-linejoin: round; stroke-width: 18;" /><path d="M3453.1,898.31L3466,905L3459,898L3479,905L3472,905L3485,911L3498,911" fill="none" stroke="#000000" style="-webkit-tap-highlight-color: rgba(0, 0, 0, 0); stroke-linecap: round; stroke-linejoin: round; stroke-width: 18;" /><path d="M3510,905L3504,911L3510,898L3485,886L3479,886" fill="none" stroke="#000000" style="-webkit-tap-highlight-color: rgba(0, 0, 0, 0); stroke-linecap: round; stroke-linejoin: round; stroke-width: 18;" /><path d="M3089.95,573.39L3090,580L3084,586L3084,593L3103,599L3090,593L3115,599L3128,605L3141,612L3154,612L3166,618L3173,618L3186,618L3192,624L3198,624L3205,624L3217,624L3224,631L3236,631L3230,631L3243,631L3256,637L3262,637L3249,631L3268,637L3275,643L3281,643L3287,650L3294,650L3300,656L3313,663L3307,656L3319,669L3332,682L3326,675L3326,682L3338,669L3326,675L3351,669L3364,675L3408,694L3402,688L3383,682L3408,701L3415,707L3415,733L3415,720L3408,739L3402,752L3402,765L3396,777L3396,790L3396,815L3396,803L3396,822L3402,835L3408,841L3421,860L3415,854L3428,866L3434,873L3434,886L3440,892L3434,879L3447,898L3447,905L3453,905L3453,911L3459,911L3459,917L3466,924L3466,930L3472,937L3479,943L3479,949L3485,949L3485,956L3498,956L3491,956L3504,956L3510,956L3523,949L3530,943L3536,943L3542,943L3555,943" fill="none" stroke="#000000" style="-webkit-tap-highlight-color: rgba(0, 0, 0, 0); stroke-linecap: round; stroke-linejoin: round; stroke-width: 18;" /><path d="M3568,949L3574,956L3581,962L3581,968" fill="none" stroke="#000000" style="-webkit-tap-highlight-color: rgba(0, 0, 0, 0); stroke-linecap: round; stroke-linejoin: round; stroke-width: 18;" /><path d="M3261.96,573.39L3249,573L3256,573L3236,573L3243,573L3230,580L3236,580L3230,586L3224,586L3224,593L3224,599L3230,599L3243,599L3256,599L3268,605L3281,605L3300,605L3313,599L3326,599L3345,593L3332,593L3351,593L3364,593L3377,593L3370,593L3383,593L3389,593L3396,593L3408,593L3415,599L3421,599L3428,599L3434,605L3447,605L3440,605L3453,605L3459,605L3466,605L3472,605L3479,612L3485,612L3498,618L3491,612L3504,618L3510,624L3517,631L3517,637L3523,643L3523,650L3530,656L3536,656L3536,663L3542,669L3542,675L3549,675L3549,682L3555,682L3561,688L3581,694L3568,688L3587,694L3593,701L3600,701L3600,707L3606,707L3606,714L3606,720L3600,720L3600,726" fill="none" stroke="#000000" style="-webkit-tap-highlight-color: rgba(0, 0, 0, 0); stroke-linecap: round; stroke-linejoin: round; stroke-width: 18;" /><path d="M3606,733L3606,726" fill="none" stroke="#000000" style="-webkit-tap-highlight-color: rgba(0, 0, 0, 0); stroke-linecap: round; stroke-linejoin: round; stroke-width: 18;" /><path d="M1630.98,1401.63L1625,1402L1605,1402L1612,1402L1599,1402L1586,1414L1580,1421L1574,1427L1574,1433L1567,1433L1567,1440L1561,1440L1567,1440L1580,1440L1593,1440L1618,1433L1644,1427L1707,1421L1676,1421L1733,1414L1752,1414L1765,1414L1778,1421L1784,1421L1790,1421L1803,1421L1822,1421L1835,1421L1854,1421L1879,1414L1867,1414L1892,1408L1905,1408L1918,1402L1937,1402L1950,1402L1956,1402L1975,1408L1969,1402L1994,1408L1981,1408L2001,1414L2007,1414L2013,1414L2020,1414L2032,1414L2039,1414L2051,1414L2058,1414L2071,1414" fill="none" stroke="#000000" style="-webkit-tap-highlight-color: rgba(0, 0, 0, 0); stroke-linecap: round; stroke-linejoin: round; stroke-width: 18;" /><path d="M2090,1421L2077,1414L2096,1421L2102,1421L2115,1421L2109,1421L2122,1421L2122,1414" fill="none" stroke="#000000" style="-webkit-tap-highlight-color: rgba(0, 0, 0, 0); stroke-linecap: round; stroke-linejoin: round; stroke-width: 18;" /><path d="M2809.62,1344.29L2803,1344L2784,1344L2778,1344L2771,1344L2778,1344L2791,1338L2822,1332L2803,1338L2841,1332L2861,1325L2873,1325L2886,1325L2892,1325L2899,1325L2918,1319L2912,1325L2924,1319L2931,1319L2950,1312L2943,1312L2956,1312L2969,1312L2975,1312L2982,1312L2988,1312L2994,1306L3001,1306L3007,1306L3013,1306L3020,1306L3033,1306L3039,1306L3026,1306L3045,1300L3058,1300L3052,1300L3064,1300L3071,1300L3077,1300L3090,1300L3096,1300L3103,1300L3109,1300L3115,1306L3135,1306L3122,1306L3147,1306L3154,1306L3166,1306L3179,1306L3186,1306L3205,1306L3198,1306L3211,1306L3224,1306L3243,1312L3230,1312L3256,1319L3268,1325L3281,1325L3287,1325L3294,1332L3307,1332L3319,1338L3345,1338L3332,1338L3358,1344L3370,1344L3396,1351L3383,1351L3402,1351L3415,1357L3421,1357L3434,1357L3447,1363L3459,1363L3472,1363L3491,1363L3504,1363L3523,1363L3536,1370L3555,1370L3561,1376L3574,1376L3581,1383L3587,1383L3593,1389L3587,1389L3581,1389L3568,1383L3574,1383" fill="none" stroke="#000000" style="-webkit-tap-highlight-color: rgba(0, 0, 0, 0); stroke-linecap: round; stroke-linejoin: round; stroke-width: 18;" /></svg>