<?xml version="1.0" encoding="utf-8" ?>
<svg baseProfile="full" height="2673" version="1.1" width="3606" xmlns="http://www.w3.org/2000/svg" xmlns:ev="http://www.w3.org/2001/xml-events" xmlns:xlink="http://www.w3.org/1999/xlink"><defs /><path d="M1518.66,639.77L1518.66,633.31L1525.12,639.77L1525.12,652.7L1531.58,672.09L1538.04,691.47L1544.51,710.86L1544.51,730.25L1550.97,743.17L1550.97,756.1L1550.97,769.02L1557.43,781.95L1557.43,794.87L1557.43,807.8L1557.43,820.72L1557.43,833.65L1557.43,846.57L1557.43,859.49L1557.43,872.42L1557.43,885.34L1557.43,891.81L1550.97,911.19L1550.97,930.58L1550.97,943.51L1544.51,962.89L1544.51,982.28L1544.51,995.2L1544.51,1021.05L1544.51,1033.98L1538.04,1053.37L1538.04,1066.29L1538.04,1079.22L1538.04,1098.6L1531.58,1111.53L1531.58,1124.45L1525.12,1137.38L1525.12,1156.76L1525.12,1169.69L1525.12,1189.08L1525.12,1202L1518.66,1214.92L1518.66,1227.85L1518.66,1247.24L1518.66,1266.62L1518.66,1286.01L1518.66,1298.94L1518.66,1311.86L1518.66,1324.78L1518.66,1337.71L1525.12,1350.63L1525.12,1363.56L1531.58,1376.48L1531.58,1389.41L1538.04,1402.33L1538.04,1408.8L1538.04,1421.72L1544.51,1428.18L1544.51,1441.11L1550.97,1454.03L1557.43,1473.42L1557.43,1492.81L1563.89,1512.19L1563.89,1531.58L1570.35,1544.51" fill="none" stroke="#000000" style="-webkit-tap-highlight-color: rgba(0, 0, 0, 0); stroke-linecap: round; stroke-linejoin: round; stroke-width: 18;" /><path d="M1479.88,620.39L1479.88,613.92L1473.42,613.92L1473.42,607.46L1466.96,607.46L1460.49,601L1454.03,601L1441.11,594.54L1428.18,594.54L1415.26,601L1402.33,607.46L1389.41,607.46L1382.95,613.92L1370.02,613.92L1363.56,620.39L1357.1,626.85L1350.63,626.85L1344.17,633.31L1337.71,639.77L1331.25,639.77L1324.78,639.77L1324.78,646.24L1311.86,652.7L1305.4,659.16L1298.94,665.62L1292.47,678.55L1286.01,685.01L1279.55,697.94L1273.09,704.4L1273.09,710.86L1266.62,717.32L1266.62,723.78L1266.62,730.25L1260.16,736.71L1253.7,743.17L1247.24,749.63L1240.77,756.1L1234.31,756.1L1227.85,762.56L1221.39,762.56L1214.92,769.02L1208.46,769.02L1202,769.02L1195.54,769.02L1189.08,775.48L1182.61,781.95L1176.15,788.41L1176.15,801.33L1176.15,814.26L1176.15,827.18L1169.69,833.65L1169.69,846.57L1169.69,859.49L1169.69,872.42L1163.23,885.34L1163.23,898.27L1163.23,904.73L1163.23,911.19L1156.76,924.12L1156.76,937.04L1156.76,943.51L1156.76,956.43L1156.76,962.89L1156.76,975.82L1156.76,982.28L1156.76,988.74L1156.76,995.2L1156.76,1001.67L1150.3,1008.13L1143.84,1008.13L1143.84,1014.59L1137.38,1014.59L1130.91,1014.59L1124.45,1021.05L1117.99,1021.05L1111.53,1027.52L1105.06,1033.98L1098.6,1040.44L1098.6,1046.9L1098.6,1053.37L1098.6,1066.29L1098.6,1072.75L1098.6,1079.22L1098.6,1085.68L1098.6,1092.14L1098.6,1098.6L1098.6,1105.06L1098.6,1111.53L1092.14,1124.45L1092.14,1130.91L1092.14,1137.38L1092.14,1150.3L1085.68,1156.76L1085.68,1163.23L1085.68,1169.69L1079.22,1169.69L1079.22,1176.15L1066.29,1176.15L1059.83,1182.61L1053.37,1182.61L1040.44,1189.08L1033.98,1189.08L1027.52,1189.08L1014.59,1189.08L1008.13,1189.08L1001.67,1195.54L995.2,1195.54L982.28,1195.54L975.82,1202L962.89,1202L956.43,1202L949.97,1208.46L943.51,1214.92L943.51,1221.39L943.51,1227.85L943.51,1240.77L943.51,1247.24L943.51,1260.16L943.51,1266.62L943.51,1273.09L943.51,1286.01L943.51,1292.47L943.51,1305.4L943.51,1311.86L949.97,1324.78L949.97,1331.25L949.97,1344.17L949.97,1350.63L949.97,1363.56L949.97,1370.02L949.97,1376.48L943.51,1376.48L937.04,1376.48L930.58,1382.95L917.66,1382.95L904.73,1389.41L891.81,1389.41L878.88,1395.87L859.49,1395.87L846.57,1395.87L827.18,1402.33L807.8,1402.33L788.41,1402.33L775.48,1402.33L756.1,1402.33L749.63,1402.33L736.71,1395.87L730.25,1395.87L717.32,1395.87L704.4,1389.41L691.47,1389.41L685.01,1382.95L672.09,1382.95L665.62,1382.95L659.16,1382.95L646.24,1382.95L639.77,1382.95L633.31,1382.95L620.39,1376.48L613.92,1376.48L607.46,1376.48L607.46,1382.95L601,1389.41L601,1402.33L601,1415.26L601,1434.65L601,1460.49L601,1479.88L601,1492.81L601,1499.27L601,1505.73L601,1518.66" fill="none" stroke="#000000" style="-webkit-tap-highlight-color: rgba(0, 0, 0, 0); stroke-linecap: round; stroke-linejoin: round; stroke-width: 18;" /><path d="M2100.27,704.4L2100.27,710.86L2113.19,743.17L2119.66,781.95L2126.12,814.26L2126.12,833.65L2132.58,853.03L2132.58,865.96L2132.58,885.34L2132.58,898.27L2132.58,911.19L2132.58,930.58L2139.04,943.51L2139.04,956.43L2139.04,975.82L2139.04,988.74L2139.04,1008.13L2139.04,1021.05L2139.04,1040.44L2139.04,1053.37L2139.04,1066.29L2139.04,1085.68L2139.04,1105.06L2139.04,1130.91L2139.04,1150.3L2139.04,1169.69L2139.04,1182.61L2139.04,1202L2139.04,1214.92L2139.04,1234.31L2139.04,1247.24L2139.04,1260.16L2139.04,1279.55L2145.51,1292.47L2145.51,1305.4L2145.51,1318.32L2145.51,1331.25L2145.51,1344.17L2145.51,1363.56L2145.51,1376.48L2145.51,1389.41L2145.51,1408.8L2145.51,1421.72L2145.51,1434.65L2145.51,1447.57L2145.51,1466.96L2145.51,1479.88L2145.51,1499.27L2145.51,1518.66L2145.51,1538.04L2151.97,1550.97L2151.97,1557.43L2151.97,1544.51" fill="none" stroke="#000000" style="-webkit-tap-highlight-color: rgba(0, 0, 0, 0); stroke-linecap: round; stroke-linejoin: round; stroke-width: 18;" /><path d="M2093.81,691.47L2100.27,697.94L2106.73,697.94L2113.19,697.94L2126.12,691.47L2139.04,691.47L2151.97,691.47L2158.43,691.47L2171.35,685.01L2177.82,685.01L2184.28,678.55L2190.74,678.55L2197.2,678.55L2203.67,678.55L2210.13,678.55L2216.59,672.09L2223.05,672.09L2235.98,672.09L2242.44,678.55L2248.9,678.55L2261.83,685.01L2268.29,685.01L2274.75,691.47L2281.22,697.94L2287.68,704.4L2294.14,710.86L2300.6,710.86L2307.06,717.32L2313.53,723.78L2319.99,723.78L2326.45,730.25L2332.91,730.25L2339.38,736.71L2358.76,743.17L2365.23,743.17L2371.69,749.63L2378.15,749.63L2384.61,756.1L2391.08,756.1L2397.54,756.1L2404,756.1L2410.46,756.1L2416.92,762.56L2429.85,762.56L2436.31,762.56L2442.77,762.56L2449.24,762.56L2455.7,762.56L2462.16,769.02L2468.62,769.02L2475.09,769.02L2481.55,769.02L2488.01,775.48L2494.47,775.48L2500.94,775.48L2500.94,781.95L2507.4,781.95" fill="none" stroke="#000000" style="-webkit-tap-highlight-color: rgba(0, 0, 0, 0); stroke-linecap: round; stroke-linejoin: round; stroke-width: 18;" /><path d="M2436.31,769.02L2429.85,769.02L2429.85,762.56L2429.85,769.02L2429.85,775.48L2436.31,781.95L2436.31,788.41L2442.77,788.41L2449.24,794.87L2455.7,794.87L2462.16,794.87L2468.62,801.33L2475.09,801.33L2481.55,801.33L2488.01,801.33L2494.47,807.8L2500.94,807.8L2507.4,814.26L2513.86,814.26L2520.32,820.72L2526.78,820.72L2533.25,827.18L2533.25,833.65L2539.71,840.11L2539.71,846.57L2539.71,853.03L2539.71,859.49L2539.71,872.42L2539.71,878.88L2539.71,891.81L2539.71,898.27L2539.71,904.73L2539.71,911.19L2539.71,924.12L2539.71,930.58L2539.71,937.04L2539.71,943.51L2539.71,956.43L2539.71,962.89L2539.71,969.35L2539.71,975.82L2546.17,982.28L2546.17,988.74L2546.17,995.2L2546.17,1001.67L2546.17,1008.13L2552.63,1014.59L2552.63,1021.05L2552.63,1027.52L2552.63,1033.98L2559.1,1040.44L2565.56,1040.44L2565.56,1046.9L2572.02,1046.9L2578.48,1046.9L2584.95,1053.37L2591.41,1053.37L2597.87,1053.37L2604.33,1053.37L2610.8,1059.83L2617.26,1059.83L2617.26,1066.29L2617.26,1072.75L2617.26,1085.68L2617.26,1092.14L2617.26,1098.6L2617.26,1111.53L2623.72,1117.99L2623.72,1130.91L2623.72,1143.84L2623.72,1150.3L2623.72,1156.76L2630.18,1163.23L2630.18,1169.69L2630.18,1182.61L2630.18,1189.08L2630.18,1195.54L2630.18,1208.46L2636.65,1208.46L2636.65,1214.92L2643.11,1221.39L2649.57,1221.39L2656.03,1221.39L2662.49,1221.39L2668.96,1227.85L2675.42,1227.85L2681.88,1227.85L2688.34,1234.31L2694.81,1240.77L2701.27,1240.77L2701.27,1247.24L2701.27,1253.7L2701.27,1260.16L2707.73,1266.62L2707.73,1273.09L2707.73,1279.55L2707.73,1292.47L2707.73,1298.94L2707.73,1311.86L2707.73,1324.78L2707.73,1344.17L2707.73,1363.56L2707.73,1382.95L2707.73,1389.41L2707.73,1395.87L2707.73,1402.33L2707.73,1415.26L2707.73,1421.72" fill="none" stroke="#000000" style="-webkit-tap-highlight-color: rgba(0, 0, 0, 0); stroke-linecap: round; stroke-linejoin: round; stroke-width: 18;" /><path d="M2733.58,1376.48L2720.66,1382.95L2714.19,1382.95L2714.19,1376.48L2720.66,1376.48L2727.12,1376.48L2733.58,1382.95L2752.97,1382.95L2765.89,1382.95L2778.82,1389.41L2798.2,1395.87L2811.13,1395.87L2830.52,1402.33L2843.44,1402.33L2862.83,1402.33L2875.75,1402.33L2888.68,1408.8L2895.14,1408.8L2914.53,1408.8L2927.45,1402.33L2940.38,1395.87L2953.3,1395.87L2959.76,1395.87L2972.69,1395.87L2979.15,1395.87L2992.08,1395.87L2998.54,1395.87L3005,1395.87L3011.46,1395.87L3017.92,1395.87L3017.92,1402.33L3024.39,1402.33L3024.39,1408.8L3030.85,1415.26L3030.85,1428.18L3037.31,1441.11L3050.24,1447.57L3056.7,1454.03L3063.16,1460.49L3069.62,1466.96L3076.09,1473.42L3076.09,1479.88L3076.09,1486.34L3069.62,1499.27L3063.16,1518.66L3050.24,1550.97L3043.77,1576.82L3037.31,1596.2L3030.85,1602.67L3030.85,1609.13" fill="none" stroke="#000000" style="-webkit-tap-highlight-color: rgba(0, 0, 0, 0); stroke-linecap: round; stroke-linejoin: round; stroke-width: 18;" /><path d="M2158.43,1550.97L2158.43,1544.51L2158.43,1550.97L2164.89,1557.43L2177.82,1570.35L2184.28,1570.35L2184.28,1576.82L2190.74,1583.28L2190.74,1589.74L2203.67,1596.2L2216.59,1602.67L2229.52,1602.67L2235.98,1609.13L2242.44,1609.13L2242.44,1615.59L2248.9,1615.59L2248.9,1622.05L2248.9,1628.52L2255.37,1628.52L2255.37,1634.98L2255.37,1641.44L2255.37,1647.9L2261.83,1647.9L2274.75,1647.9L2281.22,1647.9L2287.68,1647.9L2300.6,1647.9L2319.99,1647.9L2339.38,1647.9L2358.76,1647.9L2378.15,1647.9L2397.54,1647.9L2416.92,1647.9L2442.77,1647.9L2462.16,1654.37L2481.55,1654.37L2500.94,1660.83L2520.32,1660.83L2533.25,1660.83L2552.63,1667.29L2565.56,1667.29L2578.48,1667.29L2591.41,1667.29L2604.33,1673.75L2623.72,1673.75L2636.65,1673.75L2649.57,1673.75L2662.49,1673.75L2675.42,1673.75L2694.81,1673.75L2707.73,1667.29L2720.66,1667.29L2733.58,1667.29L2740.04,1667.29L2752.97,1667.29L2765.89,1660.83L2778.82,1660.83L2798.2,1654.37L2804.67,1654.37L2811.13,1654.37L2824.05,1647.9L2830.52,1647.9L2836.98,1647.9L2849.9,1647.9L2856.37,1647.9L2869.29,1641.44L2882.22,1641.44L2888.68,1634.98L2901.6,1634.98L2908.06,1634.98L2920.99,1628.52L2927.45,1628.52L2940.38,1628.52L2946.84,1622.05L2959.76,1622.05L2972.69,1622.05L2985.61,1622.05L3005,1615.59L3017.92,1615.59L3030.85,1609.13L3050.24,1609.13L3069.62,1602.67" fill="none" stroke="#000000" style="-webkit-tap-highlight-color: rgba(0, 0, 0, 0); stroke-linecap: round; stroke-linejoin: round; stroke-width: 18;" /><path d="M620.39,1544.51L626.85,1550.97L639.77,1557.43L672.09,1570.35L704.4,1576.82L730.25,1589.74L743.17,1589.74L756.1,1596.2L769.02,1596.2L788.41,1596.2L801.33,1596.2L814.26,1602.67L827.18,1602.67L840.11,1602.67L853.03,1609.13L865.96,1609.13L872.42,1609.13L885.34,1615.59L891.81,1615.59L904.73,1615.59L917.66,1622.05L930.58,1622.05L937.04,1622.05L949.97,1628.52L962.89,1628.52L969.35,1628.52L975.82,1628.52L988.74,1634.98L1001.67,1634.98L1014.59,1634.98L1027.52,1634.98L1040.44,1634.98L1053.37,1628.52L1072.75,1628.52L1085.68,1628.52L1105.06,1628.52L1117.99,1628.52L1130.91,1628.52L1143.84,1628.52L1156.76,1628.52L1163.23,1615.59L1163.23,1609.13" fill="none" stroke="#000000" style="-webkit-tap-highlight-color: rgba(0, 0, 0, 0); stroke-linecap: round; stroke-linejoin: round; stroke-width: 18;" /><path d="M1163.23,1622.05L1156.76,1628.52L1156.76,1634.98L1163.23,1634.98L1169.69,1634.98L1176.15,1634.98L1189.08,1634.98L1202,1634.98L1214.92,1634.98L1234.31,1628.52L1247.24,1628.52L1260.16,1628.52L1273.09,1634.98L1286.01,1634.98L1305.4,1634.98L1324.78,1634.98L1337.71,1628.52L1344.17,1628.52L1357.1,1628.52L1363.56,1634.98L1376.48,1634.98L1389.41,1634.98L1402.33,1634.98L1415.26,1641.44L1421.72,1641.44L1428.18,1641.44L1434.65,1641.44L1441.11,1641.44L1447.57,1641.44L1460.49,1641.44L1473.42,1641.44L1479.88,1641.44L1486.34,1641.44L1499.27,1641.44L1512.19,1641.44L1518.66,1641.44L1525.12,1641.44L1531.58,1641.44L1538.04,1641.44L1544.51,1641.44L1544.51,1634.98L1550.97,1634.98L1557.43,1634.98L1563.89,1634.98L1570.35,1634.98L1583.28,1628.52L1589.74,1622.05L1596.2,1622.05L1602.67,1615.59" fill="none" stroke="#000000" style="-webkit-tap-highlight-color: rgba(0, 0, 0, 0); stroke-linecap: round; stroke-linejoin: round; stroke-width: 18;" /><path d="M226.18,1706.06L219.72,1706.06L226.18,1706.06L239.11,1712.53L277.88,1718.99L290.81,1718.99L310.19,1725.45L323.12,1731.91L342.51,1738.38L361.89,1744.84L381.28,1744.84L400.67,1744.84L413.59,1751.3L426.52,1757.76L432.98,1757.76L445.9,1764.23L465.29,1764.23L478.22,1764.23L491.14,1764.23L504.06,1770.69L516.99,1777.15L529.91,1777.15L542.84,1783.61L555.76,1790.08L562.23,1790.08L575.15,1790.08L581.61,1796.54L594.54,1796.54L601,1803L613.92,1803L626.85,1803L633.31,1803L639.77,1803L646.24,1803L652.7,1803L659.16,1803L665.62,1803L665.62,1809.46L665.62,1815.92L665.62,1822.39L665.62,1835.31L665.62,1841.77L665.62,1848.24L659.16,1848.24L652.7,1854.7L646.24,1854.7L639.77,1861.16L633.31,1867.62L620.39,1867.62L607.46,1874.09L594.54,1880.55L581.61,1893.47L568.69,1906.4L555.76,1912.86L542.84,1919.32L529.91,1925.78L516.99,1932.25L504.06,1945.17L491.14,1951.63L478.22,1964.56L471.75,1971.02L458.83,1977.48L445.9,1990.41L439.44,1996.87L432.98,2003.33L420.05,2016.26L413.59,2022.72L407.13,2029.18L400.67,2035.65L394.2,2042.11L394.2,2055.03L387.74,2061.49L381.28,2061.49L381.28,2067.96L374.82,2074.42L368.35,2087.34L361.89,2093.81L355.43,2100.27L348.97,2100.27L342.51,2106.73L329.58,2113.19L323.12,2119.66L316.66,2119.66L316.66,2126.12L310.19,2126.12L303.73,2126.12L290.81,2132.58L284.34,2132.58L277.88,2132.58L271.42,2132.58L264.96,2132.58L252.03,2139.04L239.11,2139.04L226.18,2139.04L206.8,2139.04L180.95,2132.58L155.1,2132.58L122.78,2132.58L84.01,2139.04L58.16,2145.51L38.77,2145.51L32.31,2145.51L25.85,2145.51" fill="none" stroke="#000000" style="-webkit-tap-highlight-color: rgba(0, 0, 0, 0); stroke-linecap: round; stroke-linejoin: round; stroke-width: 18;" /><path d="M58.16,2022.72L51.7,2022.72L64.62,2022.72L84.01,2022.72L103.4,2022.72L135.71,2016.26L161.56,2009.8L187.41,2003.33L206.8,1996.87L226.18,1990.41L245.57,1990.41L252.03,1990.41L264.96,1983.95L271.42,1983.95L277.88,1983.95L284.34,1977.48L290.81,1977.48L303.73,1964.56L323.12,1951.63L342.51,1938.71L368.35,1932.25L387.74,1919.32L413.59,1912.86L432.98,1899.94L458.83,1887.01L471.75,1880.55L491.14,1874.09L510.53,1867.62L536.38,1854.7L555.76,1841.77L575.15,1828.85L588.08,1822.39L601,1815.92L607.46,1815.92L620.39,1815.92L626.85,1809.46L626.85,1803" fill="none" stroke="#000000" style="-webkit-tap-highlight-color: rgba(0, 0, 0, 0); stroke-linecap: round; stroke-linejoin: round; stroke-width: 18;" /><path d="M2617.26,2759.43" fill="none" stroke="#000000" style="-webkit-tap-highlight-color: rgba(0, 0, 0, 0); stroke-linecap: round; stroke-linejoin: round; stroke-width: 18;" /><path d="M833.65,484.68L833.65,471.75L833.65,478.22L827.18,497.6L814.26,529.91L814.26,562.23L814.26,581.61L807.8,601L807.8,613.92L807.8,626.85L807.8,646.24L807.8,659.16L807.8,678.55L807.8,691.47L801.33,710.86L801.33,723.78L801.33,736.71L801.33,749.63L794.87,769.02L794.87,781.95L794.87,794.87L788.41,814.26L781.95,827.18L781.95,840.11L775.48,853.03L775.48,865.96L769.02,878.88L769.02,898.27L762.56,911.19L756.1,924.12L749.63,943.51L749.63,956.43L743.17,969.35L736.71,982.28L730.25,1001.67L730.25,1014.59L723.78,1033.98L723.78,1053.37L717.32,1072.75L710.86,1085.68L710.86,1105.06L704.4,1117.99L704.4,1130.91L704.4,1150.3L697.94,1163.23L697.94,1176.15L697.94,1195.54L691.47,1208.46L691.47,1214.92L691.47,1227.85L685.01,1240.77L685.01,1253.7L685.01,1266.62L685.01,1279.55L685.01,1286.01L678.55,1298.94" fill="none" stroke="#000000" style="-webkit-tap-highlight-color: rgba(0, 0, 0, 0); stroke-linecap: round; stroke-linejoin: round; stroke-width: 18;" /><path d="M956.43,801.33L956.43,794.87L956.43,801.33L956.43,807.8L956.43,820.72L956.43,840.11L956.43,853.03L956.43,865.96L949.97,885.34L943.51,904.73L943.51,924.12L937.04,937.04L930.58,956.43L930.58,982.28L924.12,995.2L924.12,1008.13L917.66,1021.05L917.66,1033.98L911.19,1046.9L911.19,1059.83L904.73,1079.22L904.73,1092.14L904.73,1098.6L898.27,1111.53L898.27,1117.99L898.27,1130.91L891.81,1137.38L891.81,1150.3L885.34,1163.23L885.34,1169.69L885.34,1182.61L878.88,1195.54L878.88,1208.46L878.88,1214.92L872.42,1227.85L872.42,1240.77L872.42,1253.7L865.96,1266.62L865.96,1279.55L865.96,1286.01L865.96,1298.94L859.49,1318.32L859.49,1337.71L859.49,1344.17L859.49,1357.1L853.03,1363.56L846.57,1376.48L840.11,1382.95" fill="none" stroke="#000000" style="-webkit-tap-highlight-color: rgba(0, 0, 0, 0); stroke-linecap: round; stroke-linejoin: round; stroke-width: 18;" /><path d="M969.35,833.65L969.35,827.18L962.89,827.18L962.89,820.72L962.89,827.18L962.89,840.11L969.35,846.57L969.35,853.03L969.35,865.96L969.35,878.88L969.35,904.73L969.35,930.58L975.82,943.51L975.82,956.43L975.82,975.82L975.82,995.2L975.82,1008.13L975.82,1014.59L975.82,1027.52L975.82,1033.98L975.82,1046.9L975.82,1059.83L969.35,1072.75L969.35,1092.14L969.35,1105.06L969.35,1117.99L969.35,1130.91L969.35,1143.84L969.35,1156.76L969.35,1176.15L969.35,1195.54L969.35,1214.92L962.89,1227.85" fill="none" stroke="#000000" style="-webkit-tap-highlight-color: rgba(0, 0, 0, 0); stroke-linecap: round; stroke-linejoin: round; stroke-width: 18;" /><path d="M155.1,1202L155.1,1195.54L180.95,1195.54L193.87,1195.54L200.33,1195.54L213.26,1195.54L226.18,1195.54L245.57,1189.08L258.49,1189.08L277.88,1189.08L290.81,1189.08L303.73,1189.08L316.66,1189.08L329.58,1189.08L342.51,1189.08L355.43,1189.08L368.35,1189.08L381.28,1195.54L387.74,1195.54L394.2,1195.54L400.67,1195.54L407.13,1202L407.13,1208.46L413.59,1214.92L413.59,1221.39L413.59,1234.31L413.59,1247.24L413.59,1253.7L413.59,1266.62L413.59,1279.55L413.59,1286.01L413.59,1292.47L413.59,1298.94L420.05,1298.94L426.52,1298.94L432.98,1305.4L439.44,1305.4L445.9,1305.4L458.83,1305.4L471.75,1298.94L484.68,1298.94L491.14,1292.47L504.06,1292.47L510.53,1292.47L523.45,1292.47L529.91,1292.47L542.84,1292.47L555.76,1292.47L562.23,1292.47L575.15,1286.01L581.61,1286.01L588.08,1286.01L594.54,1286.01L601,1292.47L607.46,1292.47L620.39,1298.94L626.85,1305.4L633.31,1311.86L646.24,1311.86L652.7,1318.32L665.62,1318.32L678.55,1318.32L685.01,1324.78L704.4,1324.78L717.32,1324.78L730.25,1324.78" fill="none" stroke="#000000" style="-webkit-tap-highlight-color: rgba(0, 0, 0, 0); stroke-linecap: round; stroke-linejoin: round; stroke-width: 18;" /><path d="M180.95,1202L174.48,1195.54L168.02,1208.46L168.02,1214.92L168.02,1227.85L161.56,1234.31L155.1,1240.77L142.17,1253.7L135.71,1266.62L122.78,1279.55L116.32,1286.01L103.4,1286.01L90.47,1292.47L84.01,1292.47L71.09,1292.47L58.16,1292.47L38.77,1298.94L25.85,1298.94L12.92,1298.94L12.92,1305.4L6.46,1305.4L0,1311.86" fill="none" stroke="#000000" style="-webkit-tap-highlight-color: rgba(0, 0, 0, 0); stroke-linecap: round; stroke-linejoin: round; stroke-width: 18;" /><path d="M252.03,1686.68L252.03,1680.22L264.96,1673.75L277.88,1660.83L290.81,1654.37L303.73,1641.44L323.12,1634.98L336.04,1628.52L355.43,1622.05L368.35,1622.05L387.74,1615.59L407.13,1615.59L420.05,1615.59L439.44,1609.13L452.37,1609.13L471.75,1602.67L491.14,1589.74L510.53,1583.28L529.91,1570.35L542.84,1563.89L562.23,1557.43L575.15,1544.51L594.54,1538.04L613.92,1525.12L626.85,1518.66" fill="none" stroke="#000000" style="-webkit-tap-highlight-color: rgba(0, 0, 0, 0); stroke-linecap: round; stroke-linejoin: round; stroke-width: 18;" /><path d="M1596.2,1647.9L1602.67,1647.9L1609.13,1641.44L1628.52,1641.44L1641.44,1641.44L1673.75,1634.98L1718.99,1628.52L1738.38,1622.05L1764.23,1622.05L1783.61,1622.05L1809.46,1622.05L1835.31,1622.05L1861.16,1622.05L1880.55,1622.05L1906.4,1622.05L1925.78,1628.52L1945.17,1628.52L1964.56,1628.52L1983.95,1628.52L2003.33,1628.52L2016.26,1628.52L2035.65,1628.52L2061.49,1628.52L2080.88,1628.52L2106.73,1628.52L2132.58,1622.05L2158.43,1622.05L2184.28,1609.13L2216.59,1602.67" fill="none" stroke="#000000" style="-webkit-tap-highlight-color: rgba(0, 0, 0, 0); stroke-linecap: round; stroke-linejoin: round; stroke-width: 18;" /><path d="M3076.09,1596.2L3076.09,1589.74L3082.55,1583.28L3095.47,1583.28L3114.86,1583.28L3127.78,1589.74L3147.17,1596.2L3166.56,1602.67L3179.48,1615.59L3198.87,1622.05L3218.26,1622.05L3231.18,1628.52L3237.65,1634.98L3250.57,1641.44L3263.49,1647.9L3276.42,1654.37L3289.34,1654.37L3302.27,1660.83L3315.19,1673.75L3328.12,1680.22L3341.04,1686.68L3353.97,1693.14L3366.89,1706.06L3379.82,1718.99L3405.67,1725.45L3425.05,1738.38L3450.9,1744.84L3470.29,1751.3L3489.68,1764.23L3509.06,1770.69L3528.45,1783.61L3547.84,1790.08L3560.76,1790.08L3573.69,1796.54L3580.15,1803" fill="none" stroke="#000000" style="-webkit-tap-highlight-color: rgba(0, 0, 0, 0); stroke-linecap: round; stroke-linejoin: round; stroke-width: 18;" /><path d="M3063.16,1550.97L3063.16,1557.43L3069.62,1563.89L3076.09,1570.35L3089.01,1570.35L3101.94,1570.35L3121.32,1570.35L3140.71,1563.89L3160.1,1563.89L3185.95,1570.35L3205.33,1570.35L3224.72,1576.82L3244.11,1576.82L3257.03,1576.82L3263.49,1583.28L3282.88,1589.74L3302.27,1589.74L3308.73,1589.74L3321.66,1589.74L3328.12,1589.74L3341.04,1596.2L3347.51,1596.2L3353.97,1602.67L3366.89,1602.67L3379.82,1609.13L3386.28,1609.13L3392.74,1609.13L3392.74,1615.59L3399.2,1622.05L3405.67,1622.05L3412.13,1628.52L3418.59,1634.98L3425.05,1634.98L3431.52,1641.44L3437.98,1641.44L3444.44,1647.9L3457.37,1647.9L3463.83,1654.37L3470.29,1654.37L3476.75,1660.83L3483.22,1667.29L3496.14,1667.29L3502.6,1673.75L3515.53,1680.22L3521.99,1680.22L3534.91,1686.68L3554.3,1693.14L3567.23,1699.6L3580.15,1706.06L3593.08,1712.53L3599.54,1718.99" fill="none" stroke="#000000" style="-webkit-tap-highlight-color: rgba(0, 0, 0, 0); stroke-linecap: round; stroke-linejoin: round; stroke-width: 18;" /><path d="M853.03,491.14L846.57,484.68L853.03,484.68L865.96,484.68L878.88,484.68L891.81,478.22L911.19,478.22L924.12,478.22L937.04,478.22L956.43,478.22L982.28,471.75L1001.67,471.75L1014.59,471.75L1027.52,471.75L1040.44,471.75L1053.37,471.75L1066.29,471.75L1085.68,471.75L1098.6,471.75L1111.53,471.75L1124.45,471.75L1137.38,471.75L1150.3,478.22L1169.69,478.22L1189.08,478.22L1208.46,478.22L1221.39,478.22L1240.77,484.68L1266.62,484.68L1286.01,491.14L1298.94,491.14L1318.32,497.6L1337.71,497.6L1357.1,497.6L1376.48,504.06L1395.87,504.06L1415.26,510.53L1428.18,510.53L1441.11,510.53L1460.49,516.99L1473.42,516.99L1486.34,516.99L1499.27,523.45L1512.19,523.45L1531.58,523.45L1544.51,523.45L1557.43,523.45L1576.82,523.45L1589.74,523.45L1609.13,529.91L1622.05,529.91L1641.44,529.91L1654.37,529.91L1673.75,529.91L1686.68,536.38" fill="none" stroke="#000000" style="-webkit-tap-highlight-color: rgba(0, 0, 0, 0); stroke-linecap: round; stroke-linejoin: round; stroke-width: 18;" /><path d="M1686.68,549.3L1693.14,549.3L1699.6,542.84L1706.06,542.84L1712.53,542.84L1731.91,542.84L1757.76,542.84L1783.61,542.84L1803,536.38L1815.92,536.38L1835.31,536.38L1848.24,536.38L1867.62,536.38L1887.01,536.38L1906.4,536.38L1925.78,536.38L1945.17,536.38L1958.1,536.38L1977.48,536.38L1996.87,536.38L2016.26,536.38L2035.65,536.38L2048.57,536.38L2067.96,536.38L2087.34,536.38L2113.19,536.38L2132.58,536.38L2151.97,536.38L2171.35,536.38L2190.74,536.38L2203.67,536.38L2223.05,536.38L2242.44,542.84L2261.83,542.84L2281.22,542.84L2294.14,549.3L2307.06,549.3L2319.99,555.76L2332.91,555.76L2352.3,555.76L2365.23,555.76L2378.15,562.23L2391.08,562.23L2410.46,562.23L2423.39,562.23L2442.77,568.69L2455.7,568.69L2475.09,568.69L2494.47,568.69L2513.86,568.69L2533.25,575.15L2546.17,575.15L2559.1,575.15L2578.48,575.15L2591.41,575.15L2610.8,575.15L2623.72,581.61L2636.65,581.61L2649.57,581.61L2662.49,581.61L2675.42,581.61L2681.88,581.61L2694.81,581.61L2707.73,581.61L2720.66,581.61L2727.12,581.61L2733.58,581.61L2746.51,581.61L2759.43,581.61L2765.89,575.15L2772.35,581.61L2778.82,581.61L2785.28,581.61" fill="none" stroke="#000000" style="-webkit-tap-highlight-color: rgba(0, 0, 0, 0); stroke-linecap: round; stroke-linejoin: round; stroke-width: 18;" /><path d="M2772.35,588.08L2765.89,575.15L2765.89,568.69L2798.2,568.69L2849.9,568.69L2869.29,575.15L2895.14,575.15L2914.53,581.61L2940.38,581.61L2972.69,581.61L2998.54,581.61L3024.39,588.08L3043.77,588.08L3063.16,588.08L3076.09,594.54L3095.47,594.54L3114.86,594.54L3134.25,594.54L3147.17,588.08L3160.1,588.08L3173.02,588.08L3185.95,588.08L3198.87,588.08L3211.8,588.08L3231.18,588.08L3244.11,588.08L3257.03,588.08L3276.42,588.08L3289.34,588.08L3315.19,588.08L3334.58,594.54L3360.43,594.54L3379.82,601L3399.2,601L3418.59,607.46L3437.98,607.46L3457.37,613.92L3470.29,613.92L3489.68,613.92L3502.6,613.92L3521.99,613.92L3534.91,613.92L3554.3,613.92L3573.69,613.92L3593.08,613.92L3606,613.92" fill="none" stroke="#000000" style="-webkit-tap-highlight-color: rgba(0, 0, 0, 0); stroke-linecap: round; stroke-linejoin: round; stroke-width: 18;" /><path d="M1725.45,413.59L1718.99,413.59L1718.99,407.13L1725.45,413.59L1731.91,413.59L1751.3,413.59L1803,394.2L1828.85,387.74L1848.24,381.28L1867.62,381.28L1887.01,374.82L1906.4,368.35L1925.78,361.89L1945.17,361.89L1964.56,355.43L1977.48,355.43L1996.87,355.43L2009.8,355.43L2022.72,355.43L2035.65,355.43L2055.03,355.43L2074.42,355.43L2087.34,355.43L2100.27,355.43L2113.19,355.43L2119.66,355.43L2126.12,355.43L2139.04,361.89L2151.97,361.89L2164.89,361.89L2171.35,368.35L2177.82,368.35L2184.28,368.35L2190.74,368.35L2197.2,368.35L2197.2,374.82L2203.67,374.82L2210.13,374.82L2216.59,374.82L2216.59,381.28L2223.05,381.28L2229.52,387.74L2229.52,394.2L2235.98,394.2L2242.44,400.67L2248.9,400.67L2255.37,407.13L2261.83,407.13L2268.29,407.13L2274.75,413.59L2294.14,413.59L2313.53,413.59L2332.91,413.59L2352.3,413.59L2371.69,413.59L2384.61,413.59L2404,420.05L2423.39,420.05L2436.31,420.05L2449.24,420.05L2462.16,426.52L2475.09,426.52L2488.01,426.52L2500.94,432.98L2513.86,432.98L2526.78,432.98L2539.71,432.98L2552.63,432.98L2565.56,432.98L2578.48,432.98L2584.95,432.98L2597.87,432.98L2610.8,432.98L2617.26,439.44L2636.65,439.44L2649.57,445.9L2668.96,445.9L2681.88,445.9L2694.81,445.9L2701.27,452.37L2707.73,452.37L2714.19,458.83L2720.66,458.83L2733.58,458.83L2746.51,465.29L2752.97,465.29L2759.43,465.29L2765.89,465.29L2772.35,471.75L2778.82,471.75L2785.28,478.22L2791.74,478.22L2798.2,484.68L2811.13,484.68L2817.59,484.68L2824.05,491.14L2830.52,491.14L2843.44,491.14L2856.37,497.6L2869.29,497.6L2888.68,497.6L2901.6,497.6L2914.53,497.6L2933.91,497.6L2946.84,497.6L2966.23,497.6L2979.15,497.6L2998.54,497.6L3011.46,497.6L3030.85,497.6L3050.24,497.6L3069.62,497.6L3082.55,491.14L3101.94,491.14L3114.86,491.14L3127.78,491.14L3140.71,491.14L3153.63,491.14L3166.56,491.14L3185.95,491.14L3192.41,497.6L3205.33,497.6L3237.65,497.6L3244.11,497.6L3257.03,497.6L3269.96,497.6L3282.88,497.6L3302.27,497.6L3308.73,497.6L3321.66,497.6L3334.58,497.6L3347.51,497.6L3366.89,497.6L3373.35,504.06L3386.28,504.06L3399.2,510.53L3412.13,510.53L3425.05,510.53L3437.98,510.53L3450.9,510.53L3463.83,510.53L3476.75,510.53L3489.68,510.53L3509.06,504.06L3521.99,504.06L3541.38,497.6L3560.76,497.6L3573.69,497.6L3586.61,491.14L3599.54,491.14L3606,484.68" fill="none" stroke="#000000" style="-webkit-tap-highlight-color: rgba(0, 0, 0, 0); stroke-linecap: round; stroke-linejoin: round; stroke-width: 18;" /><path d="M6.46,400.67L12.92,400.67L19.39,400.67L25.85,400.67L38.77,407.13L51.7,407.13L71.09,413.59L90.47,413.59L103.4,413.59L122.78,413.59L142.17,413.59L168.02,413.59L187.41,413.59L206.8,413.59L226.18,413.59L239.11,413.59L258.49,413.59L277.88,413.59L290.81,407.13L310.19,407.13L329.58,400.67L355.43,400.67L381.28,394.2L400.67,394.2L432.98,387.74L452.37,387.74L471.75,394.2L491.14,394.2L510.53,394.2L523.45,394.2L529.91,394.2L542.84,394.2L549.3,387.74L555.76,381.28L562.23,381.28L568.69,374.82L575.15,374.82L575.15,368.35L575.15,361.89L581.61,355.43L581.61,348.97L581.61,342.51L588.08,342.51L588.08,336.04L594.54,329.58L601,329.58L613.92,329.58L620.39,323.12L626.85,323.12L639.77,323.12L652.7,329.58L672.09,329.58L691.47,329.58L710.86,329.58L723.78,329.58L736.71,336.04L736.71,342.51" fill="none" stroke="#000000" style="-webkit-tap-highlight-color: rgba(0, 0, 0, 0); stroke-linecap: round; stroke-linejoin: round; stroke-width: 18;" /><path d="M704.4,348.97L704.4,342.51L710.86,336.04L717.32,336.04L723.78,336.04L736.71,336.04L749.63,336.04L762.56,336.04L788.41,329.58L801.33,329.58L820.72,329.58L827.18,329.58L833.65,329.58L840.11,329.58L846.57,336.04L853.03,336.04L865.96,336.04L872.42,336.04L885.34,342.51L891.81,342.51L898.27,348.97L904.73,348.97L911.19,355.43L917.66,355.43L924.12,361.89L930.58,368.35L937.04,368.35L949.97,374.82L956.43,374.82L969.35,381.28L988.74,381.28L1001.67,381.28L1014.59,381.28L1027.52,387.74L1040.44,387.74L1053.37,387.74L1066.29,387.74L1079.22,387.74L1092.14,387.74L1098.6,387.74L1105.06,387.74L1117.99,387.74L1124.45,387.74L1137.38,387.74L1143.84,387.74L1156.76,387.74L1163.23,381.28L1169.69,381.28L1176.15,381.28L1182.61,374.82L1189.08,374.82L1195.54,374.82L1202,374.82L1214.92,368.35L1227.85,368.35L1234.31,368.35L1247.24,361.89L1253.7,361.89L1260.16,361.89L1266.62,355.43L1273.09,355.43L1279.55,355.43L1292.47,355.43L1298.94,348.97L1305.4,348.97L1311.86,348.97L1318.32,348.97L1324.78,348.97L1337.71,348.97L1344.17,348.97L1357.1,348.97L1363.56,348.97L1370.02,348.97L1376.48,348.97L1382.95,348.97L1389.41,348.97L1402.33,348.97L1408.8,348.97L1421.72,348.97L1428.18,348.97L1441.11,348.97L1454.03,348.97L1466.96,348.97L1473.42,348.97L1479.88,355.43L1486.34,355.43L1492.81,355.43L1499.27,355.43L1505.73,355.43L1512.19,355.43L1518.66,355.43L1525.12,355.43L1538.04,355.43L1544.51,355.43L1550.97,361.89L1557.43,361.89L1563.89,361.89L1576.82,361.89L1583.28,368.35L1589.74,368.35L1596.2,368.35L1609.13,374.82L1615.59,374.82L1628.52,381.28L1641.44,387.74L1647.9,387.74L1654.37,394.2L1660.83,394.2L1667.29,394.2L1673.75,400.67L1680.22,400.67L1686.68,400.67L1693.14,407.13L1699.6,407.13L1706.06,413.59L1712.53,413.59L1718.99,413.59L1725.45,413.59L1718.99,420.05" fill="none" stroke="#000000" style="-webkit-tap-highlight-color: rgba(0, 0, 0, 0); stroke-linecap: round; stroke-linejoin: round; stroke-width: 18;" /><path d="M756.1,788.41L762.56,788.41L756.1,788.41L749.63,788.41L743.17,788.41L736.71,788.41L723.78,788.41L717.32,794.87L717.32,801.33L717.32,807.8L710.86,814.26L704.4,820.72L704.4,833.65L697.94,846.57L691.47,853.03L685.01,865.96L685.01,872.42L678.55,878.88L672.09,885.34L665.62,891.81L659.16,898.27L646.24,904.73L639.77,917.66L633.31,924.12L626.85,930.58L620.39,937.04L613.92,943.51L601,949.97L594.54,956.43L588.08,969.35L575.15,975.82L568.69,982.28L562.23,988.74L549.3,995.2L542.84,1001.67L536.38,1014.59L529.91,1021.05L523.45,1033.98L516.99,1046.9L510.53,1053.37L510.53,1059.83L504.06,1072.75L497.6,1079.22L491.14,1085.68L491.14,1092.14L484.68,1098.6L471.75,1105.06L465.29,1105.06L465.29,1111.53L458.83,1111.53L452.37,1111.53L445.9,1111.53L439.44,1117.99L432.98,1117.99L426.52,1117.99L420.05,1117.99L413.59,1111.53L407.13,1111.53L394.2,1111.53L387.74,1111.53L381.28,1111.53L368.35,1111.53L361.89,1105.06L355.43,1105.06L348.97,1105.06L342.51,1105.06L336.04,1105.06L329.58,1105.06L323.12,1111.53L316.66,1117.99L310.19,1117.99L297.27,1124.45L290.81,1124.45L277.88,1130.91L264.96,1130.91L252.03,1137.38L239.11,1137.38L219.72,1143.84L206.8,1150.3L193.87,1156.76L174.48,1156.76L161.56,1163.23L148.63,1163.23L135.71,1163.23L116.32,1163.23L96.94,1163.23L77.55,1169.69L58.16,1169.69L38.77,1169.69L25.85,1163.23L25.85,1156.76L38.77,1156.76" fill="none" stroke="#000000" style="-webkit-tap-highlight-color: rgba(0, 0, 0, 0); stroke-linecap: round; stroke-linejoin: round; stroke-width: 18;" /><path d="M3360.43,665.62L3353.97,659.16L3347.51,659.16L3347.51,678.55L3353.97,704.4L3353.97,723.78L3360.43,743.17L3360.43,762.56L3353.97,775.48L3347.51,794.87L3347.51,807.8L3341.04,814.26L3328.12,827.18L3321.66,846.57L3315.19,865.96L3308.73,885.34L3302.27,904.73L3295.81,924.12L3289.34,943.51L3276.42,962.89L3263.49,988.74L3257.03,1008.13L3250.57,1027.52L3244.11,1040.44L3237.65,1053.37L3224.72,1072.75L3218.26,1092.14L3211.8,1111.53L3198.87,1130.91L3192.41,1150.3L3192.41,1176.15L3185.95,1195.54L3185.95,1221.39L3179.48,1247.24L3179.48,1273.09L3173.02,1286.01L3173.02,1298.94L3166.56,1311.86L3153.63,1318.32" fill="none" stroke="#000000" style="-webkit-tap-highlight-color: rgba(0, 0, 0, 0); stroke-linecap: round; stroke-linejoin: round; stroke-width: 18;" /><path d="M2746.51,1382.95L2746.51,1376.48L2759.43,1382.95L2798.2,1382.95L2824.05,1376.48L2843.44,1363.56L2869.29,1357.1L2895.14,1350.63L2920.99,1337.71L2940.38,1324.78L2959.76,1311.86L2979.15,1305.4L2985.61,1298.94L2992.08,1298.94L2998.54,1292.47L3011.46,1292.47L3030.85,1286.01L3043.77,1286.01L3056.7,1286.01L3076.09,1292.47L3089.01,1292.47L3101.94,1292.47L3121.32,1292.47L3134.25,1292.47L3147.17,1292.47L3153.63,1292.47L3166.56,1292.47L3173.02,1298.94L3185.95,1298.94L3192.41,1298.94L3205.33,1298.94L3218.26,1305.4L3224.72,1305.4L3231.18,1305.4L3237.65,1311.86L3244.11,1318.32L3250.57,1318.32L3263.49,1318.32L3269.96,1324.78L3276.42,1324.78L3282.88,1331.25L3295.81,1331.25L3308.73,1331.25L3321.66,1331.25L3328.12,1331.25L3334.58,1331.25L3347.51,1337.71L3353.97,1337.71L3366.89,1344.17L3379.82,1344.17L3392.74,1337.71L3405.67,1337.71L3412.13,1337.71L3418.59,1337.71L3431.52,1344.17L3444.44,1344.17L3457.37,1344.17L3470.29,1344.17L3483.22,1344.17L3496.14,1350.63L3509.06,1350.63L3521.99,1350.63L3534.91,1350.63L3547.84,1350.63L3560.76,1350.63L3567.23,1350.63L3573.69,1350.63" fill="none" stroke="#000000" style="-webkit-tap-highlight-color: rgba(0, 0, 0, 0); stroke-linecap: round; stroke-linejoin: round; stroke-width: 18;" /><path d="M1576.82,1441.11L1570.35,1434.65L1589.74,1428.18L1622.05,1421.72L1634.98,1421.72L1654.37,1415.26L1673.75,1415.26L1699.6,1415.26L1718.99,1408.8L1738.38,1408.8L1757.76,1408.8L1770.69,1408.8L1790.08,1408.8L1809.46,1408.8L1828.85,1408.8L1848.24,1408.8L1861.16,1408.8L1880.55,1408.8L1899.94,1408.8L1912.86,1408.8L1932.25,1408.8L1945.17,1408.8L1958.1,1415.26L1971.02,1415.26L1983.95,1421.72L1996.87,1421.72L2009.8,1421.72L2029.18,1421.72L2042.11,1421.72L2055.03,1415.26L2074.42,1415.26L2100.27,1408.8L2126.12,1402.33L2145.51,1395.87L2158.43,1389.41" fill="none" stroke="#000000" style="-webkit-tap-highlight-color: rgba(0, 0, 0, 0); stroke-linecap: round; stroke-linejoin: round; stroke-width: 18;" /><path d="M2559.1,814.26L2552.63,814.26L2546.17,814.26L2552.63,814.26L2552.63,807.8L2559.1,807.8L2565.56,801.33L2572.02,794.87L2578.48,794.87L2584.95,794.87L2591.41,794.87L2597.87,794.87L2604.33,801.33L2610.8,807.8L2617.26,820.72L2623.72,827.18L2630.18,833.65L2636.65,840.11L2636.65,846.57L2643.11,853.03L2649.57,865.96L2649.57,872.42L2656.03,885.34L2662.49,891.81L2668.96,898.27L2668.96,904.73L2668.96,911.19L2675.42,937.04L2681.88,943.51L2681.88,949.97L2688.34,962.89L2694.81,969.35L2694.81,975.82L2701.27,982.28L2701.27,988.74L2707.73,1001.67L2707.73,1008.13L2714.19,1014.59L2720.66,1021.05L2720.66,1027.52L2727.12,1040.44L2727.12,1046.9L2727.12,1053.37L2733.58,1059.83L2740.04,1072.75L2740.04,1079.22L2740.04,1092.14L2740.04,1105.06L2746.51,1117.99L2746.51,1124.45L2746.51,1137.38L2752.97,1143.84L2752.97,1150.3L2752.97,1163.23L2752.97,1169.69L2759.43,1182.61L2759.43,1189.08L2759.43,1195.54L2765.89,1202L2772.35,1208.46L2778.82,1214.92L2778.82,1221.39L2785.28,1227.85L2791.74,1227.85L2798.2,1234.31L2811.13,1234.31L2824.05,1234.31L2830.52,1240.77L2836.98,1247.24L2843.44,1253.7L2843.44,1260.16L2849.9,1260.16L2862.83,1266.62L2862.83,1273.09L2869.29,1286.01L2869.29,1292.47L2875.75,1292.47L2882.22,1292.47" fill="none" stroke="#000000" style="-webkit-tap-highlight-color: rgba(0, 0, 0, 0); stroke-linecap: round; stroke-linejoin: round; stroke-width: 18;" /></svg>