<?xml version="1.0" encoding="utf-8" ?>
<svg baseProfile="full" height="2736" version="1.1" width="3648" xmlns="http://www.w3.org/2000/svg" xmlns:ev="http://www.w3.org/2001/xml-events" xmlns:xlink="http://www.w3.org/1999/xlink"><defs /><path d="M2546.72,732.1L2540.46,732.1L2534.2,738.36L2534.2,750.87L2527.95,775.9L2521.69,794.68L2515.43,819.7L2515.43,832.22L2515.43,850.99L2515.43,869.76L2515.43,888.54L2509.17,907.31L2509.17,932.34L2509.17,951.11L2509.17,969.88L2509.17,988.65L2509.17,1007.42L2509.17,1032.45L2509.17,1051.22L2509.17,1070L2509.17,1095.03L2515.43,1120.05L2515.43,1138.83L2515.43,1163.86L2515.43,1188.89L2515.43,1213.91L2515.43,1238.94L2521.69,1263.97L2521.69,1289L2521.69,1314.03L2527.95,1332.8L2527.95,1351.57L2527.95,1370.35L2527.95,1395.38L2527.95,1414.15L2527.95,1432.92L2527.95,1445.43L2527.95,1464.21L2527.95,1482.98L2534.2,1501.75L2534.2,1520.52L2534.2,1539.29L2540.46,1564.32L2540.46,1589.35L2540.46,1620.64L2540.46,1651.92L2540.46,1676.95L2540.46,1689.47" fill="none" stroke="#000000" style="-webkit-tap-highlight-color: rgba(0, 0, 0, 0); stroke-linecap: round; stroke-linejoin: round; stroke-width: 18;" /><path d="M2565.49,725.85L2546.72,725.85L2546.72,713.33L2552.97,713.33L2559.23,719.59L2571.75,725.85L2584.26,725.85L2603.03,725.85L2615.55,725.85L2634.32,732.1L2653.09,738.36L2665.61,738.36L2678.12,744.62L2696.89,744.62L2709.41,744.62L2728.18,744.62L2740.69,750.87L2746.95,750.87L2759.46,757.13L2765.72,757.13L2778.24,757.13L2784.49,757.13L2790.75,757.13L2797.01,763.39L2803.27,763.39L2803.27,769.65L2809.52,769.65L2809.52,775.9L2815.78,782.16L2822.04,782.16L2822.04,788.42L2822.04,794.68L2828.3,800.93L2828.3,813.45L2834.55,819.7L2834.55,825.96L2840.81,838.48L2840.81,850.99L2840.81,863.51L2840.81,876.02L2840.81,888.54L2840.81,901.05L2847.07,907.31L2853.32,907.31L2859.58,907.31L2859.58,913.56L2865.84,913.56L2872.1,919.82L2878.35,919.82L2890.87,919.82L2897.13,919.82L2903.38,919.82L2909.64,919.82L2915.9,919.82L2922.15,926.08L2928.41,926.08L2934.67,926.08L2940.93,926.08L2940.93,932.34L2947.18,938.59L2947.18,944.85L2947.18,951.11L2947.18,963.62L2947.18,976.14L2947.18,988.65L2947.18,1001.17L2947.18,1013.68L2947.18,1026.2L2947.18,1038.71L2947.18,1051.22L2947.18,1063.74L2947.18,1076.25L2947.18,1088.77L2947.18,1101.28L2947.18,1107.54L2953.44,1113.8L2959.7,1120.05L2965.96,1120.05L2972.21,1120.05L2978.47,1120.05L2984.73,1120.05L2990.98,1120.05L3003.5,1126.31L3009.76,1126.31L3016.01,1126.31L3022.27,1132.57L3028.53,1132.57L3034.79,1132.57L3034.79,1138.83L3041.04,1138.83L3047.3,1138.83L3047.3,1145.08L3047.3,1151.34L3047.3,1157.6L3047.3,1170.11L3047.3,1182.63L3047.3,1195.14L3053.56,1207.66L3053.56,1220.17L3053.56,1232.69L3053.56,1245.2L3053.56,1263.97L3053.56,1276.49L3059.81,1289L3059.81,1295.26L3066.07,1307.77L3066.07,1320.29L3066.07,1332.8L3072.33,1339.06L3078.59,1345.32L3084.84,1351.57L3091.1,1351.57L3097.36,1351.57L3103.62,1357.83L3109.87,1357.83L3122.39,1357.83L3128.64,1357.83L3134.9,1357.83L3147.42,1357.83L3153.67,1364.09L3159.93,1370.35L3159.93,1376.6L3159.93,1382.86L3159.93,1389.12L3166.19,1401.63L3166.19,1414.15L3166.19,1426.66L3166.19,1445.43L3172.45,1464.21L3172.45,1476.72L3172.45,1489.23L3172.45,1501.75L3178.7,1514.26L3178.7,1533.04L3178.7,1545.55L3178.7,1551.81L3178.7,1558.07L3178.7,1564.32L3178.7,1570.58L3178.7,1583.09L3178.7,1589.35L3178.7,1595.61L3184.96,1595.61L3184.96,1589.35L3184.96,1583.09L3191.22,1589.35L3197.48,1589.35L3203.73,1595.61L3209.99,1595.61L3216.25,1601.87L3222.5,1601.87L3228.76,1601.87L3235.02,1608.12L3241.28,1608.12L3247.53,1608.12L3253.79,1614.38L3260.05,1614.38L3266.31,1614.38L3272.56,1614.38L3278.82,1614.38L3285.08,1620.64L3291.33,1620.64L3303.85,1620.64L3310.11,1620.64L3322.62,1620.64L3328.88,1620.64L3335.14,1626.9L3347.65,1626.9L3360.16,1626.9L3366.42,1626.9L3378.94,1626.9L3385.19,1626.9L3397.71,1626.9L3403.97,1626.9L3410.22,1626.9L3416.48,1626.9L3428.99,1626.9L3435.25,1626.9L3447.77,1626.9L3454.02,1626.9L3460.28,1633.15L3472.8,1633.15L3479.05,1633.15L3485.31,1633.15L3491.57,1633.15L3497.83,1633.15L3510.34,1633.15L3516.6,1633.15L3529.11,1633.15L3535.37,1633.15L3547.88,1633.15L3554.14,1633.15L3566.66,1633.15L3572.91,1633.15L3585.43,1626.9L3597.94,1626.9L3610.46,1626.9L3622.97,1626.9L3629.23,1626.9L3641.74,1626.9" fill="none" stroke="#000000" style="-webkit-tap-highlight-color: rgba(0, 0, 0, 0); stroke-linecap: round; stroke-linejoin: round; stroke-width: 18;" /><path d="M2540.46,1670.7L2540.46,1664.44L2546.72,1664.44L2552.97,1670.7L2552.97,1676.95L2565.49,1689.47L2571.75,1708.24L2578,1720.75L2590.52,1733.27L2603.03,1739.53L2615.55,1745.78L2628.06,1745.78L2640.58,1752.04L2659.35,1752.04L2671.86,1752.04L2690.63,1758.3L2703.15,1758.3L2721.92,1764.56L2734.44,1770.81L2753.21,1770.81L2765.72,1770.81L2784.49,1770.81L2803.27,1770.81L2815.78,1770.81L2828.3,1777.07L2840.81,1783.33L2853.32,1789.58L2865.84,1789.58L2884.61,1789.58L2897.13,1783.33L2909.64,1789.58L2922.15,1789.58L2940.93,1789.58L2965.96,1789.58L2990.98,1789.58L3022.27,1783.33L3047.3,1783.33L3078.59,1783.33L3116.13,1777.07L3153.67,1777.07L3184.96,1770.81L3209.99,1770.81L3222.5,1770.81L3228.76,1770.81L3247.53,1770.81L3266.31,1777.07L3291.33,1783.33L3322.62,1789.58L3347.65,1795.84L3353.91,1795.84L3372.68,1802.1L3397.71,1802.1L3422.74,1808.36L3441.51,1808.36L3460.28,1814.61L3485.31,1814.61L3510.34,1814.61L3541.63,1814.61L3566.66,1814.61L3591.68,1814.61L3610.46,1814.61L3635.49,1814.61" fill="none" stroke="#000000" style="-webkit-tap-highlight-color: rgba(0, 0, 0, 0); stroke-linecap: round; stroke-linejoin: round; stroke-width: 18;" /><path d="M2778.24,757.13L2771.98,763.39L2765.72,769.65L2765.72,763.39L2771.98,763.39L2778.24,763.39L2784.49,769.65L2790.75,775.9L2809.52,775.9L2822.04,769.65L2834.55,769.65L2847.07,769.65L2853.32,775.9L2865.84,775.9L2878.35,775.9L2884.61,775.9L2890.87,775.9L2897.13,775.9L2903.38,782.16L2903.38,788.42L2903.38,794.68L2903.38,800.93L2903.38,813.45L2903.38,819.7L2909.64,825.96L2909.64,832.22L2915.9,832.22L2922.15,832.22L2928.41,832.22L2934.67,832.22L2940.93,838.48L2947.18,838.48L2959.7,844.73L2965.96,844.73L2978.47,844.73L2984.73,850.99L2990.98,850.99L2997.24,857.25L3003.5,863.51L3009.76,863.51L3016.01,869.76L3016.01,876.02L3022.27,882.28L3028.53,894.79L3028.53,901.05L3034.79,913.56L3034.79,926.08L3034.79,944.85L3041.04,957.37L3041.04,969.88L3047.3,988.65L3047.3,1001.17L3047.3,1019.94L3053.56,1032.45L3053.56,1038.71L3053.56,1051.22L3059.81,1057.48L3059.81,1063.74L3059.81,1076.25L3059.81,1088.77L3059.81,1095.03L3059.81,1101.28L3059.81,1107.54L3066.07,1107.54L3072.33,1107.54L3078.59,1107.54L3084.84,1107.54L3084.84,1113.8L3091.1,1113.8L3097.36,1113.8L3097.36,1120.05L3103.62,1120.05L3109.87,1120.05L3109.87,1126.31L3116.13,1132.57L3116.13,1145.08L3116.13,1151.34L3116.13,1163.86L3122.39,1176.37L3122.39,1188.89L3122.39,1207.66L3128.64,1220.17L3128.64,1238.94L3128.64,1245.2L3134.9,1257.72L3134.9,1263.97L3134.9,1276.49L3134.9,1282.74L3134.9,1289L3134.9,1295.26L3134.9,1301.52L3141.16,1307.77L3141.16,1314.03L3141.16,1320.29L3147.42,1320.29L3153.67,1320.29L3159.93,1320.29L3166.19,1320.29L3172.45,1320.29L3184.96,1320.29L3191.22,1320.29L3197.48,1320.29L3203.73,1320.29L3209.99,1320.29L3216.25,1320.29L3216.25,1326.55L3222.5,1326.55L3222.5,1332.8L3228.76,1332.8L3235.02,1339.06L3235.02,1345.32L3235.02,1351.57L3241.28,1357.83L3241.28,1364.09L3241.28,1376.6L3241.28,1395.38L3247.53,1407.89L3247.53,1414.15L3253.79,1426.66L3253.79,1439.18L3253.79,1451.69L3253.79,1464.21L3253.79,1470.46L3253.79,1476.72L3260.05,1482.98L3260.05,1489.23L3260.05,1495.49L3260.05,1489.23L3253.79,1489.23L3247.53,1489.23L3241.28,1489.23L3247.53,1489.23L3253.79,1489.23L3260.05,1489.23L3266.31,1489.23L3272.56,1495.49L3278.82,1495.49L3285.08,1495.49L3291.33,1495.49L3303.85,1495.49L3310.11,1501.75L3316.36,1501.75L3322.62,1501.75L3328.88,1501.75L3341.39,1501.75L3347.65,1508.01L3353.91,1508.01L3366.42,1508.01L3372.68,1508.01L3378.94,1514.26L3385.19,1514.26L3391.45,1520.52L3403.97,1520.52L3410.22,1520.52L3422.74,1520.52L3428.99,1520.52L3435.25,1520.52L3441.51,1526.78L3447.77,1526.78L3460.28,1526.78L3466.54,1533.04L3472.8,1533.04L3485.31,1539.29L3491.57,1545.55L3504.08,1545.55L3510.34,1545.55L3516.6,1545.55L3522.85,1551.81L3535.37,1551.81L3547.88,1551.81L3560.4,1551.81L3572.91,1551.81L3585.43,1551.81L3597.94,1551.81L3604.2,1551.81L3616.71,1551.81L3629.23,1551.81L3648,1551.81" fill="none" stroke="#000000" style="-webkit-tap-highlight-color: rgba(0, 0, 0, 0); stroke-linecap: round; stroke-linejoin: round; stroke-width: 18;" /><path d="M3147.42,1351.57L3134.9,1357.83L3128.64,1357.83L3116.13,1364.09L3116.13,1370.35L3122.39,1364.09L3141.16,1351.57L3159.93,1345.32L3178.7,1339.06L3197.48,1332.8L3222.5,1326.55L3241.28,1326.55L3253.79,1320.29" fill="none" stroke="#000000" style="-webkit-tap-highlight-color: rgba(0, 0, 0, 0); stroke-linecap: round; stroke-linejoin: round; stroke-width: 18;" /><path d="M3009.76,1132.57L3003.5,1132.57L3009.76,1132.57L3022.27,1126.31L3041.04,1120.05L3059.81,1113.8L3078.59,1113.8" fill="none" stroke="#000000" style="-webkit-tap-highlight-color: rgba(0, 0, 0, 0); stroke-linecap: round; stroke-linejoin: round; stroke-width: 18;" /><path d="M2102.45,713.33L2102.45,707.07L2102.45,700.82L2108.71,700.82L2121.22,700.82L2152.51,694.56L2177.54,694.56L2202.57,688.3L2233.85,682.04L2271.4,675.79L2308.94,663.27L2346.48,657.02L2384.03,657.02L2415.31,644.5L2452.86,638.24L2490.4,631.99L2552.97,625.73L2578,619.47L2603.03,619.47L2628.06,619.47L2646.83,613.21L2671.86,613.21L2690.63,613.21L2709.41,606.96L2728.18,606.96L2746.95,606.96L2765.72,606.96L2790.75,606.96L2803.27,613.21L2822.04,613.21L2840.81,613.21L2865.84,613.21L2884.61,613.21L2897.13,613.21L2915.9,619.47L2934.67,619.47L2959.7,619.47L2972.21,619.47L2990.98,619.47L3003.5,619.47L3022.27,619.47L3034.79,613.21L3047.3,613.21L3059.81,613.21L3072.33,613.21L3091.1,613.21L3103.62,613.21L3116.13,613.21L3134.9,606.96L3159.93,606.96L3184.96,600.7L3209.99,594.44L3235.02,594.44L3272.56,588.19L3316.36,581.93L3366.42,569.41L3416.48,563.16L3454.02,556.9L3485.31,556.9L3516.6,550.64L3541.63,550.64L3560.4,544.38L3579.17,544.38L3585.43,538.13L3597.94,538.13L3610.46,538.13L3629.23,531.87L3648,525.61" fill="none" stroke="#000000" style="-webkit-tap-highlight-color: rgba(0, 0, 0, 0); stroke-linecap: round; stroke-linejoin: round; stroke-width: 18;" /><path d="M3641.74,531.87" fill="none" stroke="#000000" style="-webkit-tap-highlight-color: rgba(0, 0, 0, 0); stroke-linecap: round; stroke-linejoin: round; stroke-width: 18;" /><path d="M18.77,738.36L12.51,732.1L18.77,732.1L37.54,738.36L56.32,750.87L87.6,757.13L100.12,763.39L118.89,763.39L137.66,763.39L162.69,763.39L181.46,763.39L200.23,763.39L219.01,763.39L237.78,763.39L250.29,763.39L269.06,763.39L281.58,757.13L294.09,757.13L306.61,757.13L312.86,757.13L331.64,757.13L344.15,750.87L356.67,750.87L369.18,744.62L387.95,744.62L412.98,744.62L444.27,738.36L475.55,732.1L506.84,725.85L538.13,719.59L563.16,719.59L594.44,719.59L625.73,713.33L650.76,707.07L669.53,707.07L675.79,707.07L682.04,707.07L707.07,707.07L719.59,707.07L738.36,700.82L750.87,694.56L769.65,688.3L782.16,688.3L794.68,688.3L813.45,688.3L832.22,688.3L850.99,688.3L857.25,688.3L863.51,688.3L882.28,688.3L901.05,688.3L919.82,688.3L938.59,688.3L957.37,688.3L976.14,688.3L988.65,688.3L1007.42,682.04L1019.94,682.04L1038.71,675.79L1063.74,669.53L1076.25,663.27L1095.03,650.76L1107.54,644.5L1126.31,638.24L1138.83,631.99L1151.34,625.73L1163.86,619.47L1176.37,613.21L1182.63,606.96L1195.14,600.7L1201.4,594.44L1213.91,594.44L1220.17,588.19L1226.43,588.19L1238.94,581.93L1251.46,581.93L1257.72,581.93L1270.23,575.67L1276.49,575.67L1289,575.67L1301.52,575.67L1307.77,575.67L1320.29,575.67L1326.55,575.67L1339.06,581.93L1345.32,581.93L1357.83,588.19L1364.09,588.19L1376.6,594.44L1389.12,594.44L1401.63,600.7L1407.89,600.7L1420.4,606.96L1432.92,606.96L1445.43,606.96L1457.95,613.21L1476.72,613.21L1489.23,613.21L1501.75,613.21L1514.26,613.21L1533.04,613.21L1551.81,613.21L1570.58,613.21L1583.09,606.96L1601.87,606.96L1614.38,600.7L1633.15,594.44L1658.18,594.44L1676.95,588.19L1695.73,581.93L1720.75,575.67L1739.53,569.41L1758.3,569.41L1777.07,563.16L1795.84,556.9L1814.61,550.64L1833.39,544.38L1852.16,538.13L1864.67,538.13L1883.44,531.87L1895.96,531.87L1908.47,525.61L1920.99,519.36L1933.5,519.36L1946.02,513.1L1952.27,513.1L1964.79,506.84L1971.05,506.84L1977.3,500.58L1983.56,494.33L1996.08,488.07L2002.33,481.81L2014.85,475.55L2021.1,475.55L2027.36,469.3L2033.62,469.3L2046.13,463.04L2052.39,463.04L2064.91,463.04L2064.91,456.78L2071.16,456.78L2083.68,456.78L2096.19,456.78L2108.71,456.78L2121.22,456.78L2127.48,456.78L2139.99,456.78L2152.51,456.78L2165.02,456.78L2177.54,456.78L2190.05,456.78L2196.31,456.78L2208.82,456.78L2215.08,456.78L2227.6,456.78L2233.85,456.78L2240.11,456.78L2246.37,456.78L2246.37,463.04L2252.62,463.04L2258.88,463.04L2265.14,463.04L2271.4,469.3L2283.91,469.3L2290.17,469.3L2302.68,469.3L2308.94,469.3L2321.45,469.3L2333.97,469.3L2346.48,469.3L2359,469.3L2371.51,469.3L2384.03,469.3L2396.54,469.3L2409.06,469.3L2415.31,463.04L2427.83,463.04L2440.34,456.78L2446.6,456.78L2459.11,450.52L2471.63,450.52L2484.14,444.27L2496.66,438.01L2509.17,431.75L2521.69,425.5L2527.95,419.24L2534.2,412.98L2546.72,406.72L2559.23,400.47L2571.75,394.21L2578,394.21L2584.26,394.21L2596.78,387.95L2603.03,387.95L2609.29,387.95L2621.8,387.95L2634.32,387.95L2646.83,381.69L2665.61,381.69L2678.12,375.44L2696.89,375.44L2709.41,369.18L2728.18,369.18L2746.95,369.18L2759.46,369.18L2778.24,362.92L2797.01,362.92L2809.52,362.92L2828.3,356.67L2847.07,356.67L2865.84,356.67L2884.61,356.67L2897.13,356.67L2909.64,356.67L2922.15,356.67L2928.41,356.67L2940.93,356.67L2947.18,356.67L2959.7,356.67L2972.21,356.67L2978.47,362.92L2990.98,362.92L3003.5,362.92L3009.76,369.18L3016.01,375.44L3022.27,375.44L3034.79,381.69L3041.04,387.95L3047.3,394.21L3047.3,400.47L3053.56,400.47L3053.56,406.72L3059.81,406.72L3066.07,412.98L3072.33,412.98L3078.59,412.98L3091.1,412.98L3103.62,406.72L3122.39,400.47L3134.9,387.95L3153.67,375.44L3166.19,369.18L3184.96,362.92L3197.48,356.67L3216.25,350.41L3228.76,344.15L3241.28,344.15L3253.79,337.89L3266.31,331.64L3278.82,325.38L3297.59,319.12L3310.11,312.86L3328.88,306.61L3347.65,306.61L3366.42,300.35L3385.19,300.35L3410.22,300.35L3428.99,300.35L3447.77,300.35L3466.54,300.35L3479.05,294.09L3497.83,294.09L3516.6,294.09L3535.37,294.09L3547.88,287.84L3566.66,287.84L3579.17,281.58L3591.68,281.58L3604.2,275.32L3610.46,275.32L3622.97,269.06L3641.74,269.06" fill="none" stroke="#000000" style="-webkit-tap-highlight-color: rgba(0, 0, 0, 0); stroke-linecap: round; stroke-linejoin: round; stroke-width: 18;" /><path d="M1170.11,638.24L1176.37,638.24L1170.11,638.24L1157.6,657.02L1132.57,682.04L1095.03,713.33L1082.51,725.85L1070,738.36L1051.22,763.39L1032.45,775.9L1019.94,794.68L1001.17,807.19L982.39,819.7L969.88,832.22L957.37,857.25L944.85,869.76L938.59,869.76L932.34,882.28L926.08,888.54L913.56,901.05L901.05,913.56L894.79,926.08L882.28,938.59L876.02,951.11L857.25,963.62L850.99,969.88L838.48,976.14L832.22,982.39L813.45,994.91L800.93,1007.42L794.68,1019.94L782.16,1032.45L775.9,1038.71L763.39,1057.48L750.87,1063.74L738.36,1082.51L719.59,1101.28L700.82,1120.05L700.82,1126.31" fill="none" stroke="#000000" style="-webkit-tap-highlight-color: rgba(0, 0, 0, 0); stroke-linecap: round; stroke-linejoin: round; stroke-width: 18;" /><path d="M1983.56,719.59L1989.82,707.07L1989.82,713.33L1989.82,725.85L1983.56,744.62L1977.3,763.39L1977.3,788.42L1977.3,807.19L1977.3,832.22L1977.3,850.99L1977.3,869.76L1977.3,888.54L1977.3,901.05L1977.3,919.82L1971.05,938.59L1971.05,957.37L1971.05,976.14L1964.79,994.91L1964.79,1013.68L1958.53,1026.2L1958.53,1044.97L1958.53,1063.74L1952.27,1082.51L1952.27,1101.28L1946.02,1120.05L1946.02,1138.83L1939.76,1157.6L1939.76,1170.11L1939.76,1188.89L1939.76,1207.66L1933.5,1226.43L1933.5,1245.2L1933.5,1257.72L1933.5,1276.49L1933.5,1289L1933.5,1307.77L1933.5,1320.29L1933.5,1339.06L1933.5,1351.57L1939.76,1364.09L1939.76,1376.6L1939.76,1395.38L1946.02,1407.89L1946.02,1420.4L1946.02,1432.92L1946.02,1451.69L1952.27,1470.46L1952.27,1489.23L1952.27,1508.01L1952.27,1526.78L1952.27,1545.55L1952.27,1558.07L1952.27,1564.32L1958.53,1564.32" fill="none" stroke="#000000" style="-webkit-tap-highlight-color: rgba(0, 0, 0, 0); stroke-linecap: round; stroke-linejoin: round; stroke-width: 18;" /><path d="M1977.3,719.59L1977.3,713.33L1983.56,713.33L2008.59,713.33L2033.62,707.07L2046.13,707.07L2058.65,707.07L2071.16,713.33L2083.68,713.33L2096.19,713.33L2102.45,713.33L2108.71,713.33L2114.96,713.33L2121.22,713.33L2121.22,719.59L2127.48,719.59L2133.74,725.85L2139.99,725.85L2139.99,732.1L2146.25,744.62L2146.25,757.13L2146.25,769.65L2146.25,788.42L2139.99,813.45L2139.99,838.48L2139.99,857.25L2133.74,882.28L2133.74,901.05L2127.48,926.08L2127.48,951.11L2121.22,976.14L2121.22,994.91L2121.22,1019.94L2114.96,1038.71L2114.96,1063.74L2108.71,1088.77L2108.71,1113.8L2108.71,1132.57L2102.45,1157.6L2102.45,1176.37L2102.45,1195.14L2102.45,1220.17L2096.19,1238.94L2096.19,1257.72L2096.19,1276.49L2096.19,1295.26L2096.19,1307.77L2096.19,1326.55L2096.19,1339.06L2096.19,1357.83L2089.93,1370.35L2089.93,1382.86L2089.93,1401.63L2089.93,1414.15L2083.68,1426.66L2083.68,1439.18L2083.68,1445.43L2077.42,1457.95L2077.42,1470.46L2077.42,1476.72L2071.16,1489.23L2071.16,1495.49L2071.16,1501.75L2071.16,1508.01L2071.16,1520.52L2064.91,1520.52L2064.91,1526.78L2064.91,1533.04L2058.65,1539.29L2058.65,1545.55L2052.39,1551.81L2046.13,1551.81L2027.36,1558.07L2008.59,1564.32L1996.08,1570.58L1983.56,1570.58L1977.3,1570.58L1977.3,1564.32" fill="none" stroke="#000000" style="-webkit-tap-highlight-color: rgba(0, 0, 0, 0); stroke-linecap: round; stroke-linejoin: round; stroke-width: 18;" /><path d="M1964.79,719.59L1958.53,719.59L1952.27,719.59L1939.76,719.59L1933.5,725.85L1920.99,725.85L1914.73,725.85L1902.22,725.85L1889.7,725.85L1877.19,732.1L1864.67,738.36L1852.16,744.62L1839.64,744.62L1827.13,750.87L1820.87,750.87L1814.61,750.87L1814.61,757.13L1814.61,769.65L1814.61,775.9L1814.61,788.42L1808.36,794.68L1808.36,800.93L1808.36,813.45L1802.1,825.96L1802.1,838.48L1802.1,844.73L1795.84,850.99L1795.84,857.25L1795.84,863.51L1789.58,863.51L1789.58,869.76L1783.33,876.02L1777.07,876.02L1770.81,882.28L1764.56,882.28L1758.3,882.28L1752.04,882.28L1745.78,882.28L1739.53,888.54L1733.27,894.79L1733.27,907.31L1733.27,919.82L1733.27,932.34L1733.27,944.85L1733.27,957.37L1733.27,976.14L1733.27,994.91L1733.27,1013.68L1733.27,1026.2L1733.27,1044.97L1733.27,1057.48L1733.27,1070L1733.27,1076.25L1727.01,1095.03L1720.75,1095.03L1720.75,1101.28L1714.5,1101.28L1708.24,1107.54L1701.98,1107.54L1695.73,1113.8L1689.47,1120.05L1683.21,1120.05L1683.21,1126.31L1683.21,1132.57L1676.95,1138.83L1676.95,1145.08L1676.95,1151.34L1676.95,1163.86L1676.95,1170.11L1676.95,1182.63L1676.95,1188.89L1676.95,1195.14L1670.7,1201.4L1670.7,1207.66L1664.44,1207.66L1651.92,1207.66L1645.67,1207.66L1639.41,1207.66L1633.15,1207.66L1626.9,1213.91L1620.64,1213.91L1614.38,1213.91L1614.38,1220.17L1614.38,1226.43L1614.38,1232.69L1608.12,1245.2L1608.12,1257.72L1608.12,1270.23L1608.12,1282.74L1601.87,1295.26L1601.87,1301.52L1601.87,1314.03L1601.87,1326.55L1601.87,1332.8L1601.87,1339.06L1601.87,1351.57L1601.87,1357.83L1601.87,1364.09L1601.87,1370.35L1595.61,1370.35L1595.61,1376.6L1589.35,1382.86L1589.35,1389.12L1583.09,1395.38L1576.84,1401.63L1570.58,1401.63L1558.07,1407.89L1551.81,1407.89L1545.55,1407.89L1533.04,1407.89L1526.78,1407.89L1514.26,1401.63L1501.75,1401.63L1489.23,1401.63L1476.72,1401.63L1470.46,1401.63L1457.95,1395.38L1445.43,1395.38L1439.18,1389.12L1426.66,1389.12L1420.4,1389.12L1414.15,1382.86L1407.89,1382.86L1401.63,1382.86L1395.38,1382.86L1395.38,1389.12L1401.63,1389.12" fill="none" stroke="#000000" style="-webkit-tap-highlight-color: rgba(0, 0, 0, 0); stroke-linecap: round; stroke-linejoin: round; stroke-width: 18;" /><path d="M1414.15,1389.12L1407.89,1370.35L1395.38,1370.35L1395.38,1389.12L1389.12,1401.63L1382.86,1420.4L1382.86,1439.18L1382.86,1451.69L1382.86,1464.21L1382.86,1470.46L1382.86,1476.72L1382.86,1482.98L1389.12,1489.23L1395.38,1489.23L1401.63,1495.49L1414.15,1495.49L1426.66,1501.75L1439.18,1508.01L1457.95,1514.26L1476.72,1526.78L1495.49,1533.04L1514.26,1539.29L1533.04,1545.55L1551.81,1551.81L1570.58,1558.07L1589.35,1558.07L1608.12,1564.32L1626.9,1564.32L1645.67,1570.58L1658.18,1570.58L1670.7,1576.84L1689.47,1576.84L1701.98,1576.84L1714.5,1583.09L1727.01,1583.09L1733.27,1589.35L1745.78,1589.35L1752.04,1589.35L1764.56,1589.35L1777.07,1589.35L1789.58,1589.35L1802.1,1589.35L1808.36,1589.35L1820.87,1589.35L1833.39,1589.35L1845.9,1589.35L1858.42,1583.09L1870.93,1583.09L1883.44,1583.09L1895.96,1583.09L1908.47,1583.09L1920.99,1583.09L1939.76,1583.09L1952.27,1576.84L1958.53,1576.84L1964.79,1570.58L1977.3,1570.58" fill="none" stroke="#000000" style="-webkit-tap-highlight-color: rgba(0, 0, 0, 0); stroke-linecap: round; stroke-linejoin: round; stroke-width: 18;" /><path d="M1958.53,1614.38L1952.27,1608.12L1946.02,1601.87L1952.27,1614.38L1977.3,1626.9L1996.08,1633.15L2021.1,1633.15L2039.88,1639.41L2071.16,1651.92L2096.19,1658.18L2121.22,1664.44L2146.25,1664.44L2171.28,1670.7L2190.05,1670.7L2215.08,1676.95L2233.85,1676.95L2258.88,1683.21L2277.65,1683.21L2302.68,1689.47L2327.71,1689.47L2352.74,1695.73L2377.77,1701.98L2402.8,1701.98L2421.57,1708.24L2440.34,1714.5L2465.37,1714.5L2490.4,1720.75L2509.17,1720.75L2527.95,1720.75L2540.46,1720.75L2552.97,1720.75" fill="none" stroke="#000000" style="-webkit-tap-highlight-color: rgba(0, 0, 0, 0); stroke-linecap: round; stroke-linejoin: round; stroke-width: 18;" /><path d="M2077.42,1432.92L2071.16,1426.66L2077.42,1426.66L2096.19,1426.66L2121.22,1432.92L2146.25,1432.92L2171.28,1439.18L2202.57,1445.43L2233.85,1451.69L2277.65,1457.95L2308.94,1457.95L2340.23,1464.21L2371.51,1470.46L2396.54,1470.46L2421.57,1476.72L2446.6,1476.72L2477.89,1476.72L2496.66,1470.46L2515.43,1470.46L2534.2,1470.46L2546.72,1476.72" fill="none" stroke="#000000" style="-webkit-tap-highlight-color: rgba(0, 0, 0, 0); stroke-linecap: round; stroke-linejoin: round; stroke-width: 18;" /><path d="M3285.08,1326.55L3266.31,1326.55L3253.79,1320.29L3247.53,1320.29L3235.02,1320.29L3241.28,1320.29L3260.05,1320.29L3278.82,1320.29L3303.85,1320.29L3335.14,1320.29L3378.94,1314.03L3416.48,1314.03L3454.02,1307.77L3491.57,1307.77L3529.11,1307.77L3560.4,1307.77L3591.68,1307.77L3629.23,1307.77" fill="none" stroke="#000000" style="-webkit-tap-highlight-color: rgba(0, 0, 0, 0); stroke-linecap: round; stroke-linejoin: round; stroke-width: 18;" /><path d="M1289,738.36L1282.74,738.36L1282.74,744.62L1276.49,769.65L1270.23,813.45L1263.97,832.22L1263.97,850.99L1263.97,876.02L1263.97,894.79L1257.72,919.82L1257.72,932.34L1251.46,944.85L1245.2,969.88L1245.2,982.39L1238.94,1001.17L1232.69,1007.42L1232.69,1026.2L1232.69,1044.97L1232.69,1057.48L1232.69,1070L1232.69,1088.77L1232.69,1101.28L1232.69,1113.8L1232.69,1120.05L1226.43,1132.57L1226.43,1138.83L1226.43,1145.08L1220.17,1157.6L1213.91,1163.86L1213.91,1170.11L1207.66,1170.11L1201.4,1176.37L1195.14,1176.37L1188.89,1176.37L1176.37,1176.37L1163.86,1176.37L1151.34,1176.37L1132.57,1176.37L1120.05,1176.37L1107.54,1176.37L1095.03,1176.37L1082.51,1176.37L1070,1176.37L1057.48,1176.37L1038.71,1176.37L1026.2,1176.37L1013.68,1176.37L1001.17,1176.37L988.65,1176.37L976.14,1176.37L969.88,1176.37L957.37,1176.37L951.11,1176.37L938.59,1176.37L926.08,1176.37L913.56,1170.11L901.05,1170.11L894.79,1170.11" fill="none" stroke="#000000" style="-webkit-tap-highlight-color: rgba(0, 0, 0, 0); stroke-linecap: round; stroke-linejoin: round; stroke-width: 18;" /><path d="M1113.8,1232.69L1120.05,1232.69L1120.05,1226.43L1113.8,1226.43L1107.54,1226.43L1101.28,1226.43L1088.77,1226.43L1076.25,1226.43L1063.74,1226.43L1044.97,1226.43L1032.45,1220.17L1019.94,1220.17L1001.17,1226.43L988.65,1226.43L976.14,1232.69L957.37,1232.69L944.85,1238.94L932.34,1238.94L913.56,1245.2L901.05,1251.46L888.54,1257.72L876.02,1263.97L857.25,1270.23L838.48,1276.49L825.96,1282.74L807.19,1282.74L788.42,1282.74L775.9,1289L757.13,1289L738.36,1289L732.1,1295.26L719.59,1295.26L713.33,1295.26L713.33,1301.52L707.07,1301.52L700.82,1314.03L700.82,1320.29L700.82,1332.8L694.56,1345.32L694.56,1364.09L694.56,1382.86L688.3,1401.63L688.3,1414.15L682.04,1432.92L675.79,1451.69L669.53,1470.46L663.27,1489.23" fill="none" stroke="#000000" style="-webkit-tap-highlight-color: rgba(0, 0, 0, 0); stroke-linecap: round; stroke-linejoin: round; stroke-width: 18;" /><path d="M1107.54,1238.94L1101.28,1238.94L1113.8,1257.72L1120.05,1263.97L1126.31,1276.49L1132.57,1282.74L1138.83,1289L1145.08,1295.26L1145.08,1301.52L1145.08,1307.77L1151.34,1320.29L1157.6,1326.55L1170.11,1332.8L1176.37,1332.8L1182.63,1339.06L1195.14,1339.06L1207.66,1345.32L1220.17,1345.32L1232.69,1345.32L1245.2,1339.06L1251.46,1339.06L1263.97,1339.06L1282.74,1339.06L1289,1339.06L1301.52,1332.8L1314.03,1332.8L1320.29,1326.55L1332.8,1326.55L1339.06,1320.29L1345.32,1320.29L1351.57,1314.03L1357.83,1307.77L1364.09,1307.77L1370.35,1301.52L1376.6,1301.52L1382.86,1295.26L1389.12,1295.26L1395.38,1295.26L1401.63,1295.26L1407.89,1295.26L1414.15,1295.26L1420.4,1295.26L1426.66,1295.26L1439.18,1295.26L1445.43,1295.26L1451.69,1301.52L1457.95,1301.52L1470.46,1307.77L1482.98,1314.03L1495.49,1326.55L1508.01,1332.8L1520.52,1339.06L1539.29,1345.32L1564.32,1345.32L1583.09,1345.32L1589.35,1345.32" fill="none" stroke="#000000" style="-webkit-tap-highlight-color: rgba(0, 0, 0, 0); stroke-linecap: round; stroke-linejoin: round; stroke-width: 18;" /><path d="M125.15,1520.52L118.89,1520.52L118.89,1508.01L118.89,1501.75L118.89,1495.49L118.89,1489.23L125.15,1489.23L137.66,1495.49L156.43,1495.49L181.46,1501.75L187.72,1501.75L200.23,1501.75L219.01,1508.01L244.03,1514.26L269.06,1514.26L300.35,1514.26L331.64,1514.26L356.67,1514.26L381.69,1508.01L406.72,1508.01L431.75,1508.01L456.78,1508.01L481.81,1501.75L506.84,1501.75L525.61,1495.49L544.38,1495.49L569.41,1495.49L588.19,1495.49L613.21,1489.23L631.99,1482.98L650.76,1482.98L669.53,1476.72L694.56,1476.72L713.33,1476.72L738.36,1476.72L757.13,1476.72L775.9,1470.46L800.93,1470.46L813.45,1470.46L825.96,1470.46L838.48,1470.46L844.73,1476.72" fill="none" stroke="#000000" style="-webkit-tap-highlight-color: rgba(0, 0, 0, 0); stroke-linecap: round; stroke-linejoin: round; stroke-width: 18;" /><path d="M131.4,1501.75L125.15,1501.75L125.15,1495.49L125.15,1489.23L118.89,1482.98L112.63,1482.98L106.37,1489.23L100.12,1489.23L93.86,1495.49L93.86,1501.75L87.6,1501.75L81.34,1508.01L81.34,1520.52L81.34,1526.78L87.6,1539.29L87.6,1545.55L93.86,1551.81L93.86,1558.07L93.86,1564.32L100.12,1576.84L100.12,1583.09L100.12,1589.35L100.12,1595.61L93.86,1608.12" fill="none" stroke="#000000" style="-webkit-tap-highlight-color: rgba(0, 0, 0, 0); stroke-linecap: round; stroke-linejoin: round; stroke-width: 18;" /><path d="M926.08,1533.04L919.82,1533.04L888.54,1533.04L876.02,1526.78" fill="none" stroke="#000000" style="-webkit-tap-highlight-color: rgba(0, 0, 0, 0); stroke-linecap: round; stroke-linejoin: round; stroke-width: 18;" /><path d="M825.96,1464.21L819.7,1457.95L825.96,1457.95L825.96,1464.21L825.96,1470.46L825.96,1482.98L825.96,1489.23L832.22,1501.75L832.22,1508.01L832.22,1520.52L838.48,1520.52L838.48,1526.78L838.48,1533.04L844.73,1539.29L850.99,1545.55L857.25,1551.81L869.76,1558.07L882.28,1564.32L894.79,1570.58L901.05,1583.09L913.56,1595.61L926.08,1601.87L932.34,1608.12L938.59,1614.38L944.85,1620.64L951.11,1626.9L963.62,1633.15L969.88,1639.41L976.14,1645.67L982.39,1645.67L982.39,1651.92L988.65,1651.92L988.65,1658.18L994.91,1658.18L988.65,1658.18L982.39,1664.44L969.88,1664.44L957.37,1664.44L944.85,1670.7L926.08,1676.95L913.56,1683.21L894.79,1689.47L869.76,1689.47L850.99,1689.47L825.96,1695.73L807.19,1695.73L788.42,1695.73L763.39,1701.98L744.62,1701.98L719.59,1701.98L700.82,1701.98L682.04,1708.24L663.27,1708.24L644.5,1714.5L625.73,1714.5L606.96,1714.5L588.19,1720.75L563.16,1720.75L550.64,1727.01L531.87,1727.01L519.36,1727.01L506.84,1727.01L494.33,1727.01L488.07,1733.27L475.55,1733.27L463.04,1733.27L450.52,1733.27L438.01,1733.27L431.75,1733.27L412.98,1733.27L400.47,1733.27L381.69,1733.27L362.92,1739.53L350.41,1739.53L331.64,1739.53L312.86,1733.27L294.09,1727.01L269.06,1727.01L244.03,1727.01L219.01,1727.01L193.98,1727.01L175.2,1727.01L156.43,1720.75L143.92,1720.75L143.92,1714.5L137.66,1714.5L150.17,1714.5" fill="none" stroke="#000000" style="-webkit-tap-highlight-color: rgba(0, 0, 0, 0); stroke-linecap: round; stroke-linejoin: round; stroke-width: 18;" /><path d="M131.4,1683.21L125.15,1683.21L100.12,1720.75L100.12,1714.5L100.12,1708.24L106.37,1708.24L112.63,1701.98L125.15,1695.73L137.66,1683.21L156.43,1670.7L175.2,1664.44L193.98,1658.18L212.75,1651.92L237.78,1639.41L262.81,1626.9L287.84,1614.38L319.12,1608.12L344.15,1601.87L375.44,1601.87L400.47,1595.61L431.75,1589.35L463.04,1583.09L494.33,1576.84L525.61,1576.84L550.64,1570.58L569.41,1564.32L600.7,1558.07L613.21,1558.07" fill="none" stroke="#000000" style="-webkit-tap-highlight-color: rgba(0, 0, 0, 0); stroke-linecap: round; stroke-linejoin: round; stroke-width: 18;" /><path d="M312.86,782.16L306.61,775.9L300.35,775.9L300.35,769.65L300.35,775.9L300.35,782.16L300.35,794.68L300.35,800.93L300.35,813.45L294.09,832.22L294.09,838.48L287.84,857.25L281.58,876.02L275.32,901.05L275.32,907.31L269.06,919.82L269.06,926.08L269.06,932.34L262.81,944.85L256.55,963.62L250.29,969.88L244.03,982.39L237.78,1001.17L237.78,1007.42" fill="none" stroke="#000000" style="-webkit-tap-highlight-color: rgba(0, 0, 0, 0); stroke-linecap: round; stroke-linejoin: round; stroke-width: 18;" /><path d="M406.72,788.42L406.72,794.68L406.72,800.93L412.98,813.45L412.98,819.7L419.24,825.96L419.24,844.73L425.5,850.99L431.75,857.25L431.75,869.76L438.01,876.02L444.27,888.54L450.52,894.79L456.78,907.31L463.04,913.56L469.3,926.08L481.81,938.59L488.07,944.85L494.33,957.37L506.84,969.88L513.1,982.39L525.61,994.91L525.61,1001.17L531.87,1013.68L544.38,1026.2L550.64,1044.97L556.9,1057.48L563.16,1076.25L569.41,1095.03L575.67,1120.05L581.93,1138.83L588.19,1151.34L594.44,1163.86L600.7,1170.11L606.96,1170.11" fill="none" stroke="#000000" style="-webkit-tap-highlight-color: rgba(0, 0, 0, 0); stroke-linecap: round; stroke-linejoin: round; stroke-width: 18;" /><path d="M450.52,800.93L444.27,800.93L438.01,800.93L431.75,800.93L438.01,800.93L450.52,794.68L469.3,794.68L488.07,788.42L513.1,788.42L531.87,788.42L544.38,788.42L563.16,788.42L581.93,794.68L594.44,794.68L600.7,794.68L606.96,794.68L619.47,794.68L625.73,794.68L638.24,794.68L644.5,794.68L657.02,794.68L669.53,788.42L675.79,788.42L682.04,788.42L688.3,788.42L694.56,788.42L707.07,788.42L719.59,782.16L725.85,775.9L738.36,769.65L750.87,769.65L763.39,763.39L775.9,763.39L788.42,757.13L794.68,750.87L800.93,744.62L807.19,744.62L813.45,744.62L819.7,744.62L825.96,744.62L832.22,744.62L838.48,744.62L844.73,744.62L850.99,750.87L857.25,757.13L863.51,763.39L869.76,769.65L876.02,769.65L882.28,775.9L888.54,782.16L901.05,794.68" fill="none" stroke="#000000" style="-webkit-tap-highlight-color: rgba(0, 0, 0, 0); stroke-linecap: round; stroke-linejoin: round; stroke-width: 18;" /><path d="M794.68,769.65L794.68,763.39L794.68,757.13L794.68,763.39L794.68,769.65L794.68,782.16L794.68,794.68L800.93,813.45L800.93,825.96L800.93,844.73L800.93,863.51L807.19,876.02L807.19,901.05L813.45,919.82L819.7,932.34L819.7,944.85L819.7,963.62L819.7,982.39" fill="none" stroke="#000000" style="-webkit-tap-highlight-color: rgba(0, 0, 0, 0); stroke-linecap: round; stroke-linejoin: round; stroke-width: 18;" /><path d="M631.99,807.19L631.99,800.93L631.99,807.19L631.99,813.45L631.99,819.7L631.99,838.48L638.24,850.99L644.5,863.51L650.76,882.28L650.76,888.54L657.02,907.31L663.27,919.82L669.53,932.34L669.53,938.59L669.53,951.11L675.79,963.62L675.79,976.14L675.79,982.39L675.79,994.91L675.79,1007.42L675.79,1026.2L675.79,1038.71L675.79,1057.48L675.79,1076.25L675.79,1095.03L675.79,1113.8L682.04,1132.57L682.04,1145.08L688.3,1170.11L694.56,1176.37" fill="none" stroke="#000000" style="-webkit-tap-highlight-color: rgba(0, 0, 0, 0); stroke-linecap: round; stroke-linejoin: round; stroke-width: 18;" /><path d="M700.82,1157.6L694.56,1157.6L688.3,1157.6L682.04,1157.6L669.53,1157.6L663.27,1157.6L657.02,1157.6L644.5,1151.34L638.24,1151.34L631.99,1151.34L619.47,1151.34L613.21,1151.34L606.96,1151.34L600.7,1151.34L588.19,1151.34L581.93,1151.34L575.67,1151.34L569.41,1151.34L563.16,1151.34L556.9,1157.6L550.64,1157.6L544.38,1157.6L531.87,1157.6L525.61,1163.86L513.1,1163.86L500.58,1170.11L488.07,1170.11L481.81,1176.37L469.3,1176.37L456.78,1182.63L450.52,1182.63L444.27,1182.63L431.75,1188.89L412.98,1195.14L406.72,1195.14L394.21,1195.14L381.69,1201.4L369.18,1201.4L356.67,1201.4L344.15,1201.4L337.89,1201.4L325.38,1201.4L312.86,1201.4L300.35,1201.4L294.09,1201.4L281.58,1201.4L269.06,1201.4L262.81,1201.4L244.03,1201.4L237.78,1201.4L219.01,1201.4L200.23,1207.66L181.46,1207.66L156.43,1213.91L125.15,1220.17L81.34,1232.69L25.03,1245.2" fill="none" stroke="#000000" style="-webkit-tap-highlight-color: rgba(0, 0, 0, 0); stroke-linecap: round; stroke-linejoin: round; stroke-width: 18;" /><path d="M1289,1207.66L1282.74,1207.66L1301.52,1213.91L1326.55,1220.17L1345.32,1220.17L1357.83,1220.17L1370.35,1220.17L1382.86,1220.17L1401.63,1220.17L1420.4,1220.17L1432.92,1220.17L1445.43,1226.43L1464.21,1226.43L1476.72,1232.69L1495.49,1232.69L1514.26,1238.94L1533.04,1238.94L1551.81,1245.2L1570.58,1245.2L1589.35,1245.2L1601.87,1245.2L1614.38,1245.2L1614.38,1251.46" fill="none" stroke="#000000" style="-webkit-tap-highlight-color: rgba(0, 0, 0, 0); stroke-linecap: round; stroke-linejoin: round; stroke-width: 18;" /><path d="M1326.55,1176.37L1332.8,1176.37L1339.06,1176.37L1351.57,1176.37L1364.09,1170.11L1376.6,1170.11L1389.12,1163.86L1395.38,1163.86L1407.89,1170.11L1420.4,1170.11L1432.92,1176.37L1445.43,1182.63L1457.95,1182.63L1470.46,1188.89L1482.98,1188.89L1495.49,1188.89L1508.01,1188.89L1520.52,1188.89L1533.04,1188.89L1545.55,1188.89L1558.07,1182.63L1570.58,1176.37L1583.09,1176.37L1601.87,1170.11L1614.38,1163.86L1633.15,1157.6L1645.67,1145.08L1664.44,1132.57L1676.95,1126.31L1689.47,1107.54L1695.73,1101.28L1701.98,1095.03" fill="none" stroke="#000000" style="-webkit-tap-highlight-color: rgba(0, 0, 0, 0); stroke-linecap: round; stroke-linejoin: round; stroke-width: 18;" /><path d="M2139.99,600.7L2127.48,600.7L2127.48,606.96" fill="none" stroke="#000000" style="-webkit-tap-highlight-color: rgba(0, 0, 0, 0); stroke-linecap: round; stroke-linejoin: round; stroke-width: 18;" /><path d="M2071.16,588.19L2071.16,581.93L2077.42,588.19L2089.93,588.19L2102.45,588.19L2114.96,581.93L2127.48,581.93L2139.99,575.67L2152.51,575.67L2171.28,569.41L2183.79,569.41L2196.31,563.16L2215.08,563.16L2233.85,556.9L2246.37,556.9L2252.62,556.9L2265.14,556.9L2277.65,556.9L2296.43,550.64L2308.94,550.64L2321.45,550.64L2333.97,550.64L2346.48,550.64L2359,550.64L2371.51,550.64L2384.03,550.64L2396.54,544.38L2415.31,544.38L2421.57,544.38L2427.83,544.38L2440.34,544.38L2452.86,544.38L2471.63,544.38L2484.14,538.13L2502.92,538.13L2515.43,538.13L2534.2,538.13L2552.97,538.13L2571.75,538.13L2590.52,538.13L2615.55,538.13L2634.32,538.13L2659.35,531.87L2671.86,531.87L2690.63,531.87L2703.15,531.87L2721.92,531.87L2740.69,531.87L2759.46,531.87L2771.98,525.61L2790.75,525.61L2809.52,525.61L2828.3,525.61L2847.07,519.36L2865.84,519.36L2890.87,513.1L2909.64,513.1L2928.41,506.84L2940.93,506.84L2959.7,500.58L2978.47,500.58L2990.98,500.58L3009.76,500.58L3022.27,500.58L3034.79,500.58L3047.3,500.58L3059.81,500.58L3072.33,500.58L3084.84,500.58L3097.36,494.33L3116.13,494.33L3128.64,494.33L3141.16,488.07L3153.67,488.07L3172.45,488.07L3184.96,481.81L3203.73,481.81L3216.25,481.81L3228.76,481.81L3241.28,481.81L3260.05,481.81L3272.56,481.81L3285.08,481.81L3303.85,481.81L3316.36,481.81L3328.88,481.81L3347.65,481.81L3360.16,481.81L3372.68,481.81L3385.19,481.81L3403.97,481.81L3422.74,481.81L3441.51,481.81L3460.28,481.81L3479.05,481.81L3497.83,481.81L3522.85,475.55L3554.14,475.55L3572.91,475.55L3597.94,475.55L3629.23,463.04L3648,463.04" fill="none" stroke="#000000" style="-webkit-tap-highlight-color: rgba(0, 0, 0, 0); stroke-linecap: round; stroke-linejoin: round; stroke-width: 18;" /></svg>