<?xml version="1.0" encoding="utf-8" ?>
<svg baseProfile="full" height="2256" version="1.1" width="1496" xmlns="http://www.w3.org/2000/svg" xmlns:ev="http://www.w3.org/2001/xml-events" xmlns:xlink="http://www.w3.org/1999/xlink"><defs /><path d="M133.64,606.38L134,601L135,597L130,598L129,601L130,604L129,610L126,618L129,614L127,619L128,627L124,630L122,633L118,637L113,641L114,648L114,649L110,654L110,649L110,657L105,658L106,662L102,664L103,670L97,669L99,674L94,674L94,676L92,681L90,682L88,685L90,690L87,694L81,698L81,697L82,701L78,703L81,712L80,714L82,718L79,718L82,718L82,718L83,707L98,718L102,718L102,722L98,726L98,730L84,738L81,730L84,738L80,734L78,738L78,742L74,742L75,745L74,753L70,754L71,757L66,763L66,765L61,770L60,774L54,777L54,778L54,782L53,786L52,790L51,793L49,798L51,793L49,802L62,806L66,810L66,814L66,818L66,822L66,826L66,830L66,834L66,842L66,846L66,850L66,854L66,862L66,866L66,858L66,870L66,874L70,882L70,878L60,894L61,898L62,902L62,902L62,906L62,910L64,922L62,914L64,922L64,922L70,934L70,937L66,949L66,949L68,952L68,957L69,954L69,961L69,965L70,969L71,973L71,977L72,981L74,981L72,981L74,981L83,989L83,989L66,1009L74,1012L74,1012L74,1013L74,1014L64,1010L74,1014L57,1015L51,1027L51,1025L51,1033L52,1038L53,1043L53,1045L53,1049L53,1053L54,1057L55,1062L55,1065L56,1069L57,1073L58,1078L58,1081L59,1088L59,1089L60,1095L61,1101L62,1104L62,1105L62,1109L63,1113L64,1118L65,1124L66,1129L66,1129L67,1133L68,1137L69,1141L70,1145L71,1156L71,1157L71,1161L73,1170L73,1173L74,1182L75,1185L76,1194L75,1189L77,1197L78,1201L84,1214L80,1207L86,1215L90,1217L92,1218L98,1237L94,1219L94,1219L98,1237L79,1237L80,1245L86,1246L80,1245L78,1249L79,1253L72,1256L74,1261L72,1263L70,1265L70,1273L70,1269L69,1278L69,1280L69,1280L67,1284L65,1293L66,1298L68,1305L68,1304L69,1310L70,1315L70,1316L71,1321L72,1327L73,1336L72,1328L73,1335L74,1344L74,1344L75,1349L75,1352L81,1362L81,1362L82,1364L84,1366L85,1372L86,1376L86,1380L86,1384L86,1387L86,1392L87,1392L88,1396L90,1401L90,1403L100,1416L91,1410L100,1418L106,1435L100,1418L101,1417L106,1435L107,1442L108,1439L106,1435L107,1442L107,1442L102,1456L102,1468L102,1464L102,1472L108,1489L88,1492L108,1489L88,1494L88,1492L86,1494L88,1494L74,1510L79,1503L72,1511L78,1505L63,1531L63,1533L63,1532L61,1534L55,1552L58,1564L55,1554L55,1552L55,1566L52,1569L54,1568L54,1570L39,1570L38,1584L42,1584L39,1570L34,1592L38,1588L34,1596" fill="none" stroke="#000000" style="-webkit-tap-highlight-color: rgba(0, 0, 0, 0); stroke-linecap: round; stroke-linejoin: round; stroke-width: 11;" /><path d="M28,1607L25,1610L26,1607L26,1608L25,1610L17,1630L17,1628L17,1628L17,1628L14,1639L14,1638L11,1653L13,1639L9,1654L2,1657L9,1654L2,1659" fill="none" stroke="#000000" style="-webkit-tap-highlight-color: rgba(0, 0, 0, 0); stroke-linecap: round; stroke-linejoin: round; stroke-width: 11;" /><path d="M333.11,1476.05L329,1479L329,1476L329,1484L328,1489L323,1496L321,1498L316,1508L312,1518L320,1524L315,1535L314,1537L312,1544L310,1552L310,1567L310,1552L310,1568L308,1578L306,1584L305,1592L307,1582L305,1595L305,1600L301,1607L300,1604L300,1609L298,1620L297,1616L297,1627L297,1623L295,1633L293,1626L294,1635L293,1640L289,1652L295,1641L285,1660L289,1653L285,1660L285,1661L280,1672L282,1665L280,1672L281,1676L276,1676L265,1674L275,1676L259,1673L241,1664L225,1665L249,1668L215,1660L194,1658L186,1664L205,1659L175,1669" fill="none" stroke="#000000" style="-webkit-tap-highlight-color: rgba(0, 0, 0, 0); stroke-linecap: round; stroke-linejoin: round; stroke-width: 11;" /><path d="M137,1659L165,1668L163,1668L140,1657L126,1650L134,1658L111,1656L115,1656L93,1649L103,1652L94,1654L81,1652" fill="none" stroke="#000000" style="-webkit-tap-highlight-color: rgba(0, 0, 0, 0); stroke-linecap: round; stroke-linejoin: round; stroke-width: 11;" /><path d="M277.26,1643.61" fill="none" stroke="#000000" style="-webkit-tap-highlight-color: rgba(0, 0, 0, 0); stroke-linecap: round; stroke-linejoin: round; stroke-width: 11;" /><path d="M62,1656L54,1659L73,1651L66,1652L42,1660L43,1659L34,1663L38,1663L32,1664L32,1664L18,1655L18,1655L14,1656L18,1655L32,1664" fill="none" stroke="#000000" style="-webkit-tap-highlight-color: rgba(0, 0, 0, 0); stroke-linecap: round; stroke-linejoin: round; stroke-width: 11;" /><path d="M271,1643L261,1648L265,1643L265,1655L265,1652L270,1664L269,1667" fill="none" stroke="#000000" style="-webkit-tap-highlight-color: rgba(0, 0, 0, 0); stroke-linecap: round; stroke-linejoin: round; stroke-width: 11;" /><path d="M275,1676L277,1683L277,1683L281,1699L281,1703L281,1711L285,1719L281,1715" fill="none" stroke="#000000" style="-webkit-tap-highlight-color: rgba(0, 0, 0, 0); stroke-linecap: round; stroke-linejoin: round; stroke-width: 11;" /><path d="M41.89,1966.74" fill="none" stroke="#000000" style="-webkit-tap-highlight-color: rgba(0, 0, 0, 0); stroke-linecap: round; stroke-linejoin: round; stroke-width: 11;" /><path d="M285,1723L275,1737L280,1740L282,1741L282,1741L286,1745L285,1743" fill="none" stroke="#000000" style="-webkit-tap-highlight-color: rgba(0, 0, 0, 0); stroke-linecap: round; stroke-linejoin: round; stroke-width: 11;" /><path d="M38,1967L30,1967L34,1967L26,1967L22,1967L26,1967L39,1981L30,1967L41,1980L50,1977L60,1973L53,1976L65,1972L70,1972L85,1968L79,1969L93,1965L93,1965L102,1951L100,1964L110,1947L106,1951L114,1947L118,1943L129,1945L129,1945L134,1945L134,1938L142,1939L139,1939L146,1939L154,1939L158,1940L150,1941L162,1939L166,1938L170,1938L178,1938L174,1938L182,1934L192,1937L194,1931L184,1934L197,1930L201,1931L205,1930L211,1928L213,1927L217,1923L221,1923L219,1919L225,1920L229,1920L229,1916L232,1914L234,1911L236,1911L241,1907L244,1903L249,1903L249,1898L254,1899L257,1895L262,1895L265,1894L267,1893L277,1899L273,1896L281,1902L282,1908L289,1911L282,1909L288,1923L287,1927L287,1929L285,1938L285,1938L306,1974L301,1959L287,1951L315,1971L321,1973L334,1979L331,1977L335,1979L336,1981L345,1984L346,1984L346,1984L349,1989L365,1983L351,1992L369,1995L372,1995L379,2001L374,1997L379,2001L372,1995L401,1983L393,1991L405,1979L397,1987L405,1975L405,1971L409,1963L409,1967L421,1955L413,1959L425,1951L417,1955L441,1951L433,1951L429,1951L437,1951L449,1951L453,1951L445,1951L467,1951L467,1947L467,1943L469,1938L467,1941L469,1938L470,1938L472,1939L486,1941L485,1927L493,1923L489,1927L497,1923L501,1923L505,1923L509,1923L513,1923L517,1923L521,1919L525,1919L533,1919L537,1919L541,1919L545,1919L549,1919L549,1915L553,1915L553,1911L553,1907L548,1893L549,1892L561,1889L560,1887L557,1882L557,1874L557,1870L557,1863L557,1860L557,1846L557,1854L557,1842L557,1850L557,1839L554,1830L554,1831L557,1839L573,1819L573,1819L568,1809L570,1813L567,1805L568,1791L570,1779L568,1795" fill="none" stroke="#000000" style="-webkit-tap-highlight-color: rgba(0, 0, 0, 0); stroke-linecap: round; stroke-linejoin: round; stroke-width: 11;" /><path d="M570,1779L570,1775L564,1763L566,1767L564,1762L553,1752L561,1760L561,1760L553,1752L551,1743L550,1740L551,1743L549,1737L547,1730L559,1710L547,1731L547,1730L559,1710L559,1710L545,1707L541,1707L517,1725L537,1707L529,1711L533,1711" fill="none" stroke="#000000" style="-webkit-tap-highlight-color: rgba(0, 0, 0, 0); stroke-linecap: round; stroke-linejoin: round; stroke-width: 11;" /><path d="M341.09,614.36" fill="none" stroke="#000000" style="-webkit-tap-highlight-color: rgba(0, 0, 0, 0); stroke-linecap: round; stroke-linejoin: round; stroke-width: 11;" /><path d="M517,1725L514,1725L517,1725L514,1725L501,1719L514,1725L493,1719L489,1719L473,1719L485,1719L469,1715L477,1719L461,1711L446,1714L446,1714L465,1715L437,1710L434,1711L417,1711L421,1711L402,1711L402,1711L401,1710L402,1711L394,1710L394,1710L377,1702L369,1702L378,1701L365,1701L353,1703L357,1702L361,1703L345,1707L342,1706L325,1711L337,1710L329,1711L314,1713L321,1712L315,1713L310,1711L300,1703L305,1707L298,1695L298,1699L281,1682L299,1693L282,1679L299,1693L298,1699L281,1682" fill="none" stroke="#000000" style="-webkit-tap-highlight-color: rgba(0, 0, 0, 0); stroke-linecap: round; stroke-linejoin: round; stroke-width: 11;" /><path d="M336,610" fill="none" stroke="#000000" style="-webkit-tap-highlight-color: rgba(0, 0, 0, 0); stroke-linecap: round; stroke-linejoin: round; stroke-width: 11;" /><path d="M298,1695" fill="none" stroke="#000000" style="-webkit-tap-highlight-color: rgba(0, 0, 0, 0); stroke-linecap: round; stroke-linejoin: round; stroke-width: 11;" /><path d="M341,607L344,602L356,598L353,598L365,598L373,601L370,598L380,610L380,612L385,630L389,638" fill="none" stroke="#000000" style="-webkit-tap-highlight-color: rgba(0, 0, 0, 0); stroke-linecap: round; stroke-linejoin: round; stroke-width: 11;" /><path d="M379,613L389,646L389,650L393,658L393,662L393,666L397,678L397,674L397,690L397,686L397,694L397,702L397,706L397,714L397,710L397,722L397,726L397,730L401,738L397,734L405,754L401,750L401,746L405,758L405,774L405,766L405,762L405,770L405,778L405,790L405,782L405,786L409,802L409,798L409,794L409,806L409,810L409,818L409,814L405,818L405,822L405,826L405,834L405,838L405,842L405,854L405,862L405,850L405,866L405,882L405,870L405,878L405,890L405,894L405,898L405,902L405,906L409,910L409,918L409,922L409,914L409,926L409,930L409,934L409,937L413,941L409,941L413,937L404.92,937.49L401,937L397,937L401,941L401,945L401,949L401,953L405,961L405,965L405,969L405,973L409,977L409,981L409,989L409,985L409,997L409,993L409,1005L409,1001L405,1009L405,1005L405,1013L405,1017L405,1021L405,1025L405,1029L409,1029L409,1033L409,1037L409,1041L409,1049L409,1045L409,1057L409,1053L409,1061L409,1069L413,1073L413,1077L413,1085L413,1093L413,1097L413,1105L413,1113L413,1125L413,1117L413,1129L413,1133L413,1137L413,1149L413,1141L413,1145L413,1161L413,1153L413,1165L413,1157L413,1173L413,1169L417,1181L413,1177L417,1189L417,1185L430,1197L429,1190L430,1199L431,1209L431,1212L432,1217L432,1219L433,1225L433,1233L433,1237" fill="none" stroke="#000000" style="-webkit-tap-highlight-color: rgba(0, 0, 0, 0); stroke-linecap: round; stroke-linejoin: round; stroke-width: 11;" /><path d="M434,1249L433,1241L434,1253L435,1261L431,1205L435,1262L437,1283L436,1269L437,1277L437,1281L438,1288L439,1293L439,1297L439,1301L439,1302L441,1312L440,1318L441,1309L440,1320L439,1325L440,1328L439,1327L440,1328L446,1331L437,1344L437,1348L437,1352" fill="none" stroke="#000000" style="-webkit-tap-highlight-color: rgba(0, 0, 0, 0); stroke-linecap: round; stroke-linejoin: round; stroke-width: 11;" /><path d="M305.18,1679.51" fill="none" stroke="#000000" style="-webkit-tap-highlight-color: rgba(0, 0, 0, 0); stroke-linecap: round; stroke-linejoin: round; stroke-width: 11;" /><path d="M437,1356L437,1352L437,1348L446,1331" fill="none" stroke="#000000" style="-webkit-tap-highlight-color: rgba(0, 0, 0, 0); stroke-linecap: round; stroke-linejoin: round; stroke-width: 11;" /><path d="M309,1690L309,1676L317,1668L313,1672L321,1664L325,1660L329,1656L329,1652L333,1648L333,1644L337,1640L337,1636L341,1632L341,1628L341,1624L341,1620L345,1616L345,1612L345,1608L349,1604L349,1600L349,1596L353,1592L357,1584L353,1588L357,1580L361,1572L361,1568L365,1560L365,1556L365,1552L365,1544L369,1540L369,1536L369,1532L373,1524L373,1520L373,1512L373,1516L377,1508L377,1504L381,1496L381,1492L377,1500L385,1488L389,1480L385,1484L389,1476L389,1472" fill="none" stroke="#000000" style="-webkit-tap-highlight-color: rgba(0, 0, 0, 0); stroke-linecap: round; stroke-linejoin: round; stroke-width: 11;" /><path d="M389,1468L393,1460L393,1464L397,1456L401,1444L397,1448L397,1452L405,1440L405,1432L405,1436L409,1432L409,1428L409,1424L413,1424L413,1420L413,1416L417,1416L417,1408L417,1412L417,1404" fill="none" stroke="#000000" style="-webkit-tap-highlight-color: rgba(0, 0, 0, 0); stroke-linecap: round; stroke-linejoin: round; stroke-width: 11;" /><path d="M77.79,1252.65" fill="none" stroke="#000000" style="-webkit-tap-highlight-color: rgba(0, 0, 0, 0); stroke-linecap: round; stroke-linejoin: round; stroke-width: 11;" /><path d="M421,1400L425,1392L429,1388L421,1396L429,1384L433,1380L433,1376L437,1372L437,1368L437,1364L441,1360L441,1356L441,1352L441,1348L455,1333L446,1331L446,1331L449,1327L449,1331L448,1323L449,1315L449,1311L453,1311L453,1311L447,1287L447,1287L447,1287L447,1285L447,1285L447,1285L461,1273L461,1269" fill="none" stroke="#000000" style="-webkit-tap-highlight-color: rgba(0, 0, 0, 0); stroke-linecap: round; stroke-linejoin: round; stroke-width: 11;" /><path d="M74,1252L70,1254L82,1255L79,1253L90,1252L98,1253L106,1257L116,1257L127,1254L134,1255L145,1255L146,1255L154,1253L156,1249L158,1249L166,1247L171,1249L174,1249L184,1249L177,1249L186,1248L189,1249L200,1247L191,1249L201,1246" fill="none" stroke="#000000" style="-webkit-tap-highlight-color: rgba(0, 0, 0, 0); stroke-linecap: round; stroke-linejoin: round; stroke-width: 11;" /><path d="M203,1246L213,1247L210,1248L217,1246L220,1246L229,1249L226,1245L232,1249L235,1247L245,1249L241,1248L251,1250L253,1245L262,1245L255,1243L265,1244L269,1245L279,1246L272,1245L279,1246L279,1246L280,1247L300,1247" fill="none" stroke="#000000" style="-webkit-tap-highlight-color: rgba(0, 0, 0, 0); stroke-linecap: round; stroke-linejoin: round; stroke-width: 11;" /><path d="M49.87,1001.32" fill="none" stroke="#000000" style="-webkit-tap-highlight-color: rgba(0, 0, 0, 0); stroke-linecap: round; stroke-linejoin: round; stroke-width: 11;" /><path d="M300,1247L302,1246L302,1246L313,1248L309,1248L317,1248L321,1248L321,1248L325,1248L329,1247L333,1247" fill="none" stroke="#000000" style="-webkit-tap-highlight-color: rgba(0, 0, 0, 0); stroke-linecap: round; stroke-linejoin: round; stroke-width: 11;" /><path d="M54,1007" fill="none" stroke="#000000" style="-webkit-tap-highlight-color: rgba(0, 0, 0, 0); stroke-linecap: round; stroke-linejoin: round; stroke-width: 11;" /><path d="M337,1247L333,1247" fill="none" stroke="#000000" style="-webkit-tap-highlight-color: rgba(0, 0, 0, 0); stroke-linecap: round; stroke-linejoin: round; stroke-width: 11;" /><path d="M54,1007L58,1013L54,1007L54,1007L64,1010L74,1013L76,1017L78,1018L86,1017L93,1019L93,1019L98,1019L101,1017L105,1016L114,1013L110,1017L115,1013L124,1013L126,1013L131,1011L134,1012L138,1014L144,1015L145,1013L148,1013L148,1013L161,1019L166,1017L163,1018L171,1017L175,1017L178,1017L181,1016L187,1017L189,1016L194,1018L197,1017L200,1017L206,1017L218,1018L209,1016L212,1016L221,1017L233,1020L224,1015L228,1014L236,1019L241,1023L246,1021L249,1020L253,1021L261,1021L265,1021L269,1021L269,1021L276,1018L276,1018" fill="none" stroke="#000000" style="-webkit-tap-highlight-color: rgba(0, 0, 0, 0); stroke-linecap: round; stroke-linejoin: round; stroke-width: 11;" /><path d="M290,1016L294,1019L299,1018L294,1019L305,1018L309,1018L313,1021L317,1021L321,1020L325,1020L329,1018L330,1018L330,1018L331,1016L345,1013L331,1016L349,1013" fill="none" stroke="#000000" style="-webkit-tap-highlight-color: rgba(0, 0, 0, 0); stroke-linecap: round; stroke-linejoin: round; stroke-width: 11;" /><path d="M69.81,769.94L66,765L66,769L74,773L70,774L78,772L82,774L86,774L94,774L102,773L104,773L114,770L117,769L120,767L130,766L134,765L138,766L141,765L156,764L158,764L147,764L163,762L166,762L170,767L173,767L179,766L182,766L186,765L189,766L193,765L196,765L201,765L204,764L209,766L213,765L230,766L224,764L217,766L233,766L236,766L245,765L241,766L249,762L253,763L263,762L255,763L265,762L269,766L277,770L273,764L281,770L284,773L291,774L288,774L296,778L305,775L301,778L307,775" fill="none" stroke="#000000" style="-webkit-tap-highlight-color: rgba(0, 0, 0, 0); stroke-linecap: round; stroke-linejoin: round; stroke-width: 11;" /><path d="M307,775L321,778L325,778L307,775L329,778L333,778L333,774" fill="none" stroke="#000000" style="-webkit-tap-highlight-color: rgba(0, 0, 0, 0); stroke-linecap: round; stroke-linejoin: round; stroke-width: 11;" /><path d="M89.76,730.05L84,738L98,730L101,744L101,744L115,748L115,748L115,748L134,738L138,738L142,738L150,738L146,738L154,738L158,738L162,738L166,738L180,748L180,748L180,748L182,734L186,734L193,734L189,734L197,734L201,730L209,730L205,730L213,730L217,730L221,730L225,730L229,730L240,740L241,740L240,740L245,740L251,739L253,738L254,738L259,739L262,741L265,742L273,743L273,743L281,744L288,744L285,744L293,745L297,745L301,745L305,744L309,744L314,744L321,742L320,742L322,742L331,744" fill="none" stroke="#000000" style="-webkit-tap-highlight-color: rgba(0, 0, 0, 0); stroke-linecap: round; stroke-linejoin: round; stroke-width: 11;" /><path d="M93.75,694.14L94,689L90,690L94,689L102,690L98,690L106,689L110,689L132,681L123,687L117,689L140,681L149,682L149,682L156,682L172,678L170,678L162,681L165,680L172,678L182,673L180,674L182,673L182,673L209,671L212,673L201,669L213,673L221,676L234,678L226,678L237,679L245,673L253,674L249,674L261,674L265,678L273,673L279,678L285,680L289,675L293,675L297,677L299,676L304,672L304,672L313,686L314,686L322,670L314,686L314,686L314,688L314,688L313,689L310,691L321,706L321,710L321,714L321,718L321,722L325,722L325,730L322,742L331,744L331,744L331,744L333,744L336,751" fill="none" stroke="#000000" style="-webkit-tap-highlight-color: rgba(0, 0, 0, 0); stroke-linecap: round; stroke-linejoin: round; stroke-width: 11;" /><path d="M337,754L341,753L341,750L321.14,674.2L320,669L320,669L304,672L320,669L313,665L317,664L323,668L333,650L329,654L337,642L342,635L346,620L348,624" fill="none" stroke="#000000" style="-webkit-tap-highlight-color: rgba(0, 0, 0, 0); stroke-linecap: round; stroke-linejoin: round; stroke-width: 11;" /><path d="M353,610L353,605L353,610L356,602L356,598L360,594L361,597" fill="none" stroke="#000000" style="-webkit-tap-highlight-color: rgba(0, 0, 0, 0); stroke-linecap: round; stroke-linejoin: round; stroke-width: 11;" /><path d="M325.13,789.89L321,790L317,790L317,794L317,802L317,806L321,818L317,814L321,826L321,834L321,846L321,842L325,862L325,854L325,870L325,874L329,882L329,890L329,902L329,894L329,906L329,910L329,914L329,922L333,926L329,918L333,930L333,934L333,937L333,941L333,949L325,961L325,961L325,961L325,962" fill="none" stroke="#000000" style="-webkit-tap-highlight-color: rgba(0, 0, 0, 0); stroke-linecap: round; stroke-linejoin: round; stroke-width: 11;" /><path d="M337,973L337,977L337,981L337,985L337,989L337,993L325,995L325,993L329,1008L332,1009L332,1009L332,1009L332,1011L331,1016L332,1011" fill="none" stroke="#000000" style="-webkit-tap-highlight-color: rgba(0, 0, 0, 0); stroke-linecap: round; stroke-linejoin: round; stroke-width: 11;" /><path d="M101.73,981.38L94,985L97,987L84,983L94,969L94,965L90,965L71,972L71,972L71,973L70,971L71,973L71,973L84,983L98,969L106,969L125,960L126,960L127,960L142,973L150,973L154,973L162,973L166,973L174,973L186,973L178,973L189,973L193,973L197,969L201,969L214,958L214,958L217,958L214,958L217,958L233,973L229,969L237,973L241,973L253,973L245,973L249,973L257,973L261,973L269,973L265,973L273,973L277,973L281,973L285,973L289,973" fill="none" stroke="#000000" style="-webkit-tap-highlight-color: rgba(0, 0, 0, 0); stroke-linecap: round; stroke-linejoin: round; stroke-width: 11;" /><path d="M297,973L293,973L305,973L309,973L317,977L322,964L321,977L329,977L325,977" fill="none" stroke="#000000" style="-webkit-tap-highlight-color: rgba(0, 0, 0, 0); stroke-linecap: round; stroke-linejoin: round; stroke-width: 11;" /><path d="M109.71,1220.74L103,1223L105,1224L98,1220L100,1221L103,1223L110,1227L130,1217L138,1217L146,1217L158,1217L166,1217L174,1217L186,1217L193,1217L197,1217L205,1213L213,1213L221,1213L217,1213L225,1213L229,1209L233,1209L241,1205L237,1205L249,1205L253,1205L257,1205L269,1205L265,1205L277,1205L273,1205L281,1205L281,1209L285,1209L300,1223L289,1209L300,1223L303,1222L303,1222L303,1222L303,1222" fill="none" stroke="#000000" style="-webkit-tap-highlight-color: rgba(0, 0, 0, 0); stroke-linecap: round; stroke-linejoin: round; stroke-width: 11;" /><path d="M321,1213L317,1213L325,1213L329,1213L337,1209L340,1223L340,1223L341,1209" fill="none" stroke="#000000" style="-webkit-tap-highlight-color: rgba(0, 0, 0, 0); stroke-linecap: round; stroke-linejoin: round; stroke-width: 11;" /><path d="M337.1,997.33L325,995L329,1008L329,1008L329,1008L329,1013L329,1016L329,1018L325,1020L325,1020L325,1037L319,1023L325,1041L321,1045L317,1057L321,1049L317,1065L317,1061L321,1077L317,1073L321,1085L321,1089L325,1093L325,1101L325,1105L329,1109L329,1113L329,1117L333,1121L333,1125L333,1133L333,1129L337,1137L337,1141L337,1149L337,1153L341,1161L337,1157L341,1165L341,1173L341,1181L341,1177L341,1193L341,1189L341,1197L341,1205L341,1209L341,1223L341,1223L341,1223L343,1235L341,1223L343,1235L343,1235L343,1235L353,1249L353,1253L353,1257L337,1247L349,1257L337,1247L337,1247L333,1247L337,1247L324,1252L324,1254L320,1257L323,1255L312,1263L312,1263L310,1263L312,1263L305,1277L309,1277L301,1281L305,1281L301,1285L305,1285L305,1289L309,1289L313,1293L317,1301L325,1316L325,1309L329,1324L333,1332L333,1340L333,1348L333,1352L333,1360L333,1368L333,1372L333,1380L333,1384L337,1396L337,1392L337,1400L337,1404" fill="none" stroke="#000000" style="-webkit-tap-highlight-color: rgba(0, 0, 0, 0); stroke-linecap: round; stroke-linejoin: round; stroke-width: 11;" /><path d="M341,1408L341,1412L345,1416L345,1420L349,1428L349,1424L349,1432L353,1440L353,1444L353,1456L353,1452L353,1460L346,1474L345,1474L345,1474L344,1475L345,1480L347,1490L345,1481L347,1496L347,1499L346,1505L346,1504L346,1504L347,1499L347,1490" fill="none" stroke="#000000" style="-webkit-tap-highlight-color: rgba(0, 0, 0, 0); stroke-linecap: round; stroke-linejoin: round; stroke-width: 11;" /><path d="M117.69,1404.25L114,1408L101,1417L101,1417L101,1417L99,1416L98,1418L100,1418L101,1417L114,1416L122,1412L130,1408L138,1404L150,1400L164,1408L166,1396L178,1406L186,1405L190,1407L193,1408L205,1409L208,1409L213,1410L213,1410L227,1413L230,1414L253,1408L241,1415L230,1414L257,1408" fill="none" stroke="#000000" style="-webkit-tap-highlight-color: rgba(0, 0, 0, 0); stroke-linecap: round; stroke-linejoin: round; stroke-width: 11;" /><path d="M265,1412L261,1408L269,1412L273,1412L289,1412L285,1412L277,1412L281,1412L305,1416L301,1416L297,1416L293,1412L317,1420L309,1416L313,1416L321,1420L333,1424L337,1424L325,1420L329,1424L333,1424" fill="none" stroke="#000000" style="-webkit-tap-highlight-color: rgba(0, 0, 0, 0); stroke-linecap: round; stroke-linejoin: round; stroke-width: 11;" /><path d="M1186.83,478.72L1188,477L1191,477L1189,468L1195,469L1191,477L1187,478L1183,481L1177,487L1176,488L1171,492L1167,495L1163,495L1158,499L1155,503L1151,507L1146,511L1143,515L1143,512L1139,518L1138,521L1138,529L1135,531L1134,527L1134,535L1134,539L1132,545L1134,539L1131,547L1130,550L1114,555L1127,550L1124,550L1128,551L1107,566L1110,562L1107,567L1107,567L1092,580L1092,580L1103,568L1086,588L1077,612L1086,588L1079,605L1074,618L1071,630L1067,634L1063,642L1055,650L1051,654L1036,654L1043,666L1021,682L1028,663L1027,671L1028,663L1021,682L1013,695L1012,703L1019,685L1003,714L1006,706L995,721L999,718L987,731L975,741L983,734L991,727L972,746L962,753L966,751L962,753L958,762L958,762L958,764L958,764" fill="none" stroke="#000000" style="-webkit-tap-highlight-color: rgba(0, 0, 0, 0); stroke-linecap: round; stroke-linejoin: round; stroke-width: 11;" /><path d="M949,775L949,776L939,790L946,781L938,794L928,803L931,802L917,810L912,825L914,823L904,826L895,835L890,849L890,849L890,849L888,866L888,870L888,874L884,878L884,882L880,894L884,886L867,901L867,905L866,908L864,913L864,913L857,919L856,921L857,919L864,913" fill="none" stroke="#000000" style="-webkit-tap-highlight-color: rgba(0, 0, 0, 0); stroke-linecap: round; stroke-linejoin: round; stroke-width: 11;" /><path d="M1174.86,450.79L1179,450L1175,455L1171,458L1172,463L1166,467L1160,472L1160,475L1155,474L1147,476L1145,479L1145,479L1140,485L1140,485L1139,487L1136,488L1134,491L1130,495L1128,494L1124,503L1117,506L1109,515L1102,519L1099,529L1097,531L1087,543L1090,542L1083,546L1079,547L1072,551L1062,559L1058,562L1049,569L1049,573L1045,582L1039,586L1033,597L1035,590L1030,600L1029,611L1011,633L1019,622L1003,646L990,668L997,659L982,676L978,686L959,703L972,695L955,704L952,706L947,708L944,711L939,717L935,722L933,726L916,742L930,732L930,732L908,750L912,746L904,758L900,762L894,788L896,770L883,794L888,788L877,805L871,814L871,816L872,817L855,831L851,837L855,833L844,842L844,846L844,846L844,846L831,859L829,866L829,866L831,863L831,859L824,886L824,894L828,882L832,907L831,908" fill="none" stroke="#000000" style="-webkit-tap-highlight-color: rgba(0, 0, 0, 0); stroke-linecap: round; stroke-linejoin: round; stroke-width: 11;" /><path d="M1458.1,1005.31L1462,1005L1466,1005L1470,1005L1470,1009L1474,1009L1474,1013L1470,1013L1466,1013L1462,1013L1458,1017L1454,1017L1450,1021L1446,1025L1446,1029L1442,1029L1438,1033L1434,1037L1438,1037L1428,1049L1428,1049L1428,1049L1427,1055L1426,1052L1425,1059L1426,1065L1425,1069L1430,1069L1430,1073L1430,1076L1430,1081L1430,1085L1429,1086L1423,1097L1423,1096L1419,1097L1419,1099L1408,1107L1406,1107L1400,1107L1398,1107L1390,1109L1394,1105L1387,1110L1386,1113L1386,1116L1386,1122L1386,1125L1382,1125L1383,1129L1377,1129L1374,1129L1370,1131L1370,1136L1365,1137L1366,1142L1366,1144L1362,1149L1360,1157L1363,1153L1358,1159L1360,1167L1359,1170L1354,1177L1354,1181L1358,1172L1355,1185L1354,1189L1354,1191L1350,1192L1350,1197L1350,1205L1346,1207L1350,1201L1346,1213L1346,1217L1346,1225L1346,1220L1345,1233L1346,1236L1345,1251L1346,1240L1345,1241L1346,1253L1346,1258L1343,1262L1342,1266L1342,1267L1338,1273L1334,1279L1331,1282L1326,1285L1324,1290L1318,1295L1314,1297L1312,1297L1309,1310L1306,1311L1306,1311L1306,1311L1295,1316L1295,1320L1291,1324L1291,1328L1287,1332L1287,1344L1287,1344L1287,1344L1284,1345L1284,1347L1284,1347L1284,1347L1279,1364L1279,1360L1275,1364L1275,1368L1271,1368L1267,1368L1263,1368L1259,1368L1255,1368L1251,1368L1247,1372L1243,1372L1239,1376L1235,1376L1227,1380L1231,1380L1227,1384L1223,1384L1211,1392L1211,1392L1211,1392L1211,1395L1207,1398L1207,1402L1204,1409L1203,1410L1203,1410L1199,1410L1199,1424L1195,1424L1191,1424L1183,1424L1187,1424L1179,1424L1175,1424L1162,1424L1162,1424L1162,1424L1155,1426L1159,1424L1155,1426L1155,1426L1143,1440L1155,1426L1156,1427L1143,1444L1135,1444L1131,1444L1139,1444L1131,1448L1123,1452L1109,1460L1127,1448L1127,1452L1109,1460L1109,1460L1107,1460L1109,1460L1103,1460L1103,1460L1097,1457L1100,1480L1092,1483L1092,1483L1091,1487L1088,1489L1086,1499L1087,1500L1086,1508L1084,1513L1084,1514L1078,1519L1078,1523L1076,1525L1076,1528L1071,1528L1071,1531L1069,1536L1065,1541L1062,1543L1061,1544L1069,1552L1069,1560L1063,1584L1063,1572L1068,1565L1064,1589L1063,1596L1064,1608L1063,1599L1063,1611L1063,1620L1063,1624L1063,1627L1063,1632L1063,1637L1062,1640L1063,1648L1060,1652L1059,1661L1054,1672L1059,1668L1059,1664L1053,1676" fill="none" stroke="#000000" style="-webkit-tap-highlight-color: rgba(0, 0, 0, 0); stroke-linecap: round; stroke-linejoin: round; stroke-width: 11;" /><path d="M1053,1679L1055,1686L1055,1684L1055,1690L1055,1698L1055,1695L1058,1702L1059,1707L1055,1711L1059,1711L1065,1719L1065,1719L1066,1721L1058,1737L1058,1737L1058,1739L1058,1739L1063,1753L1063,1753L1063,1755" fill="none" stroke="#000000" style="-webkit-tap-highlight-color: rgba(0, 0, 0, 0); stroke-linecap: round; stroke-linejoin: round; stroke-width: 11;" /><path d="M1146.93,1535.89" fill="none" stroke="#000000" style="-webkit-tap-highlight-color: rgba(0, 0, 0, 0); stroke-linecap: round; stroke-linejoin: round; stroke-width: 11;" /><path d="M1066,1765L1063,1755L1066,1766L1067,1767L1067,1767L1064,1788L1064,1788L1064,1788L1064,1788L1054,1765L1063,1755" fill="none" stroke="#000000" style="-webkit-tap-highlight-color: rgba(0, 0, 0, 0); stroke-linecap: round; stroke-linejoin: round; stroke-width: 11;" /><path d="M1147,1539L1143,1547L1127,1572L1139,1555L1127,1588L1124,1604L1125,1626L1122,1616L1125,1636L1122,1646L1135,1664L1120,1656L1135,1676L1135,1683L1135,1680L1135,1691L1135,1695L1135,1715L1135,1703L1135,1699L1135,1707L1122,1734L1122,1729L1121,1712L1122,1734L1115,1749L1116,1755L1116,1755L1116,1755L1111,1771L1117,1782L1115,1782L1112,1776L1117,1784L1114,1792L1111,1791L1111,1795L1110,1799L1108,1808L1107,1802L1103,1807" fill="none" stroke="#000000" style="-webkit-tap-highlight-color: rgba(0, 0, 0, 0); stroke-linecap: round; stroke-linejoin: round; stroke-width: 11;" /><path d="M1105,1809L1091,1819L1105,1809L1106,1812L1077,1824L1075,1799L1077,1800L1075,1801L1064,1788L1054,1765L1054,1765L1067,1791L1051,1761L1050,1761L1055,1762L1040,1750" fill="none" stroke="#000000" style="-webkit-tap-highlight-color: rgba(0, 0, 0, 0); stroke-linecap: round; stroke-linejoin: round; stroke-width: 11;" /><path d="M1111.03,1480.04" fill="none" stroke="#000000" style="-webkit-tap-highlight-color: rgba(0, 0, 0, 0); stroke-linecap: round; stroke-linejoin: round; stroke-width: 11;" /><path d="M1040,1750L1038,1749L1037,1749L1038,1749L1038,1749L1040,1750L1054,1740L1055,1740" fill="none" stroke="#000000" style="-webkit-tap-highlight-color: rgba(0, 0, 0, 0); stroke-linecap: round; stroke-linejoin: round; stroke-width: 11;" /><path d="M1117,1481L1118,1480L1118,1480L1123,1488L1137,1520L1150,1526L1131,1500L1155,1532" fill="none" stroke="#000000" style="-webkit-tap-highlight-color: rgba(0, 0, 0, 0); stroke-linecap: round; stroke-linejoin: round; stroke-width: 11;" /><path d="M1151,1560L1150,1546L1150,1557L1151,1558L1151,1560L1151,1560L1166,1562L1155,1564L1162.89,1523.93L1163,1528L1159,1528L1155,1529L1151,1528L1145,1528L1175,1523L1163,1524L1187,1522L1198,1520L1211,1517L1221,1512L1232,1514L1239,1513L1247,1509L1257,1508L1271,1504L1263,1503L1284,1500L1276,1504L1307,1505L1299,1500L1289,1498L1314,1508" fill="none" stroke="#000000" style="-webkit-tap-highlight-color: rgba(0, 0, 0, 0); stroke-linecap: round; stroke-linejoin: round; stroke-width: 11;" /><path d="M1330,1512L1322,1512L1326,1512L1334,1514L1341,1505L1349,1500L1346,1503L1351,1496L1353,1489" fill="none" stroke="#000000" style="-webkit-tap-highlight-color: rgba(0, 0, 0, 0); stroke-linecap: round; stroke-linejoin: round; stroke-width: 11;" /><path d="M1214.75,1412.22L1227,1414L1227,1414L1227,1414L1229,1420L1223,1428L1222,1438L1228,1454L1231,1466L1230,1464L1243,1470L1241,1470L1254,1483L1255,1483L1263,1484L1275,1480L1299,1476L1287,1480L1307,1475L1314,1475L1317,1475L1320,1469L1330,1472L1327,1471" fill="none" stroke="#000000" style="-webkit-tap-highlight-color: rgba(0, 0, 0, 0); stroke-linecap: round; stroke-linejoin: round; stroke-width: 11;" /><path d="M1342,1466L1332,1470L1342,1465L1344,1464L1344,1458L1350,1460" fill="none" stroke="#000000" style="-webkit-tap-highlight-color: rgba(0, 0, 0, 0); stroke-linecap: round; stroke-linejoin: round; stroke-width: 11;" /><path d="M1482.04,1204.78L1486,1201L1481,1201L1482,1204L1478,1209L1478,1204L1475,1209L1470,1212L1467,1212L1462,1217L1453,1221L1446,1224L1442,1233L1436,1241L1426,1260L1417,1277L1430,1252L1422,1268L1410,1305L1418,1284L1414,1303L1413,1292L1402,1312L1398,1315L1406,1309L1398,1320L1390,1336L1394,1327L1394,1332L1389,1345L1382,1373L1386,1355L1386,1351L1383,1364L1378,1388L1382,1376L1378,1392L1381,1385L1378,1395L1374,1412L1374,1405L1374,1400L1370,1417" fill="none" stroke="#000000" style="-webkit-tap-highlight-color: rgba(0, 0, 0, 0); stroke-linecap: round; stroke-linejoin: round; stroke-width: 11;" /><path d="M1369,1421L1366,1425L1362,1433L1362,1435L1355,1452L1358,1439L1358,1447L1353,1455L1350,1463L1347,1473L1350,1468L1348,1476L1340,1476L1342,1480L1351,1480L1341,1485" fill="none" stroke="#000000" style="-webkit-tap-highlight-color: rgba(0, 0, 0, 0); stroke-linecap: round; stroke-linejoin: round; stroke-width: 11;" /><path d="M1079.11,1759.3L1083,1758L1083,1758L1087,1758L1087,1758L1083,1761L1083,1761L1085,1769L1085,1769L1089,1779L1082,1785L1089,1779L1082,1785L1083,1793L1083,1793L1083,1796L1083,1796L1077,1800L1077,1800L1076,1801L1076,1801L1076,1823L1076,1823L1077,1824L1077,1824L1077,1824L1077,1824L1091,1827L1091,1827L1095,1831L1099,1831L1095,1831L1099,1831L1107,1831L1107,1831L1121,1820L1121,1820L1122,1823L1122,1823L1127,1824L1127,1824L1142,1828L1142,1828L1146,1823L1146,1823L1148,1824L1148,1824L1167,1815L1179,1811L1167,1815L1187,1807L1179,1811L1187,1807L1195,1803L1195,1803L1207,1803L1207,1803L1219,1803L1219,1803L1227,1799L1227,1799L1239,1791L1239,1791L1247,1787" fill="none" stroke="#000000" style="-webkit-tap-highlight-color: rgba(0, 0, 0, 0); stroke-linecap: round; stroke-linejoin: round; stroke-width: 11;" /><path d="M1247,1787L1255,1783L1255,1783L1267,1779L1267,1779L1275,1775L1275,1775L1283,1771L1283,1771L1295,1771L1295,1771L1303,1771L1303,1771L1310,1767L1310,1767L1318,1767L1326,1763L1318,1767L1326,1763L1334,1763L1334,1763L1338,1763L1338,1763L1342,1763L1342,1763L1350,1763L1350,1763L1354,1763L1354,1763L1358,1763L1358,1763L1362,1763L1366,1763L1362,1763L1366,1763L1370,1763L1370,1763L1378,1763L1374,1763L1374,1763L1378,1763L1382,1763L1382,1763L1386,1763L1386,1763L1390,1763L1390,1763L1398,1763L1398,1763L1402,1759L1402,1759L1406,1759L1406,1759L1410,1759L1410,1759L1414,1759L1414,1759L1418,1759L1418,1759L1418,1755L1418,1755L1422,1755L1422,1755L1426,1755L1426,1755L1434,1755L1430,1755L1430,1755L1434,1755L1438,1755L1442,1755L1438,1755L1442,1755L1446,1755L1446,1755L1450,1755L1450,1755L1454,1755L1454,1755L1458,1755L1458,1755L1454,1755L1450,1759L1454,1755L1450,1759" fill="none" stroke="#000000" style="-webkit-tap-highlight-color: rgba(0, 0, 0, 0); stroke-linecap: round; stroke-linejoin: round; stroke-width: 11;" /><path d="M1482.04,151.59L1482,145L1486,144L1490,143L1494,143L1490,143L1483,144L1477,146L1466,136L1458,136L1446,136L1434,140L1422,140L1414,144L1406,144L1398,148L1394,148L1390,152L1386,152L1382,156L1378,156L1384,170L1370,164L1370,160L1362,164L1362,168L1354,168L1358,168L1352,182L1352,182L1334,176L1350,183L1348,186L1343,189L1330,180L1326,180L1318,184L1322,184L1314,187L1307,191L1318,187L1310,187L1303,191L1295,199L1299,195L1291,199L1283,203L1271,203L1269,204L1270,204L1263,206L1259,207L1256,203L1259,203L1252,199L1243,198L1246,201L1243,193L1239,194L1237,194L1222,196L1231,200L1220,193L1219,193L1215,191L1207,190L1203,190L1192,194L1201,190L1187,195L1183,196L1183,196L1176,199L1173,201L1169,205L1165,209L1153,219L1161,212L1157,216L1152,220L1140,226L1140,227L1143,226L1135,230L1125,232L1131,230L1127,230L1119,231L1116,231L1107,227L1110,230L1102,223L1100,220L1095,219L1099,219L1094,216L1091,215L1077,202L1084,207L1083,205L1074,199L1071,199L1059,196L1066,197L1055,197L1051,198L1043,203L1051,198L1044,202L1035,206L1031,207L1027,211L1023,214L1019,215L1015,219L1011,219L1007,223L1004,223L999,223L995,227L990,226L987,231L983,231L981,235L971,234L972,234L967,239L959,245L958,245L965,241L956,247L951,250L950,250L944,252L943,253L939,254L932,264L935,256L932,264L929,264L921,274L922,269L907,282L920,275L917,279L914,283L896,287L905,284L900,287L892,286L884,286L880,290L876,291L872,290L863,295L868,292L855,300L863,295L852,290L845,297L838,293L845,297L836,295L823,298L836,295L836,293L811,293L804,291L811,293L820,297L800,290L804,291L791,291L800,290L772,289L776,289L788,291L780,291L766,295L766,295L766,295L764,303L764,303L763,308L763,311L759,321L761,328L759,322L759,330L760,339L759,343L760,345L756,347L752,342L740,335L734,329L731,328L748,339L728,329L724,322L716,326L721,326L709,323L710,322L703,323L699,321L692,321L696,321L688,313L686,313L680,315L673,317L677,315L671,318L666,319L656,320L660,320L652,321" fill="none" stroke="#000000" style="-webkit-tap-highlight-color: rgba(0, 0, 0, 0); stroke-linecap: round; stroke-linejoin: round; stroke-width: 11;" /><path d="M649,321L648,322L642,324L644,323L640,325L636,326L635,327L631,329L625,331L628,330L617,335L620,334L612,341L614,337L596,353L610,346L596,353L582,357L582,357L572,358L563,360L569,358L562,360L562,360L536,371L543,367L549,367L536,371L522,377L521,377L521,377L520,377L516,381L508,382L508,382L508,382L501,388L493,387L497,388L487,388L484,390L477,396L480,394L471,397L468,397L471,397L480,392L484,389L528.59,371.01L536,371L522,377L521,377L521,377L520,377L508,382L501,388L493,388L480,394L475,403L464,407L456,410L453,410L450,416L450,416L437,423L422,425L422,425L423,422L421,425L419,425L409,423L407,440L397,440L385,439L393,440L377,439L370,441L365,460L359,444L364,461L357,465L351,464L348,463L346,466L343,469L343,469L334,479L318,471L330,480" fill="none" stroke="#000000" style="-webkit-tap-highlight-color: rgba(0, 0, 0, 0); stroke-linecap: round; stroke-linejoin: round; stroke-width: 11;" /><path d="M318,471L317,475L313,475L305,472L298,476L297,475L293,480L285,479L282,479L272,478L269,482L264,482L257,486L261,487L257,490L257,495L255,496" fill="none" stroke="#000000" style="-webkit-tap-highlight-color: rgba(0, 0, 0, 0); stroke-linecap: round; stroke-linejoin: round; stroke-width: 11;" /><path d="M424.86,386.97L429,387L433,387L433,383L429,383L425,387L417,387L413,387L405,387L397,391L389,391L381,391L373,391L369,387L361,387L349,387L333,383L341,383L325,383L317,383L317,379L305,379L293,379L281,375L253,367L269,371L233,359L241,363L219,369L217,369L214,369L214,369L189,359L197,359L186,359L178,359L174,359L166,363L158,363" fill="none" stroke="#000000" style="-webkit-tap-highlight-color: rgba(0, 0, 0, 0); stroke-linecap: round; stroke-linejoin: round; stroke-width: 11;" /><path d="M154,363L150,363L142,363L130,363L122,367L114,367L106,367L98,367L90,367L86,367L74,367L66,367L46,372L62,367L46,372L43,367L38,367L42,367L37,368L37,368L18,372L17,370L13,368L10,366L2,366" fill="none" stroke="#000000" style="-webkit-tap-highlight-color: rgba(0, 0, 0, 0); stroke-linecap: round; stroke-linejoin: round; stroke-width: 11;" /><path d="M380.98,466.75L381,458L379,457L382,463L387,455L409,469L400,462L389,454L394,459L417,467L439,474L429,471L437,474L450,475L456,481L453,479L456,479L472,493L472,493L481,493L477,493L485,493L497,516L490,515L505,519L505,520L499,525L502,551L502,551L502,553L508,576L508,576L507,579L508,578L515,593L514,613L515,604L513,616L509,621L509,624L513,634L513,635L516,655L514,646L516,661L509,666L507,674L503,682L505,687L505,694L507,700L505,705L503,714L505,718L506,729L508,730L510,738L510,740L502,750L502,754L514,762" fill="none" stroke="#000000" style="-webkit-tap-highlight-color: rgba(0, 0, 0, 0); stroke-linecap: round; stroke-linejoin: round; stroke-width: 11;" /><path d="M513,773L513,776L521,789L523,792L516,805L516,805L521,812L521,817L525,821L525,825L525,834L529,838L529,842L530,854L531,846L528,858L529,860L527,866L527,868L525,877L524,881L523,890L522,886L520,896L523,891L548.53,885.63L518,903L519,900L516,904L518,903L516,904L518,903L516,904L518,903L516,904L549,878L545,870L545,874L549,870L557,870L568,870L576,870L584,870L588,870L592,870L608,870L600,858L602,858L608,874L612,878L621,864L616,882L616,886L620,890L620,894L633,892L633,892L624,906L637,905L624,910L628,918L628,922L628,926L628,930L628,934L628,937L628,950L623,949L616,948L604,945L580,938L591,942L565,939L563,936L561,932L549,937L545,937L545,941L549,941L564,942L563,936L560,950L559,952" fill="none" stroke="#000000" style="-webkit-tap-highlight-color: rgba(0, 0, 0, 0); stroke-linecap: round; stroke-linejoin: round; stroke-width: 11;" /><path d="M558,962L558,970L556,981L568,993L568,1011L564,1008L576,1016L580,1018L576,1037L576,1033L580,1041L580,1045L580,1049L593,1054L593,1054L593,1054L593,1054L594,1059L598,1053L608,1060L608,1060L609,1072L612,1076L621,1074L622,1082L621,1075L622,1083L624,1084L614,1079L619,1081L612,1077" fill="none" stroke="#000000" style="-webkit-tap-highlight-color: rgba(0, 0, 0, 0); stroke-linecap: round; stroke-linejoin: round; stroke-width: 11;" /><path d="M600.39,837.76L598,837L597,834L597,834L597,834L600,822L604,822L604,818L608,818L612,818L616,818L620,822L624,822L618,836L632,830L632,838L632,842L632,846L636,854L630,869L627,867L641,877L632,874L641,882L640,878L644,890L642,885L644,897L645,894L644,902L647,906L650,910" fill="none" stroke="#000000" style="-webkit-tap-highlight-color: rgba(0, 0, 0, 0); stroke-linecap: round; stroke-linejoin: round; stroke-width: 11;" /><path d="M652,912L652,912L658,924L656,925L654,926L657,925L654,945L652,941L654,948L654,945L654,945" fill="none" stroke="#000000" style="-webkit-tap-highlight-color: rgba(0, 0, 0, 0); stroke-linecap: round; stroke-linejoin: round; stroke-width: 11;" /><path d="M600.39,813.82L604,814L604,810L604,806L600,806L592,806L588,806L566,814L564,812L560,811L553,814L547,815L536,811L524,811L530,810L521,810L517,811L509,811L513,810" fill="none" stroke="#000000" style="-webkit-tap-highlight-color: rgba(0, 0, 0, 0); stroke-linecap: round; stroke-linejoin: round; stroke-width: 11;" /><path d="M505,806L505,806L505,806L505,810" fill="none" stroke="#000000" style="-webkit-tap-highlight-color: rgba(0, 0, 0, 0); stroke-linecap: round; stroke-linejoin: round; stroke-width: 11;" /><path d="M1003.32,203.46L1003,199L999,199L1005,216L999,203L1005,216L1001,220L1004,223L1001,228L1003,240L1003,242L1003,250L1003,250L1000,255L999,257L999,257L995,271L999,257L991,271L991,275L991,279L987,279L987,283L987,287L983,291L983,295L983,299L983,303L983,307L979,311L979,315L979,319L975,319L964,333L965,334L965,334L965,335L965,336L963,336L958,337L958,337L951,351L947,355L943,355L939,355L932,359L935,359L928,359L924,363L910,373L908,361L908,361L906,365L904,371L901,371L906,365L896,375L888,378L891,378L884,385L877,385L872,388L860,390L866,384L860,390L854,393L854,393L848,396L841,399L847,397L840,400L831,415L828,419L831,415L823,422L824,422L812,431L798,424L800,439L796,443L784,447L788,447L780,451L776,459L776,455L768,463L755,466L760,476L756,477L748,475L740,476L731,479L721,483L728,480L716,483L712,482L709,487L702,485L700,489L694,491L688,502L688,503L692,493L684,506L679,513L676,514L672,515L667,519L660,523L653,528L654,525L647,527L643,529L640,531L637,531L628,534L631,533L619,543L625,537L613,548L616,542L608,551L605,553L602,559L603,556L600,561L601,565L594,566L596,569" fill="none" stroke="#000000" style="-webkit-tap-highlight-color: rgba(0, 0, 0, 0); stroke-linecap: round; stroke-linejoin: round; stroke-width: 11;" /><path d="M587,575L592,570L584,578L580,578L572,579L576,578L568,579L568,579L557,589L566,579L552,591L558,589L541,600L549,593L546,598L536,598L531,600L527,598L525,598L521,597L517,600L521,597L520,602L516,602" fill="none" stroke="#000000" style="-webkit-tap-highlight-color: rgba(0, 0, 0, 0); stroke-linecap: round; stroke-linejoin: round; stroke-width: 11;" /><path d="M17.95,526.59L10,523L14,522L14,522L20,525L27,526L35,525L37,525L44,524L46,523L62,523L62,523L66,523L68,523L74,520L76,520L85,521L94,520L87,521L96,520L100,519L114,517L100,519L110,517L118,517L123,518L125,518L130,517L125,518L134,518L138,518L143,518L146,518L150,518L153,516L157,515L157,515L170,519L170,519L174,519L177,520L181,521L197,520L188,520L186,520L201,520L206,521L217,520" fill="none" stroke="#000000" style="-webkit-tap-highlight-color: rgba(0, 0, 0, 0); stroke-linecap: round; stroke-linejoin: round; stroke-width: 11;" /><path d="M212,521L225,520L229,520L232,519L238,527L240,527L248,524L248,524L249,523" fill="none" stroke="#000000" style="-webkit-tap-highlight-color: rgba(0, 0, 0, 0); stroke-linecap: round; stroke-linejoin: round; stroke-width: 11;" /><path d="M13.96,502.66L18,503L21,504L18,522L25,523L26,505L30,505L34,505L38,504L43,503L47,502L58,490L50,494L70,488L62,485L73,483L82,482L86,482L91,479L94,473L97,473L102,471L106,470L110,471L114,466L118,466L130,467L121,466L126,467L137,469L142,469L143,470L148,474L161,474L158,474L171,471L171,471L174,470L178,470L181,470L186,471L188,471L193,475L194,475L208,475L210,475L209,475L219,474L219,474" fill="none" stroke="#000000" style="-webkit-tap-highlight-color: rgba(0, 0, 0, 0); stroke-linecap: round; stroke-linejoin: round; stroke-width: 11;" /><path d="M228,471L229,471L229,471L230,472L245,460L243,460L249,460L251,460L261,469L260,469L265,469L271,469L273,469L277,469L286,467L281,469L292,461L293,461L295,460L301,459L302,459L312,468L416.89,434.84L321,457L312,468L324,457L334,459L334,459L407,440L407,440L407,440L407,440L407,440L421,425L422,425L441,435L453,435L465,435L477,435L485,435L489,435L493,439L507,445L507,445L509,442L509,442L513,443L518,443L517,443L525,446L525,446" fill="none" stroke="#000000" style="-webkit-tap-highlight-color: rgba(0, 0, 0, 0); stroke-linecap: round; stroke-linejoin: round; stroke-width: 11;" /><path d="M544,440L528,433L544,440L546,435L548,434L552,433L548,434L546,435" fill="none" stroke="#000000" style="-webkit-tap-highlight-color: rgba(0, 0, 0, 0); stroke-linecap: round; stroke-linejoin: round; stroke-width: 11;" /><path d="M13.96,566.49L18,564L22,564L23,564L28,565L42,555L46,555L54,555L62,555L78,555L70,555L90,555L86,555L106,555L98,555L114,551L122,551L130,551L138,547L146,547L154,547L158,547L162,547L166,547L170,547L174,547L178,547L182,547L186,547L189,547L193,551L197,551L201,551L209,551L205,551L213,551L217,547" fill="none" stroke="#000000" style="-webkit-tap-highlight-color: rgba(0, 0, 0, 0); stroke-linecap: round; stroke-linejoin: round; stroke-width: 11;" /><path d="M221,547L234,537L234,537L240,540L240,540L233,564" fill="none" stroke="#000000" style="-webkit-tap-highlight-color: rgba(0, 0, 0, 0); stroke-linecap: round; stroke-linejoin: round; stroke-width: 11;" /><path d="M580.45,618.35L564,610L576,618L568,614L547,601L547,601L547,601L547,601L544,611L544,611L557,626L561,634L564,642L559,660L572,667L576,668L586,671L580,669L594,660L592,675L600,679L596,677L601,680L616,670L624,674L632,674L636,674L644,674L652,674L660,678L668,678L676,674L684,674L696,674L704,674L708,674L728,674L716,674L720,674L732,674L744,678L736,678L748,682L756,682L760,686L776,686L768,686L784,686L792,686L800,686L808,686L820,686L828,686L836,686L844,686L852,686L860,686L876,686L868,686L884,686L892,686L908,686L900,686L912,690L920,690" fill="none" stroke="#000000" style="-webkit-tap-highlight-color: rgba(0, 0, 0, 0); stroke-linecap: round; stroke-linejoin: round; stroke-width: 11;" /><path d="M924,690L928,686L932,682L935,682L939,682L955,682L951,682L943,682L959,682L963,682L978,686L977,691L967,678L955,674" fill="none" stroke="#000000" style="-webkit-tap-highlight-color: rgba(0, 0, 0, 0); stroke-linecap: round; stroke-linejoin: round; stroke-width: 11;" /><path d="M632.31,598.4L623,589L623,589L623,589L623,589L616,583L623,589L620,607L623,607L629,612L648,606L660,610L688,610L676,610L704,614L716,614L728,614L740,618L748,618L756,618L772,618L780,618L764,618L788,618L796,622L800,622L804,622L812,622L808,622L820,622L816,622L824,622L832,622L840,622L852,622L868,622L860,622L872,622L876,622L888,622L896,622L900,622L880,622L908,622" fill="none" stroke="#000000" style="-webkit-tap-highlight-color: rgba(0, 0, 0, 0); stroke-linecap: round; stroke-linejoin: round; stroke-width: 11;" /><path d="M912,622L920,618L924,618L928,618L935,614L947,614L939,614L951,614L955,614L963,614L959,614L971,614L975,614L971,614L967,610" fill="none" stroke="#000000" style="-webkit-tap-highlight-color: rgba(0, 0, 0, 0); stroke-linecap: round; stroke-linejoin: round; stroke-width: 11;" /><path d="M1015.29,211.43L1009,214L1005,216L1005,216L991,207L992,224L990,232L992,224L1001,243L999,271L999,256L1002,287L1003,323L1003,307L1007,339L1011,351L1011,363L1011,367L1015,371L1015,375L1015,383L1015,395L1015,403L1011,415L1011,427L1011,439L1011,447L1015,459L1015,467L1015,475L1015,483L1015,491L1015,495L1015,503L1015,507L1015,519L1015,527L1015,515" fill="none" stroke="#000000" style="-webkit-tap-highlight-color: rgba(0, 0, 0, 0); stroke-linecap: round; stroke-linejoin: round; stroke-width: 11;" /><path d="M1011,531L1011,539L1011,547L1007,551L1007,559L1003,570L999,574L1003,562L999,582L995,594L999,586L995,590L991,598L991,602L987,606L987,614L987,610L983,630L987,622L983,626L983,634L987,626L983,630L987,622L987,630L991,622L991,618" fill="none" stroke="#000000" style="-webkit-tap-highlight-color: rgba(0, 0, 0, 0); stroke-linecap: round; stroke-linejoin: round; stroke-width: 11;" /><path d="M1190.82,486.7L1188,477L1189,481L1189,468L1188,477L1187,478L1187,481L1187,481L1176,494L1191,511L1191,527L1204,539L1203,555L1202,566L1202,582L1201,597L1200,611L1200,624L1199,650L1199,658L1200,634L1197,670L1198,682L1199,690L1196,699L1199,713L1199,713L1211,726L1211,734L1211,742L1211,750L1201,771L1201,771L1204,778L1201,784L1196,798L1199,790L1196,806L1192,826L1196,810L1196,818L1188,836L1186,857L1186,842L1185,848L1186,857L1179,870L1175,874L1175,878L1175,882L1175,886L1175,894L1175,890L1175,898L1175,906L1175,918L1175,914L1175,910L1175,922" fill="none" stroke="#000000" style="-webkit-tap-highlight-color: rgba(0, 0, 0, 0); stroke-linecap: round; stroke-linejoin: round; stroke-width: 11;" /><path d="M895.61,941.48L896,934L896,930L896,934L900,934L904,934L912,934L916,937L924,937L932,934L939,934L947,934L955,930L951,930L951,934L959,930L971,934L963,930L967,930L975,934L979,937L983,937L983,941L987,941L991,945L999,945L995,945L1007,945L1003,945L1019,945L1015,945L1023,941L1031,941L1035,941L1039,941L1047,941L1055,941L1051,941L1059,941L1063,941L1071,941L1075,941L1091,937L1083,937L1107,934L1099,934" fill="none" stroke="#000000" style="-webkit-tap-highlight-color: rgba(0, 0, 0, 0); stroke-linecap: round; stroke-linejoin: round; stroke-width: 11;" /><path d="M1115,930L1119,930L1123,930L1131,930L1135,930L1127,930L1143,930L1147,930L1151,934L1151,930L1159,937L1155,934L1163,937L1182.84,953.45L1188,947L1188,946L1191,952L1196,961L1199,964L1203,973L1211,984L1214,995L1222,1008L1227,1018L1230,1029L1239,1032L1245,1042L1247,1045L1251,1049L1256,1051L1260,1053L1260,1055L1263,1061L1272,1067L1268,1065L1275,1067L1279,1073L1287,1081L1288,1085L1283,1077L1288,1088L1292,1093L1295,1101L1291,1096L1295,1104L1301,1115L1300,1117L1305,1129L1304,1130L1302,1120" fill="none" stroke="#000000" style="-webkit-tap-highlight-color: rgba(0, 0, 0, 0); stroke-linecap: round; stroke-linejoin: round; stroke-width: 11;" /><path d="M1312,1140L1319,1140L1326,1154L1331,1157L1336,1163L1339,1167L1346,1168L1342,1168L1350,1174L1354,1177L1359,1180L1362,1184L1362,1180L1366,1188" fill="none" stroke="#000000" style="-webkit-tap-highlight-color: rgba(0, 0, 0, 0); stroke-linecap: round; stroke-linejoin: round; stroke-width: 11;" /><path d="M943.48,690.15" fill="none" stroke="#000000" style="-webkit-tap-highlight-color: rgba(0, 0, 0, 0); stroke-linecap: round; stroke-linejoin: round; stroke-width: 11;" /><path d="M943,694" fill="none" stroke="#000000" style="-webkit-tap-highlight-color: rgba(0, 0, 0, 0); stroke-linecap: round; stroke-linejoin: round; stroke-width: 11;" /><path d="M556.51,973.4L556,972L556,978L553,985L551,988L551,993L533,1001L529,1013L521,1021L517,1033L513,1049L513,1041L509,1053L505,1061L505,1065L501,1069L501,1073L497,1077L497,1081L493,1081L493,1085" fill="none" stroke="#000000" style="-webkit-tap-highlight-color: rgba(0, 0, 0, 0); stroke-linecap: round; stroke-linejoin: round; stroke-width: 11;" /><path d="M493,1089L489,1089L489,1093L489,1097" fill="none" stroke="#000000" style="-webkit-tap-highlight-color: rgba(0, 0, 0, 0); stroke-linecap: round; stroke-linejoin: round; stroke-width: 11;" /><path d="M424.86,997.33L421,997L421,1001L425,1005L425,1009L425,1017L425,1025L425,1033L425,1041L425,1049L425,1053L425,1065L425,1061L425,1073L425,1077L425,1081L421,1089L421,1085L425,1089L429,1089L433,1089L437,1089L441,1089L449,1085L445,1089L457,1085L465,1085L477,1085L489,1085L497,1085" fill="none" stroke="#000000" style="-webkit-tap-highlight-color: rgba(0, 0, 0, 0); stroke-linecap: round; stroke-linejoin: round; stroke-width: 11;" /><path d="M501,1085L501,1089L497,1093" fill="none" stroke="#000000" style="-webkit-tap-highlight-color: rgba(0, 0, 0, 0); stroke-linecap: round; stroke-linejoin: round; stroke-width: 11;" /><path d="M9.97,773.93" fill="none" stroke="#000000" style="-webkit-tap-highlight-color: rgba(0, 0, 0, 0); stroke-linecap: round; stroke-linejoin: round; stroke-width: 11;" /><path d="M6,780L2,780L5.98,777.92L34,786L19,781L53,786L67,779L86,774L96,774" fill="none" stroke="#000000" style="-webkit-tap-highlight-color: rgba(0, 0, 0, 0); stroke-linecap: round; stroke-linejoin: round; stroke-width: 11;" /><path d="M102,773L96,774L94,775" fill="none" stroke="#000000" style="-webkit-tap-highlight-color: rgba(0, 0, 0, 0); stroke-linecap: round; stroke-linejoin: round; stroke-width: 11;" /><path d="M5.98,690.15" fill="none" stroke="#000000" style="-webkit-tap-highlight-color: rgba(0, 0, 0, 0); stroke-linecap: round; stroke-linejoin: round; stroke-width: 11;" /><path d="M9.97,682.18L6,696L25,675L50,675L79,672" fill="none" stroke="#000000" style="-webkit-tap-highlight-color: rgba(0, 0, 0, 0); stroke-linecap: round; stroke-linejoin: round; stroke-width: 11;" /><path d="M91,678L99,674L102,674" fill="none" stroke="#000000" style="-webkit-tap-highlight-color: rgba(0, 0, 0, 0); stroke-linecap: round; stroke-linejoin: round; stroke-width: 11;" /><path d="M9.97,1978.71L11,1982L6,1971L6,1967L10,1967L26,1959L14,1963L42,1955L62,1951L78,1951" fill="none" stroke="#000000" style="-webkit-tap-highlight-color: rgba(0, 0, 0, 0); stroke-linecap: round; stroke-linejoin: round; stroke-width: 11;" /><path d="M90,1951L98,1951L106,1951L106,1947L102,1947L102,1943" fill="none" stroke="#000000" style="-webkit-tap-highlight-color: rgba(0, 0, 0, 0); stroke-linecap: round; stroke-linejoin: round; stroke-width: 11;" /><path d="M29.92,1847.06L26,1853L25,1844L37,1848L46,1845L54,1846L66,1846L73,1847L97,1860L91,1857L108,1863" fill="none" stroke="#000000" style="-webkit-tap-highlight-color: rgba(0, 0, 0, 0); stroke-linecap: round; stroke-linejoin: round; stroke-width: 11;" /><path d="M109,1871L114,1875L118,1879L116,1875" fill="none" stroke="#000000" style="-webkit-tap-highlight-color: rgba(0, 0, 0, 0); stroke-linecap: round; stroke-linejoin: round; stroke-width: 11;" /><path d="M564.49,458.77L560,458L557,455L558,452L561,451L565,447L569,446L578,444L583,438L588,435L596,434L600,431L606,431L608,431L612,431L622,431L622,431L627,431L630,430L636,436L647,433L647,434L654,435L656,437L659,438L662,440L668,443L671,445L678,446L681,448L680,452L683,450L686,453L688,456L694,460L692,462L695,463L695,466L699,470L704,470L703,474L706,475L716,475L721,471L728,471L732,467L736,465" fill="none" stroke="#000000" style="-webkit-tap-highlight-color: rgba(0, 0, 0, 0); stroke-linecap: round; stroke-linejoin: round; stroke-width: 11;" /><path d="M744,462L746,462L753,464L753,464L728.05,378.99L727,382L724,387L720,394L717,399L712,406L710,409L688,419L693,413L683,426" fill="none" stroke="#000000" style="-webkit-tap-highlight-color: rgba(0, 0, 0, 0); stroke-linecap: round; stroke-linejoin: round; stroke-width: 11;" /><path d="M664,434L659,438L672,432L659,443L648,454L647,456L652,450L640,455L647,456L648,456" fill="none" stroke="#000000" style="-webkit-tap-highlight-color: rgba(0, 0, 0, 0); stroke-linecap: round; stroke-linejoin: round; stroke-width: 11;" /><path d="M1218.74,259.31L1226,254L1229,239L1230,238L1236,238L1231,242L1227,247L1219,249L1215,250L1203,259L1189,275L1199,273L1184,284L1182,291L1175,300L1174,305L1178,314L1183,335L1183,331L1177,322L1188,343L1186,356L1187,358L1188,347L1186,365L1188,375L1185,371L1187,378L1185,383L1186,387L1187,396L1187,391L1186,399L1186,402L1184,407L1187,411L1187,416L1193,421L1189,423L1191,425L1193,430L1187,435L1187,437L1183,443" fill="none" stroke="#000000" style="-webkit-tap-highlight-color: rgba(0, 0, 0, 0); stroke-linecap: round; stroke-linejoin: round; stroke-width: 11;" /><path d="M1180,448L1181,453L1180,456L1183,455L1180,459L1176,477L1182,464L1179,461L1176,477L1175,477L1176,488L1175,483" fill="none" stroke="#000000" style="-webkit-tap-highlight-color: rgba(0, 0, 0, 0); stroke-linecap: round; stroke-linejoin: round; stroke-width: 11;" /><path d="M1150.92,1894.93L1152,1907L1152,1907L1152,1907L1150,1915L1149,1919L1147,1928L1146,1932L1145,1935L1144,1939L1145,1939L1147,1943L1157,1944L1158,1944L1161,1945L1167,1945L1178,1942L1172,1944L1182,1943L1189,1944L1210,1944L1199,1946L1210,1944L1203,1923L1199,1923L1203,1927L1217,1929L1199,1919L1199,1911L1199,1915L1203,1907L1207,1899L1203,1903L1220,1899L1211,1881L1211,1881L1211,1881L1211,1881L1207,1881L1207,1881L1204,1881L1204,1881L1202,1880L1184,1880L1184,1880L1175,1892L1175,1892L1173,1892L1173,1892L1173,1892L1155,1883L1159,1883L1151,1883L1147,1883L1143,1883" fill="none" stroke="#000000" style="-webkit-tap-highlight-color: rgba(0, 0, 0, 0); stroke-linecap: round; stroke-linejoin: round; stroke-width: 11;" /></svg>