<?xml version="1.0" encoding="utf-8" ?>
<svg baseProfile="full" height="1512" version="1.1" width="2590" xmlns="http://www.w3.org/2000/svg" xmlns:ev="http://www.w3.org/2001/xml-events" xmlns:xlink="http://www.w3.org/1999/xlink"><defs /><path d="M134.61,468.8L139.25,473.44L143.89,473.44L148.53,473.44L153.17,473.44L162.46,473.44L176.38,473.44L190.3,473.44L208.87,473.44L222.8,473.44L236.72,473.44L250.65,473.44L259.93,473.44L269.21,473.44L283.14,473.44L292.42,473.44L301.7,473.44L315.63,473.44L320.27,473.44L329.55,473.44L338.84,473.44L348.12,473.44L357.4,473.44L366.68,473.44L375.97,473.44L385.25,478.08L394.53,478.08L408.46,478.08L417.74,478.08L427.03,478.08L436.31,478.08L445.59,482.72L454.87,482.72L464.16,482.72L478.08,482.72L487.37,482.72L496.65,482.72L505.93,482.72L515.22,482.72L529.14,487.37L538.42,487.37L547.71,487.37L556.99,492.01L570.91,492.01L580.2,492.01L589.48,492.01L598.76,492.01L612.69,492.01L621.97,492.01L635.9,492.01L645.18,492.01L654.46,492.01L668.39,496.65L677.67,496.65L686.95,496.65L696.24,496.65L705.52,496.65L714.8,496.65L724.09,496.65L733.37,496.65L742.65,496.65L751.94,496.65L765.86,496.65L775.14,496.65L784.43,492.01L793.71,492.01L802.99,492.01L812.28,492.01L821.56,492.01L830.84,487.37L840.13,487.37L849.41,487.37" fill="none" stroke="#000000" style="-webkit-tap-highlight-color: rgba(0, 0, 0, 0); stroke-linecap: round; stroke-linejoin: round; stroke-width: 12;" /><path d="M724.09,468.8L728.73,468.8L728.73,473.44L724.09,473.44L719.44,473.44L714.8,478.08L714.8,482.72L714.8,487.37L719.44,487.37L724.09,487.37L733.37,487.37L742.65,482.72L751.94,473.44L761.22,468.8L770.5,459.52L779.78,454.87L784.43,445.59L789.07,440.95L793.71,436.31L798.35,431.67L798.35,427.03L802.99,422.38L807.63,417.74L812.28,413.1L812.28,408.46L816.92,403.82L821.56,399.18L821.56,394.53L826.2,394.53L830.84,394.53L835.48,394.53L840.13,394.53L844.77,394.53L849.41,394.53L854.05,399.18L863.33,399.18L872.62,399.18L881.9,399.18L900.47,399.18L914.39,399.18L928.32,399.18L942.24,399.18L951.52,394.53L965.45,394.53L974.73,394.53L984.01,394.53L993.3,394.53L997.94,394.53L1007.22,394.53L1016.51,394.53L1021.15,394.53L1030.43,394.53L1035.07,394.53L1039.71,394.53L1049,399.18L1058.28,403.82L1067.56,403.82L1076.85,408.46L1086.13,408.46L1090.77,413.1L1095.41,417.74L1100.05,417.74L1104.7,422.38L1109.34,422.38L1109.34,427.03L1113.98,427.03L1118.62,427.03L1123.26,427.03L1127.9,427.03L1132.54,427.03L1141.83,427.03L1146.47,422.38L1155.75,417.74L1165.04,413.1L1174.32,408.46L1183.6,403.82L1192.89,399.18L1197.53,399.18L1206.81,394.53L1211.45,389.89L1220.73,385.25L1225.38,380.61L1234.66,380.61L1239.3,375.97L1243.94,375.97L1248.58,371.33L1253.23,371.33L1257.87,371.33L1262.51,371.33L1267.15,371.33L1271.79,371.33L1276.43,371.33L1281.08,371.33L1285.72,375.97L1290.36,375.97L1295,380.61L1299.64,385.25L1304.28,385.25L1308.92,385.25L1313.57,385.25L1318.21,385.25L1322.85,385.25L1327.49,385.25L1332.13,385.25L1341.42,380.61L1346.06,380.61L1350.7,375.97L1355.34,375.97L1364.62,375.97L1369.27,371.33L1378.55,371.33L1383.19,371.33L1387.83,371.33L1392.47,371.33L1397.11,371.33L1401.76,371.33L1411.04,371.33L1415.68,371.33L1420.32,371.33L1424.96,371.33L1429.61,371.33L1434.25,371.33L1438.89,371.33L1443.53,371.33L1448.17,371.33L1457.46,371.33L1462.1,371.33L1466.74,371.33L1471.38,371.33L1476.02,375.97L1480.66,375.97L1485.3,375.97L1489.95,380.61L1499.23,380.61L1503.87,380.61L1508.51,380.61L1517.8,380.61L1522.44,385.25L1531.72,385.25L1541,385.25L1545.65,385.25L1554.93,385.25L1564.21,385.25L1573.49,385.25L1578.14,385.25L1592.06,385.25L1601.34,385.25L1610.63,380.61L1615.27,380.61L1624.55,380.61L1643.12,375.97L1652.4,375.97L1657.04,375.97L1666.33,371.33L1670.97,371.33L1684.89,371.33L1689.53,371.33L1698.82,371.33L1703.46,371.33L1708.1,371.33L1717.38,371.33L1722.03,371.33L1731.31,371.33L1735.95,371.33L1740.59,371.33L1745.23,371.33L1754.52,371.33L1763.8,371.33L1768.44,371.33L1773.08,371.33L1777.72,371.33L1782.37,371.33L1787.01,371.33L1787.01,375.97L1791.65,375.97L1791.65,380.61L1796.29,385.25L1800.93,389.89L1800.93,394.53L1800.93,399.18L1805.57,403.82L1805.57,408.46L1805.57,413.1L1810.22,413.1L1814.86,413.1L1819.5,408.46L1819.5,403.82L1824.14,394.53L1824.14,389.89L1828.78,385.25L1833.42,380.61L1833.42,375.97L1838.06,375.97L1842.71,371.33L1847.35,371.33L1851.99,371.33L1861.27,371.33L1870.56,371.33L1879.84,371.33L1884.48,371.33L1889.12,371.33L1893.76,371.33L1898.41,371.33L1903.05,371.33L1912.33,371.33L1921.61,371.33L1926.25,375.97L1935.54,375.97L1944.82,375.97L1949.46,375.97L1954.1,380.61L1958.75,380.61L1963.39,380.61L1968.03,380.61L1972.67,380.61L1977.31,380.61L1981.95,385.25L1986.59,385.25L1991.24,389.89L1995.88,389.89L2000.52,389.89L2005.16,389.89L2009.8,389.89L2019.09,385.25L2028.37,385.25L2033.01,385.25L2037.65,385.25L2042.29,385.25L2046.94,385.25L2056.22,380.61L2060.86,380.61L2060.86,375.97L2065.5,375.97L2074.78,371.33L2079.43,371.33L2084.07,371.33L2084.07,366.68L2088.71,366.68L2093.35,366.68L2097.99,362.04L2102.63,362.04L2107.28,362.04L2116.56,357.4L2121.2,357.4L2125.84,352.76L2130.48,348.12L2139.77,348.12L2144.41,343.48L2149.05,343.48L2153.69,343.48L2158.33,343.48L2167.62,343.48L2172.26,343.48L2181.54,343.48L2186.18,343.48L2190.82,343.48L2195.47,343.48L2204.75,343.48L2209.39,343.48L2214.03,343.48L2218.67,343.48L2223.32,343.48L2227.96,343.48L2237.24,343.48L2241.88,343.48L2246.52,343.48L2251.16,343.48L2260.45,343.48L2265.09,343.48L2269.73,343.48L2274.37,343.48L2279.01,343.48L2283.66,338.84L2288.3,338.84L2292.94,338.84L2302.22,338.84L2306.86,334.19L2311.51,334.19L2316.15,329.55L2320.79,329.55L2325.43,329.55L2330.07,329.55L2334.71,329.55L2339.35,329.55L2344,329.55L2348.64,329.55L2353.28,324.91L2362.56,324.91L2367.2,324.91L2371.85,324.91L2381.13,324.91L2385.77,324.91L2395.05,324.91L2404.34,324.91L2408.98,320.27L2418.26,320.27L2422.9,320.27L2432.19,320.27L2436.83,320.27L2441.47,320.27L2446.11,320.27L2450.75,320.27L2460.04,320.27L2464.68,320.27L2469.32,320.27L2473.96,320.27L2487.89,320.27L2492.53,320.27L2497.17,324.91L2501.81,324.91L2506.45,329.55L2511.09,329.55L2511.09,334.19L2511.09,338.84L2515.73,343.48L2520.38,348.12L2520.38,352.76L2520.38,357.4L2525.02,362.04L2525.02,371.33L2525.02,375.97L2525.02,380.61L2525.02,385.25L2529.66,385.25L2534.3,385.25L2538.94,380.61L2543.58,375.97L2548.23,371.33L2552.87,362.04L2552.87,352.76L2557.51,343.48L2557.51,334.19L2562.15,334.19L2566.79,329.55L2571.43,329.55L2580.72,329.55L2585.36,329.55" fill="none" stroke="#000000" style="-webkit-tap-highlight-color: rgba(0, 0, 0, 0); stroke-linecap: round; stroke-linejoin: round; stroke-width: 12;" /><path d="M1369.27,375.97L1378.55,380.61L1397.11,385.25L1420.32,385.25L1438.89,385.25L1448.17,389.89L1452.81,389.89L1462.1,394.53L1471.38,399.18L1480.66,399.18L1485.3,403.82L1489.95,403.82L1494.59,408.46L1499.23,413.1L1503.87,417.74L1508.51,422.38L1513.15,427.03L1517.8,431.67L1522.44,436.31L1527.08,440.95L1536.36,450.23L1541,454.87L1550.29,459.52L1559.57,468.8L1564.21,473.44L1573.49,478.08L1578.14,482.72L1582.78,487.37L1592.06,492.01L1596.7,496.65L1605.99,501.29L1610.63,505.93L1619.91,510.57L1624.55,510.57L1638.48,515.22L1647.76,515.22L1657.04,519.86L1661.68,524.5L1670.97,524.5L1680.25,529.14L1689.53,529.14L1698.82,533.78L1703.46,533.78L1712.74,538.42L1717.38,538.42L1726.67,538.42L1731.31,543.06L1740.59,543.06L1749.87,543.06L1759.16,547.71L1768.44,547.71L1782.37,547.71L1791.65,547.71L1796.29,547.71L1805.57,552.35L1814.86,552.35L1824.14,552.35L1828.78,552.35L1833.42,552.35L1842.71,556.99L1851.99,556.99L1865.91,556.99L1879.84,552.35L1893.76,552.35L1903.05,552.35L1903.05,556.99" fill="none" stroke="#000000" style="-webkit-tap-highlight-color: rgba(0, 0, 0, 0); stroke-linecap: round; stroke-linejoin: round; stroke-width: 12;" /><path d="M1633.84,561.63" fill="none" stroke="#000000" style="-webkit-tap-highlight-color: rgba(0, 0, 0, 0); stroke-linecap: round; stroke-linejoin: round; stroke-width: 12;" /><path d="M1610.63,608.05L1610.63,603.41L1615.27,603.41L1615.27,608.05L1615.27,612.69L1610.63,617.33L1605.99,626.61L1601.34,631.25L1596.7,640.54L1596.7,645.18L1592.06,654.46L1587.42,659.1L1578.14,668.39L1573.49,677.67L1568.85,682.31L1564.21,691.59L1564.21,700.88L1559.57,710.16L1554.93,724.09L1550.29,733.37L1545.65,747.29L1541,761.22L1536.36,775.14L1536.36,789.07L1531.72,802.99L1531.72,816.92L1531.72,830.84L1531.72,835.48L1531.72,840.13" fill="none" stroke="#000000" style="-webkit-tap-highlight-color: rgba(0, 0, 0, 0); stroke-linecap: round; stroke-linejoin: round; stroke-width: 12;" /><path d="M1624.55,640.54L1624.55,631.25L1629.19,626.61L1633.84,621.97L1629.19,626.61L1619.91,631.25L1615.27,640.54L1605.99,659.1L1592.06,673.03L1582.78,696.24L1578.14,719.44L1568.85,742.65L1564.21,761.22L1559.57,779.78L1554.93,793.71L1550.29,802.99L1550.29,807.63" fill="none" stroke="#000000" style="-webkit-tap-highlight-color: rgba(0, 0, 0, 0); stroke-linecap: round; stroke-linejoin: round; stroke-width: 12;" /><path d="M143.89,468.8L134.61,468.8L134.61,473.44L125.32,487.37L125.32,496.65L120.68,505.93L120.68,515.22L120.68,524.5L120.68,533.78L120.68,547.71L120.68,556.99L120.68,566.27L120.68,575.56L120.68,584.84L120.68,598.76L120.68,608.05L125.32,621.97L125.32,631.25L129.96,645.18L129.96,659.1L129.96,673.03L129.96,686.95L129.96,700.88L134.61,710.16L134.61,719.44L129.96,724.09L129.96,728.73" fill="none" stroke="#000000" style="-webkit-tap-highlight-color: rgba(0, 0, 0, 0); stroke-linecap: round; stroke-linejoin: round; stroke-width: 12;" /><path d="M167.1,779.78L162.46,779.78L153.17,784.43L157.81,789.07L190.3,793.71L208.87,793.71L222.8,798.35L236.72,802.99L259.93,802.99L278.49,802.99L297.06,802.99L310.99,802.99L320.27,807.63L329.55,812.28L338.84,812.28L352.76,812.28L366.68,807.63L380.61,807.63L389.89,812.28L403.82,812.28L417.74,816.92L431.67,816.92L440.95,816.92L454.87,816.92L464.16,816.92L478.08,821.56L487.37,821.56L501.29,821.56L515.22,821.56L529.14,821.56L543.06,821.56L556.99,821.56L570.91,821.56L584.84,821.56L598.76,821.56L608.05,821.56L621.97,821.56L631.25,821.56L645.18,821.56L654.46,826.2L668.39,826.2L677.67,826.2L691.59,830.84L700.88,830.84L714.8,830.84L728.73,830.84L742.65,835.48L756.58,835.48L770.5,840.13L784.43,840.13L793.71,840.13L802.99,840.13" fill="none" stroke="#000000" style="-webkit-tap-highlight-color: rgba(0, 0, 0, 0); stroke-linecap: round; stroke-linejoin: round; stroke-width: 12;" /><path d="M162.46,802.99L167.1,802.99L171.74,802.99L176.38,802.99" fill="none" stroke="#000000" style="-webkit-tap-highlight-color: rgba(0, 0, 0, 0); stroke-linecap: round; stroke-linejoin: round; stroke-width: 12;" /><path d="M204.23,816.92L204.23,821.56L199.59,826.2L185.66,830.84L176.38,835.48L157.81,840.13L139.25,840.13L120.68,844.77L102.11,844.77L83.55,849.41L69.62,849.41L60.34,849.41L51.06,844.77L37.13,844.77L27.85,844.77L18.57,844.77L4.64,844.77" fill="none" stroke="#000000" style="-webkit-tap-highlight-color: rgba(0, 0, 0, 0); stroke-linecap: round; stroke-linejoin: round; stroke-width: 12;" /><path d="M0,844.77L9.28,844.77" fill="none" stroke="#000000" style="-webkit-tap-highlight-color: rgba(0, 0, 0, 0); stroke-linecap: round; stroke-linejoin: round; stroke-width: 12;" /><path d="M324.91,830.84L324.91,821.56L329.55,821.56L334.19,830.84L338.84,840.13L343.48,849.41L348.12,858.69L352.76,867.97L357.4,877.26L362.04,891.18L366.68,900.47L371.33,909.75L375.97,923.67L385.25,928.32L394.53,937.6L403.82,942.24L413.1,946.88L417.74,951.52L427.03,960.81L436.31,965.45L440.95,970.09L445.59,974.73L450.23,974.73L454.87,979.37L459.52,988.66L459.52,993.3L459.52,1002.58L459.52,1011.86L459.52,1021.15L459.52,1039.71L459.52,1053.64L459.52,1062.92L459.52,1067.56L459.52,1072.2L454.87,1076.85" fill="none" stroke="#000000" style="-webkit-tap-highlight-color: rgba(0, 0, 0, 0); stroke-linecap: round; stroke-linejoin: round; stroke-width: 12;" /><path d="M775.14,854.05L775.14,849.41L775.14,854.05L775.14,858.69L775.14,863.33L770.5,863.33L765.86,867.97L761.22,872.62L761.22,877.26L756.58,886.54L756.58,891.18L751.94,895.82L747.29,900.47L747.29,905.11L742.65,909.75L738.01,919.03L738.01,923.67L733.37,928.32L733.37,932.96L728.73,937.6L724.09,946.88L719.44,956.16L714.8,965.45L714.8,970.09L710.16,979.37L710.16,988.66L705.52,993.3L700.88,1002.58L700.88,1007.22L696.24,1011.86L691.59,1021.15L691.59,1039.71L686.95,1044.35L686.95,1049L682.31,1053.64L677.67,1058.28L677.67,1062.92L673.03,1067.56L668.39,1076.85L668.39,1081.49L668.39,1090.77L663.75,1100.05L663.75,1109.34L659.1,1113.98L654.46,1118.62L649.82,1127.9L645.18,1132.54L640.54,1141.83L635.9,1151.11L631.25,1155.75L626.61,1165.04L626.61,1174.32L621.97,1183.6L621.97,1192.89L617.33,1206.81L612.69,1216.09L612.69,1225.38L608.05,1234.66L608.05,1239.3L603.41,1243.94L608.05,1239.3" fill="none" stroke="#000000" style="-webkit-tap-highlight-color: rgba(0, 0, 0, 0); stroke-linecap: round; stroke-linejoin: round; stroke-width: 12;" /><path d="M812.28,849.41L812.28,844.77L816.92,840.13L812.28,844.77L802.99,858.69L798.35,867.97L793.71,881.9L789.07,895.82L784.43,905.11L779.78,919.03L775.14,928.32L765.86,937.6L761.22,946.88L756.58,956.16L751.94,965.45L751.94,974.73L747.29,979.37L742.65,984.01L738.01,993.3L733.37,1002.58L728.73,1011.86L724.09,1021.15L724.09,1025.79L719.44,1035.07L719.44,1039.71L714.8,1049L710.16,1058.28L710.16,1062.92L705.52,1072.2L700.88,1081.49L696.24,1090.77L691.59,1100.05L686.95,1109.34L686.95,1113.98L682.31,1123.26L677.67,1127.9L677.67,1137.19L673.03,1141.83L673.03,1151.11L668.39,1155.75L668.39,1160.39L663.75,1169.68L663.75,1174.32L659.1,1178.96L654.46,1188.24L649.82,1192.89L645.18,1202.17L645.18,1211.45L640.54,1220.73L640.54,1225.38L640.54,1230.02L640.54,1234.66L635.9,1234.66L635.9,1239.3L631.25,1248.58L626.61,1248.58L635.9,1243.94" fill="none" stroke="#000000" style="-webkit-tap-highlight-color: rgba(0, 0, 0, 0); stroke-linecap: round; stroke-linejoin: round; stroke-width: 12;" /><path d="M835.48,844.77L835.48,849.41L830.84,854.05L826.2,858.69L821.56,867.97L816.92,877.26L812.28,886.54L802.99,895.82L798.35,909.75L793.71,919.03L789.07,928.32L784.43,937.6L784.43,951.52L779.78,960.81L775.14,970.09L775.14,979.37L770.5,988.66L765.86,997.94L761.22,1007.22L761.22,1021.15L756.58,1030.43L751.94,1039.71L747.29,1044.35L747.29,1053.64L742.65,1062.92L742.65,1072.2L738.01,1076.85L738.01,1081.49L738.01,1086.13L733.37,1095.41L728.73,1104.7L728.73,1113.98L724.09,1118.62L724.09,1127.9L719.44,1137.19L714.8,1141.83L710.16,1151.11L705.52,1160.39L700.88,1165.04L696.24,1174.32L691.59,1178.96L686.95,1188.24L686.95,1192.89L682.31,1202.17L682.31,1206.81L677.67,1216.09L673.03,1225.38L668.39,1234.66L668.39,1248.58L663.75,1253.23L663.75,1257.87L659.1,1257.87L654.46,1262.51L649.82,1271.79L645.18,1271.79L649.82,1271.79" fill="none" stroke="#000000" style="-webkit-tap-highlight-color: rgba(0, 0, 0, 0); stroke-linecap: round; stroke-linejoin: round; stroke-width: 12;" /><path d="M877.26,849.41L877.26,844.77L872.62,844.77L867.97,854.05L863.33,858.69L858.69,867.97L849.41,877.26L844.77,886.54L840.13,900.47L835.48,914.39L830.84,923.67L826.2,932.96L826.2,937.6L821.56,951.52L816.92,960.81L812.28,970.09L807.63,979.37L807.63,984.01L802.99,993.3L802.99,1002.58L798.35,1011.86L793.71,1021.15L789.07,1030.43L784.43,1039.71L784.43,1044.35L779.78,1053.64L779.78,1062.92L775.14,1067.56L775.14,1076.85L775.14,1081.49L770.5,1086.13L765.86,1095.41L761.22,1104.7L756.58,1113.98L751.94,1123.26L751.94,1132.54L747.29,1141.83L747.29,1146.47L747.29,1151.11L742.65,1155.75L742.65,1169.68L738.01,1178.96L733.37,1183.6L733.37,1192.89L733.37,1197.53L728.73,1202.17L724.09,1206.81L724.09,1216.09L719.44,1220.73L719.44,1225.38L719.44,1230.02L714.8,1239.3L710.16,1248.58L705.52,1257.87L700.88,1271.79L696.24,1281.08L696.24,1285.72L691.59,1290.36L700.88,1281.08" fill="none" stroke="#000000" style="-webkit-tap-highlight-color: rgba(0, 0, 0, 0); stroke-linecap: round; stroke-linejoin: round; stroke-width: 12;" /><path d="M905.11,863.33L905.11,858.69L905.11,854.05L905.11,858.69L900.47,863.33L900.47,867.97L895.82,872.62L886.54,881.9L881.9,891.18L872.62,905.11L867.97,919.03L867.97,928.32L863.33,937.6L858.69,946.88L854.05,956.16L854.05,965.45L849.41,974.73L849.41,984.01L849.41,988.66L849.41,997.94L844.77,1007.22L840.13,1016.51L835.48,1025.79L830.84,1035.07L826.2,1044.35L826.2,1053.64L821.56,1062.92L821.56,1072.2L816.92,1081.49L812.28,1090.77L807.63,1100.05L802.99,1109.34L798.35,1118.62L793.71,1127.9L789.07,1132.54L784.43,1141.83L779.78,1155.75L775.14,1165.04L775.14,1169.68L770.5,1178.96L770.5,1183.6L765.86,1192.89L765.86,1202.17L761.22,1206.81L756.58,1216.09L751.94,1220.73L751.94,1230.02L747.29,1239.3L747.29,1243.94L742.65,1248.58L742.65,1257.87L738.01,1267.15L733.37,1281.08L728.73,1290.36L728.73,1295L724.09,1299.64L724.09,1304.28L728.73,1295" fill="none" stroke="#000000" style="-webkit-tap-highlight-color: rgba(0, 0, 0, 0); stroke-linecap: round; stroke-linejoin: round; stroke-width: 12;" /><path d="M946.88,872.62L946.88,867.97L937.6,872.62L923.67,886.54L919.03,891.18L914.39,900.47L914.39,905.11L914.39,909.75L914.39,914.39L914.39,919.03L909.75,923.67L905.11,932.96L905.11,946.88L900.47,951.52L895.82,960.81L891.18,965.45L886.54,974.73L881.9,984.01L881.9,993.3L881.9,997.94L881.9,1002.58L877.26,1011.86L877.26,1021.15L877.26,1030.43L872.62,1044.35L867.97,1053.64L867.97,1058.28L858.69,1067.56L854.05,1076.85L849.41,1086.13L849.41,1090.77L849.41,1095.41L849.41,1100.05L849.41,1104.7L844.77,1109.34L840.13,1113.98L835.48,1123.26L830.84,1132.54L826.2,1141.83L826.2,1151.11L826.2,1155.75L821.56,1160.39L821.56,1165.04L821.56,1169.68L816.92,1178.96L812.28,1183.6L807.63,1192.89L802.99,1197.53L798.35,1206.81L793.71,1216.09L789.07,1220.73L789.07,1225.38L789.07,1230.02L789.07,1234.66L789.07,1239.3L789.07,1248.58L779.78,1257.87L775.14,1271.79L770.5,1285.72L765.86,1290.36L765.86,1299.64L751.94,1308.92L751.94,1313.57L751.94,1308.92" fill="none" stroke="#000000" style="-webkit-tap-highlight-color: rgba(0, 0, 0, 0); stroke-linecap: round; stroke-linejoin: round; stroke-width: 12;" /><path d="M1002.58,867.97L997.94,867.97L993.3,867.97L988.66,872.62L979.37,877.26L974.73,881.9L965.45,886.54L960.81,891.18L956.16,895.82L956.16,905.11L956.16,909.75L956.16,919.03L951.52,923.67L951.52,928.32L946.88,937.6L942.24,946.88L937.6,951.52L937.6,956.16L932.96,960.81L928.32,965.45L923.67,970.09L923.67,979.37L923.67,984.01L919.03,997.94L914.39,1007.22L909.75,1021.15L905.11,1035.07L905.11,1044.35L900.47,1049L900.47,1053.64L900.47,1058.28L900.47,1062.92L900.47,1067.56L895.82,1072.2L891.18,1081.49L881.9,1095.41L877.26,1104.7L872.62,1109.34L872.62,1113.98L872.62,1118.62L872.62,1123.26L867.97,1132.54L863.33,1141.83L858.69,1151.11L854.05,1160.39L854.05,1165.04L849.41,1174.32L849.41,1178.96L849.41,1183.6L844.77,1192.89L840.13,1197.53L835.48,1206.81L835.48,1216.09L835.48,1220.73L830.84,1225.38L830.84,1234.66L826.2,1239.3L826.2,1243.94L821.56,1248.58L821.56,1253.23L816.92,1262.51L816.92,1271.79L812.28,1281.08L812.28,1285.72L807.63,1290.36L807.63,1295L802.99,1304.28L793.71,1313.57L793.71,1322.85L789.07,1327.49L789.07,1332.13" fill="none" stroke="#000000" style="-webkit-tap-highlight-color: rgba(0, 0, 0, 0); stroke-linecap: round; stroke-linejoin: round; stroke-width: 12;" /><path d="M1030.43,867.97L1025.79,867.97L1025.79,872.62L1021.15,877.26L1011.86,886.54L1002.58,891.18L997.94,900.47L988.66,905.11L988.66,914.39L984.01,928.32L984.01,932.96L984.01,937.6L984.01,946.88L979.37,956.16L974.73,965.45L965.45,979.37L960.81,993.3L956.16,1002.58L951.52,1011.86L946.88,1021.15L942.24,1035.07L937.6,1044.35L937.6,1053.64L932.96,1062.92L928.32,1076.85L923.67,1090.77L914.39,1109.34L905.11,1127.9L900.47,1146.47L895.82,1160.39L891.18,1174.32L886.54,1188.24L881.9,1197.53L881.9,1202.17L877.26,1211.45L872.62,1220.73L867.97,1230.02L863.33,1239.3L858.69,1248.58L858.69,1257.87L854.05,1267.15L849.41,1281.08L844.77,1290.36L844.77,1304.28L840.13,1313.57L840.13,1322.85L835.48,1332.13L830.84,1341.42L835.48,1322.85" fill="none" stroke="#000000" style="-webkit-tap-highlight-color: rgba(0, 0, 0, 0); stroke-linecap: round; stroke-linejoin: round; stroke-width: 12;" /><path d="M1072.2,863.33L1067.56,867.97L1067.56,872.62L1067.56,877.26L1062.92,881.9L1058.28,891.18L1053.64,895.82L1049,905.11L1049,909.75L1049,919.03L1039.71,937.6L1039.71,946.88L1039.71,960.81L1035.07,970.09L1035.07,979.37L1035.07,988.66L1035.07,997.94L1035.07,1011.86L1035.07,1021.15L1030.43,1030.43L1030.43,1039.71L1030.43,1049L1030.43,1058.28L1030.43,1067.56L1030.43,1076.85L1030.43,1086.13L1025.79,1095.41L1025.79,1104.7L1025.79,1109.34L1025.79,1118.62L1025.79,1123.26L1025.79,1132.54L1025.79,1137.19L1025.79,1146.47L1025.79,1151.11L1025.79,1155.75L1025.79,1160.39L1025.79,1165.04L1025.79,1169.68L1021.15,1174.32L1016.51,1178.96L1011.86,1183.6L1007.22,1188.24L1002.58,1192.89L997.94,1202.17L993.3,1206.81L984.01,1211.45L979.37,1216.09L974.73,1216.09L970.09,1220.73L965.45,1225.38L960.81,1230.02L956.16,1234.66L951.52,1239.3L951.52,1243.94L946.88,1248.58L946.88,1253.23L942.24,1257.87L937.6,1262.51L932.96,1267.15L928.32,1271.79L923.67,1276.43L919.03,1281.08L909.75,1285.72L905.11,1295L900.47,1299.64L895.82,1308.92L891.18,1313.57L886.54,1313.57L881.9,1318.21L872.62,1322.85L867.97,1322.85L863.33,1322.85" fill="none" stroke="#000000" style="-webkit-tap-highlight-color: rgba(0, 0, 0, 0); stroke-linecap: round; stroke-linejoin: round; stroke-width: 12;" /><path d="M807.63,849.41L798.35,844.77L798.35,840.13L798.35,835.48L802.99,840.13L807.63,844.77L812.28,849.41L821.56,849.41L826.2,854.05L835.48,858.69L844.77,858.69L849.41,863.33L858.69,863.33L872.62,863.33L881.9,863.33L891.18,863.33L900.47,863.33L905.11,867.97L914.39,867.97L923.67,867.97L932.96,867.97L942.24,867.97L951.52,867.97L960.81,867.97L970.09,867.97L979.37,867.97L988.66,867.97L993.3,867.97L1002.58,867.97L1011.86,867.97L1021.15,867.97L1025.79,867.97L1035.07,867.97L1039.71,867.97L1049,867.97L1053.64,867.97L1062.92,867.97L1067.56,872.62L1072.2,872.62L1081.49,872.62L1090.77,872.62L1100.05,872.62L1104.7,877.26L1113.98,877.26L1118.62,881.9L1123.26,881.9L1132.54,886.54L1137.19,886.54L1146.47,886.54L1155.75,891.18L1160.39,891.18L1169.68,895.82L1178.96,895.82L1188.24,895.82L1197.53,895.82L1216.09,895.82L1220.73,895.82" fill="none" stroke="#000000" style="-webkit-tap-highlight-color: rgba(0, 0, 0, 0); stroke-linecap: round; stroke-linejoin: round; stroke-width: 12;" /><path d="M1304.28,394.53L1304.28,399.18L1299.64,403.82L1299.64,413.1L1304.28,422.38L1304.28,431.67L1308.92,445.59L1313.57,454.87L1313.57,468.8L1318.21,478.08L1318.21,487.37L1318.21,496.65L1318.21,505.93L1318.21,510.57L1318.21,519.86L1318.21,529.14L1318.21,533.78L1318.21,543.06L1318.21,552.35L1318.21,561.63L1322.85,570.91L1322.85,580.2L1322.85,589.48L1327.49,598.76L1327.49,612.69L1327.49,626.61L1332.13,640.54L1336.77,659.1L1336.77,668.39L1341.42,682.31L1341.42,691.59L1346.06,700.88L1346.06,714.8L1346.06,724.09L1346.06,738.01L1346.06,751.94L1346.06,770.5L1346.06,784.43L1346.06,798.35L1346.06,812.28L1341.42,816.92L1341.42,807.63" fill="none" stroke="#000000" style="-webkit-tap-highlight-color: rgba(0, 0, 0, 0); stroke-linecap: round; stroke-linejoin: round; stroke-width: 12;" /><path d="M1239.3,515.22L1230.02,515.22L1230.02,519.86L1230.02,529.14L1234.66,543.06L1239.3,561.63L1243.94,580.2L1243.94,603.41L1243.94,621.97L1248.58,635.9L1248.58,649.82L1253.23,668.39L1253.23,682.31L1253.23,700.88L1248.58,714.8L1248.58,728.73L1243.94,738.01L1243.94,751.94L1243.94,765.86L1239.3,775.14L1239.3,789.07L1239.3,807.63L1239.3,821.56L1239.3,840.13L1239.3,858.69L1239.3,872.62L1239.3,886.54L1234.66,895.82L1234.66,900.47" fill="none" stroke="#000000" style="-webkit-tap-highlight-color: rgba(0, 0, 0, 0); stroke-linecap: round; stroke-linejoin: round; stroke-width: 12;" /><path d="M872.62,478.08L863.33,478.08L858.69,478.08L863.33,478.08L867.97,482.72L877.26,487.37L886.54,492.01L895.82,492.01L905.11,492.01L919.03,492.01L928.32,492.01L942.24,492.01L951.52,492.01L960.81,496.65L970.09,496.65L984.01,496.65L997.94,496.65L1035.07,496.65L1049,501.29L1058.28,501.29L1072.2,501.29L1086.13,496.65L1100.05,496.65L1109.34,496.65L1123.26,496.65L1132.54,496.65L1141.83,496.65L1151.11,501.29L1165.04,501.29L1178.96,505.93L1188.24,505.93L1202.17,510.57L1216.09,510.57L1225.38,510.57L1239.3,510.57L1253.23,505.93L1262.51,505.93L1267.15,505.93" fill="none" stroke="#000000" style="-webkit-tap-highlight-color: rgba(0, 0, 0, 0); stroke-linecap: round; stroke-linejoin: round; stroke-width: 12;" /><path d="M1921.61,492.01L1916.97,492.01L1912.33,478.08L1930.9,468.8L1958.75,473.44L1995.88,473.44L2014.44,473.44L2023.73,473.44L2033.01,478.08L2037.65,482.72L2051.58,487.37L2060.86,487.37L2079.43,487.37L2093.35,487.37L2107.28,487.37L2116.56,487.37L2130.48,487.37L2144.41,487.37L2153.69,492.01L2158.33,492.01" fill="none" stroke="#000000" style="-webkit-tap-highlight-color: rgba(0, 0, 0, 0); stroke-linecap: round; stroke-linejoin: round; stroke-width: 12;" /><path d="M1865.91,584.84L1861.27,580.2L1870.56,580.2L1884.48,580.2L1903.05,584.84L1926.25,580.2L1954.1,575.56L1981.95,570.91L2005.16,566.27L2019.09,566.27L2037.65,566.27L2051.58,566.27L2065.5,566.27L2079.43,566.27L2093.35,566.27L2102.63,566.27L2111.92,566.27L2125.84,561.63L2139.77,561.63L2153.69,556.99L2167.62,552.35L2181.54,547.71L2195.47,547.71L2204.75,547.71L2218.67,547.71L2232.6,547.71L2241.88,543.06L2251.16,543.06L2255.81,543.06" fill="none" stroke="#000000" style="-webkit-tap-highlight-color: rgba(0, 0, 0, 0); stroke-linecap: round; stroke-linejoin: round; stroke-width: 12;" /><path d="M1777.72,566.27L1768.44,566.27L1763.8,594.12L1763.8,626.61L1763.8,640.54L1759.16,654.46L1754.52,668.39L1749.87,677.67L1745.23,686.95L1740.59,696.24L1735.95,700.88L1726.67,700.88L1722.03,705.52L1712.74,710.16L1703.46,714.8L1694.18,724.09L1689.53,733.37L1684.89,747.29L1680.25,756.58L1675.61,770.5L1670.97,789.07L1666.33,802.99L1661.68,816.92L1661.68,835.48L1657.04,858.69L1652.4,872.62L1652.4,886.54L1647.76,895.82L1647.76,877.26L1652.4,872.62" fill="none" stroke="#000000" style="-webkit-tap-highlight-color: rgba(0, 0, 0, 0); stroke-linecap: round; stroke-linejoin: round; stroke-width: 12;" /><path d="M1684.89,877.26L1684.89,881.9L1689.53,881.9L1712.74,877.26L1735.95,867.97L1768.44,849.41L1782.37,835.48L1796.29,821.56L1800.93,812.28L1810.22,802.99L1819.5,793.71L1824.14,789.07L1833.42,784.43L1838.06,775.14L1847.35,770.5L1856.63,770.5L1861.27,765.86L1875.2,761.22L1884.48,756.58L1893.76,747.29L1907.69,738.01L1916.97,733.37L1926.25,728.73L1935.54,724.09L1949.46,719.44L1963.39,714.8L1972.67,710.16L1986.59,705.52L2005.16,700.88L2019.09,696.24L2037.65,682.31L2060.86,673.03L2079.43,659.1L2093.35,645.18L2102.63,645.18L2107.28,645.18" fill="none" stroke="#000000" style="-webkit-tap-highlight-color: rgba(0, 0, 0, 0); stroke-linecap: round; stroke-linejoin: round; stroke-width: 12;" /><path d="M1267.15,1086.13L1262.51,1086.13L1257.87,1086.13L1248.58,1086.13L1257.87,1086.13L1267.15,1086.13L1285.72,1081.49L1308.92,1076.85L1332.13,1067.56L1355.34,1062.92L1373.91,1058.28L1397.11,1058.28L1415.68,1058.28L1434.25,1058.28L1457.46,1053.64L1471.38,1049L1489.95,1044.35L1503.87,1044.35L1517.8,1039.71L1527.08,1039.71L1541,1035.07L1554.93,1030.43L1564.21,1025.79L1573.49,1021.15L1578.14,1025.79" fill="none" stroke="#000000" style="-webkit-tap-highlight-color: rgba(0, 0, 0, 0); stroke-linecap: round; stroke-linejoin: round; stroke-width: 12;" /><path d="M1234.66,1081.49L1230.02,1081.49L1230.02,1086.13L1230.02,1090.77L1230.02,1100.05L1225.38,1113.98L1225.38,1127.9L1220.73,1141.83L1220.73,1155.75L1220.73,1174.32L1220.73,1188.24L1220.73,1202.17L1220.73,1220.73L1220.73,1230.02L1220.73,1239.3L1220.73,1243.94L1220.73,1248.58" fill="none" stroke="#000000" style="-webkit-tap-highlight-color: rgba(0, 0, 0, 0); stroke-linecap: round; stroke-linejoin: round; stroke-width: 12;" /><path d="M1411.04,1281.08L1411.04,1276.43L1411.04,1281.08L1406.4,1313.57L1406.4,1327.49L1406.4,1341.42L1411.04,1355.34L1415.68,1369.27L1420.32,1378.55L1424.96,1392.47L1424.96,1401.76L1429.61,1415.68L1434.25,1424.96L1434.25,1434.25L1438.89,1443.53L1438.89,1457.46L1438.89,1471.38L1438.89,1485.3L1438.89,1494.59L1438.89,1503.87L1443.53,1508.51" fill="none" stroke="#000000" style="-webkit-tap-highlight-color: rgba(0, 0, 0, 0); stroke-linecap: round; stroke-linejoin: round; stroke-width: 12;" /><path d="M919.03,1327.49L919.03,1322.85L919.03,1318.21L919.03,1313.57L919.03,1308.92L914.39,1308.92L914.39,1313.57L909.75,1318.21L909.75,1322.85L905.11,1332.13L900.47,1346.06L900.47,1359.98L900.47,1378.55L900.47,1401.76L905.11,1420.32L909.75,1434.25L914.39,1448.17L914.39,1452.81L914.39,1462.1L914.39,1466.74" fill="none" stroke="#000000" style="-webkit-tap-highlight-color: rgba(0, 0, 0, 0); stroke-linecap: round; stroke-linejoin: round; stroke-width: 12;" /><path d="M1415.68,1285.72L1424.96,1281.08L1434.25,1281.08L1443.53,1276.43L1457.46,1276.43L1471.38,1276.43L1489.95,1276.43L1508.51,1276.43L1531.72,1276.43L1554.93,1276.43L1573.49,1276.43L1592.06,1276.43L1610.63,1276.43L1633.84,1276.43L1657.04,1276.43L1675.61,1276.43L1694.18,1281.08L1708.1,1285.72L1726.67,1285.72L1749.87,1285.72L1773.08,1285.72L1796.29,1285.72L1814.86,1285.72L1833.42,1285.72L1847.35,1285.72L1865.91,1285.72L1879.84,1285.72L1898.41,1285.72L1912.33,1285.72L1926.25,1285.72L1940.18,1285.72L1954.1,1285.72L1963.39,1285.72L1972.67,1281.08L1986.59,1281.08L2000.52,1281.08L2009.8,1285.72L2019.09,1285.72L2023.73,1285.72L2033.01,1285.72L2037.65,1285.72L2042.29,1290.36L2046.94,1295L2051.58,1304.28L2056.22,1313.57L2056.22,1322.85L2060.86,1327.49L2065.5,1332.13L2074.78,1341.42L2079.43,1346.06L2079.43,1350.7L2074.78,1355.34L2070.14,1364.62L2070.14,1369.27L2065.5,1373.91L2065.5,1378.55L2065.5,1383.19L2065.5,1392.47L2060.86,1397.11L2056.22,1411.04L2051.58,1424.96L2046.94,1438.89L2042.29,1448.17L2037.65,1457.46L2037.65,1466.74L2033.01,1476.02L2028.37,1494.59L2023.73,1508.51" fill="none" stroke="#000000" style="-webkit-tap-highlight-color: rgba(0, 0, 0, 0); stroke-linecap: round; stroke-linejoin: round; stroke-width: 12;" /><path d="M617.33,1253.23L612.69,1253.23L608.05,1248.58L608.05,1243.94L612.69,1248.58L621.97,1248.58L626.61,1248.58L631.25,1248.58" fill="none" stroke="#000000" style="-webkit-tap-highlight-color: rgba(0, 0, 0, 0); stroke-linecap: round; stroke-linejoin: round; stroke-width: 12;" /><path d="M659.1,1267.15L654.46,1262.51L654.46,1257.87L654.46,1262.51L659.1,1267.15L668.39,1271.79L677.67,1271.79L682.31,1276.43L691.59,1276.43L696.24,1281.08L700.88,1285.72" fill="none" stroke="#000000" style="-webkit-tap-highlight-color: rgba(0, 0, 0, 0); stroke-linecap: round; stroke-linejoin: round; stroke-width: 12;" /><path d="M728.73,1299.64L724.09,1295L728.73,1295L733.37,1299.64L738.01,1304.28L747.29,1304.28L756.58,1308.92L770.5,1313.57" fill="none" stroke="#000000" style="-webkit-tap-highlight-color: rgba(0, 0, 0, 0); stroke-linecap: round; stroke-linejoin: round; stroke-width: 12;" /><path d="M798.35,1332.13L793.71,1332.13L793.71,1327.49L802.99,1332.13L812.28,1332.13L821.56,1336.77L830.84,1336.77L840.13,1341.42" fill="none" stroke="#000000" style="-webkit-tap-highlight-color: rgba(0, 0, 0, 0); stroke-linecap: round; stroke-linejoin: round; stroke-width: 12;" /><path d="M9.28,1127.9L4.64,1127.9L13.92,1132.54L27.85,1132.54L51.06,1127.9L74.27,1127.9L97.47,1123.26L116.04,1123.26L129.96,1123.26L153.17,1123.26L171.74,1123.26L213.51,1123.26L227.44,1118.62L246,1113.98L259.93,1113.98L273.85,1113.98L287.78,1113.98L301.7,1109.34L315.63,1109.34L329.55,1104.7L338.84,1104.7L348.12,1100.05L357.4,1100.05L371.33,1100.05L385.25,1095.41L399.18,1095.41L413.1,1090.77L422.38,1090.77L436.31,1086.13L445.59,1076.85L454.87,1072.2L464.16,1067.56L473.44,1067.56L478.08,1062.92L482.72,1062.92" fill="none" stroke="#000000" style="-webkit-tap-highlight-color: rgba(0, 0, 0, 0); stroke-linecap: round; stroke-linejoin: round; stroke-width: 12;" /><path d="M473.44,1086.13L468.8,1081.49L459.52,1076.85L454.87,1072.2L454.87,1067.56L459.52,1067.56L473.44,1067.56L487.37,1067.56L501.29,1067.56L515.22,1072.2L529.14,1076.85L543.06,1076.85L552.35,1081.49L561.63,1081.49L570.91,1081.49L580.2,1081.49L589.48,1086.13L598.76,1086.13L608.05,1090.77L617.33,1090.77L631.25,1095.41L645.18,1100.05L659.1,1100.05L663.75,1104.7L668.39,1109.34" fill="none" stroke="#000000" style="-webkit-tap-highlight-color: rgba(0, 0, 0, 0); stroke-linecap: round; stroke-linejoin: round; stroke-width: 12;" /><path d="M1049,1169.68L1039.71,1165.04L1035.07,1160.39L1039.71,1160.39L1049,1165.04L1058.28,1169.68L1076.85,1178.96L1095.41,1188.24L1113.98,1192.89L1132.54,1202.17L1151.11,1206.81L1174.32,1211.45L1197.53,1211.45L1216.09,1206.81L1234.66,1206.81L1248.58,1206.81" fill="none" stroke="#000000" style="-webkit-tap-highlight-color: rgba(0, 0, 0, 0); stroke-linecap: round; stroke-linejoin: round; stroke-width: 12;" /><path d="M13.92,1002.58L13.92,997.94L18.57,1002.58L27.85,1002.58L41.77,1002.58L60.34,1002.58L78.91,1002.58L97.47,1002.58L116.04,1002.58L139.25,1002.58L162.46,997.94L194.95,984.01L218.15,970.09L241.36,956.16L264.57,946.88L287.78,932.96L297.06,932.96" fill="none" stroke="#000000" style="-webkit-tap-highlight-color: rgba(0, 0, 0, 0); stroke-linecap: round; stroke-linejoin: round; stroke-width: 12;" /><path d="M2102.63,422.38L2097.99,422.38L2088.71,422.38L2079.43,422.38L2074.78,417.74L2079.43,413.1L2088.71,413.1L2107.28,413.1L2125.84,408.46L2144.41,408.46L2162.97,408.46L2176.9,408.46L2190.82,408.46L2204.75,408.46L2218.67,408.46L2227.96,408.46L2237.24,408.46L2246.52,408.46L2255.81,403.82L2269.73,403.82L2279.01,403.82L2288.3,403.82L2292.94,403.82L2302.22,403.82L2311.51,408.46L2320.79,408.46L2330.07,408.46L2334.71,413.1L2339.35,417.74L2344,422.38L2353.28,427.03L2362.56,427.03L2367.2,431.67L2376.49,436.31L2381.13,440.95L2385.77,445.59L2385.77,450.23L2390.41,454.87L2395.05,459.52L2399.7,464.16L2404.34,468.8L2404.34,473.44L2408.98,482.72L2413.62,492.01L2418.26,496.65L2422.9,505.93L2432.19,515.22L2441.47,524.5L2450.75,529.14" fill="none" stroke="#000000" style="-webkit-tap-highlight-color: rgba(0, 0, 0, 0); stroke-linecap: round; stroke-linejoin: round; stroke-width: 12;" /><path d="M2446.11,436.31L2436.83,436.31L2427.54,436.31L2422.9,436.31L2422.9,431.67L2432.19,427.03L2441.47,422.38L2455.39,417.74L2469.32,413.1L2483.24,408.46L2501.81,408.46L2520.38,408.46L2534.3,408.46L2548.23,408.46L2557.51,413.1L2566.79,417.74L2580.72,422.38L2590,422.38" fill="none" stroke="#000000" style="-webkit-tap-highlight-color: rgba(0, 0, 0, 0); stroke-linecap: round; stroke-linejoin: round; stroke-width: 12;" /><path d="M2460.04,538.42L2450.75,538.42L2450.75,533.78L2469.32,533.78L2487.89,538.42L2506.45,538.42L2525.02,533.78L2543.58,524.5L2557.51,519.86L2566.79,515.22L2571.43,510.57L2576.08,510.57" fill="none" stroke="#000000" style="-webkit-tap-highlight-color: rgba(0, 0, 0, 0); stroke-linecap: round; stroke-linejoin: round; stroke-width: 12;" /><path d="M2436.83,538.42L2432.19,538.42L2427.54,538.42L2422.9,538.42L2418.26,543.06L2413.62,543.06L2404.34,547.71L2395.05,552.35L2390.41,552.35L2381.13,556.99L2371.85,561.63L2362.56,566.27L2353.28,570.91L2348.64,575.56L2344,575.56L2339.35,575.56L2334.71,575.56L2330.07,575.56L2320.79,575.56L2306.86,580.2L2297.58,580.2L2283.66,580.2L2265.09,580.2L2255.81,580.2L2246.52,580.2L2241.88,575.56L2246.52,575.56" fill="none" stroke="#000000" style="-webkit-tap-highlight-color: rgba(0, 0, 0, 0); stroke-linecap: round; stroke-linejoin: round; stroke-width: 12;" /><path d="M1898.41,751.94L1879.84,751.94L1870.56,751.94L1865.91,756.58L1870.56,756.58L1875.2,761.22L1879.84,765.86L1884.48,770.5L1889.12,775.14L1893.76,779.78L1903.05,784.43L1912.33,784.43L1916.97,789.07L1921.61,793.71L1921.61,802.99L1921.61,807.63L1926.25,812.28L1926.25,821.56L1930.9,826.2L1935.54,835.48L1940.18,849.41L1944.82,863.33L1954.1,877.26L1958.75,891.18L1963.39,905.11L1968.03,914.39L1977.31,923.67" fill="none" stroke="#000000" style="-webkit-tap-highlight-color: rgba(0, 0, 0, 0); stroke-linecap: round; stroke-linejoin: round; stroke-width: 12;" /><path d="M1684.89,970.09L1680.25,965.45L1680.25,956.16L1680.25,951.52L1684.89,951.52L1694.18,956.16L1703.46,956.16L1722.03,951.52L1740.59,946.88L1754.52,946.88L1763.8,951.52L1773.08,956.16L1787.01,956.16L1800.93,956.16L1810.22,956.16L1819.5,956.16L1833.42,960.81L1842.71,965.45L1851.99,970.09L1861.27,974.73L1875.2,979.37L1889.12,979.37L1898.41,984.01L1912.33,988.66L1921.61,993.3L1926.25,997.94L1935.54,1002.58L1944.82,1007.22L1954.1,1011.86L1963.39,1011.86L1977.31,1011.86L1981.95,1016.51L1991.24,1016.51L1995.88,1021.15L2005.16,1025.79L2009.8,1025.79L2019.09,1030.43L2023.73,1030.43L2033.01,1030.43L2042.29,1035.07L2056.22,1039.71L2060.86,1044.35L2070.14,1049L2074.78,1053.64L2084.07,1058.28L2093.35,1062.92L2097.99,1067.56L2107.28,1067.56L2116.56,1072.2L2121.2,1076.85L2130.48,1081.49L2144.41,1086.13L2153.69,1090.77L2158.33,1090.77" fill="none" stroke="#000000" style="-webkit-tap-highlight-color: rgba(0, 0, 0, 0); stroke-linecap: round; stroke-linejoin: round; stroke-width: 12;" /><path d="M2116.56,1053.64L2111.92,1058.28L2107.28,1062.92L2111.92,1062.92L2116.56,1058.28L2125.84,1049L2130.48,1044.35L2139.77,1035.07L2153.69,1021.15L2172.26,1002.58L2190.82,988.66L2200.11,979.37L2209.39,974.73L2218.67,965.45L2232.6,960.81L2241.88,951.52L2251.16,951.52L2260.45,946.88L2269.73,946.88L2283.66,946.88L2292.94,942.24L2311.51,937.6L2320.79,932.96L2325.43,932.96L2334.71,932.96L2348.64,928.32L2362.56,928.32L2376.49,923.67L2395.05,923.67L2408.98,919.03L2427.54,905.11L2450.75,895.82L2460.04,891.18" fill="none" stroke="#000000" style="-webkit-tap-highlight-color: rgba(0, 0, 0, 0); stroke-linecap: round; stroke-linejoin: round; stroke-width: 12;" /><path d="M1981.95,914.39L1968.03,909.75L1968.03,905.11L1977.31,905.11L1991.24,900.47L2005.16,895.82L2023.73,891.18L2042.29,886.54L2060.86,881.9L2079.43,877.26L2093.35,877.26L2097.99,877.26L2107.28,881.9L2111.92,886.54L2116.56,891.18L2125.84,895.82L2139.77,900.47L2158.33,905.11L2172.26,909.75L2190.82,914.39L2204.75,919.03L2223.32,923.67L2241.88,928.32" fill="none" stroke="#000000" style="-webkit-tap-highlight-color: rgba(0, 0, 0, 0); stroke-linecap: round; stroke-linejoin: round; stroke-width: 12;" /><path d="M2125.84,1062.92L2125.84,1058.28L2121.2,1058.28L2121.2,1067.56L2116.56,1086.13L2121.2,1100.05L2121.2,1113.98L2121.2,1123.26L2116.56,1132.54L2111.92,1141.83L2111.92,1151.11L2107.28,1160.39L2102.63,1169.68L2097.99,1183.6L2093.35,1192.89L2093.35,1202.17L2088.71,1211.45L2084.07,1220.73L2084.07,1225.38L2084.07,1230.02L2084.07,1234.66L2088.71,1234.66L2093.35,1234.66L2102.63,1234.66L2111.92,1234.66L2125.84,1230.02L2144.41,1230.02L2158.33,1230.02L2176.9,1230.02L2190.82,1230.02L2204.75,1230.02L2218.67,1234.66L2227.96,1239.3L2241.88,1239.3L2251.16,1243.94L2265.09,1248.58L2279.01,1253.23L2292.94,1257.87L2306.86,1262.51L2320.79,1262.51L2339.35,1262.51L2353.28,1262.51L2371.85,1257.87L2376.49,1257.87" fill="none" stroke="#000000" style="-webkit-tap-highlight-color: rgba(0, 0, 0, 0); stroke-linecap: round; stroke-linejoin: round; stroke-width: 12;" /><path d="M2371.85,1253.23L2367.2,1248.58L2367.2,1243.94L2362.56,1243.94L2357.92,1253.23L2357.92,1267.15L2353.28,1281.08L2353.28,1295L2353.28,1313.57L2353.28,1327.49L2353.28,1336.77L2353.28,1350.7L2362.56,1364.62L2367.2,1378.55L2371.85,1392.47L2376.49,1411.04L2381.13,1429.61L2390.41,1448.17L2399.7,1462.1L2408.98,1480.66L2413.62,1485.3" fill="none" stroke="#000000" style="-webkit-tap-highlight-color: rgba(0, 0, 0, 0); stroke-linecap: round; stroke-linejoin: round; stroke-width: 12;" /><path d="M1629.19,1021.15L1629.19,1016.51L1629.19,1021.15L1619.91,1030.43L1615.27,1039.71L1601.34,1044.35L1587.42,1058.28L1573.49,1067.56L1559.57,1076.85L1545.65,1086.13L1536.36,1100.05L1522.44,1109.34L1513.15,1118.62L1499.23,1127.9L1489.95,1132.54L1476.02,1137.19L1466.74,1141.83L1452.81,1151.11L1443.53,1155.75L1429.61,1160.39L1420.32,1165.04L1411.04,1174.32L1401.76,1174.32L1392.47,1183.6L1378.55,1188.24L1369.27,1192.89L1355.34,1202.17L1341.42,1206.81L1327.49,1211.45L1313.57,1220.73L1295,1234.66L1276.43,1248.58L1262.51,1257.87L1248.58,1267.15L1239.3,1267.15L1234.66,1271.79L1234.66,1267.15" fill="none" stroke="#000000" style="-webkit-tap-highlight-color: rgba(0, 0, 0, 0); stroke-linecap: round; stroke-linejoin: round; stroke-width: 12;" /><path d="M946.88,1313.57L937.6,1308.92L937.6,1304.28L937.6,1299.64L942.24,1299.64L956.16,1299.64L970.09,1299.64L988.66,1295L1007.22,1295L1021.15,1299.64L1039.71,1299.64L1053.64,1304.28L1072.2,1304.28L1086.13,1308.92L1104.7,1308.92L1118.62,1313.57L1132.54,1318.21L1151.11,1322.85L1165.04,1327.49L1183.6,1327.49L1202.17,1327.49L1216.09,1332.13L1230.02,1332.13L1243.94,1332.13L1262.51,1332.13L1281.08,1327.49L1299.64,1322.85L1322.85,1318.21L1341.42,1308.92L1355.34,1304.28L1364.62,1304.28" fill="none" stroke="#000000" style="-webkit-tap-highlight-color: rgba(0, 0, 0, 0); stroke-linecap: round; stroke-linejoin: round; stroke-width: 12;" /><path d="M1248.58,900.47L1243.94,900.47L1248.58,895.82L1257.87,891.18L1267.15,881.9L1285.72,872.62L1299.64,867.97L1308.92,858.69L1318.21,854.05L1327.49,854.05L1341.42,854.05L1355.34,849.41L1369.27,849.41L1383.19,844.77L1401.76,844.77L1415.68,840.13L1434.25,840.13L1448.17,835.48L1462.1,835.48L1480.66,835.48L1499.23,830.84L1513.15,826.2" fill="none" stroke="#000000" style="-webkit-tap-highlight-color: rgba(0, 0, 0, 0); stroke-linecap: round; stroke-linejoin: round; stroke-width: 12;" /><path d="M1327.49,547.71L1322.85,547.71L1322.85,543.06L1327.49,543.06L1336.77,543.06L1341.42,547.71L1350.7,547.71L1359.98,552.35L1369.27,556.99L1373.91,561.63L1383.19,566.27L1387.83,566.27L1392.47,566.27L1392.47,570.91L1397.11,580.2L1401.76,584.84L1401.76,589.48L1406.4,594.12L1411.04,598.76L1415.68,608.05L1420.32,612.69L1424.96,621.97L1424.96,626.61L1429.61,635.9L1434.25,640.54L1443.53,649.82L1448.17,654.46L1457.46,663.75L1462.1,668.39L1471.38,677.67L1480.66,686.95L1494.59,696.24L1508.51,700.88L1522.44,705.52L1536.36,710.16L1545.65,714.8L1545.65,719.44" fill="none" stroke="#000000" style="-webkit-tap-highlight-color: rgba(0, 0, 0, 0); stroke-linecap: round; stroke-linejoin: round; stroke-width: 12;" /><path d="M324.91,473.44L320.27,473.44L315.63,473.44L320.27,473.44L329.55,473.44L334.19,473.44L338.84,468.8L348.12,468.8L352.76,464.16L362.04,464.16L371.33,459.52L380.61,454.87L385.25,454.87L389.89,454.87L394.53,450.23L399.18,445.59L403.82,445.59L408.46,440.95L413.1,440.95L417.74,440.95L417.74,436.31L422.38,436.31L427.03,436.31L431.67,436.31L431.67,440.95L436.31,445.59L436.31,454.87L436.31,459.52L440.95,468.8L440.95,478.08L440.95,487.37L445.59,496.65L450.23,501.29" fill="none" stroke="#000000" style="-webkit-tap-highlight-color: rgba(0, 0, 0, 0); stroke-linecap: round; stroke-linejoin: round; stroke-width: 12;" /><path d="M570.91,413.1L570.91,408.46L570.91,403.82L566.27,403.82L566.27,408.46L566.27,413.1L566.27,422.38L566.27,436.31L566.27,450.23L570.91,464.16L575.56,473.44L575.56,478.08L575.56,482.72" fill="none" stroke="#000000" style="-webkit-tap-highlight-color: rgba(0, 0, 0, 0); stroke-linecap: round; stroke-linejoin: round; stroke-width: 12;" /><path d="M566.27,403.82L561.63,399.18L556.99,399.18L566.27,399.18L575.56,394.53L584.84,394.53L594.12,389.89L598.76,389.89L603.41,389.89L608.05,389.89L617.33,389.89L621.97,394.53L635.9,394.53L640.54,399.18L645.18,399.18L649.82,399.18L654.46,399.18L659.1,403.82L663.75,403.82L668.39,403.82L668.39,408.46L673.03,413.1L677.67,417.74L677.67,427.03L682.31,431.67L686.95,436.31L686.95,445.59L691.59,454.87L696.24,464.16L700.88,473.44L705.52,482.72L710.16,487.37" fill="none" stroke="#000000" style="-webkit-tap-highlight-color: rgba(0, 0, 0, 0); stroke-linecap: round; stroke-linejoin: round; stroke-width: 12;" /><path d="M1049,450.23L1049,445.59L1049,440.95L1049,436.31L1053.64,436.31L1053.64,445.59L1058.28,454.87L1058.28,464.16L1058.28,473.44L1062.92,482.72L1062.92,492.01L1062.92,505.93L1062.92,515.22L1062.92,524.5L1062.92,533.78L1058.28,543.06L1058.28,556.99L1058.28,566.27L1058.28,575.56L1058.28,584.84L1058.28,594.12L1058.28,598.76L1058.28,608.05L1058.28,617.33L1053.64,621.97L1053.64,631.25L1053.64,640.54L1053.64,649.82L1053.64,659.1L1049,663.75L1049,673.03L1049,682.31L1044.35,691.59L1044.35,700.88L1044.35,710.16L1039.71,719.44L1039.71,724.09L1039.71,733.37L1039.71,738.01L1035.07,747.29L1035.07,751.94L1035.07,761.22L1035.07,765.86L1035.07,775.14L1035.07,784.43L1035.07,789.07L1035.07,798.35L1035.07,802.99L1035.07,812.28L1035.07,821.56L1035.07,830.84L1035.07,840.13L1035.07,854.05L1035.07,867.97L1035.07,872.62" fill="none" stroke="#000000" style="-webkit-tap-highlight-color: rgba(0, 0, 0, 0); stroke-linecap: round; stroke-linejoin: round; stroke-width: 12;" /><path d="M974.73,417.74L974.73,413.1L974.73,422.38L974.73,427.03L974.73,436.31L974.73,445.59L979.37,459.52L979.37,468.8L979.37,478.08L979.37,487.37L979.37,496.65L979.37,505.93L979.37,515.22L979.37,524.5L979.37,529.14L979.37,538.42L979.37,547.71L979.37,556.99L979.37,561.63L979.37,575.56L979.37,584.84L979.37,594.12L979.37,598.76L974.73,608.05L974.73,612.69L974.73,621.97L974.73,631.25L974.73,640.54L974.73,649.82L974.73,659.1L974.73,668.39L974.73,673.03L970.09,682.31L970.09,691.59L970.09,696.24L970.09,705.52L965.45,710.16L965.45,719.44L965.45,728.73L965.45,733.37L965.45,738.01L965.45,747.29L965.45,751.94L965.45,761.22L965.45,770.5L965.45,775.14L965.45,784.43L965.45,789.07L965.45,798.35L965.45,807.63L965.45,816.92L960.81,826.2L960.81,835.48L960.81,849.41L960.81,858.69L960.81,867.97L960.81,872.62L956.16,872.62L956.16,867.97" fill="none" stroke="#000000" style="-webkit-tap-highlight-color: rgba(0, 0, 0, 0); stroke-linecap: round; stroke-linejoin: round; stroke-width: 12;" /><path d="M891.18,436.31L886.54,436.31L886.54,431.67L881.9,431.67L881.9,427.03L881.9,431.67L881.9,436.31L881.9,445.59L881.9,459.52L881.9,473.44L881.9,487.37L886.54,496.65L886.54,505.93L886.54,515.22L886.54,524.5L886.54,538.42L886.54,547.71L886.54,556.99L886.54,566.27L886.54,575.56L886.54,580.2L886.54,589.48L886.54,598.76L891.18,608.05L891.18,617.33L891.18,626.61L891.18,635.9L895.82,640.54L895.82,649.82L895.82,659.1L895.82,668.39L895.82,677.67L900.47,686.95L900.47,696.24L900.47,705.52L900.47,710.16L900.47,719.44L900.47,724.09L900.47,733.37L900.47,742.65L895.82,751.94L895.82,756.58L895.82,765.86L895.82,770.5L895.82,779.78L895.82,784.43L895.82,793.71L895.82,802.99L895.82,812.28L895.82,821.56L895.82,830.84L895.82,835.48L895.82,844.77L895.82,849.41L891.18,854.05L891.18,858.69" fill="none" stroke="#000000" style="-webkit-tap-highlight-color: rgba(0, 0, 0, 0); stroke-linecap: round; stroke-linejoin: round; stroke-width: 12;" /><path d="M812.28,431.67L812.28,436.31L812.28,440.95L812.28,454.87L812.28,464.16L812.28,478.08L812.28,487.37L812.28,496.65L812.28,501.29L812.28,510.57L812.28,519.86L812.28,529.14L812.28,538.42L812.28,543.06L812.28,552.35L812.28,561.63L812.28,570.91L812.28,580.2L812.28,584.84L812.28,594.12L812.28,603.41L812.28,612.69L812.28,621.97L812.28,631.25L812.28,640.54L812.28,645.18L812.28,654.46L812.28,663.75L812.28,673.03L812.28,682.31L812.28,691.59L807.63,700.88L807.63,705.52L807.63,714.8L807.63,724.09L807.63,733.37L807.63,738.01L807.63,747.29L807.63,751.94L807.63,761.22L807.63,770.5L807.63,779.78L812.28,784.43L812.28,793.71L812.28,798.35L812.28,807.63L812.28,816.92L812.28,821.56L812.28,830.84L816.92,840.13L816.92,844.77L816.92,849.41L821.56,854.05" fill="none" stroke="#000000" style="-webkit-tap-highlight-color: rgba(0, 0, 0, 0); stroke-linecap: round; stroke-linejoin: round; stroke-width: 12;" /></svg>