<?xml version="1.0" encoding="utf-8" ?>
<svg baseProfile="full" height="1512" version="1.1" width="2590" xmlns="http://www.w3.org/2000/svg" xmlns:ev="http://www.w3.org/2001/xml-events" xmlns:xlink="http://www.w3.org/1999/xlink"><defs /><path d="M105.25,617.76L105.25,613.18L105.25,608.6L105.25,604.03L105.25,599.45L105.25,590.3L109.82,581.15L109.82,572L114.4,562.84L114.4,549.12L118.98,544.54L118.98,535.39L118.98,526.24L118.98,517.08L123.55,507.93L123.55,498.78L128.13,489.63L132.7,475.9L132.7,466.75L137.28,462.17L137.28,457.6L137.28,453.02L137.28,457.6L137.28,462.17L141.86,462.17L141.86,466.75L146.43,466.75L146.43,471.33L151.01,471.33L155.58,471.33L160.16,471.33L164.73,471.33L169.31,471.33L173.89,471.33L178.46,471.33L183.04,466.75L187.61,466.75L192.19,462.17L201.34,462.17L205.92,457.6L210.49,457.6L219.65,457.6L224.22,457.6L228.8,457.6L233.37,457.6L237.95,457.6L242.53,457.6L247.1,462.17L251.68,462.17L260.83,462.17L265.41,462.17L274.56,466.75L279.13,466.75L288.29,466.75L292.86,466.75L297.44,466.75L302.01,466.75L306.59,462.17L311.17,462.17L320.32,457.6L329.47,457.6L334.05,457.6L338.62,457.6L343.2,457.6L347.77,457.6L347.77,462.17L352.35,462.17L356.93,466.75L356.93,471.33L361.5,471.33L361.5,466.75L366.08,462.17L366.08,457.6L366.08,453.02L370.65,453.02L370.65,448.45L375.23,448.45L384.38,448.45L388.96,448.45L393.53,448.45L398.11,448.45L402.69,448.45L411.84,448.45L416.41,448.45L420.99,448.45L420.99,443.87L425.57,443.87L430.14,443.87L434.72,443.87L439.29,448.45L439.29,453.02L443.87,457.6L443.87,462.17L448.45,462.17L448.45,466.75L453.02,466.75L457.6,466.75L462.17,466.75L466.75,466.75L471.33,466.75L475.9,466.75L480.48,466.75L485.05,471.33L489.63,471.33L494.2,471.33L498.78,471.33L503.36,471.33L507.93,475.9L512.51,475.9L517.08,475.9L521.66,475.9L526.24,475.9L530.81,475.9L535.39,475.9L544.54,475.9L549.12,475.9L553.69,475.9L558.27,475.9L562.84,471.33L567.42,471.33L572,471.33L576.57,471.33L581.15,466.75L585.72,466.75L585.72,462.17L585.72,457.6L585.72,453.02L585.72,443.87L585.72,434.72L581.15,420.99L576.57,416.41L572,407.26L567.42,407.26L567.42,402.69L562.84,402.69L567.42,402.69L572,402.69L576.57,402.69L581.15,402.69L585.72,402.69L590.3,402.69L599.45,402.69L604.03,402.69L613.18,402.69L617.76,407.26L626.91,407.26L631.48,407.26L636.06,407.26L645.21,407.26L649.79,407.26L654.36,407.26L658.94,407.26L663.52,407.26L668.09,407.26L668.09,411.84L672.67,411.84L677.24,416.41L681.82,420.99L681.82,425.57L681.82,434.72L681.82,439.29L681.82,443.87L681.82,448.45L686.4,453.02L686.4,457.6L686.4,462.17L690.97,462.17L695.55,462.17L700.12,462.17L704.7,462.17L713.85,462.17L718.43,457.6L723,457.6L727.58,457.6L736.73,457.6L741.31,457.6L745.88,457.6L750.46,457.6L755.04,457.6L759.61,457.6L764.19,457.6L768.76,457.6L773.34,453.02L773.34,448.45L773.34,439.29L773.34,434.72L773.34,430.14L777.92,420.99L777.92,416.41L777.92,411.84L782.49,407.26L787.07,402.69L791.64,398.11L791.64,393.53L796.22,388.96L796.22,384.38L796.22,379.81L796.22,375.23L800.8,370.65L800.8,366.08L805.37,361.5L809.95,361.5L814.52,361.5L819.1,361.5L828.25,366.08L832.83,370.65L837.4,370.65L841.98,375.23L846.55,379.81L851.13,384.38L851.13,388.96L855.71,388.96L860.28,393.53L860.28,398.11L864.86,398.11L869.43,398.11L869.43,402.69L874.01,402.69L878.59,402.69L878.59,407.26L883.16,407.26L887.74,407.26L892.31,407.26L896.89,402.69L901.47,402.69L906.04,402.69L906.04,398.11L910.62,398.11L915.19,398.11L919.77,398.11L924.35,398.11L928.92,393.53L933.5,393.53L938.07,393.53L942.65,393.53L947.23,393.53L951.8,398.11L956.38,398.11L960.95,398.11L965.53,398.11L970.11,398.11L979.26,398.11L983.83,398.11L988.41,398.11L992.99,398.11L997.56,398.11L1002.14,398.11L1006.71,398.11L1011.29,398.11L1015.87,398.11L1015.87,402.69L1020.44,402.69L1025.02,402.69L1029.59,402.69L1034.17,402.69L1043.32,402.69L1047.9,402.69L1052.47,402.69L1057.05,402.69L1061.63,402.69L1061.63,398.11L1066.2,398.11L1070.78,398.11L1075.35,398.11L1075.35,402.69L1075.35,407.26L1079.93,411.84L1079.93,416.41L1084.51,420.99L1084.51,425.57L1089.08,425.57L1089.08,430.14L1093.66,434.72L1098.23,434.72L1102.81,434.72L1107.39,434.72L1111.96,434.72L1116.54,434.72L1121.11,434.72L1125.69,434.72L1130.27,434.72L1134.84,434.72L1139.42,434.72L1143.99,434.72L1148.57,430.14L1153.14,425.57L1153.14,420.99L1157.72,411.84L1157.72,407.26L1157.72,402.69L1162.3,398.11L1166.87,398.11L1166.87,393.53L1171.45,393.53L1176.02,393.53L1180.6,388.96L1185.18,388.96L1189.75,384.38L1194.33,384.38L1198.9,379.81L1203.48,379.81L1208.06,375.23L1212.63,375.23L1217.21,375.23L1221.78,375.23L1226.36,375.23L1230.94,379.81L1235.51,379.81L1240.09,379.81L1244.66,379.81L1249.24,379.81L1253.82,379.81L1258.39,379.81L1262.97,379.81L1262.97,375.23L1267.54,375.23L1272.12,370.65L1276.7,370.65L1281.27,370.65L1281.27,375.23L1285.85,375.23L1290.42,379.81L1295,384.38L1295,388.96L1295,393.53L1295,398.11L1299.58,407.26L1299.58,411.84L1299.58,416.41L1304.15,420.99L1308.73,420.99L1313.3,420.99L1317.88,420.99L1322.46,416.41L1327.03,416.41L1331.61,411.84L1336.18,411.84L1340.76,407.26L1345.34,402.69L1349.91,402.69L1349.91,398.11L1354.49,393.53L1359.06,388.96L1363.64,384.38L1368.22,384.38L1368.22,379.81L1372.79,379.81L1377.37,375.23L1381.94,370.65L1386.52,370.65L1391.1,366.08L1395.67,366.08L1400.25,366.08L1404.82,366.08L1409.4,366.08L1413.98,366.08L1418.55,366.08L1423.13,370.65L1427.7,370.65L1432.28,370.65L1436.86,370.65L1441.43,375.23L1446.01,375.23L1450.58,375.23L1455.16,375.23L1459.73,375.23L1464.31,379.81L1468.89,379.81L1473.46,379.81L1478.04,379.81L1482.61,379.81L1487.19,379.81L1491.77,384.38L1496.34,384.38L1500.92,384.38L1505.49,388.96L1510.07,388.96L1514.65,388.96L1519.22,388.96L1523.8,388.96L1528.37,388.96L1537.53,384.38L1542.1,384.38L1546.68,384.38L1551.25,379.81L1555.83,379.81L1564.98,379.81L1569.56,375.23L1574.13,375.23L1578.71,375.23L1587.86,375.23L1592.44,375.23L1601.59,375.23L1606.17,375.23L1615.32,375.23L1619.89,375.23L1629.05,375.23L1638.2,375.23L1642.77,375.23L1647.35,375.23L1656.5,375.23L1661.08,375.23L1665.65,370.65L1670.23,370.65L1674.81,370.65L1679.38,370.65L1683.96,370.65L1688.53,366.08L1693.11,366.08L1697.69,366.08L1702.26,366.08L1706.84,366.08L1711.41,366.08L1711.41,361.5L1720.57,361.5L1725.14,361.5L1729.72,361.5L1734.29,361.5L1738.87,361.5L1743.45,361.5L1748.02,361.5L1752.6,366.08L1757.17,366.08L1757.17,370.65L1761.75,375.23L1761.75,379.81L1766.33,379.81L1770.9,384.38L1770.9,388.96L1775.48,388.96L1780.05,388.96L1780.05,393.53L1780.05,398.11L1784.63,402.69L1784.63,407.26L1784.63,411.84L1784.63,416.41L1789.2,420.99L1793.78,420.99L1798.36,420.99L1802.93,420.99L1807.51,420.99L1812.08,416.41L1816.66,411.84L1821.24,402.69L1825.81,398.11L1825.81,388.96L1825.81,384.38L1825.81,379.81L1825.81,375.23L1830.39,375.23L1834.96,375.23L1839.54,375.23L1844.12,370.65L1848.69,370.65L1853.27,366.08L1857.84,366.08L1862.42,366.08L1867,366.08L1867,370.65L1871.57,370.65L1871.57,375.23L1876.15,375.23L1880.72,379.81L1885.3,384.38L1889.88,384.38L1894.45,384.38L1899.03,388.96L1903.6,388.96L1908.18,388.96L1912.76,388.96L1917.33,388.96L1921.91,388.96L1926.48,388.96L1931.06,393.53L1935.64,393.53L1940.21,393.53L1944.79,393.53L1949.36,393.53L1953.94,393.53L1958.52,393.53L1963.09,393.53L1967.67,393.53L1972.24,393.53L1976.82,393.53L1981.4,393.53L1985.97,388.96L1990.55,388.96L1995.12,388.96L1999.7,384.38L2004.28,384.38L2008.85,384.38L2013.43,384.38L2018,384.38L2022.58,379.81L2027.16,379.81L2031.73,379.81L2036.31,379.81L2036.31,384.38L2040.88,384.38L2045.46,388.96L2050.04,388.96L2054.61,388.96L2059.19,388.96L2059.19,384.38L2063.76,379.81L2068.34,375.23L2072.92,370.65L2077.49,366.08L2082.07,366.08L2082.07,361.5L2086.64,361.5L2091.22,361.5L2095.8,361.5L2100.37,361.5L2104.95,361.5L2109.52,361.5L2114.1,361.5L2118.67,361.5L2123.25,361.5L2127.83,361.5L2132.4,361.5L2136.98,361.5L2141.55,361.5L2146.13,361.5L2150.71,361.5L2155.28,361.5L2159.86,361.5L2164.43,356.93L2169.01,356.93L2173.59,356.93L2178.16,352.35L2182.74,352.35L2187.31,352.35L2187.31,347.77L2191.89,347.77L2196.47,347.77L2201.04,352.35L2205.62,352.35L2210.19,352.35L2214.77,352.35L2219.35,352.35L2219.35,347.77L2223.92,343.2L2228.5,343.2L2233.07,338.62L2237.65,334.05L2242.23,334.05L2246.8,334.05L2251.38,334.05L2255.95,334.05L2260.53,334.05L2260.53,338.62L2265.11,343.2L2269.68,347.77L2269.68,352.35L2274.26,352.35L2278.83,356.93L2283.41,356.93L2287.99,352.35L2292.56,352.35L2297.14,347.77L2297.14,343.2L2301.71,338.62L2306.29,338.62L2306.29,334.05L2310.87,334.05L2315.44,329.47L2320.02,329.47L2320.02,324.89L2324.59,324.89L2329.17,324.89L2329.17,320.32L2333.75,320.32L2338.32,320.32L2342.9,320.32L2347.47,320.32L2352.05,320.32L2356.63,320.32L2361.2,320.32L2361.2,324.89L2365.78,324.89L2370.35,329.47L2374.93,329.47L2379.51,334.05L2384.08,334.05L2388.66,334.05L2393.23,334.05L2397.81,334.05L2402.39,334.05L2406.96,334.05L2411.54,334.05L2416.11,334.05L2420.69,334.05L2425.27,334.05L2429.84,334.05L2434.42,329.47L2438.99,329.47L2443.57,329.47L2448.14,329.47L2452.72,329.47L2457.3,324.89L2461.87,324.89L2466.45,324.89L2471.02,324.89L2475.6,324.89L2480.18,324.89L2484.75,324.89L2489.33,324.89L2493.9,324.89L2493.9,329.47L2498.48,334.05L2498.48,338.62L2498.48,343.2L2498.48,347.77L2498.48,352.35L2498.48,356.93L2498.48,361.5L2503.06,361.5L2503.06,366.08L2503.06,370.65L2503.06,375.23L2507.63,379.81L2507.63,384.38L2512.21,384.38L2516.78,388.96L2521.36,388.96L2525.94,384.38L2530.51,379.81L2535.09,370.65L2544.24,366.08L2544.24,356.93L2548.82,352.35L2548.82,343.2L2548.82,338.62L2548.82,334.05L2553.39,334.05L2557.97,334.05L2562.54,334.05L2567.12,329.47L2576.27,324.89L2580.85,324.89L2585.42,320.32" fill="none" stroke="#000000" style="-webkit-tap-highlight-color: rgba(0, 0, 0, 0); stroke-linecap: round; stroke-linejoin: round; stroke-width: 12;" /><path d="M128.13,572L128.13,567.42L132.7,572L132.7,581.15L132.7,590.3L132.7,599.45L137.28,608.6L137.28,617.76L141.86,626.91L146.43,636.06L146.43,645.21L146.43,654.36L151.01,668.09L151.01,677.24L151.01,686.4L151.01,695.55L151.01,709.28L155.58,718.43L155.58,727.58L155.58,736.73L160.16,745.88L160.16,755.04L160.16,768.76L164.73,777.92L164.73,787.07L169.31,796.22L169.31,809.95L169.31,819.1L173.89,823.67L173.89,832.83L173.89,837.4L178.46,837.4L183.04,837.4L187.61,832.83L192.19,832.83L201.34,832.83L215.07,828.25L224.22,828.25L242.53,828.25L256.25,828.25L265.41,828.25L279.13,828.25L288.29,828.25L297.44,823.67L306.59,823.67L315.74,823.67L324.89,819.1L334.05,819.1L343.2,819.1L352.35,819.1L361.5,819.1L370.65,819.1L375.23,823.67L384.38,823.67L398.11,828.25L407.26,828.25L416.41,828.25L430.14,832.83L439.29,832.83L457.6,832.83L471.33,837.4L485.05,837.4L503.36,837.4L517.08,841.98L535.39,841.98L553.69,841.98L567.42,841.98L585.72,841.98L599.45,841.98L613.18,841.98L626.91,841.98L640.64,841.98L654.36,837.4L663.52,837.4L677.24,837.4L690.97,837.4L700.12,832.83L709.28,832.83L723,832.83L736.73,832.83L745.88,832.83L755.04,832.83L764.19,832.83L773.34,832.83L777.92,832.83L787.07,832.83L791.64,832.83L800.8,828.25L805.37,828.25L814.52,823.67L819.1,823.67L823.67,819.1L828.25,819.1L832.83,819.1L837.4,819.1L837.4,814.52L837.4,805.37L837.4,796.22L837.4,782.49L837.4,768.76L828.25,741.31L828.25,727.58L823.67,709.28L823.67,695.55L823.67,681.82L828.25,668.09L828.25,654.36L828.25,640.64L832.83,631.48L832.83,617.76L832.83,599.45L832.83,585.72L832.83,576.57L828.25,562.84L823.67,553.69L819.1,544.54L819.1,535.39L819.1,526.24L819.1,517.08L819.1,507.93L819.1,498.78L823.67,494.2L823.67,489.63L823.67,498.78L823.67,503.36" fill="none" stroke="#000000" style="-webkit-tap-highlight-color: rgba(0, 0, 0, 0); stroke-linecap: round; stroke-linejoin: round; stroke-width: 12;" /><path d="M750.46,819.1L750.46,814.52L755.04,814.52L755.04,809.95L759.61,809.95L759.61,814.52L759.61,819.1L755.04,823.67L745.88,832.83L736.73,846.55L727.58,860.28L713.85,874.01L709.28,883.16L704.7,892.31L704.7,901.47L704.7,910.62L700.12,919.77L695.55,933.5L695.55,942.65L690.97,956.38L690.97,970.11L686.4,979.26L681.82,988.41L677.24,997.56L677.24,1011.29L672.67,1020.44L668.09,1029.59L668.09,1034.17L663.52,1043.32L658.94,1052.47L658.94,1061.63L654.36,1070.78L649.79,1079.93L645.21,1089.08L640.64,1093.66L636.06,1098.23L636.06,1102.81L631.48,1107.39L631.48,1111.96L626.91,1116.54L626.91,1121.11L622.33,1121.11L617.76,1125.69L613.18,1125.69L604.03,1130.27L594.88,1130.27L585.72,1130.27L572,1130.27L558.27,1130.27L544.54,1130.27L530.81,1125.69L521.66,1121.11L512.51,1116.54L498.78,1102.81L494.2,1093.66L489.63,1084.51L489.63,1075.35L485.05,1066.2L485.05,1057.05L480.48,1052.47L475.9,1047.9L466.75,1043.32L462.17,1043.32L457.6,1038.75L453.02,1038.75L453.02,1034.17L448.45,1029.59L443.87,1025.02L443.87,1015.87L443.87,1011.29L443.87,1002.14L443.87,992.99L443.87,983.83L439.29,979.26L439.29,970.11L439.29,960.95L434.72,956.38L430.14,947.23L425.57,938.07L420.99,933.5L416.41,924.35L411.84,919.77L407.26,919.77L398.11,915.19L393.53,910.62L388.96,906.04L384.38,896.89L375.23,887.74L370.65,878.59L366.08,874.01L361.5,864.86L361.5,860.28L356.93,855.71L356.93,851.13L352.35,846.55L343.2,837.4L334.05,832.83L324.89,828.25L315.74,828.25L306.59,828.25L297.44,828.25L283.71,832.83L274.56,841.98L265.41,851.13L256.25,860.28L251.68,874.01L251.68,878.59L251.68,887.74" fill="none" stroke="#000000" style="-webkit-tap-highlight-color: rgba(0, 0, 0, 0); stroke-linecap: round; stroke-linejoin: round; stroke-width: 12;" /><path d="M32.03,933.5L27.46,928.92L22.88,924.35L18.3,924.35L13.73,919.77L13.73,915.19L9.15,915.19L13.73,915.19L22.88,910.62L32.03,910.62L45.76,910.62L59.49,906.04L77.79,906.04L91.52,906.04L105.25,901.47L114.4,901.47L128.13,901.47L137.28,901.47L151.01,901.47L160.16,906.04L164.73,906.04L173.89,910.62L183.04,910.62L196.77,910.62L210.49,910.62L224.22,910.62L237.95,910.62L256.25,910.62L265.41,906.04L279.13,906.04L292.86,906.04L306.59,901.47L315.74,901.47L329.47,896.89L338.62,896.89L343.2,896.89" fill="none" stroke="#000000" style="-webkit-tap-highlight-color: rgba(0, 0, 0, 0); stroke-linecap: round; stroke-linejoin: round; stroke-width: 12;" /><path d="M18.3,983.83L13.73,983.83L9.15,983.83L4.58,988.41L0,988.41" fill="none" stroke="#000000" style="-webkit-tap-highlight-color: rgba(0, 0, 0, 0); stroke-linecap: round; stroke-linejoin: round; stroke-width: 12;" /><path d="M4.58,974.68L9.15,965.53L22.88,960.95L36.61,951.8L50.34,947.23L68.64,942.65L77.79,942.65L86.94,942.65L96.1,947.23L105.25,951.8L114.4,956.38L118.98,960.95L123.55,970.11L128.13,974.68L128.13,983.83L128.13,988.41L123.55,992.99L118.98,997.56L109.82,1002.14L100.67,1006.71L91.52,1011.29L82.37,1011.29L68.64,1011.29L50.34,1011.29L36.61,1006.71L18.3,1002.14L4.58,997.56" fill="none" stroke="#000000" style="-webkit-tap-highlight-color: rgba(0, 0, 0, 0); stroke-linecap: round; stroke-linejoin: round; stroke-width: 12;" /><path d="M13.73,1034.17L9.15,1034.17L4.58,1029.59L4.58,1025.02L4.58,1020.44L9.15,1029.59L9.15,1038.75L9.15,1057.05L9.15,1070.78L9.15,1093.66L9.15,1111.96L13.73,1125.69L13.73,1134.84L22.88,1139.42L32.03,1139.42L45.76,1139.42L59.49,1134.84L73.22,1130.27L91.52,1121.11L114.4,1111.96L132.7,1102.81L151.01,1093.66L164.73,1093.66L173.89,1089.08L178.46,1089.08L178.46,1084.51L178.46,1079.93L169.31,1070.78L164.73,1052.47L160.16,1034.17L155.58,1011.29L146.43,992.99L137.28,979.26L137.28,974.68L137.28,979.26L141.86,988.41L146.43,992.99" fill="none" stroke="#000000" style="-webkit-tap-highlight-color: rgba(0, 0, 0, 0); stroke-linecap: round; stroke-linejoin: round; stroke-width: 12;" /><path d="M169.31,1089.08L169.31,1084.51L164.73,1075.35L169.31,1070.78L178.46,1070.78L196.77,1066.2L215.07,1070.78L233.37,1079.93L247.1,1093.66L256.25,1107.39L256.25,1116.54L256.25,1130.27L256.25,1148.57L251.68,1162.3L251.68,1176.02L247.1,1185.18L247.1,1194.33L247.1,1198.9L251.68,1208.06L256.25,1217.21L260.83,1226.36L269.98,1230.94L279.13,1240.09L288.29,1249.24L292.86,1253.82L302.01,1262.97L306.59,1267.54L315.74,1272.12L320.32,1276.7L320.32,1281.27L324.89,1281.27L324.89,1285.85L329.47,1285.85L338.62,1290.42L343.2,1290.42L352.35,1295L356.93,1295L361.5,1295L370.65,1295L379.81,1295L393.53,1290.42L407.26,1281.27L416.41,1276.7L425.57,1276.7L434.72,1276.7L439.29,1276.7L439.29,1281.27L443.87,1281.27L448.45,1285.85L453.02,1285.85L457.6,1285.85L462.17,1285.85L466.75,1285.85" fill="none" stroke="#000000" style="-webkit-tap-highlight-color: rgba(0, 0, 0, 0); stroke-linecap: round; stroke-linejoin: round; stroke-width: 12;" /><path d="M1047.9,864.86L1043.32,864.86L1038.75,864.86L1034.17,864.86L1029.59,864.86L1025.02,864.86L1020.44,864.86L1015.87,864.86L1015.87,869.43L1011.29,869.43L1006.71,874.01L1006.71,878.59L1006.71,883.16L1006.71,887.74L1006.71,892.31L1006.71,896.89L1006.71,901.47L1006.71,906.04L1006.71,910.62L1006.71,915.19L1006.71,919.77L1002.14,919.77L997.56,915.19L992.99,910.62L988.41,906.04L988.41,901.47L983.83,896.89L979.26,896.89L974.68,901.47L974.68,906.04L974.68,915.19L974.68,919.77L974.68,924.35L974.68,933.5L974.68,938.07L974.68,942.65L974.68,947.23L974.68,956.38L974.68,960.95L974.68,965.53L970.11,970.11L965.53,974.68L960.95,974.68L956.38,974.68L951.8,970.11L951.8,965.53L951.8,960.95L951.8,956.38L951.8,951.8L956.38,956.38L956.38,960.95L956.38,965.53L956.38,974.68L956.38,979.26L956.38,983.83L956.38,988.41L956.38,992.99L951.8,997.56L951.8,1002.14L947.23,1002.14L947.23,1006.71L942.65,1006.71L942.65,1011.29L938.07,1015.87L933.5,1015.87L933.5,1020.44L928.92,1020.44L928.92,1025.02L928.92,1029.59L933.5,1029.59L933.5,1034.17L933.5,1038.75L933.5,1043.32L933.5,1047.9L933.5,1052.47L933.5,1057.05L928.92,1057.05L928.92,1061.63L924.35,1061.63L924.35,1057.05L919.77,1057.05L919.77,1052.47L915.19,1052.47L915.19,1057.05L919.77,1057.05L919.77,1061.63L919.77,1066.2L919.77,1070.78L919.77,1075.35L915.19,1075.35L915.19,1079.93L915.19,1084.51L915.19,1089.08L919.77,1093.66L924.35,1093.66L924.35,1098.23L924.35,1102.81L919.77,1102.81L915.19,1102.81L915.19,1107.39L910.62,1107.39L910.62,1111.96L906.04,1116.54L906.04,1121.11L901.47,1121.11L901.47,1125.69L896.89,1125.69L896.89,1130.27L896.89,1134.84L896.89,1139.42L896.89,1143.99L896.89,1148.57L896.89,1153.14L892.31,1153.14L887.74,1153.14L883.16,1153.14L883.16,1148.57L878.59,1148.57L878.59,1153.14L878.59,1157.72L878.59,1162.3L878.59,1166.87L878.59,1171.45L878.59,1176.02L878.59,1180.6L874.01,1185.18L874.01,1189.75L874.01,1194.33L874.01,1198.9L869.43,1198.9L864.86,1198.9L860.28,1198.9L855.71,1198.9L855.71,1203.48L855.71,1208.06L855.71,1212.63L860.28,1212.63L860.28,1217.21L860.28,1221.78L860.28,1226.36L855.71,1230.94L855.71,1235.51L851.13,1240.09L851.13,1244.66L846.55,1244.66L846.55,1249.24L846.55,1253.82L841.98,1253.82L841.98,1258.39L841.98,1262.97L841.98,1267.54L841.98,1272.12L841.98,1276.7L841.98,1281.27L841.98,1285.85L841.98,1290.42L841.98,1295L837.4,1299.58L837.4,1304.15L832.83,1304.15L832.83,1308.73L832.83,1313.3L828.25,1313.3L828.25,1317.88L823.67,1322.46L828.25,1322.46L828.25,1317.88L828.25,1313.3" fill="none" stroke="#000000" style="-webkit-tap-highlight-color: rgba(0, 0, 0, 0); stroke-linecap: round; stroke-linejoin: round; stroke-width: 12;" /><path d="M979.26,860.28L979.26,855.71L974.68,855.71L974.68,851.13L974.68,846.55L974.68,851.13L970.11,855.71L970.11,860.28L965.53,864.86L965.53,869.43L960.95,874.01L960.95,878.59L956.38,878.59L956.38,883.16L951.8,887.74L951.8,892.31L951.8,896.89L951.8,901.47L951.8,906.04L947.23,910.62L947.23,915.19L942.65,919.77L938.07,919.77L938.07,924.35L933.5,924.35L928.92,928.92L928.92,933.5L928.92,938.07L933.5,942.65L938.07,947.23L938.07,951.8L942.65,956.38L942.65,960.95L938.07,965.53L933.5,970.11L928.92,970.11L928.92,974.68L924.35,974.68L924.35,979.26L919.77,979.26L915.19,979.26L915.19,983.83L910.62,983.83L906.04,983.83L906.04,988.41L906.04,992.99L901.47,997.56L901.47,1002.14L901.47,1006.71L901.47,1011.29L901.47,1015.87L901.47,1020.44L901.47,1025.02L901.47,1029.59L901.47,1034.17L896.89,1038.75L896.89,1043.32L892.31,1043.32L892.31,1047.9L887.74,1047.9L887.74,1052.47L883.16,1052.47L883.16,1057.05L887.74,1061.63L892.31,1061.63L892.31,1066.2L887.74,1070.78L883.16,1070.78L878.59,1070.78L878.59,1075.35L874.01,1075.35L874.01,1079.93L869.43,1079.93L869.43,1084.51L869.43,1089.08L869.43,1093.66L869.43,1098.23L869.43,1102.81L869.43,1107.39L869.43,1116.54L869.43,1121.11L864.86,1125.69L860.28,1130.27L855.71,1130.27L855.71,1134.84L851.13,1134.84L851.13,1139.42L851.13,1143.99L851.13,1148.57L851.13,1153.14L851.13,1157.72L846.55,1157.72L841.98,1157.72L837.4,1157.72L832.83,1157.72L828.25,1157.72L828.25,1162.3L828.25,1166.87L832.83,1171.45L832.83,1176.02L837.4,1180.6L837.4,1185.18L841.98,1189.75L841.98,1194.33L841.98,1198.9L841.98,1203.48L837.4,1208.06L832.83,1212.63L832.83,1217.21L828.25,1221.78L828.25,1226.36L823.67,1226.36L823.67,1230.94L828.25,1230.94L832.83,1230.94L828.25,1230.94L823.67,1235.51L814.52,1235.51L809.95,1240.09L805.37,1244.66L800.8,1249.24L796.22,1253.82L791.64,1258.39L791.64,1262.97L787.07,1267.54L787.07,1272.12L787.07,1276.7L791.64,1281.27L791.64,1285.85L791.64,1290.42L791.64,1295L791.64,1299.58L787.07,1304.15L787.07,1308.73L782.49,1313.3L782.49,1317.88L777.92,1317.88L777.92,1322.46L773.34,1322.46L773.34,1327.03L773.34,1322.46L777.92,1308.73L782.49,1299.58" fill="none" stroke="#000000" style="-webkit-tap-highlight-color: rgba(0, 0, 0, 0); stroke-linecap: round; stroke-linejoin: round; stroke-width: 12;" /><path d="M947.23,855.71L942.65,855.71L938.07,860.28L933.5,864.86L928.92,864.86L924.35,869.43L919.77,874.01L915.19,878.59L910.62,883.16L906.04,887.74L906.04,892.31L906.04,896.89L906.04,901.47L910.62,910.62L915.19,915.19L919.77,919.77L919.77,928.92L919.77,933.5L919.77,938.07L915.19,942.65L910.62,947.23L906.04,947.23L901.47,947.23L896.89,947.23L892.31,947.23L892.31,951.8L887.74,951.8L887.74,956.38L883.16,960.95L883.16,965.53L883.16,970.11L887.74,974.68L887.74,979.26L887.74,983.83L883.16,983.83L878.59,988.41L874.01,988.41L869.43,992.99L864.86,992.99L864.86,997.56L860.28,997.56L860.28,1002.14L855.71,1006.71L855.71,1011.29L855.71,1015.87L855.71,1020.44L855.71,1025.02L855.71,1029.59L860.28,1034.17L864.86,1038.75L864.86,1043.32L864.86,1047.9L860.28,1047.9L860.28,1052.47L855.71,1052.47L855.71,1057.05L851.13,1057.05L851.13,1061.63L846.55,1061.63L846.55,1066.2L846.55,1070.78L846.55,1075.35L851.13,1079.93L851.13,1084.51L855.71,1084.51L855.71,1089.08L855.71,1093.66L851.13,1098.23L846.55,1098.23L841.98,1098.23L837.4,1102.81L832.83,1102.81L828.25,1107.39L823.67,1111.96L823.67,1116.54L823.67,1121.11L823.67,1125.69L828.25,1130.27L828.25,1134.84L828.25,1139.42L823.67,1139.42L819.1,1139.42L814.52,1139.42L809.95,1139.42L809.95,1143.99L809.95,1148.57L809.95,1153.14L809.95,1157.72L809.95,1162.3L809.95,1166.87L809.95,1171.45L809.95,1176.02L809.95,1180.6L805.37,1180.6L805.37,1185.18L800.8,1185.18L800.8,1189.75L796.22,1189.75L796.22,1194.33L791.64,1198.9L791.64,1203.48L791.64,1208.06L791.64,1212.63L791.64,1217.21L791.64,1221.78L791.64,1226.36L787.07,1226.36L782.49,1226.36L777.92,1226.36L773.34,1226.36L768.76,1230.94L764.19,1230.94L764.19,1235.51L764.19,1240.09L768.76,1244.66L768.76,1249.24L773.34,1258.39L773.34,1262.97L773.34,1267.54L773.34,1272.12L773.34,1276.7L768.76,1281.27L764.19,1290.42L764.19,1295L759.61,1304.15L759.61,1313.3L755.04,1317.88L755.04,1322.46L750.46,1327.03L750.46,1331.61L755.04,1317.88L759.61,1299.58" fill="none" stroke="#000000" style="-webkit-tap-highlight-color: rgba(0, 0, 0, 0); stroke-linecap: round; stroke-linejoin: round; stroke-width: 12;" /><path d="M919.77,851.13L915.19,851.13L915.19,846.55L910.62,846.55L910.62,841.98L906.04,841.98L901.47,841.98L896.89,841.98L892.31,846.55L887.74,846.55L883.16,851.13L883.16,855.71L878.59,860.28L874.01,864.86L874.01,869.43L874.01,874.01L874.01,878.59L874.01,883.16L874.01,887.74L874.01,892.31L874.01,896.89L874.01,901.47L874.01,906.04L869.43,906.04L869.43,910.62L864.86,910.62L864.86,915.19L860.28,915.19L864.86,915.19L869.43,915.19L874.01,915.19L878.59,919.77L878.59,924.35L878.59,928.92L874.01,933.5L869.43,942.65L864.86,947.23L860.28,947.23L860.28,951.8L855.71,956.38L851.13,960.95L851.13,965.53L851.13,970.11L846.55,974.68L846.55,979.26L846.55,983.83L846.55,988.41L846.55,992.99L846.55,997.56L841.98,1002.14L841.98,1006.71L841.98,1011.29L841.98,1015.87L841.98,1020.44L841.98,1025.02L837.4,1029.59L837.4,1034.17L832.83,1034.17L828.25,1038.75L823.67,1038.75L819.1,1043.32L814.52,1043.32L809.95,1043.32L809.95,1047.9L809.95,1052.47L809.95,1057.05L809.95,1061.63L809.95,1066.2L809.95,1070.78L805.37,1070.78L805.37,1075.35L805.37,1079.93L805.37,1084.51L805.37,1089.08L800.8,1089.08L800.8,1093.66L800.8,1098.23L800.8,1102.81L800.8,1107.39L796.22,1107.39L796.22,1111.96L796.22,1116.54L796.22,1121.11L796.22,1125.69L791.64,1130.27L791.64,1134.84L791.64,1139.42L791.64,1143.99L791.64,1148.57L787.07,1153.14L782.49,1157.72L777.92,1162.3L773.34,1162.3L773.34,1166.87L768.76,1166.87L764.19,1171.45L764.19,1176.02L764.19,1180.6L759.61,1185.18L759.61,1189.75L759.61,1194.33L755.04,1194.33L755.04,1198.9L750.46,1203.48L745.88,1208.06L745.88,1212.63L741.31,1217.21L741.31,1221.78L736.73,1226.36L736.73,1230.94L736.73,1235.51L732.16,1235.51L727.58,1235.51L723,1235.51L718.43,1235.51L718.43,1240.09L713.85,1240.09L713.85,1244.66L709.28,1244.66L709.28,1249.24L709.28,1253.82L709.28,1258.39L709.28,1262.97L709.28,1267.54L709.28,1272.12L709.28,1276.7L709.28,1281.27L709.28,1285.85L709.28,1290.42L709.28,1295L709.28,1299.58L704.7,1299.58L704.7,1304.15L704.7,1308.73L704.7,1313.3L700.12,1313.3L700.12,1317.88L700.12,1322.46L704.7,1313.3" fill="none" stroke="#000000" style="-webkit-tap-highlight-color: rgba(0, 0, 0, 0); stroke-linecap: round; stroke-linejoin: round; stroke-width: 12;" /><path d="M874.01,860.28L869.43,860.28L869.43,864.86L864.86,864.86L860.28,864.86L855.71,864.86L851.13,864.86L846.55,864.86L841.98,864.86L837.4,869.43L832.83,874.01L832.83,878.59L832.83,883.16L832.83,892.31L832.83,896.89L832.83,901.47L832.83,906.04L832.83,915.19L832.83,919.77L832.83,924.35L832.83,928.92L828.25,933.5L828.25,938.07L828.25,942.65L828.25,947.23L828.25,951.8L828.25,956.38L823.67,956.38L819.1,956.38L814.52,956.38L809.95,956.38L805.37,956.38L805.37,960.95L805.37,965.53L805.37,970.11L805.37,974.68L805.37,979.26L805.37,983.83L805.37,988.41L805.37,992.99L800.8,997.56L800.8,1002.14L800.8,1006.71L796.22,1006.71L791.64,1006.71L796.22,1011.29L796.22,1015.87L796.22,1020.44L791.64,1025.02L787.07,1025.02L782.49,1029.59L777.92,1034.17L773.34,1034.17L768.76,1038.75L768.76,1043.32L764.19,1047.9L764.19,1052.47L764.19,1057.05L764.19,1061.63L764.19,1066.2L764.19,1070.78L764.19,1075.35L764.19,1079.93L764.19,1084.51L764.19,1089.08L764.19,1093.66L764.19,1098.23L764.19,1102.81L759.61,1102.81L759.61,1107.39L755.04,1107.39L755.04,1111.96L750.46,1111.96L750.46,1116.54L750.46,1121.11L755.04,1125.69L755.04,1130.27L755.04,1134.84L750.46,1139.42L745.88,1143.99L741.31,1148.57L736.73,1153.14L732.16,1162.3L727.58,1166.87L723,1166.87L723,1171.45L723,1176.02L723,1185.18L718.43,1189.75L718.43,1194.33L718.43,1203.48L718.43,1208.06L718.43,1217.21L718.43,1221.78L718.43,1226.36L713.85,1230.94L713.85,1235.51L709.28,1240.09L709.28,1244.66L704.7,1249.24L704.7,1253.82L700.12,1258.39L695.55,1267.54L695.55,1276.7L690.97,1285.85L686.4,1290.42L681.82,1295L686.4,1285.85L686.4,1281.27" fill="none" stroke="#000000" style="-webkit-tap-highlight-color: rgba(0, 0, 0, 0); stroke-linecap: round; stroke-linejoin: round; stroke-width: 12;" /><path d="M846.55,841.98L846.55,846.55L841.98,846.55L837.4,846.55L837.4,851.13L832.83,855.71L828.25,855.71L823.67,855.71L823.67,860.28L819.1,860.28L809.95,864.86L805.37,869.43L800.8,874.01L796.22,878.59L791.64,883.16L791.64,892.31L787.07,896.89L787.07,901.47L787.07,906.04L787.07,910.62L787.07,915.19L787.07,919.77L787.07,924.35L787.07,928.92L787.07,938.07L787.07,942.65L787.07,951.8L791.64,956.38L791.64,960.95L791.64,965.53L787.07,965.53L782.49,965.53L777.92,970.11L773.34,970.11L768.76,974.68L764.19,974.68L764.19,979.26L759.61,979.26L759.61,983.83L759.61,988.41L759.61,992.99L759.61,997.56L759.61,1002.14L759.61,1006.71L759.61,1011.29L759.61,1015.87L759.61,1020.44L759.61,1025.02L759.61,1034.17L755.04,1038.75L755.04,1043.32L755.04,1047.9L750.46,1052.47L750.46,1057.05L745.88,1057.05L745.88,1061.63L745.88,1066.2L745.88,1070.78L750.46,1070.78L750.46,1075.35L750.46,1079.93L745.88,1084.51L741.31,1089.08L736.73,1093.66L727.58,1098.23L723,1102.81L718.43,1107.39L713.85,1111.96L709.28,1116.54L709.28,1121.11L704.7,1125.69L704.7,1130.27L700.12,1134.84L700.12,1139.42L695.55,1143.99L695.55,1148.57L690.97,1153.14L690.97,1162.3L686.4,1166.87L686.4,1171.45L686.4,1176.02L681.82,1180.6L681.82,1185.18L681.82,1189.75L677.24,1194.33L677.24,1198.9L672.67,1203.48L672.67,1208.06L668.09,1212.63L663.52,1217.21L663.52,1221.78L658.94,1226.36L658.94,1230.94L658.94,1235.51L658.94,1240.09L658.94,1244.66L663.52,1244.66L663.52,1249.24L663.52,1253.82L663.52,1258.39L663.52,1262.97L663.52,1267.54L663.52,1272.12L663.52,1276.7L663.52,1281.27L663.52,1285.85L668.09,1276.7" fill="none" stroke="#000000" style="-webkit-tap-highlight-color: rgba(0, 0, 0, 0); stroke-linecap: round; stroke-linejoin: round; stroke-width: 12;" /><path d="M814.52,855.71L809.95,855.71L805.37,855.71L805.37,851.13L800.8,851.13L796.22,855.71L791.64,860.28L787.07,864.86L782.49,874.01L777.92,883.16L773.34,892.31L773.34,901.47L773.34,910.62L773.34,919.77L773.34,924.35L773.34,933.5L773.34,938.07L773.34,942.65L773.34,947.23L773.34,956.38L768.76,960.95L768.76,970.11L764.19,974.68L764.19,979.26L759.61,983.83L755.04,988.41L750.46,992.99L750.46,997.56L745.88,1002.14L741.31,1006.71L736.73,1011.29L732.16,1015.87L732.16,1020.44L727.58,1020.44L727.58,1025.02L723,1029.59L723,1034.17L718.43,1038.75L718.43,1043.32L713.85,1047.9L713.85,1052.47L709.28,1057.05L709.28,1061.63L704.7,1066.2L704.7,1070.78L700.12,1075.35L695.55,1079.93L690.97,1079.93L690.97,1084.51L686.4,1084.51L681.82,1089.08L677.24,1089.08L677.24,1093.66L672.67,1093.66L672.67,1098.23L668.09,1102.81L668.09,1107.39L663.52,1116.54L663.52,1121.11L663.52,1130.27L658.94,1139.42L658.94,1143.99L658.94,1153.14L658.94,1157.72L658.94,1166.87L658.94,1171.45L658.94,1176.02L658.94,1180.6L658.94,1189.75L654.36,1194.33L654.36,1198.9L654.36,1203.48L654.36,1208.06L654.36,1217.21L654.36,1221.78L649.79,1226.36L649.79,1230.94L645.21,1235.51L645.21,1240.09L640.64,1244.66L636.06,1244.66L636.06,1249.24L636.06,1253.82L631.48,1253.82L631.48,1258.39L626.91,1262.97L622.33,1267.54L617.76,1272.12L617.76,1267.54" fill="none" stroke="#000000" style="-webkit-tap-highlight-color: rgba(0, 0, 0, 0); stroke-linecap: round; stroke-linejoin: round; stroke-width: 12;" /><path d="M640.64,1093.66L636.06,1093.66L631.48,1098.23L626.91,1098.23L622.33,1098.23L622.33,1102.81L617.76,1107.39L613.18,1107.39L613.18,1116.54L608.6,1130.27L608.6,1143.99L608.6,1162.3L604.03,1180.6L604.03,1194.33L599.45,1208.06L599.45,1217.21L594.88,1226.36L594.88,1230.94L590.3,1230.94L590.3,1235.51L599.45,1240.09L604.03,1240.09L613.18,1240.09" fill="none" stroke="#000000" style="-webkit-tap-highlight-color: rgba(0, 0, 0, 0); stroke-linecap: round; stroke-linejoin: round; stroke-width: 12;" /><path d="M617.76,1262.97L613.18,1262.97L608.6,1258.39L604.03,1258.39L604.03,1253.82L608.6,1253.82L613.18,1262.97L622.33,1267.54L631.48,1272.12L640.64,1281.27L654.36,1285.85L668.09,1295L681.82,1299.58L690.97,1308.73L704.7,1313.3L713.85,1317.88L727.58,1322.46L741.31,1327.03L755.04,1331.61L764.19,1336.18L773.34,1336.18L787.07,1340.76L796.22,1345.34L805.37,1349.91L809.95,1354.49L819.1,1359.06L819.1,1363.64L823.67,1368.22L819.1,1368.22L814.52,1368.22" fill="none" stroke="#000000" style="-webkit-tap-highlight-color: rgba(0, 0, 0, 0); stroke-linecap: round; stroke-linejoin: round; stroke-width: 12;" /><path d="M1043.32,892.31L1038.75,892.31L1034.17,892.31L1029.59,892.31L1025.02,892.31L1020.44,892.31L1015.87,892.31L1020.44,892.31L1029.59,892.31L1038.75,892.31L1047.9,887.74L1052.47,887.74L1061.63,887.74L1066.2,887.74L1070.78,887.74L1070.78,896.89L1066.2,910.62L1061.63,924.35L1057.05,938.07L1052.47,956.38L1047.9,970.11L1038.75,983.83L1038.75,997.56L1034.17,1006.71L1034.17,1020.44L1034.17,1029.59L1038.75,1038.75L1038.75,1052.47L1038.75,1066.2L1038.75,1075.35L1038.75,1084.51L1038.75,1093.66L1038.75,1102.81L1038.75,1107.39L1038.75,1116.54L1034.17,1125.69L1034.17,1134.84L1029.59,1143.99L1029.59,1148.57L1029.59,1157.72L1029.59,1162.3L1029.59,1171.45L1029.59,1176.02L1029.59,1185.18L1029.59,1189.75L1029.59,1194.33L1025.02,1194.33L1020.44,1194.33L1015.87,1194.33L1011.29,1194.33L1006.71,1194.33L1002.14,1194.33L997.56,1198.9L992.99,1198.9L988.41,1198.9L983.83,1203.48L979.26,1208.06L974.68,1208.06L970.11,1212.63L965.53,1217.21L960.95,1221.78L956.38,1226.36L951.8,1226.36L947.23,1230.94L947.23,1235.51L942.65,1244.66L942.65,1249.24L942.65,1253.82L942.65,1258.39L938.07,1262.97L938.07,1267.54L938.07,1276.7L938.07,1281.27L933.5,1285.85L928.92,1285.85L924.35,1290.42L919.77,1290.42L915.19,1290.42L910.62,1290.42L906.04,1295L901.47,1295L901.47,1299.58L896.89,1304.15L896.89,1308.73L896.89,1313.3L892.31,1317.88L892.31,1322.46L887.74,1322.46L883.16,1327.03L878.59,1327.03L874.01,1331.61L869.43,1336.18L860.28,1336.18L851.13,1336.18L841.98,1336.18L832.83,1336.18L819.1,1336.18L809.95,1336.18L800.8,1336.18L791.64,1336.18L782.49,1340.76L777.92,1340.76L777.92,1345.34L782.49,1349.91L800.8,1354.49" fill="none" stroke="#000000" style="-webkit-tap-highlight-color: rgba(0, 0, 0, 0); stroke-linecap: round; stroke-linejoin: round; stroke-width: 12;" /><path d="M1185.18,1212.63L1185.18,1217.21L1185.18,1221.78L1180.6,1226.36L1176.02,1226.36L1171.45,1226.36L1166.87,1226.36L1157.72,1221.78L1148.57,1217.21L1139.42,1212.63L1130.27,1203.48L1116.54,1198.9L1098.23,1194.33L1084.51,1189.75L1070.78,1185.18L1061.63,1185.18L1043.32,1189.75L1029.59,1194.33L1015.87,1203.48L1002.14,1212.63L988.41,1226.36L974.68,1235.51L970.11,1244.66L960.95,1249.24L951.8,1258.39L942.65,1272.12L938.07,1281.27L928.92,1295L924.35,1299.58L924.35,1308.73L924.35,1313.3L924.35,1322.46L933.5,1327.03L942.65,1331.61L956.38,1340.76L970.11,1345.34L983.83,1349.91L1002.14,1359.06L1020.44,1363.64L1038.75,1368.22L1057.05,1372.79L1075.35,1372.79L1089.08,1372.79L1102.81,1372.79L1116.54,1372.79L1125.69,1363.64L1134.84,1354.49L1143.99,1340.76L1153.14,1322.46L1162.3,1299.58L1171.45,1276.7L1176.02,1258.39L1176.02,1244.66L1176.02,1230.94L1166.87,1221.78" fill="none" stroke="#000000" style="-webkit-tap-highlight-color: rgba(0, 0, 0, 0); stroke-linecap: round; stroke-linejoin: round; stroke-width: 12;" /><path d="M878.59,393.53L878.59,398.11L874.01,398.11L874.01,402.69L874.01,407.26L878.59,411.84L878.59,416.41L883.16,425.57L883.16,434.72L883.16,443.87L887.74,457.6L887.74,466.75L887.74,480.48L887.74,489.63L887.74,498.78L892.31,507.93L892.31,517.08L892.31,521.66L892.31,530.81L892.31,539.96L892.31,549.12L892.31,558.27L892.31,562.84L892.31,567.42L892.31,572L892.31,581.15L892.31,585.72L892.31,594.88L892.31,599.45L892.31,608.6L892.31,617.76L892.31,626.91L892.31,636.06L892.31,645.21L892.31,649.79L892.31,658.94L887.74,668.09L887.74,677.24L887.74,686.4L887.74,695.55L887.74,709.28L892.31,718.43L892.31,736.73L892.31,750.46L892.31,764.19L892.31,777.92L892.31,791.64L892.31,800.8L892.31,805.37L892.31,814.52L896.89,814.52L896.89,809.95L901.47,800.8" fill="none" stroke="#000000" style="-webkit-tap-highlight-color: rgba(0, 0, 0, 0); stroke-linecap: round; stroke-linejoin: round; stroke-width: 12;" /><path d="M1011.29,388.96L1011.29,384.38L1006.71,388.96L1002.14,402.69L997.56,420.99L997.56,443.87L992.99,466.75L988.41,485.05L988.41,498.78L983.83,512.51L983.83,526.24L979.26,535.39L979.26,544.54L974.68,558.27L974.68,572L970.11,585.72L970.11,594.88L965.53,604.03L965.53,613.18L960.95,626.91L960.95,636.06L956.38,649.79L951.8,663.52L951.8,672.67L951.8,681.82L951.8,690.97L951.8,700.12L956.38,709.28L956.38,723L960.95,736.73L960.95,755.04L960.95,768.76L965.53,787.07L965.53,805.37L970.11,819.1L970.11,832.83L970.11,851.13L974.68,860.28L974.68,864.86L979.26,860.28L979.26,841.98" fill="none" stroke="#000000" style="-webkit-tap-highlight-color: rgba(0, 0, 0, 0); stroke-linecap: round; stroke-linejoin: round; stroke-width: 12;" /><path d="M1075.35,416.41L1070.78,416.41L1066.2,416.41L1066.2,420.99L1066.2,430.14L1066.2,439.29L1066.2,443.87L1066.2,466.75L1066.2,489.63L1066.2,512.51L1061.63,535.39L1061.63,553.69L1057.05,567.42L1057.05,585.72L1057.05,599.45L1052.47,613.18L1052.47,626.91L1052.47,640.64L1047.9,649.79L1047.9,658.94L1047.9,668.09L1047.9,681.82L1047.9,690.97L1047.9,700.12L1047.9,713.85L1043.32,718.43L1043.32,727.58L1043.32,736.73L1043.32,741.31L1043.32,750.46L1043.32,759.61L1043.32,768.76L1043.32,782.49L1047.9,791.64L1047.9,800.8L1047.9,814.52L1047.9,828.25L1047.9,837.4L1047.9,846.55L1047.9,855.71L1047.9,864.86L1043.32,874.01L1043.32,878.59L1043.32,883.16" fill="none" stroke="#000000" style="-webkit-tap-highlight-color: rgba(0, 0, 0, 0); stroke-linecap: round; stroke-linejoin: round; stroke-width: 12;" /><path d="M837.4,526.24L832.83,526.24L828.25,526.24L823.67,526.24L819.1,526.24L819.1,521.66L819.1,517.08L823.67,512.51L828.25,507.93L837.4,507.93L846.55,503.36L860.28,498.78L869.43,498.78L878.59,498.78L887.74,498.78L896.89,503.36L906.04,503.36L915.19,507.93L919.77,507.93L928.92,512.51L933.5,512.51L942.65,512.51L947.23,507.93L956.38,507.93L965.53,507.93L970.11,507.93L979.26,507.93L988.41,507.93L992.99,507.93L1002.14,503.36L1011.29,503.36L1015.87,503.36L1025.02,503.36L1034.17,503.36L1038.75,503.36L1047.9,507.93L1057.05,512.51L1066.2,512.51L1075.35,517.08L1084.51,521.66L1093.66,521.66L1102.81,521.66L1116.54,521.66L1125.69,521.66L1134.84,517.08L1143.99,512.51L1153.14,512.51L1162.3,507.93L1171.45,503.36L1176.02,503.36L1185.18,503.36L1189.75,498.78L1194.33,498.78L1203.48,498.78L1208.06,498.78L1212.63,498.78L1217.21,498.78L1221.78,498.78L1226.36,498.78L1230.94,498.78L1235.51,503.36L1240.09,503.36L1244.66,503.36L1244.66,507.93L1249.24,507.93L1253.82,512.51L1258.39,512.51L1258.39,517.08L1262.97,517.08L1262.97,521.66L1267.54,526.24L1272.12,530.81L1272.12,535.39L1272.12,539.96L1272.12,544.54L1272.12,553.69L1272.12,558.27L1272.12,562.84L1276.7,567.42L1276.7,576.57L1281.27,581.15L1281.27,585.72L1285.85,594.88L1290.42,599.45L1295,608.6L1299.58,613.18L1304.15,617.76L1308.73,622.33L1313.3,626.91L1317.88,631.48L1322.46,631.48L1322.46,636.06L1327.03,636.06L1331.61,640.64L1331.61,645.21L1336.18,645.21L1340.76,649.79L1345.34,654.36L1349.91,658.94L1349.91,663.52L1345.34,663.52L1340.76,663.52L1336.18,663.52L1331.61,663.52L1327.03,663.52L1317.88,658.94L1313.3,658.94L1308.73,654.36L1304.15,649.79L1299.58,645.21L1295,640.64L1290.42,640.64L1285.85,640.64L1281.27,645.21L1281.27,649.79L1276.7,654.36L1272.12,658.94L1267.54,668.09L1262.97,672.67L1258.39,672.67L1253.82,672.67L1253.82,668.09L1253.82,663.52L1253.82,654.36L1253.82,645.21L1253.82,640.64L1253.82,631.48L1253.82,622.33L1249.24,617.76L1249.24,613.18L1244.66,608.6L1240.09,599.45L1235.51,594.88L1235.51,590.3L1230.94,585.72L1230.94,576.57L1226.36,572L1221.78,562.84L1221.78,558.27L1217.21,549.12L1217.21,539.96L1217.21,530.81L1217.21,521.66L1212.63,512.51L1208.06,507.93L1203.48,507.93L1203.48,512.51L1203.48,521.66" fill="none" stroke="#000000" style="-webkit-tap-highlight-color: rgba(0, 0, 0, 0); stroke-linecap: round; stroke-linejoin: round; stroke-width: 12;" /><path d="M1313.3,658.94L1313.3,654.36L1308.73,649.79L1304.15,645.21L1304.15,649.79L1308.73,658.94L1308.73,668.09L1313.3,677.24L1313.3,690.97L1317.88,704.7L1322.46,713.85L1327.03,723L1327.03,732.16L1331.61,741.31L1336.18,745.88L1336.18,755.04L1336.18,764.19L1336.18,773.34L1336.18,777.92L1336.18,787.07L1340.76,787.07L1340.76,791.64L1345.34,791.64L1349.91,787.07L1349.91,782.49L1359.06,777.92L1363.64,773.34L1368.22,768.76L1372.79,768.76L1377.37,768.76L1381.94,768.76L1381.94,777.92L1381.94,782.49L1377.37,787.07L1377.37,796.22L1372.79,800.8L1372.79,809.95L1368.22,814.52L1368.22,819.1L1363.64,823.67L1363.64,828.25L1363.64,832.83L1363.64,837.4L1363.64,841.98L1363.64,851.13L1363.64,855.71L1363.64,860.28L1363.64,864.86L1363.64,869.43L1359.06,874.01L1359.06,878.59L1354.49,878.59L1345.34,874.01L1340.76,874.01L1336.18,874.01L1327.03,874.01L1322.46,869.43L1313.3,869.43L1304.15,869.43L1295,869.43L1285.85,869.43L1281.27,874.01L1272.12,874.01L1262.97,878.59L1258.39,878.59L1253.82,883.16L1249.24,883.16L1244.66,883.16L1244.66,878.59L1244.66,869.43L1249.24,860.28L1249.24,851.13L1249.24,837.4L1249.24,828.25L1249.24,814.52L1249.24,805.37L1249.24,796.22L1244.66,782.49L1240.09,773.34L1235.51,764.19L1235.51,750.46L1235.51,736.73L1235.51,723L1235.51,709.28L1235.51,695.55L1240.09,681.82L1240.09,663.52L1240.09,649.79L1240.09,636.06L1235.51,626.91L1235.51,636.06L1240.09,645.21L1244.66,649.79" fill="none" stroke="#000000" style="-webkit-tap-highlight-color: rgba(0, 0, 0, 0); stroke-linecap: round; stroke-linejoin: round; stroke-width: 12;" /><path d="M1066.2,887.74L1061.63,887.74L1070.78,887.74L1079.93,887.74L1089.08,892.31L1102.81,896.89L1111.96,901.47L1125.69,906.04L1134.84,910.62L1139.42,915.19L1148.57,915.19L1153.14,919.77L1162.3,919.77L1166.87,919.77L1171.45,919.77L1180.6,915.19L1185.18,910.62L1189.75,906.04L1198.9,901.47L1203.48,896.89L1208.06,892.31L1217.21,887.74L1221.78,883.16L1230.94,883.16L1235.51,878.59L1240.09,878.59L1249.24,878.59L1253.82,883.16L1258.39,883.16L1262.97,887.74L1267.54,892.31L1272.12,896.89L1276.7,896.89L1281.27,901.47L1290.42,901.47L1295,901.47L1299.58,896.89L1308.73,892.31L1313.3,887.74L1317.88,883.16L1327.03,883.16L1331.61,878.59L1336.18,878.59L1340.76,874.01L1345.34,874.01L1354.49,874.01L1359.06,869.43L1368.22,869.43L1372.79,864.86L1381.94,860.28L1386.52,860.28L1395.67,855.71L1404.82,855.71L1409.4,855.71L1418.55,855.71L1423.13,855.71L1427.7,855.71L1432.28,855.71L1441.43,855.71L1446.01,851.13L1455.16,851.13L1459.73,851.13L1468.89,851.13L1473.46,851.13L1482.61,846.55L1487.19,846.55L1496.34,846.55L1500.92,841.98L1510.07,841.98L1519.22,841.98L1528.37,841.98L1537.53,841.98L1546.68,841.98L1560.41,841.98L1569.56,841.98L1578.71,841.98L1592.44,846.55L1597.01,846.55L1606.17,846.55L1610.74,851.13L1610.74,855.71L1610.74,860.28L1615.32,860.28L1615.32,864.86L1615.32,869.43L1619.89,874.01L1619.89,878.59L1619.89,883.16L1619.89,892.31L1624.47,896.89L1624.47,906.04L1624.47,910.62L1624.47,919.77L1629.05,928.92L1629.05,938.07L1633.62,947.23L1638.2,951.8L1638.2,956.38L1642.77,956.38L1642.77,960.95L1642.77,965.53L1642.77,970.11L1642.77,974.68L1642.77,979.26L1642.77,983.83L1642.77,988.41L1642.77,992.99L1642.77,997.56L1642.77,1002.14L1642.77,1006.71L1642.77,1011.29L1638.2,1015.87L1638.2,1025.02L1629.05,1029.59L1624.47,1034.17L1619.89,1038.75L1615.32,1043.32L1606.17,1043.32L1601.59,1043.32L1592.44,1043.32L1587.86,1043.32L1578.71,1043.32L1569.56,1043.32L1560.41,1043.32L1551.25,1043.32L1542.1,1043.32L1532.95,1038.75L1528.37,1038.75L1519.22,1043.32L1510.07,1043.32L1505.49,1043.32L1500.92,1047.9L1496.34,1047.9L1487.19,1047.9L1482.61,1047.9L1473.46,1052.47L1464.31,1052.47L1459.73,1052.47L1450.58,1052.47L1446.01,1057.05L1441.43,1061.63L1436.86,1066.2L1432.28,1070.78L1432.28,1075.35L1427.7,1079.93L1423.13,1084.51L1418.55,1084.51L1418.55,1079.93L1413.98,1070.78L1413.98,1061.63L1413.98,1047.9L1413.98,1029.59L1413.98,1015.87L1413.98,1002.14L1413.98,988.41L1418.55,979.26L1418.55,974.68L1423.13,965.53L1423.13,960.95L1418.55,956.38L1413.98,956.38L1404.82,951.8L1400.25,951.8L1395.67,951.8L1391.1,951.8L1386.52,951.8L1386.52,956.38L1381.94,956.38L1381.94,960.95L1381.94,965.53L1381.94,970.11L1377.37,970.11L1377.37,974.68L1372.79,974.68L1368.22,974.68L1359.06,979.26L1349.91,979.26L1340.76,979.26L1331.61,983.83L1322.46,983.83L1317.88,988.41L1313.3,992.99L1308.73,997.56L1304.15,997.56L1304.15,1002.14L1304.15,1006.71L1304.15,1011.29L1299.58,1015.87L1299.58,1020.44L1295,1025.02L1290.42,1025.02L1285.85,1029.59L1276.7,1034.17L1267.54,1034.17L1258.39,1038.75L1249.24,1038.75L1240.09,1038.75L1226.36,1038.75L1217.21,1038.75L1208.06,1038.75L1203.48,1034.17L1198.9,1034.17L1194.33,1034.17L1194.33,1029.59L1189.75,1025.02L1189.75,1020.44L1189.75,1011.29L1189.75,1006.71L1189.75,997.56L1189.75,992.99L1189.75,988.41L1189.75,983.83L1185.18,974.68L1185.18,965.53L1185.18,956.38L1180.6,947.23L1176.02,938.07L1176.02,928.92L1176.02,919.77L1176.02,915.19L1176.02,910.62L1176.02,919.77L1176.02,928.92L1176.02,942.65L1176.02,960.95L1176.02,983.83L1176.02,1002.14L1176.02,1020.44L1180.6,1034.17L1185.18,1047.9L1189.75,1057.05L1194.33,1066.2L1198.9,1070.78L1203.48,1079.93L1208.06,1084.51L1212.63,1084.51L1217.21,1084.51L1221.78,1084.51L1226.36,1079.93L1235.51,1075.35L1240.09,1075.35L1249.24,1070.78L1258.39,1070.78L1262.97,1066.2L1272.12,1066.2L1281.27,1061.63L1290.42,1061.63L1295,1061.63L1304.15,1061.63L1313.3,1057.05L1322.46,1057.05L1327.03,1057.05L1331.61,1057.05L1340.76,1057.05L1349.91,1057.05L1359.06,1057.05L1368.22,1057.05L1377.37,1057.05L1386.52,1057.05L1391.1,1057.05L1395.67,1061.63L1400.25,1061.63L1404.82,1061.63L1409.4,1061.63L1413.98,1061.63L1418.55,1061.63L1423.13,1061.63L1427.7,1061.63L1432.28,1057.05L1436.86,1052.47L1441.43,1052.47L1441.43,1057.05L1436.86,1061.63L1432.28,1066.2" fill="none" stroke="#000000" style="-webkit-tap-highlight-color: rgba(0, 0, 0, 0); stroke-linecap: round; stroke-linejoin: round; stroke-width: 12;" /><path d="M1189.75,1029.59L1180.6,1029.59L1171.45,1029.59L1166.87,1029.59L1171.45,1034.17L1176.02,1038.75L1180.6,1047.9L1189.75,1057.05L1194.33,1070.78L1203.48,1084.51L1212.63,1102.81L1217.21,1111.96L1221.78,1125.69L1226.36,1134.84L1230.94,1139.42L1235.51,1139.42L1235.51,1143.99L1240.09,1139.42L1244.66,1134.84L1249.24,1130.27L1253.82,1125.69L1258.39,1121.11L1262.97,1116.54L1267.54,1111.96L1267.54,1116.54L1267.54,1121.11L1267.54,1130.27L1262.97,1139.42L1262.97,1153.14L1262.97,1162.3L1262.97,1171.45L1262.97,1176.02L1262.97,1185.18L1262.97,1194.33L1262.97,1198.9L1262.97,1208.06L1262.97,1217.21L1262.97,1226.36L1262.97,1235.51L1258.39,1240.09L1258.39,1244.66L1258.39,1249.24L1258.39,1253.82L1253.82,1253.82L1249.24,1253.82L1244.66,1253.82L1240.09,1253.82L1235.51,1258.39L1230.94,1258.39L1221.78,1262.97L1212.63,1267.54L1203.48,1272.12L1198.9,1272.12L1189.75,1276.7L1185.18,1276.7L1180.6,1276.7L1176.02,1276.7L1180.6,1276.7L1185.18,1272.12L1198.9,1267.54L1212.63,1262.97L1230.94,1253.82L1253.82,1244.66L1267.54,1235.51L1281.27,1230.94L1290.42,1226.36L1299.58,1221.78L1308.73,1217.21L1322.46,1212.63L1331.61,1212.63L1340.76,1208.06L1349.91,1208.06L1359.06,1203.48L1368.22,1203.48L1372.79,1198.9L1377.37,1198.9L1381.94,1194.33L1386.52,1189.75L1391.1,1185.18L1395.67,1180.6L1400.25,1180.6L1404.82,1176.02L1409.4,1171.45L1413.98,1171.45L1418.55,1166.87L1427.7,1162.3L1432.28,1162.3L1436.86,1162.3L1441.43,1157.72L1446.01,1153.14L1450.58,1153.14L1455.16,1148.57L1459.73,1143.99L1464.31,1139.42L1468.89,1139.42L1473.46,1134.84L1478.04,1134.84L1482.61,1130.27L1482.61,1125.69L1491.77,1121.11L1496.34,1121.11L1500.92,1116.54L1505.49,1111.96L1510.07,1107.39L1519.22,1107.39L1523.8,1102.81L1532.95,1102.81L1537.53,1102.81L1542.1,1098.23L1551.25,1098.23L1555.83,1098.23L1560.41,1098.23L1564.98,1098.23L1569.56,1098.23L1574.13,1098.23L1578.71,1093.66L1583.29,1093.66L1587.86,1089.08L1587.86,1084.51L1592.44,1079.93L1597.01,1075.35L1597.01,1066.2L1601.59,1061.63L1601.59,1052.47L1601.59,1043.32L1601.59,1038.75L1601.59,1034.17L1597.01,1034.17L1592.44,1029.59L1583.29,1029.59L1578.71,1029.59L1569.56,1029.59L1564.98,1029.59L1560.41,1029.59L1560.41,1034.17L1564.98,1034.17" fill="none" stroke="#000000" style="-webkit-tap-highlight-color: rgba(0, 0, 0, 0); stroke-linecap: round; stroke-linejoin: round; stroke-width: 12;" /><path d="M1523.8,819.1L1523.8,823.67L1519.22,823.67L1514.65,828.25L1514.65,832.83L1510.07,832.83L1510.07,828.25L1510.07,823.67L1510.07,819.1L1514.65,814.52L1514.65,809.95L1519.22,800.8L1519.22,796.22L1523.8,791.64L1523.8,787.07L1528.37,777.92L1528.37,773.34L1532.95,768.76L1532.95,764.19L1532.95,759.61L1537.53,755.04L1537.53,750.46L1542.1,745.88L1546.68,745.88L1551.25,741.31L1555.83,741.31L1555.83,736.73L1560.41,736.73L1560.41,732.16L1560.41,727.58L1560.41,723L1560.41,718.43L1555.83,713.85L1555.83,709.28L1555.83,704.7L1551.25,700.12L1551.25,695.55L1551.25,690.97L1555.83,686.4L1560.41,681.82L1564.98,677.24L1569.56,672.67L1574.13,663.52L1578.71,658.94L1578.71,654.36L1583.29,649.79L1583.29,645.21L1583.29,640.64L1583.29,636.06L1583.29,626.91L1587.86,622.33L1587.86,617.76L1587.86,613.18L1587.86,608.6L1587.86,604.03L1587.86,599.45L1592.44,594.88L1597.01,590.3L1606.17,590.3L1610.74,590.3L1615.32,585.72L1619.89,581.15L1624.47,581.15L1629.05,585.72" fill="none" stroke="#000000" style="-webkit-tap-highlight-color: rgba(0, 0, 0, 0); stroke-linecap: round; stroke-linejoin: round; stroke-width: 12;" /><path d="M1491.77,402.69L1491.77,393.53L1487.19,388.96L1482.61,384.38L1473.46,379.81L1468.89,379.81L1464.31,379.81L1464.31,384.38L1464.31,388.96L1464.31,393.53L1468.89,398.11L1473.46,402.69L1478.04,407.26L1482.61,416.41L1491.77,420.99L1500.92,425.57L1514.65,434.72L1523.8,439.29L1537.53,443.87L1546.68,453.02L1555.83,457.6L1564.98,462.17L1574.13,471.33L1578.71,475.9L1587.86,485.05L1592.44,489.63L1597.01,498.78L1601.59,503.36L1610.74,512.51L1615.32,517.08L1619.89,521.66L1624.47,521.66L1629.05,526.24L1633.62,526.24L1642.77,526.24L1651.93,530.81L1656.5,530.81L1665.65,535.39L1670.23,535.39L1674.81,535.39L1679.38,530.81L1683.96,530.81L1688.53,526.24L1693.11,521.66L1693.11,517.08L1693.11,512.51L1693.11,507.93L1693.11,503.36L1688.53,494.2L1679.38,485.05L1661.08,475.9L1642.77,462.17L1624.47,453.02L1606.17,443.87L1597.01,434.72L1587.86,430.14L1583.29,430.14L1574.13,425.57L1564.98,420.99L1555.83,416.41L1551.25,407.26L1542.1,402.69L1537.53,398.11L1528.37,393.53L1523.8,388.96L1510.07,388.96L1500.92,384.38L1491.77,379.81L1478.04,379.81L1473.46,375.23L1482.61,375.23" fill="none" stroke="#000000" style="-webkit-tap-highlight-color: rgba(0, 0, 0, 0); stroke-linecap: round; stroke-linejoin: round; stroke-width: 12;" /><path d="M1702.26,530.81L1697.69,530.81L1693.11,530.81L1688.53,530.81L1683.96,530.81L1683.96,526.24L1688.53,526.24L1693.11,526.24L1706.84,521.66L1725.14,517.08L1743.45,517.08L1766.33,512.51L1784.63,512.51L1798.36,512.51L1812.08,507.93L1825.81,507.93L1830.39,507.93L1834.96,507.93L1839.54,512.51L1844.12,512.51L1848.69,517.08" fill="none" stroke="#000000" style="-webkit-tap-highlight-color: rgba(0, 0, 0, 0); stroke-linecap: round; stroke-linejoin: round; stroke-width: 12;" /><path d="M1976.82,471.33L1976.82,466.75L1972.24,466.75L1967.67,462.17L1963.09,462.17L1958.52,457.6L1944.79,462.17L1926.48,466.75L1912.76,471.33L1899.03,480.48L1889.88,485.05L1885.3,489.63L1880.72,494.2L1876.15,503.36L1876.15,507.93L1871.57,517.08L1871.57,526.24L1871.57,530.81L1871.57,539.96L1876.15,544.54L1880.72,553.69L1885.3,558.27L1889.88,558.27L1899.03,562.84L1908.18,562.84L1917.33,562.84L1931.06,562.84L1944.79,562.84L1953.94,562.84L1967.67,562.84L1981.4,562.84L1995.12,562.84L2008.85,558.27L2022.58,558.27L2036.31,558.27L2050.04,553.69L2063.76,553.69L2077.49,549.12L2091.22,549.12L2100.37,544.54L2109.52,544.54L2118.67,544.54L2127.83,539.96L2136.98,539.96L2146.13,535.39L2150.71,535.39L2159.86,530.81L2164.43,526.24L2169.01,521.66L2173.59,517.08L2173.59,507.93L2173.59,503.36L2173.59,494.2L2164.43,489.63L2150.71,485.05L2136.98,480.48L2118.67,480.48L2104.95,480.48L2086.64,480.48L2068.34,485.05L2054.61,485.05L2036.31,485.05L2022.58,485.05L2004.28,485.05L1990.55,489.63L1972.24,489.63L1958.52,494.2L1940.21,498.78L1926.48,507.93L1917.33,512.51L1908.18,517.08L1903.6,521.66L1903.6,526.24L1912.76,526.24L1917.33,526.24" fill="none" stroke="#000000" style="-webkit-tap-highlight-color: rgba(0, 0, 0, 0); stroke-linecap: round; stroke-linejoin: round; stroke-width: 12;" /><path d="M2292.56,425.57L2292.56,420.99L2292.56,416.41L2292.56,411.84L2287.99,411.84L2283.41,411.84L2274.26,407.26L2265.11,407.26L2251.38,407.26L2233.07,402.69L2219.35,402.69L2205.62,402.69L2191.89,402.69L2182.74,402.69L2169.01,402.69L2159.86,402.69L2150.71,407.26L2141.55,407.26L2127.83,411.84L2118.67,416.41L2114.1,425.57L2104.95,430.14L2100.37,434.72L2091.22,439.29L2091.22,448.45L2086.64,453.02L2086.64,457.6L2086.64,466.75L2091.22,471.33L2095.8,475.9L2104.95,485.05L2114.1,489.63L2127.83,498.78L2136.98,503.36L2141.55,507.93L2150.71,512.51L2155.28,521.66L2159.86,526.24L2159.86,530.81L2164.43,539.96L2169.01,544.54L2173.59,549.12L2178.16,549.12L2182.74,549.12L2191.89,549.12L2201.04,544.54L2205.62,544.54L2214.77,544.54L2223.92,539.96L2237.65,539.96L2246.8,535.39L2260.53,535.39L2269.68,535.39L2278.83,535.39L2283.41,539.96L2287.99,539.96L2297.14,539.96L2301.71,544.54L2306.29,544.54L2315.44,549.12L2320.02,549.12L2329.17,549.12L2338.32,549.12L2347.47,549.12L2356.63,544.54L2365.78,544.54L2374.93,539.96L2384.08,539.96L2393.23,539.96L2402.39,539.96L2406.96,535.39L2411.54,535.39L2416.11,526.24L2420.69,521.66L2420.69,507.93L2425.27,498.78L2425.27,489.63L2429.84,485.05L2429.84,480.48L2429.84,475.9L2425.27,471.33L2416.11,466.75L2411.54,462.17L2406.96,457.6L2397.81,453.02L2388.66,448.45L2374.93,448.45L2365.78,443.87L2352.05,443.87L2338.32,443.87L2324.59,443.87L2315.44,439.29L2301.71,434.72L2292.56,430.14L2278.83,425.57L2269.68,425.57L2265.11,425.57L2260.53,425.57L2260.53,434.72L2260.53,439.29L2274.26,443.87" fill="none" stroke="#000000" style="-webkit-tap-highlight-color: rgba(0, 0, 0, 0); stroke-linecap: round; stroke-linejoin: round; stroke-width: 12;" /><path d="M2544.24,453.02L2544.24,457.6L2544.24,453.02L2544.24,448.45L2544.24,443.87L2544.24,434.72L2544.24,430.14L2544.24,425.57L2539.66,420.99L2530.51,420.99L2521.36,420.99L2507.63,420.99L2498.48,425.57L2484.75,430.14L2471.02,439.29L2461.87,443.87L2452.72,453.02L2448.14,462.17L2443.57,466.75L2438.99,475.9L2438.99,485.05L2443.57,494.2L2448.14,503.36L2452.72,512.51L2461.87,521.66L2475.6,526.24L2489.33,530.81L2503.06,530.81L2512.21,530.81L2525.94,526.24L2535.09,521.66L2544.24,512.51L2553.39,503.36L2562.54,494.2L2567.12,480.48L2571.7,471.33L2571.7,457.6L2571.7,443.87L2567.12,430.14L2557.97,416.41L2553.39,416.41L2544.24,416.41L2539.66,430.14L2535.09,448.45" fill="none" stroke="#000000" style="-webkit-tap-highlight-color: rgba(0, 0, 0, 0); stroke-linecap: round; stroke-linejoin: round; stroke-width: 12;" /><path d="M2571.7,535.39L2567.12,526.24L2562.54,526.24L2557.97,526.24L2548.82,526.24L2535.09,530.81L2516.78,535.39L2498.48,539.96L2480.18,544.54L2452.72,549.12L2429.84,558.27L2411.54,562.84L2393.23,567.42L2374.93,572L2361.2,572L2352.05,572L2338.32,572L2324.59,567.42L2310.87,562.84L2297.14,562.84L2283.41,558.27L2274.26,558.27L2265.11,558.27L2255.95,558.27L2242.23,558.27L2233.07,558.27L2219.35,562.84L2210.19,562.84L2196.47,567.42L2187.31,567.42L2178.16,572L2164.43,576.57L2159.86,576.57L2150.71,576.57L2136.98,576.57L2123.25,576.57L2109.52,576.57L2086.64,576.57L2068.34,576.57L2050.04,576.57L2031.73,576.57L2008.85,576.57L1990.55,576.57L1972.24,576.57L1953.94,576.57L1935.64,576.57L1917.33,576.57L1899.03,576.57L1885.3,576.57L1871.57,572L1853.27,567.42L1834.96,562.84L1816.66,558.27L1802.93,553.69L1789.2,553.69L1775.48,549.12L1761.75,544.54L1752.6,539.96L1734.29,530.81L1720.57,526.24L1697.69,526.24L1679.38,526.24L1656.5,530.81L1638.2,535.39L1624.47,535.39L1610.74,539.96L1601.59,539.96L1601.59,544.54L1606.17,544.54L1615.32,544.54" fill="none" stroke="#000000" style="-webkit-tap-highlight-color: rgba(0, 0, 0, 0); stroke-linecap: round; stroke-linejoin: round; stroke-width: 12;" /><path d="M1770.9,608.6L1770.9,594.88L1775.48,590.3L1784.63,585.72L1793.78,585.72L1798.36,585.72L1812.08,585.72L1821.24,590.3L1830.39,594.88L1839.54,594.88L1848.69,599.45L1857.84,604.03L1871.57,604.03L1885.3,608.6L1899.03,608.6L1908.18,608.6L1921.91,608.6L1931.06,604.03L1940.21,604.03L1953.94,599.45L1963.09,594.88L1972.24,594.88L1976.82,590.3L1981.4,590.3L1981.4,594.88L1985.97,599.45" fill="none" stroke="#000000" style="-webkit-tap-highlight-color: rgba(0, 0, 0, 0); stroke-linecap: round; stroke-linejoin: round; stroke-width: 12;" /><path d="M1894.45,764.19L1889.88,759.61L1889.88,755.04L1885.3,755.04L1885.3,750.46L1894.45,745.88L1894.45,741.31L1908.18,736.73L1926.48,727.58L1944.79,718.43L1963.09,709.28L1976.82,700.12L1990.55,695.55L1995.12,686.4L2004.28,681.82L2013.43,677.24L2018,668.09L2027.16,663.52L2036.31,658.94L2040.88,654.36L2045.46,654.36L2050.04,649.79L2059.19,645.21L2063.76,640.64L2068.34,636.06L2072.92,636.06L2077.49,631.48L2082.07,626.91L2086.64,626.91L2091.22,622.33L2100.37,617.76L2109.52,613.18L2118.67,613.18L2123.25,613.18L2127.83,608.6L2136.98,608.6L2141.55,604.03L2150.71,599.45L2155.28,599.45L2164.43,594.88L2178.16,590.3L2191.89,585.72L2201.04,585.72L2214.77,581.15L2228.5,581.15L2237.65,576.57L2251.38,576.57L2265.11,576.57L2274.26,576.57L2287.99,576.57L2301.71,576.57L2315.44,576.57L2329.17,576.57L2342.9,576.57L2352.05,576.57L2361.2,581.15L2370.35,581.15L2379.51,581.15L2388.66,585.72L2397.81,585.72L2406.96,590.3L2416.11,590.3L2429.84,590.3L2438.99,590.3L2448.14,590.3L2461.87,590.3L2471.02,590.3L2480.18,590.3L2489.33,585.72L2498.48,585.72L2507.63,581.15L2516.78,581.15L2525.94,581.15L2535.09,581.15L2548.82,581.15L2557.97,585.72L2567.12,585.72L2571.7,590.3L2576.27,590.3L2571.7,590.3L2557.97,594.88L2525.94,604.03" fill="none" stroke="#000000" style="-webkit-tap-highlight-color: rgba(0, 0, 0, 0); stroke-linecap: round; stroke-linejoin: round; stroke-width: 12;" /><path d="M2329.17,686.4L2329.17,681.82L2329.17,668.09L2324.59,663.52L2315.44,663.52L2310.87,663.52L2301.71,663.52L2292.56,668.09L2274.26,677.24L2260.53,686.4L2246.8,695.55L2233.07,704.7L2223.92,713.85L2214.77,718.43L2205.62,723L2201.04,727.58L2191.89,732.16L2182.74,741.31L2173.59,745.88L2159.86,755.04L2150.71,759.61L2141.55,764.19L2136.98,768.76L2127.83,768.76L2118.67,773.34L2114.1,773.34L2100.37,777.92L2086.64,782.49L2077.49,787.07L2063.76,796.22L2050.04,800.8L2040.88,805.37L2031.73,809.95L2022.58,809.95L2018,814.52L2008.85,819.1L1999.7,823.67L1990.55,828.25L1981.4,832.83L1972.24,832.83L1963.09,832.83L1953.94,837.4L1944.79,837.4L1935.64,837.4L1926.48,837.4L1917.33,837.4L1908.18,832.83L1903.6,828.25L1889.88,828.25L1880.72,823.67L1871.57,819.1L1862.42,814.52L1853.27,814.52L1844.12,809.95L1839.54,805.37L1839.54,800.8L1834.96,796.22L1834.96,791.64L1834.96,787.07L1839.54,782.49L1844.12,773.34L1848.69,768.76L1857.84,764.19L1862.42,759.61L1871.57,755.04L1880.72,755.04L1889.88,750.46L1899.03,750.46L1908.18,750.46L1912.76,750.46L1912.76,755.04L1917.33,759.61L1917.33,768.76L1912.76,777.92" fill="none" stroke="#000000" style="-webkit-tap-highlight-color: rgba(0, 0, 0, 0); stroke-linecap: round; stroke-linejoin: round; stroke-width: 12;" /><path d="M1830.39,704.7L1830.39,700.12L1830.39,690.97L1830.39,686.4L1830.39,681.82L1834.96,681.82L1834.96,677.24L1834.96,672.67L1830.39,672.67L1825.81,681.82L1821.24,690.97L1816.66,700.12L1812.08,713.85L1812.08,723L1807.51,736.73L1807.51,745.88L1802.93,759.61L1802.93,768.76L1798.36,777.92L1798.36,787.07L1798.36,791.64L1798.36,796.22L1793.78,800.8L1789.2,805.37L1784.63,805.37L1780.05,809.95L1770.9,809.95L1761.75,814.52L1752.6,814.52L1743.45,819.1L1738.87,823.67L1729.72,823.67L1729.72,828.25L1725.14,832.83L1725.14,841.98L1725.14,846.55L1720.57,855.71L1720.57,864.86L1720.57,869.43L1720.57,878.59L1720.57,883.16L1725.14,892.31L1725.14,896.89L1725.14,901.47L1729.72,906.04L1729.72,910.62L1729.72,915.19L1725.14,919.77L1720.57,919.77L1720.57,924.35L1715.99,924.35L1711.41,928.92L1711.41,933.5L1706.84,933.5L1702.26,938.07L1697.69,942.65L1688.53,942.65L1688.53,947.23L1683.96,947.23L1688.53,947.23" fill="none" stroke="#000000" style="-webkit-tap-highlight-color: rgba(0, 0, 0, 0); stroke-linecap: round; stroke-linejoin: round; stroke-width: 12;" /><path d="M1629.05,938.07L1624.47,938.07L1619.89,933.5L1615.32,933.5L1610.74,928.92L1606.17,928.92L1606.17,924.35L1606.17,919.77L1606.17,910.62L1610.74,896.89L1619.89,883.16L1624.47,869.43L1633.62,855.71L1638.2,846.55L1647.35,841.98L1651.93,837.4L1656.5,832.83L1656.5,828.25L1656.5,823.67L1661.08,819.1L1661.08,814.52L1665.65,805.37L1670.23,796.22L1674.81,791.64L1679.38,782.49L1679.38,777.92L1679.38,768.76L1683.96,764.19L1688.53,755.04L1693.11,745.88L1697.69,736.73L1706.84,727.58L1711.41,723L1715.99,723L1725.14,718.43L1729.72,713.85L1738.87,713.85L1738.87,709.28L1743.45,704.7L1748.02,704.7L1748.02,695.55L1752.6,690.97L1757.17,681.82L1766.33,677.24L1770.9,668.09L1775.48,658.94L1780.05,654.36L1784.63,645.21L1784.63,640.64L1789.2,631.48L1789.2,617.76L1789.2,608.6L1789.2,590.3L1793.78,572L1798.36,562.84L1802.93,558.27L1807.51,553.69L1812.08,558.27L1812.08,567.42L1816.66,572" fill="none" stroke="#000000" style="-webkit-tap-highlight-color: rgba(0, 0, 0, 0); stroke-linecap: round; stroke-linejoin: round; stroke-width: 12;" /><path d="M1619.89,965.53L1615.32,960.95L1610.74,951.8L1610.74,942.65L1610.74,938.07L1610.74,933.5L1610.74,928.92L1615.32,924.35L1624.47,919.77L1638.2,915.19L1656.5,910.62L1674.81,906.04L1688.53,901.47L1702.26,896.89L1715.99,896.89L1725.14,901.47L1734.29,906.04L1743.45,910.62L1752.6,919.77L1761.75,924.35L1770.9,928.92L1780.05,933.5L1789.2,938.07L1798.36,942.65L1807.51,942.65L1821.24,942.65L1830.39,942.65L1839.54,938.07L1848.69,938.07L1862.42,933.5L1871.57,928.92L1885.3,928.92L1899.03,924.35L1912.76,924.35L1921.91,919.77L1931.06,919.77L1944.79,915.19L1953.94,915.19L1967.67,915.19L1981.4,915.19L1990.55,915.19L2004.28,915.19L2018,910.62L2031.73,910.62L2045.46,906.04L2054.61,906.04L2068.34,901.47L2082.07,896.89L2095.8,892.31L2109.52,892.31L2118.67,887.74L2127.83,887.74L2136.98,887.74L2141.55,887.74L2146.13,883.16L2150.71,883.16L2155.28,883.16L2159.86,878.59L2159.86,874.01L2155.28,878.59" fill="none" stroke="#000000" style="-webkit-tap-highlight-color: rgba(0, 0, 0, 0); stroke-linecap: round; stroke-linejoin: round; stroke-width: 12;" /><path d="M1496.34,1139.42L1487.19,1130.27L1482.61,1125.69L1482.61,1121.11L1482.61,1116.54L1491.77,1116.54L1500.92,1116.54L1514.65,1116.54L1528.37,1116.54L1546.68,1121.11L1564.98,1121.11L1583.29,1125.69L1606.17,1125.69L1629.05,1125.69L1647.35,1130.27L1665.65,1130.27L1683.96,1130.27L1697.69,1130.27L1715.99,1130.27L1729.72,1130.27L1738.87,1130.27L1743.45,1130.27" fill="none" stroke="#000000" style="-webkit-tap-highlight-color: rgba(0, 0, 0, 0); stroke-linecap: round; stroke-linejoin: round; stroke-width: 12;" /><path d="M2525.94,855.71L2525.94,851.13L2530.51,841.98L2530.51,837.4L2535.09,832.83L2539.66,832.83L2544.24,832.83L2535.09,841.98L2530.51,846.55L2516.78,851.13L2507.63,860.28L2493.9,864.86L2480.18,869.43L2471.02,874.01L2457.3,878.59L2448.14,878.59L2438.99,883.16L2425.27,883.16L2416.11,887.74L2402.39,896.89L2393.23,901.47L2384.08,901.47L2374.93,906.04L2370.35,915.19L2361.2,919.77L2352.05,924.35L2347.47,928.92L2338.32,938.07L2329.17,942.65L2324.59,947.23L2315.44,951.8L2306.29,951.8L2297.14,956.38L2287.99,960.95L2274.26,965.53L2265.11,970.11L2255.95,970.11L2246.8,974.68L2242.23,974.68L2237.65,974.68L2233.07,974.68L2228.5,979.26L2219.35,983.83L2214.77,988.41L2205.62,997.56L2196.47,1002.14L2191.89,1011.29L2182.74,1020.44L2178.16,1029.59L2173.59,1038.75L2169.01,1043.32L2164.43,1052.47L2164.43,1057.05L2159.86,1066.2L2155.28,1075.35L2150.71,1089.08L2150.71,1098.23L2146.13,1111.96L2146.13,1125.69L2141.55,1139.42L2132.4,1153.14L2127.83,1166.87L2123.25,1180.6L2114.1,1194.33L2109.52,1203.48L2104.95,1217.21L2095.8,1230.94L2086.64,1244.66L2082.07,1253.82L2082.07,1262.97L2077.49,1272.12L2072.92,1281.27L2072.92,1290.42L2068.34,1299.58L2068.34,1308.73L2068.34,1317.88L2068.34,1327.03L2068.34,1336.18L2068.34,1349.91L2068.34,1359.06L2068.34,1368.22L2068.34,1377.37L2068.34,1381.94L2063.76,1386.52L2063.76,1395.67L2059.19,1400.25L2054.61,1409.4L2050.04,1423.13L2040.88,1432.28L2036.31,1446.01L2031.73,1459.73L2027.16,1468.89L2027.16,1473.46L2022.58,1482.61L2018,1491.77L2013.43,1500.92L2013.43,1505.49L2018,1510.07L2022.58,1505.49" fill="none" stroke="#000000" style="-webkit-tap-highlight-color: rgba(0, 0, 0, 0); stroke-linecap: round; stroke-linejoin: round; stroke-width: 12;" /><path d="M2320.02,1299.58L2315.44,1295L2315.44,1290.42L2320.02,1290.42L2324.59,1299.58L2324.59,1308.73L2320.02,1327.03L2315.44,1349.91L2310.87,1377.37L2306.29,1404.82L2301.71,1427.7L2301.71,1446.01L2297.14,1464.31L2297.14,1478.04L2292.56,1491.77L2292.56,1500.92L2292.56,1491.77L2297.14,1478.04" fill="none" stroke="#000000" style="-webkit-tap-highlight-color: rgba(0, 0, 0, 0); stroke-linecap: round; stroke-linejoin: round; stroke-width: 12;" /><path d="M2393.23,1272.12L2384.08,1281.27L2374.93,1295L2374.93,1308.73L2374.93,1331.61L2374.93,1354.49L2374.93,1381.94L2374.93,1409.4L2374.93,1432.28L2370.35,1450.58L2365.78,1464.31L2356.63,1468.89L2333.75,1473.46L2315.44,1468.89" fill="none" stroke="#000000" style="-webkit-tap-highlight-color: rgba(0, 0, 0, 0); stroke-linecap: round; stroke-linejoin: round; stroke-width: 12;" /><path d="M1455.16,1226.36L1446.01,1226.36L1441.43,1230.94L1436.86,1235.51L1432.28,1235.51L1432.28,1240.09L1427.7,1240.09L1423.13,1240.09L1418.55,1240.09L1423.13,1240.09L1427.7,1240.09L1436.86,1240.09L1450.58,1244.66L1468.89,1249.24L1491.77,1249.24L1514.65,1249.24L1542.1,1249.24L1560.41,1249.24L1574.13,1249.24L1592.44,1249.24L1606.17,1249.24L1624.47,1253.82L1647.35,1253.82L1670.23,1253.82L1688.53,1253.82L1711.41,1253.82L1725.14,1253.82L1743.45,1258.39L1761.75,1258.39L1784.63,1262.97L1807.51,1262.97L1834.96,1262.97L1862.42,1262.97L1885.3,1262.97L1903.6,1262.97L1921.91,1267.54L1935.64,1267.54L1953.94,1267.54L1976.82,1267.54L1995.12,1267.54L2013.43,1267.54L2027.16,1267.54L2031.73,1262.97L2031.73,1258.39L2036.31,1258.39L2031.73,1258.39" fill="none" stroke="#000000" style="-webkit-tap-highlight-color: rgba(0, 0, 0, 0); stroke-linecap: round; stroke-linejoin: round; stroke-width: 12;" /><path d="M1404.82,1285.85L1400.25,1281.27L1395.67,1276.7L1395.67,1272.12L1386.52,1272.12L1381.94,1267.54L1372.79,1267.54L1363.64,1272.12L1354.49,1281.27L1345.34,1290.42L1336.18,1304.15L1331.61,1317.88L1331.61,1331.61L1327.03,1349.91L1327.03,1363.64L1331.61,1377.37L1336.18,1391.1L1345.34,1404.82L1349.91,1418.55L1359.06,1432.28L1363.64,1446.01L1368.22,1459.73L1368.22,1468.89L1368.22,1482.61L1368.22,1491.77L1363.64,1500.92L1359.06,1510.07L1354.49,1510.07L1354.49,1505.49" fill="none" stroke="#000000" style="-webkit-tap-highlight-color: rgba(0, 0, 0, 0); stroke-linecap: round; stroke-linejoin: round; stroke-width: 12;" /><path d="M910.62,1336.18L910.62,1327.03L910.62,1317.88L906.04,1317.88L901.47,1313.3L896.89,1308.73L892.31,1308.73L887.74,1317.88L883.16,1327.03L883.16,1340.76L878.59,1363.64L878.59,1391.1L878.59,1418.55L878.59,1446.01L878.59,1468.89L878.59,1491.77L878.59,1510.07" fill="none" stroke="#000000" style="-webkit-tap-highlight-color: rgba(0, 0, 0, 0); stroke-linecap: round; stroke-linejoin: round; stroke-width: 12;" /><path d="M1949.36,1116.54L1953.94,1107.39L1953.94,1102.81L1953.94,1098.23L1949.36,1102.81L1944.79,1102.81L1940.21,1102.81L1935.64,1102.81L1926.48,1098.23L1912.76,1093.66L1899.03,1089.08L1885.3,1089.08L1871.57,1084.51L1862.42,1084.51L1848.69,1079.93L1839.54,1079.93L1834.96,1084.51L1825.81,1089.08L1821.24,1093.66L1816.66,1102.81L1816.66,1107.39L1816.66,1111.96L1816.66,1121.11L1816.66,1125.69L1816.66,1134.84L1821.24,1143.99L1830.39,1148.57L1839.54,1153.14L1853.27,1157.72L1867,1162.3L1880.72,1162.3L1894.45,1162.3L1908.18,1162.3L1921.91,1162.3L1926.48,1157.72L1935.64,1153.14L1940.21,1143.99L1944.79,1139.42L1944.79,1130.27L1949.36,1125.69L1949.36,1121.11L1944.79,1111.96L1935.64,1102.81L1921.91,1093.66L1912.76,1089.08L1894.45,1089.08L1880.72,1084.51L1871.57,1084.51L1862.42,1084.51L1857.84,1084.51L1853.27,1084.51L1853.27,1089.08L1853.27,1093.66" fill="none" stroke="#000000" style="-webkit-tap-highlight-color: rgba(0, 0, 0, 0); stroke-linecap: round; stroke-linejoin: round; stroke-width: 12;" /><path d="M146.43,1125.69L141.86,1125.69L128.13,1121.11L123.55,1121.11L123.55,1116.54L123.55,1111.96L132.7,1107.39L141.86,1102.81L155.58,1093.66L173.89,1089.08L192.19,1084.51L210.49,1079.93L228.8,1089.08L242.53,1098.23L260.83,1107.39L274.56,1111.96L283.71,1116.54L297.44,1121.11L311.17,1121.11L324.89,1121.11L338.62,1121.11L352.35,1116.54L366.08,1116.54L375.23,1111.96L384.38,1111.96L393.53,1107.39L407.26,1107.39L416.41,1107.39L430.14,1102.81L443.87,1102.81L457.6,1098.23L466.75,1098.23L475.9,1093.66L480.48,1089.08L485.05,1089.08L494.2,1084.51L498.78,1084.51L503.36,1084.51L503.36,1089.08" fill="none" stroke="#000000" style="-webkit-tap-highlight-color: rgba(0, 0, 0, 0); stroke-linecap: round; stroke-linejoin: round; stroke-width: 12;" /><path d="M1436.86,1500.92L1436.86,1491.77L1432.28,1491.77L1432.28,1496.34L1432.28,1505.49" fill="none" stroke="#000000" style="-webkit-tap-highlight-color: rgba(0, 0, 0, 0); stroke-linecap: round; stroke-linejoin: round; stroke-width: 12;" /><path d="M1317.88,594.88L1308.73,599.45L1285.85,599.45L1281.27,599.45L1295,599.45L1313.3,594.88L1336.18,590.3L1359.06,590.3L1372.79,585.72L1386.52,581.15L1391.1,581.15L1391.1,590.3L1386.52,594.88" fill="none" stroke="#000000" style="-webkit-tap-highlight-color: rgba(0, 0, 0, 0); stroke-linecap: round; stroke-linejoin: round; stroke-width: 12;" /><path d="M1340.76,672.67L1340.76,677.24L1345.34,672.67L1368.22,663.52L1404.82,649.79L1441.43,640.64L1464.31,640.64L1468.89,640.64L1468.89,645.21L1459.73,654.36L1450.58,663.52" fill="none" stroke="#000000" style="-webkit-tap-highlight-color: rgba(0, 0, 0, 0); stroke-linecap: round; stroke-linejoin: round; stroke-width: 12;" /><path d="M1386.52,741.31L1381.94,741.31L1377.37,741.31L1381.94,741.31L1395.67,736.73L1423.13,732.16L1450.58,727.58L1468.89,723L1478.04,723L1478.04,718.43" fill="none" stroke="#000000" style="-webkit-tap-highlight-color: rgba(0, 0, 0, 0); stroke-linecap: round; stroke-linejoin: round; stroke-width: 12;" /><path d="M1409.4,558.27L1400.25,553.69L1391.1,553.69L1395.67,553.69L1404.82,553.69L1418.55,558.27L1427.7,567.42L1441.43,576.57L1450.58,590.3L1455.16,604.03L1459.73,617.76L1464.31,631.48L1468.89,645.21L1468.89,658.94L1468.89,672.67L1468.89,686.4L1468.89,695.55L1473.46,704.7L1478.04,713.85L1478.04,718.43L1482.61,727.58L1487.19,732.16L1496.34,741.31L1500.92,741.31L1510.07,745.88L1519.22,750.46L1528.37,755.04L1532.95,755.04L1542.1,759.61L1546.68,764.19L1546.68,768.76L1551.25,773.34L1551.25,782.49L1551.25,791.64L1555.83,796.22L1555.83,805.37L1560.41,809.95L1560.41,814.52L1564.98,814.52" fill="none" stroke="#000000" style="-webkit-tap-highlight-color: rgba(0, 0, 0, 0); stroke-linecap: round; stroke-linejoin: round; stroke-width: 12;" /><path d="M1349.91,416.41L1340.76,411.84L1327.03,407.26L1322.46,407.26L1317.88,407.26L1313.3,407.26L1308.73,407.26" fill="none" stroke="#000000" style="-webkit-tap-highlight-color: rgba(0, 0, 0, 0); stroke-linecap: round; stroke-linejoin: round; stroke-width: 12;" /><path d="M2196.47,1002.14L2191.89,1002.14L2187.31,1002.14L2182.74,1002.14L2182.74,1006.71L2182.74,1011.29L2187.31,1011.29L2191.89,1011.29L2201.04,1011.29L2210.19,1011.29L2219.35,1011.29L2228.5,1015.87L2237.65,1020.44L2246.8,1025.02L2251.38,1029.59L2260.53,1038.75L2265.11,1047.9L2269.68,1057.05L2274.26,1061.63L2278.83,1070.78L2283.41,1079.93L2283.41,1089.08L2287.99,1098.23L2287.99,1107.39L2287.99,1111.96L2292.56,1121.11L2292.56,1130.27L2292.56,1139.42L2292.56,1148.57L2297.14,1153.14L2297.14,1157.72L2297.14,1162.3L2301.71,1171.45L2306.29,1171.45L2306.29,1180.6L2310.87,1185.18L2315.44,1189.75L2320.02,1194.33L2324.59,1203.48L2333.75,1208.06L2338.32,1212.63L2342.9,1217.21L2347.47,1217.21L2352.05,1221.78L2356.63,1226.36L2356.63,1230.94L2356.63,1235.51L2356.63,1240.09L2356.63,1244.66L2356.63,1249.24L2356.63,1253.82L2356.63,1249.24" fill="none" stroke="#000000" style="-webkit-tap-highlight-color: rgba(0, 0, 0, 0); stroke-linecap: round; stroke-linejoin: round; stroke-width: 12;" /><path d="M2310.87,1116.54L2306.29,1116.54L2297.14,1116.54L2292.56,1116.54L2287.99,1116.54L2287.99,1111.96L2283.41,1111.96L2283.41,1107.39L2283.41,1102.81L2283.41,1093.66L2287.99,1089.08L2292.56,1089.08L2301.71,1089.08L2310.87,1089.08L2320.02,1093.66L2329.17,1098.23L2338.32,1098.23L2347.47,1098.23L2356.63,1098.23L2365.78,1098.23L2370.35,1093.66L2374.93,1089.08L2384.08,1084.51L2388.66,1084.51L2397.81,1079.93L2406.96,1075.35L2416.11,1070.78L2420.69,1066.2L2429.84,1066.2L2438.99,1066.2L2443.57,1061.63L2448.14,1061.63L2452.72,1061.63L2457.3,1061.63L2461.87,1066.2L2457.3,1070.78L2452.72,1070.78" fill="none" stroke="#000000" style="-webkit-tap-highlight-color: rgba(0, 0, 0, 0); stroke-linecap: round; stroke-linejoin: round; stroke-width: 12;" /><path d="M2260.53,1034.17L2255.95,1025.02L2255.95,1020.44L2265.11,1020.44L2274.26,1020.44L2283.41,1025.02L2297.14,1029.59L2310.87,1034.17L2320.02,1034.17L2329.17,1034.17L2338.32,1038.75L2347.47,1043.32L2352.05,1043.32L2361.2,1047.9L2365.78,1052.47L2370.35,1057.05L2379.51,1057.05L2388.66,1061.63L2397.81,1061.63L2402.39,1061.63L2411.54,1061.63L2416.11,1061.63L2416.11,1052.47L2416.11,1047.9L2411.54,1043.32" fill="none" stroke="#000000" style="-webkit-tap-highlight-color: rgba(0, 0, 0, 0); stroke-linecap: round; stroke-linejoin: round; stroke-width: 12;" /><path d="M2283.41,1015.87L2274.26,1015.87L2274.26,1011.29L2278.83,1006.71L2287.99,997.56L2297.14,992.99L2306.29,983.83L2315.44,979.26L2324.59,979.26L2338.32,979.26L2352.05,983.83L2361.2,988.41L2370.35,997.56L2379.51,1011.29L2388.66,1020.44L2397.81,1029.59L2402.39,1034.17L2411.54,1038.75L2420.69,1043.32L2429.84,1043.32L2434.42,1043.32L2438.99,1038.75L2443.57,1038.75" fill="none" stroke="#000000" style="-webkit-tap-highlight-color: rgba(0, 0, 0, 0); stroke-linecap: round; stroke-linejoin: round; stroke-width: 12;" /><path d="M2324.59,1208.06L2320.02,1198.9L2320.02,1194.33L2320.02,1189.75L2324.59,1185.18L2329.17,1180.6L2338.32,1180.6L2352.05,1176.02L2370.35,1176.02L2384.08,1176.02L2397.81,1176.02L2406.96,1180.6L2416.11,1189.75L2425.27,1194.33L2429.84,1198.9L2438.99,1203.48L2443.57,1208.06L2452.72,1212.63L2461.87,1217.21L2471.02,1221.78L2475.6,1221.78L2484.75,1221.78L2493.9,1221.78L2503.06,1217.21L2512.21,1212.63L2521.36,1208.06L2535.09,1203.48L2539.66,1194.33L2539.66,1189.75L2535.09,1189.75L2530.51,1189.75" fill="none" stroke="#000000" style="-webkit-tap-highlight-color: rgba(0, 0, 0, 0); stroke-linecap: round; stroke-linejoin: round; stroke-width: 12;" /><path d="M242.53,645.21L237.95,645.21L233.37,640.64L228.8,636.06L228.8,640.64L228.8,645.21L228.8,649.79L228.8,658.94L228.8,672.67L233.37,681.82L233.37,690.97L237.95,700.12L247.1,704.7L251.68,709.28L256.25,709.28L260.83,704.7L265.41,695.55L265.41,686.4L265.41,672.67L265.41,658.94L260.83,649.79L251.68,636.06L247.1,631.48L237.95,631.48L233.37,631.48L228.8,640.64L228.8,645.21L228.8,654.36L228.8,658.94" fill="none" stroke="#000000" style="-webkit-tap-highlight-color: rgba(0, 0, 0, 0); stroke-linecap: round; stroke-linejoin: round; stroke-width: 12;" /><path d="M114.4,590.3L114.4,585.72L114.4,594.88L109.82,599.45L109.82,604.03L105.25,608.6L100.67,608.6L96.1,608.6L86.94,604.03L82.37,599.45L77.79,594.88L73.22,590.3L68.64,585.72L64.06,581.15L59.49,576.57L54.91,576.57L50.34,572L45.76,572L41.18,572L36.61,572L32.03,572L27.46,572L22.88,572L18.3,572L13.73,572L9.15,567.42L9.15,562.84L9.15,558.27L9.15,549.12L9.15,544.54L13.73,539.96L18.3,539.96L22.88,544.54L22.88,553.69L27.46,562.84L27.46,576.57L32.03,590.3L36.61,604.03L41.18,608.6L45.76,608.6L50.34,608.6L59.49,604.03L64.06,599.45L68.64,594.88L73.22,594.88L82.37,594.88L86.94,590.3L91.52,590.3L96.1,590.3L100.67,590.3L105.25,594.88L109.82,594.88L109.82,599.45L114.4,599.45L114.4,604.03" fill="none" stroke="#000000" style="-webkit-tap-highlight-color: rgba(0, 0, 0, 0); stroke-linecap: round; stroke-linejoin: round; stroke-width: 12;" /><path d="M1322.46,425.57L1322.46,420.99L1322.46,416.41L1317.88,416.41L1317.88,420.99L1317.88,430.14L1317.88,439.29L1317.88,453.02L1313.3,471.33L1313.3,489.63L1313.3,503.36L1317.88,517.08L1317.88,526.24L1317.88,530.81L1322.46,530.81L1322.46,535.39L1327.03,535.39" fill="none" stroke="#000000" style="-webkit-tap-highlight-color: rgba(0, 0, 0, 0); stroke-linecap: round; stroke-linejoin: round; stroke-width: 12;" /><path d="M1299.58,402.69L1290.42,402.69L1285.85,402.69L1281.27,407.26L1276.7,411.84L1272.12,416.41L1272.12,430.14L1272.12,443.87L1272.12,457.6L1276.7,475.9L1281.27,489.63L1285.85,503.36L1285.85,512.51L1290.42,517.08L1290.42,521.66L1290.42,526.24L1290.42,530.81L1290.42,526.24L1290.42,521.66" fill="none" stroke="#000000" style="-webkit-tap-highlight-color: rgba(0, 0, 0, 0); stroke-linecap: round; stroke-linejoin: round; stroke-width: 12;" /><path d="M1102.81,430.14L1098.23,425.57L1098.23,420.99L1093.66,420.99L1089.08,420.99L1089.08,425.57L1089.08,430.14L1089.08,439.29L1089.08,448.45L1089.08,457.6L1089.08,466.75L1084.51,471.33L1084.51,475.9L1084.51,480.48L1089.08,480.48L1089.08,485.05L1093.66,485.05L1098.23,485.05L1102.81,485.05L1107.39,485.05L1111.96,485.05L1116.54,480.48L1116.54,475.9L1121.11,462.17L1121.11,453.02L1121.11,439.29L1121.11,425.57L1121.11,416.41L1121.11,411.84L1121.11,407.26L1116.54,407.26L1116.54,411.84L1121.11,416.41L1125.69,420.99" fill="none" stroke="#000000" style="-webkit-tap-highlight-color: rgba(0, 0, 0, 0); stroke-linecap: round; stroke-linejoin: round; stroke-width: 12;" /><path d="M1816.66,407.26L1812.08,402.69L1807.51,402.69L1812.08,402.69L1816.66,402.69L1816.66,407.26L1821.24,407.26L1821.24,411.84L1821.24,416.41L1825.81,420.99L1825.81,430.14L1825.81,443.87L1830.39,453.02L1830.39,466.75L1830.39,475.9L1830.39,489.63L1830.39,494.2L1830.39,498.78L1830.39,503.36L1830.39,507.93L1830.39,512.51L1830.39,517.08L1830.39,521.66L1830.39,526.24L1834.96,530.81L1834.96,535.39" fill="none" stroke="#000000" style="-webkit-tap-highlight-color: rgba(0, 0, 0, 0); stroke-linecap: round; stroke-linejoin: round; stroke-width: 12;" /><path d="M1697.69,388.96L1693.11,379.81L1693.11,375.23L1688.53,375.23L1688.53,379.81L1688.53,384.38L1688.53,393.53L1693.11,402.69L1697.69,411.84L1697.69,420.99L1697.69,434.72L1702.26,443.87L1702.26,457.6L1706.84,462.17L1706.84,471.33L1706.84,475.9L1711.41,480.48L1711.41,485.05L1711.41,489.63L1711.41,494.2L1711.41,503.36L1711.41,507.93L1715.99,507.93L1715.99,512.51L1715.99,517.08L1715.99,521.66L1715.99,526.24L1715.99,530.81L1711.41,530.81L1711.41,535.39L1715.99,530.81" fill="none" stroke="#000000" style="-webkit-tap-highlight-color: rgba(0, 0, 0, 0); stroke-linecap: round; stroke-linejoin: round; stroke-width: 12;" /><path d="M2374.93,361.5L2374.93,356.93L2374.93,361.5L2374.93,370.65L2374.93,379.81L2374.93,388.96L2374.93,402.69L2370.35,416.41L2370.35,425.57L2365.78,434.72L2365.78,439.29L2365.78,443.87L2365.78,448.45L2370.35,448.45L2370.35,443.87L2374.93,439.29L2384.08,434.72L2384.08,430.14" fill="none" stroke="#000000" style="-webkit-tap-highlight-color: rgba(0, 0, 0, 0); stroke-linecap: round; stroke-linejoin: round; stroke-width: 12;" /><path d="M2461.87,329.47L2461.87,334.05L2461.87,338.62L2457.3,343.2L2457.3,356.93L2457.3,370.65L2452.72,384.38L2452.72,402.69L2452.72,411.84L2457.3,420.99L2457.3,425.57L2461.87,425.57L2461.87,430.14L2461.87,434.72" fill="none" stroke="#000000" style="-webkit-tap-highlight-color: rgba(0, 0, 0, 0); stroke-linecap: round; stroke-linejoin: round; stroke-width: 12;" /><path d="M2406.96,352.35L2411.54,347.77L2411.54,343.2L2406.96,343.2L2406.96,347.77L2402.39,356.93L2402.39,361.5L2402.39,370.65L2402.39,379.81L2402.39,393.53L2402.39,402.69L2402.39,416.41L2402.39,425.57L2402.39,430.14L2402.39,439.29L2406.96,443.87L2406.96,448.45L2406.96,453.02L2411.54,457.6L2411.54,462.17L2411.54,466.75" fill="none" stroke="#000000" style="-webkit-tap-highlight-color: rgba(0, 0, 0, 0); stroke-linecap: round; stroke-linejoin: round; stroke-width: 12;" /><path d="M2521.36,526.24L2521.36,521.66L2525.94,517.08L2525.94,512.51L2530.51,512.51L2539.66,507.93L2553.39,503.36L2562.54,498.78L2571.7,498.78L2585.42,498.78L2590,498.78" fill="none" stroke="#000000" style="-webkit-tap-highlight-color: rgba(0, 0, 0, 0); stroke-linecap: round; stroke-linejoin: round; stroke-width: 12;" /><path d="M2590,507.93" fill="none" stroke="#000000" style="-webkit-tap-highlight-color: rgba(0, 0, 0, 0); stroke-linecap: round; stroke-linejoin: round; stroke-width: 12;" /><path d="M1661.08,915.19L1656.5,915.19L1647.35,906.04L1647.35,901.47L1647.35,906.04L1651.93,910.62L1656.5,915.19L1665.65,915.19L1674.81,915.19L1688.53,915.19L1697.69,915.19L1706.84,915.19L1711.41,915.19L1715.99,915.19L1720.57,915.19L1720.57,910.62" fill="none" stroke="#000000" style="-webkit-tap-highlight-color: rgba(0, 0, 0, 0); stroke-linecap: round; stroke-linejoin: round; stroke-width: 12;" /><path d="M1656.5,970.11L1647.35,965.53L1647.35,960.95L1651.93,956.38L1661.08,951.8L1670.23,951.8L1688.53,951.8L1702.26,951.8L1711.41,951.8L1720.57,951.8L1725.14,951.8L1725.14,956.38" fill="none" stroke="#000000" style="-webkit-tap-highlight-color: rgba(0, 0, 0, 0); stroke-linecap: round; stroke-linejoin: round; stroke-width: 12;" /><path d="M1656.5,1047.9L1651.93,1043.32L1642.77,1038.75L1642.77,1034.17L1642.77,1029.59L1647.35,1029.59L1661.08,1029.59L1674.81,1029.59L1693.11,1025.02L1720.57,1025.02L1743.45,1025.02L1770.9,1025.02L1789.2,1025.02L1802.93,1025.02L1807.51,1025.02L1812.08,1025.02L1807.51,1029.59L1802.93,1034.17L1798.36,1038.75" fill="none" stroke="#000000" style="-webkit-tap-highlight-color: rgba(0, 0, 0, 0); stroke-linecap: round; stroke-linejoin: round; stroke-width: 12;" /><path d="M1651.93,1070.78L1651.93,1066.2L1647.35,1057.05L1651.93,1057.05L1661.08,1057.05L1679.38,1057.05L1702.26,1061.63L1725.14,1070.78L1743.45,1075.35L1757.17,1079.93L1757.17,1084.51L1757.17,1079.93" fill="none" stroke="#000000" style="-webkit-tap-highlight-color: rgba(0, 0, 0, 0); stroke-linecap: round; stroke-linejoin: round; stroke-width: 12;" /><path d="M2406.96,782.49L2402.39,782.49L2402.39,773.34L2402.39,764.19L2406.96,750.46L2411.54,741.31L2420.69,727.58L2425.27,718.43L2434.42,709.28L2438.99,709.28L2448.14,704.7L2452.72,704.7L2457.3,700.12L2461.87,700.12L2461.87,690.97L2461.87,686.4L2461.87,677.24L2461.87,668.09L2461.87,658.94L2457.3,654.36L2452.72,649.79L2443.57,645.21L2429.84,640.64L2425.27,636.06L2420.69,636.06L2411.54,631.48L2402.39,631.48L2397.81,626.91L2397.81,622.33L2397.81,617.76L2397.81,613.18L2397.81,608.6L2402.39,599.45L2411.54,594.88L2416.11,590.3L2420.69,585.72L2425.27,585.72L2425.27,590.3L2425.27,594.88L2420.69,604.03L2420.69,613.18" fill="none" stroke="#000000" style="-webkit-tap-highlight-color: rgba(0, 0, 0, 0); stroke-linecap: round; stroke-linejoin: round; stroke-width: 12;" /><path d="M2329.17,841.98L2329.17,837.4L2338.32,832.83L2338.32,837.4L2333.75,841.98L2329.17,851.13L2320.02,860.28L2306.29,864.86L2292.56,869.43L2278.83,869.43L2269.68,869.43L2260.53,869.43L2251.38,864.86L2237.65,860.28L2228.5,860.28L2219.35,855.71L2210.19,851.13L2201.04,846.55L2191.89,841.98L2187.31,837.4L2178.16,832.83L2169.01,823.67L2164.43,823.67L2155.28,819.1L2141.55,819.1L2132.4,814.52L2118.67,814.52L2109.52,814.52L2104.95,814.52L2095.8,819.1L2095.8,823.67L2100.37,828.25" fill="none" stroke="#000000" style="-webkit-tap-highlight-color: rgba(0, 0, 0, 0); stroke-linecap: round; stroke-linejoin: round; stroke-width: 12;" /><path d="M2480.18,732.16L2480.18,723L2475.6,695.55L2480.18,690.97L2484.75,686.4L2489.33,686.4L2493.9,686.4L2503.06,686.4L2512.21,686.4L2516.78,686.4L2525.94,690.97L2535.09,690.97L2544.24,695.55L2548.82,700.12L2548.82,709.28L2548.82,713.85L2548.82,727.58L2548.82,736.73L2553.39,750.46L2553.39,759.61L2553.39,768.76L2553.39,777.92L2557.97,782.49L2557.97,791.64L2567.12,791.64L2571.7,791.64L2576.27,796.22L2580.85,796.22L2580.85,791.64L2580.85,787.07L2576.27,782.49L2571.7,777.92" fill="none" stroke="#000000" style="-webkit-tap-highlight-color: rgba(0, 0, 0, 0); stroke-linecap: round; stroke-linejoin: round; stroke-width: 12;" /><path d="M160.16,475.9L160.16,471.33L160.16,466.75L160.16,471.33L164.73,475.9L169.31,475.9L173.89,480.48L178.46,485.05L183.04,485.05L192.19,489.63L196.77,489.63L205.92,489.63L215.07,489.63L224.22,485.05L233.37,485.05L242.53,485.05L256.25,480.48L265.41,480.48L269.98,480.48L279.13,480.48L288.29,480.48L297.44,480.48L311.17,480.48L320.32,480.48L334.05,480.48L343.2,480.48L352.35,480.48L366.08,480.48L375.23,480.48L384.38,480.48L393.53,485.05L402.69,485.05L411.84,485.05L420.99,485.05L425.57,485.05L434.72,485.05L443.87,485.05L453.02,485.05L462.17,485.05L466.75,485.05L475.9,485.05L480.48,485.05L489.63,485.05L494.2,485.05L498.78,485.05L507.93,489.63L512.51,489.63L521.66,489.63L526.24,489.63L530.81,489.63L539.96,489.63L549.12,489.63L553.69,489.63L562.84,489.63L572,489.63L581.15,489.63L585.72,489.63L594.88,485.05L604.03,485.05L613.18,485.05L622.33,485.05L631.48,485.05L640.64,485.05L649.79,485.05L658.94,485.05L668.09,485.05L677.24,485.05L686.4,485.05L695.55,485.05L700.12,485.05L709.28,480.48L718.43,480.48L723,480.48L727.58,480.48L736.73,480.48L741.31,480.48L745.88,480.48L750.46,480.48L759.61,480.48L764.19,480.48L773.34,480.48L777.92,480.48L787.07,480.48L791.64,480.48L796.22,480.48L800.8,480.48L809.95,485.05L814.52,485.05L819.1,485.05L828.25,485.05L832.83,489.63L841.98,489.63L846.55,489.63L851.13,494.2L855.71,494.2L860.28,494.2L860.28,498.78L855.71,498.78L851.13,498.78L846.55,498.78" fill="none" stroke="#000000" style="-webkit-tap-highlight-color: rgba(0, 0, 0, 0); stroke-linecap: round; stroke-linejoin: round; stroke-width: 12;" /><path d="M1436.86,1285.85L1432.28,1290.42L1427.7,1295L1423.13,1295L1418.55,1290.42L1413.98,1290.42L1409.4,1285.85L1404.82,1285.85L1400.25,1290.42L1400.25,1295L1395.67,1304.15L1395.67,1313.3L1400.25,1322.46L1404.82,1331.61L1413.98,1340.76L1423.13,1349.91L1432.28,1359.06L1441.43,1368.22L1450.58,1372.79L1455.16,1381.94L1459.73,1391.1L1459.73,1400.25L1464.31,1404.82L1464.31,1413.98L1464.31,1423.13L1464.31,1427.7L1459.73,1432.28L1459.73,1436.86L1459.73,1441.43L1459.73,1446.01L1459.73,1455.16L1464.31,1464.31L1464.31,1468.89L1468.89,1478.04L1468.89,1487.19L1468.89,1496.34L1468.89,1500.92L1468.89,1505.49L1468.89,1500.92" fill="none" stroke="#000000" style="-webkit-tap-highlight-color: rgba(0, 0, 0, 0); stroke-linecap: round; stroke-linejoin: round; stroke-width: 12;" /></svg>