<?xml version="1.0" encoding="utf-8" ?>
<svg baseProfile="full" height="1512" version="1.1" width="2590" xmlns="http://www.w3.org/2000/svg" xmlns:ev="http://www.w3.org/2001/xml-events" xmlns:xlink="http://www.w3.org/1999/xlink"><defs /><path d="M126.48,481.38L124.59,479.49L122.7,479.49L122.7,477.6L120.82,475.71L117.04,475.71L115.15,477.6L113.27,481.38L113.27,483.27L111.38,492.7L113.27,496.48L115.15,502.14L117.04,505.92L118.93,509.69L120.82,515.36L120.82,519.13L120.82,526.68L120.82,530.46L120.82,541.79L120.82,549.34L120.82,556.89L122.7,562.55L122.7,568.21L126.48,579.54L128.37,583.32L130.26,592.76L130.26,594.64L128.37,605.97L128.37,611.63L122.7,638.06L122.7,641.84L122.7,647.5L122.7,653.16L117.04,662.6L117.04,670.15L115.15,677.7L115.15,685.26L113.27,689.03L113.27,700.36L113.27,702.24L113.27,715.46L111.38,721.12L113.27,728.67L113.27,732.45L113.27,738.11L113.27,741.89L113.27,745.66L113.27,749.44L115.15,753.21L115.15,755.1L115.15,756.99L115.15,758.88L115.15,760.77" fill="none" stroke="#000000" style="-webkit-tap-highlight-color: rgba(0, 0, 0, 0); stroke-linecap: round; stroke-linejoin: round; stroke-width: 12;" /><path d="M124.59,483.27" fill="none" stroke="#000000" style="-webkit-tap-highlight-color: rgba(0, 0, 0, 0); stroke-linecap: round; stroke-linejoin: round; stroke-width: 12;" /><path d="M124.59,479.49L126.48,477.6L128.37,475.71L130.26,475.71L134.03,473.83L135.92,473.83L137.81,475.71L141.58,475.71L149.13,473.83L156.68,473.83L166.12,473.83L173.67,473.83L183.11,473.83L192.55,475.71L201.99,475.71L209.54,475.71L220.87,475.71L224.64,477.6L234.08,477.6L235.97,475.71L249.18,473.83L254.85,473.83L260.51,471.94L266.17,473.83L271.84,471.94L277.5,471.94L285.05,471.94L290.71,473.83L298.27,475.71L303.93,475.71L309.59,475.71L315.26,477.6L319.03,477.6L328.47,477.6L334.13,479.49L337.91,481.38L349.23,481.38L358.67,481.38L368.11,481.38L375.66,479.49L383.21,479.49L390.77,479.49L398.32,479.49L403.98,477.6L411.53,479.49L426.63,481.38L434.18,481.38L441.73,481.38L449.29,481.38L456.84,483.27L464.39,483.27L471.94,483.27L483.27,483.27L492.7,483.27L498.37,483.27L502.14,483.27L519.13,483.27L524.8,483.27L532.35,483.27L539.9,483.27L547.45,485.15L555,485.15L564.44,487.04L566.33,487.04L573.88,485.15L587.09,485.15L594.64,485.15L600.31,483.27L605.97,483.27L611.63,483.27L622.96,483.27L626.73,483.27L636.17,483.27L639.95,483.27L656.94,485.15L664.49,485.15L672.04,487.04L679.59,485.15L687.14,485.15L696.58,487.04L707.91,487.04L711.68,487.04L724.9,487.04L736.22,487.04L743.78,485.15L751.33,485.15L760.77,485.15L768.32,485.15L781.53,487.04L789.08,487.04L796.63,487.04L802.3,487.04L811.73,488.93L817.4,488.93L819.29,488.93L821.17,488.93L824.95,487.04L826.84,487.04L828.72,488.93" fill="none" stroke="#000000" style="-webkit-tap-highlight-color: rgba(0, 0, 0, 0); stroke-linecap: round; stroke-linejoin: round; stroke-width: 12;" /><path d="M866.48,481.38L866.48,479.49L870.26,477.6L875.92,477.6L881.58,479.49L891.02,481.38L904.23,481.38L909.9,483.27L925,485.15L930.66,485.15L955.2,487.04L966.53,488.93L975.97,490.82L987.3,492.7L996.73,492.7L1011.84,496.48L1017.5,496.48L1032.6,496.48L1038.27,496.48L1055.26,498.37L1064.69,500.26L1072.24,502.14L1081.68,502.14L1089.23,504.03L1102.45,505.92L1106.22,505.92L1119.44,507.81L1123.21,507.81L1147.76,511.58L1151.53,511.58L1159.08,511.58L1166.63,513.47L1177.96,517.24L1181.73,517.24L1191.17,517.24L1194.95,517.24L1208.16,517.24L1213.83,515.36L1219.49,517.24L1225.15,517.24L1230.82,519.13" fill="none" stroke="#000000" style="-webkit-tap-highlight-color: rgba(0, 0, 0, 0); stroke-linecap: round; stroke-linejoin: round; stroke-width: 12;" /><path d="M1249.69,371.89L1247.81,370L1242.14,368.11L1238.37,368.11L1225.15,373.78L1215.71,375.66L1208.16,379.44L1202.5,383.21L1196.84,385.1L1191.17,390.77L1187.4,390.77L1181.73,394.54L1177.96,394.54L1168.52,400.2L1162.86,402.09L1159.08,405.87L1153.42,407.76L1149.64,411.53L1147.76,413.42L1143.98,415.31L1138.32,417.19L1134.54,419.08L1126.99,420.97L1123.21,424.74L1119.44,426.63L1117.55,426.63L1113.78,428.52L1110,430.41L1110,432.3L1108.11,434.18L1106.22,436.07L1104.34,437.96L1102.45,439.85L1100.56,439.85L1098.67,439.85L1094.9,439.85L1089.23,436.07L1085.46,434.18L1083.57,432.3L1081.68,428.52L1079.8,426.63L1077.91,422.86L1076.02,422.86L1076.02,420.97L1074.13,419.08L1072.24,419.08L1070.36,417.19L1068.47,417.19L1064.69,415.31L1060.92,415.31L1055.26,415.31L1053.37,415.31L1042.04,415.31L1036.38,415.31L1030.71,413.42L1025.05,411.53L1019.39,411.53L1013.72,409.64L1008.06,409.64L1002.4,409.64L994.85,409.64L979.74,409.64L972.19,409.64L964.64,407.76L957.09,407.76L949.54,405.87L936.33,405.87L932.55,407.76L925,407.76L919.34,409.64L906.12,411.53L902.35,411.53L898.57,411.53L894.8,413.42L891.02,415.31L885.36,415.31L881.58,415.31L879.69,415.31L877.81,415.31L875.92,415.31L874.03,413.42L874.03,411.53L872.14,409.64L872.14,407.76L870.26,403.98L868.37,402.09L866.48,398.32L864.59,396.43L857.04,390.77L853.27,388.88L851.38,386.99L847.6,386.99L843.83,386.99L838.16,386.99L836.28,386.99L832.5,385.1L828.72,385.1L826.84,385.1L823.06,385.1L821.17,385.1L819.29,385.1L817.4,385.1L815.51,386.99L813.62,388.88L809.85,390.77L806.07,392.65L802.3,394.54L800.41,396.43L796.63,398.32L792.86,402.09L790.97,403.98L789.08,405.87L785.31,407.76L783.42,411.53L781.53,415.31L781.53,419.08L779.64,422.86L779.64,426.63L779.64,428.52L779.64,434.18L779.64,436.07L777.76,437.96L777.76,441.73L775.87,443.62L773.98,445.51L773.98,447.4L770.2,447.4L768.32,449.29L764.54,447.4L762.65,449.29L756.99,451.17L753.21,451.17L751.33,453.06L749.44,453.06L745.66,454.95L743.78,456.84L740,458.72L738.11,458.72L736.22,460.61L734.34,462.5L732.45,466.28L732.45,470.05L730.56,471.94L726.79,479.49L726.79,481.38" fill="none" stroke="#000000" style="-webkit-tap-highlight-color: rgba(0, 0, 0, 0); stroke-linecap: round; stroke-linejoin: round; stroke-width: 12;" /><path d="M675.82,460.61L675.82,464.39L675.82,468.16L675.82,470.05L673.93,468.16L673.93,466.28L672.04,464.39L672.04,460.61L670.15,454.95L668.27,453.06L666.38,447.4L664.49,441.73L662.6,437.96L658.83,434.18L655.05,432.3L653.16,432.3L649.39,428.52L647.5,426.63L645.61,426.63L636.17,424.74L630.51,420.97L621.07,419.08L619.18,419.08L609.74,419.08L605.97,419.08L600.31,420.97L592.76,422.86L579.54,424.74L573.88,424.74L570.1,424.74L564.44,426.63L558.78,426.63L555,428.52L551.22,430.41L547.45,430.41L543.67,434.18L541.79,437.96L539.9,439.85L539.9,441.73L539.9,443.62L541.79,447.4L541.79,451.17L543.67,458.72L545.56,462.5L545.56,464.39L547.45,464.39L549.34,470.05L551.22,470.05L553.11,475.71L558.78,483.27L560.66,487.04" fill="none" stroke="#000000" style="-webkit-tap-highlight-color: rgba(0, 0, 0, 0); stroke-linecap: round; stroke-linejoin: round; stroke-width: 12;" /><path d="M437.96,475.71L437.96,473.83L436.07,470.05L434.18,468.16L428.52,464.39L424.74,460.61L419.08,458.72L415.31,454.95L411.53,453.06L409.64,451.17L405.87,451.17L403.98,451.17L398.32,451.17L392.65,453.06L386.99,454.95L381.33,456.84L375.66,460.61L368.11,464.39L360.56,468.16L354.9,473.83L347.35,477.6L341.68,481.38L336.02,487.04L332.24,488.93L330.36,488.93L328.47,492.7L328.47,496.48" fill="none" stroke="#000000" style="-webkit-tap-highlight-color: rgba(0, 0, 0, 0); stroke-linecap: round; stroke-linejoin: round; stroke-width: 12;" /><path d="M1228.93,385.1L1228.93,383.21L1228.93,381.33L1230.82,377.55L1232.7,373.78L1236.48,370L1247.81,366.22L1255.36,366.22L1262.91,366.22L1268.57,366.22L1283.67,371.89L1289.34,373.78L1296.89,375.66L1302.55,377.55L1306.33,379.44L1310.1,385.1L1311.99,388.88L1311.99,392.65L1313.88,396.43L1315.77,398.32L1317.65,400.2L1317.65,402.09L1321.43,402.09L1323.32,400.2L1327.09,398.32L1328.98,398.32L1330.87,394.54L1332.76,394.54L1336.53,392.65L1340.31,390.77L1344.08,388.88L1347.86,386.99L1349.74,385.1L1359.18,383.21L1364.85,381.33L1372.4,381.33L1379.95,379.44L1389.39,379.44L1398.83,377.55L1406.38,375.66L1413.93,375.66L1421.48,375.66L1432.81,373.78L1438.47,373.78L1444.13,373.78L1449.8,373.78L1453.57,373.78L1457.35,373.78L1463.01,375.66L1468.67,375.66L1474.34,375.66L1487.55,375.66L1493.21,375.66L1498.88,377.55L1504.54,379.44L1506.43,381.33L1510.2,383.21L1512.09,385.1L1517.76,386.99L1519.64,386.99L1527.19,388.88L1530.97,386.99L1536.63,386.99L1542.3,386.99L1546.07,386.99L1551.73,385.1L1555.51,383.21L1557.4,385.1L1563.06,385.1L1570.61,383.21L1576.28,383.21L1580.05,383.21L1585.71,381.33L1589.49,381.33L1591.38,381.33L1600.82,377.55L1610.26,377.55L1615.92,375.66L1621.58,373.78L1627.24,371.89L1632.91,370L1638.57,370L1646.12,368.11L1651.79,366.22L1657.45,366.22L1659.34,366.22L1668.78,364.34L1674.44,364.34L1680.1,362.45L1687.65,362.45L1693.32,360.56L1702.76,360.56L1708.42,360.56L1714.08,360.56L1721.63,360.56L1727.3,360.56L1734.85,362.45L1740.51,364.34L1746.17,364.34L1751.84,366.22L1761.28,368.11L1766.94,368.11L1770.71,370L1774.49,371.89L1780.15,371.89L1783.93,373.78L1785.82,373.78L1789.59,375.66L1791.48,377.55L1795.26,379.44L1797.14,379.44L1799.03,381.33L1800.92,381.33L1804.69,381.33L1806.58,381.33L1806.58,383.21" fill="none" stroke="#000000" style="-webkit-tap-highlight-color: rgba(0, 0, 0, 0); stroke-linecap: round; stroke-linejoin: round; stroke-width: 12;" /><path d="M1797.14,390.77L1799.03,390.77L1799.03,392.65L1800.92,394.54L1802.81,398.32L1802.81,400.2L1802.81,403.98L1804.69,403.98L1806.58,407.76L1808.47,409.64L1808.47,411.53L1808.47,407.76L1808.47,403.98L1810.36,402.09L1810.36,400.2L1810.36,398.32L1810.36,394.54L1810.36,392.65L1810.36,390.77L1810.36,388.88L1810.36,385.1L1812.24,383.21L1812.24,381.33L1814.13,379.44L1816.02,377.55L1823.57,373.78L1829.23,373.78L1834.9,375.66L1840.56,373.78L1844.34,375.66L1850,375.66L1851.89,375.66L1857.55,375.66L1863.21,377.55L1876.43,377.55L1882.09,377.55L1889.64,379.44L1895.31,377.55L1900.97,379.44L1910.41,381.33L1912.3,379.44L1919.85,379.44L1929.29,381.33L1934.95,381.33L1938.72,381.33L1940.61,381.33L1948.16,383.21L1953.83,383.21L1957.6,381.33L1965.15,383.21L1972.7,385.1L1974.59,385.1L1984.03,386.99L1987.81,386.99L1993.47,388.88L1997.24,388.88L1999.13,388.88L2004.8,388.88L2008.57,390.77L2010.46,390.77L2014.23,390.77L2016.12,390.77L2018.01,390.77L2021.79,388.88L2023.67,386.99L2029.34,386.99L2033.11,385.1L2040.66,381.33L2042.55,379.44L2046.33,377.55L2048.21,377.55L2048.21,375.66L2050.1,373.78L2053.88,371.89L2059.54,366.22L2065.2,362.45L2068.98,360.56L2072.76,358.67L2080.31,356.79L2085.97,356.79L2091.63,356.79L2093.52,354.9L2106.73,354.9L2112.4,354.9L2116.17,356.79L2121.84,356.79L2125.61,356.79L2131.28,354.9L2135.05,353.01L2140.71,351.12L2144.49,351.12L2153.93,351.12L2159.59,351.12L2163.37,349.23L2165.26,349.23L2170.92,349.23L2191.68,343.57L2197.35,343.57L2201.12,341.68L2206.79,341.68L2212.45,339.8L2218.11,339.8L2223.78,339.8L2227.55,339.8L2236.99,339.8L2242.65,339.8L2248.32,339.8L2250.2,339.8L2261.53,337.91L2267.19,337.91L2272.86,337.91L2278.52,339.8L2286.07,337.91L2295.51,337.91L2299.29,337.91L2306.84,336.02L2312.5,336.02L2320.05,334.13L2323.83,332.24L2329.49,330.36L2333.27,330.36L2337.04,328.47L2344.59,324.69L2346.48,322.81L2352.14,320.92L2357.81,319.03L2361.58,317.14L2365.36,315.26L2371.02,313.37L2372.91,311.48L2378.57,311.48L2386.12,311.48L2393.67,311.48L2399.34,311.48L2405,311.48L2414.44,313.37L2420.1,315.26L2427.65,315.26L2433.32,317.14L2438.98,317.14L2446.53,319.03L2448.42,319.03L2452.19,320.92L2457.86,320.92L2463.52,322.81L2469.18,324.69L2471.07,324.69L2474.85,326.58L2478.62,326.58L2484.29,328.47L2486.17,328.47L2488.06,330.36L2493.72,330.36L2497.5,330.36L2499.39,330.36L2506.94,332.24L2508.83,332.24L2510.71,332.24L2512.6,334.13L2514.49,334.13L2514.49,336.02L2516.38,336.02L2516.38,337.91L2516.38,341.68L2518.27,341.68L2518.27,349.23L2518.27,351.12L2518.27,353.01L2518.27,356.79L2518.27,360.56L2518.27,366.22L2516.38,370L2516.38,371.89L2516.38,377.55L2516.38,379.44L2516.38,383.21L2516.38,385.1L2518.27,388.88L2520.15,390.77L2523.93,392.65L2525.82,392.65L2529.59,392.65L2531.48,392.65L2535.26,390.77L2539.03,388.88L2540.92,388.88L2542.81,390.77L2544.69,390.77L2546.58,388.88L2548.47,386.99L2548.47,385.1L2548.47,379.44L2546.58,373.78L2544.69,368.11L2542.81,362.45L2542.81,358.67L2540.92,356.79L2540.92,353.01L2540.92,347.35L2540.92,345.46L2542.81,336.02L2542.81,334.13L2542.81,332.24L2544.69,326.58L2546.58,324.69L2546.58,322.81L2548.47,320.92L2550.36,319.03L2557.91,319.03L2563.57,319.03L2571.12,319.03L2580.56,322.81L2590,324.69" fill="none" stroke="#000000" style="-webkit-tap-highlight-color: rgba(0, 0, 0, 0); stroke-linecap: round; stroke-linejoin: round; stroke-width: 12;" /><path d="M2586.22,437.96L2586.22,432.3L2586.22,430.41L2586.22,428.52L2584.34,426.63L2584.34,422.86L2580.56,420.97L2574.9,417.19L2571.12,415.31L2569.23,413.42L2561.68,411.53L2557.91,411.53L2546.58,407.76L2540.92,407.76L2527.7,407.76L2520.15,405.87L2510.71,405.87L2501.28,407.76L2493.72,409.64L2486.17,411.53L2474.85,415.31L2467.3,415.31L2461.63,417.19L2455.97,420.97L2454.08,422.86L2454.08,424.74L2452.19,426.63L2452.19,428.52L2452.19,432.3L2452.19,434.18L2454.08,437.96L2455.97,441.73L2455.97,443.62L2455.97,445.51L2455.97,449.29L2455.97,451.17L2454.08,453.06L2452.19,453.06L2450.31,454.95L2448.42,458.72L2448.42,460.61L2446.53,464.39L2446.53,470.05L2444.64,475.71L2444.64,477.6L2444.64,481.38L2444.64,483.27L2446.53,485.15" fill="none" stroke="#000000" style="-webkit-tap-highlight-color: rgba(0, 0, 0, 0); stroke-linecap: round; stroke-linejoin: round; stroke-width: 12;" /><path d="M2089.74,394.54L2089.74,392.65L2091.63,392.65L2097.3,390.77L2104.85,388.88L2119.95,390.77L2125.61,392.65L2144.49,392.65L2150.15,392.65L2170.92,394.54L2182.24,396.43L2197.35,398.32L2210.56,402.09L2225.66,405.87L2236.99,407.76L2248.32,407.76L2263.42,409.64L2269.08,409.64L2284.18,413.42L2289.85,415.31L2297.4,419.08L2303.06,419.08L2308.72,420.97L2316.28,419.08L2318.16,419.08L2325.71,417.19L2327.6,415.31L2342.7,415.31L2350.26,415.31L2355.92,417.19L2363.47,419.08L2369.13,422.86L2378.57,426.63L2382.35,430.41L2388.01,436.07L2391.79,437.96L2395.56,441.73L2399.34,443.62L2403.11,447.4L2406.89,451.17L2408.78,454.95L2410.66,460.61L2412.55,464.39L2412.55,468.16L2412.55,470.05L2414.44,471.94L2414.44,473.83L2414.44,477.6L2414.44,479.49L2416.33,483.27L2416.33,487.04L2414.44,490.82L2414.44,496.48L2412.55,498.37L2410.66,507.81L2408.78,511.58L2406.89,513.47L2405,515.36L2403.11,517.24L2401.22,519.13L2401.22,521.02L2399.34,524.8L2397.45,524.8L2393.67,524.8L2391.79,526.68L2389.9,526.68L2386.12,530.46L2382.35,532.35L2380.46,534.23L2378.57,536.12L2376.68,539.9L2374.8,541.79L2372.91,545.56L2371.02,549.34L2371.02,551.22L2369.13,555L2369.13,556.89L2369.13,558.78L2365.36,560.66L2363.47,562.55L2359.69,564.44L2354.03,564.44L2352.14,566.33L2346.48,566.33L2340.82,566.33L2331.38,568.21L2323.83,571.99" fill="none" stroke="#000000" style="-webkit-tap-highlight-color: rgba(0, 0, 0, 0); stroke-linecap: round; stroke-linejoin: round; stroke-width: 12;" /><path d="M1572.5,439.85L1572.5,437.96L1568.72,437.96L1566.84,437.96L1564.95,437.96" fill="none" stroke="#000000" style="-webkit-tap-highlight-color: rgba(0, 0, 0, 0); stroke-linecap: round; stroke-linejoin: round; stroke-width: 12;" /><path d="M1532.86,436.07L1525.31,428.52L1523.42,422.86L1519.64,417.19L1517.76,411.53L1513.98,405.87L1510.2,402.09L1513.98,400.2L1517.76,398.32L1525.31,398.32L1530.97,398.32L1538.52,400.2L1549.85,402.09L1566.84,405.87L1574.39,411.53L1581.94,415.31L1587.6,422.86L1593.27,430.41L1598.93,437.96L1606.48,447.4L1612.14,451.17L1619.69,458.72L1629.13,466.28L1636.68,471.94L1642.35,475.71L1649.9,479.49L1657.45,483.27L1666.89,487.04L1680.1,492.7L1687.65,494.59L1695.2,494.59L1704.64,496.48L1710.31,500.26L1715.97,502.14L1723.52,502.14L1727.3,504.03L1734.85,507.81L1740.51,507.81L1746.17,513.47L1749.95,515.36L1759.39,519.13L1763.16,522.91L1768.83,524.8L1770.71,528.57L1776.38,530.46L1782.04,532.35L1793.37,534.23L1800.92,534.23L1808.47,534.23L1817.91,534.23L1825.46,532.35L1831.12,532.35L1838.67,530.46L1844.34,530.46L1850,530.46L1853.78,528.57L1857.55,526.68L1866.99,522.91L1868.88,522.91L1878.32,521.02L1882.09,521.02L1887.76,521.02L1891.53,519.13L1893.42,519.13L1897.19,519.13L1899.08,519.13L1900.97,517.24" fill="none" stroke="#000000" style="-webkit-tap-highlight-color: rgba(0, 0, 0, 0); stroke-linecap: round; stroke-linejoin: round; stroke-width: 12;" /><path d="M2016.12,400.2L2016.12,398.32L2016.12,400.2L2018.01,403.98L2021.79,411.53L2023.67,419.08L2029.34,432.3L2033.11,441.73L2035,449.29L2038.78,456.84L2038.78,462.5L2038.78,466.28L2036.89,468.16L2035,471.94L2031.22,475.71L2023.67,481.38L2019.9,481.38L2016.12,481.38L2010.46,481.38L2001.02,481.38L1993.47,479.49L1985.92,479.49L1976.48,481.38L1968.93,483.27L1957.6,487.04L1953.83,487.04L1944.39,490.82L1940.61,490.82L1929.29,496.48L1921.73,498.37L1914.18,500.26L1906.63,502.14L1899.08,502.14L1889.64,502.14L1887.76,504.03L1885.87,505.92L1883.98,509.69L1882.09,515.36" fill="none" stroke="#000000" style="-webkit-tap-highlight-color: rgba(0, 0, 0, 0); stroke-linecap: round; stroke-linejoin: round; stroke-width: 12;" /><path d="M2029.34,473.83L2040.66,473.83L2055.77,473.83L2065.2,473.83L2074.64,473.83L2084.08,475.71L2095.41,475.71L2112.4,477.6L2121.84,481.38L2133.16,483.27L2142.6,487.04L2153.93,492.7L2161.48,494.59L2165.26,498.37L2167.14,500.26L2169.03,500.26L2172.81,504.03L2172.81,507.81L2172.81,509.69L2172.81,511.58L2174.69,511.58L2174.69,513.47L2172.81,517.24L2172.81,519.13L2174.69,519.13L2176.58,521.02L2180.36,522.91L2182.24,522.91L2191.68,526.68L2204.9,528.57L2210.56,528.57L2220,528.57L2229.44,528.57L2238.88,530.46L2248.32,530.46L2265.31,530.46L2269.08,530.46L2284.18,532.35L2289.85,532.35L2306.84,536.12L2314.39,538.01L2320.05,538.01L2327.6,541.79L2331.38,543.67L2337.04,547.45L2340.82,547.45L2346.48,551.22L2346.48,553.11L2354.03,556.89L2357.81,558.78L2361.58,558.78L2367.24,560.66L2367.24,562.55" fill="none" stroke="#000000" style="-webkit-tap-highlight-color: rgba(0, 0, 0, 0); stroke-linecap: round; stroke-linejoin: round; stroke-width: 12;" /><path d="M2582.45,534.23L2584.34,534.23L2582.45,532.35L2578.67,530.46L2573.01,528.57L2563.57,528.57L2557.91,528.57L2539.03,528.57L2525.82,532.35L2518.27,532.35L2508.83,532.35L2499.39,532.35L2486.17,534.23L2482.4,532.35L2465.41,532.35L2452.19,534.23L2431.43,538.01L2420.1,541.79L2410.66,543.67L2403.11,545.56L2399.34,545.56L2393.67,545.56L2391.79,545.56L2391.79,547.45L2388.01,547.45L2384.23,549.34L2382.35,551.22L2380.46,553.11L2378.57,556.89L2374.8,558.78L2369.13,562.55L2367.24,566.33L2359.69,568.21L2354.03,570.1L2344.59,573.88L2337.04,575.77L2329.49,579.54L2323.83,581.43L2316.28,581.43L2304.95,581.43L2301.17,581.43L2289.85,581.43L2287.96,583.32L2274.74,583.32L2269.08,585.2L2261.53,585.2L2257.76,587.09L2252.09,587.09L2246.43,587.09L2242.65,585.2L2242.65,587.09L2236.99,587.09L2235.1,590.87L2231.33,590.87L2225.66,592.76L2220,594.64L2212.45,594.64L2206.79,596.53L2204.9,596.53L2199.23,596.53L2191.68,596.53L2186.02,594.64L2180.36,594.64L2176.58,594.64L2174.69,594.64L2170.92,594.64L2169.03,592.76L2167.14,592.76L2165.26,592.76L2163.37,590.87L2161.48,590.87L2159.59,590.87L2157.7,590.87L2155.82,588.98L2152.04,590.87L2146.38,590.87L2142.6,590.87L2136.94,592.76L2133.16,594.64L2125.61,596.53L2123.72,600.31L2119.95,604.08L2114.29,609.74L2110.51,615.41L2106.73,619.18L2101.07,624.85L2101.07,626.73L2093.52,632.4L2089.74,634.29L2085.97,639.95L2082.19,643.72L2078.42,647.5L2072.76,651.28L2068.98,651.28L2063.32,655.05L2059.54,658.83L2051.99,662.6L2046.33,666.38L2040.66,670.15L2036.89,673.93L2031.22,677.7L2025.56,681.48L2021.79,685.26L2018.01,687.14L2014.23,690.92L2008.57,694.69L2004.8,698.47L2002.91,700.36L2001.02,704.13L1997.24,706.02L1993.47,709.8L1991.58,713.57L1987.81,717.35L1985.92,717.35L1980.26,719.23L1976.48,721.12L1974.59,723.01L1970.82,724.9L1968.93,726.79L1965.15,728.67L1961.38,728.67L1957.6,730.56L1953.83,730.56L1950.05,730.56L1946.28,730.56L1942.5,730.56L1940.61,732.45L1938.72,732.45L1934.95,732.45L1931.17,732.45L1925.51,734.34L1923.62,734.34L1916.07,736.22L1912.3,738.11L1906.63,738.11L1902.86,741.89L1899.08,743.78L1895.31,745.66L1891.53,747.55L1885.87,755.1L1883.98,758.88L1880.2,760.77L1876.43,762.65L1872.65,766.43L1870.77,768.32L1866.99,772.09L1865.1,775.87L1861.33,777.76L1855.66,783.42L1853.78,783.42L1846.22,789.08L1842.45,790.97L1838.67,792.86L1836.79,794.74L1833.01,796.63L1829.23,798.52L1821.68,802.3L1817.91,804.18L1814.13,804.18L1812.24,807.96L1808.47,809.85L1806.58,811.73L1802.81,813.62L1799.03,815.51L1795.26,817.4L1791.48,819.29L1785.82,821.17L1782.04,823.06L1780.15,824.95L1776.38,826.84L1774.49,828.72L1770.71,828.72L1768.83,830.61L1766.94,830.61L1761.28,832.5L1759.39,832.5L1755.61,834.39L1749.95,836.28L1748.06,836.28L1746.17,836.28L1742.4,840.05L1740.51,840.05L1738.62,840.05L1736.73,841.94L1734.85,841.94L1732.96,843.83L1731.07,845.71L1731.07,847.6L1729.18,849.49L1727.3,851.38L1727.3,858.93L1725.41,860.82L1725.41,862.7L1725.41,868.37L1725.41,877.81L1725.41,883.47" fill="none" stroke="#000000" style="-webkit-tap-highlight-color: rgba(0, 0, 0, 0); stroke-linecap: round; stroke-linejoin: round; stroke-width: 12;" /><path d="M1715.97,555L1715.97,553.11L1714.08,555L1714.08,556.89L1708.42,558.78L1706.53,562.55L1702.76,566.33L1697.09,568.21L1693.32,573.88L1691.43,573.88L1685.77,577.65L1683.88,577.65L1672.55,581.43L1666.89,581.43L1659.34,583.32L1653.67,585.2L1646.12,587.09L1634.8,592.76L1631.02,594.64L1621.58,598.42L1617.81,600.31L1610.26,604.08L1598.93,611.63L1593.27,615.41L1589.49,622.96L1587.6,628.62L1583.83,634.29L1581.94,639.95L1578.16,643.72L1576.28,647.5L1574.39,653.16L1572.5,660.71L1570.61,666.38L1570.61,668.27L1568.72,672.04L1568.72,673.93L1566.84,677.7L1566.84,681.48L1564.95,685.26L1563.06,687.14L1559.29,696.58L1557.4,702.24L1555.51,706.02L1553.62,709.8L1551.73,715.46L1547.96,721.12L1544.18,724.9L1542.3,728.67L1540.41,734.34L1534.74,743.78L1530.97,747.55L1527.19,751.33L1525.31,755.1L1525.31,756.99L1521.53,760.77L1521.53,762.65L1519.64,768.32L1517.76,773.98L1515.87,775.87L1513.98,785.31L1512.09,790.97L1510.2,794.74L1508.32,800.41L1506.43,804.18L1506.43,809.85L1502.65,813.62L1500.77,819.29L1500.77,823.06L1500.77,826.84" fill="none" stroke="#000000" style="-webkit-tap-highlight-color: rgba(0, 0, 0, 0); stroke-linecap: round; stroke-linejoin: round; stroke-width: 12;" /><path d="M1680.1,587.09L1678.21,590.87L1676.33,596.53L1676.33,602.19L1672.55,605.97L1670.66,613.52L1666.89,626.73L1665,634.29L1661.22,643.72L1659.34,651.28L1657.45,662.6L1655.56,670.15L1655.56,677.7L1653.67,685.26L1651.79,690.92L1651.79,700.36L1649.9,706.02L1649.9,711.68L1649.9,715.46L1648.01,723.01L1648.01,726.79L1648.01,730.56L1648.01,734.34L1648.01,736.22L1648.01,738.11L1648.01,743.78L1648.01,747.55L1649.9,751.33L1649.9,753.21L1653.67,758.88L1655.56,760.77L1655.56,762.65L1657.45,766.43L1657.45,770.2L1657.45,772.09L1655.56,773.98L1653.67,779.64L1651.79,783.42L1649.9,787.19L1648.01,789.08L1646.12,792.86L1640.46,796.63L1636.68,798.52L1632.91,798.52L1627.24,804.18L1619.69,807.96L1614.03,811.73L1608.37,813.62L1598.93,815.51L1587.6,821.17L1572.5,826.84L1555.51,834.39L1540.41,841.94L1530.97,851.38" fill="none" stroke="#000000" style="-webkit-tap-highlight-color: rgba(0, 0, 0, 0); stroke-linecap: round; stroke-linejoin: round; stroke-width: 12;" /><path d="M1789.59,687.14L1785.82,685.26L1782.04,683.37L1778.27,683.37L1772.6,685.26L1763.16,689.03L1757.5,692.81L1748.06,696.58L1742.4,698.47L1734.85,702.24L1723.52,713.57L1710.31,726.79L1700.87,736.22L1689.54,745.66L1685.77,751.33L1681.99,756.99L1680.1,760.77L1680.1,764.54L1678.21,772.09L1678.21,783.42L1678.21,789.08L1678.21,794.74L1676.33,802.3L1676.33,807.96L1676.33,811.73L1672.55,815.51L1668.78,819.29L1665,823.06L1659.34,832.5L1657.45,838.16L1655.56,843.83L1653.67,849.49L1649.9,860.82L1649.9,866.48L1648.01,870.26L1648.01,874.03L1648.01,877.81L1646.12,881.58L1644.23,883.47L1644.23,885.36" fill="none" stroke="#000000" style="-webkit-tap-highlight-color: rgba(0, 0, 0, 0); stroke-linecap: round; stroke-linejoin: round; stroke-width: 12;" /><path d="M1765.05,687.14L1766.94,685.26L1770.71,685.26L1776.38,685.26L1785.82,687.14L1791.48,690.92L1799.03,694.69L1802.81,700.36L1806.58,707.91L1808.47,715.46L1808.47,721.12L1808.47,726.79L1806.58,734.34L1802.81,743.78L1800.92,751.33L1799.03,756.99L1797.14,760.77L1791.48,768.32L1787.7,770.2L1783.93,772.09L1780.15,775.87L1778.27,779.64L1772.6,785.31L1768.83,789.08L1763.16,792.86L1759.39,798.52L1753.72,804.18L1749.95,807.96L1746.17,811.73L1742.4,815.51L1740.51,819.29L1736.73,823.06L1734.85,828.72L1732.96,834.39L1732.96,836.28L1731.07,840.05L1731.07,845.71L1729.18,849.49L1727.3,853.27L1725.41,858.93L1721.63,868.37L1717.86,874.03L1717.86,877.81L1714.08,883.47" fill="none" stroke="#000000" style="-webkit-tap-highlight-color: rgba(0, 0, 0, 0); stroke-linecap: round; stroke-linejoin: round; stroke-width: 12;" /><path d="M1317.65,519.13L1323.32,511.58L1325.2,509.69L1325.2,505.92L1321.43,505.92L1315.77,505.92L1310.1,504.03L1308.21,502.14L1306.33,502.14L1306.33,500.26L1304.44,496.48L1304.44,494.59L1304.44,490.82L1300.66,479.49L1298.78,464.39L1296.89,460.61L1293.11,449.29L1293.11,445.51L1291.22,432.3L1291.22,430.41L1291.22,426.63L1291.22,424.74L1293.11,422.86L1293.11,420.97L1293.11,419.08L1295,419.08L1296.89,419.08L1296.89,417.19L1298.78,417.19L1300.66,415.31L1302.55,413.42L1306.33,409.64L1306.33,407.76L1308.21,405.87L1308.21,403.98" fill="none" stroke="#000000" style="-webkit-tap-highlight-color: rgba(0, 0, 0, 0); stroke-linecap: round; stroke-linejoin: round; stroke-width: 12;" /><path d="M1211.94,528.57L1215.71,524.8L1219.49,519.13L1225.15,517.24L1232.7,517.24L1236.48,519.13L1244.03,519.13L1249.69,519.13L1255.36,522.91L1261.02,528.57L1264.8,532.35L1270.46,539.9L1274.23,545.56L1276.12,547.45L1279.9,549.34L1281.79,549.34L1285.56,551.22L1291.22,553.11L1293.11,555" fill="none" stroke="#000000" style="-webkit-tap-highlight-color: rgba(0, 0, 0, 0); stroke-linecap: round; stroke-linejoin: round; stroke-width: 12;" /><path d="M1321.43,521.02L1319.54,522.91L1317.65,524.8L1313.88,528.57L1310.1,532.35L1308.21,536.12L1306.33,538.01L1300.66,543.67L1298.78,547.45L1296.89,551.22L1295,555L1293.11,560.66L1293.11,564.44L1293.11,570.1L1293.11,571.99L1296.89,587.09L1300.66,592.76L1304.44,596.53L1308.21,600.31L1313.88,605.97L1317.65,611.63L1325.2,621.07L1328.98,628.62L1334.64,634.29L1336.53,639.95L1342.19,643.72L1345.97,651.28L1347.86,655.05L1351.63,660.71L1353.52,666.38L1353.52,672.04L1353.52,677.7L1355.41,681.48L1355.41,685.26L1357.3,690.92L1359.18,690.92" fill="none" stroke="#000000" style="-webkit-tap-highlight-color: rgba(0, 0, 0, 0); stroke-linecap: round; stroke-linejoin: round; stroke-width: 12;" /><path d="M1330.87,698.47L1330.87,700.36L1328.98,700.36L1328.98,704.13L1328.98,707.91L1327.09,713.57L1325.2,715.46L1323.32,723.01L1321.43,728.67L1319.54,732.45L1317.65,738.11L1317.65,743.78L1315.77,751.33L1315.77,756.99L1313.88,764.54L1313.88,768.32L1313.88,772.09L1311.99,775.87L1311.99,787.19L1315.77,794.74" fill="none" stroke="#000000" style="-webkit-tap-highlight-color: rgba(0, 0, 0, 0); stroke-linecap: round; stroke-linejoin: round; stroke-width: 12;" /><path d="M1300.66,766.43L1296.89,772.09L1291.22,781.53L1289.34,785.31L1285.56,792.86L1281.79,800.41L1278.01,807.96L1276.12,813.62L1272.35,824.95L1270.46,830.61L1268.57,840.05L1262.91,849.49L1261.02,855.15L1259.13,862.7L1257.24,870.26L1253.47,874.03L1249.69,877.81L1238.37,883.47L1232.7,883.47L1221.38,887.24L1206.28,891.02" fill="none" stroke="#000000" style="-webkit-tap-highlight-color: rgba(0, 0, 0, 0); stroke-linecap: round; stroke-linejoin: round; stroke-width: 12;" /><path d="M1313.88,551.22L1315.77,551.22L1321.43,549.34L1327.09,545.56L1334.64,543.67L1342.19,541.79L1349.74,541.79L1359.18,545.56L1362.96,547.45L1366.73,549.34L1374.29,558.78L1379.95,560.66L1383.72,564.44L1387.5,568.21L1389.39,570.1L1391.28,573.88L1393.16,575.77L1398.83,581.43L1404.49,588.98L1410.15,592.76L1421.48,600.31L1425.26,605.97L1429.03,613.52L1432.81,619.18L1436.58,624.85L1438.47,630.51L1440.36,632.4L1442.24,636.17L1442.24,639.95L1444.13,643.72L1449.8,653.16L1451.68,656.94L1453.57,658.83L1455.46,662.6L1457.35,666.38L1457.35,672.04L1459.23,677.7L1463.01,683.37L1464.9,685.26L1464.9,689.03L1466.79,692.81L1466.79,696.58L1468.67,700.36L1470.56,704.13L1470.56,707.91L1472.45,707.91L1474.34,711.68L1476.22,715.46L1480,719.23L1481.89,723.01L1485.66,726.79L1487.55,728.67L1491.33,730.56L1495.1,734.34L1498.88,736.22L1504.54,741.89L1506.43,743.78L1512.09,747.55L1515.87,751.33L1521.53,755.1L1527.19,760.77" fill="none" stroke="#000000" style="-webkit-tap-highlight-color: rgba(0, 0, 0, 0); stroke-linecap: round; stroke-linejoin: round; stroke-width: 12;" /><path d="M1070.36,909.9L1066.58,908.01L1064.69,908.01L1060.92,906.12L1062.81,904.23L1064.69,902.35L1068.47,902.35L1072.24,902.35L1079.8,900.46L1087.35,900.46L1111.89,896.68L1126.99,896.68L1155.31,896.68L1166.63,896.68L1183.62,896.68L1189.29,896.68L1196.84,892.91" fill="none" stroke="#000000" style="-webkit-tap-highlight-color: rgba(0, 0, 0, 0); stroke-linecap: round; stroke-linejoin: round; stroke-width: 12;" /><path d="M974.08,879.69L970.31,875.92L968.42,874.03L970.31,874.03L975.97,872.14L977.86,870.26L985.41,870.26L991.07,868.37L1000.51,866.48L1015.61,866.48L1019.39,866.48L1036.38,866.48L1040.15,864.59L1045.82,866.48L1049.59,866.48L1053.37,866.48L1055.26,866.48L1057.14,866.48L1057.14,868.37L1059.03,868.37L1062.81,868.37L1064.69,868.37L1066.58,868.37" fill="none" stroke="#000000" style="-webkit-tap-highlight-color: rgba(0, 0, 0, 0); stroke-linecap: round; stroke-linejoin: round; stroke-width: 12;" /><path d="M987.3,872.14L987.3,875.92L987.3,877.81L987.3,879.69L987.3,881.58L987.3,887.24L987.3,889.13L987.3,892.91" fill="none" stroke="#000000" style="-webkit-tap-highlight-color: rgba(0, 0, 0, 0); stroke-linecap: round; stroke-linejoin: round; stroke-width: 12;" /><path d="M2559.8,849.49L2559.8,851.38L2565.46,851.38L2567.35,853.27L2563.57,855.15L2556.02,857.04L2546.58,864.59L2535.26,868.37L2522.04,872.14L2506.94,877.81L2501.28,879.69L2491.84,881.58L2480.51,885.36L2467.3,889.13L2450.31,892.91L2438.98,898.57L2425.77,902.35L2412.55,906.12L2403.11,911.79L2391.79,913.67L2380.46,917.45L2369.13,926.89L2344.59,940.1L2331.38,945.77L2321.94,951.43L2310.61,955.2L2301.17,957.09L2289.85,958.98L2278.52,966.53L2267.19,972.19L2255.87,975.97L2246.43,981.63L2229.44,992.96L2218.11,998.62L2208.67,1004.29L2199.23,1009.95L2189.8,1015.61L2178.47,1025.05L2176.58,1028.83L2170.92,1034.49L2165.26,1038.27L2159.59,1043.93L2148.27,1055.26L2142.6,1062.81L2136.94,1068.47L2131.28,1074.13L2129.39,1081.68L2123.72,1087.35L2119.95,1093.01L2114.29,1100.56L2108.62,1115.66L2108.62,1119.44L2108.62,1125.1L2106.73,1134.54L2106.73,1143.98L2104.85,1151.53L2104.85,1159.08L2104.85,1166.63L2102.96,1176.07L2101.07,1187.4L2095.41,1204.39L2095.41,1215.71L2093.52,1221.38L2091.63,1230.82L2091.63,1244.03L2089.74,1253.47L2089.74,1261.02L2089.74,1274.23L2087.86,1287.45L2084.08,1302.55L2082.19,1313.88L2080.31,1325.2L2076.53,1332.76L2072.76,1344.08L2070.87,1353.52L2068.98,1361.07L2067.09,1370.51L2063.32,1387.5L2061.43,1402.6L2059.54,1404.49L2055.77,1415.82L2053.88,1421.48L2051.99,1436.58L2048.21,1451.68L2046.33,1461.12L2042.55,1470.56L2040.66,1480L2038.78,1483.78L2035,1491.33L2033.11,1495.1L2031.22,1500.77L2027.45,1504.54L2027.45,1510.2" fill="none" stroke="#000000" style="-webkit-tap-highlight-color: rgba(0, 0, 0, 0); stroke-linecap: round; stroke-linejoin: round; stroke-width: 12;" /><path d="M2138.83,1251.58L2136.94,1251.58L2146.38,1253.47L2152.04,1255.36L2157.7,1257.24L2165.26,1261.02L2174.69,1264.8L2186.02,1268.57L2204.9,1274.23L2216.22,1278.01L2231.33,1279.9L2252.09,1281.79L2267.19,1281.79L2280.41,1283.67L2293.62,1283.67L2306.84,1283.67L2318.16,1281.79L2335.15,1278.01L2342.7,1274.23L2350.26,1272.35L2354.03,1270.46L2355.92,1270.46L2355.92,1268.57L2357.81,1268.57" fill="none" stroke="#000000" style="-webkit-tap-highlight-color: rgba(0, 0, 0, 0); stroke-linecap: round; stroke-linejoin: round; stroke-width: 12;" /><path d="M2363.47,1253.47L2361.58,1251.58L2361.58,1249.69L2359.69,1249.69L2355.92,1253.47L2352.14,1268.57L2348.37,1287.45L2344.59,1304.44L2338.93,1321.43L2337.04,1336.53L2333.27,1357.3L2333.27,1370.51L2331.38,1378.06L2329.49,1393.16L2327.6,1404.49L2325.71,1415.82L2323.83,1427.14L2323.83,1432.81L2323.83,1451.68L2325.71,1455.46L2327.6,1463.01L2329.49,1472.45L2331.38,1476.22L2337.04,1485.66L2338.93,1493.21L2340.82,1495.1L2342.7,1498.88L2344.59,1504.54L2346.48,1508.32" fill="none" stroke="#000000" style="-webkit-tap-highlight-color: rgba(0, 0, 0, 0); stroke-linecap: round; stroke-linejoin: round; stroke-width: 12;" /><path d="M2357.81,1236.48L2363.47,1234.59L2369.13,1230.82L2374.8,1230.82L2382.35,1228.93L2391.79,1228.93L2406.89,1228.93L2416.33,1227.04L2427.65,1227.04L2440.87,1228.93L2452.19,1230.82L2474.85,1230.82L2489.95,1232.7L2505.05,1234.59L2522.04,1234.59L2544.69,1234.59L2559.8,1234.59L2574.9,1236.48" fill="none" stroke="#000000" style="-webkit-tap-highlight-color: rgba(0, 0, 0, 0); stroke-linecap: round; stroke-linejoin: round; stroke-width: 12;" /><path d="M1687.65,991.07L1685.77,987.3L1681.99,985.41L1676.33,983.52L1670.66,983.52L1663.11,987.3L1653.67,989.18L1642.35,992.96L1627.24,1002.4L1623.47,1008.06L1604.59,1030.71L1593.27,1038.27L1581.94,1049.59L1570.61,1059.03L1563.06,1070.36L1547.96,1091.12L1540.41,1100.56L1521.53,1117.55L1512.09,1123.21L1500.77,1130.77L1489.44,1140.2L1478.11,1145.87L1464.9,1153.42L1451.68,1157.19L1440.36,1160.97L1427.14,1168.52L1413.93,1174.18L1389.39,1185.51L1378.06,1191.17L1366.73,1194.95L1355.41,1198.72L1342.19,1202.5L1330.87,1208.16L1321.43,1215.71L1306.33,1223.27L1287.45,1232.7L1278.01,1236.48L1268.57,1240.26L1259.13,1242.14L1249.69,1245.92L1244.03,1249.69L1232.7,1257.24L1227.04,1262.91L1221.38,1268.57L1219.49,1270.46L1206.28,1278.01L1200.61,1281.79L1194.95,1285.56L1187.4,1291.22L1183.62,1296.89L1179.85,1304.44L1176.07,1306.33L1172.3,1311.99L1168.52,1315.77L1166.63,1315.77L1164.74,1317.65L1160.97,1319.54L1159.08,1321.43L1157.19,1323.32L1155.31,1323.32L1155.31,1325.2L1153.42,1327.09L1151.53,1328.98L1149.64,1332.76L1149.64,1334.64L1147.76,1336.53L1147.76,1338.42" fill="none" stroke="#000000" style="-webkit-tap-highlight-color: rgba(0, 0, 0, 0); stroke-linecap: round; stroke-linejoin: round; stroke-width: 12;" /><path d="M1444.13,1179.85L1442.24,1176.07L1444.13,1172.3L1446.02,1170.41L1453.57,1170.41L1461.12,1170.41L1470.56,1172.3L1487.55,1172.3L1502.65,1176.07L1529.08,1181.73L1547.96,1183.62L1564.95,1183.62L1581.94,1187.4L1597.04,1189.29L1617.81,1194.95L1629.13,1196.84L1632.91,1200.61L1642.35,1202.5L1665,1208.16L1676.33,1210.05" fill="none" stroke="#000000" style="-webkit-tap-highlight-color: rgba(0, 0, 0, 0); stroke-linecap: round; stroke-linejoin: round; stroke-width: 12;" /><path d="M1678.21,1217.6L1678.21,1211.94L1683.88,1208.16L1687.65,1208.16L1697.09,1206.28L1704.64,1208.16L1721.63,1211.94L1732.96,1208.16L1748.06,1206.28L1761.28,1202.5L1772.6,1198.72L1785.82,1194.95L1802.81,1187.4L1816.02,1181.73L1821.68,1177.96L1833.01,1174.18" fill="none" stroke="#000000" style="-webkit-tap-highlight-color: rgba(0, 0, 0, 0); stroke-linecap: round; stroke-linejoin: round; stroke-width: 12;" /><path d="M1714.08,966.53L1715.97,966.53L1719.74,968.42L1725.41,972.19L1732.96,974.08L1744.29,977.86L1761.28,983.52L1793.37,989.18L1808.47,992.96L1823.57,998.62L1838.67,1002.4L1853.78,1008.06L1868.88,1011.84L1883.98,1017.5L1895.31,1021.28L1906.63,1028.83L1927.4,1040.15L1936.84,1043.93L1948.16,1047.7L1957.6,1049.59L1968.93,1053.37L1980.26,1057.14L1995.36,1064.69L2004.8,1068.47L2012.35,1070.36L2023.67,1072.24L2031.22,1074.13L2036.89,1076.02L2042.55,1079.8L2046.33,1083.57L2051.99,1087.35L2055.77,1089.23L2059.54,1093.01L2065.2,1096.79L2068.98,1096.79L2072.76,1100.56L2076.53,1104.34L2078.42,1106.22L2080.31,1108.11L2084.08,1111.89L2089.74,1115.66L2093.52,1117.55L2097.3,1121.33L2099.18,1123.21L2102.96,1126.99" fill="none" stroke="#000000" style="-webkit-tap-highlight-color: rgba(0, 0, 0, 0); stroke-linecap: round; stroke-linejoin: round; stroke-width: 12;" /><path d="M1402.6,1323.32L1400.71,1321.43L1400.71,1319.54L1402.6,1317.65L1410.15,1313.88L1419.59,1308.21L1429.03,1304.44L1440.36,1300.66L1455.46,1296.89L1466.79,1295L1481.89,1291.22L1498.88,1289.34L1513.98,1287.45L1527.19,1287.45L1559.29,1291.22L1572.5,1293.11L1587.6,1291.22L1606.48,1291.22L1621.58,1293.11L1634.8,1293.11L1649.9,1296.89L1665,1300.66L1685.77,1304.44L1698.98,1308.21L1712.19,1311.99L1729.18,1315.77L1742.4,1319.54L1755.61,1323.32L1768.83,1325.2L1780.15,1328.98L1799.03,1330.87L1808.47,1330.87L1817.91,1330.87L1829.23,1330.87L1842.45,1332.76L1853.78,1332.76L1865.1,1332.76L1876.43,1332.76L1887.76,1330.87L1908.52,1332.76L1919.85,1332.76L1934.95,1334.64L1948.16,1332.76L1968.93,1332.76L1982.14,1332.76L1993.47,1334.64L2002.91,1332.76L2014.23,1332.76L2031.22,1328.98L2038.78,1328.98L2048.21,1328.98L2051.99,1328.98L2065.2,1327.09L2072.76,1327.09" fill="none" stroke="#000000" style="-webkit-tap-highlight-color: rgba(0, 0, 0, 0); stroke-linecap: round; stroke-linejoin: round; stroke-width: 12;" /><path d="M1423.37,1311.99L1423.37,1308.21L1421.48,1308.21L1419.59,1310.1L1415.82,1311.99L1412.04,1315.77L1410.15,1315.77L1406.38,1319.54L1404.49,1325.2L1404.49,1328.98L1406.38,1338.42L1406.38,1340.31L1410.15,1345.97L1413.93,1349.74L1415.82,1362.96L1417.7,1368.62L1423.37,1376.17L1429.03,1385.61L1432.81,1393.16L1436.58,1400.71L1440.36,1408.27L1440.36,1415.82L1444.13,1425.26L1447.91,1436.58L1449.8,1444.13L1449.8,1453.57L1453.57,1468.67L1453.57,1472.45L1455.46,1478.11L1457.35,1483.78L1457.35,1489.44L1457.35,1495.1L1459.23,1502.65L1459.23,1508.32" fill="none" stroke="#000000" style="-webkit-tap-highlight-color: rgba(0, 0, 0, 0); stroke-linecap: round; stroke-linejoin: round; stroke-width: 12;" /><path d="M1174.18,1311.99L1174.18,1313.88L1174.18,1315.77L1172.3,1317.65L1170.41,1323.32L1168.52,1325.2L1164.74,1327.09L1162.86,1328.98L1159.08,1330.87L1157.19,1332.76L1155.31,1334.64L1151.53,1336.53L1147.76,1338.42L1143.98,1340.31L1142.09,1342.19L1140.2,1342.19L1138.32,1347.86L1134.54,1349.74L1126.99,1357.3L1125.1,1361.07L1119.44,1364.85L1115.66,1366.73L1113.78,1370.51L1110,1372.4L1108.11,1376.17L1106.22,1378.06L1102.45,1381.84L1100.56,1383.72L1096.79,1389.39L1094.9,1395.05L1093.01,1400.71L1091.12,1404.49L1087.35,1408.27L1085.46,1413.93L1083.57,1419.59L1079.8,1430.92L1077.91,1442.24L1076.02,1451.68L1074.13,1463.01L1070.36,1478.11L1068.47,1485.66L1066.58,1489.44L1066.58,1496.99L1068.47,1506.43L1070.36,1508.32" fill="none" stroke="#000000" style="-webkit-tap-highlight-color: rgba(0, 0, 0, 0); stroke-linecap: round; stroke-linejoin: round; stroke-width: 12;" /><path d="M1060.92,911.79L1062.81,911.79L1064.69,913.67L1066.58,932.55L1066.58,934.44L1064.69,949.54L1064.69,957.09L1062.81,964.64L1062.81,972.19L1062.81,977.86L1060.92,985.41L1059.03,991.07L1059.03,996.73L1057.14,1006.17L1055.26,1009.95L1055.26,1015.61L1053.37,1023.16L1049.59,1028.83L1049.59,1034.49L1049.59,1038.27L1051.48,1042.04L1051.48,1047.7L1051.48,1051.48L1049.59,1062.81L1045.82,1068.47L1043.93,1074.13L1042.04,1079.8L1042.04,1081.68L1040.15,1085.46L1038.27,1091.12L1036.38,1096.79L1036.38,1100.56L1036.38,1110L1036.38,1113.78L1036.38,1115.66L1036.38,1119.44L1036.38,1123.21L1036.38,1128.88L1036.38,1132.65L1036.38,1136.43L1036.38,1143.98L1036.38,1149.64L1036.38,1153.42L1034.49,1157.19L1032.6,1160.97L1032.6,1162.86L1032.6,1164.74L1030.71,1166.63L1030.71,1168.52L1028.83,1172.3L1023.16,1177.96L1019.39,1181.73L1013.72,1183.62L1008.06,1185.51L1002.4,1187.4L998.62,1189.29L992.96,1189.29L985.41,1191.17L979.74,1194.95L968.42,1202.5L962.76,1208.16L955.2,1215.71L949.54,1223.27L943.88,1228.93L938.21,1234.59L932.55,1240.26L928.78,1247.81L923.11,1255.36L911.79,1272.35L906.12,1276.12L900.46,1281.79L896.68,1291.22L885.36,1308.21L883.47,1315.77L877.81,1323.32L875.92,1328.98L874.03,1334.64L872.14,1340.31L870.26,1345.97L868.37,1353.52L868.37,1361.07L866.48,1372.4L866.48,1381.84L866.48,1387.5L866.48,1396.94L864.59,1402.6L864.59,1404.49L864.59,1410.15L864.59,1413.93L866.48,1419.59L866.48,1429.03L866.48,1438.47L866.48,1447.91L866.48,1457.35L866.48,1468.67L866.48,1476.22L868.37,1481.89L868.37,1487.55L868.37,1491.33L868.37,1496.99L868.37,1502.65L868.37,1506.43" fill="none" stroke="#000000" style="-webkit-tap-highlight-color: rgba(0, 0, 0, 0); stroke-linecap: round; stroke-linejoin: round; stroke-width: 12;" /><path d="M1040.15,1183.62L1042.04,1183.62L1043.93,1181.73L1047.7,1181.73L1053.37,1183.62L1057.14,1189.29L1064.69,1196.84L1072.24,1200.61L1079.8,1204.39L1087.35,1208.16L1106.22,1215.71L1121.33,1219.49L1140.2,1225.15L1157.19,1228.93L1174.18,1232.7L1194.95,1238.37L1208.16,1242.14L1225.15,1244.03L1232.7,1244.03L1247.81,1244.03" fill="none" stroke="#000000" style="-webkit-tap-highlight-color: rgba(0, 0, 0, 0); stroke-linecap: round; stroke-linejoin: round; stroke-width: 12;" /><path d="M1261.02,1072.24L1257.24,1072.24L1251.58,1074.13L1245.92,1077.91L1240.26,1081.68L1236.48,1087.35L1230.82,1093.01L1227.04,1102.45L1223.27,1111.89L1219.49,1119.44L1215.71,1128.88L1215.71,1142.09L1213.83,1155.31L1215.71,1168.52L1215.71,1183.62L1213.83,1196.84L1213.83,1227.04L1213.83,1242.14L1213.83,1253.47L1213.83,1262.91L1213.83,1270.46L1213.83,1276.12" fill="none" stroke="#000000" style="-webkit-tap-highlight-color: rgba(0, 0, 0, 0); stroke-linecap: round; stroke-linejoin: round; stroke-width: 12;" /><path d="M1230.82,1089.23L1232.7,1087.35L1234.59,1085.46L1236.48,1085.46L1244.03,1081.68L1253.47,1079.8L1259.13,1079.8L1266.68,1079.8L1279.9,1077.91L1289.34,1076.02L1302.55,1074.13L1311.99,1072.24L1321.43,1070.36L1338.42,1068.47L1351.63,1066.58L1366.73,1062.81L1381.84,1059.03L1395.05,1057.14L1406.38,1055.26L1415.82,1055.26L1427.14,1051.48L1436.58,1051.48L1444.13,1049.59L1459.23,1047.7L1468.67,1047.7L1476.22,1045.82L1481.89,1045.82L1487.55,1043.93L1498.88,1040.15L1504.54,1040.15L1508.32,1040.15L1513.98,1042.04L1517.76,1042.04L1519.64,1042.04L1521.53,1042.04L1523.42,1042.04L1525.31,1040.15" fill="none" stroke="#000000" style="-webkit-tap-highlight-color: rgba(0, 0, 0, 0); stroke-linecap: round; stroke-linejoin: round; stroke-width: 12;" /><path d="M1478.11,849.49L1478.11,847.6L1476.22,849.49L1472.45,853.27L1468.67,857.04L1464.9,864.59L1463.01,874.03L1461.12,879.69L1461.12,892.91L1463.01,900.46L1466.79,908.01L1468.67,915.56L1472.45,923.11L1474.34,928.78L1476.22,938.21L1476.22,945.77L1476.22,953.32L1480,966.53L1480,974.08L1480,981.63L1481.89,987.3L1481.89,994.85L1481.89,1000.51L1481.89,1006.17L1483.78,1011.84L1483.78,1013.72L1485.66,1019.39L1487.55,1025.05L1487.55,1030.71L1489.44,1032.6L1491.33,1038.27L1491.33,1042.04L1491.33,1049.59L1491.33,1053.37L1491.33,1057.14L1491.33,1060.92L1491.33,1066.58L1493.21,1070.36" fill="none" stroke="#000000" style="-webkit-tap-highlight-color: rgba(0, 0, 0, 0); stroke-linecap: round; stroke-linejoin: round; stroke-width: 12;" /><path d="M1476.22,849.49L1474.34,849.49L1470.56,847.6L1468.67,849.49L1464.9,849.49L1459.23,849.49L1455.46,849.49L1451.68,851.38L1449.8,851.38L1449.8,853.27L1455.46,851.38L1459.23,851.38L1468.67,849.49L1478.11,847.6L1489.44,845.71L1502.65,845.71L1515.87,843.83L1529.08,841.94L1542.3,841.94L1555.51,841.94L1566.84,841.94L1574.39,843.83L1583.83,845.71L1591.38,847.6L1600.82,849.49L1608.37,849.49L1610.26,849.49" fill="none" stroke="#000000" style="-webkit-tap-highlight-color: rgba(0, 0, 0, 0); stroke-linecap: round; stroke-linejoin: round; stroke-width: 12;" /><path d="M1328.98,806.07L1330.87,806.07L1334.64,809.85L1338.42,813.62L1344.08,821.17L1349.74,824.95L1357.3,828.72L1366.73,832.5L1374.29,834.39L1381.84,838.16L1387.5,840.05L1395.05,843.83L1400.71,845.71L1404.49,847.6L1413.93,847.6L1419.59,849.49L1423.37,853.27L1427.14,855.15L1429.03,857.04L1432.81,860.82L1434.69,862.7L1438.47,866.48L1440.36,868.37L1442.24,872.14L1444.13,874.03L1446.02,879.69" fill="none" stroke="#000000" style="-webkit-tap-highlight-color: rgba(0, 0, 0, 0); stroke-linecap: round; stroke-linejoin: round; stroke-width: 12;" /><path d="M154.8,790.97L158.57,789.08L162.35,789.08L168.01,789.08L173.67,790.97L181.22,792.86L186.89,796.63L196.33,800.41L205.77,804.18L230.31,807.96L245.41,807.96L258.62,809.85L271.84,811.73L320.92,813.62L337.91,813.62L349.23,811.73L358.67,811.73L370,811.73L379.44,813.62L388.88,813.62L398.32,813.62L405.87,811.73L413.42,811.73L420.97,813.62L434.18,813.62L439.85,813.62L445.51,811.73L451.17,813.62L458.72,815.51L466.28,817.4L473.83,819.29L481.38,821.17L492.7,823.06L494.59,823.06L507.81,823.06L517.24,823.06L524.8,824.95L534.23,824.95L547.45,824.95L553.11,826.84L562.55,826.84L577.65,828.72L594.64,830.61L605.97,830.61L619.18,830.61L628.62,832.5L639.95,836.28L651.28,836.28L664.49,838.16L677.7,838.16L692.81,838.16L719.23,841.94L730.56,841.94L743.78,843.83L753.21,843.83L764.54,845.71L777.76,847.6" fill="none" stroke="#000000" style="-webkit-tap-highlight-color: rgba(0, 0, 0, 0); stroke-linecap: round; stroke-linejoin: round; stroke-width: 12;" /><path d="M249.18,809.85L249.18,811.73L247.3,813.62L245.41,815.51L245.41,817.4L245.41,823.06L245.41,828.72L245.41,836.28L245.41,841.94L245.41,847.6L245.41,853.27L245.41,857.04L247.3,860.82L249.18,864.59L251.07,868.37L252.96,872.14L252.96,875.92L252.96,883.47L258.62,887.24L260.51,891.02L264.29,892.91L268.06,896.68L271.84,900.46L277.5,908.01L281.28,911.79L288.83,915.56L294.49,917.45L296.38,919.34L300.15,921.22L300.15,923.11L302.04,923.11L303.93,925L307.7,925L311.48,928.78L320.92,932.55L328.47,934.44L336.02,938.21L345.46,938.21L353.01,938.21L360.56,940.1L366.22,941.99L371.89,945.77L383.21,949.54L386.99,951.43L392.65,951.43L398.32,951.43L403.98,953.32L407.76,957.09L413.42,962.76L419.08,968.42L422.86,972.19L428.52,974.08L437.96,979.74L439.85,981.63L443.62,985.41L447.4,991.07L454.95,996.73L458.72,998.62L462.5,1000.51L468.16,1002.4L470.05,1004.29L473.83,1006.17L475.71,1008.06L477.6,1009.95L479.49,1009.95L481.38,1011.84L483.27,1013.72L485.15,1017.5L485.15,1021.28L485.15,1025.05L485.15,1030.71L483.27,1032.6L481.38,1036.38L481.38,1042.04L479.49,1047.7L479.49,1051.48L479.49,1057.14L479.49,1062.81L479.49,1064.69L479.49,1068.47L481.38,1070.36" fill="none" stroke="#000000" style="-webkit-tap-highlight-color: rgba(0, 0, 0, 0); stroke-linecap: round; stroke-linejoin: round; stroke-width: 12;" /><path d="M485.15,1087.35L483.27,1087.35L485.15,1085.46L490.82,1083.57L498.37,1087.35L507.81,1091.12L526.68,1098.67L538.01,1102.45L551.22,1104.34L566.33,1110L581.43,1111.89L598.42,1113.78L613.52,1117.55L626.73,1119.44L638.06,1119.44L656.94,1119.44" fill="none" stroke="#000000" style="-webkit-tap-highlight-color: rgba(0, 0, 0, 0); stroke-linecap: round; stroke-linejoin: round; stroke-width: 12;" /><path d="M3.78,1119.44L7.55,1119.44L13.21,1119.44L18.88,1121.33L24.54,1121.33L30.2,1121.33L47.19,1113.78L58.52,1110L71.73,1110L84.95,1110L96.28,1108.11L115.15,1106.22L128.37,1104.34L141.58,1104.34L158.57,1106.22L164.23,1111.89L169.9,1113.78L175.56,1119.44L177.45,1119.44L183.11,1119.44L190.66,1125.1L196.33,1128.88L200.1,1130.77L207.65,1136.43L217.09,1136.43L226.53,1136.43L235.97,1136.43L247.3,1134.54L254.85,1130.77L264.29,1130.77L277.5,1130.77L288.83,1126.99L300.15,1125.1L313.37,1123.21L334.13,1123.21L343.57,1123.21L353.01,1121.33L364.34,1121.33L375.66,1117.55L388.88,1113.78L400.2,1108.11L413.42,1104.34L436.07,1098.67L447.4,1096.79L456.84,1096.79L468.16,1098.67L477.6,1098.67L488.93,1100.56L500.26,1100.56L509.69,1098.67L519.13,1098.67L521.02,1096.79" fill="none" stroke="#000000" style="-webkit-tap-highlight-color: rgba(0, 0, 0, 0); stroke-linecap: round; stroke-linejoin: round; stroke-width: 12;" /><path d="M20.77,849.49L18.88,853.27L22.65,857.04L33.98,857.04L41.53,853.27L52.86,849.49L66.07,847.6L81.17,843.83L101.94,841.94L118.93,841.94L137.81,841.94L152.91,840.05L169.9,840.05L190.66,838.16L200.1,836.28L207.65,836.28L213.32,836.28L220.87,836.28L226.53,834.39L230.31,832.5L235.97,830.61L239.74,828.72" fill="none" stroke="#000000" style="-webkit-tap-highlight-color: rgba(0, 0, 0, 0); stroke-linecap: round; stroke-linejoin: round; stroke-width: 12;" /><path d="M117.04,732.45L117.04,734.34L117.04,740L117.04,745.66L117.04,751.33L111.38,760.77L107.6,766.43L103.83,772.09L101.94,779.64L98.16,787.19L96.28,792.86L94.39,800.41L90.61,806.07L86.84,811.73L83.06,813.62L79.29,817.4L75.51,817.4L69.85,817.4L54.74,813.62L49.08,813.62L41.53,815.51" fill="none" stroke="#000000" style="-webkit-tap-highlight-color: rgba(0, 0, 0, 0); stroke-linecap: round; stroke-linejoin: round; stroke-width: 12;" /><path d="M13.21,558.78L11.33,558.78L9.44,558.78L7.55,558.78L5.66,562.55L5.66,566.33L5.66,568.21L7.55,570.1L11.33,573.88L16.99,573.88L20.77,575.77L26.43,579.54L33.98,583.32L35.87,583.32L43.42,587.09L43.42,588.98L45.31,590.87L45.31,592.76L47.19,594.64L47.19,596.53L47.19,598.42L47.19,600.31L49.08,600.31L52.86,600.31L56.63,598.42L58.52,598.42L62.3,596.53L66.07,592.76L69.85,590.87L73.62,587.09L77.4,585.2L83.06,581.43L88.72,575.77L92.5,571.99L94.39,568.21L98.16,564.44L98.16,560.66L101.94,558.78L105.71,556.89L109.49,556.89L117.04,558.78L124.59,562.55L132.14,564.44L141.58,570.1L151.02,577.65" fill="none" stroke="#000000" style="-webkit-tap-highlight-color: rgba(0, 0, 0, 0); stroke-linecap: round; stroke-linejoin: round; stroke-width: 12;" /><path d="M15.1,975.97L16.99,975.97L20.77,972.19L30.2,970.31L50.97,960.87L64.18,958.98L75.51,957.09L84.95,953.32L96.28,953.32L103.83,953.32L111.38,953.32L118.93,955.2L120.82,955.2L126.48,960.87L130.26,964.64L134.03,968.42L137.81,970.31L139.69,974.08L141.58,975.97L139.69,979.74L139.69,983.52L134.03,985.41L124.59,989.18L113.27,992.96L101.94,996.73L88.72,1002.4L75.51,1009.95L60.41,1015.61L47.19,1019.39L32.09,1023.16" fill="none" stroke="#000000" style="-webkit-tap-highlight-color: rgba(0, 0, 0, 0); stroke-linecap: round; stroke-linejoin: round; stroke-width: 12;" /><path d="M52.86,911.79L54.74,911.79L60.41,908.01L69.85,906.12L77.4,902.35L86.84,902.35L103.83,904.23L113.27,906.12L122.7,906.12L134.03,906.12L143.47,906.12L152.91,906.12L166.12,908.01L169.9,909.9L177.45,909.9L190.66,908.01L198.21,906.12L203.88,904.23L207.65,902.35L213.32,900.46L215.2,898.57L218.98,896.68L222.76,892.91L228.42,885.36L232.19,881.58L234.08,879.69L237.86,879.69L241.63,879.69L247.3,877.81" fill="none" stroke="#000000" style="-webkit-tap-highlight-color: rgba(0, 0, 0, 0); stroke-linecap: round; stroke-linejoin: round; stroke-width: 12;" /><path d="M168.01,1009.95L168.01,1008.06L169.9,1004.29L173.67,1000.51L177.45,998.62L183.11,994.85L194.44,994.85L201.99,992.96L211.43,994.85L222.76,996.73L232.19,998.62L241.63,998.62L252.96,1000.51L262.4,1002.4L269.95,1004.29L281.28,1008.06L286.94,1009.95L294.49,1011.84L302.04,1015.61L309.59,1017.5L319.03,1019.39L326.58,1019.39L332.24,1021.28L341.68,1021.28L354.9,1023.16L362.45,1025.05L373.78,1025.05L383.21,1026.94L392.65,1028.83L403.98,1030.71L420.97,1030.71L434.18,1028.83L441.73,1028.83L454.95,1026.94" fill="none" stroke="#000000" style="-webkit-tap-highlight-color: rgba(0, 0, 0, 0); stroke-linecap: round; stroke-linejoin: round; stroke-width: 12;" /><path d="M766.43,847.6L764.54,847.6L760.77,847.6L756.99,847.6L755.1,853.27L753.21,853.27L751.33,855.15L749.44,857.04L751.33,860.82L751.33,862.7L751.33,864.59L751.33,866.48L751.33,872.14L751.33,877.81L751.33,879.69L747.55,883.47L747.55,887.24L745.66,891.02L745.66,892.91L745.66,894.8L743.78,894.8L741.89,894.8L741.89,896.68L740,896.68L740,894.8L736.22,896.68L736.22,898.57L734.34,900.46L734.34,902.35L734.34,904.23L734.34,906.12L734.34,908.01L734.34,911.79L734.34,915.56L732.45,917.45L732.45,921.22L732.45,923.11L732.45,926.89L732.45,930.66L730.56,940.1L730.56,943.88L730.56,945.77L730.56,947.65L728.67,949.54L728.67,951.43L728.67,949.54L726.79,949.54L724.9,949.54L723.01,949.54L721.12,949.54L719.23,951.43L717.35,951.43L715.46,951.43L713.57,953.32L713.57,955.2L713.57,957.09L713.57,958.98L715.46,960.87L715.46,964.64L715.46,968.42L715.46,972.19L715.46,975.97L713.57,981.63L713.57,985.41L711.68,989.18L711.68,991.07L711.68,994.85L709.8,996.73L709.8,998.62L707.91,998.62L706.02,998.62L702.24,998.62L700.36,998.62L698.47,998.62L696.58,998.62L694.69,998.62L694.69,1000.51L694.69,1002.4L692.81,1006.17L692.81,1009.95L692.81,1013.72L692.81,1017.5L692.81,1019.39L692.81,1021.28L690.92,1023.16L690.92,1026.94L690.92,1030.71L690.92,1032.6L689.03,1034.49L689.03,1036.38L687.14,1042.04L687.14,1040.15L685.26,1040.15L683.37,1040.15L683.37,1042.04L679.59,1042.04L677.7,1042.04L675.82,1042.04L673.93,1042.04L672.04,1042.04L670.15,1042.04L670.15,1045.82L670.15,1049.59L672.04,1051.48L672.04,1055.26L672.04,1059.03L672.04,1060.92L670.15,1064.69L670.15,1066.58L668.27,1070.36L668.27,1072.24L668.27,1076.02L668.27,1077.91L668.27,1079.8L666.38,1083.57L666.38,1085.46L666.38,1087.35L664.49,1087.35L660.71,1087.35L658.83,1087.35L658.83,1089.23L655.05,1089.23L655.05,1087.35L653.16,1089.23L651.28,1091.12L651.28,1093.01L649.39,1094.9L649.39,1096.79L649.39,1098.67L647.5,1098.67L647.5,1100.56L647.5,1102.45L647.5,1104.34L647.5,1108.11L649.39,1111.89L647.5,1111.89L647.5,1115.66L647.5,1117.55L647.5,1119.44L647.5,1121.33L647.5,1123.21L647.5,1125.1L645.61,1125.1L645.61,1126.99L645.61,1128.88L645.61,1130.77L645.61,1132.65L643.72,1134.54L643.72,1136.43L643.72,1138.32L641.84,1140.2L641.84,1142.09L639.95,1140.2L639.95,1143.98L639.95,1145.87L639.95,1151.53L639.95,1147.76L639.95,1145.87L638.06,1143.98L638.06,1142.09L638.06,1140.2L636.17,1140.2L632.4,1142.09L630.51,1142.09L630.51,1143.98L628.62,1145.87L630.51,1149.64L630.51,1151.53L630.51,1153.42L632.4,1155.31L632.4,1160.97L632.4,1162.86L630.51,1166.63L630.51,1170.41L630.51,1172.3L630.51,1170.41L628.62,1170.41L626.73,1172.3L624.85,1172.3L622.96,1172.3L621.07,1172.3L619.18,1172.3L617.3,1172.3L615.41,1172.3L613.52,1172.3L613.52,1174.18L613.52,1177.96L613.52,1181.73L613.52,1187.4L613.52,1189.29L613.52,1191.17L613.52,1193.06L613.52,1198.72L613.52,1202.5L611.63,1206.28L611.63,1211.94L611.63,1213.83L611.63,1215.71L611.63,1217.6L611.63,1219.49L611.63,1221.38L609.74,1221.38L607.86,1221.38L605.97,1223.27L604.08,1223.27L604.08,1227.04L602.19,1227.04L598.42,1225.15L598.42,1227.04L596.53,1228.93L594.64,1230.82L594.64,1234.59L594.64,1236.48L594.64,1238.37L594.64,1240.26L596.53,1244.03L596.53,1247.81L596.53,1249.69L598.42,1253.47L598.42,1257.24L602.19,1259.13L604.08,1262.91L607.86,1264.8L611.63,1264.8" fill="none" stroke="#000000" style="-webkit-tap-highlight-color: rgba(0, 0, 0, 0); stroke-linecap: round; stroke-linejoin: round; stroke-width: 12;" /><path d="M819.29,494.59L819.29,492.7L819.29,490.82L821.17,490.82L821.17,488.93L819.29,488.93L817.4,488.93L813.62,492.7L811.73,498.37L811.73,502.14L811.73,504.03L809.85,505.92L807.96,511.58L807.96,519.13L806.07,524.8L806.07,532.35L804.18,538.01L804.18,539.9L804.18,545.56L804.18,553.11L804.18,560.66L804.18,571.99L804.18,579.54L804.18,585.2L806.07,590.87L806.07,596.53L806.07,600.31L806.07,605.97L807.96,607.86L809.85,611.63L811.73,619.18L811.73,622.96L811.73,626.73L811.73,632.4L811.73,636.17L811.73,639.95L809.85,645.61L809.85,653.16L809.85,658.83L809.85,664.49L807.96,675.82L807.96,681.48L806.07,685.26L806.07,690.92L804.18,698.47L804.18,700.36L804.18,704.13L804.18,707.91L804.18,711.68L804.18,719.23L802.3,723.01L802.3,728.67L802.3,732.45L800.41,736.22L800.41,740L800.41,741.89L800.41,743.78L800.41,753.21L800.41,755.1L800.41,758.88L800.41,762.65L800.41,764.54L800.41,768.32L800.41,772.09L798.52,781.53L798.52,789.08L798.52,792.86L798.52,796.63L798.52,798.52L798.52,800.41L798.52,804.18L798.52,807.96L798.52,811.73L798.52,817.4L796.63,819.29L796.63,821.17L796.63,823.06L796.63,824.95L796.63,826.84L794.74,828.72L794.74,830.61L794.74,832.5L794.74,834.39L792.86,834.39L792.86,836.28L790.97,836.28L789.08,838.16L787.19,840.05L783.42,841.94L779.64,841.94L775.87,843.83L770.2,845.71L764.54,847.6L760.77,849.49L758.88,851.38" fill="none" stroke="#000000" style="-webkit-tap-highlight-color: rgba(0, 0, 0, 0); stroke-linecap: round; stroke-linejoin: round; stroke-width: 12;" /><path d="M987.3,917.45L987.3,915.56L985.41,908.01L983.52,902.35L983.52,900.46L983.52,898.57L981.63,896.68L981.63,894.8L979.74,892.91L979.74,891.02L975.97,894.8L972.19,896.68L970.31,900.46L966.53,904.23L964.64,904.23L962.76,906.12L960.87,908.01L960.87,909.9L962.76,911.79L966.53,915.56L964.64,917.45L964.64,921.22L964.64,925L964.64,928.78L964.64,938.21L964.64,941.99L964.64,945.77L964.64,951.43L964.64,953.32L964.64,957.09L964.64,958.98L964.64,960.87L962.76,968.42L962.76,970.31L962.76,972.19L962.76,974.08L960.87,975.97L958.98,977.86L957.09,977.86L955.2,975.97L953.32,975.97L951.43,972.19L949.54,970.31L949.54,968.42L947.65,970.31L947.65,972.19L949.54,975.97L949.54,979.74L951.43,979.74L951.43,987.3L951.43,989.18L951.43,992.96L949.54,996.73L949.54,998.62L947.65,1002.4L947.65,1006.17L947.65,1008.06L945.77,1011.84L945.77,1017.5L943.88,1021.28L943.88,1023.16L943.88,1025.05L940.1,1030.71L940.1,1034.49L940.1,1038.27L938.21,1040.15L938.21,1043.93L938.21,1047.7L936.33,1049.59L936.33,1055.26L934.44,1055.26L932.55,1055.26L932.55,1057.14L930.66,1057.14L928.78,1057.14L926.89,1059.03L926.89,1060.92L928.78,1062.81L926.89,1066.58L926.89,1068.47L926.89,1070.36L925,1072.24L925,1074.13L923.11,1079.8L925,1083.57L923.11,1087.35L923.11,1089.23L923.11,1091.12L923.11,1093.01L921.22,1094.9L919.34,1096.79L917.45,1096.79L915.56,1096.79L913.67,1098.67L913.67,1100.56L911.79,1100.56L909.9,1100.56L908.01,1102.45L906.12,1102.45L906.12,1104.34L904.23,1106.22L904.23,1110L904.23,1111.89L904.23,1115.66L904.23,1119.44L904.23,1123.21L904.23,1125.1L902.35,1126.99L902.35,1128.88L902.35,1130.77L900.46,1134.54L898.57,1140.2L898.57,1142.09L898.57,1143.98L896.68,1145.87L894.8,1149.64L894.8,1151.53L892.91,1153.42L891.02,1155.31L889.13,1153.42L887.24,1151.53L885.36,1151.53L885.36,1153.42L885.36,1155.31L885.36,1157.19L885.36,1160.97L885.36,1162.86L885.36,1164.74L885.36,1168.52L885.36,1170.41L885.36,1172.3L883.47,1174.18L883.47,1176.07L883.47,1177.96L883.47,1181.73L883.47,1183.62L883.47,1185.51L883.47,1187.4L881.58,1189.29L881.58,1191.17L879.69,1191.17L877.81,1191.17L875.92,1191.17L874.03,1191.17L872.14,1193.06L870.26,1196.84L866.48,1198.72L866.48,1200.61L866.48,1198.72L866.48,1200.61L866.48,1202.5L866.48,1204.39L868.37,1208.16L870.26,1210.05L870.26,1211.94L870.26,1215.71" fill="none" stroke="#000000" style="-webkit-tap-highlight-color: rgba(0, 0, 0, 0); stroke-linecap: round; stroke-linejoin: round; stroke-width: 12;" /><path d="M860.82,1234.59L858.93,1236.48L855.15,1236.48L853.27,1236.48L849.49,1234.59L847.6,1234.59L845.71,1234.59L843.83,1234.59L841.94,1234.59L840.05,1236.48L840.05,1238.37L840.05,1240.26L840.05,1242.14L840.05,1244.03L838.16,1245.92L840.05,1249.69L838.16,1253.47L838.16,1257.24L838.16,1259.13L838.16,1264.8L838.16,1266.68L838.16,1268.57L836.28,1268.57L836.28,1270.46L834.39,1270.46L832.5,1272.35L830.61,1274.23L828.72,1276.12L824.95,1279.9L819.29,1278.01L819.29,1281.79L821.17,1283.67L821.17,1287.45L821.17,1291.22L823.06,1298.78L823.06,1300.66L821.17,1304.44L821.17,1308.21L821.17,1315.77L821.17,1319.54L821.17,1325.2L821.17,1328.98L821.17,1332.76L821.17,1336.53L821.17,1338.42L819.29,1344.08L819.29,1345.97L819.29,1347.86" fill="none" stroke="#000000" style="-webkit-tap-highlight-color: rgba(0, 0, 0, 0); stroke-linecap: round; stroke-linejoin: round; stroke-width: 12;" /><path d="M632.4,1253.47L630.51,1253.47L628.62,1253.47L628.62,1255.36L630.51,1257.24L634.29,1261.02L638.06,1261.02L641.84,1261.02L645.61,1262.91L655.05,1262.91L658.83,1262.91L664.49,1262.91L666.38,1262.91L670.15,1264.8L672.04,1264.8L675.82,1270.46L679.59,1272.35" fill="none" stroke="#000000" style="-webkit-tap-highlight-color: rgba(0, 0, 0, 0); stroke-linecap: round; stroke-linejoin: round; stroke-width: 12;" /><path d="M687.14,1281.79L689.03,1283.67L690.92,1287.45L694.69,1291.22L702.24,1293.11L713.57,1296.89L728.67,1300.66L738.11,1306.33L747.55,1313.88L756.99,1321.43L770.2,1328.98L779.64,1332.76L789.08,1338.42L796.63,1342.19L804.18,1345.97L811.73,1351.63L817.4,1357.3L826.84,1361.07L832.5,1361.07L836.28,1361.07L845.71,1355.41L847.6,1357.3L853.27,1351.63" fill="none" stroke="#000000" style="-webkit-tap-highlight-color: rgba(0, 0, 0, 0); stroke-linecap: round; stroke-linejoin: round; stroke-width: 12;" /><path d="M853.27,1349.74L855.15,1351.63L858.93,1353.52L862.7,1353.52" fill="none" stroke="#000000" style="-webkit-tap-highlight-color: rgba(0, 0, 0, 0); stroke-linecap: round; stroke-linejoin: round; stroke-width: 12;" /><path d="M1757.5,2227.55" fill="none" stroke="#000000" style="-webkit-tap-highlight-color: rgba(0, 0, 0, 0); stroke-linecap: round; stroke-linejoin: round; stroke-width: 12;" /><path d="M970.31,875.92L970.31,874.03L970.31,872.14L970.31,870.26L968.42,870.26L964.64,868.37L962.76,870.26L960.87,872.14L958.98,875.92L958.98,877.81L958.98,879.69L958.98,881.58L957.09,887.24L955.2,889.13L955.2,891.02L953.32,892.91L951.43,894.8L951.43,896.68L949.54,896.68L947.65,896.68L945.77,896.68L943.88,896.68L943.88,900.46L943.88,904.23L943.88,906.12L943.88,908.01L943.88,911.79L943.88,913.67L943.88,915.56L943.88,917.45L941.99,921.22L941.99,923.11L941.99,926.89L940.1,928.78L940.1,930.66L940.1,932.55L938.21,934.44L938.21,936.33L938.21,938.21L938.21,940.1L938.21,941.99L938.21,943.88L936.33,943.88L936.33,941.99L934.44,941.99L932.55,941.99L930.66,941.99L928.78,943.88L926.89,945.77L926.89,947.65L926.89,951.43L926.89,953.32L926.89,958.98L926.89,960.87L926.89,964.64L926.89,966.53L926.89,968.42L926.89,970.31L926.89,972.19L926.89,974.08L926.89,975.97L926.89,977.86L926.89,979.74L926.89,983.52L926.89,985.41L926.89,987.3L925,983.52L925,983.52L925,985.41L925,987.3L923.11,987.3L921.22,989.18L919.34,989.18L917.45,991.07L915.56,989.18L911.79,987.3L911.79,989.18L909.9,991.07L909.9,992.96L911.79,992.96L911.79,998.62L913.67,1000.51L913.67,1002.4L913.67,1006.17L911.79,1009.95L911.79,1011.84L911.79,1013.72L911.79,1015.61L911.79,1017.5L909.9,1021.28L909.9,1023.16L909.9,1026.94L909.9,1025.05L908.01,1026.94L908.01,1028.83L906.12,1028.83L904.23,1026.94L902.35,1026.94L902.35,1025.05L898.57,1028.83L896.68,1028.83L894.8,1030.71L892.91,1032.6L892.91,1036.38L894.8,1042.04L894.8,1043.93L894.8,1047.7L894.8,1051.48L894.8,1047.7L894.8,1051.48L894.8,1053.37L892.91,1055.26L892.91,1059.03L892.91,1060.92L892.91,1064.69L892.91,1066.58L891.02,1072.24L891.02,1074.13L891.02,1077.91L889.13,1079.8L889.13,1081.68L887.24,1081.68L885.36,1079.8L883.47,1079.8L881.58,1079.8L879.69,1081.68L875.92,1081.68L874.03,1081.68L872.14,1083.57L870.26,1085.46L870.26,1087.35L870.26,1089.23L870.26,1091.12L870.26,1093.01L870.26,1094.9L870.26,1096.79L870.26,1104.34L870.26,1106.22L870.26,1111.89L870.26,1115.66L870.26,1117.55L870.26,1121.33L870.26,1123.21L870.26,1125.1L870.26,1128.88L870.26,1130.77L868.37,1130.77L866.48,1130.77L864.59,1130.77L862.7,1130.77L860.82,1130.77L858.93,1134.54L858.93,1136.43L857.04,1136.43L855.15,1136.43L855.15,1138.32L855.15,1140.2L853.27,1142.09L853.27,1143.98L853.27,1145.87L853.27,1147.76L855.15,1151.53L853.27,1155.31L853.27,1159.08L853.27,1160.97L855.15,1162.86L855.15,1164.74L853.27,1166.63L851.38,1166.63L851.38,1168.52L849.49,1168.52L847.6,1170.41L845.71,1172.3L843.83,1172.3L841.94,1174.18L840.05,1174.18L838.16,1176.07L838.16,1177.96L836.28,1179.85L836.28,1183.62L836.28,1187.4L836.28,1183.62L836.28,1181.73L836.28,1183.62L836.28,1189.29L836.28,1193.06L836.28,1196.84L836.28,1198.72L834.39,1204.39L834.39,1206.28L834.39,1210.05L834.39,1211.94L834.39,1213.83L832.5,1215.71L830.61,1215.71L828.72,1215.71L828.72,1217.6L828.72,1215.71L826.84,1215.71L824.95,1215.71L823.06,1217.6L821.17,1215.71L819.29,1215.71L817.4,1215.71L815.51,1215.71L813.62,1215.71L813.62,1217.6L811.73,1217.6L811.73,1219.49L811.73,1221.38L811.73,1223.27L813.62,1227.04L813.62,1228.93L815.51,1234.59L817.4,1236.48L817.4,1238.37L817.4,1240.26L815.51,1242.14L815.51,1244.03L815.51,1245.92L815.51,1247.81L815.51,1251.58L815.51,1253.47L815.51,1255.36L817.4,1255.36L817.4,1257.24L817.4,1259.13L817.4,1262.91L817.4,1264.8L817.4,1262.91L815.51,1264.8L813.62,1262.91L811.73,1262.91L809.85,1264.8L809.85,1262.91L807.96,1264.8L806.07,1264.8L806.07,1262.91L804.18,1262.91L802.3,1262.91L800.41,1264.8L800.41,1268.57L800.41,1272.35L802.3,1270.46L802.3,1278.01L802.3,1278.01L802.3,1279.9L804.18,1281.79L804.18,1285.56L804.18,1291.22L804.18,1293.11L804.18,1298.78L806.07,1302.55L806.07,1306.33L806.07,1311.99L804.18,1313.88L804.18,1315.77L804.18,1319.54L804.18,1323.32L804.18,1325.2L802.3,1327.09L802.3,1328.98L802.3,1332.76" fill="none" stroke="#000000" style="-webkit-tap-highlight-color: rgba(0, 0, 0, 0); stroke-linecap: round; stroke-linejoin: round; stroke-width: 12;" /><path d="M951.43,938.21L949.54,938.21L953.32,938.21L955.2,938.21L958.98,938.21L962.76,940.1L968.42,941.99" fill="none" stroke="#000000" style="-webkit-tap-highlight-color: rgba(0, 0, 0, 0); stroke-linecap: round; stroke-linejoin: round; stroke-width: 12;" /><path d="M930.66,983.52L930.66,981.63L928.78,979.74L926.89,981.63L928.78,981.63L934.44,981.63L941.99,985.41L949.54,987.3L953.32,987.3L960.87,987.3" fill="none" stroke="#000000" style="-webkit-tap-highlight-color: rgba(0, 0, 0, 0); stroke-linecap: round; stroke-linejoin: round; stroke-width: 12;" /><path d="M913.67,1030.71L913.67,1026.94L913.67,1026.94L919.34,1026.94L923.11,1034.49L928.78,1036.38L932.55,1038.27L938.21,1042.04L943.88,1045.82" fill="none" stroke="#000000" style="-webkit-tap-highlight-color: rgba(0, 0, 0, 0); stroke-linecap: round; stroke-linejoin: round; stroke-width: 12;" /><path d="M902.35,1079.8L898.57,1077.91L898.57,1076.02L896.68,1076.02L898.57,1077.91L902.35,1077.91L908.01,1079.8L909.9,1079.8L913.67,1083.57L917.45,1083.57L917.45,1085.46L923.11,1087.35L926.89,1091.12" fill="none" stroke="#000000" style="-webkit-tap-highlight-color: rgba(0, 0, 0, 0); stroke-linecap: round; stroke-linejoin: round; stroke-width: 12;" /><path d="M875.92,1134.54L874.03,1134.54L875.92,1134.54L883.47,1134.54L887.24,1138.32L891.02,1140.2L900.46,1140.2L902.35,1142.09" fill="none" stroke="#000000" style="-webkit-tap-highlight-color: rgba(0, 0, 0, 0); stroke-linecap: round; stroke-linejoin: round; stroke-width: 12;" /><path d="M845.71,1177.96L847.6,1177.96L853.27,1177.96L860.82,1179.85L866.48,1179.85L872.14,1181.73L875.92,1183.62L879.69,1183.62" fill="none" stroke="#000000" style="-webkit-tap-highlight-color: rgba(0, 0, 0, 0); stroke-linecap: round; stroke-linejoin: round; stroke-width: 12;" /><path d="M832.5,1223.27L834.39,1225.15L836.28,1225.15L841.94,1227.04L845.71,1230.82L847.6,1230.82L851.38,1234.59L857.04,1234.59L862.7,1234.59" fill="none" stroke="#000000" style="-webkit-tap-highlight-color: rgba(0, 0, 0, 0); stroke-linecap: round; stroke-linejoin: round; stroke-width: 12;" /><path d="M951.43,887.24L951.43,889.13L953.32,889.13L955.2,887.24L958.98,889.13L962.76,891.02L968.42,894.8L972.19,896.68L979.74,896.68L981.63,896.68" fill="none" stroke="#000000" style="-webkit-tap-highlight-color: rgba(0, 0, 0, 0); stroke-linecap: round; stroke-linejoin: round; stroke-width: 12;" /><path d="M940.1,845.71L941.99,845.71L943.88,845.71L947.65,845.71L947.65,847.6L945.77,849.49L943.88,851.38L941.99,853.27L938.21,853.27L936.33,853.27L932.55,857.04L926.89,860.82L925,860.82L925,862.7L923.11,864.59L923.11,866.48L921.22,868.37L921.22,870.26L923.11,872.14L923.11,875.92L923.11,877.81L923.11,881.58L921.22,885.36L921.22,889.13L921.22,892.91L921.22,896.68L921.22,898.57L919.34,900.46L917.45,902.35L917.45,904.23L917.45,902.35L915.56,902.35L913.67,900.46L911.79,900.46L909.9,898.57L908.01,896.68L906.12,891.02L904.23,892.91L902.35,896.68L902.35,898.57L902.35,900.46L904.23,906.12L904.23,911.79L904.23,917.45L904.23,923.11L904.23,925L904.23,926.89L904.23,928.78L904.23,932.55L904.23,936.33L904.23,938.21L904.23,941.99L904.23,943.88L904.23,940.1L904.23,941.99L904.23,938.21L904.23,938.21L904.23,941.99L902.35,943.88L900.46,943.88L898.57,943.88L898.57,945.77L896.68,945.77L892.91,945.77L891.02,947.65L889.13,947.65L885.36,941.99L885.36,941.99L885.36,943.88L885.36,945.77L887.24,947.65L887.24,949.54L889.13,951.43L889.13,953.32L891.02,957.09L891.02,960.87L891.02,962.76L891.02,966.53L891.02,970.31L891.02,972.19L891.02,974.08L891.02,975.97L891.02,977.86L891.02,979.74L891.02,981.63L889.13,983.52L889.13,985.41L887.24,987.3L885.36,989.18L883.47,989.18L881.58,987.3L879.69,989.18L877.81,989.18L875.92,989.18L874.03,991.07L874.03,992.96L874.03,994.85L874.03,996.73L874.03,998.62L874.03,1002.4L874.03,1004.29L874.03,1011.84L874.03,1013.72L874.03,1015.61L874.03,1017.5L874.03,1019.39L874.03,1021.28L874.03,1023.16L874.03,1025.05L874.03,1026.94L874.03,1028.83L872.14,1028.83L872.14,1030.71L872.14,1034.49L872.14,1038.27L870.26,1038.27L864.59,1032.6L862.7,1034.49L860.82,1036.38L858.93,1040.15L858.93,1042.04L857.04,1040.15L853.27,1038.27L853.27,1036.38L851.38,1036.38L849.49,1036.38L847.6,1038.27L845.71,1038.27L845.71,1040.15L845.71,1042.04L845.71,1043.93L845.71,1045.82L847.6,1051.48L847.6,1053.37L847.6,1057.14L847.6,1059.03L847.6,1060.92L847.6,1062.81L849.49,1064.69L849.49,1068.47L849.49,1070.36L849.49,1072.24L849.49,1077.91L849.49,1079.8L851.38,1079.8L851.38,1081.68L851.38,1083.57L849.49,1085.46L849.49,1087.35L847.6,1087.35L845.71,1087.35L841.94,1087.35L840.05,1087.35L838.16,1087.35L836.28,1087.35L834.39,1087.35L832.5,1087.35L832.5,1089.23L834.39,1091.12L834.39,1093.01L834.39,1094.9L836.28,1096.79L836.28,1104.34L836.28,1106.22L836.28,1108.11L836.28,1111.89L836.28,1113.78L836.28,1115.66L836.28,1117.55L836.28,1119.44L834.39,1119.44L834.39,1121.33L832.5,1121.33L830.61,1121.33L828.72,1123.21L824.95,1123.21L823.06,1123.21L821.17,1125.1L819.29,1125.1L817.4,1125.1L817.4,1126.99L817.4,1128.88L817.4,1130.77L817.4,1132.65L817.4,1134.54L817.4,1142.09L817.4,1143.98L817.4,1145.87L817.4,1149.64L817.4,1151.53L817.4,1153.42L817.4,1155.31L817.4,1157.19L817.4,1159.08L817.4,1160.97L817.4,1164.74L817.4,1166.63L817.4,1168.52L817.4,1170.41L817.4,1172.3L817.4,1174.18L817.4,1176.07L817.4,1177.96L817.4,1179.85L815.51,1177.96L813.62,1177.96L813.62,1176.07L811.73,1176.07L809.85,1176.07L807.96,1174.18L806.07,1174.18L802.3,1176.07L800.41,1177.96L800.41,1179.85L800.41,1181.73L800.41,1187.4L800.41,1189.29L802.3,1191.17L802.3,1193.06L800.41,1198.72L800.41,1202.5L800.41,1206.28L800.41,1208.16L802.3,1210.05L802.3,1211.94L802.3,1213.83L802.3,1215.71L802.3,1217.6L800.41,1217.6L798.52,1219.49L796.63,1219.49L792.86,1219.49L790.97,1219.49L789.08,1219.49L787.19,1219.49L785.31,1221.38L783.42,1221.38L783.42,1223.27L783.42,1225.15L781.53,1227.04L781.53,1228.93L783.42,1230.82L783.42,1232.7L783.42,1234.59L783.42,1236.48L785.31,1238.37L785.31,1240.26L785.31,1244.03L785.31,1245.92L787.19,1249.69L787.19,1251.58L787.19,1253.47L789.08,1255.36L787.19,1255.36L787.19,1257.24L785.31,1259.13L783.42,1261.02L783.42,1262.91L781.53,1264.8" fill="none" stroke="#000000" style="-webkit-tap-highlight-color: rgba(0, 0, 0, 0); stroke-linecap: round; stroke-linejoin: round; stroke-width: 12;" /><path d="M1708.42,2152.04" fill="none" stroke="#000000" style="-webkit-tap-highlight-color: rgba(0, 0, 0, 0); stroke-linecap: round; stroke-linejoin: round; stroke-width: 12;" /><path d="M1668.78,2201.12" fill="none" stroke="#000000" style="-webkit-tap-highlight-color: rgba(0, 0, 0, 0); stroke-linecap: round; stroke-linejoin: round; stroke-width: 12;" /><path d="M902.35,857.04L902.35,855.15L904.23,855.15L906.12,855.15L906.12,853.27L909.9,853.27L913.67,853.27L913.67,855.15L917.45,855.15L919.34,855.15L923.11,855.15L925,855.15L926.89,855.15L926.89,857.04L928.78,857.04L930.66,857.04L932.55,857.04" fill="none" stroke="#000000" style="-webkit-tap-highlight-color: rgba(0, 0, 0, 0); stroke-linecap: round; stroke-linejoin: round; stroke-width: 12;" /><path d="M902.35,858.93L902.35,857.04L902.35,855.15L900.46,855.15L900.46,857.04L898.57,857.04L896.68,858.93L894.8,860.82L892.91,862.7L891.02,862.7L891.02,864.59L891.02,866.48L891.02,868.37L891.02,870.26L892.91,872.14L892.91,875.92L892.91,877.81L892.91,881.58L892.91,885.36L892.91,887.24L892.91,889.13L892.91,891.02L892.91,894.8L892.91,896.68L891.02,896.68L891.02,896.68L891.02,894.8L889.13,894.8L891.02,894.8L892.91,894.8L896.68,894.8L898.57,896.68L900.46,896.68L902.35,896.68L904.23,896.68L906.12,896.68L909.9,896.68" fill="none" stroke="#000000" style="-webkit-tap-highlight-color: rgba(0, 0, 0, 0); stroke-linecap: round; stroke-linejoin: round; stroke-width: 12;" /><path d="M881.58,885.36L881.58,885.36L883.47,885.36L887.24,887.24L891.02,889.13L892.91,891.02L898.57,894.8L902.35,896.68L904.23,896.68L906.12,898.57L908.01,898.57L911.79,898.57L913.67,898.57" fill="none" stroke="#000000" style="-webkit-tap-highlight-color: rgba(0, 0, 0, 0); stroke-linecap: round; stroke-linejoin: round; stroke-width: 12;" /><path d="M875.92,892.91L874.03,892.91L874.03,891.02L875.92,889.13L875.92,891.02L875.92,894.8L875.92,896.68L875.92,900.46L874.03,902.35L874.03,906.12L874.03,909.9L874.03,911.79L874.03,915.56L874.03,917.45L874.03,919.34L872.14,921.22L872.14,923.11L872.14,925L872.14,926.89L872.14,928.78L874.03,928.78" fill="none" stroke="#000000" style="-webkit-tap-highlight-color: rgba(0, 0, 0, 0); stroke-linecap: round; stroke-linejoin: round; stroke-width: 12;" /><path d="M866.48,930.66L864.59,930.66L866.48,928.78L868.37,928.78L870.26,928.78L874.03,928.78L875.92,928.78L879.69,928.78L881.58,930.66L885.36,930.66L889.13,930.66L896.68,930.66L900.46,932.55L902.35,932.55" fill="none" stroke="#000000" style="-webkit-tap-highlight-color: rgba(0, 0, 0, 0); stroke-linecap: round; stroke-linejoin: round; stroke-width: 12;" /><path d="M857.04,932.55L857.04,934.44L857.04,936.33L857.04,938.21L857.04,941.99L857.04,943.88L857.04,947.65L857.04,951.43L857.04,953.32L857.04,958.98L857.04,962.76L857.04,964.64L857.04,966.53L857.04,968.42L857.04,970.31L857.04,972.19L857.04,974.08L857.04,975.97L857.04,977.86" fill="none" stroke="#000000" style="-webkit-tap-highlight-color: rgba(0, 0, 0, 0); stroke-linecap: round; stroke-linejoin: round; stroke-width: 12;" /><path d="M841.94,989.18L845.71,989.18L847.6,989.18L851.38,989.18L855.15,989.18L858.93,989.18L864.59,991.07L868.37,992.96L872.14,992.96L875.92,994.85L881.58,994.85" fill="none" stroke="#000000" style="-webkit-tap-highlight-color: rgba(0, 0, 0, 0); stroke-linecap: round; stroke-linejoin: round; stroke-width: 12;" /><path d="M843.83,983.52L843.83,985.41L841.94,987.3L841.94,989.18L840.05,994.85L838.16,1002.4L838.16,1006.17L838.16,1011.84L838.16,1013.72L838.16,1015.61L838.16,1017.5L838.16,1019.39L838.16,1021.28L838.16,1021.28" fill="none" stroke="#000000" style="-webkit-tap-highlight-color: rgba(0, 0, 0, 0); stroke-linecap: round; stroke-linejoin: round; stroke-width: 12;" /><path d="M830.61,1021.28L828.72,1021.28L828.72,1019.39L826.84,1019.39L824.95,1021.28L823.06,1023.16L823.06,1025.05L823.06,1026.94L823.06,1028.83L823.06,1030.71L823.06,1032.6L821.17,1032.6L821.17,1036.38L821.17,1038.27L821.17,1042.04L821.17,1045.82L821.17,1047.7L821.17,1049.59L821.17,1051.48L821.17,1055.26L821.17,1057.14L819.29,1059.03L819.29,1060.92L819.29,1062.81L819.29,1062.81L817.4,1062.81L815.51,1062.81L813.62,1062.81L811.73,1062.81L811.73,1064.69L809.85,1064.69L809.85,1066.58L809.85,1068.47L809.85,1070.36L809.85,1072.24L809.85,1074.13L809.85,1077.91L809.85,1079.8L809.85,1083.57L809.85,1087.35L807.96,1091.12L807.96,1093.01L806.07,1094.9L806.07,1096.79L804.18,1098.67L804.18,1100.56L804.18,1102.45L804.18,1104.34L804.18,1106.22L802.3,1106.22L800.41,1106.22L798.52,1106.22L796.63,1106.22L794.74,1106.22L792.86,1106.22L790.97,1106.22L787.19,1106.22L785.31,1106.22L783.42,1108.11L783.42,1110L783.42,1111.89L783.42,1113.78L783.42,1115.66L783.42,1117.55L785.31,1119.44L785.31,1121.33L785.31,1125.1L785.31,1128.88L783.42,1132.65L783.42,1136.43L783.42,1140.2L783.42,1142.09L783.42,1145.87L783.42,1147.76L781.53,1149.64L781.53,1151.53L781.53,1155.31L781.53,1157.19L779.64,1157.19L779.64,1159.08L777.76,1159.08L775.87,1159.08L773.98,1160.97L772.09,1160.97L770.2,1160.97L768.32,1160.97L764.54,1160.97L762.65,1160.97L760.77,1162.86L760.77,1164.74L760.77,1166.63L760.77,1168.52L760.77,1170.41L762.65,1174.18L762.65,1176.07L762.65,1177.96L762.65,1179.85L762.65,1181.73L762.65,1183.62L762.65,1187.4L762.65,1191.17L762.65,1193.06L762.65,1200.61L762.65,1202.5L762.65,1204.39L762.65,1206.28L762.65,1208.16L760.77,1208.16L760.77,1210.05L758.88,1211.94L756.99,1211.94L755.1,1211.94L753.21,1211.94L751.33,1211.94L749.44,1211.94L747.55,1211.94L745.66,1211.94L743.78,1213.83L743.78,1215.71L743.78,1217.6L743.78,1221.38L743.78,1223.27L745.66,1225.15L745.66,1227.04L745.66,1232.7L745.66,1234.59L745.66,1236.48L745.66,1240.26L745.66,1242.14L745.66,1244.03L745.66,1245.92L745.66,1247.81L745.66,1249.69L745.66,1249.69L743.78,1249.69L743.78,1251.58L741.89,1251.58L740,1251.58L738.11,1251.58L736.22,1251.58L734.34,1253.47L732.45,1253.47L732.45,1255.36L734.34,1257.24L736.22,1259.13L738.11,1261.02L738.11,1262.91L738.11,1264.8L738.11,1272.35L738.11,1276.12L738.11,1279.9L738.11,1283.67L738.11,1287.45L738.11,1291.22L738.11,1295L738.11,1296.89L738.11,1300.66L738.11,1302.55L738.11,1304.44L738.11,1302.55" fill="none" stroke="#000000" style="-webkit-tap-highlight-color: rgba(0, 0, 0, 0); stroke-linecap: round; stroke-linejoin: round; stroke-width: 12;" /><path d="M819.29,1076.02L819.29,1076.02L819.29,1077.91L819.29,1077.91L821.17,1079.8L823.06,1079.8L826.84,1079.8L828.72,1079.8L830.61,1081.68L834.39,1083.57L840.05,1083.57L845.71,1083.57" fill="none" stroke="#000000" style="-webkit-tap-highlight-color: rgba(0, 0, 0, 0); stroke-linecap: round; stroke-linejoin: round; stroke-width: 12;" /><path d="M807.96,1104.34L806.07,1104.34L804.18,1104.34L802.3,1106.22L800.41,1108.11L798.52,1110L796.63,1111.89L796.63,1113.78L798.52,1115.66L802.3,1117.55L806.07,1119.44L809.85,1119.44L815.51,1121.33L817.4,1121.33L821.17,1123.21" fill="none" stroke="#000000" style="-webkit-tap-highlight-color: rgba(0, 0, 0, 0); stroke-linecap: round; stroke-linejoin: round; stroke-width: 12;" /><path d="M777.76,1160.97L775.87,1159.08L775.87,1159.08L777.76,1159.08L779.64,1159.08L783.42,1159.08L787.19,1160.97L790.97,1160.97L794.74,1162.86L800.41,1164.74L804.18,1166.63L807.96,1166.63" fill="none" stroke="#000000" style="-webkit-tap-highlight-color: rgba(0, 0, 0, 0); stroke-linecap: round; stroke-linejoin: round; stroke-width: 12;" /><path d="M762.65,1202.5L760.77,1202.5L762.65,1202.5L762.65,1204.39L768.32,1206.28L770.2,1206.28L773.98,1208.16L779.64,1210.05L785.31,1211.94L790.97,1211.94L794.74,1211.94L798.52,1213.83" fill="none" stroke="#000000" style="-webkit-tap-highlight-color: rgba(0, 0, 0, 0); stroke-linecap: round; stroke-linejoin: round; stroke-width: 12;" /><path d="M747.55,1261.02L747.55,1259.13L749.44,1257.24L749.44,1255.36L751.33,1255.36L753.21,1255.36L756.99,1255.36L762.65,1255.36L768.32,1257.24L773.98,1257.24" fill="none" stroke="#000000" style="-webkit-tap-highlight-color: rgba(0, 0, 0, 0); stroke-linecap: round; stroke-linejoin: round; stroke-width: 12;" /><path d="M828.72,1028.83L830.61,1026.94L834.39,1023.16L836.28,1023.16L838.16,1023.16L840.05,1023.16L843.83,1023.16L847.6,1025.05L851.38,1028.83L855.15,1030.71L857.04,1030.71L860.82,1032.6L862.7,1032.6L866.48,1032.6" fill="none" stroke="#000000" style="-webkit-tap-highlight-color: rgba(0, 0, 0, 0); stroke-linecap: round; stroke-linejoin: round; stroke-width: 12;" /><path d="M834.39,851.38L834.39,849.49L830.61,849.49L832.5,849.49L836.28,849.49L841.94,849.49L845.71,849.49L847.6,849.49L851.38,849.49L855.15,849.49L855.15,851.38L855.15,853.27L853.27,855.15L853.27,857.04L853.27,858.93L853.27,860.82L853.27,862.7L853.27,864.59L853.27,866.48L853.27,868.37L853.27,872.14L853.27,875.92L853.27,879.69L851.38,883.47L851.38,885.36L851.38,887.24L849.49,889.13L849.49,891.02L849.49,892.91" fill="none" stroke="#000000" style="-webkit-tap-highlight-color: rgba(0, 0, 0, 0); stroke-linecap: round; stroke-linejoin: round; stroke-width: 12;" /><path d="M830.61,857.04L828.72,857.04L828.72,858.93L828.72,860.82L826.84,860.82L824.95,864.59L823.06,868.37L821.17,872.14L821.17,875.92L819.29,877.81L819.29,879.69L817.4,879.69L815.51,879.69L813.62,879.69L813.62,877.81L811.73,877.81L809.85,875.92L809.85,877.81L809.85,879.69L809.85,881.58L809.85,883.47L809.85,889.13L809.85,892.91L809.85,896.68L809.85,898.57L809.85,902.35L807.96,904.23L807.96,908.01L807.96,909.9L806.07,913.67L806.07,915.56L806.07,917.45L806.07,919.34L806.07,921.22L806.07,923.11L804.18,925L802.3,923.11L800.41,923.11L798.52,923.11L796.63,923.11L794.74,923.11L794.74,925L794.74,928.78L796.63,928.78L796.63,932.55L796.63,934.44L796.63,938.21L794.74,940.1L794.74,943.88L794.74,945.77L792.86,947.65L790.97,953.32L790.97,955.2L790.97,957.09L790.97,958.98L790.97,960.87L790.97,962.76L789.08,962.76L787.19,962.76L785.31,962.76L783.42,962.76L781.53,962.76L779.64,962.76L777.76,962.76L777.76,964.64L779.64,966.53L779.64,970.31L779.64,972.19L781.53,974.08L781.53,975.97L781.53,979.74L781.53,983.52L781.53,985.41L781.53,987.3L781.53,989.18L781.53,992.96L781.53,996.73L781.53,998.62L779.64,1000.51L779.64,1002.4L779.64,1004.29L777.76,1004.29L775.87,1004.29L773.98,1004.29L772.09,1004.29L770.2,1006.17L768.32,1008.06L766.43,1008.06L764.54,1008.06L762.65,1009.95L762.65,1011.84L760.77,1013.72L760.77,1015.61L760.77,1017.5L760.77,1019.39L760.77,1021.28L760.77,1023.16L760.77,1026.94L760.77,1028.83L758.88,1030.71L758.88,1032.6L758.88,1034.49L758.88,1036.38L758.88,1038.27L758.88,1040.15L758.88,1043.93L758.88,1045.82L756.99,1047.7L756.99,1049.59L756.99,1051.48L755.1,1051.48L753.21,1051.48L751.33,1049.59L749.44,1049.59L747.55,1049.59L745.66,1049.59L743.78,1051.48L741.89,1051.48L740,1051.48L740,1053.37L740,1055.26L740,1057.14L740,1059.03L740,1060.92L740,1062.81L740,1064.69L740,1070.36L740,1072.24L738.11,1074.13L738.11,1076.02L738.11,1077.91L738.11,1079.8L738.11,1081.68L738.11,1083.57L738.11,1085.46L738.11,1089.23L738.11,1091.12L738.11,1093.01L736.22,1093.01L736.22,1094.9L736.22,1094.9L736.22,1096.79L734.34,1098.67L732.45,1100.56L732.45,1102.45L730.56,1102.45L728.67,1102.45L726.79,1102.45L724.9,1102.45L723.01,1102.45L721.12,1102.45L719.23,1102.45L717.35,1102.45L717.35,1104.34L717.35,1106.22L717.35,1108.11L717.35,1110L719.23,1111.89L721.12,1115.66L721.12,1121.33L721.12,1123.21L721.12,1125.1L721.12,1128.88L721.12,1132.65L721.12,1136.43L721.12,1138.32L721.12,1140.2L721.12,1143.98L719.23,1145.87L717.35,1145.87L715.46,1145.87L713.57,1145.87L713.57,1145.87L711.68,1145.87L709.8,1147.76L707.91,1149.64L706.02,1149.64L704.13,1151.53L704.13,1153.42L704.13,1155.31L704.13,1157.19L704.13,1159.08L704.13,1160.97L704.13,1162.86L706.02,1164.74L706.02,1166.63L706.02,1168.52L706.02,1172.3L706.02,1174.18L706.02,1176.07L706.02,1177.96L706.02,1179.85L706.02,1181.73L706.02,1183.62L706.02,1185.51L706.02,1187.4L704.13,1187.4L704.13,1187.4L702.24,1187.4L700.36,1187.4L698.47,1187.4L696.58,1187.4L696.58,1185.51L694.69,1185.51L692.81,1185.51L690.92,1187.4L689.03,1187.4L687.14,1187.4L687.14,1189.29L687.14,1191.17L687.14,1193.06L687.14,1194.95L687.14,1196.84L687.14,1198.72L689.03,1206.28L689.03,1208.16L689.03,1211.94L689.03,1215.71L689.03,1219.49L689.03,1221.38L689.03,1223.27L689.03,1225.15L689.03,1228.93L689.03,1230.82L689.03,1232.7L689.03,1234.59L689.03,1232.7L687.14,1232.7L687.14,1234.59L685.26,1234.59L683.37,1234.59L681.48,1236.48L679.59,1238.37L679.59,1240.26L677.7,1240.26L677.7,1242.14L677.7,1244.03L675.82,1244.03L673.93,1244.03L673.93,1245.92L672.04,1245.92L670.15,1245.92L670.15,1247.81L668.27,1247.81L668.27,1247.81L668.27,1251.58L668.27,1253.47L668.27,1255.36L668.27,1257.24L668.27,1259.13L668.27,1261.02L668.27,1262.91L668.27,1268.57L670.15,1268.57" fill="none" stroke="#000000" style="-webkit-tap-highlight-color: rgba(0, 0, 0, 0); stroke-linecap: round; stroke-linejoin: round; stroke-width: 12;" /><path d="M841.94,877.81L841.94,879.69L840.05,881.58L840.05,885.36L836.28,891.02L836.28,894.8L836.28,898.57L834.39,902.35L834.39,906.12L832.5,906.12L830.61,906.12L828.72,906.12L826.84,908.01L824.95,908.01L823.06,908.01L821.17,909.9L821.17,913.67L821.17,915.56L821.17,917.45L819.29,917.45L819.29,919.34L817.4,921.22L817.4,925L817.4,926.89L817.4,930.66L817.4,936.33L817.4,938.21L817.4,941.99L815.51,943.88L815.51,945.77L815.51,949.54L815.51,951.43L815.51,955.2L815.51,957.09L815.51,958.98L813.62,958.98L811.73,958.98L811.73,957.09L809.85,957.09L809.85,958.98L809.85,960.87L809.85,964.64L809.85,966.53L809.85,968.42L809.85,972.19L809.85,974.08L809.85,975.97L809.85,981.63L809.85,983.52L809.85,985.41L809.85,987.3L807.96,987.3L807.96,989.18L806.07,989.18L806.07,991.07L804.18,991.07L802.3,991.07L800.41,991.07L800.41,992.96L800.41,994.85L798.52,996.73L798.52,998.62L798.52,1000.51L798.52,1002.4L798.52,1004.29L798.52,1006.17L798.52,1008.06L798.52,1009.95L798.52,1011.84L796.63,1011.84L796.63,1013.72L794.74,1013.72L792.86,1013.72L792.86,1015.61L790.97,1017.5L790.97,1019.39L790.97,1021.28L789.08,1023.16L787.19,1023.16L785.31,1023.16L783.42,1021.28L781.53,1019.39L779.64,1019.39L777.76,1019.39L775.87,1021.28L775.87,1023.16L775.87,1025.05L775.87,1026.94L773.98,1032.6L773.98,1038.27L773.98,1042.04L773.98,1043.93L773.98,1045.82L773.98,1047.7L772.09,1051.48L772.09,1053.37L772.09,1055.26L770.2,1059.03L770.2,1062.81L770.2,1064.69L770.2,1066.58L770.2,1068.47L770.2,1070.36L768.32,1070.36L768.32,1072.24L766.43,1072.24L766.43,1074.13L764.54,1070.36L762.65,1070.36L760.77,1070.36L758.88,1070.36L758.88,1072.24L758.88,1074.13L758.88,1076.02L758.88,1077.91L760.77,1085.46L762.65,1087.35L762.65,1091.12L762.65,1093.01L762.65,1094.9L762.65,1096.79L760.77,1098.67L760.77,1100.56L760.77,1102.45L758.88,1104.34L758.88,1106.22L758.88,1108.11L758.88,1110L756.99,1111.89L756.99,1113.78L755.1,1113.78L755.1,1115.66L753.21,1115.66L753.21,1117.55L751.33,1117.55L751.33,1119.44L751.33,1121.33L749.44,1123.21L747.55,1123.21L747.55,1125.1L745.66,1125.1L745.66,1125.1L745.66,1126.99L745.66,1128.88L745.66,1130.77L745.66,1132.65L745.66,1134.54L745.66,1140.2L745.66,1142.09L745.66,1145.87L745.66,1147.76L745.66,1149.64L745.66,1151.53L745.66,1155.31L745.66,1157.19L743.78,1159.08L743.78,1162.86L743.78,1164.74L743.78,1166.63L741.89,1168.52L741.89,1168.52L740,1168.52L740,1170.41L738.11,1170.41L736.22,1172.3L734.34,1172.3L732.45,1172.3L732.45,1170.41L730.56,1172.3L730.56,1174.18L730.56,1176.07L730.56,1177.96L730.56,1179.85L730.56,1181.73L730.56,1183.62L730.56,1185.51L730.56,1187.4L730.56,1189.29L730.56,1194.95L730.56,1198.72L730.56,1202.5L730.56,1204.39L728.67,1206.28L728.67,1208.16L728.67,1210.05L728.67,1211.94L726.79,1213.83L726.79,1215.71L724.9,1215.71L724.9,1217.6L721.12,1217.6L721.12,1219.49L719.23,1219.49L717.35,1219.49L713.57,1219.49L711.68,1219.49L709.8,1219.49L707.91,1219.49L706.02,1219.49L706.02,1217.6L706.02,1215.71L706.02,1213.83L706.02,1211.94L704.13,1206.28L704.13,1202.5L702.24,1200.61L702.24,1198.72L702.24,1196.84L700.36,1194.95L700.36,1193.06L700.36,1191.17" fill="none" stroke="#000000" style="-webkit-tap-highlight-color: rgba(0, 0, 0, 0); stroke-linecap: round; stroke-linejoin: round; stroke-width: 12;" /><path d="M724.9,1162.86L723.01,1159.08L721.12,1159.08L719.23,1159.08L719.23,1157.19L717.35,1155.31L715.46,1157.19L715.46,1159.08L717.35,1159.08L719.23,1159.08L723.01,1160.97L726.79,1162.86L730.56,1164.74L734.34,1164.74L738.11,1164.74L741.89,1166.63L743.78,1166.63" fill="none" stroke="#000000" style="-webkit-tap-highlight-color: rgba(0, 0, 0, 0); stroke-linecap: round; stroke-linejoin: round; stroke-width: 12;" /><path d="M732.45,1102.45L730.56,1100.56L730.56,1102.45L732.45,1104.34L736.22,1106.22L740,1108.11L741.89,1108.11L743.78,1110L747.55,1111.89L749.44,1113.78L751.33,1115.66L755.1,1115.66" fill="none" stroke="#000000" style="-webkit-tap-highlight-color: rgba(0, 0, 0, 0); stroke-linecap: round; stroke-linejoin: round; stroke-width: 12;" /><path d="M749.44,1049.59L753.21,1051.48L755.1,1053.37L758.88,1053.37L762.65,1055.26L764.54,1057.14L768.32,1057.14L772.09,1057.14" fill="none" stroke="#000000" style="-webkit-tap-highlight-color: rgba(0, 0, 0, 0); stroke-linecap: round; stroke-linejoin: round; stroke-width: 12;" /><path d="M770.2,1002.4L770.2,1004.29L772.09,1006.17L777.76,1008.06L779.64,1008.06L783.42,1009.95L785.31,1011.84L790.97,1011.84L794.74,1013.72" fill="none" stroke="#000000" style="-webkit-tap-highlight-color: rgba(0, 0, 0, 0); stroke-linecap: round; stroke-linejoin: round; stroke-width: 12;" /><path d="M781.53,964.64L781.53,966.53L783.42,966.53L785.31,966.53L789.08,966.53L794.74,966.53L806.07,966.53L809.85,968.42L811.73,970.31L815.51,970.31" fill="none" stroke="#000000" style="-webkit-tap-highlight-color: rgba(0, 0, 0, 0); stroke-linecap: round; stroke-linejoin: round; stroke-width: 12;" /><path d="M800.41,926.89L802.3,926.89L806.07,926.89L809.85,926.89L811.73,928.78L815.51,930.66L817.4,930.66L823.06,930.66" fill="none" stroke="#000000" style="-webkit-tap-highlight-color: rgba(0, 0, 0, 0); stroke-linecap: round; stroke-linejoin: round; stroke-width: 12;" /><path d="M809.85,877.81L809.85,875.92L809.85,877.81L811.73,879.69L813.62,881.58L815.51,883.47L817.4,887.24L821.17,889.13L826.84,891.02L832.5,892.91L836.28,894.8" fill="none" stroke="#000000" style="-webkit-tap-highlight-color: rgba(0, 0, 0, 0); stroke-linecap: round; stroke-linejoin: round; stroke-width: 12;" /><path d="M726.79,1215.71L726.79,1217.6L724.9,1217.6L723.01,1217.6L721.12,1217.6L719.23,1217.6L719.23,1219.49L717.35,1221.38L715.46,1225.15L713.57,1228.93L711.68,1232.7L709.8,1238.37L706.02,1245.92L706.02,1249.69L702.24,1253.47L700.36,1259.13L700.36,1264.8L700.36,1268.57" fill="none" stroke="#000000" style="-webkit-tap-highlight-color: rgba(0, 0, 0, 0); stroke-linecap: round; stroke-linejoin: round; stroke-width: 12;" /><path d="M794.74,849.49L794.74,847.6L796.63,845.71L796.63,843.83L796.63,841.94L794.74,838.16L794.74,836.28L792.86,834.39L790.97,830.61L790.97,828.72L792.86,828.72L792.86,830.61L794.74,834.39L796.63,836.28L796.63,838.16L796.63,840.05L798.52,841.94L798.52,843.83L798.52,845.71L798.52,847.6L798.52,849.49L796.63,849.49L794.74,851.38L792.86,853.27L790.97,853.27L790.97,855.15L787.19,857.04L785.31,857.04L783.42,857.04L781.53,857.04L779.64,858.93L777.76,860.82L775.87,862.7L775.87,866.48L775.87,868.37L775.87,870.26L775.87,872.14L775.87,874.03L775.87,875.92L775.87,877.81L775.87,881.58L775.87,883.47L775.87,885.36L775.87,889.13L775.87,891.02L775.87,892.91L775.87,894.8L775.87,898.57L775.87,900.46L775.87,904.23L775.87,906.12L775.87,908.01L773.98,909.9L773.98,911.79L773.98,915.56L773.98,917.45L773.98,919.34L773.98,921.22L773.98,923.11L773.98,925L772.09,925L772.09,926.89L770.2,926.89L768.32,925L766.43,925L764.54,925L762.65,923.11L760.77,923.11L756.99,923.11L755.1,923.11L753.21,923.11L751.33,923.11L753.21,923.11L755.1,925L755.1,926.89L756.99,926.89L756.99,928.78L758.88,932.55L758.88,934.44L758.88,936.33L758.88,938.21L760.77,940.1L760.77,941.99L760.77,943.88L760.77,945.77L760.77,947.65L760.77,949.54L760.77,951.43L760.77,953.32L760.77,955.2L760.77,957.09L760.77,958.98L760.77,958.98L760.77,960.87L758.88,960.87L756.99,960.87L755.1,960.87L753.21,960.87L751.33,962.76L749.44,962.76L747.55,962.76L745.66,962.76L743.78,962.76L741.89,962.76L741.89,964.64L741.89,966.53L741.89,968.42L741.89,975.97L741.89,977.86L741.89,981.63L741.89,983.52L741.89,985.41L741.89,987.3L740,992.96L740,994.85L740,996.73L740,998.62L740,1000.51L738.11,1002.4L738.11,1004.29L738.11,1006.17L738.11,1006.17L736.22,1006.17L734.34,1006.17L732.45,1006.17L730.56,1006.17L728.67,1004.29L726.79,1004.29L724.9,1004.29L723.01,1004.29L721.12,1004.29L719.23,1004.29L719.23,1006.17L717.35,1006.17L717.35,1008.06L717.35,1009.95L717.35,1011.84L719.23,1013.72L721.12,1015.61L721.12,1017.5L723.01,1017.5L723.01,1019.39L723.01,1023.16L723.01,1030.71L723.01,1032.6L723.01,1034.49L723.01,1036.38L723.01,1040.15L723.01,1042.04L723.01,1043.93L723.01,1045.82L723.01,1047.7L721.12,1049.59L721.12,1051.48L719.23,1051.48L717.35,1051.48L715.46,1049.59L713.57,1049.59L713.57,1047.7L709.8,1045.82L707.91,1043.93L706.02,1042.04L704.13,1040.15L702.24,1040.15L702.24,1042.04L700.36,1042.04L700.36,1043.93L700.36,1045.82L700.36,1047.7L700.36,1049.59L702.24,1049.59L702.24,1051.48L704.13,1055.26L704.13,1057.14L706.02,1060.92L706.02,1062.81L706.02,1066.58L706.02,1068.47L706.02,1070.36L706.02,1072.24L706.02,1074.13L706.02,1076.02L706.02,1077.91L706.02,1079.8L706.02,1083.57L706.02,1085.46L706.02,1087.35L704.13,1087.35L704.13,1089.23L704.13,1091.12L702.24,1091.12L700.36,1091.12L700.36,1091.12L698.47,1091.12L696.58,1091.12L694.69,1091.12L692.81,1091.12L690.92,1091.12L689.03,1091.12L685.26,1091.12L683.37,1091.12L683.37,1093.01L683.37,1094.9L683.37,1096.79L683.37,1098.67L683.37,1100.56L683.37,1102.45L683.37,1104.34L685.26,1108.11L685.26,1110L685.26,1111.89L685.26,1113.78L685.26,1115.66L685.26,1119.44L685.26,1123.21L683.37,1125.1L683.37,1126.99L683.37,1128.88L683.37,1132.65L683.37,1134.54L683.37,1136.43L683.37,1140.2L683.37,1142.09L683.37,1143.98L681.48,1145.87L679.59,1145.87L677.7,1145.87L677.7,1147.76L675.82,1147.76L673.93,1147.76L672.04,1145.87L672.04,1147.76L670.15,1147.76L668.27,1149.64L668.27,1151.53L668.27,1155.31L668.27,1157.19L668.27,1159.08L668.27,1160.97L668.27,1162.86L668.27,1164.74L668.27,1166.63L668.27,1168.52L666.38,1168.52L666.38,1170.41L666.38,1172.3L666.38,1174.18L664.49,1174.18L662.6,1174.18L660.71,1176.07L658.83,1176.07L658.83,1176.07L656.94,1177.96L655.05,1177.96L653.16,1179.85L651.28,1179.85L649.39,1179.85L647.5,1181.73L647.5,1183.62L647.5,1185.51L647.5,1187.4L645.61,1187.4L645.61,1189.29L645.61,1191.17L645.61,1193.06L645.61,1194.95L645.61,1196.84L645.61,1200.61L645.61,1202.5L645.61,1204.39L645.61,1208.16L645.61,1211.94L645.61,1215.71L645.61,1217.6L645.61,1223.27L645.61,1225.15L645.61,1228.93L645.61,1230.82L645.61,1234.59L643.72,1236.48L643.72,1240.26L641.84,1242.14L641.84,1244.03L641.84,1245.92L641.84,1245.92L639.95,1245.92L639.95,1244.03" fill="none" stroke="#000000" style="-webkit-tap-highlight-color: rgba(0, 0, 0, 0); stroke-linecap: round; stroke-linejoin: round; stroke-width: 12;" /><path d="M747.55,906.12L749.44,908.01L751.33,908.01L755.1,911.79L756.99,913.67L760.77,917.45L764.54,919.34L766.43,921.22L770.2,921.22" fill="none" stroke="#000000" style="-webkit-tap-highlight-color: rgba(0, 0, 0, 0); stroke-linecap: round; stroke-linejoin: round; stroke-width: 12;" /><path d="M734.34,945.77L732.45,943.88L732.45,945.77L730.56,945.77L730.56,947.65L732.45,949.54L734.34,949.54L736.22,949.54L738.11,951.43L740,951.43L741.89,953.32L743.78,953.32L745.66,953.32L751.33,953.32L755.1,953.32" fill="none" stroke="#000000" style="-webkit-tap-highlight-color: rgba(0, 0, 0, 0); stroke-linecap: round; stroke-linejoin: round; stroke-width: 12;" /><path d="M706.02,994.85L704.13,996.73L702.24,996.73L704.13,996.73L707.91,998.62L711.68,998.62L713.57,1000.51L717.35,1002.4L719.23,1002.4L724.9,1004.29L728.67,1004.29L732.45,1004.29L736.22,1004.29" fill="none" stroke="#000000" style="-webkit-tap-highlight-color: rgba(0, 0, 0, 0); stroke-linecap: round; stroke-linejoin: round; stroke-width: 12;" /><path d="M685.26,1040.15L685.26,1038.27L685.26,1040.15L687.14,1042.04L689.03,1043.93L690.92,1045.82L692.81,1045.82L694.69,1047.7L698.47,1049.59L706.02,1049.59L711.68,1049.59" fill="none" stroke="#000000" style="-webkit-tap-highlight-color: rgba(0, 0, 0, 0); stroke-linecap: round; stroke-linejoin: round; stroke-width: 12;" /><path d="M672.04,1087.35L670.15,1087.35L670.15,1083.57L670.15,1081.68L672.04,1083.57L675.82,1085.46L677.7,1085.46L681.48,1087.35L685.26,1087.35L690.92,1087.35L694.69,1087.35" fill="none" stroke="#000000" style="-webkit-tap-highlight-color: rgba(0, 0, 0, 0); stroke-linecap: round; stroke-linejoin: round; stroke-width: 12;" /><path d="M651.28,1134.54L651.28,1130.77L651.28,1128.88L651.28,1126.99L653.16,1126.99L653.16,1123.21L655.05,1123.21L655.05,1125.1L656.94,1126.99L658.83,1128.88L660.71,1130.77L662.6,1132.65L664.49,1134.54L668.27,1134.54L670.15,1136.43L673.93,1138.32L677.7,1138.32L685.26,1140.2L689.03,1138.32" fill="none" stroke="#000000" style="-webkit-tap-highlight-color: rgba(0, 0, 0, 0); stroke-linecap: round; stroke-linejoin: round; stroke-width: 12;" /><path d="M645.61,1159.08L643.72,1159.08L643.72,1160.97L641.84,1160.97L639.95,1160.97L638.06,1160.97L636.17,1160.97L634.29,1162.86L634.29,1164.74L636.17,1166.63L638.06,1168.52L639.95,1168.52L641.84,1168.52L645.61,1168.52L647.5,1170.41L651.28,1170.41L656.94,1172.3L664.49,1174.18L668.27,1172.3" fill="none" stroke="#000000" style="-webkit-tap-highlight-color: rgba(0, 0, 0, 0); stroke-linecap: round; stroke-linejoin: round; stroke-width: 12;" /><path d="M1504.54,1036.38L1510.2,1034.49L1517.76,1032.6L1525.31,1028.83L1532.86,1025.05L1540.41,1023.16L1549.85,1023.16L1559.29,1023.16L1572.5,1025.05L1583.83,1026.94L1600.82,1026.94L1608.37,1025.05L1610.26,1023.16" fill="none" stroke="#000000" style="-webkit-tap-highlight-color: rgba(0, 0, 0, 0); stroke-linecap: round; stroke-linejoin: round; stroke-width: 12;" /></svg>