<?xml version="1.0" encoding="utf-8" ?>
<svg baseProfile="full" height="2737" version="1.1" width="4208" xmlns="http://www.w3.org/2000/svg" xmlns:ev="http://www.w3.org/2001/xml-events" xmlns:xlink="http://www.w3.org/1999/xlink"><defs /><path d="M29.74,1442.32L15,1435L22,1435" fill="none" stroke="#000000" style="-webkit-tap-highlight-color: rgba(0, 0, 0, 0); stroke-linecap: round; stroke-linejoin: round; stroke-width: 21;" /><path d="M7,1435L0,1435L0,1464.62L30,1465L15,1465L52,1465L74,1465L89,1457L97,1457L104,1457L112,1457L134,1457L119,1457L141,1450L156,1450L164,1450L186,1450L171,1450L193,1442L201,1442L208,1442L216,1442L223,1442L230,1450L223,1450L238,1450L245,1450L253,1457L260,1457L275,1457L283,1457L297,1457L312,1457L327,1457L342,1457L357,1465L364,1465L379,1465L394,1465L409,1465L424,1466L431,1466L438,1467L444,1468L458,1474L458,1474L458,1474L486,1480L487,1476L492,1471L496,1474L501,1475L513,1472L528,1472L535,1472L543,1472L572,1472L558,1472L580,1472L595,1472L617,1472L625,1472L602,1472L639,1479L669,1479L647,1479L662,1479L677,1487L699,1487L691,1487L714,1487L706,1487L721,1487L729,1487L743,1487L736,1487L751,1487L758,1479L773,1479L766,1479L788,1479L781,1479L796,1479L803,1479L810,1479L818,1479L825,1479L825,1472L833,1472L840,1472L851,1460L849,1460L852,1457L867,1454L864,1450L862,1438L862,1435L861,1424L855,1426L857,1418L855,1412L856,1411L847,1408L846,1381L846,1381L857,1373L855,1365L853,1366L855,1353L855,1346L855,1338L861,1325L855,1322L850,1307L850,1303L847,1294L853,1283L843,1259L844,1254L842,1251L839,1236L839,1210L835,1187L839,1210L835,1185L833,1185L833,1160L825,1137L833,1145L825,1123L825,1115L825,1100L825,1108L825,1085L833,1056L825,1071L833,1041L833,1026L833,1011L843,998L836,987L834,980L835,960L834,967L826,929L829,944L810,907L810,922L810,885L810,900L810,877L810,870L810,855L810,848L828,826L827,823L828,818L825,803L833,796L833,788L833,781L833,758L833,773L825,751L825,743L825,729L818,721L825,736L818,714L818,706L825,691L825,699L833,684L848,677L855,677L840,684L862,669L885,662L877,662L870,669L892,662L914,662L922,662L907,662L929,662L952,662L944,662L959,662L967,669L974,669L981,685L987,687L994,687L1009,687L1010,687L1019,687L1021,687L1041,677L1033,677L1048,677L1056,684L1063,684L1078,684L1071,684L1085,684L1100,684L1108,684L1093,684L1115,684L1123,684L1123,691L1130,691L1137,691L1146,707L1149,707L1149,707L1167,699L1184,697L1184,694L1197,678L1197,677L1198,674L1190,654L1200,672L1198,639L1198,640L1182,632L1182,625L1188,600L1185,593L1191,608L1190,607" fill="none" stroke="#000000" style="-webkit-tap-highlight-color: rgba(0, 0, 0, 0); stroke-linecap: round; stroke-linejoin: round; stroke-width: 21;" /><path d="M1186,590L1175,565L1175,580L1175,572L1190,543L1182,550L1182,558L1197,535L1204,535L1204,528L1212,528L1219,528L1234,520L1227,520L1242,520L1249,513L1264,513L1256,513L1271,513L1279,513L1286,513L1301,513L1294,513L1308,513L1316,513L1323,513L1331,513L1338,513L1368,523L1353,513L1346,513L1368,523L1380,524L1370,523L1389,527L1387,526L1375.41,520.42L1370,523L1383,513L1397,525L1413,524L1423,525L1472,520L1475,523L1457,520L1504,515L1527,511L1546,515L1532,511L1561,517L1576,506L1607,514L1592,515L1604,512L1628,506L1636,506L1643,506L1656,516L1658,516L1660,516L1673,506L1680,506L1688,506L1695,506L1716,519L1712,519L1716,519L1712,519L1732,513L1747,527L1740,513L1762,520L1785,527L1769,520L1785,527L1791,527L1821,528L1814,528L1798,529L1829,528L1819,544L1836,535L1841,560L1825,553L1841,560L1846,566L1850,581L1845,563L1874,587L1866,572L1859,585L1865,600L1881,595L1893,611L1879,608L1893,611L1893,611L1918,595L1911,595L1926,587L1933,587L1940,587L1955,597L1954,597L1957,597L1972,599L1975,599L1976,602L1987,602L1992,610L1997,615L2005,625L2017,624L2020,632L2022,638L2020,632L2029,640L2029,646L2042,667L2037,661L2032,654L2046,676L2066,683L2056,675L2073,692L2074,691L2077,703L2072,697L2087,706L2088,707L2091,711L2104,721L2096,716L2103,728L2111,742L2112,743L2111,736L2120,749L2132,776L2139,766L2140,773L2123,752L2144,777L2150,780L2163,788L2158,788L2163,796L2171,797L2173,803L2173,803L2175,810L2178,817L2193,810L2201,810L2208,810L2216,810L2223,810L2230,818L2238,825L2245,825L2260,825L2253,825L2268,818L2305,810L2290,810L2282,818L2312,810L2334,810L2320,810L2342,810L2327,810L2350,821L2372,816L2349,810L2366,824L2393,824L2415,825L2387,821L2401,825L2423,824L2448,824L2461,821L2439,833L2465,821L2465,821L2491,825L2483,825L2498,825L2513,825L2505,825L2520,825L2520,833L2483,833L2513,833L2528,833L2476,833L2461,838L2505,840L2483,833L2536,850L2526,850L2587,840L2565,840L2610,840L2639,840L2689,842L2662,840L2706,840L2721,840L2736,840L2743,840L2758,841L2771,837L2786,833L2772,836L2788,832L2803,824L2803,829L2795,830L2810,825L2818,825L2818,818L2825,819L2834,818L2834,814L2851,802L2854,803L2864,813L2868,813L2888,792L2868,813L2892,792L2900,792L2906,800L2921,798L2914,801L2926,787L2944,788L2952,781L2931,797L2966,781L2966,773L2959,781L2974,773L3004,773L2996,773L2981,773L2989,773L3026,773L3018,773L3011,773L3033,773L3056,766L3048,766L3063,766L3071,758L3085,758L3093,758L3100,758L3108,758L3130,758L3123,758L3115,758L3137,751L3145,751L3167,751L3175,751L3152,751L3189,751L3197,751L3212,751L3219,751L3227,751L3234,751L3241,751L3249,751L3264,751L3286,758L3279,759L3279,759L3308,768L3292,760L3331,758L3323,758L3338,766L3353,766L3367,775L3368,775L3371,776L3380,778L3398,784L3406,784L3412,782L3416,782L3427,781L3442,784L3434,781L3454,791L3445,785L3469,787L3475,780L3479,780L3484,778" fill="none" stroke="#000000" style="-webkit-tap-highlight-color: rgba(0, 0, 0, 0); stroke-linecap: round; stroke-linejoin: round; stroke-width: 21;" /><path d="M3484,778L3502,781L3509,781L3524,781L3531,781L3547,785L3554,783L3573,779L3576,781L3581,776L3614,778L3621,776L3628,776L3650,773L3665,773L3680,781L3695,781L3702,781L3717,781L3725,781L3732,781L3747,781L3740,781L3754,781L3766,791L3769,791L3787,793L3777,792L3792,792L3799,793L3801,793L3815,807L3821,811L3821,818L3829,818L3837,824L3832,836L3833,838L3847,843L3847,848L3846,848L3849,843L3873.44,802.94L3873,796L3866,796L3866,803L3859,803L3851,810L3841,823L3849,837L3859,825L3866,840L3866,848L3873,855L3873,870L3873,877L3873,885L3873,892L3866,907L3866,914L3852,925L3850,930L3850,936L3850,944L3849,960L3841,982L3842,970L3843,1011L3845,996L3851,1026L3851,1026L3858,1040L3851,1031L3856,1041L3860,1062L3850,1090L3862,1069L3850,1090L3857,1107L3861,1121L3866,1130L3866,1132L3866,1152L3866,1160L3863,1187L3872,1176L3868,1199L3866,1211L3866,1219L3870,1235L3870,1241L3865,1249L3862,1261L3865,1276L3872,1279L3869,1290L3873,1305L3881,1315L3873,1331L3882,1351L3881,1353L3882,1374L3883,1370L3881,1390L3879,1410L3881,1398L3881,1420L3878,1435L3881,1457L3881,1466L3882,1467L3878,1447L3903,1463L3893,1464L3883,1467L3913,1464L3925,1466L3939,1463L3971,1466L3955,1466L3985,1462L3984,1463L4007,1465L4015,1465L4052,1472L4030,1465L4059,1472L4037,1472" fill="none" stroke="#000000" style="-webkit-tap-highlight-color: rgba(0, 0, 0, 0); stroke-linecap: round; stroke-linejoin: round; stroke-width: 21;" /><path d="M4074,1472L4067,1472L4089,1472L4082,1472L4096,1472L4104,1479L4118,1481L4119,1481L4128,1481L4134,1482L4139,1483L4149,1480L4156,1494L4163,1494L4171,1494L4178,1494L4178,1502L4171,1509L4163,1517" fill="none" stroke="#000000" style="-webkit-tap-highlight-color: rgba(0, 0, 0, 0); stroke-linecap: round; stroke-linejoin: round; stroke-width: 21;" /><path d="M22.3,2245.26L15,2245L7,2238L15,2238L30,2238L37,2238L52,2238L67,2238L82,2245L97,2245L119,2247L141,2253L164,2253L186,2254L195,2256L216,2253L223,2253L228,2252L245,2253L260,2252L263,2253L275,2253L283,2253L290,2253L297,2253L305,2245L312,2245L320,2245L327,2245L342,2238L349,2238L357,2238L364,2238L401,2238L372,2238L387,2238L379,2238L454,2238L431,2238L416,2238L468,2238L491,2238L521,2247L505,2247L543,2245L565,2253L602,2253L580,2253L587,2253L617,2253L647,2245L662,2245L632,2245L677,2245L691,2245L706,2245L721,2253L736,2253L773,2253L751,2253L758,2253L788,2253L803,2260L818,2260L833,2260L848,2260L862,2260L870,2260L885,2260L937,2260L952,2268L922,2260L907,2260L967,2268L996,2275L981,2268L1019,2275L1056,2275L1078,2282L1033,2275L1100,2282L1123,2282L1162,2287L1150,2286L1185,2295L1219,2290L1242,2290L1264,2290L1286,2297L1301,2297L1323,2297L1338,2297L1361,2295L1364,2294L1398,2297L1383,2297L1413,2297L1427,2305L1442,2305L1450,2305L1465,2305L1479,2305L1502,2305L1494,2305L1517,2305L1532,2297L1569,2297L1546,2297L1554,2297L1584,2297L1591,2297L1621,2297L1636,2297L1606,2297L1650,2297" fill="none" stroke="#000000" style="-webkit-tap-highlight-color: rgba(0, 0, 0, 0); stroke-linecap: round; stroke-linejoin: round; stroke-width: 21;" /><path d="M1658,2297L1704,2299L1676,2295L1705,2298L1707,2297L1725,2297L1732,2297L1747,2297L1755,2290L1762,2290L1769,2282L1777,2275L1792,2275L1799,2275L1807,2275L1814,2275L1829,2282L1821,2275L1844,2271L1844,2271L1845,2271L1862,2282L1866,2282L1881,2281L1874,2282L1888,2282" fill="none" stroke="#000000" style="-webkit-tap-highlight-color: rgba(0, 0, 0, 0); stroke-linecap: round; stroke-linejoin: round; stroke-width: 21;" /><path d="M2460.86,2312.17" fill="none" stroke="#000000" style="-webkit-tap-highlight-color: rgba(0, 0, 0, 0); stroke-linecap: round; stroke-linejoin: round; stroke-width: 21;" /><path d="M1894,2284L1929,2282L1916,2280L1918,2281L1940,2291L1945,2291L1976,2278L1945,2291L1976,2278L1983,2276L1999,2283L1994,2281L2011,2279L2011,2277L2030,2268L2012,2279" fill="none" stroke="#000000" style="-webkit-tap-highlight-color: rgba(0, 0, 0, 0); stroke-linecap: round; stroke-linejoin: round; stroke-width: 21;" /><path d="M2445,2297L2461,2297" fill="none" stroke="#000000" style="-webkit-tap-highlight-color: rgba(0, 0, 0, 0); stroke-linecap: round; stroke-linejoin: round; stroke-width: 21;" /><path d="M2037,2268" fill="none" stroke="#000000" style="-webkit-tap-highlight-color: rgba(0, 0, 0, 0); stroke-linecap: round; stroke-linejoin: round; stroke-width: 21;" /><path d="M2447,2306L2476,2297L2468,2297L2498,2297L2520,2297L2572,2297L2543,2297L2617,2297L2595,2297L2624,2297L2647,2297L2669,2297L2699,2297L2751,2297L2721,2297L2781,2297L2810,2290L2833,2290L2855,2290L2900,2290L2877,2290L2952,2290L2929,2290L2974,2290L2990,2300L3017,2291L3032,2283L3015,2291L3032,2283L3063,2282L3032,2283L3048,2282L3081,2268L3100,2275L3082,2269L3115,2268L3130,2268L3175,2268L3145,2268L3160,2268L3189,2268L3204,2268L3227,2260L3212,2260L3234,2260L3249,2260L3271,2253L3241,2260L3256,2253L3279,2253L3286,2253L3301,2245L3316,2245L3323,2245L3338,2245L3360,2238L3353,2238L3391,2240" fill="none" stroke="#000000" style="-webkit-tap-highlight-color: rgba(0, 0, 0, 0); stroke-linecap: round; stroke-linejoin: round; stroke-width: 21;" /><path d="M1256,995L1258,1011L1258,990L1257,1004L1262,1011L1297,1021L1273,1024L1271,1011L1309,1027L1323,1026L1317,1024L1300,1020L1338,1004L1338,1025L1331,1025L1338,1011L1338,967L1338,981L1338,996L1346,947L1344,937L1339,922L1331,906L1331,906L1323,883L1322,883L1302,882L1301,882L1286,899L1294,883L1279,908L1279,929" fill="none" stroke="#000000" style="-webkit-tap-highlight-color: rgba(0, 0, 0, 0); stroke-linecap: round; stroke-linejoin: round; stroke-width: 21;" /><path d="M2401.39,1293.63L2401,1283L2403,1280L2394,1285L2387,1287L2372,1295L2357,1303L2342,1312L2336,1318L2310,1336L2327,1316L2322,1326L2302,1343L2288,1356L2282,1368L2295,1350L2268,1386L2275,1375L2272,1380L2265,1395L2265,1395L2275,1413L2275,1427L2275,1420L2275,1435L2275,1450L2275,1442L2275,1457L2275,1472L2275,1479L2275,1487L2268,1487L2268,1494L2268,1502L2260,1524L2260,1517L2253,1541L2253,1541L2245,1561L2260,1554L2245,1576L2245,1591L2238,1606L2238,1621L2237,1635L2236,1668L2239,1643L2236,1658L2238,1689L2242,1721L2241,1724L2233,1702L2238,1740L2238,1769L2238,1747L2238,1762L2238,1784L2238,1792L2245,1821L2229,1809L2228,1808L2245,1829L2245,1836L2245,1851L2245,1859L2253,1859L2253,1874L2253,1888L2253,1896" fill="none" stroke="#000000" style="-webkit-tap-highlight-color: rgba(0, 0, 0, 0); stroke-linecap: round; stroke-linejoin: round; stroke-width: 21;" /><path d="M2253,1926L2255,1942L2253,1918L2253,1911L2253,1970L2255,1942L2253,1955L2253,1985L2253,2007L2253,2000L2262,2022L2262,2038L2253,2063L2253,2065L2258,2051L2245,2089L2245,2104" fill="none" stroke="#000000" style="-webkit-tap-highlight-color: rgba(0, 0, 0, 0); stroke-linecap: round; stroke-linejoin: round; stroke-width: 21;" /><path d="M2460.86,1286.19" fill="none" stroke="#000000" style="-webkit-tap-highlight-color: rgba(0, 0, 0, 0); stroke-linecap: round; stroke-linejoin: round; stroke-width: 21;" /><path d="M2245,2126L2245,2111L2245,2134L2245,2141L2245,2153L2238,2170L2238,2170L2236,2173L2238,2186L2245,2207L2248,2198L2246,2208L2238,2230L2238,2238L2238,2249L2238,2238L2238,2230L2238,2223L2245,2207L2246,2208L2247,2201L2249,2196" fill="none" stroke="#000000" style="-webkit-tap-highlight-color: rgba(0, 0, 0, 0); stroke-linecap: round; stroke-linejoin: round; stroke-width: 21;" /><path d="M2446,1286L2453,1286L2431,1286L2439,1286L2419,1276L2411,1280L2409,1280L2401,1283L2394,1285L2387,1287L2382,1289L2376,1293L2360,1301L2357,1303L2334,1311L2325,1314L2317,1316L2297,1323L2290,1331L2275,1346L2268,1353L2260,1368L2268,1384L2249,1402L2253,1411L2247,1427L2239,1447L2233,1462L2227,1481L2230,1509L2223,1546L2230,1524L2223,1576L2223,1561L2216,1598L2216,1636L2216,1621L2222,1664" fill="none" stroke="#000000" style="-webkit-tap-highlight-color: rgba(0, 0, 0, 0); stroke-linecap: round; stroke-linejoin: round; stroke-width: 21;" /><path d="M2216,1676L2224,1695L2223,1740L2225,1717L2228,1808L2238,1821L2230,1762L2230,1777L2238,1836L2238,1874L2238,1896L2238,1859L2255,1942L2245,1911L2255,1942L2253,1970L2253,1985L2262,2022L2253,2000L2245,2037L2238,2074L2250,2063L2238,2097L2238,2119" fill="none" stroke="#000000" style="-webkit-tap-highlight-color: rgba(0, 0, 0, 0); stroke-linecap: round; stroke-linejoin: round; stroke-width: 21;" /><path d="M1880.96,602.2" fill="none" stroke="#000000" style="-webkit-tap-highlight-color: rgba(0, 0, 0, 0); stroke-linecap: round; stroke-linejoin: round; stroke-width: 21;" /><path d="M2239,2152L2226,2135L2239,2152L2230,2170L2223,2201L2219,2185L2216,2216L2216,2230L2208,2245L2201,2260L2201,2275L2201,2282L2201,2297L2201,2312L2201,2305L2201,2320L2193,2312L2184,2248L2193,2290" fill="none" stroke="#000000" style="-webkit-tap-highlight-color: rgba(0, 0, 0, 0); stroke-linecap: round; stroke-linejoin: round; stroke-width: 21;" /><path d="M1874,608" fill="none" stroke="#000000" style="-webkit-tap-highlight-color: rgba(0, 0, 0, 0); stroke-linecap: round; stroke-linejoin: round; stroke-width: 21;" /><path d="M2188,2218" fill="none" stroke="#000000" style="-webkit-tap-highlight-color: rgba(0, 0, 0, 0); stroke-linecap: round; stroke-linejoin: round; stroke-width: 21;" /><path d="M1874,635L1875,610L1875,610L1869,654L1874,671L1865,699L1867,751L1866,729L1870,773L1866,789L1866,810L1864,819L1868,832L1866,862L1866,848L1866,877L1866,892L1874,922L1883,890L1874,914L1883,935L1883,937L1881,944L1878,946L1891,972L1888,989L1888,989L1888,991L1881,1006L1879,1007L1881,1029L1881,1032L1882,1049L1880,1057L1883,1071L1884,1093L1880,1078L1884,1096L1881,1115L1881,1138L1881,1108L1874,1138L1868,1181L1874,1167L1878,1144L1868,1181L1874,1204L1868,1235L1877,1220L1867,1245L1866,1264L1866,1279L1874,1316L1866,1301L1874,1331L1874,1383L1874,1368L1874,1353L1874,1399L1874,1427L1874,1399L1874,1413L1871,1459L1874,1442L1871,1459L1874,1435L1871,1465L1881,1481L1878,1478L1881,1479L1877,1508L1885,1520L1877,1507L1887,1532L1887,1533L1887,1554L1886,1561L1886,1569L1883,1606L1884,1591L1885,1576L1884,1595L1883,1613L1882,1621L1882,1628L1882,1636L1881,1643" fill="none" stroke="#000000" style="-webkit-tap-highlight-color: rgba(0, 0, 0, 0); stroke-linecap: round; stroke-linejoin: round; stroke-width: 21;" /><path d="M1880,1658L1879,1667L1881,1650L1866,1680L1866,1688L1866,1710L1866,1695L1875,1742L1874,1755L1875,1736L1866,1717L1873,1769L1872,1807L1874,1783L1872,1799L1871,1836L1874,1822L1871,1829L1870,1845L1925.57,1895.83L1870,1850L1870,1859L1870,1866L1869,1874L1869,1877L1866,1896L1859,1896L1869,1877L1866,1903L1862,1917L1869,1919L1881,1918L1869,1919L1881,1926L1881,1933L1881,1948L1881,1940L1881,1955L1874,1970L1881,1963L1874,1970L1874,1978L1874,1963L1881,1933L1874,1948L1928,1903L1927,1940L1926,1909L1927,1918L1927,1933L1927,1955L1924,1997L1918,1970L1918,1970L1923,1998L1923,2023L1923,2014L1918,2033L1922,2052L1921,2059L1922,2045" fill="none" stroke="#000000" style="-webkit-tap-highlight-color: rgba(0, 0, 0, 0); stroke-linecap: round; stroke-linejoin: round; stroke-width: 21;" /><path d="M1921,2067L1921,2073L1921,2087L1933,2097L1933,2111L1933,2119L1933,2126L1919,2135L1918,2141L1918,2149L1918,2156L1918,2163L1920,2171L1919,2178L1903,2186L1917,2188L1902,2209L1903,2193L1896,2209L1896,2209L1896,2239L1896,2223L1894,2253L1896,2246L1890,2270L1894,2279L1896,2296L1894,2284L1903,2320L1903,2312L1903,2334L1903,2349L1903,2357L1911,2349L1926,2327L1918,2342L1933,2327" fill="none" stroke="#000000" style="-webkit-tap-highlight-color: rgba(0, 0, 0, 0); stroke-linecap: round; stroke-linejoin: round; stroke-width: 21;" /><path d="M2431.12,1828.92L2416,1821L2433,1821L2416,1829L2416,1836L2421,1854L2419,1855L2426,1855L2428,1855L2453,1874L2483,1874L2513,1874L2543,1866L2565,1859L2595,1859L2624,1859L2647,1866L2676,1874L2691,1874L2706,1881L2729,1881L2743,1881L2758,1881L2781,1881L2795,1881L2818,1881L2862,1881L2833,1881L2847,1881L2884,1881L2900,1881L2884,1881L2914,1881L2929,1881L2944,1881L2981,1881L2966,1881L2996,1872L3056,1888L3018,1888L3071,1888L3033,1888L3093,1888L3115,1888L3167,1881L3137,1881L3204,1888L3182,1888L3197,1888L3219,1896L3249,1896L3271,1896L3227,1896L3301,1896L3323,1896L3346,1896L3375,1896L3368,1896L3390,1896L3427,1896L3405,1896L3448,1899L3465,1901L3485,1901L3509,1902L3524,1911L3546,1911L3569,1911L3583,1918L3598,1918L3625,1927L3695,1925L3677,1928" fill="none" stroke="#000000" style="-webkit-tap-highlight-color: rgba(0, 0, 0, 0); stroke-linecap: round; stroke-linejoin: round; stroke-width: 21;" /><path d="M3659,1926L3647,1921L3717,1935L3762,1933L3766,1950L3738,1933L3799,1940L3836,1940L3821,1940L3859,1940L3879,1940L3894,1949L3918,1940L3933,1940L3948,1940L3955,1940L3970,1940L3985,1940L3992,1940L4022,1940L4007,1940L4037,1948L4030,1948L4052,1948L4059,1948L4077,1957L4077,1957L4080,1959L4082,1962L4096,1963L4104,1963" fill="none" stroke="#000000" style="-webkit-tap-highlight-color: rgba(0, 0, 0, 0); stroke-linecap: round; stroke-linejoin: round; stroke-width: 21;" /><path d="M2438.56,1910.7" fill="none" stroke="#000000" style="-webkit-tap-highlight-color: rgba(0, 0, 0, 0); stroke-linecap: round; stroke-linejoin: round; stroke-width: 21;" /><path d="M4117,1961L4125,1961L4119,1961L4132,1960" fill="none" stroke="#000000" style="-webkit-tap-highlight-color: rgba(0, 0, 0, 0); stroke-linecap: round; stroke-linejoin: round; stroke-width: 21;" /><path d="M2439,1903L2422,1898L2422,1898L2431,1918L2424,1933L2424,1955L2423,1993L2423,1978L2426,2036L2423,2015L2429,2059L2428,2079L2429,2104L2431,2119L2434,2171L2432,2141" fill="none" stroke="#000000" style="-webkit-tap-highlight-color: rgba(0, 0, 0, 0); stroke-linecap: round; stroke-linejoin: round; stroke-width: 21;" /><path d="M2433,2206L2433,2223L2433,2226L2433,2188L2446,2238L2446,2245L2446,2253L2446,2260L2446,2275L2446,2268L2446,2282L2439,2295L2439,2268L2439,2275L2439,2282" fill="none" stroke="#000000" style="-webkit-tap-highlight-color: rgba(0, 0, 0, 0); stroke-linecap: round; stroke-linejoin: round; stroke-width: 21;" /><path d="M29.74,1992.48" fill="none" stroke="#000000" style="-webkit-tap-highlight-color: rgba(0, 0, 0, 0); stroke-linecap: round; stroke-linejoin: round; stroke-width: 21;" /><path d="M16,1982L16,1982L15,1980L0,1985L14.87,1985.05L59,1985L103,1985L126,1985L156,1985L179,1982L205,1982L230,1985L242,1993L310,1992L283,1995L311,1993L340,1992L350,1992L364,1991L404,1997L375,1988L410,1986L427,1983L430,1985L448,1993L468,1978L461,1978L449,1993L483,1978L535,1978L520,1978L498,1978L513,1978L550,1970L568,1972L590,1966L580,1962L618,1962L629,1963L647,1963L654,1963L674,1965L675,1965L692,1965L699,1966L719,1963L736,1963L751,1958L765,1959L779,1965L783,1965L817,1980L803,1970L828,1965L835,1968L839,1966L839,1966L868,1975L870,1978L892,1978L877,1977L885,1978L900,1987L923,1985L929,1984L914,1985L945,1997L952,1993L971,2000L968,2000L995,1997L1011,1997L1018,2002L1048,2015L1033,2015L1063,2015L1078,2022L1098,2020L1103,2017L1093,2022" fill="none" stroke="#000000" style="-webkit-tap-highlight-color: rgba(0, 0, 0, 0); stroke-linecap: round; stroke-linejoin: round; stroke-width: 21;" /><path d="M1130,2022L1158,2026L1195,2029L1175,2028L1222,2022L1278,2019L1264,2022L1242,2021L1296,2007L1308,2006L1331,2000L1323,2008L1346,2000L1368,2007L1352,2000L1368,2007L1375,2005L1400,2006L1420,2008L1405,2006L1435,2007L1448,2006L1448,2006L1472,2003L1481,2002L1490,2002L1502,1997L1518,1995L1499,1994L1526,1994L1531,1992L1550,1986L1554,1986L1558,1986L1569,1982L1584,1985L1591,1985L1606,1985L1613,1985L1628,1970L1643,1970L1653,1971L1665,1970L1679,1978L1693,1985" fill="none" stroke="#000000" style="-webkit-tap-highlight-color: rgba(0, 0, 0, 0); stroke-linecap: round; stroke-linejoin: round; stroke-width: 21;" /><path d="M2438.56,1360.54" fill="none" stroke="#000000" style="-webkit-tap-highlight-color: rgba(0, 0, 0, 0); stroke-linecap: round; stroke-linejoin: round; stroke-width: 21;" /><path d="M1728,1997L1705,1995L1742,1994L1744,1994L1744,1994L1744,1994L1732,1969L1744,1994" fill="none" stroke="#000000" style="-webkit-tap-highlight-color: rgba(0, 0, 0, 0); stroke-linecap: round; stroke-linejoin: round; stroke-width: 21;" /><path d="M2439,1355L2443,1354L2453,1348L2453,1341L2454,1338L2454,1346L2452,1352L2453,1368L2447,1385L2451,1400L2446,1441L2445,1417L2447,1457L2445,1479L2446,1509L2446,1502L2439,1524L2435,1544L2437,1539L2435,1551L2432,1570L2434,1581L2431,1576L2443,1590L2441,1589L2450,1604L2451,1613L2451,1624L2452,1632L2456,1638L2466,1648L2471,1658L2468,1650L2472,1665L2473,1677L2472,1673L2476,1684L2478,1695L2477,1710L2476,1711L2475,1717L2474,1725L2475,1723L2475,1732L2474,1740L2473,1748L2475,1774L2473,1764L2473,1755L2476,1777" fill="none" stroke="#000000" style="-webkit-tap-highlight-color: rgba(0, 0, 0, 0); stroke-linecap: round; stroke-linejoin: round; stroke-width: 21;" /><path d="M2477,1785L2476,1791L2479,1795L2479,1796L2485,1799L2483,1799" fill="none" stroke="#000000" style="-webkit-tap-highlight-color: rgba(0, 0, 0, 0); stroke-linecap: round; stroke-linejoin: round; stroke-width: 21;" /><path d="M3070.5,914.46L3071,900L3076,917L3093,900L3078,900L3108,900L3133,910L3137,908L3145,907L3152,907L3160,906L3163,906L3175,907L3189,907L3182,907L3189,914L3197,914L3206,930L3205,932L3188,947L3178,951L3186,947L3171,967L3170,964L3145,1004L3152,989L3145,1011L3145,1034L3145,1034L3143,1034L3149,1036L3130,1026L3123,1019L3108,1019L3095,1013L3085,1010L3076,1011L3073,1011L3072,1013L3056,1011L3048,1011L3048,1004L3048,996L3049,982L3048,962L3047,980L3055,954L3057,930L3056,935L3056,919" fill="none" stroke="#000000" style="-webkit-tap-highlight-color: rgba(0, 0, 0, 0); stroke-linecap: round; stroke-linejoin: round; stroke-width: 21;" /><path d="M3057,904L3057,914L3056,919" fill="none" stroke="#000000" style="-webkit-tap-highlight-color: rgba(0, 0, 0, 0); stroke-linecap: round; stroke-linejoin: round; stroke-width: 21;" /><path d="M3873.44,1457.19L3874,1450L3870,1437L3859,1442L3859,1450L3858,1463L3859,1464L3857,1484L3851,1487L3851,1492L3842,1504L3855,1502L3854,1515L3854,1515L3844,1532L3857,1536L3859,1543L3859,1543L3850,1576L3850,1576L3859,1590L3849,1584L3859,1597L3859,1606L3859,1621L3856,1607L3859,1628L3843,1644L3843,1644L3843,1644L3851,1658L3851,1665L3851,1673L3851,1680L3844,1695L3844,1695L3844,1696L3851,1710L3851,1717L3859,1725L3859,1732L3868,1746L3868,1747L3850,1749L3850,1749L3850,1749L3859,1762L3865,1779L3865,1779L3860,1793L3866,1784L3851,1799L3851,1799L3851,1814L3844,1821L3851,1821L3844,1836L3836,1844L3844,1829L3844,1844L3836,1851L3836,1867L3836,1867L3836,1867L3845,1883L3836,1903L3845,1885L3846,1886L3836,1911" fill="none" stroke="#000000" style="-webkit-tap-highlight-color: rgba(0, 0, 0, 0); stroke-linecap: round; stroke-linejoin: round; stroke-width: 21;" /><path d="M3836,1918L3836,1926L3836,1940L3836,1933L3836,1948L3836,1955L3836,1963L3836,1970L3829,1978L3829,1992L3829,1985L3829,1985" fill="none" stroke="#000000" style="-webkit-tap-highlight-color: rgba(0, 0, 0, 0); stroke-linecap: round; stroke-linejoin: round; stroke-width: 21;" /><path d="M2445.99,2118.87L2434,2110L2431,2111L2431,2119L2430,2109L2431,2119L2431,2126L2431,2126L2446,2126L2461,2134L2476,2134L2491,2134L2505,2141L2520,2141L2535,2141L2543,2141L2550,2141L2565,2141L2580,2149L2587,2149L2572,2141L2595,2149L2602,2149L2610,2149L2617,2149L2624,2149L2632,2156L2639,2156L2647,2156L2654,2156L2662,2156L2669,2156L2676,2156L2684,2156L2706,2156L2691,2156L2714,2156L2699,2156L2729,2156L2743,2156L2721,2156L2736,2156L2773,2156L2795,2156L2758,2156L2781,2156L2825,2156L2833,2156L2810,2156L2840,2156L2855,2156L2878,2148L2870,2144L2870,2144L2886,2146L2892,2147L2901,2146L2898,2147L2914,2140L2929,2141L2937,2141L2944,2141L2952,2141L2959,2141L2967,2129L2974,2129L2981,2128L2988,2134L3011,2127L2996,2133L3002,2134L3018,2126L3026,2126L3040,2125L3040,2125L3033,2126L3056,2126L3063,2126L3071,2126L3078,2119L3094,2111L3094,2111L3105,2110L3100,2111L3105,2110L3124,2090L3162,2088L3137,2089L3167,2088L3185,2074L3197,2067L3183,2074L3218,2077L3236,2052L3219,2059L3250,2044L3239,2052" fill="none" stroke="#000000" style="-webkit-tap-highlight-color: rgba(0, 0, 0, 0); stroke-linecap: round; stroke-linejoin: round; stroke-width: 21;" /><path d="M3256,2044L3271,2045L3265,2044L3279,2043L3292,2045L3301,2030L3285,2043L3297,2012L3316,2022L3323,2015L3331,2015L3336,2003L3347,2010L3346,2000L3359,2000L3353,1999L3360,1998L3375,2000L3390,2000L3383,2000L3398,2000L3405,2000L3412,2000L3427,2000L3420,2000L3435,2000L3442,2000L3465,2000L3457,2000L3472,2000L3494,2000L3479,2000L3487,2000L3502,2000L3524,1992L3517,2000L3509,2000L3531,1992L3554,1992L3546,1992L3539,1992L3561,1985L3574,1976L3573,1976L3575,1975L3598,1978L3606,1978L3613,1978L3591,1978L3613,1985L3621,1985L3628,1985L3636,1985" fill="none" stroke="#000000" style="-webkit-tap-highlight-color: rgba(0, 0, 0, 0); stroke-linecap: round; stroke-linejoin: round; stroke-width: 21;" /><path d="M1100.33,691.42" fill="none" stroke="#000000" style="-webkit-tap-highlight-color: rgba(0, 0, 0, 0); stroke-linecap: round; stroke-linejoin: round; stroke-width: 21;" /><path d="M3643,1985L3650,1985" fill="none" stroke="#000000" style="-webkit-tap-highlight-color: rgba(0, 0, 0, 0); stroke-linecap: round; stroke-linejoin: round; stroke-width: 21;" /><path d="M1100,684L1093,677L1093,669L1085,669L1085,684L1085,691L1085,706L1085,721L1085,734L1092,759L1085,762L1083,775L1083,796L1087,810L1086,825L1085,842L1088,855L1082,872L1084,885L1088,900L1088,900L1088,909L1088,909L1082,921L1082,927L1107,945L1106,946L1106,950L1093,959L1093,967L1093,974L1074,978L1074,1000L1075,1005L1074,978L1075,1013L1075,1018L1074,1024L1072,1031L1079,1044L1078,1048L1075,1063L1079,1056L1070,1070L1071,1078L1073,1085L1072,1093L1062,1112L1063,1113L1063,1130L1064,1124L1060,1132L1060,1145L1056,1152L1062,1162L1056,1167L1063,1166L1063,1171L1071,1176L1070,1182L1076,1179L1086,1182L1087,1181L1107,1182" fill="none" stroke="#000000" style="-webkit-tap-highlight-color: rgba(0, 0, 0, 0); stroke-linecap: round; stroke-linejoin: round; stroke-width: 21;" /><path d="M1107,1182L1108,1190L1124,1195L1115,1190L1130,1195L1139,1209L1137,1208L1135,1208L1158,1211L1167,1197L1175,1197L1160,1211L1199,1203L1190,1190L1182,1190L1197,1190" fill="none" stroke="#000000" style="-webkit-tap-highlight-color: rgba(0, 0, 0, 0); stroke-linecap: round; stroke-linejoin: round; stroke-width: 21;" /><path d="M156.13,1962.74L150,1959L150,1959L129,1962L125,1963L119,1955L119,1951L121,1940L111,1924L120,1925L117,1910L128,1906L142,1895L149,1881L175,1859L163,1868L190,1851L212,1832L230,1829L239,1828L269,1824L283,1814L292,1796L295,1797L315,1792L322,1792L340,1779L342,1776L349,1768L363,1763L357,1763L381,1757L388,1750L409,1746L400,1746L394,1746L414,1745L431,1732L431,1732L419,1736L434,1731L443,1718L436,1723L447,1710L464,1699L468,1695L477,1687L482,1680L490,1680L491,1673L499,1673L505,1666L513,1658L519,1662L515,1655L531,1647L536,1642L547,1635L550,1624L558,1627L566,1621L573,1619L580,1619L587,1628L584,1617L592,1628L595,1635L605,1640" fill="none" stroke="#000000" style="-webkit-tap-highlight-color: rgba(0, 0, 0, 0); stroke-linecap: round; stroke-linejoin: round; stroke-width: 21;" /><path d="M610,1658L610,1641L617,1658L625,1665L632,1673L647,1673L656,1673L661,1676L677,1676L684,1676L693,1679L708,1677L715,1679L729,1678" fill="none" stroke="#000000" style="-webkit-tap-highlight-color: rgba(0, 0, 0, 0); stroke-linecap: round; stroke-linejoin: round; stroke-width: 21;" /><path d="M877.29,1457.19" fill="none" stroke="#000000" style="-webkit-tap-highlight-color: rgba(0, 0, 0, 0); stroke-linecap: round; stroke-linejoin: round; stroke-width: 21;" /><path d="M721,1679L743,1695L743,1683L736,1681L736,1683" fill="none" stroke="#000000" style="-webkit-tap-highlight-color: rgba(0, 0, 0, 0); stroke-linecap: round; stroke-linejoin: round; stroke-width: 21;" /><path d="M878,1450L870,1454L869,1477L863,1487L851,1497L840,1502L833,1509L824,1522L832,1529L827,1538L827,1538L835,1543L825,1570L825,1570L824,1587L839,1590L839,1593L843,1603L843,1615L848,1616L848,1630L855,1629L855,1635L865,1641L867,1644L862,1667L862,1658L859,1684L859,1684L862,1673L862,1681L860,1706L862,1717L862,1721L861,1710L860,1721L868,1724L855,1747L855,1740L855,1755L865,1778L855,1762L865,1778L866,1779L865,1795L864,1797L869,1797L870,1814L877,1814L873,1796L885,1807L892,1807" fill="none" stroke="#000000" style="-webkit-tap-highlight-color: rgba(0, 0, 0, 0); stroke-linecap: round; stroke-linejoin: round; stroke-width: 21;" /><path d="M885,1814L892,1814L877.29,1821.48L873,1796L877,1814L875,1795L869,1797L862,1814L855,1821L838,1839L833,1851L825,1861L810,1872L802,1880L788,1880L782,1889L765,1887L761,1888L747,1889L743,1890L742,1891L729,1888L721,1896L714,1896L706,1896L699,1903L683,1906L683,1906L682,1907L699,1926L714,1933L706,1933L725,1950L735,1950L751,1940L770,1925L797,1903L773,1921L810,1896L819,1882L840,1851L834,1866L858,1852L870,1829L862,1836L877,1821L885,1821" fill="none" stroke="#000000" style="-webkit-tap-highlight-color: rgba(0, 0, 0, 0); stroke-linecap: round; stroke-linejoin: round; stroke-width: 21;" /><path d="M885,1814L885,1807L885,1793L875,1795L864,1797L869,1797L805,1817L830,1800L761,1841L781,1836L758,1847L758,1866L766,1866" fill="none" stroke="#000000" style="-webkit-tap-highlight-color: rgba(0, 0, 0, 0); stroke-linecap: round; stroke-linejoin: round; stroke-width: 21;" /><path d="M512.99,1955.31L528,1955L559,1950L559,1950L559,1948L565,1944L560,1940L543,1933L560,1940L543,1926L535,1918L528,1911L520,1903L513,1903L506,1896L498,1896L481,1891L469,1896L454,1896L439,1896L420,1900L410,1893L396,1896L357,1896L377,1898L342,1903L355,1901L317,1903L335,1903L312,1902L295,1896L283,1900L268,1905L264,1912L243,1911L263,1911L244,1914L230,1912L220,1926L217,1926L202,1915L186,1922L186,1922L186,1922L161,1948L162,1951L161,1948L158,1957L160,1955L155,1959L156,1978L156,1985L173,1994L172,1987L197,1994L241,1992" fill="none" stroke="#000000" style="-webkit-tap-highlight-color: rgba(0, 0, 0, 0); stroke-linecap: round; stroke-linejoin: round; stroke-width: 21;" /><path d="M205,1982L267,1985L279,1971L322,1961L310,1978L357,1963L372,1961L394,1962L408,1964L416,1963L421,1963L446,1963L426,1958L461,1970L454,1970L506,1978L476,1978L491,1978L520,1978L535,1970L580,1960L568,1972L550,1970L587,1938L589,1937L602,1933L602,1921L602,1921L572,1888L587,1896L558,1888L550,1888L543,1896L543,1933L543,1911" fill="none" stroke="#000000" style="-webkit-tap-highlight-color: rgba(0, 0, 0, 0); stroke-linecap: round; stroke-linejoin: round; stroke-width: 21;" /><path d="M1970.18,1910.7L1970,1903L1970,1896L1963,1896L1963,1903L1963,1911L1963,1918L1970,1918L1979,1930L1979,1932L1985,1939L1983,1955L1984,1947L1984,1970L1984,1963L1985,1971L1985,1985L1985,1992L1985,2000L1985,2007L1978,2015L1978,2030L1978,2022L1978,2037L1978,2045L1978,2052L1978,2059L1978,2067L1985,2074L1985,2082L1985,2089L1985,2097L1985,2104L1985,2119L1985,2111L1992,2141L1992,2149L1985,2126L1985,2134L1992,2163L1992,2171L1992,2156L1992,2178" fill="none" stroke="#000000" style="-webkit-tap-highlight-color: rgba(0, 0, 0, 0); stroke-linecap: round; stroke-linejoin: round; stroke-width: 21;" /><path d="M2000,2193L2007,2201L2007,2208L2000,2186L2007,2216L2015,2230L2015,2223" fill="none" stroke="#000000" style="-webkit-tap-highlight-color: rgba(0, 0, 0, 0); stroke-linecap: round; stroke-linejoin: round; stroke-width: 21;" /><path d="M2289.87,1732.27L2281,1725L2281,1717L2281,1725L2281,1732L2282,1747L2282,1755L2281,1769L2280,1777L2279,1784L2278,1792L2277,1797L2276,1807L2277,1814L2278,1821L2277,1829L2276,1836L2277,1841L2276,1850L2275,1859L2275,1861L2274,1881L2273,1874L2273,1888L2290,1911L2290,1896L2290,1903L2290,1918L2290,1926L2290,1940L2290,1933L2290,1948L2290,1963L2288,1989L2290,1970L2286,2037L2287,2021L2287,2013L2287,2000L2305,2052L2305,2089L2305,2074L2305,2059L2305,2097L2305,2104L2305,2111L2305,2119L2305,2134L2297,2149L2305,2141L2297,2171L2297,2163" fill="none" stroke="#000000" style="-webkit-tap-highlight-color: rgba(0, 0, 0, 0); stroke-linecap: round; stroke-linejoin: round; stroke-width: 21;" /><path d="M2297,2178L2297,2186L2283,2201L2283,2193L2283,2208L2283,2216L2283,2238L2283,2223L2267.56,2267.56L2289,2246L2290,2268L2290,2275L2297,2250L2290,2268L2275,2268L2275,2260L2282,2260L2297,2250L2290,2247L2305,2248L2297,2250L2310,2249L2320,2247L2327,2246L2338,2245L2346,2242L2346,2242L2372,2260L2364,2260L2379,2268L2387,2268L2401,2275L2394,2268L2409,2275" fill="none" stroke="#000000" style="-webkit-tap-highlight-color: rgba(0, 0, 0, 0); stroke-linecap: round; stroke-linejoin: round; stroke-width: 21;" /><path d="M2431,2282L2416,2282L2409,2282L2424,2282L2439,2282L2439,2268L2431,2268L2439,2275L2416,2268L2424,2268L2409,2268" fill="none" stroke="#000000" style="-webkit-tap-highlight-color: rgba(0, 0, 0, 0); stroke-linecap: round; stroke-linejoin: round; stroke-width: 21;" /><path d="M2066.83,2282.43L2089,2268L2082,2283L2089,2260L2097,2253L2089,2253L2082,2253L2074,2260L2067,2260L2059,2268L2048,2285L2030,2275L2013,2282L1994,2288L1994,2288" fill="none" stroke="#000000" style="-webkit-tap-highlight-color: rgba(0, 0, 0, 0); stroke-linecap: round; stroke-linejoin: round; stroke-width: 21;" /><path d="M1970,2290L1963,2297L1946,2294L1946,2294L1963,2312L1955,2312L1970,2320" fill="none" stroke="#000000" style="-webkit-tap-highlight-color: rgba(0, 0, 0, 0); stroke-linecap: round; stroke-linejoin: round; stroke-width: 21;" /><path d="M2156.04,832.68L2152,816L2153,814L2152,816L2141,840L2141,855L2134,870L2134,885L2134,900L2141,914L2141,929L2149,944L2149,952L2156,959L2156,967L2163,974L2163,981L2163,996L2163,989L2163,1004L2163,1011L2163,1019L2163,1041L2163,1033L2163,1048L2163,1063L2163,1056L2163,1071L2171,1078L2171,1085L2178,1100L2171,1093L2178,1108L2178,1123L2186,1152L2186,1130L2186,1145L2178,1167L2178,1190L2178,1175L2171,1197L2171,1204L2171,1212L2171,1219L2178,1227L2178,1234L2186,1234L2186,1242L2186,1249L2186,1256L2186,1264L2186,1279L2186,1301L2186,1286L2186,1316L2186,1338L2186,1331L2186,1353L2186,1368L2186,1383L2186,1375L2186,1390L2186,1405L2186,1413L2186,1420L2178,1427L2178,1435L2178,1442L2171,1450L2171,1457L2171,1465L2171,1472L2163,1494L2171,1479L2163,1502L2163,1509L2163,1517L2163,1532L2163,1539L2163,1546L2163,1554L2163,1569L2156,1576L2156,1584L2156,1598L2156,1606L2156,1591L2156,1613L2156,1621L2156,1643L2156,1628L2156,1658L2156,1665L2156,1680L2156,1695L2156,1703L2156,1717L2163,1725L2163,1732L2163,1740L2163,1747L2163,1755L2163,1762L2163,1769L2163,1784L2163,1807L2163,1792L2163,1799L2163,1821L2163,1829L2156,1836L2156,1851L2156,1859L2149,1874L2149,1881L2141,1896L2134,1911L2134,1926L2126,1948L2126,1933L2119,1955L2119,1963L2119,1978L2119,1985L2119,1992L2119,2015L2119,2007L2119,2000L2119,2022" fill="none" stroke="#000000" style="-webkit-tap-highlight-color: rgba(0, 0, 0, 0); stroke-linecap: round; stroke-linejoin: round; stroke-width: 21;" /><path d="M2119,2030L2119,2037L2119,2045L2119,2052L2126,2059L2126,2067L2126,2074L2126,2082L2126,2089L2126,2111L2134,2119L2126,2097L2134,2126L2141,2149L2141,2134L2141,2141L2141,2156L2149,2163L2149,2171L2149,2178L2149,2186L2149,2201L2156,2208L2149,2193L2156,2227L2156,2245L2154,2228L2154,2228L2156,2253L2156,2269L2156,2269L2156,2272L2156,2272L2156,2305L2156,2290L2156,2297L2156,2312L2156,2342L2156,2327L2156,2320L2156,2334L2156,2349L2156,2364L2156,2357L2156,2372L2149,2372L2149,2379L2149,2387L2149,2394L2156,2387" fill="none" stroke="#000000" style="-webkit-tap-highlight-color: rgba(0, 0, 0, 0); stroke-linecap: round; stroke-linejoin: round; stroke-width: 21;" /><path d="M1137.5,1211.84L1137,1192L1137,1208L1130,1195L1135,1208L1123,1212L1134,1212L1128,1229L1123,1230L1123,1230L1122,1242L1130,1248L1126,1245L1130,1262L1133,1262L1137,1264L1136,1270L1137,1278L1134,1279L1139,1294L1137,1300L1132,1306L1137,1315L1137,1322L1138,1331L1138,1338L1136,1345L1141,1352L1142,1354L1137,1368L1154,1378L1154,1378L1145,1389L1145,1389L1154,1385L1151,1403L1152,1405L1155,1409L1156,1410L1152,1435L1152,1435L1152,1439L1152,1449L1150,1450L1152,1465L1152,1472L1152,1479L1152,1487L1152,1494L1152,1502L1152,1509L1150,1526L1150,1526L1148,1528L1155,1547L1155,1547L1152,1554L1150,1558L1146,1562L1152,1576L1150,1588L1153,1590L1150,1598L1152,1613L1152,1628L1147,1643L1135,1658L1145,1673L1145,1680L1145,1695L1145,1703L1137,1710L1137,1721L1137,1723L1137,1740L1132,1740L1133,1755L1131,1742L1133,1761L1133,1761L1115,1784L1121,1783L1112,1788L1112,1788" fill="none" stroke="#000000" style="-webkit-tap-highlight-color: rgba(0, 0, 0, 0); stroke-linecap: round; stroke-linejoin: round; stroke-width: 21;" /><path d="M1123,1788L1003.67,1866.09L989,1858L996,1857L987,1858L996,1857L989,1858L996,1857L1009,1837L1026,1836L1041,1836L1071,1836L1056,1836L1085,1833L1100,1836L1114,1834L1137,1836L1152,1836L1167,1829L1200,1816L1175,1829L1216,1817L1206,1818L1242,1814L1234,1814L1256,1814L1270,1811L1270,1811L1280,1809L1294,1821L1286,1821L1301,1821L1308,1821L1316,1821L1331,1821L1323,1821L1338,1821L1346,1821L1361,1821L1353,1821L1375,1821L1390,1820L1398,1821L1405,1820L1413,1814L1415,1814L1435,1814L1442,1814L1457,1807L1465,1807L1479,1807L1494,1799L1502,1799L1522,1786L1524,1786L1539,1784L1546,1783L1559,1779L1559,1779L1576,1777L1584,1769L1598,1769L1591,1769L1614,1758L1619,1760L1628,1762L1625,1765L1634,1760" fill="none" stroke="#000000" style="-webkit-tap-highlight-color: rgba(0, 0, 0, 0); stroke-linecap: round; stroke-linejoin: round; stroke-width: 21;" /><path d="M1641,1751L1638,1757L1665,1755L1693,1740L1680,1740L1695,1732L1673,1747L1702,1717L1722,1711L1715,1709L1710,1715L1725,1695L1727,1677L1732,1695L1740,1677L1744,1654L1751,1650L1740,1657L1740,1673L1765,1620L1755,1636L1777,1628L1788,1613L1812,1591L1792,1613L1799,1614L1814,1591L1829,1576L1836,1569L1817,1586L1836,1576L1844,1569L1851,1554L1844,1561L1859,1546L1866,1546L1874,1539L1874,1532L1866,1539L1866,1532L1859,1539L1851,1539L1851,1546" fill="none" stroke="#000000" style="-webkit-tap-highlight-color: rgba(0, 0, 0, 0); stroke-linecap: round; stroke-linejoin: round; stroke-width: 21;" /><path d="M1003.67,1843.79L996,1835L981,1844L996,1835L987,1858L983,1864L974,1888L984,1861L974,1881L967,1911L959,1911L967,1903L950,1928L943,1929L922,1923L915,1926L923,1922L885,1933L911,1926L892,1933L877,1933L857,1928L850,1932L861,1924L855,1929L831,1940L839,1939L818,1940L844,1939L788,1948L803,1940L765,1957L765,1957L751,1958L757,1955L745,1959L734,1964L727,1968L720,1969L706,1976L714,1974L693,1981L677,1984L691,1982L671,1992L664,1994L654,1999L652,1999L644,1997L654,2017L647,2024L647,2026L647,2026L639,2045L647,2052" fill="none" stroke="#000000" style="-webkit-tap-highlight-color: rgba(0, 0, 0, 0); stroke-linecap: round; stroke-linejoin: round; stroke-width: 21;" /><path d="M647,2059L639,2052L639,2067L647,2082L639,2082L639,2074L662,2082L698.86,2044.52L684,2038L684,2038L679,2038L678,2037L669,2052L684,2052L677,2052L699,2059L714,2059L741,2048L736,2048L773,2049L793,2049L818,2059L855,2045L833,2059L870,2044L877,2041L899,2047L907,2049L921,2048L937,2041L959,2037L966,2029L996,2037L1019,2037L1056,2045L1042,2043L1074,2045L1093,2045L1109,2035L1123,2052L1130,2052L1152,2059L1145,2052L1167,2059L1175,2059L1182,2059L1197,2059L1190,2059L1204,2052L1227,2052L1212,2052L1234,2052L1242,2052L1257,2044L1264,2045L1271,2045L1286,2046" fill="none" stroke="#000000" style="-webkit-tap-highlight-color: rgba(0, 0, 0, 0); stroke-linecap: round; stroke-linejoin: round; stroke-width: 21;" /><path d="M1308,2043L1293,2044L1340,2043L1324,2041L1368,2041L1353,2045L1375,2039L1387,2038L1398,2035L1401,2035L1417,2031L1427,2027L1420,2030L1433,2023" fill="none" stroke="#000000" style="-webkit-tap-highlight-color: rgba(0, 0, 0, 0); stroke-linecap: round; stroke-linejoin: round; stroke-width: 21;" /><path d="M3583.49,2029.65L3576,2015L3583,2022L3569,2007L3569,2000L3569,1992L3576,1992L3583,1992L3591,1992L3598,1992L3606,1992L3621,1985L3636,1985L3668,1975L3650,1985L3674,1975L3697,1990L3727,2000L3704,1988L3718,2000L3734,2002L3762,2002L3762,2002L3765,2002L3785,2002L3799,1992L3786,2002L3785,2002L3807,1992L3814,1992L3821,1992L3829,1992L3836,1992L3844,1992L3864,1994L3851,1992L3866,1993L3881,1986L3887,1985L3896,1982L3904,1985L3910,1986L3919,1984L3926,1997L3933,1992L3936,1992L3948,1995L3955,1990L3964,1991L3966,1992L3977,1986L3990,1990L3991,1992L4001,1992L4003,1991L4017,1996L4022,1997L4034,1990L4037,1991L4043,1992L4043,1992L4059,1992L4067,1992L4074,1992L4074,2000L4082,2000L4089,2000L4096,2000L4104,1992L4104,2000L4111,1992L4119,1992L4126,1992L4134,1992" fill="none" stroke="#000000" style="-webkit-tap-highlight-color: rgba(0, 0, 0, 0); stroke-linecap: round; stroke-linejoin: round; stroke-width: 21;" /><path d="M4149,1992L4141,1992L4165,2001L4165,2001L4178,1992L4165,2001L4186,1992L4197,1988L4201,1989L4206,1989" fill="none" stroke="#000000" style="-webkit-tap-highlight-color: rgba(0, 0, 0, 0); stroke-linecap: round; stroke-linejoin: round; stroke-width: 21;" /><path d="M2445.99,1234.15L2442,1217L2445,1216L2437,1218L2431,1218L2428,1218L2422,1217L2409,1227L2391,1222L2391,1222L2387,1223L2384,1223L2362,1223L2361,1226L2357,1226L2357,1226L2348,1227L2342,1227L2342,1242L2334,1242L2327,1242L2320,1242L2312,1242L2312,1249L2305,1249L2292,1256L2292,1256L2292,1256L2285,1264L2285,1265L2268,1271L2268,1279L2260,1279L2260,1286L2247,1293L2247,1293L2245,1294L2245,1294L2238,1293L2238,1308L2230,1316L2223,1323L2216,1338L2223,1331L2208,1346L2208,1353L2201,1353L2201,1368L2193,1368L2201,1361L2193,1375L2186,1383L2178,1398L2178,1390L2171,1398L2171,1413L2171,1405L2171,1420L2171,1427L2171,1435L2171,1442L2171,1450L2171,1457L2171,1465L2171,1472L2171,1479L2163,1494L2163,1487L2163,1517L2163,1509L2163,1524L2163,1532L2163,1546L2163,1539" fill="none" stroke="#000000" style="-webkit-tap-highlight-color: rgba(0, 0, 0, 0); stroke-linecap: round; stroke-linejoin: round; stroke-width: 21;" /><path d="M2156,1561L2163,1554L2156,1569L2149,1569" fill="none" stroke="#000000" style="-webkit-tap-highlight-color: rgba(0, 0, 0, 0); stroke-linecap: round; stroke-linejoin: round; stroke-width: 21;" /><path d="M2676.47,1107.76L2669,1106L2662,1104L2660,1104L2663,1101L2669,1106L2670,1115L2668,1123L2669,1120L2684,1139L2691,1143L2684,1139L2699,1144L2705,1151L2708,1167L2708,1167L2711,1178L2706,1174L2706,1180L2711,1190L2711,1197L2711,1204L2706,1211L2706,1217L2707,1227L2704,1231L2704,1231L2706,1249L2706,1256L2706,1264L2706,1271L2706,1279L2699,1279L2699,1286L2680,1276L2677,1285L2677,1285L2677,1285L2671,1308L2671,1308L2663,1320L2650,1327L2649,1327L2649,1327L2647,1346L2647,1361L2658,1357L2654,1360L2663,1368L2661,1375L2660,1377L2677,1398L2678,1396L2669,1399L2678,1402L2676,1412L2676,1426L2677,1419L2669,1433L2669,1443L2662,1465L2666,1452L2666,1456L2664,1472L2664,1487L2664,1479L2665,1494L2660,1504L2662,1507L2662,1507L2677,1517L2677,1521L2676,1534L2676,1539L2677,1546L2675,1553L2677,1561L2674,1567L2676,1584L2676,1591L2682,1605L2682,1605L2682,1605L2701,1634L2684,1621L2703,1643L2700,1626L2699,1653L2700,1658L2698,1663L2699,1672L2697,1673L2690,1687" fill="none" stroke="#000000" style="-webkit-tap-highlight-color: rgba(0, 0, 0, 0); stroke-linecap: round; stroke-linejoin: round; stroke-width: 21;" /><path d="M2699,1710L2699,1703L2699,1717L2699,1725L2699,1732L2694,1747L2694,1747L2694,1747L2706,1755L2706,1762L2706,1779L2706,1779L2706,1783L2711,1792L2711,1792L2711,1792L2721,1791" fill="none" stroke="#000000" style="-webkit-tap-highlight-color: rgba(0, 0, 0, 0); stroke-linecap: round; stroke-linejoin: round; stroke-width: 21;" /><path d="M3695.01,1003.67L3688,990L3695,990L3682,986L3672,985L3661,1005L3665,1006L3656,1024L3650,1028L3649,1041L3649,1055L3654,1066L3646,1079L3650,1093L3658,1113L3653,1110L3653,1110L3665,1123L3680,1125L3672,1123L3683,1127L3695,1125L3703,1127L3703,1127L3701,1155L3701,1155L3695,1174L3691,1168L3688,1179L3675,1197L3679,1204L3674,1219L3676,1227L3675,1256L3673,1243L3676,1235L3676,1261L3676,1283L3677,1286L3679,1295L3680,1306L3678,1315L3686,1326L3687,1329L3688,1345L3685,1351L3687,1368L3685,1382L3686,1363L3690,1396L3684,1404L3680,1422L3684,1404L3680,1422" fill="none" stroke="#000000" style="-webkit-tap-highlight-color: rgba(0, 0, 0, 0); stroke-linecap: round; stroke-linejoin: round; stroke-width: 21;" /><path d="M3695,1441L3695,1451L3698,1452L3705,1460L3702,1472L3702,1487L3702,1479L3710,1494L3710,1487L3710,1502L3710,1509L3710,1524L3710,1517L3710,1532L3710,1539L3710,1546L3710,1559L3716,1559L3724,1560L3724,1560" fill="none" stroke="#000000" style="-webkit-tap-highlight-color: rgba(0, 0, 0, 0); stroke-linecap: round; stroke-linejoin: round; stroke-width: 21;" /><path d="M2728.51,1799.18L2721,1782L2721,1791L2721,1778L2726,1779L2727,1781L2751,1784L2766,1784L2781,1784L2803,1784L2818,1784L2840,1784L2855,1784L2877,1784L2892,1784L2922,1775L2936,1783L2969,1781L2974,1781L2989,1775L3011,1792L2989,1775L3028,1792L3025,1792L3063,1792L3044,1781L3071,1792L3085,1792L3093,1792L3100,1792L3115,1792L3135,1782L3141,1782L3160,1785L3173,1790L3182,1792L3188,1792L3204,1792L3212,1793L3227,1792L3234,1791L3249,1792L3264,1792L3279,1792L3294,1790L3307,1785L3323,1792L3353,1791L3345,1787L3361,1791L3382,1789L3391,1787L3405,1791" fill="none" stroke="#000000" style="-webkit-tap-highlight-color: rgba(0, 0, 0, 0); stroke-linecap: round; stroke-linejoin: round; stroke-width: 21;" /><path d="M3416,1791L3435,1792L3442,1792L3458,1793L3458,1793L3486,1792L3496,1793L3509,1798L3524,1811L3529,1813L3554,1811L3566,1812L3583,1798L3591,1795L3606,1791L3598,1792L3613,1794L3619,1791L3648,1782L3636,1792L3653,1785L3661,1788L3654,1801" fill="none" stroke="#000000" style="-webkit-tap-highlight-color: rgba(0, 0, 0, 0); stroke-linecap: round; stroke-linejoin: round; stroke-width: 21;" /><path d="M3419.93,2260.13L3420,2253L3412,2238L3411,2241L3414,2237L3411,2241L3420,2240L3425,2240L3425,2240L3450,2245L3461,2249L3469,2248L3469,2248L3494,2230L3502,2230L3509,2223L3517,2223L3524,2223L3531,2223L3539,2223L3546,2223L3554,2223L3561,2223L3569,2223L3576,2223L3583,2223L3591,2223L3591,2230L3606,2230L3598,2230L3613,2230L3621,2230L3628,2230L3636,2230L3650,2230L3658,2230L3673,2230L3665,2230L3680,2230L3688,2230L3695,2230L3710,2230L3702,2230L3717,2238L3725,2238L3740,2238L3747,2238L3732,2238L3754,2238L3762,2238L3777,2230L3769,2238L3784,2230L3807,2230L3799,2230L3814,2230L3821,2230L3844,2230L3836,2230L3851,2230L3859,2230L3866,2230L3873,2223L3888,2223L3881,2223L3903,2223L3918,2223L3911,2223L3925,2223L3933,2223L3950,2223L3947,2223L3948,2222L3963,2223L3978,2223L3970,2223" fill="none" stroke="#000000" style="-webkit-tap-highlight-color: rgba(0, 0, 0, 0); stroke-linecap: round; stroke-linejoin: round; stroke-width: 21;" /><path d="M3985,2223L3992,2223L4000,2223L4007,2223L4022,2223L4030,2223L4037,2223L4052,2223L4044,2223L4059,2223L4067,2223L4074,2223L4082,2223L4089,2223L4104,2223L4119,2223L4096,2223L4111,2223L4141,2223L4126,2223L4149,2223L4134,2223L4178,2223L4163,2223L4171,2223L4156,2223L4186,2223L4193,2223L4208,2223L4201,2223" fill="none" stroke="#000000" style="-webkit-tap-highlight-color: rgba(0, 0, 0, 0); stroke-linecap: round; stroke-linejoin: round; stroke-width: 21;" /><path d="M1130.06,750.9L1131,742L1130,736L1137,734L1137,741L1145,751L1145,766L1145,781L1150,796L1152,824L1151,810L1152,839L1150,848L1160,860L1154,882L1160,860L1161,886L1162,887L1150,895L1160,907L1160,914L1143,913L1161,932L1145,937L1127,933L1122,947L1119,956L1113,974L1112,981L1114,989L1114,994L1117,1003L1112,1014L1111,1019L1111,1022L1112,1033L1108,1041L1116,1058L1116,1061L1106,1045L1123,1070L1130,1074L1120,1085L1119,1089L1137,1107L1140,1123L1143,1110L1137,1108L1144,1131L1151,1138L1152,1144L1155,1148L1159,1157L1160,1167L1160,1174L1157,1182L1155,1185L1156,1184L1167,1197L1169,1208L1167,1212L1164,1213L1158,1223" fill="none" stroke="#000000" style="-webkit-tap-highlight-color: rgba(0, 0, 0, 0); stroke-linecap: round; stroke-linejoin: round; stroke-width: 21;" /></svg>