<?xml version="1.0" encoding="utf-8" ?>
<svg baseProfile="full" height="1025" version="1.1" width="1600" xmlns="http://www.w3.org/2000/svg" xmlns:ev="http://www.w3.org/2001/xml-events" xmlns:xlink="http://www.w3.org/1999/xlink"><defs /><path d="M14.13,383.04L17,379L17,379L6,380" fill="none" stroke="#000000" style="-webkit-tap-highlight-color: rgba(0, 0, 0, 0); stroke-linecap: round; stroke-linejoin: round; stroke-width: 8;" /><path d="M3,380L0,380L0,385.87L3,386L17,379L17,379L17,379L17,379L20,380L22,380L25,380L25,380L28,380L34,381L37,382L40,383L42,383L52,380L45,383L52,380L54,379L57,379L54,379L59,379L62,379L67,378L70,377L71,377L73,377L74,377L79,377L82,377L82,377L82,377L96,381L96,381L96,381L101,380L104,379L105,379L107,378L113,380L110,378L115,380L119,379L122,379L124,381L127,380L130,380L133,381L136,382L138,382L141,383L144,384L149,385L152,386L152,386L154,387L154,387L154,387L166,393L164,394L166,394L167,393L172,397L172,407L176,412L172,407L178,411L178,412L181,412L184,417L184,417L188,415L191,419L192,419L195,420L198,419L207,422L209,423L204,420L212,424L215,424L219,427L220,427L223,428L229,428L232,430L235,431L236,431L237,430L243,443L249,442L246,443L260,441L252,441L254,441L264,440L271,436L266,437L277,435L278,435L290,442L281,434L294,442L305,435L305,435L309,425L306,434L310,428L314,425L316,423L311,425L316,423L319,421L322,422L318,420L323,415L327,417L324,414L327,410L326,415L329,406L336,403L333,404L337,403L342,404L346,397L348,393L350,393L353,391L356,388L359,388L362,389L365,386L367,385L373,383L377,383L370,384L379,383L382,380L384,380L387,379L391,381L402,380L394,380L393,380L402,380L407,381L415,381L408,381L416,381L418,381L421,381L422,381L432,377L433,377L441,376L438,376L435,377L444,376L452,376L447,376L453,376L453,376L453,376L463,383L467,384L472,384L483,379L483,379L486,378L488,377L492,378L496,378L500,379L505,380L509,388L516,387L520,390L518,389L520,390" fill="none" stroke="#000000" style="-webkit-tap-highlight-color: rgba(0, 0, 0, 0); stroke-linecap: round; stroke-linejoin: round; stroke-width: 8;" /><path d="M528,397L533,399L529,397L537,403L537,403L540,403L543,403L547,405L545,404L547,405L557,409L564,404L564,404L565,404L571,405L581,403L580,403L575,403L589,403L594,401L602,398L597,400L605,397L611,395L622,398L622,398L613,395L625,398L630,393L636,397L635,397L638,397L640,404L647.35,397.17L639,396L639,396L645,392L642,393L652,391L659,388L667,390L678,389L680,388L691,386L693,386L698,388L701,385L705,386" fill="none" stroke="#000000" style="-webkit-tap-highlight-color: rgba(0, 0, 0, 0); stroke-linecap: round; stroke-linejoin: round; stroke-width: 8;" /><path d="M707,387L706,390L704,388L701.06,329.33L695,334L695,334L695,334L695,334L693,334L690,334L690,334L681,336L681,336L673,334L673,334L670,332L670,332L668,333L667,335L661,338L659,338L656,338L653,339L652,341L647,344L646,344L643,346L643,346L643,346L639,355L637,356L635,357L635,357L634,358L632,360L632,360L632,360L632,360L632,362L632,362L632,371L632,372L632,374L632,374L625,392L625,392L622,393L622,393" fill="none" stroke="#000000" style="-webkit-tap-highlight-color: rgba(0, 0, 0, 0); stroke-linecap: round; stroke-linejoin: round; stroke-width: 8;" /><path d="M709.54,334.98L707,331L709,332L707,331L707,331L706,335L706,338L707,342L707,342L707,347L707,349L710,349L711,349L716,349L718,349L721,349L725,349L727,349L732,348L735,349L741,348L745,350L743,348L747,351L751,352" fill="none" stroke="#000000" style="-webkit-tap-highlight-color: rgba(0, 0, 0, 0); stroke-linecap: round; stroke-linejoin: round; stroke-width: 8;" /><path d="M759,352L760,352L763,351L766,353L769,355L772,357L774,360L808.48,306.71L809,309L806,312L808,318L808,318L806,323L803,327L803,332L804,336L801,339L797,343L801,341L797,343L794,346L791,346L792,345L791,354L786,357" fill="none" stroke="#000000" style="-webkit-tap-highlight-color: rgba(0, 0, 0, 0); stroke-linecap: round; stroke-linejoin: round; stroke-width: 8;" /><path d="M784,358L786,358L784,360L786,360L789,361L814.13,303.89L812,305L812,305L814,305L816,305L816,305L826,308L834,306L843,308L845,308L851,306L857,307L869,305L862,306L871,305L880,297L889,295L885,296L885,296L896,295L902,293L900,295L905,293L907,293L913,289L910,290L916,289L919,289L922,289L924,289L924,290L926,290L930,291L933,291L939,290L937,290L941,290L944,290L946,290L950,291L964,292L958,292L960,292L951,291L968,294L981,296L968,294L983,296L983,296L995,297L991,298L994,297L1001,294L1005,291L1004,292L1010,290L1006,291L1012,290L1014,290L1014,290L1014,290L1021,295L1031,291L1033,288L1033,288L1035,287L1037,287L1040,286L1043,286L1052,291L1047,284L1045,285L1052,291L1062,289L1062,289L1068,288L1063,289L1069,288L1073,287L1074,287L1078,286L1083,286L1080,286L1086,287L1089,288L1097,294L1093,295L1090,293L1090,293L1097,292L1100,291L1100,291L1100,293L1105,287L1109,284L1110,282L1105,287L1111,277L1118,277L1119,277L1114,276L1123,274L1125,273L1128,273L1131,273L1134,273L1137,272L1142,272L1139,272L1146,271L1148,271L1156,267L1154,267L1158,267L1162,268L1165,263L1170,264L1173,260L1179,259L1190,258L1184,259L1182,259L1187,259L1193,258L1199,260L1201,260L1196,259L1202,260L1206,262L1213,260L1214,259" fill="none" stroke="#000000" style="-webkit-tap-highlight-color: rgba(0, 0, 0, 0); stroke-linecap: round; stroke-linejoin: round; stroke-width: 8;" /><path d="M1216,259L1218,261L1221,261L1226,262L1224,262L1230,264L1233,263L1235,266L1235,276L1239,275L1238,269L1249.47,286.93L1246,284L1246,284L1246,284L1246,287L1247,290L1243,294L1243,295L1246,301L1247,315L1247,310L1246,304L1248,323L1248,324L1248,335L1248,332L1248,329L1249,355L1247,348L1247,339L1249,352L1248,357L1247,366L1247,363L1247,371L1249,384L1246,375L1246,376L1249,384L1249,384L1246,397L1246,395L1246,400" fill="none" stroke="#000000" style="-webkit-tap-highlight-color: rgba(0, 0, 0, 0); stroke-linecap: round; stroke-linejoin: round; stroke-width: 8;" /><path d="M1247,403L1246,406L1246,406L1246,406L1246,406L1245,407L1249,428L1249,428L1249,428L1249,428L1249,429L1249,428L1248,430L1248,430L1247,430L1242,431L1253,458L1247,445L1248,459L1248,459L1249,459L1249,459L1249,461L1251,467L1249,468L1249,471" fill="none" stroke="#000000" style="-webkit-tap-highlight-color: rgba(0, 0, 0, 0); stroke-linecap: round; stroke-linejoin: round; stroke-width: 8;" /><path d="M1249.47,380.21" fill="none" stroke="#000000" style="-webkit-tap-highlight-color: rgba(0, 0, 0, 0); stroke-linecap: round; stroke-linejoin: round; stroke-width: 8;" /><path d="M1249,471" fill="none" stroke="#000000" style="-webkit-tap-highlight-color: rgba(0, 0, 0, 0); stroke-linecap: round; stroke-linejoin: round; stroke-width: 8;" /><path d="M1244,380L1244,383L1247,384L1249,384L1252,383L1255,383L1261,383L1264,383L1266,383L1272,382L1275,382L1281,382L1292,381L1286,384L1299,383L1302,384L1309,384L1314,384L1321,383L1322,383L1328,384L1332,384L1334,384L1337,383L1340,382L1340,382L1348,388L1344,387L1353,384L1354,384L1353,387L1357,386L1360,387L1362,387L1365,388L1367,388L1370,389L1374,390L1381,389L1375,390L1382,389L1385,389L1394,387L1386,389L1399,388L1396,387L1402,389L1406,387L1411,386L1413,386L1419,386L1416,386L1421,386L1428,384L1433,384L1430,384L1442,383L1436,384L1437,384L1447,384L1464,387L1451,385L1460,387L1453,385L1473,388L1489,393L1467,386L1473,388L1494,393L1501,393L1490,393L1499,393L1509,391L1516,390L1510,391L1517,390L1524,391L1527,391L1534,390L1529,391" fill="none" stroke="#000000" style="-webkit-tap-highlight-color: rgba(0, 0, 0, 0); stroke-linecap: round; stroke-linejoin: round; stroke-width: 8;" /><path d="M1535,390L1538,390L1540,390L1545,390L1549,390L1546,390L1553,390L1555,390L1558,390L1560,390L1562,390L1562,390L1562,390L1579,390L1562,390L1588.69,459.36L1584,456L1584,456L1584,456L1582,455L1582,455L1583,435L1580,435L1576,435L1577,435L1566,440L1566,440L1566,440L1563,440L1557,440L1555,440L1547,456L1549,457L1546,457L1546,459L1544,460L1535,466L1543,461L1535,466L1535,466L1533,466L1526,465L1529,465L1522,465L1524,465L1523,464L1522,465L1524,456L1524,456L1524,456L1518,446L1518,446L1515,444L1515,442L1515,442L1510,438L1507,438L1504,439L1495,439L1502,440L1492,438L1490,438L1487,438L1484,438L1480,440L1478,440L1476,440L1476,440L1472,441L1470,441L1467,441L1467,441L1464,439L1463,438L1459,436L1456,437L1454,437L1453,438L1453,438L1453,438L1442,453L1442,453L1442,453L1439,456L1440,455L1440,462L1440,460L1436,467L1437,466L1435,468L1435,475L1435,475L1432,478L1430,480L1424,482L1425,484L1422,484L1420,488L1416,487L1413,490L1409,493L1411,490L1405,494L1402,494L1399,494L1396,493L1395,493L1393,492L1385,492L1388,491L1382,492L1379,492L1379,492L1377,492L1372,489L1370,488L1366,486L1359,491L1355,485L1354,485L1352,484L1352,484L1340,475L1335,477L1333,478L1331,479L1330,480L1326,482L1320,482L1323,482L1319,482L1311,482L1308,481L1309,482L1305,480L1306,481" fill="none" stroke="#000000" style="-webkit-tap-highlight-color: rgba(0, 0, 0, 0); stroke-linecap: round; stroke-linejoin: round; stroke-width: 8;" /><path d="M1303,478L1296,477L1295,477L1288,481L1289,479L1282,476L1283,473L1272,468L1267,468L1270,472L1259,466L1262,470L1255,458L1258,463L1248,459L1253,458L1238,460L1244,460L1228,448L1228,448L1233,461L1238,460L1247,462" fill="none" stroke="#000000" style="-webkit-tap-highlight-color: rgba(0, 0, 0, 0); stroke-linecap: round; stroke-linejoin: round; stroke-width: 8;" /><path d="M1308.83,578.09L1307,577L1313,579L1314,579L1317,579L1320,581L1321,583L1321,583L1334,584L1340,584L1346,584L1360,579L1364,580L1360,579L1375,583L1365,580L1376,584L1377,584L1386,585L1388,586L1388,586L1383,583L1388,586L1396,581L1405,583L1405,583L1405,583L1412,582L1413,582L1407,583L1420,583L1416,582L1422,583L1422,583L1432,583L1436,583L1428,582L1440,583L1449,583L1459,584L1461,584L1453,583L1476,592L1484,595L1461,584L1478,595L1503,585L1503,585L1503,585L1490,595L1504,585L1504,585L1518,585L1504,585" fill="none" stroke="#000000" style="-webkit-tap-highlight-color: rgba(0, 0, 0, 0); stroke-linecap: round; stroke-linejoin: round; stroke-width: 8;" /><path d="M1515,598L1527,598L1521,598L1524,598L1532,598L1541,598L1543,598L1535,598L1555,598L1546,598L1549,598L1552,598L1560,598L1558,598L1560,595L1563,595L1577,600L1566,595L1577,600L1582,597L1583,597L1584,597L1595,585L1597.17,645.94L1594,644L1594,641L1592,641L1589,642L1586,642L1583,642L1580,641L1577,641L1572,639L1570,639L1563,640L1555,637L1558,637L1548,637L1546,637L1538,637L1532,634L1527,634L1517,633L1510,638L1499,632L1495,632L1488,635L1479,632L1476,631L1473,632L1469,633L1463,633L1459,628L1449,629L1441,628L1432,629L1429,627L1426,626L1419,626L1411,624L1421,626L1410,623L1407,624L1399,630L1394,628L1394,628L1383,624L1381,623L1383,624L1382,620L1378,619L1378,619L1380,619L1378,619" fill="none" stroke="#000000" style="-webkit-tap-highlight-color: rgba(0, 0, 0, 0); stroke-linecap: round; stroke-linejoin: round; stroke-width: 8;" /><path d="M1360,618L1363,618L1365,618L1347,620L1347,620L1347,620L1347,620L1337,618L1331,615L1336,617L1329,615L1325,612L1325,612L1320,614L1320,615L1286.22,555.48L1287,555L1289,559L1286,557L1282,558L1281,557L1279,555L1276,554L1272,547L1266,547L1263,547L1258,533L1254,533L1249,531L1249,531L1233,531L1228,535L1230,533L1228,535L1218,535L1224,535L1210,540L1206,546L1193,546L1199,547L1187,547L1183,547L1178,547L1174,547L1169,552L1161,548L1150,549L1159,555L1147,549L1139,560L1130,556L1130,556L1119,558L1125,554L1117,557L1112,558L1105,560L1107,561L1101,562L1101,562L1091,557L1092,557L1090,567L1084,562L1083,563L1077,563L1064,562L1071,567L1054,565L1054,565L1064,562L1057,566L1047,565L1047,565L1043,565L1040,565L1037,565L1037,565L1028,564L1037,565L1028,564L1026,564L1016,560L1023,563L1020,562L1014,554L1011,556L1009,555L1007,553L1006,552L996,555L996,555L995,555L994,557L988,555L984,557L986,556L982,558L976,560L974,558L972,557L970,560L969,566L966,567L970,560L963,569L955,571L958,567L954,571L958,570L954,571L946,555L954,571L953,572L944,549L941,547L944,546L947,554L936,549L930,550L933,549L927,550L924,552" fill="none" stroke="#000000" style="-webkit-tap-highlight-color: rgba(0, 0, 0, 0); stroke-linecap: round; stroke-linejoin: round; stroke-width: 8;" /><path d="M919,554L915,558L923,554L913,558L911,562L907,560L907,565L904,564L902,567L902,567L899,571L896,575L885,570L883,573L883,573L952.65,597.88L881,576L880,576L874,579L876,577L872,582L872,582L867,588L870,587L864,588L861,589L859,590L859,609L859,590L859,609L861,609L861,609L861,609L859,609L859,609L857,609L857,625L853,625L859,609L879,610L873,612" fill="none" stroke="#000000" style="-webkit-tap-highlight-color: rgba(0, 0, 0, 0); stroke-linecap: round; stroke-linejoin: round; stroke-width: 8;" /><path d="M955,594L956,590L956,590L951,594L943,593L942,595L936,598L930,600L927,602L922,604L914,612L916,609" fill="none" stroke="#000000" style="-webkit-tap-highlight-color: rgba(0, 0, 0, 0); stroke-linecap: round; stroke-linejoin: round; stroke-width: 8;" /><path d="M912,616L908,620L905,621L902,622L899,622L894,627L890,626L893,626L886,626L884,627L882,627L879,627L876,626L876,623L875,620L875,618L873,612L873,612L861,609L861,609L861,609L861,609L875,604L875,604L873,612" fill="none" stroke="#000000" style="-webkit-tap-highlight-color: rgba(0, 0, 0, 0); stroke-linecap: round; stroke-linejoin: round; stroke-width: 8;" /><path d="M732.16,397.17L729,396L728,400L729,405L729,405L729,408L734,414L733,420L733,420L730,428L730,428L730,428L733,443L716,434L725,450L733,443L735,451L735,454L735,457L735,458L734,461L735,465L735,467L735,470L735,473L736,476L733,481L733,481L732,487L732,487" fill="none" stroke="#000000" style="-webkit-tap-highlight-color: rgba(0, 0, 0, 0); stroke-linecap: round; stroke-linejoin: round; stroke-width: 8;" /><path d="M729,490L732,489L728,499L728,499L733,505L729,500" fill="none" stroke="#000000" style="-webkit-tap-highlight-color: rgba(0, 0, 0, 0); stroke-linecap: round; stroke-linejoin: round; stroke-width: 8;" /><path d="M712.37,394.35L711,406L712,402L709,411L714,418L710,430L716,437L716,442L715,451L717,457L717,459L717,462L717,465L717,468L716,471L716,476L712,478L711,482L712,485L711,488L713,490L713,493L711,496L711,499L710,501L710,504L712,507L707,513L706,508L707,516L704,523L704,519L707,519L701,525L701,528L701,526L695,534L695,536L691,537L693,545L693,545L691,550L691,558" fill="none" stroke="#000000" style="-webkit-tap-highlight-color: rgba(0, 0, 0, 0); stroke-linecap: round; stroke-linejoin: round; stroke-width: 8;" /><path d="M690,555L689,553L690,562L688,568L682,583L687,573L684,578L684,587L681,591L683,591L686,590L690,589" fill="none" stroke="#000000" style="-webkit-tap-highlight-color: rgba(0, 0, 0, 0); stroke-linecap: round; stroke-linejoin: round; stroke-width: 8;" /><path d="M749.12,493.29" fill="none" stroke="#000000" style="-webkit-tap-highlight-color: rgba(0, 0, 0, 0); stroke-linecap: round; stroke-linejoin: round; stroke-width: 8;" /><path d="M698,584L695,583" fill="none" stroke="#000000" style="-webkit-tap-highlight-color: rgba(0, 0, 0, 0); stroke-linecap: round; stroke-linejoin: round; stroke-width: 8;" /><path d="M738,489L738,489L739,494L739,494L764,492L752,496L764,492L764,492L766,492L769,492L775,493L777,492L784,488L782,489L792,486L787,486L793,484L793,486L796,482L796,482L805,482L807,478L811,478L813,475L820,473L823,472L826,470L821,463L833,464L832,465L833,464L836,463L840,462L839,462L845,462L842,462L854,464L848,462L862,466L857,464L866,467L866,467L874,469L874,469L878,471L874,469L878,471L886,495L887,485L887,485L889,490L890,490L893,494L899,496L896,495L900,498L900,498L905,501L908,499L907,501L908,501L914,505L916,504L916,507L918,506L922,510L924,513L922,510L927,513" fill="none" stroke="#000000" style="-webkit-tap-highlight-color: rgba(0, 0, 0, 0); stroke-linecap: round; stroke-linejoin: round; stroke-width: 8;" /><path d="M930,513L935,516L933,516L939,515L941,519L950,519L943,519L946,520L950,519L950,516" fill="none" stroke="#000000" style="-webkit-tap-highlight-color: rgba(0, 0, 0, 0); stroke-linecap: round; stroke-linejoin: round; stroke-width: 8;" /><path d="M879.15,385.87L879,382L876,382L874,386L875,389L872,393L868,406L870,396L866,412" fill="none" stroke="#000000" style="-webkit-tap-highlight-color: rgba(0, 0, 0, 0); stroke-linecap: round; stroke-linejoin: round; stroke-width: 8;" /><path d="M864,417L866,425L866,425L865,429L867,425L866,428L833.92,383.04L831,385L831,385L828,385L831,398" fill="none" stroke="#000000" style="-webkit-tap-highlight-color: rgba(0, 0, 0, 0); stroke-linecap: round; stroke-linejoin: round; stroke-width: 8;" /><path d="M824,401L823,407L820,411L818,412L817,414L794.35,385.87L799,386L789,375L799,386L789,375" fill="none" stroke="#000000" style="-webkit-tap-highlight-color: rgba(0, 0, 0, 0); stroke-linecap: round; stroke-linejoin: round; stroke-width: 8;" /><path d="M794,394L787,400L794,393L789,405L789,407L789,411" fill="none" stroke="#000000" style="-webkit-tap-highlight-color: rgba(0, 0, 0, 0); stroke-linecap: round; stroke-linejoin: round; stroke-width: 8;" /><path d="M853.71,323.67L857,320L858,318L857,313L858,318L854,329L857,322L854,336L850,342L851,348" fill="none" stroke="#000000" style="-webkit-tap-highlight-color: rgba(0, 0, 0, 0); stroke-linecap: round; stroke-linejoin: round; stroke-width: 8;" /><path d="M851,358L849,363L851,366L851,368L852,370" fill="none" stroke="#000000" style="-webkit-tap-highlight-color: rgba(0, 0, 0, 0); stroke-linecap: round; stroke-linejoin: round; stroke-width: 8;" /><path d="M802.83,541.34L797,539L799,542L799,542L797,546L804,553L801,561L797,567L788,581L795,574L788,587L787,587L786,594L783,595L782,597L782,597L788,605" fill="none" stroke="#000000" style="-webkit-tap-highlight-color: rgba(0, 0, 0, 0); stroke-linecap: round; stroke-linejoin: round; stroke-width: 8;" /><path d="M522.97,541.34L520,541L517,542L520,541L525,541L526,529L526,529L540,524L546,522L548,509L552,509L555,507L555,507L557,504L575,512L575,512L581,502L582,502L585,501L593,501L599,498L596,499L604,489L609,496L617,485L607,488L617,485L617,485L629,489L630,489L629,489L633,489L635,489L636,494L642,490L637,494L643,490L646,497L647,497L650,498L650,498L653,498L653,498L659,502L660,506L660,504L662,507L661,509L663,510L664,513" fill="none" stroke="#000000" style="-webkit-tap-highlight-color: rgba(0, 0, 0, 0); stroke-linecap: round; stroke-linejoin: round; stroke-width: 8;" /><path d="M667,516L670,520L670,522L670,525L673,525L676,527L676,534L676,534" fill="none" stroke="#000000" style="-webkit-tap-highlight-color: rgba(0, 0, 0, 0); stroke-linecap: round; stroke-linejoin: round; stroke-width: 8;" /><path d="M520.14,530.04L521,527L521,527L521,527L517,514L519,512L519,512L520,510L520,508L519,503L519,503L516,501L513,497L511,496L506,495L503,493L498,493L492,492L486,495L489,492L483,496L478,496L481,497L476,499L476,499L474,509L466,512L473,510L469,518L467,519L467,524L464,527L461,530L456,536L461,534L452,535L449,538L438,545L435,547L447,540L441,541L431,552L430,550" fill="none" stroke="#000000" style="-webkit-tap-highlight-color: rgba(0, 0, 0, 0); stroke-linecap: round; stroke-linejoin: round; stroke-width: 8;" /><path d="M433,551L427,555L424,558L416,564L421,561L413,569L411,571L411,571L412,574L411,571L402,563L402,563L401.41,561.13L401,559L404,559L401,559L399,559L395,558L395,550L395,550L395,546L395,538L381,530L381,530L380,524L381,522L380,517L379,517L379,517L372,515L369,517L365,519L363,522L359,524L359,525L355,527L350,529L350,529L344,535L354,550L354,550L353,554L352,557L352,557L352,557L339,567L329,553L334,570L336,567L334,572L334,575L334,581L334,578L334,584L322,581L329,599L333,598L329,599L324,600L322,601L325,600" fill="none" stroke="#000000" style="-webkit-tap-highlight-color: rgba(0, 0, 0, 0); stroke-linecap: round; stroke-linejoin: round; stroke-width: 8;" /><path d="M321,602L320,603L317,605L316.61,558.3L314,558L309,559L314,558L305,560L300,559L291,559L284,558L274,554L272,554L266,554L259,552L254,551L258,553L252,546L249,546L247,547L247,547L241,551L241,551L235,534L231,535L227,537L229,536L225,536L221,536L223,536L215,531L216,531L209,533L206,536L195,539L201,537L189,539L193,542L184,546L189,544L184,551L183,550L184,551L177,553L181,565L177,565L175,567L170,570L170,572L167,572L164,572L160,574L158,574L154,576L153,575L150,572L150,572L147,568L144,568L144,568L144,562L141,562L141,562L139,557L136,555L133,557L127,556L130,556L124,556L118,558L112,556L122,556L110,556L101,564L107,562L105,561L99,564L98,565L89,564L92,563L88,564L85,564L82,568" fill="none" stroke="#000000" style="-webkit-tap-highlight-color: rgba(0, 0, 0, 0); stroke-linecap: round; stroke-linejoin: round; stroke-width: 8;" /><path d="M80,568L76,566L76,566L66,571L61,562L54,556L61,562L37,564L23,564L31,564L28,564L25,564L23,558L23,561L28,558L44,551" fill="none" stroke="#000000" style="-webkit-tap-highlight-color: rgba(0, 0, 0, 0); stroke-linecap: round; stroke-linejoin: round; stroke-width: 8;" /><path d="M576.68,600.71L574,601L573,596L571,596L571,596L571,592L571,592L571,592L570,576L570,576L572,573L571,570L573,566L572,562L573,557L574,555L574,553L578,551L580,551" fill="none" stroke="#000000" style="-webkit-tap-highlight-color: rgba(0, 0, 0, 0); stroke-linecap: round; stroke-linejoin: round; stroke-width: 8;" /><path d="M578,551L585.16,549.82L580,551L581,551L580,551L581,551L593,549L594,548L600,548L611,550L602,548L619,550L622,550L628,549L642,545L636,542L647,545L653,545L659,544L661,544L667,544" fill="none" stroke="#000000" style="-webkit-tap-highlight-color: rgba(0, 0, 0, 0); stroke-linecap: round; stroke-linejoin: round; stroke-width: 8;" /><path d="M670,544L673,544L676,543L676,546L675,549L737.81,589.4L732,589L736,589L728,589L728,589L724,587L724,587L722,579L726,577L729,568L728,567L731,560L732,558L739,555L741,554L746,554L742,554L750,555L752,556L751,558L755,561L755,563L755,571L756,574L755,571L755,579L755,579L755,587L757,585L755,588L754,592L752,592L752,594L752,598L752,601L749,601L749,601" fill="none" stroke="#000000" style="-webkit-tap-highlight-color: rgba(0, 0, 0, 0); stroke-linecap: round; stroke-linejoin: round; stroke-width: 8;" /><path d="M752,601" fill="none" stroke="#000000" style="-webkit-tap-highlight-color: rgba(0, 0, 0, 0); stroke-linecap: round; stroke-linejoin: round; stroke-width: 8;" /><path d="M972.44,566.78L970,564L972,563L970,560L970,564L969,567L978,566L977,585L980,586L987,591L989,591L992,591L994,595L998,598L1000,600L998,600L1001,604L1004,603L1004,603L1012,609L1011,606L1015,608L1018,612L1020,614L1019,613L1024,614" fill="none" stroke="#000000" style="-webkit-tap-highlight-color: rgba(0, 0, 0, 0); stroke-linecap: round; stroke-linejoin: round; stroke-width: 8;" /><path d="M1026,615L1029,614L1031,616L1035,614L1031,616L1028.98,620.49L1026,618L1031,616L1035,614L1035,614L1035,614L1045,612L1040,616L1052,609L1046,611L1059,606L1057,606L1062,603L1052,609L1068,606L1077,603L1072,604L1068,605L1081,604L1083,604L1085,604L1090,599L1099,602L1094,601L1097,601L1062.9,614.84L1064,613L1071,611L1077,613L1083,613L1088,606L1094,605L1099,604L1105,603L1112,601L1115,603L1123,601L1127,601L1137,601L1142,601L1149,602L1160,600L1154,596L1165,599L1169,598L1169,598L1183,600L1184,600L1181,601L1190,593L1201,588L1193,592L1194,592L1204,588L1213,586L1216,585L1207,585L1216,585L1227,586L1230,586L1225,587L1236,584L1237,583L1250,585L1250,585L1248,588L1255,586L1251,585L1264,585L1258,586L1267,583L1270,581L1267,583L1272,581L1275,581L1281,581L1278,580L1282,580L1288,582" fill="none" stroke="#000000" style="-webkit-tap-highlight-color: rgba(0, 0, 0, 0); stroke-linecap: round; stroke-linejoin: round; stroke-width: 8;" /><path d="M1289,582L1295,582L1292,582L1298,580L1300,581L1309,580L1303,579L1311,580L1317,579L1320,584L1314,579L1321,583L1321,583L1322.97,612.01L1325,609L1321,604L1321,604L1320,614L1314,617L1317,617L1318,617L1320,630L1324,629L1322,635L1332,637L1333,637L1332,637L1336,650L1336,650L1342,652L1342,654L1345,660L1346,657L1348,666L1347,663L1348,669L1347,671L1348,673L1350,675L1354,689L1350,675L1354,689L1357,689L1361,686L1363,686L1368,685L1365,686L1374,684L1376,685L1382,691L1385,691L1387,691L1387,691L1392,695L1388,692L1392,695L1392,695L1405,686L1408,686L1411,686L1416,686L1413,686L1427,683L1427,683L1430,685L1431,686L1434,687L1436,687L1442,687L1439,688L1444,686L1450,691L1453,690L1459,690L1456,690L1461,691L1463,694L1464,695L1462,692L1477,698L1481,699L1477,698L1478,698L1483,700L1487,697L1492,698L1492,698L1495,700L1497,703L1499,705L1501,708L1504,711L1504,714L1507,715L1507,722L1509,719L1507,728L1507,730L1508,737L1507,736L1505,745L1504,748L1506,754L1504,753L1505,755L1505,764L1508,768L1507,769L1507,765L1510,771L1509,772L1509,772L1510,771L1514,783L1498,781L1499,779L1504,773L1498,781L1498,781L1495,782L1495,794L1484,796L1477,799L1470,804L1461,809L1456,810L1447,812L1451,810L1437,813L1443,812L1433,814L1430,801L1430,801L1430,801L1419,794L1408,803L1407,801L1408,803L1405,801L1402,801L1400,800L1398,804L1394,806L1396,805L1394,806L1391,808L1388,808L1386,808L1384,809L1380,811L1380,811L1371,811L1370,811L1364,813L1355,803L1352,807L1351,807L1349,804L1349,804L1349,804L1337,809L1334,809L1334,809L1323,796L1323,796L1319,797" fill="none" stroke="#000000" style="-webkit-tap-highlight-color: rgba(0, 0, 0, 0); stroke-linecap: round; stroke-linejoin: round; stroke-width: 8;" /><path d="M1318,796L1319,797L1309,798L1303,798L1300,798L1299,798L1294,799L1288,794L1284,799L1284,797L1284,797L1286,795L1284,799L1278,805L1278,807L1276,810L1272,810L1273,813L1260,821L1258,819L1251,811" fill="none" stroke="#000000" style="-webkit-tap-highlight-color: rgba(0, 0, 0, 0); stroke-linecap: round; stroke-linejoin: round; stroke-width: 8;" /><path d="M1028.98,609.19" fill="none" stroke="#000000" style="-webkit-tap-highlight-color: rgba(0, 0, 0, 0); stroke-linecap: round; stroke-linejoin: round; stroke-width: 8;" /><path d="M1251,822L1241,811L1233,813L1233,813L1230,813L1233,813L1233,813" fill="none" stroke="#000000" style="-webkit-tap-highlight-color: rgba(0, 0, 0, 0); stroke-linecap: round; stroke-linejoin: round; stroke-width: 8;" /><path d="M1026,606L1026,603L1024,604L1023,609L1023,618L1024,614L1023,637L1023,642L1023,656L1025,668L1023,650L1023,666L1026,686L1027,681L1027,677L1026,688L1026,693L1026,693L1026,707L1026,691L1026,707L1024,714L1024,714L1024,719L1024,720L1012,733L1026,721L1023,740L1023,740L1020,742L1020,744L1020,748L1020,750L1020,768L1020,750L1020,770L1020,768L1018,773L1018,773L1024,781L1020,784L1020,788L1020,784" fill="none" stroke="#000000" style="-webkit-tap-highlight-color: rgba(0, 0, 0, 0); stroke-linecap: round; stroke-linejoin: round; stroke-width: 8;" /><path d="M1023,790L1023,792L1019,802L1023,792L1019,802L1023,811L1023,811L1019,804L1023,813L1023,814L1023,814L1020,823L1022,828L1020,823L1020,834L1021,830L1021,835L1021,835L1023,838L1024,840L1024,840L1027,842" fill="none" stroke="#000000" style="-webkit-tap-highlight-color: rgba(0, 0, 0, 0); stroke-linecap: round; stroke-linejoin: round; stroke-width: 8;" /><path d="M805.65,787.28L806,784L808,784L801,777L800,778L797,776L796,776L791,770L793,771L783,770L783,770L777,773L779,772L775,773L772,773L772,773L768,770L766,769L766,766L766,766L753,753L752,753L752,753L746,745L750,748L747,743L743,743L741,740L737,741L735,741L732,741L727,741L723,743L719,742L709,744L704,744L701,744L693,758L693,758L684,760L681,760L665,747L676,761L662,748L660,749L653,750L647,749L641,758L640,758L629,751L628,751L613,753L619,751L609,754L602,755L599,759L592,756L588,755L582,754L574,755L577,755L551,761L562,759L556,759L569,756L546,766L537,769L540,769L530,773L525,775L529,773L519,777L514,778L509,779L504,780L512,778L506,780L501,779L495,780L492,780L497,780L489,781L486,781L483,782L483,782L481,782L478,782L473,792L478,782L469,796L472,792L466,796L464,798L462,806L464,798L464,798L461,806L461,809L462,813L461,814L464,818L463,821L466,824L468,827L471,830L478,832L478,832L476,832L483,835L483,837L489,840L488,838L491,841L495,844L495,843L495,847L498,847L502,853L500,847L497,848L506,855L509,854L517,858L514,858L523,856L528,859L540,856L534,856L548,865L548,865L564,861L560,863L568,861L574,865L580,853L585,853L590,853L598,851L607,856L620,853L613,852L629,848L633,849L645,847L649,845L659,850L664,842L672,843L681,841L690,841L697,839L705,841L711,843L723,842L725,839L734,843L738,843L743,842L746,842L752,842L758,843L762,840L769,841L776,841L777,840L782,838L789,838L792,838L798,838L802,836L806,835L810,834L815,835L817,835L825,833L827,831L824,833L834,832L836,830L841,830L840,830L843,828L854,829L844,827L854,829L856,829L862,828L860,828L862,827L862,827" fill="none" stroke="#000000" style="-webkit-tap-highlight-color: rgba(0, 0, 0, 0); stroke-linecap: round; stroke-linejoin: round; stroke-width: 8;" /><path d="M862,827L871,818L871,818L862,824L872,816L871,818L872,816L880,810L880,810L886,805L882,810L886,804L888,804L890,802L885,796L888,798L882,793L879,790L876,789L873,788L873,788L867,787L865,787L871,788L862,787L859,787L857,787L857,787L854,787" fill="none" stroke="#000000" style="-webkit-tap-highlight-color: rgba(0, 0, 0, 0); stroke-linecap: round; stroke-linejoin: round; stroke-width: 8;" /><path d="M966.78,600.71" fill="none" stroke="#000000" style="-webkit-tap-highlight-color: rgba(0, 0, 0, 0); stroke-linecap: round; stroke-linejoin: round; stroke-width: 8;" /><path d="M851,787L844,780L843,782L840,783L838,783L834,784L824,786L824,786L824,786L815,780L815,780L814,780L809,783L808,783L805,782L803,782L796,782L800,782L795,781L794,780L794,780L780,784L779,783L779,772L779,783L780,784L780,784L789,789" fill="none" stroke="#000000" style="-webkit-tap-highlight-color: rgba(0, 0, 0, 0); stroke-linecap: round; stroke-linejoin: round; stroke-width: 8;" /><path d="M972,601L972,606L970,602L970,609L970,617L966,623L966,632L970,636L966,649L967,659L966,651L975,668L975,668L975,668L970,683L970,680L978,696L975,699L976,697L975,699L976,697L978,714L979,716L975,699L978,714L983,728L981,729L979,716L976,725L980,736L980,734L983,737L980,730L983,737L981,751L983,737L983,737L981,759L981,753L981,756L981,762L981,767L981,773L981,770L981,765L981,776L981,782L981,779L989,793L989,793L984,797L984,797L981,798" fill="none" stroke="#000000" style="-webkit-tap-highlight-color: rgba(0, 0, 0, 0); stroke-linecap: round; stroke-linejoin: round; stroke-width: 8;" /><path d="M981,798L980,799L975,803L975,803L971,807L972,810L970,813L969,815L969,818L968,821L968,824L967,826L968,827L968,827L975,834L968,827L977,839L977,839L977,839L970,858L970,858L970,858L967,860" fill="none" stroke="#000000" style="-webkit-tap-highlight-color: rgba(0, 0, 0, 0); stroke-linecap: round; stroke-linejoin: round; stroke-width: 8;" /><path d="M511.66,925.8L508,926L507,924L503,924L500,920L500,920L495,923L492,918L490,921L489,914L495,911L489,916L501,911L510,910L521,906L529,904L537,902L548,900L557,902L551,900L563,899L565,897L574,897L580,898L586,894L591,894L596,893L607,895L606,896L612,894L619,892L625,891L649,891L636,889L659,896L650,891L659,896L681,892L690,890L711,880L699,885L707,885L729,878L744,880L722,879L738,878L752,877L777,876L766,874L753,877L786,876L821,877L791,874L803,872L840,875L859,877L824,875L848,878L886,872L873,875L868,874L890,872L912,871L896,868L905,867L919,869L923,868L936,866L930,866L940,867L951,868L952,868L963,861L971,869L981,865L983,866L992,865L999,866L1004,866L1009,865L1011,864L1018,868L1015,867L1015,867L1018,868L1020,864L1029,869L1036,872L1036,872L1042,875L1046,874L1047,875L1054,877L1052,877L1066,870L1054,877L1066,870L1069,868L1083,862L1077,864L1086,862L1099,855L1100,855L1101,855L1109,855L1111,853L1117,852L1119,848L1122,847L1131,843L1132,843L1142,839L1147,841L1149,844L1164,830L1161,830L1176,828L1169,829L1186,834L1184,835L1198,830L1204,833L1210,832L1218,832L1227,832L1235,834L1242,830L1252,828L1269,832L1261,833L1283,828L1278,828L1292,830L1298,830L1300,829L1313,829L1300,829L1317,830L1324,831L1337,830L1332,829L1343,829L1361,828L1352,833L1347,828L1365,830L1366,830L1388,833L1381,832L1382,832L1388,833L1408,842L1399,843L1404,839L1423,848L1420,842L1413,842L1428,850L1433,854L1433,854L1442,867L1442,867L1449,869L1444,867L1447,865L1450,870L1449,874L1447,878L1447,879L1452,892L1452,892L1452,892L1447,893L1450,892L1445,894L1442,894L1436,896L1427,898L1417,903L1408,905L1399,904L1394,905L1388,907L1382,910L1371,914L1375,912L1366,914L1360,912L1352,915L1346,916L1348,916L1341,918L1341,918L1330,915L1329,915L1326,917L1319,921L1308,920L1305,918L1302,917L1295,915L1287,917L1278,922L1272,923L1259,924L1255,926L1248,938L1246,938L1241,928L1231,934L1227,936L1216,935L1210,936L1221,938L1208,937L1197,941L1201,941L1204,940L1199,941L1190,940L1184,938L1176,942L1171,944" fill="none" stroke="#000000" style="-webkit-tap-highlight-color: rgba(0, 0, 0, 0); stroke-linecap: round; stroke-linejoin: round; stroke-width: 8;" /><path d="M1153,940L1169,945L1153,940L1161,948L1145,943L1139,945L1134,945L1122,955L1112,955L1112,955" fill="none" stroke="#000000" style="-webkit-tap-highlight-color: rgba(0, 0, 0, 0); stroke-linecap: round; stroke-linejoin: round; stroke-width: 8;" /><path d="M520.14,906.01" fill="none" stroke="#000000" style="-webkit-tap-highlight-color: rgba(0, 0, 0, 0); stroke-linecap: round; stroke-linejoin: round; stroke-width: 8;" /><path d="M1094,948L1086,948L1070,941L1081,944L1050,944L1061,942L1049,944L1029,946L1040,944L1026,956L1010,950L1017,948L995,959L995,959L985,960L980,957L970,963L973,961L964,963L953,964L957,964L947,965L943,966L939,966L936,966L934,977L927,979L922,969L916,981L906,976L906,976L902,978L893,975L900,977L893,987L883,982L883,982L883,984L879,985L876,988L876,991L869,995L868,995L865,994L860,998L850,1002L857,998L854,1002L848,1005" fill="none" stroke="#000000" style="-webkit-tap-highlight-color: rgba(0, 0, 0, 0); stroke-linecap: round; stroke-linejoin: round; stroke-width: 8;" /><path d="M845,1005" fill="none" stroke="#000000" style="-webkit-tap-highlight-color: rgba(0, 0, 0, 0); stroke-linecap: round; stroke-linejoin: round; stroke-width: 8;" /><path d="M523,903L520,900L525,899L515,902L510,906L501,911L495,911L484,918L472,918L461,920L452,920L450,920L444,922L446,921L441,922L435,922L434,925L434,925L421,930" fill="none" stroke="#000000" style="-webkit-tap-highlight-color: rgba(0, 0, 0, 0); stroke-linecap: round; stroke-linejoin: round; stroke-width: 8;" /><path d="M19.79,730.74" fill="none" stroke="#000000" style="-webkit-tap-highlight-color: rgba(0, 0, 0, 0); stroke-linecap: round; stroke-linejoin: round; stroke-width: 8;" /><path d="M421,930L414,941L417,932L416,937L407,946L401,949L400,955L395,957L393,960L387,970L392,967L384,980L387,973L382,981L381,990L382,984L381,990L377,999L379,995L379,993L378,1004L376,1004L376,1007L379,1012L379,1013L379,1016L376,1019L376,1022" fill="none" stroke="#000000" style="-webkit-tap-highlight-color: rgba(0, 0, 0, 0); stroke-linecap: round; stroke-linejoin: round; stroke-width: 8;" /><path d="M17,731L14,731L20,734L14,734L11,731L25,736L31,736L37,736L40,736L45,736L56,746L64,742L66,742L73,743L87,739L93,728L88,739L99,725L102,722L107,719L116,719L122,717L130,717L144,717L136,717L160,724L164,723L160,724L171,721L169,721L179,720L181,720L181,720L192,717L192,717L193,716L193,716L199,713L205,714L201,713L206,714L207,713L212,713L213,713L213,713L226,714L226,714L220,717L225,715L226,714L232,715L232,715L229,714L232,715L243,727L243,727L233,719L243,727L246,729L260,719L246,729L246,729L263,719L274,713L274,713L274,713L276,714L276,714L276,714L277,713L278,712L297,722L278,712L291,719L300,725L314,735L314,735L302,725L316,734L317,734L317,734L317,734L318,736L326,743L326,743L329,746L326,743L339,750L348,751L345,750L343,749L352,750" fill="none" stroke="#000000" style="-webkit-tap-highlight-color: rgba(0, 0, 0, 0); stroke-linecap: round; stroke-linejoin: round; stroke-width: 8;" /><path d="M353,755L353,755L365,756L367,756L379,766L385,752L385,752L385,752L385,752L390,754L390,754L390,760L394,768L395,762L391,766L390,769L388,773L376,775L387,776" fill="none" stroke="#000000" style="-webkit-tap-highlight-color: rgba(0, 0, 0, 0); stroke-linecap: round; stroke-linejoin: round; stroke-width: 8;" /><path d="M265.72,787.28" fill="none" stroke="#000000" style="-webkit-tap-highlight-color: rgba(0, 0, 0, 0); stroke-linecap: round; stroke-linejoin: round; stroke-width: 8;" /><path d="M371,776L370,798L368,798L368,798L368,798L358,801L359,801L356,802L354,803L348,806L344,807L354,803L342,807L338,808L331,811L334,810L328,811L325,810L322,810L319,809L314,807L311,810L302,812L309,811L304,810L301,815L266,784L260,782L263,782L257,782L254,782L249,784L243,790L240,796L232,804L235,801L220,820L220,820L220,820L216,819L211,818L205,804L205,801L205,804L205,801" fill="none" stroke="#000000" style="-webkit-tap-highlight-color: rgba(0, 0, 0, 0); stroke-linecap: round; stroke-linejoin: round; stroke-width: 8;" /><path d="M203,799L203,799L200,797L196,796L196,796L196,796L196,796L184,782L184,782L184,782L184,782L184,782L178,781L171,781L175,782L167,782L164,783L166.78,784.45L161,781L158,782L156,783L153,781L144,782L146,783L142,780L137,782L136,782L130,781L122,782L113,785L96,780L96,780L88,792L110,787L77,785L71,784L77,785L72,784L65,785L57,786L62,783L56,786L52,787L44,787L37,790L40,787L32,791L32,793L32,791L20,798L20,799L18,799L14,801L11,801L9,802" fill="none" stroke="#000000" style="-webkit-tap-highlight-color: rgba(0, 0, 0, 0); stroke-linecap: round; stroke-linejoin: round; stroke-width: 8;" /><path d="M164,783L167,782L170,781L177,782L181,789L181,790L196,796L204,800L200,797L205,801L205,804L205,801L208,816L208,816L211,818L211,818L211,824L211,824L207,833L207,834" fill="none" stroke="#000000" style="-webkit-tap-highlight-color: rgba(0, 0, 0, 0); stroke-linecap: round; stroke-linejoin: round; stroke-width: 8;" /><path d="M209,838L212,845L208,840L210,848L209,849L208,853L208,852L208,853L206,861L191,870L199,865L196,866L191,870L180,862L180,862L175,861L174,880L160,874L160,874L155,875L150,880L142,884L144,881L142,884" fill="none" stroke="#000000" style="-webkit-tap-highlight-color: rgba(0, 0, 0, 0); stroke-linecap: round; stroke-linejoin: round; stroke-width: 8;" /><path d="M381.63,753.36" fill="none" stroke="#000000" style="-webkit-tap-highlight-color: rgba(0, 0, 0, 0); stroke-linecap: round; stroke-linejoin: round; stroke-width: 8;" /><path d="M138,894L123,893L123,893L124,887L119,900L119,900L103,902L111,902L113,902L98,908L95,915L95,915L89,916L90,924L87,917L84,919L85,925L82,921L76,929L81,925L79,929L73,931L71,934L67,939L58,939L52,948L50,948L43,958L45,946L40,959L37,959L34,959L37,959" fill="none" stroke="#000000" style="-webkit-tap-highlight-color: rgba(0, 0, 0, 0); stroke-linecap: round; stroke-linejoin: round; stroke-width: 8;" /><path d="M385,752L385,752L385,752L390,754L390,754L395,754L404,751L401,751L411,751L418,748L431,748L424,748L434,745L444,745L440,745L438,744L434,745L455,739L448,742L449,742L453,739L461,733L461,733L461,733L461,733L483,729L483,731L483,731L483,729L486,726L491,720L489,726L495,723L498,719L500,717L500,717L510,720L511,715L511,715L515,711L520,706L523,704L528,705L532,705L534,706L532,692L548,688L546,691L563,677L563,677L563,677L563,677L565,677L563,677L568,674L574,669L570,672L574,669L580,669L585,671L591,672L588,671L599,671L605,671L616,670L611,670L622,668L625,669L627,668L636,673L636,673L639,672" fill="none" stroke="#000000" style="-webkit-tap-highlight-color: rgba(0, 0, 0, 0); stroke-linecap: round; stroke-linejoin: round; stroke-width: 8;" /><path d="M642,672L645,673L647,673L650,674L650,674L650,674L654,681L662,684L662,684L665,686L664,684L667,688L668,691L666,693L667,697L667,700L667,700L666,705L667,707L667,713L664,713L659,719L654,722" fill="none" stroke="#000000" style="-webkit-tap-highlight-color: rgba(0, 0, 0, 0); stroke-linecap: round; stroke-linejoin: round; stroke-width: 8;" /><path d="M409.89,804.24" fill="none" stroke="#000000" style="-webkit-tap-highlight-color: rgba(0, 0, 0, 0); stroke-linecap: round; stroke-linejoin: round; stroke-width: 8;" /><path d="M661,716L652,728L652,732L652,728L652,732L652,734L649,733L651,737L645,740L647,736L646,740L651,739L648,743L650,741L647,744L647,748L647,749L647,749L641,758L645,758" fill="none" stroke="#000000" style="-webkit-tap-highlight-color: rgba(0, 0, 0, 0); stroke-linecap: round; stroke-linejoin: round; stroke-width: 8;" /><path d="M409,811L417,793L417,793L413,793L413,793L409,811L400,806L400,806L388,810L398,806L380,822L380,821L380,822L377,823L373,832L373,832L376,832L373,832L362,838L373,832L361,849L361,849L352,853L349,854L344,855L345,855L334,854L332,854L328,855L324,854L321,866L322,855L316,868L316,868L306,871L312,869L308,871L299,872L293,874L297,874L289,878L292,875L289,880L289,884L289,885L286,895L283,896L280,897L277,897L274,897L268,899L271,898L263,900L261,901L261,901L255,906L255,906L245,891L243,891L242,891L234,891L238,913L238,913L225,892L216,902L215,906L215,906L215,906L215,906L214,906L208,908L205,911L203,912" fill="none" stroke="#000000" style="-webkit-tap-highlight-color: rgba(0, 0, 0, 0); stroke-linecap: round; stroke-linejoin: round; stroke-width: 8;" /><path d="M201,914L199,914L199,914L199,914L192,935L183,935L191,935L187,936L181,935L178,936L173,937L176,936L171,938L154,943L161,939L167,939L151,947L151,947L141,959L138,963L145,954L136,965L133,968L128,971L128,971L125,975L123,978L120,980L116,982L116,982L115,983L115,983L102,996L110,990L93,1001L89,1001L86,1000L83,998L78,999L82,998L84,1000L86,1001" fill="none" stroke="#000000" style="-webkit-tap-highlight-color: rgba(0, 0, 0, 0); stroke-linecap: round; stroke-linejoin: round; stroke-width: 8;" /><path d="M966.78,702.47L964,702L952,691L961,705L958,708L955,708L950,708L937,712L937,712L937,712L933,710L930,714L927,714L926,715L926,715L920,718L920,718L920,718L917,737L917,737L917,737L917,737L917,742L918,747L919,750L919,751L919,757L919,757L919,762L920,765L915,766L917,770L915,772L916,776L916,778L916,782L917,784L916,787L914,790L916,796L914,790L912,796L910,799L910,799L907,802L907,803L905,806L899,814L902,810L900,813L893,816L895,825L896,826L896,830L896,834L896,834L890,847L890,846" fill="none" stroke="#000000" style="-webkit-tap-highlight-color: rgba(0, 0, 0, 0); stroke-linecap: round; stroke-linejoin: round; stroke-width: 8;" /><path d="M892,856L891,855L892,858L892,858L890,861L889,862L889,855L888,856L890,855L890,848" fill="none" stroke="#000000" style="-webkit-tap-highlight-color: rgba(0, 0, 0, 0); stroke-linecap: round; stroke-linejoin: round; stroke-width: 8;" /><path d="M1243.82,962.54L1241,952L1241,952L1241,952L1241,952L1249,973L1247,973L1251,973L1253,974L1263,975L1264,975L1268,975L1275,976L1276,976L1284,976L1288,974L1291,964L1292,964L1294,964L1298,964L1307,964L1314,958L1316,955" fill="none" stroke="#000000" style="-webkit-tap-highlight-color: rgba(0, 0, 0, 0); stroke-linecap: round; stroke-linejoin: round; stroke-width: 8;" /><path d="M1317,954L1320,950L1337.1,954.06L1322,950L1322,950L1324,946L1324,946L1340,945L1337,961L1337,961L1340,945L1343,942L1340,945L1343,942L1354,943L1360,943L1365,943L1374,943L1382,946" fill="none" stroke="#000000" style="-webkit-tap-highlight-color: rgba(0, 0, 0, 0); stroke-linecap: round; stroke-linejoin: round; stroke-width: 8;" /><path d="M1389,946L1399,947L1394,947L1402,947L1408,947L1413,947L1424,944L1429,943L1440,943L1456,939L1447,940L1460,939L1471,929L1456,939L1471,929" fill="none" stroke="#000000" style="-webkit-tap-highlight-color: rgba(0, 0, 0, 0); stroke-linecap: round; stroke-linejoin: round; stroke-width: 8;" /><path d="M1091.17,326.5L1095,319L1093,317L1085,313L1080,310L1071,305L1065,298L1063,294L1060,291L1060,295L1061,299L1057,297L1060,301L1053,301L1055,310L1054,318L1052,321L1051,326L1052,331L1049,338L1049,344L1049,340L1051,353L1049,356L1049,363L1049,362L1051,369L1053,375L1053,376L1051,372L1053,379L1054,386L1054,383L1053,389L1053,392L1053,394L1057,402L1057,399L1056,410L1056,411L1056,415L1060,425L1060,423L1060,431L1060,437L1061,433L1061,440L1057,452L1059,448L1055,453L1060,445" fill="none" stroke="#000000" style="-webkit-tap-highlight-color: rgba(0, 0, 0, 0); stroke-linecap: round; stroke-linejoin: round; stroke-width: 8;" /><path d="M1051,457L1051,457L1054,473L1051,457L1054,476L1054,479L1067,482L1066,499L1059,503L1060,502L1063,522L1058,507L1060,528L1063,522L1062,541L1063,546" fill="none" stroke="#000000" style="-webkit-tap-highlight-color: rgba(0, 0, 0, 0); stroke-linecap: round; stroke-linejoin: round; stroke-width: 8;" /><path d="M955.48,301.06" fill="none" stroke="#000000" style="-webkit-tap-highlight-color: rgba(0, 0, 0, 0); stroke-linecap: round; stroke-linejoin: round; stroke-width: 8;" /><path d="M1062,554L1063,561L1062,568L1065,571L1063,583L1063,580L1063,589L1063,587L1063,587L1062,574L1064,562" fill="none" stroke="#000000" style="-webkit-tap-highlight-color: rgba(0, 0, 0, 0); stroke-linecap: round; stroke-linejoin: round; stroke-width: 8;" /><path d="M955,293L955,293L955,293L961,297L961,310L955,316L952,326L947,341L946,343L950,364L950,366L956,374L955,386L955,388L953,396L953,403L953,396L955,407L953,417L953,422L958,427L959,437L967,448L961,441L967,451L967,454L967,461L967,459L968,468L968,471L968,479L968,476L960,489L959,487L960,493L960,490L956,496L961,499L962,497L961,504L966,508L962,502L968,512L969,516L969,516L967,510" fill="none" stroke="#000000" style="-webkit-tap-highlight-color: rgba(0, 0, 0, 0); stroke-linecap: round; stroke-linejoin: round; stroke-width: 8;" /><path d="M977,523L971,518L972,519L973,520L970,539L969,556L962,552L969,556L969,567L969,567L970,560L969,579L971,589L969,579L972,587L972,582L974,594L975,594L975,592L972,590L978,588" fill="none" stroke="#000000" style="-webkit-tap-highlight-color: rgba(0, 0, 0, 0); stroke-linecap: round; stroke-linejoin: round; stroke-width: 8;" /><path d="M1000.71,318.02L1004,318L1007,315L1006,316L1006,322L1006,325L1007,332L1004,336L1006,345L1008,351L1008,352L1012,366L1013,358L1012,370L1016,371L1018,374L1019,373L1026,370L1027,370L1034,372L1035,372L1037,367L1037,366L1037,365L1038,356L1032,353L1030,351L1021,345L1020,341L1020,338L1020,335L1020,331L1021,324" fill="none" stroke="#000000" style="-webkit-tap-highlight-color: rgba(0, 0, 0, 0); stroke-linecap: round; stroke-linejoin: round; stroke-width: 8;" /><path d="M1017,318L1020,309L1020,319L1023,307L1017,301L1021,300L1022,301L1022,304L1001,309L1009,307L1016,303L1002,308L991,313L997,318L993,320L992,319" fill="none" stroke="#000000" style="-webkit-tap-highlight-color: rgba(0, 0, 0, 0); stroke-linecap: round; stroke-linejoin: round; stroke-width: 8;" /><path d="M1133.57,366.08L1134,366L1128,363L1130,360L1130,360L1130,366L1129,372L1128,377L1129,372L1128,378L1129,383L1128,377L1129,386L1130,392L1129,386L1130,394L1129,397L1129,400L1128,405L1128,405L1130,408L1128,411L1127,414L1127,415L1132,409" fill="none" stroke="#000000" style="-webkit-tap-highlight-color: rgba(0, 0, 0, 0); stroke-linecap: round; stroke-linejoin: round; stroke-width: 8;" /><path d="M1136,407L1142,406L1139,407L1139,407L1145,406L1148,403L1153,400L1150,400L1154,397L1155,397L1155,397L1157,393L1157,392L1147,377L1154,389L1151,386L1145,375L1138,366L1139,365L1136,366L1130,360L1130,359L1128,360L1128,360L1128,360L1106,357L1106,357L1128,360L1114,369L1111,372L1111,380" fill="none" stroke="#000000" style="-webkit-tap-highlight-color: rgba(0, 0, 0, 0); stroke-linecap: round; stroke-linejoin: round; stroke-width: 8;" /><path d="M771.73,660.07L769,660L767,660L767,660L767,660L767,660L775,653L775,653L779,652L781,651L786,651L792,637L804,638L804,638L809,639L809,639L824,637L824,637L824,637L837,640L834,639L828,637L842,642L849,646L856,649L854,646L856,649L864,652L864,654L864,656L864,656L864,656L850,672L850,672L848,672L842,672L837,671L839,671L835,673L819,664L819,664L814,664L813,664L799,657" fill="none" stroke="#000000" style="-webkit-tap-highlight-color: rgba(0, 0, 0, 0); stroke-linecap: round; stroke-linejoin: round; stroke-width: 8;" /><path d="M797,656L798,656L780,652L789,651L775,657L767,660L767,660L752,660L752,666L749,663L755,666" fill="none" stroke="#000000" style="-webkit-tap-highlight-color: rgba(0, 0, 0, 0); stroke-linecap: round; stroke-linejoin: round; stroke-width: 8;" /><path d="M1560.42,973.85L1560,970L1563,969L1559,968L1558,968L1555,970L1552,978L1556,974L1552,978L1550,997L1550,997L1551,999L1549,1005L1549,1006L1542,1003L1535,1004L1524,1010L1524,1010L1513,1009L1512,1010L1492,999L1492,999L1490,999L1484,999L1481,999L1487,999" fill="none" stroke="#000000" style="-webkit-tap-highlight-color: rgba(0, 0, 0, 0); stroke-linecap: round; stroke-linejoin: round; stroke-width: 8;" /><path d="M1470,1009L1470,1011L1470,1013L1470,1009L1464,1012L1456,1015L1461,1014L1456,1015" fill="none" stroke="#000000" style="-webkit-tap-highlight-color: rgba(0, 0, 0, 0); stroke-linecap: round; stroke-linejoin: round; stroke-width: 8;" /><path d="M1537.81,948.41L1532,946L1535,948L1529,945L1527,945L1517,948L1514,951L1500,951L1515,948L1493,951L1484,947L1470,950L1477,946L1461,948L1458,949L1445,954L1445,954L1442,959L1438,962L1436,965L1429,972L1423,980L1429,973" fill="none" stroke="#000000" style="-webkit-tap-highlight-color: rgba(0, 0, 0, 0); stroke-linecap: round; stroke-linejoin: round; stroke-width: 8;" /><path d="M1401,988L1409,985L1412,984L1401,990L1372,999L1391,984L1378,989L1372,999L1362,1005L1356,1011L1366,1002L1359,1007L1356,1016L1356,1016L1357,1015L1363,1018L1364,1019L1365,1019" fill="none" stroke="#000000" style="-webkit-tap-highlight-color: rgba(0, 0, 0, 0); stroke-linecap: round; stroke-linejoin: round; stroke-width: 8;" /><path d="M2.83,617.67" fill="none" stroke="#000000" style="-webkit-tap-highlight-color: rgba(0, 0, 0, 0); stroke-linecap: round; stroke-linejoin: round; stroke-width: 8;" /><path d="M0,618L0,617.67L6,618L11,618L17,618L23,618L34,618L28,618L40,618L45,618L54,618L48,618L57,618L59,618L62,618L65,615L68,615L73,615L76,615L79,612L82,612L88,612L85,612L90,612L93,612L96,612L99,612L105,612L107,612L110,612L116,612L127,616L127,616L133,611L133,611L138,611L138,611L144,617L150,617L151,617L155,618L158,618L159,618L164,619L177,612L177,612L167,619L177,612L178,611L179,610L179,610L179,610L195,612L179,610L198,612L192,612L201,612L206,612L209,612L204,612L221,620L221,620L223,620L221,620L228,600L235,619L230,600L237,619L244,618L250,616L247,617L250,616L254,615L258,614L262,613L254,615L263,613L267,612L271,611L271,611L274,611L277,611L277,611L277,611L290,610L290,610L295,611L291,610L292,610L301,610L305,607L306,606L311,606L313,606L317,605L318,609L322,609L325,609L328,608L335,609L334,609L342,611L342,611L348,608L346,609L351,609L353,608L356,609L361,609L359,609L365,607L366,607L370,610L373,609L379,609L376,609L383,608L381,609L390,609L387,608L393,608L396,608L399,608L401,609L405,608L404,608L409,605L414,607L418,609L417,608L421,610L424,610L427,611L430,611L433,610L438,611L443,612L441,612L447,610L460,609L455,613L452,614L447,610" fill="none" stroke="#000000" style="-webkit-tap-highlight-color: rgba(0, 0, 0, 0); stroke-linecap: round; stroke-linejoin: round; stroke-width: 8;" /><path d="M464,608L467,608L466,608L472,607L474,607L478,606L484,606L486,606L495,607L491,607L492,607L498,607L499,607L506,606L514,603L512,603L518,602L516,603L526,604L525,604L529,603L538,607L531,603L532,603L542,606L544,608L540,606L546,601L551,600L557,607L558,606L559,606L560,607L571,601L560,607L565,597L571,601L574,601" fill="none" stroke="#000000" style="-webkit-tap-highlight-color: rgba(0, 0, 0, 0); stroke-linecap: round; stroke-linejoin: round; stroke-width: 8;" /><path d="M339.22,623.32L339,619L334,614L334,614L339,619L343,618L343,618L349,621L351,620L351,620L357,620L359,623L362,621L365,626L367,626L370,627L376,628L381,630L372,628L382,631L391,633L383,631L387,632L396,636L398,637L399,635L405,635L408,635L413,633L417,632L413,633L427,646L427,646L427,646L430,646L435,646L440,646L438,646L453,632L440,646L457,634L458,634L458,634L466,633L466,633L470,634L470,634L478,632L482,633L483,633L485,633L485,633L508,639L487,631L508,639L509,639L524,636L510,639L527,635L524,636L531,634L532,635L532,635L542,632L543,632L543,632L552,641L548,642L554,641L555,641L555,641L555,641" fill="none" stroke="#000000" style="-webkit-tap-highlight-color: rgba(0, 0, 0, 0); stroke-linecap: round; stroke-linejoin: round; stroke-width: 8;" /><path d="M568,626L574,627L574,627L578,628L581,629L584,630L585,643L584,643L582.33,620.49L590,631L591,631L597,635L597,635L599,635L605,637L605,637L608,637L605,637L611,637L611,637L611,637L611,637L580,623L577,622L574,623L577,622" fill="none" stroke="#000000" style="-webkit-tap-highlight-color: rgba(0, 0, 0, 0); stroke-linecap: round; stroke-linejoin: round; stroke-width: 8;" /><path d="M580,623L585,622L587,622L593,624L598,623L601,623L608,621L614,623L615,620L622,617L624,617L628,616L630,617L632,616L636,616L639,616L642,616L645,617L647,617" fill="none" stroke="#000000" style="-webkit-tap-highlight-color: rgba(0, 0, 0, 0); stroke-linecap: round; stroke-linejoin: round; stroke-width: 8;" /><path d="M749.12,614.84L754,615L752,623L741,615L745,602L745,602L746,602L755,613L756,612L758,602L763,602L772,607L777,609L782,607L783,607L789,606L792,606L794,605L797,605L800,604" fill="none" stroke="#000000" style="-webkit-tap-highlight-color: rgba(0, 0, 0, 0); stroke-linecap: round; stroke-linejoin: round; stroke-width: 8;" /><path d="M805,605L810,604L811,603L816,602L820,602L823,602L816,602L827,601L828,597L831,598" fill="none" stroke="#000000" style="-webkit-tap-highlight-color: rgba(0, 0, 0, 0); stroke-linecap: round; stroke-linejoin: round; stroke-width: 8;" /><path d="M757.6,631.8L753,627L753,627L753,627L757,625L757,625L758,624L759,623L759,623L772,614L781,616L781,616L789,617L792,618L794,618L798,618L799,618L803,616L806,615L807,615L811,615L815,616L816,615L821,616" fill="none" stroke="#000000" style="-webkit-tap-highlight-color: rgba(0, 0, 0, 0); stroke-linecap: round; stroke-linejoin: round; stroke-width: 8;" /><path d="M823,615L825,615" fill="none" stroke="#000000" style="-webkit-tap-highlight-color: rgba(0, 0, 0, 0); stroke-linecap: round; stroke-linejoin: round; stroke-width: 8;" /><path d="M593.64,643.11L591,644L591,644L597,635L605,637L608,637L618,634L625,634L626,634L626,634L639,633" fill="none" stroke="#000000" style="-webkit-tap-highlight-color: rgba(0, 0, 0, 0); stroke-linecap: round; stroke-linejoin: round; stroke-width: 8;" /><path d="M642,633L655,626L652,627L648,628L664,632L664,636L664,636" fill="none" stroke="#000000" style="-webkit-tap-highlight-color: rgba(0, 0, 0, 0); stroke-linecap: round; stroke-linejoin: round; stroke-width: 8;" /><path d="M367.49,693.99L367,691L365,688L362,691L359,694L362,694L359,697L356,697L354,710L354,710L354,710L351,711L351,711L350,712L358,719L358,720L359,725L359,726L365,731" fill="none" stroke="#000000" style="-webkit-tap-highlight-color: rgba(0, 0, 0, 0); stroke-linecap: round; stroke-linejoin: round; stroke-width: 8;" /><path d="M367,730L372,736L372,734L374,737L376,737L376,737" fill="none" stroke="#000000" style="-webkit-tap-highlight-color: rgba(0, 0, 0, 0); stroke-linecap: round; stroke-linejoin: round; stroke-width: 8;" /><path d="M296.82,626.15L292,619L290,618L295,616L292,619L298,622L305,629L300,625L307,632L310,635L314,638L317,640L318,643" fill="none" stroke="#000000" style="-webkit-tap-highlight-color: rgba(0, 0, 0, 0); stroke-linecap: round; stroke-linejoin: round; stroke-width: 8;" /><path d="M318,646L318,646L317,648L321,643L321,643" fill="none" stroke="#000000" style="-webkit-tap-highlight-color: rgba(0, 0, 0, 0); stroke-linecap: round; stroke-linejoin: round; stroke-width: 8;" /><path d="M740.64,691.17L736,696L733,695L736,696L736,697L744,701L747,706L752,707L759,713L760,714" fill="none" stroke="#000000" style="-webkit-tap-highlight-color: rgba(0, 0, 0, 0); stroke-linecap: round; stroke-linejoin: round; stroke-width: 8;" /><path d="M760,714L760,714L698.23,699.65L698,697L698,694L698,697L698,710L701,712" fill="none" stroke="#000000" style="-webkit-tap-highlight-color: rgba(0, 0, 0, 0); stroke-linecap: round; stroke-linejoin: round; stroke-width: 8;" /><path d="M704,717L707,718L712,718L714,718L714,718" fill="none" stroke="#000000" style="-webkit-tap-highlight-color: rgba(0, 0, 0, 0); stroke-linecap: round; stroke-linejoin: round; stroke-width: 8;" /><path d="M808.48,770.32L803,772L806,768L808,768L810,768L810,768L810,768L830,761L832,753L832,753L834,752L834,752L843,739L844,737L843,739L845,726L845,726L847,724L849,722L849,722L858,717L864,718L858,717L865,718L867,718" fill="none" stroke="#000000" style="-webkit-tap-highlight-color: rgba(0, 0, 0, 0); stroke-linecap: round; stroke-linejoin: round; stroke-width: 8;" /><path d="M867,718L872,716L875,715L878,714L878,714L881,713L881,713L881,713L886,708L886,708L888,707L894,705L895,705" fill="none" stroke="#000000" style="-webkit-tap-highlight-color: rgba(0, 0, 0, 0); stroke-linecap: round; stroke-linejoin: round; stroke-width: 8;" /><path d="M1529.33,801.41L1522,801L1534,800L1538,799L1543,797L1552,795L1559,797L1563,795L1569,795L1572,795L1574,795" fill="none" stroke="#000000" style="-webkit-tap-highlight-color: rgba(0, 0, 0, 0); stroke-linecap: round; stroke-linejoin: round; stroke-width: 8;" /><path d="M1577,795" fill="none" stroke="#000000" style="-webkit-tap-highlight-color: rgba(0, 0, 0, 0); stroke-linecap: round; stroke-linejoin: round; stroke-width: 8;" /><path d="M1478.45,883.39L1478,875L1480,875L1484,877L1484,877L1484,878L1504,878L1504,878L1505,878L1505,878L1518,879L1521,878L1525,879L1525,879L1525,879L1541,878L1552,878L1543,878L1549,878L1558,875L1560,875L1566,875L1572,875" fill="none" stroke="#000000" style="-webkit-tap-highlight-color: rgba(0, 0, 0, 0); stroke-linecap: round; stroke-linejoin: round; stroke-width: 8;" /><path d="M1575,875L1577,875L1577,878" fill="none" stroke="#000000" style="-webkit-tap-highlight-color: rgba(0, 0, 0, 0); stroke-linecap: round; stroke-linejoin: round; stroke-width: 8;" /><path d="M1235.34,976.68L1231,974L1233,974L1235,974L1238,974L1241,974L1244,974L1245,974L1251,978L1253,977L1255,977L1261,977L1269,976L1263,976L1272,976L1276,976L1284,976L1291,964L1288,974L1292,964L1294,964L1298,964L1298,964L1298,964L1298,964L1307,964" fill="none" stroke="#000000" style="-webkit-tap-highlight-color: rgba(0, 0, 0, 0); stroke-linecap: round; stroke-linejoin: round; stroke-width: 8;" /><path d="M1307,964L1314,958L1316,955L1321,947L1318,952L1323,946L1320,946L1319,950" fill="none" stroke="#000000" style="-webkit-tap-highlight-color: rgba(0, 0, 0, 0); stroke-linecap: round; stroke-linejoin: round; stroke-width: 8;" /><path d="M1192.93,979.51L1192,974L1192,977L1192,974L1192,974L1188,983L1189,982L1188,983L1183,988L1183,988L1183,990L1177,1002L1175,1003L1165,1005L1159,1007L1166,1005L1156,1004L1145,1009L1153,1008L1148,1008L1142,1009L1139,1009L1131,1006L1134,1008L1128,1006L1121,1007L1122,1007L1119,1008L1115,1009" fill="none" stroke="#000000" style="-webkit-tap-highlight-color: rgba(0, 0, 0, 0); stroke-linecap: round; stroke-linejoin: round; stroke-width: 8;" /><path d="M1108,1011L1105,1011L1103,1011L1103,1011L1092,1000L1103,1011L1091.17,1016.25L1086,1003L1093,1018L1086,1003L1086,1003L1091,1019L1090,1020L1085,1023L1074,1022L1085,1023L1069,1025L1066,1025" fill="none" stroke="#000000" style="-webkit-tap-highlight-color: rgba(0, 0, 0, 0); stroke-linecap: round; stroke-linejoin: round; stroke-width: 8;" /><path d="M1060,1025L1063,1025L1057,1025L1060,1025L1051.59,976.68L1052,977L1052,977L1052,977L1047,980L1047,980L1043,979L1040,980L1037,980L1036,980L1032,981L1032,981L1026,984L1021,984" fill="none" stroke="#000000" style="-webkit-tap-highlight-color: rgba(0, 0, 0, 0); stroke-linecap: round; stroke-linejoin: round; stroke-width: 8;" /><path d="M1017,985L1012,987L1021,984L1003,978L1003,978L1023.32,982.33L1021,984L1021,984L1017,985L1012,987L1012,988L1012,987L1006,994L1006,995L998,1002L1004,996L1000,999" fill="none" stroke="#000000" style="-webkit-tap-highlight-color: rgba(0, 0, 0, 0); stroke-linecap: round; stroke-linejoin: round; stroke-width: 8;" /><path d="M995,1002L979,1009L990,1009L990,1009L978,1009L966,1004L966,1004L977,1009L966,1004L958.3,1007.77L966,1004L966,1014L958,1006L955,1006L953,1008L949,1011" fill="none" stroke="#000000" style="-webkit-tap-highlight-color: rgba(0, 0, 0, 0); stroke-linecap: round; stroke-linejoin: round; stroke-width: 8;" /><path d="M949,1012L939,1013L936,1023L936,1023L936,1023" fill="none" stroke="#000000" style="-webkit-tap-highlight-color: rgba(0, 0, 0, 0); stroke-linecap: round; stroke-linejoin: round; stroke-width: 8;" /><path d="M432.51,1019.08L426,1018L426,1018L424,1019L423,1016L424,1013L427,1005L425,1012L427,1002L430,999L432,996L433,991L438,989L444,986L452,972L444,986L461,976L460,976L472,971L466,971L482,968L475,968L485,969L489,965L495,964L499,964L510,965L507,967L514,959L521,960L526,957L531,956L534,957L540,953L546,957L549,951L561,953L552,951L566,954L572,954L577,954L582,953L588,951L594,950L602,953L596,951L605,948L611,952L614,952L619,944L626,944L625,951L632,948L636,939L634,946L640,940L640,937L642,932L641,934L645,930L646,929L658,925L650,925L658,924L661,923L664,918L664,920L664,920L672,917L676,913L682,914L677,915L682,914L687,912L692,909L691,910L686,913L695,906L697,906L701,906L704,903L705,902" fill="none" stroke="#000000" style="-webkit-tap-highlight-color: rgba(0, 0, 0, 0); stroke-linecap: round; stroke-linejoin: round; stroke-width: 8;" /><path d="M712,900L715,900L718,901L712,900L724,904L731,894L721,899L721,899L738,905L742,901L743,900L746,901L749,899L754,899L759,901L763,899L766,900L777,900L772,898L769,900L776,904" fill="none" stroke="#000000" style="-webkit-tap-highlight-color: rgba(0, 0, 0, 0); stroke-linecap: round; stroke-linejoin: round; stroke-width: 8;" /><path d="M808.48,985.16L801,983L800,984L799,985L797,985L799,994L793,986L790,998L787,996L786,996L780,992L772,992L761,992L752,992L740,992L735,992L726,993L720,994L717,996L707,995L707,1001" fill="none" stroke="#000000" style="-webkit-tap-highlight-color: rgba(0, 0, 0, 0); stroke-linecap: round; stroke-linejoin: round; stroke-width: 8;" /></svg>