<?xml version="1.0" encoding="utf-8" ?>
<svg baseProfile="full" height="1025" version="1.1" width="1600" xmlns="http://www.w3.org/2000/svg" xmlns:ev="http://www.w3.org/2001/xml-events" xmlns:xlink="http://www.w3.org/1999/xlink"><defs /><path d="M10.5,380.17L8.16,380.17L4.66,381.34L3.5,380.17L2.33,380.17L3.5,381.34L5.83,382.51L17.49,381.34L23.32,382.51L27.99,382.51L30.32,382.51L39.65,382.51L45.48,381.34L52.48,381.34L54.81,381.34L57.14,382.51L59.48,383.67L60.64,383.67L64.14,383.67L66.47,383.67L68.8,383.67L72.3,382.51L73.47,381.34L76.97,381.34L78.13,381.34L83.97,380.17L86.3,381.34L87.46,381.34L92.13,382.51L96.79,383.67L101.46,382.51L103.79,382.51L107.29,383.67L113.12,383.67L116.62,383.67L120.12,384.84L123.62,384.84L127.11,387.17L130.61,387.17L136.44,388.34L139.94,389.5L143.44,389.5L148.1,389.5L151.6,390.67L156.27,391.84L159.77,391.84L164.43,393L169.1,395.34L171.43,395.34L173.76,397.67L177.26,400L180.76,403.5L184.26,405.83L187.76,408.16L191.25,410.5L194.75,411.66L197.08,413.99L200.58,417.49L200.58,418.66L204.08,419.83L205.25,419.83L207.58,422.16L208.75,422.16L209.91,423.32L211.08,423.32L214.58,425.66L216.91,426.82L218.08,429.15L220.41,430.32L223.91,431.49L226.24,432.65L227.41,433.82L232.07,436.15L233.24,436.15L235.57,436.15L236.73,436.15L240.23,437.32L242.57,438.48L246.06,438.48L248.4,439.65L251.9,438.48L255.39,438.48L260.06,438.48L263.56,438.48L267.06,438.48L270.55,438.48L271.72,438.48L278.72,439.65L281.05,439.65L284.55,439.65L286.88,438.48L289.21,438.48L290.38,438.48L295.04,437.32L296.21,437.32L297.38,436.15L303.21,434.99L306.71,432.65L307.87,431.49L310.2,429.15L312.54,426.82L314.87,423.32L317.2,420.99L320.7,418.66L324.2,416.33L326.53,413.99L330.03,412.83L333.53,410.5L335.86,408.16L341.69,404.66L345.19,403.5L346.36,403.5L349.85,400L352.19,400L355.69,396.5L359.18,395.34L360.35,393L362.68,391.84L367.35,388.34L370.85,387.17L375.51,384.84L379.01,382.51L386.01,380.17L390.67,379.01L394.17,377.84L398.83,376.68L402.33,376.68L410.5,375.51L413.99,374.34L418.66,374.34L423.32,374.34L434.99,374.34L436.15,374.34L440.82,375.51L445.48,375.51L448.98,375.51L452.48,376.68L459.48,376.68L464.14,377.84L468.8,377.84L475.8,381.34L481.63,382.51L486.3,383.67L489.8,384.84L493.29,386.01L496.79,387.17L500.29,387.17L501.46,386.01L502.62,386.01L504.96,386.01L509.62,386.01L511.95,387.17L514.29,387.17L517.78,387.17L521.28,388.34L527.11,389.5L530.61,390.67L532.94,391.84L536.44,394.17L541.11,396.5L542.27,397.67L543.44,397.67L544.61,397.67L544.61,400L545.77,400L546.94,400L549.27,401.17L552.77,401.17L555.1,401.17L557.43,401.17L560.93,400L564.43,398.83L569.1,396.5L571.43,396.5L573.76,396.5L576.09,396.5L580.76,395.34L584.26,395.34L587.76,395.34L592.42,396.5L595.92,396.5L600.58,395.34L606.41,394.17L614.58,394.17L620.41,394.17L628.57,393L633.24,391.84L637.9,390.67L642.57,389.5L646.06,388.34L655.39,386.01L657.73,384.84L658.89,384.84L662.39,384.84L672.89,384.84L679.88,383.67L685.71,383.67L692.71,383.67L697.38,382.51L703.21,381.34L707.87,380.17L711.37,377.84L714.87,376.68L720.7,374.34L725.36,373.18L730.03,373.18L735.86,374.34L741.69,374.34L752.19,373.18L756.85,373.18L768.51,373.18L777.84,373.18L790.67,373.18L797.67,373.18L804.66,370.85L810.5,370.85L818.66,368.51L820.99,368.51L826.82,366.18L831.49,366.18L836.15,366.18L841.98,366.18L845.48,366.18L850.15,366.18L855.98,366.18L861.81,366.18L868.8,366.18L876.97,367.35L883.97,369.68L892.13,369.68L899.13,369.68L910.79,370.85L915.45,370.85L918.95,372.01L920.12,373.18L921.28,373.18L924.78,373.18L925.95,373.18L928.28,375.51L930.61,376.68L934.11,380.17L936.44,381.34L937.61,381.34L939.94,382.51L941.11,383.67L942.27,384.84L944.61,386.01L945.77,387.17L948.1,390.67L949.27,391.84L950.44,394.17L951.6,396.5L952.77,398.83L953.94,401.17L953.94,402.33L953.94,404.66L955.1,408.16L955.1,410.5L956.27,411.66L956.27,412.83L957.43,413.99L957.43,418.66L957.43,419.83L957.43,424.49L957.43,427.99L957.43,430.32L958.6,433.82L959.77,437.32L960.93,439.65" fill="none" stroke="#000000" style="-webkit-tap-highlight-color: rgba(0, 0, 0, 0); stroke-linecap: round; stroke-linejoin: round; stroke-width: 8;" /><path d="M966.76,307.87L967.93,304.37L969.1,302.04L969.1,300.87L967.93,305.54L966.76,310.2L965.6,317.2L964.43,323.03L964.43,330.03L964.43,337.03L965.6,345.19L965.6,353.35L966.76,365.01L965.6,369.68L965.6,375.51L965.6,380.17L966.76,383.67L966.76,389.5L966.76,391.84L967.93,393L967.93,395.34L967.93,400L967.93,403.5L967.93,405.83L969.1,408.16L969.1,409.33L967.93,410.5L966.76,412.83L966.76,415.16L965.6,419.83L963.27,423.32L962.1,426.82L960.93,430.32L958.6,434.99L958.6,437.32L957.43,440.82L955.1,444.31L952.77,447.81L949.27,452.48" fill="none" stroke="#000000" style="-webkit-tap-highlight-color: rgba(0, 0, 0, 0); stroke-linecap: round; stroke-linejoin: round; stroke-width: 8;" /><path d="M953.94,447.81L953.94,450.15L953.94,452.48L953.94,455.98L952.77,462.97L951.6,466.47L950.44,469.97L949.27,473.47L949.27,478.13L949.27,482.8L949.27,486.3L948.1,488.63L949.27,492.13L949.27,500.29L949.27,504.96L950.44,509.62L950.44,513.12L951.6,516.62L950.44,521.28L950.44,524.78L950.44,527.11L950.44,529.45L951.6,535.28L951.6,537.61L951.6,539.94L951.6,543.44L951.6,546.94L951.6,549.27" fill="none" stroke="#000000" style="-webkit-tap-highlight-color: rgba(0, 0, 0, 0); stroke-linecap: round; stroke-linejoin: round; stroke-width: 8;" /><path d="M621.57,374.34L621.57,373.18L622.74,372.01L622.74,370.85L623.91,368.51L626.24,366.18L627.41,363.85L628.57,360.35L629.74,359.18L633.24,355.69L635.57,353.35L640.23,351.02L644.9,347.52L647.23,346.36L654.23,341.69L657.73,340.52L662.39,339.36L665.89,338.19L670.55,335.86L672.89,335.86L676.38,333.53L681.05,332.36L682.22,332.36L686.88,331.2L692.71,332.36L696.21,333.53L698.54,334.69L700.87,335.86L704.37,337.03L705.54,338.19L710.2,341.69L711.37,342.86L716.03,345.19L717.2,346.36L724.2,347.52L726.53,347.52L728.86,348.69L732.36,349.85L734.69,351.02L739.36,351.02L742.86,351.02L744.02,352.19L745.19,352.19L747.52,352.19L749.85,352.19L751.02,351.02L753.35,349.85L756.85,349.85L758.02,351.02L762.68,352.19L763.85,352.19L766.18,352.19L768.51,352.19L769.68,352.19L770.85,351.02L772.01,351.02L774.34,351.02L775.51,351.02L777.84,349.85L779.01,348.69L780.17,348.69L780.17,347.52L782.51,346.36L783.67,345.19L784.84,344.02L787.17,340.52L788.34,337.03L789.5,335.86L789.5,334.69L790.67,331.2L790.67,330.03L790.67,327.7L790.67,324.2L790.67,321.87L791.84,319.53L793,318.37L794.17,316.03L795.34,316.03L797.67,314.87L801.17,313.7L804.66,312.54L808.16,311.37L813.99,310.2L817.49,309.04L820.99,309.04L825.66,309.04L830.32,309.04L833.82,307.87L839.65,307.87L841.98,306.71L843.15,305.54L846.65,305.54L852.48,304.37L854.81,303.21L859.48,302.04L861.81,300.87L864.14,300.87L866.47,300.87L868.8,299.71L872.3,298.54L879.3,296.21L882.8,296.21L885.13,295.04L886.3,293.88L888.63,293.88L892.13,293.88L894.46,293.88L896.79,293.88L900.29,293.88L907.29,292.71L909.62,292.71L913.12,292.71L917.78,292.71L922.45,292.71L927.11,292.71L931.78,292.71L936.44,292.71L939.94,292.71L946.94,293.88L950.44,293.88L953.94,295.04L957.43,295.04L962.1,295.04L964.43,296.21L966.76,296.21L970.26,297.38L973.76,297.38L979.59,298.54L980.76,298.54L984.26,298.54L986.59,298.54L990.09,298.54L991.25,298.54L994.75,297.38L997.08,297.38L1001.75,296.21L1002.92,296.21L1007.58,295.04L1011.08,295.04L1014.58,293.88L1020.41,292.71L1021.57,292.71L1023.91,291.55L1026.24,290.38L1029.74,289.21L1035.57,289.21L1039.07,289.21L1041.4,289.21L1044.9,289.21L1049.56,290.38L1050.73,290.38L1055.39,290.38L1056.56,290.38L1061.22,291.55L1063.56,291.55L1067.06,291.55L1072.89,291.55L1076.38,292.71L1077.55,292.71L1082.22,292.71L1083.38,292.71L1084.55,292.71L1090.38,293.88L1091.55,295.04L1095.04,295.04L1096.21,295.04L1098.54,293.88L1099.71,293.88L1103.21,291.55L1109.04,288.05L1111.37,284.55L1114.87,283.38L1118.37,281.05L1121.87,278.72L1126.53,276.38L1130.03,275.22L1159.18,267.06L1165.01,265.89L1173.18,264.72L1177.84,264.72L1179.01,263.56L1187.17,261.22L1190.67,261.22L1194.17,260.06L1197.67,260.06L1200,260.06L1203.5,260.06L1207,261.22L1210.5,261.22L1212.83,263.56L1215.16,264.72L1216.33,265.89L1218.66,267.06L1219.83,268.22L1220.99,268.22L1220.99,269.39L1223.32,270.55L1224.49,271.72L1225.66,272.89L1226.82,275.22L1227.99,275.22L1230.32,278.72L1231.49,279.88L1232.65,281.05L1234.99,283.38L1238.48,285.71L1239.65,286.88L1241.98,288.05L1243.15,289.21L1244.31,290.38L1245.48,290.38L1246.65,291.55L1246.65,292.71L1247.81,293.88L1248.98,296.21L1250.15,302.04L1250.15,304.37L1250.15,305.54L1250.15,309.04L1250.15,312.54L1251.31,316.03L1251.31,320.7L1251.31,327.7L1251.31,332.36L1251.31,337.03L1251.31,340.52L1251.31,341.69L1251.31,348.69L1251.31,352.19L1251.31,355.69L1251.31,359.18L1250.15,363.85L1250.15,365.01L1248.98,369.68L1248.98,375.51L1247.81,380.17L1247.81,384.84L1246.65,388.34L1245.48,391.84L1245.48,393L1245.48,394.17L1245.48,395.34L1245.48,396.5L1245.48,397.67L1250.15,400L1252.48,402.33" fill="none" stroke="#000000" style="-webkit-tap-highlight-color: rgba(0, 0, 0, 0); stroke-linecap: round; stroke-linejoin: round; stroke-width: 8;" /><path d="M1259.48,412.83L1255.98,423.32L1255.98,426.82L1254.81,430.32L1252.48,433.82L1251.31,436.15L1250.15,438.48L1250.15,439.65L1250.15,444.31L1251.31,445.48L1252.48,446.65L1252.48,447.81L1253.64,448.98L1253.64,450.15L1253.64,448.98L1253.64,444.31L1253.64,439.65L1252.48,433.82" fill="none" stroke="#000000" style="-webkit-tap-highlight-color: rgba(0, 0, 0, 0); stroke-linecap: round; stroke-linejoin: round; stroke-width: 8;" /><path d="M1247.81,393L1247.81,395.34L1247.81,397.67L1247.81,402.33L1247.81,408.16L1247.81,416.33L1247.81,420.99L1248.98,427.99L1250.15,437.32L1251.31,444.31L1253.64,448.98L1255.98,452.48L1257.14,453.64" fill="none" stroke="#000000" style="-webkit-tap-highlight-color: rgba(0, 0, 0, 0); stroke-linecap: round; stroke-linejoin: round; stroke-width: 8;" /><path d="M1245.48,376.68L1246.65,376.68L1250.15,377.84L1252.48,377.84L1257.14,377.84L1261.81,377.84L1271.14,377.84L1279.3,377.84L1285.13,380.17L1292.13,380.17L1302.62,380.17L1308.45,381.34L1314.29,381.34L1321.28,381.34L1325.95,380.17L1332.94,381.34L1337.61,381.34L1343.44,381.34L1346.94,382.51L1355.1,383.67L1360.93,384.84L1364.43,384.84L1370.26,386.01L1376.09,387.17L1383.09,389.5L1388.92,389.5L1393.59,389.5L1399.42,388.34L1408.75,387.17L1414.58,387.17L1420.41,386.01L1426.24,386.01L1432.07,386.01L1437.9,384.84L1444.9,384.84L1453.06,384.84L1457.73,383.67L1462.39,383.67L1471.72,382.51L1476.38,383.67L1481.05,382.51L1486.88,382.51L1492.71,381.34L1502.04,381.34L1509.04,381.34L1513.7,381.34L1528.86,384.84L1534.69,384.84L1540.52,384.84L1546.36,386.01L1553.35,386.01L1558.02,387.17L1567.35,388.34L1573.18,389.5L1579.01,390.67L1588.34,391.84L1595.34,391.84" fill="none" stroke="#000000" style="-webkit-tap-highlight-color: rgba(0, 0, 0, 0); stroke-linecap: round; stroke-linejoin: round; stroke-width: 8;" /><path d="M1258.31,457.14L1257.14,452.48L1257.14,451.31L1258.31,450.15L1260.64,450.15L1261.81,451.31L1262.97,452.48L1269.97,457.14L1272.3,459.48L1279.3,462.97L1282.8,464.14L1287.46,466.47L1294.46,468.8L1299.13,469.97L1302.62,471.14L1306.12,471.14L1309.62,471.14L1311.95,472.3L1316.62,473.47L1320.12,474.64L1321.28,475.8L1323.62,475.8L1325.95,476.97L1328.28,475.8L1330.61,475.8L1334.11,474.64L1336.44,474.64L1341.11,473.47L1343.44,472.3L1345.77,472.3L1349.27,471.14L1351.6,469.97L1353.94,468.8L1355.1,468.8L1359.77,468.8L1364.43,469.97L1367.93,471.14L1371.43,471.14L1372.59,471.14L1373.76,471.14L1376.09,472.3L1379.59,473.47L1383.09,474.64L1385.42,476.97L1387.76,479.3L1388.92,480.47L1390.09,482.8L1391.25,485.13L1393.59,486.3L1393.59,487.46L1395.92,488.63L1397.08,489.8L1398.25,490.96L1400.58,492.13L1402.92,492.13L1405.25,493.29L1406.41,493.29L1408.75,493.29L1411.08,493.29L1415.74,492.13L1416.91,492.13L1420.41,489.8L1422.74,489.8L1428.57,487.46L1430.9,486.3L1433.24,485.13L1434.4,483.97L1436.73,481.63L1439.07,480.47L1439.07,479.3L1442.57,478.13L1444.9,476.97L1446.06,475.8L1446.06,474.64L1447.23,472.3L1448.4,471.14L1449.56,468.8L1451.9,465.31L1453.06,462.97L1453.06,460.64L1454.23,455.98L1454.23,452.48L1454.23,450.15L1454.23,447.81L1453.06,445.48L1451.9,443.15L1451.9,441.98L1450.73,441.98L1454.23,439.65L1458.89,438.48L1462.39,438.48L1465.89,439.65L1471.72,439.65L1476.38,439.65L1481.05,439.65L1489.21,440.82L1496.21,439.65L1500.87,439.65L1505.54,440.82L1507.87,440.82L1510.2,440.82L1512.54,440.82L1514.87,441.98L1516.03,443.15L1517.2,445.48L1519.53,446.65L1519.53,447.81L1520.7,450.15L1520.7,452.48L1520.7,455.98L1520.7,459.48L1520.7,464.14L1521.87,467.64L1521.87,471.14L1524.2,476.97L1525.36,479.3L1527.7,480.47L1528.86,481.63L1531.2,481.63L1533.53,481.63L1537.03,481.63L1540.52,480.47L1542.86,479.3L1545.19,478.13L1551.02,475.8L1553.35,475.8L1556.85,475.8L1559.18,474.64L1565.01,474.64L1568.51,473.47L1573.18,472.3L1577.84,469.97L1583.67,466.47L1588.34,466.47L1593,465.31" fill="none" stroke="#000000" style="-webkit-tap-highlight-color: rgba(0, 0, 0, 0); stroke-linecap: round; stroke-linejoin: round; stroke-width: 8;" /><path d="M1081.05,299.71L1079.88,304.37L1076.38,309.04L1076.38,312.54L1074.05,316.03L1074.05,318.37L1071.72,323.03L1070.55,331.2L1069.39,334.69L1069.39,344.02L1069.39,347.52L1068.22,361.52L1067.06,366.18L1065.89,373.18L1063.56,380.17L1061.22,386.01L1060.06,395.34L1058.89,401.17L1057.73,408.16L1057.73,410.5L1054.23,420.99L1054.23,425.66L1053.06,427.99L1053.06,432.65L1053.06,437.32L1053.06,440.82L1053.06,444.31L1053.06,448.98L1053.06,452.48L1054.23,455.98L1054.23,460.64L1055.39,462.97L1055.39,464.14L1055.39,466.47L1055.39,468.8L1055.39,473.47L1055.39,475.8L1054.23,479.3L1053.06,483.97L1053.06,489.8L1053.06,494.46L1054.23,496.79L1054.23,501.46L1054.23,504.96L1055.39,514.29L1055.39,517.78L1056.56,524.78L1057.73,529.45L1057.73,534.11L1058.89,537.61L1057.73,539.94L1058.89,542.27" fill="none" stroke="#000000" style="-webkit-tap-highlight-color: rgba(0, 0, 0, 0); stroke-linecap: round; stroke-linejoin: round; stroke-width: 8;" /><path d="M953.94,559.77L952.77,559.77L957.43,558.6L963.27,556.27L970.26,555.1L981.92,555.1L985.42,553.94L1000.58,553.94L1015.74,551.6L1027.41,550.44L1036.73,550.44L1044.9,551.6L1054.23,552.77L1061.22,553.94L1071.72,556.27L1074.05,556.27L1082.22,558.6L1085.71,559.77L1091.55,562.1L1096.21,562.1L1099.71,563.27L1103.21,562.1L1107.87,560.93L1111.37,558.6L1114.87,556.27L1118.37,553.94L1123.03,551.6L1131.2,550.44L1133.53,549.27L1134.69,549.27L1138.19,548.1L1142.86,546.94L1145.19,545.77L1148.69,544.61L1152.19,544.61L1154.52,543.44L1156.85,543.44L1158.02,542.27L1160.35,542.27L1166.18,541.11L1168.51,539.94L1174.34,538.78L1181.34,538.78L1187.17,538.78L1190.67,537.61L1195.34,536.44L1200,536.44L1204.66,535.28L1210.5,535.28L1211.66,535.28L1217.49,535.28L1218.66,535.28L1223.32,535.28L1225.66,535.28L1226.82,535.28L1227.99,535.28L1231.49,536.44L1232.65,536.44L1236.15,536.44L1238.48,536.44L1246.65,534.11L1253.64,531.78L1268.8,525.95L1276.97,523.62L1286.3,520.12L1288.63,518.95L1295.63,516.62L1297.96,515.45L1299.13,515.45L1300.29,515.45L1301.46,513.12L1301.46,510.79L1300.29,508.45L1300.29,504.96L1297.96,501.46L1297.96,500.29L1296.79,497.96L1296.79,494.46L1296.79,493.29L1297.96,492.13" fill="none" stroke="#000000" style="-webkit-tap-highlight-color: rgba(0, 0, 0, 0); stroke-linecap: round; stroke-linejoin: round; stroke-width: 8;" /><path d="M1281.63,471.14L1280.47,469.97L1278.13,468.8L1274.64,468.8L1272.3,468.8L1268.8,467.64L1260.64,467.64L1258.31,467.64L1247.81,466.47L1238.48,466.47L1232.65,466.47L1226.82,468.8L1220.99,469.97L1216.33,471.14L1210.5,471.14L1203.5,471.14L1201.17,469.97L1194.17,472.3L1191.84,474.64L1189.5,476.97L1186.01,479.3L1181.34,481.63L1176.68,483.97L1172.01,485.13L1169.68,486.3L1168.51,486.3L1165.01,489.8L1163.85,493.29L1161.52,495.63L1160.35,497.96L1158.02,500.29L1155.69,501.46L1154.52,503.79L1151.02,507.29L1149.85,509.62L1148.69,511.95L1147.52,513.12L1146.36,520.12L1146.36,523.62L1148.69,529.45" fill="none" stroke="#000000" style="-webkit-tap-highlight-color: rgba(0, 0, 0, 0); stroke-linecap: round; stroke-linejoin: round; stroke-width: 8;" /><path d="M868.8,578.43L867.64,579.59L866.47,580.76L866.47,583.09L865.31,583.09L866.47,583.09L867.64,580.76L869.97,577.26L873.47,573.76L878.13,570.26L882.8,567.93L889.8,565.6L897.96,562.1L902.62,558.6L908.45,556.27L914.29,553.94L921.28,552.77L928.28,551.6L934.11,551.6L938.78,551.6L942.27,550.44L944.61,549.27L942.27,550.44L938.78,551.6L932.94,551.6L927.11,552.77L921.28,553.94L909.62,559.77L903.79,563.27L896.79,565.6L892.13,567.93L887.46,570.26L883.97,571.43L881.63,573.76L879.3,576.09L876.97,579.59L872.3,585.42L869.97,586.59L866.47,588.92L865.31,590.09L862.97,591.25L860.64,592.42L859.48,592.42L857.14,593.59L854.81,593.59L850.15,594.75L846.65,594.75L843.15,595.92L839.65,595.92L836.15,597.08L830.32,597.08L824.49,597.08L822.16,597.08L813.99,598.25L810.5,599.42L805.83,600.58L801.17,600.58L795.34,601.75L789.5,600.58L776.68,599.42L773.18,599.42L761.52,599.42L753.35,600.58L742.86,601.75L737.03,600.58L731.2,600.58L726.53,600.58L721.87,600.58L716.03,600.58L714.87,600.58L711.37,599.42L709.04,598.25L706.71,597.08L704.37,595.92L703.21,594.75L702.04,593.59L699.71,591.25L699.71,590.09L697.38,587.76L696.21,586.59L693.88,581.92L692.71,578.43L692.71,576.09L691.55,574.93" fill="none" stroke="#000000" style="-webkit-tap-highlight-color: rgba(0, 0, 0, 0); stroke-linecap: round; stroke-linejoin: round; stroke-width: 8;" /><path d="M727.7,374.34L727.7,375.51L726.53,377.84L726.53,380.17L725.36,387.17L724.2,391.84L723.03,396.5L723.03,400L721.87,404.66L720.7,410.5L720.7,412.83L719.53,420.99L719.53,423.32L718.37,433.82L717.2,438.48L717.2,443.15L717.2,448.98L717.2,453.64L717.2,461.81L717.2,466.47L716.03,471.14L716.03,473.47L716.03,481.63L714.87,485.13L714.87,487.46L713.7,489.8L713.7,493.29L713.7,496.79L713.7,499.13L713.7,501.46L712.54,504.96L711.37,511.95L710.2,515.45L709.04,518.95L707.87,521.28L705.54,525.95L703.21,531.78L700.87,535.28L699.71,541.11L698.54,545.77L697.38,550.44L696.21,553.94L695.04,558.6L693.88,563.27L692.71,567.93L692.71,574.93L692.71,585.42L692.71,590.09L693.88,594.75L693.88,598.25L693.88,600.58L693.88,601.75" fill="none" stroke="#000000" style="-webkit-tap-highlight-color: rgba(0, 0, 0, 0); stroke-linecap: round; stroke-linejoin: round; stroke-width: 8;" /><path d="M713.7,510.79L713.7,509.62L714.87,507.29L717.2,506.12L718.37,504.96L723.03,503.79L726.53,502.62L733.53,500.29L740.52,499.13L745.19,499.13L749.85,497.96L754.52,497.96L758.02,495.63L761.52,495.63L767.35,494.46L768.51,494.46L773.18,494.46L779.01,490.96L781.34,488.63L783.67,486.3L787.17,483.97L790.67,482.8L794.17,480.47L800,476.97L802.33,475.8L805.83,472.3L809.33,471.14L815.16,468.8L817.49,467.64L820.99,467.64L824.49,466.47L827.99,466.47L832.65,464.14L834.99,464.14L840.82,464.14L841.98,464.14L845.48,464.14L851.31,464.14L854.81,465.31L858.31,465.31L860.64,467.64L864.14,468.8L866.47,469.97L869.97,471.14L874.64,473.47L876.97,475.8L878.13,478.13L880.47,479.3L886.3,482.8L889.8,485.13L893.29,487.46L895.63,489.8L901.46,495.63L903.79,497.96L906.12,499.13L908.45,501.46L911.95,504.96L913.12,506.12L914.29,508.45L916.62,511.95L916.62,513.12L920.12,515.45L923.62,516.62L925.95,517.78L929.45,520.12L932.94,522.45L937.61,524.78L942.27,525.95" fill="none" stroke="#000000" style="-webkit-tap-highlight-color: rgba(0, 0, 0, 0); stroke-linecap: round; stroke-linejoin: round; stroke-width: 8;" /><path d="M874.64,508.45L876.97,506.12L881.63,503.79L880.47,503.79L878.13,503.79L873.47,503.79L867.64,503.79L861.81,504.96L854.81,504.96L847.81,507.29L837.32,508.45L833.82,508.45L822.16,511.95L816.33,513.12L810.5,515.45L807,517.78L803.5,520.12L802.33,521.28L801.17,522.45L801.17,523.62L800,527.11L798.83,530.61L798.83,532.94L798.83,536.44L798.83,539.94L798.83,544.61L798.83,546.94L797.67,553.94L797.67,555.1L796.5,565.6L796.5,571.43L796.5,578.43L796.5,584.26L796.5,588.92L796.5,593.59L796.5,598.25L796.5,602.92L796.5,604.08" fill="none" stroke="#000000" style="-webkit-tap-highlight-color: rgba(0, 0, 0, 0); stroke-linecap: round; stroke-linejoin: round; stroke-width: 8;" /><path d="M717.2,525.95L718.37,524.78L719.53,524.78L724.2,527.11L726.53,529.45L730.03,530.61L732.36,534.11L733.53,537.61L735.86,543.44L737.03,544.61L739.36,549.27L741.69,550.44L747.52,552.77L751.02,553.94L753.35,556.27L756.85,558.6L760.35,560.93L762.68,562.1L765.01,562.1L766.18,563.27L768.51,564.43L770.85,567.93L772.01,571.43L773.18,574.93L774.34,579.59L775.51,583.09L777.84,590.09L779.01,593.59L780.17,600.58L781.34,601.75L782.51,604.08" fill="none" stroke="#000000" style="-webkit-tap-highlight-color: rgba(0, 0, 0, 0); stroke-linecap: round; stroke-linejoin: round; stroke-width: 8;" /><path d="M11.66,522.45L11.66,523.62L13.99,524.78L15.16,527.11L15.16,528.28L15.16,529.45L15.16,530.61L13.99,534.11" fill="none" stroke="#000000" style="-webkit-tap-highlight-color: rgba(0, 0, 0, 0); stroke-linecap: round; stroke-linejoin: round; stroke-width: 8;" /><path d="M9.33,541.11L10.5,539.94L11.66,539.94L16.33,539.94L19.83,539.94L26.82,538.78L33.82,537.61L40.82,536.44L48.98,536.44L55.98,537.61L62.97,539.94L73.47,542.27L79.3,543.44L81.63,544.61L90.96,549.27L94.46,552.77L96.79,556.27L100.29,560.93L102.62,563.27L106.12,564.43L111.95,566.76L113.12,567.93L120.12,570.26L122.45,571.43L125.95,571.43L130.61,571.43L134.11,570.26L139.94,569.1L144.61,567.93L149.27,566.76L153.94,565.6L162.1,565.6L170.26,562.1L174.93,559.77L179.59,558.6L184.26,557.43L187.76,556.27L192.42,555.1L197.08,551.6L198.25,551.6L201.75,548.1L202.92,544.61L205.25,542.27L206.41,539.94L208.75,538.78L211.08,537.61L214.58,536.44L219.24,535.28L221.57,535.28L226.24,535.28L232.07,535.28L235.57,535.28L239.07,535.28L242.57,535.28L244.9,535.28L246.06,535.28L249.56,535.28L251.9,535.28L256.56,535.28L258.89,535.28L261.22,536.44L263.56,536.44L265.89,536.44L268.22,538.78L269.39,538.78L271.72,539.94L271.72,541.11L274.05,542.27L275.22,543.44L276.38,545.77L278.72,546.94L279.88,549.27L281.05,550.44L284.55,551.6L288.05,552.77L289.21,552.77L293.88,553.94L297.38,553.94L300.87,552.77L304.37,552.77L306.71,551.6L309.04,551.6L313.7,550.44L316.03,550.44L317.2,550.44L321.87,550.44L325.36,549.27L327.7,549.27L331.2,546.94L333.53,546.94L335.86,545.77L339.36,544.61L342.86,543.44L345.19,542.27L347.52,539.94L348.69,538.78L352.19,536.44L354.52,532.94L355.69,530.61L359.18,528.28L362.68,524.78L365.01,523.62L368.51,521.28L372.01,521.28L375.51,520.12L380.17,520.12L382.51,520.12L383.67,521.28L386.01,523.62L388.34,524.78L389.5,527.11L390.67,527.11L390.67,529.45L390.67,530.61L389.5,532.94L389.5,535.28L388.34,538.78L388.34,539.94L387.17,543.44L387.17,546.94L386.01,549.27L386.01,551.6L387.17,553.94L387.17,555.1L388.34,557.43L389.5,558.6L391.84,558.6L394.17,558.6L397.67,558.6L400,558.6L403.5,558.6L409.33,558.6L411.66,559.77L413.99,558.6L419.83,558.6L422.16,557.43L427.99,556.27L430.32,556.27L430.32,555.1L430.32,553.94L431.49,553.94L431.49,552.77L433.82,551.6L436.15,549.27L438.48,546.94L439.65,543.44L443.15,539.94L446.65,536.44L450.15,530.61L452.48,527.11L454.81,524.78L459.48,516.62L464.14,513.12L467.64,509.62L471.14,507.29L475.8,503.79L481.63,501.46L483.97,500.29L490.96,497.96L493.29,496.79L494.46,495.63L497.96,494.46L500.29,494.46L502.62,493.29L503.79,493.29L507.29,494.46L510.79,495.63L513.12,497.96L515.45,497.96L515.45,499.13L516.62,500.29L516.62,502.62L517.78,503.79L517.78,506.12L517.78,507.29L517.78,509.62L518.95,513.12L518.95,514.29L520.12,515.45L521.28,515.45L524.78,516.62L528.28,516.62L531.78,516.62L532.94,516.62L539.94,515.45L543.44,514.29L546.94,511.95L552.77,510.79L557.43,508.45L562.1,506.12L569.1,502.62L571.43,501.46L579.59,499.13L586.59,496.79L591.25,495.63L594.75,493.29L598.25,492.13L600.58,492.13L604.08,490.96L609.91,489.8L612.24,488.63L618.08,487.46L619.24,487.46L626.24,487.46L629.74,487.46L633.24,487.46L636.73,487.46L639.07,487.46L642.57,488.63L644.9,489.8L646.06,490.96L647.23,492.13L649.56,493.29L654.23,495.63L656.56,497.96L660.06,502.62L662.39,506.12L663.56,508.45L667.06,513.12L668.22,515.45L669.39,517.78L670.55,520.12L671.72,523.62L672.89,527.11L674.05,530.61L675.22,532.94L676.38,535.28L678.72,538.78L679.88,538.78L679.88,539.94L681.05,539.94L681.05,541.11L682.22,542.27L683.38,542.27L684.55,543.44L686.88,545.77L690.38,548.1L693.88,551.6" fill="none" stroke="#000000" style="-webkit-tap-highlight-color: rgba(0, 0, 0, 0); stroke-linecap: round; stroke-linejoin: round; stroke-width: 8;" /><path d="M382.51,558.6L383.67,562.1L383.67,565.6L384.84,577.26L384.84,583.09L384.84,590.09L386.01,595.92L386.01,602.92L386.01,608.75L386.01,613.41L386.01,615.74" fill="none" stroke="#000000" style="-webkit-tap-highlight-color: rgba(0, 0, 0, 0); stroke-linecap: round; stroke-linejoin: round; stroke-width: 8;" /><path d="M144.61,583.09L143.44,583.09L142.27,583.09L142.27,584.26L142.27,587.76L142.27,593.59L141.11,600.58L141.11,602.92L141.11,606.41L141.11,608.75L142.27,608.75" fill="none" stroke="#000000" style="-webkit-tap-highlight-color: rgba(0, 0, 0, 0); stroke-linecap: round; stroke-linejoin: round; stroke-width: 8;" /><path d="M30.32,623.91L27.99,623.91L25.66,623.91L23.32,623.91L19.83,625.07L18.66,623.91L17.49,623.91L20.99,621.57L24.49,620.41L31.49,618.08L38.48,616.91L45.48,615.74L52.48,615.74L66.47,614.58L71.14,613.41L88.63,612.24L94.46,612.24L107.29,611.08L125.95,611.08L136.44,611.08L146.94,609.91L157.43,608.75L172.59,611.08L176.09,612.24L190.09,614.58L193.59,614.58L211.08,614.58L219.24,614.58L226.24,615.74L237.9,616.91L244.9,619.24L247.23,619.24L254.23,620.41L256.56,621.57L263.56,623.91L267.06,623.91L270.55,623.91L272.89,623.91L277.55,621.57L284.55,620.41L286.88,619.24L293.88,618.08L302.04,615.74L306.71,614.58L317.2,612.24L321.87,609.91L324.2,608.75L331.2,607.58L332.36,607.58L339.36,607.58L341.69,607.58L346.36,607.58L348.69,607.58L351.02,608.75L353.35,609.91L355.69,611.08L359.18,612.24L361.52,613.41L362.68,613.41L363.85,613.41L366.18,613.41" fill="none" stroke="#000000" style="-webkit-tap-highlight-color: rgba(0, 0, 0, 0); stroke-linecap: round; stroke-linejoin: round; stroke-width: 8;" /><path d="M355.69,616.91L358.02,615.74L362.68,613.41L363.85,613.41L369.68,611.08L370.85,611.08L380.17,609.91L386.01,608.75L390.67,607.58L396.5,607.58L401.17,607.58L407,607.58L412.83,607.58L422.16,608.75L424.49,608.75L438.48,608.75L443.15,608.75L450.15,608.75L455.98,607.58L461.81,607.58L469.97,607.58L472.3,606.41L480.47,606.41L482.8,606.41L490.96,605.25L499.13,602.92L504.96,600.58L510.79,599.42L516.62,597.08L523.62,597.08L529.45,595.92L537.61,594.75L539.94,594.75L549.27,595.92L552.77,595.92L557.43,597.08L560.93,597.08L563.27,597.08L565.6,598.25L567.93,599.42L570.26,600.58L571.43,601.75L574.93,602.92L578.43,602.92L581.92,602.92L585.42,602.92L590.09,602.92L593.59,601.75L598.25,600.58L602.92,599.42L607.58,599.42L615.74,598.25L625.07,595.92L632.07,594.75L637.9,594.75L644.9,594.75L650.73,593.59L656.56,593.59L663.56,593.59L667.06,593.59L674.05,593.59L676.38,593.59L682.22,592.42" fill="none" stroke="#000000" style="-webkit-tap-highlight-color: rgba(0, 0, 0, 0); stroke-linecap: round; stroke-linejoin: round; stroke-width: 8;" /><path d="M335.86,615.74L337.03,615.74L340.52,614.58L344.02,614.58L348.69,616.91L356.85,618.08L372.01,622.74L382.51,626.24L393,629.74L411.66,632.07L425.66,635.57L438.48,635.57L451.31,635.57L461.81,633.24L471.14,633.24L480.47,632.07L495.63,629.74L504.96,627.41L517.78,623.91L524.78,622.74L531.78,623.91L538.78,625.07L545.77,626.24L552.77,627.41L563.27,627.41L565.6,626.24L572.59,626.24L578.43,627.41L583.09,629.74L587.76,630.9L591.25,633.24L594.75,633.24L598.25,634.4L602.92,635.57L604.08,636.73L608.75,637.9L615.74,640.23L620.41,641.4L625.07,641.4L629.74,641.4L634.4,641.4L639.07,641.4L649.56,642.57L651.9,642.57L662.39,643.73L665.89,643.73L676.38,643.73L681.05,643.73L685.71,643.73L691.55,643.73L696.21,644.9L704.37,646.06L707.87,647.23L713.7,647.23L719.53,647.23L730.03,646.06L735.86,646.06L740.52,644.9L745.19,644.9L751.02,643.73L758.02,640.23L760.35,640.23L766.18,637.9L768.51,637.9L779.01,636.73L784.84,636.73L790.67,635.57L796.5,633.24L801.17,632.07L809.33,628.57L812.83,627.41L823.32,619.24L827.99,614.58L833.82,608.75L840.82,602.92L847.81,598.25L854.81,594.75" fill="none" stroke="#000000" style="-webkit-tap-highlight-color: rgba(0, 0, 0, 0); stroke-linecap: round; stroke-linejoin: round; stroke-width: 8;" /><path d="M1274.64,532.94L1278.13,534.11L1279.3,538.78L1279.3,542.27L1281.63,549.27L1285.13,553.94L1287.46,558.6L1289.8,562.1L1293.29,564.43L1297.96,567.93L1302.62,570.26L1310.79,572.59L1313.12,573.76L1321.28,577.26L1328.28,580.76L1332.94,583.09L1336.44,585.42L1339.94,586.59L1342.27,587.76L1344.61,590.09L1348.1,594.75L1348.1,595.92L1350.44,600.58L1352.77,604.08L1352.77,606.41L1353.94,609.91L1352.77,612.24L1352.77,614.58L1351.6,619.24L1350.44,625.07L1350.44,627.41L1349.27,633.24L1348.1,637.9L1346.94,640.23L1346.94,641.4L1345.77,642.57L1346.94,644.9L1346.94,646.06L1346.94,647.23L1346.94,648.4L1348.1,649.56L1348.1,650.73L1349.27,651.9L1350.44,651.9L1351.6,653.06L1353.94,653.06L1356.27,653.06L1357.43,653.06L1362.1,653.06L1366.76,651.9L1369.1,650.73" fill="none" stroke="#000000" style="-webkit-tap-highlight-color: rgba(0, 0, 0, 0); stroke-linecap: round; stroke-linejoin: round; stroke-width: 8;" /><path d="M1341.11,618.08L1341.11,619.24L1342.27,619.24L1349.27,618.08L1355.1,616.91L1362.1,615.74L1369.1,615.74L1378.43,614.58L1386.59,614.58L1400.58,614.58L1408.75,614.58L1416.91,612.24L1426.24,611.08L1437.9,609.91L1444.9,609.91L1450.73,611.08L1457.73,612.24L1462.39,612.24L1470.55,612.24L1475.22,612.24L1481.05,612.24L1483.38,613.41L1489.21,614.58L1492.71,614.58L1496.21,615.74L1500.87,616.91L1503.21,616.91L1509.04,618.08L1512.54,619.24L1516.03,620.41L1523.03,619.24L1526.53,619.24L1530.03,618.08L1532.36,615.74L1537.03,614.58L1541.69,613.41L1548.69,607.58L1551.02,606.41L1554.52,602.92" fill="none" stroke="#000000" style="-webkit-tap-highlight-color: rgba(0, 0, 0, 0); stroke-linecap: round; stroke-linejoin: round; stroke-width: 8;" /><path d="M1595.34,590.09L1596.5,590.09L1597.67,588.92L1596.5,588.92L1594.17,588.92L1590.67,588.92L1587.17,590.09L1581.34,591.25L1576.68,593.59L1572.01,597.08L1567.35,601.75L1562.68,606.41L1556.85,609.91L1547.52,612.24L1545.19,613.41L1539.36,614.58L1535.86,615.74" fill="none" stroke="#000000" style="-webkit-tap-highlight-color: rgba(0, 0, 0, 0); stroke-linecap: round; stroke-linejoin: round; stroke-width: 8;" /><path d="M1349.27,580.76L1346.94,579.59" fill="none" stroke="#000000" style="-webkit-tap-highlight-color: rgba(0, 0, 0, 0); stroke-linecap: round; stroke-linejoin: round; stroke-width: 8;" /><path d="M1318.95,577.26L1320.12,576.09L1324.78,574.93L1331.78,573.76L1338.78,573.76L1353.94,573.76L1365.6,573.76L1378.43,573.76L1392.42,573.76L1413.41,571.43L1425.07,571.43L1435.57,571.43L1446.06,570.26L1455.39,571.43L1469.39,573.76L1478.72,574.93L1489.21,574.93L1498.54,574.93L1512.54,576.09L1520.7,577.26L1530.03,578.43L1539.36,578.43L1547.52,578.43L1560.35,578.43L1565.01,578.43L1574.34,578.43" fill="none" stroke="#000000" style="-webkit-tap-highlight-color: rgba(0, 0, 0, 0); stroke-linecap: round; stroke-linejoin: round; stroke-width: 8;" /><path d="M1355.1,661.22L1359.77,656.56L1366.76,655.39L1374.93,655.39L1379.59,655.39L1393.59,655.39L1408.75,657.73L1419.24,658.89L1429.74,662.39L1439.07,665.89L1449.56,668.22L1460.06,672.89L1468.22,676.38L1475.22,677.55L1482.22,678.72L1489.21,682.22L1492.71,684.55L1496.21,686.88L1498.54,690.38L1502.04,691.55L1505.54,695.04L1506.71,697.38L1507.87,700.87L1510.2,704.37L1511.37,710.2L1512.54,712.54L1513.7,714.87L1513.7,716.03L1516.03,717.2L1517.2,723.03L1518.37,725.36L1518.37,728.86L1518.37,731.2L1518.37,735.86L1519.53,737.03L1519.53,739.36L1520.7,741.69L1521.87,745.19" fill="none" stroke="#000000" style="-webkit-tap-highlight-color: rgba(0, 0, 0, 0); stroke-linecap: round; stroke-linejoin: round; stroke-width: 8;" /><path d="M1243.15,817.49L1254.81,816.33L1265.31,813.99L1275.8,813.99L1287.46,813.99L1299.13,813.99L1313.12,811.66L1325.95,810.5L1339.94,810.5L1364.43,807L1374.93,805.83L1391.25,802.33L1398.25,800L1406.41,798.83L1414.58,796.5L1423.91,795.34L1430.9,793L1439.07,790.67L1447.23,787.17L1455.39,784.84L1471.72,782.51L1481.05,781.34L1488.05,780.17L1493.88,780.17L1499.71,777.84L1505.54,776.68" fill="none" stroke="#000000" style="-webkit-tap-highlight-color: rgba(0, 0, 0, 0); stroke-linecap: round; stroke-linejoin: round; stroke-width: 8;" /><path d="M1097.38,578.43L1098.54,577.26L1097.38,577.26L1096.21,576.09L1092.71,577.26L1086.88,579.59L1081.05,583.09L1074.05,586.59L1069.39,591.25L1060.06,595.92L1054.23,599.42L1049.56,604.08L1044.9,608.75L1040.23,613.41L1035.57,618.08L1032.07,621.57L1027.41,628.57L1026.24,629.74L1023.91,636.73L1020.41,643.73L1018.08,649.56L1016.91,654.23L1016.91,667.06L1016.91,674.05L1016.91,682.22L1016.91,685.71L1016.91,695.04L1016.91,705.54L1016.91,712.54L1016.91,720.7L1016.91,727.7L1016.91,735.86L1016.91,745.19L1016.91,756.85L1016.91,760.35L1016.91,772.01L1016.91,784.84L1016.91,793L1018.08,800L1019.24,807L1019.24,811.66L1019.24,816.33L1018.08,823.32L1018.08,824.49L1018.08,829.15L1016.91,832.65L1016.91,833.82L1016.91,836.15L1015.74,837.32" fill="none" stroke="#000000" style="-webkit-tap-highlight-color: rgba(0, 0, 0, 0); stroke-linecap: round; stroke-linejoin: round; stroke-width: 8;" /><path d="M1029.74,832.65L1028.57,831.49L1035.57,829.15L1040.23,827.99L1046.06,825.66L1054.23,824.49L1069.39,820.99L1076.38,819.83L1092.71,817.49L1109.04,816.33L1120.7,816.33L1131.2,816.33L1140.52,816.33L1149.85,818.66L1162.68,822.16L1172.01,822.16L1182.51,823.32L1191.84,823.32L1205.83,822.16L1224.49,822.16L1233.82,823.32L1244.31,824.49L1252.48,825.66" fill="none" stroke="#000000" style="-webkit-tap-highlight-color: rgba(0, 0, 0, 0); stroke-linecap: round; stroke-linejoin: round; stroke-width: 8;" /><path d="M1091.55,576.09L1090.38,576.09L1090.38,574.93L1086.88,573.76L1083.38,573.76L1078.72,574.93L1072.89,576.09L1063.56,580.76L1055.39,581.92L1047.23,583.09L1040.23,585.42L1033.24,586.59L1023.91,591.25L1018.08,595.92L1011.08,600.58L1005.25,605.25L997.08,611.08L993.59,614.58L988.92,618.08L985.42,622.74L979.59,628.57L972.59,633.24L966.76,639.07L960.93,642.57L956.27,647.23L946.94,655.39L943.44,661.22L938.78,667.06L934.11,671.72L930.61,676.38L927.11,679.88L923.62,682.22L921.28,684.55L920.12,686.88L915.45,695.04L911.95,697.38L910.79,699.71L908.45,703.21L907.29,706.71L906.12,711.37L904.96,716.03L903.79,720.7L902.62,725.36L900.29,734.69L900.29,740.52L900.29,746.36L900.29,752.19L900.29,758.02L900.29,763.85L901.46,770.85L901.46,777.84L902.62,783.67L903.79,793L903.79,797.67L904.96,802.33L904.96,807L904.96,810.5L903.79,815.16L903.79,818.66L903.79,822.16L903.79,825.66L902.62,832.65L901.46,836.15L899.13,843.15L897.96,846.65L896.79,853.64L896.79,859.48L896.79,862.97L897.96,866.47" fill="none" stroke="#000000" style="-webkit-tap-highlight-color: rgba(0, 0, 0, 0); stroke-linecap: round; stroke-linejoin: round; stroke-width: 8;" /><path d="M900.29,703.21L896.79,704.37L894.46,704.37L889.8,706.71L885.13,709.04L874.64,716.03L869.97,718.37L866.47,719.53L862.97,723.03L857.14,725.36L853.64,727.7L848.98,731.2L846.65,732.36L839.65,735.86L836.15,738.19L832.65,739.36L829.15,741.69L825.66,744.02L818.66,746.36L815.16,747.52L807,748.69L803.5,749.85L795.34,751.02L787.17,752.19L781.34,754.52L775.51,754.52L769.68,754.52L763.85,754.52L758.02,754.52L748.69,755.69L735.86,753.35L730.03,753.35L720.7,753.35L714.87,753.35L709.04,753.35L703.21,753.35L697.38,753.35L691.55,755.69L689.21,755.69L682.22,758.02L675.22,758.02L671.72,758.02L667.06,759.18L661.22,759.18L656.56,760.35L650.73,760.35L642.57,761.52L637.9,763.85L628.57,763.85L615.74,763.85L606.41,765.01L597.08,766.18L586.59,768.51L567.93,775.51L553.94,779.01L539.94,782.51L528.28,783.67L508.45,787.17L497.96,787.17L487.46,788.34L478.13,788.34L468.8,788.34L462.97,788.34L451.31,788.34L441.98,787.17L429.15,786.01L422.16,787.17L412.83,788.34L404.66,789.5L396.5,790.67L384.84,793L380.17,794.17L368.51,795.34L365.01,796.5L354.52,797.67L344.02,800L337.03,802.33L330.03,803.5L323.03,805.83L316.03,809.33L309.04,810.5L298.54,813.99L290.38,816.33L286.88,817.49L270.55,822.16L262.39,824.49L255.39,827.99L248.4,830.32L237.9,832.65L230.9,832.65L228.57,832.65L223.91,831.49L215.74,831.49L213.41,831.49L208.75,831.49L206.41,830.32L204.08,830.32L202.92,829.15L200.58,826.82L199.42,825.66L198.25,824.49L197.08,823.32L193.59,820.99L192.42,818.66L191.25,818.66L191.25,817.49L190.09,816.33L190.09,812.83L191.25,810.5L192.42,809.33L192.42,807L192.42,802.33L192.42,800L192.42,797.67L190.09,794.17L184.26,788.34L183.09,788.34L181.92,787.17L179.59,786.01L176.09,783.67L172.59,781.34L170.26,781.34L163.27,780.17L162.1,780.17L149.27,781.34L139.94,782.51L132.94,784.84L127.11,787.17L122.45,790.67L114.29,795.34L110.79,797.67L100.29,802.33L96.79,803.5L75.8,807L67.64,807L59.48,807L52.48,808.16L44.31,810.5L34.99,813.99L25.66,818.66L16.33,823.32L8.16,827.99" fill="none" stroke="#000000" style="-webkit-tap-highlight-color: rgba(0, 0, 0, 0); stroke-linecap: round; stroke-linejoin: round; stroke-width: 8;" /><path d="M45.48,734.69L43.15,737.03L41.98,738.19L43.15,740.52L44.31,740.52L47.81,740.52L50.15,739.36L61.81,734.69L68.8,734.69L76.97,732.36L86.3,730.03L96.79,728.86L113.12,723.03L120.12,721.87L137.61,717.2L143.44,716.03L157.43,713.7L170.26,713.7L179.59,712.54L186.59,712.54L194.75,712.54L200.58,713.7L205.25,713.7L214.58,714.87L222.74,716.03L228.57,716.03L232.07,716.03L235.57,716.03L239.07,717.2L242.57,719.53L246.06,721.87L250.73,723.03L258.89,728.86L262.39,728.86L263.56,730.03L267.06,732.36L271.72,734.69L276.38,737.03L279.88,740.52L285.71,742.86L293.88,745.19L300.87,746.36L306.71,746.36L311.37,746.36L318.37,746.36L323.03,745.19L327.7,744.02L335.86,742.86L340.52,742.86L349.85,741.69L353.35,741.69L365.01,741.69L368.51,741.69L372.01,741.69L377.84,742.86L380.17,742.86L388.34,745.19L391.84,745.19L397.67,745.19L400,745.19L408.16,742.86L412.83,741.69L418.66,741.69L422.16,742.86L426.82,744.02L430.32,744.02L434.99,745.19L440.82,744.02L443.15,744.02L450.15,740.52L454.81,739.36L459.48,738.19L464.14,735.86L467.64,734.69L471.14,732.36L475.8,730.03L482.8,726.53L485.13,725.36L494.46,720.7L499.13,719.53L502.62,717.2L506.12,714.87L509.62,712.54L511.95,710.2L514.29,707.87L516.62,703.21L517.78,702.04L520.12,697.38L523.62,693.88L527.11,691.55L530.61,689.21L537.61,683.38L541.11,682.22L548.1,678.72L550.44,677.55L557.43,672.89L559.77,671.72L569.1,668.22L573.76,667.06L579.59,665.89L584.26,665.89L592.42,665.89L598.25,664.72L599.42,664.72L604.08,663.56L613.41,664.72L618.08,664.72L621.57,665.89L625.07,665.89L628.57,665.89L632.07,665.89L634.4,667.06L636.73,667.06L640.23,668.22L643.73,670.55L644.9,670.55L647.23,672.89L648.4,674.05L649.56,676.38L651.9,678.72L653.06,682.22L653.06,683.38L655.39,688.05L655.39,691.55L655.39,695.04L655.39,697.38L654.23,699.71L654.23,702.04L653.06,705.54L653.06,710.2L653.06,711.37L651.9,714.87L651.9,717.2L651.9,723.03L653.06,725.36L654.23,728.86L655.39,730.03L656.56,732.36L660.06,738.19L661.22,739.36L664.72,742.86L667.06,744.02L672.89,746.36" fill="none" stroke="#000000" style="-webkit-tap-highlight-color: rgba(0, 0, 0, 0); stroke-linecap: round; stroke-linejoin: round; stroke-width: 8;" /><path d="M108.45,1005.25L107.29,1004.08L107.29,1001.75L106.12,1000.58L104.96,998.25L104.96,995.92L107.29,993.59L110.79,988.92L115.45,984.26L122.45,978.43L139.94,964.43L149.27,956.27L171.43,938.78L184.26,930.61L195.92,924.78L220.41,911.95L233.24,906.12L246.06,900.29L257.73,894.46L268.22,889.8L279.88,885.13L290.38,881.63L299.71,876.97L310.2,872.3L319.53,867.64L328.86,864.14L339.36,861.81L349.85,859.48L360.35,858.31L370.85,857.14L390.67,854.81L398.83,854.81L407,855.98L413.99,857.14L420.99,859.48L427.99,859.48L434.99,859.48L440.82,858.31L446.65,857.14L459.48,858.31L466.47,858.31L473.47,859.48L481.63,860.64L488.63,861.81L496.79,861.81L503.79,860.64L510.79,859.48L518.95,859.48L531.78,857.14L538.78,854.81L545.77,853.64L550.44,851.31L556.27,850.15L559.77,847.81L567.93,845.48L572.59,844.31L578.43,843.15L585.42,843.15L594.75,844.31L607.58,845.48L615.74,845.48L622.74,846.65L635.57,846.65L640.23,846.65L650.73,847.81L662.39,848.98L669.39,851.31L675.22,851.31L682.22,851.31L689.21,851.31L696.21,852.48L702.04,852.48L709.04,852.48L716.03,853.64L728.86,852.48L735.86,852.48L741.69,851.31L748.69,851.31L754.52,852.48L761.52,852.48L768.51,853.64L776.68,852.48L783.67,852.48L793,851.31L805.83,852.48L812.83,852.48L818.66,853.64L824.49,854.81L831.49,855.98L836.15,855.98L841.98,858.31L848.98,859.48L851.31,860.64L861.81,864.14L867.64,865.31L871.14,866.47L875.8,867.64L880.47,868.8L885.13,869.97L888.63,869.97L894.46,871.14L899.13,872.3L902.62,873.47L907.29,874.64L911.95,874.64L917.78,874.64L922.45,874.64L931.78,873.47L935.28,873.47L944.61,872.3L948.1,872.3L962.1,869.97L967.93,868.8L974.93,866.47L979.59,865.31L985.42,862.97L990.09,861.81L994.75,859.48L1002.92,857.14L1012.24,854.81L1016.91,853.64L1022.74,852.48L1028.57,851.31L1034.4,850.15L1040.23,847.81L1042.57,846.65L1048.4,843.15L1050.73,841.98L1057.73,838.48L1060.06,837.32L1062.39,836.15L1064.72,834.99L1069.39,832.65L1075.22,832.65" fill="none" stroke="#000000" style="-webkit-tap-highlight-color: rgba(0, 0, 0, 0); stroke-linecap: round; stroke-linejoin: round; stroke-width: 8;" /><path d="M1301.46,825.66L1302.62,825.66L1306.12,827.99L1314.29,827.99L1324.78,827.99L1336.44,830.32L1356.27,832.65L1371.43,833.82L1385.42,834.99L1399.42,838.48L1413.41,840.82L1430.9,841.98L1440.23,844.31L1446.06,845.48L1454.23,846.65L1469.39,851.31L1475.22,853.64L1478.72,855.98L1483.38,857.14L1484.55,859.48L1485.71,861.81L1486.88,864.14L1488.05,866.47L1488.05,868.8L1488.05,875.8L1488.05,876.97L1489.21,880.47L1489.21,882.8L1489.21,886.3L1490.38,888.63L1491.55,892.13L1493.88,894.46L1495.04,896.79L1498.54,901.46L1500.87,903.79L1504.37,904.96L1506.71,907.29L1509.04,908.45L1511.37,910.79L1513.7,911.95L1516.03,915.45L1518.37,917.78L1520.7,922.45L1521.87,924.78L1523.03,927.11L1524.2,929.45L1525.36,931.78L1527.7,934.11L1528.86,936.44L1528.86,938.78L1530.03,942.27L1531.2,948.1L1531.2,950.44L1532.36,951.6L1532.36,953.94L1532.36,955.1L1531.2,959.77L1531.2,962.1L1531.2,965.6L1531.2,967.93L1532.36,970.26L1532.36,973.76L1533.53,977.26L1533.53,980.76L1534.69,984.26L1535.86,987.76L1535.86,991.25L1538.19,999.42L1539.36,1002.92L1540.52,1007.58L1541.69,1011.08L1542.86,1014.58L1544.02,1016.91L1544.02,1018.08L1542.86,1019.24" fill="none" stroke="#000000" style="-webkit-tap-highlight-color: rgba(0, 0, 0, 0); stroke-linecap: round; stroke-linejoin: round; stroke-width: 8;" /><path d="M1505.54,773.18L1510.2,774.34L1513.7,775.51L1518.37,776.68L1523.03,775.51L1528.86,775.51L1542.86,775.51L1549.85,775.51L1553.35,775.51L1560.35,775.51L1567.35,775.51L1574.34,776.68L1580.17,779.01L1587.17,781.34L1594.17,786.01L1600,788.34" fill="none" stroke="#000000" style="-webkit-tap-highlight-color: rgba(0, 0, 0, 0); stroke-linecap: round; stroke-linejoin: round; stroke-width: 8;" /><path d="M1124.2,373.18L1125.36,372.01L1126.53,376.68L1127.7,381.34L1128.86,386.01L1128.86,389.5L1130.03,396.5L1130.03,400L1131.2,403.5L1132.36,405.83L1133.53,401.17" fill="none" stroke="#000000" style="-webkit-tap-highlight-color: rgba(0, 0, 0, 0); stroke-linecap: round; stroke-linejoin: round; stroke-width: 8;" /><path d="M1134.69,377.84L1137.03,377.84L1140.52,375.51L1142.86,374.34L1145.19,374.34L1147.52,374.34L1149.85,374.34L1151.02,374.34L1152.19,375.51L1153.35,377.84L1154.52,379.01L1154.52,382.51L1153.35,386.01L1153.35,389.5L1152.19,393L1152.19,396.5L1151.02,398.83L1149.85,401.17L1148.69,401.17" fill="none" stroke="#000000" style="-webkit-tap-highlight-color: rgba(0, 0, 0, 0); stroke-linecap: round; stroke-linejoin: round; stroke-width: 8;" /><path d="M1132.36,405.83L1133.53,405.83L1134.69,407L1138.19,407L1141.69,405.83" fill="none" stroke="#000000" style="-webkit-tap-highlight-color: rgba(0, 0, 0, 0); stroke-linecap: round; stroke-linejoin: round; stroke-width: 8;" /><path d="M1139.36,671.72L1140.52,674.05L1141.69,677.55L1141.69,681.05L1142.86,685.71L1142.86,689.21L1144.02,691.55L1148.69,692.71L1152.19,691.55L1155.69,690.38L1156.85,689.21L1160.35,686.88" fill="none" stroke="#000000" style="-webkit-tap-highlight-color: rgba(0, 0, 0, 0); stroke-linecap: round; stroke-linejoin: round; stroke-width: 8;" /><path d="M1140.52,669.39L1144.02,669.39L1147.52,670.55L1152.19,670.55L1155.69,670.55L1160.35,670.55L1161.52,670.55L1162.68,672.89L1162.68,679.88L1161.52,685.71L1160.35,688.05" fill="none" stroke="#000000" style="-webkit-tap-highlight-color: rgba(0, 0, 0, 0); stroke-linecap: round; stroke-linejoin: round; stroke-width: 8;" /></svg>