<?xml version="1.0" encoding="utf-8" ?>
<svg baseProfile="full" height="1542" version="1.1" width="2736" xmlns="http://www.w3.org/2000/svg" xmlns:ev="http://www.w3.org/2001/xml-events" xmlns:xlink="http://www.w3.org/1999/xlink"><defs /><path d="M739.59,621.16L734,626L730,625L730,625L731,633L730,636L730,641L731,644L733,648L740,654L740,662L743,664L749,670L754,675L756,679L759,686L763,693L764,689L769,701L769,701L769,707L773,719L773,714L773,723L778,727L778,742L777,729L779,747L783,746L782,752L783,757L783,761L788,768L788,769L793,784L788,776L793,784L800,788L800,800L803,794L807,804L807,804L812,809L817,820L812,817L823,822L822,830L827,839L822,834L826,840L825,849L831,846L831,846L834,862L836,863L835,866L841,877L841,877L841,882L841,887L848,902L842,892L846,905L846,903L851,911L851,916L851,922L851,926L859,934L856,936L860,944L860,941L865,955L862,947L867,960L865,969L870,973L870,973L866,994L879,989L875,999L875,995L879,1011L875,999L880,1012L880,1015L885,1022L885,1026L885,1031L883,1033L889,1047L889,1045L890,1050L894,1053L894,1056L899,1057L900,1061" fill="none" stroke="#000000" style="-webkit-tap-highlight-color: rgba(0, 0, 0, 0); stroke-linecap: round; stroke-linejoin: round; stroke-width: 13;" /><path d="M904,1061L906,1065L908,1065L909,1072L910,1073L914,1075L914,1075L907,1096L914,1075L907,1096L913,1105L913,1105L918,1115L914,1106L917,1109L918,1105" fill="none" stroke="#000000" style="-webkit-tap-highlight-color: rgba(0, 0, 0, 0); stroke-linecap: round; stroke-linejoin: round; stroke-width: 13;" /><path d="M778.26,625.99L768,631L766,630L764,630L759,629L759,636L759,644L759,639L764,657L759,653L764,661L769,664L769,673L773,673L777,680L783,683L788,688L787,695L793,703L787,695L798,708L804,711L804,711L807,723L801,736L801,736L814,744L814,744L817,745L821,745L822,746L823,747L823,750L823,750L836,757L836,761L846,766L841,766L841,761L846,771L851,776L851,771L841,791L856,786L856,790L856,795L860,800L860,805L860,819L860,810L856,834L857,835L870,834L859,851L875,848L880,858L880,863L875,884L885,868L879,892L894,887L899,897L899,902L894,892L899,906L904,916L898,931L897,930L899,933L914,945L901,940L914,940L918,955L914,950L909,974L918,960L914,976L919,978L922,980L923,985" fill="none" stroke="#000000" style="-webkit-tap-highlight-color: rgba(0, 0, 0, 0); stroke-linecap: round; stroke-linejoin: round; stroke-width: 13;" /><path d="M923,993L923,999L925,990L924,1003L925,1007L928,1025L924,1012L933,1025L933,1025L938,1026L933,1025L938,1029L940,1029L943,1049L947,1049L952,1050L947,1049L952,1055L952,1058L952,1058L957,1071L957,1076" fill="none" stroke="#000000" style="-webkit-tap-highlight-color: rgba(0, 0, 0, 0); stroke-linecap: round; stroke-linejoin: round; stroke-width: 13;" /><path d="M391.55,727.51L387,723L388,724L382,723L377,719L373,718L374,723L369,713L374,723L377,727L367,742L372,752L387,781L402,780L377,766L404,794L412,802L422,824L415,809L419,816L426,833L427,834L429,839L432,845L440,858L434,849L437,854L443,865L447,876L445,871L450,878L453,883L454,886L459,897L458,892L465,901L464,911L469,915L470,921L479,934L476,925L480,936L479,930" fill="none" stroke="#000000" style="-webkit-tap-highlight-color: rgba(0, 0, 0, 0); stroke-linecap: round; stroke-linejoin: round; stroke-width: 13;" /><path d="M488,950L493,960L493,955L480,936L493,964L498,979L498,974L498,969L503,984L503,998L503,993L503,989L508,1003L516,1016L515,1017L515,1017L517,1017L522,1032L522,1032" fill="none" stroke="#000000" style="-webkit-tap-highlight-color: rgba(0, 0, 0, 0); stroke-linecap: round; stroke-linejoin: round; stroke-width: 13;" /><path d="M256.2,722.67" fill="none" stroke="#000000" style="-webkit-tap-highlight-color: rgba(0, 0, 0, 0); stroke-linecap: round; stroke-linejoin: round; stroke-width: 13;" /><path d="M531,1042L521,1034L532,1047L532,1047L533,1050L536,1051L537,1056L536,1051L532,1041L532,1047L532,1037" fill="none" stroke="#000000" style="-webkit-tap-highlight-color: rgba(0, 0, 0, 0); stroke-linecap: round; stroke-linejoin: round; stroke-width: 13;" /><path d="M257,721L251,707L257,721L251,707L256,707L257,721L261,720L265,733L259,721L266,742L275,752L285,773L280,761L295,789L295,800L308,803L311,823L319,834L316,828L323,848L329,846L327,856L334,863L336,866L335,870L344,884L348,884L352,891L352,891L358,908L358,908L357,911L363,931L377,921L375,935L373,934L377,938L377,938L379,947L379,948L379,948L392,960L392,974L392,964L396,987L392,969L396,987L396,989L396,996L397,992L401,995L395,1021L394,997L414,1023L411,1024L409,1024L417,1028L416,1029L421,1042L422,1040L420,1044" fill="none" stroke="#000000" style="-webkit-tap-highlight-color: rgba(0, 0, 0, 0); stroke-linecap: round; stroke-linejoin: round; stroke-width: 13;" /><path d="M422,1051L418,1056L426,1065L425,1060L432,1070L434,1079L435,1083L430,1078L435,1080L437,1095L441,1084L440,1099L442,1089L457,1116L445,1100L447,1100L445,1100L457,1116L457,1116L457,1116L459,1116" fill="none" stroke="#000000" style="-webkit-tap-highlight-color: rgba(0, 0, 0, 0); stroke-linecap: round; stroke-linejoin: round; stroke-width: 13;" /><path d="M1029.63,974.04L1025,974L1019,961L1019,961L1013,959L1002,962L1013,959L1019,961L1019,961L1044,969L1054,969L1075,979L1078,964L1093,974L1106,966L1106,966L1112,969L1109,968L1126,964L1136,964L1141,964L1150,964L1155,964L1160,964L1165,964L1170,964L1175,964L1188,967L1188,967L1204,965L1236,950L1213,965L1228,950L1247,948L1260,949L1283,965L1263,949L1283,965L1310,959L1298,953L1300,955L1314,959L1324,947L1339,960L1349,960L1334,946" fill="none" stroke="#000000" style="-webkit-tap-highlight-color: rgba(0, 0, 0, 0); stroke-linecap: round; stroke-linejoin: round; stroke-width: 13;" /><path d="M1353,960L1367,965L1373,964L1368,963L1383,964L1385,962L1397,963L1401,964L1404,969L1406,964L1425,960L1425,960L1425,960L1425,960" fill="none" stroke="#000000" style="-webkit-tap-highlight-color: rgba(0, 0, 0, 0); stroke-linecap: round; stroke-linejoin: round; stroke-width: 13;" /><path d="M1029.63,964.37L1034,960L1020,958L1039,960L1049,964L1059,964L1068,964L1093,974L1106,966L1107,946L1112,946L1126,942L1120,943L1130,941L1130,941L1150,940L1131,939L1150,925L1155,925L1156,925L1163,924L1163,924L1173,922L1189,920L1179,920L1199,921L1201,921L1205,920L1222,918L1228,917L1234,918L1237,919L1239,918L1252,917L1247,917L1259,918L1265,920L1271,922L1276,922L1281,922L1286,921L1295,922L1295,922L1300,922L1305,921L1310,921L1315,920L1322,919L1320,919L1334,931L1339,931L1354,920L1354,920L1365,923L1380,929L1380,929L1390,933L1392,935L1395,937L1402,939L1401,938L1407,939L1412,945L1416,950L1418,947L1429,953L1432,952L1442,950L1445,949L1450,950L1455,949L1460,950L1471,950L1465,951L1472,948L1477,947L1486,949" fill="none" stroke="#000000" style="-webkit-tap-highlight-color: rgba(0, 0, 0, 0); stroke-linecap: round; stroke-linejoin: round; stroke-width: 13;" /><path d="M1488,949L1491,948L1504,953L1504,953L1484,974L1489,969L1484,969L1474.35,983.7L1479,974L1470,979L1474,979L1457,987L1457,987L1455,984L1455,984L1456,987L1463,999L1463,999L1477,997L1479,990" fill="none" stroke="#000000" style="-webkit-tap-highlight-color: rgba(0, 0, 0, 0); stroke-linecap: round; stroke-linejoin: round; stroke-width: 13;" /><path d="M1458,1003L1456,1018L1450,1032L1456,1009L1508.18,964.37L1450,1046L1445,1061L1444,1090L1443,1076L1441,1105L1441,1114L1437,1118L1436,1129L1434,1135L1440,1142L1436,1137L1440,1139L1445,1123" fill="none" stroke="#000000" style="-webkit-tap-highlight-color: rgba(0, 0, 0, 0); stroke-linecap: round; stroke-linejoin: round; stroke-width: 13;" /><path d="M1508,964" fill="none" stroke="#000000" style="-webkit-tap-highlight-color: rgba(0, 0, 0, 0); stroke-linecap: round; stroke-linejoin: round; stroke-width: 13;" /><path d="M1455,1094L1509,975L1508,984L1501,1040L1508,1003L1507,1030L1513,1071L1529,1108L1529,1109L1526,1088L1535,1119L1537,1123L1537,1120L1534,1128" fill="none" stroke="#000000" style="-webkit-tap-highlight-color: rgba(0, 0, 0, 0); stroke-linecap: round; stroke-linejoin: round; stroke-width: 13;" /><path d="M0,635.66" fill="none" stroke="#000000" style="-webkit-tap-highlight-color: rgba(0, 0, 0, 0); stroke-linecap: round; stroke-linejoin: round; stroke-width: 13;" /><path d="M0,621.16L1,616L8,618L11,617L11,617L19,618L14,617L24,619L28,619L34,616L39,616L40,614L42,609L42,609L46,600L47,595L44,603L51,590L53,587L53,587L53,587L53,573L53,568L53,554L53,554L55,554L55,554L63,556L68,556L68,544L55,554L55,554L58,539L53,539L38,549L48,534L44,529L48,524L58,510L53,515L73,512L73,495L82,491L92,486L97,481L102,481L106,481L111,481L116,481L121,481L131,476L121,476L126,476L135,471L148,457L148,457L149,456L148,457L149,453L154,455L148,452L148,452L160,437L177,433L164,437L179,428L179,428L184,424L197,423L187,422L200,420L220,413L202,417L203,420L222,412L232,411L237,412L241,413L247,413L252,414L256,414L256,414L262,417L271,404L276,404L280,404L285,404L300,404L295,404L305,404L290,404L309,404L327,413L324,399L314,404L329,399L353,394L338,399L348,394L363,389L377,389L367,389L382,389L387,384L401,379L398,390L398,390L413,385L415,383L422,383L416,383L421,370L425,370L439,374L430,384L439,374L451,376L467,389L447,386L469,389L475,379L483,383L481,382L486,385L488,386L493,388L493,393L496,398L496,398L500,408L508,409L513,413L518,421L520,422L537,428L537,428L521,424L541,417L546,417L554,413L551,417L564,414L566,399L570,398L580,395L575,395L580,395L573,386L570,375L573,386L566,375L561,370L556,365L551,365L551,360L551,355L556,355L561,350L566,346L570,341L582,338L585,330L582,338L583,329L583,329L595,329L590,329L598,329L608,326L609,326L614,324L614,324L633,318L627,320L628,319L646,315L643,302L657,299L657,299L657,299L657,299L667,297L661,299L672,301L672,301L686,312L681,309L681,309L677,326L677,331L686,336L682,331L686,341L691,350L691,346L696,355L696,350L701,360L701,365L714,357L706,370L711,375L711,379L711,384L711,389L721,406L711,394L721,406L718,410L718,412L718,410L719,423L721,408L735,418L740,423L744,433L744,428L744,447L744,437L749,452L749,462L749,457L754,462" fill="none" stroke="#000000" style="-webkit-tap-highlight-color: rgba(0, 0, 0, 0); stroke-linecap: round; stroke-linejoin: round; stroke-width: 13;" /><path d="M759,462L764,462L769,466L769,462L778,466L773,466L788,466L783,466L798,466L807,462L802,462L812,457L827,457L836,457L822,457L831,457L841.1,490.64L846,457L851,457L841,457L860,462L865,462L885,465L885,465L870,462L894,471L891,468L899,471L904,470L914,462L909,461L911,464L909,471L904,462L853,478L851,479L845,487L856,478L856,478L865,476L870,476L885,462L914,458L904,462L894,462L923,459L933,461L936,461L939,462L955,467L951,466L955,467L967,457L972,471L981,473L972,471L988,472L991,473L996,473L1002,476L1005,475L1010,475L1020,479L1020,479L1024,488L1031,490L1039,491L1030,490L1045,494L1059,499L1064,499L1049,496L1071,506L1083,510L1102,514L1092,513L1106,511L1109,516L1109,516L1121,515L1126,515L1143,530L1131,515L1150,523L1150,523L1152,520L1156,524L1160,523L1165,532L1175,523L1166,533L1184,524L1179,524L1197,545L1194,545L1199,547L1194,545L1218,556L1213,556L1221,557L1204,553L1240,555L1242,553L1225,558L1240,555L1248,552L1255,553L1252,552L1262,552L1265,553L1274,553L1281,550L1271,552L1286,553L1297,562L1285,558L1291,558L1310,565L1305,564L1300,563L1312,566L1312,566L1330,571L1334,571L1335,571L1346,556L1359,557L1349,558L1353,559L1363,557L1378,558L1373,558L1367,558L1380,558L1396,565L1392,564L1388,564L1402,568L1409,564L1412,564L1421,563L1417,562L1426,563L1443,561L1446,567L1450,568L1431,563L1431,563L1455,568L1446,562L1460,570L1465,569L1469,572L1465,572L1480,575L1474,572L1494,576L1518,581L1491,576L1527,581L1499,578L1541,587L1508,582L1552,593L1577,594L1566,592L1585,596L1597,602L1610,601L1619,603L1624,604L1631,608L1638,608L1646,609L1646,609L1643,608L1665,619L1665,619L1673,620L1665,619L1674,620L1679,622L1697,616L1682,623L1683,624L1702,616L1716,621L1721,621L1695,629L1731,621L1736,634L1753,629L1737,634L1754,626L1754,626L1767,627L1760,627L1774,626L1764,627L1782,626L1801,644L1779,626L1782,626L1804,645L1802,644L1801,644L1804,645L1818,640L1822,640L1837,653L1837,653L1839,654L1847,656L1856,658L1849,656L1861,660L1875,660L1872,659L1879,665L1882,665L1889,675L1905,665L1889,675L1920,674L1919,675L1920,674L1920,674L1938,669L1934,669L1948,674L1933,684L1953,674L1960,687L1965,686L1966,686L1974,690L1966,686L1975,691L1970,689L1977,693L1992,689L1977,693L1996,689L2010,704L2010,704L2004,703L2001,689L2027,703L2010,704L2027,703L2027,703L2030,704L2039,705L2045,707L2034,704L2052,708L2071,705L2055,710L2047,707L2071,705L2075,706L2079,707L2083,708L2088,707L2093,708L2093,713L2105,712L2109,713L2109,716L2109,716L2119,718L2122,717L2126,718L2132,721L2137,722L2141,724L2146,725L2152,718L2149,726L2168,723L2168,723L2168,723L2169,726L2186,725L2186,725L2185,713L2190,713L2190,708L2192,689L2190,703L2192,689L2192,689L2172,688L2166,684L2192,688L2175,669L2170,655L2170,660L2170,650L2175,645L2195,640L2190,640L2199,640L2209,640" fill="none" stroke="#000000" style="-webkit-tap-highlight-color: rgba(0, 0, 0, 0); stroke-linecap: round; stroke-linejoin: round; stroke-width: 13;" /><path d="M2219,645L2214,640L2185,640L2180,645L2233,650L2224,645L2238,655L2243,655L2249,670L2251,669L2252,669L2262,669L2260,669L2267,668L2277,670L2282,670L2286,670L2289,671L2296,674L2311,665L2315,660L2298,675L2320,660L2332,667L2332,667L2340,665L2338,666L2348,665L2349,662L2348,662L2354,665L2357,669L2359,679L2357,669L2357,674L2361,684L2360,689L2359,694L2359,698L2359,698L2364,718L2364,713L2364,723L2369,728L2364,742L2369,732L2369,737L2364,747L2364,770L2364,752L2364,757L2364,770L2366,776L2367,781L2364,771L2366,776L2388,786L2383,781L2393,786L2388,781L2402,790L2412,790L2407,790L2398,786L2422,790L2417,790L2427,790L2431,790L2436,790L2441,790L2445,802L2449,803L2449,803L2453,807L2470,800L2455,809L2475,800L2480,800L2485,800L2489,795L2494,795L2499,795L2504,795L2509,790L2514,790L2518,790L2523,790L2528,790L2533,786L2543,786L2538,786L2547,781L2552,781L2557,781L2562,781L2572,781L2576,781L2591,781L2586,781L2581,781L2601,781L2605,781L2610,781L2615,781L2625,781L2630,781L2634,781L2649,776L2644,776L2659,776L2663,776L2683,776L2673,776L2692,776L2702,781L2717,786L2712,781L2731,790L2736,790L2726,786L2731,790L2731,786L2736,790" fill="none" stroke="#000000" style="-webkit-tap-highlight-color: rgba(0, 0, 0, 0); stroke-linecap: round; stroke-linejoin: round; stroke-width: 13;" /><path d="M2204.27,655L2204,660L2199,665L2199,669L2199,674L2199,687L2199,687L2199,687L2192,689L2195,708L2195,713L2191,725L2193,726L2194,728L2200,737L2199,749L2202,752L2202,776L2199,776L2213,795L2202,778L2213,800L2212,797L2210,804L2216,816L2216,819L2216,824L2216,824L2217,834L2215,840L2215,843L2214,848L2212,852L2210,874" fill="none" stroke="#000000" style="-webkit-tap-highlight-color: rgba(0, 0, 0, 0); stroke-linecap: round; stroke-linejoin: round; stroke-width: 13;" /><path d="M2210,874L2218,891L2214,898L2214,912L2208,916L2202,931L2204,934L2199,950L2199,960L2199,955L2199,955L2204,950L2204,934" fill="none" stroke="#000000" style="-webkit-tap-highlight-color: rgba(0, 0, 0, 0); stroke-linecap: round; stroke-linejoin: round; stroke-width: 13;" /><path d="M2320.28,664.66L2323,672L2311,665L2309,677L2306,678L2301,678L2301,678L2301,678L2301,703L2296,737L2296,718L2291,757L2291,771L2291,790L2291,805L2291,819L2282,831L2296,844" fill="none" stroke="#000000" style="-webkit-tap-highlight-color: rgba(0, 0, 0, 0); stroke-linecap: round; stroke-linejoin: round; stroke-width: 13;" /><path d="M2296,858L2296,868L2282,885L2282,887L2282,888L2290,902L2290,902L2291,904L2293,916L2293,916L2293,916L2298,919" fill="none" stroke="#000000" style="-webkit-tap-highlight-color: rgba(0, 0, 0, 0); stroke-linecap: round; stroke-linejoin: round; stroke-width: 13;" /><path d="M2455.63,795.18L2456,790L2451,790L2446,790L2445,802L2442,802L2442,802L2436,819L2431,829L2433,843L2433,843L2422,858L2422,868L2422,873L2422,882L2417,892L2417,887L2417,902L2412,906L2412,911L2412,916L2407,916L2407,921L2398,921L2402,921L2393,921L2377,924L2375,911L2375,911L2373,909L2373,909L2354,902L2341,911L2341,911L2340,911L2330,905L2330,905L2326,905L2305,916L2303,915L2293,904L2293,904L2291,904L2286,903L2275,903L2286,903L2264,924L2264,924L2255,912L2257,926L2253,926L2242,913L2228,926L2240,913L2215,915L2207,931L2199,933L2196,933L2175,932" fill="none" stroke="#000000" style="-webkit-tap-highlight-color: rgba(0, 0, 0, 0); stroke-linecap: round; stroke-linejoin: round; stroke-width: 13;" /><path d="M2174,933L2172,933L2166,932L2161,932L2153,936L2137,940L2147,936L2119,942L2124,940L2112,945L2108,945L2093,952L2104,948L2084,960L2074,966L2064,967L2054,969L2042,971L2046,973L2034,979L2040,988L2040,988L2045,989" fill="none" stroke="#000000" style="-webkit-tap-highlight-color: rgba(0, 0, 0, 0); stroke-linecap: round; stroke-linejoin: round; stroke-width: 13;" /><path d="M2001.24,848.35L2005,856L2002,861L2001,863L2001,872L1998,874L2001,892L2011,907L2011,911L2008,927L2008,936L2008,926L2006,945L2005,950L2003,968L2004,959L2002,979L2000,999L1998,1008L1998,991L1997,1013" fill="none" stroke="#000000" style="-webkit-tap-highlight-color: rgba(0, 0, 0, 0); stroke-linecap: round; stroke-linejoin: round; stroke-width: 13;" /><path d="M1995,1018L1995,1027L1996,1022L1993,1038L1987,1045L1989,1049L1987,1047L1992,1051L1987,1038" fill="none" stroke="#000000" style="-webkit-tap-highlight-color: rgba(0, 0, 0, 0); stroke-linecap: round; stroke-linejoin: round; stroke-width: 13;" /><path d="M1986.74,853.19L1985,847L1985,847L1963,859L1976,868L1972,873L1968,882L1963,890L1967,906L1963,931L1963,921L1963,940L1963,950L1963,955L1963,964L1952,979L1951,974L1951,983L1953,993L1953,993L1938,1003L1939,1011" fill="none" stroke="#000000" style="-webkit-tap-highlight-color: rgba(0, 0, 0, 0); stroke-linecap: round; stroke-linejoin: round; stroke-width: 13;" /><path d="M1938,1018L1939,1025L1939,1024L1939,1025L1953,1022L1964,1007L1953,1027L1961,1004" fill="none" stroke="#000000" style="-webkit-tap-highlight-color: rgba(0, 0, 0, 0); stroke-linecap: round; stroke-linejoin: round; stroke-width: 13;" /><path d="M1996.41,853.19L1996,840L1989,847L2000,835L2000,835L1996,840L1991,840L1987,847L1987,847L1987,864L1987,864L1992,875L1983,869" fill="none" stroke="#000000" style="-webkit-tap-highlight-color: rgba(0, 0, 0, 0); stroke-linecap: round; stroke-linejoin: round; stroke-width: 13;" /><path d="M2001,872L2005,873L2021,857L2021,870L2025,856L2022,842L2018,837L2000,835L1991,840L2000,835L2035.08,853.19L1987,847L1987,847L2030,856L2025,842L2027,867L2025,856L2024,871L2032,885L2030,886L2038,914L2035,921L2039,938L2037,945L2036,960L2033,974" fill="none" stroke="#000000" style="-webkit-tap-highlight-color: rgba(0, 0, 0, 0); stroke-linecap: round; stroke-linejoin: round; stroke-width: 13;" /><path d="M2035,1000L2030,1003L2033,986L2026,1013L2025,1018L2025,1018L2025,1020L2025,1018" fill="none" stroke="#000000" style="-webkit-tap-highlight-color: rgba(0, 0, 0, 0); stroke-linecap: round; stroke-linejoin: round; stroke-width: 13;" /><path d="M1749.88,1022.37L1744,1021L1755,1025L1763,1032" fill="none" stroke="#000000" style="-webkit-tap-highlight-color: rgba(0, 0, 0, 0); stroke-linecap: round; stroke-linejoin: round; stroke-width: 13;" /><path d="M1771,1035L1774,1042L1774,1036L1749.88,998.2L1755,1001L1751,1004L1764,1003L1771,1005L1785,1010L1789,1013L1793,1014L1792,1003L1789,993L1782,989L1779,984L1774,984" fill="none" stroke="#000000" style="-webkit-tap-highlight-color: rgba(0, 0, 0, 0); stroke-linecap: round; stroke-linejoin: round; stroke-width: 13;" /><path d="M1778.88,964.37L1777,989L1789,993L1793,993L1797,987" fill="none" stroke="#000000" style="-webkit-tap-highlight-color: rgba(0, 0, 0, 0); stroke-linecap: round; stroke-linejoin: round; stroke-width: 13;" /><path d="M1786,968L1780,969L1793,974L1803,971L1798.22,940.2L1813,973L1814,969L1805,945" fill="none" stroke="#000000" style="-webkit-tap-highlight-color: rgba(0, 0, 0, 0); stroke-linecap: round; stroke-linejoin: round; stroke-width: 13;" /><path d="M1803,950L1808,949L1808,955L1813,960L1819,960L1856.23,954.7L1856,959L1861,959L1868,957L1861,959L1868,957L1871,957L1873,964L1871,957L1871,974L1870,984L1863,1023L1867,1008L1869,993" fill="none" stroke="#000000" style="-webkit-tap-highlight-color: rgba(0, 0, 0, 0); stroke-linecap: round; stroke-linejoin: round; stroke-width: 13;" /><path d="M1859,1049L1858,1056L1863,1032L1855,1063L1849,1071L1852,1076L1855,1072L1856,1076L1817.55,954.7L1819,960L1818,962L1825,967L1829,965" fill="none" stroke="#000000" style="-webkit-tap-highlight-color: rgba(0, 0, 0, 0); stroke-linecap: round; stroke-linejoin: round; stroke-width: 13;" /><path d="M1842,965L1849,961L1855,960L1861,959L1827.22,930.53L1863,959L1866,958L1821,931L1813,928L1820,932L1813,938L1817,937L1812,941L1828,945L1834,946" fill="none" stroke="#000000" style="-webkit-tap-highlight-color: rgba(0, 0, 0, 0); stroke-linecap: round; stroke-linejoin: round; stroke-width: 13;" /><path d="M1846,955L1867,930L1873,942L1869,931L1899.73,959.53L1890,962L1896,961L1887,963L1890,962L1901,958L1896,961L1916,954" fill="none" stroke="#000000" style="-webkit-tap-highlight-color: rgba(0, 0, 0, 0); stroke-linecap: round; stroke-linejoin: round; stroke-width: 13;" /><path d="M1923,950L1927,951L1941,946L1928.73,954.7L1929,960L1928,961L1934,967L1937,982L1936,993L1929,1014L1927,1029L1927,1037L1928,1036" fill="none" stroke="#000000" style="-webkit-tap-highlight-color: rgba(0, 0, 0, 0); stroke-linecap: round; stroke-linejoin: round; stroke-width: 13;" /><path d="M1927,1052L1927,1052L1925,1056L1922,1059L1890.06,954.7L1890,962L1889,963L1884,968L1880,990L1879,998L1905,1024" fill="none" stroke="#000000" style="-webkit-tap-highlight-color: rgba(0, 0, 0, 0); stroke-linecap: round; stroke-linejoin: round; stroke-width: 13;" /><path d="M1895,1032L1895,1048L1900,1055L1900,1055L1890.06,1070.71L1893,1063L1892,1066L1883,1069L1892,1066" fill="none" stroke="#000000" style="-webkit-tap-highlight-color: rgba(0, 0, 0, 0); stroke-linecap: round; stroke-linejoin: round; stroke-width: 13;" /><path d="M1905,1076L1922,1059L1943,1047L1930,1055L1951,1040L1951,1040L1952,1043" fill="none" stroke="#000000" style="-webkit-tap-highlight-color: rgba(0, 0, 0, 0); stroke-linecap: round; stroke-linejoin: round; stroke-width: 13;" /><path d="M1575.86,1104.55" fill="none" stroke="#000000" style="-webkit-tap-highlight-color: rgba(0, 0, 0, 0); stroke-linecap: round; stroke-linejoin: round; stroke-width: 13;" /><path d="M1571,1098L1573,1094L1575.86,1070.71L1566,1079L1566,1079L1571,1076L1558,1088L1557,1089L1551,1102L1551,1102L1548,1102L1552,1087L1552,1085L1543,1075L1547,1073L1553,1075L1552,1071L1558,1071L1560,1070L1571,1072L1580,1071L1599,1075L1601,1075L1619,1074L1624,1071L1627,1070L1628,1072L1627,1070L1620,1057L1620,1057L1620,1057L1613,1049L1624,1037L1619,1032L1621,1012L1619,1027L1605,998L1618,1010L1594,989L1598,996L1600,987L1595,987L1615,991L1605,981L1641,985L1637,985L1642,984L1642,984L1669,993L1666,993L1676,993L1671,992L1682,996L1683,996L1693,994L1696,993L1702,992L1725,993L1706,992L1706,992L1725,993L1725,994L1725,994L1725,994L1733,1012L1731,1017L1733,1013" fill="none" stroke="#000000" style="-webkit-tap-highlight-color: rgba(0, 0, 0, 0); stroke-linecap: round; stroke-linejoin: round; stroke-width: 13;" /><path d="M1731,1030L1740,1039L1748,1048L1745,1047L1756,1057L1764,1060L1778,1055L1788,1056L1770,1061L1793,1056L1794,1056L1813,1051L1818,1051L1827,1051L1832,1051L1842,1051L1859,1051L1857,1058L1859,1051L1868,1049L1882,1053L1884,1056L1893,1061" fill="none" stroke="#000000" style="-webkit-tap-highlight-color: rgba(0, 0, 0, 0); stroke-linecap: round; stroke-linejoin: round; stroke-width: 13;" /><path d="M1145.64,1491.27L1141,1491L1136,1486L1135,1482L1134,1480L1143,1470L1141,1453L1155,1409L1145,1422L1170,1385L1208,1356L1184,1370L1233,1346L1262,1337L1310,1341L1286,1337L1329,1346L1339,1361L1358,1383L1357,1378L1372,1392L1384,1387L1420,1390L1406,1389L1441,1390L1455,1390L1484,1390L1470,1390L1499,1390L1513,1385L1528,1380L1566,1375L1547,1375L1586,1370L1605,1366L1658,1351L1618,1353L1644,1356L1677,1346L1697,1341L1755,1322L1731,1327L1711,1337L1774,1312L1822,1308L1798,1308L1837,1303L1842,1303L1880,1298L1861,1303L1895,1288L1914,1283L1929,1279L1958,1269L1943,1274L1980,1266L1997,1255L2021,1247L2043,1249L2069,1240L2093,1240L2146,1225L2122,1235L2170,1216L2195,1211L2243,1201L2219,1206" fill="none" stroke="#000000" style="-webkit-tap-highlight-color: rgba(0, 0, 0, 0); stroke-linecap: round; stroke-linejoin: round; stroke-width: 13;" /><path d="M652.58,273.12L643,278L638,278L648,273L638,283L638,288L638,297L638,302L638,318L644,331L643,346L641,360L642,375L640,399L642,389L640,399L639,412L640,414L645,422L633,439L632,446L633,464L633,464L633,471L629,487L624,509L628,494L622,513L633,539L633,544L633,549L633,553L633,558L628,573L617,552L624,578L619,582L605,582L610,601L610,601L609,601L611,612L604,639L604,620L604,620L609,615L599,638L604,639L598,651L599,653L599,660L595,664L595,669L595,673L594,680L597,689L592,694L592,699L590,707L589,718L589,724L584,741L585,733L583,753L583,755L580,767L579,776L575,786L573,790L571,802L570,817" fill="none" stroke="#000000" style="-webkit-tap-highlight-color: rgba(0, 0, 0, 0); stroke-linecap: round; stroke-linejoin: round; stroke-width: 13;" /><path d="M570,823L571,831L566,842L564,843L566,857L564,867L568,875L564,887L560,895L561,905L561,917L561,932L560,938L554,956L553,964" fill="none" stroke="#000000" style="-webkit-tap-highlight-color: rgba(0, 0, 0, 0); stroke-linecap: round; stroke-linejoin: round; stroke-width: 13;" /><path d="M464.06,466.47" fill="none" stroke="#000000" style="-webkit-tap-highlight-color: rgba(0, 0, 0, 0); stroke-linecap: round; stroke-linejoin: round; stroke-width: 13;" /><path d="M551,973L557,984L556,988L559,1013L550,1020L551,1021L551,1028L551,1039L549,1042L552,1048L549,1029" fill="none" stroke="#000000" style="-webkit-tap-highlight-color: rgba(0, 0, 0, 0); stroke-linecap: round; stroke-linejoin: round; stroke-width: 13;" /><path d="M459,471" fill="none" stroke="#000000" style="-webkit-tap-highlight-color: rgba(0, 0, 0, 0); stroke-linecap: round; stroke-linejoin: round; stroke-width: 13;" /><path d="M550,1020" fill="none" stroke="#000000" style="-webkit-tap-highlight-color: rgba(0, 0, 0, 0); stroke-linecap: round; stroke-linejoin: round; stroke-width: 13;" /><path d="M459,477L454,484L454,500L455,499L454,510L454,520L454,539L451,522L454,521L450,554L450,554L450,554L450,554L459,573L459,578L459,582L459,592L459,602L459,626L459,611L459,636L459,645L459,660L459,669L459,679L459,684L459,694L459,703L459,713L459,718L459,728L459,737L454,747L459,732" fill="none" stroke="#000000" style="-webkit-tap-highlight-color: rgba(0, 0, 0, 0); stroke-linecap: round; stroke-linejoin: round; stroke-width: 13;" /><path d="M454,752L454,771L454,757L454,766L450,786L450,781L450,776L450,790L445,800L445,805L445,795L445,810L445,819L445,815L445,834L445,829L450,839L440,858L443,865L447,876L455,887L451,881L453,885L450,878" fill="none" stroke="#000000" style="-webkit-tap-highlight-color: rgba(0, 0, 0, 0); stroke-linecap: round; stroke-linejoin: round; stroke-width: 13;" /><path d="M29,867.69L19,874L22,868L15,875L12,875L4,877L19,874L22,868L34,856L44,855L50,844L68,834L73,829L87,826L87,804L91,796L80,809L93,793L102,782L106,782L98,788L111,781L119,778L126,770L121,777L129,770L134,760L143,753L137,758L143,752L144,747L147,732L144,742L149,728L152,724L154,722L158,720L160,719L160,719L160,708L164,703L169,699L181,697L181,697L183,684L183,684L193,680L198,681L203,680L212,674L213,674L214,669L218,669L224,666L228,665L224,662L232,655L235,654L239,665L247,658L236,650L251,653L258,647L245,629L246,627L247,623L266,636L261,621L276,615L276,615L276,615L277,616L277,616L281,606L289,604L295,601L305,593L300,593L309,593L323,586L323,586L325,575L325,574L325,574L329,573L329,573L329,573L343,563L353,563L348,563L358,558L373,557L373,557L373,554L382,546L376,550L392,534L388,534L399,533L392,534L406,524L401,527L410,522L411,520L421,512L416,520L430,508L422,511L439,508L454,507L439,508L435,508L455,505L464,500L459,499L469,500" fill="none" stroke="#000000" style="-webkit-tap-highlight-color: rgba(0, 0, 0, 0); stroke-linecap: round; stroke-linejoin: round; stroke-width: 13;" /><path d="M472,491L479,490L487,477L483,490L497,475L514,463L505,465L515,458L464.06,422.97L462,428L458,434L458,437L445,452L435,450L429,457L421,460L425,461L416,467L401,480L406,466L394,477L387,483L367,486L372,485L383,482L364,495L358,503L364,495L358,503L340,509L337,515L326,524L334,519L324,528L319,532L314,539L316,540L309,539L300,561L300,561L301,563L300,561L295,563L277,575L291,562L277,578L268,584L249,593L257,588L246,597L246,599L232,602L222,607L227,607L218,611L213,616L204,629L196,628L193,630L182,631L172,652L172,636L164,653L157,656L151,660L153,657L144,671L144,668L143,674L135,676L131,678L132,678L125,701L127,702L121,702L113,710L110,708L106,712L104,715L91,715L91,715L83,723L82,722L77,728L72,728" fill="none" stroke="#000000" style="-webkit-tap-highlight-color: rgba(0, 0, 0, 0); stroke-linecap: round; stroke-linejoin: round; stroke-width: 13;" /><path d="M73,727L0,819.35" fill="none" stroke="#000000" style="-webkit-tap-highlight-color: rgba(0, 0, 0, 0); stroke-linecap: round; stroke-linejoin: round; stroke-width: 13;" /><path d="M66,740L60,741L63,737L53,747L53,747L46,758L46,758L34,757L29,757L24,761L19,766L15,776L5,791L2,789L6,793L1,815L1,805" fill="none" stroke="#000000" style="-webkit-tap-highlight-color: rgba(0, 0, 0, 0); stroke-linecap: round; stroke-linejoin: round; stroke-width: 13;" /><path d="M497.89,476.14L497,475L497,475L505,484L505,484L506,484L506,484L521,484L521,484L524,481" fill="none" stroke="#000000" style="-webkit-tap-highlight-color: rgba(0, 0, 0, 0); stroke-linecap: round; stroke-linejoin: round; stroke-width: 13;" /><path d="M524,481L540,476L540,476L552,469L559,463L552,469L559,463L587,464L587,464L595,465L595,465L606,463L609,463L606,463L609,463L606,463L600,460L606,463L600,460L623.58,485.81L629,490L633,492L634,491L657,510L691,520L677,515L716,514L724,515L753,518L740,516" fill="none" stroke="#000000" style="-webkit-tap-highlight-color: rgba(0, 0, 0, 0); stroke-linecap: round; stroke-linejoin: round; stroke-width: 13;" /><path d="M764,515L768,515L773,515L783.1,509.98L807,500L789,506L812,494L827,490" fill="none" stroke="#000000" style="-webkit-tap-highlight-color: rgba(0, 0, 0, 0); stroke-linecap: round; stroke-linejoin: round; stroke-width: 13;" /><path d="M846,478L837,478L841,473L856,457L860,452" fill="none" stroke="#000000" style="-webkit-tap-highlight-color: rgba(0, 0, 0, 0); stroke-linecap: round; stroke-linejoin: round; stroke-width: 13;" /><path d="M584.9,1012.71L585,1016L590,1015L604,1012L619,1008L638,1007L633,1008L671,1008L657,1006" fill="none" stroke="#000000" style="-webkit-tap-highlight-color: rgba(0, 0, 0, 0); stroke-linecap: round; stroke-linejoin: round; stroke-width: 13;" /><path d="M678,1012L683,1017L684,1018L683,1017" fill="none" stroke="#000000" style="-webkit-tap-highlight-color: rgba(0, 0, 0, 0); stroke-linecap: round; stroke-linejoin: round; stroke-width: 13;" /><path d="M14.5,925.7" fill="none" stroke="#000000" style="-webkit-tap-highlight-color: rgba(0, 0, 0, 0); stroke-linecap: round; stroke-linejoin: round; stroke-width: 13;" /><path d="M0,930.53L1,926L1,931L1,935L1,926L21,912L31,912L48,910L58,911L73,917L77,931L82,940L79,961L82,970L87,988L85,992L82,1008L77,1013L77,1022L77,1018L82,1022L87,1022L110,1022L107,1032L110,1022L111,1021L117,1023L116,1022L120,1038L121,1027L120,1038L110,1048L98,1059L107,1050L95,1063L96,1074L93,1074L88,1082L80,1077L88,1085L77,1101L86,1094L77,1101L76,1105L76,1109L75,1119L75,1133L56,1149L59,1166L58,1158L55,1170L42,1182L42,1182L58,1192L63,1192L68,1196L83,1194L86,1214L87,1207" fill="none" stroke="#000000" style="-webkit-tap-highlight-color: rgba(0, 0, 0, 0); stroke-linecap: round; stroke-linejoin: round; stroke-width: 13;" /><path d="M85,1221L85,1230L88,1250L84,1240L88,1260L81,1269L80,1283L79,1298L79,1293L78,1308L77,1317L75,1327L75,1337L75,1350L77,1359L72,1380L72,1370L70,1405L78,1395L69,1419L68,1428L58,1450L59,1457L65,1478L49,1501L61,1520L59,1511L61,1524L67,1525L71,1518L69,1523L71,1513" fill="none" stroke="#000000" style="-webkit-tap-highlight-color: rgba(0, 0, 0, 0); stroke-linecap: round; stroke-linejoin: round; stroke-width: 13;" /><path d="M1484.01,935.36L1487,939L1487,939L1480,944L1487,939L1487,939L1490,937L1497,931L1500,914L1497,919L1505,885L1501,888L1518,871L1506,882L1523,867L1535,857L1533,844L1535,853L1540,844L1547,845L1552,842L1557,842L1561,841L1568,840L1573,839L1576,839L1581,839L1576,839L1585,840L1589,841L1595,842L1600,842L1610,846L1615,847L1639,848L1624,848L1629,849L1644,848L1652,848L1648,847L1655,849L1668,845L1667,846L1673,845L1677,845L1687,839L1682,846L1685,846L1689,839L1700,835L1702,834L1709,832L1716,824L1714,823L1722,823L1726,822L1740,814L1731,823L1750,821L1752,821L1760,824L1769,824L1779,825L1772,824L1784,824L1787,833L1788,834L1807,835L1807,835L1815,838L1830,849L1838,845L1844,846L1847,845L1851,843L1856,842L1865,840L1873,841L1880,834L1895,840L1885,834L1905,840L1910,841L1925,840L1925,840L1932,830L1934,830" fill="none" stroke="#000000" style="-webkit-tap-highlight-color: rgba(0, 0, 0, 0); stroke-linecap: round; stroke-linejoin: round; stroke-width: 13;" /><path d="M1950,839L1943,835L1953,838L1957,839L1958,838L1958,838L1972,848L1985,847L1985,847L1987,847L1994,860L1992,860L2002,861L2001,863L2004,872L2006,860L2005,873L2008,876L2011,907L2001,892L2011,907L1996,897L1994,876" fill="none" stroke="#000000" style="-webkit-tap-highlight-color: rgba(0, 0, 0, 0); stroke-linecap: round; stroke-linejoin: round; stroke-width: 13;" /><path d="M1005.46,940.2L991,936L987,937L996,937L991,946L1010,948L996,949L1020,950L1034,950L1044,945L1073,934L1062,931L1088,922L1097,928L1107,917L1114,917L1128,909L1140,906L1175,914L1146,903L1162,917L1176,916L1192,919L1199,920L1184,919L1206,919L1208,919L1213,919L1223,913L1223,913L1229,916L1233,917L1242,917L1247,917L1257,917L1264,919L1276,922L1288,921L1300,922L1315,920" fill="none" stroke="#000000" style="-webkit-tap-highlight-color: rgba(0, 0, 0, 0); stroke-linecap: round; stroke-linejoin: round; stroke-width: 13;" /><path d="M1329,916L1322,919L1333,917L1333,917L1351,916L1346,918L1358,920L1366,921L1380,928L1387,928L1403,929L1416,935L1431,937L1450,950L1460,950L1471,950L1472,948L1471,950L1460,946L1448,932" fill="none" stroke="#000000" style="-webkit-tap-highlight-color: rgba(0, 0, 0, 0); stroke-linecap: round; stroke-linejoin: round; stroke-width: 13;" /><path d="M1068.3,553.48L1063,552L1057,547L1060,553L1057,566L1059,560L1058,579L1058,592L1054,602L1053,632L1050,621L1051,653L1051,665L1058,674L1059,699L1058,710L1065,734L1062,756L1073,776" fill="none" stroke="#000000" style="-webkit-tap-highlight-color: rgba(0, 0, 0, 0); stroke-linecap: round; stroke-linejoin: round; stroke-width: 13;" /><path d="M1080,805L1097,815L1105,834L1104,847" fill="none" stroke="#000000" style="-webkit-tap-highlight-color: rgba(0, 0, 0, 0); stroke-linecap: round; stroke-linejoin: round; stroke-width: 13;" /><path d="M889.44,456.81" fill="none" stroke="#000000" style="-webkit-tap-highlight-color: rgba(0, 0, 0, 0); stroke-linecap: round; stroke-linejoin: round; stroke-width: 13;" /><path d="M1115,861L1114,863L1114,868L1102,857L1102,857L1101,843" fill="none" stroke="#000000" style="-webkit-tap-highlight-color: rgba(0, 0, 0, 0); stroke-linecap: round; stroke-linejoin: round; stroke-width: 13;" /><path d="M890,469L886,461L885,481L885,494L881,509L894,528L901,542L899,563L900,581L906,597L914,644L906,620L921,664L932,673L944,721L939,701L952,752L946,728" fill="none" stroke="#000000" style="-webkit-tap-highlight-color: rgba(0, 0, 0, 0); stroke-linecap: round; stroke-linejoin: round; stroke-width: 13;" /><path d="M953,757L965,781L962,767L962,776L970,808L990,824L991,829L981,815L999,842L1002,848L1003,856L1003,856L999,844L1015,882L1010,877L1010,868L1007,896L1007,896L1007,896L1015,908L1015,908L1015,908" fill="none" stroke="#000000" style="-webkit-tap-highlight-color: rgba(0, 0, 0, 0); stroke-linecap: round; stroke-linejoin: round; stroke-width: 13;" /><path d="M2407.29,920.86L2417,921L2412,921L2412,921L2417,921L2436,921L2427,921L2427,921L2436,921L2446,921L2456,926L2446,921L2456,926L2465,926L2465,926L2478,919L2478,919L2481,931L2484,932L2481,931L2484,932L2484,932L2496,933L2484,932L2496,933L2504,930L2509,931L2504,930L2509,931L2513,931L2513,931L2514,932L2514,932L2530,932L2530,932L2530,932L2530,932L2535,928L2537,928L2535,928L2537,928L2543,929L2543,929L2543,929L2543,929L2544,930L2544,930L2547,934L2547,934L2562,926L2562,926L2572,921L2567,926L2567,926L2572,921L2576,921L2576,921L2576,916L2576,916L2581,916L2581,911L2581,916" fill="none" stroke="#000000" style="-webkit-tap-highlight-color: rgba(0, 0, 0, 0); stroke-linecap: round; stroke-linejoin: round; stroke-width: 13;" /><path d="M2586,911L2586,911L2581,911L2586,906L2586,906L2591,906L2596,902L2591,906L2601,902L2596,902L2601,902L2605,902L2605,902L2610,902L2610,902L2615,902L2615,902L2620,902L2620,902L2625,902L2625,902L2634,902L2630,902L2630,902L2634,902L2634,906L2634,906L2639,906L2639,906L2644,906L2644,906L2649,906L2649,906L2654,906L2654,906L2654,902L2654,902L2659,902L2659,897L2659,902L2663,897L2659,897L2673,881L2675,892L2663,897L2673,881L2675,884L2675,884L2675,892L2678,885L2678,885L2683,886L2683,886L2690,884L2692,886L2690,884L2694,886L2692,886L2694,886L2702,887L2702,887" fill="none" stroke="#000000" style="-webkit-tap-highlight-color: rgba(0, 0, 0, 0); stroke-linecap: round; stroke-linejoin: round; stroke-width: 13;" /><path d="M575.24,1027.21L566,1010L576,1026L564,1011L561,1013L561,1013L566,1010L581,1023L586,1022L598,1020L614,1031L628,1032L643,1033L662,1034L673,1035L657,1034L677,1035L682,1024L684,1022L684,1024" fill="none" stroke="#000000" style="-webkit-tap-highlight-color: rgba(0, 0, 0, 0); stroke-linecap: round; stroke-linejoin: round; stroke-width: 13;" /><path d="M702,1017" fill="none" stroke="#000000" style="-webkit-tap-highlight-color: rgba(0, 0, 0, 0); stroke-linecap: round; stroke-linejoin: round; stroke-width: 13;" /><path d="M657.41,490.64L657,480L653,471L655,458L659,473L662,467L662,475L672,481L676,480L685,486L706,497L696,492L714,501L726,500L731,503L741,509L763,514L749,511" fill="none" stroke="#000000" style="-webkit-tap-highlight-color: rgba(0, 0, 0, 0); stroke-linecap: round; stroke-linejoin: round; stroke-width: 13;" /><path d="M778,508L778,508L784,508L791,502L794,500L800,500L802,496L808,491L817,490L812,491L827,490L822,490" fill="none" stroke="#000000" style="-webkit-tap-highlight-color: rgba(0, 0, 0, 0); stroke-linecap: round; stroke-linejoin: round; stroke-width: 13;" /><path d="M203.02,1003.04L203,998L193,984L189,979L198,984L193,979L208,989L218,993L222,998L240,1007L241,1007L251,1012L271,1022L271,1022L261,1013L286,1013L299,1019L307,1025L304,1022L313,1032L322,1036" fill="none" stroke="#000000" style="-webkit-tap-highlight-color: rgba(0, 0, 0, 0); stroke-linecap: round; stroke-linejoin: round; stroke-width: 13;" /><path d="M336,1032L338,1035L343,1045L348,1049L348,1049L348,1049" fill="none" stroke="#000000" style="-webkit-tap-highlight-color: rgba(0, 0, 0, 0); stroke-linecap: round; stroke-linejoin: round; stroke-width: 13;" /><path d="M222.36,983.7L227,984L222,984L218,984L208,989L198,989L189,993L179,998L164,1003L150,1008L148,1022L130,1028L118,1032L111,1036" fill="none" stroke="#000000" style="-webkit-tap-highlight-color: rgba(0, 0, 0, 0); stroke-linecap: round; stroke-linejoin: round; stroke-width: 13;" /><path d="M106,1037L108,1040L111,1036L116,1039L145.02,1041.71L135,1042L140,1042L135,1047L135,1051L140,1056L150,1066L167,1080L168,1084L182,1104L165,1095L188,1116L188,1117L218,1129L213,1124L203,1124L222,1129" fill="none" stroke="#000000" style="-webkit-tap-highlight-color: rgba(0, 0, 0, 0); stroke-linecap: round; stroke-linejoin: round; stroke-width: 13;" /><path d="M227,1124L242,1124L232,1124L247,1119L256,1136L251,1124L251,1119L265.87,1148.06L256,1136L256,1136L271,1138L271,1143L276,1143L285,1148L295,1148L319,1143L311,1156L329,1143L343,1138L376,1129L370,1134L359,1139L385,1122" fill="none" stroke="#000000" style="-webkit-tap-highlight-color: rgba(0, 0, 0, 0); stroke-linecap: round; stroke-linejoin: round; stroke-width: 13;" /><path d="M388,1120L404,1106L395,1112L401,1107L410,1105L410,1105L419,1108L419,1108L381.88,1051.38L381,1046L377,1048L373,1049L367,1052L356,1059L350,1069L334,1090L314,1105L295,1113L290,1129" fill="none" stroke="#000000" style="-webkit-tap-highlight-color: rgba(0, 0, 0, 0); stroke-linecap: round; stroke-linejoin: round; stroke-width: 13;" /><path d="M285,1134L285,1138L295,1138L300,1138L290,1138" fill="none" stroke="#000000" style="-webkit-tap-highlight-color: rgba(0, 0, 0, 0); stroke-linecap: round; stroke-linejoin: round; stroke-width: 13;" /><path d="M1024.79,1032.04L1015,1032L1006,1030L989,1020L986,1020L982,1020L989,1020L1010,1032L1024,1037L1039,1047L1055,1050L1067,1057L1083,1061L1088,1064L1103,1070L1112,1075L1125,1082L1131,1078L1146,1083L1155,1086L1165,1084L1170,1087L1182,1086L1182,1086L1199,1100L1184,1084L1204,1100L1218,1110L1218,1110L1218,1110L1226,1108L1226,1108L1252,1096L1227,1109L1257,1109L1261,1108L1252,1096L1270,1106L1284,1114L1284,1114L1284,1114L1292,1115L1298,1114L1295,1114L1309,1122L1298,1114L1319,1114L1320,1113L1327,1114L1326,1115L1327,1114L1346,1125L1349,1124L1346,1125L1353,1124L1358,1124L1368,1131L1363,1128L1370,1131L1381,1130L1383,1129L1387,1129L1391,1127L1397,1129L1401,1128L1407,1127L1411,1130L1413,1132L1425,1129L1428,1132L1431,1134L1434,1135L1437,1137L1450,1129L1447,1129L1457,1132L1454,1129L1459,1127L1459,1127L1461,1110L1467,1109L1481,1112L1476,1109L1484,1109L1484,1109L1508,1100L1499,1100L1513,1095L1526,1089L1527,1090L1528,1090L1532,1090" fill="none" stroke="#000000" style="-webkit-tap-highlight-color: rgba(0, 0, 0, 0); stroke-linecap: round; stroke-linejoin: round; stroke-width: 13;" /></svg>