<?xml version="1.0" encoding="utf-8" ?>
<svg baseProfile="full" height="1542" version="1.1" width="2736" xmlns="http://www.w3.org/2000/svg" xmlns:ev="http://www.w3.org/2001/xml-events" xmlns:xlink="http://www.w3.org/1999/xlink"><defs /><path d="M157.54,422.76L161.53,418.78L159.53,420.77L157.54,424.76L151.56,428.75L147.57,434.73L139.59,444.7L135.6,452.68L131.62,456.66L127.63,462.65L121.64,464.64L117.66,468.63L113.67,470.62L109.68,474.61L105.69,478.6L97.71,480.59L93.73,484.58L89.74,488.57L87.74,490.57L85.75,492.56L81.76,494.55L77.77,498.54L71.79,502.53L69.8,504.52L63.81,510.51L59.83,514.5L57.83,516.49L53.84,518.48L47.86,520.48L47.86,518.48L43.87,520.48L41.88,520.48L39.88,522.47L39.88,524.47L39.88,526.46L37.89,528.45L37.89,532.44L35.9,534.44L35.9,540.42L33.9,542.41L33.9,544.41L31.91,546.4L31.91,550.39L33.9,552.38L33.9,554.38L41.88,558.37L45.87,562.36L47.86,564.35L53.84,566.34L57.83,568.34L59.83,570.33L61.82,572.33L63.81,572.33L65.81,574.32L65.81,576.31L59.83,584.29L57.83,586.29L51.85,590.27L47.86,594.26L39.88,600.24L35.9,604.23L31.91,608.22L27.92,614.2L23.93,618.19L17.95,624.17L15.95,630.16L9.97,634.15L5.98,640.13" fill="none" stroke="#000000" style="-webkit-tap-highlight-color: rgba(0, 0, 0, 0); stroke-linecap: round; stroke-linejoin: round; stroke-width: 13;" /><path d="M197.42,412.79L199.42,412.79L205.4,414.79L211.38,414.79L219.36,414.79L239.3,412.79L247.28,412.79L255.25,410.8L261.24,408.8L267.22,408.8L273.2,406.81L277.19,404.82L283.17,404.82L291.15,404.82L297.13,402.82L301.12,402.82L305.11,402.82L309.1,400.83L317.07,402.82L321.06,402.82L327.04,404.82L331.03,406.81L341,410.8L346.99,410.8L352.97,410.8L360.94,408.8L366.93,408.8L370.92,406.81L376.9,406.81L380.89,404.82L384.87,404.82L392.85,400.83L396.84,398.83L400.83,394.85L404.82,392.85L408.8,388.86L410.8,386.87L414.79,382.88L416.78,380.89L418.78,378.89L422.76,376.9L424.76,374.9L428.75,374.9L430.74,372.91L438.72,372.91L442.71,374.9L448.69,374.9L452.68,374.9L458.66,374.9L464.64,376.9L466.64,376.9L468.63,376.9L472.62,378.89L476.61,380.89L478.6,380.89L478.6,382.88L480.59,384.87L482.59,386.87L484.58,388.86L486.58,388.86L488.57,390.86L492.56,394.85L494.55,396.84L496.55,400.83L498.54,404.82L502.53,410.8L504.52,410.8L508.51,414.79L512.5,416.78L514.5,416.78L516.49,416.78L522.47,416.78L526.46,418.78L528.45,418.78L534.44,416.78L536.43,416.78L538.43,416.78L542.41,416.78L548.4,416.78L550.39,416.78L554.38,416.78L556.37,416.78L560.36,412.79L562.36,412.79L564.35,408.8L564.35,404.82L564.35,402.82L562.36,400.83L562.36,394.85L560.36,390.86L560.36,386.87L558.37,380.89L556.37,374.9L556.37,372.91L556.37,368.92L554.38,362.94L554.38,360.94L554.38,356.96L554.38,352.97L554.38,348.98L556.37,346.99L558.37,339.01L560.36,335.02L566.34,331.03L570.33,327.04L576.31,327.04L582.3,325.05L590.27,323.06L598.25,323.06L604.23,321.06L614.2,319.07L622.18,319.07L626.17,317.07L632.15,315.08L636.14,313.08L642.12,313.08L650.1,311.09L654.09,309.1L662.06,305.11L666.05,303.11L668.05,301.12L672.03,299.13L676.02,299.13L678.02,301.12L682.01,303.11L684,305.11L689.98,307.1L691.98,309.1L695.97,311.09L699.95,313.08L703.94,319.07L705.94,323.06L707.93,327.04L711.92,329.04L713.91,335.02L715.91,339.01L717.9,344.99L719.9,348.98L719.9,352.97L721.89,356.96L725.88,360.94L727.87,364.93L729.87,366.93L731.86,372.91L733.85,376.9L735.85,380.89L735.85,384.87L735.85,386.87L735.85,394.85L735.85,400.83L733.85,404.82L731.86,408.8L731.86,416.78L729.87,420.77L729.87,424.76L727.87,430.74L727.87,432.73L727.87,436.72L727.87,440.71L727.87,442.71L727.87,446.69L729.87,452.68L729.87,458.66L729.87,460.65L731.86,464.64L733.85,472.62" fill="none" stroke="#000000" style="-webkit-tap-highlight-color: rgba(0, 0, 0, 0); stroke-linecap: round; stroke-linejoin: round; stroke-width: 13;" /><path d="M636.14,313.08" fill="none" stroke="#000000" style="-webkit-tap-highlight-color: rgba(0, 0, 0, 0); stroke-linecap: round; stroke-linejoin: round; stroke-width: 13;" /><path d="M642.12,311.09L640.13,313.08L638.13,319.07L636.14,329.04L636.14,339.01L634.15,348.98L632.15,358.95L628.16,372.91L628.16,380.89L626.17,388.86L624.17,398.83L624.17,406.81L624.17,416.78L622.18,424.76L622.18,432.73L622.18,438.72L622.18,446.69L622.18,452.68L624.17,458.66L622.18,464.64L620.19,476.61L620.19,482.59L620.19,488.57L620.19,494.55L620.19,504.52L618.19,512.5L618.19,516.49L618.19,524.47L616.2,530.45L616.2,538.43L614.2,546.4L614.2,552.38L612.21,558.37L612.21,564.35L610.22,572.33L606.23,578.31L606.23,580.3L604.23,588.28L604.23,594.26L602.24,602.24L600.24,610.22L600.24,616.2L598.25,622.18L596.26,632.15L594.26,642.12L594.26,648.1L592.27,654.09L590.27,662.06L590.27,668.05L588.28,674.03L588.28,680.01L588.28,687.99L586.29,693.97L586.29,697.96L586.29,703.94L586.29,709.92L586.29,717.9L584.29,721.89L584.29,727.87L584.29,733.85L584.29,743.83L584.29,751.8L582.3,757.78L582.3,763.77L582.3,771.74L582.3,777.73L582.3,787.7L580.3,793.68L580.3,803.65L580.3,813.62L580.3,821.6L580.3,829.57L578.31,835.56L578.31,841.54L576.31,849.52L578.31,853.5L576.31,859.49L576.31,865.47L574.32,875.44L574.32,879.43L572.33,885.41L570.33,891.39L568.34,897.38L566.34,905.35L566.34,911.34L566.34,915.32L564.35,923.3L564.35,931.28L562.36,941.25L562.36,945.24L562.36,951.22L562.36,959.2L562.36,969.17L562.36,979.14L562.36,987.11L562.36,991.1L562.36,995.09" fill="none" stroke="#000000" style="-webkit-tap-highlight-color: rgba(0, 0, 0, 0); stroke-linecap: round; stroke-linejoin: round; stroke-width: 13;" /><path d="M504.52,426.75L504.52,430.74L502.53,434.73L502.53,440.71L502.53,450.68L500.54,458.66L500.54,476.61L498.54,486.58L498.54,498.54L496.55,508.51L496.55,518.48L494.55,532.44L492.56,540.42L492.56,548.4L490.57,556.37L490.57,566.34L488.57,572.33L486.58,576.31L486.58,586.29L484.58,596.26L482.59,614.2L482.59,616.2L480.59,622.18L480.59,630.16L480.59,638.13L478.6,644.12L476.61,650.1L476.61,656.08L476.61,662.06L474.61,668.05L474.61,674.03L472.62,680.01L472.62,687.99L472.62,691.98L472.62,697.96L468.63,715.91L468.63,721.89L468.63,723.88L466.64,727.87L464.64,733.85L464.64,739.84L464.64,741.83L464.64,745.82L462.65,747.81L462.65,749.81L460.65,751.8L460.65,753.8L458.66,757.78L456.66,759.78L454.67,763.77L452.68,765.76L452.68,767.76L450.68,771.74L448.69,773.74L446.69,779.72L444.7,783.71L442.71,793.68L440.71,801.66" fill="none" stroke="#000000" style="-webkit-tap-highlight-color: rgba(0, 0, 0, 0); stroke-linecap: round; stroke-linejoin: round; stroke-width: 13;" /><path d="M235.31,697.96L237.31,697.96L241.29,697.96L247.28,697.96L257.25,697.96L267.22,697.96L285.17,701.95L297.13,703.94L309.1,703.94L321.06,703.94L339.01,707.93L348.98,709.92L358.95,711.92L368.92,713.91L372.91,713.91L374.9,713.91L376.9,715.91L378.89,717.9L378.89,719.9L380.89,721.89L382.88,723.88L382.88,725.88L384.87,727.87L386.87,729.87L388.86,737.84L390.86,741.83L394.85,743.83L396.84,749.81L400.83,755.79L404.82,765.76L406.81,771.74L408.8,775.73L410.8,781.71L412.79,791.69L414.79,795.67L416.78,801.66L416.78,805.64L416.78,809.63L418.78,817.61L422.76,823.59L424.76,829.57L426.75,833.56L428.75,839.55L430.74,845.53L432.73,849.52L434.73,853.5L436.72,857.49L440.71,865.47L442.71,871.45L444.7,877.43L446.69,883.42L450.68,891.39L454.67,897.38L456.66,901.36L460.65,905.35L464.64,909.34L468.63,915.32L474.61,927.29L476.61,929.28L480.59,933.27L484.58,941.25L486.58,945.24L492.56,951.22L494.55,957.2L498.54,961.19L502.53,967.17L506.52,971.16L510.51,977.14L514.5,983.13L518.48,991.1L524.47,995.09L528.45,1003.07L538.43,1011.04" fill="none" stroke="#000000" style="-webkit-tap-highlight-color: rgba(0, 0, 0, 0); stroke-linecap: round; stroke-linejoin: round; stroke-width: 13;" /><path d="M277.19,678.02L275.2,680.01L275.2,684L273.2,693.97L273.2,699.95L271.21,703.94L271.21,705.94L269.21,707.93L269.21,709.92L269.21,713.91L271.21,717.9L273.2,723.88L275.2,733.85L277.19,739.84L279.18,747.81L281.18,749.81L285.17,755.79L289.15,763.77L293.14,771.74L297.13,775.73L299.13,781.71L301.12,789.69L305.11,795.67L309.1,799.66L313.08,805.64L315.08,811.63L319.07,817.61L323.06,823.59L325.05,829.57L329.04,835.56L331.03,839.55L333.03,845.53L335.02,853.5L337.01,859.49L341,865.47L344.99,875.44L346.99,883.42L348.98,889.4L350.97,897.38L354.96,907.35L356.96,913.33L358.95,917.32L360.94,923.3L362.94,929.28L366.93,941.25L368.92,943.24L372.91,951.22L374.9,955.21L378.89,965.18L382.88,971.16L384.87,977.14L386.87,981.13L390.86,987.11L394.85,993.1L396.84,995.09L400.83,999.08L404.82,1005.06L410.8,1015.03L414.79,1019.02L416.78,1027L420.77,1030.99L422.76,1038.96L424.76,1046.94L426.75,1052.92L428.75,1058.9L432.73,1064.89L434.73,1068.87L438.72,1074.86L438.72,1076.85L440.71,1076.85L444.7,1078.85" fill="none" stroke="#000000" style="-webkit-tap-highlight-color: rgba(0, 0, 0, 0); stroke-linecap: round; stroke-linejoin: round; stroke-width: 13;" /><path d="M251.27,701.95L247.28,703.94L245.28,707.93L241.29,715.91L239.3,721.89L239.3,727.87L237.31,733.85L237.31,743.83L235.31,751.8L233.32,763.77L231.32,771.74L231.32,779.72L229.33,795.67L227.34,805.64L225.34,811.63L223.35,817.61L221.35,821.6L219.36,827.58L219.36,837.55L219.36,843.53L219.36,849.52L219.36,857.49L219.36,859.49L219.36,861.48L219.36,865.47L221.35,871.45L223.35,875.44L225.34,879.43L227.34,881.42L227.34,885.41L229.33,885.41L229.33,891.39L231.32,897.38L233.32,901.36L233.32,903.36L235.31,905.35L235.31,907.35L235.31,911.34L237.31,915.32L237.31,921.31L237.31,923.3L239.3,925.29L239.3,927.29L241.29,931.28L243.29,931.28L243.29,933.27L245.28,937.26L249.27,943.24L251.27,947.23L255.25,955.21L259.24,961.19L261.24,967.17L267.22,977.14L273.2,985.12L279.18,993.1L285.17,999.08L295.14,1011.04L299.13,1017.03L305.11,1025L311.09,1030.99L317.07,1034.97L327.04,1044.94L331.03,1048.93L335.02,1052.92L339.01,1056.91L343,1058.9L346.99,1060.9L348.98,1062.89L350.97,1064.89L354.96,1064.89L356.96,1064.89L358.95,1064.89" fill="none" stroke="#000000" style="-webkit-tap-highlight-color: rgba(0, 0, 0, 0); stroke-linecap: round; stroke-linejoin: round; stroke-width: 13;" /><path d="M223.35,915.32L223.35,919.31L223.35,929.28L223.35,937.26L223.35,943.24L221.35,951.22L221.35,961.19L221.35,973.15L223.35,983.13L225.34,991.1L227.34,997.08L231.32,1007.06L233.32,1011.04" fill="none" stroke="#000000" style="-webkit-tap-highlight-color: rgba(0, 0, 0, 0); stroke-linecap: round; stroke-linejoin: round; stroke-width: 13;" /><path d="M97.71,1009.05L101.7,1009.05L107.69,1011.04L111.67,1013.04L119.65,1017.03L129.62,1019.02L145.57,1019.02L159.53,1019.02L173.49,1019.02L187.45,1019.02L209.39,1023.01L225.34,1023.01L249.27,1019.02L265.22,1015.03L279.18,1015.03L299.13,1017.03" fill="none" stroke="#000000" style="-webkit-tap-highlight-color: rgba(0, 0, 0, 0); stroke-linecap: round; stroke-linejoin: round; stroke-width: 13;" /><path d="M247.28,1030.99L249.27,1028.99L255.25,1025L265.22,1025L275.2,1025L293.14,1028.99L303.11,1032.98L317.07,1040.96L329.04,1052.92L337.01,1062.89L344.99,1070.87L354.96,1078.85L358.95,1082.83L366.93,1086.82L372.91,1088.82L380.89,1090.81L386.87,1090.81L394.85,1090.81L402.82,1088.82L412.79,1086.82L426.75,1084.83L434.73,1082.83L440.71,1080.84L446.69,1078.85L458.66,1076.85L464.64,1072.86L468.63,1072.86L478.6,1072.86L482.59,1070.87L490.57,1068.87L494.55,1066.88L500.54,1062.89L504.52,1058.9L508.51,1050.93L510.51,1046.94L514.5,1042.95L516.49,1038.96L520.48,1036.97L526.46,1030.99L528.45,1027L530.45,1025L534.44,1021.01L538.43,1017.03L544.41,1013.04L548.4,1011.04L554.38,1009.05L558.37,1007.06L566.34,1007.06L574.32,1007.06L580.3,1011.04L592.27,1013.04L600.24,1017.03L608.22,1019.02L614.2,1023.01L622.18,1025L628.16,1028.99L638.13,1030.99L648.1,1032.98L656.08,1032.98L664.06,1032.98L672.03,1034.97" fill="none" stroke="#000000" style="-webkit-tap-highlight-color: rgba(0, 0, 0, 0); stroke-linecap: round; stroke-linejoin: round; stroke-width: 13;" /><path d="M685.99,1023.01L693.97,1017.03L699.95,1017.03L709.92,1019.02L719.9,1023.01L735.85,1032.98L749.81,1040.96L763.77,1048.93L773.74,1052.92L787.7,1064.89L795.67,1070.87L805.64,1080.84L811.63,1084.83L819.6,1088.82L833.56,1100.78L837.55,1106.76L841.54,1112.75L843.53,1116.73L847.52,1118.73L853.5,1120.72L859.49,1122.72L865.47,1122.72L869.46,1122.72L879.43,1122.72L885.41,1120.72L891.39,1120.72L899.37,1118.73L909.34,1116.73L915.32,1112.75L921.31,1110.75L927.29,1108.76L933.27,1108.76L947.23,1108.76L955.21,1106.76L965.18,1106.76L971.16,1104.77L977.14,1100.78L979.14,1096.79L981.13,1090.81L983.13,1084.83L983.13,1078.85L985.12,1074.86L985.12,1068.87L985.12,1066.88L987.11,1062.89L991.1,1058.9L993.1,1058.9L999.08,1056.91L1005.06,1058.9L1013.04,1058.9L1021.01,1060.9L1040.96,1066.88L1042.95,1068.87L1046.94,1068.87L1058.9,1072.86L1064.89,1072.86L1072.86,1074.86L1080.84,1076.85L1088.82,1080.84L1100.78,1082.83L1108.76,1086.82L1114.74,1086.82L1122.72,1088.82L1134.68,1090.81L1144.65,1092.8L1152.63,1096.79L1160.61,1096.79L1168.58,1098.79L1176.56,1100.78L1184.54,1102.78L1192.51,1106.76L1196.5,1108.76L1202.48,1112.75L1204.48,1116.73L1206.47,1116.73L1212.45,1120.72L1216.44,1122.72L1224.42,1126.71L1230.4,1126.71L1234.39,1128.7L1242.37,1130.69L1254.33,1132.69L1262.31,1134.68L1272.28,1134.68L1280.26,1134.68L1286.24,1136.68L1302.19,1136.68L1310.17,1138.67L1318.15,1136.68L1326.12,1132.69L1338.09,1130.69L1344.07,1128.7L1348.06,1128.7L1354.04,1126.71L1358.03,1126.71L1366.01,1126.71L1373.98,1126.71L1381.96,1126.71L1389.94,1124.71L1397.91,1124.71L1409.88,1124.71L1419.85,1124.71L1427.83,1124.71L1435.8,1126.71L1443.78,1126.71L1451.76,1126.71L1459.73,1126.71L1467.71,1126.71L1475.69,1124.71L1485.66,1122.72L1493.63,1120.72L1505.6,1118.73L1509.59,1116.73L1511.58,1114.74L1521.55,1112.75L1529.53,1110.75L1535.51,1108.76L1545.48,1108.76L1555.45,1108.76L1563.43,1108.76L1571.41,1108.76L1583.37,1108.76L1593.34,1106.76L1607.3,1104.77L1617.27,1102.78L1627.24,1100.78L1641.2,1096.79L1649.18,1094.8L1659.15,1090.81L1669.12,1088.82L1677.1,1086.82L1685.07,1084.83L1697.04,1082.83L1705.01,1082.83L1714.99,1080.84L1738.92,1078.85L1754.87,1076.85L1766.83,1076.85L1776.8,1076.85L1784.78,1078.85L1792.76,1080.84L1802.73,1082.83L1810.71,1086.82L1818.68,1088.82L1826.66,1090.81L1836.63,1092.8L1840.62,1092.8L1846.6,1092.8L1852.58,1094.8L1856.57,1096.79L1860.56,1096.79L1864.55,1098.79L1870.53,1098.79L1876.51,1100.78L1888.48,1100.78L1896.45,1102.78L1902.44,1102.78L1910.41,1102.78L1916.4,1104.77L1928.36,1104.77L1934.34,1104.77L1940.33,1102.78L1944.31,1104.77L1952.29,1102.78L1958.27,1102.78L1966.25,1102.78L1976.22,1102.78L1984.2,1102.78L1990.18,1100.78L2004.14,1100.78L2014.11,1098.79L2036.05,1096.79L2040.03,1094.8L2044.02,1094.8L2052,1092.8L2059.98,1092.8L2067.95,1094.8L2081.91,1096.79L2091.88,1096.79L2099.86,1098.79L2109.83,1100.78L2125.78,1100.78L2135.76,1100.78L2145.73,1102.78L2153.7,1104.77L2161.68,1106.76L2173.64,1108.76L2183.62,1110.75L2191.59,1108.76L2197.57,1108.76L2207.55,1110.75L2209.54,1110.75L2213.53,1112.75L2219.51,1112.75L2223.5,1112.75L2229.48,1114.74L2233.47,1114.74L2239.45,1116.73L2243.44,1118.73L2259.39,1118.73" fill="none" stroke="#000000" style="-webkit-tap-highlight-color: rgba(0, 0, 0, 0); stroke-linecap: round; stroke-linejoin: round; stroke-width: 13;" /><path d="M2293.29,1106.76L2293.29,1102.78L2289.31,1102.78L2285.32,1104.77L2277.34,1104.77L2267.37,1106.76L2259.39,1108.76L2253.41,1112.75L2243.44,1116.73L2225.49,1122.72L2215.52,1126.71L2205.55,1130.69L2195.58,1136.68L2185.61,1142.66L2167.66,1152.63L2155.7,1158.61L2139.74,1164.59L2127.78,1168.58L2111.83,1174.57L2103.85,1178.55L2095.87,1186.53L2087.9,1194.51L2079.92,1198.5L2073.94,1206.47L2069.95,1208.47L2067.95,1208.47L2065.96,1208.47L2065.96,1210.46L2065.96,1214.45L2067.95,1218.44L2067.95,1220.43L2069.95,1222.43L2073.94,1226.41L2077.92,1230.4L2079.92,1232.4L2081.91,1234.39L2083.91,1236.38L2085.9,1238.38L2087.9,1242.37L2089.89,1242.37L2091.88,1246.36L2093.88,1246.36L2095.87,1250.34L2095.87,1252.34L2093.88,1252.34L2091.88,1256.33L2087.9,1258.32L2081.91,1260.31L2077.92,1262.31L2071.94,1266.3L2065.96,1270.29L2057.98,1274.27L2046.02,1280.26L2038.04,1282.25L2020.09,1290.23L2016.1,1292.22L2006.13,1294.22L1998.16,1298.2L1990.18,1302.19L1980.21,1306.18L1972.23,1310.17L1966.25,1312.16L1958.27,1314.16L1952.29,1316.15L1946.31,1320.14L1934.34,1326.12L1926.37,1332.1L1916.4,1336.09L1900.44,1344.07L1890.47,1348.06L1880.5,1352.05L1868.54,1360.02L1856.57,1366.01L1844.61,1371.99L1826.66,1377.97L1812.7,1379.97L1800.73,1383.95L1782.79,1385.95L1768.83,1389.94L1756.86,1391.93L1744.9,1395.92L1732.93,1395.92L1718.97,1397.91L1701.03,1401.9L1689.06,1403.9L1677.1,1405.89L1657.15,1405.89L1641.2,1405.89L1629.24,1407.88L1613.28,1409.88L1599.32,1409.88L1585.36,1413.87L1569.41,1415.86L1559.44,1419.85L1551.46,1421.84L1541.49,1421.84L1529.53,1421.84L1519.56,1421.84L1513.57,1421.84L1507.59,1423.84L1501.61,1423.84L1493.63,1423.84L1485.66,1421.84L1479.67,1421.84L1469.7,1421.84L1457.74,1419.85L1447.77,1415.86L1439.79,1413.87L1429.82,1409.88L1419.85,1407.88L1403.9,1403.9L1393.92,1401.9L1383.95,1399.91L1371.99,1397.91L1346.06,1395.92L1338.09,1395.92L1322.13,1397.91L1308.17,1399.91L1292.22,1401.9L1262.31,1401.9L1244.36,1405.89L1228.41,1405.89L1214.45,1409.88L1198.5,1415.86L1188.52,1419.85L1178.55,1421.84L1170.58,1425.83L1162.6,1427.83L1152.63,1429.82L1146.65,1431.81L1140.66,1431.81L1132.69,1431.81L1120.72,1433.81L1112.75,1435.8L1106.76,1435.8L1098.79,1437.8L1092.8,1439.79L1080.84,1447.77L1074.86,1453.75L1070.87,1455.74L1066.88,1461.73L1064.89,1473.69L1062.89,1481.67L1062.89,1489.64L1060.9,1499.62L1062.89,1507.59L1072.86,1521.55L1074.86,1527.53" fill="none" stroke="#000000" style="-webkit-tap-highlight-color: rgba(0, 0, 0, 0); stroke-linecap: round; stroke-linejoin: round; stroke-width: 13;" /><path d="M2229.48,1206.47L2221.5,1208.47L2225.49,1208.47L2233.47,1206.47L2247.43,1202.48L2267.37,1198.5L2285.32,1196.5L2307.25,1192.51L2341.15,1186.53L2369.07,1182.54L2395,1176.56L2434.88,1168.58L2454.82,1162.6L2474.76,1158.61L2494.71,1154.62L2516.64,1148.64L2546.55,1138.67L2562.51,1134.68L2572.48,1132.69L2582.45,1132.69L2596.41,1136.68L2606.38,1138.67L2616.35,1142.66L2626.32,1146.65L2638.29,1148.64L2646.26,1154.62L2664.21,1162.6L2678.17,1168.58L2688.14,1172.57L2698.11,1178.55L2710.08,1190.52L2718.05,1198.5L2726.03,1204.48L2736,1210.46" fill="none" stroke="#000000" style="-webkit-tap-highlight-color: rgba(0, 0, 0, 0); stroke-linecap: round; stroke-linejoin: round; stroke-width: 13;" /><path d="M1968.24,1036.97L1970.24,1032.98L1970.24,1030.99L1976.22,1027L1982.2,1025L1988.19,1023.01L1994.17,1021.01L2004.14,1017.03L2012.12,1015.03L2020.09,1011.04L2026.08,1009.05L2036.05,1007.06L2042.03,1003.07L2048.01,1001.07L2053.99,997.08L2059.98,993.1L2065.96,987.11L2073.94,979.14L2077.92,973.15L2081.91,969.17L2093.88,963.18L2099.86,959.2L2107.84,953.21L2113.82,949.22L2121.8,945.24L2133.76,939.25L2145.73,935.27L2155.7,933.27L2173.64,925.29L2183.62,923.3L2191.59,921.31L2201.56,917.32L2213.53,915.32L2227.49,911.34L2245.43,907.35L2255.41,907.35L2267.37,905.35L2277.34,903.36L2293.29,903.36L2303.27,905.35L2313.24,907.35L2321.21,909.34L2327.2,913.33L2339.16,915.32L2347.14,915.32L2355.11,915.32L2361.1,917.32L2369.07,917.32L2375.06,917.32L2379.04,917.32L2385.03,915.32L2391.01,913.33L2398.99,911.34L2404.97,909.34L2406.96,907.35L2410.95,907.35L2414.94,903.36L2418.93,899.37L2424.91,895.38L2426.9,891.39L2430.89,889.4L2434.88,885.41L2436.87,881.42L2438.87,877.43L2442.86,873.45L2444.85,869.46L2446.85,867.46L2448.84,865.47L2452.83,863.48L2454.82,863.48L2458.81,859.49L2462.8,855.5L2464.79,851.51L2468.78,849.52L2470.78,845.53L2472.77,841.54L2476.76,837.55L2480.75,833.56L2484.73,829.57L2488.72,827.58L2498.69,821.6L2500.69,819.6L2506.67,817.61L2512.65,817.61L2524.62,813.62L2530.6,811.63L2536.58,811.63L2544.56,809.63L2558.52,807.64L2562.51,807.64L2570.48,805.64L2578.46,805.64L2588.43,801.66L2594.41,799.66L2604.38,795.67L2612.36,793.68L2620.34,789.69L2634.3,787.7L2644.27,787.7L2656.23,787.7L2668.2,787.7L2688.14,785.7L2702.1,785.7L2716.06,785.7L2730.02,785.7" fill="none" stroke="#000000" style="-webkit-tap-highlight-color: rgba(0, 0, 0, 0); stroke-linecap: round; stroke-linejoin: round; stroke-width: 13;" /><path d="M2177.63,680.01L2181.62,676.02L2183.62,674.03L2185.61,672.03L2187.6,674.03L2189.6,678.02L2191.59,684L2191.59,689.98L2191.59,697.96L2193.59,703.94L2197.57,713.91L2197.57,719.9L2197.57,723.88L2199.57,729.87L2199.57,733.85L2199.57,737.84L2199.57,741.83L2201.56,741.83" fill="none" stroke="#000000" style="-webkit-tap-highlight-color: rgba(0, 0, 0, 0); stroke-linecap: round; stroke-linejoin: round; stroke-width: 13;" /><path d="M2203.56,684L2201.56,682.01L2203.56,680.01L2207.55,678.02L2215.52,676.02L2221.5,676.02L2227.49,676.02L2235.46,678.02L2239.45,678.02L2245.43,680.01L2255.41,678.02L2257.4,678.02L2259.39,678.02L2261.39,676.02L2265.38,674.03L2269.36,674.03L2271.36,674.03L2275.35,674.03L2277.34,674.03L2277.34,672.03L2279.34,670.04L2283.32,668.05L2283.32,666.05L2287.31,666.05L2291.3,664.06L2295.29,666.05L2303.27,664.06L2309.25,662.06L2313.24,662.06L2317.22,660.07L2323.21,660.07L2325.2,660.07L2327.2,660.07L2331.18,662.06L2337.17,664.06L2343.15,664.06L2345.14,666.05L2347.14,666.05L2347.14,668.05L2349.13,670.04L2349.13,672.03L2349.13,676.02L2351.13,680.01L2351.13,682.01L2353.12,685.99L2355.11,689.98L2357.11,695.97L2359.1,701.95L2361.1,705.94L2365.08,709.92L2367.08,709.92L2369.07,713.91L2371.07,715.91L2373.06,719.9L2373.06,723.88L2375.06,727.87L2375.06,729.87L2375.06,731.86L2375.06,735.85L2375.06,737.84L2375.06,741.83L2375.06,747.81L2375.06,749.81L2373.06,753.8L2373.06,757.78L2373.06,759.78L2373.06,761.77L2373.06,767.76L2373.06,769.75L2373.06,771.74L2375.06,773.74L2377.05,773.74L2377.05,775.73L2381.04,777.73L2383.03,779.72L2385.03,779.72L2389.01,781.71L2393,783.71L2396.99,785.7L2398.99,787.7L2402.97,787.7L2406.96,791.69L2408.96,791.69L2410.95,793.68L2412.94,793.68L2416.93,795.67L2420.92,797.67L2424.91,799.66L2428.9,801.66L2434.88,803.65L2442.86,803.65L2446.85,805.64L2448.84,805.64L2452.83,807.64L2454.82,807.64L2458.81,811.63L2458.81,813.62L2460.8,815.62L2462.8,817.61L2462.8,821.6L2462.8,825.59L2462.8,827.58L2462.8,831.57L2462.8,835.56L2464.79,841.54L2464.79,843.53L2466.79,847.52L2468.78,851.51" fill="none" stroke="#000000" style="-webkit-tap-highlight-color: rgba(0, 0, 0, 0); stroke-linecap: round; stroke-linejoin: round; stroke-width: 13;" /><path d="M737.84,470.62L735.85,468.63L737.84,468.63L741.83,468.63L745.82,470.62L751.8,472.62L757.78,474.61L763.77,474.61L769.75,474.61L781.71,474.61L785.7,472.62L793.68,472.62L803.65,470.62L817.61,468.63L827.58,468.63L837.55,468.63L845.53,468.63L855.5,466.64L863.48,466.64L875.44,468.63L883.42,470.62L891.39,470.62L903.36,472.62L911.34,472.62L919.31,472.62L927.29,474.61L933.27,476.61L939.25,478.6L953.21,478.6L959.2,478.6L967.17,478.6L979.14,482.59L987.11,482.59L995.09,482.59L1003.07,482.59L1011.04,482.59L1017.03,482.59L1025,482.59L1030.99,484.58L1034.97,488.57L1042.95,490.57L1048.93,490.57L1054.92,494.55L1058.9,498.54L1064.89,502.53L1070.87,506.52L1080.84,510.51L1086.82,512.5L1092.8,512.5L1096.79,516.49L1102.78,518.48L1108.76,520.48L1114.74,522.47L1120.72,522.47L1124.71,522.47L1132.69,520.48L1136.68,522.47L1142.66,522.47L1146.65,524.47L1156.62,524.47L1164.59,528.45L1170.58,526.46L1176.56,528.45L1182.54,528.45L1190.52,532.44L1198.5,536.43L1206.47,538.43L1214.45,540.42L1224.42,540.42L1232.4,544.41L1242.37,544.41L1246.36,544.41L1252.34,544.41L1260.31,544.41L1264.3,542.41L1270.29,542.41L1274.27,542.41L1282.25,544.41L1288.23,546.4L1294.22,544.41L1298.2,542.41L1304.19,544.41L1312.16,546.4L1318.15,548.4L1324.13,548.4L1332.1,548.4L1340.08,552.38L1348.06,552.38L1354.04,554.38L1362.02,556.37L1369.99,556.37L1383.95,558.37L1391.93,560.36L1399.91,560.36L1407.88,562.36L1421.84,562.36L1429.82,562.36L1437.8,564.35L1443.78,566.34L1451.76,568.34L1461.73,570.33L1469.7,572.33L1477.68,574.32L1485.66,578.31L1501.61,584.29L1513.57,588.28L1521.55,590.27L1531.52,594.26L1539.5,598.25L1553.46,600.24L1561.43,602.24L1567.42,602.24L1571.41,604.23L1579.38,606.23L1583.37,608.22L1589.35,610.22L1595.34,612.21L1603.31,614.2L1611.29,616.2L1623.25,618.19L1631.23,620.19L1639.21,620.19L1645.19,622.18L1651.17,624.17L1655.16,626.17L1661.14,628.16L1665.13,628.16L1669.12,630.16L1673.11,632.15L1685.07,640.13L1687.07,640.13L1691.06,642.12L1695.04,644.12L1699.03,644.12L1703.02,646.11L1707.01,646.11L1712.99,648.1L1714.99,648.1L1714.99,646.11L1716.98,646.11L1718.97,644.12L1720.97,644.12L1724.96,644.12L1728.94,642.12L1732.93,644.12L1740.91,642.12L1746.89,644.12L1754.87,644.12L1764.84,646.11L1770.82,646.11L1778.8,646.11L1784.78,646.11L1792.76,644.12L1798.74,644.12L1808.71,642.12L1816.69,642.12L1822.67,644.12L1832.64,644.12L1840.62,644.12L1846.6,644.12L1850.59,646.11L1856.57,646.11L1860.56,648.1L1864.55,648.1L1866.54,650.1L1868.54,650.1L1872.52,650.1L1874.52,652.09L1880.5,656.08L1884.49,656.08L1888.48,658.08L1896.45,662.06L1902.44,662.06L1906.43,666.05L1912.41,668.05L1918.39,670.04L1930.36,674.03L1938.33,678.02L1944.31,682.01L1950.3,684L1954.29,687.99L1960.27,689.98L1966.25,691.98L1972.23,695.97L1978.22,697.96L1982.2,697.96L1986.19,701.95L1988.19,701.95L1990.18,701.95L2000.15,705.94L2002.15,705.94L2006.13,707.93L2008.13,707.93L2016.1,709.92L2018.1,709.92L2024.08,711.92L2028.07,713.91L2032.06,715.91L2036.05,717.9L2040.03,717.9L2044.02,717.9L2048.01,719.9L2052,721.89L2055.99,723.88L2059.98,723.88L2063.97,723.88L2067.95,723.88L2069.95,723.88L2073.94,723.88L2077.92,723.88L2079.92,723.88L2083.91,723.88L2085.9,723.88L2087.9,721.89L2091.88,719.9L2093.88,717.9L2097.87,713.91L2099.86,711.92L2101.85,707.93L2105.84,705.94L2109.83,701.95L2111.83,699.95L2113.82,697.96L2115.81,695.97L2119.8,691.98L2125.78,689.98L2131.77,691.98L2137.75,691.98L2143.73,693.97L2149.71,693.97L2153.7,693.97L2155.7,695.97L2159.69,697.96L2161.68,697.96L2165.67,699.95L2167.66,699.95L2169.66,699.95L2169.66,701.95L2171.65,703.94L2173.64,703.94L2173.64,705.94L2175.64,709.92L2177.63,713.91L2177.63,717.9L2177.63,719.9L2177.63,721.89L2175.64,729.87L2175.64,733.85L2173.64,733.85L2173.64,737.84L2173.64,741.83L2171.65,747.81L2171.65,749.81L2171.65,751.8L2173.64,753.8L2177.63,753.8L2181.62,753.8L2187.6,753.8L2191.59,753.8L2195.58,753.8L2199.57,755.79L2211.53,757.78" fill="none" stroke="#000000" style="-webkit-tap-highlight-color: rgba(0, 0, 0, 0); stroke-linecap: round; stroke-linejoin: round; stroke-width: 13;" /><path d="M1764.84,572.33L1762.85,572.33L1758.86,572.33L1756.86,570.33L1754.87,570.33L1754.87,574.32L1756.86,580.3L1756.86,588.28L1756.86,594.26L1754.87,596.26L1754.87,598.25L1758.86,602.24L1760.85,604.23" fill="none" stroke="#000000" style="-webkit-tap-highlight-color: rgba(0, 0, 0, 0); stroke-linecap: round; stroke-linejoin: round; stroke-width: 13;" /><path d="M1766.83,580.3L1768.83,578.31L1774.81,576.31L1778.8,576.31L1782.79,582.3L1784.78,584.29L1784.78,592.27L1784.78,596.26L1784.78,600.24L1784.78,602.24L1786.78,606.23L1784.78,610.22L1784.78,612.21L1782.79,618.19L1782.79,624.17L1784.78,622.18L1792.76,622.18L1800.73,620.19L1808.71,620.19L1818.68,620.19L1830.65,620.19L1836.63,622.18L1842.61,624.17L1850.59,626.17L1852.58,628.16L1854.58,628.16L1856.57,628.16L1858.57,632.15L1858.57,634.15L1858.57,636.14L1860.56,640.13L1860.56,644.12L1862.55,648.1L1864.55,650.1L1868.54,652.09" fill="none" stroke="#000000" style="-webkit-tap-highlight-color: rgba(0, 0, 0, 0); stroke-linecap: round; stroke-linejoin: round; stroke-width: 13;" /><path d="M1699.03,620.19L1701.03,620.19L1705.01,618.19L1714.99,618.19L1728.94,620.19L1752.87,620.19L1768.83,624.17L1782.79,624.17L1790.76,626.17" fill="none" stroke="#000000" style="-webkit-tap-highlight-color: rgba(0, 0, 0, 0); stroke-linecap: round; stroke-linejoin: round; stroke-width: 13;" /><path d="M983.13,901.36L983.13,903.36L981.13,903.36L983.13,905.35L989.11,907.35L999.08,911.34L1017.03,913.33L1032.98,913.33L1050.93,913.33L1072.86,913.33L1094.8,915.32L1128.7,917.32L1148.64,919.31L1168.58,919.31L1186.53,919.31L1214.45,921.31L1230.4,923.3L1244.36,927.29L1260.31,929.28L1276.27,929.28L1294.22,927.29L1314.16,923.3L1326.12,923.3L1336.09,923.3L1350.05,921.31L1360.02,919.31L1368,921.31L1377.97,921.31L1383.95,923.3L1391.93,927.29L1403.9,931.28L1411.87,929.28L1419.85,927.29L1429.82,927.29L1435.8,929.28L1441.78,927.29L1445.77,925.29L1449.76,921.31L1455.74,909.34L1457.74,907.35L1459.73,901.36L1461.73,897.38L1469.7,887.41L1473.69,883.42L1479.67,879.43L1485.66,877.43L1491.64,875.44L1499.62,871.45L1505.6,865.47L1509.59,863.48L1515.57,861.48L1529.53,857.49L1539.5,853.5L1553.46,851.51L1563.43,849.52L1573.4,847.52L1583.37,845.53L1599.32,847.52L1609.29,851.51L1619.27,853.5L1635.22,855.5L1645.19,853.5L1651.17,853.5L1659.15,851.51L1667.13,849.52L1677.1,847.52L1689.06,845.53L1695.04,843.53L1699.03,841.54L1701.03,839.55L1705.01,839.55L1707.01,837.55L1712.99,833.56L1716.98,833.56L1722.96,831.57L1730.94,829.57L1738.92,827.58L1746.89,827.58L1758.86,823.59L1768.83,823.59L1780.79,823.59L1792.76,825.59L1806.72,827.58L1818.68,827.58L1834.64,831.57L1844.61,833.56L1854.58,835.56L1862.55,839.55L1874.52,843.53L1880.5,847.52L1884.49,851.51L1890.47,855.5L1896.45,859.49L1904.43,861.48L1908.42,865.47L1914.4,867.46L1918.39,867.46L1928.36,867.46L1942.32,861.48L1946.31,861.48L1948.3,863.48L1954.29,861.48L1962.26,861.48L1966.25,861.48L1972.23,861.48L1976.22,861.48L1980.21,861.48L1984.2,861.48L1988.19,861.48L1990.18,863.48L1996.16,863.48L2004.14,861.48L2010.12,859.49L2016.1,857.49L2022.09,857.49L2028.07,859.49L2032.06,859.49L2036.05,861.48L2040.03,861.48L2042.03,863.48L2046.02,867.46L2046.02,869.46L2046.02,873.45L2046.02,877.43L2044.02,883.42L2044.02,889.4L2042.03,893.39L2042.03,897.38L2040.03,901.36L2040.03,907.35L2040.03,911.34L2040.03,915.32L2042.03,919.31L2044.02,923.3L2046.02,925.29L2048.01,929.28L2052,933.27L2053.99,935.27L2059.98,937.26L2063.97,939.25L2065.96,941.25L2067.95,943.24L2071.94,945.24L2073.94,945.24L2073.94,947.23L2077.92,949.22L2079.92,953.21L2079.92,959.2L2081.91,963.18L2081.91,967.17L2081.91,973.15L2081.91,977.14L2083.91,981.13L2081.91,985.12" fill="none" stroke="#000000" style="-webkit-tap-highlight-color: rgba(0, 0, 0, 0); stroke-linecap: round; stroke-linejoin: round; stroke-width: 13;" /><path d="M2016.1,871.45L2020.09,869.46L2022.09,869.46L2028.07,869.46L2032.06,871.45L2034.05,873.45L2038.04,879.43L2040.03,891.39L2042.03,901.36L2044.02,911.34L2046.02,921.31L2048.01,939.25L2048.01,953.21L2048.01,971.16L2046.02,989.11L2044.02,1003.07L2042.03,1019.02L2042.03,1023.01L2044.02,1028.99" fill="none" stroke="#000000" style="-webkit-tap-highlight-color: rgba(0, 0, 0, 0); stroke-linecap: round; stroke-linejoin: round; stroke-width: 13;" /><path d="M2002.15,863.48L2000.15,863.48L2002.15,867.46L2004.14,877.43L2006.13,887.41L2004.14,899.37L2004.14,923.3L2004.14,929.28L2004.14,939.25L2002.15,951.22L2002.15,967.17L2000.15,989.11L2000.15,999.08L2000.15,1011.04L2000.15,1021.01L2000.15,1030.99L2000.15,1036.97" fill="none" stroke="#000000" style="-webkit-tap-highlight-color: rgba(0, 0, 0, 0); stroke-linecap: round; stroke-linejoin: round; stroke-width: 13;" /><path d="M1912.41,967.17L1916.4,969.17L1922.38,977.14L1924.37,983.13L1924.37,993.1L1924.37,1003.07L1928.36,1023.01L1930.36,1034.97L1930.36,1046.94L1932.35,1056.91L1934.34,1062.89L1934.34,1064.89" fill="none" stroke="#000000" style="-webkit-tap-highlight-color: rgba(0, 0, 0, 0); stroke-linecap: round; stroke-linejoin: round; stroke-width: 13;" /><path d="M1810.71,969.17L1808.71,967.17L1806.72,965.18L1804.72,965.18L1804.72,961.19L1806.72,961.19L1818.68,963.18L1830.65,963.18L1844.61,965.18L1860.56,965.18L1876.51,963.18L1884.49,963.18L1892.47,963.18L1900.44,965.18L1908.42,967.17L1910.41,967.17" fill="none" stroke="#000000" style="-webkit-tap-highlight-color: rgba(0, 0, 0, 0); stroke-linecap: round; stroke-linejoin: round; stroke-width: 13;" /><path d="M723.88,634.15L727.87,632.15L739.84,630.16L743.83,632.15L751.8,636.14L765.76,640.13L773.74,642.12L783.71,644.12L787.7,644.12L793.68,648.1L797.67,656.08L803.65,664.06L807.64,672.03L813.62,678.02L821.6,687.99L825.59,693.97L831.57,703.94L837.55,715.91L845.53,723.88L853.5,735.85L859.49,743.83L863.48,753.8L867.46,767.76L873.45,783.71L875.44,795.67L875.44,805.64L879.43,815.62L881.42,825.59L883.42,835.56L887.41,851.51L891.39,859.49L893.39,867.46L895.38,881.42L899.37,889.4L903.36,897.38L907.35,903.36L911.34,911.34L915.32,919.31L919.31,931.28L923.3,941.25L925.29,945.24L931.28,953.21L933.27,957.2L935.27,963.18L935.27,971.16L937.26,977.14L941.25,983.13L943.24,989.11L945.24,993.1L947.23,999.08L949.22,1005.06L953.21,1013.04L953.21,1019.02L955.21,1023.01L959.2,1028.99L959.2,1030.99L963.18,1036.97L965.18,1042.95L965.18,1048.93L967.17,1052.92L969.17,1062.89L971.16,1066.88L973.15,1068.87" fill="none" stroke="#000000" style="-webkit-tap-highlight-color: rgba(0, 0, 0, 0); stroke-linecap: round; stroke-linejoin: round; stroke-width: 13;" /><path d="M729.87,628.16L727.87,626.17L723.88,626.17L721.89,628.16L719.9,634.15L713.91,648.1L709.92,656.08L707.93,666.05L703.94,678.02L701.95,691.98L697.96,699.95L695.97,705.94L691.98,709.92L689.98,713.91L687.99,721.89L689.98,727.87L689.98,733.85L689.98,741.83L689.98,751.8L689.98,759.78L689.98,765.76L689.98,771.74L691.98,777.73L691.98,783.71L693.97,789.69L693.97,795.67L691.98,801.66L693.97,809.63L695.97,815.62L695.97,819.6L695.97,823.59L695.97,829.57L697.96,839.55L697.96,845.53L701.95,851.51L703.94,857.49L707.93,861.48L709.92,867.46L713.91,873.45L715.91,879.43L717.9,883.42L721.89,889.4L723.88,893.39L727.87,903.36L731.86,913.33L735.85,931.28L737.84,941.25L739.84,947.23L743.83,953.21L749.81,963.18L755.79,981.13L759.78,993.1L763.77,1003.07L767.76,1013.04L773.74,1025L777.73,1030.99L787.7,1038.96" fill="none" stroke="#000000" style="-webkit-tap-highlight-color: rgba(0, 0, 0, 0); stroke-linecap: round; stroke-linejoin: round; stroke-width: 13;" /><path d="M995.09,953.21L993.1,949.22L995.09,949.22L1003.07,949.22L1021.01,953.21L1034.97,953.21L1048.93,953.21L1062.89,953.21L1098.79,957.2L1108.76,957.2L1128.7,957.2L1144.65,953.21L1166.59,951.22L1178.55,951.22L1188.52,951.22L1200.49,953.21L1212.45,953.21L1224.42,953.21L1240.37,951.22L1250.34,951.22L1260.31,951.22L1274.27,953.21L1282.25,955.21L1290.23,957.2L1298.2,957.2L1306.18,957.2L1312.16,957.2L1322.13,959.2L1332.1,959.2L1340.08,959.2L1352.05,957.2L1360.02,955.21L1368,953.21L1375.98,953.21L1383.95,953.21L1393.92,953.21L1407.88,953.21L1415.86,951.22L1423.84,951.22L1431.81,947.23L1437.8,945.24L1443.78,943.24L1447.77,941.25L1453.75,939.25L1457.74,941.25L1465.71,945.24L1471.7,947.23L1477.68,947.23L1481.67,947.23L1483.66,947.23L1487.65,951.22L1489.64,953.21L1491.64,955.21L1493.63,959.2L1495.63,965.18L1495.63,967.17L1497.62,973.15L1497.62,979.14L1493.63,993.1L1493.63,1001.07L1491.64,1013.04L1491.64,1025L1491.64,1036.97" fill="none" stroke="#000000" style="-webkit-tap-highlight-color: rgba(0, 0, 0, 0); stroke-linecap: round; stroke-linejoin: round; stroke-width: 13;" /><path d="M1541.49,915.32L1541.49,917.32L1541.49,923.3L1543.49,937.26L1545.48,945.24L1547.48,955.21L1551.46,967.17L1553.46,975.15L1563.43,987.11L1571.41,991.1L1579.38,997.08L1587.36,1001.07L1597.33,1009.05L1607.3,1013.04L1617.27,1017.03L1629.24,1019.02L1641.2,1023.01L1655.16,1030.99L1663.14,1032.98L1673.11,1036.97L1685.07,1038.96L1703.02,1040.96L1718.97,1038.96L1732.93,1040.96L1746.89,1042.95L1756.86,1044.94" fill="none" stroke="#000000" style="-webkit-tap-highlight-color: rgba(0, 0, 0, 0); stroke-linecap: round; stroke-linejoin: round; stroke-width: 13;" /><path d="M1565.42,911.34L1567.42,911.34L1577.39,911.34L1591.35,909.34L1607.3,911.34L1631.23,913.33L1655.16,917.32L1663.14,917.32L1683.08,921.31L1695.04,925.29L1705.01,927.29L1714.99,929.28L1722.96,933.27L1730.94,933.27L1736.92,935.27L1738.92,935.27L1740.91,937.26L1744.9,943.24L1748.89,945.24L1754.87,945.24L1758.86,947.23L1760.85,949.22L1760.85,955.21L1758.86,961.19L1756.86,967.17L1756.86,975.15L1752.87,985.12L1750.88,993.1L1748.89,1001.07L1746.89,1011.04L1744.9,1017.03L1744.9,1027L1742.9,1034.97L1744.9,1040.96L1744.9,1042.95L1746.89,1046.94L1748.89,1048.93" fill="none" stroke="#000000" style="-webkit-tap-highlight-color: rgba(0, 0, 0, 0); stroke-linecap: round; stroke-linejoin: round; stroke-width: 13;" /></svg>