<?xml version="1.0" encoding="utf-8" ?>
<svg baseProfile="full" height="1542" version="1.1" width="2736" xmlns="http://www.w3.org/2000/svg" xmlns:ev="http://www.w3.org/2001/xml-events" xmlns:xlink="http://www.w3.org/1999/xlink"><defs /><path d="M671.74,299.1L666.84,299.1L661.94,299.1L661.94,304L657.03,323.61L657.03,333.42L652.13,353.03L647.23,367.74L647.23,377.55L647.23,392.26L647.23,406.97L642.32,416.77L642.32,431.48L637.42,436.39L637.42,441.29L637.42,451.1L632.52,470.71L632.52,480.52L632.52,495.23L627.61,509.94L627.61,519.74L622.71,529.55L622.71,544.26L617.81,558.97L612.9,568.77L612.9,583.48L608,598.19L608,608L603.1,622.71L598.19,637.42L598.19,652.13L593.29,666.84L588.39,676.65L583.48,691.35L583.48,701.16L578.58,715.87L573.68,730.58L568.77,750.19L563.87,764.9L563.87,779.61L558.97,794.32L558.97,809.03L554.06,823.74L554.06,838.45L554.06,853.16L549.16,867.87L549.16,887.48L549.16,892.39L549.16,902.19L549.16,916.9L544.26,931.61L544.26,946.32L544.26,965.94L539.35,980.65L539.35,995.35L539.35,1000.26L539.35,1005.16L539.35,1000.26" fill="none" stroke="#000000" style="-webkit-tap-highlight-color: rgba(0, 0, 0, 0); stroke-linecap: round; stroke-linejoin: round; stroke-width: 13;" /><path d="M671.74,313.81L661.94,318.71L657.03,318.71L657.03,313.81L661.94,313.81L666.84,313.81L676.65,313.81L681.55,313.81L691.35,313.81L701.16,318.71L706.06,318.71L710.97,323.61L715.87,323.61L720.77,328.52L720.77,333.42L720.77,338.32L725.68,343.23L725.68,353.03L725.68,357.94L725.68,367.74L725.68,377.55L725.68,387.35L725.68,397.16L725.68,406.97L725.68,416.77L725.68,426.58L730.58,436.39L730.58,441.29L730.58,451.1L730.58,456L730.58,465.81L735.48,470.71L735.48,475.61L740.39,480.52L740.39,485.42L745.29,485.42L750.19,485.42L755.1,485.42L764.9,485.42L769.81,485.42L779.61,485.42L789.42,480.52L799.23,480.52L804.13,480.52L809.03,480.52L813.94,480.52L823.74,475.61L828.65,475.61L838.45,475.61L838.45,470.71L843.35,470.71L853.16,470.71L858.06,470.71L867.87,465.81L877.68,465.81L882.58,460.9L887.48,460.9L892.39,460.9L897.29,460.9L902.19,460.9L907.1,460.9L907.1,456L912,456L916.9,456L921.81,456L926.71,456L936.52,456L941.42,456L946.32,456L951.23,456L961.03,456L965.94,456L970.84,456L975.74,456L980.65,456L985.55,456L990.45,460.9L995.35,460.9L1000.26,460.9L1005.16,465.81L1010.06,465.81L1014.97,470.71L1019.87,470.71L1024.77,470.71L1029.68,470.71L1029.68,475.61L1034.58,475.61L1039.48,480.52L1044.39,480.52L1054.19,485.42L1059.1,485.42L1064,485.42L1068.9,490.32L1078.71,495.23L1083.61,495.23L1093.42,500.13L1098.32,500.13L1103.23,500.13L1108.13,505.03L1113.03,509.94L1122.84,509.94L1127.74,514.84L1137.55,514.84L1142.45,514.84L1152.26,519.74L1157.16,519.74L1166.97,524.65L1176.77,524.65L1181.68,529.55L1191.48,529.55L1196.39,529.55L1206.19,534.45L1216,539.35L1225.81,539.35L1230.71,539.35L1245.42,539.35L1250.32,544.26L1255.23,544.26L1265.03,549.16L1274.84,554.06L1289.55,554.06L1299.35,554.06L1304.26,554.06L1314.06,554.06L1323.87,558.97L1328.77,558.97L1338.58,558.97L1343.48,558.97L1348.39,563.87L1353.29,563.87L1358.19,563.87L1368,563.87L1372.9,563.87L1382.71,563.87L1387.61,568.77L1392.52,568.77L1397.42,568.77L1402.32,568.77L1412.13,568.77L1417.03,573.68L1421.94,573.68L1426.84,573.68L1431.74,578.58L1436.65,578.58L1446.45,578.58L1451.35,578.58L1456.26,583.48L1466.06,583.48L1470.97,583.48L1475.87,588.39L1480.77,588.39L1490.58,588.39L1495.48,588.39L1505.29,588.39L1510.19,593.29L1520,593.29L1524.9,593.29L1534.71,593.29L1539.61,598.19L1549.42,598.19L1559.23,603.1L1569.03,603.1L1578.84,608L1583.74,608L1593.55,612.9L1603.35,612.9L1613.16,612.9L1622.97,612.9L1627.87,617.81L1637.68,617.81L1642.58,622.71L1652.39,622.71L1662.19,622.71L1667.1,622.71L1672,622.71L1676.9,622.71L1681.81,622.71L1691.61,627.61L1696.52,627.61L1706.32,627.61L1711.23,627.61L1721.03,627.61L1725.94,627.61L1735.74,627.61L1740.65,627.61L1745.55,627.61L1750.45,632.52L1755.35,632.52L1760.26,632.52L1765.16,632.52L1770.06,632.52L1774.97,632.52L1779.87,632.52L1784.77,632.52L1789.68,632.52L1794.58,632.52L1799.48,632.52L1804.39,632.52L1809.29,632.52L1814.19,632.52L1819.1,632.52L1824,632.52L1828.9,632.52L1833.81,632.52L1838.71,632.52L1843.61,632.52L1848.52,637.42L1853.42,637.42L1858.32,642.32L1863.23,642.32L1868.13,647.23L1873.03,652.13L1877.94,652.13L1882.84,657.03L1887.74,657.03L1892.65,657.03L1897.55,661.94L1907.35,661.94L1912.26,666.84L1922.06,666.84L1926.97,666.84L1931.87,666.84L1941.68,671.74L1946.58,676.65L1956.39,676.65L1961.29,676.65L1976,681.55L1985.81,681.55L1995.61,681.55L2005.42,681.55L2010.32,681.55L2025.03,686.45L2034.84,686.45L2044.65,686.45L2049.55,686.45L2059.35,686.45L2064.26,686.45L2074.06,686.45L2078.97,686.45L2088.77,686.45L2093.68,686.45L2103.48,686.45L2108.39,681.55L2113.29,681.55L2118.19,681.55L2123.1,681.55L2128,681.55L2132.9,681.55L2132.9,686.45L2137.81,686.45L2142.71,686.45L2147.61,686.45L2147.61,691.35L2152.52,696.26L2152.52,701.16L2152.52,706.06L2152.52,710.97L2152.52,715.87L2152.52,720.77L2152.52,725.68L2157.42,735.48L2162.32,740.39L2167.23,740.39L2172.13,740.39L2177.03,740.39L2181.94,740.39L2186.84,740.39L2191.74,735.48L2191.74,730.58L2196.65,720.77L2196.65,715.87L2196.65,710.97L2196.65,706.06L2196.65,701.16L2196.65,696.26L2196.65,691.35L2196.65,686.45L2196.65,681.55L2201.55,681.55L2206.45,681.55L2211.35,681.55L2216.26,681.55L2221.16,681.55L2226.06,681.55L2230.97,681.55L2240.77,681.55L2245.68,681.55L2255.48,681.55L2260.39,681.55L2265.29,681.55L2270.19,676.65L2280,676.65L2284.9,676.65L2289.81,676.65L2299.61,676.65L2304.52,676.65L2314.32,671.74L2319.23,671.74L2324.13,671.74L2329.03,671.74L2333.94,671.74L2338.84,666.84L2343.74,666.84L2348.65,666.84L2348.65,671.74L2348.65,676.65L2348.65,681.55L2348.65,691.35L2348.65,696.26L2348.65,706.06L2343.74,710.97L2343.74,720.77L2348.65,725.68L2348.65,730.58L2353.55,735.48L2353.55,740.39L2353.55,745.29L2358.45,750.19L2358.45,755.1L2358.45,760L2363.35,760L2363.35,764.9L2368.26,769.81L2373.16,774.71L2373.16,779.61L2378.06,779.61L2387.87,784.52L2392.77,784.52L2397.68,784.52L2407.48,784.52L2412.39,784.52L2417.29,789.42L2422.19,789.42L2427.1,789.42L2432,789.42L2436.9,789.42L2441.81,794.32L2446.71,794.32L2451.61,799.23L2456.52,799.23L2461.42,799.23L2466.32,799.23L2471.23,804.13L2476.13,804.13L2481.03,804.13L2485.94,804.13L2490.84,804.13L2495.74,804.13L2505.55,804.13L2510.45,804.13L2515.35,804.13L2520.26,799.23L2525.16,799.23L2530.06,799.23L2534.97,799.23L2539.87,799.23L2544.77,799.23L2549.68,799.23L2554.58,794.32L2559.48,794.32L2564.39,794.32L2574.19,794.32L2579.1,794.32L2584,794.32L2588.9,794.32L2593.81,794.32L2603.61,794.32L2608.52,794.32L2613.42,794.32L2623.23,794.32L2628.13,794.32L2637.94,794.32L2642.84,794.32L2647.74,789.42L2652.65,789.42L2662.45,789.42L2667.35,789.42L2672.26,789.42L2682.06,789.42L2691.87,789.42L2696.77,789.42L2706.58,789.42L2716.39,789.42L2721.29,789.42L2731.1,789.42" fill="none" stroke="#000000" style="-webkit-tap-highlight-color: rgba(0, 0, 0, 0); stroke-linecap: round; stroke-linejoin: round; stroke-width: 13;" /><path d="M657.03,304L657.03,308.9L657.03,313.81L647.23,313.81L642.32,313.81L637.42,313.81L632.52,313.81L627.61,313.81L622.71,313.81L612.9,318.71L608,323.61L603.1,328.52L593.29,333.42L588.39,338.32L588.39,343.23L583.48,353.03L578.58,357.94L573.68,367.74L573.68,372.65L568.77,372.65L568.77,377.55L563.87,382.45L558.97,392.26L558.97,397.16L554.06,402.06L554.06,406.97L554.06,411.87L554.06,416.77L549.16,416.77L549.16,421.68L544.26,426.58L539.35,426.58L534.45,426.58L529.55,426.58L524.65,426.58L519.74,426.58L514.84,431.48L509.94,431.48L505.03,426.58L505.03,421.68L500.13,416.77L500.13,411.87L495.23,406.97L495.23,402.06L490.32,402.06L485.42,397.16L480.52,392.26L475.61,387.35L470.71,387.35L465.81,382.45L460.9,382.45L456,382.45L451.1,382.45L446.19,377.55L441.29,377.55L436.39,377.55L426.58,377.55L421.68,377.55L416.77,377.55L406.97,377.55L397.16,377.55L392.26,382.45L387.35,387.35L377.55,392.26L377.55,397.16L372.65,397.16L367.74,402.06L362.84,402.06L357.94,406.97L353.03,406.97L348.13,406.97L343.23,406.97L338.32,411.87L333.42,411.87L323.61,411.87L313.81,416.77L304,416.77L294.19,416.77L284.39,416.77L279.48,416.77L274.58,416.77L264.77,416.77L259.87,416.77L250.06,416.77L240.26,416.77L235.35,421.68L225.55,421.68L220.65,421.68L215.74,421.68L210.84,416.77L205.94,421.68L201.03,421.68L191.23,421.68L186.32,421.68L181.42,426.58L176.52,426.58L166.71,431.48L161.81,436.39L152,441.29L147.1,446.19L137.29,456L127.48,460.9L117.68,465.81L107.87,475.61L102.97,475.61L93.16,480.52L83.35,485.42L73.55,495.23L58.84,505.03L49.03,509.94L44.13,514.84L39.23,514.84L34.32,514.84L34.32,519.74L29.42,524.65L29.42,529.55L29.42,534.45L29.42,539.35L29.42,544.26L29.42,549.16L34.32,554.06L39.23,558.97L39.23,563.87L39.23,568.77L39.23,573.68L39.23,578.58L34.32,583.48L29.42,588.39L24.52,593.29L9.81,603.1L4.9,612.9" fill="none" stroke="#000000" style="-webkit-tap-highlight-color: rgba(0, 0, 0, 0); stroke-linecap: round; stroke-linejoin: round; stroke-width: 13;" /><path d="M509.94,451.1L505.03,451.1L505.03,456L505.03,460.9L505.03,465.81L500.13,480.52L495.23,495.23L490.32,514.84L490.32,524.65L490.32,539.35L485.42,554.06L485.42,573.68L485.42,583.48L485.42,603.1L480.52,612.9L480.52,632.52L480.52,642.32L475.61,661.94L475.61,671.74L475.61,681.55L470.71,696.26L465.81,710.97L465.81,720.77L460.9,730.58L460.9,745.29L456,760L456,774.71L456,784.52L456,794.32L451.1,809.03L451.1,823.74L451.1,838.45L451.1,853.16L451.1,867.87L451.1,882.58L446.19,897.29L441.29,907.1L441.29,912" fill="none" stroke="#000000" style="-webkit-tap-highlight-color: rgba(0, 0, 0, 0); stroke-linecap: round; stroke-linejoin: round; stroke-width: 13;" /><path d="M382.45,725.68L372.65,720.77L367.74,720.77L372.65,720.77L372.65,725.68L377.55,735.48L382.45,740.39L387.35,745.29L392.26,755.1L397.16,764.9L402.06,774.71L406.97,784.52L411.87,794.32L416.77,804.13L421.68,818.84L426.58,823.74L431.48,833.55L431.48,838.45L436.39,843.35L441.29,858.06L446.19,867.87L446.19,882.58L451.1,892.39L451.1,902.19L456,912L460.9,921.81L465.81,936.52L470.71,946.32L475.61,951.23L480.52,961.03L490.32,975.74L495.23,990.45L495.23,1000.26L500.13,1014.97L500.13,1024.77L500.13,1029.68L505.03,1029.68" fill="none" stroke="#000000" style="-webkit-tap-highlight-color: rgba(0, 0, 0, 0); stroke-linecap: round; stroke-linejoin: round; stroke-width: 13;" /><path d="M387.35,720.77L382.45,720.77L377.55,720.77L372.65,720.77L367.74,720.77L357.94,720.77L353.03,720.77L348.13,720.77L338.32,715.87L328.52,715.87L318.71,715.87L308.9,715.87L304,710.97L299.1,710.97L294.19,706.06L289.29,706.06L284.39,706.06L279.48,706.06L274.58,706.06L269.68,706.06L274.58,710.97L279.48,715.87L284.39,720.77L289.29,735.48L299.1,740.39L299.1,745.29L304,755.1L313.81,764.9L318.71,774.71L323.61,784.52L328.52,794.32L333.42,804.13L333.42,809.03L343.23,823.74L343.23,833.55L348.13,843.35L353.03,858.06L357.94,867.87L357.94,877.68L362.84,892.39L367.74,902.19L377.55,931.61L382.45,946.32L387.35,956.13L392.26,965.94L392.26,980.65L397.16,990.45L402.06,1000.26L402.06,1014.97L406.97,1029.68L406.97,1039.48L411.87,1039.48L416.77,1039.48" fill="none" stroke="#000000" style="-webkit-tap-highlight-color: rgba(0, 0, 0, 0); stroke-linecap: round; stroke-linejoin: round; stroke-width: 13;" /><path d="M264.77,720.77L264.77,715.87L269.68,710.97L264.77,710.97L264.77,715.87L264.77,720.77L259.87,730.58L254.97,735.48L250.06,745.29L245.16,755.1L240.26,769.81L240.26,779.61L235.35,789.42L235.35,799.23L230.45,813.94L230.45,823.74L230.45,833.55L225.55,838.45L225.55,848.26L225.55,858.06L225.55,867.87L225.55,877.68L220.65,882.58L220.65,892.39L220.65,902.19L220.65,907.1L215.74,912L215.74,916.9L220.65,921.81L225.55,926.71L230.45,936.52L240.26,951.23L250.06,956.13L254.97,965.94L269.68,975.74L279.48,990.45L294.19,1000.26L308.9,1010.06L323.61,1019.87L343.23,1029.68L362.84,1034.58" fill="none" stroke="#000000" style="-webkit-tap-highlight-color: rgba(0, 0, 0, 0); stroke-linecap: round; stroke-linejoin: round; stroke-width: 13;" /><path d="M485.42,480.52L485.42,485.42L480.52,485.42L480.52,490.32L475.61,490.32L470.71,495.23L470.71,500.13L460.9,509.94L451.1,514.84L441.29,519.74L426.58,529.55L416.77,534.45L406.97,539.35L397.16,549.16L382.45,558.97L372.65,563.87L362.84,573.68L353.03,583.48L338.32,593.29L328.52,608L318.71,612.9L308.9,617.81L299.1,622.71L294.19,622.71L289.29,627.61L284.39,632.52L274.58,637.42L269.68,642.32L259.87,647.23L250.06,657.03L245.16,661.94L230.45,676.65L220.65,681.55L215.74,691.35L210.84,696.26L205.94,706.06L201.03,710.97L196.13,720.77L191.23,725.68L186.32,735.48L181.42,740.39L176.52,740.39L171.61,750.19L166.71,755.1L161.81,764.9L156.9,774.71L156.9,784.52L152,789.42L152,799.23L147.1,809.03L142.19,813.94L137.29,823.74L132.39,833.55L132.39,843.35L127.48,848.26L127.48,853.16L122.58,862.97L122.58,872.77L117.68,877.68L117.68,882.58L112.77,887.48L107.87,892.39L102.97,897.29L93.16,907.1L83.35,907.1L63.74,912L49.03,912L39.23,907.1L29.42,907.1" fill="none" stroke="#000000" style="-webkit-tap-highlight-color: rgba(0, 0, 0, 0); stroke-linecap: round; stroke-linejoin: round; stroke-width: 13;" /><path d="M29.42,882.58L19.61,882.58L14.71,882.58L9.81,887.48L14.71,887.48L19.61,892.39L24.52,902.19L34.32,912L44.13,921.81L49.03,926.71L53.94,936.52L63.74,946.32L68.65,956.13L73.55,965.94L78.45,975.74L83.35,980.65L88.26,985.55L88.26,995.35L93.16,1000.26L98.06,1000.26L98.06,1005.16L102.97,1010.06L107.87,1010.06L112.77,1014.97L117.68,1019.87L127.48,1024.77L142.19,1029.68L147.1,1029.68L156.9,1029.68L181.42,1029.68L210.84,1029.68L235.35,1019.87L259.87,1014.97L269.68,1014.97" fill="none" stroke="#000000" style="-webkit-tap-highlight-color: rgba(0, 0, 0, 0); stroke-linecap: round; stroke-linejoin: round; stroke-width: 13;" /><path d="M568.77,1014.97L558.97,1010.06L558.97,1005.16L568.77,1010.06L583.48,1010.06L612.9,1010.06L632.52,1010.06L657.03,1014.97L676.65,1019.87L691.35,1024.77L710.97,1029.68L730.58,1029.68L750.19,1014.97L764.9,1010.06" fill="none" stroke="#000000" style="-webkit-tap-highlight-color: rgba(0, 0, 0, 0); stroke-linecap: round; stroke-linejoin: round; stroke-width: 13;" /><path d="M710.97,647.23L710.97,642.32L710.97,647.23L706.06,661.94L706.06,671.74L701.16,681.55L691.35,715.87L691.35,725.68L686.45,735.48L686.45,745.29L686.45,755.1L681.55,764.9L676.65,774.71L676.65,784.52L676.65,789.42L676.65,794.32L676.65,799.23L676.65,804.13L676.65,813.94L676.65,818.84L676.65,823.74L681.55,833.55L681.55,838.45L686.45,848.26L686.45,858.06L691.35,872.77L696.26,882.58L696.26,897.29L701.16,907.1L706.06,921.81L706.06,931.61L710.97,946.32L710.97,956.13L715.87,965.94L720.77,980.65L720.77,990.45L725.68,1000.26L725.68,1010.06L730.58,1019.87L735.48,1024.77L740.39,1029.68" fill="none" stroke="#000000" style="-webkit-tap-highlight-color: rgba(0, 0, 0, 0); stroke-linecap: round; stroke-linejoin: round; stroke-width: 13;" /><path d="M715.87,647.23L710.97,647.23L715.87,647.23L720.77,647.23L725.68,652.13L730.58,657.03L730.58,661.94L735.48,666.84L740.39,671.74L745.29,676.65L745.29,681.55L750.19,691.35L755.1,696.26L760,701.16L760,710.97L764.9,715.87L769.81,725.68L769.81,730.58L774.71,740.39L779.61,745.29L779.61,755.1L784.52,764.9L789.42,769.81L794.32,779.61L799.23,789.42L799.23,799.23L804.13,809.03L809.03,813.94L813.94,823.74L813.94,833.55L818.84,843.35L823.74,853.16L823.74,862.97L828.65,867.87L828.65,877.68L833.55,887.48L833.55,892.39L838.45,902.19L838.45,907.1L843.35,916.9L843.35,926.71L848.26,936.52L853.16,946.32L853.16,956.13L858.06,965.94L858.06,980.65L862.97,990.45L867.87,1005.16L867.87,1019.87L872.77,1034.58L877.68,1044.39L882.58,1054.19L887.48,1059.1L887.48,1064L892.39,1064" fill="none" stroke="#000000" style="-webkit-tap-highlight-color: rgba(0, 0, 0, 0); stroke-linecap: round; stroke-linejoin: round; stroke-width: 13;" /><path d="M715.87,642.32L710.97,642.32L701.16,647.23L696.26,642.32L701.16,637.42L706.06,637.42L710.97,632.52L715.87,632.52L720.77,632.52L730.58,632.52L735.48,632.52L740.39,632.52L745.29,632.52L750.19,632.52L755.1,632.52L760,632.52L760,637.42L764.9,637.42L769.81,637.42L769.81,642.32L774.71,642.32L774.71,647.23L779.61,652.13L784.52,657.03L784.52,661.94L789.42,666.84L794.32,671.74L794.32,676.65L799.23,681.55L804.13,691.35L809.03,696.26L813.94,706.06L818.84,715.87L818.84,725.68L823.74,735.48L828.65,745.29L833.55,755.1L838.45,764.9L838.45,774.71L843.35,789.42L848.26,799.23L853.16,809.03L858.06,818.84L862.97,828.65L867.87,838.45L867.87,848.26L872.77,858.06L877.68,867.87L877.68,877.68L882.58,887.48L887.48,897.29L892.39,907.1L892.39,916.9L897.29,921.81L897.29,931.61L902.19,941.42L907.1,956.13L912,965.94L912,980.65L916.9,995.35L921.81,1010.06L926.71,1019.87L931.61,1034.58L936.52,1039.48L941.42,1044.39L941.42,1049.29L946.32,1049.29" fill="none" stroke="#000000" style="-webkit-tap-highlight-color: rgba(0, 0, 0, 0); stroke-linecap: round; stroke-linejoin: round; stroke-width: 13;" /><path d="M769.81,505.03L764.9,505.03L764.9,509.94L764.9,514.84L769.81,524.65L769.81,534.45L769.81,544.26L774.71,558.97L774.71,568.77L779.61,578.58L784.52,588.39L789.42,598.19L794.32,608L799.23,617.81L804.13,627.61L809.03,632.52L813.94,637.42L818.84,642.32L823.74,647.23L823.74,657.03L828.65,661.94L828.65,666.84L828.65,671.74L828.65,676.65L833.55,681.55L833.55,686.45" fill="none" stroke="#000000" style="-webkit-tap-highlight-color: rgba(0, 0, 0, 0); stroke-linecap: round; stroke-linejoin: round; stroke-width: 13;" /><path d="M892.39,1049.29L887.48,1049.29L882.58,1049.29L877.68,1049.29L887.48,1054.19L902.19,1054.19L921.81,1054.19L931.61,1049.29L941.42,1049.29" fill="none" stroke="#000000" style="-webkit-tap-highlight-color: rgba(0, 0, 0, 0); stroke-linecap: round; stroke-linejoin: round; stroke-width: 13;" /><path d="M985.55,965.94L985.55,961.03L985.55,956.13L990.45,956.13L995.35,956.13L1000.26,956.13L1014.97,956.13L1034.58,951.23L1054.19,951.23L1068.9,946.32L1083.61,946.32L1098.32,951.23L1113.03,951.23L1127.74,956.13L1142.45,956.13L1157.16,956.13L1171.87,956.13L1181.68,956.13L1191.48,961.03L1206.19,961.03L1216,961.03L1225.81,961.03L1235.61,961.03L1245.42,961.03L1255.23,961.03L1265.03,961.03L1274.84,961.03L1284.65,961.03L1294.45,961.03L1304.26,961.03L1318.97,961.03L1328.77,961.03L1338.58,961.03L1353.29,956.13L1363.1,956.13L1377.81,956.13L1382.71,956.13L1392.52,956.13L1402.32,956.13L1412.13,956.13L1421.94,956.13L1431.74,951.23L1441.55,951.23L1446.45,951.23L1456.26,951.23L1461.16,951.23L1470.97,951.23L1475.87,951.23L1480.77,951.23L1485.68,951.23L1490.58,951.23L1495.48,956.13L1500.39,956.13L1500.39,961.03L1500.39,965.94L1505.29,970.84L1505.29,975.74L1505.29,980.65L1505.29,990.45L1505.29,995.35L1505.29,1005.16L1505.29,1014.97L1505.29,1024.77L1505.29,1034.58L1505.29,1044.39L1505.29,1054.19L1510.19,1064L1510.19,1068.9L1515.1,1073.81L1520,1083.61L1520,1093.42L1524.9,1098.32L1529.81,1108.13L1534.71,1113.03L1539.61,1113.03" fill="none" stroke="#000000" style="-webkit-tap-highlight-color: rgba(0, 0, 0, 0); stroke-linecap: round; stroke-linejoin: round; stroke-width: 13;" /><path d="M1446.45,965.94L1446.45,961.03L1446.45,956.13L1446.45,961.03L1446.45,970.84L1441.55,985.55L1441.55,1005.16L1441.55,1019.87L1441.55,1039.48L1441.55,1054.19L1441.55,1068.9L1441.55,1083.61L1441.55,1093.42L1441.55,1103.23L1441.55,1113.03L1441.55,1117.94L1441.55,1122.84L1441.55,1127.74L1441.55,1132.65L1446.45,1137.55L1451.35,1137.55L1456.26,1137.55L1470.97,1137.55L1485.68,1132.65L1495.48,1132.65L1500.39,1127.74" fill="none" stroke="#000000" style="-webkit-tap-highlight-color: rgba(0, 0, 0, 0); stroke-linecap: round; stroke-linejoin: round; stroke-width: 13;" /><path d="M980.65,1034.58L985.55,1034.58L995.35,1034.58L1010.06,1039.48L1024.77,1044.39L1039.48,1054.19L1054.19,1059.1L1073.81,1064L1093.42,1068.9L1108.13,1073.81L1122.84,1078.71L1137.55,1083.61L1152.26,1088.52L1162.06,1088.52L1176.77,1093.42L1191.48,1098.32L1201.29,1098.32L1211.1,1103.23L1220.9,1108.13L1230.71,1113.03L1240.52,1113.03L1255.23,1113.03L1269.94,1113.03L1284.65,1117.94L1294.45,1117.94L1309.16,1122.84L1318.97,1122.84L1333.68,1122.84L1348.39,1127.74L1358.19,1127.74L1368,1132.65L1377.81,1137.55L1387.61,1137.55L1402.32,1142.45L1412.13,1142.45L1421.94,1142.45L1431.74,1142.45L1436.65,1142.45L1441.55,1142.45" fill="none" stroke="#000000" style="-webkit-tap-highlight-color: rgba(0, 0, 0, 0); stroke-linecap: round; stroke-linejoin: round; stroke-width: 13;" /><path d="M1000.26,951.23L1000.26,946.32L1005.16,941.42L1010.06,941.42L1019.87,936.52L1029.68,931.61L1039.48,931.61L1049.29,931.61L1059.1,931.61L1068.9,931.61L1078.71,931.61L1088.52,931.61L1103.23,931.61L1113.03,931.61L1127.74,926.71L1132.65,926.71L1147.35,926.71L1157.16,926.71L1171.87,926.71L1176.77,926.71L1186.58,926.71L1196.39,926.71L1201.29,926.71L1211.1,926.71L1220.9,926.71L1230.71,921.81L1240.52,921.81L1245.42,921.81L1250.32,921.81L1260.13,916.9L1265.03,916.9L1274.84,916.9L1279.74,916.9L1289.55,916.9L1294.45,916.9L1304.26,916.9L1309.16,916.9L1318.97,921.81L1328.77,921.81L1333.68,921.81L1343.48,926.71L1353.29,926.71L1363.1,926.71L1372.9,931.61L1377.81,936.52L1387.61,936.52L1392.52,941.42L1402.32,946.32L1417.03,951.23L1426.84,956.13L1441.55,956.13L1451.35,956.13L1461.16,956.13L1475.87,961.03L1485.68,961.03" fill="none" stroke="#000000" style="-webkit-tap-highlight-color: rgba(0, 0, 0, 0); stroke-linecap: round; stroke-linejoin: round; stroke-width: 13;" /><path d="M2005.42,872.77L2000.52,867.87L1995.61,867.87L1990.71,872.77L1985.81,877.68L1980.9,882.58L1976,897.29L1971.1,907.1L1966.19,916.9L1961.29,921.81L1961.29,931.61L1956.39,941.42L1956.39,956.13L1951.48,965.94L1951.48,980.65L1946.58,990.45L1946.58,1010.06L1946.58,1019.87L1946.58,1029.68L1946.58,1039.48" fill="none" stroke="#000000" style="-webkit-tap-highlight-color: rgba(0, 0, 0, 0); stroke-linecap: round; stroke-linejoin: round; stroke-width: 13;" /><path d="M1980.9,867.87L1976,867.87L1980.9,867.87L1995.61,862.97L2000.52,858.06L2010.32,858.06L2015.23,853.16L2020.13,853.16L2025.03,858.06L2029.94,858.06L2029.94,862.97L2029.94,867.87L2034.84,872.77L2034.84,882.58L2034.84,887.48L2034.84,897.29L2034.84,907.1L2034.84,916.9L2034.84,926.71L2034.84,936.52L2034.84,946.32L2034.84,956.13L2034.84,965.94L2034.84,975.74L2029.94,985.55L2029.94,995.35L2029.94,1005.16L2029.94,1014.97L2029.94,1029.68L2029.94,1039.48L2029.94,1044.39L2029.94,1049.29L2025.03,1049.29L2015.23,1049.29L2005.42,1044.39L1990.71,1044.39L1971.1,1039.48L1956.39,1039.48L1946.58,1039.48L1951.48,1034.58" fill="none" stroke="#000000" style="-webkit-tap-highlight-color: rgba(0, 0, 0, 0); stroke-linecap: round; stroke-linejoin: round; stroke-width: 13;" /><path d="M2015.23,858.06L2010.32,862.97L2010.32,877.68L2005.42,902.19L2000.52,916.9L2000.52,931.61L1995.61,946.32L1995.61,961.03L1995.61,980.65L1995.61,1000.26L1995.61,1014.97L1995.61,1029.68L1995.61,1039.48L1995.61,1044.39L1995.61,1049.29" fill="none" stroke="#000000" style="-webkit-tap-highlight-color: rgba(0, 0, 0, 0); stroke-linecap: round; stroke-linejoin: round; stroke-width: 13;" /><path d="M1922.06,975.74L1917.16,975.74L1912.26,975.74L1907.35,975.74L1907.35,970.84L1902.45,970.84L1897.55,970.84L1892.65,970.84L1882.84,970.84L1868.13,970.84L1858.32,970.84L1848.52,970.84L1838.71,970.84L1833.81,970.84L1828.9,970.84L1819.1,970.84L1814.19,970.84L1809.29,970.84L1804.39,970.84L1799.48,965.94L1794.58,965.94L1789.68,965.94L1784.77,965.94L1779.87,970.84L1774.97,975.74L1774.97,980.65L1770.06,980.65L1765.16,985.55L1765.16,990.45L1760.26,995.35L1755.35,1000.26L1750.45,1005.16L1750.45,1010.06L1745.55,1010.06L1745.55,1014.97L1740.65,1014.97L1735.74,1014.97L1730.84,1014.97L1721.03,1014.97L1716.13,1014.97L1711.23,1014.97L1701.42,1014.97L1696.52,1014.97L1686.71,1014.97L1676.9,1014.97L1667.1,1014.97L1657.29,1014.97L1642.58,1014.97L1632.77,1010.06L1622.97,1010.06L1613.16,1005.16L1603.35,1000.26L1593.55,995.35L1588.65,995.35L1578.84,990.45L1573.94,985.55L1569.03,980.65L1564.13,970.84L1559.23,965.94L1549.42,956.13" fill="none" stroke="#000000" style="-webkit-tap-highlight-color: rgba(0, 0, 0, 0); stroke-linecap: round; stroke-linejoin: round; stroke-width: 13;" /><path d="M1426.84,941.42L1421.94,941.42L1417.03,941.42L1421.94,941.42L1426.84,936.52L1431.74,931.61L1441.55,921.81L1451.35,912L1461.16,902.19L1466.06,897.29L1470.97,892.39L1480.77,887.48L1485.68,882.58L1495.48,877.68L1500.39,877.68L1505.29,872.77L1510.19,872.77L1520,867.87L1524.9,867.87L1529.81,867.87L1539.61,867.87L1549.42,867.87L1559.23,867.87L1569.03,867.87L1573.94,867.87L1578.84,867.87L1588.65,867.87L1593.55,867.87L1603.35,867.87L1613.16,862.97L1618.06,862.97L1627.87,862.97L1637.68,862.97L1642.58,862.97L1652.39,862.97L1657.29,858.06L1662.19,858.06L1667.1,858.06L1672,858.06L1676.9,858.06L1681.81,853.16L1686.71,853.16L1691.61,853.16L1696.52,853.16L1701.42,848.26L1706.32,848.26L1716.13,843.35L1721.03,843.35L1725.94,843.35L1735.74,843.35L1745.55,843.35L1755.35,843.35L1770.06,843.35L1779.87,843.35L1789.68,843.35L1799.48,843.35L1804.39,843.35L1814.19,843.35L1824,843.35L1828.9,843.35L1833.81,848.26L1843.61,848.26L1853.42,848.26L1858.32,848.26L1868.13,848.26L1873.03,848.26L1877.94,848.26L1887.74,853.16L1892.65,853.16L1897.55,853.16L1902.45,853.16L1907.35,853.16L1912.26,858.06L1917.16,858.06L1922.06,862.97L1931.87,862.97L1936.77,867.87L1941.68,867.87L1946.58,872.77L1956.39,872.77L1966.19,872.77L1976,872.77" fill="none" stroke="#000000" style="-webkit-tap-highlight-color: rgba(0, 0, 0, 0); stroke-linecap: round; stroke-linejoin: round; stroke-width: 13;" /><path d="M1524.9,1103.23L1520,1103.23L1524.9,1103.23L1539.61,1098.32L1549.42,1093.42L1564.13,1093.42L1578.84,1088.52L1593.55,1088.52L1603.35,1088.52L1618.06,1083.61L1632.77,1083.61L1647.48,1078.71L1657.29,1078.71L1667.1,1073.81L1676.9,1073.81L1686.71,1073.81L1701.42,1073.81L1711.23,1073.81L1721.03,1073.81L1730.84,1073.81L1740.65,1073.81L1750.45,1073.81L1760.26,1073.81L1765.16,1073.81L1770.06,1068.9L1774.97,1068.9L1779.87,1068.9L1784.77,1068.9L1789.68,1068.9L1794.58,1068.9L1799.48,1068.9L1809.29,1068.9L1814.19,1068.9L1824,1068.9L1828.9,1068.9L1833.81,1068.9L1838.71,1068.9L1843.61,1068.9L1843.61,1064L1848.52,1064L1853.42,1059.1L1858.32,1059.1L1863.23,1054.19L1868.13,1049.29L1877.94,1044.39L1892.65,1039.48L1902.45,1034.58L1912.26,1029.68L1922.06,1024.77L1931.87,1019.87L1946.58,1010.06L1956.39,1000.26" fill="none" stroke="#000000" style="-webkit-tap-highlight-color: rgba(0, 0, 0, 0); stroke-linecap: round; stroke-linejoin: round; stroke-width: 13;" /><path d="M1814.19,990.45L1814.19,985.55L1814.19,980.65L1814.19,975.74L1819.1,970.84L1814.19,980.65L1804.39,1000.26L1794.58,1019.87L1784.77,1039.48L1779.87,1054.19L1774.97,1068.9L1774.97,1073.81L1774.97,1078.71" fill="none" stroke="#000000" style="-webkit-tap-highlight-color: rgba(0, 0, 0, 0); stroke-linecap: round; stroke-linejoin: round; stroke-width: 13;" /><path d="M2201.55,706.06L2196.65,701.16L2201.55,701.16L2201.55,706.06L2206.45,715.87L2206.45,725.68L2206.45,740.39L2211.35,750.19L2211.35,764.9L2216.26,779.61L2216.26,789.42L2216.26,804.13L2216.26,818.84L2216.26,838.45L2216.26,858.06L2221.16,877.68L2226.06,892.39L2226.06,902.19L2226.06,907.1L2226.06,912" fill="none" stroke="#000000" style="-webkit-tap-highlight-color: rgba(0, 0, 0, 0); stroke-linecap: round; stroke-linejoin: round; stroke-width: 13;" /><path d="M2275.1,701.16L2275.1,696.26L2270.19,696.26L2270.19,691.35L2270.19,696.26L2270.19,706.06L2270.19,720.77L2270.19,740.39L2270.19,760L2275.1,779.61L2280,799.23L2280,818.84L2284.9,843.35L2284.9,862.97L2289.81,882.58L2289.81,892.39L2289.81,902.19" fill="none" stroke="#000000" style="-webkit-tap-highlight-color: rgba(0, 0, 0, 0); stroke-linecap: round; stroke-linejoin: round; stroke-width: 13;" /><path d="M2025.03,995.35L2029.94,1000.26L2034.84,1000.26L2049.55,995.35L2064.26,990.45L2074.06,980.65L2083.87,975.74L2098.58,965.94L2108.39,956.13L2123.1,951.23L2132.9,941.42L2142.71,936.52L2157.42,926.71L2167.23,921.81L2172.13,921.81L2181.94,916.9L2196.65,912L2211.35,907.1L2226.06,902.19L2235.87,897.29L2245.68,897.29L2250.58,897.29L2255.48,897.29L2260.39,897.29L2265.29,902.19L2270.19,902.19L2280,902.19L2284.9,902.19L2289.81,902.19L2294.71,907.1L2299.61,907.1L2309.42,907.1L2314.32,912L2319.23,912L2329.03,916.9L2333.94,916.9L2338.84,921.81L2348.65,921.81L2353.55,921.81L2363.35,921.81L2368.26,921.81L2373.16,921.81L2378.06,921.81L2382.97,921.81L2392.77,921.81L2397.68,921.81L2402.58,921.81L2407.48,921.81L2412.39,921.81L2417.29,921.81L2422.19,921.81L2427.1,921.81L2432,921.81" fill="none" stroke="#000000" style="-webkit-tap-highlight-color: rgba(0, 0, 0, 0); stroke-linecap: round; stroke-linejoin: round; stroke-width: 13;" /><path d="M2432,921.81L2432,916.9L2436.9,912L2436.9,907.1L2446.71,902.19L2461.42,892.39L2476.13,882.58L2490.84,877.68L2500.65,872.77L2515.35,867.87L2525.16,862.97L2534.97,862.97L2544.77,858.06L2549.68,853.16L2554.58,853.16L2559.48,853.16L2564.39,853.16L2564.39,848.26L2569.29,848.26L2574.19,848.26L2579.1,848.26L2584,848.26L2588.9,848.26L2593.81,843.35L2598.71,843.35L2603.61,843.35L2608.52,848.26L2623.23,853.16L2633.03,853.16L2642.84,858.06L2657.55,858.06L2672.26,862.97L2672.26,867.87" fill="none" stroke="#000000" style="-webkit-tap-highlight-color: rgba(0, 0, 0, 0); stroke-linecap: round; stroke-linejoin: round; stroke-width: 13;" /></svg>