<?xml version="1.0" encoding="utf-8" ?>
<svg baseProfile="full" height="1306" version="1.1" width="2256" xmlns="http://www.w3.org/2000/svg" xmlns:ev="http://www.w3.org/2001/xml-events" xmlns:xlink="http://www.w3.org/1999/xlink"><defs /><path d="M550.05,562.01L551,557L550,556L554,557L549,552L561,555L562,555L565,555L578,549L586,536L583,531L586,534L586,530L594,526L590,527L593,522L598,518L598,518L602,518L602,518L597,516L597,516L602,502L602,498L602,494L615,492L602,490L617,486L618,485L621,484L621,484L621,484L630,485L626,485L630,485L634,486L637,488L638,489L643,494L646,502L646,497L643,498L653,502L653,502L658,503L662,503L666,499L674,497L677,494L670,499L682,494L686,491L698,489L694,488L706,487L709,487L725,488L717,487L729,487L737,485L749,485L741,485L755,484L761,483L757,484L767,482L769,481L785,477L773,480L781,478L777,479L789,476L794,478L792,478L801,474L809,479L817,479L811,480L807,478L833,469L819,479L825,475L829,474L841,466L849,457L837,467L846,461L865,455L861,456L859,456L853,458L883,452L883,452L867,455L872,456L890,451L885,452L895,450L897,450L901,450L905,449L909,449L914,449L929,454L923,454L917,449L925,454L941,454L945,454L933,454L949,454L960,454L959,452L951,455L962,454L970,456L978,450L972,456L975,450L981,443L985,442L988,439L992,434L995,435L996,429L1000,430L1004,430L1012,430L1008,430L1016,429L1020,429L1036,426L1028,428L1024,428L1033,427L1053,427L1040,427L1055,426L1049,426L1069,426L1072,426L1076,426L1059,426L1090,430L1086,429L1080,426L1084,429L1091,431L1109,433L1107,434L1107,434L1117,430L1124,423L1120,426L1113,430L1128,418L1135,419L1130,418L1128,418L1144,419L1144,417L1152,421L1148,422L1164,417L1161,420L1164,419L1154,420L1175,415L1175,415L1182,413L1180,412L1192,408L1196,409L1189,411L1198,408L1204,406L1208,407L1213,417L1216,416L1218,416L1232,419L1219,417L1230,419L1238,417L1249,411L1239,417L1250,412L1253,403L1263,410L1261,398L1266,397L1268,395L1275,386L1271,387L1269,388L1275,381L1278,384L1283,378L1288,375L1291,372L1295,370L1304,368L1299,369L1307,368L1309,368L1327,359L1323,372L1323,359L1335,359L1339,359L1351,369L1353,368L1357,367L1368,359L1367,361L1374,357L1379,359L1387,358L1390,357L1403,360L1404,359L1410,360L1407,358L1419,355L1424,355L1435,347L1431,350L1447,345L1443,344L1455,346L1465,345L1472,340L1480,337L1490,334L1484,335L1503,334L1499,335L1507,335L1515,336L1519,336L1530,339L1524,339L1533,340L1544,339L1559,342L1554,343L1550,337L1562,345L1570,352L1567,344L1574,351L1578,358L1577,355L1580,360L1586,369L1594,374L1590,371L1598,374L1602,379L1608,377L1620,376L1612,375L1625,379L1630,379L1637,382L1636,381L1647,384L1650,385L1666,371L1650,385L1662,371L1670,371L1674,367L1670,367L1687,372L1691,367L1694,363L1691,367L1695,362L1690,351L1694,347L1694,339L1708,342L1698,331L1712,333L1710,315L1706,319L1714,311L1730,299L1718,307L1726,303" fill="none" stroke="#000000" style="-webkit-tap-highlight-color: rgba(0, 0, 0, 0); stroke-linecap: round; stroke-linejoin: round; stroke-width: 11;" /><path d="M1734,299L1738,299L1752,299L1752,299L1760,295L1762,294L1770,295L1774,294L1777,295L1783,295L1791,295L1794,290L1798,291L1802,291L1806,285L1810,283L1814,279L1818,273L1822,271L1824,265L1837,259L1830,263L1842,256L1848,251L1865,248L1859,250L1870,247L1879,245L1889,242L1894,240L1903,238L1909,238L1916,238L1925,237L1933,235L1946,237L1954,239L1961,241L1965,246L1969,251L1977,250L1985,256L1985,256L1989,259L1997,259L2001,258L2010,250L2015,249L2035,254L2026,247L2038,252L2045,251L2050,252L2055,250L2070,251L2066,251L2077,250L2073,250L2090,248L2081,251L2092,248L2097,256L2105,258L2101,259L2101,257L2109,260L2112,259L2112,259L2112,259L2132,267L2135,264L2135,264L2142,262L2144,262L2160,254L2153,259L2164,254L2160,254L2176,243L2170,254L2191,247L2188,250L2191,247L2197,245L2199,244L2208,238L2211,234L2211,234L2216,230L2218,229L2224,226L2225,225L2228,223" fill="none" stroke="#000000" style="-webkit-tap-highlight-color: rgba(0, 0, 0, 0); stroke-linecap: round; stroke-linejoin: round; stroke-width: 11;" /><path d="M864.93,450.4L865,455L864,462L866,474L866,480L862,494L869,524L860,505L867,531L869,537" fill="none" stroke="#000000" style="-webkit-tap-highlight-color: rgba(0, 0, 0, 0); stroke-linecap: round; stroke-linejoin: round; stroke-width: 11;" /><path d="M868,540L868,546L871,539L881,534L928.71,450.4L929,447L925,454L925,470L927,502L925,486" fill="none" stroke="#000000" style="-webkit-tap-highlight-color: rgba(0, 0, 0, 0); stroke-linecap: round; stroke-linejoin: round; stroke-width: 11;" /><path d="M927,511L921,521L921,521L925,523" fill="none" stroke="#000000" style="-webkit-tap-highlight-color: rgba(0, 0, 0, 0); stroke-linecap: round; stroke-linejoin: round; stroke-width: 11;" /><path d="M805.14,502.22L806,498L801,489L803,500L795,494L793,494L779,518L793,508L778,503L772,522L762,526L757,536L749,542L741,550" fill="none" stroke="#000000" style="-webkit-tap-highlight-color: rgba(0, 0, 0, 0); stroke-linecap: round; stroke-linejoin: round; stroke-width: 11;" /><path d="M732,557L717,569L724,565L718,573L700,583L700,586L700,594L700,587L705,599L713,597L717,598" fill="none" stroke="#000000" style="-webkit-tap-highlight-color: rgba(0, 0, 0, 0); stroke-linecap: round; stroke-linejoin: round; stroke-width: 11;" /><path d="M964.58,526.13L970,526L965,530L961,529L960,529L949,529L949,529L927,523L917,538L898,532L898,532L881,534L871,539L871,539L863,542L849,550L856,545" fill="none" stroke="#000000" style="-webkit-tap-highlight-color: rgba(0, 0, 0, 0); stroke-linecap: round; stroke-linejoin: round; stroke-width: 11;" /><path d="M846,552L830,557L824,561L813,570L808,574L807,578L806,584L806,585L806,585L807,586" fill="none" stroke="#000000" style="-webkit-tap-highlight-color: rgba(0, 0, 0, 0); stroke-linecap: round; stroke-linejoin: round; stroke-width: 11;" /><path d="M1060.24,458.37L1055,456L1052,457L1050,464L1052,461L1049,470L1056,476L1056,477L1056,482L1061,486" fill="none" stroke="#000000" style="-webkit-tap-highlight-color: rgba(0, 0, 0, 0); stroke-linecap: round; stroke-linejoin: round; stroke-width: 11;" /><path d="M1059,498L1064,506L1066,515L1063,523L1068,525L1068,531L1072,533L1068,534L1076,530L1100.1,466.35L1099,468L1099,468L1099,468L1104,486L1104,490L1094,505L1104,514L1101,510L1104,516L1104,523L1104,526L1100,526L1096,529L1095,528L1077,530L1072,530L1068,531L1064,530L1072,530L1076,530L1080,525L1084,523L1089,519L1087,510L1089,498L1090,481L1088,465L1084,453" fill="none" stroke="#000000" style="-webkit-tap-highlight-color: rgba(0, 0, 0, 0); stroke-linecap: round; stroke-linejoin: round; stroke-width: 11;" /><path d="M1080,448L1084,450" fill="none" stroke="#000000" style="-webkit-tap-highlight-color: rgba(0, 0, 0, 0); stroke-linecap: round; stroke-linejoin: round; stroke-width: 11;" /><path d="M1375.12,713.47L1371,721L1382,721L1383,721L1387,720L1395,719L1407,704L1400,714L1410,698L1415,686L1419,673L1423,661L1427,650L1427,640L1426,625L1427,618L1427,611L1427,603L1430,598L1440,585L1435,590L1443,577L1446,574L1450,574L1464,570L1457,570L1467,565L1494,569L1510,574L1480,573L1487,570L1515,573L1535,570L1536,571L1523,573" fill="none" stroke="#000000" style="-webkit-tap-highlight-color: rgba(0, 0, 0, 0); stroke-linecap: round; stroke-linejoin: round; stroke-width: 11;" /><path d="M1543,566L1569,562L1552,563L1549,566L1569,558L1574,560L1579,554L1577,554L1585,554L1586,551L1597,547L1598,547L1599,547L1606,546" fill="none" stroke="#000000" style="-webkit-tap-highlight-color: rgba(0, 0, 0, 0); stroke-linecap: round; stroke-linejoin: round; stroke-width: 11;" /><path d="M1542.53,697.53L1543,690L1543,695L1547,686L1551,686L1557,687L1568,687L1589,684L1606,682L1622,682L1634,678L1642,680L1650,679L1650,679L1650,679L1646,705L1650,694L1646,713L1642,721L1638,733L1638,747" fill="none" stroke="#000000" style="-webkit-tap-highlight-color: rgba(0, 0, 0, 0); stroke-linecap: round; stroke-linejoin: round; stroke-width: 11;" /><path d="M1638,747L1639,753L1637,757L1641,755L1749.8,733.4L1746,733L1742,736L1734,736L1733,737L1726,738L1721,733L1722,729L1722,723L1725,717L1726,711L1727,702L1726,681L1730,697L1730,674L1734,666L1738,658L1743,654L1746,645L1746,643L1745,637L1749,634L1749,634" fill="none" stroke="#000000" style="-webkit-tap-highlight-color: rgba(0, 0, 0, 0); stroke-linecap: round; stroke-linejoin: round; stroke-width: 11;" /><path d="M1754,630L1762,630L1770,630L1763,632L1774,634L1775,643L1776,662L1775,650L1821.54,677.6L1777,670L1778,697L1778,685L1774,709L1773,717L1770,725L1771,721L1774,725L1781,723L1818,681L1820,679L1779,725L1824,674L1820,679L1828,662L1822,677L1836,650L1832,653L1861,638L1850,646L1874,634L1881,628L1892,626L1905,624L1918,623L1925,629L1939,635L1930,630L1941,637L1945,641L1956,654L1953,646L1961,658L1965,666L1965,662L1969,666L1974,669L1981,665L1980,662L1977,670L1985,657L1984,654L1985,643L1985,634L1981,622L1981,617L1975,607L1976,614L1968,604L1971,583" fill="none" stroke="#000000" style="-webkit-tap-highlight-color: rgba(0, 0, 0, 0); stroke-linecap: round; stroke-linejoin: round; stroke-width: 11;" /><path d="M1981,563L1979,571L1974,578L2017,542L1997,550L1988,560L2007,544L2027,534L2037,530L2057,521L2045,524L2066,518L2077,518L2097,514L2089,514L2119,509L2132,512L2142,506L2110,512L2152,507L2164,506L2176,506L2188,508L2201,514L2208,517L2215,516L2222,515L2232,516L2222,515" fill="none" stroke="#000000" style="-webkit-tap-highlight-color: rgba(0, 0, 0, 0); stroke-linecap: round; stroke-linejoin: round; stroke-width: 11;" /><path d="M2164.33,757.31L2163,753L2165,751L2163,748L2177,742L2177,742L2181,742L2180,751L2182,751L2184,755L2180,753L2180,757L2173,756L2167,758L2160,757L2151,757L2144,759L2136,761L2128,765L2120,772L2114,777L2118,786L2118,788L2105,803L2101,805L2093,808L2089,813L2077,813L2085,813L2081,813L2072,812L2059,817L2065,817L2069,816L2057,818L2053,820L2049,821L2040,818L2037,818L2030,818L2021,814L2013,808L2006,801L2006,793L1993,785L2006,793L1989,781L1985,777L1981,777L1981,769L1981,765L1981,761L1981,757L1981,739L1981,739L1981,737L1981,728L1977,716L1975,723L1978,721L1973,713L1967,709L1953,708L1944,709L1969,709L1937,708L1904,708L1910,711L1925,708L1893,709L1881,706L1884,709L1874,708L1860,703L1853,708L1833,704L1845,704L1822,705L1815,705L1808,709L1800,714L1797,720L1781,721L1762,732L1749,736L1770,725L1736,745" fill="none" stroke="#000000" style="-webkit-tap-highlight-color: rgba(0, 0, 0, 0); stroke-linecap: round; stroke-linejoin: round; stroke-width: 11;" /><path d="M1722,751L1729,749L1716,755L1702,764L1698,768L1687,777L1697,768L1674,785L1660,791L1648,797L1624,808L1638,800L1616,812L1609,817L1598,826L1605,819L1594,829L1566,845L1586,837L1573,841L1553,847L1547,853L1542,853L1536,857L1526,861L1508,870L1520,862L1497,869L1488,870L1479,869L1456,875L1449,872L1428,878L1419,863L1404,874L1383,865L1395,869L1347,879L1371,866L1360,868L1334,866L1311,878L1323,875L1302,880L1295,883L1282,887L1277,890L1287,886" fill="none" stroke="#000000" style="-webkit-tap-highlight-color: rgba(0, 0, 0, 0); stroke-linecap: round; stroke-linejoin: round; stroke-width: 11;" /><path d="M1969.02,741.37" fill="none" stroke="#000000" style="-webkit-tap-highlight-color: rgba(0, 0, 0, 0); stroke-linecap: round; stroke-linejoin: round; stroke-width: 11;" /><path d="M1275,891L1284,908" fill="none" stroke="#000000" style="-webkit-tap-highlight-color: rgba(0, 0, 0, 0); stroke-linecap: round; stroke-linejoin: round; stroke-width: 11;" /><path d="M1973,737L1977,737L1981,737L1981,739L1971,738L1977,737L1968,738L1965,738L1955,741L1955,741L1942,750L1929,752L1936,753L1921,755L1913,761L1906,764L1900,767L1877,779L1887,771L1864,785L1840,799L1857,789L1833,805L1846,794L1827,799L1797,819L1785,822L1790,821L1758,837L1746,841L1766,833L1738,849L1730,853L1710,865L1718,857L1698,869L1673,870L1680,866L1662,889L1670,885L1645,889L1644,891L1638,893L1620,888L1619,888L1599,887L1587,893L1587,893L1574,901L1551,901L1555,894L1551,901L1542,901L1538,905L1527,904L1523,905L1513,904L1501,909L1511,905L1507,905L1498,909" fill="none" stroke="#000000" style="-webkit-tap-highlight-color: rgba(0, 0, 0, 0); stroke-linecap: round; stroke-linejoin: round; stroke-width: 11;" /><path d="M1472,913L1490,908L1478,909L1459,913L1452,917L1443,920L1432,925L1427,924L1413,933L1425,926L1419,932L1408,933L1395,955L1395,941" fill="none" stroke="#000000" style="-webkit-tap-highlight-color: rgba(0, 0, 0, 0); stroke-linecap: round; stroke-linejoin: round; stroke-width: 11;" /><path d="M1395.05,625.78" fill="none" stroke="#000000" style="-webkit-tap-highlight-color: rgba(0, 0, 0, 0); stroke-linecap: round; stroke-linejoin: round; stroke-width: 11;" /><path d="M1383,959L1386,958L1368,960L1375,961L1367,960L1359,959L1363,959L1360,960" fill="none" stroke="#000000" style="-webkit-tap-highlight-color: rgba(0, 0, 0, 0); stroke-linecap: round; stroke-linejoin: round; stroke-width: 11;" /><path d="M1393,611L1393,611" fill="none" stroke="#000000" style="-webkit-tap-highlight-color: rgba(0, 0, 0, 0); stroke-linecap: round; stroke-linejoin: round; stroke-width: 11;" /><path d="M1364,960" fill="none" stroke="#000000" style="-webkit-tap-highlight-color: rgba(0, 0, 0, 0); stroke-linecap: round; stroke-linejoin: round; stroke-width: 11;" /><path d="M1391,611L1377,623L1383,616L1370,624L1378,622L1364,625L1355,635L1355,638L1362,626L1351,640L1351,640L1329,654L1335,652L1311,652L1304,651L1293,649L1288,649L1274,655" fill="none" stroke="#000000" style="-webkit-tap-highlight-color: rgba(0, 0, 0, 0); stroke-linecap: round; stroke-linejoin: round; stroke-width: 11;" /><path d="M1268,654L1251,667L1262,656L1233,666L1240,661L1209,668L1220,670L1187,690L1204,682L1172,700L1180,695L1148,721L1166,702L1157,717L1160,711" fill="none" stroke="#000000" style="-webkit-tap-highlight-color: rgba(0, 0, 0, 0); stroke-linecap: round; stroke-linejoin: round; stroke-width: 11;" /><path d="M1331.28,629.77" fill="none" stroke="#000000" style="-webkit-tap-highlight-color: rgba(0, 0, 0, 0); stroke-linecap: round; stroke-linejoin: round; stroke-width: 11;" /><path d="M1128,725L1139,731L1124,732L1143,725" fill="none" stroke="#000000" style="-webkit-tap-highlight-color: rgba(0, 0, 0, 0); stroke-linecap: round; stroke-linejoin: round; stroke-width: 11;" /><path d="M1328,631L1328,631L1328,631L1307,634L1307,634L1307,634L1304,634L1293,647L1288,637L1276,635L1269,637L1248,642L1239,638L1264,641L1231,637L1224,634L1208,634" fill="none" stroke="#000000" style="-webkit-tap-highlight-color: rgba(0, 0, 0, 0); stroke-linecap: round; stroke-linejoin: round; stroke-width: 11;" /><path d="M1195,634L1188,630L1176,634L1168,634L1144,630L1154,629L1128,630L1137,631L1124,629L1121,634L1118,635L1118,635L1120,635" fill="none" stroke="#000000" style="-webkit-tap-highlight-color: rgba(0, 0, 0, 0); stroke-linecap: round; stroke-linejoin: round; stroke-width: 11;" /><path d="M952.62,585.92L957,589L961,590L965,589L964,586L968,587L964,586L957,586L953,586L933,590L941,584L921,589L913,591L893,594L904,591L887,592L878,592L857,593L845,591L869,594" fill="none" stroke="#000000" style="-webkit-tap-highlight-color: rgba(0, 0, 0, 0); stroke-linecap: round; stroke-linejoin: round; stroke-width: 11;" /><path d="M833,601L821,606L813,610L817,605L817,610L822,614L829,618" fill="none" stroke="#000000" style="-webkit-tap-highlight-color: rgba(0, 0, 0, 0); stroke-linecap: round; stroke-linejoin: round; stroke-width: 11;" /><path d="M458.37,589.91L457,590L447,586L447,586L457,589L460,586L466,581L478,580L493,573L506,573L517,570L538,569L532,570L554,569L546,569L570,571L562,571L577,571L587,572L591,570L602,575L610,575L618,575L626,579L634,579L647,580L636,580L650,580L658,581L661,581L671,569L682,568L674,569L688,564L691,570L691,578L690,573L686,587L690,582L686,587L684,599L690,588L697,592" fill="none" stroke="#000000" style="-webkit-tap-highlight-color: rgba(0, 0, 0, 0); stroke-linecap: round; stroke-linejoin: round; stroke-width: 11;" /><path d="M698,593L700,594L712,594L713,594L721,594L733,591L724,594L737,590L741,590L813.12,506.2L752,585L750,586L757,587L759,587L765,582L811,503L768,593L804,500L806,498L804,500L800,505L795,508L789,514L781,523L770,531L761,538L753,542L745,548" fill="none" stroke="#000000" style="-webkit-tap-highlight-color: rgba(0, 0, 0, 0); stroke-linecap: round; stroke-linejoin: round; stroke-width: 11;" /><path d="M735,554L728,561L722,566L717,569L713,569L718,573L713,569L720,572L653.68,506.2L650,505L650,511L651,519L645,530L643,542L633,548" fill="none" stroke="#000000" style="-webkit-tap-highlight-color: rgba(0, 0, 0, 0); stroke-linecap: round; stroke-linejoin: round; stroke-width: 11;" /><path d="M638,562L634,569" fill="none" stroke="#000000" style="-webkit-tap-highlight-color: rgba(0, 0, 0, 0); stroke-linecap: round; stroke-linejoin: round; stroke-width: 11;" /><path d="M1076.18,589.91L1072,590L1067,589L1084,594L1091,594L1103,598L1116,599L1129,600L1149,599L1160,605L1167,605L1180,606L1183,607L1194,600L1203,601L1213,601L1220,601L1231,602L1236,605" fill="none" stroke="#000000" style="-webkit-tap-highlight-color: rgba(0, 0, 0, 0); stroke-linecap: round; stroke-linejoin: round; stroke-width: 11;" /><path d="M1248,605L1244,605L1259,604L1264,605L1279,606L1286,606L1271,606L1295,607L1304,607L1310,610L1316,609L1323,609L1335,611L1327,609L1339,611L1349,613L1363,622L1357,616L1360,622L1367,624L1364,625" fill="none" stroke="#000000" style="-webkit-tap-highlight-color: rgba(0, 0, 0, 0); stroke-linecap: round; stroke-linejoin: round; stroke-width: 11;" /><path d="M1112.06,645.71L1110,638L1120,635L1120,635L1118,635L1110,638L1108,638L1102,640L1092,642L1080,637L1060,642L1072,639L1054,644L1042,650L1019,666L1027,659L1029,647L1013,669" fill="none" stroke="#000000" style="-webkit-tap-highlight-color: rgba(0, 0, 0, 0); stroke-linecap: round; stroke-linejoin: round; stroke-width: 11;" /><path d="M1004,676L981,686L977,673L973,698L955,700L955,700L955,700L955,700L955,700" fill="none" stroke="#000000" style="-webkit-tap-highlight-color: rgba(0, 0, 0, 0); stroke-linecap: round; stroke-linejoin: round; stroke-width: 11;" /><path d="M976.54,573.96L975,571L977,571L972,573L965,580L961,590L958,598L949,610L939,619L932,629" fill="none" stroke="#000000" style="-webkit-tap-highlight-color: rgba(0, 0, 0, 0); stroke-linecap: round; stroke-linejoin: round; stroke-width: 11;" /><path d="M922,638L921,642L918,642L913,646L913,651L860.95,613.82L865,615L869,609L865,615L860,617L849,621L837,626L826,634" fill="none" stroke="#000000" style="-webkit-tap-highlight-color: rgba(0, 0, 0, 0); stroke-linecap: round; stroke-linejoin: round; stroke-width: 11;" /><path d="M809,630L792,636L792,636L789,637" fill="none" stroke="#000000" style="-webkit-tap-highlight-color: rgba(0, 0, 0, 0); stroke-linecap: round; stroke-linejoin: round; stroke-width: 11;" /><path d="M35.87,562.01L32,563L28,563L24,563L32,563L40,563L44,563L48,563L48,563L64,558L76,558L88,554L96,554L104,554L112,554L120,554L124,550L132,550L136,550L143,550L147,550L155,550L163,550L171,550L175,550L183,550L191,546L195,546L199,546L215,546L207,546L219,546L227,546L235,546L243,546L255,546L263,546" fill="none" stroke="#000000" style="-webkit-tap-highlight-color: rgba(0, 0, 0, 0); stroke-linecap: round; stroke-linejoin: round; stroke-width: 11;" /><path d="M275,546L287,546L299,550L311,550L316,563L335,554L347,558L359,558L367,569L382,566L379,566L382,566L399,562L407,562L411,558L419,558L426,558L434,554L455,558L438,554L460,556L455,558L467,554L462,556L470,554L477,557L474,558L478,560" fill="none" stroke="#000000" style="-webkit-tap-highlight-color: rgba(0, 0, 0, 0); stroke-linecap: round; stroke-linejoin: round; stroke-width: 11;" /><path d="M1283.45,785.22L1281,788L1278,774L1282,770L1283,789L1281,788L1279,788L1277,791L1265,798L1274,794L1257,802L1248,804L1240,806L1236,807L1232,809L1228,810L1226,811L1216,813L1209,809L1220,812L1209,804L1206,805L1202,807L1196,801L1196,797L1201,793L1212,783L1207,789L1220,781L1228,778L1236,777L1253,773L1244,776L1256,772L1263,772L1268,772L1275,769L1279,769L1293,764L1282,769L1301,775L1301,775" fill="none" stroke="#000000" style="-webkit-tap-highlight-color: rgba(0, 0, 0, 0); stroke-linecap: round; stroke-linejoin: round; stroke-width: 11;" /><path d="M1304,781L1302,777L1303,783" fill="none" stroke="#000000" style="-webkit-tap-highlight-color: rgba(0, 0, 0, 0); stroke-linecap: round; stroke-linejoin: round; stroke-width: 11;" /><path d="M1462.81,721.44L1463,716L1465,710L1464,713L1465,710L1465,710L1471,708L1467,686L1463,694L1467,682L1467,678L1471,670L1471,666L1475,662L1475,650L1475,658L1488,638L1488,638L1488,638L1488,635L1488,638L1490,635L1495,635L1498,634L1503,637L1506,640L1515,638L1523,641L1527,642L1520,642L1530,646L1536,646L1537,646L1543,643L1543,643L1543,643L1554,662L1558,673L1554,658" fill="none" stroke="#000000" style="-webkit-tap-highlight-color: rgba(0, 0, 0, 0); stroke-linecap: round; stroke-linejoin: round; stroke-width: 11;" /></svg>