<?xml version="1.0" encoding="utf-8" ?>
<svg baseProfile="full" height="1200" version="1.1" width="1600" xmlns="http://www.w3.org/2000/svg" xmlns:ev="http://www.w3.org/2001/xml-events" xmlns:xlink="http://www.w3.org/1999/xlink"><defs /><path d="M269.53,422.94L266.67,420.07L266.67,417.2L266.67,414.34L266.67,417.2L269.53,420.07L272.4,425.81L275.27,431.54L278.14,437.28L283.87,443.01L286.74,448.75L289.61,457.35L295.34,463.08L301.08,468.82L303.94,474.55L306.81,480.29L309.68,486.02L309.68,488.89L312.54,494.62L315.41,500.36L315.41,506.09L315.41,511.83L318.28,514.7L318.28,520.43L318.28,529.03L318.28,534.77L318.28,540.5L318.28,546.24L318.28,551.97L318.28,557.71L318.28,563.44L318.28,569.18L318.28,574.91L318.28,583.51L318.28,589.25L318.28,594.98L318.28,600.72L318.28,609.32L315.41,615.05L315.41,623.66L315.41,632.26L315.41,637.99L315.41,646.59L315.41,652.33L315.41,660.93L315.41,666.67L315.41,675.27L315.41,683.87L315.41,701.08L315.41,709.68L318.28,721.15L318.28,729.75L318.28,738.35L321.15,744.09L321.15,752.69L321.15,761.29L321.15,767.03L324.01,775.63L324.01,781.36L324.01,787.1L326.88,792.83L326.88,801.43L326.88,810.04L326.88,818.64L326.88,827.24L326.88,835.84L326.88,844.44L326.88,853.05L326.88,864.52L326.88,873.12L326.88,881.72L326.88,887.46L326.88,896.06L326.88,904.66L326.88,913.26L326.88,919L326.88,927.6L326.88,933.33L326.88,939.07L326.88,944.8L326.88,950.54L326.88,959.14L324.01,967.74L324.01,973.48L324.01,979.21L324.01,987.81L324.01,999.28L321.15,1007.89L321.15,1016.49L321.15,1022.22L318.28,1033.69L318.28,1045.16L318.28,1056.63L318.28,1068.1L318.28,1076.7L318.28,1085.3L318.28,1093.91L318.28,1102.51L318.28,1105.38" fill="none" stroke="#000000" style="-webkit-tap-highlight-color: rgba(0, 0, 0, 0); stroke-linecap: round; stroke-linejoin: round; stroke-width: 8;" /><path d="M266.67,428.67L263.8,428.67L263.8,425.81L263.8,420.07L258.06,417.2L252.33,417.2L249.46,414.34L246.59,414.34L240.86,414.34L226.52,417.2L217.92,420.07L209.32,425.81L203.58,428.67L197.85,431.54L192.11,434.41L186.38,440.14L180.65,443.01L174.91,448.75L169.18,454.48L166.31,460.22L163.44,468.82L157.71,474.55L157.71,483.15L151.97,488.89L149.1,494.62L146.24,503.23L143.37,514.7L140.5,523.3L137.63,531.9L134.77,537.63L129.03,543.37L126.16,551.97L120.43,557.71L117.56,566.31L111.83,572.04L108.96,583.51L106.09,592.11L100.36,600.72L97.49,609.32L91.76,617.92L86.02,626.52L80.29,635.13L74.55,643.73L71.68,652.33L68.82,658.06L65.95,663.8L63.08,672.4L60.22,678.14L57.35,683.87L51.61,689.61L43.01,698.21L37.28,709.68L31.54,718.28L25.81,726.88L20.07,735.48L11.47,741.22L5.73,746.95L2.87,746.95L5.73,744.09" fill="none" stroke="#000000" style="-webkit-tap-highlight-color: rgba(0, 0, 0, 0); stroke-linecap: round; stroke-linejoin: round; stroke-width: 8;" /><path d="M223.66,417.2L220.79,417.2L217.92,417.2L215.05,414.34L209.32,414.34L203.58,414.34L197.85,414.34L192.11,414.34L186.38,414.34L177.78,414.34L169.18,414.34L160.57,414.34L151.97,417.2L143.37,417.2L134.77,417.2L126.16,417.2L117.56,417.2L108.96,417.2L100.36,417.2L91.76,417.2L86.02,417.2L77.42,417.2L71.68,417.2L65.95,417.2L57.35,420.07L48.75,420.07L43.01,420.07L34.41,420.07L28.67,420.07L20.07,420.07L14.34,422.94L8.6,422.94L5.73,422.94L2.87,422.94L0,422.94" fill="none" stroke="#000000" style="-webkit-tap-highlight-color: rgba(0, 0, 0, 0); stroke-linecap: round; stroke-linejoin: round; stroke-width: 8;" /><path d="M5.73,279.57L0,279.57" fill="none" stroke="#000000" style="-webkit-tap-highlight-color: rgba(0, 0, 0, 0); stroke-linecap: round; stroke-linejoin: round; stroke-width: 8;" /><path d="M0,279.57L2.87,282.44L8.6,285.3L14.34,288.17L22.94,291.04L31.54,293.91L43.01,293.91L48.75,296.77L57.35,299.64L60.22,302.51L65.95,305.38L71.68,305.38L77.42,308.24L83.15,308.24L86.02,308.24L88.89,308.24L88.89,311.11L91.76,316.85L91.76,331.18L91.76,339.78L91.76,348.39L91.76,356.99L91.76,365.59L91.76,377.06L91.76,388.53L91.76,397.13L91.76,402.87L91.76,405.73L88.89,408.6L88.89,411.47" fill="none" stroke="#000000" style="-webkit-tap-highlight-color: rgba(0, 0, 0, 0); stroke-linecap: round; stroke-linejoin: round; stroke-width: 8;" /><path d="M97.49,305.38L94.62,305.38L91.76,302.51L94.62,302.51L97.49,302.51L103.23,305.38L108.96,305.38L114.7,305.38L126.16,305.38L131.9,305.38L140.5,305.38L149.1,302.51L169.18,299.64L177.78,296.77L183.51,293.91L192.11,293.91L197.85,293.91L200.72,291.04L206.45,291.04L209.32,291.04L212.19,288.17L215.05,288.17L217.92,288.17L220.79,288.17L223.66,288.17L229.39,288.17L232.26,288.17L235.13,288.17L240.86,288.17L243.73,288.17L249.46,285.3L252.33,285.3L258.06,285.3L263.8,282.44L266.67,282.44L272.4,282.44L272.4,279.57L278.14,279.57L281,279.57L283.87,279.57L289.61,279.57L292.47,279.57L295.34,279.57L298.21,279.57L301.08,279.57L306.81,279.57L309.68,279.57L315.41,279.57L318.28,279.57L324.01,282.44L326.88,282.44L329.75,282.44L332.62,282.44L338.35,282.44L341.22,285.3L344.09,285.3L349.82,285.3L355.56,285.3L358.42,285.3L364.16,285.3L369.89,285.3L375.63,285.3L381.36,285.3L387.1,285.3L395.7,285.3L401.43,282.44L407.17,282.44L412.9,282.44L418.64,282.44L424.37,282.44L430.11,282.44L435.84,282.44L441.58,282.44L450.18,282.44L455.91,282.44L461.65,282.44L467.38,282.44L473.12,282.44L478.85,282.44L484.59,282.44L490.32,285.3L496.06,285.3L498.92,285.3L504.66,285.3L510.39,285.3L513.26,285.3L519,285.3L524.73,285.3L527.6,285.3L533.33,288.17L536.2,288.17L539.07,288.17L544.8,288.17L547.67,291.04L553.41,291.04L556.27,293.91L562.01,293.91L564.87,296.77L570.61,296.77L576.34,299.64L582.08,299.64L584.95,302.51L590.68,302.51L593.55,305.38L599.28,305.38L602.15,305.38L607.89,308.24L610.75,308.24L613.62,308.24L619.35,311.11L625.09,311.11L630.82,311.11L633.69,311.11L639.43,311.11L645.16,311.11L650.9,311.11L656.63,311.11L662.37,311.11L668.1,311.11L673.84,311.11L676.7,311.11L682.44,311.11L688.17,311.11L693.91,311.11L696.77,311.11L699.64,311.11L705.38,311.11L711.11,313.98L716.85,313.98L722.58,313.98L734.05,316.85L736.92,316.85L742.65,316.85L748.39,316.85L756.99,316.85L762.72,316.85L768.46,313.98L774.19,313.98L779.93,313.98L785.66,311.11L794.27,308.24L800,305.38L805.73,302.51L811.47,302.51L817.2,299.64L825.81,296.77L831.54,296.77L837.28,293.91L840.14,293.91L845.88,293.91L851.61,291.04L860.22,291.04L865.95,288.17L874.55,288.17L880.29,285.3L886.02,285.3L891.76,282.44L897.49,282.44L906.09,282.44L911.83,282.44L917.56,279.57L923.3,279.57L929.03,279.57L934.77,279.57L943.37,276.7L949.1,276.7L957.71,273.84L963.44,270.97L972.04,270.97L980.65,268.1L989.25,268.1L997.85,268.1L1006.45,265.23L1012.19,265.23L1020.79,262.37L1029.39,262.37L1037.99,262.37L1040.86,262.37L1049.46,262.37L1058.06,262.37L1066.67,262.37L1075.27,259.5L1083.87,256.63L1092.47,256.63L1101.08,253.76L1112.54,250.9L1124.01,250.9L1129.75,248.03L1135.48,248.03L1144.09,248.03L1155.56,248.03L1172.76,245.16L1181.36,245.16L1189.96,242.29L1198.57,242.29L1207.17,239.43L1215.77,239.43L1224.37,236.56L1232.97,236.56L1241.58,233.69L1250.18,230.82L1258.78,227.96L1264.52,227.96L1267.38,225.09L1273.12,225.09L1275.99,222.22L1278.85,222.22L1281.72,219.35L1287.46,216.49L1290.32,216.49L1293.19,213.62L1296.06,213.62L1298.92,210.75L1301.79,207.89L1307.53,205.02L1313.26,205.02L1316.13,202.15L1321.86,199.28L1324.73,196.42L1330.47,196.42L1336.2,193.55L1339.07,193.55L1341.94,190.68L1344.8,190.68L1344.8,187.81L1347.67,184.95L1350.54,182.08L1353.41,182.08L1356.27,179.21L1359.14,176.34L1364.87,173.48L1370.61,170.61L1379.21,167.74L1384.95,164.87L1390.68,162.01L1396.42,159.14L1405.02,159.14L1410.75,159.14L1413.62,156.27L1419.35,156.27L1422.22,156.27L1427.96,156.27L1433.69,156.27L1439.43,156.27L1445.16,153.41L1450.9,153.41L1456.63,153.41L1459.5,153.41L1465.23,153.41L1473.84,153.41L1479.57,153.41L1485.3,153.41L1488.17,153.41L1491.04,153.41L1496.77,156.27L1499.64,156.27L1505.38,159.14L1511.11,159.14L1513.98,159.14L1516.85,159.14L1519.71,159.14L1522.58,159.14L1528.32,159.14L1531.18,159.14L1534.05,159.14L1536.92,159.14L1539.78,159.14L1545.52,159.14L1548.39,159.14L1551.25,159.14L1554.12,162.01L1556.99,162.01L1559.86,162.01L1562.72,162.01L1565.59,164.87L1568.46,164.87L1571.33,164.87L1574.19,164.87L1577.06,164.87L1579.93,164.87L1582.8,167.74L1585.66,167.74L1588.53,170.61L1591.4,176.34L1591.4,187.81" fill="none" stroke="#000000" style="-webkit-tap-highlight-color: rgba(0, 0, 0, 0); stroke-linecap: round; stroke-linejoin: round; stroke-width: 8;" /><path d="M473.12,686.74L467.38,689.61L464.52,692.47L461.65,692.47L461.65,695.34L475.99,692.47L481.72,692.47L487.46,695.34L493.19,698.21L501.79,701.08L507.53,701.08L510.39,698.21L513.26,698.21L513.26,701.08L513.26,703.94L513.26,706.81L513.26,712.54L513.26,718.28L513.26,724.01L513.26,729.75L513.26,738.35L510.39,746.95L510.39,755.56L510.39,767.03L510.39,775.63L510.39,784.23L510.39,795.7L510.39,804.3L510.39,815.77L510.39,827.24L507.53,838.71L507.53,850.18L507.53,858.78L507.53,867.38L507.53,875.99L507.53,884.59L507.53,890.32L507.53,896.06L507.53,904.66L507.53,913.26L507.53,921.86L507.53,930.47L507.53,939.07L507.53,947.67L504.66,953.41L504.66,964.87L504.66,973.48L504.66,979.21L504.66,987.81L504.66,993.55L504.66,1002.15L501.79,1007.89L501.79,1013.62L501.79,1019.35L501.79,1027.96L501.79,1036.56L501.79,1042.29L501.79,1048.03L501.79,1056.63L501.79,1062.37L501.79,1070.97L501.79,1073.84" fill="none" stroke="#000000" style="-webkit-tap-highlight-color: rgba(0, 0, 0, 0); stroke-linecap: round; stroke-linejoin: round; stroke-width: 8;" /><path d="M510.39,709.68L510.39,706.81L507.53,706.81L507.53,703.94L510.39,703.94L513.26,701.08L519,698.21L524.73,698.21L530.47,698.21L533.33,698.21L539.07,698.21L541.94,701.08L547.67,701.08L550.54,701.08L553.41,703.94L556.27,706.81L559.14,706.81L562.01,709.68L564.87,709.68L564.87,712.54L562.01,715.41L559.14,721.15L559.14,729.75L556.27,738.35L553.41,746.95L553.41,758.42L553.41,769.89L553.41,781.36L553.41,792.83L553.41,804.3L553.41,815.77L553.41,824.37L553.41,835.84L553.41,844.44L553.41,855.91L553.41,864.52L553.41,873.12L553.41,881.72L550.54,890.32L550.54,898.92L550.54,907.53L550.54,913.26L550.54,919L547.67,927.6L547.67,933.33L547.67,941.94L544.8,947.67L544.8,953.41L544.8,959.14L541.94,964.87L541.94,973.48L541.94,979.21L541.94,984.95L541.94,990.68L541.94,996.42L541.94,1002.15L541.94,1010.75L541.94,1019.35L541.94,1030.82L541.94,1039.43L541.94,1045.16L541.94,1048.03L541.94,1056.63L541.94,1062.37" fill="none" stroke="#000000" style="-webkit-tap-highlight-color: rgba(0, 0, 0, 0); stroke-linecap: round; stroke-linejoin: round; stroke-width: 8;" /><path d="M80.29,1202.87L80.29,1200L80.29,1197.13L80.29,1194.27L83.15,1194.27L86.02,1197.13L88.89,1197.13L94.62,1197.13L111.83,1188.53L120.43,1185.66L129.03,1185.66L134.77,1182.8L143.37,1182.8L151.97,1177.06L163.44,1171.33L174.91,1162.72L183.51,1159.86L189.25,1156.99L197.85,1154.12L206.45,1148.39L215.05,1142.65L223.66,1136.92L232.26,1131.18L237.99,1128.32L246.59,1125.45L252.33,1122.58L260.93,1119.71L266.67,1116.85L269.53,1116.85L272.4,1116.85L278.14,1113.98L283.87,1113.98L289.61,1111.11L292.47,1111.11L295.34,1111.11L301.08,1111.11L303.94,1108.24L306.81,1108.24L309.68,1108.24L312.54,1108.24L315.41,1108.24L318.28,1108.24L321.15,1108.24L324.01,1108.24L326.88,1108.24L329.75,1105.38L329.75,1102.51L332.62,1099.64L335.48,1093.91L338.35,1091.04L344.09,1088.17L346.95,1082.44L349.82,1079.57L352.69,1076.7L355.56,1073.84L358.42,1070.97L361.29,1068.1L364.16,1065.23L369.89,1062.37L369.89,1059.5L372.76,1056.63L375.63,1056.63L375.63,1053.76L378.49,1053.76L381.36,1053.76L384.23,1053.76L387.1,1053.76L389.96,1053.76L395.7,1050.9L401.43,1050.9L407.17,1050.9L412.9,1050.9L418.64,1050.9L424.37,1050.9L435.84,1050.9L441.58,1050.9L444.44,1050.9L450.18,1050.9L453.05,1050.9L455.91,1053.76L461.65,1053.76L464.52,1056.63L470.25,1056.63L473.12,1056.63L475.99,1059.5L481.72,1059.5L484.59,1059.5L487.46,1062.37L493.19,1062.37L496.06,1062.37L501.79,1062.37L504.66,1065.23L507.53,1065.23L513.26,1065.23L519,1065.23L524.73,1065.23L530.47,1062.37L533.33,1062.37L539.07,1059.5L544.8,1056.63L553.41,1056.63" fill="none" stroke="#000000" style="-webkit-tap-highlight-color: rgba(0, 0, 0, 0); stroke-linecap: round; stroke-linejoin: round; stroke-width: 8;" /><path d="M473.12,698.21L470.25,698.21L470.25,695.34L470.25,692.47L470.25,689.61L473.12,686.74L473.12,683.87L473.12,681L473.12,678.14L473.12,672.4L475.99,669.53L475.99,666.67L475.99,660.93L478.85,655.2L478.85,649.46L478.85,643.73L481.72,637.99L481.72,635.13L481.72,629.39L484.59,623.66L487.46,617.92L487.46,612.19L490.32,606.45L490.32,600.72L490.32,597.85L493.19,592.11L496.06,586.38L496.06,580.65L498.92,574.91L501.79,569.18L501.79,563.44L504.66,560.57L507.53,554.84L507.53,551.97L510.39,549.1L513.26,543.37L516.13,540.5L519,534.77L524.73,529.03L527.6,523.3L533.33,520.43L536.2,514.7L539.07,508.96L541.94,506.09L544.8,503.23L550.54,500.36L553.41,494.62L559.14,491.76L562.01,488.89L564.87,486.02L570.61,483.15L573.48,477.42L579.21,474.55L582.08,471.68L584.95,468.82L587.81,468.82L593.55,465.95L596.42,463.08L599.28,457.35L602.15,454.48L605.02,451.61L607.89,451.61L610.75,448.75L613.62,445.88L616.49,443.01L619.35,443.01L622.22,440.14L625.09,440.14L627.96,437.28L630.82,434.41L633.69,434.41L636.56,431.54L639.43,431.54L642.29,428.67L648.03,428.67L650.9,425.81L656.63,425.81L659.5,422.94L662.37,422.94L668.1,422.94L673.84,422.94L676.7,420.07L682.44,420.07L685.3,420.07L691.04,417.2L693.91,417.2L696.77,417.2L699.64,417.2L702.51,417.2L708.24,417.2L713.98,417.2L716.85,417.2L722.58,417.2L725.45,417.2L728.32,417.2L731.18,414.34L734.05,414.34L736.92,414.34L739.78,414.34L742.65,414.34L748.39,414.34L751.25,414.34L754.12,414.34L756.99,414.34L762.72,414.34L765.59,414.34L768.46,414.34L774.19,414.34L777.06,414.34L779.93,414.34L785.66,417.2L788.53,417.2L791.4,417.2L794.27,420.07L797.13,420.07L800,420.07L800,422.94L802.87,422.94L805.73,425.81L808.6,428.67L811.47,428.67L811.47,431.54L814.34,431.54L814.34,434.41L817.2,434.41L817.2,437.28L820.07,437.28L822.94,440.14L825.81,440.14L825.81,443.01L828.67,443.01L831.54,445.88L834.41,445.88L834.41,448.75L837.28,448.75L840.14,451.61L843.01,451.61L845.88,454.48L848.75,454.48L851.61,457.35L854.48,457.35L854.48,460.22L857.35,463.08L860.22,463.08L863.08,465.95L865.95,468.82L868.82,471.68L871.68,474.55L874.55,474.55L877.42,477.42L880.29,477.42L883.15,480.29L886.02,483.15L888.89,483.15L891.76,486.02L894.62,488.89L897.49,488.89L900.36,491.76L903.23,494.62L906.09,497.49L906.09,500.36L908.96,503.23L911.83,506.09L914.7,508.96L917.56,511.83L917.56,514.7L920.43,517.56L923.3,523.3L926.16,526.16L926.16,529.03L929.03,531.9L931.9,537.63L931.9,540.5L934.77,543.37L937.63,546.24L937.63,549.1L940.5,554.84L940.5,557.71L943.37,563.44L943.37,566.31L946.24,569.18L949.1,574.91L949.1,580.65L951.97,583.51L951.97,589.25L954.84,594.98L957.71,600.72L960.57,606.45L960.57,609.32L963.44,615.05L963.44,617.92L966.31,623.66L969.18,626.52L969.18,629.39L972.04,635.13L972.04,637.99L972.04,640.86L974.91,646.59L974.91,649.46L974.91,655.2L974.91,658.06L977.78,660.93L977.78,663.8L974.91,666.67L974.91,669.53L972.04,669.53L969.18,669.53L966.31,669.53L960.57,669.53L954.84,669.53L951.97,669.53L946.24,669.53L943.37,669.53L940.5,669.53L934.77,669.53L934.77,672.4L934.77,675.27L934.77,678.14L937.63,681L937.63,686.74L937.63,689.61L937.63,692.47L937.63,695.34L937.63,701.08L940.5,706.81L940.5,709.68L940.5,715.41L940.5,718.28L940.5,724.01L940.5,729.75L940.5,735.48L940.5,741.22L940.5,746.95L940.5,749.82L940.5,755.56L940.5,758.42L940.5,764.16L940.5,769.89L940.5,775.63L940.5,781.36L940.5,787.1L940.5,792.83L940.5,798.57L937.63,807.17L937.63,812.9L937.63,818.64L937.63,827.24L937.63,832.97L937.63,841.58L937.63,850.18L937.63,858.78L937.63,867.38L937.63,878.85L937.63,887.46L937.63,893.19L937.63,901.79L937.63,907.53L937.63,916.13L934.77,933.33L934.77,939.07L934.77,944.8L934.77,953.41L934.77,959.14L934.77,964.87L934.77,970.61L934.77,973.48L931.9,982.08L931.9,987.81L931.9,993.55L931.9,1002.15L931.9,1007.89L931.9,1013.62L931.9,1019.35L931.9,1025.09L931.9,1030.82L931.9,1036.56L931.9,1039.43L931.9,1042.29L931.9,1048.03L931.9,1050.9L931.9,1053.76L931.9,1056.63L931.9,1059.5L931.9,1062.37L931.9,1065.23L931.9,1068.1L929.03,1070.97L926.16,1073.84L923.3,1076.7L917.56,1082.44L914.7,1085.3L914.7,1088.17L911.83,1088.17L908.96,1091.04L903.23,1091.04L900.36,1093.91L891.76,1096.77L886.02,1096.77L880.29,1096.77L871.68,1099.64L865.95,1099.64L857.35,1099.64L851.61,1102.51L848.75,1105.38L843.01,1108.24L840.14,1108.24L837.28,1111.11L834.41,1111.11L831.54,1111.11L828.67,1113.98L825.81,1116.85L825.81,1119.71L822.94,1122.58L822.94,1125.45L822.94,1128.32L820.07,1131.18L820.07,1136.92L817.2,1145.52L814.34,1151.25L814.34,1156.99L814.34,1162.72L814.34,1168.46L814.34,1174.19L814.34,1179.93L814.34,1185.66L814.34,1188.53L814.34,1194.27L814.34,1197.13L814.34,1200" fill="none" stroke="#000000" style="-webkit-tap-highlight-color: rgba(0, 0, 0, 0); stroke-linecap: round; stroke-linejoin: round; stroke-width: 8;" /><path d="M929.03,1076.7L937.63,1068.1L951.97,1065.23L974.91,1062.37L986.38,1059.5L1000.72,1059.5L1012.19,1056.63L1020.79,1056.63L1029.39,1059.5L1040.86,1059.5L1049.46,1059.5L1060.93,1059.5L1072.4,1059.5L1081,1059.5L1089.61,1056.63L1095.34,1056.63L1101.08,1056.63L1103.94,1056.63L1109.68,1053.76L1112.54,1050.9L1115.41,1048.03L1118.28,1048.03L1121.15,1048.03L1124.01,1048.03L1124.01,1050.9L1126.88,1053.76L1126.88,1056.63L1126.88,1059.5L1126.88,1065.23L1126.88,1068.1L1129.75,1073.84L1129.75,1076.7L1129.75,1079.57L1129.75,1085.3L1129.75,1091.04L1129.75,1096.77L1129.75,1102.51L1129.75,1105.38L1129.75,1111.11L1129.75,1116.85L1129.75,1122.58L1129.75,1128.32L1132.62,1134.05L1132.62,1136.92L1132.62,1142.65L1129.75,1145.52L1129.75,1151.25L1126.88,1156.99L1126.88,1165.59L1124.01,1171.33L1124.01,1177.06L1124.01,1182.8L1124.01,1185.66L1124.01,1188.53L1121.15,1197.13" fill="none" stroke="#000000" style="-webkit-tap-highlight-color: rgba(0, 0, 0, 0); stroke-linecap: round; stroke-linejoin: round; stroke-width: 8;" /><path d="M1155.56,1059.5L1152.69,1059.5L1146.95,1059.5L1144.09,1059.5L1138.35,1059.5L1135.48,1059.5L1141.22,1062.37L1144.09,1065.23L1152.69,1065.23L1158.42,1065.23L1167.03,1065.23L1175.63,1062.37L1181.36,1059.5L1189.96,1056.63L1198.57,1050.9L1207.17,1042.29L1212.9,1036.56L1218.64,1030.82L1227.24,1027.96L1230.11,1022.22L1235.84,1019.35L1238.71,1016.49L1241.58,1013.62L1241.58,1010.75L1244.44,1007.89L1247.31,1007.89L1250.18,1005.02L1255.91,1005.02L1258.78,1002.15L1261.65,999.28L1264.52,999.28L1270.25,999.28L1273.12,996.42L1278.85,996.42L1287.46,993.55L1296.06,990.68L1304.66,990.68L1310.39,987.81L1319,987.81L1324.73,987.81L1333.33,987.81L1344.8,987.81L1353.41,987.81L1364.87,987.81L1370.61,987.81L1379.21,987.81L1384.95,990.68L1393.55,993.55L1402.15,993.55L1413.62,993.55L1422.22,993.55L1427.96,993.55L1436.56,993.55L1442.29,993.55L1450.9,993.55L1456.63,993.55L1462.37,990.68L1468.1,990.68L1473.84,990.68L1476.7,990.68L1482.44,990.68L1488.17,990.68L1496.77,990.68L1505.38,990.68L1511.11,990.68L1516.85,990.68L1519.71,990.68L1525.45,993.55L1528.32,993.55L1534.05,996.42L1539.78,996.42L1542.65,999.28L1545.52,999.28L1551.25,1002.15L1554.12,1002.15L1559.86,1005.02L1565.59,1005.02L1571.33,1007.89L1574.19,1007.89L1582.8,1010.75L1588.53,1010.75L1594.27,1010.75L1600,1013.62" fill="none" stroke="#000000" style="-webkit-tap-highlight-color: rgba(0, 0, 0, 0); stroke-linecap: round; stroke-linejoin: round; stroke-width: 8;" /><path d="M1032.26,589.25L1029.39,589.25L1029.39,592.11L1029.39,603.58L1029.39,612.19L1035.13,623.66L1037.99,632.26L1037.99,643.73L1040.86,658.06L1040.86,672.4L1040.86,683.87L1040.86,692.47L1040.86,703.94L1040.86,715.41L1040.86,726.88L1040.86,738.35L1040.86,749.82L1040.86,761.29L1040.86,775.63L1040.86,787.1L1040.86,798.57L1040.86,812.9L1043.73,824.37L1043.73,835.84L1043.73,847.31L1043.73,861.65L1043.73,873.12L1043.73,887.46L1043.73,898.92L1046.59,910.39L1046.59,921.86L1046.59,933.33L1046.59,944.8L1046.59,953.41L1049.46,962.01L1049.46,970.61L1049.46,979.21L1049.46,987.81L1049.46,996.42L1049.46,1005.02L1049.46,1010.75L1049.46,1016.49L1049.46,1022.22L1049.46,1027.96L1049.46,1033.69L1049.46,1042.29L1049.46,1048.03L1049.46,1056.63L1049.46,1045.16" fill="none" stroke="#000000" style="-webkit-tap-highlight-color: rgba(0, 0, 0, 0); stroke-linecap: round; stroke-linejoin: round; stroke-width: 8;" /><path d="M404.3,698.21L401.43,698.21L401.43,689.61L404.3,678.14L407.17,669.53L410.04,658.06L412.9,649.46L415.77,637.99L415.77,632.26L418.64,632.26L418.64,623.66L421.51,615.05L424.37,606.45L424.37,597.85L427.24,592.11L427.24,586.38L430.11,580.65L432.97,574.91L435.84,569.18L438.71,563.44L441.58,554.84L444.44,549.1L447.31,543.37L450.18,540.5L453.05,534.77L455.91,529.03L458.78,523.3L464.52,517.56L467.38,511.83L473.12,506.09L475.99,500.36L478.85,497.49L484.59,491.76L487.46,486.02L490.32,480.29L493.19,474.55L498.92,471.68L501.79,465.95L504.66,460.22L510.39,454.48L516.13,445.88L521.86,440.14L527.6,434.41L533.33,431.54L539.07,425.81L541.94,420.07L547.67,417.2L550.54,414.34L556.27,411.47L562.01,408.6L567.74,402.87L573.48,400L579.21,394.27L587.81,391.4L593.55,388.53L602.15,385.66L607.89,382.8L613.62,379.93L619.35,379.93L625.09,377.06L627.96,377.06L633.69,374.19L636.56,374.19L639.43,371.33L645.16,371.33L648.03,368.46L653.76,368.46L656.63,365.59L662.37,365.59L665.23,365.59L668.1,362.72L673.84,362.72L676.7,362.72L679.57,359.86L682.44,359.86L688.17,359.86L691.04,359.86L693.91,356.99L696.77,356.99L699.64,356.99L705.38,356.99L708.24,354.12L713.98,354.12L716.85,354.12L719.71,354.12L725.45,354.12L731.18,354.12L736.92,354.12L745.52,354.12L751.25,354.12L759.86,354.12L768.46,354.12L779.93,354.12L791.4,354.12L800,354.12L808.6,354.12L814.34,356.99L820.07,359.86L825.81,359.86L828.67,362.72L831.54,362.72L831.54,365.59L834.41,365.59L837.28,368.46L840.14,368.46L843.01,368.46L845.88,371.33L848.75,371.33L854.48,374.19L860.22,377.06L865.95,379.93L871.68,379.93L877.42,382.8L886.02,385.66L891.76,388.53L897.49,391.4L903.23,397.13L906.09,400L911.83,402.87L917.56,405.73L920.43,408.6L926.16,414.34L929.03,417.2L931.9,420.07L934.77,422.94L937.63,425.81L940.5,431.54L943.37,434.41L943.37,440.14L946.24,443.01L949.1,448.75L954.84,454.48L957.71,460.22L960.57,465.95L963.44,468.82L966.31,471.68L966.31,474.55L969.18,477.42L969.18,480.29L972.04,480.29L972.04,483.15L974.91,486.02L977.78,488.89L977.78,491.76L980.65,494.62L980.65,497.49L983.51,500.36L986.38,503.23L986.38,506.09L989.25,506.09L992.11,511.83L994.98,514.7L997.85,520.43L1000.72,520.43L1000.72,523.3L1003.58,523.3L1003.58,526.16L1006.45,529.03L1006.45,531.9L1009.32,534.77L1009.32,537.63L1012.19,540.5L1012.19,543.37L1015.05,546.24L1015.05,549.1L1017.92,549.1L1017.92,551.97L1020.79,554.84L1020.79,557.71L1023.66,557.71L1023.66,560.57L1026.52,566.31L1026.52,569.18L1029.39,574.91L1032.26,577.78L1035.13,583.51L1037.99,592.11L1037.99,600.72L1040.86,609.32L1043.73,620.79" fill="none" stroke="#000000" style="-webkit-tap-highlight-color: rgba(0, 0, 0, 0); stroke-linecap: round; stroke-linejoin: round; stroke-width: 8;" /><path d="M848.75,465.95L845.88,465.95L845.88,468.82L843.01,468.82L837.28,471.68L834.41,471.68L831.54,471.68L825.81,471.68L820.07,471.68L814.34,471.68L811.47,474.55L805.73,477.42L800,477.42L794.27,483.15L788.53,486.02L782.8,488.89L777.06,491.76L771.33,494.62L765.59,497.49L762.72,500.36L756.99,506.09L751.25,511.83L748.39,517.56L742.65,523.3L736.92,526.16L734.05,529.03L731.18,531.9L725.45,537.63L722.58,543.37L719.71,546.24L713.98,551.97L711.11,557.71L708.24,560.57L702.51,566.31L696.77,572.04L693.91,577.78L688.17,580.65L685.3,583.51L682.44,586.38L679.57,589.25L676.7,594.98L670.97,600.72L668.1,606.45L665.23,609.32L662.37,612.19L659.5,615.05L659.5,617.92L656.63,620.79L653.76,623.66L653.76,626.52L653.76,632.26L653.76,635.13L653.76,640.86L653.76,643.73L653.76,646.59L653.76,649.46L653.76,652.33L653.76,655.2L653.76,658.06L653.76,660.93L653.76,663.8L656.63,666.67L656.63,672.4L656.63,675.27L656.63,681L656.63,683.87L656.63,686.74L656.63,692.47L656.63,695.34L656.63,698.21L656.63,703.94L656.63,706.81L656.63,712.54L656.63,715.41L656.63,721.15L656.63,726.88L656.63,732.62L653.76,738.35L653.76,744.09L653.76,749.82L653.76,755.56L653.76,764.16L650.9,772.76L650.9,781.36L650.9,787.1L650.9,795.7L650.9,804.3L650.9,812.9L650.9,821.51L650.9,830.11L650.9,835.84L650.9,844.44L650.9,853.05L650.9,861.65L650.9,870.25L650.9,878.85L650.9,887.46L650.9,898.92L650.9,907.53L650.9,913.26L648.03,921.86L648.03,927.6L648.03,936.2L648.03,947.67L648.03,953.41L648.03,962.01L648.03,967.74L648.03,973.48L648.03,982.08L648.03,987.81L648.03,993.55L648.03,1002.15L650.9,1010.75L650.9,1016.49L650.9,1019.35" fill="none" stroke="#000000" style="-webkit-tap-highlight-color: rgba(0, 0, 0, 0); stroke-linecap: round; stroke-linejoin: round; stroke-width: 8;" /><path d="M659.5,660.93L659.5,658.06L656.63,658.06L653.76,660.93L656.63,660.93L659.5,663.8L665.23,666.67L670.97,672.4L676.7,678.14L682.44,681L691.04,683.87L696.77,686.74L702.51,686.74L708.24,689.61L711.11,692.47L713.98,692.47L716.85,695.34L719.71,698.21L722.58,701.08L722.58,706.81L722.58,709.68L722.58,712.54L722.58,721.15L722.58,729.75L722.58,735.48L722.58,741.22L722.58,746.95L722.58,752.69L722.58,758.42L725.45,764.16L728.32,767.03L734.05,769.89L736.92,775.63L739.78,778.49L742.65,784.23L748.39,787.1L751.25,792.83L754.12,798.57L756.99,801.43L762.72,807.17L765.59,812.9L768.46,815.77L774.19,821.51L779.93,827.24L782.8,830.11L788.53,835.84L791.4,838.71L794.27,844.44L797.13,850.18L802.87,855.91L805.73,861.65L808.6,867.38L811.47,870.25L814.34,875.99L817.2,878.85L820.07,884.59L822.94,887.46L825.81,890.32L828.67,893.19L831.54,898.92L834.41,901.79L837.28,907.53L843.01,910.39L845.88,913.26L848.75,916.13L851.61,921.86L854.48,924.73L857.35,927.6L863.08,930.47L868.82,933.33L871.68,936.2L877.42,936.2L883.15,939.07L886.02,941.94L891.76,944.8L894.62,947.67L900.36,953.41L906.09,959.14L911.83,964.87L914.7,964.87L917.56,964.87L920.43,964.87L923.3,959.14" fill="none" stroke="#000000" style="-webkit-tap-highlight-color: rgba(0, 0, 0, 0); stroke-linecap: round; stroke-linejoin: round; stroke-width: 8;" /><path d="M559.14,1042.29L556.27,1042.29L553.41,1045.16L556.27,1045.16L559.14,1045.16L564.87,1045.16L570.61,1045.16L576.34,1045.16L582.08,1045.16L587.81,1042.29L593.55,1039.43L599.28,1036.56L605.02,1033.69L610.75,1030.82L616.49,1027.96L622.22,1025.09L627.96,1019.35L630.82,1016.49L636.56,1016.49L639.43,1013.62L642.29,1013.62L645.16,1016.49L648.03,1016.49L650.9,1016.49L653.76,1016.49L656.63,1016.49L659.5,1016.49L662.37,1013.62L662.37,1010.75" fill="none" stroke="#000000" style="-webkit-tap-highlight-color: rgba(0, 0, 0, 0); stroke-linecap: round; stroke-linejoin: round; stroke-width: 8;" /><path d="M656.63,1010.75L662.37,1007.89L670.97,1005.02L676.7,1002.15L679.57,999.28L682.44,999.28L685.3,999.28L688.17,996.42L693.91,996.42L696.77,996.42L699.64,993.55L705.38,993.55L708.24,993.55L713.98,993.55L719.71,993.55L725.45,990.68L731.18,990.68L736.92,987.81L742.65,987.81L748.39,987.81L754.12,987.81L762.72,987.81L771.33,984.95L777.06,984.95L782.8,984.95L785.66,984.95L791.4,984.95L797.13,984.95L800,982.08L805.73,979.21L811.47,976.34L817.2,976.34L820.07,973.48L825.81,973.48L828.67,970.61L831.54,970.61L837.28,967.74L840.14,964.87L845.88,962.01L851.61,959.14L857.35,959.14L863.08,956.27L868.82,956.27L874.55,953.41L880.29,953.41L886.02,956.27L894.62,959.14L903.23,962.01L911.83,964.87L920.43,964.87L926.16,962.01" fill="none" stroke="#000000" style="-webkit-tap-highlight-color: rgba(0, 0, 0, 0); stroke-linecap: round; stroke-linejoin: round; stroke-width: 8;" /></svg>