<?xml version="1.0" encoding="utf-8" ?>
<svg baseProfile="full" height="1200" version="1.1" width="1600" xmlns="http://www.w3.org/2000/svg" xmlns:ev="http://www.w3.org/2001/xml-events" xmlns:xlink="http://www.w3.org/1999/xlink"><defs /><path d="M469.97,675.22L468.8,674.05L468.8,672.89L467.64,671.72L468.8,669.39L469.97,662.39L472.3,655.39L473.47,647.23L475.8,637.9L480.47,625.07L482.8,614.58L486.3,602.92L488.63,593.59L490.96,587.76L494.46,580.76L496.79,574.93L499.13,569.1L500.29,565.6L508.45,553.94L509.62,551.6L513.12,544.61L516.62,536.44L518.95,530.61L522.45,524.78L524.78,522.45L531.78,516.62L536.44,510.79L542.27,503.79L553.94,495.63L558.6,493.29L560.93,492.13L569.1,486.3L573.76,481.63L578.43,476.97L580.76,474.64L588.92,466.47L591.25,465.31L598.25,460.64L600.58,458.31L608.75,452.48L611.08,450.15L618.08,446.65L626.24,441.98L632.07,438.48L637.9,436.15L643.73,434.99L648.4,433.82L653.06,431.49L656.56,430.32L663.56,426.82L665.89,425.66L669.39,424.49L675.22,423.32L683.38,420.99L688.05,419.83L691.55,419.83L695.04,419.83L697.38,418.66L703.21,417.49L707.87,417.49L712.54,417.49L717.2,416.33L720.7,416.33L726.53,416.33L730.03,417.49L735.86,416.33L739.36,416.33L745.19,417.49L746.36,417.49L751.02,419.83L755.69,420.99L762.68,423.32L765.01,423.32L772.01,425.66L776.68,426.82L782.51,429.15L788.34,429.15L794.17,430.32L796.5,432.65L800,433.82L803.5,436.15L807,437.32L810.5,439.65L813.99,441.98L817.49,443.15L820.99,445.48L825.66,447.81L837.32,455.98L839.65,457.14L840.82,457.14L843.15,459.48L844.31,460.64L846.65,462.97L848.98,464.14L853.64,466.47L855.98,468.8L860.64,471.14L862.97,473.47L868.8,478.13L873.47,480.47L876.97,481.63L880.47,483.97L883.97,487.46L887.46,489.8L892.13,494.46L895.63,497.96L897.96,500.29L902.62,504.96L904.96,507.29L908.45,509.62L911.95,513.12L914.29,516.62L920.12,521.28L922.45,525.95L925.95,530.61L929.45,538.78L932.94,544.61L935.28,550.44L937.61,553.94L938.78,555.1L941.11,559.77L943.44,566.76L944.61,571.43L945.77,574.93L946.94,579.59L949.27,583.09L950.44,586.59L952.77,588.92L953.94,591.25L955.1,597.08L955.1,599.42L959.77,607.58L960.93,612.24L963.27,615.74L964.43,620.41L964.43,623.91L966.76,626.24L967.93,628.57L969.1,630.9L970.26,633.24L972.59,636.73L974.93,639.07L976.09,641.4L977.26,647.23L979.59,650.73L979.59,651.9L980.76,654.23" fill="none" stroke="#000000" style="-webkit-tap-highlight-color: rgba(0, 0, 0, 0); stroke-linecap: round; stroke-linejoin: round; stroke-width: 8;" /><path d="M942.27,674.05L946.94,671.72L951.6,670.55L955.1,669.39L959.77,669.39L965.6,669.39L970.26,669.39L979.59,668.22" fill="none" stroke="#000000" style="-webkit-tap-highlight-color: rgba(0, 0, 0, 0); stroke-linecap: round; stroke-linejoin: round; stroke-width: 8;" /><path d="M942.27,670.55L942.27,668.22L941.11,667.06L941.11,665.89L941.11,664.72L939.94,662.39L938.78,662.39L937.61,663.56L935.28,664.72L934.11,669.39L932.94,674.05L932.94,677.55L931.78,681.05L931.78,684.55L930.61,688.05L929.45,691.55L929.45,695.04L929.45,698.54L930.61,706.71L930.61,711.37L930.61,717.2L930.61,720.7L930.61,725.36L930.61,730.03L930.61,737.03L930.61,744.02L930.61,749.85L930.61,755.69L930.61,762.68L930.61,768.51L930.61,774.34L930.61,780.17L931.78,788.34L931.78,795.34L931.78,803.5L931.78,811.66L930.61,819.83L930.61,826.82L928.28,832.65L927.11,838.48L925.95,845.48L925.95,855.98L927.11,860.64L927.11,866.47L927.11,871.14L927.11,874.64L927.11,879.3L927.11,882.8L928.28,889.8L928.28,896.79L928.28,899.13L929.45,914.29L929.45,917.78L929.45,924.78L930.61,936.44L930.61,942.27L930.61,951.6L931.78,957.43L930.61,963.27L930.61,971.43L929.45,979.59L929.45,980.76L929.45,984.26L929.45,988.92L929.45,999.42L929.45,1004.08L929.45,1009.91L929.45,1013.41L930.61,1021.57L930.61,1026.24L930.61,1027.41L931.78,1032.07L931.78,1036.73L931.78,1040.23L931.78,1044.9L931.78,1049.56L931.78,1053.06L932.94,1055.39L932.94,1060.06L932.94,1062.39L932.94,1064.72L932.94,1067.06L932.94,1068.22L932.94,1069.39L932.94,1072.89L931.78,1075.22L930.61,1077.55L930.61,1078.72L930.61,1079.88" fill="none" stroke="#000000" style="-webkit-tap-highlight-color: rgba(0, 0, 0, 0); stroke-linecap: round; stroke-linejoin: round; stroke-width: 8;" /><path d="M886.3,1079.88L885.13,1079.88L880.47,1079.88L875.8,1081.05L871.14,1082.22L865.31,1085.71L859.48,1088.05L852.48,1093.88L848.98,1096.21L846.65,1097.38L844.31,1099.71L838.48,1103.21L833.82,1107.87L830.32,1111.37L826.82,1116.03L825.66,1119.53L823.32,1121.87L822.16,1124.2L820.99,1126.53L820.99,1127.7L820.99,1130.03L822.16,1131.2L822.16,1132.36L823.32,1133.53L823.32,1134.69L822.16,1137.03L820.99,1141.69L819.83,1145.19L817.49,1153.35L817.49,1156.85L817.49,1162.68L816.33,1168.51L815.16,1174.34L815.16,1180.17L815.16,1188.34L815.16,1194.17L815.16,1200" fill="none" stroke="#000000" style="-webkit-tap-highlight-color: rgba(0, 0, 0, 0); stroke-linecap: round; stroke-linejoin: round; stroke-width: 8;" /><path d="M871.14,1086.88L871.14,1085.71L873.47,1083.38L878.13,1082.22L886.3,1082.22L893.29,1082.22L901.46,1081.05L911.95,1079.88L928.28,1078.72L938.78,1078.72L946.94,1079.88L953.94,1079.88L962.1,1078.72L973.76,1077.55L980.76,1077.55L986.59,1076.38L992.42,1076.38L1001.75,1077.55L1007.58,1077.55L1014.58,1077.55L1020.41,1077.55L1027.41,1077.55L1039.07,1079.88L1042.57,1079.88L1047.23,1079.88L1053.06,1079.88L1060.06,1079.88L1063.56,1079.88L1068.22,1079.88L1071.72,1079.88L1076.38,1079.88L1079.88,1081.05L1086.88,1082.22L1090.38,1083.38L1095.04,1084.55L1102.04,1088.05L1105.54,1090.38L1110.2,1091.55L1112.54,1093.88L1117.2,1095.04L1121.87,1097.38L1125.36,1098.54L1127.7,1100.87L1128.86,1100.87L1132.36,1100.87L1133.53,1100.87L1134.69,1102.04L1137.03,1103.21L1139.36,1105.54L1141.69,1106.71" fill="none" stroke="#000000" style="-webkit-tap-highlight-color: rgba(0, 0, 0, 0); stroke-linecap: round; stroke-linejoin: round; stroke-width: 8;" /><path d="M1132.36,1112.54L1133.53,1110.2L1135.86,1110.2L1139.36,1112.54L1140.52,1116.03L1142.86,1125.36L1145.19,1132.36L1146.36,1138.19L1149.85,1145.19L1151.02,1151.02L1152.19,1155.69L1153.35,1161.52L1154.52,1167.35L1156.85,1172.01L1159.18,1176.68L1160.35,1181.34L1161.52,1184.84L1162.68,1190.67L1165.01,1196.5L1167.35,1201.17" fill="none" stroke="#000000" style="-webkit-tap-highlight-color: rgba(0, 0, 0, 0); stroke-linecap: round; stroke-linejoin: round; stroke-width: 8;" /><path d="M1127.7,1116.03L1126.53,1114.87L1125.36,1114.87L1124.2,1116.03L1121.87,1119.53L1120.7,1125.36L1117.2,1135.86L1111.37,1161.52L1110.2,1172.01L1110.2,1182.51L1111.37,1191.84L1111.37,1200" fill="none" stroke="#000000" style="-webkit-tap-highlight-color: rgba(0, 0, 0, 0); stroke-linecap: round; stroke-linejoin: round; stroke-width: 8;" /><path d="M1049.56,1068.22L1051.9,1064.72L1056.56,1062.39L1065.89,1056.56L1072.89,1053.06L1078.72,1049.56L1085.71,1044.9L1096.21,1039.07L1103.21,1036.73L1109.04,1036.73L1111.37,1037.9L1113.7,1040.23L1118.37,1042.57L1123.03,1044.9L1127.7,1047.23L1131.2,1049.56L1137.03,1056.56L1140.52,1062.39L1146.36,1065.89L1152.19,1068.22L1159.18,1071.72L1166.18,1074.05L1172.01,1076.38L1176.68,1078.72L1181.34,1081.05L1187.17,1082.22L1190.67,1084.55L1193,1086.88L1194.17,1090.38L1201.17,1100.87L1203.5,1102.04L1204.66,1104.37L1207,1109.04L1209.33,1110.2L1210.5,1113.7" fill="none" stroke="#000000" style="-webkit-tap-highlight-color: rgba(0, 0, 0, 0); stroke-linecap: round; stroke-linejoin: round; stroke-width: 8;" /><path d="M1209.33,1114.87L1213.99,1113.7L1217.49,1113.7L1220.99,1117.2L1227.99,1123.03L1231.49,1127.7L1237.32,1132.36L1243.15,1138.19L1248.98,1144.02L1255.98,1153.35L1260.64,1159.18L1265.31,1163.85L1269.97,1168.51L1278.13,1173.18L1281.63,1175.51L1285.13,1180.17L1288.63,1182.51L1293.29,1186.01L1300.29,1190.67L1306.12,1191.84L1309.62,1194.17L1313.12,1196.5" fill="none" stroke="#000000" style="-webkit-tap-highlight-color: rgba(0, 0, 0, 0); stroke-linecap: round; stroke-linejoin: round; stroke-width: 8;" /><path d="M1182.51,1049.56L1179.01,1048.4L1180.17,1049.56L1186.01,1051.9L1191.84,1053.06L1197.67,1054.23L1204.66,1053.06L1210.5,1051.9L1217.49,1049.56L1227.99,1043.73L1234.99,1040.23L1241.98,1034.4L1251.31,1026.24L1254.81,1021.57L1257.14,1016.91L1257.14,1014.58L1258.31,1012.24L1258.31,1009.91L1259.48,1006.41L1260.64,1005.25L1260.64,1004.08L1260.64,1000.58L1261.81,997.08L1261.81,994.75L1261.81,993.59L1262.97,991.25L1265.31,988.92L1269.97,985.42L1273.47,985.42L1278.13,984.26L1283.97,983.09L1288.63,981.92L1293.29,981.92L1297.96,980.76L1302.62,980.76L1308.45,980.76L1317.78,981.92L1324.78,981.92L1331.78,981.92L1337.61,981.92L1346.94,983.09L1352.77,984.26L1358.6,984.26L1364.43,985.42L1370.26,986.59L1378.43,987.76L1383.09,987.76L1388.92,990.09L1392.42,991.25L1397.08,992.42L1400.58,992.42L1405.25,992.42L1407.58,992.42L1412.24,992.42L1419.24,992.42L1423.91,992.42L1428.57,991.25L1429.74,990.09L1437.9,988.92L1441.4,987.76L1446.06,986.59L1449.56,985.42L1451.9,985.42L1457.73,984.26L1462.39,984.26L1465.89,984.26L1471.72,984.26L1477.55,981.92L1481.05,981.92L1484.55,981.92L1488.05,981.92L1491.55,981.92L1498.54,981.92L1503.21,981.92L1507.87,981.92L1512.54,981.92L1519.53,983.09L1525.36,984.26L1532.36,984.26L1538.19,985.42L1545.19,986.59L1554.52,987.76L1561.52,990.09L1568.51,992.42L1575.51,995.92L1586.01,1000.58L1594.17,1001.75" fill="none" stroke="#000000" style="-webkit-tap-highlight-color: rgba(0, 0, 0, 0); stroke-linecap: round; stroke-linejoin: round; stroke-width: 8;" /><path d="M913.12,413.99L914.29,416.33L914.29,417.49L915.45,417.49L920.12,419.83L923.62,420.99L927.11,424.49L930.61,427.99L934.11,432.65L937.61,434.99L942.27,440.82L945.77,444.31L950.44,447.81L953.94,453.64L959.77,460.64L963.27,464.14L966.76,468.8L971.43,472.3L976.09,476.97L979.59,481.63L985.42,492.13L988.92,496.79L991.25,502.62L995.92,510.79L999.42,515.45L1001.75,520.12L1006.41,525.95L1009.91,530.61L1016.91,541.11L1021.57,549.27L1025.07,557.43L1028.57,563.27L1035.57,577.26L1040.23,583.09L1046.06,592.42L1053.06,606.41L1053.06,607.58L1056.56,612.24L1057.73,613.41L1060.06,618.08L1063.56,623.91L1064.72,627.41L1064.72,630.9L1065.89,635.57L1067.06,640.23L1068.22,647.23L1069.39,653.06L1070.55,658.89L1071.72,663.56L1072.89,672.89L1072.89,679.88L1072.89,685.71L1072.89,692.71L1074.05,700.87L1074.05,716.03L1075.22,724.2L1075.22,732.36L1075.22,739.36L1076.38,752.19L1076.38,758.02L1076.38,767.35L1077.55,775.51L1077.55,781.34L1077.55,790.67L1076.38,797.67L1075.22,808.16L1074.05,816.33L1072.89,823.32L1071.72,827.99L1070.55,833.82L1070.55,837.32L1069.39,848.98L1068.22,859.48L1068.22,868.8L1067.06,872.3L1067.06,880.47L1067.06,883.97L1065.89,890.96L1064.72,899.13L1065.89,907.29L1065.89,911.95L1064.72,921.28L1063.56,925.95L1063.56,927.11L1063.56,930.61L1063.56,937.61L1063.56,939.94L1063.56,946.94L1063.56,951.6L1063.56,956.27L1062.39,959.77L1061.22,967.93L1061.22,973.76L1060.06,979.59L1057.73,995.92L1056.56,998.25L1056.56,1002.92L1054.23,1013.41L1054.23,1020.41L1054.23,1025.07L1054.23,1028.57L1054.23,1033.24L1054.23,1037.9L1054.23,1039.07L1054.23,1042.57L1054.23,1046.06L1054.23,1048.4L1054.23,1050.73L1054.23,1046.06" fill="none" stroke="#000000" style="-webkit-tap-highlight-color: rgba(0, 0, 0, 0); stroke-linecap: round; stroke-linejoin: round; stroke-width: 8;" /><path d="M407,679.88L405.83,677.55L405.83,670.55L405.83,664.72L407,657.73L407,649.56L408.16,637.9L409.33,630.9L411.66,623.91L413.99,616.91L416.33,609.91L417.49,598.25L419.83,590.09L422.16,583.09L424.49,577.26L427.99,569.1L429.15,565.6L431.49,559.77L432.65,553.94L433.82,551.6L436.15,549.27L440.82,541.11L443.15,537.61L445.48,534.11L446.65,530.61L451.31,520.12L453.64,511.95L455.98,507.29L457.14,502.62L459.48,499.13L462.97,493.29L466.47,488.63L469.97,485.13L473.47,480.47L475.8,476.97L485.13,468.8L487.46,466.47L492.13,461.81L494.46,457.14L497.96,454.81L501.46,450.15L506.12,444.31L508.45,441.98L511.95,440.82L513.12,439.65L517.78,434.99L523.62,430.32L527.11,426.82L530.61,424.49L534.11,420.99L539.94,417.49L543.44,415.16L548.1,411.66L551.6,408.16L556.27,404.66L563.27,401.17L566.76,398.83L570.26,396.5L576.09,394.17L581.92,393L586.59,390.67L591.25,389.5L595.92,388.34L599.42,387.17L605.25,384.84L611.08,382.51L615.74,381.34L619.24,380.17L626.24,379.01L632.07,376.68L636.73,374.34L642.57,372.01L647.23,369.68L654.23,367.35L660.06,367.35L665.89,367.35L674.05,366.18L681.05,365.01L691.55,363.85L697.38,361.52L702.04,360.35L707.87,359.18L713.7,358.02L721.87,355.69L726.53,355.69L731.2,354.52L734.69,354.52L740.52,354.52L744.02,355.69L748.69,355.69L754.52,355.69L760.35,356.85L768.51,356.85L774.34,358.02L789.5,361.52L794.17,362.68L796.5,363.85L800,365.01L803.5,367.35L809.33,369.68L817.49,373.18L823.32,374.34L830.32,376.68L837.32,379.01L841.98,380.17L846.65,382.51L851.31,384.84L855.98,387.17L860.64,388.34L866.47,391.84L869.97,393L873.47,395.34L875.8,396.5L882.8,402.33L885.13,404.66L889.8,407L896.79,413.99L900.29,416.33L902.62,419.83L904.96,420.99L909.62,424.49L911.95,426.82L915.45,430.32L918.95,432.65L924.78,438.48L929.45,440.82L934.11,443.15L938.78,446.65L942.27,450.15L946.94,454.81L950.44,458.31L955.1,461.81L959.77,465.31L963.27,468.8L969.1,474.64L972.59,480.47L978.43,485.13L984.26,490.96L986.59,493.29" fill="none" stroke="#000000" style="-webkit-tap-highlight-color: rgba(0, 0, 0, 0); stroke-linecap: round; stroke-linejoin: round; stroke-width: 8;" /><path d="M395.34,661.22L395.34,663.56L394.17,665.89L393,669.39L391.84,674.05L388.34,678.72L386.01,682.22L382.51,685.71L379.01,689.21L374.34,695.04L367.35,702.04L363.85,706.71L359.18,710.2L355.69,714.87L351.02,720.7L347.52,725.36L342.86,730.03L340.52,734.69L337.03,738.19L333.53,747.52L330.03,753.35L327.7,759.18L326.53,761.52L326.53,763.85" fill="none" stroke="#000000" style="-webkit-tap-highlight-color: rgba(0, 0, 0, 0); stroke-linecap: round; stroke-linejoin: round; stroke-width: 8;" /><path d="M466.47,671.72L465.31,671.72L464.14,671.72L464.14,672.89L462.97,675.22L461.81,678.72L461.81,683.38L462.97,689.21L464.14,689.21L467.64,691.55L471.14,691.55L475.8,692.71L480.47,692.71L483.97,693.88L488.63,693.88L495.63,695.04L501.46,696.21L504.96,698.54L508.45,698.54L511.95,699.71L515.45,700.87L516.62,700.87L520.12,700.87L522.45,703.21L523.62,705.54L524.78,707.87L525.95,710.2L525.95,711.37L525.95,713.7L525.95,716.03L524.78,718.37L524.78,720.7L524.78,724.2L524.78,726.53L524.78,730.03L523.62,735.86L523.62,745.19L523.62,752.19L522.45,760.35L521.28,773.18L521.28,780.17L520.12,787.17L518.95,797.67L518.95,811.66L518.95,822.16L517.78,830.32L516.62,838.48L516.62,848.98L515.45,858.31L514.29,868.8L513.12,872.3L513.12,885.13L511.95,899.13L511.95,913.12L511.95,922.45L511.95,929.45L511.95,936.44L513.12,941.11L513.12,952.77L513.12,962.1L513.12,969.1L513.12,972.59L513.12,983.09L511.95,992.42L511.95,999.42L511.95,1006.41L511.95,1020.41L511.95,1023.91L511.95,1030.9L511.95,1036.73L514.29,1046.06L515.45,1049.56L515.45,1050.73L515.45,1046.06" fill="none" stroke="#000000" style="-webkit-tap-highlight-color: rgba(0, 0, 0, 0); stroke-linecap: round; stroke-linejoin: round; stroke-width: 8;" /><path d="M508.45,689.21L509.62,690.38L511.95,689.21L515.45,688.05L518.95,686.88L524.78,686.88L528.28,688.05L531.78,688.05L535.28,688.05L537.61,688.05L539.94,688.05L542.27,689.21L543.44,689.21L544.61,690.38L545.77,691.55L548.1,695.04L548.1,696.21L549.27,697.38L549.27,699.71L550.44,703.21L550.44,706.71L551.6,709.04L553.94,717.2L555.1,719.53L556.27,723.03L557.43,726.53L558.6,732.36L558.6,735.86L559.77,742.86L558.6,756.85L558.6,766.18L558.6,775.51L557.43,783.67L557.43,791.84L557.43,802.33L556.27,813.99L556.27,827.99L555.1,836.15L555.1,843.15L555.1,857.14L553.94,865.31L553.94,873.47L553.94,879.3L553.94,886.3L553.94,896.79L552.77,903.79L552.77,909.62L552.77,916.62L552.77,922.45L551.6,930.61L551.6,936.44L551.6,941.11L551.6,946.94L551.6,955.1L551.6,963.27L551.6,966.76L551.6,973.76L551.6,974.93L552.77,990.09L552.77,998.25L552.77,1006.41L553.94,1015.74L553.94,1022.74L553.94,1028.57L553.94,1034.4L552.77,1041.4L552.77,1050.73L552.77,1054.23L552.77,1055.39" fill="none" stroke="#000000" style="-webkit-tap-highlight-color: rgba(0, 0, 0, 0); stroke-linecap: round; stroke-linejoin: round; stroke-width: 8;" /><path d="M832.65,466.47L830.32,466.47L827.99,467.64L825.66,467.64L823.32,468.8L820.99,469.97L815.16,471.14L811.66,472.3L808.16,474.64L803.5,475.8L797.67,480.47L793,482.8L789.5,485.13L784.84,487.46L781.34,490.96L776.68,495.63L770.85,497.96L767.35,500.29L765.01,503.79L759.18,510.79L756.85,514.29L747.52,521.28L745.19,522.45L741.69,524.78L739.36,527.11L737.03,528.28L733.53,531.78L731.2,534.11L728.86,537.61L726.53,542.27L724.2,546.94L720.7,553.94L719.53,557.43L717.2,560.93L716.03,564.43L711.37,569.1L709.04,571.43L705.54,573.76L703.21,576.09L700.87,580.76L699.71,581.92L696.21,586.59L692.71,593.59L690.38,597.08L686.88,601.75L685.71,601.75L682.22,605.25L679.88,608.75L677.55,612.24L674.05,615.74L672.89,618.08L671.72,620.41L669.39,622.74L667.06,625.07L664.72,627.41L663.56,630.9L661.22,633.24L660.06,635.57L657.73,636.73L655.39,641.4L653.06,642.57L651.9,647.23L649.56,650.73L648.4,651.9L647.23,654.23L644.9,657.73L643.73,661.22L642.57,664.72L641.4,668.22L639.07,674.05L637.9,677.55L637.9,681.05L636.73,683.38L636.73,686.88L635.57,691.55L635.57,695.04L634.4,700.87L633.24,709.04L633.24,712.54L632.07,726.53L632.07,727.7L632.07,728.86L630.9,732.36L630.9,734.69L630.9,740.52L629.74,745.19L629.74,749.85L629.74,753.35L628.57,759.18L628.57,762.68L628.57,766.18L628.57,767.35L628.57,770.85L628.57,775.51L627.41,777.84L627.41,781.34L626.24,783.67L626.24,787.17L625.07,791.84L625.07,794.17L623.91,797.67L623.91,802.33L623.91,805.83L623.91,809.33L622.74,815.16L621.57,819.83L621.57,820.99L621.57,822.16L620.41,824.49L620.41,826.82L620.41,829.15L619.24,831.49L619.24,833.82L619.24,837.32L618.08,840.82L618.08,841.98L618.08,844.31L618.08,845.48L618.08,847.81L616.91,850.15L616.91,851.31L619.24,854.81L621.57,859.48" fill="none" stroke="#000000" style="-webkit-tap-highlight-color: rgba(0, 0, 0, 0); stroke-linecap: round; stroke-linejoin: round; stroke-width: 8;" /><path d="M608.75,854.81L608.75,855.98L608.75,860.64L609.91,865.31L609.91,869.97L609.91,874.64L608.75,879.3L607.58,890.96L607.58,900.29L607.58,910.79L607.58,918.95L607.58,927.11L607.58,939.94L608.75,957.43L608.75,960.93L608.75,966.76L608.75,973.76L608.75,979.59L608.75,987.76L608.75,994.75L608.75,1004.08L608.75,1014.58L608.75,1019.24L608.75,1025.07L608.75,1032.07L608.75,1035.57L609.91,1047.23L609.91,1048.4" fill="none" stroke="#000000" style="-webkit-tap-highlight-color: rgba(0, 0, 0, 0); stroke-linecap: round; stroke-linejoin: round; stroke-width: 8;" /><path d="M612.24,885.13L612.24,883.97L613.41,881.63L616.91,880.47L621.57,880.47L634.4,879.3L643.73,879.3L650.73,878.13L674.05,879.3L679.88,880.47L691.55,881.63L702.04,881.63L712.54,879.3L721.87,878.13L733.53,878.13L740.52,879.3" fill="none" stroke="#000000" style="-webkit-tap-highlight-color: rgba(0, 0, 0, 0); stroke-linecap: round; stroke-linejoin: round; stroke-width: 8;" /><path d="M763.85,860.64L765.01,861.81L768.51,864.14L773.18,865.31L779.01,865.31L787.17,864.14L795.34,864.14L807,864.14L815.16,864.14L824.49,864.14L838.48,864.14L845.48,864.14L852.48,864.14L858.31,864.14L864.14,864.14L869.97,864.14L878.13,864.14L883.97,864.14L889.8,864.14L900.29,866.47L901.46,866.47L903.79,867.64L907.29,869.97L911.95,869.97L918.95,869.97L921.28,869.97L923.62,868.8" fill="none" stroke="#000000" style="-webkit-tap-highlight-color: rgba(0, 0, 0, 0); stroke-linecap: round; stroke-linejoin: round; stroke-width: 8;" /><path d="M658.89,644.9L661.22,646.06L664.72,647.23L665.89,648.4L668.22,650.73L669.39,654.23L670.55,657.73L674.05,662.39L681.05,665.89L685.71,669.39L689.21,674.05L692.71,677.55L702.04,682.22L703.21,683.38L704.37,683.38L707.87,686.88L709.04,689.21L711.37,691.55L713.7,693.88L714.87,695.04L716.03,697.38L717.2,700.87L718.37,704.37L719.53,706.71L721.87,710.2L724.2,713.7L726.53,714.87L726.53,716.03L727.7,718.37L727.7,719.53L728.86,721.87L728.86,723.03L728.86,724.2L728.86,726.53L728.86,728.86L727.7,730.03L727.7,731.2L726.53,733.53L726.53,734.69L725.36,738.19L724.2,739.36L723.03,740.52L721.87,742.86L720.7,745.19L720.7,747.52L719.53,749.85L720.7,752.19L720.7,755.69L721.87,759.18L723.03,761.52L724.2,762.68L726.53,766.18L727.7,768.51L728.86,769.68L731.2,770.85L733.53,773.18L735.86,774.34L738.19,777.84L740.52,780.17L742.86,782.51L746.36,784.84L749.85,787.17L751.02,788.34L754.52,791.84L756.85,794.17L759.18,797.67L761.52,800L765.01,805.83L766.18,807L767.35,809.33L769.68,812.83L772.01,813.99L775.51,819.83L776.68,820.99L777.84,823.32L780.17,824.49L781.34,824.49L783.67,825.66L786.01,827.99L788.34,830.32L789.5,831.49L790.67,830.32L793,832.65L794.17,834.99L796.5,837.32L797.67,838.48L798.83,840.82L800,843.15L802.33,846.65L803.5,850.15L804.66,851.31L804.66,852.48L805.83,855.98L805.83,857.14L807,858.31L808.16,860.64L808.16,859.48" fill="none" stroke="#000000" style="-webkit-tap-highlight-color: rgba(0, 0, 0, 0); stroke-linecap: round; stroke-linejoin: round; stroke-width: 8;" /><path d="M13.99,276.38L12.83,276.38L12.83,275.22L15.16,274.05L18.66,272.89L23.32,274.05L27.99,274.05L33.82,276.38L39.65,278.72L45.48,281.05L52.48,283.38L57.14,284.55L62.97,285.71L66.47,286.88L71.14,289.21L76.97,292.71L80.47,295.04L83.97,296.21L87.46,296.21L93.29,297.38L96.79,297.38L100.29,297.38L103.79,297.38L109.62,296.21L115.45,296.21L120.12,295.04L124.78,296.21L128.28,296.21L136.44,297.38L141.11,297.38L144.61,297.38L150.44,297.38L153.94,296.21L158.6,297.38L166.76,296.21L172.59,295.04L177.26,295.04L185.42,295.04L191.25,293.88L197.08,293.88L202.92,293.88L208.75,293.88L214.58,292.71L223.91,291.55L228.57,291.55L234.4,290.38L242.57,289.21L248.4,289.21L253.06,288.05L257.73,288.05L262.39,288.05L270.55,288.05L275.22,289.21L281.05,288.05L285.71,288.05L293.88,288.05L299.71,288.05L305.54,288.05L310.2,288.05L321.87,286.88L325.36,285.71L330.03,285.71L335.86,286.88L342.86,286.88L352.19,288.05L359.18,288.05L366.18,289.21L372.01,289.21L379.01,290.38L384.84,292.71L395.34,295.04L401.17,296.21L408.16,297.38L417.49,297.38L423.32,297.38L430.32,298.54L438.48,297.38L444.31,297.38L450.15,297.38L459.48,296.21L464.14,296.21L469.97,295.04L475.8,295.04L481.63,296.21L486.3,296.21L489.8,296.21L494.46,297.38L499.13,296.21L503.79,296.21L507.29,296.21L511.95,295.04L517.78,296.21L522.45,296.21L525.95,295.04L530.61,296.21L535.28,297.38L539.94,297.38L546.94,299.71L551.6,300.87L556.27,303.21L562.1,303.21L570.26,304.37L574.93,304.37L580.76,305.54L585.42,306.71L591.25,306.71L598.25,309.04L601.75,310.2L606.41,311.37L609.91,312.54L616.91,313.7L621.57,313.7L625.07,316.03L629.74,317.2L633.24,318.37L639.07,319.53L643.73,319.53L647.23,319.53L651.9,319.53L656.56,319.53L663.56,319.53L668.22,319.53L670.55,319.53L676.38,318.37L679.88,318.37L683.38,319.53L686.88,318.37L692.71,319.53L696.21,319.53L699.71,319.53L703.21,319.53L707.87,319.53L714.87,318.37L718.37,318.37L723.03,317.2L727.7,317.2L735.86,316.03L740.52,313.7L745.19,312.54L751.02,311.37L755.69,309.04L763.85,306.71L768.51,305.54L773.18,304.37L777.84,304.37L783.67,300.87L787.17,299.71L790.67,298.54L793,297.38L796.5,296.21L801.17,293.88L802.33,292.71L805.83,292.71L810.5,291.55L816.33,291.55L820.99,291.55L825.66,290.38L831.49,289.21L836.15,288.05L841.98,285.71L850.15,283.38L855.98,281.05L861.81,279.88L871.14,277.55L876.97,276.38L883.97,276.38L889.8,276.38L895.63,274.05L900.29,274.05L906.12,274.05L914.29,271.72L918.95,271.72L928.28,271.72L934.11,271.72L938.78,270.55L943.44,270.55L948.1,269.39L951.6,268.22L960.93,268.22L963.27,268.22L965.6,268.22L972.59,267.06L977.26,265.89L981.92,265.89L987.76,264.72L992.42,264.72L1001.75,264.72L1008.75,263.56L1014.58,263.56L1020.41,263.56L1030.9,263.56L1037.9,262.39L1044.9,261.22L1050.73,260.06L1056.56,260.06L1063.56,258.89L1071.72,257.73L1077.55,256.56L1083.38,255.39L1092.71,254.23L1098.54,254.23L1104.37,254.23L1109.04,254.23L1113.7,253.06L1119.53,251.9L1126.53,249.56L1131.2,247.23L1137.03,246.06L1146.36,246.06L1152.19,244.9L1159.18,244.9L1165.01,244.9L1170.85,244.9L1177.84,243.73L1186.01,243.73L1193,242.57L1197.67,241.4L1204.66,240.23L1209.33,239.07L1215.16,237.9L1219.83,236.73L1223.32,235.57L1227.99,234.4L1233.82,233.24L1237.32,232.07L1240.82,230.9L1244.31,229.74L1250.15,228.57L1253.64,227.41L1257.14,227.41L1259.48,226.24L1262.97,225.07L1268.8,223.91L1272.3,222.74L1275.8,221.57L1280.47,221.57L1285.13,219.24L1288.63,218.08L1290.96,216.91L1297.96,212.24L1300.29,212.24L1303.79,212.24L1304.96,211.08L1308.45,207.58L1311.95,207.58L1314.29,206.41L1316.62,204.08L1320.12,202.92L1322.45,202.92L1325.95,200.58L1329.45,199.42L1332.94,197.08L1335.28,195.92L1339.94,192.42L1343.44,191.25L1346.94,190.09L1351.6,188.92L1355.1,186.59L1359.77,184.26L1363.27,183.09L1370.26,180.76L1373.76,179.59L1377.26,176.09L1379.59,172.59L1380.76,171.43L1381.92,169.1L1383.09,166.76L1383.09,165.6L1385.42,163.27L1387.76,162.1L1390.09,159.77L1393.59,159.77L1400.58,157.43L1405.25,156.27L1416.91,156.27L1423.91,155.1L1434.4,153.94L1441.4,153.94L1448.4,153.94L1455.39,153.94L1458.89,152.77L1470.55,151.6L1476.38,152.77L1482.22,152.77L1486.88,152.77L1493.88,152.77L1498.54,152.77L1503.21,152.77L1506.71,153.94L1512.54,153.94L1517.2,153.94L1520.7,155.1L1524.2,155.1L1527.7,155.1L1533.53,156.27L1537.03,157.43L1541.69,158.6L1554.52,159.77L1556.85,159.77L1559.18,160.93L1565.01,162.1L1570.85,164.43L1575.51,165.6L1581.34,167.93L1584.84,169.1L1588.34,171.43L1589.5,172.59L1591.84,173.76L1594.17,174.93L1596.5,176.09L1600,178.43" fill="none" stroke="#000000" style="-webkit-tap-highlight-color: rgba(0, 0, 0, 0); stroke-linecap: round; stroke-linejoin: round; stroke-width: 8;" /><path d="M0,408.16L0,407L1.17,405.83L3.5,405.83L9.33,407L13.99,407L20.99,407L33.82,405.83L40.82,403.5L46.65,404.66L52.48,404.66L57.14,405.83L61.81,407L66.47,409.33L67.64,409.33L68.8,410.5L69.97,411.66L71.14,413.99L71.14,415.16L69.97,416.33L68.8,416.33L68.8,418.66L69.97,420.99L71.14,422.16L72.3,423.32L73.47,423.32L74.64,423.32L76.97,424.49L79.3,424.49L83.97,425.66L88.63,425.66L93.29,426.82L97.96,426.82L104.96,425.66L113.12,424.49L116.62,424.49L123.62,423.32L130.61,422.16L142.27,419.83L148.1,418.66L151.6,417.49L156.27,417.49L160.93,417.49L164.43,417.49L167.93,417.49L172.59,416.33L174.93,416.33L179.59,413.99L183.09,413.99L186.59,411.66L190.09,409.33L195.92,407L198.25,405.83L199.42,404.66L201.75,403.5L204.08,402.33L207.58,400L211.08,398.83L214.58,397.67L215.74,396.5L219.24,396.5L222.74,396.5L223.91,396.5L227.41,397.67L229.74,397.67L233.24,398.83L235.57,400L237.9,401.17L241.4,402.33L246.06,403.5L248.4,404.66L250.73,407L251.9,409.33L254.23,410.5L256.56,413.99L257.73,415.16L258.89,417.49L260.06,418.66L261.22,420.99L262.39,424.49L264.72,425.66L267.06,427.99L269.39,429.15L272.89,431.49L275.22,434.99L276.38,437.32L278.72,440.82L282.22,443.15L283.38,444.31L284.55,446.65L284.55,447.81L285.71,450.15L285.71,451.31L286.88,453.64L288.05,455.98L288.05,458.31L289.21,460.64L290.38,464.14L291.55,467.64L292.71,469.97L295.04,472.3L296.21,474.64L298.54,478.13L299.71,479.3L300.87,481.63L302.04,486.3L303.21,487.46L304.37,490.96L305.54,493.29L305.54,495.63L307.87,499.13L307.87,502.62L309.04,506.12L310.2,510.79L311.37,515.45L310.2,518.95L311.37,522.45L311.37,525.95L311.37,530.61L311.37,536.44L311.37,539.94L312.54,544.61L313.7,549.27L313.7,555.1L313.7,559.77L313.7,563.27L313.7,567.93L314.87,571.43L314.87,576.09L314.87,581.92L316.03,585.42L316.03,590.09L318.37,597.08L318.37,600.58L319.53,604.08L320.7,607.58L321.87,612.24L321.87,616.91L321.87,625.07L323.03,629.74L323.03,634.4L323.03,640.23L323.03,648.4L321.87,653.06L323.03,657.73L323.03,663.56L321.87,669.39L321.87,677.55L323.03,682.22L323.03,686.88L323.03,692.71L323.03,699.71L321.87,705.54L321.87,710.2L321.87,718.37L323.03,723.03L323.03,727.7L323.03,732.36L324.2,737.03L325.36,745.19L325.36,749.85L325.36,754.52L324.2,759.18L324.2,765.01L324.2,769.68L323.03,777.84L323.03,782.51L324.2,787.17L325.36,791.84L325.36,797.67L326.53,802.33L328.86,805.83L331.2,809.33L332.36,812.83L334.69,818.66L335.86,823.32L337.03,826.82L338.19,831.49L338.19,837.32L338.19,840.82L338.19,845.48L339.36,848.98L339.36,852.48L339.36,859.48L340.52,864.14L339.36,868.8L339.36,873.47L339.36,881.63L339.36,887.46L338.19,893.29L337.03,899.13L335.86,906.12L334.69,915.45L333.53,921.28L333.53,925.95L333.53,931.78L332.36,939.94L333.53,945.77L333.53,950.44L333.53,955.1L333.53,960.93L333.53,967.93L333.53,972.59L333.53,977.26L333.53,981.92L332.36,988.92L332.36,992.42L332.36,995.92L332.36,1000.58L332.36,1005.25L333.53,1012.24L333.53,1016.91L333.53,1021.57L334.69,1026.24L335.86,1036.73L335.86,1041.4L335.86,1043.73L335.86,1044.9L337.03,1048.4L337.03,1053.06L338.19,1057.73L338.19,1061.22L338.19,1063.56L338.19,1068.22L338.19,1070.55L337.03,1074.05L338.19,1076.38L338.19,1079.88L338.19,1083.38L338.19,1086.88L339.36,1089.21L339.36,1091.55L340.52,1096.21L340.52,1097.38L341.69,1098.54L341.69,1100.87L340.52,1100.87L339.36,1099.71" fill="none" stroke="#000000" style="-webkit-tap-highlight-color: rgba(0, 0, 0, 0); stroke-linecap: round; stroke-linejoin: round; stroke-width: 8;" /><path d="M205.25,438.48L206.41,437.32" fill="none" stroke="#000000" style="-webkit-tap-highlight-color: rgba(0, 0, 0, 0); stroke-linecap: round; stroke-linejoin: round; stroke-width: 8;" /><path d="M237.9,415.16L237.9,413.99L235.57,413.99L230.9,413.99L227.41,416.33L222.74,417.49L215.74,418.66L211.08,418.66L205.25,420.99L198.25,423.32L192.42,425.66L186.59,429.15L179.59,432.65L177.26,433.82L170.26,438.48L162.1,445.48L157.43,451.31L153.94,457.14L149.27,464.14L144.61,468.8L139.94,474.64L132.94,483.97L129.45,492.13L128.28,500.29L127.11,509.62L124.78,522.45L122.45,530.61L121.28,539.94L120.12,546.94L118.95,553.94L116.62,563.27L114.29,570.26L111.95,576.09L106.12,585.42L103.79,590.09L100.29,595.92L97.96,600.58L95.63,605.25L92.13,611.08L86.3,621.57L81.63,627.41L78.13,634.4L74.64,640.23L68.8,649.56L64.14,655.39L60.64,661.22L54.81,668.22L50.15,675.22L43.15,685.71L38.48,692.71L32.65,698.54L27.99,704.37L18.66,713.7L11.66,718.37L2.33,727.7" fill="none" stroke="#000000" style="-webkit-tap-highlight-color: rgba(0, 0, 0, 0); stroke-linecap: round; stroke-linejoin: round; stroke-width: 8;" /><path d="M57.14,1195.34L52.48,1194.17L51.31,1195.34L52.48,1196.5L53.64,1196.5L58.31,1198.83L64.14,1200L73.47,1198.83L82.8,1196.5L101.46,1188.34L114.29,1182.51L138.78,1169.68L144.61,1166.18L156.27,1161.52L167.93,1155.69L178.43,1149.85L188.92,1144.02L202.92,1135.86L212.24,1131.2L223.91,1126.53L234.4,1121.87L249.56,1117.2L257.73,1113.7L265.89,1110.2L274.05,1106.71L281.05,1103.21L291.55,1102.04L297.38,1100.87L302.04,1098.54L306.71,1097.38L311.37,1095.04L313.7,1093.88L317.2,1092.71L320.7,1092.71" fill="none" stroke="#000000" style="-webkit-tap-highlight-color: rgba(0, 0, 0, 0); stroke-linecap: round; stroke-linejoin: round; stroke-width: 8;" /><path d="M369.68,1071.72L368.51,1071.72L367.35,1071.72L369.68,1071.72L372.01,1070.55L374.34,1070.55L386.01,1068.22L393,1067.06L401.17,1065.89L409.33,1065.89L423.32,1064.72L434.99,1063.56L446.65,1061.22L458.31,1060.06L481.63,1057.73L487.46,1057.73L500.29,1056.56L510.79,1055.39L527.11,1055.39L537.61,1055.39L546.94,1055.39L556.27,1055.39L564.43,1055.39L574.93,1054.23L581.92,1053.06L587.76,1053.06L593.59,1053.06L600.58,1051.9L604.08,1050.73L608.75,1050.73L611.08,1049.56L613.41,1048.4L615.74,1048.4L616.91,1048.4L619.24,1048.4L619.24,1049.56" fill="none" stroke="#000000" style="-webkit-tap-highlight-color: rgba(0, 0, 0, 0); stroke-linecap: round; stroke-linejoin: round; stroke-width: 8;" /><path d="M605.25,1047.23L606.41,1046.06L608.75,1042.57L613.41,1039.07L616.91,1035.57L618.08,1033.24L621.57,1030.9L625.07,1028.57L629.74,1027.41L633.24,1026.24L634.4,1025.07L636.73,1023.91L639.07,1021.57" fill="none" stroke="#000000" style="-webkit-tap-highlight-color: rgba(0, 0, 0, 0); stroke-linecap: round; stroke-linejoin: round; stroke-width: 8;" /><path d="M857.14,1050.73L855.98,1050.73L855.98,1051.9L854.81,1051.9L854.81,1050.73L853.64,1050.73L851.31,1051.9L848.98,1054.23L847.81,1056.56L847.81,1058.89L847.81,1061.22L848.98,1063.56L853.64,1067.06L858.31,1068.22L862.97,1069.39L868.8,1071.72L876.97,1071.72L885.13,1072.89L896.79,1075.22L904.96,1076.38L913.12,1076.38L918.95,1077.55L928.28,1078.72L932.94,1079.88L936.44,1081.05L938.78,1082.22L939.94,1082.22L941.11,1082.22" fill="none" stroke="#000000" style="-webkit-tap-highlight-color: rgba(0, 0, 0, 0); stroke-linecap: round; stroke-linejoin: round; stroke-width: 8;" /></svg>