<?xml version="1.0" encoding="utf-8" ?>
<svg baseProfile="full" height="2331" version="1.1" width="3872" xmlns="http://www.w3.org/2000/svg" xmlns:ev="http://www.w3.org/2001/xml-events" xmlns:xlink="http://www.w3.org/1999/xlink"><defs /><path d="M20.52,530.18L14,530L3,527L0,527L0,527L5,529L9,530L27,533L23,533L34,533L47,537L55,537L68,538L75,538L82,538L96,539L89,539L103,539L108,540L124,542L116,540L123,542L139,547L151,548L157,549L146,547L164,549L178,550L185,550L192,551L171,550L205,549L219,558L198,551L200,551L236,543L239,543L243,542L226,558L274,537L260,544L262,529L280,530L301,523L294,523L287,530L309,511L309,511L315,509L322,503L328,495L331,492L342,481L349,475L335,488L351,474L356,474L363,462L369,462L376,455L390,441L383,448L410,434L397,441L417,428L424,428L431,421L446,429L450,421L453,414L458,414L458,408L467,402L464,406L477,396L472,399L486,392L479,393L494,388L499,386L506,380L527,373L509,362L507,378L547,357L554,357L534,373L561,358L568,359L581,359L575,358L588,358L595,359L616,363L609,360L602,359L623,366L629,368L636,370L642,371L662,376L650,373L670,378L657,375L676,379L700,380L684,381L690,381L726,377L731,375L704,379L711,380L768,371L739,372L760,370L743,372L776,374L798,377L786,375L801,378L807,379L823,385L828,386L835,386L848,390L855,389L878,390L869,388L882,390L896,392L910,407L903,391L922,396L933,402L930,401L938,406L949,409L966,411L971,411L985,412L994,416L1020,417L1008,418L1026,418L1049,426L1047,421L1042,419L1059,438L1095,434L1081,428L1088,428L1101,434" fill="none" stroke="#000000" style="-webkit-tap-highlight-color: rgba(0, 0, 0, 0); stroke-linecap: round; stroke-linejoin: round; stroke-width: 19;" /><path d="M1115,434L1108,434L1122,449L1129,449L1139,448L1156,449L1142,447L1163,449L1171,449L1182,449L1194,454L1185,451L1204,458L1201,457L1211,459L1219,460L1222,459L1237,462L1244,471L1252,476L1258,477L1266,479L1286,469L1279,469L1293,469L1300,469L1307,469L1313,469L1321,482L1325,481L1334,483L1341,483L1354,481L1348,482L1368,480L1361,481L1382,478L1374,478L1396,489L1408,478L1414,481L1416,481L1424,482L1431,482L1437,496L1437,482L1443,496L1450,496L1457,496L1464,496L1471,496L1488,485L1491,488L1495,492L1499,493L1507,495L1607.63,584.9L1512,496L1521,499L1526,502L1532,505L1547,512L1543,509L1560,519L1553,516L1568,523L1571,528L1580,537L1573,530L1584,540L1586,544L1589,549L1590,550L1590,551L1608,551L1614,551L1621,558L1621,564L1621,578L1621,571L1621,585L1621,592L1604,594L1605,599L1621,599" fill="none" stroke="#000000" style="-webkit-tap-highlight-color: rgba(0, 0, 0, 0); stroke-linecap: round; stroke-linejoin: round; stroke-width: 19;" /><path d="M1621,605L1611,622L1601,585L1600,583L1602,592L1587,612L1602,593L1587,619L1587,633L1587,646L1587,674L1587,660L1587,688L1602,722L1587,708L1587,701L1602,724L1604,751L1604,739L1604,741L1604,749L1601,776L1605,753L1601,783L1601,770L1594,776L1594,783L1621.31,755.93L1611,754L1614,756L1628,760L1637,763L1651,766L1662,771L1676,775L1703,782L1690,781L1717,785L1720,786L1744,776L1758,793L1747,792L1765,793L1786,794L1778,793L1792,794L1793,795L1813,794L1806,794L1840,797L1826,795L1849,801L1861,803L1867,804L1874,805L1891,806L1881,803L1894,807L1906,809L1909,811L1920,808L1943,808L1957,807L1964,811L1971,808L1984,811L2008,807L2018,809L2008,807L2032,811L2039,811L2052,812L2067,813L2080,816L2093,814L2107,815L2122,816L2140,817L2155,821L2175,811L2196,811L2216,811L2230,811L2237,811L2244,811L2258,811L2264,811L2278,811L2285,811L2299,817L2305,817L2319,824L2326,824L2340,831L2346,831L2357,836L2365,836L2372,834L2386,834L2386,834L2408,838L2425,831L2429,830L2440,830L2459,829L2475,826L2463,828L2487,823" fill="none" stroke="#000000" style="-webkit-tap-highlight-color: rgba(0, 0, 0, 0); stroke-linecap: round; stroke-linejoin: round; stroke-width: 19;" /><path d="M2490,823L2505,824L2494,822L2517,822L2530,820L2530,820L2552,831L2565,831L2593,831L2579,831L2613,824L2627,824L2634,817L2654,811L2641,817L2668,811L2675,811L2686,795L2709,804L2723,804L2736,797L2750,797L2771,797L2798,797L2784,797L2812,797L2832,797L2860,797L2846,797L2880,804L2894,804L2928,804L2942,804L2907,804L2996,804L2962,804L2976,804L2990,804L3034,789L3016,790L3010,790L3047,791L3053,795L3066,800L3092,807L3078,803L3099,810L3112,814L3124,820L3128,824L3147,824L3149,841L3161,831L3167,831L3174,831L3181,831L3188,831L3188,838L3195,838L3208,845L3202,838L3208,852L3196,867L3186,864L3181.06,879.07L3187,866L3182,863L3174,861L3178,862L3183,894L3174,879L3182,895L3181,900L3183,911L3184,927L3184,927L3174,947L3174,961L3174,968L3174,982L3181,989L3202,995L3198,991L3205,997L3209,999" fill="none" stroke="#000000" style="-webkit-tap-highlight-color: rgba(0, 0, 0, 0); stroke-linecap: round; stroke-linejoin: round; stroke-width: 19;" /><path d="M3215.27,995.36L3215,1001L3229,1001L3236,1007L3249,1009L3264,1014L3282,1014L3289,1012L3318,1023L3332,1030L3338,1030L3358,1019L3362,1020L3371,1021L3379,1021L3393,1022L3406,1022L3413,1021L3427,1017L3468,1015L3455,1015L3441,1013L3482,1019L3494,1008L3503,1008L3509,1009L3523,1009L3554,1019L3554,1019L3537,1009L3556,1018L3590,1017L3566,1016L3578,1012L3594,1020L3598,1022L3605,1022L3613,1023L3612,1023" fill="none" stroke="#000000" style="-webkit-tap-highlight-color: rgba(0, 0, 0, 0); stroke-linecap: round; stroke-linejoin: round; stroke-width: 19;" /><path d="M3634,1025L3639,1024L3644,1024L3626,1025L3653,1009L3680,1001L3674,1002L3674,1002L3703,1001L3728,1009L3685,1001L3719,1005L3745,1011L3762,1024L3775,1029L3783,1032L3797,1034L3804,1034L3789,1031" fill="none" stroke="#000000" style="-webkit-tap-highlight-color: rgba(0, 0, 0, 0); stroke-linecap: round; stroke-linejoin: round; stroke-width: 19;" /><path d="M34.2,1050.09L27,1050L27,1043L34,1043L41,1043L62,1043L48,1043L75,1043L89,1043L109,1036L123,1036L137,1036L144,1036L157,1036L171,1036L178,1036L185,1036L212,1043L226,1043L198,1043L239,1050L253,1050L267,1050L280,1050L294,1050L301,1057L315,1057L328,1064L322,1057L342,1064L363,1077L349,1071L369,1084L376,1084L390,1091L383,1091L390,1104L397,1102L417,1101L403,1101L431,1098L445,1105L465,1105L458,1105L479,1105L486,1105L493,1105L520,1105L506,1105L527,1112L540,1112L554,1112L561,1112L568,1112L575,1112L581,1112L588,1112L602,1112L625,1115L609,1105L625,1115L636,1098L643,1098L654,1102L657,1091L664,1091L677,1084L684,1084L691,1084L698,1084L718,1077L705,1077L725,1077L732,1071L739,1071L746,1071L753,1064L759,1064L766,1057L773,1057L800,1036L814,1036L787,1050L794,1043L835,1030L841,1030L821,1036L848,1030L863,1022L864,1023L869,1023L878,1019L878,1019L896,1030L910,1030L917,1030L930,1030L924,1030L944,1030L937,1030L951,1030L965,1030L971,1030L978,1030L1002,1040L1010,1032L1005,1036L1020,1029L1024,1028L1033,1022L1047,1026L1060,1002L1054,1009L1074,995L1067,1002L1081,995L1108,989L1101,989L1095,989L1122,989L1136,989L1149,989L1156,989L1175,999L1186,998L1175,999L1182,998L1186,998L1197,1000L1204,1002L1196,999L1207,1003L1212,1005L1211,1023L1214,1006L1218,1023L1221,1049L1225,1036L1227,1051L1218,1030L1231,1077L1223,1061L1221,1064L1225,1057L1245,1077L1238,1077L1259,1077L1252,1077L1286,1074L1281,1074L1293,1072L1278,1075L1300,1057L1313,1057L1307,1057L1318,1074L1334,1071L1318,1074L1341,1077L1348,1077L1361,1098L1355,1084L1361,1091L1368,1105L1368,1112L1375,1132L1368,1119L1368,1125L1375,1139L1382,1146L1389,1146L1389,1153" fill="none" stroke="#000000" style="-webkit-tap-highlight-color: rgba(0, 0, 0, 0); stroke-linecap: round; stroke-linejoin: round; stroke-width: 19;" /><path d="M1396,1160L1416,1166L1409,1166L1423,1173L1437,1180L1430,1180L1443,1180L1457,1180L1494,1186L1478,1180L1464,1180L1494,1186L1545,1190L1526,1180L1501,1190L1513,1190L1566,1192L1580,1194L1547,1188L1558,1190L1595,1193L1621,1194L1606,1203L1601,1194L1656,1194L1637,1196L1642,1195L1669,1194L1703,1180L1698,1195L1671,1195L1697,1180L1710,1180L1711,1196L1724,1187L1717,1180L1731,1201L1724,1194L1738,1214L1744,1221L1744,1235L1755,1257L1753,1257L1761,1265L1761,1265L1779,1276L1761,1265L1785,1276L1792,1276L1792,1283L1799,1296L1799,1290L1806,1303L1806,1310L1806,1317L1806,1324L1806,1337L1806,1344L1799,1358L1792,1365L1785,1372L1785,1378L1772,1399L1779,1392L1772,1406L1772,1420L1772,1413L1772,1426L1772,1440L1779,1454L1779,1461L1785,1474L1798,1494L1792,1508L1799,1515L1798,1494L1799,1522L1799,1515" fill="none" stroke="#000000" style="-webkit-tap-highlight-color: rgba(0, 0, 0, 0); stroke-linecap: round; stroke-linejoin: round; stroke-width: 19;" /><path d="M1621.31,653.31L1621,646L1604,643L1604,653L1605,660L1609,674L1608,667L1607,684L1604,694L1604,710L1606,733L1606,727L1611,754L1614,783L1624,759L1614,797L1614,811L1608,852L1614,824L1608,838L1608,872L1608,906L1608,886L1608,941L1608,920L1608,975L1608,947L1608,989L1608,961L1608,1002L1608,1016L1608,1023L1614,1036" fill="none" stroke="#000000" style="-webkit-tap-highlight-color: rgba(0, 0, 0, 0); stroke-linecap: round; stroke-linejoin: round; stroke-width: 19;" /><path d="M1614,1064L1614,1050L1621,1071L1621,1084L1621,1091L1621,1098L1621,1112L1621,1119L1621,1125L1621,1139L1614,1153L1614,1146L1608,1160L1608,1166L1608,1180L1608,1173L1602,1193L1608,1180" fill="none" stroke="#000000" style="-webkit-tap-highlight-color: rgba(0, 0, 0, 0); stroke-linecap: round; stroke-linejoin: round; stroke-width: 19;" /><path d="M554.12,400.2L562,396L547,387L540,373L547,373L540,373L540,357L540,380L540,387L543,405L540,421L540,441L540,455L540,475L524,515L540,489L523,524L534,544L534,578L534,564L534,585L534,592L540,599L540,619L540,605L540,626L547,640L547,660L547,653L547,674L547,681L547,701L547,694L547,708L540,722L540,742L540,749L534,763L534,776L527,797L527,783L527,811L511,821L509,855L510,853L509,855L506,879" fill="none" stroke="#000000" style="-webkit-tap-highlight-color: rgba(0, 0, 0, 0); stroke-linecap: round; stroke-linejoin: round; stroke-width: 19;" /><path d="M506,893L506,920L506,900L506,906L506,941L506,934L506,954L506,927L506,968L506,961L506,975L506,982L513,1002L520,1023L513,989L513,1009" fill="none" stroke="#000000" style="-webkit-tap-highlight-color: rgba(0, 0, 0, 0); stroke-linecap: round; stroke-linejoin: round; stroke-width: 19;" /><path d="M389.94,495.97" fill="none" stroke="#000000" style="-webkit-tap-highlight-color: rgba(0, 0, 0, 0); stroke-linecap: round; stroke-linejoin: round; stroke-width: 19;" /><path d="M520,1030L520,1043L520,1050L520,1036L520,1057L520,1064L520,1071L520,1077" fill="none" stroke="#000000" style="-webkit-tap-highlight-color: rgba(0, 0, 0, 0); stroke-linecap: round; stroke-linejoin: round; stroke-width: 19;" /><path d="M388,476L390,489" fill="none" stroke="#000000" style="-webkit-tap-highlight-color: rgba(0, 0, 0, 0); stroke-linecap: round; stroke-linejoin: round; stroke-width: 19;" /><path d="M520,1084L520,1091" fill="none" stroke="#000000" style="-webkit-tap-highlight-color: rgba(0, 0, 0, 0); stroke-linecap: round; stroke-linejoin: round; stroke-width: 19;" /><path d="M390,475L388,476L397,489L397,503L397,510L397,523L404,537L400,561L404,578L404,605L404,633L404,660L404,701L404,681L404,735L404,722L404,756L404,770L404,790L404,804L404,838L404,824L404,852L404,865L404,886L404,872L404,900L404,906L397,927L404,913" fill="none" stroke="#000000" style="-webkit-tap-highlight-color: rgba(0, 0, 0, 0); stroke-linecap: round; stroke-linejoin: round; stroke-width: 19;" /><path d="M397,934L390,941L383,947L383,954L376,961L369,975L369,982L376,968L363,989L363,995L356,1009L363,1002L356,1016L356,1023L356,1030L356,1036L356,1043L356,1050L349,1050L349,1057L349,1064L349,1057" fill="none" stroke="#000000" style="-webkit-tap-highlight-color: rgba(0, 0, 0, 0); stroke-linecap: round; stroke-linejoin: round; stroke-width: 19;" /><path d="M1806.02,1419.51L1792,1420L1785,1426L1792,1426L1799,1426L1820,1426L1813,1426L1833,1426L1847,1420L1861,1420L1874,1413L1888,1413L1909,1406L1922,1399L1943,1392L1950,1385L1963,1378L1977,1378L1991,1372L1998,1372L2011,1372L2025,1365L2045,1358L2032,1365L2059,1358L2066,1358L2080,1358L2087,1351L2093,1351L2100,1351L2107,1351" fill="none" stroke="#000000" style="-webkit-tap-highlight-color: rgba(0, 0, 0, 0); stroke-linecap: round; stroke-linejoin: round; stroke-width: 19;" /><path d="M2114,1351L2121,1351L2168.59,1392.14L2128,1351L2134,1351L2162,1392L2162,1385L2155,1385L2153,1369L2148,1368L2148,1368L2148,1351L2154,1337L2169,1324L2165,1300L2187,1293L2186,1301L2187,1293L2192,1267L2200,1265L2212,1267L2203,1264L2215,1269L2222,1269L2231,1269L2230,1260L2234,1261L2238,1250L2241,1244L2262,1250L2258,1234L2267,1238L2264,1234L2265,1234L2270,1238L2283,1220L2274,1239L2292,1255L2276,1242L2292,1248L2299,1262L2312,1269L2305,1269L2312,1276L2319,1283L2328,1299L2328,1299L2329,1304L2317,1317" fill="none" stroke="#000000" style="-webkit-tap-highlight-color: rgba(0, 0, 0, 0); stroke-linecap: round; stroke-linejoin: round; stroke-width: 19;" /><path d="M2319,1340L2319,1340L2319,1344L2312,1354L2314,1366L2312,1385L2314,1407L2313,1408L2373.82,1316.89L2305,1392L2319,1385L2322,1368L2367,1317L2360,1317L2367,1317L2381,1317L2401,1317L2422,1310L2442,1303L2463,1296L2497,1290L2483,1296L2504,1290L2517,1290L2531,1296L2553,1303L2548,1306L2557,1303L2582,1298L2557,1303L2593,1295L2605,1289L2619,1293" fill="none" stroke="#000000" style="-webkit-tap-highlight-color: rgba(0, 0, 0, 0); stroke-linecap: round; stroke-linejoin: round; stroke-width: 19;" /><path d="M2647,1283L2631,1279L2662,1271L2666,1267L2682,1276L2666,1267L2661.14,1323.73L2654,1324L2641,1324L2647,1324L2634,1324L2627,1317L2623,1297L2632,1293L2635,1289L2647,1266L2659,1252L2677,1242L2693,1199L2677,1231L2711,1196L2723,1181L2750,1160L2757,1153L2727,1174L2757,1131L2760,1125L2784,1125L2791,1119L2805,1112L2832,1105L2818,1105L2846,1098L2860,1098L2866,1091L2880,1084L2894,1077L2907,1064L2921,1057L2955,1039L2948,1042L2937,1043L2962,1039L2996,1043L2983,1043L3017,1043L3031,1036L3049,1045L3062,1043L3078,1042L3084,1041L3126,1043L3106,1043L3140,1050L3167,1050L3154,1050L3191,1056L3196,1057L3256,1071L3198,1057L3222,1057L3236,1064" fill="none" stroke="#000000" style="-webkit-tap-highlight-color: rgba(0, 0, 0, 0); stroke-linecap: round; stroke-linejoin: round; stroke-width: 19;" /><path d="M3270,1071L3284,1077L3311,1084L3297,1084L3345,1091L3325,1091L3359,1098L3379,1098L3393,1105L3414,1112L3441,1119L3427,1119L3455,1119L3489,1125L3468,1125L3503,1125L3516,1125L3537,1125L3530,1125L3544,1132" fill="none" stroke="#000000" style="-webkit-tap-highlight-color: rgba(0, 0, 0, 0); stroke-linecap: round; stroke-linejoin: round; stroke-width: 19;" /><path d="M964.58,1269L971,1269L971,1276L971,1283L971,1296L971,1310L971,1331L971,1358L971,1392L971,1420L971,1447L971,1474L971,1495L971,1515L971,1529L971,1543" fill="none" stroke="#000000" style="-webkit-tap-highlight-color: rgba(0, 0, 0, 0); stroke-linecap: round; stroke-linejoin: round; stroke-width: 19;" /><path d="M978,1570L978,1584L971,1556L978,1577L978,1577" fill="none" stroke="#000000" style="-webkit-tap-highlight-color: rgba(0, 0, 0, 0); stroke-linecap: round; stroke-linejoin: round; stroke-width: 19;" /><path d="M957.74,1255.32L951,1255L951,1262L935,1254L935,1254L953,1233L978,1221L954,1233L1006,1196L992,1207L1013,1174L1035,1168L1047,1160L1067,1153" fill="none" stroke="#000000" style="-webkit-tap-highlight-color: rgba(0, 0, 0, 0); stroke-linecap: round; stroke-linejoin: round; stroke-width: 19;" /><path d="M1081,1139L1085,1121L1135,1091L1120,1112L1149,1084L1128,1096L1156,1084L1156,1098" fill="none" stroke="#000000" style="-webkit-tap-highlight-color: rgba(0, 0, 0, 0); stroke-linecap: round; stroke-linejoin: round; stroke-width: 19;" /><path d="M909.85,1289.53L903,1290L892,1272L890,1273L889,1273L876,1283L862,1276L841,1276L821,1276L773,1276L794,1276L753,1283L739,1283L725,1283L711,1283L691,1290L677,1296L664,1296L633,1293L648,1285L626,1299L619,1302L606,1303L597,1308L585,1316L581,1319L561,1325L573,1321L539,1335L555,1325L515,1349L524,1341L506,1372L493,1378L479,1392" fill="none" stroke="#000000" style="-webkit-tap-highlight-color: rgba(0, 0, 0, 0); stroke-linecap: round; stroke-linejoin: round; stroke-width: 19;" /><path d="M465,1406L458,1426L445,1440L438,1454" fill="none" stroke="#000000" style="-webkit-tap-highlight-color: rgba(0, 0, 0, 0); stroke-linecap: round; stroke-linejoin: round; stroke-width: 19;" /><path d="M608.85,1152.71" fill="none" stroke="#000000" style="-webkit-tap-highlight-color: rgba(0, 0, 0, 0); stroke-linecap: round; stroke-linejoin: round; stroke-width: 19;" /><path d="M424,1467L417,1481L417,1488L424,1488L431,1488L452,1481" fill="none" stroke="#000000" style="-webkit-tap-highlight-color: rgba(0, 0, 0, 0); stroke-linecap: round; stroke-linejoin: round; stroke-width: 19;" /><path d="M609,1146L602,1139L581,1139L595,1139L575,1139L554,1146L540,1153L530,1174L515,1181L505,1188L478,1216L478,1216L455,1237L452,1255L438,1276L424,1290L417,1303L404,1317L397,1344L404,1331L390,1358" fill="none" stroke="#000000" style="-webkit-tap-highlight-color: rgba(0, 0, 0, 0); stroke-linecap: round; stroke-linejoin: round; stroke-width: 19;" /><path d="M390,1365L390,1378L397,1392L390,1385L397,1399L397,1406L397,1413L390,1413L397,1413L404,1406" fill="none" stroke="#000000" style="-webkit-tap-highlight-color: rgba(0, 0, 0, 0); stroke-linecap: round; stroke-linejoin: round; stroke-width: 19;" /><path d="M6.84,1111.66L7,1105L7,1098L7,1091L29,1107L14,1098L29,1107L41,1109L55,1125L75,1132L110,1149L89,1139L127,1146L138,1145L157,1153L178,1153L205,1160L192,1160L219,1166L233,1166L260,1187L246,1173L274,1194L287,1201L315,1214L301,1207L322,1221L335,1228L340,1254L342,1235L349,1260L352,1261L349,1283L356,1290L363,1296L356,1296L369,1303L376,1303L376,1310L383,1317L383,1324L390,1331" fill="none" stroke="#000000" style="-webkit-tap-highlight-color: rgba(0, 0, 0, 0); stroke-linecap: round; stroke-linejoin: round; stroke-width: 19;" /><path d="M390,1344L383,1365L390,1351L383,1378L376,1392L376,1399L376,1413L376,1426L376,1433L397,1440L383,1440L390,1440" fill="none" stroke="#000000" style="-webkit-tap-highlight-color: rgba(0, 0, 0, 0); stroke-linecap: round; stroke-linejoin: round; stroke-width: 19;" /><path d="M47.89,1412.66L57,1397L41,1399L57,1397L57,1397L68,1397L82,1397L94,1397L99,1396L130,1399L151,1406L164,1406L185,1406L219,1406L205,1406L233,1406L261,1407" fill="none" stroke="#000000" style="-webkit-tap-highlight-color: rgba(0, 0, 0, 0); stroke-linecap: round; stroke-linejoin: round; stroke-width: 19;" /><path d="M275,1405L285,1406L299,1411L299,1413L297,1420L328.37,1440.03L322,1440L327,1440L320,1440L318,1442L318,1445L308,1467L318,1445L301,1481L301,1495" fill="none" stroke="#000000" style="-webkit-tap-highlight-color: rgba(0, 0, 0, 0); stroke-linecap: round; stroke-linejoin: round; stroke-width: 19;" /><path d="M301,1522L301,1515L335.21,1549.48L301,1536L301,1543L301,1549L315,1541L315,1541L329,1543L328,1556L342,1556L335,1556L376,1570L356,1563L424,1597L395,1585L445,1611L465,1625" fill="none" stroke="#000000" style="-webkit-tap-highlight-color: rgba(0, 0, 0, 0); stroke-linecap: round; stroke-linejoin: round; stroke-width: 19;" /><path d="M493,1645L479,1638L506,1652L499,1652L520,1659L513,1659L534,1659L527,1659" fill="none" stroke="#000000" style="-webkit-tap-highlight-color: rgba(0, 0, 0, 0); stroke-linecap: round; stroke-linejoin: round; stroke-width: 19;" /><path d="M41.05,1953.1L34,1953L21,1946L14,1946L7,1939L7,1926L7,1933L21,1926L34,1919L62,1912L96,1905L137,1898L171,1898L229,1901L205,1903L228,1904L246,1912L268,1920L288,1927L322,1939L300,1922L342,1946L356,1946L369,1953L376,1953L383,1960L390,1960L390,1967L390,1974L390,1980L383,1987L376,2001L363,2008L356,2015L342,2022L315,2042L328,2035" fill="none" stroke="#000000" style="-webkit-tap-highlight-color: rgba(0, 0, 0, 0); stroke-linecap: round; stroke-linejoin: round; stroke-width: 19;" /><path d="M301,2056L287,2063L274,2076L253,2090L239,2097L219,2104L198,2110L178,2110L137,2104L157,2110L89,2097L109,2104L62,2090L34,2090L14,2090" fill="none" stroke="#000000" style="-webkit-tap-highlight-color: rgba(0, 0, 0, 0); stroke-linecap: round; stroke-linejoin: round; stroke-width: 19;" /><path d="M1039.83,1836.81L1040,1830L1040,1823L1033,1823L1019,1823L1006,1823L977,1827L937,1837L903,1850L862,1857L828,1857L800,1872L796,1875L773,1878L759,1878L739,1885L725,1892L705,1898L698,1905L698,1912L698,1919L711,1933L732,1939L773,1953L753,1946L794,1953L823,1970L869,1960L841,1960L889,1967L910,1974L930,1987L924,1980L944,1987L958,1994L971,1994L992,1987L1012,1980L1033,1967L1040,1967L1074,1946L1101,1926" fill="none" stroke="#000000" style="-webkit-tap-highlight-color: rgba(0, 0, 0, 0); stroke-linecap: round; stroke-linejoin: round; stroke-width: 19;" /><path d="M1122,1904L1142,1859L1133,1893L1144,1851L1129,1830L1115,1816L1101,1809L1088,1809L1081,1809L1047,1830L1067,1824L1026,1850" fill="none" stroke="#000000" style="-webkit-tap-highlight-color: rgba(0, 0, 0, 0); stroke-linecap: round; stroke-linejoin: round; stroke-width: 19;" /><path d="M1525.54,1782.08L1505,1782L1491,1789L1475,1784L1471,1796L1471,1803L1484,1803L1491,1803L1512,1803L1532,1796L1555,1779L1635,1768L1587,1782L1608,1777L1649,1762L1662,1755L1692,1755L1703,1758L1731,1748L1758,1748L1789,1744L1820,1741L1854,1741L1888,1734L1922,1734L1949,1736L1962,1733L1998,1734L2027,1728L2045,1747L2073,1755L2109,1766L2122,1764L2175,1782L2147,1775L2216,1789L2196,1789L2230,1796L2244,1796L2258,1796L2278,1796L2319,1789L2292,1789L2305,1789L2333,1782L2360,1775L2346,1782L2367,1775L2381,1769L2386,1767L2401,1789L2414,1809L2394,1782L2409,1814L2408,1850L2408,1830L2394,1864L2381,1878L2367,1892L2340,1912L2353,1905L2319,1912L2305,1919L2285,1926L2264,1926L2244,1933L2216,1933L2169,1946L2189,1939L2141,1946L2128,1953L2100,1960L2080,1960L2066,1967L2039,1974L2052,1967L2018,1974" fill="none" stroke="#000000" style="-webkit-tap-highlight-color: rgba(0, 0, 0, 0); stroke-linecap: round; stroke-linejoin: round; stroke-width: 19;" /><path d="M1991,1974L1896,1974L1868,1967L1963,1974L1920,1979L1847,1967L1833,1967L1827,1960L1806,1960L1758,1953L1785,1953L1731,1946L1710,1933L1683,1919L1628,1892L1656,1905L1601,1878L1560,1864L1539,1864L1519,1857L1580,1871L1457,1823L1478,1837L1498,1844L1437,1816" fill="none" stroke="#000000" style="-webkit-tap-highlight-color: rgba(0, 0, 0, 0); stroke-linecap: round; stroke-linejoin: round; stroke-width: 19;" /><path d="M554.12,1549.48" fill="none" stroke="#000000" style="-webkit-tap-highlight-color: rgba(0, 0, 0, 0); stroke-linecap: round; stroke-linejoin: round; stroke-width: 19;" /><path d="M1423,1809L1409,1809L1382,1809L1396,1809L1375,1816L1409,1823L1389,1823L1375,1809" fill="none" stroke="#000000" style="-webkit-tap-highlight-color: rgba(0, 0, 0, 0); stroke-linecap: round; stroke-linejoin: round; stroke-width: 19;" /><path d="M581,1563L561,1556L575,1556L568,1556L602,1577L636,1584L623,1584L588,1570L650,1591L664,1597L677,1604L691,1618L705,1625L718,1632L739,1632L732,1632L753,1638L766,1638L787,1645L780,1638L794,1645L800,1645L807,1645L814,1645L821,1645L828,1638L841,1632L862,1625L896,1604L876,1618L917,1597L930,1591L944,1584L951,1577L958,1563L971,1556L978,1549L985,1543L992,1536L999,1536L1012,1529L1019,1529L1033,1522L1040,1522L1047,1515L1054,1515L1067,1508L1060,1508L1074,1508L1081,1502L1088,1495L1088,1502L1095,1488L1101,1488L1108,1481L1115,1474L1122,1474L1122,1467L1129,1467L1136,1467L1136,1474L1142,1474L1149,1481L1156,1481L1163,1488L1183,1502L1177,1495L1170,1495L1190,1502L1197,1508L1204,1508L1211,1508L1218,1508L1225,1508L1231,1515L1245,1515L1238,1515L1259,1515L1252,1515L1266,1522" fill="none" stroke="#000000" style="-webkit-tap-highlight-color: rgba(0, 0, 0, 0); stroke-linecap: round; stroke-linejoin: round; stroke-width: 19;" /><path d="M1272,1522L1279,1522L1286,1529L1300,1529L1307,1536L1313,1536L1320,1536L1334,1543L1382,1549L1348,1543L1368,1543L1402,1556L1443,1556L1423,1556L1457,1556L1478,1549" fill="none" stroke="#000000" style="-webkit-tap-highlight-color: rgba(0, 0, 0, 0); stroke-linecap: round; stroke-linejoin: round; stroke-width: 19;" /><path d="M1231.38,1241.64" fill="none" stroke="#000000" style="-webkit-tap-highlight-color: rgba(0, 0, 0, 0); stroke-linecap: round; stroke-linejoin: round; stroke-width: 19;" /><path d="M1519,1549L1498,1549L1553,1540L1573,1549L1628,1549L1656,1543L1601,1549L1683,1536L1765,1515L1744,1522L1717,1529L1779,1515L1765,1515L1772,1515" fill="none" stroke="#000000" style="-webkit-tap-highlight-color: rgba(0, 0, 0, 0); stroke-linecap: round; stroke-linejoin: round; stroke-width: 19;" /><path d="M1225,1248L1231,1248" fill="none" stroke="#000000" style="-webkit-tap-highlight-color: rgba(0, 0, 0, 0); stroke-linecap: round; stroke-linejoin: round; stroke-width: 19;" /><path d="M1222,1285L1225,1255L1218,1269L1217,1298L1211,1313L1214,1341L1197,1365L1207,1395L1197,1413L1197,1440L1197,1488L1197,1467L1190,1515L1190,1522" fill="none" stroke="#000000" style="-webkit-tap-highlight-color: rgba(0, 0, 0, 0); stroke-linecap: round; stroke-linejoin: round; stroke-width: 19;" /><path d="M971.42,1269" fill="none" stroke="#000000" style="-webkit-tap-highlight-color: rgba(0, 0, 0, 0); stroke-linecap: round; stroke-linejoin: round; stroke-width: 19;" /><path d="M1190,1529L1197,1529L1211,1529L1211,1522" fill="none" stroke="#000000" style="-webkit-tap-highlight-color: rgba(0, 0, 0, 0); stroke-linecap: round; stroke-linejoin: round; stroke-width: 19;" /><path d="M965,1262L965,1269L958,1262L958,1255L951,1255L951,1262L951,1276L951,1296L951,1324L951,1358L951,1420L951,1392L944,1474L944,1502L951,1454" fill="none" stroke="#000000" style="-webkit-tap-highlight-color: rgba(0, 0, 0, 0); stroke-linecap: round; stroke-linejoin: round; stroke-width: 19;" /><path d="M944,1529L944,1549L958,1570L951,1563L951,1570L965,1563L971,1556" fill="none" stroke="#000000" style="-webkit-tap-highlight-color: rgba(0, 0, 0, 0); stroke-linecap: round; stroke-linejoin: round; stroke-width: 19;" /><path d="M3550.47,1337.41L3557,1337L3550,1337L3537,1331L3530,1331L3509,1331L3489,1324L3468,1324L3448,1315L3430,1315L3404,1329L3364,1328L3386,1327L3361,1329L3332,1344L3318,1351L3304,1365L3286,1371L3278,1373L3270,1389L3268,1390L3256,1399" fill="none" stroke="#000000" style="-webkit-tap-highlight-color: rgba(0, 0, 0, 0); stroke-linecap: round; stroke-linejoin: round; stroke-width: 19;" /><path d="M3249,1406L3243,1413L3236,1420L3229,1426L3229,1433L3222,1433L3229,1433L3236,1433" fill="none" stroke="#000000" style="-webkit-tap-highlight-color: rgba(0, 0, 0, 0); stroke-linecap: round; stroke-linejoin: round; stroke-width: 19;" /><path d="M3605.2,1357.94L3605,1351L3605,1358L3605,1372L3605,1365L3605,1378L3605,1392L3605,1406L3605,1399L3598,1420L3592,1426L3585,1440L3578,1447L3564,1454L3550,1461L3537,1467L3523,1474L3509,1474L3496,1474L3475,1481L3462,1481L3441,1481L3427,1481L3407,1481L3373,1481L3359,1474L3393,1481L3338,1474L3325,1474L3297,1461L3311,1467L3284,1454L3256,1447L3249,1440L3270,1447L3243,1433" fill="none" stroke="#000000" style="-webkit-tap-highlight-color: rgba(0, 0, 0, 0); stroke-linecap: round; stroke-linejoin: round; stroke-width: 19;" /><path d="M3236,1413L3236,1426L3243,1399L3243,1392L3249,1385L3249,1378L3249,1372L3249,1365L3243,1358L3243,1365L3236,1358L3236,1365L3236,1372" fill="none" stroke="#000000" style="-webkit-tap-highlight-color: rgba(0, 0, 0, 0); stroke-linecap: round; stroke-linejoin: round; stroke-width: 19;" /><path d="M3317.88,1590.53L3311,1597L3304,1597L3297,1597L3297,1591L3304,1584L3297,1584L3311,1577L3311,1584L3318,1577L3344,1575L3339,1574L3373,1577L3434,1570L3462,1570L3400,1570L3489,1570L3516,1570L3564,1570L3544,1570L3585,1563L3605,1563L3619,1563" fill="none" stroke="#000000" style="-webkit-tap-highlight-color: rgba(0, 0, 0, 0); stroke-linecap: round; stroke-linejoin: round; stroke-width: 19;" /><path d="M3639,1556L3653,1556L3674,1556L3687,1549L3701,1549L3715,1543L3728,1543L3749,1543L3763,1543L3783,1543L3797,1536L3817,1536L3824,1529L3831,1529L3838,1511" fill="none" stroke="#000000" style="-webkit-tap-highlight-color: rgba(0, 0, 0, 0); stroke-linecap: round; stroke-linejoin: round; stroke-width: 19;" /><path d="M3529.95,1166.39" fill="none" stroke="#000000" style="-webkit-tap-highlight-color: rgba(0, 0, 0, 0); stroke-linecap: round; stroke-linejoin: round; stroke-width: 19;" /><path d="M3830,1512L3838,1511" fill="none" stroke="#000000" style="-webkit-tap-highlight-color: rgba(0, 0, 0, 0); stroke-linecap: round; stroke-linejoin: round; stroke-width: 19;" /><path d="M3530,1151L3530,1151L3530,1151L3527,1151L3512,1170L3509,1194L3491,1206L3476,1214L3457,1232L3456,1232L3434,1248L3427,1255L3414,1262L3400,1269L3393,1269L3386,1269L3386,1249L3378,1241L3380,1229L3384,1224L3379,1201L3386,1187L3407,1173L3400,1180L3407,1166L3427,1166" fill="none" stroke="#000000" style="-webkit-tap-highlight-color: rgba(0, 0, 0, 0); stroke-linecap: round; stroke-linejoin: round; stroke-width: 19;" /><path d="M3441,1160L3459,1163L3468,1157L3480,1157L3490,1153L3496,1154L3504,1172" fill="none" stroke="#000000" style="-webkit-tap-highlight-color: rgba(0, 0, 0, 0); stroke-linecap: round; stroke-linejoin: round; stroke-width: 19;" /><path d="M2702.19,1494.76L2702,1502L2722,1497L2739,1510L2755,1519L2776,1519L2797,1527L2807,1548L2808,1551L2818,1570L2825,1597L2825,1584" fill="none" stroke="#000000" style="-webkit-tap-highlight-color: rgba(0, 0, 0, 0); stroke-linecap: round; stroke-linejoin: round; stroke-width: 19;" /><path d="M2825,1611L2839,1618L2853,1618L2866,1618L2880,1618L2894,1618L2901,1618" fill="none" stroke="#000000" style="-webkit-tap-highlight-color: rgba(0, 0, 0, 0); stroke-linecap: round; stroke-linejoin: round; stroke-width: 19;" /><path d="M2640.62,1761.55L2641,1755L2641,1748L2647,1748L2661,1748L2682,1749L2705,1750L2736,1740L2764,1741L2787,1751L2818,1734L2868,1717L2839,1734L2903,1726L2921,1712L2948,1705L2976,1709L2989,1705L3010,1704L3044,1700L3018,1702L3058,1707L3065,1707L3092,1707L3078,1707L3106,1707L3119,1707" fill="none" stroke="#000000" style="-webkit-tap-highlight-color: rgba(0, 0, 0, 0); stroke-linecap: round; stroke-linejoin: round; stroke-width: 19;" /></svg>