<?xml version="1.0" encoding="utf-8" ?>
<svg baseProfile="full" height="2592" version="1.1" width="3872" xmlns="http://www.w3.org/2000/svg" xmlns:ev="http://www.w3.org/2001/xml-events" xmlns:xlink="http://www.w3.org/1999/xlink"><defs /><path d="M868.81,3.42" fill="none" stroke="#000000" style="-webkit-tap-highlight-color: rgba(0, 0, 0, 0); stroke-linecap: round; stroke-linejoin: round; stroke-width: 19;" /><path d="M855.12,10.26L862,17L869,24L882,38L896,44L903,58L917,65L930,72L937,72L966,79L962,75L971,85L988,97L985,95L993,104L997,108L1012,99L1019,106L1026,113L1033,113L1054,133L1047,127L1040,120L1060,140L1067,147L1074,154L1088,161L1095,168L1108,181L1095,174L1115,188L1122,195L1136,209L1136,202L1129,195L1142,215L1149,222L1149,229L1156,236L1163,243L1170,250L1177,270L1177,263L1183,277L1183,284L1190,291L1197,291L1197,298L1204,304L1211,311L1225,332L1218,325L1225,339L1231,345L1238,352L1245,366L1252,373L1259,380L1266,393L1259,387L1266,407L1272,421L1279,428L1272,414L1279,434L1286,448L1293,462L1286,455L1293,469L1288,488L1291,499L1290,492L1296,510L1303,523L1313,510L1320,523L1320,530L1309,547L1327,537L1327,544L1327,551L1334,558L1324,574L1328,577L1331,581L1334,585L1334,585L1327,612L1327,605L1337,588L1327,619L1341,633L1334,619L1334,626L1348,640L1355,646L1361,653L1355,653L1361,660L1361,674L1361,667L1361,681L1361,688L1361,694L1361,701L1368,701L1368,708L1375,708L1382,708L1382,715L1389,715L1396,722L1396,715L1402,722L1409,729L1416,735L1416,742L1423,749L1430,756L1437,770L1430,763L1437,776L1443,776L1443,783L1450,783L1450,790L1457,790L1464,790L1471,797L1464,797L1478,804L1491,811L1491,804L1484,804L1498,811L1505,811L1512,811L1519,811L1526,804L1532,804L1539,804L1553,804L1569,800L1569,800L1575,800L1576,801L1587,790L1594,790L1597,775L1600,774L1614,776L1621,776L1633,768L1635,769L1645,769L1641,765L1665,756L1667,758L1675,748L1690,749L1696,741L1715,733L1711,735L1728,728L1731,715L1738,708L1744,708L1744,701L1751,701L1765,701L1758,701L1779,701L1772,701" fill="none" stroke="#000000" style="-webkit-tap-highlight-color: rgba(0, 0, 0, 0); stroke-linecap: round; stroke-linejoin: round; stroke-width: 19;" /><path d="M1792,708L1785,708L1799,708L1806,708L1813,708L1813,715L1820,715L1827,715L1839,709L1840,709L1845,708L1850,707L1799.18,721.72L1792,708L1799,715L1792,701L1789,688L1799,722L1792,708L1806,735L1820,756L1827,770L1833,783L1847,804L1861,817L1868,820L1874,838L1881,852L1888,865L1895,872L1901,887L1915,886L1915,893L1922,906L1929,913L1936,927L1936,941L1943,954L1943,947L1943,961L1950,961L1950,968L1950,982L1950,975L1950,989L1950,995L1957,1016L1957,1009L1957,1002L1957,1023L1957,1030L1957,1036L1957,1043L1957,1050L1957,1064L1957,1057L1957,1077L1950,1084L1950,1091L1950,1098L1950,1105L1950,1112L1950,1119L1950,1132L1950,1139L1950,1146L1950,1166L1950,1173L1950,1153L1950,1180L1950,1187L1950,1194L1957,1201L1957,1207L1957,1214L1963,1235L1963,1221L1963,1242L1970,1248L1970,1262L1970,1283L1970,1269L1970,1296L1970,1310L1970,1331L1970,1324L1970,1344L1970,1358L1970,1351L1970,1365L1970,1378L1970,1385L1970,1406L1970,1392L1970,1413L1970,1426L1970,1420L1970,1433L1970,1440L1963,1454L1970,1447L1963,1461L1963,1467L1957,1488L1957,1481L1950,1495L1950,1502L1943,1508L1943,1515L1936,1529L1936,1522L1929,1543L1929,1536L1922,1556L1922,1549L1915,1570L1915,1577L1915,1584L1915,1597L1915,1604L1915,1611L1922,1632L1915,1625L1922,1638L1922,1645L1922,1652L1922,1659" fill="none" stroke="#000000" style="-webkit-tap-highlight-color: rgba(0, 0, 0, 0); stroke-linecap: round; stroke-linejoin: round; stroke-width: 19;" /><path d="M1922,1673L1922,1679L1922,1686L1915,1700L1922,1693L1915,1714L1915,1721L1915,1727L1909,1734L1909,1741L1909,1748L1909,1762L1909,1755L1909,1768L1909,1775L1909,1782L1909,1789L1909,1796L1902,1803L1902,1809L1902,1823L1902,1816L1895,1823L1895,1830L1902,1823L1902,1816L1909,1809" fill="none" stroke="#000000" style="-webkit-tap-highlight-color: rgba(0, 0, 0, 0); stroke-linecap: round; stroke-linejoin: round; stroke-width: 19;" /><path d="M102.61,2103.6L96,2104L96,2097L89,2097L89,2104L96,2104L96,2097L109,2090L130,2076L151,2069L178,2056L192,2049L212,2042L226,2042L246,2042L239,2042L253,2042L267,2042L280,2035L301,2028L315,2015L328,2008L342,2001L349,1994L363,1987L383,1974L397,1967L417,1960L431,1953L445,1946L452,1939L458,1939L465,1933L479,1933L493,1926L513,1919L506,1926L534,1912L520,1919L554,1905L540,1912L575,1898L561,1905L581,1898L595,1898L602,1898L609,1898L616,1892L623,1892L629,1892L643,1885L650,1885L657,1878L670,1878L684,1878L691,1871L705,1871L725,1871L739,1864L746,1864L746,1857L759,1857L773,1850L787,1850L800,1844L807,1844L821,1844L835,1837L848,1837L876,1830L862,1837L944,1823L896,1830L930,1823L910,1823L951,1823L985,1830L978,1823L965,1823L1006,1830L999,1830L1026,1837L1012,1837L1033,1844L1054,1850L1047,1844L1067,1850L1101,1850L1081,1850L1115,1850L1088,1850L1142,1850L1129,1850L1149,1844L1156,1844L1183,1837L1170,1844L1177,1837L1190,1837L1204,1837L1211,1837L1231,1830L1225,1837L1259,1830L1245,1830L1293,1830L1272,1830L1334,1830L1320,1830L1348,1830L1307,1830L1361,1823L1389,1816L1402,1816L1375,1823L1416,1809L1430,1809L1450,1803L1443,1809L1478,1803L1491,1796L1464,1803L1484,1796L1519,1796L1512,1796L1498,1796L1532,1796L1560,1789L1546,1796L1580,1789L1567,1789L1601,1789L1594,1789L1608,1789L1614,1789L1621,1789L1628,1789L1642,1789L1649,1789L1669,1782L1662,1789" fill="none" stroke="#000000" style="-webkit-tap-highlight-color: rgba(0, 0, 0, 0); stroke-linecap: round; stroke-linejoin: round; stroke-width: 19;" /><path d="M1683,1782L1697,1775L1703,1775L1717,1775L1724,1768L1738,1768L1744,1768L1751,1762L1765,1762L1765,1755L1772,1755L1779,1748L1785,1741L1792,1734L1799,1727L1806,1721L1799,1721L1813,1714L1820,1707L1820,1700L1833,1700L1827,1700L1840,1700L1854,1710L1854,1710L1854,1710L1871,1730L1860,1722L1874,1714L1871,1730L1888,1734L1895,1741L1909,1748" fill="none" stroke="#000000" style="-webkit-tap-highlight-color: rgba(0, 0, 0, 0); stroke-linecap: round; stroke-linejoin: round; stroke-width: 19;" /><path d="M2134.39,1912.06" fill="none" stroke="#000000" style="-webkit-tap-highlight-color: rgba(0, 0, 0, 0); stroke-linecap: round; stroke-linejoin: round; stroke-width: 19;" /><path d="M1902,1748L1915,1748L1929,1748L1936,1748L1922,1748L1943,1748L1943,1755L1936,1755L1929,1762" fill="none" stroke="#000000" style="-webkit-tap-highlight-color: rgba(0, 0, 0, 0); stroke-linecap: round; stroke-linejoin: round; stroke-width: 19;" /><path d="M2141,1912L2148,1912L2148,1905L2155,1898L2155,1905L2155,1919L2155,1912L2148,1926L2134,1933L2141,1933L2121,1946L2128,1939L2093,1974L2100,1967L2114,1960L2080,1987L2066,2001L2052,2015L2059,2008L2045,2022L2039,2028L2025,2035L2004,2056L2018,2049L1984,2083L1991,2069L1970,2090L1963,2097L1950,2110L1936,2117L1922,2131L1909,2138L1874,2151L1895,2145L1888,2151L1881,2151L1861,2158L1854,2158L1868,2151L1854,2165L1847,2165L1840,2165L1833,2165L1827,2172L1806,2179L1820,2172L1799,2186L1785,2193L1779,2199L1772,2199L1765,2199L1751,2206L1724,2220L1710,2227L1738,2213L1697,2240L1676,2247L1649,2268L1662,2261L1635,2281L1621,2288L1608,2295L1594,2302L1580,2309L1573,2316L1560,2323L1553,2323L1546,2329L1532,2343L1519,2350L1539,2336L1512,2357" fill="none" stroke="#000000" style="-webkit-tap-highlight-color: rgba(0, 0, 0, 0); stroke-linecap: round; stroke-linejoin: round; stroke-width: 19;" /><path d="M1498,2370L1505,2364L1491,2377L1484,2384L1457,2402L1464,2400L1479,2397L1449,2403L1437,2425L1430,2439L1416,2446L1409,2459L1382,2480L1396,2466L1375,2494L1361,2500L1341,2521L1355,2514L1327,2535L1313,2548L1300,2555L1286,2562L1279,2569L1272,2576L1266,2576L1259,2576L1245,2576L1252,2576L1238,2582L1238,2576L1231,2582L1225,2582L1231,2576" fill="none" stroke="#000000" style="-webkit-tap-highlight-color: rgba(0, 0, 0, 0); stroke-linecap: round; stroke-linejoin: round; stroke-width: 19;" /><path d="M1812.86,680.68L1801,684L1797,683L1797,683L1806,665L1819,659L1820,640L1820,626L1834,608L1827,592L1827,585L1833,571L1840,564L1833,564L1840,558L1847,551L1871,548L1869,550L1878,544L1881,530L1888,530L1903,532L1911,529L1917,522L1927,515L1929,513L1943,509L1937,511L1946,510L1946,510L1970,508L1970,508L1985,493L1977,508L1995,491L1989,496L2012,491L2018,491L2018,491L2025,490L2038,490L2054,492L2057,493L2059,495L2076,499L2076,499L2100,489L2093,489L2114,489L2107,489L2121,489L2134,496L2128,489L2141,496L2148,496L2165,510L2161,509L2155,496L2175,513L2182,514L2201,523L2187,518L2210,523L2228,532L2235,534L2221,527L2248,538L2260,541L2285,556L2271,551L2294,564L2304,571L2308,574L2328,577L2337,587L2348,597L2355,602L2366,610L2376,624L2379,627L2384,632L2400,636L2401,653L2408,667L2415,681L2429,688L2435,701L2442,708L2456,715L2463,722L2480,719L2489,727L2491,731L2492,734L2504,742L2495,736L2510,744L2531,755L2535,758L2524,749L2544,766L2538,763L2543,767L2543,767L2559,790L2572,790L2559,783L2565,790L2593,776L2600,770L2579,783L2586,776" fill="none" stroke="#000000" style="-webkit-tap-highlight-color: rgba(0, 0, 0, 0); stroke-linecap: round; stroke-linejoin: round; stroke-width: 19;" /><path d="M2606,770L2613,770L2627,776L2620,770L2634,783L2641,783L2657,798L2656,799L2666,794L2667,796L2667,796L2682,797L2695,804L2689,804L2709,817L2702,811L2709,824L2716,831L2716,824L2723,838L2730,865L2723,852L2723,845L2730,859L2730,879L2730,872L2736,886L2736,879L2736,893L2736,906L2749,910L2736,900L2750,913L2750,920L2647.46,858.54L2661,852L2654,852L2668,852L2682,852L2689,859L2695,865L2702,879L2709,893L2709,906L2716,920L2716,934L2723,947L2723,954L2723,968L2723,982L2723,1009L2723,995L2723,1016L2730,1036L2736,1043L2743,1050L2743,1057L2757,1064L2750,1057L2764,1071L2771,1071L2777,1077L2784,1077L2791,1077L2798,1077L2805,1077L2812,1077L2825,1077L2841,1067L2853,1077L2845,1071L2848,1074L2856,1080L2865,1086L2866,1105L2868,1087L2866,1112L2873,1119L2880,1125L2880,1132L2887,1132L2894,1139L2909,1134L2911,1135L2914,1138L2915,1139L2914,1138L2928,1132L2915,1139L2935,1132L2935,1125L2942,1125L2948,1125L2955,1125L2962,1125L2969,1125L2984,1127L2984,1127L2987,1128L3003,1132L2996,1132L3010,1136L3015,1139L3011,1137L3023,1140L3023,1140L3047,1149L3047,1149L3051,1148L3058,1152L3065,1155L3069,1158L3073,1161L3075,1162L3092,1160L3075,1162L3092,1166L3099,1173L3099,1187L3099,1180L3113,1187L3117,1195L3122,1199L3113,1190L3126,1202L3133,1221L3143,1209L3126,1214L3147,1214L3150,1219L3153,1221L3161,1227L3154,1242" fill="none" stroke="#000000" style="-webkit-tap-highlight-color: rgba(0, 0, 0, 0); stroke-linecap: round; stroke-linejoin: round; stroke-width: 19;" /><path d="M3161,1255L3170,1239L3175,1246L3167,1262L3174,1276L3174,1269L3181,1283L3188,1283L3188,1290L3195,1290L3217,1295L3211,1286L3221,1310L3221,1310L3224,1315L3228,1317L3234,1325L3249,1343L3241,1333L3243,1336L3253,1348L3261,1357L3269,1365L3258,1354L3272,1368L3270,1392L3270,1399L3278,1376L3277,1406L3284,1413L3291,1426L3284,1420L3297,1426L3222.11,1351.1L3297,1433L3311,1447L3304,1440L3318,1447L3215,1344L3208,1337L3208,1331L3202,1324L3202,1317L3202,1324L3202,1310L3215,1337L3229,1358L3249,1385L3297,1426L3270,1406L3318,1440L3332,1454L3350,1461L3355,1467L3374,1487L3379,1489L3400,1502L3393,1502L3400,1508L3407,1515L3414,1529L3422,1514L3423,1540L3423,1540L3420,1556" fill="none" stroke="#000000" style="-webkit-tap-highlight-color: rgba(0, 0, 0, 0); stroke-linecap: round; stroke-linejoin: round; stroke-width: 19;" /><path d="M3420,1570L3420,1577L3420,1584L3420,1591L3420,1597L3420,1604L3420,1611L3420,1625L3420,1618" fill="none" stroke="#000000" style="-webkit-tap-highlight-color: rgba(0, 0, 0, 0); stroke-linecap: round; stroke-linejoin: round; stroke-width: 19;" /><path d="M3331.56,1419.51" fill="none" stroke="#000000" style="-webkit-tap-highlight-color: rgba(0, 0, 0, 0); stroke-linecap: round; stroke-linejoin: round; stroke-width: 19;" /><path d="M3427,1632L3427,1625L3427,1618" fill="none" stroke="#000000" style="-webkit-tap-highlight-color: rgba(0, 0, 0, 0); stroke-linecap: round; stroke-linejoin: round; stroke-width: 19;" /><path d="M3315,1416L3315,1416L3314,1417L3310,1414L3314,1417L3315,1416L3332,1420L3338,1420L3345,1413L3352,1406L3359,1399L3359,1392L3366,1392L3373,1385L3379,1378L3407,1372L3393,1378L3441,1372L3420,1372L3455,1365L3468,1365L3482,1365L3489,1365L3503,1365L3509,1365L3523,1365L3530,1365L3544,1365L3537,1365L3557,1365L3564,1365L3564,1372L3550,1365L3585,1372L3598,1372L3571,1372L3578,1372L3612,1378L3639,1378L3605,1378L3626,1378L3660,1378L3667,1372L3674,1372L3653,1378" fill="none" stroke="#000000" style="-webkit-tap-highlight-color: rgba(0, 0, 0, 0); stroke-linecap: round; stroke-linejoin: round; stroke-width: 19;" /><path d="M3708,1365L3715,1365L3687,1372L3694,1365L3728,1365L3735,1365L3763,1365L3749,1365L3776,1365L3797,1372L3790,1372L3804,1372L3810,1372L3817,1378L3810,1378L3824,1395L3810,1385L3808,1401" fill="none" stroke="#000000" style="-webkit-tap-highlight-color: rgba(0, 0, 0, 0); stroke-linecap: round; stroke-linejoin: round; stroke-width: 19;" /><path d="M2325.94,1542.64L2319,1536L2326,1536L2319,1543L2312,1543L2305,1543L2299,1536L2292,1536L2285,1536L2278,1536L2278,1543L2271,1543L2271,1549L2264,1556L2264,1570L2258,1584L2258,1597L2258,1611L2258,1625L2258,1632L2258,1645L2258,1652L2264,1673L2264,1659L2264,1679L2264,1686L2264,1707L2264,1700L2264,1714L2264,1748L2264,1734L2264,1727L2264,1721L2264,1755L2258,1768L2258,1775L2258,1782L2258,1789L2258,1796L2251,1809L2251,1816L2251,1830" fill="none" stroke="#000000" style="-webkit-tap-highlight-color: rgba(0, 0, 0, 0); stroke-linecap: round; stroke-linejoin: round; stroke-width: 19;" /><path d="M2251,1837L2244,1850L2244,1844L2244,1857L2244,1871" fill="none" stroke="#000000" style="-webkit-tap-highlight-color: rgba(0, 0, 0, 0); stroke-linecap: round; stroke-linejoin: round; stroke-width: 19;" /><path d="M2305.41,1556.33" fill="none" stroke="#000000" style="-webkit-tap-highlight-color: rgba(0, 0, 0, 0); stroke-linecap: round; stroke-linejoin: round; stroke-width: 19;" /><path d="M2251,1878L2251,1885L2251,1892L2251,1898L2251,1871L2258,1871L2251,1892" fill="none" stroke="#000000" style="-webkit-tap-highlight-color: rgba(0, 0, 0, 0); stroke-linecap: round; stroke-linejoin: round; stroke-width: 19;" /><path d="M2305,1549L2305,1543L2299,1536L2299,1543L2299,1536L2305,1536L2312,1536L2326,1536L2333,1543L2353,1556L2346,1549L2360,1563L2360,1584L2360,1570L2360,1597L2353,1611L2340,1652L2346,1625L2346,1638L2340,1666L2333,1700L2333,1686L2333,1679L2333,1714L2333,1727L2333,1721L2340,1741L2340,1748L2340,1762L2346,1775L2346,1768L2353,1782L2353,1789L2353,1796L2353,1809L2360,1816L2360,1830L2360,1837L2360,1850" fill="none" stroke="#000000" style="-webkit-tap-highlight-color: rgba(0, 0, 0, 0); stroke-linecap: round; stroke-linejoin: round; stroke-width: 19;" /><path d="M2360,1857L2360,1864L2360,1871L2360,1878L2360,1885L2360,1892L2367,1892L2367,1885L2374,1878L2374,1871L2381,1864" fill="none" stroke="#000000" style="-webkit-tap-highlight-color: rgba(0, 0, 0, 0); stroke-linecap: round; stroke-linejoin: round; stroke-width: 19;" /><path d="M2455.92,810.66L2449,797L2456,804L2442,797L2442,790L2449,783L2449,790L2456,783L2456,776L2463,770L2463,763L2463,756L2470,756L2470,749L2463,749L2456,776L2463,763L2449,804L2442,831L2442,893L2442,865L2442,920L2442,941L2449,961L2449,975L2449,995L2449,1009L2449,1016L2449,1030L2456,1050L2456,1057L2463,1084L2463,1071L2463,1077L2463,1091L2470,1098L2470,1105L2470,1119L2470,1125L2470,1139L2470,1146L2470,1160L2470,1173L2470,1187L2470,1194L2470,1207L2470,1221L2470,1228L2470,1242L2470,1248L2470,1262L2470,1269L2470,1283L2470,1290L2470,1324L2470,1310L2470,1303L2470,1337L2476,1365L2476,1351L2476,1378L2476,1399L2476,1413L2476,1440L2476,1426L2476,1454L2476,1488L2476,1467L2476,1481L2476,1502L2476,1508L2476,1529L2476,1515L2470,1536L2470,1543L2470,1549L2470,1563L2463,1570L2463,1584L2463,1591L2463,1597L2463,1604L2463,1611L2463,1618L2463,1625L2463,1632L2463,1645" fill="none" stroke="#000000" style="-webkit-tap-highlight-color: rgba(0, 0, 0, 0); stroke-linecap: round; stroke-linejoin: round; stroke-width: 19;" /><path d="M2463,1673L2463,1666L2463,1652L2463,1686L2463,1700L2463,1693L2463,1714L2463,1727L2463,1734L2470,1762L2463,1748" fill="none" stroke="#000000" style="-webkit-tap-highlight-color: rgba(0, 0, 0, 0); stroke-linecap: round; stroke-linejoin: round; stroke-width: 19;" /><path d="M2667.99,838.02" fill="none" stroke="#000000" style="-webkit-tap-highlight-color: rgba(0, 0, 0, 0); stroke-linecap: round; stroke-linejoin: round; stroke-width: 19;" /><path d="M2470,1775L2476,1782L2476,1803L2476,1796L2483,1809L2483,1823L2483,1816L2490,1823L2490,1830L2497,1844L2497,1837L2497,1844L2497,1850L2501,1820L2507,1812" fill="none" stroke="#000000" style="-webkit-tap-highlight-color: rgba(0, 0, 0, 0); stroke-linecap: round; stroke-linejoin: round; stroke-width: 19;" /><path d="M2668,831L2661,824L2661,831L2661,838L2661,845L2661,852L2661,872L2661,859L2661,886L2661,900L2661,913L2661,934L2661,927L2647,975L2654,961L2647,982L2641,1009L2627,1050L2634,1030L2627,1064L2620,1084L2620,1112L2620,1098L2627,1146L2627,1132L2627,1160L2634,1180L2634,1194L2634,1207L2634,1221L2641,1235L2641,1242L2641,1255L2647,1269L2647,1283L2647,1303L2647,1290L2647,1317L2647,1331L2654,1344L2654,1351L2654,1365L2661,1378L2661,1385L2661,1392L2661,1406L2661,1420L2661,1433L2661,1447L2661,1461L2661,1467L2661,1481L2661,1495L2661,1508L2661,1502L2661,1515L2668,1522L2668,1536L2668,1543L2668,1529" fill="none" stroke="#000000" style="-webkit-tap-highlight-color: rgba(0, 0, 0, 0); stroke-linecap: round; stroke-linejoin: round; stroke-width: 19;" /><path d="M2668,1549L2668,1563L2668,1570L2668,1556L2668,1577L2668,1591L2668,1597L2668,1611L2668,1618L2668,1625L2668,1638L2668,1645L2668,1679L2668,1666L2668,1659L2668,1693" fill="none" stroke="#000000" style="-webkit-tap-highlight-color: rgba(0, 0, 0, 0); stroke-linecap: round; stroke-linejoin: round; stroke-width: 19;" /><path d="M2777.44,1043.25" fill="none" stroke="#000000" style="-webkit-tap-highlight-color: rgba(0, 0, 0, 0); stroke-linecap: round; stroke-linejoin: round; stroke-width: 19;" /><path d="M2668,1741L2668,1721L2668,1734L2668,1707L2661,1762L2668,1755L2654,1775L2661,1768L2654,1789L2654,1796L2654,1803L2654,1809L2661,1816L2654,1816L2661,1823L2661,1830L2668,1837L2668,1844L2675,1844L2680,1859L2682,1858L2680,1859L2675,1865L2689,1844" fill="none" stroke="#000000" style="-webkit-tap-highlight-color: rgba(0, 0, 0, 0); stroke-linecap: round; stroke-linejoin: round; stroke-width: 19;" /><path d="M2771,1043L2764,1043L2771,1043L2771,1050L2771,1057L2771,1077L2771,1098L2771,1112L2771,1132L2779,1164L2771,1146L2764,1166L2764,1180L2764,1187L2764,1194L2764,1201L2764,1207L2764,1214L2771,1221L2771,1235L2771,1228L2771,1255L2771,1242L2771,1262L2771,1269L2771,1276L2771,1290L2771,1310L2771,1303L2771,1324L2771,1331L2771,1344L2771,1351L2777,1365L2777,1385L2777,1392L2777,1372L2784,1399L2784,1413L2791,1433L2791,1420L2791,1440L2791,1454L2791,1461L2791,1467L2791,1481L2791,1495L2791,1488L2791,1502L2791,1515L2791,1529L2791,1522L2791,1536L2784,1543L2784,1556L2784,1563L2784,1570L2777,1577L2777,1584L2777,1591L2777,1597L2777,1604L2777,1611L2777,1618L2777,1625L2777,1632L2784,1638L2784,1645L2784,1652L2791,1652L2791,1659L2791,1666L2791,1673L2791,1679L2791,1686L2791,1693L2791,1700L2791,1707L2791,1721L2791,1727L2784,1734L2784,1762L2784,1748L2784,1755L2784,1768" fill="none" stroke="#000000" style="-webkit-tap-highlight-color: rgba(0, 0, 0, 0); stroke-linecap: round; stroke-linejoin: round; stroke-width: 19;" /><path d="M2784,1782L2784,1775L2784,1789L2784,1796L2784,1803L2791,1809L2784,1809L2791,1816L2798,1816L2798,1823L2805,1823L2805,1830L2804.81,1843.65L2805,1837L2812,1844L2812,1850L2812,1857L2812,1864L2812,1871L2812,1878L2812,1885L2812,1892L2818,1905L2818,1898L2825,1912L2825,1919L2832,1939L2832,1919L2832,1933L2832,1926L2805,1823L2839,1946L2805,1830L2798,1823L2798,1830L2805,1823L2812,1816L2818,1809L2825,1803L2839,1796L2832,1796L2846,1789L2846,1782L2853,1775L2860,1775L2866,1768L2880,1762L2873,1768L2887,1762L2894,1755L2901,1755L2907,1748L2901,1748L2914,1748L2914,1741L2921,1741L2928,1727L2921,1734L2928,1721L2928,1707L2928,1714L2928,1693L2935,1686L2935,1673L2935,1679L2942,1666L2942,1652L2948,1645L2948,1638L2948,1632L2942,1625L2948,1618L2942,1618" fill="none" stroke="#000000" style="-webkit-tap-highlight-color: rgba(0, 0, 0, 0); stroke-linecap: round; stroke-linejoin: round; stroke-width: 19;" /><path d="M2955,1618L2962,1618L2976,1618L2969,1618L2990,1618L2983,1618L2990,1625L2990,1638L2990,1652L2983,1673L2969,1707L2976,1693L2962,1727L2962,1721L2969,1727L2976,1721L2969,1721L3098.97,1713.67L3078,1714L3092,1714L3072,1714L3058,1721L3037,1721L3051,1721L3031,1721L3017,1721L3010,1721L3031,1721L3037,1721L3051,1714L3065,1714L3072,1707L3085,1707L3085,1700L3092,1700L3092,1693L3085,1693L3078,1693L3078,1686L3085,1686L3085,1679L3099,1679L3106,1673L3119,1666L3133,1666L3154,1659L3167,1659L3161,1659L3174,1652L3181,1652L3188,1652L3195,1652L3202,1652L3208,1645L3215,1645L3222,1645L3229,1645L3236,1638L3243,1638L3249,1638L3256,1632L3263,1632L3270,1632L3277,1632L3284,1632L3291,1632L3297,1632L3311,1632L3304,1632L3325,1625L3318,1632L3332,1625L3338,1625L3345,1618L3366,1618L3352,1618L3359,1618L3393,1611L3379,1618L3386,1611L3400,1611" fill="none" stroke="#000000" style="-webkit-tap-highlight-color: rgba(0, 0, 0, 0); stroke-linecap: round; stroke-linejoin: round; stroke-width: 19;" /><path d="M3407,1611L3420,1611L3427,1611L3434,1611L3434,1618L3427,1618L3468.38,1597.37L3458,1588L3455,1583L3451,1580L3448,1578L3451,1580L3458,1584L3482,1584L3489,1591L3509,1597L3523,1597L3537,1604L3559,1610L3559,1610L3571,1602L3585,1604L3605,1604L3612,1604L3592,1604L3619,1604L3639,1604L3633,1604L3626,1604L3646,1604L3653,1604L3660,1604L3667,1604L3674,1604L3680,1604L3694,1604L3687,1604L3708,1604L3721,1604L3715,1604L3728,1604L3742,1604" fill="none" stroke="#000000" style="-webkit-tap-highlight-color: rgba(0, 0, 0, 0); stroke-linecap: round; stroke-linejoin: round; stroke-width: 19;" /><path d="M3749,1604L3756,1611L3769,1611L3780,1628L3872,1604.21" fill="none" stroke="#000000" style="-webkit-tap-highlight-color: rgba(0, 0, 0, 0); stroke-linecap: round; stroke-linejoin: round; stroke-width: 19;" /><path d="M3786,1625L3805,1620L3792,1623L3810,1620L3824,1618L3831,1618L3838,1618L3846,1617L3848,1617L3858,1604L3865,1604L3872,1604" fill="none" stroke="#000000" style="-webkit-tap-highlight-color: rgba(0, 0, 0, 0); stroke-linecap: round; stroke-linejoin: round; stroke-width: 19;" /><path d="M1409.24,646.47L1402,646L1388,652L1385,646L1388,652L1388,653L1402,653L1409,653L1416,653L1423,653L1437,646L1457,640L1471,633L1488,625L1491,622L1497,618L1503,610L1507,607L1498,592L1514,599L1505,585L1529,576L1512,578L1524,582L1530,573L1546,558L1532,573L1539,558L1553,558L1560,551L1553,551L1567,551L1573,544L1580,544L1587,544L1598,554L1607,553L1605,553L1612,554L1621,537L1628,537L1635,537L1642,537L1649,537L1656,537L1662,537L1676,537L1669,537L1683,537L1690,537L1697,544L1696,560L1699,561L1710,566L1713,568L1712,567L1731,558L1738,564L1744,564L1744,571L1744,578L1736,595L1736,595L1740,606L1737,599L1741,612L1743,619L1746,624L1749,632L1749,639L1750,643L1754,653L1754,660L1755,673L1754,667L1754,667L1753,675L1772,694L1765,694L1765,688L1772,701" fill="none" stroke="#000000" style="-webkit-tap-highlight-color: rgba(0, 0, 0, 0); stroke-linecap: round; stroke-linejoin: round; stroke-width: 19;" /><path d="M1779,701L1785,701L1789,688L1799,684L1827,692L1820,692L1820,692L1827,708" fill="none" stroke="#000000" style="-webkit-tap-highlight-color: rgba(0, 0, 0, 0); stroke-linecap: round; stroke-linejoin: round; stroke-width: 19;" /><path d="M2100.18,1871.01L2107,1871L2114,1871L2128,1864L2155,1857L2182,1850L2210,1844L2264,1837L2237,1844L2285,1837L2312,1837L2346,1837L2333,1837L2374,1844L2388,1850L2415,1850L2401,1850L2435,1850L2449,1850L2463,1850L2483,1850L2497,1850L2534,1848L2517,1850L2541,1856L2538,1856L2541,1856L2565,1864L2593,1866L2572,1864L2643,1867L2609,1861L2627,1857L2598,1862L2664,1863L2649,1865" fill="none" stroke="#000000" style="-webkit-tap-highlight-color: rgba(0, 0, 0, 0); stroke-linecap: round; stroke-linejoin: round; stroke-width: 19;" /><path d="M2654,1864L2668,1863L2680,1859L2682,1858L2691,1857L2682,1858L2697,1855L2702,1855L2709,1844L2716,1844L2708,1858" fill="none" stroke="#000000" style="-webkit-tap-highlight-color: rgba(0, 0, 0, 0); stroke-linecap: round; stroke-linejoin: round; stroke-width: 19;" /><path d="M41.05,1652.1L41,1638L34,1625L55,1632L41,1632L68,1632L82,1632L89,1632L116,1625L151,1625L178,1618L205,1618L226,1618L246,1618L274,1618L294,1618L328,1618L315,1618L342,1618L369,1618L363,1618L356,1618L383,1611L390,1611L417,1597L404,1604L431,1591L445,1577L438,1584L452,1570L452,1556L452,1515L452,1536L452,1549L458,1502L458,1488L465,1481L486,1474L472,1474L499,1474L547,1474L575,1474L520,1474L595,1474L643,1474L623,1474L670,1474L698,1474L732,1481L766,1488L787,1502L814,1508L882,1522L835,1508L862,1515L910,1529L951,1529L971,1529L930,1529" fill="none" stroke="#000000" style="-webkit-tap-highlight-color: rgba(0, 0, 0, 0); stroke-linecap: round; stroke-linejoin: round; stroke-width: 19;" /></svg>