<?xml version="1.0" encoding="utf-8" ?>
<svg baseProfile="full" height="2592" version="1.1" width="3872" xmlns="http://www.w3.org/2000/svg" xmlns:ev="http://www.w3.org/2001/xml-events" xmlns:xlink="http://www.w3.org/1999/xlink"><defs /><path d="M903.01,10.26L896.17,10.26L896.17,3.42L889.33,3.42" fill="none" stroke="#000000" style="-webkit-tap-highlight-color: rgba(0, 0, 0, 0); stroke-linecap: round; stroke-linejoin: round; stroke-width: 19;" /><path d="M889.33,3.42L896.17,10.26L896.17,23.94L903.01,37.63L909.85,44.47L923.53,58.15L937.22,71.83L950.9,85.51L964.58,92.35L978.26,106.04L985.1,112.88L991.94,119.72L998.78,126.56L1005.63,133.4L1012.47,140.24L1012.47,147.08L1019.31,153.92L1019.31,160.76L1026.15,160.76L1026.15,167.6L1032.99,174.45L1039.83,174.45L1046.67,181.29L1053.51,181.29L1060.35,188.13L1074.04,188.13L1074.04,194.97L1087.72,194.97L1094.56,201.81L1101.4,208.65L1108.24,215.49L1115.08,215.49L1121.92,222.33L1128.76,229.17L1135.6,236.01L1142.45,242.86L1149.29,249.7L1156.13,256.54L1162.97,263.38L1169.81,277.06L1183.49,283.9L1190.33,297.58L1197.17,304.42L1210.86,318.11L1217.7,324.95L1224.54,338.63L1231.38,345.47L1238.22,359.15L1238.22,372.83L1245.06,386.52L1251.9,400.2L1258.74,420.72L1265.58,434.4L1272.42,441.24L1279.27,454.93L1286.11,468.61L1292.95,482.29L1299.79,495.97L1306.63,509.65L1306.63,516.49L1313.47,523.34L1313.47,530.18L1320.31,537.02L1327.15,550.7L1327.15,557.54L1340.83,578.06L1347.67,584.9L1347.67,598.59L1354.52,605.43L1361.36,612.27L1368.2,619.11L1375.04,625.95L1381.88,632.79L1388.72,639.63L1395.56,646.47L1402.4,653.31L1416.08,660.16L1422.93,667L1429.77,673.84L1436.61,673.84L1443.45,680.68L1450.29,680.68L1457.13,680.68L1463.97,680.68L1463.97,673.84L1470.81,667L1477.65,660.16L1484.49,653.31L1491.34,646.47L1498.18,632.79L1505.02,625.95L1511.86,619.11L1518.7,612.27L1525.54,612.27L1532.38,605.43L1539.22,605.43L1539.22,598.59L1539.22,591.75L1539.22,584.9L1539.22,578.06L1539.22,571.22L1546.06,564.38L1546.06,557.54L1552.9,557.54L1559.75,550.7L1566.59,550.7L1573.43,550.7L1587.11,550.7L1600.79,550.7L1614.47,557.54L1621.31,557.54L1635,571.22L1641.84,578.06L1648.68,584.9L1655.52,591.75L1662.36,598.59L1669.2,605.43L1676.04,612.27L1682.88,619.11L1689.72,632.79L1696.57,639.63L1703.41,646.47L1710.25,653.31L1717.09,660.16L1717.09,673.84L1723.93,680.68L1730.77,687.52L1737.61,687.52L1744.45,680.68L1751.29,673.84L1758.13,667L1758.13,660.16L1764.98,660.16L1771.82,660.16L1778.66,660.16L1785.5,667L1799.18,673.84L1806.02,680.68L1819.7,680.68L1826.54,687.52L1833.39,687.52L1840.23,680.68L1847.07,673.84L1847.07,667L1847.07,653.31L1847.07,639.63L1847.07,625.95L1847.07,605.43L1847.07,598.59L1847.07,591.75L1853.91,584.9L1860.75,578.06L1867.59,571.22L1874.43,571.22L1881.27,564.38L1888.11,564.38L1894.95,557.54L1894.95,550.7L1901.8,550.7L1908.64,543.86L1915.48,543.86L1922.32,543.86L1929.16,537.02L1936,537.02L1949.68,537.02L1956.52,537.02" fill="none" stroke="#000000" style="-webkit-tap-highlight-color: rgba(0, 0, 0, 0); stroke-linecap: round; stroke-linejoin: round; stroke-width: 19;" /><path d="M1915.48,564.38L1915.48,557.54L1915.48,550.7L1908.64,543.86L1908.64,537.02L1908.64,530.18L1908.64,523.34L1915.48,523.34L1929.16,523.34L1942.84,523.34L1963.36,516.49L1990.73,509.65L2011.25,502.81L2038.61,502.81L2059.14,495.97L2079.66,495.97L2100.18,502.81L2113.87,502.81L2134.39,509.65L2148.07,516.49L2168.59,523.34L2182.28,523.34L2195.96,530.18L2209.64,537.02L2223.32,543.86L2237,550.7L2250.69,550.7L2264.37,557.54L2271.21,564.38L2284.89,571.22L2291.73,571.22L2305.41,578.06L2312.25,584.9L2319.1,584.9L2325.94,584.9L2332.78,591.75L2339.62,591.75L2346.46,591.75L2360.14,591.75L2366.98,591.75L2380.66,591.75L2387.51,591.75L2401.19,591.75L2408.03,591.75L2421.71,598.59L2435.39,605.43L2442.23,619.11L2449.07,639.63L2455.92,653.31L2462.76,667L2476.44,680.68L2483.28,687.52L2490.12,701.2L2496.96,708.04L2503.8,714.88L2510.64,721.72L2517.48,728.57L2524.33,735.41L2531.17,742.25L2538.01,742.25L2544.85,749.09L2551.69,749.09L2558.53,749.09L2565.37,755.93L2572.21,755.93L2579.05,755.93L2592.73,755.93L2599.58,755.93L2606.42,755.93L2620.1,755.93L2626.94,755.93L2640.62,755.93L2647.46,755.93L2661.14,755.93L2667.99,755.93L2681.67,755.93L2695.35,755.93L2702.19,755.93L2715.87,762.77L2722.71,769.61L2736.4,776.45L2743.24,783.29L2750.08,790.13L2756.92,803.82L2763.76,810.66L2763.76,817.5L2770.6,831.18L2777.44,838.02L2777.44,844.86L2784.28,851.7L2784.28,858.54L2791.12,865.39L2791.12,872.23L2791.12,879.07L2791.12,885.91L2791.12,892.75L2791.12,899.59L2791.12,906.43L2791.12,913.27L2791.12,920.11L2791.12,933.8L2791.12,940.64L2791.12,947.48L2784.28,954.32L2784.28,961.16L2784.28,968L2784.28,981.68L2784.28,988.52L2784.28,995.36L2784.28,1002.2L2791.12,1009.05L2797.96,1015.89L2797.96,1022.73L2804.81,1022.73L2804.81,1029.57L2811.65,1036.41L2818.49,1036.41L2825.33,1036.41L2825.33,1043.25L2832.17,1043.25L2839.01,1043.25L2845.85,1050.09L2852.69,1050.09L2859.53,1056.93L2866.37,1063.77L2873.22,1070.61L2880.06,1077.46L2893.74,1091.14L2900.58,1097.98L2907.42,1111.66L2914.26,1111.66L2921.1,1125.34L2927.94,1132.18L2934.78,1139.02L2941.63,1139.02L2948.47,1139.02L2955.31,1132.18L2962.15,1125.34L2968.99,1125.34L2975.83,1118.5L2982.67,1118.5L2996.35,1111.66L3003.19,1111.66L3010.04,1111.66L3016.88,1111.66L3023.72,1111.66L3030.56,1118.5L3044.24,1125.34L3051.08,1125.34L3057.92,1132.18L3057.92,1139.02L3064.76,1145.87L3071.6,1159.55L3078.45,1159.55L3085.29,1166.39L3092.13,1180.07L3092.13,1186.91L3098.97,1193.75L3105.81,1200.59L3112.65,1214.28L3119.49,1221.12L3126.33,1227.96L3133.17,1234.8L3140.01,1241.64L3153.7,1255.32L3160.54,1262.16L3167.38,1275.84L3181.06,1282.69L3187.9,1296.37L3201.58,1310.05L3215.27,1316.89L3222.11,1330.57L3235.79,1337.41L3249.47,1344.25L3263.15,1351.1L3276.83,1357.94L3290.52,1364.78L3297.36,1371.62L3311.04,1385.3L3324.72,1392.14L3338.4,1398.98L3352.08,1412.66L3365.77,1419.51L3372.61,1433.19L3386.29,1446.87L3393.13,1460.55L3399.97,1467.39L3406.81,1474.23L3413.65,1481.07L3413.65,1494.76L3420.49,1501.6L3427.34,1515.28L3427.34,1522.12L3434.18,1535.8L3434.18,1549.48L3441.02,1563.17L3447.86,1576.85L3447.86,1590.53L3454.7,1611.05L3461.54,1624.73L3468.38,1631.58L3475.22,1645.26L3482.06,1652.1L3482.06,1658.94L3488.9,1658.94L3488.9,1652.1L3488.9,1631.58L3488.9,1624.73" fill="none" stroke="#000000" style="-webkit-tap-highlight-color: rgba(0, 0, 0, 0); stroke-linecap: round; stroke-linejoin: round; stroke-width: 19;" /><path d="M3365.77,1344.25L3365.77,1351.1L3365.77,1357.94L3365.77,1371.62L3358.93,1378.46L3358.93,1392.14L3358.93,1405.82L3358.93,1412.66L3352.08,1412.66L3352.08,1405.82L3358.93,1398.98L3365.77,1392.14L3379.45,1392.14L3393.13,1385.3L3413.65,1378.46L3434.18,1378.46L3454.7,1378.46L3468.38,1378.46L3482.06,1378.46L3488.9,1371.62L3502.59,1371.62L3516.27,1371.62L3523.11,1371.62L3536.79,1371.62L3550.47,1371.62L3557.31,1371.62L3571,1371.62L3577.84,1371.62L3591.52,1371.62L3605.2,1371.62L3612.04,1371.62L3625.72,1371.62L3639.41,1371.62L3646.25,1371.62L3659.93,1371.62L3673.61,1364.78L3680.45,1364.78L3687.29,1357.94L3694.13,1357.94L3700.98,1357.94L3707.82,1357.94L3714.66,1351.1L3721.5,1351.1L3735.18,1351.1L3742.02,1351.1L3748.86,1351.1L3762.54,1351.1L3776.23,1351.1L3789.91,1357.94L3803.59,1357.94L3817.27,1357.94L3824.11,1357.94L3830.95,1357.94L3837.8,1357.94L3837.8,1364.78L3824.11,1378.46" fill="none" stroke="#000000" style="-webkit-tap-highlight-color: rgba(0, 0, 0, 0); stroke-linecap: round; stroke-linejoin: round; stroke-width: 19;" /><path d="M3571,1590.53L3571,1597.37L3564.16,1604.21L3564.16,1611.05L3557.31,1617.89L3550.47,1624.73L3543.63,1631.58L3536.79,1624.73L3536.79,1617.89L3529.95,1611.05L3529.95,1597.37L3529.95,1583.69L3529.95,1576.85L3529.95,1563.17L3529.95,1542.64L3529.95,1522.12L3536.79,1508.44L3543.63,1494.76L3550.47,1481.07L3564.16,1467.39L3571,1460.55L3577.84,1446.87L3584.68,1433.19L3591.52,1426.35L3598.36,1419.51L3612.04,1405.82L3618.88,1405.82L3625.72,1405.82L3632.57,1405.82L3639.41,1412.66L3653.09,1426.35L3659.93,1440.03L3666.77,1460.55L3673.61,1481.07L3673.61,1501.6L3680.45,1522.12L3687.29,1535.8L3687.29,1542.64L3694.13,1556.33L3700.98,1563.17L3700.98,1570.01L3700.98,1583.69L3707.82,1590.53L3707.82,1597.37L3707.82,1604.21L3707.82,1611.05L3707.82,1617.89L3707.82,1624.73L3714.66,1624.73" fill="none" stroke="#000000" style="-webkit-tap-highlight-color: rgba(0, 0, 0, 0); stroke-linecap: round; stroke-linejoin: round; stroke-width: 19;" /><path d="M3776.23,1611.05L3776.23,1617.89L3776.23,1624.73L3769.39,1624.73L3769.39,1617.89L3769.39,1604.21L3769.39,1583.69L3762.54,1563.17L3762.54,1535.8L3755.7,1508.44L3748.86,1487.92L3742.02,1467.39L3742.02,1453.71L3742.02,1446.87L3742.02,1433.19L3742.02,1426.35L3748.86,1426.35L3748.86,1419.51L3755.7,1419.51L3762.54,1412.66L3769.39,1405.82L3776.23,1405.82L3783.07,1398.98L3803.59,1398.98L3810.43,1398.98L3824.11,1405.82L3830.95,1426.35L3837.8,1440.03L3844.64,1460.55L3851.48,1481.07L3858.32,1494.76L3858.32,1501.6L3858.32,1508.44L3858.32,1501.6" fill="none" stroke="#000000" style="-webkit-tap-highlight-color: rgba(0, 0, 0, 0); stroke-linecap: round; stroke-linejoin: round; stroke-width: 19;" /><path d="M34.2,2055.72L27.36,2055.72L20.52,2055.72L20.52,2062.56L20.52,2069.4L27.36,2069.4L47.89,2069.4L75.25,2076.24L102.61,2076.24L136.82,2076.24L171.02,2069.4L212.07,2055.72L239.43,2042.04L266.8,2035.19L280.48,2021.51L294.16,2014.67L301,2000.99L314.69,1987.31L328.37,1980.47L348.89,1973.63L369.41,1966.78L383.1,1959.94L396.78,1953.1L403.62,1953.1L410.46,1946.26L417.3,1939.42L430.98,1939.42L444.66,1932.58L458.35,1932.58L472.03,1932.58L492.55,1925.74L506.23,1925.74L513.07,1925.74L533.6,1918.9L560.96,1918.9L581.48,1918.9L595.17,1918.9L615.69,1925.74L629.37,1946.26L629.37,1959.94" fill="none" stroke="#000000" style="-webkit-tap-highlight-color: rgba(0, 0, 0, 0); stroke-linecap: round; stroke-linejoin: round; stroke-width: 19;" /><path d="M410.46,1959.94L417.3,1959.94L430.98,1953.1L444.66,1946.26L451.51,1946.26L465.19,1932.58L492.55,1918.9L513.07,1905.22L533.6,1898.37L554.12,1891.53L560.96,1891.53L574.64,1891.53L581.48,1891.53L588.33,1891.53L595.17,1891.53L602.01,1891.53L615.69,1891.53L622.53,1891.53L629.37,1891.53L636.21,1891.53L636.21,1884.69L643.05,1884.69L649.89,1884.69L656.73,1884.69L656.73,1877.85L663.58,1877.85L670.42,1877.85L677.26,1871.01L684.1,1871.01L690.94,1871.01L690.94,1864.17L697.78,1864.17L704.62,1857.33L711.46,1850.49L718.3,1850.49L725.14,1843.65L731.99,1836.81L738.83,1829.96L752.51,1823.12L759.35,1816.28L766.19,1809.44L779.87,1809.44L779.87,1802.6L793.55,1802.6L800.4,1802.6L807.24,1802.6L814.08,1802.6L820.92,1809.44L827.76,1816.28L834.6,1816.28L841.44,1823.12L841.44,1829.96L848.28,1829.96L855.12,1836.81L855.12,1843.65L861.96,1843.65L868.81,1850.49L875.65,1857.33L882.49,1857.33L889.33,1857.33L896.17,1857.33L903.01,1857.33L909.85,1857.33L916.69,1857.33L923.53,1857.33L930.37,1850.49L937.22,1850.49L944.06,1843.65L950.9,1843.65L957.74,1836.81L964.58,1829.96L978.26,1829.96L985.1,1823.12L991.94,1823.12L998.78,1823.12L1005.63,1823.12L1012.47,1823.12L1019.31,1823.12L1026.15,1823.12L1032.99,1823.12L1039.83,1823.12L1046.67,1823.12L1053.51,1823.12L1060.35,1823.12L1067.19,1823.12L1067.19,1829.96L1074.04,1829.96L1080.88,1829.96L1087.72,1829.96L1094.56,1829.96L1101.4,1829.96L1108.24,1829.96L1115.08,1829.96L1121.92,1829.96L1128.76,1823.12L1135.6,1823.12L1142.45,1823.12L1149.29,1823.12L1156.13,1823.12L1162.97,1823.12L1169.81,1816.28L1176.65,1816.28L1183.49,1816.28L1190.33,1816.28L1197.17,1816.28L1204.01,1816.28L1210.86,1816.28L1217.7,1816.28L1224.54,1823.12L1231.38,1823.12L1238.22,1823.12L1245.06,1823.12L1251.9,1823.12L1258.74,1823.12L1265.58,1823.12L1272.42,1823.12L1279.27,1816.28L1286.11,1816.28L1292.95,1816.28L1292.95,1809.44L1299.79,1809.44L1306.63,1802.6L1313.47,1795.76L1320.31,1795.76L1327.15,1788.92L1333.99,1782.08L1340.83,1782.08L1347.67,1775.24L1354.52,1775.24L1361.36,1775.24L1368.2,1775.24L1375.04,1775.24L1381.88,1775.24L1388.72,1775.24L1395.56,1775.24L1402.4,1775.24L1409.24,1782.08L1416.08,1782.08L1422.93,1782.08L1429.77,1782.08L1436.61,1782.08L1443.45,1782.08L1450.29,1775.24L1457.13,1775.24L1463.97,1768.4L1470.81,1768.4L1477.65,1768.4L1477.65,1761.55L1484.49,1761.55L1491.34,1754.71L1498.18,1754.71L1505.02,1754.71L1505.02,1747.87L1511.86,1747.87L1518.7,1747.87L1518.7,1741.03L1525.54,1741.03L1532.38,1734.19L1539.22,1727.35L1546.06,1727.35L1546.06,1720.51L1552.9,1720.51L1559.75,1713.67L1566.59,1713.67L1573.43,1713.67L1580.27,1713.67L1587.11,1713.67L1593.95,1706.83L1600.79,1706.83L1607.63,1706.83L1614.47,1713.67L1621.31,1713.67L1628.16,1713.67L1628.16,1720.51L1635,1727.35L1641.84,1734.19L1648.68,1741.03L1655.52,1741.03L1655.52,1747.87L1662.36,1754.71L1669.2,1768.4L1669.2,1775.24L1676.04,1775.24L1682.88,1782.08L1689.72,1782.08L1689.72,1788.92L1696.57,1788.92L1703.41,1788.92L1703.41,1782.08L1710.25,1782.08L1717.09,1775.24L1723.93,1775.24L1730.77,1768.4L1737.61,1761.55L1744.45,1761.55L1744.45,1754.71L1751.29,1747.87L1758.13,1741.03L1764.98,1741.03L1771.82,1734.19L1778.66,1727.35L1785.5,1727.35L1792.34,1720.51L1799.18,1720.51L1812.86,1720.51L1819.7,1720.51L1826.54,1720.51L1833.39,1713.67L1840.23,1713.67L1847.07,1713.67L1853.91,1713.67L1860.75,1713.67L1867.59,1713.67L1874.43,1713.67L1881.27,1713.67L1888.11,1713.67L1894.95,1720.51L1894.95,1727.35L1901.8,1734.19L1901.8,1741.03L1908.64,1741.03L1908.64,1747.87L1915.48,1754.71L1922.32,1768.4L1929.16,1782.08L1929.16,1788.92L1936,1788.92L1936,1795.76L1942.84,1802.6L1949.68,1802.6L1949.68,1809.44L1956.52,1809.44L1963.36,1809.44L1963.36,1816.28L1970.2,1816.28L1977.05,1823.12L1983.89,1823.12L1983.89,1829.96L1990.73,1829.96L1997.57,1829.96L1997.57,1836.81L2004.41,1836.81L2011.25,1843.65L2018.09,1843.65L2024.93,1843.65L2031.77,1843.65L2038.61,1843.65L2045.46,1843.65L2052.3,1843.65L2059.14,1843.65L2065.98,1843.65L2072.82,1843.65L2079.66,1836.81L2086.5,1836.81L2093.34,1836.81L2100.18,1836.81L2113.87,1829.96L2120.71,1829.96L2127.55,1829.96L2134.39,1829.96L2134.39,1836.81L2141.23,1836.81L2148.07,1843.65L2154.91,1843.65L2161.75,1850.49L2168.59,1850.49L2175.43,1857.33L2182.28,1857.33L2182.28,1864.17L2189.12,1864.17L2195.96,1864.17L2202.8,1864.17L2209.64,1864.17L2216.48,1864.17L2223.32,1864.17L2230.16,1864.17L2237,1864.17L2243.84,1864.17L2250.69,1864.17L2257.53,1864.17L2264.37,1864.17L2271.21,1864.17L2278.05,1864.17L2278.05,1857.33L2284.89,1857.33L2291.73,1857.33L2298.57,1850.49L2291.73,1857.33L2284.89,1857.33L2284.89,1864.17L2278.05,1864.17" fill="none" stroke="#000000" style="-webkit-tap-highlight-color: rgba(0, 0, 0, 0); stroke-linecap: round; stroke-linejoin: round; stroke-width: 19;" /><path d="M2305.41,1829.96L2305.41,1836.81L2298.57,1836.81L2298.57,1843.65L2291.73,1843.65L2284.89,1843.65L2284.89,1850.49L2278.05,1850.49L2271.21,1843.65L2271.21,1836.81L2264.37,1829.96L2264.37,1823.12L2264.37,1816.28L2264.37,1809.44L2271.21,1795.76L2271.21,1788.92L2278.05,1775.24L2278.05,1768.4L2278.05,1761.55L2278.05,1754.71L2278.05,1747.87L2278.05,1741.03L2278.05,1734.19L2278.05,1727.35L2278.05,1720.51L2278.05,1713.67L2278.05,1706.83L2278.05,1699.99L2278.05,1693.14L2278.05,1686.3L2278.05,1679.46L2278.05,1672.62L2278.05,1665.78L2278.05,1658.94L2278.05,1652.1L2278.05,1645.26L2284.89,1645.26L2284.89,1638.42L2284.89,1631.58L2284.89,1624.73L2284.89,1617.89L2284.89,1611.05L2284.89,1604.21L2291.73,1597.37L2291.73,1590.53L2291.73,1583.69L2291.73,1576.85L2298.57,1570.01L2298.57,1563.17L2298.57,1556.33L2298.57,1549.48L2305.41,1549.48L2305.41,1542.64L2312.25,1542.64L2312.25,1535.8L2319.1,1535.8L2325.94,1535.8L2339.62,1535.8L2339.62,1542.64L2346.46,1542.64L2360.14,1563.17L2366.98,1570.01L2373.82,1576.85L2373.82,1583.69L2380.66,1590.53L2380.66,1604.21L2380.66,1617.89L2387.51,1638.42L2387.51,1652.1L2380.66,1665.78L2380.66,1679.46L2373.82,1693.14L2373.82,1706.83L2366.98,1713.67L2366.98,1727.35L2366.98,1734.19L2360.14,1747.87L2360.14,1754.71L2360.14,1761.55L2360.14,1768.4L2360.14,1775.24L2360.14,1782.08L2353.3,1788.92L2353.3,1795.76L2353.3,1802.6L2353.3,1809.44L2353.3,1816.28L2353.3,1823.12L2353.3,1829.96L2353.3,1836.81L2353.3,1843.65L2353.3,1850.49L2353.3,1857.33L2353.3,1864.17L2353.3,1871.01L2360.14,1871.01L2360.14,1877.85L2360.14,1871.01L2360.14,1864.17" fill="none" stroke="#000000" style="-webkit-tap-highlight-color: rgba(0, 0, 0, 0); stroke-linecap: round; stroke-linejoin: round; stroke-width: 19;" /><path d="M2408.03,1877.85L2401.19,1871.01L2394.35,1871.01L2394.35,1864.17L2387.51,1864.17L2394.35,1864.17L2401.19,1864.17L2408.03,1864.17L2421.71,1864.17L2428.55,1864.17L2435.39,1871.01L2449.07,1871.01L2455.92,1871.01L2462.76,1871.01L2469.6,1871.01L2476.44,1877.85L2490.12,1877.85L2496.96,1877.85L2503.8,1877.85L2510.64,1871.01L2517.48,1871.01L2524.33,1871.01L2524.33,1864.17L2531.17,1857.33L2538.01,1857.33L2544.85,1857.33L2551.69,1857.33L2558.53,1857.33L2565.37,1857.33L2572.21,1857.33L2579.05,1857.33L2585.89,1857.33L2592.73,1857.33L2599.58,1857.33L2606.42,1864.17L2613.26,1871.01L2620.1,1877.85L2626.94,1884.69L2633.78,1884.69L2640.62,1884.69L2647.46,1884.69L2661.14,1877.85L2661.14,1871.01L2667.99,1871.01L2667.99,1864.17L2674.83,1864.17L2674.83,1857.33L2681.67,1857.33L2688.51,1850.49L2695.35,1843.65L2702.19,1843.65L2709.03,1836.81L2715.87,1836.81L2722.71,1836.81L2736.4,1836.81L2743.24,1836.81L2750.08,1836.81L2756.92,1836.81L2763.76,1829.96L2770.6,1829.96L2777.44,1829.96L2784.28,1829.96L2791.12,1829.96L2797.96,1823.12L2804.81,1823.12L2804.81,1816.28L2804.81,1809.44L2811.65,1809.44L2811.65,1802.6L2811.65,1795.76L2811.65,1788.92L2818.49,1788.92L2818.49,1782.08L2818.49,1775.24L2818.49,1768.4L2818.49,1761.55L2818.49,1754.71L2818.49,1747.87L2825.33,1741.03L2825.33,1734.19L2832.17,1734.19L2839.01,1734.19L2852.69,1734.19L2859.53,1734.19L2866.37,1734.19L2873.22,1734.19L2880.06,1734.19L2886.9,1727.35L2893.74,1720.51L2900.58,1720.51L2907.42,1713.67L2914.26,1706.83L2921.1,1706.83L2927.94,1706.83L2934.78,1706.83L2941.63,1713.67L2955.31,1713.67L2962.15,1713.67L2968.99,1720.51L2975.83,1720.51L2982.67,1720.51L2989.51,1720.51L2989.51,1713.67L2996.35,1713.67L3003.19,1713.67L3010.04,1713.67L3016.88,1706.83L3023.72,1706.83L3023.72,1699.99L3030.56,1699.99L3037.4,1693.14L3023.72,1693.14L3010.04,1693.14L2996.35,1699.99L2982.67,1699.99L2975.83,1699.99L2968.99,1699.99" fill="none" stroke="#000000" style="-webkit-tap-highlight-color: rgba(0, 0, 0, 0); stroke-linecap: round; stroke-linejoin: round; stroke-width: 19;" /><path d="M2914.26,1727.35L2914.26,1734.19L2921.1,1734.19L2927.94,1734.19L2927.94,1727.35L2934.78,1720.51L2934.78,1713.67L2934.78,1699.99L2934.78,1693.14L2934.78,1686.3L2934.78,1679.46L2934.78,1672.62L2934.78,1658.94L2934.78,1652.1L2934.78,1645.26L2934.78,1638.42L2934.78,1631.58L2941.63,1624.73L2941.63,1617.89L2948.47,1617.89L2948.47,1611.05L2955.31,1611.05L2962.15,1611.05L2968.99,1624.73L2982.67,1638.42L2982.67,1652.1L2989.51,1672.62L2989.51,1686.3L2989.51,1699.99L2982.67,1713.67L2975.83,1720.51L2975.83,1727.35L2975.83,1720.51L2982.67,1713.67" fill="none" stroke="#000000" style="-webkit-tap-highlight-color: rgba(0, 0, 0, 0); stroke-linecap: round; stroke-linejoin: round; stroke-width: 19;" /><path d="M3051.08,1693.14L3051.08,1699.99L3051.08,1693.14L3044.24,1693.14L3044.24,1686.3L3037.4,1686.3L3037.4,1679.46L3037.4,1672.62L3037.4,1665.78L3037.4,1658.94L3037.4,1652.1L3044.24,1638.42L3044.24,1631.58L3051.08,1617.89L3057.92,1611.05L3057.92,1604.21L3064.76,1604.21L3064.76,1597.37L3071.6,1597.37L3078.45,1611.05L3078.45,1624.73L3085.29,1645.26L3085.29,1665.78L3085.29,1686.3L3085.29,1706.83L3085.29,1713.67L3092.13,1713.67L3092.13,1706.83" fill="none" stroke="#000000" style="-webkit-tap-highlight-color: rgba(0, 0, 0, 0); stroke-linecap: round; stroke-linejoin: round; stroke-width: 19;" /><path d="M3037.4,1713.67L3030.56,1713.67L3037.4,1713.67L3044.24,1713.67L3057.92,1713.67L3071.6,1706.83L3092.13,1706.83L3105.81,1699.99L3119.49,1693.14L3133.17,1686.3L3140.01,1686.3L3146.86,1679.46L3153.7,1679.46L3160.54,1679.46L3167.38,1679.46L3167.38,1672.62L3167.38,1665.78L3160.54,1665.78L3160.54,1658.94L3153.7,1652.1L3146.86,1645.26L3146.86,1638.42L3146.86,1631.58L3146.86,1624.73L3153.7,1624.73L3160.54,1624.73L3174.22,1617.89L3181.06,1617.89L3194.74,1617.89L3208.42,1617.89L3215.27,1624.73L3228.95,1631.58L3235.79,1638.42L3249.47,1638.42L3256.31,1645.26L3263.15,1645.26L3269.99,1645.26L3283.67,1645.26L3297.36,1645.26L3304.2,1645.26L3317.88,1638.42L3338.4,1638.42L3352.08,1638.42L3365.77,1645.26L3379.45,1645.26L3393.13,1652.1L3406.81,1652.1L3413.65,1652.1L3420.49,1652.1L3434.18,1652.1L3441.02,1652.1L3447.86,1645.26L3454.7,1645.26L3461.54,1645.26L3468.38,1638.42L3475.22,1638.42L3461.54,1638.42L3447.86,1638.42" fill="none" stroke="#000000" style="-webkit-tap-highlight-color: rgba(0, 0, 0, 0); stroke-linecap: round; stroke-linejoin: round; stroke-width: 19;" /><path d="M2640.62,755.93L2640.62,749.09L2640.62,742.25L2640.62,735.41L2633.78,735.41L2633.78,728.57L2633.78,735.41L2633.78,742.25L2626.94,749.09L2626.94,762.77L2626.94,776.45L2626.94,796.98L2626.94,810.66L2626.94,831.18L2620.1,851.7L2620.1,872.23L2620.1,892.75L2620.1,906.43L2620.1,926.95L2620.1,947.48L2620.1,961.16L2620.1,981.68L2620.1,995.36L2620.1,1002.2L2620.1,1015.89L2620.1,1029.57L2620.1,1050.09L2620.1,1070.61L2620.1,1084.3L2620.1,1097.98L2626.94,1111.66L2626.94,1118.5L2626.94,1132.18L2633.78,1139.02L2633.78,1152.71L2640.62,1159.55L2647.46,1173.23L2647.46,1186.91L2654.3,1193.75L2654.3,1207.43L2654.3,1214.28L2654.3,1227.96L2654.3,1234.8L2661.14,1248.48L2661.14,1255.32L2661.14,1269L2661.14,1282.69L2661.14,1296.37L2661.14,1310.05L2661.14,1323.73L2654.3,1337.41L2654.3,1351.1L2654.3,1357.94L2654.3,1371.62L2647.46,1385.3L2647.46,1398.98L2647.46,1412.66L2640.62,1426.35L2640.62,1446.87L2640.62,1460.55L2640.62,1474.23L2633.78,1494.76L2633.78,1508.44L2633.78,1522.12L2633.78,1535.8L2633.78,1549.48L2633.78,1563.17L2626.94,1583.69L2626.94,1597.37L2626.94,1611.05L2626.94,1624.73L2626.94,1631.58L2626.94,1645.26L2626.94,1652.1L2626.94,1658.94L2626.94,1672.62L2626.94,1679.46L2626.94,1693.14L2626.94,1699.99L2626.94,1713.67L2633.78,1727.35L2633.78,1734.19L2633.78,1747.87L2633.78,1761.55L2633.78,1768.4L2640.62,1775.24L2640.62,1782.08L2640.62,1788.92L2647.46,1802.6L2654.3,1809.44L2654.3,1795.76L2647.46,1782.08" fill="none" stroke="#000000" style="-webkit-tap-highlight-color: rgba(0, 0, 0, 0); stroke-linecap: round; stroke-linejoin: round; stroke-width: 19;" /><path d="M2756.92,926.95L2763.76,913.27L2770.6,899.59L2777.44,885.91L2777.44,865.39L2777.44,851.7L2777.44,838.02L2777.44,831.18L2770.6,824.34L2763.76,824.34L2756.92,824.34L2756.92,831.18L2750.08,838.02L2743.24,851.7L2736.4,865.39L2736.4,892.75L2729.55,920.11L2729.55,954.32L2722.71,988.52L2722.71,1029.57L2722.71,1063.77L2722.71,1097.98L2715.87,1125.34L2715.87,1152.71L2715.87,1180.07L2715.87,1200.59L2715.87,1221.12L2715.87,1241.64L2715.87,1269L2722.71,1289.53L2722.71,1303.21L2722.71,1316.89L2722.71,1330.57L2729.55,1337.41L2729.55,1351.1L2729.55,1364.78L2736.4,1371.62L2736.4,1385.3L2743.24,1398.98L2743.24,1412.66L2750.08,1419.51L2750.08,1426.35L2756.92,1440.03L2756.92,1446.87L2756.92,1453.71L2756.92,1467.39L2756.92,1481.07L2756.92,1494.76L2763.76,1501.6L2763.76,1515.28L2763.76,1522.12L2763.76,1535.8L2763.76,1542.64L2763.76,1549.48L2763.76,1563.17L2763.76,1570.01L2763.76,1583.69L2763.76,1597.37L2763.76,1604.21L2763.76,1617.89L2763.76,1631.58L2763.76,1638.42L2763.76,1652.1L2756.92,1658.94L2756.92,1672.62L2756.92,1686.3L2756.92,1693.14L2756.92,1706.83L2756.92,1720.51L2756.92,1727.35L2756.92,1741.03L2756.92,1754.71L2756.92,1768.4L2763.76,1782.08L2763.76,1788.92L2763.76,1802.6L2763.76,1809.44L2770.6,1816.28L2770.6,1823.12L2763.76,1829.96L2763.76,1836.81L2763.76,1843.65L2756.92,1843.65L2756.92,1823.12L2750.08,1782.08L2750.08,1741.03" fill="none" stroke="#000000" style="-webkit-tap-highlight-color: rgba(0, 0, 0, 0); stroke-linecap: round; stroke-linejoin: round; stroke-width: 19;" /><path d="M2743.24,1563.17L2736.4,1570.01L2729.55,1576.85L2722.71,1576.85L2715.87,1583.69L2715.87,1590.53L2709.03,1590.53L2702.19,1597.37L2695.35,1611.05L2688.51,1624.73L2688.51,1645.26L2688.51,1665.78L2702.19,1679.46L2715.87,1686.3L2722.71,1686.3L2736.4,1665.78L2736.4,1631.58L2729.55,1604.21L2722.71,1583.69L2709.03,1570.01L2688.51,1570.01L2674.83,1576.85L2661.14,1597.37L2661.14,1604.21" fill="none" stroke="#000000" style="-webkit-tap-highlight-color: rgba(0, 0, 0, 0); stroke-linecap: round; stroke-linejoin: round; stroke-width: 19;" /><path d="M1942.84,550.7L1949.68,550.7L1949.68,543.86L1949.68,537.02L1956.52,537.02L1956.52,530.18L1963.36,530.18L1970.2,537.02L1970.2,550.7L1970.2,571.22L1977.05,591.75L1977.05,619.11L1977.05,646.47L1983.89,673.84L1990.73,701.2L1990.73,721.72L1997.57,742.25L1997.57,755.93L1997.57,776.45L1997.57,790.13L1997.57,803.82L1997.57,817.5L1997.57,824.34L1997.57,838.02L1997.57,858.54L1997.57,872.23L1997.57,885.91L1990.73,899.59L1990.73,913.27L1990.73,920.11L1990.73,933.8L1990.73,947.48L1990.73,954.32L1983.89,968L1983.89,981.68L1983.89,995.36L1983.89,1009.05L1983.89,1022.73L1983.89,1036.41L1983.89,1050.09L1977.05,1070.61L1977.05,1084.3L1977.05,1097.98L1977.05,1111.66L1977.05,1125.34L1977.05,1139.02L1977.05,1152.71L1977.05,1166.39L1983.89,1180.07L1983.89,1193.75L1983.89,1207.43L1983.89,1221.12L1983.89,1234.8L1983.89,1255.32L1990.73,1269L1990.73,1282.69L1990.73,1296.37L1990.73,1310.05L1990.73,1323.73L1990.73,1337.41L1990.73,1351.1L1990.73,1371.62L1990.73,1385.3L1990.73,1398.98L1990.73,1419.51L1990.73,1433.19L1990.73,1440.03L1997.57,1453.71L1997.57,1467.39L1997.57,1487.92L1997.57,1501.6L1997.57,1522.12L1997.57,1535.8L1997.57,1556.33L2004.41,1576.85L2004.41,1597.37L2004.41,1617.89L2011.25,1638.42L2011.25,1658.94L2011.25,1679.46L2011.25,1706.83L2011.25,1727.35L2011.25,1754.71L2011.25,1775.24L2004.41,1802.6L2004.41,1823.12L2004.41,1836.81L2004.41,1843.65L2011.25,1850.49L2011.25,1857.33" fill="none" stroke="#000000" style="-webkit-tap-highlight-color: rgba(0, 0, 0, 0); stroke-linecap: round; stroke-linejoin: round; stroke-width: 19;" /><path d="M1874.43,1741.03L1874.43,1747.87L1874.43,1754.71L1881.27,1741.03L1881.27,1727.35L1888.11,1713.67L1888.11,1699.99L1894.95,1686.3L1894.95,1679.46L1901.8,1665.78L1901.8,1658.94L1908.64,1645.26L1915.48,1638.42L1915.48,1631.58L1922.32,1624.73L1929.16,1617.89L1936,1611.05L1942.84,1604.21L1942.84,1590.53L1949.68,1583.69L1949.68,1570.01L1949.68,1556.33L1949.68,1542.64L1949.68,1528.96L1949.68,1522.12L1949.68,1515.28L1949.68,1508.44L1949.68,1501.6L1942.84,1494.76L1942.84,1487.92L1942.84,1481.07L1936,1474.23L1936,1467.39L1936,1460.55L1936,1446.87L1936,1440.03L1942.84,1426.35L1942.84,1412.66L1949.68,1405.82L1949.68,1392.14L1949.68,1378.46L1956.52,1364.78L1956.52,1351.1L1956.52,1337.41L1956.52,1323.73L1956.52,1303.21L1956.52,1296.37L1956.52,1289.53L1956.52,1275.84L1949.68,1255.32L1949.68,1241.64L1949.68,1227.96L1949.68,1214.28L1949.68,1200.59L1949.68,1186.91L1949.68,1173.23L1949.68,1152.71L1956.52,1139.02L1956.52,1118.5L1956.52,1097.98L1956.52,1077.46L1949.68,1063.77L1949.68,1043.25L1942.84,1029.57L1929.16,1009.05L1922.32,1002.2L1915.48,988.52L1908.64,974.84L1901.8,954.32L1894.95,933.8L1881.27,913.27L1874.43,899.59L1867.59,879.07L1853.91,865.39L1847.07,851.7L1840.23,838.02L1840.23,824.34L1833.39,810.66L1826.54,790.13L1826.54,769.61L1819.7,755.93L1812.86,742.25L1812.86,721.72L1812.86,701.2L1812.86,673.84L1806.02,646.47L1799.18,619.11L1792.34,591.75L1785.5,571.22L1785.5,564.38L1785.5,578.06" fill="none" stroke="#000000" style="-webkit-tap-highlight-color: rgba(0, 0, 0, 0); stroke-linecap: round; stroke-linejoin: round; stroke-width: 19;" /><path d="M1210.86,1501.6L1204.01,1501.6L1197.17,1501.6L1190.33,1508.44L1190.33,1528.96L1190.33,1563.17L1190.33,1590.53L1190.33,1617.89L1197.17,1645.26L1204.01,1658.94L1217.7,1665.78L1238.22,1665.78L1251.9,1658.94L1258.74,1631.58L1258.74,1597.37L1258.74,1563.17L1238.22,1535.8L1217.7,1515.28L1197.17,1508.44L1183.49,1515.28L1176.65,1528.96L1176.65,1542.64L1183.49,1556.33" fill="none" stroke="#000000" style="-webkit-tap-highlight-color: rgba(0, 0, 0, 0); stroke-linecap: round; stroke-linejoin: round; stroke-width: 19;" /><path d="M1416.08,1412.66L1409.24,1412.66L1409.24,1405.82L1402.4,1398.98L1402.4,1412.66L1409.24,1440.03L1416.08,1474.23L1429.77,1515.28L1450.29,1542.64L1470.81,1563.17L1491.34,1570.01L1505.02,1563.17L1511.86,1528.96L1518.7,1474.23L1518.7,1426.35L1505.02,1385.3L1484.49,1364.78L1463.97,1364.78L1450.29,1385.3L1429.77,1419.51L1422.93,1467.39L1416.08,1501.6L1416.08,1522.12L1422.93,1528.96" fill="none" stroke="#000000" style="-webkit-tap-highlight-color: rgba(0, 0, 0, 0); stroke-linecap: round; stroke-linejoin: round; stroke-width: 19;" /><path d="M171.02,783.29L164.18,783.29L157.34,783.29L143.66,790.13L129.98,796.98L123.14,817.5L123.14,851.7L136.82,892.75L171.02,920.11L212.07,926.95L246.28,913.27L280.48,865.39L294.16,817.5L294.16,776.45L280.48,749.09L246.28,749.09L218.91,755.93L212.07,790.13L212.07,796.98" fill="none" stroke="#000000" style="-webkit-tap-highlight-color: rgba(0, 0, 0, 0); stroke-linecap: round; stroke-linejoin: round; stroke-width: 19;" /><path d="M985.1,701.2L971.42,694.36L964.58,694.36L971.42,714.88L998.78,742.25L1032.99,769.61L1067.19,776.45L1087.72,762.77L1094.56,728.57L1087.72,694.36L1060.35,673.84L1012.47,667L964.58,680.68L944.06,721.72L937.22,769.61L950.9,803.82" fill="none" stroke="#000000" style="-webkit-tap-highlight-color: rgba(0, 0, 0, 0); stroke-linecap: round; stroke-linejoin: round; stroke-width: 19;" /><path d="M1121.92,1111.66L1094.56,1111.66L1060.35,1118.5L1032.99,1125.34L1019.31,1145.87L1026.15,1186.91L1053.51,1227.96L1101.4,1248.48L1149.29,1248.48L1183.49,1214.28L1197.17,1173.23L1197.17,1132.18L1169.81,1097.98L1135.6,1084.3L1087.72,1077.46L1060.35,1091.14" fill="none" stroke="#000000" style="-webkit-tap-highlight-color: rgba(0, 0, 0, 0); stroke-linecap: round; stroke-linejoin: round; stroke-width: 19;" /><path d="M1983.89,1932.58L1983.89,1939.42L1977.05,1953.1L1970.2,1959.94L1970.2,1966.78L1963.36,1966.78L1956.52,1966.78L1942.84,1966.78L1922.32,1973.63L1894.95,1980.47L1874.43,2000.99L1853.91,2014.67L1826.54,2042.04L1806.02,2062.56L1778.66,2089.92L1758.13,2103.6L1737.61,2117.29L1717.09,2130.97L1696.57,2144.65L1676.04,2158.33L1655.52,2165.17L1635,2178.86L1614.47,2192.54L1587.11,2206.22L1559.75,2219.9L1539.22,2240.42L1518.7,2254.11L1498.18,2274.63L1477.65,2288.31L1450.29,2301.99L1429.77,2322.52L1402.4,2343.04L1375.04,2356.72L1347.67,2370.4L1313.47,2384.08L1272.42,2404.61L1238.22,2431.97L1210.86,2459.34L1190.33,2486.7L1169.81,2514.06L1149.29,2541.43L1128.76,2561.95L1115.08,2575.63L1101.4,2582.47L1094.56,2589.31" fill="none" stroke="#000000" style="-webkit-tap-highlight-color: rgba(0, 0, 0, 0); stroke-linecap: round; stroke-linejoin: round; stroke-width: 19;" /><path d="M2544.85,1898.37L2538.01,1905.22L2531.17,1905.22L2524.33,1905.22L2517.48,1905.22L2524.33,1905.22L2538.01,1912.06L2544.85,1912.06L2565.37,1925.74L2592.73,1939.42L2626.94,1953.1L2654.3,1973.63L2674.83,1987.31L2688.51,2000.99L2688.51,2014.67L2681.67,2021.51L2667.99,2035.19L2647.46,2042.04L2633.78,2048.88L2613.26,2055.72L2585.89,2069.4L2558.53,2083.08L2524.33,2089.92L2496.96,2103.6L2469.6,2117.29L2449.07,2130.97L2428.55,2144.65L2408.03,2165.17L2380.66,2185.7L2360.14,2206.22L2339.62,2226.74L2325.94,2247.27L2312.25,2274.63L2305.41,2295.15L2305.41,2322.52L2305.41,2363.56L2312.25,2411.45L2332.78,2459.34L2339.62,2500.38L2346.46,2541.43L2346.46,2582.47" fill="none" stroke="#000000" style="-webkit-tap-highlight-color: rgba(0, 0, 0, 0); stroke-linecap: round; stroke-linejoin: round; stroke-width: 19;" /><path d="M2462.76,803.82L2462.76,790.13L2455.92,783.29L2449.07,776.45L2442.23,783.29L2442.23,796.98L2442.23,810.66L2442.23,831.18L2442.23,858.54L2449.07,892.75L2455.92,926.95L2469.6,961.16L2476.44,988.52L2476.44,1015.89L2483.28,1043.25L2483.28,1077.46L2483.28,1104.82L2483.28,1139.02L2483.28,1166.39L2476.44,1193.75L2476.44,1214.28L2476.44,1234.8L2476.44,1248.48L2476.44,1269L2476.44,1289.53L2476.44,1310.05L2476.44,1330.57L2476.44,1351.1L2476.44,1364.78L2483.28,1385.3L2483.28,1405.82L2483.28,1426.35L2476.44,1453.71L2476.44,1474.23L2476.44,1494.76L2476.44,1515.28L2476.44,1528.96L2476.44,1549.48L2476.44,1570.01L2476.44,1590.53L2476.44,1617.89L2476.44,1645.26L2476.44,1665.78L2476.44,1686.3L2476.44,1706.83L2476.44,1727.35L2476.44,1741.03L2483.28,1761.55L2483.28,1782.08L2483.28,1795.76L2483.28,1802.6L2483.28,1809.44L2483.28,1816.28L2476.44,1816.28L2476.44,1809.44L2476.44,1802.6L2476.44,1788.92" fill="none" stroke="#000000" style="-webkit-tap-highlight-color: rgba(0, 0, 0, 0); stroke-linecap: round; stroke-linejoin: round; stroke-width: 19;" /></svg>