<?xml version="1.0" encoding="utf-8" ?>
<svg baseProfile="full" height="1200" version="1.1" width="1600" xmlns="http://www.w3.org/2000/svg" xmlns:ev="http://www.w3.org/2001/xml-events" xmlns:xlink="http://www.w3.org/1999/xlink"><defs /><path d="M11.31,227.56L8.48,224.73L5.65,224.73L2.83,221.91L0,221.91L0,224.73" fill="none" stroke="#000000" style="-webkit-tap-highlight-color: rgba(0, 0, 0, 0); stroke-linecap: round; stroke-linejoin: round; stroke-width: 8;" /><path d="M14.13,247.35L20,247L17,246L19,250L25,251L28,252L34,252L40,258L47,259L58,258L49,259L62,257L68,257L71,256L76,256L73,255L80,257L83,259L88,267L83,266L90,266L96,267L93,267L98,267L102,267L106,268L105,268L110,268L113,268L115,270L117,272L114,268L121,275L121,275L128,279L128,279L134,282L139,284L143,285L147,286L150,286L152,286L152,286L152,286L161,289L161,289L167,290L169,290L171,291L178,293L180,293L196,294L190,294L198,294L198,294L206,298L209,298L210,298L217,299L222,299L220,299L227,303L227,303L237,308L237,308L243,310L241,310L242,312L245,313L250,311L251,312L256,311L254,311L262,315L260,314L271,318L265,315L274,318L280,321L286,321L293,322L288,321L303,329L299,325L308,332L308,332L308,332L322,324L328,324L331,327L334,327L339,329L337,341L337,341L347,343L359,343L357,343L367,344L371,343L379,344L382,345L387,344L393,346L391,345L396,348L401,351L404,355L410,357L406,355L415,359L415,359L421,363L427,362L429,363L434,364L436,364L438,366L444,371L438,366L449,372L452,372L454,372L471,372L454,372L471,372L473,371L473,371L475,371L479,371L484,368L484,368L486,369L490,369L495,369L498,373L501,372L503,374L510,374L506,374L514,377L511,376L520,377L524,377L517,377L526,378L534,377L531,377L529,377L537,378L541,375L547,375L542,376L548,375L551,375L560,371L557,371L555,372L563,372L572,369L565,368L568,367L574,368L577,370L585,374L580,372L580,372L587,371L591,371L594,370L597,371L605,371L599,372L609,368L602,371L613,370L611,369L616,369L620,367L630,366L622,366L625,366L628,365L636,362L633,362L639,358L642,358L648,356L650,352L645,355L644,358L654,352L655,349L661,348L659,348L667,346L664,349L667,348L670,346L673,346L674,343L676,343L675,341L682,338L679,342L683,338L683,335L684,331L693,326L683,335L695,332L695,325L704,318L698,324L701,319L707,319L707,315L710,311L710,314L712,312L714,310L718,310L721,306L724,307L725,301L727,304L724,303L730,299L732,294L729,294L732,294L735,293L743,286L738,291L741,289L741,289L746,283L743,284L748,283L749,287L751,287L754,287L760,284L758,284L765,283L763,284L766,281L769,282L772,280L777,280L780,281L775,281L784,281L786,277L792,277L790,278L794,277L797,277L802,278L800,277L804,273L802,275L804,270L804,270L800,265L800,263L800,261L800,259L801,254L801,256L800,248L800,247L800,244L800,247L800,243L801,242L801,236L802,240L801,236L801,236L808,228L808,228L808,225L808,225L812,219L812,219L815,215L818,213L815,215L825,207L826,204L826,204L834,190L831,198L831,198L834,190L837,187L841,182L838,186L845,182L851,181L853,180L848,180L859,177L862,177L864,173L874,174L873,170L876,171L882,170L885,167L885,167L892,165L896,165L901,166L903,168L905,167L910,167L906,167L919,167L917,168L923,168L922,168L933,168L927,167L939,168L936,168L941,168L948,166L950,166L952,168L955,170L958,170L964,168L961,169L965,170L970,171L975,172L978,172L970,171L979,172L984,173L987,173L992,173L994,173L997,173L997,173L997,173L997,173L1009,163L1012,163L1018,163L1015,163L1023,163L1020,163L1026,165L1029,165L1042,178L1042,178L1042,178L1042,178L1052,173L1051,173L1054,173L1050,174L1057,174L1063,173L1066,174L1068,175L1074,176L1071,177L1076,176L1080,175L1090,180L1086,176L1083,176L1088,179L1094,181L1100,181L1097,182L1102,182L1104,182L1113,181L1107,183L1112,182L1119,186L1117,180L1127,185L1121,186L1139,185L1128,185L1140,186L1131,184L1143,193L1144,193L1152,193L1151,192L1152,193L1156,191L1160,192L1162,192L1170,197L1171,198L1173,199L1176,199L1179,199L1180,202L1185,203L1187,201L1190,201L1192,202L1196,206L1201,204L1199,205L1207,204L1213,208L1217,208L1210,209L1221,211L1219,211L1227,211L1229,213L1233,215L1235,215L1241,219L1237,217L1244,218L1254,223L1247,221L1249,221L1255,223L1258,225L1264,227L1261,227L1267,228L1269,230L1269,233L1275,235L1272,234L1277,236L1275,235L1279,238L1281,240L1283,240L1286,238L1286,241L1289,241L1293,245L1295,244L1296,247L1298,248L1298,248L1299,248L1305,249L1306,250L1306,250L1308,250L1312,255L1312,255L1314,258L1317,259L1317,259L1324,262L1324,262L1331,271L1331,271L1330,270L1335,273L1336,283L1336,283L1336,283L1338,290L1338,290L1339,292L1339,292L1341,295L1342,296L1344,297L1347,298L1351,298L1348,297L1354,294L1355,294L1355,294L1365,294L1365,294L1371,298L1368,295L1375,297L1371,299L1380,305L1379,299L1382,303L1385,304L1391,305L1388,306L1395,307L1396,307L1400,307L1402,307L1405,310L1408,310L1411,310L1412,309L1412,309L1413,307L1430,313L1430,313L1430,313L1430,313L1433,312L1437,312L1436,315L1440,315L1442,315L1445,315L1447,314L1449,315L1453,316L1457,315L1459,314L1461,313L1464,313L1466,313L1463,312L1470,309L1473,310L1473,306L1474,302L1479,305L1477,301L1481,300L1482,300L1487,302L1490,300L1495,301L1493,301L1497,301L1499,301L1504,304L1505,304L1510,305L1512,304L1515,304L1518,303L1518,303L1521,299L1530,304L1530,304L1531,304L1536,304L1539,303L1542,306L1540,305L1542,306L1544,305L1552,309L1550,308L1555,310L1560,311L1559,315L1557,312L1563,313L1568,322L1566,318L1569,323L1570,324" fill="none" stroke="#000000" style="-webkit-tap-highlight-color: rgba(0, 0, 0, 0); stroke-linecap: round; stroke-linejoin: round; stroke-width: 8;" /><path d="M1570,326L1570,326L1570,326L1570,326L1584,330L1586,333L1586,333L1587,335" fill="none" stroke="#000000" style="-webkit-tap-highlight-color: rgba(0, 0, 0, 0); stroke-linecap: round; stroke-linejoin: round; stroke-width: 8;" /><path d="M1498.23,309.54L1488,310L1493,310L1484,312L1478,311L1476,311L1473,312L1472,313L1466,313L1467,318L1467,321L1465,327L1467,335L1471,346L1476,355L1474,349L1478,360L1480,365L1484,369L1481,366L1484,371L1483,377L1483,377L1478,390L1481,391L1481,400L1481,400L1481,395L1479,408L1488,414L1489,412L1490,415L1493,418L1493,419L1493,422L1493,425L1495,424L1494,430L1494,428L1496,434L1496,437L1498,440L1497,441L1501,445L1504,448L1506,451L1510,456L1509,453L1512,459L1511,461L1515,471L1515,467L1515,467L1517,472L1517,472L1516,479L1516,476L1517,482L1519,489L1519,490L1519,496L1519,503L1519,505L1521,518L1522,522L1519,510L1523,528L1524,540L1523,533L1523,534L1524,544L1526,549L1529,555L1527,555L1529,558L1530,570L1526,565L1530,570L1530,572L1529,582L1531,575L1531,577L1530,584L1531,586L1531,592L1530,591L1531,594L1532,598L1532,604L1532,615L1531,606L1532,615L1535,620L1536,626L1535,623L1535,635L1536,627L1536,640L1536,640L1538,649L1538,653L1536,643L1538,649L1538,662L1538,654L1538,669L1538,663L1540,677L1539,673L1541,680L1540,674L1543,694L1541,685L1541,687L1543,691L1542,696L1541,704L1541,700L1540,702L1542,708L1543,711L1545,714L1546,717L1549,722L1548,726L1548,719L1549,723L1548,733L1550,739L1548,733L1550,742L1550,748L1550,751L1550,753L1549,759L1550,760L1552,766L1544,764L1550,769L1546,776L1546,778L1542,784L1543,787L1544,793L1543,789L1543,802L1543,795L1546,808" fill="none" stroke="#000000" style="-webkit-tap-highlight-color: rgba(0, 0, 0, 0); stroke-linecap: round; stroke-linejoin: round; stroke-width: 8;" /><path d="M1546,804L1549,821L1547,814L1554,821L1552,823L1555,823L1555,827L1554,829L1558,834L1559,838L1558,834L1559,841L1559,847L1559,849L1559,855L1560,852L1560,858L1562,875L1559,863L1560,868L1564,878L1567,893L1567,891L1561,883L1568,895L1557,906L1564,916L1557,906L1563,917L1563,917L1563,923L1563,925L1562,926L1563,939L1566,934L1563,939L1564,942L1551.94,886.22L1563,950L1564,955L1563,948L1563,948L1568,969L1567,969L1568,968L1564,955L1567,970L1565,981L1569,983L1569,983L1570,991L1570,995L1569,988L1569,985L1566,995L1569,996L1559,999L1559,1002" fill="none" stroke="#000000" style="-webkit-tap-highlight-color: rgba(0, 0, 0, 0); stroke-linecap: round; stroke-linejoin: round; stroke-width: 8;" /><path d="M1556,882L1556,906L1543,911L1543,911L1546,924L1546,922L1548,937L1546,939L1549,957L1551,960L1544,943L1550,972L1548,977L1549,991L1548,982" fill="none" stroke="#000000" style="-webkit-tap-highlight-color: rgba(0, 0, 0, 0); stroke-linecap: round; stroke-linejoin: round; stroke-width: 8;" /><path d="M1550,992L1546,1009L1549,1025L1552,1014L1552,1030L1552,1040L1555,1052L1551,1045L1557,1062L1554,1068L1556,1072L1556,1072L1556,1072L1565,1084L1558,1092L1558,1095L1558,1103L1558,1104L1559,1106L1555,1118L1555,1114L1553,1113L1555,1121L1555,1121L1557,1140L1557,1140L1557,1142L1556,1145L1555,1157L1555,1155L1554,1158L1555,1165L1555,1165L1555,1165L1554,1173L1554,1173L1553,1177L1553,1177" fill="none" stroke="#000000" style="-webkit-tap-highlight-color: rgba(0, 0, 0, 0); stroke-linecap: round; stroke-linejoin: round; stroke-width: 8;" /><path d="M1337.1,309.54L1342,296L1341,295L1345,303L1339,292L1329,304L1331,310L1334,315L1337,321L1340,327L1355,335L1361,356L1356,340L1360,362L1363,370L1365,380L1367,386L1368,392L1371,403L1373,411L1375,422L1373,417L1365,434L1365,442L1365,451L1365,459L1365,465L1365,473L1365,482L1368,488L1368,493L1368,507L1368,499L1368,513L1368,519L1368,524L1368,530L1374,536L1371,533L1374,539L1377,553L1374,541L1377,547L1380,555L1380,561L1382,567L1382,575L1385,581L1385,587L1388,601L1385,595L1388,606L1388,609L1388,618L1388,623L1388,615L1388,629L1388,637L1388,640L1388,632L1388,635L1388,646L1388,649L1388,643L1388,652L1388,654L1388,657L1391,660L1391,663L1391,669L1391,677L1391,671L1394,683L1394,691L1394,697L1394,702L1394,711L1396,717L1396,734L1396,725L1399,745L1399,739L1399,756L1399,751L1402,770L1402,765L1402,773L1402,776L1402,782L1402,784L1402,787L1402,793L1402,813L1402,799L1402,804L1402,821L1402,830L1402,847L1402,838L1402,855L1402,864L1402,878L1402,869L1405,883L1408,889L1411,898L1411,903L1411,912L1413,920L1413,917L1413,926L1413,929L1413,931L1413,937L1413,940L1413,934L1413,946L1413,960L1413,948L1413,954L1413,974L1413,968L1413,963L1413,980L1416,985L1416,996L1416,991L1416,988L1416,1002L1416,999L1419,1008L1419,1005" fill="none" stroke="#000000" style="-webkit-tap-highlight-color: rgba(0, 0, 0, 0); stroke-linecap: round; stroke-linejoin: round; stroke-width: 8;" /><path d="M1419,1016L1419,1013L1419,1011L1419,1019L1419,1022L1419,1025L1419,1028L1419,1030L1419,1036L1419,1033L1419,1039L1419,1042L1416,1047L1416,1050L1413,1059L1416,1056L1413,1064L1413,1067L1411,1073L1411,1076L1411,1084L1411,1078L1411,1087L1411,1090L1411,1093L1412,1105L1412,1105L1412,1105L1412,1105L1411,1106L1408,1110L1408,1110L1409,1118L1409,1118L1412,1121L1410,1131L1413,1124L1413,1131L1411,1133L1413,1131L1416,1141L1418,1136" fill="none" stroke="#000000" style="-webkit-tap-highlight-color: rgba(0, 0, 0, 0); stroke-linecap: round; stroke-linejoin: round; stroke-width: 8;" /><path d="M1218.37,1126.5L1216,1130L1216,1130L1221,1113L1221,1113L1220,1110L1217,1106L1214,1101L1213,1094L1212,1090L1211,1084L1210,1073L1210,1078L1210,1069L1210,1067L1210,1064L1211,1060L1209,1056L1209,1053L1208,1049L1207,1047L1205,1045L1200,1039L1199,1037L1196,1033L1193,1023L1195,1014L1196,1006L1195,1011L1198,1000L1198,1002L1200,997L1200,997L1201,995L1200,997L1190,985L1190,980L1190,977L1190,974L1190,968L1200,955L1200,955L1199,953L1199,953L1201,943L1199,929L1200,935L1198,926L1197,923L1199,914L1197,921L1200,909L1200,905L1201,898L1201,894L1202,889L1201,892L1204,879L1203,882L1204,872L1205,870L1209,865L1208,866L1212,860L1213,855L1215,852L1217,848L1221,843L1220,844L1221,843L1221,843L1238,833L1221,843L1235,833L1233,833L1244,833L1247,835L1241,833L1249,838L1252,841L1258,849L1258,855L1255,844L1264,864L1261,858L1266,872L1266,869L1269,878L1269,883L1272,892L1272,898L1275,903L1275,909L1275,923L1275,917L1278,929L1278,931L1281,940L1283,946L1283,951L1286,957L1286,963L1289,965L1289,971L1289,977L1289,980L1289,985L1289,991L1292,994L1292,1002L1292,999L1295,1008L1295,1022L1295,1011L1295,1025L1295,1016L1295,1042L1295,1030" fill="none" stroke="#000000" style="-webkit-tap-highlight-color: rgba(0, 0, 0, 0); stroke-linecap: round; stroke-linejoin: round; stroke-width: 8;" /><path d="M1295,1036L1295,1045L1298,1056L1295,1050L1298,1061L1298,1067L1300,1078L1300,1073L1298,1070L1303,1081L1303,1090L1303,1095L1303,1084L1303,1093L1303,1101L1303,1098L1303,1104L1303,1107L1300,1112L1313,1124L1300,1110L1313,1124L1313,1124L1313,1124L1313,1124L1313,1124L1306,1134L1312,1126L1312,1126L1306,1135L1303,1136" fill="none" stroke="#000000" style="-webkit-tap-highlight-color: rgba(0, 0, 0, 0); stroke-linecap: round; stroke-linejoin: round; stroke-width: 8;" /><path d="M870.67,182.33L876,188L865,185L865,193L859,195L859,195L857,201L857,200L857,204L860,206L868,212L868,216L873,220L874,222L875,227L878,233L878,236L878,237L877,251L877,251L879,258L879,260L878,262L879,259L878,275L878,275L882,280L883,280L882,282L882,296L878,290L882,296L883,298L882,306L882,310L882,315L881,304L882,318L881,326L880,327L882,323L875,348L880,327L876,350L876,352L879,366L879,359L876,380L878,372L876,382L878,402L876,397L876,397L876,406L875,416L876,410L877,423L876,428L876,433L877,437L878,442L874,448L873,455L876,461L873,459L872,457L876,468L875,471L875,479L875,473L875,482L877,490L884,503L877,490L884,503L885,507L885,522L885,516L886,513L885,524L882,527L880,532L880,532L879,536L878,541L879,536L890,550L893,553L886,568L885,567L886,568L887,570L887,570L886,575L886,578L886,578L891,597L884,590L891,597L891,597L890,598L889,600L889,600L889,600L884,611L884,609L884,622L896,620L899,626L902,632L902,637L905,643L905,649L905,654L905,660L905,666L905,671L905,677L905,683L905,688L905,694L899,705L900,706L900,706L900,710L899,712L898,729L898,716L898,734L898,734L912,760L894,740L912,762L912,765L912,765L905,779L905,784L905,790L907,796L907,801L907,807L907,816L907,821L907,827L910,833L913,838L913,844L916,849L919,858L916,855L922,864L922,869L924,886L924,881L922,875L924,892L927,898L927,914L927,903L927,909L927,923L930,934L930,929L927,917L930,940L930,946L930,960L930,954L930,988L930,982L930,974L930,968L933,1005L930,994L933,1011L933,999L933,1013L933,1022L933,1016L933,1028L930,1033L924,1050L930,1039L927,1045L922,1056L922,1061L919,1067L916,1070L913,1084L916,1073L913,1081L913,1078L913,1090L913,1095L913,1093L916,1098L916,1101L916,1107L916,1104L916,1110L919,1112" fill="none" stroke="#000000" style="-webkit-tap-highlight-color: rgba(0, 0, 0, 0); stroke-linecap: round; stroke-linejoin: round; stroke-width: 8;" /><path d="M919,1115L919,1118L919,1131L919,1131L919,1131L919,1131L919,1131L919,1131L919,1131L918,1145L918,1145L916,1146L921.55,1120.85L910,1149L915,1147L910,1149L911,1152L907,1156L908,1156L910,1155L907,1156L908,1166L908,1166L908,1166L904,1166L910,1167L912,1167L916,1169L914,1167L916,1172L917,1176L917,1177L916,1179L916,1179L916,1131L916,1131L919,1131L916,1131L916,1131L916,1131L910,1132L922,1131L927,1131L935,1130L945,1139L951,1137L967,1128L958,1135L981,1127L975,1128L989,1128L995,1130L1001,1136L1010,1135L1015,1134L1033,1141L1020,1134L1023,1137L1043,1129L1033,1141L1057,1137L1057,1137L1057,1137L1059,1137L1059,1137L1069,1137L1072,1136L1076,1135L1077,1135L1084,1134L1086,1134L1098,1132L1091,1133L1102,1130L1102,1130L1106,1130L1111,1131L1105,1130L1102,1130L1119,1132L1117,1132L1125,1121L1111,1131L1131,1121L1136,1121L1128,1121L1149,1131L1152,1128L1153,1121L1153,1121L1153,1121" fill="none" stroke="#000000" style="-webkit-tap-highlight-color: rgba(0, 0, 0, 0); stroke-linecap: round; stroke-linejoin: round; stroke-width: 8;" /><path d="M1153,1121L1153,1121L1172,1128L1172,1128L1173,1128L1184,1128L1178,1128L1182,1128" fill="none" stroke="#000000" style="-webkit-tap-highlight-color: rgba(0, 0, 0, 0); stroke-linecap: round; stroke-linejoin: round; stroke-width: 8;" /><path d="M1306.01,1118.02" fill="none" stroke="#000000" style="-webkit-tap-highlight-color: rgba(0, 0, 0, 0); stroke-linecap: round; stroke-linejoin: round; stroke-width: 8;" /><path d="M1196,1129L1190,1128L1190,1128L1200,1129L1200,1129L1210,1130L1207,1130L1216,1130L1221,1113L1223,1129L1223,1129L1225,1130L1234,1133L1227,1131L1236,1134L1236,1134L1258,1132L1258,1132L1263,1130L1264,1130L1275,1130L1272,1130L1275,1130L1266,1130L1289,1131L1286,1131L1292,1131L1282,1131L1295,1131L1283,1131L1292,1131L1297,1131L1266,1130L1275,1130L1263,1130L1258,1132" fill="none" stroke="#000000" style="-webkit-tap-highlight-color: rgba(0, 0, 0, 0); stroke-linecap: round; stroke-linejoin: round; stroke-width: 8;" /><path d="M1308,1127L1306,1128L1305,1129L1308,1127L1313,1124L1323,1123L1346,1123L1334,1122" fill="none" stroke="#000000" style="-webkit-tap-highlight-color: rgba(0, 0, 0, 0); stroke-linecap: round; stroke-linejoin: round; stroke-width: 8;" /><path d="M1520.85,1101.06" fill="none" stroke="#000000" style="-webkit-tap-highlight-color: rgba(0, 0, 0, 0); stroke-linecap: round; stroke-linejoin: round; stroke-width: 8;" /><path d="M1357,1124L1379,1115L1367,1119L1386,1116L1394,1115L1403,1112L1424,1112L1408,1110L1428,1109L1447,1110L1436,1111L1440,1107L1454,1110L1456,1110L1463,1109L1464,1109L1469,1107L1476,1109L1470,1107L1472,1107L1476,1109L1482,1112L1480,1111" fill="none" stroke="#000000" style="-webkit-tap-highlight-color: rgba(0, 0, 0, 0); stroke-linecap: round; stroke-linejoin: round; stroke-width: 8;" /><path d="M1483,1113L1484,1114L1487,1116L1488,1117L1488,1117L1488,1117L1501,1124L1496,1123L1502,1124L1507,1125L1510,1112L1512,1112L1515,1112L1512,1112L1502,1124L1507,1125L1526,1101L1527,1101L1528,1101L1528,1101L1529,1111L1528,1111L1528,1111L1528,1111L1515,1112L1512,1112L1510,1112L1507,1112L1504,1112L1496,1123L1488,1117L1488,1117L1488,1117L1487,1117L1484,1117L1482,1118L1478,1118L1474,1117L1471,1120L1476,1118L1474,1117L1465,1118L1463,1110L1461,1110L1465,1118L1469,1108L1474,1109L1463,1110L1464,1109L1482,1112" fill="none" stroke="#000000" style="-webkit-tap-highlight-color: rgba(0, 0, 0, 0); stroke-linecap: round; stroke-linejoin: round; stroke-width: 8;" /><path d="M783.04,309.54L780,310L777,308L775,307L777,303L775,301L776,300L781,297L781,297L778,293L777,290L775,283L774,278L771,277L771,277L774,278L774,278L777,285L780,290L783,300L783,295L785,308L786,315L786,321L789,327L789,331L789,329L789,335L789,338L791,343L791,346L789,341L791,347L798,355L799,350L799,352L800,360L802,363L803,365L803,368L806,371L806,375L808,380L806,383L808,387L808,394L808,396L814,404L811,402L818,407L814,404L821,417L822,414L822,416L823,421L822,428L823,430L822,434L823,423L824,437L823,445L823,441L823,451L823,462L822,454L822,459L823,469L823,476L823,471L824,473L823,481L820,489L817,492L820,488L820,484L813,503L820,496L818,496L818,496L815,512L815,512L815,514L815,513L838,527L815,514L838,527L815,514L837,533L837,533L837,535L837,535L837,535L834,553L834,550L834,558L834,561L837,570L837,572L837,567L837,575L837,581L837,578L837,584L837,587L840,589L840,595L840,592L840,598L840,601L840,606L840,609L842,615L842,618L842,623L842,635L842,629L842,640L845,657L842,646L845,652L845,666L848,669L848,671L848,677L848,686L851,691L851,697L851,702L851,708L851,714L851,719L851,725L840,738L840,738L840,739L842,748L842,748L843,756L843,755L843,757L843,757L845,770L842,776L842,779L842,784L842,787L842,793L842,796L842,801L842,804L842,807L842,810L848,821L848,821L848,821L848,821L848,824L848,824L848,824L840,838L848,824L837,847L837,841L837,849L837,855L834,858L834,864L834,866" fill="none" stroke="#000000" style="-webkit-tap-highlight-color: rgba(0, 0, 0, 0); stroke-linecap: round; stroke-linejoin: round; stroke-width: 8;" /><path d="M831,869L831,872L831,875L828,878L825,881L823,881L820,883L817,883L814,886L811,886L806,889L803,892L791,902L791,902L791,902L792,904L792,906L791,911L791,909L790,913L788,920L788,924L789,917L787,927L786,930L787,938L786,943L787,935L786,945L785,947L784,951L782,954L782,955L779,960L779,965L780,968L781,970L782,973L783,975L780,984L780,984L780,984L779,985L776,996L777,998L777,998L776,999L776,999L775,1011L772,1013L772,1016L763,1030L766,1025L769,1022L760,1033L758,1039L758,1042L760,1036L758,1045L758,1050L758,1056L758,1053" fill="none" stroke="#000000" style="-webkit-tap-highlight-color: rgba(0, 0, 0, 0); stroke-linecap: round; stroke-linejoin: round; stroke-width: 8;" /><path d="M28.27,1024.73" fill="none" stroke="#000000" style="-webkit-tap-highlight-color: rgba(0, 0, 0, 0); stroke-linecap: round; stroke-linejoin: round; stroke-width: 8;" /><path d="M758,1059L758,1067L758,1061L758,1064L758,1070L747,1083L747,1083L747,1083L749,1088L749,1090L749,1088L749,1092L749,1092L749,1092L749,1092L749,1092L741,1104L735,1110L738,1107L732,1112L729,1115L727,1121L716,1134L716,1134L712,1133L707,1134L710,1133L709,1133L703,1134L710,1133L712,1133L721,1115L713,1133L724,1112" fill="none" stroke="#000000" style="-webkit-tap-highlight-color: rgba(0, 0, 0, 0); stroke-linecap: round; stroke-linejoin: round; stroke-width: 8;" /><path d="M25,1025L23,1028L17,1030L11,1033L14,1033L8,1036L6,1039L3,1042L8,1042L20,1045L11,1045L28,1045L40,1045L62,1045L51,1045L73,1045L88,1042L99,1042L110,1039L122,1036L133,1033L141,1030L150,1028L155,1025L158,1025L181,1022L170,1022L201,1022L192,1022L212,1019L220,1019L226,1019L235,1016L243,1013L254,1013L263,1011L269,1011L277,1008L283,1008L286,1008L297,1002L302,1002L291,1005L311,1002L317,1002L322,1002L328,1002L331,1002L336,1002L339,1002L342,1002L353,999L356,999L365,996L348,999" fill="none" stroke="#000000" style="-webkit-tap-highlight-color: rgba(0, 0, 0, 0); stroke-linecap: round; stroke-linejoin: round; stroke-width: 8;" /><path d="M379,994L390,991L373,994L384,991L401,988L396,991L413,988L407,988" fill="none" stroke="#000000" style="-webkit-tap-highlight-color: rgba(0, 0, 0, 0); stroke-linecap: round; stroke-linejoin: round; stroke-width: 8;" /><path d="M624.73,1072.79" fill="none" stroke="#000000" style="-webkit-tap-highlight-color: rgba(0, 0, 0, 0); stroke-linecap: round; stroke-linejoin: round; stroke-width: 8;" /><path d="M433,985L438,985L418,988L424,985L444,982L466,977L458,980L449,982L472,977L483,971L478,974L489,971L517,968L498,968L503,968L512,968L523,968L537,968L529,968L534,968L543,971L554,980L551,977L546,974L557,982L560,988L568,994L563,991L578,1005L579,1003L578,1005L578,1005L578,1007L579,1008L579,1008L579,1008L579,1008" fill="none" stroke="#000000" style="-webkit-tap-highlight-color: rgba(0, 0, 0, 0); stroke-linecap: round; stroke-linejoin: round; stroke-width: 8;" /><path d="M585,1022L596,1032L596,1032L596,1033L598,1037L601,1042L602,1043L602,1043L602,1043L602,1043L602,1043L616,1053L616,1056L611,1059L613,1061L613,1056L616,1061L626,1073L626,1073L625,1073L624,1073L622,1074L613,1061L611,1061L608,1059L602,1043L601,1042L602,1043L596,1032L597,1035L596,1032L596,1032L579,1008L579,1008L579,1008L580,1003L580,999L580,1002L580,999L580,999L580,988L577,985L571,980L574,982L568,977L565,977L560,974L557,974L554,974L551,974L548,974L546,974L543,968L546,971L540,968L537,965L531,965L534,965L529,965L526,965" fill="none" stroke="#000000" style="-webkit-tap-highlight-color: rgba(0, 0, 0, 0); stroke-linecap: round; stroke-linejoin: round; stroke-width: 8;" /><path d="M596.47,1067.14" fill="none" stroke="#000000" style="-webkit-tap-highlight-color: rgba(0, 0, 0, 0); stroke-linecap: round; stroke-linejoin: round; stroke-width: 8;" /><path d="M520,965L517,968L514,971L512,974L503,982L506,977L500,985L498,991L498,994L498,996" fill="none" stroke="#000000" style="-webkit-tap-highlight-color: rgba(0, 0, 0, 0); stroke-linecap: round; stroke-linejoin: round; stroke-width: 8;" /><path d="M596,1061L596,1059L601,1043L601,1043L602,1043L603,1041L602,1042L601,1043L616,1045L603,1041L603,1041L622,1047L630,1050L639,1053L596.47,1050.18L601,1043L601,1043L601,1043L602,1043L601,1043L602,1043L616,1059L625,1061L630,1074L637,1075L639,1077L644,1080L650,1083L650,1083L654,1086L656,1088L659,1090L663,1094L666,1095L666,1095L670,1100L670,1101L672,1105L674,1108L675,1109L678,1111L679,1113L683,1117L686,1119L689,1121L692,1123L694,1125L699,1129L695,1126L699,1129L699,1129L700,1131L709,1133L710,1133L712,1133L713,1133L716,1134L716,1134L725,1138L725,1138L725,1138L746,1127L741,1127L749,1127L755,1124L760,1124L763,1124L766,1124L769,1124L777,1127L775,1127L786,1132L780,1129L789,1132L792,1135L794,1151L792,1138L794,1151L794,1151L806,1141L805,1153L817,1143L805,1153L820,1143L825,1143L828,1143L831,1143L834,1143L846,1148L846,1148L846,1148L850,1143L850,1143L850,1143L850,1143L857,1147L864,1141L863,1143L868,1142L865,1141L875,1137L876,1137L873,1138L872,1138" fill="none" stroke="#000000" style="-webkit-tap-highlight-color: rgba(0, 0, 0, 0); stroke-linecap: round; stroke-linejoin: round; stroke-width: 8;" /><path d="M880,1136L880,1136L886,1134L882,1136L888,1134L893,1134L889,1134L896,1134L905,1133L902,1133L909,1132L902,1133L910,1132L916,1131L910,1132" fill="none" stroke="#000000" style="-webkit-tap-highlight-color: rgba(0, 0, 0, 0); stroke-linecap: round; stroke-linejoin: round; stroke-width: 8;" /><path d="M788.69,1016.25L786,1019L786,1022L789,1022L792,1022L794,1022L797,1022L803,1019L806,1019L811,1019L817,1022L823,1022L825,1025L831,1030L834,1033L842,1042L840,1039L851,1050L848,1047L854,1056L859,1061L865,1067L868,1073L871,1073L873,1076L876,1081L873,1078L876,1084L876,1087L876,1090L876,1093L876,1095L879,1098L879,1101L879,1104L882,1104" fill="none" stroke="#000000" style="-webkit-tap-highlight-color: rgba(0, 0, 0, 0); stroke-linecap: round; stroke-linejoin: round; stroke-width: 8;" /><path d="M882,1107L885,1112L885,1110L885,1115L888,1121L885,1118L888,1134L889,1134L890,1121L890,1118L890,1115L890,1112L888,1112L888,1110" fill="none" stroke="#000000" style="-webkit-tap-highlight-color: rgba(0, 0, 0, 0); stroke-linecap: round; stroke-linejoin: round; stroke-width: 8;" /><path d="M480.57,730.74L481,728L481,725L481,722L478,725L475,728L472,734L469,742L464,759L466,751L464,770L464,779L466,787L464,784L472,787" fill="none" stroke="#000000" style="-webkit-tap-highlight-color: rgba(0, 0, 0, 0); stroke-linecap: round; stroke-linejoin: round; stroke-width: 8;" /><path d="M475,787L481,782L486,770L489,762L489,751L489,742L486,734L481,731L475,731L472,734L469,736L469,742L466,748L466,751L469,753" fill="none" stroke="#000000" style="-webkit-tap-highlight-color: rgba(0, 0, 0, 0); stroke-linecap: round; stroke-linejoin: round; stroke-width: 8;" /><path d="M627.56,626.15L624,619L624,619L624,619L613,635L613,640L613,649L605,661L619,671L622,683L625,691L628,697L633,697L636,688" fill="none" stroke="#000000" style="-webkit-tap-highlight-color: rgba(0, 0, 0, 0); stroke-linecap: round; stroke-linejoin: round; stroke-width: 8;" /><path d="M642,674L642,660L642,649L639,637L630,635L628,635L622,640L625,637L622,654L622,646L625,654" fill="none" stroke="#000000" style="-webkit-tap-highlight-color: rgba(0, 0, 0, 0); stroke-linecap: round; stroke-linejoin: round; stroke-width: 8;" /><path d="M8.48,693.99L3,694L0,694L0,700L0,705L3,714L8,719L14,725L23,725L28,722L31,711L31,700L31,688L25,683" fill="none" stroke="#000000" style="-webkit-tap-highlight-color: rgba(0, 0, 0, 0); stroke-linecap: round; stroke-linejoin: round; stroke-width: 8;" /><path d="M20,680L11,680L50.88,626.15L11,686L11,694L17,700L45,629L37,635L31,637L28,646L28,654L31,660L48,666L40,666" fill="none" stroke="#000000" style="-webkit-tap-highlight-color: rgba(0, 0, 0, 0); stroke-linecap: round; stroke-linejoin: round; stroke-width: 8;" /><path d="M54,663L62,643L57,635L59,654L23,640L48,632L20,646L34,632" fill="none" stroke="#000000" style="-webkit-tap-highlight-color: rgba(0, 0, 0, 0); stroke-linecap: round; stroke-linejoin: round; stroke-width: 8;" /><path d="M84.81,561.13L79,558L85,558L62,575L73,561L59,604L59,592L68,606L76,601" fill="none" stroke="#000000" style="-webkit-tap-highlight-color: rgba(0, 0, 0, 0); stroke-linecap: round; stroke-linejoin: round; stroke-width: 8;" /><path d="M82,592L85,581L82,570L85,572L73,572" fill="none" stroke="#000000" style="-webkit-tap-highlight-color: rgba(0, 0, 0, 0); stroke-linecap: round; stroke-linejoin: round; stroke-width: 8;" /><path d="M1150.53,258.66L1151,256L1145,253L1148,253L1145,256L1153,261L1162,264L1173,270L1190,273L1207,278" fill="none" stroke="#000000" style="-webkit-tap-highlight-color: rgba(0, 0, 0, 0); stroke-linecap: round; stroke-linejoin: round; stroke-width: 8;" /><path d="M1227,287L1221,284L1221,287L1218,287" fill="none" stroke="#000000" style="-webkit-tap-highlight-color: rgba(0, 0, 0, 0); stroke-linecap: round; stroke-linejoin: round; stroke-width: 8;" /><path d="M1045.94,230.39L1047,232L1049,236L1054,240L1057,241L1063,244L1073,245" fill="none" stroke="#000000" style="-webkit-tap-highlight-color: rgba(0, 0, 0, 0); stroke-linecap: round; stroke-linejoin: round; stroke-width: 8;" /><path d="M1075,246L1083,249L1083,249L1083,249L1084,251" fill="none" stroke="#000000" style="-webkit-tap-highlight-color: rgba(0, 0, 0, 0); stroke-linecap: round; stroke-linejoin: round; stroke-width: 8;" /><path d="M1266.43,295.41L1261,290L1255,290L1247,290L1235,290L1224,293L1210,304L1216,298L1210,310L1216,315L1224,321L1235,321L1247,324L1258,321L1266,304L1264,315L1266,310L1261,295" fill="none" stroke="#000000" style="-webkit-tap-highlight-color: rgba(0, 0, 0, 0); stroke-linecap: round; stroke-linejoin: round; stroke-width: 8;" /><path d="M1255,290L1247,287L1238,287L1235,287L1230,293L1227,304L1230,298L1227,310L1227,312" fill="none" stroke="#000000" style="-webkit-tap-highlight-color: rgba(0, 0, 0, 0); stroke-linecap: round; stroke-linejoin: round; stroke-width: 8;" /><path d="M1495.41,795.76L1489,793L1487,794L1484,794" fill="none" stroke="#000000" style="-webkit-tap-highlight-color: rgba(0, 0, 0, 0); stroke-linecap: round; stroke-linejoin: round; stroke-width: 8;" /><path d="M1481,792L1478,793L1474,790L1475,790L1471,788" fill="none" stroke="#000000" style="-webkit-tap-highlight-color: rgba(0, 0, 0, 0); stroke-linecap: round; stroke-linejoin: round; stroke-width: 8;" /><path d="M1546.29,1036.04L1549,1033L1546,1032L1552,1030L1552,1030L1552,1030L1557,1037L1563,1040L1572,1020L1574,1020L1574,1020" fill="none" stroke="#000000" style="-webkit-tap-highlight-color: rgba(0, 0, 0, 0); stroke-linecap: round; stroke-linejoin: round; stroke-width: 8;" /><path d="M1574,1020L1586,1030L1589,1033L1592,1033L1557.6,1030.39L1563,1018L1558,1018" fill="none" stroke="#000000" style="-webkit-tap-highlight-color: rgba(0, 0, 0, 0); stroke-linecap: round; stroke-linejoin: round; stroke-width: 8;" /><path d="M1572,1020L1574,1020L1583,1017L1597,1028" fill="none" stroke="#000000" style="-webkit-tap-highlight-color: rgba(0, 0, 0, 0); stroke-linecap: round; stroke-linejoin: round; stroke-width: 8;" /><path d="M969.61,688.34L967,680L967,683L964,680L961,680L958,680L955,680L953,683L950,688L950,694L950,705L950,700L953,711L971,709L958,714L970,705L970,705L987,691L987,686" fill="none" stroke="#000000" style="-webkit-tap-highlight-color: rgba(0, 0, 0, 0); stroke-linecap: round; stroke-linejoin: round; stroke-width: 8;" /><path d="M987,683L984,683L978,680L972,680L967,677L970,677L967,680L970,680" fill="none" stroke="#000000" style="-webkit-tap-highlight-color: rgba(0, 0, 0, 0); stroke-linecap: round; stroke-linejoin: round; stroke-width: 8;" /><path d="M751.94,775.97L749,776L746,776L746,773L743,773L738,773L735,773L729,773L727,776L721,779L721,784L721,790L724,796L735,799L758,796L754,809L772,782L766,790" fill="none" stroke="#000000" style="-webkit-tap-highlight-color: rgba(0, 0, 0, 0); stroke-linecap: round; stroke-linejoin: round; stroke-width: 8;" /><path d="M772,776L749,765L758,765L766,770L738,765L741,765L738,767L741,770" fill="none" stroke="#000000" style="-webkit-tap-highlight-color: rgba(0, 0, 0, 0); stroke-linecap: round; stroke-linejoin: round; stroke-width: 8;" /><path d="M604.95,727.92L596,722L591,722L577,720L577,720L577,720L577,722L576,727L588,734L594,739L602,742L611,742L619,734" fill="none" stroke="#000000" style="-webkit-tap-highlight-color: rgba(0, 0, 0, 0); stroke-linecap: round; stroke-linejoin: round; stroke-width: 8;" /><path d="M631,732L631,732L616,719L611,717" fill="none" stroke="#000000" style="-webkit-tap-highlight-color: rgba(0, 0, 0, 0); stroke-linecap: round; stroke-linejoin: round; stroke-width: 8;" /><path d="M1105.3,1061.48L1117,1050L1117,1050L1117,1050L1117,1050L1119,1050L1117,1050L1117,1050L1117,1050L1105,1064L1105,1067L1102,1073L1102,1076L1105,1081L1111,1084L1122,1084L1117,1084L1128,1084L1134,1078L1131,1081L1139,1073" fill="none" stroke="#000000" style="-webkit-tap-highlight-color: rgba(0, 0, 0, 0); stroke-linecap: round; stroke-linejoin: round; stroke-width: 8;" /></svg>