<?xml version="1.0" encoding="utf-8" ?>
<svg baseProfile="full" height="1200" version="1.1" width="1600" xmlns="http://www.w3.org/2000/svg" xmlns:ev="http://www.w3.org/2001/xml-events" xmlns:xlink="http://www.w3.org/1999/xlink"><defs /><path d="M885.41,180.45L885.41,178.05L883.01,174.44L881.8,172.03L879.4,172.03L876.99,174.44L875.79,176.84L872.18,180.45L869.77,186.47L868.57,192.48L866.17,199.7L867.37,206.92L868.57,218.95L868.57,224.96L868.57,229.77L869.77,233.38L869.77,235.79L869.77,240.6L869.77,247.82L868.57,255.04L868.57,262.26L868.57,273.08L869.77,277.89L869.77,283.91L869.77,288.72L869.77,292.33L870.98,298.35L870.98,303.16L872.18,307.97L872.18,312.78L872.18,323.61L872.18,328.42L872.18,334.44L872.18,339.25L872.18,344.06L872.18,352.48L872.18,358.5L873.38,364.51L873.38,370.53L874.59,377.74L874.59,383.76L874.59,389.77L874.59,394.59L875.79,396.99L875.79,401.8L875.79,406.62L876.99,412.63L876.99,418.65L878.2,437.89L878.2,440.3L879.4,442.71L879.4,446.32L879.4,452.33L879.4,455.94L880.6,460.75L880.6,463.16L879.4,475.19L879.4,480L879.4,484.81L879.4,489.62L879.4,490.83L878.2,493.23L878.2,499.25L876.99,507.67L876.99,514.89L876.99,530.53L878.2,536.54L878.2,542.56L879.4,549.77" fill="none" stroke="#000000" style="-webkit-tap-highlight-color: rgba(0, 0, 0, 0); stroke-linecap: round; stroke-linejoin: round; stroke-width: 8;" /><path d="M878.2,553.38L879.4,554.59L880.6,556.99L881.8,560.6L881.8,566.62L883.01,576.24L884.21,582.26L884.21,588.27L885.41,593.08L885.41,599.1L886.62,602.71L886.62,607.52L886.62,613.53L886.62,618.35L887.82,623.16L887.82,632.78L887.82,638.8L887.82,644.81L886.62,648.42L887.82,653.23L887.82,656.84L887.82,660.45L887.82,665.26L886.62,670.08L885.41,674.89L884.21,685.71L884.21,690.53L883.01,695.34L881.8,701.35L881.8,707.37L881.8,712.18L881.8,718.2L881.8,724.21L881.8,729.02L881.8,739.85L881.8,745.86L881.8,751.88L881.8,755.49L881.8,760.3L881.8,766.32L881.8,771.13L881.8,775.94L883.01,784.36L883.01,789.17L883.01,793.98L883.01,798.8L883.01,802.41L883.01,806.02L883.01,809.62L883.01,812.03L883.01,815.64L883.01,818.05L883.01,824.06L883.01,826.47L884.21,826.47L884.21,827.67L884.21,828.87L884.21,831.28L884.21,838.5L884.21,840.9L884.21,844.51L884.21,846.92L884.21,849.32L884.21,852.93L883.01,857.74L883.01,862.56L881.8,869.77L881.8,887.82L881.8,892.63L881.8,896.24L881.8,901.05L881.8,905.86L881.8,910.68L881.8,920.3L881.8,925.11L881.8,928.72L881.8,932.33L881.8,937.14L881.8,940.75L881.8,945.56L881.8,950.38L883.01,955.19L883.01,963.61L883.01,969.62L883.01,974.44L883.01,979.25L883.01,984.06L883.01,990.08L883.01,996.09L885.41,1006.92L885.41,1010.53L889.02,1026.17L891.43,1034.59L893.83,1041.8L893.83,1047.82L895.04,1053.83L896.24,1058.65L897.44,1063.46L897.44,1069.47L897.44,1077.89L898.65,1085.11L898.65,1091.13L899.85,1097.14L899.85,1104.36L899.85,1111.58L901.05,1128.42L902.26,1138.05L903.46,1141.65L905.86,1156.09L905.86,1162.11L907.07,1166.92L907.07,1174.14" fill="none" stroke="#000000" style="-webkit-tap-highlight-color: rgba(0, 0, 0, 0); stroke-linecap: round; stroke-linejoin: round; stroke-width: 8;" /><path d="M851.73,188.87L852.93,188.87L855.34,186.47L860.15,182.86L864.96,180.45L878.2,174.44L884.21,170.83L889.02,167.22L891.43,163.61L893.83,161.2L897.44,158.8L902.26,157.59L907.07,156.39L911.88,156.39L922.71,157.59L928.72,157.59L934.74,158.8L940.75,158.8L946.77,158.8L950.38,158.8L953.98,160L957.59,162.41L961.2,162.41L969.62,163.61L973.23,164.81L976.84,166.02L980.45,167.22L984.06,168.42L987.67,170.83L991.28,170.83L994.89,169.62L997.29,169.62L998.5,170.83L1000.9,170.83L1002.11,172.03L1003.31,173.23L1005.71,174.44L1009.32,176.84L1011.73,176.84L1014.14,176.84L1016.54,178.05L1022.56,178.05L1026.17,178.05L1030.98,176.84L1035.79,176.84L1039.4,176.84L1050.23,176.84L1052.63,176.84L1056.24,176.84L1059.85,176.84L1063.46,175.64L1067.07,175.64L1069.47,175.64L1074.29,175.64L1079.1,174.44L1081.5,174.44" fill="none" stroke="#000000" style="-webkit-tap-highlight-color: rgba(0, 0, 0, 0); stroke-linecap: round; stroke-linejoin: round; stroke-width: 8;" /><path d="M1091.13,179.25L1093.53,178.05L1095.94,178.05L1099.55,179.25L1103.16,179.25L1106.77,179.25L1110.38,179.25L1115.19,180.45L1118.8,180.45L1126.02,180.45L1130.83,180.45L1135.64,180.45L1141.65,180.45L1145.26,181.65L1152.48,184.06L1153.68,184.06L1157.29,186.47L1160.9,186.47L1162.11,187.67L1168.12,188.87L1172.93,191.28L1176.54,192.48L1178.95,193.68L1182.56,193.68L1187.37,194.89L1192.18,196.09L1194.59,196.09L1199.4,197.29L1200.6,197.29L1206.62,198.5L1210.23,199.7L1212.63,200.9L1216.24,202.11L1218.65,204.51L1223.46,206.92L1225.86,206.92L1230.68,209.32L1233.08,210.53L1240.3,211.73L1243.91,212.93L1248.72,214.14L1253.53,215.34L1257.14,216.54L1263.16,216.54L1264.36,217.74L1270.38,218.95L1273.98,221.35L1278.8,222.56L1282.41,224.96L1286.02,226.17L1289.62,228.57L1293.23,229.77L1296.84,230.98L1301.65,233.38L1302.86,233.38L1305.26,233.38L1307.67,234.59L1311.28,235.79L1313.68,236.99L1317.29,238.2L1319.7,239.4L1322.11,240.6L1325.71,243.01L1328.12,245.41L1330.53,247.82L1332.93,250.23L1336.54,251.43L1338.95,252.63L1340.15,253.83L1342.56,255.04L1343.76,255.04L1347.37,257.44L1348.57,258.65L1358.2,264.66L1360.6,265.86L1363.01,268.27L1366.62,270.68L1369.02,271.88L1373.83,274.29L1375.04,275.49L1378.65,277.89L1379.85,279.1L1384.66,283.91L1385.86,283.91L1387.07,285.11L1389.47,287.52L1390.68,288.72L1393.08,291.13L1394.29,291.13L1396.69,292.33L1397.89,292.33L1401.5,295.94L1402.71,297.14L1403.91,299.55L1405.11,299.55L1406.32,300.75L1408.72,301.95L1411.13,303.16L1413.53,305.56L1415.94,305.56" fill="none" stroke="#000000" style="-webkit-tap-highlight-color: rgba(0, 0, 0, 0); stroke-linecap: round; stroke-linejoin: round; stroke-width: 8;" /><path d="M1355.79,321.2L1359.4,320L1363.01,318.8L1367.82,316.39L1373.83,315.19L1378.65,313.98L1385.86,313.98L1393.08,313.98L1406.32,312.78L1409.92,312.78L1424.36,311.58L1431.58,311.58L1438.8,311.58L1446.02,311.58L1452.03,311.58L1462.86,311.58L1467.67,311.58L1472.48,310.38L1476.09,310.38L1486.92,306.77L1492.93,305.56L1497.74,304.36L1502.56,303.16L1507.37,301.95L1513.38,300.75L1518.2,299.55L1521.8,299.55L1525.41,299.55L1530.23,299.55L1532.63,299.55L1536.24,299.55L1539.85,299.55L1542.26,299.55L1545.86,299.55L1550.68,299.55L1554.29,300.75L1556.69,301.95L1559.1,301.95L1562.71,303.16L1565.11,304.36L1567.52,304.36L1569.92,305.56L1571.13,306.77L1574.74,307.97L1575.94,310.38L1578.35,311.58L1580.75,312.78L1584.36,315.19L1586.77,316.39L1590.38,318.8L1593.98,320L1597.59,322.41" fill="none" stroke="#000000" style="-webkit-tap-highlight-color: rgba(0, 0, 0, 0); stroke-linecap: round; stroke-linejoin: round; stroke-width: 8;" /><path d="M1363.01,342.86L1359.4,342.86L1355.79,342.86L1354.59,342.86L1352.18,342.86L1350.98,342.86L1349.77,346.47L1349.77,351.28L1348.57,356.09L1348.57,362.11L1348.57,369.32L1348.57,375.34L1348.57,380.15L1348.57,388.57L1349.77,393.38L1350.98,398.2L1350.98,403.01L1350.98,409.02L1350.98,412.63L1350.98,416.24L1350.98,421.05L1350.98,425.86L1350.98,434.29L1350.98,439.1L1350.98,442.71L1349.77,448.72L1348.57,454.74L1347.37,460.75L1347.37,465.56L1347.37,471.58L1348.57,476.39L1349.77,482.41L1349.77,487.22L1350.98,494.44L1350.98,500.45L1352.18,508.87L1353.38,516.09L1353.38,522.11L1354.59,535.34L1353.38,544.96L1352.18,552.18L1353.38,559.4L1353.38,565.41L1354.59,573.83L1354.59,578.65L1354.59,583.46L1354.59,589.47L1354.59,594.29L1355.79,600.3L1355.79,605.11L1356.99,608.72L1358.2,611.13L1359.4,615.94L1360.6,618.35L1361.8,620.75L1361.8,621.95L1363.01,625.56L1366.62,627.97L1367.82,631.58L1369.02,635.19L1370.23,637.59L1371.43,643.61L1371.43,647.22L1372.63,652.03L1373.83,655.64L1373.83,659.25L1375.04,665.26L1376.24,671.28L1377.44,674.89L1378.65,678.5L1378.65,683.31L1378.65,688.12L1378.65,691.73L1379.85,694.14L1379.85,697.74L1381.05,703.76L1382.26,706.17L1383.46,714.59L1383.46,718.2L1384.66,729.02L1385.86,735.04L1385.86,742.26L1385.86,749.47L1385.86,755.49L1385.86,762.71L1385.86,768.72L1385.86,779.55L1385.86,783.16L1385.86,790.38L1385.86,797.59L1385.86,812.03L1387.07,818.05L1387.07,822.86L1387.07,826.47L1387.07,830.08L1387.07,833.68L1387.07,838.5L1385.86,849.32L1385.86,852.93L1385.86,857.74L1385.86,862.56L1385.86,866.17L1385.86,870.98L1385.86,874.59L1385.86,876.99L1385.86,880.6L1387.07,887.82L1388.27,890.23L1389.47,893.83L1391.88,897.44L1393.08,899.85L1393.08,903.46L1394.29,905.86L1395.49,909.47L1396.69,911.88L1399.1,917.89L1399.1,920.3L1400.3,922.71L1400.3,926.32L1401.5,928.72L1402.71,929.92L1403.91,932.33L1405.11,934.74L1406.32,937.14L1407.52,941.95L1408.72,944.36L1409.92,947.97L1409.92,950.38L1411.13,953.98L1412.33,956.39L1413.53,958.8L1413.53,960L1414.74,961.2L1414.74,967.22L1414.74,969.62L1414.74,970.83L1415.94,972.03L1415.94,973.23" fill="none" stroke="#000000" style="-webkit-tap-highlight-color: rgba(0, 0, 0, 0); stroke-linecap: round; stroke-linejoin: round; stroke-width: 8;" /><path d="M1504.96,344.06L1506.17,342.86L1508.57,342.86L1510.98,340.45L1510.98,342.86L1509.77,346.47L1507.37,352.48L1506.17,358.5L1504.96,363.31L1502.56,369.32L1501.35,378.95L1500.15,382.56L1498.95,390.98L1498.95,394.59L1498.95,403.01L1503.76,413.83L1504.96,418.65L1506.17,424.66L1507.37,428.27L1507.37,433.08L1508.57,439.1L1509.77,445.11L1510.98,451.13L1512.18,457.14L1512.18,463.16L1513.38,470.38L1513.38,476.39L1514.59,487.22L1515.79,490.83L1516.99,502.86L1519.4,514.89L1519.4,520.9L1520.6,526.92L1520.6,534.14L1521.8,540.15L1521.8,547.37L1523.01,559.4L1524.21,566.62L1524.21,575.04L1521.8,587.07L1521.8,594.29L1520.6,601.5L1520.6,607.52L1521.8,613.53L1523.01,619.55L1525.41,626.77L1526.62,629.17L1527.82,636.39L1527.82,638.8L1530.23,648.42L1530.23,652.03L1531.43,655.64L1532.63,660.45L1533.83,665.26L1535.04,674.89L1536.24,679.7L1537.44,684.51L1538.65,688.12L1541.05,698.95L1542.26,704.96L1543.46,710.98L1544.66,718.2L1545.86,725.41L1547.07,736.24L1548.27,739.85L1549.47,745.86L1550.68,755.49L1553.08,763.91L1554.29,769.92L1554.29,775.94L1554.29,781.95L1554.29,787.97L1555.49,793.98L1556.69,798.8L1555.49,813.23L1555.49,819.25L1555.49,824.06L1555.49,830.08L1555.49,834.89L1555.49,840.9L1554.29,846.92L1554.29,852.93L1554.29,858.95L1553.08,867.37L1550.68,876.99L1549.47,883.01L1548.27,889.02L1547.07,893.83L1547.07,898.65L1545.86,902.26L1545.86,905.86L1544.66,909.47L1544.66,914.29L1544.66,921.5L1544.66,923.91L1544.66,927.52L1544.66,928.72L1544.66,929.92L1545.86,932.33L1547.07,934.74L1548.27,937.14L1549.47,939.55L1551.88,944.36L1553.08,947.97L1554.29,950.38L1555.49,952.78L1556.69,955.19" fill="none" stroke="#000000" style="-webkit-tap-highlight-color: rgba(0, 0, 0, 0); stroke-linecap: round; stroke-linejoin: round; stroke-width: 8;" /><path d="M1424.36,976.84L1424.36,974.44L1425.56,975.64L1425.56,976.84L1425.56,978.05L1424.36,978.05L1423.16,978.05L1421.95,980.45L1421.95,981.65L1420.75,982.86L1420.75,986.47L1419.55,991.28L1418.35,997.29L1417.14,1004.51L1415.94,1012.93L1414.74,1022.56L1413.53,1027.37L1413.53,1032.18L1412.33,1035.79L1409.92,1041.8L1408.72,1047.82L1406.32,1053.83L1405.11,1059.85L1397.89,1075.49L1396.69,1081.5L1395.49,1086.32L1395.49,1092.33L1395.49,1094.74L1395.49,1100.75L1394.29,1103.16L1393.08,1111.58L1391.88,1116.39" fill="none" stroke="#000000" style="-webkit-tap-highlight-color: rgba(0, 0, 0, 0); stroke-linecap: round; stroke-linejoin: round; stroke-width: 8;" /><path d="M1229.47,838.5L1229.47,837.29L1228.27,839.7L1225.86,842.11L1223.46,844.51L1221.05,845.71L1218.65,848.12L1215.04,850.53L1210.23,867.37L1209.02,879.4L1209.02,884.21L1207.82,889.02L1207.82,896.24L1207.82,903.46L1207.82,911.88L1207.82,925.11L1207.82,927.52L1207.82,933.53L1207.82,944.36L1206.62,949.17L1205.41,955.19L1205.41,960L1205.41,967.22L1204.21,973.23L1204.21,980.45L1204.21,986.47L1204.21,992.48L1205.41,1004.51L1206.62,1009.32L1206.62,1015.34L1206.62,1022.56L1207.82,1028.57L1207.82,1033.38L1207.82,1038.2L1207.82,1043.01L1207.82,1047.82L1207.82,1055.04L1207.82,1062.26L1209.02,1065.86L1210.23,1070.68L1210.23,1076.69L1211.43,1081.5L1211.43,1086.32L1211.43,1091.13L1211.43,1095.94L1212.63,1100.75L1215.04,1104.36L1215.04,1105.56L1216.24,1107.97L1217.44,1109.17L1218.65,1110.38L1218.65,1111.58L1219.85,1111.58L1222.26,1112.78L1224.66,1115.19L1228.27,1117.59L1230.68,1120L1233.08,1121.2L1234.29,1123.61L1235.49,1126.02L1235.49,1128.42L1236.69,1130.83" fill="none" stroke="#000000" style="-webkit-tap-highlight-color: rgba(0, 0, 0, 0); stroke-linecap: round; stroke-linejoin: round; stroke-width: 8;" /><path d="M1216.24,848.12L1219.85,846.92L1222.26,846.92L1223.46,845.71L1228.27,845.71L1230.68,844.51L1233.08,844.51L1236.69,843.31L1240.3,843.31L1245.11,844.51L1247.52,845.71L1251.13,846.92L1253.53,849.32L1257.14,851.73L1260.75,852.93L1261.95,854.14L1263.16,856.54L1264.36,857.74L1266.77,863.76L1269.17,867.37L1271.58,869.77L1272.78,872.18L1273.98,875.79L1276.39,879.4L1276.39,881.8L1276.39,884.21L1277.59,885.41L1278.8,887.82L1280,892.63L1280,896.24L1281.2,899.85L1282.41,902.26L1284.81,904.66L1286.02,907.07L1287.22,910.68L1289.62,921.5L1290.83,925.11L1292.03,928.72L1293.23,932.33L1293.23,934.74L1294.44,938.35L1294.44,941.95L1294.44,946.77L1294.44,951.58L1293.23,958.8L1292.03,963.61L1292.03,967.22L1292.03,972.03L1292.03,975.64L1292.03,979.25L1292.03,984.06L1293.23,987.67L1294.44,991.28L1295.64,999.7L1296.84,1004.51L1298.05,1006.92L1299.25,1010.53L1300.45,1012.93L1301.65,1015.34L1302.86,1017.74L1304.06,1021.35L1305.26,1024.96L1307.67,1033.38L1308.87,1036.99L1310.08,1041.8L1311.28,1047.82L1312.48,1053.83L1313.68,1058.65L1313.68,1063.46L1314.89,1068.27L1314.89,1073.08L1316.09,1081.5L1317.29,1085.11L1318.5,1087.52L1318.5,1092.33L1318.5,1095.94L1317.29,1100.75L1317.29,1104.36L1316.09,1110.38L1316.09,1111.58L1316.09,1115.19L1316.09,1116.39L1318.5,1116.39" fill="none" stroke="#000000" style="-webkit-tap-highlight-color: rgba(0, 0, 0, 0); stroke-linecap: round; stroke-linejoin: round; stroke-width: 8;" /><path d="M21.65,249.02L20.45,249.02L20.45,247.82L20.45,246.62L20.45,245.41L22.86,245.41L26.47,244.21L32.48,245.41L36.09,246.62L39.7,249.02L43.31,250.23L49.32,252.63L55.34,255.04L63.76,258.65L68.57,261.05L72.18,262.26L78.2,262.26L81.8,263.46L85.41,264.66L87.82,267.07L90.23,267.07L91.43,267.07L99.85,269.47L103.46,270.68L107.07,270.68L110.68,270.68L114.29,271.88L119.1,271.88L123.91,270.68L131.13,270.68L133.53,270.68L137.14,270.68L145.56,270.68L150.38,269.47L152.78,269.47L155.19,269.47L157.59,270.68L160,271.88L163.61,274.29L166.02,275.49L168.42,277.89L170.83,279.1L174.44,280.3L175.64,282.71L178.05,283.91L179.25,285.11L182.86,285.11L186.47,286.32L187.67,286.32L191.28,287.52L192.48,288.72L196.09,288.72L198.5,291.13L200.9,291.13L203.31,292.33L205.71,294.74L206.92,294.74L210.53,297.14L215.34,299.55L217.74,299.55L227.37,301.95L232.18,303.16L236.99,304.36L240.6,305.56L246.62,306.77L252.63,309.17L258.65,312.78L261.05,312.78L265.86,315.19L270.68,316.39L275.49,318.8L280.3,320L283.91,321.2L287.52,321.2L292.33,323.61L294.74,323.61L299.55,324.81L305.56,326.02L309.17,326.02L311.58,327.22L313.98,328.42L317.59,329.62L322.41,329.62L327.22,330.83L328.42,330.83L333.23,330.83L334.44,332.03L336.84,332.03L338.05,332.03L341.65,333.23L344.06,334.44L346.47,334.44L347.67,335.64L352.48,338.05L353.68,339.25L358.5,341.65L360.9,342.86L364.51,342.86L368.12,345.26L370.53,345.26L374.14,346.47L376.54,346.47L377.74,346.47L382.56,347.67L388.57,348.87L392.18,350.08L396.99,351.28L400.6,352.48L405.41,352.48L411.43,352.48L419.85,353.68L422.26,353.68L429.47,354.89L431.88,354.89L437.89,354.89L439.1,354.89L440.3,354.89L441.5,356.09L442.71,356.09L445.11,357.29L446.32,357.29L448.72,358.5L452.33,359.7L455.94,360.9L457.14,362.11L458.35,363.31L461.95,364.51L461.95,365.71L463.16,365.71L465.56,366.92L466.77,369.32L470.38,370.53L472.78,370.53L475.19,371.73L477.59,372.93L481.2,374.14L482.41,374.14L483.61,375.34L486.02,375.34L488.42,375.34L489.62,375.34L492.03,375.34L493.23,375.34L496.84,375.34L498.05,375.34" fill="none" stroke="#000000" style="-webkit-tap-highlight-color: rgba(0, 0, 0, 0); stroke-linecap: round; stroke-linejoin: round; stroke-width: 8;" /><path d="M488.42,369.32L489.62,369.32L493.23,368.12L496.84,368.12L498.05,366.92L506.47,366.92L510.08,365.71L514.89,365.71L519.7,364.51L525.71,365.71L530.53,366.92L535.34,365.71L542.56,365.71L543.76,364.51L547.37,363.31L549.77,363.31L552.18,364.51L554.59,364.51L555.79,364.51L558.2,364.51L559.4,365.71L561.8,365.71L563.01,365.71L569.02,366.92L572.63,366.92L577.44,365.71L581.05,365.71L584.66,365.71L588.27,364.51L589.47,364.51L594.29,364.51L595.49,364.51L600.3,364.51L601.5,364.51L603.91,364.51L607.52,364.51L608.72,364.51L612.33,364.51L613.53,364.51L617.14,363.31L619.55,362.11L624.36,359.7L627.97,358.5L630.38,358.5L635.19,359.7L637.59,358.5L641.2,358.5L642.41,358.5L643.61,358.5L644.81,357.29L648.42,357.29L650.83,357.29L653.23,357.29L654.44,356.09L655.64,356.09L656.84,354.89L659.25,354.89L660.45,353.68L664.06,353.68L668.87,352.48L670.08,351.28L672.48,350.08L673.68,348.87L676.09,347.67L678.5,346.47L682.11,344.06L683.31,344.06L684.51,342.86L685.71,340.45L686.92,339.25L688.12,339.25L689.32,338.05L689.32,336.84L689.32,335.64L690.53,334.44L690.53,332.03L690.53,330.83L691.73,329.62L692.93,328.42L694.14,326.02L695.34,324.81L696.54,323.61L697.74,321.2L701.35,318.8L704.96,316.39L707.37,315.19L709.77,312.78L713.38,311.58L715.79,309.17L715.79,307.97L719.4,304.36L723.01,301.95L724.21,300.75L726.62,299.55L729.02,298.35L730.23,298.35L731.43,298.35L732.63,297.14L733.83,295.94L736.24,293.53L736.24,292.33L737.44,291.13L738.65,288.72L739.85,287.52L739.85,286.32L741.05,285.11L742.26,283.91L743.46,282.71L744.66,281.5L745.86,280.3L748.27,280.3L750.68,280.3L751.88,280.3L753.08,280.3L754.29,280.3L756.69,280.3L757.89,280.3L760.3,280.3L762.71,280.3L763.91,280.3L768.72,279.1L771.13,277.89L773.53,277.89L774.74,277.89L778.35,276.69L779.55,276.69L780.75,275.49L781.95,275.49L783.16,274.29L784.36,274.29L785.56,274.29L786.77,273.08L787.97,273.08L789.17,271.88L790.38,270.68L791.58,269.47L791.58,267.07L793.98,264.66L795.19,263.46L795.19,262.26L796.39,259.85L796.39,257.44L797.59,256.24L797.59,255.04L797.59,252.63L798.8,250.23L800,246.62L801.2,244.21L801.2,243.01L802.41,241.8L803.61,240.6L804.81,236.99L806.02,236.99L808.42,234.59L810.83,233.38L815.64,228.57L818.05,224.96L821.65,221.35L822.86,217.74L825.26,214.14L827.67,210.53L827.67,208.12L830.08,205.71L831.28,203.31L834.89,198.5L838.5,196.09L838.5,194.89L840.9,192.48L843.31,191.28L844.51,190.08L846.92,187.67L849.32,186.47L850.53,184.06L852.93,182.86L856.54,181.65L857.74,180.45L861.35,180.45L864.96,179.25L868.57,179.25L874.59,179.25L879.4,179.25" fill="none" stroke="#000000" style="-webkit-tap-highlight-color: rgba(0, 0, 0, 0); stroke-linecap: round; stroke-linejoin: round; stroke-width: 8;" /><path d="M806.02,289.92L806.02,288.72L808.42,285.11L810.83,282.71L813.23,280.3L816.84,277.89L818.05,277.89L819.25,277.89L818.05,281.5L815.64,286.32L813.23,291.13L809.62,300.75L807.22,306.77L804.81,312.78L804.81,316.39L803.61,321.2L803.61,322.41L801.2,327.22L801.2,329.62L801.2,334.44L801.2,339.25L801.2,344.06L801.2,348.87L801.2,353.68L802.41,359.7L802.41,363.31L804.81,371.73L804.81,376.54L806.02,381.35L807.22,384.96L809.62,389.77L812.03,394.59L815.64,398.2L819.25,406.62L820.45,406.62L825.26,413.83L827.67,416.24L830.08,419.85L831.28,422.26L833.68,424.66L834.89,428.27L834.89,431.88L836.09,435.49L836.09,436.69L838.5,443.91L839.7,447.52L839.7,451.13L840.9,454.74L840.9,459.55L842.11,463.16L842.11,465.56L843.31,470.38L843.31,472.78L843.31,478.8L844.51,483.61L844.51,487.22L844.51,489.62L844.51,492.03L845.71,495.64L845.71,499.25L845.71,502.86L846.92,506.47L848.12,508.87L849.32,517.29L849.32,520.9L850.53,525.71L850.53,530.53L850.53,535.34L850.53,540.15L851.73,543.76L852.93,550.98L854.14,554.59L854.14,559.4L855.34,563.01L855.34,567.82L855.34,570.23L856.54,572.63L856.54,576.24L856.54,581.05L857.74,585.86L857.74,589.47L858.95,597.89L858.95,601.5L858.95,605.11L858.95,611.13L858.95,615.94L858.95,619.55L858.95,624.36L858.95,627.97L858.95,632.78L860.15,638.8L860.15,642.41L858.95,646.02L858.95,649.62L857.74,653.23L857.74,658.05L857.74,661.65L857.74,665.26L857.74,668.87L860.15,673.68L861.35,678.5L862.56,683.31L863.76,688.12L864.96,692.93L866.17,696.54L868.57,700.15L869.77,702.56L869.77,704.96L869.77,709.77L869.77,712.18L868.57,715.79L869.77,719.4L868.57,721.8L867.37,723.01L866.17,724.21L863.76,727.82L862.56,730.23L861.35,732.63L860.15,735.04L858.95,739.85L858.95,741.05L858.95,742.26L858.95,743.46L857.74,745.86L857.74,748.27L856.54,749.47L856.54,750.68L856.54,751.88L855.34,754.29L855.34,756.69L854.14,761.5L854.14,763.91L852.93,767.52L852.93,769.92L854.14,774.74L854.14,778.35L854.14,780.75L854.14,784.36L855.34,787.97L856.54,791.58L857.74,795.19L857.74,796.39L858.95,797.59L860.15,801.2L860.15,802.41L860.15,806.02L860.15,808.42L858.95,809.62L858.95,812.03L858.95,814.44L858.95,815.64L857.74,821.65L857.74,824.06L856.54,825.26L856.54,826.47L856.54,830.08L856.54,832.48L855.34,834.89L855.34,836.09L854.14,839.7L854.14,840.9L854.14,844.51L854.14,846.92L854.14,848.12L854.14,849.32L852.93,851.73L852.93,854.14L850.53,858.95L850.53,860.15L848.12,867.37L846.92,869.77L845.71,872.18L844.51,875.79L843.31,878.2L840.9,880.6L839.7,884.21L838.5,886.62L836.09,887.82L834.89,890.23L831.28,895.04L828.87,898.65L826.47,899.85L825.26,902.26L822.86,903.46L821.65,903.46L819.25,904.66L816.84,904.66L814.44,905.86L808.42,907.07L807.22,907.07L806.02,907.07L804.81,907.07L803.61,908.27L802.41,908.27L798.8,909.47L797.59,910.68L795.19,913.08L795.19,914.29L792.78,916.69L792.78,919.1L791.58,922.71L790.38,926.32L789.17,927.52L789.17,931.13L789.17,932.33L790.38,935.94L790.38,938.35L790.38,939.55L790.38,941.95L790.38,944.36L791.58,947.97L791.58,949.17L791.58,952.78L791.58,956.39L791.58,958.8L790.38,961.2L790.38,963.61L791.58,966.02L791.58,969.62L791.58,973.23L791.58,974.44L791.58,978.05L791.58,979.25L791.58,981.65L792.78,984.06L792.78,986.47L792.78,988.87L791.58,990.08L791.58,992.48L791.58,996.09L790.38,998.5L790.38,999.7L790.38,1000.9L790.38,1002.11L790.38,1004.51L790.38,1006.92L790.38,1008.12L790.38,1010.53L790.38,1011.73L791.58,1016.54L791.58,1020.15L793.98,1022.56L795.19,1023.76L796.39,1026.17L797.59,1027.37L797.59,1029.77L798.8,1029.77L801.2,1030.98L801.2,1032.18L803.61,1033.38L806.02,1034.59L808.42,1035.79L809.62,1038.2L810.83,1039.4L815.64,1041.8L816.84,1043.01L820.45,1044.21L822.86,1045.41L826.47,1047.82L828.87,1050.23L831.28,1051.43L834.89,1052.63L838.5,1053.83L846.92,1055.04L850.53,1057.44L852.93,1059.85L855.34,1062.26L857.74,1064.66L858.95,1067.07L862.56,1069.47L863.76,1069.47L868.57,1073.08L872.18,1081.5L874.59,1086.32L878.2,1092.33L881.8,1097.14L885.41,1101.95L889.02,1105.56L893.83,1109.17" fill="none" stroke="#000000" style="-webkit-tap-highlight-color: rgba(0, 0, 0, 0); stroke-linecap: round; stroke-linejoin: round; stroke-width: 8;" /><path d="M46.92,1047.82L49.32,1050.23L52.93,1051.43L56.54,1052.63L63.76,1053.83L81.8,1056.24L92.63,1057.44L102.26,1058.65L114.29,1059.85L126.32,1059.85L138.35,1058.65L149.17,1058.65L160,1057.44L170.83,1057.44L188.87,1053.83L198.5,1051.43L206.92,1047.82L215.34,1044.21L223.76,1040.6L232.18,1039.4L239.4,1036.99L247.82,1035.79L255.04,1034.59L269.47,1032.18L285.11,1028.57L293.53,1027.37L301.95,1024.96L309.17,1022.56L317.59,1020.15L324.81,1018.95L332.03,1017.74L346.47,1014.14L353.68,1012.93L360.9,1011.73L368.12,1010.53L376.54,1008.12L383.76,1005.71L389.77,1003.31L396.99,1000.9L404.21,998.5L418.65,996.09L425.86,996.09L431.88,994.89L437.89,993.68L446.32,992.48L454.74,991.28L463.16,988.87L471.58,986.47L481.2,984.06L500.45,982.86L508.87,980.45L517.29,979.25L525.71,975.64L535.34,974.44L543.76,973.23L550.98,973.23L558.2,973.23L564.21,973.23L572.63,975.64L577.44,975.64L582.26,975.64L585.86,976.84L588.27,978.05L590.68,979.25L593.08,980.45L594.29,981.65L595.49,982.86L597.89,985.26L599.1,987.67L599.1,991.28L600.3,994.89L600.3,999.7L601.5,1003.31L603.91,1008.12L605.11,1012.93" fill="none" stroke="#000000" style="-webkit-tap-highlight-color: rgba(0, 0, 0, 0); stroke-linecap: round; stroke-linejoin: round; stroke-width: 8;" /><path d="M587.07,1016.54L588.27,1016.54L590.68,1018.95L593.08,1022.56L595.49,1026.17L597.89,1030.98L603.91,1038.2L606.32,1040.6L608.72,1044.21L611.13,1046.62L613.53,1049.02L617.14,1052.63L618.35,1055.04L621.95,1058.65L625.56,1061.05L633.98,1067.07L637.59,1070.68L641.2,1074.29L644.81,1076.69L648.42,1080.3L652.03,1083.91L656.84,1086.32L660.45,1087.52L665.26,1089.92L673.68,1095.94L678.5,1099.55L683.31,1104.36L686.92,1107.97L691.73,1111.58L695.34,1115.19L698.95,1118.8L702.56,1122.41L707.37,1127.22L713.38,1130.83" fill="none" stroke="#000000" style="-webkit-tap-highlight-color: rgba(0, 0, 0, 0); stroke-linecap: round; stroke-linejoin: round; stroke-width: 8;" /></svg>