<?xml version="1.0" encoding="utf-8" ?>
<svg baseProfile="full" height="1200" version="1.1" width="1600" xmlns="http://www.w3.org/2000/svg" xmlns:ev="http://www.w3.org/2001/xml-events" xmlns:xlink="http://www.w3.org/1999/xlink"><defs /><path d="M657,25L656,26L659,24L661,24L670,22L667,23L664,25L674,21L681,21L685,16L676,21L684,17" fill="none" stroke="#000000" style="-webkit-tap-highlight-color: rgba(0, 0, 0, 0); stroke-linecap: round; stroke-linejoin: round; stroke-width: 8;" /><path d="M825.44,1.41" fill="none" stroke="#000000" style="-webkit-tap-highlight-color: rgba(0, 0, 0, 0); stroke-linecap: round; stroke-linejoin: round; stroke-width: 8;" /><path d="M692,18L702,18L698,17L692,18L704,15L710,16L712,15L718,13L735,9L720,13L727,13L729,9" fill="none" stroke="#000000" style="-webkit-tap-highlight-color: rgba(0, 0, 0, 0); stroke-linecap: round; stroke-linejoin: round; stroke-width: 8;" /><path d="M833.92,1.41" fill="none" stroke="#000000" style="-webkit-tap-highlight-color: rgba(0, 0, 0, 0); stroke-linecap: round; stroke-linejoin: round; stroke-width: 8;" /><path d="M51,756L57,759L48,756L45,756L37,756L42,756L40,756L34,759L25,762L31,759L23,765L17,767L8,773L14,770L6,773L8,770L11,765L20,756L28,745" fill="none" stroke="#000000" style="-webkit-tap-highlight-color: rgba(0, 0, 0, 0); stroke-linecap: round; stroke-linejoin: round; stroke-width: 8;" /><path d="M113.07,838.16L113,841L110,841L110,844L113,844L116,847L124,847L139,852L133,849L155,852L147,852L178,862L161,852L178,862L178,849L181,849L184,849L189,849L192,849L201,849L195,849L204,849L206,861L212,861L221,862L215,862L212,861L221,862L223,862L229,867L226,863L232,866L235,866L237,867L240,867L240,867L252,866L254,866L240,865L257,866L260,866L263,866L266,866L269,866L269,869L274,872L271,869L277,872L280,875L283,878L290,890L295,888L297,888L298,888L298,888L309,889L309,889L311,889L311,889L319,891L322,889L320,889L328,889L331,889L336,886L345,885L354,886L359,886L372,887L381,890L367,887L377,889L390,893L386,891L384,891L387,892L390,894L393,894L396,895L398,895L404,896L401,896L406,896L410,897L417,898L417,898L416,898L410,897L434,892L426,898L434,892L435,891L438,889L445,887L452,886L447,886L455,885L458,885L461,886L463,886L466,888L469,888L474,891L471,889L478,893L479,893L482,894L484,895L492,898L495,898L503,899L500,901L506,899L509,902L514,905L512,902L517,905L520,905L522,905L529,908L531,909L539,908L546,910L536,909L548,913L553,911L565,908L553,911L569,911L571,912L574,914L584,915L580,915L588,918L596,920L593,919L599,921L605,925L613,927L617,928L611,926L622,933L637,931L623,933L631,929L642,931L656,936L647,934L661,936L668,936L673,935L673,935L673,935L697,936L697,936L697,936L698,923L704,923L715,920L710,920L721,917L727,917L741,927L741,927L741,927L747,926L750,926L755,927L758,927L765,925L766,925L779,926L766,925L779,926L788,921L790,918L792,917L790,918L801,918L794,916L803,912L806,911L822,912L810,909L808,910" fill="none" stroke="#000000" style="-webkit-tap-highlight-color: rgba(0, 0, 0, 0); stroke-linecap: round; stroke-linejoin: round; stroke-width: 8;" /><path d="M389,225L389,225L389,222L389,222L389,219L389,219L389,219L388,215L389,219L388,215L388,211L388,213L388,213L388,211L388,207L388,207L387,205L387,205L388,202L388,199L388,199L388,202L389,191L388,196L388,196L389,191L388,188L388,186L388,188L388,186L389,183L389,179L389,179L389,183" fill="none" stroke="#000000" style="-webkit-tap-highlight-color: rgba(0, 0, 0, 0); stroke-linecap: round; stroke-linejoin: round; stroke-width: 8;" /><path d="M958.3,24.03" fill="none" stroke="#000000" style="-webkit-tap-highlight-color: rgba(0, 0, 0, 0); stroke-linecap: round; stroke-linejoin: round; stroke-width: 8;" /><path d="M389,177L390,174L390,174L389,177" fill="none" stroke="#000000" style="-webkit-tap-highlight-color: rgba(0, 0, 0, 0); stroke-linecap: round; stroke-linejoin: round; stroke-width: 8;" /><path d="M391,168L391,168L392,165L392,165" fill="none" stroke="#000000" style="-webkit-tap-highlight-color: rgba(0, 0, 0, 0); stroke-linecap: round; stroke-linejoin: round; stroke-width: 8;" /><path d="M958.3,1.41" fill="none" stroke="#000000" style="-webkit-tap-highlight-color: rgba(0, 0, 0, 0); stroke-linecap: round; stroke-linejoin: round; stroke-width: 8;" /><path d="M392,163L391,160L392,163L391,160L391,156L391,156L392,153L392,153L393,149L394,143L394,143L393,149L394,143L394,143L394,143L394,143L394,143L394,143L395,132L395,132L395,132L395,132L395,133L395,133L395,140L395,140" fill="none" stroke="#000000" style="-webkit-tap-highlight-color: rgba(0, 0, 0, 0); stroke-linecap: round; stroke-linejoin: round; stroke-width: 8;" /><path d="M958,7L958,13L958,21L958,1L958,10L958,24L970,33L958,16L973,49L969,40L974,54" fill="none" stroke="#000000" style="-webkit-tap-highlight-color: rgba(0, 0, 0, 0); stroke-linecap: round; stroke-linejoin: round; stroke-width: 8;" /><path d="M964,66L964,75L964,86L964,81L964,92L964,98L964,103L964,109L964,114L964,120L964,126L967,129L967,134L980.92,69.26L967,137L967,143L967,146L967,148L967,154L967,160L967,157L967,168L967,165L967,174L970,182L967,180L967,171L970,188L970,191L972,202L970,196L972,225L972,208L972,219L972,213L972,230L972,236L972,242L985,247L985,264L985,253L985,267L985,259L985,267L985,270" fill="none" stroke="#000000" style="-webkit-tap-highlight-color: rgba(0, 0, 0, 0); stroke-linecap: round; stroke-linejoin: round; stroke-width: 8;" /><path d="M985,64L984,66L986,61L978,58L976,58L978,58L976,58L976,58L976,58L979,72L976,81L975,82L976,89L979,97L981,106L981,112L981,117L982,125L981,120L983,129L982,134L982,135L983,140L983,143L984,157L983,150L984,164L983,148L981,177L981,182L984,168L982,175L982,188L982,190L984,201L983,194L984,208L984,210L972,219L972,228L972,233L972,242L972,236L984,242L985,247L985,253L985,259L985,256L985,261L985,267L985,270L985,264L985,273L985,276L986,280L986,284L986,286L986,290L988,298L988,303L986,290L987,310L986,314L987,310L986,315L986,318L986,320L987,324L987,327L987,332L987,333L987,341L987,343L987,349L987,352L987,359L988,363L987,359L988,366L988,375L988,372L988,369L991,380L992,393L992,382L992,387L992,391L992,396L991,402L991,400L989,406L990,410L990,417L990,414L990,411L990,420L990,423L989,428L990,425L989,431L989,434L989,437L990,448L989,442L991,451L991,454L992,462L991,457L992,468L992,473L992,476L992,479L992,484L992,490L993,496L993,497L994,505L994,510L994,516L994,518L995,522L995,524L996,530L996,533L995,524L996,536L996,541L996,544L996,539L996,547L996,555L996,553L996,550L996,558L997,567L996,561L997,572L1001,575L1000,581L1002,589L1002,592L1002,584L1001,599L1000,609L1000,612L1000,604L1000,618L1003,635L1002,627L1000,629L1001,640L1001,643L1001,651L1001,644L1001,652L1001,662L1001,654L1001,666L1001,657L1006,679L1004,674L1006,677L1006,672L1005,683L1003,687L1004,685L1002,690L1005,705L1004,697L1003,696L1006,700L1000,717L1001,713L1006,707L1002,724L1009,738L1006,730L1005,728L1009,739L1009,750L1011,742L1011,745L1010,748L1014,756L1008,755L1009,754L1015,756L1016,759L1014,764L1014,767L1016,763L1013,771L1014,772L1015,776L1018,776L1014,779L1014,779L1014,779L1009.19,756.18L1006,754L1005,756L1004,751L1001,753L998,755L1000,759L998,763L996,768L994,773L993,779L992,784L992,790L993,796L993,799L995,810L993,803L995,810L996,821L994,829L995,823L994,833L994,835L995,841L993,852L993,852L992,854L991,856L990,858L991,861L991,862L992,864L993,866L995,871L994,879L996,875L994,879L992,881L995,871L996,875L992,881L996,875L992,888L992,888L991,894L992,893L990,898L990,900L988,903L989,900L988,903L987,906L984,909L981,912L978,919L984,912L975,920L973,923L971,926L975,923L964,934" fill="none" stroke="#000000" style="-webkit-tap-highlight-color: rgba(0, 0, 0, 0); stroke-linecap: round; stroke-linejoin: round; stroke-width: 8;" /><path d="M965,931L969,929L966,934L965,931L965,937L964,934L965,929L968,927" fill="none" stroke="#000000" style="-webkit-tap-highlight-color: rgba(0, 0, 0, 0); stroke-linecap: round; stroke-linejoin: round; stroke-width: 8;" /><path d="M814.13,906.01L812,906L814,903L813,904L813,904L819,902L831,905L842,905L849,911L849,911L873,916L873,916L878,915L882,914L887,915L896,915L897,914L899,913L908,919L908,919L910,920L912,918L918,920L922,920L927,923L929,924L941,924L941,924L932,925L941,924" fill="none" stroke="#000000" style="-webkit-tap-highlight-color: rgba(0, 0, 0, 0); stroke-linecap: round; stroke-linejoin: round; stroke-width: 8;" /><path d="M1264,671L1264,674L1264,677L1264,680L1266,686L1277,686L1266,683L1277,686L1278,691L1278,691L1278,694L1278,697L1278,702L1278,705L1278,700L1278,708L1278,711L1280,717L1279,714L1280,719L1280,722L1280,725L1280,727L1281,729L1283,735L1283,739L1283,736L1283,739L1285,748L1285,745L1284,754L1284,754L1284,759L1281,765L1284,756L1280,766L1281,766L1281,776L1281,773L1281,770L1283,779L1283,782L1284,784L1285,787L1287,793L1287,799L1287,796L1286,789L1287,802L1287,802L1287,801L1287,802" fill="none" stroke="#000000" style="-webkit-tap-highlight-color: rgba(0, 0, 0, 0); stroke-linecap: round; stroke-linejoin: round; stroke-width: 8;" /><path d="M1257.95,614.84L1258,612L1258,609L1261,606L1264,606L1276,606L1276,609L1276,606L1276,609L1276,609L1276,609L1276,609L1292,609L1289,609L1295,609L1300,609L1303,609L1306,609L1309,609L1312,612L1314,615L1314,612L1317,618L1320,618L1320,620L1323,623L1323,626L1326,632L1326,637L1326,640L1326,646L1329,652L1329,657L1329,663L1329,669L1331,674L1331,677L1331,683L1331,686L1334,688L1334,691L1334,694L1337,700L1334,697L1337,702L1337,705L1337,711L1337,714L1337,719" fill="none" stroke="#000000" style="-webkit-tap-highlight-color: rgba(0, 0, 0, 0); stroke-linecap: round; stroke-linejoin: round; stroke-width: 8;" /><path d="M1337,725L1337,728L1337,734L1337,739L1340,745L1340,751L1343,759L1346,762L1346,767L1348,767" fill="none" stroke="#000000" style="-webkit-tap-highlight-color: rgba(0, 0, 0, 0); stroke-linecap: round; stroke-linejoin: round; stroke-width: 8;" /><path d="M1272.08,614.84L1276,615L1276,612L1276,609L1276,606L1276,604L1276,601L1276,601L1276,598L1289,598L1295,601L1300,601L1303,601L1314,604L1306,604L1312,604L1314,606L1317,606L1317,609L1320,609L1320,612L1320,618L1320,623L1320,626L1323,632L1323,637L1326,649L1326,654L1323,643L1329,660L1331,666L1334,677L1337,683L1334,671L1337,691L1337,697L1340,714L1337,705" fill="none" stroke="#000000" style="-webkit-tap-highlight-color: rgba(0, 0, 0, 0); stroke-linecap: round; stroke-linejoin: round; stroke-width: 8;" /><path d="M1340,736L1340,728L1340,719L1343,742L1346,759L1343,751L1348,770L1346,765L1351,784L1351,779L1351,793L1351,790L1362.54,838.16L1354,793L1354,790L1364,841L1359,842L1357,843L1358,834L1357,830L1356,827L1354,813L1351,807L1351,799L1348,796L1348,793L1346,790L1346,787L1346,776L1346,782L1343,762L1343,767L1343,753L1343,759L1343,751L1343,745L1343,739L1343,731L1343,725L1340,717L1340,708L1340,700L1340,688" fill="none" stroke="#000000" style="-webkit-tap-highlight-color: rgba(0, 0, 0, 0); stroke-linecap: round; stroke-linejoin: round; stroke-width: 8;" /><path d="M1340,666L1340,654L1340,680L1340,643L1340,632L1334,615L1337,623L1331,609L1329,609L1329,606L1326,606L1326,609" fill="none" stroke="#000000" style="-webkit-tap-highlight-color: rgba(0, 0, 0, 0); stroke-linecap: round; stroke-linejoin: round; stroke-width: 8;" /><path d="M1458.66,787.28L1456,793L1453,796L1450,799L1447,801L1447,804L1447,801L1445,799L1445,796L1445,790L1445,793L1442,784L1445,787L1442,782L1442,779L1439,773L1439,770L1439,765L1439,762L1439,759L1439,753L1439,751L1439,745L1439,742L1439,736L1439,734L1439,728L1439,717L1439,711L1439,722L1439,708L1439,705L1445,694L1442,697L1439,700L1450,686L1447,688L1453,683L1456,680L1459,680L1461,677L1464,677L1470,677L1476,677L1487,674L1481,674L1493,671L1495,671L1504,666L1501,669L1507,666L1510,663L1518,666L1521,671L1512,663L1524,674L1527,680L1529,688L1529,686L1529,691L1532,691L1532,694L1535,702L1532,697L1538,719L1538,714L1541,725L1535,708L1541,728L1543,739L1543,734L1543,745L1543,753L1543,748L1543,756" fill="none" stroke="#000000" style="-webkit-tap-highlight-color: rgba(0, 0, 0, 0); stroke-linecap: round; stroke-linejoin: round; stroke-width: 8;" /><path d="M1546,759L1546,770L1546,765L1546,767L1549,773L1549,779L1549,776L1549,782L1549,784" fill="none" stroke="#000000" style="-webkit-tap-highlight-color: rgba(0, 0, 0, 0); stroke-linecap: round; stroke-linejoin: round; stroke-width: 8;" /><path d="M1314.49,860.78" fill="none" stroke="#000000" style="-webkit-tap-highlight-color: rgba(0, 0, 0, 0); stroke-linecap: round; stroke-linejoin: round; stroke-width: 8;" /><path d="M1549,787L1549,799L1549,793L1549,804L1552,807L1552,813L1552,816L1552,818L1555,821L1558,821" fill="none" stroke="#000000" style="-webkit-tap-highlight-color: rgba(0, 0, 0, 0); stroke-linecap: round; stroke-linejoin: round; stroke-width: 8;" /><path d="M1300,854L1307,858L1298,847L1299,844L1296,842L1299,841L1295,830L1308,833L1335,832L1319,833L1308,833L1343,831L1354,827L1373,832L1358,831L1380,832L1383,832L1393,837L1393,837L1402,845L1402,845L1425,851L1419,851L1432,853L1439,853L1447,853L1451,855L1461,855L1467,854L1481,856L1473,855L1490,853L1493,853L1507,851L1512,853L1501,851L1515,853L1524,851L1525,850L1529,848L1531,848L1535,848L1538,847L1541,847L1543,847L1545,847L1549,851L1554,849L1555,849L1557,849L1560,848L1565,847L1563,846" fill="none" stroke="#000000" style="-webkit-tap-highlight-color: rgba(0, 0, 0, 0); stroke-linecap: round; stroke-linejoin: round; stroke-width: 8;" /><path d="M1569,847L1572,846L1572,844L1575,842L1577,842L1577,842L1580,842L1581,842L1584,843L1584,843L1584,843L1584,843L1596,846L1596,846L1596,846" fill="none" stroke="#000000" style="-webkit-tap-highlight-color: rgba(0, 0, 0, 0); stroke-linecap: round; stroke-linejoin: round; stroke-width: 8;" /><path d="M938.52,939.93L930,939L936,939L932,940L950,938L959,937L969,934L980,935L999,938L1008,941L1021,940L1032,937L1040,939L1048,943L1057,943L1060,947L1071,945L1080,949L1089,950L1087,950L1097,948L1119,941L1106,946L1113,946L1128,941L1134,940L1140,939L1149,935L1153,933L1160,929L1164,925L1183,924L1183,924L1171,920L1204,922L1229,913L1218,915L1211,917L1232,913L1241,912L1242,913L1249,912" fill="none" stroke="#000000" style="-webkit-tap-highlight-color: rgba(0, 0, 0, 0); stroke-linecap: round; stroke-linejoin: round; stroke-width: 8;" /><path d="M1247,762L1249,762L1255,762L1241,762L1269,762L1280,766L1261,762L1266,762L1284,759L1284,759L1284,759L1280,766L1285,753L1285,753L1284,759L1284,759L1285,753" fill="none" stroke="#000000" style="-webkit-tap-highlight-color: rgba(0, 0, 0, 0); stroke-linecap: round; stroke-linejoin: round; stroke-width: 8;" /><path d="M381.63,250.18L386,247L387,242L386,246L386,246L385,252L384,254L380,263L379,270L379,265L367,276L376,291L374,293L370,297L364,301L365,300L360,306L359,310L357,312L356,314L353,314L353,318L351,320L351,318L348,320L345,321L339,320L342,320L336,321L335,321L328,320L331,319L325,324L322,324L317,328L319,326L312,330L308,332L304,335L302,335L297,338L295,338L288,340L291,342L287,342L283,343L275,348L274,349L271,352L269,352L262,358L263,355L250,356L250,356L245,358L249,357L242,361L240,361L235,360L229,363L232,359L223,362L218,362L213,366L209,364L204,365L199,366L197,366L190,367L187,371L187,371L175,372L164,376L160,375L153,379L145,383L152,379L144,383L139,382L135,380L135,380L130,381L123,379L122,374L116,377L116,377L106,372L102,373L104,373L93,374L100,375L88,374L82,374L79,379L75,379L67,376L62,377L57,377L55,377L42,383L51,379L37,382L38,382" fill="none" stroke="#000000" style="-webkit-tap-highlight-color: rgba(0, 0, 0, 0); stroke-linecap: round; stroke-linejoin: round; stroke-width: 8;" /><path d="M35,382L27,378L27,378L26,378L26,378L18,379L14,377L11,374L15,377L8,376L8,377L7,377L6,380L3,381L7,389L3,381" fill="none" stroke="#000000" style="-webkit-tap-highlight-color: rgba(0, 0, 0, 0); stroke-linecap: round; stroke-linejoin: round; stroke-width: 8;" /><path d="M384.45,148.41L379,146L376,148L376,154L379,163L389,176L388,196L388,186L388,213L387,205L389,225L389,219L393,232L389,228L394,239L392,245L392,247L392,251L390,255L390,255L387,259L396,273L396,276L396,281L396,284L396,290L396,293L383,295L383,296L383,296L387,317L382,309L387,317L387,317L387,318L386,320L385,321L380,331L383,344L380,331L383,344L380,346L380,355L381,348L379,358L378,362L373,368L373,368L374,375L373,377L373,377L371,383L371,391L373,392L372,400L373,392L371,395L372,400L375,407L376,410L376,407L375,414L377,417L376,420L375,422L374,423L371,427L371,427L371,427L371,427L376,452L376,452L376,452L376,452L375,454L377,457L376,462L377,459L376,464L376,464L370,474L370,474L371,478L371,477L369,483L369,483L371,496L371,498L371,496L370,501L367,510L367,510L367,510L369,534L369,534L369,534L371,544L370,538L369,547L369,549L371,561L371,561L369,573L372,566L365,584L367,580L364,589L365,595L364,602L365,598L365,606L362,618L365,606L362,626L362,620L362,629L362,637L362,635L362,640L362,649L362,643L362,652L362,654L362,663L362,666L362,660L362,669L362,680L362,674L362,677L362,683L362,688L362,686L362,691L362,694L362,697L362,700L362,702L362,705L362,708L362,717L362,711L362,719L362,725L371,739L362,728L362,722L371,739L371,739L370,742L369,745L368,749L369,745L368,751L365,757L364,762L363,767L364,759L363,765L362,773L361,776L362,778L363,782L363,787L363,796L363,799L363,790L363,801L365,804L363,802L363,802L356,816L356,818L356,821L356,824L356,827L356,833L356,835L356,830L356,838L356,841L356,847L356,844L356,849L356,852L356,855L356,861L356,858L359,866L356,864L359,869L359,872L362,886L362,875L362,886L359,886L356,886L356,886L356,886L359,886" fill="none" stroke="#000000" style="-webkit-tap-highlight-color: rgba(0, 0, 0, 0); stroke-linecap: round; stroke-linejoin: round; stroke-width: 8;" /><path d="M695.41,931.45L697,936L695,937L693,937L693,937L693,937L697,936L697,936L697,936L695,920L693,912L695,914L693,909L690,909L690,906L687,900L687,903L687,898L687,895L687,886L687,889L687,881L687,878L687,872L690,864L687,869L690,861L690,858L690,852L690,849L690,847L690,841L690,835L690,833L690,821L690,827L690,818L690,813L690,807L690,804L690,801L693,799L693,793L693,796L695,787L693,790L695,784L698,776L698,773L698,779L698,765L698,770L698,762L698,767L698,748L698,759L698,753L698,756L698,745L701,739L701,734L701,728L701,722L704,717L704,711L704,714L707,694L704,700L707,697L704,705L707,691L710,688L712,680L710,686L724,671L715,677L718,674L721,671L729,666L732,663L727,669L735,660L741,657L738,657L743,654L746,652L758,646L749,652L752,649L755,646L760,646L774,649L774,649L763,646L775,650L774,649L774,649L778,652L781,653L786,656L783,654L783,654L789,658L789,658L791,659L791,659L795,661L797,663L803,669L800,666L803,670" fill="none" stroke="#000000" style="-webkit-tap-highlight-color: rgba(0, 0, 0, 0); stroke-linecap: round; stroke-linejoin: round; stroke-width: 8;" /><path d="M806,673L805,671L808,676L810,679L813,685L812,683L814,687L816,689L818,693L819,695L818,693L820,700L821,701L820,700L823,708L822,705L823,711" fill="none" stroke="#000000" style="-webkit-tap-highlight-color: rgba(0, 0, 0, 0); stroke-linecap: round; stroke-linejoin: round; stroke-width: 8;" /><path d="M1314.49,185.16L1320,184L1322,181L1323,180L1326,177L1329,173L1327,174L1331,171L1334,168L1335,168L1335,168L1344,163L1344,162L1345,161L1345,161L1351,157L1351,157L1351,157L1358,153L1358,153L1364,149L1367,145L1369,144L1375,137L1372,142L1377,136L1380,132L1390,129L1387,133L1393,126L1396,123L1405,120L1399,123L1408,120L1414,117L1422,116L1428,112L1415,118L1433,109L1439,105L1441,105L1447,102L1452,100L1457,96L1457,96L1467,96L1471,95L1475,93L1483,90L1478,93L1487,89L1489,88L1493,86L1495,85L1497,86L1497,86L1510,88L1504,90L1511,86L1511,86L1519,85L1521,84L1525,84L1528,81L1533,79L1535,78L1539,77L1544,78L1549,76L1546,77L1552,76L1557,76" fill="none" stroke="#000000" style="-webkit-tap-highlight-color: rgba(0, 0, 0, 0); stroke-linecap: round; stroke-linejoin: round; stroke-width: 8;" /><path d="M1555,76L1557,76L1568,74L1568,74L1577,71L1569,74L1577,71L1579,70L1582,70L1579,70L1580,70L1582,70L1594,69L1594,69L1594,69L1598,70L1594,69" fill="none" stroke="#000000" style="-webkit-tap-highlight-color: rgba(0, 0, 0, 0); stroke-linecap: round; stroke-linejoin: round; stroke-width: 8;" /><path d="M1235.34,77.74L1218,78L1227,78L1221,75L1218,75L1224,75L1227,75L1230,75L1230,78L1227,78L1227,81L1227,78L1230,66L1242,51L1242,48L1243,35L1243,38L1243,38L1243,41L1242,48L1242,51L1243,52L1247,64L1247,66L1247,69" fill="none" stroke="#000000" style="-webkit-tap-highlight-color: rgba(0, 0, 0, 0); stroke-linecap: round; stroke-linejoin: round; stroke-width: 8;" /><path d="M1246,78L1246,72L1246,81L1246,86L1235,92L1246,89L1235,98L1235,100L1235,103L1245,114L1245,114L1245,114L1245,114L1245,114L1246,114L1248,106L1232.51,83.39L1233,86L1230,89L1227,92L1227,98L1224,103L1224,106L1224,112L1227,114L1227,117L1245,114L1230,117L1245,114L1247,125L1248,128L1248,128L1248,128L1249,134L1249,134L1250,138L1251,143L1252,146L1252,151L1252,146L1252,152L1252,157L1252,165L1252,163L1253,171L1251,187L1253,182L1253,177L1253,174L1251,188L1252,194L1252,196L1253,202L1253,205L1254,216L1253,206L1254,211L1254,221L1253,230L1253,230L1253,236L1251,242L1253,249L1251,243L1253,249L1253,249L1253,249L1249,264L1247,261L1249,267L1252,270L1255,276L1252,273L1255,278L1256,294L1256,294L1256,294L1257,295L1259,297L1261,305L1262,309L1262,309L1262,324L1263,319L1262,326L1264,333L1252,346L1252,343L1252,338L1252,352L1252,355L1252,360L1252,363L1252,366L1255,372L1252,369L1255,380L1255,377L1258,383L1258,386L1258,392L1258,389L1258,394L1258,397L1261,400L1261,403L1261,406L1261,408L1261,411L1261,414L1261,417L1261,420L1261,423L1261,428L1261,437L1261,431L1261,445L1261,457L1261,442L1261,451L1261,462L1261,473L1261,476L1261,468L1261,482L1261,488L1261,499L1261,493L1272,507L1272,517L1272,513L1273,526L1273,524L1273,526L1266,539L1269,550L1266,544L1269,555L1269,567L1269,561L1272,572L1275,591L1276,601L1275,591L1275,594L1276,606L1276,612L1276,619L1277,626L1276,633L1276,640L1261,654L1264,649L1258,660L1258,666L1258,669L1258,674L1258,677L1258,680L1258,683L1261,686L1261,688L1264,691L1264,694L1266,697L1266,700L1278,702L1278,705L1278,711L1279,714L1279,714L1280,719L1280,722L1280,725L1280,727L1281,729L1283,735L1283,736L1283,739L1285,748L1284,741L1285,751L1283,763L1281,765L1284,756L1281,770L1281,776L1285,788L1283,782L1287,796L1287,801L1287,802L1287,802L1281,816L1281,821L1281,830L1281,824L1281,833L1278,841L1281,835" fill="none" stroke="#000000" style="-webkit-tap-highlight-color: rgba(0, 0, 0, 0); stroke-linecap: round; stroke-linejoin: round; stroke-width: 8;" /><path d="M1278,835L1278,838L1287,853L1286,854L1287,853L1286,854L1286,854L1286,855L1285,859L1286,858L1285,861L1285,864L1285,869L1286,867L1283,869" fill="none" stroke="#000000" style="-webkit-tap-highlight-color: rgba(0, 0, 0, 0); stroke-linecap: round; stroke-linejoin: round; stroke-width: 8;" /><path d="M944.17,925.8" fill="none" stroke="#000000" style="-webkit-tap-highlight-color: rgba(0, 0, 0, 0); stroke-linecap: round; stroke-linejoin: round; stroke-width: 8;" /><path d="M1277,879L1284,872L1281,875L1279,876L1278,892L1276,885L1277,886L1278,889L1278,899L1281,898L1277,894L1281,900L1283,904L1283,899L1284,910L1283,902L1284,914L1284,912L1283,923L1283,915L1283,923L1283,923L1283,923L1281,924" fill="none" stroke="#000000" style="-webkit-tap-highlight-color: rgba(0, 0, 0, 0); stroke-linecap: round; stroke-linejoin: round; stroke-width: 8;" /></svg>