<?xml version="1.0" encoding="utf-8" ?>
<svg baseProfile="full" height="1200" version="1.1" width="1600" xmlns="http://www.w3.org/2000/svg" xmlns:ev="http://www.w3.org/2001/xml-events" xmlns:xlink="http://www.w3.org/1999/xlink"><defs /><path d="M1000.9,7.22L998.5,8.42L997.29,9.62L996.09,12.03L993.68,13.23L990.08,16.84L987.67,20.45L985.26,22.86L982.86,26.47L980.45,27.67L979.25,28.87L978.05,31.28L975.64,32.48L974.44,34.89L973.23,36.09L972.03,38.5L972.03,40.9L972.03,44.51L972.03,51.73L972.03,56.54L972.03,58.95L972.03,61.35L972.03,63.76L972.03,66.17L972.03,68.57L972.03,74.59L972.03,78.2L973.23,81.8L973.23,84.21L973.23,87.82L973.23,92.63L974.44,97.44L974.44,102.26L974.44,105.86L974.44,117.89L975.64,122.71L975.64,126.32L976.84,129.92L976.84,133.53L976.84,138.35L976.84,143.16L976.84,149.17L976.84,155.19L976.84,163.61L978.05,168.42L978.05,173.23L978.05,178.05L978.05,181.65L979.25,186.47L979.25,190.08L979.25,202.11L979.25,206.92L979.25,211.73L979.25,216.54L979.25,221.35L978.05,226.17L978.05,230.98L978.05,236.99L978.05,243.01L979.25,249.02L979.25,255.04L980.45,265.86L980.45,270.68L980.45,275.49L981.65,281.5L981.65,287.52L981.65,291.13L981.65,293.53L981.65,297.14L981.65,299.55L982.86,305.56L982.86,309.17L982.86,311.58L982.86,313.98L982.86,317.59L982.86,321.2L984.06,324.81L984.06,328.42L985.26,332.03L986.47,336.84L986.47,339.25L986.47,342.86L987.67,346.47L987.67,350.08L987.67,353.68L987.67,356.09L987.67,360.9L988.87,366.92L988.87,370.53L990.08,375.34L990.08,378.95L990.08,381.35L991.28,383.76L991.28,384.96L991.28,386.17L992.48,388.57L992.48,390.98L992.48,395.79L992.48,396.99L992.48,400.6L992.48,403.01L991.28,405.41L991.28,409.02L991.28,412.63L992.48,416.24L993.68,423.46L993.68,425.86L994.89,429.47L997.29,437.89L997.29,443.91L998.5,447.52L999.7,451.13L1000.9,458.35L1002.11,461.95L1002.11,464.36L1002.11,469.17L1002.11,483.61L1002.11,487.22L1002.11,492.03L1002.11,494.44L1002.11,498.05L1000.9,500.45L1000.9,502.86L1000.9,505.26L1000.9,507.67L999.7,511.28L999.7,514.89L999.7,516.09L999.7,517.29L999.7,520.9L999.7,523.31L999.7,524.51L999.7,529.32L1000.9,532.93L1000.9,538.95L1000.9,542.56L1000.9,546.17L1000.9,549.77L1000.9,553.38L1000.9,556.99L1002.11,560.6L1002.11,565.41L1003.31,571.43L1004.51,582.26L1004.51,587.07L1004.51,591.88L1004.51,595.49L1004.51,597.89L1004.51,602.71L1003.31,606.32L1004.51,611.13L1004.51,615.94L1004.51,623.16L1005.71,631.58L1005.71,635.19L1005.71,638.8L1006.92,642.41L1006.92,644.81L1008.12,648.42L1008.12,653.23L1008.12,668.87L1006.92,672.48L1006.92,674.89L1006.92,679.7L1006.92,684.51L1006.92,689.32L1006.92,692.93L1005.71,701.35L1005.71,704.96L1005.71,709.77L1005.71,714.59L1005.71,720.6L1005.71,726.62L1005.71,730.23L1005.71,735.04L1006.92,739.85L1006.92,748.27L1006.92,751.88L1006.92,755.49L1006.92,759.1L1005.71,763.91L1005.71,767.52L1004.51,769.92L1004.51,773.53L1003.31,775.94L1002.11,784.36L1000.9,789.17L999.7,791.58L999.7,796.39L998.5,800L997.29,803.61L997.29,808.42L996.09,812.03L994.89,814.44L992.48,821.65L991.28,825.26L991.28,827.67L990.08,831.28L988.87,833.68L987.67,837.29L986.47,840.9L985.26,844.51L985.26,848.12L985.26,851.73L984.06,858.95L985.26,861.35L985.26,863.76L985.26,867.37L984.06,869.77L984.06,873.38L984.06,874.59L984.06,876.99L982.86,880.6L982.86,881.8L981.65,884.21L981.65,887.82L980.45,891.43L980.45,893.83L978.05,899.85L975.64,904.66L973.23,905.86L972.03,908.27L972.03,910.68L970.83,911.88L969.62,915.49L967.22,917.89L966.02,919.1L964.81,922.71L962.41,926.32L960,929.92" fill="none" stroke="#000000" style="-webkit-tap-highlight-color: rgba(0, 0, 0, 0); stroke-linecap: round; stroke-linejoin: round; stroke-width: 8;" /><path d="M1236.69,3.61L1237.89,4.81L1240.3,7.22L1240.3,10.83L1241.5,14.44L1241.5,16.84L1241.5,21.65L1240.3,34.89L1240.3,40.9L1240.3,46.92L1241.5,51.73L1241.5,57.74L1241.5,62.56L1241.5,68.57L1242.71,75.79L1241.5,80.6L1242.71,87.82L1242.71,98.65L1242.71,104.66L1242.71,108.27L1242.71,113.08L1242.71,117.89L1242.71,121.5L1243.91,126.32L1243.91,132.33L1243.91,140.75L1245.11,144.36L1245.11,150.38L1245.11,155.19L1245.11,160L1245.11,166.02L1245.11,169.62L1246.32,174.44L1246.32,178.05L1247.52,180.45L1247.52,187.67L1248.72,191.28L1248.72,194.89L1248.72,198.5L1248.72,200.9L1249.92,204.51L1249.92,209.32L1251.13,214.14L1251.13,217.74L1252.33,224.96L1252.33,228.57L1252.33,230.98L1253.53,234.59L1253.53,238.2L1253.53,241.8L1253.53,245.41L1253.53,249.02L1253.53,259.85L1254.74,263.46L1254.74,267.07L1254.74,270.68L1254.74,274.29L1255.94,277.89L1255.94,281.5L1255.94,286.32L1257.14,293.53L1257.14,297.14L1257.14,301.95L1258.35,304.36L1258.35,307.97L1259.55,310.38L1259.55,313.98L1259.55,316.39L1260.75,320L1261.95,327.22L1261.95,330.83L1263.16,334.44L1263.16,339.25L1263.16,342.86L1264.36,345.26L1264.36,348.87L1265.56,352.48L1265.56,356.09L1266.77,360.9L1266.77,366.92L1266.77,370.53L1267.97,374.14L1267.97,377.74L1267.97,381.35L1267.97,384.96L1267.97,388.57L1267.97,390.98L1267.97,394.59L1267.97,398.2L1267.97,405.41L1267.97,407.82L1267.97,410.23L1267.97,412.63L1267.97,413.83L1267.97,416.24L1269.17,419.85L1269.17,424.66L1269.17,428.27L1269.17,430.68L1269.17,433.08L1269.17,435.49L1269.17,437.89L1269.17,440.3L1269.17,443.91L1267.97,446.32L1269.17,452.33L1269.17,454.74L1269.17,457.14L1269.17,458.35L1269.17,461.95L1269.17,464.36L1270.38,465.56L1270.38,467.97L1270.38,470.38L1270.38,471.58L1270.38,475.19L1269.17,476.39L1270.38,478.8L1270.38,481.2L1270.38,483.61L1270.38,486.02L1270.38,489.62L1270.38,490.83L1270.38,492.03L1271.58,494.44L1271.58,495.64L1271.58,498.05L1271.58,500.45L1272.78,504.06L1272.78,506.47L1272.78,508.87L1272.78,511.28L1273.98,514.89L1273.98,516.09L1273.98,518.5L1273.98,522.11L1273.98,526.92L1273.98,529.32L1273.98,530.53L1273.98,532.93L1273.98,536.54L1273.98,541.35L1273.98,543.76L1273.98,547.37L1275.19,555.79L1275.19,559.4L1276.39,563.01L1277.59,566.62L1277.59,570.23L1278.8,573.83L1278.8,577.44L1278.8,581.05L1280,584.66L1281.2,591.88L1281.2,596.69L1281.2,601.5L1281.2,606.32L1281.2,611.13L1281.2,615.94L1282.41,620.75L1282.41,625.56L1282.41,630.38L1282.41,636.39L1282.41,654.44L1282.41,658.05L1282.41,662.86L1282.41,666.47L1282.41,670.08L1281.2,673.68L1281.2,683.31L1281.2,688.12L1281.2,692.93L1281.2,697.74L1281.2,701.35L1281.2,706.17L1281.2,709.77L1281.2,713.38L1281.2,719.4L1280,726.62L1280,730.23L1280,733.83L1280,737.44L1280,741.05L1278.8,744.66L1278.8,747.07L1280,751.88L1280,755.49L1280,762.71L1280,767.52L1278.8,772.33L1280,774.74L1280,778.35L1280,783.16L1280,787.97L1280,791.58L1281.2,795.19L1281.2,802.41L1281.2,806.02L1281.2,809.62L1281.2,814.44L1282.41,818.05L1283.61,821.65L1283.61,825.26L1284.81,828.87L1284.81,832.48L1284.81,834.89L1286.02,839.7L1286.02,840.9L1287.22,842.11L1287.22,843.31L1287.22,844.51L1288.42,845.71L1289.62,848.12L1289.62,849.32L1289.62,851.73" fill="none" stroke="#000000" style="-webkit-tap-highlight-color: rgba(0, 0, 0, 0); stroke-linecap: round; stroke-linejoin: round; stroke-width: 8;" /><path d="M1260.75,216.54L1261.95,216.54L1265.56,215.34L1267.97,214.14L1271.58,212.93L1273.98,211.73L1277.59,210.53L1281.2,208.12L1288.42,203.31L1292.03,200.9L1295.64,198.5L1299.25,197.29L1302.86,194.89L1308.87,190.08L1312.48,187.67L1313.68,186.47L1316.09,184.06L1319.7,179.25L1322.11,176.84L1324.51,173.23L1326.92,170.83L1330.53,169.62L1332.93,167.22L1336.54,164.81L1340.15,161.2L1343.76,157.59L1347.37,153.98L1353.38,149.17L1356.99,145.56L1360.6,143.16L1364.21,139.55L1367.82,137.14L1379.85,128.72L1383.46,126.32L1393.08,122.71L1396.69,119.1L1401.5,116.69L1406.32,114.29L1409.92,111.88L1414.74,109.47L1417.14,107.07L1421.95,105.86L1427.97,103.46L1435.19,99.85L1440,97.44L1444.81,96.24L1448.42,93.83L1452.03,92.63L1458.05,89.02L1462.86,87.82L1467.67,86.62L1474.89,84.21L1479.7,84.21L1484.51,83.01L1489.32,83.01L1494.14,83.01L1501.35,81.8L1502.56,80.6L1507.37,80.6L1512.18,79.4L1520.6,76.99L1525.41,75.79L1530.23,74.59L1536.24,74.59L1541.05,73.38L1547.07,72.18L1550.68,70.98L1555.49,70.98L1559.1,70.98L1562.71,70.98L1571.13,70.98L1574.74,69.77L1579.55,69.77L1583.16,69.77L1586.77,69.77L1590.38,69.77L1593.98,69.77L1597.59,69.77" fill="none" stroke="#000000" style="-webkit-tap-highlight-color: rgba(0, 0, 0, 0); stroke-linecap: round; stroke-linejoin: round; stroke-width: 8;" /><path d="M393.38,117.89L394.59,116.69L400.6,114.29L404.21,114.29L409.02,113.08L415.04,110.68L422.26,107.07L434.29,103.46L440.3,99.85L446.32,97.44L452.33,95.04L458.35,92.63L463.16,90.23L469.17,87.82L473.98,86.62L480,84.21L489.62,79.4L494.44,78.2L499.25,76.99L505.26,75.79L511.28,73.38L517.29,72.18L524.51,70.98L530.53,69.77L537.74,68.57L550.98,66.17L558.2,63.76L565.41,62.56L572.63,60.15L578.65,57.74L585.86,56.54L591.88,54.14L599.1,51.73L605.11,50.53L619.55,45.71L627.97,43.31L635.19,42.11L641.2,40.9L648.42,38.5L654.44,38.5L661.65,36.09L668.87,34.89L674.89,31.28L688.12,27.67L694.14,26.47L701.35,24.06L708.57,20.45L714.59,18.05L720.6,15.64L726.62,12.03L731.43,9.62L737.44,8.42L748.27,6.02L754.29,4.81L759.1,4.81L763.91,3.61L768.72,2.41L773.53,0" fill="none" stroke="#000000" style="-webkit-tap-highlight-color: rgba(0, 0, 0, 0); stroke-linecap: round; stroke-linejoin: round; stroke-width: 8;" /><path d="M389.77,122.71L389.77,123.91L389.77,127.52L388.57,132.33L388.57,137.14L388.57,141.95L387.37,147.97L387.37,152.78L387.37,157.59L386.17,168.42L384.96,172.03L384.96,176.84L384.96,180.45L383.76,185.26L383.76,188.87L382.56,193.68L382.56,198.5L382.56,203.31L382.56,212.93L382.56,216.54L382.56,222.56L382.56,227.37L382.56,233.38L382.56,236.99L382.56,243.01L383.76,247.82L383.76,253.83L383.76,258.65L383.76,269.47L382.56,274.29L382.56,277.89L381.35,282.71L382.56,286.32L381.35,289.92L381.35,294.74L381.35,298.35L380.15,303.16L378.95,310.38L378.95,315.19L377.74,318.8L377.74,323.61L377.74,327.22L377.74,329.62L376.54,332.03L376.54,335.64L376.54,339.25L375.34,346.47L375.34,351.28L375.34,354.89L374.14,358.5L374.14,362.11L374.14,366.92L374.14,371.73L374.14,375.34L374.14,378.95L374.14,382.56L374.14,393.38L374.14,395.79L374.14,396.99L374.14,398.2L374.14,401.8L374.14,405.41L374.14,409.02L374.14,412.63L372.93,417.44L374.14,423.46L374.14,427.07L374.14,430.68L374.14,435.49L374.14,439.1L374.14,441.5L374.14,445.11L374.14,448.72L372.93,458.35L371.73,461.95L371.73,465.56L371.73,470.38L372.93,472.78L372.93,476.39L372.93,481.2L371.73,484.81L371.73,492.03L371.73,498.05L371.73,502.86L370.53,506.47L370.53,511.28L369.32,514.89L368.12,517.29L368.12,520.9L366.92,526.92L366.92,531.73L366.92,535.34L366.92,540.15L365.71,542.56L365.71,547.37L365.71,550.98L366.92,554.59L366.92,559.4L366.92,567.82L366.92,570.23L366.92,575.04L366.92,579.85L366.92,583.46L366.92,588.27L366.92,593.08L368.12,596.69L368.12,600.3L368.12,602.71L368.12,608.72L368.12,611.13L368.12,614.74L369.32,618.35L369.32,619.55L370.53,621.95L371.73,633.98L371.73,636.39L371.73,638.8L371.73,641.2L371.73,643.61L371.73,646.02L371.73,648.42L371.73,652.03L371.73,654.44L371.73,656.84L371.73,662.86L371.73,666.47L371.73,668.87L371.73,671.28L370.53,673.68L370.53,677.29L370.53,680.9L370.53,684.51L370.53,688.12L370.53,692.93L369.32,696.54L369.32,701.35L369.32,704.96L368.12,708.57L368.12,712.18L368.12,715.79L366.92,719.4L366.92,723.01L366.92,727.82L366.92,730.23L366.92,731.43L366.92,732.63L366.92,736.24L366.92,741.05L366.92,744.66L366.92,748.27L366.92,751.88L366.92,756.69L366.92,759.1L366.92,762.71L365.71,766.32L365.71,769.92L365.71,772.33L366.92,774.74L366.92,777.14L366.92,784.36L366.92,786.77L368.12,789.17L368.12,791.58L368.12,793.98L368.12,795.19L368.12,798.8L368.12,802.41L366.92,804.81L366.92,808.42L366.92,810.83L365.71,814.44L365.71,818.05L364.51,822.86L364.51,825.26L363.31,827.67L362.11,836.09L360.9,838.5L360.9,840.9L359.7,842.11L359.7,845.71L359.7,846.92L359.7,850.53L358.5,851.73L357.29,852.93L354.89,857.74L354.89,860.15L353.68,864.96L353.68,869.77L354.89,874.59L353.68,875.79L353.68,878.2L353.68,881.8L352.48,885.41L353.68,892.63" fill="none" stroke="#000000" style="-webkit-tap-highlight-color: rgba(0, 0, 0, 0); stroke-linecap: round; stroke-linejoin: round; stroke-width: 8;" /><path d="M3.61,377.74L4.81,375.34L8.42,371.73L13.23,370.53L22.86,368.12L27.67,368.12L32.48,368.12L39.7,366.92L45.71,366.92L50.53,368.12L55.34,366.92L61.35,368.12L66.17,370.53L75.79,371.73L80.6,372.93L85.41,372.93L89.02,374.14L93.83,376.54L97.44,378.95L101.05,378.95L105.86,380.15L109.47,381.35L114.29,382.56L122.71,382.56L126.32,384.96L129.92,386.17L134.74,386.17L140.75,386.17L145.56,384.96L151.58,384.96L156.39,384.96L173.23,383.76L179.25,383.76L184.06,382.56L190.08,380.15L197.29,378.95L203.31,377.74L209.32,376.54L215.34,374.14L223.76,370.53L229.77,369.32L234.59,366.92L239.4,365.71L245.41,363.31L252.63,360.9L253.83,362.11L258.65,362.11L264.66,359.7L269.47,358.5L280.3,353.68L285.11,352.48L288.72,351.28L293.53,348.87L301.95,344.06L306.77,344.06L310.38,341.65L316.39,339.25L323.61,335.64L327.22,333.23L330.83,330.83L335.64,328.42L340.45,324.81L346.47,322.41L350.08,320L354.89,317.59L362.11,313.98L368.12,311.58L375.34,309.17L381.35,306.77L388.57,303.16L393.38,300.75" fill="none" stroke="#000000" style="-webkit-tap-highlight-color: rgba(0, 0, 0, 0); stroke-linecap: round; stroke-linejoin: round; stroke-width: 8;" /><path d="M12.03,790.38L10.83,790.38L9.62,789.17L12.03,787.97L15.64,786.77L21.65,787.97L27.67,785.56L34.89,783.16L46.92,778.35L52.93,778.35L57.74,778.35L61.35,778.35L66.17,777.14L70.98,775.94L75.79,775.94L79.4,775.94L81.8,775.94L90.23,778.35L93.83,779.55L96.24,783.16L107.07,787.97L109.47,789.17L113.08,791.58L116.69,793.98L119.1,796.39L122.71,801.2L123.91,804.81L126.32,807.22L127.52,809.62L129.92,812.03L131.13,814.44L132.33,818.05L133.53,821.65L137.14,827.67L139.55,830.08L141.95,832.48L144.36,833.68L146.77,836.09L147.97,838.5L150.38,842.11L151.58,842.11L153.98,843.31L160,849.32L162.41,851.73L166.02,852.93L169.62,854.14L173.23,856.54L176.84,857.74L180.45,856.54L185.26,857.74L190.08,858.95L199.7,860.15L205.71,861.35L211.73,862.56L218.95,862.56L224.96,862.56L232.18,863.76L238.2,864.96L243.01,866.17L249.02,868.57L256.24,869.77L265.86,872.18L271.88,872.18L277.89,874.59L282.71,875.79L287.52,875.79L293.53,876.99L299.55,876.99L305.56,879.4L310.38,879.4L320,878.2L324.81,878.2L329.62,878.2L334.44,878.2L339.25,879.4L344.06,880.6L350.08,879.4L366.92,881.8L372.93,884.21L378.95,886.62L384.96,887.82L392.18,891.43L399.4,891.43L407.82,890.23L415.04,887.82" fill="none" stroke="#000000" style="-webkit-tap-highlight-color: rgba(0, 0, 0, 0); stroke-linecap: round; stroke-linejoin: round; stroke-width: 8;" /><path d="M415.04,881.8L413.83,881.8L412.63,880.6L413.83,880.6L418.65,880.6L423.46,883.01L429.47,885.41L436.69,885.41L443.91,884.21L451.13,884.21L458.35,883.01L469.17,885.41L475.19,885.41L482.41,885.41L488.42,885.41L493.23,886.62L504.06,891.43L508.87,893.83L512.48,893.83L522.11,897.44L525.71,898.65L529.32,899.85L534.14,902.26L537.74,903.46L541.35,903.46L546.17,903.46L550.98,904.66L555.79,905.86L565.41,905.86L570.23,908.27L578.65,911.88L583.46,910.68L587.07,911.88L591.88,913.08L595.49,911.88L599.1,913.08L609.92,913.08L615.94,911.88L620.75,913.08L625.56,913.08L630.38,915.49L636.39,916.69L641.2,917.89L646.02,917.89L649.62,920.3L659.25,923.91L664.06,926.32L667.67,927.52L673.68,928.72L678.5,931.13L683.31,933.53L688.12,934.74L692.93,935.94L696.54,937.14L703.76,939.55L707.37,940.75L710.98,943.16L713.38,944.36L715.79,944.36L719.4,944.36L723.01,944.36L727.82,945.56L731.43,946.77L735.04,947.97L743.46,949.17L747.07,947.97L751.88,949.17L756.69,950.38L760.3,950.38L763.91,950.38L768.72,950.38L773.53,949.17L777.14,949.17L785.56,950.38L793.98,947.97L797.59,946.77L801.2,945.56L804.81,944.36L808.42,943.16L813.23,940.75L820.45,935.94L824.06,934.74L827.67,932.33L830.08,929.92L833.68,927.52L834.89,926.32L838.5,925.11L839.7,923.91L840.9,922.71L845.71,921.5L846.92,920.3L850.53,919.1L852.93,917.89L855.34,916.69L857.74,915.49L860.15,915.49L863.76,915.49L866.17,915.49L870.98,916.69L874.59,916.69L878.2,916.69L880.6,916.69L884.21,916.69L886.62,917.89L890.23,917.89L893.83,919.1L896.24,920.3L899.85,921.5L905.86,925.11L909.47,926.32L911.88,928.72L916.69,929.92L919.1,932.33L922.71,931.13L927.52,929.92L932.33,929.92L939.55,932.33L943.16,933.53L947.97,933.53L951.58,934.74L953.98,935.94L958.8,937.14L962.41,937.14L967.22,938.35L970.83,938.35L979.25,938.35L988.87,938.35L993.68,937.14L997.29,935.94L1002.11,934.74L1005.71,933.53L1017.74,928.72L1018.95,928.72L1024.96,926.32L1028.57,926.32L1032.18,926.32L1035.79,926.32L1038.2,927.52L1040.6,926.32L1041.8,926.32L1044.21,925.11L1046.62,923.91L1050.23,923.91L1053.83,923.91L1056.24,925.11L1058.65,925.11L1062.26,925.11L1065.86,925.11L1069.47,927.52L1073.08,928.72L1081.5,929.92L1086.32,929.92L1091.13,931.13L1095.94,931.13L1100.75,932.33L1104.36,933.53L1111.58,933.53L1115.19,934.74L1120,935.94L1126.02,937.14L1130.83,938.35L1135.64,938.35L1141.65,938.35L1145.26,938.35L1151.28,937.14L1157.29,937.14L1162.11,935.94L1166.92,935.94L1172.93,934.74L1176.54,933.53L1180.15,932.33L1184.96,932.33L1187.37,931.13L1190.98,929.92L1195.79,928.72L1199.4,928.72L1201.8,927.52L1206.62,926.32L1209.02,926.32L1212.63,925.11L1215.04,923.91L1218.65,922.71L1221.05,921.5L1224.66,921.5L1227.07,921.5L1231.88,920.3L1235.49,919.1L1236.69,919.1L1239.1,917.89L1241.5,915.49L1247.52,913.08L1248.72,911.88L1249.92,910.68L1253.53,907.07L1254.74,904.66" fill="none" stroke="#000000" style="-webkit-tap-highlight-color: rgba(0, 0, 0, 0); stroke-linecap: round; stroke-linejoin: round; stroke-width: 8;" /><path d="M1252.33,913.08L1253.53,911.88L1255.94,909.47L1260.75,904.66L1266.77,896.24L1270.38,891.43L1272.78,886.62L1276.39,879.4L1280,874.59L1282.41,869.77L1286.02,864.96L1289.62,860.15L1306.47,838.5L1308.87,834.89L1312.48,832.48L1314.89,830.08L1318.5,827.67L1322.11,826.47L1324.51,824.06L1329.32,822.86L1336.54,821.65L1338.95,821.65L1342.56,821.65L1346.17,821.65L1349.77,821.65L1352.18,821.65L1355.79,821.65L1359.4,821.65L1361.8,821.65L1367.82,822.86L1370.23,824.06L1375.04,824.06L1378.65,825.26L1381.05,826.47L1384.66,827.67L1388.27,827.67L1391.88,827.67L1396.69,831.28L1399.1,833.68L1401.5,834.89L1405.11,836.09L1408.72,837.29L1413.53,837.29L1417.14,839.7L1418.35,839.7L1421.95,840.9L1426.77,842.11L1430.38,843.31L1433.98,844.51L1436.39,844.51L1441.2,845.71L1446.02,845.71L1449.62,846.92L1452.03,848.12L1456.84,848.12L1460.45,849.32L1470.08,849.32L1474.89,849.32L1479.7,849.32L1483.31,848.12L1488.12,848.12L1495.34,848.12L1501.35,848.12L1507.37,846.92L1515.79,845.71L1518.2,844.51L1530.23,842.11L1536.24,840.9L1542.26,839.7L1548.27,839.7L1560.3,837.29L1563.91,837.29L1567.52,836.09L1572.33,836.09L1575.94,836.09L1579.55,834.89L1583.16,836.09L1586.77,836.09L1591.58,834.89L1595.19,833.68L1598.8,833.68" fill="none" stroke="#000000" style="-webkit-tap-highlight-color: rgba(0, 0, 0, 0); stroke-linecap: round; stroke-linejoin: round; stroke-width: 8;" /><path d="M1296.84,621.95L1288.42,620.75L1286.02,620.75L1288.42,618.35L1292.03,615.94L1295.64,614.74L1298.05,613.53L1302.86,612.33L1304.06,613.53L1307.67,613.53L1310.08,614.74L1312.48,617.14L1313.68,617.14L1314.89,619.55L1316.09,620.75L1318.5,623.16L1320.9,627.97L1322.11,629.17L1323.31,632.78L1324.51,635.19L1325.71,638.8L1326.92,642.41L1326.92,646.02L1328.12,649.62L1329.32,652.03L1330.53,659.25L1331.73,664.06L1331.73,667.67L1331.73,671.28L1332.93,676.09L1332.93,678.5L1335.34,690.53L1335.34,694.14L1336.54,697.74L1337.74,701.35L1337.74,703.76L1337.74,704.96L1338.95,708.57L1338.95,710.98L1338.95,716.99L1340.15,720.6L1340.15,724.21L1341.35,729.02L1341.35,733.83L1341.35,737.44L1341.35,741.05L1341.35,745.86L1341.35,749.47L1341.35,751.88L1342.56,754.29L1342.56,755.49L1343.76,759.1L1343.76,762.71L1343.76,766.32L1343.76,768.72L1343.76,772.33L1343.76,773.53L1343.76,777.14L1343.76,779.55L1343.76,781.95" fill="none" stroke="#000000" style="-webkit-tap-highlight-color: rgba(0, 0, 0, 0); stroke-linecap: round; stroke-linejoin: round; stroke-width: 8;" /><path d="M1288.42,578.65L1289.62,578.65L1290.83,578.65L1293.23,578.65L1295.64,577.44L1301.65,573.83L1305.26,572.63L1307.67,572.63L1312.48,571.43L1314.89,571.43L1318.5,571.43L1323.31,572.63L1326.92,575.04L1329.32,578.65L1335.34,587.07L1338.95,591.88L1340.15,594.29L1343.76,597.89L1346.17,599.1L1348.57,603.91L1349.77,605.11L1350.98,608.72L1353.38,613.53L1356.99,619.55L1358.2,623.16L1359.4,626.77L1360.6,630.38L1361.8,635.19L1361.8,641.2L1361.8,646.02L1363.01,649.62L1364.21,654.44L1364.21,664.06L1365.41,670.08L1365.41,673.68L1365.41,676.09L1365.41,683.31L1365.41,688.12L1366.62,690.53L1366.62,695.34L1366.62,700.15L1366.62,707.37L1367.82,710.98L1367.82,716.99L1367.82,721.8L1367.82,725.41L1369.02,729.02L1369.02,733.83L1369.02,738.65L1370.23,747.07L1370.23,751.88L1371.43,754.29L1371.43,757.89L1371.43,762.71L1371.43,767.52L1372.63,769.92L1373.83,773.53L1373.83,774.74L1375.04,780.75L1375.04,783.16L1376.24,785.56L1376.24,789.17L1377.44,793.98L1377.44,795.19L1378.65,797.59L1378.65,798.8L1377.44,802.41L1378.65,807.22L1378.65,808.42" fill="none" stroke="#000000" style="-webkit-tap-highlight-color: rgba(0, 0, 0, 0); stroke-linecap: round; stroke-linejoin: round; stroke-width: 8;" /><path d="M731.43,656.84L729.02,655.64L726.62,655.64L724.21,656.84L721.8,656.84L720.6,659.25L718.2,660.45L715.79,662.86L713.38,665.26L709.77,671.28L709.77,674.89L707.37,678.5L706.17,682.11L703.76,686.92L702.56,691.73L700.15,695.34L698.95,700.15L697.74,703.76L696.54,709.77L694.14,719.4L692.93,723.01L692.93,727.82L691.73,732.63L691.73,737.44L691.73,742.26L691.73,745.86L691.73,749.47L691.73,755.49L691.73,766.32L691.73,771.13L691.73,775.94L691.73,780.75L691.73,785.56L691.73,790.38L691.73,793.98L692.93,798.8L692.93,802.41L692.93,806.02L692.93,814.44L692.93,818.05L694.14,824.06L694.14,827.67L694.14,831.28L694.14,842.11L692.93,846.92L692.93,849.32L692.93,852.93L692.93,856.54L692.93,860.15L692.93,862.56L691.73,864.96L691.73,868.57L691.73,870.98L691.73,873.38L690.53,875.79L690.53,879.4L690.53,883.01L690.53,886.62L690.53,890.23L690.53,892.63L689.32,896.24L689.32,897.44L690.53,896.24" fill="none" stroke="#000000" style="-webkit-tap-highlight-color: rgba(0, 0, 0, 0); stroke-linecap: round; stroke-linejoin: round; stroke-width: 8;" /><path d="M726.62,664.06L727.82,664.06L727.82,662.86L729.02,661.65L730.23,661.65L732.63,660.45L735.04,659.25L743.46,656.84L747.07,656.84L750.68,655.64L753.08,655.64L756.69,655.64L760.3,655.64L762.71,656.84L766.32,656.84L768.72,658.05L769.92,658.05L772.33,661.65L775.94,665.26L777.14,666.47L779.55,666.47L781.95,667.67L783.16,670.08L784.36,672.48L785.56,672.48L786.77,674.89L787.97,676.09L790.38,676.09L791.58,677.29L792.78,679.7L793.98,679.7L795.19,682.11L796.39,683.31L797.59,683.31L798.8,684.51L800,685.71L802.41,688.12L802.41,689.32L803.61,690.53L806.02,691.73L806.02,695.34L808.42,696.54L808.42,697.74L810.83,700.15L810.83,701.35L812.03,703.76L813.23,706.17L814.44,708.57L814.44,709.77L815.64,712.18L816.84,713.38L816.84,715.79L818.05,716.99L818.05,719.4L820.45,723.01L820.45,725.41L822.86,727.82L822.86,731.43L824.06,731.43L825.26,735.04L825.26,736.24L826.47,739.85L827.67,744.66L828.87,748.27L830.08,751.88L831.28,754.29L831.28,755.49L832.48,759.1L832.48,761.5L833.68,767.52L833.68,771.13L833.68,773.53L833.68,775.94L833.68,778.35L833.68,780.75L833.68,783.16L833.68,787.97L833.68,790.38L833.68,796.39L833.68,802.41L832.48,806.02L833.68,808.42L833.68,810.83L833.68,814.44L833.68,818.05L833.68,822.86L833.68,824.06L832.48,831.28L833.68,834.89L833.68,838.5L833.68,840.9L833.68,844.51L833.68,848.12L833.68,851.73L833.68,855.34L833.68,858.95L833.68,863.76L833.68,867.37L833.68,869.77L833.68,873.38L833.68,875.79L833.68,879.4L833.68,880.6L834.89,881.8L834.89,885.41L834.89,886.62L834.89,889.02L836.09,891.43L836.09,892.63L836.09,895.04L836.09,898.65L836.09,899.85L836.09,901.05L836.09,897.44" fill="none" stroke="#000000" style="-webkit-tap-highlight-color: rgba(0, 0, 0, 0); stroke-linecap: round; stroke-linejoin: round; stroke-width: 8;" /><path d="M763.91,664.06L763.91,665.26L761.5,665.26L760.3,666.47L757.89,668.87L756.69,670.08L754.29,672.48L754.29,673.68L751.88,677.29L749.47,680.9L747.07,684.51L745.86,689.32L744.66,697.74L742.26,701.35L742.26,707.37L741.05,713.38L741.05,716.99L739.85,719.4L738.65,724.21L738.65,729.02L737.44,732.63L737.44,739.85L736.24,743.46L736.24,747.07L736.24,751.88L735.04,755.49L735.04,760.3L735.04,763.91L735.04,767.52L735.04,771.13L735.04,775.94L735.04,785.56L735.04,793.98L735.04,797.59L735.04,802.41L735.04,807.22L735.04,812.03L735.04,816.84L735.04,824.06L733.83,827.67L735.04,831.28L735.04,836.09L735.04,839.7L735.04,843.31L735.04,845.71L736.24,849.32L735.04,851.73L735.04,855.34L735.04,858.95L733.83,861.35L733.83,862.56L733.83,864.96L733.83,867.37L733.83,869.77L733.83,870.98L733.83,874.59L733.83,875.79L733.83,876.99L733.83,879.4L735.04,881.8L735.04,884.21L735.04,886.62L737.44,880.6" fill="none" stroke="#000000" style="-webkit-tap-highlight-color: rgba(0, 0, 0, 0); stroke-linecap: round; stroke-linejoin: round; stroke-width: 8;" /><path d="M700.15,636.39L696.54,636.39L694.14,637.59L692.93,638.8L691.73,640L689.32,643.61L686.92,646.02L684.51,648.42L678.5,658.05L677.29,662.86L674.89,667.67L673.68,672.48L671.28,679.7L668.87,688.12L666.47,695.34L664.06,702.56L661.65,709.77L660.45,715.79L655.64,726.62L653.23,735.04L650.83,742.26L649.62,748.27L647.22,755.49L646.02,763.91L643.61,771.13L642.41,778.35L640,785.56L638.8,791.58L637.59,803.61L636.39,810.83L635.19,818.05L633.98,824.06L633.98,830.08L632.78,837.29L632.78,844.51L631.58,851.73L631.58,861.35L631.58,878.2L631.58,885.41L631.58,892.63L633.98,903.46L636.39,902.26" fill="none" stroke="#000000" style="-webkit-tap-highlight-color: rgba(0, 0, 0, 0); stroke-linecap: round; stroke-linejoin: round; stroke-width: 8;" /><path d="M698.95,648.42L697.74,648.42L697.74,647.22L700.15,644.81L702.56,641.2L706.17,637.59L710.98,633.98L714.59,632.78L716.99,629.17L720.6,626.77L725.41,624.36L730.23,621.95L735.04,621.95L738.65,621.95L742.26,621.95L745.86,621.95L754.29,621.95L756.69,620.75L761.5,620.75L763.91,619.55L766.32,619.55L768.72,619.55L771.13,618.35L774.74,618.35L783.16,618.35L784.36,618.35L785.56,619.55L786.77,619.55L789.17,619.55L791.58,620.75L793.98,620.75L796.39,620.75L798.8,621.95L802.41,623.16L803.61,623.16L807.22,624.36L810.83,626.77L813.23,629.17L814.44,630.38L815.64,631.58L816.84,635.19L819.25,637.59L821.65,638.8L822.86,641.2L825.26,641.2L826.47,643.61L828.87,644.81L830.08,646.02L832.48,647.22L833.68,648.42L836.09,649.62L837.29,650.83L839.7,653.23L840.9,654.44L843.31,655.64L843.31,656.84L844.51,658.05L845.71,661.65L846.92,664.06L848.12,667.67L849.32,671.28L850.53,676.09L851.73,679.7L852.93,682.11L854.14,684.51L855.34,688.12L855.34,690.53L856.54,692.93L857.74,696.54L857.74,698.95L858.95,701.35L860.15,707.37L860.15,710.98L860.15,713.38L861.35,715.79L861.35,718.2L862.56,720.6L863.76,726.62L863.76,727.82L863.76,730.23L864.96,735.04L864.96,738.65L864.96,741.05L866.17,743.46L867.37,747.07L867.37,749.47L867.37,753.08L867.37,756.69L868.57,761.5L868.57,763.91L868.57,767.52L868.57,768.72L868.57,771.13L869.77,772.33L869.77,774.74L869.77,777.14L870.98,780.75L872.18,784.36L872.18,786.77" fill="none" stroke="#000000" style="-webkit-tap-highlight-color: rgba(0, 0, 0, 0); stroke-linecap: round; stroke-linejoin: round; stroke-width: 8;" /><path d="M870.98,778.35L870.98,780.75L870.98,781.95L870.98,785.56L872.18,798.8L872.18,804.81L872.18,810.83L872.18,815.64L872.18,821.65L872.18,825.26L872.18,830.08L873.38,836.09L873.38,840.9L873.38,845.71L873.38,855.34L873.38,860.15L873.38,866.17L873.38,872.18L873.38,878.2L873.38,884.21L873.38,890.23L873.38,895.04L874.59,897.44L874.59,901.05L874.59,902.26" fill="none" stroke="#000000" style="-webkit-tap-highlight-color: rgba(0, 0, 0, 0); stroke-linecap: round; stroke-linejoin: round; stroke-width: 8;" /></svg>