<?xml version="1.0" encoding="utf-8" ?>
<svg baseProfile="full" height="1073" version="1.1" width="1600" xmlns="http://www.w3.org/2000/svg" xmlns:ev="http://www.w3.org/2001/xml-events" xmlns:xlink="http://www.w3.org/1999/xlink"><defs /><path d="M8.48,641.7L4,637L6,636L4,636L3,633L6,632L10,633L10,633L12,631L12,631L20,624L23,624L25,624L32,624L33,624L39,623L52,617L44,619L42,622L54,617L61,614L57,614L68,614L70,611L70,611L74,609L79,608L80,608L80,608L80,608L80,608L80,608L88,596L88,596L93,596L93,596L96,594L96,594L93,596L96,591L99,590L101,586L101,586L107,583L111,586L113,581L116,579L121,581L124,576L134,571L125,575L134,571L136,566L138,564L138,564L138,564L143,559L147,558L148,558L153,558L155,557L156,552L161,552L161,552L164,552L167,552L170,552L167,552L172,552L176,551L179,550L181,532L184,532L185,532L189,532L190,532L193,530L198,529L201,531L204,528L206,529L209,526L212,525L215,523L218,522L220,522L223,522L223,522L226,522L233,520L230,521L237,518L235,521L240,518L244,518L246,519L249,520L252,520L252,520L262,514L262,514L262,514L267,515L267,515L272,510L274,506L271,514L272,510L275,495L278,506L277,506L274,500L285,492L285,492L281,487L285,492L280,483L282,486L280,481L280,477L280,476L281,472L280,469L281,469L280,469L283,458L284,458L287,454L288,452L291,452L293,449L292,447L294,446L293,444L294,441L297,438L300,435L303,430L303,427L300,433L303,424L301,422L302,417L302,416L305,413L303,410L303,408L307,405L309,401L309,399L309,399L310,398L313,396L316,395L313,396L320,389L320,389L321,386L322,388L325,383L328,384L331,384L335,384L336,382L339,382L340,380L343,379L342,376L342,372L345,372L345,370L345,366L344,365L345,363L345,363L350,355L338,351L338,351L338,350L336,345L339,341L341,339L342,338L343,335L343,334L344,330L348,329L348,325L350,324L352,321L351,322L352,319L355,316L359,316L362,315L365,319L367,313L370,313L373,314L376,313L379,309L383,311L384,309L387,307L387,301L390,302L390,300L394,297L392,300L394,297L396,294L399,293L401,294L401,293L404,293L407,288L409,288L410,286L413,284L416,282L413,282L416,272L416,282L416,272L416,272L418,270L418,269L419,266L418,264L428,259L424,258L429,259L430,258L435,256L438,256L441,257L444,257L447,257L449,258L452,259L456,257L458,261L458,263L458,266L458,269L458,271L459,274L459,277L459,280L459,281L458,286L458,288L458,292L458,294L458,297L458,300L464,305L465,305L469,306L472,306L472,306L473,308L473,308L473,308L486,311L486,314L486,317L486,319L480,332L485,333L485,333L489,335L492,336L495,337" fill="none" stroke="#000000" style="-webkit-tap-highlight-color: rgba(0, 0, 0, 0); stroke-linecap: round; stroke-linejoin: round; stroke-width: 8;" /><path d="M498,337L492,336L499,337" fill="none" stroke="#000000" style="-webkit-tap-highlight-color: rgba(0, 0, 0, 0); stroke-linecap: round; stroke-linejoin: round; stroke-width: 8;" /><path d="M494.7,593.64L493,599L493,602L493,596L493,594L493,591L495,585L495,582L496,579L496,574L496,571L496,565L496,563L496,560L496,558L494,549L494,548L494,546L494,543L494,540L494,537L494,534L494,529L495,523L496,518L496,517L496,512L496,509L496,506L496,500L496,498L496,503" fill="none" stroke="#000000" style="-webkit-tap-highlight-color: rgba(0, 0, 0, 0); stroke-linecap: round; stroke-linejoin: round; stroke-width: 8;" /><path d="M496,495L497,491L508.83,480.57L497,489L498,482L498,475L498,472L498,481L498,478L499,465L499,464L499,464L499,461L498,482L498,482L499,465L498,482L498,482L497,489L497,491L498,482L499,465L498,475L498,478L500,455L501,449L501,435L501,444L502,430L502,427L501,416L501,420L501,413L514,410L514,407L514,401L503,388L503,388L503,388L503,387L503,388" fill="none" stroke="#000000" style="-webkit-tap-highlight-color: rgba(0, 0, 0, 0); stroke-linecap: round; stroke-linejoin: round; stroke-width: 8;" /><path d="M503,384L503,382L504,376L504,376L504,371L504,370L504,367L504,365L504,365L504,362L505,356L505,356L505,353L505,352L504,348L506.01,375.97L505,353L505,352L503,382L503,387L503,388L502,393L502,393L502,390L503,384L503,379L503,373L503,365L504,359L505,352L504,345L498,337L499,337L501,340" fill="none" stroke="#000000" style="-webkit-tap-highlight-color: rgba(0, 0, 0, 0); stroke-linecap: round; stroke-linejoin: round; stroke-width: 8;" /><path d="M492,336L490,335L487,334L487,334L485,333L486,334L486,334L488,335L493,337L493,337" fill="none" stroke="#000000" style="-webkit-tap-highlight-color: rgba(0, 0, 0, 0); stroke-linecap: round; stroke-linejoin: round; stroke-width: 8;" /><path d="M500.35,457.95L500,455L500,452L501,449L501,447L499,458L500,455L499,464L498,469L498,475L498,481L497,489L496,495L496,503L491,498L496,509L496,512L495,519L494,524L494,529L494,534L494,540L494,546L485,555L487,559L483,563L483,567L482,570L494,586L482,570L493,588L493,588L493,599L493,594L493,596L493,602L492,608L492,611L492,613L492,616L486,622L489,622L492,625L489,625L492,628L494,625L495,628L495,627L494,624L503,626L511,620L512,614L513,610L512,614L514,605L514,602L514,601L512,591L515,597L514,592L513,591L514,589L512,588L510,582L510,582L510,582L518,566L518,566L517,565L517,565L518,563L518,563L520,562L520,562L523,562L523,551L526,551L529,548L531,548L534,548L547,545L547,545L547,545L547,545L547,545L547,545L547,543L547,545L550,536L561,534L550,536L561,533L562,531L562,531L565,529L564,529L568,522L568,522L570,520L571,518L571,518L585,523L585,523L589,518L587,508L587,507L591,500L588,502L588,508L591,498L591,498L594,489L594,492L594,486L594,481L594,483L594,479L595,475L593,469L591,469L595,472L588,469L585,469L582,469L577,469L580,469L574,468L571,468L569,468L569,468L564,466L563,464L564,461L563,457L562,456L560,454L560,454L562,442L571,442L571,442L566,441L574,441L577,441L579,441L582,442L585,441L588,439L591,443L596,436L594,438L596,438L595,434L613,422L606,435L606,435L613,422L612,416L613,416L612,416L618,412L619,412L621,409L621,409L629,408L631,392L630,399L630,400L630,396L642,384L639,386L638,387L638,393L645,381L650,376L647,379L653,372L655,372L656,374L661,366L659,366L667,359L663,362L667,356L668,357" fill="none" stroke="#000000" style="-webkit-tap-highlight-color: rgba(0, 0, 0, 0); stroke-linecap: round; stroke-linejoin: round; stroke-width: 8;" /><path d="M675,350L676,345L675,350L678,343L686,340L684,340L681,340L684,340L690,341" fill="none" stroke="#000000" style="-webkit-tap-highlight-color: rgba(0, 0, 0, 0); stroke-linecap: round; stroke-linejoin: round; stroke-width: 8;" /><path d="M1026.15,206.36L1026,201L1023,201L1018,201L1020,201L1015,214L1013,215L1005,225L1012,216L1009,219L1001,227L997,236L998,231L1001,227L997,233L996,240L988,251L996,240L988,251L988,251L988,254L987,257L988,251L984,257L981,257L975,259L978,258L973,260L965,261L970,261L964,261L963,261L961,262L961,262L961,262L960,265L947,263L941,269L939,271L944,266L939,274L939,277L939,280L941,283L941,286L944,288L944,291L944,294L944,297L944,300L944,302L944,305L950,317L939,311L943,324L943,324L924,322L930,327L930,327L924,322L924,322L923,325L913,320L913,320L916,320L905,319L902,319L896,317L898,318L899,307L891,310L894,303L889,302L890,300L887,297L885,295L882,296L878,296L875,295L873,295L865,293L868,294L859,294L858,295L856,297L856,297L847,303L847,303L847,303L847,303L841,309L841,309L841,309L841,309L837,314L832,317L832,317L832,317L832,317L828,321L829,324L828,322L829,328L829,328L829,335L829,336L826,340L828,340L819,339L817,338L811,341L809,341L800,339L802,340L795,339L795,339L795,339L795,339L792,340L789,340L783,339L784,339L780,339L779,339L771,344L775,340L771,344L771,344L760,339L758,339L755,339L752,339L749,339L746,339L732,349L732,349L738,350L732,349" fill="none" stroke="#000000" style="-webkit-tap-highlight-color: rgba(0, 0, 0, 0); stroke-linecap: round; stroke-linejoin: round; stroke-width: 8;" /><path d="M738,350L738,350L740,351L743,353L748,357L743,353L739,353L741,353L732,350L730,349L739,353L732,350L715,346L720,348L712,345L724,348L705,343L705,343L694,345L693,346L689,349L687,343L685,343L692,348L680,340L676,343L681,343L681,340L664,339L676,343L676,343L661,339L676,343L676,343L664,342" fill="none" stroke="#000000" style="-webkit-tap-highlight-color: rgba(0, 0, 0, 0); stroke-linecap: round; stroke-linejoin: round; stroke-width: 8;" /><path d="M1006.36,206.36L1001,204L1015,214L1015,214L1015,214L1020,214L1034,212L1035,212L1036,212L1042,215L1046,218L1049,219L1053,224L1050,220L1059,228L1059,228L1062,232L1063,234L1064,235L1066,237L1066,240L1074,244L1066,241L1069,241L1077,247L1079,254L1074,264L1071,264L1074,264L1077,264L1077,264L1077,264L1077,277L1089,283L1089,281L1089,283L1089,283L1091,290L1092,292L1093,296L1093,302L1093,302L1092,305L1091,310L1090,314L1094,328L1094,329L1093,323L1090,319L1091,336L1092,342L1093,345L1092,340" fill="none" stroke="#000000" style="-webkit-tap-highlight-color: rgba(0, 0, 0, 0); stroke-linecap: round; stroke-linejoin: round; stroke-width: 8;" /><path d="M1102,353L1096,351L1095,348L1105,353L1108,353L1113,353L1117,353L1117,353L1124,355L1122,354L1124,355L1124,355L1093.99,342.05L1142,345L1136,345L1145,345L1139,345L1163,358L1151,348L1148,348L1163,358L1163,358L1164,357L1165,356L1164,357L1168,357L1173,361L1177,362L1170,358L1176,366" fill="none" stroke="#000000" style="-webkit-tap-highlight-color: rgba(0, 0, 0, 0); stroke-linecap: round; stroke-linejoin: round; stroke-width: 8;" /><path d="M1093,345" fill="none" stroke="#000000" style="-webkit-tap-highlight-color: rgba(0, 0, 0, 0); stroke-linecap: round; stroke-linejoin: round; stroke-width: 8;" /><path d="M1173,366L1099,342L1099,342L1100,348L1099,339L1125,339L1119,339L1139,342L1131,342L1145,345L1151,348L1163,358L1165,356L1165,356L1165,356L1172,356L1172,356L1181,353L1167,356L1184,353L1181,353L1181,353L1187,352L1199,353L1189,353L1193,353L1196,353L1204,352L1207,352L1201,352L1210,352L1217,351L1213,352L1221,350L1224,347L1227,346L1232,339L1232,339L1235,337L1238,336" fill="none" stroke="#000000" style="-webkit-tap-highlight-color: rgba(0, 0, 0, 0); stroke-linecap: round; stroke-linejoin: round; stroke-width: 8;" /><path d="M1244,335L1252,332L1247,334L1252,332L1255,332L1260,332L1258,332L1264,333L1266,333L1267,333L1272,335L1275,335L1277,335L1280,335L1283,336L1280,335L1288,338L1288,338L1288,338L1288,338L1288,338L1300,328L1280.57,333.57L1306,328L1309,331L1303,328L1312,331L1317,342L1314,331L1317,342L1323,344L1334,344L1325,344L1325,344L1334,344L1337,344L1341,343L1346,343L1347,343L1347,343L1360,336L1347,343L1365,336L1368,336L1371,336L1374,336L1377,336L1380,336L1382,336" fill="none" stroke="#000000" style="-webkit-tap-highlight-color: rgba(0, 0, 0, 0); stroke-linecap: round; stroke-linejoin: round; stroke-width: 8;" /><path d="M1278,336" fill="none" stroke="#000000" style="-webkit-tap-highlight-color: rgba(0, 0, 0, 0); stroke-linecap: round; stroke-linejoin: round; stroke-width: 8;" /><path d="M1388,339L1385,339" fill="none" stroke="#000000" style="-webkit-tap-highlight-color: rgba(0, 0, 0, 0); stroke-linecap: round; stroke-linejoin: round; stroke-width: 8;" /><path d="M1275,335L1272,335L1272,339L1268,339L1278,336L1294,341L1285,337L1301,342L1312,343L1319,343L1343,343L1334,344L1347,343L1363,354L1360,342L1363,354L1363,354L1370,357L1370,357L1370,357L1382,348L1385,348L1388,348L1388,348L1391,348" fill="none" stroke="#000000" style="-webkit-tap-highlight-color: rgba(0, 0, 0, 0); stroke-linecap: round; stroke-linejoin: round; stroke-width: 8;" /><path d="M1585.87,384.45L1592,382L1589,382L1592,382L1592,382L1586,381L1585,381L1575,381L1575,383L1573,384L1566,387L1563,386L1558,387L1560,387L1556,387L1550,389L1547,389L1549,389L1538,393L1541,393L1530,388L1530,388L1529,388L1527,387L1524,387L1522,386L1515,384L1519,385L1514,384L1510,383L1508,383L1500,396L1500,396L1497,395L1490,388L1487,387L1476,385L1472,382L1467,381L1464,381L1461,382L1460,382L1455,380L1453,382L1450,382L1442,382L1447,379L1436,375L1430,374L1428,374L1417,372L1420,374L1415,372L1410,373L1401,371L1399,359" fill="none" stroke="#000000" style="-webkit-tap-highlight-color: rgba(0, 0, 0, 0); stroke-linecap: round; stroke-linejoin: round; stroke-width: 8;" /><path d="M1385,364L1381,359L1381,359L1385,364L1381,359L1381,359L1364,355L1381,359L1371,342L1371,339L1365,336L1368,336" fill="none" stroke="#000000" style="-webkit-tap-highlight-color: rgba(0, 0, 0, 0); stroke-linecap: round; stroke-linejoin: round; stroke-width: 8;" /><path d="M1170.32,477.74L1170,471L1170,475L1173,469L1173,464L1173,464L1170,463L1167,463L1167,463L1168,470L1168,470L1168,472L1168,475L1167,478L1167,478L1170,480L1176,485L1173,483L1182,489L1184,492L1186,492L1190,497L1192,498L1200,500L1203,501L1200,500L1204,506L1207,508L1209,509L1209,510L1218,516L1218,516L1218,517L1220,516L1221,521L1223,521L1224,522L1227,522L1227,526L1230,526L1230,527L1230,527L1230,527L1230,527L1244,537L1244,537L1244,539L1244,539L1244,539L1244,539L1244,555L1244,555L1244,555L1244,557L1248,560L1245,561L1247,561L1247,565L1252,573L1249,568L1249,569L1252,577L1257,585L1255,581L1255,581L1257,588L1261,594L1261,591L1265,596L1264,599L1265,601L1269,602L1268,608L1272,611L1276,616L1275,613L1278,620L1278,620L1283,629L1280,620L1286,630L1283,629L1286,630L1288,633L1292,631L1295,636L1299,641L1300,647L1296,639L1298,647L1300,649L1303,656L1304,653L1308,661L1308,661L1311,664L1309,661L1312,666L1311,670L1312,666L1317,676L1317,676L1319,678L1320,681L1319,682L1323,687L1325,690L1326,700L1325,690L1325,690L1326,701L1325,705L1323,707L1323,708L1328,709L1327,716L1325,715L1328,718L1331,717L1331,719L1331,724L1334,724L1335,727L1337,727L1340,733L1337,729L1343,733L1341,739L1354,743L1347,732L1354,743L1354,743L1360,741L1360,741L1361,742L1370,740L1366,742L1368,741L1374,739L1380,743L1377,743L1385,746L1382,743L1389,746L1391,746L1395,746L1398,752L1400,755L1401,758L1405,763L1405,759L1405,769L1408,772L1407,777L1408,775L1411,782L1412,786L1411,787L1413,794L1412,792L1413,794L1412,797" fill="none" stroke="#000000" style="-webkit-tap-highlight-color: rgba(0, 0, 0, 0); stroke-linecap: round; stroke-linejoin: round; stroke-width: 8;" /><path d="M1417,797L1419,800L1417,797L1419,800L1426,803L1425,799L1428,803L1425,799L1425,797" fill="none" stroke="#000000" style="-webkit-tap-highlight-color: rgba(0, 0, 0, 0); stroke-linecap: round; stroke-linejoin: round; stroke-width: 8;" /><path d="M1125.09,503.18L1122,502L1119,503L1122,502L1125,499L1125,499L1125,495L1126,496L1128,492L1128,489L1125,481L1128,482L1123,481L1118,478L1118,475L1118,478L1119,475L1123,475L1125,475L1128,475L1131,474L1135,479L1137,481L1137,478L1142,482L1145,489L1148,491L1151,499L1153,503L1156,508L1167,523L1159,514L1162,520L1169,528L1172,528L1174,531L1179,534L1181,536L1182,542L1193,551L1187,545L1190,548L1199,557L1199,555L1201,557L1197,555L1201,559L1202,566L1204,561L1209,565L1214,574L1210,566L1212,568L1209,566L1215,579L1212,580L1214,574L1216,579L1216,581L1220,589L1220,589L1219,585L1224,590L1224,590L1228,595L1229,598L1228,599L1233,608L1233,597L1235,608L1235,610L1238,611L1237,617L1238,619L1241,624L1241,628L1241,622L1242,632L1247,639L1247,636L1244,633L1249,639L1253,649L1249,641L1251,643L1255,650L1262,659L1257,656L1255,653" fill="none" stroke="#000000" style="-webkit-tap-highlight-color: rgba(0, 0, 0, 0); stroke-linecap: round; stroke-linejoin: round; stroke-width: 8;" /><path d="M1261,660L1266,669L1264,667L1263,662L1269,672L1269,675L1272,677L1271,680L1276,680L1281,691L1278,682L1283,691L1281,691L1289,697L1284,693L1283,693L1289,700L1295,707L1292,700L1292,703L1296,703L1297,711L1300,711L1298,709L1300,717L1306,721L1303,716L1302,718" fill="none" stroke="#000000" style="-webkit-tap-highlight-color: rgba(0, 0, 0, 0); stroke-linecap: round; stroke-linejoin: round; stroke-width: 8;" /><path d="M1266.43,604.95L1265,601L1264,599L1260,599L1258,598L1249,602" fill="none" stroke="#000000" style="-webkit-tap-highlight-color: rgba(0, 0, 0, 0); stroke-linecap: round; stroke-linejoin: round; stroke-width: 8;" /><path d="M1235,608L1246,607L1230,610L1227,610L1224.03,568.2L1221,567L1218,565L1207,561L1216,565" fill="none" stroke="#000000" style="-webkit-tap-highlight-color: rgba(0, 0, 0, 0); stroke-linecap: round; stroke-linejoin: round; stroke-width: 8;" /><path d="M1194,563L1198,562L1189,562" fill="none" stroke="#000000" style="-webkit-tap-highlight-color: rgba(0, 0, 0, 0); stroke-linecap: round; stroke-linejoin: round; stroke-width: 8;" /><path d="M746.29,573.85L747,571L748,568L749,567L748,568L740,558L748,568L747,570L743,573L743,575L743,575L745,587L747,586L746,594L749,598L754,605L758,611L761,614L762,619L766,617L771,622L771,627L771,625L774,630L774,631L775,639L776,643L775,636L777,645L779,645L780,650L779,647L783,653L782,656L785,656L789,659L789,661L793,664L794,666L797,669L800,674L803,675L807,678L810,680L811,684L813,690L817,695L820,698L822,704L825,711L822,706L827,712L830,713L834,719L837,723L840,728L837,728L845,737L841,732L845,741L847,742L848,748L850,751L854,758L852,755L854,759L854,762L857,765L857,768L859,773L856,773L859,777L859,775L861,780L861,783L862,786L865,789L865,791L868,794L868,797L868,799L870,803L870,806L872,808L873,811L873,815L876,815L876,820L879,823" fill="none" stroke="#000000" style="-webkit-tap-highlight-color: rgba(0, 0, 0, 0); stroke-linecap: round; stroke-linejoin: round; stroke-width: 8;" /><path d="M879,825L882,828L883,832L885,831L885,833L884,837L888,834L886,840L888,844L890,845L893,845L893,847L897,848L897,851L895,845L897,848" fill="none" stroke="#000000" style="-webkit-tap-highlight-color: rgba(0, 0, 0, 0); stroke-linecap: round; stroke-linejoin: round; stroke-width: 8;" /><path d="M848.06,579.51L848,583L841,578L841,578L837,576L839,577L834,576L845,587L841,580L849,593L852,598L856,603L859,608L864,615L866,618L868,622L870,625L873,629L874,631L874,636L874,636L879,640L880,641L882,643L887,651L885,648L887,651L888,652L892,658L893,660L893,660L894,664L901,673L896,667L899,670L905,680L910,687L906,681L915,693L916,694L920,701L922,704L924,707L925,708L926,712L927,711L934,720L938,727L934,721L939,728L942,732L944,736L954,738L944,736L950,742L953,743L953,743L952,746L963,746L965,753L965,751L965,753L963,747L970,767L965,753L970,780L970,767L970,780L982,786L972,781L971,782L982,788L982,788L986,797L986,797" fill="none" stroke="#000000" style="-webkit-tap-highlight-color: rgba(0, 0, 0, 0); stroke-linecap: round; stroke-linejoin: round; stroke-width: 8;" /><path d="M986,797L989,802L988,800L986,797L990,802L989,802L990,802L994,815L995,815L995,815L996,817L998,820L1001,820L1001,819L1001,811" fill="none" stroke="#000000" style="-webkit-tap-highlight-color: rgba(0, 0, 0, 0); stroke-linecap: round; stroke-linejoin: round; stroke-width: 8;" /><path d="M1003.53,245.94L1001,243L997,237L997,236L997,233L1000,229L1001,227L1001,227L1001,229L1003,231L1004,237L1007,240L1006,243L1009,246L1010,252L1014,254L1012,263L1015,272L1017,280L1015,269L1018,289L1019,292L1017,301L1023,305L1023,311L1023,314L1026,319L1027,317L1028,320L1026,327L1023,324L1024,327L1026,327L1026,332L1029,331L1032,333L1035,333L1037,335L1038,336L1038,343L1043,345L1042,348L1042,349L1040,356L1040,358L1040,358L1040,358L1037,375L1036,372L1037,376L1037,376L1037,383L1039,392L1037,383L1042,395L1042,398L1042,398L1042,395L1042,398L1035,407L1034,409L1035,407L1043,424L1043,430L1037,448L1037,448L1043,433L1038,449L1038,450L1038,449L1037,458L1036,460L1033,465L1036,475L1035,483L1034,489L1034,496L1030,506L1030,513L1031,500L1027,528L1030,517L1029,534L1029,523L1029,543L1029,546L1029,540L1031,545L1029,549L1032,559L1031,557L1029,554L1032,566L1029,575L1030,571L1031,565L1029,590L1029,599L1028,594L1028,579L1027,616L1027,613L1027,606L1027,611L1029,622L1029,624L1029,621L1027,627L1029,636L1026,644L1029,632L1026,637L1026,648L1026,652L1026,654L1026,662L1026,672L1026,672L1027,665L1025,678L1025,681L1026,689L1027,687L1026,694L1026,697L1027,702L1030,707L1026,712" fill="none" stroke="#000000" style="-webkit-tap-highlight-color: rgba(0, 0, 0, 0); stroke-linecap: round; stroke-linejoin: round; stroke-width: 8;" /><path d="M1026,715L1026,717L1023,723L1025,719L1026,731L1025,727L1026,731L1026,736L1023,740L1024,737L1023,743L1023,746L1023,748L1023,751L1025,757" fill="none" stroke="#000000" style="-webkit-tap-highlight-color: rgba(0, 0, 0, 0); stroke-linecap: round; stroke-linejoin: round; stroke-width: 8;" /><path d="M915.9,333.57" fill="none" stroke="#000000" style="-webkit-tap-highlight-color: rgba(0, 0, 0, 0); stroke-linecap: round; stroke-linejoin: round; stroke-width: 8;" /><path d="M1026,760L1025,765L1024,767L1023,771L1023,768L1023,777L1023,774L1023,780L1023,783L1025,786L1026,787L1026,787L1026,787" fill="none" stroke="#000000" style="-webkit-tap-highlight-color: rgba(0, 0, 0, 0); stroke-linecap: round; stroke-linejoin: round; stroke-width: 8;" /><path d="M916,348L916,340L916,340L912,336L914,362L914,360L913,356L912,351L913,380L913,367L913,373L913,386L913,393L916,394L925,416L921,405L925,422L925,431L925,434L921,445L923,455L921,446L925,463L923,458L926,474L926,466L926,476L926,475L925,484L925,486L925,489L925,495L925,500L926,506L927,517L926,511L927,520L927,526L927,531L927,531L927,540L926,543L925,547L924,550L924,555L924,551L924,562L924,562L925,571L925,577L925,581L925,588L925,592L929,599L928,604L928,610L928,610L928,616L928,619L928,621L928,621L916,625L916,628L916,630L916,633L916,636L916,639L916,642L929,638L929,638L929,661L930,658L929,664L929,661L928,676L928,667L928,673L928,676L928,685L929,681L928,687L927,690L928,695L927,692L928,698L928,701L928,704L929,707L929,710L930,711L934,720L930,711L934,721L935,724L935,724L939,735L939,735L939,735" fill="none" stroke="#000000" style="-webkit-tap-highlight-color: rgba(0, 0, 0, 0); stroke-linecap: round; stroke-linejoin: round; stroke-width: 8;" /><path d="M935,746L935,746L935,746L935,746L934,758L936,747L934,758L932,760L932,762L933,768L933,769L932,770L927,774L932,770L933,785" fill="none" stroke="#000000" style="-webkit-tap-highlight-color: rgba(0, 0, 0, 0); stroke-linecap: round; stroke-linejoin: round; stroke-width: 8;" /><path d="M904.59,390.11L903,393L902,399L904,397L902,399L897,399L893,406L894,404L889,412L889,411L885,412L882,412L873,427L882,412L873,427L873,427L871,427L867,430L865,432L862,434L857,441L851,440L848,439L842,438L840,438L828,449L828,449L828,449L825,451L824,455L828,452L823,455L818,459L813,466L820,457L807,469L808,473L797,475L805,469L793,478L789,482L791,481L786,486L780,489L775,496L771,495L778,492L768,498L769,500L767,500L763,498L754,506L754,508L755,512L752,514L752,515L749,519L749,520L749,521L746,521L744,522L740,525L739,526L738,527L735,534L734,537L734,541L734,543L727,543L729,545" fill="none" stroke="#000000" style="-webkit-tap-highlight-color: rgba(0, 0, 0, 0); stroke-linecap: round; stroke-linejoin: round; stroke-width: 8;" /><path d="M727,547L692.58,556.89L693,550L692,554L695,547L698,547L696,551L698,554L695,555L693,555L684,561L684,565L682,571L682,574L672,577L676,576L673,589L668,590L665,591L660,594L661,593L657,599L655,605L657,601L655,607L653,613L650,615L646,622L652,619L648,625L645,630L644,631L642,642L645,636L640,644L642,657L642,657L645,673L645,673L649,677L650,682L651,689L653,693L653,695L653,698L653,702L653,702L647,708L647,708L647,708L653,721L653,724L646,709L653,727L656,738L656,735L656,732L656,741L666,753L648,756L666,753L648,756L648,756L654,764L654,764L654,764L655,766L656,768L655,767L653,775L653,773L652,776L654,782L653,785L655,787L653,783L655,787L651,790L651,790" fill="none" stroke="#000000" style="-webkit-tap-highlight-color: rgba(0, 0, 0, 0); stroke-linecap: round; stroke-linejoin: round; stroke-width: 8;" /><path d="M651,790L660,787" fill="none" stroke="#000000" style="-webkit-tap-highlight-color: rgba(0, 0, 0, 0); stroke-linecap: round; stroke-linejoin: round; stroke-width: 8;" /><path d="M260.07,517.31L255,521L252,520L255,521L263,520L273,521L268,520L280,524L286,526L294,530L291,530L304,540L296,534L304,546L301,554L302,555L302,562L302,562L304,581L304,581L302,588L303,582L300,593L300,596L299,610L297,602L301,612L305,615L304,622L304,622L306,626L306,626L308,644L308,644L306,645L305,646L304,653L304,650L304,656L304,659L304,661L308,666L308,670L308,676L307,678L311,683L305,690L305,690L302,694L302,693L302,694L296,705L296,707L296,708L304,715L304,714L304,724L304,718L303,732L304,727L303,733L304,739L305,742L304,749L304,755L304,759L303,764L302,766L304,775L304,774L303,785L304,777L303,786L303,792L306,794L306,795L303,803L303,808L305,813L302,820L302,825L303,831L303,834L304,837L305,840L305,842L303,846L307,851L302,854L309,857L309,857L310,861L302,868L302,867L299,869L295,871L288,874L295,878L291,874L284,876L279,882L279,884L278,885L275,890L275,893L275,901L274,895L274,902L273,904L272,905L272,912L274,914L270,910L263,912L267,910L269,910L262,913L253,919L248,923L257,916L251,922L235,927L246,923L246,923L238,936L237,938L238,936L235,939" fill="none" stroke="#000000" style="-webkit-tap-highlight-color: rgba(0, 0, 0, 0); stroke-linecap: round; stroke-linejoin: round; stroke-width: 8;" /><path d="M232,939L232,939L231,945L228,940L226,944L222,948L223,946L212,952L214,952L212,958L197,971L211,953L211,953L201,972L197,971L198,972L201,972L196,972L196,972L196,972L196,972L185,970L181,984L172,987L157,987L156,989L133,989L156,989L149,997L119,989L124,989L107,999L107,999L101,999L80,978L107,999L102,999L73,998L73,985L76,982L73,985" fill="none" stroke="#000000" style="-webkit-tap-highlight-color: rgba(0, 0, 0, 0); stroke-linecap: round; stroke-linejoin: round; stroke-width: 8;" /><path d="M497.53,607.77L493,602L493,602L493,602L492,608L492,608L492,611L483,622L483,622L486,625L486,625L488,645L488,645L487,646L484,648L480,650L480,650L477,651L473,652L472,655L470,657L466,657L465,657L460,664L458,664L455,657L458,664L455,667L455,671L452,670L450,670L443,676L443,678L438,682L435,682L433,683L430,684L427,687L424,686L423,692L416,698L418,686L413,698L410,698L408,704L407,700L405,704L404,706L403,710L403,712L403,710L403,714L397,727L403,718L397,726L398,730L396,736L395,737L396,735L401,749L401,749L396,752L395,750L395,750L392,755L392,766L392,757L390,758L386,768L386,769L384,775L385,773L384,777L384,780L382,781L382,786L378,792L381,788L375,794L376,794L370,804L367,804L364,806L358,812L362,808L356,813L352,816L352,816L352,816L352,816L348,836L352,816L345,836L348,836L345,836L342,837L339,839L336,839L334,840L336,839L330,842L331,840L324,848L328,840L325,848L323,849L323,849L319,853L312,854L312,852" fill="none" stroke="#000000" style="-webkit-tap-highlight-color: rgba(0, 0, 0, 0); stroke-linecap: round; stroke-linejoin: round; stroke-width: 8;" /><path d="M312,854L309,857L302,858L300,862L300,862L300,863L294,871L288,874L286,874L286,874L288,874L285,874L294,871" fill="none" stroke="#000000" style="-webkit-tap-highlight-color: rgba(0, 0, 0, 0); stroke-linecap: round; stroke-linejoin: round; stroke-width: 8;" /><path d="M415.55,1034.63L410,1037L407,1040L410,1037L416,1035L421,1032L432,1029L432,1026L438,1020L446,1018L449,1017L456,1009L457,1006L463,1003L468,991L467,998L472,988L475,983L482,979L480,980L486,970L487,971L489,962L488,966L496,960L497,960L505,956L507,958L512,957L511,959L525,967L528,964L541,967L534,964L544,964L544,959L548,957L546,950L548,949L547,943L551,943L551,942L554,942L557,941L560,939L561,940L561,939L566,939L566,939L570,936L572,934L577,933L592,919L582,927L592,919L600,915L605,913L609,907L610,906L610,906L610,906L613,899L613,898L613,899L617,888L619,888L621,885L621,887L627,880L633,874L627,880L645,865L645,865L659,863L656,863L661,863L664,863L670,857L669,859L669,859L673,856L675,856L684,858L700,853L680,857L700,853L703,851L700,853L707,850L717,849L727,851L717,849L712,850L736,850L733,851L741,849L746,848" fill="none" stroke="#000000" style="-webkit-tap-highlight-color: rgba(0, 0, 0, 0); stroke-linecap: round; stroke-linejoin: round; stroke-width: 8;" /><path d="M758,848L746,849L746,849L760,849L767,855L769,858L767,855L772,861L789,869L780,866L774,859L784,867L794,870L795,870L795,870L795,870L811,882L828,877L823,873L823,876L834,879L842,879L841,880L843,874L837,871" fill="none" stroke="#000000" style="-webkit-tap-highlight-color: rgba(0, 0, 0, 0); stroke-linecap: round; stroke-linejoin: round; stroke-width: 8;" /><path d="M740.64,587.99" fill="none" stroke="#000000" style="-webkit-tap-highlight-color: rgba(0, 0, 0, 0); stroke-linecap: round; stroke-linejoin: round; stroke-width: 8;" /><path d="M837,868" fill="none" stroke="#000000" style="-webkit-tap-highlight-color: rgba(0, 0, 0, 0); stroke-linecap: round; stroke-linejoin: round; stroke-width: 8;" /><path d="M744,588L732,579L732,579L732,579L729,579L727,579L726,581L726,581L731,603L731,603L735,612L732,615L731,620L739,629L739,631L735,640L732,647L733,645L732,653L731,656L729,660L729,660L729,663L729,663L735,668L735,674L735,676L733,682L733,684L733,682L731,690L730,693L728,698L729,695L728,700L728,704L728,707L728,710L730,711L729,715L729,718L729,720L728,724L727,727L728,729L727,732L727,734L727,738L724,741L724,743L724,743L719,749L719,752L719,754L719,760L719,760L731,755" fill="none" stroke="#000000" style="-webkit-tap-highlight-color: rgba(0, 0, 0, 0); stroke-linecap: round; stroke-linejoin: round; stroke-width: 8;" /><path d="M732,768L732,768L732,769L732,769L723.67,768.9L719,763L719,763L732,772L719,766L741,774L750,779L758,782L763,789L768,792L771,797L775,804L776,806L782,811L784,815L787,817L792,820L789,820L791,823L794,826L800,828L797,825L803,831L806,833L809,840L812,840L814,845L814,842L817,848L817,851L820,853L820,857L823,855L821,859L825,862L828,865L832,864L836,869L837,871L842,873L840,870L846,873L848,877" fill="none" stroke="#000000" style="-webkit-tap-highlight-color: rgba(0, 0, 0, 0); stroke-linecap: round; stroke-linejoin: round; stroke-width: 8;" /><path d="M854,876L852,876L857,876L857,876L862,875L869,885L862,875L862,875L861,873L851,859" fill="none" stroke="#000000" style="-webkit-tap-highlight-color: rgba(0, 0, 0, 0); stroke-linecap: round; stroke-linejoin: round; stroke-width: 8;" /><path d="M749.12,573.85L749,576L746,575L743,575L743,573L755,576L752,574L758,577L758,577L770,570L778,572L778,572L780,572L786,573L789,573L792,573L796,573L794,573L800,573L803,573L808,574L808,574L812,574L811,574L818,573L822,574L823,574L825,574L834,576L829,575L843,583L841,580L845,587L843,583L845,587L845,587" fill="none" stroke="#000000" style="-webkit-tap-highlight-color: rgba(0, 0, 0, 0); stroke-linecap: round; stroke-linejoin: round; stroke-width: 8;" /><path d="M849,593L849,593L851,594L852,596L852,596L854,599L854,599L852,596L855,601" fill="none" stroke="#000000" style="-webkit-tap-highlight-color: rgba(0, 0, 0, 0); stroke-linecap: round; stroke-linejoin: round; stroke-width: 8;" /><path d="M1096.82,797.17L1100,796L1102,796L1111,800L1115,801L1116,801L1124,802L1131,806L1142,807L1136,804L1147,806L1153,805L1156,804L1159,804L1162,804L1163,804L1167,803L1176,816L1176,816L1176,816L1179,816L1179,816L1176,816L1176,816L1176,816L1167,803L1163,804L1162,804L1166,821" fill="none" stroke="#000000" style="-webkit-tap-highlight-color: rgba(0, 0, 0, 0); stroke-linecap: round; stroke-linejoin: round; stroke-width: 8;" /><path d="M1166,821L1169,819" fill="none" stroke="#000000" style="-webkit-tap-highlight-color: rgba(0, 0, 0, 0); stroke-linecap: round; stroke-linejoin: round; stroke-width: 8;" /><path d="M1373.85,712.37L1369,721L1377,720L1380,720L1387,719L1380,720L1394,719L1388,719L1395,719L1399,719L1412,722L1405,719L1416,722L1418,722L1425,720L1429,721L1429,721L1433,720L1436,717L1440,718L1442,718L1445,718L1450,718L1450,718L1447,716L1456,722L1464,722L1459,722L1461,722L1464,722L1466,723L1478,714L1478,714L1479,713L1479,713L1494,717L1490,718L1495,712L1504,711L1510,709L1505,710L1514,708L1516,707L1527,703L1520,705L1522,705L1536,698L1528,703L1535,699L1532,701L1553,696L1536,698L1553,696L1536,698" fill="none" stroke="#000000" style="-webkit-tap-highlight-color: rgba(0, 0, 0, 0); stroke-linecap: round; stroke-linejoin: round; stroke-width: 8;" /><path d="M1553,696L1554,695L1557,694L1555,695L1560,695L1566,693L1563,695L1569,692L1572,692L1577,690L1579,689L1583,689L1586,690L1592,691L1589,690L1594,691L1597,690L1598,689" fill="none" stroke="#000000" style="-webkit-tap-highlight-color: rgba(0, 0, 0, 0); stroke-linecap: round; stroke-linejoin: round; stroke-width: 8;" /><path d="M1444.52,816.96L1440,817L1440,817L1440,815L1442,811L1444,812L1447,813L1450,811L1453,811L1456,814L1461,814L1466,811L1463,814L1477,817L1480,814L1490,813L1483,814" fill="none" stroke="#000000" style="-webkit-tap-highlight-color: rgba(0, 0, 0, 0); stroke-linecap: round; stroke-linejoin: round; stroke-width: 8;" /><path d="M1496,811L1501,811L1516,811L1510,811L1510,811L1516,811L1522,805" fill="none" stroke="#000000" style="-webkit-tap-highlight-color: rgba(0, 0, 0, 0); stroke-linecap: round; stroke-linejoin: round; stroke-width: 8;" /><path d="M1438.87,785.87" fill="none" stroke="#000000" style="-webkit-tap-highlight-color: rgba(0, 0, 0, 0); stroke-linecap: round; stroke-linejoin: round; stroke-width: 8;" /><path d="M1522,805L1532,809L1532,809L1535,807L1532,809L1534,807L1535,807" fill="none" stroke="#000000" style="-webkit-tap-highlight-color: rgba(0, 0, 0, 0); stroke-linecap: round; stroke-linejoin: round; stroke-width: 8;" /><path d="M1436,786" fill="none" stroke="#000000" style="-webkit-tap-highlight-color: rgba(0, 0, 0, 0); stroke-linecap: round; stroke-linejoin: round; stroke-width: 8;" /><path d="M1534,807" fill="none" stroke="#000000" style="-webkit-tap-highlight-color: rgba(0, 0, 0, 0); stroke-linecap: round; stroke-linejoin: round; stroke-width: 8;" /><path d="M1433,786L1433,786L1436,777L1436,779L1442,780L1460,777L1461,776L1480,779L1470,777L1489,778" fill="none" stroke="#000000" style="-webkit-tap-highlight-color: rgba(0, 0, 0, 0); stroke-linecap: round; stroke-linejoin: round; stroke-width: 8;" /><path d="M1494,773L1501,777L1504,776L1501,774L1501,774L1500,771L1494,773L1490,775" fill="none" stroke="#000000" style="-webkit-tap-highlight-color: rgba(0, 0, 0, 0); stroke-linecap: round; stroke-linejoin: round; stroke-width: 8;" /><path d="M1396.47,768.9L1395,766L1395,763L1395,763L1400,758L1418,760L1405,758L1424,760L1433,764L1444,763L1450,762L1456,759L1459,758" fill="none" stroke="#000000" style="-webkit-tap-highlight-color: rgba(0, 0, 0, 0); stroke-linecap: round; stroke-linejoin: round; stroke-width: 8;" /><path d="M1461,758L1463,757L1466,753L1469,757L1473,755L1469,757L1466,753L1402.12,734.98L1464,755L1399,735L1396,737L1396,737L1390,734L1390,734L1390,735L1388,735L1396,737L1405,736L1414,729L1436,735L1443,729" fill="none" stroke="#000000" style="-webkit-tap-highlight-color: rgba(0, 0, 0, 0); stroke-linecap: round; stroke-linejoin: round; stroke-width: 8;" /><path d="M1456,726L1467,724L1464,723L1470,725L1469,726" fill="none" stroke="#000000" style="-webkit-tap-highlight-color: rgba(0, 0, 0, 0); stroke-linecap: round; stroke-linejoin: round; stroke-width: 8;" /><path d="M1359.72,867.84L1353,864L1350,866L1350,866L1337,851L1320,852L1331,853L1310,851L1301,850L1298,850L1292,850L1289,850L1290,848L1289,845L1292,843L1298,846L1295,843L1306,845L1300,846L1308,844L1315,848L1323,851L1331,850L1340,851L1348,853L1358,859L1363,859L1371,865L1365,862L1374,867L1377,870L1378,871L1389,874L1395,868L1395,868L1401,869L1396,868L1401,869L1407,874L1418,877L1416,877L1418,877L1430,871L1442,870L1442,870L1442,870L1445,870L1445,870L1445,870L1456,875L1459,873L1469,874L1461,873L1464,874L1478,877L1481,876L1478,877L1482,876L1497,872L1497,872L1491,878L1498,872L1510,874L1504,872L1501,873L1507,871L1512,873L1514,873L1521,870L1514,873L1531,873L1529,873L1531,873L1529,873L1551,879L1550,878L1538,871L1550,878" fill="none" stroke="#000000" style="-webkit-tap-highlight-color: rgba(0, 0, 0, 0); stroke-linecap: round; stroke-linejoin: round; stroke-width: 8;" /><path d="M1554,880L1551,879L1554,880L1554,880L1554,880L1568,881L1568,881L1568,881L1571,882L1578,896L1573,883L1573,883L1580,895L1583,895L1579,895L1586,895L1589,894L1592,894L1592,894L1589,894L1583,879L1586,883" fill="none" stroke="#000000" style="-webkit-tap-highlight-color: rgba(0, 0, 0, 0); stroke-linecap: round; stroke-linejoin: round; stroke-width: 8;" /><path d="M1054.42,848.06L1046,837L1048,835L1049,834L1050,833L1049,834L1048,835L1047,836L1045,838L1045,838L1040,842L1040,862L1038,843L1035,846L1027,852L1024,868L1024,868L1037,865L1024,868L1023,871L1023,871L1023,871L1019,877L1016,879L1010,882L1019,877L1007,885L1004,888L1002,890L1004,887L998,893L994,895L995,899L992,899L992,899L989,899L986,909L982,908L982,908L974,905L970,905L972,905L967,905L965,905L960,906L958,906L956,910L953,910L947,915L950,913L944,916L944,919L937,922L940,920L936,923L931,927L928,930L925,934L924,936L922,939L916,940L920,941L914,941L911,941L905,946L909,944L904,949L900,951L900,951L897,954L894,956L892,958L889,961L888,962L878,960L878,960L877,971L873,963L876,972L866,968L865,970L864,972L862,974L864,976L861,979L861,979L852,988L859,982L852,988L849,989L849,989" fill="none" stroke="#000000" style="-webkit-tap-highlight-color: rgba(0, 0, 0, 0); stroke-linecap: round; stroke-linejoin: round; stroke-width: 8;" /></svg>