<?xml version="1.0" encoding="utf-8" ?>
<svg baseProfile="full" height="1200" version="1.1" width="1600" xmlns="http://www.w3.org/2000/svg" xmlns:ev="http://www.w3.org/2001/xml-events" xmlns:xlink="http://www.w3.org/1999/xlink"><defs /><path d="M78.2,98.65L79.4,97.44L81.8,98.65L85.41,98.65L90.23,98.65L95.04,98.65L97.44,99.85L99.85,99.85L101.05,101.05" fill="none" stroke="#000000" style="-webkit-tap-highlight-color: rgba(0, 0, 0, 0); stroke-linecap: round; stroke-linejoin: round; stroke-width: 8;" /><path d="M96.24,98.65L96.24,99.85L97.44,102.26L98.65,103.46L102.26,104.66L107.07,104.66L111.88,104.66L113.08,104.66L123.91,103.46L131.13,104.66L137.14,104.66L143.16,105.86L153.98,105.86L157.59,105.86L161.2,105.86L163.61,108.27L167.22,108.27L169.62,110.68L172.03,110.68L174.44,110.68L175.64,110.68" fill="none" stroke="#000000" style="-webkit-tap-highlight-color: rgba(0, 0, 0, 0); stroke-linecap: round; stroke-linejoin: round; stroke-width: 8;" /><path d="M172.03,63.76L172.03,64.96L172.03,68.57L173.23,74.59L174.44,81.8L174.44,90.23L175.64,97.44L176.84,103.46L178.05,107.07" fill="none" stroke="#000000" style="-webkit-tap-highlight-color: rgba(0, 0, 0, 0); stroke-linecap: round; stroke-linejoin: round; stroke-width: 8;" /><path d="M179.25,55.34L180.45,55.34L185.26,55.34L188.87,56.54L193.68,55.34L198.5,56.54L203.31,57.74L208.12,57.74L224.96,56.54L229.77,56.54L233.38,56.54L238.2,57.74L240.6,58.95L244.21,61.35L246.62,62.56L250.23,63.76L251.43,63.76L257.44,66.17L259.85,67.37L261.05,69.77L263.46,70.98L264.66,72.18L267.07,75.79L268.27,76.99L270.68,79.4L273.08,80.6L276.69,84.21L279.1,86.62L280.3,89.02L281.5,91.43L282.71,93.83L286.32,95.04L288.72,97.44L289.92,97.44L294.74,101.05L297.14,101.05L299.55,102.26L304.36,102.26L306.77,101.05L309.17,102.26L311.58,103.46L316.39,104.66L318.8,104.66L320,104.66L324.81,109.47L328.42,111.88L330.83,114.29L334.44,116.69L336.84,119.1L340.45,123.91L344.06,126.32L346.47,129.92L348.87,132.33L353.68,135.94L357.29,138.35L359.7,140.75L362.11,141.95L365.71,143.16L368.12,144.36L371.73,146.77L374.14,147.97L376.54,150.38L380.15,152.78L383.76,153.98L387.37,155.19L390.98,156.39L393.38,158.8L398.2,162.41L407.82,164.81L409.02,164.81L411.43,164.81L416.24,164.81L421.05,164.81L425.86,164.81L429.47,164.81L433.08,164.81L439.1,163.61L442.71,164.81L446.32,164.81L452.33,164.81L457.14,166.02L461.95,164.81L465.56,164.81L469.17,164.81L472.78,166.02L478.8,166.02L481.2,166.02L484.81,164.81L489.62,164.81L492.03,166.02L495.64,166.02L499.25,164.81L501.65,164.81L504.06,164.81L508.87,164.81L511.28,166.02L514.89,167.22L519.7,168.42L523.31,170.83L525.71,172.03L528.12,175.64L531.73,176.84L534.14,179.25L536.54,180.45" fill="none" stroke="#000000" style="-webkit-tap-highlight-color: rgba(0, 0, 0, 0); stroke-linecap: round; stroke-linejoin: round; stroke-width: 8;" /><path d="M529.32,180.45L531.73,182.86L535.34,186.47L538.95,191.28L543.76,198.5L547.37,204.51L550.98,209.32L554.59,214.14L558.2,217.74L561.8,221.35L564.21,222.56L566.62,226.17L567.82,227.37L572.63,233.38L575.04,235.79L576.24,238.2L578.65,241.8L581.05,244.21L583.46,246.62L584.66,249.02L588.27,250.23L591.88,251.43L594.29,252.63L596.69,255.04L597.89,256.24L600.3,257.44L602.71,259.85L603.91,261.05L605.11,259.85L606.32,261.05L607.52,263.46L611.13,267.07L612.33,270.68L614.74,274.29L615.94,277.89L618.35,279.1L621.95,285.11L625.56,289.92L627.97,292.33L631.58,294.74L636.39,300.75L638.8,303.16L641.2,305.56L643.61,310.38L644.81,311.58L647.22,312.78L649.62,316.39L654.44,320L655.64,321.2L656.84,321.2L658.05,326.02L659.25,326.02L659.25,324.81L660.45,326.02L661.65,328.42L662.86,332.03L665.26,334.44L666.47,336.84L667.67,340.45L668.87,342.86L670.08,345.26L671.28,346.47L672.48,348.87" fill="none" stroke="#000000" style="-webkit-tap-highlight-color: rgba(0, 0, 0, 0); stroke-linecap: round; stroke-linejoin: round; stroke-width: 8;" /><path d="M677.29,351.28L677.29,352.48L674.89,357.29L672.48,360.9L671.28,364.51L670.08,368.12L667.67,370.53L665.26,374.14L662.86,375.34L661.65,376.54L660.45,377.74L660.45,378.95L660.45,381.35L660.45,383.76L659.25,384.96L659.25,387.37L659.25,389.77L659.25,392.18L660.45,394.59L661.65,396.99L664.06,398.2L665.26,399.4L667.67,401.8L668.87,403.01L670.08,405.41L671.28,406.62L672.48,409.02L672.48,410.23L673.68,412.63L676.09,413.83L678.5,416.24L678.5,417.44L679.7,419.85L680.9,423.46L682.11,425.86L683.31,427.07L684.51,429.47L686.92,430.68L689.32,435.49L690.53,437.89L690.53,439.1L691.73,440.3L694.14,443.91L695.34,445.11L695.34,446.32L695.34,447.52L697.74,451.13L697.74,452.33L698.95,453.53L698.95,454.74L700.15,455.94L701.35,458.35L702.56,460.75L703.76,460.75L706.17,461.95L709.77,463.16L710.98,464.36L712.18,464.36L713.38,464.36L714.59,465.56L715.79,465.56L718.2,466.77L719.4,469.17L720.6,472.78L720.6,476.39L721.8,478.8L723.01,482.41L724.21,483.61L725.41,484.81L727.82,489.62L729.02,492.03L729.02,494.44L730.23,495.64L730.23,496.84L731.43,496.84L731.43,498.05L733.83,500.45L733.83,501.65L733.83,504.06L735.04,506.47L735.04,508.87L735.04,511.28L736.24,514.89L737.44,517.29L737.44,519.7L738.65,523.31L739.85,524.51L739.85,525.71L741.05,526.92L741.05,528.12L741.05,529.32L743.46,534.14L744.66,535.34L745.86,537.74L747.07,540.15L748.27,541.35L749.47,541.35L750.68,542.56L753.08,543.76L755.49,544.96L759.1,543.76" fill="none" stroke="#000000" style="-webkit-tap-highlight-color: rgba(0, 0, 0, 0); stroke-linecap: round; stroke-linejoin: round; stroke-width: 8;" /><path d="M737.44,220.15L737.44,216.54L737.44,215.34L737.44,214.14L737.44,212.93L735.04,218.95L733.83,222.56L733.83,227.37L732.63,233.38L732.63,238.2L732.63,243.01L732.63,249.02L733.83,253.83L735.04,258.65L735.04,261.05L736.24,262.26L737.44,265.86L737.44,269.47L738.65,273.08L738.65,276.69L739.85,280.3L739.85,283.91L739.85,287.52L741.05,292.33L741.05,294.74L742.26,295.94L742.26,297.14L742.26,300.75L742.26,303.16L742.26,304.36L741.05,307.97L741.05,310.38L741.05,311.58L741.05,312.78L741.05,318.8L741.05,320L741.05,318.8L739.85,320L739.85,321.2L738.65,322.41L738.65,323.61L737.44,324.81L737.44,327.22L737.44,328.42L739.85,330.83L741.05,335.64L742.26,338.05L742.26,340.45L743.46,341.65L743.46,344.06L744.66,344.06L744.66,346.47L744.66,348.87L744.66,351.28L745.86,351.28L745.86,352.48L747.07,353.68L748.27,354.89L748.27,356.09L748.27,357.29L748.27,358.5L749.47,359.7L749.47,360.9L749.47,362.11L750.68,363.31L751.88,365.71L753.08,369.32L753.08,370.53L753.08,372.93L753.08,374.14L753.08,375.34L753.08,377.74L754.29,381.35L754.29,386.17L755.49,388.57L755.49,390.98L755.49,394.59L755.49,396.99L755.49,399.4L755.49,401.8L755.49,404.21L755.49,407.82L754.29,409.02L754.29,411.43L754.29,413.83L753.08,415.04L753.08,417.44L753.08,419.85L751.88,422.26L751.88,424.66L751.88,425.86L751.88,427.07L751.88,430.68L751.88,433.08L751.88,434.29L753.08,435.49L753.08,436.69L754.29,437.89L755.49,439.1L757.89,442.71L757.89,443.91L759.1,443.91L759.1,445.11L760.3,446.32L760.3,448.72L760.3,449.92L760.3,452.33L760.3,453.53L760.3,455.94L760.3,457.14L760.3,459.55L760.3,460.75L760.3,463.16L760.3,464.36L759.1,464.36L759.1,466.77L757.89,467.97L756.69,470.38L756.69,472.78L756.69,473.98L755.49,473.98L754.29,476.39L753.08,478.8L753.08,481.2L751.88,482.41L751.88,483.61L751.88,486.02L751.88,488.42L751.88,489.62L751.88,492.03L751.88,493.23L753.08,494.44L753.08,495.64L754.29,496.84L754.29,498.05L755.49,499.25L755.49,500.45L756.69,502.86L757.89,505.26L759.1,507.67L759.1,510.08L759.1,512.48L759.1,514.89L759.1,516.09L759.1,517.29L760.3,519.7L760.3,523.31L760.3,524.51L760.3,528.12L760.3,529.32L760.3,530.53L760.3,531.73L760.3,535.34L759.1,537.74L757.89,538.95L757.89,540.15L755.49,541.35L754.29,542.56L753.08,544.96L750.68,546.17L749.47,546.17" fill="none" stroke="#000000" style="-webkit-tap-highlight-color: rgba(0, 0, 0, 0); stroke-linecap: round; stroke-linejoin: round; stroke-width: 8;" /><path d="M737.44,216.54L737.44,214.14L736.24,211.73L737.44,210.53L737.44,208.12L738.65,206.92L739.85,204.51L745.86,194.89L747.07,191.28L749.47,188.87L750.68,186.47L754.29,184.06L757.89,180.45L761.5,175.64L763.91,169.62L766.32,164.81L769.92,157.59L773.53,153.98L775.94,150.38L779.55,147.97L783.16,145.56L786.77,143.16L789.17,141.95L791.58,139.55L792.78,138.35L793.98,138.35L795.19,137.14L797.59,134.74L800,132.33L801.2,132.33L802.41,129.92L803.61,127.52L803.61,126.32L804.81,121.5L804.81,120.3L806.02,115.49L806.02,113.08L806.02,110.68L806.02,108.27L806.02,107.07L807.22,102.26L806.02,101.05L807.22,98.65L807.22,97.44L807.22,96.24L807.22,95.04L807.22,93.83L807.22,92.63L808.42,92.63L809.62,91.43L812.03,90.23L813.23,90.23L816.84,91.43L819.25,91.43L822.86,91.43L825.26,91.43L827.67,91.43L832.48,92.63L833.68,92.63L836.09,92.63L838.5,92.63L840.9,93.83L843.31,95.04L844.51,95.04L846.92,96.24L850.53,97.44L851.73,97.44L852.93,98.65L855.34,99.85L856.54,101.05L857.74,101.05L863.76,103.46L864.96,103.46L867.37,104.66L868.57,104.66L869.77,104.66L872.18,105.86L874.59,105.86L875.79,105.86L876.99,107.07L880.6,108.27L881.8,108.27L881.8,109.47L883.01,109.47L884.21,109.47L886.62,110.68L889.02,109.47L890.23,109.47L891.43,109.47L893.83,109.47L896.24,109.47L897.44,110.68L899.85,110.68L901.05,111.88L902.26,114.29L903.46,116.69L904.66,119.1L905.86,121.5L907.07,126.32L907.07,128.72L908.27,129.92L909.47,132.33L910.68,133.53L910.68,134.74L911.88,135.94L911.88,137.14L913.08,137.14L914.29,137.14L914.29,138.35L916.69,138.35L917.89,139.55L920.3,140.75L921.5,141.95L922.71,143.16L923.91,144.36L925.11,145.56L927.52,145.56L928.72,146.77L929.92,146.77L932.33,144.36L934.74,143.16L935.94,141.95L937.14,140.75L938.35,140.75L940.75,138.35L940.75,137.14L941.95,135.94L943.16,133.53L944.36,131.13L945.56,128.72L945.56,127.52L947.97,122.71L949.17,119.1L950.38,115.49L951.58,111.88L953.98,108.27L955.19,105.86L956.39,103.46L957.59,101.05L958.8,99.85L962.41,95.04L963.61,92.63L966.02,91.43L968.42,89.02L969.62,87.82L970.83,85.41L972.03,84.21L974.44,81.8L975.64,80.6L978.05,78.2L978.05,76.99L979.25,75.79L980.45,75.79L981.65,75.79L984.06,75.79L986.47,75.79L988.87,75.79L993.68,73.38L996.09,72.18L998.5,70.98L1000.9,69.77L1002.11,68.57L1003.31,68.57L1004.51,67.37L1008.12,67.37L1011.73,66.17L1017.74,64.96L1018.95,64.96L1020.15,64.96L1021.35,64.96L1024.96,66.17L1027.37,66.17L1030.98,64.96L1034.59,64.96L1039.4,63.76" fill="none" stroke="#000000" style="-webkit-tap-highlight-color: rgba(0, 0, 0, 0); stroke-linecap: round; stroke-linejoin: round; stroke-width: 8;" /><path d="M1029.77,58.95L1027.37,58.95L1026.17,58.95L1027.37,56.54L1030.98,55.34L1036.99,50.53L1041.8,46.92L1046.62,44.51L1050.23,42.11L1055.04,40.9L1059.85,38.5L1064.66,36.09L1069.47,34.89L1074.29,33.68L1079.1,32.48L1089.92,28.87L1094.74,27.67L1100.75,26.47L1105.56,24.06L1110.38,22.86L1115.19,21.65L1120,20.45L1124.81,18.05L1128.42,15.64L1138.05,12.03L1140.45,10.83L1144.06,9.62L1145.26,9.62L1148.87,9.62L1152.48,10.83L1153.68,12.03L1156.09,12.03L1162.11,10.83L1165.71,10.83L1169.32,9.62L1175.34,8.42L1181.35,7.22L1188.57,6.02L1195.79,4.81" fill="none" stroke="#000000" style="-webkit-tap-highlight-color: rgba(0, 0, 0, 0); stroke-linecap: round; stroke-linejoin: round; stroke-width: 8;" /><path d="M933.53,140.75L932.33,141.95L929.92,146.77L927.52,149.17L926.32,153.98L923.91,158.8L922.71,162.41L922.71,164.81L921.5,167.22L922.71,169.62L923.91,172.03L923.91,174.44L923.91,176.84L925.11,176.84L926.32,178.05L926.32,179.25L927.52,181.65L927.52,184.06L926.32,187.67L926.32,188.87L926.32,190.08L926.32,191.28L926.32,193.68L925.11,194.89L925.11,196.09L925.11,197.29L925.11,198.5L926.32,198.5L927.52,200.9L928.72,200.9L929.92,200.9L931.13,202.11L933.53,203.31L934.74,204.51L934.74,206.92L934.74,209.32L933.53,212.93L933.53,215.34L932.33,217.74L932.33,221.35L931.13,222.56L931.13,224.96L929.92,226.17L929.92,227.37L929.92,228.57L928.72,229.77L928.72,233.38L927.52,234.59L927.52,236.99L926.32,239.4L926.32,240.6L926.32,241.8L925.11,243.01L925.11,244.21L925.11,245.41L923.91,247.82L922.71,247.82L922.71,249.02L922.71,250.23L921.5,251.43L920.3,251.43L920.3,252.63L917.89,255.04L916.69,255.04L915.49,256.24L915.49,257.44L914.29,258.65L914.29,259.85L913.08,259.85L913.08,261.05L913.08,264.66L913.08,265.86L913.08,268.27L913.08,269.47L913.08,271.88L913.08,274.29L913.08,275.49L914.29,276.69L914.29,279.1L915.49,280.3L914.29,282.71L914.29,285.11L915.49,287.52L915.49,289.92L916.69,291.13L916.69,293.53L917.89,297.14L917.89,299.55L917.89,300.75L919.1,303.16L920.3,304.36L921.5,306.77L922.71,309.17L923.91,312.78L923.91,313.98L925.11,315.19L925.11,316.39L926.32,318.8L926.32,321.2L926.32,322.41L926.32,324.81L927.52,327.22L927.52,328.42L927.52,329.62L927.52,330.83L928.72,332.03L929.92,334.44L931.13,336.84L931.13,339.25L931.13,342.86L931.13,346.47L931.13,348.87L932.33,351.28L932.33,353.68L933.53,357.29L932.33,358.5L932.33,360.9L932.33,363.31L932.33,365.71L932.33,368.12L932.33,371.73L932.33,375.34L932.33,378.95L932.33,380.15L931.13,381.35L931.13,382.56L931.13,384.96L931.13,390.98L929.92,393.38L929.92,394.59L928.72,396.99L928.72,398.2L927.52,401.8L926.32,405.41L925.11,409.02L923.91,411.43L923.91,412.63L921.5,415.04L919.1,417.44L917.89,419.85L915.49,423.46L914.29,425.86L913.08,427.07L911.88,429.47L909.47,434.29L908.27,435.49L907.07,437.89L905.86,441.5L904.66,442.71L903.46,446.32L903.46,449.92L902.26,452.33L901.05,453.53L901.05,457.14L901.05,459.55L901.05,461.95L901.05,463.16L901.05,464.36L902.26,467.97L902.26,469.17L904.66,471.58L904.66,472.78L904.66,475.19L905.86,477.59L905.86,480L905.86,482.41L905.86,486.02L905.86,489.62L905.86,495.64L905.86,499.25L905.86,501.65L905.86,502.86L905.86,505.26L905.86,508.87L905.86,511.28L905.86,513.68L905.86,514.89L905.86,516.09L905.86,518.5L904.66,522.11L904.66,523.31L904.66,525.71L904.66,526.92L903.46,529.32L903.46,530.53L903.46,532.93L902.26,534.14L901.05,535.34L899.85,537.74L898.65,541.35L898.65,542.56L897.44,544.96L897.44,546.17L898.65,547.37L899.85,550.98L899.85,553.38L901.05,554.59L902.26,556.99L902.26,560.6L902.26,563.01L902.26,566.62L903.46,569.02L903.46,575.04L903.46,578.65L903.46,579.85L903.46,581.05L904.66,582.26L904.66,583.46L904.66,587.07L904.66,589.47L905.86,591.88L905.86,594.29L904.66,596.69L904.66,599.1L904.66,601.5L904.66,602.71L904.66,603.91L903.46,608.72L903.46,611.13L902.26,612.33L901.05,614.74L899.85,617.14L899.85,618.35L898.65,619.55L897.44,619.55L897.44,621.95L896.24,621.95L896.24,623.16L895.04,625.56L893.83,626.77L893.83,629.17L892.63,631.58L892.63,633.98L892.63,635.19L891.43,637.59L890.23,640L890.23,641.2L889.02,643.61L889.02,644.81L887.82,648.42L887.82,649.62L887.82,650.83L887.82,652.03L886.62,652.03L885.41,653.23L884.21,653.23L881.8,653.23L879.4,653.23L878.2,653.23L875.79,654.44L874.59,655.64L870.98,658.05L868.57,660.45L867.37,662.86L864.96,664.06L862.56,665.26L860.15,666.47L857.74,667.67L856.54,668.87L854.14,671.28L850.53,672.48L849.32,672.48L846.92,672.48L845.71,672.48L844.51,672.48L842.11,672.48L839.7,672.48L838.5,672.48L836.09,673.68L832.48,674.89L831.28,676.09L830.08,676.09L828.87,677.29L828.87,678.5L827.67,678.5L827.67,679.7L826.47,679.7L826.47,680.9L826.47,683.31L827.67,684.51L828.87,686.92L828.87,688.12L830.08,688.12L830.08,689.32L827.67,691.73L824.06,692.93L822.86,694.14L821.65,694.14" fill="none" stroke="#000000" style="-webkit-tap-highlight-color: rgba(0, 0, 0, 0); stroke-linecap: round; stroke-linejoin: round; stroke-width: 8;" /><path d="M1088.72,226.17L1086.32,232.18L1086.32,235.79L1085.11,241.8L1083.91,247.82L1083.91,255.04L1082.71,262.26L1083.91,269.47L1085.11,279.1L1086.32,292.33L1087.52,297.14L1087.52,303.16L1087.52,310.38L1087.52,318.8L1087.52,328.42L1087.52,338.05L1087.52,347.67L1087.52,364.51L1086.32,372.93L1086.32,380.15L1085.11,387.37L1085.11,394.59L1086.32,401.8L1086.32,410.23L1087.52,417.44L1087.52,424.66L1086.32,441.5L1086.32,448.72L1086.32,457.14L1086.32,464.36L1087.52,472.78L1087.52,481.2L1086.32,487.22L1086.32,495.64L1086.32,505.26L1086.32,530.53L1086.32,538.95L1086.32,546.17L1085.11,555.79L1085.11,564.21L1083.91,577.44L1083.91,585.86L1083.91,591.88L1082.71,599.1L1082.71,603.91L1081.5,609.92L1081.5,615.94L1080.3,621.95L1079.1,626.77L1079.1,633.98L1079.1,638.8L1079.1,644.81L1077.89,656.84L1077.89,662.86L1077.89,667.67L1077.89,671.28L1077.89,674.89L1076.69,680.9L1076.69,685.71L1076.69,689.32L1076.69,694.14L1077.89,701.35L1076.69,704.96L1076.69,708.57L1076.69,712.18L1076.69,716.99L1075.49,721.8L1075.49,723.01L1075.49,725.41L1075.49,726.62L1075.49,730.23L1075.49,736.24L1075.49,739.85L1075.49,742.26L1075.49,743.46L1075.49,745.86L1075.49,748.27L1075.49,749.47L1075.49,751.88L1075.49,754.29L1075.49,755.49L1075.49,757.89L1076.69,759.1L1076.69,763.91" fill="none" stroke="#000000" style="-webkit-tap-highlight-color: rgba(0, 0, 0, 0); stroke-linecap: round; stroke-linejoin: round; stroke-width: 8;" /><path d="M1188.57,253.83L1189.77,255.04L1189.77,258.65L1189.77,263.46L1189.77,271.88L1189.77,281.5L1189.77,292.33L1190.98,303.16L1190.98,316.39L1192.18,327.22L1192.18,335.64L1192.18,353.68L1190.98,362.11L1190.98,381.35L1190.98,390.98L1190.98,399.4L1189.77,410.23L1189.77,419.85L1190.98,429.47L1190.98,448.72L1190.98,471.58L1189.77,484.81L1189.77,496.84L1188.57,508.87L1188.57,519.7L1188.57,530.53L1188.57,543.76L1187.37,569.02L1187.37,578.65L1187.37,588.27L1187.37,596.69L1186.17,605.11L1184.96,611.13L1183.76,618.35L1182.56,625.56L1181.35,632.78L1178.95,647.22L1177.74,652.03L1176.54,658.05L1176.54,665.26L1175.34,673.68L1174.14,679.7L1172.93,685.71L1171.73,692.93L1169.32,698.95L1168.12,706.17L1164.51,719.4L1164.51,725.41L1163.31,730.23L1162.11,735.04L1160.9,739.85L1158.5,744.66L1157.29,750.68L1157.29,755.49L1157.29,760.3L1156.09,768.72L1156.09,773.53L1156.09,778.35L1154.89,784.36L1154.89,787.97L1154.89,789.17" fill="none" stroke="#000000" style="-webkit-tap-highlight-color: rgba(0, 0, 0, 0); stroke-linecap: round; stroke-linejoin: round; stroke-width: 8;" /><path d="M881.8,655.64L879.4,656.84L874.59,659.25L870.98,662.86L869.77,664.06L869.77,665.26L869.77,666.47L870.98,666.47L873.38,668.87L876.99,671.28L881.8,672.48L892.63,677.29L898.65,680.9L905.86,685.71L911.88,689.32L916.69,694.14L922.71,698.95L928.72,702.56L934.74,704.96L940.75,707.37L951.58,710.98L957.59,712.18L964.81,713.38L969.62,715.79L975.64,718.2L982.86,723.01L990.08,727.82L997.29,731.43L1004.51,733.83L1017.74,739.85L1023.76,743.46L1029.77,748.27L1035.79,753.08L1045.41,756.69L1051.43,756.69L1056.24,757.89L1059.85,757.89L1061.05,757.89L1063.46,759.1" fill="none" stroke="#000000" style="-webkit-tap-highlight-color: rgba(0, 0, 0, 0); stroke-linecap: round; stroke-linejoin: round; stroke-width: 8;" /><path d="M905.86,648.42L907.07,649.62L911.88,652.03L915.49,658.05L922.71,661.65L931.13,666.47L940.75,670.08L963.61,683.31L974.44,691.73L985.26,700.15L996.09,706.17L1004.51,709.77L1011.73,710.98L1018.95,712.18L1023.76,714.59L1028.57,715.79L1036.99,716.99L1045.41,718.2L1050.23,719.4L1053.83,721.8L1056.24,724.21L1057.44,725.41L1057.44,726.62" fill="none" stroke="#000000" style="-webkit-tap-highlight-color: rgba(0, 0, 0, 0); stroke-linecap: round; stroke-linejoin: round; stroke-width: 8;" /><path d="M1091.13,218.95L1089.92,218.95L1089.92,214.14L1093.53,209.32L1098.35,204.51L1104.36,199.7L1110.38,193.68L1115.19,187.67L1120,181.65L1130.83,172.03L1135.64,168.42L1140.45,166.02L1142.86,164.81L1146.47,164.81L1150.08,166.02L1152.48,167.22L1157.29,169.62L1162.11,173.23L1169.32,179.25L1171.73,182.86L1172.93,187.67L1174.14,192.48L1175.34,198.5L1176.54,203.31L1176.54,208.12L1178.95,211.73L1181.35,220.15L1182.56,224.96L1182.56,230.98L1182.56,238.2L1182.56,245.41L1182.56,252.63L1182.56,261.05L1182.56,265.86" fill="none" stroke="#000000" style="-webkit-tap-highlight-color: rgba(0, 0, 0, 0); stroke-linecap: round; stroke-linejoin: round; stroke-width: 8;" /><path d="M1153.68,167.22L1156.09,167.22L1159.7,167.22L1164.51,164.81L1171.73,162.41L1178.95,158.8L1189.77,158.8L1194.59,161.2L1198.2,162.41L1203.01,163.61L1207.82,164.81L1211.43,164.81L1212.63,164.81L1213.83,166.02L1215.04,168.42L1216.24,172.03L1217.44,173.23L1218.65,174.44L1219.85,175.64L1221.05,176.84L1222.26,178.05L1223.46,180.45L1224.66,181.65L1227.07,182.86L1231.88,185.26L1234.29,187.67L1235.49,191.28L1236.69,194.89L1237.89,200.9L1240.3,205.71L1241.5,209.32L1242.71,212.93L1243.91,214.14L1245.11,216.54L1246.32,224.96L1247.52,228.57L1247.52,230.98L1248.72,233.38L1248.72,236.99L1249.92,239.4L1249.92,241.8L1249.92,244.21L1251.13,247.82L1252.33,251.43L1253.53,255.04L1253.53,257.44L1253.53,261.05L1253.53,265.86L1253.53,270.68L1253.53,274.29L1253.53,277.89L1253.53,288.72L1253.53,293.53L1253.53,297.14L1252.33,300.75L1252.33,304.36L1252.33,309.17L1252.33,313.98L1252.33,318.8L1251.13,327.22L1251.13,332.03L1249.92,336.84L1249.92,340.45L1249.92,344.06L1249.92,348.87L1249.92,352.48L1249.92,357.29L1248.72,363.31L1248.72,370.53L1248.72,378.95L1248.72,382.56L1248.72,386.17L1248.72,392.18L1248.72,396.99L1247.52,404.21L1246.32,410.23L1246.32,417.44L1246.32,425.86L1246.32,439.1L1245.11,446.32L1245.11,452.33L1245.11,460.75L1243.91,466.77L1243.91,475.19L1243.91,483.61L1243.91,492.03L1243.91,499.25L1242.71,513.68L1242.71,520.9L1242.71,528.12L1242.71,535.34L1242.71,541.35L1242.71,544.96L1242.71,549.77L1242.71,554.59L1242.71,560.6L1241.5,571.43L1240.3,579.85L1240.3,584.66L1240.3,589.47L1241.5,595.49L1241.5,599.1L1241.5,602.71L1240.3,608.72L1240.3,614.74L1239.1,619.55L1237.89,626.77L1236.69,642.41L1236.69,647.22L1235.49,653.23L1234.29,665.26L1233.08,670.08L1231.88,673.68L1230.68,683.31L1230.68,688.12L1229.47,691.73L1229.47,695.34L1229.47,698.95L1228.27,701.35L1228.27,703.76L1227.07,707.37L1227.07,709.77L1225.86,715.79L1224.66,719.4L1223.46,723.01L1223.46,725.41L1222.26,730.23L1222.26,733.83L1222.26,736.24L1222.26,738.65L1221.05,741.05L1219.85,747.07L1218.65,749.47L1218.65,753.08L1218.65,755.49L1218.65,756.69L1218.65,757.89L1217.44,757.89" fill="none" stroke="#000000" style="-webkit-tap-highlight-color: rgba(0, 0, 0, 0); stroke-linecap: round; stroke-linejoin: round; stroke-width: 8;" /><path d="M1206.62,753.08L1206.62,754.29L1205.41,756.69L1201.8,760.3L1196.99,765.11L1190.98,769.92L1176.54,781.95L1169.32,787.97L1165.71,791.58" fill="none" stroke="#000000" style="-webkit-tap-highlight-color: rgba(0, 0, 0, 0); stroke-linecap: round; stroke-linejoin: round; stroke-width: 8;" /><path d="M1166.92,797.59L1168.12,798.8L1170.53,801.2L1174.14,803.61L1177.74,807.22L1183.76,810.83L1189.77,813.23L1194.59,812.03L1199.4,814.44L1213.83,822.86L1219.85,825.26L1224.66,827.67L1230.68,830.08L1236.69,832.48L1242.71,834.89L1247.52,836.09L1252.33,837.29L1255.94,838.5L1265.56,842.11L1270.38,843.31L1275.19,842.11L1280,840.9L1284.81,840.9L1289.62,842.11L1295.64,842.11L1300.45,842.11L1305.26,842.11L1313.68,843.31L1317.29,844.51L1320.9,845.71L1325.71,846.92L1329.32,848.12L1334.14,850.53L1338.95,852.93L1343.76,854.14L1348.57,855.34L1356.99,862.56L1363.01,863.76L1369.02,867.37L1375.04,869.77L1382.26,870.98L1389.47,872.18L1396.69,873.38L1403.91,876.99L1409.92,879.4L1414.74,881.8L1427.97,885.41L1433.98,887.82L1441.2,890.23L1447.22,893.83L1454.44,896.24L1461.65,899.85L1468.87,904.66L1477.29,909.47L1497.74,919.1L1509.77,925.11L1519.4,929.92L1530.23,935.94L1545.86,944.36L1565.11,950.38L1585.56,957.59" fill="none" stroke="#000000" style="-webkit-tap-highlight-color: rgba(0, 0, 0, 0); stroke-linecap: round; stroke-linejoin: round; stroke-width: 8;" /><path d="M1222.26,751.88L1222.26,753.08L1223.46,755.49L1224.66,757.89L1230.68,762.71L1234.29,765.11L1239.1,767.52L1243.91,769.92L1248.72,769.92L1255.94,771.13L1259.55,774.74L1263.16,778.35L1266.77,783.16L1271.58,786.77L1273.98,787.97L1276.39,790.38L1280,792.78L1283.61,795.19L1287.22,798.8L1292.03,801.2L1296.84,803.61L1300.45,807.22L1310.08,806.02L1320.9,809.62L1326.92,809.62L1331.73,813.23L1337.74,815.64L1344.96,816.84L1353.38,818.05L1361.8,821.65L1377.44,828.87L1384.66,830.08L1393.08,831.28L1401.5,836.09L1409.92,837.29L1418.35,839.7L1425.56,842.11L1432.78,844.51L1448.42,848.12L1455.64,849.32L1462.86,851.73L1468.87,852.93L1476.09,851.73L1486.92,852.93L1494.14,854.14L1501.35,856.54L1507.37,857.74L1515.79,860.15L1520.6,862.56L1525.41,864.96L1530.23,868.57L1535.04,872.18L1539.85,875.79L1549.47,881.8L1554.29,886.62L1560.3,890.23L1567.52,896.24L1574.74,899.85L1581.95,903.46L1589.17,905.86L1596.39,908.27" fill="none" stroke="#000000" style="-webkit-tap-highlight-color: rgba(0, 0, 0, 0); stroke-linecap: round; stroke-linejoin: round; stroke-width: 8;" /><path d="M481.2,824.06L489.62,821.65L496.84,818.05L505.26,815.64L528.12,806.02L540.15,801.2L553.38,795.19L567.82,790.38L579.85,785.56L601.5,777.14L611.13,774.74L620.75,772.33L629.17,771.13L638.8,769.92L646.02,771.13L653.23,772.33L660.45,774.74L667.67,775.94L679.7,777.14L686.92,778.35L691.73,778.35L695.34,779.55L697.74,781.95L700.15,783.16L702.56,783.16L706.17,785.56L708.57,786.77L714.59,789.17L716.99,790.38L718.2,792.78L720.6,795.19L723.01,797.59L725.41,800L726.62,802.41L729.02,804.81L731.43,807.22L736.24,810.83L738.65,813.23L742.26,815.64L745.86,819.25L749.47,821.65L753.08,824.06L756.69,826.47L761.5,828.87L766.32,832.48L772.33,837.29L781.95,844.51L787.97,848.12L795.19,851.73L802.41,854.14L810.83,857.74L816.84,861.35L824.06,863.76L831.28,864.96L838.5,867.37L849.32,870.98L854.14,872.18L858.95,874.59L863.76,876.99L869.77,879.4L874.59,881.8L880.6,885.41L883.01,886.62L901.05,896.24L908.27,898.65L915.49,899.85L920.3,901.05L923.91,902.26L934.74,905.86L940.75,908.27L947.97,910.68L953.98,911.88L964.81,914.29L970.83,915.49L976.84,917.89L982.86,921.5L988.87,923.91L997.29,927.52L1003.31,928.72L1010.53,932.33L1020.15,935.94L1029.77,938.35L1036.99,940.75L1044.21,943.16L1050.23,945.56L1056.24,947.97L1064.66,951.58L1069.47,953.98L1074.29,956.39L1075.49,957.59L1086.32,966.02L1092.33,968.42L1097.14,970.83L1101.95,973.23L1107.97,975.64L1115.19,980.45L1121.2,982.86L1123.61,984.06L1128.42,986.47L1139.25,988.87L1144.06,992.48L1148.87,993.68L1153.68,996.09L1158.5,997.29L1166.92,999.7L1171.73,1002.11L1175.34,1003.31L1177.74,1003.31L1182.56,1004.51L1193.38,1006.92L1198.2,1006.92L1204.21,1008.12L1209.02,1009.32L1216.24,1011.73L1221.05,1012.93L1225.86,1015.34L1228.27,1016.54L1234.29,1018.95L1242.71,1022.56L1247.52,1026.17L1252.33,1029.77L1255.94,1030.98L1261.95,1034.59L1272.78,1043.01L1276.39,1047.82L1278.8,1050.23L1283.61,1053.83L1289.62,1057.44L1295.64,1059.85L1300.45,1063.46L1306.47,1065.86L1311.28,1069.47L1318.5,1076.69L1323.31,1080.3L1328.12,1083.91L1335.34,1091.13L1340.15,1095.94L1343.76,1100.75L1348.57,1104.36L1352.18,1107.97L1356.99,1112.78L1360.6,1115.19L1364.21,1117.59L1367.82,1120L1372.63,1124.81L1375.04,1127.22L1377.44,1130.83L1379.85,1134.44L1381.05,1136.84L1385.86,1142.86L1389.47,1146.47L1394.29,1150.08L1397.89,1152.48L1402.71,1157.29L1406.32,1160.9L1409.92,1164.51L1414.74,1168.12L1418.35,1171.73L1423.16,1175.34L1430.38,1182.56L1433.98,1187.37L1438.8,1190.98L1446.02,1195.79L1450.83,1196.99L1454.44,1196.99" fill="none" stroke="#000000" style="-webkit-tap-highlight-color: rgba(0, 0, 0, 0); stroke-linecap: round; stroke-linejoin: round; stroke-width: 8;" /><path d="M519.7,813.23L519.7,820.45L520.9,825.26L524.51,826.47L529.32,826.47L536.54,827.67L544.96,828.87L550.98,830.08L559.4,830.08L566.62,830.08L581.05,830.08L587.07,831.28L594.29,833.68L600.3,834.89L606.32,836.09L611.13,840.9L615.94,844.51L620.75,846.92L625.56,850.53L631.58,852.93L638.8,857.74L642.41,862.56L647.22,863.76L652.03,863.76L656.84,866.17L661.65,868.57L667.67,870.98L671.28,872.18L683.31,880.6L688.12,881.8L694.14,884.21L709.77,890.23L714.59,892.63L719.4,896.24L723.01,898.65L732.63,903.46L737.44,907.07L742.26,909.47L747.07,913.08L751.88,916.69L756.69,921.5L762.71,923.91L767.52,928.72L772.33,932.33L784.36,935.94L790.38,938.35L796.39,941.95L801.2,944.36L807.22,945.56L812.03,947.97L818.05,950.38L824.06,950.38L828.87,951.58L838.5,957.59L842.11,960L850.53,964.81L855.34,966.02L860.15,967.22L864.96,969.62L870.98,973.23L878.2,976.84L892.63,984.06L899.85,988.87L907.07,991.28L914.29,992.48L920.3,993.68L927.52,996.09L933.53,998.5L939.55,1000.9L944.36,1002.11L953.98,1011.73L960,1011.73L966.02,1012.93L972.03,1014.14L980.45,1014.14L992.48,1017.74L999.7,1020.15L1005.71,1023.76L1012.93,1026.17L1022.56,1032.18L1028.57,1036.99L1035.79,1040.6L1040.6,1045.41L1046.62,1050.23L1051.43,1052.63L1056.24,1056.24L1062.26,1059.85L1069.47,1063.46L1075.49,1062.26L1087.52,1065.86L1093.53,1068.27L1095.94,1070.68L1101.95,1073.08L1107.97,1076.69L1113.98,1079.1L1120,1081.5L1124.81,1083.91L1132.03,1088.72L1136.84,1091.13L1142.86,1093.53L1146.47,1094.74L1151.28,1097.14L1156.09,1099.55L1158.5,1101.95L1162.11,1105.56L1164.51,1107.97L1166.92,1111.58L1169.32,1113.98L1170.53,1117.59L1171.73,1121.2L1172.93,1124.81L1174.14,1132.03L1175.34,1136.84L1175.34,1142.86L1175.34,1147.67L1175.34,1151.28L1175.34,1154.89L1174.14,1157.29L1174.14,1159.7L1171.73,1162.11L1166.92,1166.92L1163.31,1171.73L1157.29,1178.95L1154.89,1182.56L1150.08,1189.77L1148.87,1198.2" fill="none" stroke="#000000" style="-webkit-tap-highlight-color: rgba(0, 0, 0, 0); stroke-linecap: round; stroke-linejoin: round; stroke-width: 8;" /><path d="M76.99,258.65L76.99,257.44L78.2,262.26L80.6,275.49L85.41,310.38L87.82,328.42L91.43,347.67L95.04,366.92L98.65,384.96L101.05,404.21L103.46,421.05L105.86,435.49L108.27,449.92L111.88,475.19L113.08,487.22L115.49,495.64L116.69,505.26L117.89,512.48L117.89,520.9L117.89,529.32L119.1,536.54L120.3,543.76L120.3,552.18L120.3,559.4" fill="none" stroke="#000000" style="-webkit-tap-highlight-color: rgba(0, 0, 0, 0); stroke-linecap: round; stroke-linejoin: round; stroke-width: 8;" /><path d="M120.3,563.01L121.5,572.63L121.5,582.26L122.71,594.29L123.91,609.92L125.11,625.56L125.11,641.2L126.32,656.84L127.52,671.28L128.72,691.73L129.92,702.56L129.92,712.18L129.92,721.8L129.92,730.23L128.72,738.65L128.72,747.07L128.72,756.69L128.72,771.13L127.52,775.94L127.52,783.16L128.72,789.17L128.72,795.19L129.92,800L131.13,804.81L131.13,809.62L131.13,815.64L132.33,824.06L133.53,837.29L134.74,844.51L135.94,851.73L137.14,860.15L138.35,868.57L139.55,875.79L141.95,880.6L143.16,887.82L145.56,895.04L146.77,902.26L147.97,909.47" fill="none" stroke="#000000" style="-webkit-tap-highlight-color: rgba(0, 0, 0, 0); stroke-linecap: round; stroke-linejoin: round; stroke-width: 8;" /><path d="M145.56,891.43L145.56,892.63L146.77,893.83L146.77,895.04L147.97,896.24L147.97,898.65L149.17,902.26L151.58,907.07L153.98,911.88L156.39,917.89L160,922.71L162.41,928.72L166.02,933.53L170.83,938.35L174.44,944.36L178.05,949.17L182.86,957.59L185.26,961.2L186.47,967.22L187.67,973.23L188.87,979.25L190.08,985.26L191.28,992.48L191.28,999.7L191.28,1006.92L190.08,1014.14L190.08,1021.35L190.08,1026.17" fill="none" stroke="#000000" style="-webkit-tap-highlight-color: rgba(0, 0, 0, 0); stroke-linecap: round; stroke-linejoin: round; stroke-width: 8;" /><path d="M186.47,996.09L186.47,1000.9L187.67,1002.11L187.67,1006.92L188.87,1014.14L190.08,1023.76L190.08,1033.38L191.28,1052.63L191.28,1062.26L191.28,1073.08L192.48,1083.91L192.48,1094.74L192.48,1104.36L192.48,1111.58L192.48,1117.59L191.28,1126.02L190.08,1145.26L188.87,1160.9L188.87,1168.12L188.87,1174.14L188.87,1177.74" fill="none" stroke="#000000" style="-webkit-tap-highlight-color: rgba(0, 0, 0, 0); stroke-linecap: round; stroke-linejoin: round; stroke-width: 8;" /><path d="M135.94,923.91L135.94,925.11L137.14,931.13L137.14,940.75L139.55,952.78L143.16,968.42L145.56,986.47L146.77,1004.51L147.97,1021.35L147.97,1036.99L149.17,1051.43L150.38,1064.66L150.38,1076.69L149.17,1086.32L147.97,1098.35L147.97,1112.78L146.77,1122.41L145.56,1130.83L143.16,1135.64" fill="none" stroke="#000000" style="-webkit-tap-highlight-color: rgba(0, 0, 0, 0); stroke-linecap: round; stroke-linejoin: round; stroke-width: 8;" /><path d="M288.72,1182.56L287.52,1183.76L287.52,1184.96L287.52,1187.37L285.11,1184.96L283.91,1182.56L282.71,1180.15L280.3,1174.14L277.89,1166.92L269.47,1138.05L268.27,1126.02L268.27,1116.39" fill="none" stroke="#000000" style="-webkit-tap-highlight-color: rgba(0, 0, 0, 0); stroke-linecap: round; stroke-linejoin: round; stroke-width: 8;" /><path d="M261.05,1165.71L259.85,1165.71L258.65,1164.51L257.44,1153.68L259.85,1145.26L263.46,1134.44L267.07,1122.41L271.88,1111.58L277.89,1100.75L281.5,1092.33L286.32,1083.91L291.13,1077.89L294.74,1073.08L299.55,1068.27L301.95,1065.86L303.16,1065.86L306.77,1064.66L309.17,1065.86L313.98,1067.07L318.8,1067.07L323.61,1065.86L329.62,1064.66L341.65,1064.66L345.26,1065.86L348.87,1067.07L360.9,1068.27L364.51,1067.07L368.12,1067.07L372.93,1068.27L375.34,1067.07L381.35,1067.07L383.76,1067.07L386.17,1067.07L388.57,1067.07L389.77,1069.47L392.18,1070.68L395.79,1073.08L399.4,1074.29" fill="none" stroke="#000000" style="-webkit-tap-highlight-color: rgba(0, 0, 0, 0); stroke-linecap: round; stroke-linejoin: round; stroke-width: 8;" /><path d="M403.01,1085.11L404.21,1083.91L405.41,1083.91L410.23,1086.32L417.44,1088.72L419.85,1088.72L424.66,1089.92L437.89,1091.13L443.91,1091.13L449.92,1093.53L454.74,1097.14L459.55,1100.75L464.36,1104.36L467.97,1109.17L472.78,1112.78L476.39,1117.59L484.81,1135.64L486.02,1140.45L488.42,1144.06L490.83,1147.67L493.23,1151.28L496.84,1154.89L499.25,1158.5L501.65,1162.11L508.87,1169.32L512.48,1172.93L516.09,1175.34L520.9,1176.54L524.51,1178.95L529.32,1182.56L534.14,1183.76L538.95,1187.37" fill="none" stroke="#000000" style="-webkit-tap-highlight-color: rgba(0, 0, 0, 0); stroke-linecap: round; stroke-linejoin: round; stroke-width: 8;" /><path d="M486.02,849.32L484.81,848.12L483.61,846.92L482.41,845.71L481.2,845.71L480,845.71L478.8,848.12L477.59,851.73L476.39,857.74L475.19,862.56L473.98,869.77L473.98,879.4L473.98,889.02L473.98,899.85L473.98,911.88L473.98,928.72L473.98,937.14L473.98,945.56L473.98,955.19L475.19,963.61L475.19,972.03L475.19,979.25L476.39,986.47L476.39,999.7L476.39,1008.12L476.39,1015.34L476.39,1022.56L477.59,1028.57L478.8,1034.59L478.8,1041.8L480,1047.82L480,1053.83L480,1059.85L481.2,1073.08L481.2,1077.89L481.2,1082.71L480,1088.72L480,1091.13" fill="none" stroke="#000000" style="-webkit-tap-highlight-color: rgba(0, 0, 0, 0); stroke-linecap: round; stroke-linejoin: round; stroke-width: 8;" /><path d="M145.56,685.71L145.56,686.92L145.56,688.12L146.77,688.12L150.38,688.12L151.58,688.12L155.19,685.71L160,683.31L167.22,680.9L169.62,680.9L173.23,682.11L176.84,684.51L179.25,684.51L182.86,685.71L186.47,686.92L188.87,689.32L191.28,694.14L194.89,703.76L197.29,707.37L199.7,708.57L202.11,710.98L204.51,714.59L206.92,719.4L209.32,724.21L211.73,727.82L212.93,729.02L216.54,730.23L218.95,730.23L221.35,732.63L222.56,735.04L224.96,737.44L227.37,739.85L228.57,742.26L230.98,743.46L233.38,743.46L234.59,745.86L239.4,747.07L241.8,749.47L244.21,751.88L245.41,753.08L249.02,754.29L252.63,756.69L255.04,757.89L258.65,759.1L263.46,761.5L267.07,761.5L269.47,762.71L273.08,765.11L275.49,766.32L277.89,768.72L280.3,769.92L283.91,771.13L288.72,775.94L291.13,777.14L294.74,778.35L298.35,779.55L300.75,779.55L305.56,778.35L309.17,778.35L311.58,778.35L316.39,779.55L318.8,779.55L322.41,780.75L324.81,783.16L327.22,784.36L329.62,786.77L330.83,789.17L333.23,791.58L338.05,795.19L339.25,798.8L341.65,802.41L344.06,806.02L346.47,808.42L347.67,809.62L350.08,812.03L351.28,815.64L352.48,818.05L353.68,821.65L356.09,825.26L358.5,827.67L362.11,827.67L363.31,827.67L365.71,828.87L368.12,830.08L370.53,831.28L372.93,834.89L377.74,840.9L378.95,843.31L381.35,845.71L383.76,846.92L384.96,849.32L387.37,851.73L388.57,854.14L389.77,856.54L390.98,860.15L394.59,866.17L395.79,869.77L398.2,874.59L400.6,878.2L401.8,881.8L404.21,885.41L405.41,889.02L407.82,892.63L409.02,896.24L411.43,899.85L415.04,908.27L416.24,913.08L419.85,917.89L421.05,921.5L423.46,926.32L424.66,929.92L425.86,934.74L427.07,947.97L427.07,952.78L427.07,955.19L428.27,960L428.27,962.41" fill="none" stroke="#000000" style="-webkit-tap-highlight-color: rgba(0, 0, 0, 0); stroke-linecap: round; stroke-linejoin: round; stroke-width: 8;" /><path d="M262.26,777.14L262.26,778.35L263.46,781.95L264.66,787.97L267.07,796.39L269.47,804.81L273.08,813.23L279.1,824.06L281.5,827.67L285.11,827.67L288.72,825.26L295.94,828.87L299.55,831.28L301.95,832.48L304.36,836.09L307.97,843.31L309.17,845.71L310.38,848.12L311.58,851.73L311.58,855.34L311.58,858.95L312.78,861.35L313.98,864.96L313.98,873.38L313.98,879.4L312.78,883.01L312.78,886.62L311.58,890.23L311.58,895.04L309.17,899.85L307.97,904.66L306.77,909.47L303.16,920.3L300.75,926.32L298.35,931.13L297.14,934.74L295.94,938.35L294.74,941.95L293.53,944.36L291.13,947.97L289.92,951.58L287.52,958.8L287.52,963.61L287.52,966.02L287.52,968.42L286.32,970.83L286.32,973.23L285.11,975.64L283.91,976.84L282.71,978.05L281.5,982.86L281.5,986.47L280.3,990.08L280.3,991.28" fill="none" stroke="#000000" style="-webkit-tap-highlight-color: rgba(0, 0, 0, 0); stroke-linecap: round; stroke-linejoin: round; stroke-width: 8;" /></svg>