<?xml version="1.0" encoding="utf-8" ?>
<svg baseProfile="full" height="1200" version="1.1" width="1600" xmlns="http://www.w3.org/2000/svg" xmlns:ev="http://www.w3.org/2001/xml-events" xmlns:xlink="http://www.w3.org/1999/xlink"><defs /><path d="M980.65,58.78L980.65,67.38L974.91,73.12L966.31,81.72L957.71,93.19L951.97,104.66L951.97,110.39L949.1,113.26L946.24,119L943.37,124.73L943.37,130.47L940.5,133.33L940.5,139.07L937.63,141.94L934.77,144.8L934.77,147.67L931.9,150.54L929.03,153.41L929.03,156.27L926.16,159.14L926.16,164.87L923.3,167.74L920.43,170.61L920.43,173.48L917.56,179.21L917.56,182.08L917.56,184.95L917.56,190.68L917.56,196.42L917.56,202.15L917.56,207.89L920.43,213.62L920.43,219.35L920.43,225.09L923.3,230.82L923.3,236.56L923.3,242.29L926.16,248.03L926.16,253.76L926.16,259.5L926.16,265.23L926.16,273.84L926.16,279.57L926.16,285.3L926.16,291.04L926.16,299.64L926.16,302.51L926.16,308.24L926.16,313.98L926.16,319.71L926.16,325.45L926.16,334.05L926.16,339.78L926.16,345.52L926.16,351.25L926.16,356.99L926.16,365.59L926.16,371.33L926.16,379.93L926.16,385.66L923.3,391.4L923.3,397.13L923.3,402.87L923.3,411.47L920.43,425.81L920.43,428.67L917.56,434.41L914.7,440.14L914.7,445.88L911.83,451.61L908.96,454.48L908.96,460.22L906.09,465.95L906.09,474.55L903.23,480.29L903.23,483.15L903.23,488.89L903.23,491.76L903.23,497.49L903.23,503.23L903.23,506.09L903.23,511.83L903.23,517.56L903.23,523.3L903.23,531.9L903.23,537.63L903.23,543.37L906.09,549.1L906.09,554.84L906.09,560.57L906.09,566.31L906.09,572.04L906.09,574.91L903.23,583.51L903.23,589.25L903.23,594.98L903.23,600.72L903.23,603.58L903.23,612.19L900.36,620.79L897.49,629.39L894.62,640.86L891.76,646.59L891.76,649.46L891.76,652.33L888.89,655.2L888.89,658.06" fill="none" stroke="#000000" style="-webkit-tap-highlight-color: rgba(0, 0, 0, 0); stroke-linecap: round; stroke-linejoin: round; stroke-width: 8;" /><path d="M983.51,75.99L980.65,75.99L977.78,70.25L974.91,70.25L980.65,67.38L986.38,64.52L992.11,61.65L1000.72,58.78L1006.45,55.91L1017.92,53.05L1026.52,50.18L1037.99,44.44L1046.59,41.58L1055.2,35.84L1060.93,32.97L1069.53,32.97L1075.27,30.11L1081,27.24L1086.74,24.37L1092.47,21.51L1098.21,15.77L1106.81,12.9L1112.54,10.04L1115.41,10.04L1124.01,10.04L1132.62,7.17L1144.09,1.43" fill="none" stroke="#000000" style="-webkit-tap-highlight-color: rgba(0, 0, 0, 0); stroke-linecap: round; stroke-linejoin: round; stroke-width: 8;" /><path d="M1161.29,170.61L1158.42,167.74L1152.69,167.74L1146.95,170.61L1141.22,173.48L1135.48,176.34L1132.62,176.34L1124.01,182.08L1121.15,184.95L1118.28,184.95L1115.41,187.81L1112.54,193.55L1109.68,199.28L1106.81,205.02L1106.81,207.89L1103.94,213.62L1103.94,219.35L1101.08,225.09L1101.08,233.69L1098.21,239.43L1098.21,245.16L1098.21,250.9L1098.21,259.5L1098.21,265.23L1098.21,273.84L1098.21,279.57L1098.21,288.17L1098.21,293.91L1098.21,299.64L1098.21,308.24L1095.34,316.85L1095.34,325.45L1095.34,331.18L1095.34,342.65L1095.34,351.25L1095.34,359.86L1095.34,368.46L1095.34,377.06L1095.34,385.66L1095.34,394.27L1095.34,405.73L1095.34,414.34L1092.47,422.94L1092.47,434.41L1092.47,443.01L1092.47,451.61L1089.61,460.22L1089.61,468.82L1089.61,477.42L1089.61,486.02L1089.61,494.62L1089.61,503.23L1086.74,514.7L1086.74,526.16L1083.87,534.77L1083.87,543.37L1083.87,551.97L1083.87,560.57L1081,572.04L1081,583.51L1081,592.11L1081,600.72L1081,609.32L1081,617.92L1081,626.52L1078.14,635.13L1078.14,649.46L1078.14,652.33L1078.14,658.06L1075.27,663.8L1075.27,672.4L1075.27,678.14L1075.27,683.87L1075.27,689.61L1075.27,695.34L1075.27,703.94L1075.27,712.54L1072.4,721.15L1072.4,724.01L1072.4,726.88L1072.4,729.75L1072.4,732.62L1072.4,735.48L1072.4,738.35L1072.4,741.22" fill="none" stroke="#000000" style="-webkit-tap-highlight-color: rgba(0, 0, 0, 0); stroke-linecap: round; stroke-linejoin: round; stroke-width: 8;" /><path d="M1158.42,159.14L1149.82,164.87L1149.82,167.74L1158.42,164.87L1161.29,164.87L1164.16,164.87L1169.89,164.87L1175.63,162.01L1184.23,159.14L1187.1,156.27L1192.83,156.27L1195.7,159.14L1198.57,159.14L1204.3,162.01L1210.04,162.01L1212.9,162.01L1215.77,164.87L1221.51,167.74L1224.37,170.61L1227.24,173.48L1232.97,179.21L1235.84,182.08L1238.71,187.81L1238.71,190.68L1241.58,196.42L1244.44,202.15L1247.31,207.89L1247.31,213.62L1250.18,222.22L1250.18,227.96L1250.18,230.82L1253.05,236.56L1253.05,242.29L1253.05,248.03L1253.05,253.76L1253.05,259.5L1253.05,265.23L1253.05,270.97L1253.05,276.7L1253.05,282.44L1253.05,288.17L1253.05,296.77L1250.18,302.51L1250.18,308.24L1250.18,313.98L1247.31,319.71L1247.31,328.32L1247.31,336.92L1247.31,342.65L1244.44,351.25L1244.44,362.72L1241.58,368.46L1241.58,377.06L1238.71,385.66L1238.71,394.27L1238.71,405.73L1235.84,414.34L1235.84,422.94L1232.97,431.54L1232.97,443.01L1230.11,460.22L1230.11,471.68L1227.24,480.29L1227.24,488.89L1227.24,500.36L1227.24,508.96L1227.24,517.56L1230.11,526.16L1230.11,534.77L1230.11,543.37L1230.11,551.97L1230.11,560.57L1232.97,569.18L1232.97,577.78L1230.11,586.38L1230.11,592.11L1230.11,597.85L1227.24,609.32L1224.37,620.79L1224.37,626.52L1224.37,632.26L1224.37,637.99L1221.51,646.59L1218.64,658.06L1218.64,663.8L1218.64,669.53L1218.64,675.27L1218.64,683.87L1215.77,692.47L1212.9,703.94L1212.9,709.68L1212.9,721.15L1210.04,729.75L1207.17,738.35L1207.17,741.22L1204.3,746.95L1201.43,746.95" fill="none" stroke="#000000" style="-webkit-tap-highlight-color: rgba(0, 0, 0, 0); stroke-linecap: round; stroke-linejoin: round; stroke-width: 8;" /><path d="M1149.82,182.08L1144.09,182.08L1146.95,182.08L1146.95,184.95L1149.82,187.81L1155.56,187.81L1158.42,190.68L1161.29,193.55L1164.16,199.28L1164.16,205.02L1167.03,210.75L1169.89,216.49L1172.76,222.22L1175.63,230.82L1178.49,239.43L1178.49,245.16L1181.36,253.76L1181.36,259.5L1184.23,265.23L1184.23,270.97L1184.23,279.57L1184.23,288.17L1184.23,299.64L1184.23,305.38L1184.23,311.11L1187.1,316.85L1187.1,325.45L1187.1,334.05L1187.1,345.52L1187.1,351.25L1187.1,359.86L1187.1,365.59L1187.1,377.06L1184.23,385.66L1184.23,397.13L1181.36,408.6L1181.36,420.07L1178.49,431.54L1178.49,443.01L1175.63,454.48L1175.63,465.95L1172.76,480.29L1169.89,494.62L1167.03,517.56L1167.03,529.03L1167.03,543.37L1164.16,557.71L1161.29,569.18L1161.29,580.65L1161.29,592.11L1158.42,600.72L1158.42,609.32L1155.56,620.79L1155.56,629.39L1155.56,637.99L1155.56,643.73L1152.69,652.33L1152.69,658.06L1152.69,666.67L1149.82,675.27L1149.82,683.87L1149.82,689.61L1149.82,698.21L1149.82,703.94L1149.82,712.54L1149.82,721.15L1149.82,729.75L1149.82,738.35L1149.82,746.95L1149.82,755.56L1149.82,764.16L1149.82,772.76L1146.95,781.36L1146.95,787.1L1149.82,784.23" fill="none" stroke="#000000" style="-webkit-tap-highlight-color: rgba(0, 0, 0, 0); stroke-linecap: round; stroke-linejoin: round; stroke-width: 8;" /><path d="M883.15,660.93L880.29,658.06L877.42,658.06L874.55,658.06L874.55,660.93L871.68,660.93L868.82,663.8L857.35,666.67L848.75,672.4L840.14,675.27L837.28,678.14L834.41,678.14L831.54,678.14L831.54,681L831.54,683.87L831.54,689.61L828.67,692.47L828.67,698.21L825.81,701.08L825.81,703.94L825.81,709.68L825.81,715.41L822.94,721.15L822.94,726.88L822.94,732.62L820.07,735.48L820.07,741.22L820.07,746.95L820.07,752.69L820.07,758.42L820.07,764.16L820.07,769.89L820.07,778.49L820.07,789.96L820.07,798.57L820.07,812.9L820.07,827.24L820.07,841.58L820.07,850.18L817.2,855.91" fill="none" stroke="#000000" style="-webkit-tap-highlight-color: rgba(0, 0, 0, 0); stroke-linecap: round; stroke-linejoin: round; stroke-width: 8;" /><path d="M868.82,672.4L865.95,675.27L874.55,681L886.02,686.74L894.62,689.61L900.36,692.47L908.96,692.47L917.56,695.34L923.3,695.34L931.9,698.21L937.63,701.08L943.37,703.94L949.1,706.81L957.71,706.81L966.31,709.68L972.04,712.54L977.78,715.41L992.11,718.28L997.85,721.15L1003.58,724.01L1009.32,726.88L1012.19,726.88L1017.92,729.75L1023.66,732.62L1029.39,732.62L1037.99,735.48L1040.86,735.48L1046.59,738.35L1049.46,741.22L1055.2,741.22L1063.8,744.09L1069.53,744.09L1075.27,746.95L1078.14,749.82L1083.87,752.69L1086.74,752.69L1089.61,755.56L1095.34,758.42L1098.21,761.29L1101.08,764.16L1106.81,767.03L1109.68,769.89L1112.54,769.89L1115.41,772.76L1121.15,775.63L1124.01,775.63L1129.75,775.63L1135.48,778.49L1141.22,778.49L1146.95,778.49L1149.82,781.36L1152.69,781.36L1155.56,784.23L1161.29,784.23L1167.03,784.23L1169.89,787.1L1172.76,787.1L1175.63,787.1L1175.63,789.96L1178.49,789.96L1181.36,789.96L1184.23,792.83L1187.1,792.83L1189.96,795.7L1192.83,795.7L1192.83,798.57L1195.7,798.57L1198.57,801.43L1201.43,801.43L1204.3,801.43L1204.3,804.3L1207.17,804.3L1210.04,804.3L1212.9,804.3L1215.77,804.3L1215.77,807.17L1218.64,810.04L1221.51,810.04L1221.51,812.9L1224.37,812.9L1227.24,812.9L1227.24,815.77L1230.11,815.77L1232.97,815.77L1235.84,815.77L1235.84,818.64L1238.71,818.64L1241.58,821.51L1244.44,821.51L1247.31,824.37L1250.18,824.37L1250.18,827.24L1253.05,827.24L1253.05,830.11L1255.91,830.11L1258.78,830.11L1261.65,832.97L1264.52,832.97L1267.38,835.84L1270.25,835.84L1273.12,838.71L1275.99,841.58L1278.85,841.58L1281.72,844.44L1284.59,844.44L1287.46,844.44L1290.32,844.44L1293.19,847.31L1296.06,847.31L1298.92,847.31L1301.79,847.31L1301.79,850.18L1304.66,850.18L1307.53,850.18L1310.39,853.05L1313.26,853.05L1316.13,853.05L1319,855.91L1321.86,855.91L1324.73,855.91L1327.6,858.78L1330.47,858.78L1333.33,861.65L1336.2,861.65L1339.07,864.52L1341.94,864.52L1344.8,864.52L1347.67,867.38L1350.54,867.38L1353.41,870.25L1356.27,870.25L1359.14,873.12L1362.01,873.12L1364.87,873.12L1367.74,873.12L1367.74,875.99L1370.61,875.99L1373.48,875.99L1376.34,878.85L1382.08,878.85L1384.95,878.85L1387.81,881.72L1390.68,881.72L1393.55,884.59L1396.42,887.46L1402.15,887.46L1405.02,890.32L1407.89,890.32L1410.75,893.19L1416.49,893.19L1419.35,896.06L1425.09,896.06L1427.96,896.06L1430.82,898.92L1439.43,898.92L1445.16,901.79L1450.9,901.79L1453.76,904.66L1456.63,904.66L1459.5,907.53L1462.37,910.39L1468.1,913.26L1473.84,913.26L1476.7,916.13L1482.44,916.13L1488.17,919L1493.91,921.86L1499.64,921.86L1505.38,924.73L1511.11,927.6L1516.85,927.6L1522.58,930.47L1525.45,930.47L1531.18,933.33L1534.05,936.2L1536.92,936.2L1542.65,939.07L1545.52,941.94L1548.39,941.94L1554.12,944.8L1559.86,947.67L1562.72,947.67L1571.33,947.67L1577.06,950.54L1579.93,950.54L1585.66,950.54L1588.53,950.54L1591.4,953.41L1594.27,953.41" fill="none" stroke="#000000" style="-webkit-tap-highlight-color: rgba(0, 0, 0, 0); stroke-linecap: round; stroke-linejoin: round; stroke-width: 8;" /><path d="M1207.17,752.69L1204.3,752.69L1201.43,752.69L1198.57,755.56L1204.3,755.56L1210.04,755.56L1218.64,758.42L1224.37,764.16L1230.11,769.89L1238.71,772.76L1247.31,775.63L1261.65,775.63L1270.25,778.49L1278.85,781.36L1284.59,787.1L1293.19,789.96L1298.92,792.83L1307.53,795.7L1313.26,795.7L1321.86,795.7L1324.73,798.57L1330.47,801.43L1336.2,804.3L1341.94,804.3L1350.54,807.17L1356.27,807.17L1359.14,810.04L1364.87,812.9L1367.74,815.77L1373.48,818.64L1379.21,818.64L1384.95,821.51L1390.68,821.51L1393.55,824.37L1399.28,824.37L1405.02,827.24L1422.22,830.11L1427.96,830.11L1433.69,832.97L1436.56,835.84L1442.29,838.71L1448.03,838.71L1453.76,841.58L1459.5,841.58L1465.23,841.58L1470.97,841.58L1476.7,841.58L1482.44,841.58L1488.17,844.44L1496.77,844.44L1502.51,847.31L1508.24,847.31L1511.11,850.18L1516.85,853.05L1519.71,853.05L1522.58,855.91L1528.32,855.91L1534.05,858.78L1539.78,861.65L1545.52,864.52L1551.25,864.52L1556.99,867.38L1559.86,867.38L1565.59,870.25L1571.33,873.12L1574.19,875.99L1579.93,875.99L1585.66,875.99L1591.4,875.99L1594.27,875.99L1597.13,875.99" fill="none" stroke="#000000" style="-webkit-tap-highlight-color: rgba(0, 0, 0, 0); stroke-linecap: round; stroke-linejoin: round; stroke-width: 8;" /><path d="M900.36,660.93L897.49,660.93L897.49,658.06L897.49,655.2L900.36,655.2L903.23,658.06L908.96,660.93L917.56,660.93L926.16,660.93L931.9,663.8L937.63,666.67L943.37,669.53L951.97,672.4L963.44,675.27L974.91,678.14L980.65,681L989.25,683.87L992.11,686.74L997.85,689.61L1003.58,689.61L1009.32,689.61L1015.05,692.47L1017.92,692.47L1023.66,695.34L1026.52,695.34L1032.26,698.21L1037.99,698.21L1043.73,698.21L1046.59,701.08L1052.33,701.08L1055.2,703.94L1060.93,703.94L1063.8,706.81L1069.53,706.81L1075.27,706.81L1078.14,706.81L1081,706.81" fill="none" stroke="#000000" style="-webkit-tap-highlight-color: rgba(0, 0, 0, 0); stroke-linecap: round; stroke-linejoin: round; stroke-width: 8;" /><path d="M490.32,812.9L487.46,810.04L487.46,815.77L484.59,821.51L481.72,830.11L478.85,838.71L478.85,850.18L478.85,858.78L478.85,867.38L478.85,878.85L478.85,887.46L478.85,898.92L478.85,907.53L481.72,916.13L481.72,927.6L484.59,936.2L484.59,944.8L484.59,950.54L484.59,959.14L484.59,964.87L484.59,973.48L484.59,979.21L484.59,987.81L484.59,993.55L484.59,999.28L481.72,1007.89L481.72,1016.49L481.72,1027.96L481.72,1039.43L478.85,1050.9L478.85,1059.5L478.85,1065.23L478.85,1068.1L475.99,1068.1" fill="none" stroke="#000000" style="-webkit-tap-highlight-color: rgba(0, 0, 0, 0); stroke-linecap: round; stroke-linejoin: round; stroke-width: 8;" /><path d="M481.72,807.17L478.85,807.17L478.85,810.04L478.85,812.9L481.72,815.77L484.59,815.77L490.32,815.77L498.92,812.9L504.66,812.9L516.13,810.04L527.6,807.17L539.07,804.3L553.41,798.57L564.87,795.7L576.34,795.7L584.95,792.83L593.55,789.96L602.15,789.96L610.75,787.1L616.49,787.1L625.09,787.1L633.69,784.23L642.29,784.23L650.9,784.23L659.5,781.36L665.23,781.36L673.84,781.36L682.44,781.36L688.17,781.36L691.04,781.36L696.77,781.36L699.64,781.36L702.51,781.36L705.38,781.36L708.24,784.23L713.98,784.23L716.85,787.1L719.71,789.96L725.45,792.83L731.18,795.7L734.05,798.57L739.78,801.43L742.65,804.3L748.39,810.04L751.25,812.9L756.99,818.64L759.86,821.51L765.59,824.37L768.46,830.11L771.33,832.97L774.19,835.84L777.06,838.71L779.93,841.58L782.8,841.58L785.66,844.44L788.53,847.31L794.27,847.31L797.13,850.18L802.87,850.18L805.73,853.05L808.6,855.91L817.2,858.78L822.94,861.65L828.67,864.52L834.41,864.52L837.28,867.38L843.01,870.25L848.75,873.12L857.35,875.99L863.08,878.85L868.82,878.85L874.55,881.72L880.29,884.59L886.02,884.59L891.76,887.46L897.49,890.32L903.23,893.19L908.96,896.06L917.56,898.92L923.3,904.66L931.9,907.53L937.63,910.39L946.24,913.26L951.97,916.13L960.57,921.86L969.18,924.73L977.78,927.6L986.38,930.47L992.11,933.33L1000.72,933.33L1006.45,936.2L1015.05,939.07L1020.79,941.94L1026.52,944.8L1032.26,944.8L1037.99,947.67L1040.86,950.54L1046.59,953.41L1052.33,959.14L1060.93,962.01L1072.4,964.87L1083.87,967.74L1095.34,970.61L1106.81,976.34L1121.15,979.21L1132.62,984.95L1144.09,987.81L1152.69,990.68L1158.42,996.42L1164.16,999.28L1167.03,999.28L1172.76,1002.15L1181.36,1005.02L1187.1,1005.02L1195.7,1007.89L1198.57,1007.89L1204.3,1007.89L1207.17,1010.75L1212.9,1013.62L1215.77,1013.62L1221.51,1016.49L1224.37,1016.49L1227.24,1019.35L1230.11,1022.22L1238.71,1025.09L1244.44,1027.96L1250.18,1030.82L1253.05,1030.82L1258.78,1033.69L1264.52,1036.56L1270.25,1042.29L1278.85,1048.03L1287.46,1053.76L1290.32,1059.5L1296.06,1065.23L1301.79,1068.1L1304.66,1073.84L1310.39,1079.57L1316.13,1082.44L1321.86,1088.17L1324.73,1093.91L1330.47,1096.77L1333.33,1102.51L1339.07,1108.24L1344.8,1116.85L1350.54,1122.58L1356.27,1128.32L1364.87,1136.92L1370.61,1142.65L1376.34,1148.39L1382.08,1154.12L1390.68,1159.86L1402.15,1162.72L1410.75,1168.46L1422.22,1171.33L1430.82,1177.06L1433.69,1188.53" fill="none" stroke="#000000" style="-webkit-tap-highlight-color: rgba(0, 0, 0, 0); stroke-linecap: round; stroke-linejoin: round; stroke-width: 8;" /><path d="M493.19,830.11L493.19,827.24L493.19,821.51L498.92,827.24L510.39,832.97L519,832.97L527.6,832.97L539.07,832.97L544.8,835.84L553.41,838.71L562.01,838.71L567.74,841.58L570.61,841.58L573.48,841.58L576.34,841.58L579.21,841.58L582.08,841.58L587.81,844.44L593.55,844.44L596.42,847.31L602.15,847.31L607.89,850.18L613.62,853.05L616.49,855.91L622.22,858.78L625.09,861.65L627.96,864.52L630.82,867.38L633.69,870.25L636.56,870.25L642.29,873.12L645.16,875.99L650.9,875.99L653.76,878.85L659.5,881.72L665.23,884.59L668.1,887.46L673.84,887.46L679.57,890.32L688.17,893.19L693.91,896.06L699.64,898.92L705.38,898.92L713.98,901.79L719.71,904.66L725.45,907.53L728.32,910.39L734.05,913.26L742.65,916.13L748.39,919L754.12,919L759.86,921.86L765.59,924.73L771.33,924.73L777.06,927.6L785.66,930.47L794.27,933.33L800,939.07L808.6,941.94L817.2,944.8L825.81,947.67L831.54,953.41L840.14,956.27L848.75,962.01L854.48,967.74L863.08,973.48L871.68,976.34L880.29,982.08L886.02,984.95L894.62,990.68L903.23,996.42L911.83,999.28L920.43,1005.02L931.9,1007.89L940.5,1010.75L949.1,1013.62L954.84,1016.49L963.44,1019.35L972.04,1025.09L977.78,1027.96L983.51,1030.82L989.25,1033.69L992.11,1033.69L997.85,1039.43L1003.58,1042.29L1012.19,1045.16L1017.92,1048.03L1023.66,1050.9L1029.39,1050.9L1029.39,1053.76L1037.99,1056.63L1043.73,1059.5L1049.46,1059.5L1055.2,1062.37L1058.06,1065.23L1063.8,1068.1L1069.53,1070.97L1075.27,1073.84L1081,1076.7L1086.74,1076.7L1089.61,1079.57L1095.34,1082.44L1098.21,1085.3L1101.08,1088.17L1106.81,1091.04L1109.68,1093.91L1115.41,1096.77L1118.28,1102.51L1121.15,1105.38L1124.01,1108.24L1126.88,1111.11L1129.75,1116.85L1132.62,1122.58L1135.48,1128.32L1138.35,1134.05L1141.22,1136.92L1144.09,1142.65L1144.09,1148.39L1144.09,1154.12L1146.95,1159.86L1146.95,1168.46L1149.82,1177.06L1152.69,1185.66L1152.69,1191.4L1152.69,1200" fill="none" stroke="#000000" style="-webkit-tap-highlight-color: rgba(0, 0, 0, 0); stroke-linecap: round; stroke-linejoin: round; stroke-width: 8;" /><path d="M481.72,1068.1L481.72,1065.23L484.59,1068.1L490.32,1070.97L493.19,1076.7L496.06,1082.44L501.79,1088.17L504.66,1093.91L510.39,1099.64L519,1105.38L524.73,1111.11L527.6,1113.98L530.47,1119.71L533.33,1125.45L539.07,1134.05L541.94,1136.92L544.8,1142.65L547.67,1148.39L550.54,1154.12L553.41,1159.86L556.27,1165.59L559.14,1174.19L564.87,1179.93L567.74,1185.66L573.48,1194.27L576.34,1200" fill="none" stroke="#000000" style="-webkit-tap-highlight-color: rgba(0, 0, 0, 0); stroke-linecap: round; stroke-linejoin: round; stroke-width: 8;" /><path d="M5.73,156.27L5.73,153.41L2.87,153.41L2.87,150.54L5.73,153.41L20.07,159.14L25.81,162.01L31.54,167.74L40.14,170.61L48.75,176.34L54.48,179.21L60.22,182.08L65.95,184.95L68.82,187.81L74.55,190.68L74.55,196.42L77.42,199.28L80.29,205.02L83.15,210.75L86.02,216.49L88.89,222.22L94.62,230.82L94.62,239.43L97.49,248.03L100.36,256.63L103.23,268.1L103.23,279.57L106.09,291.04L106.09,299.64L108.96,308.24L108.96,319.71L108.96,328.32L108.96,336.92L108.96,345.52L106.09,356.99L106.09,365.59L106.09,377.06L106.09,385.66L106.09,391.4L106.09,397.13L106.09,405.73L106.09,417.2L106.09,422.94L106.09,431.54L106.09,437.28L106.09,443.01L106.09,448.75L106.09,457.35L106.09,463.08L106.09,471.68L106.09,477.42L106.09,483.15L106.09,488.89L106.09,494.62L108.96,500.36L108.96,506.09L108.96,511.83L108.96,520.43L108.96,526.16L108.96,531.9L108.96,543.37L108.96,551.97L108.96,560.57L111.83,572.04L111.83,583.51L111.83,594.98L111.83,603.58L111.83,612.19L111.83,620.79L114.7,626.52L114.7,635.13L117.56,640.86L117.56,646.59L117.56,652.33L117.56,660.93L120.43,666.67L120.43,675.27L120.43,681L123.3,692.47L123.3,701.08L123.3,712.54L123.3,721.15L126.16,729.75L126.16,741.22L126.16,749.82L126.16,758.42L126.16,767.03L126.16,775.63L126.16,784.23L126.16,792.83L126.16,801.43L126.16,807.17L126.16,815.77L126.16,824.37L129.03,832.97L129.03,841.58L129.03,853.05L129.03,864.52L131.9,873.12L131.9,881.72L134.77,893.19L134.77,904.66L134.77,916.13L137.63,927.6L137.63,941.94L140.5,950.54L140.5,962.01L143.37,970.61L143.37,982.08L146.24,993.55L146.24,1005.02L149.1,1013.62L149.1,1025.09L149.1,1033.69L151.97,1045.16L151.97,1056.63L151.97,1065.23L151.97,1073.84L154.84,1082.44L154.84,1091.04L157.71,1099.64L157.71,1108.24L157.71,1113.98L160.57,1122.58L160.57,1131.18L163.44,1136.92L163.44,1145.52L166.31,1151.25L166.31,1156.99L166.31,1162.72L169.18,1168.46L169.18,1171.33L172.04,1174.19L172.04,1177.06L174.91,1182.8L174.91,1194.27L174.91,1200" fill="none" stroke="#000000" style="-webkit-tap-highlight-color: rgba(0, 0, 0, 0); stroke-linecap: round; stroke-linejoin: round; stroke-width: 8;" /><path d="M134.77,726.88L131.9,726.88L134.77,729.75L137.63,738.35L137.63,746.95L140.5,755.56L143.37,764.16L149.1,775.63L151.97,784.23L157.71,795.7L160.57,804.3L163.44,815.77L163.44,824.37L163.44,827.24L166.31,838.71L166.31,853.05L166.31,861.65L169.18,873.12L169.18,884.59L172.04,896.06L172.04,907.53L172.04,919L169.18,930.47L169.18,944.8L169.18,956.27L169.18,967.74L169.18,979.21L169.18,990.68L172.04,1002.15L172.04,1013.62L172.04,1025.09L174.91,1033.69L174.91,1045.16L177.78,1053.76L177.78,1062.37L177.78,1070.97L177.78,1079.57L180.65,1085.3L183.51,1096.77L183.51,1108.24L186.38,1122.58L189.25,1134.05L192.11,1142.65L192.11,1151.25L192.11,1156.99L192.11,1162.72L192.11,1168.46" fill="none" stroke="#000000" style="-webkit-tap-highlight-color: rgba(0, 0, 0, 0); stroke-linecap: round; stroke-linejoin: round; stroke-width: 8;" /><path d="M25.81,7.17L22.94,4.3L22.94,1.43" fill="none" stroke="#000000" style="-webkit-tap-highlight-color: rgba(0, 0, 0, 0); stroke-linecap: round; stroke-linejoin: round; stroke-width: 8;" /><path d="M20.07,1.43L22.94,4.3L22.94,7.17L22.94,12.9L22.94,21.51L22.94,30.11L22.94,38.71L22.94,44.44L22.94,50.18L22.94,55.91L25.81,58.78L28.67,61.65L31.54,61.65L37.28,64.52L43.01,67.38L48.75,70.25L57.35,73.12L65.95,75.99L74.55,78.85L86.02,81.72L94.62,84.59L103.23,84.59L111.83,87.46L117.56,90.32L126.16,93.19L129.03,93.19L134.77,93.19L140.5,93.19L143.37,93.19L146.24,96.06L151.97,96.06L154.84,96.06L160.57,96.06L163.44,93.19L166.31,90.32L166.31,87.46L169.18,81.72L169.18,78.85L169.18,73.12L172.04,70.25L174.91,64.52L177.78,61.65L183.51,58.78L186.38,58.78L189.25,58.78L194.98,58.78L200.72,55.91L206.45,55.91L209.32,55.91L215.05,55.91L223.66,53.05L229.39,53.05L237.99,53.05L243.73,53.05L252.33,53.05L258.06,53.05L263.8,53.05L269.53,55.91L272.4,55.91L275.27,58.78L278.14,58.78L281,64.52L283.87,67.38L283.87,70.25L286.74,73.12L286.74,78.85L289.61,84.59L289.61,90.32L289.61,96.06L292.47,104.66L292.47,110.39L292.47,116.13L292.47,119L292.47,124.73L295.34,127.6L295.34,130.47L298.21,133.33L301.08,133.33L306.81,136.2L312.54,139.07L318.28,141.94L324.01,141.94L329.75,144.8L335.48,144.8L341.22,144.8" fill="none" stroke="#000000" style="-webkit-tap-highlight-color: rgba(0, 0, 0, 0); stroke-linecap: round; stroke-linejoin: round; stroke-width: 8;" /><path d="M332.62,153.41L335.48,150.54L338.35,150.54L341.22,147.67L344.09,147.67L349.82,150.54L355.56,150.54L364.16,150.54L375.63,150.54L384.23,153.41L392.83,153.41L401.43,156.27L407.17,159.14L412.9,159.14L421.51,162.01L430.11,162.01L432.97,162.01L438.71,162.01L444.44,162.01L447.31,162.01L453.05,164.87L455.91,164.87L461.65,164.87L467.38,164.87L470.25,164.87L475.99,164.87L478.85,167.74L487.46,167.74L493.19,167.74L496.06,170.61L501.79,170.61L504.66,173.48L510.39,173.48L513.26,176.34L519,179.21L524.73,182.08L530.47,184.95L533.33,184.95L536.2,187.81L541.94,190.68L544.8,193.55L550.54,196.42L553.41,199.28L556.27,202.15L559.14,205.02L564.87,207.89L567.74,210.75L570.61,213.62L573.48,216.49L576.34,222.22L579.21,225.09L579.21,230.82L582.08,233.69L584.95,239.43L587.81,245.16L590.68,250.9L593.55,253.76L596.42,259.5L596.42,262.37L599.28,268.1L602.15,270.97L602.15,276.7L605.02,279.57L607.89,282.44L610.75,285.3L610.75,288.17L613.62,293.91L616.49,296.77L619.35,299.64L622.22,302.51L625.09,302.51L625.09,305.38L627.96,305.38L630.82,308.24L633.69,311.11L636.56,311.11L642.29,313.98L645.16,313.98L648.03,313.98L650.9,316.85L653.76,319.71L656.63,322.58L656.63,325.45L659.5,328.32L662.37,334.05L662.37,336.92L662.37,342.65L662.37,345.52L659.5,348.39L659.5,351.25L659.5,354.12L656.63,356.99L656.63,359.86L653.76,359.86L653.76,362.72L650.9,362.72L648.03,365.59L648.03,368.46L648.03,371.33L650.9,374.19L650.9,377.06L653.76,379.93L656.63,382.8L659.5,382.8L659.5,385.66L662.37,388.53L665.23,391.4L668.1,394.27L668.1,397.13L670.97,400L670.97,402.87L673.84,405.73L673.84,408.6" fill="none" stroke="#000000" style="-webkit-tap-highlight-color: rgba(0, 0, 0, 0); stroke-linecap: round; stroke-linejoin: round; stroke-width: 8;" /><path d="M676.7,411.47L673.84,411.47L673.84,414.34L673.84,417.2L676.7,420.07L676.7,422.94L679.57,425.81L685.3,428.67L688.17,431.54L688.17,434.41L691.04,437.28L691.04,443.01L693.91,445.88L696.77,448.75L699.64,451.61L702.51,454.48L705.38,460.22L708.24,463.08L711.11,468.82L716.85,471.68L719.71,477.42L722.58,480.29L722.58,483.15L725.45,488.89L725.45,491.76L728.32,491.76L728.32,497.49L728.32,500.36L731.18,503.23L731.18,506.09L731.18,508.96L731.18,511.83L734.05,514.7L734.05,517.56L736.92,520.43L736.92,523.3L739.78,523.3L739.78,526.16L739.78,529.03L742.65,531.9L742.65,534.77L745.52,537.63L745.52,540.5L745.52,543.37L748.39,546.24L751.25,549.1L751.25,551.97L754.12,551.97L754.12,554.84L756.99,554.84L756.99,557.71L759.86,560.57L759.86,563.44L759.86,566.31L759.86,569.18L759.86,574.91L762.72,577.78L762.72,583.51L762.72,589.25L762.72,594.98L762.72,600.72L762.72,609.32L762.72,617.92L759.86,620.79" fill="none" stroke="#000000" style="-webkit-tap-highlight-color: rgba(0, 0, 0, 0); stroke-linecap: round; stroke-linejoin: round; stroke-width: 8;" /><path d="M808.6,93.19L808.6,90.32L808.6,93.19L808.6,96.06L808.6,101.79L805.73,110.39L805.73,116.13L802.87,121.86L802.87,127.6L802.87,130.47L802.87,133.33L800,136.2L797.13,139.07L797.13,141.94L794.27,147.67L791.4,150.54L788.53,159.14L785.66,164.87L782.8,167.74L779.93,170.61L779.93,173.48L777.06,176.34L771.33,182.08L768.46,184.95L765.59,184.95L762.72,190.68L759.86,193.55L756.99,199.28L754.12,202.15L751.25,205.02L748.39,210.75L748.39,216.49L748.39,219.35L745.52,225.09L745.52,227.96L742.65,230.82L742.65,236.56L742.65,239.43L742.65,245.16L742.65,250.9L742.65,253.76L742.65,259.5L742.65,265.23L742.65,270.97L742.65,276.7L745.52,293.91L748.39,302.51L748.39,308.24L748.39,313.98L751.25,319.71L751.25,328.32L751.25,336.92L751.25,345.52L754.12,351.25L754.12,354.12L754.12,362.72L754.12,371.33L754.12,379.93L754.12,385.66L754.12,391.4L754.12,397.13L756.99,402.87L756.99,408.6L756.99,417.2L756.99,422.94L756.99,428.67L754.12,437.28L754.12,443.01L754.12,448.75L754.12,451.61L754.12,454.48L754.12,460.22L754.12,465.95L751.25,474.55L751.25,483.15L751.25,486.02L751.25,488.89L751.25,494.62L748.39,503.23L748.39,514.7L748.39,520.43L748.39,523.3L751.25,529.03L751.25,534.77L754.12,540.5L754.12,546.24L754.12,549.1" fill="none" stroke="#000000" style="-webkit-tap-highlight-color: rgba(0, 0, 0, 0); stroke-linecap: round; stroke-linejoin: round; stroke-width: 8;" /><path d="M1508.24,1030.82L1493.91,1002.15L1496.77,1002.15L1496.77,1005.02L1496.77,1002.15L1496.77,999.28L1496.77,996.42L1496.77,993.55L1496.77,990.68L1496.77,987.81" fill="none" stroke="#000000" style="-webkit-tap-highlight-color: rgba(0, 0, 0, 0); stroke-linecap: round; stroke-linejoin: round; stroke-width: 8;" /><path d="M754.12,623.66L754.12,626.52L748.39,637.99L742.65,646.59L734.05,658.06L731.18,663.8L731.18,669.53L731.18,675.27L731.18,681L728.32,686.74L728.32,692.47L728.32,701.08L728.32,706.81L728.32,712.54L728.32,718.28L728.32,724.01L731.18,726.88L731.18,732.62L731.18,738.35L731.18,744.09L731.18,749.82L731.18,755.56L731.18,758.42L731.18,764.16L731.18,769.89L728.32,775.63L728.32,787.1L728.32,795.7L728.32,801.43L728.32,804.3L728.32,801.43" fill="none" stroke="#000000" style="-webkit-tap-highlight-color: rgba(0, 0, 0, 0); stroke-linecap: round; stroke-linejoin: round; stroke-width: 8;" /><path d="M768.46,626.52L768.46,623.66L768.46,626.52L785.66,635.13L794.27,637.99L800,640.86L805.73,643.73L811.47,646.59L817.2,649.46L822.94,652.33L825.81,655.2L828.67,655.2L834.41,658.06L837.28,658.06" fill="none" stroke="#000000" style="-webkit-tap-highlight-color: rgba(0, 0, 0, 0); stroke-linecap: round; stroke-linejoin: round; stroke-width: 8;" /><path d="M149.1,686.74L146.24,686.74L146.24,683.87L149.1,683.87L151.97,681L154.84,681L160.57,681L166.31,678.14L172.04,678.14L174.91,678.14L180.65,678.14L183.51,678.14L183.51,675.27L186.38,675.27L189.25,675.27L192.11,678.14L194.98,678.14L197.85,681L200.72,686.74L206.45,689.61L209.32,692.47L212.19,695.34L215.05,701.08L217.92,706.81L220.79,712.54L223.66,721.15L226.52,724.01L226.52,729.75L229.39,732.62L229.39,735.48L232.26,738.35L232.26,741.22L235.13,744.09L237.99,744.09L240.86,746.95L243.73,749.82L246.59,749.82L246.59,752.69L249.46,755.56L252.33,755.56L255.2,758.42L258.06,758.42L260.93,761.29L263.8,761.29L266.67,764.16L266.67,767.03L269.53,767.03L272.4,769.89L275.27,772.76L278.14,772.76L278.14,775.63L281,775.63L281,778.49L283.87,781.36L286.74,781.36L289.61,781.36L292.47,784.23L295.34,784.23L298.21,784.23L303.94,784.23L306.81,784.23L309.68,784.23L312.54,784.23L315.41,784.23L318.28,787.1L321.15,787.1L324.01,787.1L326.88,787.1L329.75,789.96L332.62,789.96L335.48,792.83L338.35,792.83L341.22,795.7L344.09,795.7L346.95,798.57L349.82,801.43L352.69,801.43L352.69,804.3L355.56,807.17L358.42,810.04L361.29,812.9L364.16,815.77L364.16,818.64L369.89,824.37L372.76,830.11L375.63,832.97L375.63,835.84L378.49,838.71L381.36,841.58L384.23,844.44L384.23,847.31L387.1,853.05L392.83,855.91L395.7,858.78L398.57,864.52L401.43,867.38L404.3,870.25L404.3,873.12L407.17,878.85L410.04,881.72L412.9,884.59L415.77,890.32L415.77,893.19L418.64,898.92L418.64,901.79L421.51,904.66L421.51,907.53L424.37,910.39L424.37,913.26L424.37,919L427.24,921.86L430.11,924.73L430.11,927.6L430.11,930.47L432.97,933.33L432.97,936.2L432.97,939.07L435.84,941.94L435.84,944.8L438.71,947.67L438.71,950.54L441.58,953.41L441.58,956.27L444.44,959.14L447.31,964.87L450.18,967.74L453.05,973.48L455.91,973.48L458.78,976.34L464.52,976.34L470.25,976.34" fill="none" stroke="#000000" style="-webkit-tap-highlight-color: rgba(0, 0, 0, 0); stroke-linecap: round; stroke-linejoin: round; stroke-width: 8;" /><path d="M266.67,792.83L263.8,792.83L263.8,789.96L263.8,787.1L263.8,789.96L266.67,792.83L269.53,798.57L272.4,801.43L275.27,804.3L275.27,810.04L278.14,812.9L281,815.77L286.74,818.64L289.61,818.64L295.34,818.64L298.21,821.51L303.94,821.51L306.81,821.51L312.54,821.51L315.41,824.37L321.15,824.37L324.01,824.37L326.88,824.37L329.75,827.24L332.62,827.24L332.62,830.11L335.48,832.97L335.48,835.84L335.48,838.71L338.35,850.18L338.35,853.05L338.35,858.78L341.22,864.52L341.22,867.38L341.22,870.25L341.22,875.99L338.35,878.85L338.35,881.72L335.48,884.59L332.62,887.46L329.75,893.19L326.88,896.06L324.01,898.92L324.01,904.66L321.15,907.53L318.28,910.39L318.28,913.26L315.41,916.13L312.54,919L309.68,924.73L309.68,930.47L306.81,933.33L306.81,936.2L306.81,939.07L303.94,941.94L303.94,947.67L303.94,950.54L301.08,953.41L301.08,959.14L301.08,962.01L303.94,964.87L303.94,970.61L303.94,976.34L306.81,984.95L306.81,996.42L309.68,1005.02L312.54,1010.75" fill="none" stroke="#000000" style="-webkit-tap-highlight-color: rgba(0, 0, 0, 0); stroke-linecap: round; stroke-linejoin: round; stroke-width: 8;" /><path d="M315.41,1013.62L315.41,1010.75L312.54,1007.89L312.54,1005.02L312.54,1007.89L312.54,1013.62L312.54,1019.35L312.54,1025.09L312.54,1027.96L312.54,1033.69L312.54,1039.43L312.54,1048.03L312.54,1053.76L312.54,1059.5L312.54,1068.1L312.54,1070.97L312.54,1073.84L312.54,1076.7L312.54,1079.57L312.54,1082.44L309.68,1085.3L309.68,1088.17L306.81,1093.91L303.94,1096.77L303.94,1102.51L301.08,1108.24L298.21,1111.11L298.21,1116.85L295.34,1122.58L292.47,1134.05L289.61,1145.52L289.61,1154.12L292.47,1162.72L292.47,1165.59" fill="none" stroke="#000000" style="-webkit-tap-highlight-color: rgba(0, 0, 0, 0); stroke-linecap: round; stroke-linejoin: round; stroke-width: 8;" /><path d="M805.73,93.19L805.73,90.32L808.6,87.46L814.34,84.59L817.2,84.59L822.94,84.59L828.67,84.59L834.41,84.59L840.14,81.72L843.01,81.72L845.88,81.72L848.75,84.59L854.48,84.59L860.22,87.46L865.95,90.32L868.82,93.19L874.55,98.92L877.42,104.66L883.15,107.53L888.89,113.26L894.62,116.13L897.49,119L903.23,121.86L908.96,124.73L914.7,130.47L923.3,136.2L929.03,139.07L937.63,141.94L940.5,144.8L943.37,147.67" fill="none" stroke="#000000" style="-webkit-tap-highlight-color: rgba(0, 0, 0, 0); stroke-linecap: round; stroke-linejoin: round; stroke-width: 8;" /><path d="M814.34,93.19L811.47,93.19L811.47,98.92L811.47,104.66L814.34,110.39L814.34,119L817.2,124.73L820.07,133.33L820.07,144.8L822.94,156.27L822.94,164.87L822.94,173.48L822.94,179.21L825.81,187.81L825.81,193.55L828.67,199.28L828.67,207.89L828.67,216.49L831.54,222.22L831.54,230.82L831.54,236.56L831.54,242.29L834.41,250.9L834.41,256.63L834.41,265.23L834.41,270.97L834.41,276.7L834.41,285.3L834.41,291.04L834.41,296.77L834.41,302.51L834.41,311.11L834.41,316.85L834.41,322.58L834.41,331.18L834.41,336.92L834.41,342.65L834.41,348.39L834.41,356.99L834.41,365.59L834.41,371.33L834.41,377.06L834.41,379.93L834.41,385.66L834.41,391.4L834.41,397.13L834.41,402.87L837.28,405.73L837.28,411.47L837.28,414.34L837.28,420.07L837.28,425.81L837.28,431.54L837.28,437.28L837.28,443.01L837.28,445.88L837.28,454.48L837.28,460.22L837.28,465.95L837.28,468.82L837.28,474.55L837.28,480.29L837.28,488.89L837.28,494.62L837.28,500.36L840.14,503.23L840.14,508.96L843.01,514.7L843.01,520.43L843.01,526.16L843.01,529.03L843.01,531.9L843.01,537.63L843.01,543.37L843.01,549.1L843.01,554.84L843.01,560.57L840.14,566.31L840.14,569.18L840.14,574.91L840.14,580.65L840.14,586.38L840.14,589.25L840.14,592.11L840.14,597.85L840.14,603.58L840.14,609.32L840.14,612.19L840.14,620.79L840.14,626.52L840.14,635.13L840.14,640.86L837.28,649.46L837.28,658.06L837.28,660.93L837.28,658.06" fill="none" stroke="#000000" style="-webkit-tap-highlight-color: rgba(0, 0, 0, 0); stroke-linecap: round; stroke-linejoin: round; stroke-width: 8;" /></svg>