<?xml version="1.0" encoding="utf-8" ?>
<svg baseProfile="full" height="1200" version="1.1" width="1600" xmlns="http://www.w3.org/2000/svg" xmlns:ev="http://www.w3.org/2001/xml-events" xmlns:xlink="http://www.w3.org/1999/xlink"><defs /><path d="M1501.06,1445.94" fill="none" stroke="#000000" style="-webkit-tap-highlight-color: rgba(0, 0, 0, 0); stroke-linecap: round; stroke-linejoin: round; stroke-width: 8;" /><path d="M525.8,826.86L522.97,826.86L522.97,824.03L522.97,821.2L525.8,821.2L525.8,818.37L528.62,818.37L528.62,821.2L531.45,821.2L534.28,824.03L537.1,826.86L539.93,826.86L542.76,826.86L551.24,829.68L559.72,829.68L568.2,829.68L576.68,832.51L587.99,832.51L596.47,835.34L602.12,838.16L610.6,840.99L616.25,846.64L624.73,852.3L633.22,857.95L638.87,860.78L644.52,863.6L650.18,863.6L655.83,866.43L664.31,866.43L669.96,866.43L672.79,869.26L675.62,869.26L678.45,872.08L681.27,872.08L684.1,872.08L686.93,874.91L689.75,874.91L692.58,877.74L695.41,880.57L695.41,883.39L701.06,886.22L703.89,889.05L709.54,891.87L718.02,894.7L723.67,897.53L732.16,900.35L743.46,903.18L749.12,906.01L760.42,908.83L766.08,911.66L774.56,914.49L783.04,917.31L788.69,920.14L797.17,925.8L805.65,928.62L811.31,931.45L819.79,934.28L828.27,937.1L839.58,942.76L850.88,948.41L859.36,954.06L867.84,956.89L876.33,962.54L884.81,965.37L893.29,968.2L901.77,973.85L910.25,976.68L918.73,982.33L927.21,985.16L938.52,990.81L947,993.64L955.48,999.29L963.96,1002.12L972.44,1004.95L978.09,1007.77L983.75,1013.43L992.23,1016.25L997.88,1021.91L1003.53,1024.73L1009.19,1030.39L1014.84,1033.22L1020.49,1038.87L1028.98,1041.7L1034.63,1044.52L1043.11,1047.35L1048.76,1050.18L1054.42,1053L1062.9,1053L1068.55,1055.83L1077.03,1058.66L1082.69,1064.31L1088.34,1067.14L1093.99,1069.96L1099.65,1072.79L1102.47,1075.62L1105.3,1078.45L1108.13,1081.27L1110.95,1081.27L1113.78,1084.1L1116.61,1084.1L1119.43,1084.1L1125.09,1084.1L1130.74,1084.1L1133.57,1084.1L1139.22,1084.1L1144.88,1084.1L1150.53,1084.1L1153.36,1084.1L1159.01,1084.1L1164.66,1084.1L1170.32,1081.27L1173.14,1081.27L1178.8,1078.45L1181.63,1072.79L1184.45,1069.96L1190.11,1061.48L1195.76,1053L1198.59,1044.52L1204.24,1036.04L1207.07,1030.39L1207.07,1024.73L1207.07,1021.91L1207.07,1016.25L1201.41,1013.43L1198.59,1007.77L1192.93,1004.95L1187.28,1002.12L1181.63,999.29L1173.14,999.29L1164.66,996.47L1156.18,993.64L1147.7,990.81L1142.05,987.99L1136.4,985.16L1127.92,985.16L1122.26,982.33L1113.78,982.33L1105.3,979.51L1096.82,976.68L1088.34,971.02L1082.69,968.2L1074.2,965.37L1068.55,965.37L1060.07,962.54L1054.42,959.72L1045.94,956.89L1040.28,954.06L1037.46,951.24L1031.8,948.41L1026.15,945.58L1023.32,942.76L1017.67,939.93L1012.01,937.1L1006.36,931.45L1000.71,928.62L992.23,925.8L986.57,920.14L978.09,917.31L972.44,911.66L963.96,908.83L955.48,906.01L949.82,903.18L944.17,900.35L938.52,897.53L930.04,894.7L924.38,891.87L918.73,889.05L913.07,886.22L907.42,883.39L901.77,883.39L896.11,877.74L890.46,874.91L884.81,872.08L876.33,869.26L867.84,866.43L859.36,863.6L850.88,860.78L842.4,857.95L833.92,852.3L825.44,849.47L814.13,843.82L802.83,840.99L791.52,838.16L780.21,832.51L771.73,829.68L760.42,826.86L751.94,824.03L743.46,818.37L732.16,815.55L726.5,812.72L718.02,809.89L712.37,807.07L706.71,804.24L698.23,801.41L692.58,795.76L684.1,792.93L675.62,787.28L667.14,784.45L658.66,781.63L650.18,781.63L644.52,781.63L636.04,781.63L630.39,781.63L621.91,781.63L610.6,781.63L599.29,781.63L587.99,781.63L576.68,781.63L568.2,781.63L559.72,784.45L554.06,784.45L545.58,790.11L537.1,792.93L531.45,795.76L525.8,798.59L520.14,804.24L517.31,807.07L517.31,809.89L517.31,815.55L514.49,818.37L514.49,824.03L514.49,826.86L514.49,829.68L514.49,832.51L511.66,835.34L511.66,838.16L508.83,840.99L503.18,843.82L500.35,846.64L497.53,849.47L494.7,852.3L491.87,857.95L489.05,863.6L486.22,869.26L483.39,874.91L480.57,880.57L480.57,889.05L480.57,897.53L480.57,906.01L477.74,914.49L477.74,922.97L477.74,931.45L474.91,939.93L474.91,945.58L474.91,954.06L474.91,962.54L474.91,968.2L474.91,976.68L474.91,982.33L474.91,987.99L474.91,996.47L474.91,1004.95L474.91,1013.43L474.91,1021.91L472.08,1030.39L472.08,1036.04L472.08,1044.52L472.08,1050.18L472.08,1055.83L472.08,1061.48L472.08,1064.31L474.91,1064.31" fill="none" stroke="#000000" style="-webkit-tap-highlight-color: rgba(0, 0, 0, 0); stroke-linecap: round; stroke-linejoin: round; stroke-width: 8;" /><path d="M1192.93,1013.43L1190.11,1013.43L1190.11,1010.6L1190.11,1004.95L1187.28,1004.95L1187.28,1002.12L1192.93,999.29L1201.41,999.29L1209.89,996.47L1221.2,996.47L1235.34,996.47L1249.47,1002.12L1257.95,1007.77L1269.26,1019.08L1274.91,1027.56L1280.57,1038.87L1289.05,1050.18L1297.53,1058.66L1306.01,1067.14L1317.31,1072.79L1328.62,1078.45L1339.93,1084.1L1348.41,1089.75L1356.89,1095.41L1362.54,1101.06L1368.2,1106.71L1373.85,1112.37L1376.68,1118.02L1382.33,1123.67L1387.99,1129.33L1393.64,1134.98L1396.47,1140.64L1402.12,1146.29L1404.95,1149.12L1407.77,1154.77L1410.6,1160.42L1413.43,1166.08L1416.25,1168.9L1419.08,1171.73L1421.91,1174.56L1427.56,1174.56L1430.39,1174.56L1433.22,1174.56L1433.22,1171.73L1433.22,1168.9" fill="none" stroke="#000000" style="-webkit-tap-highlight-color: rgba(0, 0, 0, 0); stroke-linecap: round; stroke-linejoin: round; stroke-width: 8;" /><path d="M1133.57,1095.41L1130.74,1089.75L1127.92,1084.1L1127.92,1081.27L1125.09,1081.27L1122.26,1086.93L1119.43,1098.23L1119.43,1115.19L1119.43,1134.98L1122.26,1151.94L1125.09,1166.08L1130.74,1177.39L1133.57,1188.69L1136.4,1197.17" fill="none" stroke="#000000" style="-webkit-tap-highlight-color: rgba(0, 0, 0, 0); stroke-linecap: round; stroke-linejoin: round; stroke-width: 8;" /><path d="M489.05,1072.79L489.05,1069.96L486.22,1067.14L486.22,1069.96L486.22,1072.79L489.05,1075.62L491.87,1078.45L494.7,1081.27L500.35,1084.1L508.83,1089.75L514.49,1098.23L522.97,1106.71L531.45,1115.19L537.1,1123.67L542.76,1129.33L551.24,1132.16L556.89,1134.98L562.54,1137.81L568.2,1143.46L571.02,1146.29L576.68,1151.94L579.51,1157.6L582.33,1160.42L585.16,1163.25L587.99,1168.9L593.64,1174.56L596.47,1177.39L599.29,1183.04L602.12,1185.87L604.95,1188.69L607.77,1191.52L607.77,1188.69L607.77,1185.87L607.77,1183.04" fill="none" stroke="#000000" style="-webkit-tap-highlight-color: rgba(0, 0, 0, 0); stroke-linecap: round; stroke-linejoin: round; stroke-width: 8;" /><path d="M438.16,1036.04L440.99,1036.04L443.82,1036.04L440.99,1033.22L438.16,1033.22L435.34,1033.22L432.51,1033.22L426.86,1033.22L421.2,1033.22L415.55,1033.22L407.07,1036.04L398.59,1038.87L390.11,1038.87L384.45,1038.87L375.97,1038.87L367.49,1038.87L361.84,1038.87L353.36,1038.87L344.88,1038.87L336.4,1038.87L327.92,1036.04L322.26,1036.04L319.43,1036.04L313.78,1036.04L308.13,1036.04L305.3,1038.87L299.65,1038.87L302.47,1036.04L305.3,1030.39L308.13,1024.73L310.95,1019.08L316.61,1010.6L319.43,1004.95L319.43,996.47L319.43,993.64L316.61,990.81L313.78,990.81L313.78,993.64L316.61,996.47L322.26,996.47L330.74,996.47L344.88,996.47L359.01,993.64L373.14,987.99L381.63,985.16L392.93,982.33L398.59,982.33L407.07,982.33L415.55,982.33L424.03,982.33L432.51,982.33L440.99,979.51L452.3,979.51L460.78,976.68L472.08,976.68L477.74,973.85L480.57,973.85L480.57,971.02L477.74,971.02L477.74,973.85" fill="none" stroke="#000000" style="-webkit-tap-highlight-color: rgba(0, 0, 0, 0); stroke-linecap: round; stroke-linejoin: round; stroke-width: 8;" /><path d="M438.16,948.41L435.34,951.24L435.34,948.41L435.34,945.58L432.51,942.76L429.68,937.1L426.86,931.45L424.03,925.8L418.37,920.14L415.55,914.49L412.72,911.66L409.89,908.83L407.07,906.01L407.07,903.18L404.24,897.53L404.24,891.87L404.24,889.05L404.24,883.39L401.41,880.57L401.41,874.91L401.41,869.26L398.59,866.43L395.76,860.78L392.93,857.95L390.11,852.3L387.28,849.47L384.45,846.64L378.8,843.82L375.97,840.99L373.14,835.34L370.32,832.51L364.66,826.86L361.84,821.2L361.84,815.55L359.01,809.89L359.01,804.24L359.01,798.59L356.18,792.93L356.18,787.28L356.18,781.63L353.36,778.8L350.53,773.14L347.7,773.14L342.05,773.14L339.22,773.14L333.57,773.14L327.92,773.14L325.09,773.14L319.43,775.97L316.61,775.97L310.95,775.97L308.13,775.97L305.3,773.14L302.47,773.14L299.65,773.14L296.82,773.14L296.82,770.32L293.99,770.32L291.17,770.32L288.34,770.32L285.51,767.49L282.69,767.49L279.86,764.66L277.03,764.66L277.03,761.84L274.2,761.84L271.38,759.01L268.55,756.18L265.72,753.36L262.9,750.53L260.07,750.53L257.24,747.7L254.42,747.7L248.76,744.88L245.94,744.88L243.11,742.05L240.28,739.22L240.28,736.4L237.46,733.57L234.63,730.74L234.63,727.92L231.8,725.09L231.8,722.26L228.98,719.43L226.15,713.78L223.32,710.95L217.67,710.95L214.84,708.13L212.01,705.3L206.36,702.47L200.71,702.47L195.05,702.47L189.4,702.47L183.75,702.47L175.27,702.47L169.61,702.47L166.78,702.47L161.13,702.47L155.48,702.47L152.65,702.47L147,702.47L141.34,705.3L135.69,705.3L130.04,705.3L127.21,708.13L121.55,708.13L115.9,710.95L115.9,713.78L113.07,713.78L115.9,713.78L118.73,716.61L124.38,716.61" fill="none" stroke="#000000" style="-webkit-tap-highlight-color: rgba(0, 0, 0, 0); stroke-linecap: round; stroke-linejoin: round; stroke-width: 8;" /><path d="M189.4,733.57L186.57,730.74L183.75,730.74L183.75,727.92L183.75,725.09L186.57,719.43L189.4,716.61L192.23,716.61L197.88,713.78L200.71,713.78L203.53,713.78L209.19,713.78L212.01,716.61L214.84,719.43L217.67,725.09L220.49,730.74L223.32,733.57L226.15,739.22L228.98,744.88L228.98,750.53L231.8,753.36L234.63,759.01L234.63,761.84L237.46,764.66L240.28,770.32L240.28,773.14L240.28,778.8L240.28,781.63L243.11,787.28L243.11,790.11L243.11,792.93L245.94,795.76L248.76,795.76L251.59,795.76L254.42,795.76L257.24,795.76L262.9,795.76L268.55,792.93L274.2,792.93L277.03,792.93L282.69,792.93L285.51,795.76L288.34,795.76L288.34,798.59L288.34,801.41L288.34,807.07L288.34,809.89L288.34,815.55L285.51,821.2L285.51,826.86L285.51,829.68L288.34,832.51L291.17,832.51L293.99,832.51L299.65,832.51L302.47,829.68L308.13,829.68L313.78,826.86L319.43,826.86L327.92,826.86L330.74,826.86L336.4,826.86L339.22,829.68L342.05,832.51L342.05,838.16L344.88,840.99L344.88,846.64L344.88,852.3L342.05,857.95L342.05,863.6L339.22,866.43L339.22,872.08L339.22,874.91L336.4,877.74L336.4,880.57L336.4,883.39L336.4,886.22L333.57,889.05L333.57,891.87L330.74,894.7L327.92,897.53L325.09,900.35L322.26,903.18L319.43,906.01L316.61,911.66L310.95,917.31L308.13,920.14L305.3,925.8L302.47,931.45L299.65,937.1L296.82,942.76L296.82,948.41L293.99,954.06L293.99,959.72L293.99,968.2L293.99,973.85L296.82,985.16L296.82,987.99L296.82,993.64L299.65,999.29L299.65,1004.95L299.65,1007.77L299.65,1010.6L299.65,1013.43L299.65,1016.25L302.47,1016.25L302.47,1013.43L302.47,1010.6" fill="none" stroke="#000000" style="-webkit-tap-highlight-color: rgba(0, 0, 0, 0); stroke-linecap: round; stroke-linejoin: round; stroke-width: 8;" /><path d="M5.65,202.12L2.83,202.12L2.83,199.29L0,199.29L0,202.12L0,204.95L2.83,207.77L5.65,207.77L11.31,210.6L19.79,210.6L28.27,216.25L39.58,221.91L48.06,230.39L53.71,236.04L56.54,241.7L59.36,247.35L62.19,253L65.02,258.66L70.67,267.14L73.5,272.79L73.5,281.27L76.33,286.93L76.33,292.58L76.33,298.23L76.33,303.89L76.33,312.37L76.33,318.02L76.33,326.5L76.33,332.16L76.33,340.64L76.33,346.29L76.33,351.94L79.15,357.6L79.15,366.08L81.98,371.73L81.98,380.21L81.98,388.69L81.98,394.35L81.98,402.83L81.98,411.31L81.98,419.79L81.98,428.27L81.98,436.75L79.15,445.23L79.15,459.36L79.15,467.84L79.15,476.33L81.98,481.98L84.81,490.46L84.81,498.94L87.63,504.59L87.63,513.07L90.46,518.73L90.46,527.21L93.29,535.69L93.29,541.34L93.29,549.82L93.29,558.3L93.29,563.96L93.29,569.61L90.46,578.09L90.46,586.57L90.46,595.05L90.46,603.53L90.46,614.84L90.46,623.32L90.46,634.63L90.46,643.11L90.46,651.59L90.46,660.07L90.46,668.55L90.46,677.03L90.46,688.34L90.46,696.82L87.63,705.3L87.63,713.78L87.63,722.26L87.63,730.74L87.63,742.05L87.63,750.53L87.63,759.01L87.63,767.49L87.63,775.97L87.63,787.28L87.63,795.76L87.63,804.24L87.63,815.55L87.63,826.86L87.63,835.34L87.63,843.82L87.63,852.3L90.46,863.6L93.29,874.91L93.29,886.22L96.11,897.53L98.94,906.01L101.77,914.49L101.77,925.8L104.59,931.45L104.59,942.76L104.59,951.24L107.42,956.89L107.42,965.37L113.07,979.51L113.07,982.33L115.9,987.99L115.9,996.47L118.73,1002.12L118.73,1007.77L121.55,1013.43L121.55,1019.08L124.38,1024.73L127.21,1027.56L127.21,1033.22L130.04,1038.87L135.69,1047.35L138.52,1055.83L141.34,1061.48L141.34,1067.14L144.17,1072.79L144.17,1078.45L147,1086.93L149.82,1095.41L149.82,1106.71L149.82,1118.02L152.65,1123.67L152.65,1132.16L155.48,1137.81L155.48,1143.46L158.3,1151.94L158.3,1160.42L161.13,1168.9L161.13,1177.39L161.13,1183.04L161.13,1185.87L161.13,1188.69L163.96,1194.35L163.96,1200" fill="none" stroke="#000000" style="-webkit-tap-highlight-color: rgba(0, 0, 0, 0); stroke-linecap: round; stroke-linejoin: round; stroke-width: 8;" /><path d="M163.96,1197.17L163.96,1194.35" fill="none" stroke="#000000" style="-webkit-tap-highlight-color: rgba(0, 0, 0, 0); stroke-linecap: round; stroke-linejoin: round; stroke-width: 8;" /><path d="M22.61,83.39L22.61,80.57L22.61,77.74L22.61,74.91L25.44,72.08L25.44,69.26L28.27,66.43L31.1,60.78" fill="none" stroke="#000000" style="-webkit-tap-highlight-color: rgba(0, 0, 0, 0); stroke-linecap: round; stroke-linejoin: round; stroke-width: 8;" /><path d="M28.27,4.24L22.61,4.24L16.96,4.24L14.13,4.24L11.31,4.24L11.31,7.07L11.31,9.89L14.13,12.72L16.96,15.55L22.61,15.55L28.27,15.55L33.92,18.37L36.75,18.37L39.58,24.03L39.58,29.68L36.75,35.34L33.92,43.82L28.27,49.47L25.44,55.12L22.61,63.6L19.79,66.43L16.96,72.08L16.96,74.91L14.13,80.57L14.13,83.39L14.13,86.22L14.13,89.05L16.96,91.87L19.79,91.87L22.61,91.87L25.44,91.87L28.27,91.87L31.1,91.87L36.75,91.87L42.4,91.87L50.88,91.87L56.54,91.87L65.02,89.05L73.5,89.05L81.98,89.05L90.46,89.05L96.11,89.05L104.59,89.05L113.07,89.05L121.55,89.05L130.04,91.87L138.52,94.7L147,94.7L155.48,97.53L163.96,100.35L169.61,100.35L172.44,100.35L178.09,103.18L183.75,103.18L192.23,106.01L195.05,106.01L197.88,106.01L197.88,103.18L197.88,100.35L195.05,97.53L195.05,91.87L192.23,89.05L192.23,80.57L192.23,74.91L192.23,69.26L192.23,63.6L192.23,60.78L195.05,60.78L195.05,63.6L197.88,63.6L200.71,63.6L203.53,63.6L206.36,63.6L212.01,63.6L217.67,63.6L223.32,63.6L228.98,60.78L237.46,57.95L243.11,57.95L248.76,55.12L254.42,55.12L257.24,55.12L262.9,57.95L265.72,60.78L268.55,66.43L271.38,69.26L277.03,74.91L277.03,80.57L279.86,86.22L282.69,91.87L282.69,94.7L285.51,100.35L285.51,103.18L285.51,106.01L288.34,108.83L291.17,111.66L291.17,114.49L291.17,117.31L293.99,120.14L296.82,120.14L296.82,122.97L299.65,125.8L302.47,125.8L305.3,125.8L308.13,128.62L313.78,128.62L316.61,128.62L322.26,128.62L330.74,128.62L336.4,125.8L342.05,125.8L347.7,128.62L350.53,131.45L353.36,137.1L356.18,142.76L359.01,148.41L364.66,151.24L370.32,156.89L378.8,159.72L384.45,159.72L390.11,159.72L398.59,159.72L404.24,159.72L412.72,159.72L418.37,159.72L426.86,159.72L432.51,159.72L438.16,162.54L443.82,165.37L449.47,168.2L455.12,168.2L457.95,171.02L463.6,171.02L469.26,173.85L474.91,173.85L480.57,176.68L486.22,176.68L491.87,176.68L497.53,176.68L503.18,176.68L511.66,179.51L517.31,179.51L522.97,179.51L525.8,182.33L525.8,185.16L522.97,187.99" fill="none" stroke="#000000" style="-webkit-tap-highlight-color: rgba(0, 0, 0, 0); stroke-linecap: round; stroke-linejoin: round; stroke-width: 8;" /><path d="M520.14,162.54L517.31,162.54L511.66,162.54L506.01,159.72L500.35,159.72L494.7,159.72L491.87,162.54L489.05,162.54L489.05,165.37L491.87,168.2L497.53,171.02L508.83,173.85L517.31,173.85L531.45,176.68L542.76,179.51L551.24,182.33L559.72,187.99L565.37,193.64L571.02,196.47L573.85,202.12L579.51,207.77L585.16,213.43L587.99,219.08L590.81,221.91L593.64,227.56L593.64,236.04L593.64,241.7L596.47,247.35L596.47,250.18L599.29,255.83L602.12,258.66L604.95,264.31L607.77,269.96L613.43,275.62L616.25,281.27L619.08,286.93L621.91,286.93L624.73,289.75L627.56,289.75L630.39,292.58L636.04,295.41L638.87,295.41L641.7,295.41L650.18,298.23L655.83,298.23L658.66,298.23L664.31,301.06L667.14,303.89L669.96,306.71L669.96,309.54L672.79,315.19L672.79,320.85L672.79,326.5L675.62,329.33L675.62,334.98L675.62,337.81L678.45,343.46L678.45,346.29L678.45,349.12L678.45,354.77L678.45,357.6L678.45,360.42L675.62,366.08L675.62,368.9L675.62,371.73L675.62,374.56L675.62,377.39L675.62,380.21L675.62,383.04L678.45,385.87L681.27,385.87L686.93,385.87L692.58,383.04L701.06,383.04L706.71,380.21L712.37,377.39L718.02,377.39L720.85,377.39L726.5,377.39L732.16,377.39L737.81,377.39L740.64,377.39L746.29,380.21L751.94,380.21L754.77,383.04L760.42,383.04L763.25,383.04L766.08,383.04L766.08,380.21L766.08,374.56L766.08,366.08L763.25,360.42L760.42,351.94L757.6,343.46L757.6,334.98L754.77,326.5L754.77,320.85L751.94,318.02L751.94,312.37L749.12,306.71L746.29,301.06L743.46,298.23L740.64,292.58L737.81,286.93L732.16,281.27L729.33,275.62L726.5,267.14L723.67,258.66L723.67,250.18L723.67,241.7L726.5,233.22L726.5,227.56L729.33,221.91L729.33,216.25L732.16,210.6L734.98,207.77L737.81,202.12L743.46,196.47L746.29,193.64L751.94,190.81L754.77,187.99L760.42,185.16L766.08,182.33L771.73,182.33L780.21,179.51L785.87,179.51L791.52,179.51L797.17,176.68L802.83,173.85L805.65,173.85L808.48,171.02L808.48,165.37L811.31,162.54L811.31,159.72L811.31,154.06L808.48,148.41L805.65,142.76L805.65,137.1L802.83,134.28L800,128.62L800,125.8L800,122.97L797.17,117.31L797.17,111.66L797.17,108.83L797.17,106.01L797.17,100.35L797.17,94.7L797.17,91.87L797.17,86.22L797.17,83.39L800,80.57L802.83,80.57L805.65,77.74L811.31,77.74L816.96,74.91L822.61,74.91L828.27,74.91L836.75,74.91L842.4,74.91L848.06,77.74L850.88,80.57L856.54,86.22L859.36,89.05L862.19,94.7L867.84,103.18L870.67,106.01L873.5,111.66L876.33,114.49L879.15,120.14L881.98,122.97L884.81,128.62L887.63,134.28L890.46,139.93L890.46,145.58L893.29,151.24L893.29,156.89L896.11,159.72L898.94,162.54L904.59,162.54L907.42,162.54L907.42,159.72L910.25,154.06L913.07,148.41L915.9,145.58L918.73,139.93L924.38,137.1L927.21,131.45L930.04,128.62L935.69,125.8L938.52,122.97L941.34,120.14L944.17,114.49L947,111.66L949.82,108.83L949.82,106.01L952.65,103.18L955.48,97.53L958.3,94.7L961.13,89.05L963.96,86.22L966.78,80.57L969.61,77.74L972.44,74.91L975.27,74.91L978.09,72.08L980.92,72.08L983.75,69.26L986.57,69.26L989.4,66.43L995.05,66.43L997.88,63.6L1000.71,63.6L1006.36,60.78L1009.19,60.78L1012.01,60.78L1017.67,57.95L1020.49,57.95L1026.15,55.12L1028.98,55.12L1034.63,52.3L1043.11,49.47L1048.76,46.64L1054.42,43.82L1060.07,40.99L1065.72,38.16L1074.2,35.34L1079.86,32.51L1085.51,29.68L1091.17,26.86L1093.99,24.03L1099.65,21.2L1102.47,18.37L1110.95,15.55L1119.43,12.72L1130.74,9.89L1142.05,7.07L1156.18,7.07L1167.49,4.24L1178.8,4.24L1190.11,4.24L1195.76,4.24L1201.41,4.24L1198.59,4.24L1192.93,4.24L1190.11,4.24" fill="none" stroke="#000000" style="-webkit-tap-highlight-color: rgba(0, 0, 0, 0); stroke-linecap: round; stroke-linejoin: round; stroke-width: 8;" /><path d="M848.06,668.55L850.88,665.72L853.71,662.9L856.54,662.9L856.54,660.07L859.36,660.07L862.19,660.07L867.84,660.07L876.33,660.07L881.98,660.07L893.29,660.07L901.77,662.9L907.42,668.55L915.9,671.38L924.38,677.03L932.86,679.86L941.34,682.69L949.82,685.51L958.3,688.34L966.78,691.17L975.27,693.99L986.57,696.82L995.05,702.47L1003.53,705.3L1009.19,705.3L1014.84,708.13L1020.49,708.13L1028.98,710.95L1037.46,713.78L1043.11,716.61L1045.94,716.61L1051.59,719.43L1054.42,719.43L1054.42,716.61L1057.24,716.61L1060.07,710.95L1060.07,708.13L1062.9,699.65L1065.72,693.99L1065.72,685.51L1065.72,679.86L1065.72,671.38L1060.07,662.9L1057.24,657.24L1054.42,648.76L1054.42,640.28L1057.24,634.63L1060.07,628.98L1062.9,614.84L1065.72,609.19L1065.72,603.53L1068.55,597.88L1071.38,592.23L1074.2,586.57L1079.86,580.92L1082.69,575.27L1082.69,569.61L1085.51,566.78L1085.51,561.13L1088.34,555.48L1088.34,549.82L1091.17,544.17L1093.99,538.52L1096.82,532.86L1099.65,527.21L1102.47,518.73L1105.3,513.07L1105.3,504.59L1108.13,496.11L1108.13,487.63L1108.13,479.15L1108.13,470.67L1105.3,462.19L1105.3,453.71L1105.3,445.23L1105.3,436.75L1105.3,428.27L1105.3,419.79L1108.13,411.31L1108.13,402.83L1110.95,394.35L1110.95,385.87L1110.95,377.39L1110.95,368.9L1110.95,360.42L1110.95,351.94L1113.78,343.46L1113.78,337.81L1113.78,329.33L1113.78,320.85L1113.78,315.19L1110.95,309.54L1110.95,301.06L1108.13,295.41L1108.13,289.75L1110.95,281.27L1110.95,275.62L1110.95,269.96L1110.95,264.31L1110.95,258.66L1110.95,253L1108.13,247.35L1105.3,238.87L1102.47,230.39L1099.65,221.91L1096.82,216.25L1096.82,210.6L1099.65,207.77L1102.47,204.95L1108.13,202.12L1110.95,199.29L1116.61,196.47L1125.09,193.64L1130.74,190.81L1139.22,187.99L1147.7,185.16L1153.36,185.16L1156.18,185.16L1161.84,185.16L1164.66,185.16L1167.49,187.99L1170.32,190.81L1173.14,193.64L1175.97,196.47L1178.8,199.29L1178.8,202.12L1181.63,204.95L1181.63,207.77L1184.45,213.43L1184.45,216.25L1184.45,221.91L1184.45,224.73L1187.28,227.56L1187.28,230.39L1184.45,233.22L1184.45,236.04L1184.45,238.87L1184.45,241.7L1184.45,244.52L1184.45,247.35L1184.45,250.18L1184.45,253L1184.45,255.83L1184.45,261.48L1184.45,269.96L1184.45,275.62L1184.45,284.1L1181.63,292.58L1181.63,298.23L1181.63,306.71L1178.8,315.19L1178.8,323.67L1175.97,329.33L1175.97,337.81L1175.97,346.29L1175.97,357.6L1175.97,363.25L1178.8,371.73L1178.8,380.21L1175.97,388.69L1175.97,397.17L1173.14,408.48L1170.32,428.27L1170.32,436.75L1170.32,445.23L1170.32,456.54L1170.32,465.02L1170.32,476.33L1170.32,484.81L1170.32,493.29L1170.32,501.77L1170.32,507.42L1170.32,513.07L1170.32,521.55L1170.32,530.04L1167.49,535.69L1167.49,544.17L1167.49,552.65L1164.66,558.3L1164.66,563.96L1164.66,572.44L1164.66,580.92L1161.84,586.57L1161.84,595.05L1159.01,603.53L1159.01,614.84L1156.18,623.32L1153.36,637.46L1153.36,645.94L1153.36,657.24L1153.36,665.72L1153.36,674.2L1153.36,682.69L1156.18,688.34L1156.18,693.99L1156.18,699.65L1156.18,705.3L1156.18,713.78L1156.18,719.43L1156.18,725.09L1156.18,730.74L1156.18,736.4L1153.36,742.05L1153.36,747.7L1153.36,750.53L1153.36,756.18L1153.36,759.01L1153.36,764.66L1156.18,767.49L1156.18,770.32L1156.18,773.14L1159.01,773.14L1161.84,773.14L1164.66,775.97L1167.49,775.97L1170.32,778.8L1175.97,778.8L1178.8,781.63L1181.63,784.45L1184.45,784.45L1187.28,787.28L1190.11,790.11L1192.93,792.93L1195.76,795.76L1198.59,798.59L1204.24,798.59L1207.07,801.41L1209.89,804.24L1215.55,804.24L1221.2,804.24L1226.86,807.07L1232.51,807.07L1238.16,809.89L1243.82,809.89L1252.3,809.89L1257.95,812.72L1263.6,815.55L1272.08,815.55L1274.91,818.37L1280.57,821.2L1286.22,821.2L1289.05,824.03L1294.7,826.86L1300.35,829.68L1306.01,832.51L1311.66,835.34L1320.14,840.99L1325.8,840.99L1334.28,843.82L1342.76,846.64L1351.24,849.47L1359.72,852.3L1371.02,857.95L1379.51,860.78L1387.99,863.6L1393.64,866.43L1402.12,869.26L1407.77,874.91L1413.43,877.74L1419.08,880.57L1424.73,883.39L1430.39,883.39L1436.04,886.22L1444.52,889.05L1453,891.87L1461.48,894.7L1469.96,900.35L1478.45,903.18L1484.1,906.01L1492.58,906.01L1498.23,908.83L1503.89,908.83L1509.54,911.66L1518.02,911.66L1520.85,914.49L1526.5,917.31L1532.16,917.31L1537.81,920.14L1543.46,922.97L1546.29,922.97L1551.94,922.97L1554.77,922.97L1557.6,925.8L1560.42,925.8L1563.25,928.62L1566.08,928.62L1568.9,928.62L1566.08,925.8L1566.08,922.97" fill="none" stroke="#000000" style="-webkit-tap-highlight-color: rgba(0, 0, 0, 0); stroke-linecap: round; stroke-linejoin: round; stroke-width: 8;" /><path d="M1577.39,883.39L1580.21,883.39L1583.04,883.39L1585.87,880.57L1583.04,880.57L1580.21,877.74L1574.56,877.74L1566.08,874.91L1557.6,872.08L1543.46,869.26L1529.33,863.6L1515.19,860.78L1501.06,857.95L1489.75,855.12L1481.27,852.3L1467.14,849.47L1455.83,846.64L1444.52,840.99L1430.39,835.34L1416.25,832.51L1404.95,829.68L1393.64,826.86L1382.33,824.03L1373.85,821.2L1365.37,818.37L1356.89,812.72L1348.41,809.89L1339.93,804.24L1331.45,801.41L1320.14,795.76L1311.66,792.93L1300.35,790.11L1291.87,787.28L1280.57,781.63L1272.08,775.97L1263.6,773.14L1255.12,767.49L1246.64,764.66L1238.16,761.84L1232.51,756.18L1226.86,753.36L1224.03,747.7L1218.37,744.88L1215.55,742.05L1215.55,736.4L1212.72,733.57L1212.72,730.74L1212.72,727.92L1215.55,727.92L1215.55,725.09L1215.55,722.26L1215.55,719.43L1218.37,716.61L1218.37,713.78L1218.37,710.95L1218.37,708.13L1218.37,705.3L1218.37,702.47L1218.37,699.65L1218.37,693.99L1218.37,691.17L1221.2,688.34L1221.2,682.69L1221.2,679.86L1221.2,677.03L1221.2,671.38L1221.2,668.55L1224.03,665.72L1224.03,662.9L1224.03,657.24L1224.03,654.42L1224.03,651.59L1224.03,648.76L1224.03,645.94L1224.03,640.28L1224.03,637.46L1224.03,631.8L1224.03,628.98L1224.03,623.32L1224.03,617.67L1224.03,614.84L1224.03,612.01L1226.86,606.36L1226.86,603.53L1226.86,597.88L1226.86,595.05L1226.86,589.4L1226.86,583.75L1226.86,578.09L1226.86,575.27L1224.03,569.61L1224.03,566.78L1224.03,561.13L1224.03,555.48L1224.03,552.65L1224.03,549.82L1224.03,547L1224.03,541.34L1224.03,535.69L1224.03,532.86L1224.03,527.21L1224.03,521.55L1224.03,518.73L1224.03,515.9L1224.03,510.25L1221.2,507.42L1221.2,504.59L1221.2,501.77L1221.2,498.94L1221.2,496.11L1221.2,490.46L1221.2,487.63L1224.03,481.98L1224.03,479.15L1224.03,476.33L1224.03,473.5L1224.03,470.67L1224.03,467.84L1226.86,465.02L1226.86,462.19L1226.86,459.36L1226.86,453.71L1226.86,450.88L1226.86,448.06L1226.86,442.4L1226.86,439.58L1226.86,436.75L1226.86,431.1L1226.86,425.44L1226.86,422.61L1226.86,416.96L1226.86,411.31L1226.86,405.65L1226.86,400L1226.86,394.35L1226.86,388.69L1226.86,383.04L1226.86,377.39L1229.68,371.73L1229.68,368.9L1229.68,363.25L1229.68,357.6L1229.68,351.94L1232.51,349.12L1232.51,346.29L1232.51,343.46L1232.51,332.16L1232.51,326.5L1232.51,318.02L1232.51,312.37L1232.51,306.71L1229.68,301.06L1229.68,292.58L1226.86,286.93L1226.86,281.27L1224.03,275.62L1224.03,272.79L1221.2,267.14L1218.37,264.31L1218.37,261.48L1215.55,258.66L1215.55,255.83L1215.55,253L1215.55,244.52L1212.72,233.22L1212.72,227.56L1212.72,221.91L1212.72,219.08L1215.55,216.25L1215.55,213.43L1218.37,210.6L1218.37,207.77L1221.2,207.77L1221.2,204.95L1224.03,202.12L1224.03,199.29L1224.03,196.47L1226.86,196.47L1226.86,193.64L1226.86,190.81L1226.86,187.99L1224.03,187.99L1224.03,185.16L1221.2,182.33L1218.37,182.33L1215.55,179.51L1212.72,179.51L1204.24,176.68L1201.41,173.85L1195.76,173.85L1184.45,171.02L1170.32,168.2L1164.66,165.37L1156.18,165.37L1150.53,162.54L1144.88,162.54L1142.05,162.54L1136.4,162.54L1130.74,162.54L1125.09,162.54L1122.26,168.2L1119.43,168.2L1116.61,171.02L1116.61,173.85L1119.43,179.51L1119.43,185.16L1122.26,185.16" fill="none" stroke="#000000" style="-webkit-tap-highlight-color: rgba(0, 0, 0, 0); stroke-linecap: round; stroke-linejoin: round; stroke-width: 8;" /><path d="M949.82,91.87L947,89.05L944.17,89.05L941.34,89.05L938.52,91.87L935.69,94.7L932.86,100.35L930.04,106.01L927.21,114.49L927.21,120.14L927.21,128.62L924.38,134.28L921.55,142.76L918.73,148.41L915.9,154.06L915.9,159.72L915.9,165.37L913.07,171.02L913.07,176.68L913.07,185.16L915.9,190.81L918.73,196.47L924.38,202.12L930.04,207.77L935.69,213.43L941.34,219.08L944.17,227.56L949.82,236.04L952.65,241.7L955.48,247.35L955.48,255.83L955.48,261.48L955.48,269.96L955.48,278.45L952.65,284.1L949.82,289.75L949.82,295.41L947,301.06L944.17,306.71L944.17,315.19L941.34,318.02L941.34,323.67L938.52,329.33L935.69,334.98L932.86,340.64L930.04,349.12L927.21,357.6L924.38,363.25L921.55,371.73L918.73,380.21L918.73,385.87L915.9,394.35L915.9,400L915.9,408.48L915.9,414.13L918.73,422.61L918.73,428.27L921.55,436.75L921.55,445.23L921.55,450.88L921.55,456.54L921.55,462.19L921.55,467.84L921.55,470.67L918.73,476.33L918.73,481.98L915.9,484.81L913.07,487.63L907.42,490.46L904.59,490.46L901.77,493.29L898.94,496.11L896.11,498.94L893.29,504.59L893.29,510.25L896.11,513.07L898.94,518.73L901.77,524.38L904.59,532.86L907.42,538.52L910.25,547L913.07,555.48L915.9,563.96L918.73,572.44L918.73,578.09L918.73,580.92L918.73,586.57L918.73,589.4L915.9,592.23L913.07,597.88L913.07,600.71L910.25,606.36L907.42,612.01L904.59,617.67L901.77,626.15L901.77,634.63L898.94,645.94L896.11,654.42L893.29,662.9L893.29,671.38L893.29,682.69L893.29,688.34L896.11,693.99L898.94,693.99L901.77,693.99L901.77,682.69L904.59,668.55" fill="none" stroke="#000000" style="-webkit-tap-highlight-color: rgba(0, 0, 0, 0); stroke-linecap: round; stroke-linejoin: round; stroke-width: 8;" /><path d="M814.13,154.06L814.13,151.24L814.13,145.58L811.31,151.24L808.48,159.72L802.83,171.02L797.17,182.33L797.17,196.47L794.35,210.6L800,221.91L805.65,236.04L808.48,250.18L811.31,258.66L814.13,269.96L816.96,278.45L816.96,289.75L819.79,301.06L822.61,312.37L822.61,323.67L825.44,334.98L825.44,349.12L825.44,360.42L828.27,371.73L831.1,380.21L831.1,391.52L833.92,402.83L836.75,416.96L839.58,425.44L842.4,436.75L848.06,445.23L850.88,456.54L853.71,470.67L853.71,481.98L853.71,496.11L853.71,507.42L853.71,518.73L853.71,530.04L853.71,541.34L853.71,552.65L853.71,561.13L856.54,569.61L856.54,580.92L856.54,589.4L856.54,595.05L856.54,603.53L856.54,609.19L856.54,614.84L856.54,620.49L853.71,626.15L853.71,631.8L850.88,637.46L850.88,645.94L850.88,651.59L850.88,660.07L850.88,668.55L850.88,674.2L850.88,677.03L848.06,677.03L848.06,679.86L845.23,679.86L842.4,682.69L839.58,688.34L833.92,693.99L828.27,699.65L822.61,702.47L816.96,708.13L814.13,713.78L811.31,719.43L808.48,727.92L805.65,733.57L802.83,739.22L800,744.88L800,750.53L797.17,759.01L797.17,764.66L797.17,773.14L794.35,778.8L794.35,784.45L794.35,792.93L794.35,798.59L794.35,807.07L794.35,815.55L797.17,821.2L802.83,829.68L805.65,838.16L805.65,843.82L805.65,846.64L805.65,840.99L797.17,824.03L794.35,818.37" fill="none" stroke="#000000" style="-webkit-tap-highlight-color: rgba(0, 0, 0, 0); stroke-linecap: round; stroke-linejoin: round; stroke-width: 8;" /><path d="M771.73,419.79L768.9,419.79L763.25,414.13L760.42,414.13L760.42,416.96L757.6,422.61L757.6,431.1L757.6,439.58L757.6,450.88L757.6,462.19L757.6,470.67L760.42,481.98L766.08,493.29L768.9,504.59L771.73,513.07L774.56,521.55L774.56,532.86L774.56,541.34L774.56,552.65L774.56,563.96L771.73,572.44L771.73,583.75L771.73,589.4L774.56,597.88L774.56,603.53L777.39,609.19L777.39,614.84L780.21,620.49L780.21,626.15L780.21,628.98L777.39,628.98L771.73,628.98L766.08,628.98L760.42,628.98L754.77,628.98L746.29,631.8L743.46,634.63L743.46,637.46L743.46,645.94L743.46,648.76L743.46,654.42L743.46,660.07L743.46,665.72L740.64,671.38L737.81,679.86L734.98,685.51L729.33,691.17L726.5,696.82L726.5,702.47L723.67,705.3L723.67,713.78L720.85,719.43L720.85,725.09L720.85,727.92L720.85,733.57L723.67,742.05L726.5,747.7L732.16,753.36L734.98,759.01L737.81,764.66L740.64,767.49L740.64,773.14L743.46,775.97L743.46,778.8L743.46,784.45L743.46,790.11L743.46,795.76L740.64,804.24L740.64,812.72L737.81,818.37L737.81,824.03L737.81,826.86L737.81,824.03L737.81,815.55L737.81,798.59" fill="none" stroke="#000000" style="-webkit-tap-highlight-color: rgba(0, 0, 0, 0); stroke-linecap: round; stroke-linejoin: round; stroke-width: 8;" /><path d="M1190.11,1016.25L1187.28,1013.43L1178.8,1007.77L1178.8,1004.95L1181.63,1002.12L1184.45,1002.12L1192.93,1004.95L1201.41,1007.77L1209.89,1010.6L1218.37,1013.43L1226.86,1016.25L1235.34,1019.08L1243.82,1021.91L1249.47,1021.91L1255.12,1024.73L1260.78,1024.73L1263.6,1024.73L1269.26,1027.56L1269.26,1030.39L1266.43,1030.39L1263.6,1033.22" fill="none" stroke="#000000" style="-webkit-tap-highlight-color: rgba(0, 0, 0, 0); stroke-linecap: round; stroke-linejoin: round; stroke-width: 8;" /></svg>