<?xml version="1.0" encoding="utf-8" ?>
<svg baseProfile="full" height="2488" version="1.1" width="3539" xmlns="http://www.w3.org/2000/svg" xmlns:ev="http://www.w3.org/2001/xml-events" xmlns:xlink="http://www.w3.org/1999/xlink"><defs /><path d="M1200.51,837.86L1194,832L1194,825L1194,819L1194,832L1194,838L1194,850L1194,863L1201,882L1201,900L1201,913L1207,932L1207,944L1207,957L1213,975L1213,988L1219,1000L1219,1019L1219,1038L1219,1069L1219,1050L1219,1082L1219,1094L1219,1132L1219,1113L1219,1150L1219,1169L1219,1188L1219,1201L1219,1219L1219,1232L1213,1251L1213,1263L1213,1276L1213,1294L1213,1307L1213,1332L1213,1319L1213,1363L1213,1344L1207,1376L1207,1401" fill="none" stroke="#000000" style="-webkit-tap-highlight-color: rgba(0, 0, 0, 0); stroke-linecap: round; stroke-linejoin: round; stroke-width: 17;" /><path d="M1207,1419L1201,1444L1201,1476L1201,1501L1194,1526L1194,1557L1194,1607L1194,1582L1201,1632L1201,1626L1207,1607L1207,1626L1213,1594" fill="none" stroke="#000000" style="-webkit-tap-highlight-color: rgba(0, 0, 0, 0); stroke-linecap: round; stroke-linejoin: round; stroke-width: 17;" /><path d="M1444.36,794.09L1432,794L1426,794L1419,794L1413,800L1407,807L1401,813L1401,819L1394,825L1394,844L1394,857L1394,882L1394,907L1394,938L1394,969L1394,1000L1394,1069L1394,1038L1394,1094L1394,1125L1394,1182L1394,1150L1394,1207L1388,1238L1388,1251L1388,1276L1388,1313L1388,1294L1382,1357L1382,1332" fill="none" stroke="#000000" style="-webkit-tap-highlight-color: rgba(0, 0, 0, 0); stroke-linecap: round; stroke-linejoin: round; stroke-width: 17;" /><path d="M1376,1376L1376,1394L1376,1413L1376,1438L1376,1501L1376,1457L1382,1519L1376,1476L1382,1538L1382,1613L1382,1563L1382,1588L1382,1669L1382,1632L1382,1651L1388,1676L1388,1688L1388,1682L1388,1682" fill="none" stroke="#000000" style="-webkit-tap-highlight-color: rgba(0, 0, 0, 0); stroke-linecap: round; stroke-linejoin: round; stroke-width: 17;" /><path d="M731.56,1062.95L725,1063L719,1063L713,1063L713,1069L713,1075L719,1075L719,1082L719,1088L719,1094L719,1100L719,1107L725,1119L725,1132L725,1138L725,1150L725,1163L725,1175L725,1194L725,1213" fill="none" stroke="#000000" style="-webkit-tap-highlight-color: rgba(0, 0, 0, 0); stroke-linecap: round; stroke-linejoin: round; stroke-width: 17;" /><path d="M719,1251L725,1232L719,1276L713,1294L713,1338L713,1319L707,1362L707,1382L707,1401L707,1419L707,1438L707,1457L707,1482L707,1469L707,1488L707,1501L719,1507L725,1507L713,1507L732,1501" fill="none" stroke="#000000" style="-webkit-tap-highlight-color: rgba(0, 0, 0, 0); stroke-linecap: round; stroke-linejoin: round; stroke-width: 17;" /><path d="M781.58,1031.69" fill="none" stroke="#000000" style="-webkit-tap-highlight-color: rgba(0, 0, 0, 0); stroke-linecap: round; stroke-linejoin: round; stroke-width: 17;" /><path d="M738,1501L738,1494" fill="none" stroke="#000000" style="-webkit-tap-highlight-color: rgba(0, 0, 0, 0); stroke-linecap: round; stroke-linejoin: round; stroke-width: 17;" /><path d="M775,1025L769,1025L763,1025L769,1032L769,1044L769,1050L775,1069L775,1082L775,1100L782,1125L782,1150L782,1182L782,1213L782,1238L782,1269L782,1294L775,1319L775,1338L775,1363L775,1382L782,1413L782,1394L782,1438L782,1457L782,1476L782,1494L775,1519L775,1538" fill="none" stroke="#000000" style="-webkit-tap-highlight-color: rgba(0, 0, 0, 0); stroke-linecap: round; stroke-linejoin: round; stroke-width: 17;" /><path d="M775,1557L775,1576L775,1588L775,1601L775,1607L782,1601" fill="none" stroke="#000000" style="-webkit-tap-highlight-color: rgba(0, 0, 0, 0); stroke-linecap: round; stroke-linejoin: round; stroke-width: 17;" /><path d="M187.58,1538.15L181,1538L175,1544L175,1538L169,1544L169,1551L169,1557L169,1563L169,1544L169,1532L169,1513L175,1501L175,1482L181,1463L181,1451L188,1438L194,1426L200,1407L206,1394L213,1382L219,1369L219,1357L225,1351L225,1344L225,1332L225,1338L225,1319L225,1313L225,1307L231,1294L231,1282L238,1276L238,1263L250,1244L244,1257L250,1238L256,1232L256,1213L256,1219L263,1201" fill="none" stroke="#000000" style="-webkit-tap-highlight-color: rgba(0, 0, 0, 0); stroke-linecap: round; stroke-linejoin: round; stroke-width: 17;" /><path d="M269,1182L263,1194L269,1175L275,1169L275,1163L281,1150L288,1144L294,1132L306,1107L300,1119L294,1125" fill="none" stroke="#000000" style="-webkit-tap-highlight-color: rgba(0, 0, 0, 0); stroke-linecap: round; stroke-linejoin: round; stroke-width: 17;" /><path d="M418.93,969.16L306,1100L313,1082L313,1094L313,1075L313,1063L313,1057L313,1050L313,1032L313,1038L313,1025L419,975L419,982L413,988L406,1000L413,994L400,1007L394,1025L394,1032L388,1057L388,1044L381,1069L381,1082L381,1119L381,1107L381,1094L375,1138L375,1157L369,1188L369,1169L363,1207L356,1226L356,1232L356,1219L356,1244L356,1251L350,1269L356,1257L344,1301L331,1319L350,1282L325,1332L319,1351L306,1401L313,1382L313,1369L306,1413L300,1426L300,1438L300,1444" fill="none" stroke="#000000" style="-webkit-tap-highlight-color: rgba(0, 0, 0, 0); stroke-linecap: round; stroke-linejoin: round; stroke-width: 17;" /><path d="M300,1451L294,1469L300,1457L294,1476L294,1482L288,1494L281,1513L288,1501L281,1519L275,1532L263,1551L256,1563L269,1538L250,1569L244,1576L238,1588L244,1582L238,1594" fill="none" stroke="#000000" style="-webkit-tap-highlight-color: rgba(0, 0, 0, 0); stroke-linecap: round; stroke-linejoin: round; stroke-width: 17;" /><path d="M481.45,950.4" fill="none" stroke="#000000" style="-webkit-tap-highlight-color: rgba(0, 0, 0, 0); stroke-linecap: round; stroke-linejoin: round; stroke-width: 17;" /><path d="M238,1601L244,1601L250,1588L263,1576" fill="none" stroke="#000000" style="-webkit-tap-highlight-color: rgba(0, 0, 0, 0); stroke-linecap: round; stroke-linejoin: round; stroke-width: 17;" /><path d="M469,969L475,957L481,957L463,982L456,1032L456,1007L463,994L456,1013L450,1100L450,1075L456,1057L450,1125L450,1150L450,1194L450,1169L450,1213L450,1232L450,1251L456,1288L450,1269L456,1326L456,1307L456,1338L463,1357" fill="none" stroke="#000000" style="-webkit-tap-highlight-color: rgba(0, 0, 0, 0); stroke-linecap: round; stroke-linejoin: round; stroke-width: 17;" /><path d="M463,1369L463,1388L463,1419L463,1401L463,1432L463,1451L456,1469L456,1482L450,1519L450,1501L450,1538L444,1551L444,1563L444,1576L444,1594L444,1588L444,1607L444,1613" fill="none" stroke="#000000" style="-webkit-tap-highlight-color: rgba(0, 0, 0, 0); stroke-linecap: round; stroke-linejoin: round; stroke-width: 17;" /><path d="M337.64,987.92" fill="none" stroke="#000000" style="-webkit-tap-highlight-color: rgba(0, 0, 0, 0); stroke-linecap: round; stroke-linejoin: round; stroke-width: 17;" /><path d="M444,1619L444,1626L444,1632L444,1638" fill="none" stroke="#000000" style="-webkit-tap-highlight-color: rgba(0, 0, 0, 0); stroke-linecap: round; stroke-linejoin: round; stroke-width: 17;" /><path d="M331,988L325,982L319,982L331,988L344,988L363,994L381,994L400,994" fill="none" stroke="#000000" style="-webkit-tap-highlight-color: rgba(0, 0, 0, 0); stroke-linecap: round; stroke-linejoin: round; stroke-width: 17;" /><path d="M419,988L431,988L438,988L444,988L450,994" fill="none" stroke="#000000" style="-webkit-tap-highlight-color: rgba(0, 0, 0, 0); stroke-linecap: round; stroke-linejoin: round; stroke-width: 17;" /><path d="M481.45,1569.42L469,1557L463,1557L475,1563L463,1563L469,1569L481,1576L494,1582L506,1582L525,1582" fill="none" stroke="#000000" style="-webkit-tap-highlight-color: rgba(0, 0, 0, 0); stroke-linecap: round; stroke-linejoin: round; stroke-width: 17;" /><path d="M563,1569L581,1563L544,1576L594,1563L619,1569L613,1563L607,1563L625,1569L638,1569" fill="none" stroke="#000000" style="-webkit-tap-highlight-color: rgba(0, 0, 0, 0); stroke-linecap: round; stroke-linejoin: round; stroke-width: 17;" /><path d="M462.7,1650.7L450,1651L456,1651L444,1651L438,1651L431,1651L431,1657L444,1657L456,1657L475,1651L506,1644L531,1644L538,1638L632,1619L575,1632L607,1626L650,1619L669,1613L694,1613L707,1613" fill="none" stroke="#000000" style="-webkit-tap-highlight-color: rgba(0, 0, 0, 0); stroke-linecap: round; stroke-linejoin: round; stroke-width: 17;" /><path d="M719,1607L738,1594L750,1588L725,1607L757,1588L763,1582L757,1582" fill="none" stroke="#000000" style="-webkit-tap-highlight-color: rgba(0, 0, 0, 0); stroke-linecap: round; stroke-linejoin: round; stroke-width: 17;" /><path d="M50.02,1681.96L50,1688L44,1694L50,1701L63,1701L81,1701L106,1694L138,1688L175,1676L219,1663L256,1651" fill="none" stroke="#000000" style="-webkit-tap-highlight-color: rgba(0, 0, 0, 0); stroke-linecap: round; stroke-linejoin: round; stroke-width: 17;" /><path d="M281,1644L306,1644L319,1644L331,1651L344,1657L338,1651" fill="none" stroke="#000000" style="-webkit-tap-highlight-color: rgba(0, 0, 0, 0); stroke-linecap: round; stroke-linejoin: round; stroke-width: 17;" /><path d="M37.52,1481.88L38,1488L38,1494L38,1501L38,1507L44,1513L56,1519" fill="none" stroke="#000000" style="-webkit-tap-highlight-color: rgba(0, 0, 0, 0); stroke-linecap: round; stroke-linejoin: round; stroke-width: 17;" /><path d="M69,1519L100,1513L125,1507L156,1494L181,1488L175,1488" fill="none" stroke="#000000" style="-webkit-tap-highlight-color: rgba(0, 0, 0, 0); stroke-linecap: round; stroke-linejoin: round; stroke-width: 17;" /><path d="M0,912.89" fill="none" stroke="#000000" style="-webkit-tap-highlight-color: rgba(0, 0, 0, 0); stroke-linecap: round; stroke-linejoin: round; stroke-width: 17;" /><path d="M18.76,869.12L68,847L49,857L75,825L81,825L113,800L94,813L125,794L138,794L156,788L175,782L206,775L188,775L223,785L242,778L268,768L250,776L277,765L288,763L298,761L317,756L331,753L350,750L381,749L375,748L413,732L400,738L444,725L425,732L456,725L469,725L481,725L494,725L500,725L513,725L534,734L550,725L539,732L569,721L563,723L612,712L581,720L600,716L593,718L623,705L635,697L644,694L653,693L688,685L662,690L698,683L672,687L732,679L713,681L757,679L744,678L769,673L782,671L800,669L813,669L832,665L844,664L857,659L863,658L873,657L888,652L894,650L906,644L919,641L938,625L944,619L925,640L957,607L963,600L982,588L975,594L994,581L988,588L1007,575L1013,569L1025,556L1042,544L1040,550L1038,555L1053,538L1063,525L1055,537L1050,522L1069,519L1069,513L1075,506L1075,500L1064,485L1073,470L1078,463L1066,480L1081,461L1083,457L1089,440L1091,431L1089,444L1092,421L1088,412L1087,406L1091,425L1087,399L1098,390L1094,394L1104,385L1110,383L1123,376L1132,374L1144,371L1189,375L1173,384L1170,384L1200,377L1229,377L1205,377L1205,377L1229,377L1233,377L1233,377L1232,377L1251,388L1263,388L1288,381L1301,369L1310,370L1336,367L1282,381L1319,371L1269,388L1347,361L1339,365L1375,351L1362,355L1386,348L1398,342L1408,339L1408,339L1430,334L1436,333L1457,344L1469,338L1483,332L1493,322L1485,331L1507,325L1519,319L1538,313L1532,313L1526,319L1538,295L1557,300L1551,306L1576,296L1581,296L1583,277L1601,288L1613,288L1615,273L1632,271L1642,273L1576,296L1659,275L1645,274L1663,275L1677,279L1669,275L1682,282L1688,283L1701,285L1709,285L1694,286L1716,288L1719,288L1726,287L1732,286L1740,289L1754,297L1760,302L1748,292L1766,306L1773,314L1781,326L1776,319L1784,329L1791,341L1796,348L1792,343L1795,363L1812,363L1819,369L1822,371L1801,363L1837,378L1870,369L1852,379L1849,378L1882,363L1895,356L1888,363L1876,363L1909,352L1917,342L1906,356L1927,340L1938,344L1948,332L1938,344L1959,329L1967,328L1976,326L1992,321L1979,325L1995,321L1998,320L1998,320L2012,314L2012,314L2020,310L2017,312L2024,308L2030,306L2045,302L2031,305L2061,302L2055,302L2084,303L2074,302L2090,305L2101,305L2110,306L2126,319L2132,319L2112,306L2138,325L2145,331L2163,338L2157,331L2188,344L2176,344L2201,350L2213,350L2226,356L2232,356L2251,356L2238,356L2257,356L2270,363L2288,363L2282,363L2301,369L2295,369L2313,369L2320,375L2326,375L2338,375L2351,375L2345,375L2370,375L2382,375L2389,375L2364,375L2395,369L2407,369L2401,369L2414,369L2420,369L2426,363L2432,363L2449,353L2455,363L2464,371L2451,355L2459,368L2470,373L2490,379L2481,375L2473,374L2505,385L2515,389L2499,383L2505,385L2521,392L2528,395L2544,400L2539,397L2560,406L2577,414L2549,403L2570,412L2589,439L2622,436L2590,440L2590,440L2629,440L2639,444L2635,443L2623,437L2662,453L2669,458L2655,450L2672,460L2675,464L2687,476L2687,476L2679,470L2709,491L2714,475L2726,481L2694,481L2732,488L2751,494L2745,488L2757,494L2764,500L2776,513L2770,506L2782,528L2790,527L2789,528L2789,528L2795,544" fill="none" stroke="#000000" style="-webkit-tap-highlight-color: rgba(0, 0, 0, 0); stroke-linecap: round; stroke-linejoin: round; stroke-width: 17;" /><path d="M2795,550" fill="none" stroke="#000000" style="-webkit-tap-highlight-color: rgba(0, 0, 0, 0); stroke-linecap: round; stroke-linejoin: round; stroke-width: 17;" /><path d="M3532.75,581.5" fill="none" stroke="#000000" style="-webkit-tap-highlight-color: rgba(0, 0, 0, 0); stroke-linecap: round; stroke-linejoin: round; stroke-width: 17;" /><path d="M2795,575L2795,563L2795,569L2795,581L2795,588L2807,600L2801,594L2814,600L2832,600L2820,607L2826,607L2845,600L2882,594L2857,600L2895,588L2870,594L2932,589L2907,588L2925,588L2922,585L2939,607L2939,589L2939,589L2936,590L2945,625L2951,625L2945,619L2945,613L2951,632L2964,632L2962,632L2962,632L2983,634L2992,633L2989,634L2970,633L3033,650L3014,633L3019,633L3045,640L3075,663L3069,658L3057,644L3067,655L3079,666L3082,673L3084,678L3101,685L3101,685L3112,688L3113,689L3122,694L3126,696L3128,698L3145,688L3151,688L3158,688L3164,688L3177,688L3177,688L3177,688L3178,695L3179,708L3178,700L3179,713L3179,719L3179,725L3180,732L3181,744L3182,750L3172,758L3176,763L3179,766L3172,758L3181,748L3176,763L3180,735L3178,707L3179,725L3174,657L3177,683L3172,640L3183,619L3183,607L3183,594L3183,588L3180,570L3188,568L3194,567L3201,566L3208,566L3226,564L3221,564L3241,562L3283,564L3261,562L3251,562L3295,565L3308,564L3320,564L3339,575L3351,581L3364,581L3383,588L3408,588L3395,588L3439,588L3420,588L3451,588L3464,588L3476,581L3508,572L3495,573L3492,573L3520,571L3533,572L3530,572L3514,572L3495,588L3537,571" fill="none" stroke="#000000" style="-webkit-tap-highlight-color: rgba(0, 0, 0, 0); stroke-linecap: round; stroke-linejoin: round; stroke-width: 17;" /><path d="M3101.31,1119.22L3095,1138L3095,1125L3089,1144L3089,1163L3083,1175L3083,1188L3083,1207L3089,1226L3095,1238L3108,1257L3114,1276L3126,1294L3133,1313L3139,1332L3139,1351L3139,1363L3145,1388L3145,1376L3151,1401L3151,1407L3151,1419L3151,1432L3151,1426L3158,1444L3158,1457L3158,1476L3158,1488L3158,1501L3158,1513L3164,1526L3164,1538L3164,1551L3164,1588L3164,1576L3164,1563L3164,1601L3164,1619L3164,1632" fill="none" stroke="#000000" style="-webkit-tap-highlight-color: rgba(0, 0, 0, 0); stroke-linecap: round; stroke-linejoin: round; stroke-width: 17;" /><path d="M3164,1638L3164,1644L3164,1651L3170,1657L3170,1663L3170,1669L3176,1676L3176,1682L3176,1688L3176,1694L3183,1694L3183,1701" fill="none" stroke="#000000" style="-webkit-tap-highlight-color: rgba(0, 0, 0, 0); stroke-linecap: round; stroke-linejoin: round; stroke-width: 17;" /><path d="M3357.67,1144.23" fill="none" stroke="#000000" style="-webkit-tap-highlight-color: rgba(0, 0, 0, 0); stroke-linecap: round; stroke-linejoin: round; stroke-width: 17;" /><path d="M3195,1694L3189,1701L3201,1694" fill="none" stroke="#000000" style="-webkit-tap-highlight-color: rgba(0, 0, 0, 0); stroke-linecap: round; stroke-linejoin: round; stroke-width: 17;" /><path d="M3358,1150L3364,1163L3370,1182L3376,1201L3389,1219L3401,1251L3395,1232L3408,1263L3414,1282L3414,1319L3420,1326L3414,1307L3420,1344L3426,1357L3433,1407L3433,1388L3426,1376L3439,1438L3439,1476L3439,1426L3439,1457L3439,1538L3439,1494L3439,1513L3439,1557" fill="none" stroke="#000000" style="-webkit-tap-highlight-color: rgba(0, 0, 0, 0); stroke-linecap: round; stroke-linejoin: round; stroke-width: 17;" /><path d="M3439,1576L3439,1626L3439,1644L3439,1601L3439,1663L3439,1657L3433,1657L3433,1663L3433,1632L3433,1644L3433,1613L3439,1594L3451.46,1550.66L3445,1551L3439,1557L3439,1563L3433,1569L3433,1582L3433,1594L3433,1613L3433,1632L3433,1657L3433,1682L3426,1701L3426,1719L3420,1732L3420,1744" fill="none" stroke="#000000" style="-webkit-tap-highlight-color: rgba(0, 0, 0, 0); stroke-linecap: round; stroke-linejoin: round; stroke-width: 17;" /><path d="M3420,1757L3426,1757L3433,1757L3439,1744L3445,1726" fill="none" stroke="#000000" style="-webkit-tap-highlight-color: rgba(0, 0, 0, 0); stroke-linecap: round; stroke-linejoin: round; stroke-width: 17;" /><path d="M3245.13,1075.46L3258,1063L3264,1057L3283,1044L3295,1038L3319,1024L3320,1024L3308,1032L3332,1035L3332,1036L3332,1036L3326,1050L3314,1050L3295,1050L3276,1050L3270,1050L3245,1057L3201,1075L3220,1069L3189,1088L3183,1094L3183,1107L3183,1113L3183,1125L3189,1144L3183,1138L3195,1150L3208,1157L3233,1157L3264,1157L3301,1150L3339,1144L3389,1125L3401,1119L3370,1132L3401,1107" fill="none" stroke="#000000" style="-webkit-tap-highlight-color: rgba(0, 0, 0, 0); stroke-linecap: round; stroke-linejoin: round; stroke-width: 17;" /><path d="M3339,1082L3395,1100L3370,1088L3295,1075L3251,1069L3226,1069L3214,1069L3208,1075L3208,1088L3214,1088" fill="none" stroke="#000000" style="-webkit-tap-highlight-color: rgba(0, 0, 0, 0); stroke-linecap: round; stroke-linejoin: round; stroke-width: 17;" /><path d="M2507.31,756.57L2507,732L2507,738L2514,725L2514,719L2514,707L2514,694L2507,688L2501,675L2489,650L2495,663L2482,632L2489,644L2482,625L2489,613L2495,600L2495,594L2501,600L2501,588L2507,632L2514,675L2520,769L2520,719L2511,809L2520,863L2520,894L2520,925L2520,950L2520,975L2520,1000L2520,1025L2526,1050L2526,1069L2526,1088L2532,1132L2526,1113L2540,1154L2532,1226L2532,1251L2532,1207L2532,1182" fill="none" stroke="#000000" style="-webkit-tap-highlight-color: rgba(0, 0, 0, 0); stroke-linecap: round; stroke-linejoin: round; stroke-width: 17;" /><path d="M2546,1279L2546,1279L2545,1326L2545,1307L2551,1401L2560,1375L2551,1363L2551,1344L2551,1419L2551,1432L2556,1461L2557,1444L2557,1476L2557,1463L2564,1482L2564,1488L2564,1494L2564,1488" fill="none" stroke="#000000" style="-webkit-tap-highlight-color: rgba(0, 0, 0, 0); stroke-linecap: round; stroke-linejoin: round; stroke-width: 17;" /><path d="M1825.77,769.08L1813,769L1808,753L1808,753L1795,763L1795,782L1795,769L1801,800L1801,838L1807,875L1807,925L1807,969L1813,1007L1813,1038L1820,1069L1820,1100L1826,1125L1826,1157L1832,1188L1832,1219L1832,1251L1832,1269L1832,1282L1826,1307L1826,1338L1826,1401L1826,1369L1826,1426L1832,1451L1838,1494L1832,1469L1845,1507" fill="none" stroke="#000000" style="-webkit-tap-highlight-color: rgba(0, 0, 0, 0); stroke-linecap: round; stroke-linejoin: round; stroke-width: 17;" /><path d="M1845,1519L1851,1563L1851,1538L1851,1582L1851,1601L1857,1607L1857,1601L1851,1607L1857,1588" fill="none" stroke="#000000" style="-webkit-tap-highlight-color: rgba(0, 0, 0, 0); stroke-linecap: round; stroke-linejoin: round; stroke-width: 17;" /><path d="M1969.58,737.81L1963,732L1957,725L1957,732L1957,719L1957,725L1957,738L1963,750L1963,769L1970,794L1970,800L1982,844L1988,888L2001,925L2007,963L2020,1000L2032,1075L2026,1044L2032,1113L2038,1150L2038,1175L2038,1188L2038,1257L2038,1226L2045,1288L2051,1319L2051,1344L2057,1382L2063,1413L2063,1444L2063,1476L2070,1507L2070,1551L2070,1526" fill="none" stroke="#000000" style="-webkit-tap-highlight-color: rgba(0, 0, 0, 0); stroke-linecap: round; stroke-linejoin: round; stroke-width: 17;" /><path d="M2070,1576L2076,1594L2076,1657L2076,1638L2076,1619L2076,1663L2076,1669L2082,1657L2082,1644" fill="none" stroke="#000000" style="-webkit-tap-highlight-color: rgba(0, 0, 0, 0); stroke-linecap: round; stroke-linejoin: round; stroke-width: 17;" /><path d="M1137.98,1669.46L1138,1676L1132,1663L1125,1657L1119,1657L1119,1651L1132,1657L1150,1657L1169,1663L1201,1663L1232,1669L1257,1669L1269,1676L1276,1676L1301,1682L1332,1682L1313,1682L1344,1682L1363,1682L1382,1682L1394,1676" fill="none" stroke="#000000" style="-webkit-tap-highlight-color: rgba(0, 0, 0, 0); stroke-linecap: round; stroke-linejoin: round; stroke-width: 17;" /><path d="M1407,1669L1419,1663L1438,1644L1426,1651L1438,1638L1438,1632" fill="none" stroke="#000000" style="-webkit-tap-highlight-color: rgba(0, 0, 0, 0); stroke-linecap: round; stroke-linejoin: round; stroke-width: 17;" /><path d="M1106.72,1744.49L1100,1742" fill="none" stroke="#000000" style="-webkit-tap-highlight-color: rgba(0, 0, 0, 0); stroke-linecap: round; stroke-linejoin: round; stroke-width: 17;" /><path d="M1432,1644L1438,1638" fill="none" stroke="#000000" style="-webkit-tap-highlight-color: rgba(0, 0, 0, 0); stroke-linecap: round; stroke-linejoin: round; stroke-width: 17;" /><path d="M1107,1742L1100,1742L1125,1743L1154,1746L1112,1742L1238,1792L1216,1792L1188,1769L1169,1757" fill="none" stroke="#000000" style="-webkit-tap-highlight-color: rgba(0, 0, 0, 0); stroke-linecap: round; stroke-linejoin: round; stroke-width: 17;" /><path d="M1376,1751L1301,1769L1338,1757L1260,1783L1432,1744L1401,1744L1438,1744L1426,1744L1438,1738" fill="none" stroke="#000000" style="-webkit-tap-highlight-color: rgba(0, 0, 0, 0); stroke-linecap: round; stroke-linejoin: round; stroke-width: 17;" /><path d="M1463.12,1350.57L1451,1351L1444,1351L1444,1357L1444,1369L1444,1382L1451,1401L1457,1426L1457,1457L1463,1488L1469,1519L1476,1544L1482,1569" fill="none" stroke="#000000" style="-webkit-tap-highlight-color: rgba(0, 0, 0, 0); stroke-linecap: round; stroke-linejoin: round; stroke-width: 17;" /><path d="M1482,1588L1488,1594L1488,1610L1488,1582L1488,1557L1488,1544" fill="none" stroke="#000000" style="-webkit-tap-highlight-color: rgba(0, 0, 0, 0); stroke-linecap: round; stroke-linejoin: round; stroke-width: 17;" /><path d="M1463.12,1350.57L1457,1351L1444,1344L1451,1351L1451,1344L1463,1338L1488,1326L1476,1332L1501,1319L1507,1307" fill="none" stroke="#000000" style="-webkit-tap-highlight-color: rgba(0, 0, 0, 0); stroke-linecap: round; stroke-linejoin: round; stroke-width: 17;" /><path d="M1519,1277L1513,1307L1529,1267L1539,1257L1564,1244L1553,1247L1565,1237L1594.43,1231.77L1579,1248L1579,1248L1584,1247L1607,1251L1619,1263L1638,1282L1650,1305L1677,1318L1682,1344L1688,1357" fill="none" stroke="#000000" style="-webkit-tap-highlight-color: rgba(0, 0, 0, 0); stroke-linecap: round; stroke-linejoin: round; stroke-width: 17;" /><path d="M1690,1370L1707,1376L1713,1376L1719,1369L1700.72,1363.08L1690,1370L1688,1369L1681,1368L1682,1369L1682,1369L1690,1371L1669,1402L1667,1408L1682,1451" fill="none" stroke="#000000" style="-webkit-tap-highlight-color: rgba(0, 0, 0, 0); stroke-linecap: round; stroke-linejoin: round; stroke-width: 17;" /><path d="M1688,1469L1688,1494L1694,1540L1694,1519L1704,1561L1704,1561L1705,1562L1704,1561" fill="none" stroke="#000000" style="-webkit-tap-highlight-color: rgba(0, 0, 0, 0); stroke-linecap: round; stroke-linejoin: round; stroke-width: 17;" /><path d="M1738.24,1782.01L1742,1784L1757,1776L1744,1784L1782,1769L1807,1763L1826,1757L1845,1751" fill="none" stroke="#000000" style="-webkit-tap-highlight-color: rgba(0, 0, 0, 0); stroke-linecap: round; stroke-linejoin: round; stroke-width: 17;" /><path d="M1851,1744L1845,1738L1851,1738L1813.27,1731.98L1807,1732L1801,1732L1801,1726L1801,1707L1807,1663L1801,1688L1813,1638" fill="none" stroke="#000000" style="-webkit-tap-highlight-color: rgba(0, 0, 0, 0); stroke-linecap: round; stroke-linejoin: round; stroke-width: 17;" /><path d="M1820,1626L1826,1619L1826,1613L1826,1619L1832,1632L1832.03,1688.22L1826,1694L1826,1688L1851,1688L1882,1682L1907,1682L1932,1676" fill="none" stroke="#000000" style="-webkit-tap-highlight-color: rgba(0, 0, 0, 0); stroke-linecap: round; stroke-linejoin: round; stroke-width: 17;" /><path d="M1957,1676L1976,1676L1982,1676L1988,1676L2007.1,1669.46L2007,1676L2007,1682L2007,1701L2007,1719L2013,1744L2013,1769" fill="none" stroke="#000000" style="-webkit-tap-highlight-color: rgba(0, 0, 0, 0); stroke-linecap: round; stroke-linejoin: round; stroke-width: 17;" /><path d="M2020,1807L2017,1787L2020,1813L2019.61,1763.25L2007,1763L2001,1763L1988,1763L1963,1763L1820,1776L1895,1769L1932,1763L1850,1776" fill="none" stroke="#000000" style="-webkit-tap-highlight-color: rgba(0, 0, 0, 0); stroke-linecap: round; stroke-linejoin: round; stroke-width: 17;" /><path d="M1795,1782L1807,1776L1801,1782L1795,1788L1813,1795L1801,1795" fill="none" stroke="#000000" style="-webkit-tap-highlight-color: rgba(0, 0, 0, 0); stroke-linecap: round; stroke-linejoin: round; stroke-width: 17;" /><path d="M2013.35,1675.71L2007,1676L1995,1682L1988,1682L1995,1682L2007,1682L2026,1676" fill="none" stroke="#000000" style="-webkit-tap-highlight-color: rgba(0, 0, 0, 0); stroke-linecap: round; stroke-linejoin: round; stroke-width: 17;" /><path d="M2057,1669L2126,1656L2082,1663L2107,1655L2150.91,1650.7L2132,1644L2138,1644L2145,1657L2138,1669L2145,1682L2145,1701L2157,1719" fill="none" stroke="#000000" style="-webkit-tap-highlight-color: rgba(0, 0, 0, 0); stroke-linecap: round; stroke-linejoin: round; stroke-width: 17;" /><path d="M2163,1757L2166,1734L2170,1769L2170,1776L2176,1776L2176,1769" fill="none" stroke="#000000" style="-webkit-tap-highlight-color: rgba(0, 0, 0, 0); stroke-linecap: round; stroke-linejoin: round; stroke-width: 17;" /><path d="M1988.34,1825.77L1995,1820L2001,1813L2007,1813L2026,1807L2057,1807L2089,1807L2113,1801" fill="none" stroke="#000000" style="-webkit-tap-highlight-color: rgba(0, 0, 0, 0); stroke-linecap: round; stroke-linejoin: round; stroke-width: 17;" /><path d="M2131,1801L2151,1788L2176,1776L2170,1782L2182,1776L2188,1769" fill="none" stroke="#000000" style="-webkit-tap-highlight-color: rgba(0, 0, 0, 0); stroke-linecap: round; stroke-linejoin: round; stroke-width: 17;" /><path d="M2388.51,1725.73L2389,1719L2382,1719L2382,1713L2382,1707L2389,1694L2382,1701L2414,1688L2401,1694L2432,1682L2470,1663L2451,1669L2495,1657L2520,1657L2570,1651L2545,1651L2589,1651L2595,1644L2682,1644L2626,1644L2651,1644L2707,1651L2757,1651L2732,1651L2782,1651L2807,1651L2851,1657L2832,1651L2870,1657L2889,1657L2939,1663L2920,1663L2951,1663L2907,1657L2964,1663L2983,1663L2995,1663L3001,1663L3045,1663L3020,1663" fill="none" stroke="#000000" style="-webkit-tap-highlight-color: rgba(0, 0, 0, 0); stroke-linecap: round; stroke-linejoin: round; stroke-width: 17;" /><path d="M3051,1663L3033,1663L3076,1663L3083,1663L3064,1663L3095,1663L3101,1663L3108,1663L3114,1663L3120,1663L3120,1657L3101,1644L3108,1651" fill="none" stroke="#000000" style="-webkit-tap-highlight-color: rgba(0, 0, 0, 0); stroke-linecap: round; stroke-linejoin: round; stroke-width: 17;" /><path d="M2413.52,1613.18L2407,1619L2401,1619L2395,1619L2389,1619L2395,1619L2426,1619L2407,1619L2445,1619L2464,1619L2495,1619L2514,1619L2526,1619L2551,1619L2607,1619L2582,1619L2632,1619L2657,1619L2684,1611L2720,1612L2699,1611L2739,1601L2795,1601L2776,1601L2757,1601L2814,1601" fill="none" stroke="#000000" style="-webkit-tap-highlight-color: rgba(0, 0, 0, 0); stroke-linecap: round; stroke-linejoin: round; stroke-width: 17;" /><path d="M2845,1601L2856,1602L2842,1602L2876,1601L2895,1601L2932,1601L2918,1590L2958,1601" fill="none" stroke="#000000" style="-webkit-tap-highlight-color: rgba(0, 0, 0, 0); stroke-linecap: round; stroke-linejoin: round; stroke-width: 17;" /><path d="M2582.34,1550.66" fill="none" stroke="#000000" style="-webkit-tap-highlight-color: rgba(0, 0, 0, 0); stroke-linecap: round; stroke-linejoin: round; stroke-width: 17;" /><path d="M2976,1601L3001,1601L3020,1601L3033,1601L3045,1601L3064,1594L3051,1601L3070,1594L3083,1588L3089,1582L3089,1576L3089,1569L3083,1569L3058,1569" fill="none" stroke="#000000" style="-webkit-tap-highlight-color: rgba(0, 0, 0, 0); stroke-linecap: round; stroke-linejoin: round; stroke-width: 17;" /><path d="M2564,1551L2545,1551L2532,1544L2526,1544L2539,1544L2532,1544L2551,1544L2570,1538L2595,1538L2620,1532L2664,1526L2701,1526L2739,1526L2763,1535L2764,1535L2789,1526L2814,1535L2844,1533L2832,1535L2876,1526" fill="none" stroke="#000000" style="-webkit-tap-highlight-color: rgba(0, 0, 0, 0); stroke-linecap: round; stroke-linejoin: round; stroke-width: 17;" /><path d="M2895,1526L2958,1526L2914,1524L2945,1526L2976,1526L2995,1526L3026,1519L3008,1526L3039,1519L3058,1519" fill="none" stroke="#000000" style="-webkit-tap-highlight-color: rgba(0, 0, 0, 0); stroke-linecap: round; stroke-linejoin: round; stroke-width: 17;" /><path d="M2619.86,1463.12" fill="none" stroke="#000000" style="-webkit-tap-highlight-color: rgba(0, 0, 0, 0); stroke-linecap: round; stroke-linejoin: round; stroke-width: 17;" /><path d="M3070,1519L3083,1519L3089,1519L3095,1519L3070,1526L3089,1519L3064,1526" fill="none" stroke="#000000" style="-webkit-tap-highlight-color: rgba(0, 0, 0, 0); stroke-linecap: round; stroke-linejoin: round; stroke-width: 17;" /><path d="M2624,1456L2624,1456L2601,1457L2607,1457L2624,1456L2625,1457L2632,1458L2657,1460L2695,1460L2770,1459L2739,1460L2826,1460L2801,1460L2851,1460L2876,1460L2914,1476L2901,1461L2951,1459L2932,1476" fill="none" stroke="#000000" style="-webkit-tap-highlight-color: rgba(0, 0, 0, 0); stroke-linecap: round; stroke-linejoin: round; stroke-width: 17;" /><path d="M2970,1460L2988,1459L3016,1458L3001,1459L3045,1457L3033,1457L3058,1456L3070,1456L3083,1456L3076,1456" fill="none" stroke="#000000" style="-webkit-tap-highlight-color: rgba(0, 0, 0, 0); stroke-linecap: round; stroke-linejoin: round; stroke-width: 17;" /><path d="M2632.37,587.75L2626,588L2632,600L2639,613L2645,625L2645,650L2651,675L2657,707L2664,738L2670,757L2670,750L2670,782L2670,807L2670,838L2670,825L2670,857L2676,875L2676,900L2682,919L2689,957L2689,944L2695,1000L2695,1044L2689,975L2695,1019L2689,1100L2689,1075L2689,1125L2689,1144L2695,1194L2695,1213L2689,1163L2689,1175L2701,1251L2701,1294L2701,1269L2701,1232" fill="none" stroke="#000000" style="-webkit-tap-highlight-color: rgba(0, 0, 0, 0); stroke-linecap: round; stroke-linejoin: round; stroke-width: 17;" /><path d="M2707,1357L2707,1338L2701,1313L2707,1376L2714,1426L2707,1394L2714,1413L2720,1438L2720,1461L2720,1444L2726,1461L2732,1460" fill="none" stroke="#000000" style="-webkit-tap-highlight-color: rgba(0, 0, 0, 0); stroke-linecap: round; stroke-linejoin: round; stroke-width: 17;" /><path d="M2757.42,869.12" fill="none" stroke="#000000" style="-webkit-tap-highlight-color: rgba(0, 0, 0, 0); stroke-linecap: round; stroke-linejoin: round; stroke-width: 17;" /><path d="M2732,1444L2745,1407L2739,1432" fill="none" stroke="#000000" style="-webkit-tap-highlight-color: rgba(0, 0, 0, 0); stroke-linecap: round; stroke-linejoin: round; stroke-width: 17;" /><path d="M2751,869L2764,869L2776,863L2795,863L2826,863L2857,863L2890,861L2914,863L2939,863L2964,863L2983,863L3020,869L3001,863L3039,875L3051,882L3058,882L3070,882L3083,882L3089,882L3095,882L3108,875L3101,882L3108,869L3120,844L3114,857L3126,832L3133,819" fill="none" stroke="#000000" style="-webkit-tap-highlight-color: rgba(0, 0, 0, 0); stroke-linecap: round; stroke-linejoin: round; stroke-width: 17;" /><path d="M3158,813L3151,813L3145,813L3158,825L3176,844L3164,832L3183,857L3201,882L3195,863L3201,875L3226.37,900.38L3226,913L3226,944L3226,982" fill="none" stroke="#000000" style="-webkit-tap-highlight-color: rgba(0, 0, 0, 0); stroke-linecap: round; stroke-linejoin: round; stroke-width: 17;" /><path d="M3226,1013L3219,1029L3226,1033L3226,1063L3233,1075L3239,1082" fill="none" stroke="#000000" style="-webkit-tap-highlight-color: rgba(0, 0, 0, 0); stroke-linecap: round; stroke-linejoin: round; stroke-width: 17;" /><path d="M3107.57,1725.73L3101,1726L3095,1719L3089,1719L3083,1719L3083,1726L3095,1726L3139,1726L3114,1726L3214,1726L3158,1726L3283,1726L3339,1713" fill="none" stroke="#000000" style="-webkit-tap-highlight-color: rgba(0, 0, 0, 0); stroke-linecap: round; stroke-linejoin: round; stroke-width: 17;" /><path d="M3376,1713L3395,1713L3401,1713L3395,1719L3376,1738L3370,1738" fill="none" stroke="#000000" style="-webkit-tap-highlight-color: rgba(0, 0, 0, 0); stroke-linecap: round; stroke-linejoin: round; stroke-width: 17;" /><path d="M3113.82,1844.53L3101,1845L3095,1851L3089,1851L3089,1857L3095,1863L3108,1863L3139,1870L3195,1870L3264,1863L3320,1857L3351,1857" fill="none" stroke="#000000" style="-webkit-tap-highlight-color: rgba(0, 0, 0, 0); stroke-linecap: round; stroke-linejoin: round; stroke-width: 17;" /><path d="M3358,1857L3364,1857L3358,1857L3314,1851L3345,1851" fill="none" stroke="#000000" style="-webkit-tap-highlight-color: rgba(0, 0, 0, 0); stroke-linecap: round; stroke-linejoin: round; stroke-width: 17;" /><path d="M2970.01,1925.82L2945,1926L2939,1926L2958,1926L2945,1926L3017,1925L3079,1930L3158,1926L3226,1926L3283,1926L3308,1926L3326,1926" fill="none" stroke="#000000" style="-webkit-tap-highlight-color: rgba(0, 0, 0, 0); stroke-linecap: round; stroke-linejoin: round; stroke-width: 17;" /><path d="M3333,1926L3339,1926L3339,1920L3345,1920" fill="none" stroke="#000000" style="-webkit-tap-highlight-color: rgba(0, 0, 0, 0); stroke-linecap: round; stroke-linejoin: round; stroke-width: 17;" /><path d="M3038.79,1731.98L3045,1726L3045,1719L3045,1726L3045,1732L3045,1738L3039,1757L3039,1769L3033,1788L3026,1807L3020,1826L3014,1838L3008,1845L3001,1851L2995,1851L2976,1857L2989,1851L2964,1857L2951,1863L2939,1863L2920,1870L2926,1870L2914,1876L2908,1909L2914,1882L2901,1889" fill="none" stroke="#000000" style="-webkit-tap-highlight-color: rgba(0, 0, 0, 0); stroke-linecap: round; stroke-linejoin: round; stroke-width: 17;" /><path d="M2907,1926L2914,1945L2920,1945L2914,1938L2926,1945L2932,1938" fill="none" stroke="#000000" style="-webkit-tap-highlight-color: rgba(0, 0, 0, 0); stroke-linecap: round; stroke-linejoin: round; stroke-width: 17;" /><path d="M969.16,1581.92L957,1576L944,1569L932,1563L925,1563L919,1563L919,1557L925,1557L944,1551L982,1544L1032,1532L1088,1519L1119,1513" fill="none" stroke="#000000" style="-webkit-tap-highlight-color: rgba(0, 0, 0, 0); stroke-linecap: round; stroke-linejoin: round; stroke-width: 17;" /><path d="M1138,1519L1138,1513L1132,1519" fill="none" stroke="#000000" style="-webkit-tap-highlight-color: rgba(0, 0, 0, 0); stroke-linecap: round; stroke-linejoin: round; stroke-width: 17;" /><path d="M475.2,1406.85L469,1407L469,1401L469,1394L488,1388L513,1388L557,1388L607,1388L644,1388" fill="none" stroke="#000000" style="-webkit-tap-highlight-color: rgba(0, 0, 0, 0); stroke-linecap: round; stroke-linejoin: round; stroke-width: 17;" /><path d="M688,1394L669,1388" fill="none" stroke="#000000" style="-webkit-tap-highlight-color: rgba(0, 0, 0, 0); stroke-linecap: round; stroke-linejoin: round; stroke-width: 17;" /><path d="M43.77,1425.6L31,1426L38,1426L31,1419" fill="none" stroke="#000000" style="-webkit-tap-highlight-color: rgba(0, 0, 0, 0); stroke-linecap: round; stroke-linejoin: round; stroke-width: 17;" /><path d="M38,1419L56,1413L81,1407L100,1407L119,1401L125,1401L56.27,1500.64L56,1507L69,1507" fill="none" stroke="#000000" style="-webkit-tap-highlight-color: rgba(0, 0, 0, 0); stroke-linecap: round; stroke-linejoin: round; stroke-width: 17;" /><path d="M94,1513L125,1513L175,1507L156,1507" fill="none" stroke="#000000" style="-webkit-tap-highlight-color: rgba(0, 0, 0, 0); stroke-linecap: round; stroke-linejoin: round; stroke-width: 17;" /><path d="M1688.22,1581.92L1676,1576L1692,1592L1669,1576L1663,1569L1676,1569L1704,1561" fill="none" stroke="#000000" style="-webkit-tap-highlight-color: rgba(0, 0, 0, 0); stroke-linecap: round; stroke-linejoin: round; stroke-width: 17;" /><path d="M1705,1562L1727,1569L1732,1572L1751,1569L1757,1569" fill="none" stroke="#000000" style="-webkit-tap-highlight-color: rgba(0, 0, 0, 0); stroke-linecap: round; stroke-linejoin: round; stroke-width: 17;" /><path d="M2119.65,1631.94L2132,1626L2120,1626L2151,1626L2182,1626L2207,1626L2220,1626L2282,1626L2251,1626L2301,1632L2326,1669L2320,1657L2313,1644L2338,1676" fill="none" stroke="#000000" style="-webkit-tap-highlight-color: rgba(0, 0, 0, 0); stroke-linecap: round; stroke-linejoin: round; stroke-width: 17;" /></svg>